<svg width="112" height="112" viewBox="0 0 112 112" fill="none" xmlns="http://www.w3.org/2000/svg">
<g clip-path="url(#clip0_647_1279)">
<rect x="2" y="2" width="108" height="108" rx="8" fill="white"/>
<g clip-path="url(#clip1_647_1279)">
<path fill-rule="evenodd" clip-rule="evenodd" d="M24.3254 46.5196C26.7738 46.5196 29.2248 46.5196 31.6658 46.5196C32.3108 46.5196 32.755 46.8907 32.8698 47.523C32.8773 47.5925 32.8773 47.6918 32.8773 47.7663C32.8773 52.9977 32.8773 58.2434 32.8773 63.4645C32.8773 64.2087 32.3958 64.7349 31.703 64.7349C26.7737 64.7349 21.8604 64.7349 16.9199 64.7349C16.2324 64.7349 15.7644 64.2161 15.7644 63.4645C15.7644 58.2621 15.7668 53.068 15.7644 47.8656C15.742 47.0595 16.2668 46.498 17.0139 46.5054C19.4512 46.5273 21.8843 46.5196 24.3253 46.5196L24.3254 46.5196ZM30.3675 52.4789C29.9606 53.3403 29.3367 53.9294 28.5662 54.3871C28.4348 54.4625 28.3766 54.4833 28.334 54.3013C28.1757 53.7825 27.9958 53.2711 27.8197 52.7739C27.4643 51.7221 27.1426 50.6568 26.7573 49.6103C26.5431 49.0854 26.1736 48.7354 25.6629 48.5882C24.9806 48.3844 24.285 48.3844 23.5811 48.4539C22.6441 48.5592 22.0418 49.0085 21.7261 49.9984C21.1296 51.8901 20.4815 53.7772 19.8529 55.6554C19.3445 57.1626 18.8474 58.6555 18.3705 60.1618C18.2368 60.5553 18.1809 60.9703 18.2682 61.3772C18.4294 62.1693 19.1844 62.8053 19.971 62.8351C20.8595 62.883 21.4887 62.4343 21.7402 61.5802C21.8999 61.0667 22.0768 60.5419 22.1896 60.0231C22.2642 59.6296 22.465 59.3773 22.7644 59.1877C22.7942 59.1319 22.848 59.1132 22.9144 59.0758C23.8111 58.4517 24.8174 58.2831 25.8745 58.2434C25.9999 58.2434 25.9999 58.3389 26.0163 58.4309C26.3 59.4827 26.568 60.515 26.8862 61.5586C27.0923 62.2947 27.5521 62.7016 28.2827 62.8143C29.3801 62.9957 30.5926 62.014 30.3864 60.6899C30.3416 60.4852 30.2923 60.2395 30.2363 60.0365C29.9183 59.1266 29.613 58.192 29.3127 57.2879C29.2829 57.1565 29.2829 57.0446 29.365 56.9535C29.6964 56.5945 29.9077 56.1884 30.0891 55.7255C30.4638 54.681 30.3974 53.5868 30.3705 52.4789" fill="#E82E2D"/>
<path fill-rule="evenodd" clip-rule="evenodd" d="M67.2678 53.0969C67.8217 52.8776 68.351 52.7111 68.9324 52.7172C69.5207 52.7172 69.861 53.0754 69.8341 53.7129C69.8341 54.2049 69.6788 54.681 69.5691 55.1366C69.5691 55.1843 69.5318 55.2403 69.5691 55.3128C69.861 54.8685 70.1491 54.4624 70.4895 54.0982C70.9173 53.601 71.3697 53.1591 71.9287 52.8723C72.2236 52.7172 72.5364 52.6176 72.8447 52.6261C73.5986 52.6529 73.9734 53.0969 73.9868 53.8944C74.0018 54.3444 73.8778 54.7863 73.7972 55.2274C73.7748 55.3051 73.7748 55.3828 73.7524 55.5427C73.9346 55.297 74.066 55.0879 74.2212 54.8685C74.7318 54.1675 75.3102 53.483 76.0434 53.0253C76.4547 52.7657 76.8937 52.5992 77.3812 52.6477C78.0022 52.7172 78.3256 53.097 78.3447 53.7772C78.3746 54.2883 78.2507 54.7721 78.173 55.2754C77.9237 56.5034 77.6699 57.729 77.4751 58.9496C77.4228 59.3907 77.4228 59.8065 77.5273 60.2126C77.5796 60.4425 77.6692 60.6256 77.8431 60.8017C77.2758 61.1733 76.668 61.4385 75.9815 61.2913C75.4798 61.1733 75.2096 60.7883 75.1596 60.1992C75.1222 59.6027 75.2447 59.0139 75.3432 58.4308C75.5843 57.2476 75.8172 56.0973 76.0427 54.9327C76.0651 54.8498 76.0651 54.7863 76.0651 54.7163C76.0427 54.6386 75.9904 54.6125 75.9076 54.6647C75.7866 54.7087 75.6851 54.7937 75.6052 54.9117C74.861 55.8158 74.2742 56.8407 73.7294 57.8844C73.4591 58.4121 73.218 58.9712 73.0015 59.5116C72.8224 59.9962 72.6395 60.4994 72.9045 60.9922C72.9567 61.0667 72.8821 61.0667 72.8448 61.1033C72.3498 61.2913 71.8377 61.4117 71.2818 61.2995C70.7973 61.1868 70.5622 60.7583 70.6525 60.1776C70.7675 59.4424 70.9713 58.7405 71.1131 58.024C71.349 57.0446 71.552 56.0831 71.6834 55.0879C71.7133 54.9409 71.8275 54.7513 71.6536 54.6647C71.5199 54.5902 71.3938 54.7648 71.2997 54.8685C70.6659 55.5703 70.1979 56.383 69.7507 57.2184C69.3603 57.9494 69.0259 58.6771 68.6997 59.4424C68.4795 59.9454 68.3272 60.4426 68.581 60.9922C68.6333 61.0667 68.5757 61.0667 68.5363 61.1033C68.0249 61.2913 67.4926 61.4251 66.9844 61.2913C66.3558 61.1444 66.1063 60.633 66.2938 59.9051C66.5775 58.7458 66.8716 57.6253 67.1207 56.4823C67.2939 55.6254 67.4358 54.7648 67.4925 53.8733C67.5074 53.6218 67.5597 53.3008 67.2678 53.0969Z" fill="#E82E2D"/>
<path fill-rule="evenodd" clip-rule="evenodd" d="M46.9625 59.7012C46.9625 60.6756 46.2098 61.3608 45.4046 61.2913C44.7327 61.2347 44.3495 60.9145 44.157 60.1992C44.0824 59.905 43.9726 59.6027 43.8846 59.2951C43.8622 59.1877 43.8248 59.1132 43.686 59.1132C42.6724 59.1266 41.6682 59.1266 40.6627 59.1132C40.5157 59.1132 40.4858 59.1824 40.4455 59.287C40.3552 59.5953 40.2447 59.8834 40.1835 60.1776C39.9259 61.2347 39.0787 61.4251 38.4306 61.2429C37.62 61.0048 37.1968 60.2395 37.4349 59.3512C37.6924 58.4308 38.0239 57.5425 38.321 56.6377C38.8996 54.8685 39.5064 53.1238 40.0602 51.3494C40.3327 50.4961 40.7933 50.0326 41.6548 49.9549C42.1266 49.9207 42.6239 49.9207 43.098 50.0603C43.625 50.1588 43.9728 50.5148 44.1571 51.0555C44.5513 52.2408 44.944 53.4261 45.329 54.5901C45.8247 56.0831 46.301 57.5202 46.7959 59.0057C46.887 59.2735 46.9564 59.5603 46.9624 59.7012L46.9625 59.7012ZM41.133 56.6377C41.7601 56.6377 42.3886 56.6377 43.012 56.6377C43.1673 56.6646 43.1912 56.6087 43.1382 56.4346C42.9105 55.642 42.6724 54.8335 42.4365 54.0368C42.3693 53.7345 42.2738 53.4606 42.1879 53.1457H42.1506C41.8132 54.3013 41.466 55.4658 41.1333 56.6377" fill="#1560AA"/>
<path fill-rule="evenodd" clip-rule="evenodd" d="M65.1239 57.0632C65.109 58.0455 65.1687 59.0196 65.109 59.988C64.994 61.1233 63.9795 61.749 63.0852 61.2428C62.9306 61.1659 62.8261 61.0667 62.7328 60.9703C62.6731 60.8576 62.6201 60.871 62.5238 60.9353C60.2274 62.2812 57.2758 60.718 56.9361 57.9404C56.7622 56.5034 57.0242 55.1842 57.9157 54.0982C58.6518 53.1717 59.6222 52.808 60.7173 52.7172C61.3622 52.6827 61.975 52.8373 62.5425 53.1717C62.6202 53.2276 62.6762 53.2584 62.7493 53.1591C63.1793 52.7112 63.6824 52.6127 64.2288 52.8426C64.7715 53.033 65.0388 53.5225 65.1089 54.1272C65.1687 54.9812 65.1239 55.8382 65.1239 56.6938C65.1239 56.8407 65.1239 56.9534 65.1239 57.0633L65.1239 57.0632ZM61.0644 59.2869C61.6728 59.2869 61.9848 59.0347 62.1565 58.4121C62.3357 57.877 62.3357 57.3176 62.3043 56.7496C62.2819 56.3085 62.2371 55.915 62.0304 55.5082C61.8893 55.1924 61.6728 54.9886 61.3301 54.9327C60.6493 54.7937 60.0664 55.1366 59.8304 55.8642C59.5714 56.6719 59.5714 57.5201 59.8304 58.3555C60.0208 58.9846 60.4567 59.2869 61.0644 59.2869Z" fill="#1161AB"/>
<path fill-rule="evenodd" clip-rule="evenodd" d="M87.8041 58.5159C87.4189 59.0407 87.0733 59.5953 86.6425 60.0575C86.1633 60.6256 85.6415 61.1309 84.9241 61.286C84.6031 61.3555 84.3083 61.3608 84.0148 61.2995C83.3154 61.1517 82.9682 60.6329 82.8669 59.9453C82.6526 58.7892 82.8295 57.6813 83.2043 56.6161C83.6022 55.4658 84.2419 54.4624 85.1228 53.6779C86.1986 52.7172 87.3912 52.5431 88.7133 53.1238C88.773 53.1457 88.8656 53.2584 88.882 53.0969C88.9626 52.5618 89.0858 52.0296 89.0343 51.4755C88.997 51.1121 88.997 51.1121 89.3426 50.9383C89.736 50.7479 90.1317 50.6568 90.5788 50.6776C91.2424 50.7263 91.5821 51.1592 91.4621 51.8421C91.315 52.6342 91.1224 53.4261 90.9597 54.1967C90.6543 55.6074 90.3617 56.9884 90.1804 58.4121C90.0863 59.1877 90.0863 59.988 90.4208 60.7106C90.4656 60.7883 90.4282 60.8144 90.3685 60.8576C89.7982 61.3348 89.1482 61.5025 88.4577 61.222C87.9867 61.0129 87.7724 60.5768 87.7321 60.0522C87.6873 59.555 87.7694 59.0347 87.7993 58.5159L87.8041 58.5159ZM85.2346 58.4308C85.2271 58.6286 85.2346 58.8369 85.2645 59.0347C85.3242 59.4257 85.519 59.4982 85.8019 59.2527C86.0908 59.0347 86.2834 58.7331 86.485 58.4308C87.1374 57.5475 87.6165 56.56 88.1593 55.642C88.5266 55.0373 88.499 54.9812 87.9324 54.5901C87.9249 54.5691 87.9025 54.5527 87.8951 54.5348C87.2635 54.1056 86.7334 54.2048 86.2834 54.8335C86.1983 54.9327 86.1423 55.0373 86.0908 55.1574C85.6257 56.1884 85.3071 57.2663 85.2346 58.4308Z" fill="#E82E2D"/>
<path fill-rule="evenodd" clip-rule="evenodd" d="M55.1716 57.5976C55.1716 58.2831 55.1716 59.0347 55.1716 59.7365C55.1716 59.8834 55.1716 60.023 55.1567 60.1618C55.0156 60.9353 54.4901 61.3556 53.757 61.2913C52.9598 61.2347 52.4842 60.6972 52.47 59.8626C52.4401 59.1877 52.47 58.4867 52.4476 57.794C52.4476 56.9534 52.4476 56.0973 52.47 55.2627C52.47 55.1013 52.4476 55.0239 52.2669 54.9975C51.9108 54.9678 51.619 54.8124 51.4079 54.4832C51.0713 53.8733 51.4079 53.1718 52.0828 53.033C52.4463 52.9626 52.4702 52.9626 52.4463 52.5618C52.4463 52.2327 52.4463 51.9035 52.5135 51.6032C52.6635 50.8517 53.0965 50.3484 53.7578 50.0811C54.59 49.7645 55.4037 49.7788 56.2517 50.0603C56.8034 50.2201 57.1081 50.6567 57.0731 51.1971C57.0507 51.6943 56.7708 51.9811 56.2944 51.9682C56.0779 51.9682 55.8778 51.9384 55.6763 51.9682C55.3523 51.9946 55.2 52.1713 55.1784 52.5276C55.1634 52.9903 55.1634 52.9977 55.5934 52.9903C55.7756 52.9903 55.9764 52.9976 56.1578 53.033C56.5967 53.1238 56.8968 53.4607 56.9186 53.9587C56.9484 54.4348 56.723 54.7648 56.2818 54.9328C55.9765 55.0373 55.6764 55.0239 55.3635 55.0239C55.2082 54.9975 55.1784 55.0537 55.1784 55.2193C55.1784 56.0143 55.1784 56.7983 55.1784 57.5976" fill="#1260AA"/>
<path fill-rule="evenodd" clip-rule="evenodd" d="M47.8739 55.5993C47.8739 54.1967 47.8665 52.808 47.8739 51.4054C47.8739 50.6567 48.3158 50.0603 48.9046 49.9073C49.7663 49.666 50.4866 50.2201 50.6359 51.1592C50.6508 51.3285 50.6732 51.4921 50.6732 51.6735C50.6732 54.2794 50.6732 56.881 50.6732 59.4826C50.6732 59.7012 50.6508 59.9237 50.5904 60.1426C50.4 60.8844 49.9028 61.3205 49.2125 61.2994C48.5533 61.2779 48.0501 60.8091 47.9112 60.0575C47.8665 59.8492 47.8665 59.6027 47.8665 59.3997C47.8665 58.1306 47.8665 56.846 47.8665 55.5993L47.8739 55.5993Z" fill="#1560AA"/>
<path fill-rule="evenodd" clip-rule="evenodd" d="M94.4859 60.7665C93.8813 61.222 93.2466 61.4251 92.5459 61.2995C92.0158 61.222 91.7 60.8017 91.6731 60.1918C91.6059 59.5603 91.7724 58.9444 91.9008 58.3389C92.1337 57.1699 92.4278 56.027 92.6204 54.8498C92.7003 54.4221 92.7436 53.9644 92.6503 53.5225C92.6503 53.4606 92.6428 53.3919 92.613 53.3403C92.5003 53.0464 92.5003 53.0464 92.8078 52.9627C93.3356 52.8081 93.8707 52.6611 94.424 52.7172C95.0876 52.8426 95.3473 53.2584 95.1764 53.9294C94.9539 54.7937 94.7165 55.6554 94.5336 56.531C94.3313 57.4164 94.1514 58.2831 94.0574 59.1959C94.052 59.4423 94.052 59.6804 94.0723 59.905C94.132 60.2395 94.2171 60.5337 94.4844 60.7665" fill="#E82E2D"/>
<path fill-rule="evenodd" clip-rule="evenodd" d="M80.0032 54.1272C80.0032 53.7129 79.9659 53.4396 79.8211 53.1665C79.7912 53.097 79.8061 53.068 79.8808 53.033C80.5235 52.8215 81.1759 52.6342 81.8583 52.7738C82.3748 52.8723 82.6069 53.271 82.4659 53.8517C82.3106 54.6125 82.1106 55.3312 81.9254 56.0831C81.6978 57.0632 81.4865 58.0882 81.3633 59.0916C81.326 59.4982 81.3409 59.905 81.4626 60.3037C81.4999 60.3814 81.5223 60.4507 81.5641 60.5337C81.6313 60.6195 81.7433 60.718 81.7217 60.7583C81.6769 60.9063 81.5425 60.9487 81.4514 60.9921C81.002 61.2429 80.5549 61.3772 80.0517 61.3348C79.3216 61.2563 78.9551 60.8368 78.9417 60.0365C78.9391 59.4423 79.0865 58.8459 79.2037 58.2433C79.4291 57.0848 79.7472 55.9419 79.9398 54.7647C79.9696 54.5259 79.9845 54.2533 80.0069 54.1272" fill="#E82E2D"/>
<path fill-rule="evenodd" clip-rule="evenodd" d="M82.0685 49.9073C82.1059 49.9073 82.1544 49.9073 82.2111 49.9073C82.9091 49.9549 83.1824 50.3976 83.0002 51.1121C82.9091 51.4621 82.7247 51.6735 82.3985 51.7781C82.0043 51.89 81.6274 51.9946 81.21 51.9458C80.6479 51.8421 80.4874 51.6309 80.621 51.0336C80.6957 50.7903 80.7524 50.544 80.621 50.2849C80.5613 50.1938 80.6957 50.2072 80.7337 50.1938C81.1749 49.9984 81.6085 49.9125 82.0683 49.9073" fill="#E92D2E"/>
<path fill-rule="evenodd" clip-rule="evenodd" d="M93.3006 50.2201C93.9052 49.9984 94.5151 49.8088 95.1417 49.9476C95.6426 50.0326 95.8508 50.4237 95.7306 50.9567C95.656 51.3794 95.4656 51.687 95.0133 51.7907C94.6228 51.8982 94.2376 51.9946 93.8337 51.9385C93.3597 51.8205 93.2014 51.6032 93.3358 51.1068C93.3433 50.9994 93.3657 50.8867 93.3955 50.7829C93.4403 50.5999 93.4179 50.4187 93.2992 50.2201" fill="#E92D2E"/>
<path fill-rule="evenodd" clip-rule="evenodd" d="M30.3676 52.4789C30.3974 53.5868 30.4609 54.681 30.0861 55.7254C29.9047 56.1884 29.6935 56.5945 29.362 56.9534C29.2836 57.0445 29.2836 57.1565 29.3098 57.2879C29.6099 58.1919 29.9152 59.1266 30.2333 60.0364C30.2856 60.2395 30.3356 60.4852 30.3834 60.6898C30.5894 62.0139 29.3772 62.9957 28.2798 62.8142C27.549 62.7015 27.0892 62.2947 26.8833 61.5586C26.5653 60.5149 26.2973 59.4826 26.0135 58.4308C25.9985 58.3389 25.9985 58.2433 25.8716 58.2433C24.8145 58.2831 23.8082 58.4516 22.9115 59.0757C22.8443 59.1131 22.7891 59.1318 22.7615 59.1877C22.4621 59.3773 22.2583 59.6296 22.1867 60.023C22.074 60.5418 21.897 61.0667 21.7373 61.5802C21.4857 62.4342 20.8566 62.883 19.9681 62.835C19.1815 62.8053 18.4267 62.1693 18.2653 61.3771C18.178 60.9703 18.2355 60.5552 18.3676 60.1618C18.8446 58.6554 19.3417 57.1625 19.85 55.6554C20.4785 53.7772 21.1267 51.89 21.7232 49.9984C22.0389 49.0085 22.6412 48.5592 23.5782 48.4538C24.2822 48.3843 24.9779 48.3843 25.66 48.5882C26.1706 48.7354 26.5403 49.0854 26.7544 49.6102C27.1396 50.6568 27.4614 51.722 27.8168 52.7738C27.993 53.271 28.1729 53.7824 28.3311 54.3012C28.3759 54.4832 28.4319 54.4624 28.5633 54.3871C29.3338 53.9294 29.958 53.3403 30.3646 52.4789L30.3676 52.4789ZM23.0617 56.6853C23.694 56.0973 24.3732 55.7254 25.0982 55.4739C25.2565 55.4389 25.1654 55.3312 25.143 55.2627C24.8915 54.3921 24.6563 53.5307 24.3936 52.6685C24.3861 52.5916 24.3861 52.5089 24.2928 52.4438C23.8912 53.8464 23.4916 55.2274 23.0611 56.6853" fill="white"/>
<path fill-rule="evenodd" clip-rule="evenodd" d="M23.0618 56.6853C23.4925 55.2274 23.8919 53.8464 24.2935 52.4438C24.3846 52.5089 24.3846 52.5916 24.3943 52.6685C24.657 53.5307 24.8922 54.3921 25.1438 55.2627C25.1662 55.3312 25.2565 55.4389 25.099 55.4739C24.3741 55.7254 23.6948 56.0973 23.0625 56.6853" fill="#E92D2E"/>
</g>
</g>
<rect x="1" y="1" width="110" height="110" rx="9" stroke="black" stroke-opacity="0.1" stroke-width="2"/>
<defs>
<clipPath id="clip0_647_1279">
<rect x="2" y="2" width="108" height="108" rx="8" fill="white"/>
</clipPath>
<clipPath id="clip1_647_1279">
<rect width="80" height="18.2296" fill="white" transform="translate(15.7637 46.5053)"/>
</clipPath>
</defs>
</svg>
