<svg width="112" height="112" viewBox="0 0 112 112" fill="none" xmlns="http://www.w3.org/2000/svg">
<g clip-path="url(#clip0_656_79)">
<rect x="2" y="2" width="108" height="108" rx="8" fill="white"/>
<path fill-rule="evenodd" clip-rule="evenodd" d="M91.7197 40.9372C94.0251 41.6498 95.3774 42.8175 95.811 45.4448C95.8796 45.8784 95.8753 46.4494 95.8882 46.8916C95.914 47.8103 95.9269 48.7333 95.9397 49.6563C95.9741 52.2836 95.987 54.9109 95.9956 57.5382C95.9998 60.1054 95.9998 62.6769 95.9827 65.2484C95.9741 66.1714 95.9655 67.0901 95.9483 68.0131C95.9397 68.5025 95.9398 69.0306 95.8925 69.52L95.8281 70.1811L95.1756 70.3056C94.2955 70.473 93.3382 70.5159 92.4452 70.5503C91.6639 70.5803 90.8783 70.5889 90.1013 70.6404C85.1171 70.9624 80.1372 71.2887 75.1659 71.8124C68.8252 72.4821 62.5016 73.3279 56.1608 74.0019C49.8845 74.6716 43.6425 75.6117 37.3876 76.4575C35.7991 76.6721 34.2236 76.9211 32.6309 77.1057C31.6993 77.213 30.7635 77.3032 29.8276 77.3418C29.0205 77.3761 28.1705 77.3804 27.372 77.2688C23.2507 76.685 22.7398 74.062 22.5724 70.6791C21.4906 70.5718 20.6277 70.6147 19.4557 70.048C15.7723 68.2707 16.12 63.1792 16.12 59.7663C16.12 57.1991 16.0557 54.6319 16.0256 52.0646C15.987 49.1712 15.9784 46.2519 16.1544 43.3627L16.2059 42.5385L17.0302 42.5299C18.7989 42.5127 20.5848 42.4011 22.3535 42.3238C27.8914 42.0877 33.4337 41.6284 38.9459 41.0531C44.9089 40.4263 50.859 39.6579 56.7919 38.795C63.1756 37.872 69.5464 36.8159 75.9601 36.0732C77.0377 35.9487 78.1109 35.7727 79.1799 35.5967C82.1463 35.1202 86.4093 34.3303 89.0838 36.0732C90.7796 37.1808 91.4836 39.0139 91.7197 40.9329V40.9372Z" fill="white"/>
<path fill-rule="evenodd" clip-rule="evenodd" d="M17.0387 43.4185C16.7211 48.5143 17.0044 54.5675 17.0044 59.7663C17.0044 62.7542 16.6223 67.6954 19.8378 69.2452C21.1128 69.8591 22.0272 69.6573 23.4267 69.8935C23.577 73.6069 23.8002 75.865 27.5008 76.3845C29.9735 76.7322 34.7302 75.9165 37.2716 75.5731C43.5222 74.7274 49.8244 73.7786 56.0707 73.1132C62.3599 72.4435 68.6792 71.5978 75.0758 70.9238C80.1887 70.3829 84.9668 70.0781 90.0455 69.7518C91.4965 69.6573 93.6516 69.696 95.0125 69.4341C95.1756 67.7169 95.1327 46.7928 94.9352 45.5908C94.5316 43.1223 93.2523 42.2423 90.8955 41.6284C90.3073 33.3987 82.4554 36.2192 76.0632 36.9576C69.7353 37.6917 63.2357 38.7649 56.9207 39.6793C45.9435 41.2678 33.5883 42.7402 22.3921 43.2168C20.8982 43.2812 18.4297 43.4057 17.0387 43.4228V43.4185ZM18.5027 44.8653C20.5762 44.6249 27.4407 44.4231 30.4114 44.2042C34.3309 43.9165 38.2419 43.5516 42.0798 43.0923C53.5249 41.7314 64.5579 39.9069 75.7326 38.4988C78.2612 38.1811 85.0312 36.8975 87.079 37.726C88.6459 38.3614 89.3543 39.5248 89.4101 41.6627C89.4659 43.7706 89.3972 45.9986 89.3972 48.1237C89.3972 52.3265 89.4917 56.6324 89.3886 60.8224L77.321 61.4019C65.9832 62.1145 54.2504 63.7802 43.0715 65.33C39.3795 65.8452 35.6618 66.4376 32.0599 67.0515C29.5657 67.4765 22.8901 68.8417 20.7393 68.0303C17.79 66.9184 18.4898 61.0713 18.4898 57.564C18.4898 53.5028 18.2794 48.8535 18.507 44.8653H18.5027Z" fill="#FF0000"/>
<path fill-rule="evenodd" clip-rule="evenodd" d="M26.4748 48.4456L23.2292 48.7848L21.7653 61.7797L24.6846 61.4749L24.8348 60.1398H24.8649C25.1654 60.9984 25.8351 61.6208 27.1917 61.4792C29.8619 61.2001 31.1455 58.8347 31.4718 56.0357C31.7938 53.1851 30.5574 51.2447 28.4667 51.4636C27.5008 51.5666 26.7152 52.0045 25.9725 52.9404L26.479 48.4456H26.4748ZM26.5821 58.8647C25.5217 58.9764 25.3457 57.7271 25.4616 56.7182C25.5775 55.7437 26.097 54.5846 27.0801 54.4816C28.1276 54.37 28.3122 55.4947 28.1962 56.5036C28.0803 57.5339 27.6425 58.7531 26.5821 58.8647ZM32.236 60.6764L35.4815 60.3372L35.8507 57.0703C36.0825 55.0311 36.8338 54.2369 38.1603 54.0995C38.3792 54.0781 38.5982 54.1253 38.8214 54.1382L39.2507 50.3861C39.109 50.3861 38.9674 50.3603 38.8257 50.3775C37.5593 50.5106 36.6835 51.2962 36.0696 52.8245H36.0396L36.2456 50.9141L33.2963 51.2232L32.236 60.6807V60.6764ZM42.5692 59.5903L43.6296 50.1328L40.3841 50.4719L39.3237 59.9294L42.5692 59.5903ZM40.5214 49.2656L43.7669 48.9265L44.0675 46.2562L40.822 46.5954L40.5214 49.2656ZM49.4079 51.9187C50.4383 51.8113 50.6658 52.7687 50.5499 53.8119C50.434 54.8207 49.9446 55.8554 48.9572 55.9069C48.0814 55.9799 47.7809 55.1384 47.8839 54.2025C48.0213 52.9748 48.4206 52.0045 49.4079 51.9187ZM44.4452 59.8736C44.4538 61.2474 45.5228 62.4537 48.4077 62.1489C52.4345 61.7282 52.954 59.4786 53.2802 56.6453L54.1302 49.0295L51.2754 49.33L51.138 50.575C50.6658 49.7164 49.8115 49.2141 48.8284 49.3214C46.1453 49.6047 44.9003 52.1763 44.6341 54.5074C44.3723 56.9243 45.4197 58.8476 47.6865 58.6115C48.8584 58.487 49.6183 57.9289 50.142 57.3364L50.0648 58.1135C49.9145 59.4658 49.4809 59.9938 48.5451 60.0925C48.2188 60.1269 47.9955 60.0625 47.8625 59.9337C47.7466 59.8049 47.695 59.6504 47.7036 59.5387L44.4409 59.8822L44.4452 59.8736ZM54.7141 58.3152L57.9596 57.9761L58.5005 53.1594C58.6379 51.9487 58.9856 51.1846 59.9859 51.0772C60.9089 50.9785 61.0334 51.7856 60.9303 52.7258L60.3637 57.7228L63.6092 57.3837L64.2402 51.7169C64.5408 49.1153 63.6865 47.7631 61.5357 47.9906C60.4409 48.1065 59.651 48.686 58.8912 49.7121L59.4192 44.9855L56.1737 45.3246L54.7098 58.3195L54.7141 58.3152ZM70.8257 53.9664L70.3105 54.0222C69.4047 54.1167 69.3317 53.8205 69.4348 52.9533L69.8126 49.5275L71.3752 49.3643L71.6156 47.2007L70.053 47.3638L70.3878 44.4231L67.1895 44.758L66.8547 47.6987L65.6526 47.8232L65.4122 49.9868L66.5671 49.8666L66.1292 53.8162C65.76 57.0832 66.2279 57.3708 70.5252 56.6539L70.8257 53.9664Z" fill="#FF0000"/>
<path fill-rule="evenodd" clip-rule="evenodd" d="M87.0361 47.5999L85.0999 45.0585L78.6433 48.2439L78.2011 55.7094L81.468 55.3488L81.6312 51.8757L85.0184 54.3786L86.229 51.2704L83.4042 49.4545L87.0361 47.5999Z" fill="#FF6600"/>
<path fill-rule="evenodd" clip-rule="evenodd" d="M44.7844 68.524C44.7887 68.0045 44.9261 67.9874 45.3167 67.9444L45.3682 67.1331L44.8574 67.1932C44.0932 67.2833 43.6725 67.5151 43.5995 68.6657L43.196 68.7129L43.1488 69.4599L43.5437 69.4126L43.3892 71.9197L44.5826 71.7824L44.7372 69.2753L45.2352 69.2195L45.2824 68.4725L44.7844 68.5283V68.524ZM47.2486 69.0091C47.562 68.9533 47.738 69.2924 47.7036 69.769C47.6693 70.3829 47.4546 70.6748 47.1327 70.7091C46.8279 70.7435 46.6347 70.5031 46.669 69.8849C46.6905 69.52 46.8407 69.052 47.2443 69.0048L47.2486 69.0091ZM45.4756 70.0952C45.4112 71.2071 46.1152 71.6922 47.0811 71.5806C48.0428 71.469 48.8284 70.825 48.9014 69.6316C48.9658 68.6184 48.3519 68.0174 47.2915 68.1419C46.2741 68.2578 45.5485 68.9662 45.4799 70.0952H45.4756ZM51.0779 68.5669C51.3913 68.5111 51.5673 68.8503 51.533 69.3268C51.4986 69.9407 51.284 70.2326 50.962 70.2669C50.6572 70.3013 50.464 70.0609 50.4984 69.4427C50.5198 69.0778 50.6701 68.6098 51.0736 68.5626L51.0779 68.5669ZM49.3049 69.653C49.2405 70.7649 49.9446 71.25 50.9105 71.1384C51.8721 71.0268 52.6577 70.3829 52.7307 69.1894C52.7951 68.1763 52.1812 67.5752 51.1208 67.6997C50.1034 67.8156 49.3779 68.524 49.3049 69.653ZM56.3841 70.4129L56.6631 65.9396L55.4697 66.077L55.3709 67.6225C55.1391 67.3305 54.8815 67.2618 54.5037 67.3048C53.7868 67.3863 53.1858 68.1548 53.1171 69.2366C53.0613 70.1553 53.4734 70.8422 54.3792 70.7349C54.7656 70.6919 55.0318 70.5288 55.3366 70.0995L55.3108 70.5331L56.3841 70.4086V70.4129ZM54.7398 69.769C54.3492 69.8162 54.2934 69.4255 54.3148 69.0864C54.3363 68.7258 54.4737 68.305 54.8686 68.2578C55.2636 68.2106 55.3537 68.5884 55.328 68.949C55.3108 69.3268 55.152 69.7217 54.7398 69.769ZM62.2097 69.7389V69.6745C62.068 69.5586 62.0637 69.4641 62.0809 69.2796L62.1753 67.7598C62.2225 66.9828 62.1753 66.4204 60.75 66.5836C59.5609 66.7209 59.0887 67.176 59.0414 67.8672L60.1877 67.7341C60.2349 67.4507 60.4581 67.3863 60.6255 67.3692C60.75 67.3563 61.0119 67.3563 60.9947 67.5924C60.9604 68.202 58.8611 67.777 58.7667 69.2581C58.7237 69.9321 59.2089 70.1811 59.7755 70.1124C60.222 70.0609 60.574 69.9192 60.9346 69.5414L60.969 69.8806L62.2011 69.7389H62.2097ZM60.368 69.3182C60.1319 69.3439 59.9945 69.2495 60.0074 69.0907C60.0331 68.6699 60.544 68.7086 60.9475 68.4596C60.9475 68.9018 60.7887 69.271 60.368 69.3182ZM62.6776 69.6874L63.8711 69.55L63.9741 67.8929C63.9998 67.4765 64.1115 67.2103 64.4807 67.1674C64.8198 67.1288 64.8842 67.4035 64.8627 67.7255L64.7554 69.447L65.9489 69.3096L66.0691 67.3606C66.1292 66.4676 65.7857 66.004 64.9915 66.0984C64.5365 66.15 64.2317 66.3947 63.9397 66.8197L63.9698 66.3088L62.8794 66.4333L62.6776 69.6874ZM69.7782 68.8631L70.0573 64.3898L68.8638 64.5272L68.7651 66.0727C68.5332 65.7808 68.2757 65.7121 67.8979 65.755C67.181 65.8366 66.5799 66.605 66.5112 67.6869C66.4554 68.6056 66.8676 69.2924 67.7734 69.1851C68.1598 69.1422 68.4259 68.979 68.7307 68.5497L68.705 68.9833L69.7782 68.8588V68.8631ZM68.134 68.2192C67.7433 68.2664 67.6875 67.8757 67.709 67.5323C67.7305 67.1717 67.8678 66.751 68.2628 66.7038C68.6577 66.6565 68.7479 67.0343 68.7221 67.3949C68.705 67.7727 68.5461 68.1677 68.134 68.2149V68.2192ZM75.518 68.1977L75.797 63.7244L74.6035 63.8618L74.5048 65.4073C74.273 65.1153 74.0154 65.0467 73.6376 65.0896C72.9207 65.1712 72.3197 65.9396 72.251 67.0214C72.1952 67.9401 72.6073 68.627 73.5131 68.5197C73.8995 68.4768 74.1657 68.3136 74.4705 67.8843L74.4447 68.3179L75.518 68.1934V68.1977ZM73.8737 67.5538C73.4831 67.601 73.4273 67.2103 73.4487 66.8712C73.4702 66.5106 73.6076 66.0899 74.0025 66.0426C74.3975 65.9954 74.4876 66.3732 74.4619 66.7338C74.4447 67.1116 74.2859 67.5065 73.8737 67.5538ZM76.0932 68.129L77.2867 67.9917L77.3554 66.8669C77.3983 66.1628 77.6602 65.8881 78.1496 65.8323C78.2311 65.8237 78.3127 65.8366 78.3943 65.8409L78.4758 64.5487C78.4243 64.5487 78.3728 64.5444 78.317 64.5487C77.8533 64.6045 77.5442 64.8792 77.3468 65.4073H77.3339L77.3725 64.7504L76.2864 64.8749L76.0846 68.129H76.0932ZM79.8925 67.6911L80.0943 64.4371L78.9008 64.5744L78.6991 67.8285L79.8925 67.6911ZM78.9266 64.158L80.12 64.0206L80.1759 63.1019L78.9824 63.2393L78.9266 64.158ZM80.5279 67.6182L81.7213 67.4808L81.8244 65.8237C81.8501 65.4073 81.9617 65.1411 82.3309 65.0982C82.6701 65.0595 82.7345 65.3343 82.713 65.6563L82.6057 67.3778L83.7991 67.2404L83.9193 65.2914C83.9795 64.3984 83.636 63.9348 82.8418 64.0292C82.3867 64.0807 82.0819 64.3254 81.79 64.7504L81.8201 64.2396L80.7297 64.3641L80.5279 67.6182ZM85.8727 65.8537L86.4436 66.9356L87.8775 66.7682L86.7484 64.9179L87.9333 63.5269L86.5381 63.6901L85.7138 64.7719L85.8512 62.561L84.6577 62.6984L84.3787 67.1717L85.5722 67.0343L85.628 66.1199L85.8684 65.8537H85.8727Z" fill="white"/>
<path fill-rule="evenodd" clip-rule="evenodd" d="M79.3688 42.5943L82.4383 42.2337L81.9145 50.1027L75.5351 52.9275L73.6419 50.2616L77.3124 48.6474L74.4061 46.6726L75.7798 43.7233L79.1284 46.106L79.3688 42.5943Z" fill="#FF0000"/>
</g>
<rect x="1" y="1" width="110" height="110" rx="9" stroke="black" stroke-opacity="0.1" stroke-width="2"/>
<defs>
<clipPath id="clip0_656_79">
<rect x="2" y="2" width="108" height="108" rx="8" fill="white"/>
</clipPath>
</defs>
</svg>
