<svg width="112" height="112" viewBox="0 0 112 112" fill="none" xmlns="http://www.w3.org/2000/svg">
<g clip-path="url(#clip0_656_80)">
<rect x="2" y="2" width="108" height="108" rx="8" fill="white"/>
<path fill-rule="evenodd" clip-rule="evenodd" d="M16 66.2752H96V40H16V66.2752Z" fill="#EE3124"/>
<path fill-rule="evenodd" clip-rule="evenodd" d="M16 71.531H96V67.5912H16V71.531Z" fill="#F8971D"/>
<path fill-rule="evenodd" clip-rule="evenodd" d="M80.5739 45.2559C75.5388 45.2559 71.7073 49.0874 71.7073 54.1184C71.7073 59.1493 75.5388 62.9892 80.5739 62.9892C82.3523 62.9892 83.989 62.5103 85.355 61.6607L79.8076 54.5057V59.0119H76.6924V49.2332H79.8076V53.7352L83.0186 49.2332H86.5836L83.1144 53.9351L87.6165 59.6116C88.7534 58.1248 89.4406 56.2382 89.4406 54.1184C89.4406 49.0832 85.6049 45.2517 80.5739 45.2517V45.2559ZM27.707 49.0624C24.7501 49.0624 22.5678 51.2739 22.5678 54.1225C22.5678 56.9712 24.7501 59.191 27.707 59.191C29.6145 59.191 31.1887 58.2414 32.0842 56.7796L30.1392 55.5094C29.6353 56.2965 28.8274 56.8754 27.7612 56.8754C26.1911 56.8754 25.1083 55.6302 25.1083 54.1267C25.1083 52.6232 26.1911 51.378 27.7612 51.378C28.8315 51.378 29.5895 51.9236 30.1184 52.769L32.1091 51.4613C31.2137 49.9661 29.6145 49.0666 27.707 49.0666V49.0624ZM49.551 49.0624C46.5899 49.0624 44.4117 51.2739 44.4117 54.1225C44.4117 56.9712 46.5899 59.191 49.551 59.191C51.4626 59.191 53.0327 58.2414 53.9281 56.7796L51.9832 55.5094C51.4751 56.2965 50.6713 56.8754 49.6051 56.8754C48.035 56.8754 46.9522 55.6302 46.9522 54.1267C46.9522 52.6232 48.035 51.378 49.6051 51.378C50.6713 51.378 51.4293 51.9236 51.9623 52.769L53.9531 51.4613C53.0618 49.9661 51.4667 49.0666 49.5551 49.0666L49.551 49.0624ZM32.8088 49.2373V59.0161H35.3243V49.2373H32.8088ZM36.4904 49.2373H39.6348C42.3835 49.2373 43.9161 50.3201 43.9161 52.4691C43.9161 53.9018 43.0998 54.868 42.1045 55.2887L44.595 59.0161H41.6255L39.0059 54.9138V59.0161H36.4904V49.2373ZM54.5819 49.2373V59.0161H60.5208V56.7879H57.1349V49.2373H54.5819ZM61.3371 49.2373V59.0161H67.7758V56.7879H63.8526V55.1346H67.5884V53.0772H63.8526V51.4529H67.7633V49.2332H61.3329L61.3371 49.2373ZM39.0017 54.26H39.7056C40.7051 54.26 41.4131 53.7727 41.4131 52.7523C41.4131 51.732 40.7468 51.3072 39.7222 51.3072H39.0017V54.26ZM16 66.2752L16 67.5912H96L96 66.2752H16Z" fill="white"/>
</g>
<rect x="1" y="1" width="110" height="110" rx="9" stroke="black" stroke-opacity="0.1" stroke-width="2"/>
<defs>
<clipPath id="clip0_656_80">
<rect x="2" y="2" width="108" height="108" rx="8" fill="white"/>
</clipPath>
</defs>
</svg>
