<svg width="112" height="112" viewBox="0 0 112 112" fill="none" xmlns="http://www.w3.org/2000/svg">
<g clip-path="url(#clip0_647_1378)">
<rect x="2" y="2" width="108" height="108" rx="8" fill="white"/>
<g clip-path="url(#clip1_647_1378)">
<path d="M89.992 16H23.0002V96H89.992V16Z" fill="white"/>
<path d="M89.0173 16.9751H23.9758V82.0165H89.0173V16.9751Z" fill="#EE3124"/>
<path d="M75.876 64.6018C79.0075 60.5134 80.8874 55.3168 80.8874 49.4945C80.8874 35.6415 70.351 25.105 56.4979 25.105C42.6448 25.105 32.1057 35.6441 32.1057 49.4971C32.1057 63.3502 42.6422 73.8867 56.4953 73.8867C61.3946 73.8867 65.8897 72.5595 69.647 70.2389L54.3937 50.5662V62.9435H45.8102V36.0482H54.3937V48.4281L63.2354 36.0482H73.0366L63.4935 48.9809L75.8708 64.6044L75.876 64.6018Z" fill="white"/>
<path d="M89.0173 85.2679H23.9758V95.0248H89.0173V85.2679Z" fill="#F8971D"/>
</g>
</g>
<rect x="1" y="1" width="110" height="110" rx="9" stroke="black" stroke-opacity="0.1" stroke-width="2"/>
<defs>
<clipPath id="clip0_647_1378">
<rect x="2" y="2" width="108" height="108" rx="8" fill="white"/>
</clipPath>
<clipPath id="clip1_647_1378">
<rect width="66.9918" height="80" fill="white" transform="translate(23.0002 16)"/>
</clipPath>
</defs>
</svg>
