<svg width="112" height="112" viewBox="0 0 112 112" fill="none" xmlns="http://www.w3.org/2000/svg">
<g clip-path="url(#clip0_647_1235)">
<rect x="2" y="2" width="108" height="108" rx="8" fill="white"/>
<g clip-path="url(#clip1_647_1235)">
<path d="M17.6157 74.7657C16.7203 74.6156 16.1381 74.0124 16.0206 73.1131C16.003 72.9787 15.9963 66.9295 16.0014 55.8069L16.0092 38.7073L16.0714 38.4883C16.2785 37.7586 16.7474 37.2811 17.4604 37.0734L17.6795 37.0097L55.8216 37.002C83.1472 36.9964 94.0297 37.0027 94.1965 37.024C94.4744 37.0595 94.8226 37.174 95.0383 37.3009C95.1245 37.3515 95.2881 37.486 95.4018 37.5997C95.7324 37.9304 95.9146 38.3354 95.9754 38.875C95.9976 39.0716 96.0036 43.7927 95.9975 56.1629C95.9895 72.3431 95.9867 73.1891 95.9406 73.3583C95.914 73.4562 95.8378 73.6483 95.7714 73.7853C95.5147 74.3146 95.0322 74.6464 94.3399 74.7699C94.0198 74.8269 17.9563 74.8228 17.6157 74.7657Z" fill="#019EC4"/>
<path d="M94.3216 73.4807C94.4631 73.3937 94.6081 73.2068 94.6678 73.0346C94.696 72.9534 94.7041 69.6306 94.7098 55.9033C94.716 40.7693 94.7121 38.8568 94.6753 38.7302C94.6254 38.5585 94.5294 38.4382 94.3777 38.357L94.2647 38.2966H56.0678H17.8709L17.7262 38.362C17.5409 38.4457 17.3763 38.6305 17.3227 38.815C17.2869 38.9381 17.2829 40.9944 17.289 55.9991L17.2959 73.0434L17.3589 73.18C17.4417 73.3596 17.5135 73.4341 17.6793 73.5123L17.8162 73.5769L56.0015 73.5703L94.1869 73.5637L94.3216 73.4807Z" fill="white"/>
<path d="M55.7255 56.358C55.6007 56.3306 55.4789 56.2657 55.4105 56.1902C55.3592 56.1336 55.3553 56.0849 55.3477 55.4083L55.3396 54.6868L54.6174 54.6787C53.8979 54.6706 53.895 54.6703 53.8253 54.6048C53.7091 54.4956 53.6582 54.3195 53.6582 54.0271C53.6582 53.7306 53.7139 53.5424 53.8283 53.4524C53.8944 53.4004 53.9385 53.3973 54.6202 53.3973H55.3422V52.7119C55.3422 51.8998 55.3468 51.8801 55.5635 51.7721C55.6942 51.707 55.7379 51.6999 55.9978 51.7018C56.2987 51.704 56.4003 51.7277 56.5351 51.8275L56.6154 51.8869L56.6291 52.6353L56.6428 53.3837L57.3913 53.3973L58.1399 53.411L58.205 53.4868C58.2962 53.5929 58.3332 53.7542 58.3326 54.0424C58.332 54.3401 58.2913 54.4912 58.1841 54.5939L58.1042 54.6706L57.3666 54.6787L56.6291 54.6868V55.4074C56.6291 56.2252 56.63 56.2216 56.4037 56.3135C56.2744 56.366 55.8798 56.3919 55.7255 56.358Z" fill="#F27D2E"/>
<path d="M80.6152 60.8208C80.3525 60.7354 80.1408 60.537 80.0036 60.2476L79.917 60.0647V53.9723V47.88L79.9906 47.7229C80.0802 47.5318 80.2803 47.3259 80.4646 47.2354C80.5776 47.1798 80.6421 47.1681 80.8343 47.1683C81.1161 47.1686 81.2586 47.225 81.4641 47.4172C81.6831 47.6221 82.3295 48.5697 85.8235 53.808C86.7425 55.186 87.5115 56.3315 87.5323 56.3535C87.5644 56.3876 87.5701 55.7801 87.5701 52.298C87.5701 49.6421 87.5798 48.1505 87.5979 48.0549C87.6592 47.7293 87.8848 47.4282 88.1664 47.2962C88.3767 47.1977 88.7197 47.1917 88.9186 47.2832C89.2039 47.4143 89.454 47.7408 89.5148 48.0613C89.5538 48.2673 89.551 59.7151 89.5118 59.9296C89.466 60.1807 89.3441 60.409 89.172 60.5663C88.9757 60.7458 88.8181 60.7989 88.5199 60.7862C88.2413 60.7743 88.0471 60.6845 87.8189 60.4624C87.6556 60.3035 87.6384 60.2784 86.5444 58.5998C86.1666 58.02 85.6667 57.253 85.4337 56.8954C85.2006 56.5378 84.8796 56.0449 84.7203 55.8001C84.4556 55.3933 83.563 54.0222 82.5231 52.4253C82.2976 52.0789 82.0563 51.7093 81.987 51.6038L81.8611 51.4122L81.8474 55.711C81.8324 60.4161 81.8452 60.0686 81.6762 60.3565C81.4958 60.6639 81.2306 60.8256 80.889 60.8364C80.7761 60.84 80.6529 60.833 80.6152 60.8208Z" fill="#019EC4"/>
<path d="M70.6348 60.7957C70.34 60.6933 70.1348 60.4941 70.0128 60.1919C69.9519 60.041 69.9502 60.01 69.9418 58.901C69.933 57.7531 69.9577 57.1735 70.088 55.4625C70.1906 54.1139 70.647 52.4921 71.2781 51.2325C72.0263 49.7395 73.0837 48.5664 74.2948 47.8855C74.9306 47.5281 75.4711 47.3511 76.3164 47.2235C76.947 47.1283 77.9485 47.1441 78.2751 47.2544C78.641 47.378 78.8957 47.6812 78.9721 48.0843C79.0101 48.2843 79.0102 59.7687 78.9721 59.972C78.9104 60.3031 78.6934 60.6108 78.4208 60.7539C78.2916 60.8217 78.2446 60.8309 78.0276 60.831C77.7337 60.8311 77.6086 60.7832 77.3919 60.5873C77.2296 60.4407 77.0984 60.2005 77.0557 59.972C77.0402 59.8882 77.0283 59.3348 77.0283 58.6917V57.559L74.4613 57.566L71.8943 57.573L71.8806 58.8195L71.8669 60.066L71.7776 60.2473C71.6648 60.4763 71.3975 60.7358 71.2076 60.8005C71.0393 60.8578 70.8081 60.8559 70.6348 60.7957ZM77.0216 52.35L77.0285 49.3449L76.8847 49.3449C76.6798 49.345 76.3209 49.4129 76.0025 49.5118C74.4566 49.9921 73.2218 51.3879 72.5514 53.4131C72.3565 54.0018 72.0996 55.0751 72.0996 55.3009V55.3696L74.5571 55.3624L77.0146 55.3551L77.0216 52.35Z" fill="#019EC4"/>
<path d="M60.5952 60.8069C60.3353 60.714 60.1207 60.5188 59.9899 60.2563C59.8882 60.0522 59.8876 60.0126 59.8876 54.0315C59.8876 47.6258 59.8775 48.0294 60.0449 47.7219C60.1322 47.5615 60.3203 47.3858 60.506 47.2913L60.6406 47.2228H62.4066C64.286 47.2228 64.3689 47.2275 64.9042 47.3619C66.5055 47.764 67.9109 48.9702 68.7299 50.6455C69.0818 51.3655 69.2977 52.0744 69.422 52.9181C69.472 53.2575 69.4827 53.4525 69.4836 54.0408C69.485 54.9535 69.4201 55.4859 69.2201 56.2039C68.781 57.7798 67.7532 59.2129 66.5083 59.9849C65.7774 60.4381 64.9363 60.7291 64.1035 60.8168C63.6965 60.8596 60.7194 60.8512 60.5952 60.8069ZM64.3816 58.5513C65.1098 58.375 65.7007 58.0561 66.1892 57.5758C66.8486 56.9275 67.2561 56.1294 67.4485 55.1093C67.5208 54.7265 67.5486 53.838 67.5014 53.4219C67.3535 52.1183 66.7609 50.957 65.8781 50.2407C65.4854 49.922 65.1443 49.7325 64.6923 49.5819C64.2401 49.4314 64.1449 49.4218 62.9611 49.4076L61.859 49.3945V54.0127V58.6309L63.0022 58.6197C64.0449 58.6095 64.1661 58.6035 64.3816 58.5513Z" fill="#019EC4"/>
<path d="M43.133 60.8021C42.7789 60.6728 42.547 60.3583 42.474 59.9082C42.4362 59.6753 42.436 48.3113 42.474 48.0443C42.526 47.6764 42.7411 47.3699 43.0481 47.226C43.2211 47.1449 43.5832 47.1462 43.7649 47.2284C44.0356 47.3511 44.1175 47.4529 45.0378 48.811C46.0018 50.2337 46.4022 50.8297 48.0456 53.2878C48.9467 54.6357 49.7834 55.8863 49.9051 56.067L50.1262 56.3956L50.1399 52.2063L50.1536 48.0169L50.2148 47.8663C50.3164 47.6168 50.4916 47.4198 50.7059 47.3143C50.8725 47.2323 50.9158 47.2229 51.125 47.2229C51.3244 47.2229 51.3808 47.2339 51.5124 47.2985C51.8009 47.4402 52.026 47.7515 52.0835 48.0884C52.1047 48.2121 52.1111 49.976 52.1055 54.1093L52.0976 59.9552L52.032 60.1195C51.9031 60.4421 51.6925 60.6701 51.4487 60.751C51.2339 60.8224 50.9076 60.7977 50.7015 60.6945C50.3986 60.5428 50.2731 60.3829 49.3697 58.9967C48.9085 58.2889 48.23 57.2478 47.862 56.6831C47.1252 55.5527 47.101 55.5155 46.3468 54.3557C45.7505 53.4388 45.005 52.294 44.6625 51.7693L44.4308 51.4146L44.4171 55.7122C44.4022 60.3685 44.4129 60.0416 44.2658 60.326C44.1915 60.4698 43.9775 60.6806 43.83 60.7553C43.6527 60.8452 43.3133 60.8679 43.133 60.8021Z" fill="#019EC4"/>
<path d="M33.226 60.8053C32.8723 60.6948 32.6386 60.4409 32.5345 60.054C32.5165 59.9872 32.5047 59.513 32.5034 58.8008C32.5015 57.8387 32.5127 57.4841 32.5729 56.5873C32.6869 54.8894 32.6804 54.9462 32.8534 54.1229C33.5185 50.9564 35.2024 48.5594 37.4349 47.6012C37.9118 47.3965 38.5519 47.2496 39.2694 47.1801C39.6847 47.1399 40.4657 47.1633 40.7183 47.2235C41.1778 47.3331 41.4689 47.6534 41.5421 48.13C41.5618 48.2587 41.5685 50.1608 41.5634 54.1503L41.5558 59.9825L41.4901 60.1468C41.3703 60.4469 41.1923 60.6582 40.9671 60.7683C40.7901 60.8548 40.4055 60.8565 40.2218 60.7717C40.0481 60.6914 39.8272 60.4797 39.7418 60.3117C39.6038 60.0401 39.5987 59.9839 39.5983 58.7298L39.598 57.5593H37.0255H34.4529L34.4448 58.812L34.4366 60.0647L34.3566 60.229C34.2464 60.4551 33.9603 60.7389 33.7815 60.7994C33.6223 60.8533 33.3874 60.8558 33.226 60.8053ZM39.5913 52.346L39.5983 49.3368L39.3449 49.355C38.9083 49.3863 38.4821 49.5087 37.9962 49.7423C36.5135 50.455 35.4339 52.0098 34.8784 54.2325C34.7674 54.6767 34.6694 55.1717 34.6694 55.2882V55.3691L37.1269 55.3621L39.5843 55.3551L39.5913 52.346Z" fill="#019EC4"/>
<path d="M23.1526 60.8071C22.8996 60.726 22.6836 60.5186 22.5458 60.2245L22.4709 60.0647L22.4626 54.1367C22.4562 49.6704 22.4621 48.1715 22.4864 48.058C22.5556 47.734 22.7808 47.4339 23.0562 47.2986L23.2102 47.2229H24.9763C26.8831 47.2229 26.9393 47.2263 27.5091 47.3744C28.4596 47.6216 29.2567 48.091 30.0157 48.8506C30.5858 49.4211 30.919 49.8925 31.3037 50.6729C31.7693 51.6177 32.0166 52.6357 32.0586 53.7804C32.1345 55.85 31.4663 57.7049 30.1375 59.1132C29.4483 59.8438 28.5257 60.3916 27.5474 60.6512C26.8869 60.8265 26.8786 60.8271 24.99 60.8355C23.6225 60.8416 23.2417 60.8357 23.1526 60.8071ZM26.9135 58.562C28.52 58.1847 29.6298 56.9851 29.9851 55.2419C30.0792 54.7801 30.1048 54.4364 30.088 53.8629C30.0638 53.0346 29.9228 52.4327 29.5893 51.7333C29.0004 50.4984 27.9748 49.6753 26.7424 49.4487C26.6072 49.4238 26.2363 49.4134 25.4829 49.4134H24.415L24.4081 54.0222L24.4012 58.6309L25.5581 58.6198C26.5236 58.6105 26.7479 58.6009 26.9135 58.562Z" fill="#019EC4"/>
<path d="M83.1291 68.6906C82.8736 68.6203 82.6892 68.4557 82.562 68.1845L82.4908 68.0326L82.4771 66.91L82.4634 65.7874L82.2649 65.7793L82.0664 65.7713V65.5124V65.2535H82.2718H82.4771V64.7058V64.1582H82.8331H83.189V64.7058V65.2535H83.5313H83.8736V65.5136V65.7737H83.5313H83.189L83.1895 66.821C83.1899 67.9651 83.1888 67.9568 83.3509 68.0661C83.4278 68.1179 83.4801 68.1285 83.6586 68.1285H83.8736V68.4297V68.7309L83.5655 68.7284C83.3961 68.7271 83.1997 68.7101 83.1291 68.6906Z" fill="#82BE42"/>
<path d="M65.7471 66.2376V63.7443L66.9313 63.7538C68.0843 63.7631 68.1202 63.765 68.2915 63.8261C68.8449 64.0236 69.1467 64.4164 69.1883 64.9934C69.2216 65.4556 69.0149 65.8839 68.6574 66.0934L68.539 66.1628L68.6969 66.2575C69.0266 66.4551 69.1971 66.7088 69.2543 67.0868C69.353 67.739 69.0849 68.3076 68.5562 68.5672C68.2506 68.7173 68.1204 68.7299 66.8765 68.7304L65.7471 68.7309V66.2376ZM67.8597 68.0481C68.2859 67.9783 68.5126 67.7167 68.5126 67.2948C68.5126 66.9607 68.3726 66.7371 68.0763 66.5982C67.9243 66.527 67.922 66.5268 67.212 66.5268H66.5001L66.4927 67.2656C66.4887 67.672 66.4914 68.0201 66.4987 68.0392C66.5149 68.0813 67.6128 68.0885 67.8597 68.0481ZM68.0608 65.7694C68.3319 65.6254 68.441 65.4407 68.4385 65.1303C68.436 64.8105 68.3342 64.6468 68.0515 64.5075L67.8705 64.4183H67.1853H66.5001L66.4927 65.1391L66.4854 65.8599L67.2047 65.851C67.9227 65.8422 67.9241 65.8421 68.0608 65.7694Z" fill="#82BE42"/>
<path d="M56.3006 66.2392V63.7475H56.6428H56.9851V64.6191C56.9851 65.0985 56.9931 65.4988 57.0028 65.5085C57.0126 65.5183 57.0675 65.4839 57.1248 65.4321C57.462 65.1275 58.0661 65.0516 58.5096 65.258C58.6772 65.336 58.9272 65.5843 59.0085 65.7533C59.1432 66.0334 59.1475 66.0867 59.1479 67.4508L59.1482 68.7309H58.808H58.4677L58.4572 67.533C58.4456 66.1985 58.443 66.1785 58.2573 65.9873C58.1041 65.8295 57.9912 65.7873 57.7244 65.788C57.5399 65.7884 57.4689 65.8007 57.3821 65.8471C57.236 65.9251 57.1382 66.0324 57.0619 66.1981C56.9997 66.3333 56.9988 66.3503 56.9898 67.533L56.9806 68.7309H56.6406H56.3005L56.3006 66.2392Z" fill="#82BE42"/>
<path d="M54.4845 68.6897C54.2314 68.6201 54.0207 68.4219 53.9089 68.1482C53.8531 68.0118 53.8501 67.9547 53.8417 66.8895L53.8329 65.7737H53.6292H53.4255V65.5136V65.2535H53.6309H53.8363V64.7058V64.1582H54.1922H54.5482V64.7058V65.2535H54.8904H55.2327V65.5127V65.772L54.8973 65.7797L54.5619 65.7874L54.5549 66.8142C54.5485 67.7471 54.5523 67.8497 54.5959 67.9368C54.664 68.0725 54.7918 68.1284 55.0342 68.1284H55.2327V68.4296V68.7308L54.9247 68.7284C54.7552 68.7271 54.5572 68.7096 54.4845 68.6897Z" fill="#82BE42"/>
<path d="M52.076 68.701C51.7433 68.6227 51.4973 68.348 51.429 67.9786C51.4092 67.8715 51.3992 67.1334 51.3992 65.7824V63.7475H51.7551H52.1111V65.7883C52.1111 68.0102 52.1078 67.9616 52.2648 68.0648C52.3176 68.0995 52.4127 68.119 52.5751 68.1285L52.8093 68.1422L52.8171 68.4365L52.8249 68.7309L52.5022 68.7281C52.3247 68.7266 52.1329 68.7144 52.076 68.701Z" fill="#82BE42"/>
<path d="M38.7217 66.2392V63.7475H39.091H39.4603L39.4675 64.8085L39.4747 65.8695L40.4946 65.8767L41.5146 65.8839V64.8157V63.7475H41.8842H42.2539V66.2392V68.7309H41.8842H41.5146V67.6353V66.5397L40.4946 66.5469L39.4747 66.5541L39.4675 67.6425L39.4603 68.7309H39.091H38.7217V66.2392Z" fill="#82BE42"/>
<path d="M32.6704 66.9511V65.1713H33.0264H33.3823V65.3522V65.533L33.4771 65.4498C33.8616 65.1122 34.4748 65.0431 34.9556 65.2832C35.1049 65.3578 35.3239 65.5803 35.4056 65.7407C35.5387 66.0015 35.5454 66.0838 35.5454 67.4497V68.7309H35.2032H34.8609V67.627C34.8609 66.9523 34.8494 66.4599 34.8312 66.3606C34.7936 66.1548 34.6887 65.9849 34.5364 65.8832C34.2424 65.6869 33.7385 65.7597 33.5367 66.0276C33.3878 66.2253 33.3823 66.2794 33.3823 67.5545V68.7309H33.0264H32.6704V66.9511Z" fill="#82BE42"/>
<path d="M24.4014 66.2392V63.7475H25.9895H27.5776V64.0761V64.4046H26.3591H25.1407V65.1713V65.938H26.1812H27.2216V66.2803V66.6225H26.1812H25.1407V67.6767V68.7309H24.771H24.4014V66.2392Z" fill="#82BE42"/>
<path d="M79.2383 68.7555C79.0157 68.7312 78.7521 68.615 78.5922 68.4705C78.459 68.3502 78.2997 68.0429 78.2603 67.8304C78.2446 67.7459 78.2329 67.1466 78.2329 66.4271V65.1713H78.5734H78.9138L78.9238 66.3693C78.9351 67.7204 78.9375 67.7379 79.1428 67.9431C79.2875 68.0878 79.4117 68.1361 79.643 68.1374C79.9649 68.1394 80.1776 68.0158 80.3183 67.7452C80.3822 67.6221 80.3823 67.6203 80.3905 66.3966L80.3986 65.1713H80.7533H81.1079V66.9511V68.7309H80.752H80.396V68.5652V68.3996L80.2169 68.5274C79.9377 68.7266 79.6305 68.7982 79.2383 68.7555Z" fill="#82BE42"/>
<path d="M75.1114 68.7557C74.7759 68.7236 74.5465 68.6146 74.3626 68.3998C74.2045 68.2151 74.1445 68.0257 74.1417 67.7035C74.1395 67.4468 74.1451 67.4175 74.2286 67.2479C74.3719 66.9568 74.6274 66.7705 74.9734 66.7049C75.0534 66.6897 75.3813 66.6773 75.702 66.6773C76.3767 66.6773 76.3358 66.6975 76.3034 66.3798C76.256 65.9159 75.9879 65.7216 75.4365 65.7516C75.1692 65.7661 75.0089 65.8276 74.8396 65.9805L74.7251 66.0839L74.5691 65.9318C74.4834 65.8481 74.3791 65.749 74.3374 65.7114L74.2616 65.6432L74.4134 65.5045C74.7253 65.2194 75.0668 65.1243 75.6805 65.1516C76.3067 65.1796 76.6855 65.3659 76.8732 65.7385C76.9923 65.975 77.0007 66.0881 77.0007 67.4453V68.7309H76.6585H76.3162V68.5985C76.3162 68.5257 76.309 68.459 76.3003 68.4503C76.2916 68.4416 76.2149 68.4831 76.13 68.5426C75.8711 68.724 75.5291 68.7955 75.1114 68.7557ZM75.9659 68.0946C76.1911 67.9915 76.2576 67.8784 76.2959 67.5334C76.3125 67.3844 76.318 67.2418 76.3083 67.2164C76.2925 67.1753 76.2336 67.1702 75.7763 67.1703C75.4875 67.1703 75.2145 67.1836 75.1538 67.2005C74.9341 67.2615 74.7835 67.5126 74.8221 67.7537C74.873 68.0722 75.0743 68.1908 75.5367 68.1748C75.7608 68.1671 75.8397 68.1524 75.9659 68.0946Z" fill="#82BE42"/>
<path d="M71.6193 68.7547C70.9663 68.6975 70.5324 68.3268 70.3577 67.6767C70.3154 67.5195 70.3062 67.389 70.3067 66.9511C70.3072 66.4756 70.3139 66.3962 70.3682 66.2255C70.5934 65.5175 71.0869 65.143 71.7929 65.1444C72.3002 65.1454 72.6997 65.3373 72.9642 65.7071C73.1928 66.0268 73.277 66.3317 73.277 66.8401V67.1702H72.127C71.0498 67.1702 70.977 67.1732 70.9774 67.2181C70.9787 67.342 71.0645 67.6538 71.1266 67.7597C71.2967 68.0499 71.556 68.1697 71.9735 68.1508C72.2494 68.1384 72.434 68.0716 72.6304 67.9132C72.689 67.8659 72.7475 67.8273 72.7604 67.8273C72.7734 67.8273 72.8779 67.9166 72.9928 68.0256L73.2015 68.224L73.0478 68.3637C72.6951 68.6842 72.239 68.8091 71.6193 68.7547ZM72.5792 66.5203C72.5166 66.0199 72.239 65.7354 71.8121 65.7343C71.3487 65.7331 71.0852 65.9691 71.0069 66.4556C70.9914 66.5518 70.9852 66.6411 70.9931 66.6539C71.0011 66.6668 71.3656 66.6773 71.8032 66.6773H72.5988L72.5792 66.5203Z" fill="#82BE42"/>
<path d="M48.297 68.7565C47.7441 68.7066 47.4008 68.404 47.3194 67.8949C47.2505 67.4636 47.4042 67.0782 47.728 66.8704C47.9747 66.7121 48.0626 66.6964 48.7981 66.6792L49.469 66.6636L49.4651 66.4287C49.4621 66.2511 49.4474 66.1667 49.4047 66.083C49.2889 65.8561 49.0597 65.746 48.7042 65.7466C48.3864 65.7472 48.1811 65.8198 47.9859 66.0008L47.8992 66.0811L47.671 65.8583L47.4428 65.6354L47.5931 65.498C47.8979 65.2193 48.2098 65.1308 48.8118 65.1521C49.3885 65.1726 49.7351 65.3071 49.9545 65.5957C50.1627 65.8695 50.1672 65.9083 50.1672 67.4058V68.7309H49.8249H49.4827V68.5985C49.4827 68.5257 49.4748 68.4583 49.4652 68.4487C49.4556 68.4391 49.4094 68.4636 49.3625 68.5031C49.2303 68.6147 48.9706 68.7262 48.8012 68.7441C48.7167 68.753 48.6167 68.7638 48.5791 68.768C48.5414 68.7723 48.4145 68.7671 48.297 68.7565ZM49.0078 68.1424C49.3396 68.0439 49.4475 67.8833 49.474 67.4481L49.491 67.1701H48.9629C48.6312 67.1701 48.3941 67.1824 48.3251 67.203C48.0939 67.2723 47.9513 67.5075 47.9888 67.7578C48.0207 67.9704 48.148 68.1027 48.3737 68.1576C48.5185 68.1929 48.866 68.1845 49.0078 68.1424Z" fill="#82BE42"/>
<path d="M44.7978 68.7575C43.8702 68.6712 43.4239 68.0288 43.4669 66.8416C43.4896 66.2168 43.6193 65.86 43.9411 65.5372C44.2145 65.263 44.5281 65.1439 44.9766 65.1439C45.4275 65.1439 45.8221 65.3196 46.0796 65.6351C46.3308 65.9428 46.4351 66.2663 46.4621 66.821L46.4791 67.1701H45.3249H44.1706V67.2884C44.1706 67.6189 44.3464 67.9228 44.6224 68.0694C44.7477 68.136 44.786 68.1422 45.0742 68.1422C45.3563 68.1422 45.4048 68.1348 45.5397 68.0711C45.6225 68.032 45.7462 67.9571 45.8145 67.9046L45.9388 67.8092L46.1533 68.0089C46.284 68.1306 46.3621 68.2234 46.3532 68.2465C46.3293 68.309 46.0033 68.542 45.8268 68.6228C45.5635 68.7434 45.1824 68.7932 44.7978 68.7575ZM45.7587 66.5872C45.7587 66.4642 45.689 66.2059 45.6296 66.1092C45.4596 65.8323 45.2837 65.7359 44.951 65.7374C44.6424 65.7387 44.4477 65.8404 44.3014 66.077C44.2365 66.1819 44.1706 66.4247 44.1706 66.559V66.6773H44.9647H45.7587V66.5872Z" fill="#82BE42"/>
<path d="M29.5611 68.7581C29.1059 68.7089 28.7696 68.4507 28.6096 68.0272C28.5512 67.8728 28.5494 67.8312 28.5418 66.5199L28.5339 65.1713H28.8772H29.2204V66.2712C29.2204 67.4267 29.2361 67.6307 29.3388 67.8138C29.512 68.1226 29.9126 68.2298 30.2919 68.0688C30.449 68.0022 30.5406 67.9086 30.6223 67.7315C30.6846 67.5961 30.6854 67.5815 30.6935 66.3829L30.7017 65.1713H31.0563H31.4109V66.9511V68.7309H31.055H30.699V68.5666C30.699 68.3909 30.6814 68.3707 30.6035 68.4568C30.4032 68.6781 29.9727 68.8025 29.5611 68.7581Z" fill="#82BE42"/>
<path d="M84.777 69.8479V69.5329L84.9686 69.5168C85.2961 69.4894 85.3527 69.4282 85.5437 68.895L85.655 68.5845L85.5879 68.3907C85.5511 68.2842 85.4141 67.9074 85.2835 67.5535C84.8054 66.2577 84.4422 65.266 84.4286 65.2192C84.4158 65.1753 84.4452 65.1713 84.7849 65.1713H85.1552L85.2356 65.3972C85.2798 65.5215 85.4676 66.0729 85.6527 66.6225C85.8379 67.1722 85.9975 67.6312 86.0075 67.6425C86.0174 67.6538 86.2105 67.1055 86.4365 66.424L86.8475 65.185L87.2224 65.1774C87.4286 65.1732 87.5973 65.1774 87.5973 65.1867C87.5973 65.2048 87.4839 65.5151 86.913 67.0606C86.7155 67.5953 86.457 68.2976 86.3384 68.6214C85.935 69.7231 85.923 69.7492 85.7404 69.9141C85.586 70.0536 85.3666 70.1271 85.0459 70.1466L84.777 70.163V69.8479Z" fill="#82BE42"/>
<path d="M60.2639 70.1397C60.2526 70.1279 60.2434 69.9865 60.2434 69.8256V69.5329L60.4369 69.5167C60.7743 69.4884 60.8405 69.4176 61.0335 68.8787L61.1421 68.5756L60.8611 67.8113C60.203 66.0215 59.9148 65.226 59.9148 65.1995C59.9148 65.1816 60.048 65.1713 60.2813 65.1713H60.6477L60.8704 65.8353C61.4352 67.5195 61.4952 67.6818 61.5261 67.6083C61.542 67.5706 61.731 67.0069 61.9462 66.3556L62.3375 65.1713H62.7172C63.0677 65.1713 63.0954 65.175 63.078 65.2192C63.0677 65.2456 62.864 65.797 62.6254 66.4446C61.6808 69.0089 61.4694 69.5698 61.3995 69.6983C61.2449 69.9824 60.9826 70.1199 60.5465 70.1457C60.4024 70.1542 60.2752 70.1515 60.2639 70.1397Z" fill="#82BE42"/>
</g>
</g>
<rect x="1" y="1" width="110" height="110" rx="9" stroke="black" stroke-opacity="0.1" stroke-width="2"/>
<defs>
<clipPath id="clip0_647_1235">
<rect x="2" y="2" width="108" height="108" rx="8" fill="white"/>
</clipPath>
<clipPath id="clip1_647_1235">
<rect width="80" height="37.8106" fill="white" transform="translate(15.9998 37)"/>
</clipPath>
</defs>
</svg>
