<svg width="112" height="112" viewBox="0 0 112 112" fill="none" xmlns="http://www.w3.org/2000/svg">
<g clip-path="url(#clip0_647_1352)">
<rect x="2" y="2" width="108" height="108" rx="8" fill="white"/>
<g clip-path="url(#clip1_647_1352)">
<path d="M40.0668 36.6076C39.8788 36.6076 39.6715 36.6167 39.4348 36.6336C35.5372 36.9315 31.2205 37.5964 25.0916 42.0569C24.5184 42.4726 22.6235 44.0641 20.7568 46.3917C18.4099 49.3208 16.9963 52.3338 16.6723 55.1066C16.6078 55.6548 16.4673 57.5996 17.3655 59.6441C18.3125 61.8008 20.0568 63.2687 22.5498 64.0095L22.6427 64.0367L22.6087 65.166L22.5781 65.2C22.0345 65.8173 20.6832 67.4676 19.905 69.4487C18.9536 71.8749 19.2061 73.8922 20.656 75.4451C21.1091 75.9299 21.7762 76.187 22.5849 76.187C23.6157 76.187 24.8163 75.777 26.0578 75.0011C27.4578 74.1266 28.8272 72.849 30.1286 71.2032L30.1819 71.1352L30.2634 71.1601C32.778 71.9134 35.8566 72.294 39.4121 72.294C46.3985 72.294 52.6373 70.8453 52.6974 70.8305C52.7755 70.8101 52.9398 70.7784 53.1878 70.7297C63.3038 68.7385 72.2158 65.2147 77.9098 62.6084L77.9936 62.5699L78.0548 62.639C79.3947 64.1216 80.8638 64.8726 82.4224 64.8726C86.0867 64.8726 89.6387 60.8572 92.2337 57.9258C92.3221 57.8262 92.4093 57.7265 92.4954 57.6302L91.5054 53.1357C91.1078 53.4676 90.0624 54.3386 89.5391 54.7702C88.8889 55.3037 87.7166 56.1996 87.1548 56.1996C86.9577 56.1996 86.8727 56.092 86.8399 56.0286C86.7787 55.9074 86.5896 55.537 87.9896 53.6126L88.0179 53.5718L88.0666 53.5627C92.176 52.7721 94.0585 48.6877 95.0711 46.4937C95.2252 46.1607 95.3622 45.8628 95.4845 45.6294L93.6247 45.5128L93.6428 45.3802C93.9248 43.3153 92.5441 42.0989 91.8305 41.8338C91.3967 41.6718 90.9402 41.5891 90.4758 41.5891C88.4562 41.5891 86.7096 43.1228 86.2078 43.7129L86.1342 43.7979L86.0413 43.7344C82.3024 41.187 76.7828 40.6524 72.8105 40.6524C72.2804 40.6524 71.8579 40.6615 71.5486 40.6683C71.4071 40.6717 71.2938 40.6739 71.21 40.6739C67.5299 40.7022 58.0629 41.6628 52.2987 43.4819L52.208 43.5102L52.1559 43.4298C51.3551 42.1974 50.0593 41.4906 48.6004 41.4906C46.2195 41.4906 44.2826 43.4909 44.2826 45.95V46.0383L41.4056 47.0657L40.3568 46.1323L40.4893 46.0406C45.0642 42.8861 44.4288 41.6005 43.3754 39.4699L43.3006 39.3181C42.2393 37.1649 41.5744 36.6076 40.0668 36.6076ZM22.5849 76.4373C21.7048 76.4373 20.9743 76.153 20.4725 75.615C19.6456 74.7304 19.1869 73.6883 19.1065 72.5148C19.0396 71.5475 19.2299 70.4851 19.6728 69.3569C20.4498 67.3736 21.7887 65.7199 22.3607 65.0674L22.3856 64.2213C21.049 63.8124 19.9095 63.1838 18.9966 62.3535C18.2048 61.632 17.5785 60.7542 17.1356 59.7461C16.2125 57.6427 16.3563 55.6401 16.4231 55.0771C16.6055 53.5208 17.1129 51.9034 17.933 50.2689C18.6058 48.9278 19.4904 47.5708 20.562 46.2354C22.4456 43.8862 24.3633 42.2767 24.9432 41.8542C27.6684 39.8709 30.2283 38.4901 32.77 37.6327C35.271 36.7888 37.5319 36.5283 39.4155 36.3845C39.659 36.3652 39.872 36.3561 40.0668 36.3561C41.6786 36.3561 42.4228 36.9689 43.5249 39.2071L43.5996 39.3589C44.6644 41.5133 45.3723 42.9427 40.7623 46.1573L41.4611 46.7791L44.0323 45.8616C44.0539 44.6361 44.525 43.4887 45.3655 42.621C46.2275 41.7307 47.376 41.2403 48.6004 41.2403C50.1137 41.2403 51.4616 41.9584 52.3134 43.2134C58.1093 41.4068 67.5333 40.4508 71.2077 40.4236C71.2904 40.4225 71.4037 40.4202 71.5441 40.4179C71.8533 40.4111 72.2792 40.4021 72.8105 40.4021C76.785 40.4021 82.3012 40.9356 86.09 43.466C86.696 42.8011 88.4517 41.3388 90.4758 41.3388C90.9708 41.3388 91.4556 41.426 91.9177 41.5982C92.6766 41.8814 94.1332 43.1455 93.9078 45.2794L95.8968 45.404L95.7972 45.5785C95.6578 45.8209 95.4913 46.181 95.2999 46.599C94.2714 48.8259 92.364 52.9613 88.1629 53.7995C86.9475 55.4793 87.0336 55.8564 87.0642 55.9153C87.0687 55.9255 87.0811 55.9493 87.1548 55.9493C87.5025 55.9493 88.335 55.4362 89.3794 54.5765C90.0307 54.0407 91.4884 52.8231 91.5032 52.8106L91.6617 52.6793L92.7672 57.7016L92.7253 57.748C92.6256 57.8613 92.5237 57.9757 92.4218 58.0924C89.7962 61.06 86.201 65.1229 82.4235 65.1241C80.8151 65.1241 79.303 64.3674 77.9302 62.8746C72.6587 65.2826 67.2388 67.3022 61.82 68.8778C57.483 70.1396 54.3975 70.7467 53.2365 70.9755C52.9907 71.0242 52.8299 71.0548 52.7563 71.0741C52.6962 71.0876 46.428 72.5443 39.4121 72.5443C35.8702 72.5443 32.795 72.1682 30.2725 71.4252C28.9688 73.0608 27.5959 74.3351 26.1903 75.214C24.9103 76.0148 23.6633 76.4373 22.5849 76.4373Z" fill="white"/>
<path fill-rule="evenodd" clip-rule="evenodd" d="M43.9628 45.7713C43.9628 43.2398 45.945 41.1874 48.4074 41.1874C49.9547 41.1874 51.2675 41.953 52.0671 43.1831C57.6467 41.4241 67.0412 40.4001 71.0158 40.3707C72.272 40.3616 80.7365 39.921 85.9174 43.4527C86.5291 42.7346 89.0323 40.5496 91.6805 41.5373C92.4473 41.8228 93.8632 43.0937 93.5732 45.2186L95.4942 45.3375C94.6209 46.8632 92.8732 52.5493 87.8973 53.5064C85.743 56.4695 86.7918 56.5296 89.2656 54.4941C89.9248 53.9527 91.3905 52.7294 91.3905 52.7294L92.4371 57.4878C88.8284 61.5576 83.0653 68.4092 77.7677 62.5441C63.9716 68.8588 53.3437 70.5749 52.5327 70.7731C51.3105 71.0721 38.7366 73.7056 30.033 71.1016C26.1037 76.0706 21.9808 77.0765 20.3701 75.3514C16.8769 71.6113 21.1562 66.2253 22.2911 64.9386L22.3194 63.9509C16.4702 62.2145 16.1236 56.8739 16.3536 54.9132C17.1385 48.2111 23.7092 42.5873 24.8238 41.7775C30.7024 37.4982 34.9239 36.66 39.2315 36.3304C41.2704 36.1752 42.0112 36.6328 43.2186 39.084C44.3252 41.3278 45.1396 42.6746 40.3665 45.9661L41.2398 46.7443L43.9628 45.7713Z" fill="white"/>
<path d="M39.873 36.4288C39.6849 36.4288 39.4776 36.4378 39.2409 36.4559C35.3433 36.7538 31.0267 37.4176 24.8977 41.8781C24.3246 42.2949 22.4296 43.8852 20.5629 46.214C18.216 49.142 16.8024 52.1561 16.4785 54.9278C16.4139 55.476 16.2735 57.4219 17.1717 59.4653C18.1186 61.6231 19.8629 63.091 22.356 63.8307L22.4489 63.8578L22.4149 64.9871L22.3854 65.0211C21.8406 65.6384 20.4893 67.2899 19.7123 69.271C18.7597 71.6972 19.0123 73.7133 20.4621 75.2662C20.9152 75.751 21.5824 76.0082 22.3911 76.0082C23.4218 76.0082 24.6236 75.5981 25.8639 74.8222C27.2639 73.9489 28.6333 72.6701 29.9348 71.0243L29.988 70.9587L30.0696 70.9824C32.5841 71.7345 35.6628 72.1163 39.2183 72.1163C46.2047 72.1163 52.4435 70.6664 52.5035 70.6517C52.5828 70.6324 52.7459 70.5996 52.994 70.552C63.11 68.5596 72.0208 65.0358 77.716 62.4295L77.7998 62.3922L77.8609 62.4601C79.1998 63.9439 80.67 64.6949 82.2286 64.6949H82.2308C85.8939 64.6938 89.446 60.6784 92.0399 57.7481C92.1282 57.6485 92.2154 57.5488 92.3015 57.4525L91.3116 52.958C90.914 53.2899 89.8685 54.1609 89.3452 54.5914C88.6962 55.126 87.5227 56.0208 86.9598 56.0208C86.7627 56.0208 86.6789 55.9143 86.646 55.8498C86.5849 55.7286 86.3957 55.3582 87.7957 53.4338L87.824 53.393L87.8739 53.3839C91.981 52.5933 93.8646 48.5088 94.8773 46.316C95.0313 45.9818 95.1684 45.6851 95.2907 45.4506L93.4308 45.3351L93.4489 45.2014C93.731 43.1365 92.3502 41.9211 91.6366 41.655C91.2028 41.493 90.7464 41.4114 90.282 41.4114C88.2624 41.4114 86.5158 42.944 86.014 43.5341L85.9404 43.6202L85.8475 43.5567C82.1096 41.0093 76.5889 40.4736 72.6155 40.4736C72.0876 40.4736 71.664 40.4826 71.3559 40.4894C71.2132 40.4928 71.0999 40.4951 71.0161 40.4951C67.336 40.5234 57.869 41.4851 52.1048 43.303L52.0142 43.3313L51.9621 43.2509C51.1613 42.0197 49.8655 41.3118 48.4077 41.3118C46.0257 41.3118 44.0888 43.3121 44.0888 45.7711V45.8595L41.2118 46.8868L40.1629 45.9535L40.2954 45.8629C44.8704 42.7084 44.2349 41.4228 43.1815 39.2911L43.1068 39.1393C42.0454 36.986 41.3806 36.4288 39.873 36.4288ZM22.3911 76.2585C21.511 76.2585 20.7804 75.9753 20.2786 75.4373C19.4518 74.5527 18.993 73.5083 18.9126 72.336C18.8458 71.3687 19.0361 70.3062 19.479 69.1792C20.2571 67.1959 21.5948 65.541 22.1668 64.8886L22.1917 64.0436C20.8552 63.6336 19.7157 63.0049 18.8027 62.1747C18.011 61.4543 17.3846 60.5765 16.9417 59.5672C16.0186 57.465 16.1625 55.4624 16.2293 54.8983C16.4116 53.342 16.9191 51.7257 17.7392 50.0901C18.4131 48.7501 19.2966 47.3931 20.3681 46.0566C22.2518 43.7074 24.1694 42.0978 24.7493 41.6754C27.4746 39.692 30.0356 38.3113 32.5762 37.4538C35.0772 36.61 37.338 36.3495 39.2217 36.2056C39.4652 36.1875 39.6781 36.1784 39.873 36.1784C41.4848 36.1784 42.2289 36.7912 43.331 39.0283L43.4069 39.18C44.4717 41.3344 45.1784 42.765 40.5684 45.9784L41.2673 46.6014L43.8385 45.6828C43.86 44.4584 44.3312 43.3098 45.1717 42.4422C46.0336 41.5519 47.1833 41.0614 48.4077 41.0614C49.9199 41.0614 51.2678 41.7796 52.1195 43.0357C57.9155 41.2279 67.3394 40.2731 71.015 40.2448C71.0965 40.2448 71.2087 40.2414 71.3503 40.2391C71.6606 40.2323 72.0842 40.2233 72.6155 40.2233C76.5923 40.2233 82.1085 40.7567 85.8973 43.2872C86.5022 42.6223 88.2579 41.16 90.282 41.16C90.7769 41.16 91.2617 41.2483 91.7239 41.4205C92.4828 41.7025 93.9394 42.9677 93.714 45.1017L95.703 45.2252L95.6033 45.3996C95.464 45.642 95.2975 46.0033 95.1049 46.4202C94.0787 48.647 92.1701 52.7836 87.9701 53.6206C86.7536 55.3004 86.8397 55.6776 86.8692 55.7365C86.8748 55.7467 86.8873 55.7705 86.9598 55.7705C87.3087 55.7705 88.1412 55.2574 89.1855 54.3977C89.8368 53.8619 91.2957 52.6454 91.3093 52.6329L91.4679 52.5004L92.5734 57.5227L92.5315 57.5703C92.4318 57.6825 92.331 57.798 92.2279 57.9135C89.6023 60.8812 86.0061 64.9452 82.2308 64.9452C80.6213 64.9452 79.1092 64.1886 77.7363 62.6957C72.4648 65.1038 67.0449 67.1245 61.6262 68.7001C57.2891 69.9619 54.2037 70.569 53.0427 70.7967C52.798 70.8465 52.636 70.8771 52.5624 70.8952C52.5024 70.9099 46.2341 72.3666 39.2183 72.3666C35.6764 72.3666 32.6022 71.9894 30.0786 71.2464C28.7749 72.8831 27.4021 74.1574 25.9964 75.0352C24.7165 75.8349 23.4694 76.2585 22.3911 76.2585Z" stroke="#006F51" stroke-width="0.356796" stroke-miterlimit="10"/>
<path fill-rule="evenodd" clip-rule="evenodd" d="M24.8105 64.0781C23.3312 57.9831 35.8893 49.5163 52.8592 45.1679C69.8291 40.8195 84.785 42.2354 86.2643 48.3304C87.7425 54.4253 75.1855 62.8922 58.2156 67.2417C41.2458 71.5889 26.2898 70.173 24.8105 64.0781Z" fill="#FDBE56"/>
<path fill-rule="evenodd" clip-rule="evenodd" d="M68.6867 56.4621C67.93 57.5393 68.6278 57.8383 69.2111 57.1802C72.0632 53.5896 76.0797 50.178 78.0007 50.298C78.874 50.477 78.874 51.9132 78.9318 52.9904C78.3496 53.4095 75.9053 55.8629 75.2064 58.3775C74.9821 59.1851 75.5858 59.7152 76.4286 59.3346C78.8163 58.2574 79.9773 57.11 81.0273 55.804C82.1339 54.4267 83.9972 51.6742 83.9972 51.6742C83.5305 51.075 81.9006 51.2551 81.9006 51.2551C83.4727 47.0064 85.626 47.6645 86.907 47.9636C87.4904 47.1254 88.0137 46.1682 88.6548 45.4501C89.1339 44.9121 90.6913 44.1328 91.3313 44.6119C91.7753 44.9438 91.9135 45.4501 91.2146 46.4072C90.6471 47.1877 90.2836 47.7846 90.2836 47.7846L92.2624 47.9636C92.0302 48.9818 90.1091 53.7085 86.7326 51.8532C85.976 52.8114 84.1671 55.1901 83.6472 57.6593C83.1805 59.8737 84.132 60.0312 85.976 59.5736C87.6637 59.1556 90.1091 56.581 90.5758 55.983L90.6913 57.1202C90.1669 57.7783 86.907 61.4266 84.6949 62.5072C82.3672 63.6444 78.6985 63.0453 81.0862 57.4203C79.3396 58.4375 77.2441 62.0881 73.2854 62.8652C72.2569 63.0679 70.7232 61.6679 72.0632 58.3174C72.3101 57.699 73.402 55.9229 73.6931 55.5639C72.471 55.804 69.7933 59.9938 68.3367 61.31C66.82 62.6817 64.7868 62.7462 65.0768 59.2757C64.4957 59.8137 62.774 61.5309 61.527 62.147C58.3826 63.7045 57.626 62.3872 57.8593 58.7354C57.8593 58.7354 54.425 61.3689 53.6095 62.0281C53.0919 62.4461 52.3873 62.7462 51.8629 62.5072C51.3396 62.2671 49.9419 60.4118 49.7674 59.1556C46.9731 62.0881 42.6077 65.5587 40.92 58.8554C39.6378 59.4546 33.5259 64.0624 33.0603 64.4215C32.5948 64.7805 31.7793 66.0978 31.256 66.8749C30.7327 67.6541 25.3762 75.2545 22.6396 74.1773C19.8464 70.7656 27.2972 65.3797 27.9961 64.1224C30.0916 61.3689 32.3037 57.7182 33.0603 55.2048C33.0603 55.2048 27.5827 59.9859 26.7728 60.6519C25.0273 62.0881 23.6488 62.5593 22.1741 61.7291C19.7298 60.3517 19.0762 57.2199 19.322 55.6839C20.1953 50.238 24.9967 45.9496 26.0751 45.0911C33.0603 39.5251 39.1145 39.5251 40.8022 39.704C41.6755 40.5422 42.1422 42.3375 42.1422 42.3375C41.1522 44.0127 37.3679 46.0493 35.5058 46.7074C35.3314 45.9293 36.2624 44.911 36.9024 44.3729C33.0603 46.2283 26.4239 49.1936 22.7574 55.8629C21.9997 57.2402 22.5819 60.4718 25.784 58.1974C27.5034 56.9763 30.4404 55.2048 37.4846 48.5627C37.8335 48.0236 38.7068 48.2626 39.2312 48.7417C39.9448 49.3941 40.3956 49.5788 39.8712 50.4181C39.4339 51.1169 37.0768 56.5221 34.1081 61.2488L41.1522 57.6593C42.3166 54.7257 44.8776 51.1351 46.9731 49.999C48.4309 49.2084 49.5352 50.537 48.7197 51.8532C47.9053 53.1705 45.5176 56.5221 44.7032 57.1802C44.0621 61.1888 47.7875 60.1127 49.243 57.8983C51.1652 51.9132 58.1504 49.2809 62.3414 48.2626C63.0402 48.5027 64.4957 50.0579 62.6325 50.716C63.448 51.4953 64.669 52.5713 62.3991 54.3077C61.3503 55.1097 59.837 57.8961 60.7114 58.7954C61.7014 59.8137 63.1569 59.1556 64.4957 57.9584C65.1164 57.4033 65.4846 57.0001 65.9501 56.103C66.4168 55.2048 68.3956 52.3923 69.7933 51.2551C71.3066 51.3152 72.471 51.3752 71.4232 52.9304C70.9169 53.6825 70.0844 54.7257 68.6867 56.4621Z" fill="white"/>
<path fill-rule="evenodd" clip-rule="evenodd" d="M68.1044 55.5043C67.3489 56.5815 68.0466 56.8817 68.6277 56.2224C71.4809 52.6318 75.4974 49.2202 77.4184 49.3403C78.2917 49.5192 78.2917 50.9555 78.3495 52.0326C77.7684 52.4517 75.323 54.9063 74.6252 57.4197C74.3998 58.2273 75.0036 58.7574 75.8474 58.3768C78.234 57.2996 79.3961 56.1522 80.4461 54.8462C81.5516 53.47 83.4149 50.7165 83.4149 50.7165C82.9482 50.1173 81.3194 50.2974 81.3194 50.2974C82.8904 46.0487 85.0448 46.7068 86.3247 47.0058C86.9069 46.1676 87.4314 45.2105 88.0714 44.4924C88.5516 43.9543 90.109 43.175 90.749 43.6542C91.193 43.9861 91.3312 44.4924 90.6323 45.4495C90.0649 46.2288 89.7013 46.8268 89.7013 46.8268L91.6801 47.0058C91.4479 48.0241 89.528 52.7519 86.1515 50.8966C85.3937 51.8537 83.5848 54.2323 83.0649 56.7016C82.6005 58.916 83.5508 59.0734 85.3937 58.6169C87.0825 58.1978 89.528 55.6244 89.9924 55.0252L90.109 56.1635C89.5857 56.8216 86.3247 60.4689 84.1126 61.5495C81.785 62.6867 78.1173 62.0875 80.5028 56.4626C78.7573 57.4786 76.6618 61.1292 72.7042 61.9074C71.6746 62.109 70.1421 60.7113 71.4809 57.3597C71.729 56.7401 72.8197 54.9652 73.1108 54.6072C71.8887 54.8462 69.211 59.0349 67.7555 60.3522C66.2377 61.7239 64.2045 61.7885 64.4956 58.3168C63.9134 58.8548 62.1906 60.572 60.9447 61.1893C57.8003 62.7456 57.0437 61.4283 57.2771 57.7788C57.2771 57.7788 53.8427 60.4111 53.0272 61.0703C52.5096 61.4894 51.805 61.7885 51.2806 61.5495C50.7573 61.3093 49.3607 59.4551 49.1852 58.1978C46.3919 61.1292 42.0254 64.6009 40.3377 57.8988C39.0567 58.4969 32.9447 63.1046 32.478 63.4637C32.0125 63.8228 31.1981 65.1389 30.6737 65.9171C30.1504 66.6964 24.7939 74.2967 22.0585 73.2195C19.2641 69.8079 26.7149 64.4219 27.4138 63.1647C29.5104 60.4111 31.7214 56.7616 32.478 54.247C32.478 54.247 27.0004 59.0281 26.1916 59.6941C24.445 61.1292 23.0666 61.6004 21.5929 60.7702C19.1475 59.3951 18.4939 56.2621 18.7397 54.7262C19.613 49.2802 24.4145 44.9919 25.4928 44.1333C32.478 38.5673 38.5322 38.5673 40.2211 38.7474C41.0932 39.5844 41.5599 41.3797 41.5599 41.3797C40.57 43.0561 36.7856 45.0916 34.9235 45.7496C34.7491 44.9704 35.6801 43.9543 36.3201 43.4152C32.478 45.2705 25.8416 48.2359 22.1751 54.9063C21.4174 56.2836 22.0007 59.514 25.2017 57.2396C26.9211 56.0186 29.8581 54.247 36.9023 47.605C37.2512 47.0658 38.1256 47.3048 38.6489 47.7839C39.3625 48.4352 39.8133 48.6221 39.2889 49.4592C38.8517 50.1592 36.4957 55.5644 33.5258 60.2922L40.5699 56.7016C41.7343 53.769 44.2953 50.1773 46.3919 49.0412C47.8486 48.2506 48.9529 49.5793 48.1374 50.8966C47.323 52.2127 44.9353 55.5644 44.1209 56.2224C43.4809 60.2321 47.2063 59.155 48.6618 56.9406C50.5829 50.9555 57.5681 48.3231 61.7591 47.3048C62.458 47.5449 63.9134 49.1001 62.0502 49.7593C62.8646 50.5375 64.0879 51.6136 61.818 53.35C60.768 54.1519 59.2547 56.9394 60.1291 57.8388C61.1191 58.8548 62.5746 58.1978 63.9134 56.9995C64.5342 56.4445 64.9034 56.0435 65.3689 55.1453C65.8345 54.247 67.8144 51.4346 69.211 50.2974C70.7243 50.3574 71.8887 50.4174 70.8398 51.9737C70.3346 52.7247 69.501 53.769 68.1044 55.5043Z" fill="#006F51"/>
<path fill-rule="evenodd" clip-rule="evenodd" d="M46.5366 46.1978C46.5366 44.9417 47.5266 43.9234 48.7488 43.9234C49.9698 43.9234 50.9609 44.9417 50.9609 46.1978C50.9609 47.4539 49.9698 48.4722 48.7488 48.4722C47.5266 48.4722 46.5366 47.4539 46.5366 46.1978Z" fill="#E31837"/>
<path d="M48.7488 44.1606C47.6592 44.1606 46.7723 45.0746 46.7723 46.1983C46.7723 47.3219 47.6592 48.2359 48.7488 48.2359C49.8396 48.2359 50.7265 47.3219 50.7265 46.1983C50.7265 45.0746 49.8396 44.1606 48.7488 44.1606ZM48.7488 48.7094C47.3998 48.7094 46.3022 47.5824 46.3022 46.1983C46.3022 44.8141 47.3998 43.6871 48.7488 43.6871C50.0979 43.6871 51.1966 44.8141 51.1966 46.1983C51.1966 47.5824 50.0979 48.7094 48.7488 48.7094Z" fill="white"/>
<path fill-rule="evenodd" clip-rule="evenodd" d="M58.7904 51.8835C57.1605 52.2131 53.2901 54.9656 52.649 57.0599C52.4214 57.8052 52.9718 57.9502 53.5518 57.539C55.1523 56.4018 58.5582 52.3921 58.7904 51.8835Z" fill="white"/>
</g>
</g>
<rect x="1" y="1" width="110" height="110" rx="9" stroke="black" stroke-opacity="0.1" stroke-width="2"/>
<defs>
<clipPath id="clip0_647_1352">
<rect x="2" y="2" width="108" height="108" rx="8" fill="white"/>
</clipPath>
<clipPath id="clip1_647_1352">
<rect width="80" height="40.4373" fill="white" transform="translate(16 36)"/>
</clipPath>
</defs>
</svg>
