<svg width="112" height="112" viewBox="0 0 112 112" fill="none" xmlns="http://www.w3.org/2000/svg">
<g clip-path="url(#clip0_647_1300)">
<rect x="2" y="2" width="108" height="108" rx="8" fill="white"/>
<g clip-path="url(#clip1_647_1300)">
<path d="M48.5384 52.164H39.9593V56.354V57.0147C39.9593 57.6506 40.0299 58.1883 40.1681 58.6267C40.3063 59.0657 40.5879 59.3636 41.002 59.517V59.5859H36.5051V59.517C36.9221 59.3636 37.2036 59.0657 37.3385 58.6267C37.4767 58.1849 37.545 57.6506 37.545 57.0209V56.3574V47.6367V46.897C37.545 46.278 37.4767 45.7578 37.3419 45.3386C37.207 44.9199 36.9272 44.6305 36.5051 44.4753V44.4082H41.002V44.4753C40.5879 44.6305 40.3063 44.9289 40.1681 45.3668C40.0299 45.8069 39.9593 46.3429 39.9593 46.985V47.6513V50.5018H48.5384V47.6513V46.8885C48.5384 46.2701 48.4696 45.7493 48.333 45.3346C48.1959 44.9199 47.9144 44.6305 47.4889 44.4753V44.4082H52.0157V44.4753C51.5841 44.6305 51.2997 44.9318 51.1575 45.3707C51.0187 45.8108 50.9493 46.3514 50.9493 46.9946V47.6367V56.3574V56.9995C50.9493 57.6421 51.0187 58.1849 51.1575 58.6233C51.2997 59.0617 51.5841 59.3591 52.0157 59.517V59.5859H47.4889V59.517C48.1869 59.2614 48.5384 58.4512 48.5384 57.0897V56.354V52.164Z" fill="#09509F"/>
<path d="M57.813 52.1758V57.6623L60.7453 57.9388C60.8554 57.9512 61.0218 57.9597 61.2537 57.9597C62.7224 57.9597 63.975 57.4998 65.0165 56.5762H65.0859L64.0478 59.5942H54.4299V59.5243C54.8492 59.3719 55.1284 59.0701 55.2644 58.6311C55.3976 58.1916 55.467 57.6505 55.467 57.0061V56.3646V47.6732V47.0024C55.467 46.3603 55.3976 45.8186 55.2644 45.3791C55.1284 44.9401 54.8492 44.6439 54.4299 44.4848V44.4148H61.8106C62.3765 44.4148 62.7387 44.377 62.8933 44.3054H62.9571V47.0103H62.8933C62.5667 46.6322 62.1943 46.3789 61.7626 46.2627C61.3321 46.1448 60.8023 46.0866 60.1732 46.0866C59.1723 46.0866 58.388 46.1402 57.813 46.2452V50.5124H60.5586C61.0545 50.5124 61.3953 50.4667 61.5804 50.3753H61.6487V52.8235H61.5804C61.4252 52.5459 61.1798 52.3682 60.8475 52.2903C60.5151 52.213 60.0705 52.1758 59.5215 52.1758H57.813Z" fill="#09509F"/>
<path d="M87.3391 44C88.5821 44 89.7371 44.2076 90.808 44.624C91.8738 45.041 92.7963 45.6154 93.5682 46.3427C94.3434 47.0756 94.9443 47.9118 95.3681 48.8608C95.7896 49.8093 96 50.7984 96 51.8253C96 52.9819 95.7687 54.059 95.3094 55.0504C94.845 56.0485 94.1984 56.9152 93.3707 57.6498C92.5402 58.3872 91.5838 58.952 90.5067 59.3549C89.4358 59.7532 88.3096 59.9569 87.1309 59.9614V58.2896C87.1597 58.2936 87.1885 58.2936 87.2184 58.2936C88.1144 58.2936 88.9359 58.1418 89.6897 57.845C90.4407 57.5494 91.08 57.1301 91.612 56.5857C92.1396 56.04 92.5481 55.4019 92.8279 54.6645C93.1078 53.9315 93.2472 53.1394 93.2472 52.2902C93.2472 51.1516 93.0034 50.0733 92.5108 49.0504C92.0188 48.0354 91.3113 47.2178 90.3882 46.5938C89.4612 45.9776 88.3869 45.6679 87.1631 45.6679H87.1309V44H87.3391ZM87.1309 59.9614H87.0948C85.9184 59.9614 84.7933 59.7662 83.7174 59.3797C82.6408 58.9932 81.6935 58.4352 80.8635 57.7102C80.0392 56.9885 79.3988 56.1331 78.9389 55.1491C78.4841 54.1646 78.2573 53.0953 78.2573 51.9404C78.2573 50.8819 78.4841 49.8618 78.9389 48.8885C79.3988 47.9174 80.0392 47.0688 80.8539 46.3376C81.6771 45.6092 82.6408 45.037 83.7495 44.624C84.8007 44.2285 85.9274 44.0203 87.1309 44V45.6679C85.9224 45.6718 84.8582 45.933 83.9335 46.4499C82.9985 46.9701 82.2774 47.69 81.7702 48.6165C81.2624 49.5447 81.0108 50.5823 81.0108 51.7372C81.0108 52.5385 81.1552 53.3306 81.4458 54.1115C81.733 54.8969 82.1556 55.6045 82.7051 56.2392C83.2553 56.87 83.9177 57.3705 84.6901 57.7406C85.4399 58.0938 86.253 58.28 87.1309 58.2896V59.9614Z" fill="#09509F"/>
<path d="M71.5309 51.1718C70.9525 51.4076 70.3353 51.5774 69.6841 51.6807L72.3315 52.1665C72.9567 52.0142 73.5423 51.7518 74.093 51.3749C74.6544 50.9873 75.0996 50.5127 75.4421 49.9457C75.7778 49.3775 75.9499 48.7715 75.9499 48.121C75.9499 47.4134 75.7626 46.7781 75.3941 46.2173C75.0229 45.6514 74.4795 45.2079 73.75 44.8863C73.0278 44.5664 72.1679 44.4078 71.176 44.4078H65.677V44.4744C66.0934 44.6296 66.3659 44.9196 66.4957 45.3377C66.6249 45.7586 66.6949 46.2777 66.6949 46.8961V47.6657V56.3565V57.0933C66.6949 57.7196 66.6249 58.2404 66.4929 58.6613C66.3625 59.0867 66.0895 59.3722 65.677 59.5167V59.585H70.078V59.5167C69.6559 59.3593 69.3749 59.067 69.239 58.6309C69.1052 58.1958 69.0415 57.6581 69.0415 57.0205V56.3565V46.0226C69.6187 45.9166 70.1446 45.8556 70.6157 45.8336C71.4699 45.8336 72.1809 46.0655 72.7496 46.5299C73.3195 46.9891 73.5993 47.6166 73.5993 48.4008C73.5993 49.0751 73.4092 49.645 73.0182 50.1054C72.6283 50.5647 72.1318 50.919 71.5309 51.1718Z" fill="#09509F"/>
<path d="M69.5942 51.6953L71.7293 54.9509L74.5487 58.4322C74.8895 58.8509 75.2675 59.1488 75.6783 59.3214C76.0885 59.4969 76.6065 59.5861 77.2294 59.5861H79.3475C78.895 59.3011 78.4487 58.9852 78.0035 58.6438C77.5611 58.3013 77.1261 57.9272 76.6905 57.517C76.2606 57.1057 75.8989 56.7198 75.6106 56.3576L72.2912 52.1761C72.3042 52.1727 72.3206 52.1676 72.3313 52.1676L69.684 51.6812C69.6512 51.6869 69.623 51.6925 69.5942 51.6953Z" fill="#ED2227"/>
<path d="M21.2522 61.5714L20.9233 62.9939H20.6536C20.6446 62.9143 20.6254 62.8133 20.6 62.6954C20.5718 62.5758 20.5357 62.4584 20.4883 62.341C20.4397 62.2209 20.3873 62.121 20.3303 62.042C20.2699 61.9608 20.2033 61.9156 20.1249 61.9009C20.0538 61.8919 19.9641 61.8823 19.8563 61.8756C19.7491 61.8688 19.6532 61.866 19.5759 61.866H19.3999L18.5078 65.7258C18.4982 65.7665 18.4903 65.8043 18.4853 65.8415C18.4796 65.8771 18.4762 65.903 18.4762 65.9199C18.4762 65.9764 18.4881 66.0254 18.5084 66.0672C18.5304 66.1112 18.5727 66.1456 18.6337 66.1721C18.6901 66.1936 18.7713 66.2173 18.8802 66.2393C18.9863 66.2613 19.076 66.2765 19.146 66.2833L19.085 66.5383H16.3152L16.3756 66.2833C16.4399 66.2782 16.5381 66.2686 16.6622 66.2557C16.7886 66.2421 16.8783 66.2241 16.9336 66.2054C17.0256 66.1676 17.0967 66.1185 17.143 66.0554C17.1887 65.9922 17.2208 65.9182 17.2406 65.8314L18.1586 61.866H18.0209C17.9329 61.866 17.8415 61.8688 17.7523 61.8739C17.6632 61.8801 17.5616 61.8891 17.4454 61.9009C17.3636 61.9128 17.2682 61.9636 17.1667 62.0522C17.0612 62.1407 16.959 62.2367 16.862 62.341C16.7457 62.4736 16.6493 62.5904 16.5737 62.6959C16.4992 62.8026 16.4326 62.9008 16.3807 62.9939H16.1099L16.4382 61.5714H21.2522Z" fill="#39B54A"/>
<path d="M25.3268 66.01L25.2501 66.3187C25.0204 66.4095 24.8342 66.4795 24.6965 66.5269C24.5583 66.5748 24.4015 66.5985 24.2175 66.5985C23.9416 66.5985 23.7255 66.5285 23.5692 66.3903C23.4129 66.2509 23.3368 66.0783 23.3368 65.8735C23.3368 65.808 23.3385 65.7358 23.3447 65.6568C23.3509 65.5784 23.3712 65.4689 23.4067 65.3307L23.6555 64.3997C23.6832 64.2993 23.7013 64.2096 23.7142 64.1283C23.7261 64.0482 23.7323 63.9811 23.7323 63.9308C23.7323 63.818 23.7058 63.7311 23.6522 63.6679C23.5986 63.6058 23.5089 63.5743 23.3802 63.5743C23.3007 63.5743 23.1878 63.6047 23.0417 63.6662C22.895 63.7294 22.7302 63.8434 22.5485 64.011L21.9685 66.5387H20.8113L21.841 62.083C21.8523 62.0429 21.8574 62.0057 21.8607 61.9718C21.8681 61.9357 21.8703 61.9064 21.8703 61.8827C21.8703 61.7998 21.8551 61.7315 21.8269 61.683C21.8004 61.6339 21.7592 61.5944 21.6999 61.5645C21.643 61.5334 21.582 61.5131 21.5081 61.5024C21.4353 61.4917 21.3524 61.4787 21.2548 61.4697L21.3196 61.2107L23.1619 61.1204L23.2008 61.1752L22.6416 63.5979H22.6653C22.8814 63.4078 23.1077 63.2566 23.3413 63.1471C23.5754 63.0399 23.8254 62.9863 24.0945 62.9863C24.3529 62.9863 24.5566 63.0569 24.7011 63.1996C24.8483 63.3418 24.9211 63.5144 24.9211 63.717C24.9211 63.7712 24.916 63.8468 24.9076 63.9427C24.9019 64.0397 24.8805 64.1424 24.85 64.253L24.5848 65.2359C24.56 65.3188 24.5397 65.4114 24.5205 65.5169C24.5025 65.6224 24.4946 65.7014 24.4946 65.7556C24.4946 65.8904 24.5222 65.9829 24.5814 66.0354C24.6413 66.0868 24.7468 66.1127 24.8963 66.1127C24.9668 66.1127 25.0452 66.0992 25.1344 66.076C25.223 66.0506 25.2873 66.0275 25.3268 66.01Z" fill="#39B54A"/>
<path d="M27.3399 66.6541C27.0606 66.6541 26.8123 66.6168 26.6053 66.5412C26.3909 66.465 26.2171 66.3601 26.0789 66.2241C25.944 66.0893 25.8441 65.9307 25.7747 65.7519C25.7076 65.5719 25.6726 65.3727 25.6726 65.156C25.6726 64.8813 25.724 64.6138 25.8266 64.3543C25.9293 64.0953 26.0839 63.8623 26.2848 63.6546C26.4766 63.4554 26.7192 63.2946 27.016 63.1716C27.3077 63.0469 27.6316 62.986 27.9876 62.986C28.404 62.986 28.7228 63.0526 28.9412 63.1841C29.159 63.3189 29.269 63.5181 29.269 63.7844C29.269 64.0383 29.1736 64.2567 28.9863 64.44C28.7956 64.6234 28.5383 64.7588 28.2145 64.8485C27.9577 64.9241 27.7377 64.9806 27.5571 65.0116C27.3771 65.0454 27.1571 65.077 26.8936 65.1036C26.9009 65.2057 26.9139 65.3219 26.9393 65.4494C26.9607 65.5792 26.9957 65.6881 27.0431 65.7789C27.0984 65.8844 27.1785 65.968 27.2795 66.0295C27.3822 66.091 27.5137 66.1231 27.6722 66.1231C27.9487 66.1231 28.1817 66.0701 28.3741 65.9617C28.5654 65.8557 28.7516 65.6881 28.9265 65.4568L29.181 65.67C28.9705 65.9696 28.7019 66.2083 28.3741 66.386C28.0469 66.5655 27.7004 66.6541 27.3399 66.6541ZM28.1315 63.882C28.1315 63.6834 28.0954 63.5305 28.0237 63.4261C27.9493 63.32 27.8488 63.2653 27.7208 63.2653C27.5408 63.2653 27.3721 63.412 27.2129 63.7054C27.0527 63.9988 26.9495 64.3678 26.9049 64.8164C27.0431 64.7994 27.1791 64.7791 27.3156 64.7532C27.4511 64.7267 27.5571 64.6973 27.6361 64.6618C27.8122 64.585 27.9363 64.4874 28.0142 64.3633C28.092 64.2437 28.1315 64.0829 28.1315 63.882Z" fill="#39B54A"/>
<path d="M33.4161 63.5003C33.2999 64.0769 33.1978 64.5768 33.112 65.0011C33.0257 65.4248 32.9253 65.8666 32.8073 66.3287C32.7504 66.5556 32.6556 66.7762 32.5218 66.9945C32.3853 67.2146 32.2273 67.4025 32.0462 67.561C31.8521 67.7292 31.6456 67.8595 31.421 67.9532C31.201 68.0474 30.9702 68.0931 30.7321 68.0931C30.52 68.0931 30.349 68.0722 30.2175 68.031C30.0838 67.9887 29.9823 67.934 29.9072 67.8696C29.8339 67.8042 29.7853 67.7314 29.7594 67.6524C29.7323 67.5723 29.7205 67.4944 29.7205 67.4188C29.7205 67.2823 29.7662 67.1632 29.8655 67.0588C29.9631 66.9533 30.0906 66.9026 30.2565 66.9026C30.3817 66.9026 30.4895 66.9358 30.5832 67.003C30.6751 67.0696 30.7547 67.1491 30.8213 67.2434C30.8867 67.3336 30.942 67.4346 30.9911 67.5458C31.0436 67.6592 31.0836 67.7466 31.1096 67.8093C31.2078 67.7009 31.2992 67.5407 31.3883 67.324C31.4746 67.1091 31.5542 66.8219 31.6259 66.4608L32.2538 63.5003H31.5773L31.6591 63.1386H32.3345L32.3915 62.8706C32.4406 62.6511 32.5286 62.4356 32.659 62.2251C32.7887 62.0141 32.9456 61.8251 33.1312 61.6598C33.3084 61.4961 33.5121 61.3624 33.7434 61.2603C33.9764 61.1576 34.2083 61.1063 34.4425 61.1063C34.645 61.1063 34.8154 61.1249 34.9475 61.1644C35.0834 61.2033 35.1884 61.2546 35.2651 61.3218C35.3351 61.385 35.3819 61.4566 35.4084 61.5345C35.4316 61.6129 35.4434 61.6902 35.4434 61.7681C35.4434 61.8183 35.4327 61.8759 35.4135 61.9379C35.3955 62.0028 35.3627 62.0598 35.3204 62.1111C35.2696 62.1693 35.2166 62.2133 35.159 62.2477C35.1021 62.2804 35.0186 62.2956 34.9085 62.2956C34.7833 62.2956 34.6749 62.2629 34.5852 62.1963C34.4927 62.1303 34.4165 62.0519 34.3528 61.9599C34.2851 61.8646 34.2292 61.7602 34.1829 61.6524C34.1355 61.543 34.0983 61.4549 34.0667 61.3895C33.9713 61.499 33.885 61.6598 33.8083 61.8691C33.7299 62.0779 33.652 62.369 33.5707 62.738L33.4839 63.1386H34.3657L34.2811 63.5003H33.4161Z" fill="#39B54A"/>
<path d="M37.845 63.7136C37.845 63.8191 37.8303 63.9201 37.7981 64.0188C37.7682 64.1164 37.7242 64.2011 37.6627 64.2699C37.5956 64.35 37.5239 64.4093 37.4511 64.4471C37.3738 64.4877 37.2689 64.5052 37.1335 64.5052C36.9586 64.5052 36.8203 64.4612 36.7216 64.3743C36.62 64.2897 36.5698 64.1932 36.5698 64.0843C36.5698 63.985 36.5845 63.8981 36.6161 63.8242C36.6432 63.7542 36.6917 63.6436 36.7526 63.4969C36.5969 63.5629 36.4609 63.6419 36.3492 63.7373C36.2358 63.8315 36.128 63.9393 36.0242 64.06L35.4718 66.5375H34.3152L34.7993 64.3861C34.8122 64.3207 34.8303 64.2355 34.8546 64.13C34.8754 64.0256 34.8862 63.9376 34.8862 63.8687C34.8862 63.7328 34.8613 63.6408 34.8072 63.5923C34.7553 63.5432 34.6526 63.5178 34.5042 63.5178C34.4314 63.5178 34.3541 63.5279 34.2751 63.5533C34.1967 63.5759 34.1301 63.5979 34.0759 63.6194L34.1532 63.3039C34.3411 63.2278 34.5194 63.1612 34.6926 63.1059C34.8647 63.0512 35.0289 63.0247 35.1835 63.0247C35.4588 63.0247 35.6637 63.0788 35.7991 63.1866C35.9373 63.2955 36.027 63.4478 36.0699 63.6436H36.0953C36.3266 63.3993 36.523 63.2289 36.6844 63.1319C36.8457 63.0342 37.0178 62.9863 37.204 62.9863C37.402 62.9863 37.5595 63.0484 37.6729 63.1725C37.7874 63.2989 37.845 63.4794 37.845 63.7136Z" fill="#39B54A"/>
<path d="M39.7104 66.6541C39.4311 66.6541 39.1856 66.6168 38.974 66.5412C38.7625 66.465 38.5875 66.3601 38.4499 66.2241C38.315 66.0893 38.2146 65.9307 38.1463 65.7519C38.078 65.5719 38.0442 65.3727 38.0442 65.156C38.0442 64.8813 38.095 64.6138 38.1988 64.3543C38.3009 64.0953 38.4533 63.8623 38.6564 63.6546C38.8476 63.4554 39.0925 63.2946 39.3859 63.1716C39.6793 63.0469 40.0021 62.986 40.3575 62.986C40.7745 62.986 41.0944 63.0526 41.3128 63.1841C41.5294 63.3189 41.6394 63.5181 41.6394 63.7844C41.6394 64.0383 41.5447 64.2567 41.3579 64.44C41.1678 64.6234 40.9093 64.7588 40.5877 64.8485C40.3282 64.9241 40.1098 64.9806 39.9293 65.0116C39.7476 65.0454 39.5281 65.077 39.2657 65.1036C39.2703 65.2057 39.2838 65.3219 39.3081 65.4494C39.3323 65.5792 39.3667 65.6881 39.4147 65.7789C39.4694 65.8844 39.549 65.968 39.6517 66.0295C39.7555 66.091 39.8841 66.1231 40.0427 66.1231C40.3192 66.1231 40.5522 66.0701 40.7457 65.9617C40.9359 65.8557 41.1226 65.6881 41.297 65.4568L41.5537 65.67C41.341 65.9696 41.0741 66.2083 40.7457 66.386C40.4173 66.5655 40.0709 66.6541 39.7104 66.6541ZM40.502 63.882C40.502 63.6834 40.4659 63.5305 40.3942 63.4261C40.3214 63.32 40.2193 63.2653 40.0912 63.2653C39.9129 63.2653 39.7442 63.412 39.5834 63.7054C39.422 63.9988 39.3216 64.3678 39.2753 64.8164C39.4153 64.7994 39.549 64.7791 39.6872 64.7532C39.8232 64.7267 39.9293 64.6973 40.0083 64.6618C40.1826 64.585 40.309 64.4874 40.388 64.3633C40.4625 64.2437 40.502 64.0829 40.502 63.882Z" fill="#39B54A"/>
<path d="M43.3159 66.6541C43.0226 66.6541 42.7788 66.6315 42.5864 66.5835C42.394 66.5344 42.2428 66.4746 42.1299 66.3996C42.016 66.3245 41.937 66.2444 41.8952 66.1592C41.8546 66.0723 41.832 65.9939 41.832 65.9189C41.832 65.784 41.8828 65.6661 41.9855 65.5623C42.0871 65.4618 42.2219 65.4122 42.3884 65.4122C42.5277 65.4122 42.6462 65.4477 42.7393 65.52C42.8352 65.5916 42.9131 65.683 42.9768 65.7936C43.0361 65.8935 43.0829 66.0052 43.1252 66.1254C43.1659 66.2467 43.1924 66.3364 43.2082 66.3951C43.4705 66.3951 43.6708 66.3398 43.8051 66.2258C43.9411 66.113 44.0083 65.9578 44.0083 65.7614C44.0083 65.6751 43.9902 65.6018 43.9479 65.5431C43.9067 65.485 43.8548 65.4342 43.7854 65.3902C43.7182 65.3473 43.6302 65.3067 43.5275 65.2683C43.4232 65.2277 43.3176 65.1904 43.2138 65.156C42.9328 65.0607 42.7083 64.9286 42.5452 64.7588C42.381 64.5895 42.2986 64.3785 42.2986 64.1269C42.2986 63.9774 42.3325 63.8369 42.4008 63.7054C42.4707 63.5739 42.5779 63.4515 42.7252 63.3387C42.8702 63.2314 43.0525 63.1451 43.2765 63.0819C43.4954 63.0182 43.7572 62.9849 44.0534 62.9849C44.23 62.9849 44.3942 62.9962 44.546 63.017C44.7 63.0374 44.8388 63.0763 44.9691 63.1327C45.0944 63.1903 45.1909 63.2608 45.2575 63.3516C45.3269 63.4402 45.3613 63.5502 45.3613 63.6783C45.3613 63.8064 45.3133 63.9176 45.2151 64.0084C45.1175 64.1021 44.9917 64.1466 44.8343 64.1466C44.7006 64.1466 44.5877 64.1133 44.498 64.0434C44.4089 63.9706 44.3366 63.8888 44.2796 63.7929C44.2221 63.6936 44.1792 63.5937 44.1454 63.4893C44.1138 63.3838 44.0867 63.298 44.0647 63.2281C43.9039 63.2365 43.7538 63.2969 43.6206 63.4058C43.4852 63.5147 43.4164 63.6495 43.4164 63.8115C43.4164 63.9091 43.435 63.987 43.4643 64.0439C43.4954 64.0987 43.5383 64.1449 43.593 64.1839C43.6534 64.2234 43.7295 64.2634 43.8221 64.3001C43.914 64.3373 44.0303 64.3785 44.1679 64.4237C44.485 64.5365 44.7231 64.6714 44.8845 64.8265C45.0459 64.9834 45.1271 65.1888 45.1271 65.4449C45.1271 65.6153 45.0854 65.7756 45.0098 65.9307C44.9302 66.0842 44.8202 66.2106 44.6752 66.315C44.5144 66.4267 44.3293 66.5119 44.1172 66.5683C43.9067 66.6253 43.6415 66.6541 43.3159 66.6541Z" fill="#39B54A"/>
<path d="M50.2393 66.01L50.1654 66.3187C49.9335 66.4095 49.7501 66.4795 49.6102 66.5269C49.4737 66.5748 49.3157 66.5985 49.1306 66.5985C48.8547 66.5985 48.6369 66.5285 48.4834 66.3903C48.3271 66.2509 48.2504 66.0783 48.2504 65.8735C48.2504 65.808 48.2527 65.7358 48.2589 65.6568C48.2651 65.5784 48.2848 65.4689 48.3209 65.3307L48.5698 64.3997C48.5968 64.2993 48.6155 64.2096 48.6268 64.1283C48.6397 64.0482 48.6465 63.9811 48.6465 63.9308C48.6465 63.818 48.6205 63.7311 48.5658 63.6679C48.5139 63.6058 48.4231 63.5743 48.2944 63.5743C48.2137 63.5743 48.1037 63.6047 47.9553 63.6662C47.8103 63.7294 47.6456 63.8434 47.4611 64.011L46.8827 66.5387H45.7244L46.7552 62.083C46.7648 62.0429 46.7699 62.0057 46.775 61.9718C46.7829 61.9357 46.7845 61.9064 46.7845 61.8827C46.7845 61.7998 46.7687 61.7315 46.7405 61.683C46.7129 61.6339 46.6706 61.5944 46.6153 61.5645C46.5583 61.5334 46.4962 61.5131 46.4223 61.5024C46.3507 61.4917 46.2649 61.4787 46.169 61.4697L46.2327 61.2107L48.0761 61.1204L48.115 61.1752L47.5558 63.5979H47.579C47.7962 63.4078 48.0208 63.2566 48.2549 63.1471C48.4896 63.0399 48.739 62.9863 49.0082 62.9863C49.2666 62.9863 49.4708 63.0569 49.6158 63.1996C49.762 63.3418 49.8359 63.5144 49.8359 63.717C49.8359 63.7712 49.8302 63.8468 49.8218 63.9427C49.8139 64.0397 49.7953 64.1424 49.7642 64.253L49.5002 65.2359C49.4742 65.3188 49.4545 65.4114 49.4353 65.5169C49.4155 65.6224 49.4088 65.7014 49.4088 65.7556C49.4088 65.8904 49.4353 65.9829 49.4979 66.0354C49.5566 66.0868 49.6593 66.1127 49.8094 66.1127C49.8805 66.1127 49.9595 66.0992 50.0486 66.076C50.1372 66.0506 50.2021 66.0275 50.2393 66.01Z" fill="#39B54A"/>
<path d="M54.3351 63.5003C54.2194 64.0769 54.1173 64.5768 54.031 65.0011C53.9458 65.4248 53.8465 65.8666 53.7274 66.3287C53.6693 66.5556 53.5756 66.7762 53.438 66.9945C53.3054 67.2146 53.1463 67.4025 52.9623 67.561C52.7727 67.7292 52.5645 67.8595 52.3411 67.9532C52.1182 68.0474 51.8886 68.0931 51.6522 68.0931C51.4395 68.0931 51.2691 68.0722 51.1365 68.031C51.0039 67.9887 50.9018 67.934 50.825 67.8696C50.7534 67.8042 50.7049 67.7314 50.6783 67.6524C50.6513 67.5723 50.6394 67.4944 50.6394 67.4188C50.6394 67.2823 50.6868 67.1632 50.7844 67.0588C50.882 66.9533 51.0124 66.9026 51.1743 66.9026C51.3007 66.9026 51.4113 66.9358 51.5021 67.003C51.5952 67.0696 51.6725 67.1491 51.7374 67.2434C51.8028 67.3336 51.8626 67.4346 51.9117 67.5458C51.962 67.6592 52.0014 67.7466 52.0302 67.8093C52.1267 67.7009 52.2198 67.5407 52.3056 67.324C52.3919 67.1091 52.4731 66.8219 52.5465 66.4608L53.1722 63.5003H52.4963L52.5792 63.1386H53.2529L53.3121 62.8706C53.3607 62.6511 53.4487 62.4356 53.5779 62.2251C53.7077 62.0141 53.8645 61.8251 54.0502 61.6598C54.2273 61.4961 54.4316 61.3624 54.6629 61.2603C54.8959 61.1576 55.129 61.1063 55.3614 61.1063C55.5651 61.1063 55.7327 61.1249 55.8675 61.1644C56.0029 61.2033 56.1068 61.2546 56.1841 61.3218C56.254 61.385 56.3026 61.4566 56.3268 61.5345C56.3516 61.6129 56.3641 61.6902 56.3641 61.7681C56.3641 61.8183 56.3522 61.8759 56.3325 61.9379C56.3138 62.0028 56.2834 62.0598 56.2411 62.1111C56.1903 62.1693 56.1355 62.2133 56.078 62.2477C56.021 62.2804 55.9392 62.2956 55.8275 62.2956C55.7022 62.2956 55.5944 62.2629 55.5042 62.1963C55.4122 62.1303 55.3349 62.0519 55.2734 61.9599C55.2051 61.8646 55.1487 61.7602 55.1019 61.6524C55.055 61.543 55.0172 61.4549 54.9868 61.3895C54.8892 61.499 54.804 61.6598 54.7272 61.8691C54.6505 62.0779 54.5715 62.369 54.4914 62.738L54.4028 63.1386H55.2841L55.2001 63.5003H54.3351Z" fill="#39B54A"/>
<path d="M59.2158 64.442C59.2158 64.7359 59.16 65.0181 59.0466 65.2849C58.9382 65.5546 58.778 65.7877 58.5715 65.9846C58.3492 66.1979 58.0919 66.3626 57.794 66.4771C57.4972 66.5928 57.1598 66.6515 56.7919 66.6515C56.2931 66.6515 55.8925 66.5178 55.5862 66.2537C55.2815 65.9891 55.1274 65.6274 55.1274 65.1704C55.1274 64.8601 55.185 64.5717 55.2995 64.3054C55.4169 64.038 55.5771 63.8061 55.7882 63.6109C55.989 63.4162 56.2418 63.2616 56.5425 63.1482C56.8421 63.0348 57.1632 62.9795 57.5102 62.9795C58.0383 62.9795 58.4553 63.1081 58.7605 63.3666C59.0635 63.6233 59.2158 63.981 59.2158 64.442ZM57.983 64.0465C57.983 63.7734 57.9373 63.5731 57.8459 63.445C57.7534 63.3158 57.6202 63.2509 57.4436 63.2509C57.2653 63.2509 57.1011 63.3242 56.951 63.4664C56.8021 63.6109 56.6819 63.8208 56.5871 64.0989C56.5053 64.3308 56.4466 64.5802 56.4122 64.8499C56.3778 65.119 56.3603 65.3594 56.3603 65.5716C56.3603 65.8548 56.406 66.0596 56.4991 66.186C56.5933 66.3146 56.7282 66.3778 56.9053 66.3778C57.0977 66.3778 57.2653 66.2983 57.4041 66.1431C57.5435 65.9863 57.6546 65.7944 57.7353 65.5659C57.8177 65.3425 57.8786 65.0937 57.9209 64.8223C57.9627 64.5509 57.983 64.2913 57.983 64.0465Z" fill="#39B54A"/>
<path d="M63.7751 64.442C63.7751 64.7359 63.7176 65.0181 63.6064 65.2849C63.4936 65.5546 63.3356 65.7877 63.1308 65.9846C62.9085 66.1979 62.6484 66.3626 62.351 66.4771C62.0531 66.5928 61.7197 66.6515 61.3495 66.6515C60.8502 66.6515 60.449 66.5178 60.146 66.2537C59.838 65.9891 59.6851 65.6274 59.6851 65.1704C59.6851 64.8601 59.7449 64.5717 59.8577 64.3054C59.9745 64.038 60.1353 63.8061 60.3435 63.6109C60.5506 63.4162 60.8 63.2616 61.1007 63.1482C61.3981 63.0348 61.7214 62.9795 62.0695 62.9795C62.5959 62.9795 63.0117 63.1081 63.3164 63.3666C63.6211 63.6233 63.7751 63.981 63.7751 64.442ZM62.5406 64.0465C62.5406 63.7734 62.4949 63.5731 62.4029 63.445C62.311 63.3158 62.1773 63.2509 62.0018 63.2509C61.8229 63.2509 61.6593 63.3242 61.5081 63.4664C61.3586 63.6109 61.2389 63.8208 61.1447 64.0989C61.0646 64.3308 61.0048 64.5802 60.9704 64.8499C60.9348 65.119 60.9179 65.3594 60.9179 65.5716C60.9179 65.8548 60.9642 66.0596 61.0567 66.186C61.1515 66.3146 61.2852 66.3778 61.4641 66.3778C61.6548 66.3778 61.8212 66.2983 61.9612 66.1431C62.1022 65.9863 62.2128 65.7944 62.2929 65.5659C62.3747 65.3425 62.4362 65.0937 62.4802 64.8223C62.5209 64.5509 62.5406 64.2913 62.5406 64.0465Z" fill="#39B54A"/>
<path d="M66.6918 66.1011H66.6625C66.5824 66.1716 66.5045 66.2354 66.4306 66.2918C66.3561 66.3499 66.2596 66.408 66.1429 66.4667C66.0328 66.5226 65.9262 66.5654 65.8218 66.5976C65.718 66.6286 65.5989 66.6439 65.4647 66.6439C65.055 66.6439 64.7503 66.5242 64.545 66.2856C64.3379 66.0469 64.2363 65.7185 64.2363 65.3044C64.2363 64.9856 64.2916 64.6866 64.4033 64.4067C64.5145 64.1257 64.668 63.8797 64.8592 63.667C65.0483 63.4571 65.2728 63.2918 65.5312 63.1688C65.7913 63.0458 66.0627 62.9854 66.3482 62.9854C66.5626 62.9854 66.7415 63.0091 66.8871 63.0542C67.0326 63.0999 67.1523 63.1609 67.2493 63.2337L67.5066 62.0956C67.5145 62.0629 67.5213 62.0285 67.5258 61.9895C67.532 61.9517 67.5342 61.9201 67.5342 61.8976C67.5342 61.8203 67.5156 61.7543 67.4767 61.7012C67.4361 61.6482 67.3813 61.6053 67.3119 61.5748C67.2454 61.5455 67.1709 61.5224 67.0874 61.5083C67.0033 61.4947 66.9108 61.4823 66.8132 61.4676L66.873 61.2109L68.8342 61.1206L68.8731 61.1742L67.9326 65.2468C67.9162 65.3145 67.8976 65.4037 67.8739 65.516C67.8525 65.6266 67.8412 65.7089 67.8412 65.7654C67.8412 65.898 67.8711 65.9905 67.9315 66.0401C67.9901 66.0904 68.0945 66.1146 68.244 66.1146C68.3089 66.1146 68.3879 66.1022 68.4799 66.0768C68.5724 66.0514 68.6373 66.0305 68.6757 66.0136L68.5972 66.3285C68.3676 66.4204 68.182 66.4887 68.0454 66.5367C67.9094 66.5852 67.7492 66.6094 67.5675 66.6094C67.3272 66.6094 67.1365 66.5615 66.9926 66.4684C66.8493 66.3736 66.7494 66.2512 66.6918 66.1011ZM67.1037 63.8605C67.1037 63.8018 67.097 63.742 67.0823 63.6805C67.0642 63.619 67.036 63.5592 66.9915 63.5045C66.9463 63.4453 66.8921 63.399 66.8267 63.3663C66.7612 63.3318 66.6721 63.3149 66.5609 63.3149C66.4114 63.3149 66.2732 63.3713 66.1423 63.4808C66.0125 63.592 65.8985 63.742 65.7964 63.9327C65.7033 64.1116 65.6294 64.3215 65.573 64.5652C65.516 64.8084 65.4883 65.0601 65.4883 65.3191C65.4883 65.4319 65.4974 65.5385 65.516 65.6367C65.5335 65.7343 65.5628 65.8167 65.6012 65.8844C65.6429 65.9561 65.7011 66.0125 65.771 66.0531C65.8444 66.0909 65.9313 66.1129 66.0413 66.1129C66.1508 66.1129 66.2585 66.0791 66.3663 66.0153C66.4752 65.9516 66.5739 65.8726 66.6597 65.7789L67.1037 63.8605Z" fill="#39B54A"/>
<path d="M75.1015 64.3273C75.1015 64.6393 75.0468 64.9378 74.9345 65.2216C74.8239 65.5043 74.675 65.7503 74.4814 65.9585C74.2839 66.1735 74.0611 66.3388 73.8134 66.455C73.5662 66.5707 73.2937 66.6294 72.9941 66.6294C72.7707 66.6294 72.5918 66.6085 72.4542 66.5645C72.3165 66.5216 72.1991 66.4612 72.0998 66.3817L71.8865 67.3149C71.8792 67.342 71.8719 67.3764 71.8662 67.4148C71.8578 67.4531 71.8544 67.4802 71.8544 67.4983C71.8544 67.5513 71.8662 67.5998 71.8899 67.6444C71.9131 67.6884 71.9486 67.7211 71.9954 67.7414C72.0462 67.7663 72.1275 67.7888 72.2431 67.8125C72.356 67.8334 72.4508 67.847 72.5269 67.852L72.4711 68.093H69.9417L69.9975 67.852C70.0596 67.847 70.1329 67.8379 70.2255 67.8249C70.3174 67.8131 70.3863 67.799 70.432 67.7855C70.5121 67.7595 70.5719 67.7189 70.6148 67.6625C70.6554 67.6094 70.6864 67.5344 70.7045 67.4413L71.4013 64.3882C71.4143 64.3183 71.4335 64.2331 71.4532 64.1276C71.4775 64.0221 71.4893 63.9363 71.4893 63.868C71.4893 63.7456 71.4628 63.6553 71.4115 63.5995C71.359 63.5458 71.258 63.5182 71.1051 63.5182C71.0351 63.5182 70.9595 63.5301 70.8766 63.5526C70.7953 63.5763 70.7276 63.5983 70.6729 63.6192L70.7508 63.3038C70.9403 63.2282 71.1231 63.1605 71.2947 63.1058C71.4679 63.051 71.6321 63.0245 71.7878 63.0245C71.9159 63.0245 72.0299 63.0364 72.1263 63.0595C72.2262 63.0854 72.3108 63.1249 72.3876 63.1763C72.4502 63.2237 72.5021 63.275 72.5444 63.3393C72.5862 63.4025 72.6183 63.4674 72.6477 63.5306H72.6759C72.8875 63.3461 73.0974 63.2067 73.2994 63.1176C73.5036 63.0307 73.6966 62.9861 73.8822 62.9861C74.2862 62.9861 74.5926 63.1058 74.7968 63.3444C75.0005 63.5837 75.1015 63.9109 75.1015 64.3273ZM73.5448 65.7057C73.6441 65.5015 73.7208 65.2882 73.7711 65.0659C73.8224 64.8408 73.8495 64.5897 73.8495 64.3121C73.8495 64.1981 73.8393 64.0931 73.8247 63.9961C73.8083 63.8991 73.779 63.8155 73.7366 63.7456C73.6949 63.6722 73.6379 63.6175 73.5662 63.5769C73.4957 63.5385 73.4077 63.5182 73.2994 63.5182C73.1775 63.5182 73.0573 63.556 72.9371 63.6327C72.817 63.7083 72.7318 63.7811 72.6759 63.8494L72.2403 65.7723C72.2403 65.9325 72.2871 66.0674 72.3819 66.1735C72.4745 66.2807 72.6082 66.332 72.7837 66.332C72.927 66.332 73.0646 66.2761 73.1995 66.165C73.3332 66.0521 73.4495 65.8998 73.5448 65.7057Z" fill="#39B54A"/>
<path d="M77.2413 66.6541C76.9603 66.6541 76.7148 66.6168 76.5038 66.5412C76.2933 66.465 76.1184 66.3601 75.9808 66.2241C75.8465 66.0893 75.7438 65.9307 75.6755 65.7519C75.6078 65.5719 75.5723 65.3727 75.5723 65.156C75.5723 64.8813 75.6253 64.6138 75.7286 64.3543C75.8307 64.0953 75.9842 63.8623 76.1873 63.6546C76.378 63.4554 76.62 63.2946 76.9157 63.1716C77.2085 63.0469 77.5335 62.986 77.889 62.986C78.3054 62.986 78.6236 63.0526 78.8425 63.1841C79.0609 63.3189 79.1687 63.5181 79.1687 63.7844C79.1687 64.0383 79.0756 64.2567 78.886 64.44C78.697 64.6234 78.4402 64.7588 78.1169 64.8485C77.8585 64.9241 77.6402 64.9806 77.4596 65.0116C77.2785 65.0454 77.0573 65.077 76.7955 65.1036C76.8023 65.2057 76.8153 65.3219 76.8384 65.4494C76.8615 65.5792 76.8976 65.6881 76.9433 65.7789C76.9998 65.8844 77.0782 65.968 77.182 66.0295C77.2836 66.091 77.415 66.1231 77.5747 66.1231C77.8484 66.1231 78.0819 66.0701 78.2755 65.9617C78.4668 65.8557 78.6507 65.6881 78.8262 65.4568L79.0823 65.67C78.8713 65.9696 78.6044 66.2083 78.2755 66.386C77.9482 66.5655 77.6029 66.6541 77.2413 66.6541ZM78.0317 63.882C78.0317 63.6834 77.9968 63.5305 77.924 63.4261C77.8523 63.32 77.7513 63.2653 77.6227 63.2653C77.4421 63.2653 77.2723 63.412 77.1126 63.7054C76.9529 63.9988 76.8508 64.3678 76.8068 64.8164C76.9445 64.7994 77.0804 64.7791 77.2153 64.7532C77.3518 64.7267 77.4579 64.6973 77.5386 64.6618C77.7135 64.585 77.8405 64.4874 77.9166 64.3633C77.9939 64.2437 78.0317 64.0829 78.0317 63.882Z" fill="#39B54A"/>
<path d="M83.6463 64.442C83.6463 64.7359 83.5893 65.0181 83.4787 65.2849C83.367 65.5546 83.2078 65.7877 83.0036 65.9846C82.7807 66.1979 82.5206 66.3626 82.2238 66.4771C81.9254 66.5928 81.5919 66.6515 81.2218 66.6515C80.7241 66.6515 80.323 66.5178 80.0177 66.2537C79.7119 65.9891 79.5579 65.6274 79.5579 65.1704C79.5579 64.8601 79.6143 64.5717 79.7305 64.3054C79.8479 64.038 80.007 63.8061 80.2169 63.6109C80.4211 63.4162 80.6722 63.2616 80.9724 63.1482C81.2697 63.0348 81.5942 62.9795 81.9423 62.9795C82.4698 62.9795 82.884 63.1081 83.1898 63.3666C83.4945 63.6233 83.6463 63.981 83.6463 64.442ZM82.4157 64.0465C82.4157 63.7734 82.3688 63.5731 82.2763 63.445C82.1849 63.3158 82.0512 63.2509 81.8757 63.2509C81.6974 63.2509 81.5304 63.3242 81.3837 63.4664C81.2319 63.6109 81.1106 63.8208 81.0186 64.0989C80.9368 64.3308 80.8782 64.5802 80.8437 64.8499C80.8082 65.119 80.7918 65.3594 80.7918 65.5716C80.7918 65.8548 80.8375 66.0596 80.9295 66.186C81.0232 66.3146 81.1586 66.3778 81.3357 66.3778C81.5276 66.3778 81.694 66.2983 81.8328 66.1431C81.9722 65.9863 82.085 65.7944 82.1657 65.5659C82.2481 65.3425 82.3102 65.0937 82.3514 64.8223C82.3948 64.5509 82.4157 64.2913 82.4157 64.0465Z" fill="#39B54A"/>
<path d="M88.4043 64.3273C88.4043 64.6393 88.3502 64.9378 88.2373 65.2216C88.1284 65.5043 87.9766 65.7503 87.7854 65.9585C87.5856 66.1735 87.365 66.3388 87.1162 66.455C86.8685 66.5707 86.5965 66.6294 86.2998 66.6294C86.0741 66.6294 85.8935 66.6085 85.757 66.5645C85.6193 66.5216 85.5019 66.4612 85.4021 66.3817L85.1905 67.3149C85.182 67.342 85.1752 67.3764 85.1696 67.4148C85.1617 67.4531 85.1583 67.4802 85.1583 67.4983C85.1583 67.5513 85.1702 67.5998 85.1922 67.6444C85.217 67.6884 85.2514 67.7211 85.2982 67.7414C85.349 67.7663 85.4308 67.7888 85.5471 67.8125C85.6605 67.8334 85.7564 67.847 85.832 67.852L85.7745 68.093H83.2439L83.2998 67.852C83.3618 67.847 83.4357 67.8379 83.5271 67.8249C83.6191 67.8131 83.6874 67.799 83.7336 67.7855C83.8121 67.7595 83.8741 67.7189 83.917 67.6625C83.9582 67.6094 83.9892 67.5344 84.0073 67.4413L84.7024 64.3882C84.7171 64.3183 84.7363 64.2331 84.7572 64.1276C84.7803 64.0221 84.7921 63.9363 84.7921 63.868C84.7921 63.7456 84.7645 63.6553 84.7126 63.5995C84.6618 63.5458 84.5608 63.5182 84.4068 63.5182C84.3379 63.5182 84.2606 63.5301 84.1805 63.5526C84.097 63.5763 84.0304 63.5983 83.9757 63.6192L84.0524 63.3038C84.242 63.2282 84.4243 63.1605 84.5986 63.1058C84.7718 63.051 84.9338 63.0245 85.09 63.0245C85.2198 63.0245 85.3338 63.0364 85.4303 63.0595C85.5301 63.0854 85.6159 63.1249 85.691 63.1763C85.753 63.2237 85.8049 63.275 85.8461 63.3393C85.8884 63.4025 85.9223 63.4674 85.9505 63.5306H85.9787C86.192 63.3461 86.4002 63.2067 86.6022 63.1176C86.8053 63.0307 87.0005 62.9861 87.185 62.9861C87.5907 62.9861 87.8965 63.1058 88.0996 63.3444C88.3033 63.5837 88.4043 63.9109 88.4043 64.3273ZM86.8471 65.7057C86.9497 65.5015 87.0237 65.2882 87.0739 65.0659C87.1269 64.8408 87.1517 64.5897 87.1517 64.3121C87.1517 64.1981 87.1438 64.0931 87.1275 63.9961C87.1111 63.8991 87.0806 63.8155 87.04 63.7456C86.9977 63.6722 86.9424 63.6175 86.8707 63.5769C86.7991 63.5385 86.7105 63.5182 86.6022 63.5182C86.4803 63.5182 86.3601 63.556 86.2399 63.6327C86.1209 63.7083 86.0346 63.7811 85.9787 63.8494L85.5443 65.7723C85.5443 65.9325 85.5916 66.0674 85.6836 66.1735C85.779 66.2807 85.9121 66.332 86.087 66.332C86.2304 66.332 86.3692 66.2761 86.5034 66.165C86.6366 66.0521 86.7528 65.8998 86.8471 65.7057Z" fill="#39B54A"/>
<path d="M91.247 61.1752L90.3053 65.2715C90.2906 65.3392 90.2715 65.4295 90.2483 65.5406C90.2263 65.6523 90.2145 65.7358 90.2145 65.7889C90.2145 65.9249 90.2483 66.0174 90.316 66.0659C90.3837 66.1156 90.496 66.1398 90.6512 66.1398C90.7082 66.1398 90.7877 66.128 90.8876 66.102C90.988 66.0789 91.058 66.0575 91.1003 66.0388L91.0236 66.3531C90.7945 66.4445 90.6027 66.5133 90.4554 66.5613C90.3087 66.6093 90.1428 66.6341 89.9544 66.6341C89.6762 66.6341 89.4545 66.5658 89.2931 66.4293C89.1329 66.2916 89.0527 66.119 89.0527 65.9074C89.0527 65.8227 89.0595 65.7319 89.0747 65.6388C89.0894 65.5457 89.1075 65.4543 89.1261 65.3702L89.8827 62.083C89.8917 62.0424 89.8985 62.0057 89.9013 61.9719C89.9075 61.9346 89.9109 61.9059 89.9109 61.8827C89.9109 61.7998 89.8968 61.7327 89.8675 61.6824C89.841 61.6345 89.7975 61.595 89.7428 61.5645C89.6864 61.5335 89.6226 61.5132 89.5498 61.5013C89.4776 61.4912 89.3947 61.4787 89.2987 61.4697L89.3597 61.2107L91.2109 61.1205L91.247 61.1752Z" fill="#39B54A"/>
<path d="M93.0858 66.6541C92.8071 66.6541 92.5583 66.6168 92.3495 66.5412C92.1362 66.465 91.9636 66.3601 91.8254 66.2241C91.6899 66.0893 91.5889 65.9307 91.5207 65.7519C91.4524 65.5719 91.4197 65.3727 91.4197 65.156C91.4197 64.8813 91.4716 64.6138 91.5743 64.3543C91.6753 64.0953 91.8287 63.8623 92.0319 63.6546C92.2226 63.4554 92.4669 63.2946 92.7597 63.1716C93.0537 63.0469 93.3792 62.986 93.733 62.986C94.1511 62.986 94.4682 63.0526 94.6866 63.1841C94.9038 63.3189 95.0132 63.5181 95.0132 63.7844C95.0132 64.0383 94.9196 64.2567 94.7306 64.44C94.5399 64.6234 94.2848 64.7588 93.9615 64.8485C93.7037 64.9241 93.4848 64.9806 93.3031 65.0116C93.1236 65.0454 92.9019 65.077 92.6412 65.1036C92.6469 65.2057 92.6598 65.3219 92.683 65.4494C92.7067 65.5792 92.7417 65.6881 92.7879 65.7789C92.8444 65.8844 92.9233 65.968 93.0266 66.0295C93.127 66.091 93.2596 66.1231 93.4176 66.1231C93.6946 66.1231 93.9282 66.0701 94.1212 65.9617C94.3125 65.8557 94.4964 65.6881 94.6713 65.4568L94.9269 65.67C94.7165 65.9696 94.449 66.2083 94.1212 66.386C93.7928 66.5655 93.4464 66.6541 93.0858 66.6541ZM93.8769 63.882C93.8769 63.6834 93.8402 63.5305 93.7686 63.4261C93.6969 63.32 93.5948 63.2653 93.4673 63.2653C93.2867 63.2653 93.1169 63.412 92.9583 63.7054C92.7975 63.9988 92.6954 64.3678 92.6508 64.8164C92.7879 64.7994 92.925 64.7791 93.0616 64.7532C93.1953 64.7267 93.3031 64.6973 93.3821 64.6618C93.5564 64.585 93.6851 64.4874 93.7618 64.3633C93.8368 64.2437 93.8769 64.0829 93.8769 63.882Z" fill="#39B54A"/>
<path d="M32.3462 44.0802H17.4721C16.663 44.0802 16 44.7341 16 45.5325V57.4433C16 59.0096 16.9197 59.7245 19.5947 59.7245C20.098 59.7245 21.4933 59.6703 22.5913 59.0835C23.6865 58.5001 26.0692 57.1352 27.4109 57.0918C27.974 57.0766 28.1755 57.1505 28.2607 57.085C28.3464 57.019 28.4407 56.9451 28.2861 56.6963C28.1252 56.4373 26.4958 53.7454 26.4297 53.6235C26.3649 53.505 26.2988 53.3623 26.5307 53.2765C26.7626 53.1907 30.6885 51.7249 30.8132 51.6656C30.9453 51.6086 31.1049 51.5014 30.9238 51.2678C30.7427 51.032 29.6678 49.7337 29.5821 49.6384C29.4974 49.5402 29.3056 49.4589 29.1499 49.6113C28.993 49.7563 26.6312 52.2039 26.5008 52.3416C26.3694 52.4843 26.256 52.6496 25.7262 52.6547C25.2037 52.6632 25.154 52.7405 25.2178 52.8934C25.2849 53.0542 26.4608 55.1322 26.5505 55.3094C26.6475 55.4905 26.7327 55.859 26.4151 55.9701C26.0991 56.0739 23.3784 57.0783 23.2537 57.1183C23.1324 57.1623 23.0021 57.1984 23.0021 56.94C23.0021 56.6861 22.9665 56.1095 22.8966 55.8759C22.8209 55.6372 22.6545 55.1407 22.3538 54.6284C22.0468 54.1155 21.7856 53.5761 21.64 52.9052C21.4933 52.2355 21.5447 51.5184 21.7613 50.8419C21.9763 50.1637 22.448 49.4369 23.098 48.924C23.7463 48.4123 24.4104 48.0574 25.4452 47.8492C26.485 47.641 27.4459 47.9925 27.8426 48.1685C28.2403 48.3468 28.5919 48.5556 28.738 48.6391C28.8841 48.7254 29.0037 48.7339 29.1538 48.5607C29.3056 48.3909 29.5217 48.1685 29.7576 48.4648L32.2813 51.5968C32.3671 51.7029 32.4168 51.8157 32.2323 51.8665C32.0399 51.9161 31.7374 51.9805 31.659 52.0002C31.5828 52.0239 31.4869 52.1085 31.5721 52.2355C31.659 52.3619 32.7739 54.1866 32.8191 54.2718C32.8698 54.3542 32.9951 54.581 32.735 54.7125C32.4783 54.8484 32.2356 54.9681 32.1956 54.9985C32.151 55.025 31.9998 55.0978 31.9998 55.4516V56.8859C31.9998 57.0563 32.0805 57.4845 31.2759 57.4845L29.4822 57.476C29.3513 57.476 29.0839 57.498 28.9191 57.858C28.7521 58.2265 28.1196 59.7245 28.1196 59.7245H32.3462C33.1565 59.7245 33.82 59.0734 33.82 58.275V45.5325C33.82 44.7341 33.1565 44.0802 32.3462 44.0802ZM29.0246 45.8422C28.9541 45.9839 28.36 47.0948 28.1997 47.386C28.0389 47.6732 27.7072 47.4362 27.4561 47.369C26.867 47.1986 25.8125 47.1716 24.9227 47.3572C24.0323 47.5332 23.1679 48.0676 22.7154 48.4445C22.2629 48.8231 21.5746 49.552 21.2682 50.3735C20.9663 51.1973 20.9421 51.6538 20.9212 52.1887C20.9071 52.7219 21.1587 53.4802 21.2281 53.6596C21.2981 53.8402 21.8099 54.9494 22.0372 55.4285C22.2629 55.9081 22.1326 56.1715 22.0265 56.3566C21.921 56.54 21.7461 56.632 21.5142 56.7047C21.2823 56.7803 20.8557 56.8689 20.2035 57.0918C19.5496 57.3102 18.8516 57.7034 18.8516 57.7034C18.6135 56.9852 18.4081 56.9062 17.8749 55.9949C17.1713 54.7971 16.9648 53.5152 16.9648 52.1571C16.9648 50.7967 17.3666 49.613 17.5934 49.1119C18.2716 47.6308 19.1433 46.8725 19.4034 46.6034C19.6647 46.3376 20.5544 45.6859 21.0775 45.4112C21.6852 45.0975 22.5862 44.711 23.6515 44.527C24.7173 44.3408 25.9129 44.4198 26.1933 44.4537C27.5108 44.6196 28.5163 45.032 28.874 45.208C29.2351 45.3903 29.0952 45.704 29.0246 45.8422ZM30.9041 53.2686C31.11 53.2686 31.0942 53.1236 31.075 53.0813C31.0558 53.0485 30.9543 52.8748 30.8939 52.7405C30.8335 52.6073 30.6722 52.6293 30.6231 52.6547C30.5684 52.6784 29.8089 53.0164 29.7519 53.0502C29.5984 53.1388 29.7034 53.2686 29.8033 53.2686H30.9041Z" fill="#ED2227"/>
</g>
</g>
<rect x="1" y="1" width="110" height="110" rx="9" stroke="black" stroke-opacity="0.1" stroke-width="2"/>
<defs>
<clipPath id="clip0_647_1300">
<rect x="2" y="2" width="108" height="108" rx="8" fill="white"/>
</clipPath>
<clipPath id="clip1_647_1300">
<rect width="80" height="24.0931" fill="white" transform="translate(16 44)"/>
</clipPath>
</defs>
</svg>
