<svg width="112" height="112" viewBox="0 0 112 112" fill="none" xmlns="http://www.w3.org/2000/svg">
<g clip-path="url(#clip0_647_1373)">
<rect x="2" y="2" width="108" height="108" rx="8" fill="white"/>
<g clip-path="url(#clip1_647_1373)">
<path d="M62.1863 56.2094H67.5385C67.9978 56.2094 67.9978 56.3554 67.9978 56.5956V58.5707C67.9978 59.0705 67.9183 59.2376 67.1929 59.2376H62.2577C62.0662 59.2376 61.8064 59.314 61.8064 58.931V57.4037C61.8064 57.1425 61.7497 57.0484 61.4624 57.0484H60.346C60.1788 57.0484 60.0131 57.0484 60.0131 57.4038V60.0961C60.0131 61 60.3914 61.5697 61.5582 61.5697H68.0092C68.9618 61.5697 69.8074 61.0698 69.8074 59.8575V55.9302C69.8074 55.0718 69.1631 54.4048 67.9979 54.4048H62.342C62.0563 54.4048 61.8064 54.3593 61.8064 53.9535V52.1425C61.8064 51.9299 61.9217 51.7661 62.2803 51.7661H67.6034C68.1049 51.7661 67.9977 51.8813 67.9977 52.2383V53.2851C67.9977 53.5723 68.2233 53.5723 68.483 53.5723H69.4826C69.7715 53.5723 69.8073 53.4295 69.8073 53.2153V51.6037C69.8073 50.01 69.2473 49.4306 67.9134 49.4306H62.2803C60.8052 49.4306 60.0131 49.4566 59.997 51.6037V54.7358C59.997 55.7403 60.6152 56.2094 62.1862 56.2094M73.5205 55.716V52.3355C73.5205 51.8811 73.7704 51.7659 74.0576 51.7659H79.246C79.6047 51.7659 79.7085 51.8585 79.7085 52.1424V58.8352C79.7085 59.2376 79.4845 59.2376 79.246 59.2376H74.0333C73.6746 59.2376 73.5205 59.1662 73.5205 58.8125V55.716ZM73.5416 61.5698H79.5236C80.8559 61.5698 81.5197 61.1251 81.5197 59.5525V51.6037C81.5197 50.1447 80.9112 49.4306 79.595 49.4306H73.6746C72.4381 49.4306 71.7093 49.9369 71.7093 51.6037V59.8138C71.7093 60.8378 72.1849 61.5698 73.5416 61.5698ZM16.3124 51.7659H17.9206V59.2376H16.3594C16.3238 59.2376 16.2885 59.2445 16.2556 59.2581C16.2226 59.2717 16.1927 59.2917 16.1675 59.3168C16.1423 59.342 16.1224 59.372 16.1088 59.4049C16.0952 59.4378 16.0882 59.4731 16.0883 59.5087V61.302C16.0883 61.4528 16.2084 61.5698 16.3594 61.5698H25.816C25.9653 61.5698 26.0852 61.4529 26.0852 61.302V57.1993C26.0852 57.05 25.9668 56.9283 25.8175 56.9283H24.5371C24.4652 56.9284 24.3964 56.957 24.3456 57.0078C24.2948 57.0586 24.2662 57.1275 24.2661 57.1993V59.2376H19.7301V51.7659H21.2442C21.2802 51.766 21.3158 51.759 21.3491 51.7453C21.3824 51.7316 21.4125 51.7113 21.4379 51.6858C21.4633 51.6603 21.4833 51.63 21.4969 51.5967C21.5105 51.5633 21.5173 51.5276 21.5169 51.4917V49.7016C21.5169 49.6659 21.5099 49.6305 21.4962 49.5975C21.4825 49.5645 21.4623 49.5345 21.437 49.5093C21.4116 49.4841 21.3815 49.4642 21.3485 49.4507C21.3154 49.4372 21.2799 49.4304 21.2442 49.4306H16.3124C16.2405 49.4307 16.1716 49.4593 16.1208 49.5101C16.07 49.5609 16.0414 49.6297 16.0413 49.7016V51.4917C16.0413 51.6442 16.163 51.7659 16.3124 51.7659ZM34.0114 53.681L35.3925 56.1688H35.4072L35.3942 56.1737L35.3925 56.1688H32.6093L32.5996 56.1655L34.0114 53.681ZM27.4518 61.5698H32.3836C32.533 61.5698 32.6564 61.4529 32.6564 61.302V59.5087C32.6564 59.3595 32.533 59.2376 32.3838 59.2376H30.8597L30.85 59.2328L31.5625 57.9751H36.3955L36.3906 57.98L37.0901 59.2426L37.0836 59.2376H35.5938C35.4444 59.2376 35.3211 59.3593 35.3211 59.5087V61.302C35.3211 61.4529 35.4444 61.5698 35.5938 61.5698H40.5305C40.5657 61.5699 40.6005 61.563 40.6331 61.5496C40.6656 61.5362 40.6952 61.5165 40.7201 61.4916C40.7449 61.4667 40.7647 61.4371 40.7781 61.4046C40.7915 61.3721 40.7984 61.3372 40.7983 61.302V59.5087C40.7983 59.3595 40.6765 59.2376 40.5305 59.2376H39.1542V59.2426L35.0273 51.766H36.5772C36.728 51.766 36.8482 51.6443 36.8482 51.4917V49.7016C36.8482 49.666 36.8413 49.6307 36.8277 49.5978C36.8141 49.5649 36.7941 49.535 36.7689 49.5098C36.7438 49.4846 36.7139 49.4647 36.6809 49.4511C36.648 49.4375 36.6128 49.4305 36.5772 49.4306H31.642C31.6065 49.4307 31.5714 49.4378 31.5386 49.4514C31.5059 49.4651 31.4761 49.4851 31.4511 49.5103C31.4261 49.5354 31.4062 49.5653 31.3928 49.5981C31.3793 49.6309 31.3724 49.6661 31.3725 49.7016V51.4917C31.3725 51.6442 31.4926 51.766 31.642 51.766H33.0165L28.7712 59.2328L28.776 59.2376H27.4518C27.3799 59.2377 27.311 59.2663 27.2602 59.3171C27.2094 59.368 27.1808 59.4369 27.1807 59.5087V61.302C27.1807 61.4529 27.3024 61.5698 27.4518 61.5698ZM38.8298 51.7659H40.3098L44.0117 59.2376H42.4975C42.462 59.2377 42.4269 59.2448 42.3941 59.2585C42.3614 59.2722 42.3316 59.2921 42.3066 59.3173C42.2816 59.3425 42.2617 59.3724 42.2483 59.4052C42.2348 59.4381 42.2279 59.4732 42.228 59.5087V61.302C42.228 61.4528 42.3481 61.5698 42.4975 61.5698H47.4343C47.582 61.5698 47.7053 61.4529 47.7053 61.302V59.5087C47.7049 59.437 47.6763 59.3682 47.6255 59.3175C47.5748 59.2667 47.5061 59.238 47.4343 59.2376H46.0597L48.7374 53.775L51.4412 59.2376H49.9741C49.9023 59.2378 49.8334 59.2664 49.7826 59.3172C49.7318 59.368 49.7032 59.4369 49.7031 59.5087V61.302C49.7031 61.4528 49.8248 61.5698 49.9741 61.5698H54.9077C55.0586 61.5698 55.1787 61.4529 55.1787 61.302V59.5087C55.1788 59.4731 55.1718 59.4378 55.1582 59.4049C55.1446 59.372 55.1247 59.3421 55.0995 59.3169C55.0743 59.2917 55.0444 59.2717 55.0115 59.2581C54.9786 59.2445 54.9433 59.2376 54.9077 59.2376H53.5233L57.1748 51.7659H58.6241C58.7733 51.7659 58.8918 51.6442 58.8918 51.4917V49.7016C58.8918 49.5523 58.7733 49.4306 58.6241 49.4306H53.6873C53.6154 49.4307 53.5466 49.4593 53.4958 49.5101C53.445 49.5609 53.4164 49.6298 53.4163 49.7016V51.4917C53.4163 51.6442 53.538 51.7659 53.6873 51.7659H55.1657L52.4766 57.2481L49.7615 51.7659H51.1962C51.3454 51.7659 51.4639 51.6442 51.4639 51.4917V49.7016C51.4639 49.5523 51.3454 49.4306 51.1962 49.4306H46.2594C46.2239 49.4307 46.1888 49.4378 46.156 49.4515C46.1233 49.4651 46.0935 49.4851 46.0685 49.5103C46.0435 49.5355 46.0237 49.5653 46.0102 49.5981C45.9968 49.631 45.9899 49.6661 45.99 49.7016V51.4917C45.99 51.6442 46.1101 51.7659 46.2593 51.7659H47.6924L45.0308 57.1993L42.3352 51.7659H43.7666C43.9175 51.7659 44.0376 51.6442 44.0376 51.4917V49.7016C44.0377 49.666 44.0307 49.6307 44.0171 49.5978C44.0035 49.5649 43.9836 49.535 43.9584 49.5098C43.9332 49.4846 43.9033 49.4647 43.8704 49.4511C43.8375 49.4375 43.8022 49.4305 43.7666 49.4306H38.8298C38.6821 49.4306 38.562 49.5523 38.562 49.7016V51.4917C38.562 51.6442 38.6821 51.7659 38.8298 51.7659ZM82.9673 61.5697H87.9008C88.0534 61.5697 88.1702 61.4529 88.1702 61.3019V59.5086C88.1702 59.3593 88.0534 59.2376 87.9009 59.2376H86.2795V53.8919H86.2828L92.0052 59.2376H90.7263C90.6547 59.2381 90.5862 59.2669 90.5358 59.3176C90.4853 59.3684 90.4569 59.437 90.4569 59.5086V61.3019C90.4568 61.3372 90.4638 61.3722 90.4773 61.4048C90.4908 61.4374 90.5107 61.4671 90.5358 61.492C90.5608 61.5169 90.5905 61.5365 90.6232 61.5499C90.6559 61.5632 90.6909 61.5699 90.7263 61.5697H95.6614C95.8123 61.5697 95.9324 61.4529 95.9324 61.3019V59.5086C95.9325 59.473 95.9255 59.4377 95.9119 59.4048C95.8984 59.3719 95.8784 59.342 95.8532 59.3168C95.828 59.2917 95.7981 59.2717 95.7652 59.2581C95.7323 59.2445 95.697 59.2376 95.6614 59.2376H94.0906V51.7659H95.6614C95.8123 51.7659 95.9324 51.6442 95.9324 51.4917V49.7016C95.9325 49.666 95.9255 49.6307 95.9119 49.5978C95.8984 49.5649 95.8784 49.535 95.8532 49.5098C95.828 49.4846 95.7981 49.4647 95.7652 49.4511C95.7323 49.4375 95.697 49.4305 95.6614 49.4306H90.7264C90.6548 49.4311 90.5863 49.4598 90.5358 49.5106C90.4853 49.5613 90.4569 49.63 90.4569 49.7016V51.4917C90.4569 51.6442 90.5786 51.7659 90.7263 51.7659H92.2794V57.0159H92.2729L86.6576 51.7659H87.9007C88.0533 51.7659 88.1701 51.6442 88.1701 51.4917V49.7016C88.1701 49.5523 88.0533 49.4306 87.9008 49.4306H82.9671C82.9315 49.4305 82.8963 49.4375 82.8634 49.4511C82.8305 49.4647 82.8006 49.4846 82.7754 49.5098C82.7502 49.535 82.7302 49.5649 82.7166 49.5978C82.7031 49.6307 82.6961 49.666 82.6962 49.7016V51.4917C82.6962 51.6442 82.8163 51.7659 82.9671 51.7659H84.47V59.2376H82.9671C82.9315 59.2376 82.8963 59.2445 82.8634 59.2581C82.8305 59.2717 82.8006 59.2917 82.7754 59.3168C82.7502 59.342 82.7302 59.3719 82.7166 59.4048C82.7031 59.4377 82.6961 59.473 82.6962 59.5086V61.3019C82.6962 61.4529 82.8163 61.5697 82.9671 61.5697" fill="#007BC2"/>
</g>
</g>
<rect x="1" y="1" width="110" height="110" rx="9" stroke="black" stroke-opacity="0.1" stroke-width="2"/>
<defs>
<clipPath id="clip0_647_1373">
<rect x="2" y="2" width="108" height="108" rx="8" fill="white"/>
</clipPath>
<clipPath id="clip1_647_1373">
<rect width="80" height="12.192" fill="white" transform="translate(16 49.404)"/>
</clipPath>
</defs>
</svg>
