<svg width="112" height="112" viewBox="0 0 112 112" fill="none" xmlns="http://www.w3.org/2000/svg">
<g clip-path="url(#clip0_647_1192)">
<rect x="2" y="2" width="108" height="108" rx="8" fill="white"/>
<g clip-path="url(#clip1_647_1192)">
<path d="M33.9109 66.6096C31.0826 69.4398 26.4518 69.4398 23.6236 66.6096L18.3966 61.3826C15.5664 58.5523 15.5664 53.9236 18.3966 51.0933L23.6236 45.8684C26.4538 43.0381 31.0826 43.0381 33.9109 45.8684L39.1378 51.0953C41.9661 53.9236 41.9661 58.5544 39.1378 61.3846L33.9109 66.6116V66.6096Z" fill="#ED1C24"/>
<path d="M25.6672 63.9178C25.2516 63.9178 24.9124 63.5926 24.8964 63.1771C24.8883 62.9704 24.9606 62.7737 25.0991 62.6231C25.2396 62.4706 25.4283 62.3822 25.637 62.3742C26.0606 62.3541 26.4239 62.6873 26.442 63.1149C26.458 63.5404 26.1268 63.9018 25.7013 63.9178C25.6892 63.9178 25.6792 63.9178 25.6672 63.9178Z" fill="white"/>
<path d="M28.4812 49.65C28.0556 49.65 27.7164 49.7825 27.4414 50.0555C26.8492 50.6457 26.5381 51.8601 26.5662 53.4799C26.5983 55.4752 27.0741 59.3894 28.6438 61.4067C28.8987 61.7339 29.1717 61.9928 29.4587 62.1815C29.7357 62.3641 30.0448 62.5428 30.5286 62.5428C30.6611 62.5428 30.8016 62.5287 30.9481 62.5026C31.8494 62.2859 32.9755 61.2842 33.8145 59.9514C33.943 59.7487 34.1618 59.6282 34.4026 59.6282C34.5331 59.6282 34.6596 59.6643 34.772 59.7326C34.9285 59.833 35.0369 59.9855 35.0791 60.1662C35.1192 60.3468 35.0891 60.5335 34.9908 60.6901C33.9309 62.3762 32.5298 63.5605 31.2472 63.8575C31.2432 63.8575 31.2291 63.8616 31.2131 63.8636C30.9782 63.9077 30.7474 63.9298 30.5266 63.9298C29.6996 63.9298 29.1155 63.6147 28.698 63.3397C28.2865 63.0667 27.9011 62.7034 27.5538 62.2598C25.3438 59.4215 25.1932 54.1022 25.1832 53.504C25.1591 52.0889 25.3639 50.1699 26.4679 49.074C27.0078 48.538 27.6843 48.267 28.4772 48.267H28.6056C29.4025 48.267 30.079 48.538 30.6189 49.074C31.7249 50.1699 31.9277 52.0889 31.9056 53.504C31.8795 54.9794 31.6105 57.8357 30.081 60.397C29.9565 60.6058 29.7277 60.7342 29.4848 60.7342C29.3604 60.7342 29.2359 60.7001 29.1295 60.6359C28.8023 60.4392 28.6939 60.0136 28.8886 59.6844C29.9585 57.8919 30.4764 55.9188 30.5186 53.4779C30.5446 51.858 30.2355 50.6436 29.6414 50.0535C29.3664 49.7805 29.0271 49.648 28.6056 49.648H28.4852L28.4812 49.65Z" fill="white"/>
<path d="M60.9751 60.0658C59.3371 60.0658 58.0886 58.3998 58.0886 56.3504C58.0886 54.3009 59.3371 52.6369 60.9751 52.6369C62.613 52.6369 63.8676 54.2989 63.8676 56.3504C63.8676 58.4018 62.621 60.0658 60.9751 60.0658ZM60.9751 51.6192C57.5507 51.6192 55.5012 53.7389 55.5012 56.3504C55.5012 58.9618 57.5507 61.0815 60.9751 61.0815C64.3995 61.0815 66.4569 58.9638 66.4569 56.3504C66.4569 53.7369 64.4035 51.6192 60.9751 51.6192Z" fill="#ED1C24"/>
<path d="M66.9265 53.0163H70.5316V60.6861H73.2474V53.0163H76.2925V51.9705H66.9265V53.0163Z" fill="#ED1C24"/>
<path d="M77.282 53.0163H80.323V60.6861H83.0388V53.0163H86.6519V51.9705H77.282V53.0163Z" fill="#ED1C24"/>
<path d="M50.0874 59.1224V51.9685H47.48V59.6504C47.48 60.2244 47.9457 60.6881 48.5197 60.6881H55.1859V59.6403H50.6093C50.3263 59.6403 50.0874 59.4135 50.0874 59.1224Z" fill="#ED1C24"/>
<path d="M88.1274 53.0063V59.6504C88.1274 60.2244 88.5951 60.6881 89.1692 60.6881H96.275V59.6604H91.2608C90.9697 59.6604 90.7369 59.4276 90.7369 59.1385V56.5712H96.1987V55.5475H90.7369V53.5161C90.7369 53.2311 90.9697 52.9982 91.2608 52.9982H96.275V51.9705H89.1672C88.5971 51.9705 88.1274 52.4322 88.1274 53.0083" fill="#ED1C24"/>
</g>
</g>
<rect x="1" y="1" width="110" height="110" rx="9" stroke="black" stroke-opacity="0.1" stroke-width="2"/>
<defs>
<clipPath id="clip0_647_1192">
<rect x="2" y="2" width="108" height="108" rx="8" fill="white"/>
</clipPath>
<clipPath id="clip1_647_1192">
<rect width="80" height="24.9866" fill="white" transform="translate(16.2749 43.7467)"/>
</clipPath>
</defs>
</svg>
