<svg width="112" height="112" viewBox="0 0 112 112" fill="none" xmlns="http://www.w3.org/2000/svg">
<g clip-path="url(#clip0_647_1210)">
<rect x="2" y="2" width="108" height="108" rx="8" fill="white"/>
<path d="M40.3465 56.0956C40.1374 55.7969 39.9283 55.5579 39.6893 55.4085C39.4503 55.2592 39.2113 55.1994 38.9126 55.1994H38.6139V53.8252H44.6482V55.1994H44.2897C44.0507 55.1994 43.8715 55.2293 43.752 55.289C43.6325 55.3488 43.5728 55.4384 43.5728 55.5579C43.5728 55.6176 43.5728 55.6475 43.6026 55.7073C43.6325 55.767 43.6624 55.8267 43.7221 55.9462L44.9469 57.7984L46.1717 55.9462C46.2016 55.8865 46.2614 55.7969 46.2912 55.7073C46.3211 55.6176 46.3211 55.528 46.3211 55.4683C46.3211 55.3786 46.2614 55.3189 46.1419 55.289C46.0224 55.2293 45.873 55.2293 45.6938 55.2293H45.3054V53.8551H49.9357V55.2293H49.6071C49.3681 55.2293 49.159 55.289 48.9798 55.4384C48.8006 55.5579 48.5616 55.8267 48.2927 56.2151L45.9626 59.6505V61.3234C45.9626 61.6819 46.0224 61.9208 46.112 62.0105C46.2315 62.1001 46.4406 62.1598 46.8289 62.1598H47.3965V63.534H41.0933V62.1598H41.6908C42.0194 62.1598 42.2584 62.13 42.3779 62.0403C42.4973 61.9507 42.5571 61.7117 42.5571 61.3234V59.6505L40.2867 56.1553L40.3465 56.0956ZM55.8805 55.0202C55.1934 55.0202 54.6855 55.3189 54.3569 55.8865C54.0283 56.4541 53.879 57.3801 53.879 58.6348C53.879 59.9193 54.0283 60.8454 54.3569 61.413C54.6855 61.9806 55.1635 62.2793 55.8805 62.2793C56.5974 62.2793 57.1053 61.9806 57.404 61.413C57.7326 60.8454 57.882 59.9193 57.882 58.6647C57.882 57.3801 57.7326 56.4541 57.404 55.8865C57.0754 55.3189 56.5974 55.0202 55.8805 55.0202ZM49.876 58.6647C49.876 57.0814 50.4137 55.8267 51.4593 54.9306C52.5347 54.0344 53.9985 53.5863 55.8805 53.5863C57.7625 53.5863 59.2262 54.0344 60.2718 54.9306C61.3472 55.8267 61.8551 57.0814 61.8551 58.6647C61.8551 60.248 61.3174 61.5026 60.2718 62.3988C59.1964 63.295 57.7326 63.7431 55.8506 63.7431C53.9985 63.7431 52.5347 63.295 51.4593 62.3988C50.3838 61.5026 49.876 60.248 49.876 58.6647ZM68.8155 59.7102V58.3361H74.5511V59.7102H74.1926C73.8342 59.7102 73.5952 59.7401 73.5056 59.8297C73.3861 59.9193 73.3562 60.1285 73.3562 60.5168V63.534H71.4742L71.1456 62.9365C70.6377 63.2054 70.1299 63.4145 69.6221 63.534C69.1142 63.6535 68.6064 63.7431 68.0985 63.7431C66.4854 63.7431 65.2307 63.295 64.3047 62.3689C63.3786 61.4727 62.9305 60.2181 62.9305 58.6348C62.9305 57.1113 63.4383 55.8566 64.4242 54.9306C65.41 54.0045 66.7244 53.5265 68.3375 53.5265C68.9051 53.5265 69.413 53.5863 69.861 53.7058C70.3091 53.8252 70.7274 54.0045 71.1157 54.2136L71.3547 53.6759H72.9977V57.6191H71.2053C71.0261 56.6931 70.7572 56.0359 70.3988 55.6176C70.0403 55.1994 69.5623 54.9903 68.935 54.9903C68.218 54.9903 67.7102 55.289 67.4115 55.8267C67.0829 56.3943 66.9335 57.3204 66.9335 58.5751C66.9335 59.8596 67.0829 60.7857 67.4115 61.3533C67.7401 61.9208 68.218 62.2196 68.935 62.2196C69.3831 62.2196 69.6818 62.1598 69.861 62.0403C70.0104 61.9208 70.1 61.6221 70.1 61.2039V60.4571C70.1 60.0986 70.0403 59.8596 69.9507 59.77C69.861 59.6804 69.6221 59.6206 69.2337 59.6206H68.9051L68.8155 59.7102ZM76.0746 56.1255C75.8655 55.8267 75.6564 55.5878 75.4174 55.4384C75.1785 55.289 74.9395 55.2293 74.6407 55.2293H74.342V53.8551H80.3764V55.2293H80.0179C79.7789 55.2293 79.5997 55.2592 79.4802 55.3189C79.3607 55.3786 79.3009 55.4683 79.3009 55.5878C79.3009 55.6475 79.3009 55.6774 79.3308 55.7371C79.3607 55.7969 79.3905 55.8566 79.4503 55.9761L80.6751 57.8282L81.8999 55.9761C81.9298 55.9164 81.9895 55.8267 82.0194 55.7371C82.0492 55.6475 82.0492 55.5579 82.0492 55.4981C82.0492 55.4085 81.9895 55.3488 81.87 55.3189C81.7505 55.2592 81.6012 55.2592 81.4219 55.2592H81.0336V53.885H85.6639V55.2592H85.3353C85.0963 55.2592 84.8872 55.3189 84.7079 55.4683C84.5287 55.5878 84.2897 55.8566 84.0209 56.245L81.6908 59.6804V61.3533C81.6908 61.7117 81.7505 61.9507 81.8401 62.0403C81.9596 62.13 82.1687 62.1897 82.5571 62.1897H83.1247V63.5639H76.8215V62.1897H77.4189C77.7475 62.1897 77.9865 62.1598 78.106 62.0702C78.2255 61.9806 78.2852 61.7416 78.2852 61.3533V59.6804L76.0149 56.1852L76.0746 56.1255ZM90.1448 58.9933L89.2188 56.0956L88.3226 58.9933H90.1448ZM89.7565 63.4444V62.0702H90.2345C90.6228 62.0702 90.8618 62.0403 90.9514 62.0105C91.041 61.9806 91.0709 61.891 91.0709 61.7715C91.0709 61.6819 91.0709 61.6221 91.041 61.5624C91.041 61.5026 91.0112 61.4429 90.9813 61.3533L90.6228 60.3376H87.8446L87.516 61.2636C87.4563 61.413 87.4264 61.5026 87.3965 61.5922C87.3666 61.6819 87.3666 61.7416 87.3666 61.8013C87.3666 61.891 87.4264 61.9507 87.5459 62.0105C87.6654 62.0702 87.8446 62.0702 88.0836 62.0702H88.5914V63.4444H83.9611V62.0702H84.3495C84.6183 62.0702 84.8274 61.9806 85.0067 61.8312C85.1859 61.6819 85.3353 61.413 85.4548 61.0844L88.1732 53.8252H91.9073L94.3271 61.0545C94.5063 61.5325 94.6557 61.8312 94.7752 61.9208C94.9245 62.0105 95.1336 62.0702 95.4324 62.0702H95.9701V63.4444H89.6967H89.7565Z" fill="#FF0000"/>
<path d="M39.3905 52.003V50.0314H38.6736V49.643H40.5556V50.0314H39.8685V52.003H39.3905ZM47.6056 50.8379C47.6056 50.599 47.6355 50.3898 47.7251 50.2405C47.7849 50.121 47.8446 50.0015 47.9342 49.9119C48.0239 49.8223 48.1433 49.7326 48.233 49.7028C48.3823 49.643 48.5616 49.6131 48.7408 49.6131C49.0993 49.6131 49.3681 49.7326 49.5773 49.9418C49.7864 50.1509 49.9059 50.4496 49.9059 50.8379C49.9059 51.2263 49.7864 51.525 49.6071 51.7341C49.398 51.9432 49.1292 52.0627 48.7707 52.0627C48.4122 52.0627 48.1433 51.9432 47.9342 51.7341C47.7251 51.525 47.6355 51.2263 47.6355 50.8379H47.6056ZM48.1135 50.8081C48.1135 51.0769 48.1732 51.286 48.2927 51.4354C48.4122 51.5848 48.5616 51.6445 48.7707 51.6445C48.9499 51.6445 49.1292 51.5848 49.2486 51.4354C49.3681 51.286 49.4279 51.0769 49.4279 50.8081C49.4279 50.5392 49.3681 50.3301 49.2486 50.2106C49.1292 50.0612 48.9798 50.0015 48.7707 50.0015C48.5616 50.0015 48.4122 50.0612 48.2927 50.2106C48.1732 50.36 48.1135 50.5392 48.1135 50.8379V50.8081ZM57.0455 51.2263L57.5235 51.1665C57.5534 51.3159 57.6131 51.4354 57.7027 51.525C57.7923 51.5848 57.9118 51.6445 58.0612 51.6445C58.2106 51.6445 58.3301 51.6146 58.4197 51.5549C58.5093 51.4952 58.5392 51.4055 58.5392 51.3159C58.5392 51.2562 58.5093 51.2263 58.4794 51.1665C58.4495 51.1367 58.3898 51.1068 58.3002 51.0769C58.2404 51.0471 58.1209 51.0172 57.9118 50.9873C57.643 50.9276 57.4637 50.8379 57.3741 50.7483C57.2248 50.6288 57.165 50.4496 57.165 50.2704C57.165 50.1509 57.1949 50.0314 57.2546 49.9418C57.3144 49.8223 57.4339 49.7625 57.5534 49.7028C57.6728 49.643 57.8222 49.6131 58.0313 49.6131C58.3301 49.6131 58.5392 49.6729 58.6885 49.8223C58.8379 49.9418 58.9275 50.121 58.9275 50.36L58.4495 50.3898C58.4197 50.2704 58.3898 50.1807 58.3301 50.121C58.2703 50.0612 58.1508 50.0314 58.0313 50.0314C57.882 50.0314 57.7923 50.0612 57.7027 50.121C57.643 50.1509 57.6131 50.2106 57.6131 50.2704C57.6131 50.3301 57.643 50.3898 57.6728 50.4197C57.7326 50.4795 57.882 50.5093 58.1209 50.5691C58.3599 50.6288 58.5392 50.6886 58.6288 50.7483C58.7483 50.8081 58.8379 50.8977 58.8976 50.9873C58.9574 51.0769 58.9873 51.2263 58.9873 51.3757C58.9873 51.525 58.9574 51.6445 58.8678 51.764C58.7781 51.8835 58.6885 51.9731 58.5392 52.0329C58.3898 52.0926 58.2404 52.1225 58.0313 52.1225C57.7326 52.1225 57.4936 52.0627 57.3442 51.9134C57.1949 51.764 57.0754 51.5848 57.0455 51.3159V51.2263ZM66.2464 52.003V49.6131H68.0089V50.0015H66.7244V50.5392H67.9193V50.9276H66.7244V51.5848H68.0388V51.9731H66.2464V52.003ZM75.3278 52.003V49.6131H76.3435C76.5825 49.6131 76.7916 49.643 76.9111 49.6729C77.0306 49.7028 77.1202 49.7924 77.1799 49.9119C77.2397 50.0314 77.2696 50.1509 77.2696 50.3002C77.2696 50.4795 77.2098 50.6288 77.1202 50.7483C77.0007 50.8678 76.8513 50.9276 76.6422 50.9574C76.7318 51.0172 76.8215 51.0769 76.9111 51.1665C76.9708 51.2263 77.0604 51.3757 77.1799 51.5549L77.4787 52.0329H76.9111L76.5526 51.525C76.4331 51.3458 76.3435 51.2263 76.3136 51.1665C76.2539 51.1068 76.224 51.0769 76.1643 51.0769C76.1045 51.0471 76.0448 51.0471 75.9253 51.0471H75.8357V52.0329H75.3577L75.3278 52.003ZM75.8058 50.6288H76.1643C76.4032 50.6288 76.5227 50.6288 76.5825 50.599C76.6422 50.5691 76.6721 50.5392 76.702 50.5093C76.7318 50.4496 76.7617 50.3898 76.7617 50.3301C76.7617 50.2405 76.7318 50.1807 76.702 50.1509C76.6721 50.0911 76.6124 50.0612 76.5227 50.0612C76.4929 50.0612 76.3734 50.0612 76.1643 50.0612H75.7759V50.6587L75.8058 50.6288ZM85.5444 49.6131C85.7236 49.6131 85.873 49.6131 85.9626 49.643C86.0522 49.6729 86.1419 49.7028 86.2016 49.7326C86.2613 49.7924 86.3211 49.8521 86.3808 49.9418C86.4406 50.0314 86.4406 50.121 86.4406 50.2106C86.4406 50.3301 86.4107 50.4197 86.351 50.5093C86.2912 50.599 86.2016 50.6587 86.112 50.7185C86.2613 50.7483 86.3808 50.8379 86.4406 50.9276C86.5302 51.0172 86.5601 51.1367 86.5601 51.286C86.5601 51.4055 86.5302 51.4952 86.4705 51.6146C86.4107 51.7043 86.351 51.7939 86.2613 51.8536C86.1717 51.9134 86.0821 51.9432 85.9327 51.9731C85.8431 51.9731 85.6639 51.9731 85.3652 52.003H84.5586V49.6131H85.5444ZM85.0664 50.0015V50.5392H85.395C85.5743 50.5392 85.6938 50.5392 85.7535 50.5392C85.8431 50.5392 85.9029 50.5093 85.9327 50.4496C85.9925 50.3898 85.9925 50.3301 85.9925 50.2704C85.9925 50.2106 85.9626 50.1509 85.9327 50.0911C85.9029 50.0314 85.8431 50.0314 85.7535 50.0015C85.6938 50.0015 85.5743 50.0015 85.3353 50.0015H85.0664ZM85.0664 50.9574V51.5848H85.5145C85.6938 51.5848 85.7834 51.5848 85.8431 51.5848C85.9029 51.5848 85.9626 51.5549 86.0224 51.4952C86.0821 51.4354 86.0821 51.3757 86.0821 51.286C86.0821 51.2263 86.0522 51.1665 86.0224 51.1068C85.9925 51.0471 85.9327 51.0172 85.873 50.9873C85.8132 50.9574 85.6639 50.9574 85.4548 50.9574H85.0664ZM96 52.003H95.4921L95.283 51.4653H94.3271L94.118 52.003H93.6101L94.5362 49.6131H95.044L96 52.003ZM95.1336 51.0471L94.805 50.1807L94.4764 51.0471H95.1336Z" fill="#159B53"/>
<path fill-rule="evenodd" clip-rule="evenodd" d="M29.8611 54.6916L33.8641 52.4511L33.9238 52.3913L34.0433 52.1524V52.0329L34.0134 51.9731L33.9537 51.9134L33.8342 51.8536H33.6251L33.5355 51.8835L33.4757 51.9134L29.8013 53.9746L27.053 55.528V64.0418L27.0232 64.1016V64.1613L26.9933 64.2211L26.8738 64.4003L26.814 64.46L26.7244 64.5198L26.6049 64.5497L26.5153 64.5795L26.2763 64.5198L26.1867 64.46L26.1568 64.4302L26.127 64.3704L26.0672 64.2808L26.0373 64.1912L26.0075 64.0717L25.9776 64.0119V63.9522L26.0075 54.9305L29.8312 52.8096L32.9978 51.047L33.2367 50.9276L33.5952 50.8379H33.7446L34.1031 50.9276L34.581 51.1665L34.7603 51.3458L34.82 51.4354L34.9395 51.6744L34.9993 51.9134V52.2718L34.9395 52.5108L34.9096 52.6004L34.82 52.7199L34.7603 52.8096L34.581 52.9888L34.342 53.168L29.7416 55.7371L28.6662 56.3346V63.9821L28.6064 64.1016L28.5765 64.1912L28.4272 64.3405L28.3376 64.4003L28.2479 64.4302L28.1285 64.46L28.009 64.4302L27.9193 64.4003L27.8297 64.3405L27.7401 64.2509L27.6206 64.0717L27.5907 63.9522V55.7371L29.7117 54.5422L29.8611 54.6916ZM21.6759 49.3443L20.0926 48.478L19.9731 48.4182L19.7341 48.3585L19.5848 48.3286H19.2263L18.9873 48.3883L18.5093 48.6273L18.3301 48.8066L18.2405 48.9261L18.1807 49.0157L18.121 49.1352L18.0612 49.3742V49.643L18.121 49.882L18.1509 49.9716L18.2106 50.0911L18.3002 50.1807L18.36 50.3002L18.4496 50.3898L18.5691 50.4795L18.6587 50.5691L18.7782 50.6587L21.7356 52.2718L25.7386 54.4824L29.9208 52.1822L33.3562 50.3002L33.4757 50.2405L33.5653 50.1509L33.6251 50.0314L33.6848 49.9417L33.7446 49.7625L33.7147 49.6729L33.6848 49.6131L33.655 49.5833L33.5952 49.4937L33.5355 49.4339L33.4757 49.404L33.4459 49.3742L33.3264 49.3443H33.0874L32.9679 49.3742L32.8484 49.4339L29.9208 51.047L25.7685 53.3473L21.7057 51.1068L19.3159 49.7924L19.1964 49.7326L19.1068 49.5534V49.4937L19.1964 49.3144L19.3159 49.2547H19.3757L19.4354 49.2248L19.525 49.2547L19.6445 49.3144L21.7057 50.4496L25.7685 52.7199L29.891 50.4197L32.4899 48.9559L32.6094 48.8962L32.7289 48.7767L32.7588 48.717L32.8185 48.6273L32.8783 48.4481L32.8484 48.3585L32.7886 48.239L32.6692 48.1195L32.5497 48.0597L32.4302 48.0299L32.3704 48H32.3107L32.0717 48.0597L31.9522 48.1195L29.8611 49.2845L25.7685 51.5848L21.646 49.3144L21.6759 49.3443ZM21.6759 54.7812L16.9261 52.1524L16.8066 52.0926L16.5676 52.0329H16.4481L16.3286 52.0627L16.2091 52.1225L16.0597 52.2718L16.0299 52.3615L16 52.4212V52.5407L16.0299 52.6004V52.6602L16.0896 52.7797L16.1195 52.8096L16.1792 52.9291L16.239 52.9589L16.2987 53.0187L16.4182 53.0784L21.7057 56.006L22.6019 56.5138V63.6236L22.6318 63.7431L22.6617 63.8925L22.7214 63.9821L22.7812 64.1016L22.8409 64.1912L23.0202 64.3704L23.1397 64.4302L23.2293 64.5198L23.5878 64.699L23.8267 64.7588H24.0956L24.2151 64.7289L24.3645 64.699L24.8424 64.46L24.932 64.3704L24.9619 64.3107L25.1113 64.1613L25.171 64.0418L25.2308 63.9522L25.2905 63.7132L25.3204 63.5639V55.0799L21.6759 53.0784L17.7625 50.8977L17.643 50.8379L17.404 50.7782H17.2845L17.165 50.8081L17.1352 50.8379L17.0754 50.8678L17.0456 50.8977L16.9858 50.9276L16.9261 51.0172L16.8962 51.1068L16.8663 51.1665V51.3458L16.9559 51.525L16.9858 51.5549L17.0456 51.6744L17.1053 51.7043L17.1352 51.764L17.2547 51.8237L24.2748 55.7371V63.5041L24.245 63.5639V63.6236L24.1852 63.7431L24.0956 63.8327L23.9761 63.8925L23.7969 63.8028L23.7371 63.7431L23.6176 63.5041V56.0358L21.646 54.9604L21.6759 54.7812Z" fill="#ED3237"/>
</g>
<rect x="1" y="1" width="110" height="110" rx="9" stroke="black" stroke-opacity="0.1" stroke-width="2"/>
<defs>
<clipPath id="clip0_647_1210">
<rect x="2" y="2" width="108" height="108" rx="8" fill="white"/>
</clipPath>
</defs>
</svg>
