<svg width="112" height="112" viewBox="0 0 112 112" fill="none" xmlns="http://www.w3.org/2000/svg">
<g clip-path="url(#clip0_647_1297)">
<rect x="2" y="2" width="108" height="108" rx="8" fill="white"/>
<path d="M56 61.4465C54.8565 61.3366 53.6969 60.8454 52.8113 60.0959C52.6709 59.977 52.5393 59.8598 52.519 59.8353C52.489 59.7991 52.6244 59.6201 53.2423 58.8789C53.6604 58.3773 54.0107 57.967 54.0209 57.967C54.031 57.967 54.1451 58.0537 54.2745 58.1597C54.7986 58.5887 55.2661 58.8712 55.702 59.0223C55.9222 59.0987 55.999 59.1093 56.3294 59.1092C56.6525 59.1091 56.7281 59.0991 56.8624 59.0385C57.065 58.947 57.1552 58.8599 57.1791 58.7326C57.2236 58.4952 57.0378 58.257 56.6784 58.0906C56.5727 58.0417 56.2675 57.9456 56 57.877C55.0398 57.6307 54.5233 57.4333 54.0763 57.142C53.4728 56.7486 53.1467 56.2661 53.0024 55.5531C52.9293 55.1924 52.953 54.4781 53.049 54.145C53.3085 53.2447 53.9329 52.5868 54.8444 52.2531C55.2846 52.092 55.593 52.0358 56.1412 52.0168C57.1579 51.9816 58.087 52.1978 58.9333 52.6666C59.2555 52.8451 59.9098 53.326 59.8997 53.3768C59.8963 53.3939 59.5955 53.8394 59.2313 54.3668L58.569 55.3258L58.2255 55.0937C57.217 54.4121 56.3164 54.1886 55.9461 54.5279C55.8608 54.6061 55.8337 54.6585 55.8222 54.768C55.8092 54.8906 55.8197 54.9229 55.9062 55.0261C56.0766 55.2294 56.4017 55.3622 57.5373 55.6923C58.7923 56.0571 59.5528 56.6207 59.8754 57.4249C60.1242 58.0453 60.1043 59.0069 59.8289 59.6685C59.2968 60.9465 57.8393 61.6233 56 61.4465ZM78.651 61.3232C76.7073 61.0538 75.2986 59.7773 74.8603 57.8885C74.462 56.1721 75.0377 54.3711 76.3373 53.2677C77.1479 52.5796 78.009 52.2787 79.1686 52.2787C80.3302 52.2786 81.2203 52.6389 82.0941 53.4628L82.353 53.7068V52.3513H83.702V61.2611H82.353V59.9382L82.0628 60.21C81.4701 60.765 80.867 61.0936 80.1255 61.2654C79.8183 61.3366 78.9837 61.3693 78.651 61.3232ZM80.1412 59.9471C80.6299 59.7996 81.0986 59.5275 81.4712 59.1748C81.7905 58.8726 81.9842 58.6078 82.1826 58.2023C82.6924 57.16 82.5903 55.9545 81.9083 54.9653C81.2302 53.9818 80.0665 53.4508 78.9269 53.605C77.3843 53.8136 76.2351 55.048 76.1509 56.5866C76.0619 58.2139 77.1215 59.6334 78.6824 59.9779C79.0546 60.06 79.8204 60.0439 80.1412 59.9471ZM95.2251 61.3064C94.3595 61.1801 93.6487 60.7486 93.1867 60.0689C92.9632 59.7402 92.7892 59.3147 92.6669 58.7983C92.6022 58.5249 92.5997 58.4368 92.5887 56.014L92.5773 53.5121H91.451V52.2572H92.6431V51.0336H93.9608V52.2563L95.8902 52.2728L95.8991 52.8062C95.9041 53.0995 95.9004 53.3713 95.8907 53.4101L95.8733 53.4807H93.96L93.964 55.7317C93.9683 58.1149 93.9811 58.3702 94.1191 58.8271C94.156 58.9493 94.2446 59.1623 94.3159 59.3003C94.6147 59.8788 95.2784 60.3199 95.8497 60.3199H96V61.3552L95.7569 61.3518C95.6231 61.35 95.3838 61.3295 95.2251 61.3064ZM18.3843 54.5787H16V52.1944H23.6235V54.5787H21.2078V61.2611H18.3843V54.5787ZM24.6275 52.1944L26.6745 52.1945C28.794 52.1945 29.3732 52.2172 29.8323 52.3178C31.2466 52.628 32.0915 53.5385 32.2528 54.9266C32.3451 55.72 32.171 56.5132 31.7775 57.0928C31.6092 57.3408 31.2875 57.6607 31.0415 57.8247C30.9389 57.8931 30.8432 57.9584 30.829 57.9698C30.8077 57.9869 31.6138 59.6742 32.2552 60.9552L32.4084 61.2611H29.2818L28.6456 59.9356C28.2956 59.2066 28.0002 58.6107 27.989 58.6008C27.798 58.601 27.5934 58.6013 27.4196 58.6008V61.2611H24.6275V52.1944ZM28.9272 56.1985C29.2644 56.0737 29.458 55.7913 29.4585 55.4235C29.459 55.135 29.3884 54.95 29.2222 54.8037C28.9947 54.6035 28.8487 54.5715 28.0863 54.5549L27.4196 54.5403V56.279L28.102 56.2652C28.6391 56.2544 28.8147 56.2402 28.9272 56.1985ZM32.6818 61.2609C32.6858 61.2506 32.7536 61.1197 32.8422 60.964C33.6912 59.4709 38.0202 51.9996 38.0419 51.9956C38.0572 51.9928 39.272 54.0728 40.7415 56.6179L43.4219 61.2609C42.9541 61.2521 42.541 61.2711 42.1059 61.2609C42.0857 61.239 41.1552 59.6368 40.0644 57.7474C38.9736 55.8579 38.0711 54.3016 38.0589 54.2889C38.0467 54.2761 37.1269 55.8396 36.0148 57.7634L33.9929 61.2611C33.5533 61.2605 33.0739 61.2609 32.6818 61.2609ZM34.946 61.2609C34.9487 61.2538 35.1073 60.9553 35.335 60.5564C36.1532 59.1231 38.0206 55.8647 38.0391 55.8409C38.0427 55.8362 38.745 57.0504 39.5997 58.5389L41.1628 61.2609C40.7227 61.2615 40.2498 61.2603 39.8352 61.2609C39.8162 61.2537 39.4287 60.5505 38.9468 59.7126C38.4649 58.8748 38.0587 58.1926 38.0441 58.1967C38.0295 58.2009 37.6204 58.892 37.1349 59.7327L36.2522 61.2611C35.9679 61.2587 35.6547 61.2656 35.4049 61.2609C35.2815 61.2584 35.1331 61.2642 34.946 61.2609ZM43.6706 52.1944H45.8557L45.9195 52.265C45.9546 52.3038 46.6524 53.2169 47.4701 54.2941L48.9569 56.2526L48.973 52.1944H51.7961V61.2611C51.1007 61.2612 50.4052 61.2602 49.7098 61.2609L46.5098 57.047L46.4937 61.2609H43.6706L43.6706 52.1944ZM61.3333 52.3513H62.6497L62.6667 53.6487L62.7888 53.4507C63.0561 53.0175 63.5247 52.6204 64.0032 52.4213C64.3855 52.2624 64.6937 52.2151 65.2218 52.2343C66.3582 52.2758 67.0516 52.6801 67.5746 53.6062C67.6477 53.7356 67.7114 53.8454 67.7161 53.8502C67.7209 53.8551 67.7937 53.7351 67.8779 53.5836C68.0583 53.2592 68.5179 52.7761 68.8075 52.6064C69.5088 52.1955 70.726 52.1027 71.5828 52.3949C72.6416 52.7561 73.2867 53.5358 73.577 54.8053C73.6419 55.0893 73.6438 55.1708 73.6546 58.1787L73.6656 61.2611H72.2533L72.2429 58.1003C72.2333 55.1731 72.2284 54.9257 72.1764 54.753C71.9798 54.0991 71.549 53.6698 70.9419 53.5228C70.6577 53.454 70.0486 53.4539 69.7649 53.5226C69.0328 53.6999 68.511 54.275 68.3229 55.1121C68.2576 55.4024 68.2556 55.4858 68.2436 58.3356L68.2313 61.2611H66.8887L66.8779 58.3199C66.8657 54.9906 66.8816 55.2061 66.6057 54.6258C66.3023 53.9878 65.953 53.6669 65.4039 53.5217C65.1646 53.4585 64.6205 53.4519 64.3765 53.5094C63.7211 53.6636 63.2083 54.1793 62.9701 54.9239C62.7767 55.5283 62.7472 56.065 62.746 59.0101L62.7452 61.2611H61.3334L61.3333 52.3513ZM85.2392 52.3513H86.5882V53.7086L86.8383 53.4697C87.4812 52.8555 88.1296 52.5096 88.9401 52.3485C89.1315 52.3105 89.4568 52.2815 89.8432 52.2681L90.4471 52.2472V53.4721L89.9059 53.4889C89.5892 53.4987 89.2671 53.5268 89.1294 53.5566C87.8918 53.8243 87.0923 54.5456 86.7814 55.6749L86.6988 55.9748L86.6803 61.2611H85.2392V52.3513Z" fill="#ED1B24"/>
</g>
<rect x="1" y="1" width="110" height="110" rx="9" stroke="black" stroke-opacity="0.1" stroke-width="2"/>
<defs>
<clipPath id="clip0_647_1297">
<rect x="2" y="2" width="108" height="108" rx="8" fill="white"/>
</clipPath>
</defs>
</svg>
