<svg width="112" height="112" viewBox="0 0 112 112" fill="none" xmlns="http://www.w3.org/2000/svg">
<g clip-path="url(#clip0_755_300)">
<rect x="2" y="2" width="108" height="108" rx="8" fill="white"/>
<g clip-path="url(#clip1_755_300)">
<path d="M33.3271 51.2493C35.798 49.8877 37.26 49.4728 38.6734 48.9378C40.8452 48.0935 42.7936 47.4406 44.1708 47.0298V48.4153C44.1708 48.8457 44.5474 48.7785 44.7823 48.5291C45.0171 48.2808 49.8999 42.9148 50.3127 42.4606C50.7256 42.0074 50.6956 41.6142 50.141 41.5128C49.5864 41.4124 42.2752 40.1149 41.6564 40.0073C41.6564 40.0073 41.3005 39.9338 41.2395 40.2091C41.1908 40.4315 41.9751 41.2417 42.2783 41.5449C40.5193 42.084 37.9243 42.9635 35.0664 44.1327C32.6783 45.2088 30.8107 45.9268 28.8841 46.9926C28.8168 47.0298 28.7372 47.0723 28.6482 47.1178C25.7138 48.6802 22.9377 50.493 20.9014 52.5044C20.0984 53.297 19.4 54.1248 18.8071 54.9753L25.8048 55.8807C27.7904 54.1817 30.5137 52.6038 33.3261 51.2473L33.3271 51.2493Z" fill="url(#paint0_linear_755_300)"/>
<path d="M16.7386 64.4056C17.6047 67.8014 20.2897 70.5269 23.7467 71.5202C24.8414 71.8347 25.9785 71.9889 27.1229 71.9889C29.69 71.9889 32.2871 71.2139 34.4817 69.7353C37.8331 67.4786 39.9366 63.8023 40.4043 59.3862C40.8306 55.3633 40.097 51.8205 38.6722 48.9378C37.2588 49.4727 35.7968 49.8877 33.3259 51.2493C34.3565 53.1956 34.9525 55.7275 34.6296 58.7747C34.2654 62.211 32.584 64.0134 31.2369 64.9198C29.4955 66.0921 27.2398 66.4832 25.3473 65.94C23.8418 65.5075 22.7254 64.3973 22.3622 62.9704C21.8697 61.0397 22.7989 58.7892 24.98 56.636C25.2377 56.3814 25.5129 56.13 25.8036 55.8817L18.806 54.9763C16.7034 58.0008 15.9512 61.3201 16.7386 64.4056Z" fill="url(#paint1_linear_755_300)"/>
<path d="M23.7468 71.5212C24.8415 71.8358 25.9787 71.9899 27.123 71.9899C29.6901 71.9899 32.2872 71.2149 34.4818 69.7363C37.8332 67.4797 39.9368 63.8034 40.4045 59.3873C40.8308 55.3643 40.0972 51.8215 38.6724 48.9388C37.259 49.4738 35.7969 49.8887 33.3261 51.2504C34.3566 53.1966 34.9526 55.7286 34.6298 58.7758C34.2656 62.212 32.5842 64.0144 31.237 64.9208C29.4956 66.0932 20.2878 70.5289 23.7447 71.5212H23.7468Z" fill="url(#paint2_linear_755_300)"/>
<path d="M29.8597 41.2117C23.9795 39.6255 18.0321 44.1679 17.374 44.6914C17.374 44.6914 14.8111 46.646 16.6859 49.2265C17.2778 50.0408 18.4749 50.3471 19.4848 50.107C19.7197 50.0512 19.9483 49.9518 20.1522 49.8391C20.6302 49.5762 21.2862 49.0113 21.4932 48.8706C22.9604 47.8742 26.0727 46.2041 28.3491 46.8177C28.525 46.8653 28.704 46.9243 28.8851 46.9947C30.8117 45.9289 32.6793 45.2108 35.0674 44.1347C33.4781 42.7017 31.6777 41.7022 29.8597 41.2117Z" fill="url(#paint3_linear_755_300)"/>
<path d="M29.8597 41.2117C23.9795 39.6255 18.0321 44.1679 17.374 44.6914C17.374 44.6914 14.8111 46.646 16.6859 49.2265C17.2778 50.0408 18.4749 50.3471 19.4848 50.107C19.7197 50.0512 19.9483 49.9518 20.1522 49.8391C20.6302 49.5762 21.2862 49.0113 21.4932 48.8706C22.9604 47.8742 26.0727 46.2041 28.3491 46.8177C28.525 46.8653 28.704 46.9243 28.8851 46.9947C30.8117 45.9289 32.6793 45.2108 35.0674 44.1347C33.4781 42.7017 31.6777 41.7022 29.8597 41.2117Z" fill="url(#paint4_linear_755_300)"/>
<path d="M43.5273 59.3583V59.3324C43.5273 57.8011 44.6924 57.0933 46.3552 57.0933C47.0619 57.0933 47.573 57.2113 48.0697 57.381V57.263C48.0697 56.4384 47.5596 55.98 46.5642 55.98C46.0148 55.98 45.5688 56.0586 45.1891 56.1766C45.0711 56.2159 44.9925 56.2293 44.9014 56.2293C44.4431 56.2293 44.0768 55.8755 44.0768 55.4181C44.0768 55.0643 44.2992 54.7632 44.6138 54.6463C45.2418 54.4103 45.9227 54.28 46.8529 54.28C47.9393 54.28 48.7246 54.5676 49.2223 55.0653C49.7459 55.5889 49.9818 56.3618 49.9818 57.3044V60.4985C49.9818 61.0355 49.5503 61.4546 49.0133 61.4546C48.437 61.4546 48.0573 61.049 48.0573 60.6299V60.6165C47.573 61.1535 46.9056 61.5063 45.9361 61.5063C44.6138 61.5063 43.5273 60.7469 43.5273 59.3593V59.3583ZM48.0966 58.8999V58.546C47.7562 58.3888 47.3112 58.2843 46.827 58.2843C45.9765 58.2843 45.4519 58.6247 45.4519 59.2527V59.2786C45.4519 59.8156 45.8968 60.1291 46.5383 60.1291C47.4675 60.1291 48.0966 59.619 48.0966 58.8989V58.8999Z" fill="#ED0677"/>
<path d="M51.6963 55.2733C51.6963 54.7239 52.1413 54.2779 52.6917 54.2779C53.2422 54.2779 53.6871 54.7228 53.6871 55.2733V55.3519C54.1455 54.7632 54.7342 54.2262 55.742 54.2262C57.2475 54.2262 58.1249 55.2215 58.1249 56.8315V60.4582C58.1249 61.0076 57.68 61.4536 57.1296 61.4536C56.5791 61.4536 56.1342 61.0086 56.1342 60.4582V57.4606C56.1342 56.518 55.6893 56.0338 54.9298 56.0338C54.1703 56.0338 53.6861 56.518 53.6861 57.4606V60.4582C53.6861 61.0076 53.2412 61.4536 52.6907 61.4536C52.1402 61.4536 51.6953 61.0086 51.6953 60.4582V55.2743L51.6963 55.2733Z" fill="#ED0677"/>
<path d="M60.1808 59.3842V56.0586H60.1157C59.6449 56.0586 59.2651 55.6789 59.2651 55.2081C59.2651 54.7373 59.6449 54.3576 60.1157 54.3576H60.1808V53.4802C60.1808 52.9307 60.6258 52.4848 61.1762 52.4848C61.7267 52.4848 62.1716 52.9297 62.1716 53.4802V54.3576H63.049C63.5198 54.3576 63.8996 54.7373 63.8996 55.2081C63.8996 55.6789 63.5198 56.0586 63.049 56.0586H62.1716V59.0562C62.1716 59.5145 62.3682 59.737 62.8131 59.737C62.8783 59.737 63.0097 59.7235 63.049 59.7235C63.494 59.7235 63.8737 60.0898 63.8737 60.5482C63.8737 60.9021 63.6378 61.1897 63.3626 61.2942C62.9963 61.438 62.6559 61.4908 62.2233 61.4908C61.0055 61.4908 60.1808 61.0066 60.1808 59.3831V59.3842Z" fill="#ED0677"/>
<path d="M68.415 61.5312C66.3073 61.5312 64.749 60.0515 64.749 57.9045V57.8787C64.749 55.8755 66.1759 54.2262 68.2184 54.2262C70.562 54.2262 71.5956 56.1507 71.5956 57.6034C71.5956 58.1798 71.19 58.5595 70.6665 58.5595H66.7263C66.9229 59.4628 67.551 59.9346 68.4408 59.9346C68.9903 59.9346 69.4486 59.7649 69.8553 59.4638C69.9991 59.3593 70.1305 59.3065 70.3395 59.3065C70.7844 59.3065 71.1114 59.647 71.1114 60.0919C71.1114 60.3537 70.9934 60.5503 70.8496 60.6806C70.234 61.2042 69.4362 61.5312 68.415 61.5312ZM69.698 57.3158C69.58 56.4259 69.0565 55.8237 68.2184 55.8237C67.3803 55.8237 66.8567 56.4125 66.6994 57.3158H69.697H69.698Z" fill="#ED0677"/>
<path d="M73.1157 55.2733C73.1157 54.7238 73.5606 54.2779 74.1111 54.2779C74.6616 54.2779 75.1065 54.7228 75.1065 55.2733V55.5878C75.3941 54.907 75.866 54.2789 76.4547 54.2789C77.0435 54.2789 77.4232 54.6845 77.4232 55.2474C77.4232 55.771 77.0828 56.0855 76.6772 56.1766C75.6694 56.4125 75.1065 57.1844 75.1065 58.5988V60.4582C75.1065 61.0076 74.6616 61.4535 74.1111 61.4535C73.5606 61.4535 73.1157 61.0086 73.1157 60.4582V55.2743V55.2733Z" fill="#ED0677"/>
<path d="M77.8414 59.3583V59.3324C77.8414 57.8011 79.0064 57.0933 80.6692 57.0933C81.3759 57.0933 81.8871 57.2113 82.3837 57.381V57.263C82.3837 56.4384 81.8726 55.98 80.8782 55.98C80.3288 55.98 79.8828 56.0586 79.5031 56.1766C79.3851 56.2159 79.3065 56.2293 79.2155 56.2293C78.7571 56.2293 78.3908 55.8755 78.3908 55.4181C78.3908 55.0643 78.6133 54.7632 78.9278 54.6463C79.5559 54.4103 80.2367 54.28 81.1659 54.28C82.2523 54.28 83.0376 54.5676 83.5353 55.0653C84.0589 55.5889 84.2948 56.3618 84.2948 57.3044V60.4985C84.2948 61.0355 83.8623 61.4546 83.3263 61.4546C82.75 61.4546 82.3703 61.049 82.3703 60.6299V60.6165C81.886 61.1535 81.2186 61.5063 80.2491 61.5063C78.9268 61.5063 77.8403 60.7469 77.8403 59.3593L77.8414 59.3583ZM82.4106 58.8999V58.546C82.0702 58.3888 81.6253 58.2843 81.141 58.2843C80.2905 58.2843 79.7659 58.6247 79.7659 59.2527V59.2786C79.7659 59.8156 80.2108 60.1291 80.8524 60.1291C81.7815 60.1291 82.4106 59.619 82.4106 58.8989V58.8999Z" fill="#FFCB08"/>
<path d="M85.9458 63.5085C85.3043 63.5085 84.8335 63.2467 84.8335 62.6973C84.8335 62.213 85.1874 61.8985 85.6054 61.8985H85.6178C85.9065 61.8985 86.102 61.7153 86.102 61.2435V55.2733C86.102 54.7239 86.547 54.2779 87.0974 54.2779C87.6479 54.2779 88.0928 54.7228 88.0928 55.2733V61.2559C88.0928 62.8007 87.2816 63.5074 85.9717 63.5074H85.9458V63.5085ZM85.9851 52.6814C85.9851 52.105 86.4694 51.7522 87.0985 51.7522C87.7276 51.7522 88.2108 52.1061 88.2108 52.6814V52.7072C88.2108 53.2836 87.7265 53.6498 87.0985 53.6498C86.4704 53.6498 85.9851 53.2836 85.9851 52.7072V52.6814Z" fill="#FFCB08"/>
<path d="M89.546 59.3583V59.3324C89.546 57.8011 90.711 57.0933 92.3738 57.0933C93.0805 57.0933 93.5916 57.2113 94.0883 57.381V57.263C94.0883 56.4384 93.5772 55.98 92.5828 55.98C92.0334 55.98 91.5874 56.0586 91.2077 56.1766C91.0897 56.2159 91.0111 56.2293 90.92 56.2293C90.4617 56.2293 90.0954 55.8755 90.0954 55.4181C90.0954 55.0643 90.3178 54.7632 90.6324 54.6463C91.2605 54.4103 91.9413 54.28 92.8704 54.28C93.9569 54.28 94.7422 54.5676 95.2399 55.0653C95.7635 55.5889 95.9994 56.3618 95.9994 57.3044V60.4985C95.9994 61.0355 95.5669 61.4546 95.0309 61.4546C94.4546 61.4546 94.0748 61.049 94.0748 60.6299V60.6165C93.5906 61.1535 92.9232 61.5063 91.9537 61.5063C90.6314 61.5063 89.5449 60.7469 89.5449 59.3593L89.546 59.3583ZM94.1152 58.8999V58.546C93.7748 58.3888 93.3299 58.2843 92.8456 58.2843C91.9951 58.2843 91.4705 58.6247 91.4705 59.2527V59.2786C91.4705 59.8156 91.9154 60.1291 92.5569 60.1291C93.4861 60.1291 94.1152 59.619 94.1152 58.8989V58.8999Z" fill="#FFCB08"/>
</g>
</g>
<rect x="1" y="1" width="110" height="110" rx="9" stroke="black" stroke-opacity="0.1" stroke-width="2"/>
<defs>
<linearGradient id="paint0_linear_755_300" x1="22.3251" y1="70.0323" x2="36.7323" y2="44.9801" gradientUnits="userSpaceOnUse">
<stop stop-color="#FFCB08"/>
<stop offset="1" stop-color="#ED0677"/>
</linearGradient>
<linearGradient id="paint1_linear_755_300" x1="22.8051" y1="70.3085" x2="37.2133" y2="45.2563" gradientUnits="userSpaceOnUse">
<stop stop-color="#FFCB08"/>
<stop offset="1" stop-color="#ED0677"/>
</linearGradient>
<linearGradient id="paint2_linear_755_300" x1="27.1562" y1="52.6089" x2="30.6245" y2="59.5435" gradientUnits="userSpaceOnUse">
<stop stop-opacity="0.3"/>
<stop offset="1" stop-color="#000600" stop-opacity="0"/>
</linearGradient>
<linearGradient id="paint3_linear_755_300" x1="14.065" y1="65.282" x2="28.4733" y2="40.2298" gradientUnits="userSpaceOnUse">
<stop stop-color="#FFCB08"/>
<stop offset="1" stop-color="#ED0677"/>
</linearGradient>
<linearGradient id="paint4_linear_755_300" x1="32.8066" y1="49.8111" x2="25.4954" y2="46.3169" gradientUnits="userSpaceOnUse">
<stop stop-opacity="0.3"/>
<stop offset="1" stop-color="#000600" stop-opacity="0"/>
</linearGradient>
<clipPath id="clip0_755_300">
<rect x="2" y="2" width="108" height="108" rx="8" fill="white"/>
</clipPath>
<clipPath id="clip1_755_300">
<rect width="80" height="31.9888" fill="white" transform="translate(16 40)"/>
</clipPath>
</defs>
</svg>
