<svg width="112" height="112" viewBox="0 0 112 112" fill="none" xmlns="http://www.w3.org/2000/svg">
<g clip-path="url(#clip0_755_296)">
<rect x="2" y="2" width="108" height="108" rx="8" fill="white"/>
<path d="M18.1933 58.3162C18.3438 57.5425 18.4375 56.9999 18.4751 56.6874C18.5127 56.3758 18.5801 55.9032 18.6764 55.2686C20.1381 54.9247 21.4282 54.6831 22.5467 54.5431C23.6644 54.4039 24.7453 54.333 25.7886 54.333C26.9711 54.333 28.0573 54.4704 29.0463 54.7444C30.0353 55.0183 30.809 55.4568 31.3683 56.059C31.9276 56.6612 32.2068 57.5268 32.2068 58.6558C32.2068 59.2685 32.121 60.83 31.9504 63.341C31.7797 65.8512 31.6782 68.4455 31.6458 71.122C30.8283 71.1009 30.0747 71.0896 29.3859 71.0896C28.6971 71.0896 27.9601 71.1001 27.0779 71.122C27.2197 69.8213 27.3334 68.3159 27.4201 66.6066L27.6319 62.5909C27.2232 62.8596 26.9107 63.0478 26.6954 63.1555C26.4801 63.2631 26.2376 63.3629 25.9689 63.4539C25.6994 63.5458 25.2267 63.685 24.5484 63.8732C23.871 64.0614 23.3274 64.2259 22.9187 64.3651C22.51 64.5051 22.1415 64.6635 21.8133 64.8412C21.4851 65.0189 21.2076 65.2176 20.9818 65.4381C20.756 65.6587 20.5914 65.8897 20.4899 66.1313C20.3875 66.3729 20.3367 66.6337 20.3367 66.9138C20.3367 67.3654 20.468 67.7549 20.7315 68.0831C20.9949 68.4113 21.3258 68.6398 21.7231 68.7684C22.1205 68.8971 22.5887 68.9618 23.1261 68.9618C23.4701 68.9618 23.8333 68.9347 24.2149 68.8813C24.5966 68.8279 25.1103 68.6932 25.7554 68.4778C25.5296 69.0905 25.2661 70.0043 24.965 71.2191C24.2018 71.3478 23.5944 71.4292 23.1428 71.4607C22.6911 71.4931 22.2719 71.5088 21.885 71.5088C20.5302 71.5088 19.4177 71.3259 18.5469 70.9609C17.676 70.5959 17.0336 70.0148 16.6196 69.2192C16.2056 68.4236 15.999 67.6227 15.999 66.8166C15.999 66.3545 16.0795 65.8976 16.2406 65.446C16.4016 64.9944 16.6388 64.5804 16.9504 64.204C17.262 63.8277 17.6655 63.4653 18.1609 63.1152C18.6554 62.766 19.3713 62.4273 20.307 62.0991C21.2426 61.7708 22.4802 61.4409 24.018 61.1074C24.4268 61.0216 24.8521 60.9166 25.2932 60.7932C25.7344 60.6698 26.0871 60.549 26.3505 60.43C26.614 60.3118 26.8424 60.1586 27.0359 59.9705C27.2293 59.7823 27.372 59.5862 27.4639 59.3823C27.5549 59.1784 27.6013 58.9683 27.6013 58.753C27.6013 58.3338 27.4639 57.9793 27.1899 57.6887C26.9151 57.3981 26.5606 57.1968 26.1247 57.0839C25.6889 56.971 25.2075 56.915 24.6797 56.915C22.7218 56.915 20.559 57.3824 18.1924 58.318L18.1933 58.3162Z" fill="#231F20"/>
<path d="M33.5879 70.8147L33.2335 67.2665C34.2873 67.6962 35.1791 67.9947 35.9108 68.1619C36.6417 68.329 37.3139 68.4122 37.9265 68.4122C38.5392 68.4122 39.0556 68.3396 39.4748 68.1943C39.8941 68.049 40.2057 67.8345 40.4105 67.5492C40.6144 67.2647 40.7168 66.9663 40.7168 66.6538C40.7168 66.5147 40.7028 66.3851 40.6765 66.267C40.6494 66.1488 40.6013 66.0254 40.5313 65.8959C40.4612 65.7672 40.3807 65.6455 40.2897 65.5335C40.1987 65.4206 40.0718 65.2919 39.9107 65.1467C39.7497 65.0014 39.5177 64.8158 39.2175 64.59L38.3466 63.8968C37.5082 63.2412 36.8684 62.7249 36.4272 62.3485C35.9861 61.9721 35.615 61.5879 35.3148 61.1958C35.0137 60.8037 34.7853 60.3897 34.6295 59.9538C34.4737 59.5188 34.3958 59.0751 34.3958 58.6235C34.3958 57.8392 34.6347 57.0918 35.1135 56.382C35.5914 55.6721 36.2881 55.154 37.2018 54.8258C38.1156 54.4984 39.1904 54.3339 40.4271 54.3339C41.8354 54.3339 43.459 54.5011 45.2978 54.8336L45.507 58.2042C44.2598 57.6992 43.0607 57.4463 41.9106 57.4463C41.2875 57.4463 40.7413 57.5084 40.2739 57.6318C39.8066 57.7552 39.4705 57.9434 39.2657 58.1963C39.0617 58.4493 38.9593 58.7311 38.9593 59.0427C38.9593 59.2256 38.9917 59.4059 39.0565 59.5827C39.1212 59.7604 39.2341 59.946 39.3952 60.1394C39.5562 60.3328 39.7418 60.5157 39.9518 60.6873C40.1619 60.8597 40.5995 61.1984 41.2665 61.7034C41.9325 62.2093 42.5163 62.6662 43.0161 63.0741C43.5158 63.4828 43.9272 63.8942 44.2502 64.3073C44.5723 64.7213 44.82 65.165 44.9924 65.6377C45.1639 66.1112 45.2506 66.5891 45.2506 67.0731C45.2506 67.8792 45.0029 68.6266 44.5084 69.3146C44.0139 70.0025 43.2664 70.5399 42.2669 70.9268C41.2673 71.3136 40.1488 71.5071 38.9121 71.5071C38.267 71.5071 37.4819 71.4554 36.5576 71.3539C35.6325 71.2515 34.6435 71.0721 33.5906 70.8139L33.5879 70.8147Z" fill="#231F20"/>
<path d="M46.4182 70.8147L46.0637 67.2665C47.1175 67.6962 48.0093 67.9947 48.7411 68.1619C49.4719 68.329 50.1441 68.4122 50.7567 68.4122C51.3694 68.4122 51.8858 68.3396 52.3051 68.1943C52.7243 68.049 53.0359 67.8345 53.2407 67.5492C53.4446 67.2647 53.547 66.9663 53.547 66.6538C53.547 66.5147 53.533 66.3851 53.5068 66.267C53.4796 66.1488 53.4315 66.0254 53.3615 65.8959C53.2915 65.7672 53.2109 65.6455 53.1199 65.5335C53.028 65.4206 52.902 65.2919 52.7409 65.1467C52.5799 65.0014 52.3479 64.8158 52.0477 64.59L51.1769 63.8968C50.3384 63.2412 49.6986 62.7249 49.2575 62.3485C48.8163 61.9721 48.4452 61.5879 48.145 61.1958C47.8439 60.8037 47.6155 60.3897 47.4597 59.9538C47.3039 59.5188 47.226 59.0751 47.226 58.6235C47.226 57.8392 47.4649 57.0918 47.9437 56.382C48.4216 55.6721 49.1183 55.154 50.032 54.8258C50.9458 54.4984 52.0206 54.3339 53.2573 54.3339C54.6656 54.3339 56.2892 54.5011 58.1272 54.8336L58.3372 58.2042C57.09 57.6992 55.8909 57.4463 54.7409 57.4463C54.1177 57.4463 53.5715 57.5084 53.1042 57.6318C52.6368 57.7552 52.3007 57.9434 52.0959 58.1963C51.8919 58.4493 51.7895 58.7311 51.7895 59.0427C51.7895 59.2256 51.8219 59.4059 51.8867 59.5827C51.9515 59.7604 52.0644 59.946 52.2254 60.1394C52.3865 60.3328 52.572 60.5157 52.7821 60.6873C52.9921 60.8597 53.4297 61.1984 54.0967 61.7034C54.7636 62.2093 55.3465 62.6662 55.8463 63.0741C56.3461 63.4828 56.7574 63.8942 57.0795 64.3073C57.4025 64.7213 57.6493 65.165 57.8217 65.6377C57.9933 66.1112 58.0799 66.5891 58.0799 67.0731C58.0799 67.8792 57.8322 68.6266 57.3377 69.3146C56.8432 70.0025 56.0957 70.5399 55.0962 70.9268C54.0967 71.3136 52.9781 71.5071 51.7414 71.5071C51.0963 71.5071 50.3112 71.4554 49.387 71.3539C48.4619 71.2515 47.4728 71.0721 46.4199 70.8139L46.4182 70.8147Z" fill="#231F20"/>
<path d="M60.9253 58.3162C61.0759 57.5425 61.1695 56.9999 61.2072 56.6874C61.2448 56.3758 61.3122 55.9032 61.4085 55.2686C62.8701 54.9247 64.1602 54.6831 65.2788 54.5431C66.3965 54.4039 67.4774 54.333 68.5198 54.333C69.7023 54.333 70.7885 54.4704 71.7775 54.7444C72.7665 55.0183 73.5402 55.4568 74.0995 56.059C74.6588 56.6612 74.938 57.5268 74.938 58.6558C74.938 59.2685 74.8522 60.8299 74.6816 63.341C74.5109 65.8512 74.4094 68.4455 74.377 71.122C73.5595 71.1009 72.8059 71.0896 72.1171 71.0896C71.4283 71.0896 70.6913 71.1001 69.8091 71.122C69.95 69.8213 70.0646 68.3159 70.1513 66.6066L70.3631 62.5909C69.9544 62.8596 69.6419 63.0478 69.4266 63.1555C69.2113 63.2631 68.9688 63.3629 68.7001 63.4539C68.4314 63.5458 67.9579 63.685 67.2796 63.8732C66.6022 64.0614 66.0587 64.2259 65.6499 64.3651C65.2412 64.5051 64.8727 64.6635 64.5445 64.8412C64.2163 65.0189 63.9388 65.2176 63.713 65.4381C63.4872 65.6587 63.3226 65.8897 63.2202 66.1313C63.1178 66.3729 63.0671 66.6337 63.0671 66.9138C63.0671 67.3654 63.1984 67.7549 63.4618 68.0831C63.7252 68.4113 64.0561 68.6398 64.4534 68.7684C64.8508 68.8971 65.3191 68.9618 65.8565 68.9618C66.2004 68.9618 66.5637 68.9347 66.9453 68.8813C67.3269 68.8279 67.8406 68.6931 68.4857 68.4778C68.2599 69.0905 67.9964 70.0043 67.6954 71.2191C66.9321 71.3478 66.3247 71.4292 65.8731 71.4607C65.4215 71.4931 65.0022 71.5088 64.6154 71.5088C63.2605 71.5088 62.1481 71.3259 61.2772 70.9609C60.4063 70.5959 59.7639 70.0148 59.3499 69.2192C58.9359 68.4236 58.7294 67.6227 58.7294 66.8166C58.7294 66.3545 58.8099 65.8976 58.9709 65.446C59.132 64.9944 59.3692 64.5804 59.6807 64.204C59.9923 63.8277 60.3958 63.4653 60.8912 63.1152C61.3857 62.766 62.1017 62.4273 63.0373 62.0991C63.9729 61.7708 65.2105 61.4409 66.7483 61.1074C67.1571 61.0216 67.5825 60.9166 68.0227 60.7932C68.4638 60.6698 68.8166 60.549 69.08 60.43C69.3434 60.3118 69.5719 60.1586 69.7653 59.9705C69.9587 59.7823 70.1014 59.5862 70.1933 59.3823C70.2843 59.1784 70.3307 58.9683 70.3307 58.753C70.3307 58.3338 70.1933 57.9793 69.9194 57.6887C69.6445 57.3981 69.2901 57.1968 68.8542 57.0839C68.4183 56.971 67.9369 56.915 67.41 56.915C65.4521 56.915 63.2894 57.3824 60.9227 58.318L60.9253 58.3162Z" fill="#231F20"/>
<path d="M36.576 45.3285C36.576 45.3285 40.2319 50.4802 45.8825 50.6465C51.5331 50.8128 57.4419 46.426 61.8741 44.9486C66.3063 43.4712 70.0734 43.1763 73.3232 45.4659C73.3232 45.4659 69.9255 40 63.4994 40C59.363 40 50.8688 44.2913 48.5047 45.3259C46.1407 46.3604 41.34 47.9035 36.576 45.3285Z" fill="#231F20"/>
<path d="M59.2527 46.2151C59.2527 46.2151 62.9086 51.3668 68.5592 51.5331C74.2098 51.6994 80.1186 47.3127 84.5508 45.8353C88.9831 44.3578 92.7501 44.0629 95.9999 46.3525C95.9999 46.3525 92.6022 40.8866 86.1761 40.8866C82.0397 40.8866 73.5455 45.1779 71.1815 46.2125C68.8174 47.247 64.0167 48.791 59.2527 46.2151Z" fill="#E5BF00"/>
</g>
<rect x="1" y="1" width="110" height="110" rx="9" stroke="black" stroke-opacity="0.1" stroke-width="2"/>
<defs>
<clipPath id="clip0_755_296">
<rect x="2" y="2" width="108" height="108" rx="8" fill="white"/>
</clipPath>
</defs>
</svg>
