<svg width="112" height="112" viewBox="0 0 112 112" fill="none" xmlns="http://www.w3.org/2000/svg">
<g clip-path="url(#clip0_755_304)">
<rect x="2" y="2" width="108" height="108" rx="8" fill="white"/>
<path d="M95.9987 43.9999V61.6545H15.999V43.9999H95.9987Z" fill="#FFCC00"/>
<path d="M30.0678 47.1703L27.5119 50.6427C27.5119 50.6427 40.7622 50.6427 41.4419 50.6427C42.1461 50.6427 42.1368 50.9103 41.7926 51.3765C41.4431 51.8498 40.8582 52.6729 40.5021 53.1537C40.3215 53.3977 39.9948 53.8422 41.0773 53.8422C42.2217 53.8422 46.7738 53.8422 46.7738 53.8422C46.7738 53.8422 47.692 52.5926 48.4615 51.5481C49.5087 50.1273 48.5524 47.1704 44.8091 47.1704C41.4587 47.1703 30.0678 47.1703 30.0678 47.1703Z" fill="#D2002E"/>
<path d="M26.4777 58.4832L31.6114 51.5078C31.6114 51.5078 37.3026 51.5078 37.982 51.5078C38.6862 51.5078 38.677 51.7753 38.3328 52.2415C37.9833 52.7148 37.3888 53.5292 37.0328 54.0099C36.852 54.2539 36.5255 54.6991 37.6078 54.6991C38.7523 54.6991 46.1425 54.6991 46.1425 54.6991C45.4327 55.6715 43.1303 58.4832 38.9962 58.4832C35.6458 58.4832 26.4777 58.4832 26.4777 58.4832Z" fill="#D2002E"/>
<path d="M55.8789 54.6981L53.0949 58.483H45.7512C45.7512 58.483 48.5336 54.699 48.536 54.699L55.8789 54.6981Z" fill="#D2002E"/>
<path d="M67.1291 53.8422H49.1669L54.0789 47.1703H61.4204L58.605 50.9959H61.882L64.6986 47.1703H72.0393L67.1291 53.8422Z" fill="#D2002E"/>
<path d="M66.4987 54.6991L63.7134 58.4832H56.3724C56.3724 58.4832 59.1548 54.6991 59.1572 54.6991H66.4987Z" fill="#D2002E"/>
<path d="M15.999 56.1912H26.8177L26.2268 56.9951H15.999V56.1912Z" fill="#D2002E"/>
<path d="M15.999 54.6991H27.9168L27.3247 55.5019H15.999V54.6991Z" fill="#D2002E"/>
<path d="M15.999 57.6842H25.7192L25.131 58.4832H15.999V57.6842Z" fill="#D2002E"/>
<path d="M95.999 56.9951H85.222L85.8133 56.1914H95.999V56.9951Z" fill="#D2002E"/>
<path d="M95.999 58.4832L84.1264 58.4843L84.7145 57.6842H95.999V58.4832Z" fill="#D2002E"/>
<path d="M86.911 54.6991H95.999V55.5023L86.3204 55.503L86.911 54.6991Z" fill="#D2002E"/>
<path d="M82.2067 47.1703L77.2954 53.842H69.5163C69.5163 53.842 74.4286 47.1703 74.431 47.1703H82.2067Z" fill="#D2002E"/>
<path d="M68.8867 54.6991C68.8867 54.6991 68.3501 55.4325 68.0894 55.785C67.1673 57.0313 67.9825 58.4832 70.9918 58.4832C74.4671 58.4832 82.7819 58.4832 82.7819 58.4832L85.5669 54.6991H68.8867Z" fill="#D2002E"/>
<path d="M15.999 64.5247H95.999V64.9246H15.999V64.5247Z" fill="#FFCC00"/>
<path d="M15.999 66.3909H95.999V66.7908H15.999V66.3909Z" fill="#FFCC00"/>
<path d="M15.999 68.2567H95.999V68.6566H15.999V68.2567Z" fill="#FFCC00"/>
<path d="M42.8625 68.6566H45.2701L45.6544 68.1357H43.8627L44.8674 66.7743H46.4991L46.8835 66.2533H45.2518L46.1428 65.046H47.9346L48.319 64.525H45.9115L42.8625 68.6566Z" fill="#D2002E"/>
<path d="M45.8172 68.6566H46.556L49.0744 66.9045L49.0497 68.6566H49.8256L49.8313 66.4962L52.7329 64.525H52.031L49.7213 66.1114L49.7465 64.525H49.0077L48.9852 66.508L45.8172 68.6566Z" fill="#D2002E"/>
<path fill-rule="evenodd" clip-rule="evenodd" d="M53.6649 65.046H54.1883C54.5702 65.046 54.9967 65.2353 54.6124 65.7562C54.2105 66.3007 53.5948 66.4843 53.213 66.4843H52.6034L53.6649 65.046ZM50.3847 68.6566H51.0003L52.219 67.0052H52.8224C53.5982 67.0052 54.5834 66.6796 55.2605 65.7621C55.955 64.8209 55.4407 64.5248 54.5603 64.5248H53.4335L50.3847 68.6566Z" fill="#D2002E"/>
<path fill-rule="evenodd" clip-rule="evenodd" d="M53.9304 68.6566H54.5462L55.9003 66.8216H56.2697C56.5959 66.8216 56.7993 66.8216 56.6932 67.224L56.295 68.6566H56.997L57.3984 67.0109C57.4509 66.7565 57.4241 66.6678 57.2856 66.5966L57.2943 66.5848C57.8544 66.5018 58.5042 66.1468 58.8756 65.6436C59.605 64.6552 58.8822 64.5248 58.0325 64.5248H56.9795L53.9304 68.6566ZM57.2108 65.046H57.8017C58.3683 65.046 58.4891 65.2827 58.2139 65.6556C57.9213 66.0522 57.3931 66.3007 56.808 66.3007H56.2847L57.2108 65.046Z" fill="#D2002E"/>
<path d="M57.6345 68.6566H60.042L60.4264 68.1357H58.6347L59.6393 66.7743H61.271L61.6553 66.2533H60.0237L60.9148 65.046H62.7065L63.091 64.525H60.6835L57.6345 68.6566Z" fill="#D2002E"/>
<path d="M66.0566 64.6019C65.8354 64.5013 65.5315 64.4539 65.2483 64.4539C64.4725 64.4539 63.5808 64.8447 63.0391 65.5786C62.0913 66.863 64.1264 66.6086 63.4448 67.5319C63.0867 68.0172 62.4542 68.2068 62.1034 68.2068C61.7893 68.2068 61.5072 68.0883 61.359 68.0053L60.8914 68.556C61.109 68.6447 61.3435 68.7277 61.6452 68.7277C62.5071 68.7277 63.473 68.3782 64.1238 67.4962C65.1285 66.1351 63.1458 66.3182 63.7312 65.5253C64.0502 65.0932 64.5439 64.9747 64.8886 64.9747C65.209 64.9747 65.3419 65.0282 65.5685 65.1464L66.0566 64.6019Z" fill="#D2002E"/>
<path d="M69.1356 64.6019C68.9142 64.5013 68.6105 64.4539 68.3271 64.4539C67.5513 64.4539 66.6596 64.8447 66.118 65.5787C65.1701 66.863 67.2052 66.6086 66.5237 67.5319C66.1656 68.0172 65.5331 68.2069 65.1822 68.2069C64.8681 68.2069 64.586 68.0883 64.438 68.0053L63.9702 68.556C64.1879 68.6447 64.4223 68.7277 64.724 68.7277C65.586 68.7277 66.5518 68.3782 67.2026 67.4962C68.2073 66.1351 66.2247 66.3182 66.81 65.5253C67.129 65.0932 67.6227 64.9747 67.9674 64.9747C68.2878 64.9747 68.4208 65.0282 68.6473 65.1464L69.1356 64.6019Z" fill="#D2002E"/>
</g>
<rect x="1" y="1" width="110" height="110" rx="9" stroke="black" stroke-opacity="0.1" stroke-width="2"/>
<defs>
<clipPath id="clip0_755_304">
<rect x="2" y="2" width="108" height="108" rx="8" fill="white"/>
</clipPath>
</defs>
</svg>
