<svg width="112" height="112" viewBox="0 0 112 112" fill="none" xmlns="http://www.w3.org/2000/svg">
<g clip-path="url(#clip0_766_102)">
<rect x="2" y="2" width="108" height="108" rx="8" fill="white"/>
<path fill-rule="evenodd" clip-rule="evenodd" d="M51.3724 37.9201C53.2704 38.0166 55.3338 37.9394 57.2294 37.9394C59.177 37.9394 61.1245 37.9394 63.0721 37.9394C66.1231 37.9394 70.0105 37.8814 71.1829 41.4956C72.306 44.9575 70.1778 48.4973 68.4172 49.8734C65.8836 51.854 62.928 52.1395 58.9486 52.078L60.1191 47.3552C60.3078 46.6534 61.3118 43.0137 61.3456 42.6298L34.185 42.6191L29.0083 61.9942L40.0191 62.0035C40.2004 61.6732 41.7354 55.6451 42.0003 54.7057L43.4646 49.2441C43.5897 48.7936 43.8118 47.7227 43.971 47.4088L48.7499 47.4012L44.8774 61.9889C46.9566 62.0661 49.1256 62.004 51.1963 62.004C53.3132 62.004 55.4301 62.004 57.547 62.004C61.8029 62.004 65.2548 61.8967 68.9333 60.7452C75.2701 58.7618 79.8784 54.5485 82.0117 48.5445C83.144 45.3576 83.4309 40.9382 82.3927 37.5227C80.2301 30.408 73.6088 28.1843 66.6291 28.0246C64.5481 27.9769 62.4268 28.0147 60.3413 28.0147C58.2364 28.0147 56.0988 27.9782 53.9979 28.0202L51.3724 37.9201ZM43.0762 28.0639C40.0526 28.475 37.6564 30.6036 36.7882 33.1733C35.5952 36.7044 37.839 39.5462 41.4301 39.1553C44.3828 38.8341 46.8824 36.507 47.7061 34.0535C48.8807 30.5547 46.6519 27.5776 43.0762 28.0639Z" fill="#FE1600"/>
<path fill-rule="evenodd" clip-rule="evenodd" d="M55.689 71.4585C55.7106 71.0992 56.0951 69.6599 56.2334 69.4546C56.9303 69.4356 59.1087 69.2115 58.5744 70.6445C58.235 71.5552 56.8188 71.5064 55.689 71.4585ZM50.6945 76.9108L54.1821 76.9333C54.2919 76.4556 54.8672 74.2312 55.0253 73.9635L55.8084 73.9567L56.982 76.9214L60.7198 76.9323L59.327 73.4948C59.9261 73.1344 61.1761 72.9582 61.8777 71.4026C62.4226 70.1943 62.2682 68.6387 61.495 67.7617C60.7948 66.9676 59.4894 66.572 58.1212 66.529C56.6494 66.4826 54.9671 66.4701 53.4977 66.5183L50.6945 76.9108ZM62.0488 76.9199L70.9585 76.9329L71.7247 74.0713L66.2376 74.0553L66.5202 72.9428L69.3078 72.9384L69.9684 70.4403L67.2241 70.4227L67.4736 69.385L72.921 69.3844L73.6834 66.5308L64.8089 66.5151L62.7202 74.2803C62.5342 74.9357 62.1081 76.2782 62.0488 76.9199ZM17.8579 76.9068L26.8052 76.9332L27.5673 74.0786L22.0925 74.0549C22.2193 72.4432 22.5784 73.0209 25.1296 72.9534L25.8148 70.4482L23.0705 70.4222C23.0757 70.1439 23.2382 69.5711 23.3464 69.3924L28.715 69.3835C28.851 69.1648 29.4932 66.8405 29.5061 66.5403L20.6622 66.5142L17.8579 76.9068ZM85.1724 72.9009C85.0024 72.9902 83.2747 75.0309 83.1971 75.2665C83.6282 75.7349 84.6936 76.3662 85.4557 76.6342C86.4999 77.0017 87.3373 77.1599 88.6035 77.1248C90.7525 77.0655 92.5395 75.9975 92.9193 74.1803C93.6836 70.5248 88.8967 70.4037 88.5144 69.693C88.0474 68.8248 89.991 69.0729 91.0637 69.5656C91.4738 69.754 91.9391 70.148 92.2299 70.2402C92.563 69.82 94.0008 68.1859 94.1421 67.8998C93.9024 67.4321 92.4243 66.7959 91.7783 66.6198C90.8364 66.3631 89.6241 66.1963 88.5536 66.3824C86.5932 66.7231 84.8741 67.8627 84.8633 69.996C84.8523 72.1775 87.1005 72.6122 88.7741 73.3162C89.9672 73.8181 89.4774 74.6579 87.5861 74.1816C87.126 74.0657 86.6555 73.8497 86.287 73.6435C85.8604 73.4049 85.522 73.0794 85.1724 72.9009ZM74.7451 72.88C74.5143 73.0681 72.8373 75.0223 72.7706 75.2665C74.4876 77.1371 79.333 78.0391 81.5642 75.8505C82.6022 74.8323 83.0843 72.8414 81.8408 71.613C81.3373 71.1157 80.693 70.8087 79.9497 70.5153C79.3788 70.2899 77.9686 69.9276 78.0156 69.4874C78.1015 68.6865 80.1437 69.2918 80.9342 69.7253C81.2315 69.8884 81.5032 70.1079 81.7431 70.232C82.0121 70.0654 82.9206 68.8751 83.2378 68.5051C83.4283 68.2829 83.6569 68.1281 83.7228 67.819C82.1013 66.6866 80.2087 66.0334 78.0884 66.3943C76.1725 66.7203 74.4072 67.8987 74.436 69.9958C74.4754 72.8782 78.4878 72.8985 78.9063 73.6624C79.3304 74.4366 77.9104 74.3943 77.0676 74.1564C76.1779 73.9052 75.3357 73.3571 74.7451 72.88ZM27.7003 76.9112C28.4532 76.984 30.2408 76.9264 31.1933 76.9346C31.816 76.9401 31.7421 76.8816 32.0326 76.5496C32.3546 76.1816 34.0181 74.2203 34.3035 74.1032L35.4143 76.9327L39.1416 76.9311C39.0713 76.3749 36.9383 71.8537 36.9581 71.6466C37.0539 71.4173 38.9669 69.3904 39.2918 69.0774C39.6873 68.6963 40.0806 68.235 40.4575 67.8302C40.6761 67.5953 41.5283 66.7742 41.6055 66.5182L38.3679 66.5151C37.9072 66.5135 37.7253 66.4263 37.4724 66.6862C37.0674 67.1024 35.7052 68.7953 35.3815 68.9844L34.4368 66.5251L30.7047 66.5153C30.7176 66.7866 31.7653 69.1546 31.9402 69.5606C32.1523 70.0537 32.362 70.5677 32.5893 71.0741C32.8257 71.6006 32.6445 71.5611 31.9057 72.3591C31.4713 72.8285 27.931 76.5461 27.7003 76.9112ZM45.0565 71.6171C45.0309 71.2906 45.5107 69.6975 45.6195 69.3087C46.1509 69.3106 46.7168 69.2811 47.1073 69.514C47.8204 69.9391 47.9306 71.7715 45.0565 71.6171ZM40.123 76.9237L43.576 76.931L44.3339 74.1233C46.4562 74.0061 47.4343 74.266 49.1116 73.3115C51.4565 71.9768 52.2733 67.5752 48.3386 66.6982C46.9436 66.3872 44.4645 66.5081 42.8905 66.5181L40.795 74.2603C40.6046 74.9961 40.1844 76.2212 40.123 76.9237Z" fill="#FD1602"/>
<path d="M17.8262 82.2564L16.426 80.4292H16V83.0719H16.4566V81.1918L17.8979 83.0719H18.2828V80.4292H17.8262V82.2564ZM21.085 80.4104H20.6584L19.5058 83.0719H19.9772L20.2467 82.4339H21.4854L21.7511 83.0719H22.2376L21.085 80.4104ZM21.3171 82.0224H20.4151L20.8642 80.9653L21.3171 82.0224ZM24.1604 82.4603L23.3708 80.4292H22.8618L23.9508 83.0908H24.355L25.4439 80.4292H24.9462L24.1604 82.4603ZM26.693 80.4292V83.0719H27.1497V80.4292H26.693ZM30.9622 82.7058V81.5958H29.8471V81.9998H30.5168V82.4968C30.4371 82.5579 30.3429 82.6062 30.2343 82.6435C30.1259 82.6799 30.0092 82.6982 29.8844 82.6982C29.7497 82.6982 29.6281 82.6742 29.5195 82.6264C29.4111 82.5786 29.3175 82.512 29.239 82.4276C29.1603 82.3433 29.0998 82.2432 29.0575 82.1269C29.015 82.011 28.9938 81.8846 28.9938 81.7487C28.9938 81.6203 29.0156 81.4988 29.0593 81.3856C29.1029 81.2718 29.1628 81.1724 29.239 81.0868C29.315 81.0012 29.4048 80.9332 29.5084 80.8841C29.6118 80.8351 29.7235 80.8105 29.8432 80.8105C29.9256 80.8105 30.0011 80.8175 30.0696 80.8313C30.1383 80.8452 30.2013 80.864 30.2587 80.8879C30.3161 80.9119 30.3709 80.9414 30.4234 80.9766C30.4757 81.0118 30.5268 81.0508 30.5768 81.0936L30.8686 80.7425C30.8012 80.6847 30.7321 80.6337 30.661 80.5897C30.5898 80.5456 30.5144 80.5085 30.4345 80.4783C30.3547 80.4481 30.2681 80.4247 30.1745 80.4085C30.0809 80.392 29.9767 80.3839 29.862 80.3839C29.6648 80.3839 29.4834 80.4205 29.3175 80.4934C29.1516 80.5664 29.0087 80.6652 28.889 80.7897C28.7692 80.9143 28.6763 81.0596 28.6102 81.2258C28.5441 81.3919 28.5111 81.5681 28.5111 81.7544C28.5111 81.9482 28.5434 82.1281 28.6084 82.2943C28.6732 82.4603 28.7648 82.6044 28.8834 82.7265C29.0019 82.8485 29.1447 82.9442 29.3119 83.0133C29.479 83.0826 29.6648 83.1173 29.8694 83.1173C29.9843 83.1173 30.094 83.1065 30.1988 83.0851C30.3036 83.0638 30.4014 83.0342 30.4926 82.9964C30.5837 82.9586 30.6684 82.9146 30.7471 82.8643C30.8256 82.814 30.8974 82.7611 30.9622 82.7058ZM33.6895 80.4104H33.2629L32.1103 83.0719H32.5818L32.8513 82.4339H34.09L34.3557 83.0719H34.8422L33.6895 80.4104ZM33.9216 82.0224H33.0197L33.4687 80.9653L33.9216 82.0224ZM36.836 80.8596H37.6668V80.4292H35.5412V80.8596H36.372V83.0719H36.836V80.8596ZM40.8657 80.4292H38.9271V83.0719H40.8843V82.6529H39.3838V81.9469H40.6973V81.5278H39.3838V80.8483H40.8657V80.4292ZM45.8083 80.4104H45.3818L44.2291 83.0719H44.7007L44.9701 82.4339H46.2088L46.4745 83.0719H46.961L45.8083 80.4104ZM46.0404 82.0224H45.1385L45.5876 80.9653L46.0404 82.0224ZM50.5528 81.7468C50.5528 81.5606 50.5192 81.3868 50.4518 81.2258C50.3844 81.0647 50.2889 80.925 50.1654 80.8068C50.042 80.6885 49.8948 80.5959 49.7239 80.5292C49.553 80.4626 49.3653 80.4292 49.1607 80.4292H48.184V83.0719H49.1607C49.3653 83.0719 49.553 83.0379 49.7239 82.97C49.8948 82.902 50.042 82.8089 50.1654 82.6906C50.2889 82.5723 50.3844 82.432 50.4518 82.2697C50.5192 82.1073 50.5528 81.9331 50.5528 81.7468ZM50.0701 81.7544C50.0701 81.8859 50.0483 82.0066 50.0046 82.1161C49.9609 82.2263 49.8991 82.3213 49.8206 82.4005C49.742 82.4804 49.6459 82.5421 49.5337 82.5868C49.4207 82.6308 49.296 82.6529 49.1582 82.6529H48.6405V80.8483H49.1582C49.296 80.8483 49.4207 80.8709 49.5337 80.9163C49.6459 80.9622 49.742 81.0251 49.8206 81.1063C49.8991 81.1867 49.9609 81.2824 50.0046 81.3925C50.0483 81.502 50.0701 81.6228 50.0701 81.7544ZM52.7899 82.4603L52.0003 80.4292H51.4913L52.5804 83.0908H52.9845L54.0735 80.4292H53.5757L52.7899 82.4603ZM56.277 80.4104H55.8503L54.6978 83.0719H55.1692L55.4386 82.4339H56.6773L56.943 83.0719H57.4296L56.277 80.4104ZM56.5089 82.0224H55.607L56.0561 80.9653L56.5089 82.0224ZM60.4787 82.2564L59.0785 80.4292H58.6525V83.0719H59.109V81.1918L60.5504 83.0719H60.9352V80.4292H60.4787V82.2564ZM64.6617 82.649L64.3661 82.347C64.2538 82.4528 64.1404 82.5364 64.0256 82.5981C63.9109 82.6598 63.7736 82.6906 63.614 82.6906C63.4892 82.6906 63.3738 82.6661 63.2678 82.617C63.1617 82.568 63.0701 82.5006 62.9928 82.415C62.9154 82.3294 62.8556 82.2294 62.8131 82.1148C62.7707 82.0004 62.7494 81.8776 62.7494 81.7468C62.7494 81.6159 62.7707 81.4939 62.8131 81.3806C62.8556 81.2674 62.9154 81.1685 62.9928 81.0842C63.0701 80.9999 63.1617 80.9332 63.2678 80.8841C63.3738 80.8351 63.4892 80.8105 63.614 80.8105C63.7636 80.8105 63.8971 80.8407 64.0143 80.9011C64.1316 80.9615 64.2427 81.0408 64.3474 81.139L64.6431 80.7954C64.5807 80.735 64.5146 80.6797 64.4447 80.6293C64.3749 80.579 64.2987 80.5355 64.2165 80.4991C64.1341 80.4626 64.0437 80.4342 63.9451 80.4141C63.8466 80.394 63.7375 80.3839 63.6177 80.3839C63.4181 80.3839 63.236 80.4198 63.0713 80.4916C62.9067 80.5632 62.7645 80.6613 62.6447 80.7859C62.5249 80.9106 62.432 81.0559 62.3659 81.222C62.2998 81.3881 62.2667 81.5655 62.2667 81.7544C62.2667 81.9456 62.3003 82.1243 62.3677 82.2904C62.4351 82.4565 62.528 82.6007 62.6466 82.7227C62.7651 82.8448 62.9054 82.9411 63.0676 83.0115C63.2297 83.082 63.4068 83.1173 63.599 83.1173C63.7212 83.1173 63.8328 83.1065 63.9338 83.0851C64.035 83.0638 64.1279 83.0322 64.2127 82.9907C64.2976 82.9492 64.3768 82.9001 64.4503 82.8435C64.524 82.7868 64.5944 82.7221 64.6617 82.649ZM67.8569 80.4292H65.9184V83.0719H67.8756V82.6529H66.3749V81.9469H67.6885V81.5278H66.3749V80.8483H67.8569V80.4292ZM73.8137 81.7468C73.8137 81.5606 73.7801 81.3868 73.7127 81.2258C73.6453 81.0647 73.55 80.925 73.4265 80.8068C73.303 80.6885 73.1558 80.5959 72.9849 80.5292C72.814 80.4626 72.6262 80.4292 72.4217 80.4292H71.4449V83.0719H72.4217C72.6262 83.0719 72.814 83.0379 72.9849 82.97C73.1558 82.902 73.303 82.8089 73.4265 82.6906C73.55 82.5723 73.6453 82.432 73.7127 82.2697C73.7801 82.1073 73.8137 81.9331 73.8137 81.7468ZM73.331 81.7544C73.331 81.8859 73.3092 82.0066 73.2655 82.1161C73.2219 82.2263 73.1602 82.3213 73.0815 82.4005C73.003 82.4804 72.9069 82.5421 72.7946 82.5868C72.6818 82.6308 72.557 82.6529 72.4192 82.6529H71.9014V80.8483H72.4192C72.557 80.8483 72.6818 80.8709 72.7946 80.9163C72.9069 80.9622 73.003 81.0251 73.0815 81.1063C73.1602 81.1867 73.2219 81.2824 73.2655 81.3925C73.3092 81.502 73.331 81.6228 73.331 81.7544ZM77.0837 80.4292H75.1452V83.0719H77.1025V82.6529H75.6018V81.9469H76.9153V81.5278H75.6018V80.8483H77.0837V80.4292ZM78.4264 83.0719H80.2601V82.6529H78.8829V80.4292H78.4264V83.0719ZM81.543 80.4292V83.0719H81.9995V80.4292H81.543ZM84.551 82.4603L83.7614 80.4292H83.2524L84.3414 83.0908H84.7456L85.8345 80.4292H85.3369L84.551 82.4603ZM88.996 80.4292H87.0576V83.0719H89.0148V82.6529H87.5141V81.9469H88.8276V81.5278H87.5141V80.8483H88.996V80.4292ZM92.5616 83.0719L91.8543 82.0715C91.9467 82.0463 92.0309 82.0104 92.107 81.9638C92.183 81.9173 92.2486 81.8607 92.3034 81.794C92.3583 81.7273 92.4013 81.6506 92.4325 81.5637C92.4637 81.4768 92.4792 81.3781 92.4792 81.2673C92.4792 81.139 92.4569 81.0225 92.412 80.9181C92.367 80.8136 92.3027 80.7256 92.2192 80.6538C92.1356 80.5821 92.0333 80.5267 91.9123 80.4877C91.7914 80.4487 91.656 80.4292 91.5063 80.4292H90.3387V83.0719H90.7952V82.1508H91.3735L92.0189 83.0719H92.5616ZM92.0115 81.2918C92.0115 81.4284 91.9629 81.5372 91.8649 81.6178C91.7676 81.6989 91.6361 81.7393 91.4708 81.7393H90.7952V80.8483H91.467C91.6398 80.8483 91.7739 80.8854 91.8687 80.9602C91.9641 81.0346 92.0115 81.1452 92.0115 81.2918ZM94.9596 82.0186L96 80.4292H95.4723L94.7314 81.5995L93.9979 80.4292H93.4552L94.4956 82.0299V83.0719H94.9596V82.0186Z" fill="black"/>
</g>
<rect x="1" y="1" width="110" height="110" rx="9" stroke="black" stroke-opacity="0.1" stroke-width="2"/>
<defs>
<clipPath id="clip0_766_102">
<rect x="2" y="2" width="108" height="108" rx="8" fill="white"/>
</clipPath>
</defs>
</svg>
