<svg width="112" height="112" viewBox="0 0 112 112" fill="none" xmlns="http://www.w3.org/2000/svg">
<g clip-path="url(#clip0_766_101)">
<rect x="2" y="2" width="108" height="108" rx="8" fill="white"/>
<path fill-rule="evenodd" clip-rule="evenodd" d="M34.2338 47H29.0788L25.7114 61.7524H17.8446L16 65.3478H30.1172L34.2338 47ZM85.0385 58.7188C83.8821 59.3296 83.0596 60.4535 82.8397 61.7442C82.8397 61.7524 82.8397 61.7565 82.8397 61.7646C82.6606 62.8111 82.8356 63.7395 83.3243 64.3543C83.8129 64.9895 84.6069 65.3153 85.7755 65.3153C86.6225 65.3153 87.5061 65.0832 87.9825 64.9122L88.5892 61.1579H86.3945L86.1827 62.4161H87.1315L86.8912 63.9105C86.765 63.9756 86.3497 64.0123 86.0158 64.0123C85.1037 64.0123 84.4929 63.5033 84.3585 62.6075C84.3504 62.5545 84.3463 62.4975 84.3463 62.4405C84.3504 60.8118 85.2584 60.1236 85.2584 60.1236C85.3154 60.0666 85.3724 60.0096 85.4376 59.9608C85.4376 59.9608 85.9506 59.4355 87.1925 59.3826C87.5387 59.3663 87.9377 59.3866 88.3978 59.4681C88.5526 59.4966 88.7113 59.5251 88.8783 59.5658L89.1267 58.2994C89.1267 58.2994 88.9923 58.2628 88.7602 58.218H88.7358C88.0354 58.0918 86.4881 57.9533 85.0345 58.7188H85.0385ZM68.519 59.35C68.8447 59.35 69.1216 59.3948 69.3537 59.4599L69.655 58.1325C69.3863 58.0755 69.0564 58.0388 68.6778 58.0388C66.6092 58.0388 64.7158 59.3703 64.3005 61.7646C63.9503 63.7639 64.9031 65.2827 67.2607 65.2827C67.6516 65.2827 68.0018 65.246 68.3031 65.189L68.5393 63.9675L68.5597 63.8698C68.295 63.9227 68.0018 63.9593 67.729 63.9593C66.54 63.9593 65.8926 63.2997 65.8926 62.2166C65.8926 62.0456 65.9089 61.8623 65.9415 61.6669C66.2143 60.1073 67.2974 59.3459 68.523 59.3459L68.519 59.35ZM94.2939 61.6954C94.0577 63.0798 93.2841 64.1181 92.2417 64.1181C91.1993 64.1181 90.7554 63.1368 90.9916 61.7402C91.2278 60.3557 92.0136 59.3174 93.052 59.3174C94.0903 59.3174 94.5097 60.4168 94.2898 61.6954H94.2939ZM93.3166 58.0388C95.4055 58.0388 96.2687 59.6757 95.9308 61.6424C95.5317 63.9797 93.9356 65.3967 91.9444 65.3967C89.9533 65.3967 89.0167 63.8005 89.3629 61.7687C89.7293 59.635 91.3051 58.0348 93.3166 58.0348V58.0388ZM80.5839 60.2906C80.474 60.9136 79.9283 61.3167 79.1343 61.3167H78.5072L78.8574 59.35C78.9755 59.3296 79.2035 59.297 79.5904 59.297C80.3233 59.3093 80.702 59.635 80.588 60.2906H80.5839ZM79.6229 58.104C78.7719 58.104 77.9983 58.1691 77.4689 58.2506L76.2189 65.2827H77.8028L78.2996 62.4812H78.7801C79.4275 62.4935 79.6881 62.7337 79.7207 63.6214C79.7736 64.4968 79.8388 65.071 79.9161 65.2827H81.553C81.4675 65.0058 81.4105 64.0774 81.3331 63.2753C81.272 62.6197 81.0847 62.1433 80.6287 61.9438V61.9112C81.2802 61.6872 82.0335 61.0642 82.1923 60.1562C82.3104 59.5006 82.1679 59.0039 81.8095 58.6659C81.3779 58.2628 80.6735 58.104 79.6229 58.104ZM71.98 62.2491L72.6682 60.7385C72.8555 60.3272 73.0591 59.7857 73.2383 59.3622H73.2586C73.2871 59.7857 73.3197 60.315 73.3686 60.7385L73.5396 62.2491H71.976H71.98ZM74.582 58.1569L75.5063 65.2827H73.7839L73.564 63.4544H71.5362L70.7056 65.2827H69.0442L72.4809 58.1569H74.582ZM41.2619 62.3672C39.7797 62.3672 38.2609 61.3859 38.2609 60.2132C38.2609 59.4233 39.0305 58.3076 40.6837 57.367L44.1448 61.4633C44.1448 61.4633 42.74 62.3672 41.2619 62.3672ZM48.86 61.4836L52.0727 65.3478H47.2475L46.2458 64.2525C44.8981 65.0424 42.2473 65.4456 41.0542 65.4456C37.2063 65.4456 33.9203 63.886 33.9203 60.5593C33.9203 57.2326 38.3057 54.476 38.3057 54.476C35.602 51.7193 36.6322 48.3071 36.6322 48.3071L36.9661 47H48.6971C48.6971 47 47.5611 49.04 45.9282 51.9229C46.6204 49.8259 44.7148 49.3658 43.9289 49.3658C41.95 49.3658 41.0827 51.137 41.0827 51.8659C41.0827 52.5947 41.3515 53.173 41.6976 53.7878C42.0437 54.4027 45.0243 57.3466 45.4111 57.6154C45.7939 57.8841 46.1237 58.2506 46.3924 58.2872C47.219 56.8621 47.1213 55.2292 47.1213 55.2292C47.1213 55.2292 47.2353 55.3066 50.7941 56.3816C50.7941 58.8043 48.8518 61.4796 48.8518 61.4796L48.86 61.4836ZM63.9585 50.5995H69.2478L67.8837 51.9636H61.9592L58.5551 65.4456H53.5345L56.8612 51.9636H48.803L51.4375 47H72.8433L71.6909 48.1523H66.3812L65.689 48.9219H70.9214L70.0174 49.8259H64.6507L63.9585 50.5955V50.5995Z" fill="#008037"/>
</g>
<rect x="1" y="1" width="110" height="110" rx="9" stroke="black" stroke-opacity="0.1" stroke-width="2"/>
<defs>
<clipPath id="clip0_766_101">
<rect x="2" y="2" width="108" height="108" rx="8" fill="white"/>
</clipPath>
</defs>
</svg>
