<svg width="112" height="112" viewBox="0 0 112 112" fill="none" xmlns="http://www.w3.org/2000/svg">
<g clip-path="url(#clip0_755_305)">
<rect x="2" y="2" width="108" height="108" rx="8" fill="white"/>
<path fill-rule="evenodd" clip-rule="evenodd" d="M46.6349 51.6011H53.4799L50.1114 63.6722H54.8489L58.2174 51.6011H63.7446L65.017 50.164H60.5408L61.1315 49.4937H65.6191L66.2553 48.7779H61.6598L62.2506 47.8293H67.0961L67.8345 46.9999H48.7424L46.6349 51.6011Z" fill="#ED3237"/>
<path fill-rule="evenodd" clip-rule="evenodd" d="M28.9572 63.8369H16L17.9882 60.6218L25.441 60.6672L28.8322 47.1249H33.1551L29.6957 60.6672L28.9572 63.8369Z" fill="#ED3237"/>
<path fill-rule="evenodd" clip-rule="evenodd" d="M49.0945 63.6665H44.891L44.1695 62.8656C42.1643 64.0641 39.7672 64.672 37.3814 64.3198C34.4445 63.7404 32.6779 61.9567 32.9278 59.0426C33.3198 57.009 34.2116 55.3105 35.5295 53.9017C34.0583 50.9536 34.5979 48.9313 35.5409 47.0965H45.7033L44.0048 50.9706C42.6869 48.3121 38.5175 48.9824 38.6822 52.5384L43.6583 58.0428C44.0843 57.5202 44.5161 56.3273 44.9421 54.9754L48.0664 56.5318C47.5949 57.9633 47.0552 59.3891 46.3168 60.582L46.3281 60.5934L49.0945 63.6665ZM41.6872 60.0992L37.8358 56.0944C33.8367 58.9915 37.8926 63.7176 41.6872 60.0992Z" fill="#ED3237"/>
<path fill-rule="evenodd" clip-rule="evenodd" d="M65.5055 57.3555C65.5055 57.3782 65.5055 57.4123 65.4998 57.4634C65.4941 57.5089 65.4884 57.5657 65.4771 57.6281C65.4657 57.6849 65.4544 57.7474 65.4373 57.8156C65.4203 57.8838 65.4032 57.9406 65.3748 57.9974C65.3521 58.0485 65.3237 58.0939 65.2896 58.1337C65.2555 58.1678 65.2158 58.1848 65.176 58.1848H62.9095L62.5971 59.7356H64.5228C64.5682 59.7356 64.6023 59.7526 64.6193 59.7811C64.642 59.8151 64.6534 59.8606 64.6534 59.9174C64.6534 59.9458 64.6477 59.9799 64.6477 60.0253C64.642 60.0708 64.6307 60.1276 64.6193 60.19C64.6136 60.2469 64.6023 60.3093 64.5852 60.3718C64.5682 60.4343 64.5455 60.4911 64.5228 60.5422C64.5 60.5934 64.466 60.6388 64.4375 60.6729C64.4035 60.7013 64.3694 60.7183 64.3296 60.7183H62.4039L62.0461 62.5077H64.341C64.3807 62.5077 64.4148 62.5247 64.4319 62.5645C64.4489 62.5929 64.4603 62.644 64.4603 62.7122C64.4603 62.7349 64.4603 62.769 64.4546 62.8201C64.4546 62.8712 64.4432 62.928 64.4319 62.9848C64.4205 63.0473 64.4091 63.1098 64.3921 63.1723C64.3751 63.2348 64.358 63.2916 64.3296 63.3484C64.3069 63.3995 64.2785 63.445 64.2444 63.4791C64.2103 63.5075 64.1762 63.5245 64.1365 63.5245H60.9384C60.8872 63.5245 60.8418 63.5188 60.7964 63.5018C60.7509 63.4904 60.7168 63.462 60.6941 63.4279C60.6657 63.3938 60.643 63.3541 60.6373 63.303C60.6259 63.2518 60.6259 63.1893 60.6373 63.1155L61.745 57.577C61.7734 57.435 61.8359 57.3271 61.9268 57.2646C62.012 57.2021 62.1142 57.168 62.2222 57.168H65.3805C65.4657 57.168 65.5055 57.2305 65.5055 57.3555ZM69.1353 60.2469L70.1124 63.0246C70.1464 63.1439 70.1692 63.2348 70.1748 63.3086C70.1805 63.3768 70.1578 63.4336 70.1124 63.4677C70.0669 63.5075 69.9931 63.5302 69.8908 63.5415C69.7829 63.5529 69.6409 63.5529 69.4534 63.5529C69.3171 63.5529 69.2148 63.5529 69.1353 63.5472C69.0558 63.5415 68.999 63.5302 68.9535 63.5131C68.9081 63.4961 68.8797 63.4791 68.8627 63.4506C68.8399 63.4279 68.8286 63.3938 68.8115 63.3541L68.039 61.0421L66.4087 63.3541C66.3803 63.3938 66.3519 63.4279 66.3178 63.4506C66.2894 63.4791 66.2439 63.4961 66.1871 63.5131C66.1303 63.5302 66.0508 63.5415 65.9599 63.5472C65.8633 63.5529 65.7441 63.5529 65.5964 63.5529C65.426 63.5529 65.2896 63.5529 65.1931 63.5415C65.0965 63.5302 65.0283 63.5075 64.9999 63.4734C64.9715 63.4393 64.9715 63.3825 65.0056 63.3143C65.034 63.2462 65.0908 63.1553 65.176 63.0417L67.2664 60.2412L66.3803 57.6565C66.3462 57.5429 66.3235 57.452 66.3178 57.3782C66.3121 57.31 66.3348 57.2589 66.3803 57.2248C66.42 57.1851 66.4939 57.1623 66.6018 57.1567C66.7041 57.1453 66.8518 57.1396 67.0335 57.1396C67.1699 57.1396 67.2835 57.1453 67.363 57.151C67.4425 57.1567 67.505 57.168 67.5505 57.1851C67.5959 57.2021 67.63 57.2248 67.647 57.2532C67.6697 57.2816 67.6868 57.3214 67.6982 57.3668L68.3741 59.4402L69.8624 57.3384C69.8851 57.3044 69.9135 57.2703 69.9476 57.2419C69.976 57.2191 70.0158 57.1964 70.0669 57.1794C70.1237 57.168 70.1919 57.1567 70.2771 57.151C70.3623 57.1453 70.4759 57.1396 70.6179 57.1396C70.7997 57.1396 70.9417 57.1453 71.044 57.1567C71.1462 57.1623 71.2087 57.1851 71.2428 57.2248C71.2712 57.2589 71.2712 57.31 71.2428 57.3782C71.2144 57.452 71.1576 57.5429 71.078 57.6565L69.1353 60.2469ZM76.2757 58.7302C76.2757 58.9119 76.253 59.1051 76.2132 59.3039C76.1734 59.5027 76.1053 59.7015 76.0144 59.889C75.9235 60.0821 75.8042 60.2639 75.6565 60.4343C75.5088 60.6047 75.3327 60.7581 75.1226 60.8944C74.9124 61.0251 74.6624 61.133 74.3841 61.2069C74.1057 61.2864 73.782 61.3205 73.407 61.3205H72.7424L72.3334 63.3541C72.3278 63.3882 72.3107 63.4166 72.288 63.445C72.2596 63.4677 72.2198 63.4904 72.163 63.5075C72.1062 63.5245 72.038 63.5359 71.9528 63.5415C71.8676 63.5529 71.7597 63.5529 71.6404 63.5529C71.5154 63.5529 71.4189 63.5529 71.3337 63.5415C71.2541 63.5359 71.1917 63.5245 71.1462 63.5075C71.1008 63.4904 71.0724 63.4677 71.0553 63.445C71.0383 63.4222 71.0326 63.3882 71.044 63.3541L72.1914 57.6338C72.2198 57.4804 72.2823 57.3612 72.3846 57.2873C72.4811 57.2078 72.6004 57.168 72.7424 57.168H74.1341C74.3046 57.168 74.4579 57.1737 74.5886 57.1851C74.7249 57.1964 74.8556 57.2191 74.9862 57.2419C75.185 57.2816 75.3668 57.3441 75.5259 57.4236C75.6849 57.5089 75.8156 57.6111 75.9292 57.7304C76.0428 57.8554 76.128 57.9974 76.1848 58.1678C76.2416 58.3325 76.2757 58.52 76.2757 58.7302ZM74.9181 58.8722C74.9181 58.7188 74.8783 58.5825 74.8044 58.4632C74.7306 58.3496 74.6113 58.27 74.4579 58.2246C74.3841 58.2019 74.3102 58.1848 74.225 58.1792C74.1398 58.1678 74.0433 58.1678 73.941 58.1678H73.373L72.9412 60.3264H73.532C73.7195 60.3264 73.8785 60.3037 74.0092 60.2582C74.1455 60.2184 74.2591 60.156 74.3614 60.0878C74.4636 60.014 74.5488 59.9287 74.617 59.8322C74.6908 59.7299 74.7476 59.6277 74.7931 59.5197C74.8329 59.4118 74.8669 59.3039 74.884 59.1903C74.9067 59.0823 74.9181 58.9744 74.9181 58.8722ZM81.7062 58.5541C81.7062 58.7699 81.6778 58.9744 81.621 59.1789C81.5642 59.3891 81.4733 59.5822 81.3484 59.764C81.2234 59.9515 81.0587 60.1162 80.8655 60.2639C80.6667 60.4116 80.4225 60.5309 80.1384 60.6161C80.2975 60.6786 80.4281 60.8035 80.5361 60.9853C80.644 61.1728 80.7349 61.4227 80.803 61.7465L81.0473 63.036C81.0644 63.1098 81.0757 63.1723 81.0871 63.2291C81.0984 63.2859 81.1041 63.337 81.1041 63.3768C81.1041 63.4052 81.0928 63.4336 81.07 63.4563C81.0473 63.4791 81.0132 63.4961 80.9507 63.5131C80.8939 63.5302 80.8201 63.5415 80.7235 63.5472C80.627 63.5529 80.502 63.5529 80.3543 63.5529C80.218 63.5529 80.1043 63.5529 80.0248 63.5415C79.9453 63.5359 79.8771 63.5245 79.8317 63.5018C79.7862 63.4847 79.7578 63.462 79.7465 63.4336C79.7294 63.4052 79.7181 63.3711 79.7124 63.3314L79.4681 61.9226C79.4454 61.7579 79.4056 61.6158 79.3602 61.4909C79.3204 61.3659 79.258 61.2637 79.1898 61.1785C79.1216 61.0932 79.0364 61.0308 78.9398 60.991C78.8376 60.9512 78.7183 60.9285 78.5763 60.9285H78.1673L77.6845 63.3541C77.6845 63.3882 77.6674 63.4166 77.639 63.445C77.6106 63.4677 77.5708 63.4904 77.5197 63.5075C77.4629 63.5245 77.3948 63.5359 77.3095 63.5415C77.2243 63.5529 77.1164 63.5529 76.9914 63.5529C76.8665 63.5529 76.7699 63.5529 76.6904 63.5415C76.6052 63.5359 76.5427 63.5245 76.4972 63.5075C76.4518 63.4904 76.4234 63.4677 76.4063 63.445C76.3893 63.4222 76.3836 63.3882 76.395 63.3541L77.5538 57.577C77.5822 57.435 77.639 57.3271 77.7242 57.2646C77.8151 57.2021 77.923 57.168 78.0423 57.168H79.7465C80.0475 57.168 80.3145 57.1964 80.5588 57.2532C80.7974 57.31 81.0019 57.3952 81.1723 57.5089C81.3484 57.6225 81.479 57.7702 81.5699 57.9406C81.6608 58.1167 81.7062 58.3212 81.7062 58.5541ZM80.3202 58.7983C80.3202 58.7074 80.3032 58.6222 80.2691 58.5427C80.2407 58.4632 80.1896 58.395 80.1214 58.3325C80.0532 58.2757 79.9623 58.236 79.8544 58.2019C79.7408 58.1678 79.6101 58.1564 79.4568 58.1564H78.724L78.3604 59.9628H78.9796C79.2239 59.9628 79.4341 59.9287 79.6045 59.8606C79.7749 59.7867 79.9112 59.6958 80.0191 59.5822C80.1214 59.4743 80.2009 59.3493 80.2464 59.213C80.2975 59.0767 80.3202 58.9403 80.3202 58.7983ZM86.9664 57.3555C86.9664 57.3782 86.9664 57.4123 86.9607 57.4634C86.955 57.5089 86.9437 57.5657 86.938 57.6281C86.9266 57.6849 86.9153 57.7474 86.8982 57.8156C86.8812 57.8838 86.8585 57.9406 86.8357 57.9974C86.813 58.0485 86.7789 58.0939 86.7448 58.1337C86.7108 58.1678 86.6767 58.1848 86.6369 58.1848H84.3704L84.058 59.7356H85.9837C86.0291 59.7356 86.0632 59.7526 86.0802 59.7811C86.1029 59.8151 86.1086 59.8606 86.1086 59.9174C86.1086 59.9458 86.1086 59.9799 86.103 60.0253C86.0973 60.0708 86.0916 60.1276 86.0802 60.19C86.0745 60.2469 86.0575 60.3093 86.0405 60.3718C86.0234 60.4343 86.0064 60.4911 85.978 60.5422C85.9553 60.5934 85.9268 60.6388 85.8928 60.6729C85.8587 60.7013 85.8246 60.7183 85.7848 60.7183H83.8592L83.5013 62.5077H85.8019C85.8416 62.5077 85.87 62.5247 85.8871 62.5645C85.9098 62.5929 85.9212 62.644 85.9212 62.7122C85.9212 62.7349 85.9155 62.769 85.9155 62.8201C85.9098 62.8712 85.9041 62.928 85.8928 62.9848C85.8814 63.0473 85.87 63.1098 85.853 63.1723C85.836 63.2348 85.8132 63.2916 85.7905 63.3484C85.7678 63.3995 85.7394 63.445 85.7053 63.4791C85.6712 63.5075 85.6371 63.5245 85.5917 63.5245H82.3993C82.3481 63.5245 82.297 63.5188 82.2573 63.5018C82.2118 63.4904 82.1777 63.462 82.1493 63.4279C82.1209 63.3938 82.1039 63.3541 82.0925 63.303C82.0812 63.2518 82.0868 63.1893 82.0982 63.1155L83.2059 57.577C83.2343 57.435 83.2911 57.3271 83.382 57.2646C83.4729 57.2021 83.5751 57.168 83.6831 57.168H86.8357C86.9209 57.168 86.9664 57.2305 86.9664 57.3555ZM91.312 57.6565C91.312 57.6849 91.3063 57.7247 91.3006 57.7758C91.2949 57.8213 91.2892 57.8781 91.2779 57.9349C91.2722 57.9917 91.2552 58.0542 91.2438 58.1167C91.2268 58.1735 91.2097 58.2303 91.187 58.2814C91.1643 58.3325 91.1415 58.3723 91.1131 58.4064C91.0847 58.4405 91.0563 58.4575 91.0279 58.4575C90.9825 58.4575 90.9257 58.4348 90.8575 58.395C90.7894 58.3552 90.7041 58.3098 90.6019 58.2587C90.4996 58.2132 90.386 58.1678 90.2497 58.128C90.1191 58.0826 89.9657 58.0655 89.7953 58.0655C89.6192 58.0655 89.4715 58.0883 89.3465 58.1394C89.2272 58.1848 89.125 58.253 89.0454 58.3325C88.9659 58.4121 88.9091 58.5029 88.875 58.6052C88.8353 58.7018 88.8182 58.804 88.8182 58.9063C88.8182 59.0199 88.8466 59.1278 88.9034 59.2187C88.9659 59.3096 89.0398 59.3891 89.142 59.4686C89.2386 59.5425 89.3522 59.6163 89.4772 59.6902C89.6021 59.764 89.7328 59.8379 89.8634 59.9174C89.9884 59.9912 90.1191 60.0821 90.244 60.173C90.369 60.2696 90.4826 60.3718 90.5849 60.4968C90.6814 60.6218 90.7609 60.7581 90.8178 60.9171C90.8746 61.0762 90.9086 61.2637 90.9086 61.4682C90.9086 61.7749 90.8462 62.0589 90.7212 62.3259C90.5962 62.5872 90.4201 62.8144 90.1929 63.0133C89.96 63.2064 89.6873 63.3598 89.3635 63.4677C89.0398 63.5813 88.6819 63.6381 88.2899 63.6381C88.0741 63.6381 87.8809 63.6211 87.6992 63.5813C87.5231 63.5529 87.3583 63.5075 87.222 63.4563C87.0857 63.4109 86.9664 63.3598 86.8755 63.303C86.7789 63.2462 86.7051 63.195 86.6596 63.1496C86.6142 63.0985 86.5915 63.0246 86.5915 62.928C86.5915 62.8996 86.5971 62.8599 86.6028 62.8088C86.6085 62.7519 86.6199 62.6951 86.6312 62.6383C86.6426 62.5759 86.654 62.5134 86.671 62.4509C86.688 62.3884 86.7051 62.3259 86.7278 62.2748C86.7505 62.2237 86.7789 62.1782 86.8073 62.1441C86.8357 62.1157 86.8641 62.0987 86.8925 62.0987C86.9493 62.0987 87.0175 62.1214 87.0914 62.1725C87.1709 62.2237 87.2674 62.2805 87.3811 62.343C87.4947 62.3998 87.631 62.4622 87.7901 62.5134C87.9434 62.5645 88.1309 62.5929 88.3524 62.5929C88.5456 62.5929 88.716 62.5645 88.8637 62.519C89.0114 62.4679 89.1307 62.3998 89.2272 62.3146C89.3295 62.2293 89.4033 62.1328 89.4544 62.0192C89.5056 61.9112 89.5283 61.7863 89.5283 61.6556C89.5283 61.5306 89.4999 61.4227 89.4431 61.3375C89.3806 61.2409 89.3067 61.1614 89.2102 61.0819C89.1136 61.0024 89 60.9285 88.8807 60.8603C88.7557 60.7922 88.6308 60.724 88.5058 60.6445C88.3751 60.565 88.2502 60.4798 88.1309 60.3889C88.0059 60.298 87.898 60.19 87.8014 60.0651C87.7048 59.9401 87.6253 59.8038 87.5685 59.639C87.506 59.48 87.4776 59.2925 87.4776 59.0823C87.4776 58.787 87.5344 58.5143 87.6537 58.2644C87.773 58.0201 87.9377 57.8042 88.1422 57.6281C88.3524 57.4464 88.6024 57.31 88.8921 57.2078C89.1818 57.1112 89.5056 57.0601 89.8521 57.0601C90.0168 57.0601 90.1759 57.0715 90.3236 57.0942C90.4712 57.1226 90.6076 57.151 90.7269 57.1907C90.8462 57.2248 90.9541 57.2703 91.0393 57.3157C91.1245 57.3612 91.1813 57.4009 91.2154 57.4293C91.2495 57.4634 91.2722 57.4975 91.2892 57.5259C91.3006 57.5657 91.312 57.6054 91.312 57.6565ZM95.987 57.6565C95.987 57.6849 95.987 57.7247 95.9813 57.7758C95.9756 57.8213 95.97 57.8781 95.9586 57.9349C95.9472 57.9917 95.9359 58.0542 95.9188 58.1167C95.9075 58.1735 95.8848 58.2303 95.8677 58.2814C95.845 58.3325 95.8166 58.3723 95.7939 58.4064C95.7655 58.4405 95.7371 58.4575 95.7087 58.4575C95.6632 58.4575 95.6064 58.4348 95.5326 58.395C95.4644 58.3552 95.3792 58.3098 95.2826 58.2587C95.1804 58.2132 95.0668 58.1678 94.9304 58.128C94.7941 58.0826 94.6464 58.0655 94.476 58.0655C94.2999 58.0655 94.1465 58.0883 94.0272 58.1394C93.9023 58.1848 93.8057 58.253 93.7262 58.3325C93.6466 58.4121 93.5898 58.5029 93.5501 58.6052C93.516 58.7018 93.4933 58.804 93.4933 58.9063C93.4933 59.0199 93.5274 59.1278 93.5842 59.2187C93.641 59.3096 93.7205 59.3891 93.8227 59.4686C93.9193 59.5425 94.0329 59.6163 94.1579 59.6902C94.2829 59.764 94.4135 59.8379 94.5385 59.9174C94.6691 59.9912 94.7998 60.0821 94.9248 60.173C95.0497 60.2696 95.1633 60.3718 95.2599 60.4968C95.3622 60.6218 95.4417 60.7581 95.4985 60.9171C95.5553 61.0762 95.5894 61.2637 95.5894 61.4682C95.5894 61.7749 95.5269 62.0589 95.4019 62.3259C95.2769 62.5872 95.1008 62.8144 94.8736 63.0133C94.6407 63.2064 94.3681 63.3598 94.0443 63.4677C93.7205 63.5813 93.3626 63.6381 92.965 63.6381C92.7548 63.6381 92.5617 63.6211 92.3799 63.5813C92.1981 63.5529 92.0391 63.5075 91.9027 63.4563C91.7664 63.4109 91.6471 63.3598 91.5505 63.303C91.4596 63.2462 91.3858 63.195 91.3404 63.1496C91.2949 63.0985 91.2722 63.0246 91.2722 62.928C91.2722 62.8996 91.2779 62.8599 91.2836 62.8088C91.2892 62.7519 91.3006 62.6951 91.312 62.6383C91.3233 62.5759 91.3347 62.5134 91.3517 62.4509C91.3688 62.3884 91.3858 62.3259 91.4085 62.2748C91.4313 62.2237 91.4597 62.1782 91.4824 62.1441C91.5108 62.1157 91.5392 62.0987 91.5733 62.0987C91.6301 62.0987 91.6926 62.1214 91.7721 62.1725C91.8516 62.2237 91.9425 62.2805 92.0618 62.343C92.1754 62.3998 92.3117 62.4622 92.4708 62.5134C92.6242 62.5645 92.8116 62.5929 93.0331 62.5929C93.2263 62.5929 93.3967 62.5645 93.5444 62.519C93.6864 62.4679 93.8114 62.3998 93.9079 62.3146C94.0102 62.2293 94.084 62.1328 94.1295 62.0192C94.1863 61.9112 94.209 61.7863 94.209 61.6556C94.209 61.5306 94.1806 61.4227 94.1181 61.3375C94.0613 61.2409 93.9875 61.1614 93.8852 61.0819C93.7943 61.0024 93.6807 60.9285 93.5614 60.8603C93.4365 60.7922 93.3115 60.724 93.1808 60.6445C93.0559 60.565 92.9309 60.4798 92.8059 60.3889C92.6866 60.298 92.573 60.19 92.4821 60.0651C92.3799 59.9401 92.3061 59.8038 92.2492 59.639C92.1868 59.48 92.1584 59.2925 92.1584 59.0823C92.1584 58.787 92.2152 58.5143 92.3344 58.2644C92.4537 58.0201 92.6128 57.8042 92.823 57.6281C93.0331 57.4464 93.2831 57.31 93.5728 57.2078C93.8625 57.1112 94.1863 57.0601 94.5328 57.0601C94.6975 57.0601 94.8566 57.0715 95.0043 57.0942C95.152 57.1226 95.2826 57.151 95.4076 57.1907C95.5269 57.2248 95.6348 57.2703 95.72 57.3157C95.8052 57.3612 95.862 57.4009 95.8961 57.4293C95.9302 57.4634 95.9529 57.4975 95.97 57.5259C95.9813 57.5657 95.987 57.6054 95.987 57.6565Z" fill="#ED3237"/>
</g>
<rect x="1" y="1" width="110" height="110" rx="9" stroke="black" stroke-opacity="0.1" stroke-width="2"/>
<defs>
<clipPath id="clip0_755_305">
<rect x="2" y="2" width="108" height="108" rx="8" fill="white"/>
</clipPath>
</defs>
</svg>
