<svg width="112" height="112" viewBox="0 0 112 112" fill="none" xmlns="http://www.w3.org/2000/svg">
<g clip-path="url(#clip0_755_293)">
<rect x="2" y="2" width="108" height="108" rx="8" fill="white"/>
<path d="M39.3953 58.6417C40.1922 58.5291 40.9907 58.4212 41.7891 58.318L42.7062 53.8695C41.8924 54.0837 41.0801 54.3026 40.2693 54.5292L39.3953 58.6417ZM16 63.5726C18.5032 62.8281 21.0327 62.1499 23.6037 61.5456L23.9382 59.9719C23.7532 60.0459 23.5667 60.1183 23.3817 60.1923C20.8909 61.1896 18.3691 62.2485 16 63.5726ZM60.4724 51.3031L60.7575 49.9204C60.4477 49.9728 60.1379 50.0283 59.8281 50.0823L60.4724 51.3031ZM94.1503 47.4218C89.8175 47.4218 85.5 47.5143 81.1964 47.7347C78.1645 47.8904 75.1387 48.1093 72.1191 48.4068C71.3978 48.4777 70.6764 48.5532 69.9566 48.6334L68.3859 56.0228C69.1134 55.9843 69.8425 55.9488 70.57 55.9165C73.548 55.7824 76.5275 55.6976 79.5071 55.6822C80.1637 55.6791 80.8188 55.6775 81.4754 55.6822C83.5918 55.6945 89.6032 55.6822 94.3106 55.6729H94.3692L95.9985 47.4234H94.1503V47.4218ZM50.8756 57.3068C52.0718 57.1927 53.2694 57.0848 54.4671 56.9847L51.9469 52.2695L50.8772 57.3068H50.8756Z" fill="#EC2C25"/>
<path d="M22.776 69.2434H24.5825L24.7043 68.374H22.9024L23.0765 67.1841H24.9386L25.0603 66.3163H22.4816L21.7494 71.5262H24.47L24.5917 70.6568H22.5694L22.776 69.2434Z" fill="#313B97"/>
<path d="M29.088 66.3163H28.1786L27.6314 67.2226C27.5004 67.443 27.3385 67.7251 27.1458 68.0704C27.135 68.0303 27.1243 67.9995 27.115 67.9764C26.9701 67.5401 26.8915 67.3058 26.8792 67.2704L26.5354 66.3147H25.7771L26.6526 68.9074L25.1112 71.5262H26.0453L26.5185 70.7447C26.7713 70.3224 26.9285 70.0434 26.9886 69.9093C27.0333 70.0834 27.1273 70.3686 27.2661 70.7694L27.5343 71.5262H28.345L27.4865 69.0553L29.0865 66.3147L29.088 66.3163Z" fill="#313B97"/>
<path d="M31.619 66.4488C31.4725 66.3594 31.2737 66.3147 31.0224 66.3147H29.609L28.8768 71.5247H29.5951L29.8726 69.5501H30.3304C30.6386 69.5501 30.8498 69.5378 30.9623 69.5147C31.155 69.4746 31.3091 69.416 31.4232 69.339C31.5373 69.2619 31.6436 69.1478 31.7423 68.9983C31.8409 68.8488 31.9242 68.6484 31.992 68.3987C32.0598 68.149 32.0937 67.8916 32.0937 67.628C32.0937 67.3428 32.0506 67.0978 31.9658 66.8912C31.881 66.6862 31.7654 66.5382 31.619 66.4488ZM31.2644 68.2353C31.192 68.391 31.0934 68.5051 30.967 68.576C30.8406 68.6469 30.5909 68.6823 30.2148 68.6823H29.9959L30.207 67.1841H30.7157C30.9469 67.1841 31.0949 67.2026 31.1627 67.2396C31.229 67.2766 31.2814 67.3351 31.3184 67.4153C31.3554 67.4954 31.3739 67.5987 31.3739 67.7236C31.3739 67.9101 31.3384 68.0812 31.266 68.2369L31.2644 68.2353Z" fill="#313B97"/>
<path d="M35.0454 66.438C34.8959 66.3563 34.6878 66.3147 34.4196 66.3147H32.8613L32.1291 71.5246H32.8474L33.1511 69.3682H33.447C33.6181 69.3682 33.7383 69.4021 33.8077 69.4715C33.9202 69.5871 34.025 69.8137 34.1252 70.1497C34.3086 70.7724 34.4304 71.2318 34.4936 71.5246H35.2628C35.0655 70.7802 34.8867 70.2052 34.7264 69.7967C34.6447 69.5948 34.5584 69.433 34.4674 69.3097C34.8281 69.2403 35.0978 69.063 35.2766 68.7748C35.4554 68.4866 35.5448 68.1212 35.5448 67.6789C35.5448 67.369 35.4986 67.1039 35.4077 66.8866C35.3167 66.6692 35.195 66.5197 35.047 66.4365L35.0454 66.438ZM34.7325 68.1582C34.6601 68.3047 34.5599 68.4126 34.4304 68.4819C34.3025 68.5513 34.042 68.5852 33.6489 68.5852H33.2621L33.4594 67.1841H34.264C34.4782 67.1841 34.6185 67.2118 34.6832 67.2689C34.788 67.3644 34.8404 67.5062 34.8404 67.6958C34.8404 67.8577 34.8034 68.0118 34.731 68.1582L34.7325 68.1582Z" fill="#313B97"/>
<path d="M35.8085 71.5262H38.5275L38.6508 70.6568H36.6285L36.8351 69.2434H38.6416L38.7633 68.374H36.9614L37.1356 67.1841H38.9976L39.1194 66.3163H36.5406L35.8085 71.5262Z" fill="#313B97"/>
<path d="M40.8242 67.0716C41.0292 67.0716 41.1833 67.1378 41.2881 67.2704C41.3714 67.3768 41.4269 67.5216 41.4546 67.702H42.1498C42.1159 67.2689 41.9956 66.9174 41.7845 66.6492C41.5579 66.361 41.2388 66.2176 40.8273 66.2176C40.4157 66.2176 40.1121 66.3625 39.8978 66.6523C39.6835 66.9421 39.5772 67.3074 39.5772 67.7482C39.5772 68.001 39.6126 68.2199 39.6851 68.4079C39.7575 68.596 39.8562 68.7486 39.9826 68.8657C40.109 68.9829 40.3094 69.1309 40.5837 69.3066C40.8581 69.4823 41.0261 69.6102 41.0862 69.6888C41.1386 69.7536 41.1741 69.8291 41.1941 69.9108C41.208 69.9648 41.2172 70.0203 41.2172 70.0819C41.2172 70.2607 41.1633 70.4133 41.0585 70.5382C40.9521 70.6646 40.7795 70.7278 40.5421 70.7278C40.2554 70.7278 40.0597 70.6353 39.9533 70.4488C39.8963 70.3501 39.8593 70.1698 39.8454 69.9108H39.1564C39.1564 70.2314 39.1965 70.5181 39.2812 70.7694C39.3722 71.0376 39.5279 71.2472 39.7483 71.3983C39.9687 71.5493 40.2307 71.6248 40.5313 71.6248C40.9675 71.6248 41.3082 71.4615 41.5533 71.1347C41.7983 70.8079 41.9201 70.4148 41.9201 69.9524C41.9201 69.9386 41.9186 69.9262 41.917 69.9124C41.9109 69.5594 41.8307 69.2665 41.672 69.0368C41.561 68.875 41.3036 68.6654 40.8982 68.4064C40.6284 68.2338 40.4558 68.0966 40.3772 67.9964C40.2986 67.8993 40.26 67.7744 40.26 67.6249C40.26 67.4662 40.3032 67.3336 40.3895 67.2288C40.4758 67.124 40.6207 67.0716 40.8211 67.0716H40.8242ZM44.9289 69.0353C44.8179 68.8734 44.5605 68.6638 44.1551 68.4049C43.8854 68.2322 43.7128 68.095 43.6341 67.9949C43.5694 67.9147 43.534 67.8161 43.5216 67.702C43.5185 67.6773 43.517 67.6511 43.517 67.6249C43.517 67.4662 43.5602 67.3336 43.6465 67.2288C43.7328 67.124 43.8761 67.0716 44.0781 67.0716C44.28 67.0716 44.4372 67.1378 44.542 67.2704C44.6253 67.3768 44.6808 67.5216 44.7085 67.702H45.4037C45.3698 67.2689 45.2495 66.9174 45.0384 66.6492C44.8118 66.361 44.4942 66.2176 44.0812 66.2176C43.6681 66.2176 43.3659 66.3625 43.1517 66.6523C42.9451 66.9328 42.8388 67.2827 42.8326 67.702C42.8326 67.7174 42.8326 67.7328 42.8326 67.7482C42.8326 68.001 42.8681 68.2199 42.9405 68.4079C43.013 68.596 43.1116 68.7486 43.238 68.8657C43.3644 68.9829 43.5648 69.1309 43.8392 69.3066C44.1135 69.4823 44.2815 69.6102 44.3416 69.6888C44.3941 69.7536 44.4295 69.8291 44.4495 69.9108C44.4634 69.9648 44.4711 70.0203 44.4711 70.0819C44.4711 70.2607 44.4172 70.4133 44.3124 70.5382C44.206 70.6646 44.0334 70.7278 43.796 70.7278C43.5093 70.7278 43.3135 70.6353 43.2072 70.4488C43.1502 70.3501 43.1132 70.1698 43.0993 69.9108H42.4103C42.4103 70.2314 42.4504 70.5181 42.5351 70.7694C42.6261 71.0376 42.7818 71.2472 43.0022 71.3983C43.2226 71.5493 43.4846 71.6248 43.7852 71.6248C44.2214 71.6248 44.5621 71.4615 44.8072 71.1347C45.0522 70.8079 45.174 70.4148 45.174 69.9524C45.174 69.9386 45.1725 69.9262 45.1709 69.9124C45.1648 69.5594 45.0846 69.2665 44.9258 69.0368L44.9289 69.0353Z" fill="#313B97"/>
<path d="M71.8217 66.3163L71.3284 69.8029L70.3727 66.3163H69.7022L68.9701 71.5262H69.6406L70.1369 68.0241L71.0895 71.5262H71.76L72.4922 66.3163H71.8217Z" fill="#313B97"/>
<path d="M74.3449 66.3163L72.375 71.5262H73.1226L73.5449 70.3778H74.9322L75.0462 71.5262H75.7275L75.1634 66.3163H74.3449ZM73.864 69.51L74.6362 67.4091L74.8443 69.51H73.8624H73.864Z" fill="#313B97"/>
<path d="M79.0446 66.3163H76.2963L76.1838 67.1841H77.2088L76.5984 71.5262H77.3167L77.9271 67.1841H78.9321L79.0446 66.3163Z" fill="#313B97"/>
<path d="M79.0601 71.5262H79.7783L80.5105 66.3163H79.7922L79.0601 71.5262Z" fill="#313B97"/>
<path d="M82.7748 66.2176C82.4527 66.2176 82.166 66.3163 81.9132 66.512C81.6604 66.7078 81.4523 66.9744 81.2858 67.312C81.1194 67.6496 80.9976 68.0473 80.9159 68.5066C80.8542 68.8488 80.8234 69.174 80.8234 69.4823C80.8234 69.8152 80.8697 70.1451 80.9621 70.4719C81.0546 70.7987 81.2103 71.073 81.4307 71.2934C81.6511 71.5139 81.924 71.6248 82.2492 71.6248C82.6238 71.6248 82.9598 71.4861 83.2557 71.2087C83.5532 70.9312 83.7875 70.5335 83.9602 70.0187C84.1328 69.5039 84.2191 68.969 84.2191 68.4187C84.2191 67.7559 84.0865 67.2242 83.8199 66.8218C83.5548 66.4211 83.2064 66.2192 82.7748 66.2192V66.2176ZM83.339 69.5702C83.2218 69.9586 83.0723 70.2499 82.892 70.4411C82.7116 70.6322 82.5236 70.7278 82.3278 70.7278C82.0874 70.7278 81.8947 70.606 81.7467 70.364C81.5987 70.122 81.5263 69.8199 81.5263 69.4607C81.5263 68.8765 81.6373 68.3386 81.8592 67.8484C82.0812 67.3583 82.3694 67.1132 82.7224 67.1132C82.9536 67.1132 83.1432 67.2303 83.2912 67.4646C83.4407 67.6989 83.5147 68.0211 83.5147 68.4326C83.5147 68.801 83.4561 69.1802 83.339 69.5686V69.5702Z" fill="#313B97"/>
<path d="M86.7593 69.8029L85.8037 66.3163H85.1347L84.4025 71.5262H85.073L85.5678 68.0241L86.5219 71.5262H87.1925L87.9246 66.3163H87.2541L86.7593 69.8029Z" fill="#313B97"/>
<path d="M90.5388 69.0368C90.4279 68.875 90.1704 68.6654 89.7651 68.4064C89.4953 68.2338 89.3227 68.0966 89.2441 67.9964C89.1793 67.9162 89.1439 67.8176 89.1315 67.7035C89.1285 67.6789 89.1269 67.6527 89.1269 67.6265C89.1269 67.4677 89.1701 67.3351 89.2564 67.2303C89.3427 67.1255 89.4861 67.0731 89.688 67.0731C89.8899 67.0731 90.0471 67.1394 90.1535 67.2719C90.2367 67.3783 90.2922 67.5232 90.32 67.7035H91.0151C90.9812 67.2704 90.861 66.919 90.6498 66.6508C90.4232 66.3625 90.1042 66.2192 89.6926 66.2192C89.2811 66.2192 88.9774 66.3641 88.7631 66.6538C88.5566 66.9344 88.4502 67.2843 88.4441 67.7035C88.4441 67.7189 88.4441 67.7344 88.4441 67.7498C88.4441 68.0026 88.4811 68.2214 88.5535 68.4095C88.626 68.5975 88.7246 68.7501 88.851 68.8673C88.9774 68.9844 89.1778 69.1324 89.4521 69.3081C89.7265 69.4838 89.8945 69.6118 89.9562 69.6904C90.0086 69.7551 90.044 69.8307 90.0641 69.9123C90.0779 69.9663 90.0857 70.0218 90.0857 70.0834C90.0857 70.2622 90.0332 70.4148 89.9269 70.5397C89.8205 70.6661 89.6479 70.7293 89.4105 70.7293C89.1238 70.7293 88.9281 70.6368 88.8217 70.4503C88.7647 70.3516 88.7277 70.1713 88.7138 69.9123H88.0248C88.0248 70.233 88.0649 70.5197 88.1497 70.7709C88.2406 71.0391 88.3963 71.2487 88.6167 71.3998C88.8371 71.5509 89.0976 71.6264 89.3997 71.6264C89.836 71.6264 90.1766 71.463 90.4217 71.1362C90.6668 70.8094 90.7885 70.4164 90.7885 69.954C90.7885 69.9401 90.787 69.9278 90.7855 69.9139C90.7793 69.5609 90.6991 69.268 90.5404 69.0384L90.5388 69.0368Z" fill="#313B97"/>
<path d="M48.4415 66.3163L46.4716 71.5262H47.2191L47.6415 70.3779H49.0272L49.1413 71.5262H49.8226L49.2584 66.3163H48.4399H48.4415ZM47.9606 69.5101L48.7328 67.4091L48.9409 69.5101H47.959H47.9606Z" fill="#313B97"/>
<path d="M52.4413 70.458C52.2857 70.6368 52.1146 70.7262 51.9281 70.7262C51.7277 70.7262 51.5597 70.6122 51.424 70.384C51.2899 70.1559 51.2221 69.8322 51.2221 69.413C51.2221 69.0291 51.2745 68.6453 51.3778 68.2615C51.4811 67.8777 51.6198 67.5941 51.794 67.4138C51.9681 67.2334 52.1546 67.1425 52.3535 67.1425C52.5354 67.1425 52.6818 67.2103 52.7912 67.3475C52.8806 67.46 52.9454 67.6311 52.987 67.8561H53.6914C53.6452 67.3598 53.5095 66.9637 53.2845 66.6723C53.0502 66.3687 52.745 66.2176 52.3658 66.2176C52.0283 66.2176 51.7169 66.3487 51.4302 66.6092C51.1435 66.8712 50.92 67.2473 50.7581 67.7405C50.5963 68.2338 50.5161 68.7764 50.5161 69.3713C50.5161 70.1035 50.6364 70.6615 50.8768 71.0468C51.1173 71.4322 51.4518 71.6249 51.8787 71.6249C52.2579 71.6249 52.5893 71.4707 52.8714 71.1624C53.1535 70.8542 53.3662 70.4087 53.508 69.826L53.4325 69.8091H52.7481C52.6726 70.0865 52.5708 70.307 52.4383 70.4596L52.4413 70.458Z" fill="#313B97"/>
<path d="M56.7049 66.4381C56.5554 66.3564 56.3473 66.3147 56.0791 66.3147H54.5207L53.7886 71.5247H54.5069L54.809 69.3683H55.1049C55.276 69.3683 55.3963 69.4022 55.4656 69.4715C55.5781 69.5871 55.683 69.8137 55.7831 70.1497C55.965 70.7725 56.0883 71.2318 56.1515 71.5247H56.9207C56.7234 70.7802 56.5446 70.2052 56.3843 69.7968C56.3041 69.5948 56.2178 69.433 56.1253 69.3097C56.486 69.2403 56.7542 69.0631 56.933 68.7748C57.1118 68.4866 57.2012 68.1213 57.2012 67.6789C57.2012 67.3691 57.1565 67.1039 57.064 66.8866C56.9716 66.6693 56.8513 66.5198 56.7018 66.4365L56.7049 66.4381ZM56.392 68.1583C56.3195 68.3047 56.2194 68.4126 56.0914 68.482C55.9635 68.5513 55.703 68.5852 55.3099 68.5852H54.923L55.1203 67.1841H55.9249C56.1407 67.1841 56.2795 67.2118 56.3442 67.2689C56.449 67.3644 56.5014 67.5062 56.5014 67.6958C56.5014 67.8577 56.4644 68.0118 56.392 68.1583Z" fill="#313B97"/>
<path d="M59.4794 66.2176C59.1573 66.2176 58.8706 66.3163 58.6178 66.512C58.365 66.7078 58.1569 66.9745 57.9904 67.312C57.824 67.6496 57.7006 68.0473 57.6205 68.5066C57.5588 68.8488 57.528 69.174 57.528 69.4823C57.528 69.8153 57.5742 70.1451 57.6652 70.4719C57.7577 70.7987 57.9134 71.073 58.1338 71.2935C58.3542 71.5139 58.627 71.6249 58.9523 71.6249C59.3268 71.6249 59.6613 71.4861 59.9588 71.2087C60.2547 70.9312 60.4906 70.5336 60.6632 70.0187C60.8358 69.5039 60.9222 68.969 60.9222 68.4188C60.9222 67.756 60.7896 67.2242 60.5229 66.8219C60.2578 66.4211 59.9095 66.2192 59.4779 66.2192L59.4794 66.2176ZM60.0436 69.5702C59.9264 69.9586 59.7769 70.2499 59.5966 70.4411C59.4162 70.6322 59.2282 70.7278 59.0339 70.7278C58.7935 70.7278 58.6008 70.606 58.4528 70.364C58.3064 70.122 58.2324 69.8199 58.2324 69.4607C58.2324 68.8766 58.3434 68.3386 58.5654 67.8484C58.7873 67.3583 59.074 67.1132 59.4285 67.1132C59.6598 67.1132 59.8493 67.2303 59.9973 67.4646C60.1468 67.6989 60.2208 68.0211 60.2208 68.4326C60.2208 68.801 60.1622 69.1802 60.0436 69.5686V69.5702Z" fill="#313B97"/>
<path d="M62.8689 67.0716C63.0739 67.0716 63.2281 67.1379 63.3329 67.2704C63.4161 67.3768 63.4716 67.5217 63.4994 67.702H64.1945C64.1606 67.2689 64.0404 66.9174 63.8292 66.6492C63.6026 66.361 63.2851 66.2176 62.872 66.2176C62.4589 66.2176 62.1568 66.3625 61.9426 66.6523C61.736 66.9328 61.6297 67.2827 61.6235 67.702C61.6235 67.7174 61.6235 67.7328 61.6235 67.7482C61.6235 68.001 61.6589 68.2199 61.7314 68.408C61.8038 68.596 61.9025 68.7486 62.0289 68.8658C62.1553 68.9829 62.3557 69.1309 62.63 69.3066C62.9044 69.4823 63.0724 69.6103 63.1325 69.6889C63.1849 69.7536 63.2204 69.8291 63.2404 69.9108C63.2543 69.9648 63.262 70.0203 63.262 70.0819C63.262 70.2607 63.208 70.4133 63.1032 70.5382C62.9969 70.6646 62.8242 70.7278 62.5869 70.7278C62.3002 70.7278 62.1044 70.6353 61.9981 70.4488C61.941 70.3501 61.9056 70.1698 61.8902 69.9108H61.2011C61.2011 70.2314 61.2412 70.5181 61.326 70.7694C61.4169 71.0376 61.5726 71.2472 61.793 71.3983C62.0135 71.5493 62.2755 71.6249 62.5761 71.6249C63.0123 71.6249 63.3529 71.4615 63.598 71.1347C63.8431 70.8079 63.9649 70.4149 63.9649 69.9524C63.9649 69.9386 63.9633 69.9262 63.9618 69.9124C63.9556 69.5594 63.8755 69.2665 63.7167 69.0369C63.6057 68.875 63.3483 68.6654 62.9429 68.4064C62.6747 68.2338 62.5005 68.0966 62.4219 67.9964C62.3572 67.9163 62.3202 67.8176 62.3094 67.7035C62.3063 67.6789 62.3048 67.6527 62.3048 67.6265C62.3048 67.4677 62.3479 67.3352 62.4343 67.2303C62.5206 67.1255 62.6655 67.0731 62.8659 67.0731L62.8689 67.0716ZM66.9737 69.0353C66.8627 68.8735 66.6053 68.6638 66.1999 68.4049C65.9301 68.2322 65.7575 68.0951 65.6789 67.9949C65.6142 67.9147 65.5787 67.8161 65.5664 67.702C65.5633 67.6773 65.5618 67.6511 65.5618 67.6249C65.5618 67.4662 65.6049 67.3336 65.6912 67.2288C65.7776 67.124 65.9209 67.0716 66.1228 67.0716C66.3247 67.0716 66.482 67.1379 66.5868 67.2704C66.67 67.3768 66.7255 67.5217 66.7533 67.702H67.4484C67.4145 67.2689 67.2943 66.9174 67.0831 66.6492C66.8565 66.361 66.539 66.2176 66.1259 66.2176C65.7128 66.2176 65.4107 66.3625 65.1964 66.6523C64.9899 66.9328 64.8835 67.2827 64.8774 67.702C64.8774 67.7174 64.8774 67.7328 64.8774 67.7482C64.8774 68.001 64.9144 68.2199 64.9868 68.408C65.0593 68.596 65.1579 68.7486 65.2843 68.8658C65.4107 68.9829 65.6111 69.1309 65.8855 69.3066C66.1598 69.4823 66.3278 69.6103 66.3895 69.6889C66.4419 69.7536 66.4773 69.8291 66.4974 69.9108C66.5113 69.9648 66.519 70.0203 66.519 70.0819C66.519 70.2607 66.4666 70.4133 66.3602 70.5382C66.2538 70.6646 66.0812 70.7278 65.8438 70.7278C65.5571 70.7278 65.3614 70.6353 65.255 70.4488C65.198 70.3501 65.161 70.1698 65.1471 69.9108H64.4581C64.4581 70.2314 64.4982 70.5181 64.583 70.7694C64.6739 71.0376 64.8296 71.2472 65.05 71.3983C65.2704 71.5493 65.5309 71.6249 65.833 71.6249C66.2693 71.6249 66.6114 71.4615 66.855 71.1347C67.1001 70.8079 67.2218 70.4149 67.2218 69.9524C67.2218 69.9386 67.2203 69.9262 67.2188 69.9124C67.2126 69.5594 67.1324 69.2665 66.9737 69.0369V69.0353Z" fill="#313B97"/>
<path d="M79.5071 55.6822C76.5275 55.6976 73.548 55.7824 70.57 55.9165L68.9917 63.5726H87.2603L88.498 57.5719H79.1063L79.5086 55.6822H79.5071ZM34.3133 40.1896C34.3303 40.1094 34.3426 40.0447 34.3519 40C34.3426 40.0462 34.3287 40.1094 34.3133 40.1896ZM34.3704 40C34.3704 40 34.3673 40.0108 34.3642 40.0324C34.3611 40.0462 34.358 40.0632 34.3534 40.0832C34.3442 40.1279 34.3303 40.1927 34.3149 40.2728C34.2871 40.41 34.2486 40.5965 34.2008 40.8231C33.7446 43.0366 32.4791 49.1729 31.844 52.2479C31.8101 52.4113 31.7777 52.5655 31.7484 52.7104C31.75 52.7011 31.7515 52.6934 31.7546 52.6842C31.7515 52.698 31.7484 52.7119 31.7454 52.7258C31.7454 52.7304 31.7438 52.7335 31.7423 52.7381C31.6976 52.9554 31.6575 53.1527 31.622 53.3208C31.6159 53.3531 31.6082 53.384 31.602 53.4148C31.5958 53.4471 31.5881 53.4795 31.582 53.5103C31.5696 53.5689 31.5589 53.6244 31.5481 53.6737C31.5465 53.683 31.545 53.6922 31.5419 53.7015C31.5265 53.7724 31.5142 53.834 31.5034 53.8849C31.4849 53.9743 31.4741 54.0298 31.4695 54.0468C31.2043 55.3338 30.8282 56.2078 29.461 56.5376H24.6642L23.2091 63.3845L23.1844 63.5032H23.206L23.1891 63.5895H28.7689V63.571H32.4637C32.5191 63.5633 32.5746 63.5556 32.6286 63.5479C36.3696 62.9576 38.5059 61.0478 39.3044 59.0594L43.3567 40H34.3704ZM82.8396 40.0015L73.8532 40L72.1191 48.4068C75.1387 48.1093 78.1645 47.8904 81.1964 47.7347L81.5571 46.0407H90.8764L92.1218 40H82.8396V40.0015ZM71.7908 40.0015H62.8045L60.4739 51.3046L54.5102 40H45.5671L42.7062 53.8695L41.7891 58.318L40.7055 63.5726H49.5454L50.8772 57.3068L51.9469 52.2695L54.4671 56.9847L57.9553 63.5094L57.9892 63.5726H66.7813L68.3859 56.0228L69.9566 48.6334L71.7908 40V40.0015Z" fill="#313B97"/>
</g>
<rect x="1" y="1" width="110" height="110" rx="9" stroke="black" stroke-opacity="0.1" stroke-width="2"/>
<defs>
<clipPath id="clip0_755_293">
<rect x="2" y="2" width="108" height="108" rx="8" fill="white"/>
</clipPath>
</defs>
</svg>
