<svg width="112" height="112" viewBox="0 0 112 112" fill="none" xmlns="http://www.w3.org/2000/svg">
<g clip-path="url(#clip0_755_301)">
<rect x="2" y="2" width="108" height="108" rx="8" fill="white"/>
<path fill-rule="evenodd" clip-rule="evenodd" d="M68.6676 62.9996L73.7019 39H92.5064L91.2489 45.0009H81.8436L81.2148 48.0004H89.214L87.9584 54.0013H79.9572L79.3284 57.0007H88.7337L87.4762 62.9996H68.6676Z" fill="#1E3378"/>
<path fill-rule="evenodd" clip-rule="evenodd" d="M16 62.9996C32.7248 55.0004 55.359 49.901 76.003 48.0004C81.5807 47.4876 87.1075 47.2006 94.7994 47.2006C95.0985 47.2006 95.5991 47.1009 96 47.0012L94.4474 54.4021C94.3639 54.801 93.6985 55.0024 93.2 55.0024C46.0351 55.0004 17.8009 63.0016 17.8009 63.0016H16V62.9996Z" fill="#E11B22"/>
<path fill-rule="evenodd" clip-rule="evenodd" d="M41.3263 62.9996L46.3587 39H55.361L60.7128 49.901L62.998 39H71.9984L66.9661 62.9996H57.9677L52.6974 51.6998L50.3287 62.9996H41.3263Z" fill="#1E3378"/>
<path fill-rule="evenodd" clip-rule="evenodd" d="M32.7247 53.0001L35.6591 39H44.6594L41.137 55.8001C40.0463 60.9993 35.9989 62.9996 30.6288 62.9996H23.9991L25.509 55.8001H28.5105C30.7102 55.8001 32.3056 55.0004 32.7247 53.0001Z" fill="#1E3378"/>
<path d="M61.5817 70.9683L61.771 69.6944H63.7713L63.9524 68.3473H61.9541L62.0905 67.336H64.1579L64.339 65.9889H61.1259L60.2753 72.3154H63.639L63.8242 70.9683H61.5817Z" fill="#1E3378"/>
<path d="M68.6591 65.9889H67.2632L66.6039 67.1426C66.5041 67.3197 66.3882 67.5293 66.2579 67.7735C66.1562 67.4458 66.0992 67.2668 66.089 67.2301L65.6719 65.9909H64.4774L65.4867 69.0982L63.6756 72.3174H65.1001L65.682 71.2999C65.8163 71.0619 65.9262 70.8645 66.0117 70.7037C66.0605 70.8706 66.1216 71.068 66.1948 71.2959L66.5225 72.3174H67.7861L66.7829 69.3302L68.6571 65.9909L68.6591 65.9889Z" fill="#1E3378"/>
<path d="M71.8742 67.6636C71.8742 67.3176 71.8213 67.0124 71.7195 66.756C71.6117 66.4874 71.457 66.29 71.2658 66.1679C71.0765 66.0499 70.8221 65.9889 70.5108 65.9889H68.7893L67.9346 72.3154H69.0803L69.3875 70.0363H69.7436C70.1018 70.0363 70.3419 70.022 70.4803 69.9915C70.7163 69.9406 70.9096 69.8633 71.0541 69.7616C71.1986 69.6598 71.3329 69.5133 71.455 69.3241C71.5751 69.1368 71.6727 68.8967 71.7541 68.5895C71.8335 68.2903 71.8722 67.979 71.8722 67.6636M69.7518 67.3197H70.1689C70.5006 67.3197 70.5739 67.3563 70.582 67.3604C70.6248 67.3848 70.6573 67.4235 70.6817 67.4804C70.7123 67.5496 70.7285 67.6453 70.7285 67.7653C70.7285 67.9546 70.6919 68.1296 70.6227 68.2842C70.5556 68.4307 70.4721 68.5325 70.3623 68.5976C70.2992 68.6342 70.116 68.6973 69.6093 68.6973H69.5646L69.7518 67.3197Z" fill="#1E3378"/>
<path d="M74.9082 70.0973C74.8512 69.9508 74.7922 69.8206 74.7312 69.7087C75.0629 69.5927 75.3213 69.381 75.5024 69.0778C75.714 68.7217 75.8219 68.27 75.8219 67.7307C75.8219 67.3543 75.7669 67.0267 75.6591 66.756C75.5431 66.4691 75.3844 66.2676 75.187 66.1537C74.9937 66.0438 74.7413 65.9909 74.4117 65.9909H72.5457L71.691 72.3174H72.8367L73.1704 69.843H73.3413C73.5286 69.843 73.5916 69.8877 73.6079 69.906C73.6791 69.9834 73.791 70.1685 73.9152 70.6142C74.1126 71.3203 74.2469 71.8473 74.314 72.179L74.3425 72.3194H75.5614L75.5065 72.1017C75.2887 71.245 75.0873 70.5735 74.9082 70.0994M73.5041 67.338H74.2265C74.5012 67.338 74.5623 67.3889 74.5623 67.3889C74.6396 67.4642 74.6803 67.5863 74.6803 67.7531C74.6803 67.9118 74.6457 68.0645 74.5786 68.2089C74.5155 68.3453 74.432 68.4409 74.3222 68.502C74.2591 68.5386 74.0759 68.5976 73.5591 68.5976H73.3373L73.5062 67.34L73.5041 67.338Z" fill="#1E3378"/>
<path d="M79.2692 69.6944L79.4503 68.3473H77.452L77.5883 67.336H79.6558L79.8369 65.9889H76.6238L75.7712 72.3154H79.1369L79.3221 70.9683H77.0776L77.2688 69.6944H79.2692Z" fill="#1E3378"/>
<path d="M81.6661 67.2098C81.835 67.2098 81.951 67.2607 82.0324 67.3685C82.126 67.4927 82.181 67.6819 82.1993 67.9322L82.2115 68.1072L83.3164 68.0299L83.3083 67.861C83.2818 67.281 83.1333 66.8069 82.8626 66.4508C82.5818 66.0784 82.181 65.8892 81.6722 65.8892C81.1635 65.8892 80.7769 66.0804 80.5083 66.4589C80.2539 66.8191 80.1237 67.2729 80.1237 67.8121C80.1237 68.1194 80.1664 68.3941 80.2519 68.6261C80.3394 68.8642 80.4635 69.0616 80.6181 69.2142C80.7647 69.3566 80.9865 69.5296 81.2978 69.7392C81.6661 69.9874 81.7719 70.0933 81.8065 70.138C81.8778 70.2296 81.9123 70.3415 81.9123 70.4799C81.9123 70.6447 81.8676 70.779 81.778 70.893C81.6966 70.9947 81.5562 71.0435 81.3507 71.0435C81.0231 71.0435 80.9152 70.9133 80.8603 70.8156C80.8277 70.7566 80.7708 70.5898 80.7586 70.1401L80.7524 69.9569L79.6556 70.0444V70.2031C79.6455 70.6203 79.6963 70.9947 79.8001 71.3203C79.912 71.6622 80.1074 71.9348 80.3801 72.1282C80.6527 72.3215 80.9763 72.4191 81.3426 72.4191C81.8798 72.4191 82.3071 72.2055 82.6083 71.7863C82.8972 71.3834 83.0458 70.895 83.0458 70.3334C83.0458 69.8735 82.944 69.4889 82.7467 69.1898C82.6103 68.9842 82.3173 68.7319 81.8493 68.4185C81.5033 68.1866 81.3711 68.0563 81.3182 67.9871C81.2551 67.9057 81.2245 67.802 81.2245 67.6697C81.2245 67.5272 81.2591 67.4133 81.3283 67.3238C81.3873 67.2485 81.4993 67.2118 81.662 67.2118" fill="#1E3378"/>
<path d="M85.5711 68.4165C85.2252 68.1845 85.0929 68.0543 85.04 67.9851C84.977 67.9037 84.9464 67.7999 84.9464 67.6677C84.9464 67.5252 84.981 67.4113 85.0502 67.3217C85.1092 67.2464 85.2211 67.2098 85.3839 67.2098C85.5467 67.2098 85.6688 67.2607 85.7502 67.3685C85.8438 67.4926 85.8988 67.6819 85.915 67.9322L85.9273 68.1072L87.0302 68.0299L87.022 67.861C86.9956 67.281 86.845 66.8069 86.5784 66.4508C86.2976 66.0784 85.8967 65.8891 85.388 65.8891C84.8793 65.8891 84.4926 66.0804 84.224 66.461C83.9676 66.8211 83.8394 67.2749 83.8394 67.8121C83.8394 68.1194 83.8822 68.3941 83.9697 68.6261C84.0572 68.8642 84.1813 69.0616 84.336 69.2142C84.4825 69.3566 84.7043 69.5296 85.0156 69.7392C85.3839 69.9874 85.4918 70.0933 85.5243 70.138C85.5956 70.2296 85.6302 70.3415 85.6302 70.4799C85.6302 70.6447 85.5854 70.779 85.4958 70.893C85.4145 70.9947 85.2741 71.0435 85.0685 71.0435C84.7409 71.0435 84.6331 70.9133 84.5781 70.8156C84.5456 70.7566 84.4886 70.5898 84.4764 70.1401L84.4703 69.9569L83.3755 70.0444V70.2031C83.3653 70.6203 83.4162 70.9947 83.522 71.3203C83.6339 71.6622 83.8272 71.9348 84.0999 72.1281C84.3726 72.3215 84.6961 72.4191 85.0624 72.4191C85.5996 72.4191 86.0249 72.2055 86.3281 71.7863C86.6171 71.3834 86.7656 70.895 86.7656 70.3334C86.7656 69.8735 86.6639 69.4889 86.4665 69.1898C86.3302 68.9842 86.0371 68.7319 85.5711 68.4185" fill="#1E3378"/>
</g>
<rect x="1" y="1" width="110" height="110" rx="9" stroke="black" stroke-opacity="0.1" stroke-width="2"/>
<defs>
<clipPath id="clip0_755_301">
<rect x="2" y="2" width="108" height="108" rx="8" fill="white"/>
</clipPath>
</defs>
</svg>
