<svg width="112" height="112" viewBox="0 0 112 112" fill="none" xmlns="http://www.w3.org/2000/svg">
<g clip-path="url(#clip0_755_298)">
<rect x="2" y="2" width="108" height="108" rx="8" fill="white"/>
<path d="M32.9205 58.0987H37.7719L36.6592 56.2697L32.9205 58.0987ZM35.752 54.7813L30.7098 46.495L40.4845 37H32.7634C32.1579 36.9997 31.5763 37.2363 31.1429 37.6591L24.2952 44.3512L25.0643 37H18.0904L16.0074 56.8407C15.973 57.1622 16.0772 57.4837 16.301 57.7237C16.5249 57.9637 16.8258 58.1009 17.1495 58.1009H22.8478L23.3219 53.6459L25.4247 51.6077L29.1238 57.4558C29.2483 57.6526 29.4206 57.8147 29.6246 57.927C29.8287 58.0393 30.0578 58.0981 30.2908 58.098H32.9197L34.246 55.4536L35.752 54.7813Z" fill="#2D2A70"/>
<path d="M39.9564 58.0987L49.4023 52.3563L50.6045 57.2327C50.7292 57.7428 51.1872 58.1009 51.7127 58.1009H57.8265L55.0962 48.8899L65.4962 42.5633L65.5402 42.1376L32.9289 58.0951L39.9564 58.0987ZM54.1186 45.5894L51.5689 37H45.5615C44.9465 37.0002 44.3437 37.1714 43.8204 37.4943C43.297 37.8173 42.8738 38.2794 42.5979 38.829L34.0114 55.9167L65.6034 41.5042L65.6525 41.0198L54.1186 45.5894ZM43.9637 49.6092L46.0701 45.1519L46.6257 43.9204C46.6918 43.7736 46.8445 43.6855 47.0045 43.7002C47.1645 43.7149 47.298 43.8286 47.3377 43.9842L48.3006 47.891L43.9637 49.6092Z" fill="#ED6B23"/>
<path d="M61.7865 37C60.9671 37.0006 60.1769 37.3045 59.5681 37.853C58.9594 38.4016 58.5752 39.156 58.4897 39.971L58.064 44.0268L65.6544 41.0206L66.0684 37H61.7865ZM56.5887 58.0987H63.8915L65.4915 42.5655L57.7205 47.2943L56.5887 58.0987ZM56.7906 71.3802H51.0511L52.0603 62.4261H53.7983L52.9763 69.7193H56.9704L56.7906 71.3802ZM59.6603 69.5725C59.9367 69.8842 60.2939 70.04 60.7319 70.04C61.1703 70.04 61.5585 69.8842 61.8966 69.5725C62.2391 69.2608 62.4439 68.8268 62.5109 68.2705C62.5736 67.7141 62.4667 67.2801 62.1902 66.9684C61.9221 66.6568 61.5688 66.5009 61.1304 66.5009C60.692 66.5009 60.2993 66.6568 59.9524 66.9684C59.6138 67.2801 59.4132 67.7141 59.3506 68.2705C59.2879 68.8268 59.3907 69.2608 59.6588 69.5725H59.6603ZM58.853 65.9072C59.5468 65.2838 60.3615 64.9721 61.297 64.9721C62.2325 64.9721 62.9726 65.2838 63.5172 65.9072C64.0701 66.5305 64.2932 67.3183 64.1865 68.2705C64.0789 69.2226 63.6784 70.0104 62.9851 70.6338C62.3 71.2571 61.4898 71.5688 60.5542 71.5688C59.6187 71.5688 58.8742 71.2571 58.3208 70.6338C57.7758 70.0104 57.5568 69.2226 57.664 68.2705C57.7716 67.3183 58.1679 66.5305 58.853 65.9072ZM64.453 71.7215L66.0163 71.3178C66.0358 71.6632 66.1643 71.9456 66.4016 72.1648C66.6379 72.384 66.9501 72.4936 67.3381 72.4936C68.4419 72.4936 69.0589 71.9162 69.1891 70.7615L69.2405 70.3064C69.0717 70.5339 68.8312 70.7235 68.519 70.8752C68.2068 71.022 67.8399 71.0954 67.4181 71.0954C66.5922 71.0954 65.9333 70.8092 65.4416 70.2367C64.9582 69.6642 64.7654 68.9437 64.8632 68.0752C64.9582 67.2327 65.3129 66.5163 65.9274 65.9262C66.5415 65.3361 67.2657 65.0411 68.0999 65.0411C68.555 65.0411 68.9219 65.1253 69.2008 65.2936C69.4861 65.4536 69.6745 65.6493 69.766 65.8807L69.8482 65.1468H71.4658L70.8419 70.6954C70.7367 71.6309 70.3796 72.4065 69.7704 73.022C69.1607 73.6454 68.3081 73.9571 67.2126 73.9571C66.3955 73.9571 65.7334 73.7379 65.2265 73.2994C64.7274 72.861 64.4669 72.3302 64.4449 71.7068L64.453 71.7215ZM67.8702 69.6613C68.2998 69.6613 68.6656 69.5179 68.9674 69.2312C69.2777 68.9445 69.4599 68.5611 69.5142 68.0811C69.5632 67.6094 69.4653 67.2302 69.2207 66.9435C68.975 66.6568 68.6457 66.5134 68.2328 66.5134C67.8032 66.5134 67.4289 66.6568 67.1098 66.9435C66.7996 67.2302 66.6178 67.6094 66.5645 68.0811C66.5156 68.5616 66.6115 68.945 66.8522 69.2312C67.0979 69.5179 67.4399 69.6613 67.8783 69.6613H67.8702Z" fill="#2D2A70"/>
<path d="M73.9373 71.3802H72.2566L72.9567 65.1615H74.6375L73.9373 71.3802ZM72.9832 63.1262C73.0155 62.8395 73.1441 62.5949 73.3692 62.3923C73.5953 62.1819 73.8514 62.0767 74.1377 62.0767C74.4244 62.0767 74.6573 62.1777 74.8364 62.3798C75.0159 62.5819 75.0893 62.8305 75.0566 63.1255C75.0252 63.4034 74.897 63.6437 74.672 63.8462C74.4469 64.0483 74.1912 64.1494 73.905 64.1494C73.6183 64.1494 73.3854 64.0483 73.2063 63.8462C73.0267 63.6442 72.9526 63.4039 72.9839 63.1255L72.9832 63.1262Z" fill="#2D2A70"/>
<path d="M75.1681 69.6488L76.6448 69.3332C76.6311 69.6023 76.7108 69.8299 76.8841 70.0158C77.0666 70.1929 77.3308 70.2815 77.6767 70.2815C77.938 70.2815 78.1469 70.2228 78.3035 70.1053C78.4601 69.9879 78.5481 69.8404 78.5677 69.6628C78.603 69.3511 78.4023 69.1488 77.9659 69.0558L77.1586 68.8664C76.591 68.7402 76.1785 68.5127 75.9211 68.1839C75.6765 67.8551 75.5774 67.4631 75.6239 67.0081C75.6875 66.4434 75.9608 65.9632 76.4437 65.5674C76.9349 65.1759 77.5135 64.9802 78.1795 64.9802C78.6003 64.9802 78.9638 65.0433 79.2701 65.1696C79.5769 65.287 79.8078 65.4428 79.963 65.6371C80.1195 65.823 80.233 66.0126 80.3035 66.2059C80.3745 66.3997 80.4121 66.5893 80.4165 66.7747L78.978 67.0903C78.9692 66.8711 78.8899 66.6773 78.7402 66.509C78.5993 66.3407 78.3686 66.2565 78.0481 66.2565C77.8289 66.2565 77.6327 66.3152 77.4595 66.4327C77.2946 66.5501 77.2021 66.6976 77.182 66.8752C77.1478 67.1786 77.319 67.3641 77.6958 67.4316L78.5589 67.6209C79.1431 67.7472 79.572 67.9789 79.8455 68.316C80.1278 68.6585 80.2423 69.0629 80.189 69.5292C80.1264 70.0855 79.8617 70.5658 79.3949 70.9699C78.9281 71.3746 78.3116 71.5769 77.5453 71.5769C77.1069 71.5769 76.7221 71.5138 76.3908 71.3875C76.0606 71.2525 75.8098 71.0812 75.6385 70.8738C75.4771 70.6634 75.3548 70.4569 75.2716 70.2543C75.2031 70.0439 75.1669 69.8416 75.163 69.6474L75.1681 69.6488ZM84.0855 63.3031L83.8764 65.1615H85.1277L84.9589 66.6529H83.7061L83.4125 69.2569C83.3831 69.5182 83.4213 69.7036 83.527 69.8132C83.6327 69.9228 83.812 69.9776 84.065 69.9776C84.2925 69.9776 84.4672 69.9605 84.589 69.9263L84.4327 71.3163C84.1768 71.4176 83.8551 71.4683 83.4675 71.4683C82.8608 71.4683 82.3994 71.297 82.0833 70.9545C81.7682 70.6091 81.6444 70.1369 81.7119 69.538L82.0378 66.6433H80.9127L81.0815 65.1519H81.3971C81.7088 65.1519 81.9546 65.0634 82.1347 64.8863C82.3241 64.7003 82.4354 64.4601 82.4686 64.1655L82.567 63.2936L84.0855 63.3031Z" fill="#2D2A70"/>
<path d="M87.3073 71.3802H85.6265L86.3267 65.1615H88.0074L87.3073 71.3802ZM86.3531 63.1262C86.3854 62.8395 86.5141 62.5949 86.7392 62.3923C86.9652 62.1819 87.2214 62.0767 87.5076 62.0767C87.7944 62.0767 88.0273 62.1777 88.2064 62.3798C88.3859 62.5819 88.4593 62.8305 88.4265 63.1255C88.3952 63.4034 88.267 63.6437 88.0419 63.8462C87.8169 64.0483 87.5612 64.1494 87.275 64.1494C86.9883 64.1494 86.7553 64.0483 86.5763 63.8462C86.3967 63.6442 86.3226 63.4039 86.3539 63.1255L86.3531 63.1262Z" fill="#2D2A70"/>
<path d="M95.6038 65.1615L92.8192 67.778L94.955 71.3802H92.8948L91.5194 69.0037L90.7414 69.7376L90.5564 71.3817H88.8757L89.9062 62.2294H91.5869L90.9961 67.4749L93.4056 65.1615H95.6038Z" fill="#2D2A70"/>
</g>
<rect x="1" y="1" width="110" height="110" rx="9" stroke="black" stroke-opacity="0.1" stroke-width="2"/>
<defs>
<clipPath id="clip0_755_298">
<rect x="2" y="2" width="108" height="108" rx="8" fill="white"/>
</clipPath>
</defs>
</svg>
