<svg width="112" height="112" viewBox="0 0 112 112" fill="none" xmlns="http://www.w3.org/2000/svg">
<g clip-path="url(#clip0_755_294)">
<rect x="2" y="2" width="108" height="108" rx="8" fill="white"/>
<path fill-rule="evenodd" clip-rule="evenodd" d="M38.0824 45.0164C38.0954 45.0085 38.1107 45.0052 38.1258 45.007C38.1409 45.0089 38.1549 45.0159 38.1656 45.0268C38.1908 45.0532 38.1896 45.0948 38.1632 45.12C37.1955 46.0709 34.9009 48.2871 33.6197 49.2772C33.4425 49.4148 32.2385 52.9086 31.2955 54.9988C30.4958 56.7719 29.2453 57.81 25.999 59.5823C23.7545 60.8055 22.2689 65.4126 20.1607 67.1429C20.1479 67.1531 20.1321 67.1588 20.1157 67.159C20.0993 67.1591 20.0833 67.1539 20.0703 67.1439C20.0572 67.134 20.0479 67.12 20.0437 67.1042C20.0395 67.0884 20.0407 67.0716 20.0471 67.0565L24.7262 56.5367C24.2368 56.4915 22.9387 55.3319 21.4843 53.8787C21.4804 53.8745 21.4775 53.8693 21.4761 53.8637C21.4747 53.8581 21.4748 53.8523 21.4763 53.8467C21.4788 53.8383 21.4846 53.8312 21.4923 53.827C21.5 53.8228 21.5091 53.8218 21.5175 53.8243L28.0477 55.9657C28.0501 55.9661 28.0529 55.9657 28.0549 55.9645C28.0597 55.9617 28.0617 55.9557 28.0589 55.9509L27.6138 55.1991C27.5792 55.141 27.5248 55.0972 27.4606 55.0759L20.4418 52.7746C20.4023 52.7614 20.3665 52.739 20.3375 52.709C20.1015 52.4643 19.868 52.2192 19.6365 51.974C19.6335 51.9711 19.6316 51.9673 19.6312 51.9631C19.6307 51.959 19.6317 51.9549 19.634 51.9514C19.6362 51.9479 19.6396 51.9453 19.6436 51.944C19.6475 51.9428 19.6518 51.9429 19.6557 51.9444L27.1115 54.3901C27.1135 54.3909 27.1157 54.391 27.1178 54.3905C27.1199 54.39 27.1217 54.3889 27.1231 54.3872C27.1245 54.3856 27.1254 54.3836 27.1256 54.3815C27.1258 54.3793 27.1254 54.3772 27.1243 54.3753L26.6697 53.5996C26.6443 53.5569 26.604 53.5252 26.5565 53.5108L18.7735 50.9583C18.693 50.9319 18.6206 50.8854 18.5632 50.8232C18.3598 50.6032 18.1574 50.3825 17.9557 50.1609C17.9525 50.158 17.9503 50.154 17.9494 50.1497C17.9486 50.1454 17.9491 50.1409 17.9509 50.1369C17.9557 50.1257 17.9685 50.121 17.9793 50.1257L26.1698 52.8146C26.1712 52.8152 26.1728 52.8154 26.1743 52.8153C26.1758 52.8151 26.1773 52.8146 26.1786 52.8138C26.1809 52.8124 26.1826 52.8101 26.1832 52.8075C26.1839 52.8049 26.1835 52.8021 26.1822 52.7998L25.7279 52.0264C25.7025 51.9827 25.6622 51.9496 25.6144 51.9332L17.2184 49.1796L17.0732 49.1296C17.0224 49.1122 16.977 49.0821 16.9412 49.0421C16.6337 48.7013 16.3282 48.3587 16.0247 48.0144C16.0192 48.0079 16.0154 48.0001 16.0137 47.9918C16.012 47.9835 16.0125 47.9749 16.0151 47.9668C16.0171 47.9607 16.0203 47.955 16.0244 47.9502C16.0286 47.9453 16.0337 47.9414 16.0395 47.9385C16.0452 47.9356 16.0514 47.9339 16.0578 47.9335C16.0642 47.9331 16.0706 47.9339 16.0767 47.936C17.5171 48.4106 27.6534 51.7565 28.448 52.0104C28.448 52.0104 27.1395 48.0915 33.0906 48.0915C33.2786 48.0915 36.7316 45.8842 38.0824 45.0164ZM77.544 52.0876C79.8133 52.0876 81.0718 53.5336 81.0718 55.4146C81.0718 58.1519 79.2543 60.0717 76.6418 60.0717C74.3701 60.0717 73.1136 58.6257 73.1136 56.7447C73.1136 53.9958 74.9311 52.0876 77.544 52.0876ZM95.8475 52.2455C95.8649 52.2452 95.8821 52.2487 95.8979 52.256C95.9136 52.2633 95.9275 52.2741 95.9385 52.2876C95.9494 52.301 95.9571 52.3168 95.9611 52.3337C95.965 52.3506 95.965 52.3682 95.9611 52.3851L95.7592 53.5048C95.7553 53.5321 95.7417 53.5571 95.7208 53.5751C95.6999 53.5931 95.6732 53.6029 95.6456 53.6028H92.0002C91.9729 53.6037 91.9466 53.6141 91.926 53.632C91.9053 53.65 91.8914 53.6745 91.8867 53.7015L91.6132 55.2531C91.6091 55.2703 91.6091 55.2882 91.6132 55.3054C91.6172 55.3226 91.6252 55.3387 91.6366 55.3522C91.6479 55.3658 91.6622 55.3766 91.6784 55.3837C91.6946 55.3907 91.7123 55.394 91.7299 55.393H95.041C95.0583 55.3927 95.0755 55.3963 95.0913 55.4035C95.1071 55.4108 95.1209 55.4216 95.1319 55.4351C95.1428 55.4485 95.1506 55.4643 95.1545 55.4812C95.1584 55.4981 95.1584 55.5157 95.1545 55.5326L94.9562 56.6503C94.9522 56.6776 94.9385 56.7026 94.9176 56.7206C94.8966 56.7386 94.8699 56.7485 94.8422 56.7483H91.4436C91.4162 56.7492 91.39 56.7596 91.3693 56.7775C91.3486 56.7955 91.3348 56.8201 91.33 56.847L91.0597 58.4122C91.0559 58.4291 91.0561 58.4466 91.0601 58.4634C91.0641 58.4803 91.0719 58.496 91.0829 58.5093C91.0939 58.5227 91.1077 58.5334 91.1235 58.5406C91.1392 58.5478 91.1564 58.5514 91.1737 58.5509H94.841C94.8584 58.5504 94.8757 58.5539 94.8916 58.5611C94.9074 58.5684 94.9214 58.5791 94.9324 58.5926C94.9434 58.6061 94.9512 58.622 94.9551 58.6389C94.959 58.6559 94.959 58.6736 94.955 58.6905L94.7527 59.8262C94.7488 59.8535 94.7351 59.8785 94.7143 59.8965C94.6934 59.9145 94.6667 59.9243 94.6391 59.9242H89.1934C89.176 59.9246 89.1587 59.9211 89.1429 59.9138C89.1271 59.9065 89.1131 59.8957 89.1021 59.8822C89.0912 59.8687 89.0834 59.8528 89.0796 59.8358C89.0757 59.8188 89.0758 59.8011 89.0799 59.7842L90.3955 52.3431C90.3993 52.3158 90.4129 52.2908 90.4338 52.2729C90.4548 52.2549 90.4815 52.2452 90.5091 52.2455H95.8475ZM83.805 52.2431C83.8638 52.2431 83.9129 52.2879 83.9185 52.3467L84.6887 58.1839C84.6855 58.1991 84.6853 58.2149 84.6884 58.2302C84.6914 58.2456 84.6975 58.2601 84.7064 58.273C84.7152 58.2859 84.7266 58.2968 84.7398 58.3052C84.753 58.3135 84.7677 58.3191 84.7831 58.3216C84.7986 58.3241 84.8143 58.3234 84.8295 58.3196C84.8446 58.3157 84.8588 58.3089 84.8713 58.2994C84.8837 58.2899 84.894 58.278 84.9017 58.2644C84.9094 58.2508 84.9142 58.2358 84.9159 58.2202L87.803 52.3139C87.8128 52.2938 87.8279 52.2769 87.8468 52.2649C87.8657 52.253 87.8875 52.2466 87.9098 52.2463H89.5082C89.5293 52.2447 89.5505 52.249 89.5693 52.2587C89.5882 52.2685 89.6039 52.2833 89.6148 52.3015C89.6257 52.3197 89.6313 52.3405 89.6309 52.3617C89.6306 52.383 89.6244 52.4036 89.6129 52.4215L85.6676 59.8594C85.658 59.8786 85.643 59.8947 85.6245 59.9058C85.6061 59.9168 85.5848 59.9224 85.5633 59.9218H83.4527C83.4244 59.923 83.3966 59.9135 83.375 59.8952C83.3534 59.8769 83.3394 59.8511 83.3359 59.823L82.0419 52.3819C82.0381 52.365 82.0382 52.3476 82.0422 52.3308C82.0462 52.314 82.054 52.2983 82.0649 52.2849C82.0759 52.2715 82.0897 52.2608 82.1054 52.2536C82.1211 52.2464 82.1382 52.2428 82.1554 52.2431H83.805ZM66.8718 52.2363C66.935 52.2363 66.9858 52.2871 66.9858 52.3499L67.3457 57.5592C67.3488 57.585 67.3602 57.609 67.3781 57.6277C67.3961 57.6464 67.4196 57.6588 67.4452 57.6631C67.4707 57.6673 67.497 57.6631 67.52 57.6512C67.543 57.6392 67.5615 57.6202 67.5728 57.5968L69.7082 52.3171C69.7167 52.2942 69.7324 52.2746 69.7529 52.2613C69.7735 52.248 69.7977 52.2416 69.8222 52.2431H72.505C72.5224 52.2427 72.5397 52.2462 72.5555 52.2535C72.5714 52.2608 72.5853 52.2716 72.5963 52.2851C72.6073 52.2986 72.615 52.3145 72.6189 52.3315C72.6227 52.3485 72.6226 52.3662 72.6186 52.3831L71.3021 59.8242C71.2983 59.8515 71.2845 59.8765 71.2636 59.8945C71.2426 59.9124 71.2158 59.9221 71.1882 59.9218H69.6834C69.666 59.9221 69.6488 59.9186 69.6331 59.9113C69.6173 59.904 69.6034 59.8932 69.5925 59.8798C69.5815 59.8663 69.5738 59.8505 69.5699 59.8336C69.5659 59.8167 69.5659 59.7991 69.5698 59.7822L70.4288 55.0116C70.4333 54.9966 70.4348 54.9809 70.4332 54.9654C70.4316 54.9499 70.427 54.9348 70.4196 54.9211C70.4123 54.9074 70.4022 54.8952 70.3901 54.8853C70.3781 54.8755 70.3642 54.8681 70.3492 54.8636C70.3343 54.8591 70.3186 54.8576 70.3031 54.8592C70.2875 54.8607 70.2725 54.8654 70.2588 54.8727C70.245 54.8801 70.2329 54.8902 70.223 54.9022C70.2131 54.9143 70.2057 54.9282 70.2013 54.9432L68.0939 59.847C68.0851 59.8694 68.0693 59.8884 68.049 59.9013C68.0286 59.9142 68.0047 59.9202 67.9807 59.9186H66.1236C66.0935 59.9186 66.0645 59.9066 66.0432 59.8853C66.0218 59.864 66.0098 59.8351 66.0097 59.805L65.6338 54.9012C65.6345 54.8857 65.6322 54.8703 65.6269 54.8558C65.6217 54.8412 65.6137 54.8279 65.6033 54.8164C65.5929 54.805 65.5803 54.7957 65.5664 54.7891C65.5524 54.7825 65.5372 54.7788 65.5218 54.778C65.5064 54.7773 65.4909 54.7796 65.4764 54.7848C65.4618 54.7901 65.4485 54.7981 65.437 54.8085C65.4256 54.8189 65.4163 54.8314 65.4097 54.8454C65.4031 54.8594 65.3994 54.8746 65.3986 54.89L64.5433 59.8166C64.5397 59.844 64.5261 59.8692 64.5052 59.8873C64.4842 59.9055 64.4574 59.9153 64.4297 59.915H62.9281C62.9125 59.9144 62.8971 59.9108 62.8828 59.9044C62.8686 59.8979 62.8557 59.8887 62.845 59.8772C62.8343 59.8658 62.826 59.8524 62.8205 59.8377C62.815 59.823 62.8124 59.8074 62.813 59.7918L62.8146 59.7754L64.131 52.3339C64.1349 52.3067 64.1486 52.2818 64.1695 52.2639C64.1904 52.2459 64.217 52.2362 64.2446 52.2363H66.8718ZM46.4848 52.2431C46.5125 52.2429 46.5394 52.2528 46.5603 52.271C46.5812 52.2892 46.5948 52.3144 46.5984 52.3419L47.8912 59.781C47.8949 59.7978 47.8947 59.8153 47.8907 59.8321C47.8867 59.8489 47.8789 59.8645 47.868 59.8778C47.8571 59.8912 47.8433 59.9019 47.8276 59.9092C47.812 59.9164 47.7949 59.92 47.7776 59.9198H46.1305C46.1026 59.9186 46.076 59.9077 46.0553 59.889C46.0346 59.8703 46.021 59.845 46.0169 59.8174L45.735 57.8511C45.731 57.8236 45.7174 57.7984 45.6966 57.7799C45.6759 57.7614 45.6493 57.7508 45.6215 57.75H43.9247C43.8962 57.7501 43.8681 57.743 43.8432 57.7292C43.8182 57.7154 43.7972 57.6954 43.7822 57.6712C43.7671 57.647 43.7585 57.6193 43.7572 57.5908C43.756 57.5623 43.762 57.5339 43.7748 57.5084L44.289 56.4731C44.3032 56.4455 44.3246 56.4223 44.3511 56.4061C44.3775 56.3898 44.408 56.3812 44.439 56.3812H45.3763L45.3891 56.38C45.4204 56.3753 45.4485 56.3585 45.4674 56.3332C45.4863 56.3078 45.4944 56.2761 45.4899 56.2448L45.1956 54.2002C45.2003 54.1701 45.193 54.1393 45.1752 54.1146C45.1573 54.0899 45.1305 54.0732 45.1004 54.0682C45.0702 54.0635 45.0393 54.071 45.0146 54.0889C44.9899 54.1069 44.9733 54.134 44.9684 54.1642L44.1927 55.703L44.1039 55.8825L43.9403 56.2084V56.2144L42.2424 59.6286L42.1289 59.8558C42.1196 59.8759 42.1047 59.8928 42.0859 59.9045C42.0672 59.9162 42.0454 59.9222 42.0233 59.9218H40.4249C40.4044 59.9218 40.3842 59.9165 40.3663 59.9064C40.3484 59.8963 40.3334 59.8818 40.3228 59.8642C40.3122 59.8466 40.3063 59.8266 40.3057 59.8061C40.3051 59.7855 40.3098 59.7652 40.3194 59.747L44.2662 52.3055C44.2862 52.2655 44.3278 52.2415 44.3722 52.2431H46.4848ZM60.72 52.2431C60.7763 52.2451 60.8239 52.2863 60.8335 52.3419L62.1204 59.7834C62.1242 59.8002 62.1242 59.8177 62.1202 59.8345C62.1163 59.8513 62.1086 59.8669 62.0976 59.8803C62.0867 59.8936 62.0729 59.9043 62.0572 59.9115C62.0415 59.9187 62.0244 59.9222 62.0072 59.9218H60.3589C60.3306 59.922 60.3033 59.9117 60.2823 59.8928C60.2613 59.8739 60.2481 59.8479 60.2453 59.8198L59.9622 57.8531C59.9591 57.8253 59.9458 57.7995 59.9248 57.7809C59.9038 57.7623 59.8767 57.7521 59.8486 57.7524H58.1451C58.1164 57.7523 58.0882 57.7449 58.0632 57.7308C58.0382 57.7167 58.0173 57.6964 58.0024 57.6718C57.9876 57.6473 57.9793 57.6193 57.9783 57.5906C57.9774 57.5619 57.9839 57.5335 57.9971 57.508L58.5118 56.4731C58.5398 56.4172 58.5974 56.3812 58.6605 56.3812H59.5979L59.6107 56.38C59.6419 56.3753 59.6701 56.3585 59.6889 56.3332C59.7078 56.3078 59.7159 56.2761 59.7114 56.2448L59.4171 54.2002C59.4219 54.17 59.4145 54.1392 59.3965 54.1145C59.3786 54.0898 59.3515 54.0732 59.3214 54.0684C59.2912 54.0637 59.2604 54.0711 59.2356 54.089C59.2109 54.107 59.1944 54.134 59.1896 54.1642L58.3994 55.7461L58.1723 56.2108V56.2188L56.364 59.8558C56.3547 59.8761 56.3396 59.8932 56.3206 59.9049C56.3016 59.9167 56.2795 59.9225 56.2572 59.9218H54.6589C54.6377 59.9237 54.6164 59.9196 54.5975 59.9099C54.5785 59.9003 54.5626 59.8855 54.5517 59.8672C54.5408 59.849 54.5352 59.828 54.5356 59.8068C54.536 59.7855 54.5425 59.7648 54.5541 59.747L58.5006 52.3055C58.5109 52.2866 58.5262 52.2708 58.5448 52.2598C58.5634 52.2489 58.5846 52.2431 58.6062 52.2431H60.72ZM51.5034 52.2431C51.5208 52.2427 51.5381 52.2462 51.5539 52.2535C51.5698 52.2608 51.5837 52.2716 51.5947 52.2851C51.6057 52.2986 51.6134 52.3145 51.6172 52.3315C51.6211 52.3485 51.621 52.3662 51.617 52.3831L50.5653 58.3134C50.5612 58.3303 50.5611 58.3479 50.5649 58.3649C50.5688 58.3818 50.5764 58.3976 50.5874 58.4111C50.5983 58.4246 50.6122 58.4354 50.628 58.4427C50.6438 58.4499 50.6611 58.4535 50.6784 58.453H54.301C54.3222 58.4512 54.3435 58.4554 54.3624 58.4651C54.3813 58.4748 54.3971 58.4896 54.4081 58.5078C54.419 58.5261 54.4246 58.547 54.4241 58.5683C54.4237 58.5896 54.4174 58.6103 54.4058 58.6281L53.7523 59.8598C53.7431 59.8779 53.7292 59.8933 53.7121 59.9042C53.6949 59.9151 53.6751 59.9211 53.6548 59.9218H48.693C48.6756 59.9222 48.6584 59.9187 48.6426 59.9114C48.6268 59.9042 48.6128 59.8934 48.6019 59.8799C48.5909 59.8664 48.5832 59.8506 48.5793 59.8337C48.5754 59.8167 48.5754 59.7991 48.5794 59.7822L49.895 52.3407C49.899 52.3135 49.9127 52.2886 49.9336 52.2707C49.9544 52.2527 49.9811 52.243 50.0086 52.2431H51.5034ZM37.2626 52.2431C37.2801 52.2427 37.2974 52.2462 37.3132 52.2535C37.329 52.2608 37.343 52.2716 37.3539 52.2851C37.3649 52.2986 37.3726 52.3145 37.3765 52.3315C37.3804 52.3485 37.3803 52.3662 37.3762 52.3831L36.3357 58.3134C36.3317 58.3303 36.3317 58.3479 36.3356 58.3649C36.3395 58.3818 36.3472 58.3976 36.3582 58.4111C36.3691 58.4246 36.3831 58.4354 36.3988 58.4427C36.4146 58.4499 36.4319 58.4534 36.4493 58.453H40.0718C40.0931 58.4511 40.1144 58.4552 40.1333 58.4649C40.1523 58.4746 40.1681 58.4895 40.179 58.5078C40.1899 58.5261 40.1955 58.5471 40.195 58.5684C40.1945 58.5896 40.188 58.6104 40.1762 58.6281L39.5228 59.8598C39.5131 59.8787 39.4983 59.8946 39.4801 59.9056C39.4619 59.9165 39.4409 59.9221 39.4196 59.9218H34.4594C34.4421 59.9221 34.4249 59.9186 34.4091 59.9113C34.3934 59.904 34.3795 59.8932 34.3685 59.8798C34.3576 59.8663 34.3498 59.8505 34.3459 59.8336C34.342 59.8167 34.342 59.7991 34.3459 59.7822L35.6547 52.3407C35.6587 52.3135 35.6723 52.2886 35.6932 52.2707C35.7141 52.2527 35.7407 52.243 35.7683 52.2431H37.2626ZM77.4428 53.378C75.7513 53.378 74.9619 55.1955 74.9619 56.7063C74.9619 57.9295 75.5845 58.7873 76.7418 58.7873C78.4229 58.7873 79.2239 56.973 79.2239 55.459C79.2239 54.2242 78.6001 53.378 77.4428 53.378Z" fill="#FF671D"/>
</g>
<rect x="1" y="1" width="110" height="110" rx="9" stroke="black" stroke-opacity="0.1" stroke-width="2"/>
<defs>
<clipPath id="clip0_755_294">
<rect x="2" y="2" width="108" height="108" rx="8" fill="white"/>
</clipPath>
</defs>
</svg>
