<svg width="112" height="112" viewBox="0 0 112 112" fill="none" xmlns="http://www.w3.org/2000/svg">
<g clip-path="url(#clip0_755_299)">
<rect x="2" y="2" width="108" height="108" rx="8" fill="white"/>
<path fill-rule="evenodd" clip-rule="evenodd" d="M45.3068 62.1992V54.7039C45.3068 54.3181 45.2738 53.9508 45.2095 53.6015C45.1443 53.2531 45.0381 52.9451 44.8895 52.6787C44.7428 52.4143 44.5265 52.1952 44.264 52.0451C43.9951 51.8891 43.6563 51.8104 43.249 51.8104C42.8408 51.8104 42.4844 51.8891 42.1781 52.0451C41.8761 52.198 41.6143 52.4196 41.4136 52.6922C41.2095 52.9679 41.0567 53.285 40.9549 53.6432C40.8522 54.0062 40.8007 54.3818 40.8018 54.7591V62.1992H36.214V48.4765H40.6353V50.3777H40.6909C40.8576 50.084 41.0755 49.7946 41.3442 49.5098C41.6127 49.2253 41.9282 48.9818 42.2897 48.7794C42.6644 48.5719 43.0606 48.4056 43.4711 48.2835C43.8978 48.1552 44.3519 48.0906 44.8339 48.0906C45.761 48.0906 46.5483 48.2559 47.198 48.5866C47.8463 48.9171 48.3698 49.3446 48.7685 49.8681C49.167 50.3918 49.4543 50.9934 49.6304 51.6727C49.8049 52.3385 49.8938 53.0238 49.8951 53.7121V62.1992H45.3068ZM52.788 61.9855H57.2634V48.3044H52.788V61.9855ZM57.5906 43.9363C57.5906 44.2845 57.5225 44.6095 57.3856 44.9115C57.2556 45.205 57.0703 45.4708 56.8399 45.6943C56.6127 45.9143 56.3397 46.0887 56.0214 46.2168C55.7029 46.345 55.3705 46.4085 55.0254 46.4085C54.2974 46.4085 53.6886 46.1663 53.1971 45.6808C52.7061 45.1956 52.4602 44.6142 52.4602 43.9363C52.4602 43.6067 52.5237 43.2907 52.6514 42.9885C52.7752 42.6915 52.9613 42.4246 53.1971 42.2056C53.4384 41.9828 53.7151 41.8017 54.0158 41.6697C54.3251 41.5325 54.6614 41.4639 55.0254 41.4639C55.3705 41.4639 55.7031 41.5282 56.0216 41.6563C56.3397 41.7845 56.6127 41.9583 56.8399 42.1781C57.0702 42.4018 57.2554 42.6676 57.3856 42.9611C57.5225 43.2631 57.5906 43.5885 57.5906 43.9363ZM69.0349 62.1992V54.7039C69.0349 54.3181 69.0028 53.9508 68.9374 53.6015C68.8722 53.2531 68.7659 52.9451 68.618 52.6787C68.4711 52.4143 68.2546 52.1951 67.9919 52.0451C67.723 51.8891 67.3848 51.8104 66.9769 51.8104C66.5695 51.8104 66.2127 51.8891 65.9066 52.0451C65.6009 52.2012 65.3457 52.4171 65.1419 52.6922C64.9374 52.9679 64.7847 53.285 64.6832 53.6432C64.5806 54.0062 64.5291 54.3818 64.5304 54.7591V62.1992H59.9421V48.4765H64.3632V50.3777H64.4188C64.5857 50.084 64.8036 49.7946 65.0725 49.5098C65.341 49.2253 65.6561 48.9818 66.018 48.7794C66.3928 48.5718 66.7891 48.4055 67.1999 48.2835C67.6257 48.1552 68.0797 48.0906 68.5622 48.0906C69.4889 48.0906 70.2766 48.2559 70.9258 48.5866C71.5746 48.9171 72.0979 49.3446 72.4966 49.8681C72.8955 50.3918 73.1828 50.9934 73.3589 51.6727C73.5331 52.3386 73.6219 53.0238 73.6231 53.7121V62.1992H69.0349ZM81.3187 43.9393C81.3187 44.2879 81.2486 44.6133 81.1086 44.9158C80.9739 45.2108 80.7833 45.477 80.5475 45.6997C80.3136 45.9198 80.0334 46.0945 79.7059 46.2225C79.3788 46.3512 79.0372 46.4149 78.6826 46.4149C77.9344 46.4149 77.3085 46.1721 76.8033 45.686C76.2986 45.2003 76.046 44.618 76.046 43.9395C76.046 43.6092 76.1118 43.2929 76.2424 42.9904C76.3705 42.6916 76.5619 42.4242 76.8033 42.2065C77.0524 41.9827 77.3366 41.8014 77.6445 41.6699C77.9624 41.5325 78.308 41.4639 78.6826 41.4639C79.0374 41.4639 79.379 41.5284 79.7059 41.6563C80.0334 41.785 80.3136 41.959 80.5475 42.1789C80.7831 42.4017 80.9737 42.6679 81.1086 42.9628C81.2486 43.2653 81.3187 43.5911 81.3187 43.9393ZM80.9823 62.3685C80.9823 63.2118 80.9027 64.0139 80.7439 64.7751C80.5847 65.5357 80.2997 66.2005 79.8884 66.7691C79.4771 67.3378 78.9072 67.7867 78.1779 68.1171C77.4483 68.4472 76.5227 68.6122 75.401 68.6122C75.0832 68.6122 74.7373 68.5936 74.363 68.5571C73.9893 68.5201 73.6714 68.4652 73.4094 68.3921L73.7183 64.6238C73.8865 64.6789 74.0594 64.7155 74.2369 64.7337C74.3907 64.7506 74.5453 64.7598 74.7001 64.7612C75.373 64.7612 75.8219 64.5363 76.046 64.0876C76.2704 63.6381 76.3829 63.065 76.3829 62.3685V48.313H80.9823V62.3685ZM91.8837 56.0847H91.2976C90.7952 56.0847 90.2882 56.1082 89.7766 56.1537C89.2655 56.1997 88.8093 56.2875 88.4096 56.4162C88.0094 56.5453 87.6789 56.7341 87.4192 56.9827C87.1584 57.2313 87.0284 57.5586 87.0284 57.9634C87.0284 58.2217 87.0887 58.4429 87.2095 58.627C87.327 58.8079 87.4847 58.9592 87.6704 59.069C87.8564 59.1798 88.0701 59.2582 88.3119 59.3042C88.5534 59.3502 88.7865 59.3732 89.0094 59.3732C89.9393 59.3732 90.6511 59.1201 91.1441 58.6131C91.6368 58.1067 91.8837 57.4207 91.8837 56.5543V56.0847ZM83.4846 50.1982C84.3033 49.4248 85.2565 48.8442 86.345 48.4572C87.4329 48.0703 88.5443 47.8769 89.6791 47.8769C90.8517 47.8769 91.8418 48.0201 92.6505 48.3057C93.4607 48.5911 94.1159 49.0333 94.618 49.6317C95.1204 50.2309 95.4876 50.9861 95.7204 51.898C95.9526 52.81 96.0686 53.8925 96.0686 55.1449V62.0814H91.8837V60.6167H91.7993C91.4461 61.1879 90.9113 61.63 90.1958 61.9429C89.4789 62.2561 88.7027 62.413 87.8653 62.413C87.3074 62.413 86.7311 62.3392 86.1355 62.1917C85.54 62.0449 84.9957 61.8048 84.503 61.4735C84.0105 61.1417 83.6056 60.6994 83.2892 60.1466C82.9735 59.5941 82.8151 58.9126 82.8151 58.102C82.8151 57.1069 83.0891 56.3057 83.6387 55.6977C84.1868 55.0896 84.8938 54.6199 85.7591 54.2884C86.624 53.9568 87.5866 53.7356 88.6467 53.6253C89.6755 53.5162 90.7093 53.4608 91.7439 53.4592V53.2381C91.7439 52.5567 91.5022 52.0543 91.0184 51.7317C90.5349 51.41 89.9393 51.2484 89.2328 51.2484C88.5812 51.2484 87.954 51.3865 87.3495 51.6627C86.7446 51.9393 86.2285 52.2706 85.8008 52.6578L83.4846 50.1982Z" fill="#C2002F"/>
<path fill-rule="evenodd" clip-rule="evenodd" d="M40.4953 69.6811L39.3136 67.9733L38.0986 69.6811H36.0002L38.198 66.7683L36.2099 64.1231H38.3198L39.3465 65.6077L40.3852 64.1231H42.4286L40.4513 66.7683L42.627 69.6811H40.4953ZM47.4746 66.8031C47.4746 66.6257 47.4459 66.4525 47.3901 66.2815C47.3375 66.1177 47.2541 65.9654 47.1443 65.8328C47.0317 65.7002 46.8925 65.5926 46.7358 65.5169C46.572 65.4357 46.3818 65.395 46.1653 65.395C45.9562 65.395 45.7698 65.4357 45.6056 65.5169C45.4457 65.595 45.3032 65.7045 45.1864 65.8388C45.0698 65.9726 44.9785 66.1265 44.9171 66.2931C44.8547 66.4598 44.8227 66.6363 44.8226 66.8142C44.8226 66.9912 44.8542 67.1652 44.9173 67.3352C44.9786 67.5018 45.0698 67.6559 45.1864 67.7899C45.3031 67.9239 45.4456 68.0331 45.6054 68.1109C45.7698 68.1924 45.956 68.2332 46.1655 68.2332C46.3818 68.2332 46.572 68.1926 46.7358 68.1109C46.8936 68.0348 47.0329 67.9253 47.1441 67.7899C47.2523 67.6567 47.3343 67.5034 47.3901 67.3296C47.4456 67.1596 47.4741 66.982 47.4746 66.8031ZM49.2537 66.8031C49.2537 67.1875 49.1939 67.5569 49.0746 67.9117C48.9555 68.2664 48.7817 68.5787 48.5543 68.8484C48.3243 69.12 48.0404 69.3408 47.7206 69.4968C47.3918 69.6595 47.019 69.7411 46.6015 69.7411C46.2582 69.7411 45.9337 69.6723 45.6283 69.5359C45.3217 69.3991 45.0832 69.2125 44.9117 68.9758H44.8893V72.2463H43.0545V64.0648H44.8001V64.7407H44.8337C45.0051 64.519 45.242 64.3256 45.5438 64.159C45.8463 63.9925 46.2022 63.9094 46.6127 63.9094C47.0156 63.9094 47.3812 63.9872 47.7093 64.1424C48.0291 64.2912 48.3133 64.5066 48.543 64.7743C48.7702 65.0402 48.9455 65.3493 49.0686 65.6999C49.192 66.0511 49.2537 66.4188 49.2537 66.8031ZM53.4519 65.5894C53.3745 65.5675 53.2953 65.5524 53.2153 65.544C53.1401 65.5367 53.0646 65.5329 52.9891 65.5327C52.7471 65.5327 52.5438 65.578 52.3784 65.6678C52.2131 65.7576 52.0806 65.8666 51.9816 65.9938C51.8846 66.1177 51.8117 66.2587 51.7668 66.4096C51.723 66.5599 51.7005 66.6907 51.7005 66.8029V69.6811H49.8951V64.0744H51.6351V64.8856H51.6573C51.7916 64.604 51.9963 64.3617 52.2516 64.1823C52.5083 64.0006 52.8061 63.9094 53.1437 63.9094C53.217 63.9094 53.2886 63.9136 53.3583 63.9207C53.4282 63.9284 53.4848 63.9395 53.5291 63.9549L53.4519 65.5894ZM57.8972 66.2587C57.8972 65.9647 57.8098 65.7127 57.6351 65.5015C57.4598 65.2909 57.1975 65.1858 56.8476 65.1858C56.6766 65.1858 56.5195 65.214 56.3767 65.2702C56.2387 65.3239 56.1116 65.4023 56.0017 65.5015C55.8948 65.5998 55.8093 65.7148 55.7452 65.8463C55.6816 65.9749 55.6449 66.1152 55.6375 66.2584L57.8972 66.2587ZM59.5145 66.9701V67.1958C59.5145 67.2711 59.5109 67.3429 59.5039 67.4104H55.6375C55.6518 67.5682 55.6967 67.7114 55.7717 67.8395C55.8463 67.9675 55.9427 68.0787 56.0603 68.1725C56.1781 68.2666 56.3106 68.3403 56.4566 68.3927C56.6035 68.4455 56.7548 68.4718 56.9119 68.4718C57.1905 68.4718 57.4258 68.4173 57.6186 68.3078C57.8058 68.2042 57.9671 68.0596 58.0904 67.8848L59.3106 68.6975C59.0662 69.0767 58.7242 69.383 58.3204 69.5842C57.91 69.7909 57.4329 69.8948 56.8906 69.8948C56.4908 69.8948 56.1124 69.8286 55.7552 69.6971C55.4071 69.5709 55.0883 69.375 54.8183 69.1214C54.5505 68.8687 54.3397 68.5588 54.1866 68.1898C54.0327 67.8209 53.9566 67.3989 53.9566 66.9245C53.9566 66.4656 54.0314 66.0496 54.1815 65.6768C54.3311 65.3044 54.5346 64.9876 54.7918 64.7281C55.0511 64.4671 55.3608 64.2615 55.702 64.124C56.0517 63.9812 56.4299 63.9094 56.8371 63.9094C57.2298 63.9094 57.5904 63.9791 57.9186 64.1189C58.242 64.2545 58.5311 64.4608 58.7647 64.7225C59.0007 64.9859 59.1843 65.3061 59.3162 65.6823C59.4481 66.059 59.5145 66.4882 59.5145 66.9701ZM63.4605 65.7503C63.3115 65.6039 63.1404 65.4818 62.9534 65.3886C62.763 65.2918 62.5524 65.2416 62.3388 65.242C62.1732 65.242 62.0207 65.2758 61.8803 65.3437C61.7401 65.4115 61.67 65.5284 61.67 65.6937C61.67 65.8519 61.7471 65.9647 61.9017 66.0327C62.0562 66.1003 62.3061 66.1755 62.6516 66.2584C62.8523 66.3033 63.056 66.3675 63.2608 66.4506C63.4616 66.5309 63.649 66.6413 63.8166 66.7779C63.9824 66.9143 64.1182 67.0835 64.2155 67.2749C64.316 67.4705 64.3664 67.7039 64.3664 67.9748C64.3664 68.329 64.2978 68.6278 64.1614 68.8726C64.025 69.1176 63.8465 69.3151 63.6276 69.4658C63.403 69.6185 63.1527 69.7293 62.8886 69.7931C62.6206 69.8603 62.3454 69.8945 62.0691 69.8948C61.6302 69.8948 61.2007 69.8213 60.78 69.6746C60.3596 69.5276 60.0088 69.3112 59.7283 69.0254L60.7206 67.9299C60.8788 68.1105 61.0729 68.2612 61.3031 68.3814C61.5291 68.501 61.7811 68.5631 62.0368 68.5622C62.1806 68.5622 62.3226 68.5267 62.4626 68.4549C62.6033 68.3835 62.6729 68.2572 62.6729 68.0765C62.6729 67.9034 62.5866 67.7753 62.4143 67.6928C62.2411 67.6097 61.9718 67.5233 61.6052 67.4329C61.414 67.3864 61.2264 67.326 61.044 67.252C60.861 67.1795 60.6915 67.0763 60.543 66.947C60.392 66.8148 60.2691 66.6536 60.1815 66.4731C60.0877 66.285 60.041 66.059 60.041 65.7954C60.041 65.4566 60.1092 65.1684 60.2458 64.9314C60.3769 64.7008 60.5576 64.5021 60.7747 64.3497C60.9928 64.1982 61.2354 64.0855 61.4919 64.0167C61.7466 63.9463 62.0096 63.9102 62.2738 63.9094C62.6768 63.9094 63.0703 63.9756 63.4549 64.1071C63.8397 64.239 64.165 64.4367 64.4312 64.7001L63.4605 65.7503ZM68.8046 65.7503C68.6556 65.6039 68.4845 65.4818 68.2976 65.3886C68.1071 65.2918 67.8963 65.2415 67.6826 65.242C67.5173 65.242 67.3649 65.2758 67.2245 65.3437C67.0842 65.4115 67.0141 65.5284 67.0141 65.6937C67.0141 65.8519 67.0913 65.9647 67.2458 66.0327C67.4004 66.1003 67.6503 66.1755 67.9957 66.2584C68.1965 66.3033 68.4002 66.3675 68.605 66.4506C68.8055 66.5309 68.9927 66.6413 69.1601 66.7779C69.3263 66.9141 69.4624 67.0834 69.5599 67.2749C69.6601 67.4705 69.7106 67.7039 69.7106 67.9748C69.7106 68.329 69.642 68.6278 69.5056 68.8726C69.3688 69.1176 69.1907 69.3151 68.9714 69.4658C68.7469 69.6185 68.4967 69.7294 68.2328 69.7931C67.9648 69.8603 67.6895 69.8945 67.4132 69.8948C66.9744 69.8948 66.5449 69.8213 66.1242 69.6746C65.7037 69.5276 65.3529 69.3112 65.0725 69.0254L66.0648 67.9299C66.223 68.1105 66.4171 68.2612 66.6473 68.3814C66.8731 68.501 67.125 68.5631 67.3805 68.5622C67.5248 68.5622 67.667 68.5267 67.8068 68.4549C67.9474 68.3835 68.0171 68.2572 68.0171 68.0765C68.0171 67.9034 67.9307 67.7753 67.7585 67.6928C67.5853 67.6097 67.316 67.5233 66.9493 67.4329C66.7581 67.3864 66.5706 67.326 66.3882 67.252C66.2051 67.1795 66.0357 67.0763 65.8871 66.947C65.7392 66.8196 65.6191 66.6612 65.5257 66.4731C65.4318 66.285 65.3852 66.059 65.3852 65.7954C65.3852 65.4566 65.4534 65.1684 65.59 64.9314C65.721 64.7007 65.9016 64.502 66.1189 64.3497C66.3369 64.1982 66.5796 64.0855 66.836 64.0167C67.0908 63.9463 67.3537 63.9102 67.618 63.9094C68.021 63.9094 68.4145 63.9756 68.7991 64.1071C69.1834 64.239 69.5088 64.4367 69.7753 64.7001L68.8046 65.7503Z" fill="black"/>
<path fill-rule="evenodd" clip-rule="evenodd" d="M23.4285 61.2621L19.5422 63.5073V69.7518L25.1739 73.0661L30.9328 69.7518V63.5075L26.442 61.2623L23.4285 61.2621Z" fill="black"/>
<path fill-rule="evenodd" clip-rule="evenodd" d="M20.6036 68.7448L24.5542 71.0372V67.2879L20.6465 65.0212L20.6036 68.7448Z" fill="#FFFFFE"/>
<path fill-rule="evenodd" clip-rule="evenodd" d="M24.6998 38.543C19.6061 38.543 16.1865 41.9089 16.1865 46.9147C16.1865 50.3399 18.0228 53.2839 19.9659 56.3982C20.9462 57.966 21.9433 59.5637 22.7607 61.2935L24.6996 65.4944L26.6737 60.9972C27.5985 59.0374 28.9114 57.4675 29.8276 56.0105C31.6425 53.1306 33.209 50.6428 33.209 46.7317C33.209 42.0622 29.5495 38.543 24.6998 38.543Z" fill="#C2002F"/>
<path fill-rule="evenodd" clip-rule="evenodd" d="M26.446 60.6969C26.3691 60.8589 26.2921 61.025 26.2152 61.1954C26.0655 61.5192 25.92 61.8557 25.7782 62.2009C25.405 63.104 25.0736 64.0238 24.7853 64.9575H24.7468C24.541 64.1168 24.278 63.2911 23.9595 62.4863V62.482C23.8277 62.1458 23.6863 61.8134 23.5354 61.4853C23.4629 61.3149 23.3858 61.1488 23.3045 60.9867C20.8306 55.8021 16.8458 51.8482 16.8458 46.9872C16.8458 42.6712 19.6876 39.2717 24.6996 39.2717C29.2498 39.2717 32.554 42.4885 32.554 46.804C32.554 52.4019 29.2152 54.8858 26.446 60.6969ZM30.688 63.7516V69.4521L25.1664 72.6092L19.6149 69.4519L19.5422 69.4096V63.7516L22.9879 61.7961C23.1376 62.1285 23.2787 62.4649 23.4073 62.8059L21.1987 64.1011L25.1106 66.3504L29.0356 64.1011L26.3263 62.5207C26.4634 62.1791 26.609 61.841 26.7631 61.5066L30.688 63.7516ZM33.209 46.7317C33.209 42.0622 29.5495 38.543 24.6998 38.543C19.6061 38.543 16.1865 41.9089 16.1865 46.9147C16.1865 50.3399 18.0228 53.2839 19.9659 56.3982C20.9462 57.966 21.9433 59.5637 22.7607 61.2935L18.9001 63.4878V69.8867L25.1662 73.4523L31.33 69.929V63.4878L26.9896 61.0081C27.9144 59.0485 28.9114 57.4675 29.8276 56.0105C31.6425 53.1306 33.209 50.6428 33.209 46.7317Z" fill="white"/>
<path fill-rule="evenodd" clip-rule="evenodd" d="M24.7984 40.7755C21.2413 40.7755 18.3565 43.6473 18.3565 47.1915C18.3565 50.7322 21.2413 53.6035 24.7984 53.6035C28.3598 53.6035 31.2445 50.7322 31.2445 47.1915C31.2445 43.6473 28.3598 40.7755 24.7984 40.7755Z" fill="white"/>
<path fill-rule="evenodd" clip-rule="evenodd" d="M24.8066 52.8367C21.648 52.8367 19.0841 50.2843 19.0841 47.1404C19.0841 43.9921 21.648 41.4446 24.8066 41.4446C27.9697 41.4446 30.5296 43.9921 30.5296 47.1404C30.5296 50.2845 27.9697 52.8367 24.8066 52.8367Z" fill="#232020"/>
<path fill-rule="evenodd" clip-rule="evenodd" d="M27.1696 47.8435C26.5489 47.8435 26.0439 47.345 26.0439 46.727C26.0439 46.1054 26.5489 45.6069 27.1696 45.6069C27.7902 45.6069 28.2951 46.1054 28.2951 46.727C28.2951 47.345 27.7902 47.8435 27.1696 47.8435ZM22.303 47.8735C21.682 47.8735 21.1771 47.3707 21.1771 46.7527C21.1771 46.1351 21.682 45.6325 22.303 45.6325C22.9234 45.6325 23.4285 46.1351 23.4285 46.7527C23.4285 47.3707 22.9234 47.8735 22.303 47.8735ZM27.6748 44.8016H21.9262C21.6719 44.8014 21.42 44.8513 21.1851 44.9485C20.9501 45.0457 20.7366 45.1883 20.5568 45.3681C20.2013 45.7219 19.983 46.2031 19.983 46.736C19.983 47.8006 20.8605 48.6699 21.9262 48.6699H27.6748C28.2096 48.6699 28.6934 48.4528 29.0484 48.1033C29.3994 47.7495 29.6179 47.2683 29.6179 46.736C29.6179 45.6706 28.7449 44.8016 27.6748 44.8016Z" fill="#FFFFFE"/>
<path fill-rule="evenodd" clip-rule="evenodd" d="M22.3498 45.8283C22.119 45.8283 21.9304 46.016 21.9304 46.2458C21.9304 46.4758 22.1188 46.6633 22.3498 46.6633C22.4608 46.6634 22.5673 46.6196 22.646 46.5413C22.7247 46.4631 22.7692 46.3568 22.7697 46.2458C22.7692 46.1349 22.7247 46.0286 22.646 45.9504C22.5673 45.8721 22.4608 45.8282 22.3498 45.8283ZM27.2164 45.7986C27.1055 45.7985 26.9991 45.8424 26.9204 45.9207C26.8418 45.9989 26.7974 46.1052 26.797 46.2161C26.797 46.4502 26.9856 46.6377 27.2164 46.6377C27.2717 46.6376 27.3264 46.6267 27.3774 46.6054C27.4284 46.5842 27.4747 46.5531 27.5136 46.5139C27.5526 46.4748 27.5835 46.4283 27.6044 46.3772C27.6254 46.3261 27.6361 46.2714 27.6359 46.2161C27.6359 45.9857 27.4477 45.7986 27.2164 45.7986Z" fill="#FFFFFE"/>
</g>
<rect x="1" y="1" width="110" height="110" rx="9" stroke="black" stroke-opacity="0.1" stroke-width="2"/>
<defs>
<clipPath id="clip0_755_299">
<rect x="2" y="2" width="108" height="108" rx="8" fill="white"/>
</clipPath>
</defs>
</svg>
