<svg width="112" height="112" viewBox="0 0 112 112" fill="none" xmlns="http://www.w3.org/2000/svg">
<g clip-path="url(#clip0_755_302)">
<rect x="2" y="2" width="108" height="108" rx="8" fill="white"/>
<path d="M30.2947 29H16V35.3718C16 36.8072 16.5818 38.1067 17.5225 39.0474C18.4632 39.9881 19.7627 40.9053 21.1981 40.9053V42.079H18.8606C18.371 42.079 17.9115 42.2014 17.5091 42.4177C16.6607 42.8738 16.0671 43.7458 16.005 44.7619H16V54.9904H22.9587V48.1993H30.2947C32.9457 48.1993 35.3452 47.1245 37.0824 45.3873C38.8195 43.6502 39.8944 41.2507 39.8944 38.5997C39.8944 33.2976 35.5967 29 30.2947 29ZM32.1962 41.3295C31.7116 41.8174 30.9151 41.9952 29.6659 41.9952H22.9587V35.6233H29.6659C32.1643 35.6233 32.8518 36.336 32.8518 38.8093C32.8518 40.0467 32.6808 40.8415 32.1962 41.3295Z" fill="#182C61"/>
<path d="M22.9587 57.3379V64.58C21.0371 64.58 19.3552 64.0467 18.096 62.7875C16.8367 61.5282 16.0486 59.2327 16.0016 57.3379H22.9587Z" fill="#F94F1B"/>
<path d="M19.6622 65.4703H22.9587V83.3282H16V68.4886H16.0067C16.0906 67.1287 16.4192 66.1411 17.2576 65.8057C17.7506 65.6095 19.0065 65.4703 19.6622 65.4703Z" fill="#182C61"/>
<path d="M51.4643 57.3379V83.3282H43.86L33.2174 68.1583H32.5165V83.3282H25.5578V57.3379H33.2979C33.3314 57.3848 33.3549 57.4217 33.3549 57.4217L43.9724 73.1836H44.5056V57.3379H51.4643Z" fill="#182C61"/>
<path d="M68.2926 57.3379H54.231V70.759C54.4222 71.8221 54.9369 72.7728 55.6697 73.5056C56.6104 74.4462 57.9099 75.3635 59.3452 75.3635V76.5372H57.0078C56.5182 76.5372 56.0587 76.6596 55.6563 76.8759C54.9537 77.2532 54.4255 77.9172 54.231 78.7103V83.3282H68.2926C75.2966 83.3282 80.9759 77.6489 80.9759 70.6449V70.0212C80.9759 63.0172 75.2966 57.3379 68.2926 57.3379ZM73.4303 70.6969C73.4303 76.8608 70.7408 76.7049 67.4224 76.7049H61.1897V63.9612H67.4224C70.7408 63.9612 73.4303 63.8053 73.4303 69.9692V70.6969Z" fill="#182C61"/>
<path d="M16.0016 57.3379H16V57.1736C16 57.2272 16 57.2825 16.0016 57.3379Z" fill="#182C61"/>
<path d="M55.237 29C46.8732 29 40.887 34.297 40.887 41.9952C40.887 49.6934 46.8732 54.9904 55.237 54.9904C63.6009 54.9904 69.5871 49.6934 69.5871 41.9952C69.5871 34.297 63.6009 29 55.237 29ZM55.237 48.6034C51.4089 48.6034 48.1727 47.2234 48.1727 41.9952C48.1727 36.7669 51.4089 35.3869 55.237 35.3869C59.0652 35.3869 62.3014 36.7669 62.3014 41.9952C62.3014 47.2234 59.0652 48.6034 55.237 48.6034Z" fill="#182C61"/>
<path d="M83.9942 55.158C70.0767 55.158 71.4182 45.7378 71.4182 45.7378H78.4607V47.4196C78.4607 47.8053 78.8481 48.1004 79.2673 48.305C79.7686 48.5498 80.322 48.6672 80.8787 48.6755C82.4331 48.6973 86.6569 48.7476 87.3025 48.6672C87.3209 48.6672 87.3394 48.6621 87.3561 48.6605C88.2348 48.5364 88.8938 47.75 88.8133 46.8663C88.7697 46.3985 88.5316 45.9424 87.8508 45.7378C86.174 45.2331 80.1375 44.7284 80.1375 44.7284C70.2444 44.3913 70.9151 37.1593 70.9151 37.1593C70.9151 37.1593 70.2444 29 83.4794 29C96.7143 29 95.3796 38.3364 95.3796 38.3364H88.3538V37.2398C88.3538 36.9933 88.3002 36.7468 88.1744 36.5372C87.5272 35.4607 85.676 35.407 85.676 35.407H80.2482C79.8307 35.407 79.4132 35.4741 79.0241 35.625C78.5144 35.8229 77.9577 36.1851 77.9577 36.8223C77.9577 37.3639 78.2763 37.7277 78.6217 37.9625C78.9722 38.2006 79.388 38.318 79.8106 38.3331C80.5148 38.3582 82.5471 38.5393 88.0185 39.5135C95.5641 40.86 95.8994 45.5701 95.8994 45.5701C95.8994 45.5701 97.9116 55.158 83.9942 55.158Z" fill="#182C61"/>
</g>
<rect x="1" y="1" width="110" height="110" rx="9" stroke="black" stroke-opacity="0.1" stroke-width="2"/>
<defs>
<clipPath id="clip0_755_302">
<rect x="2" y="2" width="108" height="108" rx="8" fill="white"/>
</clipPath>
</defs>
</svg>
