<svg width="112" height="112" viewBox="0 0 112 112" fill="none" xmlns="http://www.w3.org/2000/svg">
<g clip-path="url(#clip0_755_295)">
<rect x="2" y="2" width="108" height="108" rx="8" fill="white"/>
<path fill-rule="evenodd" clip-rule="evenodd" d="M44.5227 67.8836C54.0288 67.8836 61.7807 67.1482 61.7807 66.2478C61.7807 65.3474 54.0288 64.6121 44.5227 64.6121C35.0167 64.6121 27.2647 65.3474 27.2647 66.2478C27.2647 67.1482 35.0167 67.8836 44.5227 67.8836Z" fill="#CAC9C9"/>
<path fill-rule="evenodd" clip-rule="evenodd" d="M43.5757 16.1473L76.2478 30.0154C77.1877 30.4136 77.6307 31.5095 77.2307 32.4493L63.3626 65.1215C62.9645 66.0613 61.8686 66.5043 60.9287 66.1044L28.2566 52.2381C27.3168 51.8399 26.8737 50.744 27.2737 49.8042L41.1418 17.1302C41.54 16.1904 42.6359 15.7474 43.5757 16.1473Z" fill="#921D26"/>
<path fill-rule="evenodd" clip-rule="evenodd" d="M75.4335 31.7606C75.5035 31.9328 75.5071 32.1301 75.4299 32.313L62.0139 63.9198C61.8578 64.2856 61.4327 64.4578 61.065 64.3036L29.4583 50.8875C29.2754 50.8104 29.1408 50.6651 29.0709 50.4929L75.4335 31.7606Z" fill="#70161E"/>
<path fill-rule="evenodd" clip-rule="evenodd" d="M43.6026 19.0225L74.1619 31.9937C74.3466 32.0727 74.4345 32.2897 74.3556 32.4744L61.3843 63.0337C61.3054 63.2185 61.0884 63.3063 60.9036 63.2274L30.3443 50.2579C30.1578 50.179 30.0717 49.962 30.1506 49.7772L43.1219 19.218C43.2008 19.0332 43.4179 18.9453 43.6026 19.0243V19.0225Z" fill="#D5232B"/>
<path fill-rule="evenodd" clip-rule="evenodd" d="M74.3592 32.1946C74.395 32.2825 74.3968 32.383 74.3574 32.4744L61.3861 63.0337C61.3072 63.2185 61.0902 63.3063 60.9054 63.2274L30.3443 50.2579C30.2511 50.2185 30.1829 50.1449 30.1488 50.057L74.3592 32.1946Z" fill="#A11F24"/>
<path fill-rule="evenodd" clip-rule="evenodd" d="M68.7452 33.1076L49.7815 42.6674L47.8983 34.1945L68.7452 33.1076Z" fill="white"/>
<path fill-rule="evenodd" clip-rule="evenodd" d="M36.2309 49.4974L55.1964 39.9376L57.0796 48.4105L36.2309 49.4974Z" fill="#E6E6E6"/>
<path fill-rule="evenodd" clip-rule="evenodd" d="M49.7815 42.6674L55.1964 39.9376L55.5946 41.7312L49.7815 42.6674Z" fill="#B3B3B3"/>
<path fill-rule="evenodd" clip-rule="evenodd" d="M23.995 74.4571V77.9546H23.1879C23.1879 77.9546 21.8086 77.7537 21.8086 78.3582C21.8086 78.9626 22.4149 79.1653 23.2543 79.8379C24.0955 80.5105 25.4066 82.0584 25.4066 83.8394C25.4066 85.6205 24.23 87.9091 20.5298 87.9091C16.8296 87.9091 17.1327 87.5055 17.1327 87.5055V83.5704C17.1327 83.5704 18.3775 83.9739 19.52 83.9739C20.6625 83.9739 20.8652 83.6045 20.8652 83.235C20.8652 82.8655 17 80.5123 17 78.1591C17 77.2264 17.235 74.0213 21.4391 74.0213C23.0893 74.0536 23.995 74.4589 23.995 74.4589V74.4571Z" fill="#D5232B"/>
<path d="M31.0241 74.0195H26.7572V87.9091H31.0241V74.0195Z" fill="#D5232B"/>
<path fill-rule="evenodd" clip-rule="evenodd" d="M49.7224 84.3775H53.7203V87.9091H45.7244V74.0195H53.7203V77.5511H49.7224V79.1994H53.2199V82.731H49.7224V84.3775Z" fill="#D5232B"/>
<path fill-rule="evenodd" clip-rule="evenodd" d="M55.5444 74.0195H60.8193C63.7698 74.0195 66.184 76.4337 66.184 79.3841C66.184 82.3346 64.0245 84.7488 61.074 84.7488H59.8131V87.9109H55.5462V74.0213L55.5444 74.0195ZM59.8113 77.7179V81.0468H60.0481C60.9646 81.0468 61.7125 80.2971 61.7125 79.3823C61.7125 78.4658 60.9628 77.7179 60.0481 77.7179H59.8113Z" fill="#D5232B"/>
<path fill-rule="evenodd" clip-rule="evenodd" d="M39.9365 74.0033C41.7749 74.0033 43.4466 74.7172 44.6877 75.883L42.2466 78.9913C41.6906 78.3367 40.862 77.9206 39.9365 77.9206C38.2649 77.9206 36.9107 79.2747 36.9107 80.9464C36.9107 82.618 38.2649 83.9721 39.9365 83.9721C40.862 83.9721 41.6906 83.556 42.2466 82.9014L44.6877 86.0097C43.4448 87.1755 41.7749 87.8894 39.9365 87.8894C36.1018 87.8894 32.9917 84.7811 32.9917 80.9446C32.9917 77.1081 36.1 73.9998 39.9365 73.9998V74.0033Z" fill="#D5232B"/>
<path fill-rule="evenodd" clip-rule="evenodd" d="M71.9109 74.0195L79.2001 87.9091H64.6235L71.9109 74.0195Z" fill="#D5232B"/>
<path fill-rule="evenodd" clip-rule="evenodd" d="M70.1549 87.9091H67.3569L72.0221 80.7921L75.4174 84.4923L70.1549 87.9091Z" fill="#E6E6E6"/>
<path fill-rule="evenodd" clip-rule="evenodd" d="M70.0994 83.7264L72.0221 80.7921L72.7414 81.5759L70.0994 83.7264Z" fill="#B3B3B3"/>
<path fill-rule="evenodd" clip-rule="evenodd" d="M72.9386 75.9781L73.9341 77.8757L70.0994 83.7264L68.0116 81.4521L69.8232 78.0013L72.9386 75.9781Z" fill="white"/>
<path fill-rule="evenodd" clip-rule="evenodd" d="M87.5063 74.0195V77.6856H84.9665V87.9091H80.6996V77.6856H78.1598V74.0195H87.5063Z" fill="#D5232B"/>
<path fill-rule="evenodd" clip-rule="evenodd" d="M55.8098 91.1017L55.9103 90.4165H52.0182L51.9141 91.1017H55.8098ZM51.6576 92.7966L51.1841 95.9318H55.1946L55.295 95.2467H52.072L52.3392 93.4656H55.1121L55.2125 92.7966H51.6558H51.6576ZM60.2848 92.9778L63.1313 90.4165H62.1071L58.7262 93.4656L59.1836 90.4165H58.3962L57.5622 95.9318H58.3495L58.563 94.497L59.7252 93.4567L61.5242 95.9301H62.4067L60.2705 92.9903L60.2848 92.9742V92.9778ZM65.9113 95.9964C67.2816 95.9964 68.2125 95.3507 68.1605 94.2781C68.078 92.5993 65.2764 93.1518 65.2208 91.9931C65.1921 91.4102 65.7481 91.0246 66.6557 91.0246C67.2153 91.0246 67.7498 91.1734 68.1749 91.4658L68.4582 90.8201C67.9937 90.5206 67.3408 90.3556 66.6629 90.3556C65.3159 90.3556 64.4011 91.0102 64.4531 92.0648C64.5392 93.8297 67.339 93.2396 67.3946 94.3893C67.4233 94.9884 66.8422 95.3274 65.9508 95.3274C65.2656 95.3274 64.5679 95.0835 64.1321 94.6978L63.8164 95.3274C64.2361 95.7058 65.0701 95.9964 65.9131 95.9964H65.9113ZM73.0821 90.4183H71.0338L70.1998 95.9336H70.9872L71.2365 94.2638H72.7091C74.3 94.2638 75.2542 93.4441 75.1842 92.0344C75.134 91.0102 74.3646 90.4183 73.0803 90.4183H73.0821ZM72.6929 93.5786H71.3459L71.7226 91.1053H73.0463C73.8821 91.1053 74.3699 91.4443 74.4022 92.1061C74.4489 93.0746 73.8193 93.5804 72.6929 93.5804V93.5786ZM81.912 92.0344C81.8618 91.0102 81.0923 90.4183 79.8009 90.4183H77.7437L76.9097 95.9336H77.706L77.9553 94.2477H79.5785L80.6224 95.9336H81.4582L80.3623 94.1365C81.3901 93.8692 81.9676 93.1285 81.9138 92.0326L81.912 92.0344ZM79.4189 93.5786H78.0558L78.4324 91.1053H79.7633C80.6063 91.1053 81.0959 91.4443 81.1282 92.1061C81.1748 93.0746 80.5453 93.5804 79.4189 93.5804V93.5786ZM88.3636 91.1053L88.464 90.4201H84.5719L84.4679 91.1053H88.3636ZM84.2114 92.8002L83.7379 95.9354H87.7484L87.8488 95.2503H84.6257L84.893 93.4692H87.6658L87.7663 92.8002H84.2096H84.2114ZM91.8198 96C93.1901 96 94.121 95.3543 94.069 94.2817C93.9865 92.6029 91.1849 93.1553 91.1293 91.9967C91.1006 91.4138 91.6566 91.0282 92.5642 91.0282C93.1238 91.0282 93.6583 91.177 94.0833 91.4694L94.3667 90.8237C93.9022 90.5242 93.2493 90.3591 92.5713 90.3591C91.2243 90.3591 90.3096 91.0138 90.3616 92.0684C90.4477 93.8333 93.2475 93.2432 93.3031 94.3929C93.3318 94.992 92.7507 95.331 91.8593 95.331C91.1741 95.331 90.4764 95.0871 90.0406 94.7014L89.7249 95.331C90.1446 95.7094 90.9786 96 91.8216 96H91.8198Z" fill="#999999"/>
</g>
<rect x="1" y="1" width="110" height="110" rx="9" stroke="black" stroke-opacity="0.1" stroke-width="2"/>
<defs>
<clipPath id="clip0_755_295">
<rect x="2" y="2" width="108" height="108" rx="8" fill="white"/>
</clipPath>
</defs>
</svg>
