<svg width="112" height="112" viewBox="0 0 112 112" fill="none" xmlns="http://www.w3.org/2000/svg">
<g clip-path="url(#clip0_755_291)">
<rect x="2" y="2" width="108" height="108" rx="8" fill="white"/>
<path d="M96 32H16V79.0312H96V32Z" fill="white"/>
<path d="M34.6094 39.1875H35.6875C38.3438 39.3281 40.9688 40.1094 43.0156 41.8594C43.0469 41.8906 43.0625 41.9375 43.0312 41.9688L39.8438 46.0312C39.8125 46.0625 39.7812 46.0781 39.7344 46.0469C37.625 44.7344 33.8594 43.6562 31.6719 45.0156C30.1406 45.9688 31.2344 47.6094 32.4219 48.1562C36.4531 50 42.5938 51.8125 41.7969 57.6875C41.4531 60.2656 39.9531 62.2969 37.7188 63.5938C35.3125 64.9844 32.25 65.2031 29.5625 64.8594C26.8125 64.5156 24.4219 63.3281 22.4219 61.3125C22.375 61.2656 22.375 61.2188 22.4219 61.1719L25.5781 57.1562C25.625 57.1094 25.7031 57.0938 25.75 57.1406C26.7031 57.9688 27.7969 58.7188 28.9688 59.1406C30.875 59.8281 34.3594 60.0938 35.8281 58.3281C36.9531 56.9844 35.1875 55.6406 34.1406 55.1562C30.6875 53.5781 25.7344 52.2969 25.2969 47.7812C25.1719 46.4531 25.4531 45.1406 26.1719 43.7969C27.7344 40.8594 31.2344 39.3125 34.6094 39.1875Z" fill="#EE4D2D"/>
<path d="M48.2813 39.1875H57.5313C61.8907 39.375 66.6251 41.4531 66.3594 46.6562C66.0469 52.7031 61.0001 56.2344 55.3126 56.3594C53.9688 56.3906 52.6407 56.3906 51.3282 56.3594C51.2813 56.3594 51.2344 56.3906 51.2344 56.4375L49.9688 64.9219C49.9688 64.9688 49.9376 65 49.8751 65L44.3282 64.9531C44.2813 64.9531 44.2657 64.9219 44.2657 64.875L48.2813 39.1875ZM59.3751 48.9219C60.3126 47.375 60.4376 44.9062 58.1876 44.3438C56.5469 43.9375 54.9063 43.9688 53.2657 44.0469C53.2032 44.0469 53.1719 44.0781 53.1563 44.1406L52.1719 51.1406C52.1563 51.2031 52.1876 51.2344 52.2657 51.25C54.6876 51.3281 57.9219 51.3281 59.3751 48.9219Z" fill="#EE4D2D"/>
<path d="M67.6406 39.1875H74.6874L80.3124 51C80.3281 51.0469 80.3281 51.0938 80.2968 51.1406L64.6406 71.1094C64.6093 71.1562 64.5624 71.1719 64.4999 71.1719H58.2187C58.1249 71.1719 58.1093 71.1406 58.1562 71.0625C63.1874 64.6719 68.2343 58.2656 73.2968 51.8594C73.6406 51.4375 73.6874 51.4844 73.4218 50.9531C71.4999 47.0625 69.5781 43.1406 67.6406 39.1875Z" fill="#EE4D2D"/>
<path d="M83.2812 39.1875H89.9062L81.2656 49.9375C81.2343 49.9688 81.1875 49.9844 81.1562 49.9531C81.1406 49.9531 81.1406 49.9375 81.1406 49.9219L78.8125 45.0469C78.7812 44.9688 78.7812 44.9062 78.8281 44.8438L83.2812 39.1875Z" fill="#EE4D2D"/>
<path d="M80.875 52.3594C80.875 52.3438 80.8906 52.3438 80.875 52.3594C80.9219 52.375 80.9531 52.4219 80.9688 52.4531C82.9531 56.6094 84.9375 60.75 86.9219 64.875C86.9375 64.9062 86.9219 64.9375 86.8906 64.9531C86.875 64.9531 86.875 64.9531 86.8594 64.9531H80.4063C80.3438 64.9531 80.3125 64.9219 80.2812 64.875L76.75 57.6875C76.7344 57.6406 76.7344 57.5938 76.7656 57.5625L80.875 52.3594Z" fill="#EE4D2D"/>
<path d="M19.5626 66.7656H25.2501C25.2813 66.7656 25.2969 66.7969 25.2969 66.8125C25.2969 66.8281 25.2969 66.8281 25.2813 66.8438L21.9063 71.1562C21.8907 71.1719 21.8751 71.1719 21.8594 71.1719H16.1094C16.0782 71.1719 16.0626 71.1562 16.0626 71.125C16.0626 71.1094 16.0626 71.0938 16.0782 71.0938L19.5313 66.7812C19.5313 66.7812 19.5469 66.7656 19.5626 66.7656Z" fill="#EE4D2D"/>
<path d="M36.0937 66.8281L32.7187 71.1563C32.7031 71.1719 32.6874 71.1719 32.6718 71.1719H23.4843C23.4531 71.1719 23.4374 71.1406 23.4374 71.125C23.4374 71.1094 23.4374 71.1094 23.4531 71.0938L26.8281 66.7813C26.8437 66.7656 26.8593 66.7656 26.8749 66.7656L36.0624 66.75C36.0937 66.75 36.1093 66.7813 36.1093 66.7969C36.1093 66.8125 36.1093 66.8281 36.0937 66.8281Z" fill="#EE4D2D"/>
<path d="M56.4219 71.1875H34.2969C34.2656 71.1875 34.2344 71.1719 34.2344 71.1406C34.2344 71.125 34.2344 71.1094 34.25 71.1094L37.6094 66.8125C37.625 66.7969 37.6406 66.7969 37.6563 66.7969H59.7969C59.8281 66.7969 59.8594 66.8125 59.8594 66.8438C59.8594 66.8594 59.8594 66.875 59.8438 66.875L56.4688 71.1562C56.4531 71.1719 56.4375 71.1875 56.4219 71.1875Z" fill="#EE4D2D"/>
<path d="M70.5468 67.7656L70.4531 68.5469C70.4531 68.5781 70.4687 68.625 70.5156 68.625C70.5156 68.625 70.5156 68.625 70.5312 68.625L72.3593 68.5781C72.3906 68.5781 72.4218 68.6094 72.4218 68.6406C72.4218 68.6406 72.4218 68.6406 72.4218 68.6562L72.3124 69.4531C72.3124 69.4844 72.2812 69.5156 72.2499 69.5156H70.3437C70.3124 69.5156 70.2812 69.5469 70.2812 69.5781L70.2031 70.1875C70.2031 70.2188 70.2187 70.25 70.2656 70.2656H72.1562C72.1874 70.2656 72.2187 70.2969 72.2187 70.3281C72.2187 70.3281 72.2187 70.3281 72.2187 70.3438L72.0781 71.1406C72.0781 71.1719 72.0468 71.2031 72.0156 71.2031H69.1249C69.0937 71.2031 69.0624 71.1719 69.0624 71.1406C69.0624 71.1406 69.0624 71.1406 69.0624 71.125L69.7343 66.8438C69.7343 66.8125 69.7656 66.7812 69.7968 66.7812L72.7031 66.7656C72.7343 66.7656 72.7656 66.7969 72.7656 66.8281V66.8438L72.6249 67.6562C72.6249 67.6875 72.5937 67.7188 72.5624 67.7188H70.6249C70.5781 67.7031 70.5624 67.7344 70.5468 67.7656Z" fill="#EE4D2D"/>
<path d="M74.75 69.9531L73.7656 71.1719C73.75 71.1875 73.7344 71.1875 73.7188 71.1875H72.625C72.5938 71.1875 72.5625 71.1562 72.5625 71.125C72.5625 71.1094 72.5625 71.0938 72.5781 71.0938L74.3125 68.9688C74.3281 68.9531 74.3281 68.9219 74.3125 68.9062L73.2812 66.8438C73.2656 66.8125 73.2812 66.7812 73.3125 66.7656C73.3281 66.7656 73.3281 66.7656 73.3438 66.7656L74.4844 66.7969C74.5156 66.7969 74.5312 66.8125 74.5469 66.8281L75.0625 67.9062C75.0781 67.9375 75.1094 67.9531 75.1406 67.9375C75.1562 67.9375 75.1562 67.9219 75.1562 67.9219L76.0625 66.8281C76.0781 66.8125 76.0938 66.8125 76.1094 66.8125L77.2344 66.75C77.2656 66.75 77.2969 66.7812 77.2969 66.8125C77.2969 66.8281 77.2969 66.8438 77.2812 66.8594L75.5938 68.9375C75.5781 68.9531 75.5781 68.9844 75.5938 69L76.6875 71.125C76.7031 71.1562 76.6875 71.1875 76.6562 71.2031C76.6406 71.2031 76.6406 71.2031 76.625 71.2031H75.4844C75.4531 71.2031 75.4375 71.1875 75.4219 71.1719L74.8281 69.9844C74.8125 69.9531 74.7812 69.9375 74.75 69.9531C74.7656 69.9375 74.7656 69.9375 74.75 69.9531Z" fill="#EE4D2D"/>
<path d="M86.3593 70.25H88.2656C88.2968 70.25 88.3281 70.2813 88.3281 70.3125C88.3281 70.3125 88.3281 70.3125 88.3281 70.3281L88.2031 71.1406C88.2031 71.1719 88.1718 71.1875 88.1406 71.1875H85.2187C85.1874 71.1875 85.1562 71.1563 85.1562 71.125C85.1562 71.125 85.1562 71.125 85.1562 71.1094L85.8124 66.8281C85.8124 66.7969 85.8437 66.7813 85.8749 66.7813L88.7968 66.75C88.8281 66.75 88.8593 66.7813 88.8593 66.8125V66.8281L88.7187 67.6719C88.7187 67.7031 88.6874 67.7188 88.6562 67.7188H86.7187C86.6874 67.7188 86.6718 67.7344 86.6562 67.7656L86.5312 68.5469C86.5312 68.5781 86.5468 68.6094 86.5781 68.6094C86.5781 68.6094 86.5781 68.6094 86.5937 68.6094L88.4531 68.5781C88.4843 68.5781 88.5156 68.6094 88.5156 68.6406L88.4218 69.4531C88.4218 69.4844 88.3906 69.5 88.3593 69.5H86.4687C86.4374 69.5 86.4218 69.5156 86.4062 69.5469L86.2968 70.1719C86.2968 70.2031 86.3124 70.2344 86.3593 70.25C86.3593 70.2344 86.3593 70.2344 86.3593 70.25Z" fill="#EE4D2D"/>
<path d="M78.3906 70.0938L78.2499 71.0781C78.2499 71.125 78.2031 71.1719 78.1406 71.1719H77.3124C77.2656 71.1719 77.2343 71.1406 77.2499 71.0938L77.9218 66.8438C77.9374 66.7813 77.9687 66.7656 78.0156 66.7656C79.2812 66.75 81.1718 66.3906 81.0937 68.1563C81.0312 69.7656 79.8124 69.9844 78.4843 70C78.4374 70.0156 78.3906 70.0469 78.3906 70.0938ZM78.7499 67.8125L78.5781 68.9531C78.5624 69 78.5937 69.0313 78.6406 69.0313C79.3906 69.0469 80.4062 69.0781 80.0781 67.9375C80.0468 67.8438 79.9687 67.7656 79.8593 67.7656L78.9062 67.6875C78.8124 67.6719 78.7656 67.7188 78.7499 67.8125Z" fill="#EE4D2D"/>
<path d="M81.8594 66.7969C81.8594 66.7812 81.875 66.7656 81.8906 66.7656C82.8438 66.75 84.7969 66.4219 85 67.75C85.1406 68.6562 84.8125 69.3438 84 69.8281C83.9531 69.8594 83.9531 69.8906 83.9688 69.9219L84.625 71.0938C84.6562 71.1406 84.6406 71.1719 84.5781 71.1719H83.6406C83.5781 71.1719 83.5469 71.1406 83.5156 71.0938L82.9688 70.1094C82.875 69.9375 82.6406 69.8594 82.4688 69.9688C82.375 70.0312 82.2969 70.125 82.2812 70.2344L82.1562 71.0781C82.1406 71.1406 82.1094 71.1719 82.0469 71.1719H81.2656C81.1875 71.1719 81.1562 71.1406 81.1719 71.0625L81.8594 66.7969ZM82.6719 67.7812L82.4844 68.9844C82.4844 69.0312 82.5 69.0625 82.5625 69.0469C83.1562 69.0156 84.3125 69.0938 84.0469 68.0781C83.9219 67.625 83.125 67.6719 82.7656 67.7031C82.7188 67.7188 82.6875 67.7344 82.6719 67.7812Z" fill="#EE4D2D"/>
<path d="M89.0156 70.2344L89.2812 69.9063C89.3125 69.875 89.3438 69.8594 89.375 69.8906C89.8125 70.1406 90.2812 70.3906 90.7812 70.1719C91.0938 70.0313 91.1094 69.6875 90.7812 69.5469C89.9531 69.1563 88.7969 68.7344 89.4688 67.5469C90.0312 66.5625 91.4688 66.5938 92.2656 67.1719C92.3125 67.2031 92.3281 67.25 92.2812 67.2969L91.8125 67.8594C91.7812 67.9062 91.7344 67.9062 91.6875 67.8906C91.25 67.7031 90.75 67.4531 90.3437 67.8438C90.25 67.9375 90.25 68.0938 90.3281 68.1875C90.3438 68.2031 90.375 68.2188 90.3906 68.2344C91.2031 68.6406 92.5938 69.1094 91.875 70.375C91.25 71.4688 89.6094 71.4063 88.7812 70.5938C88.75 70.5625 88.7344 70.5156 88.7656 70.4844C88.7969 70.4063 88.8438 70.3438 88.9219 70.3125C88.9844 70.2656 89 70.25 89.0156 70.2344Z" fill="#EE4D2D"/>
<path d="M93.1719 67.4531C93.7344 66.5469 95.1407 66.6094 95.9219 67.1562C95.9688 67.1875 95.9844 67.2344 95.9376 67.2812L95.4375 67.875C95.3907 67.9219 95.3438 67.9219 95.2969 67.8906C94.9532 67.6562 94.5938 67.5781 94.1875 67.6562C94.0157 67.6875 93.8907 67.8594 93.9219 68.0469C93.9219 68.0625 93.9219 68.0625 93.9375 68.0781C93.9532 68.1562 94.0469 68.2187 94.1719 68.2812C94.5782 68.4687 94.9219 68.6562 95.2188 68.8437C96.9063 70 94.1876 72.2344 92.4376 70.5937C92.3907 70.5469 92.3907 70.4844 92.4219 70.4375L92.8907 69.8906C92.9376 69.8437 92.9844 69.8281 93.0313 69.875C93.375 70.1406 94.3282 70.4844 94.5938 69.9375C94.6719 69.7812 94.6094 69.5937 94.4532 69.5312C94.4532 69.5312 94.4375 69.5312 94.4375 69.5156C93.5782 69.1406 92.3907 68.7187 93.1719 67.4531Z" fill="#EE4D2D"/>
</g>
<rect x="1" y="1" width="110" height="110" rx="9" stroke="black" stroke-opacity="0.1" stroke-width="2"/>
<defs>
<clipPath id="clip0_755_291">
<rect x="2" y="2" width="108" height="108" rx="8" fill="white"/>
</clipPath>
</defs>
</svg>
