<svg width="112" height="112" viewBox="0 0 112 112" fill="none" xmlns="http://www.w3.org/2000/svg">
<g clip-path="url(#clip0_755_292)">
<rect x="2" y="2" width="108" height="108" rx="8" fill="white"/>
<path fill-rule="evenodd" clip-rule="evenodd" d="M20.9469 59.7525C22.2352 60.9771 23.9651 61.7236 25.8497 61.7236C27.7344 61.7236 29.4688 60.9771 30.7662 59.7525H31.7176C30.2655 61.4004 28.1714 62.4201 25.8543 62.4201C23.5372 62.4201 21.4431 61.4004 19.9909 59.7525H20.9514H20.9469ZM22.2807 59.7525C22.522 59.9209 22.786 60.0757 23.0501 60.2077C23.2321 60.0393 23.437 59.8845 23.6373 59.7525H24.4431C24.4066 59.7661 24.3702 59.7889 24.3475 59.8026C24.2154 59.8617 24.0971 59.9346 23.9742 60.0074C23.7921 60.1167 23.6236 60.2487 23.4552 60.3944C24.1881 60.7085 25.0075 60.8769 25.8452 60.8769C26.6828 60.8769 27.5022 60.7085 28.2351 60.3944C28.0667 60.2487 27.8983 60.1167 27.7162 60.0074C27.5978 59.9346 27.4749 59.8617 27.3429 59.8026C27.3201 59.7889 27.2837 59.7661 27.2473 59.7525H28.053C28.2579 59.8845 28.4627 60.0393 28.6403 60.2077C28.9043 60.062 29.1683 59.9209 29.4096 59.7525H30.0606C29.7101 60.0302 29.3413 60.2806 28.9407 60.4854C28.8087 60.5582 28.6767 60.6311 28.5447 60.6903C27.7162 61.0499 26.8012 61.2547 25.8406 61.2547C24.8801 61.2547 23.9651 61.0499 23.1365 60.6903C23.0045 60.6311 22.8725 60.5582 22.7405 60.4854C22.3444 60.2806 21.9712 60.0302 21.6206 59.7525H22.2807Z" fill="#ED1C24"/>
<path fill-rule="evenodd" clip-rule="evenodd" d="M19.1353 57.0848C19.545 58.1046 20.1684 59.0196 20.9514 59.7525H19.9909C19.3081 58.9831 18.7666 58.0818 18.4069 57.0848H19.1399H19.1353ZM20.0367 57.0848C20.3599 57.795 20.806 58.4323 21.3477 58.974C21.6345 58.6508 21.9623 58.3504 22.2992 58.0955C22.1307 57.7813 21.985 57.4445 21.853 57.0848H22.24C22.3492 57.3625 22.4676 57.6357 22.5996 57.8769C22.7316 57.8041 22.85 57.7222 22.982 57.6493L22.4767 57.0848H23.3189L23.5101 57.3853C23.6057 57.3489 23.7013 57.3125 23.8105 57.2669C23.7878 57.2078 23.7741 57.1486 23.7604 57.0848H24.0746C24.0882 57.1076 24.0882 57.144 24.0973 57.1668C24.1929 57.144 24.3022 57.1076 24.3978 57.0848H27.3067C27.4023 57.1076 27.5115 57.144 27.6071 57.1668C27.6208 57.144 27.6208 57.1076 27.6299 57.0848H27.944C27.9304 57.144 27.9213 57.2032 27.8939 57.2669C28.3264 57.4354 28.7225 57.6402 29.1094 57.8815C29.2414 57.6402 29.3598 57.3625 29.469 57.0894H29.856C29.724 57.449 29.5783 57.7859 29.4099 58.1C29.7467 58.3504 30.0699 58.6508 30.3613 58.9786C30.903 58.4369 31.3491 57.7996 31.6723 57.0894H32.0912C31.7315 57.9088 31.2262 58.6508 30.6117 59.2791C30.5297 59.361 30.4296 59.4475 30.334 59.5294C30.252 59.6023 30.1655 59.6842 30.0699 59.757H29.419C29.6466 59.6023 29.8742 59.4202 30.079 59.2381C29.815 58.9376 29.5146 58.6736 29.2004 58.446C28.8772 58.9649 28.4903 59.4065 28.0578 59.757H27.2521C27.1337 59.707 27.0108 59.6614 26.8924 59.6114C26.7832 59.5886 26.6876 59.5522 26.5783 59.5294C26.3507 59.4794 26.0958 59.4566 25.8454 59.4566C25.595 59.4566 25.3401 59.4794 25.1125 59.5294C25.0032 59.5522 24.9076 59.5886 24.7984 59.6114C24.68 59.6614 24.5571 59.707 24.4387 59.757H23.633C23.2005 59.4065 22.8136 58.9649 22.4904 58.446C22.1762 58.6736 21.8758 58.9376 21.6118 59.2381C21.8166 59.4202 22.0442 59.5977 22.2718 59.757H21.6209C21.5253 59.6842 21.4388 59.6023 21.3568 59.5294C21.2612 59.4475 21.1656 59.361 21.0791 59.2791C20.4646 58.6554 19.9593 57.9088 19.5996 57.0894H20.0185L20.0367 57.0848ZM33.3066 57.0848C32.947 58.0818 32.405 58.9831 31.7176 59.7525H30.7662C31.5355 59.0196 32.1594 58.1046 32.5692 57.0848H33.3066ZM22.7999 58.2366C23.1368 58.7783 23.5328 59.2199 23.979 59.5567C24.1702 59.4475 24.375 59.3655 24.5799 59.2927C24.3158 58.8739 24.0882 58.3185 23.9061 57.6812C23.8469 57.704 23.7878 57.7176 23.724 57.754L23.806 57.8724H23.4327C23.2142 57.9816 23.0002 58.1 22.7954 58.232L22.7999 58.2366ZM27.7255 59.5567C28.1716 59.2199 28.5677 58.7737 28.9045 58.2366C28.554 58.009 28.1853 57.8269 27.7983 57.6857C27.6162 58.3231 27.3886 58.8739 27.1246 59.2973C27.3295 59.3701 27.5343 59.452 27.7255 59.5613V59.5567ZM24.1929 57.5856C24.375 58.2457 24.6026 58.8011 24.8667 59.2062C25.1808 59.1243 25.5176 59.0742 25.8545 59.0742C26.1914 59.0742 26.5282 59.1243 26.8378 59.2062C27.1018 58.7965 27.3295 58.2457 27.5115 57.5856C26.9835 57.4172 26.4281 57.3352 25.8545 57.3352C25.2809 57.3352 24.7255 57.4172 24.1975 57.5856H24.1929Z" fill="#ED1C24"/>
<path fill-rule="evenodd" clip-rule="evenodd" d="M22.2582 53.0788L22.0078 53.4748L23.4873 53.5477C23.501 53.3929 23.5101 53.2336 23.5237 53.0788H23.8378C23.8242 53.2336 23.8242 53.3929 23.8151 53.5613L25.8682 53.6569L26.4326 53.0788H27.1291L26.4554 54.0985L27.0791 55.1182H26.4782L25.8181 54.5173L23.7969 54.5993C23.8196 55.5006 23.9152 56.3428 24.0745 57.0757H23.7604C23.6057 56.3291 23.5101 55.5006 23.4828 54.6129L21.8485 54.6858L23.3143 57.0757H22.4721L22.2081 56.7889H22.1353C22.1717 56.8845 22.1944 56.9801 22.2309 57.0757H21.8439C21.8075 56.9801 21.7847 56.8845 21.7483 56.7889H21.6527L21.3159 56.3428L21.6163 56.32C21.6026 56.2381 21.5799 56.1653 21.5662 56.0788L21.4479 55.9604H20.9198L20.5374 55.4688L20.9835 55.4323L20.3462 54.7358C20.023 54.7358 19.7225 54.7495 19.4312 54.7495L19.0488 54.7723L18.6027 54.7859L17.9198 54.836C17.4282 54.8587 16.9821 54.8861 16.5496 54.8952C16.3447 54.8952 15.8531 54.9316 16.0443 54.5219C16.1991 54.1987 16.5724 53.7525 16.9229 53.5841C17.3053 53.402 17.5739 53.2837 17.9563 53.27C18.7984 53.2472 20.542 53.4521 20.542 53.4521L20.8788 53.0788H22.2627H22.2582ZM28.1853 53.0788C28.208 53.2836 28.2217 53.4976 28.2217 53.7161H27.8985C27.8985 53.4976 27.8848 53.2836 27.8757 53.0788H28.1898H28.1853ZM30.2657 53.0788C30.2884 53.2836 30.3158 53.4976 30.3249 53.7161H29.9516C29.9379 53.4976 29.9152 53.2836 29.8924 53.0788H30.2657ZM32.5965 53.0788C32.6192 53.2836 32.6465 53.4976 32.6693 53.7161H32.2869C32.2641 53.4976 32.2368 53.2836 32.205 53.0788H32.601H32.5965ZM33.7254 53.0788C33.7482 53.2836 33.7755 53.4976 33.7846 53.7161H33.1109C33.0972 53.4976 33.0744 53.2836 33.038 53.0788H33.7209H33.7254ZM18.4024 57.0803C18.2203 56.5613 18.0792 56.0332 17.9927 55.4688H18.6755C18.7711 56.0332 18.9259 56.575 19.1307 57.0803H18.3978H18.4024ZM19.6178 57.0803C19.3993 56.575 19.2355 56.0332 19.1353 55.4688H19.5222C19.6315 56.0332 19.809 56.575 20.0412 57.0803H19.6178ZM24.4023 57.0803C24.8712 56.9619 25.3537 56.8982 25.8545 56.8982C26.3553 56.8982 26.8378 56.9574 27.3067 57.0803H24.3978H24.4023ZM27.6344 57.0803C27.7801 56.3701 27.8757 55.5644 27.8985 54.7131H28.2217C28.1989 55.5644 28.1033 56.361 27.944 57.0803H27.6299H27.6344ZM29.4736 57.0803C29.7376 56.3701 29.906 55.5644 29.9561 54.7131H30.3294C30.2793 55.5552 30.1109 56.361 29.8605 57.0803H29.4736ZM31.6723 57.0803C32.0092 56.361 32.2232 55.5552 32.2869 54.7131H32.6693C32.6101 55.5552 32.4053 56.3473 32.0912 57.0803H31.6723ZM32.5737 57.0803C32.8741 56.3473 33.0562 55.5416 33.1154 54.7131H33.7892C33.7391 55.5416 33.5707 56.3337 33.3066 57.0803H32.5737ZM28.1853 54.0257H36.252V54.399H28.1853V54.0257Z" fill="#ED1C24"/>
<path fill-rule="evenodd" clip-rule="evenodd" d="M20.8742 53.0788L21.1154 52.8011L20.6602 52.7647L21.0471 52.2731H21.5889C21.6116 52.1547 21.6481 52.0318 21.6708 51.9134L21.4523 51.8998L21.7892 51.4537H21.8119C21.944 51.0439 22.1124 50.6707 22.2945 50.3338C21.9576 50.0698 21.6344 49.783 21.343 49.4552C20.4918 50.3065 19.8636 51.4127 19.5904 52.6509H19.1944C19.8772 49.5007 22.5949 47.1563 25.8544 47.1563C29.1138 47.1563 32.0683 49.7147 32.5963 53.0697H32.2003C31.9727 51.6631 31.3126 50.4021 30.3612 49.4506C30.0744 49.7739 29.7466 50.0652 29.4097 50.3292C29.8285 51.1122 30.129 52.05 30.261 53.0697H29.8877C29.7694 52.1183 29.4917 51.267 29.1047 50.5341C28.7223 50.7845 28.3217 50.9893 27.8893 51.1487C28.0349 51.7359 28.1305 52.3732 28.1761 53.0697H27.8619C27.8119 52.4096 27.7163 51.7951 27.5979 51.2442C27.0471 51.4263 26.4553 51.5219 25.8453 51.5219C25.2353 51.5219 24.6435 51.4263 24.0926 51.2442C23.9743 51.7951 23.8741 52.4096 23.8286 53.0697H23.5145C23.5646 52.3732 23.6602 51.7359 23.8013 51.1487C23.7057 51.1122 23.6101 51.0758 23.5236 51.0394L22.249 53.0697H20.8651L20.8742 53.0788ZM26.428 53.0788L26.4507 53.0424H27.1336L27.1199 53.0788H26.4234H26.428ZM33.038 53.0788C32.51 49.4734 29.4917 46.7102 25.8498 46.7102C22.208 46.7102 19.4311 49.2594 18.7346 52.66H18.0517C18.7482 48.8634 21.9804 46 25.8498 46C29.7193 46 33.1837 49.0773 33.7209 53.0788H33.038ZM22.4993 49.9787C22.8225 49.4597 23.2095 49.0182 23.642 48.6813C23.4371 48.5356 23.2323 48.3945 23.0547 48.2261C22.5358 48.4765 22.0578 48.8133 21.6253 49.2003C21.8893 49.4871 22.1898 49.7511 22.5039 49.9833L22.4993 49.9787ZM23.9788 48.4264C24.0972 48.4992 24.2201 48.572 24.3521 48.6312C24.4978 48.7041 24.6526 48.7632 24.821 48.8133C24.9166 48.8497 25.0122 48.8725 25.1215 48.8953C25.3627 48.9453 25.604 48.9772 25.8544 48.9772C26.1048 48.9772 26.346 48.9408 26.5873 48.8953C26.6966 48.8725 26.7922 48.8452 26.8878 48.8133C27.0562 48.7632 27.211 48.7041 27.3566 48.6312C27.4887 48.572 27.607 48.4992 27.7299 48.4264C27.912 48.308 28.0805 48.176 28.2489 48.0303C27.516 47.7299 26.6966 47.5614 25.8589 47.5614C25.0213 47.5614 24.2019 47.7299 23.469 48.0303C23.6374 48.176 23.8058 48.308 23.9879 48.4264H23.9788ZM23.9788 48.8725C23.5327 49.2094 23.1367 49.6555 22.7998 50.1927C22.9546 50.2883 23.1002 50.3748 23.2687 50.4567L23.3415 50.3748H23.9561L23.7649 50.6889L23.9105 50.7481C24.0926 50.0971 24.3294 49.5599 24.5934 49.1365C24.3749 49.0637 24.1746 48.9818 23.9788 48.8725ZM22.5949 50.5432C22.4493 50.83 22.3172 51.1304 22.1989 51.4582H22.3537L22.9773 50.7754C22.8453 50.7025 22.7269 50.6297 22.5949 50.5477V50.5432ZM28.9044 50.1927C28.5676 49.6509 28.1715 49.2048 27.7254 48.8725C27.5342 48.9818 27.3293 49.0637 27.1108 49.1365C27.3748 49.5553 27.6161 50.0971 27.7937 50.7481C28.1761 50.6024 28.5493 50.4112 28.8999 50.1972L28.9044 50.1927ZM28.0622 48.6768C28.4947 49.0136 28.8817 49.4597 29.2049 49.9742C29.519 49.7465 29.8194 49.4825 30.0835 49.1912C29.651 48.8088 29.1685 48.4719 28.654 48.217C28.472 48.3854 28.2717 48.5311 28.0668 48.6722L28.0622 48.6768ZM24.8665 49.2185C24.6025 49.6145 24.3749 50.1699 24.1928 50.8391C24.7209 51.0075 25.2762 51.0895 25.8498 51.0895C26.4234 51.0895 26.9788 51.0075 27.5069 50.8391C27.3248 50.1654 27.0972 49.6145 26.8331 49.2185C26.519 49.3004 26.1821 49.3368 25.8498 49.3368C25.5175 49.3368 25.1761 49.3004 24.862 49.2185H24.8665Z" fill="#ED1C24"/>
<path fill-rule="evenodd" clip-rule="evenodd" d="M41.8832 60.8951L43.6495 50.9756H39.4204L40.0942 47.1198H54.8527L54.1426 50.9756H50.2504L48.4704 60.8951H41.8832Z" fill="#2B3C67"/>
<path fill-rule="evenodd" clip-rule="evenodd" d="M54.311 60.8951L55.9589 50.8573H57.8345C56.7055 50.5341 55.9225 49.8967 55.9225 49.1502C55.9225 48.094 57.5067 47.2291 59.4551 47.2291C61.4035 47.2291 62.9877 48.094 62.9877 49.1502C62.9877 49.8967 62.2047 50.5341 61.0757 50.8573H62.5552L60.8982 60.8951H54.311Z" fill="#2B3C67"/>
<path fill-rule="evenodd" clip-rule="evenodd" d="M62.7874 60.8951L65.1637 47.2291H71.7646L69.3746 60.8951H62.7874Z" fill="#2B3C67"/>
<path fill-rule="evenodd" clip-rule="evenodd" d="M82.8585 60.8951L84.5064 50.8573H86.3683C85.2393 50.5341 84.47 49.8967 84.47 49.1502C84.47 48.094 86.0451 47.2291 88.0026 47.2291C89.9601 47.2291 91.526 48.094 91.526 49.1502C91.526 49.8967 90.7567 50.5341 89.6277 50.8573H91.1072L89.4502 60.8951H82.8585Z" fill="#2B3C67"/>
<path fill-rule="evenodd" clip-rule="evenodd" d="M93.9615 48.7678H94.1892C94.3348 48.7678 94.4395 48.7541 94.5033 48.7086C94.5624 48.6585 94.5989 48.5902 94.5989 48.4901C94.5989 48.3899 94.5624 48.3217 94.4896 48.2716C94.4304 48.2215 94.3212 48.1987 94.1664 48.1987H93.9615V48.7678ZM93.479 47.8892H94.2483C94.526 47.8892 94.74 47.9393 94.8857 48.0349C95.0313 48.1305 95.0905 48.2761 95.0905 48.4673C95.0905 48.5993 95.0541 48.7086 94.9813 48.8042C94.8993 48.8861 94.7992 48.959 94.658 48.9863L95.1042 49.874H94.5761L94.1937 49.0682H93.9661V49.874H93.4836V47.8892H93.479ZM94.2119 47.434C94.0071 47.434 93.8295 47.4704 93.6474 47.5432C93.479 47.6161 93.3242 47.7117 93.1785 47.8573C93.0329 48.003 92.9282 48.1714 92.8417 48.349C92.7688 48.5311 92.7233 48.7223 92.7233 48.9135C92.7233 49.1183 92.7734 49.2959 92.8417 49.4779C92.9145 49.66 93.0238 49.8148 93.1558 49.9605C93.3015 50.1062 93.4562 50.2109 93.6474 50.2837C93.8295 50.3656 94.0207 50.4021 94.2119 50.4021C94.4031 50.4021 94.5852 50.3656 94.7627 50.2928C94.9539 50.2109 95.1133 50.1107 95.2681 49.9696C95.4001 49.8376 95.5093 49.6828 95.5822 49.5007C95.6641 49.3186 95.7005 49.1411 95.7005 48.9499C95.7005 48.7314 95.6641 48.5402 95.5913 48.3626C95.5184 48.1805 95.4092 48.0258 95.2772 47.8801C95.1315 47.7344 94.9631 47.6161 94.7855 47.5432C94.6034 47.4704 94.4122 47.434 94.2074 47.434H94.2119ZM94.2119 47.1335C94.4532 47.1335 94.6945 47.1836 94.9084 47.2655C95.1269 47.3611 95.3181 47.4931 95.4866 47.6752C95.655 47.83 95.787 48.0258 95.869 48.2397C95.9509 48.4582 96.001 48.6858 96.001 48.9226C96.001 49.1593 95.9509 49.3914 95.8553 49.6054C95.7734 49.8239 95.6368 50.0151 95.4729 50.1836C95.309 50.352 95.0996 50.4703 94.8857 50.5659C94.6671 50.6479 94.4395 50.698 94.2119 50.698C93.9706 50.698 93.743 50.6479 93.5291 50.5523C93.3106 50.4703 93.1194 50.3338 92.9418 50.1562C92.787 49.9878 92.655 49.7966 92.5685 49.5918C92.4866 49.3732 92.4365 49.1456 92.4365 48.918C92.4365 48.7496 92.4593 48.5948 92.4957 48.4355C92.5458 48.2807 92.605 48.135 92.7006 47.9893C92.8553 47.7117 93.0738 47.4977 93.3379 47.352C93.6019 47.1972 93.8887 47.1244 94.2165 47.1244L94.2119 47.1335Z" fill="#ED1C24"/>
<path fill-rule="evenodd" clip-rule="evenodd" d="M75.9343 47.4203H83.5776L77.077 54.0439L81.306 60.8951H73.3623L69.338 54.2943L75.9343 47.4203Z" fill="#ED1C24"/>
<path fill-rule="evenodd" clip-rule="evenodd" d="M37.5813 63.9224H38.2914L38.5919 65.1242L38.9879 63.9224H39.648L40.0441 65.1242L40.3582 63.9224H41.0547L40.3582 65.8344H39.7118L39.3112 64.6917L38.9424 65.8344H38.2914L37.5813 63.9224Z" fill="#2B3C67"/>
<path fill-rule="evenodd" clip-rule="evenodd" d="M42.1243 63.9224H42.8344L43.1485 65.1242L43.5309 63.9224H44.191L44.5871 65.1242L44.9012 63.9224H45.6113L44.9012 65.8344H44.2547L43.8678 64.6917L43.4945 65.8344H42.8344L42.1243 63.9224Z" fill="#2B3C67"/>
<path fill-rule="evenodd" clip-rule="evenodd" d="M46.6814 63.9224H47.3916L47.6921 65.1242L48.0881 63.9224H48.7345L49.1442 65.1242L49.4584 63.9224H50.1549L49.4584 65.8344H48.7983L48.4113 64.6917L48.038 65.8344H47.3916L46.6814 63.9224Z" fill="#2B3C67"/>
<path fill-rule="evenodd" clip-rule="evenodd" d="M51.2244 65.1014H52.0029V65.8344H51.2244V65.1014Z" fill="#2B3C67"/>
<path fill-rule="evenodd" clip-rule="evenodd" d="M54.3975 63.1986V63.9179H54.7935V64.4596H54.3975V65.1333C54.3975 65.2153 54.3975 65.279 54.4202 65.3018C54.443 65.3382 54.4794 65.3609 54.5386 65.3609C54.5978 65.3609 54.6706 65.3382 54.7662 65.3109L54.8254 65.8162C54.6433 65.8526 54.4658 65.8754 54.3064 65.8754C54.1243 65.8754 53.9923 65.8526 53.9104 65.8025C53.8284 65.7524 53.7556 65.6842 53.7192 65.584C53.6828 65.4884 53.66 65.3427 53.66 65.1288V64.455H53.3823V63.9133H53.66V63.5628L54.3929 63.1895L54.3975 63.1986Z" fill="#2B3C67"/>
<path fill-rule="evenodd" clip-rule="evenodd" d="M56.2364 63.1986H56.9693V63.6902H56.2364V63.1986ZM56.2364 63.9178H56.9693V65.8298H56.2364V63.9178Z" fill="#2B3C67"/>
<path fill-rule="evenodd" clip-rule="evenodd" d="M58.5081 63.1986H59.2501V64.5597L59.8055 63.9224H60.7069L60.0195 64.5961L60.7433 65.8343H59.9148L59.5278 65.0741L59.2501 65.3381V65.8343H58.5081V63.1986Z" fill="#2B3C67"/>
<path fill-rule="evenodd" clip-rule="evenodd" d="M62.0544 63.1986H62.7873V63.6902H62.0544V63.1986ZM62.0544 63.9178H62.7873V65.8298H62.0544V63.9178Z" fill="#2B3C67"/>
<path fill-rule="evenodd" clip-rule="evenodd" d="M64.3261 63.9224H65.0089V64.2365C65.1045 64.1181 65.2138 64.018 65.323 63.9588C65.4186 63.9087 65.5506 63.886 65.6963 63.886C65.9012 63.886 66.0559 63.9451 66.1788 64.068C66.2881 64.1864 66.3473 64.3685 66.3473 64.6189V65.8343H65.6144V64.7873C65.6144 64.6689 65.5916 64.5825 65.5415 64.5369C65.5051 64.4778 65.4323 64.455 65.3594 64.455C65.2638 64.455 65.191 64.4914 65.1409 64.5642C65.0817 64.6234 65.059 64.7463 65.059 64.9239V65.8389H64.3261V63.9224Z" fill="#2B3C67"/>
<path fill-rule="evenodd" clip-rule="evenodd" d="M69.9755 65.065H68.496C68.5187 65.1834 68.5461 65.2699 68.5916 65.329C68.6644 65.411 68.76 65.4474 68.8784 65.4474C68.9512 65.4474 69.0104 65.4337 69.0832 65.3973C69.1197 65.3746 69.1561 65.3245 69.2016 65.279L69.9209 65.3381C69.8116 65.5293 69.6796 65.675 69.5248 65.7569C69.37 65.8389 69.1424 65.8753 68.8511 65.8753C68.6007 65.8753 68.4049 65.8389 68.2638 65.7661C68.109 65.6932 67.9861 65.584 67.8905 65.4292C67.8086 65.2744 67.7585 65.0923 67.7585 64.8784C67.7585 64.5779 67.8541 64.3366 68.0362 64.1591C68.2274 63.9679 68.4914 63.8814 68.8283 63.8814C69.106 63.8814 69.32 63.9178 69.4793 63.9998C69.6341 64.0817 69.757 64.2046 69.8389 64.3594C69.9209 64.5142 69.9709 64.719 69.9709 64.974V65.0559L69.9755 65.065ZM69.2289 64.7145C69.2153 64.5688 69.1697 64.4732 69.1105 64.4004C69.0514 64.3412 68.9649 64.3184 68.8693 64.3184C68.7509 64.3184 68.6508 64.3685 68.5916 64.4504C68.5415 64.5096 68.5187 64.5961 68.5096 64.7145H69.2289Z" fill="#2B3C67"/>
<path fill-rule="evenodd" clip-rule="evenodd" d="M72.256 63.1986V63.9179H72.6521V64.4596H72.256V65.1333C72.256 65.2153 72.2697 65.279 72.2788 65.3018C72.3016 65.3382 72.338 65.3609 72.3972 65.3609C72.4563 65.3609 72.5292 65.3382 72.6248 65.3109L72.684 65.8162C72.5019 65.8526 72.3334 65.8754 72.1787 65.8754C71.9875 65.8754 71.8554 65.8526 71.7689 65.8025C71.687 65.7524 71.6233 65.6842 71.5777 65.584C71.5413 65.4884 71.5186 65.3427 71.5186 65.1288V64.455H71.2545V63.9133H71.5186V63.5628L72.2515 63.1895L72.256 63.1986Z" fill="#2B3C67"/>
<path fill-rule="evenodd" clip-rule="evenodd" d="M74.0726 65.1014H74.851V65.8344H74.0726V65.1014Z" fill="#2B3C67"/>
<path fill-rule="evenodd" clip-rule="evenodd" d="M77.7962 65.0878L78.4927 65.1697C78.4426 65.3154 78.3835 65.4337 78.3015 65.543C78.2196 65.6522 78.0967 65.7342 77.9646 65.7934C77.8326 65.8525 77.6505 65.8753 77.4457 65.8753C77.2408 65.8753 77.0724 65.8525 76.9404 65.8161C76.7947 65.7797 76.69 65.7205 76.5899 65.634C76.4897 65.5475 76.4078 65.4519 76.3622 65.3336C76.3031 65.2243 76.2803 65.0696 76.2803 64.8784C76.2803 64.6872 76.3167 64.5187 76.3759 64.3958C76.426 64.3002 76.4943 64.2046 76.5807 64.1318C76.6627 64.0589 76.7492 63.9998 76.8448 63.9633C76.9905 63.9042 77.168 63.8814 77.3865 63.8814C77.7006 63.8814 77.9373 63.9315 78.1058 64.0362C78.2605 64.1545 78.3835 64.3139 78.4563 64.5278L77.7598 64.6234C77.737 64.5415 77.7006 64.4778 77.6414 64.4322C77.5914 64.3958 77.5094 64.373 77.4138 64.373C77.2955 64.373 77.1953 64.4231 77.127 64.5051C77.0542 64.587 77.0087 64.7236 77.0087 64.9011C77.0087 65.0559 77.0587 65.1788 77.127 65.2607C77.1999 65.3427 77.2955 65.3791 77.4047 65.3791C77.5003 65.3791 77.5868 65.3563 77.646 65.3063C77.7188 65.2562 77.7643 65.1879 77.8008 65.0787L77.7962 65.0878Z" fill="#2B3C67"/>
<path fill-rule="evenodd" clip-rule="evenodd" d="M79.804 64.8829C79.804 64.5961 79.8996 64.3548 80.0908 64.1636C80.2956 63.9724 80.5597 63.886 80.8965 63.886C81.2698 63.886 81.5566 63.9952 81.7615 64.2092C81.9163 64.3913 81.9891 64.6189 81.9891 64.8692C81.9891 65.1697 81.8935 65.411 81.7023 65.6022C81.5111 65.7843 81.2334 65.8799 80.8965 65.8799C80.5824 65.8799 80.3457 65.7979 80.15 65.6386C79.9224 65.4474 79.7994 65.1925 79.7994 64.8829H79.804ZM80.5369 64.8829C80.5369 65.0513 80.5733 65.1834 80.6325 65.2699C80.7053 65.3518 80.7873 65.3882 80.8965 65.3882C81.0058 65.3882 81.0877 65.3518 81.1469 65.2699C81.2198 65.1879 81.2562 65.0513 81.2562 64.8829C81.2562 64.7145 81.2198 64.5825 81.1469 64.5096C81.0877 64.4277 81.0013 64.3913 80.8965 64.3913C80.8009 64.3913 80.7053 64.4277 80.6325 64.5096C80.5733 64.5916 80.5369 64.7145 80.5369 64.8829Z" fill="#2B3C67"/>
<path fill-rule="evenodd" clip-rule="evenodd" d="M83.3728 65.1014H84.1558V65.8344H83.3728V65.1014Z" fill="#2B3C67"/>
<path fill-rule="evenodd" clip-rule="evenodd" d="M85.6943 63.1986H86.4272V63.6902H85.6943V63.1986ZM85.6943 63.9178H86.4272V65.8298H85.6943V63.9178Z" fill="#2B3C67"/>
<path fill-rule="evenodd" clip-rule="evenodd" d="M89.9736 63.1986V65.8298H89.2908V65.5521C89.1952 65.6705 89.1087 65.7569 89.0267 65.7934C88.9175 65.8525 88.7991 65.8753 88.6762 65.8753C88.4122 65.8753 88.221 65.7797 88.0753 65.5749C87.9433 65.3837 87.8704 65.1424 87.8704 64.8556C87.8704 64.5415 87.9433 64.3048 88.0981 64.1363C88.2528 63.9679 88.4486 63.886 88.6762 63.886C88.7854 63.886 88.8947 63.8996 88.9903 63.936C89.0859 63.9861 89.1587 64.0316 89.2316 64.1181V63.2031H89.9781L89.9736 63.1986ZM89.2407 64.8692C89.2407 64.7236 89.2043 64.6052 89.1451 64.5324C89.0859 64.4595 88.9994 64.4231 88.9038 64.4231C88.8219 64.4231 88.749 64.4595 88.6853 64.5324C88.6261 64.6052 88.6034 64.7236 88.6034 64.892C88.6034 65.0468 88.6261 65.156 88.6853 65.2289C88.7445 65.3017 88.8173 65.3381 88.9129 65.3381C88.9949 65.3381 89.0813 65.3017 89.1405 65.2289C89.1997 65.156 89.2361 65.0377 89.2361 64.8692H89.2407Z" fill="#2B3C67"/>
</g>
<rect x="1" y="1" width="110" height="110" rx="9" stroke="black" stroke-opacity="0.1" stroke-width="2"/>
<defs>
<clipPath id="clip0_755_292">
<rect x="2" y="2" width="108" height="108" rx="8" fill="white"/>
</clipPath>
</defs>
</svg>
