<svg width="112" height="112" viewBox="0 0 112 112" fill="none" xmlns="http://www.w3.org/2000/svg">
<g clip-path="url(#clip0_755_306)">
<rect x="2" y="2" width="108" height="108" rx="8" fill="white"/>
<path fill-rule="evenodd" clip-rule="evenodd" d="M23.3813 56.0507C23.3813 52.6885 24.8987 49.9113 27.3392 48.1332C27.6976 47.8726 28.1212 47.5964 28.551 47.3745C28.7729 47.2613 28.9963 47.1418 29.2259 47.0472C29.4462 46.9572 29.7115 46.8641 29.9117 46.7726C29.8869 46.5786 29.3097 45.9595 29.3097 45.9595C28.9001 45.9952 27.693 46.5538 27.3113 46.7446C25.8265 47.4925 24.4208 48.5258 23.2432 49.6631L22.2099 50.7429C21.8236 51.213 21.6932 51.3325 21.2836 51.8942C20.9081 52.4093 20.5823 53.0454 20.3186 53.7234C19.6623 55.4146 19.2542 56.6372 19.2542 58.5937C19.2542 61.1118 20.6366 63.1195 22.6319 64.4103C24.3138 65.4995 25.8017 65.9727 27.8047 66.145C28.4005 66.1962 30.267 66.3498 30.8767 66.2505C30.8814 65.3878 30.7278 64.4833 30.7278 63.5725C30.7278 62.6618 30.748 59.6037 30.9217 58.9257C30.9978 58.9645 31.0024 59.011 31.0365 59.1212C31.5082 60.5905 32.45 62.7983 33.3654 63.9216C33.8138 64.4709 34.1567 64.6539 35.1124 64.6539C35.8401 64.6539 36.5662 64.6493 37.2923 64.5003C37.5406 64.4491 37.553 64.2071 37.6228 63.9666C37.6879 63.7432 37.7562 63.5477 37.8307 63.3165C38.1146 62.4446 38.4311 61.6316 38.7647 60.8123C39.5762 58.8171 41.407 55.3758 42.718 53.6257C42.8499 53.4503 42.9476 53.289 43.0702 53.1199C43.8863 51.9997 45.2067 50.3349 46.1624 49.3698L46.9956 48.5289C46.8435 48.3039 46.7365 48.2931 46.3843 48.3365L44.2261 48.6933C42.1967 49.1076 38.0619 50.0137 37.027 51.5544C36.4235 52.4527 34.5554 57.717 34.197 58.8264C34.1536 58.9583 33.4647 61.1614 33.3902 61.2763L33.3561 61.3119C33.1435 61.0994 32.45 59.5711 32.3072 59.1786C32.0342 58.4323 31.7316 57.4766 31.7316 56.5891C31.7316 55.2873 32.0109 54.9352 32.5012 53.9437C32.8006 53.3386 32.7106 53.3603 32.4298 52.7878C32.2359 52.3922 32.0543 52.1471 31.8232 51.8197C31.4772 51.3325 30.599 50.5614 29.7379 51.1463C27.5673 52.6203 26.9157 58.1577 26.7419 60.7922C26.7093 61.2856 26.6798 61.7929 26.6628 62.2848C26.6457 62.7626 26.669 63.3817 26.6178 63.8394C26.3587 63.7758 25.9894 63.4081 25.8281 63.2591C24.0003 61.571 23.3782 58.5394 23.3782 56.0538L23.3813 56.0507ZM90.3143 62.3003C89.416 62.3003 89.1181 61.3802 89.7806 60.8915C90.1312 60.6324 91.3445 60.3376 91.8876 60.3562L91.8953 61.7541C91.419 62.0148 90.9613 62.3003 90.3143 62.3003ZM88.2725 58.9707C89.5541 58.9707 89.4904 57.7589 90.0676 57.3804C90.4074 57.1585 90.9908 57.0918 91.4035 57.2888C91.8689 57.5107 91.8984 57.8846 91.8984 58.4866C91.9 58.7612 91.9201 58.7178 91.8736 58.9738C91.3662 59.0917 90.6075 59.1041 90.0536 59.1957C88.6573 59.4268 86.5162 59.9311 86.5162 61.7107C86.5162 63.1893 87.7946 64.0395 89.205 64.0395C89.8706 64.0395 90.3779 63.9309 90.9582 63.7137C91.6284 63.4624 91.7603 63.3057 92.2491 63.0853C92.3685 63.1583 92.5237 63.3538 92.6757 63.4686C93.5601 64.1435 94.9689 64.1823 96.0007 63.8084L96.0038 62.2584C95.8114 62.2708 94.6803 62.6695 94.6089 61.7122C94.5267 60.5982 94.7129 58.7736 94.5453 57.6658C94.415 56.8094 93.9976 56.4262 93.3538 56.0941C91.7184 55.2517 89.0545 55.4984 87.6364 56.5937C86.572 57.4145 86.8373 58.9707 88.2756 58.9707H88.2725ZM46.4277 61.7464C44.3068 63.0155 43.5962 61.7758 44.1221 61.0823C44.4107 60.7006 45.0996 60.5486 45.7109 60.4462C46.5363 60.3066 46.4386 60.2941 46.4324 60.6355C46.4246 61.0047 46.4401 61.3787 46.4277 61.7479V61.7464ZM42.853 58.9707C41.4644 58.9707 41.0051 57.6115 42.1734 56.5891C43.4581 55.4642 46.2989 55.2625 47.9824 56.15C48.6821 56.5177 49.0265 56.977 49.1088 57.9637C49.1832 58.8605 49.1305 59.9621 49.1305 60.8853C49.1305 61.3057 49.0529 61.9372 49.3198 62.156C49.8271 62.5733 50.1607 62.1979 50.5408 62.2863C50.5532 62.5082 50.5672 63.6811 50.53 63.7696C50.4539 63.8549 50.5315 63.799 50.4058 63.8549L49.9109 63.962C48.9862 64.1264 47.9668 64.0504 47.2112 63.4732C47.0421 63.3429 46.9785 63.2048 46.7908 63.0869C46.6077 63.1521 46.361 63.3119 46.1655 63.4112C45.4208 63.7851 44.6605 64.038 43.7824 64.038C42.4015 64.038 41.0455 63.1986 41.0455 61.8519C41.0455 58.9009 45.8366 59.2469 46.4246 58.9474C46.465 57.9575 46.5022 57.1694 45.323 57.1694C45.0407 57.1694 44.7397 57.2811 44.5442 57.4192C44.0787 57.7512 44.0259 58.9691 42.8514 58.9691L42.853 58.9707ZM69.1049 60.3593C69.1095 60.727 69.1002 61.0947 69.108 61.4609C69.1126 61.6952 69.1095 61.7634 68.9327 61.8565C68.8241 61.9139 68.6875 61.9791 68.5712 62.0319C66.6612 62.8961 65.9941 61.3337 67.2741 60.7348C67.5828 60.5905 68.7434 60.3345 69.1049 60.3593ZM73.1947 63.782C73.2847 63.6191 73.2304 63.1148 73.2304 62.8914C73.2304 62.2149 73.2816 62.2227 72.993 62.2925C72.4345 62.429 71.8682 62.3251 71.8232 61.7448C71.7316 60.592 71.8651 59.2981 71.8014 58.1251C71.7332 56.8559 71.2569 56.3719 70.2747 55.9576C69.3671 55.5744 68.1383 55.517 67.091 55.6799C63.5349 56.2338 63.6109 58.8683 65.3843 58.966C66.821 59.0452 66.6426 57.6767 67.3998 57.309C67.8357 57.098 68.4843 57.1352 68.8225 57.4098C69.1871 57.7062 69.1282 58.4121 69.1018 58.9459C68.9699 59.0141 67.5301 59.1476 67.212 59.2003C66.6162 59.2996 66.0329 59.4408 65.4945 59.6316C64.5201 59.9745 63.5147 60.7689 63.7599 62.1575C63.9507 63.2436 64.9732 63.9232 66.1803 64.0209C67.9164 64.1621 69.1406 63.1691 69.4679 63.0869C69.6215 63.1846 69.6758 63.2777 69.7938 63.3894C70.7666 64.3126 72.9418 64.0488 73.1947 63.782ZM79.5746 63.7168C79.5793 63.6796 79.5746 63.5803 79.5746 63.5368C79.5746 63.4174 79.5746 63.2979 79.5746 63.1784C79.5746 63.0031 79.5963 62.6075 79.5746 62.4585C79.525 62.1079 78.7383 62.5733 78.6158 61.9838C78.4932 61.3957 78.5692 59.8923 78.5692 59.2034C78.5692 58.3175 78.4699 58.3594 78.895 58.0987C79.4132 57.7807 80.4217 57.2407 81.0299 57.6364C81.3434 57.8396 81.3434 58.2694 81.3449 58.7007C81.348 59.6472 81.3294 60.5982 81.3294 61.5323C81.3294 62.1265 81.2875 62.3034 80.6793 62.3142C80.279 62.322 80.3178 62.2863 80.3224 62.6773C80.3256 62.9038 80.3224 63.1319 80.3224 63.3584C80.3224 63.8549 80.2619 63.8828 80.4962 63.8937C81.1929 63.9263 85.3354 63.8937 85.4068 63.8704C85.4968 63.6997 85.4332 63.0652 85.4363 62.713C85.4394 62.3577 85.4146 62.4523 85.4068 62.384C85.396 62.2754 84.6885 62.322 84.51 62.2972C84.2059 62.2553 84.1485 62.0443 84.1299 61.7433C84.0259 60.1374 84.4107 57.4843 83.7063 56.5332C83.1974 55.8443 82.1222 55.4332 80.9275 55.5527C79.4164 55.7047 78.532 56.5518 78.2465 56.5658L78.2201 55.5759C78.0758 55.4968 78.0976 55.5402 78.0976 55.5402C77.4676 55.4503 76.9758 55.7047 76.3738 55.8707C75.6337 56.0755 74.9495 56.1267 74.5228 56.24C74.4809 56.4293 74.484 57.5991 74.5228 57.8008C74.7897 57.8039 75.5546 57.7527 75.7392 57.8319C75.7532 57.852 75.7609 57.8582 75.7765 57.9048L75.7951 58.1623C75.7904 58.8636 75.8587 61.8022 75.7128 62.0799C75.4724 62.5376 74.5911 62.1218 74.5151 62.4306L74.512 63.8735C75.1341 63.8797 79.2891 63.9744 79.5312 63.8627L79.5762 63.7184L79.5746 63.7168ZM52.8557 54.2168C52.955 54.3921 52.896 60.1561 52.896 61.1723C52.896 62.5423 52.7766 62.1265 51.6548 62.2708C51.5928 62.4787 51.6036 63.6408 51.6548 63.8704C51.8829 63.9232 56.5902 63.9185 56.6647 63.8409C56.7376 63.7556 56.7376 62.3794 56.6601 62.3065C56.477 62.1156 55.9029 62.4027 55.7555 61.9853C55.664 61.7262 55.6593 58.4013 55.7214 58.2694C55.9215 58.0196 56.8478 57.6209 57.2884 57.5495C58.2178 57.3974 58.4769 57.7589 58.4754 58.6278C58.4754 59.0234 58.5421 61.7867 58.4055 62.035C58.2411 62.3344 57.8097 62.201 57.47 62.2785C57.4669 62.5532 57.4544 62.8262 57.4544 63.1055L57.4638 63.7541C57.4839 63.8983 57.4281 63.844 57.546 63.8828C57.5941 63.8983 62.4069 63.9123 62.5543 63.8673C62.6614 63.6641 62.6086 62.5516 62.5745 62.2584C62.0221 62.218 61.3178 62.4135 61.279 61.7774C61.1998 60.44 61.5086 57.5526 60.9469 56.6899C60.1619 55.4844 58.3776 55.3137 56.9983 55.8304C56.7702 55.9157 56.5809 55.9886 56.3653 56.0926C56.162 56.1903 55.9215 56.361 55.6997 56.3951V51.9205C54.4367 51.9205 55.1225 51.8786 54.055 52.1719C53.543 52.3131 53.031 52.4294 52.4926 52.5086C52.3871 52.5241 51.7184 52.5923 51.6812 52.6203C51.6005 52.6808 51.6222 53.8134 51.6331 54.0104C51.644 54.2152 51.6967 54.1749 51.9139 54.1702C52.1761 54.1656 52.6556 54.0958 52.8557 54.2152V54.2168ZM31.7037 44.045C31.4275 44.1799 30.9047 44.287 30.7107 44.4809C30.6238 44.6656 31.2289 47.1651 30.6657 46.4964C30.5587 46.3692 30.5369 46.3428 30.4066 46.2171C30.0591 45.8835 29.2368 44.8781 28.8892 44.5104C28.7651 44.3785 28.6968 44.4065 28.5231 44.4794C28.3896 44.5352 28.2795 44.5771 28.1429 44.6376C27.0724 45.1155 25.676 46.048 24.8413 46.7074C23.9833 47.3854 23.2711 47.989 22.5497 48.7135C21.054 50.2169 19.864 51.5838 18.7903 53.5512C17.7554 55.4487 16.9005 57.9063 17.2217 60.5191C17.5444 63.1381 18.8927 64.7858 20.4551 65.875C25.1143 69.1254 32.7991 67.7322 37.6585 65.4344L39.8042 64.356C40.0571 64.2195 40.2743 64.0737 40.5257 63.9573C41.0284 64.294 41.2332 64.6198 41.9516 64.9751C42.5799 65.2854 43.4038 65.2032 44.1594 65.242C44.1764 65.439 43.0531 66.0519 42.9088 66.1341C42.4372 66.3994 41.9779 66.6508 41.4551 66.9021C38.1813 68.4738 34.6935 69.3768 30.931 69.6328C28.1476 69.8221 25.6341 69.5304 23.1936 68.6895C18.3357 67.0169 15.5492 63.5989 16.0612 58.3097C16.176 57.1275 16.5328 55.7807 16.9595 54.8048C17.667 53.1881 18.4117 51.9733 19.4606 50.6762C19.805 50.2495 20.1308 49.8756 20.4861 49.4815C21.7848 48.0464 23.6792 46.4964 25.2447 45.3932C26.0701 44.8114 27.0212 44.1986 27.9738 43.6835C27.8233 43.3731 26.7574 42.3647 26.7202 42.1521C27.1655 41.5935 28.8923 42.737 29.215 42.9635C29.8201 43.3887 29.862 43.128 30.6347 43.3359C31.0691 43.4523 31.5889 43.7378 31.7021 44.045H31.7037ZM31.592 44.9666C34.4158 43.8976 37.9377 43.0303 41.3123 43.0303H42.0648C45.306 43.0303 49.1088 43.8805 51.5804 45.8184C52.5749 46.5988 53.6532 47.8478 54.19 49.3698C54.2598 49.5684 54.5733 50.3752 54.4212 50.5304C54.2676 50.6871 53.7044 51.0113 53.4624 51.1153C52.6773 51.4535 51.9108 51.6521 50.952 51.6521C50.8977 51.9112 50.8853 55.0981 50.9023 55.593L52.0753 55.6023C52.1451 55.8521 52.0986 57.1244 52.0986 57.4828C52.0986 58.5331 52.218 58.3113 51.6905 58.9428C51.3911 59.3012 51.1289 59.613 50.8263 59.9761C50.696 60.1328 50.5563 60.3034 50.4058 60.4865L50.0754 60.8775C49.9575 60.9892 50.0257 60.938 49.9869 60.9147C49.8861 60.7518 49.9559 60.291 49.9559 60.0614C49.9559 59.3834 49.99 57.8862 49.9342 57.3757C49.8488 56.5813 49.4718 55.7404 48.7379 55.4301C48.6262 55.382 48.5487 55.3789 48.4478 55.2982C48.4509 55.0608 48.6681 54.3611 48.724 54.0415C49.056 52.1424 48.9288 50.6017 47.8241 49.0037L46.859 47.854C46.5379 47.5312 46.0491 47.1884 45.6582 46.9432C43.9298 45.8571 41.4194 45.19 38.985 45.19C36.9991 45.19 35.1372 45.3607 33.2242 45.8122C32.9604 45.8742 32.7277 45.9254 32.4733 45.9921C32.2529 46.0495 31.9147 46.1706 31.7052 46.1706L31.5935 44.9666H31.592Z" fill="#163AC9"/>
<path fill-rule="evenodd" clip-rule="evenodd" d="M47.1135 67.2481V68.3807H46.5673V65.3102C46.9304 65.2947 47.1445 65.287 47.205 65.287C47.6906 65.287 48.0459 65.3614 48.2709 65.5104C48.4959 65.6593 48.6076 65.8921 48.6076 66.207C48.6076 66.9114 48.1918 67.2636 47.3602 67.2636C47.2981 67.2636 47.2159 67.259 47.1119 67.2481H47.1135ZM47.1135 65.7834V66.7625C47.2066 66.7718 47.2795 66.778 47.3322 66.778C47.582 66.778 47.7636 66.7361 47.8784 66.6539C47.9932 66.5716 48.0506 66.4366 48.0506 66.2505C48.0506 65.9324 47.793 65.7741 47.2795 65.7741C47.2221 65.7741 47.1662 65.7772 47.1135 65.785V65.7834ZM51.5059 66.6228C51.4128 66.5592 51.3104 66.5282 51.1987 66.5282C51.0776 66.5282 50.969 66.584 50.8744 66.6942C50.7797 66.8044 50.7332 66.9393 50.7332 67.0991V68.3792H50.2088V66.131H50.7332V66.3373C50.8806 66.1713 51.0761 66.0875 51.3197 66.0875C51.4981 66.0875 51.6362 66.1155 51.7308 66.1698L51.5074 66.6197L51.5059 66.6228ZM55.1969 67.4172H53.5911C53.6004 67.5956 53.6625 67.7353 53.7757 67.8361C53.889 67.9354 54.0411 67.9851 54.2334 67.9851C54.4739 67.9851 54.6555 67.923 54.7796 67.8004L54.9828 68.2007C54.7982 68.3497 54.5236 68.4242 54.1559 68.4242C53.813 68.4242 53.543 68.3233 53.3429 68.1232C53.1443 67.923 53.045 67.6422 53.045 67.2822C53.045 66.9223 53.1551 66.6399 53.3723 66.4211C53.5911 66.2008 53.8533 66.0922 54.1605 66.0922C54.4863 66.0922 54.7486 66.19 54.944 66.3839C55.1411 66.5794 55.2404 66.8261 55.2404 67.1271C55.2404 67.1922 55.2249 67.2884 55.1954 67.4188L55.1969 67.4172ZM53.6128 67.0216H54.7129C54.6756 66.6926 54.4957 66.5282 54.1698 66.5282C53.8719 66.5282 53.6858 66.6926 53.6128 67.0216ZM56.6725 68.2349L56.8586 67.816C57.0153 67.9416 57.1922 68.0052 57.3893 68.0052C57.5863 68.0052 57.6949 67.9323 57.6949 67.7865C57.6949 67.7011 57.6639 67.6298 57.6018 67.5755C57.5398 67.5212 57.4218 67.456 57.2434 67.3815C56.8555 67.2202 56.6631 66.9952 56.6631 66.7051C56.6631 66.5096 56.7376 66.3591 56.885 66.2505C57.034 66.1419 57.2217 66.0875 57.4529 66.0875C57.6841 66.0875 57.9059 66.1403 58.1107 66.2443L57.9602 66.6508C57.8454 66.553 57.6872 66.5049 57.4823 66.5049C57.2993 66.5049 57.2077 66.5778 57.2077 66.7237C57.2077 66.7811 57.2372 66.8338 57.2977 66.8804C57.3582 66.9269 57.4855 66.989 57.6825 67.0666C57.8795 67.1441 58.0223 67.2388 58.1092 67.3489C58.1961 67.4607 58.2395 67.5941 58.2395 67.7492C58.2395 67.9587 58.1619 68.1232 58.0068 68.2426C57.8532 68.3621 57.6437 68.4226 57.3768 68.4226C57.2279 68.4226 57.1069 68.4102 57.0169 68.3854C56.9269 68.3605 56.8105 68.3109 56.6693 68.2349H56.6725ZM59.8857 66.553H59.6235V66.1325H59.8857V65.6764L60.4101 65.484V66.1325H61.0291V66.553H60.4101V67.5382C60.4101 67.6996 60.4349 67.8129 60.4861 67.8796C60.5373 67.9463 60.6257 67.9789 60.7514 67.9789C60.8771 67.9789 60.9966 67.9447 61.1052 67.8749V68.3574C60.9842 68.3993 60.8088 68.4211 60.5823 68.4211C60.3558 68.4211 60.1851 68.3574 60.0657 68.2318C59.9446 68.1045 59.8841 67.9246 59.8841 67.6903V66.5515L59.8857 66.553ZM63.9103 68.1557C63.8638 68.2333 63.78 68.2985 63.6621 68.3481C63.5442 68.3978 63.4201 68.4226 63.2913 68.4226C63.0492 68.4226 62.86 68.3621 62.7219 68.2411C62.5838 68.1201 62.514 67.9478 62.514 67.726C62.514 67.4653 62.6117 67.2605 62.8057 67.1147C63.0011 66.9673 63.2773 66.8943 63.6357 66.8943C63.6978 66.8943 63.7692 66.9037 63.8529 66.9238C63.8529 66.6601 63.6854 66.5282 63.3518 66.5282C63.1547 66.5282 62.9887 66.5608 62.8569 66.6275L62.7436 66.2194C62.9236 66.1341 63.1392 66.0907 63.3875 66.0907C63.7304 66.0907 63.9817 66.1682 64.1415 66.3249C64.3013 66.4816 64.3805 66.7764 64.3805 67.2109V67.6918C64.3805 67.9913 64.441 68.179 64.5604 68.2566C64.517 68.3326 64.4689 68.3792 64.4161 68.3978C64.3634 68.4164 64.3029 68.4242 64.2331 68.4242C64.157 68.4242 64.0888 68.3962 64.0283 68.3404C63.9677 68.2845 63.9274 68.224 63.9072 68.1573L63.9103 68.1557ZM63.8591 67.3179C63.7691 67.3008 63.7024 67.2915 63.6574 67.2915C63.2447 67.2915 63.0384 67.4281 63.0384 67.7011C63.0384 67.9044 63.1547 68.0052 63.3875 68.0052C63.7024 68.0052 63.8591 67.847 63.8591 67.5289V67.3179ZM65.9599 68.2349L66.1461 67.816C66.3028 67.9416 66.4797 68.0052 66.6767 68.0052C66.8738 68.0052 66.9824 67.9323 66.9824 67.7865C66.9824 67.7011 66.9513 67.6298 66.8893 67.5755C66.8272 67.5212 66.7093 67.456 66.5309 67.3815C66.143 67.2202 65.9506 66.9952 65.9506 66.7051C65.9506 66.5096 66.0251 66.3591 66.1725 66.2505C66.3214 66.1419 66.5092 66.0875 66.7403 66.0875C66.9715 66.0875 67.1934 66.1403 67.3982 66.2443L67.2477 66.6508C67.1329 66.553 66.9746 66.5049 66.7698 66.5049C66.5867 66.5049 66.4952 66.5778 66.4952 66.7237C66.4952 66.7811 66.5247 66.8338 66.5852 66.8804C66.6457 66.9269 66.7729 66.989 66.97 67.0666C67.167 67.1441 67.3097 67.2388 67.3966 67.3489C67.4835 67.4607 67.527 67.5941 67.527 67.7492C67.527 67.9587 67.4494 68.1232 67.2942 68.2426C67.1406 68.3621 66.9312 68.4226 66.6643 68.4226C66.5154 68.4226 66.3943 68.4102 66.3044 68.3854C66.2144 68.3605 66.098 68.3109 65.9568 68.2349H65.9599ZM69.5052 65.259C69.5889 65.259 69.6619 65.2885 69.7208 65.349C69.7798 65.408 69.8108 65.4794 69.8108 65.5647C69.8108 65.65 69.7813 65.7214 69.7208 65.7803C69.6619 65.8393 69.5905 65.8703 69.5052 65.8703C69.4198 65.8703 69.3485 65.8409 69.2895 65.7803C69.2305 65.7214 69.1995 65.6485 69.1995 65.5647C69.1995 65.4809 69.229 65.408 69.2895 65.349C69.3485 65.2901 69.4214 65.259 69.5052 65.259ZM69.2352 68.3792V66.5608H68.9466V66.131H69.7674V68.3792H69.2352ZM72.8534 68.3792V65.3071H73.3995V67.8935H74.7881V68.3792H72.8534ZM76.2 67.2496C76.2 66.9068 76.2993 66.6275 76.4964 66.4118C76.6934 66.1962 76.9556 66.0875 77.2799 66.0875C77.6212 66.0875 77.885 66.1915 78.0743 66.3979C78.262 66.6042 78.3566 66.8881 78.3566 67.2481C78.3566 67.608 78.2604 67.892 78.0681 68.103C77.8757 68.314 77.6119 68.4195 77.2783 68.4195C76.9447 68.4195 76.6717 68.3124 76.4824 68.0999C76.2931 67.8858 76.1985 67.6018 76.1985 67.2481L76.2 67.2496ZM76.7461 67.2496C76.7461 67.7446 76.9246 67.9913 77.2799 67.9913C77.4428 67.9913 77.5716 67.9261 77.6678 67.7989C77.7624 67.6701 77.8105 67.487 77.8105 67.2496C77.8105 66.7625 77.6336 66.5173 77.2783 66.5173C77.1139 66.5173 76.9851 66.5825 76.8889 66.7097C76.7927 66.8385 76.7446 67.0185 76.7446 67.2496H76.7461ZM79.7592 68.9548L80.0912 68.5452C80.2743 68.7143 80.4791 68.7981 80.7041 68.7981C80.8546 68.7981 80.9803 68.7748 81.078 68.7298C81.1758 68.6848 81.2254 68.6228 81.2254 68.5436C81.2254 68.4102 81.1168 68.3419 80.8996 68.3419C80.8406 68.3419 80.7522 68.3497 80.6374 68.3636C80.521 68.3776 80.4341 68.3854 80.3752 68.3854C80.0137 68.3854 79.8337 68.255 79.8337 67.9959C79.8337 67.9215 79.8632 67.8485 79.9237 67.7772C79.9842 67.7058 80.054 67.653 80.1331 67.6189C79.8771 67.4529 79.7484 67.2186 79.7484 66.9145C79.7484 66.674 79.8368 66.477 80.0137 66.3187C80.1905 66.162 80.4078 66.0844 80.6653 66.0844C80.867 66.0844 81.0361 66.1217 81.1727 66.1977L81.379 65.9603L81.7421 66.2877L81.4907 66.4692C81.5776 66.5996 81.6211 66.7547 81.6211 66.9331C81.6211 67.1876 81.5435 67.3908 81.3868 67.5444C81.2301 67.6965 81.033 67.7741 80.7941 67.7741C80.7569 67.7741 80.7057 67.771 80.6436 67.7648L80.5567 67.7539C80.5474 67.7539 80.5102 67.7694 80.445 67.7989C80.3798 67.8299 80.3488 67.861 80.3488 67.892C80.3488 67.9478 80.3969 67.9758 80.4931 67.9758C80.5365 67.9758 80.6095 67.9649 80.7119 67.9432C80.8143 67.9215 80.9011 67.9106 80.9741 67.9106C81.4845 67.9106 81.7405 68.1154 81.7405 68.5266C81.7405 68.7531 81.6381 68.9315 81.4333 69.0618C81.2285 69.1922 80.9818 69.2558 80.6932 69.2558C80.3488 69.2558 80.0369 69.1534 79.7592 68.9517V68.9548ZM80.2836 66.9192C80.2836 67.0511 80.3209 67.1566 80.3953 67.2357C80.4698 67.3148 80.5691 67.3552 80.6932 67.3552C80.8174 67.3552 80.9151 67.3164 80.9818 67.2388C81.0485 67.1612 81.0827 67.0542 81.0827 66.9192C81.0827 66.8075 81.0454 66.7128 80.9741 66.6352C80.9011 66.5577 80.8081 66.5189 80.6932 66.5189C80.5722 66.5189 80.4745 66.5561 80.3985 66.6306C80.3224 66.7051 80.2852 66.8013 80.2852 66.9192H80.2836ZM83.6412 65.259C83.7249 65.259 83.7979 65.2885 83.8568 65.349C83.9158 65.408 83.9468 65.4794 83.9468 65.5647C83.9468 65.65 83.9173 65.7214 83.8568 65.7803C83.7963 65.8393 83.7265 65.8703 83.6412 65.8703C83.5558 65.8703 83.4845 65.8409 83.4255 65.7803C83.3665 65.7214 83.3355 65.6485 83.3355 65.5647C83.3355 65.4809 83.365 65.408 83.4255 65.349C83.4845 65.2901 83.5574 65.259 83.6412 65.259ZM83.3712 68.3792V66.5608H83.0826V66.131H83.9034V68.3792H83.3712ZM85.5263 68.2349L85.7124 67.816C85.8691 67.9416 86.046 68.0052 86.2431 68.0052C86.4401 68.0052 86.5487 67.9323 86.5487 67.7865C86.5487 67.7011 86.5177 67.6298 86.4556 67.5755C86.3936 67.5212 86.2757 67.456 86.0972 67.3815C85.7093 67.2202 85.5169 66.9952 85.5169 66.7051C85.5169 66.5096 85.5914 66.3591 85.7388 66.2505C85.8878 66.1419 86.0755 66.0875 86.3067 66.0875C86.5379 66.0875 86.7597 66.1403 86.9645 66.2443L86.814 66.6508C86.6992 66.553 86.541 66.5049 86.3362 66.5049C86.1531 66.5049 86.0615 66.5778 86.0615 66.7237C86.0615 66.7811 86.091 66.8338 86.1515 66.8804C86.212 66.9269 86.3393 66.989 86.5363 67.0666C86.7333 67.1441 86.8761 67.2388 86.963 67.3489C87.0499 67.4607 87.0933 67.5941 87.0933 67.7492C87.0933 67.9587 87.0157 68.1232 86.8606 68.2426C86.707 68.3621 86.4975 68.4226 86.2307 68.4226C86.0817 68.4226 85.9607 68.4102 85.8707 68.3854C85.7807 68.3605 85.6643 68.3109 85.5232 68.2349H85.5263ZM88.7395 66.553H88.4773V66.1325H88.7395V65.6764L89.2639 65.484V66.1325H89.883V66.553H89.2639V67.5382C89.2639 67.6996 89.2887 67.8129 89.3399 67.8796C89.3911 67.9463 89.4796 67.9789 89.6052 67.9789C89.7309 67.9789 89.8504 67.9447 89.959 67.8749V68.3574C89.838 68.3993 89.6626 68.4211 89.4377 68.4211C89.2127 68.4211 89.0405 68.3574 88.921 68.2318C88.8 68.1045 88.7395 67.9246 88.7395 67.6903V66.5515V66.553ZM91.9232 65.259C92.007 65.259 92.0799 65.2885 92.1389 65.349C92.1978 65.408 92.2289 65.4794 92.2289 65.5647C92.2289 65.65 92.1994 65.7214 92.1389 65.7803C92.0784 65.8393 92.0086 65.8703 91.9232 65.8703C91.8379 65.8703 91.7665 65.8409 91.7076 65.7803C91.6486 65.7214 91.6176 65.6485 91.6176 65.5647C91.6176 65.4809 91.647 65.408 91.7076 65.349C91.7665 65.2901 91.8394 65.259 91.9232 65.259ZM91.6533 68.3792V66.5608H91.3647V66.131H92.1854V68.3792H91.6533ZM95.3816 68.3792L94.7222 67.3614L94.4708 67.6282V68.3792H93.9464V65.2947L94.4708 65.169V66.9967L95.2187 66.1325H95.8501L95.0914 66.9843L96.0053 68.3792H95.3816Z" fill="#E30707"/>
</g>
<rect x="1" y="1" width="110" height="110" rx="9" stroke="black" stroke-opacity="0.1" stroke-width="2"/>
<defs>
<clipPath id="clip0_755_306">
<rect x="2" y="2" width="108" height="108" rx="8" fill="white"/>
</clipPath>
</defs>
</svg>
