<svg width="112" height="112" viewBox="0 0 112 112" fill="none" xmlns="http://www.w3.org/2000/svg">
<g clip-path="url(#clip0_755_297)">
<rect x="2" y="2" width="108" height="108" rx="8" fill="white"/>
<g clip-path="url(#clip1_755_297)">
<path d="M40.904 47.9078L33.2566 59.8482H27.7359L26.0181 57.9259L29.6989 54.2248L32.2141 58.1507L30.8035 55.309C30.8035 55.309 34.0009 50.1814 34.6515 49.1672C35.302 48.1529 35.5878 47.9078 36.733 47.9078H40.904Z" fill="#264FB5"/>
<path d="M32.1319 49.288L25.405 59.8482H19.8855L16.1538 53.878H21.4588L24.3625 58.1507L22.9519 55.309C22.9519 55.309 25.2288 51.5616 25.8794 50.5473C26.5299 49.5331 26.8157 49.288 27.9609 49.288H32.1319Z" fill="#264FB5"/>
<path d="M16 53.0445H21.4585C21.4585 53.0445 25.2422 42.8367 40.433 47.2324C40.433 47.2324 35.0513 42.5238 26.0181 44.4721C17.6761 46.2713 16 53.0445 16 53.0445Z" fill="#264FB5"/>
<path d="M46.7509 50.5247H41.8435C40.9027 50.5247 40.7592 50.7088 40.1459 51.6496C39.5327 52.5905 34.9731 59.8482 34.9731 59.8482H39.0628L40.0443 58.3347H43.1322L43.2338 59.8482H47.3438L46.7509 50.5247ZM42.9887 56.0962H41.3782L42.9887 53.7199V56.0962Z" fill="#264FB5"/>
<path d="M71.1176 50.5247H66.2102C65.2694 50.5247 65.1259 50.7088 64.5126 51.6496C63.8994 52.5905 59.3398 59.8482 59.3398 59.8482H63.4295L64.411 58.3347H67.4989L67.6005 59.8482H71.7105L71.1176 50.5247ZM67.3554 56.0962H65.7449L67.3554 53.7199V56.0962Z" fill="#264FB5"/>
<path d="M95.3925 50.5247H90.4851C89.5443 50.5247 89.4008 50.7088 88.7876 51.6496C88.1743 52.5905 83.6147 59.8482 83.6147 59.8482H87.7044L88.6859 58.3347H91.7738L91.8754 59.8482H95.9854L95.3925 50.5247ZM91.6303 56.0962H90.0198L91.6303 53.7199V56.0962Z" fill="#264FB5"/>
<path d="M56.9612 50.5247L56.1187 53.6115H53.9739L54.8175 50.5247H50.7279L48.1821 59.8482H52.2718L53.1313 56.6993H55.275L54.4155 59.8482H58.5051L61.0509 50.5247H56.9612Z" fill="#264FB5"/>
<path d="M81.3954 50.5247L80.1418 55.117L79.0812 50.5247H74.9915L72.4458 59.8482H76.5355L77.8275 55.1136L78.8497 59.8482H82.9394L85.4851 50.5247H81.3954Z" fill="#264FB5"/>
<path d="M69.2368 62.3431H73.3107L72.956 63.6533H70.4509L70.3211 64.1378H72.6556L72.3484 65.2909H70.0139L69.8704 65.8093H72.4094L72.0615 67.1195H67.9526L69.2357 62.342L69.2368 62.3431Z" fill="#D11515"/>
<path d="M74.0278 65.2028L73.2971 63.3946H74.8738L75.1121 64.1592L75.74 63.3946H77.4251L75.6982 65.2853L76.4425 67.1206H74.8659L74.6129 66.3289L73.9646 67.1206H72.2783L74.0256 65.2028H74.0278Z" fill="#D11515"/>
<path d="M77.6093 63.3946H79.1589L79.0561 63.7763C79.3227 63.503 79.7247 63.3054 80.1212 63.3054C80.783 63.3054 81.3421 63.8373 81.3421 64.7589C81.3421 66.1176 80.4758 67.2087 79.3836 67.2087C78.8517 67.2087 78.5038 66.9692 78.2915 66.6428L77.8679 68.2127H76.3184L77.6082 63.3946H77.6093ZM79.8004 65.1012C79.8004 64.7804 79.5892 64.5692 79.3023 64.5692C78.8788 64.5692 78.5727 64.9713 78.5727 65.4084C78.5727 65.7291 78.7839 65.9403 79.0708 65.9403C79.4943 65.9403 79.8015 65.5382 79.8015 65.1012H79.8004Z" fill="#D11515"/>
<path d="M82.1879 63.3946H83.7375L83.5398 64.1457C83.8877 63.6408 84.318 63.3133 84.9189 63.3404L84.4818 64.9848H84.318C83.5884 64.9848 83.1987 65.3745 82.9875 66.1933L82.7425 67.1217H81.1929L82.189 63.3957L82.1879 63.3946Z" fill="#D11515"/>
<path d="M86.5623 66.1177C86.8153 66.1177 87.0536 66.0149 87.3134 65.8172L88.0306 66.6022C87.607 66.9772 87.0886 67.2098 86.4335 67.2098C85.3007 67.2098 84.605 66.548 84.605 65.5722C84.605 64.4393 85.4509 63.3065 86.8706 63.3065C88.0994 63.3065 88.5083 64.1389 88.5083 64.9239C88.5083 65.169 88.4676 65.4084 88.3987 65.6196H86.0032C86.0235 65.92 86.2144 66.1177 86.5634 66.1177H86.5623ZM87.1496 64.9363C87.1699 64.8821 87.1767 64.8267 87.1767 64.7725C87.1767 64.5681 87.0265 64.3772 86.7746 64.3772C86.542 64.3772 86.2427 64.5207 86.0992 64.9374H87.1507L87.1496 64.9363Z" fill="#D11515"/>
<path d="M88.2202 66.5886L88.9024 65.7009C89.2367 65.9674 89.8172 66.2057 90.2396 66.2057C90.3966 66.2057 90.4576 66.1448 90.4576 66.0759C90.4576 65.9528 90.3413 65.8918 89.8771 65.7212C89.2762 65.5021 88.8606 65.2299 88.8606 64.6426C88.8606 63.8983 89.4886 63.3054 90.6078 63.3054C91.3589 63.3054 91.9936 63.5301 92.3686 63.817L91.6864 64.7047C91.3996 64.5071 90.9218 64.3083 90.5536 64.3083C90.3831 64.3083 90.3085 64.3557 90.3085 64.4314C90.3085 64.5342 90.391 64.5748 90.8473 64.7386C91.4414 64.9498 91.9056 65.2096 91.9056 65.8647C91.9056 66.4858 91.4685 67.2087 90.2125 67.2087C89.3666 67.2087 88.6765 66.9354 88.2202 66.5875V66.5886Z" fill="#D11515"/>
<path d="M91.8501 66.5886L92.5323 65.7009C92.8666 65.9674 93.4471 66.2057 93.8695 66.2057C94.0265 66.2057 94.0875 66.1448 94.0875 66.0759C94.0875 65.9528 93.9712 65.8918 93.507 65.7212C92.9061 65.5021 92.4905 65.2299 92.4905 64.6426C92.4905 63.8983 93.1184 63.3054 94.2377 63.3054C94.9888 63.3054 95.6235 63.5301 95.9985 63.817L95.3163 64.7047C95.0295 64.5071 94.5517 64.3083 94.1835 64.3083C94.013 64.3083 93.9384 64.3557 93.9384 64.4314C93.9384 64.5342 94.0209 64.5748 94.4772 64.7386C95.0712 64.9498 95.5354 65.2096 95.5354 65.8647C95.5354 66.4858 95.0983 67.2087 93.8424 67.2087C92.9965 67.2087 92.3064 66.9354 91.8501 66.5875V66.5886Z" fill="#D11515"/>
</g>
</g>
<rect x="1" y="1" width="110" height="110" rx="9" stroke="black" stroke-opacity="0.1" stroke-width="2"/>
<defs>
<clipPath id="clip0_755_297">
<rect x="2" y="2" width="108" height="108" rx="8" fill="white"/>
</clipPath>
<clipPath id="clip1_755_297">
<rect width="80" height="24.2128" fill="white" transform="translate(16 44)"/>
</clipPath>
</defs>
</svg>
