<svg width="112" height="112" viewBox="0 0 112 112" fill="none" xmlns="http://www.w3.org/2000/svg">
<g clip-path="url(#clip0_647_1546)">
<rect x="2" y="2" width="108" height="108" rx="8" fill="white"/>
<path d="M32.7985 46H19.2041C17.4337 46 16 47.4464 16 49.2317V62.9412C16 64.7254 17.4337 66.1723 19.2041 66.1723H32.7985C34.5685 66.1723 36.0015 64.7254 36.0015 62.9412V49.2317C36.0015 47.4464 34.5685 46 32.7985 46Z" fill="#1677FF"/>
<path d="M21.4046 61.5126C18.2929 61.5126 17.3729 59.0407 18.9107 57.6882C19.4239 57.2312 20.3616 57.008 20.8616 56.958C22.71 56.7737 24.421 57.4849 26.4403 58.4789C25.0209 60.3463 23.2131 61.5126 21.4046 61.5126ZM32.4679 58.6664C31.6676 58.396 30.5936 57.9826 29.3974 57.5461C30.1158 56.2866 30.6896 54.8524 31.0667 53.2936H27.1241V51.8614H31.9538V51.062H27.1241V48.6745H25.153C24.8072 48.6745 24.8072 49.0188 24.8072 49.0188V51.062H19.9225V51.8614H24.8072V53.2936H20.7743V54.0928H28.5961C28.3099 55.0874 27.9256 56.0212 27.4695 56.8695C24.9314 56.025 22.2231 55.3404 20.5216 55.7618C19.4335 56.0321 18.7327 56.5147 18.321 57.0203C16.4314 59.339 17.7867 62.8609 21.7774 62.8609C24.1369 62.8609 26.4099 61.5341 28.1716 59.3477C30.7992 60.6216 36.0015 62.8088 36.0015 62.8088V59.6916C36.0015 59.6916 35.3482 59.6391 32.4679 58.6664Z" fill="white"/>
<path d="M59.4315 48.9531C59.4315 49.9966 60.1941 50.6991 61.2579 50.6991C62.3216 50.6991 63.0842 49.9966 63.0842 48.9531C63.0842 47.9296 62.3216 47.2069 61.2579 47.2069C60.1941 47.2069 59.4315 47.9296 59.4315 48.9531Z" fill="#1677FF"/>
<path d="M54.3338 62.2995H57.5048V47.6485H54.3338V62.2995Z" fill="black"/>
<path d="M44.1582 57.2218L46.0446 50.6991H46.1251L47.9113 57.2218H44.1582ZM48.7744 48.1503H44.5194L39.7628 62.2996H42.6931L43.4959 59.5299H48.5335L49.2959 62.2996H53.0493L48.7744 48.1503Z" fill="black"/>
<path d="M59.6724 62.2995H62.8434V51.542H59.6724V62.2995Z" fill="black"/>
<path d="M95.9802 51.5621L96 51.5421H93.0096L91.1232 58.0848H91.0229L88.8553 51.5421H85.3026L89.5778 62.3398L87.7916 65.6312V65.7115H90.5813L95.9802 51.5621Z" fill="black"/>
<path d="M68.7244 60.4531C68.3634 60.4531 68.0219 60.4131 67.6408 60.2925V54.4723C68.3031 54.0107 68.845 53.7899 69.5272 53.7899C70.7115 53.7899 71.6547 54.7333 71.6547 56.7402C71.6547 59.3091 70.27 60.4531 68.7244 60.4531ZM70.7316 51.3213C69.5675 51.3213 68.6643 51.7629 67.6408 52.6058V51.542H64.4694V65.7114H67.6408V62.1991C68.2428 62.3597 68.8047 62.44 69.4872 62.44C72.317 62.44 74.866 60.3528 74.866 56.6399C74.866 53.3082 73.0193 51.3213 70.7316 51.3213Z" fill="black"/>
<path d="M81.5096 59.6904C80.6667 60.152 80.1847 60.3327 79.6232 60.3327C78.8604 60.3327 78.3788 59.831 78.3788 59.0282C78.3788 58.727 78.4389 58.426 78.6796 58.1853C79.0611 57.8038 79.8038 57.5229 81.5096 57.1216V59.6904ZM84.6806 59.6101V55.1146C84.6806 52.6659 83.2358 51.3214 80.687 51.3214C79.0611 51.3214 77.9373 51.6022 75.8901 52.2244L76.4518 54.6931C78.3184 53.85 79.1414 53.4888 80.0045 53.4888C81.0482 53.4888 81.5096 54.2313 81.5096 55.3754V55.4557C77.8768 56.1381 76.753 56.5194 76.0505 57.2219C75.5288 57.7438 75.3081 58.4863 75.3081 59.3492C75.3081 61.4164 76.9138 62.5204 78.4191 62.5204C79.5429 62.5204 80.4459 62.0989 81.6704 61.1755L81.8911 62.2995H85.0621L84.6806 59.6101Z" fill="black"/>
</g>
<rect x="1" y="1" width="110" height="110" rx="9" stroke="black" stroke-opacity="0.1" stroke-width="2"/>
<defs>
<clipPath id="clip0_647_1546">
<rect x="2" y="2" width="108" height="108" rx="8" fill="white"/>
</clipPath>
</defs>
</svg>
