<svg width="112" height="112" viewBox="0 0 112 112" fill="none" xmlns="http://www.w3.org/2000/svg">
<g clip-path="url(#clip0_512_509)">
<rect x="2" y="2" width="108" height="108" rx="8" fill="white"/>
<g clip-path="url(#clip1_512_509)">
<path d="M88.8357 30H23.1644C22.8909 30 22.6169 30 22.3438 30.0016C22.113 30.0032 21.8828 30.0058 21.6525 30.0121C21.1504 30.0257 20.6439 30.0553 20.148 30.1444C19.6442 30.2351 19.1754 30.383 18.718 30.6158C18.2684 30.8445 17.8567 31.1436 17.5 31.5005C17.1431 31.8574 16.844 32.2683 16.6154 32.7184C16.3825 33.1758 16.2345 33.6448 16.1445 34.149C16.0549 34.645 16.025 35.1514 16.0115 35.653C16.0053 35.8833 16.0027 36.1135 16.0011 36.3437C15.9996 36.6174 16.0001 36.8908 16.0001 37.1649V74.0509C16.0001 74.325 15.9996 74.598 16.0011 74.8721C16.0027 75.1023 16.0053 75.3326 16.0115 75.5628C16.025 76.064 16.0549 76.5704 16.1445 77.0663C16.2345 77.5707 16.3825 78.0395 16.6154 78.4969C16.844 78.947 17.1431 79.3585 17.5 79.7149C17.8567 80.0723 18.2684 80.3713 18.718 80.5994C19.1754 80.8329 19.6442 80.9809 20.148 81.0715C20.6439 81.16 21.1504 81.1902 21.6525 81.2038C21.8828 81.209 22.113 81.2121 22.3438 81.2132C22.6169 81.2153 22.8909 81.2153 23.1644 81.2153H88.8357C89.1088 81.2153 89.3828 81.2153 89.6557 81.2132C89.886 81.2121 90.1162 81.209 90.3476 81.2038C90.8487 81.1902 91.355 81.16 91.8521 81.0715C92.3553 80.9809 92.8242 80.8329 93.2816 80.5994C93.7317 80.3713 94.1422 80.0723 94.4996 79.7149C94.8559 79.3585 95.155 78.947 95.3842 78.4969C95.6177 78.0395 95.7655 77.5707 95.8551 77.0663C95.9448 76.5704 95.9739 76.064 95.9874 75.5628C95.9937 75.3326 95.9968 75.1023 95.9979 74.8721C96 74.598 96 74.325 96 74.0509V37.1649C96 36.8908 96 36.6174 95.9979 36.3437C95.9968 36.1135 95.9937 35.8833 95.9874 35.653C95.9739 35.1514 95.9448 34.645 95.8551 34.149C95.7655 33.6448 95.6177 33.1758 95.3842 32.7184C95.155 32.2683 94.8559 31.8574 94.4996 31.5005C94.1422 31.1436 93.7317 30.8445 93.2816 30.6158C92.8242 30.383 92.3553 30.2351 91.8521 30.1444C91.355 30.0553 90.8487 30.0257 90.3476 30.0121C90.1162 30.0058 89.886 30.0032 89.6557 30.0016C89.3828 30 89.1088 30 88.8357 30Z" fill="black"/>
<path d="M88.8356 31.7071L89.6435 31.7086C89.8623 31.7102 90.0812 31.7126 90.3013 31.7185C90.6841 31.7289 91.1318 31.7496 91.5492 31.8244C91.9121 31.8898 92.2164 31.9892 92.5084 32.1378C92.7967 32.2843 93.0608 32.4763 93.2915 32.7066C93.523 32.9385 93.7152 33.203 93.8636 33.4945C94.0115 33.7843 94.1102 34.0871 94.1752 34.4526C94.2498 34.8655 94.2704 35.3145 94.2809 35.6996C94.2868 35.917 94.2897 36.1344 94.2908 36.357C94.2929 36.6262 94.2928 36.8952 94.2928 37.1649V74.0509C94.2928 74.3206 94.2929 74.5892 94.2907 74.8641C94.2897 75.0814 94.2868 75.2988 94.2809 75.5166C94.2704 75.9012 94.2498 76.35 94.1743 76.7677C94.1102 77.1282 94.0115 77.4311 93.8629 77.7223C93.7149 78.013 93.5229 78.2773 93.2924 78.5077C93.0605 78.7397 92.7972 78.9311 92.5055 79.0789C92.2156 79.2269 91.9119 79.3262 91.5526 79.3908C91.1268 79.4667 90.6602 79.4876 90.3088 79.4971C90.0878 79.5021 89.8678 79.5051 89.6424 79.5062C89.3738 79.5082 89.1043 79.5082 88.8356 79.5082H23.1643C23.1607 79.5082 23.1572 79.5082 23.1536 79.5082C22.8881 79.5082 22.622 79.5082 22.3516 79.5061C22.1312 79.5051 21.9112 79.5021 21.6985 79.4973C21.3391 79.4876 20.8723 79.4668 20.4499 79.3913C20.0876 79.3262 19.7838 79.2269 19.4902 79.077C19.2012 78.9305 18.9381 78.7393 18.7061 78.5068C18.4758 78.277 18.2845 78.0135 18.1365 77.7223C17.9884 77.4314 17.8893 77.1276 17.8242 76.7628C17.7489 76.3459 17.7282 75.8989 17.7179 75.517C17.712 75.2983 17.7095 75.0796 17.7081 74.8622L17.707 74.2204L17.7071 74.0509V37.1649L17.707 36.9954L17.708 36.355C17.7095 36.1363 17.712 35.9176 17.7179 35.6991C17.7282 35.3167 17.7489 34.8696 17.8248 34.4492C17.8894 34.0877 17.9884 33.7839 18.1373 33.4915C18.2841 33.2025 18.4758 32.9387 18.7072 32.7073C18.9378 32.4767 19.2017 32.285 19.4925 32.1371C19.783 31.9891 20.0874 31.8898 20.4497 31.8246C20.8672 31.7496 21.3153 31.7289 21.6991 31.7185C21.9178 31.7126 22.1366 31.7102 22.3537 31.7087L23.1643 31.7071H88.8356Z" fill="white"/>
<path d="M37.8398 47.2259C38.5248 46.3691 38.9896 45.2187 38.867 44.0432C37.8643 44.093 36.6407 44.7047 35.9323 45.5621C35.2962 46.2964 34.7332 47.4949 34.88 48.6212C36.0056 48.7188 37.1301 48.0586 37.8398 47.2259Z" fill="black"/>
<path d="M38.8541 48.8411C37.2195 48.7437 35.8296 49.7689 35.049 49.7689C34.2679 49.7689 33.0726 48.8902 31.7796 48.9139C30.0968 48.9386 28.5354 49.8901 27.6814 51.4034C25.9249 54.4307 27.2179 58.9213 28.9259 61.3869C29.7554 62.6067 30.755 63.9498 32.0722 63.9016C33.3168 63.8527 33.8046 63.0957 35.3173 63.0957C36.829 63.0957 37.2684 63.9016 38.5858 63.8771C39.952 63.8527 40.8061 62.6567 41.6356 61.4357C42.5871 60.0452 42.9766 58.7026 43.0011 58.6288C42.9766 58.6044 40.3668 57.6032 40.3426 54.601C40.3179 52.0873 42.3916 50.8916 42.4892 50.8174C41.3182 49.0855 39.4885 48.8902 38.8541 48.8411Z" fill="black"/>
<path d="M53.0876 45.4392C56.6405 45.4392 59.1145 47.8882 59.1145 51.4538C59.1145 55.0321 56.5896 57.4939 52.9985 57.4939H49.0648V63.7496H46.2227V45.4391H53.0876V45.4392ZM49.0648 55.1082H52.3259C54.8004 55.1082 56.2087 53.776 56.2087 51.4665C56.2087 49.1572 54.8004 47.8375 52.3386 47.8375H49.0648V55.1082Z" fill="black"/>
<path d="M59.8569 59.9556C59.8569 57.6207 61.6461 56.1869 64.8186 56.0092L68.4729 55.7936V54.7658C68.4729 53.2811 67.4703 52.3929 65.7957 52.3929C64.2092 52.3929 63.2194 53.1541 62.9786 54.3471H60.39C60.5423 51.936 62.5977 50.1595 65.897 50.1595C69.1327 50.1595 71.2009 51.8726 71.2009 54.55V63.7496H68.5742V61.5544H68.511C67.7371 63.0391 66.0493 63.978 64.2983 63.978C61.6843 63.978 59.8569 62.3538 59.8569 59.9556ZM68.4729 58.7502V57.697L65.1863 57.8999C63.5493 58.0142 62.6232 58.7375 62.6232 59.8795C62.6232 61.0468 63.5875 61.8082 65.0595 61.8082C66.9754 61.8082 68.4729 60.4885 68.4729 58.7502Z" fill="black"/>
<path d="M73.6811 68.6604V66.4397C73.8837 66.4904 74.3404 66.4904 74.569 66.4904C75.8379 66.4904 76.5232 65.9576 76.9417 64.5872C76.9417 64.5617 77.183 63.7751 77.183 63.7623L72.3613 50.4006H75.3302L78.7059 61.2626H78.7563L82.132 50.4006H85.025L80.0251 64.4474C78.8836 67.6833 77.5639 68.7238 74.7976 68.7238C74.569 68.7238 73.8837 68.6983 73.6811 68.6604Z" fill="black"/>
</g>
</g>
<rect x="1" y="1" width="110" height="110" rx="9" stroke="black" stroke-opacity="0.1" stroke-width="2"/>
<defs>
<clipPath id="clip0_512_509">
<rect x="2" y="2" width="108" height="108" rx="8" fill="white"/>
</clipPath>
<clipPath id="clip1_512_509">
<rect width="80" height="51.2153" fill="white" transform="translate(16 30)"/>
</clipPath>
</defs>
</svg>
