<svg width="112" height="112" viewBox="0 0 112 112" fill="none" xmlns="http://www.w3.org/2000/svg">
<g clip-path="url(#clip0_512_507)">
<rect x="2" y="2" width="108" height="108" rx="8" fill="white"/>
<path fill-rule="evenodd" clip-rule="evenodd" d="M53.8345 65.0597V56.0374V56.0356H58.7153C60.7275 56.0368 62.4187 55.4045 63.7887 54.1387C65.1733 52.9374 65.9474 51.2102 65.908 49.4098C65.9354 47.6194 65.1627 45.905 63.7887 44.7075C62.4307 43.4348 60.6042 42.7404 58.7153 42.7786H50.8804V65.0597H53.8345ZM53.8345 53.2996V45.5218V45.52H58.7887C59.8929 45.4899 60.9573 45.9204 61.7116 46.7022C62.4706 47.4172 62.8989 48.3992 62.8989 49.4249C62.8989 50.4506 62.4706 51.4326 61.7116 52.1476C60.948 52.9129 59.8869 53.3311 58.7887 53.2996H53.8345Z" fill="#5F6368"/>
<path fill-rule="evenodd" clip-rule="evenodd" d="M77.8859 51.0134C76.6223 49.8827 74.8987 49.3174 72.7152 49.3174C69.9103 49.3174 67.7922 50.3129 66.361 52.304L68.9629 53.8916C69.9243 52.5429 71.2302 51.8685 72.8803 51.8685C73.9324 51.8565 74.9505 52.2292 75.7317 52.912C76.5106 53.536 76.9587 54.4662 76.9519 55.4454V56.0996C75.8167 55.4774 74.3721 55.1663 72.6179 55.1663C70.5629 55.1687 68.9201 55.6356 67.6895 56.5672C66.4589 57.4987 65.8436 58.7533 65.8436 60.3308C65.8168 61.7672 66.4599 63.1387 67.5941 64.0641C68.761 65.0597 70.2112 65.5575 71.9445 65.5575C73.9751 65.5575 75.6021 64.6864 76.8253 62.9441H76.9538V65.0597H79.7795V55.6641C79.7807 53.6943 79.1495 52.144 77.8859 51.0134ZM69.873 62.2597C69.2541 61.8275 68.8891 61.1321 68.8931 60.393C68.8931 59.5628 69.295 58.8712 70.1041 58.3023C70.9054 57.7417 71.906 57.4614 73.106 57.4614C74.7537 57.4614 76.0381 57.817 76.9592 58.5281C76.9592 59.7299 76.4699 60.777 75.4913 61.6694C74.6099 62.5236 73.415 63.0043 72.1684 63.0063C71.3373 63.0214 70.5263 62.7576 69.873 62.2597Z" fill="#5F6368"/>
<path fill-rule="evenodd" clip-rule="evenodd" d="M95.9998 49.8151L86.1355 71.7797H83.086L86.7465 64.0943L80.2603 49.8151H83.4713L88.1594 60.7663H88.2236L92.7833 49.8151H95.9998Z" fill="#5F6368"/>
<path fill-rule="evenodd" clip-rule="evenodd" d="M41.8968 54.0925C41.8979 53.2202 41.8218 52.3495 41.6693 51.4898H29.2104V56.4196H36.3463C36.0512 58.0107 35.0981 59.4158 33.7077 60.3094V63.5095H37.9665C40.4601 61.2819 41.8968 57.9876 41.8968 54.0925Z" fill="#4285F4"/>
<path fill-rule="evenodd" clip-rule="evenodd" d="M29.2105 66.601C32.7757 66.601 35.7775 65.4668 37.9665 63.5112L33.7078 60.3112C32.5224 61.0899 30.9958 61.5343 29.2105 61.5343C25.7646 61.5343 22.8398 59.2836 21.7939 56.2507H17.4067V59.5485C19.6492 63.872 24.2164 66.6008 29.2105 66.601Z" fill="#34A853"/>
<path fill-rule="evenodd" clip-rule="evenodd" d="M21.7939 56.2507C21.241 54.6615 21.241 52.9404 21.7939 51.3511V48.0533H17.4067C15.5311 51.6696 15.5311 55.9323 17.4067 59.5485L21.7939 56.2507Z" fill="#FBBC04"/>
<path fill-rule="evenodd" clip-rule="evenodd" d="M29.2105 46.0675C31.0945 46.0377 32.915 46.7274 34.2784 47.9876L38.0491 44.3342C35.6581 42.1583 32.4906 40.9637 29.2105 41.0008C24.2164 41.0011 19.6492 43.7298 17.4067 48.0533L21.7939 51.3511C22.8398 48.3182 25.7646 46.0675 29.2105 46.0675Z" fill="#EA4335"/>
</g>
<rect x="1" y="1" width="110" height="110" rx="9" stroke="black" stroke-opacity="0.1" stroke-width="2"/>
<defs>
<clipPath id="clip0_512_507">
<rect x="2" y="2" width="108" height="108" rx="8" fill="white"/>
</clipPath>
</defs>
</svg>
