<svg width="112" height="112" viewBox="0 0 112 112" fill="none" xmlns="http://www.w3.org/2000/svg">
<g clip-path="url(#clip0_647_1547)">
<rect x="2" y="2" width="108" height="108" rx="8" fill="white"/>
<path fill-rule="evenodd" clip-rule="evenodd" d="M95.6202 41.5319C95.5823 41.8311 95.5444 42.1303 95.5066 42.4295C95.2339 44.5654 94.3288 46.4022 92.8404 47.9474C91.3293 49.5228 89.4926 50.5075 87.3339 50.8673C83.8724 51.4467 79.8694 50.0265 77.8395 46.8529C77.5251 46.3606 77.3206 45.8001 77.0669 45.2699C77.0025 45.1335 77.0252 45.0199 77.1313 44.8949C77.5062 44.4594 77.8622 44.0125 78.2258 43.5694C78.2636 43.524 78.2826 43.4672 78.3394 43.3649C78.4757 43.7398 78.559 44.0315 78.6802 44.3041C79.8315 46.8945 81.8046 48.4624 84.592 48.9358C88.6291 49.6251 92.4882 46.9059 93.4085 43.0506C93.5524 42.4484 93.6168 41.8197 93.6433 41.2024C93.6736 40.3996 93.6546 39.5891 93.6054 38.7824C93.5145 37.2486 92.954 35.8815 92.0224 34.6734C90.659 32.9086 88.8715 31.833 86.6522 31.5755C84.4481 31.3217 82.4901 31.9883 80.7859 33.3895C79.0097 34.8514 77.4721 36.548 75.9951 38.3053C75.3096 39.1233 74.6507 39.964 73.9804 40.7934C73.9387 40.8427 73.8932 40.8881 73.8213 40.9676C73.8137 40.8654 73.8099 40.8086 73.8099 40.7518C73.8099 39.9375 73.8061 39.1195 73.8137 38.3053C73.8137 38.1916 73.8478 38.0591 73.916 37.972C75.0938 36.4458 76.317 34.9574 77.688 33.6016C78.7029 32.598 79.805 31.6967 81.0093 30.9317C82.1152 30.2272 83.3384 29.8296 84.6336 29.6592C89.7766 28.9851 94.2568 32.6207 95.3134 37.082C95.4384 37.6009 95.4801 38.1386 95.5596 38.6688C95.5785 38.7862 95.6013 38.9036 95.624 39.021V41.5206L95.6202 41.5319Z" fill="#00B041"/>
<path fill-rule="evenodd" clip-rule="evenodd" d="M69.591 83.3119C69.7387 83.4293 69.8448 83.5088 69.9508 83.5959C71.4998 84.8533 73.2608 85.6524 75.2415 85.9061C76.5594 86.0765 77.8736 86.05 79.1309 85.5274C80.5284 84.9442 81.229 83.8383 81.3577 82.3689C81.4259 81.5925 81.3994 80.8086 81.4108 80.0284C81.4108 79.964 81.3956 79.8997 81.388 79.8088C81.335 79.8353 81.3009 79.8428 81.282 79.8656C80.3996 80.8692 79.2483 81.3918 77.9758 81.6418C75.9042 82.0546 73.897 81.8311 72.0186 80.8351C70.0114 79.7709 68.8525 78.0364 68.2958 75.8701C68.0762 75.018 67.9815 74.1507 67.9815 73.2721C67.9815 69.4168 67.9815 65.5653 67.9815 61.7099C67.9815 61.4852 68.0964 61.3729 68.3261 61.3729C69.6554 61.3729 70.9809 61.3804 72.3102 61.3653C72.5791 61.3653 72.6397 61.4448 72.6397 61.7023C72.6321 65.6183 72.6132 69.5342 72.6473 73.4463C72.6624 75.2452 73.7304 77.0669 75.9989 77.4607C77.3093 77.688 78.559 77.4797 79.6384 76.6351C80.4526 75.9951 80.8616 75.1203 80.9942 74.1129C81.0472 73.719 81.051 73.3176 81.051 72.9199C81.051 69.1858 81.051 65.4554 81.051 61.7213C81.051 61.4865 81.1697 61.3691 81.407 61.3691C82.7022 61.3691 83.9936 61.3691 85.2888 61.3691C85.4857 61.3691 85.5577 61.4221 85.5577 61.6342C85.5501 68.5457 85.5729 75.4535 85.5388 82.3651C85.5312 84.2549 84.9707 86.0046 83.6793 87.455C82.5999 88.6669 81.2214 89.3827 79.6725 89.7917C78.756 90.0341 77.8205 90.1401 76.8737 90.1856C74.2455 90.3068 71.8974 89.5759 69.8372 87.9284C69.6516 87.7807 69.5683 87.6217 69.5721 87.3793C69.5835 86.103 69.5759 84.8268 69.5797 83.5505C69.5797 83.4899 69.5872 83.4293 69.5948 83.3081L69.591 83.3119Z" fill="#00B041"/>
<path fill-rule="evenodd" clip-rule="evenodd" d="M30.3409 81.9296H30.0303C28.7541 81.9296 27.4778 81.922 26.2015 81.9372C25.9288 81.9372 25.872 81.8538 25.872 81.6001C25.8796 76.1579 25.8758 70.7158 25.8758 65.2699C25.8758 62.6491 25.8758 60.0284 25.8758 57.4039C25.8758 57.0631 25.8758 57.0593 26.2167 57.0593C29.3865 57.0593 32.5564 57.0063 35.7224 57.082C38.0099 57.135 40.108 57.8319 41.7668 59.5172C42.8082 60.5738 43.4217 61.8652 43.6982 63.3081C44.0504 65.1411 44.0125 66.9703 43.3952 68.7465C42.4636 71.4164 40.5321 72.9919 37.8395 73.6963C36.9305 73.9349 36.0027 74.0296 35.0597 74.0296C33.6016 74.0296 32.1436 74.0296 30.6855 74.0296C30.3447 74.0296 30.3447 74.0296 30.3447 74.3742C30.3447 76.779 30.3447 79.1839 30.3447 81.5887V81.9258L30.3409 81.9296ZM32.8859 69.875C33.5032 69.875 34.1167 69.894 34.734 69.8675C35.2604 69.8447 35.7944 69.8182 36.3057 69.7122C37.7107 69.4168 38.7332 68.6329 39.2028 67.243C39.5816 66.1295 39.5854 64.9934 39.2559 63.8686C38.9377 62.7779 38.2295 62.028 37.1691 61.6039C36.5064 61.3388 35.8133 61.2365 35.1127 61.2252C33.6054 61.2062 32.0943 61.2214 30.5833 61.2176C30.3901 61.2176 30.3333 61.2896 30.3333 61.4789C30.3371 64.1867 30.3409 66.8908 30.3333 69.5986C30.3333 69.8182 30.4053 69.8788 30.6174 69.8788C31.371 69.8675 32.1284 69.8788 32.8821 69.8788L32.8859 69.875Z" fill="#00B041"/>
<path fill-rule="evenodd" clip-rule="evenodd" d="M60.6912 79.8163C59.6687 80.8843 58.4378 81.4751 57.0404 81.7516C56.0027 81.9599 54.9574 81.9447 53.9122 81.8349C52.6397 81.7024 51.4316 81.3653 50.3068 80.748C48.2239 79.6005 46.9514 77.8205 46.3113 75.5558C46.0311 74.5598 45.9023 73.5372 45.8985 72.5033C45.8985 71.5073 45.872 70.5037 45.9554 69.5115C46.281 65.6599 48.4587 62.456 52.7041 61.4486C54.9234 60.9222 57.1502 60.9676 59.3127 61.7175C62.2288 62.7325 64.0088 64.8078 64.7624 67.7845C64.9821 68.6594 65.0843 69.5531 65.0843 70.4583C65.0843 74.0788 65.0843 77.6955 65.0843 81.3161C65.0843 81.561 64.9619 81.6834 64.717 81.6834C63.4748 81.6834 62.2364 81.6796 60.9942 81.6872C60.7669 81.6872 60.6723 81.638 60.6836 81.3842C60.7026 80.8578 60.6912 80.3314 60.6912 79.805V79.8163ZM60.7366 71.5944C60.6836 70.8597 60.6988 70.1174 60.57 69.3979C60.2519 67.6482 59.2672 66.3984 57.5819 65.766C56.5253 65.3683 55.4346 65.338 54.3326 65.535C52.2837 65.8985 50.7045 67.5005 50.3977 69.5531C50.2273 70.7006 50.2311 71.8557 50.3522 73.0032C50.553 74.9158 51.5263 76.3284 53.2797 77.1502C54.3704 77.6652 55.5255 77.7107 56.7109 77.5516C58.578 77.2979 59.9754 76.1011 60.4829 74.2871C60.7291 73.4047 60.7026 72.5033 60.7442 71.5982L60.7366 71.5944Z" fill="#00B041"/>
<path fill-rule="evenodd" clip-rule="evenodd" d="M36.0065 38.9642H27.8376C27.83 38.8506 27.8224 38.7597 27.8224 38.6688C27.8224 38.2333 27.8224 37.8016 27.8224 37.366C27.8224 37.1287 27.9461 37.0101 28.1936 37.0101H34.8097C35.7641 37.0101 36.7185 37.0176 37.6728 37.0063C37.9001 37.0063 37.972 37.0706 37.9682 37.2979C37.9607 40.6912 37.9682 44.0845 37.9569 47.4816C37.9569 47.6217 37.8925 47.7921 37.8016 47.8981C36.8131 49.057 35.5596 49.8561 34.1849 50.4696C32.8859 51.0491 31.5225 51.3785 30.1061 51.5338C27.7012 51.7951 25.357 51.5755 23.1415 50.5529C19.2672 48.754 16.8359 45.747 15.9535 41.566C15.4346 39.1044 15.4839 36.6313 16.389 34.2454C17.5782 31.1059 19.7331 28.8108 22.6719 27.2316C24.2284 26.3946 25.8948 25.8947 27.6558 25.6978C28.9472 25.5539 30.2348 25.6069 31.5225 25.7054C32.7874 25.8038 34.0258 26.0386 35.2188 26.4817C35.4611 26.5726 35.571 26.6825 35.5558 26.9627C35.5293 27.5573 35.5482 28.1557 35.5482 28.7881C35.3059 28.6669 35.1051 28.5571 34.8968 28.4586C33.8137 27.936 32.6662 27.652 31.477 27.5573C30.6136 27.4891 29.7501 27.4437 28.8828 27.455C26.3 27.4891 23.9898 28.3337 21.9448 29.8978C20.0057 31.3785 18.6537 33.2797 17.9758 35.6391C17.6312 36.8321 17.5706 38.0553 17.6198 39.2937C17.6842 40.8692 18.0175 42.3689 18.7257 43.7739C20.2784 46.8453 22.7438 48.7503 26.1144 49.4698C27.4778 49.7614 28.8525 49.7311 30.2273 49.5721C31.8482 49.3865 33.3896 48.9548 34.7757 48.0724C35.1544 47.83 35.5066 47.5422 35.8436 47.2468C35.9459 47.1596 36.0216 46.9816 36.0216 46.8453C36.033 44.3117 36.0292 41.7743 36.0292 39.2407C36.0292 39.1574 36.0141 39.0703 36.0027 38.968L36.0065 38.9642Z" fill="#00B041"/>
<path fill-rule="evenodd" clip-rule="evenodd" d="M65.6031 48.4473C65.6031 49.076 65.6107 49.6743 65.5956 50.2727C65.5956 50.3409 65.4782 50.4469 65.3986 50.4696C64.7927 50.6363 64.1867 50.8635 63.5694 50.9279C61.0245 51.2006 58.7219 50.5264 56.6957 48.9699C54.5636 47.3301 53.2494 45.1752 52.9048 42.5052C52.7571 41.3691 52.8063 40.2026 52.8253 39.0513C52.8707 36.7412 53.7152 34.7264 55.2225 32.9919C56.726 31.2649 58.6007 30.1401 60.8616 29.7501C63.9216 29.2199 66.6598 29.9811 69.0116 32.0148C70.8294 33.5865 71.9201 35.5899 72.3102 37.9606C72.3822 38.4113 72.42 38.8733 72.42 39.3316C72.4276 43.0998 72.4238 46.868 72.4238 50.6325V50.9809H70.4734V50.6097C70.4734 46.8415 70.5 43.0733 70.4659 39.3089C70.4318 35.3475 67.5725 32.3215 64.0618 31.6626C59.8164 30.8711 55.7338 33.772 54.8893 37.9228C54.806 38.3356 54.7529 38.7635 54.7491 39.1839C54.734 40.2935 54.6469 41.4069 54.8703 42.5052C55.4536 45.3986 57.1426 47.402 59.8542 48.5192C61.6569 49.2615 63.4861 49.2047 65.3115 48.5457C65.3986 48.5154 65.4857 48.4852 65.6031 48.4473Z" fill="#00B041"/>
<path fill-rule="evenodd" clip-rule="evenodd" d="M34.5068 40.4791V40.7556C34.5068 42.562 34.5068 44.3647 34.5106 46.1712C34.5106 46.3681 34.45 46.4931 34.2985 46.6105C33.4539 47.2733 32.4731 47.6293 31.443 47.8603C30.2803 48.1216 29.0911 48.2503 27.9057 48.1708C24.4178 47.9398 21.8349 46.2507 20.1686 43.1907C19.4377 41.85 19.1423 40.3958 19.1157 38.8696C19.0892 37.3926 19.2786 35.9648 19.9262 34.6241C21.1154 32.1663 23.0392 30.5226 25.5766 29.5721C27.1029 29.0002 28.6897 28.8714 30.3068 28.9737C31.6815 29.0608 33.026 29.2691 34.3098 29.7728C34.6734 29.9129 35.0256 30.0833 35.374 30.2538C35.4498 30.2916 35.5331 30.4015 35.5331 30.4772C35.5445 31.1703 35.5407 31.8633 35.5407 32.6132C35.4346 32.5412 35.3589 32.4958 35.2869 32.4427C34.2152 31.6323 32.9919 31.1968 31.6702 31.0528C30.784 30.9582 29.8864 30.8673 29.0002 30.9051C25.8758 31.0377 23.4331 32.3897 21.8576 35.143C21.3123 36.0973 21.0813 37.1502 21.0586 38.256C21.032 39.5361 21.1608 40.7859 21.7137 41.9561C22.812 44.2814 24.6185 45.7281 27.1748 46.1295C28.9775 46.4136 30.7461 46.1598 32.4617 45.5387C32.6359 45.4744 32.7003 45.3759 32.7003 45.1941C32.6927 44.3799 32.6889 43.5618 32.7003 42.7476C32.7041 42.4939 32.6321 42.403 32.3632 42.403C30.9468 42.4143 29.5342 42.403 28.1178 42.4143C27.883 42.4143 27.8035 42.3575 27.8111 42.1114C27.83 41.5736 27.8186 41.0396 27.8186 40.4791H34.5068Z" fill="#00B041"/>
<path fill-rule="evenodd" clip-rule="evenodd" d="M81.0851 40.0587C81.1987 40.57 81.2706 41.0017 81.388 41.4221C81.7175 42.5772 82.2894 43.5884 83.1529 44.4405C84.9707 46.2318 87.5157 45.7319 88.9321 44.2852C89.716 43.4861 90.1477 42.5204 90.1667 41.3956C90.1818 40.5473 90.2235 39.6914 90.1477 38.8506C89.9811 37.0366 88.6102 35.5217 86.8302 35.1165C85.2623 34.7605 83.8989 35.196 82.7211 36.2526C81.157 37.6614 79.7974 39.2672 78.4454 40.873C76.9078 42.6984 75.4195 44.5617 73.9122 46.4098C73.897 46.4287 73.8857 46.4552 73.8213 46.4666C73.8175 46.3984 73.8061 46.3303 73.8061 46.2583C73.8061 45.4176 73.7986 44.573 73.8137 43.7323C73.8137 43.5884 73.8705 43.4217 73.9538 43.3081C75.3475 41.4524 76.8586 39.6989 78.4303 37.9947C79.2862 37.0631 80.1459 36.1314 81.0548 35.2452C82.0811 34.2454 83.2703 33.4766 84.6904 33.1699C86.3833 32.8063 87.9474 33.1926 89.3524 34.181C90.7991 35.196 91.7118 36.5783 92.0413 38.3242C92.0981 38.6272 92.1209 38.9453 92.1209 39.2558C92.1133 40.1913 92.1549 41.1343 92.0565 42.0621C91.7876 44.5124 89.9432 46.6067 87.527 47.296C84.8836 48.0496 82.1909 46.9854 80.6344 44.5806C80.161 43.8459 79.8164 43.0544 79.6156 42.206C79.5891 42.0849 79.627 41.9106 79.7028 41.8122C80.1118 41.2858 80.5435 40.7745 80.9639 40.2557C81.0017 40.2102 81.0245 40.1534 81.0813 40.0625L81.0851 40.0587Z" fill="#00B041"/>
<path fill-rule="evenodd" clip-rule="evenodd" d="M65.6031 44.6336C65.6031 45.3039 65.6107 45.9288 65.5956 46.5499C65.5956 46.6446 65.4857 46.7582 65.3986 46.8188C64.8798 47.171 64.289 47.349 63.6793 47.4437C61.0207 47.8527 58.5022 46.6635 57.1351 44.3534C56.5594 43.3801 56.2564 42.3234 56.264 41.1873C56.264 40.6306 56.2678 40.0777 56.264 39.5209C56.2451 37.4153 57.1048 35.7224 58.7257 34.4196C62.3462 31.5111 67.9436 33.3971 68.8412 38.1576C68.9207 38.5893 68.9548 39.0362 68.9586 39.4755C68.9661 43.1983 68.9624 46.9211 68.9624 50.6438C68.9624 50.8761 68.8437 50.9935 68.6064 50.996C68.1708 50.996 67.7391 50.9847 67.3036 50.9998C67.0801 51.0074 67.0271 50.9241 67.0271 50.7158C67.0347 49.716 67.0271 48.72 67.0271 47.7201C67.0271 45.0048 67.0271 42.2856 67.0271 39.5702C67.0271 38.6044 66.8188 37.6917 66.2545 36.8927C65.3646 35.6391 64.1489 35.0218 62.6037 34.9915C60.7935 34.9574 58.8772 36.1655 58.3507 38.2712C58.2674 38.612 58.2295 38.9718 58.2182 39.324C58.1955 39.9375 58.2106 40.5548 58.2106 41.1721C58.2106 43.3952 59.7596 45.2244 61.9637 45.5387C63.168 45.713 64.3079 45.4554 65.3456 44.804C65.4176 44.7586 65.4895 44.7094 65.6069 44.6336H65.6031Z" fill="#00B041"/>
<path fill-rule="evenodd" clip-rule="evenodd" d="M54.9953 30.9014C54.503 31.4354 54.0712 31.9087 53.6471 32.367C53.1434 32.1776 52.6586 31.9277 52.1436 31.8103C49.057 31.1097 46.3076 31.6967 44.0845 34.0712C43.0923 35.1316 42.5431 36.4306 42.331 37.8584C42.2288 38.5325 42.1909 39.2218 42.1909 39.9034C42.1758 43.4785 42.1833 47.0536 42.1833 50.6287C42.1833 50.8736 42.0609 50.996 41.816 50.996C41.3729 50.996 40.9298 50.9885 40.4867 50.996C40.3011 50.9998 40.233 50.9317 40.2481 50.7575C40.2519 50.7158 40.2481 50.6703 40.2481 50.6287C40.2481 46.9059 40.2481 43.1831 40.2481 39.4604C40.2481 37.313 40.7745 35.3248 42.0205 33.5599C43.4937 31.4732 45.5274 30.2462 48.0194 29.7766C49.9584 29.4092 51.8671 29.5304 53.7115 30.2575C54.1432 30.428 54.5446 30.6741 54.9915 30.9014H54.9953Z" fill="#00B041"/>
<path fill-rule="evenodd" clip-rule="evenodd" d="M52.795 33.6168C52.4996 34.2038 52.2231 34.7567 51.9504 35.2983C51.5641 35.2074 51.1816 35.0786 50.7916 35.0332C48.9359 34.8135 47.1407 35.3967 46.175 37.1843C45.8228 37.8357 45.6562 38.5439 45.6562 39.2824C45.6562 43.0582 45.6562 46.834 45.6562 50.6098V50.9695H43.7247C43.7209 50.8786 43.7096 50.7878 43.7096 50.6969C43.7096 46.8605 43.6755 43.0241 43.7209 39.1877C43.755 36.0936 45.8872 33.6811 48.7919 33.1585C49.9546 32.9502 51.1021 33.0184 52.2307 33.3744C52.4238 33.435 52.6056 33.5372 52.795 33.6205V33.6168Z" fill="#00B041"/>
<path fill-rule="evenodd" clip-rule="evenodd" d="M75.8626 20.8843H77.7789C77.7827 20.9904 77.794 21.0813 77.794 21.1721C77.794 24.4897 77.794 27.8035 77.794 31.121C77.794 31.2914 77.741 31.4013 77.6198 31.5262C77.0972 32.0564 76.5897 32.6056 76.0784 33.1471C76.0141 33.2153 75.9535 33.2835 75.8626 33.3895V20.8843Z" fill="#00B041"/>
<path fill-rule="evenodd" clip-rule="evenodd" d="M79.3165 30.4772V30.1477C79.3165 27.171 79.3165 24.1943 79.3165 21.2138C79.3165 20.984 79.4364 20.8692 79.6762 20.8692C80.0739 20.8692 80.4753 20.8692 80.873 20.8692C81.1204 20.8692 81.2454 20.9979 81.2479 21.2555C81.2479 21.8273 81.2479 22.403 81.2479 22.9748C81.2479 24.9442 81.2479 26.9173 81.2479 28.8866C81.2479 29.0911 81.1873 29.2085 81.0055 29.3221C80.5056 29.6365 80.0285 29.9849 79.5437 30.3181C79.4831 30.3598 79.4225 30.4015 79.3127 30.4772H79.3165Z" fill="#00B041"/>
</g>
<rect x="1" y="1" width="110" height="110" rx="9" stroke="black" stroke-opacity="0.1" stroke-width="2"/>
<defs>
<clipPath id="clip0_647_1547">
<rect x="2" y="2" width="108" height="108" rx="8" fill="white"/>
</clipPath>
</defs>
</svg>
