<svg width="112" height="112" viewBox="0 0 112 112" fill="none" xmlns="http://www.w3.org/2000/svg">
<g clip-path="url(#clip0_647_1550)">
<rect x="2" y="2" width="108" height="108" rx="8" fill="white"/>
<path d="M95.1417 32.1735H17V80.3531H95.1417V32.1735Z" fill="white"/>
<path d="M92.665 34.51H19.3605V78.2591H92.665V34.51Z" fill="#0023A0"/>
<path d="M57.7737 72.5339L58.474 75.4648H55.9393L55.4474 73.0394C55.2014 71.7994 55.1195 71.7038 53.9751 71.7038H53.7018L52.94 75.4648H50.3917L52.3935 65.9546H55.4303C57.4355 66.0297 59.2016 65.999 59.3451 68.0896C59.4749 69.9548 57.9548 70.5526 56.725 70.8634C57.2647 70.9727 57.5927 71.8746 57.7669 72.5339H57.7737ZM54.9657 70.0538C57.0188 69.8864 56.7694 68.0418 56.7762 68.3526C56.7557 67.4952 56.1374 67.4645 55.3893 67.4474H54.549L54.0263 70.0538H54.9657Z" fill="white"/>
<path d="M23.6168 65.9443H26.1789L24.2044 75.4511H21.6424L23.6168 65.9443Z" fill="white"/>
<path d="M27.8971 65.9443H30.6812L32.6283 72.5373H32.6556L33.7932 65.9443H35.9009L33.8854 75.4511H31.2107L29.2225 68.8719H29.1952L28.0713 75.4511H25.868L27.8971 65.9443Z" fill="white"/>
<path d="M38.7157 67.5055L36.345 67.5362L36.6934 65.9443H44.0071L43.6587 67.5362L41.288 67.5055L39.6073 75.4511H37.0316L38.7123 67.5055H38.7157Z" fill="white"/>
<path d="M44.7552 65.9443H51.1637L50.8563 67.4781L46.9654 67.4542L46.453 69.7259L50.1286 69.702L49.7836 71.2699L46.1387 71.2563L45.5648 73.9173L49.6197 73.8969L49.302 75.4477H42.7124L44.7552 65.9409V65.9443Z" fill="white"/>
<path d="M61.2102 65.9443H63.7859L62.1462 73.8627H65.8321L65.4974 75.4546H59.2358L61.2102 65.9478V65.9443Z" fill="white"/>
<path d="M82.3657 65.9443H84.9277L84.0942 69.8933H84.1216L87.5717 65.9443H90.6598L86.1985 70.3818L89.1397 75.4511H86.2122L83.879 71.0923H83.8517L82.9294 75.4511H80.3673L82.3691 65.9443H82.3657Z" fill="white"/>
<path d="M68.5 65.9443H71.0621L69.0876 75.4511H66.5256L68.5 65.9443Z" fill="white"/>
<path d="M72.7052 65.9443H75.4892L77.4364 72.5373H77.4637L78.6012 65.9443H80.7089L78.6935 75.4511H76.0187L74.0306 68.8719H74.0033L72.8794 75.4511H70.6761L72.7052 65.9443Z" fill="white"/>
<path d="M47.3822 42.7461L50.2243 42.7802L50.7572 41.1235C51.4404 38.763 53.613 37.0208 56.1853 37.0208C58.5389 37.0208 60.5578 38.4794 61.4084 40.5359L62.3102 43.0125L64.9166 43.033C64.9166 43.033 68.8007 42.8144 69.887 46.9512C69.887 46.9512 70.8947 50.825 67.3181 52.9668L65.7296 54.0463L66.406 55.9149C66.406 55.9149 67.687 59.5085 64.5989 61.9305C64.5989 61.9305 61.4254 64.7897 57.3467 61.6333L55.8915 60.6085L53.6301 62.1355C53.6301 62.1355 50.7709 64.1168 47.6144 62.0466C44.458 59.9765 45.1071 56.6391 45.3701 55.9456C45.6331 55.2522 46.1763 53.6398 46.1763 53.6398L43.9661 52.0343C43.9661 52.0343 41.5715 50.1144 42.2376 46.8521C42.9037 43.5898 45.5853 42.7324 47.3753 42.7495L47.3822 42.7461ZM57.0666 42.1824C56.9709 41.7793 56.6123 41.4753 56.1853 41.4753C55.7583 41.4753 55.3791 41.793 55.2971 42.2166L55.0477 42.9784H57.2716L57.0666 42.1824ZM47.9697 49.1853L48.711 47.0878L47.8843 47.0708C47.4573 47.0127 47.0405 47.2586 46.8971 47.6754C46.7604 48.0819 46.9312 48.5157 47.2831 48.7378L47.9697 49.1887V49.1853ZM51.9426 51.9318L56.0281 54.8149L60.1923 52.0035L58.5252 47.3201H53.5344L51.9391 51.9284L51.9426 51.9318ZM64.9235 49.0213C65.2787 48.8027 65.4461 48.3654 65.3095 47.9589C65.1694 47.5422 64.7492 47.2962 64.3222 47.3543L63.5195 47.3645L64.2334 49.4688L64.92 49.0179L64.9235 49.0213ZM60.5817 58.2958C60.8891 58.576 61.3947 58.6101 61.6816 58.4222C62.0506 58.1831 62.1667 57.7049 61.9959 57.3086L61.7705 56.54L59.9361 57.7971L60.5817 58.2924V58.2958ZM49.8656 57.1686C49.7221 57.558 49.8314 57.9747 50.1901 58.207C50.5591 58.4496 51.0646 58.3983 51.3652 58.0909L51.963 57.5716L50.1013 56.3555L49.8656 57.1686Z" fill="white"/>
<path d="M60.3289 41.6495C59.7516 39.7741 58.1153 38.4214 56.1853 38.4214C54.2552 38.4214 52.7009 39.7058 52.086 41.5095L49.1756 50.029L50.6786 51.0675L53.9512 41.7213C54.2791 40.8023 55.1707 40.1465 56.2228 40.1465C57.3501 40.1465 58.2998 40.9082 58.5594 41.9365L58.8908 42.9852H60.7149L60.3323 41.6495H60.3289Z" fill="#FFA000"/>
<path d="M65.3026 52.5842L67.0653 51.4194C67.0653 51.4194 69.214 49.7968 68.442 47.0605C67.67 44.3243 64.9166 44.3448 64.5682 44.3379L54.5797 44.2935L54.0434 45.9776L64.3257 46.022C64.6399 46.0289 66.1669 45.9025 66.693 47.4465C67.219 48.9906 66.0542 49.9539 66.0542 49.9539L64.7492 50.9001L65.3095 52.5842H65.3026Z" fill="#FFA000"/>
<path d="M63.2599 56.6083L60.1581 47.3611H61.972L65.1899 56.926C65.1899 56.926 65.8458 59.2831 63.5331 60.9672C63.5331 60.9672 61.2 62.5966 58.7473 60.8784L57.1691 59.7579L58.7473 58.6682L60.0454 59.6247C60.0454 59.6247 61.3776 60.465 62.6757 59.3787C63.9738 58.2924 63.2633 56.6083 63.2633 56.6083H63.2599Z" fill="#FFA000"/>
<path d="M60.691 53.4963L61.2683 55.1633L52.5267 61.0902C52.5267 61.0902 50.2311 62.4736 48.0209 60.5812C45.8108 58.6887 46.8458 56.0754 46.8458 56.0754L47.4163 54.5382L48.8818 55.5494L48.4889 56.7757C48.4889 56.7757 47.9287 58.1968 49.2268 59.2831C49.2268 59.2831 50.4702 60.4138 52.1885 59.2387C53.9068 58.0635 60.6944 53.4963 60.6944 53.4963H60.691Z" fill="#FFA000"/>
<path d="M54.7369 55.7577L46.0123 49.5406C46.0123 49.5406 45.0798 48.5226 45.4145 47.385C45.7493 46.2543 46.5726 45.6668 48.0449 45.7351L49.1687 45.7624L49.7631 44.0612L47.1943 44.0442C47.1943 44.0442 44.6083 44.1159 43.768 46.6745C43.768 46.6745 42.9447 49.216 44.8304 50.8386C46.5145 52.2905 53.2031 56.8099 53.2031 56.8099L54.7369 55.7577Z" fill="#FFA000"/>
<path d="M66.8501 62.7503H66.6315V61.729H67.0141C67.2771 61.729 67.4308 61.8041 67.4308 62.0364C67.4308 62.2243 67.3215 62.2926 67.1849 62.3028L67.4445 62.7503H67.1849L66.9492 62.3233H66.8467V62.7503H66.8501ZM67.0448 62.1491C67.1439 62.1491 67.1985 62.1286 67.1985 62.0159C67.1985 61.91 67.0858 61.9032 67.0038 61.9032H66.8501V62.1491H67.0448ZM67.0107 63.1876C66.5085 63.1876 66.0576 62.8392 66.0576 62.2414C66.0576 61.6436 66.5051 61.2951 67.0107 61.2951C67.5162 61.2951 67.9603 61.6436 67.9603 62.2414C67.9603 62.8392 67.5128 63.1876 67.0107 63.1876ZM67.0107 61.5137C66.6349 61.5137 66.3309 61.8041 66.3309 62.2414C66.3309 62.6786 66.6349 62.969 67.0107 62.969C67.3762 62.969 67.687 62.6786 67.687 62.2414C67.687 61.8041 67.3762 61.5137 67.0107 61.5137Z" fill="white"/>
<path d="M90.3387 75.1164H90.1201V74.095H90.5027C90.7657 74.095 90.9194 74.1701 90.9194 74.4024C90.9194 74.5903 90.8101 74.6586 90.6735 74.6689L90.9331 75.1164H90.6735L90.4378 74.6894H90.3353V75.1164H90.3387ZM90.53 74.5152C90.6291 74.5152 90.6837 74.4947 90.6837 74.3819C90.6837 74.276 90.571 74.2692 90.489 74.2692H90.3353V74.5152H90.53ZM90.4959 75.5536C89.9937 75.5536 89.5428 75.2052 89.5428 74.6074C89.5428 74.0096 89.9903 73.6611 90.4959 73.6611C91.0014 73.6611 91.4455 74.0096 91.4455 74.6074C91.4455 75.2052 90.998 75.5536 90.4959 75.5536ZM90.4959 73.8798C90.1201 73.8798 89.8161 74.1701 89.8161 74.6074C89.8161 75.0446 90.1201 75.3384 90.4959 75.335C90.8614 75.335 91.1722 75.0446 91.1722 74.6074C91.1722 74.1701 90.8614 73.8798 90.4959 73.8798Z" fill="white"/>
</g>
<rect x="1" y="1" width="110" height="110" rx="9" stroke="black" stroke-opacity="0.1" stroke-width="2"/>
<defs>
<clipPath id="clip0_647_1550">
<rect x="2" y="2" width="108" height="108" rx="8" fill="white"/>
</clipPath>
</defs>
</svg>
