<svg width="112" height="112" viewBox="0 0 112 112" fill="none" xmlns="http://www.w3.org/2000/svg">
<g clip-path="url(#clip0_647_1544)">
<rect x="2" y="2" width="108" height="108" rx="8" fill="white"/>
<path d="M47.3086 24.0029H44.4244C43.9815 24.0029 43.6225 24.3619 43.6225 24.8048V42.7571C43.6225 43.2 43.9815 43.559 44.4244 43.559H47.3086C47.7515 43.559 48.1105 43.2 48.1105 42.7571V24.8048C48.1105 24.3619 47.7515 24.0029 47.3086 24.0029Z" fill="black"/>
<path d="M40.3372 39.0774H32.5575V24.8048C32.5575 24.365 32.2018 24.0029 31.7556 24.0029H28.8713C28.4316 24.0029 28.0694 24.365 28.0694 24.8048V42.7635C28.0694 43.2033 28.4251 43.5655 28.8713 43.5655H40.3372C40.777 43.5655 41.1391 43.2098 41.1391 42.7635V39.8793C41.1391 39.4395 40.7835 39.0774 40.3372 39.0774Z" fill="black"/>
<path d="M83.2197 28.4974C83.6594 28.4974 84.0216 28.1417 84.0216 27.6955V24.8048C84.0216 24.365 83.6594 24.0029 83.2197 24.0029H71.7537C71.314 24.0029 70.9518 24.3586 70.9518 24.8048V42.7635C70.9518 43.2033 71.3075 43.5655 71.7537 43.5655H83.2197C83.6594 43.5655 84.0216 43.2098 84.0216 42.7635V39.8793C84.0216 39.4395 83.6594 39.0774 83.2197 39.0774H75.4464V36.0314H83.2197C83.6594 36.0314 84.0216 35.6758 84.0216 35.2295V32.3453C84.0216 31.9055 83.6594 31.5434 83.2197 31.5434H75.4464V28.4974H83.2197Z" fill="black"/>
<path d="M64.2262 24.0029C63.7864 24.0029 63.4243 24.3586 63.4243 24.8048V35.1972L55.8709 24.3974C55.6575 24.0934 55.3406 24.0029 54.9849 24.0029C54.9396 23.9964 54.8944 24.0029 54.8491 24.0029H51.9648C51.5251 24.0029 51.1629 24.3586 51.1629 24.8048V42.7635C51.1629 43.2033 51.5186 43.5655 51.9648 43.5655H54.8491C55.2889 43.5655 55.651 43.2098 55.651 42.7635V31.912L63.5278 43.171C63.5536 43.2098 63.586 43.2486 63.6183 43.2809C63.7541 43.4426 63.9481 43.5461 64.1745 43.5655H67.1169C67.5567 43.5655 67.9188 43.2098 67.9188 42.7635V24.8048C67.9188 24.365 67.5567 24.0029 67.1169 24.0029H64.2262Z" fill="black"/>
<path d="M84.1897 50.1165H28.1988C26.9844 50.1165 26 51.1009 26 52.3153V85.8012C26 87.0156 26.9844 88 28.1988 88H84.1897C85.404 88 86.3885 87.0156 86.3885 85.8012V52.3153C86.3885 51.1009 85.404 50.1165 84.1897 50.1165Z" fill="#08BF5B"/>
<path d="M47.7742 64.8871C47.7742 68.2175 45.0969 70.8949 41.6436 70.8949H39.018V75.8098C39.018 76.1331 38.7528 76.3983 38.4295 76.3983H35.6034C35.2801 76.3983 35.0149 76.1331 35.0149 75.8098V59.4742C35.0149 59.1508 35.2801 58.8857 35.6034 58.8857H41.6436C45.0969 58.8857 47.7742 61.563 47.7742 64.8935V64.8871ZM43.7712 64.8871C43.7712 63.6131 42.8723 62.6365 41.6436 62.6365H39.018V67.1376H41.6436C42.8723 67.1376 43.7712 66.161 43.7712 64.8871Z" fill="white"/>
<path d="M62.6353 64.1951V76.0878C62.6353 76.256 62.4995 76.3983 62.3249 76.3983H59.1949C59.0268 76.3983 58.8845 76.2625 58.8845 76.0878V75.2213C58.0567 76.1719 56.8345 76.7475 55.1595 76.7475C51.8808 76.7475 49.1776 73.8697 49.1776 70.1447C49.1776 66.4197 51.8808 63.5419 55.1595 63.5419C56.8345 63.5419 58.0632 64.1175 58.8845 65.0681V64.2016C58.8845 64.0334 59.0203 63.8911 59.1949 63.8911H62.3249C62.493 63.8911 62.6353 64.0269 62.6353 64.2016V64.1951ZM58.8845 70.1382C58.8845 68.2628 57.6364 67.0858 55.9097 67.0858C54.183 67.0858 52.9349 68.2628 52.9349 70.1382C52.9349 72.0136 54.183 73.1906 55.9097 73.1906C57.6364 73.1906 58.8845 72.0136 58.8845 70.1382Z" fill="white"/>
<path d="M75.1295 64.208L72.2517 71.464L69.2704 64.2016C69.1928 64.0075 68.9988 63.8782 68.7919 63.8782H65.5972C65.3773 63.8782 65.2286 64.1045 65.3126 64.305L70.2793 76.4177L68.4685 80.9769C68.3844 81.1773 68.5397 81.4037 68.7595 81.4037H71.9542C72.1676 81.4037 72.3552 81.2744 72.4328 81.0803L79.0937 64.305C79.1778 64.1045 79.0226 63.8782 78.8027 63.8782H75.608C75.3946 63.8782 75.2071 64.0075 75.1295 64.2016V64.208Z" fill="white"/>
</g>
<rect x="1" y="1" width="110" height="110" rx="9" stroke="black" stroke-opacity="0.1" stroke-width="2"/>
<defs>
<clipPath id="clip0_647_1544">
<rect x="2" y="2" width="108" height="108" rx="8" fill="white"/>
</clipPath>
</defs>
</svg>
