<svg width="112" height="112" viewBox="0 0 112 112" fill="none" xmlns="http://www.w3.org/2000/svg">
<g clip-path="url(#clip0_647_1545)">
<rect x="2" y="2" width="108" height="108" rx="8" fill="white"/>
<path d="M28.9797 49.0629H27.0334C26.7344 49.0629 26.4921 49.3053 26.4921 49.6043V61.7163C26.4921 62.0153 26.7344 62.2576 27.0334 62.2576H28.9797C29.2787 62.2576 29.5211 62.0153 29.5211 61.7163V49.6043C29.5211 49.3053 29.2787 49.0629 28.9797 49.0629Z" fill="black"/>
<path d="M24.275 59.2286H19.029V49.6003C19.029 49.3018 18.7862 49.059 18.4877 49.059H16.5413C16.2428 49.059 16 49.3018 16 49.6003V61.7123C16 62.0109 16.2428 62.2537 16.5413 62.2537H24.275C24.5736 62.2537 24.8164 62.0109 24.8164 61.7123V59.766C24.8164 59.4674 24.5736 59.2246 24.275 59.2246V59.2286Z" fill="black"/>
<path d="M53.2038 52.088C53.5024 52.088 53.7452 51.8452 53.7452 51.5466V49.6003C53.7452 49.3018 53.5024 49.059 53.2038 49.059H45.4701C45.1716 49.059 44.9288 49.3018 44.9288 49.6003V61.7123C44.9288 62.0109 45.1716 62.2537 45.4701 62.2537H53.2038C53.5024 62.2537 53.7452 62.0109 53.7452 61.7123V59.766C53.7452 59.4674 53.5024 59.2246 53.2038 59.2246H47.9578V57.1708H53.2038C53.5024 57.1708 53.7452 56.928 53.7452 56.6295V54.6831C53.7452 54.3846 53.5024 54.1418 53.2038 54.1418H47.9578V52.088H53.2038Z" fill="black"/>
<path d="M42.3376 49.0629H40.3913C40.0927 49.0629 39.8499 49.3057 39.8499 49.6043V56.6096L34.7552 49.3256C34.6119 49.1187 34.3969 49.059 34.1541 49.059C34.1223 49.055 34.0944 49.059 34.0626 49.059H32.1162C31.8177 49.059 31.5749 49.3018 31.5749 49.6003V61.7123C31.5749 62.0109 31.8177 62.2537 32.1162 62.2537H34.0626C34.3611 62.2537 34.6039 62.0109 34.6039 61.7123V54.3965L39.9176 61.9909C39.9375 62.0188 39.9574 62.0427 39.9813 62.0666C40.0728 62.174 40.2042 62.2457 40.3554 62.2576H42.3416C42.6401 62.2576 42.8829 62.0148 42.8829 61.7163V49.6003C42.8829 49.3018 42.6401 49.059 42.3416 49.059L42.3376 49.0629Z" fill="black"/>
<path d="M94.6427 44H60.1813C59.4339 44 58.828 44.6059 58.828 45.3533V65.9633C58.828 66.7107 59.4339 67.3166 60.1813 67.3166H94.6427C95.3901 67.3166 95.996 66.7107 95.996 65.9633V45.3533C95.996 44.6059 95.3901 44 94.6427 44Z" fill="#08BF5B"/>
<path d="M72.2297 53.091C72.2297 55.1409 70.5818 56.7887 68.4563 56.7887H66.8403V59.8137C66.8403 60.0127 66.6771 60.1759 66.4781 60.1759H64.7387C64.5397 60.1759 64.3765 60.0127 64.3765 59.8137V49.7595C64.3765 49.5605 64.5397 49.3973 64.7387 49.3973H68.4563C70.5818 49.3973 72.2297 51.0451 72.2297 53.095V53.091ZM69.7659 53.091C69.7659 52.3069 69.2126 51.7059 68.4563 51.7059H66.8403V54.4761H68.4563C69.2126 54.4761 69.7659 53.8751 69.7659 53.091Z" fill="white"/>
<path d="M81.3804 52.6651V59.9849C81.3804 60.0884 81.2968 60.1759 81.1893 60.1759H79.2628C79.1594 60.1759 79.0718 60.0923 79.0718 59.9849V59.4515C78.5623 60.0366 77.81 60.3909 76.7791 60.3909C74.7611 60.3909 73.0974 58.6196 73.0974 56.327C73.0974 54.0343 74.7611 52.2631 76.7791 52.2631C77.81 52.2631 78.5663 52.6173 79.0718 53.2025V52.6691C79.0718 52.5656 79.1554 52.478 79.2628 52.478H81.1893C81.2928 52.478 81.3804 52.5616 81.3804 52.6691V52.6651ZM79.0718 56.323C79.0718 55.1687 78.3036 54.4443 77.2409 54.4443C76.1781 54.4443 75.4099 55.1687 75.4099 56.323C75.4099 57.4773 76.1781 58.2017 77.2409 58.2017C78.3036 58.2017 79.0718 57.4773 79.0718 56.323Z" fill="white"/>
<path d="M89.0663 52.6771L87.2951 57.1429L85.4602 52.6731C85.4124 52.5537 85.293 52.4741 85.1656 52.4741H83.1994C83.064 52.4741 82.9725 52.6134 83.0242 52.7368L86.0811 60.1919L84.9666 62.998C84.9149 63.1214 85.0104 63.2607 85.1457 63.2607H87.112C87.2433 63.2607 87.3588 63.1811 87.4065 63.0617L91.5062 52.7368C91.558 52.6134 91.4625 52.4741 91.3271 52.4741H89.3609C89.2295 52.4741 89.1141 52.5537 89.0663 52.6731V52.6771Z" fill="white"/>
</g>
<rect x="1" y="1" width="110" height="110" rx="9" stroke="black" stroke-opacity="0.1" stroke-width="2"/>
<defs>
<clipPath id="clip0_647_1545">
<rect x="2" y="2" width="108" height="108" rx="8" fill="white"/>
</clipPath>
</defs>
</svg>
