<svg width="112" height="112" viewBox="0 0 112 112" fill="none" xmlns="http://www.w3.org/2000/svg">
<g clip-path="url(#clip0_647_1549)">
<rect x="2" y="2" width="108" height="108" rx="8" fill="white"/>
<path d="M95.2449 44.0942C94.2623 36.676 91.6364 29.9531 87.0049 25.0291H87.003C82.079 20.399 75.3561 17.7731 67.9372 16.7907C60.85 15.851 56.0265 16.0832 56.0265 16.0832C56.0265 16.0832 51.2004 15.851 44.1137 16.7904C36.6942 17.7728 29.9716 20.399 25.0465 25.0288C20.4161 29.9528 17.7889 36.6758 16.8063 44.0942C15.8668 51.179 16.0999 56.0043 16.0999 56.0043C16.0999 56.0043 15.8668 60.8278 16.8063 67.9147C17.7889 75.3331 20.4161 82.0542 25.0465 86.9776V86.9795C29.9716 91.6091 36.6943 94.2347 44.1134 95.2184C51.2001 96.1576 56.0262 95.9246 56.0262 95.9246C56.0262 95.9246 60.8497 96.1576 67.9369 95.2184C75.3559 94.235 82.0788 91.6094 87.0028 86.9795L87.0047 86.9776C91.6361 82.0542 94.2623 75.3331 95.2447 67.9147C96.1836 60.8278 95.951 56.0043 95.951 56.0043C95.951 56.0043 96.1836 51.1787 95.2449 44.0942Z" fill="#1E4BC6"/>
<path d="M30.7865 44.3H37.9601C39.0513 44.3 40.0553 44.4963 40.9737 44.888C41.8926 45.2798 42.6854 45.8104 43.3566 46.4808C44.0254 47.1507 44.5516 47.9395 44.934 48.8483C45.3166 49.7566 45.5084 50.7272 45.5084 51.7595C45.5084 52.7928 45.3166 53.7683 44.934 54.6872C44.5518 55.6048 44.0254 56.3987 43.3566 57.0678C42.6854 57.7379 41.887 58.2702 40.9593 58.6611C40.0321 59.0539 39.0225 59.2496 37.9318 59.2496H34.6892V65.2462H30.7865V44.3ZM34.6892 47.9152V55.6342H37.6732C38.2476 55.6342 38.7737 55.5336 39.251 55.3328C39.7289 55.132 40.1406 54.8542 40.4857 54.5C40.8308 54.147 41.0982 53.7352 41.2889 53.2664C41.4809 52.7976 41.5769 52.296 41.5769 51.7595C41.5769 51.2251 41.4809 50.7222 41.2889 50.2534C41.0982 49.7846 40.8308 49.3792 40.4857 49.0342C40.1406 48.6899 39.7292 48.4171 39.251 48.2166C38.7737 48.0158 38.2476 47.9152 37.6732 47.9152H34.6892Z" fill="white"/>
<path d="M54.5196 65.2739C53.5055 65.2739 52.5057 65.0867 51.5212 64.7086C50.5342 64.3307 49.6502 63.7822 48.8657 63.0624C48.0812 62.3435 47.4497 61.4627 46.9713 60.4206C46.4932 59.38 46.2545 58.1944 46.2545 56.8672C46.2545 55.5208 46.4886 54.328 46.9572 53.2856C47.426 52.244 48.0473 51.3627 48.8233 50.6438C49.5974 49.9254 50.4876 49.3766 51.491 48.9987C52.4961 48.6211 53.5244 48.4312 54.5766 48.4312C55.6852 48.4312 56.7092 48.6326 57.647 49.0336C58.5839 49.435 59.3596 49.9814 59.9724 50.675V48.4608H63.8462V65.2462H59.9724V62.8611C59.3596 63.6115 58.5759 64.2006 57.6177 64.6299C56.6617 65.0611 55.6289 65.2739 54.5196 65.2739ZM55.1508 61.7176C55.8772 61.7176 56.5468 61.591 57.1601 61.3398C57.7719 61.0883 58.2977 60.7376 58.7372 60.2886C59.1774 59.8387 59.5262 59.3176 59.7849 58.7248C60.0441 58.1342 60.1735 57.4958 60.1735 56.8112C60.1735 56.1472 60.0441 55.5179 59.7849 54.9251C59.5262 54.3334 59.1777 53.8163 58.7372 53.376C58.2977 52.9352 57.7719 52.5899 57.1601 52.339C56.5468 52.0872 55.8769 51.9614 55.1508 51.9614C54.4425 51.9614 53.7783 52.0872 53.1559 52.339C52.5337 52.5899 51.994 52.9307 51.5348 53.3616C51.0756 53.7939 50.7169 54.3059 50.4582 54.899C50.1998 55.4918 50.0713 56.1296 50.0713 56.811C50.0713 57.4952 50.1998 58.1376 50.4582 58.7392C50.7169 59.3408 51.0756 59.8603 51.5348 60.3008C51.9937 60.743 52.5337 61.0878 53.1559 61.3395C53.7783 61.5912 54.4425 61.7176 55.1508 61.7176Z" fill="white"/>
<path d="M71.9961 64.5198L65.1089 48.4603H69.2412L73.918 59.9454L78.3388 48.4603H82.4137L72.3969 72.964H68.4676L71.9961 64.5198Z" fill="white"/>
</g>
<rect x="1" y="1" width="110" height="110" rx="9" stroke="black" stroke-opacity="0.1" stroke-width="2"/>
<defs>
<clipPath id="clip0_647_1549">
<rect x="2" y="2" width="108" height="108" rx="8" fill="white"/>
</clipPath>
</defs>
</svg>
