<svg width="112" height="112" viewBox="0 0 112 112" fill="none" xmlns="http://www.w3.org/2000/svg">
<g clip-path="url(#clip0_647_1551)">
<rect x="2" y="2" width="108" height="108" rx="8" fill="white"/>
<path d="M34.3775 74.0359V55.6031H37.3476V56.9571C37.756 56.2957 38.5551 55.8251 39.1811 55.6164C39.8115 55.4078 40.4597 55.3012 41.1256 55.3012C42.7682 55.3012 44.5218 55.8561 45.9469 57.3345C47.261 58.7019 47.958 60.3667 47.958 62.3378C47.958 63.2435 47.7848 64.1314 47.4386 64.9882C47.1056 65.845 46.6261 66.5998 46.0135 67.2302C45.3653 67.9094 44.6284 68.42 43.8159 68.7662C43.0079 69.1081 42.2488 69.2857 41.2588 69.2857C40.5351 69.2857 39.8381 69.1747 39.1811 68.9438C38.5329 68.7352 37.6272 68.2157 37.2987 67.643V74.0315H34.3775M41.0279 57.9116C39.9447 57.9116 38.9991 58.249 38.2266 59.0437C37.4363 59.8695 37.1256 61.0504 37.1256 62.2268C37.1256 63.4788 37.423 64.6996 38.1955 65.5254C38.9724 66.3556 39.9314 66.6442 41.0501 66.6442C42.1689 66.6442 43.1012 66.1824 43.7982 65.4766C44.6017 64.6597 44.9791 63.5543 44.9791 62.36C44.9791 61.0548 44.5928 59.8961 43.8159 59.0748C43.15 58.3645 42.1822 57.9116 41.0235 57.9116" fill="#1E4BC6"/>
<path d="M68.3176 74.0359L70.8259 68.2246L65.0767 55.6031H68.2066L72.291 65.077L76.0601 55.6031H79.2077L71.3942 74.0359H68.3176Z" fill="#1E4BC6"/>
<path d="M60.362 69.0459V67.6519C60.0335 68.2202 59.1278 68.744 58.4796 68.9527C57.8181 69.1835 57.1167 69.2945 56.4019 69.2945C55.4075 69.2945 54.6528 69.1214 53.8403 68.7751C53.0324 68.4288 52.2954 67.9138 51.6472 67.2346C51.0301 66.6086 50.5507 65.8495 50.2221 64.9971C49.8759 64.1358 49.6983 63.2524 49.6983 62.3467C49.6983 60.3756 50.3953 58.7108 51.7138 57.3434C53.1433 55.8606 54.8969 55.3101 56.5396 55.3101C57.2011 55.3101 57.8492 55.4166 58.4796 55.6253C59.11 55.834 59.9092 56.3045 60.3176 56.966V55.612H63.2832V69.0548H60.362M53.8359 59.0925C53.059 59.9183 52.6772 61.077 52.6772 62.3778C52.6772 63.5676 53.059 64.6774 53.8581 65.4943C54.5551 66.2002 55.4741 66.6619 56.6062 66.6619C57.7382 66.6619 58.6794 66.3733 59.4563 65.5432C60.2332 64.7174 60.5262 63.4965 60.5262 62.2446C60.5262 61.0681 60.2199 59.8917 59.4341 59.0615C58.6528 58.2624 57.7116 57.9294 56.6328 57.9294C55.4696 57.9294 54.5063 58.3822 53.8359 59.0925Z" fill="#1E4BC6"/>
<path d="M82.3198 47.0748L82.1689 38.0981H85.0013V49.4233H80.9258L78.1067 40.127H78.0357L78.1955 49.4233H75.3853V38.0981H79.625L82.2577 47.0748H82.3198Z" fill="#1E4BC6"/>
<path d="M30.8703 39.1547L29.3076 49.5254H26.2221L28.3353 38.0981H33.4275L35.5407 49.5254H32.4641L30.9369 39.1547H30.8703Z" fill="#1E4BC6"/>
<path d="M44.2022 46.844L45.6184 38.0981H50.2754L50.5329 49.5254H47.6694L47.5895 39.2524H47.5318L45.6228 49.5254H42.7282L40.8104 39.2524H40.7438L40.6728 49.5254H37.8137L38.0756 38.0981H42.7371L44.1444 46.844H44.2022Z" fill="#1E4BC6"/>
<path d="M68.1755 47.8118C68.9791 47.8118 69.2188 47.2657 69.2765 46.9905C69.2987 46.8661 69.2987 46.7019 69.2987 46.5509V38.0981H72.2022V46.2935C72.2022 46.5065 72.18 46.9327 72.1711 47.0482C71.9757 49.1836 70.2799 49.8673 68.1755 49.8673C66.0712 49.8673 64.3886 49.1836 64.1933 47.0482C64.18 46.9327 64.1578 46.5065 64.1666 46.2935V38.0981H67.0612V46.5554C67.0523 46.7019 67.0612 46.8706 67.0834 46.9949C67.1367 47.2701 67.3853 47.8162 68.1755 47.8162" fill="#1E4BC6"/>
<path d="M21.4053 46.3023C21.5119 46.5776 21.4808 46.9372 21.4275 47.1503C21.3343 47.5321 21.0768 47.9227 20.3088 47.9227C19.5984 47.9227 19.1678 47.5099 19.1678 46.8839L19.1589 45.774H16.1001V46.6575C16.1001 49.2102 18.1023 49.9782 20.2466 49.9782C22.3909 49.9782 24.0246 49.2768 24.291 47.3722C24.4331 46.3822 24.331 45.7341 24.2821 45.4943C23.8027 43.0926 19.4564 42.3911 19.1323 41.0504C19.079 40.8151 19.0879 40.5798 19.119 40.451C19.2033 40.0781 19.4519 39.6786 20.1623 39.6786C20.8726 39.6786 21.2322 40.1003 21.2322 40.7085V41.4233H24.0868V40.6197C24.0868 38.1247 21.8493 37.7341 20.2244 37.7341C18.1955 37.7341 16.5352 38.4089 16.2288 40.2779C16.1489 40.784 16.1401 41.2368 16.251 41.814C16.7527 44.158 20.8149 44.8284 21.4053 46.3068" fill="#1E4BC6"/>
<path d="M58.5817 46.289C58.6972 46.5598 58.6483 46.9105 58.6039 47.1236C58.5151 47.4966 58.2532 47.8784 57.5029 47.8784C56.7926 47.8784 56.3664 47.4699 56.3664 46.8528V45.7518H53.3254V46.6309C53.3254 49.1614 55.3143 49.9117 57.4452 49.9117C59.5762 49.9117 61.17 49.2191 61.4408 47.3279C61.5784 46.3512 61.4763 45.7119 61.4275 45.4633C60.9524 43.097 56.655 42.3956 56.3398 41.0637C56.2865 40.8417 56.2998 40.602 56.3265 40.4777C56.4019 40.1137 56.6506 39.7185 57.3609 39.7185C58.0312 39.7185 58.4175 40.1225 58.4175 40.7308V41.4366H61.2366V40.642C61.2366 38.178 59.0213 37.7918 57.4275 37.7918C55.4119 37.7918 53.7604 38.4488 53.4719 40.3046C53.3786 40.8018 53.3698 41.2502 53.4941 41.8273C53.9869 44.1492 58.0046 44.8107 58.5906 46.2801" fill="#1E4BC6"/>
<path d="M92.029 47.6963C92.8503 47.6963 93.1433 47.1814 93.1966 46.8706C93.2144 46.7418 93.2233 46.5776 93.2233 46.4355V44.7796H92.0557V43.1014H96.1045V46.1736C96.1045 46.3867 96.0956 46.5465 96.0645 46.9283C95.8736 48.9971 94.0668 49.7518 92.0379 49.7518C90.009 49.7518 88.2155 48.9971 88.0335 46.9283C87.9891 46.5465 87.9891 46.3867 87.9891 46.1736V41.3656C87.9891 41.1614 88.0113 40.7973 88.0423 40.6153C88.291 38.4666 90.0179 37.7874 92.0423 37.7874C94.0668 37.7874 95.8559 38.4577 96.0601 40.6153C96.1045 40.966 96.0823 41.3656 96.0823 41.3656V41.7385H93.2055V41.0992C93.2055 41.0992 93.2055 40.824 93.1655 40.6597C93.1167 40.4155 92.8947 39.834 92.0201 39.834C91.1988 39.834 90.9502 40.3845 90.8881 40.6597C90.8526 40.8107 90.8437 41.0193 90.8437 41.2058V46.4311C90.8437 46.5776 90.8526 46.7374 90.8659 46.8661C90.9236 47.1769 91.2077 47.6919 92.0423 47.6919" fill="#1E4BC6"/>
</g>
<rect x="1" y="1" width="110" height="110" rx="9" stroke="black" stroke-opacity="0.1" stroke-width="2"/>
<defs>
<clipPath id="clip0_647_1551">
<rect x="2" y="2" width="108" height="108" rx="8" fill="white"/>
</clipPath>
</defs>
</svg>
