<svg width="112" height="112" viewBox="0 0 112 112" fill="none" xmlns="http://www.w3.org/2000/svg">
<g clip-path="url(#clip0_650_1863)">
<rect x="2" y="2" width="108" height="108" rx="8" fill="white"/>
<path fill-rule="evenodd" clip-rule="evenodd" d="M28.3539 52.2798L26.7434 59.5151L24.3049 52.2798H22.51L20.0724 59.5151L18.4616 52.2798H16L18.8991 63.144H20.8309L23.4079 55.9779L25.9835 63.144H27.9165L30.8148 52.2798H28.3539ZM32.4609 50.2938H34.7654V48H32.4609V50.2938ZM32.4609 62.9794H34.7654V52.1292H32.4609V62.9794Z" fill="#112032"/>
<path d="M44.0051 48.079H95.9165V63.2978H44.0049L44.0051 48.079Z" fill="white"/>
<path fill-rule="evenodd" clip-rule="evenodd" d="M49.5284 63.2625C46.251 63.2625 44.0051 60.969 44.0051 57.7575C44.0051 53.9741 46.5714 52.0698 49.3681 52.0698C52.6005 52.0698 54.4565 54.4092 54.4565 57.6438V58.3773H46.3659C46.5714 60.1429 47.6038 61.382 49.8726 61.382C51.1791 61.382 52.2334 60.9231 53.0812 60.4413L53.8611 62.0699C52.8976 62.7116 51.2479 63.2625 49.5284 63.2625ZM46.3885 56.8405H52.2333C52.1643 55.556 51.4762 53.9741 49.3679 53.9741C47.5345 53.9741 46.5942 55.1437 46.3885 56.8405ZM61.068 63.3085C57.7445 63.3085 55.7738 60.8543 55.7738 57.7814C55.7738 54.4551 58.0877 52.1155 61.3651 52.1155C62.4431 52.1155 63.6808 52.3684 64.414 52.8494L63.7498 54.8224C63.2221 54.4553 62.4431 54.0887 61.4119 54.0887C59.4173 54.0887 58.1796 55.4642 58.1796 57.6438C58.1796 59.5927 59.1656 61.382 61.5952 61.382C62.6267 61.382 63.268 61.015 63.8645 60.556L64.5057 62.4601C63.704 62.9641 62.3055 63.3085 61.068 63.3085ZM75.9386 52.2077V63.0559H73.6466V62.1848C72.7528 62.8724 71.5154 63.2625 70.2775 63.2625C67.2973 63.2625 65.0512 61.0838 65.0512 57.6899C65.0512 53.9053 67.9167 52.0699 70.6206 52.0699C71.8584 52.0699 72.8895 52.4601 73.6466 53.01V52.2077H75.9386ZM67.4579 57.6899C67.4579 59.7993 68.6955 61.3356 70.7124 61.3356C72.7062 61.3356 73.8293 59.7993 73.8293 57.6899C73.8293 55.4642 72.5465 54.0191 70.6446 54.0191C68.7187 54.0191 67.4579 55.4872 67.4579 57.6899ZM95.9165 48.079L95.9165 63.102H93.6244V62.2308C92.73 62.9185 91.4922 63.3086 90.2551 63.3086C87.2751 63.3086 85.029 61.129 85.029 57.735C85.029 53.9506 87.8935 52.116 90.5984 52.116C91.836 52.116 92.8673 52.5061 93.6242 53.0561V48.079L95.9165 48.079ZM87.4359 57.735C87.4359 59.8454 88.6737 61.3817 90.6902 61.3817C92.6841 61.3817 93.8079 59.8454 93.8079 57.7348C93.8079 55.5103 92.5233 54.0653 90.6214 54.0653C88.6965 54.0653 87.4359 55.5335 87.4359 57.735Z" fill="#112032"/>
<path fill-rule="evenodd" clip-rule="evenodd" d="M83.2061 51.9514C83.2031 51.9514 83.1998 51.9519 83.1969 51.9521C83.109 51.956 81.543 52.0449 80.8443 53.0303V52.1382H78.5514V62.9794H80.8443V57.0663C80.8443 55.3476 81.9215 54.156 83.2515 54.156C83.5727 54.156 83.8938 54.2469 84.1684 54.3615L84.9712 52.3904C84.6316 52.1703 83.814 51.9341 83.2061 51.9514ZM42.0537 51.9514C42.0507 51.9514 42.0474 51.9519 42.0446 51.9519C41.9564 51.9562 40.3908 52.0451 39.6917 53.0299V52.1381H37.3992V62.9794H39.6917V57.066C39.6917 55.3475 40.7692 54.1557 42.0991 54.1557C42.4204 54.1557 42.7416 54.2466 43.016 54.3615L43.8189 52.3906C43.479 52.17 42.6614 51.9343 42.0537 51.9514Z" fill="#112032"/>
</g>
<rect x="1" y="1" width="110" height="110" rx="9" stroke="black" stroke-opacity="0.1" stroke-width="2"/>
<defs>
<clipPath id="clip0_650_1863">
<rect x="2" y="2" width="108" height="108" rx="8" fill="white"/>
</clipPath>
</defs>
</svg>
