<svg width="112" height="112" viewBox="0 0 112 112" fill="none" xmlns="http://www.w3.org/2000/svg">
<g clip-path="url(#clip0_768_301)">
<rect x="2" y="2" width="108" height="108" rx="8" fill="white"/>
<g clip-path="url(#clip1_768_301)">
<path d="M40.55 61.7H33.48C33.48 61.7 33.25 61.69 33.48 61.16C35.19 56.83 40.03 58.03 40.49 61.04C40.55 61.41 40.55 61.7 40.55 61.7ZM43.29 62.06C43.1 61.09 42.49 56.29 37.23 56.29C33.01 56.29 30.52 59.8 30.52 63.01C30.52 66.22 31.05 67.02 32.03 68.25C32.52 68.84 34.21 70.73 37 70.85C38.07 70.85 40.31 71.12 43 68.43C43.25 68 43.72 67.24 43.04 66.71C42.42 66.28 41.99 66.56 41.67 66.76C41.35 66.96 39.88 68.38 38.13 68.61C37.88 68.65 36.15 68.94 34.42 67.39C34.06 67.02 32.94 65.66 33.05 64.06C33.08 63.75 33.17 63.79 33.35 63.78H42.52C42.52 63.78 43.64 63.87 43.3 62.07" fill="#0054A6"/>
<path d="M40.55 61.7H33.48C33.48 61.7 33.25 61.69 33.48 61.16C35.19 56.83 40.03 58.03 40.49 61.04C40.55 61.41 40.55 61.7 40.55 61.7ZM43.29 62.06C43.1 61.09 42.49 56.29 37.23 56.29C33.01 56.29 30.52 59.8 30.52 63.01C30.52 66.22 31.05 67.02 32.03 68.25C32.52 68.84 34.21 70.73 37 70.85C38.07 70.85 40.31 71.12 43 68.43C43.25 68 43.72 67.24 43.04 66.71C42.42 66.28 41.99 66.56 41.67 66.76C41.35 66.96 39.88 68.38 38.13 68.61C37.88 68.65 36.15 68.94 34.42 67.39C34.06 67.02 32.94 65.66 33.05 64.06C33.08 63.75 33.17 63.79 33.35 63.78H42.52C42.52 63.78 43.64 63.87 43.3 62.07L43.29 62.06Z" stroke="#0054A6" stroke-width="0.05" stroke-linecap="round"/>
<path d="M48.3801 54.2L48.3601 56.26C48.3601 56.26 48.3101 56.65 48.9001 56.62C49.6301 56.59 52.7101 56.65 52.7101 56.65C52.7101 56.65 53.5101 56.61 53.1301 57.18C52.6901 57.88 52.6301 58.6 51.5201 58.85C50.8101 58.87 48.7301 58.88 48.7301 58.88C48.7301 58.88 48.3301 58.82 48.3301 59.25V67.37C48.3301 67.78 48.6601 68.45 49.3101 68.45C49.9601 68.49 50.5001 68.48 50.5001 68.48C50.5001 68.48 50.8701 68.51 51.8601 68.04C52.1701 67.89 51.9301 68.01 52.5301 67.77C53.7201 67.28 54.6301 68.45 53.5801 69.42C52.8501 69.88 52.0101 70.41 50.7801 70.54C49.5701 70.67 48.8101 70.63 48.6301 70.62C47.1501 70.51 45.9401 69.27 45.8801 68.19C45.8401 67.42 45.8801 59.31 45.8801 59.31C45.8801 59.31 45.9401 58.82 45.4201 58.87C44.6601 58.87 44.4301 58.87 44.2701 58.87C43.9601 58.87 43.3901 58.61 43.3901 58.06C43.3901 57.65 43.3901 57.34 43.4601 57.13C43.5901 56.78 44.0301 56.6 44.1601 56.59C44.8801 56.59 45.2101 56.59 45.3901 56.59C45.6501 56.59 45.8601 56.53 45.8601 55.98C45.8601 55.52 45.9901 54.62 45.9901 54.62C45.9901 54.62 46.1601 53.9 46.7301 53.83C47.2701 53.77 48.3701 53.48 48.3701 54.22" fill="#0054A6"/>
<path d="M48.3801 54.2L48.3601 56.26C48.3601 56.26 48.3101 56.65 48.9001 56.62C49.6301 56.59 52.7101 56.65 52.7101 56.65C52.7101 56.65 53.5101 56.61 53.1301 57.18C52.6901 57.88 52.6301 58.6 51.5201 58.85C50.8101 58.87 48.7301 58.88 48.7301 58.88C48.7301 58.88 48.3301 58.82 48.3301 59.25V67.37C48.3301 67.78 48.6601 68.45 49.3101 68.45C49.9601 68.49 50.5001 68.48 50.5001 68.48C50.5001 68.48 50.8701 68.51 51.8601 68.04C52.1701 67.89 51.9301 68.01 52.5301 67.77C53.7201 67.28 54.6301 68.45 53.5801 69.42C52.8501 69.88 52.0101 70.41 50.7801 70.54C49.5701 70.67 48.8101 70.63 48.6301 70.62C47.1501 70.51 45.9401 69.27 45.8801 68.19C45.8401 67.42 45.8801 59.31 45.8801 59.31C45.8801 59.31 45.9401 58.82 45.4201 58.87C44.6601 58.87 44.4301 58.87 44.2701 58.87C43.9601 58.87 43.3901 58.61 43.3901 58.06C43.3901 57.65 43.3901 57.34 43.4601 57.13C43.5901 56.78 44.0301 56.6 44.1601 56.59C44.8801 56.59 45.2101 56.59 45.3901 56.59C45.6501 56.59 45.8601 56.53 45.8601 55.98C45.8601 55.52 45.9901 54.62 45.9901 54.62C45.9901 54.62 46.1601 53.9 46.7301 53.83C47.2701 53.77 48.3701 53.48 48.3701 54.22L48.3801 54.2Z" stroke="#0054A6" stroke-width="0.05" stroke-linecap="round"/>
<path d="M55.0499 57.83C55.0499 57.83 55.0199 56.69 55.9199 56.54C56.4999 56.5 57.4299 56.5 57.5599 57.15C57.6999 57.82 57.7599 57.58 57.9499 57.4C58.1399 57.22 58.8299 56.6 60.2899 56.57C60.6299 56.57 61.7399 56.56 63.0499 57.1C63.2599 57.18 63.6599 57.48 63.1899 57.92C62.7599 58.35 62.8299 58.38 62.3199 58.5C61.7599 58.64 61.8099 58.72 61.1499 58.53C59.7299 58.32 58.0699 59.09 57.6899 61.04C57.6199 61.45 57.6399 61.5 57.5899 62.35V69.49C57.5899 69.49 57.5299 70.59 56.8699 70.6C56.2099 70.6 55.0699 70.85 55.0699 69.45C55.0699 69.12 55.0599 57.84 55.0599 57.84" fill="#0054A6"/>
<path d="M55.0499 57.83C55.0499 57.83 55.0199 56.69 55.9199 56.54C56.4999 56.5 57.4299 56.5 57.5599 57.15C57.6999 57.82 57.7599 57.58 57.9499 57.4C58.1399 57.22 58.8299 56.6 60.2899 56.57C60.6299 56.57 61.7399 56.56 63.0499 57.1C63.2599 57.18 63.6599 57.48 63.1899 57.92C62.7599 58.35 62.8299 58.38 62.3199 58.5C61.7599 58.64 61.8099 58.72 61.1499 58.53C59.7299 58.32 58.0699 59.09 57.6899 61.04C57.6199 61.45 57.6399 61.5 57.5899 62.35V69.49C57.5899 69.49 57.5299 70.59 56.8699 70.6C56.2099 70.6 55.0699 70.85 55.0699 69.45C55.0699 69.12 55.0599 57.84 55.0599 57.84L55.0499 57.83Z" stroke="#0054A6" stroke-width="0.05" stroke-linecap="round"/>
<path d="M22.12 68.78C20.13 68.5 17.84 66.02 21.64 64.71C22.32 64.47 25.03 63.78 26.21 63.38C26.3 63.35 26.71 63.22 26.74 63.27C26.77 63.61 26.91 69.19 22.13 68.77M29.3 60.41C29.33 59.65 28.66 56.83 25.53 56.32C24.7 56.24 22.32 56.14 21.01 56.87C21.01 56.87 19.64 57.8 22.78 58.49C23.36 58.54 25.67 57.69 26.34 59.45C26.62 60.05 26.67 60.6 26.72 60.6C26.72 60.83 26.95 61.3 26 61.45C24.71 61.83 20.75 62.75 20.75 62.75C20.25 62.87 17.64 63.74 17.16 65.68C17.01 66.46 16.4 68.91 20.34 70.4C20.75 70.58 24.22 71.4 26.72 69.1C26.87 68.98 26.94 68.98 26.98 69.33C26.98 69.71 26.96 70.44 27.45 70.46C27.83 70.48 28.42 70.49 28.59 70.46C28.79 70.41 29.07 70.48 29.29 69.51C29.29 68.48 29.29 60.43 29.3 60.42" fill="#0054A6"/>
<path d="M22.12 68.78C20.13 68.5 17.84 66.02 21.64 64.71C22.32 64.47 25.03 63.78 26.21 63.38C26.3 63.35 26.71 63.22 26.74 63.27C26.77 63.61 26.91 69.19 22.13 68.77L22.12 68.78ZM29.29 60.42C29.32 59.66 28.65 56.84 25.52 56.33C24.69 56.25 22.31 56.15 21 56.88C21 56.88 19.63 57.81 22.77 58.5C23.35 58.55 25.66 57.7 26.33 59.46C26.61 60.06 26.66 60.61 26.71 60.61C26.71 60.84 26.94 61.31 25.99 61.46C24.7 61.84 20.74 62.76 20.74 62.76C20.24 62.88 17.63 63.75 17.15 65.69C17 66.47 16.39 68.92 20.33 70.41C20.74 70.59 24.21 71.41 26.71 69.11C26.86 68.99 26.93 68.99 26.97 69.34C26.97 69.72 26.95 70.45 27.44 70.47C27.82 70.49 28.41 70.5 28.58 70.47C28.78 70.42 29.06 70.49 29.28 69.52C29.28 68.49 29.28 60.44 29.29 60.43V60.42Z" stroke="#0054A6" stroke-width="0.05" stroke-linecap="round"/>
<path d="M65.8 68.78C63.81 68.5 61.52 66.02 65.32 64.71C66 64.47 68.71 63.78 69.89 63.38C69.98 63.35 70.39 63.22 70.42 63.27C70.45 63.61 70.59 69.19 65.81 68.77M72.98 60.41C73.01 59.65 72.34 56.83 69.21 56.32C68.38 56.24 65.99 56.14 64.69 56.87C64.69 56.87 63.32 57.8 66.46 58.49C67.04 58.54 69.35 57.69 70.02 59.45C70.29 60.05 70.35 60.6 70.4 60.6C70.4 60.83 70.63 61.3 69.68 61.45C68.39 61.83 64.43 62.75 64.43 62.75C63.93 62.87 61.32 63.74 60.84 65.68C60.69 66.46 60.08 68.91 64.02 70.4C64.43 70.58 67.9 71.4 70.4 69.1C70.55 68.98 70.62 68.98 70.66 69.33C70.66 69.71 70.64 70.44 71.13 70.46C71.51 70.48 72.1 70.49 72.27 70.46C72.47 70.41 72.75 70.48 72.97 69.51C72.97 68.48 72.97 60.43 72.98 60.42" fill="#0054A6"/>
<path d="M65.7999 68.78C63.8099 68.5 61.5199 66.02 65.3199 64.71C65.9999 64.47 68.7099 63.78 69.8899 63.38C69.9799 63.35 70.3899 63.22 70.4199 63.27C70.4499 63.61 70.59 69.19 65.81 68.77L65.7999 68.78ZM72.97 60.42C73 59.66 72.33 56.84 69.2 56.33C68.37 56.25 65.98 56.15 64.68 56.88C64.68 56.88 63.31 57.81 66.45 58.5C67.03 58.55 69.3399 57.7 70.0099 59.46C70.2799 60.06 70.3399 60.61 70.3899 60.61C70.3899 60.84 70.6199 61.31 69.6699 61.46C68.3799 61.84 64.4199 62.76 64.4199 62.76C63.9199 62.88 61.31 63.75 60.83 65.69C60.68 66.47 60.0699 68.92 64.0099 70.41C64.4199 70.59 67.8899 71.41 70.3899 69.11C70.5399 68.99 70.61 68.99 70.65 69.34C70.65 69.72 70.6299 70.45 71.1199 70.47C71.4999 70.49 72.0899 70.5 72.2599 70.47C72.4599 70.42 72.7399 70.49 72.9599 69.52C72.9599 68.49 72.96 60.44 72.97 60.43V60.42Z" stroke="#0054A6" stroke-width="0.05" stroke-linecap="round"/>
<mask id="mask0_768_301" style="mask-type:luminance" maskUnits="userSpaceOnUse" x="66" y="36" width="11" height="19">
<path d="M66.56 36.9C66 37.88 67.34 38.74 68.35 39.24C74.12 42.39 74.8 49.79 74.8 49.79C74.8 49.79 75.71 51.39 76.18 54.63C76.81 41.55 72.05 37.41 68.58 36.41C68.16 36.31 67.83 36.26 67.57 36.26C66.98 36.26 66.75 36.5 66.57 36.9" fill="white"/>
</mask>
<g mask="url(#mask0_768_301)">
<path d="M76.8 36.25H65.99V54.62H76.8V36.25Z" fill="url(#paint0_linear_768_301)"/>
</g>
<path d="M74.79 49.79C74.79 49.79 74.11 42.38 68.34 39.24C67.33 38.74 65.99 37.88 66.55 36.91C66.82 36.34 67.16 36.08 68.56 36.41C72.03 37.41 76.79 41.55 76.16 54.63C75.7 51.39 74.78 49.79 74.78 49.79H74.79Z" stroke="#005BAA" stroke-width="0.05" stroke-linecap="round"/>
<path d="M67.1101 37.26C66.8501 37.88 68.1301 38.19 68.7201 38.52C76.6701 42.35 75.8601 49.76 75.8601 49.76C75.8601 49.76 76.1801 51.15 76.2101 54.49C76.9201 42.25 72.2501 37.41 68.6301 36.44C68.4901 36.42 68.3601 36.41 68.2501 36.41C67.5701 36.41 67.3501 36.76 67.1201 37.25" fill="black"/>
<path d="M67.1101 37.26C66.8501 37.88 68.1301 38.19 68.7201 38.52C76.6701 42.35 75.8601 49.76 75.8601 49.76C75.8601 49.76 76.1801 51.15 76.2101 54.49C76.9201 42.25 72.2501 37.41 68.6301 36.44C68.4901 36.42 68.3601 36.41 68.2501 36.41C67.5701 36.41 67.3501 36.76 67.1201 37.25" fill="url(#paint1_radial_768_301)"/>
<path d="M75.7301 49.86C75.7301 49.86 75.4201 42.7 67.7801 38.35C67.1901 38.03 66.5801 37.57 66.5801 37.16C66.7001 36.58 66.9101 36.15 68.3401 36.6C72.1701 38.29 76.8201 42.35 76.1701 54.62C76.1401 52.92 75.7201 49.85 75.7201 49.85" fill="#0054A6"/>
<path d="M77.0699 30.31C76.1999 32.05 77.3099 33.93 77.4199 35.6C77.5399 36.9 75.8999 37.28 75.2999 35.96C75.0399 35.31 75.2799 33.16 75.2799 33.16C75.2899 32.94 75.1499 33.05 75.0399 33.22C73.9399 35.44 74.1699 36.91 74.3099 37.69C74.8199 39.6 75.8999 40.57 76.1299 40.81C76.5699 41.26 76.6599 41.2 77.0099 40.86C78.8099 39.11 79.1199 36.92 79.1199 36.73C79.1199 36.52 79.2499 35.98 78.6799 34.2C78.5699 33.96 78.4099 33.46 78.0099 32.51C77.7099 31.91 77.5099 30.8 77.4499 30.29C77.4299 30.15 77.3699 30.09 77.3099 30.09C77.2299 30.09 77.1399 30.17 77.0699 30.31Z" fill="black"/>
<path d="M77.0699 30.31C76.1999 32.05 77.3099 33.93 77.4199 35.6C77.5399 36.9 75.8999 37.28 75.2999 35.96C75.0399 35.31 75.2799 33.16 75.2799 33.16C75.2899 32.94 75.1499 33.05 75.0399 33.22C73.9399 35.44 74.1699 36.91 74.3099 37.69C74.8199 39.6 75.8999 40.57 76.1299 40.81C76.5699 41.26 76.6599 41.2 77.0099 40.86C78.8099 39.11 79.1199 36.92 79.1199 36.73C79.1199 36.52 79.2499 35.98 78.6799 34.2C78.5699 33.96 78.4099 33.46 78.0099 32.51C77.7099 31.91 77.5099 30.8 77.4499 30.29C77.4299 30.15 77.3699 30.09 77.3099 30.09C77.2299 30.09 77.1399 30.17 77.0699 30.31Z" fill="url(#paint2_linear_768_301)"/>
<path d="M75.28 33.15C75.28 33.15 75.04 35.3 75.3 35.95C75.9 37.27 77.54 36.9 77.42 35.59C77.31 33.92 76.2 32.03 77.07 30.3C77.21 30.04 77.41 29.98 77.46 30.28C77.53 30.79 77.72 31.9 78.02 32.5C78.43 33.45 78.58 33.95 78.69 34.19C79.26 35.97 79.14 36.51 79.13 36.72C79.13 36.92 78.82 39.11 77.02 40.85C76.67 41.19 76.59 41.26 76.14 40.8C75.91 40.56 74.83 39.59 74.32 37.68C74.18 36.89 73.94 35.42 75.05 33.21C75.15 33.03 75.3 32.92 75.28 33.15Z" fill="#005BAA"/>
<path d="M76.18 32.25C76.18 32.25 75.01 34.51 76.06 35.35C76.18 35.4 76.95 35.76 76.9 34.49C76.76 33.8 76.2 32.97 76.26 32.42C76.29 32.2 76.28 32.13 76.26 32.13C76.24 32.13 76.2 32.23 76.18 32.25Z" fill="black"/>
<path d="M76.18 32.25C76.18 32.25 75.01 34.51 76.06 35.35C76.18 35.4 76.95 35.76 76.9 34.49C76.76 33.8 76.2 32.97 76.26 32.42C76.29 32.2 76.28 32.13 76.26 32.13C76.24 32.13 76.2 32.23 76.18 32.25Z" fill="url(#paint3_linear_768_301)"/>
<path d="M76.18 32.25C76.18 32.25 75.01 34.51 76.06 35.35C76.18 35.4 76.95 35.76 76.9 34.49C76.76 33.8 76.2 32.97 76.26 32.42C76.32 31.93 76.21 32.21 76.18 32.26V32.25Z" fill="#005BAA"/>
<path d="M77.25 31.2C76.83 32.96 77.69 33.9 77.8 35.57C77.92 36.87 76.15 38.49 75.31 35.95C75.05 35.3 75.29 33.15 75.29 33.15C75.3 32.93 75.16 33.04 75.05 33.21C74.3 35.79 74.65 36.94 74.79 37.73C75.3 39.64 76.13 40.45 76.37 40.69C76.81 41.14 76.85 41.02 77.02 40.86C78.82 39.11 79.04 36.92 79.04 36.73C79.04 36.52 79.21 35.98 78.64 34.2C78.53 33.96 78.37 33.46 77.97 32.51C77.66 31.91 77.56 31.57 77.5 31.06C77.48 30.95 77.46 30.91 77.44 30.91C77.4 30.91 77.35 31.05 77.26 31.21" fill="url(#paint4_linear_768_301)"/>
<path d="M76.19 32.41C76.19 32.41 75.17 34.53 76.1 35.27C76.21 35.31 76.86 35.61 76.86 34.58C76.74 33.97 76.31 33.24 76.26 32.75C76.22 32.44 76.22 32.32 76.21 32.32C76.21 32.32 76.21 32.35 76.19 32.41Z" fill="url(#paint5_linear_768_301)"/>
<mask id="mask1_768_301" style="mask-type:luminance" maskUnits="userSpaceOnUse" x="59" y="37" width="18" height="22">
<path d="M60.1101 38.16C59.8901 38.53 59.0701 46.41 66.4901 50.7C69.7801 52.23 73.9401 55.77 75.3501 58.08C75.9501 58.81 76.1201 58.53 76.1701 57.79C76.3701 55.33 76.6101 48.57 69.7201 45.09C68.2601 44.23 67.4301 43.4 66.9701 43.03C66.4601 42.51 65.4001 43.72 66.3201 44.73C67.2401 45.74 68.6601 46.63 69.0001 47.36C69.1501 47.83 69.5401 48.49 68.9401 48.91C67.9001 48.65 62.9001 46.7 61.9401 40.48C61.8001 39.51 61.8201 39.09 61.7501 38.71C61.5301 37.98 61.1701 37.74 60.8401 37.74C60.5101 37.74 60.2301 37.96 60.0901 38.16" fill="white"/>
</mask>
<g mask="url(#mask1_768_301)">
<path d="M76.6201 37.74H59.0801V58.81H76.6201V37.74Z" fill="url(#paint6_linear_768_301)"/>
</g>
<path d="M60.1101 38.16C59.8901 38.53 59.0701 46.41 66.4901 50.7C69.7801 52.22 73.9401 55.77 75.3501 58.08C75.9501 58.81 76.1201 58.53 76.1701 57.79C76.3801 55.33 76.6101 48.57 69.7201 45.09C68.2601 44.23 67.4401 43.4 66.9701 43.03C66.4601 42.51 65.4001 43.72 66.3201 44.73C67.2401 45.74 68.6601 46.62 69.0001 47.36C69.1501 47.83 69.5401 48.49 68.9401 48.91C67.9001 48.65 62.9001 46.7 61.9401 40.48C61.8001 39.51 61.8201 39.09 61.7501 38.71C61.3101 37.27 60.3801 37.74 60.0901 38.16H60.1101Z" stroke="#F26522" stroke-width="0.05" stroke-linecap="round"/>
<mask id="mask2_768_301" style="mask-type:luminance" maskUnits="userSpaceOnUse" x="59" y="37" width="18" height="22">
<path d="M60.1101 38.16C59.8901 38.53 59.0701 46.41 66.4901 50.7C69.7801 52.23 73.9401 55.77 75.3501 58.08C75.9501 58.81 76.1201 58.53 76.1701 57.79C76.3701 55.33 68.4601 45.58 68.1501 46.35C69.4501 47.61 69.4101 48.49 69.0301 48.83C69.0001 48.85 68.8801 48.89 68.8001 48.87C67.8601 48.6 62.8401 46.2 61.9601 40.48C61.8201 39.51 61.8401 39.09 61.7701 38.71C61.5501 37.98 61.1901 37.74 60.8601 37.74C60.5301 37.74 60.2501 37.96 60.1101 38.16Z" fill="white"/>
</mask>
<g mask="url(#mask2_768_301)">
<path d="M76.3901 37.74H59.0801V58.81H76.3901V37.74Z" fill="url(#paint7_radial_768_301)"/>
</g>
<path d="M60.1101 38.16C59.8901 38.53 59.0701 46.41 66.4901 50.7C69.7801 52.22 73.9401 55.77 75.3501 58.08C75.9501 58.81 76.1201 58.53 76.1701 57.79C76.3801 55.33 68.4601 45.58 68.1501 46.35C69.4501 47.61 69.4101 48.49 69.0301 48.83C69.0001 48.85 68.8801 48.89 68.8001 48.87C67.8601 48.6 62.8401 46.2 61.9601 40.49C61.8201 39.52 61.8401 39.1 61.7701 38.72C61.3301 37.28 60.4001 37.75 60.1101 38.17V38.16Z" stroke="#F26522" stroke-width="0.05" stroke-linecap="round"/>
<path d="M63.2799 79.71C63.0799 79.94 62.8099 80.05 62.4899 80.05C62.1699 80.05 61.9199 79.93 61.7199 79.69C61.5299 79.45 61.4299 79.13 61.4299 78.73C61.4299 78.26 61.5299 77.9 61.7299 77.64C61.9299 77.38 62.2099 77.25 62.5699 77.25C62.8599 77.25 63.0999 77.35 63.2899 77.55C63.4799 77.75 63.5799 78 63.5799 78.28V78.81C63.5799 79.17 63.4799 79.46 63.2799 79.69M64.1599 76.84H63.5799V77.34H63.5699C63.3399 76.95 62.9799 76.76 62.4899 76.76C61.9799 76.76 61.5799 76.94 61.2899 77.3C60.9999 77.66 60.8499 78.15 60.8499 78.76C60.8499 79.3 60.9899 79.73 61.2599 80.05C61.5299 80.37 61.8899 80.53 62.3399 80.53C62.8899 80.53 63.2999 80.3 63.5799 79.84H63.5899V80.23C63.5899 81.17 63.1499 81.64 62.2599 81.64C61.8899 81.64 61.5099 81.53 61.0999 81.3V81.88C61.4299 82.05 61.8199 82.13 62.2599 82.13C63.5199 82.13 64.1599 81.47 64.1599 80.15V76.84ZM59.3999 78.24C59.3999 77.76 59.2999 77.39 59.0899 77.14C58.8799 76.89 58.5799 76.76 58.1899 76.76C57.6799 76.76 57.2799 76.99 57.0099 77.44H56.9999V76.84H56.4299V80.43H56.9999V78.38C56.9999 78.05 57.0899 77.78 57.2799 77.56C57.4699 77.34 57.7099 77.24 57.9899 77.24C58.5499 77.24 58.8199 77.62 58.8199 78.38V80.43H59.3999V78.23V78.24ZM54.1499 78.98C54.1499 79.29 54.0599 79.54 53.8699 79.74C53.6799 79.94 53.4499 80.04 53.1599 80.04C52.9499 80.04 52.7799 79.99 52.6599 79.87C52.5299 79.76 52.4699 79.61 52.4699 79.44C52.4699 79.2 52.5399 79.03 52.6699 78.94C52.8099 78.85 53.0099 78.78 53.2699 78.74L54.1399 78.62V78.98H54.1499ZM54.7299 78.1C54.7299 77.21 54.3099 76.76 53.4599 76.76C52.9999 76.76 52.5899 76.87 52.2399 77.1V77.69C52.5899 77.39 52.9799 77.25 53.4099 77.25C53.8999 77.25 54.1499 77.55 54.1499 78.17L53.0699 78.32C52.2799 78.43 51.8799 78.82 51.8799 79.49C51.8799 79.8 51.9799 80.06 52.1799 80.24C52.3799 80.43 52.6599 80.53 53.0199 80.53C53.5099 80.53 53.8799 80.31 54.1299 79.88H54.1399V80.44H54.7199V78.1H54.7299ZM50.9299 76.83C50.8499 76.8 50.7399 76.78 50.5899 76.78C50.3799 76.78 50.1899 76.85 50.0199 76.99C49.8499 77.13 49.7299 77.33 49.6399 77.58H49.6299V76.84H49.0499V80.43H49.6299V78.6C49.6299 78.2 49.7099 77.88 49.8799 77.65C50.0499 77.42 50.2499 77.3 50.4999 77.3C50.6899 77.3 50.8399 77.34 50.9399 77.42V76.82L50.9299 76.83ZM45.0499 78.3C45.0899 77.99 45.2099 77.73 45.3999 77.54C45.5899 77.35 45.8199 77.25 46.0899 77.25C46.3599 77.25 46.5899 77.34 46.7499 77.53C46.9099 77.72 46.9899 77.97 46.9899 78.31H45.0499V78.3ZM47.5799 78.49C47.5799 77.95 47.4499 77.53 47.1899 77.22C46.9299 76.92 46.5699 76.76 46.0999 76.76C45.6299 76.76 45.2399 76.94 44.9199 77.29C44.5999 77.64 44.4399 78.1 44.4399 78.66C44.4399 79.25 44.5899 79.71 44.8699 80.04C45.1599 80.37 45.5599 80.53 46.0699 80.53C46.5799 80.53 47.0099 80.41 47.3199 80.19V79.65C46.9799 79.92 46.6099 80.05 46.1999 80.05C45.8399 80.05 45.5599 79.94 45.3499 79.72C45.1399 79.5 45.0399 79.19 45.0299 78.79H47.5699V78.49H47.5799ZM42.0399 79.7C41.8399 79.93 41.5799 80.04 41.2499 80.04C40.9199 80.04 40.6799 79.92 40.4799 79.68C40.2899 79.44 40.1899 79.12 40.1899 78.72C40.1899 78.25 40.2899 77.89 40.4899 77.63C40.6899 77.37 40.9699 77.24 41.3299 77.24C41.6199 77.24 41.8599 77.34 42.0499 77.54C42.2399 77.74 42.3399 77.99 42.3399 78.27V78.8C42.3399 79.16 42.2399 79.45 42.0399 79.68M42.9199 76.83H42.3399V77.33H42.3299C42.0999 76.94 41.7399 76.75 41.2499 76.75C40.7399 76.75 40.3399 76.93 40.0399 77.29C39.7499 77.65 39.5999 78.14 39.5999 78.75C39.5999 79.29 39.7399 79.72 40.0099 80.04C40.2799 80.36 40.6399 80.52 41.0899 80.52C41.6399 80.52 42.0499 80.29 42.3299 79.83H42.3399V80.22C42.3399 81.16 41.8999 81.63 41.0099 81.63C40.6399 81.63 40.2599 81.52 39.8499 81.29V81.87C40.1799 82.04 40.5699 82.12 41.0199 82.12C42.2799 82.12 42.9199 81.46 42.9199 80.14V76.83ZM38.1599 78.23C38.1599 77.75 38.0599 77.38 37.8499 77.13C37.6399 76.88 37.3399 76.75 36.9499 76.75C36.4299 76.75 36.0399 76.98 35.7699 77.43H35.7599V76.83H35.1799V80.42H35.7599V78.37C35.7599 78.04 35.8499 77.77 36.0399 77.55C36.2299 77.33 36.4699 77.23 36.7499 77.23C37.3099 77.23 37.5899 77.61 37.5899 78.37V80.42H38.1599V78.22V78.23ZM32.9099 78.97C32.9099 79.28 32.8199 79.53 32.6299 79.73C32.4399 79.93 32.2099 80.03 31.9199 80.03C31.7099 80.03 31.5399 79.98 31.4199 79.86C31.2999 79.75 31.2299 79.6 31.2299 79.43C31.2299 79.19 31.2999 79.02 31.4299 78.93C31.5699 78.84 31.7699 78.77 32.0299 78.73L32.8999 78.61V78.97H32.9099ZM33.4899 78.09C33.4899 77.2 33.0699 76.75 32.2199 76.75C31.7599 76.75 31.3499 76.86 30.9999 77.09V77.68C31.3499 77.38 31.7399 77.24 32.1699 77.24C32.6599 77.24 32.9099 77.54 32.9099 78.16L31.8299 78.31C31.0399 78.42 30.6399 78.81 30.6399 79.48C30.6399 79.79 30.7399 80.05 30.9399 80.23C31.1399 80.42 31.4199 80.52 31.7799 80.52C32.2699 80.52 32.6399 80.3 32.8899 79.87H32.8999V80.43H33.4799V78.09H33.4899ZM29.5399 79.9C29.4299 79.98 29.3099 80.02 29.1599 80.02C28.9699 80.02 28.8399 79.97 28.7499 79.87C28.6699 79.77 28.6299 79.59 28.6299 79.35V77.33H29.5299V76.84H28.6299V75.78L28.0499 75.97V76.85H27.4299V77.34H28.0499V79.47C28.0499 80.17 28.3699 80.52 28.9899 80.52C29.2099 80.52 29.3899 80.48 29.5299 80.41V79.92L29.5399 79.9Z" fill="#0054A6"/>
<path d="M63.2799 79.71C63.0799 79.94 62.8099 80.05 62.4899 80.05C62.1699 80.05 61.9199 79.93 61.7199 79.69C61.5299 79.45 61.4299 79.13 61.4299 78.73C61.4299 78.26 61.5299 77.9 61.7299 77.64C61.9299 77.38 62.2099 77.25 62.5699 77.25C62.8599 77.25 63.0999 77.35 63.2899 77.55C63.4799 77.75 63.5799 78 63.5799 78.28V78.81C63.5799 79.17 63.4799 79.46 63.2799 79.69V79.71ZM64.1599 76.86H63.5799V77.36H63.5699C63.3399 76.97 62.9799 76.78 62.4899 76.78C61.9799 76.78 61.5799 76.96 61.2899 77.32C60.9999 77.68 60.8499 78.17 60.8499 78.78C60.8499 79.32 60.9899 79.75 61.2599 80.07C61.5299 80.39 61.8899 80.55 62.3399 80.55C62.8899 80.55 63.2999 80.32 63.5799 79.86H63.5899V80.25C63.5899 81.19 63.1499 81.66 62.2599 81.66C61.8899 81.66 61.5099 81.55 61.0999 81.32V81.9C61.4299 82.07 61.8199 82.15 62.2599 82.15C63.5199 82.15 64.1599 81.49 64.1599 80.17V76.86ZM59.3999 78.26C59.3999 77.78 59.2999 77.41 59.0899 77.16C58.8799 76.91 58.5799 76.78 58.1899 76.78C57.6799 76.78 57.2799 77.01 57.0099 77.46H56.9999V76.86H56.4299V80.45H56.9999V78.4C56.9999 78.07 57.0899 77.8 57.2799 77.58C57.4699 77.36 57.7099 77.26 57.9899 77.26C58.5499 77.26 58.8199 77.64 58.8199 78.4V80.45H59.3999V78.25V78.26ZM54.1499 79C54.1499 79.31 54.0599 79.56 53.8699 79.76C53.6799 79.96 53.4499 80.06 53.1599 80.06C52.9499 80.06 52.7799 80.01 52.6599 79.89C52.5299 79.78 52.4699 79.63 52.4699 79.46C52.4699 79.22 52.5399 79.05 52.6699 78.96C52.8099 78.87 53.0099 78.8 53.2699 78.76L54.1399 78.64V79H54.1499ZM54.7299 78.12C54.7299 77.23 54.3099 76.78 53.4599 76.78C52.9999 76.78 52.5899 76.89 52.2399 77.12V77.71C52.5899 77.41 52.9799 77.27 53.4099 77.27C53.8999 77.27 54.1499 77.57 54.1499 78.19L53.0699 78.34C52.2799 78.45 51.8799 78.84 51.8799 79.51C51.8799 79.82 51.9799 80.08 52.1799 80.26C52.3799 80.45 52.6599 80.55 53.0199 80.55C53.5099 80.55 53.8799 80.33 54.1299 79.9H54.1399V80.46H54.7199V78.12H54.7299ZM50.9299 76.85C50.8499 76.82 50.7399 76.8 50.5899 76.8C50.3799 76.8 50.1899 76.87 50.0199 77.01C49.8499 77.15 49.7299 77.35 49.6399 77.6H49.6299V76.86H49.0499V80.45H49.6299V78.62C49.6299 78.22 49.7099 77.9 49.8799 77.67C50.0499 77.44 50.2499 77.32 50.4999 77.32C50.6899 77.32 50.8399 77.36 50.9399 77.44V76.84L50.9299 76.85ZM45.0499 78.32C45.0899 78.01 45.2099 77.75 45.3999 77.56C45.5899 77.37 45.8199 77.27 46.0899 77.27C46.3599 77.27 46.5899 77.36 46.7499 77.55C46.9099 77.74 46.9899 77.99 46.9899 78.33H45.0499V78.32ZM47.5799 78.51C47.5799 77.97 47.4499 77.55 47.1899 77.24C46.9299 76.94 46.5699 76.78 46.0999 76.78C45.6299 76.78 45.2399 76.96 44.9199 77.31C44.5999 77.66 44.4399 78.12 44.4399 78.68C44.4399 79.27 44.5899 79.73 44.8699 80.06C45.1599 80.39 45.5599 80.55 46.0699 80.55C46.5799 80.55 47.0099 80.43 47.3199 80.21V79.67C46.9799 79.94 46.6099 80.07 46.1999 80.07C45.8399 80.07 45.5599 79.96 45.3499 79.74C45.1399 79.52 45.0399 79.21 45.0299 78.81H47.5699V78.51H47.5799ZM42.0399 79.72C41.8399 79.95 41.5799 80.06 41.2499 80.06C40.9199 80.06 40.6799 79.94 40.4799 79.7C40.2899 79.46 40.1899 79.14 40.1899 78.74C40.1899 78.27 40.2899 77.91 40.4899 77.65C40.6899 77.39 40.9699 77.26 41.3299 77.26C41.6199 77.26 41.8599 77.36 42.0499 77.56C42.2399 77.76 42.3399 78.01 42.3399 78.29V78.82C42.3399 79.18 42.2399 79.47 42.0399 79.7V79.72ZM42.9199 76.87H42.3399V77.37H42.3299C42.0999 76.98 41.7399 76.79 41.2499 76.79C40.7399 76.79 40.3399 76.97 40.0399 77.33C39.7499 77.69 39.5999 78.18 39.5999 78.79C39.5999 79.33 39.7399 79.76 40.0099 80.08C40.2799 80.4 40.6399 80.56 41.0899 80.56C41.6399 80.56 42.0499 80.33 42.3299 79.87H42.3399V80.26C42.3399 81.2 41.8999 81.67 41.0099 81.67C40.6399 81.67 40.2599 81.56 39.8499 81.33V81.91C40.1799 82.08 40.5699 82.16 41.0199 82.16C42.2799 82.16 42.9199 81.5 42.9199 80.18V76.87ZM38.1599 78.27C38.1599 77.79 38.0599 77.42 37.8499 77.17C37.6399 76.92 37.3399 76.79 36.9499 76.79C36.4299 76.79 36.0399 77.02 35.7699 77.47H35.7599V76.87H35.1799V80.46H35.7599V78.41C35.7599 78.08 35.8499 77.81 36.0399 77.59C36.2299 77.37 36.4699 77.27 36.7499 77.27C37.3099 77.27 37.5899 77.65 37.5899 78.41V80.46H38.1599V78.26V78.27ZM32.9099 79.01C32.9099 79.32 32.8199 79.57 32.6299 79.77C32.4399 79.97 32.2099 80.07 31.9199 80.07C31.7099 80.07 31.5399 80.02 31.4199 79.9C31.2999 79.79 31.2299 79.64 31.2299 79.47C31.2299 79.23 31.2999 79.06 31.4299 78.97C31.5699 78.88 31.7699 78.81 32.0299 78.77L32.8999 78.65V79.01H32.9099ZM33.4899 78.13C33.4899 77.24 33.0699 76.79 32.2199 76.79C31.7599 76.79 31.3499 76.9 30.9999 77.13V77.72C31.3499 77.42 31.7399 77.28 32.1699 77.28C32.6599 77.28 32.9099 77.58 32.9099 78.2L31.8299 78.35C31.0399 78.46 30.6399 78.85 30.6399 79.52C30.6399 79.83 30.7399 80.09 30.9399 80.27C31.1399 80.46 31.4199 80.56 31.7799 80.56C32.2699 80.56 32.6399 80.34 32.8899 79.91H32.8999V80.47H33.4799V78.13H33.4899ZM29.5399 79.94C29.4299 80.02 29.3099 80.06 29.1599 80.06C28.9699 80.06 28.8399 80.01 28.7499 79.91C28.6699 79.81 28.6299 79.63 28.6299 79.39V77.37H29.5299V76.88H28.6299V75.82L28.0499 76.01V76.89H27.4299V77.38H28.0499V79.51C28.0499 80.21 28.3699 80.56 28.9899 80.56C29.2099 80.56 29.3899 80.52 29.5299 80.45V79.96L29.5399 79.94Z" stroke="#0054A6" stroke-width="0.05"/>
<mask id="mask3_768_301" style="mask-type:luminance" maskUnits="userSpaceOnUse" x="77" y="36" width="11" height="19">
<path d="M84.9701 36.4C81.5001 37.4 76.7401 41.54 77.3701 54.62C77.8301 51.38 78.7501 49.78 78.7501 49.78C78.7501 49.78 79.4301 42.37 85.2001 39.23C86.2101 38.73 87.5501 37.87 86.9901 36.89C86.8001 36.49 86.5801 36.25 85.9901 36.25C85.7301 36.25 85.4101 36.3 84.9801 36.4" fill="white"/>
</mask>
<g mask="url(#mask3_768_301)">
<path d="M87.5502 36.25H76.7402V54.62H87.5502V36.25Z" fill="url(#paint8_linear_768_301)"/>
</g>
<path d="M78.7499 49.79C78.7499 49.79 79.4299 42.38 85.1999 39.24C86.2099 38.74 87.5499 37.88 86.9899 36.91C86.7199 36.34 86.3799 36.08 84.9799 36.41C81.5099 37.41 76.7499 41.55 77.3799 54.63C77.8399 51.39 78.7599 49.79 78.7599 49.79H78.7499Z" fill="#005BAA" stroke="#005BAA" stroke-width="0.05" stroke-linecap="round"/>
<mask id="mask4_768_301" style="mask-type:luminance" maskUnits="userSpaceOnUse" x="77" y="36" width="10" height="19">
<path d="M84.92 36.45C81.29 37.42 76.62 42.25 77.34 54.5C77.37 51.16 77.69 49.77 77.69 49.77C77.69 49.77 76.88 42.36 84.83 38.53C85.42 38.21 86.71 37.89 86.44 37.27C86.21 36.78 85.99 36.43 85.31 36.43C85.2 36.43 85.07 36.43 84.93 36.46" fill="white"/>
</mask>
<g mask="url(#mask4_768_301)">
<path d="M86.6901 36.42H76.6201V54.5H86.6901V36.42Z" fill="url(#paint9_radial_768_301)"/>
</g>
<path d="M77.8101 49.86C77.8101 49.86 78.1201 42.7 85.7601 38.35C86.3501 38.03 86.9701 37.57 86.9601 37.16C86.8401 36.58 86.6301 36.15 85.2001 36.6C81.3701 38.29 76.7201 42.35 77.3701 54.62C77.4001 52.92 77.8201 49.85 77.8201 49.85" fill="#0054A6"/>
<mask id="mask5_768_301" style="mask-type:luminance" maskUnits="userSpaceOnUse" x="77" y="37" width="17" height="22">
<path d="M91.77 38.71C91.7 39.09 91.7201 39.51 91.5801 40.48C90.6201 46.69 85.6201 48.65 84.5801 48.91C83.9901 48.49 84.37 47.83 84.52 47.36C84.86 46.62 86.28 45.74 87.2 44.73C88.12 43.72 87.0701 42.52 86.5501 43.03C86.0901 43.4 85.2701 44.23 83.8001 45.09C76.9201 48.57 77.15 55.33 77.35 57.79C77.4 58.54 77.58 58.81 78.17 58.08C79.58 55.77 83.74 52.23 87.03 50.7C94.4501 46.41 93.6301 38.53 93.4101 38.16C93.2701 37.96 92.9801 37.74 92.6601 37.74C92.3401 37.74 91.9801 37.98 91.7501 38.71" fill="white"/>
</mask>
<g mask="url(#mask5_768_301)">
<path d="M94.4699 37.74H76.9299V58.81H94.4699V37.74Z" fill="url(#paint10_linear_768_301)"/>
</g>
<path d="M93.43 38.16C93.65 38.53 94.47 46.41 87.05 50.7C83.76 52.22 79.6 55.77 78.19 58.08C77.59 58.81 77.42 58.53 77.37 57.79C77.16 55.33 76.93 48.57 83.82 45.09C85.28 44.23 86.1 43.4 86.57 43.03C87.08 42.51 88.14 43.72 87.22 44.73C86.3 45.74 84.88 46.62 84.54 47.36C84.39 47.83 84 48.49 84.6 48.91C85.64 48.65 90.64 46.7 91.6 40.48C91.74 39.51 91.72 39.09 91.79 38.71C92.23 37.27 93.16 37.74 93.45 38.16H93.43Z" stroke="#F26522" stroke-width="0.05" stroke-linecap="round"/>
<mask id="mask6_768_301" style="mask-type:luminance" maskUnits="userSpaceOnUse" x="77" y="37" width="17" height="22">
<path d="M91.7699 38.71C91.6999 39.09 91.7199 39.51 91.5799 40.48C90.6999 46.2 85.6799 48.6 84.7399 48.87C84.6599 48.89 84.5299 48.85 84.5099 48.83C84.1299 48.49 84.0799 47.61 85.3899 46.35C85.0799 45.58 77.1699 55.33 77.3699 57.79C77.4199 58.54 77.5999 58.81 78.1899 58.08C79.5999 55.77 83.7599 52.23 87.0499 50.7C94.4699 46.41 93.6499 38.53 93.4299 38.16C93.2899 37.96 92.9999 37.74 92.6799 37.74C92.3599 37.74 91.9999 37.98 91.7699 38.71Z" fill="white"/>
</mask>
<g mask="url(#mask6_768_301)">
<path d="M94.4699 37.74H77.1599V58.81H94.4699V37.74Z" fill="url(#paint11_radial_768_301)"/>
</g>
<path d="M93.4301 38.16C93.6501 38.53 94.4701 46.41 87.0501 50.7C83.7601 52.22 79.6001 55.77 78.1901 58.08C77.5901 58.81 77.4201 58.53 77.3701 57.79C77.1601 55.33 85.0801 45.58 85.3901 46.35C84.0901 47.61 84.1301 48.49 84.5101 48.83C84.5401 48.85 84.6601 48.89 84.7401 48.87C85.6801 48.6 90.7001 46.2 91.5801 40.49C91.7201 39.52 91.7001 39.1 91.7701 38.72C92.2101 37.28 93.1401 37.75 93.4301 38.17V38.16Z" stroke="#F26522" stroke-width="0.05" stroke-linecap="round"/>
</g>
</g>
<rect x="1" y="1" width="110" height="110" rx="9" stroke="black" stroke-opacity="0.1" stroke-width="2"/>
<defs>
<linearGradient id="paint0_linear_768_301" x1="67.256" y1="47.428" x2="77.176" y2="47.428" gradientUnits="userSpaceOnUse">
<stop stop-color="white"/>
<stop offset="0.01" stop-color="#E9ECF6"/>
<stop offset="0.04" stop-color="#BCC8E4"/>
<stop offset="0.06" stop-color="#9CADD7"/>
<stop offset="0.08" stop-color="#899DCF"/>
<stop offset="0.09" stop-color="#8298CD"/>
<stop offset="0.11" stop-color="#8298CD"/>
<stop offset="0.24" stop-color="#8298CD"/>
<stop offset="0.25" stop-color="#7F96CC"/>
<stop offset="0.36" stop-color="#5882C0"/>
<stop offset="0.47" stop-color="#3871B6"/>
<stop offset="0.59" stop-color="#1F64AF"/>
<stop offset="0.72" stop-color="#0D5BAA"/>
<stop offset="0.85" stop-color="#0355A7"/>
<stop offset="1" stop-color="#0054A6"/>
</linearGradient>
<radialGradient id="paint1_radial_768_301" cx="0" cy="0" r="1" gradientUnits="userSpaceOnUse" gradientTransform="translate(70.3707 39.4504) scale(4.37018 9.38)">
<stop stop-color="white"/>
<stop offset="0.1" stop-color="white"/>
<stop offset="0.21" stop-color="#FAFCFD"/>
<stop offset="0.32" stop-color="#EEF4F9"/>
<stop offset="0.44" stop-color="#D8E6F2"/>
<stop offset="0.55" stop-color="#BBD3E8"/>
<stop offset="0.67" stop-color="#95BADB"/>
<stop offset="0.79" stop-color="#669CCC"/>
<stop offset="0.91" stop-color="#3079BA"/>
<stop offset="1" stop-color="#005BAA"/>
</radialGradient>
<linearGradient id="paint2_linear_768_301" x1="-1713.27" y1="36.3278" x2="-1720.19" y2="36.3278" gradientUnits="userSpaceOnUse">
<stop stop-color="white"/>
<stop offset="0.01" stop-color="#E9ECF6"/>
<stop offset="0.04" stop-color="#BCC8E4"/>
<stop offset="0.06" stop-color="#9CADD7"/>
<stop offset="0.08" stop-color="#899DCF"/>
<stop offset="0.09" stop-color="#8298CD"/>
<stop offset="0.11" stop-color="#8298CD"/>
<stop offset="0.24" stop-color="#8298CD"/>
<stop offset="0.25" stop-color="#7F96CC"/>
<stop offset="0.36" stop-color="#5882C0"/>
<stop offset="0.47" stop-color="#3871B6"/>
<stop offset="0.59" stop-color="#1F64AF"/>
<stop offset="0.72" stop-color="#0D5BAA"/>
<stop offset="0.85" stop-color="#0355A7"/>
<stop offset="1" stop-color="#0054A6"/>
</linearGradient>
<linearGradient id="paint3_linear_768_301" x1="77.8288" y1="1103" x2="77.8288" y2="1107.13" gradientUnits="userSpaceOnUse">
<stop stop-color="white"/>
<stop offset="0.01" stop-color="#E9ECF6"/>
<stop offset="0.04" stop-color="#BCC8E4"/>
<stop offset="0.06" stop-color="#9CADD7"/>
<stop offset="0.08" stop-color="#899DCF"/>
<stop offset="0.09" stop-color="#8298CD"/>
<stop offset="0.11" stop-color="#8298CD"/>
<stop offset="0.24" stop-color="#8298CD"/>
<stop offset="0.25" stop-color="#7F96CC"/>
<stop offset="0.36" stop-color="#5882C0"/>
<stop offset="0.47" stop-color="#3871B6"/>
<stop offset="0.59" stop-color="#1F64AF"/>
<stop offset="0.72" stop-color="#0D5BAA"/>
<stop offset="0.85" stop-color="#0355A7"/>
<stop offset="1" stop-color="#0054A6"/>
</linearGradient>
<linearGradient id="paint4_linear_768_301" x1="82.5" y1="34.7041" x2="75" y2="34.7041" gradientUnits="userSpaceOnUse">
<stop stop-color="white"/>
<stop offset="0.01" stop-color="#E9ECF6"/>
<stop offset="0.04" stop-color="#BCC8E4"/>
<stop offset="0.06" stop-color="#9CADD7"/>
<stop offset="0.08" stop-color="#899DCF"/>
<stop offset="0.09" stop-color="#8298CD"/>
<stop offset="0.11" stop-color="#8298CD"/>
<stop offset="0.24" stop-color="#8298CD"/>
<stop offset="0.25" stop-color="#7F96CC"/>
<stop offset="0.36" stop-color="#5882C0"/>
<stop offset="0.47" stop-color="#3871B6"/>
<stop offset="0.59" stop-color="#1F64AF"/>
<stop offset="0.72" stop-color="#0D5BAA"/>
<stop offset="0.85" stop-color="#0355A7"/>
<stop offset="1" stop-color="#0054A6"/>
</linearGradient>
<linearGradient id="paint5_linear_768_301" x1="76.9996" y1="32" x2="76.9996" y2="35.5" gradientUnits="userSpaceOnUse">
<stop stop-color="white"/>
<stop offset="0.0099" stop-color="white"/>
<stop offset="0.01" stop-color="#E9ECF6"/>
<stop offset="0.04" stop-color="#BCC8E4"/>
<stop offset="0.06" stop-color="#9CADD7"/>
<stop offset="0.08" stop-color="#899DCF"/>
<stop offset="0.09" stop-color="#8298CD"/>
<stop offset="0.11" stop-color="#8298CD"/>
<stop offset="0.24" stop-color="#8298CD"/>
<stop offset="0.25" stop-color="#7F96CC"/>
<stop offset="0.36" stop-color="#5882C0"/>
<stop offset="0.47" stop-color="#3871B6"/>
<stop offset="0.59" stop-color="#1F64AF"/>
<stop offset="0.72" stop-color="#0D5BAA"/>
<stop offset="0.85" stop-color="#0355A7"/>
<stop offset="1" stop-color="#0054A6"/>
</linearGradient>
<linearGradient id="paint6_linear_768_301" x1="60.5721" y1="49.723" x2="76.9121" y2="49.723" gradientUnits="userSpaceOnUse">
<stop stop-color="#F26522"/>
<stop offset="0.48" stop-color="#F26522"/>
<stop offset="0.55" stop-color="#F6924A"/>
<stop offset="0.62" stop-color="#F9BE70"/>
<stop offset="0.69" stop-color="#FCDD8C"/>
<stop offset="0.75" stop-color="#FEF19C"/>
<stop offset="0.78" stop-color="#FFF8A3"/>
<stop offset="1" stop-color="#E14A21"/>
</linearGradient>
<radialGradient id="paint7_radial_768_301" cx="0" cy="0" r="1" gradientUnits="userSpaceOnUse" gradientTransform="translate(69.6681 52.6206) scale(16.46 21.07)">
<stop stop-color="#F26522"/>
<stop offset="0.48" stop-color="#F26522"/>
<stop offset="0.55" stop-color="#F6924A"/>
<stop offset="0.62" stop-color="#F9BE70"/>
<stop offset="0.69" stop-color="#FCDD8C"/>
<stop offset="0.75" stop-color="#FEF19C"/>
<stop offset="0.78" stop-color="#FFF8A3"/>
<stop offset="1" stop-color="#E14A21"/>
</radialGradient>
<linearGradient id="paint8_linear_768_301" x1="-2484.98" y1="5695.38" x2="-2494.9" y2="5695.38" gradientUnits="userSpaceOnUse">
<stop stop-color="white"/>
<stop offset="0.01" stop-color="#E9ECF6"/>
<stop offset="0.04" stop-color="#BCC8E4"/>
<stop offset="0.06" stop-color="#9CADD7"/>
<stop offset="0.08" stop-color="#899DCF"/>
<stop offset="0.09" stop-color="#8298CD"/>
<stop offset="0.11" stop-color="#8298CD"/>
<stop offset="0.24" stop-color="#8298CD"/>
<stop offset="0.25" stop-color="#7F96CC"/>
<stop offset="0.36" stop-color="#5882C0"/>
<stop offset="0.47" stop-color="#3871B6"/>
<stop offset="0.59" stop-color="#1F64AF"/>
<stop offset="0.72" stop-color="#0D5BAA"/>
<stop offset="0.85" stop-color="#0355A7"/>
<stop offset="1" stop-color="#0054A6"/>
</linearGradient>
<radialGradient id="paint9_radial_768_301" cx="0" cy="0" r="1" gradientUnits="userSpaceOnUse" gradientTransform="translate(-1158.27 5366.55) rotate(180) scale(2.39 4.69)">
<stop stop-color="white"/>
<stop offset="0.1" stop-color="white"/>
<stop offset="0.21" stop-color="#FAFCFD"/>
<stop offset="0.32" stop-color="#EEF4F9"/>
<stop offset="0.44" stop-color="#D8E6F2"/>
<stop offset="0.55" stop-color="#BBD3E8"/>
<stop offset="0.67" stop-color="#95BADB"/>
<stop offset="0.79" stop-color="#669CCC"/>
<stop offset="0.91" stop-color="#3079BA"/>
<stop offset="1" stop-color="#005BAA"/>
</radialGradient>
<linearGradient id="paint10_linear_768_301" x1="-4142.36" y1="9348" x2="-4158.7" y2="9348" gradientUnits="userSpaceOnUse">
<stop stop-color="#F26522"/>
<stop offset="0.48" stop-color="#F26522"/>
<stop offset="0.55" stop-color="#F6924A"/>
<stop offset="0.62" stop-color="#F9BE70"/>
<stop offset="0.69" stop-color="#FCDD8C"/>
<stop offset="0.75" stop-color="#FEF19C"/>
<stop offset="0.78" stop-color="#FFF8A3"/>
<stop offset="1" stop-color="#E14A21"/>
</linearGradient>
<radialGradient id="paint11_radial_768_301" cx="0" cy="0" r="1" gradientUnits="userSpaceOnUse" gradientTransform="translate(-4190.79 12018.7) rotate(180) scale(8.23 10.535)">
<stop stop-color="#F26522"/>
<stop offset="0.48" stop-color="#F26522"/>
<stop offset="0.55" stop-color="#F6924A"/>
<stop offset="0.62" stop-color="#F9BE70"/>
<stop offset="0.69" stop-color="#FCDD8C"/>
<stop offset="0.75" stop-color="#FEF19C"/>
<stop offset="0.78" stop-color="#FFF8A3"/>
<stop offset="1" stop-color="#E14A21"/>
</radialGradient>
<clipPath id="clip0_768_301">
<rect x="2" y="2" width="108" height="108" rx="8" fill="white"/>
</clipPath>
<clipPath id="clip1_768_301">
<rect width="77.46" height="52.17" fill="white" transform="translate(17 30)"/>
</clipPath>
</defs>
</svg>
