<svg width="112" height="112" viewBox="0 0 112 112" fill="none" xmlns="http://www.w3.org/2000/svg">
<g clip-path="url(#clip0_768_302)">
<rect x="2" y="2" width="108" height="108" rx="8" fill="white"/>
<path d="M95.9932 40.5107C93.8522 44.1072 91.4145 47.8168 87.0124 48.5163C84.9987 48.8343 82.9707 48.6435 81.0559 47.9793C78.385 47.0537 75.7847 45.9161 73.1138 44.9693C71.6512 44.4464 70.132 44.0295 68.5987 43.7398C66.6768 43.3794 64.8609 43.8458 63.3912 45.1671C61.448 46.9124 59.6392 48.7919 57.6819 50.5019C55.6752 52.2613 53.6049 53.95 51.4851 55.561C48.3832 57.914 44.9492 58.5004 41.2396 57.1367C39.1976 56.3877 37.1485 55.66 35.0993 54.911C32.2871 53.8864 29.383 53.7875 26.4507 54.0065C24.8962 54.1196 23.3488 54.3386 21.7095 54.5153C21.8084 54.2538 21.8791 53.9924 22.0062 53.7663C23.9494 50.2899 26.6273 47.7744 30.7326 47.1738C32.7676 46.8771 34.8026 47.0961 36.7598 47.7108C39.3389 48.5163 41.8826 49.4349 44.4687 50.2475C46.8146 50.9894 49.2099 51.4981 51.7113 51.3215C53.2234 51.2084 54.5871 50.735 55.6823 49.6893C58.1977 47.2939 60.7203 44.9057 63.1439 42.4185C65.0799 40.433 67.1078 38.6524 69.8423 37.8963C72.1741 37.2533 74.5341 37.3946 76.8022 38.0518C78.9926 38.6806 81.1195 39.5073 83.2463 40.327C86.5885 41.613 90.0366 41.8603 93.5554 41.4222C94.361 41.3303 95.1029 40.9488 96.0002 40.5178" fill="#406AB1"/>
<path d="M16.0144 65.75C16.1133 65.4674 16.4101 64.5488 16.4878 64.3934C19.0668 59.6451 22.2253 57.384 28.3797 57.8645C31.5381 58.1048 34.4069 59.306 37.311 60.4082C39.8618 61.3763 42.4903 61.9627 45.2318 61.9981C47.3092 62.0263 49.1039 61.3692 50.5948 59.9207C53.1527 57.4194 55.7812 54.9746 58.2119 52.3531C61.6883 48.6082 65.8996 47.4423 70.7256 48.587C73.135 49.1523 75.4597 50.1274 77.7844 51.0106C80.9075 52.2047 84.1295 52.4238 87.4081 52.0987C88.3761 51.9998 89.3371 51.8656 90.3829 51.7384C90.2133 51.9362 90.0861 52.0846 89.9518 52.2259C88.249 53.9995 86.5107 55.7377 84.8503 57.5465C84.1013 58.3662 83.1968 58.7548 82.1794 59.0021C79.9536 59.5391 77.7349 59.3554 75.601 58.6418C72.8595 57.7161 70.1815 56.6139 67.4752 55.5681C65.6946 54.8827 63.8928 54.2538 61.9568 54.2609C60.4376 54.268 59.0527 54.6919 57.908 55.6882C56.3323 57.0731 54.792 58.4934 53.2799 59.949C50.5524 62.5704 47.7614 65.1 44.4616 66.9936C42.7305 67.9899 40.9004 68.8237 38.8655 68.5128C37.424 68.2867 35.9967 67.8133 34.6189 67.2833C31.6512 66.1387 28.6623 65.1141 25.4897 64.676C23.2993 64.3863 18.5934 64.1532 16.0002 65.75" fill="#406AB1"/>
<path d="M63.4618 39.578C61.7095 41.8108 59.9995 43.8882 57.6113 45.3014C55.8236 46.3612 53.9299 46.9689 51.8526 46.552C50.4253 46.2623 49.0333 45.8596 47.6342 45.4356C45.2954 44.722 42.9849 43.8882 40.6178 43.2311C37.7914 42.4467 34.9086 42.6305 32.0327 42.9343C31.0859 43.0403 30.1532 43.1604 29.1428 43.2805C29.1993 43.0756 29.2064 42.9343 29.2629 42.8142C30.7538 39.9454 32.81 37.6419 35.919 36.5185C38.0529 35.7483 40.2857 35.7765 42.5115 36.1016C45.5145 36.5326 48.3055 37.6278 51.0824 38.7866C54.1419 40.0726 57.3216 40.2281 60.5648 39.9101C61.4975 39.8112 62.4161 39.691 63.4618 39.5709" fill="#406AB1"/>
<path d="M49.1393 67.6508C49.6056 66.8665 50.0013 66.0186 50.5454 65.2978C52.3472 62.8813 54.6083 61.0936 57.6819 60.6061C60.2539 60.1963 62.7976 60.4153 65.2707 61.2208C67.3975 61.9062 69.4749 62.7612 71.5947 63.4819C75.2195 64.6972 78.9079 65.0293 82.6669 64.2097C82.9142 64.1532 83.1686 64.139 83.529 64.0896C83.3594 64.2874 83.2463 64.4217 83.1191 64.5418C81.6 66.0186 80.0737 67.4953 78.5687 68.9792C76.8941 70.6326 74.8308 71.219 72.5415 71.1625C70.4924 71.1131 68.6482 70.2652 66.7333 69.6504C64.3875 68.8944 62.0204 68.1383 59.6321 67.5518C57.5618 67.0431 55.4208 67.1774 53.3081 67.3681C51.9656 67.4883 50.6302 67.6508 49.2806 67.7921C49.2382 67.7356 49.1817 67.7002 49.1393 67.6578" fill="#406AB1"/>
<path d="M17.3993 61.7508L16.6432 62.8106V32.8725C16.6432 31.8408 17.477 31 18.5157 31H93.5837C94.6153 31 95.4562 31.8408 95.4562 32.8725V40.009L94.7001 40.3835V32.8725C94.7001 32.2507 94.1914 31.7561 93.5837 31.7561H18.5157C17.908 31.7561 17.3993 32.2577 17.3993 32.8725V61.7508Z" fill="#406EB4"/>
<path d="M18.5157 81.1254C17.4841 81.1254 16.6432 80.2846 16.6432 79.253V66.0821L17.3993 65.6299V79.2459C17.3993 79.8677 17.908 80.3623 18.5157 80.3623H24.3168V81.1254H18.5157Z" fill="#406EB4"/>
<path d="M93.5837 81.1254H88.1783V80.3694H93.5837C94.2055 80.3694 94.7001 79.8606 94.7001 79.253V43.7045L95.4562 42.8778V79.253C95.4562 80.2846 94.6153 81.1325 93.5837 81.1325" fill="#406EB4"/>
<path d="M33.2905 78.0871C32.5698 78.6806 31.9904 78.8219 30.3228 78.8219H29.7999L29.1781 81.719H27.5459L29.1781 74.0949H31.3544C32.492 74.0949 33.0997 74.1867 33.5166 74.4411C34.0536 74.7732 34.3362 75.2819 34.3362 75.9108C34.3362 76.7022 33.9123 77.5642 33.2834 78.0871M31.0647 75.4586H30.5206L30.0826 77.4724H30.556C31.8278 77.4724 32.6687 77.1827 32.6687 76.2641C32.6616 75.6847 32.4143 75.4586 31.0577 75.4586" fill="#406AB1"/>
<path d="M39.8335 81.726L39.3106 79.7546H36.1875L34.7955 81.726H33.0008L38.2861 74.1019H39.5721L41.6282 81.726H39.8335ZM38.5051 76.0874L37.0778 78.3909H38.9573L38.5051 76.0874Z" fill="#406AB1"/>
<path d="M51.9868 81.726H50.3546L51.577 76.0097L48.0653 81.726H46.7298L45.6628 76.0097L44.4404 81.726H42.8082L44.4404 74.1019H46.6733L47.7967 79.8818L51.3792 74.1019H53.612L51.9868 81.726Z" fill="#406AB1"/>
<path d="M61.9992 79.5356C61.653 81.083 60.48 81.8603 59.1375 81.8603C57.9292 81.8603 57.0672 81.2102 57.0672 80.2846C57.0672 80.1927 57.0813 80.0655 57.0884 79.9242H58.7206L58.7347 80.0019C58.7983 80.3482 58.9962 80.5107 59.3919 80.5107C59.9289 80.5107 60.2468 80.1927 60.3882 79.5073L61.547 74.109H63.1792L61.9992 79.5427V79.5356Z" fill="#406AB1"/>
<path d="M69.1781 81.726L68.6552 79.7546H65.5321L64.1472 81.726H62.3525L67.6378 74.1019H68.9238L70.9799 81.726H69.1781ZM67.8427 76.0874L66.4154 78.3909H68.2949L67.8427 76.0874Z" fill="#406AB1"/>
<path d="M75.495 78.8997L74.8944 81.719H73.2622L73.8628 78.8997L72.0045 74.0949H73.7639L74.9439 77.5995L77.6431 74.0949H79.4025L75.495 78.8997Z" fill="#406AB1"/>
<path d="M83.967 81.726L83.4442 79.7546H80.321L78.922 81.726H77.1272L82.4125 74.1019H83.6985L85.7547 81.726H83.967ZM82.6316 76.0874L81.2043 78.3909H83.0838L82.6316 76.0874Z" fill="#406AB1"/>
</g>
<rect x="1" y="1" width="110" height="110" rx="9" stroke="black" stroke-opacity="0.1" stroke-width="2"/>
<defs>
<clipPath id="clip0_768_302">
<rect x="2" y="2" width="108" height="108" rx="8" fill="white"/>
</clipPath>
</defs>
</svg>
