<svg width="112" height="112" viewBox="0 0 112 112" fill="none" xmlns="http://www.w3.org/2000/svg">
<g clip-path="url(#clip0_768_298)">
<rect x="2" y="2" width="108" height="108" rx="8" fill="white"/>
<path d="M56.3454 16C55.8027 17.5992 55.6148 19.2209 55.7978 20.6255C56.0026 22.3707 56.4389 23.7653 57.0772 25.2115C57.2867 25.7439 57.6257 26.3187 57.9423 26.9122C58.3603 27.6956 58.8308 28.4426 59.2894 29.198C61.761 33.2698 64.2483 37.3319 66.7182 41.4049C67.114 42.0574 67.2016 42.7913 67.0734 43.6023C66.1237 45.0581 66.4548 46.4617 67.352 47.903C70.0287 52.2042 72.6469 56.5414 75.3079 60.8522C76.1413 62.2023 76.7267 63.6563 77.1925 65.1568C77.3895 65.7918 77.5686 66.4529 77.5721 67.1364C77.5723 67.1985 77.6236 67.2603 77.6021 67.2118C77.7024 68.2487 77.6853 69.1735 77.6044 70.1059C76.6104 73.8969 74.1339 76.9553 72.4295 80.4068C72.5399 79.8622 72.6427 79.3158 72.7625 78.7731C73.0612 77.4211 72.9059 76.0876 72.6554 74.7473C72.4553 73.675 72.1298 72.6461 71.6738 71.6643C70.4591 69.0482 68.8287 66.6715 67.3277 64.2212C65.0365 60.4815 62.7238 56.7551 60.4216 53.0224C59.8255 52.0561 59.9009 51.1375 60.5142 50.2017C60.8809 49.6419 60.7806 48.9666 60.6484 48.3323C60.5463 47.8418 60.3696 47.38 60.1046 46.9463C57.7525 43.0976 55.3819 39.2601 53.0743 35.3847C52.0316 33.6334 51.33 31.724 51.0702 29.6889C50.7754 27.3802 51.1866 25.2146 52.4079 23.1917C53.2592 21.7818 53.9828 20.2948 54.7708 18.8463C55.2891 17.8938 55.8198 16.9485 56.3454 16Z" fill="#0256F4"/>
<path d="M55.9384 54.6978C55.335 55.6287 55.1822 56.7991 55.6293 58.0155C55.7692 58.3963 56.0253 58.7358 56.2402 59.087C59.7969 64.8974 63.3651 70.7011 66.9064 76.5208C67.7145 77.849 68.2921 79.291 68.7303 80.814H59.5157C58.5311 79.1961 57.5369 77.5537 56.5342 75.9163C54.2358 72.1627 51.9463 68.4036 49.623 64.6655C49.0771 63.7868 48.7003 62.9135 48.9843 61.911C49.6868 61.0387 49.4824 60.0791 49.3414 59.1384C49.2066 58.2386 48.5852 57.5752 48.14 56.8329C46.9975 54.9276 45.7645 53.0749 44.6721 51.142C43.732 49.4788 42.981 47.7223 42.6858 45.8009C42.3456 43.5868 42.4594 41.4384 43.5296 39.4228C44.2991 37.9735 45.1147 36.5488 45.9046 35.1104C46.5033 34.0201 47.0938 32.9251 47.6883 31.8325C47.7201 31.7741 47.7555 31.7176 47.8867 31.4953C47.8265 31.7535 47.8143 31.8327 47.7897 31.9079C46.6366 35.4272 47.4282 38.7217 49.101 41.8365C50.98 45.3351 53.2006 48.6371 55.2581 52.0331C55.7242 52.8024 56.1209 53.5695 55.9384 54.6978Z" fill="#0256F4"/>
<path d="M39.4004 47.1389C38.259 50.3341 38.7832 53.3305 40.1657 56.4908C40.2812 56.8458 40.5837 57.3674 40.8769 57.8932C41.0308 58.1692 41.181 58.4478 41.3457 58.7175C42.4189 60.4756 43.5268 62.2133 44.5561 63.9965C44.9849 64.739 45.0737 65.5545 44.5385 66.3594C44.2367 66.813 44.2824 67.3777 44.2778 67.9138C44.2632 69.6541 45.5068 70.8074 46.2875 72.1613C47.5966 74.4314 49.0122 76.6401 50.382 78.875C50.7768 79.5194 51.1688 80.1657 51.5777 80.8365H41.5182C41.0936 80.1326 40.6482 79.4011 40.2095 78.6656C39.5225 77.5143 38.7898 76.3863 38.1735 75.1983C37.7651 74.4108 37.7541 73.5792 38.2687 72.7448C38.6159 72.1817 38.4805 71.4963 38.3563 70.8527C38.0814 69.4275 37.1289 68.3558 36.433 67.1537C35.3123 65.2175 34.4254 63.1883 34.1252 60.9663C33.8032 58.5847 34.1587 56.3207 35.4491 54.208C36.4993 52.4886 37.3886 50.6705 38.3472 48.8951C38.6419 48.3489 38.9287 47.7985 39.2242 47.2525C39.2453 47.2136 39.3079 47.1972 39.4004 47.1389Z" fill="#0256F4"/>
<path d="M49.0609 95.7645C48.8535 95.7966 48.9069 95.6434 48.9069 95.5389C48.9053 93.7156 48.9058 91.8924 48.9058 89.9839C47.9242 91.6304 46.9872 93.2022 46.0691 94.7426H45.0062C44.0819 93.2179 43.1598 91.6967 42.208 90.127C42.208 91.9254 42.2097 93.6749 42.204 95.4243C42.2036 95.5368 42.2757 95.6741 42.1429 95.7664C41.4837 95.7664 40.8237 95.7664 40.1636 95.7664C40.1418 95.7226 40.1008 95.6787 40.1008 95.6349C40.0977 92.4587 40.098 89.2825 40.098 86.0881H41.9739C43.1418 88.0261 44.33 89.9982 45.5632 92.0445C46.7667 90.0221 47.9378 88.0542 49.112 86.0808H51.0102C51.0102 87.2915 51.0086 88.4915 51.0107 89.6912C51.0139 91.6503 51.0203 93.6097 51.0212 95.5689C51.0212 95.6354 50.9776 95.7019 50.9549 95.7685C50.3241 95.7671 49.6926 95.7659 49.0609 95.7645Z" fill="#10141F"/>
<path d="M20.0684 95.7676C20.0455 95.7085 20.0026 95.6497 20.0023 95.5906C19.9993 92.4463 19.9998 89.3022 20.0007 86.1579C20.0007 86.1361 20.0098 86.1143 20.026 86.0428C22.0789 86.2076 24.1889 85.716 26.1916 86.4021C27.8572 86.9729 28.6796 88.3823 28.3211 90.3386C27.9861 92.168 26.508 92.8461 25.0039 93.0656C24.8028 93.0949 24.5962 93.0867 24.393 93.0961C23.7011 93.0951 23.0087 93.0945 22.316 93.0935C22.1759 93.4023 22.2689 93.7276 22.2577 94.0441C22.2396 94.5578 22.2506 95.0726 22.2544 95.5869C22.2553 95.7024 22.249 95.7936 22.0974 95.7643C21.4216 95.7652 20.7449 95.7666 20.0684 95.7676ZM22.2635 91.2337C23.0283 91.2337 23.7854 91.2775 24.5355 91.2225C25.4376 91.1562 26.0546 90.5945 26.0972 89.9108C26.1638 88.8409 25.8134 88.2305 24.9472 88.0207C24.0631 87.8068 23.1586 87.9462 22.2635 87.909V91.2337Z" fill="#10141F"/>
<path d="M71.8231 95.7671C71.4636 95.5557 71.4871 95.1344 71.3172 94.8197C71.125 94.4638 71.0069 94.068 70.8589 93.6955H66.3965C66.1526 94.2892 65.9051 94.8877 65.6619 95.488C65.6171 95.5986 65.5975 95.7216 65.4644 95.7669C64.7743 95.7662 64.0835 95.7654 63.3928 95.7647C63.3321 95.7605 63.2716 95.7563 63.1929 95.7509C64.6342 92.5152 66.0673 89.2975 67.5048 86.0705C68.2389 86.0705 68.9557 86.0555 69.6716 86.0773C69.9884 86.0871 69.9438 86.4463 70.0343 86.6272C70.4291 87.4174 70.7417 88.2485 71.1021 89.0567C71.469 89.8798 71.8648 90.6901 72.2331 91.5128C72.5834 92.2952 72.9068 93.0895 73.2573 93.8717C73.5352 94.4915 73.8366 95.1007 74.1271 95.7144C74.1269 95.7144 74.1156 95.7045 74.1156 95.7045L74.1231 95.7174C74.0479 95.7331 73.9725 95.7488 73.898 95.7645C73.207 95.7654 72.5148 95.7661 71.8231 95.7671ZM67.1226 91.966H70.1608C69.6542 90.7423 69.1568 89.5403 68.6417 88.2963C68.1258 89.5429 67.6274 90.7468 67.1226 91.966Z" fill="#10141F"/>
<path d="M36.836 95.7645C36.5145 95.6535 36.5553 95.3249 36.4452 95.0922C36.2322 94.6428 36.0515 94.1782 35.8503 93.7023H31.405C31.1327 94.356 30.8593 95.0152 30.5814 95.6724C30.565 95.7115 30.5113 95.7347 30.4759 95.7654C29.7866 95.765 29.0967 95.7647 28.4067 95.7643C28.3474 95.7645 28.2881 95.765 28.2288 95.7652L28.2307 95.7591L28.2279 95.7671C28.5182 95.0831 28.8043 94.3973 29.1 93.7156C29.5192 92.7495 29.9419 91.7848 30.3698 90.8223C30.7067 90.0645 31.054 89.3111 31.3959 88.5555C31.7684 87.7323 32.1403 86.9089 32.5175 86.074H34.7808C35.1171 86.8355 35.4507 87.6055 35.7959 88.3701C36.1626 89.182 36.5473 89.9857 36.911 90.7988C37.2639 91.588 37.5962 92.3863 37.9444 93.1776C38.2954 93.9752 38.6529 94.7701 39.0133 95.5635C39.0489 95.642 39.1204 95.7019 39.0082 95.7683C38.2846 95.7669 37.5601 95.7659 36.836 95.7645ZM33.643 88.2963C33.1258 89.5457 32.6277 90.7484 32.1255 91.9615H35.1599C34.6545 90.7407 34.1594 89.544 33.643 88.2963Z" fill="#10141F"/>
<path d="M90.513 95.7652C90.2082 95.0833 89.9033 94.4015 89.5933 93.7079H85.1614C84.8678 94.3961 84.5859 95.0597 84.2994 95.7212C84.2886 95.7458 84.2356 95.7521 84.2031 95.7669C83.4933 95.7673 82.7826 95.7678 82.0722 95.7685C81.9529 95.3842 82.2592 95.1215 82.3719 94.8118C82.6228 94.1219 82.9473 93.4583 83.2487 92.7873C83.4666 92.302 83.703 91.8249 83.9172 91.338C84.2773 90.5197 84.619 89.6931 84.9824 88.8762C85.2641 88.2433 85.571 87.6215 85.859 86.9911C85.9668 86.7554 86.053 86.5101 86.1484 86.2687C86.1985 86.1415 86.278 86.0672 86.4272 86.0679C87.1133 86.0717 87.7996 86.0696 88.5307 86.0696C88.7636 86.5848 89.0033 87.1109 89.2388 87.6388C89.4712 88.1597 89.6974 88.6834 89.9298 89.2043C90.1585 89.7167 90.3905 90.2278 90.6232 90.7386C90.9383 91.4308 91.2596 92.1201 91.5705 92.814C91.8531 93.445 92.1261 94.0805 92.4023 94.7143C92.5401 95.0306 92.6774 95.3474 92.8096 95.6663C92.8199 95.6909 92.7871 95.7336 92.7751 95.7678C92.0216 95.7669 91.2673 95.7664 90.513 95.7652ZM88.9208 91.9685C88.4152 90.7473 87.918 89.5466 87.4001 88.2958C86.8801 89.553 86.3832 90.7541 85.8808 91.9685H88.9208Z" fill="#10141F"/>
<path d="M76.9764 95.7668C76.9544 95.6919 76.9141 95.6171 76.9136 95.5419C76.9087 94.8558 76.8232 94.1557 76.9298 93.4865C77.1229 92.2762 76.3487 91.468 75.8351 90.5626C75.0154 89.1176 74.1222 87.7142 73.2585 86.2945C73.2203 86.2317 73.1641 86.1797 73.1167 86.1228C73.135 86.1108 73.1528 86.0986 73.1706 86.0867C73.9273 86.0813 74.6886 86.0246 75.4386 86.0916C75.825 86.1263 75.8831 86.6244 76.0706 86.9152C76.7035 87.897 77.2846 88.9119 77.8973 89.907C78.1412 90.3032 78.1497 90.2875 78.4168 89.8395C79.1659 88.5829 79.9244 87.3318 80.6801 86.0775H82.9382C82.6884 86.4859 82.4511 86.8637 82.2238 87.2475C81.5686 88.3535 80.92 89.4634 80.2639 90.5687C79.9256 91.1388 79.5739 91.7012 79.2343 92.2703C79.1912 92.3425 79.165 92.4362 79.1645 92.5201C79.1598 93.5195 79.1631 94.5189 79.1587 95.5182C79.1582 95.6012 79.1176 95.6839 79.0963 95.7668C78.3903 95.7668 77.6832 95.7668 76.9764 95.7668Z" fill="#10141F"/>
<path d="M59.392 96C58.73 95.9538 58.0501 95.9417 57.4134 95.6959C56.845 95.4763 56.3484 95.1356 55.9342 94.6859C55.7643 94.5013 55.9487 94.3687 56.0448 94.2475C56.3892 93.8131 56.747 93.3892 57.1294 92.9253C57.2201 93.1961 57.3253 93.3745 57.5957 93.3742C57.6018 93.4408 57.6077 93.5078 57.6098 93.531C58.0744 94.0491 58.671 94.1212 59.2535 94.035C59.7824 93.9567 60.1442 93.5364 60.1948 93.0167C60.3569 91.3497 60.2339 89.6743 60.2648 88.0027C60.2655 87.9657 60.2536 87.9284 60.2452 87.878H56.8803V86.0843H62.4726C62.4777 86.0902 62.4974 86.1014 62.4972 86.1129C62.4934 88.3762 62.5199 90.6404 62.4707 92.9028C62.444 94.1259 61.9212 95.1269 60.7464 95.6542C60.4094 95.8053 60.02 95.8388 59.6549 95.9274C59.575 95.9468 59.4967 95.9707 59.392 96Z" fill="#10141F"/>
<path d="M92.7751 95.7678C92.0216 95.7669 91.2673 95.7664 90.513 95.7652C91.2668 95.7661 92.0206 95.7669 92.7751 95.7678Z" fill="#0256F4"/>
<path d="M39.0082 95.7683C38.2846 95.7669 37.5601 95.7659 36.836 95.7645C37.5596 95.7659 38.2837 95.7669 39.0082 95.7683Z" fill="#0256F4"/>
<path d="M79.0963 95.7668C78.3903 95.7668 77.6832 95.7668 76.9764 95.7668C77.6827 95.7668 78.3894 95.7668 79.0963 95.7668Z" fill="#0256F4"/>
<path d="M84.2031 95.7669C83.4933 95.7673 82.7826 95.7678 82.0722 95.7685C82.7822 95.7678 83.4921 95.7673 84.2031 95.7669Z" fill="#0256F4"/>
<path d="M24.393 93.0961C23.7011 93.0951 23.0087 93.0945 22.316 93.0935C23.008 93.0945 23.7001 93.0951 24.393 93.0961Z" fill="#0256F4"/>
<path d="M30.4759 95.7654C29.7866 95.765 29.0967 95.7647 28.4067 95.7643C29.096 95.7647 29.7856 95.7652 30.4759 95.7654Z" fill="#0256F4"/>
<path d="M65.4644 95.7669C64.7743 95.7662 64.0835 95.7654 63.3928 95.7647C64.0831 95.7654 64.7734 95.7662 65.4644 95.7669Z" fill="#0256F4"/>
<path d="M73.898 95.7645C73.207 95.7654 72.5148 95.7661 71.8231 95.7671C72.5143 95.7661 73.2058 95.7654 73.898 95.7645Z" fill="#0256F4"/>
<path d="M22.0974 95.7643C21.4216 95.7652 20.7449 95.7666 20.0684 95.7676C20.7444 95.7666 21.4207 95.7652 22.0974 95.7643Z" fill="#0256F4"/>
<path d="M42.1429 95.7664C41.4837 95.7664 40.8237 95.7664 40.1636 95.7664C40.8232 95.7664 41.4826 95.7664 42.1429 95.7664Z" fill="#0256F4"/>
<path d="M50.9549 95.7685C50.3241 95.7671 49.6926 95.7659 49.0609 95.7645C49.6922 95.7659 50.3232 95.7671 50.9549 95.7685Z" fill="#0256F4"/>
<path d="M73.1706 86.0867C73.1528 86.0986 73.135 86.1108 73.1167 86.1228C73.106 86.1124 73.0957 86.1017 73.0856 86.0914C73.1139 86.0897 73.1423 86.0883 73.1706 86.0867Z" fill="#0256F4"/>
<path d="M74.1231 95.7174L74.1156 95.7045C74.1156 95.7045 74.1269 95.7144 74.1271 95.7144C74.1274 95.7144 74.1318 95.7207 74.1318 95.7207L74.1231 95.7174Z" fill="#0256F4"/>
<path d="M28.2279 95.7671L28.2307 95.7591L28.2288 95.7652L28.2279 95.7671Z" fill="#0256F4"/>
</g>
<rect x="1" y="1" width="110" height="110" rx="9" stroke="black" stroke-opacity="0.1" stroke-width="2"/>
<defs>
<clipPath id="clip0_768_298">
<rect x="2" y="2" width="108" height="108" rx="8" fill="white"/>
</clipPath>
</defs>
</svg>
