<svg width="112" height="112" viewBox="0 0 112 112" fill="none" xmlns="http://www.w3.org/2000/svg">
<g clip-path="url(#clip0_768_304)">
<rect x="2" y="2" width="108" height="108" rx="8" fill="white"/>
<path fill-rule="evenodd" clip-rule="evenodd" d="M42.4377 28.902C47.8082 28.902 52.1884 33.3098 52.1884 38.7172C52.1884 44.1199 47.8082 48.5324 42.4377 48.5324C37.0672 48.5324 32.687 44.1245 32.687 38.7172C32.687 33.3145 37.0672 28.902 42.4377 28.902ZM42.4377 27.0044C48.8491 27.0044 54.0722 32.2643 54.0722 38.7172C54.0722 45.1655 48.8445 50.43 42.4377 50.43C36.0262 50.43 30.8031 45.1701 30.8031 38.7172C30.8031 32.2643 36.0309 27.0044 42.4377 27.0044ZM42.4377 27.6814C48.476 27.6814 53.3997 32.6374 53.3997 38.7172C53.3997 44.797 48.4714 49.7529 42.4377 49.7529C36.3993 49.7529 31.471 44.797 31.471 38.7172C31.471 32.6374 36.3993 27.6814 42.4377 27.6814Z" fill="#00AEEF"/>
<path fill-rule="evenodd" clip-rule="evenodd" d="M28.1502 67.3936H16.0182V40.0944C16.0182 31.3293 22.1302 26.0003 37.7258 26.0003C34.23 26.0003 28.1502 30.1548 28.1502 36.6952V67.3936Z" fill="#009B4C"/>
<path fill-rule="evenodd" clip-rule="evenodd" d="M56.739 67.3936H68.8709V40.0944C68.8709 31.3293 62.7589 26.0003 47.1633 26.0003C50.6592 26.0003 56.739 30.1548 56.739 36.6952V67.3936Z" fill="#009B4C"/>
<path fill-rule="evenodd" clip-rule="evenodd" d="M70.2942 67.3936H82.4261V40.0944C82.4261 31.3293 74.4901 26.0003 58.2589 26.0003C61.7548 26.0003 70.2988 29.8785 70.2988 38.1645V67.3936H70.2942Z" fill="#009B4C"/>
<path fill-rule="evenodd" clip-rule="evenodd" d="M83.8448 67.3936H95.9767V40.0944C95.9767 31.3293 85.6687 26.0003 70.0731 26.0003C74.7573 26.0003 83.8448 30.6154 83.8448 38.3487V67.3936Z" fill="#009B4C"/>
<path d="M18.6435 78.503V72.2067H16.4097V70.9263H22.3928V72.2067H20.1635V78.503H18.6435ZM23.3278 78.503V70.9263H24.8477V78.503H23.3278ZM26.2986 78.503V70.9263H29.4997C30.3057 70.9263 30.8861 70.9954 31.2545 71.129C31.6184 71.2625 31.9132 71.5066 32.1296 71.8521C32.3507 72.2021 32.4567 72.5982 32.4567 73.045C32.4567 73.6115 32.2909 74.0859 31.9592 74.4544C31.6276 74.8229 31.1302 75.0578 30.4715 75.1545C30.8031 75.348 31.0749 75.5598 31.2868 75.7901C31.4986 76.0204 31.7888 76.4304 32.1527 77.0199L33.0739 78.4984H31.2545L30.1537 76.8495C29.7622 76.2599 29.4951 75.8915 29.3523 75.7349C29.2095 75.5829 29.0575 75.4769 28.8963 75.4171C28.7351 75.3618 28.4818 75.3341 28.1317 75.3341H27.8231V78.4984H26.3032L26.2986 78.503ZM27.8185 74.1274H28.9424C29.6701 74.1274 30.1261 74.0952 30.3103 74.0353C30.4899 73.9754 30.6327 73.8649 30.7341 73.7129C30.8354 73.5609 30.8861 73.372 30.8861 73.1463C30.8861 72.8884 30.817 72.6858 30.6834 72.5292C30.5498 72.3726 30.3564 72.2712 30.1123 72.2298C29.9879 72.216 29.6194 72.2067 29.0022 72.2067H27.8185V74.1274ZM35.5795 78.503V72.2067H33.3456V70.9263H39.3287V72.2067H37.0994V78.503H35.5795ZM44.6669 78.503L44.0083 76.7804H41.0006L40.3788 78.503H38.7668L41.7007 70.9263H43.3082L46.3251 78.503H44.6669ZM43.5201 75.5046L42.4837 72.6904L41.4658 75.5046H43.5201ZM49.6505 70.9263H52.4279C53.0543 70.9263 53.5287 70.9724 53.8603 71.0691C54.3025 71.198 54.6802 71.4329 54.9934 71.7692C55.3066 72.1008 55.5507 72.5107 55.7119 72.9943C55.8731 73.478 55.956 74.0767 55.956 74.786C55.956 75.4078 55.8777 75.9467 55.7257 76.3981C55.5369 76.9462 55.2697 77.393 54.9197 77.7338C54.6571 77.9918 54.3025 78.1944 53.8511 78.3372C53.5149 78.4431 53.0681 78.4984 52.5062 78.4984H49.6459V70.9217L49.6505 70.9263ZM51.1705 72.2067V77.2226H52.3035C52.7273 77.2226 53.0359 77.1995 53.2247 77.1489C53.4688 77.089 53.6761 76.9831 53.8373 76.8357C53.9985 76.6883 54.1321 76.4442 54.2334 76.1033C54.3347 75.7625 54.39 75.3019 54.39 74.717C54.39 74.132 54.3393 73.6852 54.2334 73.3674C54.1321 73.0542 53.9847 72.8101 53.8004 72.6351C53.6162 72.4601 53.3813 72.3403 53.0957 72.2804C52.8839 72.2298 52.4693 72.2067 51.8475 72.2067H51.1659H51.1705ZM57.2549 78.503V70.9263H58.7748V73.9063H61.7548V70.9263H63.2748V78.503H61.7548V75.1914H58.7748V78.503H57.2549ZM69.981 78.503L69.3223 76.7804H66.3147L65.6929 78.503H64.0808L67.0148 70.9263H68.6222L71.6391 78.503H69.981ZM68.8341 75.5046L67.7978 72.6904L66.7799 75.5046H68.8341ZM72.4451 78.503V70.9263H75.6463C76.4523 70.9263 77.0326 70.9954 77.4011 71.129C77.765 71.2625 78.0597 71.5066 78.2762 71.8521C78.4973 72.2021 78.6032 72.5982 78.6032 73.045C78.6032 73.6115 78.4374 74.0859 78.1058 74.4544C77.7742 74.8229 77.2767 75.0578 76.6181 75.1545C76.9497 75.348 77.2169 75.5598 77.4333 75.7901C77.6452 76.0204 77.9354 76.4304 78.2993 77.0199L79.2204 78.4984H77.4011L76.3003 76.8495C75.9088 76.2599 75.6416 75.8915 75.4989 75.7349C75.3561 75.5829 75.2041 75.4769 75.0429 75.4171C74.8817 75.3618 74.6283 75.3341 74.2783 75.3341H73.9697V78.4984H72.4498L72.4451 78.503ZM73.9651 74.1274H75.0889C75.8167 74.1274 76.2727 74.0952 76.4569 74.0353C76.6365 73.9754 76.7793 73.8649 76.8806 73.7129C76.982 73.5609 77.0326 73.372 77.0326 73.1463C77.0326 72.8884 76.9635 72.6858 76.83 72.5292C76.6964 72.3726 76.503 72.2712 76.2588 72.2298C76.1345 72.216 75.766 72.2067 75.1488 72.2067H73.9651V74.1274ZM80.0127 78.503V70.9263H82.288L83.6513 76.0941L85.0008 70.9263H87.2808V78.503H85.8714V72.5384L84.3745 78.503H82.9098L81.4175 72.5384V78.503H80.008H80.0127ZM93.9271 78.503L93.2685 76.7804H90.2608L89.639 78.503H88.0269L90.9609 70.9263H92.5684L95.5852 78.503H93.9271ZM92.7802 75.5046L91.7439 72.6904L90.726 75.5046H92.7802Z" fill="#00AEEF"/>
<path d="M15.9998 85.8172V82.4687H17.0867C17.4967 82.4687 17.7638 82.4871 17.8882 82.5194C18.0816 82.57 18.2428 82.6806 18.3718 82.8464C18.5008 83.0168 18.5652 83.2333 18.5652 83.5004C18.5652 83.7077 18.5284 83.8781 18.4547 84.0209C18.381 84.1591 18.2843 84.2696 18.1691 84.3525C18.054 84.4308 17.9388 84.4861 17.8191 84.5091C17.6579 84.5414 17.423 84.5552 17.119 84.5552H16.6768V85.8172H15.9998ZM16.6768 83.0352V83.9887H17.0453C17.3124 83.9887 17.4875 83.9702 17.5796 83.9334C17.6671 83.8965 17.7408 83.8459 17.7915 83.7676C17.8421 83.6939 17.8698 83.6064 17.8698 83.505C17.8698 83.3807 17.8329 83.284 17.7638 83.2011C17.6901 83.1228 17.6026 83.0721 17.4921 83.0491C17.4138 83.0352 17.248 83.026 17.0084 83.026H16.6814L16.6768 83.0352ZM19.118 85.8172V82.4687H21.5959V83.0352H19.795V83.7814H21.4716V84.3479H19.795V85.2553H21.6604V85.8218H19.1133L19.118 85.8172ZM22.2408 82.4687H23.664C24.0232 82.4687 24.2812 82.501 24.4424 82.5608C24.6036 82.6207 24.7372 82.7266 24.8339 82.8832C24.9306 83.0398 24.9813 83.2149 24.9813 83.4129C24.9813 83.6662 24.9076 83.8735 24.7602 84.0347C24.6128 84.2005 24.3917 84.3019 24.1015 84.3433C24.2489 84.4262 24.3687 84.5229 24.4608 84.6243C24.5575 84.7256 24.6819 84.9098 24.8431 85.1678L25.253 85.8218H24.4424L23.9588 85.0895C23.7837 84.8315 23.664 84.6657 23.5995 84.5966C23.535 84.5276 23.4659 84.4815 23.3968 84.4585C23.3231 84.4354 23.2126 84.4216 23.056 84.4216H22.9178V85.8218H22.2408V82.4687ZM22.9178 83.8827H23.4199C23.7423 83.8827 23.9449 83.8689 24.0279 83.8413C24.1062 83.8136 24.1706 83.7676 24.2167 83.6985C24.2628 83.6294 24.2858 83.5465 24.2858 83.4452C24.2858 83.33 24.2535 83.2425 24.1937 83.1734C24.1338 83.1043 24.0509 83.0583 23.9403 83.0445C23.8851 83.0352 23.7193 83.0306 23.4475 83.0306H22.9178V83.8827ZM25.6169 82.4641H26.294V84.2788C26.294 84.569 26.3032 84.7532 26.317 84.8408C26.3446 84.9789 26.4137 85.0895 26.5196 85.1724C26.6302 85.2553 26.7776 85.2967 26.9618 85.2967C27.1507 85.2967 27.2934 85.2599 27.3902 85.177C27.4869 85.0987 27.5468 85.002 27.5652 84.8868C27.5836 84.7717 27.5928 84.5828 27.5928 84.3157V82.4595H28.2699V84.2236C28.2699 84.6243 28.2515 84.9098 28.2146 85.0757C28.1778 85.2415 28.1087 85.3843 28.012 85.4948C27.9152 85.6099 27.7817 85.7021 27.6205 85.7665C27.4546 85.8356 27.2428 85.8679 26.9756 85.8679C26.6578 85.8679 26.4137 85.831 26.2525 85.7573C26.0867 85.6836 25.9577 85.5869 25.861 85.4672C25.7643 85.3474 25.7044 85.2276 25.6722 85.0941C25.6261 84.9006 25.6077 84.6197 25.6077 84.242V82.4549L25.6169 82.4641ZM28.818 84.7302L29.4766 84.6657C29.5181 84.8868 29.5964 85.048 29.7161 85.154C29.8359 85.2553 30.0017 85.3106 30.2044 85.3106C30.4209 85.3106 30.5867 85.2645 30.6972 85.1724C30.8077 85.0803 30.863 84.9743 30.863 84.85C30.863 84.7717 30.84 84.7026 30.7939 84.6473C30.7479 84.592 30.665 84.5414 30.5498 84.5045C30.4715 84.4769 30.2919 84.4262 30.0109 84.3571C29.6517 84.265 29.3983 84.1545 29.251 84.0255C29.0437 83.8413 28.9424 83.6156 28.9424 83.3484C28.9424 83.178 28.9884 83.0168 29.0851 82.8694C29.1819 82.722 29.32 82.6069 29.5043 82.5286C29.6839 82.4503 29.905 82.4134 30.1629 82.4134C30.5821 82.4134 30.8953 82.5056 31.1071 82.6944C31.319 82.8786 31.4295 83.1274 31.4388 83.4406L30.7617 83.4636C30.7341 83.2886 30.6696 83.1642 30.5775 83.0905C30.4807 83.0168 30.3426 82.9754 30.1537 82.9754C29.9603 82.9754 29.8037 83.0168 29.6977 83.0951C29.6286 83.1458 29.5918 83.2149 29.5918 83.3024C29.5918 83.3807 29.624 83.4498 29.6931 83.505C29.776 83.5787 29.9833 83.6524 30.3149 83.7307C30.6419 83.809 30.886 83.8873 31.0426 83.9702C31.1992 84.0531 31.3236 84.1683 31.4111 84.3111C31.4986 84.4539 31.5447 84.6335 31.5447 84.8454C31.5447 85.0388 31.4894 85.2184 31.3835 85.3843C31.2775 85.5501 31.1256 85.679 30.9321 85.7573C30.7387 85.8402 30.4945 85.8817 30.2044 85.8817C29.7806 85.8817 29.4536 85.785 29.2279 85.5869C29.0022 85.3935 28.8641 85.1079 28.8226 84.7348L28.818 84.7302ZM35.1373 85.8172H34.405L34.1148 85.0526H32.7699L32.4935 85.8172H31.775L33.0739 82.4687H33.7924L35.1327 85.8172H35.1373ZM33.8983 84.4861L33.4331 83.2471L32.9817 84.4861H33.8983ZM35.5012 85.8172V82.4687H36.1782V83.7906H37.5001V82.4687H38.1772V85.8172H37.5001V84.3525H36.1782V85.8172H35.5012ZM41.8988 85.8172H41.1664L40.8763 85.0526H39.5313L39.255 85.8172H38.5365L39.8353 82.4687H40.5538L41.8942 85.8172H41.8988ZM40.6598 84.4861L40.1946 83.2471L39.7432 84.4861H40.6598ZM45.2795 85.8172H44.5472L44.257 85.0526H42.9121L42.6357 85.8172H41.9172L43.2161 82.4687H43.9346L45.2749 85.8172H45.2795ZM44.0405 84.4861L43.5753 83.2471L43.1239 84.4861H44.0405ZM45.6434 85.8172V82.4687H46.302L47.6792 84.7164V82.4687H48.3056V85.8172H47.6285L46.2698 83.6156V85.8172H45.6434ZM50.323 82.4687H51.5574C51.8337 82.4687 52.0502 82.4917 52.193 82.5332C52.391 82.5931 52.5568 82.6944 52.695 82.8418C52.8332 82.9892 52.9391 83.1688 53.0128 83.3853C53.0865 83.5972 53.1234 83.8643 53.1234 84.1775C53.1234 84.4539 53.0911 84.6888 53.022 84.8914C52.9391 85.1355 52.8194 85.3336 52.6628 85.4856C52.5476 85.6007 52.3864 85.6882 52.1884 85.7527C52.041 85.7988 51.8383 85.8218 51.5896 85.8218H50.3184V82.4733L50.323 82.4687ZM51 83.0352V85.2553H51.5021C51.6909 85.2553 51.8245 85.2461 51.9074 85.223C52.0179 85.1954 52.1101 85.1494 52.1792 85.0849C52.2528 85.0204 52.3081 84.9098 52.3542 84.7625C52.4002 84.6105 52.4233 84.4078 52.4233 84.1499C52.4233 83.8919 52.4002 83.6939 52.3542 83.5557C52.3081 83.4175 52.2436 83.307 52.1653 83.2333C52.0824 83.155 51.9811 83.1043 51.8521 83.0767C51.76 83.0537 51.5758 83.0445 51.2994 83.0445H50.9954L51 83.0352ZM56.7206 85.8172H55.9882L55.6981 85.0526H54.3531L54.0768 85.8172H53.3583L54.6571 82.4687H55.3757L56.716 85.8172H56.7206ZM55.4816 84.4861L55.0164 83.2471L54.565 84.4861H55.4816ZM57.0844 85.8172V82.4687H59.5624V83.0352H57.7615V83.7814H59.4381V84.3479H57.7615V85.2553H59.6269V85.8218H57.0798L57.0844 85.8172ZM60.2073 82.4687H61.6305C61.9897 82.4687 62.2477 82.501 62.4089 82.5608C62.5701 82.6207 62.7037 82.7266 62.8004 82.8832C62.8971 83.0398 62.9478 83.2149 62.9478 83.4129C62.9478 83.6662 62.8741 83.8735 62.7267 84.0347C62.5793 84.2005 62.3582 84.3019 62.068 84.3433C62.2154 84.4262 62.3352 84.5229 62.4273 84.6243C62.524 84.7256 62.6484 84.9098 62.8096 85.1678L63.2195 85.8218H62.4089L61.9253 85.0895C61.7502 84.8315 61.6305 84.6657 61.566 84.5966C61.5015 84.5276 61.4324 84.4815 61.3633 84.4585C61.2896 84.4354 61.1791 84.4216 61.0225 84.4216H60.8843V85.8218H60.2073V82.4687ZM60.8843 83.8827H61.3864C61.7088 83.8827 61.9114 83.8689 61.9943 83.8413C62.0726 83.8136 62.1371 83.7676 62.1832 83.6985C62.2292 83.6294 62.2523 83.5465 62.2523 83.4452C62.2523 83.33 62.22 83.2425 62.1602 83.1734C62.1003 83.1043 62.0174 83.0583 61.9068 83.0445C61.8516 83.0352 61.6857 83.0306 61.414 83.0306H60.8843V83.8827ZM66.6049 85.8172H65.8725L65.5823 85.0526H64.2374L63.9611 85.8172H63.2425L64.5414 82.4687H65.2599L66.6003 85.8172H66.6049ZM65.3659 84.4861L64.9007 83.2471L64.4493 84.4861H65.3659ZM66.9687 85.8172V82.4687H67.6458V83.7906H68.9677V82.4687H69.6448V85.8172H68.9677V84.3525H67.6458V85.8172H66.9687ZM74.4948 85.8172H73.7624L73.4723 85.0526H72.1273L71.851 85.8172H71.1325L72.4313 82.4687H73.1498L74.4902 85.8172H74.4948ZM73.2558 84.4861L72.7906 83.2471L72.3392 84.4861H73.2558ZM74.8356 85.8172V82.4687H75.5127V85.8172H74.8356ZM76.1575 82.4687H77.5807C77.94 82.4687 78.1979 82.501 78.3591 82.5608C78.5203 82.6207 78.6539 82.7266 78.7506 82.8832C78.8474 83.0398 78.898 83.2149 78.898 83.4129C78.898 83.6662 78.8243 83.8735 78.6769 84.0347C78.5295 84.2005 78.3085 84.3019 78.0183 84.3433C78.1657 84.4262 78.2854 84.5229 78.3776 84.6243C78.4743 84.7256 78.5986 84.9098 78.7598 85.1678L79.1698 85.8218H78.3591L77.8755 85.0895C77.7005 84.8315 77.5807 84.6657 77.5163 84.5966C77.4518 84.5276 77.3827 84.4815 77.3136 84.4585C77.2399 84.4354 77.1294 84.4216 76.9728 84.4216H76.8346V85.8218H76.1575V82.4687ZM76.8346 83.8827H77.3366C77.659 83.8827 77.8617 83.8689 77.9446 83.8413C78.0229 83.8136 78.0874 83.7676 78.1334 83.6985C78.1795 83.6294 78.2025 83.5465 78.2025 83.4452C78.2025 83.33 78.1703 83.2425 78.1104 83.1734C78.0505 83.1043 77.9676 83.0583 77.8571 83.0445C77.8018 83.0352 77.636 83.0306 77.3643 83.0306H76.8346V83.8827ZM80.8279 85.8172V82.4687H81.8458L82.4446 84.7532L83.0387 82.4687H84.0566V85.8172H83.4302V83.178L82.7716 85.8172H82.1176L81.4589 83.178L81.4543 85.8172H80.8279ZM84.7107 85.8172V82.4687H85.3877V85.8172H84.7107ZM86.0326 85.8172V82.4687H86.6912L88.0684 84.7164V82.4687H88.6948V85.8172H88.0177L86.659 83.6156V85.8172H86.0326ZM89.4133 82.4687H90.0904V84.2834C90.0904 84.5736 90.0996 84.7578 90.1134 84.8454C90.141 84.9835 90.2101 85.0941 90.3161 85.177C90.4266 85.2599 90.574 85.3013 90.7582 85.3013C90.9471 85.3013 91.0899 85.2645 91.1866 85.1816C91.2833 85.1033 91.3432 85.0066 91.3616 84.8914C91.38 84.7763 91.3892 84.5874 91.3892 84.3203V82.4641H92.0663V84.2282C92.0663 84.6289 92.0479 84.9144 92.011 85.0803C91.9742 85.2461 91.9051 85.3889 91.8084 85.4994C91.7117 85.6145 91.5781 85.7067 91.4169 85.7711C91.2511 85.8402 91.0392 85.8725 90.772 85.8725C90.4542 85.8725 90.2101 85.8356 90.0489 85.7619C89.8831 85.6882 89.7541 85.5915 89.6574 85.4718C89.5607 85.352 89.5008 85.2323 89.4686 85.0987C89.4225 84.9052 89.4041 84.6243 89.4041 84.2466V82.4595L89.4133 82.4687ZM92.7848 85.8172V82.4687H93.8027L94.4015 84.7532L94.9957 82.4687H96.0136V85.8172H95.3872V83.178L94.7285 85.8172H94.0745L93.4158 83.178L93.4112 85.8172H92.7848Z" fill="#00AEEF"/>
</g>
<rect x="1" y="1" width="110" height="110" rx="9" stroke="black" stroke-opacity="0.1" stroke-width="2"/>
<defs>
<clipPath id="clip0_768_304">
<rect x="2" y="2" width="108" height="108" rx="8" fill="white"/>
</clipPath>
</defs>
</svg>
