<svg width="112" height="112" viewBox="0 0 112 112" fill="none" xmlns="http://www.w3.org/2000/svg">
<g clip-path="url(#clip0_768_303)">
<rect x="2" y="2" width="108" height="108" rx="8" fill="white"/>
<path d="M56.2214 57.4272C56.1006 57.4675 55.9849 57.5027 55.8692 57.5379C55.9849 57.5027 56.1056 57.4625 56.2214 57.4272Z" fill="#FFEF00"/>
<path d="M44.243 56.7229C44.243 56.7229 44.1927 56.6777 44.1725 56.6575C44.1977 56.6777 44.2229 56.7028 44.243 56.7229Z" fill="#FFEF00"/>
<path d="M44.0819 56.572C44.0819 56.572 44.0366 56.5267 44.0165 56.5066C44.0366 56.5317 44.0618 56.5519 44.0819 56.572Z" fill="#FFEF00"/>
<path d="M43.9361 56.416C43.9361 56.416 43.8959 56.3708 43.8757 56.3506C43.8959 56.3708 43.916 56.3959 43.9361 56.416Z" fill="#FFEF00"/>
<path d="M45.7573 57.7039C45.7221 57.6888 45.6869 57.6687 45.6466 57.6536C45.6818 57.6687 45.717 57.6888 45.7573 57.7039Z" fill="#FFEF00"/>
<path d="M47.5933 58.2876C47.533 58.2775 47.4726 58.2624 47.4122 58.2473C47.4726 58.2624 47.533 58.2725 47.5933 58.2876Z" fill="#FFEF00"/>
<path d="M46.2 57.8901C46.1597 57.875 46.1195 57.8599 46.0792 57.8398C46.1195 57.8549 46.1597 57.875 46.2 57.8901Z" fill="#FFEF00"/>
<path d="M44.5799 57.0047C44.5547 56.9845 44.5245 56.9644 44.4994 56.9393C44.5245 56.9594 44.5547 56.9845 44.5799 57.0047Z" fill="#FFEF00"/>
<path d="M45.5407 57.6033C45.5055 57.5882 45.4703 57.5681 45.4351 57.548C45.4703 57.5631 45.5055 57.5832 45.5407 57.6033Z" fill="#FFEF00"/>
<path d="M45.1334 57.382C45.1032 57.3619 45.068 57.3418 45.0378 57.3267C45.068 57.3468 45.0982 57.3669 45.1334 57.382Z" fill="#FFEF00"/>
<path d="M49.5454 58.5038C49.475 58.5038 49.4046 58.5038 49.3392 58.4938C49.4096 58.4938 49.475 58.4988 49.5454 58.5038Z" fill="#FFEF00"/>
<path d="M49.2485 58.4938C49.1831 58.4938 49.1126 58.4837 49.0472 58.4837C49.1126 58.4837 49.178 58.4938 49.2485 58.4938Z" fill="#FFEF00"/>
<path d="M55.4917 57.6536C55.376 57.6888 55.2603 57.719 55.1496 57.7542C55.2653 57.7241 55.376 57.6888 55.4917 57.6536Z" fill="#FFEF00"/>
<path d="M50.7829 58.4938C50.6974 58.4938 50.6118 58.5038 50.5263 58.5038C50.6118 58.5038 50.6974 58.4988 50.7829 58.4938Z" fill="#FFEF00"/>
<path d="M50.4658 58.5038C50.3854 58.5038 50.3049 58.5038 50.2244 58.5089C50.3049 58.5089 50.3854 58.5089 50.4658 58.5038Z" fill="#FFEF00"/>
<path d="M55.1345 57.7543C55.0188 57.7845 54.9031 57.8146 54.7924 57.8448C54.9081 57.8146 55.0238 57.7845 55.1345 57.7543Z" fill="#FFEF00"/>
<path d="M51.0998 58.4736C51.0043 58.4787 50.9137 58.4837 50.8181 58.4938C50.9087 58.4887 51.0043 58.4837 51.0998 58.4736Z" fill="#FFEF00"/>
<path d="M54.4352 57.9354C53.2731 58.2221 52.1562 58.3982 51.1149 58.4737C52.1613 58.3982 53.2731 58.2221 54.4352 57.9354Z" fill="#FFEF00"/>
<path d="M54.7824 57.8499C54.6667 57.88 54.5509 57.9102 54.4352 57.9354C54.5509 57.9052 54.6667 57.88 54.7824 57.8499Z" fill="#FFEF00"/>
<path d="M48.3934 58.4183C48.333 58.4133 48.2676 58.4032 48.2073 58.3932C48.2676 58.4032 48.328 58.4083 48.3934 58.4183Z" fill="#FFEF00"/>
<path d="M48.6701 58.4485C48.6097 58.4435 48.5443 58.4334 48.4789 58.4284C48.5393 58.4385 48.6047 58.4435 48.6701 58.4485Z" fill="#FFEF00"/>
<path d="M44.0819 56.572C44.0819 56.572 44.0366 56.5267 44.0165 56.5066C44.0366 56.5267 44.0618 56.5519 44.0819 56.572Z" fill="#00A39B"/>
<path d="M53.57 58.1315C53.0065 58.2472 52.4531 58.3328 51.9199 58.3982C52.4531 58.3378 53.0065 58.2472 53.57 58.1315Z" fill="#00A39B"/>
<path d="M47.3469 58.2372C47.2412 58.2121 47.1357 58.1869 47.03 58.1567C47.1357 58.1819 47.2412 58.2121 47.3469 58.2372Z" fill="#00A39B"/>
<path d="M50.7829 58.4938C50.6974 58.4938 50.6118 58.5038 50.5263 58.5038C50.6118 58.5038 50.6974 58.4988 50.7829 58.4938Z" fill="#00A39B"/>
<path d="M51.8896 58.3982C51.7689 58.4133 51.6431 58.4233 51.5224 58.4384C51.6431 58.4284 51.7639 58.4133 51.8896 58.3982Z" fill="#00A39B"/>
<path d="M45.5407 57.6033C45.5055 57.5882 45.4703 57.5681 45.4351 57.548C45.4703 57.5631 45.5055 57.5832 45.5407 57.6033Z" fill="#00A39B"/>
<path d="M54.7924 57.8448C54.9081 57.8146 55.0289 57.7844 55.1446 57.7492C55.1446 57.7492 55.1395 57.7492 55.1345 57.7492C55.0188 57.7794 54.9031 57.8096 54.7924 57.8398" fill="#00A39B"/>
<path d="M50.8032 58.4938C50.9038 58.4938 50.9994 58.4837 51.105 58.4736C51.0094 58.4787 50.9189 58.4837 50.8233 58.4887C50.8183 58.4887 50.8082 58.4887 50.8032 58.4887" fill="#00A39B"/>
<path d="M54.4352 57.9354C54.2943 57.9706 54.1537 58.0058 54.0128 58.036C54.2644 57.9807 54.5208 57.9153 54.7824 57.8499C54.6667 57.88 54.5511 57.9102 54.4404 57.9354" fill="#00A39B"/>
<path d="M50.2244 58.5089C50.2244 58.5089 50.2044 58.5089 50.1893 58.5089C50.2849 58.5089 50.3754 58.5089 50.471 58.5038H50.4609C50.3804 58.5038 50.2998 58.5038 50.2244 58.5089Z" fill="#00A39B"/>
<path d="M49.2485 58.4938C49.1831 58.4938 49.1126 58.4837 49.0472 58.4837C49.2133 58.4938 49.3742 58.5038 49.5453 58.5089C49.4749 58.5089 49.4044 58.5089 49.339 58.4988C49.3088 58.4988 49.2787 58.4988 49.2485 58.4938Z" fill="#00A39B"/>
<path d="M49.8473 58.5139C49.9479 58.5139 50.0484 58.5139 50.1541 58.5139C50.0786 58.5139 50.0031 58.5139 49.9277 58.5139C49.9025 58.5139 49.8725 58.5139 49.8473 58.5139Z" fill="#00A39B"/>
<path d="M55.4917 57.6536C55.376 57.6888 55.2603 57.719 55.1496 57.7542C55.2653 57.7241 55.376 57.6888 55.4917 57.6536Z" fill="#00A39B"/>
<path d="M53.9877 58.041C53.8468 58.0712 53.7108 58.1013 53.57 58.1315C53.7058 58.1013 53.8468 58.0762 53.9877 58.041Z" fill="#00A39B"/>
<path d="M55.5068 57.6486C55.6225 57.6134 55.7432 57.5782 55.864 57.543C55.864 57.543 55.8589 57.543 55.8539 57.543C55.7382 57.5782 55.6225 57.6134 55.5068 57.6486Z" fill="#00A39B"/>
<path d="M45.6466 57.6536C45.6466 57.6536 45.6013 57.6335 45.5762 57.6184C45.6667 57.6637 45.7573 57.7039 45.8529 57.7442C45.8177 57.7291 45.7875 57.714 45.7573 57.7039C45.7221 57.6888 45.6869 57.6687 45.6466 57.6536Z" fill="#00A39B"/>
<path d="M45.2389 57.4373C45.2993 57.4725 45.3647 57.5077 45.4251 57.5379C45.3949 57.5228 45.3647 57.5077 45.3345 57.4927C45.2993 57.4725 45.2691 57.4574 45.2339 57.4373" fill="#00A39B"/>
<path d="M46.0792 57.8448C46.044 57.8297 46.0088 57.8197 45.9736 57.8046C45.9333 57.7895 45.8981 57.7694 45.8578 57.7543C45.9886 57.8096 46.1195 57.865 46.2553 57.9153C46.2352 57.9102 46.215 57.9002 46.1999 57.8951C46.1597 57.88 46.1195 57.8599 46.0792 57.8448Z" fill="#00A39B"/>
<path d="M45.0427 57.3216C45.093 57.3518 45.1433 57.382 45.1936 57.4121C45.1735 57.4021 45.1584 57.392 45.1383 57.3769C45.1081 57.3568 45.0729 57.3367 45.0427 57.3216Z" fill="#00A39B"/>
<path d="M47.4072 58.2472C47.4072 58.2472 47.387 58.2422 47.3719 58.2372C47.4575 58.2573 47.548 58.2774 47.6386 58.2925L47.5883 58.2825C47.5279 58.2724 47.4675 58.2573 47.4072 58.2422" fill="#00A39B"/>
<path d="M44.4945 56.9392C44.5348 56.9745 44.58 57.0046 44.6203 57.0348C44.6052 57.0248 44.5901 57.0147 44.575 56.9996C44.5498 56.9795 44.5197 56.9594 44.4945 56.9342" fill="#00A39B"/>
<path d="M44.1675 56.6525C44.2028 56.6877 44.243 56.723 44.2833 56.7582C44.2682 56.7481 44.253 56.733 44.243 56.7229C44.2178 56.7028 44.1927 56.6777 44.1675 56.6576" fill="#00A39B"/>
<path d="M48.1166 58.3781C48.0562 58.368 47.9959 58.358 47.9355 58.3479C48.0864 58.3731 48.2373 58.3932 48.3883 58.4133C48.3279 58.4083 48.2675 58.3982 48.2021 58.3881C48.1719 58.3881 48.1418 58.3781 48.1116 58.3731" fill="#00A39B"/>
<path d="M48.6701 58.4485C48.6097 58.4435 48.5443 58.4334 48.4789 58.4284C48.6349 58.4485 48.7909 58.4636 48.9518 58.4737C48.8864 58.4737 48.821 58.4636 48.7556 58.4586C48.7255 58.4586 48.6953 58.4536 48.6651 58.4485" fill="#00A39B"/>
<path d="M47.6689 58.3026C47.7394 58.3177 47.8148 58.3278 47.8903 58.3429C47.8752 58.3429 47.8651 58.3428 47.8501 58.3378C47.7897 58.3277 47.7293 58.3177 47.6689 58.3026Z" fill="#00A39B"/>
<path d="M75.4288 39.1402C72.0934 33.4101 60.0949 33.9233 50.9489 38.8635C41.8029 43.8038 38.1354 50.1778 40.7665 55.0527C43.3976 59.9275 54.9232 60.6872 64.0189 55.6664C74.2013 50.047 77.9996 43.5623 75.4238 39.1453M68.7429 49.6647C67.294 51.1689 65.4879 52.653 63.3046 54.0314C54.4453 59.6358 46.0438 59.6861 43.4781 55.8476C42.316 54.1019 42.5877 51.516 43.9259 48.8094C45.6263 45.3684 49.0372 41.7311 53.3989 39.3767C61.1916 35.1659 69.7742 33.7522 72.6317 38.5868C74.0655 41.0117 72.8581 45.3986 68.7429 49.6597V49.6647Z" fill="#B5D11F"/>
<path d="M67.2995 46.1733C67.2995 46.0174 67.4253 45.8866 67.5862 45.8866C67.7472 45.8866 67.873 46.0123 67.873 46.1733C67.873 46.3343 67.7472 46.4601 67.5862 46.4601C67.4253 46.4601 67.2995 46.3343 67.2995 46.1733ZM65.5739 46.5657C65.5739 46.5657 65.5739 46.5859 65.5739 46.5959C65.589 47.3405 66.1977 47.9391 66.9473 47.9391C67.5762 47.9391 68.1044 47.5166 68.2654 46.943C68.3006 46.8223 68.3207 46.6965 68.3207 46.5657C68.3207 45.8061 67.707 45.1923 66.9473 45.1923C66.1877 45.1923 65.5739 45.8061 65.5739 46.5657Z" fill="black"/>
<path d="M67.2995 46.1733C67.2995 46.0174 67.4253 45.8866 67.5862 45.8866C67.7472 45.8866 67.873 46.0123 67.873 46.1733C67.873 46.3343 67.7472 46.4601 67.5862 46.4601C67.4253 46.4601 67.2995 46.3343 67.2995 46.1733ZM65.5739 46.5657C65.5739 46.5657 65.5739 46.5859 65.5739 46.5959C65.589 47.3405 66.1977 47.9391 66.9473 47.9391C67.5762 47.9391 68.1044 47.5166 68.2654 46.943C68.3006 46.8223 68.3207 46.6965 68.3207 46.5657C68.3207 45.8061 67.707 45.1923 66.9473 45.1923C66.1877 45.1923 65.5739 45.8061 65.5739 46.5657Z" fill="url(#paint0_linear_768_303)"/>
<path d="M66.0463 46.5657H66.0111C65.84 46.5657 65.6841 46.5808 65.5784 46.5909C65.5935 47.3354 66.2022 47.9341 66.9518 47.9341C67.5807 47.9341 68.1089 47.5115 68.2699 46.938C68.0486 47.0336 67.8222 47.0084 67.4901 46.9682C67.1078 46.9179 66.8613 46.7066 66.4639 46.6059C66.3381 46.5758 66.1872 46.5657 66.0463 46.5607" fill="url(#paint1_linear_768_303)"/>
<path d="M42.8243 54.127C42.8193 54.0918 42.8142 54.0566 42.8092 54.0214C42.8092 54.0566 42.8193 54.0918 42.8243 54.127Z" fill="#FFEF00"/>
<path d="M43.3875 55.6916C43.3875 55.6916 43.3674 55.6564 43.3574 55.6363C43.3674 55.6564 43.3775 55.6715 43.3875 55.6916Z" fill="#FFEF00"/>
<path d="M43.79 56.25C43.79 56.25 43.7548 56.2098 43.7347 56.1846C43.7548 56.2048 43.7699 56.2299 43.79 56.25Z" fill="#FFEF00"/>
<path d="M43.6493 56.074C43.6493 56.074 43.6192 56.0387 43.6041 56.0186C43.6192 56.0387 43.6342 56.0538 43.6493 56.074Z" fill="#FFEF00"/>
<path d="M42.8998 54.4993C42.8897 54.4691 42.8847 54.4339 42.8796 54.4037C42.8897 54.439 42.8947 54.4691 42.8998 54.4993Z" fill="#FFEF00"/>
<path d="M42.8595 54.3132C42.8544 54.278 42.8444 54.2478 42.8394 54.2126C42.8444 54.2478 42.8494 54.283 42.8595 54.3132Z" fill="#FFEF00"/>
<path d="M43.1362 55.2036C43.1262 55.1784 43.1161 55.1483 43.101 55.1231C43.1111 55.1483 43.1211 55.1784 43.1362 55.2036Z" fill="#FFEF00"/>
<path d="M43.0658 55.0326C43.0557 55.0075 43.0456 54.9773 43.0356 54.9471C43.0456 54.9773 43.0557 55.0024 43.0658 55.0326Z" fill="#FFEF00"/>
<path d="M43.2117 55.3697C43.2117 55.3697 43.1865 55.3193 43.1765 55.2942C43.1865 55.3193 43.1966 55.3445 43.2117 55.3697Z" fill="#FFEF00"/>
<path d="M43.4529 49.8911C43.4781 49.8207 43.5083 49.7502 43.5385 49.6798C43.5083 49.7502 43.4831 49.8207 43.4529 49.8911Z" fill="#FFEF00"/>
<path d="M43.5437 49.6697C43.5739 49.5943 43.6041 49.5238 43.6393 49.4484C43.6091 49.5238 43.5739 49.5993 43.5437 49.6697Z" fill="#FFEF00"/>
<path d="M43.2871 50.3388C43.3072 50.2734 43.3324 50.213 43.3575 50.1476C43.3324 50.213 43.3123 50.2734 43.2871 50.3388Z" fill="#FFEF00"/>
<path d="M43.1412 50.7866C43.1614 50.7262 43.1765 50.6658 43.1966 50.6055C43.1765 50.6658 43.1563 50.7262 43.1412 50.7866Z" fill="#FFEF00"/>
<path d="M43.2115 50.5602C43.2316 50.4998 43.2517 50.4394 43.2719 50.374C43.2517 50.4344 43.2316 50.4948 43.2115 50.5602Z" fill="#FFEF00"/>
<path d="M61.6243 55.0326C59.773 56.0689 57.9569 56.8588 56.2263 57.4272C58.0474 56.8336 59.9591 55.9884 61.9111 54.8716C61.8155 54.9269 61.7199 54.9823 61.6243 55.0326Z" fill="#FFEF00"/>
<path d="M64.5775 53.1863C64.5473 53.2064 64.5172 53.2316 64.4819 53.2517C64.5121 53.2316 64.5423 53.2064 64.5775 53.1863Z" fill="#FFEF00"/>
<path d="M43.5586 49.6295C43.5837 49.5691 43.6089 49.5087 43.6341 49.4484C43.6441 49.4282 43.6542 49.4031 43.6642 49.3779C43.629 49.4635 43.5938 49.5439 43.5586 49.6295Z" fill="#2C4696"/>
<path d="M42.7789 52.5977C42.7789 52.6429 42.7738 52.6832 42.7688 52.7234C42.7738 52.6379 42.7839 52.5524 42.794 52.4669C42.794 52.487 42.794 52.5021 42.7889 52.5222C42.7889 52.5474 42.7889 52.5725 42.7839 52.5977" fill="#2C4696"/>
<path d="M42.7587 52.9398C42.7587 52.9649 42.7587 52.9951 42.7587 53.0203V53.0303C42.7587 52.9398 42.7638 52.8492 42.7738 52.7587C42.7738 52.7738 42.7738 52.7939 42.7738 52.814C42.7738 52.8593 42.7738 52.8995 42.7688 52.9448" fill="#2C4696"/>
<path d="M42.7538 53.2265C42.7538 53.2618 42.7538 53.302 42.7538 53.3372C42.7538 53.2467 42.7538 53.1561 42.7538 53.0656C42.7538 53.0907 42.7538 53.1209 42.7538 53.146V53.2265Z" fill="#2C4696"/>
<path d="M42.7839 53.8252C42.7839 53.8554 42.7889 53.8805 42.794 53.9107C42.7839 53.8202 42.7738 53.7246 42.7688 53.634C42.7688 53.6692 42.7738 53.7045 42.7789 53.7447C42.7789 53.7749 42.7839 53.8 42.7889 53.8302" fill="#2C4696"/>
<path d="M42.7537 53.4278C42.7537 53.468 42.7537 53.5032 42.7587 53.5435C42.7587 53.5686 42.7587 53.5938 42.7638 53.6189C42.7587 53.5284 42.7537 53.4328 42.7487 53.3372C42.7487 53.3372 42.7487 53.3422 42.7487 53.3473C42.7487 53.3724 42.7487 53.4026 42.7487 53.4278" fill="#2C4696"/>
<path d="M42.7991 52.4015C42.7991 52.4015 42.7991 52.4468 42.7891 52.4669C42.7891 52.4468 42.7891 52.4216 42.7991 52.4015Z" fill="#2C4696"/>
<path d="M42.8394 52.0996C42.8394 52.0996 42.8394 52.0896 42.8394 52.0845C42.8394 52.1047 42.8344 52.1298 42.8293 52.1499C42.8293 52.1298 42.8344 52.1147 42.8394 52.0946" fill="#2C4696"/>
<path d="M42.7688 53.629C42.7688 53.629 42.7688 53.624 42.7688 53.619V53.629Z" fill="#2C4696"/>
<path d="M42.7688 52.7335C42.7688 52.7335 42.7688 52.7335 42.7688 52.7285C42.7688 52.7385 42.7688 52.7486 42.7688 52.7586C42.7688 52.7536 42.7688 52.7435 42.7688 52.7335Z" fill="#2C4696"/>
<path d="M42.7538 53.0253C42.7538 53.0253 42.7538 53.0504 42.7538 53.0605C42.7538 53.0504 42.7538 53.0353 42.7538 53.0253Z" fill="#2C4696"/>
<path d="M42.8998 51.7575C42.8947 51.7927 42.8847 51.8229 42.8796 51.8581C42.8847 51.8229 42.8897 51.7927 42.8998 51.7575Z" fill="#2C4696"/>
<path d="M42.8092 52.3109C42.8092 52.3109 42.8042 52.3612 42.7991 52.3864C42.7991 52.3914 42.7991 52.3964 42.7991 52.4065C42.8092 52.321 42.8193 52.2405 42.8343 52.155C42.8343 52.16 42.8343 52.165 42.8343 52.1751C42.8293 52.2204 42.8193 52.2707 42.8142 52.316" fill="#2C4696"/>
<path d="M43.2771 50.3741C43.2771 50.3741 43.2721 50.3942 43.267 50.4043C43.2821 50.369 43.2922 50.3288 43.3073 50.2936C43.3073 50.3087 43.2972 50.3187 43.2922 50.3338C43.2922 50.3439 43.2821 50.359 43.2771 50.3741Z" fill="#2C4696"/>
<path d="M43.5385 49.6798C43.5385 49.6798 43.5285 49.705 43.5234 49.715C43.5335 49.6849 43.5485 49.6597 43.5586 49.6295C43.5536 49.6446 43.5487 49.6546 43.5437 49.6697L43.5436 49.6798" fill="#2C4696"/>
<path d="M43.1664 50.7111C43.1815 50.6658 43.1966 50.6205 43.2117 50.5753C43.2117 50.5853 43.2066 50.5954 43.2016 50.6054C43.1915 50.6407 43.1815 50.6759 43.1664 50.7111Z" fill="#2C4696"/>
<path d="M51.1957 48.3366C50.2499 48.8548 49.0627 49.6144 46.6177 49.6144C45.2443 49.6144 44.4092 49.1818 43.9363 48.8045C43.8658 48.9504 43.7954 49.1013 43.725 49.2472C44.1979 49.7905 45.4153 50.9476 47.5585 51.3098C50.2751 51.7626 52.378 51.5211 54.7626 50.0773C57.1472 48.6284 57.5547 48.5731 58.8224 48.6837C60.0902 48.7944 62.3994 50.0169 62.7918 50.198C63.1791 50.3741 65.2921 51.4658 67.6465 50.7263C68.0339 50.3741 68.4008 50.0168 68.7429 49.6597C66.6702 51.018 64.1652 50.0722 63.1389 49.6144C61.8611 49.0409 59.6928 48.1153 58.5508 47.7329C57.3786 47.2751 56.3272 47.1041 55.3965 47.1041C53.2936 47.1041 51.8447 47.9794 51.1857 48.3366" fill="black"/>
<path d="M51.1957 48.3366C50.2499 48.8548 49.0627 49.6144 46.6177 49.6144C45.2443 49.6144 44.4092 49.1818 43.9363 48.8045C43.8658 48.9504 43.7954 49.1013 43.725 49.2472C44.1979 49.7905 45.4153 50.9476 47.5585 51.3098C50.2751 51.7626 52.378 51.5211 54.7626 50.0773C57.1472 48.6284 57.5547 48.5731 58.8224 48.6837C60.0902 48.7944 62.3994 50.0169 62.7918 50.198C63.1791 50.3741 65.2921 51.4658 67.6465 50.7263C68.0339 50.3741 68.4008 50.0168 68.7429 49.6597C66.6702 51.018 64.1652 50.0722 63.1389 49.6144C61.8611 49.0409 59.6928 48.1153 58.5508 47.7329C57.3786 47.2751 56.3272 47.1041 55.3965 47.1041C53.2936 47.1041 51.8447 47.9794 51.1857 48.3366" fill="url(#paint2_linear_768_303)"/>
<path d="M43.428 49.9666C43.428 49.9666 43.4431 49.9263 43.4481 49.9062C43.4481 49.9062 43.4481 49.9062 43.4481 49.9112C43.4431 49.9263 43.433 49.9464 43.428 49.9615" fill="#2C4696"/>
<path d="M43.0605 51.0632C43.0605 51.0632 43.0605 51.0834 43.0555 51.0934C43.0706 51.0431 43.0857 50.9928 43.0957 50.9425C43.0907 50.9677 43.0806 50.9878 43.0756 51.0129L43.0605 51.0683V51.0632Z" fill="#2C4696"/>
<path d="M42.8644 51.9537C42.8593 51.999 42.8493 52.0443 42.8442 52.0845C42.8543 52.009 42.8694 51.9336 42.8845 51.8531C42.8845 51.8631 42.8845 51.8732 42.8795 51.8833C42.8795 51.9034 42.8694 51.9286 42.8694 51.9537" fill="#2C4696"/>
<path d="M42.9047 51.7324C42.9047 51.7324 42.9047 51.7475 42.9047 51.7576C42.9198 51.6871 42.9348 51.6167 42.9499 51.5463C42.9399 51.5865 42.9298 51.6268 42.9248 51.667C42.9248 51.6871 42.9147 51.7123 42.9097 51.7324" fill="#2C4696"/>
<path d="M43.0054 51.2846C42.9953 51.3299 42.9853 51.3701 42.9752 51.4154C42.9903 51.35 43.0054 51.2846 43.0205 51.2242C43.0205 51.2242 43.0205 51.2242 43.0205 51.2293C43.0205 51.2494 43.0104 51.2695 43.0054 51.2896" fill="#2C4696"/>
<path d="M43.2115 50.5602C43.2266 50.5099 43.2469 50.4596 43.262 50.4042C43.2419 50.4596 43.2268 50.5149 43.2067 50.5703C43.2067 50.5703 43.2067 50.5602 43.2067 50.5552" fill="#2C4696"/>
<path d="M66.1621 52.004H66.152C66.152 52.004 66.1571 52.004 66.1621 52.004Z" fill="#2C4696"/>
<path d="M43.3575 50.1476C43.3575 50.1476 43.3676 50.1275 43.3676 50.1175C43.3878 50.0671 43.4029 50.0168 43.423 49.9716C43.3827 50.0822 43.3375 50.1929 43.3022 50.3036C43.3173 50.2533 43.3375 50.203 43.3576 50.1527" fill="#2C4696"/>
<path d="M43.4529 49.8911C43.4781 49.8307 43.4983 49.7754 43.5234 49.715C43.4983 49.7804 43.4733 49.8458 43.4481 49.9062C43.4481 49.9012 43.4479 49.8961 43.4529 49.8911Z" fill="#2C4696"/>
<path d="M66.5195 51.7122C66.5195 51.7122 66.4842 51.7424 66.4641 51.7575C66.4842 51.7424 66.5044 51.7273 66.5195 51.7122Z" fill="#2C4696"/>
<path d="M67.2489 51.0934C67.1885 51.1488 67.1231 51.2041 67.0627 51.2544C67.1231 51.1991 67.1885 51.1438 67.2489 51.0934Z" fill="#2C4696"/>
<path d="M43.0556 51.0884C43.0455 51.1337 43.0304 51.179 43.0204 51.2192C43.0304 51.174 43.0405 51.1337 43.0556 51.0884Z" fill="#2C4696"/>
<path d="M43.1262 50.8318C43.1262 50.8318 43.1362 50.7966 43.1413 50.7815C43.1463 50.7564 43.1564 50.7312 43.1664 50.7061C43.1413 50.7815 43.1211 50.857 43.101 50.9324C43.1111 50.8972 43.1211 50.862 43.1312 50.8318" fill="#2C4696"/>
<path d="M42.95 51.511C42.95 51.511 42.9601 51.4707 42.9651 51.4506C42.9651 51.4406 42.9702 51.4305 42.9752 51.4154C42.9652 51.4607 42.9551 51.5009 42.945 51.5462C42.945 51.5361 42.945 51.5261 42.95 51.511Z" fill="#2C4696"/>
<path d="M62.7915 50.203C62.4041 50.027 60.095 48.8045 58.8222 48.6938C57.5494 48.5831 57.1419 48.6384 54.7623 50.0823C52.3777 51.5261 50.2748 51.7676 47.5582 51.3148C45.415 50.9526 44.1926 49.7955 43.7247 49.2522C43.7046 49.2925 43.6844 49.3377 43.6693 49.383C43.6593 49.4031 43.6493 49.4282 43.6393 49.4484C44.0116 49.9213 44.8868 50.8923 46.069 51.2997C47.3267 51.7324 48.3228 52.1349 50.31 52.0242C52.2972 51.9135 53.6756 51.3702 55.1899 50.5904C56.7042 49.8106 59.0083 49.5289 60.4471 50.1578C61.8859 50.7866 63.692 51.9034 65.0553 52.0393C65.3572 52.0594 65.7948 52.0443 66.152 52.004C66.152 52.004 66.1571 52.004 66.1621 52.004C66.2627 51.9235 66.3635 51.838 66.4641 51.7575C66.4842 51.7424 66.5044 51.7273 66.5195 51.7122C66.5899 51.6518 66.6601 51.5965 66.7305 51.5361C66.7808 51.4909 66.8362 51.4506 66.8865 51.4053C66.9469 51.355 67.0023 51.3048 67.0576 51.2545C67.118 51.1991 67.1834 51.1438 67.2437 51.0935C67.294 51.0482 67.3393 51.008 67.3896 50.9627C67.4601 50.9023 67.5255 50.8369 67.5959 50.7765C67.611 50.7615 67.6311 50.7464 67.6462 50.7313C65.2918 51.4708 63.1788 50.3791 62.7915 50.203Z" fill="#2C4696"/>
<path d="M42.7538 53.146C42.7538 53.1058 42.7538 53.0655 42.7538 53.0203C42.7538 53.0605 42.7538 53.1058 42.7538 53.146Z" fill="#FFEF00"/>
<path d="M42.7991 53.9359C42.7991 53.9007 42.7889 53.8654 42.7839 53.8252C42.7839 53.8604 42.7941 53.8956 42.7991 53.9359Z" fill="#FFEF00"/>
<path d="M42.7587 52.9398C42.7587 52.8945 42.7587 52.8542 42.7638 52.809C42.7638 52.8542 42.7638 52.8945 42.7587 52.9398Z" fill="#FFEF00"/>
<path d="M42.774 53.7447C42.774 53.7095 42.7689 53.6692 42.7639 53.634C42.7639 53.6743 42.7689 53.7095 42.774 53.7447Z" fill="#FFEF00"/>
<path d="M42.7638 53.5434C42.7638 53.5032 42.7638 53.468 42.7587 53.4277C42.7587 53.468 42.7587 53.5032 42.7638 53.5434Z" fill="#FFEF00"/>
<path d="M42.7688 52.7335C42.7688 52.6882 42.7738 52.6429 42.7789 52.5977C42.7789 52.6429 42.7738 52.6882 42.7688 52.7335Z" fill="#FFEF00"/>
<path d="M42.7841 52.5222C42.7841 52.4769 42.7941 52.4317 42.7991 52.3864C42.7941 52.4317 42.7891 52.4769 42.7841 52.5222Z" fill="#FFEF00"/>
<path d="M42.9196 51.6669C42.9297 51.6166 42.9397 51.5613 42.9548 51.511C42.9448 51.5613 42.9297 51.6166 42.9196 51.6669Z" fill="#FFEF00"/>
<path d="M42.9651 51.4456C42.9752 51.3903 42.9903 51.34 43.0054 51.2846C42.9903 51.34 42.9802 51.3903 42.9651 51.4456Z" fill="#FFEF00"/>
<path d="M42.8092 52.3109C42.8142 52.2656 42.8193 52.2153 42.8293 52.17C42.8243 52.2153 42.8142 52.2656 42.8092 52.3109Z" fill="#FFEF00"/>
<path d="M42.8394 52.0996C42.8444 52.0493 42.8543 51.999 42.8644 51.9537C42.8543 52.004 42.8495 52.0493 42.8394 52.0996Z" fill="#FFEF00"/>
<path d="M43.2971 55.5357C43.2971 55.5357 43.2719 55.4904 43.2618 55.4703C43.2719 55.4904 43.282 55.5156 43.2971 55.5357Z" fill="#FFEF00"/>
<path d="M63.3095 54.0264C63.1033 54.1572 62.897 54.283 62.6857 54.4088C62.892 54.283 63.0983 54.1572 63.3095 54.0264Z" fill="#FFEF00"/>
<path d="M63.3095 54.0264C63.1033 54.1572 62.897 54.283 62.6857 54.4088C62.892 54.283 63.0983 54.1572 63.3095 54.0264Z" fill="#00A39B"/>
<path d="M42.9601 54.7206C42.9702 54.7559 42.9802 54.7911 42.9903 54.8263C42.9853 54.8062 42.9802 54.786 42.9702 54.7659C42.9702 54.7508 42.9601 54.7357 42.9551 54.7206" fill="#00A39B"/>
<path d="M42.8645 54.3383C42.8746 54.3786 42.8796 54.4188 42.8897 54.4591C42.8897 54.4389 42.8796 54.4238 42.8746 54.4037C42.8746 54.3836 42.8645 54.3635 42.8595 54.3383" fill="#00A39B"/>
<path d="M42.9098 54.5345C42.9199 54.5698 42.9299 54.61 42.94 54.6452C42.94 54.6251 42.93 54.61 42.9249 54.5898C42.9199 54.5697 42.9148 54.5547 42.9098 54.5345Z" fill="#00A39B"/>
<path d="M42.8293 54.1422C42.8344 54.1874 42.8444 54.2277 42.8545 54.273C42.8545 54.2528 42.8495 54.2327 42.8444 54.2176C42.8444 54.1925 42.8344 54.1673 42.8293 54.1472" fill="#00A39B"/>
<path d="M42.7991 53.9409C42.8042 53.9912 42.8142 54.0365 42.8193 54.0868C42.8193 54.0667 42.8142 54.0466 42.8092 54.0264C42.8092 54.0013 42.7991 53.9711 42.7991 53.9459" fill="#00A39B"/>
<path d="M43.2519 55.4501C43.2519 55.4501 43.2771 55.5004 43.2871 55.5206C43.2771 55.5004 43.267 55.4853 43.2569 55.4652C43.2569 55.4652 43.2519 55.4552 43.2469 55.4501" fill="#00A39B"/>
<path d="M43.3525 55.6313C43.3525 55.6313 43.3727 55.6715 43.3878 55.6866C43.3777 55.6715 43.3674 55.6514 43.3574 55.6363C43.3574 55.6363 43.3576 55.6313 43.3576 55.6262" fill="#00A39B"/>
<path d="M43.0909 55.093C43.101 55.1231 43.1161 55.1533 43.1262 55.1835C43.1161 55.1634 43.1111 55.1432 43.101 55.1231C43.101 55.113 43.0909 55.103 43.0909 55.093Z" fill="#00A39B"/>
<path d="M43.1664 55.2741C43.1815 55.2992 43.1915 55.3294 43.2066 55.3546C43.1966 55.3344 43.1865 55.3143 43.1815 55.2942C43.1815 55.2841 43.1764 55.2791 43.1714 55.269" fill="#00A39B"/>
<path d="M43.0204 54.9119C43.0304 54.9421 43.0455 54.9773 43.0556 55.0125C43.0455 54.9924 43.0405 54.9722 43.0355 54.9521C43.0304 54.937 43.0254 54.927 43.0204 54.9119Z" fill="#00A39B"/>
<path d="M43.4832 55.8476C43.5335 55.9231 43.589 55.9985 43.6493 56.074C43.6342 56.0538 43.619 56.0388 43.6089 56.0186C43.5687 55.9633 43.5284 55.9029 43.4882 55.8476" fill="#00A39B"/>
<path d="M63.3095 54.0264C63.4957 53.9107 63.677 53.79 63.8581 53.6693C63.677 53.785 63.4959 53.9057 63.3098 54.0214" fill="#00A39B"/>
<path d="M65.5837 52.4518C65.4328 52.5624 65.2818 52.6782 65.1309 52.7889C65.478 52.5373 65.8101 52.2807 66.132 52.0242C65.9912 52.1348 65.8503 52.2455 65.7044 52.3612C65.6642 52.3914 65.6239 52.4216 65.5837 52.4518Z" fill="#00A39B"/>
<path d="M64.5775 53.1863C64.5473 53.2064 64.5172 53.2316 64.4819 53.2517C64.3159 53.3674 64.1499 53.478 63.9789 53.5937C64.3461 53.3472 64.7033 53.1007 65.0454 52.8492C65.0353 52.8542 65.0253 52.8643 65.0152 52.8693C64.8693 52.975 64.7234 53.0806 64.5725 53.1862" fill="#00A39B"/>
<path d="M43.79 56.25C43.79 56.25 43.7548 56.2098 43.7347 56.1846C43.7146 56.1645 43.6994 56.1393 43.6843 56.1192C43.7648 56.2198 43.8455 56.3205 43.9361 56.416C43.916 56.3909 43.8959 56.3708 43.8757 56.3506C43.8506 56.3205 43.8202 56.2852 43.795 56.255" fill="#00A39B"/>
<path d="M43.5437 49.6697C43.5437 49.6697 43.5435 49.6798 43.5385 49.6798C43.5083 49.7502 43.4831 49.8207 43.4529 49.8911C43.4529 49.9012 43.4479 49.9062 43.4429 49.9163C43.4178 49.9817 43.3928 50.0521 43.3676 50.1175C43.3676 50.1275 43.3626 50.1376 43.3575 50.1476C43.3324 50.213 43.3123 50.2734 43.2871 50.3388C43.2871 50.3539 43.2769 50.364 43.2719 50.3791C43.2517 50.4395 43.2316 50.4998 43.2115 50.5652C43.2065 50.5803 43.2014 50.5954 43.1964 50.6105C43.1763 50.6709 43.1563 50.7312 43.1412 50.7866C43.1412 50.8017 43.131 50.8218 43.1259 50.8369C43.1108 50.8972 43.0907 50.9526 43.0756 51.0079L43.0605 51.0632C43.0454 51.1186 43.0304 51.174 43.0153 51.2293C43.0153 51.2494 43.0052 51.2696 43.0002 51.2897C42.9851 51.345 42.975 51.3953 42.96 51.4507C42.96 51.4708 42.9499 51.4909 42.9449 51.511C42.9348 51.5613 42.9197 51.6167 42.9096 51.667C42.9096 51.6871 42.8996 51.7123 42.8946 51.7324C42.8845 51.7827 42.8744 51.833 42.8644 51.8833C42.8644 51.9034 42.8543 51.9286 42.8543 51.9537C42.8442 52.0041 42.8392 52.0493 42.8292 52.0996C42.8292 52.1248 42.8241 52.1499 42.8191 52.1701C42.8141 52.2153 42.804 52.2657 42.799 52.3109C42.799 52.3361 42.7939 52.3612 42.7889 52.3864C42.7839 52.4317 42.7788 52.477 42.7738 52.5222C42.7738 52.5474 42.7688 52.5725 42.7638 52.5977C42.7638 52.643 42.7587 52.6882 42.7537 52.7335C42.7537 52.7587 42.7537 52.7838 42.7537 52.814C42.7537 52.8593 42.7487 52.8995 42.7487 52.9448C42.7487 52.97 42.7487 53.0002 42.7487 53.0253C42.7487 53.0656 42.7487 53.1108 42.7487 53.1511V53.2316C42.7487 53.2718 42.7487 53.3121 42.7487 53.3523C42.7487 53.3775 42.7487 53.4076 42.7487 53.4328C42.7487 53.4731 42.7487 53.5083 42.7537 53.5485C42.7537 53.5737 42.7537 53.6039 42.7587 53.634C42.7587 53.6743 42.7638 53.7095 42.7688 53.7447C42.7688 53.7749 42.7738 53.8001 42.7788 53.8302C42.7788 53.8604 42.7839 53.8856 42.7889 53.9158C42.7889 53.9258 42.7889 53.9309 42.7889 53.9409C42.7889 53.9661 42.799 53.9963 42.799 54.0214C42.799 54.0415 42.804 54.0617 42.809 54.0818C42.809 54.0969 42.809 54.1069 42.8141 54.122C42.8141 54.1271 42.8141 54.1321 42.8141 54.1371C42.8141 54.1623 42.8241 54.1824 42.8292 54.2076C42.8292 54.2277 42.8342 54.2478 42.8392 54.2629C42.8392 54.278 42.8442 54.2931 42.8493 54.3082C42.8493 54.3182 42.8493 54.3233 42.8543 54.3333C42.8543 54.3534 42.8644 54.3736 42.8694 54.3987C42.8694 54.4188 42.8795 54.4339 42.8795 54.4541C42.8795 54.4692 42.8845 54.4792 42.8895 54.4943C42.8895 54.5044 42.8946 54.5144 42.8996 54.5295C42.9046 54.5496 42.9096 54.5647 42.9147 54.5849C42.9147 54.605 42.9247 54.6201 42.9298 54.6402C42.9298 54.6503 42.9348 54.6654 42.9398 54.6754C42.9398 54.6905 42.95 54.7055 42.9551 54.7206C42.9601 54.7357 42.9651 54.7508 42.9702 54.7659C42.9752 54.786 42.9802 54.8062 42.9903 54.8263C42.9903 54.8363 42.9952 54.8465 43.0002 54.8565C43.0052 54.8716 43.0103 54.8917 43.0203 54.9068C43.0203 54.9169 43.0306 54.932 43.0356 54.9471C43.0406 54.9672 43.0505 54.9873 43.0555 55.0074C43.0555 55.0175 43.0607 55.0225 43.0658 55.0326C43.0708 55.0527 43.0809 55.0728 43.0909 55.093C43.0909 55.103 43.101 55.113 43.101 55.1231C43.1111 55.1432 43.1161 55.1634 43.1262 55.1835C43.1262 55.1885 43.1312 55.1986 43.1362 55.2036C43.1463 55.2288 43.1563 55.2489 43.1664 55.2741C43.1664 55.2791 43.1714 55.2892 43.1765 55.2942C43.1865 55.3143 43.1964 55.3345 43.2014 55.3546C43.2014 55.3546 43.2066 55.3646 43.2117 55.3697C43.2268 55.3948 43.2368 55.425 43.2519 55.4501C43.2519 55.4552 43.2568 55.4602 43.2618 55.4653C43.2719 55.4854 43.2819 55.5055 43.292 55.5206C43.292 55.5206 43.292 55.5256 43.292 55.5307C43.3121 55.5608 43.3272 55.5961 43.3473 55.6262C43.3473 55.6262 43.3473 55.6262 43.3473 55.6313C43.3574 55.6464 43.3674 55.6665 43.3775 55.6816C43.3775 55.6816 43.3775 55.6816 43.3775 55.6866C43.4077 55.7369 43.4429 55.7923 43.4781 55.8426C43.5184 55.8979 43.5586 55.9583 43.5989 56.0136C43.614 56.0337 43.6291 56.0488 43.6441 56.069C43.6542 56.084 43.6693 56.0991 43.6794 56.1142C43.6945 56.1344 43.7146 56.1595 43.7297 56.1796C43.7498 56.1998 43.7649 56.2249 43.785 56.245C43.8102 56.2802 43.8403 56.3104 43.8655 56.3406C43.8856 56.3607 43.9057 56.3859 43.9259 56.406C43.951 56.4362 43.9812 56.4664 44.0064 56.4966C44.0265 56.5167 44.0516 56.5418 44.0718 56.562C44.0969 56.5871 44.1271 56.6173 44.1573 56.6425C44.1824 56.6676 44.2076 56.6877 44.2327 56.7079C44.2478 56.7179 44.2579 56.733 44.273 56.7431C44.2881 56.7582 44.3032 56.7682 44.3183 56.7833C44.3434 56.8034 44.3686 56.8286 44.3937 56.8487C44.4239 56.8739 44.4541 56.899 44.4843 56.9242C44.5094 56.9443 44.5396 56.9644 44.5648 56.9896C44.5799 56.9997 44.595 57.0097 44.6101 57.0248C44.6252 57.0349 44.6402 57.05 44.6604 57.06C44.6906 57.0801 44.7157 57.1003 44.7459 57.1204C44.7761 57.1405 44.8113 57.1657 44.8415 57.1858C44.8717 57.2059 44.9018 57.226 44.932 57.2462C44.9622 57.2663 44.9974 57.2864 45.0326 57.3065C45.0628 57.3267 45.093 57.3468 45.1282 57.3619C45.1484 57.3719 45.1685 57.382 45.1836 57.3971C45.1987 57.4071 45.2138 57.4122 45.2288 57.4222C45.2641 57.4424 45.2943 57.4625 45.3295 57.4776C45.3597 57.4927 45.3898 57.5078 45.42 57.5229C45.4251 57.5229 45.4301 57.5229 45.4351 57.5279C45.4703 57.543 45.5055 57.5631 45.5408 57.5832C45.5508 57.5883 45.5609 57.5933 45.576 57.5983C45.6011 57.6084 45.6213 57.6184 45.6464 57.6335C45.6816 57.6486 45.7168 57.6687 45.7571 57.6838C45.7873 57.6989 45.8225 57.714 45.8527 57.7241C45.8527 57.7241 45.8577 57.7241 45.8627 57.7241C45.903 57.7392 45.9382 57.7593 45.9784 57.7744C46.0137 57.7895 46.0489 57.8046 46.0841 57.8146C46.1243 57.8297 46.1646 57.8499 46.2048 57.865C46.225 57.875 46.24 57.88 46.2602 57.8851C46.2753 57.8901 46.2904 57.8951 46.3054 57.9002C46.3507 57.9153 46.391 57.9354 46.4362 57.9454C46.4664 57.9555 46.4966 57.9656 46.5218 57.9756C46.5721 57.9907 46.6224 58.0108 46.6727 58.0259C46.7733 58.0561 46.879 58.0863 46.9846 58.1165C46.9947 58.1165 47.0098 58.1215 47.0198 58.1266C47.1255 58.1517 47.2311 58.1819 47.3368 58.207C47.3368 58.207 47.3569 58.2121 47.3669 58.2121C47.377 58.2121 47.3871 58.2171 47.4022 58.2221C47.4625 58.2372 47.5229 58.2473 47.5833 58.2624C47.5984 58.2624 47.6185 58.2674 47.6336 58.2724C47.6436 58.2724 47.6537 58.2724 47.6587 58.2775C47.7191 58.2875 47.7795 58.2976 47.8398 58.3127C47.8549 58.3127 47.865 58.3127 47.8801 58.3177C47.8952 58.3177 47.9103 58.3228 47.9254 58.3278C47.9857 58.3378 48.0461 58.3479 48.1065 58.358C48.1367 58.358 48.1668 58.368 48.197 58.368C48.2574 58.3781 48.3178 58.3831 48.3832 58.3932C48.4134 58.3932 48.4435 58.4032 48.4737 58.4032C48.5341 58.4083 48.5995 58.4183 48.6649 58.4234C48.6951 58.4234 48.7253 58.4284 48.7555 58.4334C48.8209 58.4385 48.8863 58.4435 48.9517 58.4485C48.9818 58.4485 49.012 58.4536 49.0422 58.4536C49.1076 58.4536 49.178 58.4636 49.2434 58.4636C49.2736 58.4636 49.3038 58.4636 49.334 58.4686C49.4044 58.4686 49.4698 58.4737 49.5403 58.4787C49.5704 58.4787 49.5956 58.4787 49.6258 58.4787C49.6962 58.4787 49.7717 58.4787 49.8421 58.4787H49.9226C49.9981 58.4787 50.0735 58.4787 50.149 58.4787C50.149 58.4787 50.1741 58.4787 50.1892 58.4787C50.1993 58.4787 50.2094 58.4787 50.2194 58.4787C50.2999 58.4787 50.3804 58.4787 50.4609 58.4737H50.471C50.471 58.4737 50.5011 58.4737 50.5213 58.4737C50.6068 58.4737 50.6923 58.4686 50.7778 58.4636C50.7778 58.4636 50.7929 58.4636 50.798 58.4636C50.803 58.4636 50.8131 58.4636 50.8181 58.4636C50.9086 58.4586 51.0042 58.4536 51.0998 58.4485C51.0998 58.4485 51.1048 58.4485 51.1099 58.4485C51.2356 58.4385 51.3614 58.4284 51.4922 58.4183C51.5023 58.4183 51.5123 58.4183 51.5274 58.4183C51.6482 58.4083 51.7689 58.3932 51.8947 58.3781C51.9047 58.3781 51.9148 58.3781 51.9249 58.3781C52.4581 58.3177 53.0115 58.2272 53.575 58.1115C53.7108 58.0813 53.8517 58.0511 53.9925 58.0209C53.9976 58.0209 54.0076 58.0209 54.0126 58.0159C54.1535 57.9857 54.2944 57.9505 54.4352 57.9153C54.5509 57.8901 54.6667 57.8599 54.7773 57.8297C54.7773 57.8297 54.7824 57.8297 54.7874 57.8297C54.9031 57.7996 55.0138 57.7694 55.1295 57.7392C55.1295 57.7392 55.1345 57.7392 55.1396 57.7392C55.2553 57.709 55.3659 57.6738 55.4817 57.6386C55.4817 57.6386 55.4917 57.6386 55.4967 57.6335C55.6124 57.5983 55.7282 57.5631 55.8439 57.5279C55.8439 57.5279 55.8489 57.5279 55.8539 57.5279C55.9696 57.4927 56.0904 57.4524 56.2061 57.4122C57.9367 56.8487 59.7528 56.0539 61.6041 55.0175C60.3062 54.3484 57.992 53.7497 55.8338 54.0818C54.4604 54.2931 51.5174 55.4703 48.2574 55.093C46.3356 54.8666 45.586 53.8554 45.1131 53.3121C46.0891 53.8252 47.4273 54.0415 49.2585 54.0164C51.9198 53.9812 53.9623 52.975 56.3671 53.0354C58.7114 53.0957 61.3224 54.1874 62.2883 54.6251C62.389 54.5647 62.4896 54.5094 62.5902 54.449C62.6153 54.4339 62.6455 54.4138 62.6707 54.3987C62.8769 54.273 63.0832 54.1472 63.2945 54.0164C63.4806 53.9007 63.6617 53.7799 63.8429 53.6642C63.8831 53.6391 63.9183 53.6139 63.9586 53.5888C63.9586 53.5888 63.9636 53.5888 63.9686 53.5837C64.1397 53.473 64.3057 53.3573 64.4717 53.2467C64.5019 53.2265 64.5321 53.2014 64.5673 53.1813C64.7182 53.0756 64.8641 52.97 65.01 52.8643C65.0201 52.8593 65.0301 52.8492 65.0402 52.8442C65.0603 52.8291 65.0855 52.814 65.1056 52.7989C65.1106 52.7939 65.1157 52.7889 65.1207 52.7889C65.2716 52.6782 65.4276 52.5625 65.5735 52.4518C65.6137 52.4216 65.654 52.3914 65.6942 52.3612C65.8401 52.2506 65.981 52.1399 66.1218 52.0292C66.1319 52.0191 66.1419 52.0141 66.152 52.0091C65.7948 52.0493 65.3471 52.0644 65.0452 52.0443C63.6819 51.9085 61.8758 50.7916 60.437 50.1628C58.9982 49.5339 56.6941 49.8156 55.1798 50.5954C53.6655 51.3752 52.2871 51.9185 50.2999 52.0292C48.3127 52.1399 47.3166 51.7425 46.0589 51.3048C44.8767 50.8973 44.0013 49.9263 43.629 49.4534C43.5938 49.5289 43.5637 49.6044 43.5335 49.6748" fill="url(#paint3_linear_768_303)"/>
<path d="M55.8541 54.0969C54.4807 54.3082 51.5376 55.4904 48.2777 55.1081C47.7998 55.0527 47.3923 54.9471 47.0401 54.8112C47.0401 54.8112 48.4839 55.5407 50.8937 55.3244C53.3035 55.1081 54.3147 54.8012 54.8731 54.6603C55.4315 54.5194 57.313 54.0013 59.592 54.6603C59.9643 54.766 60.7591 55.0678 61.1717 55.2741C61.2874 55.2087 61.5037 55.093 61.6194 55.0276C60.3265 54.3585 58.0073 53.7598 55.8491 54.0918" fill="#2C4696"/>
<path d="M42.1804 74.9697L41.8886 75.3219V76.3381H41.5163V73.3649H41.8886V74.8037L42.1351 74.4767L42.935 73.3649H43.3827L42.4168 74.6729L43.4582 76.3381H43.0104L42.1804 74.9697Z" fill="#757475"/>
<path d="M45.6667 75.1156C45.6667 75.5231 45.5812 75.835 45.4051 76.0513C45.2341 76.2727 44.9876 76.3783 44.6706 76.3783C44.3537 76.3783 44.1223 76.2727 43.9462 76.0563C43.7701 75.845 43.6745 75.5432 43.6695 75.1508V74.5924C43.6695 74.1949 43.76 73.883 43.9311 73.6566C44.1021 73.4303 44.3537 73.3196 44.6656 73.3196C44.9775 73.3196 45.224 73.4252 45.3951 73.6416C45.5711 73.8579 45.6617 74.1648 45.6617 74.5672V75.1106L45.6667 75.1156ZM45.2944 74.5974C45.2944 74.2855 45.2441 74.049 45.1385 73.8931C45.0379 73.7422 44.8769 73.6617 44.6656 73.6617C44.4543 73.6617 44.3034 73.7371 44.1977 73.8931C44.0921 74.049 44.0367 74.2805 44.0367 74.5773V75.1106C44.0367 75.4124 44.0871 75.6438 44.1977 75.8048C44.3034 75.9658 44.4593 76.0463 44.6706 76.0463C44.8819 76.0463 45.0328 75.9708 45.1335 75.8249C45.2341 75.679 45.2844 75.4526 45.2894 75.1508V74.5924L45.2944 74.5974Z" fill="#757475"/>
<path d="M47.9253 73.6868H47.1456V76.3381H46.7682V73.6868H45.9885V73.3649H47.9253V73.6868Z" fill="#757475"/>
<path d="M49.5905 75.5634H48.5843L48.3529 76.3431H47.9706L48.9264 73.3699H49.2484L50.2093 76.3431H49.827L49.5905 75.5634ZM48.685 75.2414H49.4949L49.0874 73.8881L48.685 75.2414Z" fill="#757475"/>
<path d="M52.8707 75.5885C52.8707 75.4426 52.8304 75.3269 52.7499 75.2464C52.6694 75.1659 52.5235 75.0904 52.3173 75.0149C52.106 74.9395 51.945 74.859 51.8343 74.7785C51.7236 74.698 51.6381 74.6024 51.5828 74.4968C51.5274 74.3911 51.5023 74.2704 51.5023 74.1345C51.5023 73.8981 51.5828 73.7069 51.7387 73.551C51.8947 73.4 52.1009 73.3246 52.3575 73.3246C52.5336 73.3246 52.6845 73.3648 52.8254 73.4403C52.9612 73.5208 53.0669 73.6264 53.1373 73.7673C53.2128 73.9082 53.248 74.0591 53.248 74.2251H52.8707C52.8707 74.044 52.8254 73.8981 52.7399 73.7975C52.6493 73.6969 52.5235 73.6466 52.3575 73.6466C52.2066 73.6466 52.0909 73.6868 52.0054 73.7723C51.9198 73.8579 51.8796 73.9736 51.8796 74.1295C51.8796 74.2553 51.9249 74.3609 52.0154 74.4465C52.106 74.532 52.2468 74.6074 52.433 74.6728C52.7248 74.7684 52.9361 74.8892 53.0618 75.03C53.1876 75.1709 53.253 75.357 53.253 75.5834C53.253 75.8249 53.1725 76.0161 53.0166 76.162C52.8606 76.3079 52.6493 76.3783 52.3776 76.3783C52.2066 76.3783 52.0456 76.338 51.8997 76.2676C51.7538 76.1922 51.6381 76.0865 51.5526 75.9507C51.4671 75.8148 51.4268 75.6589 51.4268 75.4778H51.8041C51.8041 75.6589 51.8544 75.8048 51.9601 75.9054C52.0657 76.006 52.2016 76.0563 52.3827 76.0563C52.5487 76.0563 52.6694 76.0161 52.755 75.9305C52.8354 75.845 52.8807 75.7293 52.8807 75.5834" fill="#757475"/>
<path d="M55.5118 73.3649V75.4778C55.5118 75.7596 55.4263 75.9809 55.2653 76.1419C55.1043 76.3029 54.883 76.3784 54.5912 76.3784C54.2994 76.3784 54.073 76.2979 53.9171 76.1419C53.7611 75.9859 53.6806 75.7646 53.6806 75.4728V73.3599H54.0529V75.4577C54.0529 75.6589 54.0931 75.8048 54.1787 75.9055C54.2642 76.0061 54.4 76.0513 54.5912 76.0513C54.7823 76.0513 54.9182 76.001 55.0037 75.9055C55.0892 75.8048 55.1295 75.6589 55.1295 75.4577V73.3599H55.5068L55.5118 73.3649Z" fill="#757475"/>
<path d="M56.4677 75.1357V76.3381H56.0904V73.3649H56.9255C57.2173 73.3649 57.4386 73.4403 57.5896 73.5913C57.7405 73.7422 57.816 73.9635 57.816 74.2604C57.816 74.4465 57.7757 74.6075 57.6952 74.7433C57.6147 74.8791 57.499 74.9848 57.3531 75.0502L57.9317 76.3129V76.3381H57.5292L57.001 75.1357H56.4677ZM56.4677 74.8137H56.9205C57.0764 74.8137 57.2022 74.7634 57.2928 74.6628C57.3883 74.5622 57.4336 74.4264 57.4336 74.2604C57.4336 73.878 57.2626 73.6868 56.9154 73.6868H56.4677V74.8188V74.8137Z" fill="#757475"/>
<path d="M59.6976 75.5633H58.6915L58.46 76.3431H58.0777L59.0336 73.3699H59.3555L60.3164 76.3431H59.9341L59.6976 75.5633ZM58.7921 75.2413H59.602L59.1945 73.8881L58.7921 75.2413Z" fill="#757475"/>
<path d="M60.7189 73.3649H61.564C61.8357 73.3649 62.0369 73.4303 62.1778 73.5661C62.3187 73.7019 62.3841 73.8981 62.3841 74.1597C62.3841 74.3006 62.3489 74.4213 62.2784 74.527C62.208 74.6326 62.1174 74.7182 61.9967 74.7735C62.1325 74.8137 62.2432 74.8993 62.3187 75.025C62.3992 75.1508 62.4394 75.3017 62.4394 75.4828C62.4394 75.7495 62.3639 75.9608 62.2181 76.1117C62.0722 76.2626 61.8659 76.3431 61.5942 76.3431H60.7189V73.3649ZM61.5691 74.6326C61.6999 74.6326 61.8005 74.5874 61.881 74.5018C61.9615 74.4163 62.0017 74.2956 62.0017 74.1547C62.0017 73.9937 61.9665 73.873 61.8911 73.7975C61.8206 73.7221 61.7099 73.6868 61.559 73.6868H61.0861V74.6326H61.5691ZM61.0912 74.9496V76.0211H61.5993C61.7401 76.0211 61.8558 75.9759 61.9363 75.8803C62.0168 75.7897 62.0621 75.6539 62.0621 75.4879C62.0621 75.1307 61.9112 74.9496 61.6093 74.9496H61.0912Z" fill="#757475"/>
<path d="M64.3914 75.5633H63.3852L63.1538 76.3431H62.7715L63.7273 73.3699H64.0493L65.0102 76.3431H64.6279L64.3914 75.5633ZM63.4859 75.2413H64.2958L63.8883 73.8881L63.4859 75.2413Z" fill="#757475"/>
<path d="M65.996 74.859L66.6047 73.3649H67.0273L66.1821 75.2313V76.3381H65.8099V75.2313L64.9597 73.3649H65.3873L65.996 74.859Z" fill="#757475"/>
<path d="M68.612 75.5634H67.6059L67.3745 76.3431H66.9921L67.948 73.3699H68.27L69.2308 76.3431H68.8485L68.612 75.5634ZM67.7065 75.2414H68.5165L68.109 73.8881L67.7065 75.2414Z" fill="#757475"/>
<path d="M40.3994 68.8673C40.3994 68.6259 40.339 68.4448 40.2133 68.319C40.0875 68.1982 39.8661 68.0674 39.5391 67.9366C38.9455 67.7103 38.5179 67.4487 38.2563 67.1468C37.9947 66.845 37.8639 66.4878 37.8639 66.0752C37.8639 65.5772 38.04 65.1747 38.3972 64.8729C38.7493 64.571 39.2021 64.4201 39.7454 64.4201C40.1076 64.4201 40.4346 64.4956 40.7164 64.6515C41.0031 64.8024 41.2194 65.0188 41.3754 65.3005C41.5263 65.5772 41.6068 65.8941 41.6068 66.2513H40.4145C40.4145 65.9746 40.3541 65.7633 40.2384 65.6174C40.1227 65.4715 39.9517 65.4011 39.7303 65.4011C39.519 65.4011 39.358 65.4615 39.2423 65.5873C39.1266 65.708 39.0662 65.879 39.0662 66.0853C39.0662 66.2463 39.1317 66.3972 39.2625 66.528C39.3933 66.6588 39.6247 66.7946 39.9567 66.9355C40.5352 67.1468 40.9528 67.4034 41.2144 67.7052C41.476 68.0071 41.6068 68.3944 41.6068 68.8673C41.6068 69.3855 41.4408 69.788 41.1138 70.0747C40.7868 70.3665 40.339 70.5124 39.7756 70.5124C39.3933 70.5124 39.0461 70.4319 38.7292 70.276C38.4122 70.12 38.1708 69.8936 37.9897 69.6018C37.8136 69.3101 37.723 68.9629 37.723 68.5655H38.9254C38.9254 68.9076 38.9908 69.1541 39.1266 69.3101C39.2625 69.466 39.4788 69.5415 39.7756 69.5415C40.1931 69.5415 40.4044 69.3201 40.4044 68.8774" fill="#332C2B"/>
<path d="M46.2503 68.5956C46.2453 69.2094 46.0742 69.6823 45.7422 70.0093C45.4101 70.3363 44.9322 70.4973 44.3034 70.4973C43.6745 70.4973 43.1815 70.3313 42.8495 69.9992C42.5124 69.6672 42.3464 69.1893 42.3464 68.5604V64.4855H43.5538V68.5604C43.5538 68.8975 43.6091 69.139 43.7148 69.2798C43.8204 69.4257 44.0216 69.4962 44.3034 69.4962C44.5851 69.4962 44.7813 69.4257 44.8869 69.2798C44.9926 69.139 45.0479 68.9025 45.053 68.5755V64.4754H46.2503V68.5956Z" fill="#332C2B"/>
<path d="M48.9569 68.2535H48.3632V70.4168H47.1659V64.4905H49.0726C49.6712 64.4905 50.1341 64.6464 50.4611 64.9583C50.7881 65.2703 50.9541 65.7079 50.9541 66.2814C50.9541 67.0663 50.6673 67.6196 50.0938 67.9316L51.1302 70.3564V70.4117H49.8473L48.9569 68.2485V68.2535ZM48.3632 67.2574H49.0424C49.2839 67.2574 49.4599 67.1769 49.5807 67.021C49.7014 66.86 49.7618 66.6487 49.7618 66.3821C49.7618 65.7884 49.5304 65.4916 49.0675 65.4916H48.3683V67.2574H48.3632Z" fill="#332C2B"/>
<path d="M53.3637 67.1568L54.2592 64.4955H55.5571L53.9724 68.2687V70.4218H52.76V68.2687L51.1652 64.4955H52.4682L53.3637 67.1568Z" fill="#332C2B"/>
<path d="M56.6892 69.2043L56.3723 70.4168H55.1096L56.9609 64.4905H58.0576L59.919 70.4168H58.6412L58.3242 69.2043H56.6892ZM56.9458 68.2083H58.0526L57.4992 66.0953L56.9458 68.2083Z" fill="#332C2B"/>
<path d="M64.8894 68.8673C64.8894 68.6259 64.8291 68.4448 64.7033 68.319C64.5775 68.1982 64.3562 68.0674 64.0292 67.9366C63.4355 67.7103 63.0079 67.4487 62.7463 67.1468C62.4847 66.845 62.3539 66.4878 62.3539 66.0752C62.3539 65.5772 62.53 65.1747 62.8872 64.8729C63.2393 64.571 63.6921 64.4201 64.2354 64.4201C64.5976 64.4201 64.9246 64.4956 65.2064 64.6515C65.4931 64.8024 65.7095 65.0188 65.8654 65.3005C66.0163 65.5772 66.0968 65.8941 66.0968 66.2513H64.9045C64.9045 65.9746 64.8442 65.7633 64.7284 65.6174C64.6127 65.4715 64.4417 65.4011 64.2153 65.4011C64.004 65.4011 63.843 65.4615 63.7273 65.5873C63.6116 65.708 63.5512 65.879 63.5512 66.0853C63.5512 66.2463 63.6166 66.3972 63.7474 66.528C63.8782 66.6588 64.1097 66.7946 64.4417 66.9355C65.0202 67.1468 65.4378 67.4034 65.6994 67.7052C65.961 68.0071 66.0918 68.3944 66.0918 68.8673C66.0918 69.3855 65.9258 69.788 65.5988 70.0747C65.2718 70.3665 64.824 70.5124 64.2606 70.5124C63.8782 70.5124 63.5311 70.4319 63.2142 70.276C62.8972 70.12 62.6558 69.8936 62.4746 69.6018C62.2986 69.3101 62.208 68.9629 62.208 68.5655H63.4104C63.4104 68.9076 63.4758 69.1541 63.6116 69.3101C63.7424 69.466 63.9638 69.5415 64.2606 69.5415C64.6781 69.5415 64.8894 69.3201 64.8894 68.8774" fill="#332C2B"/>
<path d="M69.9503 67.8561H68.0839V69.4257H70.2924V70.4218H66.8865V64.4955H70.2823V65.4916H68.0839V66.8902H69.9503V67.8561Z" fill="#332C2B"/>
<path d="M72.5411 64.4955L73.663 68.7818L74.7748 64.4955H76.3394V70.4218H75.137V68.817L75.2477 66.3469L74.0654 70.4218H73.2504L72.0632 66.3469L72.1738 68.817V70.4218H70.9765V64.4955H72.5411Z" fill="#332C2B"/>
<path d="M77.3005 64.4955H79.1317C79.7505 64.4955 80.2183 64.6314 80.5403 64.9081C80.8623 65.1848 81.0233 65.5872 81.0233 66.1205C81.0233 66.4223 80.9579 66.6789 80.8221 66.8952C80.6913 67.1116 80.5051 67.2726 80.2787 67.3732C80.5453 67.4486 80.7466 67.5996 80.8925 67.831C81.0384 68.0624 81.1088 68.3441 81.1088 68.6812C81.1088 69.2547 80.9528 69.6924 80.6359 69.9842C80.319 70.2759 79.8612 70.4269 79.2625 70.4269H77.3005V64.4955ZM78.4978 66.9757H79.1216C79.5895 66.9757 79.8259 66.7343 79.8259 66.2463C79.8259 65.9796 79.7706 65.7834 79.665 65.6677C79.5543 65.552 79.3782 65.4916 79.1367 65.4916H78.5028V66.9757H78.4978ZM78.4978 67.8461V69.4308H79.2625C79.4788 69.4308 79.6398 69.3654 79.7505 69.2295C79.8612 69.0987 79.9165 68.9076 79.9165 68.6661C79.9165 68.1328 79.7253 67.8612 79.338 67.8461H78.4978Z" fill="#332C2B"/>
<path d="M84.8014 69.2043H83.1714L82.8545 70.4168H81.5867L83.4381 64.4905H84.5348L86.3962 70.4168H85.1184L84.8014 69.2043ZM83.428 68.2083H84.5348L83.9814 66.0953L83.428 68.2083Z" fill="#332C2B"/>
<path d="M86.9495 70.4218V64.4955H88.5141C89.2084 64.4955 89.7567 64.7169 90.1693 65.1546C90.5818 65.5923 90.7881 66.196 90.7981 66.9606V67.9215C90.7981 68.7013 90.5919 69.31 90.1793 69.7578C89.7668 70.2055 89.2034 70.4218 88.4789 70.4218H86.9445H86.9495ZM88.1469 65.4916V69.4257H88.5041C88.9015 69.4257 89.1832 69.3201 89.3442 69.1088C89.5052 68.8975 89.5907 68.5353 89.6008 68.0221V66.9908C89.6008 66.4374 89.5253 66.0501 89.3694 65.8337C89.2134 65.6174 88.9518 65.5017 88.5795 65.4866H88.1418L88.1469 65.4916Z" fill="#332C2B"/>
<path d="M94.4051 69.2043H92.7751L92.4581 70.4168H91.1904L93.0417 64.4905H94.1384L95.9998 70.4168H94.722L94.4051 69.2043ZM93.0316 68.2083H94.1384L93.585 66.0953L93.0316 68.2083Z" fill="#332C2B"/>
<path d="M17.1621 68.2938V70.4218H16V64.4955H18.0576C18.6462 64.4955 19.1141 64.6716 19.4562 65.0187C19.7983 65.3709 19.9693 65.8287 19.9693 66.3922C19.9693 66.9556 19.7983 67.4184 19.4562 67.7656C19.1141 68.1127 18.6462 68.2888 18.0576 68.2888H17.1571L17.1621 68.2938ZM18.0626 67.3681C18.3091 67.3681 18.4953 67.2776 18.6261 67.0965C18.7569 66.9154 18.8223 66.6839 18.8223 66.4022C18.8223 66.1205 18.7569 65.884 18.6261 65.6979C18.4953 65.5118 18.3091 65.4162 18.0576 65.4162H17.1571V67.3681H18.0626Z" fill="#332C2B"/>
<path d="M20.7139 70.4218V64.4955H22.5048C23.1136 64.4955 23.6116 64.727 24.0091 65.1848C24.4065 65.6426 24.6027 66.2362 24.6027 66.9606V67.9567C24.6027 68.6812 24.4065 69.2748 24.0091 69.7326C23.6116 70.1904 23.1085 70.4218 22.5048 70.4218H20.7139ZM21.871 65.4212V69.4962H22.4344C22.7564 69.4962 23.0079 69.3553 23.179 69.0736C23.355 68.7919 23.4406 68.4196 23.4406 67.9567V66.9506C23.4406 66.4877 23.355 66.1205 23.179 65.8388C23.0029 65.557 22.7564 65.4212 22.4344 65.4212H21.871Z" fill="#332C2B"/>
<path d="M27.9784 69.1541H26.4138L26.0968 70.4218H24.9297L26.5999 64.4955H27.8023L29.4675 70.4218H28.3003L27.9784 69.1541ZM26.6502 68.2284H27.7419L27.2086 66.1306H27.1835L26.6502 68.2284Z" fill="#332C2B"/>
<path d="M31.4043 64.4955L32.4709 68.8422H32.496L33.5676 64.4955H35.0768V70.4218H33.9248V68.6963L34.0254 66.3972L34.0002 66.3922L32.8683 70.4218H32.0986L30.9817 66.4223L30.9566 66.4274L31.0572 68.6963V70.4218H29.9052V64.4955H31.4043Z" fill="#332C2B"/>
</g>
<rect x="1" y="1" width="110" height="110" rx="9" stroke="black" stroke-opacity="0.1" stroke-width="2"/>
<defs>
<linearGradient id="paint0_linear_768_303" x1="55.9999" y1="55.6892" x2="55.9999" y2="14.3108" gradientUnits="userSpaceOnUse">
<stop stop-color="#4DBDED"/>
<stop offset="0.06" stop-color="#4DBDED"/>
<stop offset="0.5" stop-color="#FDFDFD"/>
<stop offset="1" stop-color="#FDFDFD"/>
</linearGradient>
<linearGradient id="paint1_linear_768_303" x1="56.0747" y1="71.6797" x2="56.0747" y2="-9.40973" gradientUnits="userSpaceOnUse">
<stop stop-color="#2F4696"/>
<stop offset="0.52" stop-color="#4DBDED"/>
<stop offset="1" stop-color="#4DBDED"/>
</linearGradient>
<linearGradient id="paint2_linear_768_303" x1="16" y1="55.7115" x2="95.9998" y2="55.7115" gradientUnits="userSpaceOnUse">
<stop stop-color="#4DBDED"/>
<stop offset="1" stop-color="#2F4696"/>
</linearGradient>
<linearGradient id="paint3_linear_768_303" x1="16" y1="55.7121" x2="95.9998" y2="55.7121" gradientUnits="userSpaceOnUse">
<stop stop-color="#2F4696"/>
<stop offset="1" stop-color="#4DBDED"/>
</linearGradient>
<clipPath id="clip0_768_303">
<rect x="2" y="2" width="108" height="108" rx="8" fill="white"/>
</clipPath>
</defs>
</svg>
