<svg width="112" height="112" viewBox="0 0 112 112" fill="none" xmlns="http://www.w3.org/2000/svg">
<g clip-path="url(#clip0_768_300)">
<rect x="2" y="2" width="108" height="108" rx="8" fill="white"/>
<path fill-rule="evenodd" clip-rule="evenodd" d="M57.1248 15.9999C58.7915 18.1874 58.7186 20.1979 57.4477 22.0729C60.6561 28.5416 53.156 29.1249 47.1665 32.4583C44.8644 33.7395 41.9581 35.9687 41.3539 38.6354C40.7706 30.7291 44.1352 27.9895 49.1352 25.9479C51.6873 24.9062 54.5519 23.552 57.4477 22.0729C64.354 21.2291 67.3332 25.0104 69.5102 29.7395C70.1561 21.6666 66.6665 16.6249 57.1352 15.9999H57.1248ZM53.9998 57.6458C44.4685 57.0312 40.9685 51.9791 41.6248 43.9062C43.7914 48.6354 46.781 52.4166 53.6873 51.5729C56.5831 50.1041 59.4477 48.7499 61.9998 47.6979C66.9998 45.6562 70.3644 42.9166 69.7811 35.0104C69.1769 37.677 66.2811 39.9062 63.9686 41.1874C57.979 44.5208 50.479 45.1041 53.6873 51.5729C52.4165 53.4479 52.3435 55.4479 54.0102 57.6458H53.9998ZM53.6665 46.552C47.479 39.1874 65.9165 37.1249 67.9477 32.2916C64.9269 28.4583 61.2706 27.0624 57.1769 27.3229C63.479 34.6874 45.0414 36.7395 43.0102 41.5729C45.5519 44.4374 48.3435 46.5312 53.6665 46.552Z" fill="url(#paint0_linear_768_300)"/>
<path fill-rule="evenodd" clip-rule="evenodd" d="M55.1352 61.6666C57.4269 61.6666 59.4373 62.2916 60.7706 63.4687C65.2394 60.2291 69.1457 62.4374 70.3957 64.2083C71.9061 63.1353 74.104 62.1041 75.9582 62.1041C78.5832 62.1041 80.2082 63.9166 80.2082 66.5937V78.7916C80.2082 79.2187 80.2082 79.8333 81.1144 80.1874C78.5936 80.0937 76.7603 79.2812 75.8957 77.8124V66.7604C75.2498 64.2708 71.6144 66.1979 70.6248 67.7083V78.7916C70.6248 79.2187 70.6248 79.8333 71.5311 80.1874C69.0102 80.0937 67.1769 79.2812 66.3123 77.8124V66.4895C66.3227 65.1145 64.2706 64.0833 62.1144 65.0624C62.0727 65.0833 62.0206 65.1041 61.979 65.1145C62.2602 65.7395 62.4165 66.4479 62.4165 67.2291C62.4165 72.0104 59.4165 73.0104 55.3227 73.0104C54.854 73.302 52.7394 74.2708 53.7185 75.2604C54.4477 75.9895 58.6977 75.1041 60.9581 76.1145C62.8956 76.9791 64.0206 78.7603 63.9894 80.5937C63.9373 83.1874 61.8956 85.8437 56.729 86.2708C50.7081 86.7604 44.4789 83.9166 48.906 79.6666C50.5935 84.4166 59.4165 84.2916 59.7186 80.5937C59.8436 79.1666 58.0727 78.4374 55.7498 78.2604C53.354 78.0833 49.9165 78.7083 48.8748 76.9583C48.156 75.7395 48.229 74.6458 49.3227 73.7604C49.9685 73.2291 50.906 72.7187 51.7602 72.4479C49.3227 71.6041 47.5935 69.8333 47.6769 67.2916C47.781 64.1562 50.9998 61.677 55.0935 61.677L55.1352 61.6666ZM30.9581 83.3645C31.8227 84.8333 33.2914 85.5624 35.2706 85.6979V77.7708C41.3539 82.6145 46.3435 77.4479 46.3331 73.4791C46.3331 71.7083 46.3331 69.9479 46.3331 68.177C46.3331 64.2083 41.3539 59.0416 35.2706 63.8854V63.5416C34.1352 62.0208 32.3956 61.4166 29.9998 61.802C30.6248 62.1562 30.9789 62.7395 30.9581 63.6458V83.3645ZM35.2706 66.3645C39.2289 63.6874 41.4998 65.927 41.4998 68.4062V73.2499C41.4998 75.7395 39.2289 77.9687 35.2706 75.2916V66.3541V66.3645ZM55.5102 64.3541C53.8019 64.3541 52.4269 65.7395 52.4269 67.4374C52.4269 69.1354 53.8123 70.5208 55.5102 70.5208C57.2081 70.5208 58.5936 69.1354 58.5936 67.4374C58.5936 65.7395 57.2081 64.3541 55.5102 64.3541Z" fill="#5C7795"/>
<path fill-rule="evenodd" clip-rule="evenodd" d="M33.9789 92.8229L34.6873 92.8958C34.5831 93.2499 34.3539 93.5833 33.9893 93.8958C33.6248 94.2083 33.1873 94.3645 32.6873 94.3645C32.3748 94.3645 32.0831 94.2916 31.8227 94.1458C31.5623 93.9999 31.3539 93.7916 31.2185 93.5104C31.0831 93.2291 31.0102 92.9166 31.0102 92.5624C31.0102 92.0937 31.1143 91.6458 31.3331 91.2083C31.5518 90.7708 31.8227 90.4479 32.1664 90.2291C32.5102 90.0208 32.8748 89.9062 33.281 89.9062C33.7914 89.9062 34.1977 90.0624 34.4998 90.3749C34.8018 90.6874 34.9581 91.1249 34.9581 91.6666C34.9581 91.8749 34.9373 92.0937 34.906 92.3124H31.7602C31.7602 92.3958 31.7498 92.4687 31.7498 92.5416C31.7498 92.9374 31.8435 93.2395 32.0206 93.4583C32.2081 93.6666 32.4268 93.7708 32.6873 93.7708C32.9373 93.7708 33.1768 93.6874 33.4164 93.5312C33.656 93.3645 33.8435 93.1354 33.9789 92.8229ZM31.8748 91.7708H34.2602C34.2602 91.6979 34.2602 91.6458 34.2602 91.6145C34.2602 91.2499 34.1664 90.9687 33.9893 90.7812C33.8123 90.5833 33.5727 90.4895 33.2914 90.4895C32.9789 90.4895 32.6977 90.5937 32.4477 90.8124C32.1873 91.0208 31.9998 91.3437 31.8748 91.7812V91.7708ZM35.4268 94.2708L36.3227 90.0104H36.9789L36.8227 90.7499C37.1039 90.4583 37.3748 90.2499 37.6248 90.1145C37.8748 89.9791 38.1248 89.9166 38.3852 89.9166C38.7289 89.9166 38.9998 90.0104 39.1977 90.1979C39.3956 90.3854 39.4894 90.6353 39.4894 90.9478C39.4894 91.1041 39.4581 91.3541 39.3852 91.6979L38.8435 94.2708H38.1144L38.6769 91.5729C38.7289 91.3124 38.7602 91.1145 38.7602 90.9895C38.7602 90.8437 38.7081 90.7291 38.6144 90.6458C38.5206 90.552 38.3748 90.5104 38.1873 90.5104C37.8123 90.5104 37.4789 90.6458 37.1977 90.9062C36.906 91.177 36.6977 91.6354 36.5623 92.2812L36.1456 94.2603H35.4164L35.4268 94.2708ZM43.1144 92.8229L43.8227 92.8958C43.7185 93.2499 43.4894 93.5833 43.1248 93.8958C42.7602 94.2083 42.3227 94.3645 41.8227 94.3645C41.5102 94.3645 41.2185 94.2916 40.9581 94.1458C40.6977 93.9999 40.4998 93.7916 40.3539 93.5104C40.2185 93.2291 40.1456 92.9166 40.1456 92.5624C40.1456 92.0937 40.2498 91.6458 40.4685 91.2083C40.6873 90.7708 40.9581 90.4479 41.3019 90.2291C41.6456 90.0208 42.0102 89.9062 42.4164 89.9062C42.9269 89.9062 43.3331 90.0624 43.6352 90.3749C43.9373 90.6874 44.0935 91.1249 44.0935 91.6666C44.0935 91.8749 44.0727 92.0937 44.0414 92.3124H40.906C40.906 92.3958 40.8956 92.4687 40.8956 92.5416C40.8956 92.9374 40.9894 93.2395 41.1664 93.4583C41.3539 93.6666 41.5727 93.7708 41.8331 93.7708C42.0831 93.7708 42.3227 93.6874 42.5623 93.5312C42.8019 93.3645 42.9894 93.1354 43.1248 92.8229H43.1144ZM41.0102 91.7708H43.3956C43.3956 91.6979 43.3956 91.6458 43.3956 91.6145C43.3956 91.2499 43.3019 90.9687 43.1248 90.7812C42.9477 90.5833 42.7081 90.4895 42.4269 90.4895C42.1144 90.4895 41.8331 90.5937 41.5831 90.8124C41.3227 91.0208 41.1352 91.3437 41.0102 91.7812V91.7708ZM44.5623 94.2708L45.4477 90.0104H46.0831L45.906 90.8749C46.1248 90.5416 46.3331 90.302 46.5519 90.1458C46.7602 89.9895 46.979 89.9062 47.1977 89.9062C47.3435 89.9062 47.5206 89.9583 47.729 90.0624L47.4269 90.7395C47.3019 90.6458 47.1665 90.6041 47.0102 90.6041C46.7602 90.6041 46.4998 90.7499 46.2289 91.0312C45.9581 91.3124 45.7498 91.8229 45.6039 92.5624L45.2394 94.2708H44.5519H44.5623ZM47.2602 94.6562C47.2498 94.7291 47.2394 94.802 47.2394 94.8749C47.2394 95.0937 47.3019 95.2916 47.4269 95.4583C47.5519 95.6249 47.729 95.7604 47.979 95.8437C48.229 95.9374 48.5206 95.9791 48.8644 95.9791C49.2081 95.9791 49.531 95.9062 49.8019 95.7708C50.0727 95.6354 50.281 95.4374 50.4373 95.1874C50.5935 94.9374 50.7081 94.5833 50.8019 94.1354L51.656 90.0312H50.9894L50.8435 90.7291C50.5415 90.1979 50.1144 89.9374 49.5519 89.9374C49.2185 89.9374 48.8956 90.0416 48.5831 90.2395C48.2706 90.4479 47.9998 90.7499 47.7706 91.1458C47.5415 91.5416 47.4269 91.9895 47.4269 92.4687C47.4269 93.052 47.5727 93.4999 47.8644 93.8124C48.156 94.1249 48.5102 94.2916 48.9477 94.2916C49.3852 94.2916 49.7706 94.1041 50.1456 93.7187L50.0727 94.0624C49.9685 94.5729 49.8435 94.9062 49.7185 95.052C49.5206 95.2812 49.2081 95.3958 48.7706 95.3958C48.5623 95.3958 48.3956 95.3645 48.2602 95.302C48.1665 95.2604 48.0935 95.1874 48.0415 95.1145C47.9998 95.0312 47.979 94.9062 47.979 94.7395L47.2498 94.6666L47.2602 94.6562ZM48.1665 92.3854C48.1665 92.2499 48.2081 92.0416 48.281 91.7708C48.354 91.4999 48.4581 91.2708 48.604 91.0729C48.7498 90.8749 48.8956 90.7395 49.0623 90.6458C49.229 90.552 49.3956 90.4999 49.5727 90.4999C49.854 90.4999 50.104 90.6041 50.2915 90.8124C50.4894 91.0208 50.5831 91.302 50.5831 91.6458C50.5831 91.9583 50.5102 92.302 50.3644 92.6458C50.2185 92.9999 50.031 93.2499 49.7915 93.4166C49.5623 93.5833 49.3227 93.6666 49.0831 93.6666C48.906 93.6666 48.7394 93.6145 48.5831 93.4999C48.4373 93.3958 48.3227 93.2395 48.2394 93.0312C48.1873 92.8853 48.156 92.6666 48.156 92.3749L48.1665 92.3854ZM51.5935 95.9166L51.6352 95.2395C51.781 95.2812 51.9269 95.302 52.0727 95.302C52.2185 95.302 52.3331 95.2708 52.4269 95.1979C52.5415 95.1041 52.6769 94.9479 52.8123 94.6979L53.0415 94.2812L52.3331 90.0104H53.0415L53.3644 92.1666C53.4269 92.5937 53.479 93.0208 53.531 93.4374L55.4373 90.0104H56.1977L53.4894 94.8333C53.229 95.302 52.9894 95.6145 52.7915 95.7708C52.5935 95.927 52.354 95.9999 52.0935 95.9999C51.9269 95.9999 51.7602 95.9687 51.604 95.9166H51.5935ZM58.354 94.2708L59.1248 90.5728H58.479L58.5936 90.0104H59.2394L59.3644 89.4062C59.4269 89.1041 59.4894 88.8853 59.5623 88.7499C59.6352 88.6145 59.7394 88.5103 59.8956 88.4166C60.0519 88.3333 60.2602 88.2916 60.5206 88.2916C60.7081 88.2916 60.9686 88.3333 61.3227 88.4062L61.1873 89.0416C60.9373 88.9791 60.7394 88.9479 60.5727 88.9479C60.4269 88.9479 60.3227 88.9791 60.2498 89.052C60.1769 89.1249 60.1144 89.2916 60.0623 89.552L59.9686 90.0104H60.7811L60.6665 90.5728H59.854L59.0831 94.2708H58.354ZM60.6665 92.6562C60.6665 92.9999 60.7394 93.2916 60.8852 93.552C61.0311 93.8124 61.2394 94.0103 61.5102 94.1562C61.7811 94.302 62.0831 94.3645 62.4165 94.3645C62.8227 94.3645 63.2081 94.2499 63.5727 94.0312C63.9373 93.802 64.2186 93.4791 64.4165 93.0624C64.6144 92.6458 64.7186 92.1874 64.7186 91.6979C64.7186 91.1562 64.5623 90.7187 64.2498 90.3958C63.9373 90.0729 63.5206 89.9166 63.0102 89.9166C62.354 89.9166 61.8227 90.1458 61.4269 90.5937C60.9373 91.1354 60.6977 91.8228 60.6977 92.6562H60.6665ZM61.3956 92.5833C61.3956 92.3645 61.4269 92.1145 61.4998 91.8437C61.5727 91.5624 61.6769 91.3229 61.8331 91.1145C61.979 90.9062 62.1561 90.7499 62.3436 90.6354C62.5311 90.5312 62.7394 90.4687 62.9686 90.4687C63.2602 90.4687 63.5102 90.5729 63.6977 90.7812C63.8956 90.9895 63.9894 91.2916 63.9894 91.677C63.9894 91.9166 63.9477 92.177 63.8644 92.4374C63.8123 92.6249 63.7394 92.802 63.6456 92.9687C63.5519 93.1353 63.4373 93.2812 63.3123 93.4062C63.1769 93.5312 63.0415 93.6249 62.8852 93.6874C62.729 93.7499 62.5831 93.7812 62.4269 93.7812C62.1352 93.7812 61.8852 93.677 61.6977 93.4687C61.5102 93.2604 61.4061 92.9583 61.4061 92.5624L61.3956 92.5833ZM65.104 94.2708L65.9894 90.0104H66.6248L66.4477 90.8749C66.6665 90.5416 66.8852 90.302 67.0936 90.1458C67.3019 89.9895 67.5206 89.9062 67.7394 89.9062C67.8852 89.9062 68.0623 89.9583 68.2707 90.0624L67.979 90.7395C67.854 90.6458 67.7186 90.6041 67.5623 90.6041C67.3123 90.6041 67.0519 90.7499 66.7811 91.0312C66.5102 91.3124 66.3019 91.8229 66.1561 92.5624L65.7915 94.2708H65.104ZM70.0623 94.2708L71.2915 88.3958H72.0207L70.7915 94.2708H70.0623ZM72.9686 89.2187L73.1457 88.3958H73.8644L73.6977 89.2187H72.9686ZM71.9061 94.2708H72.6352L73.5207 90.0104H72.7915L71.9061 94.2708ZM73.854 94.2708H74.5832L75.354 90.5728H76.1665L76.2811 90.0104H75.4686L75.5623 89.552C75.6144 89.2916 75.6769 89.1249 75.7498 89.052C75.8227 88.9791 75.9269 88.9479 76.0727 88.9479C76.2394 88.9479 76.4478 88.9791 76.6873 89.0416L76.8228 88.4062C76.4686 88.3333 76.2082 88.2916 76.0207 88.2916C75.7602 88.2916 75.5519 88.3333 75.3957 88.4166C75.2394 88.4999 75.1352 88.6145 75.0623 88.7499C74.9894 88.8853 74.9269 89.1041 74.8644 89.4062L74.7394 90.0104H74.0936L73.979 90.5728H74.6248L73.854 94.2708ZM79.1561 92.8229L79.8644 92.8958C79.7603 93.2499 79.5311 93.5833 79.1665 93.8958C78.8019 94.2083 78.3644 94.3645 77.8644 94.3645C77.5519 94.3645 77.2603 94.2916 76.9998 94.1458C76.7394 93.9999 76.5311 93.7916 76.3957 93.5104C76.2603 93.2291 76.1873 92.9166 76.1873 92.5624C76.1873 92.0937 76.2915 91.6458 76.5103 91.2083C76.729 90.7708 76.9998 90.4479 77.3436 90.2291C77.6873 90.0208 78.0519 89.9062 78.4582 89.9062C78.9686 89.9062 79.3748 90.0624 79.6769 90.3749C79.979 90.6874 80.1353 91.1249 80.1353 91.6666C80.1353 91.8749 80.1144 92.0937 80.0832 92.3124H76.9478C76.9478 92.3958 76.9373 92.4687 76.9373 92.5416C76.9373 92.9374 77.0311 93.2395 77.2082 93.4583C77.3957 93.6666 77.6144 93.7708 77.8748 93.7708C78.1248 93.7708 78.3644 93.6874 78.604 93.5312C78.8436 93.3749 79.0311 93.1354 79.1665 92.8229H79.1561ZM77.0519 91.7708H79.4373C79.4373 91.6979 79.4373 91.6458 79.4373 91.6145C79.4373 91.2499 79.3436 90.9687 79.1665 90.7812C78.9894 90.5833 78.7498 90.4895 78.4686 90.4895C78.1561 90.4895 77.8748 90.5937 77.6248 90.8124C77.3644 91.0208 77.1769 91.3437 77.0519 91.7812V91.7708Z" fill="#231916"/>
</g>
<rect x="1" y="1" width="110" height="110" rx="9" stroke="black" stroke-opacity="0.1" stroke-width="2"/>
<defs>
<linearGradient id="paint0_linear_768_300" x1="53.2918" y1="82.9334" x2="60.4346" y2="8.80633" gradientUnits="userSpaceOnUse">
<stop stop-color="#008DD7"/>
<stop offset="1" stop-color="white"/>
</linearGradient>
<clipPath id="clip0_768_300">
<rect x="2" y="2" width="108" height="108" rx="8" fill="white"/>
</clipPath>
</defs>
</svg>
