<svg width="112" height="112" viewBox="0 0 112 112" fill="none" xmlns="http://www.w3.org/2000/svg">
<g clip-path="url(#clip0_768_299)">
<rect x="2" y="2" width="108" height="108" rx="8" fill="white"/>
<path d="M96 16H16V96.0001H96V16Z" fill="#F7E82E"/>
<path fill-rule="evenodd" clip-rule="evenodd" d="M32.1279 44.9913C34.2726 43.8077 37.2763 42.8746 39.6818 42.8746C44.2755 42.8746 45.3389 44.9913 47.5962 44.9913C49.8534 44.9913 52.172 42.8746 56.3464 42.8746C60.1451 42.8746 62.1518 44.9913 65.5262 44.9913C68.9082 44.9913 68.2052 42.8746 72.9651 42.8746C77.7019 42.8746 79.8697 44.9913 79.8697 44.9913V50.3877C79.8697 50.3877 77.3415 48.1355 73.3664 48.0819C69.422 48.0358 69.5268 50.3877 65.5364 50.3877C61.5434 50.3877 61.2239 48.0819 56.5356 48.0819C51.8499 48.0819 51.1418 50.3877 47.522 50.3877C43.8921 50.3877 43.2121 47.9873 39.4313 48.0358C35.6505 48.0819 32.1279 50.3877 32.1279 50.3877V44.9913Z" fill="#28A8E0"/>
<path fill-rule="evenodd" clip-rule="evenodd" d="M32.1279 57.576C34.2726 56.3899 37.2763 55.4619 39.6818 55.4619C44.2755 55.4619 45.3389 57.576 47.5962 57.576C49.8534 57.576 52.172 55.4619 56.3464 55.4619C60.1451 55.4619 62.1518 57.576 65.5262 57.576C68.9082 57.576 68.2052 55.4619 72.9651 55.4619C77.7019 55.4619 79.8697 57.576 79.8697 57.576V62.975C79.8697 62.975 77.3415 60.7075 73.3664 60.6666C69.422 60.6283 69.5268 62.975 65.5364 62.975C61.5434 62.975 61.2239 60.6666 56.5356 60.6666C51.8499 60.6666 51.1418 62.975 47.522 62.975C43.8921 62.975 43.2121 60.5797 39.4313 60.6283C35.6505 60.6666 32.1279 62.975 32.1279 62.975V57.576Z" fill="#28A8E0"/>
<path fill-rule="evenodd" clip-rule="evenodd" d="M32.1279 70.1506C34.2726 68.9593 37.2763 68.0339 39.6818 68.0339C44.2755 68.0339 45.3389 70.1506 47.5962 70.1506C49.8534 70.1506 52.172 68.0339 56.3464 68.0339C60.1451 68.0339 62.1518 70.1506 65.5262 70.1506C68.9082 70.1506 68.2052 68.0339 72.9651 68.0339C77.7019 68.0339 79.8697 70.1506 79.8697 70.1506V75.5648C79.8697 75.5648 77.3415 73.2948 73.3664 73.2463C69.422 73.2054 69.5268 75.5648 65.5364 75.5648C61.5434 75.5648 61.2239 73.2463 56.5356 73.2463C51.8499 73.2463 51.1418 75.5648 47.522 75.5648C43.8921 75.5648 43.2121 73.1619 39.4313 73.2054C35.6505 73.2463 32.1279 75.5648 32.1279 75.5648V70.1506Z" fill="#28A8E0"/>
<path fill-rule="evenodd" clip-rule="evenodd" d="M53.7364 87.6051L59.7923 57.1772L38.2757 66.6407L50.8503 26.688H61.0934L49.1554 54.3857L70.401 45.7914L53.7364 87.6051Z" fill="#E62A2B"/>
</g>
<rect x="1" y="1" width="110" height="110" rx="9" stroke="black" stroke-opacity="0.1" stroke-width="2"/>
<defs>
<clipPath id="clip0_768_299">
<rect x="2" y="2" width="108" height="108" rx="8" fill="white"/>
</clipPath>
</defs>
</svg>
