<svg width="112" height="112" viewBox="0 0 112 112" fill="none" xmlns="http://www.w3.org/2000/svg">
<g clip-path="url(#clip0_782_915)">
<rect x="2" y="2" width="108" height="108" rx="8" fill="white"/>
<g clip-path="url(#clip1_782_915)">
<path fill-rule="evenodd" clip-rule="evenodd" d="M24.3496 47.9471C28.2612 53.6901 31.6733 59.3236 35.2203 65.3216L37.7978 69.8296C37.9032 70.0088 38.5375 71.2333 38.6914 71.3681C38.3479 69.9055 37.6166 67.505 37.1803 65.9202C36.9316 65.0139 36.6808 64.114 36.4342 63.2309C36.3162 62.8094 35.665 60.782 35.7767 60.5143C35.6102 60.5207 35.6123 60.409 35.5217 60.2488C35.176 59.646 34.3815 58.4995 34.1539 58.0169L33.7682 57.3699C33.5659 57.1676 33.1317 56.3709 32.9484 56.0822C32.6849 55.667 32.413 55.1443 32.1349 54.7839C31.9873 54.4868 31.7618 54.1685 31.5742 53.8629L29.9093 51.1337L29.9177 51.1295L24.3517 47.945L24.3496 47.9471Z" fill="#4FB234"/>
<path fill-rule="evenodd" clip-rule="evenodd" d="M24.3187 47.9028L24.3482 47.9471L29.9142 51.1337H29.9205L33.1809 49.669C33.7499 49.4392 34.3189 49.2411 34.8943 49.024C35.4212 48.828 36.1356 48.5604 36.6815 48.4318C36.8796 48.3159 39.0419 47.73 39.3496 47.6984L39.533 47.6457C39.7269 47.5382 41.8787 47.142 42.1948 47.1462C42.2875 46.9839 43.7164 45.6962 43.9736 45.4581C44.6585 44.8195 49.1707 40.7499 49.3836 40.4611H48.8588V40.5243H48.9157C43.3729 41.3421 33.752 43.9069 28.3293 46.143L25.4799 47.338C25.2376 47.4518 25.0268 47.5361 24.7971 47.6373C24.6917 47.6837 24.58 47.7469 24.4578 47.7911L24.3145 47.9007L24.3187 47.9028Z" fill="#00933D"/>
<path fill-rule="evenodd" clip-rule="evenodd" d="M42.197 47.1462C41.9652 47.6373 41.7692 48.4677 41.5774 49.0114C40.551 51.9261 39.2675 54.8303 37.6932 57.4753C37.3686 58.019 37.0841 58.5122 36.7617 59.0032L35.7774 60.5143C35.6657 60.782 36.3191 62.8094 36.435 63.231C36.6816 64.1161 36.9324 65.016 37.1811 65.9202C37.6152 67.505 38.3486 69.9034 38.6922 71.3682L38.7175 71.4946C38.9577 71.3281 41.5774 65.1762 41.942 64.329C43.0168 61.8358 43.9294 59.3151 44.8504 56.7608C46.9116 51.0389 48.0897 46.3685 49.4511 40.459H49.3858C49.1729 40.7456 44.6607 44.8153 43.9758 45.456C43.7186 45.6962 42.2897 46.9818 42.197 47.1441V47.1462Z" fill="#BBD054"/>
<path fill-rule="evenodd" clip-rule="evenodd" d="M20.464 48.0272L24.1206 53.6943C26.6475 57.7809 28.7024 61.1382 31.0713 65.3912C32.1819 67.3849 33.2336 69.4482 34.3105 71.4883L38.7174 71.4967L38.6921 71.3703C38.5383 71.2333 37.9039 70.0109 37.7985 69.8318L35.221 65.3237C31.6635 59.3109 28.2429 53.6627 24.3187 47.9049H24.0553L20.4619 48.0293L20.464 48.0272Z" fill="#1C5F32"/>
<path fill-rule="evenodd" clip-rule="evenodd" d="M16 48.2653C16.0864 48.5203 16.2908 48.7501 16.4384 48.9756C20.9422 55.8019 25.054 62.664 28.8033 69.9687C29.0414 70.4324 29.3428 71.1089 29.6084 71.5072L33.4862 71.541C33.4167 71.3007 33.2144 70.9698 33.0963 70.7464L31.874 68.4766C30.346 65.6588 28.4176 62.2931 26.7801 59.5954C25.6272 57.6944 24.4533 55.7344 23.2499 53.8292C23.0581 53.5257 19.6819 48.2674 19.6376 48.0841C19.3615 48.1599 16.3815 48.3012 16.0021 48.2653H16Z" fill="#1C5F32"/>
<path fill-rule="evenodd" clip-rule="evenodd" d="M39.5348 47.6457C39.7224 47.6183 39.5707 47.6268 39.6255 47.6921C39.2208 49.3866 38.0975 51.7934 37.3072 53.2539C36.5864 54.5837 35.9373 55.7513 35.0753 56.9252L34.4262 57.7514C34.2997 57.8989 34.3208 57.9495 34.1543 58.0169C34.3819 58.4995 35.1765 59.646 35.5221 60.2488C35.6127 60.4069 35.6106 60.5207 35.7771 60.5144L36.7613 59.0032C37.0838 58.5101 37.3683 58.019 37.6929 57.4753C39.2672 54.8303 40.5507 51.9261 41.577 49.0114C41.7688 48.4677 41.9669 47.6373 42.1967 47.1462C41.8805 47.142 39.7287 47.5404 39.5348 47.6457Z" fill="#1C5F32"/>
<path fill-rule="evenodd" clip-rule="evenodd" d="M36.683 48.4318L36.7504 48.4803C36.057 49.9134 35.8632 50.5183 34.7714 51.9493C34.5333 52.2612 32.6492 54.6259 32.1328 54.7861C32.411 55.1465 32.685 55.667 32.9463 56.0843C33.1297 56.373 33.5638 57.1697 33.7662 57.372C34.6829 56.3962 34.6281 56.548 35.5007 55.334C35.998 54.6407 36.5312 53.7618 36.9549 52.9504C37.6103 51.6901 38.9465 48.984 39.3511 47.7005C39.0434 47.7321 36.8811 48.318 36.683 48.434V48.4318Z" fill="#1C5F32"/>
<path fill-rule="evenodd" clip-rule="evenodd" d="M20.4639 48.0272L24.0572 47.9007H24.3207L24.464 47.7911L24.8033 47.6373C25.033 47.5361 25.2417 47.4497 25.4861 47.338L28.3355 46.1431C33.7561 43.907 43.377 41.3421 48.9198 40.5265H48.8629C48.1969 40.3621 45.5646 40.7983 44.8186 40.9332C38.6266 42.0565 32.9784 43.6625 27.0478 45.6014C26.4746 45.789 20.9254 47.7321 20.466 48.0272H20.4639Z" fill="#BBD054"/>
<path fill-rule="evenodd" clip-rule="evenodd" d="M16 48.2653C16.3815 48.3012 19.3615 48.1599 19.6355 48.0841C23.3637 46.6193 27.033 45.2684 31.0057 44.1029C33.0268 43.5107 34.9763 42.9902 37.069 42.4822C38.1017 42.2314 39.1344 41.9975 40.1945 41.7762C40.7615 41.6582 43.1514 41.2388 43.4191 41.1039C42.3885 41.1714 37.0543 42.1809 36.0869 42.3853C33.6717 42.8953 31.3913 43.4138 29.0435 44.0144C26.0234 44.7795 18.9695 46.9439 16 48.2653Z" fill="#BBD054"/>
<path fill-rule="evenodd" clip-rule="evenodd" d="M53.9736 51.0599H52.2307V56.6786H53.9736C54.9262 56.6786 55.6744 56.4278 56.2203 55.9283C56.764 55.4267 57.0359 54.7439 57.0359 53.8756C57.0359 53.0073 56.764 52.316 56.2203 51.8144C55.6765 51.3107 54.9283 51.0599 53.9736 51.0599ZM53.9736 50.0083C54.5448 50.0083 55.0337 50.0609 55.4447 50.1684C55.8535 50.2759 56.2308 50.4445 56.5722 50.6742C57.097 51.0283 57.4995 51.4814 57.784 52.0336C58.0686 52.5879 58.2119 53.197 58.2119 53.8629C58.2119 54.5289 58.0686 55.1422 57.7819 55.7007C57.4932 56.2571 57.0928 56.7102 56.5722 57.0601C56.2392 57.2919 55.8641 57.4605 55.4468 57.5659C55.0295 57.6734 54.5405 57.7261 53.9736 57.7261H51.1348V50.0062H53.9736V50.0083ZM60.2709 53.8756C60.2709 54.2697 60.3447 54.6469 60.4922 55.0031C60.6398 55.3593 60.8526 55.6754 61.1266 55.9536C61.3964 56.2297 61.7104 56.4426 62.075 56.5901C62.4375 56.7397 62.8147 56.8135 63.2088 56.8135C63.603 56.8135 63.9928 56.7397 64.349 56.5943C64.7031 56.4489 65.0213 56.2339 65.2995 55.9515C65.5756 55.6754 65.7885 55.3572 65.936 55.001C66.0856 54.6448 66.1594 54.2676 66.1594 53.8735C66.1594 53.4794 66.0856 53.1084 65.9381 52.7565C65.7906 52.4066 65.5735 52.0842 65.2869 51.7933C65.0108 51.5088 64.6947 51.2939 64.3364 51.1463C63.9802 50.9967 63.603 50.9229 63.2067 50.9229C62.8105 50.9229 62.4522 50.9988 62.094 51.1484C61.7357 51.2981 61.4111 51.513 61.1266 51.7954C60.8526 52.0631 60.6376 52.3771 60.4922 52.7396C60.3447 53.1 60.2709 53.4773 60.2709 53.8756ZM59.0949 53.8334C59.0949 53.3192 59.2003 52.8176 59.409 52.3329C59.6176 51.846 59.9169 51.4182 60.3047 51.0452C60.6988 50.6658 61.1435 50.3792 61.6408 50.179C62.1361 49.9809 62.6609 49.8818 63.2088 49.8818C63.7568 49.8818 64.2984 49.9809 64.8 50.1832C65.3016 50.3834 65.7442 50.6721 66.1257 51.0452C66.5261 51.4351 66.8275 51.8713 67.0319 52.3476C67.2342 52.826 67.3354 53.3466 67.3354 53.9051C67.3354 54.4299 67.2321 54.9357 67.0235 55.4204C66.8169 55.9051 66.5198 56.3309 66.1383 56.6976C65.7379 57.079 65.2911 57.3699 64.7958 57.5659C64.3005 57.764 63.7716 57.8609 63.2088 57.8609C62.6461 57.8609 62.134 57.7598 61.6324 57.5575C61.1308 57.353 60.6882 57.0685 60.3068 56.6955C59.9084 56.3098 59.6071 55.8714 59.4047 55.3888C59.2003 54.902 59.097 54.3835 59.097 53.8313L59.0949 53.8334ZM68.5662 57.7282V50.0083H69.5272L72.3071 53.2496L75.089 50.0083H76.0501V57.7282H74.9752V51.7006L72.305 54.8113L69.6389 51.7006V57.7282H68.5641H68.5662ZM78.7983 53.4225H79.9954C80.5328 53.4225 80.9206 53.3255 81.1608 53.1358C81.4011 52.9441 81.5233 52.6385 81.5233 52.2148C81.5233 51.7912 81.4032 51.4856 81.1608 51.2939C80.9206 51.1 80.5307 51.003 79.9954 51.003H78.7983V53.4225ZM77.7024 57.7282V50.0083H80.1113C80.9164 50.0083 81.5444 50.2022 81.9975 50.592C82.4507 50.9819 82.6762 51.5236 82.6762 52.2148C82.6762 52.9061 82.4507 53.4393 81.9975 53.825C81.5444 54.2107 80.9164 54.4046 80.1113 54.4046H78.7983V57.7282H77.7024ZM83.829 57.7282V50.0083H88.474V50.9925H84.9249V53.3318H88.3728V54.3266H84.9249V56.7334H88.5878V57.7282H83.829ZM92.0695 57.7282V51.0136H89.2327V50.0083H96.0042V51.0136H93.1675V57.7282H92.0716H92.0695ZM53.9757 60.5291H52.2328V66.1478H53.9757C54.9283 66.1478 55.6765 65.897 56.2224 65.3975C56.7661 64.8959 57.038 64.2131 57.038 63.3448C57.038 62.4764 56.7661 61.7852 56.2224 61.2836C55.6786 60.7799 54.9304 60.5291 53.9757 60.5291ZM53.9757 59.4774C54.5469 59.4774 55.0358 59.5301 55.4468 59.6376C55.8556 59.7451 56.2329 59.9137 56.5743 60.1434C57.0991 60.4975 57.5016 60.9506 57.7862 61.5028C58.0707 62.057 58.214 62.6661 58.214 63.3321C58.214 63.9981 58.0707 64.6114 57.784 65.1699C57.4953 65.7263 57.0949 66.1794 56.5743 66.5292C56.2413 66.7611 55.8662 66.9297 55.4489 67.035C55.0316 67.1425 54.5427 67.1952 53.9757 67.1952H51.1369V59.4753H53.9757V59.4774ZM59.5143 67.1973V59.4774H60.6103V62.801H65.0635V59.4774H66.1594V67.1973H65.0635V63.84H60.6103V67.1973H59.5143ZM67.7632 59.4774H68.8591V63.9096C68.8591 64.4027 68.8865 64.7526 68.9392 64.9591C68.994 65.1636 69.0826 65.3427 69.209 65.4944C69.4366 65.7642 69.7064 65.9644 70.0183 66.0972C70.3302 66.23 70.6864 66.2953 71.0847 66.2953C71.7528 66.2953 72.2923 66.1225 72.7012 65.7768C73.1101 65.4312 73.3145 64.9739 73.3145 64.407V59.4774H74.4104V64.4407C74.4104 65.3005 74.1027 65.996 73.4894 66.5313C72.8761 67.0667 72.0753 67.3343 71.0847 67.3343C70.4988 67.3343 69.9719 67.2311 69.4998 67.0245C69.0299 66.8159 68.6336 66.5124 68.3091 66.1098C68.1089 65.8696 67.9698 65.604 67.8876 65.3111C67.8054 65.0181 67.7632 64.565 67.7632 63.9538V59.4774ZM77.2998 63.9306H79.7066L78.4885 61.1508L77.3019 63.9306H77.2998ZM74.7539 67.1973L78.1007 59.4774H78.9058L82.2947 67.1973H81.1524L80.1577 64.9254H76.8678L75.8857 67.1973H74.7539ZM82.8701 67.1973V59.4774H87.2664V60.4616H83.966V62.7441H87.1652V63.7389H83.966V67.1973H82.8701ZM89.6247 63.9306H92.0315L90.8134 61.1508L89.6268 63.9306H89.6247ZM87.0788 67.1973H88.2106L89.1927 64.9254H92.4825L93.4773 67.1973H94.6196L91.2307 59.4774H90.4256L87.0788 67.1973Z" fill="#00933D"/>
</g>
</g>
<rect x="1" y="1" width="110" height="110" rx="9" stroke="black" stroke-opacity="0.1" stroke-width="2"/>
<defs>
<clipPath id="clip0_782_915">
<rect x="2" y="2" width="108" height="108" rx="8" fill="white"/>
</clipPath>
<clipPath id="clip1_782_915">
<rect width="80" height="31.0777" fill="white" transform="translate(16 40.4611)"/>
</clipPath>
</defs>
</svg>
