<svg width="112" height="112" viewBox="0 0 112 112" fill="none" xmlns="http://www.w3.org/2000/svg">
<g clip-path="url(#clip0_782_913)">
<rect x="2" y="2" width="108" height="108" rx="8" fill="white"/>
<path fill-rule="evenodd" clip-rule="evenodd" d="M35.9698 36.7409C45.3246 50.4758 53.4849 63.9486 61.9677 78.2934L68.1321 89.0746C68.3841 89.503 69.9012 92.4315 70.2691 92.754C69.4476 89.2561 67.6986 83.5151 66.6552 79.7248C66.0605 77.5575 65.4607 75.4053 64.871 73.2934C64.5887 72.2853 63.0312 67.4365 63.2984 66.7964C62.9002 66.8115 62.9052 66.5444 62.6885 66.1613C61.8619 64.7198 59.9617 61.9778 59.4173 60.8236L58.495 59.2762C58.0111 58.7924 56.9728 56.8871 56.5343 56.1966C55.9042 55.2036 55.254 53.9536 54.5887 53.0917C54.2359 52.3811 53.6966 51.62 53.248 50.8891L49.2661 44.3619L49.2863 44.3518L35.9748 36.7359L35.9698 36.7409Z" fill="#4FB234"/>
<path fill-rule="evenodd" clip-rule="evenodd" d="M35.8942 36.6351L35.9647 36.7409L49.2762 44.3619H49.2913L57.0887 40.8589C58.4496 40.3095 59.8105 39.8357 61.1865 39.3165C62.4466 38.8478 64.1552 38.2077 65.4607 37.9002C65.9345 37.623 71.1058 36.2218 71.8417 36.1462L72.2802 36.0202C72.7439 35.7631 77.8901 34.8155 78.6462 34.8256C78.8679 34.4375 82.2853 31.3579 82.9002 30.7883C84.5383 29.2611 95.3296 19.5282 95.8387 18.8377H94.5837V18.9889H94.7198C81.4637 20.9446 58.4546 27.0786 45.4859 32.4264L38.6714 35.2843C38.0917 35.5565 37.5877 35.7581 37.0383 36C36.7863 36.1109 36.5192 36.2621 36.2268 36.368L35.8841 36.6301L35.8942 36.6351Z" fill="#00933D"/>
<path fill-rule="evenodd" clip-rule="evenodd" d="M78.6512 34.8256C78.0968 36 77.628 37.9859 77.1694 39.2863C74.7147 46.2571 71.6452 53.2026 67.88 59.5282C67.1038 60.8286 66.4234 62.0081 65.6522 63.1825L63.2984 66.7964C63.0312 67.4365 64.5938 72.2853 64.871 73.2934C65.4607 75.4103 66.0605 77.5625 66.6552 79.7248C67.6935 83.5151 69.4476 89.251 70.2691 92.754L70.3296 93.0565C70.9042 92.6583 77.1694 77.9456 78.0413 75.9194C80.6119 69.9567 82.7944 63.9284 84.997 57.8196C89.9264 44.1351 92.7439 32.9657 96 18.8327H95.8438C95.3347 19.5182 84.5434 29.251 82.9052 30.7833C82.2903 31.3579 78.873 34.4325 78.6512 34.8206V34.8256Z" fill="#BBD054"/>
<path fill-rule="evenodd" clip-rule="evenodd" d="M26.6754 36.9325L35.4204 50.4859C41.4637 60.2591 46.378 68.2883 52.0434 78.4597C54.6996 83.2278 57.2147 88.1623 59.7903 93.0413L70.3296 93.0615L70.2691 92.7591C69.9012 92.4315 68.3841 89.5081 68.1321 89.0797L61.9677 78.2984C53.4597 63.9184 45.2792 50.4103 35.8942 36.6401H35.2641L26.6704 36.9375L26.6754 36.9325Z" fill="#1C5F32"/>
<path fill-rule="evenodd" clip-rule="evenodd" d="M16 37.502C16.2067 38.1119 16.6956 38.6613 17.0484 39.2006C27.8196 55.5262 37.6532 71.9375 46.62 89.4073C47.1895 90.5161 47.9103 92.1341 48.5454 93.0867L57.8196 93.1674C57.6532 92.5928 57.1694 91.8014 56.8871 91.2671L53.9637 85.8387C50.3095 79.0998 45.6976 71.0504 41.7812 64.5988C39.0242 60.0524 36.2167 55.3649 33.3387 50.8085C32.88 50.0827 24.8054 37.5071 24.6996 37.0686C24.0393 37.25 16.9123 37.5877 16.005 37.502H16Z" fill="#1C5F32"/>
<path fill-rule="evenodd" clip-rule="evenodd" d="M72.2851 36.0202C72.7337 35.9547 72.3708 35.9748 72.5018 36.1311C71.5341 40.1835 68.8476 45.9395 66.9574 49.4325C65.2337 52.6129 63.6812 55.4053 61.6197 58.2127L60.0673 60.1885C59.7649 60.5414 59.8155 60.6623 59.4173 60.8236C59.9617 61.9778 61.8619 64.7198 62.6885 66.1613C62.9052 66.5393 62.9002 66.8115 63.2984 66.7964L65.6522 63.1825C66.4234 62.003 67.1038 60.8286 67.88 59.5282C71.6452 53.2026 74.7147 46.2571 77.1694 39.2863C77.628 37.9859 78.1018 36 78.6512 34.8256C77.8952 34.8155 72.7488 35.7682 72.2851 36.0202Z" fill="#1C5F32"/>
<path fill-rule="evenodd" clip-rule="evenodd" d="M65.4656 37.9002L65.6269 38.0161C63.9686 41.4436 63.5049 42.8901 60.894 46.3125C60.3245 47.0585 55.8184 52.7137 54.5835 53.0968C55.2489 53.9587 55.9041 55.2036 56.5291 56.2016C56.9676 56.8922 58.0059 58.7974 58.4898 59.2813C60.6823 56.9476 60.5513 57.3105 62.638 54.4073C63.8275 52.749 65.1027 50.6472 66.1158 48.7067C67.6833 45.6926 70.8789 39.2208 71.8466 36.1512C71.1108 36.2268 65.9394 37.628 65.4656 37.9053V37.9002Z" fill="#1C5F32"/>
<path fill-rule="evenodd" clip-rule="evenodd" d="M26.6754 36.9325L35.269 36.6301H35.899L36.2417 36.368L37.0532 36C37.6026 35.7581 38.1016 35.5514 38.6863 35.2843L45.5008 32.4264C58.4645 27.0786 81.4736 20.9446 94.7296 18.994H94.5936C93.0008 18.6008 86.7055 19.6442 84.9212 19.9668C70.1127 22.6532 56.6046 26.494 42.4212 31.1311C41.0502 31.5797 27.779 36.2268 26.6802 36.9325L26.6754 36.9325Z" fill="#BBD054"/>
<path fill-rule="evenodd" clip-rule="evenodd" d="M16 37.502C16.9123 37.5877 24.0393 37.25 24.6946 37.0686C33.6109 33.5655 42.3861 30.3347 51.8871 27.5474C56.7208 26.1311 61.3831 24.8861 66.3881 23.6714C68.8579 23.0716 71.3276 22.5121 73.8629 21.9829C75.2188 21.7006 80.9345 20.6976 81.5746 20.375C79.1099 20.5363 66.3528 22.9506 64.0393 23.4395C58.2631 24.6593 52.8095 25.8992 47.1946 27.3357C39.9718 29.1653 23.1018 34.3417 16 37.502Z" fill="#BBD054"/>
</g>
<rect x="1" y="1" width="110" height="110" rx="9" stroke="black" stroke-opacity="0.1" stroke-width="2"/>
<defs>
<clipPath id="clip0_782_913">
<rect x="2" y="2" width="108" height="108" rx="8" fill="white"/>
</clipPath>
</defs>
</svg>
