<svg width="112" height="112" viewBox="0 0 112 112" fill="none" xmlns="http://www.w3.org/2000/svg">
<g clip-path="url(#clip0_782_916)">
<rect x="2" y="2" width="108" height="108" rx="8" fill="white"/>
<path fill-rule="evenodd" clip-rule="evenodd" d="M55.9997 16.01C72.4464 16.01 85.7797 29.3433 85.7797 45.79C85.7797 62.2366 72.4464 75.57 55.9997 75.57C39.553 75.57 26.2197 62.2366 26.2197 45.79C26.2197 29.3433 39.553 16.01 55.9997 16.01Z" fill="#03AEEF"/>
<path fill-rule="evenodd" clip-rule="evenodd" d="M85.6094 42.5967C85.7227 43.6467 85.7797 44.7133 85.7797 45.79C85.7797 62.2366 72.4464 75.57 55.9997 75.57C55.493 75.57 54.9893 75.5567 54.4893 75.5333L44.966 67.2533L45.6493 67.7633C46.8993 68.56 48.486 68.9833 49.9727 68.84C50.5827 68.7833 51.0193 68.6533 51.5927 68.47L47.2627 64.52C46.8593 64.1467 46.5827 63.7667 46.4127 63.23C45.5327 60.5133 48.4993 59.16 48.9927 55.98L49.066 54.94L44.5593 50.3667L45.1393 50.9067C46.0093 51.6267 46.4893 51.6767 46.9393 51.98L49.0627 54.13V51.3167L46.266 48.3833C44.7327 46.6233 45.0427 43.8067 47.0527 42.47C47.706 42.0367 48.3127 41.8733 49.066 41.7367L49.0427 39.0067L44.206 33.3933C44.6893 33.9233 45.216 34.4133 45.6893 34.9567L49.0427 38.85L49.0293 36.38C49.0327 35.6733 49.1427 35.1967 48.856 34.62C48.106 33.1067 45.9027 30.47 46.3327 28.59C46.9327 25.95 50.2393 25.5567 51.7227 27.36L55.326 32.0433C55.606 31.51 55.826 30.8867 55.9293 30.2967C56.2193 28.6233 55.6727 26.7567 54.7027 25.3967L63.9027 34.17C63.5227 34.8067 64.2627 33.48 63.9027 34.17C64.496 33.1733 65.6027 32.7833 66.706 32.8767C67.696 32.9633 68.426 33.3867 68.9794 34.2033L72.256 39.03L72.5827 38.3333C73.3894 36.2967 73.0694 34.1033 71.926 32.26L85.6094 42.5967Z" fill="#1D98C6"/>
<path fill-rule="evenodd" clip-rule="evenodd" d="M68.576 57.8267C67.206 59.1967 64.8393 58.81 63.8927 57.4033C63.426 56.71 63.1227 55.9233 62.7127 55.1533C62.4793 54.7133 61.7493 53.08 61.5793 52.87C61.3793 52.6233 53.626 48.33 52.7827 47.9633C51.576 48.89 52.8027 48.73 49.946 49.7567C49.9093 49.77 49.856 49.7933 49.8293 49.8067L49.5927 49.9167C49.5993 51.7 49.606 53.4867 49.5927 55.27C49.5827 56.49 49.586 56.6433 50.1127 57.4933C51.246 59.3233 52.766 61.4567 52.226 63.1933C51.2893 66.21 46.716 65.8633 46.2827 62.6667C45.9193 59.98 49.0793 58.7767 49.066 54.9733C49.0593 53.2367 49.066 51.5033 49.066 49.7667C44.1393 49.2233 43.9427 42.4567 49.066 41.7367C49.066 39.95 49.0193 38.17 49.0293 36.38C49.0327 35.0933 49.176 35.13 48.606 34.1667C47.5827 32.4433 45.9627 30.2367 46.3327 28.59C47.046 25.4067 51.6427 25.5533 52.2793 28.5533C52.6327 30.2167 51.606 31.4133 50.986 32.5C50.026 34.1767 49.6427 34.1567 49.6493 36.53C49.6527 38.2667 49.6293 40.03 49.5827 41.7667C51.036 41.9167 52.2327 42.5867 52.5927 43.5733C53.3393 43.4033 61.2493 38.98 61.566 38.6133C61.816 38.3267 62.566 36.77 62.8127 36.3033C63.206 35.56 63.5727 34.6933 63.976 34.0467C64.8894 32.59 67.4327 32.46 68.6394 33.7633C70.026 35.26 69.5327 37.5667 67.996 38.5067C66.436 39.4567 63.1394 38.6933 61.8493 39.21L57.4527 41.6467C56.016 42.4967 54.506 43.1967 52.9927 44.0267C53.5394 45.9467 53.336 45.72 52.9927 47.5833C53.826 47.85 54.536 48.37 55.3727 48.81C56.0827 49.1867 56.856 49.5867 57.5927 50.0167C58.2827 50.4233 61.5394 52.2733 62.0527 52.38C63.856 52.7533 66.7927 52.0867 68.166 53.1267C69.616 54.22 69.976 56.4233 68.576 57.8267ZM45.8327 67.8767C52.2227 71.6 59.136 64.1133 54.4094 57.9567C53.756 57.1033 53.136 56.85 52.4493 55.75C52.0427 55.0967 50.8027 52.44 51.936 51.89C53.4927 51.1333 57.6994 52.01 59.406 55.49C60.286 57.2867 60.416 61.22 65.096 62.13C72.816 63.63 76.226 52.9533 69.176 49.59C65.276 47.7267 62.9393 51.16 58.966 48.79C57.986 48.2033 56.0827 46.4733 56.326 45.5667C56.6327 44.4133 58.3593 42.96 59.4593 42.4667C63.5927 40.6167 65.416 44 69.7593 41.6133C70.9493 40.96 72.0127 39.75 72.5827 38.3333C73.646 35.6967 72.7494 32.4433 70.5093 30.7033C69.8493 30.1867 68.466 29.57 67.4794 29.4167C66.2294 29.2233 65.0327 29.3633 63.9293 29.82C63.376 30.0467 62.9193 30.2867 62.4794 30.6167C61.9927 30.98 61.7227 31.3833 61.326 31.69C60.5027 32.83 60.2993 33.2667 59.856 34.8367C58.8227 38.52 55.4793 40.4767 51.6327 39.54C51.2027 38.0467 52.0294 36.2833 52.7427 35.2967C53.5093 34.23 57.8127 31.22 55.156 26.13C54.5893 25.0467 53.8893 24.4267 52.8927 23.78C49.1793 21.37 44.4493 23.28 43.136 27.0333C42.296 29.4433 42.946 32.0667 44.3327 33.5333C45.9127 35.2067 47.156 36.0333 47.166 39.3567C46.5093 39.9267 42.696 41.12 42.6793 45.7533C42.676 47.4033 43.326 48.8967 44.0927 49.8367C45.8027 51.93 47.0527 51.6733 47.1727 52.2967C47.0093 56.74 44.9627 56.53 43.486 59.22C42.4493 61.1133 42.536 63.4467 43.5427 65.4133C44.0627 66.43 44.8427 67.3 45.8327 67.8767Z" fill="white"/>
<path fill-rule="evenodd" clip-rule="evenodd" d="M23.666 95.8033L26.0527 95.7933V91.4567C26.3693 91.28 27.106 90.2367 27.3893 90.0833C27.596 90.2767 27.7927 90.57 27.9593 90.79C28.1593 91.0533 28.3093 91.2467 28.5093 91.5C28.9093 92.0033 29.2393 92.45 29.636 92.9533L31.5993 95.4933C31.736 95.6667 31.776 95.8033 31.9493 95.8033L34.8327 95.8C34.7327 95.5833 34.3027 95.1133 34.1293 94.8867C33.8727 94.5533 33.6427 94.2633 33.3893 93.9433C32.9927 93.4467 29.066 88.5933 28.9493 88.2867C29.646 87.6267 31.4627 85.56 32.276 84.6633L34.2693 82.5C33.766 82.44 31.816 82.4767 31.1693 82.4767C30.9393 82.4767 30.0127 83.6467 29.8727 83.82C29.7527 83.9667 29.6793 84.0133 29.5493 84.1567C29.4327 84.29 29.3793 84.39 29.2493 84.52C28.956 84.8133 28.8827 84.9433 28.5893 85.24C28.0593 85.78 26.586 87.5733 26.0727 88.0467L26.0527 82.4933L23.666 82.4767V95.8033ZM59.7427 87.7433C62.4393 87.29 63.6293 87.8033 63.6293 90.6433C63.6293 91.63 63.5227 92.7067 62.996 93.3533C62.3927 94.0933 59.786 94.4067 59.7427 92.7467V87.7433ZM61.246 95.9833H61.786C63.126 95.9833 64.426 95.2433 64.9227 94.56C65.916 93.1967 66.046 92.2 66.046 90.4033C66.046 87.34 64.1627 85.5433 61.126 85.69L59.746 85.8233L59.7427 82.0567L57.356 82.06C57.356 85.03 57.356 87.9867 57.356 90.9433C57.356 92.4933 57.176 93.6033 58.0527 94.67C58.6593 95.4067 59.8393 95.9833 61.246 95.9833ZM53.4193 91.0933C53.4993 91.3833 53.4793 92.41 53.4227 92.7267C53.336 93.19 53.0893 93.48 52.7327 93.6567C51.8327 94.1067 49.626 94.0067 49.7927 92.15C49.8393 91.64 50.1027 91.3933 50.4893 91.23C51.346 90.8633 52.4627 90.9733 53.4193 91.0933ZM48.4127 86.2667V88.1833C48.846 88.1167 49.3227 87.9067 49.8427 87.8233C51.6127 87.5367 53.286 87.5167 53.4393 89.57C52.3993 89.4633 52.3527 89.43 51.3393 89.44C49.146 89.4667 47.4093 90.47 47.4093 92.6833C47.4093 94.7867 49.2827 95.9833 51.3993 95.9833H51.9393C53.9993 95.9833 55.856 94.81 55.856 92.7433V89.68C55.856 87.2567 54.186 85.7033 51.7593 85.7033C50.5327 85.7033 49.526 85.7667 48.4127 86.2667ZM85.8927 91.0933C85.9727 91.3833 85.956 92.41 85.8993 92.7267C85.8127 93.19 85.566 93.48 85.2093 93.6567C84.3093 94.1067 82.1027 94.0067 82.2693 92.15C82.4027 90.6633 84.8693 90.9633 85.8927 91.0933ZM80.8893 86.2667V88.1833C81.3227 88.1167 81.7993 87.9067 82.3193 87.8233C84.0893 87.5367 85.7593 87.5167 85.916 89.57C84.876 89.4633 84.8293 89.43 83.816 89.44C81.6227 89.4667 79.8827 90.47 79.8827 92.6833C79.8827 94.7867 81.756 95.9833 83.876 95.9833H84.416C86.476 95.9833 88.3327 94.81 88.3327 92.7433V89.68C88.3327 87.2567 86.6627 85.7033 84.236 85.7033C83.006 85.7033 82.0027 85.7667 80.8893 86.2667ZM72.1027 93.0467L72.0927 95.0833C72.1827 95.25 72.0627 95.1367 72.286 95.2733C72.3593 95.3167 72.4893 95.3733 72.5627 95.41C74.4593 96.35 77.8493 96.2933 78.7593 94.11C79.0893 93.31 78.9927 92.19 78.6227 91.4533C77.7493 89.72 75.446 89.77 74.5793 89.19C73.7027 88.6033 74.3027 87.37 76.9927 87.8633C77.4827 87.95 77.836 88.14 78.216 88.2233L78.2193 86.5C78.0793 85.7833 72.626 84.62 71.896 88.0833C71.6827 89.0867 71.8827 89.96 72.4327 90.5567C73.7327 91.9733 76.346 91.69 76.546 92.8133C76.826 94.4033 74.0093 93.9 73.186 93.5867C72.766 93.4267 72.4393 93.1867 72.1027 93.0467ZM41.736 85.84H40.0527V87.8967H41.716C41.8593 89.2733 41.5993 92.1833 41.7727 93.3667C42.0027 94.9 43.0593 95.9833 44.736 95.9833C45.6193 95.9833 45.6527 95.9567 46.476 95.7067V93.71C45.966 93.8633 45.4327 93.9933 44.8527 93.8867C44.226 93.7733 44.1227 93.3633 44.1227 92.6833C44.1227 91.5667 44.076 88.83 44.136 87.8967H46.476V85.84H44.1227V82.9133L41.736 82.8967V85.84ZM67.666 95.8033H69.8293L70.056 95.7933L70.0527 85.8533L69.8293 85.8367L67.666 85.84V95.8033ZM36.0927 95.8033H38.2527L38.4793 95.7933V85.8533L38.2527 85.8367L36.0927 85.84V95.8033ZM36.046 84.4667L36.2727 84.4933L38.516 84.49L38.5093 82.2967L36.046 82.3V84.4667ZM67.6227 84.4667L67.846 84.4933L70.0827 84.49V82.2967L67.6227 82.3V84.4667Z" fill="#03AEEF"/>
</g>
<rect x="1" y="1" width="110" height="110" rx="9" stroke="black" stroke-opacity="0.1" stroke-width="2"/>
<defs>
<clipPath id="clip0_782_916">
<rect x="2" y="2" width="108" height="108" rx="8" fill="white"/>
</clipPath>
</defs>
</svg>
