<svg width="112" height="112" viewBox="0 0 112 112" fill="none" xmlns="http://www.w3.org/2000/svg">
<g clip-path="url(#clip0_782_911)">
<rect x="2" y="2" width="108" height="108" rx="8" fill="white"/>
<path fill-rule="evenodd" clip-rule="evenodd" d="M16 64.3889L18.9526 64.3765V59.0116C19.3443 58.793 20.2557 57.5023 20.6062 57.3126C20.8619 57.5518 21.1052 57.9146 21.3113 58.1868C21.5588 58.5126 21.7443 58.7518 21.9918 59.0652C22.4866 59.6878 22.8948 60.2404 23.3856 60.8631L25.8144 64.0054C25.9835 64.2198 26.033 64.3889 26.2474 64.3889L29.8144 64.3848C29.6907 64.1167 29.1588 63.5353 28.9443 63.2549C28.6268 62.8425 28.3423 62.4837 28.0289 62.0878C27.5381 61.4734 22.6804 55.4693 22.5361 55.0899C23.3979 54.2734 25.6454 51.7167 26.6515 50.6074L29.1175 47.9311C28.4948 47.8569 26.0825 47.9023 25.2825 47.9023C24.9979 47.9023 23.8515 49.3497 23.6784 49.5641C23.5299 49.7456 23.4392 49.8033 23.2784 49.9806C23.134 50.1456 23.068 50.2693 22.9072 50.4301C22.5443 50.793 22.4536 50.9538 22.0907 51.3208C21.4351 51.9889 19.6124 54.2074 18.9773 54.793L18.9526 47.9229L16 47.9023V64.3889ZM60.6309 54.4177C63.967 53.8569 65.4392 54.492 65.4392 58.0054C65.4392 59.226 65.3072 60.5579 64.6557 61.3579C63.9093 62.2734 60.6845 62.661 60.6309 60.6074V54.4177ZM62.4907 64.6116H63.1588C64.8165 64.6116 66.4247 63.6961 67.0392 62.8507C68.268 61.1641 68.4289 59.9311 68.4289 57.7085C68.4289 53.9188 66.099 51.6961 62.3423 51.8775L60.6351 52.0425L60.6309 47.3827L57.6783 47.3868C57.6783 51.061 57.6783 54.7188 57.6783 58.3765C57.6783 60.294 57.4557 61.6672 58.5402 62.9868C59.2907 63.8982 60.7505 64.6116 62.4907 64.6116ZM52.8082 58.5621C52.9072 58.9208 52.8825 60.1909 52.8124 60.5827C52.7052 61.1559 52.4 61.5147 51.9588 61.7332C50.8454 62.2899 48.1155 62.1662 48.3216 59.8693C48.3794 59.2384 48.7052 58.9332 49.1835 58.7311C50.2433 58.2775 51.6247 58.4136 52.8082 58.5621ZM46.6144 52.5909V54.9621C47.1505 54.8796 47.7402 54.6198 48.3835 54.5167C50.5732 54.1621 52.6433 54.1373 52.833 56.6775C51.5464 56.5456 51.4887 56.5043 50.2351 56.5167C47.5216 56.5497 45.3732 57.7909 45.3732 60.5291C45.3732 63.1311 47.6907 64.6116 50.3093 64.6116H50.9773C53.5258 64.6116 55.8227 63.16 55.8227 60.6033V56.8136C55.8227 53.8157 53.7567 51.894 50.7546 51.894C49.2371 51.894 47.9918 51.9724 46.6144 52.5909ZM92.9814 58.5621C93.0804 58.9208 93.0598 60.1909 92.9897 60.5827C92.8825 61.1559 92.5773 61.5147 92.1361 61.7332C91.0227 62.2899 88.2928 62.1662 88.499 59.8693C88.6639 58.0301 91.7155 58.4012 92.9814 58.5621ZM86.7917 52.5909V54.9621C87.3278 54.8796 87.9175 54.6198 88.5608 54.5167C90.7505 54.1621 92.8165 54.1373 93.0103 56.6775C91.7237 56.5456 91.666 56.5043 90.4124 56.5167C87.699 56.5497 85.5464 57.7909 85.5464 60.5291C85.5464 63.1311 87.8639 64.6116 90.4866 64.6116H91.1546C93.7031 64.6116 96 63.16 96 60.6033V56.8136C96 53.8157 93.934 51.894 90.932 51.894C89.4103 51.894 88.1691 51.9724 86.7917 52.5909ZM75.9216 60.9786L75.9093 63.4982C76.0206 63.7043 75.8722 63.5641 76.1485 63.7332C76.2392 63.7868 76.4 63.8569 76.4907 63.9023C78.8371 65.0652 83.0309 64.9951 84.1567 62.294C84.5649 61.3043 84.4454 59.9188 83.9876 59.0074C82.9072 56.8631 80.0577 56.925 78.9856 56.2074C77.901 55.4817 78.6433 53.9559 81.9711 54.5662C82.5773 54.6734 83.0144 54.9085 83.4845 55.0116L83.4887 52.8796C83.3155 51.993 76.5691 50.5538 75.666 54.8384C75.4021 56.0796 75.6495 57.16 76.3299 57.8982C77.9381 59.6507 81.1711 59.3002 81.4186 60.6899C81.7649 62.6569 78.2804 62.0342 77.2619 61.6466C76.7423 61.4487 76.3381 61.1518 75.9216 60.9786ZM38.3546 52.0631H36.2722V54.6074H38.3299C38.5072 56.3105 38.1856 59.9105 38.4 61.3744C38.6845 63.2714 39.9918 64.6116 42.066 64.6116C43.1588 64.6116 43.2 64.5786 44.2186 64.2693V61.7992C43.5876 61.9889 42.9278 62.1497 42.2103 62.0177C41.4351 61.8775 41.3072 61.3703 41.3072 60.5291C41.3072 59.1476 41.2495 55.7621 41.3237 54.6074H44.2186V52.0631H41.3072V48.4425L38.3546 48.4219V52.0631ZM70.433 64.3889H73.1093L73.3897 64.3765L73.3856 52.0796L73.1093 52.059L70.433 52.0631V64.3889ZM31.3732 64.3889H34.0454L34.3258 64.3765V52.0796L34.0454 52.059L31.3732 52.0631V64.3889ZM31.3155 50.3641L31.5959 50.3971L34.3711 50.393L34.3629 47.6796L31.3155 47.6837V50.3641ZM70.3794 50.3641L70.6557 50.3971L73.4227 50.393V47.6796L70.3794 47.6837V50.3641Z" fill="#03AEEF"/>
</g>
<rect x="1" y="1" width="110" height="110" rx="9" stroke="black" stroke-opacity="0.1" stroke-width="2"/>
<defs>
<clipPath id="clip0_782_911">
<rect x="2" y="2" width="108" height="108" rx="8" fill="white"/>
</clipPath>
</defs>
</svg>
