<svg width="112" height="112" viewBox="0 0 112 112" fill="none" xmlns="http://www.w3.org/2000/svg">
<g clip-path="url(#clip0_782_917)">
<rect x="2" y="2" width="108" height="108" rx="8" fill="white"/>
<path fill-rule="evenodd" clip-rule="evenodd" d="M36.0258 74.724C36.0457 71.7555 36.0805 68.7919 36.1103 65.8233C36.1253 64.3515 36.0905 62.8498 36.1949 61.3979C36.3838 58.7327 34.5938 57.2558 32.3959 56.2613C31.3915 55.8039 29.8849 55.4906 30.3572 53.984C30.6258 53.1237 31.8241 52.2486 32.6098 51.7414C33.4849 51.1795 34.37 50.4486 35.1954 49.832C38.6214 47.2712 42.0425 44.7004 45.4734 42.1347C46.0801 41.6822 55.3686 34.5815 55.8609 34.5467C57.2034 34.4523 59.0134 36.3368 60.0576 37.0777C61.9869 38.4501 64.5328 40.449 66.4521 41.9159C69.8682 44.5264 73.2395 47.0226 76.6854 49.658C77.9235 50.6027 81.091 52.6862 81.623 53.7105C82.3341 55.0829 81.0015 55.789 79.9374 56.2017C75.3876 57.9719 75.9893 60.6968 76.0489 65.7388C76.0639 67.1062 76.0688 73.7842 76.1633 74.5251C76.4268 74.4654 76.3523 74.4704 76.6854 74.2118L81.1656 70.4825C81.5335 70.1692 81.7324 69.861 82.0656 69.5676C82.7667 68.951 83.3286 68.4388 83.9302 67.7129C84.7358 66.7432 86.675 65.1869 87.5949 64.0333C88.132 63.362 88.7535 62.7852 89.2806 62.089C89.5441 61.741 89.8226 61.4476 90.101 61.0946C95.2624 54.5608 98.1166 47.1021 94.1138 37.5899C93.4326 35.9738 92.2889 34.2086 91.374 33.0699C89.1861 30.3351 86.4016 28.0527 83.2341 26.5163C77.5556 23.7615 70.803 23.2444 64.9007 25.3577C58.9189 27.4958 56.8504 30.539 55.8459 30.9666C55.5327 30.7229 55.294 30.3202 55.0006 30.0268C54.6675 29.6936 54.384 29.4997 54.031 29.1815C52.2509 27.5903 49.2575 26.1533 46.8608 25.3776C42.8927 24.0847 38.2684 23.5825 33.9424 24.5671C18.4632 28.0875 9.84595 46.1574 21.1831 60.2095L24.5693 64.1725L30.8992 70.6367C31.1926 70.935 31.6153 71.2085 31.9584 71.482C32.6247 72.014 35.2451 74.6196 36.0258 74.729V74.724ZM35.3794 53.8945C35.7921 53.3873 39.8546 50.3442 40.4463 49.9016C42.1817 48.5889 43.8524 47.3358 45.6624 46.043C46.8309 45.2076 55.5128 38.3705 56.0498 38.3208C56.2338 38.3009 65.3483 45.4115 66.2781 46.1474C66.8698 46.6148 76.2926 53.8249 76.4965 54.158C75.5219 54.884 74.6964 55.5403 74.05 56.6194C73.3688 57.7581 73.1152 59.0111 72.971 60.5476C72.5235 65.351 72.9909 70.2886 72.9461 75.0621C72.9213 77.5185 72.8964 77.3146 71.2903 78.4036C70.5991 78.871 65.8903 82.4959 65.3383 82.3467C65.2488 78.2495 65.3134 74.1472 65.3284 70.0499C65.3333 67.9864 65.4228 66.0372 63.7471 65.351C61.9421 64.615 60.1421 65.5797 59.0382 66.4051C57.9294 67.2355 56.8653 68.5681 56.4625 69.9654C55.9653 71.6858 56.0498 73.8837 56.0498 75.7533C56.0498 79.8804 55.8609 83.8186 56.0995 87.9507C54.0161 87.6523 45.7718 81.9291 43.2657 80.308C42.2463 79.6517 39.6557 78.1102 39.3723 77.2798C39.1485 76.6284 39.3126 65.341 39.3126 63.6554C39.3126 61.7957 39.3176 59.1106 38.6413 57.5343C38.2634 56.6641 37.7264 56.0326 37.1645 55.5553C36.8363 55.2768 36.5877 55.0083 36.2545 54.7398C35.9413 54.4912 35.6579 54.168 35.3893 53.8895L35.3794 53.8945Z" fill="#E95706"/>
</g>
<rect x="1" y="1" width="110" height="110" rx="9" stroke="black" stroke-opacity="0.1" stroke-width="2"/>
<defs>
<clipPath id="clip0_782_917">
<rect x="2" y="2" width="108" height="108" rx="8" fill="white"/>
</clipPath>
</defs>
</svg>
