<svg width="112" height="112" viewBox="0 0 112 112" fill="none" xmlns="http://www.w3.org/2000/svg">
<g clip-path="url(#clip0_782_912)">
<rect x="2" y="2" width="108" height="108" rx="8" fill="white"/>
<g clip-path="url(#clip1_782_912)">
<path fill-rule="evenodd" clip-rule="evenodd" d="M25.0123 64.4251C25.0213 63.089 25.0369 61.7551 25.0504 60.419C25.0571 59.7566 25.0414 59.0807 25.0884 58.4272C25.1735 57.2276 24.3678 56.5629 23.3786 56.1153C22.9265 55.9094 22.2484 55.7684 22.461 55.0903C22.5818 54.7031 23.1212 54.3092 23.4748 54.081C23.8687 53.8281 24.2671 53.4991 24.6386 53.2216C26.1806 52.069 27.7203 50.9119 29.2645 49.7571C29.5376 49.5535 33.7182 46.3576 33.9398 46.3419C34.544 46.2994 35.3587 47.1476 35.8286 47.4811C36.697 48.0987 37.8428 48.9984 38.7067 49.6586C40.2442 50.8336 41.7616 51.9571 43.3126 53.1432C43.8698 53.5684 45.2954 54.5062 45.5349 54.9672C45.8549 55.5849 45.2551 55.9027 44.7762 56.0885C42.7284 56.8852 42.9992 58.1116 43.0261 60.381C43.0328 60.9964 43.035 64.0021 43.0776 64.3355C43.1962 64.3087 43.1626 64.3109 43.3126 64.1945L45.329 62.516C45.4946 62.375 45.5841 62.2363 45.7341 62.1042C46.0496 61.8267 46.3025 61.5962 46.5733 61.2695C46.9359 60.833 47.8087 60.1325 48.2228 59.6133C48.4645 59.3112 48.7442 59.0516 48.9814 58.7383C49.1001 58.5816 49.2254 58.4496 49.3507 58.2907C51.6738 55.3499 52.9584 51.9929 51.1568 47.7116C50.8502 46.9842 50.3354 46.1897 49.9236 45.6772C48.9389 44.4463 47.6856 43.4191 46.26 42.7275C43.7042 41.4877 40.665 41.2549 38.0085 42.2061C35.3161 43.1684 34.3851 44.5381 33.933 44.7305C33.792 44.6209 33.6846 44.4396 33.5526 44.3076C33.4026 44.1576 33.2751 44.0703 33.1162 43.9271C32.315 43.2109 30.9677 42.5641 29.889 42.215C28.103 41.6331 26.0217 41.4071 24.0746 41.8502C17.1077 43.4347 13.2292 51.5677 18.3319 57.8923L19.8559 59.676L22.7049 62.5854C22.837 62.7197 23.0272 62.8428 23.1816 62.9659C23.4815 63.2053 24.661 64.3781 25.0123 64.4273V64.4251ZM24.7214 55.05C24.9071 54.8217 26.7356 53.4521 27.0019 53.2529C27.783 52.6621 28.535 52.0981 29.3496 51.5162C29.8755 51.1402 33.7831 48.0629 34.0248 48.0406C34.1076 48.0316 38.2099 51.232 38.6284 51.5632C38.8947 51.7736 43.1357 55.0187 43.2275 55.1686C42.7889 55.4954 42.4173 55.7908 42.1264 56.2764C41.8198 56.789 41.7057 57.3529 41.6408 58.0445C41.4393 60.2064 41.6497 62.4287 41.6296 64.5772C41.6184 65.6828 41.6072 65.5911 40.8843 66.0812C40.5732 66.2916 38.4538 67.9231 38.2054 67.8559C38.1651 66.0118 38.1942 64.1654 38.2009 62.3213C38.2032 61.3925 38.2435 60.5152 37.4892 60.2064C36.6768 59.8752 35.8667 60.3093 35.3698 60.6809C34.8708 61.0546 34.3918 61.6544 34.2106 62.2833C33.9868 63.0576 34.0248 64.0468 34.0248 64.8883C34.0248 66.7459 33.9398 68.5184 34.0472 70.3782C33.1095 70.2439 29.3988 67.6679 28.2709 66.9383C27.8121 66.6429 26.6461 65.9491 26.5185 65.5754C26.4178 65.2822 26.4916 60.2019 26.4916 59.4432C26.4916 58.6062 26.4939 57.3977 26.1895 56.6882C26.0194 56.2966 25.7777 56.0124 25.5248 55.7975C25.3771 55.6722 25.2652 55.5513 25.1153 55.4305C24.9743 55.3186 24.8467 55.1731 24.7259 55.0478L24.7214 55.05Z" fill="#E95706"/>
<path fill-rule="evenodd" clip-rule="evenodd" d="M71.6741 47.8593V53.875L72.9274 53.94V48.5732C73.3638 48.4367 74.4022 48.327 74.8632 48.3964C75.5235 48.4971 75.8569 48.8709 75.9039 49.5714C75.9621 50.433 75.8748 53.6982 75.9263 53.9064L77.1594 53.9265C77.1975 52.1115 77.2579 50.4643 77.0431 48.6784C77.6182 48.5463 78.3724 48.3718 78.9834 48.374C79.7802 48.3763 80.0442 48.7164 80.1561 49.4527C80.3419 50.6814 80.0509 53.094 80.1785 53.8997L81.4206 53.9265C81.4408 52.4718 81.5213 50.8604 81.4117 49.4348C81.2326 47.0849 78.9633 46.8678 77.1348 47.3736C75.8771 47.7205 76.4903 47.5504 75.416 47.2662C74.2299 46.9529 72.6767 47.2841 71.6763 47.8637L71.6741 47.8593ZM57.0308 46.0957C58.5683 45.8898 61.095 45.9928 61.0323 47.7004C61.0189 48.0875 60.8533 48.5105 60.672 48.7657C60.117 49.5467 57.3754 49.4035 57.0375 49.305C56.9726 49.1394 56.9636 46.3508 57.0308 46.0957ZM55.7349 45.0327L55.7282 53.8706L57.0106 53.931V50.5807C57.409 50.5158 58.4071 50.4576 58.7675 50.5628C59.2262 50.6993 59.4411 51.1671 59.6694 51.5677C60.0275 52.1988 60.9518 53.517 61.1174 53.922L62.6258 53.9131C62.4848 53.5886 61.7127 52.483 61.471 52.1361C61.2091 51.7601 60.4639 50.7329 60.343 50.3032C62.722 49.8421 63.6754 45.0618 59.1412 44.9722C58.2482 44.9543 56.5362 44.8491 55.7349 45.0327ZM58.4295 63.0912C59.0606 62.2743 59.7522 61.2538 60.3654 60.3989C60.5802 60.099 60.7794 59.7767 60.9898 59.4678C61.2069 59.1478 61.3837 58.8524 61.5784 58.501C61.791 58.1228 61.8604 57.7132 61.7731 57.2097H55.5671L55.5649 58.4115L60.0834 58.4473C60.0252 58.6084 59.5955 59.197 59.4635 59.385L58.1833 61.218C57.5097 62.1266 56.8853 63.0755 56.2363 63.9372C55.7372 64.5996 55.3321 64.9689 55.4351 66.1662H61.7865L61.7888 64.9644L57.1583 64.9286L58.4273 63.0934L58.4295 63.0912ZM70.5707 57.1135C70.564 60.0632 70.5237 63.212 70.5551 66.1349L71.8083 66.155C71.8016 64.8547 71.551 63.5119 72.7506 63.1516C73.1959 63.964 73.7644 64.5056 74.2769 65.1636C75.0602 66.1707 75.0042 66.3251 76.6872 66.1282L75.5056 64.6757C75.3757 64.5258 75.2347 64.3333 75.0938 64.1923L74.259 63.2389C74.0844 63.0531 73.5741 62.4601 73.4958 62.1982C73.827 61.9498 75.1027 60.6607 75.6085 60.1974C75.7271 60.09 76.2396 59.6245 76.2889 59.5059C75.4675 59.4902 74.8297 59.3828 74.259 59.8595L72.6566 61.3702C72.4104 61.6454 72.2336 62.0147 71.8106 62.1467L71.8061 56.9411L70.5707 56.912V57.1157V57.1135ZM90.3548 53.8728L91.6036 53.931V48.6896C92.0131 48.5172 93.0919 48.3449 93.573 48.3897C94.2847 48.4568 94.5689 48.8619 94.692 49.5355C94.9069 50.7083 94.7457 52.6531 94.7435 53.922L95.999 53.931V51.0842C95.999 49.6139 96.1311 47.7608 94.1437 47.2438C92.9509 46.9327 92.2078 47.3736 91.6371 47.4296L91.6036 44.7708L90.3749 44.7753C90.3324 44.8894 90.3055 53.1768 90.3548 53.8728ZM81.7362 62.9972C81.7765 63.3016 81.7832 63.9976 81.7272 64.2952C81.6534 64.6891 81.4654 64.9085 81.1118 65.036C80.4202 65.2867 79.3549 65.2083 78.9163 64.763C78.3008 64.1408 78.6813 63.4448 79.3393 63.1471C80.0733 62.8137 80.9059 62.8719 81.7362 62.9949V62.9972ZM78.0636 59.6939V60.795C78.6589 60.7637 79.2184 60.3921 80.4247 60.5287C81.3311 60.6316 81.6601 61.0188 81.7451 61.9453C80.1673 61.9028 77.2691 61.7417 77.3855 64.1542C77.4795 66.0901 79.8272 66.7459 81.6937 66.0454C82.515 65.7388 82.9738 65.1076 83.032 64.0356C83.079 63.1718 83.1058 61.7372 82.8306 60.9673C82.5486 60.1751 81.9242 59.6648 80.9864 59.4656C80.1852 59.2955 78.782 59.4052 78.0636 59.6894V59.6939ZM67.5382 62.9972C67.5785 63.2993 67.5852 63.9998 67.5315 64.2952C67.3278 65.3986 65.4972 65.4321 64.7832 64.7764C63.7627 63.8387 64.7653 62.5787 67.5382 62.9972ZM63.8656 59.6961V60.795C64.1297 60.786 64.6713 60.6316 64.9757 60.5779C66.182 60.363 67.3771 60.4033 67.5472 61.9498C65.5509 61.8737 63.0532 61.9095 63.1898 64.1968C63.3039 66.1035 65.6426 66.7414 67.4957 66.0498C68.2969 65.7499 68.7736 65.1278 68.834 64.0804C68.8855 63.2008 68.8989 61.717 68.6214 60.9427C68.3439 60.1683 67.7083 59.667 66.7885 59.4701C66.0141 59.3045 64.555 59.4074 63.8679 59.6961H63.8656ZM87.3178 50.7664C87.3245 51.7422 87.5058 52.5121 86.6307 52.8209C84.5762 53.5483 83.2715 51.5654 84.9074 50.903C85.6975 50.5829 86.4696 50.6747 87.3178 50.7664ZM83.6318 47.5079V48.5732C84.4039 48.4591 85.1894 48.1547 86.0264 48.2755C86.7896 48.3852 87.2685 48.9111 87.3066 49.7191C85.3125 49.6183 82.7836 49.7012 82.9559 51.9817C83.0902 53.7363 85.4311 54.5957 87.2148 53.8348C87.9467 53.5237 88.5285 52.8791 88.5934 51.8676C88.6472 51.0216 88.6628 49.5266 88.4077 48.7769C88.1347 47.9779 87.4946 47.443 86.5904 47.2483C85.8452 47.0872 85.0395 47.1431 84.2875 47.2953C84.0883 47.3356 83.7414 47.358 83.6273 47.5079H83.6318ZM69.6531 47.2707L68.3954 47.3087L68.3999 50.9298C68.3999 51.7937 68.3014 52.5613 67.5964 52.8075C66.8153 53.0806 65.8306 52.9015 65.4994 52.3957C65.101 51.787 65.204 50.7844 65.204 49.9966V47.2796L63.9753 47.2707C63.9753 48.2106 63.9037 51.2969 64.0671 51.9996C64.7027 54.7121 68.8788 54.815 69.5614 52.0108C69.7248 51.3371 69.6531 48.1883 69.6531 47.2729V47.2707ZM85.1066 59.5014H83.9429L83.9339 60.5891L85.1066 60.5936C85.1066 61.3276 85.044 64.4474 85.1738 64.9264C85.3327 65.5105 85.7243 65.9245 86.1786 66.1394C86.6285 66.352 87.5908 66.3139 88.0809 66.1394L88.1056 65.0159C86.9418 65.2621 86.3599 65.4098 86.3621 63.8454C86.3621 62.7622 86.3621 61.679 86.3621 60.5958H88.1324L88.1369 59.5216L86.3621 59.5036V57.664L85.1089 57.6685V59.5036L85.1066 59.5014Z" fill="#040000"/>
</g>
</g>
<rect x="1" y="1" width="110" height="110" rx="9" stroke="black" stroke-opacity="0.1" stroke-width="2"/>
<defs>
<clipPath id="clip0_782_912">
<rect x="2" y="2" width="108" height="108" rx="8" fill="white"/>
</clipPath>
<clipPath id="clip1_782_912">
<rect width="80" height="28.7652" fill="white" transform="translate(16 41.6174)"/>
</clipPath>
</defs>
</svg>
