<svg width="112" height="112" viewBox="0 0 112 112" fill="none" xmlns="http://www.w3.org/2000/svg">
<g clip-path="url(#clip0_736_552)">
<rect x="2" y="2" width="108" height="108" rx="8" fill="white"/>
<g clip-path="url(#clip1_736_552)">
<path d="M17.5442 46.3821H94.4558C95.024 46.3821 95.4856 46.8437 95.4856 47.4119V73.1453C95.4856 73.7134 95.024 74.175 94.4558 74.175H17.5442C16.9761 74.175 16.5144 73.7134 16.5144 73.1453V47.4119C16.5144 46.8437 16.9761 46.3821 17.5442 46.3821Z" fill="white"/>
<path d="M94.4558 74.6894H17.5442C16.6925 74.6894 16 73.9969 16 73.1453V47.4109C16 46.5592 16.6925 45.8667 17.5442 45.8667H94.4558C95.3075 45.8667 96 46.5592 96 47.4109V73.1453C96 73.9969 95.3075 74.6894 94.4558 74.6894ZM17.5442 46.8965C17.2606 46.8965 17.0298 47.1273 17.0298 47.4109V73.1453C17.0298 73.4288 17.2606 73.6596 17.5442 73.6596H94.4558C94.7394 73.6596 94.9702 73.4288 94.9702 73.1453V47.4109C94.9702 47.1273 94.7394 46.8965 94.4558 46.8965H17.5442Z" fill="#0061BC"/>
<path d="M63.7318 40.4402C59.4844 35.7122 53.4072 33 47.0574 33C40.7077 33 34.6305 35.7122 30.3831 40.4402C29.2777 41.672 29.3792 43.5733 30.6109 44.6797C31.1631 45.1752 31.8755 45.4488 32.6167 45.4488C33.0326 45.4488 33.4396 45.3603 33.8137 45.1981C33.4654 45.7612 33.3102 46.4179 33.3809 47.0875C33.4654 47.8855 33.8554 48.6018 34.4773 49.1053C35.0096 49.5371 35.6802 49.7739 36.3657 49.7739C36.8403 49.7739 37.298 49.6614 37.7089 49.4555C37.68 49.5003 37.6492 49.543 37.6213 49.5878C36.7517 50.9957 37.1895 52.8493 38.5974 53.7189C39.062 54.0064 39.5943 54.1586 40.1395 54.1656L35.0812 65.3638C34.7937 66.0005 34.8484 66.7408 35.2275 67.3278C35.6066 67.9148 36.2582 68.27 36.9567 68.27H38.3248L34.5947 75.8535C34.1291 76.7997 34.4544 77.9449 35.3469 78.5051C35.6862 78.718 36.0652 78.8205 36.4403 78.8205C37.0542 78.8205 37.6591 78.5468 38.0621 78.0315L47.9688 65.3797C48.4544 64.7598 48.5439 63.9171 48.1987 63.2087C47.8534 62.5003 47.135 62.0516 46.348 62.0516H45.5153L51.2213 52.5C51.277 52.5806 51.3318 52.6612 51.3835 52.7458C51.9347 53.6373 52.8898 54.1696 53.9375 54.1696C54.4957 54.1696 55.0429 54.0134 55.5155 53.7208C56.9234 52.8503 57.3611 50.9967 56.4906 49.5888C56.4627 49.544 56.4319 49.5023 56.403 49.4575C56.8139 49.6634 57.2706 49.7759 57.7462 49.7759C58.4317 49.7759 59.1023 49.5381 59.6336 49.1082C60.2575 48.6038 60.6475 47.8865 60.732 47.0885C60.8027 46.4189 60.6485 45.7622 60.2992 45.1991C60.6733 45.3623 61.0803 45.4498 61.4972 45.4498C62.2384 45.4498 62.9508 45.1772 63.503 44.6807C64.7347 43.5743 64.8362 41.673 63.7298 40.4412L63.7318 40.4402Z" fill="white"/>
<path d="M22.5478 68.8281L27.0082 59.993H33.7838L34.728 58.02H27.9514L30.9532 52.5309H40.2171V50.3857H29.7523L20.3171 68.8281H22.5478Z" fill="#0061BC"/>
<path d="M56.3433 55.5326C52.1118 57.5912 48.509 62.8236 48.509 66.0542C48.509 69.2848 51.7118 71.3722 56.6288 67.4551V68.8272H59.0306C59.0306 68.8272 59.0336 66.88 59.1162 65.7965C59.2595 63.938 64.0591 55.7038 64.0591 55.7038C64.0591 55.7038 60.5748 53.4731 56.3433 55.5316V55.5326ZM52.655 67.4551C48.4951 67.4551 52.3973 60.5502 54.6708 58.5344C56.9442 56.5186 60.7837 55.8142 61.0753 56.7335C61.3618 57.634 60.2823 59.8726 59.7172 60.9083C59.1381 61.969 56.8149 67.4561 52.655 67.4561V67.4551Z" fill="#0061BC"/>
<path d="M65.7565 57.3982L67.43 55.2541H78.2371L65.5426 66.8552H72.941L71.2038 68.8491H60.6106L73.5927 57.4231L65.7565 57.3982Z" fill="#0061BC"/>
<path d="M79.3058 57.3982L80.9783 55.2541H91.7855L79.0909 66.8552H86.4894L84.7522 68.8491H74.1589L87.1411 57.4231L79.3058 57.3982Z" fill="#0061BC"/>
<path d="M43.7771 51.1151H49.6523L41.8897 64.1101H46.3501L36.4434 76.7619L41.633 66.2114H36.9577L43.7771 51.1151Z" fill="#FAA50C"/>
<path d="M53.9405 52.11C53.6241 52.11 53.3157 51.9508 53.1366 51.6623C51.8233 49.5371 49.5508 48.2685 47.0575 48.2685C44.5641 48.2685 42.2917 49.5371 40.9783 51.6623C40.7047 52.106 40.1227 52.2423 39.6799 51.9687C39.2362 51.6951 39.0999 51.1141 39.3735 50.6703C41.033 47.9849 43.9055 46.3821 47.0575 46.3821C50.2095 46.3821 53.0819 47.9849 54.7415 50.6703C55.0151 51.1141 54.8778 51.6951 54.435 51.9687C54.2808 52.0642 54.1087 52.11 53.9395 52.11H53.9405Z" fill="#0061BC"/>
<path d="M31.9143 41.8162C31.566 42.2043 31.5979 42.8002 31.9859 43.1485C32.3739 43.4967 32.9709 43.4649 33.3181 43.0768C36.8184 39.1806 41.8259 36.945 47.0574 36.945V35.0585C41.2917 35.0585 35.7727 37.521 31.9143 41.8162Z" fill="#FAA50C"/>
<path d="M35.6333 46.1791C35.305 46.584 35.3677 47.178 35.7736 47.5064C36.1785 47.8337 36.7725 47.772 37.1009 47.3661C39.5474 44.3424 43.177 42.6082 47.0583 42.6082V40.7208C42.6049 40.7208 38.4401 42.7107 35.6343 46.1791H35.6333Z" fill="#FAA50C"/>
<path d="M60.7966 43.0768C60.9837 43.2838 61.2404 43.3902 61.4991 43.3902C61.7239 43.3902 61.9488 43.3107 62.1289 43.1485C62.5169 42.8002 62.5488 42.2033 62.2005 41.8162C58.3421 37.522 52.8231 35.0585 47.0574 35.0585V36.946C52.2888 36.946 57.2964 39.1806 60.7966 43.0778V43.0768Z" fill="#0061BC"/>
<path d="M57.0148 47.3661C57.2009 47.5969 57.4735 47.7163 57.7491 47.7163C57.957 47.7163 58.168 47.6476 58.3421 47.5064C58.747 47.179 58.8097 46.585 58.4824 46.1791C55.6756 42.7107 51.5117 40.7208 47.0583 40.7208V42.6082C50.9397 42.6082 54.5692 44.3424 57.0158 47.3661H57.0148Z" fill="#0061BC"/>
</g>
</g>
<rect x="1" y="1" width="110" height="110" rx="9" stroke="black" stroke-opacity="0.1" stroke-width="2"/>
<defs>
<clipPath id="clip0_736_552">
<rect x="2" y="2" width="108" height="108" rx="8" fill="white"/>
</clipPath>
<clipPath id="clip1_736_552">
<rect width="80" height="45.8205" fill="white" transform="translate(16 33)"/>
</clipPath>
</defs>
</svg>
