<svg width="112" height="112" viewBox="0 0 112 112" fill="none" xmlns="http://www.w3.org/2000/svg">
<g clip-path="url(#clip0_511_148)">
<rect x="2" y="2" width="108" height="108" rx="8" fill="white"/>
<g clip-path="url(#clip1_511_148)">
<path d="M68.1373 59.2747C67.8535 59.1896 67.7795 58.9651 67.7653 58.7061C67.7435 58.3078 67.894 57.9434 68.0121 57.577C68.3172 56.6308 68.635 55.6886 68.9568 54.748C69.0855 54.3715 69.3191 54.0638 69.6567 53.8454C69.8523 53.7187 70.0687 53.669 70.3054 53.6701C71.9428 53.6746 73.5798 53.6726 75.2173 53.6726C75.569 53.6726 75.7845 53.4915 75.8639 53.1293C76.0362 52.6914 75.9156 52.5059 75.458 52.5054C73.8165 52.5054 72.175 52.5049 70.5334 52.5065C70.4331 52.5065 70.3332 52.5222 70.2329 52.5308C70.166 52.5257 70.0991 52.5171 70.0317 52.5156C69.7932 52.5105 69.7131 52.3911 69.7915 52.1573C69.9729 51.6145 70.1635 51.0747 70.3307 50.5279C70.392 50.3272 70.4944 50.2755 70.6941 50.276C72.9012 50.2826 75.1088 50.2801 77.3159 50.2801C77.8638 50.2801 77.9317 50.3358 78.031 50.871C78.0031 51.3484 77.8313 51.7888 77.6833 52.2358C76.9394 54.4814 76.1949 56.7271 75.4575 58.9747C75.3891 59.1835 75.2887 59.2555 75.0642 59.2545C72.8723 59.2453 70.6804 59.2484 68.4885 59.2499C68.3714 59.2499 68.2544 59.2666 68.1368 59.2752L68.1373 59.2747ZM70.3692 57.06C70.4782 57.0656 70.5872 57.0757 70.6966 57.0757C71.8415 57.0767 72.9863 57.0762 74.1307 57.0762C74.4669 57.0762 74.6657 56.9088 74.7272 56.574C74.7302 56.5578 74.7292 56.5406 74.7297 56.5238C74.8078 56.4189 74.8123 56.2867 74.86 56.1706C74.9487 55.9552 74.8742 55.9005 74.6522 55.9015C73.3375 55.9101 72.0229 55.904 70.7083 55.9066C70.2567 55.9076 69.9278 56.2228 69.8969 56.6718C69.8766 56.9637 70.0864 57.1918 70.3687 57.0595L70.3692 57.06Z" fill="#EE7229"/>
<path d="M40.5534 59.2164C40.2291 59.1131 40.1069 58.924 40.1627 58.587C40.2493 58.0609 40.4536 57.5683 40.6102 57.0631C40.8438 56.3084 41.1002 55.5604 41.346 54.8098C41.5026 54.3309 41.7925 53.9691 42.2542 53.7486C42.3809 53.6883 42.5117 53.6716 42.646 53.665C42.7889 53.6584 42.9323 53.6574 43.0752 53.6564C44.625 53.6472 46.1748 53.6376 47.7246 53.6295C48.1924 53.627 48.2263 53.5971 48.2709 53.1217C48.4189 52.6514 48.3135 52.5049 47.8275 52.5049C46.2285 52.5049 44.6296 52.5044 43.0301 52.5059C42.9131 52.5059 42.796 52.5216 42.6789 52.5303C42.6541 52.5267 42.6293 52.5211 42.6039 52.5196C42.1351 52.4882 42.1331 52.4877 42.2775 52.0422C42.4407 51.5385 42.6125 51.0372 42.7722 50.532C42.8183 50.3855 42.8827 50.3176 43.0524 50.3181C45.3771 50.3242 47.7018 50.3211 50.0265 50.3232C50.3513 50.3232 50.4339 50.4341 50.4907 50.907C50.4314 51.3702 50.2738 51.8066 50.1293 52.2475C49.397 54.4814 48.6627 56.7149 47.942 58.9524C47.8726 59.1678 47.7707 59.2144 47.5655 59.2144C45.2281 59.2104 42.8903 59.2144 40.5529 59.2169L40.5534 59.2164ZM42.8158 57.0499C42.9161 57.0549 43.017 57.0641 43.1173 57.0641C44.2941 57.0651 45.4704 57.0646 46.6471 57.0646C47.0845 57.0646 47.1012 57.0504 47.1676 56.6171C47.1727 56.5841 47.1702 56.5502 47.1712 56.5167C47.2518 56.424 47.2725 56.3054 47.3065 56.1939C47.3876 55.9283 47.3708 55.9065 47.0921 55.906C45.7871 55.9055 44.4816 55.904 43.1766 55.907C42.7423 55.9081 42.4615 56.1336 42.3591 56.5471C42.2552 56.9663 42.387 57.1117 42.8158 57.0499Z" fill="#EE7229"/>
<path d="M76.7836 59.2828C76.7755 59.2808 76.7674 59.2778 76.7588 59.2773C76.2525 59.2337 76.251 59.2332 76.4162 58.7314C76.5713 58.2606 76.7385 57.7939 76.884 57.32C76.9402 57.1366 77.0274 57.0717 77.223 57.0722C79.0668 57.0793 80.911 57.0767 82.7547 57.0757C83.1363 57.0757 83.37 56.8978 83.4941 56.5213C83.6816 56.1412 83.5463 55.9076 83.1373 55.9055C81.6144 55.8984 80.091 55.8929 78.5681 55.8837C78.3836 55.8827 78.1991 55.8665 78.0146 55.8574C77.6274 55.64 77.5073 55.3541 77.6584 54.8747C77.929 54.0162 78.2204 53.1638 78.5088 52.3113C78.6492 51.8973 78.7698 51.4761 78.9502 51.0758C79.194 50.535 79.5619 50.2578 80.205 50.2669C82.3964 50.2978 84.5883 50.2786 86.7802 50.2786C87.1122 50.2786 87.1106 50.2786 87.0103 50.5968C86.985 50.6764 86.9743 50.7605 86.9571 50.8431C86.7234 51.2851 86.6084 51.7706 86.4629 52.2424C86.395 52.4624 86.2962 52.5293 86.0732 52.5282C84.2523 52.5201 82.4314 52.5237 80.611 52.5237C80.2111 52.5237 79.9166 52.7411 79.8052 53.1161C79.6952 53.4861 79.8538 53.6827 80.242 53.6574C80.351 53.6645 80.4599 53.6772 80.5689 53.6772C82.0031 53.6787 83.4379 53.6782 84.8721 53.6782C85.4428 53.6782 85.5254 53.742 85.6723 54.296C85.6723 54.483 85.645 54.6659 85.5882 54.8438C85.351 55.5908 85.1164 56.3389 84.8706 57.0828C84.712 57.5628 84.5944 58.0599 84.3653 58.5115C84.1261 58.9843 83.7698 59.2616 83.1845 59.255C81.1679 59.2327 79.1504 59.2463 77.1333 59.2463C77.0157 59.2463 76.8977 59.2393 76.7841 59.2813L76.7836 59.2828Z" fill="#EE7229"/>
<path d="M48.1258 62.6546C48.0923 62.6505 48.0589 62.6444 48.0254 62.6424C47.583 62.6145 47.5804 62.614 47.7228 62.1817C48.4623 59.9341 49.2032 57.6864 49.9426 55.4388C50.4768 53.815 51.013 52.1917 51.537 50.5644C51.6019 50.3637 51.6982 50.312 51.8968 50.3125C54.0984 50.3186 56.3004 50.3161 58.5019 50.3166C59.0275 50.3166 59.14 50.4119 59.2449 50.9359C59.2125 51.1776 59.1896 51.4209 59.1131 51.6555C58.5627 53.3462 58.0189 55.0389 57.4635 56.7281C57.274 57.3043 57.1128 57.8917 56.8629 58.4456C56.6268 58.9696 56.2563 59.2676 55.6258 59.258C53.922 59.2312 52.2171 59.2514 50.5133 59.2453C50.3217 59.2448 50.233 59.3057 50.1717 59.4916C49.8514 60.4682 49.5113 61.4388 49.188 62.4143C49.1338 62.5786 49.0572 62.6399 48.8824 62.6348C48.6305 62.6272 48.3766 62.6054 48.1252 62.6551L48.1258 62.6546ZM57.0499 53.1019C57.2131 52.7264 57.0788 52.4968 56.6906 52.4963C55.3674 52.4948 54.0436 52.4994 52.7204 52.4918C52.5237 52.4907 52.4447 52.5632 52.3859 52.7452C51.9799 54.0025 51.5613 55.2563 51.1473 56.5112C51.0169 56.9068 51.1613 57.0827 51.5806 57.0387C52.7923 57.0555 54.0036 57.0712 55.2153 57.0296C55.5225 57.019 55.7287 56.8801 55.8352 56.6004C56.0115 56.1372 56.1864 55.6729 56.346 55.2041C56.5842 54.5048 56.8665 53.8201 57.0499 53.1019Z" fill="#EE7229"/>
<path d="M34.8791 59.2458C34.8543 59.2428 34.8289 59.2393 34.8041 59.2367C34.3343 59.1962 34.3287 59.1947 34.4797 58.7365C35.2232 56.4767 35.9743 54.2194 36.7107 51.9571C36.8298 51.5912 36.9919 51.2364 37.0462 50.8502C37.0908 50.7514 37.1445 50.6556 37.1784 50.5538C37.2874 50.2289 37.2844 50.2279 36.9331 50.2274C35.3149 50.2259 33.6972 50.2426 32.0806 50.1291C30.4431 50.014 28.8031 49.9284 27.1641 49.8321C25.9032 49.7581 24.6423 49.679 23.3804 49.6172C22.6577 49.5817 21.9375 49.4814 21.2118 49.5224C21.078 49.5229 20.9488 49.4971 20.8226 49.4555C20.6989 49.45 20.5747 49.4444 20.4511 49.4388H20.4653C20.3244 49.4429 20.183 49.4915 20.0416 49.4403C18.9859 49.3334 17.9247 49.308 16.8665 49.2325C16.6876 49.2199 16.4986 49.2558 16.3105 49.1631C16.3703 49.0653 16.455 49.0764 16.533 49.0724C18.6702 48.9558 20.8074 48.8403 22.9445 48.7227C24.804 48.6203 26.6634 48.5185 28.5223 48.4115C30.5749 48.2929 32.6269 48.1688 34.6789 48.0476C34.7463 48.0436 34.8137 48.0451 34.8811 48.0451C37.3705 48.0451 39.8594 48.0451 42.3488 48.0451C42.702 48.0451 42.7005 48.0451 42.5951 48.374C42.5692 48.4536 42.5551 48.5372 42.5353 48.6188C42.3827 49.0739 42.2256 49.5275 42.0817 49.9851C42.0254 50.163 41.9368 50.235 41.7396 50.2324C40.8542 50.2213 39.9689 50.2324 39.0835 50.2238C38.9091 50.2223 38.8255 50.2811 38.7754 50.4453C38.6355 50.904 38.4819 51.3591 38.3339 51.8157C37.9442 53.0168 37.556 54.2184 37.1642 55.419C36.775 56.6115 36.3802 57.8025 35.9946 58.9965C35.9413 59.1612 35.8552 59.2175 35.6839 59.2154C35.4158 59.2119 35.1447 59.1789 34.8791 59.2463V59.2458Z" fill="#EE7229"/>
<path d="M61.6173 57.0499C62.0643 57.055 62.5113 57.0636 62.9583 57.0641C64.317 57.0661 65.6757 57.0646 67.034 57.0651C67.2583 57.0651 67.3357 57.1742 67.2661 57.3925C67.2407 57.472 67.222 57.5536 67.1997 57.6347C66.9848 58.0574 66.8566 58.513 66.7086 58.9595C66.6346 59.183 66.5337 59.2545 66.2981 59.2534C64.0874 59.2438 61.8773 59.2474 59.6666 59.2484C59.5658 59.2484 59.4649 59.2565 59.3636 59.261C58.9703 58.9935 58.875 58.698 59.0412 58.1846C59.4457 56.9343 59.8582 55.6871 60.2657 54.4384C60.814 52.7573 61.3593 51.0753 61.9077 49.3947C62.0227 49.0415 62.1601 48.6979 62.3988 48.4049C62.6142 48.1409 62.8772 47.999 63.2284 48C65.4806 48.0051 67.7333 48.0025 69.9855 48.003C70.3302 48.003 70.3347 48.0117 70.2298 48.3426C70.2045 48.4222 70.1893 48.5053 70.1695 48.5864C69.9592 49.0014 69.8452 49.4515 69.7083 49.8919C69.6288 50.1478 69.5107 50.2269 69.2451 50.2248C67.4668 50.2127 65.6884 50.2178 63.9106 50.2193C63.4103 50.2193 63.1904 50.3723 63.012 50.8355C62.9816 50.9141 62.9568 50.9947 62.9304 51.0747C62.7029 51.7706 62.4738 52.4659 62.2483 53.1628C61.893 54.26 61.5362 55.3562 61.1891 56.4554C61.0482 56.9024 61.1926 57.0909 61.6168 57.0509L61.6173 57.0499Z" fill="#EE7229"/>
<path d="M85.5026 59.2768C85.4945 59.2752 85.4859 59.2732 85.4778 59.2722C84.968 59.223 84.9735 59.2246 85.1393 58.7152C85.7834 56.7306 86.4225 54.7445 87.0651 52.7598C87.547 51.2709 88.0336 49.7839 88.5105 48.2934C88.5769 48.0867 88.6726 47.9939 88.9022 48.0086C89.2382 48.0299 89.5768 48.0127 89.9138 48.0147C90.1753 48.0162 90.2067 48.0618 90.115 48.3147C90.0836 48.4024 90.0461 48.4865 90.0471 48.5818C89.8702 48.9619 89.7653 49.3673 89.6376 49.7642C89.4572 50.3247 89.4622 50.3262 90.0679 50.2659C91.0536 50.2705 92.0393 50.2755 93.025 50.2786C93.623 50.2806 94.2216 50.2786 94.8196 50.2786C95.3588 50.2786 95.4465 50.345 95.5975 50.8664C95.5849 51.0524 95.5463 51.2334 95.4886 51.4097C94.6569 53.9544 93.8232 56.4985 92.9982 59.0446C92.9455 59.2068 92.8664 59.2494 92.7093 59.2509C92.4412 59.2539 92.1701 59.2104 91.905 59.2833C91.8041 59.2773 91.7023 59.258 91.6029 59.2676C91.3703 59.2909 91.3592 59.1962 91.424 59.0056C92.016 57.2779 92.6039 55.5493 93.1847 53.818C93.2587 53.5976 93.3859 53.3883 93.3691 53.142C93.5784 52.7568 93.4452 52.5227 93.0123 52.5242C91.7307 52.5287 90.449 52.5054 89.1673 52.5531C88.7107 52.5698 88.7821 52.4669 88.6209 52.9615C87.9596 54.9872 87.2997 57.0134 86.646 59.0416C86.5953 59.1987 86.5228 59.2519 86.3606 59.2514C86.0748 59.2504 85.7869 59.2169 85.5031 59.2762L85.5026 59.2768Z" fill="#EE7229"/>
<path d="M21.5418 52.9737C21.5144 53.0305 21.4637 53.033 21.412 53.0244C20.4045 52.8536 19.3823 52.846 18.3677 52.7563C18.2435 52.7451 18.1199 52.731 17.9927 52.6737C18.1412 52.6529 18.2886 52.6235 18.4376 52.6134C19.809 52.5232 21.1804 52.439 22.5513 52.3478C24.7295 52.2029 26.9072 52.0524 29.0855 51.9059C30.3727 51.8197 31.66 51.7351 32.9473 51.654C33.336 51.6297 33.3355 51.6358 33.1849 52.0052C33.1535 52.0823 33.1322 52.1633 33.1064 52.2424C32.8621 52.6585 32.7192 53.1197 32.5312 53.5601C32.4592 53.7288 32.3817 53.7841 32.1957 53.7699C30.8015 53.6604 29.4063 53.5651 28.0116 53.4623C26.2727 53.334 24.5334 53.2109 22.7956 53.069C22.378 53.035 21.9548 53.067 21.5418 52.9732V52.9737Z" fill="#EE7229"/>
<path d="M23.0243 56.8882C23.1277 56.6992 22.9594 56.7225 22.8733 56.7129C22.4293 56.6632 21.9848 56.6226 21.5399 56.5806C21.3473 56.5623 21.1547 56.5436 20.9231 56.4696C21.4861 56.4113 22.0046 56.3556 22.5236 56.3039C24.084 56.1493 25.6439 55.9962 27.2043 55.8437C28.7146 55.6957 30.2254 55.5477 31.7361 55.4028C32.0017 55.3774 32.0073 55.3921 31.9323 55.6587C31.9008 55.7712 31.8471 55.8797 31.8578 56.0013C31.7919 56.0692 31.7569 56.1523 31.728 56.2415C31.6104 56.6014 31.4792 56.9571 31.3717 57.3195C31.3241 57.4801 31.2471 57.5318 31.0844 57.5151C29.6958 57.3722 28.3081 57.2141 26.917 57.1016C25.6221 56.9967 24.3364 56.6916 23.0248 56.8877L23.0243 56.8882Z" fill="#EE7229"/>
<path d="M20.4512 49.4383C20.5748 49.4439 20.699 49.4495 20.8217 49.4545C20.808 49.4327 20.8029 49.4332 20.809 49.454C20.8095 49.456 20.8242 49.4525 20.8323 49.4535C20.9696 49.4702 21.1115 49.4191 21.2453 49.4814C21.2474 49.4824 21.2413 49.5052 21.2352 49.5153C21.2322 49.5204 21.22 49.5199 21.2119 49.5219C21.9376 49.4814 22.6578 49.5812 23.3805 49.6167C24.6424 49.6785 25.9033 49.7576 27.1642 49.8316C28.8032 49.9279 30.4432 50.0135 32.0807 50.1286C33.6973 50.2421 35.315 50.2259 36.9332 50.2269C37.2845 50.2269 37.2875 50.2284 37.1785 50.5533C37.1441 50.6556 37.0909 50.7509 37.0463 50.8497C35.0723 50.8888 33.1034 50.7889 31.1345 50.6516C29.5289 50.5396 27.9209 50.4722 26.3138 50.3799C24.3708 50.2679 22.4282 50.1504 20.4851 50.0348C19.0803 49.9512 17.676 49.8676 16.2716 49.7829C16.1931 49.7784 16.1059 49.8062 16.0005 49.6983C17.3734 49.6101 18.7083 49.525 20.0427 49.4393C20.1836 49.4905 20.3245 49.4419 20.4659 49.4378L20.4588 49.451L20.4517 49.4378L20.4512 49.4383Z" fill="#231C18"/>
<path d="M48.126 62.6545C48.3768 62.6049 48.6312 62.6267 48.8831 62.6343C49.058 62.6399 49.134 62.578 49.1887 62.4138C49.512 61.4377 49.8516 60.4677 50.1724 59.4911C50.2337 59.3046 50.3224 59.2438 50.514 59.2448C52.2183 59.2509 53.9227 59.2306 55.6266 59.2575C56.257 59.2671 56.627 58.9696 56.8636 58.4451C57.1135 57.8912 57.2747 57.3038 57.4642 56.7276C58.0196 55.0384 58.5634 53.3457 59.1138 51.655C59.1904 51.4204 59.2132 51.1771 59.2456 50.9354C59.5167 50.9724 59.5902 51.1801 59.6313 51.4006C59.7037 51.7893 59.571 52.1522 59.4544 52.5115C58.864 54.3299 58.2695 56.1468 57.672 57.9631C57.5483 58.3387 57.4404 58.7208 57.2676 59.0791C57.0096 59.6143 56.6148 59.891 55.9894 59.8829C54.3099 59.8616 52.6299 59.8793 50.9503 59.8707C50.7365 59.8697 50.6432 59.9351 50.5768 60.1388C50.2611 61.1078 49.9256 62.0707 49.6017 63.0377C49.5516 63.1877 49.471 63.2526 49.3073 63.248C48.9444 63.2379 48.5816 63.2399 48.2187 63.247C48.0241 63.251 47.9496 63.1897 48.0251 62.9931C48.0672 62.8831 48.0935 62.7671 48.127 62.654L48.126 62.6545Z" fill="#231C18"/>
<path d="M68.1372 59.2747C68.2543 59.2656 68.3713 59.2494 68.4889 59.2494C70.6808 59.2479 72.8727 59.2448 75.0646 59.254C75.2896 59.255 75.3895 59.183 75.4579 58.9742C76.1948 56.7266 76.9398 54.4809 77.6837 52.2353C77.8317 51.7883 78.0035 51.3479 78.0314 50.8705C78.2894 50.8832 78.3644 51.0732 78.4069 51.277C78.4784 51.618 78.3993 51.9459 78.2924 52.2688C77.4912 54.6897 76.6869 57.1097 75.8942 59.5332C75.8111 59.7866 75.7017 59.8859 75.4179 59.8844C73.1991 59.8707 70.9798 59.8768 68.7606 59.8768C68.3105 59.8768 68.1681 59.7379 68.1377 59.2757L68.1372 59.2747Z" fill="#231C18"/>
<path d="M40.5534 59.2164C42.8907 59.2144 45.2286 59.2104 47.5659 59.2139C47.7712 59.2139 47.873 59.1678 47.9425 58.9519C48.6631 56.7144 49.397 54.4809 50.1298 52.247C50.2742 51.8066 50.4313 51.3702 50.4911 50.9065C50.7349 50.8989 50.8368 51.0514 50.8758 51.2597C50.9564 51.6849 50.8028 52.0757 50.6751 52.4664C50.2388 53.8023 49.7943 55.1357 49.3569 56.4716C49.0159 57.5126 48.6773 58.5546 48.3464 59.5991C48.2906 59.7744 48.2004 59.8287 48.0195 59.8282C45.7171 59.8226 43.4147 59.8251 41.1118 59.8236C40.6755 59.8236 40.5123 59.6406 40.5539 59.2159L40.5534 59.2164Z" fill="#231C18"/>
<path d="M34.8791 59.2458C35.1452 59.1779 35.4163 59.2114 35.6839 59.2149C35.8557 59.2169 35.9414 59.1607 35.9946 58.996C36.3803 57.802 36.775 56.6115 37.1643 55.4185C37.556 54.2179 37.9442 53.0163 38.334 51.8152C38.4819 51.3585 38.6355 50.9039 38.7754 50.4448C38.8255 50.2811 38.9087 50.2218 39.0835 50.2233C39.9689 50.2314 40.8543 50.2208 41.7396 50.2319C41.9368 50.2345 42.026 50.1625 42.0817 49.9846C42.2257 49.527 42.3833 49.0734 42.5353 48.6183C43.1379 48.5894 43.1399 48.5899 42.9625 49.1479C42.8125 49.6207 42.6478 50.0895 42.5095 50.5654C42.4436 50.7919 42.327 50.8609 42.0934 50.8573C41.242 50.8431 40.3905 50.8573 39.5391 50.8477C39.3384 50.8452 39.2462 50.9029 39.1813 51.1031C38.2701 53.9204 37.3477 56.7336 36.433 59.5499C36.3666 59.7552 36.2672 59.8449 36.0392 59.8307C35.6951 59.8094 35.3484 59.8256 35.0028 59.8251C34.6951 59.8246 34.6845 59.8068 34.7894 59.5083C34.8203 59.4212 34.8487 59.333 34.8781 59.2458H34.8791Z" fill="#231C18"/>
<path d="M61.6172 57.0499C61.193 57.0899 61.0486 56.9014 61.1895 56.4544C61.5366 55.3547 61.8939 54.2585 62.2487 53.1617C62.4742 52.4654 62.7033 51.7696 62.9308 51.0737C62.9572 50.9937 62.982 50.9131 63.0124 50.8345C63.1903 50.3713 63.4103 50.2188 63.911 50.2183C65.6893 50.2173 67.4677 50.2122 69.2455 50.2238C69.5111 50.2259 69.6292 50.1468 69.7087 49.8909C69.8456 49.451 69.9596 49.0004 70.1699 48.5854C70.5679 48.5698 70.7044 48.7509 70.5794 49.1287C70.4203 49.6076 70.2485 50.0824 70.1035 50.5654C70.0402 50.7778 69.9256 50.8284 69.7194 50.8274C67.9496 50.8208 66.1794 50.8234 64.4097 50.8239C63.7898 50.8239 63.5861 50.9673 63.393 51.5557C62.8062 53.3452 62.2223 55.1357 61.638 56.9262C61.6253 56.9653 61.6243 57.0083 61.6177 57.0499H61.6172Z" fill="#231C18"/>
<path d="M21.5418 52.9737C21.9549 53.068 22.3781 53.0355 22.7957 53.0695C24.5335 53.2114 26.2728 53.3345 28.0116 53.4628C29.4063 53.5656 30.8015 53.6609 32.1957 53.7704C32.3817 53.7851 32.4593 53.7293 32.5312 53.5606C32.7193 53.1197 32.8622 52.659 33.1065 52.2429C33.2408 52.2323 33.3756 52.2287 33.5089 52.21C33.7258 52.1801 33.7334 52.2687 33.6619 52.4375C33.4313 52.9798 33.1875 53.518 32.9904 54.0729C32.889 54.3573 32.74 54.4039 32.4659 54.3816C30.5172 54.225 28.5676 54.0856 26.6179 53.9392C24.8953 53.8099 23.1732 53.6776 21.4506 53.5494C20.4507 53.4749 19.4503 53.406 18.4504 53.331C18.3668 53.3249 18.2634 53.3497 18.198 53.2372C19.318 53.1252 20.4355 53.1176 21.5413 52.9732L21.5418 52.9737Z" fill="#231C18"/>
<path d="M76.7837 59.2829C76.8972 59.2408 77.0153 59.2479 77.1329 59.2479C79.1499 59.2479 81.167 59.2342 83.184 59.2565C83.7694 59.2631 84.1257 58.9854 84.3649 58.513C84.594 58.061 84.7115 57.5638 84.8702 57.0844C85.1165 56.3404 85.3506 55.5924 85.5878 54.8453C85.644 54.668 85.6724 54.4845 85.6719 54.2975C85.9395 54.3249 85.9917 54.5478 86.0515 54.743C86.1108 54.9381 86.1037 55.1484 86.0434 55.3435C85.6709 56.5502 85.2959 57.7564 84.8626 58.9423C84.6157 59.6184 84.2093 59.8758 83.4962 59.8758C81.3266 59.8758 79.1575 59.8758 76.9879 59.8758C76.7555 59.8758 76.6654 59.7648 76.7178 59.5428C76.7386 59.4557 76.7614 59.3695 76.7832 59.2823L76.7837 59.2829Z" fill="#231C18"/>
<path d="M85.5027 59.2768C85.787 59.2175 86.0748 59.2509 86.3602 59.2519C86.5218 59.2519 86.5948 59.1992 86.6455 59.0421C87.2993 57.0139 87.9591 54.9877 88.6205 52.9621C88.7817 52.4679 88.7107 52.5708 89.1668 52.5536C90.448 52.5059 91.7302 52.5293 93.0119 52.5247C93.4447 52.5232 93.5785 52.7573 93.3687 53.1425C92.0525 53.1481 90.7364 53.1582 89.4202 53.1552C89.2276 53.1552 89.1455 53.2104 89.0852 53.3979C88.4223 55.4646 87.7458 57.5268 87.0824 59.593C87.0144 59.8048 86.9166 59.891 86.6896 59.8799C86.3191 59.8621 85.9471 59.8702 85.5762 59.8768C85.3922 59.8799 85.3258 59.8195 85.3937 59.6366C85.4373 59.519 85.4667 59.3964 85.5022 59.2763L85.5027 59.2768Z" fill="#231C18"/>
<path d="M23.0242 56.8882C24.3357 56.6921 25.6215 56.9972 26.9164 57.1021C28.3075 57.2151 29.6951 57.3727 31.0838 57.5156C31.2464 57.5324 31.3235 57.4807 31.3711 57.32C31.4785 56.9572 31.6098 56.6019 31.7274 56.2421C31.7568 56.1529 31.7917 56.0698 31.8571 56.0018C32.2504 55.9505 32.3867 56.1093 32.2661 56.4782C32.1055 56.9658 31.9382 57.4513 31.7826 57.9409C31.733 58.0964 31.6554 58.1476 31.4877 58.1304C29.3845 57.9155 27.2807 57.7072 25.177 57.4979C23.9779 57.3788 22.7794 57.2612 21.5813 57.1426C21.6198 57.0991 21.6573 57.0555 21.6948 57.0119C21.9827 56.9815 22.2705 56.9506 22.5584 56.9202C22.5772 56.9404 22.5944 56.9394 22.6091 56.9151L23.0247 56.8887L23.0242 56.8882Z" fill="#231C18"/>
<path d="M91.9045 59.2844C92.1701 59.2114 92.4407 59.2545 92.7088 59.2519C92.8654 59.2504 92.945 59.2078 92.9977 59.0457C93.8233 56.499 94.657 53.9554 95.4881 51.4107C95.5459 51.2339 95.5839 51.053 95.5971 50.8675C95.9331 51.0154 96.0866 51.4447 95.9503 51.8608C95.5028 53.2251 95.0528 54.5889 94.6073 55.9537C94.2064 57.1822 93.8055 58.4111 93.4153 59.6432C93.3591 59.8216 93.2734 59.8844 93.0925 59.8793C92.722 59.8692 92.3505 59.8677 91.9806 59.8793C91.7652 59.8859 91.7337 59.7972 91.7971 59.6204C91.8366 59.5099 91.8691 59.3964 91.905 59.2844H91.9045Z" fill="#231C18"/>
<path d="M59.3635 59.2615C59.4644 59.257 59.5652 59.2489 59.6666 59.2489C61.8772 59.2484 64.0874 59.2443 66.298 59.2539C66.5337 59.255 66.6345 59.1835 66.7085 58.96C66.856 58.5135 66.9847 58.0579 67.1996 57.6352C67.267 57.6352 67.3344 57.6342 67.4018 57.6342C67.7961 57.6357 67.7997 57.6368 67.6755 57.9991C67.487 58.5475 67.2888 59.0928 67.1018 59.6421C67.0461 59.8058 66.9635 59.8814 66.7754 59.8808C64.5182 59.8748 62.2609 59.8778 60.0036 59.8758C59.5936 59.8758 59.3863 59.67 59.364 59.262L59.3635 59.2615Z" fill="#231C18"/>
<path d="M80.241 53.6589C79.8528 53.6843 79.6942 53.4876 79.8041 53.1177C79.9156 52.7421 80.2101 52.5252 80.6099 52.5252C82.4309 52.5252 84.2518 52.5217 86.0722 52.5298C86.2952 52.5308 86.394 52.4634 86.4619 52.2439C86.6079 51.7716 86.7229 51.2866 86.9561 50.8447C87.5257 50.869 87.5277 50.8695 87.3478 51.4148C87.1846 51.9089 87.0022 52.3975 86.8572 52.8972C86.7974 53.1035 86.7006 53.1541 86.502 53.1531C84.6912 53.147 82.8804 53.1607 81.0701 53.141C80.6505 53.1364 80.4047 53.3072 80.2405 53.6594L80.241 53.6589Z" fill="#231C18"/>
<path d="M70.233 52.5303C70.3333 52.5217 70.4331 52.5059 70.5335 52.5059C72.175 52.5044 73.8165 52.5049 75.458 52.5049C75.9152 52.5049 76.0358 52.6909 75.864 53.1288C74.0507 53.1288 72.2373 53.1283 70.424 53.1278C70.1669 53.1278 70.0782 53.009 70.158 52.7715C70.1848 52.6919 70.2081 52.6109 70.233 52.5303Z" fill="#231C18"/>
<path d="M42.6788 52.5303C42.7959 52.5217 42.913 52.5059 43.03 52.5059C44.629 52.5044 46.2279 52.5049 47.8274 52.5049C48.3139 52.5049 48.4188 52.6514 48.2708 53.1217C46.4347 53.1237 44.5986 53.1237 42.7624 53.1298C42.5541 53.1303 42.5101 53.0523 42.5785 52.8688C42.6195 52.7588 42.6459 52.6433 42.6788 52.5303Z" fill="#231C18"/>
<path d="M78.0148 55.8584C78.1993 55.8675 78.3837 55.8837 78.5682 55.8848C80.0911 55.8934 81.6146 55.8994 83.1375 55.9065C83.5465 55.9086 83.6818 56.1422 83.4943 56.5223C81.9308 56.5152 80.3668 56.5071 78.8034 56.5025C78.6584 56.5025 78.517 56.4889 78.3812 56.4443C78.1268 56.3606 77.9955 56.1452 78.0148 55.8589V55.8584Z" fill="#231C18"/>
<path d="M90.0679 50.2659C89.4623 50.3267 89.4572 50.3247 89.6377 49.7642C89.7654 49.3673 89.8703 48.9619 90.0471 48.5818C90.6355 48.5737 90.6391 48.5752 90.4582 49.1276C90.3335 49.5087 90.1982 49.8863 90.0679 50.2659Z" fill="#231C18"/>
<path d="M21.6943 57.0119C21.6568 57.0555 21.6193 57.099 21.5808 57.1426C21.5093 57.1492 21.4373 57.1614 21.375 57.0889C21.4804 57.0347 21.5797 56.9951 21.6943 57.0119Z" fill="#EE7229"/>
<path d="M22.6085 56.9151C22.5938 56.9394 22.5766 56.9404 22.5579 56.9201C22.5721 56.8913 22.5893 56.8948 22.6085 56.9151Z" fill="#EE7229"/>
<path d="M70.3692 57.06C70.0864 57.1923 69.8771 56.9642 69.8974 56.6723C69.9283 56.2233 70.2572 55.9081 70.7087 55.907C72.0234 55.9045 73.338 55.9101 74.6526 55.902C74.8741 55.9005 74.9491 55.9552 74.8604 56.1711C74.8128 56.2871 74.8082 56.4194 74.7297 56.5243C73.5113 56.5228 72.293 56.5193 71.0746 56.5208C70.73 56.5213 70.5101 56.6976 70.3697 57.06H70.3692Z" fill="#231C18"/>
<path d="M42.8157 57.0499C42.3875 57.1117 42.2552 56.9663 42.3591 56.5471C42.4615 56.1336 42.7422 55.9081 43.1766 55.9071C44.4816 55.904 45.7871 55.9055 47.0921 55.906C47.3703 55.906 47.387 55.9278 47.3065 56.1939C47.2725 56.3054 47.2517 56.4245 47.1706 56.5167C45.9736 56.5172 44.777 56.5167 43.58 56.5198C43.172 56.5208 42.9683 56.6667 42.8152 57.0499H42.8157Z" fill="#231C18"/>
<path d="M57.0501 53.1019C55.7786 53.1019 54.5065 53.1116 53.235 53.0948C52.9664 53.0913 52.8518 53.1759 52.7733 53.4248C52.4079 54.5782 52.0252 55.7261 51.6477 56.8756C51.6294 56.9313 51.6036 56.984 51.5813 57.0382C51.162 57.0822 51.0176 56.9063 51.148 56.5107C51.562 55.2558 51.9801 54.002 52.3866 52.7447C52.4454 52.5632 52.5244 52.4902 52.7211 52.4913C54.0443 52.4989 55.3681 52.4943 56.6913 52.4958C57.0795 52.4958 57.2133 52.7259 57.0506 53.1014L57.0501 53.1019Z" fill="#231C18"/>
<path d="M21.2118 49.5219C21.22 49.5199 21.2321 49.5204 21.2352 49.5153C21.2412 49.5052 21.2473 49.4819 21.2453 49.4814C21.1115 49.419 20.9696 49.4702 20.8323 49.4535C20.8241 49.4525 20.8094 49.456 20.8089 49.454C20.8029 49.4332 20.8079 49.4327 20.8216 49.4545C20.9488 49.4971 21.078 49.5229 21.2118 49.5224V49.5219Z" fill="#FFFFFE"/>
<path d="M20.4512 49.4383L20.4583 49.4515L20.4654 49.4383H20.4512Z" fill="#FFFFFE"/>
</g>
</g>
<rect x="1" y="1" width="110" height="110" rx="9" stroke="black" stroke-opacity="0.1" stroke-width="2"/>
<defs>
<clipPath id="clip0_511_148">
<rect x="2" y="2" width="108" height="108" rx="8" fill="white"/>
</clipPath>
<clipPath id="clip1_511_148">
<rect width="80" height="15.2485" fill="white" transform="translate(16 48)"/>
</clipPath>
</defs>
</svg>
