<svg width="112" height="112" viewBox="0 0 112 112" fill="none" xmlns="http://www.w3.org/2000/svg">
<g clip-path="url(#clip0_736_553)">
<rect x="2" y="2" width="108" height="108" rx="8" fill="white"/>
<path d="M53.5264 45.9999C52.7644 45.9999 51.9405 46.6057 51.9405 47.1506V60.7994H55.5786V45.9999H53.5264Z" fill="#1F327F"/>
<path d="M93.867 45.9999C93.105 45.9999 92.281 46.6057 92.281 47.1506V60.7994H95.9192V45.9999H93.867Z" fill="#1F327F"/>
<path d="M28.5922 52.7313C28.5922 52.7313 30.8615 51.8608 30.8615 49.5761C30.8615 46.5127 27.1148 46 25.4204 46H17.5859C16.824 46 16 46.6058 16 47.1507V60.7994H25.4204C27.1148 60.7994 31.444 60.2479 31.444 56.2255C31.444 53.4866 28.5911 52.7313 28.5911 52.7313H28.5922ZM25.1723 48.4719C26.1978 48.4719 27.0296 49.1918 27.0296 50.0811C27.0296 50.9704 26.1978 51.6903 25.1723 51.6903H19.6381V48.4719H25.1723ZM24.9862 58.2655H19.6381V54.1611H24.974C26.735 54.1611 27.5113 55.0792 27.5113 56.2133C27.5113 57.488 26.3374 58.2655 24.9851 58.2655H24.9862Z" fill="#1F327F"/>
<path d="M48.8317 59.9909C48.6302 59.5247 48.7697 57.2543 48.5205 55.716C48.2713 54.1766 46.3554 53.6605 46.3554 53.6605C46.3554 53.6605 49.0831 53.0193 49.0831 49.9183C49.0842 46.3034 45.5048 45.9999 43.5113 45.9999H35.5252C34.7632 45.9999 33.9392 46.6057 33.9392 47.1506V60.7994H37.5773V54.9075H42.6763C45.3653 54.9075 44.9145 57.8612 44.9145 58.9023C44.9145 59.9433 45.3187 60.7983 45.3187 60.7983H49.3921C49.3921 60.7983 49.0344 60.4561 48.8328 59.9898L48.8317 59.9909ZM43.1724 52.3891H37.5773V48.3478H43.1724C44.3873 48.3478 45.3719 49.2527 45.3719 50.369C45.3719 51.4854 44.3873 52.3902 43.1724 52.3902V52.3891Z" fill="#1F327F"/>
<path d="M57.6308 45.9999H72.4923V48.3002L62.1394 58.1868H72.3372V60.7983H57.4757V58.0938L67.9637 48.442C67.9637 48.442 61.8127 48.4553 59.8225 48.4553C58.2133 48.4553 57.6308 47.7476 57.6308 46.9557V45.9999Z" fill="#1F327F"/>
<path d="M74.9476 45.9999H89.8091V48.3002L79.4562 58.1868H89.654V60.7983H74.7925V58.0938L85.2816 48.442C85.2816 48.442 79.1306 48.4553 77.1404 48.4553C75.5312 48.4553 74.9487 47.7476 74.9487 46.9557V45.9999H74.9476Z" fill="#1F327F"/>
<path d="M59.3286 65.2715V65.1951C59.2566 65.2848 59.1824 65.3612 59.1038 65.4221C59.0251 65.483 58.9398 65.5284 58.8468 65.5583C58.7538 65.5882 58.6475 65.6026 58.5279 65.6026C58.3839 65.6026 58.2554 65.5727 58.1413 65.5129C58.0273 65.4531 57.9387 65.3712 57.8766 65.2671C57.8024 65.1408 57.7659 64.9592 57.7659 64.7222V63.5427C57.7659 63.4231 57.7925 63.3345 57.8467 63.2758C57.901 63.2171 57.9719 63.1872 58.0605 63.1872C58.1491 63.1872 58.2233 63.2171 58.2787 63.2769C58.334 63.3367 58.3617 63.4253 58.3617 63.5427V64.4962C58.3617 64.6347 58.3728 64.7499 58.3961 64.844C58.4193 64.9381 58.4614 65.0112 58.5212 65.0644C58.5821 65.1175 58.663 65.1441 58.7671 65.1441C58.8712 65.1441 58.962 65.1142 59.0506 65.0544C59.1392 64.9946 59.2034 64.9171 59.2444 64.8207C59.2776 64.7366 59.2942 64.5516 59.2942 64.267V63.5427C59.2942 63.4253 59.3219 63.3367 59.3773 63.2769C59.4327 63.2171 59.5047 63.1872 59.5933 63.1872C59.6819 63.1872 59.7527 63.2171 59.807 63.2758C59.8613 63.3345 59.8879 63.4242 59.8879 63.5427V65.2671C59.8879 65.38 59.8624 65.4653 59.8103 65.5218C59.7594 65.5783 59.6918 65.6071 59.611 65.6071C59.5301 65.6071 59.4626 65.5783 59.4094 65.5185C59.3563 65.4598 59.3297 65.3767 59.3297 65.2715H59.3286Z" fill="#1F327F"/>
<path d="M61.9844 65.2715C61.8404 65.3833 61.7008 65.4675 61.5668 65.5229C61.4328 65.5794 61.2811 65.6071 61.1139 65.6071C60.961 65.6071 60.827 65.5772 60.7118 65.5173C60.5967 65.4564 60.507 65.3756 60.4449 65.2715C60.3818 65.1685 60.3508 65.0566 60.3508 64.9359C60.3508 64.7731 60.4028 64.6347 60.5058 64.5195C60.6088 64.4043 60.7506 64.3279 60.9311 64.288C60.9688 64.2792 61.0629 64.2592 61.2124 64.2293C61.3619 64.1983 61.4904 64.1706 61.5978 64.1452C61.7042 64.1197 61.8204 64.0887 61.9456 64.0521C61.9378 63.8949 61.9068 63.7797 61.8503 63.7066C61.7939 63.6335 61.6787 63.5969 61.5026 63.5969C61.3509 63.5969 61.2379 63.618 61.1615 63.6601C61.0851 63.7022 61.0197 63.7653 60.9655 63.8495C60.9112 63.9336 60.8724 63.989 60.8503 64.0156C60.8281 64.0422 60.7794 64.0566 60.7052 64.0566C60.6376 64.0566 60.5812 64.0355 60.5313 63.9923C60.4826 63.9491 60.4582 63.8949 60.4582 63.8273C60.4582 63.7221 60.4948 63.6202 60.569 63.5216C60.6432 63.4231 60.7584 63.3411 60.9156 63.278C61.0729 63.2138 61.2678 63.1816 61.5015 63.1816C61.764 63.1816 61.9688 63.2126 62.1184 63.2747C62.2679 63.3367 62.3742 63.4341 62.4362 63.5682C62.4982 63.7022 62.5281 63.8794 62.5281 64.0998C62.5281 64.2393 62.5281 64.3578 62.5281 64.4553C62.5281 64.5527 62.5259 64.6613 62.5248 64.7798C62.5248 64.8916 62.5436 65.0079 62.5802 65.1297C62.6178 65.2515 62.6356 65.3291 62.6356 65.3645C62.6356 65.4254 62.6068 65.4808 62.5492 65.5317C62.4916 65.5816 62.4262 65.6071 62.3543 65.6071C62.2933 65.6071 62.2324 65.5783 62.1737 65.5207C62.1139 65.4631 62.0508 65.38 61.9844 65.2715ZM61.9445 64.4098C61.857 64.442 61.7307 64.4752 61.5646 64.5117C61.3985 64.5472 61.2833 64.5738 61.2191 64.5904C61.1548 64.607 61.0939 64.6402 61.0363 64.6878C60.9776 64.7366 60.9488 64.8041 60.9488 64.8916C60.9488 64.9791 60.9832 65.0588 61.0518 65.122C61.1205 65.1851 61.2091 65.2172 61.3199 65.2172C61.4372 65.2172 61.5458 65.1917 61.6455 65.1397C61.7451 65.0887 61.8182 65.0223 61.8647 64.9403C61.9179 64.8506 61.9456 64.7022 61.9456 64.4951V64.4098H61.9445Z" fill="#1F327F"/>
<path d="M63.6744 63.5161V63.5881C63.7796 63.4496 63.8937 63.3489 64.0177 63.2846C64.1418 63.2204 64.2846 63.1872 64.4463 63.1872C64.608 63.1872 64.7431 63.2215 64.8672 63.2902C64.9912 63.3588 65.0831 63.4552 65.144 63.5803C65.1839 63.6534 65.2094 63.7321 65.2205 63.8151C65.2315 63.8993 65.2371 64.0067 65.2371 64.1374V65.2449C65.2371 65.3645 65.2105 65.4542 65.1551 65.5151C65.1008 65.576 65.03 65.6059 64.9425 65.6059C64.855 65.6059 64.7819 65.5749 64.7265 65.5118C64.6711 65.4498 64.6435 65.3601 64.6435 65.2438V64.2515C64.6435 64.0555 64.6158 63.9048 64.5615 63.8007C64.5072 63.6966 64.3987 63.6446 64.2359 63.6446C64.1296 63.6446 64.0332 63.6767 63.9457 63.7398C63.8582 63.8029 63.794 63.8904 63.7541 64.0001C63.7253 64.0887 63.7109 64.2548 63.7109 64.4973V65.2427C63.7109 65.3634 63.6833 65.4542 63.6268 65.514C63.5703 65.5738 63.4983 65.6037 63.4097 65.6037C63.3211 65.6037 63.2535 65.5727 63.1982 65.5096C63.1428 65.4476 63.1151 65.3579 63.1151 65.2416V63.5205C63.1151 63.4076 63.1395 63.3223 63.1893 63.2669C63.238 63.2115 63.3067 63.1827 63.392 63.1827C63.444 63.1827 63.4917 63.1949 63.5337 63.2204C63.5758 63.2448 63.6102 63.2824 63.6356 63.3312C63.6611 63.381 63.6733 63.4408 63.6733 63.5117L63.6744 63.5161Z" fill="#1F327F"/>
<path d="M68.0202 63.6235V65.3523C68.0202 65.5506 67.9992 65.72 67.9571 65.8629C67.915 66.0058 67.8474 66.1231 67.7544 66.2162C67.6614 66.3092 67.5396 66.3779 67.3889 66.4233C67.2383 66.4687 67.0511 66.4908 66.8274 66.4908C66.6225 66.4908 66.4398 66.462 66.2781 66.4045C66.1164 66.3469 65.9924 66.2727 65.9049 66.1818C65.8174 66.091 65.7742 65.998 65.7742 65.9016C65.7742 65.8286 65.7986 65.7699 65.8484 65.7244C65.8982 65.679 65.9569 65.6558 66.0278 65.6558C66.1153 65.6558 66.1917 65.6945 66.2571 65.771C66.2892 65.8097 66.3224 65.8496 66.3556 65.8895C66.39 65.9293 66.4276 65.9637 66.4697 65.9925C66.5107 66.0201 66.5605 66.0423 66.6192 66.0556C66.6768 66.0689 66.7444 66.0766 66.8197 66.0766C66.9736 66.0766 67.0932 66.0556 67.1785 66.0124C67.2638 65.9692 67.3236 65.9094 67.3568 65.833C67.3911 65.7555 67.4111 65.6735 67.4166 65.586C67.4222 65.4985 67.4266 65.3568 67.4299 65.1618C67.338 65.2903 67.2328 65.3867 67.1121 65.4542C66.9925 65.5218 66.8496 65.555 66.6835 65.555C66.4841 65.555 66.3102 65.5041 66.1618 65.4022C66.0123 65.3003 65.8982 65.1574 65.8185 64.9747C65.7388 64.7919 65.6989 64.5804 65.6989 64.3401C65.6989 64.1607 65.7233 64.0001 65.772 63.8561C65.8207 63.7121 65.8905 63.5914 65.9802 63.4917C66.0699 63.3932 66.174 63.319 66.2925 63.268C66.4099 63.2182 66.5395 63.1927 66.6801 63.1927C66.8485 63.1927 66.9947 63.2248 67.1187 63.2902C67.2427 63.3555 67.3568 63.4563 67.4631 63.5947V63.5139C67.4631 63.4109 67.4886 63.3312 67.5396 63.2736C67.5905 63.2171 67.6558 63.1883 67.7356 63.1883C67.8508 63.1883 67.9261 63.2259 67.9648 63.3012C68.0025 63.3766 68.0213 63.484 68.0213 63.6246L68.0202 63.6235ZM66.2958 64.3777C66.2958 64.6192 66.3479 64.8019 66.4542 64.9248C66.5594 65.0489 66.6956 65.1098 66.8629 65.1098C66.9614 65.1098 67.0545 65.0832 67.1431 65.03C67.2306 64.9769 67.3026 64.8971 67.3579 64.7908C67.4133 64.6834 67.441 64.5538 67.441 64.401C67.441 64.1584 67.3878 63.9691 67.2804 63.834C67.1741 63.6988 67.0334 63.6313 66.8584 63.6313C66.6835 63.6313 66.5517 63.6955 66.4498 63.8251C66.3468 63.9547 66.2958 64.1385 66.2958 64.3766V64.3777Z" fill="#1F327F"/>
<path d="M70.0392 62.9103C69.9561 62.9103 69.8852 62.8848 69.8265 62.8339C69.7678 62.7829 69.7379 62.711 69.7379 62.6179C69.7379 62.5338 69.7678 62.464 69.8288 62.4097C69.8897 62.3554 69.9594 62.3278 70.0392 62.3278C70.1189 62.3278 70.1843 62.3521 70.2441 62.402C70.3039 62.4518 70.3338 62.5238 70.3338 62.6179C70.3338 62.7121 70.305 62.7807 70.2463 62.8328C70.1876 62.8837 70.1189 62.9103 70.0392 62.9103ZM70.3338 65.246C70.3338 65.3656 70.305 65.4553 70.2485 65.5162C70.192 65.5772 70.12 65.6071 70.0325 65.6071C69.945 65.6071 69.8742 65.576 69.8199 65.5129C69.7656 65.4509 69.7379 65.3612 69.7379 65.2449V63.5416C69.7379 63.4242 69.7656 63.3356 69.8199 63.2758C69.8742 63.216 69.945 63.1861 70.0325 63.1861C70.12 63.1861 70.192 63.216 70.2485 63.2758C70.305 63.3356 70.3338 63.4186 70.3338 63.5239V65.246Z" fill="#1F327F"/>
<path d="M72.8655 64.8296C72.8655 64.9935 72.8256 65.1342 72.7459 65.2515C72.6662 65.3689 72.5477 65.4575 72.3915 65.5173C72.2353 65.5772 72.0448 65.6071 71.8211 65.6071C71.5974 65.6071 71.4235 65.5749 71.2718 65.5096C71.119 65.4443 71.0071 65.3623 70.934 65.2648C70.8609 65.1663 70.8244 65.0677 70.8244 64.9691C70.8244 64.9038 70.8476 64.8473 70.8942 64.8008C70.9407 64.7543 70.9994 64.731 71.0714 64.731C71.1334 64.731 71.1821 64.7465 71.2153 64.7764C71.2486 64.8074 71.2807 64.8495 71.3117 64.9049C71.3726 65.0112 71.4457 65.0899 71.531 65.143C71.6162 65.1951 71.7314 65.2216 71.8787 65.2216C71.9983 65.2216 72.0958 65.1951 72.1722 65.1419C72.2486 65.0887 72.2863 65.0278 72.2863 64.9592C72.2863 64.8551 72.2464 64.7786 72.1678 64.7299C72.0891 64.6823 71.9585 64.6358 71.7768 64.5926C71.5719 64.5416 71.4047 64.4885 71.2762 64.432C71.1478 64.3766 71.0448 64.3024 70.9673 64.2105C70.8908 64.1186 70.8521 64.0067 70.8521 63.8727C70.8521 63.7531 70.8875 63.6412 70.9595 63.5349C71.0304 63.4286 71.1356 63.3444 71.274 63.2813C71.4125 63.2182 71.5808 63.1861 71.7768 63.1861C71.9308 63.1861 72.0692 63.2016 72.1921 63.2337C72.3151 63.2658 72.417 63.309 72.5 63.3622C72.582 63.4153 72.6451 63.4751 72.6872 63.5405C72.7304 63.6058 72.7514 63.67 72.7514 63.7321C72.7514 63.8007 72.7282 63.8561 72.6828 63.9004C72.6374 63.9436 72.572 63.9657 72.4878 63.9657C72.4269 63.9657 72.3749 63.948 72.3317 63.9137C72.2885 63.8783 72.2398 63.8262 72.1844 63.7564C72.139 63.6977 72.0858 63.6523 72.0249 63.6169C71.964 63.5826 71.8809 63.5648 71.7768 63.5648C71.6727 63.5648 71.5797 63.5881 71.5088 63.6335C71.4368 63.6789 71.4014 63.7365 71.4014 63.804C71.4014 63.8661 71.428 63.9181 71.48 63.958C71.5321 63.9979 71.603 64.0311 71.6916 64.0577C71.7802 64.0842 71.902 64.1164 72.0581 64.154C72.2431 64.1994 72.3937 64.2526 72.5111 64.3157C72.6285 64.3777 72.7171 64.4519 72.7769 64.5372C72.8367 64.6225 72.8677 64.7188 72.8677 64.8285L72.8655 64.8296Z" fill="#1F327F"/>
<path d="M73.6695 62.9103C73.5865 62.9103 73.5167 62.8848 73.4569 62.8339C73.3982 62.7829 73.3683 62.711 73.3683 62.6179C73.3683 62.5338 73.3982 62.464 73.4591 62.4097C73.5189 62.3554 73.5898 62.3278 73.6695 62.3278C73.7493 62.3278 73.8146 62.3521 73.8744 62.402C73.9342 62.4518 73.9641 62.5238 73.9641 62.6179C73.9641 62.7121 73.9353 62.7807 73.8767 62.8328C73.818 62.8837 73.7493 62.9103 73.6695 62.9103ZM73.9641 65.246C73.9641 65.3656 73.9365 65.4553 73.8789 65.5162C73.8224 65.5772 73.7504 65.6071 73.6629 65.6071C73.5754 65.6071 73.5045 65.576 73.4503 65.5129C73.396 65.4509 73.3683 65.3612 73.3683 65.2449V63.5416C73.3683 63.4242 73.3949 63.3356 73.4503 63.2758C73.5045 63.216 73.5754 63.1861 73.6629 63.1861C73.7504 63.1861 73.8213 63.216 73.8789 63.2758C73.9353 63.3356 73.9641 63.4186 73.9641 63.5239V65.246Z" fill="#1F327F"/>
<path d="M77.2412 65.2715V65.1951C77.1703 65.2848 77.095 65.3612 77.0164 65.4221C76.9378 65.483 76.8525 65.5284 76.7595 65.5583C76.6664 65.5882 76.5601 65.6026 76.4405 65.6026C76.2965 65.6026 76.1681 65.5727 76.054 65.5129C75.9399 65.4531 75.8513 65.3712 75.7893 65.2671C75.7151 65.1408 75.6785 64.9592 75.6785 64.7222V63.5427C75.6785 63.4231 75.7051 63.3345 75.7594 63.2758C75.8126 63.2171 75.8845 63.1872 75.9731 63.1872C76.0617 63.1872 76.1359 63.2171 76.1913 63.2769C76.2467 63.3367 76.2744 63.4253 76.2744 63.5427V64.4962C76.2744 64.6347 76.2866 64.7499 76.3098 64.844C76.3331 64.9381 76.3752 65.0112 76.435 65.0644C76.4948 65.1175 76.5767 65.1441 76.6797 65.1441C76.7827 65.1441 76.8746 65.1142 76.9632 65.0544C77.0518 64.9946 77.1161 64.9171 77.1571 64.8207C77.1903 64.7366 77.2069 64.5516 77.2069 64.267V63.5427C77.2069 63.4253 77.2346 63.3367 77.2899 63.2769C77.3453 63.2171 77.4173 63.1872 77.5059 63.1872C77.5945 63.1872 77.6654 63.2171 77.7197 63.2758C77.7739 63.3345 77.8005 63.4242 77.8005 63.5427V65.2671C77.8005 65.38 77.775 65.4653 77.723 65.5218C77.6709 65.5783 77.6045 65.6071 77.5236 65.6071C77.4428 65.6071 77.3752 65.5783 77.3221 65.5185C77.2689 65.4598 77.2423 65.3767 77.2423 65.2715H77.2412Z" fill="#1F327F"/>
<path d="M78.393 65.246V62.6644C78.393 62.5459 78.4196 62.4551 78.4728 62.3942C78.5259 62.3333 78.5968 62.3023 78.6876 62.3023C78.7784 62.3023 78.8504 62.3322 78.9058 62.3931C78.9612 62.4529 78.9888 62.5437 78.9888 62.6644V65.246C78.9888 65.3667 78.9612 65.4575 78.9047 65.5173C78.8482 65.5772 78.7762 65.6071 78.6876 65.6071C78.599 65.6071 78.5292 65.576 78.475 65.5129C78.4207 65.4509 78.393 65.3612 78.393 65.2449V65.246Z" fill="#1F327F"/>
<path d="M81.1075 65.2715C80.9635 65.3833 80.824 65.4675 80.69 65.5229C80.556 65.5794 80.4042 65.6071 80.2381 65.6071C80.0853 65.6071 79.9513 65.5772 79.8361 65.5173C79.7209 65.4564 79.6312 65.3756 79.5692 65.2715C79.5072 65.1685 79.4762 65.0566 79.4762 64.9359C79.4762 64.7731 79.5282 64.6347 79.6312 64.5195C79.7342 64.4043 79.876 64.3279 80.0565 64.288C80.0941 64.2792 80.1883 64.2592 80.3378 64.2293C80.4873 64.1983 80.6158 64.1706 80.7221 64.1452C80.8295 64.1197 80.9447 64.0887 81.0698 64.0521C81.0621 63.8949 81.0311 63.7797 80.9746 63.7066C80.9181 63.6335 80.8029 63.5969 80.6268 63.5969C80.4751 63.5969 80.3621 63.618 80.2857 63.6601C80.2093 63.7022 80.144 63.7653 80.0897 63.8495C80.0354 63.9336 79.9967 63.989 79.9745 64.0156C79.9524 64.0422 79.9036 64.0566 79.8294 64.0566C79.763 64.0566 79.7043 64.0355 79.6556 63.9923C79.6068 63.9491 79.5825 63.8949 79.5825 63.8273C79.5825 63.7221 79.619 63.6202 79.6932 63.5216C79.7674 63.4231 79.8826 63.3411 80.0399 63.278C80.1971 63.2138 80.3921 63.1816 80.6268 63.1816C80.8882 63.1816 81.0942 63.2126 81.2437 63.2747C81.3932 63.3367 81.4995 63.4341 81.5605 63.5682C81.6225 63.7022 81.6535 63.8794 81.6535 64.0998C81.6535 64.2393 81.6535 64.3578 81.6524 64.4553C81.6524 64.5527 81.6502 64.6613 81.6491 64.7798C81.6491 64.8916 81.6679 65.0079 81.7044 65.1297C81.7421 65.2515 81.7598 65.3291 81.7598 65.3645C81.7598 65.4254 81.731 65.4808 81.6734 65.5317C81.6158 65.5816 81.5505 65.6071 81.4785 65.6071C81.4176 65.6071 81.3567 65.5783 81.298 65.5207C81.2382 65.4631 81.1751 65.38 81.1086 65.2715H81.1075ZM81.0676 64.4098C80.9801 64.442 80.8539 64.4752 80.6878 64.5117C80.5216 64.5472 80.4053 64.5738 80.3422 64.5904C80.278 64.607 80.2171 64.6402 80.1595 64.6878C80.1019 64.7366 80.072 64.8041 80.072 64.8916C80.072 64.9791 80.1063 65.0588 80.1739 65.122C80.2425 65.1851 80.3311 65.2172 80.4419 65.2172C80.5593 65.2172 80.6689 65.1917 80.7686 65.1397C80.8683 65.0887 80.9414 65.0223 80.9879 64.9403C81.0422 64.8506 81.0687 64.7022 81.0687 64.4951V64.4098H81.0676Z" fill="#1F327F"/>
<path d="M82.7975 63.5881C82.9016 63.4496 83.0168 63.3489 83.1409 63.2846C83.2649 63.2204 83.4078 63.1872 83.5695 63.1872C83.7312 63.1872 83.8663 63.2215 83.9903 63.2902C84.1143 63.3588 84.2063 63.4552 84.2672 63.5803C84.3059 63.6534 84.3314 63.7321 84.3436 63.8151C84.3558 63.8993 84.3613 64.0067 84.3613 64.1374V65.2449C84.3613 65.3645 84.3336 65.4542 84.2794 65.5151C84.2251 65.576 84.1542 65.6059 84.0667 65.6059C83.9792 65.6059 83.9061 65.5749 83.8508 65.5118C83.7954 65.4498 83.7677 65.3601 83.7677 65.2438V64.2515C83.7677 64.0555 83.74 63.9048 83.6857 63.8007C83.6315 63.6966 83.5229 63.6446 83.3601 63.6446C83.2538 63.6446 83.1575 63.6767 83.07 63.7398C82.9825 63.8029 82.9183 63.8904 82.8784 64.0001C82.8496 64.0887 82.8352 64.2548 82.8352 64.4973V65.2427C82.8352 65.3634 82.8075 65.4542 82.751 65.514C82.6956 65.5738 82.6226 65.6037 82.534 65.6037C82.4454 65.6037 82.3778 65.5727 82.3224 65.5096C82.267 65.4476 82.2393 65.3579 82.2393 65.2416V63.5205C82.2393 63.4076 82.2637 63.3223 82.3136 63.2669C82.3634 63.2115 82.431 63.1827 82.5162 63.1827C82.5683 63.1827 82.6159 63.1949 82.658 63.2204C82.7001 63.2448 82.7333 63.2824 82.7588 63.3312C82.7842 63.381 82.7975 63.4408 82.7975 63.5117V63.5881Z" fill="#1F327F"/>
<path d="M87.1433 63.6235V65.3523C87.1433 65.5506 87.1223 65.72 87.0802 65.8629C87.0381 66.0058 86.9706 66.1231 86.8775 66.2162C86.7845 66.3092 86.6627 66.3779 86.5121 66.4233C86.3615 66.4687 86.1743 66.4908 85.9506 66.4908C85.7457 66.4908 85.5618 66.462 85.4013 66.4045C85.2407 66.3469 85.1155 66.2727 85.028 66.1818C84.9405 66.091 84.8973 65.998 84.8973 65.9016C84.8973 65.8286 84.9217 65.7699 84.9715 65.7244C85.0214 65.679 85.0812 65.6558 85.151 65.6558C85.2385 65.6558 85.3149 65.6945 85.3802 65.771C85.4123 65.8097 85.4456 65.8496 85.4799 65.8895C85.5142 65.9293 85.5519 65.9637 85.5928 65.9925C85.6349 66.0201 85.6837 66.0423 85.7424 66.0556C85.8011 66.0689 85.8675 66.0766 85.9428 66.0766C86.0968 66.0766 86.2164 66.0556 86.3017 66.0124C86.3869 65.9692 86.4467 65.9094 86.4811 65.833C86.5154 65.7555 86.5353 65.6735 86.5409 65.586C86.5464 65.4985 86.5508 65.3568 86.5542 65.1618C86.4622 65.2903 86.357 65.3867 86.2374 65.4542C86.1178 65.5218 85.9738 65.555 85.8088 65.555C85.6095 65.555 85.4356 65.5041 85.2861 65.4022C85.1366 65.3003 85.0225 65.1574 84.9427 64.9747C84.863 64.7919 84.8231 64.5804 84.8231 64.3401C84.8231 64.1607 84.8475 64.0001 84.8962 63.8561C84.945 63.7121 85.0147 63.5914 85.1044 63.4917C85.1942 63.3932 85.2983 63.319 85.4157 63.268C85.5342 63.2182 85.6626 63.1927 85.8044 63.1927C85.9727 63.1927 86.1189 63.2248 86.243 63.2902C86.367 63.3544 86.4811 63.4563 86.5874 63.5947V63.5139C86.5874 63.4109 86.6129 63.3312 86.6638 63.2736C86.7147 63.2171 86.7801 63.1883 86.8598 63.1883C86.975 63.1883 87.0514 63.2259 87.0891 63.3012C87.1267 63.3766 87.1456 63.484 87.1456 63.6246L87.1433 63.6235ZM85.419 64.3777C85.419 64.6192 85.4721 64.8019 85.5773 64.9248C85.6826 65.0489 85.8188 65.1098 85.986 65.1098C86.0846 65.1098 86.1787 65.0832 86.2662 65.03C86.3548 64.9769 86.4257 64.8971 86.4811 64.7908C86.5364 64.6834 86.5641 64.5538 86.5641 64.401C86.5641 64.1584 86.511 63.9691 86.4035 63.834C86.2972 63.6988 86.1566 63.6313 85.9816 63.6313C85.8066 63.6313 85.6759 63.6955 85.5729 63.8251C85.471 63.9547 85.419 64.1385 85.419 64.3766V64.3777Z" fill="#1F327F"/>
<path d="M90.2676 65.5528H89.2908C89.1502 65.5528 89.0494 65.5207 88.9885 65.4575C88.9287 65.3944 88.8976 65.2936 88.8976 65.1552V62.7519C88.8976 62.6113 88.9287 62.5094 88.9907 62.4474C89.0527 62.3853 89.1524 62.3554 89.2908 62.3554H90.3263C90.4791 62.3554 90.6109 62.3643 90.7228 62.3831C90.8347 62.402 90.9354 62.4385 91.024 62.4928C91.0993 62.5382 91.1669 62.5947 91.2245 62.6633C91.2821 62.732 91.3264 62.8084 91.3574 62.8926C91.3873 62.9767 91.4028 63.0642 91.4028 63.1573C91.4028 63.4773 91.2433 63.711 90.9233 63.8594C91.343 63.9934 91.5534 64.2537 91.5534 64.6402C91.5534 64.8185 91.508 64.9802 91.4161 65.1231C91.3242 65.2659 91.2012 65.3723 91.0451 65.4409C90.9476 65.4819 90.8358 65.5107 90.7095 65.5273C90.5833 65.5439 90.436 65.5528 90.2665 65.5528H90.2676ZM89.5455 62.8427V63.6689H90.1392C90.3008 63.6689 90.4249 63.6534 90.5135 63.6235C90.601 63.5925 90.6685 63.5349 90.715 63.4485C90.7516 63.3876 90.7693 63.319 90.7693 63.2437C90.7693 63.082 90.7117 62.9756 90.5965 62.9225C90.4814 62.8693 90.3064 62.8427 90.0716 62.8427H89.5455ZM90.22 64.1341H89.5455V65.0677H90.241C90.6785 65.0677 90.8978 64.9093 90.8978 64.5948C90.8978 64.4331 90.8413 64.3168 90.7272 64.2437C90.6143 64.1706 90.4448 64.1352 90.2189 64.1352L90.22 64.1341Z" fill="#1F327F"/>
<path d="M92.9843 64.1861H92.7572V65.2128C92.7572 65.3479 92.7273 65.4476 92.6675 65.5118C92.6077 65.576 92.5302 65.6082 92.4339 65.6082C92.3309 65.6082 92.25 65.5749 92.1935 65.5085C92.137 65.442 92.1083 65.3435 92.1083 65.2139V62.7541C92.1083 62.6146 92.1393 62.5138 92.2024 62.4507C92.2644 62.3887 92.3663 62.3577 92.5058 62.3577H93.5591C93.7042 62.3577 93.8282 62.3632 93.9323 62.3765C94.0353 62.3887 94.1283 62.4141 94.2114 62.4518C94.3111 62.4939 94.3997 62.5548 94.4772 62.6334C94.5536 62.7121 94.6123 62.8029 94.6533 62.907C94.6932 63.0111 94.7131 63.1207 94.7131 63.237C94.7131 63.4751 94.6455 63.6656 94.5115 63.8085C94.3764 63.9513 94.1726 64.0521 93.9002 64.1119C94.0154 64.1728 94.125 64.2637 94.2291 64.3822C94.3332 64.5018 94.4274 64.628 94.5093 64.7631C94.5913 64.8971 94.6555 65.019 94.7009 65.1275C94.7463 65.236 94.7696 65.3102 94.7696 65.3512C94.7696 65.3922 94.7563 65.4354 94.7286 65.4764C94.702 65.5173 94.6644 65.5506 94.6189 65.5749C94.5724 65.5993 94.5182 65.6104 94.4573 65.6104C94.3842 65.6104 94.3232 65.5938 94.2734 65.5594C94.2247 65.5251 94.1815 65.4819 94.146 65.4299C94.1106 65.3778 94.0619 65.3003 94.001 65.1984L93.7418 64.7665C93.6488 64.6081 93.5657 64.4874 93.4926 64.4043C93.4195 64.3212 93.3453 64.2648 93.2689 64.2338C93.1936 64.2039 93.0984 64.1884 92.9832 64.1884L92.9843 64.1861ZM93.3553 62.8427H92.7572V63.7221H93.3376C93.4937 63.7221 93.6244 63.7088 93.7296 63.6811C93.836 63.6545 93.9168 63.608 93.9722 63.5438C94.0286 63.4796 94.0563 63.3898 94.0563 63.2769C94.0563 63.1883 94.0342 63.1096 93.9888 63.0421C93.9434 62.9745 93.8814 62.9236 93.8016 62.8904C93.7263 62.8582 93.5768 62.8427 93.3542 62.8427H93.3553Z" fill="#1F327F"/>
<path d="M95.3532 65.2128V62.6943C95.3532 62.5637 95.3831 62.4651 95.443 62.3997C95.5028 62.3344 95.5792 62.3012 95.6744 62.3012C95.7697 62.3012 95.8505 62.3333 95.9114 62.3986C95.9712 62.4629 96.0022 62.5614 96.0022 62.6943V65.2128C96.0022 65.3457 95.9723 65.4443 95.9114 65.5096C95.8505 65.5749 95.7719 65.6071 95.6744 65.6071C95.577 65.6071 95.505 65.5738 95.4441 65.5085C95.3831 65.442 95.3532 65.3435 95.3532 65.2128Z" fill="#1F327F"/>
</g>
<rect x="1" y="1" width="110" height="110" rx="9" stroke="black" stroke-opacity="0.1" stroke-width="2"/>
<defs>
<clipPath id="clip0_736_553">
<rect x="2" y="2" width="108" height="108" rx="8" fill="white"/>
</clipPath>
</defs>
</svg>
