<svg width="112" height="112" viewBox="0 0 112 112" fill="none" xmlns="http://www.w3.org/2000/svg">
<g clip-path="url(#clip0_511_147)">
<rect x="2" y="2" width="108" height="108" rx="8" fill="white"/>
<g clip-path="url(#clip1_511_147)">
<path fill-rule="evenodd" clip-rule="evenodd" d="M60.0293 47.4274C64.191 47.4274 67.5625 50.5881 67.5625 54.4882C67.5625 58.3884 64.191 61.549 60.0293 61.549C55.8676 61.549 52.4961 58.3884 52.4961 54.4882C52.4961 50.5881 55.8704 47.4274 60.0293 47.4274ZM57.3439 51.8028V57.1736H62.7147V51.8028H57.3439Z" fill="#F16626"/>
<path fill-rule="evenodd" clip-rule="evenodd" d="M40.551 52.1121C41.9851 52.1121 43.1549 51.9209 44.3078 53.0738C45.306 52.0784 46.6895 52.1121 48.0646 52.1121C49.9823 52.1121 51.5542 53.6812 51.5486 55.5962L51.5317 61.2791H50.5953C48.9138 61.2791 49.0262 60.1796 49.0347 59.3473V55.6327C49.0347 54.7526 48.3148 54.0299 47.4319 54.0299H47.2322C46.3521 54.0299 45.6294 54.7526 45.6294 55.6327V61.2791H42.989V55.6299C42.989 54.7498 42.2691 54.0271 41.3862 54.0271H41.1865C40.3064 54.0271 39.5837 54.7498 39.5837 55.6299V61.2763H37.0698V55.5962C37.0698 53.6784 38.6389 52.1121 40.5538 52.1121H40.551Z" fill="#2E3191"/>
<path fill-rule="evenodd" clip-rule="evenodd" d="M76.9321 55.5961L76.9153 61.2791H75.9789C74.2973 61.2791 74.4098 60.1796 74.4183 59.3473V55.6327C74.4183 54.7525 73.6984 54.0299 72.8154 54.0299H72.6158C71.7357 54.0299 71.013 54.7525 71.013 55.6327V61.2791H68.3726V55.6299C68.3726 54.5866 68.6706 53.9033 69.143 53.4056C71.2183 51.2292 76.9434 51.5272 76.9321 55.5961Z" fill="#2E3191"/>
<path fill-rule="evenodd" clip-rule="evenodd" d="M25.448 52.2021H26.5699C28.6564 52.2021 30.3605 53.9089 30.3605 55.9926V57.3255H24.0645C24.0645 57.6601 24.0448 58.0088 24.0842 58.3406C24.1854 59.1589 24.7928 59.8281 25.7573 59.8281H26.2578C27.048 59.8281 27.7144 59.2798 27.9 58.5458H30.2677C29.8881 60.2358 28.3696 61.5068 26.5699 61.5068H25.448C23.3643 61.5068 21.6575 59.8 21.6575 57.7163V55.9926C21.6575 53.9089 23.3643 52.2021 25.448 52.2021ZM25.7573 54.1086C24.8265 54.1086 24.0645 54.8706 24.0645 55.8014V55.9757H27.9534V55.8014C27.9534 54.8706 27.1914 54.1086 26.2606 54.1086H25.7601H25.7573Z" fill="#2E3191"/>
<path fill-rule="evenodd" clip-rule="evenodd" d="M32.0281 55.8408H36.2657V57.7332H31.0833V56.7856C31.0833 56.2654 31.5107 55.838 32.0309 55.838L32.0281 55.8408Z" fill="#2E3191"/>
<path fill-rule="evenodd" clip-rule="evenodd" d="M81.51 52.2021H82.632C84.7156 52.2021 86.4225 53.9089 86.4225 55.9926V57.3255H80.1265C80.1265 57.6601 80.1068 58.0088 80.1462 58.3406C80.2474 59.1589 80.8548 59.8281 81.8193 59.8281H82.3198C83.11 59.8281 83.7764 59.2798 83.962 58.5458H86.3297C85.9501 60.2358 84.4316 61.5068 82.632 61.5068H81.51C79.4263 61.5068 77.7195 59.8 77.7195 57.7163V55.9926C77.7195 53.9089 79.4263 52.2021 81.51 52.2021ZM81.8193 54.1086C80.8886 54.1086 80.1265 54.8706 80.1265 55.8014V55.9757H84.0154V55.8014C84.0154 54.8706 83.2534 54.1086 82.3226 54.1086H81.8221H81.8193Z" fill="#2E3191"/>
<path fill-rule="evenodd" clip-rule="evenodd" d="M17.3243 56.69C17.3243 57.0555 17.0262 57.3536 16.6607 57.3536C16.2951 57.3536 15.9971 57.0555 15.9971 56.69C15.9999 54.0158 17.0853 51.5919 18.8371 49.8373C20.5918 48.0854 23.0157 47 25.6899 47C26.0554 47 26.3535 47.2953 26.3535 47.6636C26.3535 48.032 26.0554 48.3272 25.6899 48.3272C23.3813 48.3272 21.2892 49.2636 19.7735 50.7764C18.2607 52.2893 17.3243 54.3814 17.3243 56.69ZM19.4417 56.69C19.4417 54.9634 20.1419 53.4028 21.2723 52.2724C22.4027 51.142 23.9661 50.4418 25.6899 50.4418C26.0554 50.4418 26.3535 50.1438 26.3535 49.7782C26.3535 49.4127 26.0554 49.1146 25.6899 49.1146C23.5978 49.1146 21.7053 49.9638 20.3331 51.3332C18.9609 52.7026 18.1145 54.5979 18.1145 56.69C18.1145 57.0555 18.4125 57.3536 18.7781 57.3536C19.1436 57.3536 19.4417 57.0555 19.4417 56.69Z" fill="#F16626"/>
<path fill-rule="evenodd" clip-rule="evenodd" d="M86.3521 52.2584H89.3187C89.9626 54.2998 90.6037 56.3413 91.2477 58.3828C91.8157 56.6787 92.3837 54.9719 92.9517 53.2679C93.1682 52.6155 93.3538 52.3062 94.3802 52.3062H95.997C94.7429 55.7311 93.4888 59.1561 92.2347 62.581C91.8635 63.7986 90.9074 64.4116 89.822 64.4369C88.7366 64.4622 88.4723 64.4369 87.7946 64.4369V62.581H89.074C89.7405 62.6288 90.0582 62.3111 90.0132 61.6165C88.79 58.4981 87.5696 55.3796 86.3464 52.2584H86.3521Z" fill="#2E3191"/>
</g>
</g>
<rect x="1" y="1" width="110" height="110" rx="9" stroke="black" stroke-opacity="0.1" stroke-width="2"/>
<defs>
<clipPath id="clip0_511_147">
<rect x="2" y="2" width="108" height="108" rx="8" fill="white"/>
</clipPath>
<clipPath id="clip1_511_147">
<rect width="80" height="17.4482" fill="white" transform="translate(16 47)"/>
</clipPath>
</defs>
</svg>
