<svg width="112" height="112" viewBox="0 0 112 112" fill="none" xmlns="http://www.w3.org/2000/svg">
<g clip-path="url(#clip0_736_540)">
<rect x="1.9999" y="2" width="108" height="108" rx="8" fill="white"/>
<g clip-path="url(#clip1_736_540)">
<path d="M32.392 45H21.496C18.4606 45 16 47.4606 16 50.496V61.392C16 64.4273 18.4606 66.888 21.496 66.888H32.392C35.4274 66.888 37.888 64.4273 37.888 61.392V50.496C37.888 47.4606 35.4274 45 32.392 45Z" fill="url(#paint0_linear_736_540)"/>
<mask id="mask0_736_540" style="mask-type:luminance" maskUnits="userSpaceOnUse" x="16" y="45" width="22" height="22">
<path d="M32.392 45H21.496C18.4606 45 16 47.4606 16 50.496V61.392C16 64.4273 18.4606 66.888 21.496 66.888H32.392C35.4274 66.888 37.888 64.4273 37.888 61.392V50.496C37.888 47.4606 35.4274 45 32.392 45Z" fill="white"/>
</mask>
<g mask="url(#mask0_736_540)">
<path d="M21.672 52.0559C21.5251 51.8774 21.3283 51.7466 21.1067 51.6804C20.8851 51.6141 20.6489 51.6153 20.428 51.6839C20.028 51.8399 19.768 52.5319 20.028 53.1759C20.544 54.4839 22.028 54.3239 22.028 54.3239C22.348 55.4155 23.0603 56.3501 24.028 56.9479C24.516 58.4639 24.636 60.1479 25.02 60.5799C25.9 61.5999 26.464 62.3359 26.464 62.3359L28 60.1999C27.836 59.0959 27.272 57.0999 27.42 56.9799C28.816 55.8199 28.768 53.8319 28.768 53.8319C28.9528 53.8216 29.1325 53.7672 29.292 53.6733C29.4515 53.5794 29.5862 53.4487 29.6849 53.292C29.7836 53.1354 29.8433 52.9575 29.8592 52.773C29.875 52.5886 29.8465 52.4031 29.776 52.2319C29.7372 52.0966 29.6706 51.9709 29.5805 51.8628C29.4903 51.7548 29.3787 51.6667 29.2526 51.6042C29.1265 51.5417 28.9887 51.5062 28.8481 51.4999C28.7075 51.4937 28.5671 51.5169 28.436 51.5679C28.436 51.5679 28.68 47.5679 24.916 47.9919C23.124 48.1879 21.828 49.0679 21.488 49.9559C21.2 50.7319 21.672 52.0559 21.672 52.0559Z" fill="white"/>
<path d="M26.452 62.5119C26.425 62.5121 26.3984 62.506 26.3741 62.4943C26.3498 62.4825 26.3286 62.4652 26.312 62.4439C26.312 62.4439 25.74 61.6999 24.876 60.6999C24.628 60.4119 24.476 59.7599 24.324 58.9359C24.204 58.3559 24.068 57.6999 23.872 57.0719C22.9415 56.4708 22.2477 55.5663 21.908 54.5119C21.4804 54.5329 21.0566 54.4232 20.6929 54.1974C20.3292 53.9716 20.0429 53.6404 19.872 53.2479C19.7163 52.8631 19.7163 52.4328 19.872 52.0479C19.917 51.9326 19.9843 51.8273 20.0701 51.7381C20.1559 51.6488 20.2585 51.5774 20.372 51.5279C20.5313 51.4656 20.7024 51.439 20.8731 51.4501C21.0438 51.4611 21.2101 51.5096 21.36 51.5919C21.204 51.0507 21.1957 50.4775 21.336 49.9319C21.736 48.8959 23.196 48.0439 24.908 47.8559C26.04 47.7319 26.936 47.9799 27.58 48.5879C28.504 49.4679 28.624 50.8319 28.632 51.3879C28.8715 51.3473 29.1177 51.3779 29.34 51.4759C29.4858 51.5487 29.6153 51.6505 29.7205 51.7749C29.8257 51.8994 29.9045 52.044 29.952 52.1999C30.0298 52.4036 30.0573 52.623 30.0322 52.8396C30.0071 53.0561 29.9302 53.2634 29.808 53.4439C29.7091 53.5898 29.5821 53.7145 29.4345 53.8107C29.2868 53.9068 29.1214 53.9725 28.948 54.0039C28.928 54.5119 28.764 56.0759 27.576 57.0959C27.6363 57.592 27.7285 58.0837 27.852 58.5679C27.98 59.1399 28.108 59.7279 28.18 60.1679C28.1837 60.191 28.1827 60.2145 28.1772 60.2372C28.1718 60.2598 28.1618 60.2812 28.148 60.2999L26.592 62.4199C26.5756 62.4418 26.5545 62.4596 26.5303 62.4721C26.506 62.4845 26.4793 62.4913 26.452 62.4919V62.5119ZM22.052 54.1479C22.0908 54.1474 22.1286 54.1596 22.1597 54.1827C22.1908 54.2059 22.2134 54.2386 22.224 54.2759C22.5299 55.3168 23.2037 56.211 24.12 56.7919C24.1598 56.8133 24.1899 56.8491 24.204 56.8919C24.3997 57.5376 24.5613 58.1932 24.688 58.8559C24.836 59.5679 24.976 60.2439 25.164 60.4559C25.78 61.1719 26.244 61.7519 26.468 62.0319L27.84 60.1599C27.772 59.7279 27.648 59.1719 27.528 58.6399C27.204 57.1919 27.18 56.9719 27.332 56.8479C28.644 55.7559 28.616 53.8599 28.616 53.8439C28.6155 53.8208 28.6195 53.7978 28.6279 53.7763C28.6362 53.7547 28.6487 53.735 28.6647 53.7183C28.6807 53.7016 28.6998 53.6882 28.7209 53.6789C28.7421 53.6695 28.7649 53.6645 28.788 53.6639C28.9369 53.6557 29.0819 53.6131 29.2117 53.5395C29.3414 53.466 29.4524 53.3635 29.536 53.2399C29.6188 53.1026 29.6678 52.9476 29.6789 52.7877C29.69 52.6277 29.663 52.4674 29.6 52.3199C29.5391 52.1013 29.3957 51.9149 29.2 51.7999C28.9828 51.713 28.7419 51.7059 28.52 51.7799C28.4924 51.7908 28.4624 51.7945 28.4329 51.7907C28.4035 51.7869 28.3755 51.7757 28.3515 51.7581C28.3275 51.7405 28.3084 51.7172 28.2959 51.6902C28.2834 51.6633 28.2779 51.6336 28.28 51.6039C28.28 51.6039 28.372 49.8319 27.34 48.8519C26.776 48.3159 25.976 48.0999 24.94 48.2159C23.092 48.4199 21.944 49.3159 21.66 50.0639C21.404 50.7479 21.832 51.9999 21.836 52.0159C21.8523 52.0556 21.8536 52.0999 21.8396 52.1404C21.8256 52.181 21.7973 52.215 21.7599 52.2361C21.7226 52.2573 21.6788 52.264 21.6368 52.2551C21.5949 52.2463 21.5576 52.2224 21.532 52.1879C21.4092 52.0373 21.2443 51.9268 21.0583 51.8705C20.8723 51.8142 20.6737 51.8147 20.488 51.8719C20.3489 51.9398 20.2415 52.0587 20.188 52.2039C20.066 52.5026 20.066 52.8373 20.188 53.1359C20.656 54.2799 22 54.1519 22 54.1479H22.052Z" fill="#00376E"/>
<path d="M20.468 52.2639C20.5149 52.2055 20.5772 52.1614 20.6479 52.1366C20.7187 52.1119 20.7949 52.1075 20.868 52.1239C21.0095 52.1503 21.1387 52.2219 21.236 52.3279C21.3266 52.4218 21.3914 52.5376 21.424 52.6639C21.4634 52.7944 21.4634 52.9335 21.424 53.0639C21.372 52.9679 21.32 52.8679 21.26 52.7759C21.2025 52.6838 21.1355 52.598 21.06 52.5199C20.9885 52.4394 20.9014 52.3741 20.804 52.3279C20.7072 52.2808 20.5976 52.2668 20.492 52.2879L20.468 52.2639Z" fill="#00376E"/>
<path d="M27.6 51.4599C27.5646 51.46 27.53 51.4493 27.5007 51.4293C27.4714 51.4093 27.4489 51.381 27.436 51.3479C27.4012 51.2426 27.3459 51.1452 27.2733 51.0613C27.2007 50.9775 27.1122 50.9088 27.0129 50.8594C26.9136 50.8099 26.8055 50.7806 26.6948 50.7732C26.5841 50.7657 26.473 50.7802 26.368 50.8159C26.3229 50.8303 26.274 50.8261 26.232 50.8043C26.19 50.7826 26.1583 50.745 26.144 50.6999C26.1297 50.6549 26.1339 50.6059 26.1556 50.5639C26.1774 50.5219 26.2149 50.4903 26.26 50.4759C26.5572 50.3784 26.8807 50.4008 27.1616 50.5383C27.4425 50.6758 27.6587 50.9175 27.764 51.2119C27.7753 51.2388 27.7797 51.2681 27.7768 51.2971C27.774 51.3261 27.764 51.3539 27.7477 51.3781C27.7315 51.4023 27.7095 51.4221 27.6837 51.4357C27.6579 51.4493 27.6291 51.4562 27.6 51.4559V51.4599Z" fill="#00376E"/>
<path d="M23.044 51.3999C22.9983 51.399 22.9547 51.3807 22.922 51.3487C22.8893 51.3168 22.87 51.2736 22.868 51.2279C22.924 50.9849 23.0661 50.7703 23.268 50.6239C23.4295 50.5072 23.6176 50.4325 23.8153 50.4067C24.0129 50.3809 24.2139 50.4047 24.4 50.4759C24.4451 50.4897 24.4828 50.5209 24.505 50.5625C24.5271 50.6041 24.5318 50.6529 24.518 50.6979C24.5042 50.743 24.4731 50.7808 24.4314 50.8029C24.3898 50.825 24.3411 50.8297 24.296 50.8159C24.18 50.7725 24.0565 50.753 23.9327 50.7585C23.809 50.764 23.6877 50.7944 23.576 50.8479C23.4148 50.9375 23.2881 51.0782 23.216 51.2479C23.2087 51.2886 23.1876 51.3255 23.1563 51.3525C23.1249 51.3794 23.0853 51.3948 23.044 51.3959V51.3999Z" fill="#00376E"/>
<path d="M23.692 51.7999C23.736 52.0599 23.896 52.2479 24.052 52.2239C24.208 52.1999 24.3 51.9679 24.256 51.7079C24.212 51.4479 24.052 51.2599 23.896 51.2839C23.74 51.3079 23.652 51.5199 23.692 51.7999Z" fill="#00376E"/>
<path d="M26.612 51.8679C26.652 52.1079 26.8 52.2679 26.944 52.2679C27.088 52.2679 27.172 52.0319 27.132 51.7919C27.092 51.5519 26.944 51.3919 26.8 51.3919C26.656 51.3919 26.572 51.6319 26.612 51.8679Z" fill="#00376E"/>
<path d="M25.964 53.8639C25.9264 53.8627 25.8904 53.8486 25.862 53.824C25.8335 53.7993 25.8144 53.7657 25.8079 53.7286C25.8013 53.6916 25.8077 53.6534 25.8259 53.6205C25.8441 53.5876 25.8731 53.562 25.908 53.5479C25.9292 53.5428 25.9477 53.53 25.96 53.5119C25.992 53.4319 25.888 53.1959 25.796 52.9879C25.7044 52.7891 25.6256 52.5847 25.56 52.3759C25.4574 52.0953 25.4393 51.7907 25.508 51.4999C25.5201 51.4618 25.5458 51.4293 25.5801 51.4088C25.6145 51.3882 25.6552 51.3809 25.6946 51.3883C25.7339 51.3957 25.7692 51.4172 25.7938 51.4488C25.8184 51.4805 25.8305 51.52 25.828 51.5599V51.5919C25.7778 51.8225 25.7945 52.0625 25.876 52.2839C25.9385 52.4791 26.0133 52.6702 26.1 52.8559C26.24 53.1759 26.352 53.4279 26.264 53.6559C26.2416 53.7062 26.2091 53.7514 26.1685 53.7886C26.1279 53.8257 26.0801 53.8541 26.028 53.8719L25.964 53.8639Z" fill="#00376E"/>
<path d="M27.636 56.5799C27.555 56.8413 27.387 57.0671 27.16 57.2199C27.1054 57.2621 27.0464 57.2983 26.984 57.3279C26.9243 57.356 26.8629 57.3801 26.8 57.3999C26.7367 57.4259 26.6711 57.446 26.604 57.4599L26.404 57.5039C26.137 57.5411 25.8653 57.5262 25.604 57.4599C25.4783 57.4249 25.3553 57.3807 25.236 57.3279C25.1196 57.2667 25.0085 57.1958 24.904 57.1159L25.26 57.2039C25.38 57.2039 25.5 57.2479 25.62 57.2599C25.8617 57.2907 26.1063 57.2907 26.348 57.2599C26.5959 57.2145 26.8341 57.1266 27.052 56.9999C27.2633 56.8948 27.4501 56.7462 27.6 56.5639H27.624L27.636 56.5799Z" fill="#00376E"/>
<path d="M28.516 53.1479C28.647 53.3297 28.7346 53.539 28.772 53.7599C28.7853 53.8139 28.7947 53.8687 28.8 53.9239C28.8 53.9799 28.8 54.0319 28.8 54.0879C28.8 54.1439 28.8 54.3079 28.8 54.4199C28.7803 54.6396 28.7332 54.8559 28.66 55.0639C28.5893 55.2734 28.4838 55.4695 28.348 55.6439C28.4152 55.4445 28.4712 55.2416 28.516 55.0359C28.559 54.8301 28.5884 54.6217 28.604 54.4119C28.6198 54.2029 28.6198 53.993 28.604 53.7839C28.5922 53.5738 28.556 53.3657 28.496 53.1639L28.516 53.1479Z" fill="#00376E"/>
<path d="M34.424 60.0319C34.424 60.0319 34.128 61.0599 33.412 61.1679C33.296 61.1679 31.928 61.0959 31.812 61.1199C28.756 61.7159 26.548 63.9799 26.048 67.9199L22.244 68.2879C20.708 68.3159 15.388 67.6759 15.388 67.6759C16.58 64.3319 17.736 62.5439 18.8 61.1999C19.0036 60.9707 19.2362 60.769 19.492 60.5999L24.348 58.1999C24.4356 58.5497 24.5576 58.8901 24.712 59.2159C25.752 61.7559 28.064 61.0799 27.588 58.8519L27.496 57.8399C27.496 57.8399 31.824 58.2559 34.424 60.0319Z" fill="#00376E"/>
<path d="M28.464 52.1999C28.5163 52.1496 28.58 52.1128 28.6497 52.0926C28.7194 52.0724 28.7929 52.0694 28.864 52.0839C29.0035 52.1023 29.1323 52.1688 29.228 52.2719C29.3196 52.3714 29.377 52.4975 29.392 52.6319C29.4011 52.6956 29.4011 52.7602 29.392 52.8239C29.3756 52.8892 29.3485 52.9514 29.312 53.0079L29.272 52.8599C29.272 52.8119 29.24 52.7639 29.22 52.7159C29.1799 52.6233 29.1245 52.5381 29.056 52.4639C28.9864 52.3904 28.9027 52.3317 28.8099 52.2911C28.7172 52.2506 28.6172 52.2291 28.516 52.2279L28.464 52.1999Z" fill="#00376E"/>
<path d="M21.116 54.0679L21.416 54.1199C21.5153 54.1364 21.6155 54.1471 21.716 54.1519C21.8173 54.1577 21.9187 54.1577 22.02 54.1519C22.1193 54.1481 22.2175 54.1306 22.312 54.0999L22.508 54.0159C22.4937 54.0593 22.472 54.0999 22.444 54.1359L22.4 54.1999L22.352 54.2439C22.2969 54.2779 22.2378 54.3048 22.176 54.3239C22.1214 54.3425 22.0651 54.3559 22.008 54.3639H21.84H21.676C21.5688 54.3476 21.464 54.318 21.364 54.2759C21.2609 54.2308 21.1663 54.1686 21.084 54.0919L21.116 54.0679Z" fill="#00376E"/>
<path d="M26.4 56.4719C26.1234 56.4604 25.8517 56.3952 25.6 56.2799C24 55.6239 23.2 53.7359 23.2 53.6559C23.1853 53.6205 23.1824 53.5813 23.1916 53.544C23.2008 53.5068 23.2216 53.4734 23.2511 53.4489C23.2806 53.4243 23.3171 53.4098 23.3554 53.4075C23.3937 53.4051 23.4318 53.4151 23.464 53.4359C25.76 54.9439 27.4 54.3079 27.412 54.3039C27.4504 54.2905 27.4922 54.2904 27.5306 54.3037C27.569 54.317 27.6018 54.343 27.6236 54.3773C27.6454 54.4116 27.6549 54.4523 27.6506 54.4927C27.6463 54.5331 27.6285 54.5709 27.6 54.5999C27.4136 54.8761 27.3083 55.199 27.296 55.5319C27.2971 55.6953 27.2584 55.8565 27.1831 56.0015C27.1078 56.1464 26.9983 56.2709 26.864 56.3639C26.7216 56.4402 26.5615 56.4775 26.4 56.4719ZM23.812 54.0719C24.2418 54.881 24.911 55.5375 25.728 55.9519C25.8723 56.0383 26.0339 56.0918 26.2013 56.1084C26.3686 56.125 26.5376 56.1043 26.696 56.0479C26.7804 55.9826 26.848 55.898 26.8932 55.8014C26.9384 55.7047 26.9599 55.5986 26.956 55.4919C26.9754 55.2397 27.0321 54.9917 27.124 54.7559C25.9742 54.9169 24.804 54.6752 23.812 54.0719Z" fill="#00376E"/>
<path d="M28.46 51.4559C28.484 51.5479 28.492 51.5919 28.492 51.5919L28.46 51.4559Z" fill="#003A6C"/>
<path d="M25.58 48.2319C25.6006 48.2502 25.6158 48.2737 25.624 48.2999C25.456 48.2999 25.272 48.2999 25.096 48.2999C25.2558 48.2674 25.4174 48.2446 25.58 48.2319Z" fill="#00376E"/>
<path d="M20.08 49.8519C20.106 49.3387 20.3178 48.8524 20.676 48.4839C20.192 48.5559 20.008 48.3039 20.208 48.2919C20.3979 48.2515 20.5811 48.1842 20.752 48.0919C20.9295 48.0095 21.0995 47.9118 21.26 47.7999C21.5546 47.5749 21.8315 47.3275 22.088 47.0599C22.088 47.0599 22.088 47.0239 22.088 47.0359C21.116 47.7799 20.356 47.4359 20.624 47.3879C20.8774 47.3427 21.1162 47.2371 21.32 47.0799L21.524 46.9359C21.7315 46.7876 21.9541 46.6616 22.188 46.5599C22.3444 46.4926 22.5063 46.439 22.672 46.3999C22.9975 46.3255 23.3301 46.2866 23.664 46.2839C23.4695 46.2756 23.277 46.2406 23.092 46.1799C22.692 46.0239 22.692 45.7799 22.836 45.8399C23.428 46.0519 25.036 45.8679 25.868 46.1439C25.868 46.1439 27.028 46.5439 27.336 47.5119C27.336 47.5119 29.304 47.9599 28.792 51.3919L28.3 51.5159C28.3091 50.9438 28.2001 50.376 27.98 49.8479C27.8969 49.6264 27.7686 49.4245 27.6034 49.2551C27.4381 49.0857 27.2395 48.9525 27.02 48.8639C26.979 48.8459 26.9342 48.8383 26.8895 48.8418C26.8448 48.8453 26.8017 48.8598 26.764 48.8839L26.736 48.9039C26.5143 49.017 26.2689 49.0759 26.02 49.0759C25.352 49.0159 24.604 48.7399 24.02 49.0519C23.436 49.3639 23.176 49.7679 22.592 50.0519C22.4619 50.1141 22.3283 50.1689 22.192 50.2159L21.908 50.3439C21.508 50.5079 21.768 51.7239 21.908 52.2719C21.908 52.2959 21.908 52.3279 21.908 52.3599C21.9114 52.4252 21.9114 52.4906 21.908 52.5559C21.9121 52.612 21.9025 52.6683 21.88 52.7199C21.8751 52.7281 21.8686 52.7353 21.8608 52.741C21.8531 52.7466 21.8444 52.7507 21.835 52.7529C21.8257 52.7552 21.8161 52.7555 21.8066 52.754C21.7972 52.7524 21.7881 52.749 21.78 52.7439C21.7125 52.6756 21.6559 52.5974 21.612 52.5119C21.384 52.0599 21.304 51.8399 20.412 51.7119C20.1472 51.1296 20.033 50.49 20.08 49.8519Z" fill="#003A6C"/>
<path d="M21.54 47.7199C20.9751 48.0406 20.3596 48.2624 19.72 48.3759C19.596 48.3759 19.576 48.5319 19.664 48.6159C20.012 48.9399 20.708 48.9359 21.292 48.6679C22.228 48.2399 21.54 47.7199 21.54 47.7199Z" fill="#00376E"/>
<path d="M23.896 47.1759C23.7357 47.2225 23.5792 47.2813 23.428 47.3519C23.276 47.4199 23.132 47.5119 22.984 47.5919C23.2402 47.3238 23.552 47.115 23.8975 46.9803C24.2431 46.8455 24.6139 46.7881 24.984 46.8119C25.6687 46.8929 26.2967 47.2319 26.74 47.7599C26.4821 47.546 26.1918 47.3745 25.88 47.2519L25.724 47.1959C25.5739 47.1463 25.4201 47.1088 25.264 47.0839H25.164C25.0778 47.0716 24.991 47.0636 24.904 47.0599H24.728C24.4463 47.0546 24.1655 47.0937 23.896 47.1759Z" fill="white"/>
<path d="M25.028 47.6759C25.0844 47.6598 25.1419 47.6477 25.2 47.6399H25.256C25.5625 47.6062 25.8723 47.6618 26.148 47.7999C26.2819 47.8659 26.4047 47.9523 26.512 48.0559L26.596 48.1439L26.516 48.1079C26.3856 48.0463 26.2521 47.9916 26.116 47.9439C25.9479 47.8887 25.7752 47.8485 25.6 47.8239C25.4352 47.8049 25.2688 47.8049 25.104 47.8239H25.072C24.8977 47.847 24.7285 47.8998 24.572 47.9799C24.6894 47.8345 24.8485 47.7284 25.028 47.6759Z" fill="white"/>
<path d="M21.164 48.5239C21.586 48.4378 21.9779 48.2419 22.3 47.9559C22.2128 48.1771 22.0469 48.3582 21.8343 48.4646C21.6217 48.5709 21.3772 48.5949 21.148 48.5319L21.164 48.5239Z" fill="white"/>
<path d="M36.8 60.4559C36.78 60.5359 36.756 60.6159 36.728 60.6999C36.756 60.6199 36.78 60.5399 36.8 60.4599V60.4559Z" fill="#0081F2"/>
<path d="M36.4 61.4399L36.264 61.7119C36.2657 61.6839 36.2657 61.6559 36.264 61.6279C36.3127 61.5677 36.3581 61.505 36.4 61.4399Z" fill="#0081F2"/>
<path d="M27.916 65.2359C28.2046 63.8501 29.0171 62.6292 30.184 61.8279C29.0168 62.6289 28.2042 63.8499 27.916 65.2359Z" fill="#003A6C"/>
<path d="M27.932 65.4479C27.9146 65.3783 27.9146 65.3055 27.932 65.2359C28.2205 63.8501 29.033 62.6292 30.2 61.8279C30.424 61.6706 30.6578 61.5276 30.9 61.3999L31.224 61.2359C31.552 61.0799 32.228 60.5479 32.568 60.4359C32.568 60.4359 36.436 59.3479 36.72 60.8999C36.72 60.9239 36.272 61.6999 36.272 61.7279L35.384 63.4959C35.3419 63.5632 35.2843 63.6195 35.216 63.6599L35.18 63.6839C35.0911 63.73 34.9921 63.7533 34.892 63.7519H34.832C34.1626 63.676 33.4858 63.8013 32.888 64.1119C32.4596 64.3332 32.0979 64.6646 31.84 65.0719C31.7611 65.1988 31.6942 65.3327 31.64 65.4719C31.5945 65.5828 31.5108 65.6736 31.404 65.7279C31.3486 65.7556 31.2892 65.7745 31.228 65.7839H31.128L28.516 65.8279C28.4086 65.829 28.3026 65.8029 28.208 65.7519C28.0854 65.6906 27.9909 65.5847 27.944 65.4559L27.932 65.4479Z" fill="#00376E"/>
<path d="M32.552 59.1159C32.508 59.3759 32.316 60.0159 32.276 60.2319L32.244 60.4199C32.226 60.5527 32.226 60.6872 32.244 60.8199C31.9026 60.9322 31.5686 61.0658 31.244 61.2199L30.92 61.3839C30.6719 61.5162 30.4328 61.6645 30.204 61.8279C29.0367 62.6289 28.2242 63.8499 27.936 65.2359C27.9186 65.3055 27.9186 65.3783 27.936 65.4479C27.9829 65.5767 28.0774 65.6827 28.2 65.7439C28.2958 65.7955 28.4032 65.8217 28.512 65.8199L31.124 65.7999H31.224C31.2852 65.7904 31.3446 65.7715 31.4 65.7439C31.5068 65.6896 31.5905 65.5988 31.636 65.4879C31.6902 65.3487 31.7572 65.2148 31.836 65.0879C32.0945 64.6811 32.4561 64.3499 32.884 64.1279C33.4818 63.8173 34.1586 63.692 34.828 63.7679H34.888C34.9882 63.7695 35.0871 63.7461 35.176 63.6999L35.212 63.6759C35.2803 63.6355 35.3379 63.5793 35.38 63.5119L36.264 61.7439L36.4 61.4399C36.4592 61.3418 36.5126 61.2403 36.56 61.1359C36.608 61.0359 36.652 60.9319 36.692 60.8159C36.692 60.7759 36.716 60.7359 36.732 60.6959C36.748 60.6559 36.784 60.5359 36.804 60.4519C36.8611 60.2386 36.8973 60.0203 36.912 59.7999C36.912 59.7319 36.884 59.4279 36.884 59.3599C37.9839 59.7855 38.892 60.5956 39.44 61.6399C39.44 61.6399 38.8 65.8679 38.764 65.9479L33.42 67.9479L25.452 69.4599C24.716 61.7759 30.608 59.1919 32.552 59.1159Z" fill="#FF8D00"/>
<path d="M29.312 61.3439C28.0558 62.5478 27.1727 64.0877 26.768 65.7799C26.7578 65.3319 26.8185 64.885 26.948 64.4559C26.9995 64.2338 27.0636 64.0148 27.14 63.7999C27.228 63.5959 27.332 63.3999 27.44 63.1999C27.548 62.9999 27.676 62.8199 27.808 62.6399C27.9424 62.4614 28.0867 62.2905 28.24 62.1279C28.5447 61.7992 28.8998 61.521 29.292 61.3039V61.3279L29.312 61.3439Z" fill="white"/>
<path d="M36.884 59.3719C36.884 59.3719 34.276 58.1519 30.816 59.5559L31.44 61.1159C31.44 61.1159 34.92 59.6799 36.564 61.1399C38.036 62.4479 37.424 60.6599 37.424 60.6599L36.884 59.3719Z" fill="#FF8D00"/>
<path d="M32.8 58.9999C32.8 58.9999 32.164 60.8959 32.64 61.1719C33.116 61.4479 34.4 60.9999 34.4 60.9999L34.516 59.6039L34.252 58.8599L33.288 58.8919L32.8 58.9999Z" fill="white"/>
<path d="M32.428 60.9679C32.3515 61.0237 32.2884 61.0958 32.2432 61.1789C32.1979 61.262 32.1717 61.3542 32.1663 61.4487C32.161 61.5432 32.1766 61.6377 32.2122 61.7254C32.2478 61.8131 32.3023 61.8918 32.372 61.9559C32.696 62.1879 32.976 62.0199 33.352 62.1759C33.6301 62.3086 33.9322 62.3835 34.24 62.3959C34.3191 62.3968 34.3962 62.3714 34.4593 62.3236C34.5223 62.2758 34.5676 62.2083 34.588 62.1319C34.636 61.8999 34.42 61.6879 34.128 61.5439" fill="white"/>
<path d="M34.212 62.5639C33.8909 62.5452 33.5761 62.4665 33.284 62.3319C33.1561 62.2844 33.0204 62.2613 32.884 62.2639C32.6654 62.275 32.4492 62.2146 32.268 62.0919C32.1737 62.0234 32.0986 61.932 32.0496 61.8263C32.0006 61.7206 31.9794 61.6041 31.988 61.4879C31.9906 61.3579 32.0234 61.2302 32.0838 61.115C32.1442 60.9997 32.2305 60.9001 32.336 60.8239C32.3742 60.8074 32.4171 60.8052 32.4568 60.8179C32.4965 60.8306 32.5302 60.8573 32.5517 60.893C32.5732 60.9286 32.581 60.9709 32.5737 61.0119C32.5664 61.0529 32.5445 61.0899 32.512 61.1159C32.4541 61.1653 32.4077 61.2266 32.3759 61.2957C32.3442 61.3647 32.3278 61.4399 32.328 61.5159C32.3214 61.5763 32.3308 61.6373 32.3554 61.6928C32.38 61.7483 32.4189 61.7963 32.468 61.8319C32.5946 61.9148 32.7453 61.9528 32.896 61.9399C33.0736 61.937 33.2501 61.9683 33.416 62.0319C33.6658 62.1548 33.938 62.2256 34.216 62.2399C34.2568 62.2409 34.2969 62.2286 34.3301 62.2047C34.3633 62.1809 34.3878 62.1469 34.4 62.1079C34.432 61.9639 34.228 61.8079 34.028 61.7079C33.9939 61.6851 33.969 61.6508 33.958 61.6112C33.947 61.5716 33.9505 61.5294 33.9679 61.4922C33.9853 61.4549 34.0154 61.4252 34.0529 61.4083C34.0903 61.3914 34.1326 61.3884 34.172 61.3999C34.572 61.6039 34.784 61.8879 34.724 62.1759C34.6963 62.2898 34.6311 62.3911 34.539 62.4636C34.447 62.5361 34.3332 62.5757 34.216 62.5759L34.212 62.5639Z" fill="#00376E"/>
<path d="M35.168 61.3999C35.2203 61.4803 35.2975 61.5414 35.3878 61.5739C35.478 61.6064 35.5764 61.6085 35.668 61.5799C36.344 61.4439 37.02 60.4879 36.616 59.2279C36.5753 59.084 36.4905 58.9565 36.3735 58.8632C36.2566 58.7699 36.1134 58.7156 35.964 58.7079C35.8796 58.5708 35.7559 58.4623 35.6088 58.3967C35.4618 58.331 35.2984 58.3112 35.14 58.3399C35.0532 58.1812 34.9112 58.0598 34.741 57.9986C34.5707 57.9374 34.384 57.9408 34.216 58.0079C34.1281 57.9089 34.0109 57.8404 33.8815 57.8123C33.752 57.7843 33.617 57.7982 33.496 57.8519C33.3026 57.9667 33.1388 58.1253 33.0179 58.315C32.897 58.5047 32.8224 58.7201 32.8 58.9439" fill="white"/>
<path d="M35.536 61.7999C35.4319 61.8029 35.329 61.7781 35.2376 61.7282C35.1463 61.6783 35.0698 61.6051 35.016 61.5159C35.0021 61.4961 34.9926 61.4736 34.988 61.4498C34.9834 61.4261 34.9839 61.4016 34.9894 61.3781C34.9949 61.3545 35.0053 61.3324 35.02 61.3132C35.0346 61.2939 35.0532 61.278 35.0744 61.2664C35.0956 61.2548 35.119 61.2478 35.1432 61.2458C35.1673 61.2439 35.1915 61.2471 35.2143 61.2552C35.2371 61.2632 35.258 61.276 35.2755 61.2927C35.293 61.3094 35.3068 61.3296 35.316 61.3519C35.3517 61.3994 35.4015 61.4342 35.4583 61.4515C35.5151 61.4687 35.576 61.4675 35.632 61.4479C35.7824 61.4075 35.9228 61.3365 36.0446 61.2395C36.1664 61.1425 36.2669 61.0214 36.34 60.8839C36.471 60.6456 36.5491 60.3818 36.5691 60.1106C36.5891 59.8393 36.5505 59.5669 36.456 59.3119C36.4272 59.2016 36.364 59.1033 36.2755 59.0314C36.187 58.9594 36.0779 58.9176 35.964 58.9119H35.864L35.816 58.8239C35.7504 58.7176 35.6541 58.6336 35.5399 58.5829C35.4257 58.5323 35.2989 58.5173 35.176 58.5399L35.056 58.5599L34.996 58.4519C34.9302 58.3287 34.8206 58.2345 34.6889 58.1878C34.5571 58.1412 34.4127 58.1455 34.284 58.1999L34.184 58.2399L34.104 58.1679C34.0392 58.0896 33.9503 58.035 33.8511 58.0125C33.752 57.9901 33.6482 58.0012 33.556 58.0439C33.312 58.1319 33.092 58.4919 32.972 58.9999C32.9572 59.0386 32.9289 59.0707 32.8923 59.0901C32.8558 59.1096 32.8134 59.1153 32.773 59.106C32.7326 59.0968 32.6969 59.0733 32.6725 59.0398C32.6481 59.0064 32.6365 58.9652 32.64 58.9239C32.788 58.2839 33.072 57.8559 33.44 57.7239C33.5717 57.6681 33.7163 57.6501 33.8577 57.672C33.999 57.6939 34.1314 57.7548 34.24 57.8479C34.4176 57.7964 34.607 57.8018 34.7813 57.8635C34.9557 57.9253 35.1063 58.0401 35.212 58.1919C35.374 58.1811 35.536 58.2122 35.6825 58.2823C35.8289 58.3524 35.9548 58.459 36.048 58.5919C36.2138 58.619 36.3685 58.6922 36.4945 58.8033C36.6204 58.9144 36.7125 59.0588 36.76 59.2199C36.8685 59.5205 36.9118 59.8408 36.8869 60.1594C36.8621 60.4781 36.7698 60.7878 36.616 61.0679C36.5198 61.247 36.3872 61.4039 36.2266 61.5286C36.0661 61.6533 35.8813 61.743 35.684 61.7919C35.635 61.7989 35.5855 61.8016 35.536 61.7999Z" fill="#00376E"/>
<path d="M34.172 61.2959C34.1865 61.3791 34.2249 61.4562 34.2824 61.518C34.3399 61.5797 34.4141 61.6235 34.496 61.6439C34.924 61.7599 35.296 61.3439 35.42 61.1879C35.7731 60.6525 35.9222 60.008 35.84 59.3719" fill="white"/>
<path d="M34.192 61.2919C34.2045 61.3605 34.2347 61.4246 34.2796 61.478C34.3245 61.5313 34.3825 61.5719 34.448 61.5959C34.5133 61.6199 34.5824 61.6321 34.652 61.6319C34.7217 61.6292 34.7905 61.6158 34.856 61.5919C34.9885 61.5401 35.1095 61.4626 35.212 61.3639C35.317 61.2679 35.4061 61.1558 35.476 61.0319C35.6165 60.7809 35.7215 60.5117 35.788 60.2319C35.8604 59.951 35.8727 59.6579 35.824 59.3719C35.9892 59.6499 36.0554 59.9755 36.012 60.2959C35.9984 60.4548 35.9675 60.6117 35.92 60.7639C35.8757 60.9197 35.8139 61.07 35.736 61.2119C35.7153 61.2504 35.6926 61.2878 35.668 61.3239C35.6423 61.3629 35.6142 61.4003 35.584 61.4359C35.5268 61.5026 35.4639 61.5641 35.396 61.6199C35.2573 61.7394 35.0931 61.8256 34.916 61.8719C34.8179 61.8872 34.7181 61.8872 34.62 61.8719C34.5209 61.8578 34.4257 61.8237 34.34 61.7719C34.2562 61.7186 34.1895 61.6422 34.148 61.5519C34.1126 61.47 34.1042 61.3789 34.124 61.2919H34.192Z" fill="#00376E"/>
<path d="M33.2 61.0839C33.2 61.0839 33.224 61.6119 33.716 61.5919C34.208 61.5719 35.064 60.3919 35.032 59.0919" fill="white"/>
<path d="M33.2 61.0839C33.2043 61.1603 33.2238 61.2351 33.2575 61.3038C33.2911 61.3725 33.3382 61.4337 33.396 61.4839C33.4583 61.5272 33.5302 61.5546 33.6055 61.5637C33.6808 61.5728 33.7572 61.5632 33.828 61.5359C33.9703 61.4733 34.0972 61.3805 34.2 61.2639C34.3072 61.1486 34.4024 61.0226 34.484 60.8879C34.8219 60.3488 34.9982 59.7241 34.992 59.0879C35.114 59.4091 35.1485 59.757 35.092 60.0959C35.081 60.2663 35.0529 60.4352 35.008 60.5999C34.9523 60.7642 34.8827 60.9234 34.8 61.0759C34.6064 61.4163 34.2948 61.6739 33.924 61.7999C33.8665 61.815 33.8074 61.8231 33.748 61.8239C33.6978 61.8224 33.6481 61.8143 33.6 61.7999C33.4892 61.7739 33.3879 61.717 33.308 61.6359C33.2433 61.5638 33.1979 61.4764 33.1763 61.3819C33.1546 61.2875 33.1572 61.1891 33.184 61.0959H33.204L33.2 61.0839Z" fill="#00376E"/>
<path d="M32.756 61.4399C32.6886 61.4417 32.6218 61.4277 32.5607 61.3993C32.4997 61.3708 32.446 61.3286 32.404 61.2759C32.3266 61.1222 32.2804 60.9548 32.268 60.7831C32.2557 60.6115 32.2774 60.4391 32.332 60.2759L32.652 58.8439L32.984 58.9199L32.664 60.3519C32.5771 60.5827 32.5771 60.8372 32.664 61.0679C32.6743 61.0811 32.6878 61.0913 32.7032 61.0976C32.7187 61.1039 32.7355 61.1061 32.752 61.1039C32.7926 61.1102 32.8296 61.1308 32.8564 61.1619C32.8831 61.1931 32.8978 61.2328 32.8978 61.2739C32.8978 61.315 32.8831 61.3547 32.8564 61.3859C32.8296 61.4171 32.7926 61.4377 32.752 61.4439L32.756 61.4399Z" fill="#00376E"/>
<path d="M32.652 60.3639C32.616 60.5559 32.48 61.3439 32.896 61.2439C33.744 61.0439 34.124 58.8119 34.124 58.8119" fill="white"/>
<path d="M32.668 60.3679C32.6364 60.526 32.6204 60.6867 32.62 60.8479C32.6188 60.9277 32.6296 61.0073 32.652 61.0839C32.6596 61.1192 32.6773 61.1516 32.7028 61.1771C32.7283 61.2026 32.7607 61.2203 32.796 61.2279C32.8315 61.2361 32.8685 61.2361 32.904 61.2279C32.9415 61.2173 32.9777 61.2026 33.012 61.1839C33.0812 61.1467 33.1445 61.0996 33.2 61.0439C33.3125 60.9251 33.4068 60.7903 33.48 60.6439C33.6351 60.36 33.761 60.0612 33.856 59.7519C33.9542 59.4435 34.0343 59.1296 34.096 58.8119C34.158 59.1478 34.158 59.4921 34.096 59.8279C34.0762 59.998 34.0442 60.1665 34 60.3319C33.9413 60.4982 33.8677 60.6589 33.78 60.8119C33.6867 60.9786 33.5649 61.1275 33.42 61.2519C33.3388 61.323 33.247 61.381 33.148 61.4239C33.0939 61.446 33.0376 61.4621 32.98 61.4719C32.9088 61.4867 32.8352 61.4867 32.764 61.4719C32.6733 61.4551 32.592 61.4052 32.536 61.3319C32.4939 61.2766 32.4652 61.2122 32.452 61.1439C32.4336 61.0461 32.4336 60.9457 32.452 60.8479C32.4837 60.6768 32.5432 60.5119 32.628 60.3599H32.652L32.668 60.3679Z" fill="#00376E"/>
<path d="M36.8 60.6359C36.4763 61.6678 35.9829 62.6384 35.34 63.5079L35.608 61.9799L36.508 61.0639L36.8 60.6359Z" fill="#00376E"/>
</g>
<path d="M47.248 58.744H43.504L43 60.016C42.9694 60.0958 42.9141 60.1637 42.8421 60.2097C42.7701 60.2558 42.6853 60.2776 42.6 60.272H41.2C41.1293 60.279 41.0579 60.2671 40.9933 60.2375C40.9287 60.2078 40.8731 60.1614 40.8324 60.1032C40.7916 60.0449 40.7672 59.9768 40.7615 59.906C40.7558 59.8351 40.7691 59.764 40.8 59.7L44.112 51.956C44.1675 51.8354 44.2568 51.7335 44.3689 51.6626C44.481 51.5916 44.6113 51.5546 44.744 51.556H46.156C46.2916 51.5529 46.4251 51.59 46.5397 51.6626C46.6543 51.7352 46.7448 51.84 46.8 51.964L50 59.716C50.0278 59.7777 50.0395 59.8456 50.0339 59.9131C50.0283 59.9806 50.0056 60.0456 49.9681 60.102C49.9305 60.1584 49.8792 60.2043 49.819 60.2354C49.7588 60.2665 49.6917 60.2819 49.624 60.28H48.12C48.0342 60.2853 47.949 60.2629 47.877 60.2161C47.805 60.1693 47.7499 60.1005 47.72 60.02L47.248 58.744ZM46.516 56.84L45.516 54.232C45.5069 54.2075 45.4905 54.1863 45.4691 54.1714C45.4476 54.1565 45.4221 54.1485 45.396 54.1485C45.3699 54.1485 45.3444 54.1565 45.3229 54.1714C45.3015 54.1863 45.2851 54.2075 45.276 54.232L44.252 56.84C44.2455 56.8557 44.2423 56.8726 44.2424 56.8896C44.2425 56.9066 44.246 56.9234 44.2527 56.9391C44.2594 56.9547 44.2692 56.9689 44.2814 56.9807C44.2937 56.9925 44.3081 57.0018 44.324 57.008H44.372H46.4C46.4211 57.0082 46.4419 57.0032 46.4606 56.9934C46.4792 56.9837 46.4952 56.9695 46.5071 56.9521C46.519 56.9347 46.5264 56.9146 46.5286 56.8936C46.5309 56.8727 46.5279 56.8515 46.52 56.832L46.516 56.84Z" fill="#00376E"/>
<path d="M73.2 51.5679C72.3243 51.5632 71.467 51.8184 70.7365 52.3013C70.006 52.7841 69.4352 53.4729 69.0965 54.2804C68.7577 55.0879 68.6662 55.9777 68.8335 56.8373C69.0009 57.6968 69.4195 58.4873 70.0365 59.1088C70.6534 59.7302 71.4409 60.1545 72.2992 60.3281C73.1574 60.5017 74.0479 60.4166 74.8579 60.0837C75.6678 59.7508 76.3607 59.185 76.8488 58.4581C77.337 57.7311 77.5984 56.8756 77.6 55.9999C77.6021 54.8294 77.1403 53.7057 76.3156 52.875C75.4909 52.0443 74.3705 51.5743 73.2 51.5679ZM73.2 58.3679C72.7253 58.3679 72.2613 58.2272 71.8666 57.9635C71.4719 57.6997 71.1643 57.3249 70.9827 56.8864C70.801 56.4478 70.7535 55.9653 70.8461 55.4997C70.9387 55.0342 71.1673 54.6065 71.5029 54.2709C71.8386 53.9352 72.2662 53.7067 72.7318 53.6141C73.1973 53.5214 73.6799 53.569 74.1184 53.7506C74.557 53.9323 74.9318 54.2399 75.1955 54.6346C75.4592 55.0292 75.6 55.4933 75.6 55.9679C75.6 56.6045 75.3471 57.2149 74.8971 57.665C74.447 58.1151 73.8365 58.3679 73.2 58.3679Z" fill="#00376E"/>
<path d="M86.532 54.7759V59.9759C86.532 60.082 86.4899 60.1838 86.4148 60.2588C86.3398 60.3338 86.2381 60.3759 86.132 60.3759H84.964C84.7801 60.3749 84.6041 60.3011 84.4744 60.1707C84.3448 60.0403 84.272 59.8638 84.272 59.6799V55.5599C84.272 54.3599 83.572 53.6719 82.672 53.6719C81.54 53.6719 80.992 54.3599 80.988 55.5559V59.9559C80.988 60.062 80.9459 60.1638 80.8708 60.2388C80.7958 60.3138 80.6941 60.3559 80.588 60.3559H79.456C79.2721 60.3549 79.0961 60.2811 78.9664 60.1507C78.8368 60.0203 78.764 59.8438 78.764 59.6599V52.0599C78.764 51.939 78.812 51.823 78.8976 51.7375C78.9831 51.652 79.0991 51.6039 79.22 51.6039H79.896C80.1824 51.6039 80.4571 51.7177 80.6597 51.9203C80.8622 52.1228 80.976 52.3975 80.976 52.6839C80.976 52.6839 81.624 51.5719 83.376 51.5719C83.7967 51.5641 84.2146 51.642 84.6042 51.8009C84.9938 51.9597 85.347 52.1962 85.6423 52.496C85.9375 52.7957 86.1687 53.1525 86.3217 53.5444C86.4746 53.9364 86.5462 54.3554 86.532 54.7759Z" fill="#00376E"/>
<path d="M87.692 56.0279V55.9999C87.692 53.5999 89.42 51.5999 91.884 51.5999C94.708 51.5999 96 53.7999 96 56.1999C95.9989 56.3658 95.9323 56.5245 95.8146 56.6414C95.697 56.7583 95.5379 56.8239 95.372 56.8239H90.076C90.1501 57.3094 90.4037 57.7494 90.7866 58.0568C91.1696 58.3642 91.654 58.5166 92.144 58.4839C92.7943 58.5 93.4278 58.2765 93.924 57.8559C94.0012 57.7908 94.099 57.7551 94.2 57.7551C94.301 57.7551 94.3988 57.7908 94.476 57.8559L95.252 58.5439C95.2942 58.5806 95.3286 58.6253 95.3535 58.6753C95.3783 58.7254 95.393 58.7799 95.3968 58.8356C95.4005 58.8914 95.3931 58.9473 95.3752 59.0002C95.3572 59.0532 95.3289 59.102 95.292 59.1439C94.878 59.5584 94.383 59.8832 93.838 60.0979C93.2929 60.3126 92.7095 60.4127 92.124 60.3919C89.568 60.4079 87.688 58.6199 87.692 56.0279ZM93.664 55.3239C93.524 54.2479 92.892 53.5239 91.88 53.5199C90.868 53.5159 90.236 54.2279 90.044 55.3199L93.664 55.3239Z" fill="#00376E"/>
<path d="M65.112 57.9479C65.0475 57.8565 64.9495 57.7943 64.8394 57.7749C64.7293 57.7554 64.6159 57.7802 64.524 57.8439C64.0655 58.2234 63.4948 58.4413 62.9 58.4639C62.5838 58.4642 62.2707 58.4005 61.9797 58.2768C61.6887 58.1531 61.4256 57.9719 61.2063 57.744C60.987 57.5161 60.8161 57.2463 60.7036 56.9507C60.5912 56.6552 60.5396 56.3399 60.552 56.0239C60.552 56.0039 60.552 55.9839 60.552 55.9639C60.552 55.9439 60.552 55.9239 60.552 55.9039C60.5401 55.5881 60.5923 55.2732 60.7052 54.978C60.8182 54.6828 60.9897 54.4136 61.2094 54.1864C61.4291 53.9592 61.6925 53.7788 61.9837 53.656C62.2749 53.5333 62.588 53.4706 62.904 53.4719C63.4979 53.4962 64.0673 53.7155 64.524 54.0959C64.5681 54.1302 64.6185 54.1554 64.6723 54.1701C64.7262 54.1848 64.7824 54.1888 64.8378 54.1817C64.8932 54.1747 64.9466 54.1567 64.995 54.129C65.0435 54.1012 65.0859 54.0641 65.12 54.0199L65.784 53.0759C65.8166 53.0308 65.8399 52.9796 65.8527 52.9254C65.8656 52.8712 65.8676 52.815 65.8586 52.76C65.8497 52.7051 65.8301 52.6524 65.8008 52.605C65.7715 52.5576 65.7332 52.5165 65.688 52.4839C64.858 51.9 63.8708 51.5807 62.856 51.5679C60.212 51.5679 58.216 53.4439 58.216 55.9399C58.216 55.9399 58.216 55.9639 58.216 55.9759C58.216 55.9879 58.216 55.9999 58.216 56.0119C58.216 58.5079 60.216 60.3919 62.848 60.4119C63.8618 60.4005 64.8486 60.0841 65.68 59.5039C65.7255 59.4717 65.7642 59.4308 65.7938 59.3835C65.8235 59.3363 65.8435 59.2837 65.8528 59.2287C65.8621 59.1737 65.8605 59.1174 65.848 59.063C65.8355 59.0087 65.8124 58.9573 65.78 58.9119L65.112 57.9479Z" fill="#00376E"/>
<path d="M57.092 57.9399C57.0275 57.8486 56.9295 57.7863 56.8194 57.7669C56.7093 57.7474 56.5959 57.7722 56.504 57.8359C56.0455 58.2155 55.4748 58.4333 54.88 58.4559C54.5638 58.4562 54.2507 58.3925 53.9597 58.2688C53.6686 58.1451 53.4056 57.9639 53.1863 57.736C52.967 57.5081 52.7961 57.2383 52.6836 56.9428C52.5712 56.6472 52.5196 56.3319 52.532 56.0159C52.532 55.9959 52.532 55.9759 52.532 55.9559C52.532 55.9359 52.532 55.9159 52.532 55.8959C52.5201 55.5801 52.5723 55.2652 52.6852 54.97C52.7982 54.6748 52.9697 54.4056 53.1894 54.1784C53.4091 53.9512 53.6725 53.7708 53.9637 53.648C54.2549 53.5253 54.568 53.4626 54.884 53.4639C55.4793 53.4874 56.0502 53.7067 56.508 54.0879C56.5968 54.1559 56.7088 54.186 56.8196 54.1717C56.9305 54.1575 57.0313 54.1001 57.1 54.0119L57.764 53.0679C57.7966 53.0228 57.8199 52.9716 57.8327 52.9174C57.8455 52.8632 57.8476 52.807 57.8386 52.752C57.8297 52.6971 57.8101 52.6444 57.7808 52.597C57.7515 52.5496 57.7132 52.5085 57.668 52.4759C56.8379 51.8922 55.8507 51.573 54.836 51.5599C52.188 51.5599 50.196 53.4359 50.196 55.9319C50.196 55.9319 50.196 55.9559 50.196 55.9679C50.196 55.9799 50.196 55.9919 50.196 56.0039C50.196 58.4999 52.196 60.3839 54.828 60.4039C55.8418 60.3925 56.8286 60.0761 57.66 59.4959C57.7055 59.4637 57.7442 59.4228 57.7738 59.3755C57.8035 59.3283 57.8235 59.2757 57.8328 59.2207C57.8421 59.1657 57.8405 59.1094 57.828 59.0551C57.8155 59.0007 57.7924 58.9493 57.76 58.9039L57.092 57.9399Z" fill="#00376E"/>
</g>
</g>
<rect x="1" y="1" width="110" height="110" rx="9" stroke="black" stroke-opacity="0.1" stroke-width="2"/>
<defs>
<linearGradient id="paint0_linear_736_540" x1="25.124" y1="48.396" x2="28.808" y2="63.672" gradientUnits="userSpaceOnUse">
<stop stop-color="#00C6F9"/>
<stop offset="0.42" stop-color="#00C6F9"/>
<stop offset="0.79" stop-color="#009CE0"/>
<stop offset="1" stop-color="#0089D5"/>
</linearGradient>
<clipPath id="clip0_736_540">
<rect x="2" y="2" width="108" height="108" rx="8" fill="white"/>
</clipPath>
<clipPath id="clip1_736_540">
<rect width="80" height="21.888" fill="white" transform="translate(16 45)"/>
</clipPath>
</defs>
</svg>
