<svg width="112" height="112" viewBox="0 0 112 112" fill="none" xmlns="http://www.w3.org/2000/svg">
<g clip-path="url(#clip0_511_68)">
<rect x="1.99988" y="2" width="108" height="108" rx="8" fill="white"/>
<path d="M16 30.1006C16.2655 29.6843 16.2284 29.1928 16.3223 28.7371C17.7588 21.8283 23.586 16.6516 30.6004 16.08C31.1951 16.0313 31.7945 16.0035 32.3916 16.0035C48.265 16 64.1395 16 80.0141 16C87.7971 16 94.4741 21.6613 95.7553 29.3307C95.9176 30.3046 95.9825 31.282 95.9825 32.2652C95.9837 48.0399 95.9454 63.8146 95.9999 79.5894C96.0266 87.4408 90.7153 93.756 83.7682 95.429C82.7537 95.6737 81.7265 95.8383 80.6796 95.8545C80.5567 95.8568 80.4048 95.7873 80.319 95.9484H31.645C31.5789 95.8082 31.449 95.8568 31.3424 95.8534C24.1738 95.567 18.1368 90.6187 16.4336 83.6507C16.2759 83.0073 16.2713 82.3302 16 81.7134V30.1006ZM63.299 60.1567C63.3442 60.1312 63.3882 60.1057 63.4335 60.0791C63.5575 60.2263 63.67 60.384 63.8056 60.5196C68.6427 65.345 73.4785 70.1716 78.3213 74.99C80.661 77.3181 84.4952 76.9019 86.2934 74.1379C87.6418 72.0661 87.3079 69.4354 85.4296 67.549C82.3792 64.4859 79.3115 61.4402 76.2564 58.3805C74.8547 56.9777 74.8582 54.9267 76.2553 53.5308C79.2581 50.5291 82.2645 47.5298 85.2673 44.5292C85.4714 44.3252 85.6777 44.12 85.8644 43.8997C87.3253 42.1641 87.5154 39.6853 86.3351 37.8175C84.5647 35.0152 80.6587 34.5921 78.2726 36.9654C73.3892 41.8255 68.5198 46.7008 63.6422 51.5668C63.5042 51.7036 63.394 51.8891 63.1598 51.9563C63.1251 51.8091 63.0903 51.6989 63.0729 51.5865C61.4126 41.0348 51.1786 33.7643 40.6883 35.6842C31.5058 37.3653 24.8717 45.306 24.8648 54.6311C24.8613 60.166 24.8613 65.701 24.8683 71.2359C24.8683 71.6777 24.8822 72.1298 24.9773 72.5576C25.5291 75.0527 27.8398 76.7477 30.2908 76.4822C32.8902 76.2005 34.7754 74.0938 34.7754 71.4643C34.7765 65.9294 34.7754 60.3944 34.7754 54.8595C34.7754 54.3389 34.8055 53.823 34.8704 53.3036C35.5904 47.5669 41.7109 43.8301 47.1589 45.8081C50.9919 47.1993 53.4197 50.6474 53.4197 54.6983C53.4197 60.2333 53.4267 65.7682 53.4127 71.3032C53.4104 72.0834 53.4696 72.8741 53.8046 73.5478C54.9779 75.9083 57.1657 76.8242 59.4393 76.3813C61.6236 75.9558 63.2839 73.9049 63.299 71.5965C63.3106 69.687 63.3013 67.7774 63.3013 65.8691C63.3013 63.9654 63.3013 62.0605 63.3013 60.1567H63.299ZM49.0395 58.0269C49.043 55.2699 46.854 53.0462 44.1236 53.0299C41.3886 53.0137 39.1115 55.278 39.1057 58.0188C39.0999 60.7272 41.3538 62.9648 44.09 62.9683C46.8575 62.9706 49.0372 60.7956 49.0395 58.0281V58.0269Z" fill="#00953B"/>
<path d="M63.299 60.1567C63.299 62.0605 63.298 63.9655 63.298 65.8692C63.298 67.7787 63.3073 69.6882 63.2957 71.5966C63.2806 73.905 61.6215 75.9571 59.4361 76.3814C57.1625 76.8243 54.9747 75.9084 53.8014 73.5479C53.4663 72.8731 53.4072 72.0836 53.4095 71.3033C53.4234 65.7683 53.4176 60.2334 53.4165 54.6984C53.4165 50.6475 50.9887 47.1994 47.1557 45.8082C41.7065 43.8302 35.5872 47.567 34.8672 53.3037C34.8023 53.8219 34.7721 54.3378 34.7721 54.8596C34.7744 60.3945 34.7744 65.9295 34.7721 71.4644C34.7721 74.0939 32.8869 76.1994 30.2875 76.4823C27.8377 76.7478 25.527 75.0528 24.974 72.5577C24.8789 72.1299 24.865 71.6778 24.865 71.236C24.8581 65.7011 24.8569 60.1661 24.8615 54.6312C24.8685 45.3062 31.5026 37.3655 40.6851 35.6843C51.1753 33.7644 61.4082 41.0349 63.0696 51.5866C63.087 51.6991 63.1218 51.8092 63.1566 51.9564C63.3908 51.8892 63.5009 51.7037 63.6389 51.5669C68.5165 46.7009 73.386 41.8268 78.2694 36.9655C80.6543 34.591 84.5603 35.0154 86.3319 37.8176C87.5121 39.6842 87.322 42.1642 85.8612 43.8998C85.6757 44.1201 85.4693 44.3253 85.2641 44.5294C82.2612 47.531 79.2549 50.5292 76.252 53.5309C74.855 54.9268 74.8515 56.9778 76.2532 58.3807C79.3082 61.4391 82.376 64.486 85.4264 67.5492C87.3058 69.4355 87.6385 72.0662 86.2901 74.138C84.4919 76.902 80.6589 77.3182 78.3181 74.9902C73.4741 70.1717 68.6394 65.3451 63.8024 60.5197C63.6667 60.3841 63.5531 60.2264 63.4302 60.0792C63.385 60.1047 63.3409 60.1302 63.2957 60.1568L63.299 60.1567Z" fill="#FEFEFE"/>
<path d="M49.0395 58.0269C49.036 60.7956 46.8568 62.9706 44.0893 62.9672C41.3531 62.9648 39.0992 60.726 39.105 58.0177C39.1108 55.2769 41.3879 53.0138 44.1229 53.0288C46.8533 53.0451 49.0423 55.2688 49.0388 58.0258L49.0395 58.0269Z" fill="#DBE000"/>
</g>
<rect x="1" y="1" width="110" height="110" rx="9" stroke="black" stroke-opacity="0.1" stroke-width="2"/>
<defs>
<clipPath id="clip0_511_68">
<rect x="2" y="2" width="108" height="108" rx="8" fill="white"/>
</clipPath>
</defs>
</svg>
