<svg width="112" height="112" viewBox="0 0 112 112" fill="none" xmlns="http://www.w3.org/2000/svg">
<g clip-path="url(#clip0_511_66)">
<rect x="1.99991" y="2" width="108" height="108" rx="8" fill="white"/>
<g clip-path="url(#clip1_511_66)">
<path d="M28.2273 51.4272C27.8152 51.1647 27.353 50.9908 26.87 50.9165C26.4063 50.8447 25.9332 50.8608 25.4753 50.9637C24.943 51.087 24.4452 51.3287 24.019 51.6707C23.5928 52.0127 23.2491 52.4463 23.0134 52.9393C22.7014 53.591 22.5898 54.3706 22.6933 55.2048C22.7761 55.8375 23.0296 56.4356 23.4265 56.9352C24.233 57.9666 25.5886 58.5091 26.866 58.2965C27.3631 58.2157 27.8385 58.0347 28.2634 57.7644C28.6883 57.4941 29.0538 57.1402 29.3377 56.7242C29.8607 55.938 30.0358 54.9499 29.899 53.9902C29.8249 53.4667 29.6368 52.9658 29.348 52.5229C29.0591 52.0801 28.6765 51.706 28.2273 51.4272Z" fill="#EB3223"/>
<path d="M29.1487 44.224C26.9096 43.888 24.6212 44.2235 22.5728 45.1881C20.5244 46.1526 18.8081 47.703 17.6408 49.643C16.4735 51.583 15.9077 53.8256 16.015 56.0872C16.1222 58.3488 16.8977 60.5278 18.2434 62.3486C19.589 64.1695 21.4444 65.5504 23.5749 66.3168C25.7053 67.0832 28.0152 67.2006 30.2124 66.6542C32.4096 66.1078 34.3955 64.9221 35.9188 63.2471C37.4422 61.5721 38.4346 59.483 38.7707 57.244C38.9938 55.7573 38.9219 54.2412 38.5591 52.7823C38.1963 51.3234 37.5497 49.9502 36.6562 48.7412C35.7627 47.5322 34.6399 46.511 33.3517 45.7359C32.0636 44.9608 30.6354 44.4471 29.1487 44.224ZM32.6876 59.3197C32.4704 59.5319 32.182 59.6556 31.8786 59.6668C31.5941 59.6701 31.3171 59.5755 31.0941 59.3987C30.9668 59.2988 30.8628 59.1723 30.7894 59.0281C30.7789 58.997 30.7607 58.9692 30.7365 58.9471C30.7122 58.9251 30.6827 58.9097 30.6508 58.9022C30.6189 58.8948 30.5856 58.8957 30.5541 58.9047C30.5226 58.9138 30.494 58.9307 30.4709 58.9539C30.3894 59.0354 30.299 59.1047 30.2077 59.1829C29.9138 59.4391 29.5935 59.6633 29.2521 59.8517C28.6483 60.1757 27.9951 60.3978 27.3189 60.5091C26.8462 60.5845 26.3661 60.602 25.8892 60.5613C24.9946 60.488 24.1279 60.2146 23.3532 59.7613C22.5845 59.3056 21.9251 58.6868 21.4216 57.9486C20.9557 57.2592 20.6392 56.48 20.4922 55.661C20.3453 54.8421 20.3712 54.0014 20.5682 53.193C20.7653 52.3847 21.1292 51.6264 21.6366 50.967C22.144 50.3075 22.7836 49.7614 23.5145 49.3637C24.1218 49.0376 24.7802 48.8172 25.4615 48.712C27.1845 48.4366 28.8505 48.9694 30.0888 49.934C30.5976 50.3296 31.0344 50.8099 31.38 51.3539C31.5202 51.5503 31.8428 51.9959 32.2037 53.2106C32.4871 54.2041 32.6981 55.217 32.835 56.2411C32.9035 56.7299 32.9458 57.0558 32.998 57.7124C33.0069 57.8281 33.0411 58.4073 33.0411 58.4619C33.0414 58.7833 32.9143 59.0918 32.6876 59.3197ZM36.2517 58.8879C36.0406 59.0914 35.7596 59.2063 35.4664 59.2089C35.1622 59.2087 34.8706 59.0878 34.6555 58.8727C34.4405 58.6577 34.3196 58.366 34.3193 58.0619L34.3071 57.8053C34.2902 57.0653 34.232 56.3269 34.1328 55.5934C34.0269 54.7291 33.8982 53.8998 33.7385 53.1161C33.36 51.2398 32.794 49.4062 32.0489 47.6431C31.9242 47.3539 31.8085 47.0729 31.6994 46.848C31.6261 46.7193 31.5741 46.5795 31.5454 46.4342C31.5386 46.3724 31.5444 46.3098 31.5625 46.2503C31.5806 46.1908 31.6105 46.1356 31.6505 46.0879C31.695 46.0315 31.7518 45.9861 31.8167 45.9552C31.8815 45.9242 31.9526 45.9086 32.0244 45.9095C32.1847 45.9208 32.3429 45.9523 32.4953 46.0032C32.714 46.0681 32.9232 46.1612 33.1177 46.2802C33.4464 46.4721 33.7325 46.7291 33.9584 47.0354C34.0927 47.2222 34.2094 47.421 34.3071 47.6293C34.4024 47.8436 34.4937 48.0554 34.5849 48.2712C34.8 48.7845 34.9963 49.3108 35.1886 49.8346C35.3116 50.1694 35.4216 50.5059 35.5324 50.8464C35.591 51.0264 35.6562 51.2195 35.7075 51.4004C35.7776 51.6497 35.8607 51.9177 35.934 52.1849C35.9699 52.3177 36.0155 52.4782 36.0432 52.6248C36.1043 52.9205 36.1458 53.2138 36.1947 53.4998C36.3039 54.1417 36.3788 54.7943 36.4391 55.3588C36.5385 56.3364 36.5768 57.134 36.5939 57.7376C36.5939 57.8044 36.6004 57.9951 36.6004 58.0692C36.5995 58.222 36.5682 58.3731 36.5084 58.5136C36.4485 58.6542 36.3613 58.7814 36.2517 58.8879Z" fill="#EB3223"/>
<path d="M47.0721 54.6639H43.4835V64.2509H45.3809V61.1112H47.0721C48.031 61.1112 48.8318 60.8065 49.4542 60.2028C50.0766 59.5992 50.3788 58.8179 50.3788 57.881C50.3788 56.9442 50.0676 56.1776 49.4526 55.5715C48.8375 54.9654 48.031 54.6639 47.0721 54.6639ZM48.0847 58.8806C47.9524 59.0129 47.7941 59.1165 47.6199 59.1847C47.4456 59.253 47.2591 59.2845 47.0721 59.2774H45.3809V56.4977H47.0721C47.2597 56.4909 47.4467 56.5229 47.6214 56.5917C47.7961 56.6606 47.9547 56.7648 48.0872 56.8977C48.2181 57.0249 48.3208 57.1781 48.3887 57.3475C48.4567 57.5169 48.4883 57.6987 48.4815 57.881C48.4893 58.0662 48.458 58.2509 48.3896 58.4231C48.3213 58.5954 48.2174 58.7512 48.0847 58.8806Z" fill="#EB3223"/>
<path d="M75.3564 56.967C74.7979 56.9666 74.2468 57.0947 73.7457 57.3414C73.2446 57.588 72.807 57.9467 72.4668 58.3896C72.1265 58.8325 71.8927 59.3477 71.7834 59.8954C71.6741 60.4431 71.6923 61.0086 71.8366 61.5482C71.9809 62.0877 72.2473 62.5868 72.6154 63.0069C72.9834 63.427 73.4432 63.7568 73.9591 63.9707C74.475 64.1847 75.0332 64.2771 75.5905 64.2407C76.1478 64.2044 76.6893 64.0404 77.1731 63.7613V64.2501H78.9971V60.5515C78.9813 59.596 78.5909 58.685 77.91 58.0145C77.229 57.3441 76.312 56.9679 75.3564 56.967ZM75.3564 62.4252C74.9971 62.4252 74.6459 62.3187 74.3471 62.1191C74.0483 61.9194 73.8155 61.6357 73.678 61.3038C73.5405 60.9718 73.5045 60.6065 73.5746 60.2541C73.6447 59.9017 73.8177 59.578 74.0718 59.3239C74.3259 59.0699 74.6496 58.8968 75.002 58.8267C75.3544 58.7566 75.7197 58.7926 76.0516 58.9301C76.3836 59.0676 76.6673 59.3005 76.8669 59.5992C77.0666 59.898 77.1731 60.2492 77.1731 60.6085C77.1727 61.0902 76.9811 61.552 76.6405 61.8927C76.2999 62.2333 75.8381 62.4248 75.3564 62.4252Z" fill="#EB3223"/>
<path d="M71.1218 62.4171H68.0261V54.6639H66.1287V64.2509H72.5817C71.9432 63.7776 71.4399 63.1454 71.1218 62.4171Z" fill="#EB3223"/>
<path d="M54.3178 56.967C53.7592 56.9665 53.2081 57.0944 52.7069 57.341C52.2057 57.5876 51.7681 57.9462 51.4277 58.3891C51.0873 58.8319 50.8534 59.3472 50.744 59.8949C50.6347 60.4426 50.6528 61.0082 50.797 61.5478C50.9413 62.0874 51.2077 62.5865 51.5757 63.0067C51.9438 63.4268 52.4035 63.7566 52.9194 63.9706C53.4354 64.1846 53.9936 64.2771 54.551 64.2407C55.1083 64.2044 55.6498 64.0404 56.1336 63.7613V64.2501H57.9552V60.5515C57.9399 59.5965 57.55 58.6857 56.8697 58.0152C56.1893 57.3448 55.2729 56.9684 54.3178 56.967ZM54.3178 62.4252C53.9584 62.4254 53.6071 62.319 53.3082 62.1195C53.0094 61.9199 52.7764 61.6363 52.6388 61.3043C52.5011 60.9724 52.465 60.6071 52.5351 60.2546C52.6051 59.9021 52.778 59.5784 53.0321 59.3242C53.2861 59.0701 53.6098 58.897 53.9622 58.8268C54.3147 58.7566 54.68 58.7926 55.012 58.93C55.344 59.0675 55.6278 59.3004 55.8274 59.5991C56.0271 59.8979 56.1336 60.2492 56.1336 60.6085C56.1332 61.0901 55.9418 61.5518 55.6014 61.8924C55.2609 62.2329 54.7993 62.4246 54.3178 62.4252Z" fill="#EB3223"/>
<path d="M84.5516 57.0028H82.3951V55.103L80.497 55.6114V57.0028H78.4326L78.4603 57.0493C78.9962 57.5421 79.4058 58.1565 79.6546 58.8407H80.4986V64.255H82.3951V58.8407H83.2342C83.4502 58.2529 83.7948 57.7207 84.2428 57.2831C84.3433 57.181 84.4462 57.0875 84.5516 57.0028Z" fill="#EB3223"/>
<path d="M61.6619 61.5006L59.9552 56.9694H57.9584L60.5947 64.1222L59.6415 66.857H61.6586L65.3548 56.9694H63.358L61.6619 61.5006Z" fill="#EB3223"/>
<path d="M43.912 52.7959C44.0356 52.8434 44.173 52.8399 44.294 52.7861C44.415 52.7323 44.5097 52.6327 44.5572 52.5091L45.0509 51.2268H47.745L48.2387 52.5091C48.275 52.6033 48.339 52.6842 48.4221 52.7414C48.5053 52.7985 48.6038 52.8291 48.7047 52.8293C48.766 52.8295 48.8268 52.8182 48.8839 52.7959C49.0075 52.7482 49.1072 52.6533 49.1609 52.5322C49.2147 52.4111 49.2182 52.2736 49.1707 52.1499L47.2073 47.0476C47.1446 46.8839 47.0336 46.743 46.8891 46.6436C46.7446 46.5443 46.5733 46.4911 46.398 46.4911C46.2226 46.4911 46.0513 46.5443 45.9068 46.6436C45.7623 46.743 45.6514 46.8839 45.5886 47.0476L43.6253 52.1499C43.5777 52.2736 43.5812 52.4111 43.635 52.5322C43.6888 52.6533 43.7884 52.7482 43.912 52.7959ZM46.3984 47.7254L47.3646 50.2273H45.4354L46.3984 47.7254Z" fill="#EB3223"/>
<path d="M61.3369 52.8285C61.4697 52.828 61.5969 52.775 61.6907 52.6809C61.7844 52.5869 61.8371 52.4595 61.8371 52.3266L61.8224 46.9156C61.822 46.7831 61.769 46.656 61.6751 46.5624C61.5812 46.4688 61.454 46.4163 61.3214 46.4163C61.1887 46.4167 61.0615 46.4698 60.9679 46.5639C60.8743 46.658 60.8218 46.7854 60.822 46.9181L60.8367 52.3291C60.8369 52.4616 60.8897 52.5886 60.9835 52.6823C61.0773 52.7759 61.2044 52.8285 61.3369 52.8285Z" fill="#EB3223"/>
<path d="M51.0762 52.6574L52.3153 51.2643L53.7523 52.6843C53.8462 52.7781 53.9735 52.8309 54.1063 52.8309C54.2391 52.8309 54.3664 52.7781 54.4603 52.6843C54.5542 52.5904 54.6069 52.4631 54.6069 52.3303C54.6069 52.1975 54.5542 52.0702 54.4603 51.9763L52.9939 50.523C52.9913 50.5198 52.9883 50.5171 52.9849 50.5148L54.4831 48.8203C54.5286 48.7712 54.5638 48.7134 54.5866 48.6504C54.6094 48.5875 54.6193 48.5206 54.6158 48.4537C54.6123 48.3868 54.5955 48.3213 54.5662 48.2611C54.537 48.2008 54.496 48.1471 54.4456 48.1029C54.3952 48.0588 54.3365 48.0252 54.2729 48.0042C54.2093 47.9832 54.1422 47.9751 54.0754 47.9805C54.0086 47.9858 53.9436 48.0045 53.8842 48.0354C53.8248 48.0663 53.7722 48.1088 53.7295 48.1604L51.2041 50.9938V46.9205C51.2041 46.7876 51.1513 46.6602 51.0573 46.5662C50.9634 46.4723 50.8359 46.4195 50.703 46.4195C50.5702 46.4195 50.4427 46.4723 50.3488 46.5662C50.2548 46.6602 50.202 46.7876 50.202 46.9205V52.3307C50.2019 52.4328 50.2331 52.5325 50.2914 52.6164C50.3496 52.7003 50.4322 52.7643 50.5279 52.7999C50.5841 52.8212 50.6438 52.8319 50.7039 52.8317C50.7747 52.8306 50.8445 52.8145 50.9087 52.7845C50.9729 52.7544 51.03 52.7111 51.0762 52.6574Z" fill="#EB3223"/>
<path d="M57.7214 52.8285C58.2813 52.8272 58.8179 52.6043 59.2139 52.2084C59.61 51.8125 59.8331 51.276 59.8346 50.7161V48.5205C59.8346 48.3877 59.7818 48.2602 59.6879 48.1663C59.5939 48.0723 59.4665 48.0195 59.3336 48.0195C59.2007 48.0195 59.0733 48.0723 58.9793 48.1663C58.8854 48.2602 58.8326 48.3877 58.8326 48.5205V50.7161C58.8247 51.0055 58.7043 51.2804 58.4968 51.4823C58.2893 51.6842 58.0113 51.7972 57.7218 51.7972C57.4323 51.7972 57.1542 51.6842 56.9467 51.4823C56.7393 51.2804 56.6188 51.0055 56.611 50.7161V48.5205C56.611 48.3877 56.5582 48.2602 56.4642 48.1663C56.3703 48.0723 56.2428 48.0195 56.11 48.0195C55.9771 48.0195 55.8496 48.0723 55.7557 48.1663C55.6617 48.2602 55.6089 48.3877 55.6089 48.5205V50.7161C55.6105 51.2759 55.8335 51.8123 56.2293 52.2081C56.6252 52.6039 57.1616 52.827 57.7214 52.8285Z" fill="#EB3223"/>
<path d="M65.2285 52.8285C65.733 52.829 66.2248 52.6702 66.6338 52.3747C66.6465 52.5025 66.7077 52.6206 66.8049 52.7045C66.9021 52.7885 67.0278 52.8319 67.156 52.8258C67.2843 52.8198 67.4053 52.7647 67.4942 52.6719C67.583 52.5792 67.6328 52.4559 67.6334 52.3275V50.4807C67.6334 50.4741 67.6334 50.4684 67.6334 50.4619C67.6334 50.4554 67.6334 50.4367 67.6334 50.4236C67.6334 49.948 67.4923 49.483 67.2281 49.0875C66.9638 48.6921 66.5882 48.3838 66.1488 48.2018C65.7094 48.0198 65.2258 47.9722 64.7593 48.0649C64.2928 48.1577 63.8643 48.3868 63.528 48.7231C63.1917 49.0594 62.9626 49.488 62.8698 49.9545C62.777 50.421 62.8247 50.9045 63.0067 51.3439C63.1887 51.7834 63.4969 52.159 63.8924 52.4232C64.2879 52.6875 64.7529 52.8285 65.2285 52.8285ZM65.2285 49.0216C65.506 49.0216 65.7773 49.1039 66.008 49.2581C66.2387 49.4123 66.4185 49.6314 66.5246 49.8878C66.6308 50.1442 66.6585 50.4263 66.6043 50.6984C66.5501 50.9706 66.4164 51.2205 66.2202 51.4167C66.0239 51.6129 65.7739 51.7464 65.5017 51.8004C65.2295 51.8545 64.9474 51.8266 64.6911 51.7203C64.4348 51.614 64.2157 51.434 64.0617 51.2032C63.9076 50.9724 63.8255 50.7011 63.8256 50.4236C63.8263 50.0518 63.9743 49.6955 64.2373 49.4327C64.5003 49.1698 64.8567 49.022 65.2285 49.0216Z" fill="#EB3223"/>
<path d="M68.9596 52.7967C69.0159 52.8179 69.0755 52.8287 69.1356 52.8285C69.207 52.8285 69.2777 52.8132 69.3427 52.7837C69.4078 52.7542 69.4658 52.7111 69.5128 52.6574L70.7527 51.2643L72.189 52.6843C72.2355 52.7307 72.2906 52.7676 72.3514 52.7928C72.4121 52.8179 72.4772 52.8309 72.5429 52.8309C72.6087 52.8309 72.6738 52.8179 72.7345 52.7928C72.7953 52.7676 72.8504 52.7307 72.8969 52.6843C72.9434 52.6378 72.9803 52.5826 73.0054 52.5219C73.0306 52.4611 73.0435 52.396 73.0435 52.3303C73.0435 52.2646 73.0306 52.1995 73.0054 52.1387C72.9803 52.078 72.9434 52.0228 72.8969 51.9763L71.4305 50.523C71.4279 50.5198 71.4249 50.5171 71.4216 50.5148L72.9197 48.8203C72.9652 48.7712 73.0004 48.7134 73.0232 48.6504C73.046 48.5875 73.056 48.5206 73.0525 48.4537C73.049 48.3868 73.0321 48.3213 73.0029 48.2611C72.9736 48.2008 72.9326 48.1471 72.8822 48.1029C72.8318 48.0588 72.7731 48.0252 72.7095 48.0042C72.646 47.9832 72.5788 47.9751 72.512 47.9805C72.4453 47.9858 72.3803 48.0045 72.3209 48.0354C72.2615 48.0663 72.2089 48.1088 72.1662 48.1604L69.6407 50.9938V46.9205C69.6407 46.7876 69.5879 46.6602 69.494 46.5662C69.4 46.4723 69.2726 46.4195 69.1397 46.4195C69.0068 46.4195 68.8794 46.4723 68.7854 46.5662C68.6915 46.6602 68.6387 46.7876 68.6387 46.9205V52.3307C68.6389 52.4317 68.6696 52.5303 68.7269 52.6134C68.7842 52.6966 68.8654 52.7605 68.9596 52.7967Z" fill="#EB3223"/>
<path d="M76.1588 52.8285C76.7186 52.827 77.255 52.6039 77.6509 52.2081C78.0467 51.8123 78.2698 51.2759 78.2713 50.7161V48.5205C78.2713 48.3877 78.2185 48.2602 78.1245 48.1663C78.0306 48.0723 77.9031 48.0195 77.7702 48.0195C77.6374 48.0195 77.5099 48.0723 77.416 48.1663C77.322 48.2602 77.2692 48.3877 77.2692 48.5205V50.7161C77.2614 51.0055 77.1409 51.2804 76.9335 51.4823C76.726 51.6842 76.4479 51.7972 76.1584 51.7972C75.8689 51.7972 75.5909 51.6842 75.3834 51.4823C75.1759 51.2804 75.0555 51.0055 75.0476 50.7161V48.5205C75.0476 48.4548 75.0347 48.3896 75.0095 48.3288C74.9843 48.268 74.9474 48.2128 74.9009 48.1663C74.8544 48.1198 74.7991 48.0828 74.7383 48.0577C74.6776 48.0325 74.6124 48.0195 74.5466 48.0195C74.4808 48.0195 74.4157 48.0325 74.3549 48.0577C74.2941 48.0828 74.2389 48.1198 74.1923 48.1663C74.1458 48.2128 74.1089 48.268 74.0837 48.3288C74.0586 48.3896 74.0456 48.4548 74.0456 48.5205V50.7161C74.0471 51.276 74.2703 51.8125 74.6663 52.2084C75.0623 52.6043 75.5989 52.8272 76.1588 52.8285Z" fill="#EB3223"/>
<path d="M87.5698 56.9711C86.5173 56.9711 85.6293 57.3197 84.932 58.0081C84.2346 58.6965 83.8916 59.565 83.8916 60.611C83.8916 61.657 84.2419 62.5336 84.932 63.2179C85.622 63.9022 86.5165 64.255 87.5698 64.255C88.3299 64.268 89.0757 64.0476 89.7067 63.6236C90.3053 63.2114 90.7608 62.6232 91.0102 61.9405L91.0436 61.8501H88.8929C88.866 61.8794 88.8375 61.9071 88.8114 61.9316C88.7853 61.956 88.7593 61.9804 88.7299 62.0024L88.712 62.0171C88.6721 62.0497 88.6305 62.0806 88.589 62.1092L88.5629 62.1263C88.5303 62.1466 88.4977 62.1678 88.4643 62.1857C88.2436 62.3111 87.999 62.3887 87.7463 62.4133C87.4936 62.4379 87.2386 62.4091 86.9978 62.3288C86.757 62.2484 86.5358 62.1183 86.3486 61.9468C86.1614 61.7754 86.0124 61.5664 85.9112 61.3336H91.1812L91.1959 61.2318C91.2289 61.0261 91.2472 60.8184 91.2505 60.6102C91.2505 59.5633 90.8953 58.6868 90.1988 58.009C89.5022 57.3312 88.624 56.9711 87.5698 56.9711ZM87.5698 58.7992C87.9227 58.7991 88.2679 58.9022 88.563 59.0957C88.8582 59.2892 89.0903 59.5647 89.2309 59.8884H85.9096C86.0501 59.5649 86.2822 59.2894 86.5771 59.0959C86.8721 58.9024 87.2171 58.7993 87.5698 58.7992Z" fill="#EB3223"/>
<path d="M95.6367 56.9711C95.0463 56.9706 94.4651 57.117 93.9455 57.3971V56.9711H92.0481V64.2509H93.9455V60.5254C93.9505 60.0852 94.1268 59.6642 94.4371 59.3518C94.7474 59.0394 95.1671 58.8602 95.6074 58.8521H96V56.989C95.8793 56.9769 95.758 56.9709 95.6367 56.9711Z" fill="#EB3223"/>
</g>
</g>
<rect x="1" y="1" width="110" height="110" rx="9" stroke="black" stroke-opacity="0.1" stroke-width="2"/>
<defs>
<clipPath id="clip0_511_66">
<rect x="2" y="2" width="108" height="108" rx="8" fill="white"/>
</clipPath>
<clipPath id="clip1_511_66">
<rect width="80" height="22.8994" fill="white" transform="translate(16 44.0953)"/>
</clipPath>
</defs>
</svg>
