<svg width="112" height="112" viewBox="0 0 112 112" fill="none" xmlns="http://www.w3.org/2000/svg">
<g clip-path="url(#clip0_736_548)">
<rect x="1.99988" y="2" width="108" height="108" rx="8" fill="white"/>
<path d="M35.4663 56.1951C37.6548 55.0215 40.902 52.3981 40.902 48.7871C40.902 43.8631 36.3554 40.0688 30.8241 40.0688H19.8051C19.5692 40.0688 19.3431 40.1625 19.1764 40.3292C19.0096 40.4959 18.916 40.7221 18.916 40.9579V66.18H16.8917C16.7747 66.1797 16.6587 66.2023 16.5507 66.2469C16.4425 66.2913 16.3441 66.3568 16.2613 66.4394C16.1784 66.522 16.1126 66.6201 16.0678 66.7282C16.0229 66.8363 15.9998 66.9521 15.9999 67.0691V71.9931C15.9998 72.1101 16.0229 72.2259 16.0678 72.334C16.1126 72.4421 16.1784 72.5401 16.2613 72.6228C16.3441 72.7053 16.4425 72.7708 16.5507 72.8153C16.6587 72.8599 16.7747 72.8825 16.8917 72.8821H31.5271C37.1049 72.8821 41.7473 69.0852 41.7473 63.8356C41.7473 59.5243 37.9557 57.2346 35.4663 56.1951ZM26.324 46.8202H29.9814C31.7623 46.8202 33.2641 48.1306 33.2641 50.0072C33.273 50.8891 32.9329 51.7388 32.318 52.371C31.7031 53.0034 30.8633 53.367 29.9814 53.3829H25.6182V46.8175L26.324 46.8202ZM30.5887 66.18H25.6182V59.475H30.1209C31.9484 59.475 33.9508 60.8839 33.9508 62.7577C33.956 63.6566 33.6052 64.5208 32.9753 65.1621C32.3455 65.8032 31.4875 66.1692 30.5887 66.18Z" fill="#1A325E"/>
<path d="M95.1925 40.0688H78.3358C77.7892 40.0688 77.2479 40.1765 76.7429 40.3858C76.2379 40.5951 75.779 40.9018 75.3927 41.2884C75.0063 41.6751 74.6999 42.1341 74.4909 42.6392C74.282 43.1444 74.1746 43.6857 74.1749 44.2324V72.0068C74.1749 72.1238 74.198 72.2396 74.2429 72.3476C74.2878 72.4557 74.3535 72.5538 74.4364 72.6364C74.5192 72.719 74.6176 72.7844 74.7258 72.829C74.8339 72.8735 74.9498 72.8962 75.0668 72.8959H80.5954C80.8291 72.8884 81.0512 72.7924 81.2168 72.6273C81.3824 72.4623 81.479 72.2404 81.4872 72.0068V60.0823H87.1963C87.4479 60.0923 87.6953 60.0165 87.8981 59.8674C88.1009 59.7182 88.247 59.5047 88.3124 59.2617C88.3124 59.2617 89.9702 55.3634 90.1343 54.9695C90.4736 54.1488 89.9237 53.7166 89.4916 53.7166H81.4872V46.9597H92.7031C92.9753 46.9708 93.2431 46.8887 93.4624 46.7271C93.6817 46.5655 93.8394 46.3339 93.9095 46.0707C93.9095 46.0707 95.7041 41.8524 95.8819 41.4202C96.2566 40.5475 95.6603 40.0688 95.1925 40.0688Z" fill="#1A325E"/>
<path d="M72.2458 71.6782L60.3269 46.0457L56.6885 54.1321H56.735L60.2557 61.7917H55.5697C55.3212 61.7839 55.0775 61.8608 54.8785 62.01C54.6796 62.1592 54.5375 62.3717 54.4755 62.6124C54.4755 62.6124 52.8341 66.4641 52.6782 66.8526C52.3417 67.6569 52.886 68.0891 53.3128 68.0891H63.0434L64.6984 71.7329C65.1169 72.6138 65.4862 72.89 66.3205 72.89H71.4607C71.6083 72.9018 71.7562 72.8734 71.8889 72.8079C72.0215 72.7424 72.1341 72.6423 72.2145 72.5182C72.295 72.3939 72.3404 72.2504 72.3459 72.1024C72.3515 71.9546 72.3168 71.808 72.2458 71.6782Z" fill="#1A325E"/>
<path d="M57.7556 40.5198C57.6817 40.3714 57.5699 40.2452 57.4316 40.154C57.2932 40.0627 57.1332 40.0096 56.9677 40H56.5054C56.341 40.0082 56.1816 40.0596 56.0434 40.1489C55.9051 40.2382 55.7927 40.3623 55.7175 40.5088L41.2381 71.6782C41.1691 71.8078 41.1361 71.9538 41.1428 72.1007C41.1495 72.2476 41.1955 72.39 41.276 72.513C41.3565 72.6361 41.4686 72.7351 41.6005 72.8C41.7325 72.8648 41.8794 72.8931 42.026 72.8818H47.1196C47.4785 72.8936 47.832 72.7929 48.1308 72.5937C48.4296 72.3946 48.6585 72.1069 48.7856 71.7711L60.3407 46.0457L57.7556 40.5198Z" fill="#EEAF2E"/>
</g>
<rect x="1" y="1" width="110" height="110" rx="9" stroke="black" stroke-opacity="0.1" stroke-width="2"/>
<defs>
<clipPath id="clip0_736_548">
<rect x="2" y="2" width="108" height="108" rx="8" fill="white"/>
</clipPath>
</defs>
</svg>
