<svg width="112" height="112" viewBox="0 0 112 112" fill="none" xmlns="http://www.w3.org/2000/svg">
<g clip-path="url(#clip0_736_547)">
<rect x="1.99991" y="2" width="108" height="108" rx="8" fill="white"/>
<path d="M62.5337 53.9971C62.6525 53.9971 62.7713 53.8783 62.7713 53.7425V46.6148C62.7713 46.4791 62.6525 46.3603 62.5337 46.3603H61.2609C61.1421 46.3603 61.0233 46.4791 61.0233 46.6148V53.7255C61.0233 53.8613 61.1251 53.9801 61.2609 53.9801H62.5337V53.9971Z" fill="black"/>
<path d="M70.6966 46.3603H69.4747C69.3389 46.3603 69.2371 46.4791 69.2371 46.6148V49.5677H66.6745V46.6148C66.6745 46.4791 66.5727 46.3603 66.4369 46.3603H65.215C65.0962 46.3603 64.9944 46.4791 64.9944 46.6148V53.7255C64.9944 53.8613 65.0962 53.9801 65.215 53.9801H66.4369C66.5557 53.9801 66.6745 53.8613 66.6745 53.7255V50.3993H69.2371V53.7255C69.2371 53.8613 69.3389 53.9801 69.4747 53.9801H70.6966C70.8154 53.9801 70.9342 53.8613 70.9342 53.7255V46.6148C70.9342 46.4791 70.8323 46.3603 70.6966 46.3603Z" fill="black"/>
<path d="M49.0759 46.3603H46.0551C45.9193 46.3603 45.8175 46.479 45.8175 46.6148V53.7255C45.8175 53.8613 45.9193 53.9801 46.0551 53.9801H49.042C50.8239 53.9801 52.1985 52.894 52.1985 50.1447C52.1985 47.3955 50.8409 46.3433 49.0759 46.3433M48.6347 53.1485H47.4976V47.1579H48.6347C50.0093 47.1579 50.4505 48.0743 50.4505 50.1447C50.4505 52.2151 50.0432 53.1655 48.6347 53.1655" fill="black"/>
<path d="M59.7165 53.7425L57.2388 46.6318C57.2049 46.4961 57.0521 46.3773 56.9164 46.3773H55.6605C55.6605 46.3773 55.5078 46.4451 55.4908 46.513L53.0131 53.8613C53.0131 53.8613 53.0131 53.9971 53.081 53.9971H53.8277C53.8277 53.9971 53.9804 53.9292 53.9974 53.8613L54.6083 51.9946H57.2727L57.8498 53.7425C57.9007 53.8783 58.0364 53.9971 58.1722 53.9971H59.5299C59.6487 53.9971 59.7165 53.8953 59.6826 53.7425M54.8799 51.18L55.949 47.9046L57.0182 51.18H54.8799Z" fill="black"/>
<path d="M78.7237 53.7255L76.263 46.6148C76.2121 46.4621 76.0763 46.3603 75.9405 46.3603H74.6847C74.6847 46.3603 74.5489 46.4282 74.515 46.496L72.0373 53.8443C72.0373 53.8443 72.0373 53.9801 72.1221 53.9801H72.8858C72.8858 53.9801 73.0216 53.9122 73.0555 53.8443L73.6665 51.9776H76.3478L76.9248 53.7255C76.9757 53.8613 77.1115 53.9801 77.2303 53.9801H78.588C78.7068 53.9801 78.7916 53.8613 78.7407 53.7255M73.938 51.163L75.0071 47.8876L76.0763 51.163H73.938Z" fill="black"/>
<path d="M84.0016 46.3603H78.2994C78.2994 46.3603 78.1807 46.4282 78.1807 46.496V47.0391C78.1807 47.0391 78.2316 47.1749 78.2994 47.1749H80.3359V53.7086C80.3359 53.8443 80.4378 53.9631 80.5735 53.9631H81.8124C81.9482 53.9631 82.05 53.8443 82.05 53.7086V47.1749H84.0356C84.0356 47.1749 84.1713 47.1239 84.1713 47.0391V46.496C84.1713 46.496 84.1034 46.3603 84.0356 46.3603" fill="black"/>
<path d="M94.9817 51.4684V46.496C94.9817 46.496 95.0496 46.3603 95.1005 46.3603H95.8302C95.8302 46.3603 95.966 46.4282 95.966 46.496V51.2309C95.966 51.6551 95.966 51.8079 95.966 52.0794C95.8642 53.5898 94.8968 54.065 93.3355 54.065C91.4857 54.065 90.6202 53.0298 90.4505 52.0794C90.3826 51.723 90.3826 51.3497 90.3826 51.0272V46.6318C90.3826 46.496 90.4844 46.3772 90.6202 46.3772H91.8251C91.9609 46.3772 92.0627 46.496 92.0627 46.6318V51.6042C92.0627 51.7909 92.0627 52.0115 92.0967 52.2321C92.1815 52.6394 92.453 53.3352 93.5392 53.3352C94.4895 53.3352 94.9647 52.7752 94.9647 52.0794V51.5024L94.9817 51.4684Z" fill="black"/>
<path d="M88.5667 47.5482C88.5667 47.5482 88.6855 47.5143 88.6855 47.4464V46.7845C88.6855 46.6997 88.6516 46.6657 88.5667 46.6148C88.5667 46.6148 88.414 46.513 88.0237 46.4112C87.7352 46.3433 87.2939 46.2584 86.8187 46.2584C85.6987 46.2584 85.1726 46.6318 84.8501 47.073C84.5447 47.4973 84.4089 48.0234 84.5277 48.6174C84.6974 49.6017 85.4781 50.1956 86.2757 50.7896C86.8866 51.2478 87.4806 51.6042 87.6842 52.1982C87.7691 52.4358 87.7352 52.8091 87.5145 53.0128C87.2939 53.2164 87.0394 53.3013 86.6151 53.3013C86.1569 53.3013 85.5459 53.1995 84.935 52.911C84.8332 52.86 84.6974 52.7922 84.6974 52.7922C84.6295 52.7582 84.5786 52.7922 84.5786 52.877V53.5558C84.5786 53.5558 84.6295 53.6916 84.7144 53.7256C84.7144 53.7256 84.7992 53.7595 84.8841 53.7934C85.4102 53.9801 85.9872 54.065 86.649 54.065C87.7521 54.065 88.3461 53.6746 88.6516 53.3183C89.008 52.911 89.1946 52.317 89.0419 51.6042C88.8383 50.4672 87.8879 49.8562 87.1242 49.3301C86.5642 48.9228 85.9872 48.5325 85.8344 48.0743C85.7326 47.7349 85.8684 47.4973 85.9532 47.3785C86.106 47.1749 86.4284 47.0221 86.8697 47.0221C87.26 47.0221 87.6503 47.107 88.0916 47.3106C88.1764 47.3446 88.3631 47.4464 88.5498 47.5482" fill="black"/>
<path d="M16.0169 43H40.7263V57.5439H16.0169V43ZM23.484 47.2766C28.2189 47.2766 34.8544 47.7348 38.011 49.0076C38.2995 49.1264 38.5371 49.2282 38.5371 49.4489C38.5371 49.7374 37.8922 49.941 37.2982 50.1277C34.9563 50.8574 30.7984 51.706 24.689 52.1302L19.0377 46.479C18.4947 46.479 18.0364 46.5129 17.6801 46.5299L23.535 52.3848L21.9567 54.6928C31.4094 53.1994 35.686 51.706 37.5867 50.8235C37.994 50.6368 39.165 50.1107 39.165 49.4319C39.165 49.0076 38.7747 48.7531 38.2486 48.5324C36.2969 47.7009 33.0216 47.1408 29.7971 46.8693C26.4369 46.5299 21.9736 46.4451 19.5129 46.462L24.7908 51.7229C25.826 51.6551 26.7933 51.5532 27.7267 51.4684L23.501 47.2427L23.484 47.2766Z" fill="black"/>
<path d="M32.6482 62.7031L31.9354 64.6207H33.344L32.6482 62.7031Z" fill="black"/>
<path d="M49.8056 62.7539L49.0929 64.6716H50.5184L49.8226 62.7539H49.8056Z" fill="black"/>
<path d="M69.4917 62.4994H68.2358V63.7892H69.4238C69.9499 63.7892 70.2044 63.6025 70.2044 63.1273C70.2044 62.8728 70.0856 62.4994 69.4917 62.4994Z" fill="black"/>
<path d="M95.9999 58.4604H15.9999V69.661H95.9999V58.4604ZM23.4501 62.5333H21.0233V63.6195H23.1446V64.468H21.0233V66.5045H20.005V61.6678H23.4501V62.5333ZM24.7738 66.4536H23.7725V61.6339H24.7738V66.4536ZM29.5935 66.4536H28.4734L26.3012 63.0085V66.4536H25.266V61.6339H26.4369L28.5413 64.9941V61.6339H29.5765V66.4536H29.5935ZM34.0568 66.4536L33.7004 65.4693H31.63L31.2397 66.4536H30.0178L31.9864 61.6339H33.327L35.2787 66.4536H34.0229H34.0568ZM40.0135 66.5045H38.9104L36.7382 63.0594H36.7212V66.5045H35.686V61.6678H36.857L38.9613 65.028H38.9783V61.6678H40.0135V66.5045ZM42.9494 65.7578C43.5604 65.7578 44.0016 65.4523 44.1204 64.8583H45.2235C45.0029 65.9105 44.2562 66.6403 42.9325 66.6403C41.5239 66.6403 40.5226 65.7747 40.5226 64.1116C40.5226 62.4485 41.5918 61.566 42.9494 61.566C44.5277 61.566 45.1726 62.5673 45.2235 63.2631H44.1204C44.0356 62.9746 43.8659 62.4315 42.9494 62.4315C42.4234 62.4315 41.6427 62.754 41.6427 64.1116C41.6427 64.9771 42.0161 65.7578 42.9494 65.7578ZM46.666 66.5045H45.6648V61.6678H46.666V66.5045ZM51.2142 66.5045L50.8578 65.5202H48.8044L48.414 66.5045H47.1921L49.1607 61.6678H50.5014L52.4531 66.5045H51.1972H51.2142ZM56.1187 66.5045H52.7076V61.6678H53.7259V65.622H56.1187V66.5045ZM60.8536 66.5893C58.9019 66.5893 58.5795 65.5711 58.5795 64.9771H59.6486C59.6486 65.2487 59.8014 65.7578 60.7687 65.7578C61.2948 65.7578 61.8888 65.639 61.8888 65.1299C61.8888 64.7565 61.4815 64.6547 60.9215 64.5359L60.3614 64.4001C59.4959 64.2134 58.6643 64.0437 58.6643 62.9916C58.6643 62.4485 58.9698 61.4981 60.7178 61.4981C62.347 61.4981 62.7882 62.4655 62.7882 63.0594H61.7191C61.6851 62.8558 61.6003 62.3297 60.633 62.3297C60.2087 62.3297 59.7165 62.4824 59.7165 62.9067C59.7165 63.2801 60.056 63.3649 60.2766 63.4158L61.5663 63.7043C62.2961 63.874 62.9749 64.1286 62.9749 65.0111C62.9749 66.4536 61.3457 66.5893 60.8875 66.5893M66.9121 66.5045H63.2464V61.6678H66.8103V62.5333H64.2477V63.5516H66.6066V64.4001H64.2477V65.656H66.9121V66.5045ZM70.2044 66.5045L69.305 64.6038H68.2698V66.5045H67.2855V61.6678H69.7293C71.019 61.6678 71.4094 62.5503 71.4094 63.1782C71.4094 64.1965 71.07 64.3662 70.5099 64.5868C70.5099 64.5868 71.4094 66.4536 71.4942 66.4705H70.2214L70.2044 66.5045ZM74.8205 66.5045H73.1743L71.2736 61.6678H72.6652L74.0059 65.3335L75.3466 61.6678H76.6873L74.8035 66.5045H74.8205ZM78.0789 66.4536H77.0606V61.6339H78.0789V66.4536ZM80.9639 65.7069C81.5748 65.7069 81.9991 65.4014 82.1349 64.8074H83.238C83.0173 65.8596 82.2706 66.5893 80.9469 66.5893C79.5383 66.5893 78.5371 65.7238 78.5371 64.0437C78.5371 62.3636 79.6062 61.4981 80.9639 61.4981C82.5422 61.4981 83.187 62.4994 83.238 63.2122H82.1349C82.05 62.9237 81.8803 62.3806 80.9639 62.3806C80.4378 62.3806 79.6571 62.7031 79.6571 64.0607C79.6571 64.9262 80.0305 65.7069 80.9639 65.7069ZM87.4467 66.4875H83.781V61.6509H87.3279V62.5164H84.7653V63.5346H87.1243V64.3832H84.7653V65.639H87.4467V66.4875ZM89.9414 66.6233C87.9898 66.6233 87.6673 65.605 87.6673 65.0111H88.7365C88.7365 65.2826 88.8892 65.7917 89.8565 65.7917C90.3826 65.7917 90.9766 65.6729 90.9766 65.1638C90.9766 64.7905 90.5693 64.6886 90.0093 64.5698L89.4492 64.451C88.5837 64.2644 87.7691 64.0947 87.7691 63.0425C87.7691 62.4994 88.0916 61.549 89.8226 61.549C91.4518 61.549 91.893 62.5164 91.893 63.1104H90.8239C90.7899 62.8897 90.7051 62.3806 89.7377 62.3806C89.3135 62.3806 88.8044 62.5333 88.8044 62.9576C88.8044 63.331 89.1438 63.4158 89.3644 63.4667L90.6542 63.7552C91.3839 63.908 92.0627 64.1795 92.0627 65.045C92.0627 66.4875 90.4335 66.6233 89.9753 66.6233" fill="black"/>
</g>
<rect x="1" y="1" width="110" height="110" rx="9" stroke="black" stroke-opacity="0.1" stroke-width="2"/>
<defs>
<clipPath id="clip0_736_547">
<rect x="2" y="2" width="108" height="108" rx="8" fill="white"/>
</clipPath>
</defs>
</svg>
