<svg width="112" height="112" viewBox="0 0 112 112" fill="none" xmlns="http://www.w3.org/2000/svg">
<g clip-path="url(#clip0_511_71)">
<rect x="1.99988" y="2" width="108" height="108" rx="8" fill="white"/>
<g clip-path="url(#clip1_511_71)">
<path d="M27.1298 51.5616C28.2961 51.5616 29.4614 51.5616 30.6307 51.5616C31.2968 51.5616 31.4549 51.4016 31.4569 50.7294C31.4619 49.3801 31.4569 48.0287 31.4569 46.6814C31.4569 46.1442 31.4569 46.1442 31.921 46.3923C35.6219 48.3928 37.8735 52.8679 37.2793 57.033C36.6202 61.6431 33.5134 65.081 28.9993 66.1543C27.1458 66.5954 25.3033 66.4833 23.4799 65.9282C23.0298 65.7592 23.0668 65.8592 23.0668 65.3721C23.0668 64.0897 23.0848 62.8064 23.0668 61.5241C23.0608 61.167 23.1748 61.079 23.5179 61.081C25.4674 61.096 27.4189 61.09 29.3654 61.089C30.1245 61.089 30.2986 60.9129 30.2986 60.1437C30.2986 58.7614 30.2986 57.3791 30.2986 55.9967C30.2986 55.3756 30.1235 55.1965 29.4924 55.1965C27.5099 55.1965 25.5274 55.1855 23.5449 55.2025C23.1738 55.2025 23.0578 55.1025 23.0688 54.7274C23.0958 53.8122 23.0888 52.8949 23.0688 51.9797C23.0618 51.6556 23.1508 51.5476 23.4869 51.5526C24.7022 51.5726 25.9135 51.5606 27.1298 51.5616Z" fill="#FC0303"/>
<path d="M21.9015 65.2721C20.3296 64.4899 18.978 63.3275 17.9695 61.8902C13.5514 55.6156 16.9373 46.8895 24.4361 45.244C26.2355 44.8502 28.1068 44.9361 29.8625 45.4931C30.3306 45.6531 30.3306 45.6531 30.3116 46.0742C30.2536 47.3386 30.2816 48.6059 30.3116 49.8752C30.3216 50.3103 30.1686 50.3933 29.7695 50.3893C27.5369 50.3713 25.3054 50.3783 23.0728 50.3783C21.9655 50.3783 21.9025 50.4413 21.9025 51.5226C21.9025 52.8376 21.9025 54.1533 21.9025 55.4696C21.9025 56.2228 22.0445 56.3628 22.8157 56.3638C24.7482 56.3638 26.6807 56.3718 28.6172 56.3558C28.9953 56.3558 29.1423 56.4348 29.1253 56.8499C29.0893 57.6982 29.0953 58.5504 29.1253 59.3976C29.1383 59.7877 29.0253 59.9107 28.6252 59.9067C26.7097 59.8857 24.7932 59.8977 22.8777 59.8967C22.0305 59.8967 21.9055 60.0207 21.9045 60.885L21.9015 65.2721Z" fill="#FC0303"/>
<path d="M67.3929 53.6602C67.831 53.3008 68.336 53.0317 68.8787 52.8686C69.4214 52.7055 69.991 52.6516 70.5547 52.7099C71.2439 52.7679 71.869 53.01 72.2841 53.5751C72.5012 53.8752 72.6152 53.8182 72.8503 53.6272C73.9295 52.7459 75.1688 52.4919 76.5062 52.827C76.9918 52.9363 77.425 53.2097 77.7327 53.601C78.0404 53.9923 78.2039 54.4777 78.1956 54.9755C78.2126 57.124 78.1956 59.2766 78.2066 61.4221C78.2066 61.8222 78.0416 62.0063 77.6445 62.0013C77.2284 61.9959 76.8119 61.9959 76.3952 62.0013C75.9811 62.0083 75.795 61.8332 75.8 61.4011C75.813 59.5686 75.806 57.7362 75.8 55.8997C75.8 54.9865 75.4859 54.7064 74.5697 54.8124C74.3546 54.8368 74.1426 54.8841 73.9375 54.9535C72.9543 55.2876 72.8193 55.4826 72.8193 56.5169V61.2181C72.8193 61.9452 72.7622 61.9993 72.0131 62.0013C71.696 62.0013 71.3799 62.0013 71.0628 62.0013C70.5147 61.9922 70.3946 61.8732 70.3936 61.3161C70.3896 59.5156 70.3896 57.7168 70.3936 55.9197C70.3936 54.9675 70.0936 54.7014 69.1403 54.8194C68.9264 54.846 68.7161 54.896 68.5132 54.9685C67.5499 55.3166 67.4299 55.4946 67.4299 56.5119C67.4299 58.1273 67.4149 59.7437 67.4349 61.3591C67.4409 61.8412 67.2569 62.0263 66.7887 62.0043C66.3886 61.9862 65.9885 62.0043 65.5884 62.0043C65.2303 62.0043 65.0313 61.8592 65.0323 61.4681C65.037 58.7534 65.037 56.0384 65.0323 53.3231C65.0323 52.956 65.2183 52.8229 65.5634 52.8229C65.8635 52.831 66.1636 52.8229 66.4637 52.8229C67.2679 52.8229 67.2679 52.8229 67.3929 53.6602Z" fill="#393939"/>
<path d="M84.9613 61.177C84.0861 61.8202 83.1748 62.1633 82.1326 62.1313C80.5662 62.0813 79.6589 61.171 79.6599 59.6146C79.6599 59.2145 79.6279 58.8144 79.7329 58.4213C80.006 57.4031 80.9333 56.7349 82.1556 56.6979C82.9208 56.6739 83.689 56.6759 84.4562 56.6979C84.7912 56.7069 84.9103 56.6689 84.9103 56.2628C84.9103 56.0628 84.9103 55.8967 84.9103 55.7137C84.9103 54.8134 84.6242 54.5304 83.71 54.5204C83.4425 54.508 83.1745 54.522 82.9098 54.5624C82.4526 54.6484 82.1526 54.9065 82.1816 55.4176C82.2076 55.8957 81.9895 56.0748 81.5194 56.0367C81.153 56.0142 80.7855 56.0142 80.4191 56.0367C80.052 56.0528 79.919 55.8807 79.908 55.5306C79.848 54.2193 80.4581 53.3021 81.7165 52.937C82.9565 52.5819 84.2714 52.5819 85.5114 52.937C86.6817 53.2631 87.2719 54.0683 87.2789 55.2926C87.2909 57.3081 87.2859 59.3246 87.2789 61.3401C87.2789 61.9072 87.1789 61.9992 86.6057 62.0052C86.3557 62.0052 86.1056 62.0052 85.8555 62.0052C85.1173 62.0042 85.0943 61.9852 84.9613 61.177ZM84.8863 58.9555C84.8863 58.4183 84.7532 58.3653 84.3121 58.3913C83.8 58.4213 83.2839 58.3913 82.7697 58.4033C82.2216 58.4203 82.0255 58.6644 82.0185 59.2886C82.0115 59.9127 82.1966 60.1578 82.7397 60.2018C83.3809 60.2548 83.94 60.0107 84.4852 59.7137C84.7872 59.5496 84.8863 59.4136 84.8863 58.9555Z" fill="#393939"/>
<path d="M42.6597 55.7197C42.6597 53.8879 42.6597 52.0568 42.6597 50.2263C42.6597 49.5551 42.7057 49.5141 43.3599 49.5131C45.4424 49.5131 47.5239 49.5251 49.6055 49.5031C50.0796 49.5031 50.2886 49.6421 50.2416 50.1273C50.2186 50.3753 50.2416 50.6274 50.2416 50.8765C50.2416 51.5256 50.1896 51.5766 49.5164 51.5766C48.2511 51.5766 46.9848 51.6026 45.7205 51.5636C45.2203 51.5486 45.1303 51.7087 45.1303 52.1788C45.1303 52.8089 45.1303 53.4711 45.1303 54.0793C45.1163 54.4193 45.2043 54.5404 45.5664 54.5324C46.6817 54.5094 47.798 54.5394 48.9133 54.5164C49.3784 54.5064 49.5474 54.6924 49.5194 55.1365C49.4994 55.4516 49.5074 55.7697 49.5194 56.0858C49.5314 56.4689 49.3544 56.6199 48.9743 56.6159C47.842 56.6049 46.7097 56.6259 45.5734 56.6049C45.2283 56.5989 45.1223 56.6919 45.1273 57.047C45.1473 58.4784 45.1373 59.9097 45.1343 61.3421C45.1343 61.9232 45.0523 61.9982 44.4662 62.0032C44.1001 62.0032 43.7333 62.0032 43.3659 62.0032C42.7517 62.0032 42.6657 61.9192 42.6657 61.3171C42.6604 59.4506 42.6584 57.5848 42.6597 55.7197Z" fill="#393939"/>
<path d="M57.8775 53.6351C58.4966 53.223 59.1378 52.889 59.868 52.7619C60.3606 52.671 60.8648 52.6619 61.3604 52.7349C62.6247 52.935 63.3889 53.8282 63.3969 55.1195C63.4099 57.201 63.3969 59.2826 63.4069 61.3651C63.4069 61.8112 63.2459 62.0152 62.7977 62.0032C62.3976 61.9922 61.9975 61.9962 61.5974 62.0032C61.1623 62.0102 60.9753 61.8302 60.9793 61.3711C60.9973 59.5566 60.9863 57.7412 60.9853 55.9257C60.9853 54.9795 60.6712 54.7054 59.725 54.8164C59.1318 54.8865 58.6167 55.1455 58.1155 55.4536C57.8795 55.5976 57.9025 55.8007 57.9025 56.0157C57.9025 57.7642 57.9025 59.5129 57.9025 61.262C57.9025 61.9212 57.8205 62.0002 57.1533 62.0022C56.7862 62.0022 56.4201 62.0022 56.053 62.0022C55.6859 62.0022 55.4989 61.8632 55.4999 61.4681C55.5066 58.7534 55.5066 56.0391 55.4999 53.3251C55.4999 52.954 55.6839 52.8249 56.026 52.8249C56.3091 52.8249 56.5922 52.8249 56.8752 52.8249C57.7164 52.8229 57.7164 52.8229 57.8775 53.6351Z" fill="#393939"/>
<path d="M92.4031 52.7019C93.1611 52.658 93.9178 52.8055 94.6037 53.131C95.0426 53.3447 95.4021 53.6925 95.6303 54.1241C95.8585 54.5556 95.9435 55.0486 95.873 55.5316C95.839 55.7947 95.718 55.9177 95.4519 55.9137C95.0188 55.9077 94.5847 55.9007 94.1516 55.9137C93.7985 55.9257 93.6515 55.7607 93.6975 55.4296C93.7975 54.7694 93.3714 54.4203 92.6582 54.4133C92.3579 54.3955 92.0565 54.4056 91.758 54.4434C91.4039 54.5074 91.0978 54.6564 91.0658 55.1035C91.0338 55.5506 91.2028 55.8337 91.629 55.9817C92.5082 56.2818 93.3844 56.5999 94.2606 56.914C94.6857 57.066 95.0928 57.2541 95.4259 57.5721C95.6057 57.7335 95.7494 57.9311 95.8475 58.1519C95.9456 58.3727 95.9959 58.6118 95.995 58.8535C96.014 60.983 95.4339 61.7052 93.3014 62.0543C92.1861 62.2363 91.0738 62.1683 90.0206 61.7052C89.0533 61.2791 88.5882 60.4829 88.6402 59.4366C88.6592 59.0695 88.7853 58.8815 89.1794 58.9015C89.5734 58.9215 89.9795 58.9135 90.3796 58.9015C90.7207 58.8945 90.8468 59.0625 90.8678 59.3876C90.9108 60.0878 91.0148 60.1958 91.69 60.3478C92.1807 60.4515 92.6893 60.4333 93.1713 60.2948C93.5254 60.2018 93.7485 59.9807 93.7835 59.5946C93.8215 59.1945 93.6655 58.9125 93.2834 58.7704C92.4111 58.4454 91.5399 58.1163 90.6627 57.8062C88.9183 57.195 88.6592 56.0027 88.9523 54.5324C89.0823 53.8802 89.5434 53.4321 90.1426 53.132C90.8468 52.7849 91.5979 52.6809 92.4031 52.7019Z" fill="#393939"/>
<path d="M53.8175 57.4561C53.8175 58.7564 53.8025 60.0567 53.8245 61.3571C53.8325 61.8322 53.6595 62.0312 53.1853 62.0092C52.7702 61.9892 52.3531 62.0092 51.936 62.0032C51.596 62.0032 51.4149 61.8352 51.4149 61.4801C51.4149 58.7667 51.4149 56.0527 51.4149 53.3381C51.4149 52.986 51.585 52.8219 51.938 52.8259C52.3701 52.8319 52.8043 52.8409 53.2384 52.8259C53.6725 52.8109 53.8315 52.991 53.8265 53.4181C53.8125 54.7674 53.8265 56.1188 53.8265 57.4641L53.8175 57.4561Z" fill="#393939"/>
<path d="M53.8195 50.5524C53.8195 51.9797 53.9405 51.7997 52.5761 51.8077C51.3208 51.8147 51.4138 51.8987 51.4138 50.6074C51.4138 49.101 51.3428 49.3071 52.6712 49.3071C53.9245 49.3011 53.8185 49.149 53.8195 50.5524Z" fill="#393939"/>
</g>
</g>
<rect x="1" y="1" width="110" height="110" rx="9" stroke="black" stroke-opacity="0.1" stroke-width="2"/>
<defs>
<clipPath id="clip0_511_71">
<rect x="2" y="2" width="108" height="108" rx="8" fill="white"/>
</clipPath>
<clipPath id="clip1_511_71">
<rect width="80" height="21.4244" fill="white" transform="translate(16 45)"/>
</clipPath>
</defs>
</svg>
