<svg width="112" height="112" viewBox="0 0 112 112" fill="none" xmlns="http://www.w3.org/2000/svg">
<g clip-path="url(#clip0_511_76)">
<rect x="1.99991" y="2" width="108" height="108" rx="8" fill="white"/>
<path fill-rule="evenodd" clip-rule="evenodd" d="M42.6918 39H44.1372C46.7728 39.173 49.3458 40.3092 51.19 42.2098C52.617 43.6638 53.5949 45.5607 53.9041 47.5779C54.2796 49.9534 53.7471 52.4528 52.417 54.4589C51.3819 54.4611 50.3465 54.4607 49.311 54.4602H49.3085H49.3084H49.3084H49.3084H49.3083H49.3083H49.3082H49.3082H49.3081C48.6188 54.4599 47.9294 54.4596 47.2403 54.4601C48.5323 53.4896 49.455 52.0282 49.7287 50.4319C50.0354 48.7706 49.6268 46.9988 48.6464 45.6258C47.6514 44.2061 46.0599 43.2196 44.3422 42.973C42.3618 42.6613 40.2563 43.3706 38.8563 44.8037C37.4379 46.2098 36.7372 48.3092 37.0587 50.2834C37.3017 51.9362 38.2379 53.4577 39.5679 54.4601C38.8565 54.4591 38.1451 54.4596 37.4337 54.46C36.4175 54.4606 35.4013 54.4613 34.3851 54.4577C33.1483 52.5497 32.5704 50.2123 32.8538 47.9509C33.1409 45.3779 34.5323 42.9791 36.5471 41.3706C38.282 39.9632 40.4673 39.146 42.6918 39ZM16.8602 39.6443C17.3903 39.6448 17.9203 39.6447 18.4504 39.6445C19.1571 39.6443 19.8639 39.6441 20.5706 39.6455V45.5633C22.5743 45.5645 24.578 45.5645 26.5829 45.5633C26.5837 44.248 26.5835 42.9326 26.5832 41.6173L26.5829 39.6443C27.8099 39.6443 29.0369 39.6443 30.2639 39.6455V54.459H30.2629C29.0363 54.4602 27.8096 54.4615 26.5829 54.459L26.5832 52.6087C26.5835 51.3752 26.5837 50.1416 26.5829 48.9081C25.2471 48.9073 23.9107 48.9075 22.5745 48.9078L20.5706 48.9081C20.57 49.8328 20.5703 50.7574 20.5706 51.6821V51.6836V51.685C20.5709 52.6097 20.5712 53.5343 20.5706 54.459C19.6432 54.4609 18.715 54.4606 17.7872 54.4604L16.859 54.4602L16.8588 50.7563C16.8586 47.0523 16.8584 43.3483 16.8602 39.6443ZM57.5886 39.6441C57.2432 39.6452 56.8978 39.6463 56.5525 39.644V54.46L57.4798 54.4602H57.4809C58.4087 54.4604 59.3367 54.4606 60.2641 54.4588C60.2763 53.0962 60.2642 51.7336 60.2522 50.3711C60.2424 49.26 60.2326 48.149 60.2359 47.0379C60.7603 47.8515 61.286 48.6639 61.8119 49.4765L61.812 49.4767L61.8121 49.4769L61.8122 49.4771L61.8124 49.4773L61.8125 49.4775L61.8126 49.4777L61.8127 49.4779L61.8133 49.4788L61.8162 49.4832C62.3865 50.3644 62.9568 51.2457 63.5255 52.1287H65.5917C66.6727 50.4502 67.7586 48.7741 68.8518 47.1029C68.854 48.573 68.8536 50.0426 68.8532 51.5121V51.5183V51.5184V51.5185V51.5186V51.5187V51.5188V51.5188V51.5189V51.519C68.8529 52.499 68.8526 53.4789 68.8531 54.4588C69.7805 54.4606 70.7085 54.4604 71.6362 54.4602H71.6374L72.5647 54.46L72.5649 50.7531C72.5651 47.0501 72.5653 43.3471 72.5635 39.644L71.8687 39.6442C71.1739 39.6444 70.4791 39.6447 69.7844 39.6428C68.9138 40.9551 68.0423 42.2667 67.1709 43.5784C66.2994 44.8901 65.4279 46.2017 64.5574 47.514C63.8862 46.4983 63.2114 45.4849 62.5366 44.4716L62.5364 44.4713L62.5363 44.4711L62.5362 44.4709C61.4692 42.8687 60.4022 41.2665 59.35 39.6551C58.7629 39.6404 58.1757 39.6423 57.5886 39.6441ZM75.5709 39.6443L79.3133 39.6446H79.3134H79.3136H79.3137H79.3138H79.314H79.3141H79.3142C81.8087 39.6448 84.3029 39.6451 86.7966 39.6443C86.7979 40.7179 86.7991 41.7915 86.7966 42.8651H86.7952C84.2914 42.8651 81.7863 42.8651 79.2825 42.8664L79.2822 43.7548C79.282 44.3476 79.2817 44.9407 79.2825 45.5339C80.2249 45.5344 81.1673 45.5342 82.1095 45.5341C83.3658 45.5339 84.6219 45.5337 85.8776 45.5351C85.877 46.0577 85.8773 46.5804 85.8776 47.103V47.1159C85.8779 47.6417 85.8782 48.1675 85.8776 48.6934C84.9353 48.6939 83.9932 48.6937 83.0511 48.6936C81.795 48.6934 80.5389 48.6932 79.2825 48.6946L79.2822 49.5424C79.282 50.1077 79.2817 50.6733 79.2825 51.2394C80.9529 51.2402 82.6228 51.2399 84.2924 51.2397L86.7966 51.2394C86.7979 52.313 86.7979 53.3866 86.7979 54.4602H75.5709L75.5706 49.5216V49.4873C75.5703 46.2063 75.57 42.9253 75.5709 39.6443ZM46.9094 50.7521C44.5757 50.7448 42.2407 50.7472 39.907 50.7509C40.0603 51.1853 40.275 51.6 40.5695 51.9571C41.5548 53.2147 43.4076 53.6663 44.8616 53.0037C45.8297 52.5951 46.5695 51.7399 46.9094 50.7521ZM22.4982 57.7018C24.2123 57.4699 26.027 57.6552 27.5693 58.4798C29.4049 59.4098 30.7104 61.2307 31.1387 63.2307C30.4535 63.2339 29.7687 63.2334 29.0838 63.2329C28.4613 63.2325 27.8388 63.232 27.216 63.2344C26.8736 62.4908 26.3239 61.8147 25.573 61.4589C23.8896 60.6614 21.6282 61.1239 20.5411 62.681C19.3104 64.4123 19.4834 67.0724 21.0724 68.5288C22.1718 69.5202 23.8209 69.7742 25.2049 69.3068C26.119 68.9963 26.8368 68.2515 27.211 67.373C27.8651 67.3748 28.5188 67.3745 29.1725 67.3742H29.1742C29.8285 67.3739 30.4828 67.3736 31.1374 67.3755C30.8344 68.7509 30.1472 70.0528 29.1178 71.0221C27.8847 72.2233 26.1877 72.8638 24.4871 72.9877H23.1975C21.1448 72.8466 19.1178 71.9399 17.7791 70.3558C16.7166 69.1288 16.119 67.5399 16 65.9301V64.6405C16.1178 63.2822 16.5497 61.9387 17.3411 60.8196C18.5166 59.1068 20.4577 58 22.4982 57.7018ZM40.0477 57.8969H40.0489L40.0502 57.8969C41.5974 57.946 43.2084 58.3926 44.3557 59.4785C46.1876 61.1767 46.3189 64.2797 44.8293 66.2356C44.4293 66.762 43.9164 67.1914 43.3569 67.5374C43.9507 68.4272 44.5485 69.3148 45.1463 70.2024L45.1464 70.2025C45.7084 71.0369 46.2704 71.8714 46.8293 72.708C46.3861 72.7076 45.9428 72.7093 45.4995 72.711C44.4896 72.7148 43.4797 72.7186 42.471 72.6982C41.819 71.6739 41.1521 70.6596 40.4854 69.6455L40.4852 69.6452L40.485 69.6449L40.4848 69.6446L40.4846 69.6443L40.4844 69.644C40.2154 69.2348 39.9464 68.8257 39.6784 68.4159C39.1532 68.4173 38.628 68.4171 38.1028 68.4169H38.0995C37.7068 68.4168 37.314 68.4166 36.9213 68.4172C36.9199 69.2354 36.9201 70.0532 36.9203 70.871V70.871V70.8711V70.8711V70.8711V70.8711C36.9205 71.4845 36.9206 72.098 36.9201 72.7117H33.2084L33.2087 67.7729V67.7728V67.7726V67.7725V67.7724V67.7722C33.209 64.4802 33.2093 61.1883 33.2084 57.8969C35.487 57.8945 37.7643 57.8957 40.0428 57.8969H40.0441H40.0453H40.0465H40.0477ZM36.9212 61.1779C36.92 62.4871 36.92 63.7951 36.92 65.1043C37.2797 65.1024 37.6397 65.1035 37.9997 65.1045H37.9997H37.9998H37.9998H37.9999H38.0006C38.5636 65.1062 39.1267 65.1079 39.6893 65.0982C40.4427 65.0736 41.2402 64.8307 41.7323 64.227C42.1911 63.6699 42.2709 62.8221 41.8746 62.211C41.4672 61.546 40.6684 61.2331 39.9188 61.1804C39.3108 61.1751 38.7024 61.1763 38.094 61.1774H38.094H38.0939H38.0939H38.0938H38.0938C37.7028 61.1781 37.3119 61.1789 36.9212 61.1779ZM48.577 57.8957H59.804C59.804 58.9693 59.804 60.0429 59.8028 61.1166C58.8019 61.1175 57.8008 61.1169 56.7997 61.1164H56.7996H56.7996H56.7959C55.2922 61.1155 53.7884 61.1146 52.285 61.119C52.2895 61.6618 52.289 62.2046 52.2884 62.7474V62.7504C52.2881 63.0949 52.2877 63.4395 52.2887 63.784C53.5438 63.7854 54.7984 63.7852 56.0532 63.785H56.0577C56.9996 63.7849 57.9416 63.7847 58.8838 63.7853V66.9435C57.6281 66.9449 56.3721 66.9447 55.1159 66.9445H55.1158H55.1157H55.1156C54.1734 66.9444 53.231 66.9442 52.2887 66.9448C52.2879 67.5089 52.2881 68.0726 52.2884 68.636V68.6418L52.2887 69.4896C53.7206 69.491 55.1522 69.4908 56.5838 69.4906C57.6571 69.4904 58.7305 69.4903 59.804 69.4908L59.8042 70.2966C59.8044 71.1016 59.8046 71.9066 59.8028 72.7116C57.3173 72.7108 54.8313 72.7111 52.3454 72.7114H52.3195L48.5783 72.7116C48.5764 69.0067 48.5766 65.3017 48.5769 61.5968L48.577 57.8957ZM62.2578 57.8957H68.5167C70.6873 57.935 72.9094 58.7386 74.3928 60.3644C76.9634 63.1374 76.8124 67.9632 74.0591 70.5595C72.6272 71.9534 70.621 72.6454 68.6456 72.7104C67.4319 72.7118 66.2183 72.7116 65.0047 72.7114H64.996C64.0837 72.7113 63.1714 72.7111 62.2591 72.7116C62.2572 69.0077 62.2575 65.3037 62.2577 61.5997L62.2578 57.8957ZM65.9694 66.6575V66.6578L65.9697 69.3681C66.3553 69.3501 66.7481 69.3595 67.1421 69.3689C68.1952 69.3942 69.2569 69.4197 70.2114 68.9215C71.82 68.1558 72.7575 66.254 72.3943 64.5117C72.1562 63.2037 71.2053 62.0712 69.9759 61.5779C69.0826 61.1893 68.1204 61.214 67.1625 61.2386C66.7624 61.2489 66.363 61.2591 65.9697 61.2393C65.9689 63.045 65.9692 64.8508 65.9694 66.657V66.6572V66.6575ZM78.2087 57.8958L79.1363 57.8957C80.064 57.8954 80.9919 57.8952 81.9204 57.897V72.7105C81.302 72.7112 80.6836 72.7112 80.0652 72.7112C79.4468 72.7112 78.8284 72.7112 78.21 72.7118C78.2081 69.0068 78.2084 65.3019 78.2086 61.5969L78.2087 57.8958ZM92.956 57.8957C89.9118 57.8954 86.8674 57.8952 83.8223 57.897V61.2075C84.5326 61.2093 85.2433 61.209 85.9539 61.2087C86.6647 61.2084 87.3756 61.2081 88.0861 61.2099C88.0853 63.7654 88.0855 66.3214 88.0858 68.8772C88.0859 70.1551 88.0861 71.4329 88.0861 72.7105C88.6988 72.7124 89.3118 72.7121 89.925 72.7118C90.5385 72.7115 91.1522 72.7112 91.7658 72.713C91.766 72.1652 91.7662 71.6174 91.7664 71.0696C91.7676 67.7831 91.7688 64.4967 91.7646 61.2112C92.6626 61.208 93.5611 61.2084 94.4598 61.2087C94.9732 61.2089 95.4867 61.2091 96.0002 61.2087V57.8958C94.9855 57.8958 93.9708 57.8957 92.956 57.8957Z" fill="#DA1A32"/>
</g>
<rect x="1" y="1" width="110" height="110" rx="9" stroke="black" stroke-opacity="0.1" stroke-width="2"/>
<defs>
<clipPath id="clip0_511_76">
<rect x="2" y="2" width="108" height="108" rx="8" fill="white"/>
</clipPath>
</defs>
</svg>
