<svg width="112" height="112" viewBox="0 0 112 112" fill="none" xmlns="http://www.w3.org/2000/svg">
<g clip-path="url(#clip0_511_78)">
<rect x="1.99991" y="2" width="108" height="108" rx="8" fill="white"/>
<g clip-path="url(#clip1_511_78)">
<path d="M57.616 53.6112C55.5152 53.6112 53.8128 55.3152 53.8128 57.4144C53.8128 59.5136 55.5152 61.216 57.616 61.216C57.9264 61.216 58.2288 61.1776 58.5184 61.1088C60.184 60.704 61.4176 59.2032 61.4176 57.4144C61.4176 55.3136 59.7168 53.6112 57.616 53.6112ZM57.616 59.2528C56.6 59.2528 55.7776 58.4272 55.7776 57.4128C55.7776 56.3968 56.6 55.5728 57.616 55.5728C58.632 55.5728 59.4544 56.3952 59.4544 57.4128C59.4544 58.4288 58.632 59.2528 57.616 59.2528Z" fill="black"/>
<path d="M74.9904 53.6112C72.8896 53.6112 71.1872 55.3152 71.1872 57.4144C71.1872 59.5136 72.8896 61.216 74.9904 61.216C75.3008 61.216 75.6032 61.1776 75.8928 61.1088C76.2768 61.016 76.6352 60.8624 76.9632 60.6624C77.1344 60.9568 77.4528 61.1552 77.8192 61.1552C78.3568 61.1552 78.792 60.72 78.792 60.1824V57.4144C78.792 55.3136 77.0912 53.6112 74.9904 53.6112ZM74.9904 59.2528C73.9744 59.2528 73.152 58.4272 73.152 57.4128C73.152 56.3968 73.9744 55.5728 74.9904 55.5728C76.0064 55.5728 76.8288 56.3952 76.8288 57.4128C76.8288 58.4288 76.0064 59.2528 74.9904 59.2528Z" fill="black"/>
<path d="M34.3024 53.6032C34.2992 53.6032 34.2944 53.6032 34.2912 53.6032C34.288 53.6032 34.2848 53.6032 34.2816 53.6032C33.7552 53.6016 33.32 54.0112 33.32 54.5376V60.28C33.32 60.7968 33.7392 61.216 34.256 61.216H34.3312C34.848 61.216 35.2672 60.7968 35.2672 60.28V54.5376C35.2656 54.0112 34.8304 53.6016 34.3024 53.6032Z" fill="black"/>
<path d="M34.2912 52.8208C34.9707 52.8208 35.5216 52.2699 35.5216 51.5904C35.5216 50.9109 34.9707 50.36 34.2912 50.36C33.6117 50.36 33.0608 50.9109 33.0608 51.5904C33.0608 52.2699 33.6117 52.8208 34.2912 52.8208Z" fill="black"/>
<path d="M51.72 50.3584C51.16 50.3584 50.7056 50.8128 50.7056 51.3728V54.0848C50.16 53.7824 49.5344 53.6112 48.8672 53.6112C46.7664 53.6112 45.064 55.3152 45.064 57.4144C45.064 59.5136 46.7664 61.216 48.8672 61.216C49.1776 61.216 49.48 61.1776 49.7696 61.1088C50.1472 61.016 50.5024 60.8656 50.8272 60.6704C50.9904 60.96 51.2992 61.1552 51.6544 61.1552H51.6608C52.2176 61.1552 52.6704 60.704 52.6704 60.1456V51.3072C52.6688 50.7824 52.2448 50.3584 51.72 50.3584ZM48.8672 59.2528C47.8512 59.2528 47.0288 58.4272 47.0288 57.4128C47.0288 56.3968 47.8512 55.5728 48.8672 55.5728C49.8832 55.5728 50.7056 56.3952 50.7056 57.4128C50.7056 58.4288 49.8832 59.2528 48.8672 59.2528Z" fill="black"/>
<path d="M69.0736 50.3584C68.5136 50.3584 68.0592 50.8128 68.0592 51.3728V54.0848C67.5136 53.7824 66.888 53.6112 66.2208 53.6112C64.12 53.6112 62.4176 55.3152 62.4176 57.4144C62.4176 59.5136 64.12 61.216 66.2208 61.216C66.5312 61.216 66.8336 61.1776 67.1232 61.1088C67.5008 61.016 67.856 60.8656 68.1808 60.6704C68.344 60.96 68.6528 61.1552 69.008 61.1552H69.0144C69.5712 61.1552 70.024 60.704 70.024 60.1456V51.3072C70.0224 50.7824 69.5968 50.3584 69.0736 50.3584ZM66.2208 59.2528C65.2048 59.2528 64.3824 58.4272 64.3824 57.4128C64.3824 56.3968 65.2048 55.5728 66.2208 55.5728C67.2368 55.5728 68.0592 56.3952 68.0592 57.4128C68.0576 58.4288 67.2352 59.2528 66.2208 59.2528Z" fill="black"/>
<path d="M96 57.4144C96 55.3152 94.2992 53.6112 92.1984 53.6112C90.0976 53.6112 88.3952 55.3152 88.3952 57.4144C88.3952 59.5136 90.0976 61.216 92.1984 61.216C92.5088 61.216 92.8112 61.1776 93.1008 61.1088C93.4848 61.016 93.8432 60.8624 94.1712 60.6624C94.3424 60.9568 94.6608 61.1552 95.0272 61.1552C95.5648 61.1552 96 60.72 96 60.1824V57.4144ZM92.1984 59.2528C91.1824 59.2528 90.36 58.4272 90.36 57.4128C90.36 56.3968 91.1824 55.5728 92.1984 55.5728C93.2144 55.5728 94.0368 56.3952 94.0368 57.4128C94.0352 58.4288 93.2128 59.2528 92.1984 59.2528Z" fill="black"/>
<path d="M40.2656 53.6032C38.2864 53.6032 36.6768 55.2128 36.6768 57.192V60.2592C36.6768 60.7808 37.0992 61.2032 37.6208 61.2032C38.1424 61.2032 38.5648 60.7808 38.5648 60.2592V57.192C38.5648 56.2544 39.3264 55.4928 40.264 55.4928C41.2016 55.4928 41.9632 56.2544 41.9632 57.192V60.2592C41.9632 60.7808 42.3856 61.2032 42.9072 61.2032C43.4288 61.2032 43.8512 60.7808 43.8512 60.2592V57.192C43.8544 55.2144 42.2448 53.6032 40.2656 53.6032Z" fill="black"/>
<path d="M83.6704 53.6032C81.6912 53.6032 80.0816 55.2128 80.0816 57.192V60.2592C80.0816 60.7808 80.504 61.2032 81.0256 61.2032C81.5472 61.2032 81.9696 60.7808 81.9696 60.2592V57.192C81.9696 56.2544 82.7312 55.4928 83.6688 55.4928C84.6064 55.4928 85.368 56.2544 85.368 57.192V60.2592C85.368 60.7808 85.7904 61.2032 86.312 61.2032C86.8336 61.2032 87.256 60.7808 87.256 60.2592V57.192C87.2576 55.2144 85.648 53.6032 83.6704 53.6032Z" fill="black"/>
<path d="M25.1104 51.568V51.576C25.1104 51.6944 25.0336 51.7968 24.9168 51.8336C24.9168 51.8336 16.9888 54.7088 16.928 54.7328C16.3456 54.3312 16 53.6752 16 52.9664V51.1488C16 49.9632 16.9632 49 18.1472 49C18.3616 49 18.5728 49.032 18.7776 49.0944C18.9568 49.1584 22.9616 50.608 24.9056 51.3136C24.9936 51.3392 25.1104 51.432 25.1104 51.568Z" fill="#FFBA00"/>
<path d="M26.96 53.1344L26.9552 53.1232C26.8304 52.8416 26.656 52.5728 26.44 52.3344C26.4032 52.2944 26.3664 52.256 26.3296 52.2208C26.1328 52.7728 25.6224 52.9952 25.4576 53.0528L17.4384 55.96C17.2144 56.0592 17.2336 56.0464 17.1376 56.0992C16.4352 56.4848 16 57.2208 16 58.0208V60.3792C16 61.5888 16.984 62.5728 18.1936 62.5728C18.4112 62.5728 18.6304 62.5392 18.8432 62.4752C19.0912 62.3888 25.096 60.2112 25.1536 60.192C25.2576 60.1552 25.3264 60.128 25.344 60.1216L25.3488 60.12C25.7616 59.9488 26.1392 59.6832 26.44 59.3504C26.6544 59.1136 26.8304 58.8464 26.96 58.5552C27.136 58.1664 27.224 57.7488 27.224 57.3168V54.368C27.2224 53.9328 27.1344 53.5184 26.96 53.1344Z" fill="#33CC00"/>
</g>
</g>
<rect x="1" y="1" width="110" height="110" rx="9" stroke="black" stroke-opacity="0.1" stroke-width="2"/>
<defs>
<clipPath id="clip0_511_78">
<rect x="2" y="2" width="108" height="108" rx="8" fill="white"/>
</clipPath>
<clipPath id="clip1_511_78">
<rect width="80" height="13.5744" fill="white" transform="translate(16 49)"/>
</clipPath>
</defs>
</svg>
