<svg width="112" height="112" viewBox="0 0 112 112" fill="none" xmlns="http://www.w3.org/2000/svg">
<g clip-path="url(#clip0_511_69)">
<rect x="1.99991" y="2" width="108" height="108" rx="8" fill="white"/>
<g clip-path="url(#clip1_511_69)">
<path d="M73.84 26C74.1339 26.1025 74.4474 26.1144 74.7456 26.2115C76.7777 26.872 78.0537 28.8059 77.8428 30.9236C77.6405 32.9492 76.0087 34.6336 73.9696 34.8711C72.8194 34.9832 71.6708 34.6431 70.767 33.9229C69.8632 33.2028 69.2753 32.1591 69.1278 31.0129C68.9802 29.8668 69.2846 28.7082 69.9765 27.7826C70.6684 26.857 71.6935 26.2371 72.8345 26.0542C72.8725 26.0488 72.9039 26.0396 72.9186 26H73.84ZM74.6719 29.3081H74.8817C75.2267 29.3081 75.2814 29.237 75.1746 28.9068C75.0021 28.3759 74.6323 28.0478 74.0992 27.9019C73.9501 27.8612 73.8693 27.8146 73.8703 27.6372C73.8703 27.2131 73.8622 27.2131 73.4365 27.2131C73.3823 27.2161 73.328 27.2161 73.2738 27.2131C73.0569 27.1893 72.9647 27.2918 72.9956 27.4968C73.033 27.7468 72.9506 27.8818 72.6865 27.904C72.5889 27.9217 72.4952 27.956 72.4093 28.0055C71.8269 28.2766 71.5362 28.7679 71.5612 29.441C71.5834 30.0586 71.9625 30.3932 72.4945 30.601C72.6192 30.6498 72.7515 30.6801 72.8795 30.7224C73.2624 30.8482 73.6605 30.9236 74.0347 31.0809C74.2733 31.1818 74.4202 31.3374 74.4354 31.6026C74.4475 31.7298 74.4201 31.8576 74.357 31.9686C74.2938 32.0796 74.1979 32.1685 74.0824 32.223C73.706 32.4171 73.3063 32.4546 72.9148 32.2637C72.7082 32.1633 72.5129 32.0061 72.4842 31.7718C72.4424 31.4285 72.2488 31.3824 71.9684 31.4166C71.8601 31.4242 71.7514 31.4242 71.6431 31.4166C71.4804 31.4133 71.444 31.505 71.4597 31.6449C71.5416 32.3553 72.0346 32.9296 72.7369 33.0831C72.9386 33.1276 73.0048 33.1916 72.9972 33.396C72.9847 33.7485 72.9972 33.7491 73.3595 33.7491C73.4136 33.7452 73.468 33.7452 73.5222 33.7491C73.7933 33.7903 73.9121 33.6802 73.8768 33.4052C73.853 33.2214 73.8947 33.1259 74.1198 33.0858C74.8069 32.9633 75.3671 32.37 75.4154 31.7734C75.4783 30.9681 75.1442 30.4404 74.372 30.1416C74.2287 30.0888 74.0828 30.0433 73.9349 30.0055C73.5889 29.9111 73.2337 29.8428 72.8974 29.7224C72.5357 29.5923 72.4294 29.2213 72.6344 28.9046C72.86 28.5575 73.2217 28.6096 73.5607 28.6053C73.8389 28.6015 74.0856 28.7137 74.1572 28.9778C74.2494 29.3032 74.4408 29.3542 74.6719 29.3081Z" fill="#FE9A02"/>
<path d="M94.81 80.2792C94.7167 80.3316 94.6065 80.3455 94.5031 80.3177C93.3479 79.9923 92.4895 80.6431 92.4748 81.8725C92.4602 83.0656 92.4716 84.2533 92.4716 85.4436C92.4716 85.9155 92.4125 85.9757 91.9466 85.9757C91.5404 85.9757 91.1332 85.9789 90.7286 85.9757C90.4363 85.9724 90.3587 85.8943 90.3587 85.6047C90.3587 83.3049 90.3616 81.0054 90.3674 78.706C90.3674 78.4348 90.4683 78.3415 90.7503 78.3394C91.1652 78.3356 91.58 78.3394 91.9976 78.3394C92.3902 78.3394 92.4689 78.4185 92.4743 78.8133C92.4743 78.8746 92.4743 78.9354 92.4743 79.0617C92.8696 78.5964 93.323 78.3437 93.8745 78.3025C94.1999 78.2765 94.5405 78.2363 94.8127 78.4961L94.81 80.2792Z" fill="#5EC421"/>
<path d="M50.544 29.5212C52.493 29.5109 54.4421 29.5321 56.3906 29.5982C58.4335 29.6676 60.4579 29.8515 62.4167 30.4919C67.0806 32.0169 70.2992 35.0473 71.9755 39.6787C72.4175 40.8999 72.5986 42.1733 72.6951 43.4645C72.8578 45.618 72.6821 47.7401 71.9901 49.7917C70.6143 53.8519 68.008 56.7489 63.8832 58.1313C62.4233 58.6194 60.8956 58.8808 59.401 59.2528C58.0994 59.5782 56.7849 59.8585 55.4866 60.198C53.8597 60.6232 52.7273 61.6362 52.1134 63.2084C51.9399 63.6531 51.7924 64.1075 51.6324 64.5571C50.807 66.8728 48.6567 68.3533 46.1968 68.2991C44.0417 68.2524 42.1566 66.4948 41.9169 64.3592C41.6962 62.3971 41.4288 60.4404 41.1837 58.4805C40.9404 56.5308 40.6989 54.5797 40.4592 52.6274C40.2195 50.6751 39.974 48.7257 39.7227 46.7791C39.4961 44.9628 39.2715 43.1464 39.0492 41.33C38.9169 40.2291 38.7281 39.1342 38.6647 38.0257C38.5492 36.0159 39.1159 34.2046 40.3616 32.6303C42.0341 30.5153 44.257 29.5223 46.9392 29.5212C48.1414 29.5205 49.3429 29.5205 50.544 29.5212ZM44.904 47.8648C45.0314 47.7276 45.1209 47.6322 45.2104 47.5346C46.3351 46.2891 47.4595 45.0432 48.5835 43.797C50.3977 41.7883 52.2123 39.7799 54.0272 37.7719C54.7957 36.9248 55.9188 36.6922 56.9107 37.1683C58.0555 37.7188 59.1954 38.2811 60.3364 38.8403C60.7291 39.0322 60.7383 39.1488 60.395 39.4368C56.4662 42.7142 52.537 45.9917 48.6074 49.2694C48.4686 49.3855 48.3639 49.5129 48.404 49.7065C48.4458 49.9131 48.5987 50.0004 48.7869 50.0395C49.0776 50.1002 49.3699 50.155 49.6611 50.2141C52.5762 50.8041 55.4911 51.3947 58.4058 51.9858C58.8006 52.0661 58.8722 52.2657 58.6179 52.5667C58.3098 52.9322 58.0094 53.3064 57.6808 53.6513C56.6222 54.7652 55.3244 55.2153 53.8233 54.8726C52.3922 54.5472 50.9805 54.1323 49.5602 53.7559C48.1242 53.3763 46.6887 52.9935 45.2304 52.6062C45.2847 53.3161 45.3389 54.0076 45.3839 54.6996C45.5542 57.1644 45.7185 59.6297 45.8926 62.0945C45.9723 63.2257 46.91 64.0154 47.9908 63.8499C48.9398 63.7046 49.5803 63.165 49.8851 62.248C49.9897 61.9323 50.0803 61.6107 50.1654 61.2892C50.7414 59.1107 52.0467 57.5825 54.1921 56.833C56.131 56.1555 58.077 55.4986 60.03 54.8623C61.7112 54.3151 63.2443 53.5162 64.49 52.2483C67.1587 49.5324 68.1452 46.2769 67.412 42.5486C66.6717 38.7849 64.4168 36.2144 60.9433 34.6715C59.2155 33.9036 57.3722 33.7008 55.511 33.5869C53.6498 33.473 51.7951 33.4578 49.936 33.4654C49.6026 33.4632 49.2697 33.4932 48.942 33.5549C45.955 34.1515 44.0612 36.7301 44.328 39.7747C44.4994 41.7237 44.6079 43.6793 44.7451 45.6316C44.7944 46.355 44.8476 47.0807 44.904 47.8648Z" fill="#5EC421"/>
<path d="M19.7658 81.5118V85.5347C19.7658 85.9224 19.7159 85.974 19.3319 85.975C18.9256 85.975 18.5194 85.975 18.1134 85.975C17.7365 85.975 17.6448 85.8986 17.6177 85.5266C17.5347 84.4029 17.4599 83.2781 17.3813 82.1545C17.2616 80.4635 17.1421 78.7739 17.0228 77.0855C17.0152 76.977 17.0044 76.8686 17.0006 76.7601C16.9821 76.1853 17.3091 75.8425 17.884 75.8382C18.3623 75.8349 18.8406 75.8382 19.3195 75.8382C19.7023 75.8382 19.7631 75.8978 19.7631 76.272V80.3724C20.1823 79.7547 20.5554 79.2065 20.9269 78.6571C21.5028 77.8057 22.0809 76.9559 22.6503 76.0996C22.7724 75.9157 22.9139 75.8284 23.1384 75.8349C23.7068 75.8474 24.2773 75.8387 24.8445 75.8393C24.9779 75.8393 25.1216 75.816 25.1986 75.9711C25.2757 76.1262 25.165 76.2281 25.0902 76.336C24.0967 77.7938 23.1026 79.2547 22.0977 80.7087C21.9838 80.8714 21.9963 80.9755 22.1086 81.1268C23.1791 82.5679 24.2456 84.0117 25.3082 85.4582C25.3928 85.5726 25.5143 85.6806 25.4411 85.8427C25.3678 86.0049 25.2014 85.974 25.0614 85.9745C24.4568 85.9745 23.8515 85.9702 23.2469 85.9783C23.1577 85.9844 23.0686 85.966 22.9893 85.925C22.9099 85.8839 22.8433 85.8219 22.7968 85.7456C21.8528 84.4148 20.9036 83.0869 19.9491 81.7618C19.9008 81.6951 19.8531 81.6344 19.7658 81.5118Z" fill="#5EC421"/>
<path d="M59.5935 75.8382C60.4216 75.8501 61.2584 75.7704 62.0692 76.0069C63.3295 76.374 64.2254 77.1311 64.522 78.4522C64.9656 80.4224 63.8035 82.1583 61.8159 82.5542C61.1809 82.6811 60.5404 82.6594 59.9005 82.6507C59.6933 82.6475 59.645 82.7098 59.6478 82.9094C59.6581 83.7847 59.6532 84.6605 59.6516 85.5358C59.6516 85.8807 59.561 85.974 59.2231 85.9762C58.7627 85.9794 58.3012 85.9805 57.8419 85.9762C57.5403 85.9735 57.4422 85.8742 57.4248 85.5705C57.2762 82.987 57.1278 80.4036 56.9796 77.8204C56.965 77.559 56.9378 77.2981 56.9362 77.0373C56.9319 76.3599 57.4243 75.8545 58.1038 75.8409C58.6 75.829 59.0968 75.8382 59.5935 75.8382ZM59.7437 79.2933C59.7437 79.6903 59.7465 80.0878 59.7437 80.4864C59.7437 80.6458 59.798 80.7635 59.9656 80.7651C60.3886 80.77 60.8148 80.8058 61.2313 80.6919C61.875 80.5162 62.2378 79.9902 62.2226 79.2597C62.2085 78.5698 61.8235 78.0959 61.1603 77.9483C60.74 77.8545 60.3143 77.9158 59.8918 77.9001C59.7443 77.8941 59.7448 77.9999 59.7454 78.1034L59.7437 79.2933Z" fill="#5EC421"/>
<path d="M43.6046 79.0134V76.0047C43.6046 75.5367 43.7131 75.4287 44.1735 75.4277C44.5075 75.4277 44.8416 75.4244 45.1757 75.4277C45.5509 75.4325 45.6637 75.5459 45.6637 75.9114C45.6637 79.1248 45.6637 82.3379 45.6637 85.5509C45.6637 85.8958 45.5808 85.9875 45.2391 85.9945C44.8595 86.0021 44.4799 85.9989 44.1003 85.9945C43.6908 85.9907 43.6051 85.9029 43.6035 85.501C43.6035 85.4023 43.6035 85.3031 43.6035 85.1925C43.5715 85.1995 43.5406 85.1963 43.5281 85.2104C42.5005 86.3552 40.5275 86.2093 39.4451 84.8307C38.6777 83.8546 38.4809 82.7157 38.5921 81.5107C38.6783 80.5682 38.9663 79.7016 39.6832 79.0459C40.5172 78.2829 41.4836 77.9727 42.6019 78.3263C42.982 78.4499 43.2792 78.6978 43.6046 79.0134ZM43.5585 81.8936H43.5504C43.5504 81.5872 43.5536 81.2802 43.5504 80.9717C43.5471 80.7488 43.5005 80.5346 43.3145 80.3909C42.5791 79.8231 41.2537 79.8919 40.835 80.9711C40.5237 81.7417 40.526 82.6036 40.8415 83.3725C40.9603 83.6691 41.1778 83.9156 41.4574 84.0704C41.7369 84.2251 42.0613 84.2786 42.3757 84.2217C42.689 84.1651 42.9746 84.0063 43.188 83.7702C43.4014 83.534 43.5306 83.2337 43.5552 82.9164C43.5786 82.5785 43.5585 82.2374 43.5585 81.8936Z" fill="#5EC421"/>
<path d="M35.4711 82.7711C34.8035 82.7711 34.1354 82.782 33.4683 82.7652C33.2367 82.7592 33.2221 82.8471 33.2514 83.0315C33.3555 83.6448 33.8978 84.1161 34.5887 84.1746C35.2167 84.2289 35.8138 84.1253 36.3436 83.7657C36.5524 83.6242 36.6972 83.6464 36.842 83.8514C37.0291 84.1166 37.2287 84.3731 37.4326 84.6253C37.5866 84.8157 37.5557 84.9702 37.3702 85.108C36.4646 85.7831 35.4618 86.0885 34.3252 85.9475C33.4325 85.839 32.6115 85.5868 31.9959 84.8889C31.2568 84.0515 31.0073 83.045 31.0393 81.9561C31.0719 80.8389 31.4113 79.8546 32.2866 79.1002C33.5231 78.0351 35.6175 77.9999 36.8718 79.0265C37.5893 79.6138 37.848 80.4099 37.9055 81.2923C37.9265 81.6705 37.9158 82.0498 37.8735 82.4262C37.8458 82.6974 37.726 82.7782 37.4722 82.7744C36.8068 82.7646 36.1392 82.7711 35.4711 82.7711ZM34.567 80.0184C33.9916 80.0249 33.4884 80.4853 33.304 81.1757C33.2297 81.4544 33.2715 81.5151 33.5643 81.5151C34.259 81.5151 34.9542 81.5 35.6489 81.5054C35.8724 81.5054 35.9299 81.4186 35.9103 81.212C35.8789 80.88 35.7228 80.5723 35.4736 80.3509C35.2243 80.1294 34.9004 80.0106 34.567 80.0184Z" fill="#5EC421"/>
<path d="M71.2152 79.1073C72.1154 78.2293 73.1274 78.0877 74.1979 78.4565C75.218 78.8106 75.6432 79.6615 75.6687 80.68C75.7099 82.3221 75.6833 83.9658 75.6838 85.609C75.6838 85.8547 75.5461 85.9718 75.3102 85.9746C74.9035 85.9789 74.4967 85.9784 74.0911 85.9746C73.7576 85.9718 73.6502 85.859 73.6502 85.5065C73.6502 84.1612 73.6502 82.8159 73.6502 81.4707C73.6502 81.3356 73.6453 81.1995 73.6328 81.0655C73.5509 80.2006 72.6708 79.7792 71.9332 80.2559C71.4799 80.5487 71.2727 80.9967 71.2445 81.513C71.1821 82.6583 71.2309 83.8053 71.2195 84.9512C71.2168 85.1681 71.225 85.3851 71.2163 85.602C71.2071 85.8352 71.0845 85.9724 70.8421 85.974C70.4083 85.9773 69.9744 85.9794 69.5406 85.974C69.3003 85.9708 69.1815 85.8384 69.1815 85.5944C69.1815 83.2925 69.1815 80.9903 69.1815 78.688C69.1815 78.3985 69.3014 78.2867 69.5997 78.284C69.9793 78.2813 70.3589 78.284 70.7385 78.284C71.1181 78.284 71.2114 78.3844 71.2168 78.7721C71.2163 78.8659 71.2152 78.9619 71.2152 79.1073Z" fill="#5EC421"/>
<path d="M86.7204 85.4571C85.9687 86.0168 85.1477 86.0819 84.3055 85.8796C83.858 85.7732 83.4571 85.5246 83.1628 85.171C82.8686 84.8174 82.697 84.378 82.6737 83.9186C82.6102 82.821 83.1189 82.0135 84.1146 81.6295C84.7654 81.3774 85.4497 81.3443 86.1385 81.3584C86.2556 81.3584 86.3733 81.3508 86.4899 81.3584C86.6363 81.3703 86.6699 81.3041 86.6753 81.1691C86.7025 80.4766 86.3847 80.1105 85.6743 80.0655C84.9581 80.0196 84.2452 80.1959 83.633 80.5704C83.5322 80.6301 83.4383 80.7537 83.2941 80.6653C83.1498 80.5769 83.2089 80.4392 83.2068 80.3204C83.2013 80.0227 83.1976 79.7239 83.2122 79.4272C83.2333 78.9934 83.5088 78.6073 83.9172 78.4988C84.9351 78.2303 85.966 78.1593 86.9899 78.4532C88.0349 78.7537 88.6613 79.5644 88.7361 80.6767C88.8093 81.7754 88.7535 82.8768 88.7665 83.9772C88.7724 84.5 88.7708 85.0233 88.7665 85.5466C88.7632 85.8894 88.6705 85.9805 88.3299 85.987C87.9693 85.9924 87.6081 85.987 87.2453 85.987C86.8229 85.9962 86.7562 85.9327 86.7204 85.4571ZM86.6732 83.1892C86.6675 83.1139 86.6675 83.0383 86.6732 82.9631C86.7193 82.7017 86.5967 82.6409 86.3586 82.6583C86.0712 82.6789 85.7811 82.6583 85.491 82.6735C85.1271 82.693 84.7735 82.7602 84.4774 82.9989C83.9969 83.3823 84.0229 84.1193 84.556 84.3834C85.1233 84.6648 85.7122 84.6545 86.2524 84.2912C86.6596 84.0184 86.6867 83.5878 86.6732 83.1892Z" fill="#5EC421"/>
<path d="M79.8092 81.8649C79.8092 82.3796 79.8092 82.8953 79.8092 83.4083C79.8092 83.9995 80.1346 84.2896 80.7246 84.2169C80.8943 84.1949 81.0615 84.1569 81.2241 84.1036C81.441 84.0342 81.5603 84.1095 81.5842 84.327C81.6254 84.7034 81.6525 85.0814 81.6926 85.4577C81.7138 85.6503 81.6465 85.7663 81.4546 85.8178C80.6048 86.0467 79.7539 86.0684 78.9334 85.73C78.0754 85.3758 77.7137 84.6519 77.6861 83.7722C77.653 82.609 77.6687 81.4435 77.6806 80.2797C77.6806 80.0471 77.6123 79.9804 77.3927 80.0048C77.2302 80.0181 77.067 80.0181 76.9046 80.0048C76.6719 79.9912 76.5385 79.867 76.5364 79.6252C76.5342 79.3359 76.5342 79.0467 76.5364 78.7575C76.5364 78.5167 76.6687 78.3952 76.9046 78.3806C76.9404 78.3779 76.9773 78.3806 77.013 78.3806C77.2256 78.3611 77.5011 78.4771 77.6345 78.3318C77.7679 78.1864 77.666 77.918 77.6725 77.7032C77.679 77.4885 77.6763 77.2694 77.6725 77.0525C77.6687 76.7965 77.8027 76.6571 78.0467 76.6511C78.5066 76.6392 78.9686 76.6381 79.4274 76.6511C79.6693 76.6582 79.807 76.8019 79.8038 77.0546C79.8038 77.4071 79.8146 77.7596 79.7994 78.1105C79.7908 78.3144 79.8363 78.3963 80.0614 78.3849C80.4578 78.3648 80.8558 78.3768 81.2544 78.38C81.5462 78.38 81.6856 78.5172 81.6921 78.8068C81.6975 79.0595 81.697 79.3123 81.6921 79.5661C81.6861 79.8692 81.5468 80.0026 81.2366 80.0048C80.839 80.0048 80.4415 80.0146 80.0435 80.0015C79.8585 79.995 79.794 80.0422 79.7989 80.238C79.8179 80.7819 79.8092 81.3237 79.8092 81.8649Z" fill="#5EC421"/>
<path d="M51.1444 81.9468C51.1444 81.3692 51.1384 80.7916 51.1487 80.2114C51.1487 80.0416 51.101 79.989 50.935 80.0026C50.7638 80.0121 50.5922 80.0121 50.4209 80.0026C50.1568 79.9944 50.0169 79.8637 50.0088 79.604C50.0006 79.3247 49.9985 79.0443 50.0088 78.765C50.018 78.5226 50.1492 78.3854 50.4025 78.3789H50.5109C51.1433 78.3789 51.1433 78.3789 51.1433 77.7569C51.1433 77.5313 51.14 77.3057 51.1433 77.0801C51.1492 76.7986 51.2799 76.6533 51.5516 76.6462C51.9941 76.6383 52.4365 76.6383 52.8786 76.6462C53.1498 76.6516 53.2865 76.7959 53.2913 77.0763C53.2984 77.4375 53.3038 77.7986 53.2913 78.1609C53.2838 78.3458 53.3505 78.3876 53.5213 78.3816C53.8548 78.3697 54.1889 78.3746 54.5229 78.3816C54.8065 78.3854 54.9313 78.5112 54.9367 78.7965C54.9414 79.0579 54.9414 79.3196 54.9367 79.5817C54.9318 79.8762 54.8027 80.0015 54.5028 80.0047C54.1688 80.008 53.8342 80.0156 53.5007 80.0015C53.3266 79.9939 53.2924 80.0557 53.2935 80.2184C53.2995 81.3106 53.2935 82.4028 53.2984 83.4945C53.2984 83.9582 53.5457 84.1995 54.0218 84.2217C54.2475 84.2244 54.472 84.1877 54.6851 84.1133C54.9264 84.0374 55.0338 84.0938 55.0647 84.3378C55.1119 84.7315 55.1406 85.1274 55.1731 85.5227C55.1845 85.6561 55.1254 85.763 54.9985 85.7939C53.9356 86.065 52.8835 86.1323 51.9415 85.4446C51.3298 84.9978 51.1709 84.3134 51.1492 83.5981C51.1313 83.0509 51.1449 82.4977 51.1444 81.9468Z" fill="#5EC421"/>
<path d="M28.4839 79.0254C29.0555 78.4039 29.7117 78.2005 30.4813 78.316C30.7161 78.3518 30.8066 78.4787 30.8066 78.7C30.8066 79.1599 30.811 79.6219 30.8066 80.0802C30.8034 80.3237 30.7188 80.3768 30.4813 80.3069C29.4232 79.9988 28.5978 80.5411 28.4937 81.6523C28.4395 82.2076 28.4688 82.77 28.466 83.3291C28.4622 84.0342 28.466 84.7392 28.466 85.4404C28.466 85.9284 28.4156 85.9756 27.9194 85.9756C27.5316 85.9756 27.1434 85.9756 26.7551 85.9756C26.4297 85.9756 26.3467 85.8954 26.3478 85.5797C26.3532 83.2887 26.3603 80.997 26.3689 78.7049C26.3689 78.4299 26.4644 78.341 26.7486 78.3383C27.1547 78.335 27.562 78.3383 27.9671 78.3383C28.3879 78.3383 28.4519 78.4006 28.466 78.8177C28.4655 78.8676 28.4736 78.9191 28.4839 79.0254Z" fill="#5EC421"/>
<path d="M49.1313 82.2044C49.1313 83.314 49.1313 84.4234 49.1313 85.5326C49.1313 85.8737 49.0385 85.9713 48.7045 85.9746C48.3252 85.9782 47.9456 85.9782 47.5656 85.9746C47.2478 85.9719 47.1318 85.8661 47.1318 85.5586C47.1296 83.3127 47.1296 81.067 47.1318 78.8215C47.1318 78.5248 47.244 78.412 47.539 78.4082C47.9367 78.4032 48.3344 78.4032 48.7321 78.4082C49.032 78.4115 49.1291 78.5167 49.1297 78.8225C49.1318 79.9502 49.1324 81.0775 49.1313 82.2044Z" fill="#5EC421"/>
<path d="M67.4922 82.1892C67.4922 83.2897 67.4922 84.3898 67.4922 85.4896C67.4922 85.8915 67.4065 85.9744 66.9966 85.9777C66.6267 85.9777 66.2569 85.981 65.887 85.9777C65.6056 85.9739 65.4971 85.8638 65.4966 85.5813C65.4966 83.3267 65.4966 81.0724 65.4966 78.8182C65.4966 78.5199 65.6012 78.4158 65.9066 78.4114C66.2943 78.406 66.682 78.4071 67.0698 78.4114C67.3838 78.4147 67.4911 78.5242 67.4917 78.8377C67.4935 79.9538 67.4937 81.0709 67.4922 82.1892Z" fill="#5EC421"/>
<path d="M49.3472 76.586C49.3438 76.7443 49.3092 76.9003 49.2453 77.0451C49.1815 77.1899 49.0896 77.3206 48.9751 77.4298C48.8605 77.539 48.7255 77.6245 48.5778 77.6814C48.4301 77.7383 48.2727 77.7654 48.1145 77.7612C47.4306 77.7363 46.9137 77.194 46.9354 76.534C46.9426 76.214 47.0766 75.91 47.308 75.6889C47.5393 75.4677 47.849 75.3475 48.169 75.3547C48.4889 75.3619 48.7929 75.4959 49.0141 75.7272C49.2352 75.9586 49.3554 76.2683 49.3482 76.5882L49.3472 76.586Z" fill="#5EC421"/>
<path d="M67.6772 76.5535C67.6779 76.7908 67.6083 77.023 67.4771 77.2206C67.3459 77.4183 67.1591 77.5727 66.9402 77.6642C66.7213 77.7557 66.4801 77.7802 66.2473 77.7346C66.0145 77.6891 65.8003 77.5755 65.6321 77.4083C65.4638 77.241 65.3488 77.0276 65.3018 76.7951C65.2548 76.5625 65.2778 76.3213 65.3679 76.1018C65.458 75.8823 65.6111 75.6945 65.808 75.562C66.0048 75.4296 66.2365 75.3585 66.4738 75.3577C66.6317 75.3559 66.7884 75.3856 66.9347 75.4449C67.081 75.5043 67.214 75.5922 67.326 75.7035C67.438 75.8148 67.5268 75.9473 67.5871 76.0932C67.6473 76.2392 67.678 76.3956 67.6772 76.5535Z" fill="#5EC421"/>
</g>
</g>
<rect x="1" y="1" width="110" height="110" rx="9" stroke="black" stroke-opacity="0.1" stroke-width="2"/>
<defs>
<clipPath id="clip0_511_69">
<rect x="2" y="2" width="108" height="108" rx="8" fill="white"/>
</clipPath>
<clipPath id="clip1_511_69">
<rect width="77.81" height="60" fill="white" transform="translate(17 26)"/>
</clipPath>
</defs>
</svg>
