<svg width="112" height="112" viewBox="0 0 112 112" fill="none" xmlns="http://www.w3.org/2000/svg">
<g clip-path="url(#clip0_511_75)">
<rect x="1.99988" y="2" width="108" height="108" rx="8" fill="white"/>
<g clip-path="url(#clip1_511_75)">
<path d="M30.7029 67.466C28.3807 64.8545 26.8811 63.19 26.4244 62.7171C26.0167 62.2949 25.8916 62.0741 25.8887 61.7719C25.8875 61.6473 25.8956 61.5962 25.9273 61.5275C25.9736 61.4273 25.9182 61.4869 27.5267 59.8064C28.2043 59.0985 28.846 58.4277 28.9528 58.3155C29.4942 57.7471 29.5411 57.7025 29.6705 57.6348C29.9872 57.469 30.2642 57.4557 30.5426 57.593C30.7014 57.6713 30.5542 57.5162 32.4512 59.6036C33.2155 60.4445 34.5322 61.8915 35.3774 62.8191C37.0214 64.6237 38.3546 66.0945 38.6193 66.3957C38.8761 66.6878 38.9525 66.888 38.9519 67.2667C38.9514 67.6175 38.8535 67.8593 38.6524 68.0066C38.4723 68.1384 38.7818 68.1285 34.8456 68.1285H31.292L30.7029 67.466Z" fill="#48BBE5"/>
<path d="M93.855 66.5818V65.1093L93.9801 65.0723C94.4192 64.9427 94.6273 64.9045 94.967 64.8914C95.3397 64.877 95.8564 64.9519 95.8566 65.0204C95.8566 65.0508 95.7247 65.7083 95.7169 65.7165C95.7135 65.7201 95.6288 65.7058 95.5288 65.6846C95.279 65.6319 95.0807 65.6208 94.8929 65.6492L94.7353 65.6729L94.7306 66.8636L94.7258 68.0544H94.2905H93.8551L93.855 66.5818ZM70.3594 65.8858C70.7218 65.8514 70.9175 65.7624 71.0137 65.5882C71.0655 65.4944 71.0693 65.4744 71.0693 65.293C71.0693 65.1285 71.0631 65.0868 71.029 65.023C70.9389 64.8548 70.7685 64.7577 70.4966 64.7199C70.337 64.6977 70.0828 64.6941 69.9342 64.712L69.8369 64.7237V65.3141V65.9046L69.9991 65.9046C70.0883 65.9046 70.2504 65.8961 70.3594 65.8858ZM68.9103 66.0374V64.0205L69.1188 63.9897C69.571 63.9228 70.2256 63.9018 70.6007 63.9421C70.8829 63.9724 71.1871 64.0549 71.393 64.1569C71.6953 64.3068 71.8911 64.5412 71.9785 64.8581C72.0255 65.0282 72.0355 65.4361 71.9975 65.6283C71.9221 66.0091 71.7238 66.2675 71.3751 66.4395C71.0501 66.5999 70.7538 66.6595 70.1937 66.6771L69.8369 66.6884V67.3714V68.0544H69.3736H68.9103V66.0374ZM61.4397 67.9663C61.366 67.7945 61.1655 67.2427 61.0373 66.859C60.8047 66.1625 60.4595 65.0314 60.4595 64.9656C60.4595 64.9457 60.5474 64.9409 60.9128 64.9409H61.3662L61.3843 65.0104C61.3943 65.0486 61.4494 65.2884 61.5069 65.5432C61.5969 65.9422 61.7946 66.7419 61.846 66.9146C61.8619 66.9683 61.8639 66.9657 61.9031 66.8405C61.9577 66.6663 62.1978 65.7597 62.308 65.3115L62.3969 64.9502L62.7115 64.9452L63.0262 64.9402L63.1797 65.5776C63.3252 66.1824 63.5225 66.9352 63.54 66.9527C63.5593 66.972 63.7808 66.111 63.9443 65.3811L64.0428 64.9409H64.4959H64.949L64.937 65.0011C64.9152 65.111 64.6288 66.0504 64.4595 66.5677C64.284 67.104 64.1691 67.4272 64.015 67.8185L63.9218 68.0552L63.5791 68.0501L63.2363 68.0451L63.0557 67.4891C62.9564 67.1833 62.8345 66.7892 62.7847 66.6133C62.735 66.4374 62.6886 66.3039 62.6817 66.3168C62.6747 66.3296 62.635 66.4652 62.5934 66.6181C62.5026 66.9518 62.4038 67.2828 62.2628 67.7254L62.158 68.0544H61.8177H61.4775L61.4397 67.9663ZM53.2318 66.5565V65.058L53.3013 65.0375C53.4302 64.9997 53.757 64.9403 54.0002 64.9106C54.3429 64.8688 54.8907 64.8833 55.0819 64.9392C55.2927 65.0008 55.4326 65.0807 55.5682 65.2167C55.7728 65.4221 55.8664 65.6723 55.9018 66.1084C55.9122 66.236 55.9182 66.7232 55.9152 67.1926L55.9098 68.0451L55.4706 68.0501L55.0315 68.0551L55.0252 67.0493C55.0197 66.176 55.0148 66.0318 54.9884 65.9538C54.895 65.6787 54.7429 65.6064 54.3181 65.6353L54.1217 65.6487L54.1169 66.8469L54.1121 68.0451L53.672 68.0501L53.2318 68.0551V66.5565ZM88.1192 68.0794C87.7288 67.9966 87.4565 67.7388 87.36 67.3608C87.3015 67.1317 87.2945 66.9412 87.2945 65.5672V64.1818L87.3362 64.1721C87.3592 64.1667 87.5364 64.1374 87.7301 64.1069C87.9237 64.0764 88.1009 64.0471 88.1239 64.0418L88.1656 64.0321V64.4865V64.9409H88.6937H89.2219V65.3115V65.6822H88.6921H88.1623L88.1701 66.3262C88.1784 67.0164 88.1863 67.0801 88.2813 67.221C88.3623 67.3413 88.4203 67.3596 88.7123 67.3575C88.9156 67.3561 88.9991 67.3475 89.0982 67.318C89.1864 67.2916 89.2267 67.2866 89.2312 67.3013C89.2347 67.3128 89.263 67.4638 89.2941 67.6366C89.3374 67.8782 89.3453 67.9544 89.3279 67.9657C89.2913 67.9897 89.0179 68.0691 88.8988 68.0904C88.7393 68.1188 88.274 68.1123 88.1192 68.0794ZM85.3718 67.4115C85.3794 67.4071 85.3857 67.2549 85.3857 67.0731V66.7428L85.3003 66.7299C85.1459 66.7068 84.8081 66.7171 84.7044 66.7481C84.5932 66.7813 84.4929 66.8607 84.4591 66.9423C84.4259 67.0225 84.4432 67.2087 84.4897 67.2716C84.5432 67.344 84.6608 67.404 84.7863 67.423C84.8872 67.4383 85.3408 67.4294 85.3718 67.4115ZM84.4869 68.084C84.2769 68.0489 84.1909 68.0227 84.045 67.9493C83.7247 67.7879 83.5701 67.5116 83.57 67.0999C83.57 66.6758 83.7648 66.3927 84.1625 66.2393C84.3896 66.1517 84.6329 66.1204 84.9866 66.133C85.15 66.1389 85.3079 66.1495 85.3374 66.1565L85.3911 66.1694L85.3817 66.0384C85.366 65.8189 85.257 65.682 85.0521 65.6245C84.8743 65.5746 84.323 65.6112 84.0615 65.6902C84.011 65.7054 83.9683 65.7161 83.9667 65.714C83.965 65.7118 83.9391 65.5557 83.9091 65.3671C83.8687 65.114 83.8601 65.0208 83.8759 65.0111C83.9187 64.9847 84.2444 64.9211 84.4741 64.8943C85.0105 64.8315 85.4404 64.8827 85.7384 65.0449C85.8703 65.1167 86.0439 65.3052 86.1077 65.4459C86.2216 65.697 86.225 65.7367 86.2332 66.8989L86.2406 67.9581L86.1421 67.9792C85.7469 68.064 85.4785 68.0944 85.0614 68.1015C84.7607 68.1067 84.5915 68.1015 84.4869 68.084ZM82.4736 68.09C82.0566 68.0458 81.7605 67.8814 81.6346 67.6241C81.5318 67.414 81.5309 67.3951 81.5309 65.4257L81.531 63.6158L81.9248 63.554C82.1414 63.52 82.3371 63.4878 82.3597 63.4826L82.4009 63.4731L82.4061 65.268C82.4109 66.9458 82.4134 67.0677 82.4444 67.1363C82.4626 67.1767 82.4918 67.2256 82.5092 67.2449C82.5563 67.2969 82.669 67.3493 82.7612 67.362C82.8059 67.3681 82.8521 67.3791 82.8639 67.3863C82.8796 67.396 82.869 67.4942 82.8244 67.7547L82.7635 68.11L82.6893 68.1075C82.6485 68.1061 82.5514 68.0983 82.4736 68.09ZM74.4103 67.4136L74.4524 67.4048L74.4473 67.0771L74.4423 66.7493L74.3774 66.7347C74.2786 66.7125 73.8981 66.7147 73.7937 66.7381C73.5876 66.7843 73.4723 66.929 73.4943 67.1141C73.5002 67.1643 73.5202 67.2314 73.5387 67.2631C73.5819 67.3369 73.7176 67.4067 73.8538 67.4249C73.9573 67.4388 74.325 67.4313 74.4103 67.4136ZM73.5728 68.0894C72.9965 68.0054 72.6908 67.7362 72.6307 67.2597C72.5605 66.7043 72.8365 66.3211 73.4095 66.1785C73.5443 66.1449 73.6267 66.1381 73.9048 66.1372C74.0883 66.1367 74.2875 66.1432 74.3475 66.1518L74.4567 66.1674L74.4435 66.0507C74.4362 65.9865 74.4194 65.908 74.4062 65.8762C74.3687 65.7866 74.2732 65.689 74.1905 65.656C73.9643 65.5654 73.5406 65.5831 73.0448 65.7037C73.0247 65.7086 73.0069 65.6354 72.9657 65.3769C72.9364 65.1937 72.9159 65.0349 72.9201 65.024C72.9288 65.0014 73.1159 64.9555 73.3859 64.9098C73.6557 64.8641 74.224 64.8642 74.4237 64.9098C74.7672 64.9885 75.028 65.173 75.1491 65.4229C75.2745 65.6817 75.2734 65.6699 75.2809 66.871L75.2876 67.958L75.1985 67.9768C74.9699 68.0252 74.6649 68.0736 74.4793 68.0908C74.2402 68.113 73.7297 68.1121 73.5728 68.0892V68.0894ZM45.2443 68.0812C44.7698 67.9793 44.4957 67.7151 44.3705 67.2389C44.3303 67.0863 44.3289 67.0483 44.3224 66.0111L44.3158 64.9409H44.7522H45.1887L45.1889 65.8444C45.1889 66.3705 45.197 66.7981 45.2081 66.8683C45.2488 67.1265 45.3123 67.242 45.4552 67.3185C45.5237 67.3552 45.5584 67.3593 45.7911 67.3589C45.9338 67.3589 46.0651 67.3527 46.083 67.3456C46.1134 67.3336 46.1154 67.2586 46.1154 66.1368V64.9409H46.5509H46.9864V66.4413V67.9417L46.9169 67.9604C46.7713 67.9997 46.4866 68.0522 46.2666 68.0805C45.9792 68.1175 45.4153 68.1178 45.2443 68.0812ZM41.7573 65.5517C42.1115 65.5073 42.2789 65.3648 42.2789 65.1077C42.2789 64.8717 42.1313 64.7309 41.8331 64.6825C41.7057 64.6619 41.1486 64.656 41.0791 64.6746L41.0374 64.6858V65.1284V65.571H41.3206C41.4763 65.571 41.6728 65.5623 41.7573 65.5517ZM41.8343 67.3234C42.2619 67.2589 42.4305 67.1125 42.4325 66.8041C42.4341 66.5527 42.3271 66.4107 42.0721 66.326C41.9688 66.2917 41.9 66.2861 41.4961 66.2795L41.0374 66.2719V66.8009V67.3298L41.1533 67.3364C41.4359 67.3525 41.6712 67.348 41.8343 67.3234ZM41.0838 68.0902C40.6955 68.0755 40.3543 68.0365 40.1803 67.987C40.1497 67.9782 40.1479 67.8676 40.1479 65.9992V64.0207L40.2915 63.9991C40.6601 63.9438 40.8384 63.9324 41.3432 63.9321C41.7861 63.9321 41.9131 63.9377 42.065 63.9657C42.29 64.0071 42.4921 64.0717 42.6402 64.1493C42.7886 64.2271 42.997 64.4372 43.0638 64.5763C43.1973 64.8544 43.2013 65.2142 43.0738 65.4642C43.0273 65.5553 42.8549 65.741 42.7656 65.7963L42.7028 65.8351L42.8334 65.8983C43.1869 66.0692 43.3618 66.3718 43.362 66.8127C43.3622 67.0639 43.3383 67.1769 43.242 67.3791C43.1007 67.6762 42.7843 67.9018 42.3625 68.0061C42.0307 68.0882 41.6651 68.1122 41.0838 68.0902ZM92.0171 66.0795C91.9855 65.8778 91.8772 65.7246 91.7071 65.6408C91.6386 65.6071 91.5907 65.5988 91.463 65.5988C91.3229 65.5988 91.2913 65.6054 91.1951 65.6546C91.0365 65.7357 90.9308 65.8933 90.8814 66.1223L90.8684 66.1826H91.4508H92.0332L92.0171 66.0795ZM91.2756 68.1085C90.7655 68.0337 90.3561 67.7625 90.1573 67.3676C90.0107 67.0765 89.9424 66.6722 89.9798 66.3157C90.0068 66.0574 90.056 65.8802 90.1582 65.6729C90.3476 65.2886 90.6475 65.0401 91.0689 64.9182C91.2566 64.8639 91.6591 64.8599 91.8628 64.9103C92.0824 64.9646 92.2832 65.0743 92.4436 65.2276C92.6128 65.3892 92.7064 65.5394 92.779 65.7656C92.8531 65.9965 92.8757 66.1826 92.8692 66.5069L92.8636 66.7849L91.866 66.7897L90.8684 66.7945L90.8814 66.8546C90.9171 67.0192 91.055 67.1901 91.2202 67.2744C91.4724 67.403 92.0526 67.4002 92.451 67.2684C92.5611 67.232 92.5769 67.2305 92.5843 67.2562C92.6066 67.3338 92.6903 67.9091 92.6824 67.9298C92.6728 67.9547 92.5307 68.0049 92.3497 68.0474C92.0472 68.1184 91.5397 68.1473 91.2756 68.1085ZM58.6281 67.325C58.7884 67.2464 58.901 67.0854 58.9606 66.8497C58.9938 66.7185 58.9981 66.6582 58.9907 66.4347C58.9805 66.1296 58.9552 66.0326 58.8421 65.8642C58.7775 65.768 58.7427 65.7366 58.6433 65.6853C58.5279 65.6256 58.5158 65.6233 58.3551 65.6301C58.1644 65.6382 58.0666 65.6813 57.9578 65.8053C57.8073 65.9766 57.7437 66.2208 57.7585 66.5701C57.7756 66.9769 57.9221 67.2498 58.1731 67.3423C58.2732 67.3793 58.5381 67.3692 58.6281 67.325ZM58.0904 68.1089C57.398 67.9852 56.9374 67.4509 56.8646 66.6868C56.7658 65.6508 57.4227 64.8659 58.3874 64.8669C58.6554 64.8669 58.9644 64.9481 59.175 65.0731C59.314 65.1556 59.5196 65.3496 59.6114 65.4849C59.9237 65.9448 59.9892 66.659 59.7704 67.2204C59.6473 67.5362 59.4139 67.8023 59.1323 67.9477C58.8867 68.0746 58.7379 68.1115 58.4395 68.1197C58.3019 68.1235 58.1448 68.1186 58.0904 68.1089ZM65.4136 68.919C65.2487 68.8766 65.1091 68.8371 65.1033 68.8312C65.0975 68.8253 65.1133 68.76 65.1384 68.6861C65.2666 68.3093 65.3437 67.7727 65.3244 67.3915L65.312 67.1456L65.7722 67.1506L66.2324 67.1556L66.2318 67.4706C66.2312 67.7297 66.2238 67.8198 66.1889 67.9774C66.1293 68.2461 66.0362 68.5077 65.9058 68.7725C65.8125 68.9621 65.7874 68.9993 65.7537 68.9978C65.7315 68.9968 65.5784 68.9614 65.4135 68.9191L65.4136 68.919ZM76.2142 69.1006C76.0053 69.0553 75.9131 69.0183 75.9234 68.9839C75.9285 68.967 75.9632 68.8114 76.0005 68.6381C76.0378 68.4649 76.0694 68.3219 76.0707 68.3204C76.072 68.319 76.1315 68.3331 76.2029 68.3518C76.3544 68.3915 76.6263 68.3985 76.7381 68.3654C76.8401 68.3353 76.9862 68.1875 77.0595 68.0403L77.1174 67.9244L76.954 67.5863C76.6675 66.993 76.4166 66.3831 76.2139 65.7868C76.0963 65.4409 75.9527 64.9823 75.9527 64.9529C75.9527 64.9463 76.1598 64.9409 76.413 64.9409H76.8733L76.9529 65.2235C77.1244 65.8319 77.5208 66.9946 77.5472 66.9668C77.5832 66.9288 77.9358 65.7634 78.107 65.117L78.1511 64.9502L78.5994 64.9452C78.9692 64.9411 79.0476 64.9446 79.0476 64.9656C79.0476 64.9937 78.8646 65.5834 78.7477 65.9324C78.5437 66.541 78.286 67.2118 78.0456 67.7597C77.7713 68.3851 77.6223 68.6422 77.4216 68.8359C77.1959 69.0539 76.9746 69.1302 76.5752 69.1278C76.4417 69.1269 76.2793 69.1147 76.2142 69.1006ZM47.8852 69.0923C47.7078 69.0518 47.635 69.0252 47.635 69.001C47.635 68.9808 47.7607 68.395 47.775 68.3485C47.7835 68.321 47.796 68.3215 47.9182 68.3543C48.0205 68.3818 48.0978 68.3888 48.2466 68.3843C48.5006 68.3766 48.5738 68.3377 48.706 68.1401C48.839 67.9412 48.839 67.9412 48.7169 67.6979C48.5704 67.406 48.324 66.8475 48.1628 66.4421C48.0313 66.1111 47.7709 65.3523 47.6937 65.075L47.6562 64.9403L48.121 64.9452L48.5857 64.9501L48.6752 65.2639C48.8366 65.8299 49.2018 66.9199 49.2454 66.9657C49.2709 66.9925 49.6166 65.8711 49.8225 65.0938L49.863 64.9409H50.315C50.5636 64.9409 50.767 64.9449 50.767 64.9498C50.767 64.9721 50.5175 65.7597 50.4234 66.0343C50.07 67.0661 49.5888 68.2046 49.3494 68.5753C49.1679 68.8562 48.9309 69.0351 48.6533 69.1005C48.4833 69.1406 48.0778 69.1362 47.8852 69.0923Z" fill="#F37D31"/>
<path d="M16.5282 67.9551C16.4772 67.9416 16.4044 67.9173 16.3664 67.9009C16.2573 67.8541 16.1121 67.7063 16.0529 67.5818L16 67.4706L16 63.5972L16 59.7238L24.1024 50.8654L32.2047 42.007L35.7083 42.0021C39.1541 41.9973 39.2139 41.9979 39.3324 42.034C39.5964 42.1144 39.8242 42.3045 39.932 42.5343C39.9765 42.6291 39.9898 42.6862 39.9963 42.8099C40.0067 43.0092 39.9794 43.1333 39.8793 43.3413C39.773 43.5622 39.6699 43.6942 39.2893 44.0972C38.3536 45.0878 35.5702 48.1143 26.5541 57.9449C20.034 65.054 17.9104 67.3635 17.6401 67.6393C17.5184 67.7635 17.3558 67.8561 17.1397 67.9242C16.9775 67.9753 16.6646 67.9911 16.5282 67.9551Z" fill="#F37D31"/>
<path d="M37.4792 60.6531C37.2223 60.5948 37.0988 60.4618 37.0533 60.1947C37.039 60.1108 37.0347 58.6958 37.0384 55.3503L37.0436 50.6246L37.0918 50.5218C37.1603 50.3759 37.2389 50.2948 37.3681 50.2368C37.5429 50.1583 37.6611 50.149 38.3998 50.1554C39.071 50.1612 39.0836 50.162 39.1698 50.2044C39.218 50.2281 39.2822 50.2788 39.3124 50.3169C39.3949 50.4211 39.5767 50.8163 39.7524 51.2732C39.8386 51.4974 39.9158 51.6877 39.9239 51.6959C39.9396 51.7118 40.1843 51.427 40.4454 51.0892C40.6542 50.8191 40.971 50.4915 41.1628 50.3475C41.5535 50.0544 41.8708 49.9718 42.4829 50.0043C43.3131 50.0483 43.8263 50.2438 44.6969 50.8477C45.1807 51.1834 45.2094 51.207 45.2684 51.3195C45.3169 51.4119 45.3212 51.4347 45.3141 51.5627C45.3039 51.7465 45.273 51.8099 44.804 52.6075C44.3994 53.2958 44.3099 53.4155 44.1358 53.5009C44.0466 53.5446 44.0076 53.5524 43.8821 53.5518C43.6671 53.5509 43.5698 53.5115 43.3795 53.3484C43.0754 53.088 42.7622 52.9134 42.4636 52.8379C42.2439 52.7824 41.8034 52.7677 41.5995 52.809C41.0996 52.9103 40.7437 53.206 40.3071 53.8828L40.2034 54.0435V57.1069C40.2034 59.7717 40.1998 60.1842 40.1756 60.2771C40.1283 60.4587 40.0417 60.5568 39.8641 60.6297C39.77 60.6683 39.7438 60.6693 38.6745 60.6727C37.8561 60.6754 37.5554 60.6705 37.4792 60.6531ZM52.8055 54.0221C52.8055 53.988 52.7019 53.8123 52.5444 53.5795C52.172 53.0291 51.7208 52.696 51.1817 52.5733C50.9581 52.5225 50.6246 52.4999 50.4358 52.5229C49.832 52.5963 49.2242 53.0208 48.7889 53.6732C48.693 53.8169 48.5986 53.9912 48.5986 54.0247C48.5986 54.0377 49.267 54.0438 50.7021 54.0438C52.2949 54.0438 52.8055 54.0385 52.8055 54.0221ZM50.6928 60.8336C48.4168 60.6991 46.4669 59.2531 45.7294 57.1529C45.5464 56.6318 45.4677 56.1698 45.4534 55.5337C45.4387 54.8793 45.497 54.4029 45.662 53.8307C46.2959 51.6313 48.1488 50.1225 50.3598 50.0054C51.6331 49.9379 52.8405 50.3267 53.8433 51.1272C54.0647 51.304 54.5147 51.7568 54.6919 51.9813C55.2669 52.7094 55.625 53.5463 55.7331 54.4145C55.7908 54.8782 55.771 55.7636 55.6985 55.9541C55.6018 56.2087 55.4141 56.3137 54.9738 56.3598C54.8645 56.3713 53.6016 56.3784 51.6405 56.3786H48.4832L48.4963 56.4658C48.5363 56.7323 48.6775 57.0755 48.838 57.2959C49.1753 57.7592 49.6368 58.0461 50.2589 58.1793C50.4345 58.2169 50.5112 58.2225 50.8411 58.2218C51.1858 58.2211 51.2433 58.2162 51.4619 58.1691C51.7862 58.0993 52.1526 57.9766 52.4038 57.8537C52.6505 57.7331 52.7883 57.6438 52.963 57.4913C53.1407 57.3364 53.2957 57.2606 53.4121 57.2719C53.5369 57.2839 53.6211 57.3294 53.7646 57.4623C53.9572 57.6406 54.7728 58.5715 54.8302 58.6785C54.8713 58.7552 54.8812 58.7975 54.8812 58.8983C54.8812 59.1282 54.8448 59.1864 54.5264 59.4658C53.6666 60.2204 52.7257 60.6596 51.6748 60.7971C51.4556 60.8257 50.9071 60.846 50.6928 60.8333V60.8336ZM63.0725 57.9818C64.1322 57.7514 64.8862 56.9926 65.1146 55.9268C65.1664 55.6848 65.1709 55.2327 65.1239 54.9756C65.0567 54.6072 64.9097 54.2445 64.7004 53.9306C64.5592 53.7187 64.2731 53.4198 64.0756 53.2775C63.7946 53.0752 63.438 52.9124 63.1096 52.8365C62.9034 52.7889 62.4148 52.7698 62.2012 52.801C61.7166 52.8719 61.2765 53.095 60.9218 53.4498C60.2735 54.0981 60.0023 55.1393 60.2263 56.1194C60.4613 57.1475 61.1955 57.8532 62.1922 58.0088C62.3573 58.0346 62.9075 58.0177 63.0725 57.9818ZM61.8308 60.8433C60.0561 60.6885 58.5229 59.6164 57.745 57.9861C57.4733 57.4168 57.3145 56.8834 57.2219 56.2286C57.1755 55.9006 57.1755 54.9486 57.2219 54.6183C57.3145 53.96 57.4697 53.4349 57.7355 52.8812C58.1865 51.9415 58.8466 51.209 59.7028 50.6981C60.4118 50.2751 61.1727 50.0488 62.0321 50.0051C62.6715 49.9727 63.0824 50.0503 63.5551 50.2929C63.909 50.4746 64.1645 50.6751 64.5899 51.1051C64.7671 51.2842 64.915 51.4307 64.9185 51.4307C64.9221 51.4307 64.9273 50.5363 64.93 49.4431L64.9349 47.4555L64.987 47.3496C65.0164 47.2897 65.0759 47.2112 65.124 47.1688C65.281 47.0306 65.2727 47.0316 66.399 47.0243C67.0777 47.0199 67.4379 47.0245 67.5182 47.0384C67.7389 47.0768 67.9278 47.2079 68.0312 47.3946L68.0855 47.4926V53.8585C68.0855 60.0452 68.0845 60.2272 68.0506 60.3246C68.005 60.4554 67.893 60.5675 67.7502 60.6251L67.6407 60.6692H66.6585C66.1182 60.6692 65.6442 60.6624 65.6051 60.6541C65.4242 60.6159 65.3108 60.4312 65.0571 59.7617C64.9839 59.5684 64.9202 59.4065 64.9156 59.4019C64.9109 59.3973 64.7675 59.5307 64.5967 59.6983C64.1353 60.1512 63.7784 60.4211 63.3987 60.6042C62.9128 60.8386 62.4993 60.9016 61.8308 60.8433H61.8308Z" fill="#48BBE5"/>
<path d="M79.0258 60.6591C78.8341 60.6298 78.7139 60.5546 78.6318 60.4124C78.5937 60.3464 74.8408 51.1886 74.7157 50.8562C74.6848 50.7741 74.6696 50.6939 74.668 50.6045C74.6636 50.3567 74.7895 50.2119 75.0445 50.1714C75.198 50.147 77.2745 50.1456 77.4223 50.1698C77.6574 50.2083 77.8224 50.3493 77.9054 50.5827C77.9317 50.6567 78.0417 51.0008 78.1497 51.3473C78.4487 52.3067 79.476 55.4931 79.6046 55.86C79.6671 56.0384 79.7251 56.1916 79.7336 56.2005C79.742 56.2094 79.7611 56.1761 79.776 56.1264C79.7909 56.0767 80.1884 54.8018 80.6594 53.2932C81.2165 51.5087 81.5348 50.5167 81.5705 50.4539C81.6466 50.32 81.7691 50.2167 81.8883 50.1861C81.9644 50.1665 82.2504 50.1612 83.2359 50.1612C84.6324 50.1612 84.6236 50.1606 84.7593 50.2809C84.8367 50.3496 84.838 50.353 84.8445 50.4876C84.8496 50.5964 84.8417 50.6512 84.8061 50.7543C84.7376 50.952 80.8482 60.2693 80.7987 60.3541C80.7395 60.4555 80.5921 60.5956 80.5023 60.6358C80.4361 60.6654 80.3588 60.6693 79.7796 60.6721C79.4228 60.6738 79.0836 60.668 79.0258 60.6591ZM70.7635 60.6656C70.5576 60.6312 70.4031 60.5115 70.3434 60.3403C70.3108 60.2469 70.3094 60.047 70.3094 55.4245V50.606L70.3619 50.4925C70.4246 50.3567 70.5172 50.2617 70.643 50.2039C70.7356 50.1613 70.7364 50.1612 71.7586 50.1555C72.8294 50.1494 72.9228 50.1547 73.0788 50.2297C73.1837 50.2801 73.3573 50.4505 73.416 50.5605L73.46 50.6431V55.4523V60.2615L73.4172 60.3475C73.3936 60.3948 73.3436 60.4644 73.306 60.5022C73.1352 60.6735 73.0956 60.6782 71.8476 60.6756C71.2768 60.6744 70.789 60.6699 70.7635 60.6656ZM91.0473 57.9835C91.5914 57.8609 92.0495 57.5697 92.3732 57.1406C92.5562 56.898 92.7322 56.5011 92.8137 56.1472C92.9052 55.7495 92.9145 55.2109 92.8365 54.8166C92.7228 54.2414 92.4576 53.7329 92.0888 53.3826C91.6655 52.9804 91.1588 52.7836 90.5469 52.7836C90.0462 52.7836 89.6556 52.8985 89.2591 53.1625C88.206 53.8636 87.8319 55.4755 88.4335 56.7201C88.7668 57.4095 89.3928 57.8786 90.1416 58.0003C90.3524 58.0345 90.8629 58.0251 91.0473 57.9835ZM90.0743 60.8446C88.0889 60.6563 86.4099 59.4688 85.6133 57.6896C85.126 56.601 85.0042 55.3745 85.2665 54.1955C85.6515 52.4643 86.8879 51.0181 88.53 50.3782C89.2034 50.1157 89.8258 50.0009 90.5747 50.0009C91.3189 50.0009 91.9399 50.114 92.5803 50.366C93.8988 50.885 94.9452 51.8844 95.5318 53.1849C96.0065 54.2375 96.1256 55.4786 95.8645 56.6534C95.8003 56.9424 95.6405 57.4183 95.5118 57.7041C95.0406 58.7499 94.2146 59.6407 93.1938 60.2038C92.6493 60.5042 91.9643 60.7278 91.3138 60.8176C91.0625 60.8523 90.3248 60.8684 90.0743 60.8446Z" fill="#48BBE5"/>
<path d="M16.6302 55.3344C16.3972 55.271 16.2127 55.1147 16.099 54.8845L16.0279 54.7407L16.0231 48.643C16.0178 41.8049 16.0044 42.4315 16.1601 42.2582C16.2587 42.1487 16.3718 42.0853 16.5513 42.0392C16.6673 42.0093 16.8689 42.007 19.2989 42.007C21.7272 42.007 21.9298 42.0093 22.037 42.039C22.199 42.0838 22.2925 42.1355 22.3925 42.2357C22.4896 42.3329 22.5457 42.4373 22.5876 42.5993C22.6128 42.6969 22.6162 43.1046 22.6161 46.1019L22.616 49.4941L21.8998 50.291C19.2678 53.2195 17.6893 54.9415 17.472 55.1211C17.2277 55.3231 16.8967 55.407 16.6302 55.3344Z" fill="#48BBE5"/>
<path d="M70.7171 48.8929C70.5234 48.8438 70.3968 48.7215 70.3375 48.5261C70.2998 48.402 70.2988 48.3687 70.304 47.371L70.3094 46.3435L70.3622 46.236C70.4185 46.1214 70.4861 46.0643 70.6337 46.0066C70.7091 45.9772 70.8191 45.9735 71.7709 45.9677C72.8762 45.9611 73.0061 45.9679 73.1759 46.0409C73.2921 46.0909 73.3993 46.2123 73.4392 46.3392C73.4668 46.4268 73.4696 46.544 73.4651 47.4103L73.46 48.383L73.3983 48.5082C73.3259 48.6552 73.1933 48.7951 73.0676 48.857L72.9781 48.901L71.8754 48.904C71.269 48.9056 70.7477 48.9006 70.7171 48.8929Z" fill="#F37D31"/>
</g>
</g>
<rect x="1" y="1" width="110" height="110" rx="9" stroke="black" stroke-opacity="0.1" stroke-width="2"/>
<defs>
<clipPath id="clip0_511_75">
<rect x="2" y="2" width="108" height="108" rx="8" fill="white"/>
</clipPath>
<clipPath id="clip1_511_75">
<rect width="80" height="27.1281" fill="white" transform="translate(16 42)"/>
</clipPath>
</defs>
</svg>
