<svg width="112" height="112" viewBox="0 0 112 112" fill="none" xmlns="http://www.w3.org/2000/svg">
<g clip-path="url(#clip0_736_549)">
<rect x="1.9999" y="2" width="108" height="108" rx="8" fill="white"/>
<path d="M33.5362 62.9449C33.5023 63.1314 33.4514 63.2841 33.4175 63.3858L33.0105 64.7256H34.062L33.6549 63.3858C33.621 63.2841 33.5871 63.1314 33.5362 62.9449Z" fill="black"/>
<path d="M70.6095 62.8092C70.4739 62.7075 70.3212 62.6396 70.1177 62.6396H69.3545V63.9625H70.1177C70.3212 63.9625 70.4908 63.8946 70.6265 63.7759C70.7452 63.6402 70.813 63.4876 70.813 63.2671C70.813 63.0806 70.7452 62.9279 70.6095 62.8092Z" fill="black"/>
<path d="M51.4623 62.9449C51.4114 63.1314 51.3775 63.2841 51.3436 63.3858L50.9366 64.7256H51.9881L51.581 63.3858C51.5471 63.2841 51.5132 63.1314 51.4623 62.9449Z" fill="black"/>
<path d="M16.0001 69.9831H95.981V58.7899H16.0001V69.9831ZM22.9365 62.6567H21.2066V63.9625H22.8347V64.9801H21.2066V67.1339H20.0025V61.656H22.9365V62.6736V62.6567ZM25.0056 67.1339H23.8014V61.656H25.0056V67.1339ZM30.6191 67.1339H29.5846L27.1594 63.9456C27.1594 63.9456 27.0746 63.8099 27.0237 63.7251C27.0237 63.8438 27.0237 63.9286 27.0237 63.9965V67.1339H25.8196V61.656H26.8541L29.2793 64.8105C29.2793 64.8105 29.3641 64.9462 29.415 65.0479C29.415 64.9292 29.415 64.8444 29.415 64.7596V61.656H30.6191V67.1339ZM34.7742 67.1339L34.3502 65.7433H32.6712L32.2473 67.1339H30.9922L32.9426 61.656H34.0958L36.0801 67.1339H34.7573H34.7742ZM41.2527 67.1339H40.2182L37.793 63.9456C37.793 63.9456 37.7082 63.8099 37.6573 63.7251C37.6573 63.8438 37.6573 63.9286 37.6573 63.9965V67.1339H36.4532V61.656H37.4877L39.9129 64.8105C39.9129 64.8105 39.9977 64.9462 40.0486 65.0479C40.0486 64.9292 40.0486 64.8444 40.0486 64.7596V61.656H41.2527V67.1339ZM45.8318 66.9813C45.5096 67.1339 45.1025 67.2187 44.6277 67.2187C44.2206 67.2187 43.8306 67.1509 43.4914 67.0152C43.1522 66.8796 42.8469 66.693 42.5925 66.4386C42.3551 66.2012 42.1685 65.8959 42.0159 65.5398C41.8802 65.1836 41.8124 64.7935 41.8124 64.3526C41.8124 63.9456 41.8802 63.5725 42.0329 63.2163C42.1855 62.8771 42.3721 62.5888 42.6265 62.3344C42.8808 62.097 43.1692 61.8935 43.5084 61.7578C43.8475 61.6221 44.2037 61.5543 44.5938 61.5543C44.9838 61.5543 45.3569 61.6221 45.6792 61.7408C45.9844 61.8596 46.2897 62.0631 46.578 62.3683L45.8996 63.1485C45.5265 62.7754 45.1025 62.6058 44.5938 62.6058C44.3563 62.6058 44.1528 62.6567 43.9493 62.7415C43.7627 62.8262 43.5932 62.945 43.4575 63.1146C43.3218 63.2672 43.22 63.4537 43.1522 63.6742C43.0844 63.8947 43.0335 64.1321 43.0335 64.3696C43.0335 64.9462 43.1692 65.3871 43.4405 65.7094C43.6949 66.0316 44.085 66.2012 44.5938 66.2012C44.7634 66.2012 44.916 66.1842 45.0516 66.1503C45.1873 66.1164 45.3061 66.0655 45.4078 66.0146C45.5265 65.9637 45.6113 65.8959 45.7131 65.8111C45.7979 65.7263 45.8996 65.6585 45.9844 65.5737L46.6628 66.3538C46.4084 66.6252 46.1201 66.8456 45.7979 67.0152M48.4266 67.1679H47.2225V61.69H48.4266V67.1679ZM52.6834 67.1679L52.2594 65.7772H50.5974L50.1734 67.1679H48.9015L50.8688 61.69H52.022L54.0063 67.1679H52.6834ZM57.6017 67.1679H54.4472V61.69H55.6513V66.1673H57.6017V67.1848V67.1679ZM63.0965 66.8287C62.7573 67.117 62.2825 67.2696 61.6889 67.2696C61.3158 67.2696 60.9766 67.2018 60.6883 67.0831C60.4 66.9474 60.1117 66.7948 59.8573 66.5912L60.4678 65.7433C60.6374 65.879 60.824 65.9807 61.0445 66.0825C61.2649 66.1673 61.4854 66.2181 61.7059 66.2181C61.9772 66.2181 62.1638 66.1673 62.2655 66.0825C62.3673 65.9977 62.4012 65.862 62.4012 65.6924C62.4012 65.5567 62.3503 65.438 62.2486 65.3362C62.1298 65.2345 62.0111 65.1497 61.8415 65.0819C61.6889 65.014 61.5363 64.9462 61.3667 64.8783C61.2141 64.8105 61.0614 64.7596 60.9427 64.6918C60.807 64.607 60.6713 64.5392 60.5526 64.4544C60.4339 64.3696 60.3322 64.2678 60.2474 64.1491C60.1626 64.0304 60.0947 63.8947 60.0438 63.7421C59.993 63.5894 59.976 63.4029 59.976 63.1824C59.976 62.911 60.0269 62.6567 60.1456 62.4701C60.2643 62.2666 60.4 62.097 60.5865 61.9783C60.7731 61.8596 60.9766 61.7578 61.214 61.69C61.4345 61.6391 61.6889 61.6052 61.9264 61.6052C62.1977 61.6052 62.469 61.6391 62.7404 61.7239C63.0287 61.7917 63.2831 61.9274 63.5036 62.08L62.9609 62.9789C62.8422 62.8941 62.6895 62.8093 62.503 62.7584C62.3164 62.7075 62.1298 62.6567 61.9094 62.6567C61.7737 62.6567 61.655 62.6736 61.5532 62.7075C61.4684 62.7415 61.3836 62.7923 61.3158 62.8432C61.248 62.8941 61.214 62.945 61.1971 63.0128C61.1632 63.0806 61.1462 63.1315 61.1462 63.1824C61.1462 63.3011 61.1971 63.4029 61.2649 63.5046C61.3328 63.5894 61.4515 63.6742 61.5702 63.7251C61.7059 63.7929 61.8415 63.8608 61.9942 63.9117C62.1468 63.9625 62.2994 64.0304 62.469 64.0982C62.6047 64.166 62.7404 64.2339 62.8761 64.3017C63.0118 64.3865 63.1135 64.4883 63.2322 64.607C63.334 64.7257 63.4188 64.8614 63.4866 65.031C63.5545 65.2006 63.5884 65.3871 63.5884 65.6076C63.5884 66.1333 63.4188 66.5234 63.0796 66.8287M67.4382 67.1679H64.1311V61.69H67.3364V62.7075H65.3521V63.9965H67.2008V65.014H65.3521V66.1673H67.4551V67.1848L67.4382 67.1679ZM70.8301 67.1679L69.3037 64.5731V67.1679H68.0996V61.69H70.0669C70.3552 61.69 70.6096 61.7239 70.847 61.8087C71.0845 61.8935 71.288 62.0122 71.4406 62.1479C71.6102 62.3005 71.7289 62.4701 71.8307 62.6736C71.9155 62.8771 71.9664 63.0976 71.9664 63.335C71.9664 63.7421 71.8476 64.0812 71.6272 64.3526C71.3897 64.607 71.1014 64.7935 70.7453 64.8953L72.2038 67.1848H70.847L70.8301 67.1679ZM75.036 67.1679H73.8828L72.0851 61.69H73.3231L74.3916 65.2006C74.3916 65.2006 74.4424 65.3702 74.4764 65.5058C74.5103 65.3702 74.5442 65.2684 74.5612 65.2006L75.6126 61.69H76.8168L75.036 67.1679ZM78.5806 67.1679H77.3764V61.69H78.5806V67.1679ZM83.1596 67.0152C82.8374 67.1679 82.4304 67.2527 81.9555 67.2527C81.5485 67.2527 81.1584 67.1848 80.8192 67.0492C80.4631 66.9135 80.1747 66.7269 79.9373 66.4725C79.6999 66.2351 79.5133 65.9298 79.3607 65.5737C79.225 65.2175 79.1572 64.8275 79.1572 64.3865C79.1572 63.9795 79.225 63.6064 79.3776 63.2502C79.5303 62.911 79.7168 62.6227 79.9712 62.3683C80.2256 62.1309 80.5139 61.9274 80.8531 61.7917C81.1923 61.656 81.5485 61.5882 81.9385 61.5882C82.3286 61.5882 82.7017 61.656 83.0239 61.7748C83.3292 61.8935 83.6345 62.097 83.9228 62.4023L83.2444 63.1824C82.8713 62.8093 82.4473 62.6397 81.9385 62.6397C81.7011 62.6397 81.4806 62.6906 81.2941 62.7754C81.1075 62.8602 80.9549 62.9789 80.8192 63.1485C80.6835 63.3011 80.5818 63.4877 80.5139 63.7081C80.4291 63.9286 80.3952 64.166 80.3952 64.4035C80.3952 64.9801 80.5309 65.421 80.8022 65.7433C81.0736 66.0655 81.4467 66.2351 81.9555 66.2351C82.1251 66.2351 82.2777 66.2181 82.4134 66.1842C82.5491 66.1503 82.6678 66.0994 82.7695 66.0485C82.8713 65.9977 82.9731 65.9298 83.0579 65.845C83.1596 65.7602 83.2275 65.6924 83.3292 65.6076L84.0246 66.3877C83.7702 66.6591 83.4649 66.8796 83.1596 67.0492M87.7726 67.2018H84.4655V61.7239H87.6539V62.7415H85.6696V64.0304H87.5182V65.0479H85.6696V66.2012H87.7726V67.2187V67.2018ZM91.4358 66.8626C91.0966 67.1509 90.6218 67.3035 90.0282 67.3035C89.6381 67.3035 89.3159 67.2357 89.0276 67.117C88.7393 66.9813 88.451 66.8287 88.1966 66.6252L88.8241 65.7772C88.9767 65.9129 89.1802 66.0146 89.4007 66.1164C89.6212 66.2012 89.8586 66.2521 90.0791 66.2521C90.3504 66.2521 90.537 66.2012 90.6387 66.1164C90.7235 66.0316 90.7744 65.8959 90.7744 65.7263C90.7744 65.5906 90.7235 65.4719 90.6218 65.3702C90.52 65.2684 90.3843 65.1836 90.2148 65.1158C90.0621 65.0479 89.9095 64.9801 89.7399 64.9123C89.5873 64.8444 89.4346 64.7935 89.3159 64.7257C89.1802 64.6409 89.0446 64.5731 88.9258 64.4883C88.8071 64.4035 88.7054 64.3017 88.6206 64.183C88.5358 64.0643 88.451 63.9286 88.4171 63.776C88.3662 63.6233 88.3492 63.4368 88.3492 63.2163C88.3492 62.945 88.4171 62.6906 88.5188 62.504C88.6375 62.3005 88.7732 62.1309 88.9597 62.0122C89.1463 61.8935 89.3498 61.7917 89.5873 61.7239C89.8247 61.673 90.0621 61.6391 90.2996 61.6391C90.537 61.6391 90.8253 61.673 91.1136 61.7578C91.4019 61.8256 91.6563 61.9613 91.8768 62.114L91.3341 63.0128C91.2154 62.928 91.0627 62.8432 90.8762 62.7923C90.6896 62.7415 90.5031 62.6906 90.2996 62.6906C90.1469 62.6906 90.0452 62.7075 89.9434 62.7415C89.8416 62.7754 89.7738 62.8263 89.706 62.8771C89.6551 62.928 89.6042 62.9789 89.5873 63.0467C89.5703 63.1146 89.5533 63.1654 89.5533 63.2163C89.5533 63.335 89.6042 63.4368 89.6721 63.5385C89.7569 63.6233 89.8586 63.7081 89.9943 63.759C90.113 63.8269 90.2656 63.8947 90.4183 63.9456C90.5709 63.9965 90.7405 64.0643 90.8931 64.1321C91.0288 64.2 91.1645 64.2678 91.2832 64.3356C91.4189 64.4204 91.5206 64.5222 91.6393 64.6409C91.7581 64.7596 91.8259 64.8953 91.8938 65.0649C91.9616 65.2345 91.9955 65.421 91.9955 65.6415C91.9955 66.1673 91.8259 66.5573 91.4698 66.8626" fill="black"/>
<path d="M25.8366 56.3816C28.6349 56.3816 32.0607 55.6015 34.011 53.3798H32.332C30.4326 55.0927 27.9565 55.4828 25.8535 55.4828C20.7487 55.4828 17.5094 52.8371 17.5094 49.1569C17.5094 45.782 21.1727 42.7462 25.7857 42.7462C26.3453 42.7462 26.5149 42.8649 25.9383 43.5942C24.7511 45.0697 22.6482 47.9528 21.6645 49.6657C20.5961 51.4973 21.6815 52.9728 24.0728 52.9728H33.7227C34.3333 52.9728 34.6555 52.6336 35.0116 52.023C35.283 51.5312 35.7239 50.5306 35.7239 49.1738C35.7239 46.4434 33.6549 43.9164 30.5343 42.6614L30.0934 43.3228C33.0443 44.5439 34.2315 46.7317 34.2315 49.0891C34.2315 50.2593 33.9093 51.3277 33.2987 51.3277H25.5822C24.5307 51.3277 24.2254 50.9546 24.7003 50.0218C25.5482 48.3598 28.0752 45.1714 29.6355 43.255C29.8729 42.9667 30.0425 42.5427 29.2284 42.3222C28.3974 42.1018 27.0407 42 25.8874 42C20.0873 42 16.0509 45.1375 16.0509 49.1738C16.0509 52.9049 19.5615 56.3816 25.8874 56.3816" fill="black"/>
<path d="M42.389 52.9897H61.2988L65.1826 50.5476L68.5405 52.9897H72.526L67.3364 49.1908L71.5593 46.5282V50.5476C71.5593 51.8026 73.1705 52.9897 74.646 52.9897H93.5388C96.8289 52.9897 96.812 48.6481 93.5388 48.6481H86.9924C87.196 47.8171 87.8574 47.2405 89.0785 47.2405H95.3365V45.8328H88.6714C84.8725 45.8328 83.9737 48.5294 83.9737 50.0557H92.0803C93.1996 50.0557 93.1996 51.5482 92.1142 51.5482C91.0288 51.5482 83.1596 51.5482 83.1596 51.5482V45.8159H80.463V51.5482H75.9857C74.7816 51.5482 74.2898 50.9715 74.2898 50.0727C74.2898 49.0043 74.2898 45.8159 74.2898 45.8159H69.9651L66.0984 48.258L62.7743 45.8159H53.1922C50.4108 45.8159 48.4436 47.444 48.2231 49.4622H50.0208C49.2915 49.937 48.7488 50.7002 48.4266 51.5651H42.7621C41.6937 51.5651 41.1849 51.0055 41.1849 49.954V45.8159H38.4714V49.3434C38.4714 51.5821 39.6924 52.9897 42.4399 52.9897M53.6332 47.2405H59.6537V46.4603L63.9615 49.6148L60.8579 51.5651H51.6828C51.7676 50.802 52.1746 50.0218 53.4296 50.0218H59.1111V48.6311H51.5471C51.6828 48.0545 52.2764 47.2235 53.6332 47.2235" fill="black"/>
</g>
<rect x="1" y="1" width="110" height="110" rx="9" stroke="black" stroke-opacity="0.1" stroke-width="2"/>
<defs>
<clipPath id="clip0_736_549">
<rect x="2" y="2" width="108" height="108" rx="8" fill="white"/>
</clipPath>
</defs>
</svg>
