<svg width="112" height="112" viewBox="0 0 112 112" fill="none" xmlns="http://www.w3.org/2000/svg">
<g clip-path="url(#clip0_736_543)">
<rect x="1.99991" y="2" width="108" height="108" rx="8" fill="white"/>
<path d="M21.727 58.8513H16.2667V72.2098H18.5797V67.3037H20.6163C20.6163 67.3037 23.6834 67.4211 24.7812 64.7114C25.7556 62.3068 24.6888 58.8513 21.727 58.8513ZM22.8998 63.5098C22.6522 65.2073 20.9252 65.3912 20.9252 65.3912H18.5183V60.7948H20.9873C22.2214 60.7948 23.1246 61.9585 22.8998 63.5098Z" fill="#004E44"/>
<path d="M33.2647 67.6447C33.2647 67.6447 33.8477 61.9057 29.5934 62.0594C24.5041 62.2457 24.9962 70.4876 28.0512 71.9012C30.5194 73.0429 33.2647 71.6544 33.2647 71.6544V69.6185C27.6817 72.0859 28.1436 67.6742 28.1436 67.6742L33.2647 67.6447ZM29.8713 63.9121C31.5059 64.0037 31.2591 66.0396 31.2591 66.0396H28.2049C28.2049 66.0396 28.1776 63.8152 29.8713 63.9121Z" fill="#004E44"/>
<path d="M38.6365 76.1423C42.7045 76.1438 42.7045 72.3022 42.7045 72.3022V62.0562H40.7004V62.8928C35.7943 60.1467 33.7281 65.8857 35.3014 69.9885C36.8747 74.0913 40.608 71.5004 40.608 71.5004C40.5141 76.0038 35.4861 73.1971 35.4861 73.1971V75.5101C35.4861 75.5101 36.5196 76.1438 38.6365 76.1423ZM40.6701 69.2185C40.6701 69.2185 40.4596 70.3277 38.744 70.3277C37.0291 70.3277 37.2759 66.5648 37.2759 66.5648C37.2759 66.5648 37.2207 63.9724 38.744 63.9119C40.2681 63.849 40.6701 64.7129 40.6701 64.7129V69.2185Z" fill="#004E44"/>
<path d="M59.5448 59.0062V62.6456C54.6409 59.9003 52.5732 65.6385 54.1473 69.7413C55.7198 73.8441 59.4532 71.2541 59.4532 71.2541V72.0596H61.5511V59.0062H59.5448ZM59.5145 68.9714C59.5145 68.9714 59.3063 70.0813 57.5899 70.0813C55.875 70.0813 56.1211 66.3161 56.1211 66.3161C56.1211 66.3161 56.0658 63.7268 57.5899 63.664C59.114 63.6019 59.5145 64.4665 59.5145 64.4665V68.9714Z" fill="#004E44"/>
<path d="M51.4629 70.3277V65.5776C51.4629 65.5776 51.8687 60.5034 45.0774 62.5536V64.5585C45.0774 64.5585 45.8784 64.0338 47.4221 64.0338C48.9636 64.0338 49.427 64.7129 49.427 65.7297C49.427 65.7297 44.5527 64.8061 44.1204 68.6931C43.6888 72.5794 47.7303 72.858 49.427 71.3778C49.427 71.3778 50.1099 72.833 52.6046 72.06V70.3277C52.6046 70.3277 51.9883 70.5442 51.4629 70.3277ZM46.4651 68.8778C46.5265 66.7496 49.3566 67.2046 49.3566 67.2046C49.3566 67.2046 49.3657 68.5538 49.3657 69.7591C48.9015 70.5306 46.4031 71.0061 46.4651 68.8778Z" fill="#004E44"/>
<path d="M73.7983 72.0596H75.8046V62.3678H73.7983V72.0596Z" fill="#004E44"/>
<path d="M76.0357 60.0915C76.0357 60.7737 75.483 61.3263 74.8024 61.3263C74.1195 61.3263 73.5668 60.7737 73.5668 60.0915C73.5668 59.4101 74.1195 58.8574 74.8024 58.8574C75.483 58.8574 76.0357 59.4101 76.0357 60.0915Z" fill="#004E44"/>
<path d="M88.1137 62.3688H90.1806V63.1706C90.1806 63.1706 90.9824 62.1213 92.8964 62.1213C94.8074 62.1213 95.7333 64.0345 95.7333 64.7439V72.0599H93.4817V65.1762C93.4817 65.1762 93.4196 64.2192 92.3407 64.2192C91.261 64.2192 90.2102 65.1141 90.2102 65.5465V72.0599H88.1137V62.3688Z" fill="#004E44"/>
<path d="M70.8383 70.3277V65.5776C70.8383 65.5776 71.2434 60.5034 64.452 62.5536V64.5585C64.452 64.5585 65.2538 64.0338 66.7968 64.0338C68.3391 64.0338 68.8024 64.7129 68.8024 65.7297C68.8024 65.7297 63.9281 64.8061 63.4958 68.6931C63.0643 72.5794 67.1057 72.858 68.8024 71.3778C68.8024 71.3778 69.4861 72.833 71.9801 72.06V70.3277C71.9801 70.3277 71.363 70.5442 70.8383 70.3277ZM65.8414 68.8778C65.9019 66.7496 68.7313 67.2046 68.7313 67.2046C68.7313 67.2046 68.7404 68.5538 68.7404 69.7591C68.277 70.5306 65.7785 71.0061 65.8414 68.8778Z" fill="#004E44"/>
<path d="M85.2723 70.3277V65.5776C85.2723 65.5776 85.6766 60.5034 78.8861 62.5536V64.5585C78.8861 64.5585 79.6878 64.0338 81.2308 64.0338C82.7731 64.0338 83.2364 64.7129 83.2364 65.7297C83.2364 65.7297 78.3621 64.8061 77.9291 68.6931C77.4983 72.5801 81.5397 72.858 83.2364 71.3778C83.2364 71.3778 83.9201 72.833 86.4141 72.06V70.3277C86.4141 70.3277 85.7962 70.5442 85.2723 70.3277ZM80.2754 68.8778C80.3359 66.7496 83.166 67.2046 83.166 67.2046C83.166 67.2046 83.1736 68.5538 83.1736 69.7591C82.7102 70.5306 80.2133 71.0061 80.2754 68.8778Z" fill="#004E44"/>
<path d="M26.7499 35.2675C21.7401 35.2675 17.6797 39.3287 17.6797 44.3378C17.6797 49.3476 21.7401 53.4073 26.7499 53.4073C28.9849 53.4073 31.0306 52.5987 32.6115 51.2586C30.6475 49.5952 29.4028 47.1119 29.4028 44.3378C29.4028 41.563 30.6475 39.0796 32.6115 37.4155C31.0306 36.0761 28.9849 35.2675 26.7499 35.2675Z" fill="#BFD730"/>
<path d="M38.4729 35.2675C36.2379 35.2675 34.1916 36.0761 32.6115 37.4155C34.5739 39.0796 35.82 41.563 35.82 44.3378C35.82 47.1119 34.5739 49.5952 32.6115 51.2586C34.1916 52.5987 36.2379 53.4073 38.4729 53.4073C43.4827 53.4073 47.5431 49.3476 47.5431 44.3378C47.5431 39.3287 43.4827 35.2675 38.4729 35.2675Z" fill="#72BF44"/>
<path d="M32.6115 37.4155C30.6475 39.0796 29.4028 41.563 29.4028 44.3378C29.4028 47.1119 30.6475 49.5952 32.6115 51.2586C34.5739 49.5952 35.82 47.1119 35.82 44.3378C35.82 41.563 34.5739 39.0796 32.6115 37.4155Z" fill="#00AB4E"/>
<path d="M59.3893 44.337C59.3893 49.3468 55.3289 53.4072 50.3199 53.4072C45.31 53.4072 41.2496 49.3468 41.2496 44.337C41.2496 39.3279 45.31 35.2667 50.3199 35.2667C55.3289 35.2667 59.3893 39.3279 59.3893 44.337Z" fill="#00AB4E"/>
<path d="M55.2386 40.9113C54.5239 40.423 52.6606 39.6583 50.3931 39.653H50.3204L50.2447 39.6522C47.9779 39.6575 46.1154 40.423 45.3999 40.9113C45.1682 41.0696 45.0274 41.2709 45.0403 41.3997C45.0789 41.5147 45.2144 41.5783 45.6134 41.4572C46.3001 41.2475 47.9552 40.3087 50.3204 40.2882C52.6849 40.3087 54.3377 41.2475 55.0251 41.4572C55.4249 41.5783 55.5596 41.5147 55.599 41.3997C55.6119 41.2709 55.4703 41.0696 55.2386 40.9113Z" fill="white"/>
<path d="M51.7668 46.9672C51.7668 46.9672 50.2669 47.0641 51.1384 47.9348C52.0083 48.8055 54.8134 49.8692 57.134 47.9348C57.134 47.9348 58.1023 47.1618 56.6502 46.9672C55.2003 46.7749 51.7668 46.9672 51.7668 46.9672Z" fill="white"/>
<path d="M50.8752 47.4025L53.7765 40.649H54.5821L57.4432 47.4025H56.7406L54.1793 41.4258L51.5119 47.4025H50.8752Z" fill="white"/>
<path d="M44.0892 46.9672C44.0892 46.9672 42.5901 47.0641 43.4608 47.9348C44.3307 48.8055 47.1366 49.8692 49.4571 47.9348C49.4571 47.9348 50.4255 47.1618 48.9733 46.9672C47.5235 46.7749 44.0892 46.9672 44.0892 46.9672Z" fill="white"/>
<path d="M43.1978 47.4025L46.099 40.649H46.9038L49.7642 47.4025H49.0624L46.5018 41.4258L43.8345 47.4025H43.1978Z" fill="white"/>
</g>
<rect x="1" y="1" width="110" height="110" rx="9" stroke="black" stroke-opacity="0.1" stroke-width="2"/>
<defs>
<clipPath id="clip0_736_543">
<rect x="2" y="2" width="108" height="108" rx="8" fill="white"/>
</clipPath>
</defs>
</svg>
