<svg width="112" height="112" viewBox="0 0 112 112" fill="none" xmlns="http://www.w3.org/2000/svg">
<g clip-path="url(#clip0_736_541)">
<rect x="1.99988" y="2" width="108" height="108" rx="8" fill="white"/>
<path d="M28.8637 47.9724C28.5752 45.7323 27.557 43.9334 26.5218 43.9334C25.3848 43.9334 24.4344 45.5286 24.078 47.9724H23.9083C21.6512 47.4972 20.4293 46.8354 20.4293 46.0038C20.4293 44.7819 23.0428 43.8485 26.3521 43.8485C29.6614 43.8485 32.5464 44.7989 32.5464 46.0038C32.5464 46.8523 31.1378 47.7009 28.8977 47.9724M36.9588 49.7543C36.9588 45.919 32.3597 43 26.4539 43C20.5481 43 15.9999 45.902 15.9999 49.6695C15.9999 53.437 20.599 56.5087 26.5218 56.5087C32.4446 56.5087 36.9248 53.5218 36.9248 49.7374M27.2685 55.6601C28.4904 54.5401 29.0504 52.5715 29.0504 49.6525L29.1353 49.5507C32.1391 49.1773 34.2095 47.8706 34.2095 46.462V46.3602C35.0581 47.3106 35.4314 48.3458 35.4314 49.4828C35.4314 52.6733 31.8676 55.3886 27.2685 55.6771M18.7322 46.2753C18.6643 46.3319 18.6304 46.3941 18.6304 46.462C18.6304 47.8706 20.7008 49.0925 23.8065 49.5507L23.9083 49.6525V49.8392C23.9083 52.6733 24.5702 54.6249 25.6902 55.6601C20.8875 55.2868 17.5103 52.6733 17.5103 49.364C17.5103 48.3288 17.9007 47.1918 18.7492 46.2584M27.9473 48.1421H25.1132L24.9265 48.0403C25.215 46.462 25.7751 45.5117 26.42 45.5117C27.1836 45.5117 27.6419 46.3602 27.9304 48.0403V48.1421H27.9473ZM28.134 49.7374C28.0492 51.9945 27.3873 53.5897 26.5388 53.5897C25.5884 53.5897 24.9435 51.9945 24.8587 49.7374H24.9435C25.4187 49.7374 25.9618 49.8392 26.6236 49.8392C27.3873 49.8392 27.574 49.8392 28.134 49.7374Z" fill="black"/>
<path d="M46.9885 46.8354H43.9847V54.5571H41.8124V46.8354H38.9104V45.0705H46.9885V46.8354Z" fill="black"/>
<path d="M55.2363 49.8561C55.2363 51.7229 54.1162 53.0466 52.5209 53.0466C50.8239 53.0466 49.7208 51.8247 49.7208 49.8561C49.8056 47.9724 50.8408 46.6656 52.5209 46.6656C54.1332 46.6656 55.2363 47.9724 55.2363 49.8561ZM57.5103 49.8561C57.5103 47.022 55.2363 44.7819 52.5209 44.7819C49.8056 44.7819 47.4467 47.022 47.4467 49.941C47.4467 52.6902 49.7038 54.9304 52.4361 54.9304C55.3381 54.9304 57.5103 52.6902 57.5103 49.8561Z" fill="black"/>
<path d="M63.6028 51.0611V54.5571H61.4476V51.0611L57.697 45.0705H60.1238L62.4658 49.0077L64.9096 45.0705H67.4382L63.6028 51.0611Z" fill="black"/>
<path d="M75.1429 49.8561C75.1429 51.7229 74.1077 53.0466 72.4106 53.0466C70.7136 53.0466 69.6953 51.8247 69.6953 49.8561C69.6953 47.8875 70.8154 46.6656 72.4955 46.6656C74.1756 46.6656 75.126 47.9724 75.126 49.8561M77.4679 49.8561C77.4679 47.022 75.2278 44.7819 72.3937 44.7819C69.5596 44.7819 67.4043 47.022 67.4043 49.941C67.4043 52.6902 69.5765 54.9304 72.3937 54.9304C75.2108 54.9304 77.4679 52.6902 77.4679 49.8561Z" fill="black"/>
<path d="M86.0381 46.8354H83.0343V54.5571H80.879V46.8354H77.977V45.0705H86.0381V46.8354Z" fill="black"/>
<path d="M90.5524 47.1239L91.8761 50.7726H89.1438L90.5524 47.1239ZM89.2456 45.0535L85.3933 54.5401H87.7522L88.5159 52.4527H92.5549L93.3865 54.5401H95.7284L91.8931 45.0535H89.2456Z" fill="black"/>
<path d="M32.6482 62.4654L31.9355 64.3831H33.344L32.6482 62.4654Z" fill="black"/>
<path d="M49.8056 62.5163L49.0929 64.434H50.5184L49.8226 62.5163H49.8056Z" fill="black"/>
<path d="M69.4917 62.2618H68.2358V63.5516H69.4238C69.9499 63.5516 70.2044 63.3649 70.2044 62.8897C70.2044 62.6352 70.0856 62.2618 69.4917 62.2618Z" fill="black"/>
<path d="M95.9999 58.2228H15.9999V69.4234H95.9999V58.2228ZM23.4501 62.2788H21.0233V63.3649H23.1446V64.2134H21.0233V66.2499H20.005V61.4133H23.4501V62.2788ZM24.7738 66.216H23.7725V61.3963H24.7738V66.216ZM29.5765 66.216H28.4565L26.2842 62.7709H26.2672V66.216H25.232V61.3963H26.403L28.5074 64.7565H28.5243V61.3963H29.5595V66.216H29.5765ZM34.0398 66.216L33.6834 65.2317H31.613L31.2227 66.216H30.0008L31.9694 61.3963H33.3101L35.2617 66.216H34.0059H34.0398ZM39.9965 66.2669H38.8765L36.7042 62.8218H36.6873V66.2669H35.652V61.4302H36.823L38.9274 64.8074H38.9444V61.4302H39.9796V66.2669H39.9965ZM42.9325 65.5202C43.5434 65.5202 43.9677 65.1977 44.1035 64.6207H45.2066C44.9859 65.6729 44.2392 66.4026 42.9155 66.4026C41.5069 66.4026 40.5057 65.5371 40.5057 63.874C40.5057 62.2109 41.5748 61.3284 42.9325 61.3284C44.5108 61.3284 45.1556 62.3297 45.2066 63.0255H44.1035C44.0186 62.737 43.8489 62.1939 42.9325 62.1939C42.4064 62.1939 41.6257 62.5163 41.6257 63.874C41.6257 64.7395 41.9991 65.5202 42.9325 65.5202ZM46.6491 66.2669H45.6478V61.4302H46.6491V66.2669ZM51.1972 66.2669L50.8408 65.2826H48.7874L48.3971 66.2669H47.1752L49.1438 61.4302H50.4845L52.4361 66.2669H51.1803H51.1972ZM56.1018 66.2669H52.6907V61.4302H53.7089V65.3844H56.1018V66.2669ZM60.8366 66.3517C58.885 66.3517 58.5625 65.3335 58.5625 64.7395H59.6317C59.6317 65.011 59.7844 65.5202 60.7687 65.5202C61.2948 65.5202 61.8718 65.4014 61.8718 64.8922C61.8718 64.5189 61.4645 64.4171 60.9045 64.2983L60.3444 64.1625C59.4789 63.9758 58.6474 63.8061 58.6474 62.737C58.6474 62.1939 58.9698 61.2435 60.7008 61.2435C62.33 61.2435 62.7713 62.2109 62.7713 62.8049H61.7021C61.6682 62.6012 61.5833 62.0751 60.616 62.0751C60.1917 62.0751 59.6826 62.2109 59.6826 62.6521C59.6826 63.0255 60.022 63.1103 60.2426 63.1612L61.5324 63.4497C62.2621 63.6194 62.941 63.874 62.941 64.7565C62.941 66.199 61.3118 66.3348 60.8536 66.3348M66.8782 66.2499H63.2125V61.4133H66.7764V62.2788H64.2138V63.297H66.5727V64.1455H64.2138V65.4014H66.8782V66.2499ZM70.1705 66.2499L69.288 64.3492H68.2358V66.2499H67.2515V61.4133H69.6953C70.9851 61.4133 71.3754 62.2957 71.3754 62.9406C71.3754 63.9589 71.036 64.1286 70.476 64.3492C70.476 64.3492 71.3754 66.216 71.4603 66.2329H70.1875L70.1705 66.2499ZM74.7865 66.2499H73.1404L71.2227 61.4133H72.6143L73.955 65.0789L75.2957 61.4133H76.6363L74.7526 66.2499H74.7865ZM78.0449 66.199H77.0267V61.3793H78.0449V66.199ZM80.9299 65.4523C81.5409 65.4523 81.9652 65.1468 82.1009 64.5528H83.204C82.9834 65.605 82.2367 66.3348 80.913 66.3348C79.5044 66.3348 78.5031 65.4693 78.5031 63.7892C78.5031 62.1091 79.5723 61.2435 80.9299 61.2435C82.5082 61.2435 83.1531 62.2448 83.204 62.9406H82.1009C82.0161 62.6521 81.8464 62.1091 80.9299 62.1091C80.4038 62.1091 79.6232 62.4315 79.6232 63.7892C79.6232 64.6547 79.9965 65.4353 80.9299 65.4353M87.4128 66.2329H83.7471V61.3963H87.294V62.2618H84.7314V63.28H87.0903V64.1286H84.7314V65.3844H87.4128V66.2329ZM89.9074 66.3687C87.9558 66.3687 87.6334 65.3505 87.6334 64.7565H88.7025C88.7025 65.028 88.8553 65.5371 89.8226 65.5371C90.3487 65.5371 90.9427 65.4183 90.9427 64.9092C90.9427 64.5359 90.5354 64.434 89.9753 64.3152L89.4153 64.1964C88.5498 64.0098 87.7352 63.8401 87.7352 62.7879C87.7352 62.2448 88.0576 61.2945 89.7887 61.2945C91.4178 61.2945 91.8591 62.2618 91.8591 62.8558H90.7899C90.756 62.6351 90.6711 62.126 89.7038 62.126C89.2795 62.126 88.7704 62.2788 88.7704 62.703C88.7704 63.0764 89.1098 63.1612 89.3304 63.2122L90.6202 63.5007C91.35 63.6704 92.0288 63.9249 92.0288 64.8074C92.0288 66.2499 90.3996 66.3857 89.9414 66.3857" fill="black"/>
</g>
<rect x="1" y="1" width="110" height="110" rx="9" stroke="black" stroke-opacity="0.1" stroke-width="2"/>
<defs>
<clipPath id="clip0_736_541">
<rect x="2" y="2" width="108" height="108" rx="8" fill="white"/>
</clipPath>
</defs>
</svg>
