<svg width="112" height="112" viewBox="0 0 112 112" fill="none" xmlns="http://www.w3.org/2000/svg">
<g clip-path="url(#clip0_505_166)">
<rect x="1.9999" y="2" width="108" height="108" rx="8" fill="white"/>
<path d="M30.4204 81.6169H25.4259L20.9397 74.9318L20.1331 76.0589V81.6169H16.0005V65.1639H20.1331V72.4678L25.3928 65.1639H30.1773L24.3099 72.7992L30.4204 81.6169Z" fill="#0060AF"/>
<path d="M34.9323 81.6169H31.0649V64.4236H34.9323V81.6169Z" fill="#0060AF"/>
<path d="M41.2896 81.6169H37.4222V69.2081H41.2896V81.6169ZM41.4001 67.4401H37.3117V64.4236H41.4001V67.4401Z" fill="#0060AF"/>
<path d="M56.1994 81.6169H51.6027L48.2436 76.2136L47.6469 77.0202V81.6169H43.7795V64.4236H47.6469V74.0589L51.3154 69.2081H55.8789L51.5364 74.5561L56.1994 81.6169Z" fill="#0060AF"/>
<path d="M69.8274 70.3573C69.8274 71.1234 69.7058 71.8527 69.4627 72.5451C69.2196 73.2375 68.8697 73.8158 68.413 74.2799C68.1331 74.5672 67.8237 74.8324 67.4848 75.0755C67.1533 75.3186 66.785 75.5248 66.3799 75.6943C65.9747 75.8637 65.5327 75.9963 65.0539 76.0921C64.5824 76.1878 64.0521 76.2357 63.4627 76.2357H61.297V81.6169H57.1644V65.1639H63.5511C64.5014 65.1639 65.3191 65.2523 66.0042 65.4291C66.6966 65.5985 67.3228 65.8711 67.8826 66.2468C68.5014 66.6593 68.9802 67.2118 69.3191 67.9042C69.6579 68.5893 69.8274 69.407 69.8274 70.3573ZM65.5843 70.4567C65.5843 69.9926 65.4738 69.5948 65.2528 69.2633C65.0318 68.9245 64.7666 68.6924 64.4572 68.5672C64.0668 68.3978 63.6911 68.302 63.3301 68.2799C62.9765 68.2504 62.494 68.2357 61.8826 68.2357H61.297V73.1639H61.5843C61.9747 73.1639 62.343 73.1602 62.6893 73.1528C63.0355 73.1455 63.3375 73.1197 63.5953 73.0755C63.8163 73.0387 64.0484 72.9687 64.2915 72.8655C64.5419 72.755 64.7335 72.6335 64.8661 72.5009C65.146 72.2283 65.3338 71.9447 65.4296 71.6501C65.5327 71.3554 65.5843 70.9576 65.5843 70.4567Z" fill="#0060AF"/>
<path d="M78.1846 78.3794V75.7937C77.529 75.86 76.9986 75.9189 76.5935 75.9705C76.1883 76.0147 75.7905 76.1068 75.4001 76.2468C75.0613 76.3646 74.7961 76.5451 74.6045 76.7882C74.4204 77.0239 74.3283 77.3407 74.3283 77.7385C74.3283 78.3204 74.483 78.7219 74.7924 78.9429C75.1091 79.1565 75.5732 79.2633 76.1847 79.2633C76.5235 79.2633 76.8697 79.186 77.2233 79.0313C77.5769 78.8766 77.8974 78.6593 78.1846 78.3794ZM78.1846 80.302C77.9195 80.523 77.68 80.7219 77.4664 80.8987C77.2602 81.0755 76.9802 81.2523 76.6266 81.4291C76.2804 81.5985 75.9416 81.7274 75.6101 81.8158C75.2859 81.9042 74.8292 81.9484 74.2399 81.9484C73.1423 81.9484 72.2288 81.5801 71.4996 80.8434C70.7776 80.1068 70.4167 79.1786 70.4167 78.0589C70.4167 77.1381 70.6009 76.3941 70.9692 75.8269C71.3375 75.2596 71.8679 74.8103 72.5603 74.4788C73.2602 74.1399 74.0963 73.9042 75.0686 73.7716C76.041 73.639 77.087 73.5359 78.2067 73.4622V73.3959C78.2067 72.7108 77.9526 72.2394 77.4443 71.9816C76.9434 71.7164 76.1883 71.5838 75.1791 71.5838C74.7224 71.5838 74.1883 71.6685 73.5769 71.8379C72.9655 72 72.3688 72.2099 71.7869 72.4678H71.4554V69.4733C71.8384 69.3628 72.4572 69.2339 73.3117 69.0865C74.1662 68.9318 75.0281 68.8545 75.8974 68.8545C78.0336 68.8545 79.588 69.2118 80.5603 69.9263C81.5401 70.6335 82.03 71.7164 82.03 73.1749V81.6169H78.1846V80.302Z" fill="#0060AF"/>
<path d="M96.0005 69.2081L89.7353 86.1694H85.5806L87.4591 81.3186L82.9066 69.2081H86.9729L89.5806 76.9871L92.0226 69.2081H96.0005Z" fill="#0060AF"/>
<path d="M72.3017 28.161L67.9571 36.0466C66.3173 34.715 64.3148 33.7349 61.76 33.7349C55.714 33.7349 53.2582 38.2417 53.2582 41.4163C53.2582 43.7727 54.8012 47.2496 60.1808 47.2496C62.4388 47.2496 65.649 45.6787 66.5729 44.964L62.2759 54.1125C60.2278 54.5212 59.555 54.7745 57.8212 54.8282C48.1926 55.1155 44.3017 49.2006 44.3045 43.1565C44.3109 35.1665 51.4148 25.4493 63.1912 25.4493C63.9129 25.4493 64.7955 25.6988 65.5502 25.9754L66.3128 25" fill="#0060AF"/>
<path d="M90.2283 25.2474L91.4585 53.9081H82.3027L82.2973 48.9927H76.0541L73.9993 53.9081H64.0697L74.4507 33.4419L72.1099 33.4266L76.5576 25.2474H90.2283ZM82.2379 34.0153L78.708 42.3517H82.3443" fill="#0060AF"/>
<path d="M38.5243 25.2474C43.0584 25.2728 45.6206 27.734 45.6206 31.2893C45.6206 34.5668 42.9184 37.4681 39.9521 38.9682C43.0061 40.0909 43.2702 42.8467 43.2702 44.7964C43.2702 49.5067 38.5437 53.9081 32.3999 53.9081H19.001L24.2276 33.727L22.0807 33.7147L26.4694 25.2474C26.4694 25.2474 34.8373 25.222 38.5243 25.2474ZM34.0759 36.8677C35.0138 36.8677 36.6698 36.6302 37.0839 34.8151C37.5376 32.8447 35.9834 32.7917 35.238 32.7917L32.5742 32.78L31.6452 36.8678L34.0759 36.8677ZM30.3098 41.9323L29.0834 46.6426H32.2199C33.454 46.6426 35.1357 46.0302 35.5478 44.4974C35.9549 42.9601 34.7792 41.9323 33.5495 41.9323" fill="#0060AF"/>
</g>
<rect x="1" y="1" width="110" height="110" rx="9" stroke="black" stroke-opacity="0.1" stroke-width="2"/>
<defs>
<clipPath id="clip0_505_166">
<rect x="2" y="2" width="108" height="108" rx="8" fill="white"/>
</clipPath>
</defs>
</svg>
