<svg width="112" height="112" viewBox="0 0 112 112" fill="none" xmlns="http://www.w3.org/2000/svg">
<g clip-path="url(#clip0_505_171)">
<rect x="1.99991" y="2" width="108" height="108" rx="8" fill="white"/>
<rect width="80" height="30.2835" transform="translate(16.4585 41.2775)" fill="#1B5196"/>
<path d="M34.36 55.4472C34.4791 55.3281 34.6198 55.1747 34.7822 54.9869C34.9441 54.7992 35.0975 54.5775 35.2424 54.3216C35.3874 54.0656 35.5111 53.7803 35.6133 53.4646C35.7158 53.1493 35.7671 52.8124 35.7671 52.4542C35.7671 51.7554 35.6476 51.1031 35.409 50.4975C35.17 49.8923 34.8034 49.3634 34.3088 48.9111C33.8142 48.4598 33.1963 48.1055 32.4542 47.8495C31.7125 47.5939 30.8466 47.4659 29.8579 47.4659H29.8307H26.9878H26.2478H23.3345V50.7268V62.0155V65.3725H30.4974C31.5374 65.3725 32.4453 65.2318 33.2217 64.9504C33.9973 64.669 34.6415 64.2812 35.153 63.7866C35.6645 63.292 36.0439 62.7165 36.2914 62.06C36.5384 61.4035 36.6622 60.7 36.6622 59.9494C36.6622 58.9432 36.4321 58.0481 35.9718 57.2632C35.5111 56.4792 34.9737 55.8736 34.36 55.4472ZM31.1929 50.7471C31.434 50.8391 31.6353 50.9586 31.7926 51.109C32.1999 51.4998 32.4037 51.9668 32.4037 52.5102C32.4037 53.0031 32.3185 53.4104 32.149 53.7329C31.9791 54.0558 31.8091 54.3021 31.6396 54.4716H26.6602V50.5356H29.7553C30.3355 50.5356 30.8131 50.6072 31.1929 50.7471ZM30.6763 57.5705C31.5777 57.5705 32.2456 57.804 32.6805 58.2702C33.0895 58.7292 33.2954 59.2709 33.2954 59.8977C33.2954 60.5436 33.0619 61.0949 32.5949 61.5535C32.1274 62.0121 31.3594 62.2418 30.2893 62.2418H29.8897H26.6602V57.5705H30.6763Z" fill="white"/>
<path d="M48.8063 57.6599C49.3433 57.2933 49.7913 56.867 50.1494 56.3809C50.5075 55.8948 50.7715 55.3578 50.9423 54.7695C51.1127 54.1808 51.1983 53.5799 51.1983 52.9658C51.1983 52.1643 51.0657 51.4269 50.8016 50.753C50.5368 50.0796 50.1405 49.4998 49.612 49.0137C49.0831 48.5276 48.4223 48.1483 47.6294 47.8753C46.8364 47.6028 45.9197 47.4659 44.8797 47.4659H44.786H37.8961H37.8317V65.3725H41.2218V58.7216H43.112L47.7871 65.3725H51.7607L46.9263 58.4915C47.6421 58.3041 48.2689 58.027 48.8063 57.6599ZM44.9051 50.5356C45.1183 50.5356 45.3196 50.5496 45.5112 50.5738C46.1155 50.6649 46.6093 50.8806 46.9899 51.2235C47.5078 51.6909 47.7667 52.2639 47.7667 52.9429C47.7667 53.2832 47.7112 53.6142 47.601 53.9367C47.4904 54.2597 47.3166 54.5441 47.0789 54.7899C46.8407 55.0365 46.5351 55.2357 46.1617 55.3887C45.7879 55.5417 45.3378 55.618 44.8115 55.618H41.2218V50.5356H44.9051Z" fill="white"/>
<path d="M52.9579 47.4659V47.471C52.9236 47.4702 52.8901 47.4659 52.8558 47.4659H52.827V47.4672V54.0308V58.7339V65.3725H56.2836V47.4659H52.9579Z" fill="white"/>
<path d="M65.4908 55.7591H63.7754V54.8901C63.5647 55.176 63.3089 55.413 63.008 55.6011C62.7146 55.7816 62.3422 55.8719 61.8907 55.8719C61.5371 55.8719 61.1948 55.8042 60.8638 55.6688C60.5327 55.5334 60.2393 55.334 59.9835 55.0707C59.7277 54.7998 59.5208 54.4725 59.3628 54.0888C59.2124 53.6976 59.1371 53.25 59.1371 52.7459V52.7233C59.1371 52.2192 59.2124 51.7753 59.3628 51.3916C59.5208 51.0004 59.724 50.6731 59.9722 50.4098C60.228 50.139 60.5215 49.9358 60.8525 49.8004C61.1835 49.665 61.5296 49.5973 61.8907 49.5973C62.3497 49.5973 62.7259 49.6875 63.0193 49.8681C63.3202 50.0487 63.5723 50.2593 63.7754 50.5001V47.5208H65.4908V55.7591ZM63.798 52.7459V52.7233C63.798 52.475 63.7566 52.2493 63.6738 52.0462C63.5986 51.8355 63.4933 51.6587 63.3578 51.5158C63.2299 51.3653 63.0757 51.2524 62.8951 51.1772C62.7221 51.0945 62.534 51.0531 62.3309 51.0531C62.1277 51.0531 61.9359 51.0945 61.7553 51.1772C61.5823 51.2524 61.428 51.3653 61.2926 51.5158C61.1572 51.6587 61.0481 51.8318 60.9653 52.0349C60.8901 52.238 60.8525 52.4675 60.8525 52.7233V52.7459C60.8525 52.9942 60.8901 53.2236 60.9653 53.4343C61.0481 53.6374 61.1572 53.8142 61.2926 53.9647C61.428 54.1076 61.5823 54.2205 61.7553 54.3033C61.9359 54.3785 62.1277 54.4161 62.3309 54.4161C62.534 54.4161 62.7221 54.3785 62.8951 54.3033C63.0757 54.2205 63.2299 54.1076 63.3578 53.9647C63.4933 53.8142 63.5986 53.6374 63.6738 53.4343C63.7566 53.2236 63.798 52.9942 63.798 52.7459Z" fill="#E47539"/>
<path d="M68.3927 49.0443H66.587V47.5208H68.3927V49.0443ZM68.3475 55.7591H66.6322V49.7101H68.3475V55.7591Z" fill="#E47539"/>
<path d="M73.1336 51.3916H73.0433C72.4715 51.3916 72.0201 51.5647 71.689 51.9108C71.3655 52.2568 71.2038 52.7948 71.2038 53.5246V55.7591H69.4884V49.7101H71.2038V50.9289C71.3768 50.5151 71.6138 50.1841 71.9147 49.9358C72.2157 49.6875 72.622 49.5747 73.1336 49.5973V51.3916Z" fill="#E47539"/>
<path d="M79.3778 52.9039C79.3778 52.9866 79.374 53.0581 79.3665 53.1183C79.3665 53.1785 79.3627 53.25 79.3552 53.3327H75.1458C75.2285 53.7239 75.3978 54.0211 75.6536 54.2243C75.9169 54.4199 76.2404 54.5177 76.6242 54.5177C76.91 54.5177 77.1658 54.4688 77.3916 54.371C77.6173 54.2732 77.8505 54.1152 78.0913 53.897L79.0731 54.766C78.7872 55.1196 78.4411 55.3979 78.0348 55.6011C77.6285 55.7967 77.1508 55.8945 76.6016 55.8945C76.1502 55.8945 75.7288 55.8193 75.3376 55.6688C74.9539 55.5183 74.6191 55.3039 74.3332 55.0255C74.0549 54.7471 73.8367 54.4199 73.6787 54.0437C73.5207 53.66 73.4417 53.2349 73.4417 52.7684V52.7459C73.4417 52.317 73.5132 51.9108 73.6561 51.5271C73.8066 51.1434 74.0135 50.8086 74.2768 50.5227C74.5401 50.2368 74.8523 50.0111 75.2135 49.8455C75.5821 49.68 75.9884 49.5973 76.4323 49.5973C76.9364 49.5973 77.3727 49.6875 77.7414 49.8681C78.1101 50.0487 78.4148 50.2932 78.6555 50.6017C78.9038 50.9026 79.0844 51.2524 79.1972 51.6512C79.3176 52.0424 79.3778 52.4525 79.3778 52.8813V52.9039ZM77.7075 52.2606C77.6549 51.8769 77.5195 51.5684 77.3013 51.3352C77.0831 51.0945 76.7934 50.9741 76.4323 50.9741C76.0712 50.9741 75.7778 51.0907 75.552 51.3239C75.3339 51.5572 75.1909 51.8694 75.1232 52.2606H77.7075Z" fill="#E47539"/>
<path d="M85.5127 54.7885C85.2193 55.112 84.8845 55.3791 84.5083 55.5898C84.1321 55.7929 83.6431 55.8945 83.0412 55.8945C82.5898 55.8945 82.1684 55.8117 81.7772 55.6462C81.3935 55.4807 81.0625 55.2588 80.7841 54.9804C80.5057 54.6945 80.2875 54.3634 80.1296 53.9873C79.9716 53.6036 79.8926 53.1973 79.8926 52.7684V52.7459C79.8926 52.317 79.9716 51.9108 80.1296 51.5271C80.2875 51.1434 80.5057 50.8086 80.7841 50.5227C81.0625 50.2368 81.3935 50.0111 81.7772 49.8455C82.1684 49.68 82.5973 49.5973 83.0637 49.5973C83.6355 49.5973 84.1095 49.6875 84.4857 49.8681C84.8619 50.0487 85.1929 50.297 85.4788 50.6129L84.4293 51.7415C84.2337 51.5383 84.0305 51.3766 83.8199 51.2562C83.6167 51.1358 83.3609 51.0756 83.0525 51.0756C82.8343 51.0756 82.6349 51.1208 82.4543 51.2111C82.2813 51.2938 82.1271 51.4104 81.9916 51.5609C81.8637 51.7114 81.7622 51.8882 81.6869 52.0913C81.6192 52.2869 81.5854 52.4976 81.5854 52.7233V52.7459C81.5854 52.9791 81.6192 53.1973 81.6869 53.4004C81.7622 53.6036 81.8675 53.7804 82.0029 53.9308C82.1383 54.0813 82.3001 54.2017 82.4882 54.292C82.6763 54.3747 82.8869 54.4161 83.1202 54.4161C83.4061 54.4161 83.6544 54.3597 83.865 54.2468C84.0832 54.1265 84.2976 53.9685 84.5083 53.7728L85.5127 54.7885Z" fill="#E47539"/>
<path d="M89.5599 55.5108C89.3793 55.6161 89.1799 55.6989 88.9617 55.7591C88.7436 55.8268 88.4915 55.8606 88.2056 55.8606C87.9423 55.8606 87.7015 55.8305 87.4834 55.7704C87.2727 55.7177 87.0884 55.6199 86.9304 55.4769C86.7799 55.334 86.6595 55.1497 86.5692 54.924C86.4865 54.6907 86.4451 54.3973 86.4451 54.0437V51.1772H85.7228V49.7101H86.4451V48.164H88.1605V49.7101H89.5824V51.1772H88.1605V53.7616C88.1605 54.1528 88.3448 54.3484 88.7135 54.3484C89.0144 54.3484 89.2965 54.2769 89.5599 54.134V55.5108Z" fill="#E47539"/>
<path d="M65.4908 65.1823H63.7754V64.3133C63.5647 64.5992 63.3089 64.8362 63.008 65.0243C62.7146 65.2048 62.3422 65.2951 61.8907 65.2951C61.5371 65.2951 61.1948 65.2274 60.8638 65.092C60.5327 64.9566 60.2393 64.7572 59.9835 64.4939C59.7277 64.223 59.5208 63.8957 59.3628 63.512C59.2124 63.1208 59.1371 62.6731 59.1371 62.1691V62.1465C59.1371 61.6424 59.2124 61.1985 59.3628 60.8148C59.5208 60.4236 59.724 60.0963 59.9722 59.833C60.228 59.5621 60.5215 59.359 60.8525 59.2236C61.1835 59.0882 61.5296 59.0205 61.8907 59.0205C62.3497 59.0205 62.7259 59.1107 63.0193 59.2913C63.3202 59.4719 63.5723 59.6825 63.7754 59.9233V56.9439H65.4908V65.1823ZM63.798 62.1691V62.1465C63.798 61.8982 63.7566 61.6725 63.6738 61.4694C63.5986 61.2587 63.4933 61.0819 63.3578 60.939C63.2299 60.7885 63.0757 60.6756 62.8951 60.6004C62.7221 60.5176 62.534 60.4763 62.3309 60.4763C62.1277 60.4763 61.9359 60.5176 61.7553 60.6004C61.5823 60.6756 61.428 60.7885 61.2926 60.939C61.1572 61.0819 61.0481 61.255 60.9653 61.4581C60.8901 61.6612 60.8525 61.8907 60.8525 62.1465V62.1691C60.8525 62.4173 60.8901 62.6468 60.9653 62.8575C61.0481 63.0606 61.1572 63.2374 61.2926 63.3879C61.428 63.5308 61.5823 63.6437 61.7553 63.7264C61.9359 63.8017 62.1277 63.8393 62.3309 63.8393C62.534 63.8393 62.7221 63.8017 62.8951 63.7264C63.0757 63.6437 63.2299 63.5308 63.3578 63.3879C63.4933 63.2374 63.5986 63.0606 63.6738 62.8575C63.7566 62.6468 63.798 62.4173 63.798 62.1691Z" fill="#E47539"/>
<path d="M72.96 62.3271C72.96 62.4098 72.9562 62.4813 72.9487 62.5415C72.9487 62.6017 72.9449 62.6731 72.9374 62.7559H68.7279C68.8107 63.1471 68.98 63.4443 69.2358 63.6475C69.4991 63.8431 69.8226 63.9409 70.2063 63.9409C70.4922 63.9409 70.748 63.892 70.9737 63.7942C71.1994 63.6964 71.4327 63.5384 71.6734 63.3202L72.6553 64.1891C72.3694 64.5428 72.0233 64.8211 71.617 65.0243C71.2107 65.2199 70.733 65.3177 70.1838 65.3177C69.7323 65.3177 69.311 65.2425 68.9198 65.092C68.5361 64.9415 68.2013 64.7271 67.9154 64.4487C67.637 64.1703 67.4188 63.8431 67.2608 63.4669C67.1029 63.0832 67.0239 62.6581 67.0239 62.1916V62.1691C67.0239 61.7402 67.0953 61.334 67.2383 60.9502C67.3888 60.5665 67.5956 60.2317 67.859 59.9459C68.1223 59.66 68.4345 59.4342 68.7957 59.2687C69.1643 59.1032 69.5706 59.0205 70.0145 59.0205C70.5186 59.0205 70.9549 59.1107 71.3236 59.2913C71.6922 59.4719 71.9969 59.7164 72.2377 60.0248C72.486 60.3258 72.6665 60.6756 72.7794 61.0744C72.8998 61.4656 72.96 61.8757 72.96 62.3045V62.3271ZM71.2897 61.6838C71.2371 61.3001 71.1016 60.9916 70.8835 60.7584C70.6653 60.5176 70.3756 60.3973 70.0145 60.3973C69.6533 60.3973 69.3599 60.5139 69.1342 60.7471C68.916 60.9803 68.7731 61.2926 68.7054 61.6838H71.2897Z" fill="#E47539"/>
<path d="M80.8859 62.1691C80.8859 62.6731 80.8069 63.1208 80.6489 63.512C80.4985 63.8957 80.2953 64.223 80.0395 64.4939C79.7913 64.7572 79.5016 64.9566 79.1706 65.092C78.8395 65.2274 78.4934 65.2951 78.1323 65.2951C77.6734 65.2951 77.2934 65.2048 76.9925 65.0243C76.6991 64.8437 76.4508 64.633 76.2477 64.3923V65.1823H74.5323V56.9439H76.2477V60.0023C76.4583 59.7164 76.7104 59.4832 77.0038 59.3026C77.3047 59.1145 77.6809 59.0205 78.1323 59.0205C78.4859 59.0205 78.8282 59.0882 79.1593 59.2236C79.4903 59.359 79.7837 59.5621 80.0395 59.833C80.2953 60.0963 80.4985 60.4236 80.6489 60.8148C80.8069 61.1985 80.8859 61.6424 80.8859 62.1465V62.1691ZM79.1706 62.1691V62.1465C79.1706 61.8982 79.1292 61.6725 79.0464 61.4694C78.9712 61.2587 78.8659 61.0819 78.7304 60.939C78.595 60.7885 78.437 60.6756 78.2564 60.6004C78.0834 60.5176 77.8953 60.4763 77.6922 60.4763C77.489 60.4763 77.2972 60.5176 77.1166 60.6004C76.9436 60.6756 76.7893 60.7885 76.6539 60.939C76.526 61.0819 76.4207 61.2587 76.3379 61.4694C76.2627 61.6725 76.2251 61.8982 76.2251 62.1465V62.1691C76.2251 62.4173 76.2627 62.6468 76.3379 62.8575C76.4207 63.0606 76.526 63.2374 76.6539 63.3879C76.7893 63.5308 76.9436 63.6437 77.1166 63.7264C77.2972 63.8017 77.489 63.8393 77.6922 63.8393C77.8953 63.8393 78.0834 63.8017 78.2564 63.7264C78.437 63.6437 78.595 63.5308 78.7304 63.3879C78.8659 63.2374 78.9712 63.0606 79.0464 62.8575C79.1292 62.6543 79.1706 62.4249 79.1706 62.1691Z" fill="#E47539"/>
<path d="M84.2811 58.4675H82.4754V56.9439H84.2811V58.4675ZM84.236 65.1823H82.5206V59.1333H84.236V65.1823Z" fill="#E47539"/>
<path d="M89.5378 64.934C89.3573 65.0393 89.1579 65.1221 88.9397 65.1823C88.7215 65.25 88.4695 65.2838 88.1836 65.2838C87.9203 65.2838 87.6795 65.2537 87.4613 65.1935C87.2507 65.1409 87.0663 65.0431 86.9083 64.9001C86.7579 64.7572 86.6375 64.5729 86.5472 64.3471C86.4644 64.1139 86.4231 63.8205 86.4231 63.4669V60.6004H85.7008V59.1333H86.4231V57.5872H88.1384V59.1333H89.5604V60.6004H88.1384V63.1848C88.1384 63.576 88.3228 63.7716 88.6914 63.7716C88.9924 63.7716 89.2745 63.7001 89.5378 63.5572V64.934Z" fill="#E47539"/>
</g>
<rect x="1" y="1" width="110" height="110" rx="9" stroke="black" stroke-opacity="0.1" stroke-width="2"/>
<defs>
<clipPath id="clip0_505_171">
<rect x="2" y="2" width="108" height="108" rx="8" fill="white"/>
</clipPath>
</defs>
</svg>
