<svg width="112" height="112" viewBox="0 0 112 112" fill="none" xmlns="http://www.w3.org/2000/svg">
<g clip-path="url(#clip0_505_165)">
<rect x="1.99988" y="2" width="108" height="108" rx="8" fill="white"/>
<g clip-path="url(#clip1_505_165)">
<mask id="mask0_505_165" style="mask-type:luminance" maskUnits="userSpaceOnUse" x="16" y="45" width="81" height="21">
<path d="M96.1099 45.4835H16.1099V65.7965H96.1099V45.4835Z" fill="white"/>
</mask>
<g mask="url(#mask0_505_165)">
<path d="M20.1729 65.7965H92.0459C94.2803 65.7965 96.1089 63.9679 96.1089 61.7335V49.5465C96.1099 47.3121 94.2812 45.4835 92.0459 45.4835H20.1729C17.9385 45.4835 16.1099 47.3121 16.1099 49.5465V61.7326C16.1099 63.9679 17.9385 65.7965 20.1729 65.7965Z" fill="#00A4DE"/>
</g>
<mask id="mask1_505_165" style="mask-type:luminance" maskUnits="userSpaceOnUse" x="16" y="45" width="81" height="21">
<path d="M96.1099 45.4835H16.1099V65.7965H96.1099V45.4835Z" fill="white"/>
</mask>
<g mask="url(#mask1_505_165)">
<path d="M27.9329 60.695C29.2588 59.8971 30.0867 58.5324 30.0867 57.0513C30.0867 53.7454 26.8817 52.5632 26.8817 52.5632C26.2926 52.2137 25.5646 52.0274 24.761 52.0274C24.7017 52.0274 24.594 52.0293 24.5348 52.0293C25.3521 51.412 26.4158 51.0305 27.4903 51.0305C29.9964 51.0305 31.8911 53.4241 31.8911 55.6623C31.8911 58.2684 30.0595 60.2912 27.9339 60.6959M26.3217 60.6862C24.693 60.365 23.3555 59.1226 22.7799 57.654C23.3516 58.218 24.164 58.6033 25.2016 58.6033C26.8575 58.6033 28.4328 57.325 28.4328 55.4333C28.4328 54.5015 28.1047 53.8929 28.1047 53.8929C28.7968 54.5995 29.2345 55.5895 29.2345 56.796C29.2345 58.4936 27.9717 60.0757 26.3217 60.6872M24.8658 60.9551C22.9216 60.9551 20.8668 59.0624 20.8668 56.7077C20.8668 55.5546 21.226 54.4073 22.1345 53.6347C21.9733 53.9744 21.8617 54.3792 21.8171 54.8664C21.7948 55.044 21.7821 55.2255 21.7821 55.4158C21.7821 57.9607 23.1691 60.0689 25.3414 60.925C25.1841 60.9444 25.025 60.9551 24.8648 60.9551M25.0531 52.7194C26.4653 52.7194 27.5592 54.1161 27.5592 55.3653C27.5592 57.0532 26.5352 58.182 25.1036 58.182C23.8204 58.182 22.6751 56.9872 22.6751 55.2867C22.6751 53.8822 23.7117 52.7194 25.0531 52.7194ZM27.0681 50.488C25.7481 50.488 23.8728 51.0606 22.7663 52.4544C21.0153 53.2241 19.7351 54.9431 19.7351 56.8232C19.7351 59.7389 22.2034 61.4821 25.1783 61.4821C25.6685 61.4821 26.1363 61.3725 26.5702 61.2589C26.8905 61.3113 27.2244 61.3375 27.568 61.3375C30.376 61.3375 32.8491 59.0478 32.8491 56.0554C32.8491 53.063 30.4099 50.488 27.0681 50.488Z" fill="white"/>
<path d="M37.4867 59.0362C37.4867 59.9748 36.8947 60.5037 35.6299 60.5435V61.9733C37.0635 61.9733 38.8796 61.1909 38.8796 59.0362V52.0351H37.4867V59.0362Z" fill="white"/>
<path d="M41.4895 54.9159C41.5826 54.0462 41.9505 53.2765 42.8707 53.2765C43.7908 53.2765 44.1606 54.0462 44.2547 54.9159H41.4895ZM45.7136 55.0489C45.7136 53.9385 45.1079 51.9012 42.8707 51.9012C40.7528 51.9012 40.0297 53.6891 40.0297 55.5381C40.0297 57.3871 40.7683 59.1769 43.2007 59.1769C43.8587 59.1769 44.6993 59.0177 45.6612 58.3296L44.9516 57.2192C44.345 57.6035 43.7646 57.8006 43.2007 57.8006C42.1213 57.8006 41.6215 57.06 41.5031 56.2932H44.4372C45.305 56.2932 45.7136 55.9486 45.7136 55.0479" fill="white"/>
<path d="M49.5048 51.9022C47.7665 51.9022 46.8764 53.3455 46.8764 53.3455V59.0993H48.2683V53.8084C48.2683 53.8084 48.7031 53.2775 49.5039 53.2775C50.3852 53.2775 50.8724 54.0065 50.8724 54.6539V59.0993H52.2691V54.6539C52.2691 53.3173 51.3335 51.9022 49.5039 51.9022" fill="white"/>
<path d="M87.8499 59.0993C89.5883 59.0993 90.4784 57.6569 90.4784 57.6569V51.9031H89.0865V57.194C89.0865 57.194 88.6517 57.7249 87.8509 57.7249C86.9696 57.7249 86.4823 56.996 86.4823 56.3486V51.9031H85.0856V56.3486C85.0856 57.6851 86.0213 59.1002 87.8509 59.1002" fill="white"/>
<path d="M55.2111 51.9818H53.8163V59.0983H55.2111V51.9818Z" fill="white"/>
<path d="M65.7578 54.7868H65.7704C65.2948 54.6548 64.6794 54.418 64.6794 53.9288C64.6794 53.5707 65.0473 53.2775 65.7442 53.2775C66.4411 53.2775 67.2312 53.5959 67.534 53.7415L67.9834 52.4845C67.5204 52.2467 66.5857 51.9031 65.7442 51.9031C64.5348 51.9031 63.271 52.5234 63.271 53.9288C63.271 55.2236 64.4038 55.872 65.5209 56.1505C66.1276 56.2816 66.8895 56.5339 66.8895 57.0357C66.8895 57.5657 66.2732 57.8035 65.6656 57.8035C65.0579 57.8035 64.2591 57.4191 63.6399 57.0882L63.1002 58.3985C63.6913 58.7042 64.562 59.1517 65.6656 59.1789C66.9419 59.1789 68.2843 58.5703 68.2843 57.0367C68.2843 55.5031 66.8109 55.0508 65.7578 54.7878" fill="white"/>
<path d="M60.795 56.4262C60.795 57.0726 60.3107 57.7967 59.4333 57.8025C58.5616 57.7967 58.0744 57.0726 58.0744 56.4262V51.9818H56.6796V56.4262C56.6796 57.7589 57.6095 59.1682 59.4265 59.1779H59.443C61.2609 59.1682 62.1869 57.7589 62.1869 56.4262V51.9818H60.7941V56.4262H60.795Z" fill="white"/>
<path d="M77.7284 55.3702C77.7284 57.3997 76.7374 58.7926 74.8894 58.7926H73.1859V61.2385C73.1859 61.356 73.1131 61.4336 73.0044 61.4336H71.9649C71.8562 61.4336 71.7834 61.356 71.7834 61.2385C71.7834 61.2385 71.8077 51.8051 71.8562 51.7653H74.9253C76.5928 51.7653 77.7284 53.0533 77.7284 55.3692M76.3268 55.343C76.3268 53.4823 75.3242 53.1436 74.4904 53.1436H73.185V57.4114H74.4904C75.3242 57.4114 76.3268 57.1901 76.3268 55.342" fill="white"/>
<path d="M83.8908 54.2122V58.0772C83.8908 58.1558 83.8423 58.2073 83.7462 58.2597C83.0454 58.546 82.1155 58.7935 81.1362 58.7935C79.0212 58.7935 78.4903 57.7783 78.4903 56.6727C78.4903 55.7099 79.0222 54.6034 81.1362 54.6034C81.571 54.6034 82.0427 54.6684 82.4892 54.7461V54.2122C82.4892 53.6658 82.0418 53.1455 81.0517 53.1455C80.4597 53.1455 79.7705 53.328 79.2513 53.5357C79.1309 53.5881 79.0581 53.5357 79.0212 53.4183L78.7795 52.5593C78.7436 52.4418 78.7795 52.3516 78.8882 52.3118C79.5774 51.9992 80.2656 51.7653 81.0391 51.7653C82.0418 51.7653 83.8908 52.039 83.8908 54.2113M82.4892 55.9807C81.9088 55.8633 81.6069 55.8506 81.1362 55.838C80.6654 55.8254 79.9161 55.838 79.9161 56.7232C79.9161 57.6084 80.6412 57.5948 81.1362 57.556C81.6312 57.5298 81.8612 57.5036 82.4892 57.3221V55.9817V55.9807Z" fill="white"/>
<path d="M89.0853 59.0362C89.0853 59.9748 88.4932 60.5037 87.2285 60.5435V61.9733C88.6621 61.9733 90.4781 61.1909 90.4781 59.0362V52.0351H89.0853V59.0362Z" fill="white"/>
</g>
</g>
</g>
<rect x="1" y="1" width="110" height="110" rx="9" stroke="black" stroke-opacity="0.1" stroke-width="2"/>
<defs>
<clipPath id="clip0_505_165">
<rect x="2" y="2" width="108" height="108" rx="8" fill="white"/>
</clipPath>
<clipPath id="clip1_505_165">
<rect width="80" height="20.313" fill="white" transform="translate(16.1099 45.4835)"/>
</clipPath>
</defs>
</svg>
