<svg width="112" height="112" viewBox="0 0 112 112" fill="none" xmlns="http://www.w3.org/2000/svg">
<g clip-path="url(#clip0_505_170)">
<rect x="1.99991" y="2" width="108" height="108" rx="8" fill="white"/>
<g clip-path="url(#clip1_505_170)">
<path d="M49.8712 68.4807C50.0954 68.1597 50.3292 67.8653 50.6311 67.626C51.6126 66.8491 53.0098 66.802 53.951 67.5272C54.5583 67.9955 54.8302 68.6484 54.9406 69.3838C54.989 69.7096 54.9979 70.0381 54.9972 70.3673C54.9958 71.7236 54.9951 73.0792 54.9992 74.4355C54.9992 74.5629 54.976 74.6222 54.8336 74.6086C54.6932 74.595 54.5494 74.5977 54.4083 74.6086C54.2774 74.6188 54.2345 74.58 54.2359 74.4423C54.2427 73.6708 54.24 72.8992 54.2386 72.1277C54.2372 71.3903 54.2434 70.6528 54.227 69.9154C54.2161 69.441 54.1105 68.9823 53.8672 68.5659C53.4678 67.8809 52.8373 67.6199 52.0835 67.6785C51.0605 67.7583 50.3939 68.3471 49.9973 69.2686C49.8848 69.5296 49.8732 69.8098 49.8726 70.0865C49.8685 71.5273 49.8671 72.9688 49.8753 74.4096C49.876 74.58 49.8276 74.6256 49.6674 74.6093C49.5325 74.5956 49.3948 74.599 49.2592 74.6093C49.1412 74.6181 49.1072 74.5691 49.1215 74.4627C49.1242 74.4402 49.1215 74.4171 49.1215 74.3946C49.1215 71.3364 49.1215 68.2783 49.1215 65.2202C49.1215 64.9755 49.0922 65.0096 49.3416 65.0068C49.4663 65.0055 49.5924 65.0164 49.7158 65.0041C49.8507 64.9905 49.8732 65.0457 49.8726 65.1677C49.8678 66.2173 49.8698 67.2669 49.8698 68.3165C49.8698 68.3717 49.8698 68.4276 49.8698 68.4828L49.8712 68.4807Z" fill="#FFCA07"/>
<path d="M19.4827 70.8212C18.6314 70.8212 17.7802 70.8246 16.9289 70.8178C16.783 70.8164 16.7496 70.8573 16.7578 70.9991C16.7926 71.6029 16.8785 72.1939 17.1627 72.7391C17.5941 73.5692 18.2947 74.0054 19.2101 74.0913C20.0095 74.167 20.7954 74.0852 21.5362 73.7444C21.6235 73.7042 21.6582 73.7253 21.6821 73.8091C21.7059 73.8964 21.738 73.9816 21.7639 74.0681C21.8381 74.3169 21.877 74.2651 21.618 74.381C21.1689 74.582 20.6904 74.6754 20.2038 74.7245C19.5733 74.7885 18.9463 74.7858 18.3349 74.5888C17.3985 74.2869 16.7169 73.681 16.3646 72.7711C15.7941 71.2969 15.8834 69.8377 16.7013 68.476C17.4646 67.2049 19.022 66.6896 20.4144 67.1817C21.1327 67.4359 21.6016 67.9525 21.9049 68.6341C22.1816 69.257 22.2805 69.9134 22.2614 70.5895C22.2546 70.8205 22.2484 70.8205 22.0201 70.8205C21.1743 70.8205 20.3285 70.8205 19.4834 70.8205L19.4827 70.8212ZM19.1296 70.2187C19.8671 70.2187 20.6038 70.2167 21.3413 70.2207C21.4606 70.2214 21.5021 70.1942 21.4803 70.0667C21.4503 69.8943 21.4531 69.7164 21.4224 69.544C21.3256 69.0028 21.1314 68.5025 20.7033 68.1359C19.9005 67.4482 18.5878 67.4686 17.7938 68.172C17.2335 68.6682 16.9623 69.3143 16.8185 70.0313C16.783 70.2064 16.8376 70.2221 16.9868 70.2207C17.7011 70.2146 18.416 70.218 19.1303 70.218L19.1296 70.2187Z" fill="#FFCA07"/>
<path d="M40.2566 73.561C39.9519 73.9802 39.5702 74.3107 39.0911 74.5206C38.4791 74.7892 37.8445 74.8539 37.1964 74.6924C36.1877 74.4416 35.5654 73.4683 35.7085 72.4235C35.8346 71.5027 36.3628 70.905 37.1752 70.5233C37.8098 70.2248 38.4879 70.1035 39.1804 70.0428C39.4857 70.0162 39.7917 70.0033 40.0978 70.0094C40.1686 70.0108 40.2286 70.0176 40.2286 69.9099C40.2286 69.4764 40.1945 69.0498 40.0276 68.6436C39.7849 68.0513 39.329 67.7337 38.7067 67.6628C37.9413 67.5756 37.2168 67.7126 36.5591 68.1311C36.4855 68.1781 36.4392 68.1842 36.4099 68.0902C36.3996 68.0581 36.3846 68.0268 36.371 67.9961C36.2122 67.6226 36.2108 67.6192 36.585 67.4372C37.3497 67.0644 38.156 66.9288 38.9984 67.0549C39.9894 67.2035 40.6328 67.8387 40.87 68.8883C40.9429 69.21 40.9749 69.5364 40.9756 69.8663C40.9763 71.0515 40.9736 72.2368 40.9831 73.422C40.9858 73.7668 41.0029 74.1131 41.0676 74.4539C41.0908 74.5779 41.0567 74.6154 40.934 74.6065C40.7984 74.597 40.6614 74.597 40.5258 74.6065C40.4215 74.6147 40.3874 74.5745 40.3792 74.477C40.3561 74.2064 40.3268 73.9359 40.2968 73.666C40.2927 73.6319 40.3159 73.5842 40.2559 73.5603L40.2566 73.561ZM40.2273 71.5334C40.2273 71.2723 40.2238 71.0113 40.2293 70.751C40.2313 70.6549 40.202 70.6208 40.1039 70.6249C39.866 70.6358 39.6282 70.6344 39.3903 70.6446C38.8103 70.6699 38.2392 70.7476 37.6939 70.9609C36.8501 71.2921 36.4398 71.8789 36.4835 72.7268C36.5121 73.2891 36.7363 73.7457 37.2734 73.9993C37.6666 74.1846 38.0776 74.169 38.49 74.0933C39.6029 73.8902 40.3111 72.8597 40.2293 72.0261C40.2129 71.8633 40.2273 71.6976 40.2273 71.5327V71.5334Z" fill="#FFCA07"/>
<path d="M29.5895 70.9227C29.5957 71.7576 29.7988 72.5271 30.3556 73.1732C30.8341 73.728 31.4516 74.0224 32.1747 74.0954C32.8958 74.1683 33.5862 74.0429 34.2418 73.7382C34.3543 73.6858 34.4041 73.7001 34.4259 73.8187C34.4286 73.835 34.4347 73.8514 34.4402 73.8677C34.5922 74.3019 34.5935 74.3053 34.1512 74.4573C33.2366 74.7715 32.3021 74.8873 31.3609 74.6215C29.9835 74.2317 29.2079 73.2693 28.9291 71.8994C28.7308 70.9268 28.8112 69.9679 29.2542 69.0641C29.8308 67.8884 30.7932 67.2348 32.0779 67.0508C32.8201 66.9445 33.5487 67.0263 34.2528 67.2907C34.6324 67.4332 34.631 67.4379 34.4708 67.8026C34.3495 68.08 34.3543 68.0677 34.083 67.9593C32.9728 67.5156 31.8789 67.4891 30.8518 68.1767C30.1805 68.6259 29.8383 69.304 29.6713 70.0783C29.6114 70.3564 29.5909 70.6385 29.5909 70.9227H29.5895Z" fill="#FFCA07"/>
<path d="M47.1901 72.3594C47.2017 73.6312 46.5549 74.4225 45.5046 74.6637C44.6159 74.8682 43.7612 74.7524 42.9454 74.3407C42.8138 74.2746 42.7839 74.2057 42.8568 74.079C42.9352 73.942 42.9386 73.7239 43.0633 73.6666C43.1819 73.6121 43.3271 73.777 43.4647 73.8377C44.1129 74.1226 44.7767 74.2337 45.4671 74.0245C45.9647 73.8738 46.313 73.5583 46.4193 73.0369C46.5351 72.4705 46.3832 71.9818 45.9211 71.6097C45.6171 71.365 45.2688 71.2021 44.9089 71.0597C44.4489 70.877 44.0107 70.6596 43.629 70.3345C42.67 69.518 42.8888 68.0929 43.8253 67.442C44.4564 67.0037 45.1604 66.9438 45.8938 67.0624C46.2148 67.1142 46.5174 67.2218 46.8023 67.3827C46.9073 67.442 46.9597 67.4924 46.8814 67.6151C46.8207 67.7092 46.775 67.8162 46.7389 67.9225C46.6939 68.0554 46.6476 68.0792 46.5147 67.9995C45.9524 67.6621 45.3417 67.5469 44.7018 67.7003C44.2104 67.8182 43.8812 68.1331 43.7742 68.6361C43.6617 69.1629 43.8239 69.5957 44.2656 69.9181C44.6084 70.1675 44.9969 70.3256 45.3847 70.4844C45.7159 70.6201 46.0376 70.7734 46.33 70.9827C46.8943 71.3861 47.1983 71.9266 47.1901 72.3601V72.3594Z" fill="#FFCA07"/>
<path d="M25.5962 70.6848C25.0346 70.6848 24.473 70.6801 23.9114 70.6882C23.7737 70.6903 23.7308 70.648 23.7438 70.5158C23.754 70.4149 23.7553 70.3107 23.7438 70.2098C23.7267 70.0619 23.7758 70.0155 23.9291 70.0176C24.5984 70.0258 25.2677 70.021 25.937 70.021C26.3848 70.021 26.8332 70.0258 27.281 70.0183C27.4105 70.0162 27.4555 70.0578 27.4412 70.1832C27.4235 70.3447 27.5114 70.5546 27.401 70.6569C27.3015 70.7496 27.097 70.6821 26.9396 70.6828C26.4918 70.6862 26.0433 70.6841 25.5955 70.6841L25.5962 70.6848Z" fill="#FFCA07"/>
</g>
<path fill-rule="evenodd" clip-rule="evenodd" d="M74.8989 38.8963C73.3589 39.8174 69.7265 41.9693 68.3705 42.7706C67.5441 43.2055 65.6301 43.3954 64.5476 41.8876C64.5282 41.8604 63.1077 40.0271 63.0497 39.9581C63.009 39.9093 62.0907 38.5024 60.0445 38.4584C59.7422 38.451 58.239 38.4427 56.7724 39.3037C54.8229 40.4541 50.2891 43.1315 50.2891 43.1315C50.2878 43.1315 50.2878 43.1339 50.2855 43.1339C48.4218 44.2353 46.9697 45.0928 46.9697 45.0928L48.6854 47.2693C49.488 48.2986 51.2978 49.095 52.8674 48.1643C52.8674 48.1643 58.6668 44.6954 58.6881 44.6854C61.1962 43.2645 63.1315 43.2645 64.416 43.7932C65.569 44.2965 66.572 45.5503 66.572 45.5503C66.572 45.5503 67.8829 47.2284 68.1142 47.5219C68.8601 48.4702 70.0946 48.0977 70.0946 48.0977C70.0946 48.0977 70.5521 48.0441 71.2417 47.6212C71.2417 47.6212 76.8591 44.2568 76.8627 44.2558C78.6464 43.1748 80.2824 42.9729 81.1185 43.0524C83.7373 43.2983 84.5508 45.188 85.6863 46.5063C86.355 47.2817 86.9584 47.722 87.8811 47.6998C88.4874 47.6865 89.1724 47.3068 89.2734 47.2382L96.0002 43.2284C96.0002 43.2284 95.31 42.1546 93.8964 40.484C92.6313 38.9934 91.2875 39.6678 90.2162 40.2159C89.7661 40.4459 88.1352 41.5664 86.5195 42.3482C85.3682 42.905 83.7145 42.7375 82.8082 41.5808C82.754 41.5105 81.2878 39.677 81.1337 39.4514C80.5419 38.6857 79.3873 38 77.9075 38C77.0078 38 75.9868 38.2535 74.8989 38.8963Z" fill="url(#paint0_linear_505_170)"/>
<path fill-rule="evenodd" clip-rule="evenodd" d="M16.0843 54.5732C16.0843 53.376 16.0632 52.3712 16 51.4754H18.1942L18.2971 53.0145H18.3586C18.856 52.2012 19.7654 51.2393 21.4619 51.2393C22.786 51.2393 23.8203 52.0104 24.254 53.1639H24.2965C24.6488 52.587 25.0612 52.16 25.5366 51.8597C26.0957 51.4542 26.7372 51.2393 27.5647 51.2393C29.2398 51.2393 30.935 52.4143 30.935 55.7482V61.8801H28.453V56.1334C28.453 54.4029 27.8748 53.376 26.655 53.376C25.7847 53.376 25.1428 54.0181 24.8757 54.7663C24.8128 55.022 24.7509 55.3428 24.7509 55.6398V61.8801H22.2681V55.8547C22.2681 54.4029 21.7104 53.376 20.5311 53.376C19.5795 53.376 18.939 54.1464 18.7109 54.8713C18.6068 55.1293 18.565 55.4277 18.565 55.7262V61.8801H16.0843V54.5732Z" fill="#003A70"/>
<path fill-rule="evenodd" clip-rule="evenodd" d="M40.6052 59.3809C40.6052 60.3205 40.6465 61.2377 40.75 61.8806H38.4532L38.2883 60.7271H38.2255C37.6053 61.5398 36.5503 62.1157 35.2473 62.1157C33.2196 62.1157 32.0825 60.5999 32.0825 59.0179C32.0825 56.3889 34.3363 55.0654 38.06 55.0865V54.9149C38.06 54.2309 37.7908 53.0992 36.0121 53.0992C35.0187 53.0992 33.984 53.42 33.3018 53.8679L32.8047 52.1601C33.5508 51.689 34.8551 51.2398 36.4466 51.2398C39.6749 51.2398 40.6052 53.3564 40.6052 55.6202V59.3809ZM38.122 56.7959C36.3227 56.7528 34.6062 57.1587 34.6062 58.74C34.6062 59.7646 35.2473 60.2356 36.0543 60.2356C37.0666 60.2356 37.8125 59.5516 38.0393 58.8041C38.1009 58.6118 38.122 58.3973 38.122 58.227V56.7959Z" fill="#003A70"/>
<path fill-rule="evenodd" clip-rule="evenodd" d="M42.3643 54.5732C42.3643 53.376 42.3415 52.3712 42.2812 51.4754H44.5133L44.6381 53.035H44.6993C45.1342 52.224 46.2304 51.2393 47.9056 51.2393C49.6645 51.2393 51.4847 52.4143 51.4847 55.7055V61.8801H48.9407V56.0054C48.9407 54.5087 48.4029 53.376 47.0168 53.376C46.0032 53.376 45.3001 54.124 45.0305 54.9149C44.9491 55.1505 44.9276 55.4717 44.9276 55.7687V61.8801H42.3643V54.5732Z" fill="#003A70"/>
<path fill-rule="evenodd" clip-rule="evenodd" d="M62.5156 47.2947V58.9524C62.5156 60.0205 62.5563 61.1763 62.5978 61.8805H60.3223L60.2204 60.2356H60.1783C59.5781 61.3899 58.3557 62.1157 56.8887 62.1157C54.4902 62.1157 52.5865 60.0009 52.5865 56.7959C52.5654 53.3129 54.6753 51.2398 57.0953 51.2398C58.4808 51.2398 59.4746 51.8389 59.9289 52.6086H59.9708V47.2947H62.5156ZM59.9708 55.8114C59.9708 55.6 59.9495 55.3424 59.9097 55.1294C59.6818 54.1038 58.8746 53.27 57.7161 53.27C56.0821 53.27 55.1718 54.7664 55.1718 56.7108C55.1718 58.6118 56.0821 60.0009 57.6955 60.0009C58.7293 60.0009 59.6401 59.2747 59.888 58.1425C59.9495 57.9065 59.9708 57.6504 59.9708 57.3717V55.8114Z" fill="#003A70"/>
<path fill-rule="evenodd" clip-rule="evenodd" d="M64.3134 61.88H66.8809V51.476H64.3134V61.88Z" fill="#003A70"/>
<path fill-rule="evenodd" clip-rule="evenodd" d="M68.679 54.8295C68.679 53.4199 68.6575 52.4143 68.5957 51.4751H70.8095L70.8905 53.4615H70.9763C71.4719 51.9873 72.6512 51.4751 73.7264 51.4751C73.9741 51.4751 74.1187 51.4314 74.3262 51.4751V53.7834C74.1187 53.7407 73.8917 53.698 73.5813 53.698C72.3611 53.698 71.533 54.5092 71.3058 55.6835C71.2655 55.9187 71.2238 56.1977 71.2238 56.4982V61.8805H68.679V54.8295Z" fill="#003A70"/>
<path fill-rule="evenodd" clip-rule="evenodd" d="M75.5053 61.88H78.069V51.476H75.5053V61.88Z" fill="#003A70"/>
</g>
<rect x="1" y="1" width="110" height="110" rx="9" stroke="black" stroke-opacity="0.1" stroke-width="2"/>
<defs>
<linearGradient id="paint0_linear_505_170" x1="46.9697" y1="48.5765" x2="96.0002" y2="48.5765" gradientUnits="userSpaceOnUse">
<stop stop-color="#FFCA06"/>
<stop offset="0.330844" stop-color="#FBAA18"/>
<stop offset="0.694742" stop-color="#FFC907"/>
<stop offset="1" stop-color="#FAA619"/>
</linearGradient>
<clipPath id="clip0_505_170">
<rect x="2" y="2" width="108" height="108" rx="8" fill="white"/>
</clipPath>
<clipPath id="clip1_505_170">
<rect width="39" height="9.77965" fill="white" transform="translate(16 65)"/>
</clipPath>
</defs>
</svg>
