<svg width="112" height="112" viewBox="0 0 112 112" fill="none" xmlns="http://www.w3.org/2000/svg">
<g clip-path="url(#clip0_505_168)">
<rect x="1.99991" y="2" width="108" height="108" rx="8" fill="white"/>
<path fill-rule="evenodd" clip-rule="evenodd" d="M53.7076 51.7222C53.7973 51.6041 53.842 51.0533 53.842 50.9244V48.254C53.8275 48.0967 53.7699 47.9785 53.6698 47.9C53.5698 47.8212 53.4546 47.782 53.3255 47.782H41.7514C41.6076 47.782 41.4875 47.8249 41.3907 47.9104C41.2942 47.9962 41.2455 48.111 41.2455 48.254V48.2838C41.2455 48.4558 41.3257 48.6169 41.4613 48.7223C42.1247 49.2378 42.7411 49.7856 43.4163 50.7555C44.0668 51.6891 44.0999 51.8993 44.3003 51.8993H45.4516V63.2377C45.4516 63.3836 45.5137 63.5255 45.6242 63.6211C45.7283 63.7112 45.8386 63.7559 45.9558 63.7559H49.1106C49.2605 63.7559 49.382 63.704 49.4751 63.6C49.5676 63.4959 49.6145 63.379 49.6145 63.25V51.8993H53.3255C53.4909 51.8993 53.6177 51.8403 53.7076 51.7222Z" fill="#E72635"/>
<path fill-rule="evenodd" clip-rule="evenodd" d="M58.8022 59.3973C56.8501 59.3973 55.2678 57.8149 55.2678 55.863C55.2678 53.9108 56.8501 52.3286 58.8022 52.3286C60.7546 52.3286 62.3366 53.9108 62.3366 55.863C62.3366 57.8149 60.7546 59.3973 58.8022 59.3973ZM66.7353 53.6898C66.5383 52.9907 66.2619 52.3345 65.9067 51.7214C65.5511 51.1085 65.1224 50.5511 64.6206 50.0486C64.1178 49.5466 63.5617 49.1183 62.9522 48.7636C62.3419 48.4084 61.6855 48.132 60.9817 47.9351C60.2786 47.7381 59.5505 47.6392 58.7969 47.6392C58.0361 47.6392 57.3062 47.7381 56.6062 47.9351C56.1027 48.0771 55.624 48.2619 55.1671 48.4856C55.076 48.5483 54.9553 48.6492 54.8446 48.7938C54.7127 48.966 54.6449 49.1796 54.6449 49.3965V51.5179C54.6449 52.0729 54.1951 52.5226 53.6404 52.5226H51.9681C51.5382 52.5226 51.1569 52.7961 51.0164 53.2017C50.9606 53.3616 50.9097 53.5248 50.8636 53.6898C50.6699 54.3894 50.5732 55.1191 50.5732 55.8793C50.5732 56.6391 50.6699 57.3691 50.8636 58.0682C51.0576 58.7673 51.3337 59.4198 51.6926 60.0262C52.0514 60.6322 52.4804 61.1838 52.9791 61.6824C53.4777 62.181 54.032 62.6094 54.6422 62.9679C55.2519 63.3265 55.9071 63.6029 56.6062 63.7957C57.3062 63.9899 58.0361 64.0867 58.7969 64.0867C59.5505 64.0867 60.2786 63.9899 60.9817 63.7957C61.6855 63.6029 62.3419 63.3265 62.9522 62.9679C63.5617 62.6094 64.1178 62.181 64.6206 61.6824C65.1224 61.1838 65.5511 60.6322 65.9067 60.0262C66.2619 59.4198 66.5383 58.7673 66.7353 58.0682C66.9329 57.3691 67.0317 56.6391 67.0317 55.8793C67.0317 55.1191 66.9329 54.3894 66.7353 53.6898Z" fill="#E72635"/>
<path fill-rule="evenodd" clip-rule="evenodd" d="M24.2168 59.3034C22.2647 59.3034 20.6825 57.7209 20.6825 55.769C20.6825 53.8169 22.2647 52.2346 24.2168 52.2346C26.1688 52.2346 27.7513 53.8169 27.7513 55.769C27.7513 57.7209 26.1688 59.3034 24.2168 59.3034ZM43.2058 58.5878L39.7939 57.4458C39.5317 57.358 39.2374 57.4528 39.0879 57.6858C38.4188 58.7305 37.2121 59.3976 35.8557 59.2893C34.966 59.2184 34.1583 58.8016 33.5746 58.1707C33.151 57.7134 32.8446 57.144 32.7141 56.5094C32.6645 56.2682 32.6426 56.0313 32.6426 55.7995H32.6414C32.6414 53.554 31.745 51.5188 30.2916 50.0286C30.2687 50.0047 30.2461 49.98 30.2228 49.9557C28.7261 48.4576 26.6571 47.5304 24.3725 47.5304C20.9917 47.5304 18.0866 49.5603 16.8045 52.4664C16.355 53.4864 16.1028 54.6132 16.1028 55.7996C16.1028 59.6455 18.7283 62.8774 22.2843 63.8026C22.3364 63.8161 22.3899 63.8259 22.4428 63.8382V63.8386C23.0619 63.9869 23.7073 64.069 24.3721 64.069C26.4404 64.069 28.3305 63.3074 29.7806 62.0521C29.7806 62.0521 30.2005 61.6647 30.261 61.6062C31.7603 63.1246 33.8397 64.0692 36.1421 64.0692C37.0634 64.0692 37.9474 63.9137 38.7748 63.6351C40.8721 62.9303 42.5951 61.4114 43.5619 59.4494C43.7278 59.1127 43.5619 58.7066 43.2058 58.5878Z" fill="#E72635"/>
<path fill-rule="evenodd" clip-rule="evenodd" d="M36.142 52.2988C37.2239 52.2988 38.1891 52.7906 38.8311 53.562C39.0055 53.7715 39.3018 53.8342 39.5537 53.7285L42.8585 52.3376C43.221 52.185 43.3579 51.7438 43.1487 51.4105C41.6868 49.0808 39.0962 47.5307 36.142 47.5307C34.0532 47.5307 32.1467 48.3066 30.6914 49.5846C31.891 50.8039 32.7408 52.3676 33.078 54.1122C33.6742 53.0318 34.821 52.2988 36.142 52.2988Z" fill="#E72635"/>
<path fill-rule="evenodd" clip-rule="evenodd" d="M74.7991 56.7176H74.0336C72.1199 56.7176 70.7083 58.0572 70.7083 59.8513C70.7083 62.0282 72.3709 62.9849 73.6028 62.9849H74.7991V64.0375H73.6028C71.2707 64.0375 69.5363 62.2434 69.5363 59.8513C69.5363 57.818 71.1989 55.665 73.9139 55.665H74.7991V56.7176Z" fill="#790008"/>
<path fill-rule="evenodd" clip-rule="evenodd" d="M75.9001 64.0375H76.9527V55.665H75.9001V64.0375Z" fill="#790008"/>
<path fill-rule="evenodd" clip-rule="evenodd" d="M78.8904 64.0375H79.9427V58.2964H78.8904V64.0375ZM79.4165 56.3827C79.8233 56.3827 80.0505 56.6937 80.0505 57.0166C80.0505 57.3396 79.8233 57.6505 79.4165 57.6505C79.01 57.6505 78.7826 57.3396 78.7826 57.0166C78.7826 56.6937 79.01 56.3827 79.4165 56.3827Z" fill="#790008"/>
<path fill-rule="evenodd" clip-rule="evenodd" d="M85.4809 59.3011H84.6676C83.6749 59.3011 82.6941 59.947 82.6941 61.167C82.6941 62.3869 83.6749 63.0328 84.6676 63.0328H85.4809V64.0375H84.4763C83.1366 64.0375 81.5938 63.0089 81.5938 61.167C81.5938 59.325 83.1366 58.2964 84.4763 58.2964H85.4809V59.3011Z" fill="#790008"/>
<path fill-rule="evenodd" clip-rule="evenodd" d="M86.3545 64.0375V55.665H87.4069V60.4254H87.8495C88.292 60.4254 88.5791 60.2579 88.7347 59.9948L89.7273 58.2964H90.9234L90.1698 59.5882C89.9426 59.9828 89.5958 60.5569 89.2728 60.6407V60.6646C90.122 60.832 90.5884 61.3344 90.5884 62.3511V64.0375H89.5358V62.4706C89.5358 61.7531 89.1531 61.4301 88.6029 61.4301H87.4069V64.0375H86.3545Z" fill="#790008"/>
<path fill-rule="evenodd" clip-rule="evenodd" d="M91.3784 63.0328H94.3206C94.8111 63.0328 95.0024 62.8415 95.0024 62.4826C95.0024 61.4301 91.3784 61.8367 91.3784 59.8513C91.3784 58.8346 92.0839 58.2964 93.3399 58.2964H95.8157V59.3011H93.1605C92.6462 59.3011 92.4907 59.4446 92.4788 59.8034C92.4667 60.7962 96.1028 60.3775 96.1028 62.4348C96.1028 63.5232 95.3373 64.0375 94.3206 64.0375H91.3784V63.0328Z" fill="#790008"/>
</g>
<rect x="1" y="1" width="110" height="110" rx="9" stroke="black" stroke-opacity="0.1" stroke-width="2"/>
<defs>
<clipPath id="clip0_505_168">
<rect x="2" y="2" width="108" height="108" rx="8" fill="white"/>
</clipPath>
</defs>
</svg>
