<svg width="112" height="112" viewBox="0 0 112 112" fill="none" xmlns="http://www.w3.org/2000/svg">
<g clip-path="url(#clip0_505_167)">
<rect x="1.99991" y="2" width="108" height="108" rx="8" fill="white"/>
<path d="M33.563 58.2593C33.5555 58.8 34.2444 58.8593 34.6593 58.8593H34.8815C34.9259 58.8593 34.9555 58.8593 35.0074 58.8519C35.9926 58.8 35.9778 58.4296 35.9778 58.2593C35.9778 58.1704 35.9778 58.0741 35.9778 57.963V57.9185V38.0296V37.9704V37.6889C35.9852 37.1481 35.2963 37.0815 34.8815 37.0815H34.6593C34.2444 37.0815 33.5555 37.1481 33.563 37.6889C33.563 37.8074 33.563 37.9111 33.563 38.0296V57.9185C33.563 57.9259 33.563 57.9407 33.563 57.9778V58.2593Z" fill="#EB202D"/>
<path d="M20.6815 58.2593C20.6741 58.8 21.363 58.8593 21.7778 58.8593H22C22.0444 58.8593 22.0741 58.8593 22.1259 58.8519C23.1037 58.8 23.0963 58.4296 23.0963 58.2593C23.0963 58.1704 23.0963 58.0741 23.0963 57.963V57.9185V38.0296V37.9704V37.6889C23.1037 37.1481 22.4148 37.0815 22 37.0815H21.7778C21.363 37.0815 20.6741 37.1481 20.6815 37.6889C20.6815 37.8074 20.6741 37.9111 20.6741 38.0296V57.9185C20.6741 57.9259 20.6741 57.9407 20.6815 57.9778V58.2593Z" fill="#EB202D"/>
<path d="M24.9778 58.2593C24.9704 58.8 25.6593 58.8593 26.0741 58.8593H26.2963C26.3333 58.8593 26.3704 58.8593 26.4222 58.8519C27.4 58.8 27.3926 58.4296 27.3926 58.2593C27.3926 58.1704 27.3926 58.0741 27.3926 57.963V57.9185V38.0296V37.9704V37.6889C27.4 37.1481 26.7111 37.0815 26.2963 37.0815H26.0741C25.6593 37.0815 24.9704 37.1481 24.9778 37.6889C24.9778 37.8074 24.9778 37.9111 24.9778 38.0296V57.9185C24.9778 57.9259 24.9778 57.9407 24.9778 57.9778V58.2593Z" fill="#EB202D"/>
<path d="M29.2741 58.2593C29.2667 58.8 29.9556 58.8593 30.3704 58.8593H30.5926C30.6296 58.8593 30.6667 58.8593 30.7111 58.8519C31.6963 58.8 31.6815 58.4296 31.6815 58.2593C31.6815 58.1704 31.6815 58.0741 31.6815 57.963V57.9185V38.0296V37.9704V37.6889C31.6889 37.1481 31 37.0815 30.5852 37.0815H30.363C29.9482 37.0815 29.2593 37.1481 29.2667 37.6889C29.2667 37.8074 29.2593 37.9111 29.2593 38.0296V57.9185C29.2593 57.9259 29.2593 57.9407 29.2667 57.9778V58.2593H29.2741Z" fill="#EB202D"/>
<path d="M18.0444 46.763C17.5037 46.7556 17.4444 47.4444 17.4444 47.8593V48.0815C17.4444 48.1259 17.4444 48.1556 17.4519 48.2C17.5037 49.1852 17.8741 49.1778 18.0444 49.1778C18.1333 49.1778 18.2296 49.1778 18.3407 49.1778H18.3852H38.2741H38.3333H38.6148C39.1556 49.1852 39.2222 48.4963 39.2222 48.0815V47.8593C39.2222 47.4444 39.1556 46.7556 38.6148 46.763C38.4963 46.763 38.3926 46.7556 38.2741 46.7556H18.3852C18.3778 46.7556 18.363 46.7556 18.3259 46.763H18.0444Z" fill="#EB202D"/>
<path d="M69.2222 38.6741C63.4296 38.6741 60.8519 41.5259 60.8519 47.9185C60.8519 54.163 63.5407 57.2222 69.0815 57.2593H69.3481C74.8963 57.2296 77.5926 54.1778 77.5926 47.9185C77.5926 41.5259 75.0074 38.6741 69.2222 38.6741ZM69.2444 54.5259H69.2C65.8741 54.5259 64.5778 52.6667 64.5778 47.8963C64.5778 43.1778 65.8222 41.4222 69.163 41.4222H69.2741C72.6148 41.4222 73.8593 43.1778 73.8593 47.8963C73.8593 52.6667 72.563 54.5259 69.2444 54.5259Z" fill="#223C77"/>
<path d="M45.9704 55.8518C47.1481 56.7555 48.7407 57.1407 51.3111 57.1407H51.3926H51.4741C54.0667 57.1407 55.6667 56.7555 56.8296 55.8518C58.5185 54.563 58.8074 53.0518 58.8074 50.1481V39.7185C58.8074 39.563 58.8148 39.3778 58.6444 39.2074C58.3778 38.9407 57.7852 38.8 56.8815 38.8C55.9852 38.8 55.3926 38.9333 55.1333 39.2074C54.963 39.3778 54.963 39.5704 54.9704 39.7259V41.6074V50.6222C54.9704 52.437 54.9704 52.8148 54.163 53.4815C53.4222 54.0889 52.2963 54.163 51.4 54.163C50.5037 54.163 49.3852 54.0889 48.6444 53.4815C47.8444 52.8222 47.8444 52.4518 47.8444 50.6667V39.7333C47.8444 39.5778 47.8518 39.3926 47.6815 39.2148C47.4148 38.9481 46.8222 38.8074 45.9259 38.8074C45.0222 38.8074 44.4296 38.9407 44.1704 39.2148C44 39.3852 44 39.5778 44.0074 39.7259V39.7704V50.1555C43.9926 53.0518 44.2815 54.563 45.9704 55.8518Z" fill="#223C77"/>
<path d="M92.0519 39.8815C91.0963 39.1704 89.9556 38.9185 87.6889 38.9185H80.2445C79.9037 38.9185 79.6296 39.1926 79.6296 39.5333V56.4074C79.6296 56.7481 79.9037 57.0222 80.2445 57.0222H88.0519C90.1704 57.0222 91.6519 56.9556 92.8889 56.0222C94.2667 54.9556 94.563 53.2 94.563 51.9111C94.563 50.2148 93.9926 48.8741 92.963 48.1333C92.5111 47.8 91.9852 47.6 91.4815 47.4222L91.1408 47.3037L91.4667 47.1481C92.9852 46.4222 93.5407 45.4148 93.5185 43.4222C93.5037 42.5037 93.2963 40.8 92.0519 39.8815ZM83.4222 41.4519H87.5778C89.7333 41.4519 89.9037 42.5407 89.9037 43.9704C89.9037 45.6741 89.1185 46.4 87.2889 46.4H83.4222V41.4519ZM87.4963 54.4296H83.4222V48.9704H87.7926C90.2148 48.9704 90.7037 50.0296 90.7037 51.7259C90.7037 54.0222 89.8593 54.4296 87.4963 54.4296Z" fill="#223C77"/>
<path d="M34.1852 74.6223V63.8445H39.8074V64.8223H35.3185V68.7037H39V69.6815H35.3185V73.6371H40.4V74.6149H34.1852V74.6223Z" fill="#00377B"/>
<path d="M42.2444 74.6223V74.3704L45.963 68.0074C46.2815 67.4667 46.6 66.9112 46.9333 66.3482C47.2667 65.7852 47.5778 65.2741 47.8741 64.8074L47.8593 64.7926H42.6889V63.8445H49.4815V64.0963L45.7333 70.4889C45.4296 71.0074 45.1111 71.5482 44.7778 72.1037C44.4444 72.6593 44.1333 73.1778 43.837 73.6519L43.8519 73.6667H49.6444V74.6149H42.2444V74.6223Z" fill="#00377B"/>
<path d="M63.1852 66.7704C63.1852 67.2297 63.0963 67.6445 62.9259 68C62.7481 68.363 62.5185 68.6667 62.237 68.9186C61.9482 69.1704 61.6222 69.363 61.2519 69.4963C60.8815 69.6223 60.4963 69.6889 60.1037 69.6889H58.163V74.6223H57.0296V63.8445H60.037C60.4444 63.8445 60.837 63.9111 61.2222 64.0371C61.6074 64.1704 61.9407 64.3556 62.237 64.6149C62.5333 64.8667 62.763 65.1778 62.9407 65.5334C63.0963 65.8963 63.1852 66.3037 63.1852 66.7704ZM62.037 66.7704C62.037 66.4667 61.9778 66.1926 61.8593 65.9482C61.7407 65.7037 61.5852 65.5037 61.3852 65.3408C61.1852 65.1778 60.9556 65.0519 60.6963 64.963C60.4296 64.8741 60.1482 64.8297 59.8444 64.8297H58.1556V68.7112H59.9111C60.1926 68.7112 60.4593 68.6667 60.7185 68.5852C60.9778 68.5037 61.2 68.3704 61.3926 68.2074C61.5852 68.0371 61.7407 67.8297 61.8593 67.5926C61.9778 67.3556 62.037 67.0741 62.037 66.7704Z" fill="#00377B"/>
<path d="M71.7852 74.6222L70.5555 71.6H65.9926L64.7778 74.6222H63.6667L68.1259 63.6296H68.4815L72.9407 74.6222H71.7852ZM68.8815 67.3556C68.7778 67.1111 68.6815 66.8445 68.5852 66.563C68.4889 66.2815 68.4 65.9926 68.3037 65.7037H68.2667C68.1778 65.9926 68.0815 66.2815 67.9778 66.563C67.8741 66.8445 67.7778 67.1037 67.6741 67.3556L66.3704 70.6519H70.1555L68.8815 67.3556Z" fill="#00377B"/>
<path d="M78.0444 69.637V74.6222H76.9333V69.637L72.8296 63.8444H74.0815L76.4148 67.1407C76.5852 67.3852 76.7704 67.6593 76.9704 67.9481C77.1704 68.2444 77.3555 68.5185 77.5259 68.7778H77.563C77.7333 68.5185 77.9111 68.2444 78.1037 67.9556C78.2963 67.6667 78.4889 67.3926 78.6815 67.1333L81.0296 63.837H82.1926L78.0444 69.637Z" fill="#00377B"/>
</g>
<rect x="1" y="1" width="110" height="110" rx="9" stroke="black" stroke-opacity="0.1" stroke-width="2"/>
<defs>
<clipPath id="clip0_505_167">
<rect x="2" y="2" width="108" height="108" rx="8" fill="white"/>
</clipPath>
</defs>
</svg>
