<svg width="112" height="112" viewBox="0 0 112 112" fill="none" xmlns="http://www.w3.org/2000/svg">
<g clip-path="url(#clip0_505_125)">
<rect x="1.99988" y="2" width="108" height="108" rx="8" fill="white"/>
<g clip-path="url(#clip1_505_125)">
<path d="M96 96V83.3232H86.3488L81.3792 77.8288L76.3856 83.3232H44.5648V57.7152H34.2944L47.0336 28.8848H59.32L63.7056 38.7616V28.8848H78.9136L81.5536 36.328L84.2112 28.8848H96V16H16V96H96ZM87.9744 80.1168H96L85.384 68.8592L96 57.7296H88.1024L81.5456 64.8944L75.0528 57.7296H67.0256L77.5792 68.9232L67.0256 80.1168H74.8304L81.4192 72.888L87.976 80.1168H87.9744ZM89.8512 68.8688L95.9984 75.4096V62.3824L89.8512 68.8688ZM54.0704 74.936V71.4496H66.704V66.3968H54.0704V62.9104H67.024V57.7296H47.9616V80.1184H67.024V74.9376H54.0704V74.936ZM89.9536 54.48H95.9984V32.0912H86.5952L81.5728 46.0352L76.584 32.0912H67.0208V54.48H73.0656V38.808L78.8224 54.48H84.1952L89.952 38.776V54.48H89.9536ZM60.1456 54.48H67.0224L57.1392 32.0912H49.2704L39.3872 54.48H46.104L47.96 50.0016H58.2592L60.1456 54.48ZM56.1472 44.9808H50.0704L53.1088 37.656L56.1472 44.9808Z" fill="#006FCF"/>
</g>
</g>
<rect x="1" y="1" width="110" height="110" rx="9" stroke="black" stroke-opacity="0.1" stroke-width="2"/>
<defs>
<clipPath id="clip0_505_125">
<rect x="2" y="2" width="108" height="108" rx="8" fill="white"/>
</clipPath>
<clipPath id="clip1_505_125">
<rect width="80" height="80" fill="white" transform="translate(16 16)"/>
</clipPath>
</defs>
</svg>
