<svg width="112" height="112" viewBox="0 0 112 112" fill="none" xmlns="http://www.w3.org/2000/svg">
<g clip-path="url(#clip0_505_118)">
<rect x="1.99988" y="2" width="108" height="108" rx="8" fill="white"/>
<g clip-path="url(#clip1_505_118)">
<path d="M73.2971 51.4796V66.8233H76.4466V57.635C76.4466 55.4602 77.7009 54.1049 79.7281 54.1049C80.3378 54.1049 80.8932 54.1787 81.1417 54.2796V51.3476C80.9087 51.3049 80.5126 51.2311 80.0621 51.2311C78.2524 51.2311 76.8815 52.2952 76.3728 54.0893H76.299V51.4796H73.2971Z" fill="black"/>
<path d="M92.831 54.0311H92.7728C91.9145 52.3379 90.1631 51.2311 87.9611 51.2311C84.1126 51.2311 81.5456 54.3068 81.5456 59.1495C81.5456 63.9922 84.1126 67.0835 87.9883 67.0835C90.2213 67.0835 91.9689 65.9612 92.8737 64.2097H92.932V66.8194H95.9961V45.7787H92.831V54.0311ZM88.8233 64.4156C86.3301 64.4156 84.7689 62.3884 84.7689 59.1495C84.7689 55.9262 86.3301 53.8835 88.8233 53.8835C91.2427 53.8835 92.8621 55.9689 92.8621 59.1495C92.8621 62.3612 91.2427 64.4156 88.8233 64.4156Z" fill="black"/>
<path d="M63.2155 57.9223C59.5689 58.1282 57.5145 59.7748 57.5145 62.4583C57.5145 65.2155 59.6116 67.0835 62.6174 67.0757C64.633 67.0757 66.5708 65.9961 67.4602 64.2913H67.5339V66.8155H70.5514V56.2447C70.5514 53.1689 68.1747 51.2 64.4543 51.2C60.6602 51.2 58.299 53.2427 58.1242 56.0117H61.099C61.3786 54.6408 62.5165 53.767 64.3378 53.767C66.2602 53.767 67.4136 54.7884 67.4136 56.4932V57.6738L63.2155 57.9223ZM67.4136 61.0757C67.4136 63.0719 65.6932 64.5864 63.4912 64.5903C61.798 64.5903 60.6912 63.7126 60.6912 62.3728C60.6912 61.0602 61.7553 60.2291 63.6349 60.0971L67.4136 59.8641V61.0757Z" fill="black"/>
<path d="M47.1883 48.2874C50.0466 48.2874 52.2912 50.0505 52.8738 52.7495H56.1126C55.5573 48.3612 51.9573 45.4291 47.1883 45.4291C41.3126 45.4291 37.5495 49.6272 37.5495 56.2913C37.5495 62.9981 41.2815 67.1689 47.1883 67.1689C52.0311 67.1689 55.3243 64.6175 56.1281 60.2719H52.8777C52.2213 62.8078 50.1359 64.3107 47.2039 64.3107C43.3398 64.3107 40.8893 61.2039 40.8893 56.2913C40.8893 51.4214 43.367 48.2874 47.1883 48.2874Z" fill="black"/>
<path d="M25.732 49.4485C25.7165 49.3087 25.7049 49.165 25.7049 49.0136C25.7049 47.9068 26.1864 46.7223 27.0408 45.7553C27.468 45.266 28.0117 44.8582 28.6718 44.532C29.3282 44.2097 29.9495 44.0349 30.5359 44.0039C30.5553 44.1553 30.5631 44.3068 30.5631 44.4621C30.5631 45.6155 30.1437 46.6913 29.301 47.6893C28.2874 48.8738 27.0641 49.5573 25.732 49.4485ZM21.9417 49.5223C20.9243 49.5379 19.9767 49.8019 19.1029 50.3223C18.2252 50.8427 17.5262 51.5495 17.0019 52.4466C16.334 53.5612 16 54.8932 16 56.4388C16 57.7864 16.2485 59.1806 16.7456 60.6214C17.2078 61.9534 17.7981 63.1223 18.5126 64.1281C19.1806 65.068 19.7359 65.7359 20.1825 66.1243C20.8777 66.7728 21.5767 67.0835 22.2796 67.0524C22.7417 67.0369 23.3437 66.8777 24.0932 66.5748C24.8388 66.2718 25.5379 66.1243 26.1903 66.1243C26.8117 66.1243 27.4913 66.2718 28.2291 66.5748C28.967 66.8815 29.6 67.0291 30.1243 67.0291C30.8544 67.0097 31.5379 66.7107 32.1748 66.1243C32.5864 65.767 33.1184 65.1223 33.7709 64.1942C34.2485 63.5107 34.6602 62.7689 35.0097 61.965C35.1534 61.6233 35.2893 61.266 35.4136 60.9048C34.8233 60.6563 34.2913 60.3068 33.8175 59.8563C32.7689 58.8854 32.2369 57.6621 32.2214 56.1903C32.2019 54.3029 33.0602 52.8311 34.7961 51.7786C33.8291 50.4 32.3689 49.6349 30.4311 49.4796C29.7165 49.4175 28.8427 49.5728 27.8058 49.9456C26.7107 50.3456 26.066 50.5476 25.8757 50.5476C25.6233 50.5476 25.0408 50.3728 24.1359 50.0349C23.2311 49.6932 22.4971 49.5223 21.9417 49.5223Z" fill="black"/>
</g>
</g>
<rect x="1" y="1" width="110" height="110" rx="9" stroke="black" stroke-opacity="0.1" stroke-width="2"/>
<defs>
<clipPath id="clip0_505_118">
<rect x="2" y="2" width="108" height="108" rx="8" fill="white"/>
</clipPath>
<clipPath id="clip1_505_118">
<rect width="80" height="23.1689" fill="white" transform="translate(16 44)"/>
</clipPath>
</defs>
</svg>
