<svg width="112" height="112" viewBox="0 0 112 112" fill="none" xmlns="http://www.w3.org/2000/svg">
<g clip-path="url(#clip0_647_1772)">
<rect x="1.99991" y="2" width="108" height="108" rx="8" fill="white"/>
<path d="M45.5919 79.4053C36.0568 78.5695 27.6431 75.0323 22.1631 69.5562C19.041 66.4362 17.147 63.0518 16.2908 59.062C15.9013 57.2471 15.9033 54.2352 16.2954 52.4049C17.4838 46.8577 21.0684 42.0051 26.7132 38.3036C39.5869 29.8615 59.308 29.9038 72.0603 38.4013C73.7543 39.5299 74.848 40.4259 76.3802 41.939C78.3137 43.8486 79.6733 45.7454 81.1078 48.5351C81.1608 48.6384 81.4239 48.7688 81.6923 48.8244C82.5966 49.0121 83.8021 49.7163 84.7741 50.6237C85.5269 51.3268 86.1109 52.0937 87.5485 54.2676C88.9981 56.4593 95.5599 66.592 95.9589 67.2548C96.1141 67.5125 95.8074 67.9271 95.4615 67.9271C95.216 67.9271 95.0415 67.7635 94.6795 67.1936C94.4231 66.7903 92.7495 64.1926 90.9602 61.4216C84.6287 51.6148 84.2842 51.1597 82.5209 50.2778L81.5933 49.8137H78.8704C76.1511 49.8137 76.1473 49.814 76.0812 50.1007C75.7197 51.6694 75.6536 52.0536 75.7322 52.1266C75.7825 52.1733 77.3277 53.0532 79.1658 54.0821L82.5084 55.9529L82.2994 56.3912C82.1844 56.6322 82.0525 56.8294 82.0061 56.8294C81.9596 56.8294 79.1469 55.2722 75.7557 53.3685C72.3644 51.4648 69.3915 49.853 69.1494 49.7862C68.1848 49.5198 66.7031 50.5885 66.7031 51.5506C66.7031 52.5251 66.9924 52.8093 72.9506 57.6887C76.6685 60.7333 78.7949 62.5622 79.1196 62.9944C79.7105 63.7806 80.3077 64.9391 80.8588 66.3678C81.8275 68.8794 83.4028 70.2808 85.9864 70.9288L86.8372 71.142L86.7655 71.6074C86.726 71.8633 86.6714 72.0987 86.6438 72.1301C86.5346 72.2556 84.8213 71.7089 83.8296 71.2326C82.2793 70.4877 81.2147 69.4264 80.1677 67.5834C80.16 67.5699 79.5526 67.7781 78.8176 68.0459C77.5124 68.522 77.4527 68.5613 76.2197 69.7644C70.9648 74.892 63.4289 78.1685 54.3296 79.2823C52.8548 79.463 47.1629 79.5428 45.5919 79.4053ZM54.6485 77.8264C58.8235 77.2756 62.0607 76.4462 65.4494 75.0589C69.0063 73.6027 72.3601 71.5102 74.7069 69.2827L75.6317 68.4051L73.3037 67.2931C70.8166 66.1048 70.5717 65.9078 70.253 64.8455C70.052 64.1745 70.2796 63.462 70.9146 62.7729L71.4095 62.2359L70.3306 61.4165C69.4765 60.7677 69.2086 60.4837 69.0443 60.0536C68.7785 59.3577 68.8744 58.6048 69.306 57.9981L69.6341 57.5369L66.2229 56.9366C64.3468 56.6067 62.598 56.2735 62.3367 56.1962C61.8252 56.0452 61.3048 55.4635 61.1701 54.8928C61.0976 54.5867 62.7694 46.4242 63.1429 45.2599C63.31 44.7387 64.0246 44.1088 64.5629 44.008C65.1267 43.9024 75.1811 45.6698 75.6817 45.9625C76.4741 46.4255 76.7246 47.1699 76.4733 48.3149L76.3682 48.7932L76.9246 48.7925C77.2305 48.7922 77.955 48.755 78.5342 48.7098L79.5873 48.6277L79.0651 47.6582C77.4836 44.7221 74.6283 41.7686 71.1031 39.422C69.4583 38.3271 65.9464 36.5974 63.8322 35.8402C60.8262 34.7641 57.188 33.9579 53.6913 33.5933C51.7739 33.3936 46.7514 33.3964 44.8898 33.5985C40.428 34.0824 36.3752 35.0924 32.8329 36.6025C24.6322 40.0991 19.1181 45.8913 17.7065 52.4927C17.3376 54.2181 17.3088 57.2381 17.6463 58.8069C18.3928 62.2754 20.0222 65.2779 22.6752 68.0727C28.0785 73.7654 36.3318 77.2623 46.2296 78.0532C47.5547 78.1591 53.3002 78.0044 54.6485 77.8264ZM52.8413 71.614C52.3308 71.4663 51.8134 70.8589 51.7047 70.279C51.6338 69.9014 51.7203 69.6394 52.2614 68.5927C54.448 64.3628 55.3983 60.4702 55.3983 55.7455C55.3983 51.1794 54.5569 47.6266 52.4668 43.3684C52.018 42.4543 51.6509 41.6056 51.6509 41.4829C51.6509 41.0298 52.03 40.3728 52.4405 40.1152C53.0035 39.7618 53.9469 39.8279 54.3985 40.2519C54.572 40.4149 55.023 41.1553 55.4006 41.8967C56.8961 44.8333 57.9209 48.0552 58.4268 51.4087C58.7398 53.4841 58.8021 57.4175 58.5521 59.3174C58.0906 62.8222 57.1655 65.9494 55.6843 69.0131C54.7891 70.865 54.2271 71.6268 53.7566 71.6268C53.6625 71.6268 53.5089 71.6502 53.4155 71.6791C53.3217 71.7074 53.0635 71.6783 52.8413 71.614ZM46.7549 68.4299C45.972 68.2021 45.4074 67.2416 45.6337 66.5219C45.6885 66.3476 46.0572 65.545 46.4526 64.7383C48.1275 61.3228 48.8242 57.6614 48.4828 54.0665C48.2022 51.1128 47.6728 49.2499 46.3393 46.5242C45.4446 44.6955 45.4031 44.4121 45.9232 43.6758C46.4179 42.9758 47.6524 42.8623 48.3009 43.4572C48.7505 43.8695 50.1485 46.789 50.6881 48.4425C52.4739 53.9142 52.2014 59.788 49.9128 65.1634C48.7405 67.9169 47.9175 68.7682 46.7549 68.4299ZM40.4785 65.2009C39.9948 64.9827 39.5785 64.4712 39.4652 63.9556C39.3961 63.6416 39.5149 63.2941 40.089 62.1318C42.197 57.8624 42.2197 53.7502 40.1584 49.58C39.2532 47.7485 39.2333 47.384 39.9989 46.6617C40.3767 46.3053 40.5372 46.2423 41.0679 46.2423C41.958 46.2423 42.4195 46.6895 43.2149 48.3233C44.4382 50.8362 44.939 53.0162 44.9349 55.8092C44.9306 58.6801 44.4624 60.6509 43.1555 63.3008C42.407 64.8179 42.037 65.2185 41.2878 65.3213C41.0592 65.3527 40.6951 65.2983 40.4785 65.2009ZM34.6218 62.193C34.2386 62.0344 33.8011 61.5129 33.671 61.0595C33.5258 60.5529 33.6447 60.1508 34.22 59.2048C34.9598 57.9882 35.132 57.3353 35.132 55.7452C35.132 54.1553 34.9598 53.5022 34.22 52.2855C33.9692 51.873 33.7174 51.3789 33.6603 51.1873C33.422 50.3854 34.0901 49.4027 34.9876 49.2343C35.7484 49.0915 36.2709 49.431 36.9704 50.5229C38.9958 53.6844 38.9955 57.9076 36.9694 61.0422C36.2548 62.1481 35.4578 62.539 34.6218 62.193ZM78.2568 67.104C78.9344 66.8619 79.5202 66.6326 79.5582 66.5946C79.5962 66.5566 79.4656 66.1234 79.2676 65.632C78.8615 64.623 78.9273 64.6491 77.4854 64.9251C75.9284 65.2231 75.0245 64.9575 73.3203 63.7026C72.8557 63.3605 72.3764 63.0803 72.2555 63.0803C72.1343 63.0803 71.8687 63.2587 71.6651 63.4765C71.2284 63.9442 71.1625 64.6766 71.5182 65.1098C71.8274 65.4863 76.107 67.5227 76.6152 67.5349C76.8404 67.54 77.579 67.3464 78.2568 67.104ZM77.5833 63.8286C78.2178 63.701 78.2875 63.6574 78.1785 63.4541C78.0568 63.2265 72.1376 58.314 71.6243 58.014C71.2005 57.7667 70.8566 57.8241 70.5053 58.2007C69.4772 59.3031 69.5971 59.5339 72.2603 61.5759C75.472 64.0386 75.8149 64.184 77.5833 63.8286ZM69.6367 56.3906C69.6367 56.3598 68.9652 55.7814 68.1447 55.1059C66.1173 53.4366 65.6824 52.8136 65.6824 51.5791C65.6824 50.5485 66.3699 49.5527 67.4768 48.9802C68.0264 48.696 69.006 48.6062 69.5604 48.7892C69.9525 48.9185 71.7202 49.8749 74.1714 51.2834L74.6877 51.5801L75.1133 49.5619C75.549 47.495 75.5569 46.9531 75.1536 46.8273C75.0309 46.789 72.6682 46.3597 69.903 45.8732C64.993 45.0093 64.4573 44.9578 64.2287 45.3277C64.107 45.5244 62.239 54.1813 62.2388 54.5495C62.2385 54.7337 62.3321 54.9625 62.447 55.0577C62.5615 55.1528 64.1545 55.499 65.9867 55.8271C69.5267 56.4611 69.6367 56.4781 69.6367 56.3906Z" fill="black"/>
</g>
<rect x="1" y="1" width="110" height="110" rx="9" stroke="black" stroke-opacity="0.1" stroke-width="2"/>
<defs>
<clipPath id="clip0_647_1772">
<rect x="2" y="2" width="108" height="108" rx="8" fill="white"/>
</clipPath>
</defs>
</svg>
