<svg width="112" height="112" viewBox="0 0 112 112" fill="none" xmlns="http://www.w3.org/2000/svg">
<g clip-path="url(#clip0_505_114)">
<rect x="1.99988" y="2" width="108" height="108" rx="8" fill="white"/>
<g clip-path="url(#clip1_505_114)">
<path d="M20.54 49.49H17V61.87H20.53C22.4 61.87 23.76 61.43 24.95 60.44C26.36 59.27 27.2 57.51 27.2 55.69C27.19 52.03 24.46 49.49 20.54 49.49ZM23.36 58.79C22.6 59.47 21.62 59.77 20.06 59.77H19.41V51.59H20.06C21.62 51.59 22.57 51.87 23.36 52.59C24.2 53.33 24.7 54.49 24.7 55.67C24.7 56.85 24.2 58.05 23.36 58.79Z" fill="#231F20"/>
<path d="M30.71 49.49H28.3V61.87H30.71V49.49Z" fill="#231F20"/>
<path d="M36.62 54.24C35.17 53.7 34.75 53.35 34.75 52.68C34.75 51.9 35.51 51.31 36.55 51.31C37.27 51.31 37.87 51.61 38.5 52.31L39.76 50.66C38.72 49.75 37.48 49.29 36.12 49.29C33.93 49.29 32.26 50.81 32.26 52.84C32.26 54.55 33.04 55.42 35.31 56.23C36.25 56.56 36.74 56.79 36.98 56.93C37.46 57.24 37.7 57.69 37.7 58.21C37.7 59.21 36.9 59.96 35.82 59.96C34.67 59.96 33.74 59.38 33.18 58.31L31.62 59.81C32.73 61.44 34.07 62.17 35.91 62.17C38.42 62.17 40.18 60.5 40.18 58.11C40.18 56.14 39.37 55.25 36.62 54.25V54.24Z" fill="#231F20"/>
<path d="M40.94 55.69C40.94 59.33 43.8 62.15 47.47 62.15C48.51 62.15 49.4 61.95 50.5 61.43V58.59C49.53 59.56 48.68 59.95 47.58 59.95C45.15 59.95 43.42 58.19 43.42 55.68C43.42 53.3 45.2 51.43 47.47 51.43C48.62 51.43 49.49 51.84 50.5 52.82V49.97C49.44 49.43 48.57 49.21 47.53 49.21C43.87 49.21 40.94 52.09 40.94 55.69Z" fill="#231F20"/>
<path d="M69.65 57.8L66.35 49.49H63.71L68.96 62.19H70.26L75.61 49.49H72.99L69.65 57.8Z" fill="#231F20"/>
<path d="M76.7 61.87H83.55V59.77H79.11V56.43H83.39V54.33H79.11V51.59H83.55V49.49H76.7V61.87Z" fill="#231F20"/>
<path d="M93.11 53.14C93.11 50.82 91.51 49.49 88.73 49.49H85.15V61.87H87.56V56.9H87.88L91.22 61.87H94.19L90.29 56.65C92.11 56.28 93.11 55.04 93.11 53.14ZM88.27 55.18H87.56V51.44H88.3C89.8 51.44 90.62 52.07 90.62 53.28C90.62 54.49 89.8 55.19 88.26 55.19L88.27 55.18Z" fill="#231F20"/>
<path d="M95.04 50.14C95.04 49.92 94.89 49.8 94.63 49.8H94.28V50.89H94.54V50.47L94.85 50.89H95.17L94.81 50.44C94.96 50.4 95.05 50.29 95.05 50.14H95.04ZM94.58 50.29H94.54V50H94.59C94.72 50 94.79 50.05 94.79 50.14C94.79 50.23 94.72 50.29 94.59 50.29H94.58Z" fill="#231F20"/>
<path d="M94.67 49.39C94.14 49.39 93.72 49.81 93.72 50.34C93.72 50.87 94.15 51.29 94.67 51.29C95.19 51.29 95.61 50.86 95.61 50.34C95.61 49.82 95.19 49.39 94.67 49.39ZM94.67 51.12C94.25 51.12 93.91 50.77 93.91 50.34C93.91 49.91 94.25 49.56 94.67 49.56C95.09 49.56 95.42 49.92 95.42 50.34C95.42 50.76 95.08 51.12 94.67 51.12Z" fill="#231F20"/>
<path d="M64.4 55.67C64.4 59.29 61.47 62.23 57.84 62.23C54.21 62.23 51.28 59.3 51.28 55.67C51.28 52.04 54.22 49.11 57.84 49.11C61.46 49.11 64.4 52.04 64.4 55.67Z" fill="url(#paint0_linear_505_114)"/>
<path style="mix-blend-mode:multiply" opacity="0.65" d="M64.4 55.67C64.4 59.29 61.47 62.23 57.84 62.23C54.21 62.23 51.28 59.3 51.28 55.67C51.28 52.04 54.22 49.11 57.84 49.11C61.46 49.11 64.4 52.04 64.4 55.67Z" fill="url(#paint1_linear_505_114)"/>
<g style="mix-blend-mode:multiply" opacity="0.5">
<mask id="mask0_505_114" style="mask-type:luminance" maskUnits="userSpaceOnUse" x="51" y="49" width="14" height="14">
<path d="M64.4 55.67C64.4 59.29 61.46 62.23 57.84 62.23C54.22 62.23 51.28 59.3 51.28 55.67C51.28 52.04 54.22 49.11 57.84 49.11C61.46 49.11 64.4 52.04 64.4 55.67Z" fill="white"/>
</mask>
<g mask="url(#mask0_505_114)">
<g style="mix-blend-mode:multiply">
<path d="M64.55 55.69C64.55 59.38 61.56 62.38 57.86 62.38C54.16 62.38 51.17 59.39 51.17 55.69C51.17 51.99 54.16 49 57.86 49C61.56 49 64.55 51.99 64.55 55.69Z" fill="#3F1313"/>
</g>
<path d="M57.8701 49C61.5601 49 64.5601 51.99 64.5601 55.69C64.5601 59.39 61.5701 62.38 57.8701 62.38C54.1701 62.38 51.1801 59.39 51.1801 55.69C51.1801 52 54.1701 49 57.8701 49Z" fill="#3F1414"/>
<path d="M57.8701 49.01C61.5601 49.01 64.5601 52 64.5601 55.7C64.5601 59.4 61.5701 62.39 57.8701 62.39C54.1701 62.39 51.1801 59.4 51.1801 55.7C51.1801 52.01 54.1701 49.01 57.8701 49.01Z" fill="#401414"/>
<path d="M57.8801 49.02C61.5701 49.02 64.5701 52.01 64.5701 55.71C64.5701 59.41 61.5801 62.4 57.8801 62.4C54.1801 62.4 51.1901 59.41 51.1901 55.71C51.1901 52.02 54.1901 49.02 57.8801 49.02Z" fill="#401514"/>
<path d="M57.88 49.02C61.57 49.02 64.56 52.01 64.56 55.7C64.56 59.39 61.57 62.38 57.88 62.38C54.19 62.38 51.19 59.39 51.2 55.7C51.2 52.01 54.2 49.01 57.88 49.02Z" fill="#411514"/>
<path d="M57.88 49.03C61.57 49.03 64.56 52.02 64.56 55.71C64.56 59.4 61.57 62.39 57.88 62.39C54.19 62.39 51.19 59.4 51.2 55.71C51.2 52.02 54.2 49.02 57.88 49.03Z" fill="#411615"/>
<path d="M57.89 49.03C61.58 49.03 64.57 52.02 64.57 55.71C64.57 59.4 61.58 62.39 57.89 62.39C54.2 62.39 51.2 59.4 51.21 55.71C51.21 52.02 54.21 49.02 57.89 49.03Z" fill="#421615"/>
<path d="M57.89 49.04C61.58 49.04 64.57 52.03 64.57 55.72C64.57 59.41 61.58 62.4 57.89 62.4C54.2 62.4 51.2 59.41 51.21 55.72C51.21 52.03 54.21 49.03 57.89 49.04Z" fill="#431615"/>
<path d="M57.9001 49.04C61.5901 49.04 64.5801 52.03 64.5801 55.72C64.5801 59.41 61.5901 62.4 57.9001 62.4C54.2101 62.4 51.2101 59.41 51.2201 55.72C51.2201 52.03 54.2201 49.03 57.9001 49.04Z" fill="#431715"/>
<path d="M57.9001 49.05C61.5901 49.05 64.5801 52.04 64.5801 55.73C64.5801 59.42 61.5901 62.41 57.9001 62.41C54.2101 62.41 51.2101 59.42 51.2201 55.73C51.2201 52.04 54.2201 49.04 57.9001 49.05Z" fill="#441716"/>
<path d="M57.9101 49.06C61.6001 49.06 64.5901 52.05 64.5901 55.74C64.5901 59.43 61.6001 62.42 57.9101 62.42C54.2201 62.42 51.2201 59.43 51.2301 55.74C51.2301 52.05 54.2301 49.05 57.9101 49.06Z" fill="#441816"/>
<path d="M57.9101 49.06C61.6001 49.06 64.5901 52.05 64.5901 55.74C64.5901 59.43 61.6001 62.42 57.9101 62.42C54.2201 62.42 51.2201 59.43 51.2301 55.74C51.2301 52.05 54.2301 49.05 57.9101 49.06Z" fill="#451816"/>
<path d="M57.9101 49.07C61.6001 49.07 64.5901 52.06 64.5901 55.75C64.5901 59.44 61.6001 62.43 57.9101 62.43C54.2201 62.43 51.2201 59.44 51.2301 55.75C51.2301 52.06 54.2301 49.06 57.9101 49.07Z" fill="#451816"/>
<path d="M57.92 49.07C61.61 49.07 64.6 52.06 64.6 55.75C64.6 59.44 61.61 62.43 57.92 62.43C54.23 62.43 51.23 59.44 51.24 55.75C51.24 52.06 54.24 49.06 57.92 49.07Z" fill="#461916"/>
<path d="M57.92 49.08C61.61 49.08 64.6 52.07 64.6 55.76C64.6 59.45 61.61 62.44 57.92 62.44C54.23 62.44 51.23 59.45 51.24 55.76C51.24 52.07 54.24 49.07 57.92 49.08Z" fill="#461917"/>
<path d="M57.93 49.08C61.62 49.08 64.61 52.07 64.61 55.76C64.61 59.45 61.62 62.44 57.93 62.44C54.24 62.44 51.24 59.45 51.25 55.76C51.25 52.07 54.25 49.07 57.93 49.08Z" fill="#471917"/>
<path d="M57.93 49.09C61.62 49.09 64.61 52.08 64.61 55.77C64.61 59.46 61.62 62.45 57.93 62.45C54.24 62.45 51.24 59.46 51.25 55.77C51.25 52.08 54.25 49.08 57.93 49.09Z" fill="#481A17"/>
<path d="M57.94 49.09C61.63 49.1 64.62 52.08 64.62 55.77C64.62 59.46 61.63 62.45 57.94 62.45C54.25 62.45 51.25 59.46 51.26 55.77C51.26 52.08 54.26 49.08 57.94 49.09Z" fill="#481A17"/>
<path d="M57.94 49.1C61.63 49.11 64.62 52.09 64.62 55.78C64.62 59.47 61.63 62.46 57.94 62.46C54.25 62.46 51.25 59.47 51.26 55.78C51.27 52.09 54.26 49.09 57.94 49.1Z" fill="#491B17"/>
<path d="M57.95 49.11C61.64 49.12 64.62 52.1 64.62 55.79C64.62 59.48 61.63 62.46 57.95 62.46C54.27 62.46 51.26 59.47 51.27 55.79C51.28 52.1 54.27 49.1 57.95 49.11Z" fill="#491B18"/>
<path d="M57.9501 49.11C61.6401 49.12 64.6201 52.1 64.6201 55.78C64.6201 59.46 61.6301 62.45 57.9501 62.45C54.2701 62.45 51.2601 59.46 51.2801 55.78C51.2901 52.09 54.2801 49.09 57.9501 49.11Z" fill="#4A1B18"/>
<path d="M57.9501 49.12C61.6401 49.13 64.6201 52.11 64.6201 55.79C64.6201 59.47 61.6301 62.46 57.9501 62.46C54.2701 62.46 51.2601 59.47 51.2801 55.79C51.2901 52.1 54.2801 49.1 57.9501 49.12Z" fill="#4A1C18"/>
<path d="M57.96 49.12C61.64 49.13 64.63 52.11 64.63 55.79C64.63 59.47 61.64 62.46 57.96 62.46C54.28 62.46 51.27 59.47 51.29 55.79C51.3 52.1 54.29 49.1 57.96 49.12Z" fill="#4B1C18"/>
<path d="M57.96 49.13C61.64 49.14 64.63 52.12 64.63 55.8C64.63 59.48 61.64 62.47 57.96 62.47C54.28 62.47 51.27 59.48 51.29 55.8C51.3 52.11 54.3 49.11 57.96 49.13Z" fill="#4C1D18"/>
<path d="M57.97 49.13C61.65 49.14 64.64 52.12 64.64 55.8C64.64 59.48 61.65 62.47 57.97 62.47C54.29 62.47 51.28 59.48 51.3 55.8C51.31 52.11 54.31 49.11 57.97 49.13Z" fill="#4C1D19"/>
<path d="M57.9701 49.14C61.6501 49.16 64.6401 52.13 64.6401 55.81C64.6401 59.49 61.6501 62.48 57.9701 62.48C54.2901 62.48 51.2901 59.49 51.3001 55.81C51.3101 52.12 54.3101 49.12 57.9701 49.14Z" fill="#4D1D19"/>
<path d="M57.98 49.15C61.66 49.17 64.65 52.14 64.65 55.82C64.65 59.5 61.66 62.49 57.98 62.49C54.3 62.49 51.3 59.5 51.31 55.82C51.32 52.13 54.32 49.13 57.98 49.15Z" fill="#4D1E19"/>
<path d="M57.98 49.15C61.66 49.17 64.65 52.14 64.65 55.82C64.65 59.5 61.66 62.49 57.98 62.49C54.3 62.49 51.3 59.5 51.31 55.82C51.33 52.13 54.32 49.13 57.98 49.15Z" fill="#4E1E19"/>
<path d="M57.98 49.16C61.66 49.18 64.65 52.15 64.65 55.83C64.65 59.51 61.66 62.5 57.98 62.5C54.3 62.5 51.3 59.51 51.31 55.83C51.33 52.14 54.32 49.14 57.98 49.16Z" fill="#4E1E19"/>
<path d="M57.99 49.16C61.67 49.18 64.66 52.15 64.66 55.83C64.66 59.51 61.67 62.5 57.99 62.5C54.31 62.5 51.31 59.51 51.32 55.83C51.34 52.14 54.33 49.14 57.99 49.16Z" fill="#4F1F1A"/>
<path d="M57.99 49.17C61.67 49.19 64.66 52.16 64.66 55.84C64.66 59.52 61.67 62.51 57.99 62.51C54.31 62.51 51.31 59.52 51.32 55.84C51.34 52.15 54.33 49.15 57.99 49.17Z" fill="#501F1A"/>
<path d="M58 49.17C61.68 49.19 64.67 52.16 64.67 55.84C64.67 59.52 61.68 62.51 58 62.51C54.32 62.51 51.32 59.53 51.33 55.84C51.35 52.15 54.34 49.15 58 49.17Z" fill="#50201A"/>
<path d="M58 49.18C61.68 49.2 64.67 52.16 64.67 55.85C64.67 59.54 61.69 62.52 58 62.52C54.31 62.52 51.32 59.54 51.33 55.85C51.35 52.15 54.34 49.16 58 49.18Z" fill="#51201A"/>
<path d="M58.01 49.18C61.6901 49.2 64.6801 52.16 64.6801 55.85C64.6801 59.54 61.7001 62.52 58.01 62.52C54.32 62.52 51.3301 59.54 51.3401 55.85C51.3601 52.15 54.35 49.16 58.01 49.18Z" fill="#51201A"/>
<path d="M58.01 49.19C61.6901 49.21 64.67 52.17 64.67 55.86C64.67 59.55 61.6901 62.52 58.01 62.52C54.33 62.52 51.3301 59.54 51.3401 55.86C51.3601 52.16 54.35 49.17 58.01 49.19Z" fill="#52211A"/>
<path d="M58.02 49.2C61.7 49.22 64.68 52.18 64.68 55.86C64.68 59.54 61.7 62.52 58.02 62.52C54.34 62.52 51.34 59.54 51.36 55.86C51.38 52.16 54.37 49.17 58.02 49.2Z" fill="#52211B"/>
<path d="M58.02 49.2C61.7 49.22 64.68 52.18 64.68 55.86C64.68 59.54 61.7 62.52 58.02 62.52C54.34 62.52 51.34 59.54 51.36 55.86C51.38 52.16 54.37 49.17 58.02 49.2Z" fill="#53211B"/>
<path d="M58.02 49.21C61.7 49.23 64.68 52.19 64.68 55.87C64.68 59.55 61.7 62.53 58.02 62.53C54.34 62.53 51.34 59.55 51.36 55.87C51.38 52.17 54.37 49.18 58.02 49.21Z" fill="#54221B"/>
<path d="M58.03 49.21C61.71 49.23 64.69 52.19 64.69 55.87C64.69 59.55 61.71 62.53 58.03 62.53C54.35 62.53 51.35 59.55 51.37 55.87C51.39 52.17 54.38 49.18 58.03 49.21Z" fill="#54221B"/>
<path d="M58.03 49.22C61.71 49.24 64.69 52.2 64.69 55.88C64.69 59.56 61.71 62.54 58.03 62.54C54.35 62.54 51.35 59.56 51.37 55.88C51.39 52.18 54.38 49.19 58.03 49.22Z" fill="#55221B"/>
<path d="M58.04 49.22C61.72 49.24 64.7 52.2 64.7 55.88C64.7 59.56 61.72 62.54 58.04 62.54C54.36 62.54 51.36 59.56 51.38 55.88C51.4 52.18 54.39 49.19 58.04 49.22Z" fill="#55231B"/>
<path d="M58.04 49.23C61.72 49.26 64.7 52.21 64.7 55.89C64.7 59.57 61.72 62.55 58.04 62.55C54.36 62.55 51.36 59.57 51.38 55.89C51.4 52.19 54.39 49.2 58.04 49.23Z" fill="#56231C"/>
<path d="M58.0501 49.23C61.7301 49.26 64.7101 52.21 64.7101 55.89C64.7101 59.57 61.7301 62.55 58.0501 62.55C54.3701 62.55 51.3701 59.57 51.3901 55.89C51.4101 52.19 54.4101 49.2 58.0501 49.23Z" fill="#57231C"/>
<path d="M58.0501 49.24C61.7301 49.27 64.7101 52.22 64.7101 55.9C64.7101 59.58 61.7301 62.56 58.0501 62.56C54.3701 62.56 51.3701 59.58 51.3901 55.9C51.4101 52.2 54.4101 49.22 58.0501 49.24Z" fill="#57241C"/>
<path d="M58.0501 49.25C61.7301 49.28 64.7101 52.23 64.7101 55.91C64.7101 59.59 61.7301 62.57 58.0501 62.57C54.3701 62.57 51.3701 59.59 51.3901 55.91C51.4101 52.21 54.4101 49.23 58.0501 49.25Z" fill="#58241C"/>
<path d="M58.0601 49.25C61.7401 49.28 64.7201 52.23 64.7201 55.91C64.7201 59.59 61.7401 62.57 58.0601 62.57C54.3801 62.57 51.3801 59.59 51.4001 55.91C51.4301 52.21 54.4201 49.23 58.0601 49.25Z" fill="#58241C"/>
<path d="M58.0601 49.26C61.7401 49.29 64.7201 52.24 64.7201 55.92C64.7201 59.6 61.7401 62.58 58.0601 62.58C54.3801 62.58 51.3801 59.6 51.4001 55.92C51.4301 52.22 54.4201 49.24 58.0601 49.26Z" fill="#59251C"/>
<path d="M58.0701 49.26C61.7501 49.29 64.7301 52.24 64.7301 55.92C64.7301 59.6 61.7501 62.58 58.0701 62.58C54.3901 62.58 51.3901 59.6 51.4101 55.92C51.4401 52.22 54.4301 49.24 58.0701 49.26Z" fill="#59251C"/>
<path d="M58.0701 49.27C61.7501 49.3 64.7301 52.25 64.7301 55.93C64.7301 59.61 61.7501 62.59 58.0701 62.59C54.3901 62.59 51.3901 59.61 51.4101 55.93C51.4401 52.23 54.4301 49.25 58.0701 49.27Z" fill="#5A251D"/>
<path d="M58.08 49.27C61.75 49.3 64.74 52.25 64.74 55.93C64.74 59.61 61.76 62.59 58.08 62.59C54.4 62.59 51.4 59.61 51.42 55.93C51.45 52.23 54.44 49.25 58.08 49.27Z" fill="#5B261D"/>
<path d="M58.08 49.28C61.75 49.31 64.73 52.26 64.73 55.93C64.73 59.6 61.75 62.58 58.08 62.58C54.41 62.58 51.4 59.6 51.43 55.93C51.46 52.23 54.45 49.25 58.08 49.28Z" fill="#5B261D"/>
<path d="M58.09 49.28C61.76 49.31 64.74 52.26 64.74 55.93C64.74 59.6 61.76 62.58 58.09 62.58C54.42 62.58 51.41 59.6 51.44 55.93C51.47 52.23 54.46 49.25 58.09 49.28Z" fill="#5C261D"/>
<path d="M58.09 49.29C61.76 49.32 64.74 52.27 64.74 55.94C64.74 59.61 61.76 62.59 58.09 62.59C54.42 62.59 51.41 59.61 51.44 55.94C51.47 52.24 54.46 49.26 58.09 49.29Z" fill="#5C271D"/>
<path d="M58.09 49.3C61.76 49.33 64.74 52.28 64.74 55.95C64.74 59.62 61.76 62.6 58.09 62.6C54.42 62.6 51.41 59.62 51.44 55.95C51.47 52.25 54.46 49.27 58.09 49.3Z" fill="#5D271D"/>
<path d="M58.1 49.3C61.77 49.33 64.7501 52.28 64.7501 55.95C64.7501 59.62 61.77 62.6 58.1 62.6C54.43 62.6 51.4201 59.62 51.4501 55.95C51.4801 52.25 54.47 49.27 58.1 49.3Z" fill="#5E281D"/>
<path d="M58.1 49.31C61.77 49.34 64.7501 52.29 64.7501 55.96C64.7501 59.63 61.77 62.61 58.1 62.61C54.43 62.61 51.4201 59.63 51.4501 55.96C51.4801 52.26 54.47 49.28 58.1 49.31Z" fill="#5E281D"/>
<path d="M58.1101 49.31C61.7801 49.34 64.7601 52.29 64.7601 55.96C64.7601 59.63 61.7801 62.61 58.1101 62.61C54.4401 62.61 51.4301 59.63 51.4601 55.96C51.4901 52.26 54.4801 49.28 58.1101 49.31Z" fill="#5F281E"/>
<path d="M58.1101 49.32C61.7801 49.36 64.7601 52.3 64.7601 55.97C64.7601 59.64 61.7801 62.62 58.1101 62.62C54.4401 62.62 51.4301 59.64 51.4601 55.97C51.4901 52.27 54.4801 49.29 58.1101 49.32Z" fill="#5F291E"/>
<path d="M58.1201 49.32C61.7901 49.36 64.7701 52.3 64.7701 55.97C64.7701 59.64 61.7901 62.62 58.1201 62.62C54.4501 62.62 51.4401 59.64 51.4701 55.97C51.5001 52.27 54.4901 49.29 58.1201 49.32Z" fill="#60291E"/>
<path d="M58.1201 49.33C61.7901 49.37 64.7701 52.31 64.7701 55.98C64.7701 59.65 61.7901 62.63 58.1201 62.63C54.4501 62.63 51.4401 59.65 51.4701 55.98C51.5001 52.28 54.4901 49.3 58.1201 49.33Z" fill="#61291E"/>
<path d="M58.1201 49.33C61.7901 49.37 64.7701 52.31 64.7701 55.98C64.7701 59.65 61.7901 62.63 58.1201 62.63C54.4501 62.63 51.4401 59.65 51.4701 55.98C51.5001 52.28 54.4901 49.3 58.1201 49.33Z" fill="#612A1E"/>
<path d="M58.13 49.34C61.8 49.38 64.78 52.32 64.78 55.99C64.78 59.66 61.8 62.64 58.13 62.64C54.46 62.64 51.45 59.66 51.48 55.99C51.51 52.29 54.5 49.31 58.13 49.34Z" fill="#622A1E"/>
<path d="M58.13 49.35C61.8 49.39 64.78 52.33 64.78 56C64.78 59.67 61.8 62.65 58.13 62.65C54.46 62.65 51.45 59.67 51.48 56C51.51 52.3 54.51 49.32 58.13 49.35Z" fill="#632A1E"/>
<path d="M58.14 49.35C61.81 49.39 64.79 52.33 64.79 56C64.79 59.67 61.81 62.65 58.14 62.65C54.47 62.65 51.46 59.67 51.49 56C51.53 52.3 54.52 49.32 58.14 49.35Z" fill="#632B1F"/>
<path d="M58.14 49.36C61.81 49.4 64.79 52.34 64.79 56.01C64.79 59.68 61.81 62.66 58.14 62.66C54.47 62.66 51.46 59.68 51.49 56.01C51.53 52.31 54.52 49.33 58.14 49.36Z" fill="#642B1F"/>
<path d="M58.15 49.36C61.82 49.4 64.79 52.34 64.79 56C64.79 59.66 61.81 62.64 58.15 62.64C54.49 62.64 51.47 59.66 51.5 56C51.54 52.3 54.53 49.32 58.15 49.36Z" fill="#642B1F"/>
<path d="M58.15 49.37C61.82 49.41 64.79 52.34 64.79 56.01C64.79 59.68 61.82 62.65 58.15 62.65C54.48 62.65 51.47 59.68 51.51 56.01C51.55 52.31 54.54 49.33 58.15 49.37Z" fill="#652C1F"/>
<path d="M58.15 49.37C61.82 49.41 64.79 52.34 64.79 56.01C64.79 59.68 61.82 62.65 58.15 62.65C54.48 62.65 51.47 59.68 51.51 56.01C51.55 52.31 54.54 49.33 58.15 49.37Z" fill="#662C1F"/>
<path d="M58.16 49.38C61.83 49.42 64.8 52.35 64.8 56.02C64.8 59.69 61.83 62.66 58.16 62.66C54.49 62.66 51.48 59.69 51.52 56.02C51.56 52.32 54.55 49.34 58.16 49.38Z" fill="#662C1F"/>
<path d="M58.16 49.39C61.83 49.43 64.8 52.36 64.8 56.03C64.8 59.7 61.83 62.67 58.16 62.67C54.49 62.67 51.48 59.7 51.52 56.03C51.56 52.33 54.55 49.35 58.16 49.39Z" fill="#672D1F"/>
<path d="M58.1701 49.39C61.8401 49.43 64.8101 52.36 64.8101 56.03C64.8101 59.7 61.8401 62.67 58.1701 62.67C54.5001 62.67 51.4901 59.7 51.5301 56.03C51.5701 52.33 54.5601 49.35 58.1701 49.39Z" fill="#682D1F"/>
<path d="M58.1701 49.4C61.8401 49.44 64.8101 52.37 64.8101 56.04C64.8101 59.71 61.8401 62.68 58.1701 62.68C54.5001 62.68 51.4901 59.71 51.5301 56.04C51.5701 52.34 54.5601 49.36 58.1701 49.4Z" fill="#682D20"/>
<path d="M58.1801 49.4C61.8501 49.44 64.8201 52.37 64.8201 56.04C64.8201 59.71 61.8501 62.68 58.1801 62.68C54.5101 62.68 51.5001 59.71 51.5401 56.04C51.5801 52.34 54.5701 49.36 58.1801 49.4Z" fill="#692E20"/>
<path d="M58.1801 49.41C61.8501 49.46 64.8201 52.38 64.8201 56.05C64.8201 59.72 61.8501 62.69 58.1801 62.69C54.5101 62.69 51.5001 59.72 51.5401 56.05C51.5801 52.35 54.5701 49.37 58.1801 49.41Z" fill="#692E20"/>
<path d="M58.1901 49.41C61.8601 49.46 64.8301 52.38 64.8301 56.05C64.8301 59.72 61.8601 62.69 58.1901 62.69C54.5201 62.69 51.5101 59.72 51.5501 56.05C51.5901 52.35 54.5801 49.37 58.1901 49.41Z" fill="#6A2E20"/>
<path d="M58.1901 49.42C61.8601 49.47 64.8301 52.39 64.8301 56.06C64.8301 59.73 61.8601 62.7 58.1901 62.7C54.5201 62.7 51.5101 59.73 51.5501 56.06C51.5901 52.36 54.5801 49.38 58.1901 49.42Z" fill="#6B2F20"/>
<path d="M58.1901 49.42C61.8501 49.47 64.8301 52.39 64.8301 56.06C64.8301 59.73 61.8601 62.7 58.1901 62.7C54.5201 62.7 51.5101 59.73 51.5501 56.06C51.5901 52.36 54.5801 49.38 58.1901 49.42Z" fill="#6B2F20"/>
<path d="M58.2 49.43C61.86 49.48 64.84 52.4 64.84 56.07C64.84 59.74 61.87 62.71 58.2 62.71C54.53 62.71 51.52 59.74 51.56 56.07C51.6 52.37 54.59 49.39 58.2 49.43Z" fill="#6C2F20"/>
<path d="M58.2 49.44C61.86 49.49 64.84 52.41 64.84 56.08C64.84 59.75 61.87 62.72 58.2 62.72C54.53 62.72 51.52 59.75 51.56 56.08C51.6 52.38 54.59 49.4 58.2 49.44Z" fill="#6D3020"/>
<path d="M58.21 49.44C61.87 49.49 64.85 52.41 64.85 56.08C64.85 59.75 61.88 62.72 58.21 62.72C54.54 62.72 51.53 59.75 51.57 56.08C51.61 52.38 54.6 49.4 58.21 49.44Z" fill="#6D3020"/>
<path d="M58.21 49.45C61.87 49.5 64.84 52.42 64.84 56.09C64.84 59.76 61.87 62.73 58.21 62.73C54.55 62.73 51.53 59.76 51.57 56.09C51.61 52.39 54.6 49.41 58.21 49.45Z" fill="#6E3021"/>
<path d="M58.22 49.45C61.88 49.5 64.85 52.42 64.85 56.08C64.85 59.74 61.88 62.71 58.22 62.71C54.56 62.71 51.54 59.74 51.59 56.08C51.64 52.38 54.63 49.4 58.22 49.45Z" fill="#6F3121"/>
<path d="M58.22 49.46C61.88 49.51 64.85 52.43 64.85 56.09C64.85 59.75 61.88 62.72 58.22 62.72C54.56 62.72 51.54 59.75 51.59 56.09C51.64 52.39 54.63 49.41 58.22 49.46Z" fill="#6F3121"/>
<path d="M58.22 49.46C61.88 49.51 64.85 52.43 64.85 56.09C64.85 59.75 61.88 62.72 58.22 62.72C54.56 62.72 51.54 59.75 51.59 56.09C51.64 52.39 54.63 49.41 58.22 49.46Z" fill="#703121"/>
<path d="M58.23 49.47C61.89 49.52 64.86 52.44 64.86 56.1C64.86 59.76 61.89 62.73 58.23 62.73C54.57 62.73 51.55 59.76 51.6 56.1C51.65 52.4 54.64 49.42 58.23 49.47Z" fill="#713221"/>
<path d="M58.23 49.47C61.89 49.52 64.86 52.44 64.86 56.1C64.86 59.76 61.89 62.73 58.23 62.73C54.57 62.73 51.55 59.76 51.6 56.1C51.65 52.4 54.64 49.42 58.23 49.47Z" fill="#713221"/>
<path d="M58.24 49.48C61.9 49.53 64.87 52.45 64.87 56.11C64.87 59.77 61.9 62.74 58.24 62.74C54.58 62.74 51.56 59.77 51.61 56.11C51.66 52.41 54.65 49.43 58.24 49.48Z" fill="#723221"/>
<path d="M58.24 49.49C61.9 49.54 64.87 52.46 64.87 56.12C64.87 59.78 61.9 62.75 58.24 62.75C54.58 62.75 51.56 59.78 51.61 56.12C51.66 52.42 54.65 49.44 58.24 49.49Z" fill="#733321"/>
<path d="M58.2501 49.49C61.9101 49.54 64.8801 52.46 64.8801 56.12C64.8801 59.78 61.9101 62.75 58.2501 62.75C54.5901 62.75 51.5701 59.78 51.6201 56.12C51.6701 52.42 54.6601 49.44 58.2501 49.49Z" fill="#733321"/>
<path d="M58.2501 49.5C61.9101 49.56 64.8801 52.47 64.8801 56.13C64.8801 59.79 61.9101 62.76 58.2501 62.76C54.5901 62.76 51.5701 59.79 51.6201 56.13C51.6701 52.43 54.6601 49.45 58.2501 49.5Z" fill="#743321"/>
<path d="M58.2601 49.5C61.9201 49.56 64.8901 52.47 64.8901 56.13C64.8901 59.79 61.9201 62.76 58.2601 62.76C54.6001 62.76 51.5801 59.79 51.6301 56.13C51.6801 52.43 54.6701 49.45 58.2601 49.5Z" fill="#753422"/>
<path d="M58.2601 49.51C61.9201 49.57 64.8901 52.48 64.8901 56.14C64.8901 59.8 61.9201 62.77 58.2601 62.77C54.6001 62.77 51.5801 59.8 51.6301 56.14C51.6801 52.44 54.6701 49.46 58.2601 49.51Z" fill="#753422"/>
<path d="M58.2601 49.51C61.9201 49.57 64.8901 52.48 64.8901 56.14C64.8901 59.8 61.9201 62.77 58.2601 62.77C54.6001 62.77 51.5801 59.8 51.6301 56.14C51.6801 52.44 54.6701 49.46 58.2601 49.51Z" fill="#763522"/>
<path d="M58.27 49.52C61.93 49.58 64.9 52.49 64.9 56.15C64.9 59.81 61.93 62.78 58.27 62.78C54.61 62.78 51.59 59.81 51.64 56.15C51.69 52.45 54.68 49.47 58.27 49.52Z" fill="#773522"/>
<path d="M58.27 49.52C61.93 49.58 64.9 52.49 64.9 56.15C64.9 59.81 61.93 62.78 58.27 62.78C54.61 62.78 51.59 59.81 51.64 56.15C51.69 52.45 54.68 49.47 58.27 49.52Z" fill="#773522"/>
<path d="M58.28 49.53C61.94 49.59 64.91 52.5 64.91 56.16C64.91 59.82 61.94 62.79 58.28 62.79C54.62 62.79 51.6 59.82 51.65 56.16C51.7 52.46 54.69 49.48 58.28 49.53Z" fill="#783622"/>
<path d="M58.2801 49.54C61.9401 49.6 64.9001 52.51 64.9001 56.16C64.9001 59.81 61.9301 62.78 58.2801 62.78C54.6301 62.78 51.6001 59.81 51.6601 56.16C51.7101 52.46 54.7001 49.48 58.2801 49.54Z" fill="#793622"/>
<path d="M58.2901 49.54C61.9501 49.6 64.9101 52.51 64.9101 56.16C64.9101 59.81 61.9401 62.78 58.2901 62.78C54.6401 62.78 51.6101 59.81 51.6701 56.16C51.7201 52.46 54.7101 49.48 58.2901 49.54Z" fill="#793622"/>
<path d="M58.2901 49.55C61.9501 49.61 64.9101 52.52 64.9101 56.17C64.9101 59.82 61.9401 62.79 58.2901 62.79C54.6401 62.79 51.6101 59.82 51.6701 56.17C51.7301 52.47 54.7101 49.49 58.2901 49.55Z" fill="#7A3722"/>
<path d="M58.2901 49.55C61.9501 49.61 64.9101 52.52 64.9101 56.17C64.9101 59.82 61.9401 62.79 58.2901 62.79C54.6401 62.79 51.6101 59.82 51.6701 56.17C51.7301 52.47 54.7101 49.49 58.2901 49.55Z" fill="#7B3722"/>
<path d="M58.3001 49.56C61.9601 49.62 64.9201 52.52 64.9201 56.18C64.9201 59.84 61.9601 62.8 58.3001 62.8C54.6401 62.8 51.6201 59.83 51.6801 56.18C51.7401 52.48 54.7201 49.5 58.3001 49.56Z" fill="#7B3723"/>
<path d="M58.3001 49.56C61.9601 49.62 64.9201 52.52 64.9201 56.18C64.9201 59.84 61.9601 62.8 58.3001 62.8C54.6401 62.8 51.6201 59.83 51.6801 56.18C51.7401 52.48 54.7301 49.5 58.3001 49.56Z" fill="#7C3823"/>
<path d="M58.31 49.57C61.97 49.63 64.93 52.53 64.93 56.19C64.93 59.85 61.97 62.81 58.31 62.81C54.65 62.81 51.63 59.85 51.69 56.19C51.75 52.49 54.74 49.51 58.31 49.57Z" fill="#7D3823"/>
<path d="M58.31 49.57C61.96 49.63 64.93 52.53 64.93 56.19C64.93 59.85 61.97 62.81 58.31 62.81C54.65 62.81 51.63 59.85 51.69 56.19C51.75 52.49 54.74 49.51 58.31 49.57Z" fill="#7E3823"/>
<path d="M58.32 49.58C61.97 49.64 64.94 52.54 64.94 56.2C64.94 59.86 61.98 62.82 58.32 62.82C54.66 62.82 51.64 59.86 51.7 56.2C51.76 52.5 54.75 49.52 58.32 49.58Z" fill="#7E3923"/>
<path d="M58.32 49.59C61.97 49.66 64.94 52.55 64.94 56.21C64.94 59.87 61.98 62.83 58.32 62.83C54.66 62.83 51.64 59.87 51.7 56.21C51.76 52.51 54.75 49.53 58.32 49.59Z" fill="#7F3923"/>
<path d="M58.32 49.59C61.97 49.66 64.94 52.55 64.94 56.21C64.94 59.87 61.98 62.83 58.32 62.83C54.66 62.83 51.64 59.87 51.7 56.21C51.76 52.51 54.75 49.53 58.32 49.59Z" fill="#803923"/>
<path d="M58.33 49.6C61.98 49.67 64.95 52.56 64.95 56.22C64.95 59.88 61.99 62.84 58.33 62.84C54.67 62.84 51.65 59.88 51.71 56.22C51.77 52.52 54.76 49.54 58.33 49.6Z" fill="#803A23"/>
<path d="M58.33 49.6C61.98 49.67 64.95 52.56 64.95 56.22C64.95 59.88 61.99 62.84 58.33 62.84C54.67 62.84 51.65 59.88 51.71 56.22C51.77 52.52 54.76 49.54 58.33 49.6Z" fill="#813A23"/>
<path d="M58.3401 49.61C61.9901 49.68 64.9601 52.57 64.9601 56.23C64.9601 59.89 62.0001 62.85 58.3401 62.85C54.6801 62.85 51.6601 59.89 51.7201 56.23C51.7801 52.53 54.7701 49.55 58.3401 49.61Z" fill="#823A23"/>
<path d="M58.3401 49.61C61.9901 49.68 64.9601 52.57 64.9601 56.23C64.9601 59.89 62.0001 62.85 58.3401 62.85C54.6801 62.85 51.6601 59.89 51.7201 56.23C51.7801 52.53 54.7701 49.55 58.3401 49.61Z" fill="#823B23"/>
<path d="M58.3501 49.62C62.0001 49.69 64.9601 52.58 64.9601 56.23C64.9601 59.88 62.0001 62.84 58.3501 62.84C54.7001 62.84 51.6701 59.88 51.7301 56.23C51.7901 52.53 54.7801 49.55 58.3501 49.62Z" fill="#833B23"/>
<path d="M58.35 49.63C62 49.7 64.96 52.59 64.96 56.24C64.96 59.89 62 62.85 58.35 62.85C54.7 62.85 51.67 59.89 51.74 56.24C51.8 52.54 54.79 49.56 58.35 49.63Z" fill="#843B24"/>
<path d="M58.36 49.63C62.01 49.7 64.97 52.59 64.97 56.24C64.97 59.89 62.01 62.85 58.36 62.85C54.71 62.85 51.68 59.89 51.75 56.24C51.81 52.54 54.8 49.56 58.36 49.63Z" fill="#853C24"/>
<path d="M58.36 49.64C62.01 49.71 64.97 52.6 64.97 56.25C64.97 59.9 62.01 62.86 58.36 62.86C54.71 62.86 51.68 59.9 51.75 56.25C51.81 52.55 54.8 49.57 58.36 49.64Z" fill="#853C24"/>
<path d="M58.36 49.64C62.01 49.71 64.97 52.6 64.97 56.25C64.97 59.9 62.01 62.86 58.36 62.86C54.71 62.86 51.68 59.9 51.75 56.25C51.81 52.55 54.8 49.57 58.36 49.64Z" fill="#863D24"/>
<path d="M58.37 49.65C62.02 49.72 64.98 52.61 64.98 56.26C64.98 59.91 62.02 62.87 58.37 62.87C54.72 62.87 51.69 59.91 51.76 56.26C51.83 52.56 54.81 49.58 58.37 49.65Z" fill="#873D24"/>
<path d="M58.37 49.65C62.02 49.72 64.98 52.61 64.98 56.26C64.98 59.91 62.02 62.87 58.37 62.87C54.72 62.87 51.69 59.91 51.76 56.26C51.83 52.56 54.81 49.58 58.37 49.65Z" fill="#883D24"/>
<path d="M58.38 49.66C62.0301 49.73 64.9901 52.62 64.9901 56.27C64.9901 59.92 62.0301 62.88 58.38 62.88C54.73 62.88 51.7 59.92 51.77 56.27C51.84 52.57 54.82 49.59 58.38 49.66Z" fill="#883E24"/>
<path d="M58.38 49.66C62.0301 49.73 64.9901 52.62 64.9901 56.27C64.9901 59.92 62.0301 62.88 58.38 62.88C54.73 62.88 51.7 59.92 51.77 56.27C51.84 52.57 54.82 49.59 58.38 49.66Z" fill="#893E24"/>
<path d="M58.3901 49.67C62.0401 49.74 65.0001 52.63 65.0001 56.28C65.0001 59.93 62.0401 62.89 58.3901 62.89C54.7401 62.89 51.7101 59.93 51.7801 56.28C51.8501 52.58 54.8401 49.6 58.3901 49.67Z" fill="#8A3E24"/>
<path d="M58.3901 49.68C62.0401 49.76 65.0001 52.64 65.0001 56.29C65.0001 59.94 62.0401 62.9 58.3901 62.9C54.7401 62.9 51.7201 59.94 51.7801 56.29C51.8501 52.59 54.8401 49.61 58.3901 49.68Z" fill="#8A3F24"/>
<path d="M58.3901 49.68C62.0401 49.76 65.0001 52.64 65.0001 56.29C65.0001 59.94 62.0401 62.9 58.3901 62.9C54.7401 62.9 51.7201 59.94 51.7801 56.29C51.8501 52.59 54.8401 49.61 58.3901 49.68Z" fill="#8B3F24"/>
<path d="M58.4001 49.69C62.0501 49.77 65.0101 52.65 65.0101 56.3C65.0101 59.95 62.0501 62.91 58.4001 62.91C54.7501 62.91 51.7301 59.95 51.7901 56.3C51.8601 52.6 54.8501 49.62 58.4001 49.69Z" fill="#8C3F24"/>
<path d="M58.4001 49.69C62.0501 49.77 65.0101 52.65 65.0101 56.3C65.0101 59.95 62.0501 62.91 58.4001 62.91C54.7501 62.91 51.7301 59.95 51.7901 56.3C51.8601 52.6 54.8501 49.62 58.4001 49.69Z" fill="#8D4024"/>
<path d="M58.4101 49.7C62.0601 49.78 65.0201 52.66 65.0201 56.31C65.0201 59.96 62.0601 62.92 58.4101 62.92C54.7601 62.92 51.7401 59.96 51.8001 56.31C51.8701 52.61 54.8601 49.63 58.4101 49.7Z" fill="#8D4024"/>
<path d="M58.4101 49.7C62.0601 49.78 65.0101 52.66 65.0101 56.3C65.0101 59.94 62.0501 62.91 58.4101 62.91C54.7701 62.91 51.7401 59.95 51.8001 56.3C51.8701 52.6 54.8601 49.62 58.4101 49.7Z" fill="#8E4025"/>
<path d="M58.42 49.71C62.07 49.79 65.02 52.67 65.02 56.31C65.02 59.95 62.06 62.91 58.42 62.91C54.78 62.91 51.75 59.95 51.82 56.31C51.89 52.61 54.88 49.63 58.42 49.71Z" fill="#8F4125"/>
<path d="M58.42 49.71C62.07 49.79 65.02 52.67 65.02 56.31C65.02 59.95 62.06 62.91 58.42 62.91C54.78 62.91 51.75 59.95 51.82 56.31C51.89 52.61 54.88 49.63 58.42 49.71Z" fill="#904125"/>
<path d="M58.43 49.72C62.08 49.8 65.03 52.68 65.03 56.32C65.03 59.96 62.07 62.92 58.43 62.92C54.79 62.92 51.76 59.96 51.83 56.32C51.9 52.62 54.89 49.64 58.43 49.72Z" fill="#904125"/>
<path d="M58.43 49.73C62.07 49.81 65.03 52.69 65.03 56.33C65.03 59.97 62.07 62.93 58.43 62.93C54.79 62.93 51.76 59.97 51.83 56.33C51.9 52.63 54.89 49.65 58.43 49.73Z" fill="#914225"/>
<path d="M58.43 49.73C62.07 49.81 65.03 52.69 65.03 56.33C65.03 59.97 62.07 62.93 58.43 62.93C54.79 62.93 51.76 59.97 51.83 56.33C51.9 52.63 54.89 49.65 58.43 49.73Z" fill="#924225"/>
<path d="M58.4401 49.74C62.0801 49.82 65.0401 52.7 65.0401 56.34C65.0401 59.98 62.0801 62.94 58.4401 62.94C54.8001 62.94 51.7701 59.98 51.8401 56.34C51.9101 52.64 54.9001 49.66 58.4401 49.74Z" fill="#934325"/>
<path d="M58.4401 49.74C62.0801 49.82 65.0401 52.69 65.0401 56.34C65.0401 59.99 62.0901 62.94 58.4401 62.94C54.7901 62.94 51.7701 59.98 51.8401 56.34C51.9101 52.64 54.9001 49.66 58.4401 49.74Z" fill="#934325"/>
<path d="M58.4501 49.75C62.0901 49.83 65.0501 52.7 65.0501 56.35C65.0501 60 62.1001 62.95 58.4501 62.95C54.8001 62.95 51.7801 59.99 51.8501 56.35C51.9301 52.65 54.9101 49.67 58.4501 49.75Z" fill="#944325"/>
<path d="M58.4501 49.75C62.0901 49.83 65.0501 52.7 65.0501 56.35C65.0501 60 62.1001 62.95 58.4501 62.95C54.8001 62.95 51.7801 59.99 51.8501 56.35C51.9301 52.65 54.9101 49.67 58.4501 49.75Z" fill="#954425"/>
<path d="M58.46 49.76C62.1 49.84 65.06 52.71 65.06 56.36C65.06 60.01 62.11 62.96 58.46 62.96C54.81 62.96 51.79 60 51.86 56.36C51.94 52.66 54.92 49.68 58.46 49.76Z" fill="#964425"/>
<path d="M58.46 49.76C62.1 49.85 65.06 52.71 65.06 56.36C65.06 60.01 62.11 62.96 58.46 62.96C54.81 62.96 51.79 60.01 51.86 56.36C51.94 52.66 54.92 49.68 58.46 49.76Z" fill="#974425"/>
<path d="M58.46 49.77C62.1 49.86 65.06 52.72 65.06 56.37C65.06 60.02 62.11 62.97 58.46 62.97C54.81 62.97 51.79 60.02 51.86 56.37C51.94 52.67 54.92 49.69 58.46 49.77Z" fill="#974525"/>
<path d="M58.47 49.78C62.11 49.87 65.07 52.73 65.07 56.38C65.07 60.03 62.12 62.98 58.47 62.98C54.82 62.98 51.8 60.03 51.87 56.38C51.95 52.68 54.93 49.7 58.47 49.78Z" fill="#984525"/>
<path d="M58.47 49.78C62.11 49.87 65.07 52.73 65.07 56.38C65.07 60.03 62.12 62.98 58.47 62.98C54.82 62.98 51.8 60.03 51.87 56.38C51.95 52.68 54.94 49.7 58.47 49.78Z" fill="#994525"/>
<path d="M58.48 49.79C62.12 49.88 65.08 52.74 65.08 56.39C65.08 60.04 62.13 62.99 58.48 62.99C54.83 62.99 51.81 60.04 51.88 56.39C51.96 52.69 54.95 49.71 58.48 49.79Z" fill="#9A4625"/>
<path d="M58.48 49.79C62.12 49.88 65.07 52.74 65.07 56.38C65.07 60.02 62.12 62.97 58.48 62.97C54.84 62.97 51.81 60.02 51.89 56.38C51.97 52.68 54.96 49.7 58.48 49.79Z" fill="#9A4625"/>
<path d="M58.49 49.8C62.13 49.89 65.08 52.75 65.08 56.39C65.08 60.03 62.13 62.98 58.49 62.98C54.85 62.98 51.82 60.03 51.9 56.39C51.98 52.69 54.97 49.71 58.49 49.8Z" fill="#9B4625"/>
<path d="M58.49 49.8C62.13 49.89 65.08 52.75 65.08 56.39C65.08 60.03 62.13 62.98 58.49 62.98C54.85 62.98 51.82 60.03 51.9 56.39C51.98 52.69 54.97 49.71 58.49 49.8Z" fill="#9C4725"/>
<path d="M58.5001 49.81C62.1401 49.9 65.0901 52.76 65.0901 56.4C65.0901 60.04 62.1401 62.99 58.5001 62.99C54.8601 62.99 51.8301 60.04 51.9101 56.4C51.9901 52.7 54.9801 49.72 58.5001 49.81Z" fill="#9D4725"/>
<path d="M58.5001 49.82C62.1401 49.91 65.0901 52.77 65.0901 56.41C65.0901 60.05 62.1401 63 58.5001 63C54.8601 63 51.8301 60.05 51.9101 56.41C51.9901 52.71 54.9801 49.73 58.5001 49.82Z" fill="#9D4725"/>
<path d="M58.5001 49.82C62.1401 49.91 65.0901 52.77 65.0901 56.41C65.0901 60.05 62.1401 63 58.5001 63C54.8601 63 51.8301 60.05 51.9101 56.41C51.9901 52.71 54.9801 49.73 58.5001 49.82Z" fill="#9E4825"/>
<path d="M58.5101 49.83C62.1501 49.92 65.1001 52.78 65.1001 56.42C65.1001 60.06 62.1501 63.01 58.5101 63.01C54.8701 63.01 51.8401 60.06 51.9201 56.42C52.0001 52.72 54.9901 49.74 58.5101 49.83Z" fill="#9F4825"/>
<path d="M58.5101 49.83C62.1501 49.92 65.1001 52.78 65.1001 56.42C65.1001 60.06 62.1501 63.01 58.5101 63.01C54.8701 63.01 51.8401 60.06 51.9201 56.42C52.0001 52.72 54.9901 49.74 58.5101 49.83Z" fill="#A04925"/>
<path d="M58.52 49.84C62.16 49.93 65.11 52.79 65.11 56.43C65.11 60.07 62.16 63.02 58.52 63.02C54.88 63.02 51.85 60.07 51.93 56.43C52.01 52.73 55 49.75 58.52 49.84Z" fill="#A14925"/>
<path d="M58.52 49.84C62.16 49.93 65.11 52.79 65.11 56.43C65.11 60.07 62.16 63.02 58.52 63.02C54.88 63.02 51.85 60.07 51.93 56.43C52.01 52.73 55 49.75 58.52 49.84Z" fill="#A14925"/>
<path d="M58.53 49.85C62.17 49.94 65.12 52.8 65.12 56.44C65.12 60.08 62.17 63.03 58.53 63.03C54.89 63.03 51.86 60.08 51.94 56.44C52.03 52.74 55.01 49.76 58.53 49.85Z" fill="#A24A25"/>
<path d="M58.53 49.85C62.17 49.95 65.12 52.8 65.12 56.44C65.12 60.08 62.17 63.03 58.53 63.03C54.89 63.03 51.86 60.08 51.94 56.44C52.03 52.74 55.01 49.76 58.53 49.85Z" fill="#A34A25"/>
<path d="M58.53 49.86C62.17 49.96 65.12 52.81 65.12 56.45C65.12 60.09 62.17 63.04 58.53 63.04C54.89 63.04 51.86 60.09 51.94 56.45C52.03 52.75 55.01 49.77 58.53 49.86Z" fill="#A44A25"/>
<path d="M58.54 49.87C62.18 49.97 65.13 52.82 65.13 56.46C65.13 60.1 62.18 63.05 58.54 63.05C54.9 63.05 51.87 60.1 51.95 56.46C52.04 52.76 55.02 49.78 58.54 49.87Z" fill="#A44B25"/>
<path d="M58.54 49.87C62.18 49.97 65.13 52.82 65.13 56.46C65.13 60.1 62.18 63.05 58.54 63.05C54.9 63.05 51.87 60.1 51.95 56.46C52.04 52.76 55.02 49.78 58.54 49.87Z" fill="#A54B25"/>
<path d="M58.55 49.88C62.19 49.98 65.13 52.83 65.13 56.46C65.13 60.09 62.18 63.04 58.55 63.04C54.92 63.04 51.88 60.09 51.96 56.46C52.05 52.76 55.03 49.78 58.55 49.88Z" fill="#A64B25"/>
<path d="M58.55 49.88C62.18 49.98 65.13 52.83 65.13 56.46C65.13 60.09 62.18 63.04 58.55 63.04C54.92 63.04 51.88 60.09 51.97 56.46C52.06 52.76 55.04 49.78 58.55 49.88Z" fill="#A74C25"/>
<path d="M58.56 49.89C62.19 49.99 65.14 52.84 65.14 56.47C65.14 60.1 62.19 63.05 58.56 63.05C54.93 63.05 51.89 60.1 51.98 56.47C52.07 52.77 55.06 49.79 58.56 49.89Z" fill="#A74C25"/>
<path d="M58.56 49.89C62.19 49.99 65.14 52.84 65.14 56.47C65.14 60.1 62.19 63.05 58.56 63.05C54.93 63.05 51.89 60.1 51.98 56.47C52.07 52.77 55.06 49.79 58.56 49.89Z" fill="#A84C25"/>
<path d="M58.56 49.9C62.19 50 65.14 52.85 65.14 56.48C65.14 60.11 62.19 63.06 58.56 63.06C54.93 63.06 51.89 60.11 51.98 56.48C52.07 52.78 55.06 49.8 58.56 49.9Z" fill="#A94D25"/>
<path d="M58.57 49.9C62.2 50 65.15 52.85 65.15 56.48C65.15 60.11 62.2 63.06 58.57 63.06C54.94 63.06 51.9 60.11 51.99 56.48C52.08 52.78 55.07 49.8 58.57 49.9Z" fill="#AA4D25"/>
<path d="M58.57 49.91C62.2 50.01 65.15 52.86 65.15 56.49C65.15 60.12 62.2 63.07 58.57 63.07C54.94 63.07 51.9 60.12 51.99 56.49C52.08 52.79 55.07 49.81 58.57 49.91Z" fill="#AB4D25"/>
<path d="M58.5801 49.92C62.2101 50.02 65.1601 52.87 65.1601 56.5C65.1601 60.13 62.2101 63.08 58.5801 63.08C54.9501 63.08 51.9101 60.13 52.0001 56.5C52.0901 52.8 55.0801 49.82 58.5801 49.92Z" fill="#AB4E25"/>
<path d="M58.5801 49.92C62.2101 50.02 65.1601 52.87 65.1601 56.5C65.1601 60.13 62.2101 63.08 58.5801 63.08C54.9501 63.08 51.9101 60.13 52.0001 56.5C52.0901 52.8 55.0801 49.82 58.5801 49.92Z" fill="#AC4E25"/>
<path d="M58.5901 49.93C62.2201 50.03 65.1701 52.88 65.1701 56.51C65.1701 60.14 62.2201 63.09 58.5901 63.09C54.9601 63.09 51.9201 60.14 52.0101 56.51C52.1001 52.81 55.0901 49.83 58.5901 49.93Z" fill="#AD4F25"/>
<path d="M58.5901 49.93C62.2201 50.03 65.1701 52.87 65.1701 56.51C65.1701 60.15 62.2301 63.09 58.5901 63.09C54.9501 63.09 51.9201 60.14 52.0101 56.51C52.1001 52.81 55.0901 49.83 58.5901 49.93Z" fill="#AE4F25"/>
<path d="M58.6 49.94C62.23 50.04 65.18 52.88 65.18 56.52C65.18 60.16 62.24 63.1 58.6 63.1C54.96 63.1 51.93 60.15 52.02 56.52C52.11 52.82 55.1 49.84 58.6 49.94Z" fill="#AF4F25"/>
<path d="M58.6 49.94C62.23 50.05 65.18 52.88 65.18 56.52C65.18 60.16 62.24 63.1 58.6 63.1C54.96 63.1 51.93 60.15 52.02 56.52C52.12 52.82 55.1 49.84 58.6 49.94Z" fill="#AF5025"/>
<path d="M58.6 49.95C62.23 50.06 65.18 52.89 65.18 56.53C65.18 60.17 62.24 63.11 58.6 63.11C54.96 63.11 51.93 60.16 52.02 56.53C52.12 52.83 55.1 49.85 58.6 49.95Z" fill="#B05025"/>
<path d="M58.61 49.95C62.24 50.06 65.19 52.89 65.19 56.53C65.19 60.17 62.25 63.11 58.61 63.11C54.97 63.11 51.94 60.16 52.03 56.53C52.13 52.83 55.11 49.85 58.61 49.95Z" fill="#B15025"/>
<path d="M58.61 49.96C62.24 50.07 65.18 52.9 65.18 56.53C65.18 60.16 62.24 63.11 58.61 63.11C54.98 63.11 51.94 60.16 52.03 56.53C52.13 52.83 55.11 49.85 58.61 49.96Z" fill="#B25125"/>
<path d="M58.6201 49.97C62.2501 50.08 65.1901 52.91 65.1901 56.54C65.1901 60.17 62.2501 63.11 58.6201 63.11C54.9901 63.11 51.9501 60.17 52.0501 56.54C52.1501 52.84 55.1301 49.86 58.6201 49.97Z" fill="#B35125"/>
<path d="M58.6201 49.97C62.2501 50.08 65.1901 52.91 65.1901 56.54C65.1901 60.17 62.2501 63.11 58.6201 63.11C54.9901 63.11 51.9501 60.17 52.0501 56.54C52.1501 52.84 55.1301 49.86 58.6201 49.97Z" fill="#B35125"/>
<path d="M58.63 49.98C62.26 50.09 65.2 52.92 65.2 56.55C65.2 60.18 62.26 63.12 58.63 63.12C55 63.12 51.96 60.18 52.06 56.55C52.16 52.85 55.14 49.87 58.63 49.98Z" fill="#B45225"/>
<path d="M58.63 49.98C62.26 50.09 65.2 52.92 65.2 56.55C65.2 60.18 62.26 63.12 58.63 63.12C55 63.12 51.96 60.18 52.06 56.55C52.16 52.85 55.14 49.87 58.63 49.98Z" fill="#B55225"/>
<path d="M58.63 49.99C62.26 50.1 65.2 52.93 65.2 56.56C65.2 60.19 62.26 63.13 58.63 63.13C55 63.13 51.96 60.19 52.06 56.56C52.16 52.86 55.14 49.88 58.63 49.99Z" fill="#B65325"/>
<path d="M58.64 49.99C62.27 50.1 65.21 52.93 65.21 56.56C65.21 60.19 62.27 63.13 58.64 63.13C55.01 63.13 51.97 60.19 52.07 56.56C52.17 52.86 55.15 49.88 58.64 49.99Z" fill="#B75325"/>
<path d="M58.64 50C62.27 50.11 65.21 52.94 65.21 56.57C65.21 60.2 62.27 63.14 58.64 63.14C55.01 63.14 51.97 60.2 52.07 56.57C52.17 52.87 55.16 49.89 58.64 50Z" fill="#B75325"/>
<path d="M58.65 50C62.28 50.11 65.22 52.94 65.22 56.57C65.22 60.2 62.28 63.14 58.65 63.14C55.02 63.14 51.98 60.2 52.08 56.57C52.18 52.87 55.17 49.89 58.65 50Z" fill="#B85425"/>
<path d="M58.65 50.01C62.28 50.12 65.22 52.95 65.22 56.58C65.22 60.21 62.28 63.15 58.65 63.15C55.02 63.15 51.98 60.21 52.08 56.58C52.18 52.88 55.17 49.9 58.65 50.01Z" fill="#B95425"/>
<path d="M58.66 50.02C62.29 50.13 65.23 52.96 65.23 56.59C65.23 60.22 62.29 63.16 58.66 63.16C55.03 63.16 51.99 60.22 52.09 56.59C52.19 52.89 55.18 49.91 58.66 50.02Z" fill="#BA5425"/>
<path d="M58.66 50.02C62.29 50.13 65.23 52.96 65.23 56.59C65.23 60.22 62.29 63.16 58.66 63.16C55.03 63.16 51.99 60.22 52.09 56.59C52.19 52.89 55.18 49.91 58.66 50.02Z" fill="#BB5525"/>
<path d="M58.6701 50.03C62.3001 50.14 65.2401 52.97 65.2401 56.6C65.2401 60.23 62.3001 63.17 58.6701 63.17C55.0401 63.17 52.0001 60.23 52.1001 56.6C52.2001 52.9 55.1901 49.92 58.6701 50.03Z" fill="#BB5525"/>
<path d="M58.6701 50.03C62.2901 50.15 65.2401 52.97 65.2401 56.6C65.2401 60.23 62.3001 63.17 58.6701 63.17C55.0401 63.17 52.0001 60.23 52.1001 56.6C52.2001 52.9 55.1901 49.92 58.6701 50.03Z" fill="#BC5525"/>
<path d="M58.6701 50.04C62.2901 50.16 65.2401 52.98 65.2401 56.61C65.2401 60.24 62.3001 63.18 58.6701 63.18C55.0401 63.18 52.0001 60.24 52.1001 56.61C52.2001 52.91 55.1901 49.93 58.6701 50.04Z" fill="#BD5625"/>
<path d="M58.6801 50.04C62.3001 50.16 65.2401 52.98 65.2401 56.61C65.2401 60.24 62.3001 63.18 58.6801 63.18C55.0601 63.18 52.0101 60.24 52.1101 56.61C52.2201 52.91 55.2001 49.93 58.6801 50.04Z" fill="#BE5625"/>
<path d="M58.6801 50.05C62.3001 50.17 65.2401 52.99 65.2401 56.61C65.2401 60.23 62.3001 63.17 58.6801 63.17C55.0601 63.17 52.0101 60.23 52.1201 56.61C52.2301 52.91 55.2101 49.93 58.6801 50.05Z" fill="#BF5725"/>
<path d="M58.69 50.06C62.31 50.18 65.25 53 65.25 56.62C65.25 60.24 62.31 63.18 58.69 63.18C55.07 63.18 52.02 60.24 52.13 56.62C52.24 52.92 55.22 49.94 58.69 50.06Z" fill="#BF5725"/>
<path d="M58.69 50.06C62.31 50.18 65.25 53 65.25 56.62C65.25 60.24 62.31 63.18 58.69 63.18C55.07 63.18 52.02 60.24 52.13 56.62C52.24 52.92 55.22 49.94 58.69 50.06Z" fill="#C05725"/>
<path d="M58.7 50.07C62.32 50.19 65.26 53.01 65.26 56.63C65.26 60.25 62.32 63.19 58.7 63.19C55.08 63.19 52.03 60.25 52.14 56.63C52.25 52.93 55.23 49.95 58.7 50.07Z" fill="#C15825"/>
<path d="M58.7 50.07C62.32 50.19 65.26 53.01 65.26 56.63C65.26 60.25 62.32 63.19 58.7 63.19C55.08 63.19 52.03 60.25 52.14 56.63C52.25 52.93 55.23 49.95 58.7 50.07Z" fill="#C25825"/>
<path d="M58.7 50.08C62.32 50.2 65.26 53.02 65.26 56.64C65.26 60.26 62.32 63.2 58.7 63.2C55.08 63.2 52.03 60.26 52.14 56.64C52.25 52.94 55.23 49.96 58.7 50.08Z" fill="#C35825"/>
<path d="M58.71 50.08C62.33 50.2 65.27 53.02 65.27 56.64C65.27 60.26 62.33 63.2 58.71 63.2C55.09 63.2 52.04 60.26 52.15 56.64C52.26 52.94 55.24 49.96 58.71 50.08Z" fill="#C45925"/>
<path d="M58.71 50.09C62.33 50.21 65.27 53.03 65.27 56.65C65.27 60.27 62.33 63.21 58.71 63.21C55.09 63.21 52.04 60.27 52.15 56.65C52.26 52.95 55.24 49.97 58.71 50.09Z" fill="#C45925"/>
<path d="M58.7201 50.09C62.3401 50.21 65.2801 53.03 65.2801 56.65C65.2801 60.27 62.3401 63.21 58.7201 63.21C55.1001 63.21 52.0501 60.27 52.1601 56.65C52.2701 52.95 55.2501 49.97 58.7201 50.09Z" fill="#C55925"/>
<path d="M58.7201 50.1C62.3401 50.22 65.2801 53.04 65.2801 56.66C65.2801 60.28 62.3401 63.22 58.7201 63.22C55.1001 63.22 52.0501 60.28 52.1601 56.66C52.2701 52.96 55.2501 49.98 58.7201 50.1Z" fill="#C65A25"/>
<path d="M58.7301 50.11C62.3501 50.23 65.2901 53.05 65.2901 56.67C65.2901 60.29 62.3501 63.23 58.7301 63.23C55.1101 63.23 52.0601 60.29 52.1701 56.67C52.2801 52.97 55.2701 49.99 58.7301 50.11Z" fill="#C75A25"/>
<path d="M58.7301 50.11C62.3501 50.23 65.2901 53.05 65.2901 56.67C65.2901 60.29 62.3501 63.23 58.7301 63.23C55.1101 63.23 52.0601 60.29 52.1701 56.67C52.2801 52.96 55.2701 49.99 58.7301 50.11Z" fill="#C85B25"/>
<path d="M58.7301 50.12C62.3501 50.24 65.2901 53.06 65.2901 56.68C65.2901 60.3 62.3501 63.24 58.7301 63.24C55.1101 63.24 52.0601 60.3 52.1701 56.68C52.2801 52.97 55.2701 50 58.7301 50.12Z" fill="#C95B24"/>
<path d="M65.3 56.68C65.3 60.3 62.37 63.24 58.74 63.24C55.11 63.24 52.07 60.3 52.18 56.68C52.29 52.97 55.28 50 58.74 50.12C62.36 50.25 65.3 53.05 65.3 56.68Z" fill="#CA5B24"/>
<path d="M58.74 50.13C62.36 50.25 65.3 53.06 65.3 56.69C65.3 60.32 62.37 63.25 58.74 63.25C55.11 63.25 52.07 60.31 52.18 56.69C52.29 52.99 55.28 50.02 58.74 50.13Z" fill="#CA5C25"/>
<path opacity="0.99" d="M58.75 50.13C62.37 50.25 65.31 53.06 65.31 56.69C65.31 60.32 62.38 63.25 58.75 63.25C55.12 63.25 52.08 60.31 52.19 56.69C52.3 52.99 55.28 50.02 58.75 50.13Z" fill="#CA5D25"/>
<path opacity="0.99" d="M58.75 50.13C62.37 50.25 65.31 53.06 65.31 56.69C65.31 60.32 62.38 63.25 58.75 63.25C55.12 63.25 52.08 60.31 52.19 56.69C52.3 52.99 55.28 50.02 58.75 50.13Z" fill="#CA5D26"/>
<path opacity="0.98" d="M58.75 50.13C62.37 50.25 65.31 53.06 65.31 56.69C65.31 60.32 62.38 63.25 58.75 63.25C55.12 63.25 52.09 60.31 52.19 56.69C52.3 52.99 55.28 50.02 58.75 50.13Z" fill="#CA5E26"/>
<path opacity="0.98" d="M58.75 50.14C62.37 50.26 65.31 53.07 65.31 56.7C65.31 60.33 62.38 63.26 58.75 63.26C55.12 63.26 52.09 60.32 52.19 56.7C52.3 53 55.28 50.03 58.75 50.14Z" fill="#CB5F27"/>
<path opacity="0.97" d="M58.76 50.14C62.38 50.26 65.32 53.07 65.32 56.7C65.32 60.33 62.39 63.26 58.76 63.26C55.13 63.26 52.1 60.32 52.2 56.7C52.31 53 55.29 50.03 58.76 50.14Z" fill="#CB6028"/>
<path opacity="0.97" d="M58.76 50.14C62.38 50.26 65.32 53.07 65.32 56.7C65.32 60.33 62.39 63.26 58.76 63.26C55.13 63.26 52.1 60.32 52.2 56.7C52.31 53 55.29 50.03 58.76 50.14Z" fill="#CB6028"/>
<path opacity="0.96" d="M58.76 50.15C62.38 50.27 65.32 53.08 65.32 56.71C65.32 60.34 62.39 63.27 58.76 63.27C55.13 63.27 52.1 60.33 52.2 56.71C52.31 53.01 55.29 50.04 58.76 50.15Z" fill="#CB6129"/>
<path opacity="0.96" d="M58.77 50.15C62.39 50.27 65.3301 53.08 65.3301 56.71C65.3301 60.34 62.4 63.27 58.77 63.27C55.14 63.27 52.11 60.33 52.21 56.71C52.32 53.01 55.3 50.04 58.77 50.15Z" fill="#CC622A"/>
<path opacity="0.95" d="M58.77 50.15C62.39 50.27 65.3301 53.08 65.3301 56.71C65.3301 60.34 62.4 63.27 58.77 63.27C55.14 63.27 52.11 60.33 52.21 56.71C52.32 53.01 55.3 50.04 58.77 50.15Z" fill="#CC632A"/>
<path opacity="0.95" d="M58.77 50.16C62.39 50.28 65.3301 53.09 65.3301 56.72C65.3301 60.35 62.4 63.28 58.77 63.28C55.14 63.28 52.11 60.34 52.21 56.72C52.32 53.02 55.3 50.05 58.77 50.16Z" fill="#CC632B"/>
<path opacity="0.94" d="M58.7801 50.16C62.4001 50.28 65.3401 53.09 65.3401 56.72C65.3401 60.35 62.4101 63.28 58.7801 63.28C55.1501 63.28 52.1201 60.34 52.2201 56.72C52.3301 53.02 55.3101 50.05 58.7801 50.16Z" fill="#CC642C"/>
<path opacity="0.94" d="M58.7801 50.16C62.4001 50.28 65.3401 53.09 65.3401 56.72C65.3401 60.35 62.4101 63.28 58.7801 63.28C55.1501 63.28 52.1201 60.34 52.2201 56.72C52.3301 53.02 55.3101 50.05 58.7801 50.16Z" fill="#CC652C"/>
<path opacity="0.93" d="M58.7801 50.17C62.4001 50.29 65.3401 53.1 65.3401 56.73C65.3401 60.36 62.4101 63.29 58.7801 63.29C55.1501 63.29 52.1201 60.35 52.2201 56.73C52.3301 53.03 55.3101 50.06 58.7801 50.17Z" fill="#CD652D"/>
<path opacity="0.93" d="M58.7901 50.17C62.4101 50.29 65.3501 53.1 65.3501 56.73C65.3501 60.36 62.4201 63.29 58.7901 63.29C55.1601 63.29 52.1301 60.35 52.2301 56.73C52.3301 53.03 55.3101 50.06 58.7901 50.17Z" fill="#CD662E"/>
<path opacity="0.92" d="M58.7901 50.17C62.4101 50.29 65.3501 53.1 65.3501 56.73C65.3501 60.36 62.4201 63.29 58.7901 63.29C55.1601 63.29 52.1301 60.35 52.2301 56.73C52.3301 53.03 55.3101 50.06 58.7901 50.17Z" fill="#CD672F"/>
<path opacity="0.92" d="M58.7901 50.18C62.4101 50.29 65.3501 53.11 65.3501 56.74C65.3501 60.37 62.4201 63.3 58.7901 63.3C55.1601 63.3 52.1301 60.36 52.2301 56.74C52.3301 53.04 55.3101 50.07 58.7901 50.18Z" fill="#CD6730"/>
<path opacity="0.91" d="M58.7901 50.18C62.4101 50.29 65.3501 53.11 65.3501 56.74C65.3501 60.37 62.4201 63.3 58.7901 63.3C55.1601 63.3 52.1301 60.36 52.2301 56.74C52.3301 53.04 55.3101 50.08 58.7901 50.18Z" fill="#CD6830"/>
<path opacity="0.91" d="M58.8001 50.18C62.4201 50.29 65.3601 53.11 65.3601 56.74C65.3601 60.37 62.4301 63.3 58.8001 63.3C55.1701 63.3 52.1401 60.36 52.2401 56.74C52.3401 53.04 55.3201 50.08 58.8001 50.18Z" fill="#CE6931"/>
<path opacity="0.9" d="M58.8001 50.19C62.4201 50.3 65.3601 53.12 65.3601 56.75C65.3601 60.38 62.4301 63.31 58.8001 63.31C55.1701 63.31 52.1401 60.37 52.2401 56.75C52.3401 53.05 55.3201 50.09 58.8001 50.19Z" fill="#CE6A32"/>
<path opacity="0.9" d="M58.8001 50.19C62.4201 50.3 65.3601 53.12 65.3601 56.75C65.3601 60.38 62.4301 63.31 58.8001 63.31C55.1701 63.31 52.1401 60.37 52.2401 56.75C52.3401 53.05 55.3201 50.09 58.8001 50.19Z" fill="#CE6A33"/>
<path opacity="0.89" d="M58.8101 50.19C62.4301 50.3 65.3701 53.12 65.3701 56.75C65.3701 60.38 62.4401 63.31 58.8101 63.31C55.1801 63.31 52.1601 60.37 52.2501 56.75C52.3501 53.05 55.3301 50.09 58.8101 50.19Z" fill="#CE6B33"/>
<path opacity="0.89" d="M58.8101 50.2C62.4301 50.31 65.3701 53.13 65.3701 56.76C65.3701 60.39 62.4401 63.32 58.8101 63.32C55.1801 63.32 52.1601 60.38 52.2501 56.76C52.3501 53.06 55.3301 50.1 58.8101 50.2Z" fill="#CF6C34"/>
<path opacity="0.88" d="M58.8101 50.2C62.4301 50.31 65.3701 53.13 65.3701 56.76C65.3701 60.39 62.4401 63.32 58.8101 63.32C55.1801 63.32 52.1601 60.38 52.2501 56.76C52.3501 53.06 55.3301 50.1 58.8101 50.2Z" fill="#CF6C35"/>
<path opacity="0.88" d="M58.82 50.2C62.44 50.31 65.38 53.13 65.38 56.76C65.38 60.39 62.45 63.32 58.82 63.32C55.19 63.32 52.17 60.38 52.26 56.76C52.36 53.07 55.34 50.1 58.82 50.2Z" fill="#CF6D36"/>
<path opacity="0.87" d="M58.82 50.21C62.44 50.32 65.38 53.14 65.38 56.77C65.38 60.4 62.45 63.33 58.82 63.33C55.19 63.33 52.17 60.39 52.26 56.77C52.36 53.08 55.34 50.11 58.82 50.21Z" fill="#CF6E37"/>
<path opacity="0.87" d="M58.82 50.21C62.44 50.32 65.38 53.14 65.38 56.77C65.38 60.4 62.45 63.33 58.82 63.33C55.19 63.33 52.17 60.39 52.26 56.77C52.36 53.08 55.33 50.11 58.82 50.21Z" fill="#CF6E37"/>
<path opacity="0.86" d="M58.83 50.21C62.45 50.32 65.39 53.14 65.39 56.77C65.39 60.4 62.46 63.33 58.83 63.33C55.2 63.33 52.18 60.39 52.27 56.77C52.37 53.08 55.34 50.11 58.83 50.21Z" fill="#D06F38"/>
<path opacity="0.86" d="M58.83 50.22C62.45 50.33 65.39 53.15 65.39 56.78C65.39 60.41 62.46 63.34 58.83 63.34C55.2 63.34 52.18 60.4 52.27 56.78C52.37 53.09 55.34 50.12 58.83 50.22Z" fill="#D07039"/>
<path opacity="0.85" d="M58.83 50.22C62.45 50.33 65.39 53.15 65.39 56.78C65.39 60.41 62.46 63.34 58.83 63.34C55.2 63.34 52.18 60.4 52.27 56.78C52.37 53.09 55.34 50.12 58.83 50.22Z" fill="#D0703A"/>
<path opacity="0.85" d="M58.83 50.22C62.45 50.33 65.39 53.15 65.39 56.78C65.39 60.41 62.46 63.34 58.83 63.34C55.2 63.34 52.18 60.4 52.27 56.78C52.37 53.09 55.34 50.12 58.83 50.22Z" fill="#D0713B"/>
<path opacity="0.84" d="M58.84 50.23C62.46 50.34 65.4 53.16 65.4 56.79C65.4 60.42 62.47 63.35 58.84 63.35C55.21 63.35 52.19 60.41 52.28 56.79C52.38 53.1 55.35 50.13 58.84 50.23Z" fill="#D0723C"/>
<path opacity="0.84" d="M58.84 50.23C62.46 50.33 65.4 53.16 65.4 56.79C65.4 60.42 62.47 63.35 58.84 63.35C55.21 63.35 52.19 60.41 52.28 56.79C52.37 53.1 55.35 50.13 58.84 50.23Z" fill="#D1723D"/>
<path opacity="0.83" d="M58.84 50.23C62.46 50.33 65.4 53.16 65.4 56.79C65.4 60.42 62.47 63.35 58.84 63.35C55.21 63.35 52.19 60.41 52.28 56.79C52.37 53.1 55.35 50.13 58.84 50.23Z" fill="#D1733D"/>
<path opacity="0.83" d="M58.85 50.23C62.47 50.33 65.41 53.16 65.41 56.79C65.41 60.42 62.48 63.35 58.85 63.35C55.22 63.35 52.2 60.41 52.29 56.79C52.38 53.1 55.36 50.14 58.85 50.23Z" fill="#D1743E"/>
<path opacity="0.82" d="M58.85 50.24C62.47 50.34 65.41 53.17 65.41 56.8C65.41 60.43 62.48 63.36 58.85 63.36C55.22 63.36 52.2 60.42 52.29 56.8C52.38 53.11 55.36 50.15 58.85 50.24Z" fill="#D1743F"/>
<path opacity="0.82" d="M58.85 50.24C62.47 50.34 65.41 53.17 65.41 56.8C65.41 60.43 62.48 63.36 58.85 63.36C55.22 63.36 52.2 60.42 52.29 56.8C52.38 53.11 55.36 50.15 58.85 50.24Z" fill="#D27540"/>
<path opacity="0.81" d="M58.8601 50.24C62.4801 50.34 65.4201 53.17 65.4201 56.8C65.4201 60.43 62.4901 63.36 58.8601 63.36C55.2301 63.36 52.2101 60.42 52.3001 56.8C52.3901 53.11 55.3701 50.15 58.8601 50.24Z" fill="#D27641"/>
<path opacity="0.81" d="M58.8601 50.25C62.4801 50.35 65.4201 53.18 65.4201 56.81C65.4201 60.44 62.4901 63.37 58.8601 63.37C55.2301 63.37 52.2101 60.43 52.3001 56.81C52.3901 53.12 55.3701 50.16 58.8601 50.25Z" fill="#D27642"/>
<path opacity="0.8" d="M58.86 50.25C62.48 50.35 65.42 53.18 65.42 56.81C65.42 60.44 62.49 63.37 58.86 63.37C55.23 63.37 52.22 60.43 52.3 56.81C52.39 53.12 55.36 50.16 58.86 50.25Z" fill="#D27743"/>
<path opacity="0.8" d="M58.86 50.25C62.48 50.35 65.42 53.18 65.42 56.81C65.42 60.44 62.49 63.37 58.86 63.37C55.23 63.37 52.22 60.43 52.3 56.81C52.39 53.12 55.36 50.16 58.86 50.25Z" fill="#D27844"/>
<path opacity="0.79" d="M58.87 50.26C62.49 50.36 65.43 53.19 65.43 56.82C65.43 60.45 62.5 63.38 58.87 63.38C55.24 63.38 52.23 60.44 52.31 56.82C52.4 53.13 55.37 50.17 58.87 50.26Z" fill="#D37845"/>
<path opacity="0.79" d="M58.87 50.26C62.49 50.36 65.43 53.19 65.43 56.82C65.43 60.45 62.5 63.38 58.87 63.38C55.24 63.38 52.23 60.44 52.31 56.82C52.4 53.13 55.37 50.17 58.87 50.26Z" fill="#D37946"/>
<path opacity="0.78" d="M58.87 50.26C62.49 50.36 65.43 53.19 65.43 56.82C65.43 60.45 62.5 63.38 58.87 63.38C55.24 63.38 52.23 60.44 52.31 56.82C52.4 53.13 55.37 50.17 58.87 50.26Z" fill="#D37A47"/>
<path opacity="0.78" d="M58.88 50.27C62.5 50.37 65.44 53.2 65.44 56.83C65.44 60.46 62.51 63.39 58.88 63.39C55.25 63.39 52.24 60.45 52.32 56.83C52.41 53.14 55.38 50.18 58.88 50.27Z" fill="#D37A48"/>
<path opacity="0.77" d="M58.88 50.27C62.5 50.37 65.44 53.2 65.44 56.83C65.44 60.46 62.51 63.39 58.88 63.39C55.25 63.39 52.24 60.45 52.32 56.83C52.41 53.14 55.38 50.18 58.88 50.27Z" fill="#D47B49"/>
<path opacity="0.77" d="M58.88 50.27C62.5 50.37 65.44 53.2 65.44 56.83C65.44 60.46 62.51 63.39 58.88 63.39C55.25 63.39 52.24 60.45 52.32 56.83C52.41 53.14 55.38 50.18 58.88 50.27Z" fill="#D47C4A"/>
<path opacity="0.76" d="M58.89 50.28C62.51 50.38 65.45 53.21 65.45 56.84C65.45 60.47 62.52 63.4 58.89 63.4C55.26 63.4 52.2501 60.46 52.3301 56.84C52.4201 53.16 55.39 50.19 58.89 50.28Z" fill="#D47D4A"/>
<path opacity="0.76" d="M58.89 50.28C62.51 50.37 65.45 53.21 65.45 56.84C65.45 60.47 62.52 63.4 58.89 63.4C55.26 63.4 52.2501 60.46 52.3301 56.84C52.4201 53.16 55.39 50.19 58.89 50.28Z" fill="#D47D4B"/>
<path opacity="0.75" d="M58.89 50.28C62.51 50.37 65.45 53.21 65.45 56.84C65.45 60.47 62.52 63.4 58.89 63.4C55.26 63.4 52.2501 60.46 52.3301 56.84C52.4101 53.16 55.39 50.19 58.89 50.28Z" fill="#D47E4C"/>
<path opacity="0.75" d="M58.9001 50.29C62.5201 50.38 65.4601 53.22 65.4601 56.85C65.4601 60.48 62.5301 63.41 58.9001 63.41C55.2701 63.41 52.2601 60.47 52.3401 56.85C52.4201 53.17 55.4001 50.2 58.9001 50.29Z" fill="#D57F4D"/>
<path opacity="0.74" d="M58.9001 50.29C62.5201 50.38 65.4601 53.22 65.4601 56.85C65.4601 60.48 62.5301 63.41 58.9001 63.41C55.2701 63.41 52.2601 60.47 52.3401 56.85C52.4201 53.17 55.3901 50.21 58.9001 50.29Z" fill="#D57F4E"/>
<path opacity="0.74" d="M58.9001 50.29C62.5201 50.38 65.4601 53.22 65.4601 56.85C65.4601 60.48 62.5301 63.41 58.9001 63.41C55.2701 63.41 52.2601 60.47 52.3401 56.85C52.4201 53.17 55.3901 50.21 58.9001 50.29Z" fill="#D5804F"/>
<path opacity="0.73" d="M58.9001 50.3C62.5201 50.39 65.4601 53.23 65.4601 56.86C65.4601 60.49 62.5301 63.42 58.9001 63.42C55.2701 63.42 52.2601 60.48 52.3401 56.86C52.4201 53.18 55.3901 50.22 58.9001 50.3Z" fill="#D58150"/>
<path opacity="0.73" d="M58.9101 50.3C62.5301 50.39 65.4701 53.23 65.4701 56.86C65.4701 60.49 62.5401 63.42 58.9101 63.42C55.2801 63.42 52.2701 60.48 52.3501 56.86C52.4301 53.18 55.4001 50.22 58.9101 50.3Z" fill="#D68151"/>
<path opacity="0.72" d="M58.9101 50.3C62.5301 50.39 65.4701 53.23 65.4701 56.86C65.4701 60.49 62.5401 63.42 58.9101 63.42C55.2801 63.42 52.2701 60.48 52.3501 56.86C52.4301 53.18 55.4001 50.22 58.9101 50.3Z" fill="#D68252"/>
<path opacity="0.72" d="M58.9101 50.31C62.5301 50.4 65.4701 53.24 65.4701 56.87C65.4701 60.5 62.5401 63.43 58.9101 63.43C55.2801 63.43 52.2701 60.49 52.3501 56.87C52.4301 53.19 55.4001 50.23 58.9101 50.31Z" fill="#D68353"/>
<path opacity="0.71" d="M58.92 50.31C62.54 50.4 65.48 53.24 65.48 56.87C65.48 60.5 62.55 63.43 58.92 63.43C55.29 63.43 52.29 60.49 52.36 56.87C52.44 53.19 55.41 50.23 58.92 50.31Z" fill="#D68354"/>
<path opacity="0.71" d="M58.92 50.31C62.54 50.4 65.48 53.24 65.48 56.87C65.48 60.5 62.55 63.43 58.92 63.43C55.29 63.43 52.29 60.49 52.36 56.87C52.44 53.19 55.41 50.23 58.92 50.31Z" fill="#D68455"/>
<path opacity="0.7" d="M58.92 50.32C62.54 50.41 65.48 53.25 65.48 56.88C65.48 60.51 62.55 63.44 58.92 63.44C55.29 63.44 52.29 60.5 52.36 56.88C52.44 53.2 55.41 50.24 58.92 50.32Z" fill="#D78556"/>
<path opacity="0.7" d="M58.93 50.32C62.55 50.41 65.49 53.25 65.49 56.88C65.49 60.51 62.56 63.44 58.93 63.44C55.3 63.44 52.3 60.5 52.37 56.88C52.45 53.2 55.42 50.24 58.93 50.32Z" fill="#D78557"/>
<path opacity="0.69" d="M58.93 50.32C62.55 50.41 65.49 53.25 65.49 56.88C65.49 60.51 62.56 63.44 58.93 63.44C55.3 63.44 52.3 60.5 52.37 56.88C52.45 53.2 55.42 50.24 58.93 50.32Z" fill="#D78658"/>
<path opacity="0.69" d="M58.93 50.32C62.55 50.41 65.49 53.25 65.49 56.88C65.49 60.51 62.56 63.44 58.93 63.44C55.3 63.44 52.3 60.5 52.37 56.88C52.45 53.2 55.42 50.24 58.93 50.32Z" fill="#D78759"/>
<path opacity="0.68" d="M58.94 50.33C62.56 50.42 65.5 53.26 65.5 56.89C65.5 60.52 62.57 63.45 58.94 63.45C55.31 63.45 52.31 60.51 52.38 56.89C52.46 53.21 55.43 50.25 58.94 50.33Z" fill="#D8885A"/>
<path opacity="0.68" d="M58.94 50.33C62.56 50.41 65.5 53.26 65.5 56.89C65.5 60.52 62.57 63.45 58.94 63.45C55.31 63.45 52.31 60.51 52.38 56.89C52.46 53.21 55.42 50.25 58.94 50.33Z" fill="#D8885B"/>
<path opacity="0.67" d="M58.94 50.33C62.56 50.41 65.5 53.26 65.5 56.89C65.5 60.52 62.57 63.45 58.94 63.45C55.31 63.45 52.31 60.51 52.38 56.89C52.46 53.21 55.42 50.25 58.94 50.33Z" fill="#D8895C"/>
<path opacity="0.67" d="M58.94 50.34C62.56 50.42 65.5 53.27 65.5 56.9C65.5 60.53 62.57 63.46 58.94 63.46C55.31 63.46 52.31 60.52 52.38 56.9C52.46 53.22 55.42 50.26 58.94 50.34Z" fill="#D88A5C"/>
<path opacity="0.66" d="M58.9501 50.34C62.5701 50.42 65.5101 53.27 65.5101 56.9C65.5101 60.53 62.5801 63.46 58.9501 63.46C55.3201 63.46 52.3201 60.52 52.3901 56.9C52.4601 53.22 55.4301 50.26 58.9501 50.34Z" fill="#D88A5D"/>
<path opacity="0.66" d="M58.9501 50.34C62.5701 50.42 65.5101 53.27 65.5101 56.9C65.5101 60.53 62.5801 63.46 58.9501 63.46C55.3201 63.46 52.3201 60.52 52.3901 56.9C52.4601 53.22 55.4301 50.27 58.9501 50.34Z" fill="#D98B5E"/>
<path opacity="0.65" d="M58.9501 50.35C62.5701 50.43 65.5101 53.28 65.5101 56.91C65.5101 60.54 62.5801 63.47 58.9501 63.47C55.3201 63.47 52.3201 60.53 52.3901 56.91C52.4601 53.23 55.4301 50.28 58.9501 50.35Z" fill="#D98C5F"/>
<path opacity="0.65" d="M58.9601 50.35C62.5801 50.43 65.5201 53.28 65.5201 56.91C65.5201 60.54 62.5901 63.47 58.9601 63.47C55.3301 63.47 52.3301 60.53 52.4001 56.91C52.4701 53.23 55.4401 50.28 58.9601 50.35Z" fill="#D98C60"/>
<path opacity="0.64" d="M58.9601 50.35C62.5801 50.43 65.5201 53.28 65.5201 56.91C65.5201 60.54 62.5901 63.47 58.9601 63.47C55.3301 63.47 52.3301 60.53 52.4001 56.91C52.4701 53.24 55.4401 50.28 58.9601 50.35Z" fill="#D98D61"/>
<path opacity="0.64" d="M58.9601 50.36C62.5801 50.44 65.5201 53.29 65.5201 56.92C65.5201 60.55 62.5901 63.48 58.9601 63.48C55.3301 63.48 52.3301 60.54 52.4001 56.92C52.4701 53.25 55.4401 50.29 58.9601 50.36Z" fill="#DA8E62"/>
<path opacity="0.63" d="M58.97 50.36C62.59 50.44 65.53 53.29 65.53 56.92C65.53 60.55 62.6 63.48 58.97 63.48C55.34 63.48 52.34 60.54 52.41 56.92C52.48 53.25 55.45 50.29 58.97 50.36Z" fill="#DA8F63"/>
<path opacity="0.63" d="M58.97 50.36C62.59 50.44 65.53 53.29 65.53 56.92C65.53 60.55 62.6 63.48 58.97 63.48C55.34 63.48 52.34 60.54 52.41 56.92C52.48 53.25 55.45 50.29 58.97 50.36Z" fill="#DA8F64"/>
<path opacity="0.62" d="M58.9701 50.37C62.5901 50.45 65.5301 53.3 65.5301 56.93C65.5301 60.56 62.6001 63.49 58.9701 63.49C55.3401 63.49 52.3501 60.55 52.4101 56.93C52.4801 53.26 55.4501 50.3 58.9701 50.37Z" fill="#DA9065"/>
<path opacity="0.62" d="M58.98 50.37C62.6 50.45 65.54 53.3 65.54 56.93C65.54 60.56 62.61 63.49 58.98 63.49C55.35 63.49 52.36 60.55 52.42 56.93C52.49 53.26 55.45 50.3 58.98 50.37Z" fill="#DB9166"/>
<path opacity="0.61" d="M58.98 50.37C62.6 50.45 65.54 53.3 65.54 56.93C65.54 60.56 62.61 63.49 58.98 63.49C55.35 63.49 52.36 60.55 52.42 56.93C52.49 53.26 55.45 50.3 58.98 50.37Z" fill="#DB9267"/>
<path opacity="0.61" d="M58.98 50.38C62.6 50.46 65.54 53.31 65.54 56.94C65.54 60.57 62.61 63.5 58.98 63.5C55.35 63.5 52.36 60.56 52.42 56.94C52.49 53.27 55.45 50.31 58.98 50.38Z" fill="#DB9268"/>
<path opacity="0.6" d="M58.98 50.38C62.6 50.46 65.54 53.31 65.54 56.94C65.54 60.57 62.61 63.5 58.98 63.5C55.35 63.5 52.36 60.56 52.42 56.94C52.49 53.27 55.45 50.31 58.98 50.38Z" fill="#DB9369"/>
<path opacity="0.6" d="M58.99 50.38C62.61 50.45 65.55 53.31 65.55 56.94C65.55 60.57 62.62 63.5 58.99 63.5C55.36 63.5 52.37 60.56 52.43 56.94C52.5 53.27 55.46 50.31 58.99 50.38Z" fill="#DB946A"/>
<path opacity="0.59" d="M58.99 50.39C62.61 50.46 65.55 53.32 65.55 56.95C65.55 60.58 62.62 63.51 58.99 63.51C55.36 63.51 52.37 60.57 52.43 56.95C52.5 53.28 55.46 50.32 58.99 50.39Z" fill="#DC946A"/>
<path opacity="0.59" d="M58.99 50.39C62.61 50.46 65.55 53.32 65.55 56.95C65.55 60.58 62.62 63.51 58.99 63.51C55.36 63.51 52.37 60.57 52.43 56.95C52.5 53.28 55.46 50.32 58.99 50.39Z" fill="#DC956B"/>
<path opacity="0.58" d="M59 50.39C62.62 50.46 65.56 53.33 65.56 56.95C65.56 60.57 62.63 63.51 59 63.51C55.37 63.51 52.38 60.57 52.44 56.95C52.51 53.28 55.47 50.32 59 50.39Z" fill="#DC966C"/>
<path opacity="0.58" d="M59 50.4C62.62 50.47 65.56 53.34 65.56 56.96C65.56 60.58 62.63 63.52 59 63.52C55.37 63.52 52.38 60.58 52.44 56.96C52.51 53.29 55.47 50.34 59 50.4Z" fill="#DC976D"/>
<path opacity="0.57" d="M59 50.4C62.62 50.47 65.56 53.34 65.56 56.96C65.56 60.58 62.63 63.52 59 63.52C55.37 63.52 52.38 60.58 52.44 56.96C52.5 53.29 55.47 50.34 59 50.4Z" fill="#DD976E"/>
<path opacity="0.57" d="M59.01 50.4C62.63 50.47 65.57 53.34 65.57 56.96C65.57 60.58 62.64 63.52 59.01 63.52C55.38 63.52 52.39 60.58 52.45 56.96C52.51 53.29 55.48 50.34 59.01 50.4Z" fill="#DD986F"/>
<path opacity="0.56" d="M59.01 50.41C62.63 50.48 65.57 53.35 65.57 56.97C65.57 60.59 62.64 63.53 59.01 63.53C55.38 63.53 52.39 60.59 52.45 56.97C52.51 53.3 55.48 50.35 59.01 50.41Z" fill="#DD9970"/>
<path opacity="0.56" d="M59.01 50.41C62.63 50.48 65.57 53.35 65.57 56.97C65.57 60.59 62.64 63.53 59.01 63.53C55.38 63.53 52.39 60.59 52.45 56.97C52.51 53.3 55.48 50.35 59.01 50.41Z" fill="#DD9A71"/>
<path opacity="0.55" d="M59.01 50.41C62.63 50.48 65.57 53.35 65.57 56.97C65.57 60.59 62.64 63.53 59.01 63.53C55.38 63.53 52.39 60.59 52.45 56.97C52.51 53.3 55.47 50.35 59.01 50.41Z" fill="#DE9A72"/>
<path opacity="0.55" d="M59.0201 50.42C62.6401 50.49 65.5801 53.36 65.5801 56.98C65.5801 60.6 62.6501 63.54 59.0201 63.54C55.3901 63.54 52.4001 60.6 52.4601 56.98C52.5201 53.31 55.4801 50.36 59.0201 50.42Z" fill="#DE9B73"/>
<path opacity="0.54" d="M59.0201 50.42C62.6401 50.49 65.5801 53.36 65.5801 56.98C65.5801 60.6 62.6501 63.54 59.0201 63.54C55.3901 63.54 52.4001 60.6 52.4601 56.98C52.5201 53.31 55.4801 50.36 59.0201 50.42Z" fill="#DE9C74"/>
<path opacity="0.54" d="M59.0201 50.42C62.6401 50.49 65.5801 53.36 65.5801 56.98C65.5801 60.6 62.6501 63.54 59.0201 63.54C55.3901 63.54 52.4001 60.6 52.4601 56.98C52.5201 53.31 55.4801 50.36 59.0201 50.42Z" fill="#DE9D75"/>
<path opacity="0.53" d="M59.03 50.42C62.65 50.49 65.59 53.36 65.59 56.98C65.59 60.6 62.66 63.54 59.03 63.54C55.4 63.54 52.42 60.6 52.47 56.98C52.53 53.31 55.49 50.36 59.03 50.42Z" fill="#DF9D76"/>
<path opacity="0.53" d="M59.03 50.43C62.65 50.5 65.59 53.37 65.59 56.99C65.59 60.61 62.66 63.55 59.03 63.55C55.4 63.55 52.42 60.61 52.47 56.99C52.53 53.32 55.49 50.37 59.03 50.43Z" fill="#DF9E77"/>
<path opacity="0.52" d="M59.03 50.43C62.65 50.5 65.59 53.37 65.59 56.99C65.59 60.61 62.66 63.55 59.03 63.55C55.4 63.55 52.42 60.61 52.47 56.99C52.53 53.33 55.49 50.37 59.03 50.43Z" fill="#DF9F78"/>
<path opacity="0.52" d="M59.0401 50.43C62.6601 50.49 65.6 53.37 65.6 56.99C65.6 60.61 62.6701 63.55 59.0401 63.55C55.4101 63.55 52.4301 60.61 52.4801 56.99C52.5401 53.33 55.5001 50.37 59.0401 50.43Z" fill="#DFA079"/>
<path opacity="0.51" d="M59.0401 50.44C62.6601 50.5 65.6 53.38 65.6 57C65.6 60.62 62.6701 63.56 59.0401 63.56C55.4101 63.56 52.4301 60.62 52.4801 57C52.5401 53.34 55.5001 50.38 59.0401 50.44Z" fill="#DFA17A"/>
<path opacity="0.51" d="M59.0401 50.44C62.6601 50.5 65.6 53.38 65.6 57C65.6 60.62 62.6701 63.56 59.0401 63.56C55.4101 63.56 52.4301 60.62 52.4801 57C52.5401 53.34 55.5001 50.38 59.0401 50.44Z" fill="#E0A17B"/>
<path opacity="0.5" d="M59.0501 50.44C62.6701 50.5 65.6101 53.38 65.6101 57C65.6101 60.62 62.6801 63.56 59.0501 63.56C55.4201 63.56 52.4401 60.62 52.4901 57C52.5501 53.34 55.5101 50.38 59.0501 50.44Z" fill="#E0A27C"/>
<path opacity="0.5" d="M59.0501 50.45C62.6701 50.51 65.6101 53.39 65.6101 57.01C65.6101 60.63 62.6801 63.57 59.0501 63.57C55.4201 63.57 52.4401 60.63 52.4901 57.01C52.5501 53.35 55.5101 50.39 59.0501 50.45Z" fill="#E0A37D"/>
<path opacity="0.49" d="M59.0501 50.45C62.6701 50.51 65.6101 53.39 65.6101 57.01C65.6101 60.63 62.6801 63.57 59.0501 63.57C55.4201 63.57 52.4401 60.63 52.4901 57.01C52.5501 53.35 55.5001 50.4 59.0501 50.45Z" fill="#E0A47E"/>
<path opacity="0.49" d="M59.0501 50.45C62.6701 50.51 65.6101 53.39 65.6101 57.01C65.6101 60.63 62.6801 63.57 59.0501 63.57C55.4201 63.57 52.4401 60.63 52.4901 57.01C52.5501 53.35 55.5001 50.4 59.0501 50.45Z" fill="#E1A47F"/>
<path opacity="0.48" d="M59.0601 50.46C62.6801 50.52 65.6201 53.4 65.6201 57.02C65.6201 60.64 62.6901 63.58 59.0601 63.58C55.4301 63.58 52.4501 60.64 52.5001 57.02C52.5501 53.36 55.5101 50.41 59.0601 50.46Z" fill="#E1A580"/>
<path opacity="0.48" d="M59.0601 50.46C62.6801 50.52 65.6201 53.4 65.6201 57.02C65.6201 60.64 62.6901 63.58 59.0601 63.58C55.4301 63.58 52.4501 60.64 52.5001 57.02C52.5501 53.36 55.5101 50.41 59.0601 50.46Z" fill="#E1A681"/>
<path opacity="0.47" d="M59.0601 50.46C62.6801 50.52 65.6201 53.4 65.6201 57.02C65.6201 60.64 62.6901 63.58 59.0601 63.58C55.4301 63.58 52.4501 60.64 52.5001 57.02C52.5501 53.36 55.5101 50.41 59.0601 50.46Z" fill="#E1A782"/>
<path opacity="0.47" d="M59.07 50.47C62.69 50.53 65.63 53.41 65.63 57.03C65.63 60.65 62.7 63.59 59.07 63.59C55.44 63.59 52.46 60.65 52.51 57.03C52.56 53.37 55.52 50.42 59.07 50.47Z" fill="#E2A883"/>
<path opacity="0.46" d="M59.07 50.47C62.69 50.53 65.63 53.41 65.63 57.03C65.63 60.65 62.7 63.59 59.07 63.59C55.44 63.59 52.46 60.65 52.51 57.03C52.56 53.37 55.52 50.42 59.07 50.47Z" fill="#E2A884"/>
<path opacity="0.46" d="M59.07 50.47C62.69 50.53 65.63 53.41 65.63 57.03C65.63 60.65 62.7 63.59 59.07 63.59C55.44 63.59 52.46 60.65 52.51 57.03C52.56 53.37 55.52 50.42 59.07 50.47Z" fill="#E2A985"/>
<path opacity="0.45" d="M59.08 50.48C62.7 50.54 65.64 53.42 65.64 57.04C65.64 60.66 62.71 63.6 59.08 63.6C55.45 63.6 52.47 60.66 52.52 57.04C52.57 53.38 55.53 50.43 59.08 50.48Z" fill="#E2AA86"/>
<path opacity="0.45" d="M59.08 50.48C62.7 50.54 65.64 53.42 65.64 57.04C65.64 60.66 62.71 63.6 59.08 63.6C55.45 63.6 52.47 60.66 52.52 57.04C52.57 53.38 55.53 50.43 59.08 50.48Z" fill="#E3AB87"/>
<path opacity="0.44" d="M59.0801 50.48C62.7001 50.54 65.6401 53.42 65.6401 57.04C65.6401 60.66 62.7101 63.6 59.0801 63.6C55.4501 63.6 52.4801 60.66 52.5201 57.04C52.5701 53.38 55.5301 50.43 59.0801 50.48Z" fill="#E3AC88"/>
<path opacity="0.44" d="M59.0901 50.49C62.7101 50.54 65.6501 53.43 65.6501 57.05C65.6501 60.67 62.7201 63.61 59.0901 63.61C55.4601 63.61 52.4901 60.67 52.5301 57.05C52.5801 53.39 55.5401 50.44 59.0901 50.49Z" fill="#E3AC89"/>
<path opacity="0.43" d="M59.0901 50.49C62.7101 50.54 65.6501 53.43 65.6501 57.05C65.6501 60.67 62.7201 63.61 59.0901 63.61C55.4601 63.61 52.4901 60.67 52.5301 57.05C52.5801 53.39 55.5401 50.44 59.0901 50.49Z" fill="#E4AD8A"/>
<path opacity="0.43" d="M59.0901 50.49C62.7101 50.54 65.6501 53.43 65.6501 57.05C65.6501 60.67 62.7201 63.61 59.0901 63.61C55.4601 63.61 52.4901 60.67 52.5301 57.05C52.5801 53.39 55.5301 50.44 59.0901 50.49Z" fill="#E4AE8B"/>
<path opacity="0.42" d="M59.0901 50.5C62.7101 50.55 65.6501 53.44 65.6501 57.06C65.6501 60.68 62.7201 63.62 59.0901 63.62C55.4601 63.62 52.4901 60.68 52.5301 57.06C52.5801 53.4 55.5301 50.45 59.0901 50.5Z" fill="#E4AF8D"/>
<path opacity="0.42" d="M59.1001 50.5C62.7201 50.55 65.6601 53.44 65.6601 57.06C65.6601 60.68 62.7301 63.62 59.1001 63.62C55.4701 63.62 52.5001 60.68 52.5401 57.06C52.5901 53.4 55.5401 50.45 59.1001 50.5Z" fill="#E4B08E"/>
<path opacity="0.41" d="M59.1001 50.5C62.7201 50.55 65.6601 53.44 65.6601 57.06C65.6601 60.68 62.7301 63.62 59.1001 63.62C55.4701 63.62 52.5001 60.68 52.5401 57.06C52.5901 53.4 55.5401 50.45 59.1001 50.5Z" fill="#E5B08F"/>
<path opacity="0.41" d="M59.1001 50.51C62.7201 50.56 65.6601 53.45 65.6601 57.07C65.6601 60.69 62.7301 63.63 59.1001 63.63C55.4701 63.63 52.5001 60.69 52.5401 57.07C52.5901 53.41 55.5401 50.47 59.1001 50.51Z" fill="#E5B190"/>
<path opacity="0.4" d="M59.11 50.51C62.73 50.56 65.67 53.45 65.67 57.07C65.67 60.69 62.74 63.63 59.11 63.63C55.48 63.63 52.51 60.69 52.55 57.07C52.6 53.42 55.55 50.47 59.11 50.51Z" fill="#E5B291"/>
<path opacity="0.4" d="M59.11 50.51C62.73 50.56 65.67 53.45 65.67 57.07C65.67 60.69 62.74 63.63 59.11 63.63C55.48 63.63 52.51 60.69 52.55 57.07C52.59 53.42 55.55 50.47 59.11 50.51Z" fill="#E5B392"/>
<path opacity="0.39" d="M59.11 50.51C62.73 50.56 65.67 53.45 65.67 57.07C65.67 60.69 62.74 63.63 59.11 63.63C55.48 63.63 52.51 60.69 52.55 57.07C52.59 53.42 55.55 50.47 59.11 50.51Z" fill="#E6B493"/>
<path opacity="0.39" d="M59.12 50.52C62.74 50.57 65.68 53.46 65.68 57.08C65.68 60.7 62.75 63.64 59.12 63.64C55.49 63.64 52.52 60.7 52.56 57.08C52.6 53.43 55.56 50.48 59.12 50.52Z" fill="#E6B594"/>
<path opacity="0.38" d="M59.12 50.52C62.74 50.57 65.68 53.46 65.68 57.08C65.68 60.7 62.75 63.64 59.12 63.64C55.49 63.64 52.52 60.7 52.56 57.08C52.6 53.43 55.56 50.48 59.12 50.52Z" fill="#E6B595"/>
<path opacity="0.38" d="M59.12 50.52C62.74 50.57 65.68 53.46 65.68 57.08C65.68 60.7 62.75 63.64 59.12 63.64C55.49 63.64 52.52 60.7 52.56 57.08C52.6 53.43 55.56 50.48 59.12 50.52Z" fill="#E6B697"/>
<path opacity="0.37" d="M59.13 50.53C62.75 50.58 65.69 53.47 65.69 57.09C65.69 60.71 62.76 63.65 59.13 63.65C55.5 63.65 52.53 60.71 52.57 57.09C52.61 53.44 55.57 50.49 59.13 50.53Z" fill="#E7B798"/>
<path opacity="0.37" d="M59.13 50.53C62.75 50.58 65.69 53.47 65.69 57.09C65.69 60.71 62.76 63.65 59.13 63.65C55.5 63.65 52.53 60.71 52.57 57.09C52.61 53.44 55.56 50.49 59.13 50.53Z" fill="#E7B899"/>
<path opacity="0.36" d="M59.13 50.53C62.75 50.58 65.69 53.47 65.69 57.09C65.69 60.71 62.76 63.65 59.13 63.65C55.5 63.65 52.53 60.71 52.57 57.09C52.61 53.44 55.56 50.49 59.13 50.53Z" fill="#E7B99A"/>
<path opacity="0.36" d="M59.13 50.54C62.75 50.58 65.69 53.48 65.69 57.1C65.69 60.72 62.76 63.66 59.13 63.66C55.5 63.66 52.53 60.72 52.57 57.1C52.61 53.45 55.56 50.5 59.13 50.54Z" fill="#E7B99B"/>
<path opacity="0.35" d="M59.14 50.54C62.76 50.58 65.7 53.48 65.7 57.1C65.7 60.72 62.77 63.66 59.14 63.66C55.51 63.66 52.5401 60.72 52.5801 57.1C52.6201 53.45 55.57 50.5 59.14 50.54Z" fill="#E8BA9C"/>
<path opacity="0.35" d="M59.1401 50.54C62.7601 50.58 65.7001 53.48 65.7001 57.1C65.7001 60.72 62.7701 63.66 59.1401 63.66C55.5101 63.66 52.5501 60.72 52.5801 57.1C52.6201 53.45 55.5701 50.5 59.1401 50.54Z" fill="#E8BB9D"/>
<path opacity="0.34" d="M59.1401 50.55C62.7601 50.59 65.7001 53.49 65.7001 57.11C65.7001 60.73 62.7701 63.67 59.1401 63.67C55.5101 63.67 52.5501 60.73 52.5801 57.11C52.6201 53.46 55.5701 50.51 59.1401 50.55Z" fill="#E8BC9F"/>
<path opacity="0.34" d="M59.1501 50.55C62.7701 50.59 65.7101 53.49 65.7101 57.11C65.7101 60.73 62.7801 63.67 59.1501 63.67C55.5201 63.67 52.5601 60.73 52.5901 57.11C52.6301 53.46 55.5801 50.51 59.1501 50.55Z" fill="#E8BDA0"/>
<path opacity="0.33" d="M59.1501 50.55C62.7701 50.59 65.7101 53.49 65.7101 57.11C65.7101 60.73 62.7801 63.67 59.1501 63.67C55.5201 63.67 52.5601 60.73 52.5901 57.11C52.6301 53.46 55.5801 50.51 59.1501 50.55Z" fill="#E9BEA1"/>
<path opacity="0.33" d="M59.1501 50.56C62.7701 50.6 65.7101 53.5 65.7101 57.12C65.7101 60.74 62.7801 63.68 59.1501 63.68C55.5201 63.68 52.5601 60.74 52.5901 57.12C52.6301 53.47 55.5801 50.52 59.1501 50.56Z" fill="#E9BEA2"/>
<path opacity="0.32" d="M59.16 50.56C62.78 50.6 65.72 53.5 65.72 57.12C65.72 60.74 62.79 63.68 59.16 63.68C55.53 63.68 52.57 60.74 52.6 57.12C52.64 53.47 55.59 50.53 59.16 50.56Z" fill="#E9BFA3"/>
<path opacity="0.32" d="M59.16 50.56C62.78 50.6 65.72 53.5 65.72 57.12C65.72 60.74 62.79 63.68 59.16 63.68C55.53 63.68 52.57 60.74 52.6 57.12C52.64 53.47 55.59 50.53 59.16 50.56Z" fill="#E9C0A5"/>
<path opacity="0.31" d="M59.16 50.57C62.78 50.61 65.72 53.51 65.72 57.13C65.72 60.75 62.79 63.69 59.16 63.69C55.53 63.69 52.57 60.75 52.6 57.13C52.64 53.48 55.59 50.54 59.16 50.57Z" fill="#EAC1A6"/>
<path opacity="0.31" d="M59.16 50.57C62.78 50.61 65.72 53.51 65.72 57.13C65.72 60.75 62.79 63.69 59.16 63.69C55.53 63.69 52.57 60.75 52.6 57.13C52.63 53.48 55.59 50.54 59.16 50.57Z" fill="#EAC2A7"/>
<path opacity="0.3" d="M59.17 50.57C62.79 50.61 65.73 53.51 65.73 57.13C65.73 60.75 62.8 63.69 59.17 63.69C55.54 63.69 52.58 60.75 52.61 57.13C52.64 53.48 55.59 50.54 59.17 50.57Z" fill="#EAC3A8"/>
<path opacity="0.3" d="M59.17 50.58C62.79 50.62 65.73 53.52 65.73 57.14C65.73 60.76 62.8 63.7 59.17 63.7C55.54 63.7 52.58 60.76 52.61 57.14C52.64 53.49 55.59 50.55 59.17 50.58Z" fill="#EAC4A9"/>
<path opacity="0.29" d="M59.17 50.58C62.79 50.62 65.73 53.52 65.73 57.14C65.73 60.76 62.8 63.7 59.17 63.7C55.54 63.7 52.58 60.76 52.61 57.14C52.64 53.49 55.59 50.55 59.17 50.58Z" fill="#EBC4AA"/>
<path opacity="0.29" d="M59.18 50.58C62.8 50.62 65.74 53.52 65.74 57.14C65.74 60.76 62.81 63.7 59.18 63.7C55.55 63.7 52.59 60.76 52.62 57.14C52.65 53.49 55.6 50.55 59.18 50.58Z" fill="#EBC5AC"/>
<path opacity="0.28" d="M59.18 50.59C62.8 50.63 65.74 53.53 65.74 57.15C65.74 60.77 62.81 63.71 59.18 63.71C55.55 63.71 52.59 60.77 52.62 57.15C52.65 53.51 55.6 50.56 59.18 50.59Z" fill="#EBC6AD"/>
<path opacity="0.28" d="M59.18 50.59C62.8 50.62 65.74 53.53 65.74 57.15C65.74 60.77 62.81 63.71 59.18 63.71C55.55 63.71 52.59 60.77 52.62 57.15C52.65 53.51 55.6 50.56 59.18 50.59Z" fill="#ECC7AE"/>
<path opacity="0.27" d="M59.19 50.59C62.81 50.62 65.75 53.53 65.75 57.15C65.75 60.77 62.82 63.71 59.19 63.71C55.56 63.71 52.6 60.77 52.63 57.15C52.66 53.51 55.61 50.56 59.19 50.59Z" fill="#ECC8AF"/>
<path opacity="0.27" d="M59.19 50.6C62.81 50.63 65.75 53.54 65.75 57.16C65.75 60.78 62.82 63.72 59.19 63.72C55.56 63.72 52.6 60.78 52.63 57.16C52.66 53.52 55.61 50.57 59.19 50.6Z" fill="#ECC9B0"/>
<path opacity="0.26" d="M59.19 50.6C62.81 50.63 65.75 53.54 65.75 57.16C65.75 60.78 62.82 63.72 59.19 63.72C55.56 63.72 52.6 60.78 52.63 57.16C52.66 53.52 55.61 50.57 59.19 50.6Z" fill="#ECCAB2"/>
<path opacity="0.26" d="M59.2001 50.6C62.8201 50.63 65.7601 53.54 65.7601 57.16C65.7601 60.78 62.8301 63.72 59.2001 63.72C55.5701 63.72 52.6201 60.78 52.6401 57.16C52.6701 53.52 55.6201 50.57 59.2001 50.6Z" fill="#EDCAB3"/>
<path opacity="0.25" d="M59.2001 50.6C62.8201 50.63 65.7601 53.54 65.7601 57.16C65.7601 60.78 62.8301 63.72 59.2001 63.72C55.5701 63.72 52.6201 60.78 52.6401 57.16C52.6701 53.52 55.6201 50.57 59.2001 50.6Z" fill="#EDCBB4"/>
<path opacity="0.25" d="M59.2001 50.61C62.8201 50.64 65.7601 53.55 65.7601 57.17C65.7601 60.79 62.8301 63.73 59.2001 63.73C55.5701 63.73 52.6201 60.79 52.6401 57.17C52.6701 53.53 55.6201 50.58 59.2001 50.61Z" fill="#EDCCB5"/>
<path opacity="0.24" d="M59.2001 50.61C62.8201 50.64 65.7601 53.55 65.7601 57.17C65.7601 60.79 62.8301 63.73 59.2001 63.73C55.5701 63.73 52.6201 60.79 52.6401 57.17C52.6701 53.53 55.6101 50.58 59.2001 50.61Z" fill="#EDCDB7"/>
<path opacity="0.24" d="M59.2101 50.61C62.8301 50.64 65.7701 53.55 65.7701 57.17C65.7701 60.79 62.8401 63.73 59.2101 63.73C55.5801 63.73 52.6301 60.79 52.6501 57.17C52.6801 53.53 55.6201 50.59 59.2101 50.61Z" fill="#EECEB8"/>
<path opacity="0.23" d="M59.2101 50.62C62.8301 50.65 65.7701 53.56 65.7701 57.18C65.7701 60.8 62.8401 63.74 59.2101 63.74C55.5801 63.74 52.6301 60.8 52.6501 57.18C52.6801 53.54 55.6201 50.6 59.2101 50.62Z" fill="#EECFB9"/>
<path opacity="0.23" d="M59.2101 50.62C62.8301 50.65 65.7701 53.56 65.7701 57.18C65.7701 60.8 62.8401 63.74 59.2101 63.74C55.5801 63.74 52.6301 60.8 52.6501 57.18C52.6801 53.54 55.6201 50.6 59.2101 50.62Z" fill="#EED0BA"/>
<path opacity="0.22" d="M59.22 50.62C62.84 50.65 65.78 53.56 65.78 57.18C65.78 60.8 62.85 63.74 59.22 63.74C55.59 63.74 52.64 60.8 52.66 57.18C52.69 53.54 55.63 50.6 59.22 50.62Z" fill="#EFD0BB"/>
<path opacity="0.22" d="M59.22 50.63C62.84 50.66 65.78 53.57 65.78 57.19C65.78 60.81 62.85 63.75 59.22 63.75C55.59 63.75 52.64 60.81 52.66 57.19C52.68 53.55 55.63 50.61 59.22 50.63Z" fill="#EFD1BD"/>
<path opacity="0.21" d="M59.22 50.63C62.84 50.66 65.78 53.57 65.78 57.19C65.78 60.81 62.85 63.75 59.22 63.75C55.59 63.75 52.64 60.81 52.66 57.19C52.68 53.55 55.63 50.61 59.22 50.63Z" fill="#EFD2BE"/>
<path opacity="0.21" d="M59.23 50.63C62.85 50.66 65.79 53.57 65.79 57.19C65.79 60.81 62.86 63.75 59.23 63.75C55.6 63.75 52.65 60.81 52.67 57.19C52.69 53.55 55.64 50.61 59.23 50.63Z" fill="#EFD3BF"/>
<path opacity="0.2" d="M59.23 50.64C62.85 50.67 65.79 53.58 65.79 57.2C65.79 60.82 62.86 63.76 59.23 63.76C55.6 63.76 52.65 60.82 52.67 57.2C52.69 53.56 55.64 50.62 59.23 50.64Z" fill="#F0D4C0"/>
<path opacity="0.2" d="M59.23 50.64C62.85 50.66 65.79 53.58 65.79 57.2C65.79 60.82 62.86 63.76 59.23 63.76C55.6 63.76 52.65 60.82 52.67 57.2C52.69 53.56 55.64 50.62 59.23 50.64Z" fill="#F0D5C2"/>
<path opacity="0.19" d="M59.24 50.64C62.86 50.66 65.8 53.58 65.8 57.2C65.8 60.82 62.87 63.76 59.24 63.76C55.61 63.76 52.66 60.82 52.68 57.2C52.7 53.56 55.65 50.62 59.24 50.64Z" fill="#F0D6C3"/>
<path opacity="0.19" d="M59.24 50.65C62.86 50.67 65.8 53.59 65.8 57.21C65.8 60.83 62.87 63.77 59.24 63.77C55.61 63.77 52.66 60.83 52.68 57.21C52.7 53.57 55.65 50.63 59.24 50.65Z" fill="#F1D7C4"/>
<path opacity="0.18" d="M59.24 50.65C62.86 50.67 65.8 53.59 65.8 57.21C65.8 60.83 62.87 63.77 59.24 63.77C55.61 63.77 52.66 60.83 52.68 57.21C52.7 53.57 55.64 50.63 59.24 50.65Z" fill="#F1D7C6"/>
<path opacity="0.18" d="M59.24 50.65C62.86 50.67 65.8 53.59 65.8 57.21C65.8 60.83 62.87 63.77 59.24 63.77C55.61 63.77 52.66 60.83 52.68 57.21C52.7 53.57 55.64 50.63 59.24 50.65Z" fill="#F1D8C7"/>
<path opacity="0.17" d="M59.25 50.66C62.87 50.68 65.81 53.6 65.81 57.22C65.81 60.84 62.88 63.78 59.25 63.78C55.62 63.78 52.67 60.84 52.69 57.22C52.71 53.58 55.65 50.64 59.25 50.66Z" fill="#F1D9C8"/>
<path opacity="0.17" d="M59.25 50.66C62.87 50.68 65.81 53.6 65.81 57.22C65.81 60.84 62.88 63.78 59.25 63.78C55.62 63.78 52.68 60.84 52.69 57.22C52.71 53.59 55.65 50.64 59.25 50.66Z" fill="#F2DAC9"/>
<path opacity="0.16" d="M59.25 50.66C62.87 50.68 65.81 53.6 65.81 57.22C65.81 60.84 62.88 63.78 59.25 63.78C55.62 63.78 52.68 60.84 52.69 57.22C52.71 53.59 55.65 50.64 59.25 50.66Z" fill="#F2DBCB"/>
<path opacity="0.16" d="M59.26 50.67C62.88 50.69 65.82 53.61 65.82 57.23C65.82 60.85 62.89 63.79 59.26 63.79C55.63 63.79 52.69 60.85 52.7 57.23C52.72 53.6 55.66 50.66 59.26 50.67Z" fill="#F2DCCC"/>
<path opacity="0.15" d="M59.26 50.67C62.88 50.69 65.82 53.61 65.82 57.23C65.82 60.85 62.89 63.79 59.26 63.79C55.63 63.79 52.69 60.85 52.7 57.23C52.72 53.6 55.66 50.66 59.26 50.67Z" fill="#F3DDCD"/>
<path opacity="0.15" d="M59.26 50.67C62.88 50.69 65.82 53.61 65.82 57.23C65.82 60.85 62.89 63.79 59.26 63.79C55.63 63.79 52.69 60.85 52.7 57.23C52.72 53.6 55.66 50.66 59.26 50.67Z" fill="#F3DECF"/>
<path opacity="0.14" d="M59.27 50.68C62.89 50.7 65.8301 53.62 65.8301 57.24C65.8301 60.86 62.9 63.8 59.27 63.8C55.64 63.8 52.7 60.86 52.71 57.24C52.73 53.61 55.67 50.67 59.27 50.68Z" fill="#F3DFD0"/>
<path opacity="0.14" d="M59.27 50.68C62.89 50.7 65.8301 53.62 65.8301 57.24C65.8301 60.86 62.9 63.8 59.27 63.8C55.64 63.8 52.7 60.86 52.71 57.24C52.73 53.61 55.67 50.67 59.27 50.68Z" fill="#F4E0D1"/>
<path opacity="0.13" d="M59.27 50.68C62.89 50.7 65.8301 53.62 65.8301 57.24C65.8301 60.86 62.9 63.8 59.27 63.8C55.64 63.8 52.7 60.86 52.71 57.24C52.73 53.61 55.67 50.67 59.27 50.68Z" fill="#F4E1D3"/>
<path opacity="0.13" d="M59.2801 50.69C62.9001 50.71 65.8401 53.63 65.8401 57.25C65.8401 60.87 62.9101 63.81 59.2801 63.81C55.6501 63.81 52.7101 60.87 52.7201 57.25C52.7301 53.62 55.6801 50.68 59.2801 50.69Z" fill="#F4E2D4"/>
<path opacity="0.12" d="M59.2801 50.69C62.9001 50.71 65.8401 53.63 65.8401 57.25C65.8401 60.87 62.9101 63.81 59.2801 63.81C55.6501 63.81 52.7101 60.87 52.7201 57.25C52.7301 53.62 55.6801 50.68 59.2801 50.69Z" fill="#F5E3D5"/>
<path opacity="0.12" d="M59.2801 50.69C62.9001 50.7 65.8401 53.63 65.8401 57.25C65.8401 60.87 62.9101 63.81 59.2801 63.81C55.6501 63.81 52.7101 60.87 52.7201 57.25C52.7301 53.62 55.6701 50.68 59.2801 50.69Z" fill="#F5E4D7"/>
<path opacity="0.11" d="M59.2801 50.7C62.9001 50.71 65.8401 53.64 65.8401 57.26C65.8401 60.88 62.9101 63.82 59.2801 63.82C55.6501 63.82 52.7101 60.88 52.7201 57.26C52.7301 53.63 55.6701 50.69 59.2801 50.7Z" fill="#F5E5D8"/>
<path opacity="0.11" d="M59.2901 50.7C62.9101 50.71 65.8501 53.64 65.8501 57.26C65.8501 60.88 62.9201 63.82 59.2901 63.82C55.6601 63.82 52.7201 60.88 52.7301 57.26C52.7401 53.63 55.6801 50.69 59.2901 50.7Z" fill="#F6E5DA"/>
<path opacity="0.1" d="M59.2901 50.7C62.9101 50.71 65.8501 53.64 65.8501 57.26C65.8501 60.88 62.9201 63.82 59.2901 63.82C55.6601 63.82 52.7201 60.88 52.7301 57.26C52.7401 53.63 55.6801 50.69 59.2901 50.7Z" fill="#F6E6DB"/>
<path opacity="0.1" d="M59.2901 50.7C62.9101 50.71 65.8501 53.64 65.8501 57.26C65.8501 60.88 62.9201 63.82 59.2901 63.82C55.6601 63.82 52.7201 60.88 52.7301 57.26C52.7401 53.63 55.6801 50.69 59.2901 50.7Z" fill="#F6E7DC"/>
<path opacity="0.09" d="M59.3 50.71C62.92 50.72 65.86 53.65 65.86 57.27C65.86 60.89 62.93 63.83 59.3 63.83C55.67 63.83 52.73 60.89 52.74 57.27C52.75 53.64 55.69 50.7 59.3 50.71Z" fill="#F7E8DE"/>
<path opacity="0.09" d="M59.3 50.71C62.92 50.72 65.86 53.65 65.86 57.27C65.86 60.89 62.93 63.83 59.3 63.83C55.67 63.83 52.73 60.89 52.74 57.27C52.75 53.64 55.69 50.7 59.3 50.71Z" fill="#F7E9DF"/>
<path opacity="0.08" d="M59.3 50.71C62.92 50.72 65.86 53.65 65.86 57.27C65.86 60.89 62.93 63.83 59.3 63.83C55.67 63.83 52.73 60.89 52.74 57.27C52.74 53.64 55.69 50.7 59.3 50.71Z" fill="#F8EAE1"/>
<path opacity="0.08" d="M59.3101 50.72C62.9301 50.72 65.8701 53.66 65.8701 57.28C65.8701 60.9 62.9401 63.84 59.3101 63.84C55.6801 63.84 52.7501 60.9 52.7501 57.28C52.7501 53.65 55.7001 50.71 59.3101 50.72Z" fill="#F8EBE2"/>
<path opacity="0.07" d="M59.3101 50.72C62.9301 50.72 65.8701 53.66 65.8701 57.28C65.8701 60.9 62.9401 63.84 59.3101 63.84C55.6801 63.84 52.7501 60.9 52.7501 57.28C52.7501 53.65 55.7001 50.72 59.3101 50.72Z" fill="#F8ECE4"/>
<path opacity="0.07" d="M59.3101 50.72C62.9301 50.72 65.8701 53.66 65.8701 57.28C65.8701 60.9 62.9401 63.84 59.3101 63.84C55.6801 63.84 52.7501 60.9 52.7501 57.28C52.7501 53.65 55.7001 50.72 59.3101 50.72Z" fill="#F9EDE5"/>
<path opacity="0.06" d="M59.3101 50.73C62.9301 50.73 65.8701 53.67 65.8701 57.29C65.8701 60.91 62.9401 63.85 59.3101 63.85C55.6801 63.85 52.7501 60.91 52.7501 57.29C52.7501 53.66 55.7001 50.73 59.3101 50.73Z" fill="#F9EEE7"/>
<path opacity="0.06" d="M59.3201 50.73C62.9401 50.73 65.8801 53.67 65.8801 57.29C65.8801 60.91 62.9501 63.85 59.3201 63.85C55.6901 63.85 52.7601 60.91 52.7601 57.29C52.7601 53.66 55.7001 50.73 59.3201 50.73Z" fill="#FAEFE8"/>
<path opacity="0.05" d="M59.3201 50.73C62.9401 50.73 65.8801 53.67 65.8801 57.29C65.8801 60.91 62.9501 63.85 59.3201 63.85C55.6901 63.85 52.7601 60.91 52.7601 57.29C52.7601 53.66 55.7001 50.73 59.3201 50.73Z" fill="#FAF0EA"/>
<path opacity="0.05" d="M59.3201 50.74C62.9401 50.74 65.8801 53.68 65.8801 57.3C65.8801 60.92 62.9501 63.86 59.3201 63.86C55.6901 63.86 52.7601 60.92 52.7601 57.3C52.7601 53.68 55.7001 50.74 59.3201 50.74Z" fill="#FAF1EB"/>
<path opacity="0.04" d="M59.33 50.74C62.95 50.74 65.89 53.68 65.89 57.3C65.89 60.92 62.96 63.86 59.33 63.86C55.7 63.86 52.77 60.92 52.77 57.3C52.77 53.68 55.71 50.74 59.33 50.74Z" fill="#FBF3ED"/>
<path opacity="0.04" d="M59.33 50.74C62.95 50.74 65.89 53.68 65.89 57.3C65.89 60.92 62.96 63.86 59.33 63.86C55.7 63.86 52.77 60.92 52.77 57.3C52.77 53.68 55.71 50.74 59.33 50.74Z" fill="#FBF4EE"/>
<path opacity="0.03" d="M59.33 50.75C62.95 50.75 65.89 53.69 65.89 57.31C65.89 60.93 62.96 63.87 59.33 63.87C55.7 63.87 52.77 60.93 52.77 57.31C52.77 53.69 55.71 50.75 59.33 50.75Z" fill="#FCF5F0"/>
<path opacity="0.03" d="M59.34 50.75C62.96 50.75 65.9 53.69 65.9 57.31C65.9 60.93 62.97 63.87 59.34 63.87C55.71 63.87 52.78 60.93 52.78 57.31C52.78 53.69 55.72 50.75 59.34 50.75Z" fill="#FCF6F1"/>
<path opacity="0.02" d="M59.34 50.75C62.96 50.75 65.9 53.69 65.9 57.31C65.9 60.93 62.97 63.87 59.34 63.87C55.71 63.87 52.78 60.93 52.78 57.31C52.78 53.69 55.72 50.75 59.34 50.75Z" fill="#FDF7F3"/>
<path opacity="0.02" d="M59.34 50.76C62.96 50.76 65.9 53.7 65.9 57.32C65.9 60.94 62.97 63.88 59.34 63.88C55.71 63.88 52.78 60.94 52.78 57.32C52.78 53.7 55.72 50.76 59.34 50.76Z" fill="#FDF8F5"/>
<path opacity="0.01" d="M59.35 50.76C62.97 50.76 65.91 53.7 65.91 57.32C65.91 60.94 62.98 63.88 59.35 63.88C55.72 63.88 52.79 60.94 52.79 57.32C52.79 53.7 55.73 50.76 59.35 50.76Z" fill="#FEFAF7"/>
</g>
</g>
</g>
</g>
<rect x="1" y="1" width="110" height="110" rx="9" stroke="black" stroke-opacity="0.1" stroke-width="2"/>
<defs>
<linearGradient id="paint0_linear_505_114" x1="61.2" y1="60.92" x2="56.66" y2="53.81" gradientUnits="userSpaceOnUse">
<stop stop-color="#F9A020"/>
<stop offset="0.25" stop-color="#F89B20"/>
<stop offset="0.53" stop-color="#F68D20"/>
<stop offset="0.62" stop-color="#F68820"/>
<stop offset="0.73" stop-color="#F58120"/>
<stop offset="1" stop-color="#F47521"/>
</linearGradient>
<linearGradient id="paint1_linear_505_114" x1="60.48" y1="60.82" x2="53.85" y2="47.86" gradientUnits="userSpaceOnUse">
<stop stop-color="#F68820" stop-opacity="0"/>
<stop offset="0.11" stop-color="#EE7F22" stop-opacity="0.14"/>
<stop offset="0.31" stop-color="#E37226" stop-opacity="0.35"/>
<stop offset="0.5" stop-color="#DB6829" stop-opacity="0.52"/>
<stop offset="0.69" stop-color="#D5602C" stop-opacity="0.64"/>
<stop offset="0.85" stop-color="#D15C2D" stop-opacity="0.71"/>
<stop offset="0.98" stop-color="#D05B2E" stop-opacity="0.74"/>
</linearGradient>
<clipPath id="clip0_505_114">
<rect x="2" y="2" width="108" height="108" rx="8" fill="white"/>
</clipPath>
<clipPath id="clip1_505_114">
<rect width="78.61" height="14.88" fill="white" transform="translate(17 49)"/>
</clipPath>
</defs>
</svg>
