<svg width="112" height="112" viewBox="0 0 112 112" fill="none" xmlns="http://www.w3.org/2000/svg">
<g clip-path="url(#clip0_505_119)">
<rect x="1.99991" y="2" width="108" height="108" rx="8" fill="white"/>
<path fill-rule="evenodd" clip-rule="evenodd" d="M65.9965 33.9165L70.5538 47.0839C70.8161 47.8519 70.8409 48.7782 70.5538 49.512L66.4384 57.7451L61.9035 52.1126L60.885 49.0665C60.7264 48.4683 60.7499 47.8364 60.9523 47.2516L61.7121 45.588C61.8775 45.2253 62.2178 45.2052 62.3407 45.5065L64.4486 51.5573C64.8669 51.334 65.1575 50.2682 64.8917 49.46L62.8429 43.7672C62.4884 42.5266 62.9055 41.2635 63.716 39.9862C63.9015 39.6766 64.1698 39.6872 64.3068 39.972L66.7089 46.8759C67.2158 46.701 67.4096 45.6672 67.0634 44.638L64.7712 38.0212C64.6362 37.1811 64.7452 36.3199 65.0855 35.5399C65.0855 35.5399 65.9811 33.9283 65.9965 33.9165ZM68.2509 56.9996C69.3308 57.2642 71.1138 57.2666 73.0681 57.204C73.6989 57.3536 74.2458 57.7447 74.5912 58.2934C76.3045 58.3123 77.0358 59.0661 76.8574 60.5041C76.347 59.2209 74.7672 59.0732 74.0323 60.0197C74.5238 60.4379 75.0874 60.458 75.7243 60.0669C75.7964 60.7416 74.9882 61.1433 73.243 61.2544C72.1465 61.4151 68.5723 64.3714 66.3663 66.3434C64.1704 67.9855 61.649 69.1393 58.9709 69.7274L41.1386 75.1532C40.7653 75.2548 40.5573 74.8519 40.77 74.7172C41.6999 73.8972 43.1331 73.0902 44.8098 72.2879C44.7223 72.0598 44.2603 72.0078 43.5538 72.0693L37.3044 74.6805C37.5053 73.9279 38.3915 73.063 40.1402 72.1567L49.7109 66.3978C49.9732 66.2583 50.037 66.1118 49.8291 65.9547C48.9323 65.9901 45.488 62.2316 42.6924 59.4383C42.2153 58.9561 41.9172 58.3254 41.8476 57.6506V55.616C41.8582 55.304 42.0094 55.2958 42.2978 55.5793L49.2182 62.2741C49.9626 62.9417 49.9094 61.5652 49.3753 61.0665L40.946 52.5545C40.545 52.0645 40.2845 51.4748 40.1922 50.8483V48.6825C40.1922 48.419 40.3304 48.3623 40.6294 48.6447L49.2773 57.0338C49.92 57.5833 49.8456 56.0886 49.2702 55.4718L39.6948 46.0724C39.0543 45.354 38.6798 44.6073 38.5486 43.8346V41.4336C38.5486 41.1441 38.7424 41.1146 39.1087 41.4608L49.2702 51.367C49.8362 51.9165 50.1942 50.8153 49.2702 49.9208L37.9626 38.6227C37.497 38.1158 36.9677 37.2969 36.9157 36.614L36.9464 34.1067C36.9653 33.744 37.2773 33.6802 37.5502 33.933L49.2477 45.3139C49.9673 46.0724 49.9874 44.9334 49.4651 44.1323L36.1477 30.9401C35.1398 29.7042 35.382 27.7983 35.4529 26.2257C35.4636 25.9893 35.6373 25.9208 35.8488 26.1134L52.7688 42.6341L66.9476 60.4545C67.1213 60.6565 67.3115 60.731 67.5219 60.6317L67.5077 59.8412L66.8117 58.6538L68.9126 58.1894L68.2533 56.9972L68.2509 56.9996ZM72.4065 58.3088L73.516 58.4009C73.1449 58.8924 72.657 58.922 72.0319 58.4151L72.1772 58.1043L72.4065 58.3088Z" fill="#F5303E"/>
<path fill-rule="evenodd" clip-rule="evenodd" d="M44.4766 69.5478C39.4986 69.0622 32.9575 69.347 33 78.1863C33.1181 83.2103 35.7259 85.8062 41.1599 86C43.3883 86 45.5152 85.5722 47.5167 84.6223L47.4884 77.5624C46.7546 76.499 45.6782 76.2768 44.284 76.8251L39.7089 78.6459V79.0323H44.1989L44.284 82.3785C40.0788 83.6274 36.6948 82.5108 36.7137 78.0693C36.6543 76.9063 36.8562 75.7447 37.3044 74.6699C37.5089 73.9196 38.395 73.0571 40.1402 72.1532L44.4742 69.5443L44.4766 69.5478Z" fill="#003563"/>
<path fill-rule="evenodd" clip-rule="evenodd" d="M65.8665 69.2347H68.1233C68.4636 69.2347 68.7932 69.4368 69.0591 69.7853L76.1875 79.525V69.4722C76.1844 69.4421 76.1874 69.4118 76.1963 69.3829C76.2053 69.354 76.22 69.3273 76.2395 69.3042C76.259 69.2812 76.283 69.2623 76.31 69.2487C76.337 69.2351 76.3664 69.2272 76.3966 69.2253L78.5234 69.2323C79.2194 69.2323 79.8456 69.9023 79.8574 70.5049L79.8645 85.2745C79.8645 85.525 79.7463 85.7164 79.445 85.7211L76.9413 85.7282C76.4309 85.7282 76.0504 85.1906 75.7007 84.7605L69.2765 75.9236L69.2623 85.3631C69.2623 85.5852 69.1548 85.7341 68.8984 85.7353L66.8401 85.7282C66.2068 85.7211 65.5463 84.9425 65.5404 84.4486V69.5608C65.5404 69.3611 65.6266 69.2359 65.8629 69.2335L65.8665 69.2347Z" fill="#003563"/>
<path fill-rule="evenodd" clip-rule="evenodd" d="M55.8692 72.1142L61.5348 70.8712C63.3367 72.2099 63.8082 75.3304 62.6538 77.8602C61.7026 79.59 60.2836 80.5671 58.3127 80.6593H53.5486L53.5144 85.3619C53.5321 85.6171 53.3962 85.753 53.0642 85.7436L51.1737 85.7507C50.5699 85.6703 49.8988 84.8704 49.8633 84.3032L49.8692 73.779C49.8692 73.5309 50.4517 73.1823 51.1181 73.0145L52.8113 72.6459C53.2296 72.5738 53.6514 72.6707 53.6644 72.8373L53.6916 77.6321L57.3225 77.625C58.5289 77.6085 59.4931 76.7483 59.5203 75.0149C59.5203 73.2745 58.8515 72.2583 55.8822 72.4746L55.8692 72.1142Z" fill="#003563"/>
</g>
<rect x="1" y="1" width="110" height="110" rx="9" stroke="black" stroke-opacity="0.1" stroke-width="2"/>
<defs>
<clipPath id="clip0_505_119">
<rect x="2" y="2" width="108" height="108" rx="8" fill="white"/>
</clipPath>
</defs>
</svg>
