<svg width="112" height="112" viewBox="0 0 112 112" fill="none" xmlns="http://www.w3.org/2000/svg">
<g clip-path="url(#clip0_505_121)">
<rect x="1.99991" y="2" width="108" height="108" rx="8" fill="white"/>
<path d="M95.7333 74.1318C95.7333 80.9321 90.1959 86.4695 83.3956 86.4695H16.2667V37.6043C16.2667 30.804 21.8041 25.2666 28.6044 25.2666H95.7333V74.1318Z" fill="white"/>
<path d="M73.8751 61.5998H78.9754C79.1211 61.5998 79.4611 61.5512 79.6068 61.5512C80.5783 61.3569 81.4041 60.4826 81.4041 59.2682C81.4041 58.1025 80.5783 57.2281 79.6068 56.9853C79.4611 56.9367 79.1697 56.9367 78.9754 56.9367H73.8751V61.5998Z" fill="url(#paint0_linear_505_121)"/>
<path d="M78.3925 29.3954C73.5351 29.3954 69.5521 33.3298 69.5521 38.2358V47.4162H82.0355C82.327 47.4162 82.667 47.4162 82.9099 47.4648C85.7271 47.6105 87.8158 49.0677 87.8158 51.5936C87.8158 53.5851 86.4072 55.2852 83.7842 55.6252V55.7224C86.65 55.9166 88.8359 57.5196 88.8359 59.9968C88.8359 62.6684 86.4072 64.4171 83.2013 64.4171H69.5035V82.3894H82.4727C87.3301 82.3894 91.3131 78.4549 91.3131 73.5489V29.3954H78.3925Z" fill="url(#paint1_linear_505_121)"/>
<path d="M80.7726 52.1765C80.7726 51.0107 79.9469 50.2335 78.9754 50.0878C78.8782 50.0878 78.6354 50.0392 78.4896 50.0392H73.8751V54.3137H78.4896C78.6354 54.3137 78.9268 54.3137 78.9754 54.2651C79.9469 54.1194 80.7726 53.3422 80.7726 52.1765Z" fill="url(#paint2_linear_505_121)"/>
<path d="M29.5273 29.3954C24.6699 29.3954 20.6869 33.3298 20.6869 38.2358V60.0454C23.1641 61.2598 25.7385 62.0369 28.313 62.0369C31.3731 62.0369 33.0246 60.1911 33.0246 57.6653V47.3677H40.6021V57.6167C40.6021 61.5998 38.1249 64.8542 29.7216 64.8542C24.6213 64.8542 20.6383 63.737 20.6383 63.737V82.3408H33.6075C38.4649 82.3408 42.4479 78.4063 42.4479 73.5003V29.3954H29.5273Z" fill="url(#paint3_linear_505_121)"/>
<path d="M53.9599 29.3954C49.1025 29.3954 45.1195 33.3298 45.1195 38.2358V49.7964C47.3539 47.902 51.2398 46.6876 57.5058 46.9791C60.8574 47.1248 64.4518 48.0477 64.4518 48.0477V51.7879C62.6546 50.865 60.5174 50.0392 57.7487 49.8449C52.9884 49.5049 50.1226 51.8365 50.1226 55.9166C50.1226 60.0454 52.9884 62.377 57.7487 61.9884C60.5174 61.7941 62.6546 60.9197 64.4518 60.0454V63.7856C64.4518 63.7856 60.906 64.7085 57.5058 64.8542C51.2398 65.1457 47.3539 63.9313 45.1195 62.0369V82.4379H58.0887C62.946 82.4379 66.9291 78.5034 66.9291 73.5975V29.3954H53.9599Z" fill="url(#paint4_linear_505_121)"/>
</g>
<rect x="1" y="1" width="110" height="110" rx="9" stroke="black" stroke-opacity="0.1" stroke-width="2"/>
<defs>
<linearGradient id="paint0_linear_505_121" x1="-29.4482" y1="55.9441" x2="200.94" y2="55.9441" gradientUnits="userSpaceOnUse">
<stop stop-color="#007940"/>
<stop offset="0.2285" stop-color="#00873F"/>
<stop offset="0.7433" stop-color="#40A737"/>
<stop offset="1" stop-color="#5CB531"/>
</linearGradient>
<linearGradient id="paint1_linear_505_121" x1="16.4117" y1="55.8436" x2="95.9506" y2="55.8436" gradientUnits="userSpaceOnUse">
<stop stop-color="#007940"/>
<stop offset="0.2285" stop-color="#00873F"/>
<stop offset="0.7433" stop-color="#40A737"/>
<stop offset="1" stop-color="#5CB531"/>
</linearGradient>
<linearGradient id="paint2_linear_505_121" x1="-33.6397" y1="55.7811" x2="217.851" y2="55.7811" gradientUnits="userSpaceOnUse">
<stop stop-color="#007940"/>
<stop offset="0.2285" stop-color="#00873F"/>
<stop offset="0.7433" stop-color="#40A737"/>
<stop offset="1" stop-color="#5CB531"/>
</linearGradient>
<linearGradient id="paint3_linear_505_121" x1="16.4062" y1="55.8716" x2="97.1702" y2="55.8716" gradientUnits="userSpaceOnUse">
<stop stop-color="#1F286F"/>
<stop offset="0.4751" stop-color="#004E94"/>
<stop offset="0.8261" stop-color="#0066B1"/>
<stop offset="1" stop-color="#006FBC"/>
</linearGradient>
<linearGradient id="paint4_linear_505_121" x1="44.9939" y1="55.8712" x2="66.5219" y2="55.8712" gradientUnits="userSpaceOnUse">
<stop stop-color="#6C2C2F"/>
<stop offset="0.1735" stop-color="#882730"/>
<stop offset="0.5731" stop-color="#BE1833"/>
<stop offset="0.8585" stop-color="#DC0436"/>
<stop offset="1" stop-color="#E60039"/>
</linearGradient>
<clipPath id="clip0_505_121">
<rect x="2" y="2" width="108" height="108" rx="8" fill="white"/>
</clipPath>
</defs>
</svg>
