<svg width="112" height="112" viewBox="0 0 112 112" fill="none" xmlns="http://www.w3.org/2000/svg">
<g clip-path="url(#clip0_505_116)">
<rect x="1.99988" y="2" width="108" height="108" rx="8" fill="white"/>
<path d="M40.1858 86.8764V82.7619C40.21 82.4158 40.16 82.0686 40.0394 81.7434C39.9187 81.4181 39.7301 81.1223 39.4861 80.8757C39.2421 80.6291 38.9483 80.4374 38.6244 80.3133C38.3004 80.1892 37.9538 80.1356 37.6075 80.156C37.1542 80.1266 36.7014 80.2192 36.2962 80.4242C35.8909 80.6293 35.5481 80.9392 35.3034 81.3219C35.0804 80.9506 34.7614 80.6464 34.38 80.4412C33.9987 80.2361 33.569 80.1375 33.1364 80.156C32.7592 80.1371 32.3837 80.217 32.0469 80.3878C31.7102 80.5586 31.4238 80.8144 31.2163 81.1298V80.3207H29.7899V86.8764H31.23V83.242C31.1988 83.0177 31.2177 82.7893 31.2853 82.5732C31.353 82.3572 31.4676 82.1587 31.621 81.9922C31.7744 81.8257 31.9628 81.6952 32.1726 81.6101C32.3825 81.5251 32.6086 81.4876 32.8346 81.5003C33.7809 81.5003 34.261 82.1174 34.261 83.2282V86.8764H35.7011V83.242C35.6723 83.0181 35.6929 82.7907 35.7614 82.5756C35.8298 82.3606 35.9446 82.1631 36.0975 81.9971C36.2504 81.8311 36.4378 81.7006 36.6466 81.6148C36.8553 81.5289 37.0803 81.4899 37.3058 81.5003C38.2794 81.5003 38.7458 82.1174 38.7458 83.2282V86.8764H40.1858ZM48.2229 80.3207H46.7965V81.1161C46.553 80.8024 46.2379 80.5515 45.8776 80.3844C45.5173 80.2174 45.1222 80.1391 44.7255 80.156C43.8417 80.1994 43.0084 80.581 42.3982 81.2219C41.788 81.8627 41.4477 82.7137 41.4477 83.5986C41.4477 84.4834 41.788 85.3344 42.3982 85.9753C43.0084 86.6161 43.8417 86.9977 44.7255 87.0411C45.1222 87.058 45.5173 86.9797 45.8776 86.8127C46.2379 86.6456 46.553 86.3947 46.7965 86.081V86.8764H48.2229V80.3207ZM42.9152 83.5985C42.9374 83.2116 43.0722 82.8397 43.3032 82.5286C43.5342 82.2175 43.8512 81.9808 44.2151 81.8477C44.579 81.7146 44.9738 81.6909 45.351 81.7795C45.7283 81.8681 46.0712 82.0652 46.3378 82.3465C46.6043 82.6277 46.7827 82.9808 46.8509 83.3623C46.9192 83.7437 46.8743 84.1367 46.7219 84.4929C46.5694 84.8492 46.316 85.153 45.993 85.3669C45.6699 85.5808 45.2913 85.6955 44.9038 85.6969C44.6322 85.7005 44.3628 85.6479 44.1126 85.5423C43.8624 85.4367 43.6367 85.2804 43.4499 85.0832C43.2631 84.8861 43.1191 84.6524 43.0271 84.3968C42.9351 84.1413 42.897 83.8695 42.9152 83.5985ZM78.7436 80.1483C79.2252 80.1437 79.7031 80.2333 80.1504 80.412C80.5673 80.5784 80.9475 80.8249 81.2695 81.1376C81.5864 81.4485 81.8379 81.8198 82.0089 82.2294C82.3651 83.1074 82.3651 84.0896 82.0089 84.9675C81.8379 85.3774 81.5865 85.7487 81.2695 86.0596C80.9475 86.3723 80.5673 86.6188 80.1504 86.7851C79.2455 87.1367 78.2417 87.1367 77.3367 86.7851C76.9205 86.6193 76.5413 86.3727 76.2209 86.0596C75.9058 85.7478 75.6556 85.3767 75.485 84.9675C75.1291 84.0895 75.1291 83.1075 75.485 82.2294C75.6557 81.8204 75.9058 81.4493 76.2209 81.1376C76.5413 80.8245 76.9206 80.5779 77.3367 80.412C77.784 80.2333 78.2619 80.1437 78.7436 80.1483ZM78.7436 81.497C78.4646 81.4945 78.1878 81.5469 77.9291 81.6511C77.6852 81.7489 77.4638 81.8957 77.2787 82.0822C77.0923 82.2728 76.9457 82.4986 76.8474 82.7464C76.6374 83.2952 76.6374 83.9021 76.8474 84.4509C76.9457 84.6987 77.0923 84.9244 77.2787 85.1149C77.4638 85.3015 77.6851 85.4483 77.9291 85.5462C78.4527 85.7516 79.0345 85.7516 79.5581 85.5462C79.8027 85.4478 80.0251 85.3011 80.2119 85.1149C80.4 84.925 80.5479 84.6992 80.6467 84.4509C80.8567 83.9021 80.8567 83.2952 80.6467 82.7464C80.5478 82.498 80.3999 82.2722 80.2119 82.0822C80.0251 81.8961 79.8027 81.7495 79.5581 81.6511C79.2993 81.5469 79.0225 81.4945 78.7436 81.497ZM55.9843 83.5985C55.9707 81.555 54.7088 80.156 52.871 80.156C51.9814 80.2027 51.1445 80.5921 50.5358 81.2426C49.9272 81.8931 49.5941 82.754 49.6065 83.6447C49.6189 84.5355 49.9759 85.3868 50.6025 86.02C51.229 86.6533 52.0765 87.0192 52.967 87.041C53.9456 87.0754 54.9025 86.7483 55.6552 86.1221L54.9557 85.066C54.4141 85.5 53.7433 85.7413 53.0493 85.7517C52.578 85.7914 52.1098 85.6461 51.7437 85.3466C51.3776 85.0471 51.1425 84.6169 51.088 84.1471H55.9569C55.9706 83.9688 55.9843 83.7906 55.9843 83.5985ZM51.1018 83.0225C51.1269 82.5824 51.3231 82.1695 51.6486 81.8722C51.9741 81.5749 52.403 81.4168 52.8436 81.4316C53.2744 81.4232 53.691 81.5859 54.0021 81.8841C54.3131 82.1823 54.4933 82.5917 54.5032 83.0225H51.1018ZM61.9912 81.994C61.3689 81.636 60.6656 81.4424 59.9477 81.4316C59.1659 81.4316 58.6996 81.7196 58.6996 82.1997C58.6996 82.6386 59.1933 82.7619 59.8106 82.8442L60.4825 82.9402C61.909 83.1459 62.7729 83.7493 62.7729 84.9014C62.7729 86.1495 61.6758 87.0411 59.7831 87.0411C58.7701 87.0691 57.7749 86.7709 56.9441 86.1906L57.6161 85.0798C58.2455 85.5465 59.0136 85.788 59.7968 85.7656C60.7705 85.7656 61.2917 85.4776 61.2917 84.97C61.2917 84.5997 60.9214 84.394 60.1397 84.2843L59.4676 84.1884C58.0002 83.9826 57.2047 83.3243 57.2047 82.2545C57.2047 80.9515 58.2744 80.156 59.934 80.156C60.8728 80.1237 61.8011 80.3617 62.6084 80.8419L61.9912 81.994ZM68.8449 81.6236H66.5134V84.5861C66.5134 85.2443 66.7466 85.6833 67.4598 85.6833C67.9049 85.6685 68.3391 85.5411 68.7216 85.313L69.1329 86.5337C68.5982 86.8671 67.9802 87.043 67.35 87.0411C65.6631 87.0411 65.0734 86.1359 65.0734 84.6134V81.6236H63.743V80.3207H65.0734L65.073 78.3321H66.513L66.5134 80.3207H68.8449V81.6236ZM73.7812 80.156C74.1272 80.1574 74.4705 80.2178 74.7962 80.3345L74.3573 81.6785C74.0739 81.5656 73.7709 81.5097 73.4659 81.5139C72.5332 81.5139 72.0668 82.1174 72.0668 83.2008V86.8764H70.6406V80.3207H72.0533V81.1161C72.2282 80.8154 72.4811 80.5675 72.7853 80.3985C73.0894 80.2296 73.4335 80.1458 73.7812 80.156ZM83.656 85.9221C83.7447 85.9215 83.8326 85.939 83.9144 85.9733C83.993 86.0062 84.0646 86.0536 84.1255 86.1132C84.1858 86.1727 84.2341 86.2433 84.2677 86.3212C84.302 86.4011 84.3197 86.4872 84.3197 86.5742C84.3197 86.6613 84.302 86.7474 84.2677 86.8273C84.2339 86.9048 84.1856 86.9751 84.1255 87.0344C84.0645 87.094 83.9929 87.1417 83.9144 87.175C83.8327 87.21 83.7448 87.2277 83.656 87.2271C83.5254 87.2284 83.3972 87.1912 83.2876 87.1201C83.1779 87.049 83.0917 86.9471 83.0396 86.8273C83.0053 86.7473 82.9877 86.6612 82.9877 86.5742C82.9877 86.4872 83.0053 86.4012 83.0396 86.3212C83.073 86.2434 83.1211 86.1728 83.1812 86.1132C83.242 86.0532 83.314 86.0057 83.3931 85.9733C83.4764 85.9388 83.5658 85.9214 83.656 85.9221ZM83.656 87.0831C83.7237 87.0837 83.7907 87.07 83.8528 87.0432C83.9124 87.0173 83.9667 86.9804 84.0126 86.9344C84.0716 86.8757 84.1152 86.8034 84.1396 86.7238C84.164 86.6442 84.1685 86.5599 84.1528 86.4782C84.137 86.3965 84.1014 86.3199 84.0491 86.2552C83.9968 86.1904 83.9294 86.1395 83.8528 86.1069C83.7906 86.0804 83.7236 86.0671 83.656 86.0677C83.5872 86.0671 83.5189 86.0805 83.4553 86.1069C83.3947 86.1319 83.3396 86.1685 83.2931 86.2147C83.1982 86.3104 83.145 86.4398 83.145 86.5746C83.145 86.7094 83.1982 86.8387 83.2931 86.9344C83.3408 86.9819 83.3974 87.0195 83.4597 87.045C83.522 87.0705 83.5887 87.0835 83.656 87.0831ZM83.6944 86.2691C83.7587 86.2649 83.8223 86.2833 83.8744 86.3212C83.8952 86.3383 83.9117 86.3599 83.9226 86.3845C83.9336 86.409 83.9387 86.4358 83.9375 86.4627C83.9382 86.4857 83.9341 86.5086 83.9255 86.5299C83.9168 86.5512 83.9038 86.5705 83.8872 86.5865C83.8474 86.6218 83.7971 86.6429 83.744 86.6465L83.9423 86.8752H83.7872L83.6033 86.6481H83.5441V86.8752H83.4146V86.2691H83.6944ZM83.5441 86.3827V86.5443H83.6929C83.7215 86.5457 83.7498 86.5387 83.7745 86.5241C83.7845 86.5174 83.7926 86.5083 83.7979 86.4975C83.8032 86.4867 83.8056 86.4747 83.8048 86.4627C83.8054 86.4509 83.803 86.4391 83.7977 86.4286C83.7923 86.418 83.7844 86.409 83.7745 86.4026C83.7498 86.3882 83.7214 86.3813 83.6929 86.3827H83.5441Z" fill="black"/>
<path d="M66.8168 30.2857H45.1844V69.1597H66.8168V30.2857Z" fill="#7375CF"/>
<path d="M46.558 49.7227C46.5546 45.9789 47.403 42.2833 49.0389 38.9159C50.6749 35.5484 53.0555 32.5972 56.0006 30.2858C52.3535 27.4191 47.9735 25.6363 43.361 25.1412C38.7486 24.6462 34.09 25.4588 29.9176 27.4863C25.7452 29.5137 22.2274 32.6741 19.7663 36.6063C17.3052 40.5385 16 45.0838 16 49.7227C16 54.3616 17.3052 58.9069 19.7663 62.8391C22.2274 66.7714 25.7452 69.9318 29.9176 71.9592C34.09 73.9867 38.7486 74.7993 43.361 74.3042C47.9735 73.8092 52.3535 72.0264 56.0006 69.1597C53.0555 66.8483 50.6749 63.8971 49.0389 60.5296C47.403 57.1621 46.5546 53.4666 46.558 49.7227Z" fill="#EB001B"/>
<path d="M93.6414 65.0424V64.2465H93.9623V64.0844H93.145V64.2465H93.4661V65.0424H93.6414ZM95.2281 65.0424V64.0828H94.9776L94.6894 64.7428L94.4012 64.0828H94.1505V65.0424H94.3274V64.3186L94.5977 64.9426H94.7811L95.0513 64.317V65.0424H95.2281Z" fill="#00A2E5"/>
<path d="M96 49.7227C96.0002 54.3615 94.6952 58.9068 92.2342 62.839C89.7732 66.7712 86.2555 69.9317 82.0832 71.9591C77.9109 73.9866 73.2524 74.7992 68.64 74.3042C64.0277 73.8091 59.6476 72.0264 56.0006 69.1597C58.9431 66.846 61.322 63.8942 62.9577 60.5273C64.5933 57.1603 65.4432 53.4659 65.4432 49.7227C65.4432 45.9794 64.5933 42.2851 62.9577 38.9181C61.322 35.5511 58.9431 32.5995 56.0006 30.2858C59.6476 27.419 64.0277 25.6362 68.64 25.1412C73.2524 24.6461 77.9109 25.4588 82.0832 27.4863C86.2555 29.5137 89.7732 32.6742 92.2342 36.6064C94.6952 40.5386 96.0002 45.0839 96 49.7227Z" fill="#00A2E5"/>
</g>
<rect x="1" y="1" width="110" height="110" rx="9" stroke="black" stroke-opacity="0.1" stroke-width="2"/>
<defs>
<clipPath id="clip0_505_116">
<rect x="2" y="2" width="108" height="108" rx="8" fill="white"/>
</clipPath>
</defs>
</svg>
