<svg width="112" height="112" viewBox="0 0 112 112" fill="none" xmlns="http://www.w3.org/2000/svg">
<g clip-path="url(#clip0_647_1778)">
<rect x="1.99988" y="2" width="108" height="108" rx="8" fill="white"/>
<path d="M96 29.0001H16V82.3334H96V29.0001Z" fill="#231F20"/>
<path d="M67.2925 75.589V75.3501H67.3888V75.3019H67.1444V75.3501H67.2407V75.589H67.2925ZM67.7685 75.589V75.3019H67.6925L67.6055 75.5001L67.5185 75.3019H67.4425V75.589H67.4962V75.3723L67.5777 75.5593H67.6333L67.7148 75.3723V75.589H67.7685Z" fill="#F99F1C"/>
<path d="M59.2277 65.1612H52.7388V76.8241H59.2277V65.1612Z" fill="#F26522"/>
<path d="M53.1666 70.9927C53.1666 68.626 54.274 66.5186 55.9999 65.1612C54.7388 64.1686 53.1462 63.576 51.4166 63.576C47.3203 63.576 43.9999 66.8964 43.9999 70.9927C43.9999 75.089 47.3203 78.4093 51.4166 78.4093C53.1462 78.4093 54.7388 77.8167 55.9999 76.8241C54.274 75.4667 53.1666 73.3593 53.1666 70.9927Z" fill="#E52423"/>
<path d="M60.5833 63.576C58.8536 63.576 57.2611 64.1686 55.9999 65.1612C57.7259 66.5186 58.8333 68.626 58.8333 70.9927C58.8333 73.3593 57.7259 75.4667 55.9999 76.8241C57.2611 77.8167 58.8536 78.4093 60.5833 78.4093C64.6796 78.4093 67.9999 75.089 67.9999 70.9927C67.9999 66.8964 64.6796 63.576 60.5833 63.576Z" fill="#F99F1C"/>
<path d="M71.0222 57.5279L72.2574 54.3334H72.7148L71.2852 57.976H70.7667L69.5667 54.7927L68.3741 57.976H67.8593L66.4315 54.3334H66.9L68.1315 57.5242L69.3278 54.3334H69.8241L71.0241 57.5279H71.0222ZM35.0722 53.0056H33.1167V57.9779H32.6444V53.0056H30.6926V52.5556H35.0722V53.0056ZM38.6778 57.9779H38.2407V57.2779C38.0944 57.5075 37.9 57.6908 37.6574 57.8297C37.4167 57.9686 37.1296 58.0371 36.7963 58.0371C36.5407 58.0371 36.3019 57.989 36.0796 57.8964C35.8574 57.8019 35.6648 57.6723 35.5037 57.5056C35.3407 57.339 35.213 57.1408 35.1185 56.9112C35.0241 56.6816 34.9778 56.4316 34.9778 56.1593C34.9778 55.8871 35.0241 55.6371 35.1185 55.4075C35.213 55.1779 35.3407 54.9797 35.5037 54.8112C35.6667 54.6427 35.8593 54.513 36.0796 54.4186C36.3019 54.3242 36.5407 54.2779 36.7963 54.2779C37.1296 54.2779 37.4167 54.3482 37.6574 54.4871C37.8981 54.626 38.0926 54.8093 38.2407 55.0371V54.3371H38.6778V57.9797V57.9779ZM36.8463 54.6908C36.637 54.6908 36.4463 54.7297 36.2722 54.8056C36.0981 54.8816 35.9481 54.9853 35.8222 55.1168C35.6963 55.2482 35.6 55.4038 35.5296 55.5816C35.4593 55.7593 35.4259 55.9519 35.4259 56.1575C35.4259 56.363 35.4611 56.5556 35.5296 56.7353C35.6 56.913 35.6981 57.0686 35.8241 57.2001C35.95 57.3316 36.1 57.4353 36.2759 57.5093C36.45 57.5834 36.6407 57.6223 36.8463 57.6223C37.0519 57.6223 37.2426 57.5853 37.4148 57.5112C37.587 57.4371 37.737 57.3353 37.8648 57.2038C37.9907 57.0723 38.0889 56.9168 38.1593 56.739C38.2296 56.5612 38.263 56.3668 38.263 56.1575C38.263 55.9482 38.2278 55.7538 38.1593 55.5742C38.0889 55.3945 37.9907 55.2408 37.8648 55.1093C37.7389 54.9797 37.5889 54.876 37.4148 54.8019C37.2426 54.7279 37.0519 54.689 36.8463 54.689V54.6908ZM41.9611 54.276C42.2167 54.276 42.4556 54.3223 42.6778 54.4168C42.9 54.5112 43.0926 54.6427 43.2574 54.8093C43.4204 54.9779 43.55 55.176 43.6444 55.4056C43.7389 55.6353 43.7852 55.8853 43.7852 56.1575C43.7852 56.4297 43.7389 56.6797 43.6444 56.9093C43.55 57.139 43.4204 57.3371 43.2574 57.5038C43.0926 57.6705 42.9 57.8001 42.6778 57.8945C42.4556 57.989 42.2167 58.0353 41.9611 58.0353C41.6315 58.0353 41.3463 57.9668 41.1056 57.8297C40.8648 57.6927 40.6722 57.5112 40.5241 57.2834V59.526H40.0833V54.3334H40.5241V55.026C40.6685 54.8019 40.8611 54.6205 41.1037 54.4816C41.3444 54.3445 41.6315 54.2742 41.9611 54.2742V54.276ZM41.9111 54.6908C41.7056 54.6908 41.5148 54.7279 41.3426 54.8038C41.1704 54.8779 41.0204 54.9816 40.8963 55.1112C40.7704 55.2408 40.6722 55.3964 40.6019 55.576C40.5315 55.7556 40.4963 55.9501 40.4963 56.1593C40.4963 56.3686 40.5315 56.5612 40.6019 56.7408C40.6722 56.9186 40.7704 57.0742 40.8963 57.2056C41.0222 57.3371 41.1704 57.439 41.3426 57.513C41.5148 57.5871 41.7056 57.6242 41.9111 57.6242C42.1167 57.6242 42.3111 57.5871 42.4852 57.5112C42.6593 57.4371 42.8093 57.3334 42.9352 57.2019C43.0611 57.0705 43.1574 56.9149 43.2278 56.7371C43.2981 56.5593 43.3315 56.3668 43.3315 56.1593C43.3315 55.9519 43.2963 55.7612 43.2278 55.5834C43.1574 55.4056 43.0593 55.2501 42.9333 55.1186C42.8074 54.9871 42.6574 54.8834 42.4833 54.8075C42.3111 54.7316 42.1185 54.6927 41.9111 54.6927V54.6908ZM50.7963 57.9779L49.8741 57.0797C49.7741 57.2112 49.6648 57.3353 49.55 57.4519C49.4352 57.5686 49.3093 57.6686 49.1722 57.7556C49.0352 57.8427 48.887 57.9112 48.7259 57.9612C48.5648 58.0112 48.387 58.0371 48.1944 58.0371C47.9667 58.0371 47.763 58.0075 47.5796 57.9464C47.3963 57.8853 47.2389 57.7982 47.1093 57.6834C46.9796 57.5686 46.8778 57.4297 46.8074 57.2686C46.737 57.1075 46.7018 56.926 46.7018 56.7242C46.7018 56.5408 46.7333 56.3723 46.7963 56.2168C46.8593 56.0612 46.9426 55.9186 47.0481 55.7871C47.1519 55.6556 47.2722 55.5316 47.4056 55.4149C47.5407 55.2982 47.6796 55.1871 47.8241 55.0816C47.6852 54.9445 47.563 54.8186 47.4574 54.7019C47.3537 54.5853 47.2667 54.4723 47.2 54.3631C47.1333 54.2538 47.0833 54.1427 47.0481 54.0316C47.0148 53.9205 46.9981 53.8001 46.9981 53.6668C46.9981 53.5075 47.0296 53.3556 47.0926 53.213C47.1556 53.0705 47.2444 52.9464 47.3574 52.8408C47.4704 52.7353 47.6056 52.6519 47.763 52.589C47.9185 52.5279 48.0907 52.4964 48.2796 52.4964C48.4685 52.4964 48.637 52.526 48.7944 52.5834C48.9518 52.6408 49.087 52.7223 49.1981 52.8242C49.3111 52.926 49.3981 53.0464 49.4611 53.1834C49.5241 53.3223 49.5556 53.4723 49.5556 53.6353C49.5556 53.7982 49.5259 53.939 49.4667 54.0723C49.4074 54.2075 49.3278 54.3334 49.2278 54.4519C49.1278 54.5705 49.0148 54.6834 48.887 54.789C48.7593 54.8945 48.6278 54.9982 48.4907 55.0982L49.8296 56.4075L50.7204 55.0945L51.0759 55.3186L50.1389 56.7093L51.4315 57.976H50.7926L50.7963 57.9779ZM48.2185 57.6223C48.3685 57.6223 48.5056 57.6019 48.6296 57.563C48.7537 57.5223 48.8685 57.4668 48.9759 57.3927C49.0833 57.3186 49.1852 57.2316 49.2815 57.1279C49.3778 57.0242 49.4741 56.9093 49.5704 56.7834L48.1222 55.3742C47.9963 55.4686 47.8759 55.5668 47.7593 55.6649C47.6444 55.7631 47.5444 55.8668 47.4574 55.9742C47.3704 56.0834 47.3019 56.1982 47.25 56.3205C47.1981 56.4427 47.1722 56.5742 47.1722 56.713C47.1722 56.8519 47.1981 56.9705 47.25 57.0834C47.3019 57.1964 47.3741 57.2927 47.4648 57.3723C47.5556 57.4519 47.6667 57.5149 47.7944 57.5575C47.9222 57.6019 48.063 57.6242 48.2185 57.6242V57.6223ZM47.4722 53.6964C47.4722 53.7871 47.4852 53.8723 47.5111 53.9519C47.537 54.0316 47.5778 54.1149 47.6352 54.1982C47.6926 54.2816 47.7667 54.3742 47.8593 54.4723C47.9518 54.5723 48.0648 54.6853 48.1963 54.8149C48.3185 54.7279 48.4333 54.639 48.5407 54.5501C48.65 54.4612 48.7444 54.3686 48.8278 54.2742C48.9111 54.1797 48.9759 54.0816 49.0241 53.9797C49.0722 53.8779 49.0963 53.7705 49.0963 53.6556C49.0963 53.5501 49.0778 53.4519 49.0389 53.3612C49 53.2705 48.9444 53.1927 48.8741 53.126C48.8037 53.0593 48.7167 53.0075 48.6167 52.9686C48.5167 52.9316 48.4056 52.9131 48.2833 52.9131C48.1611 52.9131 48.0518 52.9334 47.9537 52.9723C47.8556 53.0131 47.7704 53.0668 47.6981 53.1371C47.6259 53.2075 47.5704 53.289 47.5315 53.3853C47.4926 53.4816 47.4741 53.5834 47.4741 53.6945L47.4722 53.6964ZM55.8667 54.2779C56.1944 54.2779 56.4778 54.3482 56.7167 54.489C56.9556 54.6297 57.1463 54.8168 57.287 55.0482V54.3353H57.7278V57.7316C57.7278 58.0334 57.6796 58.3001 57.5815 58.5297C57.4833 58.7593 57.3481 58.9519 57.1741 59.1075C57 59.263 56.7981 59.3797 56.5667 59.4575C56.3352 59.5371 56.0833 59.576 55.8148 59.576C55.6648 59.576 55.5185 59.563 55.3741 59.539C55.2296 59.5149 55.0907 59.4797 54.9593 59.4353C54.8278 59.3908 54.7037 59.3353 54.5889 59.2705C54.4741 59.2056 54.3722 59.1316 54.2815 59.0501L54.5056 58.7297C54.6778 58.8668 54.8759 58.9742 55.0963 59.0556C55.3167 59.1353 55.5556 59.176 55.8148 59.176C56.0185 59.176 56.2111 59.1464 56.3889 59.089C56.5685 59.0316 56.7241 58.9427 56.8574 58.8242C56.9907 58.7056 57.0944 58.5575 57.1704 58.3797C57.2463 58.2019 57.2852 57.9945 57.2852 57.7556V57.2371C57.1426 57.4705 56.9519 57.6556 56.7148 57.7945C56.4759 57.9334 56.1926 58.0038 55.8648 58.0038C55.6093 58.0038 55.3704 57.9575 55.15 57.8668C54.9296 57.7742 54.737 57.6464 54.5759 57.4834C54.413 57.3186 54.287 57.1242 54.1944 56.8945C54.1018 56.6668 54.0574 56.4149 54.0574 56.1408C54.0574 55.8668 54.1037 55.6205 54.1944 55.3908C54.2852 55.163 54.413 54.9668 54.5759 54.8019C54.7389 54.639 54.9296 54.5112 55.15 54.4186C55.3704 54.3279 55.6093 54.2816 55.8648 54.2816L55.8667 54.2779ZM55.913 54.6927C55.7074 54.6927 55.5167 54.7297 55.3444 54.8056C55.1722 54.8797 55.0222 54.9834 54.9 55.113C54.7759 55.2427 54.6796 55.3964 54.6111 55.5723C54.5426 55.7482 54.5093 55.9371 54.5093 56.1371C54.5093 56.3371 54.5426 56.5316 54.6111 56.7056C54.6796 56.8797 54.7759 57.0334 54.9 57.1649C55.0241 57.2945 55.1722 57.3982 55.3444 57.4723C55.5167 57.5464 55.7074 57.5853 55.913 57.5853C56.1185 57.5853 56.3056 57.5482 56.4778 57.4742C56.65 57.4001 56.8 57.3001 56.9241 57.1705C57.05 57.0408 57.1463 56.889 57.2167 56.7112C57.287 56.5334 57.3204 56.3427 57.3204 56.1371C57.3204 55.9316 57.2852 55.7427 57.2167 55.5668C57.1463 55.3908 57.05 55.2371 56.9241 55.1075C56.7981 54.9779 56.65 54.8779 56.4778 54.8038C56.3056 54.7297 56.1167 54.6927 55.913 54.6927ZM60.7333 54.2779C61.0037 54.2779 61.2556 54.326 61.487 54.4205C61.7185 54.5168 61.9185 54.6482 62.087 54.8149C62.2556 54.9834 62.3889 55.1816 62.4852 55.4112C62.5815 55.6408 62.6296 55.8908 62.6296 56.1593C62.6296 56.4279 62.5815 56.676 62.4852 56.9038C62.3889 57.1316 62.2556 57.3297 62.087 57.4982C61.9185 57.6668 61.7185 57.7982 61.487 57.8927C61.2556 57.9871 61.0056 58.0353 60.7333 58.0353C60.4611 58.0353 60.2111 57.9871 59.9815 57.8927C59.7519 57.7964 59.5518 57.6649 59.3833 57.4982C59.2148 57.3297 59.0815 57.1316 58.987 56.9038C58.8907 56.676 58.8444 56.4279 58.8444 56.1593C58.8444 55.8908 58.8926 55.6427 58.987 55.4112C59.0833 55.1816 59.2148 54.9834 59.3833 54.8149C59.5518 54.6464 59.7519 54.5149 59.9815 54.4205C60.2111 54.3242 60.4611 54.2779 60.7333 54.2779ZM60.7333 54.6927C60.5296 54.6927 60.3389 54.7297 60.1648 54.8038C59.9907 54.8779 59.837 54.9797 59.7074 55.1093C59.5778 55.239 59.4778 55.3945 59.4037 55.5742C59.3296 55.7538 59.2926 55.9482 59.2926 56.1612C59.2926 56.3742 59.3296 56.5686 59.4037 56.7482C59.4778 56.9279 59.5778 57.0816 59.7074 57.2112C59.837 57.3408 59.9889 57.4408 60.1648 57.5149C60.3407 57.589 60.5296 57.626 60.7333 57.626C60.937 57.626 61.1278 57.589 61.3037 57.5149C61.4815 57.4408 61.6333 57.3408 61.763 57.2112C61.8926 57.0816 61.9926 56.9279 62.0667 56.7482C62.1407 56.5686 62.1778 56.3742 62.1778 56.1612C62.1778 55.9482 62.1407 55.7538 62.0667 55.5742C61.9926 55.3945 61.8926 55.239 61.763 55.1093C61.6333 54.9797 61.4815 54.8779 61.3037 54.8038C61.1278 54.7297 60.937 54.6927 60.7333 54.6927ZM62.9426 53.9205V53.2427H62.6685V53.1334H63.3333V53.2427H63.0593V53.9205H62.9426ZM64.2333 53.9205V53.2927L63.9815 53.8353H63.8611L63.6074 53.2927V53.9205H63.4889V53.1316H63.6556L63.9222 53.6982L64.187 53.1316H64.3519V53.9205H64.2333ZM73.8407 52.7075C73.9315 52.7075 74.0074 52.739 74.0667 52.8001C74.1278 52.8612 74.1574 52.939 74.1574 53.0279C74.1574 53.1168 74.1278 53.1927 74.0667 53.2519C74.0056 53.3112 73.9296 53.3408 73.8407 53.3408C73.7519 53.3408 73.6759 53.3112 73.6167 53.2519C73.5574 53.1927 73.5278 53.1186 73.5278 53.0279C73.5278 52.9371 73.5574 52.8612 73.6167 52.8001C73.6759 52.739 73.75 52.7075 73.8407 52.7075ZM74.0611 57.9816H73.6204V54.339H74.0611V57.9816ZM77.9333 54.7408H76.2537V56.7279C76.2537 56.8834 76.2722 57.0168 76.3111 57.1279C76.35 57.2408 76.4037 57.3334 76.4759 57.4075C76.5463 57.4816 76.6315 57.5353 76.7315 57.5723C76.8315 57.6093 76.9407 57.626 77.063 57.626C77.2204 57.626 77.3685 57.6001 77.5056 57.5501C77.6444 57.5001 77.7667 57.4316 77.8759 57.3464L78.0852 57.676C77.9537 57.7834 77.8 57.8723 77.6222 57.939C77.4444 58.0056 77.2481 58.039 77.0278 58.039C76.6481 58.039 76.35 57.9316 76.1352 57.7168C75.9204 57.5019 75.8111 57.1742 75.8111 56.7334V54.739H74.9741V54.3371H75.8111V53.1482H76.2518V54.3371H77.9315V54.739L77.9333 54.7408ZM79.4093 54.9686C79.4815 54.8501 79.5667 54.7464 79.663 54.6593C79.7593 54.5723 79.8648 54.5001 79.9778 54.4445C80.0907 54.389 80.2093 54.3482 80.3333 54.3205C80.4574 54.2927 80.5815 54.2797 80.7056 54.2797C80.9333 54.2797 81.1407 54.3149 81.3296 54.3816C81.5185 54.4501 81.6796 54.5482 81.8148 54.6742C81.95 54.8001 82.0556 54.9556 82.1278 55.1371C82.2019 55.3186 82.2389 55.5223 82.2389 55.7464V57.9797H81.7981V55.8816C81.7981 55.6982 81.7722 55.5334 81.7204 55.3853C81.6685 55.239 81.5926 55.1131 81.4926 55.0112C81.3926 54.9093 81.2685 54.8316 81.1241 54.7779C80.9796 54.7242 80.8148 54.6964 80.6278 54.6964C80.4574 54.6964 80.2981 54.726 80.15 54.7834C80.0019 54.8408 79.8722 54.9242 79.763 55.0316C79.6537 55.139 79.5667 55.2668 79.5037 55.4149C79.4407 55.563 79.4093 55.726 79.4093 55.9056V57.9816H78.9685V52.4056H79.4093V54.9686ZM49.1963 38.8464C49.4018 39.126 49.5704 39.4371 49.6796 39.7742C49.7944 40.1112 49.8556 40.4686 49.8556 40.8464C49.8556 41.2242 49.7944 41.5816 49.6796 41.9186C49.5704 42.2538 49.4018 42.5668 49.1963 42.8482C48.9111 43.2297 48.9926 43.7686 49.3741 44.0501C49.7537 44.3316 50.2907 44.2519 50.5778 43.8723C50.8889 43.4501 51.1407 42.976 51.3093 42.4668C51.4815 41.9594 51.5759 41.4112 51.5759 40.8464C51.5759 40.2816 51.4815 39.7353 51.3111 39.226C51.1407 38.7149 50.8889 38.2445 50.5778 37.8205C50.2963 37.439 49.7593 37.3594 49.3778 37.6445C48.9944 37.926 48.913 38.4631 49.1981 38.8464M52.1444 37.2427C52.7926 38.2927 53.163 39.5223 53.163 40.8464C53.163 42.1705 52.7907 43.4019 52.1444 44.4519C51.8963 44.8575 52.0204 45.3834 52.4241 45.6334C52.8278 45.8816 53.3611 45.7556 53.6074 45.3519C54.4148 44.0445 54.8833 42.4964 54.8833 40.8464C54.8833 39.1964 54.4167 37.6519 53.6074 36.3408C53.3593 35.939 52.8278 35.8094 52.4241 36.0612C52.0185 36.3112 51.8963 36.8408 52.1444 37.2445M55.2667 35.6112C56.1667 37.1482 56.6778 38.9371 56.6778 40.8464C56.6778 42.7556 56.1667 44.5445 55.2667 46.0816C55.0259 46.4927 55.1667 47.0205 55.5741 47.2593C55.987 47.5001 56.513 47.3612 56.7519 46.9519C57.7981 45.1594 58.3981 43.0686 58.3981 40.8464C58.3981 38.6242 57.7963 36.5334 56.7519 34.7408C56.5111 34.3316 55.987 34.1927 55.5759 34.4334C55.1667 34.6705 55.0278 35.2001 55.2667 35.6112ZM58.3815 33.9705C59.537 36.0001 60.1963 38.3427 60.1963 40.8482C60.1963 43.3538 59.5352 45.6964 58.3815 47.7223C58.1481 48.1371 58.2907 48.6612 58.7019 48.8945C59.1167 49.1279 59.6407 48.9853 59.8759 48.5723C61.1722 46.2945 61.9148 43.6556 61.9148 40.8464C61.9148 38.0371 61.1722 35.3982 59.8759 33.1205C59.6407 32.7075 59.1167 32.5631 58.7019 32.7982C58.2926 33.0353 58.1481 33.5594 58.3815 33.9705Z" fill="white"/>
</g>
<rect x="1" y="1" width="110" height="110" rx="9" stroke="black" stroke-opacity="0.1" stroke-width="2"/>
<defs>
<clipPath id="clip0_647_1778">
<rect x="2" y="2" width="108" height="108" rx="8" fill="white"/>
</clipPath>
</defs>
</svg>
