<svg width="112" height="112" viewBox="0 0 112 112" fill="none" xmlns="http://www.w3.org/2000/svg">
<g clip-path="url(#clip0_649_1835)">
<rect x="1.99988" y="2" width="108" height="108" rx="8" fill="white"/>
<path d="M95.2594 82.4871H17.0227V82.2353H95.2594V82.4871Z" fill="#231F20"/>
<path d="M69.8186 91.3033H67.5516V93.9229C67.5516 94.1244 67.5516 94.2756 67.6524 94.4267C67.7028 94.5778 67.7531 94.6786 67.8539 94.7793C67.9547 94.8801 68.0554 94.9305 68.1562 94.9809C68.3073 95.0312 68.4081 95.0312 68.5592 95.0312C68.7607 95.0312 68.9622 94.9809 69.1637 94.9305C69.3652 94.8801 69.5164 94.7793 69.6675 94.6786L70.1209 95.3839C69.9194 95.535 69.6675 95.6861 69.4156 95.7869C69.1133 95.8876 68.8111 95.938 68.5088 95.938C68.2569 95.938 67.9547 95.8876 67.7028 95.8373C67.5013 95.7365 67.2997 95.6358 67.0982 95.4846C66.9471 95.2831 66.796 95.0816 66.7456 94.8297C66.6448 94.5274 66.5945 94.2252 66.5945 93.9229V91.2529H65.4358V90.3965H66.5945V88.6836H67.5516V90.3965H69.8186V91.3033ZM64.2771 95.8876H63.3703V90.4468H64.2771V95.8876ZM63.8237 87.8776C63.9244 87.8776 64.0252 87.8776 64.0756 87.928C64.1763 87.9783 64.2267 88.0287 64.2771 88.0791C64.3274 88.1295 64.3778 88.2302 64.4282 88.2806C64.4786 88.3813 64.4786 88.4317 64.4786 88.5325C64.4786 88.6332 64.4786 88.6836 64.4282 88.7844C64.3778 88.8851 64.3274 88.9355 64.2771 88.9859C64.2267 89.0363 64.1259 89.0866 64.0756 89.137C63.9748 89.1874 63.9244 89.1874 63.8237 89.1874C63.7229 89.1874 63.6725 89.1874 63.5718 89.137C63.471 89.0866 63.4207 89.0363 63.3703 88.9859C63.3199 88.9355 63.2695 88.8348 63.2191 88.7844C63.1688 88.6836 63.1688 88.6332 63.1688 88.5325C63.1688 88.4317 63.1688 88.331 63.2191 88.2806C63.2695 88.1798 63.3199 88.1295 63.3703 88.0791C63.4207 88.0287 63.5214 87.9783 63.5718 87.928C63.6222 87.8776 63.7229 87.8776 63.8237 87.8776ZM59.0378 91.2025C58.7859 91.2025 58.534 91.2529 58.2821 91.3536C58.0806 91.4544 57.8791 91.6055 57.6776 91.7567C57.5264 91.9582 57.3753 92.1597 57.2746 92.3612C57.1738 92.6131 57.1234 92.865 57.1234 93.1169C57.1234 93.3688 57.1738 93.6206 57.2746 93.8725C57.3753 94.1244 57.4761 94.3259 57.6776 94.4771C57.8287 94.6786 58.0302 94.7793 58.2821 94.8801C58.534 94.9809 58.7859 95.0312 59.0378 95.0312C59.2897 95.0312 59.5416 94.9809 59.7934 94.8801C59.995 94.7793 60.1965 94.6282 60.398 94.4771C60.5491 94.2756 60.7002 94.074 60.7506 93.8725C60.8514 93.6206 60.9018 93.3688 60.9018 93.1169C60.9018 92.865 60.8514 92.6131 60.7506 92.3612C60.6499 92.1093 60.5491 91.9078 60.3476 91.7567C60.1965 91.5552 59.995 91.4544 59.7431 91.3536C59.5919 91.2529 59.2897 91.2025 59.0378 91.2025ZM59.1385 90.3461C59.4912 90.3461 59.8438 90.3965 60.1965 90.5476C60.4987 90.6987 60.801 90.9002 61.0529 91.1521C61.3048 91.404 61.5063 91.7063 61.607 92.0589C61.7582 92.4116 61.8086 92.8146 61.8086 93.1672C61.8086 93.5703 61.7582 93.9229 61.607 94.3259C61.4559 94.6786 61.2544 94.9808 61.0529 95.2327C60.801 95.4846 60.4987 95.6861 60.1965 95.8373C59.8438 95.9884 59.4912 96.0388 59.1385 96.0388C58.7355 96.0388 58.3829 95.9884 58.0302 95.7869C57.728 95.6358 57.4761 95.4342 57.2242 95.1824V95.8876H56.3174V87.6761H57.2242V91.2025C57.4257 90.9506 57.728 90.7491 58.0302 90.598C58.3829 90.3965 58.7859 90.3461 59.1385 90.3461ZM52.2871 91.1521C52.0856 91.1521 51.8338 91.2025 51.6322 91.2529C51.4307 91.3033 51.2796 91.4544 51.1285 91.5552C50.9773 91.7063 50.8766 91.8574 50.7758 92.0589C50.6751 92.2604 50.6247 92.462 50.5743 92.7138H53.8992C53.8489 92.5123 53.7985 92.2604 53.6977 92.0589C53.597 91.8574 53.4962 91.7063 53.3451 91.5552C53.1939 91.404 53.0428 91.3033 52.8413 91.2529C52.6902 91.2025 52.4887 91.1521 52.2871 91.1521ZM52.2871 90.3461C52.6398 90.3461 52.9924 90.3965 53.2947 90.5476C53.597 90.6987 53.8992 90.9002 54.1007 91.1018C54.3526 91.3536 54.5038 91.6559 54.6045 92.0086C54.7557 92.3612 54.806 92.7642 54.806 93.1672C54.806 93.2176 54.806 93.268 54.806 93.3688C54.806 93.4695 54.806 93.4695 54.806 93.5199H50.5239C50.5743 93.7718 50.6247 94.0237 50.7254 94.2756C50.8262 94.4771 50.9773 94.6786 51.1285 94.7793C51.2796 94.9305 51.4811 95.0312 51.6826 95.0816C51.8841 95.132 52.136 95.1824 52.3375 95.1824C52.6398 95.1824 52.9421 95.132 53.2443 95.0312C53.5466 94.9305 53.7985 94.7793 54 94.5778L54.5038 95.2327C54.3526 95.3839 54.1511 95.535 54 95.6358C53.8489 95.7365 53.6474 95.8373 53.4458 95.8876C53.2443 95.938 53.0932 95.9884 52.8917 96.0388C52.6902 96.0892 52.4887 96.0892 52.2871 96.0892C51.8841 96.0892 51.5315 96.0388 51.1788 95.8876C50.8262 95.7365 50.5743 95.5854 50.3224 95.3335C50.0705 95.0816 49.869 94.7793 49.7683 94.4267C49.6171 94.0741 49.5667 93.671 49.5667 93.268C49.5667 92.865 49.6171 92.5123 49.7683 92.1093C49.869 91.7567 50.0705 91.4544 50.3224 91.2025C50.5743 90.9506 50.8766 90.7491 51.1788 90.6484C51.5819 90.3965 51.9345 90.3461 52.2871 90.3461ZM45.3854 91.2025C45.1335 91.2025 44.8816 91.2529 44.6297 91.3536C44.4282 91.4544 44.2267 91.6055 44.0252 91.7567C43.8741 91.9582 43.7229 92.1597 43.6725 92.3612C43.5718 92.6131 43.5214 92.865 43.5214 93.1169C43.5214 93.3688 43.5718 93.6206 43.6725 93.8725C43.7733 94.1244 43.8741 94.3259 44.0756 94.4771C44.2267 94.6786 44.4282 94.7793 44.6801 94.8801C44.932 94.9809 45.1839 95.0312 45.4358 95.0312C45.6877 95.0312 45.9395 94.9809 46.1914 94.8801C46.3929 94.7793 46.5945 94.6282 46.796 94.4771C46.9471 94.2756 47.0982 94.074 47.199 93.8725C47.2997 93.6206 47.3501 93.3688 47.3501 93.1169C47.3501 92.865 47.2997 92.6131 47.199 92.3612C47.0982 92.1093 46.9975 91.9078 46.796 91.7567C46.6448 91.6055 46.4433 91.4544 46.1914 91.3536C45.8892 91.2529 45.6373 91.2025 45.3854 91.2025ZM45.2846 90.3461C45.6877 90.3461 46.0403 90.3965 46.3929 90.598C46.6952 90.7491 46.9975 90.9506 47.199 91.2025V87.6761H48.1562V95.8876H47.199V95.132C46.9975 95.3839 46.6952 95.5854 46.3929 95.7365C46.0403 95.8876 45.6877 95.9884 45.2846 95.9884C44.932 95.9884 44.5793 95.938 44.2267 95.7869C43.9244 95.6358 43.6222 95.4342 43.3703 95.1824C43.1184 94.9305 42.9169 94.6282 42.8161 94.2756C42.665 93.9229 42.6146 93.5199 42.6146 93.1169C42.6146 92.7138 42.665 92.3612 42.8161 92.0086C42.9673 91.6559 43.1184 91.3536 43.3703 91.1018C43.6222 90.8499 43.9244 90.6484 44.2267 90.4972C44.529 90.3965 44.932 90.3461 45.2846 90.3461Z" fill="#231F20"/>
<path d="M86.2922 73.3184C86.2922 72.1093 87.0479 71.1521 88.3073 71.1521C89.466 71.1521 90.272 72.0589 90.272 73.3184C90.272 74.5778 89.466 75.4846 88.2569 75.4846C87.0478 75.4846 86.2922 74.5275 86.2922 73.3184ZM91.4811 67.5249H90.1713V70.9002C89.6675 70.2957 88.9118 69.9431 88.1058 69.9431C86.2922 69.9431 84.932 71.3536 84.932 73.3184C84.932 75.2831 86.2922 76.6937 88.1058 76.6937C88.9118 76.7441 89.6675 76.3914 90.1713 75.7365V76.4922H91.4811V67.5249ZM73.2947 73.3184C73.2947 72.1093 74.0504 71.1521 75.3098 71.1521C76.4685 71.1521 77.2745 72.0589 77.2745 73.3184C77.2745 74.5778 76.5189 75.4846 75.3098 75.4846C74.0504 75.4846 73.2947 74.5275 73.2947 73.3184ZM78.4836 70.0942H77.1738V70.8499C76.67 70.2453 75.9143 69.8927 75.1083 69.8927C73.2947 69.8927 71.9345 71.3033 71.9345 73.268C71.9345 75.2327 73.2947 76.6433 75.1083 76.6433C75.9143 76.6937 76.67 76.3411 77.1738 75.6861V76.4418H78.4836V70.0942ZM93.6977 76.0388V76.1899H93.8489C93.8992 76.1899 93.8992 76.1899 93.9496 76.1899L94 76.1395C94 76.1395 94 76.0892 93.9496 76.0892C93.9496 76.0892 93.8992 76.0892 93.8489 76.0892L93.6977 76.0388ZM93.8489 75.938C93.8992 75.938 93.9496 75.938 94 75.9884C94.0504 76.0388 94.0504 76.0892 94.0504 76.1395C94.0504 76.1899 94.0504 76.2403 94 76.2403C93.9496 76.2907 93.8992 76.2907 93.8489 76.2907L94.0504 76.4922H93.8992L93.6977 76.2907H93.6473V76.4922H93.4962V75.8876L93.8489 75.938ZM93.7985 76.7441C93.8489 76.7441 93.9496 76.7441 94 76.6937C94.0504 76.6433 94.1007 76.6433 94.1511 76.5929C94.2015 76.5426 94.2519 76.4922 94.2519 76.4418C94.3022 76.3914 94.3023 76.2907 94.3023 76.2403C94.3023 76.1899 94.3022 76.0892 94.2519 76.0388C94.2519 75.9884 94.2015 75.938 94.1511 75.8876C94.1007 75.8373 94.0504 75.7869 94 75.7869C93.9496 75.7365 93.8992 75.7365 93.7985 75.7365C93.7481 75.7365 93.6473 75.7365 93.597 75.7869C93.5466 75.7869 93.4962 75.8373 93.4458 75.8876C93.3955 75.938 93.3451 75.9884 93.3451 76.0388C93.2947 76.0892 93.2947 76.1899 93.2947 76.2403C93.2947 76.2907 93.2947 76.3914 93.3451 76.4418C93.3451 76.4922 93.3955 76.5426 93.4458 76.5929C93.4962 76.6433 93.5466 76.6937 93.597 76.6937C93.6977 76.6937 93.7481 76.7441 93.7985 76.7441ZM93.7985 75.5854C93.8992 75.5854 93.9496 75.5854 94.0504 75.6358C94.1511 75.6861 94.2015 75.7365 94.2519 75.7869C94.3022 75.8373 94.3526 75.938 94.403 75.9884C94.4534 76.0892 94.4534 76.1395 94.4534 76.2403C94.4534 76.341 94.4534 76.3914 94.403 76.4922C94.3526 76.5426 94.3022 76.6433 94.2519 76.6937C94.2015 76.7441 94.1007 76.7945 94.0504 76.8448C93.9496 76.8952 93.8992 76.8952 93.7985 76.8952C93.6977 76.8952 93.6473 76.8952 93.5466 76.8448C93.4458 76.7945 93.3955 76.7441 93.3451 76.6937C93.2947 76.6433 93.2443 76.5426 93.1939 76.4922C93.1436 76.3914 93.1436 76.341 93.1436 76.2403C93.1436 76.1395 93.1436 76.0892 93.1939 75.9884C93.2443 75.938 93.2947 75.8373 93.3451 75.7869C93.3955 75.7365 93.4962 75.6861 93.5466 75.6358C93.6473 75.5854 93.6977 75.5854 93.7985 75.5854ZM83.4206 69.9431C82.7153 69.9431 82.0604 70.2957 81.6574 70.9002V70.0942H80.398V76.5426H81.7078V72.9154C81.7078 71.8574 82.2116 71.1521 83.1184 71.1521C83.4206 71.1521 83.7229 71.2025 83.9748 71.3033L84.4282 70.0942C84.1259 69.9934 83.7733 69.9431 83.4206 69.9431ZM33.7985 73.3184C33.7985 72.1093 34.5542 71.1521 35.8136 71.1521C36.9723 71.1521 37.7783 72.0589 37.7783 73.3184C37.7783 74.5778 37.0227 75.4846 35.8136 75.4846C34.6045 75.4846 33.7985 74.5275 33.7985 73.3184ZM39.0378 70.0942H37.728V70.8499C37.2242 70.2453 36.4685 69.8927 35.6625 69.8927C33.8489 69.8927 32.4887 71.3033 32.4887 73.268C32.4887 75.2327 33.8489 76.6433 35.6625 76.6433C36.4685 76.6937 37.2242 76.3411 37.728 75.6861V76.4418H39.0378V70.0942ZM56.4181 71.1521C57.3249 71.1018 58.0806 71.807 58.131 72.7138V72.7642H54.6549C54.7053 71.807 55.5113 71.1018 56.4181 71.1521ZM56.4685 69.9431C54.6045 69.9431 53.2947 71.3033 53.2947 73.3184C53.2947 75.3839 54.6549 76.6937 56.5693 76.6937C57.5264 76.7441 58.4836 76.3914 59.1889 75.7869L58.4836 74.8297C57.9295 75.2327 57.2746 75.4846 56.6196 75.4846C55.6121 75.535 54.7557 74.8297 54.6549 73.8222H59.4408C59.4408 73.671 59.4912 73.4695 59.4912 73.268C59.4408 71.3033 58.2317 69.9431 56.4685 69.9431ZM65.4861 73.3184C65.3854 75.0816 66.7456 76.5929 68.5088 76.6937C68.6096 76.6937 68.7607 76.6937 68.8615 76.6937C69.7179 76.7441 70.5239 76.4418 71.1788 75.938L70.5239 74.9305C70.0201 75.2831 69.466 75.4846 68.8615 75.4846C67.7531 75.4846 66.8463 74.5274 66.8463 73.4191C66.8463 73.3688 66.8463 73.3688 66.8463 73.3184C66.7456 72.2101 67.602 71.2025 68.7103 71.1521C68.7607 71.1521 68.7607 71.1521 68.8111 71.1521C69.4156 71.1521 70.0201 71.3536 70.4735 71.7063L71.1285 70.6987C70.4735 70.1446 69.6675 69.8927 68.8111 69.9431C67.0478 69.8423 65.5365 71.2025 65.4358 72.9657C65.4861 73.0665 65.4861 73.2176 65.4861 73.3184ZM45.9899 70.598C45.1839 70.1446 44.2771 69.8927 43.3703 69.9431C41.7582 69.9431 40.7506 70.6987 40.7506 72.0086C40.7506 73.0665 41.4559 73.671 42.9169 73.8725L43.5718 73.9733C44.3275 74.074 44.7305 74.3259 44.7305 74.729C44.7305 75.2327 44.1763 75.535 43.2191 75.535C42.4635 75.5854 41.7078 75.3335 41.1033 74.8801L40.4484 75.8876C41.2544 76.4418 42.262 76.7441 43.2191 76.7441C45.0831 76.7441 46.0907 75.8877 46.0907 74.6786C46.0907 73.5703 45.335 72.9657 43.8741 72.7642L43.2191 72.6635C42.6146 72.5627 42.0604 72.4116 42.0604 71.9582C42.0604 71.5048 42.5642 71.1521 43.3199 71.1521C44.0252 71.1521 44.7305 71.3536 45.335 71.7063L45.9899 70.598ZM64.0252 69.9431C63.3199 69.9431 62.665 70.2957 62.262 70.9002V70.0942H61.0025V76.5426H62.3123V72.9154C62.3123 71.8574 62.8161 71.1521 63.7229 71.1521C64.0252 71.1521 64.3274 71.2025 64.5793 71.3033L65.0327 70.0942C64.6801 69.9934 64.3778 69.9431 64.0252 69.9431ZM52.0856 70.0942H49.7683V68.1295H48.4584V70.0942H47.0982V71.2529H48.4584V74.2756C48.4584 75.7869 48.9622 76.6433 50.6247 76.6433C51.2292 76.6433 51.8337 76.4922 52.3879 76.1395L51.9849 74.9809C51.6322 75.1824 51.1788 75.3335 50.7254 75.3335C50.0201 75.3335 49.7683 74.8801 49.7683 74.2756V71.2025H52.0856V70.0942ZM31.1285 76.5426V72.5123C31.1285 71.001 30.2217 69.9934 28.6599 69.9934C27.7531 69.9431 26.8967 70.3965 26.3929 71.1521C25.9395 70.3965 25.1335 69.9934 24.2771 69.9934C23.5214 69.9431 22.7657 70.2957 22.3627 70.9506V70.1446H21.0529V76.5929H22.3627V72.9154C22.262 72.0589 22.8665 71.3033 23.7229 71.2025C23.8237 71.2025 23.8741 71.2025 23.9748 71.2025C24.8816 71.2025 25.4358 71.807 25.4358 72.9154V76.5929H26.7456V72.9154C26.6448 72.0589 27.2997 71.3033 28.1562 71.2025C28.2569 71.2025 28.3073 71.2025 28.4081 71.2025C29.3652 71.2025 29.869 71.807 29.869 72.9154V76.5929L31.1285 76.5426Z" fill="#231F20"/>
<path d="M66.6952 59.2126H45.5365V21.1773H66.6952V59.2126Z" fill="#F1511B"/>
<path d="M46.8967 40.1698C46.8967 32.7642 50.272 25.7617 56.1159 21.1773C51.8337 17.802 46.5945 15.9884 41.1537 15.9884C27.8035 15.9884 16.9723 26.8196 16.9723 40.1698C16.9723 53.5199 27.8035 64.3511 41.1537 64.3511C46.5945 64.3511 51.8337 62.5375 56.1159 59.1622C50.272 54.6282 46.8967 47.6257 46.8967 40.1698Z" fill="#E71F22"/>
<path d="M94.5038 55.1824V54.2252H94.2519L93.9496 54.8801L93.6474 54.2252H93.3955V55.1824H93.5466V54.4771L93.7985 55.0816H94L94.2519 54.4771V55.1824H94.5038ZM92.9421 55.1824V54.4267H93.2443V54.2756H92.4383V54.4267H92.7405V55.1824H92.9421Z" fill="#F79410"/>
<path d="M95.2594 40.1698C95.2594 53.5199 84.4282 64.3511 71.0781 64.3511C65.6373 64.3511 60.398 62.5375 56.1159 59.1622C61.9597 54.5778 65.335 47.5753 65.335 40.1698C65.335 32.7642 61.9597 25.7617 56.1159 21.1773C60.3476 17.802 65.6373 15.9884 71.0781 15.9884C84.4282 15.9884 95.2594 26.8196 95.2594 40.1698Z" fill="#F79410"/>
</g>
<rect x="1" y="1" width="110" height="110" rx="9" stroke="black" stroke-opacity="0.1" stroke-width="2"/>
<defs>
<clipPath id="clip0_649_1835">
<rect x="2" y="2" width="108" height="108" rx="8" fill="white"/>
</clipPath>
</defs>
</svg>
