<svg width="112" height="112" viewBox="0 0 112 112" fill="none" xmlns="http://www.w3.org/2000/svg">
<g clip-path="url(#clip0_505_124)">
<rect x="1.99991" y="2" width="108" height="108" rx="8" fill="white"/>
<path fill-rule="evenodd" clip-rule="evenodd" d="M24.2837 61.5362H30.4271V50.5007H24.2837V61.5362Z" fill="#FF5F00"/>
<path fill-rule="evenodd" clip-rule="evenodd" d="M24.6737 56.0184C24.6737 53.7797 25.721 51.787 27.3553 50.5007C26.1217 49.5272 24.5929 48.9965 23.0184 49C19.1419 49 16 52.142 16 56.0184C16 59.8949 19.1419 63.0368 23.0184 63.0368C24.6562 63.0368 26.1603 62.4745 27.3553 61.5361C25.7246 60.2498 24.6737 58.2571 24.6737 56.0184Z" fill="#EB001B"/>
<path fill-rule="evenodd" clip-rule="evenodd" d="M38.7108 56.0184C38.7108 59.8949 35.5688 63.0368 31.6923 63.0368C30.1179 63.0404 28.5889 62.5097 27.3553 61.5361C28.9895 60.2498 30.037 58.2572 30.037 56.0184C30.037 53.7797 28.9895 51.787 27.3553 50.5007C28.5924 49.5272 30.1179 48.9965 31.6923 49C35.5688 49 38.7108 52.142 38.7108 56.0184Z" fill="#F79E1B"/>
<path fill-rule="evenodd" clip-rule="evenodd" d="M46.5268 61.863H46.0031L46.6638 60.7103L45.7079 58.9917H46.2386L46.9344 60.2358L47.6022 58.9917H48.1188L46.5268 61.863ZM44.5516 59.3783C44.281 59.3712 44.035 59.5399 43.9471 59.7965C43.9155 59.8808 43.9014 59.9722 43.9014 60.0706C43.9014 60.169 43.9155 60.2604 43.9471 60.3448C43.9788 60.4291 44.0244 60.5029 44.0807 60.5626C44.1369 60.6259 44.2072 60.6716 44.2845 60.7067C44.3654 60.7419 44.4532 60.7595 44.5516 60.7595C44.6535 60.7595 44.7414 60.7419 44.8257 60.7032C44.9066 60.6646 44.9769 60.6154 45.0296 60.5521C45.0823 60.4888 45.128 60.415 45.1561 60.3307C45.1877 60.2428 45.2018 60.155 45.2018 60.0636C45.2018 59.9687 45.1877 59.8773 45.1561 59.7965C45.128 59.7157 45.0858 59.6419 45.0296 59.5751C44.9734 59.5118 44.9031 59.4591 44.8257 59.4275C44.7379 59.3958 44.6465 59.3783 44.5516 59.3783ZM44.6078 58.9319C44.896 58.9284 45.1737 59.0444 45.374 59.2517C45.4724 59.3537 45.5497 59.4732 45.6024 59.6137C45.6587 59.7543 45.6868 59.9054 45.6868 60.0706C45.6868 60.2358 45.6587 60.3869 45.6024 60.5275C45.5497 60.6611 45.4724 60.7841 45.374 60.8895C45.1737 61.0968 44.896 61.2128 44.6078 61.2093C44.4532 61.2093 44.3197 61.1812 44.2107 61.1214C44.1018 61.0652 44.0069 60.9879 43.9331 60.893V61.1496H43.4621V58.1131H43.9331V59.2412C44.0069 59.1463 44.1018 59.069 44.2107 59.0128C44.3197 58.96 44.4532 58.9319 44.6078 58.9319ZM53.6963 60.0706C53.6963 59.6911 53.9458 59.3783 54.35 59.3783C54.7401 59.3783 55.0002 59.677 55.0002 60.0706C55.0002 60.4642 54.7401 60.763 54.35 60.763C53.9423 60.763 53.6963 60.4502 53.6963 60.0706ZM55.4465 60.0706V58.9882H54.9755V59.2517C54.8279 59.0585 54.5995 58.9354 54.2937 58.9354C53.6893 58.9354 53.2148 59.4099 53.2148 60.0741C53.2148 60.7349 53.6893 61.2128 54.2937 61.2128C54.603 61.2128 54.8279 61.0898 54.9755 60.8965V61.1601H55.4465C55.4465 61.1531 55.4465 60.0706 55.4465 60.0706ZM71.3284 60.0706C71.3284 59.6911 71.5779 59.3783 71.9856 59.3783C72.3757 59.3783 72.6358 59.677 72.6358 60.0706C72.6358 60.4642 72.3722 60.763 71.9856 60.763C71.5744 60.763 71.3284 60.4502 71.3284 60.0706ZM73.0751 58.1166H72.6042V59.2482C72.453 59.0549 72.2281 58.9319 71.9223 58.9319C71.3179 58.9319 70.8434 59.4064 70.8434 60.0706C70.8434 60.7313 71.3179 61.2093 71.9223 61.2093C72.2316 61.2093 72.4566 61.0863 72.6042 60.893V61.1566H73.0751V58.1166ZM61.277 59.3537C61.5793 59.3537 61.7725 59.5435 61.8253 59.8808H60.7041C60.7533 59.5681 60.9431 59.3537 61.277 59.3537ZM61.2875 58.9319C60.6549 58.9319 60.2121 59.3958 60.2121 60.0706C60.2121 60.7595 60.6725 61.2093 61.3192 61.2093C61.646 61.2093 61.9412 61.1285 62.2048 60.9071L61.9729 60.5591C61.7936 60.7032 61.5722 60.7841 61.3438 60.7841C61.0415 60.7841 60.7639 60.6435 60.6971 60.2534H62.3032C62.3067 60.1936 62.3138 60.1374 62.3138 60.0741C62.3103 59.3958 61.892 58.9319 61.2875 58.9319ZM66.9634 60.0706C66.9634 59.6911 67.213 59.3783 67.6206 59.3783C68.0107 59.3783 68.2708 59.677 68.2708 60.0706C68.2708 60.4642 68.0072 60.763 67.6206 60.763C67.213 60.763 66.9634 60.4502 66.9634 60.0706ZM68.7136 60.0706V58.9882H68.2427V59.2517C68.0951 59.0585 67.8666 58.9354 67.5609 58.9354C66.9529 58.9354 66.4784 59.4099 66.4784 60.0741C66.4784 60.7349 66.9529 61.2128 67.5609 61.2128C67.8702 61.2128 68.0951 61.0898 68.2427 60.8965V61.1601H68.7136C68.7136 61.1531 68.7136 60.0706 68.7136 60.0706ZM64.3065 60.0706C64.3065 60.7278 64.7634 61.2093 65.4592 61.2093C65.7861 61.2093 66.0005 61.1355 66.2359 60.9528L66.011 60.5732C65.8353 60.6997 65.649 60.77 65.4452 60.77C65.0691 60.7665 64.795 60.4924 64.795 60.0777C64.795 59.6594 65.0726 59.3888 65.4452 59.3853C65.649 59.3853 65.8353 59.4521 66.011 59.5821L66.2359 59.2025C66.0005 59.0163 65.7826 58.9425 65.4592 58.9425C64.7669 58.9319 64.31 59.4134 64.3065 60.0706ZM70.3689 58.9319C70.0983 58.9319 69.9226 59.0585 69.7996 59.2482V58.9847H69.3322V61.1496H69.8031V59.9336C69.8031 59.5751 69.9578 59.3748 70.2635 59.3748C70.3584 59.3748 70.4568 59.3888 70.5587 59.4275L70.7028 58.9847C70.5939 58.953 70.4814 58.9354 70.3689 58.9319ZM57.7696 59.1604C57.5446 59.0093 57.2318 58.9354 56.8874 58.9354C56.3392 58.9354 55.9877 59.199 55.9877 59.6278C55.9877 59.9792 56.2513 60.1971 56.7328 60.2674L56.9542 60.2991C57.2108 60.3342 57.3338 60.4045 57.3338 60.5275C57.3338 60.6962 57.1616 60.7911 56.8417 60.7911C56.5149 60.7911 56.2794 60.6857 56.1213 60.5626L55.8999 60.9282C56.1564 61.1179 56.4833 61.2093 56.8347 61.2093C57.4603 61.2093 57.8188 60.9141 57.8188 60.5029C57.8188 60.1233 57.5341 59.923 57.0631 59.8562L56.8417 59.8246C56.6379 59.7965 56.4762 59.7578 56.4762 59.6102C56.4762 59.4521 56.6309 59.3572 56.8874 59.3572C57.1651 59.3572 57.4286 59.4626 57.5622 59.5435L57.7696 59.1604ZM63.832 58.9319C63.5614 58.9319 63.3857 59.0585 63.2627 59.2482V58.9847H62.7988V61.1496H63.2697V59.9336C63.2697 59.5751 63.4244 59.3748 63.7301 59.3748C63.825 59.3748 63.9234 59.3888 64.0253 59.4275L64.1694 58.9847C64.0605 58.953 63.948 58.9354 63.832 58.9319ZM59.822 58.9882H59.0523V58.331H58.5779V58.9882H58.1386V59.4169H58.5779V60.4045C58.5779 60.9071 58.7712 61.2058 59.33 61.2058C59.5338 61.2058 59.7693 61.1425 59.9169 61.0371L59.7798 60.6329C59.6393 60.7138 59.4846 60.7559 59.3651 60.7559C59.1297 60.7559 59.0523 60.6119 59.0523 60.394V59.4134H59.822V58.9882ZM52.7931 61.1531V59.793C52.7931 59.2799 52.4662 58.9354 51.9426 58.9319C51.6649 58.9284 51.3802 59.0128 51.1834 59.3185C51.0358 59.0795 50.8004 58.9319 50.47 58.9319C50.238 58.9319 50.0131 58.9987 49.8374 59.2553V58.9882H49.3664V61.1531H49.8409V59.9511C49.8409 59.5751 50.0483 59.3748 50.3681 59.3748C50.6809 59.3748 50.839 59.5786 50.839 59.9441V61.1496H51.3135V59.9476C51.3135 59.5716 51.5314 59.3712 51.8442 59.3712C52.164 59.3712 52.3186 59.5751 52.3186 59.9406V61.1461H52.7931V61.1531ZM95.8805 52.3774C95.399 52.0576 94.7313 51.8924 94.0003 51.8924C92.8335 51.8924 92.0814 52.4548 92.0814 53.372C92.0814 54.1276 92.6402 54.5916 93.6734 54.7357L94.1479 54.8024C94.6997 54.8797 94.9597 55.0238 94.9597 55.2874C94.9597 55.6459 94.5942 55.8497 93.9089 55.8497C93.213 55.8497 92.714 55.6283 92.3731 55.3647L91.8986 56.1485C92.4469 56.5561 93.1428 56.7494 93.8949 56.7494C95.2268 56.7494 96 56.1204 96 55.2417C96 54.4299 95.392 54.0046 94.3869 53.8605L93.9124 53.7938C93.4766 53.734 93.1322 53.6497 93.1322 53.3404C93.1322 53.003 93.4591 52.7992 94.0108 52.7992C94.6013 52.7992 95.1671 53.0206 95.4482 53.1963L95.8805 52.3774ZM91.0657 52.3774C90.5842 52.0576 89.9165 51.8924 89.1855 51.8924C88.0186 51.8924 87.2665 52.4548 87.2665 53.372C87.2665 54.1276 87.8253 54.5916 88.8586 54.7357L89.3331 54.8024C89.8848 54.8797 90.1449 55.0238 90.1449 55.2874C90.1449 55.6459 89.7794 55.8497 89.0941 55.8497C88.3982 55.8497 87.8992 55.6283 87.5583 55.3647L87.0838 56.1485C87.6356 56.5561 88.3279 56.7494 89.08 56.7494C90.412 56.7494 91.1852 56.1204 91.1852 55.2417C91.1852 54.4299 90.5772 54.0046 89.572 53.8605L89.0976 53.7938C88.6618 53.734 88.3139 53.6497 88.3139 53.3404C88.3139 53.003 88.6407 52.7992 89.1925 52.7992C89.7794 52.7992 90.3487 53.0206 90.6299 53.1963L91.0657 52.3774ZM79.5698 54.2999C79.5698 55.1117 79.0392 55.7795 78.1711 55.7795C77.3417 55.7795 76.7794 55.1398 76.7794 54.2999C76.7794 53.4599 77.3382 52.8203 78.1711 52.8203C79.0392 52.8203 79.5698 53.488 79.5698 54.2999ZM75.8375 58.2853H76.8391V56.0501C77.1589 56.4648 77.6404 56.7284 78.2976 56.7284C79.5909 56.7284 80.6031 55.7127 80.6031 54.2999C80.6031 52.887 79.5909 51.8714 78.2976 51.8714C77.6404 51.8714 77.1589 52.1314 76.8391 52.5496V51.9873H75.8375V58.2853ZM82.3709 54.3104C82.3709 53.4986 82.9016 52.8308 83.7696 52.8308C84.5991 52.8308 85.1614 53.4704 85.1614 54.3104C85.1614 55.1504 84.6026 55.79 83.7732 55.79C82.9016 55.79 82.3709 55.1222 82.3709 54.3104ZM86.1033 51.9979H85.0981V52.5602C84.7783 52.1455 84.2968 51.8819 83.6396 51.8819C82.3463 51.8819 81.3341 52.8976 81.3341 54.3104C81.3341 55.7232 82.3463 56.7354 83.6396 56.7354C84.2968 56.7354 84.7783 56.4753 85.0981 56.0606V56.6229H86.1033V51.9979ZM52.649 54.3104C52.649 53.4986 53.1797 52.8308 54.0477 52.8308C54.8771 52.8308 55.436 53.4704 55.436 54.3104C55.436 55.1504 54.8771 55.79 54.0477 55.79C53.1797 55.79 52.649 55.1222 52.649 54.3104ZM56.3813 51.9979H55.3762V52.5602C55.0564 52.1455 54.5749 51.8819 53.9177 51.8819C52.6244 51.8819 51.6122 52.8976 51.6122 54.3104C51.6122 55.7232 52.6244 56.7354 53.9177 56.7354C54.5749 56.7354 55.0564 56.4753 55.3762 56.0606V56.6229H56.3813V51.9979ZM68.8296 52.7816C69.4763 52.7816 69.891 53.1858 69.9964 53.9027H67.6031C67.712 53.2385 68.1162 52.7816 68.8296 52.7816ZM68.8507 51.8819C67.5011 51.8819 66.5522 52.8695 66.5522 54.3104C66.5522 55.7795 67.5363 56.7354 68.9175 56.7354C69.6133 56.7354 70.2495 56.5632 70.8083 56.0887L70.3162 55.3437C69.9296 55.6529 69.4376 55.8287 68.9737 55.8287C68.327 55.8287 67.7401 55.5299 67.5925 54.697H71.0191C71.0297 54.5705 71.0367 54.4475 71.0367 54.3104C71.0297 52.8695 70.144 51.8819 68.8507 51.8819ZM61.3438 52.3669C60.8623 52.0471 60.1945 51.8819 59.4635 51.8819C58.2967 51.8819 57.5446 52.4442 57.5446 53.3615C57.5446 54.1171 58.1034 54.581 59.1367 54.7251L59.6111 54.7919C60.1629 54.8692 60.423 55.0133 60.423 55.2769C60.423 55.6354 60.0575 55.8392 59.3722 55.8392C58.6763 55.8392 58.1772 55.6178 57.8363 55.3542L57.3619 56.1379C57.9101 56.5456 58.606 56.7354 59.3581 56.7354C60.6901 56.7354 61.4633 56.1063 61.4633 55.2277C61.4633 54.4158 60.8553 53.9906 59.8536 53.8465L59.3792 53.7797C58.9469 53.72 58.599 53.6356 58.599 53.3263C58.599 52.989 58.9258 52.7851 59.4776 52.7851C60.068 52.7851 60.6339 53.0065 60.915 53.1823L61.3438 52.3669ZM74.2841 51.8819C73.7042 51.8819 73.3281 52.1525 73.0681 52.5602V51.9979H72.0735V56.6194H73.0751V54.0292C73.0751 53.2666 73.4019 52.8414 74.0592 52.8414C74.263 52.8414 74.4739 52.8695 74.6882 52.9573L74.9975 52.0084C74.7761 51.9241 74.4844 51.8819 74.2841 51.8819ZM65.7228 51.9979H64.0816V50.5956H63.0694V51.9979H62.1345V52.9152H63.0694V55.0238C63.0694 56.0958 63.4841 56.7354 64.672 56.7354C65.1078 56.7354 65.6068 56.5983 65.9267 56.3769L65.6385 55.5159C65.3397 55.6916 65.0094 55.7759 64.7493 55.7759C64.2467 55.7759 64.0816 55.4667 64.0816 55.0028V52.9152H65.7228V51.9979ZM50.7266 56.6229V53.72C50.7266 52.627 50.0307 51.8924 48.9131 51.8819C48.3227 51.8714 47.7182 52.0576 47.2929 52.7043C46.9731 52.1912 46.474 51.8819 45.7676 51.8819C45.2756 51.8819 44.7941 52.026 44.4181 52.5707V52.0014H43.4129V56.6229H44.4251V54.0609C44.4251 53.2596 44.8679 52.8343 45.5532 52.8343C46.2175 52.8343 46.5584 53.2701 46.5584 54.0538V56.6264H47.5706V54.0644C47.5706 53.2631 48.0345 52.8378 48.6987 52.8378C49.384 52.8378 49.7109 53.2736 49.7109 54.0574V56.63L50.7266 56.6229Z" fill="#211F1C"/>
</g>
<rect x="1" y="1" width="110" height="110" rx="9" stroke="black" stroke-opacity="0.1" stroke-width="2"/>
<defs>
<clipPath id="clip0_505_124">
<rect x="2" y="2" width="108" height="108" rx="8" fill="white"/>
</clipPath>
</defs>
</svg>
