<svg width="112" height="112" viewBox="0 0 112 112" fill="none" xmlns="http://www.w3.org/2000/svg">
<g clip-path="url(#clip0_505_122)">
<rect x="1.99991" y="2" width="108" height="108" rx="8" fill="white"/>
<path fill-rule="evenodd" clip-rule="evenodd" d="M91.5202 52.4205C91.5202 51.5651 92.2046 50.8465 93.0258 50.8465C93.8812 50.8465 94.5313 51.5651 94.5313 52.4205C94.5313 53.2759 93.8812 53.9945 93.0258 53.9945C92.2046 54.0287 91.5202 53.3101 91.5202 52.4205ZM93.0258 53.6523C93.6759 53.6523 94.155 53.1048 94.155 52.4547C94.155 51.8046 93.6417 51.2571 93.0258 51.2571C92.3757 51.2571 91.8966 51.8046 91.8966 52.4547C91.8966 53.1048 92.4099 53.6523 93.0258 53.6523ZM92.8205 53.1391H92.5125V51.7361H93.0942C93.1969 51.7361 93.3337 51.7361 93.4364 51.8046C93.539 51.873 93.6075 52.0099 93.6075 52.1468C93.6075 52.3178 93.5048 52.4547 93.368 52.4889L93.6075 53.1048H93.2653L93.06 52.5574H92.8205V53.1391ZM92.8205 52.3521H92.9916C93.06 52.3521 93.1284 52.3521 93.1627 52.3178C93.1969 52.2836 93.2311 52.2152 93.2311 52.1468C93.2311 52.1125 93.1969 52.0441 93.1627 52.0099C93.1284 51.9757 93.0258 51.9757 92.9916 51.9757H92.8205C92.8547 52.0099 92.8205 52.3521 92.8205 52.3521ZM69.9975 41.9158L69.5869 44.6189C68.6973 44.1399 68.0472 43.9688 67.3286 43.9688C65.4467 43.9688 64.1464 45.885 64.1464 48.5882C64.1464 50.4701 65.036 51.5993 66.5074 51.5993C67.1233 51.5993 67.8076 51.394 68.6631 50.9491L68.2183 53.7892C67.2944 54.0629 66.6785 54.1656 65.9941 54.1656C63.291 54.1656 61.5801 52.1125 61.5801 48.8277C61.5801 44.4136 63.9069 41.2999 67.2602 41.2999C67.705 41.2999 68.0814 41.3341 68.3893 41.4367L69.4501 41.7105C69.6896 41.8131 69.758 41.8131 69.9975 41.9158ZM61.6143 43.7635C61.5459 43.7293 61.4432 43.7293 61.3748 43.7293C60.5536 43.7293 60.0745 44.1741 59.2875 45.3717L59.5271 43.8319H57.2345L55.6947 53.8918H58.2268C59.1507 47.7327 59.356 46.672 60.5878 46.672H60.7589C60.9984 45.4744 61.2721 44.5847 61.717 43.7635H61.6143ZM46.5587 53.755C45.8744 53.9945 45.3269 54.0971 44.7452 54.0971C43.4792 54.0971 42.7606 53.3101 42.7606 51.873C42.7606 51.5993 42.7948 51.2913 42.829 50.9491L43.0001 49.9568L43.1028 49.1698L44.1977 42.2922H46.6956L46.3876 43.7635H47.6879L47.3115 46.1929H46.0797L45.3953 50.4701C45.3611 50.6412 45.3611 50.7781 45.3611 50.8807C45.3611 51.394 45.6348 51.6335 46.2165 51.6335C46.5245 51.6335 46.7298 51.5993 46.9009 51.5308L46.5587 53.755ZM36.6015 47.0142C36.6015 48.2802 37.1832 49.1698 38.5177 49.82C39.51 50.3332 39.7153 50.4701 39.7153 50.9491C39.7153 51.5651 39.2704 51.873 38.2781 51.873C37.5254 51.873 36.841 51.7704 36.0198 51.4624L35.6776 53.7892L35.7803 53.8234L36.2251 53.9261C36.3962 53.9603 36.6015 53.9945 36.8752 54.0287C37.4569 54.0629 37.936 54.1314 38.2781 54.1314C40.9129 54.1314 42.1447 53.0706 42.1447 50.7781C42.1447 49.4094 41.6314 48.5882 40.3654 47.9722C39.3047 47.459 39.202 47.3563 39.202 46.8773C39.202 46.3298 39.6126 46.0561 40.4338 46.0561C40.9471 46.0561 41.5972 46.1245 42.2473 46.2272L42.6237 43.9004C41.9052 43.7635 41.1524 43.6951 40.3996 43.6951C37.5596 43.6266 36.6015 45.1322 36.6015 47.0142ZM90.0831 53.8918H87.6879L87.7905 52.8995C87.1062 53.6865 86.3876 54.0287 85.4638 54.0287C83.616 54.0287 82.4184 52.3521 82.4184 49.8542C82.4184 46.5009 84.3004 43.6609 86.5245 43.6609C87.5168 43.6609 88.2354 44.1057 88.9539 45.0296L89.5014 41.5052H91.9993L90.0831 53.8918ZM86.3534 51.5308C87.551 51.5308 88.3722 50.1279 88.3722 48.1433C88.3722 46.8773 87.8932 46.1587 87.0378 46.1587C85.9086 46.1587 85.0874 47.5616 85.0874 49.5462C85.0532 50.8465 85.498 51.5308 86.3534 51.5308ZM54.5313 53.6865C53.6759 53.9603 52.8205 54.0971 51.9308 54.0971C49.125 54.0971 47.6537 52.5574 47.6537 49.5805C47.6537 46.1245 49.5356 43.5924 52.0677 43.5924C54.155 43.5924 55.4552 45.0296 55.4552 47.2537C55.4552 47.9722 55.3526 48.725 55.1473 49.7515H50.1173C50.0831 49.9226 50.0831 49.9911 50.0831 50.0595C50.0831 51.2571 50.8359 51.8388 52.3072 51.8388C53.1969 51.8388 54.0181 51.6335 54.9419 51.1887C54.9077 51.1887 54.5313 53.6865 54.5313 53.6865ZM53.1284 47.6643C53.1627 47.459 53.1627 47.2879 53.1627 47.151C53.1627 46.3298 52.7178 45.8508 51.965 45.8508C51.178 45.8508 50.5964 46.5009 50.3568 47.6643H53.1284ZM26.4732 53.8918H23.9753L25.4124 44.3794L22.1618 53.8918H20.4509L20.2456 44.4479L18.7059 53.8918H16.3449L18.3637 41.5052H21.9907L22.0934 49.1698L24.5228 41.5052H28.4578L26.4732 53.8918ZM32.9745 49.4094C32.7007 49.3751 32.5981 49.3751 32.3928 49.3751C30.9556 49.3751 30.2371 49.8884 30.2371 50.9149C30.2371 51.5308 30.6135 51.9414 31.1609 51.9414C32.1875 51.9072 32.9402 50.8807 32.9745 49.4094ZM34.8222 53.8918H32.7349L32.7692 52.8311C32.119 53.6865 31.2978 54.0287 30.1344 54.0287C28.7657 54.0287 27.8419 52.8995 27.8419 51.2913C27.8419 48.8277 29.4843 47.4248 32.2559 47.4248C32.5638 47.4248 32.906 47.459 33.2824 47.4932C33.3508 47.151 33.3851 47.0142 33.3851 46.8431C33.3851 46.1929 32.9402 45.9192 31.7769 45.9192C31.0583 45.9192 30.2371 46.0219 29.6896 46.2272L29.3132 46.3298L29.0737 46.3982L29.4159 44.1399C30.6819 43.7635 31.5031 43.5924 32.427 43.5924C34.5827 43.5924 35.7461 44.6189 35.7461 46.5351C35.7461 47.0484 35.7118 47.3905 35.5408 48.5539L35.0275 52.1468L34.9248 52.7969L34.8564 53.3101L34.8222 53.6865C34.8564 53.6181 34.8222 53.8918 34.8222 53.8918ZM74.3431 49.4094C74.1036 49.3751 73.9668 49.3751 73.7614 49.3751C72.3243 49.3751 71.6058 49.8884 71.6058 50.9149C71.6058 51.5308 71.9822 51.9414 72.5296 51.9414C73.5562 51.9072 74.3089 50.8807 74.3431 49.4094ZM76.1567 53.8918H74.0694L74.1036 52.8311C73.4535 53.6865 72.6323 54.0287 71.4689 54.0287C70.1002 54.0287 69.1763 52.8995 69.1763 51.2913C69.1763 48.8277 70.8188 47.4248 73.5904 47.4248C73.8641 47.4248 74.2405 47.459 74.6169 47.4932C74.6853 47.151 74.7195 47.0142 74.7195 46.8431C74.7195 46.1929 74.2747 45.9192 73.1113 45.9192C72.3928 45.9192 71.5715 46.0219 71.0241 46.2272L70.6477 46.3298L70.4082 46.3982L70.7503 44.1399C72.0164 43.7635 72.8376 43.5924 73.7614 43.5924C75.9171 43.5924 77.0805 44.6189 77.0805 46.5351C77.0805 47.0484 77.0463 47.3905 76.8752 48.5539L76.362 52.1125L76.2935 52.7627L76.2251 53.2759L76.1909 53.6181L76.1567 53.8918ZM83.2054 43.7635C83.137 43.7293 83.0343 43.7293 82.9659 43.7293C82.1447 43.7293 81.6656 44.1741 80.8786 45.3717L81.1182 43.8319H78.8256L77.2858 53.8918H79.8179C80.7418 47.7327 80.9471 46.672 82.1789 46.672H82.35C82.5211 45.6455 82.8633 44.6874 83.3081 43.7635H83.2054Z" fill="#E52727"/>
<path fill-rule="evenodd" clip-rule="evenodd" d="M72.6322 63.6438C72.6322 65.9363 71.9136 67.2708 70.8187 67.2708C69.9975 67.305 69.5184 66.3812 69.5184 65.0467C69.5184 63.4385 70.237 61.625 71.4004 61.625C72.3242 61.625 72.6322 62.6173 72.6322 63.6438ZM75.13 63.678C75.13 61.1459 73.864 59.1613 71.5372 59.1613C68.8341 59.1613 67.0548 61.5565 67.0548 65.0809C67.0548 67.613 68.1155 69.7002 70.6476 69.7002C73.2139 69.7002 75.13 67.8867 75.13 63.678ZM67.8418 57.4162L67.4654 60.1194C66.6099 59.6404 66.0282 59.4693 65.3781 59.4693C63.633 59.4693 62.4012 61.3854 62.4012 64.0886C62.4012 65.9706 63.2224 67.0997 64.5911 67.0997C65.1728 67.0997 65.8229 66.8944 66.6099 66.4496L66.1993 69.2896C65.3439 69.5634 64.7622 69.666 64.1121 69.666C61.58 69.666 59.9718 67.613 59.9718 64.3281C59.9718 59.9141 62.1617 56.8003 65.2755 56.8003C65.6861 56.8003 66.0282 56.8345 66.3362 56.9372L67.2943 57.2109C67.568 57.2794 67.6365 57.3136 67.8418 57.4162ZM52.2729 59.2297C52.2045 59.1955 52.1018 59.1955 52.0334 59.1955C51.2464 59.1955 50.8358 59.6404 50.083 60.838L50.3225 59.2982H48.201L46.7639 69.3581H49.1249C49.9803 63.199 50.1856 62.1382 51.3148 62.1382C51.3833 62.1382 51.3833 62.1382 51.4859 62.1724C51.6912 60.9748 51.9992 60.0852 52.3755 59.264L52.2729 59.2297ZM83 69.2896H80.7759L80.8785 68.2973C80.2284 69.0843 79.5441 69.4265 78.6886 69.4265C76.9778 69.4265 75.8486 67.7499 75.8486 65.252C75.8486 61.8987 77.5937 59.0587 79.6809 59.0587C80.6048 59.0587 81.2892 59.5035 81.9393 60.4616L82.4525 56.9372H84.7793L83 69.2896ZM79.5099 66.9286C80.639 66.9286 81.3918 65.5257 81.3918 63.5411C81.3918 62.2751 80.947 61.5907 80.1258 61.5907C79.065 61.5907 78.3122 62.9936 78.3122 64.9783C78.3122 66.2443 78.7229 66.9286 79.5099 66.9286ZM30.2028 69.2554C29.4158 69.5292 28.5945 69.666 27.7733 69.666C25.1386 69.666 23.7699 68.1262 23.7699 65.1493C23.7699 61.6934 25.515 59.1613 27.876 59.1613C29.8264 59.1613 31.0582 60.5642 31.0582 62.8226C31.0582 63.5411 30.9555 64.2939 30.7502 65.3204H26.0967C26.0625 65.4915 26.0625 65.5599 26.0625 65.6284C26.0625 66.7918 26.781 67.3735 28.1497 67.3735C29.0052 67.3735 29.7579 67.1682 30.5791 66.7233L30.2028 69.2554ZM28.8683 63.2674C28.8683 63.0621 28.9025 62.891 28.9025 62.7541C28.9025 61.9329 28.4919 61.4539 27.7733 61.4539C27.0205 61.4539 26.5073 62.104 26.2678 63.2674H28.8683ZM58.1925 69.2554C57.4055 69.5292 56.5843 69.666 55.7631 69.666C53.1283 69.666 51.7596 68.1262 51.7596 65.1493C51.7596 61.6934 53.5047 59.1613 55.8657 59.1613C57.8161 59.1613 59.0479 60.5642 59.0479 62.8226C59.0479 63.5411 58.9453 64.2939 58.74 65.3204H54.0522C54.018 65.4915 54.018 65.5599 54.018 65.6284C54.018 66.7918 54.7365 67.3735 56.1052 67.3735C56.9607 67.3735 57.7134 67.1682 58.5347 66.7233L58.1925 69.2554ZM56.8922 63.2674C56.9265 63.0621 56.9264 62.891 56.9264 62.7541C56.9264 61.9329 56.5158 61.4539 55.7973 61.4539C55.0445 61.4539 54.5312 62.104 54.2917 63.2674H56.8922ZM91.0411 69.2554C90.2541 69.5292 89.4329 69.666 88.6116 69.666C85.9769 69.666 84.6082 68.1262 84.6082 65.1493C84.6082 61.6934 86.3533 59.1613 88.7485 59.1613C90.6989 59.1613 91.9307 60.5642 91.9307 62.8226C91.9307 63.5411 91.8281 64.2939 91.6228 65.3204H86.935C86.9008 65.4915 86.9008 65.5599 86.9008 65.6284C86.9008 66.7918 87.6193 67.3735 88.988 67.3735C89.8435 67.3735 90.5963 67.1682 91.4175 66.7233L91.0411 69.2554ZM89.7066 63.2674C89.7066 63.0621 89.7408 62.891 89.7408 62.7541C89.7408 61.9329 89.3302 61.4539 88.6116 61.4539C87.8589 61.4539 87.3456 62.104 87.1061 63.2674H89.7066ZM23.2224 59.7088C22.7776 59.4008 22.1275 59.1271 21.272 59.1271C20.314 59.1271 19.5612 59.3324 19.5612 60.3247C19.5612 62.104 23.0171 61.4539 23.0171 65.2862C23.0171 68.7764 20.7246 69.7002 18.6715 69.7002C17.7477 69.7002 16.6869 69.3923 15.8999 69.0501L16.4816 66.4838C16.9607 66.9286 17.8845 67.2024 18.7057 67.2024C19.4585 67.2024 20.5877 66.9971 20.5877 65.6968C20.5877 63.678 17.1318 64.4308 17.1318 60.8722C17.1318 57.6215 19.1506 56.6634 21.1352 56.6634C22.2301 56.6634 23.2909 56.8345 23.8726 57.2451L23.2224 59.7088ZM37.0804 69.2554C36.6014 69.4949 35.9513 69.6318 34.9932 69.6318C32.9401 69.6318 31.6741 67.5788 31.6741 65.0809C31.6741 61.796 33.5218 59.1955 36.225 59.1955C36.8067 59.1955 37.7306 59.435 38.4491 59.8457L37.9359 62.2409C37.4226 61.8987 36.9093 61.6934 36.3619 61.6934C35.0958 61.6934 34.2062 62.8568 34.2062 64.9098C34.2062 66.1074 34.8563 67.0655 35.8828 67.0655C36.4987 67.0655 36.9436 66.9286 37.4568 66.6207L37.0804 69.2554ZM45.9085 66.7233C45.7716 67.5788 45.7032 68.4684 45.6005 69.3238H43.3422L43.5133 67.7156H43.4791C42.7605 68.8106 42.0419 69.5634 40.7417 69.5634C39.3388 69.5634 38.5518 68.0578 38.5518 66.1074C38.5518 65.4231 38.586 65.0467 38.7229 64.0202L39.373 59.3666H41.9051L41.2207 64.0544C41.1523 64.5676 41.0496 65.0467 41.0496 65.5942C41.0496 66.1759 41.3234 66.7918 42.0077 66.7233C43.0342 66.7233 43.6501 65.4573 43.8212 63.986L44.5398 59.3666H46.9692L45.9085 66.7233ZM93.3679 69.187H92.9915V67.5445H92.444V67.1682H93.9153V67.5445H93.3679V69.187ZM95.8999 69.187H95.5235V67.5103L95.1814 69.187H94.805L94.4628 67.5103V69.187H94.0864V67.1682H94.6681L94.9761 68.7764H95.0103L95.3182 67.1682H95.8657C95.8999 67.1682 95.8999 69.187 95.8999 69.187Z" fill="#F3AE12"/>
</g>
<rect x="1" y="1" width="110" height="110" rx="9" stroke="black" stroke-opacity="0.1" stroke-width="2"/>
<defs>
<clipPath id="clip0_505_122">
<rect x="2" y="2" width="108" height="108" rx="8" fill="white"/>
</clipPath>
</defs>
</svg>
