<svg width="112" height="112" viewBox="0 0 112 112" fill="none" xmlns="http://www.w3.org/2000/svg">
<g clip-path="url(#clip0_647_1773)">
<rect x="1.99988" y="2" width="108" height="108" rx="8" fill="white"/>
<path d="M95.9999 31H15.9999V81.5893H95.9999V31Z" fill="black"/>
<path d="M49.6452 45.116C49.8544 45.4012 50.0255 45.7149 50.1348 46.0571C50.2489 46.3993 50.3154 46.7605 50.3154 47.1407C50.3154 47.5209 50.2536 47.8869 50.1348 48.2244C50.0255 48.5618 49.8544 48.8803 49.6452 49.1654C49.3553 49.5504 49.4409 50.097 49.8258 50.3822C50.2108 50.6673 50.7574 50.5865 51.0426 50.2015C51.3563 49.7738 51.6129 49.2937 51.784 48.7804C51.9599 48.2671 52.0549 47.7111 52.0549 47.1407C52.0549 46.5704 51.9599 46.0143 51.7888 45.501C51.6177 44.9829 51.361 44.5076 51.0473 44.0799C50.7622 43.6949 50.2156 43.6141 49.8306 43.8993C49.4409 44.1844 49.3601 44.7263 49.65 45.116M52.6348 43.4905C53.2907 44.5552 53.6662 45.8004 53.6662 47.1407C53.6662 48.481 53.2907 49.731 52.6348 50.7909C52.3829 51.1996 52.5065 51.7367 52.92 51.9886C53.3287 52.2405 53.8705 52.1122 54.1177 51.7034C54.9352 50.3774 55.4104 48.809 55.4104 47.1407C55.4104 45.4677 54.9352 43.904 54.1177 42.578C53.8658 42.1692 53.3287 42.0409 52.92 42.2928C52.5112 42.5447 52.3829 43.0818 52.6348 43.4905ZM55.8002 41.8365C56.7127 43.3955 57.2308 45.2063 57.2308 47.1407C57.2308 49.0751 56.7127 50.886 55.8002 52.4449C55.5578 52.8631 55.7004 53.3955 56.1139 53.6379C56.5321 53.8802 57.0644 53.7424 57.3068 53.3289C58.3667 51.5133 58.9751 49.3983 58.9751 47.1455C58.9751 44.8926 58.3667 42.7776 57.3068 40.962C57.0644 40.5485 56.5321 40.4059 56.1139 40.6483C55.7004 40.8907 55.5578 41.423 55.8002 41.8413M58.9561 40.1778C60.1253 42.2358 60.7954 44.6074 60.7954 47.1455C60.7954 49.6835 60.1253 52.0552 58.9561 54.1084C58.7184 54.5266 58.8658 55.059 59.2793 55.2966C59.7023 55.5342 60.2298 55.3869 60.4675 54.9686C61.7793 52.6588 62.535 49.9877 62.535 47.1407C62.535 44.2938 61.784 41.6227 60.4675 39.3128C60.2298 38.8945 59.6975 38.7472 59.2793 38.9848C58.8658 39.2272 58.7184 39.7548 58.9561 40.173M38.0863 59.6027C38.3049 59.6027 38.5188 59.6264 38.7279 59.674C38.9371 59.7215 39.1272 59.7928 39.3078 59.8783C39.4836 59.9686 39.6452 60.078 39.7926 60.2063C39.9352 60.3346 40.0587 60.482 40.1538 60.6435L39.4789 61.0903C39.3268 60.8669 39.1319 60.6911 38.8943 60.5627C38.6566 60.4344 38.3857 60.3679 38.0863 60.3679C37.8297 60.3679 37.5968 60.4107 37.3781 60.501C37.1595 60.5913 36.9741 60.7148 36.8173 60.8717C36.6604 61.0285 36.5369 61.2234 36.4466 61.4468C36.3563 61.6702 36.3135 61.9173 36.3135 62.1835C36.3135 62.4496 36.3563 62.6968 36.4466 62.9202C36.5369 63.1435 36.6604 63.3337 36.8173 63.4953C36.9741 63.6521 37.1595 63.7804 37.3781 63.866C37.5968 63.9515 37.8297 63.9991 38.0863 63.9991C38.381 63.9991 38.6519 63.9373 38.8848 63.8089C39.1224 63.6854 39.3173 63.5095 39.4741 63.2814L40.13 63.7614C40.0255 63.9183 39.8971 64.0561 39.7546 64.1797C39.612 64.3032 39.4504 64.4078 39.2793 64.4981C39.1034 64.5837 38.9181 64.655 38.7137 64.6977C38.5141 64.7453 38.3049 64.769 38.0863 64.769C37.7061 64.769 37.3544 64.7025 37.0312 64.5742C36.708 64.4458 36.4323 64.2652 36.2042 64.0323C35.9713 63.7994 35.7954 63.5285 35.6671 63.2101C35.5388 62.8964 35.477 62.5494 35.477 62.1787C35.477 61.808 35.5388 61.461 35.6671 61.1474C35.7954 60.8289 35.976 60.558 36.2042 60.3251C36.4323 60.097 36.708 59.9164 37.0312 59.7833C37.3496 59.655 37.7061 59.5884 38.0863 59.5884V59.6027ZM42.63 61.1806C42.8914 61.1806 43.1386 61.2281 43.362 61.3185C43.5854 61.4088 43.7802 61.5371 43.9466 61.6939C44.1082 61.8555 44.2365 62.0456 44.3316 62.2643C44.4266 62.4829 44.4694 62.7205 44.4694 62.9772C44.4694 63.2338 44.4219 63.4715 44.3316 63.6901C44.2365 63.9088 44.1129 64.0989 43.9466 64.2605C43.7802 64.4221 43.5901 64.5456 43.362 64.6359C43.1386 64.7262 42.8914 64.7738 42.63 64.7738C42.3686 64.7738 42.1215 64.7262 41.8981 64.6359C41.6747 64.5456 41.4798 64.4173 41.3182 64.2605C41.1566 64.0989 41.0283 63.9088 40.9333 63.6901C40.8382 63.4715 40.7954 63.2338 40.7954 62.9772C40.7954 62.7205 40.843 62.4829 40.9333 62.2643C41.0283 62.0456 41.1519 61.8555 41.3182 61.6939C41.4798 61.5323 41.6747 61.4088 41.8981 61.3185C42.1215 61.2281 42.3686 61.1806 42.63 61.1806ZM42.63 61.884C42.4779 61.884 42.3354 61.9126 42.207 61.9648C42.0739 62.0171 41.9646 62.0932 41.8696 62.1882C41.7745 62.2833 41.6985 62.4021 41.6462 62.5352C41.5939 62.6683 41.5654 62.8156 41.5654 62.9772C41.5654 63.1388 41.5939 63.2861 41.6462 63.4192C41.7032 63.5523 41.7745 63.6711 41.8696 63.7662C41.9646 63.8612 42.0787 63.9373 42.207 63.9896C42.3354 64.0418 42.4779 64.0704 42.63 64.0704C42.7821 64.0704 42.9247 64.0418 43.053 63.9896C43.1814 63.9373 43.2954 63.8612 43.3952 63.7662C43.4903 63.6711 43.5663 63.557 43.6234 63.4192C43.6804 63.2861 43.7042 63.1388 43.7042 62.9772C43.7042 62.8156 43.6757 62.6683 43.6234 62.5352C43.5663 62.4021 43.4951 62.288 43.3952 62.1882C43.3002 62.0932 43.1861 62.0171 43.053 61.9648C42.92 61.9126 42.7821 61.884 42.63 61.884ZM47.1833 61.1806C47.3829 61.1806 47.573 61.2139 47.7393 61.2804C47.9104 61.347 48.0578 61.442 48.1814 61.5608C48.3049 61.6797 48.4 61.8223 48.4665 61.9886C48.5331 62.155 48.5663 62.3403 48.5663 62.5399V64.6835H47.8201V62.7823C47.8201 62.4924 47.7489 62.2738 47.611 62.1169C47.4732 61.9601 47.2783 61.884 47.0264 61.884C46.9076 61.884 46.7888 61.9031 46.6842 61.9411C46.5749 61.9791 46.4846 62.0361 46.4038 62.1122C46.323 62.1882 46.2612 62.2833 46.2137 62.3973C46.1662 62.5114 46.1424 62.6397 46.1424 62.7823V64.674H45.3962V61.2614H46.1376V61.6797C46.2042 61.5799 46.285 61.4991 46.3658 61.4325C46.4513 61.366 46.5369 61.3137 46.6319 61.2757C46.727 61.2377 46.8173 61.2091 46.9124 61.1949C47.0074 61.1806 47.0977 61.1711 47.1833 61.1711V61.1806ZM51.9979 61.9458H50.6909V63.4335C50.6909 63.5475 50.7051 63.6473 50.7336 63.7281C50.7622 63.8089 50.8002 63.8755 50.8477 63.9278C50.8952 63.98 50.9523 64.0181 51.0188 64.0418C51.0854 64.0656 51.1566 64.0799 51.2327 64.0799C51.3515 64.0799 51.4656 64.0561 51.5892 64.0133C51.708 63.9705 51.822 63.9135 51.9219 63.8517L52.2165 64.4458C52.0787 64.5409 51.9219 64.6169 51.7508 64.6835C51.5797 64.75 51.3848 64.7833 51.1662 64.7833C50.7812 64.7833 50.477 64.674 50.2631 64.4601C50.0492 64.2462 49.9399 63.9088 49.9399 63.4572V61.9553H49.2603V61.2804H49.9399V60.2443H50.6909V61.2804H51.9979V61.9553V61.9458ZM56.1852 64.6835H55.439V64.2747C55.3201 64.4268 55.1728 64.5504 54.997 64.6359C54.8211 64.7262 54.612 64.7738 54.3648 64.7738C54.1177 64.7738 53.9038 64.731 53.6947 64.6407C53.4903 64.5504 53.3097 64.4268 53.1528 64.27C52.996 64.1131 52.8772 63.923 52.7916 63.6996C52.7013 63.481 52.6585 63.2386 52.6585 62.9772C52.6585 62.7158 52.7013 62.4734 52.7916 62.2548C52.8772 62.0361 53.0008 61.846 53.1528 61.6844C53.3097 61.5228 53.4903 61.3992 53.6947 61.3137C53.9038 61.2234 54.1272 61.1806 54.3648 61.1806C54.6025 61.1806 54.8211 61.2281 54.997 61.3185C55.1728 61.4088 55.3201 61.5323 55.439 61.6844V61.2709H56.1852V64.6835ZM54.4551 61.884C54.2935 61.884 54.1509 61.9126 54.0226 61.9696C53.8943 62.0266 53.7897 62.1074 53.6994 62.2072C53.6139 62.307 53.5426 62.4211 53.495 62.5542C53.4475 62.6873 53.4238 62.8299 53.4238 62.9772C53.4238 63.1245 53.4475 63.2671 53.495 63.4002C53.5426 63.5333 53.6091 63.6473 53.6994 63.7472C53.7897 63.847 53.8943 63.923 54.0226 63.9848C54.1509 64.0418 54.2935 64.0704 54.4551 64.0704C54.6167 64.0704 54.7498 64.0418 54.8781 63.9848C55.0017 63.9278 55.111 63.8517 55.2013 63.7567C55.2916 63.6568 55.3629 63.5428 55.4104 63.4097C55.458 63.2766 55.4865 63.1293 55.4865 62.9724C55.4865 62.8156 55.4627 62.673 55.4104 62.5352C55.3582 62.4021 55.2916 62.288 55.2013 62.1882C55.111 62.0884 55.0017 62.0124 54.8781 61.9601C54.7498 61.9031 54.612 61.8745 54.4551 61.8745V61.884ZM58.9038 61.1806C59.1604 61.1806 59.3981 61.2281 59.6215 61.3185C59.8401 61.4088 60.0302 61.5466 60.1823 61.7272L59.707 62.2358C59.5882 62.1217 59.4599 62.0361 59.3316 61.9743C59.1985 61.9126 59.0559 61.884 58.8895 61.884C58.7469 61.884 58.6139 61.9126 58.4903 61.9648C58.3667 62.0171 58.2574 62.0932 58.1719 62.1882C58.0816 62.2833 58.0103 62.4021 57.958 62.5352C57.9057 62.6683 57.8819 62.8156 57.8819 62.9772C57.8819 63.1388 57.9057 63.2861 57.958 63.4192C58.0103 63.5523 58.0816 63.6711 58.1719 63.7662C58.2622 63.8612 58.3715 63.9373 58.4903 63.9896C58.6139 64.0418 58.7469 64.0704 58.8895 64.0704C59.0559 64.0704 59.208 64.0371 59.3506 63.9705C59.4931 63.904 59.6167 63.8184 59.726 63.7139L60.1871 64.2272C60.0302 64.4078 59.8401 64.5456 59.6215 64.6359C59.4028 64.7262 59.1652 64.7738 58.9085 64.7738C58.6376 64.7738 58.3905 64.7262 58.1719 64.6359C57.9485 64.5456 57.7631 64.4173 57.6063 64.2605C57.4494 64.0989 57.3306 63.9088 57.245 63.6901C57.1595 63.4715 57.1167 63.2338 57.1167 62.9772C57.1167 62.7205 57.1595 62.4829 57.245 62.2643C57.3306 62.0456 57.4542 61.8555 57.6063 61.6939C57.7631 61.5323 57.9532 61.4088 58.1719 61.3185C58.3905 61.2281 58.6376 61.1806 58.9085 61.1806H58.9038ZM63.3762 61.9458H62.0692V63.4335C62.0692 63.5475 62.0835 63.6473 62.112 63.7281C62.1405 63.8089 62.1785 63.8755 62.226 63.9278C62.2736 63.98 62.3306 64.0181 62.3971 64.0418C62.4637 64.0656 62.535 64.0799 62.611 64.0799C62.7298 64.0799 62.8439 64.0561 62.9675 64.0133C63.0863 63.9705 63.2004 63.9135 63.3002 63.8517L63.5949 64.4458C63.457 64.5409 63.3002 64.6169 63.1291 64.6835C62.958 64.75 62.7631 64.7833 62.5445 64.7833C62.1595 64.7833 61.8553 64.674 61.6414 64.4601C61.4276 64.2462 61.3182 63.9088 61.3182 63.4572V61.9553H60.6386V61.2804H61.3182V60.2443H62.0692V61.2804H63.3762V61.9553V61.9458ZM65.035 64.6835H64.2888V59.5504H65.035V64.6835ZM67.6586 61.1806C67.8962 61.1806 68.1148 61.2234 68.3144 61.3089C68.5141 61.3945 68.6852 61.5181 68.823 61.6749C68.9656 61.8318 69.0749 62.0219 69.1557 62.2405C69.2365 62.4591 69.2745 62.7015 69.2745 62.9677C69.2745 63.0152 69.2745 63.0627 69.2745 63.1103C69.2745 63.1578 69.2698 63.2006 69.265 63.2481H66.7412C66.765 63.405 66.8078 63.5333 66.8743 63.6426C66.9361 63.7519 67.0169 63.8422 67.1072 63.9135C67.1975 63.9848 67.2973 64.0371 67.4114 64.0704C67.5255 64.1036 67.6395 64.1226 67.7631 64.1226C67.9342 64.1226 68.1053 64.0894 68.2764 64.0276C68.4475 63.9658 68.6044 63.8755 68.7469 63.7614L69.1177 64.2937C68.9085 64.4743 68.6852 64.5979 68.4523 64.6692C68.2194 64.7405 67.9722 64.7738 67.7108 64.7738C67.4494 64.7738 67.2165 64.731 67.0027 64.6454C66.7888 64.5599 66.6034 64.4363 66.4513 64.2795C66.2945 64.1226 66.1757 63.9325 66.0901 63.7139C66.0046 63.4953 65.9618 63.2481 65.9618 62.9772C65.9618 62.7063 66.0046 62.4686 66.0854 62.2453C66.1709 62.0266 66.285 61.8365 66.4371 61.6749C66.5892 61.5181 66.765 61.3945 66.9741 61.3089C67.1833 61.2234 67.4114 61.1806 67.6633 61.1806H67.6586ZM67.6443 61.8413C67.5112 61.8413 67.3924 61.8603 67.2878 61.9031C67.1833 61.9411 67.093 62.0029 67.0217 62.0742C66.9456 62.1502 66.8838 62.2358 66.8363 62.3403C66.7888 62.4449 66.7555 62.5589 66.7365 62.6825H68.5093C68.4713 62.4164 68.3762 62.2072 68.2241 62.0599C68.0768 61.9126 67.8819 61.8413 67.6443 61.8413ZM72.5207 62.1217C72.4684 62.0884 72.4019 62.0599 72.3258 62.0219C72.2498 61.9886 72.1642 61.9553 72.0739 61.9268C71.9789 61.8983 71.8838 61.8745 71.7793 61.8555C71.6747 61.8365 71.5701 61.827 71.4656 61.827C71.2612 61.827 71.1044 61.865 70.9903 61.9411C70.8762 62.0171 70.8192 62.1122 70.8192 62.2358C70.8192 62.2928 70.8335 62.3451 70.862 62.3831C70.8905 62.4259 70.9333 62.4591 70.9808 62.4829C71.0283 62.5114 71.0901 62.5304 71.1567 62.5447C71.2232 62.5589 71.2992 62.5732 71.3753 62.5875L71.727 62.6397C72.1025 62.6968 72.3924 62.8013 72.6015 62.9677C72.8106 63.1293 72.9152 63.3574 72.9152 63.6521C72.9152 63.8185 72.8819 63.9658 72.8106 64.1036C72.7393 64.2415 72.6395 64.3603 72.5065 64.4553C72.3734 64.5551 72.2118 64.6312 72.0169 64.6835C71.822 64.7357 71.6034 64.7643 71.361 64.7643C71.2755 64.7643 71.1709 64.7595 71.0568 64.75C70.938 64.7405 70.8192 64.7167 70.6861 64.6882C70.553 64.6549 70.4247 64.6122 70.2869 64.5551C70.149 64.4981 70.0207 64.4221 69.8971 64.3318L70.2441 63.7709C70.3059 63.8184 70.3724 63.8612 70.4437 63.904C70.515 63.9468 70.5958 63.9848 70.6909 64.0133C70.7812 64.0466 70.881 64.0704 70.995 64.0894C71.1044 64.1084 71.2327 64.1179 71.3705 64.1179C71.6272 64.1179 71.822 64.0799 71.9504 64.0038C72.0835 63.9278 72.1452 63.828 72.1452 63.6996C72.1452 63.5998 72.0977 63.5238 72.0027 63.4572C71.9076 63.3954 71.7555 63.3479 71.5511 63.3194L71.1947 63.2719C70.8144 63.2196 70.5245 63.1103 70.3297 62.9392C70.1348 62.7681 70.035 62.5447 70.035 62.269C70.035 62.1027 70.0682 61.9506 70.1348 61.8127C70.2013 61.6797 70.2916 61.5608 70.4152 61.4705C70.5388 61.3755 70.6861 61.3042 70.8572 61.2519C71.0331 61.1996 71.2279 61.1759 71.4466 61.1759C71.7175 61.1759 71.9694 61.2091 72.207 61.2709C72.4447 61.3327 72.6538 61.423 72.8296 61.5371L72.5112 62.1169L72.5207 62.1217ZM76.1234 62.1217C76.0711 62.0884 76.0046 62.0599 75.9285 62.0219C75.8525 61.9886 75.7669 61.9553 75.6766 61.9268C75.5816 61.8983 75.4865 61.8745 75.3819 61.8555C75.2774 61.8365 75.1728 61.827 75.0682 61.827C74.8639 61.827 74.707 61.865 74.593 61.9411C74.4789 62.0171 74.4219 62.1122 74.4219 62.2358C74.4219 62.2928 74.4361 62.3451 74.4646 62.3831C74.4931 62.4259 74.5359 62.4591 74.5835 62.4829C74.631 62.5114 74.6928 62.5304 74.7593 62.5447C74.8258 62.5589 74.9019 62.5732 74.9779 62.5875L75.3297 62.6397C75.7051 62.6968 75.995 62.8013 76.2042 62.9677C76.4133 63.1293 76.5179 63.3574 76.5179 63.6521C76.5179 63.8185 76.4846 63.9658 76.4133 64.1036C76.342 64.2415 76.2422 64.3603 76.1091 64.4553C75.976 64.5551 75.8144 64.6312 75.6196 64.6835C75.4247 64.7357 75.2061 64.7643 74.9637 64.7643C74.8781 64.7643 74.7736 64.7595 74.6595 64.75C74.5407 64.7405 74.4219 64.7167 74.2888 64.6882C74.1557 64.6549 74.0274 64.6122 73.8895 64.5551C73.7517 64.4981 73.6234 64.4221 73.4998 64.3318L73.8468 63.7709C73.9085 63.8184 73.9751 63.8612 74.0464 63.904C74.1177 63.9468 74.1985 63.9848 74.2935 64.0133C74.3838 64.0466 74.4836 64.0704 74.5977 64.0894C74.707 64.1084 74.8354 64.1179 74.9732 64.1179C75.2298 64.1179 75.4247 64.0799 75.553 64.0038C75.6861 63.9278 75.7479 63.828 75.7479 63.6996C75.7479 63.5998 75.7004 63.5238 75.6053 63.4572C75.5103 63.3954 75.3582 63.3479 75.1538 63.3194L74.7973 63.2719C74.4171 63.2196 74.1272 63.1103 73.9323 62.9392C73.7374 62.7681 73.6376 62.5447 73.6376 62.269C73.6376 62.1027 73.6709 61.9506 73.7374 61.8127C73.804 61.6797 73.8943 61.5608 74.0179 61.4705C74.1414 61.3802 74.2888 61.3042 74.4599 61.2519C74.6357 61.1996 74.8306 61.1759 75.0492 61.1759C75.3201 61.1759 75.572 61.2091 75.8097 61.2709C76.0473 61.3327 76.2565 61.423 76.4323 61.5371L76.1139 62.1169L76.1234 62.1217ZM43.9418 72.2833L43.4475 71.0095H41.1899L40.6956 72.2833H39.8591L41.8316 67.2928H42.8392L44.8116 72.2833H43.9418ZM41.4846 70.2491H43.1528L42.3211 68.096L41.4846 70.2491ZM47.0122 68.7804C47.2688 68.7804 47.5065 68.8279 47.7298 68.9183C47.9485 69.0086 48.1386 69.1464 48.2907 69.327L47.8154 69.8356C47.6966 69.7215 47.5682 69.6359 47.4399 69.5742C47.3068 69.5124 47.1643 69.4838 46.9979 69.4838C46.8553 69.4838 46.7222 69.5124 46.5987 69.5646C46.4751 69.6169 46.3658 69.693 46.2802 69.788C46.1899 69.8831 46.1186 70.0019 46.0663 70.135C46.0141 70.2681 45.9903 70.4154 45.9903 70.577C45.9903 70.7386 46.0141 70.8859 46.0663 71.019C46.1186 71.1521 46.1899 71.2709 46.2802 71.366C46.3705 71.461 46.4751 71.5371 46.5987 71.5894C46.7222 71.6416 46.8553 71.6702 46.9979 71.6702C47.1643 71.6702 47.3163 71.6369 47.4589 71.5703C47.6015 71.5038 47.7251 71.4183 47.8344 71.3137L48.2954 71.827C48.1386 72.0076 47.9485 72.1454 47.7298 72.2357C47.5112 72.326 47.2736 72.3736 47.0169 72.3736C46.746 72.3736 46.4989 72.326 46.2802 72.2357C46.0568 72.1454 45.8715 72.0171 45.7146 71.8603C45.5578 71.6987 45.439 71.5086 45.3534 71.2899C45.2679 71.0713 45.2251 70.8336 45.2251 70.577C45.2251 70.3203 45.2679 70.0827 45.3534 69.8641C45.439 69.6454 45.5625 69.4553 45.7146 69.2937C45.8715 69.1321 46.0616 69.0086 46.2802 68.9183C46.4989 68.8279 46.746 68.7804 47.0169 68.7804H47.0122ZM50.6006 68.7804C50.8572 68.7804 51.0949 68.8279 51.3182 68.9183C51.5369 69.0086 51.727 69.1464 51.8791 69.327L51.4038 69.8356C51.285 69.7215 51.1566 69.6359 51.0283 69.5742C50.8952 69.5124 50.7527 69.4838 50.5863 69.4838C50.4437 69.4838 50.3106 69.5124 50.1871 69.5646C50.0635 69.6169 49.9542 69.693 49.8686 69.788C49.7783 69.8831 49.707 70.0019 49.6547 70.135C49.6025 70.2681 49.5787 70.4154 49.5787 70.577C49.5787 70.7386 49.6025 70.8859 49.6547 71.019C49.707 71.1521 49.7783 71.2709 49.8686 71.366C49.9589 71.461 50.0682 71.5371 50.1871 71.5894C50.3106 71.6416 50.4437 71.6702 50.5863 71.6702C50.7527 71.6702 50.9047 71.6369 51.0473 71.5703C51.1899 71.5038 51.3135 71.4183 51.4228 71.3137L51.8838 71.827C51.727 72.0076 51.5369 72.1454 51.3182 72.2357C51.0996 72.326 50.862 72.3736 50.6053 72.3736C50.3344 72.3736 50.0873 72.326 49.8686 72.2357C49.6452 72.1454 49.4599 72.0171 49.303 71.8603C49.1462 71.6987 49.0226 71.5086 48.9418 71.2899C48.8563 71.0713 48.8135 70.8336 48.8135 70.577C48.8135 70.3203 48.8563 70.0827 48.9418 69.8641C49.0274 69.6454 49.1509 69.4553 49.303 69.2937C49.4599 69.1321 49.65 69.0086 49.8686 68.9183C50.0873 68.8279 50.3344 68.7804 50.6053 68.7804H50.6006ZM54.0939 68.7804C54.3316 68.7804 54.5502 68.8232 54.7498 68.9087C54.9494 68.9943 55.1205 69.1179 55.2584 69.2747C55.4009 69.4316 55.5103 69.6217 55.5911 69.8403C55.6719 70.0589 55.7099 70.3013 55.7099 70.5675C55.7099 70.615 55.7099 70.6626 55.7099 70.7101C55.7099 70.7576 55.7051 70.8004 55.7004 70.8479H53.1766C53.2004 71.0048 53.2431 71.1331 53.3097 71.2424C53.3715 71.3517 53.4523 71.442 53.5426 71.5133C53.6329 71.5846 53.7327 71.6369 53.8468 71.6702C53.9608 71.7034 54.0749 71.7224 54.1985 71.7224C54.3696 71.7224 54.5407 71.6892 54.7118 71.6274C54.8829 71.5656 55.0397 71.4753 55.1823 71.3612L55.553 71.8935C55.3439 72.0741 55.1205 72.1977 54.8876 72.269C54.6547 72.3403 54.4076 72.3736 54.1462 72.3736C53.8848 72.3736 53.6519 72.3308 53.438 72.2452C53.2241 72.1597 53.0388 72.0361 52.8867 71.8793C52.7298 71.7224 52.611 71.5323 52.5255 71.3137C52.4399 71.0951 52.3971 70.8479 52.3971 70.577C52.3971 70.3061 52.4399 70.0684 52.5207 69.8451C52.6063 69.6264 52.7203 69.4363 52.8724 69.2747C53.0245 69.1179 53.2004 68.9943 53.4095 68.9087C53.6186 68.8232 53.8468 68.7804 54.0987 68.7804H54.0939ZM54.0797 69.4411C53.9466 69.4411 53.8277 69.4601 53.7232 69.5029C53.6186 69.5409 53.5283 69.6027 53.457 69.674C53.381 69.75 53.3192 69.8356 53.2717 69.9401C53.2241 70.0447 53.1909 70.1587 53.1719 70.2823H54.9447C54.9067 70.0162 54.8116 69.807 54.6595 69.6597C54.5122 69.5124 54.3173 69.4411 54.0797 69.4411ZM58.4475 68.7804C58.6852 68.7804 58.9085 68.8232 59.1177 68.9135C59.3268 69.0038 59.5074 69.1274 59.6595 69.2842C59.8163 69.4411 59.9352 69.6312 60.0207 69.8546C60.111 70.0732 60.1538 70.3156 60.1538 70.577C60.1538 70.8384 60.111 71.0808 60.0207 71.2994C59.9352 71.5181 59.8116 71.7082 59.6595 71.8698C59.5027 72.0314 59.322 72.1549 59.1177 72.2405C58.9133 72.326 58.6852 72.3736 58.4475 72.3736C58.2099 72.3736 57.9912 72.3308 57.8201 72.2357C57.6443 72.1454 57.4969 72.0266 57.3781 71.8745V73.7091H56.6319V68.8707H57.3781V69.2747C57.4969 69.1274 57.6443 69.0038 57.8201 68.9135C57.996 68.8232 58.2051 68.7804 58.4475 68.7804ZM58.3572 69.4838C58.2004 69.4838 58.0625 69.5124 57.9342 69.5694C57.8106 69.6264 57.7013 69.7025 57.611 69.7975C57.5207 69.8926 57.4494 70.0114 57.4019 70.1445C57.3544 70.2776 57.3258 70.4249 57.3258 70.5817C57.3258 70.7386 57.3496 70.8859 57.4019 71.019C57.4542 71.1521 57.5207 71.2662 57.611 71.366C57.7013 71.4658 57.8106 71.5418 57.9342 71.5941C58.0625 71.6511 58.2004 71.6797 58.3572 71.6797C58.5141 71.6797 58.6614 71.6511 58.7897 71.5941C58.9181 71.5371 59.0274 71.4563 59.1129 71.3565C59.1985 71.2567 59.2698 71.1426 59.3173 71.0095C59.3648 70.8764 59.3886 70.7338 59.3886 70.5865C59.3886 70.4392 59.3648 70.2966 59.3173 70.1635C59.2698 70.0304 59.2032 69.9164 59.1129 69.8165C59.0226 69.7167 58.9181 69.6407 58.7897 69.5789C58.6614 69.5219 58.5188 69.4933 58.3572 69.4933V69.4838ZM63.3667 69.5456H62.0597V71.0333C62.0597 71.1473 62.0739 71.2472 62.1025 71.3279C62.131 71.4087 62.169 71.4753 62.2165 71.5276C62.2641 71.5798 62.3211 71.6179 62.3876 71.6416C62.4542 71.6654 62.5255 71.6797 62.6015 71.6797C62.7203 71.6797 62.8344 71.6559 62.958 71.6131C63.0768 71.5703 63.1909 71.5133 63.2907 71.4515L63.5854 72.0456C63.4475 72.1407 63.2907 72.2167 63.1196 72.2833C62.9485 72.3498 62.7536 72.3831 62.535 72.3831C62.15 72.3831 61.8458 72.2738 61.6319 72.0599C61.4181 71.846 61.3087 71.5086 61.3087 71.057V69.5551H60.6291V68.8802H61.3087V67.8441H62.0597V68.8802H63.3667V69.5551V69.5456ZM65.7289 68.7804C65.9665 68.7804 66.1852 68.8232 66.3848 68.9087C66.5844 68.9943 66.7555 69.1179 66.8933 69.2747C67.0359 69.4316 67.1452 69.6217 67.226 69.8403C67.3068 70.0589 67.3449 70.3013 67.3449 70.5675C67.3449 70.615 67.3449 70.6626 67.3449 70.7101C67.3449 70.7576 67.3401 70.8004 67.3354 70.8479H64.8116C64.8354 71.0048 64.8781 71.1331 64.9447 71.2424C65.0065 71.3517 65.0873 71.442 65.1776 71.5133C65.2679 71.5846 65.3677 71.6369 65.4817 71.6702C65.5958 71.7034 65.7099 71.7224 65.8335 71.7224C66.0046 71.7224 66.1757 71.6892 66.3468 71.6274C66.5179 71.5656 66.6747 71.4753 66.8173 71.3612L67.188 71.8935C66.9789 72.0741 66.7555 72.1977 66.5226 72.269C66.2897 72.3403 66.0426 72.3736 65.7812 72.3736C65.5198 72.3736 65.2869 72.3308 65.073 72.2452C64.8591 72.1597 64.6738 72.0361 64.5217 71.8793C64.3648 71.7224 64.246 71.5323 64.1604 71.3137C64.0749 71.0951 64.0321 70.8479 64.0321 70.577C64.0321 70.3061 64.0749 70.0684 64.1557 69.8451C64.2412 69.6264 64.3553 69.4363 64.5074 69.2747C64.6595 69.1179 64.8354 68.9943 65.0445 68.9087C65.2536 68.8232 65.4817 68.7804 65.7336 68.7804H65.7289ZM65.7146 69.4411C65.5816 69.4411 65.4627 69.4601 65.3582 69.5029C65.2536 69.5409 65.1633 69.6027 65.092 69.674C65.016 69.75 64.9542 69.8356 64.9066 69.9401C64.8591 70.0447 64.8259 70.1587 64.8068 70.2823H66.5797C66.5416 70.0162 66.4466 69.807 66.2945 69.6597C66.1471 69.5124 65.9523 69.4411 65.7146 69.4411ZM69.7308 68.7804C69.9779 68.7804 70.1871 68.8279 70.3629 68.9183C70.5388 69.0086 70.6861 69.1321 70.8049 69.2842V67.1549H71.5511V72.288H70.8049V71.8793C70.6861 72.0314 70.5388 72.1549 70.3629 72.2405C70.1871 72.3308 69.9779 72.3783 69.7308 72.3783C69.4836 72.3783 69.2698 72.3356 69.0606 72.2452C68.8563 72.1549 68.6757 72.0314 68.5188 71.8745C68.362 71.7177 68.2431 71.5276 68.1576 71.3042C68.0673 71.0856 68.0245 70.8432 68.0245 70.5817C68.0245 70.3203 68.0673 70.0779 68.1576 69.8593C68.2431 69.6407 68.3667 69.4506 68.5188 69.289C68.6757 69.1274 68.8515 69.0038 69.0606 68.9183C69.2698 68.8279 69.4931 68.7852 69.7308 68.7852V68.7804ZM69.8211 69.4838C69.6595 69.4838 69.5169 69.5124 69.3886 69.5694C69.2603 69.6264 69.1557 69.7072 69.0654 69.807C68.9798 69.9068 68.9085 70.0209 68.861 70.154C68.8135 70.2871 68.7897 70.4297 68.7897 70.577C68.7897 70.7243 68.8135 70.8669 68.861 71C68.9085 71.1331 68.9751 71.2471 69.0654 71.347C69.1557 71.4468 69.2603 71.5228 69.3886 71.5846C69.5169 71.6416 69.6595 71.6702 69.8211 71.6702C69.9827 71.6702 70.1158 71.6416 70.2441 71.5846C70.3677 71.5276 70.477 71.4515 70.5673 71.3565C70.6576 71.2567 70.7289 71.1426 70.7764 71.0095C70.8239 70.8764 70.8525 70.7291 70.8525 70.5722C70.8525 70.4154 70.8287 70.2728 70.7764 70.135C70.7241 70.0019 70.6576 69.8878 70.5673 69.788C70.477 69.6882 70.3677 69.6122 70.2441 69.5599C70.1158 69.5029 69.9779 69.4743 69.8211 69.4743V69.4838Z" fill="white"/>
</g>
<rect x="1" y="1" width="110" height="110" rx="9" stroke="black" stroke-opacity="0.1" stroke-width="2"/>
<defs>
<clipPath id="clip0_647_1773">
<rect x="2" y="2" width="108" height="108" rx="8" fill="white"/>
</clipPath>
</defs>
</svg>
