<svg width="112" height="112" viewBox="0 0 112 112" fill="none" xmlns="http://www.w3.org/2000/svg">
<g clip-path="url(#clip0_505_117)">
<rect x="1.99988" y="2" width="108" height="108" rx="8" fill="white"/>
<path d="M31.6694 31.0001H51.6367C54.4211 31.0001 56.159 33.2706 55.505 36.0736L46.2081 75.9802C45.554 78.7739 42.7603 81.0444 39.9759 81.0444H20.0086C17.2242 81.0444 15.4863 78.7739 16.1403 75.9802L25.4372 36.0736C26.082 33.2706 28.8757 31.0001 31.6694 31.0001Z" fill="#ED171F"/>
<path d="M49.9733 31.0001H72.9306C75.715 31.0001 74.463 33.2706 73.8089 36.0736L64.512 75.9802C63.858 78.7739 64.0635 81.0444 61.2698 81.0444H38.3125C35.5188 81.0444 33.7902 78.7739 34.4443 75.9802L43.7412 36.0736C44.3952 33.2706 47.1889 31.0001 49.9733 31.0001Z" fill="#082F67"/>
<path d="M72.0243 31.0001H91.9916C94.776 31.0001 96.5139 33.2706 95.8598 36.0736L86.5629 75.9802C85.9089 78.7739 83.1245 81.0444 80.3214 81.0444H60.3634C57.5697 81.0444 55.8411 78.7739 56.4952 75.9802L65.7921 36.0736C66.4461 33.2706 69.2305 31.0001 72.0243 31.0001Z" fill="#006A65"/>
<path fill-rule="evenodd" clip-rule="evenodd" d="M68.6886 68.5427H70.5667L71.1086 66.73H69.2305L68.6886 68.5427ZM70.1929 63.5439L69.5482 65.6835C69.5482 65.6835 70.2583 65.3191 70.6508 65.207C71.0338 65.1136 71.6225 65.0482 71.6225 65.0482L72.0803 63.5532H70.2023L70.1929 63.5439ZM71.1273 60.4605L70.5013 62.5161C70.5013 62.5161 71.202 62.1984 71.5851 62.0956C71.9682 61.9928 72.5569 61.9554 72.5569 61.9554L73.0053 60.4605H71.1273ZM75.2945 60.4605L72.8652 68.5147H73.5192L73.0147 70.1778H72.3606L72.2111 70.6917H69.8939L70.0528 70.1778H65.3436L65.8201 68.6361H66.2966L68.7633 60.4605L69.2586 58.8066H71.6225L71.3796 59.6382C71.3796 59.6382 72.0056 59.1804 72.6036 59.0309C73.2016 58.8721 76.6213 58.816 76.6213 58.816L76.1168 60.4511H75.3039L75.2945 60.4605Z" fill="white"/>
<path d="M76.341 58.8253H78.8638L78.8918 59.769C78.8731 59.9279 79.0133 60.0026 79.3029 60.0026H79.8168L79.3497 61.5537H77.9855C76.8082 61.6378 76.3597 61.1332 76.3877 60.5632L76.341 58.8253Z" fill="white"/>
<path d="M76.668 66.1881H74.2667L74.6779 64.8052H77.4249L77.8173 63.5439H75.1077L75.5748 61.9835H83.1245L82.648 63.5439H80.1158L79.7234 64.8052H82.2649L81.8444 66.1881H79.0974L78.6115 66.7674H79.7234L79.9944 68.5053C80.0224 68.6735 80.0317 68.7856 80.0785 68.8604C80.1345 68.9258 80.4709 68.9538 80.6578 68.9538H80.9941L80.4802 70.645H79.6206C79.4898 70.645 79.2936 70.6357 79.0226 70.617C78.761 70.5983 78.5835 70.4488 78.406 70.3647C78.2471 70.2899 78.0135 70.0937 77.9575 69.776L77.6865 68.0381L76.4438 69.748C76.0514 70.2899 75.5094 70.7011 74.6031 70.7011H72.8558L73.3137 69.1874H73.9864C74.1826 69.1874 74.3508 69.1126 74.4723 69.0472C74.6031 68.9912 74.7152 68.9258 74.846 68.7389L76.6587 66.1788L76.668 66.1881Z" fill="white"/>
<path d="M50.3471 62.4039H56.7101L56.2429 63.9269H53.7014L53.309 65.2164H55.9159L55.4394 66.7861H52.8418L52.2158 68.8884C52.1411 69.122 52.8325 69.15 53.0848 69.15L54.3929 68.9725L53.8696 70.7104H50.9357C50.7021 70.7104 50.5246 70.673 50.2723 70.617C50.0294 70.5516 49.9173 70.4488 49.8052 70.2806C49.7024 70.1124 49.5342 69.9723 49.6463 69.5985L50.4872 66.8141H49.039L49.5155 65.2164H50.9731L51.3562 63.9269H49.9079L50.3751 62.4039H50.3471Z" fill="white"/>
<path d="M54.6358 59.6756H57.2427L56.7662 61.264H53.1969L52.8138 61.6004C52.6456 61.7592 52.5896 61.6938 52.3747 61.8153C52.1691 61.9181 51.7486 62.1143 51.1974 62.1143H50.0574L50.5246 60.5819H50.8703C51.16 60.5819 51.3562 60.5539 51.459 60.4885C51.5711 60.4137 51.7019 60.2549 51.8421 59.9933L52.4961 58.7973H55.0936L54.6358 59.6663V59.6756Z" fill="white"/>
<path fill-rule="evenodd" clip-rule="evenodd" d="M59.644 62.2918C59.644 62.2918 60.3541 61.6378 61.5781 61.4322C61.8584 61.3761 63.587 61.3948 63.587 61.3948L63.8486 60.5259H60.1766L59.644 62.2918ZM63.0918 62.9552H59.4478L59.2235 63.6934H62.3817C62.7554 63.6466 62.8302 63.6934 62.8582 63.684L63.0918 62.9552ZM58.3732 58.8347H60.597L60.27 59.9559C60.27 59.9559 60.9708 59.3953 61.466 59.1991C61.9519 59.0122 63.0637 58.8534 63.0637 58.8534L66.661 58.8347L65.437 62.9178C65.2315 63.6186 64.9885 64.0671 64.839 64.2727C64.6989 64.4876 64.54 64.6557 64.2317 64.8333C63.9327 64.9921 63.6524 65.0855 63.4001 65.1136C63.1572 65.1323 62.7928 65.1416 62.2882 65.1416H58.8217L57.8407 68.3745C57.7472 68.6922 57.7005 68.8417 57.7659 68.9351C57.822 69.0099 57.9341 69.1033 58.1023 69.1033L59.6253 68.9632L59.1021 70.7384H57.3922C56.8502 70.7384 56.4485 70.7291 56.1775 70.7011C55.9159 70.6824 55.6356 70.7011 55.458 70.5609C55.2992 70.4208 55.0563 70.2339 55.0563 70.047C55.075 69.8695 55.1404 69.5798 55.2618 69.1781L58.3732 58.844V58.8347Z" fill="white"/>
<path d="M64.8484 65.4219L64.6428 66.403C64.5494 66.7113 64.4746 66.9449 64.241 67.1411C63.9981 67.3467 63.7084 67.5616 63.0451 67.5616L61.8117 67.6083V68.7202C61.7837 69.0379 61.8678 69.0005 61.9238 69.0566C61.9799 69.1126 62.0266 69.1313 62.0827 69.15L62.4751 69.1313L63.6524 69.0659L63.1665 70.6824H61.8117C60.868 70.6824 60.1579 70.6637 59.9336 70.4768C59.7094 70.3367 59.6814 70.1498 59.6814 69.8414L59.7654 65.5154H61.9238L61.8958 66.3937H62.419C62.5966 66.3937 62.7087 66.375 62.7928 66.3283C62.8582 66.2722 62.9049 66.2068 62.9423 66.104L63.1478 65.4126H64.8484V65.4219Z" fill="white"/>
<path d="M34.0331 43.7541C33.9584 44.0998 32.5662 50.5002 32.5662 50.5002C32.2672 51.7896 32.0523 52.724 31.3142 53.3126C30.8937 53.6583 30.4078 53.8265 29.8379 53.8265C28.9315 53.8265 28.3989 53.378 28.3055 52.5184L28.2868 52.2287L28.5671 50.4908C28.5671 50.4908 30.0247 44.6604 30.277 43.8942C30.2864 43.8475 30.2957 43.8288 30.2957 43.8102C27.4646 43.8382 26.96 43.8102 26.932 43.7728C26.9133 43.8288 26.8386 44.1932 26.8386 44.1932L25.3529 50.7525L25.2221 51.3131L24.9792 53.1351C24.9792 53.677 25.082 54.1162 25.2969 54.4899C25.979 55.6765 27.9037 55.8541 28.9969 55.8541C30.4078 55.8541 31.7253 55.5551 32.6129 55.0131C34.164 54.0975 34.5657 52.6679 34.9301 51.3972L35.0983 50.7431C35.0983 50.7431 36.5933 44.6885 36.8549 43.9036C36.8549 43.8569 36.8643 43.8382 36.8736 43.8195C34.818 43.8382 34.22 43.8195 34.0238 43.7821" fill="white"/>
<path d="M42.3209 55.7606C41.3118 55.7513 40.9661 55.7513 39.7888 55.8073L39.7421 55.7233C39.8449 55.2748 39.957 54.8356 40.0598 54.3871L40.1999 53.7798C40.4148 52.8267 40.6297 51.7242 40.6578 51.3878C40.6765 51.1823 40.7419 50.6777 40.1719 50.6777C39.929 50.6777 39.6767 50.7992 39.4151 50.9113C39.2749 51.4159 38.9853 52.8361 38.8544 53.4901C38.5648 54.8543 38.5461 55.0131 38.4153 55.6859L38.3312 55.77C37.2941 55.7606 36.939 55.7606 35.743 55.8167L35.687 55.7139C35.8832 54.901 36.0887 54.0881 36.2756 53.2752C36.7708 51.0795 36.8923 50.2386 37.0324 49.1173L37.1259 49.0519C38.2845 48.8931 38.5648 48.8557 39.8262 48.5941L39.929 48.7155L39.7421 49.4163C39.957 49.2949 40.1532 49.164 40.3775 49.0519C40.9661 48.7623 41.6295 48.6782 41.9939 48.6782C42.5452 48.6782 43.1432 48.837 43.3954 49.4724C43.6384 50.0423 43.4795 50.7431 43.1619 52.1166L43.003 52.8174C42.676 54.3497 42.6293 54.6301 42.4517 55.6859L42.3303 55.77L42.3209 55.7606Z" fill="white"/>
<path d="M46.3947 55.7606C45.7874 55.7606 45.4043 55.7513 45.0212 55.7606C44.6475 55.7606 44.2737 55.7793 43.7131 55.8073L43.6384 55.7139C43.7879 55.1346 43.8813 54.929 43.9561 54.7235C44.0308 54.5179 44.1056 54.3124 44.2364 53.7237C44.4139 52.9575 44.5167 52.4156 44.6008 51.9484C44.6849 51.4906 44.7222 51.1075 44.7876 50.659L44.8344 50.6216L44.8811 50.5749C45.4791 50.4908 45.8622 50.4348 46.2546 50.3694C46.647 50.3133 47.0488 50.2386 47.6655 50.1171L47.6935 50.1732L47.7122 50.2292C47.6001 50.7057 47.4786 51.1823 47.3665 51.6681C47.2544 52.154 47.1422 52.6212 47.0301 53.0977C46.8059 54.1068 46.7124 54.4899 46.6564 54.7515C46.6096 55.0131 46.591 55.1533 46.4975 55.6765L46.4415 55.7233L46.3854 55.7606H46.3947Z" fill="white"/>
<path d="M52.7951 52.1914C52.7391 52.453 52.5148 53.4247 52.2065 53.8358C51.9916 54.1348 51.7393 54.3217 51.4496 54.3217C51.3655 54.3217 50.8703 54.3217 50.861 53.5836C50.861 53.2192 50.9264 52.8454 51.0198 52.4436C51.2814 51.2757 51.5991 50.2946 52.3933 50.2946C53.0194 50.2946 53.0567 51.0234 52.7951 52.2007M55.4207 52.3128C55.7757 50.7711 55.5048 50.0423 55.159 49.6032C54.6358 48.9398 53.7108 48.7155 52.7484 48.7155C52.1691 48.7155 50.8049 48.7716 49.7304 49.762C48.9642 50.4721 48.5998 51.4439 48.3849 52.3689C48.17 53.3126 47.9177 55.0225 49.4875 55.6485C49.9733 55.8541 50.6648 55.9101 51.1133 55.9101C52.2625 55.9101 53.4398 55.5924 54.3181 54.6581C55.0002 53.9013 55.3179 52.7707 55.4207 52.3035" fill="white"/>
<path d="M79.9663 55.8634C78.7517 55.8541 78.406 55.8541 77.2847 55.9008L77.21 55.8073C77.5183 54.6581 77.8267 53.5088 78.0883 52.3409C78.4433 50.8272 78.5181 50.1918 78.6395 49.3042L78.733 49.2294C79.9383 49.0613 80.2653 49.0052 81.5267 48.781L81.5641 48.8837C81.3305 49.8274 81.1063 50.7805 80.882 51.7335C80.4242 53.7237 80.256 54.7422 80.0785 55.7793L79.9663 55.8634Z" fill="white"/>
<path d="M78.1443 52.3222C78.0883 52.5651 77.8547 53.5462 77.5463 53.9573C77.3408 54.247 76.8549 54.4338 76.5746 54.4338C76.4905 54.4338 76.0046 54.4338 75.986 53.705C75.986 53.35 76.0607 52.9669 76.1541 52.5651C76.4158 51.4159 76.7334 50.4441 77.5277 50.4441C78.1537 50.4441 78.4246 51.1542 78.1537 52.3315M80.5456 52.4436C80.9007 50.9113 79.4805 52.3128 79.2562 51.7989C78.9105 51.0047 79.1254 49.407 77.7332 48.865C77.2006 48.6595 75.9392 48.9305 74.8647 49.9115C74.0985 50.6216 73.7435 51.5747 73.5286 52.4997C73.3137 53.4341 73.0614 55.1346 74.6218 55.7419C75.117 55.9475 75.5655 56.0129 76.014 55.9942C77.5837 55.9101 78.7704 53.5462 79.658 52.6118C80.3401 51.8737 80.4615 52.8921 80.5643 52.4436" fill="white"/>
<path d="M62.2789 55.7606C61.2698 55.7513 60.9334 55.7513 59.7468 55.8073L59.7 55.7233C59.8028 55.2748 59.9149 54.8356 60.0177 54.3871L60.1579 53.7798C60.3728 52.8267 60.5877 51.7242 60.6157 51.3878C60.6344 51.1823 60.6998 50.6777 60.1298 50.6777C59.8776 50.6777 59.6346 50.7992 59.373 50.9113C59.2329 51.4159 58.9432 52.8361 58.8031 53.4901C58.5134 54.8543 58.4947 55.0131 58.3639 55.6859L58.2798 55.77C57.2427 55.7606 56.8876 55.7606 55.701 55.8167L55.6449 55.7139C55.8411 54.901 56.0373 54.0881 56.2242 53.2752C56.7194 51.0795 56.8409 50.2386 56.9811 49.1173L57.0745 49.0519C58.2331 48.8931 58.5134 48.8557 59.7748 48.5941L59.8776 48.7155L59.7 49.4163C59.9056 49.2949 60.1205 49.164 60.3261 49.0519C60.9147 48.7623 61.5781 48.6782 61.9332 48.6782C62.4844 48.6782 63.0824 48.837 63.3441 49.4724C63.5776 50.0423 63.4188 50.7431 63.1011 52.1166L62.9423 52.8174C62.6153 54.3497 62.5592 54.6301 62.391 55.6859L62.2695 55.77L62.2789 55.7606Z" fill="white"/>
<path d="M70.9778 43.7354L70.1462 43.7447C67.9785 43.7728 67.1095 43.7541 66.7451 43.7167C66.7077 43.8756 66.6517 44.1559 66.6517 44.1559L65.8762 47.7625C65.8762 47.7625 64.0168 55.4243 63.9327 55.7887C65.8294 55.77 66.605 55.77 66.932 55.798C67.0067 55.4336 67.4459 53.2939 67.4459 53.2939C67.4459 53.2939 67.8196 51.7242 67.8477 51.6681C67.8477 51.6681 67.9598 51.5093 68.0813 51.4439H68.2494C69.8846 51.4439 71.7346 51.4439 73.1735 50.3787C74.1546 49.6499 74.8367 48.5754 75.1263 47.2673C75.2104 46.9496 75.2665 46.5572 75.2665 46.1834C75.2665 45.6789 75.1637 45.1837 74.8741 44.8006C74.1359 43.7634 72.669 43.7541 70.9684 43.7447M72.0523 47.5009C71.8748 48.2951 71.3609 48.9772 70.6881 49.2949C70.1369 49.5752 69.4641 49.5938 68.7727 49.5938H68.3242L68.3616 49.4163C68.3616 49.4163 69.1931 45.819 69.1838 45.8284L69.2118 45.6415L69.2305 45.5013L69.5576 45.5387C69.5576 45.5387 71.2581 45.6882 71.3048 45.6882C71.9775 45.9405 72.2579 46.6226 72.0616 47.5009" fill="white"/>
<path d="M89.8893 48.7716L89.7958 48.6688C88.5625 48.9118 88.3289 48.9585 87.1889 49.108L87.1049 49.1921C87.1049 49.1921 87.1049 49.2294 87.0955 49.2481V49.2294C86.2452 51.1916 86.2639 50.7618 85.5725 52.3035C85.5725 52.2287 85.5725 52.182 85.5725 52.1166L85.4043 48.781L85.2922 48.6782C83.9934 48.9211 83.9654 48.9678 82.7601 49.1173L82.6666 49.2014C82.6666 49.2014 82.6573 49.2855 82.648 49.3322V49.3509C82.8068 50.1171 82.7694 49.9489 82.9189 51.1542C82.9937 51.7429 83.0778 52.3502 83.1525 52.9295C83.274 53.9106 83.3394 54.3965 83.4795 55.8914C82.676 57.2276 82.4798 57.7415 81.7042 58.9094L81.7416 59.0122C82.9096 58.9655 83.1805 58.9655 84.0495 58.9655L84.2364 58.7506C84.8904 57.3397 89.8799 48.7716 89.8799 48.7716" fill="white"/>
<path d="M47.4973 49.6032C48.1607 49.1454 48.2448 48.5006 47.6842 48.1736C47.1142 47.8372 46.1238 47.9494 45.4604 48.4072C44.7876 48.865 44.7129 49.5004 45.2735 49.8368C45.8341 50.1638 46.8245 50.0704 47.4973 49.6032Z" fill="white"/>
<path d="M84.1523 58.8627L83.1805 60.5352C82.8722 61.1052 82.3022 61.535 81.3866 61.535L79.8355 61.507L80.284 60.0026H80.583C80.7419 60.0026 80.8633 59.9933 80.9474 59.9466C81.0222 59.9185 81.0782 59.8625 81.1436 59.769L81.7136 58.8534H84.1429L84.1523 58.8627Z" fill="white"/>
</g>
<rect x="1" y="1" width="110" height="110" rx="9" stroke="black" stroke-opacity="0.1" stroke-width="2"/>
<defs>
<clipPath id="clip0_505_117">
<rect x="2" y="2" width="108" height="108" rx="8" fill="white"/>
</clipPath>
</defs>
</svg>
