<svg width="112" height="112" viewBox="0 0 112 112" fill="none" xmlns="http://www.w3.org/2000/svg">
<g clip-path="url(#clip0_505_126)">
<rect x="1.99991" y="2" width="108" height="108" rx="8" fill="white"/>
<path d="M31.6685 30.9999H51.631C54.4305 30.9999 56.1565 33.277 55.5062 36.0699L46.2061 75.9354C45.5536 78.7195 42.7607 80.99 39.9766 80.99H20.0097C17.2168 80.99 15.4886 78.7195 16.1367 75.9354L25.4324 36.0699C26.0849 33.277 28.8756 30.9999 31.6685 30.9999Z" fill="#ED171F"/>
<path d="M49.9777 30.9999H72.9338C75.7223 30.9999 74.4658 33.277 73.8089 36.0699L64.511 75.9354C63.8629 78.7195 64.0657 80.99 61.2728 80.99H38.319C35.5195 80.99 33.7913 78.7195 34.4459 75.9354L43.7372 36.0699C44.3963 33.277 47.1804 30.9999 49.9777 30.9999Z" fill="#082F67"/>
<path d="M72.0256 30.9999H91.9859C94.7788 30.9999 96.5158 33.277 95.8611 36.0699L86.561 75.9354C85.9085 78.7195 83.1134 80.99 80.3227 80.99H60.3646C57.5739 80.99 55.8413 78.7195 56.4938 75.9354L65.7939 36.0699C66.4442 33.277 69.2349 30.9999 72.0256 30.9999Z" fill="#006A65"/>
<path d="M35.374 46.4633C33.2269 46.4854 32.6009 46.4633 32.3959 46.4171C32.3121 46.7808 30.8639 53.4555 30.8639 53.4555C30.5509 54.809 30.3194 55.7745 29.5545 56.3851C29.1136 56.751 28.6044 56.9318 28.0115 56.9318C27.0636 56.9318 26.5103 56.4578 26.4111 55.5563L26.4023 55.2565C26.4023 55.2565 26.6867 53.4467 26.6933 53.4357C26.6933 53.4357 28.2054 47.3561 28.4788 46.5537C28.4854 46.5052 28.4942 46.4898 28.5052 46.4678C25.5426 46.4942 25.0158 46.4678 24.9827 46.4215C24.9695 46.481 24.8835 46.8601 24.8835 46.8601L23.3361 53.7046L23.1994 54.2932L22.9459 56.1911C22.9459 56.7532 23.0561 57.2095 23.2765 57.6041C23.9929 58.8451 26.0055 59.0215 27.1474 59.0215C28.6155 59.0215 29.9843 58.7129 30.9168 58.1398C32.5348 57.1875 32.9624 55.6973 33.3327 54.3725L33.5135 53.6892C33.5135 53.6892 35.0808 47.3759 35.3519 46.5537C35.3519 46.5052 35.3607 46.4898 35.374 46.4678M40.7019 51.5576C40.3249 51.5576 39.635 51.6502 39.0155 51.9544C38.7863 52.0734 38.5703 52.199 38.3498 52.3357L38.5482 51.5995L38.4402 51.476C37.1286 51.7405 36.831 51.7846 35.6231 51.9522L35.5261 52.0205C35.374 53.1844 35.2615 54.0617 34.7303 56.3608C34.5297 57.1941 34.3203 58.0472 34.1153 58.8958L34.1682 59.0016C35.4269 58.9421 35.795 58.9421 36.8729 58.9532L36.9655 58.8606C37.0956 58.1574 37.1176 57.9965 37.4262 56.5703C37.5629 55.8913 37.8583 54.41 38.006 53.8788C38.2815 53.7575 38.5394 53.6429 38.7995 53.6429C39.4057 53.6429 39.3286 54.1631 39.3109 54.3791C39.2889 54.7296 39.0596 55.8825 38.8326 56.8745L38.6871 57.5049C38.5813 57.9832 38.4645 58.4417 38.3586 58.9157L38.4071 59.0016C39.6306 58.9421 39.9965 58.9421 41.0479 58.9532L41.1692 58.8606C41.3588 57.765 41.4183 57.4696 41.7533 55.8737L41.9231 55.1396C42.2515 53.7002 42.4146 52.975 42.1655 52.382C41.9032 51.7163 41.2728 51.5554 40.6997 51.5554M46.6404 53.0587C45.9923 53.1844 45.5779 53.2593 45.1701 53.3277C44.7601 53.3894 44.3611 53.4467 43.7262 53.5327L43.6777 53.579L43.6358 53.6142C43.5697 54.086 43.5256 54.4872 43.4375 54.9655C43.3515 55.4571 43.2435 56.0192 43.0605 56.8194C42.9172 57.4344 42.8445 57.6482 42.7629 57.8642C42.6858 58.0824 42.5976 58.2963 42.4411 58.8958L42.5116 59.0016C43.098 58.973 43.4771 58.9532 43.8739 58.9487C44.2707 58.9421 44.6785 58.9487 45.3111 58.9532L45.3685 58.9157L45.4258 58.8584C45.5206 58.3117 45.5294 58.1684 45.5867 57.8973C45.6418 57.6129 45.7366 57.2205 45.9724 56.1691C46.0805 55.6643 46.2105 55.1771 46.3251 54.6723C46.4486 54.1609 46.5676 53.6671 46.6844 53.169L46.6646 53.1183L46.6382 53.0565L46.6404 53.0587ZM51.9484 51.5995C51.3466 51.5995 49.9138 51.6612 48.7896 52.6994C47.9938 53.4335 47.6213 54.4475 47.3898 55.4108C47.1672 56.4027 46.9005 58.1772 48.5361 58.8429C49.0475 59.0546 49.7705 59.1141 50.2356 59.1141C51.4392 59.1141 52.667 58.7834 53.584 57.8047C54.3027 57.0133 54.6245 55.8406 54.7325 55.3468C55.105 53.7311 54.8251 52.9838 54.4636 52.5231C53.9081 51.8287 52.9514 51.5995 51.9484 51.5995ZM51.9881 55.2344C51.9396 55.4967 51.7015 56.5107 51.3775 56.9406C51.1571 57.2602 50.8881 57.452 50.5883 57.452C50.5068 57.452 49.9888 57.452 49.9799 56.6849C49.9689 56.3057 50.0483 55.9134 50.1519 55.4879C50.4186 54.2667 50.7559 53.2417 51.5869 53.2417C52.2372 53.2417 52.2791 54.011 51.9903 55.2344M80.5123 58.973C80.6952 57.8907 80.8738 56.837 81.3521 54.7539C81.577 53.7619 81.8195 52.7678 82.0619 51.7846L82.0178 51.6744C80.7085 51.9125 80.3624 51.9654 79.1081 52.1506L79.0067 52.2233C78.9935 52.3225 78.9803 52.4195 78.9692 52.5143C78.7731 52.1968 78.4843 51.9257 78.0434 51.756C77.4923 51.5444 76.1719 51.8331 75.0477 52.8581C74.2608 53.5878 73.875 54.5952 73.6524 55.5563C73.4275 56.5284 73.1586 58.3051 74.7964 58.9421C75.3122 59.1582 75.7818 59.2221 76.2447 59.2045C76.7407 59.178 77.2036 58.9289 77.6312 58.5696C77.5915 58.7173 77.5541 58.8628 77.5144 59.0105L77.5915 59.1008C78.7665 59.0546 79.1258 59.0546 80.3955 59.0568L80.5123 58.973ZM78.5879 54.7385C78.5438 54.9412 78.4953 55.1551 78.4402 55.3975C78.3587 55.7524 78.2661 56.1051 78.1779 56.4578C78.0897 56.6981 77.9861 56.923 77.8715 57.0728C77.6488 57.377 77.1441 57.5644 76.8465 57.5644C76.7649 57.5644 76.2557 57.5644 76.2359 56.8061C76.2315 56.438 76.3108 56.0478 76.4012 55.618C76.6811 54.4276 77.0052 53.4048 77.8406 53.4048C78.3697 53.4048 78.6452 53.8964 78.5857 54.7385M61.5571 51.5554C61.1802 51.5554 60.488 51.648 59.8708 51.9522C59.6504 52.0712 59.4256 52.1968 59.2095 52.3335L59.4079 51.5973L59.2999 51.4738C57.9839 51.7383 57.6973 51.7824 56.4805 51.95L56.3858 52.0183C56.2381 53.1822 56.1168 54.0595 55.5922 56.3586C55.3938 57.1919 55.1932 58.045 54.9794 58.8936L55.0411 58.9994C56.28 58.9399 56.6569 58.9399 57.7304 58.951L57.8296 58.8584C57.9597 58.1552 57.9817 57.9943 58.2771 56.5681C58.4226 55.8891 58.7268 54.4078 58.8745 53.8766C59.1412 53.7553 59.4057 53.6407 59.6724 53.6407C60.2632 53.6407 60.1971 54.1609 60.175 54.3769C60.1464 54.7274 59.9303 55.8803 59.6989 56.8723L59.5534 57.5027C59.4388 57.981 59.3219 58.4395 59.2183 58.9135L59.2624 58.9994C60.4969 58.9399 60.8628 58.9399 61.9076 58.951L62.0377 58.8584C62.2229 57.7628 62.2714 57.4674 62.6152 55.8715L62.7739 55.1374C63.1134 53.698 63.2765 52.9728 63.0297 52.3798C62.7585 51.7141 62.1237 51.5532 61.5571 51.5532M75.3409 50.0895C75.4269 49.7544 75.4842 49.351 75.4842 48.9543C75.4842 48.4208 75.3828 47.916 75.0786 47.506C74.3005 46.4281 72.7773 46.4149 70.9961 46.406L70.1276 46.4149C67.8572 46.4413 66.9556 46.4281 66.5742 46.3796C66.5434 46.5471 66.475 46.8447 66.475 46.8447L65.6683 50.6141C65.6683 50.6141 63.7284 58.6137 63.6358 58.9884C65.6109 58.9664 66.4287 58.9664 66.7594 59.0016C66.8454 58.6247 67.3039 56.3851 67.3039 56.3851C67.3039 56.3851 67.694 54.7517 67.7161 54.6922C67.7161 54.6922 67.8483 54.5246 67.9718 54.4519H68.1525C69.8565 54.4519 71.7875 54.4519 73.3041 53.3497C74.3247 52.5848 75.0257 51.4584 75.3387 50.0917M72.1314 50.3254C71.944 51.1586 71.4062 51.8662 70.7118 52.199C70.1276 52.49 69.4289 52.5143 68.7036 52.5143H68.2319L68.2672 52.3313C68.2672 52.3313 69.1357 48.5729 69.1313 48.5795L69.1577 48.3921L69.1754 48.2423L69.5192 48.2753C69.5192 48.2753 71.2915 48.4252 71.3378 48.4252C72.0388 48.7008 72.3298 49.4083 72.1292 50.3254M90.7581 51.6612L90.6589 51.5466C89.3605 51.8111 89.1246 51.853 87.9343 52.0073L87.8483 52.091C87.8439 52.1043 87.8439 52.1263 87.8351 52.1461L87.8307 52.1241C86.9401 54.1741 86.9732 53.7267 86.2502 55.3358C86.237 55.2653 86.237 55.2146 86.237 55.1418L86.0584 51.659L85.946 51.5444C84.5903 51.8089 84.5528 51.8508 83.303 52.0051L83.1972 52.0888C83.1972 52.1351 83.1884 52.1836 83.1839 52.2255L83.195 52.2475C83.3427 53.0455 83.314 52.867 83.4639 54.1301C83.541 54.7473 83.6402 55.3755 83.713 55.9817C83.8342 57.0089 83.9048 57.5115 84.0569 59.0766C83.2082 60.4631 83.0076 60.9966 82.203 62.22V62.2288L81.6277 63.1392C81.5571 63.234 81.4998 63.2957 81.4139 63.32C81.3235 63.3662 81.2022 63.3839 81.0413 63.3839H80.7195L80.2478 64.949L81.8724 64.9732C82.8268 64.9688 83.4242 64.5257 83.7461 63.9284L84.7645 62.1847H84.7512L84.8548 62.0613C85.5382 60.5866 90.7559 51.6546 90.7559 51.6546M46.6514 51.0307C46.0562 50.6758 45.0334 50.7861 44.3324 51.271C43.6314 51.7472 43.5455 52.4085 44.1362 52.7612C44.7226 53.1094 45.7652 53.008 46.4596 52.5209C47.1496 52.0337 47.2443 51.3658 46.6536 51.0285" fill="white"/>
</g>
<rect x="1" y="1" width="110" height="110" rx="9" stroke="black" stroke-opacity="0.1" stroke-width="2"/>
<defs>
<clipPath id="clip0_505_126">
<rect x="2" y="2" width="108" height="108" rx="8" fill="white"/>
</clipPath>
</defs>
</svg>
