<svg width="112" height="112" viewBox="0 0 112 112" fill="none" xmlns="http://www.w3.org/2000/svg">
<g clip-path="url(#clip0_647_1777)">
<rect x="1.99991" y="2" width="108" height="108" rx="8" fill="white"/>
<path d="M31.6693 12H51.6389C54.424 12 56.1568 14.2725 55.5063 17.0696L46.2095 56.9847C45.556 59.7728 42.7619 62.0453 39.9737 62.0453H20.0072C17.219 62.0453 15.4862 59.7758 16.1368 56.9847L25.4395 17.0696C26.0901 14.2725 28.8752 12 31.6693 12Z" fill="#ED171F"/>
<path d="M49.9751 12H72.9366C75.7218 12 74.4686 14.2725 73.8151 17.0696L64.5153 56.9848C63.8618 59.7729 64.0686 62.0453 61.2745 62.0453H38.3159C35.5248 62.0453 33.798 59.7759 34.4515 56.9848L43.7423 17.0696C44.3988 14.2725 47.184 12 49.9751 12Z" fill="#082F67"/>
<path d="M72.0282 12H91.9917C94.7829 12 96.5157 14.2725 95.8621 17.0696L86.5654 56.9848C85.9118 59.7729 83.1207 62.0453 80.3266 62.0453H60.369C57.5719 62.0453 55.8421 59.7759 56.4986 56.9848L65.7954 17.0696C66.4489 14.2725 69.237 12 72.0312 12" fill="#006A65"/>
<path fill-rule="evenodd" clip-rule="evenodd" d="M68.6915 49.5468H70.5742L71.1169 47.742H69.2371L68.6915 49.5468ZM70.1995 44.5551L69.5519 46.6957C69.5519 46.6957 70.2684 46.3239 70.6522 46.213C71.0359 46.1201 71.6265 46.0481 71.6265 46.0481L72.0822 44.5551H70.1995ZM71.1379 41.4732L70.5113 43.5298C70.5113 43.5298 71.2128 43.215 71.5965 43.1101C71.9833 43.0082 72.5649 42.9722 72.5649 42.9722L73.0176 41.4732H71.1379ZM75.2991 41.4732L72.8647 49.5288H73.5213L73.0146 51.1897H72.361L72.2081 51.7053H69.8937L70.0526 51.1897H65.3428L65.8164 49.6517H66.2931L68.7605 41.4732L69.2521 39.8243H71.6145L71.3687 40.6547C71.3687 40.6547 71.9983 40.2021 72.5949 40.0492C73.1915 39.8903 76.6122 39.8303 76.6122 39.8303L76.1115 41.4732H75.2991Z" fill="white"/>
<path d="M76.3363 39.8303H78.8606L78.8876 40.7747C78.8726 40.9336 79.0075 41.0085 79.3013 41.0085H79.817L79.3463 42.5585H77.9852C76.804 42.6454 76.3573 42.1388 76.3873 41.5661L76.3363 39.8333V39.8303Z" fill="white"/>
<path d="M76.672 47.1903H74.2707L74.6814 45.8083H77.4275L77.8203 44.5521H75.1071L75.5688 42.9932H83.1177L82.644 44.5521H80.1137L79.715 45.8083H82.2543L81.8376 47.1903H79.0914L78.6027 47.772H79.715L79.9848 49.5168C80.0148 49.6877 80.0208 49.7986 80.0748 49.8705C80.1287 49.9365 80.4645 49.9635 80.6594 49.9635H80.9951L80.4795 51.6633H79.6251C79.4901 51.6633 79.2953 51.6543 79.0285 51.6364C78.7706 51.6154 78.5877 51.4625 78.4139 51.3785C78.255 51.3036 78.0211 51.1087 77.9642 50.7849L77.6973 49.0521L76.4472 50.7639C76.0485 51.3036 75.5118 51.7143 74.6094 51.7143H72.8616L73.3173 50.2033H73.9888C74.1777 50.2033 74.3546 50.1284 74.4775 50.0654C74.6034 50.0115 74.7204 49.9455 74.8433 49.7536L76.663 47.1903H76.672Z" fill="white"/>
<path d="M56.7115 43.4129L56.2438 44.9329H53.6955L53.3028 46.228H55.905L55.4313 47.7929H52.8291L52.1995 49.9005C52.1245 50.1314 52.8141 50.1643 53.0659 50.1643L54.367 49.9845L53.8454 51.7173H50.9104C50.6765 51.7173 50.4966 51.6873 50.2418 51.6274C49.993 51.5674 49.8881 51.4565 49.7741 51.2856C49.6692 51.1117 49.5073 50.9738 49.6182 50.611L50.4577 47.8199H49.0126L49.4953 46.228H50.9463L51.3301 44.9329H49.8851L50.3438 43.4129H56.7115Z" fill="white"/>
<path d="M54.6339 40.6817H57.2451L56.7684 42.2707H53.2038L52.8141 42.6034C52.6522 42.7653 52.5922 42.6964 52.3794 42.8163C52.1755 42.9152 51.7528 43.1161 51.2042 43.1161H50.0589L50.5236 41.5871H50.8684C51.1592 41.5871 51.3571 41.5631 51.456 41.4972C51.5669 41.4282 51.6958 41.2633 51.8397 41.0025L52.4933 39.8123H55.0896L54.6339 40.6787V40.6817Z" fill="white"/>
<path fill-rule="evenodd" clip-rule="evenodd" d="M59.6405 43.296C59.6405 43.296 60.354 42.6454 61.5742 42.4296C61.85 42.3756 63.5888 42.3966 63.5888 42.3966L63.8497 41.5242H60.1741L59.6435 43.296H59.6405ZM63.0852 43.9615H59.4396L59.2148 44.693H62.3717C62.7434 44.6481 62.8214 44.702 62.8513 44.684L63.0852 43.9615ZM58.3634 39.8303H60.5849L60.2641 40.9515C60.2641 40.9515 60.9656 40.3939 61.4603 40.1871C61.9489 40.0072 63.0552 39.8393 63.0552 39.8393L66.6558 39.8213L65.4326 43.9046C65.2197 44.6061 64.9859 45.0558 64.833 45.2597C64.6981 45.4725 64.5362 45.6494 64.2244 45.8203C63.9216 45.9822 63.6458 46.0751 63.388 46.0991C63.1541 46.1171 62.7854 46.1291 62.2817 46.1351H58.8161L57.8357 49.3669C57.7458 49.6877 57.6978 49.8376 57.7608 49.9275C57.8147 50.0025 57.9286 50.0924 58.0935 50.0924L59.6225 49.9425L59.1009 51.7143H57.389C56.8464 51.7143 56.4476 51.7053 56.1718 51.6843C55.905 51.6663 55.6322 51.6843 55.4463 51.5404C55.2874 51.4025 55.0446 51.2196 55.0506 51.0248C55.0686 50.8539 55.1405 50.5601 55.2514 50.1614L58.3694 39.8303H58.3634Z" fill="white"/>
<path d="M64.848 46.4199L64.6441 47.4032C64.5542 47.709 64.4792 47.9428 64.2484 48.1407C64.0056 48.3416 63.7178 48.5604 63.0492 48.5604L61.817 48.6114L61.808 49.7176C61.793 50.0324 61.877 50.0025 61.925 50.0504C61.9819 50.1074 62.0329 50.1284 62.0868 50.1494L62.4766 50.1284L63.6548 50.0624L63.1691 51.6843H61.817C60.8697 51.6843 60.1681 51.6603 59.9373 51.4805C59.7094 51.3366 59.6795 51.1537 59.6825 50.8419L59.7694 46.5218H61.928L61.898 47.4032H62.4196C62.5935 47.4032 62.7164 47.3822 62.7914 47.3373C62.8543 47.2863 62.9053 47.2173 62.9383 47.1124L63.1481 46.4199H64.848Z" fill="white"/>
<path d="M34.0317 24.7535C33.9538 25.1012 32.5717 31.4929 32.5657 31.4989C32.2659 32.791 32.0531 33.7174 31.3156 34.311C30.8958 34.6528 30.4072 34.8237 29.8405 34.8237C28.9352 34.8237 28.4015 34.368 28.3086 33.5166L28.2936 33.2198C28.2936 33.2198 28.5694 31.4869 28.5694 31.4779C28.5694 31.4779 30.0264 25.6499 30.2842 24.8824C30.2962 24.8374 30.3022 24.8194 30.3052 24.7924C27.4721 24.8224 26.9715 24.7924 26.9415 24.7535C26.9205 24.8074 26.8456 25.1732 26.8456 25.1732L25.3616 31.7328L25.2326 32.2934L24.9898 34.1132C24.9898 34.6528 25.0947 35.0935 25.3076 35.4652C25.9881 36.6524 27.9158 36.8263 29.0041 36.8263C30.4132 36.8263 31.7323 36.5295 32.6227 35.9869C34.1696 35.0695 34.5774 33.6395 34.9371 32.3683L35.105 31.7208C35.105 31.7208 36.604 25.6648 36.8618 24.8794C36.8648 24.8344 36.8738 24.8164 36.8828 24.7894C34.8352 24.8164 34.2266 24.7894 34.0347 24.7505" fill="white"/>
<path d="M42.3181 36.7664C41.3108 36.7514 40.9601 36.7514 39.7849 36.8083L39.7399 36.7244C39.8448 36.2777 39.9527 35.831 40.0547 35.3843L40.2016 34.7697C40.4174 33.8223 40.6273 32.7161 40.6543 32.3773C40.6753 32.1765 40.7472 31.6698 40.1656 31.6698C39.9228 31.6698 39.6679 31.7867 39.4101 31.9066C39.2722 32.4133 38.9844 33.8343 38.8465 34.4789C38.5587 35.843 38.5407 35.9959 38.4118 36.6764L38.3248 36.7634C37.2935 36.7484 36.9338 36.7484 35.7436 36.8053L35.6866 36.7064C35.8875 35.8969 36.0853 35.0785 36.2772 34.272C36.7749 32.0745 36.8918 31.2321 37.0327 30.1168L37.1286 30.0479C38.2859 29.889 38.5677 29.85 39.8268 29.5982L39.9318 29.7151L39.7399 30.4166C39.9497 30.2877 40.1566 30.1648 40.3725 30.0479C40.9691 29.7601 41.6256 29.6731 41.9884 29.6731C42.54 29.6731 43.1396 29.826 43.3914 30.4616C43.6313 31.0312 43.4754 31.7268 43.1576 33.1088L42.9957 33.8044C42.6749 35.3393 42.6269 35.6211 42.4441 36.6734L42.3271 36.7604L42.3181 36.7664Z" fill="white"/>
<path d="M46.3984 36.7664C45.7928 36.7604 45.4031 36.7514 45.0223 36.7604C44.6416 36.7664 44.2758 36.7844 43.7152 36.8083L43.6822 36.7604L43.6433 36.7094C43.7992 36.1308 43.8861 35.9269 43.961 35.7201C44.036 35.5162 44.1079 35.3093 44.2429 34.7157C44.4197 33.9513 44.5277 33.4116 44.6026 32.9379C44.6806 32.4823 44.7315 32.0955 44.7855 31.6458L44.8365 31.6098L44.8814 31.5679C45.484 31.4839 45.8678 31.43 46.2575 31.373C46.6502 31.313 47.046 31.2351 47.6695 31.1182L47.7115 31.2261C47.5946 31.7058 47.4777 32.1795 47.3608 32.6621C47.2498 33.1418 47.1359 33.6185 47.025 34.0952C46.8031 35.1085 46.7102 35.4832 46.6592 35.7531C46.6083 36.0109 46.5933 36.1518 46.5003 36.6764L46.4494 36.7214L46.3954 36.7634L46.3984 36.7664Z" fill="white"/>
<path d="M52.7901 33.1928C52.7361 33.4506 52.5113 34.4219 52.1995 34.8357C51.9866 35.1385 51.7318 35.3213 51.45 35.3213C51.3691 35.3213 50.8744 35.3213 50.8624 34.5898C50.8564 34.2211 50.9284 33.8463 51.0213 33.4416C51.2851 32.2754 51.6029 31.295 52.3914 31.295C53.0179 31.295 53.0629 32.0206 52.7871 33.1958M55.4133 33.3067C55.7671 31.7657 55.4973 31.0402 55.1495 30.6025C54.6279 29.934 53.7015 29.7211 52.7451 29.7211C52.1665 29.7211 50.7964 29.7781 49.7232 30.7674C48.9557 31.4779 48.5959 32.4463 48.3801 33.3756C48.1672 34.32 47.9124 36.0229 49.4803 36.6524C49.966 36.8593 50.6585 36.9163 51.1082 36.9163C52.2565 36.9163 53.4287 36.6015 54.3101 35.6631C54.9996 34.9016 55.3054 33.7714 55.4133 33.3067Z" fill="white"/>
<path d="M79.9698 36.8683C78.7586 36.8563 78.4079 36.8563 77.2866 36.9043L77.2147 36.8143C77.5235 35.6631 77.8263 34.5119 78.0961 33.3487C78.4468 31.8377 78.5248 31.1991 78.6447 30.3147L78.7377 30.2368C79.9428 30.0659 80.2726 30.0179 81.5318 29.7841L81.5677 29.889C81.3399 30.8394 81.1091 31.7867 80.8872 32.7371C80.4285 34.7277 80.2576 35.7441 80.0807 36.7874L79.9698 36.8713V36.8683Z" fill="white"/>
<path d="M78.15 33.3307C78.0931 33.5795 77.8652 34.5599 77.5534 34.9616C77.3466 35.2524 76.8579 35.4353 76.5761 35.4353C76.4982 35.4353 76.0035 35.4353 75.9855 34.7038C75.9795 34.347 76.0575 33.9692 76.1474 33.5645C76.4142 32.4193 76.726 31.4449 77.5265 31.4449C78.15 31.4449 78.4199 32.1555 78.15 33.3307ZM80.5454 33.4446C80.9022 31.9066 79.4841 33.3067 79.2563 32.803C78.9085 32.0116 79.1274 30.4106 77.7303 29.871C77.1907 29.6641 75.9315 29.934 74.8523 30.9173C74.0968 31.6218 73.728 32.5872 73.5182 33.5106C73.3023 34.4399 73.0505 36.1428 74.6094 36.7544C75.1041 36.9612 75.5538 37.0212 76.0035 37.0032C77.5684 36.9193 78.7646 34.5539 79.643 33.6185C80.3236 32.878 80.4465 33.9003 80.5454 33.4446Z" fill="white"/>
<path d="M62.2757 36.7664C61.2714 36.7514 60.9266 36.7514 59.7454 36.8083L59.7005 36.7244C59.7994 36.2777 59.9133 35.831 60.0182 35.3843L60.1621 34.7697C60.378 33.8223 60.5879 32.7161 60.6118 32.3773C60.6298 32.1765 60.7018 31.6698 60.1262 31.6698C59.8773 31.6698 59.6255 31.7867 59.3707 31.9066C59.2298 32.4133 58.942 33.8343 58.8011 34.4789C58.5193 35.843 58.4953 35.9959 58.3664 36.6764L58.2824 36.7634C57.2481 36.7484 56.8883 36.7484 55.7011 36.8053L55.6472 36.7064C55.8451 35.8969 56.0399 35.0785 56.2288 34.272C56.7295 32.0745 56.8464 31.2321 56.9873 30.1168L57.0802 30.0479C58.2374 29.889 58.5222 29.85 59.7814 29.5982L59.8773 29.7151L59.6945 30.4166C59.8983 30.2877 60.1142 30.1648 60.33 30.0479C60.9146 29.7601 61.5832 29.6731 61.937 29.6731C62.4856 29.6731 63.0912 29.826 63.349 30.4616C63.5858 31.0312 63.427 31.7268 63.1062 33.1088L62.9503 33.8044C62.6235 35.3393 62.5725 35.6211 62.3956 36.6734L62.2697 36.7604L62.2757 36.7664Z" fill="white"/>
<path d="M70.9789 24.7415L70.1454 24.7535C67.9749 24.7774 67.1055 24.7654 66.7457 24.7205C66.7157 24.8794 66.6588 25.1672 66.6588 25.1672C66.6588 25.1672 65.8853 28.7677 65.8853 28.7737C65.8853 28.7737 64.0235 36.4396 63.9336 36.7963C65.8313 36.7784 66.6078 36.7784 66.9316 36.8083C67.0035 36.4486 67.4472 34.311 67.4472 34.311C67.4472 34.311 67.828 32.7371 67.849 32.6771C67.849 32.6771 67.9659 32.5152 68.0828 32.4523H68.2597C69.8936 32.4523 71.7434 32.4523 73.1824 31.382C74.1657 30.6535 74.8403 29.5742 75.1431 28.2701C75.218 27.9463 75.278 27.5626 75.278 27.1818C75.278 26.6812 75.176 26.1835 74.8852 25.7968C74.1447 24.7594 72.6847 24.7505 70.9819 24.7385M72.0701 28.4889C71.8933 29.2864 71.3746 29.9609 70.7091 30.2877C70.1574 30.5665 69.4859 30.5905 68.7903 30.5905H68.3436L68.3766 30.4076C68.3766 30.4076 69.2041 26.8131 69.2011 26.8191L69.225 26.6392L69.243 26.4923L69.5698 26.5313C69.5698 26.5313 71.2757 26.6752 71.3176 26.6812C71.9892 26.936 72.268 27.6105 72.0731 28.4889" fill="white"/>
<path d="M89.8901 29.7751L89.7972 29.6671C88.559 29.913 88.3342 29.958 87.192 30.1049L87.108 30.1918C87.108 30.1918 87.102 30.2278 87.093 30.2428V30.2278C86.2386 32.1854 86.2686 31.7657 85.579 33.3067C85.573 33.2347 85.5731 33.1868 85.5671 33.1148L85.3962 29.7781L85.2882 29.6701C83.9931 29.916 83.9601 29.9609 82.7579 30.1078L82.665 30.1948C82.653 30.2368 82.653 30.2847 82.644 30.3297L82.653 30.3477C82.8029 31.1152 82.7699 30.9413 82.9168 32.1495C82.9888 32.7431 83.0757 33.3427 83.1477 33.9273C83.2676 34.9046 83.3366 35.3903 83.4775 36.8833C82.671 38.2234 82.4731 38.73 81.7057 39.9023L81.7446 40.0102C82.9168 39.9712 83.1867 39.9712 84.0561 39.9712L84.2449 39.7524C84.8985 38.3403 89.8871 29.7781 89.8871 29.7781" fill="white"/>
<path d="M47.4987 30.6025C48.1612 30.1408 48.2482 29.4993 47.6875 29.1725C47.1179 28.8367 46.1286 28.9416 45.46 29.4063C44.7885 29.862 44.7135 30.5036 45.2742 30.8394C45.8348 31.1631 46.8331 31.0642 47.4987 30.6025Z" fill="white"/>
<path d="M84.158 39.8663L83.1807 41.5362C82.8719 42.1088 82.3022 42.5345 81.3939 42.5405L79.8409 42.5165L80.2936 41.0115H80.5964C80.7553 41.0115 80.8722 40.9995 80.9622 40.9575C81.0371 40.9336 81.0971 40.8706 81.16 40.7777L81.7326 39.8663H84.161H84.158Z" fill="white"/>
<path d="M46.4134 83.9606C46.7312 84.3893 46.983 84.863 47.1539 85.3816C47.3278 85.8913 47.4207 86.4399 47.4207 87.0155C47.4207 87.5912 47.3278 88.1398 47.1509 88.6524C46.983 89.1651 46.7312 89.6508 46.4104 90.0735C45.9787 90.6521 46.1046 91.4795 46.6832 91.9142C47.2648 92.343 48.0833 92.223 48.524 91.6354C48.9977 90.9879 49.3874 90.2743 49.6422 89.4979C49.903 88.7184 50.0439 87.885 50.0439 87.0185C50.0439 86.1521 49.903 85.3217 49.6422 84.5422C49.3844 83.7627 48.9977 83.0402 48.524 82.4016C48.0863 81.82 47.2678 81.6941 46.6862 82.1318C46.1076 82.5605 45.9817 83.376 46.4134 83.9636" fill="#231815"/>
<path d="M50.9194 81.5083C51.8997 83.1122 52.4663 84.9979 52.4663 87.0155C52.4663 89.0332 51.8997 90.9159 50.9194 92.5228C50.5296 93.1344 50.7305 93.9499 51.3421 94.3276C51.9567 94.7054 52.7691 94.5135 53.1499 93.8989C54.379 91.8963 55.1015 89.5368 55.0985 87.0155C55.0985 84.4912 54.379 82.1318 53.1499 80.1262C52.7691 79.5086 51.9567 79.3287 51.3421 79.7005C50.7275 80.0842 50.5296 80.8967 50.9194 81.5083Z" fill="#231815"/>
<path d="M55.6862 79.0199C57.0592 81.3613 57.8477 84.0895 57.8477 87.0155C57.8477 89.9416 57.0592 92.6667 55.6832 95.0142C55.3204 95.6407 55.5333 96.4472 56.1568 96.8129C56.7864 97.1877 57.5899 96.9658 57.9586 96.3453C59.5596 93.6111 60.4769 90.4153 60.4769 87.0155C60.4769 83.6158 59.5596 80.429 57.9586 77.6858C57.5899 77.0592 56.7864 76.8464 56.1568 77.2151C55.5333 77.5809 55.3204 78.3783 55.6892 79.0199" fill="#231815"/>
<path d="M60.4499 76.5076C62.2158 79.6075 63.2231 83.1901 63.2231 87.0155C63.2231 90.841 62.2158 94.4176 60.4499 97.5205C60.0902 98.147 60.312 98.9565 60.9416 99.3133C61.5682 99.67 62.3747 99.4512 62.7344 98.8216C64.7221 95.3409 65.8493 91.3027 65.8493 87.0125C65.8493 82.7224 64.7221 78.6871 62.7344 75.2035C62.3776 74.5859 61.5742 74.3521 60.9536 74.7088C60.315 75.0716 60.0932 75.872 60.4529 76.5046" fill="#231815"/>
</g>
<rect x="1" y="1" width="110" height="110" rx="9" stroke="black" stroke-opacity="0.1" stroke-width="2"/>
<defs>
<clipPath id="clip0_647_1777">
<rect x="2" y="2" width="108" height="108" rx="8" fill="white"/>
</clipPath>
</defs>
</svg>
