<svg width="112" height="112" viewBox="0 0 112 112" fill="none" xmlns="http://www.w3.org/2000/svg">
<g clip-path="url(#clip0_647_1775)">
<rect x="1.99994" y="2" width="108" height="108" rx="8" fill="white"/>
<path d="M46.4202 83.8843C46.7377 84.3126 46.9892 84.7857 47.1599 85.3038C47.3336 85.813 47.4265 86.361 47.4265 86.936C47.4265 87.511 47.3337 88.0591 47.157 88.5712C46.9892 89.0833 46.7377 89.5685 46.4172 89.9907C45.986 90.5687 46.1118 91.3953 46.6898 91.8295C47.2708 92.2578 48.0883 92.138 48.5286 91.551C49.0018 90.9041 49.3911 90.1914 49.6456 89.4157C49.9062 88.6371 50.0469 87.8045 50.0469 86.939C50.0469 86.0735 49.9062 85.2439 49.6456 84.4653C49.3881 83.6867 49.0018 82.9649 48.5286 82.327C48.0913 81.746 47.2737 81.6202 46.6928 82.0575C46.1148 82.4857 45.989 83.3003 46.4202 83.8873" fill="#231815"/>
<path d="M50.9244 81.4346C51.9037 83.0368 52.4697 84.9205 52.4697 86.936C52.4697 88.9515 51.9037 90.8323 50.9244 92.4375C50.5351 93.0484 50.7358 93.863 51.3467 94.2403C51.9606 94.6177 52.7722 94.426 53.1526 93.8121C54.3804 91.8116 55.1022 89.4546 55.0992 86.936C55.0992 84.4144 54.3804 82.0575 53.1526 80.054C52.7722 79.437 51.9606 79.2573 51.3467 79.6287C50.7328 80.012 50.5351 80.8236 50.9244 81.4346Z" fill="#231815"/>
<path d="M55.6862 78.9489C57.0578 81.2878 57.8454 84.0131 57.8454 86.936C57.8454 89.8589 57.0578 92.5812 55.6832 94.9261C55.3208 95.5521 55.5334 96.3577 56.1564 96.723C56.7853 97.0974 57.5879 96.8758 57.9562 96.2558C59.5555 93.5246 60.4719 90.3321 60.4719 86.936C60.4719 83.5399 59.5555 80.3564 57.9562 77.6162C57.5879 76.9903 56.7853 76.7776 56.1564 77.146C55.5334 77.5114 55.3208 78.308 55.6892 78.9489" fill="#231815"/>
<path d="M60.4419 76.4392C62.2059 79.5358 63.2121 83.1146 63.2121 86.936C63.2121 90.7574 62.2059 94.3302 60.4419 97.4298C60.0825 98.0557 60.3042 98.8643 60.9331 99.2207C61.559 99.5771 62.3646 99.3585 62.724 98.7296C64.7095 95.2526 65.8356 91.2186 65.8356 86.933C65.8356 82.6474 64.7095 78.6164 62.724 75.1365C62.3676 74.5196 61.565 74.286 60.945 74.6423C60.3072 75.0047 60.0855 75.8043 60.4449 76.4362" fill="#231815"/>
<path d="M31.6678 12H51.6312C54.4314 12 56.1564 14.2761 55.5065 17.0702L46.2076 56.937C45.5548 59.7222 42.7636 61.9923 39.9784 61.9923H20.009C17.2149 61.9923 15.4869 59.7222 16.1368 56.937L25.4326 17.0702C26.0855 14.279 28.8767 12 31.6708 12" fill="#ED171F"/>
<path d="M49.9782 12H72.9363C75.7245 12 74.4697 14.2761 73.8108 17.0702L64.512 56.9371C63.8621 59.7222 64.0657 61.9923 61.2746 61.9923H38.3194C35.5192 61.9923 33.7912 59.7222 34.4471 56.9371L43.737 17.0702C44.3958 14.2791 47.181 12 49.9782 12Z" fill="#082F67"/>
<path d="M72.0258 12H91.9862C94.7804 12 96.5174 14.2761 95.8615 17.0702L86.5626 56.9371C85.9127 59.7222 83.1156 61.9923 80.3244 61.9923H60.367C57.5759 61.9923 55.8419 59.7222 56.4948 56.9371L65.7936 17.0702C66.4435 14.2791 69.2347 12 72.0258 12Z" fill="#006A65"/>
<path d="M35.3725 27.4622C33.2252 27.4861 32.5993 27.4622 32.3956 27.4173C32.3118 27.7796 30.8623 34.4551 30.8623 34.4551C30.5478 35.8087 30.3172 36.773 29.5536 37.384C29.1133 37.7493 28.6012 37.929 28.0112 37.929C27.0649 37.929 26.5108 37.4558 26.412 36.5544L26.403 36.2549C26.403 36.2549 26.6875 34.4461 26.6965 34.4341C26.6965 34.4341 28.2089 28.3546 28.4814 27.552C28.4874 27.5041 28.4964 27.4891 28.5084 27.4652C25.5435 27.4921 25.0194 27.4652 24.9865 27.4203C24.9715 27.4802 24.8877 27.8575 24.8877 27.8575L23.3423 34.7036L23.2046 35.2906L22.953 37.1893C22.953 37.7523 23.0638 38.2075 23.2824 38.6029C23.9982 39.8457 26.0107 40.0224 27.1547 40.0224C28.6222 40.0224 29.9908 39.7139 30.9252 39.1419C32.5424 38.1896 32.9706 36.6982 33.342 35.3745L33.5247 34.6916C33.5247 34.6916 35.094 28.3786 35.3635 27.555C35.3635 27.5071 35.3725 27.4921 35.3845 27.4682M40.7122 32.5593C40.3349 32.5593 39.6431 32.6522 39.0261 32.9576C38.7955 33.0744 38.5799 33.2032 38.3613 33.341L38.559 32.6043L38.4511 32.4815C37.1394 32.748 36.8399 32.7899 35.633 32.9576L35.5372 33.0265C35.3845 34.1915 35.2736 35.066 34.7436 37.366C34.5429 38.1986 34.3333 39.0521 34.1266 39.9026L34.1805 40.0104C35.4384 39.9505 35.8067 39.9505 36.8849 39.9625L36.9777 39.8697C37.1065 39.1659 37.1304 39.0042 37.4389 37.5786C37.5737 36.8988 37.8701 35.4164 38.0199 34.8893C38.2954 34.7695 38.553 34.6527 38.8135 34.6527C39.4185 34.6527 39.3436 35.1738 39.3256 35.3894C39.3017 35.7398 39.0741 36.8928 38.8465 37.8841L38.7027 38.516C38.5979 38.9922 38.4811 39.4534 38.3733 39.9266L38.4212 40.0104C39.6461 39.9505 40.0114 39.9505 41.0626 39.9625L41.1824 39.8697C41.3711 38.7736 41.431 38.4771 41.7664 36.8838L41.9341 36.1501C42.2635 34.7126 42.4253 33.9849 42.1767 33.3919C41.9131 32.727 41.2842 32.5653 40.7092 32.5653M46.6509 34.0687C46.004 34.1945 45.5878 34.2694 45.1805 34.3383C44.7702 34.4011 44.3719 34.458 43.737 34.5449L43.6861 34.5898L43.6441 34.6258C43.5783 35.0989 43.5333 35.4972 43.4465 35.9764C43.3626 36.4676 43.2518 37.0306 43.0691 37.8302C42.9254 38.4441 42.8535 38.6598 42.7696 38.8754C42.6918 39.094 42.6049 39.3066 42.4492 39.9056L42.5211 40.0134C43.1081 39.9835 43.4854 39.9655 43.8837 39.9595C44.279 39.9535 44.6893 39.9595 45.3212 39.9655L45.3781 39.9296L45.435 39.8727C45.5279 39.3276 45.5368 39.1809 45.5967 38.9113C45.6507 38.6268 45.7465 38.2345 45.9831 37.1833C46.0909 36.6802 46.2227 36.192 46.3365 35.6889C46.4593 35.1798 46.579 34.6857 46.6958 34.1855L46.6779 34.1346L46.6509 34.0717V34.0687ZM51.9577 32.6073C51.3558 32.6073 49.9212 32.6672 48.7982 33.7064C48.0016 34.4401 47.6302 35.4553 47.3966 36.4166C47.172 37.4079 46.9055 39.1838 48.5436 39.8487C49.0557 40.0613 49.7775 40.1212 50.2417 40.1212C51.4456 40.1212 52.6735 39.7888 53.5899 38.8125C54.3086 38.0219 54.6291 36.8479 54.7399 36.3538C55.1142 34.7366 54.8327 33.9909 54.4704 33.5297C53.9163 32.8349 52.958 32.6043 51.9547 32.6043M51.9937 36.24C51.9457 36.5035 51.7062 37.5157 51.3827 37.944C51.1611 38.2644 50.8946 38.4561 50.5921 38.4561C50.5112 38.4561 49.9931 38.4561 49.9841 37.6894C49.9722 37.3121 50.053 36.9168 50.1578 36.4945C50.4244 35.2726 50.7598 34.2484 51.5924 34.2484C52.2422 34.2484 52.2842 35.0181 51.9937 36.2429M80.5162 39.9835C80.6989 38.8993 80.8786 37.8482 81.3577 35.7638C81.5824 34.7695 81.8249 33.7782 82.0675 32.7959L82.0226 32.6851C80.7139 32.9247 80.3694 32.9756 79.1146 33.1613L79.0128 33.2362C79.0008 33.335 78.9888 33.4308 78.9739 33.5267C78.7762 33.2092 78.4887 32.9367 78.0485 32.766C77.4974 32.5533 76.1767 32.8438 75.0537 33.8681C74.266 34.5988 73.8797 35.6051 73.6581 36.5664C73.4335 37.5397 73.164 39.3156 74.8021 39.9535C75.3172 40.1691 75.7874 40.232 76.2516 40.2141C76.7487 40.1871 77.2099 39.9385 77.6382 39.5792C77.5993 39.7259 77.5603 39.8727 77.5214 40.0194L77.5993 40.1092C78.7732 40.0613 79.1356 40.0613 80.4024 40.0673L80.5192 39.9835H80.5162ZM78.5935 35.7488C78.5486 35.9525 78.5007 36.1651 78.4468 36.4077C78.3659 36.764 78.2731 37.1144 78.1862 37.4678C78.0964 37.7074 77.9946 37.932 77.8808 38.0818C77.6591 38.3872 77.153 38.5729 76.8565 38.5729C76.7757 38.5729 76.2666 38.5729 76.2486 37.8152C76.2426 37.4469 76.3235 37.0575 76.4133 36.6263C76.6948 35.4344 77.0183 34.4131 77.8538 34.4131C78.3839 34.4131 78.6594 34.9043 78.5995 35.7458M61.5711 32.5623C61.1937 32.5623 60.5019 32.6552 59.885 32.9606C59.6634 33.0774 59.4387 33.2062 59.2231 33.344L59.4208 32.6073L59.313 32.4845C57.9982 32.751 57.7107 32.7929 56.4949 32.9606L56.399 33.0295C56.2523 34.1945 56.1295 35.069 55.6054 37.369C55.4047 38.2016 55.2071 39.0551 54.9945 39.9056L55.0573 40.0134C56.2942 39.9535 56.6715 39.9535 57.7467 39.9655L57.8455 39.8727C57.9743 39.1689 57.9982 39.0072 58.2917 37.5816C58.4385 36.9018 58.741 35.4194 58.8877 34.8923C59.1542 34.7725 59.4208 34.6557 59.6843 34.6557C60.2773 34.6557 60.2084 35.1768 60.1874 35.3924C60.1605 35.7428 59.9419 36.8958 59.7113 37.8871L59.5645 38.519C59.4507 38.9952 59.3339 39.4564 59.2291 39.9296L59.274 40.0134C60.5079 39.9535 60.8733 39.9535 61.9214 39.9655L62.0502 39.8727C62.2329 38.7766 62.2838 38.4801 62.6252 36.8868L62.7839 36.1531C63.1224 34.7156 63.2871 33.9879 63.0415 33.3949C62.772 32.73 62.1341 32.5683 61.5681 32.5683M75.3531 31.1039C75.437 30.7684 75.4969 30.3641 75.4969 29.9688C75.4969 29.4358 75.3951 28.9326 75.0926 28.5193C74.3139 27.4412 72.7896 27.4292 71.0077 27.4203L70.1392 27.4292C67.8661 27.4562 66.9647 27.4412 66.5844 27.3933C66.5544 27.561 66.4855 27.8575 66.4855 27.8575L65.6799 31.628C65.6799 31.628 63.7393 39.6271 63.6465 40.0014C65.62 39.9805 66.4406 39.9805 66.77 40.0134C66.8569 39.6361 67.3151 37.396 67.3151 37.396C67.3151 37.396 67.7044 35.7638 67.7284 35.7039C67.7284 35.7039 67.8601 35.5362 67.9829 35.4613H68.1626C69.8667 35.4613 71.7983 35.4613 73.3137 34.3592C74.3349 33.5925 75.0357 32.4665 75.3502 31.1009M72.1427 31.3345C71.954 32.167 71.418 32.8768 70.7232 33.2062C70.1392 33.4967 69.4414 33.5207 68.7137 33.5207H68.2405L68.2764 33.338C68.2764 33.338 69.1449 29.5795 69.1389 29.5885L69.1659 29.3998L69.1838 29.2501L69.5283 29.283C69.5283 29.283 71.3012 29.4328 71.3461 29.4328C72.0469 29.7083 72.3404 30.4181 72.1367 31.3315M90.7674 32.6672L90.6686 32.5534C89.3718 32.8169 89.1353 32.8588 87.9433 33.0145L87.8565 33.0984C87.8565 33.0984 87.8535 33.1343 87.8415 33.1553L87.8355 33.1343C86.943 35.1828 86.979 34.7366 86.2542 36.3448C86.2423 36.2759 86.2423 36.222 86.2423 36.1501L86.0626 32.6672L85.9488 32.5534C84.5921 32.8169 84.5562 32.8588 83.3074 33.0145L83.2025 33.0984C83.2025 33.1463 83.1936 33.1942 83.1906 33.2362L83.2025 33.2571C83.3493 34.0567 83.3223 33.8771 83.4721 35.1409C83.547 35.7578 83.6488 36.3867 83.7206 36.9916C83.8404 38.0189 83.9123 38.522 84.065 40.0853C83.2145 41.4719 83.0169 42.005 82.2113 43.2298V43.2388L81.6363 44.1492C81.5644 44.2451 81.5075 44.305 81.4236 44.3289C81.3338 44.3768 81.214 44.3918 81.0493 44.3918H80.7288L80.2556 45.9581L81.8788 45.9821C82.8342 45.9791 83.4302 45.5358 83.7536 44.9369L84.7718 43.1939H84.7598L84.8617 43.0711C85.5445 41.5977 90.7644 32.6642 90.7644 32.6642M46.6599 32.0412C46.0639 31.6879 45.0427 31.7957 44.3389 32.2838C43.6381 32.76 43.5513 33.4218 44.1413 33.7722C44.7283 34.1196 45.7704 34.0178 46.4652 33.5327C47.154 33.0475 47.2499 32.3767 46.6599 32.0412Z" fill="white"/>
</g>
<rect x="1" y="1" width="110" height="110" rx="9" stroke="black" stroke-opacity="0.1" stroke-width="2"/>
<defs>
<clipPath id="clip0_647_1775">
<rect x="2" y="2" width="108" height="108" rx="8" fill="white"/>
</clipPath>
</defs>
</svg>
