<svg width="112" height="112" viewBox="0 0 112 112" fill="none" xmlns="http://www.w3.org/2000/svg">
<g clip-path="url(#clip0_505_111)">
<rect x="1.99988" y="2" width="108" height="108" rx="8" fill="white"/>
<path d="M48.3528 57.409L44.3437 68.2218L43.9162 66.0249C42.9172 63.3314 40.7556 60.5048 38.2378 59.3596L41.9062 73.2441L46.2417 73.2419L52.6905 57.409H48.3528Z" fill="#025EA3"/>
<path d="M51.7905 73.2595L54.3533 57.3936H58.4503L55.8853 73.2595H51.7905Z" fill="#025EA3"/>
<path d="M70.7455 57.7859C69.9367 57.4661 68.6586 57.1177 67.075 57.1177C63.023 57.1177 60.1756 59.2717 60.1503 62.3533C60.1239 64.6347 62.1856 65.9085 63.7352 66.6667C65.3342 67.4426 65.8694 67.9405 65.8639 68.635C65.8485 69.6977 64.5836 70.1824 63.4088 70.1824C61.7713 70.1824 60.8987 69.9439 59.5558 69.3537L59.0239 69.101L58.4502 72.6518C59.4085 73.0936 61.1779 73.4771 63.0164 73.4969C67.3167 73.4969 70.1147 71.3682 70.1477 68.0789C70.1653 66.2689 69.0707 64.8985 66.7046 63.7676C65.277 63.0324 64.3935 62.5456 64.4066 61.7994C64.4077 61.1411 65.1474 60.4355 66.7541 60.4355C68.0959 60.4136 69.0597 60.7213 69.8191 61.0455L70.184 61.2279L70.7411 57.7892L70.7455 57.7859Z" fill="#025EA3"/>
<path d="M78.0869 57.4101C77.1055 57.4101 76.3703 57.6892 75.9373 58.7266L69.8566 73.2639H74.1591C74.1591 73.2639 74.8625 71.3077 75.0218 70.878C75.4911 70.878 79.6694 70.8879 80.2661 70.8879C80.3925 71.4407 80.7651 73.2639 80.7651 73.2639H84.5697L81.253 57.4101H78.0869ZM76.1999 67.6339C76.5395 66.7228 77.8319 63.1995 77.8319 63.1995C77.8066 63.2423 78.1682 62.2818 78.377 61.6884L78.6495 63.0566C78.6495 63.0566 79.4364 66.8426 79.6013 67.635L76.1999 67.6339Z" fill="#025EA3"/>
<path d="M40.6248 57.4013H34.0177L33.9793 57.6738C39.1159 58.9882 42.5051 62.2137 43.9162 66.0293L42.4799 58.7376C42.2337 57.7343 41.5139 57.4364 40.6237 57.4013" fill="#F1A535"/>
<path d="M21.6257 53.568H19.0134L16 39.9836L18.887 39.5011L20.9487 50.1315L26.2007 39.6418H28.9734L21.6257 53.568Z" fill="#025EA3"/>
<path d="M35.2102 49.1271H28.9812C28.8109 51.0162 29.6889 51.8394 31.1759 51.8394C32.4221 51.8394 33.5178 51.3767 34.697 50.6338L34.6871 52.5229C33.531 53.246 32.1935 53.7087 30.6264 53.7087C27.9141 53.7087 26.1228 52.1614 26.6602 48.6644C27.1459 45.5092 29.3285 43.6014 31.8605 43.6014C34.7739 43.6014 35.7432 45.7917 35.3201 48.5446C35.2893 48.7457 35.2322 48.9864 35.2102 49.1271ZM31.544 45.2686C30.5791 45.2686 29.6779 46.0324 29.2526 47.6193H33.1101C33.1815 46.1115 32.7089 45.2686 31.5429 45.2686" fill="#025EA3"/>
<path d="M39.2708 47.9413L38.4147 53.5076H36.0036L37.4971 43.8014H39.5467V45.751C40.3643 44.6257 41.4743 43.6816 42.9942 43.6014L43.0074 45.9928C41.4853 46.0939 40.1149 46.8973 39.2708 47.9424" fill="#025EA3"/>
<path d="M42.9757 53.5076L44.4692 43.8014H46.8803L45.3868 53.5076H42.9757ZM45.9462 42.1739C45.1429 42.1739 44.5857 41.6112 44.7099 40.8078C44.8363 39.9836 45.5693 39.4011 46.3726 39.4011C47.176 39.4011 47.7101 39.9836 47.5826 40.8078C47.4584 41.6112 46.7298 42.1739 45.9451 42.1739" fill="#025EA3"/>
<path d="M53.5586 41.1496C52.7344 41.1496 52.2366 41.5112 52.1036 42.375L51.8838 43.8014H53.7323V45.7708H51.5805L50.3892 53.5076H47.9978L49.1891 45.7708H47.7824L48.0857 43.8014H49.4924L49.7496 42.1343C50.0804 39.9847 51.5706 39.1802 53.5597 39.1802C53.9818 39.1802 54.2972 39.2209 54.5323 39.2605L54.551 41.2298C54.3158 41.1903 53.9609 41.1496 53.5586 41.1496Z" fill="#025EA3"/>
<path d="M53.585 53.5076L55.0785 43.8014H57.4897L55.9962 53.5076H53.585ZM56.5555 42.1738C55.7522 42.1738 55.195 41.6112 55.3192 40.8078C55.4456 39.9836 56.1786 39.4011 56.982 39.4011C57.7853 39.4011 58.3194 39.9836 58.1919 40.8078C58.0677 41.6112 57.3391 42.1738 56.5555 42.1738Z" fill="#025EA3"/>
<path d="M66.8387 49.1271H60.6097C60.4394 51.0162 61.3175 51.8394 62.8044 51.8394C64.0506 51.8394 65.1463 51.3767 66.3255 50.6338L66.3156 52.5229C65.1595 53.246 63.8221 53.7087 62.2549 53.7087C59.5426 53.7087 57.7513 52.1614 58.2898 48.6644C58.7755 45.5092 60.9581 43.6014 63.4902 43.6014C66.4035 43.6014 67.3728 45.7917 66.9497 48.5446C66.919 48.7457 66.8618 48.9864 66.8398 49.1271M63.1737 45.2686C62.2088 45.2686 61.3076 46.0324 60.8823 47.6193H64.7408C64.8122 46.1115 64.3397 45.2686 63.1737 45.2686Z" fill="#025EA3"/>
<path d="M73.982 53.5076L73.9886 52.1613C73.1787 52.9856 72.1226 53.7087 70.7763 53.7087C68.7465 53.7087 67.3508 52.202 67.8552 48.926C68.4113 45.3092 70.6488 43.7014 72.8995 43.7014C73.8238 43.7014 74.5436 43.8619 75.0942 44.063L75.8151 39.3813L78.2856 39L76.0525 53.5087H73.9831L73.982 53.5076ZM74.7876 46.0521C74.2282 45.7708 73.7875 45.6301 72.9633 45.6301C71.6973 45.6301 70.6159 46.6555 70.2873 48.7853C69.996 50.6744 70.6642 51.558 71.7291 51.558C72.6138 51.558 73.3765 51.036 74.1436 50.2315L74.7865 46.0521H74.7876Z" fill="#025EA3"/>
<path d="M83.4387 53.5988C82.2969 53.5988 81.3672 53.4153 80.5001 53.112L82.0859 42.8069L83.9563 42.5178L83.2706 46.9775C83.8168 46.4906 84.5773 46.0038 85.5059 46.0038C87.0588 46.0038 88.0984 47.161 87.7181 49.626C87.3016 52.335 85.6312 53.5988 83.4387 53.5988ZM84.785 47.616C84.1761 47.616 83.5651 48.027 83.0244 48.5754L82.5112 51.9086C82.8706 52.046 83.12 52.1064 83.6376 52.1064C84.7949 52.1064 85.6026 51.4064 85.8598 49.7315C86.0774 48.316 85.607 47.616 84.785 47.616Z" fill="#025EA3"/>
<path d="M92.0217 53.9032C91.0887 55.7143 90.1644 56.2781 88.749 56.2781C88.4291 56.2781 88.2511 56.2474 88.0918 56.2023L88.0797 54.6956C88.3138 54.756 88.5654 54.8022 88.916 54.8022C89.449 54.8022 89.9128 54.5593 90.2227 54.0263L90.4645 53.5395L88.916 46.2939L90.8568 46.051L91.7558 51.2866L94.1889 46.1576H96L92.0217 53.9054V53.9032Z" fill="#025EA3"/>
</g>
<rect x="1" y="1" width="110" height="110" rx="9" stroke="black" stroke-opacity="0.1" stroke-width="2"/>
<defs>
<clipPath id="clip0_505_111">
<rect x="2" y="2" width="108" height="108" rx="8" fill="white"/>
</clipPath>
</defs>
</svg>
