<svg width="112" height="112" viewBox="0 0 112 112" fill="none" xmlns="http://www.w3.org/2000/svg">
<g clip-path="url(#clip0_505_128)">
<rect x="1.99991" y="2" width="108" height="108" rx="8" fill="white"/>
<path d="M95.9999 13H15.9999V99.6675H95.9999V13Z" fill="#1434CB"/>
<path d="M94.0008 14.9991H17.9991V69.281H94.0008V14.9991Z" fill="white"/>
<path d="M75.2209 24.8536L60.3098 60.4496H50.5729L43.235 32.0386C42.7881 30.2982 42.4001 29.6515 41.0477 28.9106C38.8252 27.7111 35.168 26.5822 31.9576 25.8884L32.1693 24.8536H47.8447C49.8439 24.8536 51.6431 26.1824 52.0899 28.4755L55.9706 49.0664L65.5546 24.8536H75.2209Z" fill="#1434CB"/>
<path d="M35.9206 92.0592V75.5253H41.965C43.1527 75.5253 44.1993 75.7134 45.093 76.078C45.9867 76.4425 46.6923 77.0187 47.198 77.7949C47.7036 78.571 47.9506 79.5588 47.9506 80.77C47.9506 81.9812 47.7036 82.9573 47.198 83.7334C46.6923 84.4978 45.9985 85.074 45.093 85.4385C44.1875 85.8031 43.1527 85.9912 41.965 85.9912H38.8487V92.0592H35.9088H35.9206ZM41.5299 77.8301H38.8487V83.7922H41.5299C42.6117 83.7922 43.4467 83.5688 44.0229 83.1337C44.5991 82.6868 44.8813 81.9224 44.8813 80.8171C44.8813 79.7117 44.5991 78.9238 44.0229 78.4887C43.4467 78.0536 42.6235 77.8419 41.5299 77.8419V77.8301Z" fill="white"/>
<path d="M48.0799 92.0592L54.2184 75.5253H57.3347L63.4731 92.0592H60.3451L58.7341 87.5317H52.4074L50.7964 92.0592H48.0799ZM53.1248 85.3092H57.9814L55.5943 78.6298H55.5472L53.1365 85.3092H53.1248Z" fill="white"/>
<path d="M68.6238 92.0592V84.8976L62.7911 75.5253H66.0367L70.3642 82.6986H70.4348L74.7152 75.5253H77.3729L71.5402 84.8741V92.0592H68.6238Z" fill="white"/>
</g>
<rect x="1" y="1" width="110" height="110" rx="9" stroke="black" stroke-opacity="0.1" stroke-width="2"/>
<defs>
<clipPath id="clip0_505_128">
<rect x="2" y="2" width="108" height="108" rx="8" fill="white"/>
</clipPath>
</defs>
</svg>
