<svg width="112" height="112" viewBox="0 0 112 112" fill="none" xmlns="http://www.w3.org/2000/svg">
<g clip-path="url(#clip0_647_1774)">
<rect x="1.99991" y="2" width="108" height="108" rx="8" fill="white"/>
<path d="M41.5608 29.161C42.0018 29.7605 42.3532 30.4289 42.5944 31.1455C42.8355 31.8621 42.9665 32.627 42.9665 33.4332C42.9665 34.2394 42.8355 35.0042 42.5944 35.7209C42.3532 36.4375 42.0018 37.1059 41.5608 37.6985C40.9544 38.5116 41.1267 39.6623 41.9398 40.2687C42.7529 40.875 43.9036 40.7028 44.51 39.8897C45.1784 38.987 45.7089 37.981 46.0741 36.8923C46.4393 35.8035 46.6392 34.639 46.6392 33.4332C46.6392 32.2273 46.4393 31.0628 46.0741 29.9741C45.7089 28.8854 45.1784 27.8793 44.51 26.9767C43.9036 26.1636 42.7529 25.9913 41.9398 26.5977C41.1267 27.204 40.9544 28.3479 41.5608 29.1679" fill="#0023A0"/>
<path d="M47.8519 25.7363C49.23 27.9758 50.0225 30.6011 50.0294 33.4263C50.0294 36.2514 49.2369 38.8836 47.8519 41.1162C47.3213 41.9775 47.5901 43.1076 48.4514 43.6451C49.3127 44.1756 50.4428 43.9069 50.9803 43.0456C52.7029 40.248 53.7021 36.9474 53.6952 33.4263C53.6952 29.9052 52.7029 26.6046 50.9803 23.807C50.4497 22.9456 49.3127 22.6769 48.4514 23.2075C47.5901 23.7381 47.3213 24.8681 47.8519 25.7363Z" fill="#0023A0"/>
<path d="M54.5151 22.2497C56.4307 25.5365 57.5332 29.347 57.5332 33.4263C57.5332 37.5124 56.4307 41.3229 54.5151 44.6098C54.0052 45.4849 54.3015 46.608 55.1766 47.1179C56.0518 47.6278 57.1749 47.3315 57.6848 46.4564C59.9243 42.6321 61.2059 38.167 61.2059 33.4263C61.2059 28.6855 59.9243 24.2204 57.6917 20.3961C57.1818 19.521 56.0586 19.2247 55.1835 19.7346C54.3084 20.2445 54.0121 21.3677 54.522 22.2428" fill="#0023A0"/>
<path d="M61.1715 18.7493C63.6383 23.0835 65.044 28.0792 65.044 33.4263C65.044 38.7734 63.6383 43.776 61.1715 48.1033C60.6685 48.9853 60.9785 50.1016 61.8537 50.6046C62.7357 51.1076 63.8588 50.7975 64.355 49.9224C67.125 45.0576 68.7098 39.4211 68.7098 33.4263C68.7098 27.4314 67.125 21.7949 64.355 16.9301C63.8519 16.0481 62.7357 15.7381 61.8537 16.2411C60.9717 16.7441 60.6616 17.8604 61.1646 18.7424" fill="#0023A0"/>
<path d="M23.4729 62.1326H20V60.8785H28.4548V62.1326H24.9613V72.3032H23.466V62.1326H23.4729Z" fill="#5C5C5C"/>
<path d="M33.168 72.3032L33.0509 71.2696H33.0026C32.5479 71.9104 31.6659 72.4892 30.4944 72.4892C28.8338 72.4892 27.9863 71.3178 27.9863 70.1326C27.9863 68.1481 29.7503 67.0663 32.9199 67.0801V66.9078C32.9199 66.2325 32.7339 65.0129 31.0526 65.0129C30.2877 65.0129 29.4953 65.2472 28.9165 65.6262L28.5789 64.6408C29.2541 64.1998 30.2395 63.9104 31.2731 63.9104C33.7813 63.9104 34.3945 65.6193 34.3945 67.2661V70.3324C34.3945 71.0422 34.429 71.7381 34.5324 72.2963H33.1749L33.168 72.3032ZM32.9475 68.1137C31.3213 68.0792 29.4746 68.3686 29.4746 69.9604C29.4746 70.925 30.1155 71.3867 30.8803 71.3867C31.9484 71.3867 32.6236 70.7114 32.8648 70.0155C32.9131 69.8639 32.9475 69.6916 32.9475 69.54V68.1137Z" fill="#5C5C5C"/>
<path d="M36.7994 66.7769C36.7994 65.7226 36.7649 64.882 36.7305 64.0964H38.0672L38.1361 65.5021H38.1706C38.7839 64.503 39.7485 63.9104 41.0853 63.9104C43.0698 63.9104 44.5582 65.5917 44.5582 68.0792C44.5582 71.0284 42.7597 72.4892 40.8304 72.4892C39.7485 72.4892 38.7976 72.0138 38.3015 71.2007H38.2671V75.6589H36.7925V66.7769H36.7994ZM38.274 68.9612C38.274 69.1817 38.3084 69.3884 38.3429 69.5745C38.6116 70.6081 39.5143 71.3178 40.5823 71.3178C42.1603 71.3178 43.0767 70.0293 43.0767 68.1481C43.0767 66.5013 42.2154 65.0956 40.6374 65.0956C39.6176 65.0956 38.6736 65.826 38.3842 66.9423C38.336 67.1283 38.2808 67.3488 38.2808 67.5555V68.9612H38.274Z" fill="#5C5C5C"/>
<path d="M51.8347 61.7467V64.1033H53.9708V65.2403H51.8347V69.6641C51.8347 70.6839 52.1241 71.2558 52.951 71.2558C53.3437 71.2558 53.6263 71.2076 53.8123 71.1524L53.8812 72.2687C53.5918 72.3858 53.137 72.4685 52.5582 72.4685C51.8623 72.4685 51.3041 72.248 50.9458 71.8415C50.5186 71.4005 50.367 70.6701 50.367 69.7054V65.2334H49.0991V64.0964H50.367V62.1326L51.8278 61.7398L51.8347 61.7467Z" fill="#5C5C5C"/>
<path d="M62.9906 68.1343C62.9906 71.1662 60.889 72.4892 58.9045 72.4892C56.6857 72.4892 54.9699 70.863 54.9699 68.2721C54.9699 65.5297 56.7684 63.9173 59.0354 63.9173C61.3024 63.9173 62.9837 65.6261 62.9837 68.1343H62.9906ZM56.479 68.217C56.479 70.0155 57.5126 71.3729 58.9734 71.3729C60.4342 71.3729 61.4678 70.0361 61.4678 68.1895C61.4678 66.7976 60.7718 65.0404 59.0078 65.0404C57.2438 65.0404 56.479 66.6666 56.479 68.2239V68.217Z" fill="#5C5C5C"/>
<path d="M68.4687 66.7769C68.4687 65.7226 68.4342 64.882 68.3998 64.0964H69.7365L69.8054 65.5021H69.8399C70.4532 64.503 71.4179 63.9104 72.7546 63.9104C74.7391 63.9104 76.2275 65.5917 76.2275 68.0792C76.2275 71.0284 74.4291 72.4892 72.4997 72.4892C71.4178 72.4892 70.4669 72.0138 69.9708 71.2007H69.9364V75.6589H68.4618V66.7769H68.4687ZM69.9433 68.9612C69.9433 69.1817 69.9777 69.3884 70.0122 69.5745C70.2809 70.6081 71.1836 71.3178 72.2516 71.3178C73.8296 71.3178 74.746 70.0293 74.746 68.1481C74.746 66.5013 73.8847 65.0956 72.3067 65.0956C71.2869 65.0956 70.3429 65.826 70.0535 66.9423C70.0053 67.1283 69.9501 67.3488 69.9501 67.5555V68.9612H69.9433Z" fill="#5C5C5C"/>
<path d="M82.6564 72.3032L82.5393 71.2696H82.4911C82.0363 71.9104 81.1543 72.4892 79.9829 72.4892C78.3223 72.4892 77.4747 71.3178 77.4747 70.1326C77.4747 68.1481 79.2387 67.0663 82.4084 67.0801V66.9078C82.4084 66.2325 82.2223 65.0129 80.541 65.0129C79.7762 65.0129 78.9837 65.2472 78.4049 65.6262L78.0673 64.6408C78.7426 64.1998 79.7279 63.9104 80.7615 63.9104C83.2697 63.9104 83.883 65.6193 83.883 67.2661V70.3324C83.883 71.0422 83.9174 71.7381 84.0208 72.2963H82.6633L82.6564 72.3032ZM82.436 68.1137C80.8098 68.0792 78.9631 68.3686 78.9631 69.9604C78.9631 70.925 79.6039 71.3867 80.3688 71.3867C81.4368 71.3867 82.1121 70.7114 82.3533 70.0155C82.4015 69.8639 82.436 69.6916 82.436 69.54V68.1137Z" fill="#5C5C5C"/>
<path d="M86.7219 64.1033L88.5204 68.9543C88.7064 69.4987 88.9131 70.1395 89.044 70.6287H89.0785C89.2301 70.1395 89.4024 69.5125 89.6022 68.9199L91.2284 64.1033H92.8063L90.5669 69.9535C89.4988 72.7648 88.7684 74.205 87.7555 75.087C87.0251 75.7278 86.2947 75.9828 85.9226 76.0517L85.5505 74.7976C85.9226 74.6804 86.4118 74.4393 86.8528 74.0672C87.2594 73.7433 87.7693 73.1714 88.1069 72.4065C88.1758 72.2549 88.2241 72.1378 88.2241 72.0482C88.2241 71.9586 88.1896 71.8484 88.1207 71.6554L85.0888 64.0964H86.715L86.7219 64.1033Z" fill="#5C5C5C"/>
<path d="M25.106 87.118C25.106 86.0637 25.0715 85.2231 25.0371 84.4375H26.3739L26.4428 85.8432H26.4772C27.0905 84.8441 28.0552 84.2515 29.3919 84.2515C31.3764 84.2515 32.8648 85.9328 32.8648 88.4203C32.8648 91.3695 31.0664 92.8303 29.137 92.8303C28.0552 92.8303 27.1043 92.3549 26.6081 91.5418H26.5737V96H25.0991V87.118H25.106ZM26.5806 89.3023C26.5806 89.5228 26.615 89.7295 26.6495 89.9156C26.9182 90.9492 27.8209 91.6589 28.8889 91.6589C30.4669 91.6589 31.3833 90.3704 31.3833 88.4892C31.3833 86.8424 30.522 85.4367 28.9441 85.4367C27.9242 85.4367 26.9802 86.1671 26.6908 87.2834C26.6426 87.4694 26.5875 87.6899 26.5875 87.8897V89.2954L26.5806 89.3023Z" fill="#5C5C5C"/>
<path d="M34.746 87.0009C34.746 86.0362 34.7253 85.2024 34.6771 84.4444H35.9794L36.0276 86.0568H36.0965C36.4686 84.9543 37.3644 84.2584 38.3704 84.2584C38.5427 84.2584 38.6598 84.2722 38.7976 84.3066V85.7123C38.6461 85.6779 38.4945 85.6641 38.2877 85.6641C37.2335 85.6641 36.4893 86.4634 36.2895 87.5797C36.255 87.7795 36.2206 88.0207 36.2206 88.2756V92.6512H34.746V87.0009Z" fill="#5C5C5C"/>
<path d="M40.9337 88.8131C40.9682 90.832 42.2567 91.6589 43.7451 91.6589C44.8132 91.6589 45.454 91.4729 46.019 91.2317L46.274 92.2997C45.7503 92.534 44.8476 92.8096 43.5453 92.8096C41.0164 92.8096 39.5143 91.149 39.5143 88.6753C39.5143 86.2015 40.9751 84.2515 43.3592 84.2515C46.0397 84.2515 46.7494 86.6081 46.7494 88.1171C46.7494 88.4203 46.715 88.6615 46.7012 88.8131H40.9337ZM45.3093 87.745C45.3231 86.7941 44.9165 85.3195 43.2421 85.3195C41.733 85.3195 41.0715 86.7114 40.9544 87.745H45.3093Z" fill="#5C5C5C"/>
<path d="M48.7546 92.6443V85.5745H47.6039V84.4375H48.7546V84.0448C48.7546 82.894 49.0095 81.8398 49.7055 81.1783C50.2636 80.6339 51.0078 80.4134 51.7038 80.4134C52.2275 80.4134 52.6891 80.5306 52.9716 80.6477L52.7718 81.7984C52.5513 81.6951 52.2481 81.6124 51.8209 81.6124C50.553 81.6124 50.2292 82.7287 50.2292 83.9828V84.4238H52.2137V85.5607H50.2292V92.6305H48.7546V92.6443Z" fill="#5C5C5C"/>
<path d="M54.1431 88.8131C54.1775 90.832 55.4661 91.6589 56.9544 91.6589C58.0225 91.6589 58.6633 91.4729 59.2283 91.2317L59.4833 92.2997C58.9596 92.534 58.0569 92.8096 56.7546 92.8096C54.2257 92.8096 52.7236 91.149 52.7236 88.6753C52.7236 86.2015 54.1844 84.2515 56.5686 84.2515C59.249 84.2515 59.9587 86.6081 59.9587 88.1171C59.9587 88.4203 59.9243 88.6615 59.9105 88.8131H54.1431ZM58.5186 87.745C58.5324 86.7941 58.1258 85.3195 56.4514 85.3195C54.9424 85.3195 54.2809 86.7114 54.1637 87.745H58.5186Z" fill="#5C5C5C"/>
<path d="M61.8054 87.0009C61.8054 86.0362 61.7848 85.2024 61.7365 84.4444H63.0388L63.0871 86.0568H63.156C63.5281 84.9543 64.4239 84.2584 65.4299 84.2584C65.6022 84.2584 65.7193 84.2722 65.8571 84.3066V85.7123C65.7055 85.6779 65.5539 85.6641 65.3472 85.6641C64.2929 85.6641 63.5488 86.4634 63.3489 87.5797C63.3145 87.7795 63.28 88.0207 63.28 88.2756V92.6512H61.8054V87.0009Z" fill="#5C5C5C"/>
<path d="M67.4695 87.0009C67.4695 86.0362 67.4488 85.2024 67.4006 84.4444H68.7029L68.7512 86.0568H68.8201C69.1922 84.9543 70.088 84.2584 71.094 84.2584C71.2662 84.2584 71.3834 84.2722 71.5212 84.3066V85.7123C71.3696 85.6779 71.218 85.6641 71.0113 85.6641C69.957 85.6641 69.2128 86.4634 69.013 87.5797C68.9786 87.7795 68.9441 88.0207 68.9441 88.2756V92.6512H67.4695V87.0009Z" fill="#5C5C5C"/>
<path d="M73.6504 88.8131C73.6849 90.832 74.9734 91.6589 76.4618 91.6589C77.5298 91.6589 78.1707 91.4729 78.7357 91.2317L78.9906 92.2997C78.4669 92.534 77.5643 92.8096 76.2619 92.8096C73.7331 92.8096 72.2309 91.149 72.2309 88.6753C72.2309 86.2015 73.6917 84.2515 76.0759 84.2515C78.7564 84.2515 79.4661 86.6081 79.4661 88.1171C79.4661 88.4203 79.4316 88.6615 79.4179 88.8131H73.6504ZM78.026 87.745C78.0397 86.7941 77.6332 85.3195 75.9588 85.3195C74.4497 85.3195 73.7882 86.7114 73.6711 87.745H78.026Z" fill="#5C5C5C"/>
<path d="M88.4032 90.5289C88.4032 91.2593 88.417 92.0861 88.4721 92.6443H87.1353L87.0664 91.2179H87.032C86.5772 92.1344 85.5712 92.8303 84.2344 92.8303C82.2499 92.8303 80.7271 91.149 80.7271 88.6615C80.7133 85.9328 82.4084 84.2515 84.4067 84.2515C85.6608 84.2515 86.5083 84.8441 86.8804 85.5056H86.9148V80.6064H88.4032V90.5289ZM86.9148 87.7795C86.9148 87.5935 86.8942 87.3385 86.8459 87.1524C86.6254 86.2015 85.8124 85.4229 84.6961 85.4229C83.1526 85.4229 82.2361 86.7803 82.2361 88.5926C82.2361 90.2532 83.0492 91.6245 84.6616 91.6245C85.6608 91.6245 86.5772 90.963 86.8459 89.8467C86.8942 89.6469 86.9148 89.4401 86.9148 89.2059V87.7795Z" fill="#5C5C5C"/>
</g>
<rect x="1" y="1" width="110" height="110" rx="9" stroke="black" stroke-opacity="0.1" stroke-width="2"/>
<defs>
<clipPath id="clip0_647_1774">
<rect x="2" y="2" width="108" height="108" rx="8" fill="white"/>
</clipPath>
</defs>
</svg>
