<svg width="112" height="112" viewBox="0 0 112 112" fill="none" xmlns="http://www.w3.org/2000/svg">
<g clip-path="url(#clip0_505_112)">
<rect x="1.99988" y="2" width="108" height="108" rx="8" fill="white"/>
<path d="M46.3718 35.4717L35.8925 60.4499H29.0634L23.916 40.496C23.6084 39.2656 23.3418 38.8144 22.378 38.3017C20.8194 37.4609 18.256 36.6816 16.0001 36.1894L16.1642 35.4717H27.1562C28.5507 35.4717 29.8222 36.3945 30.1298 38.0146L32.8573 52.4724L39.5838 35.4717H46.3718ZM73.1342 52.2879C73.1547 45.6844 64.0083 45.3358 64.0698 42.3827C64.0698 41.4804 64.9312 40.537 66.8179 40.291C67.7407 40.1679 70.2836 40.0859 73.1957 41.3984L74.3236 36.1074C72.7651 35.5537 70.7758 35 68.2739 35C61.896 35 57.3844 38.4043 57.3639 43.2645C57.3229 46.8534 60.5631 48.8631 63.024 50.0526C65.5464 51.283 66.3872 52.0623 66.3872 53.1492C66.3667 54.8308 64.3775 55.5691 62.5113 55.5896C59.2711 55.6511 57.3844 54.7078 55.8668 54.031L54.6979 59.5065C56.1949 60.2038 58.984 60.7985 61.8755 60.8395C68.6635 60.8395 73.0932 57.4763 73.1342 52.2879ZM89.9914 60.4499H95.9796L90.7707 35.4717H85.2542C84.0237 35.4717 82.9778 36.1894 82.5061 37.2968L72.8061 60.4499H79.5941L80.9476 56.7175H89.2326L90.0119 60.4499H89.9914ZM82.7933 51.5906L86.1975 42.2187L88.1662 51.5906H82.7933ZM55.6002 35.4717L50.2478 60.4499H43.7879L49.1403 35.4717H55.6002Z" fill="#1434CB"/>
<path d="M47.0896 69.3297C47.0896 68.8375 47.2126 68.4273 47.4382 68.1197C47.6638 67.7916 47.9919 67.566 48.4021 67.402C48.7917 67.2379 49.2429 67.1559 49.7351 67.1559C50.3093 67.1559 50.7809 67.2174 51.1296 67.3404C51.4782 67.4635 51.7448 67.5865 51.9089 67.7096L51.9909 68.735H51.9704C51.8063 68.5914 51.6012 68.4684 51.3552 68.3453C51.1091 68.2223 50.8425 68.1402 50.5554 68.0582C50.2683 67.9967 49.9811 67.9557 49.7146 67.9557C49.2224 67.9557 48.8327 68.0377 48.5251 68.2223C48.2175 68.4068 48.0534 68.6939 48.0534 69.1246C48.0534 69.4527 48.1355 69.7193 48.279 69.9039C48.4226 70.0884 48.6482 70.232 48.9353 70.3345C49.2224 70.4371 49.5505 70.5601 49.9401 70.6627C50.2888 70.7652 50.6169 70.8677 50.9245 70.9703C51.2321 71.0728 51.5192 71.1959 51.7448 71.3599C51.9704 71.524 52.1755 71.7291 52.2985 71.9957C52.4421 72.2623 52.5036 72.5904 52.5036 73.0005C52.5036 73.7798 52.237 74.354 51.7243 74.7642C51.2116 75.1743 50.4938 75.3589 49.571 75.3589C49.1198 75.3589 48.6482 75.2974 48.1765 75.1743C47.7048 75.0513 47.3357 74.8667 47.0281 74.6616L46.9665 73.6157H47.0076C47.3562 73.9029 47.7663 74.1284 48.2175 74.2925C48.6892 74.4566 49.1608 74.5386 49.6325 74.5386C50.8835 74.5386 51.4987 74.0874 51.4987 73.2056C51.4987 72.8775 51.4167 72.6314 51.2731 72.4263C51.1296 72.2417 50.904 72.0777 50.6169 71.9546C50.3298 71.8316 49.9606 71.7085 49.5505 71.606C49.2224 71.524 48.8942 71.4214 48.6071 71.3189C48.2995 71.2164 48.0329 71.0728 47.8073 70.9088C47.5818 70.7447 47.3972 70.5396 47.2742 70.273C47.1511 70.0064 47.0691 69.6783 47.0691 69.2887" fill="#1434CB"/>
<path d="M53.8366 67.9146C53.8366 67.7506 53.8981 67.6275 54.0006 67.525C54.1032 67.4225 54.2467 67.3815 54.4108 67.3815C54.5748 67.3815 54.7184 67.4225 54.8209 67.525C54.9235 67.6275 54.985 67.7506 54.985 67.9146C54.985 68.0787 54.9235 68.2018 54.8209 68.3043C54.6979 68.4068 54.5748 68.4478 54.4108 68.4478C54.2467 68.4478 54.1032 68.4068 54.0006 68.3043C53.8981 68.2018 53.8366 68.0787 53.8366 67.9146ZM54.8825 75.2769H53.9596V69.3707H54.8825V75.2769Z" fill="#1434CB"/>
<path d="M60.2144 74.3335C60.8091 74.3335 61.2193 74.4361 61.4654 74.6616C61.691 74.8872 61.814 75.2153 61.814 75.646C61.814 76.1792 61.5679 76.5893 61.0552 76.8764C60.5425 77.1636 59.7633 77.3071 58.7174 77.3071C58.1842 77.3071 57.6715 77.2661 57.1998 77.1636C56.7076 77.0815 56.318 76.9585 56.0514 76.7944L55.9899 75.9536C56.2154 76.1177 56.5436 76.2612 57.0152 76.4253C57.4869 76.5688 58.0406 76.6509 58.7174 76.6509C59.5172 76.6509 60.0914 76.5688 60.44 76.4253C60.7886 76.2817 60.9527 76.0561 60.9527 75.7485C60.9527 75.523 60.8912 75.3794 60.7681 75.2974C60.6451 75.2153 60.44 75.1743 60.1119 75.1743H57.692C57.2613 75.1743 56.9332 75.0923 56.6666 74.9282C56.4205 74.7642 56.2975 74.4976 56.2975 74.1284C56.2975 73.8618 56.4 73.6363 56.6051 73.4517C56.8102 73.2671 57.0768 73.1646 57.4049 73.1031C57.0973 72.898 56.8512 72.6519 56.6666 72.3443C56.5026 72.0367 56.4 71.688 56.4 71.2984C56.4 70.9088 56.482 70.5396 56.6871 70.232C56.8717 69.9244 57.1383 69.6578 57.4869 69.4732C57.8355 69.2887 58.2457 69.1861 58.7174 69.1861C59.0455 69.1861 59.3531 69.2271 59.6197 69.3297C59.8863 69.4322 60.1324 69.5553 60.317 69.7193H60.3375C60.399 69.6168 60.5015 69.5142 60.6656 69.4527C60.8091 69.3912 60.9937 69.3297 61.1578 69.3092C61.3423 69.2681 61.4859 69.2681 61.6294 69.2681H61.9576L61.8755 70.0884L60.5425 69.9859C60.8707 70.355 61.0347 70.8062 61.0347 71.3189C61.0347 71.7291 60.9322 72.0777 60.7476 72.4058C60.5631 72.7339 60.2965 72.98 59.9478 73.1646C59.5992 73.3492 59.189 73.4312 58.7174 73.4312C58.5328 73.4312 58.3482 73.4312 58.1842 73.4312C58.0201 73.4312 57.8971 73.4312 57.8355 73.4312C57.5895 73.4312 57.3844 73.4722 57.2203 73.5542C57.0563 73.6363 56.9947 73.7593 56.9947 73.9439C56.9947 74.1284 57.0563 74.2515 57.1998 74.313C57.3229 74.3745 57.4869 74.4155 57.692 74.4155H60.1939L60.2144 74.3335ZM58.7379 69.8834C58.2867 69.8834 57.9381 70.0064 57.6715 70.2525C57.4254 70.4986 57.2818 70.8472 57.2818 71.2984C57.2818 71.7496 57.4049 72.1392 57.6715 72.3648C57.9381 72.5904 58.2867 72.7339 58.7379 72.7339C59.189 72.7339 59.5377 72.6109 59.8043 72.3648C60.0709 72.1187 60.1939 71.7701 60.1939 71.2984C60.1939 70.8267 60.0709 70.4986 59.8043 70.2525C59.5377 70.0064 59.189 69.8834 58.7379 69.8834Z" fill="#1434CB"/>
<path d="M65.9155 69.2066C66.5513 69.2066 67.0639 69.3707 67.4126 69.6988C67.7817 70.0269 67.9663 70.5396 67.9663 71.2369V75.2564H67.0434V71.483C67.0434 70.9908 66.9409 70.6216 66.7358 70.3756C66.5308 70.1295 66.1411 70.0064 65.5669 70.0064C65.2388 70.0064 64.9312 70.0679 64.6851 70.2115C64.4185 70.355 64.1929 70.5396 64.0493 70.7857C63.8853 71.0318 63.8237 71.3189 63.8237 71.647V75.2769H62.9009V69.3707H63.7827V70.6216H63.8443C63.9673 70.2935 64.1314 70.0269 64.3569 69.8013C64.5825 69.5963 64.8491 69.4527 65.1157 69.3502C65.4028 69.2681 65.6694 69.2066 65.9565 69.2066" fill="#1434CB"/>
<path d="M69.7094 70.6627L69.812 69.7603C70.0375 69.5963 70.3041 69.4732 70.6528 69.3707C70.9809 69.2681 71.35 69.2066 71.7602 69.2066C72.519 69.2066 73.0932 69.3502 73.4623 69.6578C73.8314 69.9654 74.016 70.4576 74.016 71.1548V75.2769H73.1342V74.1489H73.0932C72.9496 74.5796 72.7035 74.9077 72.3754 75.1128C72.0473 75.3179 71.6576 75.4204 71.1655 75.4204C70.8373 75.4204 70.5297 75.3589 70.2631 75.2358C69.9965 75.1128 69.7709 74.9282 69.6069 74.6821C69.4428 74.4361 69.3608 74.1284 69.3608 73.7388C69.3608 73.3491 69.4428 73.0415 69.6069 72.816C69.7709 72.5904 69.9965 72.4058 70.2836 72.2828C70.5707 72.1597 70.9194 72.0572 71.3295 71.9957C71.8217 71.9136 72.2113 71.8316 72.4985 71.7701C72.7856 71.7085 72.9906 71.606 73.1137 71.483V71.2164C73.1137 70.7857 73.0111 70.4781 72.8061 70.273C72.601 70.0679 72.2319 69.9859 71.6987 69.9859C71.35 69.9859 71.0014 70.0474 70.6733 70.1705C70.3246 70.2935 70.0375 70.4781 69.7504 70.7037H69.7299L69.7094 70.6627ZM73.0727 73.2876V72.0572C72.9701 72.1597 72.7651 72.2417 72.4779 72.3033C72.1908 72.3648 71.8422 72.4468 71.4321 72.5288C71.0834 72.5904 70.7963 72.6929 70.5707 72.8365C70.3452 72.98 70.2426 73.2671 70.2426 73.6568C70.2426 74.0054 70.3452 74.272 70.5502 74.4566C70.7553 74.6206 71.0424 74.7027 71.4116 74.7027C71.7807 74.7027 72.0678 74.6206 72.3139 74.4771C72.56 74.3335 72.765 74.1489 72.8881 73.9234C73.0111 73.6978 73.0932 73.4927 73.0932 73.2671" fill="#1434CB"/>
<path d="M76.9896 73.6773C76.9896 74.0464 77.0716 74.313 77.2357 74.4361C77.3998 74.5591 77.6048 74.6206 77.8714 74.6206C78.1175 74.6206 78.3226 74.6001 78.4867 74.5591C78.6507 74.5181 78.7943 74.4771 78.9173 74.4155H78.9378L78.8558 75.1948C78.7533 75.2564 78.5892 75.2974 78.3841 75.3384C78.1791 75.3794 77.974 75.3999 77.7484 75.3999C77.2152 75.3999 76.805 75.2769 76.5179 75.0308C76.2103 74.7847 76.0668 74.3745 76.0668 73.8003V70.109H74.9799L75.1029 69.4937L76.0668 69.3502V68.0787L77.0101 67.9352V69.3092H78.8148L78.6917 70.0885H76.9896V73.6773Z" fill="#1434CB"/>
<path d="M82.3831 74.6001C82.7112 74.6001 82.9983 74.5386 83.2649 74.395C83.5315 74.272 83.7571 74.0669 83.9007 73.8208C84.0647 73.5747 84.1467 73.2876 84.1467 72.9595V69.3297H85.0696V75.2358H84.1878V73.9849H84.1467C84.0237 74.313 83.8596 74.6001 83.6341 74.8052C83.4085 75.0103 83.1624 75.1538 82.8753 75.2564C82.5882 75.3589 82.3216 75.3999 82.055 75.3999C81.4192 75.3999 80.9065 75.2358 80.5374 74.9077C80.1683 74.5796 79.9837 74.0464 79.9837 73.3492V69.3297H80.9066V73.1236C80.9066 73.6363 81.0091 73.9849 81.2142 74.231C81.4192 74.4566 81.8089 74.5796 82.3626 74.5796" fill="#1434CB"/>
<path d="M89.2121 70.1705C88.7404 70.1705 88.3918 70.314 88.1252 70.6011C87.8586 70.8882 87.7356 71.3189 87.7356 71.9136V75.2564H86.8127V69.3502H87.6946V70.5806H87.7356C87.8791 70.0679 88.1047 69.6988 88.4123 69.4937C88.7404 69.2887 89.0891 69.1861 89.4582 69.1861C89.5607 69.1861 89.6633 69.1861 89.7453 69.1861C89.8478 69.1861 89.9094 69.2066 89.9504 69.2271L89.8273 70.232H89.7863C89.7863 70.232 89.6428 70.191 89.5402 70.1705C89.4377 70.15 89.3147 70.1295 89.1711 70.1295" fill="#1434CB"/>
<path d="M93.6007 74.6616C94.1339 74.6616 94.5646 74.6001 94.8927 74.4771C95.2208 74.354 95.5284 74.1695 95.795 73.9644L95.713 74.8052C95.5489 74.9487 95.2618 75.0923 94.8927 75.2153C94.5236 75.3589 94.0724 75.4204 93.5187 75.4204C92.924 75.4204 92.3908 75.2974 91.9396 75.0308C91.4884 74.7642 91.1398 74.395 90.8937 73.9234C90.6476 73.4517 90.5246 72.9185 90.5246 72.3238C90.5246 71.7291 90.6476 71.1959 90.8937 70.7242C91.1398 70.2525 91.4884 69.8834 91.8986 69.6168C92.3293 69.3502 92.8214 69.2066 93.3546 69.2066C93.9699 69.2066 94.4826 69.3092 94.8722 69.5347C95.2618 69.7603 95.5489 70.0679 95.713 70.4576C95.8976 70.8472 95.9796 71.3189 95.9796 71.8316C95.9796 71.8931 95.9796 71.9957 95.9796 72.0777C95.9796 72.1802 95.9796 72.2622 95.9386 72.3443H91.4679C91.4679 72.3443 91.4679 72.3443 91.4679 72.3648C91.4679 72.3648 91.4679 72.3648 91.4679 72.3853C91.4679 73.0826 91.673 73.6363 92.0627 74.0464C92.4318 74.4566 92.9445 74.6616 93.6007 74.6616ZM93.3751 69.9244C92.8419 69.9244 92.4318 70.0884 92.1037 70.3961C91.7756 70.7242 91.591 71.1548 91.509 71.7291H95.0773V71.6265C95.0773 71.2779 95.0363 70.9703 94.9132 70.7242C94.8107 70.4781 94.6261 70.273 94.38 70.1295C94.1339 69.9859 93.7853 69.9244 93.3546 69.9244" fill="#1434CB"/>
</g>
<rect x="1" y="1" width="110" height="110" rx="9" stroke="black" stroke-opacity="0.1" stroke-width="2"/>
<defs>
<clipPath id="clip0_505_112">
<rect x="2" y="2" width="108" height="108" rx="8" fill="white"/>
</clipPath>
</defs>
</svg>
