<svg width="112" height="112" viewBox="0 0 112 112" fill="none" xmlns="http://www.w3.org/2000/svg">
<g clip-path="url(#clip0_677_755)">
<rect x="1.99988" y="2" width="108" height="108" rx="8" fill="white"/>
<path d="M96 16H16V96H96V16Z" fill="white"/>
<path d="M93.7899 55.2606H18.2141V93.7859H93.7899V55.2606Z" fill="#1434CB"/>
<path d="M47.8707 27.1838L40.3394 45.1475H35.4263L31.7212 30.8121C31.4949 29.9313 31.301 29.6081 30.6182 29.2323C29.499 28.6263 27.6566 28.0566 26.0323 27.705L26.1414 27.1838H34.0485C35.0545 27.1838 35.9636 27.8545 36.1939 29.0141L38.1495 39.4101L42.9859 27.1838H47.8707ZM67.1192 39.2848C67.1394 34.5455 60.5657 34.2828 60.6101 32.1616C60.6263 31.5192 61.2364 30.8323 62.5818 30.6586C63.2485 30.5737 65.0828 30.505 67.1636 31.4626L67.9798 27.6525C66.8606 27.2485 65.4222 26.8606 63.6323 26.8606C59.0384 26.8606 55.8061 29.301 55.7818 32.8C55.7535 35.3859 58.0889 36.8283 59.8505 37.6889C61.6646 38.5697 62.2707 39.1354 62.2626 39.9192C62.2505 41.1232 60.8162 41.6566 59.4828 41.6768C57.1434 41.7131 55.7899 41.0465 54.7111 40.5414L53.8667 44.4808C54.9535 44.9778 56.9576 45.4101 59.0343 45.4343C63.9192 45.4343 67.1111 43.0222 67.1273 39.2889M79.2606 45.1556H83.5596L79.8061 27.1919H75.8424C74.9495 27.1919 74.198 27.7091 73.8626 28.5091L66.8889 45.1556H71.7697L72.7394 42.4727H78.703L79.2646 45.1556H79.2606ZM74.0727 38.7919L76.5212 32.0444L77.9273 38.7919H74.0727ZM54.5212 27.1919L50.6788 45.1556H46.0323L49.8747 27.1919H54.5212Z" fill="#1434CB"/>
<path d="M32.7111 72.1859C32.7111 71.6121 32.8485 71.1273 33.1273 70.7313C33.4061 70.3354 33.7859 70.0323 34.2667 69.8303C34.7475 69.6283 35.2889 69.5273 35.895 69.5273C36.5697 69.5273 37.1071 69.5919 37.5111 69.7253C37.9111 69.8586 38.2222 69.9879 38.4364 70.1253L38.5455 71.6283H38.5091C38.3111 71.4626 38.0646 71.3131 37.7778 71.1879C37.4869 71.0626 37.1798 70.9576 36.8525 70.8848C36.5253 70.8081 36.2061 70.7717 35.8869 70.7717C35.3859 70.7717 34.9818 70.8525 34.6707 71.0141C34.3596 71.1758 34.2061 71.4626 34.2061 71.8667C34.2061 72.1778 34.2788 72.4202 34.4283 72.5939C34.5737 72.7677 34.796 72.9131 35.0909 73.0222C35.3859 73.1313 35.7495 73.2485 36.1859 73.3697C36.598 73.4828 36.9859 73.596 37.3495 73.7091C37.7091 73.8263 38.0283 73.9758 38.299 74.1616C38.5697 74.3475 38.7798 74.5939 38.9374 74.901C39.0909 75.2081 39.1717 75.6 39.1717 76.0768C39.1717 76.998 38.8727 77.705 38.2707 78.1939C37.6687 78.6828 36.8323 78.9253 35.7495 78.9253C35.2081 78.9253 34.6667 78.8525 34.1172 78.703C33.5677 78.5535 33.1232 78.3596 32.7838 78.1131L32.6869 76.598H32.7232C33.1192 76.9333 33.596 77.196 34.1535 77.3859C34.7111 77.5758 35.2687 77.6727 35.8343 77.6727C37.0343 77.6727 37.6323 77.2606 37.6323 76.4323C37.6323 76.1374 37.5636 75.899 37.4303 75.7172C37.297 75.5354 37.0747 75.3818 36.7758 75.2566C36.4727 75.1354 36.0808 75.0101 35.596 74.8808C35.2162 74.7798 34.8525 74.6667 34.5131 74.5455C34.1697 74.4242 33.8667 74.2707 33.596 74.0808C33.3253 73.8909 33.1152 73.6444 32.9576 73.3414C32.804 73.0384 32.7232 72.6545 32.7232 72.1859H32.7111Z" fill="white"/>
<path d="M40.3515 69.697H46.1899V71.0101H41.9475V73.4303H45.297V74.695H41.9475V77.4465H46.1899V78.7596H40.3515V69.697Z" fill="white"/>
<path d="M48.6101 74.2263C48.6101 74.9091 48.7354 75.5071 48.9859 76.0121C49.2364 76.5212 49.596 76.9131 50.0646 77.1919C50.5333 77.4707 51.099 77.6081 51.7576 77.6081C52.4162 77.6081 52.9939 77.5071 53.4384 77.305C53.8828 77.103 54.2707 76.8364 54.6061 76.5131H54.6424L54.4768 78.097C54.1253 78.3354 53.7131 78.5333 53.2364 78.6869C52.7596 78.8404 52.202 78.9212 51.5677 78.9212C50.8525 78.9212 50.2101 78.8 49.6444 78.5576C49.0747 78.3152 48.5899 77.9798 48.1899 77.5556C47.7899 77.1313 47.4828 76.6303 47.2727 76.0606C47.0626 75.4869 46.9576 74.8768 46.9576 74.2263C46.9576 73.5758 47.0626 72.9535 47.2727 72.3838C47.4828 71.8141 47.7899 71.3172 48.1899 70.8929C48.5899 70.4687 49.0747 70.1333 49.6364 69.8909C50.202 69.6485 50.8364 69.5273 51.5434 69.5273C52.1778 69.5273 52.7273 69.5919 53.1879 69.7253C53.6485 69.8586 54.0404 70.0444 54.3677 70.2909L54.5333 71.9111H54.497C54.1616 71.5838 53.7697 71.3253 53.3172 71.1313C52.8646 70.9374 52.3354 70.8404 51.7333 70.8404C51.0747 70.8404 50.5131 70.9778 50.0485 71.2566C49.5838 71.5354 49.2283 71.9273 48.9818 72.4364C48.7354 72.9454 48.6141 73.5394 48.6141 74.2222L48.6101 74.2263Z" fill="white"/>
<path d="M59.6848 77.5636C60.5051 77.5636 61.099 77.3859 61.4707 77.0343C61.8424 76.6788 62.0323 76.0808 62.0323 75.2283V69.697H63.3657V75.3091C63.3657 76.5818 63.0465 77.499 62.404 78.0687C61.7657 78.6384 60.8323 78.9212 59.6081 78.9212C58.3838 78.9212 57.4465 78.6384 56.7717 78.0768C56.097 77.5111 55.7576 76.5899 55.7576 75.3131V69.701H57.3535V75.196C57.3535 76.0444 57.5354 76.6545 57.895 77.0182C58.2545 77.3818 58.8485 77.5677 59.6768 77.5677L59.6848 77.5636Z" fill="white"/>
<path d="M64.9293 78.7556V69.697H68.7556C69.3495 69.697 69.8667 69.8141 70.299 70.0525C70.7313 70.2909 71.0626 70.6182 71.2929 71.0343C71.5232 71.4505 71.6404 71.9232 71.6404 72.4485C71.6404 73.0667 71.4707 73.6081 71.1273 74.0687C70.7838 74.5293 70.3192 74.8364 69.7333 74.9859L72.0566 78.7515H70.2222L68.1253 75.2H66.5293V78.7515H64.9333L64.9293 78.7556ZM68.3273 70.9616H66.5253V74.0121H68.3273C68.905 74.0121 69.3252 73.8869 69.5838 73.6364C69.8424 73.3859 69.9717 73.002 69.9717 72.4848C69.9717 71.9677 69.8424 71.5838 69.5838 71.3333C69.3252 71.0828 68.905 70.9576 68.3273 70.9576V70.9616Z" fill="white"/>
<path d="M73.2485 69.697H79.0909V71.0101H74.8485V73.4303H78.198V74.695H74.8485V77.4465H79.0909V78.7596H73.2485V69.697Z" fill="white"/>
</g>
<rect x="1" y="1" width="110" height="110" rx="9" stroke="black" stroke-opacity="0.1" stroke-width="2"/>
<defs>
<clipPath id="clip0_677_755">
<rect x="2" y="2" width="108" height="108" rx="8" fill="white"/>
</clipPath>
</defs>
</svg>
