<svg width="112" height="112" viewBox="0 0 112 112" fill="none" xmlns="http://www.w3.org/2000/svg">
<g clip-path="url(#clip0_505_120)">
<rect x="1.99988" y="2" width="108" height="108" rx="8" fill="white"/>
<path d="M34.0169 76.957L16.0013 56.8709L38.0199 56.8758L34.0169 76.957Z" fill="#0058A0"/>
<path d="M63.4494 53.9199L45.6128 34.1836L41.8115 53.9199H63.4494Z" fill="#0058A0"/>
<path d="M83.0173 56.9918L77.8407 56.9894L75.236 70.3407C75.1201 70.4272 74.8064 72.9887 72.4275 72.7901C69.555 72.5518 70.4532 69.7349 70.4532 69.7349L72.7434 56.9832L67.6593 56.9906L65.1039 70.4037C65.1039 70.4037 63.5011 76.9079 71.9536 77.4013C71.9536 77.4013 79.0834 78.4168 80.6714 69.7137C82.3535 60.4863 83.0173 56.9918 83.0173 56.9918Z" fill="white"/>
<path d="M83.0173 56.9918L77.8407 56.9894L75.236 70.3407C75.1201 70.4272 74.8064 72.9887 72.4275 72.7901C69.555 72.5518 70.4532 69.7349 70.4532 69.7349L72.7434 56.9832L67.6593 56.9906L65.1039 70.4037C65.1039 70.4037 63.5011 76.9079 71.9536 77.4013C71.9536 77.4013 79.0834 78.4168 80.6714 69.7137C82.3535 60.4863 83.0173 56.9918 83.0173 56.9918Z" fill="#0058A0"/>
<path d="M81.1144 70.3504C81.1144 70.3504 78.9625 76.9818 87.5925 77.3739C87.5925 77.3739 94.8185 77.2383 94.8011 70.8242C94.8011 70.8242 95.3541 67.0261 89.2708 64.4373C89.2708 64.4373 87.9923 63.8697 87.9209 62.5864C87.8504 61.3018 89.2215 61.0612 89.2215 61.0612C89.2215 61.0612 90.1618 60.8068 90.67 61.3747C91.0352 61.7843 90.9809 63.3466 90.9809 63.3466H95.7996C95.7996 63.3466 97.6861 56.7055 89.8656 56.6216C89.8656 56.6216 84.0536 56.2619 82.7962 61.9324C82.7962 61.9324 81.9917 65.3011 84.6683 67.0386C87.341 68.7783 87.8949 68.8278 88.871 69.5212C89.8459 70.217 89.9495 72.8009 87.9368 72.9317C85.6701 73.0774 86.1389 70.3552 86.0971 70.3552L81.1144 70.3504Z" fill="white"/>
<path d="M81.1144 70.3504C81.1144 70.3504 78.9625 76.9818 87.5925 77.3739C87.5925 77.3739 94.8185 77.2383 94.8011 70.8242C94.8011 70.8242 95.3541 67.0261 89.2708 64.4373C89.2708 64.4373 87.9923 63.8697 87.9209 62.5864C87.8504 61.3018 89.2215 61.0612 89.2215 61.0612C89.2215 61.0612 90.1618 60.8068 90.67 61.3747C91.0352 61.7843 90.9809 63.3466 90.9809 63.3466H95.7996C95.7996 63.3466 97.6861 56.7055 89.8656 56.6216C89.8656 56.6216 84.0536 56.2619 82.7962 61.9324C82.7962 61.9324 81.9917 65.3011 84.6683 67.0386C87.341 68.7783 87.8949 68.8278 88.871 69.5212C89.8459 70.217 89.9495 72.8009 87.9368 72.9317C85.6701 73.0774 86.1389 70.3552 86.0971 70.3552L81.1144 70.3504Z" fill="#0058A0"/>
<path d="M42.2045 34.0015L38.4899 53.9415L16.5442 53.9316L42.2045 34.0015Z" fill="#0058A0"/>
<path d="M61.9614 56.8784L59.0639 72.2778L64.5921 72.2877L63.7455 76.8952L52.8881 76.8976L56.722 56.8832L61.9614 56.8784Z" fill="white"/>
<path d="M61.9614 56.8784L59.0639 72.2778L64.5921 72.2877L63.7455 76.8952L52.8881 76.8976L56.722 56.8832L61.9614 56.8784Z" fill="#0058A0"/>
<path d="M45.5309 61.6759L44.7134 66.0392H46.6211C49.8934 65.9774 49.7677 63.6083 49.7677 63.6083C49.5375 61.634 47.5232 61.6759 47.5232 61.6759H45.5309ZM41.1942 56.8733L47.9352 56.8931C47.9352 56.8931 52.7933 57.0585 54.3398 60.4519C55.8856 63.8452 53.7513 67.5396 53.3632 67.8356C52.975 68.1318 51.5565 71.3772 43.7416 70.9353L42.4502 77.0803L37.3337 77.0828L41.1942 56.8733Z" fill="white"/>
<path d="M45.5309 61.6759L44.7134 66.0392H46.6211C49.8934 65.9774 49.7677 63.6083 49.7677 63.6083C49.5375 61.634 47.5232 61.6759 47.5232 61.6759H45.5309ZM41.1942 56.8733L47.9352 56.8931C47.9352 56.8931 52.7933 57.0585 54.3398 60.4519C55.8856 63.8452 53.7513 67.5396 53.3632 67.8356C52.975 68.1318 51.5565 71.3772 43.7416 70.9353L42.4502 77.0803L37.3337 77.0828L41.1942 56.8733Z" fill="#0058A0"/>
<path d="M34.0169 76.957L16.0013 56.8709L38.0199 56.8758L34.0169 76.957Z" stroke="#0058A0" stroke-width="0.00120728"/>
<path d="M34.0169 76.957L16.0013 56.8709L38.0199 56.8758L34.0169 76.957Z" stroke="#0058A0" stroke-width="0.00120728"/>
<path d="M63.4494 53.9199L45.6128 34.1836L41.8115 53.9199H63.4494Z" stroke="#0058A0" stroke-width="0.00120728"/>
<path d="M63.4494 53.9199L45.6128 34.1836L41.8115 53.9199H63.4494Z" stroke="#0058A0" stroke-width="0.00120728"/>
<path d="M83.0173 56.9918L77.8407 56.9894L75.236 70.3407C75.1201 70.4272 74.8064 72.9887 72.4275 72.7901C69.555 72.5518 70.4532 69.7349 70.4532 69.7349L72.7434 56.9832L67.6593 56.9906L65.1039 70.4037C65.1039 70.4037 63.5011 76.9079 71.9536 77.4013C71.9536 77.4013 79.0834 78.4168 80.6714 69.7137C82.3535 60.4863 83.0173 56.9918 83.0173 56.9918Z" stroke="#0058A0" stroke-width="0.00120728"/>
<path d="M83.0173 56.9918L77.8407 56.9894L75.236 70.3407C75.1201 70.4272 74.8064 72.9887 72.4275 72.7901C69.555 72.5518 70.4532 69.7349 70.4532 69.7349L72.7434 56.9832L67.6593 56.9906L65.1039 70.4037C65.1039 70.4037 63.5011 76.9079 71.9536 77.4013C71.9536 77.4013 79.0834 78.4168 80.6714 69.7137C82.3535 60.4863 83.0173 56.9918 83.0173 56.9918Z" stroke="#0058A0" stroke-width="0.00120728"/>
<path d="M81.1144 70.3504C81.1144 70.3504 78.9625 76.9818 87.5925 77.3739C87.5925 77.3739 94.8185 77.2383 94.8011 70.8242C94.8011 70.8242 95.3541 67.0261 89.2708 64.4373C89.2708 64.4373 87.9923 63.8697 87.9209 62.5864C87.8504 61.3018 89.2215 61.0612 89.2215 61.0612C89.2215 61.0612 90.1618 60.8068 90.67 61.3747C91.0352 61.7843 90.9809 63.3466 90.9809 63.3466H95.7996C95.7996 63.3466 97.6861 56.7055 89.8656 56.6216C89.8656 56.6216 84.0536 56.2619 82.7962 61.9324C82.7962 61.9324 81.9917 65.3011 84.6683 67.0386C87.341 68.7783 87.8949 68.8278 88.871 69.5212C89.8459 70.217 89.9495 72.8009 87.9368 72.9317C85.6701 73.0774 86.1389 70.3552 86.0971 70.3552L81.1144 70.3504Z" stroke="#0058A0" stroke-width="0.00120728"/>
<path d="M81.1144 70.3504C81.1144 70.3504 78.9625 76.9818 87.5925 77.3739C87.5925 77.3739 94.8185 77.2383 94.8011 70.8242C94.8011 70.8242 95.3541 67.0261 89.2708 64.4373C89.2708 64.4373 87.9923 63.8697 87.9209 62.5864C87.8504 61.3018 89.2215 61.0612 89.2215 61.0612C89.2215 61.0612 90.1618 60.8068 90.67 61.3747C91.0352 61.7843 90.9809 63.3466 90.9809 63.3466H95.7996C95.7996 63.3466 97.6861 56.7055 89.8656 56.6216C89.8656 56.6216 84.0536 56.2619 82.7962 61.9324C82.7962 61.9324 81.9917 65.3011 84.6683 67.0386C87.341 68.7783 87.8949 68.8278 88.871 69.5212C89.8459 70.217 89.9495 72.8009 87.9368 72.9317C85.6701 73.0774 86.1389 70.3552 86.0971 70.3552L81.1144 70.3504Z" stroke="#0058A0" stroke-width="0.00120728"/>
<path d="M42.2045 34.0015L38.4899 53.9415L16.5442 53.9316L42.2045 34.0015Z" stroke="#0058A0" stroke-width="0.00120728"/>
<path d="M42.2045 34.0015L38.4899 53.9415L16.5442 53.9316L42.2045 34.0015Z" stroke="#0058A0" stroke-width="0.00120728"/>
<path d="M61.9614 56.8784L59.0639 72.2778L64.5921 72.2877L63.7455 76.8952L52.8881 76.8976L56.722 56.8832L61.9614 56.8784Z" stroke="#0058A0" stroke-width="0.00120728"/>
<path d="M61.9614 56.8784L59.0639 72.2778L64.5921 72.2877L63.7455 76.8952L52.8881 76.8976L56.722 56.8832L61.9614 56.8784Z" stroke="#0058A0" stroke-width="0.00120728"/>
<path d="M45.5309 61.6759L44.7134 66.0392H46.6211C49.8934 65.9774 49.7677 63.6083 49.7677 63.6083C49.5375 61.634 47.5232 61.6759 47.5232 61.6759H45.5309ZM41.1942 56.8733L47.9352 56.8931C47.9352 56.8931 52.7933 57.0585 54.3398 60.4519C55.8856 63.8452 53.7513 67.5396 53.3632 67.8356C52.975 68.1318 51.5565 71.3772 43.7416 70.9353L42.4502 77.0803L37.3337 77.0828L41.1942 56.8733Z" stroke="#0058A0" stroke-width="0.00120728"/>
<path d="M45.5309 61.6759L44.7134 66.0392H46.6211C49.8934 65.9774 49.7677 63.6083 49.7677 63.6083C49.5375 61.634 47.5232 61.6759 47.5232 61.6759H45.5309ZM41.1942 56.8733L47.9352 56.8931C47.9352 56.8931 52.7933 57.0585 54.3398 60.4519C55.8856 63.8452 53.7513 67.5396 53.3632 67.8356C52.975 68.1318 51.5565 71.3772 43.7416 70.9353L42.4502 77.0803L37.3337 77.0828L41.1942 56.8733Z" stroke="#0058A0" stroke-width="0.00120728"/>
</g>
<rect x="1" y="1" width="110" height="110" rx="9" stroke="black" stroke-opacity="0.1" stroke-width="2"/>
<defs>
<clipPath id="clip0_505_120">
<rect x="2" y="2" width="108" height="108" rx="8" fill="white"/>
</clipPath>
</defs>
</svg>
