<svg width="112" height="112" viewBox="0 0 112 112" fill="none" xmlns="http://www.w3.org/2000/svg">
<g clip-path="url(#clip0_752_568)">
<rect x="2" y="2" width="108" height="108" rx="8" fill="white"/>
<path fill-rule="evenodd" clip-rule="evenodd" d="M40.0731 79.0059C52.5287 80.4273 65.3092 76.9356 72.0516 76.2176C73.9599 76.0127 75.3824 76.1541 76.1911 76.7707C77.4165 77.7073 77.3863 78.8849 76.3736 80.9922C75.3336 83.1444 76.6955 84.1102 79.0789 83.2898C85.1833 81.1863 97.5609 70.1483 95.7609 54.2361C93.9316 38.0898 78.8458 27.5873 56.0204 29.1541C32.8155 30.7522 17.7521 42.6507 16.1072 56.2078C15.0858 64.639 21.1433 76.8439 40.0731 79.0059Z" fill="#753C94"/>
<path fill-rule="evenodd" clip-rule="evenodd" d="M39.0926 57.4673L36.5053 53.0761L33.9219 57.4664L39.0926 57.4673ZM45.0673 61.602C45.1671 61.7729 45.2317 61.9621 45.2573 62.1584C45.2828 62.3548 45.2687 62.5542 45.2159 62.745C45.163 62.9358 45.0725 63.1141 44.9496 63.2693C44.8267 63.4245 44.674 63.5536 44.5004 63.6488C44.2682 63.7806 44.0055 63.8492 43.7385 63.8478C43.4701 63.8491 43.206 63.7805 42.9722 63.6488C42.7384 63.5171 42.5428 63.3268 42.4048 63.0966L40.8565 60.4654H32.158L30.6068 63.0976C30.1853 63.8137 29.2458 64.0605 28.5131 63.6488C28.339 63.5542 28.1856 63.4254 28.0623 63.2703C27.939 63.1151 27.8481 62.9367 27.7952 62.7457C27.7423 62.5547 27.7284 62.355 27.7544 62.1585C27.7803 61.962 27.8456 61.7727 27.9463 61.602L29.917 58.2527L29.9229 58.241L35.1756 49.321C35.4487 48.8546 35.9551 48.5698 36.5053 48.5698C37.0565 48.5698 37.5619 48.8546 37.838 49.321L43.0848 58.2332L43.0995 58.2576L45.0673 61.602ZM56.2507 56.162L61.4731 51.0615C61.6155 50.9241 61.7287 50.7594 61.806 50.5773C61.8834 50.3952 61.9232 50.1993 61.9232 50.0015C61.9232 49.8036 61.8834 49.6078 61.806 49.4257C61.7287 49.2435 61.6155 49.0789 61.4731 48.9415C61.1826 48.659 60.7934 48.5009 60.3882 48.5009C59.9831 48.5009 59.5938 48.659 59.3034 48.9415L54.077 54.041L48.8546 48.9415C48.5633 48.659 48.1735 48.501 47.7678 48.501C47.362 48.501 46.9722 48.659 46.6809 48.9415C46.5392 49.0791 46.4266 49.2437 46.3497 49.4256C46.2727 49.6075 46.2331 49.803 46.2331 50.0005C46.2331 50.198 46.2727 50.3935 46.3497 50.5754C46.4266 50.7573 46.5392 50.9219 46.6809 51.0595L51.9053 56.162L46.679 61.2644C46.5377 61.4021 46.4254 61.5667 46.3487 61.7485C46.272 61.9303 46.2325 62.1256 46.2325 62.3229C46.2325 62.5202 46.272 62.7156 46.3487 62.8974C46.4254 63.0792 46.5377 63.2438 46.679 63.3815C46.9814 63.679 47.3736 63.8234 47.7639 63.8234C48.1609 63.8234 48.5512 63.679 48.8517 63.3825L54.077 58.281L59.3034 63.3825C59.6039 63.679 59.997 63.8234 60.3882 63.8234C60.794 63.8259 61.1842 63.6673 61.4731 63.3825C61.6156 63.2453 61.7289 63.0808 61.8062 62.8988C61.8836 62.7169 61.9235 62.5212 61.9235 62.3234C61.9235 62.1257 61.8836 61.93 61.8062 61.748C61.7289 61.566 61.6156 61.4016 61.4731 61.2644L56.2507 56.162ZM64.8575 48.5015C64.0097 48.5015 63.3239 49.1746 63.3239 49.999V62.3503C63.3239 63.1785 64.0097 63.8478 64.8575 63.8478C65.7063 63.8478 66.3921 63.1785 66.3921 62.3503V49.999C66.3921 49.1737 65.7073 48.5015 64.8575 48.5015ZM84.4624 59.2634C84.4624 61.7932 82.356 63.8478 79.7678 63.8478H69.8731C69.0204 63.8478 68.3356 63.1785 68.3356 62.3503C68.3356 61.522 69.0204 60.8498 69.8731 60.8498H79.7678C80.6634 60.8498 81.3931 60.1395 81.3931 59.2634C81.3931 58.3883 80.6634 57.679 79.7678 57.679H72.6117C70.0224 57.679 67.9151 55.6224 67.9151 53.0937C67.9151 50.5668 70.0224 48.5103 72.6117 48.5103H82.4702C83.319 48.5103 84.0058 49.1795 84.0058 50.0088C84.0058 50.8371 83.319 51.5073 82.4702 51.5073H72.6117C71.7131 51.5073 70.9853 52.2176 70.9853 53.0927C70.9853 53.9678 71.7131 54.681 72.6117 54.681H79.7678C82.356 54.681 84.4624 56.7356 84.4624 59.2634Z" fill="white"/>
</g>
<rect x="1" y="1" width="110" height="110" rx="9" stroke="black" stroke-opacity="0.1" stroke-width="2"/>
<defs>
<clipPath id="clip0_752_568">
<rect x="2" y="2" width="108" height="108" rx="8" fill="white"/>
</clipPath>
</defs>
</svg>
