<svg width="112" height="112" viewBox="0 0 112 112" fill="none" xmlns="http://www.w3.org/2000/svg">
<g clip-path="url(#clip0_752_571)">
<rect x="2" y="2" width="108" height="108" rx="8" fill="white"/>
<g clip-path="url(#clip1_752_571)">
<path fill-rule="evenodd" clip-rule="evenodd" d="M27.4227 73.6804C25.1546 73.6804 23.299 73.0206 21.8144 71.701L21.5258 71.4536V73.1443H16V46.8763H21.5258V56.6495L21.8144 56.4021C23.2577 55.0825 25.1546 54.4227 27.4227 54.4227C32.4124 54.3815 36.2062 58.5052 36.2062 64.0309C36.2062 66.7526 35.299 69.2681 33.6082 71.0413C31.9588 72.732 29.7732 73.6804 27.4227 73.6804ZM26.1856 59.0413C23.5464 59.0413 21.4845 61.2268 21.4845 64.0309C21.4845 66.8351 23.5464 69.0206 26.1856 69.0206C28.9072 69.0206 30.8041 66.9588 30.8041 64.0309C30.8041 61.1031 28.9072 59.0413 26.1856 59.0413ZM63.0103 73.6804C61.1134 73.6804 59.7113 72.4846 59.7113 70.7938C59.7113 70.0516 60.0412 69.3093 60.6186 68.7732C61.2371 68.1959 62.0619 67.9072 62.9691 67.9072C64.7835 67.9072 66.268 69.1856 66.268 70.7938C66.268 71.5773 65.9381 72.3196 65.3196 72.8557C64.7423 73.3918 63.9175 73.6804 63.0103 73.6804ZM75.2165 59.8248C75.1753 58.7526 75.134 57.6392 75.134 56.5258C75.134 52.567 75.2577 48.4021 76.1237 44.5258V44.4845C76.1649 44.3608 76.1649 44.1959 76.2062 44.0309C76.2474 43.7835 76.2887 43.5361 76.3711 43.3299L76.4124 43.1237C76.5361 42.5876 76.6186 42.0516 76.7835 41.5567C77.3608 41.1856 77.8144 40.5258 77.9794 39.8248C78.1443 39.1237 78.0206 38.4227 77.6082 37.8454L77.567 37.8041C76.9072 36.9382 76.0412 36.4433 75.0515 36.4433C74.8866 36.4433 74.7216 36.4433 74.5567 36.4845C73.4845 36.6083 72.866 37.3505 72.5361 37.7629L72.3711 37.9691C71.8763 38.7114 71.6289 39.5773 71.4639 40.2371L71.4227 40.4021C71.0103 41.7629 70.7216 43.1237 70.5155 44.5258C70.0206 47.5361 69.6907 50.7114 69.6082 54.0516C69.567 56.3608 69.567 58.7938 69.8144 61.2681C69.9794 63.3711 70.3093 66.0928 71.299 68.567C71.7113 69.7217 72.1649 70.6701 72.7835 71.4536C73.1959 72.0309 73.8144 72.7732 74.7629 73.2268H74.8041C75.5052 73.5567 76.2062 73.7217 76.866 73.7217C78.8866 73.7217 80.9072 72.3196 82.8454 69.5155C84.2062 67.5773 85.3196 65.433 86.1443 63.6186C86.1856 64.6907 86.268 65.7629 86.3505 67C86.8866 73.1443 87.5876 75.2474 87.5876 75.3299C87.9588 76.3608 88.4536 77.5155 89.4021 78.3402L89.4433 78.3815C89.9794 78.7938 90.6392 79.0413 91.299 79.0413C92 79.0413 92.701 78.7526 93.2371 78.2577C93.8144 77.6804 94.0619 77.1031 94.0619 76.4021C94.0619 75.9072 93.8969 75.4124 93.6495 74.8763L92.9485 73.6392H92.9072C92.8247 73.5567 92.3299 72.732 92 68.1134C91.9588 67.6598 91.9175 67.165 91.8763 66.7114C91.7938 65.7217 91.7113 64.6907 91.6701 63.701C91.5876 61.1031 91.5876 58.3402 91.7113 54.7526C91.7526 53.8041 91.7938 52.7732 91.8763 51.8248C91.9175 51.3299 91.9588 50.8351 91.9588 50.3815L92.2474 48.1547C92.3299 47.866 92.4536 47.5773 92.5361 47.2474C92.6598 46.8763 92.7835 46.4639 92.9072 46.0928C93.2784 45.0206 93.8144 43.3711 94.268 41.7217C94.3918 41.3093 94.5155 40.9382 94.6804 40.5258V40.4845C94.8866 39.866 95.134 39.2062 95.299 38.5052C95.7938 36.9794 96.2474 35 95.5464 33.1443C95.2577 32.2784 94.5567 31.6186 93.732 31.3711C93.4845 31.2887 93.2371 31.2474 92.9897 31.2474C92.3299 31.2474 91.6289 31.4949 91.0928 31.9485C89.7732 33.0619 89.2371 34.5876 88.9484 35.8248C88.7835 36.4021 88.701 36.9794 88.5773 37.4742C88.4948 37.7629 88.4124 38.0928 88.3299 38.4227C88.2474 38.6701 88.1649 38.9588 88.1237 39.2062C87.5464 41.5155 87.134 44.0309 86.7216 46.8763C86.6392 47.165 86.5155 47.4536 86.3918 47.7835L86.268 48.1547C85.8144 49.3918 85.3608 50.6701 84.866 51.866L84.8247 52.0309C84.4948 52.8969 84.1649 53.7217 83.8351 54.5876C82.268 58.8351 80.866 61.9278 79.2577 64.6495L79.2165 64.6907C78.9278 65.2681 78.5567 65.8041 78.1856 66.3402C77.567 67.2062 77.1134 67.5773 76.9072 67.7423C76.9897 67.7835 75.3402 65.598 75.2165 59.8248ZM47.4639 74.0103L39.9175 56.3608H45.8144L50.268 67.3711L55.0103 56.3608H60.9072L50.4742 80.6907H44.5361L47.4639 74.0103Z" fill="#00BCF1"/>
</g>
</g>
<rect x="1" y="1" width="110" height="110" rx="9" stroke="black" stroke-opacity="0.1" stroke-width="2"/>
<defs>
<clipPath id="clip0_752_571">
<rect x="2" y="2" width="108" height="108" rx="8" fill="white"/>
</clipPath>
<clipPath id="clip1_752_571">
<rect width="80" height="49.8969" fill="white" transform="translate(16 31)"/>
</clipPath>
</defs>
</svg>
