<svg width="112" height="112" viewBox="0 0 112 112" fill="none" xmlns="http://www.w3.org/2000/svg">
<g clip-path="url(#clip0_752_562)">
<rect x="2" y="2" width="108" height="108" rx="8" fill="white"/>
<path d="M16.0034 38.281C16.0034 36.4681 17.4689 35 19.2835 35C21.0952 35 22.5655 36.4681 22.5655 38.281C22.5655 40.0964 21.0952 41.5628 19.2835 41.5628C17.4687 41.5628 16.0034 40.0965 16.0034 38.281Z" fill="#ED1C24"/>
<path d="M19.2907 44.1764C17.5641 44.1764 16.1203 45.5509 16 47.35V76.6707H22.5803V47.2524C22.4632 45.5268 21.0183 44.1764 19.2907 44.1764ZM57.6064 44.1275C54.613 44.1275 51.7087 45.1079 49.4227 46.8875L48.1935 47.8441L46.9644 46.8875C44.6771 45.1079 41.7693 44.1275 38.7795 44.1275C32.0515 44.1275 26.1501 49.918 26.1501 56.5209V76.6712H32.7259V56.6033C32.7259 53.3099 35.3898 50.7316 38.7868 50.7316C42.1971 50.7316 44.9723 53.3648 44.9723 56.6033V73.2791C44.9723 75.7408 47.0475 76.3902 48.1558 76.3902C49.8665 76.3902 51.2991 75.0058 51.3476 73.2791V56.5995C51.3476 53.3625 54.1227 50.7317 57.533 50.7317C60.9068 50.7317 63.6551 53.3649 63.6551 56.6034V76.6713H70.2342V56.5209C70.2342 49.918 64.3332 44.1275 57.6064 44.1275ZM86.3323 63.5169C88.1943 63.5169 89.7063 65.0476 89.7063 66.9265C89.7063 68.8087 88.1895 70.3381 86.3275 70.3381H73.4044V76.6651L86.4801 76.6707C91.7303 76.6578 96 72.3099 96 66.981C96 64.91 95.3321 62.8574 94.1127 61.1925L93.5494 60.4244L94.1102 59.6592C95.3308 57.9931 95.9999 55.936 95.9999 53.87C95.9999 48.5242 91.718 44.1762 86.458 44.1762L73.4043 44.189V50.4659H86.3274C88.1894 50.4659 89.7062 51.9935 89.7062 53.8743C89.7062 55.7544 88.1894 57.2827 86.3274 57.2827L79.357 57.2859C79.3446 57.2859 79.3301 57.2852 79.3153 57.2852C77.595 57.2852 76.199 58.6801 76.199 60.4C76.199 62.122 77.5949 63.5168 79.3153 63.5168L86.3323 63.5169Z" fill="#231F20"/>
</g>
<rect x="1" y="1" width="110" height="110" rx="9" stroke="black" stroke-opacity="0.1" stroke-width="2"/>
<defs>
<clipPath id="clip0_752_562">
<rect x="2" y="2" width="108" height="108" rx="8" fill="white"/>
</clipPath>
</defs>
</svg>
