<svg width="112" height="112" viewBox="0 0 112 112" fill="none" xmlns="http://www.w3.org/2000/svg">
<g clip-path="url(#clip0_766_82)">
<rect x="2" y="2" width="108" height="108" rx="8" fill="white"/>
<path fill-rule="evenodd" clip-rule="evenodd" d="M59.6932 39H92.468C94.4088 39 95.9961 40.5873 95.9961 42.5281V50.382C95.4539 48.9401 94.1888 48.0089 91.3364 48.0089C86.8929 48.0089 86.3192 50.268 86.3192 53.199C86.3192 56.1299 86.8929 58.3733 91.3364 58.3733C94.1888 58.3733 95.4539 57.4422 95.9961 56.0082V58.7584L90.6882 64.137H59.6892C57.7484 64.137 56.1611 62.5497 56.1611 60.6089V58.1298H59.4064C59.5989 58.1298 59.7128 58.0158 59.7128 57.8469V52.3739H65.0365V57.8469C65.0365 58.0158 65.17 58.1298 65.3626 58.1298H68.5882C68.7807 58.1298 68.9143 58.0158 68.9143 57.8469V44.2726C68.9143 44.1233 68.8003 43.9897 68.6275 43.9897H68.5882L65.3626 44.3669C65.1897 44.3865 65.0365 44.4808 65.0365 44.6497V49.6512H59.7128V44.2726C59.7128 44.1233 59.5989 43.9897 59.4457 43.9897H59.4064L56.1808 44.3669H56.1611V42.5321C56.1611 40.5912 57.7484 39.0039 59.6892 39.0039L59.6932 39ZM79.4005 56.1378V51.0224C79.4005 49.9144 79.0194 49.0855 78.0843 48.5786C77.4164 48.2015 76.442 48.0129 75.1258 48.0129C72.9689 48.0129 71.0987 48.5943 70.7569 48.7279C70.6233 48.7829 70.5094 48.8615 70.5094 49.0462C70.5094 49.0855 70.5094 49.1208 70.529 49.1601L70.8709 50.6649C70.8905 50.7788 70.9652 50.8338 71.0791 50.8338C71.138 50.8338 71.1734 50.8338 71.2323 50.8142C71.6134 50.7002 73.1418 50.2877 74.2851 50.2877C74.8194 50.2877 75.2594 50.3427 75.4873 50.4763C75.7741 50.6256 75.8488 50.8888 75.8488 51.3406V51.6785L72.6428 52.1657C71.4798 52.3346 69.8179 52.7472 69.8179 55.1006C69.8179 57.9962 72.1438 58.3733 74.6072 58.3733C75.7702 58.3733 76.6503 58.2987 77.4517 58.1298C78.7286 57.8272 79.3965 57.6229 79.3965 56.1378H79.4005ZM75.9077 56.1182V53.5801L74.3833 53.8237C73.7547 53.918 73.2557 54.0673 73.2557 55.0652C73.2557 56.0632 74.0768 56.2675 74.6465 56.2675C75.2751 56.2675 75.9038 56.1182 75.9038 56.1182H75.9077ZM86.1896 57.6033L85.8831 56.0239C85.8635 55.8903 85.8085 55.7606 85.616 55.7606H85.557C85.3842 55.7999 85.2506 55.8156 84.9284 55.8156C84.567 55.8156 84.2409 55.5917 84.2409 54.9316V44.3472C84.2409 44.084 84.068 43.9897 83.8598 43.9897H83.7262L80.9799 44.3865C80.6734 44.4415 80.6381 44.5751 80.6381 44.8737V55.3127C80.6381 56.9668 81.6124 58.283 83.9187 58.283C85.2152 58.283 85.7888 58.059 85.9617 58.0001C86.001 57.9805 86.1896 57.8665 86.1896 57.6622V57.6033ZM92.7312 53.2029C92.7312 51.0774 92.6565 50.3073 91.3404 50.3073C90.0242 50.3073 89.9652 51.0774 89.9652 53.2029C89.9652 55.3285 90.0242 56.0789 91.3404 56.0789C92.6565 56.0789 92.7312 55.3088 92.7312 53.2029Z" fill="#FF0000"/>
<path fill-rule="evenodd" clip-rule="evenodd" d="M24.0857 57.9412L20.7147 53.1086L23.8971 48.614C23.9128 48.5747 23.9324 48.559 23.9324 48.5197C23.9324 48.445 23.8814 48.3508 23.7635 48.3508L21.7087 48.2957C21.6262 48.2957 21.5555 48.3154 21.4887 48.4293L18.8249 52.4132H18.2513V44.3276C18.2513 44.1193 18.1491 44.0054 17.9998 44.0054H17.933L16.2829 44.3276C16.0825 44.3826 15.9961 44.4965 15.9961 44.7244V57.9215C15.9961 58.0905 16.114 58.2044 16.2672 58.2044H18.0038C18.1727 58.2044 18.2552 58.0905 18.2552 57.9215V54.1066H18.8288L21.4415 58.0905C21.524 58.2044 21.6105 58.2044 21.693 58.2044H23.9521C24.0542 58.2044 24.121 58.1101 24.121 58.0355C24.121 57.9962 24.1053 57.9608 24.0857 57.9412ZM32.8785 56.2242V51.0145C32.8785 49.997 32.7096 49.109 31.8492 48.5786C31.3109 48.2407 30.5015 48.0482 29.3072 48.0482C27.5902 48.0482 26.0383 48.5197 25.6337 48.6886C25.5511 48.7279 25.4333 48.8026 25.4333 48.9715V49.0462L25.669 50.217C25.6847 50.3506 25.7712 50.3859 25.8537 50.3859C25.889 50.3859 25.9205 50.3663 25.9715 50.3663C26.4784 50.217 27.7238 49.8359 28.8711 49.8359C29.4761 49.8359 29.8808 49.8909 30.1519 50.0245C30.5723 50.2327 30.6233 50.6099 30.6233 51.1403V51.7453L27.6256 52.2914C26.278 52.535 24.9147 52.8022 24.9147 55.2381C24.9147 58.2398 27.1541 58.448 28.9732 58.448C29.9161 58.448 30.7255 58.3341 31.3148 58.1848C32.4621 57.8822 32.8825 57.6386 32.8825 56.2203L32.8785 56.2242ZM30.6194 56.5464C30.2658 56.68 29.7276 56.8096 29.0714 56.8096C28.2621 56.8096 27.2013 56.6957 27.2013 55.2224C27.2013 53.9966 27.8417 53.8826 28.5332 53.7687L30.6233 53.3915V56.5425L30.6194 56.5464ZM39.9348 49.6551V48.4293C39.9348 48.2407 39.8523 48.1661 39.7816 48.1268C39.703 48.0901 39.5851 48.0718 39.428 48.0718H39.1412C38.1825 48.0914 36.9842 48.28 36.2416 48.5433C35.4323 48.8065 35.0473 49.0344 35.0473 49.7691V57.9254C35.0473 58.0944 35.2319 58.2083 35.3341 58.2083H37.051C37.2042 58.2083 37.3024 58.0944 37.3024 57.9254V50.2405C37.7739 50.107 38.6501 49.997 39.6794 49.997C39.9152 49.997 39.9309 49.8477 39.9309 49.6551H39.9348ZM46.6571 57.6386L46.4568 56.5621C46.441 56.4285 46.3743 56.3539 46.2721 56.3539H46.2053C45.9185 56.4285 45.4313 56.5228 44.9245 56.5228C44.0483 56.5228 43.7458 56.185 43.7458 55.352V50.1227H46.1542C46.3075 50.1227 46.4057 50.0284 46.4057 49.8594V48.5747C46.4057 48.4058 46.3035 48.2918 46.1542 48.2918H43.7458V45.2509C43.7458 45.0426 43.6633 44.9483 43.5101 44.9483H43.4276L41.7775 45.2862C41.5928 45.3412 41.4906 45.4552 41.4906 45.683V55.407C41.4906 57.5404 42.4493 58.3694 44.3705 58.3694C45.447 58.3694 46.1896 58.1062 46.4764 58.0119C46.61 57.9726 46.6768 57.8626 46.6768 57.729C46.6768 57.6897 46.6611 57.674 46.6611 57.6347L46.6571 57.6386ZM56.1572 54.7706V48.3704C56.1572 48.1622 56.055 48.0482 55.9057 48.0482C55.89 48.0482 55.8547 48.0482 55.8389 48.0679L54.1888 48.39C53.9884 48.4293 53.902 48.5393 53.902 48.7869V54.9041C53.902 55.9217 53.7173 56.735 52.2322 56.735C50.92 56.735 50.531 56.1299 50.531 54.9238V48.3547C50.531 48.1661 50.4485 48.0522 50.2796 48.0522H50.2128L48.5626 48.39C48.378 48.4293 48.2758 48.5393 48.2758 48.7672V54.7902C48.2758 57.454 49.5056 58.4519 52.2362 58.4519C55.2025 58.4519 56.1611 57.1122 56.1611 54.7706H56.1572Z" fill="black"/>
<path fill-rule="evenodd" clip-rule="evenodd" d="M59.4849 69.3742V66.3843C59.4849 66.3451 59.4849 66.3058 59.4849 66.2625C59.4849 66.2193 59.4771 66.18 59.4614 66.1447C59.4496 66.1093 59.426 66.0779 59.3946 66.0582C59.3632 66.0386 59.3199 66.0268 59.2649 66.0268C59.2139 66.0268 59.1706 66.0386 59.1392 66.0582C59.1078 66.0779 59.0842 66.1093 59.0724 66.1447C59.0567 66.18 59.0488 66.2193 59.0449 66.2625C59.0449 66.3058 59.0449 66.3451 59.0449 66.3843V69.3742C59.0449 69.4607 59.0371 69.5589 59.0253 69.6768C59.0135 69.7946 58.9781 69.9046 58.9231 70.0107C58.8681 70.1168 58.7856 70.2072 58.6756 70.2818C58.5656 70.3564 58.4124 70.3918 58.2238 70.3918C58.0705 70.3918 57.9448 70.3643 57.8427 70.3132C57.7405 70.2622 57.658 70.1954 57.5912 70.1168C57.5244 70.0343 57.4773 69.9439 57.4459 69.8457C57.4144 69.7435 57.3948 69.6492 57.3791 69.555C57.3712 69.5039 57.3555 69.4489 57.3319 69.3939C57.3083 69.3389 57.2573 69.3114 57.1748 69.3114C57.1433 69.3114 57.1001 69.3232 57.049 69.3507C56.994 69.3782 56.9665 69.4371 56.9665 69.5314C56.9665 69.5353 56.9665 69.555 56.9665 69.5903C56.9665 69.6257 56.9744 69.6689 56.9822 69.7239C56.9901 69.7789 57.0019 69.8418 57.0176 69.9086C57.0333 69.9753 57.0569 70.0461 57.0844 70.1129C57.1433 70.2582 57.2219 70.3722 57.3162 70.4586C57.4105 70.545 57.5048 70.6079 57.6069 70.6511C57.7052 70.6943 57.8073 70.7218 57.9055 70.7336C58.0038 70.7454 58.0941 70.7533 58.1648 70.7533C58.2984 70.7533 58.4438 70.7415 58.597 70.714C58.7502 70.6904 58.8956 70.6275 59.0253 70.5332C59.1549 70.439 59.2649 70.2975 59.3474 70.1168C59.4339 69.9361 59.4732 69.6885 59.4732 69.3703L59.4849 69.3742ZM60.4004 67.618V69.5275C60.4004 69.5746 60.4004 69.6335 60.4004 69.7082C60.4004 69.7789 60.4122 69.8575 60.4279 69.94C60.4436 70.0225 60.4672 70.1011 60.5025 70.1836C60.5379 70.2661 60.589 70.3407 60.6518 70.4075C60.6793 70.439 60.7147 70.4743 60.7658 70.5136C60.8168 70.5529 60.8758 70.5922 60.9504 70.6275C61.0251 70.6629 61.1115 70.6943 61.2097 70.7218C61.3079 70.7493 61.4219 70.7611 61.5515 70.7611C61.7087 70.7611 61.8423 70.7415 61.9601 70.7061C62.0741 70.6708 62.1762 70.6236 62.2587 70.5686C62.3452 70.5136 62.4159 70.4507 62.4788 70.3879C62.5377 70.3211 62.5927 70.2582 62.6438 70.1914V70.435C62.6438 70.4743 62.6438 70.5097 62.6438 70.549C62.6438 70.5883 62.6516 70.6236 62.6634 70.655C62.6752 70.6865 62.6909 70.714 62.7184 70.7336C62.7459 70.7533 62.7852 70.7611 62.8363 70.7611C62.8874 70.7611 62.9267 70.7533 62.9542 70.7336C62.9817 70.714 63.0013 70.6904 63.0131 70.655C63.0249 70.6236 63.0327 70.5883 63.0367 70.549C63.0367 70.5097 63.0367 70.4704 63.0367 70.435V67.6219C63.0367 67.5827 63.0367 67.5434 63.0367 67.508C63.0367 67.4687 63.0288 67.4334 63.0131 67.4019C63.0013 67.3705 62.9817 67.343 62.9542 67.3233C62.9267 67.3037 62.8874 67.2958 62.8363 67.2958C62.7852 67.2958 62.7459 67.3076 62.7184 67.3273C62.6909 67.3469 62.6752 67.3744 62.6634 67.4059C62.6516 67.4373 62.6477 67.4726 62.6438 67.5119C62.6438 67.5512 62.6438 67.5866 62.6438 67.6219V68.8045C62.6438 69.0874 62.6359 69.3035 62.6202 69.4528C62.6045 69.606 62.5731 69.7278 62.5259 69.826C62.4395 70.0146 62.3059 70.16 62.133 70.2622C61.9562 70.3643 61.7755 70.4154 61.5869 70.4154C61.4533 70.4154 61.3276 70.3879 61.2137 70.3368C61.0997 70.2857 61.0054 70.2072 60.9347 70.1089C60.8718 70.0225 60.8365 69.9243 60.8208 69.8064C60.805 69.6885 60.7972 69.5628 60.7972 69.4253V67.6219C60.7972 67.5827 60.7972 67.5434 60.7972 67.508C60.7972 67.4687 60.7893 67.4334 60.7775 67.4019C60.7658 67.3705 60.75 67.343 60.7225 67.3233C60.695 67.3037 60.6558 67.2958 60.6047 67.2958C60.5536 67.2958 60.5143 67.3076 60.4868 67.3273C60.4593 67.3469 60.4397 67.3744 60.4279 67.4059C60.4161 67.4373 60.4082 67.4726 60.4043 67.5119C60.4043 67.5512 60.4043 67.5866 60.4043 67.6219L60.4004 67.618ZM66.5019 69.7514C66.5019 69.5353 66.4469 69.3664 66.3409 69.2446C66.2308 69.1228 66.0973 69.0285 65.9322 68.9578C65.7672 68.887 65.5904 68.832 65.4018 68.7967C65.2133 68.7613 65.0325 68.7142 64.8714 68.667C64.7064 68.6199 64.5729 68.557 64.4628 68.4824C64.3528 68.4077 64.2978 68.2977 64.2978 68.1484C64.2978 68.0581 64.3214 67.9795 64.3646 67.9166C64.4078 67.8498 64.4668 67.7948 64.5454 67.7516C64.62 67.7084 64.7064 67.673 64.8047 67.6534C64.9029 67.6337 65.005 67.6219 65.115 67.6219C65.3154 67.6219 65.4922 67.6612 65.6454 67.7398C65.7987 67.8184 65.9047 67.9323 65.9558 68.0816C65.9873 68.1681 66.0148 68.2231 66.0423 68.2427C66.0698 68.2663 66.1051 68.2781 66.1483 68.2781C66.1876 68.2781 66.2191 68.2702 66.2426 68.2545C66.2662 68.2388 66.2859 68.2231 66.2976 68.2034C66.3094 68.1838 66.3212 68.1681 66.3251 68.1484C66.3291 68.1327 66.333 68.117 66.333 68.1091C66.333 68.0973 66.3212 68.0463 66.3016 67.9598C66.278 67.8734 66.2269 67.7791 66.1444 67.6809C66.0619 67.5827 65.9362 67.4962 65.7712 67.4137C65.6062 67.3351 65.3822 67.2958 65.0993 67.2958C64.8322 67.2958 64.6239 67.3351 64.4668 67.4098C64.3096 67.4844 64.1918 67.5787 64.1092 67.6809C64.0267 67.787 63.9717 67.8891 63.9482 67.9913C63.9246 68.0934 63.9128 68.172 63.9128 68.2231C63.9128 68.3645 63.9442 68.4863 64.0071 68.5884C64.07 68.6906 64.1446 68.7731 64.2271 68.832C64.2939 68.8792 64.3607 68.9185 64.4314 68.946C64.5021 68.9774 64.5807 69.0049 64.6711 69.0324C64.7614 69.0599 64.8714 69.0874 64.9932 69.1189C65.115 69.1503 65.2643 69.1856 65.4333 69.2328C65.4844 69.2446 65.5511 69.2642 65.6258 69.2878C65.7004 69.3114 65.7751 69.3467 65.8458 69.3899C65.9165 69.4332 65.9755 69.4921 66.0265 69.5589C66.0776 69.6257 66.1012 69.7121 66.1012 69.8143C66.1012 69.8928 66.0815 69.9675 66.0462 70.0421C66.0108 70.1168 65.9519 70.1836 65.8812 70.2425C65.8065 70.3014 65.7122 70.3486 65.5983 70.3879C65.4844 70.4232 65.3429 70.4429 65.1858 70.4429C65.1308 70.4429 65.06 70.439 64.9736 70.4311C64.8872 70.4232 64.8047 70.3997 64.7143 70.3604C64.6279 70.3211 64.5414 70.2661 64.4589 70.1914C64.3764 70.1168 64.3057 70.0146 64.2507 69.8889C64.2271 69.8339 64.2035 69.7828 64.18 69.7435C64.1525 69.7003 64.1092 69.6807 64.0503 69.6807C64.0032 69.6807 63.9599 69.6964 63.9167 69.7278C63.8735 69.7593 63.8539 69.8025 63.8539 69.8575C63.8539 69.9518 63.8853 70.0579 63.9521 70.1757C64.0189 70.2936 64.1014 70.3957 64.2075 70.4861C64.2468 70.5215 64.2939 70.5529 64.3489 70.5883C64.4039 70.6236 64.4668 70.6511 64.5454 70.6786C64.62 70.7061 64.7104 70.7258 64.8086 70.7415C64.9068 70.7572 65.0247 70.769 65.1622 70.769C65.4608 70.769 65.7044 70.7297 65.8851 70.6511C66.0658 70.5725 66.2033 70.4782 66.2976 70.3682C66.3919 70.2582 66.4509 70.1482 66.4784 70.0343C66.5059 69.9203 66.5216 69.83 66.5216 69.7632L66.5019 69.7514ZM67.8142 67.3666V66.7576C67.8142 66.6397 67.8063 66.5415 67.7867 66.4708C67.771 66.4001 67.712 66.3608 67.6099 66.3608C67.5077 66.3608 67.4527 66.4001 67.437 66.4747C67.4213 66.5533 67.4134 66.6515 67.4134 66.7733V67.3626H67.2091C67.1659 67.3626 67.1109 67.3705 67.048 67.3823C66.9852 67.3941 66.9538 67.4373 66.9538 67.5119C66.9538 67.5473 66.9616 67.5709 66.9813 67.5905C66.997 67.6102 67.0205 67.6219 67.048 67.6337C67.0756 67.6416 67.1031 67.6494 67.1345 67.6494C67.1659 67.6494 67.1895 67.6494 67.2131 67.6494H67.4174V69.8732C67.4174 69.9714 67.4213 70.0696 67.4292 70.1718C67.437 70.27 67.4645 70.3643 67.5117 70.4429C67.5588 70.5254 67.6295 70.5922 67.7317 70.6433C67.8299 70.6983 67.9713 70.7218 68.156 70.7218C68.2935 70.7218 68.4074 70.7061 68.4939 70.6786C68.5803 70.6511 68.6196 70.6 68.6196 70.5293C68.6196 70.4861 68.6078 70.4507 68.5803 70.4193C68.5528 70.3879 68.5175 70.3761 68.4703 70.3761C68.4625 70.3761 68.4428 70.3761 68.4192 70.3761C68.3917 70.3761 68.3642 70.38 68.3367 70.3839C68.3092 70.3879 68.2817 70.3918 68.2542 70.3918C68.2267 70.3918 68.2071 70.3918 68.1953 70.3918C68.0303 70.3918 67.9242 70.3447 67.881 70.2543C67.8378 70.1639 67.8142 70.0186 67.8142 69.8182V67.6377H68.1796C68.2228 67.6377 68.2778 67.6298 68.3407 67.618C68.4035 67.6062 68.435 67.563 68.435 67.4884C68.435 67.453 68.4271 67.4294 68.4074 67.4098C68.3917 67.3901 68.3682 67.3784 68.3407 67.3666C68.3132 67.3587 68.2857 67.3509 68.2542 67.3509C68.2228 67.3509 68.1992 67.3509 68.1756 67.3509H67.8103L67.8142 67.3666ZM71.083 67.0169V67.3666H70.7373C70.7373 67.3666 70.698 67.3666 70.6705 67.3666C70.643 67.3666 70.6155 67.3744 70.584 67.3823C70.5565 67.3901 70.533 67.4059 70.5133 67.4255C70.4937 67.4451 70.4858 67.4726 70.4858 67.5041C70.4858 67.5434 70.4937 67.5709 70.5133 67.5905C70.533 67.6102 70.5565 67.6219 70.5801 67.6337C70.6076 67.6416 70.6351 67.6494 70.6626 67.6494C70.6901 67.6494 70.7176 67.6494 70.7373 67.6494H71.083V70.4311C71.083 70.4704 71.083 70.5057 71.083 70.5411C71.083 70.5765 71.0909 70.6118 71.1066 70.6433C71.1184 70.6747 71.138 70.7022 71.1655 70.7218C71.193 70.7415 71.2323 70.7493 71.2834 70.7493C71.3777 70.7493 71.4366 70.714 71.4523 70.6433C71.4681 70.5725 71.4798 70.5018 71.4798 70.4272V67.6455H71.9159C71.9159 67.6455 71.9513 67.6455 71.9788 67.6455C72.0063 67.6455 72.0338 67.6377 72.0652 67.6298C72.0927 67.6219 72.1202 67.6062 72.1399 67.5866C72.1635 67.5669 72.1713 67.5394 72.1713 67.5001C72.1713 67.4648 72.1635 67.4412 72.1438 67.4216C72.1281 67.4019 72.1045 67.3901 72.077 67.3784C72.0495 67.3705 72.022 67.3626 71.9906 67.3626C71.9592 67.3626 71.9356 67.3626 71.912 67.3626H71.4759V67.068C71.4759 66.9658 71.4798 66.8715 71.4877 66.7851C71.4956 66.6987 71.5191 66.6279 71.5545 66.5651C71.5898 66.5022 71.6449 66.4551 71.7156 66.4236C71.7863 66.3922 71.8806 66.3765 72.0024 66.3765C72.0102 66.3765 72.0299 66.3765 72.0535 66.3765C72.081 66.3765 72.1085 66.3804 72.1399 66.3843C72.1713 66.3883 72.1988 66.3922 72.2263 66.3922C72.2538 66.3922 72.2735 66.3922 72.2853 66.3922C72.3324 66.3922 72.3717 66.3765 72.4031 66.3411C72.4346 66.3058 72.4503 66.2704 72.4503 66.2272C72.4503 66.2154 72.4463 66.1918 72.4346 66.1643C72.4228 66.1329 72.3992 66.1093 72.3599 66.0857C72.3206 66.0661 72.2538 66.0465 72.1595 66.0307C72.0652 66.015 71.9749 66.0072 71.8806 66.0072C71.7431 66.0072 71.6056 66.0386 71.472 66.1015C71.3384 66.1643 71.2402 66.2586 71.1734 66.3843C71.1498 66.4197 71.1302 66.4786 71.1066 66.5651C71.083 66.6515 71.0752 66.7969 71.0752 66.9973L71.083 67.0169ZM75.4598 69.0285C75.4598 69.3624 75.4166 69.6335 75.3341 69.8457C75.2476 70.0579 75.1337 70.2347 74.9923 70.3682C74.843 70.5057 74.6819 70.604 74.5012 70.6629C74.3244 70.7218 74.1397 70.7533 73.9472 70.7533C73.7075 70.7533 73.4954 70.71 73.3068 70.6236C73.1182 70.5372 72.961 70.4193 72.8314 70.27C72.7017 70.1168 72.6035 69.94 72.5328 69.7318C72.4621 69.5235 72.4306 69.2917 72.4306 69.0403C72.4306 68.8595 72.4542 68.671 72.4974 68.4667C72.5406 68.2624 72.6192 68.0738 72.7292 67.897C72.8392 67.7241 72.9925 67.5787 73.1889 67.4609C73.3853 67.3469 73.6368 67.288 73.9472 67.288C74.1161 67.288 74.2851 67.3076 74.4461 67.3509C74.6112 67.3941 74.7722 67.4844 74.9333 67.6259C74.9883 67.6769 75.0512 67.7398 75.1141 67.8105C75.1769 67.8813 75.2359 67.9716 75.2869 68.0816C75.338 68.1916 75.3812 68.3213 75.4127 68.4745C75.4441 68.6277 75.4598 68.8124 75.4598 69.0246V69.0285ZM75.0433 69.0481C75.0433 68.9971 75.0433 68.9263 75.0355 68.832C75.0276 68.7377 75.0119 68.6395 74.9883 68.5334C74.9648 68.4274 74.9294 68.3174 74.8823 68.2073C74.8351 68.0973 74.7722 67.9991 74.6937 67.9088C74.6151 67.8223 74.5129 67.7477 74.3951 67.6927C74.2772 67.6337 74.1318 67.6062 73.9629 67.6062C73.6329 67.6062 73.3657 67.728 73.1614 67.9677C72.9571 68.2073 72.8549 68.5531 72.8549 69.0049C72.8549 69.2328 72.8825 69.4332 72.9414 69.61C73.0003 69.7868 73.075 69.9361 73.1732 70.0579C73.2714 70.1797 73.3893 70.27 73.5229 70.3368C73.6564 70.3997 73.8057 70.4311 73.9668 70.4311C74.1436 70.4311 74.3008 70.3957 74.4383 70.3211C74.5719 70.2504 74.6858 70.1482 74.7762 70.0225C74.8665 69.8968 74.9373 69.7514 74.9805 69.5825C75.0276 69.4135 75.0473 69.2328 75.0473 69.0442L75.0433 69.0481ZM76.662 69.1189C76.662 69.1189 76.662 69.0521 76.6699 68.9735C76.6778 68.8949 76.6817 68.8006 76.6895 68.6985C76.6974 68.5963 76.7131 68.4942 76.7328 68.3881C76.7524 68.282 76.776 68.2034 76.7996 68.1406C76.8467 68.0345 76.8978 67.952 76.9567 67.893C77.0117 67.8341 77.0706 67.7909 77.1256 67.7634C77.1807 67.7359 77.2317 67.7202 77.2789 67.7123C77.326 67.7045 77.3614 67.7044 77.3928 67.7044C77.4596 67.7044 77.5225 67.7123 77.5893 67.732C77.5932 67.732 77.6089 67.7359 77.6364 67.7437C77.6639 67.7516 77.6914 67.7595 77.7189 67.7712C77.7464 67.7791 77.7739 67.787 77.8014 67.7948C77.8289 67.8027 77.8446 67.8027 77.8486 67.8027C77.8839 67.8027 77.9232 67.787 77.9625 67.7516C78.0018 67.7162 78.0254 67.6691 78.0254 67.6102C78.0254 67.5591 78.0018 67.5159 77.9586 67.4766C77.9154 67.4373 77.8603 67.4059 77.7975 67.3823C77.7346 67.3548 77.6678 67.3351 77.5971 67.3233C77.5264 67.3076 77.4635 67.2998 77.4085 67.2998C77.2749 67.2998 77.161 67.3273 77.0706 67.3823C76.9803 67.4373 76.9056 67.5041 76.8467 67.5787C76.7878 67.6534 76.7406 67.7359 76.7053 67.8223C76.6699 67.9088 76.6424 67.9795 76.6188 68.0384V67.5787C76.6188 67.5159 76.611 67.4491 76.5952 67.3862C76.5795 67.3233 76.5285 67.2919 76.442 67.2919C76.3556 67.2919 76.3045 67.3233 76.2888 67.3862C76.2731 67.4491 76.2652 67.5159 76.2652 67.5787V70.549C76.2652 70.5843 76.2691 70.6197 76.2809 70.6511C76.2927 70.6825 76.3124 70.7101 76.3399 70.7297C76.3674 70.7493 76.4106 70.7611 76.4656 70.7611C76.5167 70.7611 76.5599 70.7493 76.5874 70.7297C76.6149 70.7101 76.6345 70.6825 76.6463 70.6511C76.6581 70.6197 76.662 70.5843 76.662 70.549V69.1189ZM82.4768 67.5119L81.3806 70.2268L80.3434 67.5552C80.312 67.4726 80.2845 67.4098 80.257 67.3587C80.2295 67.3076 80.1784 67.2841 80.1037 67.2841C80.0409 67.2841 79.9937 67.3037 79.9584 67.343C79.923 67.3823 79.9073 67.4255 79.9073 67.4687C79.9073 67.5001 79.9112 67.5276 79.9191 67.5512C79.9269 67.5787 79.9427 67.618 79.9662 67.6809L81.1724 70.6708L80.9367 71.2522C80.8895 71.3622 80.8385 71.4526 80.7795 71.5194C80.7206 71.5862 80.6302 71.6176 80.5045 71.6176C80.4809 71.6176 80.4416 71.6176 80.3788 71.6098C80.3159 71.6058 80.2727 71.6019 80.2452 71.6019C80.1823 71.6019 80.1391 71.6216 80.1116 71.6608C80.0841 71.7001 80.0684 71.7394 80.0684 71.7826C80.0684 71.8337 80.0841 71.873 80.1155 71.9044C80.147 71.9359 80.1902 71.9594 80.2373 71.9752C80.2845 71.9909 80.3355 72.0027 80.3906 72.0066C80.4456 72.0105 80.4927 72.0144 80.532 72.0144C80.6027 72.0144 80.6695 72.0066 80.7402 71.9869C80.8109 71.9712 80.8777 71.9359 80.9445 71.8887C81.0113 71.8416 81.0781 71.7708 81.141 71.6805C81.2038 71.5901 81.2667 71.4723 81.3256 71.3308L82.8147 67.6377C82.8382 67.5827 82.85 67.5434 82.8618 67.5237C82.8697 67.5041 82.8736 67.4766 82.8736 67.4491C82.8736 67.4137 82.8579 67.3784 82.8225 67.343C82.7872 67.3076 82.744 67.288 82.6929 67.288C82.6339 67.288 82.5868 67.3076 82.5632 67.3469C82.5357 67.3862 82.5082 67.4412 82.4768 67.5119ZM86.1778 69.0285C86.1778 68.8163 86.1621 68.6317 86.1307 68.4784C86.0992 68.3252 86.056 68.1956 86.0049 68.0856C85.9538 67.9755 85.8949 67.8852 85.8321 67.8145C85.7692 67.7437 85.7103 67.6809 85.6513 67.6298C85.4902 67.4884 85.3292 67.398 85.1641 67.3548C84.9991 67.3116 84.8341 67.2919 84.6652 67.2919C84.3548 67.2919 84.1033 67.3508 83.9069 67.4648C83.7105 67.5787 83.5572 67.7241 83.4472 67.9009C83.3372 68.0738 83.2586 68.2663 83.2154 68.4706C83.1722 68.6749 83.1486 68.8674 83.1486 69.0442C83.1486 69.2957 83.184 69.5275 83.2508 69.7357C83.3176 69.9439 83.4158 70.1246 83.5494 70.2739C83.679 70.4232 83.8401 70.545 84.0248 70.6275C84.2134 70.714 84.4255 70.7572 84.6652 70.7572C84.8577 70.7572 85.0424 70.7258 85.2192 70.6668C85.396 70.6079 85.561 70.5097 85.7103 70.3722C85.8556 70.2347 85.9696 70.0618 86.0521 69.8496C86.1385 69.6375 86.1778 69.3624 86.1778 69.0324V69.0285ZM85.7613 69.0481C85.7613 69.2406 85.7378 69.4214 85.6945 69.5864C85.6474 69.7553 85.5806 69.9007 85.4902 70.0264C85.3999 70.1521 85.2859 70.2504 85.1524 70.325C85.0188 70.3957 84.8616 70.435 84.6809 70.435C84.5198 70.435 84.3705 70.4036 84.2369 70.3407C84.1033 70.2779 83.9855 70.1836 83.8873 70.0618C83.789 69.94 83.7105 69.7907 83.6555 69.6139C83.6004 69.4371 83.569 69.2367 83.569 69.0088C83.569 68.557 83.6712 68.2113 83.8755 67.9716C84.0798 67.732 84.3469 67.6102 84.677 67.6102C84.8459 67.6102 84.9913 67.6377 85.1091 67.6966C85.227 67.7555 85.3292 67.8262 85.4077 67.9127C85.4863 67.9991 85.5531 68.0973 85.5963 68.2113C85.6435 68.3213 85.6749 68.4313 85.7024 68.5374C85.726 68.6435 85.7417 68.7417 85.7496 68.836C85.7574 68.9263 85.7574 68.9971 85.7574 69.0521L85.7613 69.0481ZM86.9282 67.618V69.5275C86.9282 69.5746 86.9282 69.6335 86.9282 69.7082C86.9282 69.7789 86.94 69.8575 86.9557 69.94C86.9714 70.0225 86.995 70.1011 87.0304 70.1836C87.0657 70.2661 87.1168 70.3407 87.1797 70.4075C87.2072 70.439 87.2425 70.4743 87.2936 70.5136C87.3447 70.5529 87.4075 70.5922 87.4783 70.6275C87.5529 70.6629 87.6394 70.6943 87.7376 70.7218C87.8358 70.7493 87.9497 70.7611 88.0794 70.7611C88.2365 70.7611 88.3701 70.7415 88.488 70.7061C88.6019 70.6708 88.7041 70.6236 88.7866 70.5686C88.873 70.5136 88.9437 70.4507 89.0066 70.3879C89.0695 70.3211 89.1205 70.2582 89.1716 70.1914V70.435C89.1716 70.4743 89.1716 70.5097 89.1716 70.549C89.1716 70.5883 89.1795 70.6236 89.1913 70.655C89.203 70.6865 89.2188 70.714 89.2463 70.7336C89.2738 70.7533 89.313 70.7611 89.3641 70.7611C89.4152 70.7611 89.4545 70.7533 89.482 70.7336C89.5095 70.714 89.5291 70.6904 89.5409 70.655C89.5527 70.6236 89.5606 70.5883 89.5645 70.549C89.5645 70.5097 89.5645 70.4704 89.5645 70.435V67.6219C89.5645 67.5827 89.5645 67.5434 89.5645 67.508C89.5645 67.4687 89.5566 67.4334 89.5409 67.4019C89.5291 67.3705 89.5095 67.343 89.482 67.3233C89.4545 67.3037 89.4152 67.2958 89.3641 67.2958C89.313 67.2958 89.2738 67.3076 89.2463 67.3273C89.2188 67.3469 89.203 67.3744 89.1913 67.4059C89.1795 67.4373 89.1756 67.4726 89.1716 67.5119C89.1716 67.5512 89.1716 67.5866 89.1716 67.6219V68.8045C89.1716 69.0874 89.1638 69.3035 89.148 69.4528C89.1323 69.606 89.1009 69.7278 89.0537 69.826C88.9673 70.0146 88.8337 70.16 88.6609 70.2622C88.4841 70.3643 88.3033 70.4154 88.1147 70.4154C87.9812 70.4154 87.8554 70.3879 87.7415 70.3368C87.6276 70.2857 87.5333 70.2072 87.4626 70.1089C87.3997 70.0225 87.3643 69.9243 87.3486 69.8064C87.3329 69.6885 87.325 69.5628 87.325 69.4253V67.6219C87.325 67.5827 87.325 67.5434 87.325 67.508C87.325 67.4687 87.3172 67.4334 87.3054 67.4019C87.2936 67.3705 87.2779 67.343 87.2504 67.3233C87.2229 67.3037 87.1836 67.2958 87.1325 67.2958C87.0815 67.2958 87.0422 67.3076 87.0147 67.3273C86.9872 67.3469 86.9675 67.3744 86.9557 67.4059C86.9439 67.4373 86.9361 67.4726 86.9322 67.5119C86.9322 67.5512 86.9322 67.5866 86.9322 67.6219L86.9282 67.618Z" fill="#333333"/>
</g>
<rect x="1" y="1" width="110" height="110" rx="9" stroke="black" stroke-opacity="0.1" stroke-width="2"/>
<defs>
<clipPath id="clip0_766_82">
<rect x="2" y="2" width="108" height="108" rx="8" fill="white"/>
</clipPath>
</defs>
</svg>
