<svg width="112" height="112" viewBox="0 0 112 112" fill="none" xmlns="http://www.w3.org/2000/svg">
<g clip-path="url(#clip0_766_81)">
<rect x="2" y="2" width="108" height="108" rx="8" fill="white"/>
<path fill-rule="evenodd" clip-rule="evenodd" d="M66.8202 33.2201C60.7201 36.7845 54.62 40.3489 48.5156 43.9133C47.5674 44.4763 46.708 44.8912 48.2616 47.2195C53.9638 57.0618 59.666 66.9041 65.3724 76.7464C66.5281 78.6429 67.053 78.5836 68.8352 77.4915C74.4485 74.3038 79.9475 70.9892 85.5608 67.7973C87.8298 66.7771 87.8341 65.9516 86.3524 63.8265C80.8746 54.2043 75.2867 44.6372 69.8089 35.015C69.0427 33.5376 68.2468 32.5301 66.8202 33.2201Z" fill="#DEDEDD"/>
<path fill-rule="evenodd" clip-rule="evenodd" d="M81.1244 59.9573C81.971 62.3788 82.8134 64.8002 83.6601 67.2216C83.931 68.5593 83.4526 69.4568 81.6789 70.0028C79.448 70.6802 77.2298 71.4675 74.9988 72.1491C75.6042 71.8655 76.2138 71.5776 76.8191 71.294C77.107 71.0061 77.3737 70.7437 77.6616 70.4558C79.0839 69.9986 80.5232 69.516 81.9456 69.0588C82.6526 68.8429 83.1394 68.4111 82.8558 67.2343C82.6187 66.4892 82.3774 65.74 82.1403 64.9949L82.1319 64.2245L81.1286 59.9573H81.1244ZM58.2479 66.6543L60.5931 74.1514C61.0884 75.341 61.4016 75.9209 63.0441 75.2097C64.8433 74.6679 66.6339 74.0583 68.4331 73.5164L69.974 73.4191L73.6146 72.619C70.1137 73.7874 66.5154 74.9811 62.9171 76.1792C60.6058 77.0131 60.2544 75.6839 59.8819 74.6213L55.2846 59.5848L57.4732 65.9135L58.2436 66.6543H58.2479ZM56.8763 38.0757L60.1486 36.666C56.961 37.7666 53.7691 38.8673 50.5814 39.9637C49.7179 40.2854 49.1972 40.8865 49.43 42.093C50.1412 44.1038 50.8524 46.1146 51.5678 48.1254C51.2969 46.8173 51.0259 45.505 50.755 44.1969C50.8185 44.0953 50.8524 43.9683 50.81 43.8371C50.6873 43.4392 50.319 42.529 50.12 41.8644C49.866 41.204 50.3232 40.7426 51.1445 40.4547C52.842 39.9087 54.5057 39.3287 56.2074 38.7826C56.3768 38.5413 56.5884 38.3297 56.8763 38.0757ZM77.8013 49.6705C77.6489 48.8704 72.9034 34.9727 72.6959 34.3038C71.8916 32.9196 70.9392 33.182 69.9782 33.4995L64.5427 35.2394C65.7957 34.9642 67.0996 34.6637 68.3526 34.3885C68.577 34.4647 68.7971 34.5451 69.0215 34.6213C69.5422 34.4181 70.0629 34.2107 70.5836 34.0075C71.4217 33.69 71.9636 33.9821 72.2134 34.8711C72.3869 35.4383 74.6771 42.275 74.8507 42.8423L75.6465 43.7609L77.797 49.6705H77.8013Z" fill="black"/>
<path fill-rule="evenodd" clip-rule="evenodd" d="M65.9143 51.8591C63.4082 49.7891 58.6797 51.0675 59.4078 55.7579C61.1857 60.3426 67.2097 60.8463 72.061 63.1323C72.9499 59.9827 73.7035 56.7528 74.1141 53.3535C74.021 43.6889 64.7459 47.0375 65.91 51.8634L65.9143 51.8591Z" fill="#DA251D"/>
<path fill-rule="evenodd" clip-rule="evenodd" d="M89.8618 57.6968C92.4314 57.9211 95.0856 57.4724 95.746 56.304C96.2794 55.0764 96.1651 53.2773 93.5108 52.8455C92.3001 52.4941 91.9826 52.1385 92.5541 51.7872C93.1934 51.4019 93.9426 51.6178 94.8062 52.4264L95.3015 50.1193C93.1214 49.6536 91.3773 49.878 90.5264 50.2378C89.1802 50.9109 87.7494 52.8836 89.9549 54.4541C90.8439 54.8859 91.5932 54.725 91.9911 55.2584C92.3298 56.4226 90.5518 56.1051 89.6713 55.0764C89.5274 55.4743 89.3877 55.9442 89.248 56.2829L85.0528 47.5835L78.6183 48.2651L75.782 59.3858L80.6926 58.8652L81.0736 56.8755L84.5829 56.503L85.2518 58.3487L89.8787 57.8576L89.8703 57.701L89.8618 57.6968ZM82.17 51.6729L83.3341 54.2678L81.6366 54.4499L82.17 51.6729Z" fill="#DA251D"/>
<path fill-rule="evenodd" clip-rule="evenodd" d="M38.4235 58.9117C38.5209 59.8473 38.6225 60.7871 38.7241 61.7226C36.5355 61.9554 34.3427 62.1883 32.1541 62.4211C31.9763 62.0147 31.8027 61.6083 31.6249 61.2019L29.1019 61.4686L28.8479 62.8232L22.0409 63.5471C21.5667 61.113 20.7074 60.9352 19.8396 60.8336L20.1528 63.7757L16.817 64.1313C16.5461 61.566 16.2709 59.0006 16 56.431C17.1218 56.3125 18.2436 56.194 19.3654 56.0754C19.4543 56.9179 19.5432 57.756 19.6321 58.5985C20.737 58.463 21.3381 57.6587 21.2027 55.8807C22.3499 55.7579 23.4971 55.6352 24.6443 55.5167C24.7501 57.1253 24.4961 58.5096 23.459 59.3901C24.2972 59.9827 25.1396 60.8929 25.5841 62.3788C26.1556 59.9954 26.7736 57.5571 27.3451 55.178C28.958 55.0087 30.5709 54.8351 32.1795 54.6658C33.2039 56.8798 34.2242 59.0895 35.2486 61.3035C35.0031 59.0091 34.7618 56.7147 34.5162 54.4202C36.1206 54.2509 37.7208 54.0816 39.3252 53.908C41.9117 53.5524 43.5246 55.7453 41.9583 57.6671C42.6907 58.5138 43.4145 59.6525 43.7998 61.2442C42.6102 61.3712 41.4164 61.4982 40.2269 61.6252C39.956 59.7499 39.3972 58.7339 38.4235 58.9202V58.9117ZM29.9697 57.629L29.5422 59.6144L30.8587 59.4747L29.9697 57.629ZM38.0552 55.7072C38.1103 56.2067 38.1611 56.7062 38.2161 57.2057C38.8723 57.0576 39.1982 56.7655 39.1855 56.3337C39.0458 55.5548 38.4405 55.6183 38.0552 55.7114V55.7072ZM54.3702 55.9654C54.2432 54.7674 54.1162 53.5651 53.9892 52.3671C55.0856 52.2528 56.1778 52.1343 57.2742 52.02C57.4181 53.3789 57.5621 54.7335 57.706 56.0924C57.6679 58.5688 56.4995 59.9743 54.2728 60.1521C52.0461 60.3426 50.6195 59.3181 50.0607 56.9052C49.9168 55.5463 49.7729 54.1916 49.629 52.8328C50.7254 52.7185 51.8175 52.5999 52.914 52.4856C53.041 53.6837 53.168 54.8859 53.295 56.0839C53.405 57.1888 54.4041 57.1888 54.3702 55.9696V55.9654ZM49.2564 52.8666L42.479 53.5863L42.8431 57.0279L44.6041 56.8417L45.057 61.0961L48.3928 60.7405L47.9357 56.431L49.6417 56.249L49.2564 52.8624V52.8666Z" fill="black"/>
</g>
<rect x="1" y="1" width="110" height="110" rx="9" stroke="black" stroke-opacity="0.1" stroke-width="2"/>
<defs>
<clipPath id="clip0_766_81">
<rect x="2" y="2" width="108" height="108" rx="8" fill="white"/>
</clipPath>
</defs>
</svg>
