<svg width="112" height="112" viewBox="0 0 112 112" fill="none" xmlns="http://www.w3.org/2000/svg">
<g clip-path="url(#clip0_752_565)">
<rect x="2" y="2" width="108" height="108" rx="8" fill="white"/>
<g clip-path="url(#clip1_752_565)">
<mask id="mask0_752_565" style="mask-type:luminance" maskUnits="userSpaceOnUse" x="16" y="44" width="80" height="25">
<path d="M95.6921 44H16.3652V68.8705H95.6921V44Z" fill="white"/>
</mask>
<g mask="url(#mask0_752_565)">
<path d="M29.8159 68.4428C28.9356 68.4428 28.0612 68.3274 27.2023 68.0974C23.6816 67.1541 20.8327 65.4973 18.964 63.3061C17.3944 61.4676 16.5255 59.2892 16.382 56.8312C16.0816 51.7254 19.8692 46.0062 24.1764 45.0628C25.2224 44.8341 26.2321 44.9052 27.1775 45.2733C27.6998 45.4765 28.196 45.7641 28.6539 46.1295C31.2876 48.2356 33.745 48.9919 35.7189 49.5993C36.0608 49.7046 36.3847 49.8045 36.6985 49.9071L36.7394 49.9198C37.5131 50.1753 38.4022 50.5085 39.1297 51.0422C40.4284 51.999 41.0634 53.5009 41.1901 55.912C41.3423 58.8172 40.4365 61.6795 38.6389 63.9726C36.9063 66.1832 34.5087 67.6958 31.8877 68.2309C31.1951 68.3717 30.5031 68.4414 29.8159 68.4414V68.4428ZM25.3565 45.4396C25.0051 45.4396 24.6478 45.4792 24.285 45.5583C22.3822 45.9753 20.4559 47.4631 18.9996 49.6409C17.5198 51.8528 16.7507 54.463 16.8882 56.8017C17.025 59.1471 17.853 61.2243 19.3496 62.9769C21.1511 65.0903 23.9116 66.6914 27.3331 67.608C28.7874 67.9975 30.2859 68.0404 31.7865 67.7354C34.2894 67.2238 36.5811 65.7769 38.2399 63.6608C39.9618 61.4643 40.83 58.722 40.6839 55.9395C40.5665 53.694 39.9946 52.3101 38.8299 51.4519C38.1695 50.9678 37.3435 50.6553 36.616 50.414L36.5785 50.4019C36.2573 50.2959 35.9234 50.1934 35.5694 50.0848C33.5539 49.4646 31.0462 48.6921 28.3368 46.5265C27.9198 46.1932 27.4678 45.9311 26.9931 45.7467C26.4688 45.5422 25.921 45.4396 25.3558 45.4396H25.3565Z" fill="#FF00FF"/>
<path d="M30.3254 66.7894C30.2288 66.7894 30.1316 66.7867 30.0351 66.7814C26.5559 66.597 20.6428 63.3532 18.2345 59.4482C17.389 58.0778 17.039 56.7435 17.1939 55.483C17.4466 53.4574 18.6059 51.3722 20.5463 49.4506L20.551 49.4459C20.5591 49.4378 20.5664 49.4305 20.5745 49.4224L20.6208 49.3768C22.3942 47.647 24.7107 46.1538 26.9924 45.2728C28.2797 44.7732 29.4786 44.505 30.4595 44.4963H30.55C30.6104 44.495 30.6694 44.4943 30.7284 44.4963C34.9779 44.6753 38.2318 47.238 39.2248 51.1845C39.6593 52.9076 39.6559 54.8293 39.2141 56.897C39.0109 57.8478 38.7173 58.8207 38.3418 59.7882C36.6964 64.0169 33.5035 66.7888 30.3248 66.7888L30.3254 66.7894ZM20.8306 49.8844C19.0163 51.7041 17.9334 53.6599 17.6981 55.5453C17.5579 56.6878 17.8838 57.9115 18.6669 59.182C20.9969 62.9602 26.7061 66.0975 30.0626 66.2751C33.069 66.4321 36.2794 63.6931 37.8698 59.6051C38.2358 58.6631 38.5215 57.7163 38.7186 56.7917C39.1444 54.8011 39.149 52.9566 38.7333 51.3092C37.7973 47.5886 34.7238 45.1728 30.7116 45.0039C30.6633 45.0025 30.6097 45.0032 30.5547 45.0039H30.4649C29.5449 45.0126 28.4078 45.2694 27.1761 45.7468C24.9401 46.6097 22.6691 48.0774 20.9386 49.7771L20.8862 49.8851H20.8299L20.8306 49.8844Z" fill="#8700DC"/>
<path d="M28.043 68.8706C26.3211 68.8706 24.6128 68.5019 23.1156 67.7744C21.0471 66.7687 19.5955 65.1957 18.917 63.2238C17.8703 60.5217 18.1499 57.6621 18.5696 55.7404L18.5898 55.6466C18.9009 54.2077 19.4212 51.8 20.4973 49.5244C21.4393 47.4251 22.8132 45.8219 24.4713 44.8873C26.3024 43.8554 28.389 43.7199 30.5084 44.4957H30.5097L30.5553 44.5124C35.0576 46.2309 38.9438 51.7564 39.2194 56.83C39.4125 59.0808 38.6863 61.6522 37.2253 63.8775C35.7958 66.0553 33.8581 67.6403 31.909 68.2256C30.6706 68.6568 29.3524 68.87 28.0416 68.87L28.043 68.8706ZM27.8385 44.5225C25.3476 44.5225 22.6851 45.8876 20.9592 49.7349L20.9573 49.7396C19.9059 51.9629 19.393 54.3358 19.0859 55.7539L19.0658 55.8484C18.6608 57.7023 18.3886 60.456 19.3937 63.0501C20.03 64.9007 21.3931 66.3731 23.3375 67.3185C25.8552 68.5421 29.0018 68.7017 31.7541 67.7442C35.7147 66.5548 39.0926 61.27 38.7145 56.8669C38.4537 52.0602 34.6506 46.6366 30.4024 44.9986L30.375 44.9892C29.5844 44.6948 28.7222 44.5232 27.8385 44.5232V44.5225Z" fill="#0000FF"/>
<path d="M28.788 63.4493C24.9206 63.4493 21.7747 60.3033 21.7747 56.436C21.7747 52.5686 24.9206 49.4226 28.788 49.4226C32.6554 49.4226 35.8013 52.5692 35.8013 56.436C35.8013 60.3026 32.6554 63.4493 28.788 63.4493ZM28.788 49.9295C25.2002 49.9295 22.2816 52.8481 22.2816 56.436C22.2816 60.0237 25.2002 62.9424 28.788 62.9424C32.3758 62.9424 35.2944 60.0237 35.2944 56.436C35.2944 52.8481 32.3758 49.9295 28.788 49.9295Z" fill="#0000FF"/>
<path d="M46.4629 60.725V52.0214H48.5662V58.9114H52.9908V60.7243H46.4636L46.4629 60.725Z" fill="black"/>
<path d="M55.8712 60.725H53.7678V52.0214H55.8712V60.725Z" fill="black"/>
<path d="M61.1586 57.1272H61.2456L61.8989 55.5898L63.5524 52.0214H65.9458L61.3766 60.725H60.9998L56.4739 52.0214H58.8241L60.4921 55.5898L61.1594 57.1272H61.1586Z" fill="black"/>
<path d="M72.4656 57.2003H68.6359V58.912H73.4521V60.725H66.5327V52.0214H73.4521V53.8344H68.6359V55.5462H72.4656V57.1996V57.2003Z" fill="black"/>
<path d="M74.5791 59.6805C74.5791 59.3519 74.6902 59.0737 74.9124 58.8463C75.135 58.6191 75.4106 58.5057 75.7389 58.5057C76.0676 58.5057 76.3457 58.6197 76.5733 58.8463C76.8004 59.0737 76.9136 59.3519 76.9136 59.6805C76.9136 60.009 76.7996 60.2852 76.5733 60.5071C76.3457 60.7297 76.0676 60.8411 75.7389 60.8411C75.4106 60.8411 75.135 60.7297 74.9124 60.5071C74.6898 60.2846 74.5791 60.009 74.5791 59.6805Z" fill="black"/>
<path d="M81.9698 60.9136C81.2444 60.9136 80.5965 60.7949 80.0262 60.5582C79.4554 60.3216 78.9696 59.9951 78.5683 59.5793C78.1667 59.1636 77.8599 58.6822 77.6473 58.1358C77.4347 57.5893 77.3281 57.002 77.3281 56.373C77.3281 55.7442 77.4338 55.1689 77.6473 54.6177C77.8599 54.0666 78.1667 53.5832 78.5683 53.1675C78.9696 52.7517 79.4554 52.4252 80.0262 52.1885C80.5965 51.9519 81.2444 51.8332 81.9698 51.8332C82.6952 51.8332 83.3476 51.9519 83.9283 52.1885C84.5082 52.4259 84.999 52.7517 85.4007 53.1675C85.8019 53.5832 86.1095 54.0666 86.3221 54.6177C86.5348 55.1689 86.6413 55.7542 86.6413 56.373C86.6413 56.9919 86.5348 57.5893 86.3221 58.1358C86.1095 58.6822 85.8019 59.1636 85.4007 59.5793C84.999 59.9951 84.5091 60.3216 83.9283 60.5582C83.3476 60.7949 82.6952 60.9136 81.9698 60.9136ZM81.9698 58.8827C82.318 58.8827 82.6442 58.8224 82.9489 58.7017C83.2531 58.581 83.5192 58.4113 83.7468 58.1941C83.9739 57.9769 84.1501 57.7134 84.2765 57.4036C84.4017 57.0938 84.4647 56.7505 84.4647 56.3738C84.4647 55.9969 84.4017 55.6536 84.2765 55.3439C84.1501 55.0348 83.9739 54.7706 83.7468 54.5534C83.5192 54.3355 83.2531 54.1665 82.9489 54.0458C82.6442 53.9251 82.318 53.8641 81.9698 53.8641C81.622 53.8641 81.2975 53.9244 80.9978 54.0458C80.6981 54.1665 80.4365 54.3361 80.2143 54.5534C79.9918 54.7706 79.8177 55.0348 79.6921 55.3439C79.5661 55.6536 79.5039 55.9969 79.5039 56.3738C79.5039 56.7505 79.5661 57.0945 79.6921 57.4036C79.8177 57.7134 79.9918 57.9769 80.2143 58.1941C80.4369 58.412 80.6981 58.581 80.9978 58.7017C81.2975 58.8224 81.6212 58.8827 81.9698 58.8827Z" fill="black"/>
<path d="M95.6921 60.725H95.2133L89.5851 55.9236V60.725H87.4968V52.0214H87.9756L93.6034 56.6344V52.0361H95.6921V60.725Z" fill="black"/>
</g>
</g>
</g>
<rect x="1" y="1" width="110" height="110" rx="9" stroke="black" stroke-opacity="0.1" stroke-width="2"/>
<defs>
<clipPath id="clip0_752_565">
<rect x="2" y="2" width="108" height="108" rx="8" fill="white"/>
</clipPath>
<clipPath id="clip1_752_565">
<rect width="80" height="24.8705" fill="white" transform="translate(16 44)"/>
</clipPath>
</defs>
</svg>
