<svg width="112" height="112" viewBox="0 0 112 112" fill="none" xmlns="http://www.w3.org/2000/svg">
<g clip-path="url(#clip0_766_83)">
<rect x="2" y="2" width="108" height="108" rx="8" fill="white"/>
<path fill-rule="evenodd" clip-rule="evenodd" d="M91.5442 44.3425C91.0254 43.8823 90.6823 43.2171 90.6447 42.4347C90.5945 41.2633 91.3057 40.3053 92.3725 39.8702C93.226 39.5229 94.159 39.5982 94.9036 40.163C96.2717 41.1964 96.347 43.2422 95.1547 44.3258C95.2676 44.4345 95.3722 44.56 95.4684 44.6981C95.9705 45.4261 95.9956 46.221 95.9956 47.0661C95.9956 53.4336 95.9956 59.7425 95.9956 66.0766C95.9956 69.0345 94.2552 71.5865 91.7408 72.7621C90.7576 73.2558 89.6531 73.5319 88.4859 73.5319H23.3881C20.9114 73.5319 18.715 72.2852 17.3929 70.3858C16.5185 69.1725 15.9998 67.6831 15.9998 66.0724C15.9998 61.3072 16.0332 56.5253 16.0332 51.7518C16.0332 49.6934 15.824 48.2458 17.0331 46.4008C17.9703 44.97 19.5601 43.9367 21.2503 43.694C22.4259 43.5225 23.5764 43.6605 24.6599 44.1542C24.9528 44.2881 25.2289 44.4429 25.4967 44.6102C26.6263 43.8614 28.0194 43.5392 29.3791 43.6564C31.291 43.8195 32.9729 44.8194 34.0355 46.4176C34.3828 46.9405 34.6129 47.4593 34.7593 47.9781C35.3366 46.6435 36.2822 45.4763 37.5163 44.6897C38.1397 44.2923 38.8258 43.9952 39.5454 43.8237C41.608 43.3342 43.6998 43.648 45.4151 44.924C46.3439 45.6185 47.0551 46.5096 47.5529 47.5095L47.5613 45.037C47.5613 44.2965 48.1679 43.694 48.9085 43.694H51.5483C51.9207 43.694 52.2554 43.8446 52.5022 44.0915C54.4309 43.2882 56.5938 43.5392 58.3803 44.6312C58.9283 44.9659 59.3843 45.3717 59.7651 45.8235V45.0328C59.7734 44.2923 60.3759 43.694 61.1164 43.694H61.723C61.723 43.1209 61.723 42.5435 61.723 41.9703C61.723 40.2969 62.6978 38.9581 64.4759 38.9916C66.2539 39.0251 67.099 40.4182 67.0948 42.0582C67.0948 42.6021 67.0906 43.1501 67.0906 43.694H67.7433C68.4838 43.694 69.0904 44.2965 69.0904 45.0412V46.6561C69.4586 46.154 69.8853 45.6938 70.3706 45.2964C71.8726 44.0622 73.7301 43.5267 75.6588 43.6647C76.529 43.7275 77.1273 43.8655 77.7464 44.1291C77.9933 43.8697 78.3405 43.7066 78.7254 43.7024H81.336C81.9092 43.6982 82.4029 44.0496 82.5995 44.5642C82.7961 44.0496 83.2898 43.694 83.8671 43.6982L86.4945 43.7149C86.917 43.7149 87.2977 43.9158 87.5404 44.2253C88.3688 43.8028 89.3268 43.5978 90.2472 43.6605C90.7702 43.694 91.2053 44.0245 91.3977 44.4805C91.4437 44.4303 91.4898 44.3843 91.54 44.3383L91.5442 44.3425Z" fill="white"/>
<path fill-rule="evenodd" clip-rule="evenodd" d="M91.4647 60.755C90.6154 60.299 89.6448 60.0396 88.6156 60.0396C87.5864 60.0396 86.6116 60.299 85.7623 60.755C84.6411 61.3533 83.7374 62.2988 83.1768 63.4409C82.6204 62.2988 81.7125 61.3491 80.5913 60.755C79.742 60.299 78.7714 60.0396 77.7381 60.0396C76.7047 60.0396 75.7425 60.299 74.889 60.755C73.7636 61.3574 72.8474 62.3113 72.2951 63.466C71.7387 62.3113 70.8267 61.3574 69.7012 60.755C68.852 60.299 67.8814 60.0396 66.8438 60.0396C65.8063 60.0396 64.844 60.299 63.9947 60.755C62.8861 61.3533 61.9782 62.2862 61.4176 63.4242C60.8654 62.2862 59.9575 61.3491 58.8488 60.755C57.9995 60.299 57.0331 60.0396 55.9956 60.0396C54.958 60.0396 53.9916 60.299 53.1507 60.755C52.0253 61.3533 51.1174 62.2988 50.5652 63.4409C50.0046 62.2988 49.0967 61.3491 47.9797 60.755C47.1262 60.299 46.1556 60.0396 45.1306 60.0396C44.1056 60.0396 43.1266 60.299 42.2815 60.755C41.1603 61.3533 40.2566 62.2988 39.6918 63.4409C39.1396 62.2988 38.2359 61.3491 37.1147 60.755C36.2612 60.299 35.2948 60.0396 34.2656 60.0396C33.2364 60.0396 32.2617 60.299 31.4124 60.755C30.2911 61.3533 29.3833 62.2988 28.8269 63.4409C28.2704 62.2988 27.3626 61.3491 26.2414 60.755C25.3921 60.299 24.4215 60.0396 23.3881 60.0396C22.3547 60.0396 21.3883 60.299 20.5348 60.755C18.6355 61.7758 17.3469 63.7756 17.3469 66.0808C17.3469 69.4152 20.0579 72.1178 23.3881 72.1178C25.777 72.1178 27.8479 70.7247 28.8269 68.7165C29.8017 70.7288 31.8684 72.1178 34.2656 72.1178C36.6629 72.1178 38.717 70.7247 39.6918 68.7165C40.6708 70.7288 42.7417 72.1178 45.1306 72.1178C47.5195 72.1178 49.5862 70.7247 50.5652 68.7165C51.5442 70.7288 53.6025 72.1178 55.9956 72.1178C58.3886 72.1178 60.4386 70.7372 61.4176 68.7332C62.4008 70.7414 64.4633 72.1178 66.8438 72.1178C69.2243 72.1178 71.3203 70.7205 72.2909 68.6956C73.2615 70.7205 75.3325 72.1178 77.7339 72.1178C80.1353 72.1178 82.1937 70.7247 83.1726 68.7165C84.1516 70.7288 86.2184 72.1178 88.6114 72.1178C91.9416 72.1178 94.6484 69.4194 94.6484 66.0808C94.6484 63.7756 93.3557 61.7716 91.4605 60.755H91.4647Z" fill="#E82329"/>
<path fill-rule="evenodd" clip-rule="evenodd" d="M25.0699 66.7878C24.9737 67.0138 24.8398 67.2146 24.6767 67.3736C24.5177 67.5409 24.3169 67.6706 24.0868 67.7752C23.865 67.8756 23.6266 67.9216 23.3756 67.9216C23.1245 67.9216 22.8735 67.8756 22.6601 67.7752C22.43 67.6748 22.2334 67.5451 22.0744 67.3736C21.9071 67.2146 21.7732 67.0096 21.677 66.7878C21.5766 66.5619 21.5264 66.3276 21.5264 66.0682C21.5264 65.8089 21.5724 65.5788 21.677 65.3487C21.7732 65.1269 21.9071 64.9303 22.0744 64.7629C22.2334 64.5998 22.43 64.4659 22.6601 64.3697C22.8777 64.2693 23.1245 64.2191 23.3756 64.2191C23.6266 64.2191 23.865 64.2693 24.0868 64.3697C24.3127 64.4659 24.5135 64.5998 24.6767 64.7629C24.8398 64.9345 24.9779 65.1311 25.0699 65.3487C25.2708 65.8005 25.2708 66.3402 25.0699 66.792V66.7878ZM25.5469 63.8927C25.2708 63.6166 24.9486 63.3991 24.5763 63.2359C24.2039 63.0769 23.7981 62.9933 23.3756 62.9933C22.953 62.9933 22.5388 63.0769 22.1707 63.2359C21.7941 63.3991 21.4678 63.6208 21.1959 63.8927C20.9197 64.1772 20.7022 64.5036 20.539 64.8759C20.3759 65.2482 20.2964 65.6541 20.2964 66.0766C20.2964 66.4992 20.3759 66.9092 20.539 67.2815C20.7022 67.6539 20.9197 67.9802 21.1959 68.2521C21.4678 68.5282 21.7941 68.7458 22.1707 68.9131C22.5388 69.0721 22.9446 69.1558 23.3672 69.1558C23.7897 69.1558 24.2039 69.0679 24.5763 68.9131C24.9444 68.75 25.2708 68.5282 25.5469 68.2521C25.8188 67.9802 26.0405 67.6539 26.2037 67.2815C26.3669 66.9092 26.4505 66.5117 26.4505 66.0766C26.4505 65.6415 26.3669 65.2482 26.2037 64.8759C26.0405 64.5036 25.823 64.1772 25.5469 63.8927Z" fill="white"/>
<path fill-rule="evenodd" clip-rule="evenodd" d="M35.9433 66.7878C35.8512 67.0138 35.7132 67.2146 35.5458 67.3736C35.3785 67.5409 35.186 67.6706 34.9601 67.7752C34.7342 67.8756 34.4957 67.9216 34.2447 67.9216C33.9937 67.9216 33.751 67.8756 33.5251 67.7752C33.2992 67.6748 33.1026 67.5451 32.9394 67.3736C32.7721 67.2146 32.6465 67.0096 32.5461 66.7878C32.4457 66.5619 32.3997 66.3276 32.3997 66.0682C32.3997 65.8089 32.4499 65.5788 32.5461 65.3487C32.6465 65.1269 32.7721 64.9303 32.9394 64.7629C33.1026 64.5998 33.3034 64.4659 33.5251 64.3697C33.751 64.2693 33.9937 64.2191 34.2447 64.2191C34.4957 64.2191 34.7384 64.2693 34.9601 64.3697C35.186 64.4659 35.3785 64.5998 35.5458 64.7629C35.7132 64.9345 35.8471 65.1269 35.9433 65.3487C36.1357 65.8005 36.1357 66.3402 35.9433 66.792V66.7878ZM36.416 63.8927C36.1441 63.6166 35.8136 63.3991 35.4454 63.2359C35.0731 63.0769 34.6673 62.9933 34.2405 62.9933C33.8138 62.9933 33.408 63.0769 33.0398 63.2359C32.6633 63.3991 32.3411 63.6208 32.0608 63.8927C31.7931 64.1772 31.5713 64.5036 31.404 64.8759C31.245 65.2482 31.1613 65.6541 31.1613 66.0766C31.1613 66.4992 31.245 66.9092 31.404 67.2815C31.5672 67.6539 31.7889 67.9802 32.0608 68.2521C32.3411 68.5282 32.6633 68.7458 33.0398 68.9131C33.408 69.0721 33.8138 69.1558 34.2405 69.1558C34.6673 69.1558 35.0731 69.0679 35.4454 68.9131C35.8136 68.75 36.1399 68.5282 36.416 68.2521C36.6922 67.9802 36.9139 67.6539 37.0687 67.2815C37.2318 66.9092 37.3155 66.5075 37.3155 66.0766C37.3155 65.6457 37.2318 65.2482 37.0687 64.8759C36.9097 64.5036 36.688 64.1772 36.416 63.8927Z" fill="white"/>
<path fill-rule="evenodd" clip-rule="evenodd" d="M79.4199 66.7878C79.3237 67.0138 79.1898 67.2146 79.0266 67.3736C78.8635 67.5409 78.6668 67.6706 78.4409 67.7752C78.2192 67.8756 77.9765 67.9216 77.7213 67.9216C77.4661 67.9216 77.2277 67.8756 77.0059 67.7752C76.7842 67.6748 76.5876 67.5451 76.4244 67.3736C76.257 67.2146 76.1274 67.0096 76.0269 66.7878C75.9307 66.5619 75.8805 66.3276 75.8805 66.0682C75.8805 65.8089 75.9307 65.5788 76.0269 65.3487C76.1274 65.1269 76.257 64.9303 76.4244 64.7629C76.5917 64.5998 76.7884 64.4659 77.0059 64.3697C77.2277 64.2693 77.4745 64.2191 77.7213 64.2191C77.9682 64.2191 78.2192 64.2693 78.4409 64.3697C78.6668 64.4659 78.8635 64.5998 79.0266 64.7629C79.1856 64.9345 79.3237 65.1311 79.4199 65.3487C79.6165 65.8005 79.6165 66.3402 79.4199 66.792V66.7878ZM79.8968 63.8927C79.6291 63.6166 79.3028 63.3991 78.9262 63.2359C78.5539 63.0769 78.1522 62.9933 77.7213 62.9933C77.2904 62.9933 76.893 63.0769 76.5206 63.2359C76.1525 63.3991 75.8261 63.6208 75.5458 63.8927C75.2781 64.1772 75.0563 64.5036 74.8932 64.8759C74.7342 65.2482 74.6463 65.6541 74.6463 66.0766C74.6463 66.4992 74.7342 66.9092 74.8932 67.2815C75.0563 67.6539 75.2739 67.9802 75.5458 68.2521C75.822 68.5282 76.1525 68.7458 76.5206 68.9131C76.893 69.0721 77.2946 69.1558 77.7213 69.1558C78.1481 69.1558 78.5539 69.0679 78.9262 68.9131C79.2986 68.75 79.6291 68.5282 79.8968 68.2521C80.173 67.9802 80.3905 67.6539 80.5495 67.2815C80.7126 66.9092 80.7921 66.5117 80.7921 66.0766C80.7921 65.6415 80.7126 65.2482 80.5495 64.8759C80.3905 64.5036 80.173 64.1772 79.8968 63.8927Z" fill="white"/>
<path fill-rule="evenodd" clip-rule="evenodd" d="M90.2891 66.7878C90.1928 67.0138 90.059 67.2146 89.8958 67.3736C89.7326 67.5409 89.5318 67.6706 89.3101 67.7752C89.0883 67.8756 88.8415 67.9216 88.5947 67.9216C88.3478 67.9216 88.101 67.8756 87.8751 67.7752C87.6492 67.6748 87.4483 67.5451 87.2852 67.3736C87.1178 67.2146 86.9881 67.0096 86.8836 66.7878C86.7915 66.5619 86.7371 66.3276 86.7371 66.0682C86.7371 65.8089 86.7915 65.5788 86.8836 65.3487C86.984 65.1269 87.1178 64.9303 87.2852 64.7629C87.4442 64.5998 87.6492 64.4659 87.8751 64.3697C88.101 64.2693 88.3395 64.2191 88.5947 64.2191C88.8499 64.2191 89.0883 64.2693 89.3101 64.3697C89.5318 64.4659 89.7326 64.5998 89.8958 64.7629C90.059 64.9345 90.1928 65.1269 90.2891 65.3487C90.4899 65.8005 90.4899 66.3402 90.2891 66.792V66.7878ZM90.766 63.8927C90.4941 63.6166 90.1677 63.3991 89.7996 63.2359C89.4272 63.0769 89.0214 62.9933 88.5947 62.9933C88.1679 62.9933 87.7621 63.0769 87.3898 63.2359C87.0174 63.3991 86.6911 63.6208 86.415 63.8927C86.1389 64.1772 85.9213 64.5036 85.7623 64.8759C85.5992 65.2482 85.5197 65.6541 85.5197 66.0766C85.5197 66.4992 85.5992 66.9092 85.7623 67.2815C85.9213 67.6539 86.1389 67.9802 86.415 68.2521C86.6911 68.5282 87.0174 68.7458 87.3898 68.9131C87.7621 69.0721 88.1679 69.1558 88.5947 69.1558C89.0214 69.1558 89.423 69.0679 89.7996 68.9131C90.1677 68.75 90.4941 68.5282 90.766 68.2521C91.0379 67.9802 91.2597 67.6539 91.4228 67.2815C91.5818 66.9092 91.6655 66.5117 91.6655 66.0766C91.6655 65.6415 91.5818 65.2482 91.4228 64.8759C91.2555 64.5036 91.0379 64.1772 90.766 63.8927Z" fill="white"/>
<path fill-rule="evenodd" clip-rule="evenodd" d="M46.4234 64.742C46.5907 64.9052 46.7162 65.1018 46.8208 65.3277C46.8794 65.4532 46.9128 65.5871 46.9379 65.7252H48.1805C48.147 65.4156 48.0717 65.1186 47.9546 64.8382C47.7914 64.4701 47.5739 64.1438 47.2977 63.8676C47.0216 63.5999 46.7037 63.3782 46.3271 63.215C45.9548 63.0518 45.549 62.9723 45.1222 62.9723C44.6955 62.9723 44.2897 63.0518 43.9215 63.2108C43.5492 63.3698 43.2229 63.5873 42.9467 63.8593C42.6664 64.1354 42.4447 64.4617 42.2857 64.8299C42.1351 65.2022 42.0472 65.6122 42.0472 66.0431V68.9633H43.2731V65.9595H43.2814C43.2898 65.7377 43.34 65.5244 43.4237 65.3277C43.5241 65.1018 43.6579 64.9094 43.8295 64.742C43.9885 64.5789 44.1893 64.4408 44.4068 64.3488C44.8545 64.1521 45.3984 64.1521 45.846 64.3488C46.0636 64.4408 46.2686 64.5789 46.4317 64.742H46.4234Z" fill="white"/>
<path fill-rule="evenodd" clip-rule="evenodd" d="M54.3472 65.0307L54.4016 64.9512C54.6986 64.4617 55.2341 64.194 55.9872 64.1772C56.7277 64.1814 57.2507 64.4408 57.5477 64.9512L57.5937 65.0307H54.3472ZM58.8279 64.9345C58.6815 64.5579 58.4723 64.2191 58.2129 63.9262C57.9493 63.6375 57.6272 63.4074 57.2507 63.2317C56.8783 63.0644 56.4474 62.9723 55.9747 62.9723C55.5437 62.9723 55.1379 63.056 54.7698 63.215C54.4016 63.3782 54.0669 63.5957 53.795 63.876C53.5188 64.1479 53.2971 64.4743 53.1381 64.8466C52.9792 65.219 52.8997 65.6164 52.8997 66.0473C52.8997 66.4782 52.9792 66.8882 53.1381 67.2522C53.2971 67.6246 53.5188 67.9509 53.795 68.227C54.0669 68.4948 54.3974 68.7165 54.7698 68.8797C55.1379 69.047 55.5437 69.1223 55.9747 69.1223C56.2842 69.1223 56.6022 69.0763 56.9118 68.9926C57.2298 68.909 57.5226 68.7625 57.7904 68.5784C58.0623 68.3944 58.3008 68.1475 58.51 67.8463C58.715 67.5618 58.8781 67.2104 59.0036 66.8171H57.6523C57.5184 67.1393 57.3092 67.3945 57.0248 67.5953C56.7319 67.7919 56.3805 67.8923 55.9747 67.8923C55.7278 67.8923 55.4935 67.8463 55.276 67.7584C55.0501 67.6664 54.8576 67.5451 54.6903 67.3861C54.5313 67.2313 54.3974 67.043 54.2928 66.8297C54.184 66.6163 54.1297 66.3904 54.1213 66.1436V66.0892H59.0538C59.0413 65.6959 58.9618 65.3026 58.8195 64.9387L58.8279 64.9345Z" fill="white"/>
<path fill-rule="evenodd" clip-rule="evenodd" d="M68.7014 66.0222C68.7014 66.2774 68.6512 66.5159 68.5549 66.7376C68.4587 66.9636 68.3248 67.1602 68.1617 67.3275C67.9943 67.4907 67.7977 67.6204 67.5718 67.7208C67.35 67.8212 67.1116 67.8672 66.8564 67.8672C66.6012 67.8672 66.3585 67.8254 66.141 67.7208C65.9109 67.6204 65.7184 67.4907 65.5511 67.3275C65.3837 67.1602 65.254 66.9594 65.1578 66.7376C65.0574 66.5159 65.0072 66.2774 65.0072 66.0222C65.0072 65.767 65.0574 65.5327 65.1578 65.3068C65.254 65.0809 65.3879 64.8843 65.5511 64.7211C65.7184 64.5579 65.9109 64.4241 66.141 64.3278C66.5844 64.1312 67.1241 64.1312 67.5676 64.3278C67.7935 64.4241 67.9901 64.5579 68.1575 64.7211C68.3248 64.8843 68.4545 65.0851 68.5549 65.3068C68.6512 65.5327 68.7014 65.7754 68.7014 66.0222ZM69.9314 66.0222V60.8721C69.5423 60.642 69.1281 60.4621 68.7014 60.3199V63.7003L68.6051 63.6166C68.5131 63.5329 68.3959 63.4409 68.2621 63.3614C68.1282 63.2819 67.986 63.215 67.8312 63.1522C67.6764 63.0978 67.5174 63.0393 67.3458 63.0058C67.1827 62.964 67.0195 62.9514 66.8522 62.9514C66.4213 62.9514 66.0154 63.0351 65.6473 63.1941C65.2749 63.3656 64.9486 63.579 64.6725 63.8467C64.4047 64.1228 64.1788 64.4492 64.0198 64.8215C63.8609 65.1939 63.7772 65.5955 63.7772 66.0222C63.7772 66.449 63.8609 66.8548 64.0198 67.2271C64.1788 67.5995 64.4047 67.9258 64.6725 68.1935C64.9486 68.4697 65.2749 68.6914 65.6473 68.8588C66.0154 69.0135 66.4171 69.0972 66.8522 69.0972C67.2873 69.0972 67.6847 69.0135 68.0529 68.8588C68.4294 68.6998 68.7474 68.478 69.0319 68.2019C69.3122 67.93 69.5297 67.6036 69.6887 67.2355C69.8435 66.8631 69.9272 66.4573 69.9272 66.018L69.9314 66.0222Z" fill="white"/>
<path fill-rule="evenodd" clip-rule="evenodd" d="M17.3804 57.1612H20.0454C20.0412 55.1824 20.0454 53.1951 20.0454 51.2121C20.0454 50.2456 19.924 49.2959 20.4763 48.6768C21.8276 47.1665 23.8776 48.0743 24.1705 49.4968C24.2834 50.0365 24.2207 54.5088 24.2165 55.4334C24.2165 56.2074 24.3378 57.2198 25.5092 57.2282C26.4673 57.2323 26.8103 56.5295 26.8103 55.5924C26.8103 54.6008 26.8103 53.6093 26.8103 52.6178C26.8103 50.618 26.3962 48.6015 28.2495 48.0074C29.1992 47.702 30.0025 48.0827 30.4752 48.5889C31.1488 49.3085 31.0066 50.0239 31.0066 51.1284C31.0066 53.124 30.9815 55.1363 31.0066 57.1319L33.6674 57.1612C33.6799 55.3832 33.6674 53.6051 33.6674 51.8312C33.6674 49.9653 33.8389 48.568 32.9059 47.1665C31.1028 44.4554 27.4212 44.4094 25.5887 46.2712C25.0741 46.0787 23.8567 44.6814 21.4385 45.0286C19.9031 45.2503 18.7401 46.2461 18.1543 47.1414C17.1754 48.6349 17.372 49.7729 17.372 51.7518C17.372 53.5507 17.3636 55.3539 17.372 57.1529L17.3804 57.1612ZM74.4121 47.5974C79.1856 46.7188 80.357 53.7599 75.7927 54.651C73.6423 55.0694 71.9019 53.5926 71.5546 51.8563C71.1111 49.6432 72.6424 47.9237 74.4121 47.5974ZM78.7338 56.1069C78.9471 57.2867 80.2985 57.6507 81.0808 56.7345C81.5619 56.1697 81.3653 53.9105 81.3653 53.0152C81.3653 51.689 81.4322 45.857 81.3402 45.0537H78.7296L78.717 46.1415C77.8259 45.7817 77.4201 45.1499 75.5667 45.0161C69.0946 44.5475 66.3292 53.1867 72.1069 56.4709C73.6339 57.3411 75.5626 57.5001 77.282 56.8475C77.5205 56.7554 77.7632 56.6341 77.9765 56.5253C78.2652 56.3747 78.4075 56.2325 78.7338 56.1069ZM38.1481 50.0783C38.42 48.6266 39.6082 47.5053 41.3067 47.5179C42.9425 47.5304 44.1223 48.6558 44.4026 50.0783H38.1481ZM38.169 52.2078H47.0593C47.4944 47.8526 44.3692 44.0747 39.8592 45.1499C36.2571 46.0076 34.1318 50.6347 36.3993 54.4837C38.6836 58.3703 44.0303 57.7051 45.9757 55.0192C46.5698 54.1992 46.2184 52.9776 45.0637 52.965C44.4277 52.9608 44.1642 53.3625 43.8797 53.6302C41.8966 55.5129 38.7338 54.8309 38.169 52.2078ZM51.5734 46.2753L51.5525 45.0579H48.9126L48.8917 53.0947C48.8917 54.149 48.6574 56.1655 49.2431 56.814C49.9795 57.6298 51.4814 57.2114 51.5525 55.9145C51.632 54.4293 51.5525 51.5509 51.5525 49.8105C51.5525 48.8525 51.3643 48.6893 52.0253 48.25C53.6527 47.1665 56.6859 46.8067 57.2883 49.5553C57.7904 51.8438 56.8072 56.0902 57.9284 56.9688C58.602 57.4959 60.0663 57.3955 60.0705 55.6049C60.0705 54.2494 60.0705 52.8897 60.0705 51.5342C60.083 48.8106 59.3509 46.8276 57.6732 45.7984C56.2424 44.924 54.4141 44.6646 52.7616 45.4679C52.2345 45.7231 51.9625 46.0118 51.5693 46.2795L51.5734 46.2753ZM63.0743 45.0537C63.0743 44.0329 63.0743 43.0079 63.0743 41.9829C63.0743 41.0207 63.4843 40.3304 64.4549 40.3471C65.4214 40.3638 65.7519 41.1127 65.7477 42.0582C65.7477 43.0539 65.7393 44.0538 65.7477 45.0453H67.7433V47.6894H65.7477C65.7351 48.9027 65.5887 53.1826 66.0029 53.9649C66.3878 54.6887 67.3793 54.3624 67.6931 55.4836C68.375 57.9143 63.681 58.0649 63.1413 54.0109C62.9153 52.3124 63.066 49.5093 63.0701 47.6894L61.0996 47.681L61.1122 45.0453H63.0701L63.0743 45.0537ZM86.5279 46.9615L86.4903 45.0704L83.863 45.0537C83.7793 45.7775 83.8378 54.1197 83.8378 55.5965C83.8378 56.2617 83.9257 56.609 84.3106 56.9395C84.6578 57.2365 85.2059 57.3579 85.7121 57.1403C86.7078 56.7136 86.4945 55.5505 86.4945 54.4209C86.4945 53.2913 86.4484 52.0321 86.5028 50.8983C86.6283 48.2124 88.511 47.8651 90.1635 47.4342V45.0077C89.3394 44.9533 88.5403 45.196 87.9546 45.539C87.5571 45.7733 87.1178 46.1498 86.8334 46.5305C86.7246 46.677 86.6744 46.7941 86.5238 46.9573L86.5279 46.9615ZM92.0044 57.157L94.6526 57.178V47.0744C94.6526 46.3757 94.7279 44.9868 93.318 45.0035C92.7616 45.0077 92.4478 45.3005 92.2386 45.606C91.9374 46.0411 92.0044 46.4971 92.0044 47.0786V57.1654V57.157Z" fill="#121921"/>
<path fill-rule="evenodd" clip-rule="evenodd" d="M92.8787 41.1211C91.1551 41.8197 92.1968 44.171 93.8201 43.5852C95.3848 43.0204 94.5313 40.4517 92.8787 41.1211Z" fill="#E21D1A"/>
</g>
<rect x="1" y="1" width="110" height="110" rx="9" stroke="black" stroke-opacity="0.1" stroke-width="2"/>
<defs>
<clipPath id="clip0_766_83">
<rect x="2" y="2" width="108" height="108" rx="8" fill="white"/>
</clipPath>
</defs>
</svg>
