<svg width="112" height="112" viewBox="0 0 112 112" fill="none" xmlns="http://www.w3.org/2000/svg">
<g clip-path="url(#clip0_752_572)">
<rect x="2" y="2" width="108" height="108" rx="8" fill="white"/>
<path d="M19.9733 52.8146C21.569 52.8133 23.2197 53.4071 23.1299 53.3689L22.6655 54.6423C22.4966 55.0987 22.0315 54.964 21.3023 54.8266C20.9102 54.7455 20.4618 54.6852 20.0068 54.6852C18.7139 54.6852 18.2749 55.23 18.2749 55.7696C18.2736 56.6328 19.0933 56.801 20.0704 56.9384C21.5147 57.1354 23.4295 57.685 23.4295 59.6863C23.4295 60.8296 23.1507 62.6606 19.4954 62.6606C17.2555 62.6606 15.7637 61.902 15.7637 61.902C15.7637 61.902 15.9956 61.2847 16.2006 60.7867C16.4252 60.2459 16.7502 60.2579 17.033 60.3746C17.033 60.3746 17.899 60.7928 19.0933 60.7988C20.2775 60.7995 21.1307 60.7432 21.1307 59.6923C21.1307 58.8673 20.1401 58.7775 19.0256 58.5945C17.6262 58.3639 16.0391 57.6555 16.0391 55.785C16.0391 53.5572 18.3058 52.8146 19.9733 52.8146Z" fill="#404042"/>
<path d="M25.2746 54.2281V62.4663H27.5687V55.4184C27.8046 55.0645 28.4547 54.781 29.2221 54.781C30.2375 54.781 30.8011 55.478 30.8011 56.2173V62.4663H33.0832V55.4459C33.0832 55.4459 33.3975 54.7716 34.6964 54.7716C36.3953 54.7716 36.3277 56.3969 36.3277 56.3969V61.7887C36.3277 62.1681 36.6145 62.4663 37.0347 62.4663H38.6171V55.8212C38.6171 55.8212 38.5802 52.6705 35.0362 52.6705C32.8687 52.6705 32.0879 53.3374 32.0879 53.3374C32.0879 53.3374 31.0008 52.6585 29.2724 52.6585C27.5446 52.6585 25.8436 53.332 25.2746 54.2281Z" fill="#404042"/>
<path d="M95.7637 56.1221V62.4663H94.1458C93.7349 62.4663 93.4247 62.1171 93.4247 61.5763V56.2166C93.4247 55.4774 93.2309 54.6926 91.5983 54.6926C90.8336 54.6926 89.9925 55.0639 89.7479 55.4177V62.4663H87.433V54.2274C88.1555 53.5043 89.8363 52.6585 91.5628 52.6585C93.2919 52.6585 94.1002 53.1135 94.6303 53.4346C95.5834 54.0002 95.7637 55.0069 95.7637 56.1221Z" fill="#404042"/>
<path d="M46.4109 60.4738C46.4109 60.4738 45.4539 60.7566 45.0048 60.7566C44.6014 60.7566 42.6819 60.8806 42.6819 59.6447C42.6819 58.4631 43.8822 58.244 44.0136 58.2078C44.7676 58.0154 46.3881 58.0825 46.3881 58.0825L46.4109 60.4738ZM48.7131 55.8795C48.7131 55.8795 48.9839 52.8327 44.9908 52.8327C41.9735 52.8327 41.2336 53.5036 41.2336 53.5036L41.56 54.714C41.674 55.0538 42.0432 55.1657 42.582 55.029C43.1316 54.8856 43.8896 54.7368 44.72 54.7261C46.6636 54.704 46.3881 55.6784 46.3881 56.3889C45.7575 56.3889 44.3936 56.3647 43.5223 56.5343C43.3146 56.5745 40.4669 57.0664 40.4669 59.8109C40.4669 62.5574 42.9909 62.5923 44.2033 62.5923C45.9793 62.5923 47.9155 62.339 48.7131 61.8557V55.8795Z" fill="#404042"/>
<path d="M50.8665 55.98V62.5246H53.1686V55.7796C53.1686 55.7796 53.0634 54.8219 54.2028 54.7931C54.218 54.7931 55.0935 54.8749 55.1122 54.8775C55.5137 54.9519 56.0492 54.7039 56.1591 54.137C56.2583 53.5572 56.3783 53.198 56.3783 53.198C56.3783 53.198 54.9782 52.7376 53.4334 52.9245C53.3188 52.9413 50.8665 53.2643 50.8665 55.98Z" fill="#404042"/>
<path d="M70.7314 55.98V62.5246H73.039V55.7796C73.039 55.7796 72.9318 54.8219 74.0704 54.7931C74.0837 54.7931 74.9557 54.8749 74.9819 54.8775C75.3806 54.9519 75.9168 54.7039 76.0227 54.137C76.1327 53.5572 76.2445 53.198 76.2445 53.198C76.2445 53.198 74.8425 52.7376 73.2996 52.9245C73.1782 52.9413 70.7314 53.2643 70.7314 55.98Z" fill="#404042"/>
<path d="M57.7414 59.2439C57.7414 59.2439 57.4124 62.5347 61.0161 62.5668H61.3566C62.3116 62.5668 62.7908 62.408 62.7908 62.408C62.7908 62.408 62.7452 62.1044 62.6728 61.4878C62.5957 60.8712 62.075 60.6688 61.5201 60.6688C61.5106 60.6688 61.2124 60.6688 61.1957 60.6674C60.2534 60.6399 60.0242 59.772 60.0242 58.8036V54.7716H61.378C61.8987 54.7716 62.4349 54.3842 62.4349 53.6752V52.9373H60.1213V50.2665C60.1213 50.2665 58.6382 50.6163 58.3989 50.6927C58.1556 50.7745 57.7414 51.0459 57.7414 51.6739L57.7414 59.2439Z" fill="#404042"/>
<path d="M64.6908 52.9373V62.5246H66.9541V54.7716H68.5794C69.1129 54.7716 69.521 54.2576 69.521 53.7663V52.9373H66.9729V51.8971C66.9729 51.8971 66.9334 50.8878 68.2362 50.861H69.2576C69.7737 50.861 69.9627 50.6505 70.0351 50.2712C70.0913 49.8945 70.2261 49.1285 70.2261 49.1285C70.2261 49.1285 69.456 48.9998 68.7315 48.9629C68.7315 48.9629 68.322 48.9402 67.8609 48.9629C67.3991 48.9529 64.6908 49.0782 64.6908 52.9373Z" fill="#404042"/>
<path d="M83.3273 56.7769H79.0614C79.0614 56.7769 79.1553 54.4111 81.1826 54.4111C83.4205 54.4111 83.3273 56.7769 83.3273 56.7769ZM85.6147 57.4619C85.6299 56.9605 85.7462 52.6424 81.3649 52.623C76.9784 52.6008 76.7097 56.669 76.7097 57.6616C76.7097 58.6582 76.9784 62.5018 81.4098 62.5018C83.8494 62.5018 84.6711 61.9965 84.6711 61.9965C84.6711 61.9965 84.582 61.5763 84.4593 61.1105C84.3339 60.6574 83.8494 60.3572 83.1316 60.5214C82.6276 60.6299 82.4178 60.6916 81.881 60.6916C80.5714 60.6916 79.1251 59.9939 79.1251 58.4759H84.7053C85.2562 58.4759 85.5879 57.9531 85.6147 57.4619Z" fill="#404042"/>
</g>
<rect x="1" y="1" width="110" height="110" rx="9" stroke="black" stroke-opacity="0.1" stroke-width="2"/>
<defs>
<clipPath id="clip0_752_572">
<rect x="2" y="2" width="108" height="108" rx="8" fill="white"/>
</clipPath>
</defs>
</svg>
