<svg width="112" height="112" viewBox="0 0 112 112" fill="none" xmlns="http://www.w3.org/2000/svg">
<g clip-path="url(#clip0_752_561)">
<rect x="2" y="2" width="108" height="108" rx="8" fill="white"/>
<path fill-rule="evenodd" clip-rule="evenodd" d="M54.6566 53.7334C54.6566 55.3289 53.6598 56.4049 52.2861 56.4049C50.9124 56.4049 49.8757 55.3787 49.8757 53.7334C49.8757 52.0881 50.8791 51.0618 52.2861 51.0618C53.693 51.0618 54.6566 52.138 54.6566 53.7334ZM52.2861 48.8095C49.3384 48.8049 47.2737 50.9122 47.2777 53.7335C47.2817 56.5548 49.305 58.6783 52.2861 58.6772C55.2673 58.676 57.2477 56.523 57.2479 53.7335C57.2481 50.944 55.2338 48.814 52.2861 48.8095Z" fill="#FF0025"/>
<path fill-rule="evenodd" clip-rule="evenodd" d="M28.8079 48.8095C27.3882 48.8068 26.3212 49.247 25.4055 50.1278C24.4899 51.0086 23.9723 52.215 23.9744 53.8798C23.9764 55.5447 24.6787 56.8048 25.59 57.5406C26.5013 58.2764 27.5904 58.6774 29.1238 58.6772C30.6572 58.6769 31.8426 58.1207 32.4487 57.7424V55.486C32.0282 55.8429 30.7436 56.5413 29.4561 56.5413C28.1687 56.5413 26.8394 56.1113 26.5125 54.5172H33.0291C33.0606 54.2669 33.118 53.89 33.1167 53.4942C33.1124 52.2069 32.8336 51.3524 32.1739 50.4372C31.5143 49.5221 30.2277 48.8121 28.8079 48.8095ZM28.6848 50.7693C29.285 50.7693 29.7013 50.959 30.0224 51.2963C30.3436 51.6335 30.5623 52.1363 30.5974 52.677H26.5592C26.6696 52.2036 26.7971 51.8637 27.1528 51.4487C27.5084 51.0337 28.0846 50.7693 28.6848 50.7693Z" fill="#FF0025"/>
<path fill-rule="evenodd" clip-rule="evenodd" d="M34.4211 45V56.8873C34.4211 58.1165 35.297 58.6772 36.1549 58.6772C37.0129 58.6772 37.5571 58.3915 37.5571 58.3915C37.5571 58.3915 37.0338 57.9679 37.0316 56.0853C37.0294 54.2594 37.0313 47.3947 37.0316 46.5826C37.0318 45.7705 36.5137 45 35.5582 45H34.4211Z" fill="#FF0025"/>
<path fill-rule="evenodd" clip-rule="evenodd" d="M16 46.7897V48.132H19.7921V56.8873C19.7921 58.1165 20.668 58.6772 21.5259 58.6772C22.3838 58.6772 22.928 58.3915 22.928 58.3915C22.928 58.3915 22.4048 57.9679 22.4025 56.0853C22.4003 54.2594 22.4023 48.502 22.4025 47.69C22.4028 46.8779 21.4561 45.4157 19.8984 45.4157L17.491 45.4157C16.702 45.4157 16 46.0584 16 46.7897ZM21.5691 45.4157C21.5194 45.4157 21.4794 45.4557 21.4794 45.5055C21.4794 45.5552 21.5293 45.5921 21.5691 45.6218C21.7343 45.7451 22.249 46.11 22.4948 46.6093C22.7406 47.1085 22.7465 47.5616 22.9062 47.8233C23.0659 48.0851 23.3265 48.132 23.6022 48.132H25.5841C26.022 48.132 26.1941 47.8376 26.1941 47.4885V45.4157H21.5691Z" fill="#FF0025"/>
<path fill-rule="evenodd" clip-rule="evenodd" d="M38.7433 45V58.521H41.3538C41.3537 57.1179 41.3538 55.7125 41.3538 54.2461C41.918 54.8981 43.4601 56.7108 43.6561 56.9384C44.3551 57.7505 44.8566 58.521 46.0002 58.521H48.088C48.088 58.521 45.5631 55.6034 45.3311 55.3338C44.7044 54.6059 44.2256 53.9119 43.3096 53.7757V53.6811C44.0991 53.5019 44.558 52.8394 45.1274 52.1462C45.3488 51.8767 47.7122 48.9591 47.7122 48.9591H44.7558L41.3538 53.1107C41.3538 53.1107 41.3536 47.4687 41.3538 45H38.7433Z" fill="#FF0025"/>
<path fill-rule="evenodd" clip-rule="evenodd" d="M63.5114 48.8095C62.4708 48.8095 61.7844 49.2711 61.4743 49.6281C61.1643 49.985 61.2148 50.0834 61.1218 50.1518C60.9442 49.4535 60.4705 48.9604 59.6575 48.9604H58.5204V58.521H61.1309V53.5846C61.1309 52.0361 61.8448 51.0347 62.8567 51.0376C63.8685 51.0405 64.4291 51.5563 64.4291 52.7528V58.521H67.0395V53.6253C67.0395 52.2337 67.6026 51.0309 68.8053 51.0376C70.0081 51.0443 70.391 51.8329 70.391 52.866V58.521H72.9816V52.1787C72.9816 51.0977 72.6619 50.2978 72.0087 49.696C71.3554 49.0942 70.6413 48.8095 69.4666 48.8095C68.292 48.8095 67.4615 49.2957 66.823 49.9892C66.7116 50.1103 66.6064 50.274 66.5084 50.4102C66.3454 50.0635 66.0592 49.6839 65.8141 49.4799C65.1989 48.9681 64.552 48.8095 63.5114 48.8095Z" fill="#FF0025"/>
<path fill-rule="evenodd" clip-rule="evenodd" d="M78.1548 48.8095C76.5753 48.8066 75.724 49.3002 75.2443 49.7224C74.7646 50.1445 74.327 50.6792 74.3231 51.8366C74.3192 52.994 75.1665 53.9489 76.838 54.4624C78.5095 54.976 79.2024 55.1531 79.1969 55.7174C79.1914 56.2817 78.7751 56.641 77.5997 56.641C76.4244 56.641 75.2367 56.1188 74.3811 55.3464V57.7158C75.0204 58.1938 76.2568 58.677 77.7326 58.6772C79.2084 58.6774 80.0988 58.3163 80.6122 57.9092C81.1255 57.5022 81.7162 56.8564 81.7118 55.5654C81.7073 54.2745 80.8424 53.4252 79.5239 52.9638C78.2054 52.5024 76.9712 52.3467 76.8693 51.8077C76.7673 51.2686 77.0736 50.9038 78.0453 50.8159C79.0171 50.7279 80.595 51.2286 81.1298 51.7586V49.5665C80.6311 49.278 79.7344 48.8123 78.1548 48.8095Z" fill="#FF0025"/>
<path fill-rule="evenodd" clip-rule="evenodd" d="M87.2509 48.8095C85.8311 48.8068 84.7641 49.247 83.8485 50.1278C82.9329 51.0086 82.4153 52.215 82.4173 53.8798C82.4194 55.5447 83.1216 56.8048 84.0329 57.5406C84.9442 58.2764 86.0333 58.6774 87.5668 58.6772C89.1002 58.6769 90.2856 58.1207 90.8917 57.7424V55.486C90.4711 55.8429 89.1866 56.5413 87.8991 56.5413C86.6117 56.5413 85.2824 56.1113 84.9554 54.5172H91.4721C91.5036 54.2669 91.561 53.89 91.5597 53.4942C91.5554 52.2069 91.2766 51.3524 90.6169 50.4372C89.9572 49.5221 88.6707 48.8121 87.2509 48.8095ZM87.1278 50.7693C87.7279 50.7693 88.1442 50.959 88.4654 51.2963C88.7865 51.6335 89.0053 52.1363 89.0404 52.677H85.0022C85.1126 52.2035 85.2401 51.8637 85.5958 51.4487C85.9514 51.0337 86.5276 50.7693 87.1278 50.7693Z" fill="#FF0025"/>
<path fill-rule="evenodd" clip-rule="evenodd" d="M92.8641 45V56.8873C92.8641 58.1165 93.7399 58.6772 94.5979 58.6772C95.4558 58.6772 96 58.3915 96 58.3915C96 58.3915 95.4768 57.9679 95.4745 56.0853C95.4723 54.2594 95.4745 47.3947 95.4745 46.5826C95.4745 45.7705 94.9566 45 94.0011 45H92.8641Z" fill="#FF0025"/>
<path d="M69.6808 61.0998V65.0499C69.6808 65.2362 69.7304 65.3728 69.8298 65.4721C69.9291 65.5715 70.0782 65.6151 70.2707 65.6151C70.4322 65.6151 70.5627 65.5902 70.6745 65.5343V61.8886H71.3328C71.5378 61.8886 71.6992 61.9445 71.8172 62.0563C71.929 62.1681 71.9911 62.3234 71.9911 62.5222C71.9911 62.7271 71.9352 62.8823 71.8297 62.9941C71.7179 63.1059 71.575 63.1592 71.3949 63.1618C70.8803 63.1692 70.9215 63.4089 70.9215 63.9506H71.488C71.9538 63.9506 72.3202 63.8264 72.5873 63.5718C72.8481 63.3234 72.9848 62.9754 72.9848 62.5282C72.9848 62.0872 72.8481 61.7395 72.5811 61.4848C72.314 61.2302 71.9476 61.0998 71.488 61.0998H69.6808Z" fill="#FF0025"/>
<path d="M73.4281 62.3668V65.5715H74.4032V63.845C74.4032 63.6152 74.4653 63.435 74.5895 63.3046C74.7137 63.1742 74.8876 63.1059 75.1174 63.1059C75.3161 63.1059 75.4714 63.1556 75.5894 63.2549C75.7198 63.1059 75.7882 62.9382 75.7882 62.7643C75.7882 62.6214 75.7385 62.5096 75.6453 62.4227C75.5522 62.342 75.4279 62.2985 75.2665 62.2985C75.0801 62.2985 74.9125 62.3544 74.751 62.4662C74.5895 62.578 74.4715 62.727 74.397 62.9071V62.8264C74.397 62.6649 74.3411 62.5345 74.2417 62.4351C74.1423 62.3357 74.0057 62.2861 73.8318 62.2861C73.6703 62.2861 73.5337 62.3171 73.4281 62.3668Z" fill="#FF0025"/>
<path d="M76.2935 63.9071C76.0265 64.0934 75.896 64.3604 75.896 64.7082C75.896 64.9815 75.9892 65.2051 76.1755 65.379C76.3618 65.5529 76.5979 65.6336 76.8898 65.6336C77.1196 65.6336 77.3245 65.5777 77.5108 65.4597C77.6972 65.348 77.8214 65.174 77.8897 64.9443V65.0436C77.8897 65.4101 78.0512 65.5902 78.3803 65.5902C78.6163 65.5902 78.784 65.5343 78.8834 65.4163C78.8337 65.3045 78.8089 65.1057 78.8089 64.8076V63.4288C78.8089 63.05 78.6909 62.7581 78.4549 62.5531C78.2188 62.3544 77.8586 62.2488 77.3866 62.2488C77.1071 62.2488 76.8711 62.2861 76.6724 62.3482C76.4736 62.4103 76.3184 62.4972 76.219 62.609C76.1196 62.7208 76.0699 62.8388 76.0699 62.963C76.0699 63.0562 76.101 63.1369 76.1693 63.2115C76.2314 63.286 76.3122 63.3419 76.4115 63.3854C76.4798 63.2611 76.5916 63.1618 76.7469 63.0872C76.896 63.0127 77.0699 62.9755 77.2562 62.9755C77.4425 62.9755 77.5854 63.0189 77.6847 63.0997C77.7841 63.1866 77.8338 63.3232 77.8338 63.5096V63.6648C77.7344 63.64 77.5978 63.6276 77.4177 63.6276C76.9332 63.6276 76.5606 63.7207 76.2935 63.9071ZM76.9767 64.8387C76.9022 64.7766 76.8711 64.6958 76.8711 64.584C76.8711 64.4536 76.9208 64.3542 77.0326 64.2797C77.1382 64.2052 77.2934 64.1679 77.5046 64.1679C77.6164 64.1679 77.7282 64.1803 77.8338 64.2052V64.4226C77.8338 64.5654 77.7779 64.6834 77.6661 64.7828C77.5543 64.8821 77.4239 64.9256 77.2624 64.9256C77.1382 64.9256 77.045 64.9008 76.9767 64.8387Z" fill="#FF0025"/>
<path d="M79.5212 61.0998V61.6104C79.5212 61.9302 79.928 61.8886 80.3312 61.8886H81.2601C81.4464 61.8886 81.5955 61.9382 81.701 62.0251C81.8004 62.1121 81.8565 62.2364 81.8565 62.3979C81.8565 62.5656 81.8004 62.696 81.701 62.783C81.5955 62.8699 81.4464 62.9132 81.2601 62.9132H80.5024V62.124C80.1036 62.1229 79.6535 62.1567 79.5212 61.9302V65.5715H81.3906C81.8937 65.5715 82.285 65.4597 82.5582 65.2361C82.8315 65.0125 82.9743 64.7082 82.9743 64.317C82.9743 64.0375 82.8998 63.8015 82.7631 63.6027C82.6265 63.404 82.4341 63.2921 82.1981 63.2549C82.3969 63.1803 82.552 63.0562 82.67 62.8761C82.7818 62.7022 82.844 62.4911 82.844 62.2427C82.844 61.8825 82.7135 61.5967 82.4527 61.398C82.1918 61.1992 81.8254 61.0998 81.3534 61.0998H79.5212ZM80.5024 63.6896H81.434C81.6079 63.6896 81.7447 63.7394 81.844 63.8263C81.9372 63.9195 81.9868 64.0499 81.9868 64.2176C81.9868 64.3977 81.9309 64.5343 81.8316 64.6336C81.726 64.733 81.5769 64.7766 81.3906 64.7766H80.5024V63.6896Z" fill="#FF0025"/>
<path d="M83.7448 63.9071C83.4777 64.0934 83.3473 64.3604 83.3473 64.7082C83.3473 64.9815 83.4404 65.2051 83.6268 65.379C83.8131 65.5529 84.0491 65.6336 84.341 65.6336C84.5708 65.6336 84.7758 65.5777 84.9621 65.4597C85.1484 65.348 85.2726 65.174 85.3409 64.9443V65.0436C85.3409 65.4101 85.5024 65.5902 85.8316 65.5902C86.0676 65.5902 86.2353 65.5343 86.3346 65.4163C86.285 65.3045 86.2601 65.1057 86.2601 64.8076V63.4288C86.2601 63.05 86.1421 62.7581 85.9061 62.5531C85.6701 62.3544 85.3099 62.2488 84.8379 62.2488C84.5584 62.2488 84.3224 62.2861 84.1236 62.3482C83.9249 62.4103 83.7696 62.4972 83.6702 62.609C83.5709 62.7208 83.5212 62.8388 83.5212 62.963C83.5212 63.0562 83.5522 63.1369 83.6206 63.2115C83.6827 63.286 83.7634 63.3419 83.8628 63.3854C83.9311 63.2611 84.0429 63.1618 84.1982 63.0872C84.3472 63.0127 84.5211 62.9755 84.7074 62.9755C84.8938 62.9755 85.0366 63.0189 85.136 63.0997C85.2354 63.1866 85.285 63.3232 85.285 63.5096V63.6648C85.1857 63.64 85.049 63.6276 84.8689 63.6276C84.3845 63.6276 84.0118 63.7207 83.7448 63.9071ZM84.428 64.8387C84.3534 64.7766 84.3224 64.6958 84.3224 64.584C84.3224 64.4536 84.3721 64.3542 84.4839 64.2797C84.5894 64.2052 84.7447 64.1679 84.9559 64.1679C85.0677 64.1679 85.1795 64.1803 85.285 64.2052V64.4226C85.285 64.5654 85.2291 64.6834 85.1173 64.7828C85.0056 64.8821 84.8751 64.9256 84.7136 64.9256C84.5894 64.9256 84.4963 64.9008 84.428 64.8387Z" fill="#FF0025"/>
<path d="M89.7653 62.4165C89.6224 62.3357 89.4734 62.2923 89.3181 62.2923C89.1318 62.2923 88.9827 62.342 88.8709 62.4289C88.7591 62.5221 88.6846 62.6649 88.6349 62.8637L88.3741 63.9319C88.3057 64.1865 88.2312 64.5157 88.1567 64.9132C88.0946 64.6648 88.0138 64.3356 87.902 63.9319L87.5667 62.7519C87.517 62.5904 87.4425 62.4724 87.3493 62.3979C87.2499 62.3295 87.1319 62.2923 86.9829 62.2923C86.809 62.2923 86.635 62.342 86.4674 62.4413L87.4673 65.4101C87.6039 65.4101 87.7157 65.4287 87.7903 65.4597C87.8648 65.4908 87.9083 65.5653 87.9083 65.6833C87.9083 65.9255 87.7406 66.0436 87.4176 66.0436C87.3431 66.0436 87.281 66.0373 87.2189 66.0125C87.1568 65.9939 87.1071 65.969 87.0698 65.9318C86.9642 66.0436 86.9145 66.174 86.9145 66.3168C86.9145 66.4535 86.9642 66.5653 87.0698 66.6398C87.1754 66.7143 87.3369 66.7516 87.5542 66.7516C87.8462 66.7516 88.0884 66.6833 88.2809 66.5404C88.4672 66.4038 88.6163 66.1678 88.7219 65.8324L89.7653 62.4165Z" fill="#FF0025"/>
<path d="M90.2582 63.9071C89.9911 64.0934 89.8607 64.3604 89.8607 64.7082C89.8607 64.9815 89.9539 65.2051 90.1402 65.379C90.3265 65.5529 90.5625 65.6336 90.8544 65.6336C91.0842 65.6336 91.2892 65.5777 91.4755 65.4597C91.6618 65.348 91.786 65.174 91.8544 64.9443V65.0436C91.8544 65.4101 92.0158 65.5902 92.345 65.5902C92.581 65.5902 92.7487 65.5343 92.8481 65.4163C92.7984 65.3045 92.7735 65.1057 92.7735 64.8076V63.4288C92.7735 63.05 92.6555 62.7581 92.4195 62.5531C92.1835 62.3544 91.8233 62.2488 91.3513 62.2488C91.0718 62.2488 90.8358 62.2861 90.6371 62.3482C90.4383 62.4103 90.283 62.4972 90.1837 62.609C90.0843 62.7208 90.0346 62.8388 90.0346 62.963C90.0346 63.0562 90.0657 63.1369 90.134 63.2115C90.1961 63.286 90.2768 63.3419 90.3762 63.3854C90.4445 63.2611 90.5563 63.1618 90.7116 63.0872C90.8606 63.0127 91.0345 62.9755 91.2209 62.9755C91.4072 62.9755 91.55 63.0189 91.6494 63.0997C91.7488 63.1866 91.7985 63.3232 91.7985 63.5096V63.6648C91.6991 63.64 91.5625 63.6276 91.3823 63.6276C90.8979 63.6276 90.5253 63.7207 90.2582 63.9071ZM90.9414 64.8387C90.8669 64.7766 90.8358 64.6958 90.8358 64.584C90.8358 64.4536 90.8855 64.3542 90.9973 64.2797C91.1029 64.2052 91.2581 64.1679 91.4693 64.1679C91.5811 64.1679 91.6929 64.1803 91.7985 64.2052V64.4226C91.7985 64.5654 91.7426 64.6834 91.6308 64.7828C91.519 64.8821 91.3885 64.9256 91.2271 64.9256C91.1029 64.9256 91.0097 64.9008 90.9414 64.8387Z" fill="#FF0025"/>
<path d="M93.3845 62.3668V65.5715H94.3596V63.845C94.3596 63.6152 94.4217 63.435 94.5459 63.3046C94.6701 63.1742 94.844 63.1059 95.0738 63.1059C95.2726 63.1059 95.4278 63.1556 95.5458 63.2549C95.6763 63.1059 95.7446 62.9382 95.7446 62.7643C95.7446 62.6214 95.6949 62.5096 95.6017 62.4227C95.5086 62.342 95.3843 62.2985 95.2229 62.2985C95.0365 62.2985 94.8689 62.3544 94.7074 62.4662C94.5459 62.578 94.4279 62.727 94.3534 62.9071V62.8264C94.3534 62.6649 94.2975 62.5345 94.1981 62.4351C94.0987 62.3357 93.9621 62.2861 93.7882 62.2861C93.6267 62.2861 93.4901 62.3171 93.3845 62.3668Z" fill="#FF0025"/>
</g>
<rect x="1" y="1" width="110" height="110" rx="9" stroke="black" stroke-opacity="0.1" stroke-width="2"/>
<defs>
<clipPath id="clip0_752_561">
<rect x="2" y="2" width="108" height="108" rx="8" fill="white"/>
</clipPath>
</defs>
</svg>
