<svg width="112" height="112" viewBox="0 0 112 112" fill="none" xmlns="http://www.w3.org/2000/svg">
<g clip-path="url(#clip0_752_570)">
<rect x="2" y="2" width="108" height="108" rx="8" fill="white"/>
<path d="M18.5318 50.8465C18.0644 50.8465 17.6359 50.9245 17.1685 51.0024C16.7011 51.0803 16.3116 51.1971 16 51.3529V75.8527C16 77.0212 16.3116 77.878 16.9348 78.5012C17.558 79.1245 18.4928 79.3972 19.7003 79.3972C20.713 79.3972 21.5309 79.2414 22.232 78.8908V54.391C22.232 53.2614 21.8816 52.4045 21.2584 51.7813C20.6352 51.1581 19.7003 50.8465 18.5318 50.8465ZM34.6573 50.8465C34.1899 50.8465 33.7613 50.9245 33.2939 51.0024C32.8265 51.0803 32.437 51.1971 32.1254 51.3529V62.3759H27.949C26.2491 62.3759 25.1134 62.5149 24.2462 63.6209C23.379 64.7269 23.568 65.82 23.568 67.8289H32.1254V75.8527C32.1254 77.0212 32.4369 77.878 33.0602 78.5012C33.6834 79.1245 34.6183 79.3972 35.8258 79.3972C36.8385 79.3972 37.6564 79.2414 38.3575 78.8908V54.391C38.3575 53.2614 38.0069 52.4045 37.3837 51.7813C36.7605 51.1581 35.8258 50.8465 34.6573 50.8465Z" fill="#FF0025"/>
<path d="M44.8957 68.6858C43.2209 69.8543 42.4029 71.5292 42.4029 73.7104C42.4029 75.4242 42.9872 76.8265 44.1557 77.9171C45.3242 79.0077 46.8043 79.514 48.635 79.514C50.0761 79.514 51.3615 79.1635 52.53 78.4234C53.6985 77.7223 54.4775 76.6317 54.906 75.1905V75.8137C54.906 78.1118 55.9187 79.2414 57.9831 79.2414C59.4632 79.2414 60.5148 78.8908 61.138 78.1508C60.8264 77.4497 60.6706 76.2032 60.6706 74.3336V65.6866C60.6706 63.3107 59.9306 61.48 58.4505 60.1946C56.9703 58.9482 54.7112 58.2861 51.751 58.2861C49.9982 58.2861 48.5181 58.5198 47.2717 58.9093C46.0253 59.2988 45.0515 59.8441 44.4283 60.5452C43.8051 61.2463 43.4935 61.9864 43.4935 62.7654C43.4935 63.3496 43.6883 63.856 44.1167 64.3234C44.5062 64.7908 45.0126 65.1413 45.6358 65.414C46.0642 64.635 46.7653 64.0118 47.7391 63.5444C48.6739 63.077 49.7645 62.8433 50.933 62.8433C52.1015 62.8433 52.9974 63.1159 53.6206 63.6223C54.2438 64.1676 54.5554 65.0245 54.5554 66.193V67.1668C53.9322 67.011 53.0753 66.9331 51.9457 66.9331C48.9076 66.9331 46.5706 67.5173 44.8957 68.6858ZM49.1803 74.5284C48.7129 74.1389 48.5181 73.6325 48.5181 72.9314C48.5181 72.1135 48.8297 71.4902 49.5308 71.0228C50.193 70.5554 51.1667 70.3217 52.4911 70.3217C53.1922 70.3217 53.8933 70.3996 54.5554 70.5554V71.9187C54.5554 72.8146 54.2049 73.5546 53.5038 74.1778C52.8027 74.801 51.9847 75.0737 50.972 75.0737C50.193 75.0737 49.6087 74.9179 49.1803 74.5284Z" fill="#FF0025"/>
<path d="M65.2938 50.496V75.6969C65.2938 76.8654 65.5664 77.7223 66.1896 78.3455C66.8128 78.9687 67.7087 79.2414 68.8772 79.2414C69.3056 79.2414 69.7731 79.2024 70.2405 79.1245C70.7079 79.0466 71.0974 78.8908 71.409 78.735V53.5341C71.409 52.4046 71.0974 51.5477 70.4742 50.9245C69.851 50.3013 68.994 49.9897 67.8255 49.9897C67.3581 49.9897 66.9297 50.0676 66.4623 50.1455C65.9949 50.2234 65.6054 50.3402 65.2938 50.496Z" fill="#FF0025"/>
<path d="M79.8745 78.1897C81.4715 79.0856 83.3411 79.514 85.4445 79.514C87.5478 79.514 89.3784 79.0856 90.9754 78.1897C92.5724 77.3328 93.8188 76.0864 94.6757 74.4505C95.5326 72.8535 96 70.9839 96 68.8806C96 66.7773 95.5326 64.9466 94.6757 63.3496C93.8188 61.7527 92.5724 60.5062 90.9754 59.6104C89.3784 58.7535 87.5478 58.2861 85.4445 58.2861C83.3411 58.2861 81.4715 58.7535 79.8745 59.6104C78.2776 60.5062 77.0312 61.7527 76.1743 63.3496C75.3173 64.9466 74.8889 66.7773 74.8889 68.8806C74.8889 70.9839 75.3173 72.8535 76.1743 74.4505C77.0312 76.0864 78.2776 77.3328 79.8745 78.1897ZM88.6773 73.3209C87.8983 74.3336 86.8467 74.84 85.4445 74.84C84.0422 74.84 82.9516 74.3336 82.2116 73.3209C81.4326 72.3082 81.082 70.8281 81.082 68.8806C81.082 67.011 81.4326 65.5308 82.2116 64.5181C82.9516 63.5054 84.0422 62.9601 85.4445 62.9601C86.8467 62.9601 87.8983 63.5054 88.6773 64.5181C89.4174 65.5308 89.8069 67.011 89.8069 68.8806C89.8069 70.8281 89.4174 72.3082 88.6773 73.3209Z" fill="#FF0025"/>
<path fill-rule="evenodd" clip-rule="evenodd" d="M54.6565 40.7334C54.6565 42.3288 53.6597 43.4049 52.286 43.4049C50.9123 43.4049 49.8757 42.3787 49.8757 40.7334C49.8757 39.0881 50.8791 38.0618 52.286 38.0618C53.693 38.0618 54.6565 39.138 54.6565 40.7334ZM52.2861 35.8095C49.3384 35.8049 47.2736 37.9122 47.2776 40.7335C47.2817 43.5548 49.3049 45.6783 52.2861 45.6772C55.2673 45.676 57.2477 43.523 57.2479 40.7335C57.2481 37.944 55.2338 35.814 52.2861 35.8095Z" fill="#FF0025"/>
<path fill-rule="evenodd" clip-rule="evenodd" d="M28.8079 35.8095C27.3882 35.8068 26.3211 36.247 25.4055 37.1278C24.4899 38.0086 23.9723 39.215 23.9744 40.8798C23.9764 42.5447 24.6787 43.8048 25.59 44.5406C26.5013 45.2764 27.5904 45.6774 29.1238 45.6772C30.6572 45.6769 31.8426 45.1207 32.4487 44.7424V42.486C32.0281 42.8429 30.7436 43.5413 29.4561 43.5413C28.1687 43.5413 26.8394 43.1113 26.5125 41.5172H33.0291C33.0606 41.2669 33.118 40.89 33.1167 40.4942C33.1124 39.2069 32.8336 38.3524 32.1739 37.4372C31.5142 36.5221 30.2277 35.8121 28.8079 35.8095ZM28.6848 37.7693C29.2849 37.7693 29.7013 37.959 30.0224 38.2963C30.3435 38.6335 30.5623 39.1363 30.5974 39.677H26.5592C26.6696 39.2035 26.7971 38.8637 27.1528 38.4487C27.5084 38.0337 28.0846 37.7693 28.6848 37.7693Z" fill="#FF0025"/>
<path fill-rule="evenodd" clip-rule="evenodd" d="M34.4211 32V43.8873C34.4211 45.1165 35.297 45.6772 36.1549 45.6772C37.0129 45.6772 37.557 45.3915 37.557 45.3915C37.557 45.3915 37.0338 44.9679 37.0316 43.0853C37.0294 41.2594 37.0313 34.3947 37.0316 33.5826C37.0318 32.7705 36.5137 32 35.5581 32H34.4211Z" fill="#FF0025"/>
<path fill-rule="evenodd" clip-rule="evenodd" d="M16 33.7897V35.132H19.7921V43.8873C19.7921 45.1165 20.668 45.6772 21.5259 45.6772C22.3838 45.6772 22.928 45.3915 22.928 45.3915C22.928 45.3915 22.4048 44.9679 22.4025 43.0853C22.4003 41.2594 22.4023 35.502 22.4025 34.69C22.4028 33.8779 21.4561 32.4157 19.8984 32.4157L17.491 32.4157C16.702 32.4157 16 33.0584 16 33.7897ZM21.5691 32.4157C21.5194 32.4157 21.4794 32.4557 21.4794 32.5055C21.4794 32.5552 21.5293 32.5921 21.5691 32.6218C21.7343 32.7451 22.249 33.11 22.4948 33.6093C22.7406 34.1085 22.7465 34.5616 22.9062 34.8233C23.0659 35.0851 23.3265 35.132 23.6022 35.132H25.5841C26.022 35.132 26.1941 34.8376 26.1941 34.4885V32.4157H21.5691Z" fill="#FF0025"/>
<path fill-rule="evenodd" clip-rule="evenodd" d="M38.7433 32V45.5209H41.3538C41.3537 44.1179 41.3538 42.7125 41.3538 41.2461C41.918 41.8981 43.4601 43.7108 43.6561 43.9384C44.3551 44.7505 44.8566 45.5209 46.0002 45.5209H48.088C48.088 45.5209 45.5631 42.6034 45.331 42.3338C44.7044 41.6059 44.2256 40.9119 43.3096 40.7757V40.6811C44.0991 40.5018 44.558 39.8394 45.1274 39.1462C45.3488 38.8767 47.7122 35.9591 47.7122 35.9591H44.7558L41.3538 40.1107C41.3538 40.1107 41.3535 34.4687 41.3538 32H38.7433Z" fill="#FF0025"/>
<path fill-rule="evenodd" clip-rule="evenodd" d="M63.5113 35.8095C62.4708 35.8095 61.7844 36.2711 61.4743 36.6281C61.1642 36.985 61.2148 37.0834 61.1218 37.1518C60.9441 36.4535 60.4704 35.9604 59.6575 35.9604H58.5204V45.5209H61.1309V40.5846C61.1309 39.0361 61.8448 38.0347 62.8566 38.0376C63.8685 38.0405 64.429 38.5563 64.429 39.7528V45.5209H67.0395V40.6253C67.0395 39.2337 67.6025 38.0309 68.8053 38.0376C70.008 38.0443 70.3909 38.8329 70.3909 39.866V45.5209H72.9815V39.1787C72.9815 38.0977 72.6619 37.2978 72.0086 36.696C71.3554 36.0942 70.6413 35.8095 69.4666 35.8095C68.2919 35.8095 67.4615 36.2957 66.823 36.9892C66.7116 37.1103 66.6064 37.274 66.5083 37.4102C66.3454 37.0635 66.0592 36.6839 65.814 36.4799C65.1989 35.9681 64.5519 35.8095 63.5113 35.8095Z" fill="#FF0025"/>
<path fill-rule="evenodd" clip-rule="evenodd" d="M78.1548 35.8095C76.5752 35.8066 75.724 36.3002 75.2443 36.7224C74.7646 37.1445 74.327 37.6792 74.3231 38.8366C74.3191 39.994 75.1664 40.9489 76.8379 41.4624C78.5094 41.976 79.2024 42.1531 79.1968 42.7174C79.1913 43.2817 78.775 43.641 77.5997 43.641C76.4243 43.641 75.2367 43.1188 74.381 42.3464V44.7158C75.0204 45.1938 76.2567 45.677 77.7325 45.6772C79.2084 45.6774 80.0988 45.3163 80.6121 44.9092C81.1255 44.5022 81.7162 43.8564 81.7117 42.5654C81.7073 41.2745 80.8424 40.4252 79.5239 39.9638C78.2054 39.5024 76.9712 39.3467 76.8692 38.8077C76.7673 38.2686 77.0735 37.9038 78.0453 37.8158C79.0171 37.7279 80.5949 38.2286 81.1297 38.7586V36.5665C80.6311 36.2779 79.7343 35.8123 78.1548 35.8095Z" fill="#FF0025"/>
<path fill-rule="evenodd" clip-rule="evenodd" d="M87.2509 35.8095C85.8311 35.8068 84.7641 36.247 83.8485 37.1278C82.9329 38.0086 82.4152 39.215 82.4173 40.8798C82.4193 42.5446 83.1216 43.8048 84.0329 44.5406C84.9442 45.2764 86.0333 45.6774 87.5667 45.6772C89.1001 45.6769 90.2856 45.1207 90.8916 44.7424V42.486C90.4711 42.8429 89.1865 43.5413 87.8991 43.5413C86.6116 43.5413 85.2823 43.1112 84.9554 41.5172H91.4721C91.5035 41.2669 91.561 40.89 91.5596 40.4942C91.5553 39.2069 91.2766 38.3524 90.6169 37.4372C89.9572 36.5221 88.6706 35.8121 87.2509 35.8095ZM87.1277 37.7693C87.7279 37.7693 88.1442 37.959 88.4653 38.2963C88.7865 38.6335 89.0053 39.1363 89.0403 39.677H85.0021C85.1125 39.2035 85.2401 38.8637 85.5957 38.4487C85.9514 38.0337 86.5275 37.7693 87.1277 37.7693Z" fill="#FF0025"/>
<path fill-rule="evenodd" clip-rule="evenodd" d="M92.864 32V43.8873C92.864 45.1165 93.7399 45.6772 94.5978 45.6772C95.4558 45.6772 96 45.3915 96 45.3915C96 45.3915 95.4767 44.9679 95.4745 43.0853C95.4723 41.2594 95.4745 34.3947 95.4745 33.5826C95.4745 32.7705 94.9566 32 94.0011 32H92.864Z" fill="#FF0025"/>
</g>
<rect x="1" y="1" width="110" height="110" rx="9" stroke="black" stroke-opacity="0.1" stroke-width="2"/>
<defs>
<clipPath id="clip0_752_570">
<rect x="2" y="2" width="108" height="108" rx="8" fill="white"/>
</clipPath>
</defs>
</svg>
