<svg width="112" height="112" viewBox="0 0 112 112" fill="none" xmlns="http://www.w3.org/2000/svg">
<g clip-path="url(#clip0_752_563)">
<rect x="2" y="2" width="108" height="108" rx="8" fill="white"/>
<g clip-path="url(#clip1_752_563)">
<path d="M52.2939 60.3804C50.8882 60.3804 49.8658 59.3575 49.8658 57.6952C49.8658 56.0329 50.8882 55.0099 52.2939 55.0099C53.6997 55.0099 54.722 56.0329 54.722 57.6952C54.722 59.3575 53.6997 60.3804 52.2939 60.3804ZM52.2939 52.8361C49.4824 52.8361 47.3099 54.882 47.3099 57.6952C47.3099 60.5083 49.3546 62.5542 52.2939 62.5542C55.2332 62.5542 57.278 60.5083 57.278 57.6952C57.1502 54.882 55.1054 52.8361 52.2939 52.8361ZM43.2204 57.823C43.0927 57.823 43.0927 57.6952 43.2204 57.6952C43.7316 57.5673 44.115 57.1837 44.4984 56.8001L47.5655 52.964H44.6262L41.3035 57.1837V49H38.7476V62.4264H41.3035V58.0788L44.2428 61.5313C44.754 62.1706 45.2652 62.4264 46.1597 62.4264H47.9489L44.4984 58.4624C44.2428 58.0788 43.7316 57.823 43.2204 57.823ZM69.5463 52.8361C68.0128 52.8361 66.9904 53.6033 66.4792 54.4984C65.9681 53.4755 65.0735 52.8361 63.5399 52.8361C62.3898 52.8361 61.4952 53.3476 61.1118 54.1148C61.1118 54.2427 60.984 54.2427 60.984 54.1148C60.8562 53.4755 60.2173 52.964 59.5783 52.964H58.5559V62.4264H61.1118V57.6952C61.1118 56.0329 61.7508 55.0099 63.0288 55.0099C64.0511 55.0099 64.5623 55.6493 64.5623 56.8001V62.5542H67.1182V57.5673C67.1182 55.905 67.7572 54.882 68.9074 54.882C69.9297 54.882 70.4409 55.5214 70.4409 56.6722V62.4264H72.9968V56.0329C72.9968 54.1148 71.5911 52.8361 69.5463 52.8361ZM36.9585 50.4066C36.9585 49.6394 36.3195 49 35.5527 49H34.5304V60.7641C34.5304 62.1706 35.4249 62.6821 36.3195 62.6821C36.7029 62.6821 37.0863 62.5542 37.4696 62.4264C37.0863 61.9149 36.9585 61.0198 36.9585 60.3804V50.4066ZM22.3898 51.941C22.3898 50.5344 21.2396 49.3836 19.8339 49.3836H17.4058C16.639 49.3836 16 50.023 16 50.9181V52.0689H19.8339V60.7641C19.8339 62.1706 20.7284 62.6821 21.623 62.6821C22.0064 62.6821 22.5176 62.5542 22.7732 62.4264C22.3898 61.9149 22.262 61.0198 22.262 60.3804L22.3898 51.941ZM26.0958 51.4295V49.3836H21.4952C21.3674 49.3836 21.3674 49.5115 21.4952 49.5115C22.1342 49.8951 22.6454 50.6623 22.7732 51.4295C22.7732 51.8131 23.0288 51.941 23.4121 51.941H25.4569C25.9566 51.9356 26.0958 51.813 26.0958 51.4295ZM78.492 56.6722C77.2141 56.2886 76.8307 56.0329 76.8307 55.6492C76.8307 55.1378 77.3419 54.7542 78.2364 54.7542C79.2588 54.7542 80.409 55.1378 81.0479 55.6492V53.6033C80.2812 53.0918 79.2588 52.8361 78.1086 52.8361C75.8083 52.8361 74.4026 54.1148 74.4026 55.7771C74.4026 57.4394 75.8083 58.2067 77.3419 58.5903C78.6198 58.9739 79.2588 59.2296 79.2588 59.7411C79.2588 60.3804 78.7476 60.7641 77.7252 60.7641C76.3195 60.7641 75.2971 60.2526 74.5303 59.4854V61.6592C75.4249 62.2985 76.5751 62.5542 77.853 62.5542C80.2812 62.5542 81.6869 61.4034 81.6869 59.6132C81.6869 57.6952 80.0256 57.0558 78.492 56.6722ZM26.4792 56.6722C26.7348 55.5214 27.5016 54.6263 28.6518 54.6263C29.6741 54.6263 30.4409 55.2656 30.5687 56.6722H26.4792ZM28.6518 52.8361C26.0958 52.8361 23.9233 54.7542 23.9233 57.823C23.9233 60.6362 25.8403 62.6821 29.0351 62.6821C30.1853 62.6821 31.3355 62.2985 32.3578 61.787V59.4854C31.4633 60.1247 30.4409 60.5083 29.2907 60.5083C27.7572 60.5083 26.607 59.869 26.3514 58.3345H32.9968C32.9968 58.0788 33.1246 57.6952 33.1246 57.4394C32.9968 54.4984 31.0799 52.8361 28.6518 52.8361ZM85.0096 56.6722C85.2652 55.5214 86.032 54.6263 87.1821 54.6263C88.2045 54.6263 88.9712 55.2656 89.099 56.6722H85.0096ZM87.1821 52.8361C84.6262 52.8361 82.4537 54.7542 82.4537 57.823C82.4537 60.6362 84.3706 62.6821 87.5655 62.6821C88.7157 62.6821 89.8658 62.2985 90.8882 61.787V59.4854C89.9936 60.1247 88.9713 60.5083 87.8211 60.5083C86.2875 60.5083 85.1374 59.869 84.8818 58.3345H91.5272C91.5272 58.0788 91.655 57.6952 91.655 57.4394C91.5272 54.4984 89.6102 52.8361 87.1821 52.8361ZM95.4888 60.2526V50.4066C95.4888 49.6394 94.8498 49 94.0831 49H93.0607V60.7641C93.0607 62.1706 93.9553 62.6821 94.8498 62.6821C95.2332 62.6821 95.6166 62.5542 96 62.4264C95.4888 61.787 95.4888 61.0198 95.4888 60.2526Z" fill="#FF0025"/>
</g>
</g>
<rect x="1" y="1" width="110" height="110" rx="9" stroke="black" stroke-opacity="0.1" stroke-width="2"/>
<defs>
<clipPath id="clip0_752_563">
<rect x="2" y="2" width="108" height="108" rx="8" fill="white"/>
</clipPath>
<clipPath id="clip1_752_563">
<rect width="80" height="13.6821" fill="white" transform="translate(16 49)"/>
</clipPath>
</defs>
</svg>
