<svg width="112" height="112" viewBox="0 0 112 112" fill="none" xmlns="http://www.w3.org/2000/svg">
<g clip-path="url(#clip0_752_564)">
<rect x="2" y="2" width="108" height="108" rx="8" fill="white"/>
<g clip-path="url(#clip1_752_564)">
<path fill-rule="evenodd" clip-rule="evenodd" d="M52.5131 16.0001C52.281 16.0039 51.9827 16.1077 51.9798 16.5054C51.977 16.9031 52.3887 17.75 52.3659 19.6936C52.3422 21.7131 51.8795 23.0865 49.06 26.5413L37.8836 40.2361C31.4162 48.1607 27.0203 51.7744 27.0001 60.419C26.9798 69.0635 31.4197 73.2877 37.8882 78.4945C44.3568 83.7012 52.7364 90.461 59.2553 95.7559C59.4033 95.8761 59.5876 96.0038 59.8197 95.9999C60.0518 95.996 60.3502 95.8923 60.353 95.4946C60.3558 95.0969 59.911 94.7064 59.9338 92.7628C59.9575 90.7433 60.1537 89.5289 62.9906 86.0883L74.7259 71.8561C81.2331 63.9642 85.2605 60.4352 85.2807 51.894C85.3009 43.3529 80.8236 38.689 75.0919 34.2432C67.5521 28.395 58.7883 21.0212 53.0775 16.2441C52.9313 16.1218 52.7452 15.9962 52.5131 16.0001Z" fill="url(#paint0_radial_752_564)"/>
<path fill-rule="evenodd" clip-rule="evenodd" d="M42.8342 45.2808V48.7996H52.7754V71.7522C52.7754 74.9746 55.0715 76.4446 57.3207 76.4446C59.5698 76.4446 60.9964 75.6955 60.9964 75.6955C60.9964 75.6955 59.6248 74.5851 59.6189 69.6498C59.6131 64.8631 59.6183 49.7698 59.6189 47.6409C59.6194 45.5121 57.1377 41.6789 53.0542 41.6789L46.7431 41.6789C44.6746 41.6789 42.8342 43.3636 42.8342 45.2808ZM57.4341 41.6789C57.3037 41.6789 57.1988 41.7838 57.1988 41.9142C57.1988 42.0445 57.3296 42.1413 57.4341 42.2192C57.867 42.5423 59.2164 43.499 59.8608 44.8078C60.5052 46.1167 60.5205 47.3045 60.9392 47.9906C61.3579 48.6767 62.0412 48.7996 62.7638 48.7996H67.9594C69.1075 48.7996 69.5586 48.028 69.5586 47.1128V41.6789H57.4341Z" fill="white"/>
</g>
</g>
<rect x="1" y="1" width="110" height="110" rx="9" stroke="black" stroke-opacity="0.1" stroke-width="2"/>
<defs>
<radialGradient id="paint0_radial_752_564" cx="0" cy="0" r="1" gradientUnits="userSpaceOnUse" gradientTransform="translate(35.5597 76.7895) rotate(-28.191) scale(52.6348 44.8268)">
<stop stop-color="#FFCC00"/>
<stop offset="0.604356" stop-color="#FF0015"/>
<stop offset="1" stop-color="#C6000F"/>
</radialGradient>
<clipPath id="clip0_752_564">
<rect x="2" y="2" width="108" height="108" rx="8" fill="white"/>
</clipPath>
<clipPath id="clip1_752_564">
<rect width="58.2808" height="80" fill="white" transform="translate(27 16)"/>
</clipPath>
</defs>
</svg>
