<svg width="112" height="112" viewBox="0 0 112 112" fill="none" xmlns="http://www.w3.org/2000/svg">
<g clip-path="url(#clip0_752_566)">
<rect x="2" y="2" width="108" height="108" rx="8" fill="white"/>
<g clip-path="url(#clip1_752_566)">
<path d="M77.1568 49.4583C76.5395 49.0279 75.9473 48.5626 75.3832 48.0645C75.5689 47.7418 75.9002 47.2449 76.1972 46.825C77.9251 44.3174 81.1667 39.5822 81.1667 32.8305C81.1776 30.7112 80.7538 28.6121 79.9217 26.6629C79.0896 24.7138 77.8667 22.9559 76.3286 21.4978C72.9013 18.2591 67.5035 16.0086 59.578 16.0114C52.0552 16.0114 43.5843 18.4819 36.2671 22.8087C32.9856 24.7537 30.2838 26.8529 28.3902 28.8664C26.4967 30.8799 25.4114 32.8048 25.4057 34.4642C25.4037 34.8599 25.4819 35.252 25.6355 35.6167C25.7891 35.9814 26.0151 36.3112 26.2996 36.5862C27.3678 37.6372 29.2642 38.1256 31.6832 38.3855C34.1023 38.6454 37.0526 38.6454 40.2285 38.6454H40.7997C45.6949 38.6454 49.1507 38.7796 51.3669 39.0995C52.1902 39.1873 52.9959 39.3971 53.7574 39.7221C54.2572 39.9791 54.4143 40.2248 54.4172 40.5047C54.3543 40.7704 54.2033 41.0069 53.9888 41.1758C52.932 42.2354 50.156 43.8091 47.6598 45.537C46.4666 46.3261 45.3548 47.2321 44.3411 48.2416C43.4643 49.167 42.8703 50.118 42.8617 51.0976V51.1462C42.8617 52.3885 43.53 53.3882 44.5353 54.1593C47.5713 56.4869 53.8602 57.0981 57.1475 57.695C59.1782 58.0663 60.2549 58.786 60.8346 59.5714C61.3227 60.2796 61.5645 61.1286 61.5229 61.9876C61.5229 64.8065 60.4776 67.297 58.5984 68.9992C56.9305 70.5329 54.9198 71.5267 51.9867 71.5296H51.6354C51.7044 70.984 51.7387 70.4345 51.7382 69.8845C51.7382 66.5658 50.4359 63.7984 48.2196 61.8877C46.0033 59.977 42.8903 58.886 39.2774 58.886C34.8191 58.886 31.2434 60.7338 28.7929 63.4785C26.3646 66.2279 25.0187 69.7664 25.0059 73.4346C25.0059 79.0638 27.6048 84.7216 32.6657 88.9599C37.7266 93.1982 45.2551 96.0228 55.1055 96.0228C62.9167 96.0228 70.7936 93.4524 76.757 88.9656C81.695 85.2528 87.6098 78.4669 87.5956 67.3427C87.5956 57.1638 80.764 52.1344 77.1625 49.484L77.1568 49.4583ZM46.0719 50.178C47.1629 49.0898 49.4163 47.5447 51.0985 46.4794C52.7807 45.4141 54.2401 44.4802 55.314 43.5235C56.3878 42.5667 57.1018 41.6099 57.1047 40.4932C57.1057 40.0605 57.0198 39.632 56.852 39.2331C56.6842 38.8342 56.438 38.4732 56.1279 38.1713C54.9855 37.0289 52.9406 36.5091 50.4159 36.2263C47.8912 35.9436 44.8266 35.9407 41.6622 35.9407H40.8054C38.1978 35.9407 36.1186 35.9007 34.4593 35.8351C36.7641 34.9411 39.4288 33.516 42.3333 31.9651C47.0458 29.4461 52.2666 26.6472 57.1847 25.3963C56.0422 26.6815 55.314 28.1466 55.3082 29.409C55.3036 29.7401 55.4228 30.0609 55.6424 30.3087C55.7902 30.4545 55.967 30.5678 56.1613 30.6411C56.3557 30.7144 56.5632 30.7461 56.7705 30.7342C57.6473 30.7342 58.6269 30.3972 59.7608 30.0345C61.2973 29.529 63.0766 28.9492 65.0301 28.9492C66.9952 28.9673 68.9081 29.584 70.5137 30.7171C69.2113 30.8027 68.1432 31.1826 67.4749 31.711C67.2063 31.8926 66.9847 32.1354 66.8283 32.4194C66.6719 32.7034 66.5852 33.0205 66.5752 33.3446C66.5752 34.0672 67.0865 34.6127 67.7177 35.3438C68.7287 36.4862 70.0539 37.9771 70.0539 40.3847C70.0126 42.1954 69.4296 43.9522 68.3802 45.4284C68.3802 45.3294 68.3802 45.2266 68.3802 45.12C68.3802 43.8976 68.1089 42.5181 67.4378 41.7356C67.2483 41.5098 67.0113 41.3288 66.7437 41.2053C66.4761 41.0819 66.1845 41.0192 65.8898 41.0216C64.8588 41.0216 63.9706 41.8156 62.6454 42.9066C61.5149 43.8722 60.3212 44.7615 59.0725 45.5684C52.8692 49.4754 49.5419 50.9948 47.1829 51.1833C46.3118 51.2604 45.0066 51.2461 46.0719 50.178ZM51.7582 74.1057C55.2511 74.1057 58.1643 73.0404 60.4177 70.9641C62.8253 68.7735 64.1933 65.4948 64.1933 61.9676C64.2419 60.4373 63.7069 58.9457 62.6968 57.795C67.9033 59.0374 73.3097 61.7135 76.3171 65.7376C75.2725 65.3714 74.1739 65.1831 73.067 65.1807C72.0959 65.195 71.3248 66.206 71.3191 67.3655C71.3191 67.971 71.5504 68.6593 71.8275 69.519C72.2616 70.8527 72.8185 72.5749 72.8185 74.6312C72.8185 76.5276 72.3473 78.7068 70.8536 81.143C70.8107 79.178 70.2824 77.6101 69.5998 76.7675C69.4368 76.5207 69.2158 76.3177 68.956 76.1762C68.6963 76.0347 68.4059 75.9591 68.1101 75.956C67.8144 75.9529 67.5224 76.0224 67.2598 76.1584C66.9972 76.2944 66.7719 76.4928 66.6038 76.7361C66.1647 77.308 65.7822 77.9211 65.4614 78.5668C64.0334 81.1373 61.7743 85.2356 54.717 87.3577C55.3029 86.4102 55.6371 85.3288 55.6881 84.216C55.696 83.8894 55.6397 83.5643 55.5224 83.2593C55.4313 83.0088 55.2654 82.7924 55.0474 82.6392C54.8293 82.486 54.5694 82.4033 54.3029 82.4025H54.2858C53.3635 82.489 52.4542 82.6806 51.5754 82.9737C49.9503 83.4249 47.9797 83.979 45.8148 83.979C43.1967 83.9859 40.6532 83.1072 38.5977 81.4857C39.4062 81.3907 40.172 81.0711 40.8082 80.5632C41.0317 80.3891 41.2149 80.1688 41.3455 79.9175C41.4761 79.6661 41.551 79.3895 41.5651 79.1066C41.5651 78.2812 40.9053 77.7157 40.1656 77.036C39.086 76.0193 37.798 74.8226 37.8008 72.8091C37.8103 72.1328 37.9329 71.4628 38.1635 70.827C38.383 71.4562 38.7203 72.0377 39.1574 72.5406C39.8172 73.2518 40.6054 73.683 41.3766 73.683C42.1477 73.683 42.6675 73.306 42.8703 72.8262C43.0369 72.3508 43.1068 71.8468 43.0759 71.344C43.0814 71.0932 43.1373 70.8461 43.2404 70.6175C43.3434 70.3888 43.4915 70.1833 43.6757 70.0131C44.0509 69.6508 44.5508 69.4464 45.0723 69.4418C46.2604 69.4418 47.1572 70.1016 47.7855 71.0869C48.4162 72.1558 48.745 73.3759 48.7365 74.617C48.7471 75.3335 48.619 76.0453 48.3595 76.7133L48.0911 77.3673L48.648 76.9332C49.6178 76.1683 50.3994 75.1913 50.9328 74.0772C51.1984 74.0972 51.4812 74.1057 51.7582 74.1057ZM28.6844 35.2638C28.3188 35.0496 28.0875 34.8183 28.0875 34.467C28.0875 33.5045 28.9986 31.9709 30.6865 30.2887C35.7416 25.2221 47.4485 18.6961 59.578 18.7046C65.707 18.7046 70.6993 20.2212 74.0152 23.0515C75.4311 24.2541 76.5643 25.7544 77.3339 27.4452C78.1035 29.136 78.4907 30.9758 78.4677 32.8334C78.4677 38.7653 75.6745 42.8523 73.9752 45.3256C73.1184 46.5794 72.59 47.3248 72.5815 48.1502C72.596 48.483 72.6773 48.8095 72.8206 49.1103C72.9639 49.4111 73.1661 49.6799 73.4154 49.901C74.0832 50.5316 74.7984 51.1102 75.5546 51.6317C79.0846 54.245 84.888 58.5147 84.8909 67.3398C84.8909 77.3587 79.5958 83.4449 75.1405 86.8065C69.6455 90.9505 62.3341 93.3296 55.0998 93.3296C37.0326 93.3296 27.6819 83.2764 27.6819 73.4317C27.6919 70.4313 28.7875 67.5359 30.7665 65.2806C31.83 64.0771 33.1413 63.1179 34.6103 62.4686C36.0794 61.8194 37.6715 61.4955 39.2774 61.5192C41.3052 61.5192 43.8642 61.9962 45.8948 63.3528C47.9254 64.7094 49.4477 66.9343 49.4534 70.5357C49.4534 70.6385 49.4534 70.7442 49.4534 70.8499C49.2502 70.3892 48.986 69.9579 48.668 69.5675C48.2394 69.0234 47.6915 68.5851 47.0665 68.2865C46.4415 67.9879 45.7563 67.8369 45.0637 67.8453C44.1278 67.8464 43.2292 68.2121 42.5584 68.8647C41.8877 69.5173 41.4976 70.4056 41.4708 71.3411C41.4827 71.5721 41.4527 71.8034 41.3823 72.0237C41.3722 72.0509 41.3587 72.0768 41.3423 72.1008C40.8682 72.1008 40.3056 71.7609 39.8572 71.1183C39.313 70.2675 39.0392 69.2718 39.0718 68.2623C39.0713 68.0047 39.0846 67.7473 39.1118 67.4912L39.1746 66.92L38.7862 67.3512C36.9583 69.3847 36.2986 71.224 36.2986 72.8062C36.2986 75.3967 38.0465 77.2445 39.0803 78.2127C39.2688 78.384 39.503 78.5982 39.6858 78.7839C39.7743 78.8781 39.8543 78.9667 39.9086 79.0352L39.9657 79.1238V79.1409C39.9657 79.2351 39.7601 79.4836 39.2774 79.675C38.465 79.9671 37.6039 80.0999 36.7412 80.0662C36.33 80.0662 35.8844 80.0462 35.3732 79.9977L34.922 79.9577L35.2076 80.309C38.6833 84.4388 42.5047 85.5527 45.8148 85.5527C48.2596 85.5527 50.4302 84.9443 51.9953 84.5074C52.655 84.3189 53.4004 84.039 53.8117 84.0447C53.9831 84.0447 54.0545 84.0847 54.0973 84.1361C54.1516 84.2304 54.1765 84.3388 54.1687 84.4474C54.1687 84.9272 53.8831 85.7983 53.4147 86.6922C52.9336 87.6198 52.3047 88.4629 51.5526 89.1884L51.1099 89.5911L51.7011 89.514C61.8085 88.2145 65.1815 82.3568 66.838 79.3351C67.069 78.8912 67.3226 78.4593 67.5977 78.0413C67.8262 77.7015 68.0518 77.5387 68.1061 77.5587C68.1603 77.5787 68.3545 77.6443 68.5202 77.8928C69.0171 78.6297 69.4341 80.4632 69.4313 82.3968C69.4356 83.2286 69.3523 84.0586 69.1828 84.8729L69.0571 85.4584L69.4941 85.05C73.3097 81.5171 74.3493 77.8014 74.3493 74.7112C74.3121 72.7763 73.963 70.86 73.3155 69.0363C73.11 68.5005 72.9672 67.9427 72.8899 67.3741C72.8716 67.2153 72.9057 67.0548 72.987 66.9171C73.0625 66.8355 73.163 66.7813 73.2726 66.7629C74.8834 66.7629 76.7969 67.3341 79.0932 68.4337L79.5416 68.6479L79.3474 68.1909C76.2514 60.9052 69.3113 57.775 62.5597 56.0671C59.1781 55.2103 55.8338 54.7105 53.0177 54.225C50.9699 53.8708 49.1964 53.5195 47.9083 53.0597L47.2743 52.7741C51.1356 52.2886 55.7966 49.5668 59.9321 46.9107C61.2291 46.055 62.4693 45.1163 63.645 44.1004C64.1505 43.6834 64.616 43.295 65.013 43.0179C65.2631 42.802 65.5637 42.6526 65.8869 42.5838C65.961 42.5863 66.0337 42.605 66.0998 42.6386C66.1659 42.6721 66.2239 42.7197 66.2697 42.778C66.6495 43.1865 66.8751 44.3174 66.8666 45.5512C66.8719 46.5344 66.7471 47.514 66.4953 48.4644L66.3639 48.9442L66.7809 48.6757C70.0653 46.5594 71.6361 43.3635 71.6361 40.3618C71.6361 37.3602 69.9682 35.4752 68.8943 34.2728C68.7287 34.0872 68.5373 33.8673 68.3831 33.6788C68.289 33.5644 68.2049 33.4421 68.1318 33.3132C68.1886 33.1665 68.2881 33.0402 68.4174 32.9505C69.1057 32.4364 70.2795 32.1165 71.6418 32.1165C72.3784 32.1194 73.1123 32.2056 73.8295 32.3736L74.3465 32.4907L74.0209 32.0737C71.1963 28.4408 67.949 27.3955 65.053 27.4012C62.7682 27.4012 60.7118 28.0381 59.2067 28.5436C58.4756 28.7835 57.4588 29.0977 57.0247 29.092C56.9859 29.0976 56.9464 29.0976 56.9076 29.092C56.9076 28.5636 57.296 27.664 58.0215 26.7243C58.9136 25.5788 60.0121 24.6102 61.2602 23.8683L61.7714 23.5627L61.1774 23.5199C60.9175 23.5028 60.6519 23.4913 60.3834 23.4913C54.5714 23.4913 47.0686 27.7211 41.5337 30.5771C38.1093 32.345 30.8636 36.5462 28.6844 35.2496V35.2638Z" fill="#1D1D1B"/>
</g>
</g>
<rect x="1" y="1" width="110" height="110" rx="9" stroke="black" stroke-opacity="0.1" stroke-width="2"/>
<defs>
<clipPath id="clip0_752_566">
<rect x="2" y="2" width="108" height="108" rx="8" fill="white"/>
</clipPath>
<clipPath id="clip1_752_566">
<rect width="62.5897" height="80" fill="white" transform="translate(25 16)"/>
</clipPath>
</defs>
</svg>
