<svg width="112" height="112" viewBox="0 0 112 112" fill="none" xmlns="http://www.w3.org/2000/svg">
<g clip-path="url(#clip0_752_567)">
<rect x="2" y="2" width="108" height="108" rx="8" fill="white"/>
<path d="M63.6988 16.6475C64.3822 16.2105 65.2165 15.8344 66.0376 16.0754C66.7659 16.3509 67.0176 17.2037 66.999 17.9189C67.0017 26.8237 66.999 35.7258 66.999 44.6306C75.4218 44.6306 83.8445 44.6253 92.2672 44.6306C92.94 44.628 93.7478 44.8531 94.0127 45.5417C94.2908 46.3575 93.8697 47.1892 93.4989 47.9017C91.2925 51.9621 88.9882 55.9669 86.6494 59.9505C85.9555 60.8748 85.0391 61.7383 83.8842 62.0164C82.9228 62.2468 81.9295 62.2389 80.9495 62.2548C78.1552 62.2654 75.3609 62.2574 72.5665 62.2601C71.3508 62.2548 69.9841 62.3131 69.0226 63.1606C68.2254 63.9234 68.3234 65.1551 68.6359 66.1192C69.3166 68.1798 70.6118 69.9571 71.5706 71.8853C70.5827 71.2232 69.6265 70.5133 68.7127 69.7505C65.8734 67.2396 63.275 64.4505 61.0793 61.3569C54.4921 52.2296 51.0859 41.0602 50.4661 29.8829C50.3575 27.4329 51.3614 24.7498 53.5544 23.4625C56.9368 21.1926 60.3191 18.9227 63.6988 16.6475Z" fill="#929395"/>
<path d="M18.0995 34.4995C18.4491 33.7685 19.3285 33.5407 20.0727 33.5539C25.1873 33.5539 30.3019 33.5539 35.4138 33.5539C36.3011 33.5725 37.2334 33.6069 38.0306 34.0413C38.8438 34.4809 39.4556 35.1881 40.0754 35.853C41.9427 37.9772 43.8047 40.1041 45.6694 42.2256C45.7753 42.3369 45.966 42.5858 46.1144 42.3713C47.142 41.2589 48.1141 40.0935 49.1338 38.9731C49.9867 44.4055 52.0871 49.5942 54.9264 54.2823C58.5445 60.2074 63.3015 65.4093 68.7101 69.7478C69.6239 70.5107 70.5774 71.2205 71.568 71.8827C72.1851 72.5554 72.7731 73.2573 73.3664 73.9513C73.8114 74.4678 74.116 75.2147 73.8352 75.8821C73.5306 76.5443 72.7493 76.8145 72.0659 76.8039C66.901 76.8092 61.7361 76.8039 56.5713 76.8065C55.7052 76.8065 54.794 76.7827 54.0047 76.3854C53.1757 75.9563 52.5373 75.2544 51.9123 74.5764C50.0767 72.4839 48.2386 70.3941 46.4084 68.299C46.2706 68.1322 46.1011 67.9944 45.9236 67.8779C43.9769 70.0577 42.0698 72.2747 40.1284 74.4625C39.4927 75.1697 38.8385 75.9007 37.9936 76.3615C37.2043 76.7747 36.2958 76.8092 35.427 76.8092C30.2568 76.8065 25.0866 76.8092 19.9165 76.8092C19.1748 76.8304 18.2902 76.5125 18.0571 75.7391C17.832 74.9498 18.3114 74.2161 18.8173 73.6599C24.1808 67.4938 29.5496 61.3331 34.9423 55.1908C29.5417 48.9744 24.0881 42.803 18.6981 36.576C18.1948 36.0304 17.8108 35.2411 18.0995 34.4995Z" fill="#BDBFBE"/>
<path d="M19.9479 94.9266H18V83.9548H22.4126C23.6847 83.9548 24.599 84.2728 25.235 84.9089C25.8313 85.5449 25.9108 86.817 25.9108 87.7313C25.9108 88.7252 25.7916 89.7587 25.1555 90.3948C24.5195 91.0706 23.6449 91.5079 22.6511 91.5079H19.9479V94.9266ZM19.9479 89.9178H22.2536C22.8499 89.9178 23.3269 89.56 23.6449 89.2817C23.9629 88.9637 24.1219 88.2084 24.1219 87.7313C24.1219 87.2941 23.9629 86.4195 23.6847 86.1015C23.4064 85.7835 22.8499 85.4257 22.0945 85.4257H19.9479V89.9575V89.9178Z" fill="#BDBFBE"/>
<path d="M35.6105 94.9266H33.6626L31.993 90.9911H29.4091V94.9266H27.5804V83.9548H32.0328C33.2651 83.9548 34.1794 84.2728 34.736 84.9486C35.3322 85.5847 35.6105 86.4593 35.6105 87.4928C35.6105 89.0432 35.0142 90.0768 33.7819 90.6731L35.6503 94.9664L35.6105 94.9266ZM29.4091 89.3612H31.7147C32.3905 89.3612 32.8676 89.1227 33.1856 88.8047C33.5036 88.4866 33.6626 88.0096 33.6626 87.4531C33.6626 86.9363 33.5434 86.3797 33.2253 86.0617C32.9073 85.7437 32.4303 85.4654 31.834 85.4654H29.4091V89.401V89.3612Z" fill="#BDBFBE"/>
<path d="M39.4268 94.9266H37.5982V83.9151H39.4268V94.9266Z" fill="#BDBFBE"/>
<path d="M73.7733 94.9266H71.9049V85.4654H68.8439V83.9151H76.8342V85.4654H73.7733V94.9266Z" fill="#BDBFBE"/>
<path d="M83.9897 94.9266L83.4332 92.5414H79.2989L78.7424 94.9266H76.7547L79.4977 83.9548H83.2344L86.0171 94.9266H83.9897ZM83.0754 90.9513L81.7636 85.3064H80.9288L79.6169 90.9513H83.0754Z" fill="#BDBFBE"/>
<path d="M63.5568 94.9266H61.6089L59.9393 90.9911H57.3553V94.9266H55.5267V83.9548H59.979C61.2114 83.9548 62.1257 84.2728 62.6822 84.9486C63.2785 85.5847 63.5568 86.4593 63.5568 87.4928C63.5568 89.0432 62.9605 90.0768 61.7282 90.6731L63.5966 94.9664L63.5568 94.9266ZM57.3553 89.3612H59.661C60.3368 89.3612 60.8139 89.1227 61.1319 88.8047C61.4499 88.4866 61.6089 88.0096 61.6089 87.4531C61.6089 86.9363 61.4897 86.3797 61.1716 86.0617C60.8536 85.7437 60.3766 85.4654 59.7803 85.4654H57.3553V89.401V89.3612Z" fill="#BDBFBE"/>
<path d="M67.3731 94.9266H65.5445V83.9151H67.3731V94.9266Z" fill="#BDBFBE"/>
<path d="M93.8089 85.7437C92.7355 85.545 91.861 85.4654 91.1852 85.4257C90.5094 85.4257 90.0323 85.4654 89.6746 85.5052C88.8795 85.6245 88.641 86.1412 88.482 86.7375C88.3627 87.2543 88.5615 87.6519 89.0385 87.9301C89.436 88.1289 89.9528 88.2481 90.5094 88.3674C91.7417 88.6457 93.8486 89.1227 94.0474 90.9116C94.1269 91.4681 94.1269 91.9849 94.0076 92.5017C93.8884 93.0185 93.6498 93.5353 93.2523 93.9328C92.7355 94.4496 92.02 94.8074 91.0659 94.8471C90.1913 94.8869 89.3963 94.8869 88.641 94.8471C88.0049 94.8074 87.2496 94.6484 86.7328 94.6086V93.0582C87.2894 93.1377 88.0844 93.2968 88.7602 93.3365C89.436 93.3763 90.1913 93.416 90.9864 93.3365C91.4237 93.2968 92.0597 92.939 92.2187 92.2234C92.338 91.5476 92.0995 90.8718 91.6224 90.5538C91.1454 90.2358 90.5491 90.196 89.9926 90.0768C89.3168 89.9178 88.6807 89.7985 88.0844 89.4805C87.5279 89.1625 87.1304 88.7252 86.8918 88.1686C86.6931 87.6519 86.6533 87.0953 86.6931 86.499C86.7328 85.9425 86.9316 85.3462 87.3291 84.8691C87.7664 84.3921 88.7205 84.0741 89.2373 83.9946C89.6746 83.9151 90.4696 83.9151 91.2249 83.9151C91.9007 83.9151 92.7753 83.9946 93.8089 84.1933V85.7437Z" fill="#BDBFBE"/>
<path d="M43.084 89.6793C43.0442 90.1165 42.6865 90.4346 42.2492 90.4346C41.8119 90.3948 41.4939 90.037 41.4939 89.5997C41.6131 87.8904 42.3287 86.5785 43.3225 85.6245C44.5151 84.4716 46.145 83.9151 47.4966 83.9151C48.9674 83.9151 50.5575 84.5511 51.7104 85.6245C52.7439 86.6183 53.4992 87.9699 53.539 89.5997C53.539 90.037 53.221 90.3948 52.7837 90.3948C52.3464 90.3948 51.9886 90.0768 51.9886 89.6395C51.9489 88.4469 51.4321 87.4928 50.6768 86.7773C49.8022 85.9425 48.6096 85.4654 47.5363 85.4654C46.5425 85.4654 45.3499 85.9027 44.4356 86.7375C43.72 87.4133 43.1635 88.4072 43.084 89.6793Z" fill="#BDBFBE"/>
<path d="M41.8916 92.2235C41.7326 91.8259 41.9313 91.3489 42.3289 91.1899C42.7264 91.0309 43.2034 91.2297 43.3624 91.6272C43.7202 92.5017 44.3165 93.1378 44.9923 93.6148C45.7874 94.1714 46.7017 94.4099 47.4967 94.4099C48.3315 94.4099 49.2459 94.1316 50.0012 93.6148C50.7167 93.1378 51.313 92.462 51.6708 91.6272C51.8298 91.2297 52.3068 91.0309 52.7044 91.1899C53.1019 91.3489 53.3007 91.8259 53.1416 92.2235C52.6646 93.3763 51.8696 94.2509 50.9155 94.9267C49.8819 95.6025 48.6893 96 47.5365 96C46.4632 96 45.2308 95.6422 44.1575 94.9267C43.2432 94.2906 42.4084 93.4161 41.9711 92.2235H41.8916Z" fill="url(#paint0_radial_752_567)"/>
</g>
<rect x="1" y="1" width="110" height="110" rx="9" stroke="black" stroke-opacity="0.1" stroke-width="2"/>
<defs>
<radialGradient id="paint0_radial_752_567" cx="0" cy="0" r="1" gradientUnits="userSpaceOnUse" gradientTransform="translate(47.5198 94.4647) scale(57.9359 57.9359)">
<stop stop-color="#FCE68F"/>
<stop offset="0.25098" stop-color="#DBAF41"/>
<stop offset="0.811765" stop-color="#693E25"/>
<stop offset="1" stop-color="#542920"/>
</radialGradient>
<clipPath id="clip0_752_567">
<rect x="2" y="2" width="108" height="108" rx="8" fill="white"/>
</clipPath>
</defs>
</svg>
