<svg width="112" height="112" viewBox="0 0 112 112" fill="none" xmlns="http://www.w3.org/2000/svg">
<g clip-path="url(#clip0_755_401)">
<rect x="2" y="2" width="108" height="108" rx="8" fill="white"/>
<path d="M81.7688 47.789C80.9238 47.789 80.2348 48.4714 80.2348 49.3164C80.2348 50.1549 80.9108 50.8439 81.7623 50.8439C82.6138 50.8439 83.2897 50.1549 83.2897 49.3164C83.2897 48.4649 82.6138 47.789 81.7688 47.789Z" fill="black"/>
<path d="M83.0947 52.9303H80.4428V65.852H83.0947V52.9303Z" fill="black"/>
<path d="M90.8295 63.8695C88.7691 63.8695 87.4041 62.2251 87.4041 59.3847C87.4041 56.6092 88.7496 54.9063 90.8035 54.9063C92.5325 54.9063 93.566 56.0047 93.839 57.3762L96.3739 57.3697C96.1399 54.8283 94.112 52.6898 90.784 52.6898C87.1116 52.6898 84.7002 55.2833 84.7002 59.3847C84.7002 63.5576 87.1051 66.0925 90.8035 66.0925C93.9105 66.0925 96.1139 64.227 96.3934 61.4711H93.839C93.5335 62.9726 92.4675 63.8695 90.8295 63.8695Z" fill="black"/>
<path d="M73.5985 64.084C71.98 64.084 71.057 63.4211 70.81 62.0691H68.1776C68.4246 64.526 70.3616 66.112 73.592 66.112C76.6404 66.112 78.8373 64.4935 78.8373 62.1341C78.8373 60.2621 77.8364 59.2287 75.1909 58.6177L73.0915 58.1367C71.6875 57.8182 71.1025 57.2592 71.1025 56.4532C71.1025 55.4133 72.058 54.7178 73.4945 54.7178C74.9764 54.7178 75.9059 55.5043 76.0489 56.7522H78.5384C78.4474 54.3668 76.4974 52.6963 73.488 52.6963C70.5176 52.6963 68.5091 54.2823 68.5156 56.5962C68.5156 58.4747 69.7311 59.6577 72.188 60.2231L74.2875 60.7171C75.7044 61.0356 76.1789 61.5231 76.1789 62.3616C76.1789 63.4211 75.1909 64.084 73.5985 64.084Z" fill="black"/>
<path d="M53.15 65.852V48.1269H49.9521L44.2322 62.2511H44.1347L38.4019 48.1269H35.2234V65.852H37.7259V52.8068H37.8104L43.1597 65.852H45.2007L50.5501 52.8068H50.6346V65.852H53.15Z" fill="black"/>
<path d="M55.5029 52.9303V61.2956C55.5029 64.2595 57.2319 66.086 60.0398 66.086C62.0158 66.086 63.3287 65.215 64.0437 63.6681H64.1087V65.852H66.6502L66.6437 52.9303H63.9852V60.4636C63.9852 62.4786 62.8347 63.8046 60.9173 63.8046C59.0843 63.8046 58.1549 62.7451 58.1549 60.7821V52.9303H55.5029Z" fill="black"/>
<path d="M24.5507 51.3574C24.5377 51.2404 24.5312 51.1169 24.5312 50.9934C24.5312 50.0704 24.9342 49.0759 25.6492 48.2635C26.0067 47.854 26.4617 47.516 27.0141 47.243C27.5601 46.97 28.0801 46.827 28.5741 46.801C28.5806 46.9245 28.5871 47.0545 28.5871 47.1845C28.5871 48.1465 28.2361 49.0499 27.5341 49.8819C26.6826 50.8699 25.6622 51.4484 24.5507 51.3574ZM21.3723 51.4159C20.5208 51.4289 19.7278 51.6499 18.9933 52.0919C18.2654 52.5209 17.6804 53.1123 17.2384 53.8663C16.6794 54.7958 16.3999 55.9138 16.3999 57.2072C16.3999 58.3317 16.6079 59.5017 17.0304 60.6911C17.4204 61.8091 17.9144 62.7841 18.5123 63.6291C19.0713 64.4156 19.5328 64.9745 19.9098 65.2995C20.4948 65.8455 21.0733 66.1055 21.6648 66.0795C22.0483 66.073 22.5487 65.9365 23.1792 65.683C23.8032 65.4295 24.3882 65.306 24.9342 65.306C25.4542 65.306 26.0197 65.4295 26.6371 65.683C27.2546 65.943 27.7811 66.0665 28.2231 66.0665C28.8341 66.0535 29.4061 65.8 29.9391 65.3125C30.2901 65.007 30.732 64.4741 31.278 63.6941C31.6745 63.1221 32.019 62.5046 32.3115 61.8286C32.4285 61.5426 32.5455 61.2436 32.6495 60.9381C32.149 60.7301 31.707 60.4377 31.3105 60.0607C30.4331 59.2482 29.9846 58.2212 29.9716 56.9927C29.9521 55.4133 30.667 54.1848 32.123 53.3008C31.317 52.1439 30.0886 51.5069 28.4701 51.3769C27.8721 51.3249 27.1441 51.4549 26.2732 51.7669C25.3567 52.1049 24.8237 52.2739 24.6612 52.2739C24.4532 52.2739 23.9657 52.1244 23.2052 51.8449C22.4513 51.5589 21.8403 51.4159 21.3723 51.4159Z" fill="black"/>
</g>
<rect x="1" y="1" width="110" height="110" rx="9" stroke="black" stroke-opacity="0.1" stroke-width="2"/>
<defs>
<clipPath id="clip0_755_401">
<rect x="2" y="2" width="108" height="108" rx="8" fill="white"/>
</clipPath>
</defs>
</svg>
