<svg width="112" height="112" viewBox="0 0 112 112" fill="none" xmlns="http://www.w3.org/2000/svg">
<g clip-path="url(#clip0_755_399)">
<rect x="2" y="2" width="108" height="108" rx="8" fill="white"/>
<path fill-rule="evenodd" clip-rule="evenodd" d="M16 58.9518C16 60.4313 16.0571 61.3952 16.4104 62.8082C16.6298 63.6861 16.9451 64.4974 17.3078 65.3087C17.5656 65.8815 17.8903 66.4064 18.2048 66.9412C18.6727 67.7334 19.2931 68.3824 19.8752 69.0697C20.0661 69.299 20.3239 69.4801 20.5246 69.6902C20.6674 69.8427 20.8109 69.948 20.9729 70.0814C21.059 70.158 21.0969 70.196 21.1928 70.2723L21.9274 70.8164C22.758 71.4275 23.245 71.6281 24.0845 72.0573C24.4475 72.2388 24.8771 72.4105 25.278 72.5443C26.6144 73.0118 28.0462 73.2696 29.4971 73.3079H30.2893C31.5873 73.2696 32.8759 73.0599 34.0788 72.6492L35.4339 72.1336C36.5794 71.6375 37.954 70.7973 38.8608 69.948C39.1855 69.6424 39.5196 69.3655 39.8248 69.0412C39.9777 68.8788 40.1111 68.6879 40.2832 68.5353C40.3975 68.745 41.3903 69.6616 41.591 69.8142C42.5643 70.6063 43.7003 71.3891 44.8743 71.8664L46.1629 72.3534C46.4016 72.4297 46.6116 72.4868 46.8597 72.5631L47.9288 72.8017C48.0814 72.8209 48.2152 72.8495 48.3392 72.8592C51.3557 73.3079 54.4481 72.63 57.0539 71.0836C57.2162 70.9882 57.3309 70.9025 57.4932 70.807C57.789 70.6353 58.0562 70.4154 58.3331 70.2151C58.4763 70.1099 58.6003 70.0148 58.7243 69.8905C58.801 69.8239 58.8389 69.8048 58.9152 69.7379L59.4977 69.2035L59.5454 69.1558L59.5642 69.1366L59.7363 68.9649C59.8697 68.8119 60.0513 68.6687 60.1753 68.5064C60.4808 68.096 60.7386 67.8288 61.1298 67.3038C61.235 67.1607 61.3207 67.0269 61.4161 66.8743C61.6071 66.588 61.798 66.2918 61.9509 65.9769C62.0366 65.7958 62.1129 65.6812 62.1989 65.5094C62.4947 64.9269 63.1249 63.4951 63.1722 62.9036C63.3538 63.1133 63.6022 63.6767 63.7359 63.9247C63.9265 64.2685 64.0794 64.6312 64.2895 64.9653L66.4943 69.1174C66.5612 69.2606 66.6183 69.3275 66.6852 69.4609C66.943 69.9765 67.3056 70.7307 67.6303 71.1603C67.9452 71.58 68.2887 71.8856 68.7468 72.1625C70.0358 72.9355 71.7633 72.8017 72.9279 71.8856C73.0422 71.7995 73.1282 71.7232 73.2237 71.6278C73.4146 71.4369 73.6055 71.2366 73.7487 70.9979C74.0828 70.4538 74.4646 69.6139 74.7415 69.1558C74.8178 69.022 74.8655 68.9265 74.9324 68.7928L75.9155 66.9412C75.9918 66.7883 76.0583 66.6932 76.1256 66.5594C76.5551 65.6906 77.0512 64.8315 77.4999 63.9724L78.1109 62.8368C78.6453 61.8537 79.1417 60.8514 79.6953 59.868L80.879 57.6248C80.9553 57.4914 81.003 57.4054 81.0793 57.2622C81.1556 57.1096 81.2131 57.033 81.2894 56.8804L81.6904 56.1265C81.7667 56.0025 81.8144 55.8879 81.8813 55.7541L84.0575 51.6688C84.7351 50.4374 84.678 49.0056 83.9715 47.8124C83.8952 47.679 83.8381 47.6215 83.752 47.4975L83.4465 47.154C83.3988 47.1063 83.4277 47.1349 83.38 47.0965L82.9504 46.7433C82.6257 46.4953 82.2725 46.3521 81.8813 46.2281C81.3465 46.0466 80.6498 46.0274 80.0579 46.142C79.2086 46.3137 78.6261 46.7053 78.0534 47.2589C77.8792 47.4419 77.7256 47.6436 77.5953 47.8601L77.0609 48.8816C77.0034 48.9962 76.9369 49.101 76.8794 49.225C76.7648 49.4543 76.6502 49.6929 76.5262 49.9315L72.2785 58.2167C72.2214 58.3313 72.1545 58.446 72.0974 58.5606L71.7536 59.2381C71.7156 59.305 71.7058 59.3336 71.6679 59.4005C71.6393 59.4576 71.6487 59.4384 71.6296 59.4862C71.601 59.5339 71.6108 59.5339 71.5818 59.5914C71.2477 60.1833 70.9328 60.756 70.7705 61.4241L70.6848 61.7105C70.6826 61.7278 70.676 61.7442 70.6656 61.7582C70.6371 61.8247 70.6559 61.7868 70.6371 61.8153C70.551 61.4335 70.4462 61.0134 70.2647 60.6605C70.2075 60.5459 70.15 60.4313 70.0831 60.3073L63.9077 48.2803C63.8694 48.2134 63.86 48.1942 63.8216 48.1179C63.306 47.0871 62.1606 46.2089 60.9009 46.0751C60.7672 46.0657 60.5094 46.0274 60.4045 46.0372C59.0013 46.1518 57.8273 46.7816 57.1689 48.0131C56.6819 48.9199 56.6052 49.903 56.8822 50.8955C57.0637 51.5542 57.6743 52.5087 58.0084 53.1675C58.0753 53.3009 58.1324 53.3968 58.2091 53.5302L59.5932 56.1359H52.7014C51.6706 56.1359 50.7353 56.2122 50.0288 56.9187C49.7138 57.2336 49.4846 57.4817 49.2843 57.892C48.4444 59.5628 49.1889 61.7101 50.9453 62.3787C51.6421 62.6455 52.3004 62.5884 53.2264 62.5884H55.7559C55.6413 62.7988 55.4695 63.0277 55.317 63.2088C54.6868 63.9341 54.4767 64.1633 53.6176 64.7172C53.5511 64.765 53.5319 64.7744 53.465 64.8127C53.3982 64.8413 53.3598 64.8698 53.2835 64.9081C51.6608 65.7387 49.3414 65.8721 47.7187 65.0509C47.2227 64.8029 46.7548 64.5263 46.3445 64.1539C45.9337 63.7913 45.5808 63.3809 45.2561 62.9322C45.1509 62.7793 45.0652 62.6267 44.9698 62.4643C44.0822 60.9179 43.8815 58.8755 44.4542 57.1765C44.5496 56.8995 44.6357 56.6515 44.7503 56.4129L45.3516 55.3915C45.638 54.9713 46.0006 54.6087 46.3824 54.2746C46.8694 53.8357 47.4422 53.511 48.0528 53.263C49.3794 52.7282 49.6661 53.0909 50.9164 51.8312C51.0979 51.6497 51.2313 51.411 51.3651 51.1916C51.9186 50.2848 51.9855 48.853 51.5274 47.8985C51.3365 47.4975 51.0979 47.1349 50.7924 46.8199L50.6778 46.7147C50.42 46.4855 50.1625 46.266 49.8473 46.1134C48.2915 45.3307 46.3922 45.9511 44.9127 46.5813L43.6237 47.2303C42.7838 47.7361 42.1445 48.1751 41.3903 48.8338C41.0754 49.101 40.6553 49.4734 40.417 49.7884L40.1494 50.0841C39.6436 50.6854 39.1761 51.2964 38.7654 51.9744C38.5707 52.2945 38.3892 52.6225 38.2212 52.9574C37.2953 54.7996 36.7323 56.7943 36.7323 59.1998C36.7323 59.8777 36.7801 60.5267 36.8657 61.1566C36.8755 61.2235 36.9232 61.4621 36.9232 61.5384C36.9135 61.7105 36.6463 62.0348 36.5414 62.1878L35.1859 63.7913L34.6132 64.2779C34.5369 64.3354 34.47 64.3926 34.384 64.4594C34.2885 64.5263 34.222 64.5647 34.1266 64.6406C33.1814 65.3283 31.5681 65.939 30.337 65.939C29.965 65.939 29.5542 65.9675 29.1724 65.9198C29.0198 65.901 28.9338 65.8912 28.7812 65.8721C28.3611 65.8052 27.8267 65.6526 27.4637 65.5C25.9364 64.8698 24.7053 63.7244 23.9894 62.2449C23.0064 60.1927 23.1777 57.8349 24.3329 55.8973C24.8677 54.9999 25.6501 54.2554 26.5475 53.7113L27.3968 53.2818L28.3419 52.9766C28.6666 52.8812 29.0386 52.8428 29.4017 52.7951C30.375 52.6519 31.1003 52.7282 31.912 52.1555C31.9691 52.1175 32.0266 52.0698 32.0931 52.0221C32.8665 51.3919 33.5061 50.428 33.5061 49.3205C33.5061 48.49 33.4009 47.8887 33.0097 47.2303C32.9522 47.1349 32.9142 47.0586 32.8379 46.9631C32.4272 46.419 32.0074 46.0563 31.3678 45.7508C29.9744 45.0729 27.655 45.5599 26.3472 45.8654L25.3735 46.1612C25.1443 46.2375 24.9725 46.3043 24.7625 46.3904C24.5524 46.4765 24.3615 46.5621 24.1518 46.6478C23.3882 46.9631 22.6625 47.4306 21.9849 47.8793C21.3074 48.328 20.696 48.8722 20.1236 49.4449C19.8275 49.7406 19.5701 49.9887 19.3119 50.3133C18.6727 51.1055 18.0616 51.9266 17.6035 52.8428C17.5464 52.9574 17.4983 53.0243 17.451 53.1292C17.3935 53.2532 17.3649 53.3201 17.3172 53.4249L16.8211 54.6181C16.3243 55.9356 16.009 57.4914 16.009 58.9518H16ZM91.2927 46.5144L91.3025 46.4475C91.1402 46.4092 90.9395 46.3235 90.7869 46.266C90.1281 46.018 90.3668 46.018 89.7272 46.2566C89.5652 46.3137 89.3363 46.3806 89.2026 46.4475V45.5407L87.7993 44.7579L87.7039 44.7486C87.3506 44.9109 86.2052 45.2829 85.976 45.4069C84.8497 46.0372 85.6039 47.8601 86.9497 47.316L88.6964 46.667C88.811 46.629 89.0402 46.5144 89.1642 46.5046C89.1642 46.9154 89.1165 48.0417 89.183 48.3566C89.3457 49.1296 90.2713 49.4828 90.9207 48.9676C91.0924 48.8338 91.2356 48.6144 91.2927 48.3663C91.3405 48.1465 91.3788 46.7147 91.2927 46.4953V46.5144Z" fill="#EE2E24"/>
<path fill-rule="evenodd" clip-rule="evenodd" d="M90.2428 41.7129V41.8369L90.7963 43.3931C90.9395 43.3837 91.8083 42.8681 91.9989 42.7534C92.0947 42.6963 92.0947 42.6294 92.1326 42.7249C92.1995 42.6197 92.1139 42.6772 92.2187 42.5817L93.2401 39.6704C93.3258 39.4224 93.3829 39.3457 93.3735 39.0308C93.3735 38.4679 92.9538 38.0763 92.4765 38H92.142C91.9323 38.0383 91.732 38.1338 91.5599 38.3055C91.3878 38.4773 91.369 38.5442 91.2736 38.7922L90.2428 41.7129Z" fill="#F26F21"/>
<path fill-rule="evenodd" clip-rule="evenodd" d="M88.2766 42.6009L88.3337 42.6866L89.336 43.2405C89.46 43.3168 89.5652 43.3547 89.6704 43.4314L90.2334 41.8373V41.7132L89.4122 39.3747C89.2405 38.8876 89.1071 38.1623 88.4292 38.0192C88.4006 38.0094 88.3623 38.0094 88.3337 38H88.0094C87.5321 38.0669 87.1312 38.4295 87.0928 39.0116C87.074 39.3172 87.3221 39.9282 87.4367 40.224C87.5893 40.6249 87.7035 41.0161 87.8471 41.398C87.9233 41.5889 87.9805 41.7798 88.0473 41.9707C88.0857 42.0853 88.1049 42.1616 88.1526 42.2762C88.2003 42.4002 88.2289 42.4577 88.2574 42.5911L88.2766 42.6009ZM92.2281 42.5817C92.1232 42.6772 92.2093 42.62 92.1424 42.7249L91.5791 44.3284L92.7054 44.7486H92.8008L95.13 43.4122C95.5404 43.183 96.1416 42.8775 95.9699 42.0661C95.8365 41.4554 95.216 41.1214 94.6336 41.2645C94.4235 41.3217 93.0394 42.1428 92.7245 42.3145C92.5528 42.41 92.4096 42.5054 92.2379 42.5817H92.2281Z" fill="#EE2E24"/>
<path fill-rule="evenodd" clip-rule="evenodd" d="M87.7133 44.7579L87.8087 44.7677C87.9233 44.6723 88.7633 44.4145 88.935 44.3284C88.8779 44.2044 88.8395 44.0518 88.7922 43.918L88.4961 43.0875C88.4577 42.9635 88.4006 42.7918 88.3435 42.6772L88.286 42.5911L86.8734 41.7798C86.7494 41.7132 86.0526 41.3025 85.9188 41.2645C85.7471 41.2168 85.413 41.2168 85.2413 41.2833C84.9166 41.3979 84.5919 41.7226 84.5442 42.0853C84.4108 43.059 85.1455 43.2593 85.8426 43.6794L87.2552 44.4814C87.3604 44.5385 87.6562 44.6911 87.723 44.7482L87.7133 44.7579ZM91.3025 46.4475L91.2927 46.5144C91.4359 46.5238 92.0372 46.7624 92.1995 46.8293C92.3427 46.8865 92.4765 46.9346 92.6291 46.9917L93.5073 47.3258C94.0034 47.5261 94.4904 47.431 94.8151 47.0202C95.2446 46.4761 95.0443 45.7031 94.5096 45.4167C94.3758 45.3498 94.2326 45.3021 94.08 45.245L92.782 44.7485H92.6866L91.2833 45.5407L91.2927 46.4475L91.3025 46.4475Z" fill="#F26F21"/>
</g>
<rect x="1" y="1" width="110" height="110" rx="9" stroke="black" stroke-opacity="0.1" stroke-width="2"/>
<defs>
<clipPath id="clip0_755_399">
<rect x="2" y="2" width="108" height="108" rx="8" fill="white"/>
</clipPath>
</defs>
</svg>
