<svg width="112" height="112" viewBox="0 0 112 112" fill="none" xmlns="http://www.w3.org/2000/svg">
<g clip-path="url(#clip0_755_389)">
<rect x="2" y="2" width="108" height="108" rx="8" fill="white"/>
<path d="M21.2445 59.1598C20.0119 59.1598 18.988 58.2825 18.758 57.1121L16 57.6449C16.4705 60.1105 18.6431 61.97 21.2445 61.97C22.7277 61.97 24.0648 61.3641 25.0368 60.3924L22.7799 58.6479C22.3515 58.9614 21.8191 59.1598 21.2445 59.1598ZM21.2445 54.0931C21.8191 54.0931 22.3515 54.2915 22.7799 54.6154L25.0368 52.8709C24.0648 51.8996 22.7277 51.2934 21.2445 51.2934C18.6431 51.2934 16.4705 53.1531 16 55.6184L18.758 56.1617C18.9776 54.9812 20.0014 54.0931 21.2445 54.0931ZM59.2906 59.536C57.8909 59.536 56.867 58.5121 56.7105 57.0077V56.2139C56.867 54.7304 57.8909 53.7068 59.2906 53.7068C60.8894 53.7068 62.0172 54.9082 62.0172 56.6106C62.0068 58.3347 60.8894 59.536 59.2906 59.536ZM60.116 51.2934C58.6952 51.2934 57.515 51.9097 56.7 52.9544V51.5234H53.8167V65.1246H56.7V60.288C57.5046 61.3536 58.6952 61.97 60.116 61.97C62.8428 61.97 64.8169 59.7552 64.8169 56.621C64.8169 53.4976 62.8428 51.2934 60.116 51.2934ZM71.5447 59.536C70.0089 59.536 68.7241 58.1989 68.7241 56.6106C68.7241 55.0334 70.0089 53.7068 71.5447 53.7068C73.0592 53.7068 74.3444 55.0334 74.3444 56.6106C74.3549 58.1989 73.0696 59.536 71.5447 59.536ZM71.5447 51.2934C68.5048 51.2934 65.9557 53.7172 65.9557 56.621C65.9557 59.5255 68.5048 61.97 71.5447 61.97C74.5637 61.97 77.0916 59.5255 77.0916 56.621C77.0916 53.7172 74.5637 51.2934 71.5447 51.2934ZM78.4603 61.7298H81.3432V47.94H78.4603V61.7298ZM92.2916 55.3988C90.9124 55.023 90.4948 54.8664 90.4948 54.3128C90.4948 53.9574 90.9858 53.6964 91.6962 53.6964C92.563 53.6964 93.6286 54.0305 94.5585 54.605L95.7181 52.5577C94.5898 51.8053 93.1481 51.2934 91.6962 51.2934C89.2935 51.2934 87.6951 52.6726 87.7055 54.605C87.7264 56.621 89.3457 57.196 91.4348 57.7079C92.4799 57.9793 93.2316 58.1781 93.2316 58.8149C93.2316 59.2642 92.6779 59.5882 91.9049 59.5882C90.5471 59.5882 89.3979 59.0971 88.4889 58.4391L87.2562 60.4237C88.4785 61.4058 90.213 61.9595 91.8528 61.9595C94.3602 61.9595 96 60.6747 96 58.6687C96 56.4436 94.0466 55.8481 92.2916 55.3988ZM83.2344 61.7298H86.1176V51.5234H83.2344V61.7298ZM84.6865 47.0105C83.7985 47.0105 83.109 47.7416 83.109 48.5462C83.109 49.4131 83.7985 50.1238 84.6865 50.1238C85.5326 50.1238 86.2219 49.4131 86.2219 48.5462C86.2328 47.7416 85.543 47.0105 84.6865 47.0105ZM49.847 47.9507H46.9637L45.8877 50.1443H48.771L49.847 47.9507ZM45.1357 55.4932C45.5119 54.4693 46.4205 53.8321 47.507 53.8321C48.6774 53.8321 49.4186 54.4798 49.7008 55.4932H45.1357ZM47.3922 51.2833C44.4149 51.2833 42.1376 53.5185 42.1376 56.5901C42.1376 59.7239 44.5089 61.9595 47.5487 61.9595C49.0532 61.9595 50.8082 61.3328 51.7172 60.382L49.8784 58.5017C49.3247 59.0345 48.343 59.4103 47.5279 59.4103C46.3266 59.4103 45.4384 58.6583 45.1044 57.5509H52.4589C52.4589 53.7173 50.5886 51.2833 47.3922 51.2833ZM37.0813 51.2934C35.7548 51.2934 34.616 51.8784 33.9997 52.8083V51.5234H31.1165V61.7298H33.9997V55.6811C33.9997 54.5737 34.9501 53.7173 36.1515 53.7173C37.301 53.7173 38.0843 54.5841 38.0843 55.8481V61.7298H40.8628V55.2318C40.8736 52.9231 39.296 51.2934 37.0813 51.2934ZM27.6482 47C26.7601 47 26.0707 47.7311 26.0707 48.5354C26.0707 49.4026 26.7601 50.1133 27.6482 50.1133C28.4942 50.1133 29.184 49.4026 29.184 48.5354C29.184 47.7311 28.4942 47 27.6482 47ZM26.1855 61.7298H29.0688V51.5234H26.1855V61.7298Z" fill="#212E5C"/>
</g>
<rect x="1" y="1" width="110" height="110" rx="9" stroke="black" stroke-opacity="0.1" stroke-width="2"/>
<defs>
<clipPath id="clip0_755_389">
<rect x="2" y="2" width="108" height="108" rx="8" fill="white"/>
</clipPath>
</defs>
</svg>
