<svg width="112" height="112" viewBox="0 0 112 112" fill="none" xmlns="http://www.w3.org/2000/svg">
<g clip-path="url(#clip0_755_391)">
<rect x="2" y="2" width="108" height="108" rx="8" fill="white"/>
<path d="M76.2175 50.1646C76.2519 50.629 76.1659 51.0763 75.9422 51.4892C75.581 52.1428 75.2197 52.8137 74.8413 53.4674C74.4972 54.0523 74.2908 54.706 74.2048 55.3769C74.1532 55.5661 74.1876 55.7725 74.2564 55.9617C74.7553 55.2392 75.2369 54.534 75.7702 53.8631C76.3723 53.0718 77.0776 52.3493 77.8345 51.6956C78.2473 51.3343 78.729 51.0591 79.245 50.9043C79.9159 50.6806 80.6556 50.9559 80.9825 51.5752C81.3265 52.1428 81.4297 52.7793 81.4469 53.4158C81.5329 55.7725 79.8643 58.3701 77.6796 59.299C77.0432 59.5742 76.3379 59.6602 75.667 59.557C75.4434 59.5226 75.3745 59.5742 75.3057 59.7634C74.3596 62.0513 73.7059 64.4769 73.3791 66.9368C73.2931 67.5561 72.9834 67.7109 72.4674 67.3496C71.6761 66.7992 71.1944 65.9046 71.1772 64.9413C71.1256 63.6339 71.4696 62.3782 71.8653 61.1396C72.1921 60.1419 72.5706 59.1786 73.0178 58.2324C73.1039 58.112 73.1211 57.9572 73.0523 57.8368C72.433 56.667 72.4674 55.4629 72.8458 54.2587C73.3619 52.6589 74.308 51.2311 75.581 50.113C75.6498 50.0614 75.7186 50.0098 75.8046 49.9582C76.0454 49.8549 76.2003 49.8893 76.2175 50.1646ZM22.4261 40.1013C26.4342 40.2045 30.1327 41.4602 33.642 43.2837C35.9987 44.4878 38.1318 46.0876 39.938 48.0315C40.8841 49.0464 41.6582 50.199 42.2431 51.472C43.1892 53.605 42.9312 55.6177 41.6238 57.5271C40.5573 59.0753 39.0263 59.9527 37.306 60.5203C34.5709 61.4321 31.8013 61.4837 28.9974 60.83C28.7393 60.7612 28.6877 60.83 28.6705 61.0708C28.6189 61.8449 28.4125 62.0685 27.7932 62.1374C27.0363 62.2062 26.5891 61.9309 26.417 61.2428C26.331 60.8816 26.2622 60.5031 26.245 60.1247C26.245 59.9183 26.1074 59.729 25.9182 59.6602C24.0947 58.8173 22.4605 57.6476 21.0844 56.1854C20.8091 55.8929 20.5511 55.5489 20.3447 55.2048C19.7942 54.2759 19.9662 53.433 20.8091 52.7621C21.3596 52.3321 21.9789 51.988 22.6326 51.7644C23.6991 51.3343 24.8 51.0419 25.9354 50.8699C26.2106 50.8355 26.3138 50.7323 26.3138 50.457C26.3138 49.1841 26.4514 47.9283 26.7095 46.6897C26.7439 46.5349 26.7955 46.3629 26.8471 46.2081C26.9675 45.8812 27.1739 45.8296 27.4664 46.036C27.7416 46.2597 27.948 46.5521 28.0513 46.8962C28.4641 47.9283 28.5157 49.012 28.5673 50.0958C28.5845 50.5602 28.5845 50.5602 29.0318 50.543C30.8724 50.4914 32.7131 50.7839 34.4505 51.4031C35.1386 51.6268 35.7406 52.0568 36.1879 52.6245C36.7728 53.3986 36.7728 54.2415 36.1707 54.964C35.431 55.8413 34.6397 55.8585 33.7796 55.5489C33.6936 55.5145 33.5904 55.4629 33.5904 55.3425C33.5732 55.222 33.6764 55.1704 33.7624 55.1188C34.0204 54.9984 34.2613 54.8436 34.4849 54.6544C34.8461 54.3103 34.8117 53.9835 34.3473 53.7771C33.728 53.519 33.0743 53.3298 32.4034 53.2094C31.2509 52.9685 30.0811 52.8137 28.9114 52.7621C28.6705 52.7621 28.5845 52.7965 28.6017 53.0546C28.6533 54.9124 28.6877 56.7702 28.7221 58.6109C28.7221 58.7485 28.7049 58.8689 28.9286 58.9033C31.6981 59.3506 34.4161 59.3162 37.0308 58.2152C38.0801 57.768 39.0091 57.1487 39.6111 56.151C40.4368 54.7576 40.4024 53.3298 39.766 51.8848C38.8714 49.8893 37.4093 48.3411 35.689 47.051C32.283 44.4878 28.4297 42.9396 24.2496 42.2171C22.3229 41.8559 20.3619 41.7871 18.418 42.0107C17.9019 42.0623 17.3859 42.1999 16.9214 42.4064C17.1278 42.4924 17.3343 42.5268 17.5579 42.544C17.7299 42.544 17.9019 42.5956 18.0568 42.6988C18.1944 42.7676 18.2632 42.9052 18.2632 43.0601C18.2288 43.1977 18.1256 43.2837 17.988 43.3009C17.4203 43.4385 16.8182 43.3869 16.3021 43.1461C15.9753 42.9912 15.9581 42.6988 16.0441 42.4064C16.2849 41.5463 16.9558 40.8926 17.8159 40.6689C19.2953 40.2733 20.8607 40.0669 22.4261 40.1013ZM71.074 50.2162C71.6245 50.199 72.1405 50.457 72.433 50.9043C72.5706 51.0935 72.7082 51.2999 72.8114 51.5236C73.035 51.9536 72.9146 52.1772 72.4674 52.2633C71.6761 52.4009 70.8676 52.4869 70.0591 52.5385C69.6462 52.5729 69.2162 52.5901 68.8033 52.6073C68.6485 52.6073 68.5625 52.6589 68.5281 52.8137C68.4593 53.0546 68.3904 53.2782 68.3044 53.5018C68.2356 53.7082 68.27 53.7599 68.4937 53.7426C69.199 53.691 69.9214 53.691 70.6267 53.7426C71.0052 53.7771 71.1256 53.8803 71.1256 54.2587C71.1084 55.2564 71.1084 55.2909 70.1967 55.3425C69.4226 55.3769 68.6485 55.4285 67.8744 55.4457C67.6852 55.4113 67.5131 55.5489 67.4787 55.7381C67.4787 55.7553 67.4787 55.7553 67.4787 55.7725C67.3927 56.1682 67.2551 56.5638 67.1347 56.9595C67.0487 57.2347 67.1347 57.2863 67.3927 57.2175C68.4421 56.9939 69.5086 56.8046 70.5751 56.6842C70.8848 56.6326 71.2116 56.753 71.4008 56.9939C71.7621 57.4067 71.7621 57.8196 71.3664 58.1808C70.5751 58.8861 69.629 59.4366 68.6313 59.7806C68.27 59.9011 67.9088 60.0043 67.5475 60.0731C66.1198 60.4171 64.7608 59.0065 64.95 57.5443C65.0188 56.9767 65.1392 56.409 65.3457 55.8585C65.4489 55.6349 65.4661 55.3941 65.3629 55.1532C65.2941 54.9984 65.2596 54.8436 65.2596 54.6716C65.208 54.1555 65.3285 53.9835 65.8617 53.9147C66.0509 53.9147 66.2058 53.7771 66.2746 53.605C66.4294 53.2438 66.6186 52.8825 66.7906 52.5213C66.7906 52.4869 66.8078 52.4697 66.8078 52.4353C66.2058 52.3837 65.7069 52.16 65.3801 51.6096C65.1048 51.1451 65.1564 50.9559 65.6897 50.8355C66.7906 50.5774 67.9088 50.4054 69.0441 50.3022C69.6462 50.2506 70.3515 50.2334 71.074 50.2162ZM90.0996 47.9799C90.3749 49.4593 90.5641 50.9731 90.6501 52.4697C90.6673 52.7449 90.7361 52.8137 91.0114 52.8137C92.4735 52.7965 93.9185 52.8137 95.3807 52.7965C95.6216 52.7793 95.8452 52.8653 96 53.0546V54.3963C95.8624 54.5856 95.6216 54.6716 95.3979 54.6544C93.9529 54.6544 92.508 54.6544 91.063 54.6372C90.8049 54.6372 90.7533 54.706 90.7533 54.9468C90.7705 56.3574 90.7189 57.768 90.5813 59.1786C90.5297 59.6946 90.4437 59.7806 89.9276 59.7806C89.704 59.7806 89.4632 59.7806 89.2223 59.7806C88.8439 59.7806 88.7063 59.6258 88.7407 59.2474C88.8955 57.8196 88.9471 56.3918 88.9471 54.964C88.9471 54.6888 88.8611 54.6372 88.6203 54.6372C87.2097 54.6544 85.7991 54.6372 84.3885 54.6372C83.8724 54.6372 83.7692 54.534 83.7692 54.0179C83.7692 53.7943 83.7692 53.5706 83.7692 53.347C83.7692 52.9341 83.8896 52.8137 84.3025 52.8137C85.6959 52.8137 87.1065 52.8137 88.4998 52.8137C88.8095 52.8137 88.8955 52.7449 88.8611 52.4353C88.7579 51.0075 88.5686 49.5797 88.2934 48.1691C88.2074 47.6875 88.2934 47.5498 88.7751 47.5498C89.0331 47.5498 89.2911 47.567 89.532 47.5498C89.79 47.4982 90.0308 47.6703 90.0824 47.9283C90.0996 47.9455 90.0996 47.9627 90.0996 47.9799ZM44.9094 50.5602C45.2879 50.7495 45.4427 51.0763 45.5287 51.4548C45.7523 52.3837 45.7867 53.347 45.8555 54.2931C45.9072 54.9984 45.9244 55.6865 45.9588 56.3918C45.976 57.1831 46.0448 57.9572 45.9932 58.7657C45.9588 59.3678 45.7351 59.6774 45.3223 59.729C44.5998 59.8322 44.1181 59.5742 43.9289 59.0065C43.8085 58.5937 43.7569 58.1808 43.7569 57.7508C43.6709 55.7209 43.6881 53.691 44.0665 51.6784C44.1181 51.3515 44.2213 51.0247 44.359 50.7323C44.445 50.543 44.6514 50.4398 44.8578 50.5258C44.8578 50.5258 44.8922 50.543 44.9094 50.5602ZM52.4268 50.113C53.4589 50.113 54.4739 50.199 55.4372 50.5946C55.6608 50.6979 56.0049 50.7323 56.0049 51.0763C55.9877 51.4031 55.7984 51.6956 55.4888 51.8332C55.0587 52.0568 54.5599 52.0568 54.0954 52.1084C52.8396 52.1944 51.5839 52.1772 50.3281 52.3149C49.726 52.3665 49.1412 52.4697 48.5735 52.6417C48.4531 52.6761 48.2983 52.7105 48.2983 52.8309C48.2983 53.003 48.4703 53.0202 48.5907 53.0374C49.4336 53.2094 50.2765 53.261 51.1366 53.3642C52.0655 53.4674 52.9945 53.6222 53.9234 53.8287C56.1253 54.3619 56.2113 57.2003 55.0759 58.3012C54.4567 58.8861 53.6826 59.2818 52.8568 59.4022C51.171 59.7462 49.4164 59.3506 48.0402 58.3184C47.6274 58.0432 47.3177 57.6476 47.1285 57.2003C46.8705 56.495 47.1457 55.7897 47.851 55.3941C48.3671 55.1188 48.9347 54.9812 49.5196 55.0156C50.6894 55.0156 51.8419 55.2564 52.9085 55.7209C53.0805 55.8069 53.2869 55.8757 53.2697 56.0994C53.2697 56.323 53.0977 56.4262 52.9257 56.5122C52.1344 56.9079 51.3086 57.0627 50.4657 56.7014C49.9841 56.4606 49.4852 56.2714 48.9692 56.151C48.7111 56.0994 48.4531 56.1166 48.2122 56.2198C48.0058 56.2886 47.851 56.4778 47.8338 56.6842C47.8338 56.8735 47.9542 57.0627 48.1434 57.1315C48.5047 57.3379 48.9003 57.4583 49.3132 57.4927C50.741 57.5788 52.1344 57.4239 53.4245 56.7702C53.5277 56.7186 53.6309 56.6498 53.7342 56.581C53.975 56.4262 54.2502 56.2714 54.233 55.9273C54.1986 55.5833 53.9062 55.4629 53.6481 55.3425C52.8396 54.9812 51.9795 54.878 51.1194 54.792C50.0185 54.6544 48.9175 54.6372 47.8338 54.4651C46.7157 54.2759 46.32 53.605 46.664 52.5213C46.8533 51.9536 47.2489 51.4892 47.765 51.1967C48.6251 50.6462 49.6056 50.4398 50.5862 50.2678C51.1882 50.1646 51.8075 50.113 52.4268 50.113ZM61.7676 48.9776C62.0772 49.1669 62.3525 49.4077 62.6105 49.6829C63.4878 50.6634 63.9695 51.816 64.2103 53.1062C64.5027 54.6544 64.5028 56.1854 64.0039 57.7164C63.9179 57.9572 63.7975 58.1808 63.6254 58.3701C63.0234 59.0925 62.146 59.1442 61.4924 58.4561C60.8387 57.768 60.3742 56.9423 59.927 56.1166C59.6001 55.5317 59.2905 54.9296 58.9636 54.3275C58.912 54.2415 58.8776 54.1039 58.7572 54.1383C58.6368 54.1555 58.6712 54.2931 58.654 54.3963C58.568 55.1188 58.5336 55.8585 58.5164 56.5982C58.5336 57.3207 58.4648 58.0432 58.3272 58.7485C58.2239 59.2302 57.9659 59.4538 57.5531 59.4882C57.1402 59.5054 56.7617 59.2474 56.6413 58.8517C56.4005 58.2324 56.4521 57.5788 56.4349 56.9423C56.4521 55.3769 56.6757 53.8287 57.123 52.3149C57.209 51.9708 57.3638 51.644 57.5531 51.3515C57.9315 50.7839 58.3616 50.7495 58.8432 51.2311C59.6517 52.0568 60.2538 53.0202 60.8731 53.9835C61.2687 54.62 61.6644 55.2392 62.06 55.8757C62.1288 55.9789 62.1977 56.1338 62.3525 56.0994C62.5073 56.065 62.4729 55.8757 62.4729 55.7553C62.4385 54.7576 62.1977 53.7771 61.974 52.8137C61.7504 51.8676 61.4924 50.9559 61.2515 50.0098C61.1655 49.7861 61.1483 49.5281 61.1827 49.2873C61.2343 48.8572 61.4408 48.754 61.7676 48.9776ZM25.987 52.8997C25.2645 52.9513 24.5248 53.003 23.8023 53.1406C22.9078 53.2954 22.0133 53.433 21.1704 53.8287C20.5855 54.1039 20.5339 54.3963 20.9467 54.8952C21.0327 54.9984 21.1188 55.0844 21.222 55.1876C22.0649 56.065 23.0626 56.7014 24.1119 57.3035C24.7656 57.6648 25.4537 57.9744 26.159 58.198C26.1762 58.1808 26.1762 58.1636 26.1762 58.1464C26.1762 56.4434 26.1762 54.7576 26.1762 53.0546C26.2106 52.8825 26.1246 52.8825 25.987 52.8997ZM79.4171 53.0546L77.9205 54.878C77.37 55.6349 76.8711 56.409 76.4411 57.2347C76.9228 57.1831 77.3872 57.0627 77.8173 56.8563C79.2623 56.1682 80.1568 55.0672 80.3116 53.433C80.346 53.175 80.3976 52.8137 80.088 52.6933C79.7783 52.5729 79.6063 52.8825 79.4171 53.0546ZM46.9909 41.8559C47.6618 41.8387 48.2983 42.1139 48.7283 42.63C48.8143 42.7332 48.9347 42.7848 49.0724 42.802C50.2937 43.0773 50.8786 44.1094 50.4657 45.3135C50.3625 45.6576 50.1733 45.9672 49.9497 46.2425C48.8315 47.5154 47.507 48.4616 45.8383 48.84C45.1847 48.9948 44.5138 48.9604 43.8601 48.754C43.6881 48.7024 43.6021 48.7196 43.5332 48.8916L43.516 48.926C43.3784 49.1841 43.2408 49.4765 42.8968 49.4421C42.5527 49.4077 42.4323 49.098 42.3119 48.8228C42.2431 48.7024 42.2259 48.5648 42.2259 48.4444C42.2775 47.9627 42.0711 47.6014 41.8302 47.223C41.6238 46.879 41.5378 46.5005 41.5378 46.1049C41.5378 45.5716 41.6926 45.0555 42.0023 44.6255C43.1892 42.8708 44.8406 41.8903 46.9909 41.8559ZM48.3155 43.989C47.9714 44.0578 47.6618 44.1782 47.3693 44.3674C46.6468 44.8319 45.9932 45.3824 45.4083 46.0016C45.1159 46.3285 44.8578 46.6553 44.5998 47.0166C44.4966 47.1542 44.5138 47.2058 44.6858 47.2058H45.2879C46.4748 47.223 47.6274 46.8273 48.5391 46.0704C48.8831 45.8296 49.1584 45.4856 49.296 45.0727C49.5196 44.3846 49.0208 43.8342 48.3155 43.989ZM45.3051 43.817C44.3762 43.7825 42.9828 44.8663 42.7935 45.7264C42.7247 45.9672 42.7764 46.2425 42.9484 46.4317C43.5849 45.4512 44.3934 44.5739 45.3051 43.817Z" fill="#01147B"/>
<path d="M57.931 24C57.0193 24 56.1248 24.0516 55.213 24.172C53.2004 24.4473 51.2221 24.7225 49.2611 25.2386C47.2656 25.7718 45.3218 26.4943 43.4639 27.3888C39.5934 29.2295 36.1358 31.8098 33.2458 34.975C32.0933 36.2652 31.0267 37.6242 30.0462 39.052C29.8226 39.3616 29.9258 39.6196 30.2698 39.7573C30.4934 39.8261 30.7171 39.9121 30.9235 39.9809C31.3192 40.1185 31.4568 40.0669 31.6976 39.7057C32.2653 38.9143 32.8157 38.0714 33.4694 37.3489C34.1919 36.5748 34.8972 35.7835 35.6025 35.0094C36.4282 34.2353 37.2883 33.4956 38.1656 32.7903C50.2932 23.1571 67.5814 23.5699 79.2445 33.7709C82.3065 36.4544 84.818 39.7057 86.6415 43.3525C86.8479 43.7654 87.0715 44.1954 87.2608 44.6255C87.7424 45.692 87.5532 45.6748 88.5337 45.6748C88.6369 45.6748 88.7746 45.6748 88.9122 45.6748C89.2562 45.6748 89.5143 45.52 89.3938 45.1416C88.7229 43.2149 87.6392 41.3571 86.5383 39.6368C85.4029 37.8822 84.13 36.248 82.7022 34.7342L82.6162 34.6482C80.3627 32.2571 77.7823 30.21 74.9268 28.5758C73.7914 27.9049 72.6045 27.3028 71.3831 26.8212C70.4198 26.3739 69.4221 25.9955 68.4071 25.6858C66.2913 24.9977 64.0894 24.5161 61.8703 24.2752C60.5629 24.1204 59.2556 24.0344 57.931 24.0344V24Z" fill="url(#paint0_radial_755_391)"/>
<path d="M78.3159 73.2156C80.2425 73.2156 81.8767 73.9381 82.8917 75.4347H82.9433V73.5768H85.4204V86.7881H82.9433V84.7411H82.8917C81.9628 86.3237 80.2941 87.1322 78.4019 87.1322C74.5314 87.1322 71.3834 84.225 71.3834 80.4061C71.4006 76.1744 74.4282 73.2156 78.3159 73.2156ZM38.8712 73.2156C42.5181 73.2156 45.9585 76.0711 45.9069 80.2685C45.8553 83.8638 42.7933 87.2354 38.4239 87.115C34.7255 86.9946 31.5947 83.8294 31.6291 80.1309C31.6979 76.1572 34.8459 73.2156 38.8712 73.2156ZM58.8602 73.2156C61.0621 73.2156 62.8511 74.7466 62.9199 77.0861H60.4428C60.3224 76.14 59.7719 75.4863 58.757 75.4863C57.8108 75.4863 57.2088 76.14 57.2088 76.8969C57.2088 78.015 58.3613 78.359 59.6687 78.7547C61.5265 79.3224 63.2467 80.4405 63.2467 82.9004C63.2467 85.4464 61.3889 87.115 58.8086 87.115C56.4175 87.115 54.1296 85.498 54.1296 82.436H56.6067C56.7271 84.0358 57.5356 84.8443 58.843 84.8443C59.9955 84.8443 60.7524 84.1046 60.7524 83.0381C60.7524 82.1263 60.0643 81.5415 58.5161 81.0426C55.2649 80.0105 54.7144 78.6171 54.7144 77.1033C54.7144 74.7638 56.6927 73.2156 58.8602 73.2156ZM17.6265 69.1386C19.0026 69.1386 20.1036 70.2568 20.1036 71.6158V74.9702H20.1552C20.9465 73.8004 22.2023 73.1984 23.8537 73.1984C27.0017 73.1984 29.3584 75.1938 29.3584 78.8235V86.7709H26.8813V79.5976C26.8813 76.7592 25.7803 75.4691 23.5956 75.4691C21.411 75.4691 20.1208 77.0517 20.1208 79.6148V86.7709H17.6265V69.1386ZM51.2052 69.1386V73.5768H53.3727V75.8475H51.2052V86.7881C49.829 86.7881 48.7281 85.67 48.7281 84.311V75.8475H47.6959V73.5768H48.7281V69.1386H51.2052ZM68.4418 69.1386V73.5768H70.6093V75.8475H68.4418V86.7881C67.0656 86.7881 65.9647 85.67 65.9647 84.311V75.8475H64.9326V73.5768H65.9647V69.1386H68.4418ZM94.3483 73.2156V75.7615C92.1981 75.8303 91.0971 77.1377 91.0971 79.3568V84.2938C91.0971 85.67 89.9962 86.7709 88.62 86.7709V73.5596H90.9423V74.7466H90.9939C91.5788 73.8865 92.6109 73.3188 94.3483 73.2156ZM78.3847 75.4863C75.77 75.4863 73.6541 77.8602 73.8949 80.6469C74.1013 82.952 75.9764 84.8099 78.2815 84.8615C80.8962 84.9131 82.9777 82.7456 82.9777 80.2169C82.9949 77.6365 81.137 75.4863 78.3847 75.4863ZM38.7508 75.4863C36.1532 75.5207 34.089 77.6538 34.1234 80.2513C34.1234 80.6125 34.175 80.9738 34.261 81.3178C34.7771 83.3993 36.6865 84.9131 38.8368 84.8615C41.4171 84.7927 43.4642 82.6424 43.3954 80.0449C43.3438 77.5161 41.2795 75.5035 38.7508 75.4863Z" fill="#01147B"/>
</g>
<rect x="1" y="1" width="110" height="110" rx="9" stroke="black" stroke-opacity="0.1" stroke-width="2"/>
<defs>
<radialGradient id="paint0_radial_755_391" cx="0" cy="0" r="1" gradientUnits="userSpaceOnUse" gradientTransform="translate(88.6474 45.5774) scale(56.791 56.7911)">
<stop stop-color="#01147B"/>
<stop offset="0.03" stop-color="#011098"/>
<stop offset="0.06" stop-color="#010ABD"/>
<stop offset="0.1" stop-color="#0006DA"/>
<stop offset="0.14" stop-color="#0003EE"/>
<stop offset="0.18" stop-color="#0001FB"/>
<stop offset="0.22" stop-color="#0000FF"/>
<stop offset="1" stop-color="#00FFFF" stop-opacity="0"/>
</radialGradient>
<clipPath id="clip0_755_391">
<rect x="2" y="2" width="108" height="108" rx="8" fill="white"/>
</clipPath>
</defs>
</svg>
