<svg width="112" height="112" viewBox="0 0 112 112" fill="none" xmlns="http://www.w3.org/2000/svg">
<g clip-path="url(#clip0_755_396)">
<rect x="2" y="2" width="108" height="108" rx="8" fill="white"/>
<path d="M52.3094 63.4442L52.4093 63.4553C53.131 63.5552 53.8416 63.6774 54.3746 63.9216C54.8409 64.1104 55.2184 64.4657 55.4405 64.9209C55.8513 65.7426 55.8735 66.7085 55.5071 67.5413C55.2295 68.1408 54.63 68.6405 54.0748 68.9069C53.5085 69.1734 52.909 69.34 52.2872 69.3955C51.1214 69.5065 49.9556 69.2955 48.9008 68.7959C48.3012 68.5072 47.5573 67.9965 47.1909 67.3414C46.9133 66.8529 46.9355 66.2533 47.2575 65.787C47.7905 65.0653 48.923 64.8987 49.7779 64.932C50.6106 64.9875 51.4323 65.1319 52.2206 65.3762C52.3871 65.4428 53.02 65.687 53.131 65.7981C53.2199 65.8758 53.2532 65.9868 53.2199 66.0979C53.0755 66.5309 52.0207 66.764 51.721 66.8085C50.9104 66.9306 50.4885 66.6197 49.5559 66.2644C49.3116 66.1645 49.0451 66.0868 48.7897 66.0534C48.3678 66.009 47.8571 66.1312 47.7794 66.5864C47.735 66.8196 48.0125 67.0416 48.2235 67.1415C48.6565 67.3414 49.1339 67.4413 49.6114 67.4413C51.0548 67.4635 52.6758 67.2304 53.8527 66.3865C54.0193 66.2755 54.1747 66.0979 54.1747 65.8869C54.1747 65.4539 53.4308 65.1985 53.4308 65.1985C52.6425 64.8654 51.1658 64.71 50.4108 64.6434C49.6225 64.5767 48.3678 64.4768 48.068 64.4213C47.7572 64.388 47.4463 64.3103 47.1576 64.1992C46.8689 64.066 46.6468 63.8106 46.5469 63.5108C46.4137 62.9668 46.5802 62.3006 46.88 61.8676C47.6683 60.7351 49.5114 60.302 50.8882 60.1355C52.2206 59.9689 54.3857 59.9689 55.6959 60.6684C55.8957 60.7795 56.0067 60.8794 55.9623 61.0904C55.8735 61.4679 55.5848 61.7788 55.1962 61.8676C54.8076 61.9897 54.0082 62.0341 53.6529 62.0674C52.0763 62.1563 50.1665 62.1118 48.6565 62.5227C48.5344 62.556 48.3345 62.6115 48.2679 62.6892C48.0347 62.9446 48.7009 63.0223 48.8453 63.0445C48.8786 63.0556 48.9119 63.0556 48.9452 63.0667L52.3094 63.4442ZM42.894 56.3938C42.894 56.3938 43.1494 56.0051 43.3603 55.7165C43.8489 55.0836 44.3929 54.5062 44.9925 53.9844C45.159 53.8511 45.3478 53.6846 45.3478 53.6846C45.3478 53.6846 45.048 53.7179 44.8815 53.7512C44.4817 53.8289 43.8822 54.2286 43.5824 54.484C43.0939 54.9059 42.5498 55.5832 42.7941 56.1939C42.8385 56.2827 42.894 56.3938 42.894 56.3938ZM45.6254 57.1266C46.3915 57.071 47.1354 56.849 47.8016 56.4715C48.4678 56.1051 49.4337 55.3834 49.3338 54.5284C49.3116 54.2731 49.145 54.0399 48.9008 53.94C48.601 53.8178 48.4566 53.8289 48.068 53.94C47.8349 53.9955 47.6128 54.0954 47.413 54.2175C46.658 54.6617 45.581 55.6054 44.9925 56.3604C44.8593 56.5381 44.7149 56.7379 44.615 56.8712C44.5484 56.96 44.4929 57.0377 44.504 57.0488C44.5262 57.1488 45.3256 57.1377 45.6254 57.1266ZM43.6601 58.57C43.5602 58.7143 43.4825 58.8586 43.4047 59.003C43.3492 59.0918 43.2937 59.1584 43.216 59.225C43.0161 59.3694 42.8385 59.3805 42.6497 59.2139C42.3722 58.9586 42.2167 58.6033 42.2056 58.2369C42.2167 58.0814 42.2167 57.926 42.1945 57.7705C42.139 57.5485 41.9169 57.3153 41.7948 57.0932C41.6394 56.7824 41.5505 56.4493 41.5172 56.1051C41.4728 55.2168 41.9391 54.3952 42.5498 53.7401C43.1938 53.0628 43.9821 52.5299 44.8481 52.1635C45.6809 51.8193 46.8911 51.575 47.7905 51.897C48.1458 52.0191 48.4566 52.2301 48.7009 52.5077C48.7342 52.5632 48.7786 52.6076 48.8231 52.652C48.9008 52.6742 48.9785 52.6964 49.0562 52.7075C49.3782 52.7852 49.678 52.9185 49.9334 53.1183C50.2553 53.3626 50.4663 53.7179 50.544 54.1065C50.7217 54.9281 50.2442 55.8386 49.7002 56.3826C48.7786 57.3264 47.8571 57.9926 46.6802 58.4589C46.1583 58.6588 45.3478 58.8475 44.7593 58.8031C44.5817 58.792 44.3818 58.7365 44.2042 58.7254C44.0487 58.7032 43.8933 58.6588 43.7489 58.6033C43.7267 58.5922 43.6712 58.57 43.6601 58.57ZM44.7149 60.402C44.7593 60.4131 44.8148 60.4242 44.8593 60.4464C45.2701 60.6018 45.4477 60.9904 45.5476 61.4123C45.7808 62.3894 45.8807 64.5656 45.9251 65.4095C45.9585 66.0423 45.9696 66.6752 45.9918 67.3081C46.014 67.841 46.0584 68.5516 45.9474 69.0513C45.9029 69.2511 45.7808 69.4288 45.6143 69.5509C45.4144 69.6731 44.9703 69.6842 44.726 69.6397C44.1154 69.5176 43.9266 69.129 43.8378 68.5183C43.6268 67.086 43.7267 64.2658 43.8489 63.0778C43.8933 62.6892 44.0376 61.4235 44.2375 60.9016C44.3152 60.7129 44.4706 60.3465 44.7149 60.402ZM26.2283 62.7891C26.2283 62.7891 25.3289 62.8558 24.6961 62.9224C23.9078 63.0112 22.4088 63.2666 21.5539 63.5775C21.2985 63.6663 20.7767 63.8883 20.7323 64.1548C20.6879 64.4213 20.8544 64.6433 21.0432 64.8654C21.1542 64.9986 21.776 65.5871 21.9425 65.7315C22.6753 66.3421 24.152 67.2859 25.2401 67.73C25.6176 67.8855 26.2283 68.1075 26.2283 68.1075C26.2283 68.1075 26.1839 66.3421 26.195 64.61C26.2061 63.6996 26.2283 62.7891 26.2283 62.7891ZM42.8052 63.4997C42.8607 63.9772 42.7386 64.8654 42.7164 64.9875C42.6497 65.3206 42.5609 65.6426 42.4388 65.9646C42.2833 66.3088 42.1168 66.6419 41.9391 66.975C41.5505 67.619 41.0731 68.2074 40.5179 68.7182C38.9635 70.0617 36.5542 70.8278 34.4779 71.0831C32.979 71.2608 31.4578 71.2164 29.97 70.9499C29.4593 70.8611 28.6932 70.6834 28.6932 70.6834C28.6932 70.6834 28.6932 70.9832 28.671 71.2053C28.6488 71.3607 28.6044 71.5051 28.5488 71.6383C28.4489 71.8493 28.238 71.9936 28.0048 72.0269C27.6939 72.0824 27.3608 72.1046 27.0721 71.9825C26.5947 71.7826 26.4282 71.3385 26.3504 70.8278C26.2838 70.417 26.2172 69.7064 26.2172 69.7064C26.2172 69.7064 25.8619 69.5398 25.5732 69.3955C24.6961 68.9625 23.8522 68.4406 23.0528 67.8521C22.8419 67.6967 21.9536 66.9417 21.7538 66.764C21.1986 66.2422 20.699 65.7092 20.3215 65.0431C20.0217 64.5212 19.944 64.0549 20.166 63.4997C20.4769 62.7225 21.5872 62.1452 22.3422 61.8121C22.8974 61.5678 24.6406 61.0015 25.3623 60.8905C25.7065 60.8461 26.2283 60.7462 26.2616 60.724C26.2727 60.7129 26.2838 60.7017 26.2949 60.6906C26.306 60.6684 26.3393 59.9023 26.3393 59.6248C26.3282 59.3472 26.5392 57.5374 26.6058 57.1488C26.6391 56.9378 26.7946 56.1384 26.9611 55.9385C27.061 55.7942 27.2498 55.8053 27.4052 55.9052C28.2268 56.416 28.4822 58.2036 28.5488 59.114C28.5821 59.6692 28.6044 60.5019 28.6044 60.5019C28.6044 60.5019 29.5592 60.4797 30.1366 60.4908C30.7361 60.513 31.3246 60.5796 31.9131 60.6906C32.6681 60.8128 34.1337 61.1348 34.9775 61.5567C35.6659 61.912 36.321 62.5005 36.5319 63.1222C36.7318 63.6996 36.6985 64.0993 36.3987 64.61C36.0656 65.1985 35.4327 65.6315 34.7888 65.6648C34.6 65.6759 33.8783 65.576 33.6563 65.4095C33.5785 65.3428 33.5674 65.2207 33.634 65.1319C33.6562 65.0986 33.9893 64.9209 34.1892 64.821C34.278 64.7655 34.3668 64.71 34.4446 64.6434C34.6111 64.499 34.7555 64.3325 34.7444 64.1548C34.7221 63.9105 34.4668 63.7662 34.2225 63.6663C33.0678 63.2111 30.7806 62.8335 29.6702 62.7669C29.2372 62.7447 28.6155 62.7225 28.6155 62.7225L28.7487 68.8514C28.7487 68.8514 29.2594 68.9513 29.6591 69.018C29.8923 69.0513 30.8694 69.1401 31.1248 69.1512C33.1011 69.2067 35.3217 69.0291 37.1315 68.163C37.9309 67.7855 38.6637 67.3192 39.2189 66.6863C39.9739 65.8092 40.3403 64.6544 40.2293 63.5108C40.1182 62.2007 39.1967 60.6462 38.4639 59.7025C36.5208 57.2043 33.1899 55.1502 30.2698 53.9511C27.2831 52.7186 24.3297 52.0191 21.1542 51.897C20.3326 51.8637 18.5561 51.9081 17.6456 52.1524C17.5124 52.1857 17.3903 52.2301 17.2681 52.2634C17.1682 52.2856 17.0683 52.33 16.9794 52.3855C16.9572 52.4077 16.935 52.4299 16.935 52.4299C16.935 52.4299 16.9905 52.4633 17.0461 52.4855C17.146 52.5299 17.5457 52.5521 17.7567 52.5965C17.9343 52.6187 18.1008 52.7186 18.2119 52.863C18.2896 52.9629 18.2896 53.1072 18.2008 53.2072C17.9898 53.4514 17.2237 53.407 16.8906 53.3515C16.5575 53.296 16.1023 53.185 16.0246 52.8852C15.9357 52.5299 16.1023 52.1746 16.291 51.8415C16.6574 51.1864 17.2015 50.8422 17.9787 50.6312C19.1445 50.3204 20.3326 50.1316 21.5317 50.0761C23.8967 49.9873 26.1395 50.3981 28.4378 51.0976C29.9034 51.5528 31.3357 52.108 32.7236 52.763C33.8006 53.296 34.8443 53.8845 35.8547 54.5173C36.11 54.6839 37.5867 55.772 37.8088 55.9607C38.2862 56.3493 38.908 56.9156 39.3632 57.3597C40.2404 58.2258 41.3285 59.5581 41.8614 60.6129C41.9836 60.8683 42.0835 61.1126 42.25 61.4123C42.3833 61.701 42.4943 61.9897 42.5831 62.2895C42.6275 62.456 42.683 62.7114 42.6942 62.7225C42.7164 62.778 42.8274 63.2999 42.8052 63.4997ZM72.5836 62.134C71.4733 62.3894 68.5532 62.5338 68.5532 62.5338L68.1868 63.6885C68.1868 63.6885 69.6413 63.5663 70.7072 63.6774C70.7072 63.6774 71.0514 63.633 71.0958 64.066C71.1069 64.3436 71.0958 64.6211 71.0625 64.8987C71.0625 64.8987 71.0403 65.1541 70.6739 65.2207C70.2742 65.2873 67.5317 65.3873 67.5317 65.3873L67.0876 66.8862C67.0876 66.8862 66.9211 67.2304 67.2986 67.1304C67.6428 67.0416 70.5185 66.4976 70.8849 66.5753C71.2846 66.6752 71.7287 67.2082 71.6066 67.6967C71.4511 68.2963 68.5865 70.1283 66.8433 70.0061C66.8433 70.0061 65.9218 70.0617 65.1557 68.8292C64.4118 67.6523 65.411 65.4206 65.411 65.4206C65.411 65.4206 64.9558 64.3769 65.2889 64.0216C65.2889 64.0216 65.4888 63.8439 66.0661 63.7995L66.7656 62.3561C66.7656 62.3561 65.9662 62.4116 65.4888 61.8232C65.0446 61.268 65.0113 61.0126 65.3444 60.8572C65.7108 60.6795 69.0417 60.0689 71.3401 60.1466C71.3401 60.1466 72.1395 60.0689 72.8279 61.4568C72.8279 61.4457 73.161 62.0008 72.5836 62.134ZM63.9565 67.73C63.6568 68.4184 62.8906 69.1623 61.9247 68.7071C60.9587 68.2519 59.4598 65.143 59.4598 65.143C59.4598 65.143 58.8824 63.9883 58.7714 64.0105C58.7714 64.0105 58.6493 63.7884 58.5715 65.0542C58.4938 66.3199 58.5826 68.7737 58.083 69.1623C57.6056 69.5509 57.0282 69.3955 56.7284 68.9402C56.4509 68.4961 56.3398 67.4302 56.4953 65.576C56.6729 63.7107 57.1059 61.7232 57.6611 61.1015C58.2163 60.4797 58.6604 60.9349 58.8269 61.1015C58.8269 61.1015 59.5708 61.7676 60.7811 63.744L60.992 64.1104C60.992 64.1104 62.1023 65.9757 62.2134 65.9646C62.2134 65.9646 62.3022 66.0534 62.3799 65.9868C62.4909 65.9535 62.4465 65.3539 62.4465 65.3539C62.4465 65.3539 62.2134 63.3332 61.203 59.9023C61.1141 59.6359 61.0919 59.3472 61.1475 59.0696C61.2474 58.6699 61.6582 58.8586 61.6582 58.8586C61.6582 58.8586 63.2237 59.647 63.9898 62.2007C64.756 64.7544 64.2563 67.0305 63.9565 67.73ZM80.8221 66.1978C80.1115 67.4413 78.1018 70.0395 75.4149 69.4288C74.5267 71.5717 73.7827 73.7368 73.3608 76.99C73.3608 76.99 73.272 77.6229 72.7391 77.4008C72.2172 77.2232 71.3623 76.3571 71.1957 75.158C71.007 73.5924 71.7065 70.9388 73.1388 67.8966C72.7169 67.2193 72.4393 66.2533 72.6836 64.8765C72.6836 64.8765 73.0388 62.3228 75.6148 60.0134C75.6148 60.0134 75.9256 59.7469 76.1033 59.8246C76.3032 59.9134 76.2143 60.7351 76.0478 61.1459C75.8812 61.5567 74.7487 63.533 74.7487 63.533C74.7487 63.533 74.0381 64.8654 74.238 65.9202C75.5815 63.855 78.6459 59.6692 80.5445 60.9904C81.1774 61.4457 81.4772 62.4338 81.4772 63.5108C81.4772 64.4546 81.2551 65.4539 80.8221 66.1978ZM80.2781 62.9224C80.2781 62.9224 80.167 62.1007 79.3676 63.0112C78.6792 63.7773 77.4246 65.2096 76.4253 67.1638C77.4801 67.0416 78.5016 66.4754 78.8013 66.1867C79.301 65.7204 80.4668 64.5212 80.2781 62.9224ZM95.5781 62.7336H90.6705C90.5706 61.0681 90.3707 59.4138 90.0599 57.7705C90.0266 57.5929 89.8822 57.4708 89.7046 57.4708H88.572C88.3833 57.4708 88.239 57.6262 88.239 57.8038C88.239 57.826 88.239 57.8483 88.2501 57.8705C88.572 59.4804 88.783 61.1015 88.8718 62.7336H84.153C83.931 62.7336 83.7533 62.9113 83.7533 63.1333V64.1548C83.7533 64.3769 83.931 64.5545 84.153 64.5545H88.9384C88.9384 64.8099 88.9384 65.032 88.9384 65.2429C88.9496 66.5975 88.8718 67.9521 88.7275 69.2955C88.7053 69.4954 88.8496 69.6842 89.0606 69.7064C89.0717 69.7064 89.0828 69.7064 89.0939 69.7064H90.1487C90.3485 69.7064 90.5262 69.5509 90.5484 69.3511C90.6927 67.9854 90.7593 66.6197 90.7593 65.254C90.7593 65.0431 90.7593 64.821 90.7593 64.5656H95.6003C95.8223 64.5656 96 64.388 96 64.1659V63.1444C95.9778 62.9113 95.8001 62.7336 95.5781 62.7336Z" fill="#101C50"/>
<path d="M29.97 49.0657C29.9034 49.1656 29.8812 49.2989 29.9256 49.421C29.97 49.5431 30.0589 49.632 30.1699 49.6653L31.047 49.9651C31.1025 49.9762 31.147 49.9873 31.2025 49.9873C31.369 49.9873 31.5245 49.8984 31.6133 49.7652C37.5756 40.9938 47.4907 35.742 58.0941 35.742C70.9626 35.742 82.5764 43.4475 87.5839 55.2945C87.6616 55.4611 87.8281 55.5721 88.0058 55.5721H89.0606C89.2604 55.5721 89.427 55.4056 89.427 55.2057C89.427 55.1613 89.4159 55.1169 89.4048 55.0725C82.3765 37.785 62.6464 29.4687 45.3589 36.497C39.0968 39.0396 33.734 43.4253 29.97 49.0657Z" fill="url(#paint0_linear_755_396)"/>
</g>
<rect x="1" y="1" width="110" height="110" rx="9" stroke="black" stroke-opacity="0.1" stroke-width="2"/>
<defs>
<linearGradient id="paint0_linear_755_396" x1="90.4135" y1="48.0231" x2="31.1563" y2="40.0113" gradientUnits="userSpaceOnUse">
<stop stop-color="#101C50"/>
<stop offset="0.24" stop-color="#0D267A"/>
<stop offset="0.5" stop-color="#085AA4"/>
<stop offset="0.65" stop-color="#058BBF"/>
<stop offset="1" stop-color="#B1FFFF"/>
</linearGradient>
<clipPath id="clip0_755_396">
<rect x="2" y="2" width="108" height="108" rx="8" fill="white"/>
</clipPath>
</defs>
</svg>
