<svg width="112" height="112" viewBox="0 0 112 112" fill="none" xmlns="http://www.w3.org/2000/svg">
<g clip-path="url(#clip0_755_387)">
<rect x="2" y="2" width="108" height="108" rx="8" fill="white"/>
<path d="M87.1753 60.4838C84.7243 60.4838 82.7345 58.4939 82.7345 56.043C82.7345 53.5907 84.7243 51.6036 87.1753 51.6036C89.6275 51.6036 91.6134 53.5907 91.6134 56.043C91.6134 58.4939 89.6275 60.4838 87.1753 60.4838ZM87.1423 47.1496C82.2483 47.1496 78.2819 51.1173 78.2819 56.01C78.2819 60.9013 82.2483 64.8677 87.1423 64.8677C92.0336 64.8677 96 60.9013 96 56.01C96 51.1173 92.0336 47.1496 87.1423 47.1496Z" fill="black"/>
<path d="M87.142 52.5267C85.2182 52.5267 83.6578 54.0845 83.6578 56.0096C83.6578 57.932 85.2182 59.4924 87.142 59.4924C89.0657 59.4924 90.6248 57.932 90.6248 56.0096C90.6248 54.0845 89.0657 52.5267 87.142 52.5267Z" fill="#4279BB"/>
<path d="M69.0685 58.413H74.0537C72.9412 61.6183 69.9089 61.0845 69.9089 61.0845C67.4592 61.0396 66.3097 59.0366 66.3097 59.0366C64.2605 55.4731 66.3097 52.8491 66.3097 52.8491C67.2439 51.2015 69.6922 51.0231 69.6922 51.0231C72.6743 51.0231 73.6983 53.2495 73.6983 53.2495H78.3266C77.1679 49.7085 73.8383 47.1492 69.9089 47.1492C65.0176 47.1492 61.0524 51.1169 61.0524 56.0096C61.0524 60.9009 65.0176 64.8686 69.9089 64.8686C74.8042 64.8686 78.7693 60.9009 78.7693 56.0096C78.7693 55.6779 78.7495 55.3516 78.7138 55.0305H69.0685V58.413Z" fill="black"/>
<path d="M50.2128 59.2917C52.13 59.2917 53.6798 57.7379 53.6798 55.822C53.6798 53.9049 52.13 52.3511 50.2128 52.3511C48.297 52.3511 46.7432 53.9049 46.7432 55.822C46.7432 57.7379 48.297 59.2917 50.2128 59.2917ZM45.7985 55.822C45.7985 53.3816 47.7764 51.4077 50.2128 51.4077C52.6505 51.4077 54.6285 53.3816 54.6285 55.822C54.6285 58.2584 52.6505 60.235 50.2128 60.235C47.7764 60.235 45.7985 58.2584 45.7985 55.822ZM39.6533 55.822C40.1976 55.7507 41.108 55.1284 41.429 54.728C41.3167 55.2235 41.3088 56.6544 41.4396 57.1472C41.0736 56.5844 40.2069 55.8907 39.6533 55.822ZM36.4796 51.1487C37.1732 51.1487 37.7189 51.8331 37.7189 52.614C37.7189 53.3922 37.1732 54.0793 36.4796 54.0793H34.0947V51.1487H36.4796ZM36.4703 57.6586C37.1653 57.6586 37.711 58.343 37.711 59.1252C37.711 59.9047 37.1653 60.5891 36.4703 60.5891H34.0868V57.6586H36.4703ZM50.2101 64.7154C55.0684 64.7141 59.0216 60.6763 59.0203 55.8194C59.0203 50.8567 55.0684 47.0026 50.2101 46.9999C45.3558 46.9947 42.8771 50.566 42.2654 52.0089C42.2707 49.8459 40.1382 47.2906 37.6423 47.2867H29.6037V64.6269L37.0979 64.6296C40.121 64.6296 42.2707 62.0121 42.2733 59.7673C42.9657 61.1797 45.3558 64.7181 50.2101 64.7154ZM28.622 64.6335H23.9104V57.9057H20.8517V64.6335H16.0158L16 47.2893H20.8517V53.7423H23.9104V47.2893H28.622L28.622 64.6335Z" fill="black"/>
</g>
<rect x="1" y="1" width="110" height="110" rx="9" stroke="black" stroke-opacity="0.1" stroke-width="2"/>
<defs>
<clipPath id="clip0_755_387">
<rect x="2" y="2" width="108" height="108" rx="8" fill="white"/>
</clipPath>
</defs>
</svg>
