<svg width="112" height="112" viewBox="0 0 112 112" fill="none" xmlns="http://www.w3.org/2000/svg">
<g clip-path="url(#clip0_755_388)">
<rect x="2" y="2" width="108" height="108" rx="8" fill="white"/>
<path d="M41.8015 43.133C44.0072 42.8168 46.2997 43.062 48.3706 43.8952C51.4081 45.0849 53.9373 47.4921 55.2897 50.4586C56.4262 52.9182 56.7245 55.742 56.1824 58.3923C55.6525 60.9386 54.3273 63.3179 52.4214 65.0898C52.3346 65.1772 52.2256 65.2705 52.245 65.4081C52.2371 66.3561 52.2464 67.3041 52.2428 68.252C51.064 68.0656 49.8987 67.7996 48.7234 67.5945C48.438 67.5938 48.1856 67.7616 47.9174 67.8404C45.9584 68.5389 43.8265 68.7361 41.7707 68.4313C39.2832 68.0678 36.9154 66.9405 35.0618 65.2439C33.4025 63.7402 32.1483 61.7934 31.4728 59.6586C30.6245 56.9904 30.6762 54.0397 31.6442 51.4116C32.4115 49.2891 33.7603 47.3831 35.497 45.9439C37.2868 44.451 39.494 43.4657 41.8015 43.133ZM47.7898 45.6212C48.1082 45.8615 48.4588 46.0543 48.7801 46.2903C49.855 47.0604 50.8603 47.9316 51.7624 48.8997C52.6623 49.8584 53.4511 50.9154 54.1811 52.0075C53.5651 49.6741 52.0499 47.5344 49.9059 46.3777C49.2412 46.03 48.5399 45.7188 47.7898 45.6212ZM47.9834 47.1959C48.2423 47.4075 48.5341 47.5724 48.803 47.7689C49.9718 48.6157 51.0145 49.6347 51.8958 50.777C52.1919 51.1585 52.4465 51.5693 52.7412 51.9523C52.435 50.7999 51.8405 49.7207 51.0116 48.8624C50.1891 48.0385 49.14 47.3989 47.9834 47.1959ZM47.8629 48.7133C48.6976 49.2962 49.5237 49.9151 50.1712 50.7096C50.562 51.1362 50.8861 51.616 51.2289 52.0799C51.0654 51.527 50.8417 50.9864 50.5111 50.5117C49.8994 49.606 48.9421 48.9219 47.8629 48.7133ZM42.9531 49.3938C41.8266 49.5171 40.7309 49.9466 39.8246 50.6286C38.6643 51.4811 37.8125 52.7432 37.4482 54.1358C37.1047 55.4243 37.1714 56.8233 37.6511 58.0696C38.0993 59.2478 38.9017 60.2897 39.9314 61.0175C41.0206 61.8056 42.3666 62.2229 43.7089 62.2114C45.095 62.2071 46.4754 61.7324 47.5711 60.8834C48.8331 59.9311 49.7065 58.4877 49.9883 56.9338C50.2142 55.6638 50.0608 54.3236 49.5244 53.1483C48.9099 51.7766 47.7963 50.6343 46.4396 49.9875C45.3639 49.4647 44.1406 49.2668 42.9531 49.3938ZM33.0303 59.3862C33.3623 61.1896 34.4372 62.803 35.8355 63.9647C36.8846 64.8051 38.1086 65.4433 39.4122 65.776C38.797 65.34 38.1531 64.9406 37.5744 64.453C36.0886 63.267 34.7635 61.8787 33.6678 60.3241C33.4476 60.0165 33.2633 59.6845 33.0303 59.3862ZM34.6107 59.5833C34.7455 60.3829 35.1112 61.1279 35.5738 61.7876C36.4758 63.0547 37.8612 63.9374 39.3534 64.339C38.9913 64.045 38.5883 63.8055 38.2212 63.5172C36.8874 62.4925 35.7129 61.252 34.8015 59.8365C34.7412 59.749 34.6767 59.6651 34.6107 59.5833ZM36.1739 59.5604C36.2557 60.1183 36.526 60.6303 36.8523 61.082C37.4883 61.9533 38.4557 62.5463 39.4883 62.826C39.1943 62.5915 38.873 62.3928 38.5761 62.1605C37.9523 61.665 37.375 61.1093 36.8781 60.4854C36.625 60.1907 36.44 59.8444 36.1739 59.5604Z" fill="#090504"/>
<path d="M61.047 43.3675C63.7497 42.7078 66.6689 42.9365 69.2195 44.0587C71.5722 45.0806 73.6001 46.8317 74.9575 49.0072C76.3092 51.1513 76.9911 53.7077 76.89 56.2396C76.8162 58.6167 76.0503 60.9651 74.7152 62.9328C73.2473 65.1134 71.0911 66.8229 68.6301 67.7479C66.159 68.688 63.3919 68.8235 60.8377 68.1452C58.7746 67.6009 56.8522 66.5296 55.3119 65.0525C56.8134 63.1587 57.8568 60.902 58.2913 58.5228C58.6864 59.2779 59.174 59.9957 59.8194 60.56C60.8326 61.4743 62.142 62.0623 63.5037 62.1813C64.5714 62.2846 65.6657 62.1211 66.6495 61.6887C68.0213 61.11 69.1686 60.0279 69.8426 58.7021C70.8573 56.7416 70.7569 54.2534 69.5723 52.389C68.823 51.1828 67.6649 50.2306 66.3268 49.7501C65.034 49.2661 63.584 49.236 62.2632 49.6254C61.174 49.9602 60.1722 50.5805 59.4035 51.4238C58.9424 51.8913 58.6162 52.4643 58.2906 53.0286C58.0576 51.8375 57.7048 50.6658 57.1856 49.5673C56.6958 48.4687 56.0347 47.4591 55.3133 46.5011C56.9196 44.9931 58.9044 43.8902 61.047 43.3675Z" fill="#090504"/>
<path d="M22.1982 43.3782C24.0626 43.3625 25.9263 43.3782 27.7907 43.3703C28.0466 43.3682 28.3026 43.3718 28.5579 43.3904C28.5529 49.0352 28.5579 54.68 28.5558 60.3248C28.5421 62.0659 27.9082 63.794 26.7889 65.1278C25.382 66.8387 23.1971 67.8906 20.9777 67.8856C19.322 67.8806 17.6656 67.8971 16.0099 67.877C15.9955 65.7624 15.9984 63.6477 16.0084 61.5338C17.6434 61.523 19.2776 61.5352 20.9118 61.5288C21.5908 61.5438 22.2147 60.9415 22.1961 60.2567C22.1996 54.6305 22.1953 49.0044 22.1982 43.3782Z" fill="#090504"/>
<path d="M75.3053 43.3861C77.4156 43.3567 79.5281 43.3739 81.6392 43.3775C82.8396 45.4613 84.0357 47.5487 85.2303 49.6368C85.2955 49.7473 85.3651 49.8563 85.4368 49.9645C86.6967 47.8298 87.9064 45.665 89.1469 43.5181C89.2208 43.3273 89.4366 43.3782 89.6001 43.3689C91.5907 43.3847 93.5828 43.3517 95.5733 43.3854C94.8584 44.7019 94.0869 45.9884 93.3504 47.2934C91.7822 50.0413 90.191 52.7776 88.6385 55.5326C88.8465 56.0209 89.162 56.4584 89.413 56.9266C91.1347 59.9383 92.8642 62.945 94.5874 65.9553C95.0527 66.7863 95.5482 67.5995 96 68.4378C94.824 68.4593 93.6466 68.4406 92.4706 68.4471C91.542 68.4349 90.6112 68.47 89.6848 68.432C89.4388 68.181 89.3176 67.834 89.1283 67.5407C87.8964 65.4031 86.6874 63.2526 85.4382 61.1258C84.922 61.9511 84.4645 62.8123 83.9718 63.652C83.277 64.8696 82.5743 66.0836 81.8787 67.3012C81.6449 67.6726 81.4735 68.0864 81.2011 68.4313C79.9397 68.4693 78.6748 68.4356 77.4121 68.4471C76.5681 68.4399 75.7241 68.4621 74.8808 68.4349C75.4609 67.3449 76.1034 66.2901 76.7072 65.2131C78.2948 62.4502 79.8766 59.6845 81.4628 56.9209C81.7102 56.4526 82.0264 56.0174 82.2293 55.5283C80.271 52.0634 78.2718 48.6179 76.297 45.1609C75.97 44.5671 75.6 43.9963 75.3053 43.3861Z" fill="#090504"/>
<path d="M43.2357 54.1917C43.6917 54.0633 44.2152 54.1243 44.5967 54.4176C45.1015 54.7768 45.3424 55.4573 45.1775 56.0539C45.0154 56.705 44.3859 57.2063 43.7118 57.1905C43.1102 57.2156 42.5251 56.8312 42.287 56.2834C42.0884 55.8431 42.112 55.3067 42.3601 54.8908C42.553 54.561 42.8736 54.31 43.2357 54.1917Z" fill="#090504"/>
</g>
<rect x="1" y="1" width="110" height="110" rx="9" stroke="black" stroke-opacity="0.1" stroke-width="2"/>
<defs>
<clipPath id="clip0_755_388">
<rect x="2" y="2" width="108" height="108" rx="8" fill="white"/>
</clipPath>
</defs>
</svg>
