<svg width="112" height="112" viewBox="0 0 112 112" fill="none" xmlns="http://www.w3.org/2000/svg">
<g clip-path="url(#clip0_755_402)">
<rect x="2" y="2" width="108" height="108" rx="8" fill="white"/>
<path d="M65.9846 50.4732C65.9846 50.4732 63.5168 46.746 63.1507 46.1163C62.5136 45.2595 61.7374 44.0586 60.4047 44.0586H57.644V53.1533H60.4047V46.746C60.4047 46.746 62.8724 50.4733 63.2386 51.103C63.8756 51.9598 64.5859 53.1533 65.9846 53.1533H68.7232V44.0586H65.9846V50.4732Z" fill="#253F7D"/>
<path d="M51.588 45.4572C50.9876 46.8632 49.9258 49.8508 49.9258 49.8508L48.6223 46.065C48.6223 46.065 47.9414 44.0659 45.7812 44.0659H43.0205V53.1607H45.7812V46.8486C45.7812 46.8486 46.1107 46.9144 46.7477 48.7158C47.3848 50.5172 48.3294 53.1753 48.3294 53.1753H50.1894C50.1894 53.1753 51.5221 53.0948 52.3056 50.9712L53.3089 48.2399C53.3089 48.2399 53.8068 46.7534 54.2681 46.5703V53.1534H56.9995V44.0586H54.2681C54.2681 44.0586 52.1885 44.044 51.5953 45.4499" fill="#253F7D"/>
<path d="M78.8066 50.8247L78.7846 50.8028H74.5301C73.3292 50.8028 72.3553 49.8362 72.3553 48.6353C72.3553 47.4343 73.3292 46.4678 74.5301 46.4678H78.6162C78.953 46.087 79.3265 45.7867 79.5828 45.5305L81.0619 44.0659H73.9516C71.418 44.0659 69.3603 46.1089 69.3603 48.6353C69.3603 51.1616 71.418 53.2046 73.9516 53.2046H81.1498L78.7992 50.8247H78.8066Z" fill="#253F7D"/>
<path d="M50.0358 65.7191H46.726L43.0427 55.3428H46.4843L48.4761 61.8966H48.5347L50.5484 55.3428H53.5946L50.0358 65.7191Z" fill="#253F7D"/>
<path d="M58.0467 55.3575H54.7954V65.7191H58.0467V55.3575Z" fill="#253F7D"/>
<path d="M73.3585 55.3575H70.1072V65.7191H73.3585V55.3575Z" fill="#253F7D"/>
<path d="M63.9342 65.7191C62.0376 65.7191 60.3315 65.3383 59.1232 63.8591L61.0051 62.2115C61.6202 62.9804 62.7113 63.5003 63.8244 63.5003C64.5493 63.5003 65.3621 63.3099 65.3621 62.6362C65.3621 62.0577 64.8422 61.9113 64.0148 61.7721C63.9562 61.7355 63.2679 61.6403 63.2312 61.6403C62.9823 61.5817 61.796 61.2376 61.5983 61.1644C60.3534 60.725 59.6212 59.9561 59.6212 58.6747C59.6212 56.5657 61.3859 55.2184 63.883 55.2184C65.8967 55.2184 67.1855 55.6797 68.196 56.866L66.1823 58.4037C65.6038 57.752 64.7983 57.4444 63.9781 57.4444C63.158 57.4444 62.5942 57.6788 62.5942 58.2353C62.5942 58.6966 63.0555 58.8065 63.6706 58.9236C63.8244 59.0188 64.8422 59.136 64.996 59.1726C65.2084 59.2312 66.2042 59.5021 66.358 59.5753C67.7786 60.0733 68.5621 61.0325 68.5621 62.2774C68.5621 64.7305 66.0651 65.7264 63.9415 65.7264" fill="#253F7D"/>
<path d="M81.5305 59.2165C81.5305 58.2573 80.8421 57.6056 79.8975 57.6056C78.9529 57.6056 78.2865 58.1767 78.2865 59.2751V61.7502C78.2865 62.7241 78.9163 63.3246 79.9341 63.3246C80.8128 63.3246 81.5231 62.79 81.5231 61.7355V59.2239L81.5305 59.2165ZM79.9414 65.7191C77.525 65.7191 75.0865 64.606 75.0865 61.6696V59.5021C75.0865 56.5877 77.503 55.1818 79.8609 55.1818C82.2188 55.1818 84.7305 56.5072 84.7305 59.4216V61.5159C84.7305 64.4523 82.1968 65.7191 79.9341 65.7191" fill="#253F7D"/>
<path d="M92.8439 65.719V59.8316C92.8439 58.8138 92.4631 57.935 91.2915 57.935C90.3468 57.935 89.6585 58.6234 89.6585 60.022V65.719H86.4878V55.6284H89.5779V56.9099H89.6146C90.3834 55.892 91.4379 55.416 92.6828 55.416C94.4841 55.416 95.9999 56.4925 95.9999 58.7332V65.719H92.8365H92.8439Z" fill="#253F7D"/>
<path d="M30.5109 45.7637C30.0607 45.4307 29.7173 44.9985 29.305 44.6496C28.3626 43.7701 26.8947 43.7831 25.9857 44.692L25.9453 44.7335C25.829 44.8303 25.7162 44.9321 25.6014 45.0394L22.2073 48.4066L22.1888 48.4904C21.9273 49.7672 22.7643 50.7016 22.7643 50.7016L24.6545 52.6398L27.6768 55.6875L28.709 54.6533L30.9187 52.4641L32.5898 50.8349L32.6996 50.7425C32.7385 50.7091 32.7959 50.6642 32.8733 50.6133C33.3265 50.3023 33.7822 50.188 34.1581 50.1576C34.4536 50.1326 34.6987 50.1625 34.8509 50.193C34.9198 50.206 34.9692 50.2194 34.9961 50.2274L35.0111 50.2319L35.0206 50.2349L30.5109 45.7637Z" fill="#FFD200"/>
<path d="M38.4137 53.5955L35.0106 50.2318L34.9956 50.2273C34.9686 50.2193 34.9187 50.2054 34.8503 50.1929C34.6981 50.1624 34.4535 50.132 34.158 50.1575C33.7827 50.1879 33.3265 50.3022 32.8733 50.6132C32.7959 50.6641 32.7385 50.709 32.6996 50.7424L32.5897 50.8348L30.9186 52.464L28.709 54.6532L27.6772 55.6874L30.4944 58.4461L32.6257 60.5899L32.6292 60.5929L32.6312 60.5959C32.714 60.6842 32.9796 61.0007 33.1618 61.6011C33.3499 62.2255 33.2541 62.7856 33.2227 62.9373L33.2122 62.9807L33.2147 62.9782L33.6429 62.546L36.4581 59.7034L38.7266 57.4343C39.1075 57.053 39.3301 56.5733 39.398 56.0782C39.4169 55.9594 39.4304 55.8336 39.4319 55.6984C39.4469 54.7834 38.9892 54.1985 38.4137 53.5955Z" fill="#223C77"/>
<path d="M33.1624 61.6011C32.9797 61.0007 32.7147 60.6842 32.6313 60.5959L32.6264 60.5899L30.495 58.4461L27.6774 55.6869L24.9167 58.5015L22.7709 60.6378C22.7709 60.6378 21.9863 61.4349 20.6955 61.2747C20.6196 61.2647 20.5413 61.2537 20.4624 61.2363L24.8219 65.6302C25.3614 66.1697 26.1196 67.2464 27.4423 67.3527C28.1621 67.4605 28.9208 67.2389 29.4733 66.6873L32.1172 64.0424L33.1969 62.9982V62.9967L33.2133 62.9798L33.2238 62.9363C33.2548 62.7846 33.3511 62.2246 33.1629 61.6001" fill="#EE3524"/>
<path d="M32.6305 60.5954L32.6292 60.5923L32.6265 60.5905L32.631 60.5954H32.6305Z" fill="#EA4125"/>
<path d="M24.6549 52.6397L22.7641 50.7015C22.7641 50.7015 21.9276 49.7676 22.1886 48.4903L22.2071 48.4065L17.7328 52.8298C17.1708 53.3919 16.0243 54.19 16.0003 55.6205C15.9859 56.5404 16.4401 57.1334 17.0091 57.7403L20.3877 61.1614H20.3867L20.4611 61.2358V61.2373C20.541 61.2547 20.6193 61.2657 20.6947 61.2747C21.986 61.4354 22.7706 60.6383 22.7706 60.6383L24.9164 58.502L27.6771 55.6874L24.6549 52.6402V52.6397Z" fill="#3F9244"/>
<path d="M21.3857 55.6869C21.3857 52.2418 24.2029 49.4492 27.6769 49.4492C31.1508 49.4492 33.969 52.2418 33.969 55.6869C33.969 59.1319 31.1528 61.9235 27.6769 61.9235C24.2009 61.9235 21.3857 59.1319 21.3857 55.6869ZM21.826 55.6869C21.826 57.2906 22.4803 58.7381 23.5405 59.7867C24.6017 60.8364 26.0607 61.4858 27.6769 61.4858C29.2931 61.4858 30.7555 60.8359 31.8147 59.7867C32.8744 58.7381 33.5287 57.2906 33.5287 55.6869C33.5287 54.0831 32.8744 52.6356 31.8147 51.5845C30.7555 50.5348 29.2946 49.8859 27.6769 49.8859C26.0592 49.8859 24.6017 50.5348 23.5405 51.5845C22.4803 52.6361 21.826 54.0831 21.826 55.6869Z" fill="white"/>
<path d="M28.6176 55.5961C28.6176 56.1097 28.2019 56.5265 27.6873 56.5265C27.1726 56.5265 26.7554 56.1097 26.7554 55.5961C26.7554 55.0825 27.1731 54.6642 27.6873 54.6642C28.2014 54.6642 28.6176 55.081 28.6176 55.5961Z" fill="white"/>
<path d="M33.485 55.6869C33.485 58.8938 30.8845 61.4943 27.6776 61.4943C24.4706 61.4943 21.8701 58.8938 21.8701 55.6869C21.8701 52.4799 24.4706 49.8799 27.6776 49.8799C30.8845 49.8799 33.485 52.4799 33.485 55.6869Z" fill="url(#paint0_radial_755_402)"/>
</g>
<rect x="1" y="1" width="110" height="110" rx="9" stroke="black" stroke-opacity="0.1" stroke-width="2"/>
<defs>
<radialGradient id="paint0_radial_755_402" cx="0" cy="0" r="1" gradientUnits="userSpaceOnUse" gradientTransform="translate(27.6771 55.6869) scale(5.80745 5.80744)">
<stop stop-color="white"/>
<stop offset="1" stop-color="white" stop-opacity="0"/>
</radialGradient>
<clipPath id="clip0_755_402">
<rect x="2" y="2" width="108" height="108" rx="8" fill="white"/>
</clipPath>
</defs>
</svg>
