<svg width="112" height="112" viewBox="0 0 112 112" fill="none" xmlns="http://www.w3.org/2000/svg">
<g clip-path="url(#clip0_755_397)">
<rect x="2" y="2" width="108" height="108" rx="8" fill="white"/>
<path d="M62.4204 16.236L62.389 33.8376L62.3575 51.4391L60.9117 47.3531V47.3426L59.0363 86.527C60.8803 91.7236 61.8651 94.5001 61.8756 94.5106C61.8861 94.521 62.9338 94.5839 64.2015 94.6468C68.0361 94.8354 72.7927 95.244 76.4074 95.6945C77.2455 95.7992 77.958 95.8516 78.0104 95.8097C78.0627 95.7678 78.0732 77.8519 78.0627 55.9862L78.0313 16.236H62.4204Z" fill="#B1060F"/>
<path d="M34.1846 16.1836V55.9757C34.1846 77.8624 34.2055 95.7888 34.237 95.8202C34.2684 95.8516 35.6199 95.7154 37.2544 95.5373C38.8888 95.3592 41.1414 95.1287 42.2624 95.0344C43.9807 94.8877 49.1354 94.5629 49.7221 94.5525C49.9002 94.5525 49.9107 93.6619 49.9317 77.6948L49.9631 60.8371L51.2099 64.3574C51.3985 64.9022 51.4613 65.0699 51.6499 65.6042L53.5253 26.4303C53.1272 25.3092 53.3367 25.8959 52.8862 24.6177C51.3566 20.2907 50.0574 16.6341 50.005 16.4665L49.9002 16.1732H34.1846V16.1836Z" fill="#B1060F"/>
<path d="M34.1846 16.1836V38.5208L49.9212 80.2617C49.9212 79.3083 49.9212 78.7844 49.9317 77.6948L49.9631 60.8371L51.2099 64.3574C58.1248 83.9706 61.8442 94.4896 61.8651 94.5106C61.8756 94.521 62.9233 94.5839 64.191 94.6468C68.0257 94.8354 72.7823 95.244 76.3969 95.6945C77.235 95.7993 77.9475 95.8516 77.9999 95.8097C78.0313 95.7783 78.0523 86.9985 78.0523 74.604L62.3994 29.5734L62.389 33.8376L62.3575 51.4391L60.9117 47.3531C59.4973 43.3613 58.5543 40.6896 52.8653 24.6177C51.3356 20.2907 50.0364 16.6341 49.9841 16.4665L49.8793 16.1732H34.1846V16.1836Z" fill="url(#paint0_radial_755_397)"/>
<path d="M34.1846 16.1836L49.9526 60.8685V60.8476L51.1994 64.3679C58.1248 83.9706 61.8442 94.4896 61.8651 94.5106C61.8756 94.521 62.9233 94.5839 64.191 94.6468C68.0257 94.8354 72.7823 95.244 76.3969 95.6945C77.2246 95.7993 77.9475 95.8516 77.9894 95.8097L62.3575 51.4287L62.3575 51.4391L60.9117 47.3531C59.4973 43.3613 58.5543 40.6896 52.8653 24.6177C51.3356 20.2907 50.0364 16.6341 49.9841 16.4665L49.8793 16.1732H42.0319L34.1846 16.1836Z" fill="#E50914"/>
</g>
<rect x="1" y="1" width="110" height="110" rx="9" stroke="black" stroke-opacity="0.1" stroke-width="2"/>
<defs>
<radialGradient id="paint0_radial_755_397" cx="0" cy="0" r="1" gradientUnits="userSpaceOnUse" gradientTransform="translate(55.3908 55.537) rotate(-19.0951) scale(2.89198 105.911)">
<stop/>
<stop offset="1" stop-opacity="0"/>
</radialGradient>
<clipPath id="clip0_755_397">
<rect x="2" y="2" width="108" height="108" rx="8" fill="white"/>
</clipPath>
</defs>
</svg>
