<svg width="112" height="112" viewBox="0 0 112 112" fill="none" xmlns="http://www.w3.org/2000/svg">
<g clip-path="url(#clip0_755_403)">
<rect x="2" y="2" width="108" height="108" rx="8" fill="white"/>
<path d="M23.592 57.168L19.2 45H16V66.496C17.12 66.336 18.24 66.184 19.368 66.04V54.344L23.272 65.552C24.496 65.408 25.728 65.272 26.96 65.152V45H23.592V57.168Z" fill="#DB202C"/>
<path d="M30.2 64.84C33.304 64.56 36.424 64.328 39.56 64.144V60.824C37.56 60.936 35.56 61.08 33.568 61.232V56.208C34.872 56.192 36.592 56.152 38.12 56.176V52.856C36.904 52.856 34.944 52.872 33.568 52.888V48.352H39.56V45H30.2V64.84Z" fill="#DB202C"/>
<path d="M41.712 48.352H45.24V63.872C46.36 63.832 47.488 63.792 48.608 63.768V48.352H52.136V45H41.712V48.352Z" fill="#DB202C"/>
<path d="M54.296 63.672H57.664V56.008H62.232V52.688H57.664V48.352H63.704V45H54.296V63.672Z" fill="#DB202C"/>
<path d="M69.224 45H65.856V63.84C68.92 63.944 71.968 64.096 75 64.304V60.984C73.08 60.856 71.152 60.744 69.224 60.656V45Z" fill="#DB202C"/>
<path d="M77.784 64.504C78.912 64.592 80.032 64.68 81.152 64.784V45H77.784V64.504Z" fill="#DB202C"/>
<path d="M96 45H92.296L89.856 50.656L87.672 45H84.024L87.944 55.104L83.664 65.016C84.848 65.128 86.024 65.256 87.208 65.384L89.696 59.624L92.16 65.976C93.44 66.144 94.72 66.312 96 66.496H96.008L91.624 55.176L96 45Z" fill="#DB202C"/>
</g>
<rect x="1" y="1" width="110" height="110" rx="9" stroke="black" stroke-opacity="0.1" stroke-width="2"/>
<defs>
<clipPath id="clip0_755_403">
<rect x="2" y="2" width="108" height="108" rx="8" fill="white"/>
</clipPath>
</defs>
</svg>
