<svg width="112" height="112" viewBox="0 0 112 112" fill="none" xmlns="http://www.w3.org/2000/svg">
<g clip-path="url(#clip0_755_393)">
<rect x="2" y="2" width="108" height="108" rx="8" fill="white"/>
<g clip-path="url(#clip1_755_393)">
<path d="M23.6694 56.5856H26.5207V61.8417C26.5207 64.7445 24.1675 67.0977 21.2646 67.0977C18.3618 67.0977 16 64.7531 16 61.8417C16 58.9302 18.3532 56.5856 21.256 56.5856H23.6694Z" fill="#F39940"/>
<path d="M26.5208 53.8031V55.5207H23.3517C21.5997 55.5207 20.1826 54.1037 20.1826 52.3516C20.1826 50.5996 21.5997 49.1826 23.3517 49.1826C25.1037 49.1826 26.5208 50.5996 26.5208 52.3516V53.8031Z" fill="#047AB2"/>
<path d="M30.428 55.5207H27.5767V50.2647C27.5852 47.3533 29.9384 45.0001 32.8413 45.0001C35.7441 45.0001 38.0973 47.3533 38.0973 50.2647C38.0973 53.1761 35.7441 55.5207 32.8413 55.5207H30.428Z" fill="#F39940"/>
<path d="M27.5854 57.496C27.5854 57.0236 27.9719 56.6372 28.4443 56.6372C28.9166 56.6372 29.3031 57.0236 29.3031 57.496V57.5647C29.6982 57.058 30.2049 56.5856 31.0809 56.5856C32.3863 56.5856 33.1421 57.4445 33.1421 58.8444V61.9791C33.1421 62.4514 32.7556 62.8379 32.2832 62.8379C31.8109 62.8379 31.4244 62.4514 31.4244 61.9791V59.3854C31.4244 58.5695 31.0379 58.1487 30.3852 58.1487C29.7325 58.1487 29.3117 58.5695 29.3117 59.3854V61.9791C29.3117 62.4514 28.9252 62.8379 28.4529 62.8379C27.9805 62.8379 27.594 62.4514 27.594 61.9791V57.496H27.5854Z" fill="#047AB2"/>
<path d="M37.1271 62.9066C35.3064 62.9066 33.958 61.627 33.958 59.7719V59.7461C33.958 58.0113 35.1947 56.5856 36.9639 56.5856C38.9908 56.5856 39.8839 58.2518 39.8839 59.5057C39.8839 60.0038 39.5318 60.3301 39.0766 60.3301H35.6671C35.8388 61.1117 36.3799 61.5239 37.1529 61.5239C37.6252 61.5239 38.0203 61.3779 38.3724 61.1117C38.4926 61.0172 38.6129 60.9743 38.7932 60.9743C39.1797 60.9743 39.4631 61.2663 39.4631 61.6527C39.4631 61.876 39.36 62.0478 39.2398 62.1594C38.7073 62.6146 38.0203 62.898 37.1357 62.898M38.2436 59.248C38.1405 58.4751 37.6853 57.9598 36.9639 57.9598C36.2425 57.9598 35.7873 58.4665 35.6499 59.248H38.2436Z" fill="#047AB2"/>
<path d="M40.3816 61.5239L41.9361 59.686L40.519 58.0543C40.3215 57.831 40.2356 57.6249 40.2356 57.393C40.2356 56.9034 40.5963 56.6028 41.0257 56.6028C41.3692 56.6028 41.6011 56.7574 41.833 57.0408L42.9495 58.5352L44.0917 57.0408C44.2978 56.7918 44.5297 56.6028 44.8389 56.6028C45.2941 56.6028 45.6462 56.9206 45.6462 57.35C45.6462 57.5905 45.5432 57.7709 45.4057 57.934L43.9371 59.6603L45.4573 61.4037C45.6548 61.6356 45.7407 61.8331 45.7407 62.065C45.7407 62.5545 45.38 62.8551 44.9506 62.8551C44.607 62.8551 44.3751 62.692 44.1433 62.4085L42.9151 60.8025L41.6956 62.4085C41.4895 62.6576 41.249 62.8551 40.9484 62.8551C40.4932 62.8551 40.1411 62.5374 40.1411 62.1079C40.1411 61.8675 40.2356 61.6871 40.3816 61.5239Z" fill="#047AB2"/>
<path d="M52.1822 57.642H51.3577V59.4885H52.1822C52.4656 59.4885 52.7147 59.4541 52.9036 59.394C53.084 59.3339 53.2386 59.2308 53.3416 59.102C53.4447 58.9646 53.4962 58.7842 53.4962 58.5609C53.4962 58.2947 53.4189 58.08 53.2643 57.9168C53.084 57.7365 52.7318 57.6506 52.1908 57.6506M52.4828 60.4074H51.3663V62.1165C51.3663 62.357 51.3062 62.5373 51.1945 62.6661C51.0743 62.8036 50.9369 62.8551 50.7565 62.8551C50.5762 62.8551 50.4216 62.795 50.31 62.6747C50.1983 62.5459 50.1382 62.3656 50.1382 62.1251V57.4788C50.1382 57.2126 50.1983 57.015 50.3271 56.9034C50.456 56.7917 50.6449 56.7316 50.9111 56.7316H52.4742C52.938 56.7316 53.2901 56.766 53.5391 56.8433C53.7796 56.912 54.0029 57.0236 54.1833 57.1782C54.355 57.3414 54.4925 57.5303 54.5869 57.7622C54.69 57.9941 54.7329 58.2603 54.7329 58.5438C54.7329 59.1535 54.5526 59.6173 54.1661 59.9437C53.7882 60.2528 53.2214 60.416 52.4742 60.416" fill="#047AB2"/>
<path d="M87.0591 57.3672V61.7472H89.5325C89.73 61.7472 89.876 61.7987 89.9877 61.8932C90.0993 61.9877 90.1509 62.1165 90.1509 62.2539C90.1509 62.3913 90.0993 62.5202 89.9877 62.6146C89.8846 62.7005 89.7386 62.752 89.5325 62.752H86.5867C86.3205 62.752 86.1315 62.6919 86.0113 62.5717C85.8911 62.4515 85.8309 62.2625 85.8309 61.9963V57.3586C85.8309 57.1181 85.8911 56.9292 86.0027 56.8003C86.1144 56.6715 86.2518 56.62 86.4407 56.62C86.6297 56.62 86.7671 56.6801 86.8873 56.8003C86.999 56.9206 87.0591 57.1009 87.0591 57.3586M83.5808 59.7118C83.5808 59.2738 83.5121 58.8873 83.3747 58.5695C83.2287 58.2432 83.0312 57.9941 82.7649 57.8309C82.5073 57.6678 82.1981 57.5905 81.8546 57.5905C81.6141 57.5905 81.3822 57.6334 81.1847 57.7279C80.9786 57.8224 80.7982 57.9512 80.6436 58.1315C80.4976 58.3119 80.386 58.5266 80.2915 58.8014C80.2056 59.0677 80.1627 59.3768 80.1627 59.7204C80.1627 60.0639 80.2056 60.3645 80.2915 60.6479C80.386 60.9227 80.4976 61.1632 80.6608 61.335C80.824 61.5153 80.9957 61.6527 81.2019 61.7472C81.408 61.8417 81.6313 61.8846 81.8717 61.8846C82.1809 61.8846 82.4729 61.8073 82.7306 61.6527C82.9882 61.4982 83.2029 61.2577 83.3575 60.9313C83.5121 60.605 83.5808 60.2099 83.5808 59.729M81.846 56.6372C82.4643 56.6372 83.0054 56.766 83.452 57.0151C83.8986 57.2641 84.2421 57.6248 84.474 58.0886C84.6973 58.561 84.8175 59.102 84.8175 59.7375C84.8175 60.2013 84.7574 60.6307 84.6286 61.0086C84.4998 61.3865 84.3108 61.7129 84.0532 61.9963C83.8041 62.2797 83.4949 62.4944 83.1256 62.6404C82.7563 62.7864 82.3355 62.8637 81.8632 62.8637C81.3908 62.8637 80.97 62.7864 80.6007 62.6404C80.2228 62.4858 79.9222 62.2711 79.6645 61.9963C79.4155 61.73 79.2265 61.3865 79.0977 61C78.9689 60.6136 78.9002 60.1927 78.9002 59.7375C78.9002 59.2824 78.9689 58.853 79.1063 58.4665C79.2437 58.08 79.4241 57.7537 79.6817 57.4702C79.9308 57.204 80.2486 56.9979 80.6093 56.8519C80.97 56.6973 81.3736 56.6372 81.8374 56.6372M74.3484 57.6506V59.2051H75.4649C75.7655 59.2051 76.0059 59.1707 76.1691 59.1192C76.3409 59.0591 76.4611 58.9474 76.547 58.7928C76.6157 58.6726 76.6501 58.5524 76.6501 58.4064C76.6501 58.1058 76.5384 57.8997 76.3323 57.7966C76.1176 57.6935 75.7826 57.642 75.3446 57.642H74.3484V57.6506ZM75.6195 60.0811H74.3484V61.8417H75.6624C76.4869 61.8417 76.8991 61.5497 76.8991 60.9485C76.8991 60.6479 76.7875 60.4246 76.5813 60.2872C76.3752 60.1498 76.0489 60.0897 75.6195 60.0897M75.7139 62.7606H73.8674C73.6012 62.7606 73.4123 62.7005 73.292 62.5803C73.1804 62.46 73.1203 62.2711 73.1203 62.0049V57.4788C73.1203 57.2126 73.1804 57.0236 73.3006 56.9034C73.4209 56.7832 73.6012 56.7231 73.8674 56.7231H75.817C76.1004 56.7231 76.358 56.7402 76.5642 56.7746C76.7703 56.8175 76.9678 56.8862 77.131 56.9807C77.277 57.0666 77.3972 57.1782 77.5089 57.2985C77.6205 57.4359 77.6978 57.5733 77.7579 57.7279C77.8181 57.8911 77.8438 58.0542 77.8438 58.2346C77.8438 58.8358 77.5518 59.2738 76.9421 59.5572C77.7322 59.8063 78.1272 60.2958 78.1272 61.0258C78.1272 61.3607 78.0414 61.6613 77.8696 61.9362C77.6978 62.2024 77.4659 62.4085 77.1739 62.5373C76.985 62.6146 76.7789 62.6748 76.547 62.7005C76.3151 62.7349 76.0317 62.752 75.7139 62.752M68.5255 60.3988H70.3291L69.4187 57.9168L68.5255 60.3988ZM70.9388 62.0736L70.6554 61.3178H68.2078L67.9243 62.0907C67.8127 62.3827 67.7182 62.5975 67.6409 62.7005C67.555 62.8122 67.4348 62.8637 67.2459 62.8637C67.0913 62.8637 66.9625 62.8036 66.8422 62.6919C66.722 62.5803 66.6619 62.4515 66.6619 62.314C66.6619 62.2282 66.679 62.1423 66.7048 62.0564C66.7306 61.9705 66.7821 61.8503 66.8422 61.6957L68.3795 57.788C68.4225 57.6764 68.4826 57.5475 68.5427 57.3844C68.6028 57.2212 68.6715 57.1009 68.7402 56.9893C68.8175 56.8862 68.912 56.8003 69.0151 56.7402C69.1353 56.6801 69.2641 56.6458 69.4359 56.6458C69.6076 56.6458 69.7451 56.6801 69.8653 56.7402C69.9769 56.8089 70.0628 56.8948 70.1315 56.9893C70.2088 57.0924 70.2689 57.1954 70.3119 57.3156C70.3634 57.4359 70.4235 57.5819 70.4922 57.7794L72.0639 61.6699C72.1927 61.9619 72.2443 62.1852 72.2443 62.314C72.2443 62.4429 72.1841 62.5717 72.0725 62.6919C71.9608 62.8122 71.8234 62.8723 71.6517 62.8723C71.5572 62.8723 71.4713 62.8551 71.4026 62.8208C71.3339 62.7864 71.2738 62.7349 71.2308 62.6747C71.1879 62.6146 71.1364 62.5202 71.0848 62.4085C71.0247 62.2883 70.9818 62.1852 70.9388 62.0907M63.3725 57.6678H62.2475V59.3253H63.3382C63.6302 59.3253 63.8793 59.2995 64.0768 59.248C64.2829 59.1965 64.4289 59.1106 64.532 58.9904C64.6436 58.8701 64.6951 58.707 64.6951 58.4837C64.6951 58.3119 64.6522 58.1745 64.5663 58.0457C64.4804 57.9082 64.3602 57.8138 64.2142 57.7622C64.0682 57.6935 63.7934 57.6678 63.3725 57.6678ZM62.6769 60.2013H62.2475V62.1337C62.2475 62.3827 62.1874 62.5717 62.0757 62.6919C61.9641 62.8208 61.8181 62.8809 61.6377 62.8809C61.4402 62.8809 61.2942 62.8208 61.1825 62.6833C61.0709 62.5545 61.0193 62.3827 61.0193 62.1337V57.496C61.0193 57.2384 61.0795 57.0408 61.1997 56.9206C61.3199 56.8003 61.5089 56.7402 61.7751 56.7402H63.759C64.0253 56.7402 64.2657 56.7402 64.4547 56.7746C64.6522 56.8003 64.824 56.8433 64.9871 56.9206C65.1675 56.9979 65.3393 57.1095 65.4853 57.2555C65.6399 57.4101 65.7429 57.5819 65.8202 57.7794C65.8975 57.9769 65.9319 58.1831 65.9319 58.4064C65.9319 58.853 65.803 59.2137 65.554 59.4799C65.3049 59.7461 64.9184 59.9351 64.4031 60.0553C64.6264 60.167 64.824 60.3387 65.0301 60.562C65.2276 60.7939 65.3994 61.0258 65.554 61.2749C65.7172 61.5325 65.8288 61.7644 65.9147 61.9619C66.0092 62.1595 66.0521 62.3055 66.0521 62.3827C66.0521 62.46 66.0263 62.5459 65.9748 62.6146C65.9233 62.6919 65.8546 62.7606 65.7687 62.8036C65.6828 62.8465 65.5883 62.8723 65.4681 62.8723C65.3307 62.8723 65.219 62.8379 65.1246 62.7778C65.0301 62.7091 64.9442 62.6232 64.8841 62.5287C64.8154 62.4343 64.7295 62.2883 64.6178 62.0993L64.1283 61.2834C63.948 60.9914 63.7934 60.7596 63.656 60.605C63.51 60.4504 63.3811 60.3473 63.2351 60.2872C63.0891 60.2271 62.9174 60.2013 62.6941 60.2013M56.4418 60.4246H58.2453L57.335 57.9426L56.4418 60.4246ZM58.8551 62.0993L58.5717 61.3436H56.124L55.8406 62.1165C55.729 62.4085 55.6345 62.6232 55.5572 62.7263C55.4713 62.8379 55.3511 62.8895 55.1621 62.8895C55.0075 62.8895 54.8787 62.8293 54.7585 62.7177C54.6382 62.606 54.5781 62.4772 54.5781 62.3398C54.5781 62.2539 54.5953 62.168 54.6211 62.0822C54.6468 61.9963 54.6984 61.876 54.7585 61.7214L56.2958 57.8138C56.3387 57.7021 56.3988 57.5733 56.459 57.4101C56.5191 57.2469 56.5878 57.1267 56.6565 57.0151C56.7338 56.912 56.8283 56.8261 56.9313 56.766C57.0516 56.7059 57.1804 56.6715 57.3521 56.6715C57.5239 56.6715 57.6613 56.7059 57.7816 56.766C57.8932 56.8347 57.9791 56.9206 58.0478 57.0151C58.1251 57.1181 58.1852 57.2212 58.2282 57.3414C58.2797 57.4616 58.3398 57.6077 58.4085 57.8052L59.9802 61.6957C60.109 61.9877 60.1605 62.211 60.1605 62.3398C60.1605 62.4686 60.1004 62.5975 59.9802 62.7177C59.8685 62.8379 59.7311 62.898 59.5593 62.898C59.4649 62.898 59.379 62.8809 59.3189 62.8465C59.2502 62.8122 59.19 62.7606 59.1385 62.7005C59.0956 62.6404 59.044 62.5459 58.9925 62.4343C58.9324 62.314 58.8895 62.211 58.8465 62.1165" fill="#047AB2"/>
<path d="M92.2807 60.3903H94.0842L93.1738 57.9083L92.2807 60.3903ZM94.694 62.065L94.4106 61.3092H91.9629L91.6795 62.0822C91.5678 62.3742 91.4734 62.5889 91.3961 62.692C91.3102 62.8036 91.1899 62.8551 91.001 62.8551C90.8464 62.8551 90.7176 62.795 90.5973 62.6834C90.4771 62.5717 90.417 62.4429 90.417 62.3055C90.417 62.2196 90.4342 62.1337 90.4599 62.0478C90.4857 61.962 90.5372 61.8417 90.5973 61.6871L92.1347 57.7795C92.1776 57.6678 92.2377 57.539 92.2978 57.3758C92.3579 57.2126 92.4267 57.0924 92.4954 56.9807C92.5727 56.8777 92.6671 56.7918 92.7702 56.7317C92.8904 56.6716 93.0192 56.6372 93.191 56.6372C93.3628 56.6372 93.5002 56.6716 93.6204 56.7317C93.7321 56.8004 93.818 56.8863 93.8867 56.9807C93.964 57.0838 94.0241 57.1869 94.067 57.3071C94.1185 57.4273 94.1787 57.5733 94.2474 57.7709L95.819 61.6614C95.9479 61.9534 95.9994 62.1767 95.9994 62.3055C95.9994 62.4343 95.9393 62.5631 95.819 62.6834C95.7074 62.8036 95.57 62.8637 95.3982 62.8637C95.3037 62.8637 95.2178 62.8466 95.1577 62.8122C95.089 62.7778 95.0289 62.7263 94.9774 62.6662C94.9344 62.6061 94.8829 62.5116 94.8314 62.4C94.7713 62.2797 94.7283 62.1767 94.6854 62.0822" fill="#047AB2"/>
<path d="M28.968 64.9506H28.5214V66.402C28.5214 66.4879 28.5042 66.548 28.4699 66.591C28.4355 66.6339 28.384 66.6511 28.3239 66.6511C28.2638 66.6511 28.2122 66.6339 28.1779 66.591C28.1435 66.548 28.1178 66.4879 28.1178 66.402V64.9506H27.6798C27.611 64.9506 27.5595 64.9334 27.5252 64.9077C27.4908 64.8733 27.4736 64.8304 27.4736 64.7874C27.4736 64.7445 27.4908 64.693 27.5252 64.6672C27.5595 64.6329 27.611 64.6243 27.6798 64.6243H28.968C29.0367 64.6243 29.0882 64.6414 29.1226 64.6672C29.1569 64.7016 29.1741 64.7359 29.1741 64.7874C29.1741 64.839 29.1569 64.8819 29.1226 64.9077C29.0882 64.9334 29.0367 64.9506 28.968 64.9506Z" fill="#047AB2"/>
<path d="M30.5138 64.8476L30.969 66.1874L31.4242 64.839C31.4499 64.7703 31.4671 64.7188 31.4757 64.693C31.4843 64.6672 31.51 64.6415 31.5358 64.6157C31.5616 64.5899 31.6045 64.5814 31.6475 64.5814C31.6818 64.5814 31.7162 64.5814 31.7419 64.6071C31.7763 64.6243 31.7935 64.6501 31.8106 64.6758C31.8278 64.7016 31.8364 64.736 31.8364 64.7617C31.8364 64.7789 31.8364 64.8047 31.8364 64.8304C31.8364 64.8562 31.8278 64.8734 31.8192 64.8991C31.8106 64.9249 31.802 64.9507 31.7935 64.9678L31.3125 66.2733C31.2953 66.3248 31.2782 66.3677 31.261 66.4193C31.2438 66.4622 31.2266 66.5051 31.2009 66.5395C31.1751 66.5738 31.1493 66.5996 31.1064 66.6254C31.072 66.6511 31.0205 66.6597 30.969 66.6597C30.9175 66.6597 30.8659 66.6511 30.8316 66.6254C30.7972 66.5996 30.7629 66.5738 30.7457 66.5395C30.7199 66.5051 30.7027 66.4622 30.6856 66.4193C30.6684 66.3763 30.6512 66.3334 30.634 66.2818L30.1617 64.985C30.1617 64.985 30.1445 64.9335 30.1359 64.9163C30.1359 64.8905 30.1187 64.8734 30.1102 64.8476C30.1102 64.8218 30.1016 64.7961 30.1016 64.7789C30.1016 64.7274 30.1187 64.693 30.1617 64.6501C30.196 64.6157 30.2476 64.5899 30.2991 64.5899C30.3678 64.5899 30.4193 64.6071 30.4451 64.6587C30.4709 64.7016 30.5052 64.7703 30.531 64.8562" fill="#047AB2"/>
<path d="M35.8645 66.0156C35.8645 66.1358 35.8302 66.2475 35.77 66.3419C35.7013 66.4364 35.6155 66.5137 35.4952 66.5652C35.375 66.6168 35.229 66.6425 35.0658 66.6425C34.8683 66.6425 34.7051 66.6082 34.5763 66.5309C34.4904 66.4794 34.4131 66.4021 34.353 66.3162C34.3014 66.2303 34.2671 66.1444 34.2671 66.0585C34.2671 66.007 34.2843 65.9641 34.3186 65.9297C34.353 65.8954 34.3959 65.8782 34.4474 65.8782C34.4904 65.8782 34.5247 65.8954 34.5591 65.9211C34.5934 65.9469 34.6192 65.9898 34.6364 66.0414C34.6622 66.1101 34.6879 66.1616 34.7223 66.2045C34.748 66.2475 34.791 66.2818 34.8425 66.3076C34.9026 66.3334 34.9713 66.3505 35.0572 66.3505C35.1774 66.3505 35.2719 66.3248 35.3492 66.2646C35.4265 66.2045 35.4609 66.1358 35.4609 66.0585C35.4609 65.9898 35.4437 65.9383 35.4007 65.8954C35.3578 65.8524 35.3063 65.8266 35.2462 65.8009C35.186 65.7751 35.0916 65.7579 34.9885 65.7322C34.8425 65.6978 34.7223 65.6549 34.6278 65.6119C34.5333 65.569 34.456 65.5089 34.3959 65.423C34.3358 65.3457 34.31 65.2512 34.31 65.131C34.31 65.0193 34.3444 64.9249 34.4045 64.839C34.4646 64.7531 34.5505 64.6844 34.6707 64.6415C34.7824 64.5899 34.9198 64.5728 35.0744 64.5728C35.1946 64.5728 35.3063 64.5899 35.3922 64.6157C35.478 64.6415 35.5553 64.6844 35.6155 64.7359C35.6756 64.7875 35.7185 64.839 35.7443 64.8905C35.77 64.9421 35.7872 65.0022 35.7872 65.0537C35.7872 65.1052 35.77 65.1482 35.7357 65.1825C35.7013 65.2255 35.6584 65.2426 35.6069 65.2426C35.5553 65.2426 35.521 65.2341 35.5038 65.2083C35.478 65.1825 35.4523 65.1482 35.4265 65.0966C35.3922 65.0193 35.3406 64.9592 35.2977 64.9163C35.2462 64.8733 35.1689 64.8476 35.0486 64.8476C34.9456 64.8476 34.8597 64.8733 34.7996 64.9163C34.7309 64.9592 34.7051 65.0193 34.7051 65.0795C34.7051 65.1224 34.7137 65.1568 34.7394 65.1825C34.7652 65.2083 34.791 65.2341 34.8253 65.2598C34.8683 65.277 34.9026 65.2942 34.9456 65.3113C34.9885 65.3199 35.0486 65.3371 35.1431 65.3629C35.2547 65.3886 35.3578 65.423 35.4523 65.4488C35.5382 65.4831 35.624 65.5261 35.6842 65.569C35.7529 65.6119 35.7958 65.6721 35.8387 65.7408C35.8731 65.8095 35.8903 65.8954 35.8903 65.9984" fill="#047AB2"/>
<path d="M37.4878 65.8352H38.089L37.7884 65.0108L37.4878 65.8352ZM38.2865 66.3935L38.192 66.1444H37.3761L37.2817 66.4021C37.2473 66.4965 37.213 66.5738 37.1872 66.5996C37.1614 66.6339 37.1185 66.6511 37.0584 66.6511C37.0068 66.6511 36.9639 66.6339 36.921 66.591C36.878 66.5567 36.8608 66.5137 36.8608 66.4622C36.8608 66.4364 36.8608 66.4021 36.878 66.3763C36.878 66.3505 36.9038 66.3076 36.921 66.2561L37.4363 64.9592C37.4363 64.9592 37.4706 64.8819 37.4878 64.8218C37.505 64.7703 37.5307 64.7273 37.5479 64.693C37.5737 64.6586 37.608 64.6329 37.6424 64.6071C37.6853 64.5899 37.7283 64.5728 37.7798 64.5728C37.8313 64.5728 37.8828 64.5813 37.9258 64.6071C37.9601 64.6329 37.9945 64.6586 38.0117 64.693C38.0374 64.7273 38.0546 64.7617 38.0718 64.8046C38.089 64.8476 38.1061 64.8905 38.1319 64.9592L38.6558 66.2475C38.6987 66.3419 38.7159 66.4192 38.7159 66.4622C38.7159 66.5051 38.6987 66.5481 38.6558 66.591C38.6214 66.6339 38.5699 66.6511 38.5184 66.6511C38.484 66.6511 38.4583 66.6511 38.4325 66.6339C38.4067 66.6254 38.3896 66.6082 38.3724 66.5824C38.3552 66.5652 38.338 66.5309 38.3208 66.4965C38.3037 66.4536 38.2865 66.4192 38.2779 66.3935" fill="#047AB2"/>
<path d="M40.8801 64.9507H40.4335V66.4021C40.4335 66.488 40.4163 66.5481 40.382 66.591C40.3476 66.634 40.2961 66.6512 40.236 66.6512C40.1759 66.6512 40.1243 66.634 40.09 66.591C40.0556 66.5481 40.0299 66.488 40.0299 66.4021V64.9507H39.5919C39.5232 64.9507 39.4716 64.9335 39.4373 64.9077C39.4029 64.8734 39.3857 64.8304 39.3857 64.7875C39.3857 64.7446 39.4029 64.693 39.4373 64.6673C39.4716 64.6329 39.5232 64.6243 39.5919 64.6243H40.8801C40.9488 64.6243 41.0003 64.6415 41.0347 64.6673C41.069 64.7016 41.0862 64.736 41.0862 64.7875C41.0862 64.839 41.069 64.882 41.0347 64.9077C41.0003 64.9335 40.9488 64.9507 40.8801 64.9507Z" fill="#047AB2"/>
<path d="M43.4476 64.9249H42.5286V65.4144H43.3703C43.4304 65.4144 43.4819 65.4316 43.5077 65.4574C43.5421 65.4831 43.5507 65.5261 43.5507 65.569C43.5507 65.612 43.5335 65.6463 43.5077 65.6807C43.4734 65.7064 43.4304 65.7236 43.3703 65.7236H42.5286V66.299H43.4734C43.5335 66.299 43.585 66.3162 43.6194 66.342C43.6537 66.3677 43.6709 66.4107 43.6709 66.4622C43.6709 66.5051 43.6537 66.5481 43.6194 66.5739C43.585 66.6082 43.5421 66.6168 43.4734 66.6168H42.3741C42.2882 66.6168 42.2195 66.5996 42.1851 66.5567C42.1422 66.5137 42.125 66.4536 42.125 66.3677V64.8648C42.125 64.8047 42.125 64.7617 42.1508 64.7188C42.1679 64.6844 42.1937 64.6587 42.2281 64.6415C42.271 64.6243 42.3139 64.6157 42.3741 64.6157H43.4476C43.5163 64.6157 43.5592 64.6329 43.5936 64.6587C43.628 64.693 43.6451 64.7274 43.6451 64.7703C43.6451 64.8133 43.628 64.8562 43.5936 64.882C43.5592 64.9077 43.5163 64.9249 43.4476 64.9249Z" fill="#047AB2"/>
<path d="M45.1912 64.8218V66.2818H46.0157C46.0758 66.2818 46.1274 66.299 46.1617 66.3248C46.1961 66.3591 46.2133 66.3935 46.2133 66.445C46.2133 66.4965 46.1961 66.5309 46.1617 66.5652C46.1274 66.591 46.0758 66.6082 46.0157 66.6082H45.0367C44.9508 66.6082 44.8821 66.591 44.8477 66.5481C44.8048 66.5051 44.7876 66.445 44.7876 66.3591V64.8218C44.7876 64.7445 44.8048 64.6758 44.8391 64.6329C44.8735 64.5899 44.925 64.5728 44.9851 64.5728C45.0452 64.5728 45.0968 64.5899 45.1311 64.6329C45.1655 64.6758 45.1912 64.7359 45.1912 64.8218Z" fill="#047AB2"/>
<path d="M47.3042 66.4021V64.8218C47.3042 64.7359 47.3214 64.6758 47.3643 64.6329C47.4073 64.5899 47.4502 64.5728 47.5103 64.5728C47.5704 64.5728 47.622 64.5899 47.6563 64.6329C47.6907 64.6758 47.7078 64.7359 47.7078 64.8218V66.4021C47.7078 66.4794 47.6907 66.5481 47.6563 66.591C47.6134 66.6339 47.5704 66.6511 47.5103 66.6511C47.4502 66.6511 47.4073 66.6339 47.3643 66.591C47.33 66.5481 47.3042 66.4879 47.3042 66.4021Z" fill="#047AB2"/>
<path d="M50.2671 64.9507H49.8205V66.4021C49.8205 66.488 49.8033 66.5481 49.769 66.591C49.7346 66.634 49.6831 66.6512 49.623 66.6512C49.5629 66.6512 49.5113 66.634 49.477 66.591C49.4426 66.5481 49.4169 66.488 49.4169 66.4021V64.9507H48.9703C48.9016 64.9507 48.85 64.9335 48.8157 64.9077C48.7813 64.8734 48.7642 64.8304 48.7642 64.7875C48.7642 64.7446 48.7813 64.693 48.8157 64.6673C48.85 64.6329 48.9016 64.6243 48.9703 64.6243H50.2585C50.3272 64.6243 50.3788 64.6415 50.4131 64.6673C50.4475 64.7016 50.4646 64.736 50.4646 64.7875C50.4646 64.839 50.4475 64.882 50.4131 64.9077C50.3788 64.9335 50.3272 64.9507 50.2585 64.9507" fill="#047AB2"/>
<path d="M54.2947 64.9163H54.0199V65.5261H54.2947C54.3892 65.5261 54.475 65.5175 54.5352 65.4917C54.5953 65.4746 54.6468 65.4402 54.6812 65.3973C54.7155 65.3543 54.7327 65.2942 54.7327 65.2169C54.7327 65.131 54.7069 65.0537 54.6554 65.0022C54.5953 64.9421 54.475 64.9163 54.2947 64.9163ZM54.3892 65.8353H54.0199V66.4021C54.0199 66.4794 54.0027 66.5395 53.9683 66.5824C53.9254 66.6254 53.8824 66.6511 53.8223 66.6511C53.7622 66.6511 53.7107 66.634 53.6763 66.591C53.642 66.5481 53.6162 66.488 53.6162 66.4107V64.8648C53.6162 64.7789 53.6334 64.7102 53.6763 64.6758C53.7193 64.6415 53.7794 64.6157 53.8739 64.6157H54.3977C54.5523 64.6157 54.6726 64.6243 54.7499 64.6501C54.8272 64.6758 54.9045 64.7102 54.9646 64.7617C55.0247 64.8133 55.0676 64.882 55.102 64.9507C55.1363 65.028 55.1535 65.1138 55.1535 65.2083C55.1535 65.4144 55.0934 65.569 54.9646 65.6721C54.8357 65.7751 54.6554 65.8267 54.4063 65.8267" fill="#047AB2"/>
<path d="M56.2959 66.4021V64.8218C56.2959 64.7359 56.3131 64.6758 56.356 64.6329C56.399 64.5899 56.4419 64.5728 56.502 64.5728C56.5621 64.5728 56.6137 64.5899 56.648 64.6329C56.6824 64.6758 56.6995 64.7359 56.6995 64.8218V66.4021C56.6995 66.4794 56.6824 66.5481 56.648 66.591C56.6051 66.6339 56.5621 66.6511 56.502 66.6511C56.4419 66.6511 56.399 66.6339 56.356 66.591C56.3217 66.5481 56.2959 66.4879 56.2959 66.4021Z" fill="#047AB2"/>
<path d="M58.3573 64.8218V66.2818H59.1817C59.2419 66.2818 59.2934 66.299 59.3363 66.3248C59.3707 66.3591 59.3879 66.3935 59.3879 66.445C59.3879 66.4965 59.3707 66.5309 59.3363 66.5652C59.302 66.591 59.2504 66.6082 59.1817 66.6082H58.2027C58.1168 66.6082 58.0481 66.591 58.0137 66.5481C57.9708 66.5051 57.9536 66.445 57.9536 66.3591V64.8218C57.9536 64.7445 57.9708 64.6758 58.0051 64.6329C58.0395 64.5899 58.091 64.5728 58.1511 64.5728C58.2113 64.5728 58.2628 64.5899 58.2971 64.6329C58.3315 64.6758 58.3573 64.7359 58.3573 64.8218Z" fill="#047AB2"/>
<path d="M60.4614 66.4021V64.8218C60.4614 64.7359 60.4786 64.6758 60.5215 64.6329C60.5559 64.5899 60.6074 64.5728 60.6675 64.5728C60.7277 64.5728 60.7792 64.5899 60.8135 64.6329C60.8479 64.6758 60.8651 64.7359 60.8651 64.8218V66.4021C60.8651 66.4794 60.8479 66.5481 60.8135 66.591C60.7706 66.6339 60.7277 66.6511 60.6675 66.6511C60.6074 66.6511 60.5645 66.6339 60.5215 66.591C60.4872 66.5481 60.4614 66.4879 60.4614 66.4021Z" fill="#047AB2"/>
<path d="M62.5311 64.8218V65.3972H63.4071V64.8218C63.4071 64.7445 63.4243 64.6758 63.4672 64.6329C63.5016 64.5899 63.5531 64.5728 63.6132 64.5728C63.6733 64.5728 63.7249 64.5899 63.7592 64.6329C63.7936 64.6758 63.8193 64.7359 63.8193 64.8218V66.4021C63.8193 66.4794 63.8022 66.5481 63.7592 66.591C63.7163 66.6339 63.6733 66.6511 63.6132 66.6511C63.5531 66.6511 63.5016 66.6339 63.4672 66.591C63.4329 66.5481 63.4071 66.4879 63.4071 66.4021V65.7322H62.5311V66.4021C62.5311 66.4794 62.5139 66.5481 62.471 66.591C62.428 66.6339 62.3851 66.6511 62.325 66.6511C62.2649 66.6511 62.2133 66.6339 62.179 66.591C62.1446 66.5481 62.1274 66.4879 62.1274 66.4021V64.8218C62.1274 64.7359 62.1446 64.6758 62.179 64.6329C62.2133 64.5899 62.2649 64.5728 62.325 64.5728C62.3851 64.5728 62.4366 64.5899 62.471 64.6329C62.5053 64.6758 62.5311 64.7359 62.5311 64.8218Z" fill="#047AB2"/>
<path d="M65.5283 65.8352H66.1295L65.8289 65.0108L65.5283 65.8352ZM66.327 66.3935L66.2326 66.1444H65.4167L65.3222 66.4021C65.2878 66.4965 65.2535 66.5738 65.2277 66.5996C65.202 66.6339 65.159 66.6511 65.0989 66.6511C65.0474 66.6511 65.0044 66.6339 64.9615 66.591C64.9185 66.5567 64.9014 66.5137 64.9014 66.4622C64.9014 66.4364 64.9014 66.4021 64.9185 66.3763C64.9185 66.3505 64.9443 66.3076 64.9615 66.2561L65.4768 64.9592C65.4768 64.9592 65.5111 64.8819 65.5283 64.8218C65.5455 64.7703 65.5713 64.7273 65.597 64.693C65.6228 64.6586 65.6571 64.6329 65.6915 64.6071C65.7344 64.5899 65.7774 64.5728 65.8289 64.5728C65.8804 64.5728 65.932 64.5813 65.9749 64.6071C66.0093 64.6329 66.0436 64.6586 66.0608 64.693C66.0866 64.7273 66.1037 64.7617 66.1209 64.8046C66.1381 64.8476 66.1553 64.8905 66.181 64.9592L66.7049 66.2475C66.7479 66.3419 66.765 66.4192 66.765 66.4622C66.765 66.5051 66.7479 66.5481 66.7049 66.591C66.6706 66.6339 66.619 66.6511 66.5675 66.6511C66.5331 66.6511 66.5074 66.6511 66.4816 66.6339C66.4558 66.6254 66.4387 66.6082 66.4215 66.5824C66.4043 66.5652 66.3871 66.5309 66.37 66.4965C66.3528 66.4536 66.3356 66.4192 66.327 66.3935Z" fill="#047AB2"/>
<path d="M68.3968 64.8219L69.1784 66.007V64.8133C69.1784 64.736 69.1956 64.6759 69.2299 64.6415C69.2643 64.5986 69.3072 64.5814 69.3673 64.5814C69.4274 64.5814 69.4704 64.5986 69.5047 64.6415C69.5391 64.6759 69.5563 64.736 69.5563 64.8133V66.3849C69.5563 66.5653 69.479 66.6512 69.3416 66.6512C69.3072 66.6512 69.2729 66.6512 69.2471 66.634C69.2213 66.6254 69.187 66.6082 69.1698 66.591C69.144 66.5653 69.1183 66.5395 69.1011 66.5052C69.0839 66.4794 69.0581 66.445 69.0324 66.4107L68.268 65.2427V66.4107C68.268 66.488 68.2508 66.5481 68.2165 66.5825C68.1821 66.6254 68.1392 66.6426 68.0791 66.6426C68.019 66.6426 67.976 66.6254 67.9417 66.5825C67.9073 66.5481 67.8901 66.488 67.8901 66.4107V64.8648C67.8901 64.7961 67.8987 64.7446 67.9159 64.7102C67.9331 64.6673 67.9588 64.6329 68.0018 64.6071C68.0447 64.5814 68.0877 64.5642 68.1306 64.5642C68.165 64.5642 68.1993 64.5642 68.2251 64.5814C68.2508 64.5986 68.2766 64.6072 68.2938 64.6329C68.311 64.6587 68.3367 64.6759 68.3539 64.7102C68.3711 64.7446 68.3968 64.7789 68.414 64.8133" fill="#047AB2"/>
<path d="M74.1941 64.9506H73.7561V66.402C73.7561 66.4879 73.7389 66.548 73.696 66.591C73.6616 66.6339 73.6101 66.6511 73.55 66.6511C73.4898 66.6511 73.4383 66.6339 73.4039 66.591C73.3696 66.548 73.3438 66.4879 73.3438 66.402V64.9506H72.9058C72.8371 64.9506 72.7856 64.9334 72.7512 64.9077C72.7169 64.8733 72.6997 64.8304 72.6997 64.7874C72.6997 64.7445 72.7169 64.693 72.7512 64.6672C72.7856 64.6329 72.8371 64.6243 72.9058 64.6243H74.1941C74.2628 64.6243 74.3143 64.6414 74.3487 64.6672C74.383 64.7016 74.4002 64.7359 74.4002 64.7874C74.4002 64.839 74.383 64.8819 74.3487 64.9077C74.3143 64.9334 74.2628 64.9506 74.1941 64.9506Z" fill="#047AB2"/>
<path d="M76.7616 64.9249H75.8426V65.4144H76.6843C76.7444 65.4144 76.7959 65.4316 76.8217 65.4574C76.856 65.4831 76.8646 65.5261 76.8646 65.569C76.8646 65.612 76.8474 65.6463 76.8217 65.6807C76.7873 65.7064 76.7444 65.7236 76.6843 65.7236H75.8426V66.299H76.7873C76.8474 66.299 76.899 66.3162 76.9333 66.342C76.9677 66.3677 76.9849 66.4107 76.9849 66.4622C76.9849 66.5051 76.9677 66.5481 76.9333 66.5739C76.899 66.6082 76.856 66.6168 76.7873 66.6168H75.688C75.6021 66.6168 75.5334 66.5996 75.4991 66.5567C75.4561 66.5137 75.439 66.4536 75.439 66.3677V64.8648C75.439 64.8047 75.439 64.7617 75.4647 64.7188C75.4819 64.6844 75.5077 64.6587 75.5506 64.6415C75.585 64.6243 75.6365 64.6157 75.6966 64.6157H76.7702C76.8389 64.6157 76.8818 64.6329 76.9162 64.6587C76.9505 64.693 76.9677 64.7274 76.9677 64.7703C76.9677 64.8133 76.9505 64.8562 76.9162 64.882C76.8818 64.9077 76.8389 64.9249 76.7702 64.9249" fill="#047AB2"/>
<path d="M78.8832 64.9163H78.5053V65.466H78.866C78.9605 65.466 79.0464 65.466 79.1151 65.4402C79.1838 65.423 79.2353 65.3973 79.2697 65.3543C79.304 65.3114 79.3212 65.2599 79.3212 65.1826C79.3212 65.1225 79.304 65.0795 79.2782 65.0366C79.2525 64.9936 79.2095 64.9593 79.158 64.9421C79.1065 64.9163 79.0206 64.9078 78.8746 64.9078M78.6427 65.7494H78.4967V66.3935C78.4967 66.4794 78.4795 66.5395 78.4366 66.5739C78.4022 66.6168 78.3507 66.634 78.2906 66.634C78.2305 66.634 78.1789 66.6168 78.136 66.5653C78.1016 66.5224 78.0845 66.4622 78.0845 66.3849V64.8476C78.0845 64.7618 78.1016 64.693 78.1446 64.6587C78.1875 64.6243 78.2477 64.5986 78.3335 64.5986H78.9948C79.0807 64.5986 79.1666 64.5986 79.2267 64.6072C79.2868 64.6157 79.347 64.6329 79.3985 64.6501C79.4586 64.6759 79.5187 64.7188 79.5617 64.7618C79.6132 64.8133 79.6475 64.8734 79.6733 64.9335C79.6991 65.0022 79.7077 65.0709 79.7077 65.1396C79.7077 65.2856 79.6647 65.4059 79.5788 65.5003C79.493 65.5862 79.3641 65.6549 79.1924 65.6893C79.2611 65.7236 79.3298 65.7838 79.3985 65.8611C79.4672 65.9383 79.5187 66.0156 79.5702 66.1015C79.6218 66.1874 79.6647 66.2647 79.6905 66.3334C79.7248 66.4021 79.7334 66.4451 79.7334 66.4708C79.7334 66.4966 79.7248 66.5224 79.7077 66.5481C79.6905 66.5739 79.6647 66.5911 79.639 66.6082C79.6132 66.6254 79.5788 66.634 79.5359 66.634C79.493 66.634 79.45 66.6254 79.4242 66.5996C79.3899 66.5739 79.3641 66.5481 79.347 66.5138C79.3212 66.4794 79.2954 66.4365 79.2611 66.3678L79.0979 66.0929C79.0378 65.9985 78.9862 65.9212 78.9433 65.8696C78.9004 65.8181 78.8488 65.7838 78.8059 65.7666C78.7544 65.7494 78.7028 65.7408 78.6255 65.7408" fill="#047AB2"/>
<path d="M81.3223 64.9164V65.4317H81.6916C81.7947 65.4317 81.872 65.4231 81.9235 65.4059C81.9836 65.3887 82.018 65.3458 82.0523 65.2942C82.0781 65.2513 82.0867 65.2169 82.0867 65.1654C82.0867 65.0624 82.0523 64.9937 81.9836 64.9679C81.9149 64.9335 81.8033 64.9164 81.6573 64.9164H81.3223ZM81.7431 65.7237H81.3223V66.3077H81.7603C82.0351 66.3077 82.1726 66.2132 82.1726 66.0071C82.1726 65.904 82.1382 65.8353 82.0695 65.7838C82.0008 65.7408 81.8977 65.7151 81.7517 65.7151M81.7861 66.6083H81.1763C81.0904 66.6083 81.0217 66.5911 80.9874 66.5481C80.953 66.5052 80.9272 66.4451 80.9272 66.3592V64.8562C80.9272 64.7704 80.9444 64.7016 80.9874 64.6673C81.0303 64.6329 81.0904 64.6072 81.1763 64.6072H81.829C81.9235 64.6072 82.0094 64.6072 82.0781 64.6244C82.1468 64.6415 82.2155 64.6587 82.267 64.6931C82.3186 64.7188 82.3615 64.7618 82.3958 64.7961C82.4302 64.8391 82.4646 64.8906 82.4817 64.9421C82.4989 64.9937 82.5075 65.0538 82.5075 65.1139C82.5075 65.3114 82.413 65.4574 82.2069 65.5519C82.4731 65.6378 82.602 65.801 82.602 66.0414C82.602 66.1531 82.5762 66.2561 82.5161 66.342C82.456 66.4279 82.3787 66.4966 82.2842 66.5395C82.2241 66.5653 82.1554 66.5825 82.0781 66.5911C82.0008 66.5997 81.9063 66.6083 81.8033 66.6083" fill="#047AB2"/>
<path d="M84.105 65.8352H84.7062L84.4056 65.0108L84.105 65.8352ZM84.9037 66.3935L84.8092 66.1444H83.9933L83.8989 66.4021C83.8645 66.4965 83.8301 66.5738 83.8044 66.5996C83.7786 66.6339 83.7357 66.6511 83.6756 66.6511C83.624 66.6511 83.5811 66.6339 83.5381 66.591C83.4952 66.5567 83.478 66.5137 83.478 66.4622C83.478 66.4364 83.478 66.4021 83.4952 66.3763C83.4952 66.3505 83.521 66.3076 83.5381 66.2561L84.0534 64.9592C84.0534 64.9592 84.0878 64.8819 84.105 64.8218C84.1222 64.7703 84.1479 64.7273 84.1651 64.693C84.1909 64.6586 84.2252 64.6329 84.2596 64.6071C84.3025 64.5899 84.3454 64.5728 84.397 64.5728C84.4485 64.5728 84.5 64.5813 84.543 64.6071C84.5773 64.6329 84.6117 64.6586 84.6289 64.693C84.6546 64.7273 84.6718 64.7617 84.689 64.8046C84.7062 64.8476 84.7233 64.8905 84.7491 64.9592L85.273 66.2475C85.3159 66.3419 85.3331 66.4192 85.3331 66.4622C85.3331 66.5051 85.3159 66.5481 85.273 66.591C85.2386 66.6339 85.1871 66.6511 85.1356 66.6511C85.1012 66.6511 85.0755 66.6511 85.0583 66.6339C85.0325 66.6254 85.0153 66.6082 84.9982 66.5824C84.981 66.5652 84.9638 66.5309 84.9466 66.4965C84.9294 66.4536 84.9123 66.4192 84.9037 66.3935Z" fill="#047AB2"/>
<path d="M86.458 66.4021V64.8218C86.458 64.7359 86.4752 64.6758 86.5181 64.6329C86.5525 64.5899 86.604 64.5728 86.6641 64.5728C86.7242 64.5728 86.7758 64.5899 86.8101 64.6329C86.8445 64.6758 86.8617 64.7359 86.8617 64.8218V66.4021C86.8617 66.4794 86.8445 66.5481 86.8101 66.591C86.7672 66.6339 86.7242 66.6511 86.6641 66.6511C86.604 66.6511 86.5611 66.6339 86.5181 66.591C86.4838 66.5481 86.458 66.4879 86.458 66.4021Z" fill="#047AB2"/>
<path d="M88.5277 64.8218V65.5261L89.3264 64.693C89.3264 64.693 89.3951 64.6243 89.4209 64.6071C89.4466 64.5899 89.481 64.5814 89.5239 64.5814C89.584 64.5814 89.627 64.5985 89.6699 64.6329C89.7043 64.6672 89.7214 64.7102 89.7214 64.7617C89.7214 64.8218 89.6871 64.882 89.627 64.9421L89.1374 65.4058L89.7043 66.2217C89.7472 66.2818 89.773 66.3248 89.7987 66.3677C89.8159 66.4107 89.8331 66.4536 89.8331 66.488C89.8331 66.5309 89.8159 66.5738 89.7816 66.5996C89.7472 66.634 89.6957 66.6511 89.6356 66.6511C89.5754 66.6511 89.5325 66.6426 89.4981 66.6168C89.4638 66.591 89.4294 66.5567 89.4123 66.5223C89.3865 66.4794 89.3607 66.445 89.3436 66.4107L88.8626 65.6721L88.5277 65.9898V66.4021C88.5277 66.488 88.5105 66.5481 88.4676 66.591C88.4246 66.634 88.3817 66.6511 88.3216 66.6511C88.2872 66.6511 88.2528 66.6426 88.2185 66.6254C88.1841 66.6082 88.1584 66.5824 88.1498 66.5481C88.1326 66.5223 88.1326 66.488 88.124 66.4622C88.124 66.4278 88.124 66.3849 88.124 66.3162V64.8304C88.124 64.7445 88.1412 64.6844 88.1756 64.6415C88.2099 64.5985 88.2614 64.5814 88.3216 64.5814C88.3817 64.5814 88.4332 64.5985 88.4676 64.6415C88.5019 64.6844 88.5277 64.7445 88.5277 64.8304" fill="#047AB2"/>
<path d="M91.6712 66.3162L91.3449 65.0452V66.4279C91.3449 66.5052 91.3277 66.5653 91.2933 66.5996C91.259 66.6426 91.2075 66.6598 91.1559 66.6598C91.1044 66.6598 91.0615 66.6426 91.0271 66.5996C90.9928 66.5567 90.9756 66.5052 90.9756 66.4279V64.8476C90.9756 64.7617 91.0013 64.7016 91.0443 64.6673C91.0958 64.6329 91.1559 64.6243 91.2246 64.6243H91.3535C91.4308 64.6243 91.4823 64.6243 91.5166 64.6415C91.551 64.6587 91.5768 64.6759 91.5939 64.7188C91.6111 64.7532 91.6283 64.8133 91.6541 64.8906L91.9461 65.9899L92.2381 64.8906C92.2638 64.8133 92.281 64.7532 92.2982 64.7188C92.3154 64.6844 92.3411 64.6587 92.3755 64.6415C92.4098 64.6243 92.4614 64.6243 92.5387 64.6243H92.6675C92.7448 64.6243 92.8049 64.6415 92.8478 64.6673C92.8908 64.7016 92.9165 64.7532 92.9165 64.8476V66.4279C92.9165 66.5052 92.8994 66.5653 92.865 66.5996C92.8307 66.6426 92.7791 66.6598 92.7276 66.6598C92.6761 66.6598 92.6331 66.6426 92.5988 66.5996C92.5644 66.5653 92.5472 66.5052 92.5472 66.4279V65.0452L92.2295 66.3162C92.2123 66.3935 92.1951 66.4622 92.1779 66.4966C92.1608 66.5395 92.1436 66.5653 92.1092 66.5996C92.0749 66.6254 92.0234 66.6426 91.9632 66.6426C91.9117 66.6426 91.8774 66.634 91.843 66.6082C91.8086 66.5825 91.7829 66.5653 91.7657 66.5309C91.7485 66.4966 91.7314 66.4622 91.7228 66.4279C91.7142 66.3849 91.7056 66.3506 91.6884 66.3076" fill="#047AB2"/>
<path d="M94.1279 65.7837V64.8218C94.1279 64.7359 94.1451 64.6758 94.188 64.6329C94.2224 64.5899 94.2739 64.5728 94.334 64.5728C94.3942 64.5728 94.4457 64.5899 94.48 64.6329C94.5144 64.6758 94.5316 64.7359 94.5316 64.8218V65.8095C94.5316 65.9211 94.5488 66.0156 94.5745 66.0929C94.6003 66.1702 94.6432 66.2303 94.7033 66.2732C94.7721 66.3162 94.8579 66.3334 94.9696 66.3334C95.1242 66.3334 95.2358 66.2904 95.3045 66.2045C95.3732 66.1186 95.399 65.9898 95.399 65.8181V64.8218C95.399 64.7359 95.4162 64.6758 95.4591 64.6329C95.4935 64.5899 95.545 64.5728 95.6051 64.5728C95.6652 64.5728 95.7168 64.5899 95.7511 64.6329C95.7855 64.6758 95.8112 64.7359 95.8112 64.8218V65.7837C95.8112 65.9383 95.7941 66.0757 95.7683 66.1788C95.7339 66.2818 95.6824 66.3763 95.5965 66.4536C95.5278 66.5223 95.4419 66.5652 95.3389 66.5996C95.2444 66.6339 95.1328 66.6425 95.0039 66.6425C94.8493 66.6425 94.7205 66.6254 94.6089 66.591C94.4972 66.5567 94.4113 66.5051 94.334 66.4364C94.2653 66.3677 94.2138 66.2818 94.1795 66.1702C94.1451 66.0585 94.1279 65.9297 94.1279 65.7837Z" fill="#047AB2"/>
<path d="M28.968 64.9506H28.53V66.402C28.53 66.4879 28.5128 66.548 28.4699 66.591C28.4355 66.6339 28.384 66.6511 28.3239 66.6511C28.2638 66.6511 28.2122 66.6339 28.1779 66.591C28.1435 66.548 28.1178 66.4879 28.1178 66.402V64.9506H27.6798C27.611 64.9506 27.5595 64.9334 27.5252 64.9077C27.4908 64.8733 27.4736 64.8304 27.4736 64.7874C27.4736 64.7445 27.4908 64.693 27.5252 64.6672C27.5595 64.6329 27.611 64.6243 27.6798 64.6243H28.968C29.0367 64.6243 29.0882 64.6414 29.1226 64.6672C29.1569 64.7016 29.1741 64.7359 29.1741 64.7874C29.1741 64.839 29.1569 64.8819 29.1226 64.9077C29.0882 64.9334 29.0367 64.9506 28.968 64.9506Z" fill="#047AB2"/>
<path d="M30.5138 64.8476L30.969 66.1874L31.4242 64.839C31.4499 64.7703 31.4671 64.7188 31.4757 64.693C31.4843 64.6672 31.51 64.6415 31.5358 64.6157C31.5616 64.5899 31.6045 64.5814 31.6475 64.5814C31.6818 64.5814 31.7162 64.5814 31.7419 64.6071C31.7763 64.6243 31.7935 64.6501 31.8106 64.6758C31.8278 64.7016 31.8364 64.736 31.8364 64.7617C31.8364 64.7789 31.8364 64.8047 31.8364 64.8304C31.8364 64.8562 31.8278 64.8734 31.8192 64.8991C31.8106 64.9249 31.802 64.9507 31.7935 64.9678L31.3125 66.2733C31.2953 66.3248 31.2782 66.3677 31.261 66.4193C31.2438 66.4622 31.2266 66.5051 31.2009 66.5395C31.1751 66.5738 31.1493 66.5996 31.1064 66.6254C31.072 66.6511 31.0205 66.6597 30.969 66.6597C30.9175 66.6597 30.8659 66.6511 30.8316 66.6254C30.7972 66.5996 30.7629 66.5738 30.7457 66.5395C30.7199 66.5051 30.7027 66.4622 30.6856 66.4193C30.6684 66.3763 30.6512 66.3334 30.634 66.2818L30.1617 64.985C30.1617 64.985 30.1445 64.9335 30.1359 64.9163C30.1273 64.8991 30.1187 64.8734 30.1102 64.8476C30.1102 64.8218 30.1016 64.7961 30.1016 64.7789C30.1016 64.7274 30.1187 64.693 30.1617 64.6501C30.196 64.6157 30.2476 64.5899 30.2991 64.5899C30.3678 64.5899 30.4193 64.6071 30.4451 64.6587C30.4709 64.7016 30.5052 64.7703 30.531 64.8562" fill="#047AB2"/>
<path d="M35.8645 66.0156C35.8645 66.1358 35.8302 66.2475 35.77 66.3419C35.7013 66.4364 35.6155 66.5137 35.4952 66.5652C35.375 66.6168 35.229 66.6425 35.0658 66.6425C34.8683 66.6425 34.7051 66.6082 34.5763 66.5309C34.4904 66.4794 34.4131 66.4021 34.353 66.3162C34.3014 66.2303 34.2671 66.1444 34.2671 66.0585C34.2671 66.007 34.2843 65.9641 34.3186 65.9297C34.353 65.8954 34.3959 65.8782 34.4474 65.8782C34.4904 65.8782 34.5247 65.8954 34.5591 65.9211C34.5934 65.9469 34.6192 65.9898 34.6364 66.0414C34.6622 66.1101 34.6879 66.1616 34.7223 66.2045C34.748 66.2475 34.791 66.2818 34.8425 66.3076C34.9026 66.3334 34.9713 66.3505 35.0572 66.3505C35.1774 66.3505 35.2719 66.3248 35.3492 66.2646C35.4265 66.2045 35.4609 66.1358 35.4609 66.0585C35.4609 65.9898 35.4437 65.9383 35.4007 65.8954C35.3578 65.8524 35.3063 65.8266 35.2462 65.8009C35.186 65.7751 35.0916 65.7579 34.9885 65.7322C34.8425 65.6978 34.7223 65.6549 34.6278 65.6119C34.5333 65.569 34.456 65.5089 34.3959 65.423C34.3358 65.3457 34.31 65.2512 34.31 65.131C34.31 65.0193 34.3444 64.9249 34.4045 64.839C34.4646 64.7531 34.5505 64.6844 34.6707 64.6415C34.7824 64.5899 34.9198 64.5728 35.0658 64.5728C35.186 64.5728 35.2977 64.5899 35.3836 64.6157C35.4695 64.6415 35.5467 64.6844 35.6069 64.7359C35.667 64.7875 35.7099 64.839 35.7357 64.8905C35.7615 64.9421 35.7786 65.0022 35.7786 65.0537C35.7786 65.1052 35.7615 65.1482 35.7271 65.1825C35.6927 65.2255 35.6498 65.2426 35.5983 65.2426C35.5467 65.2426 35.5124 65.2341 35.4952 65.2083C35.4695 65.1825 35.4437 65.1482 35.4179 65.0966C35.3836 65.0193 35.332 64.9592 35.2891 64.9163C35.2376 64.8733 35.1603 64.8476 35.04 64.8476C34.937 64.8476 34.8511 64.8733 34.791 64.9163C34.7223 64.9592 34.6965 65.0193 34.6965 65.0795C34.6965 65.1224 34.7051 65.1568 34.7309 65.1825C34.7566 65.2083 34.7824 65.2341 34.8167 65.2598C34.8597 65.277 34.894 65.2942 34.937 65.3113C34.9799 65.3199 35.04 65.3371 35.1345 65.3629C35.2462 65.3886 35.3492 65.423 35.4437 65.4488C35.5296 65.4831 35.6155 65.5261 35.6756 65.569C35.7443 65.6119 35.7872 65.6721 35.8302 65.7408C35.8645 65.8095 35.8817 65.8954 35.8817 65.9984" fill="#047AB2"/>
<path d="M37.4878 65.8352H38.089L37.7884 65.0108L37.4878 65.8352ZM38.2865 66.3935L38.192 66.1444H37.3761L37.2817 66.4021C37.2473 66.4965 37.213 66.5738 37.1872 66.5996C37.1614 66.6339 37.1185 66.6511 37.0584 66.6511C37.0068 66.6511 36.9639 66.6339 36.921 66.591C36.878 66.5567 36.8608 66.5137 36.8608 66.4622C36.8608 66.4364 36.8608 66.4021 36.878 66.3763C36.8866 66.3505 36.9038 66.3076 36.921 66.2561L37.4363 64.9592C37.4363 64.9592 37.4706 64.8819 37.4878 64.8218C37.505 64.7703 37.5307 64.7273 37.5479 64.693C37.5737 64.6586 37.608 64.6329 37.6424 64.6071C37.6853 64.5899 37.7283 64.5728 37.7798 64.5728C37.8313 64.5728 37.8828 64.5813 37.9258 64.6071C37.9601 64.6329 37.9945 64.6586 38.0117 64.693C38.0374 64.7273 38.0546 64.7617 38.0718 64.8046C38.089 64.8476 38.1061 64.8905 38.1319 64.9592L38.6558 66.2475C38.6987 66.3419 38.7159 66.4192 38.7159 66.4622C38.7159 66.5051 38.6987 66.5481 38.6558 66.591C38.6214 66.6339 38.5699 66.6511 38.5184 66.6511C38.484 66.6511 38.4583 66.6511 38.4325 66.6339C38.4067 66.6254 38.3896 66.6082 38.3724 66.5824C38.3552 66.5652 38.338 66.5309 38.3208 66.4965C38.3037 66.4536 38.2865 66.4192 38.2779 66.3935" fill="#047AB2"/>
<path d="M40.8801 64.9507H40.4421V66.4021C40.4421 66.488 40.4249 66.5481 40.382 66.591C40.3476 66.634 40.2961 66.6512 40.236 66.6512C40.1759 66.6512 40.1243 66.634 40.09 66.591C40.0556 66.5481 40.0299 66.488 40.0299 66.4021V64.9507H39.5919C39.5232 64.9507 39.4716 64.9335 39.4373 64.9077C39.4029 64.8734 39.3857 64.8304 39.3857 64.7875C39.3857 64.7446 39.4029 64.693 39.4373 64.6673C39.4716 64.6329 39.5232 64.6243 39.5919 64.6243H40.8801C40.9488 64.6243 41.0003 64.6415 41.0347 64.6673C41.069 64.7016 41.0862 64.736 41.0862 64.7875C41.0862 64.839 41.069 64.882 41.0347 64.9077C41.0003 64.9335 40.9488 64.9507 40.8801 64.9507Z" fill="#047AB2"/>
<path d="M43.4476 64.9249H42.5286V65.4144H43.3703C43.4304 65.4144 43.4819 65.4316 43.5077 65.4574C43.5421 65.4831 43.5507 65.5261 43.5507 65.569C43.5507 65.612 43.5335 65.6463 43.5077 65.6807C43.4734 65.7064 43.4304 65.7236 43.3703 65.7236H42.5286V66.299H43.4734C43.5335 66.299 43.585 66.3162 43.6194 66.342C43.6537 66.3677 43.6709 66.4107 43.6709 66.4622C43.6709 66.5051 43.6537 66.5481 43.6194 66.5739C43.585 66.6082 43.5421 66.6168 43.4734 66.6168H42.3741C42.2882 66.6168 42.2195 66.5996 42.1851 66.5567C42.1422 66.5137 42.125 66.4536 42.125 66.3677V64.8648C42.125 64.8047 42.125 64.7617 42.1508 64.7188C42.1679 64.6844 42.1937 64.6587 42.2281 64.6415C42.271 64.6243 42.3139 64.6157 42.3741 64.6157H43.4476C43.5163 64.6157 43.5592 64.6329 43.5936 64.6587C43.628 64.693 43.6451 64.7274 43.6451 64.7703C43.6451 64.8133 43.628 64.8562 43.5936 64.882C43.5592 64.9077 43.5163 64.9249 43.4476 64.9249Z" fill="#047AB2"/>
<path d="M45.1912 64.8218V66.2818H46.0157C46.0844 66.2818 46.1274 66.299 46.1703 66.3248C46.2047 66.3591 46.2218 66.3935 46.2218 66.445C46.2218 66.4965 46.2047 66.5309 46.1703 66.5652C46.136 66.591 46.0844 66.6082 46.0157 66.6082H45.0367C44.9508 66.6082 44.8907 66.591 44.8477 66.5481C44.8048 66.5051 44.7876 66.445 44.7876 66.3591V64.8218C44.7876 64.7445 44.8048 64.6758 44.8391 64.6329C44.8735 64.5899 44.925 64.5728 44.9851 64.5728C45.0452 64.5728 45.0968 64.5899 45.1311 64.6329C45.1655 64.6758 45.1912 64.7359 45.1912 64.8218Z" fill="#047AB2"/>
<path d="M47.3042 66.4021V64.8218C47.3042 64.7359 47.3214 64.6758 47.3643 64.6329C47.4073 64.5899 47.4502 64.5728 47.5103 64.5728C47.5704 64.5728 47.622 64.5899 47.6563 64.6329C47.6907 64.6758 47.7078 64.7359 47.7078 64.8218V66.4021C47.7078 66.4794 47.6907 66.5481 47.6563 66.591C47.6134 66.6339 47.5704 66.6511 47.5103 66.6511C47.4502 66.6511 47.4073 66.6339 47.3643 66.591C47.33 66.5481 47.3042 66.4879 47.3042 66.4021Z" fill="#047AB2"/>
<path d="M50.2673 64.9506H49.8207V66.402C49.8207 66.4879 49.8035 66.548 49.7692 66.591C49.7348 66.6339 49.6833 66.6511 49.6232 66.6511C49.5631 66.6511 49.5115 66.6339 49.4772 66.591C49.4428 66.548 49.4171 66.4879 49.4171 66.402V64.9506H48.9791C48.9104 64.9506 48.8588 64.9334 48.8245 64.9077C48.7901 64.8733 48.7729 64.8304 48.7729 64.7874C48.7729 64.7445 48.7901 64.693 48.8245 64.6672C48.8588 64.6329 48.9104 64.6243 48.9791 64.6243H50.2673C50.336 64.6243 50.3876 64.6414 50.4219 64.6672C50.4563 64.7016 50.4734 64.7359 50.4734 64.7874C50.4734 64.839 50.4563 64.8819 50.4219 64.9077C50.3876 64.9334 50.336 64.9506 50.2673 64.9506Z" fill="#047AB2"/>
<path d="M54.2947 64.9163H54.0199V65.5261H54.2947C54.3892 65.5261 54.475 65.5175 54.5352 65.4917C54.5953 65.4746 54.6468 65.4402 54.6812 65.3973C54.7155 65.3543 54.7327 65.2942 54.7327 65.2169C54.7327 65.131 54.7069 65.0537 54.6554 65.0022C54.5953 64.9421 54.475 64.9163 54.2947 64.9163ZM54.3892 65.8353H54.0199V66.4021C54.0199 66.4794 54.0027 66.5395 53.9683 66.5824C53.9254 66.6254 53.8824 66.6511 53.8223 66.6511C53.7622 66.6511 53.7107 66.634 53.6763 66.591C53.642 66.5481 53.6162 66.488 53.6162 66.4107V64.8648C53.6162 64.7789 53.6334 64.7102 53.6763 64.6758C53.7193 64.6415 53.7794 64.6157 53.8739 64.6157H54.3977C54.5523 64.6157 54.6726 64.6243 54.7499 64.6501C54.8272 64.6758 54.9045 64.7102 54.9646 64.7617C55.0247 64.8133 55.0676 64.882 55.102 64.9507C55.1363 65.028 55.1449 65.1138 55.1449 65.2083C55.1449 65.4144 55.0848 65.569 54.956 65.6721C54.8272 65.7751 54.6468 65.8267 54.3977 65.8267" fill="#047AB2"/>
<path d="M56.2959 66.4021V64.8218C56.2959 64.7359 56.3131 64.6758 56.356 64.6329C56.3904 64.5899 56.4419 64.5728 56.502 64.5728C56.5621 64.5728 56.6137 64.5899 56.648 64.6329C56.6824 64.6758 56.6995 64.7359 56.6995 64.8218V66.4021C56.6995 66.4794 56.6824 66.5481 56.648 66.591C56.6051 66.6339 56.5621 66.6511 56.502 66.6511C56.4419 66.6511 56.399 66.6339 56.356 66.591C56.3217 66.5481 56.2959 66.4879 56.2959 66.4021Z" fill="#047AB2"/>
<path d="M58.3573 64.8218V66.2818H59.1817C59.2419 66.2818 59.2934 66.299 59.3277 66.3248C59.3621 66.3591 59.3793 66.3935 59.3793 66.445C59.3793 66.4965 59.3621 66.5309 59.3277 66.5652C59.2934 66.591 59.2419 66.6082 59.1817 66.6082H58.2027C58.1168 66.6082 58.0481 66.591 58.0137 66.5481C57.9708 66.5051 57.9536 66.445 57.9536 66.3591V64.8218C57.9536 64.7445 57.9708 64.6758 58.0051 64.6329C58.0395 64.5899 58.091 64.5728 58.1511 64.5728C58.2113 64.5728 58.2628 64.5899 58.2971 64.6329C58.3315 64.6758 58.3573 64.7359 58.3573 64.8218Z" fill="#047AB2"/>
<path d="M60.4614 66.4021V64.8218C60.4614 64.7359 60.4786 64.6758 60.5215 64.6329C60.5559 64.5899 60.6074 64.5728 60.6675 64.5728C60.7277 64.5728 60.7792 64.5899 60.8135 64.6329C60.8479 64.6758 60.8651 64.7359 60.8651 64.8218V66.4021C60.8651 66.4794 60.8479 66.5481 60.8135 66.591C60.7706 66.6339 60.7277 66.6511 60.6675 66.6511C60.6074 66.6511 60.5645 66.6339 60.5215 66.591C60.4872 66.5481 60.4614 66.4879 60.4614 66.4021Z" fill="#047AB2"/>
<path d="M62.5311 64.8218V65.3972H63.4071V64.8218C63.4071 64.7445 63.4243 64.6758 63.4672 64.6329C63.5016 64.5899 63.5531 64.5728 63.6132 64.5728C63.6733 64.5728 63.7249 64.5899 63.7592 64.6329C63.7936 64.6758 63.8193 64.7359 63.8193 64.8218V66.4021C63.8193 66.4794 63.8022 66.5481 63.7592 66.591C63.7163 66.6339 63.6647 66.6511 63.6132 66.6511C63.5531 66.6511 63.5016 66.6339 63.4672 66.591C63.4329 66.5481 63.4071 66.4879 63.4071 66.4021V65.7322H62.5311V66.4021C62.5311 66.4794 62.5139 66.5481 62.471 66.591C62.428 66.6339 62.3851 66.6511 62.325 66.6511C62.2649 66.6511 62.2133 66.6339 62.179 66.591C62.1446 66.5481 62.1274 66.4879 62.1274 66.4021V64.8218C62.1274 64.7359 62.1446 64.6758 62.179 64.6329C62.2133 64.5899 62.2649 64.5728 62.325 64.5728C62.3851 64.5728 62.4366 64.5899 62.471 64.6329C62.5053 64.6758 62.5311 64.7359 62.5311 64.8218Z" fill="#047AB2"/>
<path d="M65.5283 65.8352H66.1295L65.8289 65.0108L65.5283 65.8352ZM66.327 66.3935L66.2326 66.1444H65.4167L65.3222 66.4021C65.2878 66.4965 65.2535 66.5738 65.2277 66.5996C65.202 66.6339 65.159 66.6511 65.0989 66.6511C65.0474 66.6511 65.0044 66.6339 64.9615 66.591C64.9185 66.5567 64.9014 66.5137 64.9014 66.4622C64.9014 66.4364 64.9014 66.4021 64.9185 66.3763C64.9185 66.3505 64.9443 66.3076 64.9615 66.2561L65.4768 64.9592C65.4768 64.9592 65.5111 64.8819 65.5283 64.8218C65.5455 64.7703 65.5713 64.7273 65.597 64.693C65.6228 64.6586 65.6571 64.6329 65.6915 64.6071C65.7344 64.5899 65.7774 64.5728 65.8289 64.5728C65.8804 64.5728 65.932 64.5813 65.9749 64.6071C66.0093 64.6329 66.0436 64.6586 66.0608 64.693C66.0866 64.7273 66.1037 64.7617 66.1209 64.8046C66.1381 64.8476 66.1553 64.8905 66.181 64.9592L66.7049 66.2475C66.7479 66.3419 66.765 66.4192 66.765 66.4622C66.765 66.5051 66.7479 66.5481 66.7049 66.591C66.6706 66.6339 66.619 66.6511 66.5675 66.6511C66.5331 66.6511 66.5074 66.6511 66.4816 66.6339C66.4558 66.6254 66.4387 66.6082 66.4215 66.5824C66.4043 66.5652 66.3871 66.5309 66.3786 66.4965C66.3614 66.4536 66.3442 66.4192 66.327 66.3935Z" fill="#047AB2"/>
<path d="M68.3971 64.8219L69.1787 66.007V64.8133C69.1787 64.736 69.1958 64.6759 69.2302 64.6415C69.2646 64.5986 69.3075 64.5814 69.3676 64.5814C69.4277 64.5814 69.4707 64.5986 69.505 64.6415C69.5394 64.6759 69.5566 64.736 69.5566 64.8133V66.3849C69.5566 66.5653 69.4793 66.6512 69.3418 66.6512C69.3075 66.6512 69.2731 66.6512 69.2474 66.634C69.2216 66.6254 69.1873 66.6082 69.1615 66.591C69.1357 66.5653 69.11 66.5395 69.0928 66.5052C69.0756 66.4794 69.0498 66.445 69.0241 66.4107L68.2597 65.2427V66.4107C68.2597 66.488 68.2425 66.5481 68.2082 66.5825C68.1738 66.6254 68.1309 66.6426 68.0708 66.6426C68.0107 66.6426 67.9677 66.6254 67.9334 66.5825C67.899 66.5481 67.8818 66.488 67.8818 66.4107V64.8648C67.8818 64.7961 67.8904 64.7446 67.9076 64.7102C67.9248 64.6673 67.9505 64.6329 67.9935 64.6071C68.0364 64.5814 68.0794 64.5642 68.1223 64.5642C68.1567 64.5642 68.191 64.5642 68.2168 64.5814C68.2425 64.5986 68.2683 64.6072 68.2855 64.6329C68.3027 64.6587 68.3284 64.6759 68.3456 64.7102C68.3628 64.7446 68.3885 64.7789 68.4057 64.8133" fill="#047AB2"/>
<path d="M74.1941 64.9506H73.7561V66.402C73.7561 66.4879 73.7389 66.548 73.696 66.591C73.6616 66.6339 73.6101 66.6511 73.55 66.6511C73.4898 66.6511 73.4383 66.6339 73.4039 66.591C73.3696 66.548 73.3438 66.4879 73.3438 66.402V64.9506H72.9058C72.8371 64.9506 72.7856 64.9334 72.7512 64.9077C72.7169 64.8733 72.6997 64.8304 72.6997 64.7874C72.6997 64.7445 72.7169 64.693 72.7512 64.6672C72.7856 64.6329 72.8371 64.6243 72.9058 64.6243H74.1941C74.2628 64.6243 74.3143 64.6414 74.3487 64.6672C74.383 64.7016 74.4002 64.7359 74.4002 64.7874C74.4002 64.839 74.383 64.8819 74.3487 64.9077C74.3143 64.9334 74.2628 64.9506 74.1941 64.9506Z" fill="#047AB2"/>
<path d="M76.7616 64.9249H75.8426V65.4144H76.6843C76.7444 65.4144 76.7959 65.4316 76.8217 65.4574C76.856 65.4831 76.8646 65.5261 76.8646 65.569C76.8646 65.612 76.8474 65.6463 76.8217 65.6807C76.7873 65.7064 76.7444 65.7236 76.6843 65.7236H75.8426V66.299H76.7873C76.8474 66.299 76.899 66.3162 76.9333 66.342C76.9677 66.3677 76.9849 66.4107 76.9849 66.4622C76.9849 66.5051 76.9677 66.5481 76.9333 66.5739C76.899 66.6082 76.856 66.6168 76.7873 66.6168H75.688C75.6021 66.6168 75.5334 66.5996 75.4991 66.5567C75.4561 66.5137 75.439 66.4536 75.439 66.3677V64.8648C75.439 64.8047 75.439 64.7617 75.4647 64.7188C75.4819 64.6844 75.5077 64.6587 75.5506 64.6415C75.585 64.6243 75.6365 64.6157 75.6966 64.6157H76.7702C76.8389 64.6157 76.8818 64.6329 76.9162 64.6587C76.9505 64.693 76.9677 64.7274 76.9677 64.7703C76.9677 64.8133 76.9505 64.8562 76.9162 64.882C76.8818 64.9077 76.8389 64.9249 76.7702 64.9249" fill="#047AB2"/>
<path d="M78.8829 64.9163H78.505V65.4659H78.8657C78.9602 65.4659 79.0461 65.4659 79.1148 65.4402C79.1835 65.423 79.235 65.3972 79.2694 65.3543C79.3037 65.3113 79.3209 65.2598 79.3209 65.1825C79.3209 65.1224 79.3037 65.0795 79.278 65.0365C79.2522 64.9936 79.2093 64.9592 79.1577 64.942C79.1062 64.9163 79.0203 64.9077 78.8743 64.9077M78.6424 65.7493H78.4964V66.3935C78.4964 66.4793 78.4792 66.5395 78.4363 66.5738C78.4019 66.6168 78.3504 66.6339 78.2903 66.6339C78.2302 66.6339 78.1787 66.6168 78.1443 66.5652C78.1099 66.5223 78.0928 66.4622 78.0928 66.3849V64.8476C78.0928 64.7617 78.1099 64.693 78.1529 64.6586C78.1958 64.6243 78.2559 64.5985 78.3418 64.5985H79.0031C79.089 64.5985 79.1749 64.5985 79.235 64.6071C79.2951 64.6157 79.3553 64.6329 79.4068 64.65C79.4669 64.6758 79.527 64.7187 79.57 64.7617C79.6215 64.8132 79.6558 64.8733 79.6816 64.9335C79.7074 65.0022 79.716 65.0709 79.716 65.1396C79.716 65.2856 79.673 65.4058 79.5871 65.5003C79.5013 65.5862 79.3724 65.6549 79.2007 65.6892C79.2694 65.7236 79.3381 65.7837 79.4068 65.861C79.4755 65.9383 79.527 66.0156 79.5785 66.1015C79.6301 66.1873 79.673 66.2646 79.6988 66.3333C79.7331 66.4021 79.7417 66.445 79.7417 66.4708C79.7417 66.4965 79.7331 66.5223 79.716 66.5481C79.6988 66.5738 79.673 66.591 79.6473 66.6082C79.6215 66.6254 79.5871 66.6339 79.5442 66.6339C79.5012 66.6339 79.4583 66.6254 79.4325 66.5996C79.3982 66.5738 79.3724 66.5481 79.3552 66.5137C79.3295 66.4793 79.3037 66.4364 79.2694 66.3677L79.1062 66.0929C79.0461 65.9984 78.9945 65.9211 78.9516 65.8696C78.9087 65.818 78.8571 65.7837 78.8142 65.7665C78.7627 65.7493 78.7111 65.7408 78.6338 65.7408" fill="#047AB2"/>
<path d="M81.3223 64.9164V65.4317H81.6916C81.7947 65.4317 81.872 65.4231 81.9235 65.4059C81.9836 65.3887 82.018 65.3458 82.0523 65.2942C82.0781 65.2513 82.0867 65.2169 82.0867 65.1654C82.0867 65.0624 82.0523 64.9937 81.9836 64.9679C81.9149 64.9335 81.8033 64.9164 81.6573 64.9164H81.3223ZM81.7431 65.7237H81.3223V66.3077H81.7603C82.0351 66.3077 82.1726 66.2132 82.1726 66.0071C82.1726 65.904 82.1382 65.8353 82.0695 65.7838C82.0008 65.7408 81.8977 65.7151 81.7517 65.7151M81.7861 66.6083H81.1763C81.0904 66.6083 81.0217 66.5911 80.9874 66.5481C80.953 66.5052 80.9272 66.4451 80.9272 66.3592V64.8562C80.9272 64.7704 80.9444 64.7016 80.9874 64.6673C81.0303 64.6244 81.0904 64.6072 81.1763 64.6072H81.829C81.9235 64.6072 82.0094 64.6072 82.0781 64.6244C82.1468 64.6415 82.2155 64.6587 82.267 64.6931C82.3186 64.7188 82.3615 64.7618 82.3958 64.7961C82.4302 64.8391 82.4646 64.8906 82.4817 64.9421C82.4989 64.9937 82.5075 65.0538 82.5075 65.1139C82.5075 65.3114 82.413 65.4574 82.2069 65.5519C82.4731 65.6378 82.602 65.801 82.602 66.0414C82.602 66.1531 82.5762 66.2561 82.5161 66.342C82.456 66.4279 82.3787 66.4966 82.2842 66.5395C82.2241 66.5653 82.1554 66.5825 82.0781 66.5911C82.0008 66.5997 81.9063 66.6083 81.8033 66.6083" fill="#047AB2"/>
<path d="M84.105 65.8352H84.7062L84.4056 65.0108L84.105 65.8352ZM84.9037 66.3935L84.8092 66.1444H83.9933L83.8989 66.4021C83.8645 66.4965 83.8301 66.5738 83.8044 66.5996C83.7786 66.6339 83.7357 66.6511 83.6756 66.6511C83.624 66.6511 83.5811 66.6339 83.5381 66.591C83.4952 66.5567 83.478 66.5137 83.478 66.4622C83.478 66.4364 83.478 66.4021 83.4952 66.3763C83.4952 66.3505 83.521 66.3076 83.5381 66.2561L84.0534 64.9592C84.0534 64.9592 84.0878 64.8819 84.105 64.8218C84.1222 64.7703 84.1479 64.7273 84.1737 64.693C84.1994 64.6586 84.2338 64.6329 84.2681 64.6071C84.3111 64.5899 84.354 64.5728 84.4056 64.5728C84.4571 64.5728 84.5086 64.5813 84.5516 64.6071C84.5859 64.6329 84.6203 64.6586 84.6374 64.693C84.6632 64.7273 84.6804 64.7617 84.6976 64.8046C84.7147 64.8476 84.7319 64.8905 84.7577 64.9592L85.2816 66.2475C85.3245 66.3419 85.3417 66.4192 85.3417 66.4622C85.3417 66.5051 85.3245 66.5481 85.2816 66.591C85.2472 66.6339 85.1957 66.6511 85.1442 66.6511C85.1098 66.6511 85.084 66.6511 85.0583 66.6339C85.0325 66.6254 85.0153 66.6082 84.9982 66.5824C84.981 66.5652 84.9638 66.5309 84.9466 66.4965C84.9294 66.4536 84.9123 66.4192 84.9037 66.3935Z" fill="#047AB2"/>
<path d="M86.458 66.4021V64.8218C86.458 64.7359 86.4752 64.6758 86.5181 64.6329C86.5525 64.5899 86.604 64.5728 86.6641 64.5728C86.7242 64.5728 86.7758 64.5899 86.8101 64.6329C86.8445 64.6758 86.8617 64.7359 86.8617 64.8218V66.4021C86.8617 66.4794 86.8445 66.5481 86.8101 66.591C86.7672 66.6339 86.7242 66.6511 86.6641 66.6511C86.604 66.6511 86.5611 66.6339 86.5181 66.591C86.4838 66.5481 86.458 66.4879 86.458 66.4021Z" fill="#047AB2"/>
<path d="M88.5281 64.8218V65.5261L89.3268 64.693C89.3268 64.693 89.3955 64.6243 89.4213 64.6071C89.447 64.5899 89.4814 64.5814 89.5243 64.5814C89.5844 64.5814 89.6274 64.5985 89.6703 64.6329C89.7047 64.6672 89.7218 64.7102 89.7218 64.7617C89.7218 64.8218 89.6875 64.882 89.6274 64.9421L89.1378 65.4058L89.7047 66.2217C89.7476 66.2818 89.7734 66.3248 89.7991 66.3677C89.8163 66.4107 89.8335 66.4536 89.8335 66.488C89.8335 66.5309 89.8163 66.5738 89.782 66.5996C89.7476 66.634 89.6961 66.6511 89.636 66.6511C89.5758 66.6511 89.5329 66.6426 89.4985 66.6168C89.4642 66.591 89.4298 66.5567 89.4127 66.5223C89.3869 66.4794 89.3611 66.445 89.344 66.4107L88.863 65.6721L88.5281 65.9898V66.4021C88.5281 66.488 88.5109 66.5481 88.4679 66.591C88.425 66.634 88.3821 66.6511 88.3219 66.6511C88.2876 66.6511 88.2532 66.6426 88.2189 66.6254C88.1845 66.6082 88.1588 66.5824 88.1502 66.5481C88.133 66.5223 88.133 66.488 88.1244 66.4622C88.1158 66.4364 88.1244 66.3849 88.1244 66.3162V64.8304C88.1244 64.7445 88.1416 64.6844 88.176 64.6415C88.2103 64.5985 88.2618 64.5814 88.3219 64.5814C88.3821 64.5814 88.4336 64.5985 88.4679 64.6415C88.5023 64.6844 88.5281 64.7445 88.5281 64.8304" fill="#047AB2"/>
<path d="M91.6712 66.3162L91.3449 65.0452V66.4279C91.3449 66.5052 91.3277 66.5653 91.2933 66.5996C91.259 66.6426 91.2075 66.6598 91.1559 66.6598C91.1044 66.6598 91.0615 66.6426 91.0271 66.5996C90.9928 66.5567 90.9756 66.5052 90.9756 66.4279V64.8476C90.9756 64.7617 91.0013 64.7016 91.0443 64.6673C91.0958 64.6329 91.1559 64.6243 91.2246 64.6243H91.3535C91.4308 64.6243 91.4823 64.6243 91.5166 64.6415C91.551 64.6587 91.5768 64.6759 91.5939 64.7188C91.6111 64.7532 91.6283 64.8133 91.6541 64.8906L91.9461 65.9899L92.2381 64.8906C92.2638 64.8133 92.281 64.7532 92.2982 64.7188C92.3154 64.6844 92.3411 64.6587 92.3755 64.6415C92.4098 64.6243 92.4614 64.6243 92.5387 64.6243H92.6675C92.7448 64.6243 92.8049 64.6415 92.8478 64.6673C92.8908 64.7016 92.9165 64.7532 92.9165 64.8476V66.4279C92.9165 66.5052 92.8994 66.5653 92.865 66.5996C92.8307 66.6426 92.7791 66.6598 92.7276 66.6598C92.6761 66.6598 92.6331 66.6426 92.5988 66.5996C92.5644 66.5653 92.5472 66.5052 92.5472 66.4279V65.0452L92.2295 66.3162C92.2123 66.3935 92.1951 66.4622 92.1779 66.4966C92.1608 66.5395 92.1436 66.5653 92.1092 66.5996C92.0749 66.6254 92.0234 66.6426 91.9632 66.6426C91.9117 66.6426 91.8774 66.634 91.843 66.6082C91.8086 66.5825 91.7829 66.5653 91.7657 66.5309C91.7485 66.4966 91.7314 66.4622 91.7228 66.4279C91.7142 66.3849 91.7056 66.3506 91.6884 66.3076" fill="#047AB2"/>
<path d="M94.1279 65.7837V64.8218C94.1279 64.7359 94.1451 64.6758 94.188 64.6329C94.2224 64.5899 94.2739 64.5728 94.334 64.5728C94.3942 64.5728 94.4457 64.5899 94.48 64.6329C94.5144 64.6758 94.5316 64.7359 94.5316 64.8218V65.8095C94.5316 65.9211 94.5488 66.0156 94.5745 66.0929C94.6003 66.1702 94.6432 66.2303 94.7033 66.2732C94.7721 66.3162 94.8579 66.3334 94.9696 66.3334C95.1242 66.3334 95.2358 66.2904 95.3045 66.2045C95.3732 66.1186 95.399 65.9898 95.399 65.8181V64.8218C95.399 64.7359 95.4162 64.6758 95.4591 64.6329C95.4935 64.5899 95.545 64.5728 95.6051 64.5728C95.6652 64.5728 95.7168 64.5899 95.7511 64.6329C95.7855 64.6758 95.8112 64.7359 95.8112 64.8218V65.7837C95.8112 65.9383 95.7941 66.0757 95.7683 66.1788C95.7339 66.2818 95.6738 66.3763 95.5965 66.4536C95.5278 66.5223 95.4419 66.5652 95.3389 66.5996C95.2444 66.6339 95.1328 66.6425 95.0039 66.6425C94.8493 66.6425 94.7205 66.6254 94.6089 66.591C94.4972 66.5567 94.4113 66.5051 94.334 66.4364C94.2653 66.3677 94.2138 66.2818 94.1795 66.1702C94.1451 66.0585 94.1279 65.9297 94.1279 65.7837Z" fill="#047AB2"/>
</g>
</g>
<rect x="1" y="1" width="110" height="110" rx="9" stroke="black" stroke-opacity="0.1" stroke-width="2"/>
<defs>
<clipPath id="clip0_755_393">
<rect x="2" y="2" width="108" height="108" rx="8" fill="white"/>
</clipPath>
<clipPath id="clip1_755_393">
<rect width="80" height="22.1063" fill="white" transform="translate(16 45)"/>
</clipPath>
</defs>
</svg>
