<svg width="112" height="112" viewBox="0 0 112 112" fill="none" xmlns="http://www.w3.org/2000/svg">
<g clip-path="url(#clip0_755_405)">
<rect x="2" y="2" width="108" height="108" rx="8" fill="white"/>
<path d="M62.7651 53.3047C62.8223 53.1141 62.8795 52.9235 62.9366 52.7139C63.394 51.1703 63.8514 49.6267 64.3087 48.0641L64.3659 47.8925C64.4231 47.721 64.5946 47.6067 64.7661 47.6067H66.2906C66.6717 47.6067 66.748 47.721 66.6146 48.0831L66.0238 49.6648C65.3568 51.399 64.6899 53.1522 64.0229 54.8864C64.0038 54.9436 63.9657 55.0007 63.9466 55.0579C63.8704 55.2675 63.6608 55.4009 63.4512 55.3819C63.0129 55.3628 62.5746 55.3628 62.1363 55.3819C61.8313 55.4009 61.6408 55.2485 61.5455 54.9626C61.2978 54.2956 61.031 53.6286 60.7832 52.9807C60.1925 51.4181 59.5636 49.8363 58.9728 48.2546C58.9157 48.1403 58.8776 47.9878 58.8395 47.8735C58.8013 47.6829 58.8776 47.5686 59.0872 47.5686C59.6589 47.5495 60.2306 47.5686 60.7832 47.5686C61.031 47.5686 61.1263 47.721 61.2025 47.9307C61.3168 48.3118 61.4312 48.6929 61.5455 49.0741C61.9647 50.4652 62.3649 51.8564 62.7651 53.2475C62.727 53.3047 62.727 53.3047 62.7651 53.3047Z" fill="#232F3E"/>
<path d="M69.8352 55.096C69.8162 55.2866 69.7209 55.3819 69.5303 55.4009C68.9967 55.42 68.4631 55.42 67.9105 55.4009C67.7199 55.4009 67.6246 55.3056 67.6056 55.1151C67.5865 55.0579 67.5865 54.9817 67.5865 54.9245V48.0069C67.6056 47.702 67.6818 47.6067 67.9867 47.6067H69.435C69.7399 47.6067 69.8352 47.702 69.8352 48.0069V55.096Z" fill="#232F3E"/>
<path d="M68.7299 44.005C68.9204 43.9859 69.1301 44.024 69.3206 44.1002C69.7018 44.2527 69.9876 44.6148 70.0067 45.034C70.0829 45.9488 69.4731 46.4061 68.6727 46.3871C68.5584 46.3871 68.444 46.368 68.3487 46.3489C67.7199 46.1965 67.415 45.7201 67.4721 45.034C67.5293 44.4814 67.9485 44.0812 68.5393 44.024C68.5774 44.005 68.6536 44.005 68.7299 44.005Z" fill="#232F3E"/>
<path d="M96 52.2184C96 52.1994 96 52.1994 96 52.2184V52.2184Z" fill="#232F3E"/>
<path d="M96 50.8845V50.9226C95.9619 50.8845 95.9428 50.8273 95.9619 50.7701V50.6939C95.9619 50.6939 95.9619 50.6748 95.9809 50.6748H95.9619V50.5796H95.9809C95.9809 50.5605 95.9619 50.5605 95.9619 50.5605C95.9428 50.3699 95.9047 50.1794 95.8475 50.0078C95.4855 48.6929 94.647 47.8163 93.294 47.4733C92.6651 47.3208 92.0172 47.3018 91.3883 47.3971C90.0353 47.6067 89.0634 48.3118 88.606 49.5886C88.1486 50.8082 88.1486 52.1422 88.6251 53.3618C89.0253 54.4671 89.8256 55.1722 90.969 55.4581C91.5788 55.6105 92.2268 55.6487 92.8556 55.5534C94.9519 55.3056 95.8285 53.7049 95.9619 52.3328H95.9428V52.1994C95.9238 52.1422 95.9238 52.085 95.9809 52.0469V52.066C95.9809 52.0469 96 52.0279 96 52.0279V50.8845ZM93.6179 52.7711C93.5607 52.9807 93.4655 53.1713 93.3321 53.3428C93.1034 53.6477 92.7604 53.8573 92.3792 53.8764C92.1887 53.8954 91.9981 53.8954 91.8075 53.8573C91.3883 53.7811 91.0453 53.4952 90.8737 53.1141C90.7213 52.8092 90.626 52.4662 90.6069 52.1232C90.5498 51.5324 90.5498 50.9416 90.6832 50.3699C90.7403 50.1412 90.8356 49.9126 90.95 49.7029C91.1786 49.3409 91.5407 49.1122 91.979 49.0741C92.1696 49.055 92.3602 49.055 92.5507 49.0931C92.9509 49.1694 93.2749 49.4361 93.4655 49.7982C93.637 50.1412 93.7322 50.5414 93.7513 50.9226C93.7704 51.0941 93.7704 51.2847 93.7704 51.4562C93.7704 51.9326 93.7322 52.3709 93.6179 52.7711Z" fill="#232F3E"/>
<path d="M78.487 44.0812H77.0958C76.7147 44.0812 76.6384 44.1574 76.6384 44.5385V47.7782C76.6384 47.8544 76.6766 47.9116 76.6194 47.9878C76.5241 47.9688 76.486 47.9116 76.4098 47.8735C75.3617 47.2637 74.2754 47.1493 73.1701 47.6639C72.4079 48.0259 71.9124 48.6739 71.6075 49.4361C71.3026 50.1794 71.2454 50.9607 71.2645 51.742C71.2645 52.4852 71.436 53.2094 71.7599 53.8764C72.1411 54.6005 72.6937 55.1722 73.4941 55.4009C74.5803 55.7439 75.6094 55.5724 76.5432 54.8864C76.6194 54.8483 76.6575 54.772 76.7337 54.753C76.7909 54.8673 76.829 54.9817 76.8481 55.096C76.8862 55.2485 77.0196 55.3628 77.1911 55.3628H77.4388C77.8009 55.3628 78.1439 55.3819 78.506 55.3628C78.7919 55.3628 78.8681 55.2675 78.8681 54.9817V44.4433C78.849 44.1384 78.7728 44.0812 78.487 44.0812ZM76.6384 51.4371V53.2666C76.6575 53.3809 76.5813 53.4952 76.486 53.5524C76.0096 53.8192 75.4569 53.9335 74.9233 53.8573C74.466 53.8001 74.0658 53.5334 73.8562 53.1141C73.7037 52.7901 73.6084 52.4471 73.5703 52.1041C73.4941 51.4752 73.5322 50.8273 73.6847 50.2175C73.7418 50.046 73.799 49.8935 73.8752 49.722C74.0849 49.3409 74.485 49.0741 74.9233 49.055C75.4569 48.9978 75.9905 49.1122 76.4669 49.3218C76.5813 49.3599 76.6575 49.4743 76.6384 49.6077C76.6384 50.2365 76.6384 50.8273 76.6384 51.4371Z" fill="#232F3E"/>
<path d="M84.5088 52.2184C85.0805 52.1803 85.6713 52.066 86.1858 51.7801C86.7194 51.5133 87.0815 51.0369 87.1958 50.4462C87.272 50.0841 87.272 49.7029 87.1768 49.3409C86.9671 48.4452 86.3954 47.8735 85.5379 47.5876C85.0615 47.4352 84.5469 47.378 84.0515 47.3971C82.3745 47.4352 81.0977 48.2927 80.5641 49.9697C80.2211 51.075 80.2592 52.2184 80.6022 53.3237C80.9452 54.4671 81.7456 55.1532 82.889 55.4581C83.3845 55.5724 83.8799 55.6296 84.3945 55.6105C85.1186 55.5915 85.8618 55.4581 86.5479 55.1913C86.8337 55.077 86.91 54.9817 86.91 54.6768V53.9526C86.8909 53.6668 86.7766 53.5715 86.4907 53.6286C86.262 53.6858 86.0524 53.743 85.8428 53.7811C85.1758 53.9335 84.4707 53.9717 83.7847 53.8573C83.0986 53.7239 82.6413 53.3428 82.4697 52.6567C82.4126 52.4662 82.3745 52.2566 82.3554 52.0469C82.4126 52.0469 82.4507 52.0469 82.4888 52.066C83.1748 52.2184 83.8418 52.2756 84.5088 52.2184ZM82.4316 50.6367C82.5079 50.2556 82.5841 49.8745 82.8318 49.5505C83.1939 49.055 83.7084 48.9216 84.2992 48.9788C84.3564 48.9788 84.3945 48.9978 84.4326 48.9978C85.1377 49.1122 85.3092 49.6648 85.1758 50.2175C85.0805 50.6177 84.7375 50.7701 84.3754 50.8463C84.1848 50.8845 83.9562 50.9035 83.7466 50.9035C83.3273 50.8845 82.9271 50.8654 82.5269 50.8082C82.4507 50.7511 82.4126 50.713 82.4316 50.6367Z" fill="#232F3E"/>
<path d="M55.6189 68.5882C55.0662 68.5501 54.5326 68.5311 53.98 68.4929C52.5126 68.3786 51.0643 68.169 49.6541 67.826C44.7375 66.6825 40.4307 64.3957 36.6765 61.0608C36.3335 60.7559 35.9905 60.4319 35.6474 60.108C35.5712 60.0317 35.495 59.9364 35.4569 59.8412C35.3997 59.7078 35.4188 59.5553 35.5331 59.441C35.6475 59.3266 35.7999 59.2885 35.9333 59.3457C36.0286 59.3838 36.1048 59.4219 36.2001 59.4791C39.7828 61.7087 43.7084 63.3285 47.8247 64.2814C49.1968 64.6054 50.5879 64.8531 51.9981 65.0246C53.999 65.2723 56.0381 65.3676 58.0581 65.2914C59.1444 65.2533 60.2306 65.158 61.3168 65.0246C63.8323 64.7006 66.3287 64.1289 68.7299 63.3285C70.0067 62.9093 71.2454 62.4329 72.4459 61.8612C72.6174 61.7659 72.8461 61.7278 73.0367 61.7849C73.3606 61.8612 73.5703 62.2042 73.494 62.5282C73.475 62.5663 73.4559 62.6234 73.4369 62.6616C73.3606 62.814 73.2463 62.9474 73.1129 63.0427C71.9695 63.9384 70.7308 64.7388 69.4159 65.3867C66.9385 66.6444 64.3087 67.521 61.5836 68.0356C60.021 68.3214 58.4393 68.4929 56.8576 68.5501V68.5882H55.6189ZM74.0276 58.8311C74.6946 58.8502 75.3425 58.8883 75.9714 59.0598C76.1429 59.117 76.3144 59.1742 76.486 59.2504C76.7146 59.3457 76.8671 59.5553 76.9052 59.803C76.9433 60.0889 76.9624 60.3747 76.9433 60.6606C76.8099 62.3757 76.2763 64.0146 75.3997 65.482C75.0757 66.0156 74.6946 66.492 74.2373 66.9112C74.142 67.0065 74.0467 67.0637 73.9133 67.1018C73.7227 67.159 73.6084 67.0446 73.5893 66.8541C73.6084 66.7588 73.6274 66.6444 73.6656 66.5491C74.0086 65.6154 74.3516 64.6816 74.6184 63.7097C74.7708 63.1761 74.8852 62.6425 74.9614 62.0899C74.9805 61.8993 74.9995 61.6897 74.9805 61.4991C74.9614 61.1561 74.7518 60.8702 74.4278 60.7749C74.1229 60.6797 73.799 60.6225 73.475 60.6034C72.5603 60.5653 71.6265 60.6034 70.7308 60.7178L69.5112 60.8702C69.3778 60.8893 69.2635 60.8702 69.1872 60.7559C69.111 60.6415 69.1491 60.5081 69.2253 60.3938C69.3016 60.2795 69.3969 60.1842 69.5303 60.108C70.2735 59.5744 71.0929 59.2504 71.9886 59.0408C72.6365 58.9264 73.3225 58.8502 74.0276 58.8311Z" fill="#00A8E1"/>
<path d="M23.6608 50.6558C23.6227 50.1412 23.4893 49.6267 23.2797 49.1503C22.8604 48.2927 22.2315 47.6639 21.2787 47.4352C20.1734 47.1874 19.1825 47.4352 18.2868 48.1022C18.2296 48.1593 18.1534 48.2165 18.0772 48.2546C18.0581 48.2356 18.0391 48.2356 18.0391 48.2165C18.001 48.1212 17.9819 48.0259 17.9628 47.9116C17.8866 47.6639 17.7913 47.5686 17.5055 47.5686C17.2006 47.5686 16.8957 47.5876 16.5908 47.5686C16.3621 47.5495 16.1525 47.5876 16 47.7591C16 51.2656 16 54.772 16.0191 58.2594C16.1525 58.4691 16.343 58.5072 16.5717 58.5072C16.9338 58.4881 17.2959 58.5072 17.6579 58.5072C18.2868 58.5072 18.2868 58.5072 18.2868 57.8783V55.0198C18.2868 54.9436 18.2487 54.8673 18.3249 54.8102C18.8204 55.1913 19.4302 55.439 20.0591 55.4962C20.9357 55.5915 21.7361 55.3628 22.403 54.772C22.8985 54.3147 23.2606 53.743 23.4512 53.0951C23.6989 52.3328 23.718 51.4943 23.6608 50.6558ZM50.7785 52.1232C51.5217 52.2566 52.303 52.2756 53.0462 52.1613C53.4845 52.1041 53.9038 51.9707 54.304 51.7611C54.7613 51.4943 55.0853 51.1322 55.2187 50.6367C55.5617 49.379 55.0281 48.1022 53.7132 47.6448C53.0653 47.4352 52.3983 47.359 51.7313 47.4542C50.1496 47.6257 49.1205 48.5024 48.6441 50.0078C48.3202 51.0369 48.3583 52.085 48.6251 53.1332C48.9681 54.4671 49.8637 55.2485 51.1787 55.5343C51.9409 55.7058 52.7032 55.6677 53.4655 55.5534C53.8657 55.4771 54.2658 55.3819 54.647 55.2294C54.8757 55.1341 54.99 55.0007 54.99 54.7339C54.9709 54.4862 54.99 54.2385 54.99 53.9907C54.99 53.6858 54.8757 53.6096 54.5707 53.6668C54.2849 53.743 53.999 53.8002 53.7132 53.8573C53.0843 53.9907 52.4555 53.9907 51.8266 53.8764C50.969 53.7049 50.4354 52.9807 50.4736 52.085C50.5879 52.1041 50.7022 52.1041 50.7785 52.1232ZM37.0195 55.4009H35.6856C35.3425 55.4009 35.2473 55.3056 35.2473 54.9626V48.0259C35.2473 47.9497 35.2663 47.8735 35.2854 47.7782C35.3235 47.6639 35.4378 47.5876 35.5712 47.5876H36.829C37.0005 47.5876 37.1148 47.702 37.172 47.8735C37.2292 48.0069 37.2482 48.1403 37.3054 48.2927C37.4007 48.2927 37.4578 48.2165 37.5341 48.1784C38.0867 47.8354 38.6584 47.5495 39.3063 47.4352C39.8018 47.3399 40.2973 47.3399 40.8118 47.4352C41.2882 47.5305 41.7075 47.8163 41.9743 48.2165C41.9933 48.2546 42.0124 48.2737 42.0314 48.2927C42.0124 48.3118 42.0314 48.3118 42.0505 48.3309C42.2982 48.1784 42.565 48.0259 42.8318 47.8735C43.5369 47.5114 44.3183 47.3399 45.0996 47.378C45.6713 47.4161 46.1858 47.5686 46.586 47.9878C46.9671 48.369 47.1005 48.8644 47.1386 49.379C47.1577 49.4933 47.1577 49.6077 47.1577 49.722V54.9054C47.1577 55.3628 47.1005 55.42 46.6432 55.42H45.4235C45.3473 55.42 45.2711 55.42 45.1758 55.4009C45.0615 55.3819 44.9471 55.2866 44.9281 55.1722C44.909 55.0579 44.909 54.9436 44.909 54.8483V50.2175C44.9281 50.0269 44.8899 49.8554 44.8518 49.6648C44.7756 49.3599 44.4898 49.1312 44.1658 49.1122C43.575 49.0741 42.9843 49.1884 42.4507 49.4361C42.3745 49.4552 42.3173 49.5314 42.3364 49.6077V54.8673C42.3364 54.9626 42.3364 55.0579 42.3173 55.1532C42.3173 55.2866 42.203 55.4009 42.0696 55.4009C41.9171 55.42 41.7647 55.42 41.6122 55.42H40.545C40.1829 55.42 40.0877 55.3247 40.0877 54.9626V50.2175C40.0877 50.046 40.0686 49.8745 40.0305 49.7029C39.9543 49.3599 39.6684 49.1312 39.3254 49.1122C38.7346 49.0741 38.1058 49.1884 37.5722 49.4552C37.496 49.4743 37.4388 49.5695 37.4578 49.6458V54.9817C37.4769 55.3247 37.4007 55.4009 37.0195 55.4009ZM26.9004 55.4009H25.6046C25.5283 55.4009 25.4521 55.4009 25.3759 55.3819C25.2425 55.3628 25.1472 55.2675 25.1282 55.1341C25.1091 55.0579 25.1091 54.9817 25.1091 54.8864V48.0831C25.1091 47.6258 25.1663 47.5686 25.6236 47.5686H26.5765C26.8433 47.5686 26.9576 47.6639 27.0338 47.9116C27.1101 48.1593 27.1672 48.4071 27.2244 48.6739C27.3006 48.6548 27.3578 48.6167 27.3959 48.5595C27.5674 48.388 27.758 48.2165 27.9676 48.045C28.4821 47.6448 29.1301 47.4542 29.797 47.4924C30.0638 47.5114 30.1401 47.5876 30.1591 47.8354C30.1782 48.1784 30.1782 48.5214 30.1782 48.8644C30.1972 48.9978 30.1782 49.1312 30.1591 49.2837C30.121 49.4552 30.0448 49.5314 29.8733 49.5505C29.7399 49.5695 29.6065 49.5505 29.454 49.5314C28.787 49.4743 28.1391 49.6077 27.5102 49.8173C27.3768 49.8745 27.3768 49.9697 27.3768 50.0841V54.8864C27.3768 54.9817 27.3768 55.0579 27.3578 55.1532C27.3387 55.2866 27.2434 55.3819 27.1101 55.3819C27.0529 55.4009 26.9767 55.4009 26.9004 55.4009ZM32.9414 55.3819H31.5503C31.4931 55.3819 31.455 55.3819 31.4169 55.3628C31.2835 55.3438 31.1501 55.2485 31.1501 55.096C31.131 55.0198 31.131 54.9436 31.131 54.8483C31.1501 53.743 31.1501 52.5996 31.1501 51.4562V47.9307C31.1691 47.6829 31.2454 47.6067 31.4931 47.5876C32.0076 47.5686 32.5412 47.5686 33.0557 47.5876C33.2844 47.5876 33.3606 47.6639 33.3797 47.8925C33.3988 47.9878 33.3988 48.0641 33.3988 48.1593V54.8292C33.3988 54.9436 33.3797 55.0579 33.3797 55.1532C33.3606 55.2866 33.2654 55.3819 33.132 55.3819C33.0557 55.3819 32.9986 55.3819 32.9414 55.3819ZM21.2596 52.733C21.1834 53.0379 21.031 53.3237 20.8023 53.5334C20.5355 53.762 20.2306 53.8764 19.8876 53.8764C19.373 53.9145 18.8776 53.8002 18.4202 53.5524C18.3059 53.4952 18.2487 53.4 18.2487 53.2666V51.4562C18.2487 50.8654 18.2677 50.2556 18.2487 49.6648C18.2296 49.5314 18.3249 49.398 18.4583 49.3599C19.011 49.0931 19.5827 48.9788 20.1734 49.0931C20.5927 49.1503 20.9547 49.4171 21.1263 49.8173C21.2787 50.1412 21.374 50.4843 21.393 50.8463C21.4502 51.4752 21.4502 52.1232 21.2596 52.733ZM50.5307 50.5986C50.5688 50.3509 50.626 50.1222 50.7213 49.9126C51.0262 49.1884 51.6551 48.9407 52.2839 48.9788C52.4555 48.9978 52.646 49.036 52.8175 49.0931C53.0843 49.2075 53.2558 49.4361 53.2749 49.722C53.313 49.8935 53.2939 50.065 53.2368 50.2365C53.1224 50.5986 52.8175 50.7511 52.4745 50.8082C52.2649 50.8654 52.0362 50.8845 51.8266 50.8654C51.4454 50.8654 51.0453 50.8273 50.6451 50.7701C50.5117 50.7511 50.5117 50.7511 50.5307 50.5986ZM32.2935 44.005C32.4459 43.9859 32.6174 44.024 32.7699 44.0812C33.3035 44.2527 33.5893 44.7291 33.5322 45.3389C33.494 45.8535 33.0939 46.2727 32.5793 46.368C32.3506 46.4061 32.122 46.4061 31.9123 46.368C31.3406 46.2537 30.9214 45.8344 30.9595 45.1103C31.0357 44.4052 31.4931 44.005 32.2935 44.005Z" fill="#00A8E1"/>
</g>
<rect x="1" y="1" width="110" height="110" rx="9" stroke="black" stroke-opacity="0.1" stroke-width="2"/>
<defs>
<clipPath id="clip0_755_405">
<rect x="2" y="2" width="108" height="108" rx="8" fill="white"/>
</clipPath>
</defs>
</svg>
