<svg width="112" height="112" viewBox="0 0 112 112" fill="none" xmlns="http://www.w3.org/2000/svg">
<g clip-path="url(#clip0_755_394)">
<rect x="2" y="2" width="108" height="108" rx="8" fill="white"/>
<path d="M16.5645 56.0634C16.5645 62.5537 21.926 67.9153 28.4163 67.9153C34.9066 67.9153 40.2682 62.5537 40.2682 56.0634C40.2682 49.5731 34.9066 44.2821 28.4163 44.2821C21.926 44.2821 16.5645 49.5731 16.5645 56.0634ZM32.7902 61.5661C30.0389 59.8729 26.5115 59.4497 22.4198 60.3668C21.4322 60.5079 21.2911 59.0969 22.1376 58.9558C26.6526 57.8976 30.4622 58.3915 33.5662 60.2962C34.3422 60.79 33.5662 61.9893 32.7902 61.5661ZM33.9895 58.3915C30.8149 56.4161 25.9472 55.8518 22.2082 56.9805C21.0089 57.3333 20.5856 55.499 21.7144 55.2168C26.0177 53.947 31.3087 54.5819 34.9772 56.8394C35.9648 57.4743 34.9772 59.0264 33.9895 58.3915ZM21.6438 53.3826C20.4445 53.8059 19.6685 51.7601 21.0089 51.2662C25.1712 49.9964 32.2258 50.208 36.5997 52.8183C37.799 53.4532 36.6703 55.4285 35.4004 54.723C31.5909 52.4655 25.2417 52.2539 21.6438 53.3826ZM48.381 59.8024C47.1817 59.8024 46.053 59.3791 45.0653 58.3915C44.9948 58.3915 44.9948 58.462 44.9948 58.462L43.866 59.8024C43.7955 59.8729 43.7955 59.9435 43.866 60.014C45.1359 61.1428 46.6879 61.7071 48.381 61.7071C50.7796 61.7071 52.2611 60.3668 52.2611 58.3915C52.2611 56.6983 51.2029 55.7812 48.7338 55.1463C46.6879 54.6525 46.3352 54.2997 46.3352 53.5943C46.3352 52.8888 47.0406 52.4655 47.9578 52.4655C48.8749 52.4655 49.7214 52.8183 50.7091 53.5237C50.7091 53.5237 50.7796 53.5943 50.8502 53.5943C50.9207 53.5943 50.9207 53.5237 50.9207 53.5237L51.9084 52.1128C51.9789 52.0422 51.9789 52.0422 51.9084 51.9717C50.7796 51.0546 49.4392 50.5608 47.9578 50.5608C45.7708 50.5608 44.2188 51.9012 44.2188 53.8059C44.2188 55.8518 45.6297 56.4867 47.8872 57.0511C49.8625 57.4743 50.1447 57.8976 50.1447 58.6031C50.1447 59.3791 49.4392 59.8024 48.381 59.8024ZM55.083 54.3703V53.4532C55.083 53.3826 55.0124 53.3121 54.9419 53.3121H53.1077C53.0371 53.3121 52.9666 53.3826 52.9666 53.4532V63.8236C52.9666 63.8941 53.0371 63.9646 53.1077 63.9646H54.9419C55.0124 63.9646 55.083 63.8941 55.083 63.8236V60.5784C55.7884 61.3544 56.5645 61.7071 57.6227 61.7071C59.5274 61.7071 61.4322 60.2257 61.4322 57.4038C61.4322 54.5819 59.5274 53.171 57.6227 53.171C56.5645 53.171 55.7884 53.5237 55.083 54.3703ZM57.1994 59.8729C55.9295 59.8729 55.0124 58.8147 55.0124 57.4038C55.0124 55.9929 55.9295 55.0052 57.1994 55.0052C58.4692 55.0052 59.3158 55.9929 59.3158 57.4038C59.3158 58.8147 58.4692 59.8729 57.1994 59.8729ZM61.9966 57.4743C61.9966 59.8729 63.9013 61.7071 66.3704 61.7071C68.8396 61.7071 70.7443 59.8024 70.7443 57.4038C70.7443 55.0052 68.9101 53.171 66.441 53.171C63.9719 53.171 61.9966 55.0758 61.9966 57.4743ZM64.113 57.4038C64.113 55.9929 65.0301 55.0052 66.3704 55.0052C67.7108 55.0052 68.6985 56.0634 68.6985 57.4743C68.6985 58.8853 67.7814 59.8729 66.441 59.8729C65.1006 59.8729 64.113 58.8147 64.113 57.4038ZM73.9895 53.3121V51.2662C73.9895 51.1957 73.9895 51.1251 73.919 51.1251H72.0847C72.0142 51.1251 71.9436 51.1957 71.9436 51.2662V53.3121H71.0265C70.956 53.3121 70.8854 53.3826 70.8854 53.4532V55.0052C70.8854 55.0758 70.956 55.1463 71.0265 55.1463H71.9436V59.238C71.9436 60.8606 72.7197 61.7071 74.3422 61.7071C74.9772 61.7071 75.6121 61.5661 76.1059 61.2839C76.1764 61.2839 76.1764 61.2133 76.1764 61.1428V59.6613C76.1764 59.5907 76.1764 59.5202 76.1059 59.5202H75.9648C75.6121 59.7318 75.1888 59.8024 74.8361 59.8024C74.2717 59.8024 73.9895 59.5202 73.9895 58.9558V55.1463H76.1059C76.1764 55.1463 76.247 55.0758 76.247 55.0052V53.4532C76.247 53.3826 76.1764 53.3121 76.1059 53.3121H73.9895ZM83.09 53.1004C83.09 52.3244 83.3722 52.0422 84.0071 52.0422C84.3599 52.0422 84.7126 52.0422 85.0653 52.1833H85.1359C85.1359 52.1833 85.2064 52.1128 85.2064 52.0422V50.5608C85.2064 50.4902 85.2064 50.4197 85.1359 50.4197C84.7831 50.2786 84.2893 50.208 83.5839 50.208C81.8907 50.208 81.0442 51.1957 81.0442 52.9594V53.3121H80.1271C80.0565 53.3121 79.986 53.3826 79.986 53.4532V55.0052C79.986 55.0758 80.0565 55.1463 80.1271 55.1463H81.0442V61.425C81.0442 61.4955 81.1147 61.5661 81.1853 61.5661H83.0195C83.09 61.5661 83.09 61.4955 83.09 61.425V55.1463H84.8537L87.4639 61.425C87.1817 62.0599 86.8996 62.201 86.4763 62.201C86.1235 62.201 85.7708 62.1304 85.4181 61.9188H85.3475L85.277 61.9893L84.6421 63.3297C84.6421 63.4003 84.6421 63.5414 84.7126 63.5414C85.3475 63.8941 85.9119 64.0352 86.6174 64.0352C87.9577 64.0352 88.7338 63.4003 89.3687 61.7071L92.5433 53.5237V53.3826C92.5433 53.3121 92.4727 53.3121 92.4022 53.3121H90.4974C90.4269 53.3121 90.4269 53.3826 90.4269 53.4532L88.4516 58.9558L86.3352 53.4532C86.3352 53.3826 86.2646 53.3121 86.1941 53.3121H83.09V53.1004ZM77.2346 53.3121C77.1641 53.3121 77.0936 53.3826 77.0936 53.4532V61.425C77.0936 61.4955 77.1641 61.5661 77.2346 61.5661H79.0689C79.1394 61.5661 79.1394 61.4955 79.1394 61.425V53.4532C79.1394 53.3826 79.1394 53.3121 79.0689 53.3121H77.2346ZM76.8114 50.984C76.8114 51.6895 77.4463 52.3244 78.1518 52.3244C78.8572 52.3244 79.4216 51.6895 79.4216 50.984C79.4216 50.2786 78.8572 49.7142 78.1518 49.7142C77.4463 49.7142 76.8114 50.2786 76.8114 50.984ZM94.0953 55.8518C94.8008 55.8518 95.4357 55.2874 95.4357 54.5819C95.4357 53.8765 94.8008 53.3121 94.0953 53.3121C93.3899 53.3121 92.8255 53.8765 92.8255 54.5819C92.8255 55.2874 93.3899 55.8518 94.0953 55.8518ZM94.0953 53.4532C94.7302 53.4532 95.2946 53.947 95.2946 54.5819C95.2946 55.2168 94.7302 55.7107 94.0953 55.7107C93.4604 55.7107 92.9666 55.2168 92.9666 54.5819C92.9666 53.947 93.4604 53.4532 94.0953 53.4532ZM94.3775 54.723C94.5891 54.6525 94.7302 54.5114 94.7302 54.2997C94.7302 54.0176 94.4481 53.8765 94.1659 53.8765H93.6015V55.2168H93.8837V54.7936H94.1659L94.4481 55.2168H94.8008L94.3775 54.723ZM94.1659 54.0881C94.307 54.0881 94.4481 54.1586 94.4481 54.2997C94.4481 54.4408 94.307 54.5114 94.1659 54.5114H93.8837V54.0881H94.1659Z" fill="black"/>
</g>
<rect x="1" y="1" width="110" height="110" rx="9" stroke="black" stroke-opacity="0.1" stroke-width="2"/>
<defs>
<clipPath id="clip0_755_394">
<rect x="2" y="2" width="108" height="108" rx="8" fill="white"/>
</clipPath>
</defs>
</svg>
