<svg width="112" height="112" viewBox="0 0 112 112" fill="none" xmlns="http://www.w3.org/2000/svg">
<g clip-path="url(#clip0_755_390)">
<rect x="2" y="2" width="108" height="108" rx="8" fill="white"/>
<path d="M35.1255 52.0858L39.8084 60.1512H36.6865L35.1255 57.4627L33.5662 60.1512H30.4427L35.1255 52.0858Z" fill="#132235"/>
<path d="M16 52.3255V54.3804H18.078V60.1502H20.5231V54.3804H22.6225V52.3255H16Z" fill="#132235"/>
<path d="M53.4675 56.0622C53.018 55.6774 52.3923 55.4302 51.6464 55.2435C51.4438 55.1928 51.2413 55.1289 51.0487 55.0454C50.8873 54.9767 50.7062 54.8997 50.6025 54.754C50.5382 54.6607 50.5432 54.546 50.5959 54.4511C50.6551 54.3381 50.7622 54.2874 50.884 54.2562C51.0125 54.2251 51.1886 54.2317 51.3204 54.2562C51.4669 54.2857 51.6102 54.3299 51.7501 54.3823C52.0728 54.5068 52.3758 54.6819 52.6623 54.8784L52.9027 55.0471L54.0602 53.3803L53.8445 53.2117C53.0591 52.5813 52.0844 52.2276 50.9631 52.2276H50.9565C50.1562 52.2276 49.4482 52.4601 48.9345 52.8957C48.4241 53.3263 48.1161 53.9583 48.1161 54.6918V54.7458C48.1161 55.5366 48.4076 56.0835 48.89 56.4584C49.3708 56.8301 50.0212 57.0413 50.7523 57.2197C50.9466 57.2656 51.1491 57.3098 51.3319 57.3999C51.5064 57.4834 51.7287 57.6405 51.7287 57.8616V57.8747C51.7254 57.9827 51.6892 58.0597 51.5789 58.1317C51.4669 58.2038 51.271 58.2643 50.9696 58.2643C50.4559 58.2643 49.8829 57.9631 49.2506 57.4522L49.0267 57.2656L47.7127 58.8325L47.9235 59.024C48.8538 59.8492 50.0377 60.2553 51.2084 60.2553C52.0416 60.2553 52.7792 60.0441 53.3193 59.6086C53.8594 59.1763 54.1739 58.5165 54.1739 57.724V57.6798C54.1755 56.9758 53.9153 56.4437 53.4675 56.0622Z" fill="#132235"/>
<path d="M44.6083 52.3287V55.8472L41.9145 52.3287H39.9995V60.15H42.443V56.489L45.2504 60.15H47.0534V52.3287H44.6083Z" fill="#132235"/>
<path d="M25.9341 54.3497H26.7442C27.0949 54.3596 27.3369 54.4283 27.4802 54.5429C27.6234 54.6575 27.7074 54.8311 27.7074 55.1094C27.6992 55.3436 27.6284 55.5106 27.4868 55.6317C27.3452 55.7545 27.1147 55.8348 26.7705 55.8413H25.9341V54.3497ZM30.2645 60.1507L28.8666 57.3165C29.4478 56.9907 29.8924 56.4586 30.062 55.8004C30.1246 55.5581 30.1526 55.2961 30.1526 55.0472V55.003C30.1526 54.2613 29.9089 53.6113 29.4429 53.1496C28.8962 52.6027 28.0911 52.326 27.1114 52.326H23.4889V60.1507H25.9341V57.8339H26.2782C26.3276 57.8339 26.377 57.8323 26.4264 57.8306L27.5494 60.1507H30.2645Z" fill="#132235"/>
<path d="M61.1333 57.697L59.5625 60.4379L54.8297 52.2404C57.9105 52.213 57.9097 52.201 58.7934 53.6515L61.1333 57.697Z" fill="url(#paint0_linear_755_390)"/>
<path d="M63.2768 52.2338C61.201 52.2329 61.105 52.3823 60.3317 53.6515L59.5426 55.016H62.693L64.2955 52.2405C63.9104 52.2371 63.5734 52.2339 63.2768 52.2338Z" fill="#1E6DEE"/>
<path d="M67.0151 52.2639L64.9773 52.2638V60.2211L67.0151 60.2212V52.2639Z" fill="#1E6DEE"/>
<path d="M73.6678 52.7082C72.979 52.3065 72.0229 52.0528 71.2416 52.0528C69.6893 52.0528 68.5687 53.1099 68.5687 54.7274C68.5687 56.2709 69.4014 56.6091 70.6659 56.9792C71.0977 57.106 71.8893 57.3069 71.8893 57.8883C71.8893 58.4486 71.3855 58.6918 70.9126 58.6918C70.2239 58.6918 69.6276 58.3217 69.1239 57.8672L68.2603 59.5375C69.0519 60.1084 70.008 60.4466 70.9846 60.4466C71.7659 60.4466 72.578 60.2246 73.1846 59.6961C73.8014 59.1569 73.9865 58.3429 73.9865 57.55C73.9865 56.2603 73.1537 55.7 72.0743 55.3723L71.5603 55.2137C71.2108 55.0974 70.6659 54.9177 70.6659 54.4525C70.6659 54.0085 71.1594 53.7865 71.5295 53.7865C72.0229 53.7865 72.4958 53.9979 72.8659 54.3151L73.6678 52.7082Z" fill="#1E6DEE"/>
<path d="M82.7553 52C80.5462 52 78.5101 53.6701 78.5101 56.0501C78.5101 58.597 80.2917 60.3924 82.7553 60.3924C85.2189 60.3924 87.0005 58.597 87.0005 56.0501C87.0005 53.6701 84.9644 52 82.7553 52ZM82.7553 53.9833C83.9464 53.9833 84.9237 54.9749 84.9237 56.0605C84.9237 57.4175 83.9464 58.4091 82.7553 58.4091C81.5642 58.4091 80.5869 57.4175 80.5869 56.0605C80.5869 54.9749 81.5642 53.9833 82.7553 53.9833Z" fill="#1E6DEE"/>
<path d="M88.2991 60.2136H90.3036V55.3425H90.3241L93.9955 60.2136H96V52.2638H93.9955V57.1243H93.9751L90.3036 52.2638H88.2991L88.2991 60.2136Z" fill="#1E6DEE"/>
<path d="M77.237 52.2639L75.1993 52.2638V60.2211L77.237 60.2212V52.2639Z" fill="#1E6DEE"/>
</g>
<rect x="1" y="1" width="110" height="110" rx="9" stroke="black" stroke-opacity="0.1" stroke-width="2"/>
<defs>
<linearGradient id="paint0_linear_755_390" x1="43.6643" y1="51.7432" x2="43.7998" y2="57.3428" gradientUnits="userSpaceOnUse">
<stop stop-color="#D60992"/>
<stop offset="1" stop-color="#1E6DEE"/>
</linearGradient>
<clipPath id="clip0_755_390">
<rect x="2" y="2" width="108" height="108" rx="8" fill="white"/>
</clipPath>
</defs>
</svg>
