<svg width="112" height="112" viewBox="0 0 112 112" fill="none" xmlns="http://www.w3.org/2000/svg">
<g clip-path="url(#clip0_755_386)">
<rect x="2" y="2" width="108" height="108" rx="8" fill="white"/>
<path fill-rule="evenodd" clip-rule="evenodd" d="M59.5116 60.6121C58.9818 59.4012 58.6282 58.5908 57.8719 56.853C57.739 56.5477 57.5693 56.1588 57.4947 55.9887C57.4201 55.8187 57.0283 54.9207 56.6238 53.9932C56.2194 53.0657 55.7631 52.0203 55.6098 51.67C55.4565 51.3197 55.3286 51.0098 55.3286 51.0004C55.9775 50.9993 56.5211 51.0008 57.1346 51.0004L57.3882 51.6042C57.5248 51.9295 57.8332 52.6498 58.0701 53.2063C58.307 53.7628 58.6619 54.5975 58.8587 55.0612C59.0556 55.525 59.3783 56.2838 59.5758 56.7476C59.7734 57.2113 59.9565 57.6413 59.9827 57.7032L60.0305 57.8156L60.0869 57.6891C60.1494 57.5492 60.8735 55.8528 61.1066 55.3001C61.1881 55.1069 61.5162 54.3354 61.8356 53.5857C62.155 52.836 62.5327 51.9476 62.6749 51.6115L62.9336 51.0005L63.84 51.0002C64.3385 51.0001 64.7464 51.0049 64.7464 51.0109C64.7464 51.0169 64.7093 51.1022 64.664 51.2006C64.5903 51.3605 64.2751 52.0816 63.1667 54.6256C62.9815 55.0507 62.7606 55.5566 62.6759 55.7498C62.3622 56.4657 62.2592 56.7014 61.4909 58.462C61.0593 59.4514 60.5576 60.6023 60.3761 61.0197C60.1946 61.437 60.042 61.783 60.037 61.7886C59.8289 61.3746 59.6642 60.9609 59.5116 60.6121Z" fill="#D60D8C"/>
<path fill-rule="evenodd" clip-rule="evenodd" d="M76.0641 60.4533C76.0536 60.4427 76.0449 58.6339 76.0449 56.4337V52.4334H77.7034L77.6891 60.4575L76.8862 60.465C76.4446 60.4691 76.0746 60.4638 76.0641 60.4533Z" fill="#D60D8C"/>
<path fill-rule="evenodd" clip-rule="evenodd" d="M65.412 60.4533C65.4015 60.4427 65.3929 58.6339 65.3929 56.4337V52.4334H67.0513L67.037 60.4575L66.2341 60.465C65.7925 60.4691 65.4226 60.4638 65.412 60.4533Z" fill="#D60D8C"/>
<path fill-rule="evenodd" clip-rule="evenodd" d="M95.8033 60.4764C95.7028 60.3869 95.1716 59.9157 94.6228 59.4293C93.5349 58.4649 91.0378 56.2502 90.6754 55.9282L90.4491 55.7271L90.4347 60.4716H89.619C88.9922 60.4716 88.8001 60.4635 88.7898 60.4365C88.7825 60.4171 88.7797 58.5634 88.7837 56.3171L88.7909 52.2328L91.5829 54.6237C93.1185 55.9387 94.3832 57.0146 94.3935 57.0146C94.4037 57.0146 94.4087 55.9838 94.4047 54.724L94.3973 52.4334H96V56.5368C96 58.7937 95.9968 60.64 95.993 60.6397C95.9891 60.6394 95.9037 60.5659 95.8033 60.4764Z" fill="#D60D8C"/>
<path fill-rule="evenodd" clip-rule="evenodd" d="M82.5514 60.5971C81.6451 60.4298 80.9008 60.0486 80.3029 59.4453C79.4868 58.6217 79.0649 57.4865 79.1175 56.2557C79.1381 55.7758 79.1948 55.4587 79.336 55.0339C79.5479 54.3969 79.8438 53.9171 80.3164 53.4445C80.9227 52.838 81.5416 52.5072 82.4249 52.3173C82.8256 52.2312 83.6457 52.2241 84.0691 52.3031C84.6679 52.4148 85.217 52.6399 85.7133 52.9773C85.9842 53.1614 86.5307 53.7078 86.7154 53.9792C87.025 54.4341 87.2498 54.97 87.3757 55.5531C87.431 55.8096 87.4392 55.9273 87.4383 56.4525C87.4373 56.9661 87.428 57.0985 87.376 57.3348C87.1842 58.2077 86.8268 58.8794 86.244 59.4623C85.9545 59.7519 85.5207 60.0627 85.1725 60.23C84.9292 60.3469 84.46 60.5059 84.1675 60.5705C83.866 60.6371 82.8581 60.6536 82.5514 60.5971ZM83.8343 59.0523C84.9315 58.8295 85.7124 57.8592 85.7869 56.626C85.8838 55.02 84.7998 53.7848 83.2917 53.7828C82.2927 53.7814 81.4781 54.2925 81.0491 55.1897C80.6401 56.0454 80.7039 57.2061 81.203 57.9875C81.5993 58.6078 82.2325 59.0015 82.9835 59.0947C83.2078 59.1226 83.5793 59.104 83.8343 59.0523Z" fill="#D60D8C"/>
<path fill-rule="evenodd" clip-rule="evenodd" d="M71.2266 60.6099C70.2217 60.5142 69.1782 60.0791 68.4002 59.4313L68.2816 59.3325L68.7976 58.7094C69.0814 58.3666 69.3263 58.0859 69.3417 58.0855C69.3572 58.0851 69.4925 58.176 69.6423 58.2875C70.318 58.7899 71.0238 59.0424 71.7554 59.0434C72.3214 59.0442 72.6831 58.8982 72.859 58.5982C72.9219 58.4907 72.9345 58.4358 72.9344 58.2689C72.9341 58.0328 72.8942 57.9406 72.726 57.7886C72.5117 57.595 72.1824 57.4663 71.2854 57.2256C69.862 56.8435 69.3049 56.5497 68.9349 55.9859C68.7639 55.7254 68.6634 55.4157 68.6251 55.0309C68.574 54.5187 68.6497 54.0679 68.857 53.6487C69.419 52.5119 70.8905 52.0174 72.5879 52.3948C73.1546 52.5208 73.651 52.7322 74.1197 53.0472C74.5233 53.3185 74.4985 53.2766 74.3678 53.4656C74.3061 53.5548 74.1249 53.8176 73.9651 54.0494C73.8053 54.2813 73.6448 54.5117 73.6084 54.5613L73.5423 54.6516L73.3046 54.4967C72.9896 54.2914 72.4932 54.0559 72.1804 53.9635C71.9871 53.9064 71.8429 53.8853 71.5686 53.874C71.1439 53.8565 70.9364 53.8921 70.726 54.0184C70.5153 54.1448 70.4152 54.3009 70.4009 54.525C70.3867 54.7473 70.4291 54.8813 70.5591 55.0251C70.7409 55.2264 71.0882 55.3653 72.0837 55.6348C73.2356 55.9468 73.7849 56.209 74.1933 56.6421C74.6073 57.0811 74.7868 57.7214 74.6982 58.4433C74.534 59.7809 73.5082 60.5727 71.8715 60.6249C71.6704 60.6313 71.3802 60.6246 71.2266 60.6099Z" fill="#D60D8C"/>
<path fill-rule="evenodd" clip-rule="evenodd" d="M30.7925 60.069C31.3267 59.1553 31.8645 58.2415 32.3987 57.3277C32.6587 57.8057 32.9188 58.2837 33.1789 58.7652C32.3846 59.2009 31.5868 59.6332 30.7925 60.069Z" fill="#FCB913"/>
<path fill-rule="evenodd" clip-rule="evenodd" d="M32.3987 57.3277C33.4636 57.3277 34.5249 57.3277 35.5898 57.3242C34.7885 57.8022 33.9837 58.2837 33.1824 58.7616C32.9223 58.2837 32.6623 57.8057 32.4022 57.3242L32.3987 57.3277Z" fill="#6DB33F"/>
<path fill-rule="evenodd" clip-rule="evenodd" d="M33.1789 58.7652C33.4249 59.2009 33.6709 59.6367 33.9169 60.0725C34.4757 59.1553 35.031 58.2415 35.5898 57.3242C34.7885 57.8022 33.9837 58.2837 33.1824 58.7616L33.1789 58.7652Z" fill="#C0D72F"/>
<path fill-rule="evenodd" clip-rule="evenodd" d="M30.7925 60.069C31.5868 59.6332 32.3846 59.2009 33.1789 58.7652C33.4249 59.2009 33.6709 59.6367 33.9169 60.0725C32.8766 60.0725 31.8363 60.069 30.7925 60.069Z" fill="#FFFF4F"/>
<path fill-rule="evenodd" clip-rule="evenodd" d="M32.3987 57.3277C32.9258 56.4104 33.4495 55.4896 33.9767 54.5724C34.5144 55.4896 35.0521 56.4104 35.5898 57.3277C34.5249 57.3277 33.4636 57.3277 32.3987 57.3312V57.3277Z" fill="#018440"/>
<path fill-rule="evenodd" clip-rule="evenodd" d="M33.9767 54.5688C34.5144 54.5688 35.0521 54.5688 35.5898 54.5688C35.5898 55.4861 35.5898 56.4069 35.5898 57.3242C35.0521 56.4069 34.5144 55.4861 33.9767 54.5688Z" fill="#0079C0"/>
<path fill-rule="evenodd" clip-rule="evenodd" d="M33.9767 54.5688C34.5144 53.6516 35.0521 52.7343 35.5898 51.8205C35.5898 52.7378 35.5898 53.6551 35.5898 54.5688C35.0521 54.5688 34.5144 54.5688 33.9767 54.5688Z" fill="#005DAA"/>
<path fill-rule="evenodd" clip-rule="evenodd" d="M38.7494 57.3277C38.2292 56.4104 37.7091 55.4896 37.1889 54.5724C36.6547 55.4896 36.1205 56.4104 35.5863 57.3277C36.6407 57.3277 37.695 57.3277 38.7494 57.3312V57.3277Z" fill="#00498E"/>
<path fill-rule="evenodd" clip-rule="evenodd" d="M37.1889 54.5688C36.6547 54.5688 36.1205 54.5688 35.5898 54.5688C35.5898 55.4861 35.5898 56.4069 35.5898 57.3242C36.124 56.4069 36.6582 55.4861 37.1924 54.5688H37.1889Z" fill="#005DAA"/>
<path fill-rule="evenodd" clip-rule="evenodd" d="M37.1889 54.5688C36.6547 53.6516 36.124 52.7343 35.5898 51.8205C35.5898 52.7378 35.5898 53.6551 35.5898 54.5688C36.124 54.5688 36.6582 54.5688 37.1889 54.5688Z" fill="#00498E"/>
<path fill-rule="evenodd" clip-rule="evenodd" d="M35.5898 57.3242C36.1451 58.2415 36.6969 59.1553 37.2522 60.0725C37.7512 59.1588 38.2538 58.2415 38.7529 57.3277C37.6985 57.3277 36.6442 57.3277 35.5898 57.3242Z" fill="#A9218D"/>
<path fill-rule="evenodd" clip-rule="evenodd" d="M38.7494 57.3277C38.2503 58.2415 37.7477 59.1588 37.2487 60.0725C38.2784 60.0725 39.3117 60.069 40.3414 60.069C39.8108 59.1553 39.2801 58.2415 38.7529 57.3277H38.7494Z" fill="#D50C8C"/>
<path fill-rule="evenodd" clip-rule="evenodd" d="M16 52.063C16 52.7694 16 53.4723 16 54.1787C16.7205 54.1787 17.4409 54.1787 18.1614 54.1787C18.1614 56.1433 18.1614 58.1079 18.1614 60.0725C18.9803 60.0725 19.7992 60.0725 20.6181 60.0725C20.6181 58.1079 20.6181 56.1433 20.6181 54.1787C21.3385 54.1787 22.059 54.1787 22.7795 54.1787C22.7795 53.4723 22.7795 52.7694 22.7795 52.063C20.5196 52.063 18.2633 52.063 16.0035 52.063H16Z" fill="#214497"/>
<path fill-rule="evenodd" clip-rule="evenodd" d="M23.7108 52.063C23.7108 54.7305 23.7108 57.4015 23.7108 60.069C24.5438 60.069 25.3802 60.069 26.2131 60.069C26.2131 59.2818 26.2131 58.498 26.2131 57.7108C26.3783 57.7108 26.54 57.7108 26.7052 57.7108C27.0953 58.498 27.4854 59.2818 27.8755 60.069C28.7612 60.069 29.6468 60.069 30.5325 60.069C30.0756 59.1096 29.6152 58.1536 29.1583 57.1942C29.2075 57.1731 29.2602 57.1485 29.3656 57.0782C29.4711 57.0079 29.6292 56.8849 29.7874 56.7127C29.9455 56.5405 30.1072 56.3155 30.2197 56.0871C30.3321 55.8551 30.3954 55.6162 30.427 55.3069C30.4587 54.9976 30.4587 54.618 30.4235 54.3052C30.3884 53.9925 30.3146 53.7429 30.181 53.4934C30.0475 53.2474 29.8507 53.0014 29.6117 52.794C29.3727 52.5867 29.095 52.418 28.733 52.302C28.371 52.186 27.9247 52.1263 27.5487 52.0946C27.1726 52.063 26.8668 52.063 26.2377 52.063C25.6086 52.063 24.6597 52.063 23.7108 52.063ZM26.2131 54.0909C26.2131 54.6426 26.2131 55.1979 26.2131 55.7497C26.3713 55.7497 26.5294 55.7497 26.7017 55.7497C26.8739 55.7497 27.0601 55.7497 27.2429 55.7181C27.4256 55.6864 27.6084 55.6232 27.7349 55.5248C27.8614 55.4229 27.9352 55.2858 27.9739 55.1347C28.0091 54.9835 28.0091 54.8219 27.9669 54.6743C27.9247 54.5267 27.8404 54.4001 27.7138 54.3052C27.5873 54.2104 27.4221 54.1506 27.2534 54.1225C27.0883 54.0944 26.9231 54.0944 26.7473 54.0944C26.5751 54.0944 26.3924 54.0944 26.2096 54.0944L26.2131 54.0909Z" fill="#214497"/>
<path fill-rule="evenodd" clip-rule="evenodd" d="M40.5523 52.063C40.5523 54.7305 40.5523 57.4015 40.5523 60.069C41.3712 60.069 42.1901 60.069 43.0054 60.069C43.0054 58.8073 43.0054 57.5421 43.0054 56.2804C43.9719 57.5421 44.9419 58.8073 45.9084 60.069C46.5129 60.069 47.1139 60.069 47.7184 60.069C47.7184 57.4015 47.7184 54.7305 47.7184 52.063C46.8995 52.063 46.0806 52.063 45.2617 52.063C45.2617 53.2931 45.2617 54.5196 45.2617 55.7497C44.3269 54.5196 43.392 53.2931 42.4607 52.063C41.8246 52.063 41.1849 52.063 40.5488 52.063H40.5523Z" fill="#214497"/>
<path fill-rule="evenodd" clip-rule="evenodd" d="M49.7779 57.2153C49.3245 57.7424 48.8676 58.2696 48.4142 58.8003C48.6181 58.976 48.8219 59.1553 49.0293 59.3099C49.2366 59.4645 49.4475 59.5946 49.683 59.7176C49.9185 59.8406 50.182 59.9566 50.4948 60.0479C50.8111 60.1393 51.1766 60.2026 51.5281 60.2342C51.876 60.2658 52.2064 60.2658 52.4946 60.2448C52.7828 60.2202 53.0323 60.1745 53.2853 60.0866C53.5384 59.9987 53.7985 59.8687 54.0128 59.7211C54.2272 59.5735 54.3994 59.4048 54.54 59.2361C54.6771 59.0674 54.786 58.8987 54.8669 58.7019C54.9512 58.5051 55.011 58.2766 55.0426 57.999C55.0742 57.7178 55.0742 57.384 55.0285 57.0993C54.9829 56.8146 54.895 56.5791 54.7544 56.3612C54.6138 56.1468 54.424 55.95 54.1745 55.7708C53.925 55.5951 53.6192 55.4334 53.2889 55.3069C52.9585 55.1804 52.6035 55.0855 52.3364 55.0081C52.0693 54.9308 51.8901 54.8676 51.7425 54.7973C51.5949 54.727 51.4754 54.6497 51.4156 54.5407C51.3559 54.4318 51.3559 54.2877 51.4086 54.1858C51.4613 54.0873 51.5703 54.0311 51.7179 54.003C51.869 53.9749 52.0623 53.9784 52.2415 54.01C52.4208 54.0417 52.5895 54.1014 52.7687 54.1822C52.948 54.2631 53.1342 54.365 53.3064 54.4704C53.4751 54.5759 53.6263 54.6848 53.7739 54.7938C54.164 54.242 54.5541 53.6902 54.9442 53.1349C54.6982 52.9381 54.4557 52.7448 54.2272 52.5937C53.9988 52.4426 53.7844 52.3406 53.5665 52.2528C53.3486 52.1649 53.1307 52.0946 52.9093 52.0419C52.6879 51.9892 52.4594 51.954 52.1748 51.9365C51.8901 51.9189 51.5457 51.9189 51.2012 51.9716C50.8568 52.0243 50.5124 52.1298 50.2312 52.2633C49.9466 52.3969 49.7252 52.5621 49.56 52.7167C49.3983 52.8713 49.2929 53.0119 49.1945 53.1771C49.0961 53.3423 48.9977 53.5321 48.9344 53.7078C48.8711 53.8835 48.8395 54.0487 48.8254 54.2279C48.8114 54.4072 48.8149 54.6005 48.8676 54.857C48.9203 55.1136 49.0223 55.4299 49.1699 55.69C49.3175 55.95 49.5037 56.1504 49.7427 56.3226C49.9817 56.4983 50.2734 56.6424 50.5862 56.7654C50.9025 56.8884 51.2434 56.9833 51.5211 57.0712C51.7987 57.159 52.0166 57.2399 52.1677 57.3066C52.3189 57.3734 52.4032 57.4261 52.463 57.4859C52.5227 57.5456 52.5508 57.6089 52.5684 57.6967C52.5824 57.7811 52.5824 57.8865 52.5473 57.9709C52.5086 58.0552 52.4348 58.115 52.347 58.1571C52.2591 58.2028 52.1572 58.2309 52.0307 58.245C51.9041 58.2591 51.7495 58.2591 51.5984 58.238C51.4473 58.2169 51.2997 58.1747 51.1661 58.1255C51.0326 58.0728 50.9095 58.013 50.7865 57.9428C50.6635 57.8725 50.5405 57.7916 50.3718 57.6721C50.2031 57.5491 49.9887 57.384 49.7779 57.2153Z" fill="#214497"/>
</g>
<rect x="1" y="1" width="110" height="110" rx="9" stroke="black" stroke-opacity="0.1" stroke-width="2"/>
<defs>
<clipPath id="clip0_755_386">
<rect x="2" y="2" width="108" height="108" rx="8" fill="white"/>
</clipPath>
</defs>
</svg>
