<svg width="112" height="112" viewBox="0 0 112 112" fill="none" xmlns="http://www.w3.org/2000/svg">
<g clip-path="url(#clip0_755_404)">
<rect x="2" y="2" width="108" height="108" rx="8" fill="white"/>
<path d="M38.9568 43.0142H39.5088C41.0515 43.1557 42.297 44.3729 42.7499 45.8165C43.5708 48.5481 43.2312 51.4779 42.4527 54.1812C40.7119 60.3662 36.5791 65.9144 31.0026 69.1413C30.394 69.5093 29.7147 69.7782 29.007 69.8349C27.5916 69.8915 26.2188 68.9007 25.7942 67.5562C25.5819 66.9051 25.6668 66.2116 25.7375 65.5464C26.0348 62.7157 26.3603 59.885 26.6575 57.0543C26.7991 55.6815 27.1104 54.3227 27.0821 52.9215C27.068 51.676 26.2188 50.5296 25.0865 50.0342C23.7561 49.5672 22.0435 49.8786 21.2085 51.0957C20.43 52.2139 20.2885 53.8698 21.1943 54.9596C21.7463 55.7239 22.8078 55.9504 23.2749 56.7854C24.1241 58.1583 23.0059 60.2247 21.3641 60.1822C19.7223 60.0973 18.4485 58.866 17.4861 57.6346C16.6228 56.559 16.2406 55.2002 16 53.8557V52.9782C16.1132 50.9259 16.8775 48.8878 18.3778 47.4583C20.062 45.7599 22.5672 45.0522 24.9025 45.3636C28.2427 45.7033 31.1725 48.534 31.5404 51.8883C31.8377 55.3559 31.0734 58.7952 30.6629 62.2203C30.5356 62.6166 30.8611 63.0695 31.2857 62.928C35.2486 59.8426 37.9661 55.1719 38.6879 50.1899C37.315 49.7795 35.9139 48.8312 35.6874 47.3168C35.2769 45.2929 36.8763 43.1274 38.971 43" fill="#FC0F3A"/>
<path d="M47.279 46.8639C48.8501 46.1704 50.7466 47.7272 50.3503 49.3973C50.1239 51.1524 47.647 51.8317 46.4723 50.5579C45.34 49.4823 45.7929 47.3451 47.279 46.8639Z" fill="#FC0F3A"/>
<path d="M63.4705 48.1518C63.9942 46.6657 66.1031 46.3261 67.2212 47.3309C67.8723 47.8829 68.0846 48.8454 67.8298 49.6379C66.6692 53.6292 65.5369 57.6205 64.3622 61.5976C64.2207 62.1637 63.881 62.8006 64.2207 63.3667C64.6453 63.9612 65.5228 63.947 66.1031 63.6074C67.3344 62.8572 68.1129 61.5693 68.5516 60.2247C69.2451 58.1583 69.8537 56.0777 70.3916 53.9689C70.5897 53.1197 71.2974 52.4403 72.1749 52.3129C73.3355 51.9733 74.581 52.8225 74.8782 53.9547C75.048 54.6341 74.7225 55.2852 74.5668 55.9221C73.9582 58.1583 73.2789 60.3804 72.6844 62.6166C72.4721 63.5507 73.7176 64.1452 74.4253 63.6357C76.2369 62.4185 77.0154 60.2388 77.7796 58.2857C78.6572 56.4174 79.8319 54.5916 81.5869 53.4311C83.9505 51.7893 87.4747 52.0016 89.5411 54.0255C89.994 54.0255 90.4186 53.9406 90.8574 53.8132C90.4328 51.8459 92.7257 50.1333 94.4948 51.0108C96.1225 51.6336 96.4905 53.9689 95.3016 55.1719C94.1127 56.4599 92.2727 56.658 90.6876 57.1817C90.7442 60.2813 89.6119 63.6215 87.0218 65.4756C85.38 66.6786 83.2146 66.7494 81.2755 66.3956C79.7187 66.1267 78.275 65.1501 77.6381 63.664C76.5908 65.1359 75.048 66.3531 73.2081 66.5796C71.4248 66.9476 69.3018 66.4097 68.3676 64.7396C67.2212 65.9568 65.5936 66.707 63.9093 66.707C62.3383 66.8343 60.6116 66.2257 59.8048 64.7962C58.3046 66.1267 56.1957 66.7777 54.2001 66.5654C52.813 66.438 51.6241 65.4048 51.1854 64.1027C50.2513 65.2208 49.0624 66.2399 47.5904 66.5371C45.9628 66.9193 44.0521 66.7353 42.8066 65.5322C41.8017 64.5132 41.7168 62.9421 42.0706 61.6259C42.8349 59.0075 43.5708 56.375 44.3351 53.7424C44.6607 52.6668 45.892 51.9874 46.9818 52.2988C48.1424 52.5535 49.0058 53.7849 48.6944 54.9738C48.0009 57.5355 47.2507 60.069 46.5289 62.6166C46.2883 63.2394 46.9677 63.8763 47.5763 63.8055C48.1141 63.8338 48.5387 63.4517 48.9067 63.1261C50.322 61.6825 51.0722 59.7718 51.7232 57.9035C52.6998 55.5965 54.285 53.1905 56.8326 52.4828C58.531 52.1573 60.4134 52.4828 61.8429 53.4877C62.3807 51.7043 62.9044 49.921 63.4422 48.1377M57.7243 56.1061C57.0166 56.4316 56.5071 57.0685 56.0542 57.6912C55.3182 58.7669 54.752 60.0832 54.9785 61.3994C55.0634 62.1212 55.672 62.7865 56.4221 62.8006C57.427 62.8148 58.4744 62.3902 59.0688 61.5551C59.8048 60.5361 60.3143 59.3189 60.3002 58.0451C60.2153 57.4365 60.102 56.743 59.6067 56.3184C59.0971 55.8513 58.3187 55.7947 57.7101 56.0919M84.6299 56.3184C83.1155 56.7288 82.238 58.2149 81.7568 59.6161C81.4312 60.5078 81.1199 61.6542 81.7851 62.4751C82.2663 63.0837 83.1296 63.0412 83.809 62.928C85.1253 62.4892 86.0028 61.2579 86.4698 59.9982C86.7529 59.1349 87.0643 58.1724 86.7246 57.2666C86.4415 56.4316 85.4225 56.0919 84.6299 56.3042" fill="#FC0F3A"/>
<path d="M73.2647 46.8214C74.4111 46.2411 75.9539 46.8639 76.3785 48.0811C76.8597 49.1992 76.2086 50.657 75.0339 50.9825C73.9865 51.3788 72.642 50.8976 72.189 49.8361C71.6512 48.7604 72.1607 47.3026 73.2647 46.8214Z" fill="#FC0F3A"/>
</g>
<rect x="1" y="1" width="110" height="110" rx="9" stroke="black" stroke-opacity="0.1" stroke-width="2"/>
<defs>
<clipPath id="clip0_755_404">
<rect x="2" y="2" width="108" height="108" rx="8" fill="white"/>
</clipPath>
</defs>
</svg>
