<svg width="112" height="112" viewBox="0 0 112 112" fill="none" xmlns="http://www.w3.org/2000/svg">
<g clip-path="url(#clip0_755_392)">
<rect x="2" y="2" width="108" height="108" rx="8" fill="white"/>
<path d="M73.9713 51.0061C73.5681 50.6364 73.0844 50.39 72.4394 50.2257C71.7944 50.0614 70.9881 49.9793 70.0206 49.9793H65.0219C64.0544 49.9793 63.2481 50.0614 62.6031 50.2257C61.9581 50.39 61.4341 50.6364 61.0713 51.0061C60.6681 51.3758 60.4263 51.8275 60.265 52.4436C60.1038 53.0186 60.0231 53.7579 60.0231 54.5794V58.9741C60.0231 59.8366 60.1038 60.5349 60.265 61.1099C60.4263 61.6849 60.7084 62.1778 61.0713 62.5063C61.4744 62.876 61.9581 63.1224 62.6031 63.2867C63.2481 63.451 64.0544 63.5331 65.0219 63.5331H70.0206C70.9881 63.5331 71.7944 63.451 72.4394 63.2867C73.0844 63.1224 73.6084 62.876 73.9713 62.5063C74.3744 62.1367 74.6162 61.6849 74.7775 61.1099C74.9388 60.5349 75.0194 59.7956 75.0194 58.9741V54.5383C75.0194 53.7169 74.9388 52.9776 74.7775 52.4026C74.6566 51.8275 74.3744 51.3347 73.9713 51.0061ZM72.1169 58.8098C72.1169 59.2616 72.0766 59.5902 71.9959 59.8777C71.9153 60.1652 71.7944 60.3706 71.6331 60.5349C71.4719 60.6992 71.23 60.8224 70.9478 60.8634C70.6656 60.9045 70.3028 60.9456 69.8594 60.9456H65.1025C64.6591 60.9456 64.2559 60.9045 63.9738 60.8634C63.6916 60.8224 63.4497 60.6992 63.2884 60.5349C63.1272 60.3706 63.0063 60.1652 62.9659 59.8777C62.9256 59.5902 62.8853 59.2206 62.8853 58.8098V54.7026C62.8853 54.2919 62.9256 53.9222 62.9659 53.6758C63.0063 53.3883 63.1272 53.1829 63.2884 53.0186C63.4497 52.8544 63.6916 52.7311 63.9738 52.649C64.2559 52.5668 64.6591 52.5668 65.1025 52.5668H69.8997C70.3431 52.5668 70.6656 52.6079 70.9881 52.649C71.2703 52.7311 71.5122 52.8133 71.6734 53.0186C71.8347 53.1829 71.9556 53.4294 72.0363 53.6758C72.1169 53.9633 72.1572 54.2919 72.1572 54.7026V58.8098H72.1169Z" fill="black"/>
<path d="M25.464 60.1984L19.2772 49.9503H15.7646L23.2686 62.2725C23.5081 62.6791 23.7875 63.0045 24.1068 63.2078C24.4262 63.4111 24.8652 63.5331 25.424 63.5331C25.9828 63.5331 26.4219 63.4111 26.7412 63.2078C27.0605 63.0045 27.3399 62.6791 27.5794 62.2725L35.1233 49.9503H31.6508L25.464 60.1984Z" fill="black"/>
<path d="M38.7955 49.9503H35.8817V63.5331H38.7955V49.9503Z" fill="black"/>
<path d="M53.3122 56.2944C52.9941 56.0097 52.5965 55.8064 52.0797 55.6844C51.5629 55.5624 50.9666 55.4811 50.2509 55.4811H44.1683C43.6912 55.4811 43.3732 55.3997 43.1744 55.1964C42.9756 55.0337 42.8961 54.749 42.8961 54.3017V53.8544C42.8961 53.3257 43.0154 52.9597 43.2141 52.7564C43.4129 52.5937 43.731 52.4717 44.208 52.4717H54.2265V49.9097H43.9297C43.2936 49.9097 42.7371 49.991 42.26 50.113C41.7829 50.235 41.4251 50.479 41.1071 50.7637C40.8288 51.0483 40.5902 51.455 40.471 51.943C40.312 52.431 40.2722 53.041 40.2722 53.7324V54.4237C40.2722 54.993 40.3119 55.5217 40.4312 55.9284C40.5505 56.3757 40.7493 56.7011 41.0276 56.9857C41.3058 57.2704 41.7034 57.4737 42.1407 57.6364C42.6178 57.7584 43.2141 57.8397 43.9297 57.8397H50.1317C50.6485 57.8397 51.0063 57.9211 51.2448 58.1244C51.4834 58.2871 51.6026 58.6124 51.6026 59.0191V59.7511C51.6026 60.1984 51.4834 60.5238 51.2448 60.6864C51.0063 60.8491 50.6485 60.9304 50.1317 60.9304H40.2324V63.4925H50.2509C50.9666 63.4925 51.6026 63.4111 52.0797 63.2891C52.5965 63.1671 52.9941 62.9638 53.3122 62.6791C53.6302 62.3945 53.8687 62.0285 53.988 61.5811C54.147 61.1338 54.1868 60.6051 54.1868 59.9544V58.8971C54.1868 58.2871 54.1073 57.7584 53.988 57.3111C53.829 56.9044 53.6302 56.5791 53.3122 56.2944Z" fill="black"/>
<path d="M58.4189 49.9503H55.5051V63.5331H58.4189V49.9503Z" fill="black"/>
<path d="M78.2574 49.9504C77.8183 49.9504 77.4589 50.0315 77.1795 50.2349C76.9001 50.4382 76.7405 50.7231 76.7405 51.1298V63.5331H79.3749V54.0171L88.6752 62.9639C88.9146 63.1673 89.1542 63.3297 89.3936 63.4517C89.6331 63.533 89.9124 63.6145 90.2317 63.6145C90.6708 63.6145 90.9902 63.5332 91.2696 63.3298C91.549 63.1265 91.6687 62.8418 91.6687 62.3945V62.1766L88.9546 59.629L79.5744 50.3977C79.4547 50.2757 79.2551 50.1536 79.0555 50.0723C78.8559 49.991 78.5767 49.9504 78.2574 49.9504Z" fill="black"/>
<path d="M90.1717 53.7244C90.1717 53.0451 90.7461 52.4981 91.4595 52.4981H94.4768C95.1903 52.4981 95.7646 53.0451 95.7646 53.7244C95.7646 54.4038 95.1903 54.9507 94.4768 54.9507H91.4595C90.7461 54.9507 90.1717 54.4038 90.1717 53.7244Z" fill="url(#paint0_linear_755_392)"/>
<path d="M90.3694 48.6193C91.0487 48.6193 91.5957 49.1662 91.5957 49.8456V52.429C91.5957 53.1084 91.0487 53.6553 90.3694 53.6553C89.69 53.6553 89.1431 53.1084 89.1431 52.429V49.8456C89.1431 49.1662 89.69 48.6193 90.3694 48.6193Z" fill="url(#paint1_linear_755_392)"/>
<path d="M86.1975 52.4981C85.4841 52.4981 84.9096 53.0451 84.9096 53.7244C84.9096 54.4038 85.4841 54.9507 86.1975 54.9507H89.1431V54.8562C89.1431 54.2566 89.5691 53.7606 90.1361 53.6522C90.1489 53.6497 90.4847 53.6447 90.4994 53.6426C90.4555 53.0017 89.8994 52.4981 89.2148 52.4981H86.1975Z" fill="url(#paint2_linear_755_392)"/>
<path d="M90.5005 53.6426C90.4876 53.6447 90.1489 53.6497 90.1361 53.6522C89.5691 53.7606 89.1431 54.2566 89.1431 54.8562V57.7293C89.1431 58.4087 89.69 58.9556 90.3694 58.9556C91.0488 58.9556 91.5957 58.4087 91.5957 57.7293V54.9507L91.4595 54.9507C90.6316 54.9507 89.8611 54.0697 90.5005 53.6426Z" fill="url(#paint3_linear_755_392)"/>
</g>
<rect x="1" y="1" width="110" height="110" rx="9" stroke="black" stroke-opacity="0.1" stroke-width="2"/>
<defs>
<linearGradient id="paint0_linear_755_392" x1="120.598" y1="53.1057" x2="17.8311" y2="69.2616" gradientUnits="userSpaceOnUse">
<stop stop-color="#00AFDB"/>
<stop offset="1" stop-color="#004FBF"/>
</linearGradient>
<linearGradient id="paint1_linear_755_392" x1="-13.3094" y1="38.5339" x2="-12.6394" y2="62.2262" gradientUnits="userSpaceOnUse">
<stop stop-color="#FBED89"/>
<stop offset="1" stop-color="#FBCB36"/>
</linearGradient>
<linearGradient id="paint2_linear_755_392" x1="27.5794" y1="43.8412" x2="62.605" y2="96.9141" gradientUnits="userSpaceOnUse">
<stop stop-color="#3CDA42"/>
<stop offset="1" stop-color="#24A243"/>
</linearGradient>
<linearGradient id="paint3_linear_755_392" x1="89.1431" y1="54.9507" x2="89.931" y2="59.9383" gradientUnits="userSpaceOnUse">
<stop stop-color="#E4252B"/>
<stop offset="1" stop-color="#F6282F" stop-opacity="0.996078"/>
</linearGradient>
<clipPath id="clip0_755_392">
<rect x="2" y="2" width="108" height="108" rx="8" fill="white"/>
</clipPath>
</defs>
</svg>
