<svg width="112" height="112" viewBox="0 0 112 112" fill="none" xmlns="http://www.w3.org/2000/svg">
<g clip-path="url(#clip0_755_395)">
<rect x="2" y="2" width="108" height="108" rx="8" fill="white"/>
<g clip-path="url(#clip1_755_395)">
<mask id="mask0_755_395" style="mask-type:luminance" maskUnits="userSpaceOnUse" x="-268" y="-163" width="549" height="776">
<path d="M-267.399 612.281H280.294V-162.312H-267.399V612.281Z" fill="white"/>
</mask>
<g mask="url(#mask0_755_395)">
<path d="M40.7114 71.6539C39.4399 71.6539 38.1684 71.652 36.8968 71.6548C36.4202 71.6557 35.9436 71.6769 35.4661 71.6741C34.7061 71.6704 34.2296 71.3723 34.1477 70.8635C34.0741 70.4127 34.3676 70.041 35.1395 69.8119C36.5647 69.3868 37.0146 68.6305 36.2583 67.0039C35.8976 66.2282 35.3622 65.5308 34.8736 64.8196C33.5846 62.9436 32.279 61.0777 30.9771 59.2109C30.5272 58.565 30.3349 58.5439 29.8703 59.1364C28.17 61.3031 26.4771 63.4763 24.7915 65.6541C24.556 65.9596 24.3508 66.2954 24.1751 66.6386C23.3719 68.2045 23.9745 69.3988 25.7006 69.695C26.1164 69.7668 26.5314 69.8487 26.9491 69.9048C27.3668 69.9609 27.6594 70.1624 27.6943 70.5921C27.7293 71.0319 27.5536 71.399 27.1092 71.5517C26.8801 71.6309 26.6271 71.6704 26.3851 71.6713C23.3452 71.6787 20.3062 71.6778 17.2672 71.6732C17.0768 71.6723 16.8431 71.6769 16.706 71.5757C16.4429 71.3815 16.1273 71.1497 16.0297 70.8654C15.9019 70.4955 16.2073 70.2186 16.545 70.0438C16.5615 70.0355 16.5763 70.0253 16.5928 70.0198C19.2399 69.2396 20.9181 67.2642 22.5401 65.2143C24.5238 62.7081 26.5166 60.2101 28.5012 57.7048C29.2106 56.8086 29.2226 56.4277 28.5776 55.4856C26.6151 52.6168 24.6719 49.7333 22.6689 46.8922C21.8887 45.7844 20.9815 44.765 20.1121 43.7216C19.3365 42.7914 18.3888 42.1281 17.178 41.8548C16.7354 41.7545 16.2975 41.5622 16.3002 40.9577C16.303 40.3487 16.5615 40.046 17.1725 40.0046C17.2433 40 17.3142 40.0018 17.385 40.0018C21.1665 40.0018 24.947 40.0009 28.7285 40.0036C29.5004 40.0046 29.8335 40.2981 29.7304 40.943C29.6946 41.1648 29.482 41.3708 29.3173 41.5539C29.2465 41.6321 29.0919 41.6404 28.9723 41.669C27.2591 42.0756 26.6685 43.2883 27.6051 44.7834C28.8122 46.7109 30.1527 48.5547 31.4362 50.4335C31.6856 50.7978 31.9266 51.1686 32.1944 51.5182C32.625 52.0804 32.9221 52.0942 33.3711 51.5422C34.4734 50.186 35.5609 48.8169 36.6484 47.4488C37.2308 46.7155 37.8141 45.9841 38.3708 45.2324C38.7885 44.6684 39.0323 44.0298 39.0001 43.3103C38.9734 42.727 38.7232 42.2799 38.1555 42.0913C37.6412 41.921 37.1094 41.7987 36.5812 41.6736C35.8461 41.4987 35.6373 41.2669 35.7099 40.6615C35.7661 40.195 36.0605 40.0027 36.7349 40.0018C39.7389 40.0009 42.7429 40.0009 45.7469 40.0018C46.4949 40.0027 46.7664 40.1729 46.8188 40.6615C46.885 41.2871 46.6569 41.6598 45.9641 41.7702C44.4883 42.0048 43.3244 42.7832 42.374 43.8504C40.5789 45.8672 38.8455 47.9392 37.1048 50.0038C36.2399 51.0297 35.4155 52.0896 34.5755 53.1366C34.0704 53.766 34.0133 54.2168 34.4301 54.8167C37.1618 58.7417 39.8935 62.6667 42.6518 66.5723C43.1284 67.2477 43.7173 67.8448 44.2794 68.4548C44.848 69.0722 45.527 69.5331 46.3293 69.8183C47.0304 70.0677 47.2154 70.3465 47.1316 70.8764C47.0562 71.3558 46.7231 71.6005 46.0119 71.606C44.2454 71.6217 42.4779 71.6115 40.7114 71.6115V71.6539ZM37.1581 69.6389C37.2096 69.6748 37.2621 69.7107 37.3136 69.7466C37.5464 69.5267 37.8288 69.3399 38.0018 69.0804C38.5483 68.2625 38.5309 67.359 38.1481 66.5061C37.7976 65.724 37.3651 64.9668 36.8803 64.2593C32.2293 57.4784 27.5618 50.7086 22.8953 43.9388C21.9632 42.5872 20.6963 41.7481 19.054 41.4978C20.4691 42.3618 21.5152 43.5854 22.4352 44.9269C26.1081 50.2817 29.7774 55.6383 33.4438 60.9977C34.6693 62.7881 35.9216 64.562 37.0854 66.392C37.7304 67.4059 38.0671 68.5238 37.1581 69.6389Z" fill="#B79B52"/>
</g>
<mask id="mask1_755_395" style="mask-type:luminance" maskUnits="userSpaceOnUse" x="-268" y="-163" width="549" height="776">
<path d="M-267.399 612.281H280.294V-162.312H-267.399V612.281Z" fill="white"/>
</mask>
<g mask="url(#mask1_755_395)">
<path d="M55.486 40.0025C57.4127 40.0025 59.3384 39.9952 61.265 40.0062C62.0277 40.0108 62.4666 40.6521 62.0801 41.2345C61.9311 41.4581 61.5824 41.5979 61.2972 41.6734C60.0652 41.9972 59.4727 42.6956 59.6742 43.8125C59.7653 44.3139 60.0275 44.8071 60.3044 45.2469C60.8592 46.1274 61.4766 46.9674 62.0673 47.8249C62.8889 49.0164 63.7041 50.2125 64.533 51.3984C65.0308 52.1106 65.3363 52.1299 65.8773 51.4564C67.4487 49.5022 69.0322 47.5563 70.5503 45.5606C70.9514 45.0334 71.2173 44.3636 71.4022 43.7187C71.6286 42.9274 71.2228 42.2834 70.4362 42.0248C69.9541 41.8657 69.448 41.781 68.9521 41.6642C68.3062 41.5124 68.0468 41.2179 68.113 40.711C68.1774 40.2197 68.4755 40.0025 69.1113 40.0025C72.1871 40.0007 75.2619 40.0034 78.3368 40.0007C78.8097 40.0007 79.1786 40.1332 79.2578 40.665C79.3332 41.1701 79.1059 41.6467 78.5972 41.7184C76.2344 42.0497 74.7807 43.7058 73.3758 45.3463C71.1584 47.9335 69.0515 50.6164 66.9068 53.2653C66.4256 53.8605 66.4495 54.2516 66.9593 54.9876C69.1297 58.1214 71.29 61.2643 73.4834 64.3815C74.2949 65.5352 75.1699 66.6476 76.0541 67.7462C76.826 68.7049 77.7378 69.4924 78.9403 69.9037C79.5651 70.1172 79.7767 70.6076 79.4639 71.0998C79.3194 71.3261 78.9827 71.5414 78.7186 71.5607C77.9099 71.6196 77.0956 71.5736 76.2832 71.5819C73.5442 71.6104 70.806 71.6491 68.0679 71.6693C67.756 71.6721 67.4018 71.662 67.1451 71.5175C66.9031 71.3823 66.6345 71.0713 66.6161 70.8201C66.5977 70.5717 66.8212 70.2303 67.0393 70.0583C67.3052 69.8494 67.6769 69.7758 68.0026 69.6424C68.9319 69.2606 69.264 68.6616 68.9457 67.7066C68.7423 67.0966 68.4507 66.494 68.09 65.9631C66.5434 63.685 64.9572 61.4336 63.383 59.1748C62.9634 58.5722 62.7628 58.5483 62.3074 59.127C60.5832 61.3195 58.8562 63.512 57.1734 65.7377C56.8008 66.2299 56.5312 66.8325 56.3426 67.426C56.0491 68.3442 56.4558 69.1437 57.3667 69.4556C58.0089 69.6765 58.6971 69.7721 59.3687 69.9037C59.7643 69.981 60.079 70.1144 60.1038 70.5836C60.1296 71.0584 59.9741 71.4246 59.4911 71.5663C59.2583 71.6344 59.0071 71.6721 58.7642 71.6721C55.7593 71.6794 52.7553 71.6785 49.7513 71.673C49.5433 71.673 49.2903 71.6831 49.1376 71.5755C48.8726 71.3887 48.5635 71.1504 48.4669 70.8679C48.3279 70.4585 48.6527 70.1392 49.0235 70.0288C51.6945 69.2367 53.3671 67.23 55.0021 65.1718C57.0115 62.6407 59.02 60.1087 61.0313 57.5785C61.5778 56.8903 61.6716 56.4892 61.1969 55.8074C58.5453 51.9993 56.1411 48.0172 53.1859 44.4234C52.1895 43.2117 51.0891 42.1454 49.4615 41.7884C48.8156 41.6467 48.6389 41.2667 48.7401 40.6953C48.8248 40.216 49.122 40.0053 49.7596 40.0034C51.6687 39.9998 53.5769 40.0025 55.486 40.0025ZM51.4957 41.5078C52.8593 42.3358 53.8824 43.4988 54.7666 44.785C59.2298 51.2853 63.6811 57.7929 68.1296 64.3033C68.6954 65.1323 69.2741 65.9603 69.7471 66.8427C70.2255 67.737 70.3451 68.6874 69.644 69.5716C69.633 69.5854 69.6587 69.6277 69.667 69.6571C70.3157 69.4538 70.7711 68.7674 70.8189 67.9559C70.8916 66.7138 70.3028 65.7119 69.6449 64.744C68.2059 62.6297 66.7486 60.5273 65.2995 58.4204C61.9688 53.5808 58.6455 48.7367 55.3039 43.9054C54.3838 42.575 53.1206 41.7405 51.4957 41.5078Z" fill="#B79B52"/>
</g>
<mask id="mask2_755_395" style="mask-type:luminance" maskUnits="userSpaceOnUse" x="-268" y="-163" width="549" height="776">
<path d="M-267.399 612.281H280.294V-162.312H-267.399V612.281Z" fill="white"/>
</mask>
<g mask="url(#mask2_755_395)">
<path d="M88.6409 71.686C86.591 71.6869 84.542 71.6814 82.493 71.6906C82.0136 71.6924 81.5978 71.5977 81.4358 71.0925C81.2702 70.5736 81.4708 70.1697 82.0192 69.8707C82.3127 69.7106 82.6163 69.5606 82.9319 69.4539C84.3561 68.9718 84.9247 67.8576 85.1189 66.4867C85.2054 65.8785 85.2311 65.2575 85.2311 64.642C85.2385 58.4233 85.2376 52.2045 85.2274 45.9849C85.2265 45.4945 85.1833 44.9949 85.083 44.5156C84.7996 43.1631 83.9007 42.346 82.4792 42.0976C82.0118 42.0167 81.5398 41.9587 81.0724 41.8787C80.3769 41.7581 80.0926 41.4306 80.1441 40.8298C80.1882 40.3118 80.5802 40.0045 81.2399 40.0045C85.3038 40.0008 89.3668 40.0026 93.4298 40.0017C93.8466 40.0017 94.2128 40.0854 94.3269 40.5602C94.4492 41.0672 94.2827 41.3947 93.7776 41.622C93.5549 41.7222 93.3203 41.8124 93.082 41.8648C91.6495 42.1758 90.9953 43.1603 90.8325 44.5192C90.7221 45.4457 90.654 46.3824 90.6512 47.3144C90.6356 53.039 90.6365 58.7628 90.6512 64.4874C90.654 65.2419 90.7101 66.0083 90.849 66.748C91.1711 68.4602 92.2319 69.3407 94.1309 69.591C94.4952 69.6388 94.8614 69.706 95.2147 69.8072C95.787 69.9719 96.0584 70.3583 95.9894 70.845C95.914 71.3768 95.5579 71.6805 94.9479 71.6823C92.8456 71.6897 90.7432 71.686 88.6409 71.686ZM84.5411 69.764C85.5292 69.3444 86.3104 68.6636 86.5901 67.6037C86.832 66.6937 87.0087 65.7359 87.0142 64.7984C87.051 58.5456 87.0538 52.2919 87.0124 46.0392C87.0068 45.1992 86.7851 44.3279 86.499 43.5292C86.1245 42.4831 85.2385 41.9523 84.173 41.7241C84.2485 41.8455 84.3488 41.9348 84.4619 42.0038C85.2799 42.5071 85.7436 43.2633 85.9285 44.177C86.0537 44.7953 86.1355 45.4338 86.1374 46.0631C86.1521 52.1576 86.1641 58.2512 86.1263 64.3448C86.1199 65.3909 85.9892 66.4655 85.7096 67.4703C85.4869 68.2716 84.9514 68.9856 84.5411 69.764Z" fill="#B79B52"/>
</g>
</g>
</g>
<rect x="1" y="1" width="110" height="110" rx="9" stroke="black" stroke-opacity="0.1" stroke-width="2"/>
<defs>
<clipPath id="clip0_755_395">
<rect x="2" y="2" width="108" height="108" rx="8" fill="white"/>
</clipPath>
<clipPath id="clip1_755_395">
<rect width="80" height="31.6905" fill="white" transform="translate(16 40)"/>
</clipPath>
</defs>
</svg>
