<svg width="112" height="112" viewBox="0 0 112 112" fill="none" xmlns="http://www.w3.org/2000/svg">
<g clip-path="url(#clip0_505_118)">
<rect x="1.99988" y="2" width="108" height="108" rx="8" fill="white"/>
<path d="M79.3937 58.6606C77.5486 58.6606 76.0988 58.4629 74.6491 58.0016C76.3624 53.3229 77.8781 49.1054 78.0099 48.5783C78.4712 47.3262 78.8007 46.9308 79.3278 46.9308C79.855 46.9308 80.1845 47.3262 80.6458 48.5783C80.8435 49.1054 82.3591 53.3229 84.0725 57.9357C82.7545 58.4629 81.2389 58.6606 79.3937 58.6606ZM85.5222 45.0198C84.2043 42.1203 82.2273 41 79.6573 41H79.1301C76.5601 41 74.5832 42.1862 73.2652 45.0857C71.4201 49.1054 62.9852 71.5766 62.9852 71.5766H69.9044C69.9044 71.5766 71.1565 67.9522 72.6722 63.7348C74.8468 64.196 77.0873 64.4596 79.4596 64.4596C81.832 64.4596 84.1384 64.196 86.2471 63.6689C87.7628 67.8863 89.1466 71.5766 89.1466 71.5766H96C95.9341 71.5766 87.3674 49.0395 85.5222 45.0198ZM32.3427 58.6606C30.4975 58.6606 29.0478 58.4629 27.598 58.0016C29.2455 53.3229 30.7611 49.1054 30.9588 48.5783C31.4201 47.3262 31.7496 46.9308 32.2768 46.9308C32.804 46.9308 33.1334 47.3262 33.5947 48.5783C33.7924 49.1054 35.3081 53.3229 37.0214 57.9357C35.7035 58.4629 34.1878 58.6606 32.3427 58.6606ZM32.6063 41H32.0791C29.5091 41 27.5321 42.1862 26.2142 45.0857C24.369 49.1054 16 71.5766 16 71.5766H22.9193C22.9193 71.5766 24.1713 67.9522 25.687 63.7348C27.7957 64.196 30.1021 64.4596 32.4745 64.4596C34.8468 64.4596 37.1532 64.196 39.2619 63.6689C40.7776 67.8863 42.1614 71.5766 42.1614 71.5766H49.0148C49.0148 71.5766 40.4481 49.0395 38.5371 45.0857C37.0873 42.1862 35.1763 41 32.6063 41ZM52.5733 71.5766H59.229V41.3954H52.5733V71.5766Z" fill="#D41245"/>
</g>
<rect x="1" y="1" width="110" height="110" rx="9" stroke="black" stroke-opacity="0.1" stroke-width="2"/>
<defs>
<clipPath id="clip0_505_118">
<rect x="2" y="2" width="108" height="108" rx="8" fill="white"/>
</clipPath>
</defs>
</svg>
