<svg width="112" height="112" viewBox="0 0 112 112" fill="none" xmlns="http://www.w3.org/2000/svg">
<g clip-path="url(#clip0_768_343)">
<rect x="1.99988" y="2" width="108" height="108" rx="8" fill="white"/>
<path fill-rule="evenodd" clip-rule="evenodd" d="M23.2514 57.4333H20.3116L21.8714 52.3565L23.2473 57.4333H23.2514ZM18.9357 62.5645L19.8557 59.4699H23.6194L24.5395 62.5645H27.6592L24.3555 50.8217C24.1715 50.0522 23.8035 49.8013 22.9796 49.8013H18.3879V50.8552H18.7559C19.3079 50.8552 19.5839 51.0308 19.5839 51.4532C19.5839 51.7208 19.5839 51.8923 19.3079 52.5279L16 62.5687H18.9399L18.9357 62.5645ZM31.6069 62.5645V50.7423C31.6069 50.1275 31.2389 49.8055 30.5991 49.8055H27.7512V50.8594H27.9352C28.4872 50.8594 28.7632 51.0894 28.7632 51.5828V62.5645H31.6111H31.6069ZM36.7465 62.5645V50.7423C36.7465 50.1275 36.3785 49.8055 35.7344 49.8055H32.8866V50.8594H33.0706C33.6226 50.8594 33.8986 51.0894 33.8986 51.5828V62.5645H36.7465ZM41.978 50.9304C41.978 50.0857 41.334 49.5881 40.3262 49.5881C39.2263 49.5881 38.6743 50.0857 38.6743 50.9304C38.6743 51.7752 39.2263 52.2979 40.3262 52.2979C41.334 52.2979 41.978 51.7919 41.978 50.9304ZM41.886 62.5645V53.954C41.886 53.356 41.518 53.0089 40.966 53.0089H38.1181V54.046H38.3021C38.8542 54.046 39.0382 54.276 39.0382 54.7987V62.5645H41.886ZM48.6817 59.8379C48.1296 60.3899 47.4898 60.6994 46.9378 60.6994C46.3858 60.6994 46.1098 60.4318 46.1098 59.7166C46.1098 58.9263 46.2938 58.6252 46.9378 58.3743C47.3978 58.1819 47.8578 58.0606 48.6817 57.9226V59.8379ZM44.6419 55.6393L44.9179 55.5306C45.6539 55.2378 46.1098 55.1249 46.6618 55.0245C46.9378 54.9869 47.3058 54.9493 47.4898 54.9493C48.4098 54.9493 48.6817 55.2504 48.6817 56.0951V56.3335C47.3978 56.5426 47.0298 56.6178 46.2938 56.7726C45.9258 56.8646 45.5578 56.9817 45.1939 57.1406C44.0021 57.6173 43.4501 58.5373 43.4501 59.9759C43.4501 61.7867 44.1861 62.6482 45.8379 62.6482C46.482 62.6482 47.1218 62.5018 47.5818 62.2091C48.0418 61.9958 48.2258 61.8871 48.7737 61.381V61.6738C48.7737 62.2718 49.0497 62.5562 49.6017 62.5562H52.3576V61.5734H52.2656C51.7135 61.5734 51.4375 61.3267 51.4375 60.829V56.1369C51.4375 53.6947 50.6095 52.8667 48.2258 52.8667C47.3978 52.8667 46.666 52.9587 45.93 53.1343C45.1939 53.31 44.8301 53.4354 44.0021 53.8703L44.6461 55.6351L44.6419 55.6393ZM56.6691 62.5603V56.0784C57.3131 55.4804 57.7689 55.2504 58.413 55.2504C59.057 55.2504 59.241 55.5264 59.241 56.5008V62.5603H62.0889V56.0407C62.0889 54.6983 61.9049 54.1212 61.5369 53.6152C61.0768 53.1176 60.5248 52.8918 59.701 52.8918C58.6012 52.8918 57.7731 53.2974 56.4893 54.4056V53.8912C56.4893 53.2932 56.2133 53.0005 55.6613 53.0005H52.9054V54.0376H52.9974C53.5494 54.0376 53.8254 54.2676 53.8254 54.7904V62.5562H56.6733L56.6691 62.5603ZM70.4694 60.6492V62.4976H63.0423V60.4945L67.2201 54.6649H64.9911C64.4349 54.6649 64.1547 54.8782 64.1547 55.4093V55.6058H63.1343V53.8494C63.1343 53.1343 63.4145 52.8374 64.1547 52.8374H70.2812V54.8238L66.1955 60.6534H70.4652L70.4694 60.6492ZM86.9002 51.0392C86.9002 50.1568 86.528 49.8682 85.6916 49.8682H83.1866V51.0768H83.4668C83.931 51.0768 84.115 51.2525 84.115 51.7919V61.9749H86.9002V51.0392ZM88.3847 61.9665H91.0779V53.7156C91.0779 52.8792 90.7057 52.5447 89.8693 52.5447H88.3847V61.9665ZM82.6304 61.9665V52.553H81.1458C80.3095 52.553 79.9414 52.8876 79.9414 53.724V61.9749H82.6346L82.6304 61.9665ZM94.231 56.4715C94.231 61.586 90.5175 65.3162 85.5076 65.3162C80.4977 65.3162 76.7841 61.586 76.7841 56.4715C76.7841 51.357 80.4977 47.6267 85.5076 47.6267C90.5175 47.6267 94.231 51.357 94.231 56.4715ZM95.9958 56.4715C95.9958 62.4767 91.5421 66.9681 85.5076 66.9681C79.4731 66.9681 75.0193 62.4767 75.0193 56.4715C75.0193 50.4663 79.5693 46 85.5118 46C91.4543 46 96 50.4913 96 56.4798L95.9958 56.4715Z" fill="#004A93"/>
</g>
<rect x="1" y="1" width="110" height="110" rx="9" stroke="black" stroke-opacity="0.1" stroke-width="2"/>
<defs>
<clipPath id="clip0_768_343">
<rect x="2" y="2" width="108" height="108" rx="8" fill="white"/>
</clipPath>
</defs>
</svg>
