<svg width="112" height="112" viewBox="0 0 112 112" fill="none" xmlns="http://www.w3.org/2000/svg">
<g clip-path="url(#clip0_505_115)">
<rect x="1.99988" y="2" width="108" height="108" rx="8" fill="white"/>
<g clip-path="url(#clip1_505_115)">
<path d="M88.0669 86.5889H24.5287C23.6863 86.5889 23 87.2752 23 88.1279V94.4714C23 95.3241 23.6863 96 24.5287 96H88.0669C88.9196 96 89.606 95.3241 89.606 94.4714V88.1279C89.606 87.2752 88.9196 86.5889 88.0669 86.5889Z" fill="#FDD900"/>
<path d="M87.7445 77.5001C87.4118 76.6993 64.5858 22.0419 64.4403 21.8131C63.2548 18.4542 60.0622 16.0104 56.2874 16.0104C52.5125 16.0104 49.3096 18.4542 48.1345 21.8131C47.9889 22.0523 25.1838 76.7097 24.851 77.5001C23.9879 79.5591 25.1942 81.2333 27.5132 81.2333H43.195L47.3338 71.3126H39.6593C38.8482 71.3126 38.4322 70.6991 38.7442 69.9296L54.1764 33.0025C55.3307 30.2363 57.2233 30.2363 58.3672 33.0025L73.7994 69.9296C74.1322 70.6991 73.6954 71.3126 72.8739 71.3126H65.2098L69.3382 81.2333H85.0304C87.3598 81.2333 88.5557 79.5591 87.7133 77.5001" fill="#2654A5"/>
<path d="M73.8306 69.9295L58.3984 33.0025C57.2441 30.2363 55.3618 30.2363 54.2075 33.0025L38.7753 69.9295C38.4634 70.6991 38.8793 71.3126 39.6904 71.3126H47.3754L54.5507 54.1438C55.5178 51.8352 57.0985 51.8352 58.076 54.1438L65.2617 71.3126H72.9258C73.7474 71.3126 74.1841 70.6991 73.8514 69.9295" fill="#FDD900"/>
<path d="M54.5403 54.1334L47.365 71.3022H65.241L58.0552 54.1334C57.0881 51.8248 55.5075 51.8248 54.5403 54.1334Z" fill="#2654A5"/>
</g>
</g>
<rect x="1" y="1" width="110" height="110" rx="9" stroke="black" stroke-opacity="0.1" stroke-width="2"/>
<defs>
<clipPath id="clip0_505_115">
<rect x="2" y="2" width="108" height="108" rx="8" fill="white"/>
</clipPath>
<clipPath id="clip1_505_115">
<rect width="66.5956" height="80" fill="white" transform="translate(23 16)"/>
</clipPath>
</defs>
</svg>
