<svg width="112" height="112" viewBox="0 0 112 112" fill="none" xmlns="http://www.w3.org/2000/svg">
<g clip-path="url(#clip0_505_114)">
<rect x="1.99988" y="2" width="108" height="108" rx="8" fill="white"/>
<path d="M33.1349 61.5904H16.4026C16.1806 61.5904 16 61.7736 16 61.9981V63.6677C16 63.8896 16.1806 64.0703 16.4026 64.0703H33.1349C33.3594 64.0703 33.5427 63.8896 33.5427 63.6677V61.9981C33.5427 61.7762 33.3594 61.5904 33.1349 61.5904Z" fill="#FDD900"/>
<path d="M33.0498 59.1956C32.962 58.9866 26.9545 44.5896 26.9158 44.5277C26.6035 43.6426 25.7648 43 24.7688 43C23.7727 43 22.9314 43.6426 22.6191 44.5277C22.583 44.5896 16.578 58.9866 16.4903 59.1956C16.2632 59.7349 16.5806 60.1788 17.1896 60.1788H21.3211L22.4127 57.5647H20.3921C20.1779 57.5647 20.067 57.4047 20.1495 57.2008L24.2139 47.4773C24.521 46.7496 25.0165 46.7496 25.3184 47.4773L29.3802 57.2008C29.468 57.4047 29.3544 57.5647 29.1376 57.5647H27.1196L28.2112 60.1788H32.3401C32.9543 60.1788 33.2717 59.7349 33.0472 59.1956" fill="#0058A4"/>
<path d="M29.3854 57.2008L25.3236 47.4773C25.0216 46.7496 24.5236 46.7496 24.2191 47.4773L20.1547 57.2008C20.0721 57.4047 20.1831 57.5647 20.3973 57.5647H22.4179L24.3094 53.0435C24.5649 52.4345 24.9804 52.4345 25.2384 53.0435L27.1274 57.5647H29.1454C29.3622 57.5647 29.4757 57.4047 29.388 57.2008" fill="#FDD900"/>
<path d="M24.3042 53.0435L22.4127 57.5647H27.1196L25.2307 53.0435C24.9726 52.4371 24.5571 52.4371 24.3017 53.0435" fill="#0058A4"/>
<path d="M41.3824 56.1686C41.0134 56.1686 40.7115 56.1996 40.4766 56.2589C40.2392 56.3209 40.0405 56.4138 39.896 56.5325C39.7489 56.6563 39.6483 56.8163 39.5941 57.0047C39.545 57.1776 39.5167 57.3841 39.5167 57.6163C39.5167 58.1066 39.6199 58.3905 39.8315 58.5427C40.0302 58.6898 40.3373 58.7621 40.7631 58.7621C41.0573 58.7621 41.3514 58.7182 41.6405 58.633C41.9295 58.5453 42.1953 58.4369 42.425 58.3079L42.4843 58.2769V56.1686H41.3824ZM40.2728 60.1814C39.9579 60.1814 39.6379 60.1478 39.3257 60.0782C39.0212 60.0059 38.7425 59.8769 38.5025 59.6911C38.2599 59.5027 38.0612 59.2472 37.9038 58.9298C37.7516 58.6124 37.6741 58.1918 37.6741 57.6782C37.6741 57.1647 37.7412 56.8008 37.8754 56.486C38.0122 56.1712 38.2264 55.9028 38.5128 55.6835C38.8096 55.4641 39.1967 55.2964 39.6612 55.188C40.136 55.0744 40.7166 55.0177 41.385 55.0177H42.4817V54.2074C42.4817 53.65 42.3579 53.2861 42.1024 53.09C41.8547 52.9042 41.4934 52.8165 40.9927 52.8165C40.4921 52.8165 39.9992 52.8294 39.5296 52.8552C39.0547 52.881 38.6831 52.9094 38.4225 52.9429C38.2961 52.9429 38.247 52.93 38.2109 52.9119C38.2083 52.9119 38.1877 52.8784 38.1877 52.7907V51.7971C38.1877 51.7094 38.2109 51.6191 38.3967 51.5778C38.7038 51.5184 39.0805 51.4617 39.5244 51.4101C39.9683 51.361 40.4611 51.3326 40.9927 51.3326C42.0766 51.3326 42.9153 51.5726 43.483 52.0449C44.0455 52.512 44.3294 53.2422 44.3294 54.2151V59.8614C44.3294 59.9156 44.3113 59.9569 44.2675 60.0033C44.2262 60.042 44.1772 60.0627 44.1281 60.0627H42.7966C42.7424 60.0627 42.6985 60.042 42.6572 60.0033C42.6159 59.9595 42.5953 59.913 42.5953 59.8614V59.4098L42.425 59.513C42.0766 59.7246 41.7127 59.8924 41.354 60.0111C41.0031 60.1272 40.6392 60.184 40.2728 60.184" fill="#0058A4"/>
<path d="M47.1474 55.6267C46.7784 55.3996 46.4687 55.1054 46.2313 54.7441C46.0042 54.3932 45.8829 53.9984 45.8829 53.5648C45.8829 52.0604 46.8222 51.3275 48.7499 51.3275C49.0622 51.3275 49.3434 51.3378 49.5963 51.3507C49.8492 51.3688 50.0866 51.392 50.2982 51.423C50.5202 51.4539 50.724 51.49 50.9227 51.5236C51.1214 51.5623 51.3202 51.601 51.5163 51.6423C51.6505 51.681 51.7072 51.7558 51.7072 51.8952V52.8139C51.7072 52.9842 51.6453 52.9997 51.573 52.9997C51.4156 52.9919 51.2814 52.9739 51.1163 52.9558C50.8531 52.9197 50.6337 52.9016 50.3911 52.881L49.6454 52.8345C49.3873 52.8216 49.1447 52.8113 48.9254 52.8113C48.5254 52.8113 48.239 52.8629 48.048 52.9739C47.8364 53.0926 47.7306 53.2964 47.7306 53.5803C47.7306 53.7377 47.8028 53.8745 47.937 53.9932C48.048 54.0913 48.2054 54.1945 48.4144 54.3209L50.466 55.5699C50.7808 55.7635 51.0363 55.957 51.2298 56.148C51.4234 56.3415 51.5679 56.5299 51.6737 56.7183C51.7769 56.9015 51.844 57.0873 51.8698 57.2731C51.9008 57.464 51.9137 57.6576 51.9137 57.8511C51.9137 58.1789 51.8517 58.4859 51.733 58.7698C51.6169 59.0485 51.4363 59.2962 51.1937 59.5027C50.946 59.7091 50.6389 59.8769 50.2673 59.9956C49.8931 60.1169 49.4492 60.1788 48.9538 60.1788C48.8015 60.1788 48.6106 60.1762 48.3886 60.1659C48.1641 60.1556 47.9241 60.1349 47.6635 60.1091C47.4029 60.0833 47.1448 60.0498 46.8867 60.0136C46.6287 59.9801 46.3939 59.9311 46.1797 59.8666C46.0274 59.8253 45.9629 59.7504 45.9629 59.6111V58.6614C45.9629 58.6408 45.9681 58.6047 46.0042 58.5608C46.0197 58.5453 46.0481 58.5221 46.1177 58.5221C46.3603 58.5427 46.5822 58.5659 46.8377 58.584C47.0958 58.6047 47.3512 58.6227 47.6016 58.6408C47.8545 58.6537 48.0867 58.6692 48.3086 58.6795C48.528 58.6898 48.6983 58.695 48.8144 58.695C49.0596 58.695 49.2634 58.6743 49.4209 58.6382C49.5834 58.5969 49.715 58.535 49.8028 58.455C49.8983 58.375 49.9628 58.2718 49.9937 58.1582C50.0247 58.055 50.0376 57.9466 50.0376 57.8305C50.0376 57.6576 49.9757 57.5028 49.8544 57.366C49.7408 57.2421 49.5525 57.1002 49.297 56.9376L47.15 55.6241L47.1474 55.6267Z" fill="#0058A4"/>
<path d="M59.9599 60.0575C59.9083 60.0575 59.8618 60.0343 59.8231 59.9904C59.7792 59.944 59.756 59.8949 59.756 59.8382V51.6397C59.756 51.5855 59.7741 51.5442 59.8154 51.503C59.8592 51.4565 59.9031 51.4384 59.9599 51.4384H61.325C61.3766 51.4384 61.423 51.4565 61.4618 51.5004C61.5056 51.5417 61.5237 51.5829 61.5237 51.6397V52.2023L61.7069 52.0604C62.0785 51.7662 62.4604 51.57 62.8398 51.4771C63.2243 51.3791 63.5752 51.3301 63.8772 51.3301C63.9314 51.3301 63.9752 51.3507 64.0165 51.3946C64.0604 51.4333 64.081 51.4771 64.081 51.5339V52.6616C64.081 52.7158 64.063 52.7623 64.0191 52.801C63.9752 52.8448 63.9314 52.8655 63.8772 52.8655C63.4436 52.8655 63.0462 52.9145 62.6927 53.0203C62.3495 53.121 62.0011 53.2629 61.663 53.4435L61.6037 53.4745V59.8433C61.6037 59.9001 61.583 59.9491 61.5366 59.9956C61.4953 60.0369 61.4514 60.0627 61.3998 60.0627H59.9599V60.0575Z" fill="#0058A4"/>
<path d="M68.6383 56.1686C68.2744 56.1686 67.9699 56.1996 67.7351 56.2589C67.4977 56.3209 67.3016 56.4138 67.1596 56.5325C67.01 56.6563 66.9067 56.8137 66.85 57.0047C66.8009 57.1853 66.7751 57.3918 66.7751 57.6163C66.7751 58.1014 66.8809 58.3905 67.09 58.5427C67.2938 58.6898 67.5958 58.7621 68.0241 58.7621C68.3183 58.7621 68.6099 58.7182 68.8989 58.633C69.1905 58.5427 69.4538 58.4343 69.6834 58.3079L69.7402 58.2769V56.1686H68.6357H68.6383ZM67.5312 60.1814C67.2113 60.1814 66.8938 60.1478 66.5842 60.0782C66.2771 60.0059 66.001 59.8769 65.761 59.6911C65.5158 59.5027 65.3171 59.2472 65.1623 58.9298C65.01 58.6098 64.9326 58.1918 64.9326 57.6782C64.9326 57.1647 64.9997 56.8008 65.1365 56.486C65.2681 56.1738 65.4797 55.9028 65.7739 55.6835C66.0681 55.4641 66.4526 55.2964 66.9222 55.188C67.3971 55.0744 67.9777 55.0177 68.6435 55.0177H69.7428V54.2074C69.7428 53.65 69.6215 53.2835 69.3609 53.09C69.1157 52.9042 68.7518 52.8165 68.2512 52.8165C67.7506 52.8165 67.2577 52.8294 66.788 52.8552C66.3132 52.881 65.9416 52.9094 65.681 52.9429C65.5545 52.9429 65.5055 52.93 65.4694 52.9119C65.4694 52.9094 65.4436 52.8784 65.4436 52.7907V51.7971C65.4436 51.7068 65.4694 51.6191 65.6526 51.5778C65.9648 51.5184 66.339 51.4617 66.7803 51.4101C67.2242 51.361 67.7196 51.3326 68.2512 51.3326C69.3351 51.3326 70.1737 51.5726 70.7415 52.0449C71.3014 52.512 71.5879 53.2422 71.5879 54.2151V59.8614C71.5879 59.9156 71.5647 59.9569 71.5259 60.0033C71.4847 60.042 71.4408 60.0627 71.3866 60.0627H70.055C70.0008 60.0627 69.957 60.042 69.9105 60.0033C69.8744 59.9595 69.8537 59.9156 69.8537 59.8614V59.4098L69.6834 59.513C69.3273 59.7246 68.966 59.8924 68.6048 60.0111C68.2564 60.1272 67.8925 60.184 67.5312 60.184" fill="#0058A4"/>
<path d="M57.8903 58.793H57.0593C56.9045 58.793 56.7858 58.7827 56.698 58.7672C56.5922 58.7466 56.5071 58.6872 56.4426 58.5995C56.3961 58.5195 56.3651 58.4137 56.3522 58.2821C56.3419 58.166 56.3342 58.0034 56.3342 57.7995V52.7648H57.8593C57.9109 52.7648 57.9574 52.7442 57.9961 52.7055C58.0399 52.6616 58.0606 52.6178 58.0606 52.5636V51.6371C58.0606 51.5829 58.0399 51.5417 57.9961 51.4978C57.9574 51.4565 57.9109 51.4359 57.8593 51.4359H56.3342V49.7069C56.3342 49.6243 56.3161 49.5856 56.1561 49.5856H54.6697C54.5123 49.5856 54.4891 49.6243 54.4891 49.7069V51.4359H52.9046C52.853 51.4359 52.804 51.4539 52.7627 51.4978C52.7214 51.5391 52.7033 51.5804 52.7033 51.6371V52.3442C52.7033 52.3958 52.7188 52.4294 52.7549 52.4629C52.8066 52.5016 52.8633 52.53 52.9201 52.5481L54.4891 52.7803V57.7995C54.4891 58.3156 54.5381 58.7337 54.6259 59.0485C54.711 59.353 54.8478 59.593 55.0284 59.7556C55.2091 59.9182 55.449 60.0317 55.7432 60.0911C56.0529 60.1504 56.4245 60.1814 56.8555 60.1814C57.0309 60.1814 57.1987 60.1711 57.3638 60.1504C57.5367 60.1298 57.7174 60.1065 57.9057 60.0756C58.107 60.042 58.107 59.9491 58.107 59.9027V58.9169C58.107 58.8756 58.107 58.793 57.8903 58.793Z" fill="#0058A4"/>
<path d="M77.758 59.9569C77.7038 60.024 77.6393 60.0575 77.5619 60.0575H76.269C76.189 60.0575 76.1219 60.0265 76.0652 59.9569C76.0058 59.8898 75.9748 59.8175 75.9748 59.7349V48.7185C75.9748 48.6359 76.0058 48.5663 76.0652 48.5018C76.1193 48.4424 76.189 48.4114 76.269 48.4114H77.5619C77.6393 48.4114 77.7064 48.4424 77.758 48.5018C77.8122 48.5637 77.838 48.6359 77.838 48.7185V59.7349C77.838 59.8175 77.8122 59.8924 77.758 59.9569Z" fill="#0058A4"/>
<path d="M81.8611 59.7349C81.8611 59.8175 81.8327 59.8924 81.7759 59.9569C81.7192 60.024 81.6469 60.0575 81.5695 60.0575H80.354C80.2766 60.0575 80.2095 60.0265 80.1502 59.9569C80.0908 59.8924 80.0624 59.8175 80.0624 59.7349V51.7326C80.0624 51.6526 80.0908 51.5804 80.1502 51.5184C80.207 51.4591 80.2766 51.4281 80.354 51.4281H81.5695C81.6469 51.4281 81.7166 51.4591 81.7759 51.5184C81.8353 51.5804 81.8611 51.6526 81.8611 51.7326V59.7349ZM81.905 49.9727C81.905 50.0553 81.8766 50.1249 81.8198 50.1869C81.7579 50.2462 81.6934 50.2798 81.6134 50.2798H80.3231C80.2457 50.2798 80.176 50.2488 80.1141 50.1869C80.0495 50.1249 80.0186 50.0553 80.0186 49.9727V48.6256C80.0186 48.5456 80.0495 48.4734 80.1141 48.414C80.176 48.3521 80.2457 48.3237 80.3231 48.3237H81.6134C81.6934 48.3237 81.7579 48.3521 81.8198 48.414C81.8766 48.476 81.905 48.5482 81.905 48.6256V49.9727Z" fill="#0058A4"/>
<path d="M88.4002 49.6966C88.3512 49.7378 88.3022 49.7585 88.2557 49.7585H87.6003C87.2519 49.7585 87.0222 49.8178 86.9113 49.934C86.8003 50.0501 86.7435 50.2978 86.7435 50.6746V51.4255H88.1396C88.217 51.4255 88.2867 51.4565 88.3435 51.5159C88.4002 51.5778 88.4312 51.65 88.4312 51.73V52.6487C88.4312 52.7313 88.4028 52.801 88.3435 52.8552C88.2867 52.9119 88.217 52.9403 88.1396 52.9403H86.7435V59.7324C86.7435 59.8149 86.7125 59.8898 86.6558 59.9543C86.599 60.0214 86.5319 60.0549 86.4519 60.0549H85.2494C85.172 60.0549 85.0997 60.024 85.0378 59.9543C84.9758 59.8872 84.9423 59.8149 84.9423 59.7324V52.9403L83.6469 52.7261C83.5694 52.7055 83.5023 52.6719 83.443 52.6255C83.3836 52.5816 83.3552 52.5145 83.3552 52.4345V51.73C83.3552 51.65 83.3836 51.5778 83.443 51.5159C83.4998 51.4565 83.5694 51.4255 83.6469 51.4255H84.9423V50.6746C84.9423 50.1869 85.0042 49.7843 85.1255 49.4669C85.2442 49.1521 85.3552 48.9017 85.5745 48.7185C85.7913 48.5327 85.9977 48.4063 86.31 48.334C86.6197 48.2643 86.9629 48.2282 87.3422 48.2282C87.5177 48.2282 87.6725 48.2411 87.8067 48.2669C87.9461 48.2927 88.0777 48.3211 88.2144 48.3495C88.2712 48.3701 88.3306 48.3985 88.3899 48.4347C88.4493 48.4708 88.4777 48.5224 88.4777 48.5947V49.4979C88.4777 49.5882 88.4519 49.6553 88.4028 49.6966" fill="#0058A4"/>
<path d="M92.6685 52.9248C92.173 52.9248 91.7601 53.1029 91.4427 53.4513C91.1253 53.7997 90.9653 54.3003 90.9653 54.948V55.1441H94.3433V54.948C94.3433 54.3132 94.191 53.8126 93.8865 53.4616C93.5768 53.1055 93.1691 52.9223 92.6685 52.9223M92.6917 60.0627C92.3382 60.0627 91.9537 60.0059 91.5537 59.8924C91.1589 59.7788 90.7924 59.5801 90.4621 59.3014C90.1292 59.0227 89.8531 58.6434 89.6337 58.1685C89.417 57.6911 89.3086 57.077 89.3086 56.3441V55.2061C89.3086 54.628 89.3834 54.099 89.5305 53.6345C89.6828 53.1726 89.8995 52.7752 90.186 52.4552C90.4647 52.1352 90.8182 51.8823 91.2337 51.7068C91.6517 51.5313 92.1369 51.441 92.6685 51.441C93.2001 51.441 93.6956 51.5313 94.1059 51.7146C94.5162 51.8952 94.8671 52.1558 95.1432 52.4836C95.4194 52.8165 95.6361 53.2164 95.7806 53.6758C95.9277 54.1325 96 54.6487 96 55.2112V56.0705C96 56.3209 95.9019 56.3209 95.8426 56.3209H90.9498V56.5015C90.9498 56.7312 90.9756 56.9712 91.0247 57.2137C91.0763 57.4589 91.1743 57.6886 91.3163 57.8898C91.4582 58.0963 91.6595 58.2666 91.9046 58.3931C92.1524 58.5195 92.4646 58.584 92.8336 58.584C93.3756 58.584 93.8865 58.5659 94.3536 58.5324C94.8284 58.4963 95.2207 58.4627 95.5329 58.4318H95.5639C95.6129 58.4318 95.649 58.4421 95.6748 58.4601C95.68 58.4627 95.6955 58.473 95.6955 58.5272V59.5388C95.6955 59.6678 95.6723 59.7272 95.6568 59.7504C95.6568 59.7504 95.6361 59.7866 95.4994 59.8072C95.2645 59.8588 95.0478 59.9001 94.8439 59.9311C94.6478 59.9595 94.4413 59.9853 94.2297 60.0059C94.0207 60.0265 93.791 60.042 93.551 60.0524C93.3007 60.0627 93.0117 60.0678 92.6891 60.0678" fill="#0058A4"/>
<path d="M72.2433 68.4934V67.474C72.2433 67.2573 72.1582 67.087 71.9001 67.087C71.6808 67.087 71.464 67.265 71.464 67.6469V68.4934H71.2627V67.474C71.2627 67.2573 71.1776 67.087 70.9195 67.087C70.7002 67.087 70.4834 67.265 70.4834 67.6469V68.4934H70.2821V67.3218C70.2821 67.2057 70.2821 67.0844 70.2692 66.9605H70.4628V67.2186H70.4679C70.5324 67.1153 70.6279 66.9244 70.9737 66.9244C71.1156 66.9244 71.353 66.9812 71.4047 67.2495H71.4098C71.4821 67.0689 71.673 66.9244 71.9285 66.9244C72.2562 66.9244 72.442 67.1412 72.442 67.4379V68.4934H72.2408H72.2433Z" fill="#154A93"/>
<path d="M73.9259 67.6186C73.9259 67.3502 73.8097 67.087 73.513 67.087C73.2162 67.087 73.0356 67.3657 73.0356 67.6186H73.9285H73.9259ZM74.0239 68.4443C73.8846 68.4985 73.7014 68.5295 73.5517 68.5295C73.0124 68.5295 72.8137 68.1863 72.8137 67.7269C72.8137 67.2676 73.0872 66.9244 73.4975 66.9244C73.9568 66.9244 74.1452 67.2728 74.1452 67.6831V67.7786H73.033C73.033 68.1037 73.2188 68.3643 73.5672 68.3643C73.7143 68.3643 73.9259 68.3076 74.0214 68.2508V68.4418L74.0239 68.4443Z" fill="#154A93"/>
<path d="M76.4884 68.4934V67.474C76.4884 67.2573 76.4032 67.087 76.1452 67.087C75.9258 67.087 75.709 67.265 75.709 67.6469V68.4934H75.5078V67.474C75.5078 67.2573 75.4226 67.087 75.1645 67.087C74.9452 67.087 74.7284 67.265 74.7284 67.6469V68.4934H74.5271V67.3218C74.5271 67.2057 74.5271 67.0844 74.5142 66.9605H74.7078V67.2186H74.7129C74.7775 67.1153 74.8729 66.9244 75.2187 66.9244C75.3607 66.9244 75.5981 66.9812 75.6497 67.2495H75.6548C75.7271 67.0689 75.9181 66.9244 76.1735 66.9244C76.5013 66.9244 76.6871 67.1412 76.6871 67.4379V68.4934H76.4858H76.4884Z" fill="#154A93"/>
<path d="M77.8406 67.087C77.4741 67.087 77.3606 67.4482 77.3606 67.7269C77.3606 68.0056 77.4845 68.3669 77.8406 68.3669C78.2225 68.3669 78.3206 68.0237 78.3206 67.7269C78.3206 67.4302 78.2225 67.087 77.8406 67.087ZM77.1593 66.2405H77.3606V67.2186H77.3658C77.3941 67.1437 77.5541 66.9244 77.8716 66.9244C78.349 66.9244 78.5399 67.2599 78.5399 67.7269C78.5399 68.194 78.318 68.5295 77.8716 68.5295C77.6393 68.5295 77.4741 68.4443 77.3658 68.2508H77.3606V68.4934H77.1593V66.2405Z" fill="#154A93"/>
<path d="M79.9386 67.6186C79.9386 67.3502 79.825 67.087 79.5257 67.087C79.2263 67.087 79.0483 67.3657 79.0483 67.6186H79.9386ZM80.0366 68.4443C79.8973 68.4985 79.7141 68.5295 79.5644 68.5295C79.0251 68.5295 78.8264 68.1863 78.8264 67.7269C78.8264 67.2676 79.0999 66.9244 79.5102 66.9244C79.9695 66.9244 80.1579 67.2728 80.1579 67.6831V67.7786H79.0457C79.0457 68.1037 79.2315 68.3643 79.5799 68.3643C79.727 68.3643 79.9386 68.3076 80.0341 68.2508V68.4418L80.0366 68.4443Z" fill="#154A93"/>
<path d="M80.5398 67.3037C80.5398 67.136 80.5398 67.0715 80.5269 66.9605H80.7282V67.2547H80.7334C80.8056 67.0844 80.9424 66.9244 81.1514 66.9244C81.1979 66.9244 81.2572 66.9321 81.2908 66.9424V67.1412C81.2495 67.1283 81.1953 67.1231 81.1437 67.1231C80.8263 67.1231 80.7385 67.4586 80.7385 67.7347V68.4908H80.5373V67.3011L80.5398 67.3037Z" fill="#154A93"/>
<path d="M83.1178 68.3669C83.4688 68.3669 83.6546 68.0831 83.6546 67.7269C83.6546 67.3708 83.4662 67.087 83.1178 67.087C82.7695 67.087 82.5811 67.3734 82.5811 67.7269C82.5811 68.0805 82.7695 68.3669 83.1178 68.3669ZM83.1178 66.9244C83.6443 66.9244 83.8765 67.3089 83.8765 67.7269C83.8765 68.145 83.6443 68.5295 83.1178 68.5295C82.5914 68.5295 82.3591 68.145 82.3591 67.7269C82.3591 67.3089 82.5914 66.9244 83.1178 66.9244Z" fill="#154A93"/>
<path d="M84.39 67.1231H84.0623V66.9605H84.39V66.8496C84.39 66.527 84.4029 66.2044 84.821 66.2044C84.8855 66.2044 84.9707 66.2122 85.0094 66.2354L84.9965 66.4005C84.9552 66.3799 84.8958 66.367 84.8365 66.367C84.563 66.367 84.5913 66.6457 84.5913 66.8289V66.9605H84.9578V67.1231H84.5913V68.4934H84.39V67.1231Z" fill="#154A93"/>
<path d="M87.0867 66.8186H87.079L86.7564 67.6831H87.4067L87.0842 66.8186H87.0867ZM86.8416 66.398H87.3448L88.217 68.4934H87.7241L87.5332 68.0134H86.6326L86.439 68.4934H85.9771L86.8442 66.398H86.8416Z" fill="#154A93"/>
<path d="M89.6983 66.7825C89.5589 66.7257 89.4015 66.6921 89.2467 66.6921C89.0918 66.6921 88.8957 66.7541 88.8957 66.9837C88.8957 67.3476 89.8686 67.1928 89.8686 67.8973C89.8686 68.3566 89.4841 68.5321 89.0351 68.5321C88.7925 68.5321 88.6841 68.5011 88.4648 68.4521L88.506 68.0727C88.6583 68.1502 88.8338 68.2018 89.0093 68.2018C89.1847 68.2018 89.4041 68.1192 89.4041 67.9308C89.4041 67.5308 88.4312 67.696 88.4312 67.0018C88.4312 66.5321 88.8157 66.3618 89.208 66.3618C89.3989 66.3618 89.577 66.385 89.7396 66.4367L89.6983 66.7825Z" fill="#154A93"/>
<path d="M90.6789 66.7283H90.0415V66.398H91.7601V66.7283H91.1227V68.4934H90.6789V66.7283Z" fill="#154A93"/>
<path d="M92.4517 67.2908H92.5988C92.8182 67.2908 93.0685 67.2599 93.0685 66.9992C93.0685 66.7386 92.8207 66.7257 92.5988 66.7257H92.4517V67.2908ZM92.0053 66.3954H92.4853C92.9627 66.3954 93.533 66.3799 93.533 66.9631C93.533 67.2083 93.3575 67.4121 93.0736 67.4508V67.456C93.1949 67.4637 93.2646 67.5799 93.3085 67.6728L93.6646 68.4934H93.1691L92.9007 67.8379C92.8362 67.6805 92.7794 67.6211 92.5911 67.6211H92.4466V68.4934H92.0001V66.398L92.0053 66.3954Z" fill="#154A93"/>
<path d="M94.8723 66.8186H94.8645L94.542 67.6831H95.1923L94.8697 66.8186H94.8723ZM94.6271 66.398H95.1304L96.0026 68.4934H95.5097L95.3187 68.0134H94.4181L94.2246 68.4934H93.7626L94.6297 66.398H94.6271Z" fill="#154A93"/>
</g>
<rect x="1" y="1" width="110" height="110" rx="9" stroke="black" stroke-opacity="0.1" stroke-width="2"/>
<defs>
<clipPath id="clip0_505_114">
<rect x="2" y="2" width="108" height="108" rx="8" fill="white"/>
</clipPath>
</defs>
</svg>
