<svg width="112" height="112" viewBox="0 0 112 112" fill="none" xmlns="http://www.w3.org/2000/svg">
<g clip-path="url(#clip0_768_352)">
<rect x="1.99988" y="2" width="108" height="108" rx="8" fill="white"/>
<path fill-rule="evenodd" clip-rule="evenodd" d="M22.3009 62.6118C20.6124 62.6118 18.9238 62.6118 17.2353 62.6118C17.1035 62.6118 16.9713 62.6133 16.8438 62.5739C16.3899 62.4335 16.1111 62.1324 16.0207 61.6638C16.0056 61.5859 16.0009 61.5047 16.0009 61.4253C16 58.0154 16.0004 54.6055 16 51.1953C16 51.0041 16.0301 50.8195 16.1189 50.6495C16.3167 50.2713 16.627 50.0544 17.0563 50.0174C17.1216 50.0118 17.1877 50.0114 17.2535 50.0114C20.6211 50.0112 23.9887 50.0112 27.3567 50.0112C27.4929 50.0112 27.6291 50.0147 27.7626 50.0508C28.2507 50.1832 28.5944 50.6233 28.6035 51.1291C28.6042 51.1714 28.6038 51.2137 28.6038 51.2558C28.6038 54.6285 28.6038 58.0009 28.6038 61.373C28.6038 61.486 28.6031 61.5982 28.5793 61.7102C28.4649 62.255 27.9839 62.5993 27.5216 62.6094C27.4561 62.6113 27.3901 62.612 27.3242 62.612C25.6499 62.6118 23.9753 62.6118 22.3009 62.6118ZM28.0515 56.1936C28.0515 56.1355 28.0526 56.0888 28.0511 56.0425C28.0398 55.6746 27.9855 55.3124 27.8991 54.9552C27.3046 52.5093 25.1514 50.646 22.4745 50.5573C21.9314 50.5395 21.3952 50.6005 20.8686 50.7376C18.8761 51.2558 17.3285 52.7677 16.7632 54.7465C16.6423 55.1689 16.5756 55.5998 16.5527 56.0378C16.55 56.0883 16.5437 56.14 16.5654 56.1967C16.599 56.2001 16.6306 56.2057 16.6621 56.2057C17.2124 56.2061 17.7628 56.2061 18.3126 56.2056C18.3395 56.2056 18.3664 56.1983 18.3887 56.1949C18.4239 56.1415 18.414 56.0879 18.4189 56.0376C18.4319 55.9065 18.4381 55.7747 18.4579 55.6448C18.5538 55.0093 18.7686 54.4164 19.1069 53.8697C19.8839 52.6148 21.2574 51.705 22.9483 51.6395C23.3301 51.6246 23.7086 51.6627 24.083 51.7414C25.6689 52.0744 26.987 53.224 27.5307 54.7515C27.6738 55.1522 27.7646 55.5635 27.7913 55.9888C27.7956 56.0578 27.7953 56.1286 27.8219 56.1968C27.8955 56.2099 27.9641 56.2101 28.0515 56.1936ZM26.2031 56.434C26.1951 56.5173 26.1857 56.5967 26.181 56.6755C26.167 56.9018 26.1301 57.1244 26.0791 57.3445C25.5042 59.8165 23.0558 61.4439 20.4751 60.8735C18.3693 60.4078 16.9145 58.5888 16.8097 56.5571C16.8079 56.5153 16.8137 56.4719 16.7804 56.4309C16.7114 56.4131 16.6388 56.4142 16.5567 56.4333C16.5551 56.4837 16.5504 56.5297 16.5527 56.5754C16.5638 56.8384 16.5923 57.1006 16.6415 57.3595C16.856 58.489 17.3541 59.4766 18.1559 60.3013C19.1966 61.3712 20.4658 61.9563 21.9581 62.0562C22.5499 62.0957 23.1329 62.04 23.7066 61.8956C25.7385 61.3814 27.3224 59.8196 27.8653 57.7984C27.9714 57.402 28.0362 56.9987 28.0509 56.5885C28.0524 56.5377 28.0598 56.4861 28.0386 56.43C28.015 56.4266 27.9925 56.4215 27.9699 56.42C27.691 56.408 26.3321 56.4171 26.2031 56.434ZM17.0221 56.4276C17.0154 56.4552 17.0083 56.4689 17.0091 56.4819C17.0131 56.552 17.019 56.6221 17.0245 56.6926C17.0592 57.1416 17.167 57.5727 17.3355 57.9896C17.9179 59.4297 19.3012 60.622 21.1417 60.772C21.5984 60.8087 22.052 60.7727 22.5008 60.6709C24.3592 60.2494 25.8665 58.6199 25.9751 56.5208C25.9765 56.4905 25.9664 56.4592 25.962 56.4309C25.8069 56.4124 24.2538 56.416 24.1487 56.4345C24.1184 56.4948 24.1247 56.5629 24.1211 56.6272C24.11 56.8489 24.0719 57.0659 24.0149 57.28C23.5435 59.0428 21.7705 60.1477 19.9589 59.7579C18.6852 59.483 17.6564 58.4873 17.3481 57.2202C17.3016 57.028 17.2687 56.8342 17.2576 56.6365C17.2538 56.5676 17.2569 56.4965 17.227 56.4266C17.191 56.424 17.159 56.42 17.1267 56.4204C17.0944 56.4207 17.0617 56.4246 17.0221 56.4276ZM20.4715 56.1899C20.4751 56.1407 20.4793 56.1033 20.4806 56.0661C20.4873 55.835 20.524 55.6078 20.5808 55.3841C21.0226 53.6529 22.7336 52.5002 24.58 52.8534C25.7423 53.0756 26.7203 53.9069 27.1377 55.016C27.2665 55.3579 27.3351 55.7115 27.3573 56.0748C27.36 56.1155 27.3469 56.1605 27.3876 56.1988C27.4515 56.2057 27.5202 56.2185 27.5904 56.1849C27.5904 56.1162 27.5951 56.051 27.5893 55.986C27.5685 55.7425 27.5332 55.5005 27.4748 55.2626C26.9229 53.0228 24.7334 51.4757 22.2962 51.9159C21.1826 52.1169 20.2746 52.6805 19.5737 53.5697C19.0364 54.2519 18.7339 55.0318 18.6448 55.8945C18.6344 55.9913 18.6259 56.0895 18.6384 56.1858C18.6593 56.1938 18.6724 56.203 18.6851 56.203C19.2587 56.2041 19.8323 56.2047 20.4059 56.2045C20.4241 56.2045 20.4417 56.1967 20.4715 56.1899ZM22.3071 56.1878C22.3095 56.1298 22.3091 56.0785 22.3144 56.028C22.3269 55.9018 22.3331 55.7739 22.3583 55.6505C22.5773 54.5768 23.5833 53.693 24.8821 53.8419C25.4877 53.9111 25.988 54.194 26.3756 54.6657C26.693 55.052 26.8648 55.4965 26.8897 55.9971C26.893 56.0619 26.8826 56.1291 26.9129 56.1941C26.9865 56.2125 27.0589 56.2112 27.1388 56.1938C27.1416 56.1516 27.1466 56.115 27.1461 56.0786C27.1437 55.8992 27.1185 55.722 27.0805 55.5473C26.7212 53.8855 25.1231 52.7206 23.3419 53.0468C22.2345 53.2496 21.4439 53.8918 20.9676 54.9123C20.7947 55.2826 20.7059 55.6761 20.6955 56.0855C20.6948 56.1209 20.7023 56.1573 20.7063 56.195C20.7333 56.1992 20.7517 56.2047 20.7695 56.205C21.2632 56.205 21.7567 56.2045 22.2506 56.2036C22.2639 56.2037 22.2768 56.1965 22.3071 56.1878ZM17.4703 56.4324C17.4485 56.4877 17.4541 56.5402 17.4599 56.5902C17.4777 56.7441 17.4902 56.8998 17.5215 57.051C17.8721 58.7515 19.5196 59.9207 21.3226 59.5694C22.6888 59.3032 23.8496 58.1142 23.9156 56.5224C23.9168 56.4916 23.9065 56.4603 23.9021 56.432C23.7583 56.4131 22.4224 56.4158 22.3058 56.4354C22.3027 56.4743 22.2991 56.5152 22.2951 56.5564C22.2826 56.6779 22.277 56.8002 22.2564 56.9208C22.0571 58.0724 20.9485 58.9722 19.6513 58.7711C19.0152 58.6725 18.5098 58.3535 18.1347 57.8327C17.8634 57.4565 17.7254 57.0325 17.7131 56.5682C17.7123 56.5224 17.7249 56.4734 17.6885 56.4291C17.6179 56.4155 17.5449 56.4124 17.4703 56.4324Z" fill="#ED1C24"/>
<path fill-rule="evenodd" clip-rule="evenodd" d="M43.8949 61.3351C43.8711 61.283 43.8811 61.2303 43.8811 61.1798C43.8799 60.6533 43.8802 60.1261 43.8802 59.5997C43.8802 59.2097 43.8802 58.8193 43.8802 58.4289C43.8802 58.203 43.8691 57.9776 43.8254 57.7552C43.8079 57.6668 43.7842 57.5807 43.733 57.5052C43.6325 57.357 43.4913 57.2704 43.3153 57.2442C42.912 57.1847 42.5301 57.3897 42.3509 57.7583C42.2678 57.9299 42.2298 58.1145 42.2144 58.3023C42.1973 58.5131 42.1857 58.7247 42.185 58.936C42.1811 59.6832 42.1835 60.4314 42.1828 61.1791C42.1828 61.2296 42.1919 61.2823 42.1713 61.3311C42.1543 61.3365 42.1416 61.3454 42.1288 61.3454C41.7292 61.3462 41.3293 61.3469 40.9297 61.3465C40.9117 61.3465 40.8941 61.3395 40.8736 61.3351C40.8514 61.2783 40.8601 61.2218 40.8601 61.1664C40.8592 60.3059 40.8618 59.4448 40.8581 58.5843C40.8578 58.3591 40.8427 58.1332 40.8323 57.9081C40.8273 57.8042 40.8078 57.7018 40.7686 57.6056C40.68 57.3846 40.5173 57.2602 40.2782 57.24C40.1265 57.2275 39.9773 57.2346 39.8327 57.2862C39.4975 57.4058 39.3018 57.6486 39.2244 57.9885C39.1932 58.1253 39.1747 58.2665 39.166 58.4071C39.152 58.6228 39.1471 58.8391 39.1465 59.0551C39.1447 59.7564 39.1458 60.457 39.1454 61.1579C39.1454 61.2133 39.1431 61.2692 39.1414 61.33C39.1129 61.3365 39.091 61.3462 39.0694 61.3465C38.679 61.3476 38.2886 61.3469 37.898 61.3465C37.8798 61.3465 37.8617 61.3407 37.8375 61.3362C37.8321 61.3088 37.825 61.2826 37.8221 61.2557C37.8192 61.228 37.8213 61.1996 37.8213 61.1713C37.8213 59.619 37.8213 58.0673 37.8217 56.515C37.8217 56.4596 37.8123 56.4026 37.8355 56.3508C37.9405 56.3341 38.7124 56.3256 38.9669 56.3374C38.9889 56.339 39.0113 56.345 39.0394 56.3497C39.0581 56.5593 39.0336 56.7645 39.0532 56.9664C39.0979 56.9726 39.11 56.9432 39.1275 56.9243C39.2357 56.8061 39.3508 56.6953 39.4794 56.5994C39.8186 56.3456 40.1988 56.217 40.6233 56.2223C40.7882 56.2244 40.9513 56.2393 41.1113 56.2831C41.437 56.3715 41.6983 56.5524 41.8997 56.8217C41.9415 56.878 41.9801 56.9366 42.0259 57.0023C42.0531 56.9775 42.0785 56.9591 42.0991 56.9363C42.2253 56.7963 42.3615 56.667 42.5163 56.5575C42.8412 56.3278 43.2015 56.2134 43.6013 56.2221C43.8096 56.2266 44.0146 56.2477 44.212 56.3171C44.7306 56.4994 45.0482 56.8598 45.1471 57.402C45.178 57.5725 45.1874 57.7468 45.1992 57.9206C45.2072 58.0328 45.2029 58.1461 45.2029 58.2585C45.2029 59.2276 45.2032 60.1966 45.2029 61.1655C45.2029 61.2207 45.2109 61.2772 45.1903 61.3342C45.1693 61.3387 45.152 61.3462 45.1339 61.3462C44.7389 61.3465 44.3438 61.3465 43.949 61.3462C43.9314 61.3464 43.9142 61.3389 43.8949 61.3351Z" fill="black"/>
<path fill-rule="evenodd" clip-rule="evenodd" d="M95.981 61.3478C95.5674 61.3478 95.1634 61.3478 94.7592 61.3467C94.7372 61.3467 94.715 61.3405 94.6903 61.3364C94.6684 61.277 94.6753 61.2203 94.6753 61.1653C94.6747 60.4032 94.6756 59.6413 94.6738 58.8794C94.6734 58.6678 94.6704 58.4561 94.6631 58.2449C94.6593 58.1182 94.6466 57.992 94.6339 57.8656C94.6057 57.5727 94.4125 57.3203 94.0611 57.2529C93.8409 57.211 93.6215 57.2291 93.4105 57.3159C93.1823 57.4098 93.0165 57.568 92.9128 57.7913C92.8491 57.9288 92.8099 58.0746 92.795 58.2248C92.7777 58.3978 92.7608 58.5716 92.7597 58.7443C92.7559 59.549 92.7568 60.3529 92.7561 61.1573C92.7561 61.2127 92.7532 61.2686 92.7523 61.3298C92.7231 61.3364 92.7018 61.3467 92.6797 61.3467C92.2893 61.3478 91.8992 61.3471 91.5088 61.3467C91.4908 61.3467 91.4734 61.3409 91.4476 61.3364C91.4438 61.3082 91.4373 61.2821 91.4353 61.2552C91.4335 61.2178 91.4346 61.1797 91.4346 61.1423C91.4346 58.9693 91.4346 56.7968 91.4349 54.6242C91.4349 54.5639 91.4268 54.5025 91.4476 54.4373C91.5535 54.4108 91.6608 54.4281 91.7674 54.4251C91.8756 54.4221 91.9838 54.4246 92.0923 54.4246C92.2001 54.4246 92.3083 54.4241 92.4164 54.4248C92.5239 54.4251 92.6308 54.4217 92.7332 54.4273C92.7676 54.4909 92.7559 54.5483 92.7559 54.6036C92.7567 55.3185 92.7563 56.0332 92.7567 56.748C92.7567 56.7952 92.757 56.8424 92.759 56.8892C92.7599 56.9008 92.7696 56.9119 92.7801 56.935C92.8151 56.9016 92.8445 56.8749 92.8729 56.8456C92.9818 56.734 93.0988 56.6325 93.2277 56.5459C93.5238 56.3468 93.8483 56.2366 94.2057 56.2244C94.5204 56.2137 94.824 56.2582 95.1138 56.3864C95.5614 56.5845 95.824 56.9299 95.9262 57.4013C95.9554 57.5338 95.9716 57.67 95.9799 57.806C95.9925 58.0172 95.9986 58.2293 95.999 58.4408C96.0005 59.3435 96.0001 60.2461 95.9994 61.1492C95.9988 61.2085 96.0054 61.2701 95.981 61.3478Z" fill="black"/>
<path fill-rule="evenodd" clip-rule="evenodd" d="M48.8113 58.0804C48.8278 57.9324 48.8204 57.8017 48.7879 57.6731C48.7394 57.4803 48.6237 57.3514 48.4285 57.294C48.2311 57.2355 48.0299 57.2299 47.8273 57.2379C47.7527 57.2409 47.6775 57.2529 47.6045 57.2678C47.4145 57.3072 47.27 57.4144 47.1709 57.5796C47.1345 57.6401 47.1053 57.7045 47.073 57.7668C47.0585 57.7953 47.0441 57.8236 47.0265 57.8583C46.6343 57.7881 46.2466 57.7178 45.8515 57.6468C45.8533 57.6168 45.8511 57.5939 45.8573 57.5731C45.9285 57.3372 46.0298 57.1162 46.1774 56.9179C46.3871 56.6359 46.6628 56.45 46.9976 56.3488C47.2101 56.2842 47.4274 56.2462 47.6491 56.2339C47.9969 56.2141 48.3446 56.215 48.6909 56.2597C48.9732 56.296 49.2469 56.3619 49.4895 56.5179C49.5759 56.5736 49.6596 56.6354 49.7364 56.704C49.8877 56.8391 49.9847 57.0087 50.0315 57.2072C50.0838 57.4274 50.1109 57.6517 50.1127 57.8779C50.1154 58.3148 50.1101 58.7524 50.1107 59.1899C50.1107 59.5285 50.1101 59.8672 50.1165 60.206C50.1203 60.4081 50.1417 60.6104 50.1995 60.8049C50.2376 60.9356 50.2874 61.0624 50.3335 61.1906C50.3493 61.2341 50.3684 61.2768 50.3832 61.3148C50.3694 61.3511 50.3429 61.3471 50.3213 61.3471C49.9313 61.3482 49.5407 61.3474 49.1505 61.3471C49.1365 61.3471 49.1227 61.3424 49.1011 61.3382C49.0893 61.3133 49.0722 61.2852 49.0619 61.2548C49.0274 61.1477 48.9949 61.0397 48.9604 60.9327C48.9493 60.898 48.9357 60.8641 48.9182 60.8174C48.8776 60.849 48.8445 60.8735 48.8136 60.9002C48.6676 61.0273 48.5113 61.1386 48.3392 61.2289C48.0198 61.3963 47.6787 61.4687 47.3196 61.4626C47.1024 61.4586 46.8867 61.4359 46.6815 61.3618C46.1742 61.1789 45.8446 60.8332 45.7289 60.301C45.675 60.0538 45.6835 59.8044 45.7542 59.5603C45.8666 59.1739 46.1055 58.8906 46.4692 58.7147C46.6817 58.6117 46.9067 58.5422 47.136 58.4906C47.4066 58.4298 47.6797 58.38 47.9497 58.3185C48.1741 58.268 48.3965 58.2081 48.6193 58.1489C48.6829 58.1316 48.7428 58.1047 48.8113 58.0804ZM48.8058 58.9547C48.7686 58.9614 48.7323 58.9665 48.6962 58.9758C48.5959 59.001 48.4964 59.0294 48.3958 59.0535C48.1585 59.11 47.9193 59.1612 47.6827 59.222C47.5696 59.2513 47.4567 59.289 47.3508 59.339C47.1108 59.4528 46.9945 59.6807 47.0314 59.9414C47.0732 60.2412 47.3294 60.4886 47.6383 60.5225C47.9873 60.5608 48.2867 60.4468 48.5431 60.2135C48.6911 60.078 48.7701 59.9068 48.7951 59.7068C48.8236 59.4724 48.8185 59.2375 48.8175 59.0027C48.8175 58.9887 48.8113 58.9752 48.8058 58.9547Z" fill="black"/>
<path fill-rule="evenodd" clip-rule="evenodd" d="M85.9262 59.2197C85.6915 59.2206 85.4717 59.2206 85.2509 59.2213C85.0347 59.2213 84.8179 59.2213 84.602 59.2213C84.3813 59.2213 84.1596 59.2213 83.9392 59.2213C83.7229 59.2213 83.5065 59.2213 83.2897 59.2213C83.069 59.2213 82.8488 59.2206 82.6214 59.2217C82.616 59.252 82.6064 59.2732 82.608 59.2945C82.6196 59.508 82.6608 59.7145 82.7596 59.906C82.9724 60.3191 83.4097 60.5398 83.8666 60.4604C84.0908 60.4214 84.2715 60.3075 84.3877 60.1094C84.4489 60.0043 84.4943 59.8908 84.5524 59.7695C84.5635 59.7691 84.5865 59.7637 84.6081 59.7668C84.9976 59.8312 85.3869 59.897 85.7763 59.9632C85.7982 59.9669 85.8198 59.9767 85.8509 59.9863C85.8418 60.0173 85.8378 60.0446 85.8267 60.0682C85.7697 60.1915 85.7178 60.3186 85.6495 60.4359C85.3604 60.9329 84.9326 61.253 84.3735 61.3838C83.8469 61.5069 83.3182 61.4951 82.7974 61.3427C82.2506 61.1818 81.8457 60.8439 81.5768 60.3426C81.4168 60.0453 81.324 59.7263 81.2804 59.3923C81.2343 59.0354 81.2363 58.6793 81.2839 58.3232C81.3264 57.9991 81.411 57.686 81.5677 57.3977C81.8889 56.8095 82.3661 56.4151 83.0287 56.2757C83.5265 56.1705 84.0225 56.201 84.4997 56.3862C85.0388 56.5958 85.4204 56.9751 85.6544 57.5033C85.7623 57.7457 85.8298 57.9996 85.8716 58.2607C85.917 58.544 85.9382 58.83 85.9341 59.1174C85.9335 59.1454 85.9295 59.173 85.9262 59.2197ZM84.5992 58.4016C84.6058 58.3835 84.612 58.3751 84.6112 58.3669C84.6101 58.1323 84.5644 57.9086 84.4445 57.7049C84.318 57.4895 84.1377 57.3348 83.8936 57.2707C83.3839 57.1367 82.9536 57.3688 82.7502 57.7888C82.6694 57.9562 82.6329 58.1356 82.6316 58.321C82.6316 58.3479 82.6378 58.3744 82.6411 58.3985C82.7609 58.4162 84.4571 58.4183 84.5992 58.4016Z" fill="black"/>
<path fill-rule="evenodd" clip-rule="evenodd" d="M60.5234 61.3302C60.4055 61.3514 59.3828 61.3563 59.2201 61.3373C59.2151 61.3137 59.2072 61.2877 59.2047 61.2606C59.202 61.228 59.2036 61.1951 59.2036 61.162C59.2036 59.6146 59.2036 58.0668 59.204 56.5193C59.204 56.464 59.1989 56.408 59.212 56.3559C59.3336 56.331 60.2879 56.3303 60.4199 56.3552C60.4228 56.3888 60.4288 56.4246 60.4291 56.4609C60.4302 56.6163 60.4291 56.7714 60.4298 56.9266C60.4302 56.9575 60.4346 56.9891 60.4386 57.0363C60.4658 57.0167 60.4807 57.0089 60.4923 56.9967C60.5502 56.9352 60.6043 56.8702 60.6643 56.8104C61.0643 56.4118 61.5466 56.2152 62.1122 56.2217C62.3937 56.2252 62.6624 56.2777 62.9206 56.3911C63.3775 56.5918 63.6304 56.9473 63.7187 57.4289C63.7644 57.6793 63.7751 57.9335 63.7751 58.1877C63.7748 58.832 63.7751 59.4764 63.7751 60.1207C63.7751 60.4786 63.7752 60.8357 63.7744 61.1929C63.7744 61.2392 63.7851 61.2872 63.7581 61.332C63.7456 61.3365 63.7327 61.3454 63.7198 61.3454C63.3199 61.3462 62.9204 61.3469 62.5204 61.3465C62.5028 61.3465 62.4854 61.34 62.4639 61.3351C62.4443 61.2783 62.4523 61.2214 62.4523 61.166C62.4514 60.3945 62.4538 59.6231 62.4507 58.8518C62.4489 58.5979 62.4389 58.3441 62.4242 58.0908C62.4176 57.9791 62.3997 57.8649 62.3681 57.7583C62.2789 57.4559 62.0307 57.2631 61.7164 57.2388C61.5695 57.2273 61.4242 57.2359 61.2842 57.2845C60.902 57.4184 60.6594 57.6795 60.5916 58.0824C60.5591 58.2722 60.547 58.465 60.5343 58.6575C60.5254 58.8076 60.5281 58.9585 60.5281 59.1091C60.5277 59.7955 60.5281 60.4824 60.5277 61.1693C60.5275 61.2202 60.5248 61.271 60.5234 61.3302Z" fill="black"/>
<path fill-rule="evenodd" clip-rule="evenodd" d="M31.6733 59.7281C31.688 59.7711 31.6995 59.802 31.7093 59.8332C31.8289 60.2131 32.0886 60.4299 32.4788 60.4876C32.718 60.5231 32.9576 60.5156 33.1941 60.4631C33.3097 60.437 33.4194 60.3958 33.5166 60.3266C33.6655 60.2204 33.7216 60.0745 33.698 59.8962C33.6833 59.7849 33.6268 59.6999 33.5249 59.6551C33.4348 59.6155 33.3417 59.5812 33.2462 59.5567C32.9415 59.4793 32.6343 59.4098 32.3292 59.3326C32.0508 59.2621 31.7761 59.1793 31.5084 59.0751C31.3505 59.0136 31.197 58.9431 31.0607 58.8391C30.6497 58.5251 30.4894 58.1026 30.5431 57.5987C30.598 57.0862 30.8811 56.7225 31.3261 56.479C31.5431 56.3599 31.7801 56.2969 32.0236 56.2642C32.5017 56.1992 32.9802 56.203 33.4563 56.2878C33.5669 56.3078 33.6765 56.337 33.7838 56.3712C34.1997 56.5028 34.5044 56.7683 34.7057 57.1525C34.7559 57.2477 34.7934 57.3499 34.8341 57.4503C34.8441 57.4746 34.8445 57.5039 34.8492 57.5297C34.7453 57.5712 33.8665 57.7401 33.623 57.7663C33.6119 57.7436 33.5977 57.72 33.5883 57.6944C33.4759 57.3957 33.2513 57.2386 32.9448 57.1921C32.6867 57.1525 32.428 57.1636 32.1734 57.2188C32.096 57.2353 32.0203 57.2656 31.9497 57.3016C31.9014 57.327 31.8563 57.3671 31.8233 57.4107C31.7309 57.5306 31.7476 57.6887 31.8553 57.7953C31.9068 57.8458 31.9704 57.8752 32.0365 57.9019C32.2422 57.984 32.4563 58.0392 32.6702 58.0935C32.9758 58.1705 33.2825 58.2413 33.5868 58.3214C33.796 58.3764 34.0005 58.4483 34.1959 58.5422C34.2936 58.5888 34.3898 58.6386 34.4813 58.6962C34.753 58.8672 34.9265 59.1103 34.9948 59.425C35.0952 59.8877 35.0139 60.3135 34.7228 60.6917C34.4953 60.9877 34.2006 61.1887 33.8476 61.3077C33.6462 61.376 33.439 61.4199 33.228 61.4397C32.7668 61.4815 32.307 61.476 31.8538 61.3647C31.515 61.2817 31.2083 61.1357 30.9446 60.9035C30.6612 60.6542 30.472 60.3462 30.367 59.9848C30.3636 59.9718 30.3639 59.9571 30.3619 59.9355C30.3861 59.9264 30.4109 59.9117 30.4367 59.9079C30.8081 59.8503 31.1801 59.7935 31.552 59.7375C31.5883 59.7314 31.6259 59.7317 31.6733 59.7281Z" fill="black"/>
<path fill-rule="evenodd" clip-rule="evenodd" d="M50.4931 59.9331C50.5143 59.9247 50.5349 59.9138 50.557 59.9089C50.9042 59.8418 51.6843 59.7328 51.8045 59.7363C51.8145 59.763 51.825 59.7936 51.8379 59.8231C51.8753 59.9088 51.906 59.9986 51.9536 60.0787C52.0752 60.2834 52.2595 60.4087 52.4892 60.4613C52.6035 60.4875 52.7213 60.5011 52.8379 60.5058C53.0309 60.5131 53.2236 60.4984 53.4099 60.4399C53.5003 60.4116 53.586 60.374 53.6619 60.3168C53.8055 60.2086 53.8664 60.0348 53.8248 59.8666C53.8006 59.7691 53.7469 59.6938 53.6552 59.6547C53.5644 59.6159 53.4712 59.5812 53.3766 59.5567C53.1081 59.488 52.8373 59.4285 52.5686 59.3609C52.2583 59.283 51.9507 59.1964 51.6529 59.0789C51.5485 59.0375 51.4435 58.9936 51.346 58.9377C50.9977 58.7383 50.7647 58.4474 50.6916 58.0474C50.567 57.369 50.8748 56.8226 51.3959 56.5123C51.5877 56.398 51.7985 56.3334 52.016 56.288C52.2612 56.2375 52.5094 56.2228 52.7591 56.2223C53.0845 56.2217 53.4077 56.2406 53.7258 56.3158C54.0432 56.3913 54.3278 56.5257 54.558 56.7634C54.7554 56.9671 54.8885 57.2072 54.9733 57.4757C54.9776 57.489 54.9796 57.5033 54.982 57.517C54.9824 57.5211 54.9796 57.5264 54.9784 57.5306C54.8765 57.574 54.1213 57.7205 53.7585 57.7668C53.7474 57.7463 53.7323 57.7236 53.7227 57.6993C53.6076 57.3966 53.381 57.2353 53.0676 57.1907C52.819 57.1556 52.5702 57.164 52.3244 57.2152C52.2512 57.2306 52.1793 57.2564 52.1106 57.2856C52.0685 57.3034 52.028 57.3317 51.9942 57.3633C51.8537 57.4957 51.8615 57.7002 52.0142 57.8178C52.0654 57.8574 52.1268 57.889 52.1878 57.9086C52.3937 57.9749 52.6 58.039 52.8088 58.0942C53.1086 58.1737 53.4113 58.2418 53.7115 58.3203C53.9256 58.376 54.1342 58.4487 54.3332 58.5458C54.4474 58.601 54.56 58.6615 54.6641 58.7328C54.9303 58.9139 55.0833 59.1714 55.1398 59.4868C55.2667 60.1942 54.9357 60.76 54.3937 61.1117C54.182 61.2496 53.9475 61.3355 53.702 61.3832C53.1271 61.4962 52.5524 61.4978 51.9808 61.3627C51.6075 61.2744 51.2772 61.1029 51.0006 60.8327C50.756 60.5939 50.5919 60.3077 50.498 59.9803C50.4938 59.9669 50.4951 59.9531 50.4931 59.9331Z" fill="black"/>
<path fill-rule="evenodd" clip-rule="evenodd" d="M68.6839 57.5456C68.2646 57.6232 67.8597 57.6976 67.4498 57.7733C67.4353 57.7407 67.4222 57.7163 67.4123 57.6909C67.2968 57.3949 67.0738 57.2364 66.766 57.1912C66.5129 57.154 66.259 57.1643 66.0086 57.2164C65.9405 57.2306 65.8733 57.2547 65.8085 57.282C65.766 57.3001 65.7253 57.3277 65.6912 57.3595C65.5436 57.4943 65.5516 57.7038 65.7132 57.8222C65.7693 57.8636 65.8352 57.8959 65.9008 57.9168C66.0978 57.98 66.2955 58.0408 66.4953 58.0928C66.7998 58.1725 67.107 58.2417 67.4115 58.3221C67.6254 58.3782 67.8344 58.4514 68.0338 58.5485C68.1433 58.6023 68.251 58.6606 68.3521 58.7287C68.614 58.9062 68.7725 59.1568 68.8282 59.4666C68.9506 60.147 68.6957 60.6721 68.1498 61.0693C67.9214 61.2349 67.6603 61.3316 67.3863 61.385C66.8163 61.4958 66.2463 61.4962 65.6789 61.3638C65.2807 61.2705 64.9324 61.0836 64.6477 60.786C64.4183 60.5468 64.2656 60.2648 64.1795 59.9385C64.2075 59.9269 64.2316 59.912 64.2578 59.908C64.6339 59.8492 65.0103 59.792 65.3869 59.735C65.4188 59.7303 65.4517 59.7303 65.4911 59.7272C65.5029 59.7542 65.5153 59.7786 65.5251 59.8038C65.5434 59.8519 65.5576 59.9017 65.5779 59.9493C65.6928 60.2178 65.8939 60.3869 66.1757 60.462C66.2906 60.4924 66.4074 60.5036 66.5247 60.5065C66.723 60.5107 66.9196 60.4978 67.1103 60.4374C67.2007 60.4085 67.2866 60.3703 67.3614 60.3115C67.502 60.2009 67.561 60.0233 67.5156 59.8585C67.4902 59.7668 67.4406 59.6941 67.3529 59.6571C67.2628 59.6186 67.1695 59.5825 67.0749 59.5583C66.8432 59.4984 66.6087 59.4479 66.376 59.39C66.0518 59.3104 65.7292 59.2235 65.4172 59.106C65.2897 59.0577 65.1617 59.0065 65.0435 58.9402C64.6887 58.7403 64.4528 58.445 64.3824 58.0392C64.2567 57.3149 64.6101 56.7759 65.1328 56.4877C65.3665 56.3588 65.6215 56.2944 65.8844 56.2591C66.3017 56.2037 66.7195 56.2099 67.1361 56.2626C67.2995 56.2835 67.4602 56.3203 67.6169 56.3723C68.0046 56.5003 68.2982 56.7438 68.5012 57.0971C68.5786 57.2317 68.6408 57.3728 68.6839 57.5456Z" fill="black"/>
<path fill-rule="evenodd" clip-rule="evenodd" d="M74.0669 56.3496C74.0707 56.3739 74.0756 56.3917 74.0756 56.4093C74.0756 58.0366 74.0756 59.664 74.0745 61.2913C74.0745 61.3048 74.066 61.3177 74.0598 61.3356C74.0333 61.3396 74.0064 61.3467 73.9794 61.3476C73.6549 61.36 72.9761 61.352 72.8577 61.3342C72.8537 61.3048 72.8458 61.2741 72.8458 61.2425C72.8447 61.0774 72.8454 60.9133 72.8447 60.748C72.8447 60.7174 72.8399 60.6858 72.8379 60.6565C72.7935 60.6534 72.7831 60.6832 72.7673 60.703C72.4395 61.1098 72.0147 61.3523 71.5029 61.4366C71.1447 61.4958 70.7901 61.4662 70.4503 61.3266C69.9962 61.1397 69.7087 60.8096 69.5961 60.3299C69.5466 60.1181 69.5252 59.9033 69.5157 59.6871C69.5119 59.6024 69.513 59.5175 69.513 59.4328C69.5126 58.4641 69.5126 57.4953 69.513 56.5262C69.513 56.4701 69.5153 56.4149 69.5164 56.3546C69.5402 56.3479 69.5573 56.3392 69.5745 56.3392C69.974 56.3385 70.3735 56.3385 70.7735 56.3388C70.7873 56.3388 70.8011 56.3439 70.8229 56.3479C70.8271 56.3772 70.8354 56.4088 70.836 56.4396C70.8371 56.5951 70.8364 56.7505 70.8364 56.9054C70.8367 57.5781 70.8347 58.2509 70.8387 58.9231C70.8404 59.1581 70.8532 59.3934 70.8652 59.6282C70.869 59.7078 70.8796 59.7875 70.8943 59.8659C70.9504 60.1648 71.1805 60.3883 71.4812 60.4388C71.7944 60.4918 72.0789 60.4245 72.3321 60.2318C72.5452 60.0691 72.6676 59.8561 72.7005 59.5892C72.7335 59.3183 72.7486 59.0459 72.7501 58.7728C72.7542 58.025 72.753 57.2773 72.7542 56.5295C72.7542 56.4732 72.7542 56.4173 72.7542 56.3557C72.7827 56.3487 72.804 56.3383 72.8254 56.3383C73.2162 56.3374 73.6068 56.3374 73.997 56.3379C74.0195 56.3381 74.0413 56.3452 74.0669 56.3496Z" fill="black"/>
<path fill-rule="evenodd" clip-rule="evenodd" d="M90.9635 59.6555C90.9594 59.6932 90.9597 59.717 90.9539 59.7392C90.8942 59.972 90.8125 60.1969 90.6959 60.4079C90.4286 60.8882 90.0315 61.2078 89.502 61.354C88.9901 61.4947 88.4686 61.511 87.9542 61.3807C87.1657 61.1817 86.6558 60.674 86.3954 59.9104C86.3059 59.6467 86.2622 59.3724 86.2496 59.094C86.2357 58.7695 86.2438 58.4458 86.3059 58.1253C86.3537 57.8788 86.426 57.6412 86.542 57.4187C86.8307 56.864 87.2749 56.4916 87.8768 56.3256C88.4419 56.17 89.0119 56.1798 89.5757 56.343C90.0238 56.4725 90.3672 56.744 90.6145 57.1393C90.7431 57.345 90.852 57.6007 90.8947 57.7982C90.8844 57.8053 90.8738 57.8178 90.8615 57.8204C90.4687 57.8925 90.0754 57.9636 89.6826 58.0345C89.6605 58.0383 89.6369 58.0345 89.6084 58.0345C89.5973 57.9956 89.586 57.9602 89.577 57.9246C89.4444 57.4265 89.0845 57.2687 88.7393 57.2635C88.6215 57.2613 88.5042 57.2666 88.3898 57.2981C88.1061 57.3762 87.8986 57.5464 87.7686 57.8109C87.6994 57.9513 87.6602 58.1018 87.6388 58.2555C87.5796 58.6833 87.5855 59.1096 87.6863 59.5303C87.7119 59.6395 87.7493 59.7482 87.8005 59.8476C87.9602 60.159 88.2211 60.3344 88.5679 60.376C88.7028 60.3927 88.8394 60.3885 88.9741 60.3547C89.1998 60.2979 89.3732 60.1724 89.4909 59.9703C89.5568 59.8557 89.6002 59.7319 89.6345 59.6042C89.6483 59.555 89.6607 59.5051 89.673 59.4561C89.7226 59.4287 89.7696 59.4463 89.8143 59.4537C90.0553 59.4933 90.2958 59.5358 90.5366 59.5774C90.6525 59.5975 90.768 59.6173 90.8842 59.6378C90.906 59.6417 90.9285 59.6476 90.9635 59.6555Z" fill="black"/>
<path fill-rule="evenodd" clip-rule="evenodd" d="M78.9397 57.3877C78.7441 57.3877 78.5569 57.3877 78.3666 57.3877C78.3588 57.3624 78.3488 57.3461 78.3484 57.3287C78.3477 57.0181 78.3481 56.708 78.3481 56.3973C78.3481 56.3842 78.3535 56.3708 78.3595 56.3479C78.5485 56.3223 78.7405 56.3488 78.9242 56.333C78.9674 56.2935 78.9573 56.2493 78.9573 56.2083C78.958 55.973 78.9576 55.7378 78.9576 55.5027C78.9576 55.4511 78.9576 55.3999 78.9576 55.3412C79.0989 55.2444 79.2485 55.1667 79.3927 55.0808C79.534 54.997 79.6773 54.9152 79.8198 54.8326C79.9656 54.7484 80.1112 54.6639 80.2563 54.5797C80.3003 54.6142 80.2856 54.6547 80.2859 54.6886C80.2868 55.1825 80.2865 55.6764 80.2868 56.17C80.2868 56.2203 80.2794 56.2726 80.3023 56.3272C80.4488 56.3476 80.5935 56.333 80.7381 56.3367C80.8833 56.3399 81.0286 56.3334 81.1775 56.3407C81.2067 56.4296 81.1895 56.5146 81.1924 56.5974C81.1956 56.6868 81.1933 56.7765 81.1933 56.8656C81.1933 56.9502 81.1944 57.0352 81.1929 57.1193C81.192 57.2028 81.1987 57.2874 81.1853 57.379C81.0823 57.394 80.9845 57.3857 80.8873 57.3868C80.7927 57.3884 80.6988 57.3868 80.6044 57.3871C80.5067 57.3875 80.4087 57.3893 80.3032 57.39C80.297 57.4229 80.2887 57.4492 80.287 57.4754C80.285 57.5409 80.2863 57.6074 80.2863 57.6729C80.2867 58.355 80.2863 59.0364 80.2887 59.7186C80.2887 59.8448 80.2925 59.9727 80.3092 60.0985C80.328 60.2398 80.4299 60.3329 80.5708 60.3555C80.6166 60.3629 80.6645 60.3625 80.7106 60.3605C80.8247 60.356 80.9331 60.321 81.0411 60.2903C81.0856 60.2772 81.1297 60.2636 81.1842 60.2472C81.2327 60.5866 81.2588 60.9187 81.3008 61.2536C81.2692 61.271 81.2429 61.2899 81.2136 61.301C81.0371 61.3691 80.8546 61.4144 80.6672 61.4368C80.3961 61.4687 80.1238 61.4807 79.8538 61.421C79.715 61.3903 79.5836 61.3405 79.4594 61.271C79.2752 61.1684 79.1476 61.0191 79.0764 60.8198C79.007 60.6275 78.9769 60.4279 78.9698 60.2253C78.962 60.0001 78.9591 59.7742 78.9584 59.5481C78.9569 58.8897 78.958 58.2311 78.9576 57.5727C78.9576 57.5173 78.9642 57.461 78.9397 57.3877Z" fill="black"/>
<path fill-rule="evenodd" clip-rule="evenodd" d="M74.9191 56.3534C75.0487 56.3338 75.9748 56.3307 76.1291 56.3472C76.1335 56.3764 76.1417 56.4073 76.142 56.438C76.1435 56.5793 76.1426 56.7207 76.1426 56.8611C76.1426 56.903 76.1426 56.945 76.1426 57.0049C76.1709 56.986 76.188 56.9797 76.197 56.9673C76.2285 56.9259 76.2542 56.8809 76.2855 56.8398C76.3452 56.761 76.4042 56.682 76.4676 56.6061C76.6973 56.3307 76.9929 56.2085 77.3506 56.2228C77.6047 56.2335 77.8413 56.3 78.0659 56.416C78.0942 56.4304 78.1207 56.45 78.1487 56.468C78.1463 56.4917 78.1471 56.5104 78.1413 56.5277C78.0149 56.8856 77.8876 57.244 77.7637 57.5927C77.7198 57.6145 77.7002 57.5878 77.6759 57.5765C77.5901 57.5386 77.5073 57.4928 77.4202 57.4601C77.2575 57.3997 77.0902 57.3913 76.9207 57.4331C76.7378 57.4785 76.5987 57.5811 76.503 57.7439C76.3975 57.9255 76.338 58.1222 76.3084 58.329C76.2742 58.5761 76.2539 58.8242 76.2517 59.0737C76.2463 59.7649 76.2441 60.4562 76.2397 61.1472C76.2397 61.2073 76.2466 61.2688 76.2259 61.3344C76.1983 61.3389 76.1713 61.3467 76.1449 61.3471C75.7689 61.3485 75.3924 61.3485 75.0166 61.3478C74.9895 61.3478 74.9617 61.342 74.9283 61.3382C74.9236 61.3053 74.918 61.2786 74.9162 61.2516C74.9143 61.214 74.9152 61.1762 74.9152 61.139C74.9152 59.6057 74.9152 58.0731 74.9152 56.5406C74.9152 56.4798 74.9182 56.4197 74.9191 56.3534Z" fill="black"/>
<path fill-rule="evenodd" clip-rule="evenodd" d="M37.0424 61.3291C36.922 61.3522 35.9102 61.3565 35.7366 61.3378C35.731 61.3144 35.7222 61.2884 35.7199 61.2619C35.7172 61.2291 35.7192 61.1965 35.7192 61.1635C35.7192 59.6162 35.7192 58.0693 35.7192 56.5224C35.7192 56.467 35.7221 56.4118 35.7228 56.3668C35.7357 56.3534 35.7386 56.349 35.7426 56.3468C35.746 56.3443 35.7511 56.3428 35.7555 56.3425C35.7883 56.3405 35.821 56.3374 35.8539 56.3374C36.2301 56.3378 36.6064 56.3383 36.9821 56.3394C36.9959 56.3394 37.0093 56.345 37.03 56.3503C37.0338 56.3757 37.0404 56.402 37.0418 56.4289C37.044 56.4621 37.0425 56.495 37.0425 56.5275C37.0425 58.0697 37.0425 59.6121 37.0425 61.1544C37.0424 61.2098 37.0424 61.2656 37.0424 61.3291Z" fill="black"/>
<path fill-rule="evenodd" clip-rule="evenodd" d="M58.3137 56.3465C58.3391 56.5046 58.3489 60.0804 58.3291 61.234C58.3288 61.2659 58.324 61.2981 58.3213 61.3358C58.283 61.3405 58.2514 61.3469 58.2198 61.3478C57.7195 61.3618 57.1398 61.3543 57.017 61.3309C57.0135 61.3064 57.0074 61.2797 57.0063 61.2528C57.0041 61.2105 57.0063 61.1682 57.0063 61.1257C57.0063 59.5932 57.0063 58.0604 57.0063 56.5271C57.0063 56.4716 57.0074 56.416 57.0081 56.3534C57.0366 56.3472 57.0579 56.3385 57.0796 56.3385C57.475 56.3376 57.8697 56.3381 58.2648 56.3385C58.2783 56.3385 58.2924 56.3432 58.3137 56.3465Z" fill="black"/>
<path fill-rule="evenodd" clip-rule="evenodd" d="M32.0739 51.8331C32.0933 51.767 32.087 51.7012 32.0719 51.6375C32.0483 51.5385 31.9878 51.4697 31.8874 51.4428C31.7449 51.4047 31.6 51.394 31.4556 51.4328C31.3708 51.4555 31.3025 51.5044 31.2559 51.5801C31.2315 51.6199 31.2097 51.6613 31.1812 51.7119C31.0817 51.7234 30.9835 51.6858 30.8827 51.6718C30.7857 51.6586 30.6897 51.6359 30.5925 51.6173C30.5925 51.595 30.5889 51.5801 30.5933 51.5678C30.6998 51.238 30.9079 51.0174 31.2573 50.9471C31.5665 50.8848 31.8743 50.8906 32.1814 50.9558C32.2983 50.9805 32.4038 51.0326 32.4986 51.1049C32.6028 51.1844 32.6729 51.2861 32.702 51.4167C32.7379 51.5788 32.7437 51.7433 32.7437 51.9075C32.7437 52.1145 32.7352 52.3211 32.7352 52.5283C32.7352 52.6738 32.743 52.8196 32.7474 52.965C32.7516 53.1034 32.7848 53.2345 32.8369 53.3618C32.8492 53.3912 32.8563 53.4226 32.8661 53.4537C32.7554 53.4787 32.3557 53.4802 32.2242 53.4568C32.197 53.3821 32.1687 53.3041 32.1354 53.2134C32.0897 53.2483 32.0534 53.2754 32.0174 53.3024C31.7232 53.5263 31.3944 53.5815 31.0423 53.4896C30.6245 53.3812 30.4169 52.9698 30.5426 52.5607C30.5974 52.3816 30.7127 52.2487 30.8812 52.1644C31.0171 52.0967 31.1623 52.0577 31.3092 52.0253C31.4885 51.9863 31.6686 51.9513 31.8469 51.9106C31.9244 51.8928 32.0029 51.8763 32.0739 51.8331ZM32.0795 52.2714C31.8489 52.3288 31.635 52.3811 31.4213 52.4355C31.3897 52.4435 31.359 52.4577 31.3305 52.4735C31.1861 52.5543 31.1346 52.713 31.2085 52.861C31.2726 52.9899 31.3819 53.0562 31.5241 53.0655C31.6662 53.0744 31.7917 53.0248 31.905 52.9413C32.0009 52.871 32.059 52.7762 32.0741 52.6587C32.0897 52.5381 32.0882 52.4159 32.0795 52.2714Z" fill="black"/>
<path fill-rule="evenodd" clip-rule="evenodd" d="M42.2391 53.4511C42.135 53.4782 41.7437 53.482 41.5965 53.4575C41.5692 53.3834 41.5405 53.3055 41.5077 53.2163C41.4777 53.2365 41.4543 53.2494 41.4348 53.2659C41.1745 53.4867 40.8738 53.5621 40.5396 53.518C40.3924 53.4985 40.2582 53.4461 40.1405 53.3534C39.7501 53.0466 39.7877 52.3536 40.3021 52.1405C40.4679 52.0717 40.6419 52.033 40.8169 51.9968C40.9825 51.9625 41.1472 51.924 41.3119 51.8848C41.3569 51.8741 41.3996 51.855 41.4436 51.8396C41.4632 51.7786 41.4584 51.7223 41.4494 51.6673C41.4299 51.5427 41.3582 51.4617 41.2342 51.4356C41.1189 51.4111 41.0029 51.4002 40.8845 51.4205C40.7592 51.4423 40.6664 51.5035 40.6057 51.6142C40.5899 51.6428 40.5756 51.6722 40.5594 51.7025C40.5469 51.7065 40.5333 51.7148 40.5208 51.7141C40.4879 51.7127 40.4548 51.7088 40.4225 51.703C40.2705 51.6754 40.1189 51.6462 39.9702 51.6188C39.9662 51.6012 39.9602 51.5914 39.9626 51.5837C40.0505 51.2856 40.2237 51.0659 40.5315 50.9727C40.7465 50.9077 40.9665 50.8946 41.1881 50.9084C41.305 50.9157 41.4212 50.9339 41.5371 50.9535C41.5925 50.9629 41.646 50.9834 41.6976 51.005C41.9415 51.1067 42.0815 51.2869 42.0973 51.5532C42.1071 51.7221 42.1111 51.8913 42.1118 52.0608C42.1131 52.2768 42.1052 52.4933 42.1067 52.7096C42.108 52.8318 42.114 52.9545 42.1305 53.0756C42.1421 53.1628 42.1733 53.2479 42.1984 53.3335C42.2095 53.3729 42.2255 53.4116 42.2391 53.4511ZM41.4515 52.2719C41.2237 52.3277 41.0141 52.378 40.8048 52.431C40.7688 52.4401 40.7336 52.4561 40.7011 52.4744C40.5563 52.555 40.5059 52.7143 40.5801 52.8619C40.6448 52.9906 40.7543 53.0566 40.8963 53.0655C41.0334 53.0742 41.1548 53.0268 41.2658 52.9494C41.3677 52.8781 41.4294 52.7804 41.4452 52.6576C41.4615 52.5367 41.459 52.415 41.4515 52.2719Z" fill="black"/>
<path fill-rule="evenodd" clip-rule="evenodd" d="M44.8372 53.4566C44.6973 53.4789 44.3018 53.478 44.1911 53.4571C44.1608 53.4105 44.1735 53.3571 44.1729 53.3068C44.1722 52.9256 44.1729 52.5449 44.1722 52.1639C44.1722 52.0602 44.1684 51.9567 44.1631 51.8536C44.1602 51.8067 44.152 51.7601 44.1433 51.7141C44.1134 51.5549 43.9804 51.3963 43.727 51.412C43.4379 51.4294 43.2478 51.6279 43.2258 51.877C43.2138 52.0174 43.202 52.1581 43.2006 52.299C43.1967 52.6376 43.1993 52.9761 43.1993 53.3151C43.1993 53.3613 43.1951 53.4072 43.1926 53.4562C43.1181 53.4833 43.0473 53.4704 42.9781 53.4726C42.9031 53.4747 42.8278 53.4747 42.7528 53.4726C42.6836 53.4704 42.6128 53.484 42.5416 53.456C42.5376 53.4361 42.5312 53.4181 42.5312 53.4003C42.5309 52.5961 42.5309 51.7922 42.5309 50.984C42.6358 50.942 42.7395 50.9636 42.8403 50.9618C42.9378 50.9604 43.0366 50.9504 43.1314 50.9711C43.1602 51.0254 43.1463 51.0778 43.1492 51.1285C43.1519 51.1792 43.1519 51.2302 43.1532 51.279C43.204 51.2959 43.2164 51.2558 43.2367 51.2346C43.3692 51.0958 43.5238 50.992 43.711 50.9428C43.9561 50.8783 44.1953 50.8948 44.4273 50.9996C44.6358 51.094 44.7605 51.2562 44.8056 51.4773C44.8254 51.5734 44.835 51.6729 44.8375 51.771C44.8426 51.9967 44.8413 52.2225 44.8415 52.4484C44.8419 52.7353 44.8419 53.0222 44.8412 53.3093C44.8417 53.3558 44.8388 53.4019 44.8372 53.4566Z" fill="black"/>
<path fill-rule="evenodd" clip-rule="evenodd" d="M32.9348 52.7658C33.1521 52.7199 33.3658 52.6959 33.585 52.6631C33.6035 52.7023 33.6197 52.7348 33.634 52.768C33.704 52.9285 33.8283 53.017 33.9992 53.0426C34.1122 53.0593 34.2255 53.0589 34.3362 53.0369C34.4 53.0244 34.4626 52.999 34.5194 52.9681C34.5901 52.93 34.6248 52.8641 34.6248 52.7815C34.6248 52.7083 34.5946 52.6513 34.5276 52.6235C34.4628 52.5966 34.3947 52.5774 34.3268 52.5597C34.1092 52.5018 33.8897 52.449 33.6725 52.3882C33.5825 52.3631 33.494 52.3286 33.4096 52.2885C32.9417 52.0667 32.9295 51.51 33.1913 51.2164C33.2912 51.1047 33.4112 51.0261 33.5529 50.9802C33.7708 50.9104 33.9956 50.8937 34.2222 50.9088C34.3437 50.917 34.4657 50.9326 34.585 50.9584C34.9008 51.0265 35.133 51.2616 35.1973 51.5518C35.1052 51.5908 34.7982 51.6526 34.5884 51.6733C34.5741 51.648 34.5583 51.6199 34.5434 51.5919C34.4886 51.4904 34.4025 51.4294 34.2926 51.4022C34.1338 51.3628 33.9749 51.3738 33.8178 51.4131C33.7822 51.4221 33.7468 51.4388 33.7163 51.4601C33.6172 51.5289 33.6188 51.6531 33.7207 51.7163C33.7641 51.7434 33.8138 51.7626 33.8632 51.776C34.035 51.8234 34.2089 51.8639 34.3813 51.912C34.5302 51.954 34.6785 51.9992 34.8245 52.0499C34.8904 52.0729 34.9532 52.108 35.0133 52.1443C35.1728 52.2396 35.2628 52.3847 35.2888 52.5665C35.3213 52.7867 35.2706 52.9865 35.1281 53.1604C35.0081 53.3071 34.8557 53.4037 34.6761 53.4599C34.5316 53.5052 34.3827 53.5236 34.2315 53.5279C34.019 53.5339 33.8078 53.524 33.6037 53.4579C33.3056 53.3616 33.088 53.1746 32.9682 52.881C32.9544 52.8468 32.9471 52.81 32.9348 52.7658Z" fill="black"/>
<path fill-rule="evenodd" clip-rule="evenodd" d="M35.6465 50.9785C35.7542 50.9547 36.1535 50.9533 36.2781 50.976C36.3106 51.0214 36.2979 51.0744 36.2982 51.1245C36.2995 51.4299 36.2975 51.7352 36.2995 52.0411C36.3006 52.2242 36.3053 52.4076 36.3124 52.5906C36.3146 52.6513 36.3231 52.713 36.3396 52.7709C36.3747 52.8926 36.4573 52.9768 36.5793 53.0075C36.7921 53.0609 36.9797 53.0101 37.1313 52.847C37.2043 52.768 37.2403 52.6714 37.2465 52.5654C37.2568 52.4059 37.2688 52.2463 37.2702 52.0869C37.2742 51.7624 37.271 51.4383 37.2717 51.1138C37.2717 51.068 37.2753 51.0225 37.2771 50.9794C37.3914 50.9558 37.7794 50.9529 37.9243 50.9738C37.9294 50.9972 37.9386 51.0234 37.9401 51.0499C37.9425 51.1015 37.9408 51.1532 37.9408 51.2051C37.9408 51.9006 37.9412 52.5961 37.9401 53.2917C37.9401 53.3469 37.9528 53.4045 37.9239 53.4562C37.8012 53.4804 37.4457 53.4784 37.3305 53.4522C37.3049 53.356 37.3342 53.2512 37.3116 53.1533C37.2615 53.1432 37.2512 53.1831 37.231 53.204C37.0874 53.3547 36.9149 53.4566 36.7128 53.5016C36.4871 53.5519 36.2646 53.5407 36.0524 53.4381C35.8688 53.3498 35.7408 53.2113 35.6894 53.0126C35.6632 52.9137 35.6453 52.8103 35.6389 52.7081C35.6295 52.563 35.6329 52.4168 35.6329 52.2712C35.6322 51.8904 35.6322 51.5098 35.6329 51.1292C35.6335 51.0788 35.6227 51.0265 35.6465 50.9785Z" fill="black"/>
<path fill-rule="evenodd" clip-rule="evenodd" d="M45.0585 52.7786C45.1649 52.7382 45.5544 52.6761 45.71 52.6741C45.724 52.7037 45.7405 52.7362 45.7551 52.7693C45.8246 52.9307 45.9497 53.0177 46.1211 53.0426C46.2288 53.0582 46.337 53.0553 46.4445 53.0399C46.5148 53.0295 46.5814 53.007 46.6415 52.9679C46.7055 52.9269 46.7412 52.8681 46.744 52.7925C46.7472 52.7157 46.7194 52.6514 46.6454 52.6217C46.5804 52.5953 46.5119 52.5766 46.444 52.5587C46.2261 52.5011 46.0067 52.4484 45.7896 52.3874C45.6995 52.3622 45.6116 52.3266 45.5266 52.2866C45.0522 52.0635 45.0583 51.488 45.3138 51.2129C45.4155 51.1033 45.5341 51.0239 45.6766 50.9789C45.8951 50.9102 46.1195 50.8935 46.3463 50.9088C46.4634 50.9168 46.5809 50.9309 46.6949 50.9562C46.9993 51.0232 47.2032 51.209 47.3089 51.5017C47.3134 51.5144 47.3145 51.5285 47.3159 51.5425C47.3169 51.5469 47.3149 51.5518 47.3123 51.5647C47.1204 51.6144 46.9208 51.6397 46.7149 51.6794C46.6984 51.6515 46.6822 51.6248 46.6668 51.5972C46.606 51.4875 46.513 51.4236 46.391 51.3971C46.2404 51.3644 46.0912 51.3755 45.9434 51.4116C45.8991 51.4223 45.8547 51.4454 45.8188 51.4741C45.7418 51.5362 45.744 51.6475 45.825 51.7043C45.87 51.7363 45.9239 51.759 45.9773 51.774C46.1489 51.8225 46.3227 51.8636 46.4954 51.9108C46.6265 51.9467 46.759 51.9803 46.8865 52.0275C46.9824 52.0629 47.0768 52.1101 47.1629 52.1663C47.3094 52.2607 47.3873 52.4027 47.4076 52.5759C47.4472 52.9158 47.2971 53.204 46.9935 53.3754C46.8645 53.4482 46.7247 53.4907 46.58 53.5092C46.3265 53.5417 46.0725 53.5425 45.8222 53.4851C45.6011 53.435 45.4077 53.3327 45.2573 53.1597C45.1607 53.0484 45.0886 52.9242 45.0585 52.7786Z" fill="black"/>
<path fill-rule="evenodd" clip-rule="evenodd" d="M38.375 50.9758C38.5193 50.9555 38.8524 50.9562 38.9708 50.9758C38.9975 51.0201 38.9837 51.0728 38.9873 51.1231C38.9896 51.1685 38.9911 51.2139 38.9924 51.2554C39.0271 51.2671 39.0349 51.2455 39.0456 51.2324C39.0843 51.185 39.1202 51.1354 39.1594 51.0889C39.2488 50.9836 39.3643 50.9268 39.5008 50.9093C39.6624 50.8883 39.8612 50.9393 39.9913 51.037C39.9647 51.1657 39.8474 51.4891 39.7892 51.5928C39.7557 51.5776 39.7236 51.5587 39.6884 51.5478C39.6305 51.5293 39.5714 51.5073 39.5113 51.5028C39.3523 51.4911 39.2277 51.5523 39.1505 51.6976C39.0852 51.8209 39.0605 51.9549 39.0532 52.0914C39.0421 52.2932 39.0349 52.4955 39.032 52.6976C39.0281 52.9046 39.0316 53.1114 39.0301 53.3184C39.0301 53.3643 39.0254 53.4099 39.0232 53.4546C39.0016 53.462 38.9886 53.4702 38.9757 53.4702C38.797 53.4715 38.6185 53.472 38.4396 53.4717C38.422 53.4717 38.4042 53.4653 38.3828 53.4615C38.359 53.4054 38.3677 53.3484 38.3677 53.2935C38.3668 52.6538 38.3672 52.0145 38.3672 51.3749C38.3672 51.2809 38.3665 51.1868 38.3677 51.0926C38.3683 51.0553 38.3721 51.0185 38.375 50.9758Z" fill="black"/>
<path fill-rule="evenodd" clip-rule="evenodd" d="M47.7808 50.98C47.8783 50.9555 48.2663 50.952 48.4167 50.9758C48.4211 50.9996 48.4285 51.0257 48.4294 51.0522C48.4314 51.1276 48.4301 51.2026 48.4301 51.278C48.4307 51.9451 48.4307 52.6124 48.4301 53.2797C48.4301 53.3355 48.4281 53.3914 48.4272 53.4486C48.3557 53.4876 48.2845 53.4695 48.216 53.4724C48.1412 53.4753 48.0657 53.4746 47.9907 53.4726C47.9219 53.4709 47.8512 53.4818 47.7759 53.4589C47.7726 53.4188 47.7675 53.3825 47.7672 53.3462C47.7519 52.396 47.7597 51.1035 47.7808 50.98Z" fill="black"/>
<path fill-rule="evenodd" clip-rule="evenodd" d="M58.3162 55.6381C58.2766 55.6423 58.2409 55.6485 58.2042 55.6494C57.6046 55.6626 57.1421 55.6563 57.0194 55.6327C56.9923 55.5388 57.0096 55.4402 57.0066 55.3434C57.0041 55.2403 57.0066 55.1368 57.0066 55.0336C57.0066 54.9352 57.0056 54.8366 57.0066 54.7382C57.0066 54.6401 57.0077 54.5424 57.0088 54.4388C57.0382 54.433 57.0602 54.4253 57.0818 54.4253C57.4759 54.4248 57.8703 54.425 58.2645 54.4255C58.2777 54.4255 58.2915 54.4295 58.3113 54.4324C58.3164 54.4477 58.3275 54.4645 58.3275 54.4813C58.3284 54.8473 58.3291 55.213 58.3284 55.5789C58.328 55.5967 58.3209 55.6143 58.3162 55.6381Z" fill="black"/>
<path fill-rule="evenodd" clip-rule="evenodd" d="M37.0416 54.4346C37.0416 54.825 37.042 55.2007 37.0416 55.5766C37.0416 55.5944 37.0349 55.6123 37.0302 55.6356C36.9959 55.6407 36.9646 55.6479 36.9327 55.649C36.4684 55.6646 35.8512 55.6559 35.7297 55.6314C35.7261 55.6022 35.7199 55.5704 35.7193 55.5388C35.7068 54.99 35.7126 54.561 35.7359 54.4308C35.8775 54.4161 36.0226 54.4266 36.1666 54.4246C36.3075 54.4226 36.4489 54.4222 36.5898 54.4246C36.7344 54.427 36.8798 54.415 37.0416 54.4346Z" fill="black"/>
<path fill-rule="evenodd" clip-rule="evenodd" d="M48.4154 50.0169C48.435 50.1313 48.4363 50.4665 48.4182 50.5934C48.3265 50.6192 47.9942 50.6257 47.7853 50.6046C47.7483 50.5131 47.7717 50.4143 47.7679 50.3183C47.7643 50.2206 47.7692 50.1227 47.7699 50.0225C47.8834 49.9871 47.9911 50.0047 48.0969 50.004C48.2033 50.0036 48.311 49.9896 48.4154 50.0169Z" fill="black"/>
<path fill-rule="evenodd" clip-rule="evenodd" d="M28.0515 56.1936C27.9641 56.2101 27.8955 56.2099 27.8219 56.1968C27.7953 56.1286 27.7956 56.0578 27.7913 55.9888C27.7646 55.5635 27.6738 55.1522 27.5307 54.7515C26.987 53.224 25.6689 52.0744 24.083 51.7414C23.7086 51.6627 23.3301 51.6246 22.9483 51.6395C21.2574 51.705 19.8839 52.6148 19.1069 53.8697C18.7686 54.4164 18.5538 55.0093 18.4579 55.6448C18.4381 55.7747 18.4319 55.9065 18.4189 56.0376C18.414 56.0879 18.4239 56.1415 18.3887 56.1949C18.3664 56.1983 18.3395 56.2056 18.3126 56.2056C17.7628 56.2061 17.2124 56.2061 16.6621 56.2057C16.6306 56.2057 16.599 56.2001 16.5654 56.1967C16.5437 56.14 16.55 56.0883 16.5527 56.0378C16.5756 55.5998 16.6423 55.1689 16.7632 54.7465C17.3285 52.7677 18.8761 51.2558 20.8686 50.7376C21.3952 50.6005 21.9314 50.5395 22.4745 50.5573C25.1514 50.646 27.3046 52.5093 27.8991 54.9552C27.9855 55.3124 28.0398 55.6746 28.0511 56.0425C28.0526 56.0888 28.0515 56.1355 28.0515 56.1936Z" fill="white"/>
<path fill-rule="evenodd" clip-rule="evenodd" d="M26.2031 56.434C26.3321 56.4171 27.691 56.408 27.9699 56.42C27.9925 56.4215 28.015 56.4266 28.0386 56.43C28.0598 56.4861 28.0524 56.5377 28.0509 56.5885C28.0362 56.9987 27.9714 57.402 27.8653 57.7984C27.3224 59.8196 25.7385 61.3814 23.7066 61.8956C23.1329 62.04 22.5499 62.0957 21.9581 62.0562C20.4658 61.9563 19.1966 61.3712 18.1559 60.3013C17.3541 59.4766 16.856 58.489 16.6415 57.3595C16.5923 57.1006 16.5638 56.8384 16.5527 56.5754C16.5504 56.5297 16.5551 56.4837 16.5567 56.4333C16.6388 56.4142 16.7114 56.4131 16.7804 56.4309C16.8137 56.4719 16.8079 56.5153 16.8097 56.5571C16.9145 58.5888 18.3693 60.4078 20.4751 60.8735C23.0558 61.4439 25.5042 59.8165 26.0791 57.3445C26.1301 57.1244 26.167 56.9018 26.181 56.6755C26.1857 56.5967 26.1951 56.5173 26.2031 56.434Z" fill="white"/>
<path fill-rule="evenodd" clip-rule="evenodd" d="M17.0221 56.4276C17.0617 56.4246 17.0944 56.4207 17.1267 56.4204C17.159 56.42 17.191 56.424 17.227 56.4266C17.2569 56.4965 17.2538 56.5676 17.2576 56.6365C17.2687 56.8342 17.3016 57.028 17.3481 57.2202C17.6564 58.4873 18.6852 59.483 19.9589 59.7579C21.7705 60.1477 23.5435 59.0428 24.0149 57.28C24.0719 57.0659 24.11 56.8489 24.1211 56.6272C24.1247 56.5629 24.1184 56.4948 24.1487 56.4345C24.2538 56.416 25.8069 56.4124 25.962 56.4309C25.9664 56.4592 25.9765 56.4905 25.9751 56.5208C25.8665 58.6199 24.3592 60.2494 22.5008 60.6709C22.052 60.7727 21.5984 60.8087 21.1417 60.772C19.3012 60.622 17.9179 59.4297 17.3355 57.9896C17.167 57.5727 17.0592 57.1416 17.0245 56.6926C17.019 56.6221 17.0131 56.552 17.0091 56.4819C17.0083 56.4689 17.0154 56.4552 17.0221 56.4276Z" fill="white"/>
<path fill-rule="evenodd" clip-rule="evenodd" d="M20.4715 56.1899C20.4417 56.1967 20.4241 56.2045 20.4059 56.2045C19.8323 56.2047 19.2587 56.2041 18.6851 56.203C18.6724 56.203 18.6593 56.1938 18.6384 56.1858C18.6259 56.0895 18.6344 55.9913 18.6448 55.8945C18.7339 55.0318 19.0364 54.2519 19.5737 53.5697C20.2746 52.6805 21.1826 52.1169 22.2962 51.9159C24.7334 51.4757 26.9229 53.0228 27.4748 55.2626C27.5332 55.5005 27.5685 55.7425 27.5893 55.986C27.5951 56.051 27.5904 56.1162 27.5904 56.1849C27.5202 56.2185 27.4515 56.2057 27.3876 56.1988C27.3469 56.1605 27.36 56.1155 27.3573 56.0748C27.3351 55.7115 27.2665 55.3579 27.1377 55.016C26.7203 53.9069 25.7423 53.0756 24.58 52.8534C22.7336 52.5002 21.0226 53.6529 20.5808 55.3841C20.524 55.6078 20.4873 55.835 20.4806 56.0661C20.4793 56.1033 20.4751 56.1407 20.4715 56.1899Z" fill="white"/>
<path fill-rule="evenodd" clip-rule="evenodd" d="M22.3071 56.1878C22.2768 56.1965 22.2639 56.2037 22.2506 56.2036C21.7567 56.2045 21.2632 56.205 20.7695 56.205C20.7517 56.2047 20.7333 56.1992 20.7063 56.195C20.7023 56.1573 20.6948 56.1209 20.6955 56.0855C20.7059 55.6761 20.7947 55.2826 20.9676 54.9123C21.4439 53.8918 22.2345 53.2496 23.3419 53.0468C25.1231 52.7206 26.7212 53.8855 27.0805 55.5473C27.1185 55.722 27.1437 55.8992 27.1461 56.0786C27.1466 56.115 27.1416 56.1516 27.1388 56.1938C27.0589 56.2112 26.9865 56.2125 26.9129 56.1941C26.8826 56.1291 26.893 56.0619 26.8897 55.9971C26.8648 55.4965 26.693 55.052 26.3756 54.6657C25.988 54.194 25.4877 53.9111 24.8821 53.8419C23.5833 53.693 22.5773 54.5768 22.3583 55.6505C22.3331 55.7739 22.3269 55.9018 22.3144 56.028C22.3091 56.0785 22.3095 56.1298 22.3071 56.1878Z" fill="white"/>
<path fill-rule="evenodd" clip-rule="evenodd" d="M17.4703 56.4324C17.5449 56.4124 17.6179 56.4155 17.6885 56.4291C17.7249 56.4734 17.7123 56.5224 17.7131 56.5682C17.7254 57.0325 17.8634 57.4565 18.1347 57.8327C18.5098 58.3535 19.0152 58.6725 19.6513 58.7711C20.9485 58.9722 22.0571 58.0724 22.2564 56.9208C22.277 56.8002 22.2826 56.6779 22.2951 56.5564C22.2991 56.5152 22.3027 56.4743 22.3058 56.4354C22.4224 56.4158 23.7583 56.4131 23.9021 56.432C23.9065 56.4603 23.9168 56.4916 23.9156 56.5224C23.8496 58.1142 22.6888 59.3032 21.3226 59.5694C19.5196 59.9207 17.8721 58.7515 17.5215 57.051C17.4902 56.8998 17.4777 56.7441 17.4599 56.5902C17.4541 56.5402 17.4485 56.4877 17.4703 56.4324Z" fill="white"/>
</g>
<rect x="1" y="1" width="110" height="110" rx="9" stroke="black" stroke-opacity="0.1" stroke-width="2"/>
<defs>
<clipPath id="clip0_768_352">
<rect x="2" y="2" width="108" height="108" rx="8" fill="white"/>
</clipPath>
</defs>
</svg>
