<svg width="112" height="112" viewBox="0 0 112 112" fill="none" xmlns="http://www.w3.org/2000/svg">
<g clip-path="url(#clip0_505_119)">
<rect x="1.99988" y="2" width="108" height="108" rx="8" fill="white"/>
<g clip-path="url(#clip1_505_119)">
<path d="M96 95.9997H16.0007V16.0006H96V95.9997Z" fill="#2E3192"/>
<path d="M65.5743 55.5077L96 16H91.5059L60.9803 55.5077H65.5743Z" fill="#ED1847"/>
<path d="M49.5755 82.5569L51.7748 79.5363C51.5722 79.3183 50.3332 75.562 50.3332 75.562L48.2072 78.3207L49.5755 82.5569ZM37.5468 63.9343C36.6897 65.7782 31.6447 71.9201 31.6447 71.9201H39.6345C39.6345 71.9201 38.0871 67.1507 37.817 66.0758C37.6019 65.2197 37.6597 64.1189 37.6597 63.9865C37.6597 63.8889 37.6406 63.7304 37.5468 63.9343ZM68.245 63.9343C67.3879 65.7782 62.343 71.9201 62.343 71.9201H70.333C70.333 71.9201 68.7839 67.1507 68.5138 66.0758C68.299 65.2197 68.3569 64.1189 68.3569 63.9865C68.3568 63.8889 68.3386 63.7304 68.245 63.9343ZM77.128 73.1382C78.5223 77.0392 81.3958 87.1913 82.5381 88.0002H74.9945C74.9945 88.0002 74.967 86.5008 74.6403 85.3376C74.3152 84.1772 71.5867 75.3994 71.5867 75.3994H59.605L57.7209 78.07C57.7209 78.07 59.984 85.1528 60.1245 85.5004C60.3681 86.1256 61.4485 88.0002 61.4485 88.0002H54.2194C54.2194 88.0002 54.032 86.9184 53.9617 86.4676C53.9053 86.1036 53.2768 84.1113 53.2768 84.1113C53.2768 84.1113 51.6382 85.9069 51.1917 86.739C50.7414 87.5703 50.5416 88.0003 50.5416 88.0003H44.8862C44.8862 88.0003 44.6975 86.9184 44.6272 86.4676C44.5721 86.1037 43.8801 83.9514 43.8801 83.9514C43.8801 83.9514 42.2969 85.8739 41.8461 86.7047C41.3983 87.5368 41.2054 88.0003 41.2054 88.0003H35.6121C35.6121 88.0003 37.1926 86.4954 37.7452 85.8492C38.6768 84.7532 42.1479 80.2172 42.1479 80.2172L40.7562 75.3995H28.8652C28.8652 75.3995 22.0854 84.3084 21.8182 84.584C21.548 84.8553 19.5718 87.6912 19.5277 88.0003H16V85.7568C16.0676 85.688 16.1158 85.6383 16.1392 85.6216C16.248 85.5416 21.2792 79.2964 25.901 73.1383C30.0544 67.7681 33.9514 62.5455 34.2932 62.048C35.1214 60.8447 36.3148 58.247 36.3148 58.247H42.4621C42.4621 58.247 42.6523 60.6369 42.8314 61.217C42.9913 61.7293 46.7365 74.0187 46.8251 74.1511L48.8963 71.5025L45.3561 60.6052C45.3561 60.6052 44.5263 58.5544 44.2564 58.247H51.4371C51.4371 58.247 51.3808 59.3016 51.6714 60.1997C51.9638 61.0984 53.5029 66.6529 53.5029 66.6529C53.5029 66.6529 58.4004 60.5139 58.6874 60.0733C59.2259 59.3333 59.292 58.247 59.292 58.247H65.2757C65.2757 58.247 64.1802 59.0477 62.2604 61.4761C61.6154 62.2929 55.2971 70.3226 55.2971 70.3226C55.2971 70.3226 55.8483 72.2026 56.117 73.1382C56.1904 73.4069 56.2412 73.5889 56.2412 73.6081C56.2412 73.6161 56.3804 73.4456 56.6204 73.1382C58.2504 71.0726 65.6655 61.349 66.1148 60.5166C66.4771 59.8441 67.0104 59.0793 67.3232 58.2469H73.1605C73.1605 58.2469 73.2958 59.9905 73.4733 60.4727L77.128 73.1382Z" fill="white"/>
</g>
</g>
<rect x="1" y="1" width="110" height="110" rx="9" stroke="black" stroke-opacity="0.1" stroke-width="2"/>
<defs>
<clipPath id="clip0_505_119">
<rect x="2" y="2" width="108" height="108" rx="8" fill="white"/>
</clipPath>
<clipPath id="clip1_505_119">
<rect width="80" height="79.9997" fill="white" transform="translate(16 16)"/>
</clipPath>
</defs>
</svg>
