<svg width="112" height="112" viewBox="0 0 112 112" fill="none" xmlns="http://www.w3.org/2000/svg">
<g clip-path="url(#clip0_768_345)">
<rect x="1.99988" y="2" width="108" height="108" rx="8" fill="white"/>
<path d="M23.581 63.805C22.0163 63.7422 20.3455 63.3873 18.7477 62.7782C18.3751 62.6362 17.8173 62.4015 17.6041 62.297C17.5196 62.2556 17.5136 62.2458 17.348 61.8826C16.5434 60.1173 16.1 58.3043 16.0087 56.4066C15.9923 56.0661 16 55.2014 16.0222 54.8979C16.1544 53.0882 16.5751 51.4532 17.3322 49.8066C17.3915 49.6778 17.4569 49.5398 17.4775 49.5002L17.515 49.4281L17.788 49.308C19.2687 48.6567 20.8387 48.2426 22.4374 48.0814C24.1813 47.9057 25.7867 48.0126 27.4573 48.4159C28.523 48.6731 29.502 49.0129 30.6122 49.5108L30.7047 49.5522L30.7959 49.7447C31.5871 51.4142 32.0702 53.1686 32.2185 54.9103C32.3928 56.9574 32.0781 59.0579 31.2928 61.0879C31.1056 61.5721 30.7643 62.3355 30.7177 62.3745C30.6677 62.4162 30.0537 62.6754 29.6188 62.8384C29.3395 62.943 28.7135 63.1462 28.4176 63.2283C27.2309 63.5577 26.062 63.7425 24.795 63.8011C24.5559 63.8121 23.8176 63.8145 23.581 63.805ZM24.9355 63.4652C26.8233 63.3634 28.7364 62.9102 30.3494 62.1828L30.4701 62.1283L30.5927 61.8627C31.3263 60.2723 31.752 58.6911 31.8862 57.0585C32.074 54.7733 31.6238 52.3688 30.5819 50.0924L30.4483 49.8006L30.2143 49.6978C28.3569 48.8824 26.4876 48.4291 24.616 48.3403C24.2813 48.3245 23.488 48.3318 23.1529 48.3538C21.3141 48.4748 19.6741 48.8602 18.08 49.5461C17.7431 49.691 17.7665 49.677 17.7303 49.756C17.7129 49.7942 17.6581 49.9133 17.6087 50.0208C16.9879 51.372 16.5739 52.8632 16.4133 54.3267C16.3551 54.8576 16.338 55.1843 16.3374 55.7795C16.3374 56.6166 16.3925 57.2931 16.5286 58.0945C16.7467 59.3785 17.1838 60.7635 17.7289 61.8978L17.784 62.0122L17.8969 62.0632C19.8046 62.9243 21.7442 63.4014 23.6513 63.4785C23.9386 63.4901 24.6001 63.4833 24.9355 63.4652ZM23.4756 62.6375C23.4519 62.6331 23.4469 62.6241 23.4473 62.5864C23.4494 62.4809 23.5213 61.3777 23.5276 61.3715C23.5314 61.3677 23.6616 61.3701 23.8169 61.3769C24.0769 61.3881 24.1039 61.3915 24.1595 61.4192C24.2038 61.4412 24.2308 61.4669 24.2607 61.5151C24.3581 61.6726 24.3224 61.9442 24.1904 62.0503C24.1217 62.1055 24.0401 62.1248 23.8744 62.1248H23.7315L23.7236 62.2148C23.7193 62.2643 23.7118 62.3816 23.7072 62.4755L23.6986 62.6463L23.6014 62.6445C23.548 62.6435 23.4914 62.6405 23.4756 62.6375ZM23.9708 61.9167C24.0326 61.8867 24.0601 61.8276 24.0602 61.725C24.0602 61.6566 24.0551 61.6361 24.0315 61.6095C23.9991 61.5731 23.9325 61.5543 23.8343 61.5538C23.7819 61.5538 23.7667 61.5581 23.7618 61.5753C23.7583 61.5872 23.7517 61.6707 23.747 61.7607L23.7385 61.9244L23.7875 61.9294C23.8932 61.9401 23.9277 61.9376 23.9708 61.9167ZM25.3703 62.5687C25.3544 62.4806 25.1969 61.3389 25.2003 61.3366C25.2024 61.3352 25.3189 61.3183 25.4594 61.2991C25.7456 61.26 25.8256 61.2647 25.8994 61.325C25.968 61.3812 25.9959 61.4577 25.996 61.5908C25.996 61.6922 25.9919 61.7152 25.9669 61.7544C25.9509 61.7795 25.9195 61.8112 25.8972 61.8249L25.8567 61.8498L25.8945 61.8581C25.9152 61.8626 25.9414 61.8687 25.9527 61.8716C25.9912 61.8816 26.0649 61.966 26.0856 62.0237C26.1143 62.1036 26.1253 62.2934 26.1048 62.3554C26.0821 62.4245 26.0348 62.481 25.9752 62.5106C25.941 62.5275 25.8396 62.5482 25.6724 62.5723C25.5342 62.5923 25.4113 62.6087 25.3993 62.6088C25.3847 62.6088 25.3752 62.5958 25.3703 62.5687ZM25.7585 62.3683C25.7824 62.3607 25.814 62.3386 25.8288 62.3193C25.8827 62.2485 25.845 62.0382 25.7714 62C25.7449 61.9862 25.561 61.9908 25.5458 62.0057C25.5409 62.0105 25.5903 62.3498 25.6007 62.3826C25.6062 62.3999 25.6801 62.3931 25.7585 62.3683ZM25.679 61.7703C25.7014 61.7614 25.7287 61.7372 25.7397 61.7166C25.7662 61.6667 25.7651 61.5703 25.7373 61.5163C25.7043 61.4522 25.6688 61.4403 25.5574 61.4564C25.4666 61.4695 25.4646 61.4705 25.4709 61.5024C25.4744 61.5202 25.4838 61.588 25.4918 61.6529C25.4997 61.7178 25.5086 61.7782 25.5115 61.7871C25.5175 61.8062 25.6124 61.7966 25.679 61.7703ZM22.5388 62.5852C22.4294 62.5703 22.3296 62.5357 22.2785 62.4947C22.1513 62.3929 22.1438 62.2789 22.2236 61.6686C22.2542 61.4349 22.2825 61.2405 22.2864 61.2367C22.2928 61.2304 22.5284 61.2535 22.5368 61.2612C22.5389 61.263 22.5143 61.4622 22.4825 61.7038C22.4506 61.9453 22.4246 62.1784 22.4246 62.2217C22.4246 62.2918 22.4286 62.3044 22.461 62.3359C22.5256 62.3987 22.6483 62.4006 22.7109 62.3399C22.7612 62.291 22.7757 62.2211 22.835 61.7416L22.8893 61.3025L22.9668 61.3104C23.0094 61.3148 23.0676 61.3214 23.0961 61.3252L23.1479 61.3321L23.0874 61.7998C23.05 62.0885 23.0165 62.2999 22.9997 62.3521C22.9678 62.4515 22.9045 62.5271 22.8242 62.5617C22.7613 62.5889 22.6398 62.5989 22.5388 62.5852ZM21.5255 62.437L21.3996 62.4041L21.4075 62.3293C21.4118 62.2881 21.4267 62.1959 21.4408 62.1244C21.4754 61.9477 21.4742 61.9194 21.4301 61.8764C21.3933 61.8407 21.3417 61.8225 21.2355 61.8078L21.1771 61.7997L21.1215 62.0647C21.0909 62.2104 21.0645 62.3314 21.0629 62.3337C21.0599 62.3377 20.8119 62.2877 20.8059 62.2818C20.8012 62.2773 21.0796 61.0312 21.0867 61.0243C21.0969 61.0144 21.609 61.1315 21.6734 61.1584C21.75 61.1905 21.8183 61.2628 21.8377 61.3324C21.8551 61.3952 21.8462 61.5187 21.8173 61.6135C21.792 61.696 21.7198 61.77 21.6525 61.7823L21.6052 61.791L21.656 61.8267C21.7269 61.8767 21.7302 61.9058 21.6895 62.1218C21.6641 62.2569 21.6569 62.3268 21.6622 62.3886C21.6662 62.4347 21.6654 62.4719 21.6601 62.4711C21.6552 62.4701 21.5948 62.455 21.5255 62.437ZM21.5381 61.6143C21.5715 61.5838 21.607 61.4854 21.6067 61.424C21.6067 61.372 21.5808 61.3269 21.5409 61.3083C21.5041 61.2912 21.3139 61.2505 21.306 61.2581C21.2986 61.2654 21.2254 61.5964 21.2302 61.6012C21.2326 61.6035 21.2736 61.6159 21.3216 61.6287C21.4275 61.6568 21.4965 61.6522 21.5381 61.6143ZM26.7289 62.3916C26.6448 62.3653 26.5646 62.2755 26.5211 62.159C26.4687 62.0189 26.3985 61.6676 26.3899 61.503C26.3801 61.3157 26.3986 61.2555 26.4903 61.1753C26.5703 61.1054 26.6803 61.0693 26.8129 61.0693C26.9831 61.0693 27.0873 61.1495 27.1414 61.3221C27.1545 61.364 27.1653 61.4042 27.1653 61.4114C27.1653 61.4269 26.9462 61.4703 26.9348 61.4571C26.9303 61.4521 26.9169 61.422 26.905 61.3902C26.8633 61.2799 26.7969 61.2388 26.7144 61.2723C26.6564 61.2958 26.6269 61.3504 26.6269 61.4342C26.6269 61.5212 26.7265 62.017 26.7586 62.0894C26.7946 62.1708 26.8329 62.2017 26.9064 62.2085C27.0161 62.2188 27.0594 62.1484 27.0368 61.9965C27.0305 61.9543 27.0252 61.914 27.025 61.9067C27.025 61.894 27.2523 61.845 27.263 61.8555C27.2659 61.8584 27.2719 61.916 27.2762 61.9837C27.2823 62.0795 27.279 62.1226 27.2624 62.1787C27.2353 62.2695 27.1595 62.3475 27.0688 62.378C26.9796 62.4081 26.8038 62.4151 26.7289 62.3916ZM27.6459 62.1413C27.6299 61.9685 27.5728 60.9818 27.5767 60.9438C27.5807 60.905 27.5826 60.9039 27.731 60.8608C27.8137 60.8367 27.8836 60.8193 27.8864 60.8221C27.9146 60.85 28.5452 61.956 28.5371 61.9634C28.5313 61.9689 28.4839 61.9856 28.432 62.0004C28.3802 62.0152 28.3307 62.03 28.3221 62.0332C28.3125 62.0368 28.2777 61.9856 28.2321 61.9007C28.1912 61.8245 28.1508 61.7597 28.1424 61.7565C28.1339 61.7533 28.0702 61.7668 28.0008 61.7863L27.8746 61.8219V61.8833C27.8746 61.9171 27.8799 61.9932 27.8855 62.0524L27.8961 62.1601L27.8084 62.1852C27.6381 62.2339 27.6549 62.2383 27.6459 62.1413ZM28.0357 61.5558C28.04 61.5512 27.9842 61.43 27.9117 61.2866C27.8392 61.1432 27.7795 61.0342 27.7792 61.0444C27.7792 61.0696 27.8298 61.5527 27.837 61.5869L27.8427 61.614L27.9353 61.5892C27.9863 61.5755 28.0314 61.5605 28.0357 61.5558ZM20.2588 62.1499C20.1761 62.1267 20.1743 62.1236 20.1944 62.0383L20.2045 61.9952L20.1593 62.0338C20.0666 62.1129 19.9517 62.1182 19.809 62.0499C19.5814 61.941 19.5619 61.7909 19.7098 61.2856C19.8051 60.9601 19.8898 60.8237 20.0206 60.7857C20.1581 60.7456 20.4005 60.7999 20.5131 60.896C20.5716 60.9459 20.5962 60.9909 20.6102 61.0736C20.6213 61.139 20.6029 61.3176 20.585 61.3176C20.5799 61.3176 20.559 61.3124 20.5386 61.306C20.5182 61.2997 20.4696 61.2859 20.4306 61.2753L20.3596 61.2562L20.3719 61.1841C20.382 61.1242 20.3805 61.1044 20.3618 61.0664C20.3368 61.0151 20.2576 60.9699 20.1928 60.9699C20.1446 60.9699 20.0757 61.0138 20.0463 61.0631C20.018 61.1107 19.8693 61.6267 19.8602 61.7088C19.8555 61.7504 19.8602 61.7863 19.8732 61.8172C19.913 61.91 20.0378 61.943 20.1196 61.8824C20.1622 61.8508 20.2295 61.7306 20.2452 61.6581C20.2535 61.62 20.2531 61.6197 20.1794 61.6039C20.1387 61.5951 20.1019 61.586 20.0977 61.5836C20.0859 61.5769 20.1397 61.3921 20.1535 61.3921C20.1922 61.3921 20.5341 61.5093 20.5296 61.5211C20.5268 61.5286 20.4848 61.6788 20.4363 61.8546C20.3878 62.0305 20.3453 62.1737 20.3418 62.1729C20.3384 62.1719 20.301 62.1618 20.2588 62.1499ZM22.8628 59.9112C22.8231 59.785 22.7542 59.6773 22.6363 59.5571C22.385 59.3009 22.0027 59.144 21.6261 59.1425C21.5147 59.1425 21.4377 59.1511 21.2555 59.1862C20.732 59.287 20.4226 59.3228 20.0671 59.3239C19.7835 59.3249 19.7283 59.318 19.5432 59.26C19.3216 59.1907 19.1273 59.0705 18.9357 58.8843C18.6692 58.6253 18.5114 58.3336 18.4749 58.0327C18.4445 57.7831 18.4811 57.3674 18.5536 57.1392C18.6066 56.9719 18.6864 56.8177 18.7606 56.7391L18.7866 56.7116L18.822 56.7659C18.9068 56.8958 19.0466 57.0079 19.2485 57.1078C19.4022 57.1838 19.5659 57.236 19.9488 57.331C21.4409 57.7012 22.1261 58.017 22.5758 58.5417C22.9056 58.9266 23.1007 59.394 23.1239 59.8555L23.1312 60.0014H22.891L22.8628 59.9112ZM23.4086 59.9213C23.4086 59.716 23.3309 59.3468 23.2361 59.1011C23.1452 58.8657 22.9872 58.5864 22.8383 58.398C22.3367 57.763 21.6533 57.4295 20.016 57.0205C19.8473 56.9784 19.669 56.9299 19.6199 56.9127C19.0879 56.7272 18.7199 56.2873 18.6088 55.7042C18.5784 55.5442 18.578 55.209 18.6088 55.0469C18.6882 54.6199 18.8932 54.2248 19.1891 53.9282C19.5368 53.5797 19.9543 53.4051 20.584 53.345C21.1274 53.2932 21.7555 53.5872 22.3193 54.1574C22.9546 54.7999 23.3953 55.6687 23.5573 56.5978C23.6274 56.9998 23.629 57.0419 23.6357 58.5765L23.6417 60.0014H23.4091L23.4086 59.9213ZM23.9019 59.9486C23.8982 59.9196 23.8923 59.4097 23.8886 58.8155C23.8793 57.3269 23.8626 56.9535 23.7846 56.4624C23.7282 56.1073 23.6418 55.7755 23.5283 55.4771C23.3976 55.1334 23.1258 54.661 22.9021 54.3888C22.8601 54.3375 22.7132 54.1811 22.5757 54.0411C22.4382 53.9011 22.2755 53.7306 22.214 53.6624C21.6945 53.0851 21.4536 52.5247 21.4536 51.8936C21.4536 51.2005 21.6931 50.604 22.1492 50.1612C22.8754 49.4562 24.0737 49.242 25.0959 49.6345C25.6588 49.8507 26.1114 50.2505 26.3663 50.7567C26.5396 51.1007 26.6172 51.4499 26.6175 51.8867C26.6175 52.2875 26.5474 52.5865 26.3688 52.9421C26.2087 53.261 25.9772 53.5585 25.5616 53.979C25.2669 54.2772 25.1842 54.3688 25.0739 54.5193C24.5294 55.2626 24.2735 56.0422 24.2139 57.1392C24.2068 57.2689 24.2011 57.966 24.2009 58.6882V60.0014H23.9086L23.9019 59.9486ZM24.4346 58.6262C24.4389 57.7845 24.4472 57.1859 24.4559 57.0833C24.4977 56.5921 24.6059 56.1157 24.7716 55.6926C25.2397 54.4975 26.1741 53.5582 27.0887 53.363C27.4173 53.2929 28.0277 53.3916 28.4057 53.576C28.9164 53.825 29.3186 54.3602 29.4536 54.9704C29.4952 55.1582 29.5018 55.493 29.4676 55.6864C29.3666 56.2591 29.0224 56.6923 28.5078 56.8941C28.4476 56.9177 28.2432 56.9758 28.0534 57.0231C26.3224 57.4551 25.6526 57.8006 25.1679 58.5113C24.9906 58.7713 24.8329 59.1365 24.7641 59.4464C24.7344 59.5801 24.6991 59.8495 24.6991 59.9423V60.0014H24.4276L24.4346 58.6262ZM24.9423 59.93C24.9423 59.8226 24.9757 59.6022 25.0132 59.4565C25.1631 58.8748 25.5596 58.3598 26.1011 58.0438C26.5398 57.7878 27.101 57.5912 28.1681 57.3197C28.3791 57.266 28.5892 57.2084 28.6349 57.1917C28.9146 57.0893 29.1644 56.9174 29.2572 56.7636L29.2903 56.7087L29.3206 56.7439C29.5048 56.9581 29.6073 57.3295 29.6078 57.7849C29.6078 58.0895 29.5813 58.2236 29.4783 58.4306C29.2668 58.8554 28.8713 59.18 28.4326 59.289C28.1262 59.365 27.5793 59.3314 26.8587 59.1923C26.5603 59.1347 26.3935 59.1271 26.2134 59.1632C25.7105 59.2637 25.3218 59.5587 25.203 59.93L25.1801 60.0014H24.942L24.9423 59.93ZM51.5782 62.639C51.5501 62.6365 51.4409 62.6284 51.3355 62.6209C50.3705 62.5524 49.4295 62.2955 48.7031 61.9022C47.2882 61.1361 46.4113 59.8327 46.1923 58.1698C45.9382 56.2404 46.6938 54.0601 48.204 52.3652C49.6189 50.7773 51.5448 49.7818 53.7047 49.5217C54.2246 49.4591 54.9052 49.4378 55.1605 49.4762C55.3226 49.5005 55.5989 49.5689 55.7981 49.634C55.8801 49.6607 55.9513 49.6826 55.9564 49.6826C55.9615 49.6826 56.0438 49.5853 56.1394 49.4664L56.3132 49.2502L56.4311 49.3106C58.5942 50.4197 59.0662 50.6634 59.0694 50.6727C59.0731 50.6832 57.1018 54.1718 57.0794 54.1945C57.0737 54.2003 57.0095 54.1605 56.9368 54.1061C56.2084 53.561 55.4031 53.2506 54.5428 53.1833C54.312 53.1653 53.8613 53.1746 53.6228 53.2022C52.6935 53.3099 51.9129 53.6599 51.3227 54.2335C50.7998 54.7415 50.4451 55.4121 50.3179 56.1327C50.2846 56.3211 50.2715 56.7278 50.2929 56.905C50.3855 57.6699 50.785 58.3125 51.4275 58.73C51.728 58.9252 52.1432 59.0846 52.5544 59.1625C52.8765 59.2235 53.0232 59.2362 53.4119 59.2368C53.804 59.2378 53.9061 59.2267 54.239 59.1505C54.9083 58.9975 55.7988 58.6331 56.3141 58.3015L56.4242 58.2307L56.3891 58.3058C56.2161 58.6765 54.455 62.308 54.4432 62.3185C54.4347 62.3261 54.353 62.3467 54.2617 62.3644C54.1703 62.382 53.9453 62.4274 53.7617 62.4653C53.0231 62.6176 52.8595 62.6355 52.1596 62.64C51.868 62.642 51.6064 62.6414 51.5782 62.639ZM34.4497 62.221C34.4497 62.2124 34.9921 60.1743 35.6544 57.6918L36.8584 53.1781L36.7367 53.1702C36.6697 53.1659 36.4496 53.1617 36.2475 53.1609C36.0455 53.1599 35.8803 53.1552 35.8805 53.1502C35.8805 53.1451 36.3337 52.2915 36.8873 51.2534L37.8937 49.366L40.6789 49.3623C43.4932 49.3586 43.7757 49.3623 44.1063 49.4038C45.5656 49.5884 46.4934 50.3692 46.7103 51.5949C46.7432 51.7809 46.7499 52.2089 46.7231 52.4147C46.5712 53.5807 45.6376 54.7254 44.2316 55.4694L44.1301 55.523L44.174 55.5416C44.5168 55.6864 44.7369 55.8207 44.9352 56.0064C45.3706 56.4139 45.5832 56.9233 45.6438 57.7042C45.6629 57.9483 45.6521 58.4348 45.6242 58.6045C45.4908 59.412 45.1027 60.1288 44.461 60.7529C43.5575 61.6318 42.3038 62.1534 40.9268 62.2236C40.5365 62.2435 34.4488 62.2411 34.4497 62.221ZM40.8707 58.9458C41.4412 58.851 41.8855 58.5418 42.0522 58.1237C42.16 57.8531 42.1536 57.577 42.0341 57.3466C41.9201 57.1267 41.7206 56.9721 41.4424 56.8882L41.33 56.8543L40.5071 56.8501C40.0545 56.8478 39.6797 56.8501 39.6742 56.856C39.6688 56.8615 39.54 57.3298 39.3881 57.8966C39.2362 58.4635 39.1089 58.937 39.1052 58.949C39.0989 58.9695 39.143 58.9707 39.9095 58.9707C40.6633 58.9707 40.7312 58.9689 40.8707 58.9458ZM41.7582 54.5579C42.4054 54.4467 42.7628 54.0868 42.8345 53.4741C42.8614 53.244 42.8139 53.0779 42.6857 52.9537C42.5977 52.8685 42.5134 52.8242 42.3651 52.7853C42.2688 52.7601 42.219 52.7578 41.4987 52.7461C41.0497 52.7388 40.7298 52.7382 40.7231 52.7447C40.7132 52.7544 40.2887 54.5452 40.2887 54.5773C40.2887 54.5854 40.5221 54.5877 40.9627 54.5842C41.5189 54.5797 41.658 54.5751 41.7582 54.5579ZM55.4682 61.8733C56.1683 60.5395 60.0694 53.0562 60.0694 53.0469C60.0694 53.0403 59.8483 53.0342 59.5345 53.0323L58.9996 53.0291L61.0495 49.366L67.3634 49.3597L67.3713 49.4746C67.3756 49.5378 67.5025 52.403 67.6533 55.8416C67.8041 59.2803 67.929 62.1259 67.9309 62.1651L67.9343 62.2366H63.7111V60.0263H60.8157L59.8672 62.2304L55.2774 62.2367L55.4682 61.8733ZM63.7237 56.8194C63.7237 56.6948 63.7149 55.9866 63.7049 55.2455C63.6945 54.5046 63.6862 53.7645 63.686 53.6009C63.686 53.4213 63.6811 53.3082 63.6741 53.3153C63.6627 53.3268 62.0657 56.9815 62.0534 57.0243C62.0475 57.0449 62.0932 57.0461 62.8856 57.0461H63.7241L63.7237 56.8194Z" fill="#0060AF"/>
<path d="M76.9288 52.7193C76.3529 52.592 75.8529 52.1448 75.6734 51.5966C75.6179 51.4272 75.6098 51.3541 75.611 51.0326C75.6119 50.7013 75.6192 50.6449 75.6802 50.4854C75.8719 49.9828 76.2273 49.628 76.7246 49.4424C76.9622 49.3538 77.4269 49.3302 77.6815 49.3939C78.7558 49.6628 79.2975 50.8211 78.8118 51.811C78.6135 52.215 78.1989 52.5627 77.7599 52.6933C77.5476 52.7565 77.1528 52.7688 76.9288 52.7193Z" fill="#F79420"/>
<path d="M88.9336 62.6784C88.1129 62.5921 87.2777 62.2918 86.7437 61.891C86.4642 61.6812 86.1207 61.3399 85.9592 61.1114C85.547 60.5284 85.3307 59.7384 85.3299 58.8136C85.3289 58.1708 85.4088 57.6785 85.6145 57.0482C85.996 55.8791 86.434 55.2289 87.311 54.5294C88.089 53.9089 88.7092 53.6057 89.7647 53.3301C90.4309 53.1561 90.7242 53.1198 91.4797 53.1183C92.5598 53.1161 93.2344 53.2502 94.0122 53.6216C95.0921 54.1372 95.6823 54.878 95.9123 56.0066C95.9879 56.3777 96.0183 56.8914 95.989 57.3054C95.9663 57.6259 95.8575 58.4158 95.81 58.6049L95.7901 58.684L88.7812 58.6974L88.7958 59.0073C88.8128 59.367 88.8586 59.5573 88.9942 59.8305C89.1312 60.1063 89.3085 60.2762 89.613 60.4234C89.9053 60.5648 90.1355 60.6106 90.437 60.5874C91.0121 60.5432 91.5335 60.2995 91.8157 59.9431L91.915 59.8177L93.6076 59.9404C94.5385 60.0078 95.3137 60.0675 95.3302 60.073C95.3668 60.0853 95.1624 60.3876 94.8916 60.7216C94.5146 61.1868 93.8548 61.7047 93.2606 62.0018C92.4769 62.3936 91.6626 62.6141 90.7541 62.6804C90.3242 62.7118 89.2398 62.7106 88.9336 62.6784ZM92.5028 56.7484C92.5113 56.3425 92.4858 56.1694 92.3881 55.9699C92.1538 55.4913 91.7975 55.2949 91.162 55.294C90.8301 55.2931 90.6459 55.3356 90.3583 55.4774C89.9842 55.662 89.6761 55.9668 89.4334 56.3927C89.3228 56.5868 89.1579 56.9959 89.1579 57.0762C89.1579 57.1094 89.3806 57.1136 90.8267 57.1078L92.4954 57.101L92.5028 56.7484ZM69.317 62.4503C69.317 62.4249 69.8276 59.4734 70.4515 55.8913C71.0755 52.3093 71.586 49.3737 71.586 49.3679C71.586 49.362 72.3459 49.3572 73.2746 49.3572C74.2033 49.3572 74.9632 49.3617 74.9632 49.3672C74.9632 49.3727 74.4527 52.3183 73.8287 55.9131C73.2047 59.5078 72.6942 62.4597 72.6942 62.4727C72.6942 62.4866 71.9903 62.4965 71.0056 62.4965C69.415 62.4965 69.317 62.4938 69.317 62.4503ZM73.5912 62.455C73.5912 62.4136 75.1347 53.4607 75.1613 53.3479L75.1753 53.2885H78.5524L78.5384 53.3479C78.5279 53.3924 77.6878 58.2705 76.9913 62.3316L76.963 62.4965H75.2771C73.7612 62.4965 73.5912 62.4924 73.5912 62.455ZM79.0655 62.4374C79.0847 62.3546 80.1873 55.9783 80.1873 55.9499C80.1873 55.9373 79.8954 55.9269 79.5388 55.9269H78.8902L78.9055 55.8543C78.9324 55.7264 79.343 53.3438 79.343 53.3156C79.343 53.2978 79.5676 53.2885 79.9996 53.2885H80.6562L80.6745 53.1662C80.7454 52.6938 81.0055 51.864 81.2298 51.3948C81.6044 50.6113 82.0298 50.172 82.7729 49.8014C83.8262 49.2761 85.284 49.2081 86.6281 49.6216L86.8819 49.6996L86.4955 50.8462C86.2829 51.4768 86.1014 52.0004 86.092 52.0098C86.0826 52.0191 85.9651 52.008 85.8308 51.9848C85.3974 51.9104 84.9447 51.9398 84.6858 52.0593C84.3168 52.2296 84.1537 52.5105 84.0525 53.15L84.0347 53.2621H85.9136L85.8999 53.3215C85.8792 53.4108 85.4377 55.878 85.4377 55.9042C85.4377 55.9167 85.0182 55.9269 84.5054 55.9269H83.5732L83.4734 56.5139C83.4185 56.8368 83.1698 58.312 82.9207 59.7922L82.4678 62.4834L79.0516 62.4969L79.0655 62.4374Z" fill="#00A6B5"/>
</g>
<rect x="1" y="1" width="110" height="110" rx="9" stroke="black" stroke-opacity="0.1" stroke-width="2"/>
<defs>
<clipPath id="clip0_768_345">
<rect x="2" y="2" width="108" height="108" rx="8" fill="white"/>
</clipPath>
</defs>
</svg>
