<svg width="112" height="112" viewBox="0 0 112 112" fill="none" xmlns="http://www.w3.org/2000/svg">
<g clip-path="url(#clip0_505_125)">
<rect x="1.99988" y="2" width="108" height="108" rx="8" fill="white"/>
<path d="M56.8305 55.9919C56.5042 55.04 56.1774 54.0884 55.8511 53.1365L55.1134 54.0557V55.9953C55.1134 56.4684 54.8481 56.7728 54.271 56.7698H53.9252C53.9252 54.5135 53.9256 52.2573 53.9256 50.0006H54.1793C54.303 50.0006 54.404 49.9987 54.5243 50.0218C54.9282 50.0982 55.116 50.3773 55.116 50.7759V52.8865L57.2221 50.3501C57.5149 49.9969 57.6882 50.0002 58.1699 50.0006H58.3327C57.7769 50.7133 57.221 51.4257 56.6655 52.1384C57.234 53.6816 57.8026 55.2248 58.3711 56.768H58.1867C57.9136 56.768 57.6502 56.7784 57.3991 56.664C57.2284 56.5858 57.0906 56.4669 56.9855 56.316C56.914 56.2125 56.87 56.1074 56.8305 55.9919Z" fill="#009F3C"/>
<path d="M62.7953 55.8967C62.4976 56.5386 61.7916 56.7804 61.0367 56.7804C59.8684 56.7804 59.2316 56.14 58.9451 55.3058C58.7454 54.7253 58.6821 54.0029 58.7887 53.3263C58.9515 52.2921 59.5822 51.1922 60.8877 51.1922C62.7774 51.1922 62.9909 52.6534 63.0553 53.9645H59.8926C59.8576 54.7484 60.0181 56.1914 61.1996 56.1914C61.5125 56.1914 61.7495 56.1362 61.91 56.0267C62.1943 55.8598 62.4287 55.7119 62.7953 55.8967ZM61.9771 53.4794C61.9551 53.1616 61.9197 52.893 61.8709 52.6736C61.5911 51.4247 60.2927 51.5536 59.9917 52.665C59.9321 52.8844 59.8974 53.1557 59.8877 53.4794H61.9771Z" fill="#009F3C"/>
<path d="M64.7637 55.9648C64.9746 56.1041 65.2268 56.1734 65.5208 56.1734C65.8274 56.1734 66.0562 56.1012 66.2063 55.9559C66.3565 55.8113 66.4313 55.6258 66.4313 55.4C66.4313 55.2431 66.4056 55.1116 66.3546 55.0043C66.3035 54.897 66.238 54.8057 66.1582 54.7305C66.0785 54.6548 65.9857 54.5926 65.8803 54.5434C65.7749 54.4939 65.6679 54.4492 65.5592 54.4086C65.3166 54.3218 65.0946 54.2275 64.893 54.1262C64.6918 54.0248 64.5178 53.9101 64.371 53.7827C64.2239 53.6552 64.1087 53.5088 64.0257 53.3434C63.9426 53.1787 63.9012 52.9857 63.9012 52.7655C63.9012 52.5047 63.9474 52.2756 64.0402 52.0785C64.133 51.8818 64.2622 51.7182 64.428 51.5875C64.5946 51.4571 64.7909 51.3587 65.0178 51.292C65.2447 51.2253 65.4921 51.1922 65.7607 51.1922C66.0863 51.1922 66.3915 51.2455 66.6757 51.3528C66.96 51.4601 67.1694 51.6586 67.3035 51.9485C66.9194 52.2175 66.6679 52.0249 66.4265 51.9355C66.3814 51.9112 66.3348 51.8907 66.2868 51.8732C66.153 51.8248 66.0059 51.8006 65.8468 51.8006C65.719 51.8006 65.5957 51.8147 65.4776 51.8438C65.3595 51.8732 65.2555 51.9179 65.1661 51.9787C65.0767 52.0398 65.0066 52.1165 64.9552 52.2093C64.9042 52.3017 64.8788 52.415 64.8788 52.5483C64.8788 52.7685 64.9459 52.9395 65.08 53.0614C65.2142 53.1828 65.3822 53.2845 65.5834 53.3654C65.7846 53.4466 66.0018 53.5234 66.235 53.5956C66.4682 53.6683 66.6854 53.7655 66.8866 53.887C67.0878 54.0084 67.2555 54.1683 67.39 54.3654C67.5241 54.5624 67.5912 54.8288 67.5912 55.1649C67.5912 55.4201 67.5416 55.6492 67.4425 55.8519C67.3434 56.0546 67.2078 56.2256 67.0353 56.3649C66.8628 56.5035 66.6564 56.6108 66.4168 56.6865C66.1772 56.7617 65.9202 56.7994 65.6456 56.7994C65.1855 56.7994 64.7924 56.7152 64.4668 56.5471C64.1408 56.3795 63.9012 56.1213 63.7477 55.7737C63.874 55.6954 64.0786 55.577 64.3401 55.672C64.5152 55.7353 64.6158 55.8672 64.7637 55.9648Z" fill="#009F3C"/>
<path d="M76.5876 52.6678C76.5876 52.391 76.522 52.2024 76.3908 52.1022C76.2601 52.002 76.054 51.9517 75.7731 51.9517C75.5429 51.9517 75.3286 52.002 75.1304 52.1022C74.9322 52.2024 74.7888 52.3142 74.6994 52.4383V56.031C74.6994 56.4099 74.5209 56.6748 74.1375 56.7482C74.0232 56.7694 73.927 56.7679 73.8093 56.7679H73.5682V50.0006H73.8093C73.927 50.0006 74.0232 49.9987 74.1375 50.0207C74.5209 50.0933 74.6994 50.3586 74.6994 50.7375V51.8638C74.8462 51.6872 75.0634 51.5307 75.351 51.3951C75.6386 51.2598 75.9739 51.192 76.3573 51.192C76.8174 51.192 77.1595 51.3053 77.383 51.5326C77.6065 51.7591 77.7183 52.1112 77.7183 52.5881V56.7679H77.4773C77.3599 56.7679 77.2634 56.7694 77.1494 56.7482C76.7656 56.6748 76.5876 56.4099 76.5876 56.031V52.6678Z" fill="#009F3C"/>
<path d="M81.4138 53.6844C81.286 53.7481 81.1359 53.7984 80.9634 53.836C80.7905 53.8733 80.6247 53.9154 80.4649 53.9612C80.1456 54.0536 79.9154 54.1952 79.7749 54.3852C79.6341 54.5759 79.564 54.8241 79.564 55.1299C79.564 55.4757 79.6326 55.7283 79.7701 55.887C79.9075 56.0457 80.1229 56.1247 80.4172 56.1247C80.6408 56.1247 80.8386 56.0729 81.0115 55.969C81.184 55.8654 81.3181 55.7208 81.4138 55.5364V53.6844ZM81.5003 56.0126C81.3721 56.2491 81.1806 56.4351 80.925 56.5707C80.6694 56.7063 80.3692 56.7741 80.0242 56.7741C79.5 56.7741 79.1088 56.6426 78.8498 56.3799C78.5913 56.1176 78.4616 55.7529 78.4616 55.2857C78.4616 54.8181 78.5641 54.4604 78.7686 54.2123C78.9731 53.9642 79.2894 53.7738 79.7175 53.6412C79.8576 53.595 80.0066 53.5592 80.1631 53.5331C80.3196 53.507 80.4731 53.481 80.6233 53.4549C80.773 53.4292 80.9172 53.3975 81.0543 53.3599C81.3684 53.2742 81.3989 53.1922 81.4042 52.9702C81.4064 52.8677 81.4042 52.7652 81.4042 52.6632C81.4042 52.3804 81.3404 52.1673 81.2127 52.0227C81.0845 51.8785 80.8419 51.8066 80.4843 51.8066C80.2157 51.8066 79.9839 51.8599 79.7894 51.9668C79.4117 52.1732 79.2451 52.3405 78.7589 52.1006C78.9441 51.7776 79.1982 51.5455 79.5208 51.4042C79.8435 51.2627 80.1933 51.1923 80.5703 51.1923C80.8386 51.1923 81.0927 51.2105 81.3323 51.2485C81.5718 51.2858 81.7797 51.3577 81.9552 51.4646C82.1307 51.5712 82.27 51.7213 82.3721 51.9147C82.4742 52.108 82.5256 52.3603 82.5256 52.6721V56.77C82.4995 56.7704 82.3468 56.7711 82.2186 56.7711C81.681 56.7715 81.5137 56.485 81.5003 56.0126Z" fill="#009F3C"/>
<path d="M86.5384 56.4123C86.3596 56.542 86.1759 56.6344 85.9874 56.6906C85.7989 56.7465 85.5511 56.7748 85.2445 56.7748C84.759 56.7748 84.379 56.6377 84.104 56.3635C83.8295 56.0897 83.692 55.7082 83.692 55.219V51.7414H83.5076C83.1935 51.7321 83.0277 51.6829 83.0277 51.1933H83.6894V50.0004H83.9304C84.0478 50.0004 84.1443 49.9989 84.2583 50.0205C84.642 50.0935 84.8201 50.3584 84.8201 50.7373V51.1933H85.4837C85.7978 51.203 85.9635 51.2518 85.9635 51.7414H84.8134V55.219C84.8134 55.5196 84.879 55.754 85.0098 55.9216C85.1405 56.0897 85.3503 56.1735 85.6376 56.1735C85.7426 56.1735 85.8354 56.1675 85.9155 56.1549C86.2482 56.1031 86.4117 56.1511 86.5384 56.4123Z" fill="#009F3C"/>
<path d="M94.8692 52.6678C94.8692 52.391 94.8036 52.2024 94.6728 52.1022C94.5417 52.002 94.3353 51.9517 94.0544 51.9517C93.8245 51.9517 93.6103 52.002 93.4121 52.1022C93.2142 52.2024 93.0704 52.3142 92.981 52.4383V56.031C92.981 56.4099 92.8029 56.6748 92.4188 56.7482C92.3048 56.7694 92.2087 56.7679 92.0909 56.7679H91.8499V51.192H92.0909C92.2087 51.192 92.3048 51.1905 92.4188 51.2125C92.7806 51.2811 92.9594 51.5203 92.9791 51.8645L92.981 51.8638C93.1282 51.6872 93.345 51.5307 93.6326 51.3951C93.9202 51.2598 94.2556 51.192 94.6389 51.192C95.0991 51.192 95.4411 51.3053 95.6646 51.5326C95.8882 51.7591 95.9999 52.1112 95.9999 52.5881V56.7679H95.7589C95.6411 56.7679 95.5454 56.7694 95.431 56.7482C95.0473 56.6748 94.8692 56.4099 94.8692 56.031V52.6678Z" fill="#009F3C"/>
<path d="M72.3846 55.8967C72.0869 56.5386 71.3809 56.7804 70.6264 56.7804C69.458 56.7804 68.8209 56.14 68.5344 55.3058C68.3347 54.7253 68.2714 54.0029 68.378 53.3263C68.5408 52.2921 69.1719 51.1922 70.4766 51.1922C72.3667 51.1922 72.5805 52.6534 72.6446 53.9645H69.4815C69.4469 54.7484 69.6074 56.1914 70.7889 56.1914C71.1022 56.1914 71.3388 56.1362 71.4997 56.0267C71.784 55.8598 72.018 55.7119 72.3846 55.8967ZM71.5664 53.4794C71.5444 53.1616 71.509 52.893 71.4599 52.6736C71.1808 51.4247 69.8824 51.5536 69.581 52.665C69.5214 52.8844 69.4867 53.1557 69.477 53.4794H71.5664Z" fill="#009F3C"/>
<path d="M89.8991 53.6844C89.7713 53.7481 89.6208 53.7984 89.4487 53.836C89.2762 53.8733 89.1096 53.9154 88.9502 53.9612C88.6305 54.0536 88.4006 54.1952 88.2598 54.3852C88.1193 54.5759 88.0493 54.8241 88.0493 55.1299C88.0493 55.4757 88.1179 55.7283 88.2553 55.887C88.3928 56.0457 88.6082 56.1247 88.9021 56.1247C89.126 56.1247 89.3239 56.0729 89.4964 55.969C89.6689 55.8654 89.803 55.7208 89.8991 55.5364V53.6844ZM89.9852 56.0126C89.8574 56.2491 89.6659 56.4351 89.4103 56.5707C89.1547 56.7063 88.8541 56.7741 88.5091 56.7741C87.9856 56.7741 87.594 56.6426 87.3351 56.3799C87.0761 56.1176 86.9469 55.7529 86.9469 55.2857C86.9469 54.8181 87.0493 54.4604 87.2535 54.2123C87.458 53.9642 87.7743 53.7738 88.2028 53.6412C88.3429 53.595 88.4915 53.5592 88.6484 53.5331C88.8049 53.507 88.958 53.481 89.1081 53.4549C89.2587 53.4292 89.4021 53.3975 89.5396 53.3599C89.8537 53.2742 89.8842 53.1922 89.8894 52.9702C89.8917 52.8677 89.8894 52.7652 89.8894 52.6632C89.8894 52.3804 89.8253 52.1673 89.6975 52.0227C89.5698 51.8785 89.3272 51.8066 88.9692 51.8066C88.7009 51.8066 88.4692 51.8599 88.2743 51.9668C87.8969 52.1732 87.7304 52.3405 87.2442 52.1006C87.4293 51.7776 87.6834 51.5455 88.0061 51.4042C88.3284 51.2627 88.6786 51.1923 89.0556 51.1923C89.3239 51.1923 89.578 51.2105 89.8175 51.2485C90.0571 51.2858 90.2646 51.3577 90.4401 51.4646C90.6163 51.5712 90.7553 51.7213 90.8574 51.9147C90.9594 52.108 91.0109 52.3603 91.0109 52.6721V56.77C90.9844 56.7704 90.832 56.7711 90.7039 56.7711C90.1662 56.7715 89.9986 56.485 89.9852 56.0126Z" fill="#009F3C"/>
<path d="M36.5236 53.0641C37.2713 53.0403 37.4788 52.3887 37.4788 51.8458C37.4788 51.2754 37.4207 50.6268 36.6454 50.6268H35.6495V53.0641H36.5236ZM36.5113 56.1993C36.882 56.1993 37.1547 56.0961 37.3302 55.8901C37.506 55.684 37.5936 55.3513 37.5936 54.8923C37.5936 54.3096 37.5154 53.7132 36.7125 53.5939H35.6495V56.1993H36.5113ZM34.4618 56.782V50.0176H36.7877C38.1022 50.0176 38.6863 50.8578 38.5694 51.9621C38.5157 52.4703 38.3238 52.9956 37.8123 53.2672C39.0645 53.6494 39.0671 55.481 38.3264 56.2746C38.0105 56.6129 37.5046 56.782 36.8082 56.782H34.4618Z" fill="#2B3078"/>
<path d="M40.069 50.0176H42.3674C42.7124 50.0176 43.006 50.0526 43.2489 50.1238C43.4914 50.1942 43.6863 50.3 43.8331 50.4416C43.9799 50.5828 44.0868 50.7609 44.1539 50.9755C44.2209 51.1905 44.2545 51.4423 44.2545 51.7307C44.2545 52.1901 44.2194 52.5742 44.149 52.8831C44.079 53.1923 43.9609 53.4412 43.7947 53.6297C43.6285 53.8178 43.4102 53.9531 43.1386 54.0354C42.8674 54.1181 42.5306 54.1591 42.1282 54.1591H41.2568V56.0074C41.2568 56.4802 40.9919 56.7846 40.4151 56.782H40.0694C40.0694 54.5272 40.069 52.2724 40.069 50.0176ZM42.0038 53.5589C42.1953 53.5589 42.3562 53.5336 42.4874 53.4836C42.6181 53.4333 42.7269 53.3499 42.813 53.2318C42.8991 53.1144 42.9616 52.9583 43 52.7638C43.038 52.5697 43.0574 52.3283 43.0574 52.0396C43.0574 51.7571 43.041 51.5247 43.0093 51.3425C42.9773 51.1599 42.9277 51.0154 42.8611 50.9095C42.794 50.8037 42.7061 50.73 42.5976 50.689C42.4889 50.6476 42.3547 50.6268 42.1953 50.6268H41.2568V53.5589H42.0038Z" fill="#2B3078"/>
<path d="M45.5204 50.0152H45.7715C45.8937 50.0152 45.9939 50.0137 46.1128 50.0364C46.5126 50.1124 46.6985 50.3885 46.6985 50.7827V55.0978C46.6985 56.2222 46.0342 56.7848 44.7063 56.7848C44.643 56.7848 44.5815 56.7833 44.5219 56.7807C44.0875 56.7744 43.7052 56.6749 43.3751 56.4823C43.0335 56.2833 42.7831 55.9987 42.6233 55.6287C42.9001 55.5166 43.1378 55.4592 43.3908 55.6436C43.4936 55.7181 43.5789 55.8113 43.6866 55.885C43.8055 55.9659 43.9403 56.0244 44.0912 56.0613C44.4128 56.1391 44.8688 56.1429 45.1788 55.9722C45.4943 55.799 45.5204 55.4674 45.5204 55.1597V50.0152Z" fill="#2B3078"/>
<path d="M48.7687 55.888C48.9859 56.0363 49.2572 56.1101 49.5828 56.1101C49.7359 56.1101 49.8831 56.0858 50.0235 56.0374C50.164 55.989 50.2866 55.9208 50.392 55.8325C50.4975 55.7446 50.5805 55.6361 50.6413 55.5084C50.7016 55.3802 50.7322 55.2367 50.7322 55.0769C50.7322 54.9346 50.7098 54.8098 50.6651 54.7017C50.6204 54.5933 50.5597 54.4968 50.4833 54.4115C50.4066 54.3258 50.3153 54.2479 50.2102 54.1764C50.1048 54.1053 49.9915 54.033 49.8701 53.9588C49.5955 53.7994 49.3417 53.6444 49.1089 53.4939C48.8757 53.343 48.673 53.182 48.5005 53.0114C48.328 52.8408 48.1924 52.6519 48.0936 52.444C47.9945 52.2361 47.945 51.9898 47.945 51.7052C47.945 51.4608 47.9882 51.2357 48.0743 51.0308C48.1607 50.8263 48.2881 50.6482 48.4573 50.4973C48.6268 50.3468 48.8328 50.2287 49.075 50.1433C49.3179 50.058 49.5955 50.0156 49.9084 50.0156C50.3171 50.0156 50.6681 50.099 50.9621 50.267C51.2556 50.4351 51.4538 50.6698 51.5559 50.9712C51.2143 51.1195 50.9669 51.0397 50.689 50.8304C50.5135 50.7138 50.3045 50.6556 50.0616 50.6556C49.7233 50.6556 49.4599 50.738 49.2713 50.903C49.0832 51.0681 48.9889 51.3013 48.9889 51.6031C48.9889 51.8534 49.0608 52.061 49.2046 52.226C49.3481 52.3911 49.5269 52.5405 49.7408 52.6742C49.9546 52.808 50.1879 52.9361 50.4401 53.0583C50.6923 53.1805 50.9252 53.3229 51.139 53.4853C51.3533 53.6474 51.5317 53.8422 51.6755 54.0699C51.8193 54.2975 51.8909 54.5821 51.8909 54.9234C51.8909 55.1909 51.8398 55.4383 51.7377 55.6663C51.6357 55.894 51.4889 56.0899 51.297 56.255C51.1055 56.42 50.8711 56.5497 50.5932 56.6436C50.3153 56.7375 50.0008 56.7848 49.6499 56.7848C49.1964 56.7848 48.7989 56.6846 48.4573 56.4856C48.1156 56.2863 47.8652 56.0016 47.7058 55.632C47.9822 55.5195 48.2203 55.4625 48.4733 55.6466C48.5757 55.7211 48.6611 55.8146 48.7687 55.888Z" fill="#2B3078"/>
<path d="M60.8674 61.5574V60.1379C60.8681 60.0734 60.8648 60.0097 60.8577 59.9479C60.8514 59.886 60.8376 59.8264 60.8178 59.7694C60.797 59.7128 60.7675 59.6584 60.728 59.6081C60.6751 59.5347 60.6055 59.481 60.5187 59.4464C60.4319 59.4121 60.3305 59.395 60.2139 59.3957C60.123 59.3968 60.0444 59.4095 59.9766 59.4348C59.9088 59.4598 59.8529 59.4907 59.8063 59.5276C59.7605 59.5637 59.7251 59.5999 59.6994 59.6353C59.6737 59.6707 59.6569 59.699 59.6491 59.7202V59.4419H59.2352V61.5574H59.6491V60.2537C59.6483 60.2098 59.6517 60.161 59.658 60.1092C59.664 60.0567 59.6774 60.0049 59.6983 59.9542C59.7188 59.9032 59.75 59.8573 59.7921 59.8171C59.8279 59.7832 59.8682 59.7582 59.9132 59.7403C59.9579 59.7217 60.0112 59.7128 60.0746 59.7128C60.167 59.7131 60.2389 59.728 60.2918 59.7564C60.3447 59.785 60.3827 59.8234 60.4073 59.8719C60.4319 59.9199 60.4471 59.9743 60.4527 60.0343C60.459 60.0943 60.4624 60.155 60.4613 60.2191V61.5574H60.8674ZM58.4133 60.3312H57.5198C57.5195 60.3275 57.5198 60.31 57.5202 60.2787C57.5217 60.247 57.5254 60.2072 57.5325 60.1587C57.5396 60.111 57.5526 60.06 57.5709 60.0071C57.5895 59.9542 57.6156 59.9054 57.6499 59.8588C57.6841 59.813 57.7289 59.7765 57.7844 59.7497C57.8391 59.7217 57.9073 59.7094 57.9878 59.7128C58.0604 59.7146 58.1227 59.7307 58.1722 59.7593C58.2225 59.7891 58.2627 59.8271 58.294 59.873C58.3253 59.9192 58.3496 59.9676 58.366 60.0186C58.3827 60.0704 58.3946 60.1196 58.401 60.1658C58.4073 60.212 58.4114 60.2504 58.4125 60.2802C58.4133 60.3107 58.414 60.3283 58.4133 60.3312ZM58.8235 60.6136V60.494C58.8238 60.4382 58.8212 60.3737 58.8149 60.2992C58.8089 60.2247 58.7966 60.1457 58.7788 60.063C58.7601 59.9799 58.7322 59.8987 58.6957 59.8197C58.6588 59.7403 58.61 59.6688 58.5481 59.604C58.4867 59.5406 58.4099 59.4896 58.3186 59.4512C58.2262 59.4136 58.116 59.395 57.9878 59.3957C57.857 59.3961 57.7426 59.4155 57.6469 59.4527C57.5508 59.4903 57.4688 59.5406 57.4025 59.6036C57.3362 59.6669 57.281 59.7385 57.2393 59.8171C57.1976 59.8953 57.1644 59.9773 57.1421 60.0611C57.1197 60.1453 57.1033 60.2262 57.0951 60.3052C57.0865 60.3838 57.0821 60.4546 57.0828 60.5171C57.0821 60.5756 57.0858 60.6427 57.0951 60.7176C57.1033 60.7917 57.1197 60.8689 57.1439 60.9493C57.1678 61.0294 57.2028 61.1077 57.2494 61.1829C57.2956 61.2589 57.3563 61.3275 57.4304 61.3878C57.5057 61.4486 57.5977 61.4974 57.708 61.5328C57.8179 61.5689 57.9483 61.5875 58.0999 61.5883C58.1983 61.5875 58.2847 61.5801 58.3596 61.5656C58.4345 61.5518 58.4975 61.5343 58.5485 61.5149C58.5999 61.4955 58.6394 61.4773 58.6677 61.4612C58.696 61.4445 58.7132 61.434 58.7188 61.4296L58.7765 61.0585C58.7709 61.063 58.7549 61.0753 58.7277 61.095C58.7013 61.1144 58.6633 61.136 58.6137 61.1591C58.5642 61.1826 58.5016 61.2016 58.4274 61.2172C58.3533 61.2332 58.2661 61.2396 58.1659 61.2362C58.0463 61.2336 57.9472 61.2165 57.8686 61.1844C57.7892 61.1524 57.7262 61.1125 57.6797 61.0637C57.6327 61.0149 57.5973 60.9642 57.5742 60.9117C57.5511 60.8588 57.5366 60.8104 57.5292 60.7657C57.5224 60.7213 57.5195 60.687 57.5198 60.6639V60.6136H58.8235ZM56.6164 58.6875H56.214V61.5574H56.6164V58.6875ZM55.3537 60.3312H54.4603C54.4596 60.3275 54.4603 60.31 54.4607 60.2787C54.4622 60.247 54.4659 60.2072 54.473 60.1587C54.48 60.111 54.4931 60.06 54.5113 60.0071C54.5296 59.9542 54.5564 59.9054 54.5903 59.8588C54.6246 59.813 54.6689 59.7765 54.7244 59.7497C54.7792 59.7217 54.8478 59.7094 54.9282 59.7128C55.0009 59.7146 55.0627 59.7307 55.1127 59.7593C55.1626 59.7891 55.2036 59.8271 55.2341 59.873C55.2658 59.9192 55.2896 59.9676 55.3068 60.0186C55.3235 60.0704 55.3351 60.1196 55.3414 60.1658C55.3478 60.212 55.3515 60.2504 55.353 60.2802C55.3537 60.3107 55.3541 60.3283 55.3537 60.3312ZM55.7632 60.6136V60.494C55.7639 60.4382 55.7617 60.3737 55.7554 60.2992C55.7494 60.2247 55.7371 60.1457 55.7188 60.063C55.7002 59.9799 55.6726 59.8987 55.6361 59.8197C55.5992 59.7403 55.5501 59.6688 55.4882 59.604C55.4271 59.5406 55.3504 59.4896 55.2587 59.4512C55.1667 59.4136 55.0564 59.395 54.9282 59.3957C54.7971 59.3961 54.6831 59.4155 54.587 59.4527C54.4912 59.4903 54.4093 59.5406 54.3429 59.6036C54.2766 59.6669 54.2219 59.7385 54.1798 59.8171C54.1376 59.8953 54.1052 59.9773 54.0825 60.0611C54.0602 60.1453 54.0438 60.2262 54.0356 60.3052C54.027 60.3838 54.0225 60.4546 54.0233 60.5171C54.0225 60.5756 54.0263 60.6427 54.0356 60.7176C54.0438 60.7917 54.0602 60.8689 54.0844 60.9493C54.1082 61.0294 54.1429 61.1077 54.1894 61.1829C54.236 61.2589 54.2964 61.3275 54.3713 61.3878C54.4461 61.4486 54.5382 61.4974 54.6484 61.5328C54.758 61.5689 54.8888 61.5875 55.0404 61.5883C55.1391 61.5875 55.2252 61.5801 55.3001 61.5656C55.3746 61.5518 55.4379 61.5343 55.489 61.5149C55.5404 61.4955 55.5799 61.4773 55.6082 61.4612C55.6365 61.4445 55.6533 61.434 55.6589 61.4296L55.717 61.0585C55.7114 61.063 55.6954 61.0753 55.6682 61.095C55.6417 61.1144 55.6037 61.136 55.5538 61.1591C55.5042 61.1826 55.442 61.2016 55.3679 61.2172C55.2937 61.2332 55.2066 61.2396 55.106 61.2362C54.9867 61.2336 54.8876 61.2165 54.809 61.1844C54.7297 61.1524 54.6667 61.1125 54.6201 61.0637C54.5732 61.0149 54.5374 60.9642 54.5151 60.9117C54.4916 60.8588 54.4771 60.8104 54.47 60.7657C54.4629 60.7213 54.4596 60.687 54.4603 60.6639V60.6136H55.7632ZM53.8973 59.4419H53.495L53.0348 61.0816L52.5669 59.4419H52.1492L52.8221 61.5495L52.7912 61.6926C52.7834 61.7347 52.7707 61.7727 52.7524 61.807C52.7346 61.8413 52.7103 61.8685 52.6802 61.8893C52.6492 61.9098 52.612 61.9206 52.5669 61.921C52.5121 61.9206 52.4637 61.9135 52.4212 61.9024C52.3791 61.8901 52.3456 61.8781 52.3217 61.8666C52.2975 61.8543 52.2852 61.848 52.2845 61.8476L52.327 62.1878C52.3277 62.1889 52.3419 62.1959 52.3694 62.2079C52.3978 62.2202 52.438 62.2317 52.4894 62.2425C52.5404 62.2541 52.6008 62.2585 52.6712 62.2574C52.7584 62.257 52.8318 62.2414 52.891 62.2094C52.9495 62.1788 52.9987 62.1356 53.0382 62.0808C53.0773 62.0253 53.1108 61.9616 53.1384 61.8886C53.1664 61.8159 53.1921 61.7381 53.2167 61.6539L53.8973 59.4419ZM51.8802 61.5574V60.1379C51.8806 60.0734 51.8776 60.0097 51.8706 59.9479C51.8642 59.886 51.8504 59.8264 51.8307 59.7694C51.8098 59.7128 51.7804 59.6584 51.7409 59.6081C51.688 59.5347 51.6187 59.481 51.5315 59.4464C51.4443 59.4121 51.3434 59.395 51.2264 59.3957C51.1355 59.3968 51.0569 59.4095 50.9894 59.4348C50.922 59.4598 50.8657 59.4907 50.8192 59.5276C50.7733 59.5637 50.7379 59.5999 50.7122 59.6353C50.6865 59.6707 50.6698 59.699 50.6619 59.7202V59.4419H50.248V61.5574H50.6619V60.2537C50.6612 60.2098 50.6646 60.161 50.6709 60.1092C50.6768 60.0567 50.6903 60.0049 50.7108 59.9542C50.7316 59.9032 50.7633 59.8573 50.805 59.8171C50.8412 59.7832 50.881 59.7582 50.9261 59.7403C50.9708 59.7217 51.0241 59.7128 51.0874 59.7128C51.1794 59.7131 51.2517 59.728 51.3046 59.7564C51.3575 59.785 51.3955 59.8234 51.4198 59.8719C51.4443 59.9199 51.46 59.9743 51.4656 60.0343C51.4723 60.0943 51.4753 60.155 51.4741 60.2191V61.5574H51.8802ZM49.4261 60.3312H48.5327C48.532 60.3275 48.5327 60.31 48.5335 60.2787C48.5346 60.247 48.5383 60.2072 48.5454 60.1587C48.5525 60.111 48.5655 60.06 48.5834 60.0071C48.6024 59.9542 48.6288 59.9054 48.6627 59.8588C48.697 59.813 48.7413 59.7765 48.7969 59.7497C48.8516 59.7217 48.9202 59.7094 49.0007 59.7128C49.0733 59.7146 49.1352 59.7307 49.1851 59.7593C49.2354 59.7891 49.276 59.8271 49.3069 59.873C49.3382 59.9192 49.362 59.9676 49.3788 60.0186C49.396 60.0704 49.4075 60.1196 49.4138 60.1658C49.4202 60.212 49.4239 60.2504 49.4254 60.2802C49.4261 60.3107 49.4265 60.3283 49.4261 60.3312ZM49.836 60.6136V60.494C49.8367 60.4382 49.8341 60.3737 49.8278 60.2992C49.8218 60.2247 49.8095 60.1457 49.7916 60.063C49.773 59.9799 49.745 59.8987 49.7085 59.8197C49.6716 59.7403 49.6225 59.6688 49.5606 59.604C49.4995 59.5406 49.4228 59.4896 49.3311 59.4512C49.2391 59.4136 49.1288 59.395 49.0007 59.3957C48.8699 59.3961 48.7555 59.4155 48.6594 59.4527C48.5636 59.4903 48.4817 59.5406 48.4153 59.6036C48.349 59.6669 48.2939 59.7385 48.2522 59.8171C48.2101 59.8953 48.1776 59.9773 48.1549 60.0611C48.1322 60.1453 48.1162 60.2262 48.108 60.3052C48.0994 60.3838 48.0949 60.4546 48.0957 60.5171C48.0949 60.5756 48.099 60.6427 48.108 60.7176C48.1162 60.7917 48.1322 60.8689 48.1568 60.9493C48.1806 61.0294 48.2156 61.1077 48.2618 61.1829C48.308 61.2589 48.3688 61.3275 48.4437 61.3878C48.5186 61.4486 48.6106 61.4974 48.7209 61.5328C48.8304 61.5689 48.9612 61.5875 49.1124 61.5883C49.2115 61.5875 49.2976 61.5801 49.3725 61.5656C49.4474 61.5518 49.5107 61.5343 49.5614 61.5149C49.6128 61.4955 49.6523 61.4773 49.6806 61.4612C49.7089 61.4445 49.7257 61.434 49.7316 61.4296L49.7898 61.0585C49.7838 61.063 49.7678 61.0753 49.7406 61.095C49.7141 61.1144 49.6761 61.136 49.6266 61.1591C49.577 61.1826 49.5144 61.2016 49.4403 61.2172C49.3661 61.2332 49.2793 61.2396 49.1784 61.2362C49.0591 61.2336 48.96 61.2165 48.8814 61.1844C48.8021 61.1524 48.7387 61.1125 48.6925 61.0637C48.6456 61.0149 48.6102 60.9642 48.5875 60.9117C48.564 60.8588 48.5495 60.8104 48.5424 60.7657C48.5353 60.7213 48.532 60.687 48.5327 60.6639V60.6136H49.836ZM47.3315 59.6818C47.3315 59.7739 47.3222 59.8525 47.3025 59.9177C47.2831 59.9825 47.254 60.038 47.2157 60.0838C47.1821 60.1259 47.146 60.1591 47.1065 60.1833C47.0678 60.2075 47.0301 60.2258 46.9925 60.2366C46.9556 60.2474 46.9228 60.2545 46.8949 60.2578C46.8673 60.2608 46.8479 60.2623 46.8364 60.2619H46.4035V59.0857H46.8364C46.8669 59.0854 46.9031 59.088 46.9441 59.0943C46.9862 59.101 47.0301 59.1144 47.0745 59.1349C47.1188 59.1561 47.1609 59.1878 47.1993 59.231C47.2388 59.2743 47.2704 59.3327 47.2943 59.4058C47.3185 59.4784 47.3312 59.5708 47.3315 59.6818ZM47.8226 59.6818C47.8222 59.5254 47.804 59.3916 47.7671 59.2795C47.7313 59.167 47.681 59.0731 47.6166 58.9982C47.5525 58.9229 47.478 58.8633 47.3926 58.8197C47.3077 58.7758 47.2157 58.7452 47.1177 58.7262C47.019 58.7076 46.9176 58.6986 46.8133 58.6994H45.9277V61.5574H46.4035V60.6487H46.8289C46.9128 60.649 46.997 60.6438 47.0815 60.6323C47.1657 60.62 47.2492 60.5958 47.3315 60.5589C47.4139 60.5224 47.494 60.4665 47.5715 60.3931C47.6493 60.3197 47.7104 60.2228 47.7548 60.104C47.7995 59.9851 47.8222 59.8439 47.8226 59.6818ZM69.8582 60.927C69.8579 60.9784 69.8456 61.0242 69.8217 61.0637C69.7983 61.1036 69.7662 61.1378 69.7264 61.1665C69.6865 61.1949 69.641 61.2183 69.5915 61.2362C69.5635 61.2478 69.5352 61.2556 69.5065 61.2608C69.4775 61.2656 69.4529 61.2675 69.4331 61.2675C69.3638 61.2675 69.3016 61.2556 69.245 61.2314C69.1899 61.2068 69.1455 61.1691 69.1127 61.1181C69.0788 61.0663 69.0624 61.0004 69.0617 60.9192C69.0617 60.899 69.0628 60.8774 69.0647 60.8543C69.0673 60.8305 69.0714 60.8092 69.077 60.7917C69.0971 60.7273 69.1317 60.6747 69.1828 60.6341C69.2331 60.5935 69.2957 60.5641 69.3713 60.5451C69.4466 60.5261 69.5315 60.5171 69.6261 60.5171C69.6697 60.5171 69.7085 60.5186 69.7427 60.5231C69.7785 60.5265 69.8061 60.5306 69.827 60.5343C69.8471 60.5376 69.8579 60.5395 69.8582 60.5402V60.927ZM70.2722 61.5574V60.1692C70.2729 60.0768 70.2677 59.9974 70.258 59.9311C70.2476 59.8644 70.2297 59.8052 70.204 59.753C70.1779 59.7001 70.1414 59.6494 70.0945 59.6003C70.0322 59.5358 69.9492 59.4844 69.8437 59.4464C69.7379 59.4084 69.609 59.3883 69.4562 59.3875C69.3653 59.3883 69.2852 59.3957 69.2156 59.4095C69.1466 59.4229 69.0881 59.4397 69.0408 59.4572C68.9946 59.4754 68.9592 59.4915 68.9354 59.5052C68.9115 59.519 68.8993 59.5269 68.8993 59.5269L68.8255 59.8983C68.8255 59.8968 68.8374 59.8871 68.8605 59.8692C68.8832 59.8506 68.9171 59.8294 68.963 59.804C69.0088 59.7798 69.0647 59.7575 69.1325 59.7385C69.2003 59.7191 69.2785 59.7072 69.3672 59.7049C69.4786 59.7053 69.5688 59.7176 69.6373 59.7422C69.7051 59.7657 69.7547 59.7988 69.7849 59.8402C69.8124 59.8756 69.831 59.9117 69.8415 59.9486C69.8519 59.9859 69.8579 60.0213 69.8582 60.0555C69.859 60.0898 69.859 60.1196 69.8582 60.1457V60.2537C69.8582 60.2537 69.8471 60.2519 69.8262 60.2489C69.8046 60.2455 69.7763 60.2429 69.7398 60.2396C69.7029 60.2366 69.6619 60.2347 69.6146 60.2347C69.5341 60.2347 69.4529 60.2396 69.3717 60.2511C69.2901 60.2623 69.2111 60.2809 69.1358 60.3066C69.0598 60.332 68.9902 60.367 68.9268 60.4095C68.8631 60.4519 68.8091 60.5049 68.7636 60.5674C68.7282 60.6196 68.7014 60.6703 68.6839 60.7213C68.6656 60.7716 68.6545 60.8174 68.6485 60.8592C68.6422 60.9013 68.6396 60.9355 68.6399 60.962C68.6396 61.0056 68.6448 61.0548 68.6556 61.1088C68.6656 61.1624 68.6839 61.2172 68.7096 61.2712C68.7353 61.326 68.7707 61.377 68.8162 61.4236C68.8616 61.4702 68.9194 61.5082 68.9887 61.538C69.058 61.5678 69.1414 61.5846 69.2394 61.5883C69.3441 61.5901 69.4369 61.5786 69.5188 61.5533C69.6004 61.5283 69.672 61.4929 69.7327 61.4467C69.7934 61.3998 69.8441 61.3454 69.8854 61.2828V61.4065C69.8847 61.4266 69.8862 61.4467 69.8892 61.4672C69.8925 61.4884 69.9015 61.5063 69.9164 61.5227C69.9287 61.5354 69.9439 61.544 69.9629 61.5488C69.9816 61.5533 69.9987 61.5559 70.0155 61.5566C70.0322 61.5574 70.0445 61.5574 70.0516 61.5574H70.2722ZM68.6187 59.8748L68.5606 59.4885C68.5405 59.4754 68.5233 59.465 68.5092 59.4572C68.495 59.4497 68.4816 59.443 68.4678 59.4378C68.4544 59.4326 68.4388 59.4278 68.4212 59.4225C68.3985 59.4166 68.3788 59.4129 68.362 59.4102C68.3449 59.4084 68.3259 59.4069 68.3054 59.4069C68.2707 59.4065 68.2368 59.4091 68.2048 59.4129C68.1727 59.4173 68.1411 59.4263 68.1109 59.44C68.0807 59.4527 68.0513 59.4725 68.023 59.5C67.9909 59.5302 67.9645 59.5604 67.9436 59.5909C67.9227 59.6207 67.9064 59.6487 67.8948 59.6733C67.8836 59.6979 67.8762 59.7157 67.8721 59.728V59.4419H67.4581V61.5574H67.8721V60.3547C67.8717 60.3178 67.8728 60.278 67.8747 60.2329C67.8765 60.1882 67.8833 60.1423 67.8926 60.0943C67.9026 60.0466 67.919 59.9989 67.9417 59.9523C67.9637 59.9143 67.9909 59.8801 68.0233 59.8506C68.0558 59.8204 68.0945 59.7962 68.1385 59.7783C68.1828 59.7608 68.2335 59.7511 68.2901 59.7511C68.359 59.7519 68.4201 59.7627 68.473 59.7854C68.5263 59.8081 68.5747 59.8376 68.6187 59.8748ZM66.5744 60.927C66.5737 60.9784 66.5614 61.0242 66.5375 61.0637C66.5144 61.1036 66.4824 61.1378 66.4422 61.1665C66.4023 61.1949 66.3572 61.2183 66.3077 61.2362C66.2801 61.2478 66.2518 61.2556 66.2227 61.2608C66.1933 61.2656 66.1691 61.2675 66.1489 61.2675C66.08 61.2675 66.0174 61.2556 65.9612 61.2314C65.906 61.2068 65.8613 61.1691 65.8285 61.1181C65.795 61.0663 65.7786 61.0004 65.7779 60.9192C65.7779 60.899 65.779 60.8774 65.7808 60.8543C65.7834 60.8305 65.7875 60.8092 65.7931 60.7917C65.8133 60.7273 65.8483 60.6747 65.8989 60.6341C65.9492 60.5935 66.0115 60.5641 66.0871 60.5451C66.1624 60.5261 66.2477 60.5171 66.3423 60.5171C66.3855 60.5171 66.4243 60.5186 66.4589 60.5231C66.4943 60.5265 66.5223 60.5306 66.5427 60.5343C66.5636 60.5376 66.5737 60.5395 66.5744 60.5402V60.927ZM66.988 61.5574V60.1692C66.9891 60.0768 66.9839 59.9974 66.9742 59.9311C66.9637 59.8644 66.9455 59.8052 66.9198 59.753C66.8941 59.7001 66.8576 59.6494 66.8102 59.6003C66.7484 59.5358 66.6653 59.4844 66.5595 59.4464C66.4541 59.4084 66.3248 59.3883 66.172 59.3875C66.0811 59.3883 66.0014 59.3957 65.9317 59.4095C65.8628 59.4229 65.8039 59.4397 65.7574 59.4572C65.7108 59.4754 65.6754 59.4915 65.6512 59.5052C65.6277 59.519 65.6154 59.5269 65.6154 59.5269L65.5416 59.8983C65.5416 59.8968 65.5532 59.8871 65.5767 59.8692C65.599 59.8506 65.6333 59.8294 65.6791 59.804C65.725 59.7798 65.7808 59.7575 65.8486 59.7385C65.9165 59.7191 65.9943 59.7072 66.0834 59.7049C66.1948 59.7053 66.2849 59.7176 66.3535 59.7422C66.4209 59.7657 66.4708 59.7988 66.5006 59.8402C66.5286 59.8756 66.5472 59.9117 66.5577 59.9486C66.5681 59.9859 66.5737 60.0213 66.5744 60.0555C66.5752 60.0898 66.5752 60.1196 66.5744 60.1457V60.2537C66.5737 60.2537 66.5636 60.2519 66.5424 60.2489C66.5211 60.2455 66.4928 60.2429 66.4559 60.2396C66.4191 60.2366 66.3777 60.2347 66.3308 60.2347C66.2503 60.2347 66.1691 60.2396 66.0878 60.2511C66.0059 60.2623 65.9273 60.2809 65.852 60.3066C65.7756 60.332 65.706 60.367 65.643 60.4095C65.5793 60.4519 65.5249 60.5049 65.4798 60.5674C65.4444 60.6196 65.4176 60.6703 65.4001 60.7213C65.3822 60.7716 65.3703 60.8174 65.3647 60.8592C65.358 60.9013 65.3557 60.9355 65.3561 60.962C65.3557 61.0056 65.3606 61.0548 65.3718 61.1088C65.3822 61.1624 65.4001 61.2172 65.4258 61.2712C65.4515 61.326 65.4873 61.377 65.532 61.4236C65.5778 61.4702 65.6352 61.5082 65.7048 61.538C65.7738 61.5678 65.8576 61.5846 65.9556 61.5883C66.0599 61.5901 66.153 61.5786 66.2346 61.5533C66.3166 61.5283 66.3881 61.4929 66.4489 61.4467C66.5092 61.3998 66.5603 61.3454 66.6016 61.2828V61.4065C66.6009 61.4266 66.602 61.4467 66.6053 61.4672C66.6087 61.4884 66.6176 61.5063 66.6325 61.5227C66.6445 61.5354 66.6601 61.544 66.6787 61.5488C66.6977 61.5533 66.7149 61.5559 66.7316 61.5566C66.7484 61.5574 66.7607 61.5574 66.7678 61.5574H66.988ZM64.6736 61.7351C64.6747 61.7835 64.6616 61.8256 64.6352 61.861C64.6087 61.8964 64.5737 61.9262 64.5283 61.9493C64.4839 61.9728 64.434 61.9892 64.3807 62.0011C64.3274 62.0119 64.2734 62.0175 64.2209 62.0175C64.1184 62.0175 64.0298 62.0056 63.956 61.981C63.8811 61.9571 63.8237 61.9232 63.7831 61.8804C63.7433 61.8368 63.7224 61.7865 63.722 61.7273C63.7224 61.6866 63.7295 61.6501 63.744 61.6173C63.7574 61.5846 63.7734 61.5566 63.7913 61.5328C63.8096 61.5097 63.8256 61.4922 63.8394 61.4791C63.8532 61.4672 63.8606 61.4605 63.8614 61.4605H64.2209C64.3111 61.4627 64.3859 61.4717 64.4452 61.4877C64.5037 61.5041 64.5502 61.5246 64.5838 61.5503C64.6166 61.576 64.6404 61.6043 64.6538 61.6367C64.6676 61.668 64.6739 61.7012 64.6736 61.7351ZM64.6233 60.1379C64.6233 60.2329 64.6069 60.3134 64.5756 60.3812C64.5439 60.4478 64.497 60.4996 64.4336 60.5354C64.3703 60.5715 64.2917 60.5898 64.1974 60.5905C64.1177 60.5898 64.0495 60.5704 63.9929 60.5324C63.9366 60.4944 63.8934 60.4415 63.864 60.3737C63.8342 60.3059 63.8185 60.2277 63.8185 60.1379C63.8185 60.0444 63.8327 59.9654 63.8606 59.9002C63.8889 59.835 63.9321 59.7854 63.9906 59.7519C64.0488 59.7184 64.1229 59.702 64.2131 59.7049C64.2902 59.7072 64.355 59.721 64.4079 59.7459C64.4608 59.7713 64.5026 59.8048 64.5342 59.8461C64.5659 59.8871 64.589 59.933 64.6024 59.9833C64.6166 60.0336 64.6236 60.085 64.6233 60.1379ZM65.0871 61.7157C65.0905 61.5194 65.0201 61.3733 64.8777 61.2802C64.7354 61.1859 64.5253 61.1393 64.2481 61.1397C64.2164 61.1397 64.1792 61.1408 64.1359 61.1419C64.0927 61.1427 64.048 61.1423 64.0029 61.1401C63.9567 61.1382 63.9146 61.1338 63.8755 61.1256C63.8353 61.117 63.804 61.1043 63.7794 61.0864C63.7548 61.0682 63.7421 61.044 63.7414 61.0123C63.7421 60.9762 63.7544 60.9482 63.7794 60.9296C63.804 60.9106 63.8379 60.8983 63.8811 60.8908C63.9251 60.8841 63.975 60.8804 64.032 60.8804C64.0883 60.88 64.1486 60.88 64.2131 60.8804C64.3893 60.88 64.5379 60.8495 64.6605 60.7895C64.7831 60.7303 64.8762 60.6449 64.9403 60.5324C65.004 60.421 65.0361 60.2865 65.0368 60.13V59.4419H64.8278C64.8114 59.4408 64.7932 59.4408 64.7745 59.4423C64.7566 59.443 64.738 59.4475 64.719 59.4553C64.7004 59.4639 64.6825 59.4784 64.6657 59.5C64.6508 59.5216 64.6415 59.5444 64.6385 59.5682C64.6352 59.5913 64.6341 59.6114 64.6348 59.6275V59.6546C64.6348 59.6539 64.6296 59.6457 64.618 59.6289C64.6069 59.6118 64.5882 59.5917 64.5629 59.5675C64.5372 59.5429 64.5033 59.5187 64.4612 59.4944C64.4187 59.4695 64.3666 59.449 64.3047 59.4326C64.2429 59.4158 64.1691 59.4076 64.0853 59.4069C64.0312 59.4065 63.9739 59.4129 63.9135 59.4259C63.8528 59.4386 63.7935 59.4613 63.7354 59.4922C63.6769 59.5239 63.624 59.5667 63.5767 59.6219C63.5294 59.6763 63.4918 59.7459 63.4642 59.8294C63.437 59.9132 63.4236 60.0131 63.424 60.13C63.4247 60.2105 63.4359 60.2817 63.4564 60.3435C63.4769 60.4054 63.5026 60.4587 63.5331 60.503C63.5633 60.5473 63.5942 60.5835 63.6244 60.6118C63.655 60.6401 63.6807 60.6613 63.7012 60.6747C63.722 60.6885 63.7328 60.6949 63.7336 60.6949C63.7321 60.6941 63.7194 60.696 63.6937 60.7008C63.6676 60.7049 63.6356 60.7142 63.5976 60.728C63.5596 60.7414 63.5208 60.7612 63.4828 60.7884C63.4448 60.8152 63.4124 60.8517 63.3867 60.8964C63.361 60.9419 63.3483 60.9985 63.3468 61.0663C63.3442 61.1185 63.3498 61.1624 63.3636 61.199C63.377 61.2351 63.3953 61.2656 63.4184 61.2891C63.4415 61.3137 63.4668 61.3323 63.4936 61.3465C63.5208 61.3606 63.5465 61.3718 63.5711 61.3793C63.5704 61.3793 63.5626 61.3837 63.548 61.3938C63.5331 61.4024 63.5145 61.4176 63.4925 61.4374C63.4698 61.4579 63.4482 61.4836 63.4262 61.5156C63.4035 61.5477 63.3848 61.5857 63.3699 61.6304C63.355 61.6751 63.3476 61.7269 63.3468 61.7854C63.3476 61.8867 63.3811 61.9769 63.4482 62.0551C63.5152 62.133 63.614 62.1952 63.7433 62.2395C63.8737 62.2839 64.0327 62.307 64.2209 62.3073C64.3371 62.3073 64.4459 62.2962 64.5476 62.2734C64.6497 62.2503 64.7403 62.2149 64.8196 62.1673C64.8982 62.1188 64.9616 62.0574 65.0085 61.9828C65.0554 61.9083 65.0815 61.8189 65.0871 61.7157ZM62.6062 61.7351C62.6073 61.7835 62.5946 61.8256 62.5678 61.861C62.5413 61.8964 62.5059 61.9262 62.4609 61.9493C62.4165 61.9728 62.367 61.9892 62.3133 62.0011C62.2597 62.0119 62.2064 62.0175 62.1535 62.0175C62.051 62.0175 61.9627 62.0056 61.8886 61.981C61.8137 61.9571 61.7563 61.9232 61.7157 61.8804C61.6759 61.8368 61.655 61.7865 61.6546 61.7273C61.655 61.6866 61.6624 61.6501 61.6766 61.6173C61.69 61.5846 61.706 61.5566 61.7239 61.5328C61.7422 61.5097 61.7582 61.4922 61.772 61.4791C61.7861 61.4672 61.7932 61.4605 61.794 61.4605H62.1535C62.2437 61.4627 62.3185 61.4717 62.3778 61.4877C62.4363 61.5041 62.4828 61.5246 62.5164 61.5503C62.5492 61.576 62.573 61.6043 62.5868 61.6367C62.6002 61.668 62.6065 61.7012 62.6062 61.7351ZM62.5559 60.1379C62.5559 60.2329 62.5395 60.3134 62.5082 60.3812C62.4765 60.4478 62.4292 60.4996 62.3662 60.5354C62.3029 60.5715 62.2243 60.5898 62.13 60.5905C62.0503 60.5898 61.9821 60.5704 61.9255 60.5324C61.8692 60.4944 61.826 60.4415 61.7966 60.3737C61.7668 60.3059 61.7515 60.2277 61.7515 60.1379C61.7515 60.0444 61.7657 59.9654 61.7932 59.9002C61.8215 59.835 61.8648 59.7854 61.9236 59.7519C61.9814 59.7184 62.0555 59.702 62.1457 59.7049C62.2232 59.7072 62.2876 59.721 62.3405 59.7459C62.3931 59.7713 62.4352 59.8048 62.4668 59.8461C62.4981 59.8871 62.5216 59.933 62.535 59.9833C62.5492 60.0336 62.5562 60.085 62.5559 60.1379ZM63.0197 61.7157C63.0231 61.5194 62.9527 61.3733 62.8103 61.2802C62.668 61.1859 62.4579 61.1393 62.1807 61.1397C62.149 61.1397 62.1114 61.1408 62.0686 61.1419C62.025 61.1427 61.9806 61.1423 61.9355 61.1401C61.8897 61.1382 61.8472 61.1338 61.8081 61.1256C61.7679 61.117 61.7366 61.1043 61.712 61.0864C61.6874 61.0682 61.6744 61.044 61.674 61.0123C61.6744 60.9762 61.6867 60.9482 61.712 60.9296C61.7366 60.9106 61.7705 60.8983 61.8137 60.8908C61.8577 60.8841 61.9076 60.8804 61.9646 60.8804C62.0209 60.88 62.0812 60.88 62.1457 60.8804C62.3215 60.88 62.4706 60.8495 62.5931 60.7895C62.7153 60.7303 62.8092 60.6449 62.8729 60.5324C62.937 60.421 62.9691 60.2865 62.9694 60.13V59.4419H62.7608C62.7436 59.4408 62.7258 59.4408 62.7071 59.4423C62.6893 59.443 62.6702 59.4475 62.6516 59.4553C62.633 59.4639 62.6151 59.4784 62.5983 59.5C62.5834 59.5216 62.5745 59.5444 62.5711 59.5682C62.5678 59.5913 62.5667 59.6114 62.567 59.6275V59.6546C62.567 59.6539 62.5622 59.6457 62.5507 59.6289C62.5395 59.6118 62.5209 59.5917 62.4959 59.5675C62.4698 59.5429 62.4359 59.5187 62.3942 59.4944C62.3513 59.4695 62.2992 59.449 62.2373 59.4326C62.1755 59.4158 62.1017 59.4076 62.0179 59.4069C61.9639 59.4065 61.9069 59.4129 61.8461 59.4259C61.7854 59.4386 61.7262 59.4613 61.668 59.4922C61.6095 59.5239 61.5566 59.5667 61.5097 59.6219C61.4616 59.6763 61.4244 59.7459 61.3968 59.8294C61.3696 59.9132 61.3562 60.0131 61.3569 60.13C61.3573 60.2105 61.3685 60.2817 61.389 60.3435C61.4095 60.4054 61.4356 60.4587 61.4657 60.503C61.4959 60.5473 61.5272 60.5835 61.5574 60.6118C61.5876 60.6401 61.6133 60.6613 61.6341 60.6747C61.6546 60.6885 61.6658 60.6949 61.6658 60.6949C61.6647 60.6941 61.652 60.696 61.6263 60.7008C61.6002 60.7049 61.5682 60.7142 61.5302 60.728C61.4922 60.7414 61.4534 60.7612 61.4154 60.7884C61.3774 60.8152 61.3454 60.8517 61.3193 60.8964C61.2936 60.9419 61.2809 60.9985 61.2794 61.0663C61.2768 61.1185 61.2828 61.1624 61.2962 61.199C61.3096 61.2351 61.3275 61.2656 61.351 61.2891C61.3741 61.3137 61.3994 61.3323 61.4262 61.3465C61.4534 61.3606 61.4791 61.3718 61.5037 61.3793C61.503 61.3793 61.4955 61.3837 61.4806 61.3938C61.4657 61.4024 61.4471 61.4176 61.4251 61.4374C61.4024 61.4579 61.3804 61.4836 61.3584 61.5156C61.3361 61.5477 61.3175 61.5857 61.3025 61.6304C61.2876 61.6751 61.2802 61.7269 61.2794 61.7854C61.2802 61.8867 61.3137 61.9769 61.3804 62.0551C61.4475 62.133 61.5462 62.1952 61.6759 62.2395C61.8059 62.2839 61.9653 62.307 62.1535 62.3073C62.2697 62.3073 62.3785 62.2962 62.4802 62.2734C62.5823 62.2503 62.6729 62.2149 62.7522 62.1673C62.8308 62.1188 62.8942 62.0574 62.9411 61.9828C62.9884 61.9083 63.0138 61.8189 63.0197 61.7157ZM44.6964 61.5574V60.1379C44.6967 60.0734 44.6934 60.0097 44.6863 59.9479C44.68 59.886 44.6665 59.8264 44.6464 59.7694C44.6259 59.7128 44.5961 59.6584 44.557 59.6081C44.5041 59.5347 44.4344 59.481 44.3473 59.4464C44.2604 59.4121 44.1591 59.395 44.0425 59.3957C43.9516 59.3968 43.873 59.4095 43.8055 59.4348C43.7377 59.4598 43.6815 59.4907 43.6353 59.5276C43.5894 59.5637 43.5541 59.5999 43.5283 59.6353C43.5023 59.6707 43.4855 59.699 43.4777 59.7202V59.4419H43.0641V61.5574H43.4777V60.2537C43.4773 60.2098 43.4807 60.161 43.487 60.1092C43.4926 60.0567 43.5064 60.0049 43.5269 59.9542C43.5473 59.9032 43.579 59.8573 43.6211 59.8171C43.6573 59.7832 43.6971 59.7582 43.7422 59.7403C43.7865 59.7217 43.8402 59.7128 43.9031 59.7128C43.9955 59.7131 44.0678 59.728 44.1207 59.7564C44.1733 59.785 44.2116 59.8234 44.2359 59.8719C44.2604 59.9199 44.2757 59.9743 44.2817 60.0343C44.288 60.0943 44.2914 60.155 44.2902 60.2191V61.5574H44.6964ZM42.1763 60.927C42.1755 60.9784 42.1632 61.0242 42.1394 61.0637C42.1163 61.1036 42.0839 61.1378 42.044 61.1665C42.0042 61.1949 41.9591 61.2183 41.9095 61.2362C41.8816 61.2478 41.8533 61.2556 41.8242 61.2608C41.7955 61.2656 41.7709 61.2675 41.7508 61.2675C41.6819 61.2675 41.6193 61.2556 41.5634 61.2314C41.5079 61.2068 41.4632 61.1691 41.4304 61.1181C41.3972 61.0663 41.3801 61.0004 41.3797 60.9192C41.3797 60.899 41.3808 60.8774 41.3827 60.8543C41.3853 60.8305 41.389 60.8092 41.395 60.7917C41.4151 60.7273 41.4498 60.6747 41.5008 60.6341C41.5511 60.5935 41.6137 60.5641 41.689 60.5451C41.7646 60.5261 41.8495 60.5171 41.9442 60.5171C41.9874 60.5171 42.0261 60.5186 42.0608 60.5231C42.0966 60.5265 42.1241 60.5306 42.1446 60.5343C42.1655 60.5376 42.1755 60.5395 42.1763 60.5402V60.927ZM42.5902 61.5574V60.1692C42.5906 60.0768 42.5854 59.9974 42.5761 59.9311C42.5656 59.8644 42.5477 59.8052 42.5217 59.753C42.496 59.7001 42.4591 59.6494 42.4121 59.6003C42.3503 59.5358 42.2672 59.4844 42.1614 59.4464C42.0556 59.4084 41.9267 59.3883 41.7739 59.3875C41.683 59.3883 41.6033 59.3957 41.5336 59.4095C41.4647 59.4229 41.4058 59.4397 41.3589 59.4572C41.3127 59.4754 41.2769 59.4915 41.2531 59.5052C41.2292 59.519 41.2173 59.5269 41.2173 59.5269L41.1435 59.8983C41.1435 59.8968 41.1554 59.8871 41.1785 59.8692C41.2009 59.8506 41.2352 59.8294 41.281 59.804C41.3268 59.7798 41.3827 59.7575 41.4505 59.7385C41.518 59.7191 41.5962 59.7072 41.6849 59.7049C41.7966 59.7053 41.8868 59.7176 41.9554 59.7422C42.0228 59.7657 42.0727 59.7988 42.1029 59.8402C42.1305 59.8756 42.1491 59.9117 42.1595 59.9486C42.17 59.9859 42.1755 60.0213 42.1763 60.0555C42.177 60.0898 42.177 60.1196 42.1763 60.1457V60.2537C42.1755 60.2537 42.1655 60.2519 42.1439 60.2489C42.1226 60.2455 42.0943 60.2429 42.0578 60.2396C42.0209 60.2366 41.9796 60.2347 41.9326 60.2347C41.8522 60.2347 41.7709 60.2396 41.6897 60.2511C41.6077 60.2623 41.5291 60.2809 41.4539 60.3066C41.3775 60.332 41.3078 60.367 41.2449 60.4095C41.1812 60.4519 41.1271 60.5049 41.0817 60.5674C41.0463 60.6196 41.0191 60.6703 41.0016 60.7213C40.9837 60.7716 40.9721 60.8174 40.9666 60.8592C40.9598 60.9013 40.9572 60.9355 40.958 60.962C40.9572 61.0056 40.9625 61.0548 40.9733 61.1088C40.9837 61.1624 41.0016 61.2172 41.0277 61.2712C41.0534 61.326 41.0888 61.377 41.1338 61.4236C41.1797 61.4702 41.237 61.5082 41.3067 61.538C41.3756 61.5678 41.4595 61.5846 41.5574 61.5883C41.6618 61.5901 41.7545 61.5786 41.8365 61.5533C41.9185 61.5283 41.99 61.4929 42.0504 61.4467C42.1111 61.3998 42.1621 61.3454 42.2035 61.2828V61.4065C42.2027 61.4266 42.2039 61.4467 42.2072 61.4672C42.2106 61.4884 42.2195 61.5063 42.2344 61.5227C42.2463 61.5354 42.262 61.544 42.2806 61.5488C42.2992 61.5533 42.3167 61.5559 42.3335 61.5566C42.3503 61.5574 42.3626 61.5574 42.3696 61.5574H42.5902ZM40.1126 61.0585C40.0932 61.0842 40.0701 61.1088 40.0426 61.1319C40.0154 61.1557 39.983 61.1766 39.9465 61.1941C39.9025 61.215 39.8608 61.2299 39.8209 61.2388C39.7807 61.2478 39.7389 61.2519 39.695 61.2519C39.6111 61.2511 39.5404 61.2321 39.4826 61.1945C39.4249 61.1572 39.3783 61.1043 39.3436 61.0373C39.3082 60.9702 39.2825 60.8916 39.2658 60.8014C39.2497 60.7116 39.2401 60.6144 39.2389 60.5093C39.2378 60.4497 39.2404 60.3853 39.2453 60.3148C39.2501 60.2444 39.2606 60.174 39.2758 60.1032C39.2922 60.0328 39.3168 59.9684 39.3489 59.9091C39.3816 59.8506 39.4256 59.8033 39.4804 59.7675C39.5351 59.7318 39.6041 59.7131 39.6871 59.7128C39.7609 59.7128 39.8239 59.7236 39.876 59.7448C39.9289 59.7657 39.9718 59.7951 40.0046 59.8324C40.0355 59.8655 40.0579 59.902 40.0742 59.9426C40.0895 59.984 40.1 60.0265 40.1055 60.0697C40.1108 60.1137 40.1134 60.155 40.1126 60.196V61.0585ZM40.5265 61.5574V58.6875H40.1126V59.6394C40.1126 59.6383 40.1082 59.6297 40.0985 59.614C40.088 59.5969 40.0724 59.5772 40.0497 59.5533C40.0266 59.5295 39.996 59.5052 39.9573 59.481C39.9189 59.4572 39.8712 59.4367 39.8134 59.4203C39.7561 59.4047 39.6886 59.3961 39.61 59.3957C39.5005 59.3961 39.4044 59.4136 39.3213 59.4482C39.2378 59.4833 39.1663 59.5302 39.1059 59.5894C39.046 59.6494 38.9957 59.7169 38.9558 59.7925C38.9152 59.8685 38.8828 59.9479 38.8597 60.0317C38.8358 60.1148 38.8191 60.1975 38.8086 60.2791C38.7986 60.3607 38.7941 60.4378 38.7941 60.5093C38.7941 60.6244 38.8023 60.7355 38.8202 60.8428C38.8384 60.9493 38.8667 61.0488 38.9055 61.1397C38.945 61.2314 38.9949 61.3103 39.0582 61.3782C39.1205 61.4467 39.1968 61.4985 39.2859 61.5354C39.3753 61.5723 39.4796 61.5901 39.5981 61.5883C39.6737 61.5875 39.7427 61.5779 39.8041 61.5581C39.8652 61.538 39.9226 61.5104 39.9755 61.4743C40.0292 61.4389 40.081 61.396 40.132 61.3487V61.5574H40.5265ZM37.964 60.927C37.9633 60.9784 37.9513 61.0242 37.9275 61.0637C37.9044 61.1036 37.872 61.1378 37.8321 61.1665C37.7923 61.1949 37.7472 61.2183 37.6973 61.2362C37.6697 61.2478 37.641 61.2556 37.6123 61.2608C37.5832 61.2656 37.5587 61.2675 37.5385 61.2675C37.4696 61.2675 37.407 61.2556 37.3511 61.2314C37.2956 61.2068 37.2513 61.1691 37.2185 61.1181C37.1846 61.0663 37.1682 61.0004 37.1675 60.9192C37.1675 60.899 37.1686 60.8774 37.1704 60.8543C37.173 60.8305 37.1771 60.8092 37.1827 60.7917C37.2029 60.7273 37.2375 60.6747 37.2885 60.6341C37.3388 60.5935 37.4014 60.5641 37.4767 60.5451C37.5523 60.5261 37.6373 60.5171 37.7319 60.5171C37.7751 60.5171 37.8139 60.5186 37.8489 60.5231C37.8843 60.5265 37.9118 60.5306 37.9323 60.5343C37.9532 60.5376 37.9633 60.5395 37.964 60.5402V60.927ZM38.3779 61.5574V60.1692C38.3787 60.0768 38.3735 59.9974 38.3638 59.9311C38.3533 59.8644 38.3355 59.8052 38.3098 59.753C38.2837 59.7001 38.2472 59.6494 38.1998 59.6003C38.1384 59.5358 38.0549 59.4844 37.9495 59.4464C37.8437 59.4084 37.7148 59.3883 37.562 59.3875C37.4711 59.3883 37.391 59.3957 37.3213 59.4095C37.2524 59.4229 37.1939 59.4397 37.1466 59.4572C37.1004 59.4754 37.065 59.4915 37.0412 59.5052C37.0173 59.519 37.005 59.5269 37.005 59.5269L36.9316 59.8983C36.9316 59.8968 36.9432 59.8871 36.9663 59.8692C36.989 59.8506 37.0229 59.8294 37.0687 59.804C37.1145 59.7798 37.1704 59.7575 37.2382 59.7385C37.3061 59.7191 37.3839 59.7072 37.473 59.7049C37.5847 59.7053 37.6745 59.7176 37.7431 59.7422C37.8109 59.7657 37.8604 59.7988 37.8906 59.8402C37.9186 59.8756 37.9368 59.9117 37.9472 59.9486C37.9577 59.9859 37.9633 60.0213 37.964 60.0555C37.9648 60.0898 37.9648 60.1196 37.964 60.1457V60.2537C37.9633 60.2537 37.9532 60.2519 37.932 60.2489C37.9107 60.2455 37.882 60.2429 37.8455 60.2396C37.8086 60.2366 37.7677 60.2347 37.7203 60.2347C37.6399 60.2347 37.5587 60.2396 37.4774 60.2511C37.3955 60.2623 37.3172 60.2809 37.2416 60.3066C37.1656 60.332 37.0959 60.367 37.0326 60.4095C36.9689 60.4519 36.9149 60.5049 36.8694 60.5674C36.834 60.6196 36.8072 60.6703 36.7897 60.7213C36.7718 60.7716 36.7602 60.8174 36.7543 60.8592C36.7476 60.9013 36.7453 60.9355 36.7457 60.962C36.7453 61.0056 36.7502 61.0548 36.7614 61.1088C36.7718 61.1624 36.7897 61.2172 36.8154 61.2712C36.8411 61.326 36.8768 61.377 36.9219 61.4236C36.9678 61.4702 37.0248 61.5082 37.0944 61.538C37.1637 61.5678 37.2472 61.5846 37.3452 61.5883C37.4499 61.5901 37.5423 61.5786 37.6246 61.5533C37.7062 61.5283 37.7777 61.4929 37.8385 61.4467C37.8992 61.3998 37.9499 61.3454 37.9912 61.2828V61.4065C37.9905 61.4266 37.992 61.4467 37.9949 61.4672C37.9983 61.4884 38.0072 61.5063 38.0221 61.5227C38.0344 61.5354 38.0497 61.544 38.0683 61.5488C38.0873 61.5533 38.1048 61.5559 38.1212 61.5566C38.1384 61.5574 38.1503 61.5574 38.1574 61.5574H38.3779ZM35.9432 60.7027C35.9432 60.7798 35.9335 60.845 35.9149 60.8987C35.8959 60.9519 35.8679 60.9944 35.831 61.0276C35.7878 61.0693 35.7375 61.0984 35.6809 61.1151C35.6235 61.1319 35.5654 61.1423 35.5062 61.1449C35.4462 61.1475 35.3907 61.1479 35.3396 61.1475H34.9298V60.2694H35.3396C35.4048 60.2686 35.4682 60.2709 35.53 60.2757C35.5926 60.2809 35.65 60.2929 35.7029 60.3107C35.7554 60.329 35.8009 60.3581 35.8389 60.3972C35.8724 60.4333 35.8974 60.4765 35.9152 60.5265C35.9342 60.5764 35.9432 60.6349 35.9432 60.7027ZM35.8389 59.4885C35.8381 59.5682 35.8247 59.6342 35.7983 59.6852C35.7718 59.737 35.7375 59.7769 35.6962 59.8059C35.6548 59.8357 35.6123 59.8562 35.5673 59.8696C35.5222 59.8827 35.4808 59.8912 35.4428 59.8942C35.4048 59.8976 35.375 59.8987 35.3553 59.8983H34.9298V59.0857H35.3553C35.372 59.0854 35.3951 59.0857 35.4235 59.0872C35.4525 59.088 35.4834 59.0913 35.517 59.0962C35.5498 59.101 35.5829 59.1092 35.6146 59.12C35.6459 59.1312 35.6731 59.1472 35.6954 59.167C35.7442 59.2027 35.78 59.2463 35.8035 59.2974C35.8269 59.3477 35.8389 59.4114 35.8389 59.4885ZM36.4342 60.6949C36.4342 60.6401 36.429 60.5861 36.4167 60.5321C36.4056 60.4777 36.3862 60.4255 36.359 60.3756C36.3318 60.3256 36.2949 60.2798 36.2487 60.2385C36.1921 60.1871 36.1295 60.149 36.0617 60.1233C35.9935 60.0973 35.9246 60.0794 35.8541 60.0682C35.9015 60.0529 35.9469 60.0336 35.992 60.0105C36.0378 59.987 36.0799 59.9605 36.1187 59.9303C36.157 59.9002 36.1902 59.8663 36.2178 59.8286C36.2513 59.775 36.2785 59.7131 36.2983 59.6431C36.3187 59.5727 36.3292 59.4915 36.3299 59.3994C36.3292 59.2947 36.3124 59.2027 36.2789 59.1234C36.2461 59.044 36.201 58.9769 36.1447 58.9222C36.0889 58.8674 36.0252 58.8257 35.9547 58.7959C35.8664 58.7568 35.7744 58.7299 35.6775 58.7173C35.5814 58.7042 35.4764 58.6975 35.3631 58.6994H34.4618V61.5574H35.3553C35.4242 61.5581 35.4965 61.5559 35.5717 61.5518C35.6474 61.5469 35.7226 61.538 35.7975 61.5231C35.8728 61.5082 35.9451 61.4851 36.014 61.4542C36.0829 61.424 36.1455 61.3823 36.2025 61.3294C36.2636 61.2679 36.3113 61.2023 36.3448 61.1319C36.3791 61.0615 36.4018 60.9892 36.4156 60.9154C36.4283 60.8413 36.435 60.7679 36.4342 60.6949ZM81.0663 61.5574V60.1379C81.0667 60.0734 81.0633 60.0097 81.0562 59.9479C81.0499 59.886 81.0361 59.8264 81.0163 59.7694C80.9959 59.7128 80.9661 59.6584 80.9269 59.6081C80.874 59.5347 80.8044 59.481 80.7172 59.4464C80.6304 59.4121 80.529 59.395 80.4124 59.3957C80.3215 59.3968 80.2429 59.4095 80.1751 59.4348C80.1077 59.4598 80.0514 59.4907 80.0052 59.5276C79.9594 59.5637 79.9236 59.5999 79.8979 59.6353C79.8722 59.6707 79.8554 59.699 79.8476 59.7202V59.4419H79.434V61.5574H79.8476V60.2537C79.8469 60.2098 79.8506 60.161 79.8565 60.1092C79.8625 60.0567 79.8759 60.0049 79.8964 59.9542C79.9173 59.9032 79.9489 59.8573 79.9907 59.8171C80.0268 59.7832 80.067 59.7582 80.1117 59.7403C80.1568 59.7217 80.2101 59.7128 80.2734 59.7128C80.3655 59.7131 80.4374 59.728 80.4907 59.7564C80.5432 59.785 80.5812 59.8234 80.6058 59.8719C80.6304 59.9199 80.6456 59.9743 80.6516 60.0343C80.6579 60.0943 80.6613 60.155 80.6598 60.2191V61.5574H81.0663ZM78.9367 59.4419H78.5268V61.5574H78.9367V59.4419ZM78.9717 58.9002C78.9709 58.8592 78.9605 58.8227 78.9393 58.7921C78.918 58.7616 78.8897 58.7378 78.8528 58.721C78.8163 58.7042 78.775 58.6953 78.728 58.6953C78.6811 58.696 78.6397 58.7057 78.604 58.7251C78.5682 58.7441 78.5399 58.7694 78.5198 58.8003C78.4993 58.8313 78.4885 58.8648 78.4881 58.9002C78.4881 58.9415 78.497 58.9788 78.5153 59.0112C78.5335 59.044 78.5596 59.0693 78.595 59.088C78.6308 59.1066 78.6747 59.1163 78.728 59.117C78.7761 59.1163 78.8182 59.1066 78.8551 59.088C78.8908 59.0693 78.9192 59.044 78.94 59.0112C78.9605 58.9788 78.9709 58.9415 78.9717 58.9002ZM78.0451 61.5574V60.1457C78.0458 60.0965 78.0429 60.0432 78.038 59.9847C78.0328 59.9263 78.022 59.867 78.0052 59.8081C77.9885 59.7478 77.9631 59.6912 77.9292 59.6371C77.8953 59.5827 77.8506 59.5358 77.794 59.4959C77.7407 59.4598 77.683 59.4333 77.6196 59.4177C77.557 59.4024 77.4952 59.395 77.4341 59.3957C77.3503 59.3961 77.2754 59.4076 77.2109 59.4296C77.1465 59.4512 77.0913 59.4784 77.044 59.5116C76.9974 59.5451 76.9594 59.5783 76.9293 59.6125C76.8991 59.6468 76.8764 59.6763 76.8611 59.702C76.8454 59.728 76.8365 59.7444 76.8346 59.7511C76.832 59.7403 76.8249 59.7202 76.8126 59.6919C76.7996 59.6636 76.781 59.6319 76.7545 59.5965C76.7288 59.5608 76.6953 59.5276 76.6528 59.4959C76.6159 59.4717 76.5772 59.452 76.5354 59.4374C76.4937 59.4225 76.4516 59.4114 76.4091 59.405C76.3674 59.3987 76.3272 59.3957 76.2892 59.3957C76.2005 59.3961 76.1234 59.4084 76.0574 59.4315C75.9919 59.455 75.9367 59.4844 75.8916 59.5198C75.8469 59.5552 75.8115 59.5913 75.7858 59.6289C75.7594 59.6662 75.7419 59.699 75.7322 59.728V59.4419H75.3224V61.5574H75.7322V60.2619C75.7329 60.1736 75.7393 60.101 75.7531 60.044C75.7665 59.987 75.7843 59.9408 75.8071 59.9054C75.8287 59.8696 75.8529 59.8409 75.8794 59.8171C75.9095 59.7873 75.9442 59.7642 75.9829 59.7463C76.022 59.7292 76.0675 59.7202 76.1193 59.7202C76.1815 59.7202 76.2325 59.7273 76.2705 59.7422C76.3086 59.7564 76.3406 59.7757 76.3663 59.8014C76.3972 59.8294 76.4218 59.8618 76.4401 59.8994C76.458 59.9367 76.471 59.9814 76.4788 60.0336C76.4863 60.0857 76.4904 60.1479 76.4904 60.2191V61.5574H76.8927V60.2619C76.8916 60.212 76.8931 60.1617 76.8976 60.1096C76.9017 60.057 76.9132 60.0064 76.9326 59.9564C76.952 59.9061 76.9837 59.8596 77.028 59.8171C77.0615 59.7839 77.0988 59.7593 77.1416 59.7444C77.183 59.728 77.2266 59.7202 77.2713 59.7202C77.3219 59.7191 77.3674 59.7243 77.4088 59.7344C77.4501 59.7444 77.4881 59.7653 77.5228 59.7977C77.5522 59.8271 77.5727 59.8551 77.5861 59.8812C77.6003 59.9073 77.6088 59.9285 77.6122 59.9445C77.617 59.9631 77.6222 59.987 77.6271 60.0168C77.6319 60.0458 77.6353 60.0786 77.6383 60.1137C77.6416 60.149 77.6427 60.1837 77.6427 60.2191V61.5574H78.0451ZM74.4267 60.927C74.426 60.9784 74.4137 61.0242 74.3902 61.0637C74.3667 61.1036 74.3347 61.1378 74.2944 61.1665C74.2546 61.1949 74.2095 61.2183 74.1599 61.2362C74.132 61.2478 74.1041 61.2556 74.0746 61.2608C74.0459 61.2656 74.0217 61.2675 74.0012 61.2675C73.9323 61.2675 73.8697 61.2556 73.8138 61.2314C73.7583 61.2068 73.714 61.1691 73.6812 61.1181C73.6473 61.0663 73.6309 61.0004 73.6301 60.9192C73.6301 60.899 73.6313 60.8774 73.6335 60.8543C73.6357 60.8305 73.6398 60.8092 73.6454 60.7917C73.6655 60.7273 73.7006 60.6747 73.7512 60.6341C73.8015 60.5935 73.8641 60.5641 73.9394 60.5451C74.015 60.5261 74.1 60.5171 74.195 60.5171C74.2378 60.5171 74.2766 60.5186 74.3116 60.5231C74.347 60.5265 74.3745 60.5306 74.3954 60.5343C74.4159 60.5376 74.426 60.5395 74.4267 60.5402V60.927ZM74.8406 61.5574V60.1692C74.8414 60.0768 74.8362 59.9974 74.8265 59.9311C74.816 59.8644 74.7982 59.8052 74.7724 59.753C74.7467 59.7001 74.7099 59.6494 74.6625 59.6003C74.6007 59.5358 74.5176 59.4844 74.4118 59.4464C74.3064 59.4084 74.1775 59.3883 74.0243 59.3875C73.9338 59.3883 73.8537 59.3957 73.784 59.4095C73.7151 59.4229 73.6566 59.4397 73.6097 59.4572C73.5631 59.4754 73.5277 59.4915 73.5038 59.5052C73.48 59.519 73.4677 59.5269 73.4677 59.5269L73.3943 59.8983C73.3943 59.8968 73.4059 59.8871 73.429 59.8692C73.4517 59.8506 73.4856 59.8294 73.5314 59.804C73.5772 59.7798 73.6335 59.7575 73.7009 59.7385C73.7687 59.7191 73.8466 59.7072 73.9357 59.7049C74.0474 59.7053 74.1376 59.7176 74.2058 59.7422C74.2736 59.7657 74.3228 59.7988 74.3533 59.8402C74.3812 59.8756 74.3999 59.9117 74.4099 59.9486C74.4204 59.9859 74.426 60.0213 74.4267 60.0555C74.4274 60.0898 74.4274 60.1196 74.4267 60.1457V60.2537C74.426 60.2537 74.4159 60.2519 74.3947 60.2489C74.3731 60.2455 74.3447 60.2429 74.3082 60.2396C74.2713 60.2366 74.2304 60.2347 74.183 60.2347C74.1026 60.2347 74.0217 60.2396 73.9401 60.2511C73.8582 60.2623 73.7795 60.2809 73.7039 60.3066C73.6283 60.332 73.5586 60.367 73.4953 60.4095C73.4316 60.4519 73.3772 60.5049 73.3325 60.5674C73.2967 60.6196 73.2699 60.6703 73.2524 60.7213C73.2341 60.7716 73.2229 60.8174 73.217 60.8592C73.2103 60.9013 73.208 60.9355 73.2084 60.962C73.208 61.0056 73.2129 61.0548 73.224 61.1088C73.2341 61.1624 73.2524 61.2172 73.2781 61.2712C73.3038 61.326 73.3395 61.377 73.3843 61.4236C73.4305 61.4702 73.4875 61.5082 73.5571 61.538C73.6261 61.5678 73.7099 61.5846 73.8082 61.5883C73.9126 61.5901 74.0053 61.5786 74.0873 61.5533C74.1689 61.5283 74.2404 61.4929 74.3011 61.4467C74.3619 61.3998 74.4125 61.3454 74.4539 61.2828V61.4065C74.4532 61.4266 74.4546 61.4467 74.458 61.4672C74.461 61.4884 74.4699 61.5063 74.4848 61.5227C74.4971 61.5354 74.5124 61.544 74.5314 61.5488C74.55 61.5533 74.5672 61.5559 74.5839 61.5566C74.6007 61.5574 74.613 61.5574 74.6201 61.5574H74.8406ZM72.847 60.5171V58.6994H72.3712V60.5171C72.3716 60.582 72.3697 60.6487 72.366 60.7172C72.3623 60.7847 72.353 60.8502 72.3388 60.9128C72.325 60.9762 72.3034 61.032 72.2744 61.0816C72.2338 61.1419 72.1812 61.1881 72.1183 61.2198C72.0545 61.2511 71.9804 61.2675 71.8951 61.2675C71.8321 61.2668 71.7733 61.2604 71.7189 61.2478C71.6641 61.2358 71.6157 61.2209 71.5736 61.2045C71.5322 61.1881 71.4987 61.1736 71.4752 61.1595C71.4506 61.146 71.4376 61.1382 71.435 61.136L71.5397 61.5495C71.5397 61.5503 71.5501 61.5555 71.5706 61.5656C71.5911 61.576 71.6201 61.5883 71.6585 61.6021C71.6973 61.6155 71.7446 61.6278 71.7993 61.6382C71.8534 61.6483 71.9152 61.6535 71.9841 61.6539C72.0113 61.6546 72.0478 61.6535 72.094 61.6501C72.1402 61.6472 72.192 61.6393 72.2479 61.627C72.3038 61.6147 72.3601 61.5954 72.4167 61.5689C72.4729 61.5425 72.5251 61.5063 72.572 61.4605C72.6205 61.415 72.6618 61.3647 72.6965 61.3092C72.7315 61.2537 72.7598 61.1893 72.7822 61.1166C72.8042 61.044 72.8206 60.9586 72.8314 60.8607C72.8418 60.7627 72.847 60.6479 72.847 60.5171ZM85.2085 61.5574V60.1379C85.2093 60.0734 85.2059 60.0097 85.1988 59.9479C85.1925 59.886 85.1787 59.8264 85.159 59.7694C85.1385 59.7128 85.1087 59.6584 85.0692 59.6081C85.0163 59.5347 84.9466 59.481 84.8598 59.4464C84.7726 59.4121 84.6716 59.395 84.555 59.3957C84.4641 59.3968 84.3855 59.4095 84.3177 59.4348C84.2499 59.4598 84.194 59.4907 84.1474 59.5276C84.102 59.5637 84.0662 59.5999 84.0405 59.6353C84.0148 59.6707 83.998 59.699 83.9902 59.7202V59.4419H83.5763V61.5574H83.9902V60.2537C83.9895 60.2098 83.9928 60.161 83.9991 60.1092C84.0051 60.0567 84.0185 60.0049 84.039 59.9542C84.0599 59.9032 84.0915 59.8573 84.1333 59.8171C84.1694 59.7832 84.2093 59.7582 84.2547 59.7403C84.2991 59.7217 84.3523 59.7128 84.4157 59.7128C84.5081 59.7131 84.58 59.728 84.6329 59.7564C84.6858 59.785 84.7238 59.8234 84.748 59.8719C84.7726 59.9199 84.7879 59.9743 84.7938 60.0343C84.8005 60.0943 84.8035 60.155 84.8028 60.2191V61.5574H85.2085ZM82.6888 60.927C82.6881 60.9784 82.6758 61.0242 82.6516 61.0637C82.6288 61.1036 82.5964 61.1378 82.5566 61.1665C82.5167 61.1949 82.4712 61.2183 82.4217 61.2362C82.3941 61.2478 82.3654 61.2556 82.3367 61.2608C82.3077 61.2656 82.2831 61.2675 82.263 61.2675C82.194 61.2675 82.1315 61.2556 82.0756 61.2314C82.0204 61.2068 81.9757 61.1691 81.9426 61.1181C81.9094 61.0663 81.8926 61.0004 81.8919 60.9192C81.8919 60.899 81.893 60.8774 81.8949 60.8543C81.8979 60.8305 81.9016 60.8092 81.9075 60.7917C81.9273 60.7273 81.9619 60.6747 82.0133 60.6341C82.0633 60.5935 82.1259 60.5641 82.2011 60.5451C82.2764 60.5261 82.3617 60.5171 82.4563 60.5171C82.4999 60.5171 82.5387 60.5186 82.5733 60.5231C82.6087 60.5265 82.6367 60.5306 82.6572 60.5343C82.6776 60.5376 82.6881 60.5395 82.6888 60.5402V60.927ZM83.1024 61.5574V60.1692C83.1031 60.0768 83.0979 59.9974 83.0882 59.9311C83.0781 59.8644 83.0599 59.8052 83.0338 59.753C83.0085 59.7001 82.9716 59.6494 82.9247 59.6003C82.8624 59.5358 82.7797 59.4844 82.6739 59.4464C82.5681 59.4084 82.4392 59.3883 82.2864 59.3875C82.1955 59.3883 82.1154 59.3957 82.0458 59.4095C81.9768 59.4229 81.9183 59.4397 81.8714 59.4572C81.8248 59.4754 81.7894 59.4915 81.7656 59.5052C81.7417 59.519 81.7295 59.5269 81.7295 59.5269L81.6561 59.8983C81.6561 59.8968 81.6676 59.8871 81.6911 59.8692C81.7134 59.8506 81.7477 59.8294 81.7932 59.804C81.8394 59.7798 81.8949 59.7575 81.9627 59.7385C82.0305 59.7191 82.1084 59.7072 82.1974 59.7049C82.3088 59.7053 82.3993 59.7176 82.4675 59.7422C82.5353 59.7657 82.5849 59.7988 82.6151 59.8402C82.643 59.8756 82.6616 59.9117 82.6721 59.9486C82.6821 59.9859 82.6881 60.0213 82.6888 60.0555C82.6892 60.0898 82.6892 60.1196 82.6888 60.1457V60.2537C82.6881 60.2537 82.6776 60.2519 82.6564 60.2489C82.6352 60.2455 82.6068 60.2429 82.57 60.2396C82.5331 60.2366 82.4921 60.2347 82.4452 60.2347C82.3643 60.2347 82.2831 60.2396 82.2019 60.2511C82.1203 60.2623 82.0417 60.2809 81.966 60.3066C81.89 60.332 81.8204 60.367 81.757 60.4095C81.6933 60.4519 81.6393 60.5049 81.5942 60.5674C81.5588 60.6196 81.5316 60.6703 81.5141 60.7213C81.4962 60.7716 81.4847 60.8174 81.4787 60.8592C81.4724 60.9013 81.4698 60.9355 81.4705 60.962C81.4698 61.0056 81.475 61.0548 81.4854 61.1088C81.4962 61.1624 81.5141 61.2172 81.5398 61.2712C81.5655 61.326 81.6013 61.377 81.6464 61.4236C81.6922 61.4702 81.7496 61.5082 81.8192 61.538C81.8878 61.5678 81.9716 61.5846 82.07 61.5883C82.1743 61.5901 82.2671 61.5786 82.349 61.5533C82.431 61.5283 82.5025 61.4929 82.5629 61.4467C82.6236 61.3998 82.6747 61.3454 82.7156 61.2828V61.4065C82.7149 61.4266 82.7164 61.4467 82.7194 61.4672C82.7231 61.4884 82.7317 61.5063 82.7466 61.5227C82.7589 61.5354 82.7741 61.544 82.7931 61.5488C82.8114 61.5533 82.8293 61.5559 82.8457 61.5566C82.8624 61.5574 82.8751 61.5574 82.8818 61.5574H83.1024ZM96 58.6875H95.598V61.5574H96V58.6875ZM94.6714 60.927C94.6707 60.9784 94.6584 61.0242 94.6345 61.0637C94.6114 61.1036 94.579 61.1378 94.5392 61.1665C94.4993 61.1949 94.4542 61.2183 94.4047 61.2362C94.3771 61.2478 94.3484 61.2556 94.3197 61.2608C94.2903 61.2656 94.2657 61.2675 94.2459 61.2675C94.177 61.2675 94.1144 61.2556 94.0582 61.2314C94.003 61.2068 93.9583 61.1691 93.9255 61.1181C93.8924 61.0663 93.8752 61.0004 93.8745 60.9192C93.8745 60.899 93.876 60.8774 93.8778 60.8543C93.8804 60.8305 93.8842 60.8092 93.8901 60.7917C93.9103 60.7273 93.9449 60.6747 93.9956 60.6341C94.0462 60.5935 94.1088 60.5641 94.1841 60.5451C94.2594 60.5261 94.3447 60.5171 94.4393 60.5171C94.4825 60.5171 94.5209 60.5186 94.5559 60.5231C94.5913 60.5265 94.6193 60.5306 94.6397 60.5343C94.6602 60.5376 94.6707 60.5395 94.6714 60.5402V60.927ZM95.085 61.5574V60.1692C95.0857 60.0768 95.0809 59.9974 95.0712 59.9311C95.0604 59.8644 95.0425 59.8052 95.0168 59.753C94.9911 59.7001 94.9542 59.6494 94.9072 59.6003C94.8454 59.5358 94.7623 59.4844 94.6565 59.4464C94.5507 59.4084 94.4218 59.3883 94.269 59.3875C94.1785 59.3883 94.0984 59.3957 94.0284 59.4095C93.9598 59.4229 93.9009 59.4397 93.854 59.4572C93.8078 59.4754 93.772 59.4915 93.7482 59.5052C93.7243 59.519 93.7124 59.5269 93.7124 59.5269L93.6387 59.8983C93.6387 59.8968 93.6506 59.8871 93.6733 59.8692C93.696 59.8506 93.7303 59.8294 93.7761 59.804C93.8216 59.7798 93.8778 59.7575 93.9456 59.7385C94.0131 59.7191 94.091 59.7072 94.18 59.7049C94.2918 59.7053 94.3819 59.7176 94.4501 59.7422C94.5179 59.7657 94.5675 59.7988 94.5976 59.8402C94.6256 59.8756 94.6442 59.9117 94.6547 59.9486C94.6651 59.9859 94.6707 60.0213 94.6714 60.0555C94.6722 60.0898 94.6722 60.1196 94.6714 60.1457V60.2537C94.6707 60.2537 94.6602 60.2519 94.639 60.2489C94.6178 60.2455 94.5894 60.2429 94.5529 60.2396C94.5161 60.2366 94.4747 60.2347 94.4278 60.2347C94.3469 60.2347 94.2657 60.2396 94.1845 60.2511C94.1029 60.2623 94.0243 60.2809 93.949 60.3066C93.8726 60.332 93.8033 60.367 93.7396 60.4095C93.6763 60.4519 93.6219 60.5049 93.5768 60.5674C93.5414 60.6196 93.5146 60.6703 93.4971 60.7213C93.4788 60.7716 93.4673 60.8174 93.4613 60.8592C93.455 60.9013 93.4524 60.9355 93.4527 60.962C93.4524 61.0056 93.4576 61.0548 93.4688 61.1088C93.4788 61.1624 93.4971 61.2172 93.5224 61.2712C93.5485 61.326 93.5839 61.377 93.629 61.4236C93.6748 61.4702 93.7322 61.5082 93.8018 61.538C93.8708 61.5678 93.9546 61.5846 94.0522 61.5883C94.1569 61.5901 94.25 61.5786 94.3316 61.5533C94.4136 61.5283 94.4851 61.4929 94.5455 61.4467C94.6062 61.3998 94.6573 61.3454 94.6986 61.2828V61.4065C94.6979 61.4266 94.6994 61.4467 94.7023 61.4672C94.7057 61.4884 94.7146 61.5063 94.7295 61.5227C94.7415 61.5354 94.7571 61.544 94.7757 61.5488C94.7944 61.5533 94.8119 61.5559 94.8286 61.5566C94.8454 61.5574 94.8577 61.5574 94.8648 61.5574H95.085ZM93.0411 59.4419H92.6312V61.5574H93.0411V59.4419ZM93.0757 58.9002C93.0753 58.8592 93.0649 58.8227 93.0437 58.7921C93.0224 58.7616 92.9941 58.7378 92.9572 58.721C92.9203 58.7042 92.879 58.6953 92.832 58.6953C92.7851 58.696 92.7441 58.7057 92.7084 58.7251C92.6722 58.7441 92.6443 58.7694 92.6241 58.8003C92.6033 58.8313 92.5928 58.8648 92.5925 58.9002C92.5925 58.9415 92.6014 58.9788 92.6197 59.0112C92.6372 59.044 92.664 59.0693 92.699 59.088C92.7348 59.1066 92.7791 59.1163 92.832 59.117C92.8805 59.1163 92.9222 59.1066 92.9591 59.088C92.9952 59.0693 93.0235 59.044 93.0444 59.0112C93.0649 58.9788 93.0753 58.9415 93.0757 58.9002ZM92.2344 60.9579C92.2333 60.8551 92.2106 60.7671 92.1655 60.6937C92.1212 60.6196 92.0604 60.5563 91.9837 60.503C91.907 60.4497 91.8209 60.4028 91.724 60.3622C91.6771 60.3432 91.6286 60.3223 91.5787 60.3003C91.5299 60.2787 91.4841 60.2537 91.4416 60.2258C91.3991 60.1979 91.3649 60.1658 91.3391 60.1297C91.3127 60.0928 91.2989 60.0507 91.2985 60.0026C91.2989 59.9169 91.3287 59.851 91.3861 59.8052C91.4442 59.7593 91.5262 59.7362 91.6309 59.7359C91.7158 59.7344 91.7892 59.7422 91.8522 59.7575C91.9155 59.7739 91.968 59.7925 92.0109 59.8137C92.0526 59.8357 92.085 59.8551 92.1063 59.8719C92.1275 59.8886 92.1379 59.8968 92.1379 59.8983L92.0798 59.55C92.0798 59.55 92.0705 59.5418 92.0515 59.5276C92.0321 59.5127 92.0012 59.4963 91.9587 59.4781C91.9159 59.4598 91.86 59.4438 91.7911 59.4307C91.7222 59.4177 91.6376 59.4129 91.5385 59.4147C91.4461 59.4147 91.3596 59.4266 91.2792 59.452C91.1991 59.4766 91.129 59.5131 91.0679 59.5623C91.0068 59.6107 90.9591 59.6707 90.9252 59.7429C90.8913 59.8145 90.8738 59.8968 90.8731 59.9907C90.8738 60.0876 90.8913 60.1695 90.9237 60.2381C90.9569 60.3055 91.0005 60.3629 91.0549 60.4102C91.1089 60.4568 91.1689 60.4978 91.2341 60.5321C91.2989 60.5652 91.3645 60.5961 91.4286 60.6244C91.4938 60.6539 91.5537 60.6826 91.6078 60.7135C91.6622 60.7444 91.7061 60.7798 91.7385 60.8204C91.7717 60.861 91.7892 60.9106 91.7896 60.9698C91.7896 61.0663 91.7594 61.1371 91.6987 61.1833C91.6383 61.2291 91.5459 61.2526 91.4222 61.2519C91.3481 61.2504 91.2758 61.2407 91.2058 61.2217C91.1361 61.2023 91.072 61.1803 91.0161 61.1554C90.9599 61.13 90.9152 61.108 90.8813 61.0887C90.8485 61.0693 90.831 61.06 90.8306 61.0585L90.8883 61.4605C90.9155 61.4769 90.9543 61.4963 91.0053 61.5182C91.0567 61.5399 91.1227 61.5589 91.2024 61.5749C91.2825 61.5901 91.379 61.5972 91.4919 61.5961C91.6007 61.5961 91.702 61.5801 91.7967 61.5469C91.8909 61.5149 91.9748 61.4668 92.0489 61.4024C92.1055 61.3543 92.1506 61.2928 92.1838 61.2183C92.2169 61.1434 92.2337 61.0563 92.2344 60.9579ZM90.1052 60.5171C90.1052 60.6665 90.0892 60.7966 90.0568 60.9087C90.0247 61.0216 89.9748 61.1088 89.9089 61.1718C89.8422 61.2343 89.7583 61.2664 89.6562 61.2675C89.5411 61.2679 89.4469 61.2414 89.3742 61.1881C89.3019 61.1345 89.2494 61.0529 89.2155 60.9419C89.1816 60.8309 89.1648 60.6889 89.1656 60.5171C89.1648 60.4121 89.1704 60.3107 89.1835 60.2154C89.1961 60.1196 89.2196 60.0336 89.2542 59.9583C89.2889 59.8827 89.3388 59.8234 89.404 59.7798C89.4681 59.7359 89.5527 59.7131 89.6562 59.7128C89.7382 59.7146 89.806 59.7318 89.8608 59.7642C89.9152 59.7962 89.9588 59.8394 89.9919 59.8942C90.0247 59.9486 90.0493 60.0105 90.065 60.0786C90.0817 60.1479 90.0929 60.2191 90.0981 60.2944C90.1033 60.3696 90.1059 60.4434 90.1052 60.5171ZM90.5422 60.5093C90.543 60.3927 90.5337 60.2798 90.515 60.1714C90.4964 60.0626 90.467 59.9616 90.4249 59.8685C90.3831 59.7757 90.3284 59.6938 90.2591 59.6234C90.1901 59.5533 90.1052 59.4985 90.0046 59.4583C89.904 59.4188 89.7855 59.3972 89.6488 59.3957C89.5132 59.3961 89.3954 59.4158 89.293 59.455C89.1913 59.4944 89.1041 59.5481 89.0326 59.6185C88.9603 59.6878 88.9022 59.7698 88.8575 59.8633C88.8128 59.9568 88.78 60.0581 88.7591 60.1677C88.7386 60.2772 88.7286 60.3912 88.7286 60.5093C88.7278 60.6714 88.7438 60.8182 88.7774 60.9501C88.8102 61.0823 88.8623 61.196 88.9346 61.291C89.0069 61.386 89.1022 61.4594 89.2196 61.5104C89.337 61.5622 89.48 61.5875 89.6488 61.5883C89.79 61.589 89.9163 61.5622 90.0266 61.5063C90.1376 61.4519 90.2308 61.3741 90.3075 61.2753C90.3835 61.1755 90.4424 61.0611 90.4822 60.93C90.5225 60.7996 90.5422 60.6595 90.5422 60.5093ZM88.4324 60.7336C88.4324 60.6412 88.4182 60.5585 88.391 60.4847C88.3634 60.411 88.3247 60.3443 88.2736 60.285C88.2196 60.2191 88.1578 60.1617 88.0881 60.1137C88.0184 60.0656 87.9458 60.0231 87.8698 59.9866C87.793 59.9497 87.7174 59.9147 87.6433 59.8834C87.5684 59.8514 87.4998 59.819 87.435 59.7854C87.3713 59.7523 87.3173 59.7154 87.2718 59.6736C87.245 59.6457 87.2245 59.6189 87.2088 59.5947C87.1936 59.5697 87.1828 59.5436 87.1768 59.5172C87.1701 59.4907 87.1675 59.4617 87.1675 59.43C87.1671 59.3767 87.179 59.3238 87.2036 59.2709C87.2286 59.218 87.2707 59.1714 87.3299 59.1323C87.3705 59.1055 87.4227 59.085 87.4883 59.0712C87.5531 59.0574 87.6317 59.0515 87.7245 59.0515C87.7737 59.0515 87.821 59.0544 87.8675 59.0615C87.9145 59.0679 87.9585 59.0757 87.9991 59.0857C88.0598 59.0988 88.1105 59.1129 88.1518 59.1275C88.1932 59.142 88.2245 59.1558 88.2472 59.1677C88.2703 59.1804 88.2841 59.1882 88.2893 59.1942L88.1924 58.7843C88.1921 58.7817 88.1805 58.7746 88.1578 58.7638C88.135 58.7519 88.0997 58.7392 88.0523 58.7251C88.005 58.7117 87.9432 58.6994 87.8675 58.6882C87.7915 58.6778 87.6999 58.6729 87.593 58.6718C87.5106 58.6714 87.4287 58.6785 87.3485 58.6934C87.2688 58.7083 87.1913 58.7322 87.1179 58.7657C87.0445 58.7989 86.9756 58.8436 86.9123 58.9002C86.8556 58.9494 86.8106 59.003 86.7755 59.0597C86.7409 59.1163 86.7156 59.1752 86.6995 59.2348C86.6843 59.2947 86.6764 59.3547 86.6764 59.4147C86.6757 59.4821 86.6828 59.5488 86.6966 59.6125C86.71 59.677 86.7331 59.737 86.7655 59.794C86.8035 59.8573 86.8504 59.9125 86.9078 59.9598C86.9652 60.0064 87.0293 60.0488 87.0986 60.0865C87.169 60.1237 87.2416 60.1599 87.3165 60.1945C87.3921 60.2295 87.4667 60.2664 87.5401 60.3052C87.6138 60.3443 87.6831 60.3894 87.7476 60.4397C87.7889 60.4698 87.8232 60.5015 87.8508 60.5339C87.8787 60.5656 87.8992 60.6017 87.913 60.6408C87.926 60.68 87.9335 60.725 87.9335 60.7761C87.9335 60.8547 87.9178 60.921 87.8869 60.9762C87.8564 61.0305 87.8094 61.0786 87.7476 61.1203C87.7163 61.1434 87.6786 61.1609 87.6354 61.174C87.5922 61.1867 87.549 61.196 87.5054 61.2016C87.4611 61.2075 87.4223 61.2105 87.3873 61.212C87.353 61.2135 87.3288 61.2135 87.3143 61.2135C87.2703 61.2135 87.2256 61.2105 87.1816 61.2057C87.1384 61.2001 87.0959 61.1941 87.0553 61.1859C86.9667 61.1688 86.8925 61.152 86.8326 61.1345C86.7726 61.1181 86.7267 61.1036 86.6958 61.092C86.6649 61.0801 86.6481 61.0749 86.6455 61.0738L86.7498 61.4761C86.7517 61.4769 86.7655 61.4828 86.7904 61.4955C86.8158 61.5078 86.8545 61.5223 86.9067 61.538C86.9585 61.554 87.0252 61.5685 87.1068 61.5808C87.1883 61.5928 87.2856 61.5991 87.3996 61.5998C87.4868 61.6006 87.5777 61.5935 87.6716 61.5786C87.7662 61.5641 87.8586 61.5384 87.9488 61.5022C88.0386 61.4657 88.1198 61.415 88.1924 61.3491C88.2654 61.2843 88.3232 61.2008 88.366 61.0995C88.4089 60.9993 88.4309 60.8771 88.4324 60.7336Z" fill="#2B3078"/>
<path d="M17.0012 55.9655C17.1756 54.7535 18.3879 54.4279 18.5053 53.3221C17.958 53.565 17.3034 53.4886 16.8239 53.0922C16.2926 54.0497 16.2639 54.9904 17.0012 55.9655Z" fill="#2B3078"/>
<path d="M19.3443 52.454C19.9647 52.3624 20.4952 51.9276 21.003 51.4984C21.706 50.9041 22.684 50.1709 23.6162 50.2421C21.9501 49.7279 20.148 50.0934 19.0478 50.7704C19.4706 51.2394 19.5694 51.897 19.3443 52.454Z" fill="#2B3078"/>
<path d="M27.3073 56.343C27.1329 57.5546 25.9202 57.8806 25.8032 58.9864C26.3502 58.7431 27.0051 58.8195 27.4846 59.2162C28.0159 58.258 28.0446 57.318 27.3073 56.343Z" fill="#2B3078"/>
<path d="M24.9643 59.8543C24.3439 59.946 23.8134 60.3807 23.3052 60.8099C22.6025 61.4038 21.6245 62.1374 20.6924 62.0666C22.3585 62.5808 24.1606 62.2149 25.2608 61.538C24.838 61.0689 24.7392 60.4109 24.9643 59.8543Z" fill="#2B3078"/>
<path d="M22.3433 51.0011C23.5549 51.1754 23.8809 52.3881 24.9863 52.5051C24.743 51.9582 24.8197 51.3032 25.2161 50.8241C24.2583 50.2924 23.3179 50.2641 22.3433 51.0011Z" fill="#009F3C"/>
<path d="M25.8543 53.3441C25.9463 53.9644 26.3808 54.495 26.81 55.0032C27.4042 55.7062 28.1374 56.6842 28.0666 57.616C28.5808 55.9499 28.2149 54.1481 27.538 53.0475C27.0689 53.4704 26.4117 53.5695 25.8543 53.3441Z" fill="#009F3C"/>
<path d="M21.9654 61.3073C20.7538 61.133 20.4278 59.9203 19.322 59.8029C19.5653 60.3502 19.4889 61.0052 19.0925 61.4847C20.0504 62.0163 20.9908 62.0446 21.9654 61.3073Z" fill="#009F3C"/>
<path d="M18.4543 58.9643C18.3623 58.3436 17.9279 57.813 17.4983 57.3052C16.9044 56.6025 16.1712 55.6245 16.242 54.6924C15.7278 56.3585 16.0937 58.1606 16.7707 59.2608C17.2397 58.838 17.8973 58.7389 18.4543 58.9643Z" fill="#009F3C"/>
<path d="M27.4118 50.8964C27.9263 51.4109 27.9263 52.2451 27.4118 52.7596C26.8976 53.2741 26.0635 53.2741 25.5489 52.7596C25.0344 52.2451 25.0344 51.4109 25.5489 50.8964C26.0635 50.3818 26.8976 50.3818 27.4118 50.8964Z" fill="#009F3C"/>
<path d="M18.7597 59.5491C19.2738 60.0636 19.2738 60.8974 18.7597 61.4119C18.2451 61.9261 17.411 61.9261 16.8964 61.4119C16.3823 60.8974 16.3823 60.0636 16.8964 59.5491C17.411 59.0345 18.2451 59.0345 18.7597 59.5491Z" fill="#009F3C"/>
<path d="M27.4118 61.4119C26.8976 61.9261 26.0635 61.9261 25.5489 61.4119C25.0344 60.8974 25.0344 60.0636 25.5489 59.5491C26.0635 59.0345 26.8976 59.0345 27.4118 59.5491C27.9263 60.0636 27.9263 60.8974 27.4118 61.4119Z" fill="#2B3078"/>
<path d="M18.7597 52.7597C18.2451 53.2738 17.411 53.2738 16.8964 52.7597C16.3823 52.2452 16.3823 51.4106 16.8964 50.8964C17.411 50.3819 18.2451 50.3819 18.7597 50.8964C19.2738 51.4106 19.2738 52.2452 18.7597 52.7597Z" fill="#2B3078"/>
<path d="M21.5933 57.2646V57.728H22.7152V56.715L23.6797 57.6472C23.761 57.7247 23.7543 57.7679 23.7554 57.8398V58.1584C23.7554 58.1628 23.755 58.1677 23.755 58.1725V58.1766C23.7546 58.18 23.7546 58.1837 23.7546 58.1874L23.7543 58.1911C23.7539 58.1956 23.7539 58.2005 23.7535 58.2049L23.7531 58.206C23.7531 58.2105 23.7528 58.2146 23.752 58.2187L23.7516 58.2232C23.7513 58.2265 23.7509 58.2299 23.7505 58.2336L23.7502 58.2366C23.7494 58.2414 23.749 58.2459 23.7483 58.25L23.7479 58.2534C23.7472 58.2571 23.7464 58.2604 23.7461 58.2642L23.7453 58.2679C23.7446 58.2716 23.7438 58.275 23.7434 58.2787L23.7427 58.2821C23.7416 58.2862 23.7408 58.2906 23.7397 58.2947L23.739 58.2981C23.7382 58.3014 23.7375 58.3052 23.7364 58.3085L23.7352 58.3122C23.7345 58.316 23.7334 58.3201 23.7323 58.3242L23.7319 58.3253C23.7308 58.3297 23.7297 58.3338 23.7282 58.3379L23.7271 58.342C23.7259 58.345 23.7248 58.3484 23.7241 58.3514L23.7226 58.3551C23.7211 58.3592 23.7196 58.3629 23.7185 58.3666L23.7174 58.3696C23.7162 58.3726 23.7148 58.3767 23.7133 58.38L23.7118 58.3841C23.7107 58.3875 23.7095 58.3901 23.7081 58.3931L23.7069 58.3968C23.7051 58.4005 23.7032 58.4046 23.7013 58.4084L23.7006 58.4113C23.6987 58.4143 23.6976 58.4177 23.6961 58.4206L23.6939 58.4247C23.6924 58.4274 23.6909 58.4303 23.6898 58.4333L23.6879 58.4367C23.6861 58.4404 23.6842 58.4441 23.682 58.4478L23.6801 58.4516C23.6786 58.4542 23.6771 58.4568 23.6756 58.4594L23.673 58.4639C23.6715 58.4665 23.6701 58.4687 23.6686 58.4713L23.6663 58.4754C23.6645 58.4784 23.6622 58.4821 23.66 58.4855L23.657 58.4899C23.6555 58.4922 23.6544 58.494 23.6529 58.4963L23.6496 58.5011C23.6481 58.5034 23.6466 58.5056 23.6447 58.5078L23.6414 58.513C23.6391 58.516 23.6373 58.5186 23.635 58.5212L23.6317 58.5261C23.6306 58.5276 23.6287 58.5298 23.6276 58.5317L23.6239 58.5361C23.622 58.5384 23.6198 58.541 23.6179 58.5436C23.6164 58.5451 23.6149 58.5473 23.6134 58.5492C23.6116 58.551 23.6101 58.5529 23.6082 58.5555L23.6045 58.56C23.6026 58.5615 23.6011 58.5633 23.5993 58.5648C23.5981 58.5667 23.5967 58.5682 23.5955 58.5697C23.5933 58.5719 23.5911 58.5741 23.5888 58.5768C23.587 58.5786 23.5851 58.5805 23.5832 58.5823C23.5821 58.5838 23.5806 58.5857 23.5788 58.5868L23.5743 58.5917L23.5695 58.5965C23.568 58.5976 23.5665 58.5991 23.565 58.6006H23.5646C23.562 58.6032 23.5594 58.6058 23.5568 58.6081C23.5553 58.6095 23.5534 58.6114 23.5519 58.6125C23.5501 58.614 23.5486 58.6155 23.5471 58.617L23.5423 58.6211L23.5374 58.6256C23.5344 58.6282 23.5311 58.6304 23.5281 58.633L23.5236 58.6364C23.5218 58.6379 23.5203 58.6393 23.5184 58.6408L23.5136 58.6446C23.5117 58.6457 23.5098 58.6468 23.508 58.6483C23.5065 58.6494 23.505 58.6505 23.5035 58.6516C23.4998 58.6543 23.4964 58.6569 23.4923 58.6595L23.4886 58.6621C23.4867 58.6636 23.4845 58.6651 23.4823 58.6662L23.4782 58.6692C23.4759 58.6703 23.4737 58.6718 23.4718 58.6733L23.4674 58.6759C23.464 58.6781 23.4603 58.6803 23.4566 58.6822L23.4517 58.6855C23.4495 58.687 23.4473 58.6878 23.4454 58.6893L23.4405 58.6919C23.4383 58.693 23.4361 58.6941 23.4342 58.6952L23.4316 58.6967C23.4268 58.699 23.4227 58.7016 23.4178 58.7034L23.413 58.7064L23.4066 58.7094C23.4048 58.7101 23.4029 58.7109 23.4011 58.712C23.3232 58.7478 23.2368 58.7675 23.1455 58.7675H21.5933V59.231L20.6012 58.2478L21.5933 57.2646ZM22.7152 55.5932H23.7282V56.715H23.2647L24.2479 57.7075L25.2311 56.715H24.7676V55.1629C24.7676 55.0716 24.7479 54.9852 24.7118 54.9073C24.711 54.9055 24.7099 54.9036 24.7091 54.9017L24.7062 54.8954L24.7036 54.8905C24.7013 54.8861 24.6991 54.8816 24.6969 54.8771L24.6954 54.8745C24.6942 54.8723 24.6931 54.8701 24.6916 54.8678L24.689 54.863C24.6879 54.8611 24.6868 54.8589 24.6857 54.8574L24.6827 54.8518C24.6805 54.8481 24.6782 54.8443 24.676 54.841L24.6734 54.8369C24.6719 54.8343 24.6704 54.8324 24.6689 54.8302L24.6663 54.8261C24.6648 54.8239 24.6637 54.8216 24.6622 54.8198L24.6596 54.816C24.657 54.8119 24.6544 54.8086 24.6518 54.8049C24.6507 54.8037 24.6495 54.8019 24.6484 54.8008C24.6473 54.7989 24.6458 54.797 24.6443 54.7952L24.6406 54.79C24.6391 54.7881 24.638 54.7866 24.6365 54.7847L24.6328 54.7806C24.6305 54.7773 24.6279 54.7739 24.6253 54.7713L24.6171 54.7616C24.6156 54.7598 24.6141 54.7583 24.6127 54.7568C24.6112 54.7549 24.6097 54.7531 24.6082 54.752V54.7516C24.6056 54.749 24.6033 54.746 24.6007 54.7434C24.5992 54.7423 24.5977 54.7404 24.5963 54.7389L24.5869 54.7296C24.5855 54.7277 24.584 54.7266 24.5821 54.7251C24.5802 54.7233 24.5787 54.7214 24.5769 54.7199C24.5747 54.7177 24.572 54.7151 24.5698 54.7128C24.5679 54.7117 24.5665 54.7102 24.5653 54.7091C24.5631 54.7072 24.5616 54.7058 24.5597 54.7043L24.5553 54.7005C24.553 54.6987 24.5512 54.6968 24.5489 54.6953C24.5471 54.6935 24.5456 54.692 24.5437 54.6905C24.5411 54.6882 24.5385 54.6868 24.5363 54.6845L24.5318 54.6812C24.5299 54.6793 24.5277 54.6778 24.5258 54.6767L24.5214 54.673C24.5188 54.6711 24.5158 54.6689 24.5132 54.6674L24.508 54.6637C24.5057 54.6622 24.5035 54.6603 24.5013 54.6588L24.496 54.6558C24.4942 54.6543 24.4923 54.6528 24.4901 54.6517L24.4852 54.6484C24.4819 54.6465 24.4785 54.6439 24.4752 54.642L24.4714 54.6398C24.4688 54.6383 24.4666 54.6372 24.464 54.6353L24.4595 54.6327C24.4569 54.6316 24.4543 54.6297 24.4517 54.6286L24.4476 54.6264C24.4443 54.6245 24.4405 54.6223 24.4368 54.6208L24.4334 54.6189C24.4305 54.6171 24.4275 54.6156 24.4245 54.6145L24.4208 54.6126C24.4174 54.6111 24.4144 54.6096 24.4115 54.6081L24.4089 54.607C24.4048 54.6052 24.4007 54.6037 24.3969 54.6018L24.3932 54.5999C24.3902 54.5988 24.3872 54.5981 24.3843 54.5966L24.3802 54.5947C24.3768 54.5936 24.3731 54.5921 24.3697 54.5906L24.3668 54.5899C24.363 54.5884 24.3593 54.5873 24.3552 54.5858L24.3511 54.5843C24.3481 54.5835 24.3451 54.5824 24.3422 54.5817L24.3384 54.5806C24.334 54.5791 24.3295 54.5776 24.3254 54.5765H24.3243C24.3202 54.575 24.3161 54.5739 24.3124 54.5731L24.3086 54.572C24.3049 54.5709 24.3016 54.5705 24.2978 54.5694L24.2952 54.5686C24.2908 54.5679 24.2863 54.5668 24.2818 54.566L24.2788 54.5653C24.2751 54.5645 24.2718 54.5638 24.2684 54.5631L24.2639 54.5623C24.2606 54.5619 24.2572 54.5612 24.2535 54.5605L24.2505 54.5601C24.2457 54.5593 24.2412 54.5586 24.2367 54.5582L24.2337 54.5578C24.2304 54.5575 24.2263 54.5571 24.2229 54.5571L24.2188 54.5564C24.2147 54.556 24.2106 54.5556 24.2062 54.5552H24.2051C24.2002 54.5549 24.1954 54.5545 24.1909 54.5541L24.1872 54.5537C24.1838 54.5537 24.1801 54.5534 24.1767 54.5534H24.1723C24.1678 54.5534 24.163 54.5534 24.1585 54.5534H23.8399C23.7677 54.5541 23.7248 54.5474 23.6473 54.6286L22.7152 55.5932ZM21.5933 56.715H20.5807V55.5932H21.0438L20.0606 54.6011L19.0774 55.5932H19.5409V57.1453C19.5409 57.237 19.561 57.3234 19.5967 57.4013C19.5975 57.4028 19.5986 57.4046 19.5993 57.4065L19.6023 57.4132L19.6049 57.4181C19.6072 57.4222 19.6094 57.427 19.6116 57.4315L19.6131 57.4337C19.6143 57.4363 19.6157 57.4386 19.6169 57.4404L19.6195 57.4453C19.6206 57.4475 19.6217 57.4494 19.6232 57.4516L19.6262 57.4568C19.628 57.4605 19.6303 57.4643 19.6329 57.4676L19.6355 57.4717C19.6366 57.4736 19.6381 57.4758 19.6396 57.478L19.6422 57.4825C19.6437 57.4844 19.6452 57.4866 19.6467 57.4885L19.6493 57.4926C19.6515 57.4963 19.6541 57.4997 19.6567 57.5034C19.6578 57.5049 19.659 57.5064 19.6601 57.5079C19.6616 57.5097 19.6627 57.5116 19.6642 57.5134L19.6679 57.5183C19.6694 57.5198 19.6705 57.5216 19.672 57.5235L19.6757 57.528C19.678 57.531 19.6806 57.5343 19.6835 57.5377L19.6873 57.5421L19.6917 57.547C19.6932 57.5488 19.6944 57.55 19.6958 57.5522C19.6973 57.5533 19.6988 57.5552 19.7003 57.5567C19.7026 57.5596 19.7052 57.5622 19.7078 57.5649C19.7093 57.5663 19.7107 57.5678 19.7122 57.5693L19.7216 57.5786C19.723 57.5805 19.7249 57.582 19.7264 57.5835C19.7283 57.5853 19.7297 57.5872 19.732 57.5887C19.7342 57.5909 19.7365 57.5932 19.7391 57.5954C19.7406 57.5965 19.742 57.598 19.7435 57.5995C19.7454 57.601 19.7469 57.6029 19.7487 57.6043L19.7532 57.6081C19.7551 57.6096 19.7573 57.6114 19.7596 57.6129C19.7614 57.6148 19.7633 57.6163 19.7651 57.6178C19.7674 57.6196 19.77 57.6219 19.7726 57.6237L19.7771 57.6274C19.7789 57.6286 19.7808 57.6304 19.7827 57.6319L19.7871 57.6353C19.7901 57.6371 19.7927 57.6394 19.7953 57.6412L19.8005 57.6446C19.8028 57.6464 19.8054 57.6479 19.8072 57.6494L19.8125 57.6528C19.8143 57.6543 19.8166 57.6554 19.8184 57.6569L19.8233 57.6599C19.8266 57.6621 19.83 57.6643 19.8333 57.6662L19.837 57.6684C19.8397 57.6699 19.8423 57.6714 19.8445 57.6729L19.849 57.6755C19.8516 57.677 19.8546 57.6785 19.8568 57.68L19.8609 57.6818C19.8642 57.6837 19.868 57.6859 19.8717 57.6874L19.8754 57.6897C19.878 57.6912 19.881 57.6926 19.884 57.6941L19.8877 57.696C19.8911 57.6975 19.8941 57.6986 19.8974 57.7001L19.9 57.7012C19.9041 57.7035 19.9078 57.7049 19.9119 57.7068L19.9157 57.7083C19.9183 57.7094 19.9212 57.7105 19.9242 57.7116L19.9283 57.7135C19.9321 57.715 19.9354 57.7161 19.9391 57.7176L19.9417 57.7184C19.9458 57.7198 19.9492 57.7213 19.9533 57.7225L19.9574 57.7239C19.9604 57.7247 19.9634 57.7258 19.9663 57.7269L19.9704 57.728C19.9745 57.7295 19.979 57.7306 19.9831 57.7321H19.9846C19.9883 57.7333 19.9924 57.7344 19.9961 57.7355L19.9999 57.7366C20.0036 57.7374 20.0069 57.7381 20.0107 57.7388L20.0136 57.7396C20.0181 57.7407 20.0222 57.7418 20.0267 57.7426L20.03 57.7429C20.0334 57.7441 20.0367 57.7444 20.0405 57.7452L20.0446 57.7459C20.0483 57.7467 20.0513 57.747 20.055 57.7478L20.0584 57.7482C20.0625 57.7489 20.0673 57.7493 20.0718 57.75L20.0747 57.7504C20.0785 57.7508 20.0822 57.7511 20.0856 57.7519L20.0897 57.7523C20.0937 57.7523 20.0978 57.753 20.1023 57.7534H20.1034C20.1083 57.7537 20.1131 57.7541 20.1176 57.7541H20.1213C20.125 57.7549 20.1284 57.7549 20.1321 57.7549H20.4689C20.5408 57.7541 20.5837 57.7612 20.6615 57.68L21.5933 56.715ZM21.5933 55.5928L20.6288 54.6614C20.5475 54.5835 20.5542 54.5407 20.5535 54.4684V54.1499C20.5535 54.1454 20.5535 54.1409 20.5535 54.1361V54.132C20.5539 54.1283 20.5539 54.1249 20.5542 54.1216V54.1178C20.5546 54.113 20.555 54.1078 20.555 54.1037L20.5554 54.1022C20.5557 54.0977 20.5561 54.094 20.5565 54.0895L20.5569 54.0858C20.5572 54.0821 20.5576 54.0783 20.558 54.075L20.5587 54.0716C20.5591 54.0672 20.5595 54.0627 20.5602 54.0582L20.5606 54.0549C20.5613 54.0515 20.5621 54.0478 20.5628 54.0444L20.5632 54.04C20.5639 54.0366 20.5647 54.0333 20.5654 54.0295L20.5662 54.0266C20.5669 54.0225 20.5677 54.0176 20.5688 54.0135L20.5695 54.0105C20.5703 54.0068 20.5714 54.0031 20.5721 53.9997L20.5729 53.996C20.574 53.9923 20.5751 53.9882 20.5762 53.9845L20.5766 53.9833C20.5777 53.9789 20.5792 53.9744 20.5807 53.9703L20.5814 53.9662C20.5826 53.9632 20.5837 53.9602 20.5844 53.9573L20.5859 53.9532C20.5874 53.9491 20.5885 53.9453 20.59 53.942L20.5911 53.939C20.5922 53.9353 20.5937 53.9319 20.5952 53.9286L20.5967 53.9241C20.5978 53.9211 20.599 53.9181 20.6004 53.9152L20.6019 53.9118C20.6038 53.9081 20.6053 53.904 20.6072 53.8995L20.6083 53.8973C20.6098 53.8939 20.6112 53.8909 20.6127 53.8876L20.6146 53.8839C20.6161 53.8809 20.6176 53.8783 20.6187 53.8753L20.6206 53.8716C20.6224 53.8678 20.6247 53.8641 20.6265 53.8604L20.6288 53.857C20.6299 53.8541 20.6314 53.8514 20.6329 53.8488L20.6355 53.8444C20.637 53.8421 20.6384 53.8392 20.6399 53.8373L20.6422 53.8332C20.6444 53.8298 20.6463 53.8265 20.6485 53.8231L20.6515 53.8187C20.653 53.8164 20.6545 53.8142 20.656 53.812L20.6589 53.8071C20.6604 53.8053 20.6623 53.803 20.6638 53.8004L20.6675 53.7952C20.6694 53.7922 20.6712 53.7896 20.6735 53.7874L20.6768 53.7825C20.6783 53.7807 20.6798 53.7788 20.6813 53.7769L20.6846 53.7725C20.6865 53.7699 20.6887 53.7676 20.6906 53.765C20.6921 53.7632 20.6936 53.7613 20.6951 53.7594C20.6969 53.7572 20.6988 53.7553 20.7007 53.7531L20.704 53.7486C20.7059 53.7471 20.7074 53.7449 20.7092 53.7434C20.7104 53.7419 20.7118 53.7401 20.713 53.7389C20.7156 53.7363 20.7174 53.7341 20.7197 53.7319C20.7215 53.7296 20.7234 53.7281 20.7249 53.7263C20.7267 53.7244 20.7282 53.7229 20.7297 53.7214L20.7346 53.7166L20.739 53.7125C20.7409 53.7106 20.742 53.7091 20.7439 53.7076C20.7465 53.7054 20.7491 53.7028 20.7517 53.7006V53.7002C20.7536 53.6987 20.7551 53.6972 20.7566 53.6957C20.7584 53.6942 20.7599 53.6927 20.7614 53.6916L20.7711 53.6834C20.7744 53.6808 20.7774 53.6782 20.7808 53.6752L20.7849 53.6719C20.7867 53.6704 20.7886 53.6693 20.7901 53.6681L20.7953 53.664C20.7972 53.6629 20.7987 53.6611 20.8005 53.6599C20.802 53.6588 20.8035 53.6577 20.805 53.657C20.8087 53.654 20.8124 53.6518 20.8162 53.6491L20.8199 53.6465C20.8218 53.645 20.824 53.6436 20.8262 53.6421L20.8303 53.6395C20.8326 53.638 20.8348 53.6365 20.8367 53.635L20.8411 53.6328C20.8449 53.6305 20.8482 53.6279 20.8519 53.6257L20.8568 53.6231C20.859 53.6219 20.8612 53.6205 20.8631 53.6193L20.8679 53.6164C20.8702 53.6152 20.8724 53.6141 20.8747 53.613L20.8773 53.6115C20.8817 53.6093 20.8858 53.607 20.8907 53.6044L20.8955 53.6026L20.9019 53.5992C20.9037 53.5981 20.9056 53.5974 20.9074 53.5966C20.9853 53.5605 21.0717 53.5404 21.163 53.5404H22.7152V53.0772L23.7077 54.0605L22.7152 55.0437V54.5806H21.5933V55.5928Z" fill="#009F3C"/>
<path d="M21.5972 57.7172V56.7113H20.5913V55.5969H21.5972V54.5913H22.7116V55.5969H23.7171V56.7113H22.7116V57.7172H21.5972Z" fill="white"/>
</g>
<rect x="1" y="1" width="110" height="110" rx="9" stroke="black" stroke-opacity="0.1" stroke-width="2"/>
<defs>
<clipPath id="clip0_505_125">
<rect x="2" y="2" width="108" height="108" rx="8" fill="white"/>
</clipPath>
</defs>
</svg>
