<svg width="112" height="112" viewBox="0 0 112 112" fill="none" xmlns="http://www.w3.org/2000/svg">
<g clip-path="url(#clip0_505_123)">
<rect x="1.99988" y="2" width="108" height="108" rx="8" fill="white"/>
<path d="M22.5076 54.7726C23.6409 46.8953 31.5205 44.7789 32.2833 37.5918C28.7261 39.1707 24.4714 38.6743 21.3549 36.0978C17.9018 42.3211 17.7154 48.4354 22.5076 54.7726Z" fill="#2B3078"/>
<path d="M37.7365 31.9499C41.7683 31.3542 45.2166 28.5283 48.5171 25.7387C53.0865 21.8764 59.4431 17.1108 65.5017 17.5733C54.6726 14.2316 42.9597 16.6071 35.809 21.007C38.5574 24.0557 39.1991 28.3297 37.7365 31.9499Z" fill="#2B3078"/>
<path d="M89.4919 57.2263C88.3587 65.1012 80.4766 67.22 79.7163 74.4071C83.271 72.8258 87.5281 73.3222 90.6446 75.9012C94.0977 69.673 94.2841 63.5635 89.4919 57.2263Z" fill="#2B3078"/>
<path d="M74.2633 80.0483C70.2314 80.644 66.7832 83.4699 63.4802 86.2595C58.9132 90.1194 52.5567 94.8874 46.4981 94.4273C57.3271 97.769 69.0401 95.391 76.1908 90.9911C73.4424 87.9424 72.8007 83.666 74.2633 80.0483Z" fill="#2B3078"/>
<path d="M57.2281 22.5065C65.1029 23.6397 67.2217 31.5218 74.4064 32.2822C72.8252 28.7274 73.324 24.4703 75.9005 21.3562C69.6748 17.9007 63.5628 17.7167 57.2281 22.5065Z" fill="#009F3C"/>
<path d="M80.0483 37.7351C80.6464 41.7669 83.4699 45.2152 86.2595 48.5181C90.1218 53.0876 94.8874 59.4441 94.4273 65.5003C97.769 54.6712 95.391 42.9607 90.9911 35.8075C87.9424 38.556 83.6709 39.2001 80.0483 37.7351Z" fill="#009F3C"/>
<path d="M54.7722 89.4922C46.8974 88.3589 44.7786 80.4769 37.5915 79.7141C39.1728 83.2713 38.6763 87.5284 36.0998 90.6449C42.3256 94.1004 48.4375 94.2844 54.7722 89.4922Z" fill="#009F3C"/>
<path d="M31.9517 74.2634C31.3536 70.2291 28.5301 66.7808 25.7381 63.4803C21.8782 58.9133 17.1126 52.5568 17.5727 46.4981C14.231 57.3272 16.609 69.0401 21.0089 76.1909C24.0576 73.4425 28.3316 72.7983 31.9517 74.2634Z" fill="#009F3C"/>
<path d="M90.171 21.8259C93.5152 25.17 93.5152 30.5918 90.171 33.936C86.8293 37.2801 81.4075 37.2801 78.0634 33.936C74.7193 30.5918 74.7193 25.17 78.0634 21.8259C81.4075 18.4818 86.8293 18.4818 90.171 21.8259Z" fill="#009F3C"/>
<path d="M33.9365 78.0644C37.2782 81.4085 37.2782 86.8279 33.9365 90.172C30.5923 93.5137 25.1705 93.5137 21.8264 90.172C18.4847 86.8279 18.4847 81.4085 21.8264 78.0644C25.1705 74.7202 30.5923 74.7202 33.9365 78.0644Z" fill="#009F3C"/>
<path d="M90.171 90.172C86.8293 93.5137 81.4075 93.5137 78.0634 90.172C74.7193 86.8279 74.7193 81.4085 78.0634 78.0644C81.4075 74.7202 86.8293 74.7202 90.171 78.0644C93.5152 81.4085 93.5152 86.8279 90.171 90.172Z" fill="#2B3078"/>
<path d="M33.9365 33.9365C30.5923 37.2782 25.1705 37.2782 21.8264 33.9365C18.4847 30.5924 18.4847 25.1682 21.8264 21.8265C25.1705 18.4824 30.5923 18.4824 33.9365 21.8265C37.2782 25.1682 37.2782 30.5924 33.9365 33.9365Z" fill="#2B3078"/>
<path d="M52.354 63.2162V66.2285H59.6452V59.6444L65.9146 65.7031C66.4424 66.2068 66.3989 66.4877 66.4061 66.955V69.0254C66.4061 69.0545 66.4037 69.086 66.4037 69.1174V69.1441C66.4013 69.1659 66.4013 69.1901 66.4013 69.2143L66.3989 69.2385C66.3964 69.2676 66.3964 69.299 66.394 69.3281L66.3916 69.3354C66.3916 69.3644 66.3892 69.3911 66.3843 69.4177L66.3819 69.4468C66.3795 69.4686 66.3771 69.4903 66.3746 69.5146L66.3722 69.5339C66.3674 69.5654 66.365 69.5945 66.3601 69.6211L66.3577 69.6429C66.3529 69.6671 66.348 69.6889 66.3456 69.7131L66.3407 69.7373C66.3359 69.7616 66.3311 69.7834 66.3286 69.8076L66.3238 69.8294C66.3165 69.856 66.3117 69.8851 66.3044 69.9117L66.2996 69.9335C66.2947 69.9553 66.2899 69.9795 66.2826 70.0013L66.2754 70.0255C66.2705 70.0497 66.2633 70.0764 66.256 70.103L66.2536 70.1103C66.2463 70.1393 66.239 70.166 66.2294 70.1926L66.2221 70.2192C66.2148 70.2386 66.2076 70.2604 66.2027 70.2798L66.193 70.304C66.1833 70.3306 66.1737 70.3548 66.1664 70.379L66.1591 70.3984C66.1519 70.4178 66.1422 70.4444 66.1325 70.4662L66.1228 70.4929C66.1155 70.5147 66.1083 70.5316 66.0986 70.551L66.0913 70.5752C66.0792 70.5994 66.0671 70.626 66.055 70.6503L66.0502 70.6696C66.0381 70.689 66.0308 70.7108 66.0211 70.7302L66.0066 70.7568C65.9969 70.7738 65.9872 70.7931 65.9799 70.8125L65.9678 70.8343C65.9557 70.8585 65.9436 70.8827 65.9291 70.9069L65.917 70.9312C65.9073 70.9481 65.8976 70.9651 65.8879 70.982L65.871 71.0111C65.8613 71.028 65.8516 71.0425 65.8419 71.0595L65.8274 71.0861C65.8153 71.1055 65.8007 71.1297 65.7862 71.1515L65.7668 71.1806C65.7572 71.1951 65.7499 71.2072 65.7402 71.2217L65.7184 71.2532C65.7087 71.2677 65.699 71.2823 65.6869 71.2968L65.6651 71.3307C65.6506 71.3501 65.6385 71.367 65.624 71.384L65.6022 71.4155C65.5949 71.4251 65.5828 71.4397 65.5755 71.4518L65.5513 71.4808C65.5392 71.4954 65.5247 71.5123 65.5126 71.5293C65.5029 71.539 65.4932 71.5535 65.4835 71.5656C65.4714 71.5777 65.4617 71.5898 65.4496 71.6068L65.4254 71.6358C65.4133 71.6455 65.4036 71.6576 65.3915 71.6673C65.3842 71.6794 65.3746 71.6891 65.3673 71.6988C65.3528 71.7133 65.3382 71.7278 65.3237 71.7448C65.3116 71.7569 65.2995 71.769 65.2874 71.7811C65.2801 71.7908 65.2704 71.8029 65.2583 71.8102L65.2293 71.8416L65.1978 71.8731C65.1881 71.8804 65.1784 71.8901 65.1687 71.8998H65.1663C65.1494 71.9167 65.1324 71.9337 65.1155 71.9482C65.1058 71.9579 65.0937 71.97 65.084 71.9773C65.0719 71.9869 65.0622 71.9966 65.0525 72.0063L65.021 72.0329L64.9895 72.062C64.9702 72.079 64.9484 72.0935 64.929 72.1104L64.8999 72.1322C64.8878 72.1419 64.8781 72.1516 64.866 72.1613L64.8346 72.1855C64.8224 72.1928 64.8103 72.2 64.7982 72.2097C64.7885 72.217 64.7789 72.2243 64.7692 72.2315C64.745 72.2485 64.7232 72.2654 64.6965 72.2824L64.6723 72.2993C64.6602 72.309 64.6457 72.3187 64.6311 72.326L64.6045 72.3453C64.59 72.3526 64.5755 72.3623 64.5633 72.372L64.5343 72.3889C64.5125 72.4034 64.4883 72.418 64.4641 72.4301L64.4326 72.4519C64.4181 72.4616 64.4035 72.4664 64.3914 72.4761L64.3599 72.493C64.3454 72.5003 64.3309 72.5076 64.3188 72.5148L64.3018 72.5245C64.2703 72.539 64.2437 72.556 64.2122 72.5681L64.1807 72.5875L64.1396 72.6068C64.1275 72.6117 64.1154 72.6165 64.1033 72.6238C63.5972 72.8563 63.0354 72.9846 62.4421 72.9846H52.354V75.997L45.9055 69.6066L52.354 63.2162ZM59.6452 52.3532H66.2294V59.6444H63.217L69.6074 66.0954L75.9978 59.6444H72.9854V49.5563C72.9854 48.9631 72.8571 48.4013 72.6222 47.8952C72.6173 47.8831 72.6101 47.871 72.6052 47.8589L72.5859 47.8177L72.5689 47.7862C72.5544 47.7572 72.5398 47.7281 72.5253 47.699L72.5156 47.6821C72.5084 47.6676 72.5011 47.653 72.4914 47.6385L72.4745 47.607C72.4672 47.5949 72.4599 47.5804 72.4527 47.5707L72.4333 47.5344C72.4188 47.5102 72.4042 47.4859 72.3897 47.4641L72.3728 47.4375C72.3631 47.4206 72.3534 47.4084 72.3437 47.3939L72.3268 47.3673C72.3171 47.3528 72.3098 47.3382 72.3001 47.3261L72.2832 47.3019C72.2662 47.2753 72.2493 47.2535 72.2323 47.2293C72.225 47.222 72.2178 47.2099 72.2105 47.2026C72.2033 47.1905 72.1936 47.1784 72.1839 47.1663L72.1597 47.1324C72.15 47.1203 72.1427 47.1106 72.133 47.0985L72.1088 47.0719C72.0943 47.0501 72.0773 47.0283 72.0604 47.0113L72.0071 46.9484C71.9974 46.9363 71.9877 46.9266 71.9781 46.9169C71.9684 46.9048 71.9587 46.8927 71.949 46.8854V46.883C71.932 46.866 71.9175 46.8467 71.9006 46.8297C71.8909 46.8224 71.8812 46.8103 71.8715 46.8006L71.811 46.7401C71.8013 46.728 71.7916 46.7207 71.7795 46.7111C71.7674 46.6989 71.7577 46.6868 71.7456 46.6771C71.7311 46.6626 71.7141 46.6457 71.6996 46.6311C71.6875 46.6239 71.6778 46.6142 71.6705 46.6069C71.656 46.5948 71.6463 46.5851 71.6342 46.5754L71.6051 46.5512C71.5906 46.5391 71.5785 46.527 71.564 46.5173C71.5519 46.5052 71.5422 46.4955 71.5301 46.4858C71.5131 46.4713 71.4962 46.4616 71.4816 46.4471L71.4526 46.4253C71.4405 46.4132 71.4259 46.4035 71.4138 46.3963L71.3848 46.372C71.3678 46.3599 71.3485 46.3454 71.3315 46.3357L71.2976 46.3115C71.2831 46.3018 71.2685 46.2897 71.254 46.28L71.2201 46.2606C71.208 46.251 71.1959 46.2413 71.1814 46.234L71.1499 46.2122C71.1281 46.2001 71.1063 46.1832 71.0845 46.1711L71.0603 46.1565C71.0433 46.1468 71.0288 46.1396 71.0119 46.1275L70.9828 46.1105C70.9659 46.1032 70.9489 46.0911 70.932 46.0839L70.9053 46.0693C70.8835 46.0572 70.8593 46.0427 70.8351 46.033L70.8133 46.0209C70.7939 46.0088 70.7746 45.9991 70.7552 45.9919L70.731 45.9797C70.7092 45.9701 70.6898 45.9604 70.6704 45.9507L70.6535 45.9434C70.6268 45.9313 70.6002 45.9216 70.576 45.9095L70.5518 45.8974C70.5324 45.8902 70.513 45.8853 70.4937 45.8756L70.467 45.8635C70.4452 45.8563 70.421 45.8466 70.3992 45.8369L70.3798 45.832C70.3556 45.8224 70.3314 45.8151 70.3048 45.8054L70.2781 45.7957C70.2588 45.7909 70.2394 45.7836 70.22 45.7788L70.1958 45.7715C70.1668 45.7618 70.1377 45.7521 70.1111 45.7449H70.1038C70.0772 45.7352 70.0505 45.7279 70.0263 45.7231L70.0021 45.7158C69.9779 45.7085 69.9561 45.7061 69.9319 45.6989L69.9149 45.694C69.8859 45.6892 69.8568 45.6819 69.8277 45.6771L69.8084 45.6722C69.7842 45.6674 69.7624 45.6625 69.7406 45.6577L69.7115 45.6528C69.6897 45.6504 69.6679 45.6456 69.6437 45.6407L69.6243 45.6383C69.5929 45.6335 69.5638 45.6286 69.5347 45.6262L69.5154 45.6238C69.4936 45.6214 69.4669 45.6189 69.4451 45.6189L69.4185 45.6141C69.3919 45.6117 69.3652 45.6093 69.3362 45.6068H69.3289C69.2974 45.6044 69.2659 45.602 69.2369 45.5996L69.2127 45.5971C69.1909 45.5971 69.1667 45.5947 69.1449 45.5947H69.1158C69.0868 45.5947 69.0553 45.5947 69.0262 45.5947H66.9558C66.486 45.5996 66.2076 45.556 65.7039 46.0839L59.6452 52.3532ZM52.354 59.6444H45.7723V52.3532H48.7823L42.3919 45.9047L36.0015 52.3532H39.0138V62.4413C39.0138 63.037 39.1446 63.5988 39.3771 64.1049C39.3819 64.1146 39.3892 64.1267 39.394 64.1388L39.4134 64.1824L39.4303 64.2138C39.4449 64.2405 39.4594 64.272 39.4739 64.301L39.4836 64.3155C39.4909 64.3325 39.5006 64.347 39.5078 64.3591L39.5248 64.3906C39.532 64.4051 39.5393 64.4172 39.549 64.4318L39.5684 64.4657C39.5805 64.4899 39.595 64.5141 39.612 64.5359L39.6289 64.5625C39.6362 64.5746 39.6459 64.5892 39.6555 64.6037L39.6725 64.6328C39.6822 64.6449 39.6919 64.6594 39.7016 64.6715L39.7185 64.6981C39.733 64.7224 39.75 64.7442 39.7669 64.7684C39.7742 64.7781 39.7815 64.7877 39.7887 64.7974C39.7984 64.8095 39.8057 64.8216 39.8154 64.8338L39.8396 64.8652C39.8493 64.8749 39.8565 64.887 39.8662 64.8991L39.8904 64.9282C39.905 64.9476 39.9219 64.9694 39.9413 64.9911L39.9655 65.0202L39.9946 65.0517C40.0042 65.0638 40.0115 65.0711 40.0212 65.0856C40.0309 65.0929 40.0406 65.105 40.0503 65.1146C40.0648 65.134 40.0817 65.151 40.0987 65.1679C40.1084 65.1776 40.1181 65.1873 40.1277 65.197L40.1883 65.2575C40.198 65.2696 40.2101 65.2793 40.2198 65.289C40.2319 65.3011 40.2416 65.3132 40.2561 65.3229C40.2706 65.3374 40.2851 65.352 40.3021 65.3665C40.3118 65.3737 40.3215 65.3834 40.3311 65.3931C40.3433 65.4028 40.3529 65.4149 40.365 65.4246L40.3941 65.4488C40.4062 65.4585 40.4207 65.4706 40.4353 65.4803C40.4474 65.4924 40.4595 65.5021 40.4716 65.5118C40.4861 65.5239 40.5031 65.5384 40.52 65.5505L40.5491 65.5747C40.5612 65.582 40.5733 65.5941 40.5854 65.6038L40.6145 65.6256C40.6338 65.6377 40.6508 65.6522 40.6677 65.6643L40.7016 65.6861C40.7162 65.6982 40.7331 65.7079 40.7452 65.7176L40.7791 65.7394C40.7912 65.7491 40.8058 65.7564 40.8179 65.766L40.8494 65.7854C40.8711 65.7999 40.8929 65.8145 40.9147 65.8266L40.939 65.8411C40.9559 65.8508 40.9729 65.8605 40.9874 65.8702L41.0164 65.8871C41.0334 65.8968 41.0528 65.9065 41.0673 65.9162L41.0939 65.9283C41.1157 65.9404 41.1399 65.9549 41.1642 65.9646L41.1884 65.9791C41.2053 65.9888 41.2247 65.9985 41.2441 66.0082L41.2683 66.0203C41.2901 66.03 41.3094 66.0373 41.3312 66.0469L41.3482 66.0542C41.3748 66.0687 41.399 66.0784 41.4257 66.0905L41.4499 66.1002C41.4668 66.1075 41.4862 66.1147 41.5056 66.122L41.5322 66.1341C41.5564 66.1438 41.5782 66.1511 41.6024 66.1607L41.6194 66.1656C41.646 66.1753 41.6678 66.185 41.6945 66.1922L41.7211 66.2019C41.7405 66.2068 41.7598 66.214 41.7792 66.2213L41.8059 66.2285C41.8325 66.2382 41.8616 66.2455 41.8882 66.2552H41.8979C41.9221 66.2625 41.9487 66.2697 41.9729 66.277L41.9972 66.2842C42.0214 66.2891 42.0432 66.2939 42.0674 66.2988L42.0868 66.3036C42.1158 66.3109 42.1424 66.3181 42.1715 66.323L42.1933 66.3254C42.2151 66.3327 42.2369 66.3351 42.2611 66.3399L42.2877 66.3448C42.312 66.3496 42.3313 66.3521 42.3555 66.3569L42.3773 66.3593C42.404 66.3642 42.4355 66.3666 42.4645 66.3714L42.4839 66.3738C42.5081 66.3763 42.5323 66.3787 42.5541 66.3835L42.5807 66.3859C42.6074 66.3859 42.634 66.3908 42.6631 66.3932H42.6703C42.7018 66.3956 42.7333 66.3981 42.7624 66.3981H42.7866C42.8108 66.4029 42.8326 66.4029 42.8568 66.4029H45.0459C45.5132 66.3981 45.7917 66.4441 46.2978 65.9162L52.354 59.6444ZM52.354 52.3508L46.0847 46.297C45.5568 45.7909 45.6004 45.5124 45.5955 45.0426V42.9722C45.5955 42.9432 45.5955 42.9141 45.5955 42.8826V42.856C45.598 42.8318 45.598 42.81 45.6004 42.7882V42.764C45.6028 42.7325 45.6052 42.6986 45.6052 42.6719L45.6077 42.6623C45.6101 42.6332 45.6125 42.609 45.6149 42.5799L45.6173 42.5557C45.6198 42.5315 45.6222 42.5073 45.6246 42.4855L45.6294 42.4637C45.6319 42.4346 45.6343 42.4056 45.6391 42.3765L45.6416 42.3547C45.6464 42.3329 45.6512 42.3087 45.6561 42.2869L45.6585 42.2579C45.6633 42.2361 45.6682 42.2143 45.673 42.1901L45.6779 42.1707C45.6827 42.1441 45.6876 42.1126 45.6948 42.0859L45.6997 42.0666C45.7045 42.0423 45.7118 42.0181 45.7166 41.9963L45.7215 41.9721C45.7287 41.9479 45.736 41.9213 45.7433 41.8971L45.7457 41.8898C45.7529 41.8607 45.7626 41.8317 45.7723 41.805L45.7772 41.7784C45.7844 41.759 45.7917 41.7397 45.7965 41.7203L45.8062 41.6937C45.8159 41.667 45.8232 41.6428 45.8329 41.621L45.8401 41.6016C45.8474 41.5774 45.8571 41.5556 45.8668 41.5338L45.8764 41.5048C45.8837 41.4854 45.891 41.466 45.9007 41.4467L45.9103 41.4249C45.9224 41.4006 45.9321 41.374 45.9442 41.3449L45.9515 41.3304C45.9612 41.3086 45.9709 41.2893 45.9806 41.2675L45.9927 41.2432C46.0024 41.2239 46.012 41.2069 46.0193 41.1875L46.0314 41.1633C46.0435 41.1391 46.0581 41.1149 46.0702 41.0907L46.0847 41.0689C46.092 41.0495 46.1016 41.0326 46.1113 41.0156L46.1283 40.9866C46.138 40.972 46.1476 40.9527 46.1573 40.9406L46.1719 40.9139C46.1864 40.8921 46.1985 40.8703 46.213 40.8485L46.2324 40.8195C46.2421 40.805 46.2518 40.7904 46.2615 40.7759L46.2808 40.7444C46.2905 40.7323 46.3026 40.7178 46.3123 40.7008L46.3365 40.6669C46.3486 40.6475 46.3607 40.6306 46.3753 40.6161L46.3971 40.5846C46.4068 40.5725 46.4164 40.5604 46.4261 40.5483L46.4479 40.5192C46.46 40.5023 46.4746 40.4877 46.4867 40.4708C46.4964 40.4587 46.506 40.4466 46.5157 40.4345C46.5278 40.4199 46.5399 40.4078 46.552 40.3933L46.5738 40.3642C46.5859 40.3545 46.5956 40.34 46.6077 40.3303C46.615 40.3206 46.6247 40.3085 46.632 40.3013C46.6489 40.2843 46.661 40.2698 46.6755 40.2553C46.6877 40.2407 46.6998 40.231 46.7094 40.2189C46.7216 40.2068 46.7312 40.1971 46.7409 40.1875L46.7724 40.156L46.8015 40.1293C46.8136 40.1172 46.8208 40.1075 46.8329 40.0979C46.8499 40.0833 46.8668 40.0664 46.8838 40.0519V40.0494C46.8959 40.0397 46.9056 40.0301 46.9153 40.0204C46.9274 40.0107 46.9371 40.001 46.9468 39.9937L47.0097 39.9405C47.0315 39.9235 47.0509 39.9066 47.0727 39.8872L47.0993 39.8654C47.1114 39.8557 47.1235 39.8484 47.1332 39.8412L47.1671 39.8145C47.1792 39.8073 47.1889 39.7952 47.201 39.7879C47.2107 39.7806 47.2204 39.7734 47.2301 39.7685C47.2543 39.7492 47.2785 39.7346 47.3027 39.7177L47.3269 39.7007C47.339 39.691 47.3536 39.6814 47.3681 39.6717L47.3947 39.6547C47.4093 39.645 47.4238 39.6354 47.4359 39.6257L47.465 39.6111C47.4892 39.5966 47.511 39.5797 47.5352 39.5651L47.5667 39.5482C47.5812 39.5409 47.5957 39.5312 47.6078 39.524L47.6393 39.5046C47.6538 39.4973 47.6684 39.4901 47.6829 39.4828L47.6998 39.4731C47.7289 39.4586 47.7555 39.4441 47.787 39.4271L47.8185 39.415L47.8597 39.3932C47.8718 39.3859 47.8839 39.3811 47.896 39.3762C48.4021 39.1414 48.9639 39.0106 49.5572 39.0106H59.6452V36.0006L66.0962 42.391L59.6452 48.7815V45.7715H52.354V52.3508Z" fill="#009F3C"/>
<path d="M52.379 66.1581V59.6199H45.8409V52.3772H52.379V45.8415H59.6218V52.3772H66.1575V59.6199H59.6218V66.1581H52.379Z" fill="white"/>
</g>
<rect x="1" y="1" width="110" height="110" rx="9" stroke="black" stroke-opacity="0.1" stroke-width="2"/>
<defs>
<clipPath id="clip0_505_123">
<rect x="2" y="2" width="108" height="108" rx="8" fill="white"/>
</clipPath>
</defs>
</svg>
