<svg width="112" height="112" viewBox="0 0 112 112" fill="none" xmlns="http://www.w3.org/2000/svg">
<g clip-path="url(#clip0_768_344)">
<rect x="1.99988" y="2" width="108" height="108" rx="8" fill="white"/>
<path fill-rule="evenodd" clip-rule="evenodd" d="M34.4618 47.0676C34.4618 47.0318 34.426 47 34.3863 47H32.2718L32.2201 47.0238L32.2003 47.0755C32.248 48.0374 32.244 48.9833 32.1804 49.8855C31.7392 56.2289 28.5238 60.8474 22.6255 63.6017C21.3418 64.1979 19.9268 64.7107 18.4125 65.12C18.3767 65.132 18.3529 65.1677 18.3608 65.2114C18.3648 65.2432 18.3966 65.2671 18.4324 65.2671H18.4403C18.4721 65.2671 21.1629 64.9213 23.6709 63.9157C26.5445 62.7671 28.8855 61.1892 30.6263 59.2218C32.6852 56.9086 33.9332 54.0231 34.3346 50.6526C34.4697 49.5159 34.5135 48.3116 34.4578 47.0715L34.4618 47.0676Z" fill="#D7DF23"/>
<path fill-rule="evenodd" clip-rule="evenodd" d="M28.7225 49.4205C28.7026 49.3649 28.6669 49.3013 28.5675 49.2854C28.2575 49.2695 27.9515 49.2615 27.6573 49.2615C24.5413 49.2615 21.616 50.0485 19.4141 51.4714C18.3449 52.163 17.4984 52.9738 16.9141 53.872C16.306 54.8021 15.996 55.7957 15.996 56.8172C15.996 58.0254 16.4212 59.182 17.2639 60.2512C18.0707 61.2687 19.2432 62.1709 20.6621 62.8585C20.6701 62.8665 20.6979 62.8744 20.7337 62.8744L20.7853 62.8665C23.2535 61.9404 25.3441 60.4777 26.8346 58.6415C28.3648 56.7536 29.1716 54.5636 29.1716 52.2981C29.1716 51.3243 29.0206 50.3545 28.7225 49.4126V49.4205Z" fill="#39B54A"/>
<path fill-rule="evenodd" clip-rule="evenodd" d="M38.655 54.3092C38.2337 53.5342 37.6176 52.8068 36.8267 52.155L36.775 52.1351C36.7392 52.1351 36.7233 52.1709 36.7193 52.1987C36.2464 58.1169 31.4809 63.0095 25.1414 64.1065L25.0858 64.1542C25.0858 64.1542 25.0898 64.194 25.1414 64.2019C25.9642 64.3211 26.8147 64.3768 27.6613 64.3768C30.7694 64.3768 33.6947 63.5978 35.9006 62.1749C36.9697 61.4754 37.8123 60.6685 38.4006 59.7703C39.0087 58.8402 39.3187 57.8466 39.3187 56.8291C39.3187 55.9626 39.0961 55.12 38.655 54.3132V54.3092Z" fill="#00ADDC"/>
<path fill-rule="evenodd" clip-rule="evenodd" d="M45.5906 62.8863L44.2074 60.9944L43.6947 61.527V62.8903H42.713V58.4348H43.6947V60.3824L45.5031 58.4308H46.6875L44.8712 60.3227L46.771 62.8863H45.5906Z" fill="#00ADDC"/>
<path fill-rule="evenodd" clip-rule="evenodd" d="M48.5914 60.1876C48.1939 60.1876 47.9316 60.4738 47.8561 60.9149H49.3147C49.2591 60.4817 49.0047 60.1876 48.5914 60.1876ZM47.864 61.5151C47.9594 61.9563 48.2694 62.1868 48.6987 62.1868C49.0206 62.1868 49.2591 62.0835 49.5254 61.8331L50.0818 62.3259C49.7639 62.7194 49.3028 62.9658 48.6828 62.9658C47.6613 62.9658 46.9022 62.2424 46.9022 61.2011V61.1892C46.9022 60.2154 47.5977 59.4086 48.5914 59.4086C49.7321 59.4086 50.2567 60.2989 50.2567 61.2647V61.2766C50.2567 61.372 50.2488 61.4316 50.2448 61.5151H47.864Z" fill="#00ADDC"/>
<path fill-rule="evenodd" clip-rule="evenodd" d="M52.1287 62.9459C51.5365 62.9459 51.1351 62.7114 51.1351 61.9245V60.3068H50.7257V59.4762H51.1351V58.6057H52.1049V59.4762H52.9077V60.3068H52.1049V61.7655C52.1049 61.9881 52.2003 62.0994 52.4189 62.0994C52.5977 62.0994 52.7567 62.0517 52.8958 61.9762V62.7512C52.6931 62.8704 52.4586 62.9459 52.1327 62.9459H52.1287Z" fill="#00ADDC"/>
<path fill-rule="evenodd" clip-rule="evenodd" d="M55.0421 60.1876C54.6406 60.1876 54.3783 60.4738 54.3028 60.9149H55.7615C55.7058 60.4817 55.4475 60.1876 55.0421 60.1876ZM56.6915 61.5151H54.3187C54.4101 61.9563 54.7162 62.1868 55.1494 62.1868C55.4753 62.1868 55.7098 62.0835 55.9801 61.8331L56.5325 62.3259C56.2106 62.7194 55.7535 62.9658 55.1375 62.9658C54.112 62.9658 53.3569 62.2424 53.3569 61.2011V61.1892C53.3569 60.2154 54.0524 59.4086 55.0421 59.4086C56.1828 59.4086 56.7034 60.2989 56.7034 61.2647V61.2766C56.7034 61.372 56.6995 61.4316 56.6915 61.5151Z" fill="#00ADDC"/>
<path fill-rule="evenodd" clip-rule="evenodd" d="M59.585 62.8863V60.9865C59.585 60.5294 59.3704 60.2909 59.0007 60.2909C58.6311 60.2909 58.3966 60.5294 58.3966 60.9865V62.8863H57.4308V59.4762H58.3966V59.9611C58.6192 59.6749 58.9054 59.4086 59.3982 59.4086C60.1295 59.4086 60.5548 59.8975 60.5548 60.6804V62.8863H59.585Z" fill="#00ADDC"/>
<path fill-rule="evenodd" clip-rule="evenodd" d="M63.4085 61.5151C63.2416 61.4356 63.027 61.3879 62.7885 61.3879C62.3751 61.3879 62.1208 61.5548 62.1208 61.8609V61.8728C62.1208 62.1351 62.3394 62.2862 62.6494 62.2862C63.0985 62.2862 63.4046 62.0397 63.4046 61.69V61.5191L63.4085 61.5151ZM63.3887 62.8903V62.5207C63.1542 62.783 62.8243 62.9539 62.3592 62.9539C61.7154 62.9539 61.1868 62.5882 61.1868 61.9086V61.8967C61.1868 61.1534 61.7511 60.8076 62.562 60.8076C62.9077 60.8076 63.1542 60.8633 63.3966 60.9428V60.8871C63.3966 60.4857 63.1462 60.2591 62.6653 60.2591C62.2957 60.2591 62.0373 60.3347 61.7193 60.4499L61.4769 59.7107C61.8545 59.5477 62.2241 59.4404 62.8004 59.4404C63.8577 59.4404 64.3267 59.9849 64.3267 60.907V62.8903H63.3887Z" fill="#00ADDC"/>
<path fill-rule="evenodd" clip-rule="evenodd" d="M67.6375 61.0024C67.6375 60.5413 67.2798 60.2154 66.8068 60.2154C66.3338 60.2154 65.9761 60.5374 65.9761 61.0024V61.0183C65.9761 61.4913 66.3338 61.8092 66.8068 61.8092C67.2798 61.8092 67.6375 61.4833 67.6375 61.0183V61.0024ZM66.6915 63.9197C66.1351 63.9197 65.6144 63.7925 65.1852 63.566L65.515 62.8386C65.8648 63.0374 66.2146 63.1526 66.6677 63.1526C67.3275 63.1526 67.6375 62.8347 67.6375 62.2226V62.0556C67.3553 62.4014 67.0413 62.6121 66.5246 62.6121C65.7297 62.6121 65.0103 62.0318 65.0103 61.0183V61.0024C65.0103 59.9849 65.7376 59.4086 66.5246 59.4086C67.0532 59.4086 67.3632 59.6351 67.6255 59.9213V59.4762H68.5914V62.1192C68.5914 63.403 67.9594 63.9197 66.6915 63.9197Z" fill="#00ADDC"/>
<path fill-rule="evenodd" clip-rule="evenodd" d="M71.4809 61.5151C71.3139 61.4356 71.0953 61.3879 70.8608 61.3879C70.4475 61.3879 70.1931 61.5548 70.1931 61.8609V61.8728C70.1931 62.1351 70.4117 62.2862 70.7217 62.2862C71.1748 62.2862 71.4809 62.0397 71.4809 61.69V61.5151ZM71.461 62.8903V62.5207C71.2265 62.783 70.8966 62.9539 70.4276 62.9539C69.7877 62.9539 69.2591 62.5882 69.2591 61.9086V61.8967C69.2591 61.1534 69.8275 60.8076 70.6343 60.8076C70.9761 60.8076 71.2265 60.8633 71.4689 60.9428V60.8871C71.4689 60.4857 71.2186 60.2591 70.7376 60.2591C70.368 60.2591 70.1057 60.3347 69.7917 60.4499L69.5532 59.7107C69.9268 59.5477 70.2965 59.4404 70.8767 59.4404C71.934 59.4404 72.399 59.9849 72.399 60.907V62.8903H71.461Z" fill="#00ADDC"/>
<path fill-rule="evenodd" clip-rule="evenodd" d="M75.4276 62.8863L74.5333 61.4952L74.1995 61.8529V62.8863H73.2337V58.244H74.1995V60.7202L75.3362 59.4762H76.4928L75.1931 60.8156L76.5365 62.8863H75.4276Z" fill="#00ADDC"/>
<path fill-rule="evenodd" clip-rule="evenodd" d="M78.3648 60.1876C77.9634 60.1876 77.7011 60.4738 77.6255 60.9149H79.0842C79.0246 60.4817 78.7702 60.1876 78.3608 60.1876H78.3648ZM80.0143 61.5151H77.6375C77.7329 61.9563 78.0389 62.1868 78.4721 62.1868C78.798 62.1868 79.0325 62.0835 79.3028 61.8331L79.8553 62.3259C79.5373 62.7194 79.0763 62.9658 78.4602 62.9658C77.4348 62.9658 76.6756 62.2424 76.6756 61.2011V61.1892C76.6756 60.2154 77.3712 59.4086 78.3648 59.4086C79.5055 59.4086 80.0262 60.2989 80.0262 61.2647V61.2766C80.0262 61.372 80.0222 61.4316 80.0103 61.5151H80.0143Z" fill="#00ADDC"/>
<path fill-rule="evenodd" clip-rule="evenodd" d="M82.7488 60.4221C82.1088 60.4221 81.7114 60.8116 81.7114 61.6264V62.8863H80.7456V59.4762H81.7114V60.1638C81.9101 59.6868 82.2321 59.3847 82.8044 59.4086V60.4221H82.7488Z" fill="#00ADDC"/>
<path fill-rule="evenodd" clip-rule="evenodd" d="M83.4244 58.244H84.4459V59.0986H83.4244V58.244ZM83.3251 63.9277C83.1462 63.9277 83.0349 63.9157 82.9038 63.8919V63.1328C82.9833 63.1486 83.0389 63.1526 83.1065 63.1526C83.3131 63.1526 83.4483 63.0453 83.4483 62.7552V59.4762H84.4181V62.8347C84.4181 63.5859 84.0365 63.9277 83.3251 63.9277Z" fill="#00ADDC"/>
<path fill-rule="evenodd" clip-rule="evenodd" d="M87.3513 61.5151C87.1883 61.4356 86.9697 61.3879 86.7313 61.3879C86.3219 61.3879 86.0635 61.5548 86.0635 61.8609V61.8728C86.0635 62.1351 86.2782 62.2862 86.5882 62.2862C87.0413 62.2862 87.3473 62.0397 87.3473 61.69V61.5191L87.3513 61.5151ZM87.3314 62.8903V62.5207C87.093 62.783 86.771 62.9539 86.302 62.9539C85.6581 62.9539 85.1295 62.5882 85.1295 61.9086V61.8967C85.1295 61.1534 85.6979 60.8076 86.5087 60.8076C86.8505 60.8076 87.0969 60.8633 87.3394 60.9428V60.8871C87.3394 60.4857 87.0929 60.2591 86.6081 60.2591C86.2344 60.2591 85.9801 60.3347 85.6661 60.4499L85.4276 59.7107C85.7972 59.5477 86.1709 59.4404 86.7511 59.4404C87.8044 59.4404 88.2694 59.9849 88.2694 60.907V62.8903H87.3314Z" fill="#00ADDC"/>
<path fill-rule="evenodd" clip-rule="evenodd" d="M91.1232 61.5151C90.9562 61.4356 90.7416 61.3879 90.5031 61.3879C90.0858 61.3879 89.8314 61.5548 89.8314 61.8609V61.8728C89.8314 62.1351 90.05 62.2862 90.36 62.2862C90.8131 62.2862 91.1192 62.0397 91.1192 61.69V61.5191L91.1232 61.5151ZM91.1033 62.8903V62.5207C90.8688 62.783 90.5429 62.9539 90.0739 62.9539C89.43 62.9539 88.9014 62.5882 88.9014 61.9086V61.8967C88.9014 61.1534 89.4658 60.8076 90.2766 60.8076C90.6184 60.8076 90.8688 60.8633 91.1112 60.9428V60.8871C91.1112 60.4857 90.8648 60.2591 90.3759 60.2591C90.0063 60.2591 89.748 60.3347 89.438 60.4499L89.1955 59.7107C89.5731 59.5477 89.9427 59.4404 90.523 59.4404C91.5802 59.4404 92.0453 59.9849 92.0453 60.907V62.8903H91.1033Z" fill="#00ADDC"/>
<path fill-rule="evenodd" clip-rule="evenodd" d="M95.0302 62.8863V60.9865C95.0302 60.5294 94.8155 60.2909 94.4459 60.2909C94.0763 60.2909 93.8418 60.5294 93.8418 60.9865V62.8863H92.872V59.4762H93.8418V59.9611C94.0643 59.6749 94.3505 59.4086 94.8394 59.4086C95.5707 59.4086 95.9999 59.8975 95.9999 60.6804V62.8863H95.0302Z" fill="#00ADDC"/>
<path fill-rule="evenodd" clip-rule="evenodd" d="M45.2766 55.7281C45.7774 55.7281 46.0953 55.434 46.0953 55.0207C46.0953 54.5795 45.7535 54.3132 45.2766 54.3132H44.2233V55.7281H45.2766ZM45.1295 53.1566C45.5309 53.1566 45.829 52.9062 45.829 52.5604C45.829 52.2146 45.5309 51.9722 45.1295 51.9722H44.2193V53.1566H45.1295ZM45.4435 50.7003C46.5643 50.7003 47.3513 51.4475 47.3513 52.3696C47.3513 52.9618 46.9459 53.4626 46.5643 53.5978V53.6057C47.1605 53.7687 47.6732 54.4523 47.6732 55.0922C47.6732 56.1415 46.9817 57 45.4276 57H42.713V50.7043H45.4475L45.4435 50.7003Z" fill="#39B54A"/>
<path fill-rule="evenodd" clip-rule="evenodd" d="M51.1112 53.6057C51.6915 53.6057 52.0453 53.3315 52.0453 52.8585C52.0453 52.3855 51.6955 52.1153 51.1112 52.1153H50.2488V53.6057H51.1112ZM51.1391 50.7043C52.6891 50.7043 53.6232 51.5151 53.6232 52.8625C53.6232 54.2099 52.6891 55.0207 51.1391 55.0207H50.2488V56.996H48.7384V50.7003H51.1351L51.1391 50.7043Z" fill="#39B54A"/>
<path fill-rule="evenodd" clip-rule="evenodd" d="M58.3728 50.7043V54.2019C58.3728 56.0859 57.2042 57.1232 55.5429 57.1232C54.3386 57.1232 53.3251 56.4396 52.9475 55.5175L54.43 55.12C54.6446 55.4976 55.0302 55.7122 55.5429 55.7122C56.3696 55.7122 56.8624 55.1558 56.8624 54.2576V50.7043H58.3728Z" fill="#39B54A"/>
<path fill-rule="evenodd" clip-rule="evenodd" d="M62.9674 52.7035C62.8123 52.1431 62.3275 51.8847 61.8783 51.8847C61.4292 51.8847 61.1709 52.1113 61.1709 52.3617C61.1709 52.775 61.7988 52.9261 62.562 53.2083C63.496 53.5461 64.4777 54.0787 64.4777 55.1598C64.4777 56.3084 63.488 57.1272 62.0214 57.1272C60.7098 57.1272 59.7718 56.3998 59.3585 55.2234L60.8052 54.8339C60.9682 55.3068 61.4173 55.7878 62.081 55.7878C62.6216 55.7878 62.872 55.5334 62.872 55.2313C62.872 54.7266 62.1327 54.6033 61.2305 54.2615C60.4793 53.9754 59.6049 53.562 59.6049 52.4571C59.6049 51.4754 60.5945 50.589 61.9578 50.589C63.1621 50.589 64.12 51.3243 64.4141 52.31L62.9554 52.7075L62.9674 52.7035Z" fill="#39B54A"/>
</g>
<rect x="1" y="1" width="110" height="110" rx="9" stroke="black" stroke-opacity="0.1" stroke-width="2"/>
<defs>
<clipPath id="clip0_768_344">
<rect x="2" y="2" width="108" height="108" rx="8" fill="white"/>
</clipPath>
</defs>
</svg>
