<svg width="112" height="112" viewBox="0 0 112 112" fill="none" xmlns="http://www.w3.org/2000/svg">
<g clip-path="url(#clip0_768_355)">
<rect x="1.99988" y="2" width="108" height="108" rx="8" fill="white"/>
<path d="M27.1375 49H18.0072C16.8986 49 16 49.9207 16 51.0565V60.0987C16 61.2234 16.8819 62.138 17.9762 62.1546H27.1325C28.2411 62.1546 29.1402 61.2345 29.1402 60.0987L29.1441 51.0565C29.1441 49.9207 28.2461 49 27.1375 49ZM19.092 61.1009L18.5942 61.1064C17.9911 61.1064 17.5022 60.6109 17.5022 59.9994L17.4994 59.9124V51.5621L17.5028 51.112C17.5255 50.5205 17.9751 50.0449 18.5632 50.0449H19.5759C20.4939 50.0449 21.2378 50.8431 21.2378 51.7838C21.2378 52.2494 21.0554 52.6718 20.76 52.9789L18.1763 55.6009L20.5981 58.0671C20.9102 58.3891 21.0987 58.8115 21.0987 59.2744C21.0987 60.2832 20.2007 61.1009 19.092 61.1009ZM26.5371 61.0926L22.0222 61.0909C22.0222 61.0909 22.5438 59.9628 22.5438 59.2644C22.5438 58.4124 22.2594 57.6519 21.8137 57.1485L20.2694 55.5743L21.8453 53.9457C22.3148 53.505 22.6264 52.7223 22.6264 51.8304C22.6264 51.1242 22.4313 50.4989 22.117 50.0449H23.2106C24.1286 50.0449 24.8731 50.8431 24.8731 51.7838C24.8731 52.2494 24.6907 52.6718 24.3952 52.9789L21.8609 55.5737L27.1247 60.9412C26.9579 61.046 26.7478 61.0926 26.5371 61.0926ZM27.6397 59.4168L23.8675 55.5721L25.6641 53.7461C26.0294 53.2888 26.2616 52.6003 26.2616 51.8304C26.2616 51.1197 26.0637 50.4784 25.7467 50.0244L26.5504 50.0488C27.1535 50.0488 27.6424 50.5443 27.6424 51.1558L27.6397 59.4168Z" fill="#00529C"/>
<path d="M36.9747 55.0496C37.0329 54.994 37.1018 54.9225 37.1812 54.835C37.2604 54.7475 37.3355 54.6442 37.4064 54.5249C37.4774 54.4056 37.5379 54.2727 37.5879 54.1255C37.6381 53.9785 37.6632 53.8215 37.6632 53.6546C37.6632 53.3289 37.6047 53.0249 37.4879 52.7426C37.371 52.4605 37.1916 52.214 36.9496 52.0032C36.7075 51.7929 36.4052 51.6277 36.042 51.5084C35.6791 51.3893 35.2554 51.3297 34.7716 51.3297H31.5795V59.6755H35.0845C35.5935 59.6755 36.0377 59.61 36.4176 59.4788C36.7971 59.3476 37.1124 59.1669 37.3627 58.9364C37.613 58.7059 37.7986 58.4376 37.9197 58.1316C38.0406 57.8257 38.1012 57.4978 38.1012 57.1479C38.1012 56.679 37.9886 56.2618 37.7633 55.896C37.5379 55.5305 37.275 55.2483 36.9747 55.0496ZM35.4248 52.8589C35.5429 52.9018 35.6414 52.9575 35.7183 53.0276C35.9176 53.2098 36.0174 53.4274 36.0174 53.6807C36.0174 53.9104 35.9757 54.1002 35.8927 54.2505C35.8095 54.4011 35.7264 54.5158 35.6434 54.5948H33.2068V52.7604H34.7214C35.0053 52.7604 35.239 52.7938 35.4248 52.8589ZM35.172 56.0392C35.6132 56.0392 35.94 56.148 36.1528 56.3653C36.3529 56.5792 36.4537 56.8317 36.4537 57.1238C36.4537 57.4249 36.3394 57.6819 36.1109 57.8956C35.8821 58.1093 35.5063 58.2164 34.9827 58.2164H33.2068V56.0392H35.172Z" fill="#00529C"/>
<path d="M44.0437 56.0809C44.3064 55.91 44.5256 55.7113 44.7009 55.4847C44.8761 55.2581 45.0053 55.0079 45.0889 54.7337C45.1723 54.4593 45.2142 54.1792 45.2142 53.893C45.2142 53.5195 45.1493 53.1758 45.02 52.8617C44.8904 52.5478 44.6965 52.2776 44.4379 52.051C44.1791 51.8245 43.8558 51.6477 43.4678 51.5205C43.0797 51.3935 42.6312 51.3297 42.1222 51.3297H38.6734V59.6755H40.3323V56.5757H41.2572L43.5449 59.6755H45.4894L43.1237 56.4684C43.474 56.3811 43.7807 56.2519 44.0437 56.0809ZM42.1347 52.7604C42.239 52.7604 42.3375 52.7669 42.4312 52.7781C42.727 52.8206 42.9686 52.9212 43.1548 53.081C43.4082 53.2988 43.5349 53.5659 43.5349 53.8823C43.5349 54.041 43.5078 54.1952 43.4539 54.3456C43.3997 54.4961 43.3147 54.6286 43.1984 54.7432C43.0818 54.8581 42.9323 54.951 42.7496 55.0223C42.5667 55.0936 42.3464 55.1292 42.0888 55.1292H40.3323V52.7604H42.1347Z" fill="#00529C"/>
<path d="M46.0752 51.3297V51.332C46.0584 51.3316 46.0421 51.3297 46.0253 51.3297H46.0112V59.6755H47.7026V51.3297H46.0752Z" fill="#00529C"/>
<path d="M49.5198 54.0031H50.3182V59.6007H49.5198V54.0031ZM49.5198 51.7641H50.3182V52.6821H49.5198V51.7641Z" fill="#F36F21"/>
<path d="M51.8819 54.0031H52.6803V54.7308C52.9021 54.4621 53.1794 54.2569 53.5121 54.1151C53.8447 53.9658 54.1663 53.8912 54.4768 53.8912C55.2014 53.8912 55.7706 54.089 56.1846 54.4845C56.606 54.8801 56.8167 55.4996 56.8167 56.3429V59.6007H56.0072V56.4997C56.0072 55.8578 55.8704 55.3988 55.5969 55.1227C55.3234 54.8391 54.9315 54.6972 54.4214 54.6972C54.244 54.6972 54.0665 54.7308 53.8891 54.798C53.7117 54.8577 53.5453 54.9398 53.3901 55.0443C53.2348 55.1413 53.0943 55.2495 52.9687 55.369C52.843 55.4884 52.7469 55.6078 52.6803 55.7272V59.6007H51.8819V54.0031Z" fill="#F36F21"/>
<path d="M58.5911 58.1454C58.6059 58.4066 58.702 58.6081 58.8794 58.7499C59.0642 58.8842 59.2971 58.9514 59.5781 58.9514C59.8886 58.9514 60.1325 58.873 60.31 58.7163C60.4948 58.5596 60.5872 58.3245 60.5872 58.011C60.5872 57.8841 60.5576 57.7759 60.4985 57.6864C60.4467 57.5968 60.3728 57.5184 60.2767 57.4513C60.188 57.3841 60.0808 57.3244 59.9551 57.2721C59.8368 57.2199 59.7111 57.1676 59.578 57.1154C59.3932 57.0482 59.2047 56.9773 59.0125 56.9027C58.8276 56.8206 58.6576 56.7198 58.5023 56.6004C58.3471 56.481 58.2214 56.3317 58.1253 56.1526C58.0292 55.9735 57.9811 55.7496 57.9811 55.4809C57.9811 55.2346 58.0218 55.0144 58.1031 54.8204C58.1844 54.6189 58.299 54.451 58.4469 54.3166C58.5948 54.1823 58.7685 54.0778 58.9681 54.0031C59.1677 53.9285 59.3895 53.8912 59.6335 53.8912C60.1214 53.8912 60.5059 54.0218 60.7868 54.283C61.0751 54.5442 61.2341 54.8988 61.2636 55.3466H60.4652C60.443 55.1525 60.3616 54.9883 60.2212 54.854C60.0808 54.7196 59.8848 54.6525 59.6335 54.6525C59.3747 54.6525 59.1714 54.7271 59.0235 54.8764C58.8757 55.0182 58.8018 55.2197 58.8018 55.4809C58.8018 55.6153 58.8313 55.7309 58.8905 55.828C58.957 55.9175 59.042 55.9959 59.1456 56.0631C59.2565 56.1302 59.3784 56.1937 59.5115 56.2534C59.652 56.3056 59.7961 56.3579 59.944 56.4101C60.114 56.4773 60.2841 56.5519 60.4541 56.634C60.6316 56.7086 60.7905 56.8057 60.931 56.9251C61.0715 57.037 61.186 57.1826 61.2748 57.3617C61.3635 57.5334 61.4078 57.7498 61.4078 58.011C61.4078 58.5484 61.2341 58.9663 60.8866 59.2649C60.5466 59.5634 60.1104 59.7127 59.5781 59.7127C59.0679 59.7127 58.6502 59.5746 58.3249 59.2985C57.9996 59.0223 57.8185 58.6379 57.7815 58.1454H58.5911Z" fill="#F36F21"/>
<path d="M62.539 54.0031H63.3485V57.1042C63.3485 57.7461 63.4631 58.2088 63.6923 58.4924C63.9215 58.7686 64.2763 58.9066 64.7569 58.9066C64.9491 58.9066 65.1302 58.8768 65.3003 58.8171C65.4777 58.7499 65.6367 58.6678 65.7771 58.5708C65.925 58.4663 66.0544 58.3543 66.1653 58.2349C66.2836 58.1155 66.376 57.9961 66.4425 57.8767V54.0031H67.241V59.6007H66.4425V58.873C66.2207 59.1417 65.9583 59.3507 65.6552 59.5C65.352 59.6418 65.0341 59.7127 64.7014 59.7127C64.3761 59.7127 64.0804 59.6642 63.8143 59.5671C63.5481 59.4701 63.3189 59.3208 63.1267 59.1193C62.9419 58.9178 62.7977 58.6641 62.6942 58.3581C62.5907 58.0446 62.539 57.6789 62.539 57.2609V54.0031Z" fill="#F36F21"/>
<path d="M68.6826 54.0031H69.4811V54.8428C69.6289 54.604 69.8174 54.4062 70.0466 54.2494C70.2758 54.0852 70.5567 54.0031 70.8894 54.0031H71.1112V54.8092H70.8894C70.5567 54.8092 70.2721 54.91 70.0355 55.1115C69.799 55.313 69.6141 55.5929 69.4811 55.9511V59.6007H68.6826V54.0031Z" fill="#F36F21"/>
<path d="M76.1681 58.873C75.6506 59.4328 75.0221 59.7127 74.2828 59.7127C73.8836 59.7127 73.5066 59.638 73.1517 59.4888C72.8042 59.332 72.5011 59.1231 72.2424 58.8618C71.9836 58.6006 71.7766 58.2946 71.6213 57.9438C71.4735 57.5856 71.3996 57.205 71.3996 56.8019C71.3996 56.3989 71.4735 56.022 71.6213 55.6712C71.7766 55.313 71.9836 55.0032 72.2424 54.742C72.5011 54.4808 72.8042 54.2756 73.1517 54.1263C73.5066 53.9696 73.8836 53.8912 74.2828 53.8912C75.0221 53.8912 75.6506 54.1711 76.1681 54.7308V54.0031H76.9665V59.6007H76.1681V58.873ZM76.1681 55.7272C76.0868 55.6078 75.9796 55.4846 75.8465 55.3578C75.7208 55.2309 75.5766 55.1152 75.414 55.0107C75.2587 54.9062 75.085 54.8204 74.8928 54.7532C74.7006 54.6861 74.4972 54.6525 74.2828 54.6525C73.9871 54.6525 73.7136 54.7084 73.4622 54.8204C73.2109 54.9323 72.9928 55.0853 72.8079 55.2794C72.6231 55.4734 72.4789 55.7011 72.3754 55.9623C72.2719 56.2235 72.2202 56.5034 72.2202 56.8019C72.2202 57.1005 72.2719 57.3804 72.3754 57.6416C72.4789 57.9028 72.6231 58.1304 72.8079 58.3245C72.9928 58.5185 73.2109 58.6715 73.4622 58.7835C73.7136 58.8954 73.9871 58.9514 74.2828 58.9514C74.4972 58.9514 74.7006 58.9216 74.8928 58.8618C75.085 58.7947 75.2587 58.7126 75.414 58.6156C75.5766 58.5111 75.7208 58.3954 75.8465 58.2685C75.9796 58.1342 76.0868 58.0035 76.1681 57.8767V55.7272Z" fill="#F36F21"/>
<path d="M78.4082 54.0031H79.2066V54.7308C79.4284 54.4621 79.7057 54.2569 80.0383 54.1151C80.371 53.9658 80.6926 53.8912 81.0031 53.8912C81.7277 53.8912 82.2969 54.089 82.7109 54.4845C83.1323 54.8801 83.343 55.4996 83.343 56.3429V59.6007H82.5335V56.4997C82.5335 55.8578 82.3967 55.3988 82.1232 55.1227C81.8496 54.8391 81.4578 54.6972 80.9477 54.6972C80.7703 54.6972 80.5928 54.7308 80.4154 54.798C80.238 54.8577 80.0716 54.9398 79.9164 55.0443C79.7611 55.1413 79.6206 55.2495 79.495 55.369C79.3693 55.4884 79.2732 55.6078 79.2066 55.7272V59.6007H78.4082V54.0031Z" fill="#F36F21"/>
<path d="M89.6197 58.1454C89.4053 58.6156 89.0837 58.9962 88.655 59.2873C88.2262 59.5709 87.7308 59.7127 87.1689 59.7127C86.7697 59.7127 86.3927 59.638 86.0378 59.4888C85.6903 59.332 85.3872 59.1231 85.1285 58.8618C84.8697 58.6006 84.6627 58.2946 84.5074 57.9438C84.3596 57.5856 84.2857 57.205 84.2857 56.8019C84.2857 56.3989 84.3596 56.022 84.5074 55.6712C84.6627 55.313 84.8697 55.0032 85.1285 54.742C85.3872 54.4808 85.6903 54.2756 86.0378 54.1263C86.3927 53.9696 86.7697 53.8912 87.1689 53.8912C87.7308 53.8912 88.2262 54.0367 88.655 54.3278C89.0837 54.6114 89.4053 54.9883 89.6197 55.4585H88.655C88.4849 55.2122 88.2779 55.0219 88.0339 54.8876C87.7974 54.7532 87.509 54.6861 87.1689 54.6861C86.8732 54.6861 86.5997 54.742 86.3483 54.854C86.097 54.9585 85.8789 55.1077 85.694 55.3018C85.5166 55.4884 85.3761 55.7123 85.2726 55.9735C85.1691 56.2273 85.1174 56.5034 85.1174 56.8019C85.1174 57.1005 85.1691 57.3804 85.2726 57.6416C85.3761 57.8953 85.5166 58.1192 85.694 58.3133C85.8789 58.4999 86.097 58.6491 86.3483 58.7611C86.5997 58.8656 86.8732 58.9178 87.1689 58.9178C87.509 58.9178 87.801 58.8507 88.045 58.7163C88.2964 58.582 88.5071 58.3917 88.6771 58.1454H89.6197Z" fill="#F36F21"/>
<path d="M95.6747 58.1454C95.5564 58.3767 95.4048 58.5894 95.22 58.7835C95.0352 58.9775 94.8281 59.1455 94.599 59.2873C94.3772 59.4216 94.1332 59.5261 93.8671 59.6007C93.6083 59.6754 93.3384 59.7127 93.0575 59.7127C92.6583 59.7127 92.285 59.638 91.9375 59.4888C91.5974 59.332 91.3017 59.1231 91.0503 58.8618C90.7989 58.6006 90.5993 58.2946 90.4515 57.9438C90.311 57.5856 90.2408 57.205 90.2408 56.8019C90.2408 56.3989 90.311 56.022 90.4515 55.6712C90.5993 55.313 90.7989 55.0032 91.0503 54.742C91.3017 54.4808 91.5974 54.2756 91.9375 54.1263C92.285 53.9696 92.6583 53.8912 93.0575 53.8912C93.4863 53.8912 93.8781 53.9696 94.233 54.1263C94.5879 54.283 94.891 54.5032 95.1424 54.7868C95.3937 55.0704 95.5896 55.4175 95.7301 55.828C95.8706 56.231 95.9408 56.6825 95.9408 57.1826H91.0947C91.139 57.4363 91.2166 57.6714 91.3275 57.8879C91.4384 58.0968 91.5752 58.2797 91.7379 58.4364C91.9079 58.5932 92.1038 58.7163 92.3256 58.8059C92.5474 58.8954 92.7914 58.9402 93.0575 58.9402C93.3976 58.9402 93.7118 58.8693 94.0001 58.7275C94.2959 58.5857 94.5398 58.3917 94.732 58.1454H95.6747ZM95.0536 56.4213C95.0315 56.175 94.9613 55.9436 94.8429 55.7272C94.732 55.5108 94.5879 55.3242 94.4105 55.1674C94.233 55.0107 94.026 54.8876 93.7894 54.798C93.5602 54.7084 93.3163 54.6637 93.0575 54.6637C92.7914 54.6637 92.5474 54.7084 92.3256 54.798C92.1038 54.8876 91.9079 55.0107 91.7379 55.1674C91.5752 55.3242 91.4384 55.5108 91.3275 55.7272C91.2166 55.9436 91.139 56.175 91.0947 56.4213H95.0536Z" fill="#F36F21"/>
</g>
<rect x="1" y="1" width="110" height="110" rx="9" stroke="black" stroke-opacity="0.1" stroke-width="2"/>
<defs>
<clipPath id="clip0_768_355">
<rect x="2" y="2" width="108" height="108" rx="8" fill="white"/>
</clipPath>
</defs>
</svg>
