<svg width="112" height="112" viewBox="0 0 112 112" fill="none" xmlns="http://www.w3.org/2000/svg">
<g clip-path="url(#clip0_768_356)">
<rect x="1.99988" y="2" width="108" height="108" rx="8" fill="white"/>
<path d="M34.7452 45H19.3783C17.5123 45 16 46.5497 16 48.4613V63.6799C16 65.5729 17.4843 67.1123 19.326 67.1402H34.7368C36.6027 67.1402 38.116 65.5915 38.116 63.6799L38.1225 48.4613C38.1225 46.5497 36.6111 45 34.7452 45ZM21.2041 65.3667L20.3663 65.376C19.3512 65.376 18.5283 64.5419 18.5283 63.5129L18.5237 63.3664V49.3122L18.5293 48.5546C18.5675 47.5591 19.3242 46.7586 20.314 46.7586H22.0186C23.5636 46.7586 24.8156 48.1021 24.8156 49.6854C24.8156 50.4691 24.5087 51.18 24.0114 51.6968L19.6628 56.1098L23.739 60.2605C24.2642 60.8026 24.5814 61.5135 24.5814 62.2925C24.5814 63.9905 23.07 65.3667 21.2041 65.3667ZM33.7348 65.3527L26.1358 65.3499C26.1358 65.3499 27.0137 63.4513 27.0137 62.2757C27.0137 60.8418 26.5351 59.5617 25.785 58.7146L23.1857 56.065L25.8381 53.3239C26.6284 52.5822 27.1527 51.2649 27.1527 49.7637C27.1527 48.5751 26.8243 47.5227 26.2953 46.7586H28.136C29.681 46.7586 30.934 48.1021 30.934 49.6854C30.934 50.4691 30.6271 51.18 30.1298 51.6968L25.8643 56.0641L34.7237 65.098C34.4429 65.2743 34.0893 65.3527 33.7348 65.3527ZM35.5904 62.5323L29.2416 56.0613L32.2653 52.9881C32.8802 52.2184 33.2711 51.0596 33.2711 49.7637C33.2711 48.5677 32.938 47.4882 32.4044 46.7241L33.7572 46.7652C34.7722 46.7652 35.5951 47.5992 35.5951 48.6283L35.5904 62.5323Z" fill="#00529C"/>
<path d="M51.3019 55.1819C51.4 55.0884 51.5159 54.9681 51.6495 54.8208C51.7829 54.6735 51.9092 54.4997 52.0286 54.2988C52.148 54.098 52.2499 53.8743 52.334 53.6266C52.4185 53.3793 52.4607 53.115 52.4607 52.834C52.4607 52.2858 52.3623 51.7742 52.1658 51.2991C51.9689 50.8243 51.667 50.4094 51.2597 50.0547C50.8523 49.7006 50.3434 49.4227 49.7322 49.2219C49.1214 49.0214 48.4083 48.921 47.5939 48.921H42.2214V62.9677H48.1207C48.9772 62.9677 49.7249 62.8573 50.3643 62.6366C51.0031 62.4158 51.5337 62.1116 51.955 61.7237C52.3763 61.3357 52.6887 60.8842 52.8925 60.3692C53.096 59.8542 53.1979 59.3024 53.1979 58.7136C53.1979 57.9243 53.0084 57.2222 52.6293 56.6064C52.2499 55.9914 51.8073 55.5163 51.3019 55.1819ZM48.6934 51.4949C48.8921 51.567 49.0579 51.6608 49.1874 51.7788C49.5228 52.0853 49.6907 52.4517 49.6907 52.8779C49.6907 53.2646 49.6205 53.5841 49.4809 53.8371C49.3409 54.0904 49.201 54.2836 49.0613 54.4165H44.9604V51.329H47.5095C47.9873 51.329 48.3807 51.3852 48.6934 51.4949ZM48.268 56.8475C49.0104 56.8475 49.5605 57.0307 49.9186 57.3964C50.2554 57.7564 50.4251 58.1813 50.4251 58.673C50.4251 59.1797 50.2328 59.6122 49.8481 59.9719C49.4631 60.3317 48.8306 60.5118 47.9493 60.5118H44.9604V56.8475H48.268Z" fill="#00529C"/>
<path d="M63.1996 56.9176C63.6418 56.6301 64.0108 56.2956 64.3057 55.9143C64.6006 55.5329 64.8181 55.1117 64.9588 54.6503C65.0991 54.1885 65.1696 53.717 65.1696 53.2353C65.1696 52.6066 65.0603 52.0282 64.8429 51.4995C64.6247 50.9713 64.2984 50.5165 63.8631 50.1351C63.4275 49.7538 62.8833 49.4562 62.2303 49.2421C61.5772 49.0284 60.8222 48.921 59.9656 48.921H54.161V62.9677H56.953V57.7504H58.5098L62.3601 62.9677H65.6328L61.6512 57.5699C62.2407 57.423 62.757 57.2055 63.1996 56.9176ZM59.9866 51.329C60.1621 51.329 60.3279 51.34 60.4857 51.3589C60.9835 51.4304 61.3901 51.5996 61.7035 51.8686C62.1301 52.2353 62.3434 52.6848 62.3434 53.2174C62.3434 53.4843 62.2976 53.744 62.2069 53.997C62.1158 54.2503 61.9727 54.4734 61.7768 54.6662C61.5807 54.8597 61.329 55.016 61.0215 55.136C60.7136 55.256 60.343 55.3158 59.9094 55.3158H56.953V51.329H59.9866Z" fill="#00529C"/>
<path d="M66.6188 48.921V48.925C66.5906 48.9243 66.563 48.921 66.5347 48.921H66.511V62.9677H69.3578V48.921H66.6188Z" fill="#00529C"/>
<path d="M72.0325 48.921H73.4599V62.9842H72.0325V48.921Z" fill="#F36F21"/>
<path d="M76.4734 52.9391H77.9009V62.9842H76.4734V52.9391ZM76.4734 48.921H77.9009V50.5684H76.4734V48.921Z" fill="#F36F21"/>
<path d="M81.3902 54.3052H80.0024V52.9391H81.3902V52.1756C81.3902 51.0104 81.6611 50.18 82.203 49.6844C82.7449 49.1755 83.4784 48.921 84.4036 48.921H84.8001V50.2872H84.4036C83.8882 50.2872 83.4917 50.4345 83.2141 50.7291C82.9498 51.0238 82.8176 51.5394 82.8176 52.2761V52.9391H84.8001V54.3052H82.8176V62.9842H81.3902V54.3052Z" fill="#F36F21"/>
<path d="M95.4663 60.3724C95.2548 60.7876 94.9838 61.1694 94.6534 61.5176C94.323 61.8658 93.9529 62.1672 93.5432 62.4217C93.1467 62.6628 92.7105 62.8503 92.2347 62.9842C91.7721 63.1181 91.2897 63.1851 90.7874 63.1851C90.0737 63.1851 89.4063 63.0512 88.7851 62.7833C88.1771 62.502 87.6484 62.127 87.199 61.6582C86.7497 61.1895 86.3928 60.6403 86.1285 60.0108C85.8773 59.368 85.7518 58.6849 85.7518 57.9616C85.7518 57.2384 85.8773 56.562 86.1285 55.9325C86.3928 55.2896 86.7497 54.7338 87.199 54.265C87.6484 53.7962 88.1771 53.4279 88.7851 53.16C89.4063 52.8788 90.0737 52.7382 90.7874 52.7382C91.554 52.7382 92.2545 52.8788 92.8889 53.16C93.5234 53.4413 94.0653 53.8364 94.5146 54.3454C94.964 54.8543 95.3143 55.4771 95.5654 56.2138C95.8165 56.937 95.9421 57.7473 95.9421 58.6447H87.2783C87.3576 59.1001 87.4964 59.522 87.6947 59.9104C87.8929 60.2854 88.1374 60.6135 88.4282 60.8948C88.7322 61.1761 89.0825 61.3971 89.479 61.5578C89.8755 61.7185 90.3116 61.7989 90.7874 61.7989C91.3954 61.7989 91.9571 61.6716 92.4726 61.4171C93.0013 61.1627 93.4374 60.8144 93.7811 60.3724H95.4663ZM94.356 57.2785C94.3163 56.8366 94.1908 56.4214 93.9793 56.033C93.7811 55.6445 93.5234 55.3097 93.2061 55.0285C92.8889 54.7472 92.5189 54.5262 92.0959 54.3655C91.6862 54.2047 91.25 54.1244 90.7874 54.1244C90.3116 54.1244 89.8755 54.2047 89.479 54.3655C89.0825 54.5262 88.7322 54.7472 88.4282 55.0285C88.1374 55.3097 87.8929 55.6445 87.6947 56.033C87.4964 56.4214 87.3576 56.8366 87.2783 57.2785H94.356Z" fill="#F36F21"/>
</g>
<rect x="1" y="1" width="110" height="110" rx="9" stroke="black" stroke-opacity="0.1" stroke-width="2"/>
<defs>
<clipPath id="clip0_768_356">
<rect x="2" y="2" width="108" height="108" rx="8" fill="white"/>
</clipPath>
</defs>
</svg>
