<svg width="112" height="112" viewBox="0 0 112 112" fill="none" xmlns="http://www.w3.org/2000/svg">
<g clip-path="url(#clip0_768_350)">
<rect x="1.99988" y="2" width="108" height="108" rx="8" fill="white"/>
<path d="M64.9788 43.6028H60.9353C60.4443 43.6028 60.0464 44.0095 60.0464 44.5112V48.5052C60.0464 49.002 60.4369 49.4061 60.9215 49.4134H64.9766C65.4676 49.4134 65.8658 49.0069 65.8658 48.5052L65.8675 44.5112C65.8675 44.0095 65.4698 43.6028 64.9788 43.6028ZM61.4157 48.9479L61.1953 48.9504C60.9282 48.9504 60.7117 48.7315 60.7117 48.4614L60.7104 48.423V44.7345L60.7119 44.5357C60.722 44.2744 60.9211 44.0643 61.1815 44.0643H61.63C62.0366 44.0643 62.366 44.4169 62.366 44.8324C62.366 45.0381 62.2853 45.2247 62.1544 45.3603L61.0102 46.5185L62.0827 47.6079C62.2209 47.7501 62.3044 47.9367 62.3044 48.1411C62.3044 48.5868 61.9067 48.9479 61.4157 48.9479ZM64.7129 48.9443L62.7134 48.9435C62.7134 48.9435 62.9444 48.4453 62.9444 48.1367C62.9444 47.7604 62.8185 47.4245 62.6211 47.2021L61.9372 46.5067L62.6351 45.7874C62.843 45.5927 62.981 45.247 62.981 44.853C62.981 44.5411 62.8946 44.2649 62.7554 44.0643H63.2397C63.6463 44.0643 63.976 44.4169 63.976 44.8324C63.976 45.0381 63.8952 45.2247 63.7644 45.3603L62.642 46.5065L64.9732 48.8774C64.8993 48.9237 64.8062 48.9443 64.7129 48.9443ZM65.2012 48.2041L63.5307 46.5058L64.3263 45.6992C64.4881 45.4972 64.5909 45.1931 64.5909 44.853C64.5909 44.5391 64.5033 44.2558 64.3629 44.0553L64.7188 44.066C64.9859 44.066 65.2025 44.2849 65.2025 44.555L65.2012 48.2041Z" fill="#00529C"/>
<path d="M69.3354 46.275C69.3612 46.2505 69.3917 46.2189 69.4269 46.1802C69.462 46.1416 69.4952 46.0959 69.5266 46.0432C69.5581 45.9905 69.5849 45.9318 69.607 45.8668C69.6292 45.8019 69.6404 45.7325 69.6404 45.6588C69.6404 45.5149 69.6145 45.3806 69.5627 45.2559C69.5109 45.1313 69.4315 45.0225 69.3243 44.9294C69.2171 44.8364 69.0832 44.7635 68.9224 44.7108C68.7617 44.6582 68.574 44.6318 68.3597 44.6318H66.9461V48.3183H68.4983C68.7237 48.3183 68.9205 48.2894 69.0887 48.2314C69.2568 48.1735 69.3964 48.0937 69.5073 47.9918C69.6181 47.89 69.7003 47.7715 69.754 47.6364C69.8075 47.5012 69.8343 47.3564 69.8343 47.2019C69.8343 46.9947 69.7845 46.8104 69.6847 46.6488C69.5849 46.4874 69.4684 46.3627 69.3354 46.275ZM68.6491 45.3073C68.7013 45.3263 68.7449 45.3509 68.779 45.3819C68.8673 45.4623 68.9115 45.5585 68.9115 45.6703C68.9115 45.7718 68.893 45.8556 68.8563 45.922C68.8194 45.9885 68.7826 46.0392 68.7459 46.0741H67.6668V45.2638H68.3375C68.4633 45.2638 68.5668 45.2785 68.6491 45.3073ZM68.5371 46.7121C68.7325 46.7121 68.8772 46.7602 68.9714 46.8562C69.0601 46.9507 69.1047 47.0622 69.1047 47.1912C69.1047 47.3242 69.0541 47.4377 68.9529 47.5321C68.8516 47.6265 68.6852 47.6738 68.4532 47.6738H67.6668V46.7121H68.5371Z" fill="#00529C"/>
<path d="M72.4661 46.7305C72.5824 46.655 72.6795 46.5673 72.7571 46.4672C72.8347 46.3671 72.892 46.2566 72.929 46.1355C72.9659 46.0143 72.9845 45.8905 72.9845 45.7641C72.9845 45.5991 72.9557 45.4473 72.8985 45.3086C72.8411 45.1699 72.7552 45.0506 72.6407 44.9505C72.5261 44.8504 72.3829 44.7723 72.211 44.7161C72.0392 44.66 71.8405 44.6318 71.6151 44.6318H70.0877V48.3183H70.8224V46.9491H71.232L72.2452 48.3183H73.1063L72.0587 46.9017C72.2138 46.8631 72.3496 46.8061 72.4661 46.7305ZM71.6206 45.2638C71.6668 45.2638 71.7105 45.2667 71.752 45.2717C71.8829 45.2904 71.9899 45.3348 72.0724 45.4054C72.1847 45.5016 72.2408 45.6196 72.2408 45.7594C72.2408 45.8295 72.2287 45.8976 72.2049 45.964C72.1809 46.0305 72.1432 46.089 72.0917 46.1396C72.0401 46.1904 71.9739 46.2314 71.893 46.2629C71.812 46.2944 71.7144 46.3101 71.6003 46.3101H70.8224V45.2638H71.6206Z" fill="#00529C"/>
<path d="M73.3658 44.6318V44.6329C73.3584 44.6327 73.3511 44.6318 73.3437 44.6318H73.3374V48.3183H74.0865V44.6318H73.3658Z" fill="#00529C"/>
<path d="M74.8913 45.8128H75.2449V48.2853H74.8913V45.8128ZM74.8913 44.8237H75.2449V45.2292H74.8913V44.8237Z" fill="#F36F21"/>
<path d="M75.9374 45.8128H76.291V46.1342C76.3892 46.0155 76.512 45.9248 76.6594 45.8622C76.8067 45.7963 76.9491 45.7633 77.0866 45.7633C77.4075 45.7633 77.6596 45.8507 77.843 46.0254C78.0296 46.2001 78.1229 46.4737 78.1229 46.8463V48.2853H77.7644V46.9155C77.7644 46.632 77.7038 46.4292 77.5827 46.3073C77.4615 46.182 77.288 46.1193 77.0621 46.1193C76.9835 46.1193 76.9049 46.1342 76.8263 46.1639C76.7478 46.1902 76.6741 46.2265 76.6053 46.2726C76.5366 46.3155 76.4744 46.3633 76.4187 46.4161C76.363 46.4688 76.3205 46.5215 76.291 46.5743V48.2853H75.9374V45.8128Z" fill="#F36F21"/>
<path d="M78.9087 47.6424C78.9152 47.7578 78.9578 47.8468 79.0364 47.9095C79.1182 47.9688 79.2214 47.9985 79.3458 47.9985C79.4833 47.9985 79.5914 47.9639 79.6699 47.8946C79.7518 47.8254 79.7927 47.7216 79.7927 47.5831C79.7927 47.527 79.7796 47.4792 79.7534 47.4397C79.7305 47.4001 79.6977 47.3655 79.6552 47.3358C79.6159 47.3062 79.5684 47.2798 79.5128 47.2567C79.4604 47.2336 79.4047 47.2106 79.3458 47.1875C79.2639 47.1578 79.1804 47.1265 79.0953 47.0935C79.0134 47.0573 78.9381 47.0128 78.8694 46.96C78.8006 46.9073 78.745 46.8413 78.7024 46.7622C78.6598 46.6831 78.6386 46.5842 78.6386 46.4655C78.6386 46.3567 78.6566 46.2595 78.6926 46.1737C78.7286 46.0847 78.7793 46.0106 78.8448 45.9512C78.9103 45.8919 78.9873 45.8457 79.0757 45.8128C79.1641 45.7798 79.2623 45.7633 79.3703 45.7633C79.5864 45.7633 79.7567 45.821 79.8811 45.9364C80.0088 46.0518 80.0792 46.2084 80.0923 46.4062H79.7387C79.7288 46.3204 79.6928 46.2479 79.6306 46.1886C79.5684 46.1292 79.4817 46.0996 79.3703 46.0996C79.2557 46.0996 79.1657 46.1325 79.1002 46.1985C79.0347 46.2611 79.002 46.3501 79.002 46.4655C79.002 46.5248 79.0151 46.5759 79.0413 46.6188C79.0707 46.6584 79.1084 46.693 79.1543 46.7226C79.2034 46.7523 79.2574 46.7803 79.3163 46.8067C79.3785 46.8298 79.4424 46.8529 79.5079 46.8759C79.5832 46.9056 79.6585 46.9386 79.7338 46.9748C79.8124 47.0078 79.8828 47.0507 79.945 47.1034C80.0072 47.1529 80.0579 47.2172 80.0972 47.2963C80.1365 47.3721 80.1561 47.4677 80.1561 47.5831C80.1561 47.8205 80.0792 48.0051 79.9253 48.1369C79.7747 48.2688 79.5815 48.3347 79.3458 48.3347C79.1199 48.3347 78.9349 48.2738 78.7908 48.1518C78.6468 48.0298 78.5665 47.86 78.5502 47.6424H78.9087Z" fill="#F36F21"/>
<path d="M80.6571 45.8128H81.0156V47.1825C81.0156 47.4661 81.0664 47.6705 81.1679 47.7957C81.2694 47.9177 81.4265 47.9787 81.6394 47.9787C81.7245 47.9787 81.8047 47.9655 81.88 47.9391C81.9586 47.9095 82.029 47.8732 82.0912 47.8303C82.1567 47.7842 82.214 47.7347 82.2631 47.682C82.3155 47.6292 82.3564 47.5765 82.3859 47.5238V45.8128H82.7395V48.2853H82.3859V47.9639C82.2876 48.0825 82.1714 48.1749 82.0372 48.2408C81.9029 48.3034 81.7621 48.3347 81.6148 48.3347C81.4707 48.3347 81.3398 48.3133 81.2219 48.2705C81.104 48.2276 81.0025 48.1617 80.9174 48.0727C80.8355 47.9836 80.7717 47.8716 80.7259 47.7364C80.68 47.5979 80.6571 47.4364 80.6571 47.2518V45.8128Z" fill="#F36F21"/>
<path d="M83.3779 45.8128H83.7315V46.1836C83.797 46.0781 83.8805 45.9908 83.982 45.9215C84.0835 45.849 84.2079 45.8128 84.3553 45.8128H84.4535V46.1688H84.3553C84.2079 46.1688 84.0819 46.2133 83.9771 46.3023C83.8723 46.3913 83.7905 46.515 83.7315 46.6732V48.2853H83.3779V45.8128Z" fill="#F36F21"/>
<path d="M86.693 47.9639C86.4638 48.2111 86.1855 48.3347 85.8581 48.3347C85.6813 48.3347 85.5143 48.3018 85.3572 48.2358C85.2033 48.1666 85.069 48.0743 84.9544 47.9589C84.8399 47.8435 84.7482 47.7084 84.6794 47.5534C84.6139 47.3952 84.5812 47.227 84.5812 47.049C84.5812 46.871 84.6139 46.7045 84.6794 46.5496C84.7482 46.3913 84.8399 46.2545 84.9544 46.1391C85.069 46.0237 85.2033 45.9331 85.3572 45.8671C85.5143 45.7979 85.6813 45.7633 85.8581 45.7633C86.1855 45.7633 86.4638 45.8869 86.693 46.1342V45.8128H87.0466V48.2853H86.693V47.9639ZM86.693 46.5743C86.657 46.5215 86.6095 46.4672 86.5506 46.4111C86.4949 46.3551 86.4311 46.304 86.3591 46.2578C86.2903 46.2117 86.2134 46.1737 86.1282 46.1441C86.0431 46.1144 85.9531 46.0996 85.8581 46.0996C85.7271 46.0996 85.606 46.1243 85.4947 46.1737C85.3834 46.2232 85.2868 46.2908 85.2049 46.3765C85.1231 46.4622 85.0592 46.5628 85.0134 46.6781C84.9675 46.7935 84.9446 46.9172 84.9446 47.049C84.9446 47.1809 84.9675 47.3045 85.0134 47.4199C85.0592 47.5353 85.1231 47.6358 85.2049 47.7216C85.2868 47.8073 85.3834 47.8749 85.4947 47.9243C85.606 47.9738 85.7271 47.9985 85.8581 47.9985C85.9531 47.9985 86.0431 47.9853 86.1282 47.9589C86.2134 47.9292 86.2903 47.893 86.3591 47.8501C86.4311 47.804 86.4949 47.7529 86.5506 47.6968C86.6095 47.6375 86.657 47.5798 86.693 47.5238V46.5743Z" fill="#F36F21"/>
<path d="M87.6851 45.8128H88.0387V46.1342C88.1369 46.0155 88.2597 45.9248 88.4071 45.8622C88.5544 45.7963 88.6968 45.7633 88.8343 45.7633C89.1552 45.7633 89.4073 45.8507 89.5907 46.0254C89.7773 46.2001 89.8706 46.4737 89.8706 46.8463V48.2853H89.5121V46.9155C89.5121 46.632 89.4515 46.4292 89.3304 46.3073C89.2092 46.182 89.0357 46.1193 88.8098 46.1193C88.7312 46.1193 88.6526 46.1342 88.574 46.1639C88.4955 46.1902 88.4218 46.2265 88.353 46.2726C88.2843 46.3155 88.2221 46.3633 88.1664 46.4161C88.1107 46.4688 88.0682 46.5215 88.0387 46.5743V48.2853H87.6851V45.8128Z" fill="#F36F21"/>
<path d="M92.6504 47.6424C92.5554 47.8501 92.413 48.0183 92.2231 48.1468C92.0332 48.2721 91.8138 48.3347 91.565 48.3347C91.3882 48.3347 91.2212 48.3018 91.064 48.2358C90.9101 48.1666 90.7759 48.0743 90.6613 47.9589C90.5467 47.8435 90.455 47.7084 90.3863 47.5534C90.3208 47.3952 90.288 47.227 90.288 47.049C90.288 46.871 90.3208 46.7045 90.3863 46.5496C90.455 46.3913 90.5467 46.2545 90.6613 46.1391C90.7759 46.0237 90.9101 45.9331 91.064 45.8671C91.2212 45.7979 91.3882 45.7633 91.565 45.7633C91.8138 45.7633 92.0332 45.8276 92.2231 45.9562C92.413 46.0814 92.5554 46.2479 92.6504 46.4556H92.2231C92.1478 46.3468 92.0561 46.2628 91.9481 46.2034C91.8433 46.1441 91.7156 46.1144 91.565 46.1144C91.434 46.1144 91.3129 46.1391 91.2015 46.1886C91.0902 46.2347 90.9936 46.3007 90.9118 46.3864C90.8332 46.4688 90.771 46.5677 90.7252 46.6831C90.6793 46.7952 90.6564 46.9172 90.6564 47.049C90.6564 47.1809 90.6793 47.3045 90.7252 47.4199C90.771 47.532 90.8332 47.6309 90.9118 47.7166C90.9936 47.799 91.0902 47.865 91.2015 47.9144C91.3129 47.9606 91.434 47.9836 91.565 47.9836C91.7156 47.9836 91.8449 47.954 91.953 47.8946C92.0643 47.8353 92.1576 47.7512 92.2329 47.6424H92.6504Z" fill="#F36F21"/>
<path d="M95.3319 47.6424C95.2795 47.7446 95.2124 47.8386 95.1305 47.9243C95.0487 48.01 94.957 48.0842 94.8555 48.1468C94.7573 48.2062 94.6492 48.2523 94.5314 48.2853C94.4168 48.3183 94.2973 48.3347 94.1729 48.3347C93.9961 48.3347 93.8307 48.3018 93.6768 48.2358C93.5262 48.1666 93.3952 48.0743 93.2839 47.9589C93.1726 47.8435 93.0842 47.7084 93.0187 47.5534C92.9565 47.3952 92.9254 47.227 92.9254 47.049C92.9254 46.871 92.9565 46.7045 93.0187 46.5496C93.0842 46.3913 93.1726 46.2545 93.2839 46.1391C93.3952 46.0237 93.5262 45.9331 93.6768 45.8671C93.8307 45.7979 93.9961 45.7633 94.1729 45.7633C94.3628 45.7633 94.5363 45.7979 94.6935 45.8671C94.8506 45.9364 94.9848 46.0336 95.0962 46.1589C95.2075 46.2842 95.2943 46.4375 95.3565 46.6188C95.4187 46.7968 95.4498 46.9963 95.4498 47.2172H93.3036C93.3232 47.3292 93.3576 47.4331 93.4067 47.5287C93.4558 47.621 93.5164 47.7018 93.5884 47.771C93.6637 47.8402 93.7505 47.8946 93.8487 47.9342C93.9469 47.9738 94.055 47.9935 94.1729 47.9935C94.3235 47.9935 94.4626 47.9622 94.5903 47.8996C94.7213 47.8369 94.8293 47.7512 94.9145 47.6424H95.3319ZM95.0569 46.8809C95.0471 46.7721 95.016 46.6699 94.9636 46.5743C94.9145 46.4787 94.8506 46.3963 94.772 46.327C94.6935 46.2578 94.6018 46.2034 94.497 46.1639C94.3955 46.1243 94.2875 46.1045 94.1729 46.1045C94.055 46.1045 93.9469 46.1243 93.8487 46.1639C93.7505 46.2034 93.6637 46.2578 93.5884 46.327C93.5164 46.3963 93.4558 46.4787 93.4067 46.5743C93.3576 46.6699 93.3232 46.7721 93.3036 46.8809H95.0569Z" fill="#F36F21"/>
<path d="M16.0101 53.3744H28.5147C29.7246 53.3744 30.6986 53.7328 31.4366 54.4496C32.1747 55.1523 32.5437 56.0869 32.5437 57.2535V57.633C32.5437 58.7292 32.0718 59.6287 31.1281 60.3315C31.7451 60.6688 32.2291 61.1326 32.58 61.7229C32.9309 62.2991 33.1063 62.9527 33.1063 63.6835V64.0419C33.1063 65.2647 32.7252 66.2555 31.9629 67.0145C31.2128 67.7594 30.2146 68.1318 28.9684 68.1318H16.0101V53.3744ZM28.5147 62.2499H19.5673V64.4846H28.5147C28.8413 64.4846 29.0954 64.4003 29.2769 64.2317C29.4584 64.063 29.5491 63.8311 29.5491 63.536V63.1776C29.5491 62.5591 29.2043 62.2499 28.5147 62.2499ZM28.0428 57.0216H19.5673V59.172H28.0428C28.6719 59.172 28.9865 58.8768 28.9865 58.2865V57.886C28.9865 57.3097 28.6719 57.0216 28.0428 57.0216Z" fill="#00529C"/>
<path d="M35.1753 68.1318V53.3744H47.4983C48.7566 53.3744 49.7851 53.8312 50.5836 54.7447C51.3942 55.6583 51.7996 56.8178 51.7996 58.2233V58.6238C51.7996 59.7201 51.5092 60.6828 50.9284 61.5121C50.3477 62.3413 49.5794 62.9175 48.6235 63.2408L52.0174 68.1318H47.9883L44.8667 63.4727H38.7324V68.1318H35.1753ZM47.0446 57.0216H38.7324V59.952H47.0627C47.4257 59.952 47.71 59.8396 47.9157 59.6147C48.1335 59.3758 48.2424 59.0595 48.2424 58.666V58.3076C48.2424 57.9141 48.1335 57.6049 47.9157 57.38C47.6979 57.1411 47.4076 57.0216 47.0446 57.0216Z" fill="#00529C"/>
<path d="M57.4075 53.3744V68.1318H53.8504V53.3744H57.4075Z" fill="#00529C"/>
<path d="M72.9248 68.1318L63.687 58.2443V68.1318H60.1299V53.3744H63.8685L73.1063 63.2619V53.3744H76.6634V68.1318H72.9248Z" fill="#00529C"/>
<path d="M92.1625 68.1318H79.3858V64.4846H92.0355C92.1565 64.4846 92.2533 64.4425 92.3259 64.3582C92.4106 64.2738 92.4529 64.1614 92.4529 64.0208V62.9667C92.4529 62.8262 92.4106 62.7138 92.3259 62.6294C92.2533 62.5451 92.1565 62.5029 92.0355 62.5029H82.6707C81.4487 62.5029 80.4989 62.1656 79.8213 61.491C79.1559 60.8164 78.8231 59.8677 78.8231 58.6449V57.2535C78.8231 56.0307 79.1619 55.082 79.8395 54.4074C80.517 53.7187 81.4608 53.3744 82.6707 53.3744H94.9937V57.0216H82.7977C82.6767 57.0216 82.5739 57.0638 82.4892 57.1481C82.4166 57.2324 82.3803 57.3448 82.3803 57.4854V58.5184C82.3803 58.659 82.4166 58.7714 82.4892 58.8557C82.5739 58.9401 82.6767 58.9822 82.7977 58.9822H92.1625C93.3724 58.9822 94.3162 59.3266 94.9937 60.0152C95.6713 60.6899 96.0101 61.6315 96.0101 62.8402V64.2949C96.0101 65.5036 95.6713 66.4453 94.9937 67.1199C94.3162 67.7945 93.3724 68.1318 92.1625 68.1318Z" fill="#00529C"/>
<path d="M56.2859 49.6554H58.2346V51.7432H56.2859V49.6554Z" fill="#F36F21"/>
<path d="M55.7735 52.3289H58.2498V54.8956H55.7735V52.3289Z" fill="#F36F21"/>
<path d="M53.8462 50.3383H55.6661V52.223H53.8462V50.3383Z" fill="#F36F21"/>
</g>
<rect x="1" y="1" width="110" height="110" rx="9" stroke="black" stroke-opacity="0.1" stroke-width="2"/>
<defs>
<clipPath id="clip0_768_350">
<rect x="2" y="2" width="108" height="108" rx="8" fill="white"/>
</clipPath>
</defs>
</svg>
