<svg width="112" height="112" viewBox="0 0 112 112" fill="none" xmlns="http://www.w3.org/2000/svg">
<g clip-path="url(#clip0_768_347)">
<rect x="1.99988" y="2" width="108" height="108" rx="8" fill="white"/>
<path d="M83.7372 56.8131H92.43V58.8823H83.7372V56.8131ZM83.7372 53.4169H92.43V55.4299H83.7372V53.4169ZM91.7778 60.288C93.3184 60.288 94.0269 59.647 94.0269 58.5449V57.5778C94.0269 57.2741 93.9257 57.1279 93.7008 56.9368L92.7112 56.0821L93.7008 55.2274C93.9257 55.0363 94.0269 54.9013 94.0269 54.5864V53.7318C94.0269 52.6297 93.3184 51.9887 91.7778 51.9887H82.1741V60.2655H91.7778V60.288ZM66.9475 56.8131H75.6404V58.8823H66.9475V56.8131ZM66.9475 53.4169H75.6404V55.4299H66.9475V53.4169ZM74.9881 60.288C76.5288 60.288 77.2372 59.647 77.2372 58.5449V57.5778C77.2372 57.2741 77.136 57.1279 76.9111 56.9368L75.9215 56.0821L76.9111 55.2274C77.136 55.0363 77.2372 54.9013 77.2372 54.5864V53.7318C77.2372 52.6297 76.5288 51.9887 74.9881 51.9887H65.3844V60.2655H74.9881V60.288ZM58.4459 52.0112V58.8148H50.2253V52.0112H48.6622V58.3987C48.6622 59.5682 49.3707 60.288 50.7764 60.288H57.8836C59.2893 60.288 59.9978 59.5682 59.9978 58.3987V52.0112H58.4459ZM33.3907 55.3961V52.0112H31.8275V60.288H33.3907V56.8468H41.7237V60.288H43.2868V52.0112H41.7237V55.3961H33.3907ZM27.2843 53.4844V52.0112H18.1192C16.7135 52.0112 16.005 52.7309 16.005 53.9005V58.3874C16.005 59.557 16.7135 60.2767 18.1192 60.2767H27.2843V58.8148H17.6019V53.4844H27.2843ZM95.8037 53.1245C95.68 53.2482 95.5226 53.3157 95.3426 53.3157C95.1627 53.3157 95.0053 53.2482 94.8816 53.1245C94.7579 53.0008 94.6904 52.8434 94.6904 52.6522C94.6904 52.4723 94.7579 52.3148 94.8816 52.1911C95.0053 52.0674 95.1627 52 95.3426 52C95.5226 52 95.68 52.0674 95.8037 52.1911C95.9274 52.3148 95.9949 52.4723 95.9949 52.6522C95.9949 52.8434 95.9274 52.9896 95.8037 53.1245ZM94.9378 52.2586C94.8253 52.3711 94.7691 52.506 94.7691 52.6634C94.7691 52.8209 94.8253 52.9558 94.9378 53.0683C95.0503 53.1807 95.1852 53.237 95.3426 53.237C95.5001 53.237 95.635 53.1807 95.7475 53.0683C95.8599 52.9558 95.9162 52.8209 95.9162 52.6634C95.9162 52.506 95.8599 52.3711 95.7475 52.2586C95.635 52.1461 95.5001 52.0899 95.3426 52.0899C95.1852 52.0899 95.0503 52.1461 94.9378 52.2586ZM95.3202 52.2923C95.4101 52.2923 95.4776 52.3036 95.5226 52.3148C95.6013 52.3486 95.635 52.4048 95.635 52.4948C95.635 52.5622 95.6125 52.6072 95.5676 52.641C95.5451 52.6522 95.5113 52.6634 95.4663 52.6747C95.5226 52.6859 95.5676 52.7084 95.59 52.7422C95.6125 52.7759 95.635 52.8209 95.635 52.8546V52.9671C95.635 52.9896 95.635 53.0008 95.6463 53.0008V53.0121H95.5113V52.9221C95.5113 52.8434 95.4888 52.7871 95.4439 52.7534C95.4214 52.7422 95.3651 52.7309 95.2977 52.7309H95.1965V53.0121H95.0727V52.2923H95.3202ZM95.4663 52.4048C95.4326 52.3823 95.3876 52.3823 95.3089 52.3823H95.1965V52.641H95.3089C95.3651 52.641 95.3989 52.641 95.4326 52.6297C95.4776 52.6072 95.5113 52.5735 95.5113 52.5173C95.5113 52.461 95.5001 52.4273 95.4663 52.4048Z" fill="#FF0198"/>
</g>
<rect x="1" y="1" width="110" height="110" rx="9" stroke="black" stroke-opacity="0.1" stroke-width="2"/>
<defs>
<clipPath id="clip0_768_347">
<rect x="2" y="2" width="108" height="108" rx="8" fill="white"/>
</clipPath>
</defs>
</svg>
