<svg width="112" height="112" viewBox="0 0 112 112" fill="none" xmlns="http://www.w3.org/2000/svg">
<g clip-path="url(#clip0_768_351)">
<rect x="1.99988" y="2" width="108" height="108" rx="8" fill="white"/>
<path d="M20.6068 56.3326C20.2809 56.9836 19.5956 57.4727 18.5711 57.4727C16.9768 57.4727 16 56.4146 16 54.9211C16 53.5311 16.8143 52.3433 18.4629 52.3433C20.0773 52.3433 20.8036 53.3134 20.8372 54.2768H19.1818C19.0461 53.7682 18.7276 53.6661 18.5032 53.6661C18.2117 53.6661 17.7165 53.8697 17.7165 54.8942C17.7165 55.9187 18.2117 56.1223 18.5032 56.1223C18.6799 56.1223 18.9238 56.0477 19.0938 55.7629C19.1482 55.6742 19.2093 55.5385 19.2228 55.4236H20.8372C20.8372 55.7353 20.7357 56.088 20.6068 56.3326Z" fill="#231F20"/>
<path d="M22.9651 54.7176C22.5445 54.7176 22.5035 55.3014 22.5035 55.6071C22.5035 55.9121 22.5512 56.4892 22.9651 56.4892C23.3789 56.4892 23.4266 55.9054 23.4266 55.6071C23.4266 55.3014 23.3789 54.7176 22.9651 54.7176ZM22.9449 57.4721C21.7369 57.4721 20.9435 56.7465 20.9435 55.5594C20.9435 54.3581 21.7846 53.6729 22.9449 53.6729C24.1119 53.6729 24.9799 54.379 24.9799 55.5863C24.9799 56.8009 24.1052 57.4721 22.9449 57.4721Z" fill="#231F20"/>
<path d="M34.0687 57.3162V55.3961C34.0687 55.0635 33.9605 54.9285 33.7227 54.9285C33.4855 54.9285 33.329 55.1448 33.329 55.4237V57.3162H31.8167V55.4035C31.8167 55.0703 31.7079 54.9419 31.47 54.9419C31.2262 54.9419 31.0703 55.1522 31.0703 55.4304V57.3162H29.5842V55.4035C29.5842 55.0703 29.4754 54.9419 29.2382 54.9419C28.9937 54.9419 28.8378 55.1522 28.8378 55.4304V57.3162H27.3517V55.4035C27.3517 55.0703 27.2435 54.9419 27.0057 54.9419C26.7618 54.9419 26.606 55.1522 26.606 55.4304V57.3162H25.1199V53.8764H26.4703L26.5038 54.1821C26.7282 53.904 27.1078 53.7004 27.5828 53.7004C28.0578 53.7004 28.5395 53.9308 28.7021 54.2291C28.8855 53.9443 29.3464 53.7071 29.8355 53.7071C30.3978 53.7071 30.772 53.992 30.948 54.2493C31.1106 53.992 31.558 53.7071 32.033 53.7071C32.6303 53.7071 32.9494 53.951 33.1731 54.2493C33.5191 53.7884 33.9739 53.7071 34.2521 53.7071C35.3102 53.7071 35.5608 54.3924 35.5608 55.1589V57.3162H34.0687Z" fill="#231F20"/>
<path d="M37.7231 54.7176C37.3026 54.7176 37.2623 55.3014 37.2623 55.6071C37.2623 55.9121 37.3093 56.4892 37.7231 56.4892C38.137 56.4892 38.1847 55.9054 38.1847 55.6071C38.1847 55.3014 38.137 54.7176 37.7231 54.7176ZM37.7023 57.4721C36.495 57.4721 35.7016 56.7465 35.7016 55.5594C35.7016 54.3581 36.5427 53.6729 37.7023 53.6729C38.87 53.6729 39.738 54.379 39.738 55.5863C39.738 56.8009 38.8632 57.4721 37.7023 57.4721Z" fill="#231F20"/>
<path d="M42.1438 57.3097V55.4037C42.1438 55.0705 42.0013 54.9415 41.7642 54.9415C41.5196 54.9415 41.3638 55.1525 41.3638 55.4299V57.3097H39.8777V53.8767H41.2482L41.2617 54.2227C41.5472 53.8767 41.9335 53.7006 42.3406 53.7006C42.8358 53.7006 43.65 53.9855 43.65 54.867V57.3097H42.1438Z" fill="#231F20"/>
<path d="M48.5931 57.3097L47.0392 57.3023C47.0392 57.3023 46.8363 56.699 46.7543 56.3195C46.6193 55.8579 46.6052 55.6611 46.6052 55.6611C46.6052 55.6611 46.5985 55.8579 46.4701 56.3195C46.3956 56.6722 46.1846 57.3097 46.1846 57.3097H44.6179L43.5866 53.8767H45.2011C45.2011 53.8767 45.3845 54.4672 45.4523 54.7991C45.5544 55.1794 45.5746 55.4037 45.5746 55.4037C45.5746 55.4037 45.5947 55.1861 45.7036 54.7991C45.7782 54.4464 45.9609 53.8767 45.9609 53.8767H47.318C47.318 53.8767 47.5014 54.4464 47.576 54.7991C47.6909 55.2062 47.7043 55.4037 47.7043 55.4037C47.7043 55.4037 47.7184 55.2129 47.834 54.7991C47.9011 54.4733 48.0839 53.8767 48.0839 53.8767H49.6244L48.5931 57.3097Z" fill="#231F20"/>
<path d="M51.4608 54.548C51.1685 54.548 50.9724 54.7791 50.9448 55.0707H51.9559C51.9291 54.7926 51.7322 54.548 51.4608 54.548ZM50.9247 55.8306C50.9314 56.1766 51.0805 56.4748 51.4809 56.4748C51.6711 56.4748 51.9082 56.3801 51.9761 56.1698H53.401C53.3735 56.3197 53.2922 56.4957 53.2176 56.6106C52.838 57.1809 52.1118 57.4651 51.4205 57.4651C50.1514 57.4651 49.3915 56.7127 49.3573 55.6337C49.3304 54.6777 49.8867 53.6733 51.311 53.6733C52.6271 53.6733 53.4279 54.4808 53.4279 55.8306H50.9247Z" fill="#231F20"/>
<path d="M55.8337 55.7898C55.8337 55.7898 55.6375 55.851 55.4541 55.9054C55.3385 55.939 55.047 55.9934 55.047 56.2245C55.047 56.3401 55.1417 56.4818 55.3459 56.4751C55.7322 56.4617 55.8337 56.2379 55.8337 55.8987V55.7898ZM56.0238 57.3095L55.9835 57.0045C55.7322 57.2625 55.2096 57.4654 54.8165 57.4654C54.5653 57.4654 53.9949 57.4183 53.6966 57.0179C53.4594 56.6928 53.4326 56.1627 53.6422 55.8234C53.927 55.3693 54.5854 55.2 55.2364 55.1187C55.4743 55.0911 55.8068 55.0165 55.8068 54.8063C55.8068 54.643 55.7181 54.5006 55.5011 54.5006C55.2848 54.5006 55.0947 54.684 55.0947 54.9151H53.6832L53.6899 54.8741C53.839 54.0531 54.4363 53.6393 55.4541 53.6393C57.1706 53.6393 57.3742 54.2365 57.3809 55.2678L57.3944 56.2312C57.4011 56.8889 57.4353 57.0381 57.5025 57.3095H56.0238Z" fill="#231F20"/>
<path d="M57.7109 52.4655H59.1964V57.3094H57.7109V52.4655Z" fill="#231F20"/>
<path d="M61.032 57.425C60.0485 57.425 59.7838 56.95 59.7838 56.0343V54.8263H59.3296V53.8763H59.7838V52.4655H61.2699V53.8763H61.853V54.8263H61.2699V55.7629C61.2699 56.0954 61.378 56.3057 61.7106 56.3057C61.765 56.3057 61.8329 56.299 61.9007 56.2855C61.9343 56.2781 61.9343 56.2714 61.9343 56.2714V57.2416C61.6562 57.3705 61.3377 57.425 61.032 57.425Z" fill="#231F20"/>
<path d="M65.9081 57.3097H64.422V55.4098C64.422 55.0772 64.2729 54.9415 64.0351 54.9415C63.7979 54.9415 63.6414 55.1592 63.6414 55.4373V57.3097H62.0948V52.4658H63.5339V54.2227C63.7576 53.9445 64.1849 53.7006 64.6055 53.7006C65.1073 53.7006 65.9081 53.9855 65.9081 54.867V57.3097Z" fill="#231F20"/>
<path d="M89.2302 62.5052L96.0002 55.7512L94.3025 54.073L92.1929 56.1826L89.2302 62.5052Z" fill="#231F20"/>
<path d="M89.2302 49.0001L82.4783 55.752L89.2302 62.5052L92.1929 56.1826L94.3025 54.073L89.2302 49.0001Z" fill="#FBC01D"/>
<path d="M68.1468 52.5286V57.2933H71.2701V56.9063H68.6002V52.5286H68.1468Z" fill="#231F20"/>
<path fill-rule="evenodd" clip-rule="evenodd" d="M71.6568 57.2933H72.0767V53.8494H71.6568V57.2933ZM71.6568 53.2025H72.0767V52.5286H71.6568V53.2025Z" fill="#231F20"/>
<path d="M74.2127 54.2036V53.8502H73.5321V53.5499C73.5321 53.4565 73.5341 53.3692 73.5388 53.2893C73.5429 53.2093 73.559 53.1401 73.5858 53.0823C73.6167 53.0205 73.6631 52.9715 73.7256 52.9359C73.7881 52.9003 73.8768 52.8821 73.9923 52.8821C74.0414 52.8821 74.0904 52.8868 74.1394 52.8956C74.1885 52.9003 74.2416 52.907 74.2993 52.9157V52.5556C74.2328 52.5462 74.173 52.5395 74.1193 52.5355C74.0662 52.5308 74.0084 52.5287 73.9459 52.5287C73.7766 52.5287 73.6362 52.5529 73.5254 52.602C73.4186 52.651 73.3339 52.7195 73.2721 52.8089C73.2096 52.8976 73.1673 53.0044 73.1451 53.1294C73.123 53.2536 73.1115 53.3894 73.1115 53.5365V53.8502H72.5244V54.2036H73.1115V57.2934H73.5321V54.2036H74.2127Z" fill="#231F20"/>
<path fill-rule="evenodd" clip-rule="evenodd" d="M74.86 55.6851H77.5097C77.5184 55.4446 77.4963 55.2095 77.4425 54.9777C77.3894 54.7419 77.3001 54.535 77.1758 54.3569C77.0555 54.1749 76.8977 54.0277 76.7022 53.9169C76.506 53.8053 76.2702 53.7496 75.9947 53.7496C75.7233 53.7496 75.4875 53.8033 75.2873 53.9101C75.0911 54.0123 74.9312 54.15 74.8069 54.324C74.682 54.4926 74.5886 54.6861 74.5261 54.9045C74.4683 55.1221 74.4394 55.3445 74.4394 55.5716C74.4394 55.8161 74.4683 56.0499 74.5261 56.2723C74.5886 56.4907 74.682 56.6841 74.8069 56.8528C74.9312 57.0174 75.0911 57.1491 75.2873 57.2465C75.4875 57.3399 75.7233 57.3869 75.9947 57.3869C76.4307 57.3869 76.7666 57.2801 77.0025 57.0664C77.2423 56.8528 77.4069 56.5504 77.4963 56.1588H77.0757C77.0092 56.4262 76.8889 56.6398 76.7156 56.7997C76.5416 56.9596 76.3017 57.0402 75.9947 57.0402C75.7945 57.0402 75.6232 56.9979 75.4808 56.9132C75.3383 56.8286 75.2201 56.7218 75.1274 56.5928C75.0333 56.4638 74.9648 56.3193 74.9198 56.1588C74.8801 55.9942 74.86 55.8363 74.86 55.6851ZM77.0891 55.3317H74.86C74.8781 55.1759 74.9137 55.0247 74.9668 54.8776C75.0246 54.7264 75.1005 54.5954 75.1939 54.4839C75.2873 54.3683 75.4008 54.277 75.5338 54.2105C75.6675 54.1392 75.8214 54.1036 75.9947 54.1036C76.1633 54.1036 76.3145 54.1392 76.4482 54.2105C76.5819 54.277 76.6954 54.3683 76.7888 54.4839C76.8822 54.5954 76.9534 54.7244 77.0025 54.8709C77.0555 55.018 77.0844 55.1712 77.0891 55.3317Z" fill="#231F20"/>
</g>
<rect x="1" y="1" width="110" height="110" rx="9" stroke="black" stroke-opacity="0.1" stroke-width="2"/>
<defs>
<clipPath id="clip0_768_351">
<rect x="2" y="2" width="108" height="108" rx="8" fill="white"/>
</clipPath>
</defs>
</svg>
