<svg width="112" height="112" viewBox="0 0 112 112" fill="none" xmlns="http://www.w3.org/2000/svg">
<g clip-path="url(#clip0_768_353)">
<rect x="2.99988" y="2" width="108" height="108" rx="8" fill="white"/>
<path fill-rule="evenodd" clip-rule="evenodd" d="M81.9513 54.9271C82.1382 55.116 82.2427 55.3638 82.2427 55.6281C82.2427 55.8904 82.1382 56.1416 81.9513 56.3301L76.9855 61.1777C76.7883 61.3661 76.5279 61.468 76.2664 61.468C76.1359 61.468 76.0035 61.4463 75.8764 61.3917C75.4987 61.2381 75.2524 60.8777 75.2524 60.4772V50.7805C75.2524 50.3775 75.4987 50.0181 75.8764 49.8616C76.2576 49.7094 76.6937 49.7954 76.9855 50.0775L81.9513 54.9271Z" fill="#EE7623"/>
<path fill-rule="evenodd" clip-rule="evenodd" d="M50.9404 44.3277C50.6932 44.9599 50.4188 45.8782 50.1009 47.089L49.8494 48.0415L46.7691 60.306L43.1797 44.6168C42.8735 43.1179 42.0443 42.1924 39.9874 42.1924H18.0465C17.0384 42.1924 17.0028 43.2709 17 43.2795V68.7056C17 68.7056 17.0173 69.2448 17.5333 69.2448H19.5719C21.0351 69.2448 22.907 68.29 22.907 65.6557V57.9101H30.5913C33.5195 57.9101 34.2345 55.7933 34.2345 54.5882V54.1404C34.2345 53.7143 34.0898 53.4542 33.5813 53.4542H22.907V47.0383H37.9985L42.5528 64.7885C42.6923 65.3192 43.4897 68.1269 43.4897 68.1269C43.7954 69.1126 43.7627 69.2553 44.5919 69.2553H46.4357C48.7042 69.2553 49.4861 67.8407 49.886 66.8432C50.0868 66.3025 50.2306 66.066 50.555 64.8472L54.5709 49.5466L58.8167 64.7709C58.9548 65.3012 59.6955 68.1203 59.6955 68.1203C60.0017 69.1027 59.9708 69.2543 60.7991 69.2543H62.642C64.9105 69.2543 65.6952 67.8384 66.096 66.8347C66.2926 66.2945 66.4907 65.7779 66.8166 64.56L70.9912 47.0544H83.92C85.031 47.0544 85.9253 47.152 86.7311 47.3994C87.7748 47.716 88.7018 48.5069 89.4753 49.7456C90.2235 50.9587 90.6524 53.0831 90.6707 55.7222C90.6697 58.6986 89.79 61.3391 88.1578 62.7664C87.794 63.0995 87.3665 63.3559 86.8608 63.5445C86.3453 63.7383 85.8457 63.8596 85.3724 63.9066C84.8639 63.962 84.1887 64.0658 83.3038 64.0724H83.2907L80.4716 64.0776H76.4206C76.4131 64.0734 76.4047 64.0734 76.4004 64.0734C75.5249 64.0734 75.4949 64.588 75.4949 64.8079V65.8727C75.4949 67.4218 76.7596 69.2012 79.2964 69.2012L84.3058 69.1998C85.5578 69.1856 86.681 69.0932 87.6886 68.9193C88.7018 68.7416 89.6547 68.4473 90.541 68.0194C91.4287 67.5976 92.2481 67.0394 92.9944 66.3489C93.9355 65.4552 94.7053 64.4435 95.3055 63.3142C95.8988 62.1816 96.3361 60.9225 96.6114 59.5345C96.8689 58.2257 97 57.2926 97 55.7397V55.708C96.956 50.6772 95.4863 47.1023 92.559 44.6044C91.4371 43.6245 90.1725 42.9539 88.7833 42.6023C87.4882 42.2734 85.9637 42.1114 84.2192 42.1114H68.5579C67.6973 42.1199 66.4097 42.5701 65.9148 44.6168L62.5156 60.2056L58.9033 47.9818V47.9908L58.6622 47.089C58.3138 45.7868 58.0319 44.8513 57.8236 44.2869C57.6143 43.7226 57.243 43.1994 56.7003 42.7175C56.1647 42.2384 55.4067 42 54.4337 42C53.4678 42 52.7116 42.2284 52.1516 42.6881C51.5893 43.1482 51.1881 43.6927 50.9404 44.3277Z" fill="#183028"/>
</g>
<rect x="1" y="1" width="110" height="110" rx="9" stroke="black" stroke-opacity="0.1" stroke-width="2"/>
<defs>
<clipPath id="clip0_768_353">
<rect x="2" y="2" width="108" height="108" rx="8" fill="white"/>
</clipPath>
</defs>
</svg>
