<svg width="112" height="112" viewBox="0 0 112 112" fill="none" xmlns="http://www.w3.org/2000/svg">
<g clip-path="url(#clip0_768_346)">
<rect x="1.99988" y="2" width="108" height="108" rx="8" fill="white"/>
<path d="M31.223 55.8068V50.089C34.6884 50.089 35.9507 49.9158 36.5448 54.2969H36.9161V49.4207H27.5102V50.089H29.1438V62.6633H27.3369V63.3316H37.0398V58.1831H36.5448C36.0745 62.0692 35.1091 62.6633 32.4359 62.6633H31.1983V56.5494H31.9161C33.1042 56.5742 33.7973 57.292 34.0448 59.4454H34.4903V53.1336C34.4903 53.1583 34.0695 53.1336 34.0695 53.1336C34.0695 53.1583 33.9953 55.8563 31.8913 55.8068H31.223Z" fill="#A7A9AC"/>
<path d="M27.3864 56.0544H22.0646V56.6732H23.8716V61.2029C23.5745 62.3415 21.9409 62.8365 21.4458 62.8365C18.0548 62.8365 18.3023 57.688 18.3023 56.3266C18.3023 55.0643 18.1785 49.792 21.4458 49.792C23.7478 49.792 24.9607 52.1682 25.4557 54.2969H25.827C25.827 53.4059 25.8518 49.2227 25.827 49.2475C25.827 49.2227 24.2429 50.4356 24.2429 50.4108C24.2676 50.4108 23.525 49.297 21.4458 49.297C17.4359 49.297 15.9756 53.4306 16.0003 56.3266C16.0251 58.9751 17.1884 63.4801 21.4458 63.4801C22.7825 63.4801 23.7231 62.7623 24.2429 61.9702C24.2429 61.9454 25.926 63.3563 25.9508 63.3563V56.6732H27.3864V56.0544Z" fill="#A7A9AC"/>
<path d="M73.7476 58.3068L75.6783 52.292L77.7327 58.3068H73.7476ZM66.2476 55.9059H64.0694V50.089H66.8417C68.4754 50.3366 68.5496 52.292 68.5496 52.9356C68.5496 54.4207 67.9308 55.9059 66.2476 55.9059ZM89.4159 58.1831C88.9456 62.0692 87.9802 62.6633 85.307 62.6633H85.1585V50.089H86.8416V49.396H81.2723V50.0643H82.9803V62.6385H81.6436L76.6931 48.9999H75.9753C76.0001 48.9999 71.8664 61.3761 71.8417 61.4009C71.8417 61.3761 71.5199 62.4652 70.8516 62.589C70.2328 62.6137 70.2823 62.292 70.2823 62.1682V59.792C70.2823 59.1732 70.2328 57.7375 69.614 57.094C68.9209 56.3514 67.708 56.3019 67.7328 56.2771C67.7328 56.2771 70.7773 55.6336 70.7773 52.6138C70.7773 50.5098 69.3664 49.4702 67.015 49.3712H60.3318V50.0395H62.0397V62.6137H60.3318V63.3316H65.8269V62.6633H64.1189V56.6237H66.3962C70.3565 56.9702 65.7031 63.3563 70.9011 63.3316H74.1684V62.6633C73.9951 62.6633 72.7823 62.688 72.708 61.8217C72.6585 61.2029 73.5001 58.9504 73.5001 58.9504H77.9555C77.9555 58.9504 79.3417 62.6633 79.3664 62.6633H77.7575V63.3316H89.8862V58.1831H89.4159Z" fill="#A7A9AC"/>
<path d="M53.6734 50.089C57.1388 50.089 58.4011 49.9158 58.9952 54.3217H59.3665V49.4207H45.6537V50.089H46.0002C46.4952 50.089 47.6339 50.1385 47.7081 51.1781V59.1979L41.2972 49.4207H37.8072V50.089H38.4012C39.0943 50.089 40.0596 50.1138 40.1091 51.1781V61.4504C40.1091 62.4652 38.6487 62.8365 38.0547 62.8365V63.3316H42.7824V62.8365C42.1883 62.8365 40.7279 62.4652 40.7279 61.4504L40.7527 52.391C43.2279 56.1534 48.0299 63.3316 48.0794 63.3316H48.3269V51.1534C48.4012 50.1138 49.5398 50.0643 50.0348 50.0643H51.619V62.6385H49.7873V63.3316H59.4902V58.1831H58.9952C58.5249 62.0692 57.5596 62.6633 54.8863 62.6633H53.6487V56.5494H54.3665C55.5546 56.5742 56.2477 57.292 56.4952 59.4454H56.9407V53.1336C56.9407 53.1583 56.52 53.1336 56.52 53.1336C56.52 53.1583 56.4209 55.8563 54.3417 55.8068H53.6734V50.089Z" fill="#A7A9AC"/>
<path d="M90.5297 49.396V50.089H92.2376V62.6385H90.5297V63.3316H96V62.6385H94.2673V50.089H96V49.396H90.5297Z" fill="#A7A9AC"/>
<path d="M31.223 55.8068V50.089C34.6884 50.089 35.9507 49.9158 36.5448 54.2969H36.9161V49.4207H27.5102V50.089H29.1438V62.6633H27.3369V63.3316H37.0398V58.1831H36.5448C36.0745 62.0692 35.1091 62.6633 32.4359 62.6633H31.1983V56.5494H31.9161C33.1042 56.5742 33.7973 57.292 34.0448 59.4454H34.4903V53.1336C34.4903 53.1583 34.0695 53.1336 34.0695 53.1336C34.0695 53.1583 33.9953 55.8563 31.8913 55.8068H31.223Z" fill="#C5281C"/>
<path d="M27.3864 56.0544H22.0646V56.6732H23.8716V61.2029C23.5745 62.3415 21.9409 62.8365 21.4458 62.8365C18.0548 62.8365 18.3023 57.688 18.3023 56.3266C18.3023 55.0643 18.1785 49.792 21.4458 49.792C23.7478 49.792 24.9607 52.1682 25.4557 54.2969H25.827C25.827 53.4059 25.8518 49.2227 25.827 49.2475C25.827 49.2227 24.2429 50.4356 24.2429 50.4108C24.2676 50.4108 23.525 49.297 21.4458 49.297C17.4359 49.297 15.9756 53.4306 16.0003 56.3266C16.0251 58.9751 17.1884 63.4801 21.4458 63.4801C22.7825 63.4801 23.7231 62.7623 24.2429 61.9702C24.2429 61.9454 25.926 63.3563 25.9508 63.3563V56.6732H27.3864V56.0544Z" fill="#C5281C"/>
<path d="M73.7476 58.3068L75.6783 52.292L77.7327 58.3068H73.7476ZM66.2476 55.9059H64.0694V50.089H66.8417C68.4754 50.3366 68.5496 52.292 68.5496 52.9356C68.5496 54.4207 67.9308 55.9059 66.2476 55.9059ZM89.4159 58.1831C88.9456 62.0692 87.9802 62.6633 85.307 62.6633H85.1585V50.089H86.8416V49.396H81.2723V50.0643H82.9803V62.6385H81.6436L76.6931 48.9999H75.9753C76.0001 48.9999 71.8664 61.3761 71.8417 61.4009C71.8417 61.3761 71.5199 62.4652 70.8516 62.589C70.2328 62.6137 70.2823 62.292 70.2823 62.1682V59.792C70.2823 59.1732 70.2328 57.7375 69.614 57.094C68.9209 56.3514 67.708 56.3019 67.7328 56.2771C67.7328 56.2771 70.7773 55.6336 70.7773 52.6138C70.7773 50.5098 69.3664 49.4702 67.015 49.3712H60.3318V50.0395H62.0397V62.6137H60.3318V63.3316H65.8269V62.6633H64.1189V56.6237H66.3962C70.3565 56.9702 65.7031 63.3563 70.9011 63.3316H74.1684V62.6633C73.9951 62.6633 72.7823 62.688 72.708 61.8217C72.6585 61.2029 73.5001 58.9504 73.5001 58.9504H77.9555C77.9555 58.9504 79.3417 62.6633 79.3664 62.6633H77.7575V63.3316H89.8862V58.1831H89.4159Z" fill="#C5281C"/>
<path d="M53.6734 50.089C57.1388 50.089 58.4011 49.9158 58.9952 54.3217H59.3665V49.4207H45.6537V50.089H46.0002C46.4952 50.089 47.6339 50.1385 47.7081 51.1781V59.1979L41.2972 49.4207H37.8072V50.089H38.4012C39.0943 50.089 40.0596 50.1138 40.1091 51.1781V61.4504C40.1091 62.4652 38.6487 62.8365 38.0547 62.8365V63.3316H42.7824V62.8365C42.1883 62.8365 40.7279 62.4652 40.7279 61.4504L40.7527 52.391C43.2279 56.1534 48.0299 63.3316 48.0794 63.3316H48.3269V51.1534C48.4012 50.1138 49.5398 50.0643 50.0348 50.0643H51.619V62.6385H49.7873V63.3316H59.4902V58.1831H58.9952C58.5249 62.0692 57.5596 62.6633 54.8863 62.6633H53.6487V56.5494H54.3665C55.5546 56.5742 56.2477 57.292 56.4952 59.4454H56.9407V53.1336C56.9407 53.1583 56.52 53.1336 56.52 53.1336C56.52 53.1583 56.4209 55.8563 54.3417 55.8068H53.6734V50.089Z" fill="#C5281C"/>
<path d="M90.5297 49.396V50.089H92.2376V62.6385H90.5297V63.3316H96V62.6385H94.2673V50.089H96V49.396H90.5297Z" fill="#C5281C"/>
</g>
<rect x="1" y="1" width="110" height="110" rx="9" stroke="black" stroke-opacity="0.1" stroke-width="2"/>
<defs>
<clipPath id="clip0_768_346">
<rect x="2" y="2" width="108" height="108" rx="8" fill="white"/>
</clipPath>
</defs>
</svg>
