<svg width="112" height="112" viewBox="0 0 112 112" fill="none" xmlns="http://www.w3.org/2000/svg">
<g clip-path="url(#clip0_505_127)">
<rect x="1.99988" y="2" width="108" height="108" rx="8" fill="white"/>
<path d="M16.0818 53.0252C16.0818 51.866 16.0546 50.8977 16 50.0249H18.1821L18.2912 51.5114H18.3457C18.8367 50.7204 19.7504 49.793 21.4415 49.793C22.7644 49.793 23.8009 50.5431 24.2237 51.6478H24.2646C24.6192 51.0886 25.0283 50.6795 25.5056 50.3931C26.0648 49.9976 26.7058 49.793 27.5377 49.793C29.2151 49.793 30.9062 50.925 30.9062 54.1571V60.0896H28.4241V54.539C28.4241 52.8615 27.8513 51.866 26.6239 51.866C25.7511 51.866 25.1101 52.4933 24.851 53.2161C24.7828 53.4616 24.7283 53.7753 24.7283 54.0617V60.0896H22.2462V54.2662C22.2462 52.8615 21.687 51.866 20.5141 51.866C19.5595 51.866 18.9321 52.6161 18.7003 53.3116C18.5912 53.5571 18.5503 53.8571 18.5503 54.1435V60.0896H16.0682V53.0252H16.0818Z" fill="#1B3D6D"/>
<path d="M40.5619 57.6757C40.5619 58.5894 40.6028 59.4759 40.7119 60.0896H38.4207L38.2571 58.9713H38.1889C37.5752 59.7623 36.5251 60.3078 35.2158 60.3078C33.1974 60.3078 32.0518 58.8486 32.0518 57.3075C32.0518 54.7708 34.3021 53.4889 38.0252 53.5025V53.3389C38.0252 52.6842 37.7525 51.5796 35.9795 51.5796C34.984 51.5796 33.9611 51.8932 33.2792 52.316L32.7883 50.6658C33.5247 50.2158 34.834 49.7794 36.4296 49.7794C39.6481 49.7794 40.5755 51.825 40.5755 54.0071V57.6348L40.5619 57.6757ZM38.0798 55.18C36.2796 55.139 34.5748 55.5345 34.5748 57.062C34.5748 58.0576 35.2158 58.5076 36.0205 58.5076C37.0297 58.5076 37.7798 57.853 37.998 57.1165C38.0525 56.9256 38.0798 56.721 38.0798 56.5574V55.18Z" fill="#1B3D6D"/>
<path d="M42.3212 53.0252C42.3212 51.866 42.2939 50.8977 42.2394 50.0249H44.476L44.5987 51.525H44.6669C45.1033 50.7477 46.1944 49.793 47.8718 49.793C49.6311 49.793 51.445 50.925 51.445 54.1026V60.076H48.9083V54.389C48.9083 52.9434 48.3764 51.8523 46.9854 51.8523C45.9762 51.8523 45.267 52.5751 45.0079 53.3389C44.9261 53.5707 44.9124 53.8844 44.9124 54.1708V60.076H42.3485V53.0116L42.3212 53.0252Z" fill="#1B3D6D"/>
<path d="M62.4371 45.988V57.2529C62.4371 58.2893 62.478 59.4077 62.5189 60.0759H60.2414L60.1459 58.4939H60.105C59.5049 59.6122 58.2911 60.3078 56.8183 60.3078C54.418 60.3078 52.5223 58.2621 52.5223 55.1663C52.5087 51.7977 54.6089 49.7929 57.0228 49.7929C58.4003 49.7929 59.3958 50.3657 59.8459 51.1158H59.8868V45.9743H62.4234L62.4371 45.988ZM59.9004 54.2253C59.9004 54.0207 59.8731 53.7752 59.8322 53.5706C59.6004 52.5751 58.7958 51.7704 57.6365 51.7704C56 51.7704 55.0999 53.2161 55.0999 55.0981C55.0999 56.9801 56 58.2757 57.6229 58.2757C58.6594 58.2757 59.5595 57.5665 59.8186 56.4755C59.8731 56.2437 59.9004 55.9982 59.9004 55.7254V54.2116V54.2253Z" fill="#1B3D6D"/>
<path d="M66.8012 50.0247H64.2372V60.0759H66.8012V50.0247Z" fill="#1B3D6D"/>
<path d="M68.5877 53.2706C68.5877 51.9068 68.5605 50.9385 68.5059 50.0248H70.7153L70.7971 51.9477H70.8789C71.3699 50.5294 72.5564 50.0248 73.6201 50.0248C73.8656 50.0248 74.0156 49.9839 74.2202 50.0248V52.2614C74.0156 52.2205 73.7838 52.1796 73.4838 52.1796C72.27 52.1796 71.4381 52.9569 71.2062 54.1025C71.1653 54.3344 71.1244 54.5935 71.1244 54.8935V60.0895H68.5877V53.2706Z" fill="#1B3D6D"/>
<path d="M77.9706 50.0247H75.4067V60.0759H77.9706V50.0247Z" fill="#1B3D6D"/>
<path d="M93.8998 39.3872C92.6314 37.9416 91.2813 38.5962 90.2175 39.1281C89.7675 39.3463 88.1309 40.4374 86.5217 41.2011C85.3761 41.7466 83.7122 41.5829 82.8121 40.4646C82.7576 40.3964 81.2847 38.6235 81.1347 38.4053C80.18 37.2052 77.7661 36.2233 74.8885 37.8734C73.3474 38.7599 69.7061 40.8465 68.356 41.6239C67.5241 42.0466 65.6148 42.2239 64.5237 40.7647C64.5101 40.7374 63.0781 38.9645 63.0236 38.8963C62.9826 38.8417 62.0689 37.4779 60.0096 37.437C59.7095 37.437 58.2094 37.4234 56.7365 38.2553C54.7863 39.3736 50.2448 41.9648 50.2448 41.9648C48.3764 43.0286 46.9308 43.8741 46.9308 43.8741L48.6492 45.988C49.4538 46.9835 51.2677 47.7609 52.836 46.8608C52.836 46.8608 58.6458 43.4922 58.6594 43.4922C61.1688 42.1148 63.1054 42.1148 64.401 42.6331C65.5602 43.124 66.5558 44.3378 66.5558 44.3378C66.5558 44.3378 67.865 45.9607 68.0968 46.2471C68.8469 47.1608 70.0743 46.8063 70.0743 46.8063C70.0743 46.8063 70.538 46.7517 71.2199 46.3426C71.2199 46.3426 76.8387 43.0831 76.8524 43.0831C78.639 42.033 80.2755 41.8421 81.1074 41.9103C83.7259 42.1557 84.5442 43.9832 85.6761 45.2652C86.3444 46.0153 86.9444 46.438 87.8718 46.4244C88.4719 46.4108 89.1674 46.0425 89.2629 45.9743L96 42.0875C96 42.0875 95.3045 41.0511 93.8861 39.4282" fill="#FBB800"/>
<path d="M16.9956 65.2174H16.1091V74.3139H16.9956V65.2174Z" fill="#E6710A"/>
<path d="M19.505 67.3996C19.505 66.5677 19.464 65.9403 19.4231 65.2175H20.255L20.3232 66.8677H20.3641C20.8551 65.8449 22.0007 65.0129 23.4872 65.0129C24.36 65.0129 26.6512 65.4494 26.6512 68.8588V74.3276H25.7648V68.9407C25.7648 67.2905 25.1238 65.7903 23.2417 65.7903C21.9461 65.7903 20.8687 66.704 20.5142 67.8769C20.4323 68.1087 20.3778 68.4088 20.3778 68.6952V74.3276H19.4913V67.3996H19.505Z" fill="#E6710A"/>
<path d="M29.1061 60.867H29.9925V66.854H30.0335C30.3062 66.3358 30.7426 65.8448 31.2881 65.5311C31.8064 65.2038 32.4337 65.0129 33.1293 65.0129C33.9748 65.0129 36.2796 65.4493 36.2796 68.8315V74.3276H35.3932V68.9406C35.3932 67.2904 34.7522 65.7902 32.8838 65.7902C31.5882 65.7902 30.5108 66.7176 30.1426 67.8496C30.0471 68.1087 30.0062 68.3814 30.0062 68.736V74.3139H29.1197V60.8533L29.1061 60.867Z" fill="#1B3D6D"/>
<path d="M38.8299 69.6771C38.8299 72.5956 40.4255 73.7412 42.2939 73.7412C43.6168 73.7412 44.2987 73.4684 44.8169 73.2229L45.0488 73.9458C44.7078 74.1367 43.7804 74.5322 42.1848 74.5322C39.5663 74.5322 37.9434 72.6229 37.9434 69.9499C37.9434 66.9222 39.6891 65.0129 42.0348 65.0129C45.0079 65.0129 45.5806 67.8223 45.5806 69.1316C45.5806 69.3771 45.5806 69.5271 45.5397 69.6771H38.8299ZM44.626 68.9543C44.6396 67.686 44.1214 65.7494 41.912 65.7494C39.9073 65.7494 39.0344 67.5496 38.8844 68.9543H44.626Z" fill="#1B3D6D"/>
<path d="M52.9724 72.1592C52.9724 72.882 53.0133 73.6184 53.1087 74.314H52.2905L52.1541 73.0047H52.0995C51.6631 73.7139 50.6539 74.5185 49.1947 74.5185C47.3808 74.5185 46.5216 73.2229 46.5216 72.0092C46.5216 69.9089 48.3764 68.6406 52.0723 68.6679V68.436C52.0723 67.5223 51.895 65.7221 49.7402 65.7494C48.9492 65.7494 48.1036 65.9539 47.4626 66.4313L47.1762 65.763C47.9945 65.2175 49.0174 64.9856 49.8356 64.9856C52.4678 64.9856 52.9587 66.9631 52.9587 68.586V72.1319L52.9724 72.1592ZM52.0859 69.4452C50.0948 69.3907 47.4763 69.6907 47.4763 71.8728C47.4763 73.182 48.3491 73.7684 49.2901 73.7684C50.8039 73.7684 51.6631 72.8411 51.9768 71.941C52.0313 71.75 52.0723 71.5591 52.0723 71.3954V69.4452H52.0859Z" fill="#1B3D6D"/>
<path d="M56.2591 60.867H55.3726V74.3276H56.2591V60.867Z" fill="#1B3D6D"/>
<path d="M60.0641 63.2126V65.2174H62.6553V65.9402H60.0641V71.8591C60.0641 73.0183 60.4186 73.7547 61.3869 73.7547C61.8643 73.7547 62.2052 73.6865 62.4234 73.6047L62.5325 74.3003C62.2325 74.4366 61.8097 74.5321 61.2642 74.5321C60.5959 74.5321 60.0504 74.3002 59.7095 73.8638C59.2867 73.3865 59.1367 72.6364 59.1367 71.7091V65.9402H57.5956V65.2174H59.1367V63.5536L60.0504 63.2126H60.0641Z" fill="#1B3D6D"/>
<path d="M64.1146 60.867H65.001V66.854H65.0419C65.3147 66.3358 65.7375 65.8448 66.2966 65.5311C66.8149 65.2038 67.4422 65.0129 68.1377 65.0129C68.9969 65.0129 71.2881 65.4493 71.2881 68.8315V74.3276H70.4016V68.9406C70.4016 67.2904 69.7606 65.7902 67.8923 65.7902C66.5966 65.7902 65.5193 66.7176 65.1374 67.8496C65.0419 68.1087 65.001 68.3814 65.001 68.736V74.3139H64.1146V60.8533V60.867Z" fill="#1B3D6D"/>
</g>
<rect x="1" y="1" width="110" height="110" rx="9" stroke="black" stroke-opacity="0.1" stroke-width="2"/>
<defs>
<clipPath id="clip0_505_127">
<rect x="2" y="2" width="108" height="108" rx="8" fill="white"/>
</clipPath>
</defs>
</svg>
