<svg width="112" height="112" viewBox="0 0 112 112" fill="none" xmlns="http://www.w3.org/2000/svg">
<g clip-path="url(#clip0_505_121)">
<rect x="1.99988" y="2" width="108" height="108" rx="8" fill="white"/>
<g clip-path="url(#clip1_505_121)">
<path d="M58.9299 57.9895L57.7735 58.1272C56.7676 58.2518 55.8864 58.6094 55.8864 59.4629C55.8864 60.0688 56.4092 60.4826 57.0844 60.4826C57.8834 60.4826 58.5438 59.9589 58.9576 59.4352V57.9896L58.9299 57.9895ZM58.9438 61.6667V60.7993C58.5309 61.2815 57.8696 61.8459 56.6983 61.8459C55.3488 61.8459 54.233 60.9914 54.233 59.532C54.233 57.7549 55.8993 57.1083 57.525 56.9291L58.1587 56.8597C58.7785 56.8042 58.9983 56.4607 58.9983 56.0478C58.9983 55.538 58.5171 55.1666 57.7873 55.1666C56.9468 55.1666 56.134 55.7716 55.831 56.2538L54.8667 55.1112C55.4588 54.339 56.5062 53.8024 57.8696 53.8024C59.6319 53.8024 60.6517 54.7113 60.6517 56.2261V61.6666L58.9438 61.6667Z" fill="black"/>
<path d="M63.8593 61.6671H62.1653V53.9821H63.8593V54.8494C64.4652 54.298 65.3741 53.802 66.3662 53.802C67.2751 53.802 68.5137 54.3267 68.5137 56.1989V61.6671H66.8206V56.6395C66.8206 55.8821 66.5038 55.2346 65.7187 55.2346C65.0712 55.2346 64.2454 55.7851 63.8593 56.1444V61.6671Z" fill="black"/>
<path d="M74.4756 53.9818H76.1696V61.6668H74.4202V60.841C73.9519 61.2816 73.1944 61.846 72.2024 61.846C71.2113 61.846 69.8341 61.3223 69.8341 59.3946V53.9818H71.5281V58.8431C71.5281 59.7391 71.9142 60.3589 72.7123 60.3589C73.3736 60.3589 73.9934 59.9312 74.4756 59.3946V53.9818Z" fill="black"/>
<path d="M79.7343 61.6671H78.0403V51.5575L79.7343 49.8773V61.6671Z" fill="black"/>
<path d="M83.3695 61.667H81.6062V53.982H83.3695V61.667ZM82.4883 50.5247C83.0665 50.5247 83.5616 51.0068 83.5616 51.5989C83.5616 52.191 83.0665 52.687 82.4883 52.687C81.8953 52.687 81.3993 52.191 81.3993 51.5989C81.3993 51.0068 81.8953 50.5247 82.4883 50.5247Z" fill="black"/>
<path d="M88.7398 55.3865H87.1279V61.6675H85.4348V55.3865H84.4012V53.9816H85.4348V52.3974C85.4348 51.1302 86.2468 49.9875 87.8447 49.9875C88.5883 49.9875 89.2081 50.1936 89.5794 50.3866L89.0427 51.7093C88.8081 51.5716 88.4507 51.434 88.1061 51.434C87.5685 51.434 87.1279 51.8331 87.1279 52.4944V53.9816H89.1388L88.7398 55.3865Z" fill="black"/>
<path d="M94.2203 56.984C94.2203 56.0483 93.6282 55.1662 92.5956 55.1662C91.6045 55.1662 90.8323 56.1028 90.8046 56.984H94.2203ZM90.7501 58.279C90.7639 59.5186 91.659 60.3998 92.7193 60.3998C93.5183 60.3998 94.3441 59.8631 94.7025 59.2156L95.7629 60.2067C95.1431 61.1156 93.9451 61.8453 92.554 61.8453C90.364 61.8453 89.0006 60.1929 89.0006 57.8236C89.0006 55.5384 90.4739 53.8029 92.6085 53.8029C94.6471 53.8029 96.0797 55.1385 95.9965 58.279H90.7501Z" fill="black"/>
<path d="M44.5125 61.6672H42.667V50.9996H44.664L47.8045 56.248H47.8322L50.9579 50.9996H52.9143V61.6672H51.054V54.1124H51.0272L47.7897 59.4845L44.5402 54.1124H44.5125L44.5125 61.6672Z" fill="black"/>
<path d="M26.6667 51.667V63.6674L29.3334 60.9999V49.0004L26.6667 51.667Z" fill="#00AC5B"/>
<path d="M21.3336 63.6671L24.0003 61.0004V49L21.3336 51.6667V63.6671Z" fill="#00AC5B"/>
<path d="M16 63.6671L18.6667 61.0004V49L16 51.6667V63.6671Z" fill="#00AC5B"/>
</g>
</g>
<rect x="1" y="1" width="110" height="110" rx="9" stroke="black" stroke-opacity="0.1" stroke-width="2"/>
<defs>
<clipPath id="clip0_505_121">
<rect x="2" y="2" width="108" height="108" rx="8" fill="white"/>
</clipPath>
<clipPath id="clip1_505_121">
<rect width="80" height="14.6674" fill="white" transform="translate(16 49)"/>
</clipPath>
</defs>
</svg>
