<svg width="112" height="112" viewBox="0 0 112 112" fill="none" xmlns="http://www.w3.org/2000/svg">
<g clip-path="url(#clip0_768_354)">
<rect x="1.99988" y="2" width="108" height="108" rx="8" fill="white"/>
<path d="M47.4072 24.499C48.1325 24.499 47.9654 25.5941 49.5089 25.5941C50.3927 25.5941 50.4969 25.1614 51.5378 25.1614C54.5389 25.1614 55.6369 28.7751 57.7186 28.7751C58.6695 28.7751 58.7595 28.1426 59.7603 28.1426C60.1373 28.1426 60.8312 28.3583 61.1053 28.6453C61.3837 28.9165 61.9763 29.4191 63.474 33.4983C63.6425 33.9452 63.4026 34.1251 63.1742 34.1251C62.9486 34.1251 62.4803 33.9138 61.4323 32.8158C60.8369 32.1933 60.3414 32.4817 57.7415 30.8526C56.5178 30.093 55.3413 28.9865 54.0349 28.4968C52.7185 28.0142 50.5269 27.8228 49.6945 27.6229C48.6079 27.3702 46.8732 26.5407 46.8732 25.28C46.8732 24.8631 47.1188 24.499 47.4072 24.499Z" fill="#68737A"/>
<path d="M62.2063 24C62.8102 24 63.2928 24.9452 63.9282 25.5748C65.4159 26.9998 67.7246 26.0803 69.4737 27.8322C69.9206 28.2862 70.2789 29.3599 70.2789 30.3907C70.2789 31.4287 70.0505 32.4882 69.5179 32.4882C68.2772 32.4882 69.081 30.4778 66.5738 28.9858C64.0595 27.488 63.6426 27.4195 62.6118 26.3787C61.5709 25.335 61.5238 24.9323 61.5238 24.6525C61.5238 24.3769 61.7194 24 62.2063 24Z" fill="#68737A"/>
<path d="M73.5561 28.7062C74.1701 28.7062 73.9916 29.5658 74.6869 30.134C75.368 30.7051 75.8163 30.5195 76.7729 31.4704C77.2013 31.8959 77.3112 32.1814 77.3112 32.2999C77.3112 32.4199 77.0742 33.9148 75.5265 33.9148C75.1924 33.9148 74.9268 33.8462 74.6869 33.3422C74.3114 32.5984 74.4799 31.5589 73.6875 30.6351C73.0036 29.837 72.9136 29.7642 72.9136 29.3002C72.9136 28.8447 73.3405 28.7062 73.5561 28.7062Z" fill="#68737A"/>
<path d="M76.0244 36.4324C77.9762 36.9821 78.9257 37.7745 78.9257 38.9624C78.9257 40.1746 78.4502 40.2446 78.0448 40.8314C77.7378 41.2626 77.4308 41.8865 77.4694 43.7312C77.4694 44.111 77.3523 44.3137 77.0739 44.3137C76.8069 44.3137 76.657 44.1667 76.657 43.8997C76.657 43.7183 76.7726 43.5941 76.7726 43.4327C76.7726 43.2771 76.8254 42.3962 76.2186 41.8722C74.4553 40.2745 65.753 39.198 60.2161 39.198C53.4984 39.198 48.1327 40.6215 46.6236 40.6215C43.8922 40.6215 42.6244 39.2666 42.6244 38.25C42.6244 37.2377 43.2183 37.0535 43.2183 36.5709C43.2183 36.084 43.0598 36.0111 43.0598 35.5985C43.0598 35.1816 43.3882 34.3521 43.7223 34.3521C44.2178 34.3521 44.1778 34.9089 44.6532 35.7399C45.2672 36.7764 46.5393 38.1471 48.9437 38.1471C51.084 38.1471 52.8944 37.3333 56.0569 36.6108C59.9291 35.7256 62.9902 35.3016 66.04 35.3016C67.4363 35.3016 72.6677 35.3644 76.0244 36.4324Z" fill="#ED1C2E"/>
<path d="M76.657 47.3405C77.0739 47.3405 77.328 47.4433 77.328 47.7231C77.328 47.9987 76.8926 47.9987 76.6384 48.0515C76.3871 48.0901 74.7166 48.3971 73.9913 49.5664C73.8728 49.7549 73.9728 49.9333 74.1227 50.0033C74.2926 50.0747 76.1801 51.0085 76.1801 51.7167C76.1801 52.3977 74.7238 53.0745 74.2926 53.0745C73.8443 53.0745 73.6858 52.5477 73.6858 52.4506C73.6858 52.2592 74.1013 52.035 74.1013 51.8423C74.1013 51.6695 73.7515 51.4069 73.5558 51.4069C73.3374 51.4069 73.2503 51.5068 73.1304 51.9894C73.0233 52.4791 72.5864 54.4108 72.4864 55.5988C72.3951 56.8052 72.0253 59.8493 72.0253 60.2305C72.0253 60.6331 71.9624 61.7082 71.1001 62.3136C70.2477 62.9033 69.4924 63.3302 69.4924 63.3302C69.4924 63.3302 69.1726 63.54 69.0598 63.54C68.9427 63.54 68.6643 63.2545 68.3259 62.9761C67.9718 62.7091 67.6063 62.682 67.3736 62.682C66.9281 62.682 66.0586 63.3745 65.4146 63.3745C64.7736 63.3745 63.4514 62.662 63.4514 62.2551C63.4514 62.1252 63.7113 62.0067 63.7798 62.0067C64.0597 62.0067 64.5637 62.365 65.1891 62.365C65.8016 62.365 66.357 61.8082 67.1665 61.8082C67.6334 61.8082 68.6971 62.0452 69.5367 62.0452C70.3876 62.0452 70.716 61.8282 70.8531 61.5812C70.9916 61.3256 71.27 60.9972 71.27 60.0249C71.27 59.0654 70.646 55.8086 70.646 53.8354C70.646 51.8423 71.0115 50.1233 72.0096 49.131C73.0033 48.1372 75.1235 47.3405 76.657 47.3405Z" fill="#68737A"/>
<path d="M77.8834 53.0122C78.1147 53.0122 78.3703 53.3192 78.3703 54.1259C78.3703 54.9411 77.7949 60.371 76.3357 64.1346C74.8837 67.8897 74.4782 67.9197 73.1989 70.08C71.9339 72.2459 70.943 74.5345 69.5638 75.9124C69.0326 76.4392 68.2488 77.0831 66.3555 77.0831C64.4751 77.0831 61.7681 76.6805 58.7269 75.4484C55.6857 74.2319 52.6645 72.4243 50.8456 70.6124C50.5786 70.3369 50.7271 70.0799 51.1897 70.3369C51.658 70.5853 54.1237 72.5028 58.8368 73.9292C62.2835 74.9729 63.2273 74.98 64.6707 74.98C66.06 74.98 67.5449 75.2313 69.291 73.4951C71.0301 71.7532 72.4864 68.812 73.1118 67.6783C73.7386 66.5518 74.9736 64.5729 76.1501 60.9064C77.3309 57.2413 77.5393 55.2138 77.6607 53.6261C77.675 53.2849 77.6978 53.0122 77.8834 53.0122Z" fill="#68737A"/>
<path d="M66.089 64.9253C66.7743 64.9253 67.3168 65.879 68.0493 65.879C68.7803 65.879 68.9916 65.0667 69.4385 65.0667C69.864 65.0667 69.9811 66.0075 70.1396 66.3217C70.2981 66.6629 70.3952 66.8286 70.3952 66.9171C70.3952 67.0113 70.2281 67.1355 70.0511 67.1355C69.8826 67.1355 69.5371 66.8286 68.7532 66.8286C68.1792 66.8286 67.7238 67.204 67.6838 67.2954C67.6552 67.3839 67.5339 67.3582 67.4254 67.2897C67.1855 67.1169 66.6843 66.3188 65.8505 66.3188C65.4051 66.3188 64.8297 66.6087 64.2072 66.967C63.5932 67.3583 63.1263 67.5067 62.5809 67.5067C62.104 67.5067 61.4615 67.3154 61.4615 66.9871C61.4615 66.8 61.7185 66.6815 61.927 66.6815C62.411 66.6815 62.8793 66.7914 63.9573 66.1775C64.6912 65.7406 65.4921 64.9253 66.089 64.9253Z" fill="#68737A"/>
<path d="M63.979 68.1677C64.3459 68.1677 64.9399 68.8916 66.7517 68.8916C68.5051 68.8916 68.9805 68.0763 69.3546 68.0763C69.5787 68.0763 69.6244 68.3148 69.6244 68.4061C69.6244 68.4918 68.9434 70.7419 67.0973 70.7419C66.0264 70.7419 64.8713 69.8211 64.453 69.4042C64.0404 68.9887 63.7405 68.5803 63.7405 68.4061C63.7405 68.2234 63.8876 68.1677 63.979 68.1677Z" fill="#68737A"/>
<path d="M60.8313 49.0391C62.0906 49.0391 64.8719 49.3189 64.8719 50.0514C64.8719 50.4569 63.6226 50.0771 62.6632 50.0771C61.6908 50.0771 61.6023 50.13 61.6023 50.2C61.6023 50.2713 61.6223 50.3185 61.6994 50.3884C61.7894 50.457 62.4247 51.1494 62.4247 51.3379C62.4247 52.0832 60.4944 52.8428 60.036 52.8428C59.7905 52.8428 59.2722 52.5686 59.2722 52.2402C59.2722 52.0032 60.2859 51.7548 60.2859 51.5164C60.2859 51.2665 59.7005 50.7739 59.1665 50.7739C58.6282 50.7739 56.9934 51.9204 56.7778 51.9204C56.5523 51.9204 56.5023 51.7733 56.5023 51.5977C56.5023 51.4292 56.6494 51.1208 56.6494 50.9637C56.6494 50.4369 56.2938 50.4955 56.2938 50.0771C56.2938 49.8516 56.5808 49.466 58.1956 49.249C59.8105 49.0277 60.2045 49.0391 60.8313 49.0391Z" fill="#68737A"/>
<path d="M60.0763 45.5155C61.3741 45.5155 64.1098 45.7253 64.5367 45.8096C64.9707 45.891 65.0592 46.0866 65.0592 46.208C65.0592 46.4193 64.9208 46.4464 64.4167 46.4464C63.4844 46.4464 61.1243 46.4521 58.7285 47.1888C54.9663 48.3525 54.4323 49.4562 53.804 49.4562C53.617 49.4562 53.3215 49.2206 53.3215 48.9694C53.3215 48.7352 53.6984 48.1583 53.6984 47.7471C53.6984 47.4372 53.39 47.1104 53.39 46.9233C53.39 46.2366 56.5725 45.5155 60.0763 45.5155Z" fill="#68737A"/>
<path d="M93.3086 44.3555C95.2304 44.3555 96 46.2358 96 48.4746C96 48.823 95.8329 49.4069 95.5188 49.4069C95.0719 49.4069 95.6573 48.1576 94.5165 48.1576C94.2381 48.1576 93.7056 48.4603 93.2387 48.9215C92.7632 49.387 89.9519 53.1776 87.9088 59.4698C86.8907 62.6181 86.4324 64.5899 86.4324 66.2747C86.4324 67.3869 86.7594 68.2364 86.7594 68.6262C86.7594 69.3158 86.0284 68.8675 85.9113 68.6633C85.6315 68.1736 85.106 66.7915 85.106 64.9254C85.106 63.0579 85.9113 58.3505 87.3662 53.5846C88.1472 50.9832 90.3931 44.3555 93.3086 44.3555Z" fill="#68737A"/>
<path d="M87.7227 74.7551C87.9568 74.7551 88.1553 74.8737 88.1553 75.015C88.1553 75.2592 87.2187 76.0502 86.8132 76.4885C86.1535 77.181 85.9679 78.3103 85.4154 78.3103C85.2341 78.3103 85.127 78.1033 85.127 77.9434C85.127 77.7834 85.1969 77.6393 85.1969 77.5237C85.1969 76.9711 84.4845 77.111 84.4845 76.677C84.4845 76.3286 85.5053 75.6576 85.9465 75.3792C86.3848 75.1093 87.3358 74.7551 87.7227 74.7551Z" fill="#68737A"/>
<path d="M86.9463 79.2533C87.2461 79.2533 87.4703 79.3503 87.4703 79.476C87.4703 79.7558 86.3509 80.4169 86.1367 80.6339C85.9197 80.8552 84.7489 82.3901 84.569 83.2639C84.382 84.132 84.1064 84.4119 83.8566 84.4119C83.324 84.4119 83.651 83.5409 83.254 83.2639C82.9685 83.054 82.2132 83.151 82.2132 82.5085C82.2132 82.0916 82.9057 81.4191 83.5482 80.8438C84.1935 80.2698 85.5428 79.2533 86.9463 79.2533Z" fill="#68737A"/>
<path d="M82.4018 70.9336C82.6902 70.9336 82.9058 71.0807 83.0443 71.3291C83.1942 71.5733 83.1285 71.7317 83.3727 71.9587C83.6111 72.2086 84.4849 72.3371 84.4849 72.754C84.4849 73.1609 84.0166 73.161 83.7881 73.328C83.5469 73.4951 82.9229 73.7605 82.4418 74.5944C81.9677 75.4282 81.6893 76.5191 81.5979 78.0154C81.4994 79.5074 81.0168 80.9722 80.2544 82.2216C79.452 83.5722 78.2341 84.6189 77.5573 85.7283C76.9962 86.672 77.1904 87.7214 76.605 87.7214C76.0439 87.7214 75.9539 86.1266 75.9539 85.5726C75.9539 85.0144 76.0938 83.1269 77.5573 81.7462C79.1836 80.2199 80.4886 80.1513 80.4886 77.6841C80.4886 76.1407 80.3029 75.6538 80.3029 74.7144C80.3029 73.7606 80.6299 70.9336 82.4018 70.9336Z" fill="#68737A"/>
<path d="M18.3201 36.9823C19.2782 36.9823 18.2159 37.3721 19.7336 38.887C20.4475 39.5994 20.8659 39.9093 22.5378 39.9093C23.5372 39.9093 24.985 39.678 28.6201 38.056C30.0536 37.4107 32.3524 36.7168 34.0172 36.7168C36.1446 36.7168 37.8079 37.7505 38.9887 38.6086C40.1695 39.4824 41.5758 40.6903 42.1983 41.1771C42.8194 41.6626 43.7518 42.218 44.1087 42.3551C44.4571 42.4965 44.5271 42.6906 44.4157 42.979C44.3172 43.2431 43.9031 43.87 43.8046 44.0099C43.6932 44.1455 43.2763 44.3554 43.0379 44.4553C42.7923 44.5653 41.8614 44.9408 40.7135 45.8103C39.5812 46.6755 37.6737 47.7135 35.365 47.7135C33.0363 47.7135 29.4797 46.7727 27.5093 46.7727C26.6869 46.7727 25.4676 47.2267 24.6052 48.0891C24.2783 48.4161 24.0041 49.0386 23.7728 49.2556C23.5487 49.4869 22.8034 49.9609 22.5378 49.9609C22.258 49.9609 21.7739 49.7824 21.7739 49.5168C21.7739 48.99 22.9133 48.7802 22.9133 47.8821C22.9133 46.9826 22.6349 46.9482 22.6349 46.5342C22.6349 46.1173 22.9704 45.3777 23.4944 44.8451C24.6281 43.7186 27.5479 43.0391 30.1721 43.0391C32.074 43.0391 35.7719 43.87 38.2962 43.87C39.3656 43.87 40.198 43.7086 40.682 43.493C41.3574 43.1889 41.2046 42.8234 40.8976 42.8234C40.6235 42.8234 40.6535 42.9576 39.9296 42.9576C39.2757 42.9576 37.7308 42.5835 36.4144 41.7097C35.1066 40.8316 33.0049 39.6409 30.9831 39.6409C28.9457 39.6409 27.4993 40.3547 26.8768 40.6031C25.3791 41.1771 21.8939 43.1775 20.032 43.1775C18.1674 43.1775 16 42.258 16 40.6703C16 39.0755 17.5734 39.1983 17.5734 38.2502C17.5734 38.0846 17.4963 37.9775 17.4963 37.7876C17.4963 37.602 17.6848 36.9823 18.3201 36.9823Z" fill="#ED1C2E"/>
<path d="M41.2395 50.5574C41.6435 50.5574 41.6021 51.0014 41.8634 51.2913C42.119 51.5982 42.2275 51.2185 42.5944 51.6168C42.9728 52.0123 42.7857 52.2222 43.0399 52.4507C43.2855 52.6863 43.6952 52.6577 43.7038 52.8647C43.7723 53.7171 43.3783 55.0721 43.3783 57.1481C43.3783 58.6115 43.6324 60.2863 44.1407 61.7598C44.3449 62.3737 43.9037 62.4837 43.6867 62.0568C42.1789 59.2426 40.8211 55.1192 40.8211 51.8938C40.8211 51.1285 40.9396 50.5574 41.2395 50.5574Z" fill="#68737A"/>
<path d="M39.2947 53.6389C39.4831 53.6389 39.5816 53.7674 39.5816 53.9844C39.5816 54.2114 38.9191 56.3802 37.9283 57.6681C36.9474 58.9474 35.394 60.6335 34.8286 60.6335C34.5701 60.6335 34.5701 60.3295 34.523 60.2267C34.463 60.1196 34.2746 59.8782 34.6529 59.5698C35.037 59.26 35.087 59.0886 35.087 58.8873C35.087 58.6803 34.9185 58.402 34.9185 58.2192C34.9185 58.0465 35.0656 57.6395 35.3097 57.4924C35.5496 57.3582 37.0559 56.5987 37.8969 55.5792C38.7421 54.5584 38.9963 53.6389 39.2947 53.6389Z" fill="#68737A"/>
<path d="M40.8127 65.1858C40.8127 64.9102 40.8212 64.6589 40.8212 64.4019C40.8212 60.8838 40.0574 58.6394 39.5819 58.6394C38.8695 58.6394 38.087 62.0946 37.7701 63.9193C36.6407 63.5709 35.8426 63.5123 35.2129 63.5123C33.4525 63.5123 33.1155 63.8879 33.1155 64.3462C33.1155 64.7902 33.501 65.4642 33.9408 65.8911C35.0087 66.9662 36.2481 66.9391 37.4146 66.9862C37.2275 69.1778 37.0191 71.9934 37.0191 72.98C37.0191 73.2998 37.0305 73.8124 37.0462 74.4292C35.8426 75.0617 33.8479 76.1596 33.1855 76.825C32.2131 77.7958 32.1061 78.3512 32.1061 79.0023C32.1061 81.3767 34.2149 81.2711 34.2149 82.9073C34.2149 83.5299 33.8008 84.1824 34.3234 84.1824C34.9473 84.1824 35.4628 82.9787 35.4628 82.252C35.4628 81.5295 34.836 80.3103 34.836 79.5607C34.836 78.784 35.0958 77.9444 36.1852 76.8522C36.4422 76.608 36.7521 76.3696 37.1076 76.1597C37.1847 78.2885 37.2832 80.7271 37.3246 81.3125C37.3946 82.2805 37.436 84.5278 37.9186 84.5278C38.4026 84.5278 39.2664 80.1731 39.6733 77.132C39.7704 76.4566 39.8818 75.6171 40.0003 74.6862C40.4571 74.4663 40.8983 74.2193 41.3367 73.9537C43.3884 72.7073 44.7633 71.2467 44.7633 69.5734C44.7633 67.5416 42.8829 66.2195 40.8127 65.1858ZM40.1773 73.0714C40.3658 71.4052 40.5528 69.5847 40.6742 67.8999C41.6808 68.3639 42.4446 68.9665 42.4446 70.2173C42.4446 71.715 40.8012 72.7459 40.1773 73.0714Z" fill="#68737A"/>
</g>
<rect x="1" y="1" width="110" height="110" rx="9" stroke="black" stroke-opacity="0.1" stroke-width="2"/>
<defs>
<clipPath id="clip0_768_354">
<rect x="2" y="2" width="108" height="108" rx="8" fill="white"/>
</clipPath>
</defs>
</svg>
