<svg width="112" height="112" viewBox="0 0 112 112" fill="none" xmlns="http://www.w3.org/2000/svg">
<g clip-path="url(#clip0_505_117)">
<rect x="1.99988" y="2" width="108" height="108" rx="8" fill="white"/>
<g clip-path="url(#clip1_505_117)">
<path d="M76.4274 46.6575H83.0577V41L76.4274 46.6575Z" fill="#009A91"/>
<path d="M83.0326 48.5685H79.3256V64.4702H83.0326V48.5685Z" fill="black"/>
<path d="M76.2195 64.4691V48.5682H72.5126V55.4499C72.5126 57.588 71.443 61.3633 68.7704 61.3633C68.4026 61.3633 67.9692 61.3303 67.7004 61.0617C67.0668 60.4602 67.1346 58.4228 67.1346 57.6548V48.5682H63.4257V59.5933C63.4257 62.3313 64.6952 64.8372 67.7356 64.8372C69.9729 64.8372 71.6103 63.5001 72.4449 61.4966H72.5126V64.4691H76.2195Z" fill="black"/>
<path d="M42.4702 53.3123H36.657C36.8248 51.7096 38.0611 50.5727 39.6635 50.5727C41.3671 50.5727 42.4702 51.609 42.4702 53.3123ZM45.9776 55.5512V54.6489C45.9776 50.7742 43.9733 48.2011 39.9323 48.2011C35.1873 48.2011 33.1162 51.174 33.1162 55.6839C33.1162 60.9295 35.4881 64.8359 41.1335 64.8359C42.6381 64.8359 44.1412 64.6697 45.576 64.2027V61.6298C44.6421 61.9637 43.5385 62.2312 42.5374 62.2312C38.9282 62.2312 36.5579 58.9235 36.5579 55.5512H45.9776Z" fill="black"/>
<path d="M31.4943 58.1558C31.3733 51.2084 20.3738 50.799 20.3026 46.7242C20.2679 44.6868 21.8909 43.857 23.728 43.825C25.8647 43.7874 27.5801 44.4583 29.5302 45.1939L29.5278 41.601C27.6499 41.2653 25.7172 41.0171 23.8124 41.0504C20.0048 41.1163 15.9226 42.6907 16.0011 47.1333C16.1137 53.6798 27.1091 53.7882 27.1962 58.7986C27.2366 61.1367 25.2808 62.0404 23.2095 62.0751C20.7387 62.1184 18.7078 61.1811 16.6478 59.9477V63.9661C18.7618 64.4644 20.9199 64.8882 23.1254 64.8492C27.3329 64.7772 31.5785 62.9986 31.4943 58.1558Z" fill="black"/>
<path d="M95.9961 59.8959C95.8381 55.3551 88.8238 54.5309 88.7496 52.4276C88.7122 51.3595 90.3346 50.9015 91.17 50.8721C92.4382 50.8278 93.6019 51.2709 94.7231 51.7993V48.6975C93.5095 48.4064 92.2431 48.1608 91.0088 48.2038C88.0383 48.3071 85.3489 49.7728 85.4628 53.0772C85.6104 57.2835 92.5092 58.6137 92.5757 60.4833C92.6178 61.752 90.8222 61.9811 89.8865 62.0146C88.4854 62.0635 87.1661 61.7358 85.8771 61.2127V64.3798C87.2611 64.7666 88.7191 64.931 90.155 64.8791C93.2594 64.7708 96.1199 63.4348 95.9961 59.8959Z" fill="black"/>
<path d="M57.2696 56.5194C57.2696 58.3566 57.0345 61.9645 54.4628 61.9645C51.7909 61.9645 51.7234 58.4559 51.7234 56.5194C51.7234 54.6817 51.89 51.074 54.4628 51.074C56.8349 51.074 57.2696 54.7826 57.2696 56.5194ZM60.977 68.4583V48.5681H57.2696V50.7734H57.2026C56.6347 49.3707 54.6966 48.2001 53.2271 48.2001C48.5843 48.2001 47.7815 52.8445 47.7815 56.5194C47.7815 60.0264 48.8176 64.8372 53.2271 64.8372C54.9301 64.8372 56.3678 64.036 57.2026 62.5644H57.2696L57.2739 71.6188L60.977 68.4583Z" fill="#009A91"/>
</g>
</g>
<rect x="1" y="1" width="110" height="110" rx="9" stroke="black" stroke-opacity="0.1" stroke-width="2"/>
<defs>
<clipPath id="clip0_505_117">
<rect x="2" y="2" width="108" height="108" rx="8" fill="white"/>
</clipPath>
<clipPath id="clip1_505_117">
<rect width="80" height="30.6188" fill="white" transform="translate(16 41)"/>
</clipPath>
</defs>
</svg>
