<svg width="112" height="112" viewBox="0 0 112 112" fill="none" xmlns="http://www.w3.org/2000/svg">
<g clip-path="url(#clip0_768_349)">
<rect x="1.99988" y="2" width="108" height="108" rx="8" fill="white"/>
<path d="M46.1648 54.5165C45.9451 53.6374 45.6154 51.989 43.8022 51.989C42.8681 51.989 42.1538 52.6484 42.1538 53.6374C42.1538 56.2198 47.4835 56.055 47.4835 59.6264C47.4835 61.989 45.3956 62.8681 43.3626 62.8681C41.9341 62.8681 40.9451 62.4835 40.3956 62.2088C40.011 61.1648 39.9011 60.3956 39.9011 59.0769L40.6703 58.9121C40.8901 59.9011 41.4396 62.2637 43.5824 62.2637C44.6264 62.2637 45.3407 61.5495 45.3407 60.3956C45.3407 57.5934 40.1758 57.8132 40.1758 54.3517C40.1758 52.2088 41.7692 51.3297 43.9121 51.3297C45.1758 51.3297 45.8901 51.6044 46.5495 51.9341C46.6593 52.7582 46.7143 53.6374 46.7143 54.5165H46.1648Z" fill="#003946"/>
<path d="M54.2418 62.044C53.7473 62.3736 52.978 62.9231 51.7143 62.9231C49.1319 62.9231 49.022 61.4396 49.022 59.5714V57.1539C49.022 56.5495 49.022 55.8352 48.5275 55.8352C48.2527 55.8352 48.0879 55.9451 47.978 55.9451V55.4506C49.2418 55.011 50.1758 54.9011 51 54.8462V59.5165C51 60.8352 51.2747 61.9341 52.8681 61.9341C53.5275 61.9341 53.9121 61.6044 54.1319 61.4945V57.0989C54.1319 56.4945 54.1319 55.7802 53.6374 55.7802C53.3626 55.7802 53.1978 55.8901 53.0879 55.8901V55.3956C54.3516 54.956 55.2857 54.8462 56.1099 54.7912V59.7912C56.1099 61.1648 56.1099 61.8242 56.6593 61.8242C56.7692 61.8242 56.989 61.8242 57.0989 61.8242L57.1538 62.2637C56.3846 62.5385 55.4506 62.7583 54.6264 62.9231L54.2418 62.044Z" fill="#003946"/>
<path d="M58.8022 57.0989C58.8022 56.4945 58.8022 55.7802 58.3077 55.7802C58.033 55.7802 57.8681 55.8901 57.7582 55.8901V55.3956C59.022 54.956 59.9011 54.8462 60.7802 54.7912V55.7802C61.2198 55.3956 61.989 54.7912 63.4176 54.7912C64.9011 54.7912 65.9451 55.5055 65.9451 57.7583V61.055C65.9451 61.9341 66.0549 62.0989 66.6044 62.1539L66.9341 62.2088V62.6484H62.8681V62.1539L63.1978 62.0989C63.8022 62.044 63.8571 61.8791 63.8571 61V58.6374C63.8571 57.3187 63.8571 55.7253 62.0989 55.7253C61.4396 55.7253 61 56.055 60.7253 56.3846V61.055C60.7253 61.9341 60.8352 62.0989 61.3846 62.1539L61.7143 62.2088V62.6484H57.6484V62.1539H58.1429C58.6923 62.0989 58.8022 61.9341 58.8022 61.055V57.0989Z" fill="#003946"/>
<path d="M70.011 62.2088L70.3956 62.1539C71.1648 61.989 71.1648 62.044 71.1648 60.1758V54.022C71.1648 52.3736 71.1648 52.2088 70.3956 52.0989L70.011 52.044V51.6044H74.5714V52.044L74.1868 52.0989C73.4176 52.2088 73.4176 52.4286 73.4176 54.022V61.7692C73.9121 61.8791 74.4615 61.989 74.956 61.989C77.3187 61.989 77.3187 60.8352 77.8132 59.4615L78.4176 59.5714C78.3077 60.6703 78.1978 61.5495 77.8132 62.5934H70.011V62.2088Z" fill="#003946"/>
<path d="M78.7472 62.2088L79.0769 62.1539C79.6813 62.0989 79.7363 61.9341 79.7363 61.055V57.0989C79.7363 56.4945 79.7363 55.7802 79.2418 55.7802C78.967 55.7802 78.8022 55.8901 78.6923 55.8901V55.3956C79.956 54.956 80.8901 54.8462 81.7143 54.7912V61.055C81.7143 61.9341 81.8242 62.0989 82.3736 62.1539L82.7033 62.2088V62.6484H78.6374L78.7472 62.2088ZM79.5165 52.2088C79.5165 51.5495 80.011 51.0549 80.6703 51.0549C81.3297 51.0549 81.8242 51.5495 81.8242 52.2088C81.8242 52.9231 81.2747 53.4176 80.6703 53.4176C80.011 53.3626 79.5165 52.8681 79.5165 52.2088Z" fill="#003946"/>
<path d="M84.5165 55.011C84.5165 52.7033 85.6703 50.3407 88.3077 50.3407C89.1868 50.3407 89.7363 50.6154 90.1209 50.8901C90.011 51.3846 89.8462 51.7143 89.4615 52.1539H89.3517C89.022 51.8242 88.2528 51.1648 87.5934 51.1648C86.6044 51.1648 86.5495 52.5385 86.5495 54.0769V55.011C87.044 55.011 88.0879 55.1209 88.6374 55.1758V55.6154C87.9231 55.7253 87.2637 55.7253 86.5495 55.7802V61.055C86.5495 61.9341 86.6593 62.0989 87.2637 62.1539L87.9231 62.2088V62.6484H83.5275V62.1539L83.8571 62.0989C84.4615 62.044 84.5714 61.8791 84.5714 61L84.5165 55.011Z" fill="#003946"/>
<path d="M95.9451 61.8242C95.5055 62.1539 94.4615 62.8681 92.7582 62.8681C90.7802 62.8681 88.8571 61.6044 88.8571 58.9121C88.8571 56.2747 90.7802 54.7363 92.7033 54.7363C95.3956 54.7363 95.8352 56.4945 96 57.4835C94.5714 58.1429 92.7033 58.6923 90.9451 59.0769C91.1099 60.0659 91.6044 61.8791 93.9121 61.8791C94.7912 61.8791 95.5055 61.4945 95.7253 61.3846L95.9451 61.8242ZM93.967 57.5934C93.8571 56.3846 93.3626 55.3956 92.3187 55.3956C90.8901 55.3956 90.8901 57.978 90.8901 58.3077C91.9341 58.1429 92.978 57.9231 93.967 57.5934Z" fill="#003946"/>
<path d="M26.7692 47.5385C26.7143 47.2637 26.7143 46.9341 26.7692 46.6593C26.7692 46.4945 26.7692 46.3846 26.8242 46.2198C26.8242 46.2198 26.8242 46.1648 26.8242 46.1099C26.8242 46.0549 26.7692 46 26.7143 46.0549C26.3297 46.3297 26 46.7692 25.7253 47.2088C25.5604 47.5934 25.3956 47.978 25.3407 48.4176C25.8901 48.4725 26.3846 48.5824 26.8791 48.7473C26.9341 48.3626 26.8242 47.9231 26.7692 47.5385Z" fill="#EAAB00"/>
<path d="M23.033 48.4725C23.5275 48.4176 23.967 48.3626 24.4615 48.3626C24.4615 48.3077 24.4615 48.2527 24.4066 48.1978C24.3516 47.978 24.2418 47.8132 24.1319 47.6484C24.022 47.3736 23.967 47.1538 23.9121 46.9341C23.8571 46.7692 23.8022 46.6044 23.8022 46.4396C23.8022 46.3297 23.8022 46.2198 23.8022 46.1648V46.0549C23.8022 46 23.7473 46 23.6923 46C23.4725 46.3297 23.2527 46.7143 23.1429 47.0989C23.033 47.4286 22.978 47.7033 22.978 47.978C22.978 48.0879 22.978 48.2527 22.978 48.3626C22.978 48.4176 23.033 48.4176 23.033 48.4725Z" fill="#EAAB00"/>
<path d="M20.7253 49.0769C20.7253 49.0769 20.7253 49.1319 20.7802 49.1319C20.8352 49.1319 20.8901 49.0769 20.8901 49.0769C21.2198 48.9121 21.6044 48.8022 21.9341 48.6923C21.9341 48.6374 21.8791 48.5824 21.8791 48.5824C21.8242 48.4176 21.6593 48.2527 21.5495 48.1429C21.4396 47.978 21.2747 47.8132 21.1648 47.6484C21.1099 47.5385 21 47.3736 20.9451 47.2088C20.8901 47.1538 20.8901 47.044 20.8901 46.989V46.9341C20.8901 46.8791 20.8352 46.8791 20.7802 46.9341C20.6703 47.2637 20.6154 47.6484 20.5604 48.033C20.5604 48.3077 20.5604 48.5275 20.6154 48.8022C20.6703 48.8571 20.7253 48.967 20.7253 49.0769Z" fill="#EAAB00"/>
<path d="M29.5714 50.1758C30.0659 50.5604 30.5055 51 30.8901 51.4945C31.2198 51.1648 31.3846 50.6703 31.6044 50.2308C31.7692 49.9011 31.9341 49.6264 32.1538 49.3517C32.2637 49.2418 32.3736 49.0769 32.4835 48.967C32.4835 48.967 32.5934 48.9121 32.6484 48.8571C32.7033 48.8022 32.6484 48.7473 32.5934 48.7473C31.989 48.8022 31.3297 48.967 30.7802 49.2418C30.3407 49.4615 29.9011 49.7912 29.5714 50.1758Z" fill="#EAAB00"/>
<path d="M32.044 53.4176C32.0989 53.5275 32.1538 53.6374 32.1538 53.6923C32.5934 53.3626 32.9231 52.8681 33.2528 52.4835C33.5275 52.2088 33.8022 51.9341 34.0769 51.7143C34.2418 51.6044 34.4066 51.4945 34.5165 51.4396C34.5714 51.4396 34.6264 51.3846 34.6813 51.3297C34.7363 51.2747 34.7363 51.2198 34.6813 51.1648C34.022 51.0549 33.3077 51.0549 32.6484 51.2198C32.0989 51.3297 31.5495 51.5495 31.1099 51.8791C31.5495 52.3736 31.8242 52.8681 32.044 53.4176Z" fill="#EAAB00"/>
<path d="M29.4066 48.5275C29.4615 48.1978 29.5714 47.8681 29.6813 47.5934C29.7363 47.4286 29.7912 47.3187 29.9011 47.2088C29.9011 47.1538 29.956 47.0989 30.011 47.044C30.0659 46.989 30.011 46.9341 29.956 46.9341C29.4615 47.1538 28.9121 47.4835 28.5275 47.8681C28.1978 48.1978 27.8681 48.5824 27.7033 49.022C28.2527 49.2418 28.7473 49.5165 29.2418 49.8462C29.2967 49.4066 29.2967 48.967 29.4066 48.5275Z" fill="#EAAB00"/>
<path d="M34.1868 56.7692C33.7473 56.6044 33.2527 56.4945 32.8132 56.5495C32.8132 57.1539 32.8132 57.7033 32.7033 58.3077C33.1978 58.2528 33.6374 58.0879 34.0769 57.9231C34.4066 57.8132 34.6813 57.7583 35.011 57.7583C35.1758 57.7583 35.3407 57.7583 35.4506 57.7583C35.5055 57.7583 35.5604 57.7583 35.6154 57.7583C35.6703 57.7583 35.7253 57.7033 35.6703 57.6484C35.2308 57.3187 34.6813 56.989 34.1868 56.7692Z" fill="#EAAB00"/>
<path d="M35.6703 54.4066C35.1209 54.1319 34.4615 53.967 33.8571 53.9121C33.3626 53.8571 32.8132 53.9121 32.3187 54.0769C32.5385 54.6813 32.6484 55.3407 32.7033 55.9451C33.1978 55.7802 33.5824 55.3956 34.022 55.1758C34.2967 55.011 34.6264 54.8462 34.956 54.7363C35.1209 54.6813 35.2857 54.6264 35.4506 54.6264C35.5055 54.6264 35.5604 54.6264 35.6154 54.5714C35.7253 54.5165 35.7802 54.4615 35.6703 54.4066Z" fill="#EAAB00"/>
<path d="M29.9011 63.1429C29.5714 63.4176 29.2418 63.6923 28.9121 63.9121C29.1319 64.1319 29.4615 64.2967 29.7363 64.4616C29.9011 64.5714 30.1209 64.7363 30.2857 64.9011C30.3407 65.011 30.4505 65.0659 30.5055 65.1758C30.5055 65.1758 30.5604 65.2308 30.5604 65.2857C30.5604 65.3407 30.6703 65.2857 30.6703 65.2857C30.6703 64.9011 30.6154 64.4616 30.5055 64.0769C30.2857 63.7473 30.1209 63.4176 29.9011 63.1429Z" fill="#EAAB00"/>
<path d="M31.4945 61.2747C31.2198 61.6594 30.9451 62.044 30.6154 62.4286C30.9451 62.5934 31.3297 62.6484 31.7143 62.7583C31.9341 62.8132 32.2088 62.9231 32.4286 63.0879C32.5385 63.1429 32.6484 63.1978 32.7582 63.3077C32.7582 63.3077 32.8132 63.3626 32.8681 63.4176C32.9231 63.4725 32.978 63.4176 32.978 63.3626C32.8681 62.9231 32.6484 62.4835 32.3736 62.0989C32.0989 61.7692 31.8242 61.4945 31.4945 61.2747Z" fill="#EAAB00"/>
<path d="M33.6374 59.5714C33.3077 59.2967 32.9231 59.0769 32.4835 58.967C32.3736 59.4615 32.1538 59.9561 31.9341 60.4506C32.3736 60.5604 32.7582 60.4506 33.1978 60.5055C33.4725 60.5055 33.8022 60.5604 34.0769 60.6154C34.1868 60.6703 34.3516 60.6703 34.4615 60.7253C34.5165 60.7253 34.5714 60.7802 34.6264 60.7802C34.6813 60.7802 34.7363 60.7253 34.6813 60.7253C34.4066 60.2857 34.022 59.9011 33.6374 59.5714Z" fill="#EAAB00"/>
<path d="M22.7033 63.6374C21.3297 63.8022 20.0659 63.6923 19.0769 63.2528C19.5165 63.6374 20.011 63.9121 20.5055 64.1868C21.7143 64.8462 23.1429 65.1758 24.5714 65.1209C25.1758 65.1209 25.7802 65.011 26.3846 64.9011C25.3956 64.7912 24.4615 64.5165 23.5824 64.1319C23.3077 63.967 22.978 63.8022 22.7033 63.6374Z" fill="#EAAB00"/>
<path d="M30.0659 60.1758C30.0659 60.1758 30.1209 60.1209 30.0659 60.0659C30.011 60.011 29.956 60.0659 29.956 60.0659C29.1319 60.8901 28.1429 61.6044 26.989 62.2088C26.7692 62.3187 26.5495 62.4286 26.3297 62.5385C25.3956 62.978 24.4066 63.3077 23.4725 63.4725C23.7473 63.6374 24.022 63.7473 24.2967 63.9121C25.1758 64.2967 26.0549 64.5714 27.044 64.6813C27.4286 64.5714 27.8132 64.4066 28.1429 64.1868C27.6484 63.8022 27.1538 63.3626 26.6593 62.9231C28.1978 62.2088 29.2967 61.2198 30.0659 60.1758Z" fill="#EAAB00"/>
<path d="M16.8791 58.6374C16.9341 58.6923 16.989 58.6923 17.0989 58.7473C17.3736 58.8572 17.6484 58.967 17.9231 59.022C18.1978 59.0769 18.4725 59.1319 18.7473 59.1319C18.6374 58.8572 18.5275 58.5824 18.4176 58.2528C18.2527 57.8132 18.1429 57.3187 18.0879 56.8242C18.0879 56.6593 18.033 56.4945 18.033 56.3297C18.033 56.2198 18.033 56.055 17.978 55.8901C17.978 55.8352 17.978 55.7253 17.978 55.6703C17.978 55.3956 17.978 55.1209 17.978 54.8462C17.6484 54.7912 17.3736 54.7363 17.1538 54.5714C17.0989 54.5714 17.0989 54.5165 17.044 54.5165C16.9341 54.4615 16.8242 54.3517 16.7143 54.2418C16.6593 54.1868 16.6044 54.1319 16.6044 54.022C16.5495 53.967 16.5495 53.8571 16.5495 53.8022C16.4396 54.1319 16.3297 54.4615 16.2198 54.8462C16.1648 54.956 16.1648 55.1209 16.1099 55.2857C16.0549 55.5604 16 55.8352 16 56.1648C16 56.2198 16 56.3297 16 56.3846C16 56.6044 16 56.8242 16 57.044C16 57.3187 16 57.5934 16.0549 57.8681C16.2198 58.1429 16.5495 58.4176 16.8791 58.6374Z" fill="#EAAB00"/>
<path d="M19.3516 54.9011C19.1319 54.9011 18.9121 54.956 18.7473 54.956C18.7473 55.1758 18.7473 55.3407 18.7473 55.5604C18.7473 55.6154 18.7473 55.6703 18.7473 55.7802C18.7473 55.8901 18.7473 56 18.7473 56.1099C18.8022 56.6593 18.9121 57.1539 19.022 57.6484C19.1319 58.1978 19.3516 58.6923 19.5714 59.1868C20.6703 59.1319 21.9341 58.8572 23.2527 58.3626C22.7033 57.4286 22.2637 56.4396 21.9341 55.5604C21.8791 55.3956 21.8242 55.2308 21.7143 55.0659C21.9341 54.956 22.2088 54.8462 22.4286 54.7363C23.967 54.022 25.1758 53.033 25.8901 52.0989C25.9451 52.044 26 51.989 26 51.9341C26 51.9341 26.0549 51.8791 26 51.8242C25.9451 51.7692 25.8901 51.8242 25.8901 51.8242C25.7802 51.8791 25.6703 51.989 25.5055 52.1539C24.7912 52.7582 23.9121 53.3077 22.8681 53.8022C22.4286 54.022 21.9341 54.1868 21.4945 54.3517C21.0549 54.5165 20.6154 54.6264 20.1758 54.7363C19.9011 54.7912 19.6264 54.8462 19.3516 54.9011Z" fill="#EAAB00"/>
<path d="M17.1538 53.7473C17.2637 53.8571 17.4286 53.967 17.5934 54.022C17.6484 54.022 17.7033 54.0769 17.7582 54.0769C17.8681 54.1319 17.978 54.1319 18.0879 54.1319C18.0879 54.022 18.1429 53.8571 18.1429 53.7473C18.1429 53.6374 18.1978 53.5275 18.1978 53.4176C18.2527 53.0879 18.3626 52.7582 18.4176 52.4286C18.6374 51.7143 18.9121 51.0549 19.2418 50.4506C19.3516 50.2857 19.4066 50.1209 19.5165 49.956C19.5714 49.9011 19.5714 49.8462 19.6264 49.7912C19.3516 49.956 19.1319 50.1209 18.9121 50.3407C18.5824 50.6703 18.2527 51 17.978 51.3846C17.5385 51.9341 17.1538 52.4835 16.8242 53.1429C16.8242 53.2528 16.8791 53.3626 16.9341 53.4725C16.9341 53.5275 17.044 53.6374 17.1538 53.7473Z" fill="#EAAB00"/>
<path d="M18.9121 52.8681C18.9121 52.978 18.8571 53.1429 18.8571 53.2528C18.8022 53.5824 18.7473 53.9121 18.7473 54.2418C19.2418 54.2418 19.7912 54.1868 20.3407 54.0769C20.6703 54.022 20.9451 53.9121 21.2747 53.8022C21.2198 53.6923 21.2198 53.5824 21.1648 53.4725C21 53.033 20.8901 52.5934 20.7802 52.1539C20.7802 51.989 20.7253 51.8242 20.6703 51.7143C20.6154 51.4945 20.5604 51.2747 20.5055 51.0549C20.3956 50.6154 20.3407 50.2857 20.2857 49.956C20.2308 49.8462 20.2308 49.7363 20.1758 49.6264V49.5714C20.1758 49.6264 20.1209 49.6813 20.1209 49.6813C20.011 49.8462 19.956 50.011 19.8462 50.1758C19.5714 50.7253 19.3516 51.3297 19.1868 51.9341C19.0769 52.2088 18.967 52.5385 18.9121 52.8681Z" fill="#EAAB00"/>
<path d="M21.8791 63.0879C21 62.4286 20.1758 61.5495 19.5714 60.6154C19.4066 60.3956 19.2418 60.1209 19.1319 59.8462C18.5824 59.8462 18.033 59.7912 17.5934 59.6264C17.3736 59.6264 17.1538 59.5165 16.9341 59.4066C16.8791 59.3517 16.8242 59.3517 16.7692 59.2967C16.5494 59.1868 16.3846 59.022 16.2747 58.8572C16.3846 59.2418 16.4945 59.6264 16.6593 60.011C16.6593 60.0659 16.7143 60.1209 16.7143 60.1758C16.8242 60.3956 16.9341 60.5605 17.044 60.7802C17.1538 60.9451 17.2637 61.1099 17.3736 61.2747C17.5385 61.5495 17.7582 61.8242 17.978 62.0989C18.8571 62.8681 20.2857 63.1978 21.8791 63.0879Z" fill="#EAAB00"/>
<path d="M24.8462 58.4176C24.4615 58.6374 24.0769 58.8022 23.6374 58.967C22.3187 59.4615 21.0549 59.7912 19.956 59.9011C20.0659 60.1209 20.2308 60.3956 20.3956 60.6154C21.0549 61.6044 21.8242 62.3736 22.7582 63.033C23.7473 62.8681 24.8462 62.5934 25.9451 62.0989C25.2308 61.2747 24.6264 60.4506 24.022 59.5714C24.2418 59.4615 24.4615 59.3517 24.6813 59.2418C26.7143 58.2528 28.2527 56.8791 29.0769 55.5604C29.0769 55.5604 29.1319 55.5055 29.0769 55.4506C29.022 55.3956 28.967 55.4506 28.967 55.4506C27.9231 56.5495 26.5494 57.5934 24.8462 58.4176Z" fill="#EAAB00"/>
</g>
<rect x="1" y="1" width="110" height="110" rx="9" stroke="black" stroke-opacity="0.1" stroke-width="2"/>
<defs>
<clipPath id="clip0_768_349">
<rect x="2" y="2" width="108" height="108" rx="8" fill="white"/>
</clipPath>
</defs>
</svg>
