<svg width="112" height="112" viewBox="0 0 112 112" fill="none" xmlns="http://www.w3.org/2000/svg">
<g clip-path="url(#clip0_768_357)">
<rect x="1.99988" y="2" width="108" height="108" rx="8" fill="white"/>
<path fill-rule="evenodd" clip-rule="evenodd" d="M16 54.5472C16 54.5472 16.9426 54.3019 17.4353 53.9324C17.9677 53.5639 18.8706 52.375 18.952 52.0065C19.0752 51.637 19.1973 50.899 19.1973 50.899H21.6567V54.2612H25.6744L24.4448 56.4752H21.6974C21.6974 56.4752 21.6159 62.5432 21.6159 63.5672C21.6159 64.5912 21.7391 66.0683 22.9281 66.11C24.0753 66.1925 25.2235 65.8229 25.2235 65.8229L25.9208 67.9952C25.9208 67.9952 21.2475 69.348 19.4844 68.0359C17.7631 66.7259 17.8038 65.9868 17.7631 63.7321C17.6817 61.4356 17.7631 56.4345 17.7631 56.4345H16V54.5472Z" fill="#035C96"/>
<path fill-rule="evenodd" clip-rule="evenodd" d="M28.258 54.6704L29.0774 56.8844C29.0774 56.8844 30.758 56.0232 32.3572 56.1464C33.9564 56.2696 34.4888 56.5974 34.7758 57.4596C35.0629 58.3197 34.9397 60.041 34.9397 60.041C34.9397 60.041 30.1025 59.2623 28.3801 61.0661C26.6588 62.9106 26.9041 64.0995 26.9866 65.0829C27.1097 66.0265 27.8885 67.9524 29.9793 68.4044C32.0701 68.8553 33.423 68.2812 33.9553 67.9524C34.448 67.6246 35.0222 67.1737 35.0222 67.1737V68.3219H38.7112C38.5066 66.6413 39.1214 59.7122 38.1788 55.9815C37.0305 53.7268 33.3812 53.1933 28.258 54.6694V54.6704ZM34.899 61.8448V66.0683C34.899 66.0683 33.7518 66.4367 32.8499 66.3136C31.9887 66.2321 30.7184 65.8219 30.7998 63.9367C30.9229 62.0922 32.3572 61.8041 33.5054 61.8448H34.899Z" fill="#035C96"/>
<path fill-rule="evenodd" clip-rule="evenodd" d="M50.8063 54.6297L49.9869 56.8437C46.5025 54.9992 43.0588 56.8844 45.8052 58.9763C47.1163 60.0003 49.5359 60.5348 50.4378 61.8855C51.3804 63.2791 51.2572 64.7968 50.847 65.8219C50.4378 66.847 49.3303 67.9535 48.0192 68.2823C46.7478 68.61 44.7801 68.6507 42.8939 68.323C40.9669 67.9942 40.8437 67.7896 40.8437 67.7896L41.6632 65.4941C41.6632 65.4941 44.0411 66.6424 45.968 66.2311C47.895 65.7802 47.9775 64.3041 47.0338 63.6079C46.0505 62.8688 43.0578 61.7624 42.2373 60.5744C39.8594 57.3343 42.0327 54.2195 45.8041 53.9731C47.5255 53.8499 49.2061 53.9731 50.8053 54.6286L50.8063 54.6297Z" fill="#035C96"/>
<path fill-rule="evenodd" clip-rule="evenodd" d="M53.2249 54.7111L56.9974 53.686L57.0381 55.4898C58.8419 52.948 64.1301 53.5639 65.6468 56.3928C66.4673 57.9512 66.5904 59.2623 66.5904 61.3939C66.5904 63.5254 65.8514 65.6173 64.1301 67.2155C62.4077 68.7739 59.867 68.5683 59.0058 68.4869C58.1446 68.3637 57.1613 67.9524 57.1613 67.9524L57.1206 72.6665L53.1842 73.8554L53.2249 54.7101V54.7111ZM57.202 56.802L57.1613 66.2311C64.1708 68.0756 64.7459 54.3019 57.202 56.802Z" fill="#035C96"/>
<path fill-rule="evenodd" clip-rule="evenodd" d="M72.3295 61.5985L81.0196 61.6392C82.2086 52.21 70.6489 51.3906 68.6802 58.564C67.1635 63.9764 69.7053 68.5683 75.5686 68.5683C79.2983 68.5683 80.529 67.7885 80.529 67.7885L79.6678 65.5348C79.6678 65.5348 77.3724 66.6424 75.5697 66.1486C73.7659 65.6163 72.7408 64.7958 72.4538 63.3605C72.1667 61.8845 72.3306 61.5974 72.3306 61.5974L72.3295 61.5985ZM72.2471 59.5494H77.2482C77.4121 53.8499 71.7126 55.1621 72.2471 59.5494Z" fill="#035C96"/>
<path fill-rule="evenodd" clip-rule="evenodd" d="M83.2347 54.6297V68.323H87.17L87.1293 56.8437C88.7285 56.2289 91.025 56.1871 91.5574 57.2947C92.3371 60.0421 91.8851 67.5036 92.0093 68.3647L95.9029 68.324C95.9029 68.324 96.2714 58.3208 95.5751 56.6391C94.8361 54.9585 93.7714 53.6871 90.9425 53.8917C88.073 54.0566 87.0469 55.4909 87.0469 55.4909L87.0876 53.6871L83.2347 54.6297Z" fill="#035C96"/>
<path fill-rule="evenodd" clip-rule="evenodd" d="M66.9579 55.2445C66.9986 48.9313 68.3107 40.2809 61.3837 38.2725C58.1436 37.8215 48.7969 38.0679 48.7969 38.0679C49.0015 47.2924 52.1581 50.5712 61.0538 51.1453C64.6624 51.3906 66.9579 55.2445 66.9579 55.2445Z" fill="#035C96"/>
<path fill-rule="evenodd" clip-rule="evenodd" d="M66.9579 55.2445C66.8347 54.8353 66.5069 53.9731 66.1384 53.2769C65.6457 52.3332 64.9495 51.5545 64.581 51.2674C64.2522 50.9386 49.7812 38.8456 49.7812 38.8456L48.7979 38.0668C49.0025 47.2914 52.1591 50.5701 61.0549 51.1443C64.6635 51.3896 66.9589 55.2435 66.9589 55.2435L66.9579 55.2445Z" fill="#00497B"/>
<path fill-rule="evenodd" clip-rule="evenodd" d="M68.4756 55.2445C68.4349 48.9313 67.1228 40.2809 74.0519 38.2725C77.2492 37.8215 86.6377 38.0679 86.6377 38.0679C86.4331 47.2924 83.2765 50.5712 74.3797 51.1453C70.7314 51.3906 68.4756 55.2445 68.4756 55.2445Z" fill="#E7C125"/>
<path fill-rule="evenodd" clip-rule="evenodd" d="M68.4756 55.2445C68.5988 54.8353 68.8848 53.9731 69.2554 53.2769C69.747 52.3332 70.484 51.5545 70.8128 51.2674C71.1813 50.9386 85.6523 38.8456 85.6523 38.8456L86.6366 38.0668C86.432 47.2914 83.2754 50.5701 74.3786 51.1443C70.7304 51.3896 68.4746 55.2435 68.4746 55.2435L68.4756 55.2445Z" fill="#D0AD28"/>
</g>
<rect x="1" y="1" width="110" height="110" rx="9" stroke="black" stroke-opacity="0.1" stroke-width="2"/>
<defs>
<clipPath id="clip0_768_357">
<rect x="2" y="2" width="108" height="108" rx="8" fill="white"/>
</clipPath>
</defs>
</svg>
