<svg width="112" height="112" viewBox="0 0 112 112" fill="none" xmlns="http://www.w3.org/2000/svg">
<g clip-path="url(#clip0_505_122)">
<rect x="1.99988" y="2" width="108" height="108" rx="8" fill="white"/>
<path fill-rule="evenodd" clip-rule="evenodd" d="M56.5493 29C48.5697 29 42.1008 35.4697 42.1008 43.449C42.1008 46.7416 43.2045 49.7776 45.0607 52.2107L57.0719 36.4233L55.7805 36.4276H54.496C53.1238 36.4276 51.8388 36.5217 50.913 36.7013C50.3498 36.8124 49.8478 37.0177 49.4399 37.3042C48.9601 37.6377 48.3602 38.3518 47.9693 39.0531C47.924 39.1344 47.8586 39.2584 47.7739 39.4251L47.0709 39.2712L48.2481 34.7343H63.2919L51.3398 50.7183C52.1172 50.6499 52.4268 50.6328 53.0558 50.6328C53.5415 50.6328 54.2775 50.6627 55.2631 50.7226L57.3866 50.8509C58.1563 50.8936 58.802 50.9193 59.2895 50.9193C60.3884 50.9193 61.1025 50.8338 61.8081 50.62C62.3554 50.4489 62.8771 50.1966 63.3518 49.8717C64.1899 49.2901 65.0066 48.3579 65.4941 47.4257C65.5454 47.3317 65.6224 47.1905 65.7122 46.9981L66.3493 47.1606C66.1441 47.9517 66.0329 48.2553 65.7165 48.9651C65.075 50.3976 64.3481 51.3597 63.3518 52.0995C62.3255 52.8564 61.1923 53.2284 59.8496 53.2498H59.6487C58.6523 53.2498 57.8869 53.1685 55.5085 52.8051C53.0891 52.433 51.8585 52.309 50.6423 52.309C49.8282 52.309 49.0709 52.3689 48.2888 52.4929C47.251 52.6597 46.8443 52.7837 45.9018 53.2113C48.5428 56.0891 52.3352 57.8962 56.5493 57.8962C64.5277 57.8962 70.9974 51.4282 70.9974 43.449C70.9974 35.4697 64.5277 29 56.5493 29Z" fill="#2058AF"/>
<path fill-rule="evenodd" clip-rule="evenodd" d="M29.295 67.9124H18.2333L16.8748 70.9125C17.328 70.6731 17.5082 70.5876 17.9051 70.4302C18.5327 70.1805 19.2237 69.982 19.8935 69.8657C20.473 69.7665 21.0077 69.7186 21.876 69.6947C22.2639 69.6844 22.6279 69.6776 22.9676 69.6776H24.6052L16.0001 81.976H28.1644L29.5677 78.7671C29.0795 79.0476 28.9047 79.14 28.5318 79.3076C27.8254 79.6258 27.0526 79.8652 26.2593 80.0055C25.6322 80.115 24.9261 80.1765 24.0483 80.1971C23.7548 80.2073 23.3798 80.2107 22.9231 80.2107H20.7679L29.295 67.9124ZM65.8549 81.976C65.636 81.7844 65.5607 81.6954 65.4205 81.4799C65.3315 81.3397 65.2563 81.196 65.2015 81.0523C65.0818 80.7307 65.0065 80.2586 65.0065 79.8139V71.3436L65.0134 70.5191C65.0202 69.5749 65.0442 69.3184 65.1639 68.9352C65.2118 68.7847 65.2768 68.6376 65.3623 68.4973C65.5094 68.2579 65.6086 68.1484 65.8926 67.9124H61.3769C61.6711 68.1655 61.7669 68.2647 61.9003 68.47C61.9961 68.6136 62.0679 68.7676 62.1158 68.925C62.2219 69.2671 62.2561 69.6057 62.2629 70.4405C62.2663 70.8681 62.2663 71.152 62.2663 71.2854V79.7079C62.2663 80.2005 62.1808 80.7273 62.044 81.066C61.9858 81.2097 61.9106 81.3499 61.8216 81.4799C61.7156 81.6339 61.6403 81.7194 61.394 81.976H65.8549ZM79.9801 68.0389C79.6312 67.926 79.4944 67.8918 79.1215 67.8131C78.3141 67.6387 77.5341 67.56 76.6481 67.56C75.136 67.56 73.8327 67.8029 72.6387 68.3058C71.9306 68.6068 71.2806 68.9934 70.7059 69.4552C68.9715 70.851 68.0307 72.8728 68.0307 75.2024C68.0307 77.4637 68.9407 79.4171 70.5998 80.7273C71.9716 81.8083 73.7334 82.3557 75.8544 82.3557C77.1784 82.3557 78.4133 82.1573 79.7988 81.7228C79.8501 81.7091 79.9288 81.6852 80.028 81.651V79.0955C79.6928 79.3213 79.5765 79.3931 79.3712 79.5129C79.1009 79.6702 78.8136 79.8139 78.5091 79.9439C77.6607 80.2997 76.8876 80.4673 76.0529 80.4673C74.5989 80.4673 73.3537 79.9439 72.4301 78.9518C71.5201 77.9666 71.0275 76.5982 71.0275 75.0553C71.0275 73.5809 71.4859 72.2159 72.3001 71.2581C72.649 70.8475 73.0835 70.4918 73.5727 70.2181C74.3697 69.7734 75.2934 69.5442 76.2923 69.5442C77.1544 69.5442 77.9857 69.7118 78.8204 70.0505C79.3404 70.2626 79.5286 70.3652 79.9801 70.6868V68.0389ZM92.3093 75.5924V79.0237C92.3093 79.7865 92.299 80.0636 92.2477 80.4536C92.2204 80.6692 92.1691 80.8744 92.0972 81.0626C91.998 81.326 91.8304 81.5654 91.5909 81.7981C91.5499 81.8391 91.4849 81.8973 91.3959 81.976H95.8911C95.7029 81.7912 95.6345 81.7125 95.5113 81.5415C95.4019 81.3841 95.3129 81.2302 95.2513 81.0797C95.1145 80.7513 95.0803 80.5015 95.0666 79.8071C95.0598 79.3931 95.0564 79.1502 95.0564 79.0784L95.0666 71.3436V70.5089C95.0666 69.8897 95.1179 69.4107 95.224 69.0207C95.2719 68.8394 95.3471 68.665 95.4463 68.5008C95.5934 68.2613 95.6995 68.1484 96.004 67.9124H91.413C91.6764 68.1313 91.7688 68.2339 91.9262 68.4871C92.0254 68.6479 92.1075 68.8121 92.1588 68.9763C92.2683 69.3047 92.3093 69.7152 92.3093 70.4507V73.8717H86.0045V71.3025C86.0045 70.526 86.0182 70.0162 86.0455 69.6399C86.0592 69.4073 86.0968 69.2021 86.155 69.0242C86.2542 68.7197 86.5108 68.3023 86.74 68.0629C86.7742 68.0287 86.8255 67.9774 86.8973 67.9124H82.3919C82.6588 68.1895 82.7306 68.275 82.8537 68.4529C82.9529 68.5965 83.0316 68.7573 83.0932 68.9318C83.2164 69.2876 83.2369 69.4792 83.2472 70.4199L83.2608 71.3094V79.0066C83.2608 79.79 83.2472 80.1321 83.2027 80.4878C83.1822 80.6726 83.1343 80.8573 83.0658 81.0455C82.9495 81.3499 82.7819 81.5928 82.5253 81.8357C82.4911 81.8665 82.4398 81.9144 82.368 81.976H86.8186C86.6271 81.7741 86.5587 81.692 86.4458 81.5141C86.3602 81.3773 86.285 81.2302 86.2234 81.0728C86.0763 80.7034 86.0318 80.4365 86.0181 79.8413C86.0079 79.5437 86.0045 79.2631 86.0045 78.9997V75.5924H92.3093ZM31.2108 67.9124C31.4896 68.1381 31.585 68.2442 31.7232 68.4802C31.8132 68.6342 31.8809 68.7984 31.9241 68.9694C31.9767 69.1815 32.0065 69.3971 32.013 69.616C32.0171 69.7699 32.0212 70.0607 32.0239 70.4918L32.0298 71.3025V75.3256C32.0298 76.7453 32.0407 77.2345 32.0852 77.8024C32.1645 78.8116 32.4844 79.6497 33.0711 80.3886C33.6646 81.1344 34.4706 81.692 35.4439 82.0375C36.1992 82.301 37.0487 82.4344 38.0086 82.4344C39.0653 82.4344 40.0981 82.2736 40.8576 81.9931C41.654 81.6954 42.4199 81.1823 42.9516 80.587C43.6005 79.8618 43.9676 78.9826 44.0877 77.864C44.1598 77.1969 44.1828 76.5948 44.1828 75.3461V71.3025L44.1769 70.5089L44.1766 70.396C44.1766 69.6844 44.2344 69.2397 44.3039 69.0002C44.4499 68.5042 44.7041 68.2134 44.9347 68.0355C45.0236 67.9671 45.0507 67.9466 45.0955 67.9124H40.9298C41.1011 68.1689 41.1559 68.2784 41.2363 68.5247C41.29 68.6889 41.3286 68.8668 41.3529 69.055C41.4179 69.5544 41.4422 70.1873 41.4422 71.3881V75.7532C41.4422 76.9677 41.4125 77.5766 41.3256 78.1376C41.2667 78.5139 41.1439 78.8629 40.9633 79.1639C40.6085 79.7523 39.988 80.1834 39.2309 80.3715C38.9285 80.4468 38.5936 80.4844 38.233 80.4844C37.5078 80.4844 36.881 80.3339 36.3238 80.026C35.969 79.831 35.683 79.5813 35.488 79.2973C35.1028 78.7329 34.9896 78.165 34.9759 76.7214L34.9591 74.9527V71.3881C34.9591 70.1907 34.9838 69.5373 35.0484 69.055C35.0973 68.6855 35.2096 68.3537 35.3936 68.0389C35.4104 68.0116 35.4364 67.9671 35.4716 67.9124H31.2108ZM51.0281 79.0852C51.0281 79.3418 51.0281 79.5779 51.0315 79.7934C51.0452 80.4434 51.0931 80.782 51.2163 81.0899C51.2779 81.2405 51.3565 81.3841 51.4557 81.5176C51.5823 81.6886 51.6405 81.7604 51.8457 81.976H47.3738C47.6345 81.7365 47.7156 81.651 47.8418 81.4833C47.9445 81.3499 48.0269 81.1994 48.0868 81.0386C48.2024 80.7307 48.2482 80.3476 48.2482 79.6805V70.4507C48.2482 69.7049 48.2079 69.2705 48.1093 68.9523C48.0539 68.7779 47.9715 68.6034 47.8641 68.4426C47.731 68.2373 47.641 68.1381 47.3909 67.9124H51.0213C51.4694 67.9124 51.9039 67.9192 52.3247 67.9295C53.4433 67.9568 54.1002 68.0252 54.7296 68.1723C55.6293 68.3844 56.4367 68.8326 57.0148 69.4381C57.6443 70.0984 57.9693 70.8818 57.9693 71.7473C57.9693 72.1099 57.9111 72.4759 57.7948 72.8283C57.5895 73.4646 57.2406 73.9675 56.6864 74.4327C56.1972 74.8467 55.6601 75.1545 54.9554 75.4351C54.7057 75.5343 54.5996 75.5719 54.3294 75.654L56.5119 78.2197C56.7788 78.5345 57.1209 78.9142 57.5382 79.3692C58.1985 80.0807 58.6364 80.5323 59.1324 81.001C59.3445 81.2028 59.5463 81.3876 59.7379 81.5518C59.9192 81.7091 60.015 81.7878 60.2511 81.976H58.4858C58.2258 81.976 57.9795 81.9725 57.7572 81.9623C57.1448 81.9452 56.7617 81.8528 56.358 81.6339C55.8859 81.3807 55.407 81.001 54.9041 80.481C54.7467 80.3236 54.5209 80.0705 54.2199 79.725C53.953 79.4205 53.758 79.1947 53.6349 79.0442L51.0281 75.9208V79.0852ZM51.2539 74.7406C51.4592 74.7406 51.7021 74.7201 51.9928 74.679C52.7489 74.5696 53.2586 74.4019 53.7615 74.1043C54.0249 73.9504 54.2438 73.7725 54.4183 73.5775C54.7809 73.1704 54.9657 72.6299 54.9657 71.9902C54.9657 71.2581 54.7193 70.6697 54.2404 70.2626C53.9667 70.0299 53.6417 69.8555 53.2894 69.7563C52.7591 69.6023 52.0886 69.5202 51.3942 69.5202C51.2779 69.5202 51.2026 69.5202 51.0281 69.5271V74.7338C51.1376 74.7406 51.1855 74.7406 51.2539 74.7406Z" fill="#15356F"/>
</g>
<rect x="1" y="1" width="110" height="110" rx="9" stroke="black" stroke-opacity="0.1" stroke-width="2"/>
<defs>
<clipPath id="clip0_505_122">
<rect x="2" y="2" width="108" height="108" rx="8" fill="white"/>
</clipPath>
</defs>
</svg>
