<svg width="112" height="112" viewBox="0 0 112 112" fill="none" xmlns="http://www.w3.org/2000/svg">
<g clip-path="url(#clip0_505_124)">
<rect x="1.99988" y="2" width="108" height="108" rx="8" fill="white"/>
<path fill-rule="evenodd" clip-rule="evenodd" d="M56.0006 16C33.909 16 16 33.9114 16 56.0018C16 65.1173 19.0555 73.5225 24.1945 80.2586L57.4472 36.5514L53.8721 36.5632H50.3158C46.5169 36.5632 42.9595 36.8237 40.3965 37.3209C38.8374 37.6287 37.4475 38.1969 36.3182 38.9901C34.9899 39.9135 33.329 41.8905 32.2469 43.832C32.1215 44.0569 31.9403 44.4002 31.7059 44.8619L29.7597 44.4357L33.0188 31.8752H74.6673L41.5779 76.127C43.7301 75.9376 44.5872 75.8902 46.3287 75.8902C47.6735 75.8902 49.7109 75.9731 52.4396 76.1388L58.3185 76.494C60.4494 76.6123 62.237 76.6834 63.5866 76.6834C66.6291 76.6834 68.6061 76.4466 70.5594 75.8547C72.0747 75.3811 73.519 74.6827 74.833 73.783C77.1534 72.173 79.4145 69.5922 80.7641 67.0114C80.9061 66.751 81.1192 66.3603 81.3678 65.8276L83.1317 66.2775C82.5635 68.4676 82.2557 69.3081 81.3796 71.2732C79.6039 75.2391 77.5914 77.9027 74.833 79.9508C71.9918 82.0462 68.8547 83.0761 65.1374 83.1353H64.581C61.8227 83.1353 59.7036 82.9104 53.1191 81.9041C46.421 80.8742 43.0139 80.5308 39.6471 80.5308C37.3931 80.5308 35.2965 80.6966 33.1313 81.0399C30.2581 81.5016 29.1323 81.8449 26.5231 83.0287C33.8345 90.9959 44.3339 95.9988 56.0006 95.9988C78.0886 95.9988 96 78.0921 96 56.0018C96 33.9114 78.0886 16 56.0006 16Z" fill="#2058AF"/>
</g>
<rect x="1" y="1" width="110" height="110" rx="9" stroke="black" stroke-opacity="0.1" stroke-width="2"/>
<defs>
<clipPath id="clip0_505_124">
<rect x="2" y="2" width="108" height="108" rx="8" fill="white"/>
</clipPath>
</defs>
</svg>
