<svg width="112" height="112" viewBox="0 0 112 112" fill="none" xmlns="http://www.w3.org/2000/svg">
<g clip-path="url(#clip0_768_293)">
<rect x="2" y="2" width="108" height="108" rx="8" fill="white"/>
<path fill-rule="evenodd" clip-rule="evenodd" d="M17.1856 74.4975V72.2314H17.6424V73.2371L18.569 72.2314H19.1839L18.3275 73.1141L19.2278 74.4975H18.6349L18.0113 73.4347L17.6424 73.8124V74.4975H17.1856ZM19.4649 74.4975V72.2314H21.1426V72.6135H19.9261V73.1185H21.0592V73.5006H19.9261V74.1155H21.1865V74.4975H19.4649ZM21.5686 74.4975V72.2314H22.2537L22.6577 73.7773L23.0574 72.2314H23.7469V74.4975H23.3209V72.7145L22.8729 74.4975H22.4338L21.9902 72.7145V74.4975H21.5642H21.5686ZM24.2124 74.4975V72.2314H25.8901V72.6135H24.6736V73.1185H25.8066V73.5006H24.6736V74.1155H25.934V74.4975H24.2124ZM26.3249 74.4975V72.2314H26.7684L27.6995 73.751V72.2314H28.1255V74.4975H27.6687L26.7509 73.0087V74.4975H26.3249ZM29.118 74.4975V72.6135H28.4461V72.2314H30.2423V72.6135H29.5747V74.4975H29.118ZM30.5409 74.4975V72.2314H32.2186V72.6135H31.0021V73.1185H32.1351V73.5006H31.0021V74.1155H32.2625V74.4975H30.5409ZM32.6534 74.4975V72.2314H33.6151C33.8567 72.2314 34.0324 72.2534 34.1422 72.2929C34.2519 72.3324 34.3398 72.4071 34.4057 72.5081C34.4715 72.6135 34.5067 72.7321 34.5067 72.8638C34.5067 73.0351 34.4584 73.1756 34.3574 73.2854C34.2563 73.3952 34.107 73.4655 33.9094 73.4962C34.006 73.5533 34.0895 73.6148 34.1509 73.6851C34.2168 73.7553 34.3003 73.8783 34.4101 74.054L34.6867 74.4975H34.1378L33.8084 74.0013C33.6898 73.8256 33.6108 73.7158 33.5668 73.6675C33.5229 73.6236 33.479 73.5885 33.4307 73.5753C33.3824 73.5577 33.3033 73.5489 33.1979 73.5489H33.1057V74.4932H32.6446L32.6534 74.4975ZM33.1145 73.1888H33.4527C33.6722 73.1888 33.8084 73.18 33.8655 73.1625C33.9182 73.1449 33.9621 73.1098 33.9928 73.0658C34.0236 73.0219 34.0411 72.9648 34.0411 72.8946C34.0411 72.8199 34.0192 72.7584 33.9797 72.7101C33.9401 72.6618 33.883 72.6355 33.8084 72.6223C33.7689 72.6179 33.6591 72.6135 33.4746 72.6135H33.1189V73.1888H33.1145ZM34.9239 74.4975V72.2314H35.3806V74.4975H34.9239ZM37.862 74.4975H37.3657L37.1681 73.9837H36.259L36.0701 74.4975H35.587L36.4654 72.2314H36.9485L37.8576 74.4975H37.862ZM37.0231 73.5972L36.7069 72.7584L36.3995 73.5972H37.0231ZM38.1035 74.4975V72.2314H38.5471L39.4781 73.751V72.2314H39.9041V74.4975H39.4474L38.5295 73.0087V74.4975H38.1035ZM41.2743 74.4975V72.2314H41.7311V73.2371L42.6577 72.2314H43.2726L42.4162 73.1141L43.3165 74.4975H42.7236L42.1 73.4347L41.7311 73.8124V74.4975H41.2743ZM43.5537 74.4975V72.2314H45.2313V72.6135H44.0148V73.1185H45.1479V73.5006H44.0148V74.1155H45.2752V74.4975H43.5537ZM45.6661 72.2314H46.1228V73.4611C46.1228 73.6543 46.1272 73.7817 46.1404 73.8388C46.158 73.931 46.2063 74.0057 46.2765 74.0628C46.3512 74.1199 46.4478 74.1462 46.5752 74.1462C46.7025 74.1462 46.7992 74.1199 46.865 74.0672C46.9309 74.0145 46.9704 73.9486 46.9836 73.8695C46.9968 73.7905 47.0056 73.6631 47.0056 73.4831V72.227H47.4667V73.4172C47.4667 73.6895 47.4535 73.8827 47.4316 73.9925C47.4052 74.1067 47.3613 74.1989 47.2954 74.278C47.2296 74.357 47.1417 74.4185 47.0319 74.4624C46.9221 74.5063 46.7772 74.5327 46.5971 74.5327C46.3819 74.5327 46.2195 74.5063 46.1053 74.458C45.9955 74.4097 45.9076 74.3438 45.8418 74.2648C45.7759 74.1857 45.7364 74.1023 45.7144 74.0145C45.6837 73.8827 45.6705 73.6939 45.6705 73.4391V72.2314H45.6661ZM49.992 74.4975H49.5001L49.3025 73.9837H48.3934L48.2045 74.4975H47.7214L48.5998 72.2314H49.0829L49.992 74.4975ZM49.1531 73.5972L48.8369 72.7584L48.5295 73.5972H49.1531ZM50.2379 74.4975V72.2314H50.6815L51.6125 73.751V72.2314H52.0385V74.4975H51.5818L50.6639 73.0087V74.4975H50.2379ZM53.5756 73.6675V73.2854H54.5594V74.1901C54.4628 74.2824 54.3266 74.3658 54.1422 74.4361C53.9621 74.5063 53.7776 74.5415 53.5888 74.5415C53.3516 74.5415 53.1452 74.4932 52.9696 74.3921C52.7939 74.2911 52.6621 74.1506 52.5743 73.9661C52.4865 73.7817 52.4426 73.5797 52.4426 73.3601C52.4426 73.1229 52.4909 72.9121 52.5919 72.7277C52.6929 72.5432 52.8334 72.4027 53.0267 72.3061C53.1716 72.2314 53.3516 72.1919 53.5668 72.1919C53.8479 72.1919 54.0675 72.249 54.2256 72.3676C54.3837 72.4861 54.4847 72.6486 54.5286 72.8594L54.0719 72.9429C54.0411 72.8331 53.9797 72.7452 53.8918 72.6794C53.804 72.6135 53.6942 72.5827 53.5624 72.5827C53.3648 72.5827 53.2067 72.6442 53.0881 72.7716C52.9696 72.899 52.9125 73.0878 52.9125 73.3381C52.9125 73.606 52.974 73.808 53.0925 73.9442C53.2111 74.0803 53.3692 74.1462 53.5624 74.1462C53.6591 74.1462 53.7557 74.1286 53.8479 74.0891C53.9445 74.0496 54.028 74.0057 54.0938 73.953V73.6675H53.5712H53.5756ZM57.0231 74.4975H56.5269L56.3292 73.9837H55.4202L55.2313 74.4975H54.7482L55.6266 72.2314H56.1097L57.0187 74.4975H57.0231ZM56.1843 73.5972L55.8681 72.7584L55.5607 73.5972H56.1843ZM57.2691 74.4975V72.2314H57.7126L58.6437 73.751V72.2314H59.0697V74.4975H58.613L57.6951 73.0087V74.4975H57.2691ZM60.4355 74.4975V72.2314H61.3973C61.6389 72.2314 61.8145 72.2534 61.9243 72.2929C62.0341 72.3324 62.122 72.4071 62.1878 72.5081C62.2537 72.6135 62.2888 72.7321 62.2888 72.8638C62.2888 73.0351 62.2405 73.1756 62.1395 73.2854C62.0385 73.3952 61.8892 73.4655 61.6916 73.4962C61.7882 73.5533 61.8716 73.6148 61.9331 73.6851C61.999 73.7553 62.0824 73.8783 62.1922 74.054L62.4689 74.4975H61.9199L61.5906 74.0013C61.472 73.8256 61.3929 73.7158 61.349 73.6675C61.3051 73.6236 61.2612 73.5885 61.2129 73.5753C61.1646 73.5577 61.0855 73.5489 60.9801 73.5489H60.8879V74.4932H60.4311L60.4355 74.4975ZM60.8923 73.1888H61.2304C61.45 73.1888 61.5862 73.18 61.6433 73.1625C61.696 73.1449 61.7399 73.1098 61.7706 73.0658C61.8014 73.0219 61.8189 72.9648 61.8189 72.8946C61.8189 72.8199 61.797 72.7584 61.7574 72.7101C61.7179 72.6618 61.6608 72.6355 61.5862 72.6223C61.5466 72.6179 61.4368 72.6135 61.2524 72.6135H60.8967V73.1888H60.8923ZM62.7192 74.4975V72.2314H64.3969V72.6135H63.1804V73.1185H64.3134V73.5006H63.1804V74.1155H64.4408V74.4975H62.7192ZM64.8317 74.4975V72.2314H65.5651C65.8418 72.2314 66.0218 72.2446 66.1097 72.2665C66.2414 72.3017 66.3468 72.3763 66.4346 72.4905C66.5225 72.6047 66.5664 72.7496 66.5664 72.9297C66.5664 73.0702 66.5401 73.1844 66.4917 73.281C66.439 73.3777 66.3776 73.4523 66.2985 73.505C66.2195 73.5577 66.1404 73.5928 66.0613 73.6104C65.9516 73.6324 65.7935 73.6412 65.587 73.6412H65.2884V74.4975H64.8317ZM65.2884 72.6135V73.2591H65.5387C65.7188 73.2591 65.8374 73.2459 65.8989 73.2239C65.9603 73.202 66.0086 73.1625 66.0394 73.1141C66.0745 73.0614 66.0921 73.0044 66.0921 72.9385C66.0921 72.855 66.0657 72.7892 66.0218 72.7321C65.9735 72.6794 65.912 72.6442 65.8374 72.6311C65.7847 72.6223 65.6749 72.6179 65.508 72.6179H65.2884V72.6135ZM66.9397 72.2314H67.3964V73.4611C67.3964 73.6543 67.4008 73.7817 67.414 73.8388C67.4316 73.931 67.4799 74.0057 67.5501 74.0628C67.6248 74.1199 67.7214 74.1462 67.8488 74.1462C67.9762 74.1462 68.0728 74.1199 68.1386 74.0672C68.2045 74.0145 68.244 73.9486 68.2572 73.8695C68.2704 73.7905 68.2792 73.6631 68.2792 73.4831V72.227H68.7359V73.4172C68.7359 73.6895 68.7227 73.8827 68.7008 73.9925C68.6744 74.1067 68.6305 74.1989 68.5646 74.278C68.4988 74.357 68.4109 74.4185 68.3011 74.4624C68.1913 74.5063 68.0464 74.5327 67.8664 74.5327C67.6512 74.5327 67.4887 74.5063 67.3745 74.458C67.2647 74.4097 67.1768 74.3438 67.111 74.2648C67.0451 74.1857 67.0056 74.1023 66.9836 74.0145C66.9529 73.8827 66.9397 73.6939 66.9397 73.4391V72.2314ZM69.2234 72.2314H70.1281C70.3082 72.2314 70.4399 72.2402 70.5278 72.2534C70.6156 72.2665 70.6946 72.3017 70.7649 72.3456C70.8352 72.3939 70.8923 72.4554 70.9406 72.5344C70.9889 72.6135 71.0108 72.7013 71.0108 72.7979C71.0108 72.9033 70.9845 73 70.9274 73.0878C70.8703 73.1756 70.7913 73.2415 70.6946 73.2854C70.8308 73.325 70.9362 73.3952 71.0108 73.4918C71.0855 73.5885 71.1206 73.7026 71.1206 73.8344C71.1206 73.9398 71.0987 74.0364 71.0504 74.1374C71.0021 74.234 70.9362 74.3131 70.8527 74.3702C70.7693 74.4273 70.6683 74.4624 70.5453 74.4756C70.4707 74.4844 70.2862 74.4888 69.992 74.4888H69.219V72.2226L69.2234 72.2314ZM69.6801 72.6091V73.1317H69.9788C70.1545 73.1317 70.2686 73.1317 70.3126 73.1229C70.3916 73.1141 70.4531 73.0878 70.497 73.0439C70.5409 73 70.5629 72.9385 70.5629 72.8682C70.5629 72.7979 70.5453 72.7409 70.5058 72.6969C70.4663 72.653 70.4092 72.6267 70.3345 72.6179C70.2906 72.6135 70.1588 72.6091 69.9437 72.6091H69.6801ZM69.6801 73.5094V74.1155H70.1061C70.2686 74.1155 70.374 74.1111 70.418 74.1023C70.4838 74.0891 70.5409 74.0584 70.5848 74.0101C70.6288 73.9618 70.6507 73.8959 70.6507 73.8168C70.6507 73.7466 70.6332 73.6895 70.6024 73.6412C70.5717 73.5928 70.5234 73.5577 70.4575 73.5358C70.396 73.5138 70.2599 73.505 70.0534 73.505H69.6845L69.6801 73.5094ZM71.5203 74.5019V72.2534H71.977V74.1155H73.1145V74.4975H71.5203V74.5019ZM73.4263 74.5019V72.2358H73.8874V74.5019H73.4263ZM74.3266 74.5019V72.2358H74.7834V73.2415L75.7056 72.2358H76.3205L75.4641 73.1185L76.3644 74.5019H75.7715L75.1479 73.4391L74.779 73.8168V74.5019H74.3222H74.3266ZM77.4667 74.5019V72.2358H77.9235V74.5019H77.4667ZM78.3626 74.5019V72.2358H78.8062L79.7372 73.7553V72.2358H80.1632V74.5019H79.7065L78.7886 73.0131V74.5019H78.3626ZM80.6463 72.2358H81.4808C81.6696 72.2358 81.8145 72.249 81.9112 72.2797C82.0429 72.3192 82.1571 72.3895 82.2537 72.4905C82.3503 72.5915 82.4206 72.7145 82.4689 72.8594C82.5172 73.0044 82.5436 73.1844 82.5436 73.3952C82.5436 73.5841 82.5216 73.7422 82.4733 73.8783C82.4162 74.0452 82.3372 74.177 82.2318 74.278C82.1527 74.357 82.0473 74.4141 81.9112 74.458C81.8101 74.4888 81.674 74.5063 81.5071 74.5063H80.6463V72.2358ZM81.1075 72.6179V74.1199H81.4456C81.573 74.1199 81.6652 74.1111 81.7223 74.0979C81.797 74.0803 81.8585 74.0496 81.9068 74.0057C81.9551 73.9618 81.9946 73.8871 82.0253 73.7861C82.0561 73.6851 82.0736 73.5445 82.0736 73.3689C82.0736 73.1932 82.0605 73.0614 82.0253 72.9648C81.9946 72.8726 81.9507 72.7979 81.898 72.7452C81.8409 72.6925 81.7706 72.6574 81.6872 72.6398C81.6257 72.6267 81.4983 72.6179 81.3139 72.6179H81.1075ZM82.8378 73.382C82.8378 73.1493 82.8729 72.9561 82.9432 72.7979C82.9959 72.6838 83.0662 72.5784 83.154 72.4861C83.2419 72.3939 83.3429 72.328 83.4483 72.2797C83.5888 72.2182 83.7513 72.1919 83.9357 72.1919C84.2695 72.1919 84.5374 72.2973 84.7394 72.5037C84.9415 72.7101 85.0381 73 85.0381 73.3689C85.0381 73.7378 84.9371 74.0232 84.7394 74.2297C84.5418 74.4361 84.2739 74.5415 83.9401 74.5415C83.6064 74.5415 83.3341 74.4405 83.1364 74.234C82.9388 74.0276 82.8378 73.7466 82.8378 73.382ZM83.3077 73.3689C83.3077 73.6236 83.3692 73.8212 83.4878 73.953C83.6064 74.0847 83.7557 74.1506 83.9401 74.1506C84.1246 74.1506 84.2739 74.0847 84.3925 73.953C84.5111 73.8212 84.5682 73.6236 84.5682 73.3601C84.5682 73.0966 84.5111 72.9077 84.3969 72.7804C84.2827 72.653 84.1334 72.5871 83.9401 72.5871C83.7469 72.5871 83.5976 72.653 83.4834 72.7804C83.3692 72.9121 83.3077 73.1054 83.3077 73.3645V73.3689ZM85.3938 74.5019V72.2358H85.8374L86.7684 73.7553V72.2358H87.1944V74.5019H86.7377L85.8198 73.0131V74.5019H85.3938ZM87.6775 74.5019V72.2358H89.3552V72.6179H88.1386V73.1229H89.2717V73.505H88.1386V74.1199H89.3991V74.5019H87.6775ZM89.667 73.7685L90.1149 73.7246C90.1413 73.8739 90.194 73.9837 90.2774 74.054C90.3609 74.1243 90.4707 74.1594 90.6068 74.1594C90.7517 74.1594 90.8659 74.1286 90.9406 74.0672C91.0152 74.0057 91.0504 73.931 91.0504 73.8476C91.0504 73.7949 91.0328 73.7466 91.0021 73.7114C90.9713 73.6719 90.9142 73.6412 90.8396 73.6148C90.7869 73.5972 90.6639 73.5621 90.4751 73.5138C90.2291 73.4523 90.0578 73.3777 89.9612 73.2898C89.8207 73.1668 89.7548 73.0131 89.7548 72.8331C89.7548 72.7189 89.7855 72.6091 89.8514 72.5081C89.9173 72.4071 90.0095 72.3324 90.1325 72.2797C90.2555 72.227 90.4048 72.2007 90.5761 72.2007C90.8571 72.2007 91.0723 72.2621 91.2173 72.3895C91.3622 72.5169 91.4368 72.6838 91.4412 72.8946L90.9845 72.9121C90.9669 72.7936 90.923 72.7101 90.8615 72.6618C90.7956 72.6091 90.7034 72.5827 90.5761 72.5827C90.4487 72.5827 90.3389 72.6091 90.2686 72.6662C90.2203 72.7013 90.1984 72.7496 90.1984 72.8067C90.1984 72.8594 90.2203 72.9077 90.2643 72.9429C90.3213 72.9912 90.4619 73.0439 90.6815 73.0966C90.9054 73.1493 91.0679 73.202 91.1733 73.2591C91.2787 73.3162 91.3622 73.3908 91.4237 73.4874C91.4852 73.5841 91.5159 73.707 91.5159 73.8476C91.5159 73.9793 91.4808 74.0979 91.4061 74.2121C91.3358 74.3263 91.2304 74.4097 91.0987 74.4668C90.9669 74.5239 90.8044 74.5503 90.6068 74.5503C90.3213 74.5503 90.1018 74.4844 89.948 74.3526C89.7943 74.2209 89.7021 74.0276 89.6714 73.7773L89.667 73.7685ZM91.8804 74.5019V72.2358H92.3372V74.5019H91.8804ZM94.8185 74.5019H94.3222L94.1246 73.9881H93.2155L93.0267 74.5019H92.5436L93.4219 72.2358H93.905L94.8141 74.5019H94.8185ZM93.9797 73.6016L93.6635 72.7628L93.356 73.6016H93.9797Z" fill="#212E5D"/>
<path fill-rule="evenodd" clip-rule="evenodd" d="M17.1856 75.9907H18.4944C18.7886 75.9907 19.017 76.0127 19.1707 76.0566C19.3771 76.1181 19.5572 76.2279 19.7065 76.386C19.8558 76.5441 19.97 76.7329 20.0447 76.9613C20.1237 77.1897 20.1588 77.4708 20.1588 77.8001C20.1588 78.0944 20.1237 78.3447 20.0491 78.5555C19.9612 78.8146 19.8339 79.0254 19.6714 79.1835C19.5484 79.3065 19.3815 79.3987 19.1663 79.469C19.0082 79.5173 18.7974 79.5437 18.5339 79.5437H17.1856V75.9863V75.9907ZM17.9059 76.5924V78.9464H18.4417C18.6393 78.9464 18.7842 78.9332 18.8721 78.9113C18.9906 78.8805 19.0829 78.8322 19.1619 78.7619C19.241 78.6917 19.3025 78.5775 19.3508 78.4194C19.3991 78.2613 19.4254 78.0417 19.4254 77.7694C19.4254 77.4971 19.4035 77.2863 19.3508 77.137C19.3025 76.9877 19.2366 76.8735 19.1487 76.7944C19.0609 76.711 18.9511 76.6583 18.8194 76.6275C18.7184 76.6056 18.5251 76.5924 18.2309 76.5924H17.9059ZM20.7473 79.548V75.9907H21.4676V79.548H20.7473ZM22.1527 79.548V75.9907H23.6635C24.0455 75.9907 24.3178 76.0215 24.4935 76.0874C24.6648 76.1532 24.8053 76.263 24.9063 76.4255C25.0117 76.588 25.06 76.7769 25.06 76.9877C25.06 77.2556 24.981 77.4751 24.8273 77.6508C24.6692 77.8265 24.4364 77.9319 24.1246 77.9802C24.2783 78.0724 24.4057 78.169 24.5067 78.2788C24.6077 78.3886 24.7438 78.5819 24.9151 78.8585L25.3499 79.5524H24.4935L23.9797 78.7751C23.7952 78.4984 23.6678 78.3271 23.5976 78.2525C23.5317 78.1822 23.457 78.1295 23.3824 78.1032C23.3033 78.0768 23.1848 78.0636 23.0179 78.0636H22.8729V79.548H22.1527ZM22.8729 77.4971H23.4043C23.7469 77.4971 23.9621 77.4839 24.0499 77.4532C24.1334 77.4224 24.2036 77.3741 24.252 77.3039C24.3003 77.2336 24.3266 77.1414 24.3266 77.036C24.3266 76.9174 24.2959 76.8208 24.23 76.7461C24.1685 76.6715 24.0763 76.6275 23.9621 76.6056C23.905 76.5968 23.7293 76.5924 23.4395 76.5924H22.8773V77.4971H22.8729ZM25.7408 79.548V75.9907H28.3714V76.5924H26.461V77.3829H28.2397V77.9846H26.461V78.9464H28.4417V79.548H25.7408ZM29.0653 79.548V75.9907H29.7855V77.5674L31.2348 75.9907H32.201L30.8571 77.3741L32.2669 79.5437H31.3402L30.3609 77.8748L29.7812 78.4677V79.5437H29.0609L29.0653 79.548ZM33.4395 79.548V76.5924H32.3855V75.9907H35.205V76.5924H34.1553V79.548H33.4351H33.4395ZM35.4333 77.7914C35.4333 77.4268 35.486 77.1238 35.5958 76.8779C35.6749 76.6978 35.7891 76.5353 35.9252 76.3904C36.0657 76.2455 36.2194 76.1401 36.3863 76.0698C36.6103 75.9776 36.865 75.9293 37.1549 75.9293C37.6819 75.9293 38.0991 76.0918 38.4153 76.4167C38.7315 76.7417 38.8852 77.1941 38.8852 77.7738C38.8852 78.3535 38.7271 78.8015 38.4153 79.1221C38.1035 79.447 37.6863 79.6095 37.1637 79.6095C36.6411 79.6095 36.2151 79.447 35.9032 79.1264C35.5914 78.8015 35.4333 78.3579 35.4333 77.7914ZM36.1711 77.7694C36.1711 78.1734 36.2634 78.4765 36.4522 78.6873C36.6367 78.8937 36.8738 78.9991 37.1637 78.9991C37.4535 78.9991 37.6863 78.8937 37.8707 78.6917C38.0552 78.4852 38.1474 78.1734 38.1474 77.7606C38.1474 77.3478 38.0596 77.0491 37.8795 76.8471C37.6995 76.6451 37.4623 76.5441 37.1681 76.5441C36.8738 76.5441 36.6323 76.6451 36.4522 76.8471C36.2722 77.0491 36.1799 77.3566 36.1799 77.765L36.1711 77.7694ZM39.443 79.548V75.9907H40.9538C41.3358 75.9907 41.6081 76.0215 41.7838 76.0874C41.9551 76.1532 42.0956 76.263 42.1966 76.4255C42.302 76.588 42.3503 76.7769 42.3503 76.9877C42.3503 77.2556 42.2713 77.4751 42.1176 77.6508C41.9595 77.8265 41.7267 77.9319 41.4149 77.9802C41.5686 78.0724 41.696 78.169 41.797 78.2788C41.898 78.3886 42.0341 78.5819 42.2054 78.8585L42.6402 79.5524H41.7838L41.27 78.7751C41.0855 78.4984 40.9581 78.3271 40.8879 78.2525C40.822 78.1822 40.7473 78.1295 40.6727 78.1032C40.5936 78.0768 40.475 78.0636 40.3082 78.0636H40.1632V79.548H39.443ZM40.1632 77.4971H40.6946C41.0372 77.4971 41.2524 77.4839 41.3402 77.4532C41.4237 77.4224 41.4939 77.3741 41.5422 77.3039C41.5906 77.2336 41.6169 77.1414 41.6169 77.036C41.6169 76.9174 41.5862 76.8208 41.5203 76.7461C41.4544 76.6715 41.3666 76.6275 41.2524 76.6056C41.1953 76.5968 41.0196 76.5924 40.7298 76.5924H40.1676V77.4971H40.1632ZM46.2326 79.548H45.4553L45.1479 78.74H43.7205L43.4263 79.548H42.6665L44.0455 75.9907H44.8053L46.2282 79.548H46.2326ZM44.9151 78.1383L44.4188 76.8208L43.9401 78.1383H44.9151ZM47.0451 79.548H47.7653V76.5924H48.815V75.9907H45.9955V76.5924H47.0495V79.548H47.0451ZM51.9331 75.9907H52.6534V78.2437C52.6534 78.5379 52.627 78.7663 52.5743 78.9244C52.504 79.1308 52.3811 79.2977 52.1966 79.4251C52.0166 79.5481 51.775 79.6139 51.472 79.6139C51.1206 79.6139 50.8527 79.5173 50.6639 79.3197C50.4751 79.1221 50.3784 78.8366 50.3784 78.4545L51.0592 78.3755C51.0679 78.5775 51.0943 78.7224 51.147 78.8058C51.226 78.9332 51.3402 78.9991 51.4983 78.9991C51.6564 78.9991 51.7706 78.9552 51.8365 78.8629C51.9024 78.7707 51.9331 78.5819 51.9331 78.2964V75.9907ZM53.4175 79.548V75.9907H56.0482V76.5924H54.1378V77.3829H55.9164V77.9846H54.1378V78.9464H56.1184V79.548H53.4175ZM56.7289 79.548V75.9907H57.4272L58.8896 78.3755V75.9907H59.5572V79.548H58.8369L57.3964 77.2116V79.548H56.7289ZM60.317 75.9907H61.6257C61.9199 75.9907 62.1483 76.0127 62.302 76.0566C62.5084 76.1181 62.6885 76.2279 62.8378 76.386C62.9871 76.5441 63.1013 76.7329 63.176 76.9613C63.255 77.1897 63.2902 77.4708 63.2902 77.8001C63.2902 78.0944 63.255 78.3447 63.1804 78.5555C63.0925 78.8146 62.9652 79.0254 62.7983 79.1835C62.6753 79.3065 62.5084 79.3987 62.2932 79.469C62.1351 79.5173 61.9243 79.5437 61.6608 79.5437H60.3126V75.9863L60.317 75.9907ZM61.0372 76.5924V78.9464H61.573C61.7706 78.9464 61.9155 78.9332 62.0034 78.9113C62.122 78.8805 62.2142 78.8322 62.2932 78.7619C62.3723 78.6917 62.4338 78.5775 62.4821 78.4194C62.5304 78.2613 62.5567 78.0417 62.5567 77.7694C62.5567 77.4971 62.5348 77.2863 62.4821 77.137C62.4338 76.9877 62.3679 76.8735 62.2801 76.7944C62.1922 76.711 62.0824 76.6583 61.9507 76.6275C61.8497 76.6056 61.6564 76.5924 61.3622 76.5924H61.0372ZM63.905 79.548V75.9907H66.5357V76.5924H64.6253V77.3829H66.4039V77.9846H64.6253V78.9464H66.6059V79.548H63.905ZM67.2164 79.548V75.9907H68.7271C69.1092 75.9907 69.3815 76.0215 69.5572 76.0874C69.7285 76.1532 69.869 76.263 69.97 76.4255C70.0754 76.588 70.1237 76.7769 70.1237 76.9877C70.1237 77.2556 70.0447 77.4751 69.8909 77.6508C69.7328 77.8265 69.5001 77.9319 69.1883 77.9802C69.342 78.0724 69.4693 78.169 69.5704 78.2788C69.6714 78.3886 69.8075 78.5819 69.9788 78.8585L70.4136 79.5524H69.5572L69.0433 78.7751C68.8589 78.4984 68.7315 78.3271 68.6613 78.2525C68.5954 78.1822 68.5207 78.1295 68.4461 78.1032C68.367 78.0768 68.2484 78.0636 68.0816 78.0636H67.9366V79.548H67.2164ZM67.9366 77.4971H68.468C68.8106 77.4971 69.0258 77.4839 69.1136 77.4532C69.1971 77.4224 69.2673 77.3741 69.3156 77.3039C69.3639 77.2336 69.3903 77.1414 69.3903 77.036C69.3903 76.9174 69.3595 76.8208 69.2937 76.7461C69.2278 76.6715 69.14 76.6275 69.0258 76.6056C68.9687 76.5968 68.793 76.5924 68.5032 76.5924H67.941V77.4971H67.9366ZM74.006 79.548H73.2287L72.9213 78.74H71.4939L71.1997 79.548H70.4399L71.8189 75.9907H72.5787L74.0016 79.548H74.006ZM72.6885 78.1383L72.1922 76.8208L71.7135 78.1383H72.6885ZM74.4057 79.548V76.0215H75.1259V78.9464H76.909V79.548H74.4057ZM78.7096 79.548V75.9907H79.8602C80.295 75.9907 80.5805 76.0083 80.7122 76.0434C80.9142 76.0961 81.0855 76.2147 81.2216 76.3904C81.3578 76.5704 81.4281 76.7988 81.4281 77.0843C81.4281 77.3039 81.3885 77.4839 81.3095 77.6333C81.2304 77.7826 81.1294 77.8968 81.0065 77.9846C80.8835 78.068 80.7605 78.1251 80.6332 78.1515C80.4619 78.1866 80.2159 78.2042 79.8909 78.2042H79.4254V79.5437H78.7052L78.7096 79.548ZM79.4298 76.5924V77.6069H79.8207C80.1018 77.6069 80.2906 77.5893 80.3872 77.5498C80.4838 77.5147 80.5585 77.4532 80.6112 77.3741C80.6639 77.2951 80.6902 77.2029 80.6902 77.0975C80.6902 76.9657 80.6507 76.8603 80.5761 76.7769C80.5014 76.6934 80.4048 76.6407 80.2862 76.6188C80.2028 76.6012 80.0315 76.5968 79.7724 76.5968H79.4254L79.4298 76.5924ZM84.858 79.548L83.4351 75.9907H82.6753L81.2963 79.548H82.0561L82.3503 78.74H83.7776L84.0851 79.548H84.8624H84.858ZM83.5405 78.1383H82.5655L83.0442 76.8208L83.5405 78.1383ZM86.5181 75.9907H87.2383V78.2437C87.2383 78.5379 87.212 78.7663 87.1593 78.9244C87.089 79.1308 86.966 79.2977 86.7816 79.4251C86.6015 79.5481 86.36 79.6139 86.057 79.6139C85.7056 79.6139 85.4377 79.5173 85.2489 79.3197C85.06 79.1221 84.9634 78.8366 84.9634 78.4545L85.6441 78.3755C85.6529 78.5775 85.6793 78.7224 85.732 78.8058C85.811 78.9332 85.9252 78.9991 86.0833 78.9991C86.2414 78.9991 86.3556 78.9552 86.4171 78.8629C86.483 78.7707 86.5137 78.5819 86.5137 78.2964V75.9995L86.5181 75.9907ZM91.2085 79.548H90.4311L90.1237 78.74H88.6964L88.4022 79.548H87.6424L89.0214 75.9907H89.7812L91.2041 79.548H91.2085ZM89.891 78.1383L89.3947 76.8208L88.916 78.1383H89.891ZM91.5993 79.548V75.9907H92.3196V77.5674L93.7689 75.9907H94.735L93.3912 77.3741L94.8009 79.5437H93.8743L92.8949 77.8748L92.3152 78.4677V79.5437H91.5949L91.5993 79.548Z" fill="#212E5D"/>
<path fill-rule="evenodd" clip-rule="evenodd" d="M24.4365 41.3531L24.4541 58.8761C24.4805 62.7365 25.5564 65.5208 30.9846 67.5366V67.5937H23.5494C19.3992 67.5937 16.0044 64.1989 16.0044 60.0487V47.5849C18.0114 42.4203 20.7255 41.375 24.4409 41.3531H24.4365Z" fill="url(#paint0_linear_768_293)"/>
<path fill-rule="evenodd" clip-rule="evenodd" d="M23.545 33.0571H35.2271C40.6684 35.086 41.7268 37.8485 41.7356 41.6649H24.5551C20.7782 41.6649 18.0246 42.675 16 47.8968V40.6021C16 36.4519 19.3948 33.0571 23.545 33.0571Z" fill="url(#paint1_linear_768_293)"/>
<path fill-rule="evenodd" clip-rule="evenodd" d="M34.8098 33.0571H42.2495C46.3997 33.0571 49.7945 36.4519 49.7945 40.6021V53.5445C47.7743 58.6126 45.047 59.6008 41.3184 59.6052V41.7176C41.3184 37.8748 40.2732 35.0948 34.8098 33.0571Z" fill="url(#paint2_linear_768_293)"/>
<path fill-rule="evenodd" clip-rule="evenodd" d="M49.7945 52.9517V60.0487C49.7945 64.1989 46.3997 67.5937 42.2495 67.5937H30.9495V67.5366C25.5477 65.5252 24.4629 62.7848 24.4365 59.0123H41.3052C45.0426 59.0123 47.7743 58.0241 49.7945 52.9517Z" fill="url(#paint3_linear_768_293)"/>
<path fill-rule="evenodd" clip-rule="evenodd" d="M61.8719 44.5546C65.3633 44.5546 65.7981 47.8968 65.7981 50.6504C65.7981 53.404 65.4643 56.9218 61.8719 56.9218C58.2794 56.9218 57.9457 53.729 57.9457 50.6504C57.9457 47.8001 58.3804 44.5546 61.8719 44.5546ZM75.1042 33C76.4085 33 77.467 34.0584 77.467 35.3627C77.467 36.6671 76.4085 37.7255 75.1042 37.7255C73.7998 37.7255 72.7414 36.6671 72.7414 35.3627C72.7414 34.0584 73.7998 33 75.1042 33ZM77.019 41.4189H73.1894V62.877C73.1894 63.7685 72.4604 64.4932 71.5732 64.4932H69.6233V67.6508H72.3418C74.9153 67.6508 77.019 65.5472 77.019 62.9736V41.4189ZM88.4156 56.9613C84.9241 56.9613 84.4893 53.6192 84.4893 50.8656C84.4893 48.112 84.8231 44.5942 88.4156 44.5942C92.008 44.5942 92.3418 47.787 92.3418 50.8656C92.3418 53.7158 91.907 56.9613 88.4156 56.9613ZM89.3993 60.343C95.2711 60.343 96.0001 55.3188 96.0001 50.9139C96.0001 46.1532 95.4424 41.2125 89.3993 41.2125C86.9751 41.2125 85.4336 42.0909 84.4586 43.4128V41.4365H80.8178V67.6552H84.4586V58.1383C85.4424 59.4646 86.9839 60.3386 89.3993 60.3386V60.343ZM60.8881 41.173C55.0164 41.173 54.2873 46.1972 54.2873 50.6021C54.2873 55.3627 54.8451 60.3034 60.8881 60.3034C63.3124 60.3034 64.8539 59.4251 65.8288 58.1032V60.0795H69.4696V33.8608H65.8288V43.3733C64.8451 42.047 63.3036 41.173 60.8881 41.173Z" fill="#273D63"/>
</g>
<rect x="1" y="1" width="110" height="110" rx="9" stroke="black" stroke-opacity="0.1" stroke-width="2"/>
<defs>
<linearGradient id="paint0_linear_768_293" x1="57.3252" y1="79.5515" x2="56.2723" y2="34.0067" gradientUnits="userSpaceOnUse">
<stop stop-color="#2E3A7D"/>
<stop offset="1" stop-color="#010310"/>
</linearGradient>
<linearGradient id="paint1_linear_768_293" x1="16" y1="56.3001" x2="96.0001" y2="56.3001" gradientUnits="userSpaceOnUse">
<stop stop-color="#FCE52D"/>
<stop offset="0.38" stop-color="#EFC72A"/>
<stop offset="0.76" stop-color="#E4AE27"/>
<stop offset="1" stop-color="#E1A627"/>
</linearGradient>
<linearGradient id="paint2_linear_768_293" x1="55.2029" y1="33.0154" x2="55.82" y2="79.0266" gradientUnits="userSpaceOnUse">
<stop stop-color="#FCE52D"/>
<stop offset="0.24" stop-color="#FAE02C"/>
<stop offset="0.5" stop-color="#F4D32B"/>
<stop offset="0.77" stop-color="#EBBD29"/>
<stop offset="1" stop-color="#E1A627"/>
</linearGradient>
<linearGradient id="paint3_linear_768_293" x1="94.1019" y1="58.4042" x2="17.7382" y2="52.7605" gradientUnits="userSpaceOnUse">
<stop stop-color="#2E3A7D"/>
<stop offset="1" stop-color="#010310"/>
</linearGradient>
<clipPath id="clip0_768_293">
<rect x="2" y="2" width="108" height="108" rx="8" fill="white"/>
</clipPath>
</defs>
</svg>
