<svg width="112" height="112" viewBox="0 0 112 112" fill="none" xmlns="http://www.w3.org/2000/svg">
<g clip-path="url(#clip0_768_297)">
<rect x="2" y="2" width="108" height="108" rx="8" fill="white"/>
<g clip-path="url(#clip1_768_297)">
<path d="M31.2785 92.2557L16 47.5991L56.0011 20L96 47.5991L80.7212 92.2557H31.2785Z" fill="#231F20"/>
<path d="M79.0266 89.8452H32.9733L32.9088 89.6565L18.7526 48.2814L55.9987 22.5818L93.2458 48.2814L93.18 48.4748L79.0266 89.8452ZM55.9987 20.8646L17.0493 47.7397L31.9337 91.2458H80.0663L94.9503 47.7397L55.9987 20.8646Z" fill="white"/>
<path d="M56.1639 22.6951L55.9989 22.5811L18.7524 48.2814L32.9086 89.6559L32.9732 89.8449H79.0265L93.1802 48.4745L93.246 48.2811L56.1639 22.6951Z" fill="#231F20"/>
<path d="M33.3378 89.2466L19.3311 48.3096L55.9991 23.0089L92.6688 48.3096L78.662 89.2466H33.3378Z" fill="#275AB1"/>
<path d="M63.4921 66.7492C62.4964 66.8293 62.2273 66.4437 62.226 66.4418L62.0915 66.224L62.0589 66.4757C61.842 68.1621 60.6922 68.9213 60.6789 68.9283L60.2056 69.2357L60.7539 69.0859C63.4044 68.3654 63.5826 66.9069 63.5883 66.8458L63.5987 66.7407L63.4921 66.7492Z" fill="#231F20"/>
<path d="M62.2089 66.6935C62.0243 67.7775 61.483 68.4626 61.1211 68.8121C62.8848 68.2179 63.2932 67.2669 63.3841 66.9534C62.7278 66.9848 62.3798 66.8217 62.2089 66.6935Z" fill="#FAB20B"/>
<path d="M60.6037 45.7519C60.6037 45.5414 60.4591 45.3555 60.2394 45.2469C60.5183 45.1485 60.712 44.9421 60.712 44.7008C60.712 44.5169 60.5971 44.3535 60.422 44.2421H60.4296L60.4268 44.0366C60.3948 42.1627 58.3854 40.639 55.9449 40.639C53.5043 40.639 51.4927 42.1627 51.4617 44.0366L51.4582 44.2421H51.4655C51.2904 44.3535 51.1758 44.5169 51.1758 44.7008C51.1758 44.9424 51.3695 45.1488 51.6491 45.2469C51.4297 45.3555 51.2844 45.541 51.2844 45.7519C51.2844 45.9941 51.4765 46.2018 51.7517 46.299C51.5354 46.4075 51.393 46.5928 51.393 46.8042C51.393 47.0461 51.5829 47.2528 51.8542 47.351C51.6424 47.4599 51.5012 47.6451 51.5012 47.8563C51.5012 48.0984 51.6899 48.308 51.9606 48.4046C51.7507 48.5148 51.6089 48.7006 51.6089 48.9073C51.6089 49.1463 51.7998 49.3572 52.0663 49.4557C51.8583 49.5649 51.7168 49.7517 51.7168 49.9593C51.7168 50.1996 51.9065 50.4105 52.1702 50.5074C51.9641 50.6175 51.8248 50.804 51.8248 51.011C51.8248 51.2517 52.0135 51.4641 52.2756 51.561C52.073 51.6714 51.9337 51.8595 51.9337 52.0627C51.9337 52.2992 52.1224 52.5139 52.381 52.612C52.18 52.7225 52.0416 52.9109 52.0416 53.1145C52.0416 53.3513 52.2281 53.5656 52.4836 53.6637C52.2857 53.7749 52.1506 53.9626 52.1506 54.1662C52.1506 54.4052 52.3377 54.6211 52.5916 54.7183C52.4016 54.825 52.2582 55.0048 52.2582 55.2182C52.2582 55.4702 52.4586 55.6737 52.6986 55.7678C52.5115 55.8751 52.3665 56.0562 52.3665 56.2705C52.3665 56.5216 52.565 56.7261 52.8024 56.8198C52.6172 56.9271 52.4744 57.1082 52.4744 57.3213C52.4744 57.5749 52.6732 57.7806 52.9085 57.8731C52.7252 57.9823 52.584 58.1631 52.584 58.3733C52.584 58.6224 52.7825 58.8304 53.0142 58.9241C52.8328 59.0321 52.6926 59.2145 52.6926 59.4253C52.6926 59.6748 52.8885 59.8825 53.1168 59.9771C52.9379 60.0848 52.7999 60.2662 52.7999 60.4773C52.7999 60.7284 52.9962 60.937 53.2228 61.0307C53.0465 61.1399 52.9088 61.3217 52.9088 61.5293C52.9088 61.776 53.1038 61.9865 53.3276 62.0818C53.1529 62.1907 53.0164 62.3734 53.0164 62.5798C53.0164 62.828 53.2099 63.0385 53.4296 63.1341C53.2596 63.2433 53.1256 63.4241 53.1256 63.6318C53.1256 63.881 53.3165 64.0931 53.5344 64.1868C53.3669 64.2973 53.2326 64.4818 53.2326 64.6841C53.2326 64.9263 53.4239 65.1426 53.6391 65.2379C53.4723 65.3496 53.3425 65.5329 53.3425 65.7352C53.3425 65.9796 53.5312 66.1971 53.7449 66.2924C53.5806 66.4038 53.4508 66.5884 53.4508 66.7885C53.4508 67.0288 53.6429 67.2485 53.8506 67.3432C53.6926 67.4521 53.5581 67.6294 53.5581 67.8396C53.5581 68.0951 53.7572 68.3027 53.957 68.3952C53.799 68.5031 53.6667 68.6804 53.6667 68.8913C53.6667 69.148 53.8639 69.3573 54.0608 69.4481C53.9076 69.5586 53.7746 69.7385 53.7746 69.943C53.7746 70.1934 53.9706 70.4065 54.1631 70.5002C54.0134 70.61 53.8836 70.7905 53.8836 70.995C53.8836 71.2467 54.0783 71.4613 54.2685 71.5544C54.1204 71.6655 53.9925 71.846 53.9925 72.047C53.9925 72.2943 54.1853 72.5118 54.3739 72.6058C54.227 72.716 54.1004 72.8967 54.1004 73.0984C54.1004 73.4267 54.4376 73.7047 54.6487 73.7047H57.2406C57.4524 73.7047 57.7899 73.427 57.7899 73.0984C57.7899 72.8967 57.663 72.716 57.5173 72.6058C57.7035 72.5118 57.8982 72.2943 57.8982 72.047C57.8982 71.846 57.7693 71.6655 57.6212 71.5544C57.8127 71.4616 58.0061 71.2467 58.0061 70.995C58.0061 70.7908 57.8757 70.61 57.7253 70.5002C57.9194 70.4065 58.1132 70.1934 58.1132 69.943C58.1132 69.7388 57.9827 69.559 57.8285 69.4481C58.0258 69.3573 58.2224 69.148 58.2224 68.8913C58.2224 68.6807 58.0897 68.5035 57.9333 68.3952C58.1322 68.3027 58.3307 68.0951 58.3307 67.8396C58.3307 67.6294 58.1967 67.4521 58.0394 67.3432C58.2474 67.2485 58.4396 67.0288 58.4396 66.7885C58.4396 66.5884 58.3088 66.4038 58.1454 66.2924C58.3572 66.1971 58.5478 65.9796 58.5478 65.7352C58.5478 65.5329 58.4158 65.3499 58.2502 65.2379C58.4652 65.1426 58.6558 64.9263 58.6558 64.6841C58.6558 64.4818 58.5219 64.2976 58.3544 64.1868C58.5719 64.0931 58.7637 63.8806 58.7637 63.6318C58.7637 63.4241 58.6298 63.2433 58.4601 63.1341C58.6789 63.0388 58.8717 62.828 58.8717 62.5798C58.8717 62.3734 58.7362 62.1907 58.5624 62.0818C58.7843 61.9865 58.98 61.7757 58.98 61.5293C58.98 61.3217 58.8419 61.1403 58.6672 61.0307C58.8939 60.937 59.0886 60.7284 59.0886 60.4773C59.0886 60.2662 58.9508 60.0848 58.7729 59.9771C59.0005 59.8825 59.1975 59.6748 59.1975 59.4253C59.1975 59.2148 59.0572 59.0324 58.8755 58.9241C59.1069 58.8304 59.3057 58.6224 59.3057 58.3733C59.3057 58.1631 59.1649 57.9823 58.9803 57.8731C59.2158 57.7806 59.4137 57.5752 59.4137 57.3213C59.4137 57.1082 59.2734 56.9277 59.086 56.8198C59.3238 56.7261 59.5217 56.5219 59.5217 56.2705C59.5217 56.0562 59.3782 55.8751 59.1889 55.7678C59.4292 55.6737 59.6309 55.4702 59.6309 55.2182C59.6309 55.0051 59.4862 54.8253 59.2969 54.7183C59.5514 54.6211 59.7376 54.4052 59.7376 54.1662C59.7376 53.9626 59.603 53.7749 59.4042 53.6637C59.66 53.5659 59.8465 53.3513 59.8465 53.1145C59.8465 52.9109 59.7084 52.7228 59.5074 52.612C59.7654 52.5142 59.9547 52.2992 59.9547 52.0627C59.9547 51.8592 59.8158 51.6714 59.6119 51.561C59.8753 51.4638 60.0627 51.2517 60.0627 51.011C60.0627 50.8043 59.925 50.6175 59.7186 50.5074C59.9823 50.4108 60.171 50.1996 60.171 49.9593C60.171 49.7517 60.0304 49.5652 59.8224 49.4557C60.0893 49.3572 60.2786 49.1463 60.2786 48.9073C60.2786 48.7006 60.1377 48.5148 59.9269 48.4046C60.1976 48.308 60.3869 48.0984 60.3869 47.8563C60.3869 47.6451 60.2463 47.4599 60.0333 47.351C60.3055 47.2532 60.4958 47.0461 60.4958 46.8042C60.4958 46.5928 60.353 46.4075 60.1365 46.299C60.4116 46.2018 60.6037 45.9941 60.6037 45.7519Z" fill="#231F20"/>
<path d="M59.8888 44.2687H51.9997C51.6451 44.2687 51.3555 44.4621 51.3555 44.7008C51.3555 44.9395 51.6451 45.1317 51.9997 45.1317H59.8888C60.2443 45.1317 60.5324 44.9379 60.5324 44.7008C60.5324 44.4618 60.244 44.2687 59.8888 44.2687ZM52.0975 45.3201C51.7541 45.3201 51.4634 45.5186 51.4634 45.7519C51.4634 45.9852 51.7537 46.184 52.0975 46.184H59.7897C60.1332 46.184 60.4238 45.9855 60.4238 45.7519C60.4238 45.5182 60.1335 45.3201 59.7897 45.3201H52.0975ZM52.1951 47.2357H59.6918C60.0303 47.2357 60.3149 47.0372 60.3149 46.8042C60.3149 46.5712 60.0303 46.3715 59.6918 46.3715H52.1951C51.8582 46.3715 51.5717 46.5693 51.5717 46.8042C51.5717 47.0372 51.8582 47.2357 52.1951 47.2357ZM52.2938 48.2874H59.594C59.9268 48.2874 60.2069 48.0902 60.2069 47.8566C60.2069 47.6207 59.9268 47.4244 59.594 47.4244H52.2938C51.9617 47.4244 51.6806 47.6207 51.6806 47.8566C51.6806 48.0905 51.9617 48.2874 52.2938 48.2874ZM52.392 49.3395H59.4952C59.8159 49.3395 60.0977 49.1372 60.0977 48.9073C60.0977 48.6775 59.8163 48.4764 59.4952 48.4764H52.392C52.0706 48.4764 51.7892 48.6775 51.7892 48.9073C51.7892 49.1372 52.0706 49.3395 52.392 49.3395ZM52.4904 50.3902H59.3971C59.7127 50.3902 59.991 50.1879 59.991 49.9593C59.991 49.7285 59.7127 49.5272 59.3971 49.5272H52.4904C52.1742 49.5272 51.8975 49.7285 51.8975 49.9593C51.8975 50.1882 52.1745 50.3902 52.4904 50.3902ZM52.5876 51.4425H59.2993C59.6098 51.4425 59.8808 51.2403 59.8808 51.011C59.8808 50.7818 59.6098 50.5792 59.2993 50.5792H52.5876C52.2764 50.5792 52.0051 50.7802 52.0051 51.011C52.0051 51.2418 52.2764 51.4425 52.5876 51.4425ZM52.6864 52.4939H59.2021C59.5013 52.4939 59.7745 52.2885 59.7745 52.0624C59.7745 51.8364 59.5013 51.6297 59.2021 51.6297H52.6864C52.3863 51.6297 52.1137 51.8364 52.1137 52.0624C52.1137 52.2885 52.3863 52.4939 52.6864 52.4939ZM52.7836 53.5453H59.1043C59.3971 53.5453 59.6662 53.3399 59.6662 53.1144C59.6662 52.889 59.3974 52.6823 59.1043 52.6823H52.7836C52.4908 52.6823 52.2213 52.8878 52.2213 53.1144C52.2213 53.3411 52.4908 53.5453 52.7836 53.5453ZM52.8817 54.5977H59.0055C59.2939 54.5977 59.5579 54.3922 59.5579 54.1655C59.5579 53.9388 59.2936 53.7346 59.0055 53.7346H52.8817C52.593 53.7346 52.3293 53.9388 52.3293 54.1655C52.3293 54.3922 52.593 54.5977 52.8817 54.5977ZM52.9805 55.6494H58.9061C59.1568 55.6494 59.449 55.4607 59.449 55.2175C59.449 54.9744 59.1568 54.786 58.9061 54.786H52.9805C52.7298 54.786 52.4382 54.9738 52.4382 55.2175C52.4382 55.4613 52.7298 55.6494 52.9805 55.6494ZM53.0783 56.7014H58.8086C59.0552 56.7014 59.3404 56.5117 59.3404 56.2696C59.3404 56.0274 59.0552 55.8374 58.8086 55.8374H53.0783C52.833 55.8374 52.5468 56.0261 52.5468 56.2696C52.5468 56.513 52.833 56.7014 53.0783 56.7014ZM53.1762 57.7528H58.7111C58.9466 57.7528 59.2318 57.5593 59.2318 57.3206C59.2318 57.0819 58.9466 56.8898 58.7111 56.8898H53.1762C52.9409 56.8898 52.656 57.0819 52.656 57.3206C52.656 57.5593 52.9409 57.7528 53.1762 57.7528ZM53.2749 58.8038H58.6123C58.844 58.8038 59.1236 58.6123 59.1236 58.373C59.1236 58.1336 58.844 57.9408 58.6123 57.9408H53.2749C53.0432 57.9408 52.763 58.1343 52.763 58.373C52.763 58.6117 53.0432 58.8038 53.2749 58.8038ZM53.3728 59.8565H58.5151C58.7414 59.8565 59.0156 59.6574 59.0156 59.4244C59.0156 59.1913 58.7411 58.9928 58.5151 58.9928H53.3728C53.1474 58.9928 52.8726 59.192 52.8726 59.4244C52.8726 59.6567 53.1474 59.8565 53.3728 59.8565ZM53.4715 60.9079H58.4163C58.637 60.9079 58.9077 60.7078 58.9077 60.4764C58.9077 60.2434 58.637 60.0445 58.4163 60.0445H53.4715C53.2496 60.0445 52.9792 60.2434 52.9792 60.4764C52.9792 60.7078 53.2493 60.9079 53.4715 60.9079ZM53.5684 61.9593H58.3188C58.5303 61.9593 58.7997 61.7567 58.7997 61.5284C58.7997 61.2954 58.535 61.0962 58.3188 61.0962H53.5684C53.3531 61.0962 53.0885 61.2954 53.0885 61.5284C53.0885 61.7567 53.3566 61.9593 53.5684 61.9593ZM53.6669 63.0113H58.2207C58.4268 63.0113 58.6905 62.8087 58.6905 62.5791C58.6905 62.3512 58.4268 62.1483 58.2207 62.1483H53.6669C53.4601 62.1483 53.1958 62.3512 53.1958 62.5791C53.1958 62.8071 53.4601 63.0113 53.6669 63.0113ZM53.7656 64.063H58.1219C58.3039 64.063 58.5828 63.8692 58.5828 63.6308C58.5828 63.3925 58.3039 63.1993 58.1219 63.1993H53.7656C53.5836 63.1993 53.3047 63.3931 53.3047 63.6308C53.3047 63.8686 53.5836 64.063 53.7656 64.063ZM53.8628 65.1147H58.0244C58.2026 65.1147 58.4739 64.9209 58.4739 64.6832C58.4739 64.4454 58.2026 64.2517 58.0244 64.2517H53.8628C53.6855 64.2517 53.4136 64.4451 53.4136 64.6832C53.4136 64.9213 53.6855 65.1147 53.8628 65.1147ZM53.9613 66.1661H57.9259C58.0956 66.1661 58.3663 65.9695 58.3663 65.7343C58.3663 65.499 58.0956 65.3027 57.9259 65.3027H53.9613C53.7913 65.3027 53.5216 65.5 53.5216 65.7343C53.5216 65.9685 53.7913 66.1661 53.9613 66.1661ZM54.0598 67.2184H57.8275C57.9943 67.2184 58.2577 67.0209 58.2577 66.7875C58.2577 66.5517 57.9943 66.3554 57.8275 66.3554H54.0598C53.8929 66.3554 53.6301 66.5517 53.6301 66.7875C53.6301 67.0209 53.8932 67.2184 54.0598 67.2184ZM54.1573 68.2692H57.73C57.8879 68.2692 58.1501 68.0681 58.1501 67.8383C58.1501 67.6085 57.8879 67.4062 57.73 67.4062H54.1573C53.9999 67.4062 53.7384 67.6085 53.7384 67.8383C53.7384 68.0681 53.9996 68.2692 54.1573 68.2692ZM54.256 69.3215H57.6309C57.7702 69.3215 58.0415 69.1262 58.0415 68.89C58.0415 68.6538 57.7702 68.4582 57.6309 68.4582H54.256C54.1167 68.4582 53.8461 68.6535 53.8461 68.89C53.8461 69.1265 54.1167 69.3215 54.256 69.3215ZM54.3532 70.3735H57.533C57.6688 70.3735 57.9329 70.1782 57.9329 69.9417C57.9329 69.7052 57.6692 69.5089 57.533 69.5089H54.3532C54.219 69.5089 53.9543 69.7052 53.9543 69.9417C53.9543 70.1782 54.219 70.3735 54.3532 70.3735ZM54.4523 71.4243H57.4355C57.5647 71.4243 57.8252 71.2242 57.8252 70.9934C57.8252 70.7487 57.5482 70.5625 57.4355 70.5625H54.4523C54.3396 70.5625 54.0626 70.7487 54.0626 70.9934C54.0626 71.2381 54.3396 71.4243 54.4523 71.4243ZM54.5495 72.4769H57.3371C57.4447 72.4769 57.716 72.2854 57.716 72.0454C57.716 71.8055 57.4447 71.6133 57.3371 71.6133H54.5495C54.4441 71.6133 54.1709 71.8045 54.1709 72.0454C54.1709 72.2864 54.4441 72.4769 54.5495 72.4769ZM54.6477 73.5286H57.2399C57.3428 73.5286 57.6084 73.3374 57.6084 73.0968C57.6084 72.8562 57.3428 72.665 57.2399 72.665H54.6477C54.5438 72.665 54.2792 72.8562 54.2792 73.0968C54.2792 73.3374 54.5438 73.5286 54.6477 73.5286Z" fill="#FAB20B"/>
<path d="M51.4614 44.2465H60.4237V44.0721H51.4614V44.2465Z" fill="#231F20"/>
<path d="M55.9535 40.816C53.707 40.816 51.8391 42.1482 51.6641 43.8277L52.5882 42.9884L53.7105 44.0062L54.8322 42.9884L55.9538 44.0062L57.0758 42.9884L58.1968 44.0062L59.3201 42.9884L60.2442 43.8277C60.0704 42.1482 58.2025 40.816 55.9535 40.816ZM52.579 43.2847L53.4746 44.0965H51.8233H51.822C51.7729 44.0963 51.7239 44.0994 51.6751 44.1056L52.579 43.2847ZM54.8214 43.2847L55.7157 44.0965H53.9267L54.8214 43.2847ZM57.0666 43.2847L57.9597 44.0965H56.1704L57.0666 43.2847ZM59.31 43.2847L60.2141 44.1056C60.1649 44.0994 60.1153 44.0964 60.0657 44.0965H60.0644H58.4131L59.31 43.2847Z" fill="#FAB20B"/>
<path d="M40.3872 37.9452L40.2124 38.0199C38.071 38.9396 37.4011 41.5267 37.202 42.7421L36.4359 40.608L36.275 40.7944C35.9088 41.2209 34.1261 43.488 34.1625 47.1807L32.5048 44.9066L32.3893 45.0595C32.3712 45.0833 30.6965 47.3481 31.9296 51.5264C30.2121 50.092 30.1817 50.092 30.1184 50.092L30.0123 50.0933L29.9829 50.1917C29.3424 52.3303 30.088 54.9282 30.3967 55.8475L28.5323 54.723L28.5465 54.9867C28.5544 55.1169 28.7419 58.0434 29.955 59.6191L28.4243 59.1844L28.4525 59.3943C28.455 59.4199 28.7979 61.8079 30.409 63.0645L29.0613 62.7767L29.0939 62.9768C29.098 63.0031 29.5216 65.4965 31.404 66.5843L29.9088 66.4099L29.9661 66.6087C29.9696 66.6188 30.276 67.6607 30.7547 68.3141C31.1713 68.8853 31.8713 69.6606 33.257 70.1089L31.896 70.2026L32.009 70.3935C32.0154 70.4061 32.7369 71.6228 33.315 72.2031C34.3486 73.2428 35.7549 73.749 37.612 73.749L37.8789 73.7461L37.9026 73.7452L41.8068 71.5544L41.9093 71.1735L41.8536 71.1175C41.8156 71.0798 41.7856 71.0453 41.7615 71.0137C41.7273 70.9592 41.5142 70.4334 41.4107 70.1795L41.4044 70.1627L41.2312 69.7457C40.9792 69.2886 40.5901 68.3971 40.076 67.0975L40.0206 66.9566C39.843 66.5643 39.5926 66.2918 39.3485 66.028C39.0927 65.7504 38.8505 65.4883 38.7637 65.1239L38.7508 65.0685L38.7188 64.933C38.5722 64.2609 38.4899 63.5815 38.4756 62.9103L38.4728 62.7216C38.4725 62.0704 38.5371 61.416 38.6656 60.7762C38.677 60.7182 38.6897 60.6613 38.7045 60.5948C38.8565 59.9071 39.0854 59.2255 39.3846 58.567L39.4634 58.397C39.7531 57.7928 40.0951 57.2152 40.4857 56.6707L40.5984 56.5165C40.8351 56.1958 41.0877 55.8872 41.3553 55.5917L41.4949 55.4398C41.8207 55.0928 42.0949 54.8398 42.2684 54.6917C42.3345 54.6322 42.3874 54.5894 42.4289 54.5559L42.4874 54.5077L40.3872 37.9452Z" fill="#231F20"/>
<path d="M40.4306 71.5167L34.5962 73.9731C34.5962 73.9731 37.6269 76.6894 41.4687 75.1974C42.9367 74.6266 45.2335 71.8564 43.095 69.9838C42.3488 69.3304 40.6607 69.5203 40.3065 70.6363C40.0453 71.4616 41.0527 72.8451 42.3665 71.9102M45.4662 66.6837L45.3282 67.024C43.8149 66.1974 42.7812 63.9459 42.7812 63.9459L41.7767 54.6144C41.1337 54.736 39.3887 55.2755 39.2668 57.5483L39.2659 57.5549V57.6185C38.0489 58.2413 38.0362 60.2399 38.1087 60.6704C36.8715 62.248 37.8732 64.1811 38.0581 64.473C37.612 66.2386 38.5295 66.887 38.7783 67.0244C38.7343 67.8715 38.9312 68.3607 39.2924 68.7228C39.667 69.0993 40.1627 69.1024 40.4249 69.0711C40.4987 69.063 40.5716 69.0487 40.643 69.0284L40.6902 69.0147L40.7044 68.9654C41.0156 67.8924 42.2332 66.9496 43.0082 66.552C43.0541 66.6036 43.2083 66.7787 43.2615 66.8293C43.2615 66.8293 44.4794 68.0029 46.112 67.2931L45.4662 66.6837Z" fill="#FAB20B"/>
<path d="M41.5692 71.3945L41.453 70.9162L40.7224 69.8907L32.4607 70.4704C32.6073 70.762 33.1698 71.562 33.6675 72.0619C34.2804 72.6764 35.4189 73.409 37.3649 73.409C37.536 73.4091 37.7071 73.4036 37.8778 73.3925L41.5692 71.3945ZM34.4888 70.0709L40.7252 69.5906C40.4045 69.0021 40.3057 68.6557 40.2183 68.3496C40.161 68.1467 40.1056 67.9545 39.9942 67.711L30.3627 66.7853C30.4999 67.2789 30.7261 67.7432 31.03 68.1555C31.7851 69.1892 32.9495 69.8331 34.4888 70.0709ZM31.2814 63.2468L31.4033 63.3086L38.5186 64.9001C38.382 64.2571 38.3048 63.6029 38.2878 62.9458L30.7014 60.1775L28.8472 59.6441C28.9887 60.3523 29.5332 62.3651 31.2814 63.2472M32.5082 66.709L39.349 67.4217C39.0271 66.7038 38.7722 65.9577 38.5876 65.1929L30.4462 63.3719L30.4491 63.3643L29.468 63.1842C29.6152 63.7917 30.3041 66.0569 32.5082 66.709ZM40.1702 38.4732C38.2318 39.1989 37.5362 42.7095 37.4108 43.4433L41.4103 55.2568C41.6377 55.0171 41.8756 54.7876 42.1233 54.5689L40.1702 38.4732ZM38.2843 62.6542C38.288 62.0223 38.3512 61.3921 38.473 60.7721L30.495 56.3034L28.9171 55.3309C28.9485 56.0005 29.2828 58.587 30.5786 59.8438L38.2843 62.6542ZM30.8749 56.2024L38.5322 60.4938C38.6851 59.8255 38.9096 59.1632 39.1986 58.5211L32.1764 52.1485L30.2411 50.5267C30.0717 51.093 29.7317 52.909 30.8749 56.2024ZM32.3929 51.9741L39.3186 58.2612C39.6026 57.6777 39.9348 57.1188 40.3117 56.5906L34.0113 47.5625L34.0288 47.5511L32.5044 45.4201C32.1292 46.1039 31.2054 48.3264 32.3929 51.9741Z" fill="#FAB20B"/>
<path d="M36.3255 41.3396C35.7847 41.9915 34.3116 44.1218 34.4946 47.7635V47.7736L40.4845 56.3544C40.7084 56.0552 40.9456 55.7661 41.1952 55.4879L37.1372 43.5006L36.3255 41.3396ZM45.2371 66.7822L45.5907 65.9717C45.049 65.4028 44.5703 64.738 44.3348 64.0085L40.5687 41.1117L42.9396 63.7236C42.9431 63.7325 43.2071 64.6898 44.0806 65.7153C44.3693 66.0559 44.7495 66.4285 45.2368 66.7825" fill="#FAB20B"/>
<path d="M43.0518 64.5486C43.2923 65.0082 43.5829 65.4398 43.9183 65.8356C44.2681 66.25 44.679 66.6261 45.1365 66.956L44.9424 67.4017C43.9854 67.3634 43.3307 66.7518 43.3244 66.7448C43.2927 66.7157 43.2139 66.6273 43.1737 66.5827C42.7662 65.9394 42.8574 65.0112 43.0518 64.5486ZM42.9644 63.7217L40.6761 41.9123L44.3131 64.0152C44.5223 64.6626 44.9424 65.3221 45.5626 65.9768L45.2283 66.7464C44.8124 66.4431 44.4332 66.0923 44.0984 65.7013C43.2344 64.6857 42.9663 63.7274 42.9647 63.722M40.7559 65.1884C40.7698 65.1546 40.8202 65.0476 40.8901 65.0387C41.2456 65.2806 41.6857 65.4085 42.1641 65.4085C42.3239 65.4085 42.4867 65.3933 42.6481 65.3651C42.6253 65.7843 42.694 66.1746 42.852 66.4963C42.6573 66.6023 42.1976 66.8736 41.7126 67.3071C41.6978 67.2937 41.68 67.284 41.6607 67.2789C41.3352 67.2013 41.0519 66.9607 40.8642 66.6014C40.6277 66.1531 40.5856 65.5981 40.7559 65.1884ZM38.1079 64.6958C38.435 65.0127 39.0555 65.1938 39.8213 65.1938C40.042 65.1938 40.2769 65.179 40.5203 65.1511C40.3671 65.5699 40.3912 66.0895 40.5875 66.5514C40.3355 66.7397 40.0122 66.8714 39.65 66.9351C39.5358 66.9544 39.3863 66.9772 39.2369 66.9772C39.0422 66.9772 38.875 66.9389 38.7243 66.8607C38.7196 66.8578 38.7164 66.8566 38.7129 66.8566C38.4353 66.6581 37.8344 66.0572 38.1079 64.6958ZM41.057 61.1352L41.0623 61.1665C41.0722 61.2245 41.0753 61.264 41.0424 61.2792C40.4627 61.5414 40.0651 62.0153 40.0002 62.519C39.0463 62.4174 38.3125 61.6727 38.2093 60.6983L38.2127 60.6948L38.208 60.6692L38.1975 60.4998C38.1972 60.4817 38.1937 60.4646 38.1852 60.4482C38.1494 59.7846 38.303 58.4015 39.1302 57.8189C39.1695 59.0387 39.9562 60.0392 41.0589 60.269C41.0224 60.5416 41.0221 60.8569 41.057 61.1352ZM40.7366 55.1074C41.1681 54.8538 41.5815 54.7487 41.7645 54.7119L42.1555 58.4109C42.1527 58.4119 42.1476 58.4132 42.1438 58.416C41.5692 58.7867 41.3058 59.4291 41.1247 60.0138C40.0952 59.7906 39.3569 58.8133 39.361 57.6809L39.3632 57.552C39.4224 56.4323 39.8846 55.6091 40.7369 55.1077M42.6697 65.1166C42.4962 65.1543 42.3201 65.172 42.1466 65.172C41.2991 65.172 40.6549 64.749 40.3779 64.0117C40.0318 63.0873 40.1154 61.9564 41.0886 61.5132C41.1067 61.5046 41.1206 61.4983 41.1307 61.4983C41.3273 62.2546 41.8703 63.0243 42.6465 63.0632L42.7403 63.9433L42.763 63.9417L42.7577 63.9481C42.7675 63.9582 42.7972 64.0228 42.8314 64.0978L42.902 64.2501L42.9011 64.2517C42.7858 64.5394 42.7086 64.8307 42.6697 65.1166ZM41.6148 62.1191C41.4422 61.7987 41.3172 61.359 41.2593 60.881C41.2035 60.4127 41.5527 59.0283 42.1862 58.7092L42.6209 62.8197C42.2128 62.7852 41.8291 62.518 41.6145 62.1191M40.1024 63.9132C40.2072 64.2944 40.3966 64.6135 40.6669 64.8639C40.4019 64.9175 40.1278 64.945 39.8501 64.945C39.0678 64.945 38.3761 64.725 38.1671 64.4103C38.1532 64.3891 38.1342 64.3739 38.1111 64.3669C37.8957 63.9708 37.7432 63.5435 37.659 63.1006C37.5086 62.2964 37.6299 61.5781 38.0177 60.9658C38.2051 61.9311 38.9995 62.6615 39.9758 62.758C39.954 63.1205 39.9989 63.5295 40.1024 63.9132ZM40.2034 68.9682C39.9644 68.9682 39.6235 68.9112 39.3563 68.6412C39.0064 68.2916 38.857 67.8335 38.8709 67.1605C38.9875 67.1828 39.1059 67.1935 39.2246 67.1924C39.3715 67.1923 39.5182 67.1796 39.663 67.1545C39.8172 67.1266 40.3358 67.0186 40.6929 66.7682C40.8952 67.1212 41.1877 67.3748 41.5223 67.4853C41.0383 67.9592 40.7217 68.4411 40.5792 68.9216C40.518 68.9377 40.4557 68.9493 40.3928 68.9562C40.3298 68.9639 40.2665 68.9678 40.2031 68.9679M53.3276 74.1311L53.2934 74.1007C52.5981 73.4932 52.1727 72.4915 52.0292 71.1222C51.9643 70.5147 51.9928 69.8961 52.0194 69.4826L52.0308 69.3028L52.0514 69.2424L52.0349 69.2382L52.0378 69.1923L51.9995 69.2287L51.9349 69.2113C49.336 68.5164 47.6201 67.44 46.6374 66.6587C46.374 66.4447 46.1293 66.2281 45.9131 66.0151C45.8267 65.9267 45.7852 65.8796 45.7852 65.8786L45.6671 65.7377L45.6598 65.7539C45.101 65.152 44.7218 64.5496 44.5328 63.9645L40.2702 38.232L40.2661 38.2095L40.042 38.2386L41.75 54.4989C41.1405 54.6176 39.2625 55.1716 39.135 57.5368V57.547C37.9411 58.2194 37.9139 60.1357 37.9734 60.634C36.7374 62.2575 37.7743 64.2257 37.9193 64.4828C37.5302 66.0872 38.2523 66.803 38.5863 67.0392C38.598 67.0573 38.6116 67.0699 38.6303 67.0797C38.6341 67.082 38.6392 67.0839 38.6442 67.0858C38.6151 67.857 38.7858 68.3847 39.1929 68.7941C39.5168 69.1198 39.9214 69.1879 40.2044 69.1879C40.2756 69.1879 40.3497 69.1832 40.4219 69.1749C40.4997 69.166 40.5767 69.1513 40.6524 69.1309L40.766 69.0964L40.7967 68.9897C41.1022 67.9377 42.2907 67.0544 42.9606 66.6888C42.9793 66.7192 42.9995 66.7505 43.0223 66.7809C43.0397 66.8034 43.0625 66.8189 43.0923 66.8265C43.116 66.8523 43.1401 66.8776 43.1648 66.9025C43.1942 66.9316 43.9094 67.6094 44.9975 67.6265C45.1131 67.8798 45.5544 68.6861 46.6754 69.3259C45.9052 70.6797 45.8878 72.173 46.6226 73.6464C47.1991 74.8042 48.0406 75.5741 48.2033 75.7169L48.2346 75.7451H53.4238L53.3276 74.1311Z" fill="#231F20"/>
<path d="M51.771 69.3794C51.6427 69.5504 51.2188 69.9287 49.9952 69.9287C49.6103 69.9287 49.1743 69.891 48.6972 69.817C46.4586 69.4678 45.4038 68.14 45.1426 67.4578L45.7273 66.118C46.1614 66.5697 48.0688 68.3645 51.7713 69.3798" fill="#F9B10C"/>
<path d="M46.8056 73.5543C46.1005 72.1407 46.1065 70.7667 46.8236 69.4691C47.3539 69.7112 47.9668 69.8958 48.6487 70.0171C49.1689 70.1095 49.6479 70.1573 50.0686 70.1573C50.9402 70.1573 51.4803 69.9189 51.8045 69.6748C51.7829 70.0791 51.7725 70.6097 51.8273 71.1365C51.9742 72.5396 52.4126 73.5758 53.1291 74.2179L53.2076 75.5415H48.3141C48.108 75.3569 47.34 74.6263 46.8056 73.5543Z" fill="#FAB20B"/>
<path d="M41.4278 69.7825C40.9166 69.9195 40.5462 70.2421 40.4113 70.6673C40.3353 70.9007 40.3768 71.1818 40.499 71.436C40.5122 71.4463 40.5227 71.4597 40.5297 71.4749C40.5348 71.4862 40.5379 71.4983 40.5389 71.5107C40.6319 71.6778 40.7612 71.822 40.9172 71.9327C41.3212 72.2113 41.8128 72.1743 42.3026 71.8254C42.3259 71.8088 42.3548 71.8018 42.3831 71.806C42.4114 71.8102 42.437 71.8252 42.4545 71.8479C42.49 71.8954 42.4786 71.9603 42.4305 71.9951C41.8679 72.3949 41.2718 72.4342 40.7931 72.1037C40.6221 71.9862 40.48 71.8302 40.373 71.6544L34.7985 74.0026C35.4124 74.4835 38.1315 76.3795 41.4275 75.0992C42.3938 74.7244 43.5832 73.4742 43.8149 72.2116C43.9691 71.3796 43.7009 70.6562 43.0225 70.0604C42.7638 69.835 42.3738 69.7125 41.9622 69.7125C41.7817 69.7121 41.6019 69.7355 41.4275 69.7821M34.5224 74.051L34.4009 73.9412L40.2758 71.4664C40.1526 71.1827 40.1188 70.8722 40.2027 70.6056C40.3609 70.1101 40.7855 69.7366 41.3712 69.5795C42.0237 69.4048 42.7452 69.5355 43.1672 69.9053C43.8953 70.5423 44.1929 71.3524 44.0286 72.248C43.7839 73.5793 42.5283 74.8982 41.5076 75.2939C40.752 75.591 39.9474 75.7439 39.1354 75.7448C36.4536 75.7448 34.5459 74.0722 34.5221 74.0507M71.8196 37.9452L71.9943 38.0199C74.1357 38.9396 74.8066 41.5267 75.0054 42.7421L75.7712 40.608L75.9317 40.7944C76.2987 41.2209 78.082 43.488 78.0462 47.1807L79.7029 44.9066L79.8194 45.0595C79.8368 45.0833 81.5116 47.3481 80.2788 51.5264C81.9969 50.092 82.0264 50.092 82.0897 50.092L82.1964 50.0933L82.2255 50.1917C82.8659 52.3303 82.1204 54.9282 81.8114 55.8475L83.677 54.723L83.6615 54.9867C83.6536 55.1169 83.4662 58.0434 82.253 59.6191L83.7837 59.1844L83.7559 59.3943C83.753 59.4199 83.4111 61.8079 81.8003 63.0645L83.1464 62.7767L83.1145 62.9768C83.1107 63.0031 82.6855 65.4965 80.8043 66.5843L82.2999 66.4099L82.2416 66.6087C82.2388 66.6188 81.9323 67.6607 81.4536 68.3141C81.0373 68.8853 80.3377 69.6606 78.9513 70.1089L80.3124 70.2026L80.2006 70.3935C80.193 70.4061 79.4712 71.6228 78.8934 72.2031C77.8597 73.2428 76.4544 73.749 74.5957 73.749C74.5084 73.749 74.42 73.7477 74.3301 73.7461L74.3057 73.7452L70.4029 71.5544L70.299 71.1735L70.355 71.1175C70.388 71.0848 70.419 71.0501 70.4478 71.0137C70.4807 70.9592 70.6951 70.4334 70.7973 70.1795L70.804 70.1627L70.9765 69.7457C71.2295 69.2886 71.6176 68.3971 72.1314 67.0975L72.1881 66.9566C72.3644 66.5644 72.6164 66.2918 72.8602 66.0281C73.1157 65.7504 73.3576 65.4883 73.4449 65.1239L73.4573 65.0685C73.4688 65.0235 73.4793 64.9784 73.4889 64.933C73.6357 64.2683 73.7171 63.5908 73.7321 62.9103L73.7359 62.7216C73.7368 62.0704 73.6713 61.416 73.5425 60.7762L73.5041 60.5948C73.349 59.8969 73.1209 59.2173 72.8238 58.567L72.7456 58.397C72.4552 57.7933 72.1133 57.2157 71.7237 56.6707L71.6097 56.5165C71.3738 56.1958 71.1183 55.8846 70.8527 55.5917L70.7134 55.4398C70.387 55.0928 70.1132 54.8399 69.9394 54.6917C69.8735 54.6322 69.8206 54.5894 69.7798 54.5559L69.72 54.5078L71.8196 37.9452Z" fill="#231F20"/>
<path d="M71.7757 71.5167L77.6113 73.9731C77.6113 73.9731 74.5806 76.6894 70.7385 75.1973C69.2699 74.6265 66.9734 71.8564 69.1116 69.9838C69.8578 69.3303 71.5455 69.5203 71.9001 70.6363C72.1622 71.4616 71.1539 72.8451 69.8398 71.9102M66.7397 66.6837L66.8778 67.024C68.3911 66.1974 69.4247 63.9458 69.4247 63.9458L70.4292 54.6144C71.0729 54.736 72.8179 55.2754 72.9395 57.5482C72.9407 57.5517 72.9398 57.5536 72.9398 57.5549C72.9405 57.5761 72.9408 57.5973 72.9407 57.6185C74.158 58.2412 74.17 60.2399 74.0972 60.6704C75.3344 62.248 74.3328 64.181 74.1488 64.4729C74.5936 66.2386 73.6765 66.8869 73.4283 67.0243C73.4716 67.8715 73.2754 68.3606 72.9145 68.7228C72.5387 69.0992 72.0429 69.1024 71.7808 69.0711C71.6516 69.0555 71.5664 69.0293 71.5626 69.0283L71.5155 69.0147L71.5015 68.9653C71.191 67.8924 69.9721 66.9496 69.1983 66.552C69.1512 66.6036 68.9986 66.7787 68.9454 66.8293C68.9454 66.8293 67.7262 68.0029 66.0933 67.2931L66.7397 66.6837Z" fill="#FAB20B"/>
<path d="M70.6363 71.3945L70.755 70.9161L71.4847 69.8907L79.7464 70.4704C79.6004 70.762 79.0369 71.562 78.5395 72.0619C77.9269 72.6764 76.7885 73.4089 74.8428 73.4089C74.6713 73.4091 74.5 73.4036 74.3289 73.3925L70.6363 71.3945ZM77.7189 70.0709L71.4822 69.5906C71.8022 69.0021 71.9017 68.6557 71.9884 68.3496C72.0463 68.1466 72.1011 67.9545 72.2125 67.711L81.8434 66.7853C81.7747 67.0446 81.593 67.5879 81.1764 68.1555C80.4213 69.1892 79.2576 69.8331 77.7189 70.0709ZM80.926 63.2468L80.8035 63.3085L73.6882 64.9C73.8252 64.2501 73.9038 63.5932 73.9186 62.9457L81.5053 60.1775L83.3593 59.644C83.219 60.3522 82.6742 62.3651 80.9257 63.2471M79.6992 66.709L72.8587 67.4216C73.1876 66.6824 73.4434 65.9324 73.6198 65.1929L81.7611 63.3719L81.7583 63.3643L82.7384 63.1841C82.5915 63.7917 81.9026 66.0568 79.6992 66.709ZM72.0359 38.4732C73.975 39.1988 74.6708 42.7095 74.7953 43.4433L70.7965 55.2568C70.5014 54.9462 70.2507 54.7151 70.0835 54.5688L72.0359 38.4732ZM73.9227 62.6542C73.9189 62.0235 73.8559 61.3916 73.7328 60.772L81.7117 56.3034L83.2893 55.3309C83.2586 56.0004 82.9243 58.587 81.6291 59.8438L73.9227 62.6542ZM81.3322 56.2024L73.6742 60.4938C73.5186 59.8157 73.2956 59.1548 73.0084 58.5211L80.0307 52.1485L81.9656 50.5266C82.1344 51.093 82.4747 52.909 81.3322 56.2024ZM79.8141 51.9741L72.8875 58.2612C72.6037 57.6776 72.2716 57.1188 71.8947 56.5906L78.196 47.5627L78.178 47.5514L79.7017 45.4204C80.0769 46.1042 81.001 48.3264 79.8141 51.9741Z" fill="#FAB20B"/>
<path d="M75.8825 41.3396C76.4217 41.9914 77.8951 44.1217 77.7121 47.7635V47.7736L71.7232 56.3544C71.4992 56.055 71.2617 55.7658 71.0115 55.4879L75.0692 43.5006L75.8825 41.3396ZM66.969 66.7821L66.6157 65.9717C67.1577 65.4028 67.6361 64.7379 67.8719 64.0085L71.639 41.1116L69.2668 63.7236C69.2633 63.7324 68.9999 64.6898 68.1271 65.7152C67.8374 66.0559 67.4575 66.4285 66.9693 66.7824" fill="#FAB20B"/>
<path d="M69.0326 66.5827L68.8829 66.7448C68.8762 66.7515 68.2218 67.3637 67.2645 67.4017L67.0707 66.956C67.5288 66.6267 67.9385 66.2503 68.2889 65.8356C68.6207 65.4446 68.912 65.0121 69.1554 64.5486C69.3492 65.0112 69.4407 65.94 69.0326 66.5827ZM68.1078 65.7013C67.7735 66.0922 67.3947 66.4428 66.9792 66.7461L66.6446 65.9765C67.2641 65.3218 67.6858 64.6623 67.8954 64.0149L71.5311 41.912L69.2441 63.7214C69.2406 63.7268 68.9734 64.6851 68.1082 65.701M71.344 66.6004C71.1556 66.9601 70.872 67.2004 70.5465 67.2779C70.5272 67.284 70.5095 67.2928 70.4949 67.3061C70.0096 66.8727 69.5505 66.6011 69.3561 66.4953C69.5119 66.1737 69.5828 65.7833 69.56 65.3642C69.7196 65.393 69.8829 65.4075 70.0441 65.4075C70.5225 65.4075 70.9625 65.2796 71.318 65.0378C71.3874 65.0466 71.4371 65.154 71.4513 65.1875C71.6223 65.5975 71.5792 66.1522 71.3437 66.6004M73.4936 66.8559C73.4914 66.8559 73.4876 66.8572 73.4822 66.8601C73.3325 66.9382 73.1644 66.9769 72.9706 66.9769C72.8209 66.9769 72.6708 66.9538 72.5581 66.9341C72.195 66.8705 71.8714 66.7388 71.6197 66.5504C71.816 66.0885 71.8398 65.5693 71.6859 65.1502C71.9294 65.178 72.1646 65.1929 72.3849 65.1929C73.1523 65.1929 73.7725 65.0118 74.0986 64.6949C74.3722 66.0562 73.7722 66.6574 73.4933 66.8556M71.148 60.2681C72.251 60.0385 73.0374 59.0381 73.0764 57.818C73.9049 58.4005 74.0575 59.7837 74.022 60.4473C74.0141 60.4637 74.0103 60.4805 74.0103 60.4989L74.0002 60.6682L73.9942 60.6939L73.9976 60.6977C73.8941 61.6715 73.1606 62.4161 72.2061 62.5177C72.1415 62.014 71.7435 61.5401 71.1648 61.278C71.1319 61.2628 71.1347 61.2232 71.1445 61.1653L71.1499 61.1339C71.1857 60.8463 71.1852 60.5553 71.1483 60.2677M72.844 57.5505L72.8453 57.6793C72.8513 58.8118 72.1117 59.7891 71.0815 60.0123C70.9017 59.4275 70.6386 58.7852 70.0631 58.4144C70.0593 58.4119 70.0542 58.4103 70.052 58.4097L70.4433 54.7104C70.6244 54.7471 71.0398 54.8522 71.4694 55.1058C72.3219 55.6073 72.7842 56.4304 72.8437 57.5502M69.3052 64.2495L69.3049 64.2479L69.3748 64.0956L69.4492 63.9459L69.4432 63.9395L69.467 63.9417L69.5597 63.0616C70.3369 63.0224 70.8783 62.2528 71.0755 61.4967C71.0903 61.4988 71.1046 61.5036 71.1176 61.511C72.0905 61.9545 72.1741 63.0851 71.8284 64.0095C71.5526 64.7468 70.9081 65.1698 70.0596 65.1698C69.8871 65.1698 69.7104 65.1521 69.5363 65.1144C69.4952 64.8176 69.4174 64.5271 69.3049 64.2495M69.5847 62.8175L70.0191 58.707C70.6538 59.0264 71.0018 60.4105 70.9464 60.8788C70.8894 61.3565 70.7637 61.7969 70.5918 62.1169C70.3768 62.5158 69.9925 62.783 69.5847 62.8175ZM72.2301 62.7555C73.2062 62.6589 74.0008 61.9286 74.1882 60.9633C74.5757 61.5759 74.697 62.2939 74.5466 63.098C74.4622 63.5409 74.3099 63.9681 74.0948 64.3644C74.0711 64.372 74.0521 64.3869 74.0378 64.4084C73.8289 64.7228 73.1375 64.9428 72.3561 64.9428C72.0788 64.9428 71.8037 64.9153 71.5381 64.8617C71.8087 64.6113 71.9981 64.2922 72.1029 63.911C72.2064 63.5277 72.2523 63.1183 72.2298 62.7558M71.8129 68.9546C71.7498 68.9473 71.6873 68.9357 71.6258 68.9201C71.4839 68.4389 71.167 67.9573 70.6836 67.4831C71.017 67.3726 71.3095 67.1187 71.5127 66.766C71.8699 67.0164 72.3887 67.1244 72.5423 67.1526C72.6059 67.1637 72.7762 67.1903 72.9817 67.1903C73.1001 67.1913 73.2184 67.1806 73.3347 67.1583C73.3489 67.8317 73.1989 68.2894 72.8506 68.6396C72.5822 68.9096 72.2412 68.9663 72.0019 68.9663C71.9388 68.9661 71.8758 68.9623 71.8132 68.9549M58.7847 75.7438H63.972L64.0039 75.7156C64.166 75.5729 65.0078 74.8035 65.584 73.6451C66.3188 72.1721 66.3004 70.679 65.5308 69.3253C66.6531 68.6849 67.0932 67.8788 67.2103 67.6256C68.2972 67.6088 69.012 66.9306 69.0418 66.9015C69.0592 66.8854 69.0858 66.8581 69.114 66.8255C69.1421 66.8191 69.1671 66.8029 69.1846 66.78C69.2074 66.7496 69.2267 66.7182 69.2466 66.6878C69.9162 67.0535 71.1047 67.9368 71.4098 68.9888L71.4406 69.0955L71.5545 69.13C71.6302 69.1506 71.7074 69.1654 71.7853 69.1743C71.8578 69.1822 71.93 69.187 72.0015 69.187C72.2843 69.187 72.6892 69.1189 73.0143 68.7931C73.4205 68.3841 73.5915 67.8563 73.5623 67.0848C73.5671 67.0832 73.5725 67.081 73.5763 67.0788C73.5949 67.069 73.6089 67.0563 73.6203 67.0386C73.9543 66.8021 74.6764 66.0863 74.2873 64.4818C74.4326 64.2248 75.4691 62.2566 74.2338 60.6331C74.293 60.1354 74.2658 58.2185 73.0713 57.546V57.5359C72.9443 55.1707 71.067 54.6167 70.4579 54.4983L72.1646 38.2374L71.9405 38.2083L71.9366 38.2307L67.6725 63.9626C67.4842 64.5477 67.1052 65.1502 66.5468 65.752L66.5401 65.7365L66.4211 65.877C66.4208 65.878 66.3805 65.9252 66.2941 66.0135C66.0766 66.2266 65.8316 66.4431 65.5685 66.6571C64.5868 67.4385 62.869 68.5149 60.2704 69.2101L60.2071 69.2269L60.1682 69.1904L60.1707 69.2364L60.1552 69.2405L60.1764 69.3009L60.1865 69.4808C60.2141 69.8939 60.2419 70.5128 60.1773 71.1204C60.0333 72.4902 59.6078 73.4913 58.9135 74.0991L58.879 74.1292L58.7847 75.7438Z" fill="#231F20"/>
<path d="M60.436 69.3794C60.5652 69.5504 60.9878 69.9287 62.2111 69.9287C62.5964 69.9287 63.0321 69.891 63.5104 69.817C65.7481 69.4678 66.8042 68.14 67.0641 67.4578L66.48 66.118C66.0456 66.5697 64.1385 68.3645 60.436 69.3798" fill="#F9B10C"/>
<path d="M65.4012 73.5543C66.1066 72.1407 66.1005 70.7667 65.3825 69.469C64.8522 69.7112 64.24 69.8958 63.558 70.017C63.0376 70.1095 62.5598 70.1573 62.1375 70.1573C61.2659 70.1573 60.7265 69.9189 60.4016 69.6748C60.4232 70.0791 60.4346 70.6097 60.3792 71.1365C60.2323 72.5396 59.7932 73.5758 59.077 74.2178L58.9985 75.5415H63.892C64.0975 75.3569 64.8668 74.6262 65.4006 73.5543" fill="#FAB20B"/>
<path d="M70.2438 69.7128C69.8322 69.7128 69.4425 69.8353 69.1851 70.0607C68.5051 70.6562 68.2389 71.38 68.3911 72.212C68.6238 73.4745 69.8132 74.7247 70.7791 75.0996C74.0745 76.3798 76.7946 74.4838 77.4088 74.0029L71.8334 71.6548C71.7261 71.8305 71.5842 71.9865 71.4142 72.104C70.9355 72.4345 70.3388 72.3953 69.7765 71.9954C69.7274 71.9603 69.717 71.8951 69.7515 71.8482C69.7885 71.801 69.8553 71.7922 69.9035 71.8257C70.3935 72.1743 70.8852 72.2116 71.2892 71.933C71.4446 71.8251 71.5741 71.676 71.6688 71.511C71.6691 71.4993 71.6726 71.486 71.6767 71.4753C71.6843 71.4597 71.6941 71.4461 71.7071 71.4363C71.8309 71.1821 71.8707 70.901 71.7967 70.6676C71.6615 70.2425 71.2904 69.9202 70.7788 69.7828C70.6042 69.7361 70.4242 69.7127 70.2435 69.7131M73.0703 75.746C72.3298 75.746 71.5329 75.6191 70.6972 75.2949C69.6777 74.8988 68.4225 73.5802 68.1771 72.249C68.0125 71.3534 68.3104 70.5432 69.0386 69.9063C69.4606 69.5365 70.1824 69.4057 70.8352 69.5805C71.4215 69.7375 71.8457 70.1111 72.0031 70.6065C72.0867 70.8728 72.054 71.1837 71.9299 71.4673L77.8058 73.9421L77.6839 74.052C77.6599 74.0735 75.7518 75.7463 73.0703 75.7463M73.8836 78.3563C73.4328 77.4407 72.2864 76.7597 72.1288 76.7597L72.0183 76.762L71.9103 76.9453L71.9619 77.0367C72.3459 77.7158 72.3 78.0552 72.2383 78.1958C72.2049 78.2755 72.1451 78.3414 72.0689 78.3822L71.7963 78.2936L70.1479 77.8099L67.411 77.2188L64.9115 76.8174C65.0025 76.7038 65.0645 76.5698 65.0923 76.427C65.1391 76.1839 65.085 75.9379 64.9416 75.7343C64.7982 75.5307 64.5816 75.3924 64.3309 75.3468C61.7428 74.877 58.9689 74.6389 56.0857 74.6389C51.2419 74.6389 47.6949 75.3215 47.5458 75.3503C47.0316 75.4519 46.6983 75.9407 46.8008 76.4403C46.8296 76.5783 46.8904 76.7062 46.9778 76.8174C45.9962 76.9533 45.0182 77.1138 44.0446 77.2986C43.5693 77.3843 43.0964 77.4826 42.6263 77.5933C42.1252 77.707 41.5205 77.914 40.9829 78.0964C40.5359 78.2486 40.0746 78.405 39.8916 78.4202L39.865 78.4101C39.8584 78.4076 39.7207 78.3655 39.6507 78.2072C39.5877 78.0666 39.5409 77.7263 39.9268 77.0424L39.9777 76.9465L39.865 76.7677H39.7571C39.5959 76.7677 38.4265 77.4638 37.987 78.4C37.6793 79.0537 37.7835 79.6752 38.2964 80.2492C38.3981 80.3631 38.5091 80.4684 38.6281 80.5642C40.6141 82.1784 39.7451 83.2726 39.7061 83.3185L39.6669 83.3663L39.6646 83.4271C39.6618 83.4723 39.6532 83.8801 39.9594 84.1907C40.1721 84.4069 40.4757 84.5158 40.862 84.5158C41.2254 84.5158 41.6683 84.4161 42.179 84.2211L42.9461 83.9247C44.3292 83.3891 44.8469 83.1877 46.1901 83.019C49.7967 82.6027 53.8465 82.5406 55.9398 82.5406C57.737 82.5406 62.3301 82.5929 66.1617 83.0763C67.1796 83.2336 67.7329 83.4486 68.9439 83.9184L69.0287 83.951L69.7103 84.2141C70.7617 84.6168 71.5171 84.6016 71.928 84.184C72.2437 83.8627 72.224 83.4356 72.2231 83.4192L72.2209 83.3587L72.1819 83.3128C72.1734 83.303 71.4104 82.2921 73.2701 80.548L73.6576 80.1672C74.122 79.6062 74.1983 78.998 73.8833 78.3566" fill="#231F20"/>
<path d="M73.4366 79.9918C73.7668 79.5963 73.8643 79.1699 73.7269 78.7241C73.5113 78.0204 72.7467 77.4198 72.3463 77.1637C72.5729 77.6411 72.6233 78.0251 72.4973 78.3088C72.3706 78.5953 72.1098 78.6643 72.0987 78.6672L72.0718 78.6738L72.0436 78.6646L71.7039 78.5535L70.0741 78.0758L67.3613 77.4904C63.7284 76.8253 59.3532 76.4131 55.9401 76.4131C52.4073 76.4131 47.7585 76.8674 44.0962 77.5695C43.6508 77.649 43.1794 77.7465 42.6919 77.8618C42.203 77.9722 41.6053 78.1758 41.0773 78.356C40.5163 78.5462 40.0721 78.6976 39.8828 78.6976C39.8616 78.6976 39.8081 78.6976 39.7653 78.6662C39.6823 78.6366 39.6062 78.5903 39.5417 78.5302C39.4773 78.4701 39.4258 78.3974 39.3905 78.3167C39.2651 78.0315 39.3158 77.6481 39.5421 77.1707C39.1353 77.4299 38.3581 78.0435 38.1529 78.7587C38.0209 79.2145 38.139 79.6524 38.5021 80.0579C38.5965 80.1648 38.6999 80.2634 38.8111 80.3527C40.8395 82.0015 40.0917 83.2599 39.9493 83.4644C39.9505 83.5455 39.9749 83.8073 40.1671 84.0017C40.4913 84.3284 41.1536 84.317 42.0745 83.9646L42.8406 83.6686C44.2476 83.1225 44.7747 82.9186 46.1563 82.7445C49.7777 82.3269 53.8402 82.2649 55.9401 82.2649C57.7421 82.2649 62.3507 82.3168 66.2038 82.8027C67.2565 82.9661 67.8175 83.1839 69.0493 83.6616L69.8145 83.9567C70.2903 84.14 70.6981 84.2312 71.0264 84.2312H71.0267C71.3322 84.2312 71.5665 84.1511 71.7229 83.9922C71.9154 83.7981 71.9369 83.5379 71.9398 83.4568C71.8039 83.2656 71.1562 82.1458 73.0735 80.3489C73.1586 80.2675 73.4116 80.0225 73.4366 79.9918Z" fill="white"/>
<path d="M41.8166 79.8278L42.062 80.9089L41.1341 79.9731L40.7349 80.0579L41.1417 81.8527L41.5384 81.7688L41.299 80.7136L42.1965 81.613L42.2089 81.6254L42.6201 81.5383L42.2149 79.7439L41.8166 79.8278ZM43.8153 80.543L43.4151 80.6136L43.5151 80.0488L43.8153 80.543ZM43.6329 79.484L43.2058 79.56L42.8199 81.4962L43.2736 81.4164L43.3473 80.9925L44.0233 80.8725L44.2547 81.2413L44.7169 81.1594L43.6446 79.5014L43.6329 79.484ZM45.6008 80.0054L45.6565 80.3625L46.0741 80.3027L46.102 80.479C46.0564 80.5221 46.0019 80.5613 45.9386 80.5971C45.8726 80.6341 45.8006 80.659 45.7259 80.6705C45.5818 80.6918 45.4558 80.6595 45.352 80.5765C45.2478 80.4914 45.1785 80.347 45.1484 80.1472C45.1196 79.9626 45.143 79.8164 45.2165 79.7116C45.2899 79.6068 45.4026 79.5441 45.5533 79.5226C45.6499 79.5077 45.7369 79.5197 45.8075 79.5555C45.879 79.5915 45.9359 79.651 45.9687 79.7239L45.981 79.7502L46.3916 79.6109L46.3802 79.5815C46.3169 79.4194 46.2102 79.2988 46.0627 79.2218C45.918 79.1462 45.7274 79.1243 45.4967 79.1576C45.3197 79.1832 45.175 79.2361 45.0636 79.313C44.9182 79.4153 44.8144 79.547 44.7558 79.7056C44.6973 79.8642 44.6814 80.0396 44.7115 80.2257C44.7361 80.3929 44.7986 80.5522 44.8942 80.6914C44.9904 80.8292 45.1196 80.9286 45.2769 80.9865C45.383 81.0261 45.4986 81.046 45.6211 81.046C45.6829 81.0457 45.7447 81.0412 45.806 81.0324C45.9602 81.0095 46.109 80.9587 46.2451 80.8827C46.3837 80.8054 46.4904 80.7218 46.5575 80.636L46.5654 80.6259L46.4515 79.8826L45.6008 80.0054ZM47.8176 79.9712L47.4126 80.0171L47.5459 79.4599L47.8176 79.9712ZM47.7007 78.904L47.2702 78.9546L46.764 80.8627L47.2208 80.8098L47.3208 80.3919L48.0037 80.3137L48.2098 80.6946L48.678 80.6392L47.7109 78.922L47.7007 78.904ZM49.8469 79.3608C49.8278 79.3926 49.7994 79.4176 49.7655 79.4327C49.7377 79.4431 49.662 79.4618 49.4467 79.4808L49.2074 79.502L49.1697 79.1155L49.4246 79.0924L49.6813 79.0746H49.688C49.7411 79.0781 49.7829 79.0958 49.8133 79.124C49.8437 79.1522 49.8618 79.1911 49.8662 79.2446C49.8716 79.2902 49.864 79.3295 49.8469 79.3611M51.6995 79.6331L51.293 79.6584L51.458 79.1091L51.6995 79.6331ZM51.2104 78.5896L50.6 80.4625L50.3138 80.0991C50.2116 79.9665 50.1324 79.8775 50.0736 79.8268C50.0321 79.7911 49.9836 79.7569 49.9289 79.7265C50.053 79.6869 50.148 79.6242 50.2116 79.5419C50.2879 79.4419 50.3208 79.3212 50.3069 79.18C50.2986 79.0757 50.2597 78.9762 50.1951 78.8938C50.1337 78.8144 50.0478 78.7574 49.9507 78.7318C49.8542 78.7074 49.7076 78.7036 49.5103 78.7213L48.7049 78.7938L48.8788 80.6224L49.3096 80.5844L49.2397 79.8465L49.2824 79.8427C49.3619 79.836 49.4214 79.836 49.4584 79.8449C49.4926 79.8534 49.5284 79.8731 49.5626 79.9019C49.5984 79.9326 49.6705 80.0133 49.7769 80.1412L50.0894 80.5138L50.6035 80.4682L51.0566 80.4404L51.181 80.0279L51.8661 79.9848L52.0522 80.3771L52.5211 80.3479L51.6422 78.5614L51.2104 78.5896ZM53.8523 79.9373L53.8204 78.8233L53.9543 78.8204C54.1012 78.8166 54.2022 78.8191 54.2516 78.8283C54.3095 78.8373 54.3639 78.862 54.4089 78.8996C54.4507 78.9363 54.4849 78.9891 54.5105 79.0553C54.5358 79.1253 54.5507 79.2285 54.5539 79.3615C54.5571 79.4944 54.5491 79.6021 54.5276 79.6796C54.5061 79.7528 54.4785 79.8063 54.444 79.8389C54.4095 79.8715 54.3652 79.8936 54.3114 79.9095C54.2674 79.9205 54.1949 79.9285 54.0961 79.93L53.8523 79.9373ZM54.7353 78.6441C54.6533 78.5646 54.5552 78.5089 54.4415 78.4798C54.3582 78.4582 54.2364 78.4509 54.0834 78.4541L53.3771 78.4728L53.4291 80.2796L53.43 80.3109L54.1556 80.291C54.2975 80.2872 54.4064 80.2716 54.4912 80.2428C54.603 80.2045 54.6935 80.1526 54.7581 80.0861C54.8494 79.9934 54.9162 79.8795 54.9528 79.7547C54.9883 79.6454 55.0047 79.5137 55 79.3659C54.9952 79.1965 54.9699 79.0518 54.9256 78.9379C54.8812 78.8214 54.817 78.7235 54.7353 78.6441ZM56.3167 79.4979L55.9098 79.4989L56.1099 78.9603L56.3167 79.4979ZM55.8972 78.4256L55.1614 80.2628H55.6221L55.7728 79.8588H56.4591L56.6187 80.2628H57.0898L56.3309 78.425L55.8972 78.4256ZM58.4182 79.5669L57.76 78.4566L57.7511 78.4418L57.3411 78.4304L57.2902 80.2678L57.6957 80.2777L57.7264 79.1984L58.3833 80.296L58.8028 80.3084L58.855 78.4709L58.4482 78.4598L58.4182 79.5669ZM60.2119 79.6122L59.8045 79.5907L60.0378 79.0639L60.2119 79.6122ZM60.2889 78.5409L59.8567 78.5184L59.0146 80.3137L59.4746 80.3381L59.6481 79.9433L60.3335 79.9804L60.469 80.3904L60.9398 80.4173L60.2952 78.5611L60.2889 78.5409ZM64.8059 80.0282L64.4007 79.9788L64.6708 79.471L64.8059 80.0282ZM62.4201 79.0594L62.675 79.0832L62.9371 79.1132C62.9821 79.1221 63.0225 79.1467 63.0511 79.1826C63.0765 79.2202 63.0868 79.266 63.0799 79.3108C63.0778 79.3518 63.0631 79.3912 63.0378 79.4235C63.0134 79.4517 62.9803 79.471 62.9438 79.4783C62.9336 79.4808 62.9118 79.483 62.8687 79.483C62.7864 79.4818 62.7041 79.477 62.6221 79.4688L62.3825 79.446L62.4201 79.0594ZM64.9582 78.9654L64.5277 78.9135L63.5652 80.6392L63.355 80.2324C63.279 80.0842 63.2195 79.9829 63.1704 79.9209C63.1343 79.8753 63.093 79.8341 63.0473 79.798C63.1777 79.78 63.2832 79.7369 63.3614 79.6663C63.456 79.5824 63.5108 79.47 63.5247 79.3295C63.5361 79.2252 63.5169 79.1199 63.4693 79.0265C63.4199 78.9344 63.3512 78.8666 63.2604 78.8239C63.1695 78.7811 63.0302 78.753 62.8295 78.734L62.025 78.6583L61.8468 80.4575L61.8443 80.4882L62.2748 80.5274L62.348 79.7907L62.391 79.7933C62.4717 79.8018 62.5287 79.8135 62.5636 79.8278C62.5955 79.8427 62.6269 79.8683 62.6538 79.9025C62.6842 79.9402 62.7389 80.032 62.8197 80.1763L63.0552 80.5996L63.5693 80.6477L64.018 80.7022L64.2184 80.3201L64.9 80.4037L65.006 80.8228L65.4724 80.8811L64.963 78.9853L64.9582 78.9654ZM67.6707 79.3567L67.092 79.2681L66.2825 79.8927L66.4003 79.163L65.9722 79.0974L65.6781 80.9124L66.1071 80.977L66.1954 80.4299L66.4952 80.2131L66.8486 81.091L67.3978 81.1745L66.8394 79.9652L67.6707 79.3567ZM68.8621 80.7411C68.8089 80.8573 68.7443 80.9374 68.6699 80.9805C68.5955 81.0235 68.5151 81.0375 68.4258 81.0197C68.3699 81.0119 68.3166 80.9913 68.27 80.9595C68.2234 80.9277 68.1847 80.8856 68.157 80.8364C68.0972 80.7348 68.0889 80.5759 68.1304 80.3638C68.1684 80.164 68.2365 80.0269 68.3296 79.9547C68.4248 79.8822 68.5331 79.8582 68.6566 79.8803C68.744 79.8971 68.8158 79.9357 68.8681 79.994C68.9203 80.0522 68.9475 80.127 68.9513 80.2143L68.9526 80.2457L69.3936 80.2254L69.3901 80.1928C69.3752 80.0412 69.3328 79.9158 69.2625 79.8218C69.146 79.6651 68.9722 79.5644 68.7455 79.5226C68.4863 79.4748 68.2564 79.5191 68.0633 79.6565C67.8721 79.7933 67.7451 80.0127 67.6885 80.309C67.6331 80.5911 67.6695 80.8311 67.7958 81.0232C67.8447 81.0963 67.9056 81.1606 67.9759 81.2135L67.8984 81.3145C67.9529 81.3185 68.0067 81.3288 68.0589 81.3452C68.1095 81.3632 68.1447 81.387 68.1627 81.4126C68.1782 81.4421 68.1833 81.4683 68.1716 81.4927C68.1627 81.5231 68.1402 81.5386 68.1095 81.5507C68.0627 81.5617 68.0085 81.5567 67.9414 81.5329C67.8675 81.5056 67.7947 81.4753 67.7233 81.4421L67.6742 81.5747C67.7233 81.6067 67.7958 81.6377 67.8946 81.6738C68.0348 81.7229 68.1532 81.7308 68.2501 81.7039C68.2833 81.6952 68.3139 81.6785 68.3393 81.6554C68.3647 81.6322 68.384 81.6032 68.3957 81.5709C68.4172 81.5098 68.4109 81.4516 68.3739 81.3901C68.3739 81.3879 68.3713 81.3854 68.3698 81.3829C68.4328 81.3943 68.4939 81.4009 68.5524 81.4009C68.673 81.4009 68.7832 81.3768 68.8826 81.3297C69.0317 81.2575 69.1552 81.1261 69.2499 80.9412L69.2628 80.9137L68.8741 80.7101L68.8621 80.7411ZM70.571 81.0194L70.1734 80.933L70.4915 80.4508L70.571 81.0194ZM70.8303 79.9959L70.8268 79.9747L70.4038 79.8838L69.2967 81.4829L69.2714 81.5206L69.7222 81.6178L69.9593 81.2565L70.6283 81.4019L70.6941 81.8299L71.1535 81.929L70.8303 79.9959Z" fill="#231F20"/>
<path d="M64.2789 75.6058C61.7072 75.1394 58.9514 74.9014 56.0856 74.9014C51.252 74.9014 47.7505 75.5792 47.6033 75.6083C47.2424 75.6783 47.0065 76.0224 47.079 76.3741C47.1512 76.7186 47.5802 76.8515 47.9363 76.7797C48.0829 76.7528 51.4251 76.206 56.0957 76.206C58.8776 76.206 64.0949 76.8262 64.1361 76.8262C64.459 76.8249 64.7553 76.6701 64.8139 76.3649C64.8301 76.2808 64.8291 76.1942 64.8109 76.1104C64.7926 76.0267 64.7576 75.9475 64.7079 75.8777C64.6072 75.7349 64.4536 75.6374 64.2789 75.6058ZM47.2633 47.3089C47.1949 46.6643 47.187 46.1391 47.5302 45.5562C47.8885 44.9481 48.9716 44.4491 48.9728 43.6567C49.0175 44.5634 49.4591 45.503 48.8323 46.3183C48.6081 46.6086 48.2979 46.8897 47.9632 47.0328L47.2633 47.3089Z" fill="#FAB20B"/>
<path d="M48.9375 44.1313C48.7801 44.4387 48.4882 44.7011 48.2039 44.9569C47.9624 45.1744 47.7332 45.3799 47.6049 45.5977C47.2845 46.1419 47.2849 46.6453 47.3374 47.1905L47.9291 46.9559C48.2182 46.834 48.524 46.5826 48.7646 46.2682C49.1993 45.7031 49.0942 45.0776 48.9849 44.4146L48.9375 44.1313ZM47.264 47.3924C47.2479 47.3925 47.2322 47.3883 47.2184 47.3801C47.1956 47.3671 47.1804 47.3434 47.1782 47.3177C47.1126 46.7001 47.0895 46.1388 47.4565 45.5148C47.598 45.2745 47.836 45.0605 48.088 44.8347C48.4803 44.4811 48.8874 44.1151 48.8874 43.6561C48.8874 43.6105 48.9251 43.5741 48.971 43.5725C49.0169 43.5709 49.0581 43.607 49.0597 43.6523C49.0711 43.8942 49.1138 44.1458 49.1537 44.3877C49.2642 45.0548 49.3791 45.7449 48.9026 46.367C48.6433 46.7042 48.3141 46.9745 47.9975 47.1088L47.2944 47.3858C47.2845 47.3905 47.2738 47.3924 47.264 47.3924Z" fill="#231F20"/>
<path d="M46.929 44.1335C46.8609 43.488 46.8527 42.9643 47.1959 42.3805C47.5552 41.7724 48.6379 41.2737 48.6395 40.4813C48.6848 41.3877 49.1261 42.3264 48.4993 43.1429C48.2748 43.4332 47.9646 43.7149 47.629 43.8568L46.929 44.1335Z" fill="#FAB20B"/>
<path d="M48.6037 40.9562C48.4451 41.2636 48.1542 41.5251 47.8702 41.7816C47.6274 41.9994 47.3988 42.2048 47.2699 42.4227C46.9505 42.9672 46.9511 43.4702 47.003 44.0154L47.5954 43.7808C47.8838 43.6583 48.188 43.4082 48.4296 43.0929C48.8643 42.5281 48.7604 41.9012 48.6499 41.2402L48.604 40.9565M46.929 44.2164C46.9134 44.2164 46.8986 44.213 46.8843 44.205C46.873 44.1987 46.8633 44.1896 46.8563 44.1786C46.8493 44.1676 46.8451 44.155 46.8441 44.142C46.7792 43.525 46.7545 42.9631 47.1224 42.3397C47.2639 42.1001 47.501 41.8854 47.753 41.6587C48.1466 41.3054 48.5531 40.9394 48.5534 40.4813C48.5534 40.4358 48.591 40.399 48.6373 40.3978C48.6813 40.3965 48.7231 40.4323 48.7246 40.4772C48.7373 40.7194 48.7788 40.9702 48.8196 41.2127C48.9307 41.88 49.046 42.5711 48.5676 43.1923C48.3083 43.5295 47.9797 43.7998 47.6631 43.934L46.9613 44.2111C46.9508 44.2149 46.9397 44.2164 46.929 44.2164Z" fill="#231F20"/>
<path d="M47.4456 50.7071C47.3788 50.0622 47.3712 49.5373 47.7137 48.9542C48.0721 48.3454 49.1558 47.8474 49.1571 47.055C49.2017 47.9614 49.6433 48.9004 49.0165 49.7156C48.7936 50.0068 48.4821 50.2889 48.1475 50.4307L47.4456 50.7071Z" fill="#FAB20B"/>
<path d="M49.1223 47.5289C48.9637 47.8369 48.6715 48.0984 48.3875 48.3549C48.1454 48.5727 47.9165 48.7775 47.7886 48.9953C47.4679 49.5402 47.4691 50.0429 47.5204 50.5884L48.1127 50.3544C48.4015 50.2316 48.7057 49.9799 48.9476 49.6652C49.3823 49.1004 49.2778 48.4749 49.167 47.8126L49.1223 47.5289ZM47.4457 50.7901C47.4308 50.7901 47.4156 50.7866 47.4023 50.7783C47.3908 50.7719 47.3811 50.7628 47.3739 50.7517C47.3667 50.7407 47.3622 50.7281 47.3608 50.715C47.2963 50.098 47.2722 49.537 47.6394 48.9127C47.7803 48.6737 48.0184 48.4593 48.271 48.2327C48.6646 47.879 49.0704 47.5134 49.0704 47.0546C49.0704 47.0094 49.1084 46.9726 49.1549 46.972C49.1958 46.972 49.2411 47.0059 49.2426 47.0508C49.254 47.293 49.2961 47.5435 49.3367 47.7856C49.4481 48.4533 49.5624 49.1441 49.0843 49.7653C48.8257 50.1031 48.4968 50.3731 48.1814 50.507L47.4774 50.7844C47.4675 50.7885 47.4571 50.7904 47.4457 50.7904" fill="#231F20"/>
<path d="M47.8305 54.1386C47.7621 53.494 47.7542 52.9688 48.0977 52.3869C48.4564 51.7778 49.5391 51.2792 49.5401 50.4865C49.586 51.3932 50.0273 52.3328 49.4008 53.148C49.1766 53.4396 48.8661 53.7204 48.5305 53.8632L47.8305 54.1386Z" fill="#FAB20B"/>
<path d="M49.5054 50.9623C49.3468 51.2697 49.0559 51.5312 48.7706 51.787C48.5291 52.0048 48.3005 52.2109 48.1729 52.4287C47.8522 52.9729 47.8529 53.475 47.9048 54.0202L48.4971 53.7869C48.7849 53.6641 49.0898 53.4143 49.3313 53.098C49.766 52.5341 49.6622 51.9073 49.5513 51.245L49.5058 50.9626M47.8307 54.2225C47.8155 54.2225 47.8003 54.2187 47.7864 54.2114C47.7633 54.1972 47.7481 54.1734 47.7449 54.1478C47.6806 53.5301 47.6566 52.9691 48.0238 52.3448C48.1647 52.1058 48.4034 51.8915 48.6548 51.6648C49.0486 51.3112 49.4542 50.9455 49.4548 50.4868C49.4548 50.4421 49.4925 50.4054 49.5387 50.4042C49.5497 50.4035 49.5607 50.405 49.5711 50.4086C49.5815 50.4123 49.591 50.418 49.5992 50.4254C49.6073 50.4328 49.6139 50.4418 49.6185 50.4518C49.6231 50.4618 49.6257 50.4726 49.6261 50.4836C49.6387 50.7258 49.6808 50.9772 49.7207 51.2194C49.8322 51.8864 49.9477 52.5772 49.4697 53.1987C49.2101 53.5346 48.8799 53.8049 48.5645 53.9392L47.862 54.2174C47.8519 54.2209 47.8402 54.2228 47.8304 54.2228" fill="#231F20"/>
<path d="M48.4839 57.2032C48.4171 56.5586 48.4083 56.0334 48.7521 55.4506C49.1101 54.8414 50.1941 54.3434 50.1954 53.551C50.24 54.4577 50.6817 55.3964 50.0548 56.2119C49.8307 56.5029 49.5204 56.7853 49.1845 56.9271L48.4839 57.2032Z" fill="#FAB20B"/>
<path d="M50.1594 54.0256C50.0011 54.3336 49.7099 54.5954 49.4249 54.8513C49.1831 55.0687 48.9548 55.2742 48.8256 55.492C48.5062 56.0366 48.5068 56.5396 48.5584 57.0848L49.1511 56.8508C49.4395 56.7283 49.7447 56.4772 49.9856 56.1622C50.42 55.5974 50.3161 54.9716 50.2056 54.3093L50.1594 54.0256ZM48.4109 57.3216L48.3995 57.2124C48.3337 56.5947 48.3109 56.0331 48.6778 55.4094C48.8193 55.1701 49.0574 54.9564 49.3087 54.7284C49.7016 54.3754 50.1094 54.0101 50.11 53.551L50.281 53.5475C50.2933 53.7885 50.3345 54.0392 50.3744 54.282C50.4855 54.9494 50.6026 55.6399 50.1236 56.2623C49.8644 56.6001 49.5348 56.8698 49.2198 57.0031L48.5166 57.2801L48.4109 57.3216Z" fill="#231F20"/>
<path d="M48.5737 60.8256C48.5053 60.1807 48.4974 59.6558 48.8406 59.0739C49.1993 58.4651 50.2829 57.9668 50.2833 57.1743C50.3279 58.0798 50.7698 59.0194 50.1427 59.8346C49.9195 60.1262 49.6092 60.4073 49.2737 60.5492C49.1052 60.6223 48.7035 60.634 48.6291 60.7914L48.5737 60.8256Z" fill="#FAB20B"/>
<path d="M50.2479 57.6489C50.0896 57.9563 49.7987 58.2175 49.5134 58.4746C49.2719 58.6921 49.0433 58.8979 48.9157 59.1154C48.6051 59.6422 48.5956 60.1307 48.6431 60.6556C48.7397 60.5894 48.8859 60.5584 49.0284 60.528L49.2386 60.4732C49.5286 60.3504 49.8335 60.0993 50.0741 59.7846C50.5088 59.2195 50.4046 58.5943 50.2944 57.931L50.2479 57.6489ZM48.5735 60.9098C48.5605 60.9098 48.5472 60.9063 48.5355 60.9009C48.5225 60.8947 48.5114 60.8853 48.503 60.8736C48.4947 60.862 48.4894 60.8484 48.4877 60.8341C48.4221 60.2171 48.3993 59.6561 48.7663 59.0321C48.9065 58.7918 49.1458 58.5778 49.3972 58.3508C49.7907 57.9978 50.1966 57.6315 50.1972 57.1734C50.1976 57.1288 50.2352 57.0911 50.2808 57.0908C50.3267 57.0857 50.3666 57.1247 50.3691 57.1693C50.3805 57.4115 50.4236 57.6622 50.4638 57.9038C50.5752 58.5721 50.6902 59.2623 50.2127 59.8843C49.9531 60.2215 49.6242 60.4919 49.3083 60.6261C49.2434 60.6527 49.1563 60.6717 49.0642 60.691C48.9353 60.7176 48.74 60.7591 48.708 60.8268C48.7007 60.8404 48.6881 60.8537 48.6754 60.8626L48.6194 60.8958C48.6057 60.9045 48.5899 60.9092 48.5738 60.9095" fill="#231F20"/>
<path d="M49.1279 64.6249C49.0598 63.9794 49.0532 63.4545 49.3951 62.8726C49.7535 62.2625 50.8375 61.7645 50.839 60.9715C50.8824 61.8785 51.3253 62.8178 50.6975 63.633C50.4743 63.9246 50.1641 64.2058 49.8279 64.3482L49.1276 64.6252" fill="#FAB20B"/>
<path d="M50.8032 61.4473C50.6449 61.7547 50.3527 62.0172 50.07 62.272C49.8271 62.4908 49.5986 62.6953 49.4707 62.9138C49.15 63.458 49.15 63.961 49.2025 64.5059L49.7942 64.2713C50.0829 64.1494 50.3878 63.898 50.6291 63.584C51.0634 63.0176 50.9596 62.392 50.8485 61.7297L50.8032 61.4473ZM49.1275 64.7079C49.1126 64.7079 49.0968 64.7037 49.0828 64.6952C49.0717 64.6887 49.0623 64.6796 49.0553 64.6688C49.0483 64.658 49.044 64.6457 49.0426 64.6328C48.9777 64.0152 48.954 63.4548 49.3209 62.8311C49.4624 62.5905 49.7005 62.3765 49.9525 62.1502C50.3454 61.7972 50.7519 61.4306 50.7528 60.9715C50.7528 60.9269 50.7899 60.8901 50.8367 60.8889C50.8823 60.8854 50.9216 60.9221 50.9251 60.9683C50.9365 61.2105 50.9783 61.4609 51.0185 61.7031C51.1299 62.3708 51.2461 63.0616 50.7674 63.6834C50.5081 64.0206 50.1789 64.2912 49.8629 64.4245L49.1601 64.7019C49.149 64.7053 49.1398 64.7079 49.1281 64.7079" fill="#231F20"/>
<path d="M50.3396 66.9268C50.2715 66.2826 50.2636 65.7571 50.6065 65.1745C50.9652 64.5657 52.0485 64.0677 52.0498 63.2747C52.0944 64.1817 52.5361 65.121 51.9102 65.9362C51.686 66.2272 51.3755 66.5089 51.0399 66.6514L50.3399 66.9272" fill="#FAB20B"/>
<path d="M52.0145 63.7499C51.8562 64.0576 51.5637 64.3188 51.28 64.5746C51.0378 64.7937 50.8086 64.9988 50.682 65.2157C50.3606 65.7605 50.3606 66.2633 50.4126 66.8084L51.0049 66.5738C51.2936 66.4523 51.5985 66.2012 51.8397 65.8862C52.2744 65.3214 52.1699 64.6955 52.0591 64.0332L52.0145 63.7499ZM50.3391 67.0107C50.3236 67.0107 50.3078 67.006 50.2945 66.9984C50.2833 66.9919 50.2738 66.9829 50.2668 66.972C50.2597 66.9612 50.2553 66.9489 50.254 66.936C50.1884 66.319 50.165 65.7574 50.5316 65.133C50.6731 64.8934 50.9115 64.6797 51.1635 64.453C51.557 64.0997 51.9629 63.7334 51.9629 63.2744C51.9636 63.2524 51.9728 63.2315 51.9886 63.2161C52.0043 63.2007 52.0254 63.192 52.0474 63.1917C52.094 63.1879 52.1323 63.2256 52.1351 63.2706C52.1465 63.5127 52.1886 63.7635 52.2298 64.006C52.3399 64.6737 52.4555 65.3645 51.9778 65.9856C51.7185 66.3237 51.3889 66.5931 51.0736 66.7267L50.3705 67.0041C50.36 67.0079 50.3502 67.0104 50.3391 67.0104" fill="#231F20"/>
<path d="M45.4396 48.4996C45.3507 47.8575 45.231 47.3456 44.7571 46.8574C44.2619 46.3461 43.0896 46.1077 42.8965 45.3369C43.0722 46.2287 42.8689 47.2418 43.6743 47.892C43.9621 48.1241 44.3319 48.328 44.6915 48.3907L45.4396 48.4996Z" fill="#FAB20B"/>
<path d="M43.0455 45.7911L43.0693 46.0764C43.1221 46.7447 43.1715 47.3779 43.7293 47.8281C44.0409 48.0791 44.3967 48.2545 44.7066 48.3077L45.3395 48.4011C45.2588 47.86 45.1378 47.3703 44.6952 46.9135C44.5176 46.7314 44.247 46.5833 43.9582 46.4262C43.6201 46.2423 43.2741 46.0536 43.0455 45.7908M45.4399 48.5831C45.4361 48.5831 45.431 48.5831 45.4285 48.5819L44.6766 48.472C44.3381 48.4128 43.9522 48.2254 43.6201 47.9563C43.0056 47.4602 42.9505 46.7631 42.8992 46.0884L42.8128 45.3527C42.8049 45.3084 42.834 45.2656 42.879 45.2555C42.9239 45.2454 42.9698 45.2735 42.9806 45.3172C43.0908 45.7633 43.5748 46.0264 44.0418 46.2812C44.3423 46.4443 44.6253 46.5981 44.8203 46.7992C45.3278 47.3218 45.4399 47.874 45.5253 48.4882C45.5268 48.5011 45.5253 48.5141 45.521 48.5263C45.5166 48.5386 45.5096 48.5497 45.5003 48.5588C45.484 48.5743 45.4624 48.583 45.4399 48.5831Z" fill="#231F20"/>
<path d="M45.0494 45.5575C45.2694 44.9443 45.4002 44.4352 45.2036 43.7919C45 43.1195 44.0629 42.3923 44.25 41.6204C43.9917 42.4929 43.3395 43.3081 43.7564 44.2418C43.9055 44.5745 44.1414 44.918 44.433 45.132C44.5811 45.2393 45.0146 45.3856 45.0494 45.5575Z" fill="#FAB20B"/>
<path d="M44.1707 42.0909L44.0606 42.3565C43.7959 42.9767 43.5464 43.5617 43.8351 44.2082C43.9972 44.5691 44.2328 44.8806 44.4848 45.0652C44.5263 45.0946 44.5997 45.1333 44.6785 45.1716C44.8042 45.2349 44.9334 45.2995 45.0227 45.3758C45.1927 44.8753 45.299 44.3978 45.1218 43.8153C45.0486 43.575 44.8745 43.3237 44.6902 43.058C44.474 42.7453 44.253 42.4249 44.1707 42.0909ZM45.0496 45.6408C45.0053 45.6366 44.9726 45.6101 44.9657 45.5733C44.9495 45.4961 44.7311 45.3856 44.5994 45.3197L44.3816 45.1979C44.1068 44.9978 43.85 44.6612 43.6778 44.275C43.3603 43.5633 43.6347 42.9175 43.9007 42.2932L44.1676 41.5979C44.1799 41.5536 44.2268 41.5286 44.2711 41.54C44.317 41.5517 44.3442 41.596 44.3328 41.6397C44.2252 42.0864 44.5351 42.5328 44.8333 42.9643C45.0255 43.2426 45.206 43.5038 45.287 43.7685C45.4969 44.4574 45.3402 44.9981 45.1313 45.5844C45.1199 45.6177 45.0866 45.6411 45.0499 45.6411" fill="#231F20"/>
<path d="M45.9646 51.9551C45.875 51.3118 45.7569 50.7999 45.2829 50.3111C44.7878 49.8007 43.6142 49.5617 43.4224 48.7911C43.5971 49.6836 43.3936 50.6967 44.2002 51.3466C44.4874 51.5787 44.8571 51.7823 45.2171 51.8446L45.9646 51.9551Z" fill="#FAB20B"/>
<path d="M43.5714 49.2454L43.5952 49.5304C43.6474 50.2003 43.6955 50.8325 44.2549 51.2833C44.5652 51.5337 44.922 51.7088 45.2322 51.7629L45.8651 51.8554C45.7844 51.3137 45.6634 50.8249 45.2208 50.3677C45.0432 50.1857 44.7722 50.0372 44.4838 49.8805C44.1467 49.6966 43.7997 49.5079 43.5717 49.2451M45.9648 52.0374C45.9607 52.0374 45.9569 52.0374 45.9537 52.0362L45.2018 51.9263C44.8637 51.8677 44.4778 51.6794 44.1444 51.4106C43.5303 50.9151 43.4761 50.2174 43.4242 49.5427L43.3381 48.8073C43.3289 48.7626 43.3587 48.7186 43.4043 48.7095C43.4498 48.7003 43.4951 48.7281 43.5059 48.7712C43.6161 49.2182 44.0998 49.4807 44.5671 49.7358C44.8669 49.8989 45.1506 50.0524 45.3456 50.2538C45.8518 50.7768 45.9645 51.3286 46.0506 51.9428C46.0541 51.969 46.0446 51.9947 46.0256 52.0137C46.0088 52.0286 45.9876 52.0377 45.9645 52.0377" fill="#231F20"/>
<path d="M46.5866 55.1282C46.498 54.4862 46.3789 53.9733 45.9044 53.4855C45.4092 52.9748 44.2369 52.7367 44.0444 51.9668C44.2205 52.858 44.0163 53.8711 44.8223 54.522C45.1085 54.7547 45.4786 54.9566 45.8388 55.0187L46.5863 55.1286" fill="#FAB20B"/>
<path d="M44.1943 52.4195L44.2171 52.7054C44.2694 53.3744 44.3181 54.0069 44.8782 54.458C45.1875 54.7078 45.5439 54.8835 45.8555 54.937L46.487 55.0298C46.406 54.4878 46.2857 53.9987 45.8425 53.5418C45.6661 53.3595 45.3945 53.2123 45.107 53.0552C44.7677 52.8707 44.4216 52.6832 44.1943 52.4195ZM46.5868 55.2118C46.582 55.2118 46.5792 55.2118 46.5754 55.2115L45.8244 55.1013C45.4863 55.0418 45.1001 54.8544 44.7667 54.585C44.1528 54.0895 44.0981 53.3924 44.0465 52.7181L43.96 51.982C43.9512 51.9374 43.9813 51.8937 44.0262 51.8845C44.0712 51.8753 44.1177 51.9025 44.1278 51.9465C44.2393 52.3933 44.7227 52.6554 45.19 52.9102C45.4898 53.0733 45.7725 53.2271 45.9678 53.4282C46.4741 53.9515 46.5868 54.503 46.6729 55.1184C46.6757 55.1441 46.6665 55.1694 46.6488 55.1881C46.6319 55.2036 46.6097 55.2119 46.5868 55.2118Z" fill="#231F20"/>
<path d="M47.0378 58.4844C46.9064 57.849 46.7551 57.345 46.2501 56.8875C45.7218 56.4085 44.5355 56.243 44.2939 55.4857C44.526 56.3645 44.3905 57.389 45.2374 57.9889C45.5391 58.202 45.9215 58.3818 46.285 58.422L47.0378 58.4844Z" fill="#FAB20B"/>
<path d="M44.4707 55.9299L44.5137 56.2126C44.6087 56.8771 44.6996 57.5046 45.2865 57.9206C45.6136 58.152 45.9817 58.3043 46.2936 58.3394L46.9309 58.3926C46.8141 57.8579 46.6621 57.3767 46.1904 56.948C46.0017 56.7767 45.7206 56.6457 45.4242 56.5073C45.0738 56.3449 44.7167 56.1781 44.4707 55.9299ZM47.0372 58.568H47.0306L46.2746 58.5044C45.9327 58.4673 45.536 58.3033 45.1855 58.0557C44.54 57.5986 44.4406 56.9062 44.3434 56.236L44.2092 55.5066C44.1978 55.4635 44.2244 55.4189 44.2696 55.4062C44.2909 55.3999 44.3138 55.4021 44.3334 55.4123C44.3531 55.4225 44.368 55.44 44.3751 55.461C44.5153 55.9001 45.0146 56.1322 45.498 56.3579C45.807 56.5019 46.0998 56.6378 46.3085 56.8261C46.8489 57.3175 46.997 57.8607 47.1218 58.4683C47.1268 58.4936 47.1202 58.5214 47.1015 58.5404C47.0934 58.5494 47.0834 58.5565 47.0724 58.5613C47.0613 58.5661 47.0493 58.5681 47.0372 58.568Z" fill="#231F20"/>
<path d="M47.1437 62.0596C47.1538 61.4116 47.1136 60.8879 46.7194 60.3374C46.3066 59.7612 45.1821 59.3576 45.1096 58.5683C45.1476 59.475 44.7933 60.4488 45.4904 61.2071C45.7409 61.4784 46.0755 61.7313 46.4215 61.845L47.1437 62.0599" fill="#FAB20B"/>
<path d="M45.1871 59.0384L45.1678 59.3243C45.1168 59.9933 45.07 60.6252 45.554 61.1516C45.8238 61.4442 46.1502 61.6674 46.4484 61.7655L47.0591 61.9479C47.0613 61.4011 47.0163 60.8993 46.6485 60.3852C46.5003 60.1788 46.2543 59.9936 45.9941 59.7979C45.6873 59.5665 45.372 59.3297 45.1871 59.0384ZM47.1433 62.1432C47.1367 62.1432 47.1278 62.1422 47.1196 62.1397L46.3939 61.9241C46.0672 61.8174 45.7149 61.5759 45.4261 61.2628C44.8939 60.6837 44.9462 59.9866 44.9959 59.3116L45.0225 58.5718C45.0212 58.5271 45.057 58.4879 45.1032 58.4857C45.1517 58.4844 45.1906 58.5157 45.1941 58.5607C45.2371 59.0169 45.675 59.3461 46.0992 59.6653C46.3705 59.8691 46.6273 60.0629 46.7894 60.2896C47.2111 60.8787 47.2389 61.4407 47.2297 62.0603C47.2297 62.0872 47.2168 62.1119 47.1952 62.1264C47.1803 62.1375 47.1632 62.1429 47.1436 62.1429" fill="#231F20"/>
<path d="M48.3394 64.9254C48.1726 64.2976 47.9915 63.8021 47.4619 63.3715C46.9081 62.922 45.714 62.8197 45.4297 62.077C45.7121 62.9419 45.6326 63.9715 46.5121 64.5252C46.8262 64.7227 47.2184 64.8814 47.5831 64.9023L48.3394 64.9254Z" fill="#FAB20B"/>
<path d="M45.6322 62.5101L45.6908 62.7912C45.8238 63.4501 45.9494 64.0725 46.5592 64.4552C46.8986 64.6683 47.2734 64.8013 47.5884 64.8196L48.2267 64.8396C48.082 64.3115 47.9012 63.8388 47.4073 63.4368C47.2088 63.2759 46.9214 63.1594 46.6155 63.0369C46.2581 62.8926 45.8912 62.7453 45.6322 62.5101ZM48.3397 65.0089H48.3375C48.3143 65.0089 47.7622 64.9963 47.578 64.9858C47.2345 64.9659 46.8296 64.8237 46.4648 64.5945C45.7959 64.1732 45.6566 63.4868 45.5217 62.8232L45.3482 62.1017C45.3449 62.0914 45.3436 62.0805 45.3445 62.0697C45.3454 62.0589 45.3484 62.0483 45.3534 62.0387C45.3584 62.029 45.3652 62.0204 45.3735 62.0134C45.3818 62.0064 45.3914 62.0012 45.4017 61.9979C45.4451 61.983 45.4929 62.0052 45.5097 62.0482C45.6746 62.4772 46.1862 62.6839 46.6814 62.8827C46.9989 63.0097 47.2981 63.1306 47.5169 63.3082C48.0839 63.7692 48.2618 64.3039 48.422 64.9041C48.4286 64.9295 48.4233 64.9564 48.4058 64.9776C48.3897 64.9969 48.3656 65.0089 48.339 65.0089" fill="#231F20"/>
<path d="M49.851 67.4191C49.5765 66.829 49.3137 66.3709 48.7154 66.0341C48.0898 65.682 46.896 65.7783 46.4854 65.0932C46.9143 65.8989 47.0169 66.9265 47.9806 67.3267C48.3241 67.4695 48.7395 67.5622 49.1029 67.522L49.851 67.4191Z" fill="#FAB20B"/>
<path d="M46.761 65.487L46.8674 65.7542C47.1146 66.3807 47.347 66.9734 48.015 67.2494C48.3211 67.3777 48.644 67.4479 48.9252 67.4479C48.9822 67.4479 49.0376 67.4451 49.0933 67.4394L49.7265 67.3533C49.49 66.8566 49.231 66.4209 48.6716 66.1059C48.4487 65.9802 48.1445 65.9138 47.8231 65.8435C47.4448 65.7608 47.0573 65.6757 46.761 65.487ZM48.9252 67.6151C48.6222 67.6151 48.2746 67.5401 47.9472 67.4039C47.2131 67.0978 46.956 66.4453 46.7084 65.8144L46.4096 65.1315C46.3884 65.0919 46.4029 65.0425 46.4447 65.0204C46.4865 64.9982 46.5362 65.0124 46.5603 65.0517C46.7974 65.4471 47.3391 65.5668 47.8611 65.6811C48.1954 65.7545 48.512 65.8232 48.758 65.9622C49.3985 66.3228 49.6676 66.8208 49.9297 67.3859C49.9398 67.4096 49.9389 67.4375 49.9262 67.4593C49.9199 67.4711 49.9108 67.4812 49.8998 67.4889C49.8888 67.4965 49.8762 67.5015 49.8629 67.5033L49.112 67.605C49.0498 67.612 48.9877 67.6154 48.9252 67.6151Z" fill="#231F20"/>
<path d="M46.1203 42.4122C45.3658 42.1539 45.0663 41.0119 45.0869 40.2936C45.1135 39.3701 45.8683 38.6625 45.8629 37.765C45.759 38.6264 46.5964 39.3185 46.6379 40.1698C46.6762 40.9458 46.3001 41.6973 46.1203 42.4122Z" fill="#FAB20B"/>
<path d="M45.8454 38.3862C45.7694 38.622 45.663 38.8474 45.5592 39.069C45.3756 39.4562 45.1866 39.8564 45.1752 40.2958C45.1549 40.966 45.4196 42 46.0626 42.2989L46.2389 41.729C46.4057 41.2228 46.5792 40.6995 46.5533 40.1742C46.5343 39.7994 46.3472 39.4445 46.168 39.1007C46.0467 38.8699 45.922 38.6331 45.8454 38.3862ZM46.181 42.5221L46.092 42.492C45.261 42.2058 44.9817 40.9901 45.002 40.2911C45.0162 39.8178 45.2125 39.4011 45.4022 38.9994C45.5706 38.6426 45.7292 38.3067 45.7681 37.9395C45.7673 37.8778 45.7704 37.8162 45.7773 37.7549L45.9483 37.7637C45.9484 37.8242 45.9456 37.8847 45.9397 37.9448C45.9499 38.3187 46.1297 38.6619 46.3199 39.025C46.5086 39.3837 46.704 39.7567 46.7239 40.1657C46.7515 40.7219 46.5735 41.2598 46.4026 41.7803L46.2034 42.4325L46.181 42.5221ZM46.1604 46.7482C46.1249 46.7482 46.0936 46.7279 46.0797 46.6953C46.0129 46.5291 45.8444 46.4139 45.6659 46.2913C45.3632 46.0846 45.0204 45.8503 45.0634 45.3039C45.0663 45.258 45.109 45.2219 45.1549 45.2267C45.203 45.2301 45.2388 45.27 45.2344 45.3169C45.1986 45.7674 45.4747 45.9561 45.765 46.1552C45.9559 46.2866 46.1528 46.4215 46.2395 46.6348C46.2436 46.6451 46.2455 46.656 46.2453 46.667C46.245 46.678 46.2426 46.6889 46.2381 46.6989C46.2335 46.7089 46.2271 46.718 46.219 46.7254C46.2109 46.7329 46.2014 46.7387 46.1911 46.7425C46.181 46.7463 46.1693 46.7482 46.1604 46.7482ZM46.2456 48.8332C46.206 48.8332 46.1696 48.8066 46.1617 48.7674C46.1525 48.7218 46.181 48.6778 46.2272 48.6686C47.0608 48.4992 47.3096 48.1465 47.1785 47.3209C47.1713 47.2753 47.2035 47.2338 47.2494 47.2269C47.2979 47.2202 47.3403 47.2509 47.3482 47.2965C47.491 48.201 47.1773 48.6461 46.263 48.8316C46.2569 48.8329 46.2516 48.8332 46.2456 48.8332ZM47.1241 53.6482C47.1022 53.6484 47.0811 53.6402 47.0651 53.6253C47.049 53.6104 47.0393 53.5899 47.038 53.5681C47.0174 52.8843 46.5298 52.2388 45.8511 51.9963C45.8407 51.9927 45.831 51.9871 45.8228 51.9798C45.8146 51.9725 45.8079 51.9636 45.8032 51.9536C45.7985 51.9437 45.7958 51.9329 45.7953 51.9219C45.7948 51.9109 45.7966 51.8999 45.8004 51.8896C45.8159 51.8465 45.866 51.8247 45.9103 51.8402C46.6536 52.1052 47.1877 52.8137 47.2108 53.5624C47.2111 53.6093 47.175 53.6476 47.1263 53.6485L47.1241 53.6482ZM47.2333 51.9605C47.2244 51.9605 47.2153 51.9589 47.2058 51.9557C47.1611 51.9402 47.1364 51.8934 47.1516 51.8503C47.2162 51.6594 47.2311 51.4869 47.2444 51.3188C47.2605 51.1108 47.2786 50.8961 47.391 50.6542C47.4103 50.6121 47.4609 50.5938 47.504 50.6121C47.547 50.6305 47.566 50.6805 47.547 50.7226C47.447 50.9379 47.4321 51.1288 47.4157 51.3317C47.4008 51.509 47.3856 51.6923 47.3134 51.9025C47.302 51.938 47.2681 51.9605 47.2327 51.9605M45.9217 49.4787C45.8834 49.4787 45.8482 49.4544 45.8391 49.4164L45.8011 49.2543C45.7127 48.8655 45.664 48.6525 45.1986 48.5606C45.1517 48.5518 45.1217 48.5071 45.1315 48.4622C45.1413 48.4172 45.1862 48.3875 45.2325 48.3967C45.8074 48.5103 45.8786 48.8225 45.9682 49.2185L46.0053 49.3759C46.0167 49.4205 45.9885 49.4661 45.9419 49.4768C45.9359 49.4784 45.9293 49.4787 45.9217 49.4787ZM46.9759 55.7747C46.9316 55.7747 46.8936 55.7421 46.8895 55.6987C46.8553 55.316 46.9933 54.9339 47.277 54.6246C47.3432 54.5533 47.4166 54.4967 47.4875 54.4422C47.6458 54.3219 47.769 54.2269 47.769 54.0031C47.769 53.9562 47.8082 53.9195 47.8554 53.9195C47.9026 53.9195 47.9415 53.9562 47.9415 54.0031C47.9415 54.3083 47.7569 54.4489 47.5933 54.573C47.5287 54.6233 47.4606 54.6746 47.4058 54.7363C47.1523 55.0108 47.0307 55.347 47.0604 55.6845C47.0652 55.7301 47.0304 55.7703 46.9822 55.7744C46.98 55.7747 46.9778 55.7747 46.9759 55.7747ZM47.9842 58.1301C47.9421 58.1301 47.9048 58.1001 47.8978 58.058C47.8522 57.7325 48.0615 57.5226 48.2451 57.3374C48.3239 57.2592 48.398 57.1842 48.4477 57.106C48.4718 57.0667 48.5259 57.0553 48.5658 57.0791C48.6057 57.1028 48.619 57.1563 48.5937 57.1943C48.5338 57.288 48.4503 57.3713 48.3683 57.453C48.197 57.6264 48.0336 57.7895 48.0694 58.0352C48.0761 58.0811 48.0428 58.1229 47.9956 58.1292C47.9918 58.1301 47.989 58.1301 47.9842 58.1301ZM47.4872 58.7256C47.2976 58.7256 47.1177 58.6829 46.9743 58.518C46.943 58.4825 46.9481 58.4303 46.9841 58.4005C47.0202 58.3707 47.0744 58.3749 47.1048 58.4106C47.2694 58.5981 47.5011 58.5702 47.7933 58.5335L47.8427 58.5268C47.8912 58.5227 47.933 58.5534 47.9387 58.5993C47.9444 58.6452 47.9117 58.687 47.8649 58.6927L47.8155 58.6987L47.4872 58.7256ZM47.9393 62.0283C47.9 62.0283 47.8646 62.0014 47.8567 61.9621C47.8462 61.9175 47.8753 61.8731 47.9216 61.8636C48.4601 61.7509 48.538 61.1076 48.4993 60.7445C48.494 60.6989 48.5288 60.6575 48.5763 60.653C48.6238 60.6486 48.6649 60.6812 48.67 60.7268C48.7308 61.2875 48.5329 61.9061 47.9573 62.027C47.9507 62.0283 47.945 62.0283 47.9393 62.0283ZM48.562 65.0507C48.4167 65.0507 48.3027 64.996 48.2331 64.8871C48.2087 64.8475 48.2204 64.7962 48.26 64.7715C48.2996 64.7468 48.3534 64.7592 48.379 64.7984C48.4715 64.9444 48.7108 64.8681 48.808 64.8285C48.8523 64.8111 48.9027 64.8307 48.9204 64.8738C48.9381 64.9168 48.9179 64.9649 48.8745 64.9827C48.7592 65.0286 48.6551 65.0511 48.562 65.0511M47.8329 62.4215C47.5173 62.4215 47.3185 62.3442 47.0804 62.0606C47.0503 62.0242 47.0551 61.9722 47.0931 61.9428C47.1018 61.9357 47.1118 61.9304 47.1226 61.9272C47.1334 61.9241 47.1447 61.923 47.1558 61.9242C47.167 61.9254 47.1778 61.9287 47.1877 61.9341C47.1976 61.9395 47.2063 61.9467 47.2134 61.9555C47.4631 62.254 47.6278 62.2831 48.1463 62.2369C48.1948 62.2334 48.2359 62.2673 48.241 62.3129C48.2445 62.3588 48.2093 62.399 48.1622 62.4037L47.8329 62.4215Z" fill="#231F20"/>
<path d="M49.0538 64.5746C49.0098 64.6281 48.9496 64.7402 48.8705 64.7455C48.7612 64.7531 48.7612 64.9203 48.8705 64.9124C49.017 64.9019 49.0905 64.7946 49.1756 64.693C49.2428 64.6104 49.1225 64.4916 49.0538 64.5749M46.219 44.779C46.1585 44.7785 46.0979 44.7755 46.0376 44.7698L45.9202 44.7648C45.8717 44.7689 45.8303 44.7366 45.8255 44.691C45.8189 44.6457 45.8537 44.6036 45.9012 44.5982C45.942 44.5954 45.9901 44.5982 46.0516 44.6036C46.3064 44.6251 46.692 44.6578 46.8459 44.1113C46.8585 44.067 46.9067 44.0407 46.9513 44.0531C46.9978 44.0657 47.0238 44.1113 47.0111 44.156C46.8582 44.6976 46.491 44.779 46.2187 44.779" fill="#231F20"/>
<path d="M51.5516 69.0996C50.9792 68.373 51.1461 67.9826 50.3093 67.2852L50.4148 66.9658C50.4464 66.8632 50.2808 66.8189 50.2498 66.9218L50.1824 67.1269L49.7705 66.4747L49.4384 65.9049C49.3532 65.6355 49.245 65.4145 49.1392 65.1998L49.0889 65.0982C48.9467 64.8057 48.8435 64.0975 48.8179 63.7119C48.7783 63.0955 48.4712 62.5858 48.2192 62.2667L47.9593 61.958C47.7146 61.6781 47.4841 61.4135 47.3568 61.0237C47.2061 60.5574 47.2872 59.9917 47.5845 59.4335C47.8583 58.9197 48.1087 58.3663 48.0894 57.8002C48.0768 57.3884 47.8479 57.0756 47.6259 56.772C47.511 56.6153 47.3929 56.4519 47.3071 56.2803C46.7939 55.2429 46.9529 54.6518 47.1374 53.967C47.2236 53.6454 47.3131 53.3123 47.3397 52.9106C47.3875 52.1555 47.265 51.6049 46.9557 51.1795C46.799 50.9642 46.6417 50.8185 46.5036 50.6897C46.2162 50.4225 46.0265 50.2468 46.03 49.6525C46.0335 49.1001 46.2083 48.8785 46.3773 48.6657C46.5217 48.4834 46.6714 48.2944 46.6854 47.9338C46.7034 47.4168 46.478 47.0052 46.2599 46.6076C46.0952 46.3075 45.9411 46.0238 45.885 45.7019C45.8018 45.221 45.9243 44.5846 46.1826 44.1534C46.2406 44.0581 46.2941 44.0037 46.346 43.9521C46.4508 43.8448 46.5413 43.7536 46.5739 43.4364C46.603 43.1169 46.4805 42.8738 46.3621 42.6376L46.2241 42.3362L46.0303 42.4055C46.0739 42.5146 46.1229 42.6215 46.1772 42.7256C46.2934 42.9558 46.3935 43.154 46.3681 43.4186C46.345 43.6656 46.2893 43.7213 46.1975 43.814C46.1427 43.8682 46.0747 43.9366 46.0047 44.0531C45.7207 44.5283 45.5903 45.2045 45.6827 45.7348C45.7435 46.0897 45.9142 46.4012 46.0781 46.701C46.2934 47.0933 46.4957 47.4637 46.4783 47.9268C46.4685 48.2241 46.3507 48.3716 46.214 48.5439C46.0319 48.7728 45.8274 49.0311 45.8239 49.6516C45.8192 50.3329 46.0712 50.5656 46.3612 50.8344C46.4919 50.9572 46.6414 51.0949 46.7864 51.2944C47.0684 51.6822 47.1792 52.1913 47.1324 52.8985C47.1083 53.2806 47.0209 53.6042 46.9377 53.917C46.7518 54.6094 46.5765 55.2634 47.121 56.3671C47.2144 56.5548 47.3397 56.7238 47.4578 56.8878C47.6709 57.18 47.8732 57.4564 47.8843 57.8059C47.902 58.354 47.6459 58.8861 47.4021 59.3417C47.0792 59.9483 46.9934 60.5666 47.1615 61.0842C47.2992 61.5132 47.5553 61.8057 47.802 62.0884L48.0562 62.3876C48.2892 62.6852 48.5763 63.1579 48.6121 63.7245C48.6336 64.0497 48.7324 64.8335 48.9034 65.1831L48.9531 65.2869C49.056 65.4943 49.1617 65.7083 49.2409 65.9628C49.2849 66.1034 49.4083 66.2943 49.5964 66.5824L50.0903 67.3764C50.019 67.383 49.9472 67.3732 49.8804 67.3476C49.7775 67.3096 49.7325 67.4704 49.8351 67.5084C49.9483 67.5499 50.0711 67.5577 50.1887 67.5309C50.1938 67.5306 50.196 67.5274 50.1998 67.5261C50.2042 67.5245 50.2085 67.5227 50.2128 67.5207C50.2204 67.5166 50.2258 67.5131 50.2302 67.5065C50.2387 67.4976 50.7909 68.0058 50.8444 68.4211C50.8478 68.4287 50.8497 68.4366 50.8535 68.4436C50.9913 68.7551 51.1575 69.0397 51.456 69.2579C51.5545 69.3291 51.6251 69.193 51.5516 69.0996ZM69.4116 39.7611C69.2558 38.4773 67.9543 38.1981 67.6637 38.1519C67.6349 37.8568 67.3737 37.7514 67.1378 37.7517C66.9454 37.7517 66.801 37.8036 66.7098 37.9065C66.63 37.9974 66.6107 38.1031 66.6085 38.1721C65.6084 38.2801 65.156 38.9684 64.9607 39.4309L64.8632 39.3106L64.8287 39.4828C64.7159 40.0501 64.67 41.1316 65.024 41.6182C65.4207 42.1618 66.0646 42.4996 66.7041 42.4986C67.487 42.4983 68.106 42.3441 68.5438 42.0427C69.1415 41.6315 69.4299 40.9445 69.4505 39.882L69.4534 39.7373L69.4116 39.7611Z" fill="#231F20"/>
<path d="M68.5789 40.6266L68.446 40.822L68.4273 40.5887C68.3979 40.2414 68.2525 39.7174 67.9385 39.3514C67.5608 39.6082 67.4272 39.9596 67.2964 40.3009L67.2151 40.5086L67.0888 40.8122L67.0558 40.4864C67.0115 40.0321 66.8216 39.6756 66.4445 39.3365C66.1305 39.5594 65.9051 40.0077 65.7534 40.3101L65.6442 40.52L65.5517 40.6773L65.4925 40.5063C65.4242 40.3066 65.1278 39.9096 64.961 39.6946C64.8736 40.2857 64.8812 41.1443 65.1582 41.5248C65.5255 42.0275 66.1178 42.34 66.7044 42.3387C67.217 42.3372 67.9382 42.2631 68.4472 41.9117C68.9794 41.5466 69.2378 40.9606 69.2815 40.0239C68.9927 40.1872 68.8028 40.2961 68.5786 40.627" fill="#00A650"/>
<path d="M65.5684 40.2961L65.5972 40.2388C65.7654 39.9042 66.0193 39.3983 66.3988 39.1659L66.453 39.1339L66.4986 39.1741C66.8471 39.4733 67.0624 39.7972 67.1612 40.1746C67.2942 39.8279 67.4604 39.4489 67.9007 39.1783L67.9603 39.1415L68.0062 39.1919C68.3683 39.5756 68.5067 40.0834 68.5561 40.3724C68.7549 40.1315 68.9458 40.0232 69.193 39.8833L69.2804 39.8327C69.1538 38.4447 67.6022 38.2738 67.587 38.2728L67.5265 38.2674V38.2092C67.5265 37.9031 67.2315 37.8809 67.1416 37.8809C66.9792 37.8809 66.869 37.9176 66.8034 37.9901C66.717 38.0873 66.7341 38.2203 66.7341 38.2215L66.7433 38.2887L66.6746 38.2953C65.6466 38.3792 65.2154 39.1092 65.0464 39.548C65.1756 39.713 65.4314 40.0473 65.5681 40.2965" fill="white"/>
<path d="M67.3408 42.7912C67.3531 42.7984 67.361 42.8089 67.3696 42.8187H67.368L67.3408 42.7912ZM68.7882 42.0101C68.7385 41.9927 68.6856 41.9858 68.6337 41.9899C68.4555 42.0025 68.3016 42.1327 68.2016 42.2416C68.174 42.0412 68.0556 41.8088 67.7343 41.767C67.6988 41.7622 67.6634 41.7603 67.6292 41.7622C67.4051 41.7778 67.2518 41.9342 67.1616 42.0636C67.1365 41.9668 67.0854 41.8786 67.0138 41.8088C66.9137 41.7163 66.7779 41.6746 66.6111 41.6859C66.3746 41.7021 66.2302 41.8645 66.1561 42.0168C66.0697 41.8493 65.9041 41.6749 65.6341 41.6942L65.6053 41.6964C65.4267 41.7163 65.2909 41.7835 65.2041 41.8955C65.1449 41.9712 65.1183 42.0548 65.1082 42.1251C65.0259 42.0693 64.8939 42.0177 64.6963 42.0313L64.6682 42.0336C64.5099 42.0491 64.3921 42.1162 64.3171 42.2336C64.1338 42.5214 64.275 43.0356 64.3402 43.2337C64.2886 43.8074 64.3367 44.748 64.6875 45.1646C65.1082 45.6636 65.7512 45.9482 66.3679 45.9057C67.1239 45.8535 67.7102 45.6651 68.1117 45.3463C68.6296 44.9363 68.8604 44.3019 68.8424 43.3708C68.9953 43.2087 69.1124 42.9621 69.1219 42.9428C69.1976 42.6841 69.2242 42.1577 68.7885 42.0098" fill="#231F20"/>
<path d="M69.0123 42.8994C69.0111 42.8994 69.1858 42.2729 68.7562 42.1266C68.7231 42.1156 68.6882 42.1109 68.6533 42.113C68.4548 42.1266 68.263 42.365 68.205 42.4562L68.0508 42.7006L68.0866 42.4147C68.0891 42.3957 68.1436 41.944 67.7279 41.8895C67.702 41.8855 67.6756 41.8845 67.6494 41.8867C67.3515 41.9066 67.1964 42.278 67.1951 42.2818L67.0644 42.6009L67.071 42.2574C67.072 42.2552 67.0745 42.0272 66.9352 41.8987C66.8617 41.8306 66.7595 41.8002 66.6309 41.8097C66.3071 41.8322 66.2343 42.2033 66.2305 42.2185L66.1744 42.5322L66.107 42.221C66.1019 42.2033 66.0092 41.7933 65.6527 41.818L65.6312 41.8202C65.4878 41.8367 65.382 41.8864 65.3171 41.9696C65.2174 42.0972 65.2427 42.2647 65.2427 42.2659L65.3022 42.6411L65.1227 42.3046C65.1186 42.2979 65.0236 42.1349 64.7159 42.1551L64.6915 42.1574C64.5734 42.1688 64.4911 42.214 64.4367 42.2992C64.2426 42.6034 64.4997 43.2727 64.5025 43.2784L64.5092 43.3088C64.6336 43.4456 64.9648 43.8137 65.1224 44.0695L65.1582 43.9844C65.2962 43.6517 65.5061 43.1489 65.8537 42.9032L65.8914 42.8754L65.9303 42.9032C66.3068 43.1847 66.5331 43.4886 66.6484 43.8672C66.7557 43.5136 66.8817 43.1172 67.3021 42.8178L67.3461 42.7864L67.3851 42.8222C67.7764 43.1844 67.9407 43.6931 68.0018 43.9581C68.2652 43.6099 68.7033 43.3363 68.7236 43.3233C68.874 43.1907 69.0111 42.9017 69.0123 42.8994Z" fill="white"/>
<path d="M68.022 44.1525L67.9305 44.3105L67.9017 44.1316C67.8488 43.7909 67.669 43.2847 67.3319 42.9498C66.9725 43.2258 66.8655 43.5807 66.7623 43.9239L66.6968 44.1294L66.6154 44.3697L66.5733 44.1202C66.4976 43.677 66.2849 43.3398 65.8866 43.0324C65.5916 43.267 65.4016 43.7241 65.274 44.03L65.1816 44.2405L65.1205 44.3659L65.0657 44.2367C64.9958 44.0746 64.7393 43.7583 64.4936 43.4829C64.4737 44.0423 64.5528 44.7493 64.8188 45.0655C65.2063 45.5268 65.7989 45.7889 66.3653 45.7503C66.8617 45.7164 67.5509 45.5971 68.0188 45.2263C68.4807 44.8601 68.6897 44.3171 68.691 43.494C68.521 43.6146 68.1847 43.8714 68.0223 44.1528" fill="#00A650"/>
<path d="M66.8286 46.2378C66.8409 46.2467 66.8466 46.2572 66.8549 46.2682V46.2673L66.8286 46.2378ZM68.3431 45.5879C68.2953 45.5667 68.2444 45.5553 68.1915 45.5546C68.0126 45.5499 67.8471 45.6674 67.7378 45.7664C67.729 45.5648 67.633 45.3232 67.3158 45.252C67.2813 45.2451 67.2462 45.241 67.211 45.2396C66.9878 45.2355 66.82 45.378 66.7181 45.4989C66.7029 45.4128 66.6687 45.3131 66.5943 45.2317C66.5031 45.1301 66.3727 45.0763 66.2059 45.0734C65.9678 45.0684 65.8098 45.2178 65.7209 45.3634C65.6512 45.1896 65.5018 45.0013 65.2298 44.9962H65.2017C65.0231 45.0003 64.8813 45.0544 64.7834 45.1592C64.7179 45.2289 64.6847 45.3099 64.6679 45.3793C64.591 45.3169 64.4643 45.2536 64.2655 45.2488H64.2386C64.0787 45.2504 63.9552 45.308 63.8698 45.4172C63.6605 45.6886 63.7523 46.2125 63.7979 46.4161C63.695 46.9821 63.6545 47.9227 63.9651 48.3685C64.3377 48.9032 64.9525 49.2432 65.5708 49.2549C66.3271 49.2698 66.9296 49.1333 67.3598 48.851C67.9116 48.4878 68.2016 47.8781 68.2694 46.9476C68.4381 46.8004 68.5774 46.5642 68.5885 46.5465C68.6876 46.2955 68.7629 45.7734 68.3431 45.5879Z" fill="#231F20"/>
<path d="M68.4838 46.4924C68.4829 46.4924 68.7159 45.8849 68.3005 45.7009C68.2686 45.6867 68.2341 45.6789 68.1992 45.6781C68.0004 45.6746 67.7873 45.8947 67.7221 45.9795L67.5435 46.2097L67.6081 45.9285C67.6119 45.9095 67.7085 45.4647 67.2979 45.3742C67.2725 45.3676 67.2465 45.3643 67.2203 45.3644C66.9218 45.3577 66.7337 45.7139 66.7312 45.7177L66.5713 46.0242L66.6115 45.6826C66.6115 45.68 66.6365 45.4524 66.5092 45.3128C66.4424 45.239 66.3424 45.1998 66.2139 45.1975C65.8897 45.1915 65.7824 45.5537 65.7782 45.5695L65.6909 45.8769L65.6538 45.5607C65.6513 45.5429 65.5959 45.1263 65.2388 45.1197H65.2176C65.0735 45.1235 64.9634 45.1643 64.8909 45.2415C64.7797 45.3596 64.7886 45.5281 64.7886 45.5293L64.8142 45.9076L64.6658 45.5581C64.6632 45.5515 64.5819 45.3799 64.2741 45.3742L64.2498 45.3732C64.1307 45.3742 64.0449 45.4128 63.9841 45.4913C63.7616 45.7772 63.9541 46.4664 63.9576 46.4731L63.9601 46.5044C64.0718 46.6504 64.3666 47.0461 64.5008 47.3152L64.5448 47.2338C64.7129 46.9144 64.9687 46.4325 65.3376 46.2173L65.3793 46.1935L65.4139 46.2252C65.763 46.5377 65.9606 46.8612 66.0394 47.2481C66.1778 46.9052 66.3421 46.5221 66.7894 46.26L66.835 46.2331L66.8705 46.2727C67.2263 46.6675 67.3419 47.1879 67.3792 47.4583C67.6743 47.1341 68.1352 46.8995 68.1577 46.8884C68.3189 46.7703 68.4829 46.4946 68.4841 46.4921" fill="white"/>
<path d="M67.3806 47.6542L67.2752 47.8027L67.2638 47.6216C67.2432 47.2781 67.1106 46.7593 66.8067 46.3955C66.422 46.639 66.2824 46.9828 66.1469 47.3145L66.0633 47.5137L65.9604 47.7467L65.9402 47.4937C65.9069 47.0464 65.7271 46.6912 65.3605 46.3493C65.0436 46.5582 64.8109 46.9973 64.6551 47.2899L64.545 47.4909L64.4706 47.6115L64.4275 47.4782C64.3747 47.3095 64.148 46.9717 63.9286 46.6763C63.8577 47.231 63.8703 47.9423 64.1043 48.2808C64.4484 48.7747 65.0145 49.0884 65.5818 49.0992C66.0792 49.1093 66.7763 49.0513 67.2774 48.7218C67.7697 48.3979 68.0306 47.8762 68.1091 47.0565C67.9277 47.1616 67.5693 47.3883 67.3806 47.6542Z" fill="#00A650"/>
<path d="M66.4859 49.7928C66.4973 49.8014 66.5036 49.8131 66.5115 49.8232V49.8222L66.4859 49.7928ZM67.9992 49.1429C67.9523 49.1216 67.9007 49.1102 67.8488 49.1096C67.6699 49.1058 67.5046 49.2223 67.3942 49.322C67.3853 49.1204 67.2894 48.8785 66.9728 48.8082C66.9383 48.8003 66.9022 48.7956 66.8674 48.7946C66.6442 48.7899 66.477 48.933 66.3744 49.0539C66.3591 48.9551 66.3165 48.8625 66.2513 48.7867C66.1604 48.6851 66.0293 48.6322 65.8625 48.6293C65.6244 48.624 65.4665 48.7734 65.3772 48.9184C65.3078 48.7446 65.1581 48.5565 64.8874 48.5511H64.8599C64.6797 48.5553 64.5385 48.6103 64.441 48.7136C64.3742 48.7832 64.3413 48.8658 64.3242 48.9342C64.2466 48.8712 64.1213 48.8079 63.9228 48.8041L63.8946 48.8032C63.7363 48.8054 63.6119 48.8624 63.5258 48.9716C63.3168 49.2429 63.4083 49.7668 63.4558 49.9704C63.351 50.5374 63.3114 51.477 63.622 51.9228C63.994 52.4575 64.6095 52.7975 65.2268 52.8093C65.985 52.8244 66.5856 52.6889 67.0161 52.4056C67.5692 52.0434 67.858 51.4321 67.9276 50.5032C68.0951 50.3547 68.2353 50.1195 68.2451 50.1008C68.3442 49.8511 68.4202 49.3281 67.9995 49.1425" fill="#231F20"/>
<path d="M68.1398 50.048C68.1389 50.048 68.3719 49.4401 67.9565 49.2565C67.9253 49.2419 67.8913 49.2342 67.8568 49.2337C67.6567 49.2299 67.443 49.4499 67.3781 49.5348L67.1996 49.7656L67.2638 49.4844C67.2689 49.4654 67.3648 49.0197 66.9539 48.9295C66.9286 48.9229 66.9025 48.9196 66.8763 48.9196C66.5778 48.9136 66.3897 49.2688 66.3885 49.2726L66.2286 49.5801L66.2675 49.2381C66.2685 49.2356 66.2925 49.0089 66.1653 48.8684C66.0985 48.7946 65.9997 48.756 65.8712 48.7534C65.5457 48.7474 65.4403 49.1106 65.4346 49.1254L65.3488 49.4322L65.3086 49.1159C65.307 49.0982 65.2525 48.6819 64.8954 48.6749H64.8739C64.7292 48.6787 64.6206 48.7196 64.5475 48.7965C64.4364 48.9152 64.4446 49.0843 64.4446 49.0855L64.4703 49.4632L64.3218 49.1125C64.3193 49.1061 64.2392 48.9348 63.9305 48.9285H63.9064C63.7883 48.9301 63.701 48.9687 63.6402 49.0466C63.4176 49.3325 63.611 50.0217 63.6133 50.0283L63.6171 50.059C63.7298 50.2059 64.0239 50.6014 64.1568 50.8705L64.2012 50.7881C64.3699 50.4693 64.6254 49.9881 64.9936 49.7725L65.0354 49.7488L65.0708 49.7808C65.4191 50.0926 65.6179 50.4155 65.6964 50.8037C65.8354 50.4605 65.9987 50.0771 66.4458 49.8156L66.4923 49.7881L66.5268 49.8283C66.8827 50.2234 66.9992 50.7435 67.0362 51.0132C67.3303 50.6894 67.7913 50.4551 67.8134 50.4443C67.9746 50.3262 68.1389 50.0508 68.1401 50.048" fill="white"/>
<path d="M67.0366 51.2089L66.9311 51.3574L66.9201 51.1763C66.8988 50.8334 66.7659 50.3142 66.4626 49.9501C66.0786 50.1936 65.9383 50.5377 65.8028 50.8695L65.7202 51.0683L65.6167 51.3017L65.5974 51.0493C65.5628 50.6014 65.383 50.2462 65.0161 49.9058C64.7005 50.1138 64.4678 50.5517 64.3111 50.8455L64.2009 51.0465L64.1271 51.1668L64.085 51.0338C64.0309 50.8651 63.8042 50.5273 63.5848 50.2319C63.5139 50.7856 63.5262 51.4986 63.763 51.8354C64.1046 52.3296 64.671 52.643 65.238 52.6544C65.7354 52.6646 66.4335 52.6066 66.9337 52.2774C67.4272 51.9535 67.6868 51.4311 67.7653 50.6112C67.5839 50.7163 67.2259 50.9433 67.0372 51.2089" fill="#00A650"/>
<path d="M66.0895 53.5808C66.1009 53.5893 66.1069 53.6001 66.1157 53.6102L66.1148 53.6089L66.0895 53.5808ZM67.6027 52.9302C67.5554 52.909 67.5042 52.8975 67.4524 52.8963C67.2735 52.8935 67.1067 53.009 66.9977 53.1087C66.9886 52.9064 66.893 52.6655 66.5764 52.5949C66.5412 52.587 66.5058 52.5826 66.4716 52.5813C66.2474 52.5778 66.08 52.7197 65.9786 52.8406C65.9626 52.7418 65.9196 52.6495 65.8542 52.5737C65.7631 52.4721 65.6326 52.4195 65.4658 52.4154C65.2277 52.4107 65.0694 52.5601 64.9804 52.7054C64.9118 52.531 64.7617 52.3429 64.4907 52.3382H64.4628C64.2827 52.3423 64.1412 52.3967 64.0446 52.5012C63.9788 52.5712 63.9449 52.6519 63.9272 52.7225C63.8509 52.6579 63.7245 52.5959 63.5257 52.5918L63.4979 52.5914C63.3396 52.5924 63.2152 52.6487 63.1291 52.7595C62.9201 53.0309 63.0116 53.5551 63.0584 53.7577C62.953 54.3241 62.9144 55.2647 63.2256 55.7101C63.597 56.2455 64.2121 56.5849 64.8301 56.5975C65.5874 56.6127 66.1889 56.4763 66.6194 56.1939C67.1725 55.8304 67.4612 55.2201 67.5299 54.2902C67.698 54.1424 67.8373 53.9078 67.8487 53.8888C67.9475 53.6381 68.0235 53.1157 67.6027 52.9302Z" fill="#231F20"/>
<path d="M67.7425 53.8347C67.7425 53.8347 67.9746 53.2271 67.5599 53.0432C67.5282 53.0293 67.494 53.0217 67.4598 53.0217C67.2607 53.0169 67.0467 53.237 66.9811 53.3221L66.8029 53.5516L66.8665 53.2708C66.8706 53.2522 66.9669 52.807 66.5579 52.7165C66.5321 52.7098 66.5056 52.7064 66.479 52.7064C66.1824 52.7 65.9924 53.0559 65.9912 53.0597L65.8313 53.3674L65.8705 53.0245C65.8715 53.0223 65.8946 52.7953 65.768 52.6548C65.7018 52.581 65.603 52.543 65.4726 52.5405C65.1484 52.5338 65.0417 52.8973 65.0373 52.9115L64.9509 53.2189L64.9129 52.9026C64.9103 52.8849 64.8549 52.4683 64.4988 52.4616L64.4769 52.4626C64.3326 52.4651 64.2227 52.5066 64.1502 52.5838C64.0397 52.7019 64.0486 52.8704 64.0486 52.8716L64.0736 53.2503L63.9264 52.9004C63.9223 52.8931 63.8415 52.7222 63.5341 52.7159L63.5091 52.7155C63.3913 52.7168 63.304 52.7551 63.2432 52.8336C63.0206 53.1198 63.2141 53.8087 63.2166 53.8154L63.2201 53.8467C63.3318 53.9927 63.6263 54.3887 63.7599 54.6572L63.8042 54.5761C63.9729 54.2567 64.2287 53.7748 64.5972 53.5602L64.6381 53.5361L64.6738 53.5678C65.0218 53.8815 65.22 54.2038 65.2991 54.5907C65.4381 54.2478 65.6014 53.8641 66.0488 53.6033L66.0953 53.5754L66.1298 53.6156C66.4857 54.0104 66.6009 54.5302 66.6386 54.8009C66.9333 54.4767 67.3946 54.2424 67.4152 54.2323C67.5782 54.113 67.7413 53.8372 67.7425 53.8347Z" fill="white"/>
<path d="M66.6399 54.9965L66.5338 55.145L66.5224 54.9642C66.5019 54.6211 66.3692 54.1015 66.0653 53.7375C65.6813 53.9809 65.5413 54.3247 65.4055 54.6572L65.3222 54.8557L65.2194 55.0887L65.2 54.8367C65.1659 54.3881 64.986 54.0335 64.6191 53.6922C64.3016 53.9002 64.0708 54.3393 63.9141 54.6331L63.8036 54.8329L63.7301 54.9535L63.6874 54.8202C63.6339 54.6521 63.4072 54.3137 63.1872 54.0183C63.1166 54.5739 63.1289 55.285 63.3642 55.6228C63.7073 56.1176 64.2737 56.4304 64.8404 56.4411C65.3381 56.4513 66.0358 56.3946 66.536 56.065C67.029 55.7412 67.2883 55.2182 67.368 54.3988C67.186 54.5036 66.8286 54.7306 66.6399 54.9965Z" fill="#00A650"/>
<path d="M65.284 57.1161C65.2954 57.125 65.302 57.1351 65.3106 57.1465H65.3096L65.284 57.1161ZM66.7988 56.4652C66.7498 56.445 66.6997 56.4332 66.6472 56.432C66.4677 56.4291 66.3018 56.545 66.1922 56.645C66.1834 56.4427 66.0894 56.2009 65.7718 56.1312C65.7375 56.1228 65.7023 56.1184 65.667 56.1182C65.4432 56.1132 65.2748 56.2563 65.1735 56.3769C65.1573 56.2908 65.1228 56.1917 65.0503 56.1097C64.9582 56.0081 64.8287 55.9549 64.6603 55.9511C64.4238 55.947 64.2652 56.0954 64.1765 56.2423C64.1066 56.0676 63.9571 55.8798 63.6855 55.8741H63.6576C63.4781 55.8779 63.336 55.9333 63.2388 56.0366C63.1726 56.1075 63.14 56.1876 63.122 56.2569C63.0447 56.1936 62.9197 56.1312 62.7206 56.1265H62.693C62.5338 56.128 62.4109 56.185 62.3236 56.2949C62.1149 56.5662 62.2074 57.0911 62.2536 57.2928C62.1488 57.8598 62.1095 58.7994 62.4195 59.2458C62.7921 59.7805 63.4072 60.1205 64.0262 60.1322C64.7822 60.1471 65.3846 60.0107 65.8155 59.7283C66.3667 59.3652 66.6573 58.7554 66.7247 57.8262C66.8932 57.6777 67.0322 57.4428 67.0436 57.4232C67.1436 57.1741 67.2183 56.6514 66.7988 56.4652Z" fill="#231F20"/>
<path d="M66.9387 57.3706C66.9378 57.3706 67.1705 56.7625 66.7554 56.5792C66.7237 56.5653 66.6897 56.5575 66.6551 56.5564C66.4563 56.5529 66.2419 56.7729 66.1773 56.8581L65.9997 57.0882L66.0634 56.8068C66.0675 56.7887 66.1631 56.3433 65.7534 56.2531C65.7268 56.2468 65.7002 56.243 65.6752 56.2426C65.3773 56.2366 65.1877 56.5925 65.1867 56.5959L65.0259 56.904L65.0655 56.5611C65.0668 56.5589 65.0899 56.3322 64.9629 56.1917C64.8971 56.1182 64.7973 56.0786 64.6688 56.0764C64.3446 56.0691 64.237 56.4326 64.2332 56.4487L64.1458 56.7552L64.1078 56.4389C64.104 56.4212 64.0508 56.0049 63.6937 55.9982H63.6725C63.5281 56.0011 63.4189 56.0426 63.3448 56.1198C63.2344 56.2379 63.2432 56.4073 63.2432 56.4082L63.2695 56.7865L63.1197 56.4361C63.1172 56.4294 63.0374 56.2572 62.7297 56.2515H62.7053C62.5863 56.2528 62.4989 56.2908 62.4381 56.3696C62.2162 56.6558 62.4093 57.3447 62.4115 57.352L62.4157 57.382C62.5271 57.5292 62.8222 57.925 62.9554 58.1934L62.9998 58.1124C63.1682 57.793 63.4237 57.3118 63.7925 57.0965L63.834 57.0727L63.8694 57.1034C64.2174 57.4165 64.4152 57.7404 64.495 58.1266C64.6333 57.7838 64.7973 57.3998 65.2437 57.1386L65.2896 57.1123L65.3254 57.1519C65.6809 57.546 65.7955 58.0674 65.8332 58.3356C66.128 58.013 66.5892 57.7784 66.6111 57.767C66.7732 57.6495 66.9365 57.3732 66.9381 57.3706" fill="white"/>
<path d="M65.8348 58.5309L65.73 58.6807L65.7186 58.4996C65.6968 58.1555 65.5645 57.6375 65.2606 57.2734C64.8765 57.5169 64.7363 57.8598 64.6008 58.1931L64.5182 58.3916L64.4146 58.625L64.3947 58.3714C64.3618 57.9234 64.181 57.5698 63.8144 57.2291C63.4978 57.4368 63.2657 57.875 63.1093 58.1684L62.9992 58.3695L62.9254 58.4898L62.8827 58.3571C62.8292 58.1884 62.6018 57.8509 62.3821 57.5546C62.3112 58.1089 62.3239 58.8209 62.5594 59.16C62.9023 59.6526 63.469 59.9657 64.035 59.9777C64.5327 59.9866 65.2305 59.9299 65.7319 59.6007C66.2242 59.2762 66.4842 58.7538 66.5627 57.9345C66.3806 58.0393 66.0229 58.2663 65.8345 58.5309" fill="#00A650"/>
<path d="M64.6438 60.6404C64.6549 60.6477 64.6616 60.6584 64.6701 60.6695H64.6692L64.6438 60.6404ZM66.1571 59.9898C66.1103 59.9673 66.0596 59.9565 66.0068 59.9556C65.8279 59.9531 65.6623 60.068 65.5518 60.1683C65.543 59.9648 65.4477 59.7248 65.1314 59.6539C65.097 59.6462 65.0619 59.6419 65.0266 59.6412C64.8025 59.6377 64.6344 59.7796 64.5327 59.9005C64.5178 59.8144 64.4833 59.7153 64.4096 59.6336C64.3184 59.5311 64.1876 59.4782 64.0205 59.4757C63.7827 59.4706 63.6251 59.6191 63.5364 59.7653C63.4665 59.5906 63.317 59.4028 63.0454 59.3981L63.0175 59.3968C62.8374 59.4009 62.6972 59.4573 62.5987 59.5599C62.5338 59.6305 62.5002 59.7118 62.4819 59.7812C62.4059 59.7182 62.2793 59.6548 62.0804 59.6504H62.0529C61.8937 59.6517 61.7702 59.7087 61.6844 59.8179C61.4742 60.0901 61.5676 60.6144 61.6135 60.818C61.5087 61.384 61.4691 62.3246 61.7803 62.7691C62.1523 63.3051 62.7671 63.6432 63.386 63.6559C64.1424 63.6714 64.7445 63.5352 65.1741 63.2522C65.7266 62.8897 66.0163 62.2784 66.0859 61.3505C66.2531 61.202 66.3924 60.9658 66.4034 60.9478C66.5022 60.697 66.5782 60.1753 66.1575 59.9901" fill="#231F20"/>
<path d="M66.2979 60.8942C66.297 60.8942 66.5306 60.2861 66.1143 60.1028C66.0836 60.0879 66.0497 60.0803 66.0143 60.0803C65.8155 60.0756 65.6015 60.2959 65.5359 60.3817L65.3577 60.6106L65.4223 60.3307C65.4264 60.3127 65.5226 59.8669 65.1111 59.7764C65.086 59.7697 65.0607 59.7662 65.0348 59.7653C64.7369 59.7593 64.5475 60.1148 64.5459 60.1189L64.3861 60.4263L64.425 60.0841C64.4263 60.0812 64.4503 59.8546 64.3224 59.7153C64.2566 59.6409 64.1575 59.6023 64.0283 59.6C63.7032 59.5934 63.5975 59.9562 63.5927 59.9711L63.5053 60.2788L63.4673 59.9632C63.4651 59.9451 63.4104 59.5288 63.0532 59.5222L63.032 59.5225C62.8877 59.5253 62.7784 59.5665 62.7056 59.6428C62.5939 59.7609 62.6034 59.9306 62.6034 59.9318L62.6274 60.3101L62.4796 59.9603C62.4767 59.953 62.3963 59.7821 62.0886 59.7757H62.0642C61.9452 59.7767 61.8591 59.815 61.797 59.8938C61.5751 60.1797 61.7682 60.8686 61.7704 60.8756L61.7745 60.9056C61.8869 61.0529 62.181 61.4486 62.315 61.7171L62.359 61.6351C62.5274 61.3169 62.7829 60.835 63.1517 60.6198L63.1935 60.5954L63.2286 60.6274C63.5766 60.9402 63.7747 61.2631 63.8542 61.6503C63.9926 61.3074 64.1569 60.9234 64.6029 60.6622L64.6495 60.6359L64.6837 60.6742C65.0405 61.0696 65.1563 61.5898 65.1931 61.8595C65.4872 61.5363 65.9487 61.302 65.9706 61.2906C66.1327 61.1725 66.296 60.8968 66.2976 60.8942" fill="white"/>
<path d="M65.1946 62.0552L65.0885 62.2046L65.0787 62.0235C65.0575 61.68 64.9242 61.1602 64.6206 60.7977C64.2356 61.0405 64.096 61.385 63.9605 61.7158L63.8779 61.9159L63.7744 62.148L63.7544 61.8956C63.7199 61.4483 63.5407 61.0928 63.1741 60.7518C62.8575 60.9598 62.6255 61.3986 62.4691 61.6924L62.3589 61.8934L62.2845 62.0128L62.2424 61.8798C62.1889 61.7114 61.9616 61.3742 61.7425 61.0782C61.6716 61.6329 61.6843 62.3446 61.9189 62.6827C62.2624 63.1753 62.8278 63.489 63.3954 63.5004C63.8921 63.5105 64.5899 63.4532 65.0907 63.1243C65.5843 62.8004 65.8442 62.2784 65.9224 61.4587C65.7404 61.5629 65.3826 61.7908 65.1943 62.0555" fill="#00A650"/>
<path d="M64.0191 64.0598C64.0296 64.0677 64.0366 64.0791 64.0454 64.0899L64.0191 64.0598ZM65.5327 63.4092C65.4843 63.3887 65.434 63.3776 65.3811 63.3763C65.2022 63.3728 65.0367 63.4881 64.9274 63.5881C64.9186 63.3858 64.8226 63.1436 64.506 63.0736C64.4706 63.0661 64.4361 63.0623 64.4006 63.0613C64.1774 63.0566 64.0093 63.199 63.9077 63.3206C63.8925 63.2348 63.8583 63.1348 63.7845 63.0534C63.6937 62.9518 63.5626 62.8979 63.3958 62.8954C63.1577 62.89 62.9997 63.0398 62.9108 63.1851C62.8411 63.0113 62.6917 62.8232 62.4197 62.8169H62.3931C62.2121 62.822 62.0718 62.8755 61.9743 62.9806C61.9167 63.0425 61.8762 63.1183 61.8565 63.2006C61.7796 63.137 61.6539 63.0749 61.456 63.0711H61.4282C61.2696 63.0724 61.1448 63.1281 61.0594 63.2386C60.8492 63.5099 60.9432 64.0342 60.9888 64.2362C60.8846 64.8035 60.8444 65.7434 61.1547 66.1892C61.526 66.7245 62.1421 67.0639 62.7604 67.0759C63.518 67.0908 64.1189 66.9544 64.5494 66.672C65.1025 66.3089 65.3912 65.6991 65.4602 64.7687C65.6284 64.6214 65.7683 64.3865 65.7778 64.3675C65.8775 64.1178 65.9535 63.5948 65.5331 63.4089" fill="#231F20"/>
<path d="M65.6727 64.3147C65.6717 64.3147 65.9047 63.7068 65.4894 63.5229C65.4578 63.5094 65.424 63.5018 65.3896 63.5004C65.1892 63.4969 64.9759 63.717 64.911 63.8018L64.7324 64.0326L64.7967 63.7512C64.8017 63.7325 64.8977 63.2874 64.4867 63.1968C64.4614 63.1899 64.4354 63.1861 64.4092 63.1854C64.1119 63.18 63.9226 63.5362 63.92 63.5403L63.7614 63.8471L63.8004 63.5048C63.8004 63.5023 63.8244 63.2756 63.6981 63.1351C63.6313 63.0613 63.5313 63.0233 63.404 63.0198C63.0785 63.0132 62.9731 63.376 62.9671 63.3918L62.8807 63.6986L62.8427 63.383C62.8402 63.3649 62.7847 62.9486 62.4276 62.942H62.4071C62.2627 62.9454 62.1535 62.9872 62.08 63.0626C61.9689 63.1819 61.9778 63.3504 61.9778 63.3516L62.0034 63.7303L61.8549 63.3795C61.8524 63.3735 61.7717 63.2022 61.4639 63.1968L61.4396 63.1955C61.3215 63.1968 61.2341 63.2345 61.1724 63.3133C60.9508 63.5998 61.1436 64.2884 61.1458 64.296L61.1499 64.3267C61.2613 64.4727 61.5554 64.8684 61.6897 65.1362L61.734 65.0549C61.9027 64.7367 62.1582 64.2545 62.5267 64.0396L62.5682 64.0158L62.6037 64.0472C62.9519 64.3599 63.1495 64.6829 63.2283 65.0691C63.3679 64.7275 63.5313 64.3432 63.9783 64.0829L64.0239 64.0551L64.0596 64.0943C64.4152 64.4894 64.5317 65.0102 64.5678 65.2806C64.8628 64.9564 65.3238 64.7224 65.3463 64.7107C65.5074 64.5926 65.6701 64.3172 65.6727 64.3147Z" fill="white"/>
<path d="M64.57 65.4753L64.4646 65.6238L64.4532 65.443C64.4326 65.0995 64.2996 64.5809 63.996 64.2175C63.6114 64.4606 63.4727 64.8041 63.3362 65.1359L63.2527 65.335L63.1498 65.568L63.1308 65.3151C63.0963 64.8678 62.9165 64.5135 62.5498 64.1713C62.2329 64.3799 62.0002 64.8174 61.8445 65.1112L61.7343 65.3135L61.6599 65.4322L61.6181 65.2993C61.564 65.1318 61.337 64.793 61.1179 64.498C61.0461 65.0526 61.0597 65.7634 61.2949 66.1021C61.6378 66.596 62.2038 66.9091 62.7711 66.9205C63.2685 66.9294 63.9656 66.8727 64.4668 66.5431C64.9603 66.2193 65.2199 65.6975 65.2985 64.8779C65.1151 64.983 64.759 65.2097 64.5703 65.4747" fill="#00A650"/>
</g>
</g>
<rect x="1" y="1" width="110" height="110" rx="9" stroke="black" stroke-opacity="0.1" stroke-width="2"/>
<defs>
<clipPath id="clip0_768_297">
<rect x="2" y="2" width="108" height="108" rx="8" fill="white"/>
</clipPath>
<clipPath id="clip1_768_297">
<rect width="80" height="72.2557" fill="white" transform="translate(16 20)"/>
</clipPath>
</defs>
</svg>
