<svg width="112" height="112" viewBox="0 0 112 112" fill="none" xmlns="http://www.w3.org/2000/svg">
<g clip-path="url(#clip0_768_296)">
<rect x="2" y="2" width="108" height="108" rx="8" fill="white"/>
<path fill-rule="evenodd" clip-rule="evenodd" d="M86.2446 37.1903C89.0366 37.2374 91.9935 36.9643 94.682 36.3334L95.9956 36.0226L95.3506 37.2138C94.5595 38.6734 92.6762 39.7893 91.0424 40.4343L90.6987 41.0464C90.2938 41.7715 89.8135 42.2942 89.0743 42.6897C88.4292 43.0381 87.6712 43.2358 86.9037 43.3535L86.7389 43.6455C86.3293 44.38 85.8349 44.9308 85.1004 45.3593C84.5637 45.6701 83.9516 45.8819 83.3207 46.0185L83.1229 46.3716C82.1294 48.1467 79.6387 48.3962 77.8213 48.4574C77.2092 48.481 76.5924 48.4763 75.9756 48.4574L75.6837 48.9612C76.2063 49.0177 76.7336 49.0648 77.261 49.0931C79.2479 49.2108 81.3573 49.1684 83.3395 48.9377L84.4977 48.8011L83.9422 49.8276C83.5419 50.5668 82.6992 51.1271 81.9458 51.4896L81.5362 52.2477C81.0371 53.1799 79.8035 53.8391 78.8571 54.2252C78.7064 54.2864 78.5605 54.3429 78.4051 54.3947L78.1462 54.8796C77.7836 55.5529 77.0585 56.0662 76.3899 56.4004C76.3052 56.4428 76.2204 56.4852 76.131 56.5229C76.357 56.876 76.583 57.2291 76.8137 57.5822C77.9719 59.3667 79.1726 61.2171 79.7564 63.2794C80.1613 64.7013 80.232 66.1185 79.9353 67.5687C79.5963 69.2119 78.8854 70.648 77.7083 71.858C76.3146 73.2941 74.4642 74.2028 72.6185 74.9138C70.6269 75.6765 68.5552 76.2368 66.5353 76.9148C64.5107 77.5975 62.4579 78.4074 60.711 79.6551C59.0772 80.8181 57.8013 82.3436 56.6053 83.9303L55.998 84.7402L55.4282 83.9821C54.2182 82.3718 52.9328 80.8275 51.2802 79.6551C49.5287 78.4121 47.4805 77.5975 45.4559 76.9148C43.436 76.2368 41.3643 75.6718 39.3727 74.9138C37.527 74.2075 35.6766 73.2941 34.2829 71.858C33.1105 70.6527 32.3949 69.2166 32.0559 67.5687C31.7592 66.1185 31.8346 64.6966 32.2348 63.2747C32.9316 60.8122 34.5042 58.6652 35.8602 56.5182C35.7755 56.4805 35.686 56.4381 35.6013 56.3957C34.9327 56.0614 34.2029 55.5482 33.8451 54.8749L33.5861 54.39C33.4354 54.3335 33.2848 54.277 33.1341 54.2205C32.1877 53.8391 30.9541 53.1799 30.455 52.243L30.0454 51.4849C29.2921 51.1224 28.4493 50.5621 28.049 49.8228L27.4935 48.7964L28.6517 48.933C30.6339 49.1637 32.7386 49.2013 34.7302 49.0883C35.2576 49.0554 35.7802 49.013 36.3075 48.9565L36.0156 48.4527C35.3988 48.4763 34.782 48.4763 34.1699 48.4527C32.3525 48.3868 29.8665 48.142 28.8683 46.3669L28.6706 46.0138C28.0396 45.8772 27.4275 45.6701 26.8908 45.3546C26.1516 44.9261 25.6619 44.3753 25.2523 43.6408L25.0875 43.3488C24.32 43.2311 23.562 43.0287 22.9169 42.685C22.1777 42.2894 21.6974 41.7668 21.2925 41.0417L20.9488 40.4296C19.3197 39.7846 17.4317 38.6687 16.6407 37.2091L15.9956 36.0179L17.3092 36.3286C19.9977 36.9596 22.9593 37.2327 25.7467 37.1856C25.7278 37.1526 25.709 37.1244 25.6901 37.0914L25.1063 36.0556L26.2881 36.1874C27.9125 36.3663 29.5934 36.3899 31.246 36.3051L29.81 35.9614L32.6915 35.5423C31.9758 34.7419 31.2319 33.965 30.4786 33.2023L29.8194 32.5384L30.6952 32.2088C32.3525 31.5826 34.3677 30.9046 35.5495 29.5109L35.6154 29.4309C36.623 28.1879 36.769 26.4411 36.9196 24.9108L36.9808 24.2705L37.6165 24.3694C40.6251 24.8402 43.6667 25.151 46.6895 24.586C50.0466 23.9645 52.9422 22.3354 55.626 20.2825L55.9933 20L56.3605 20.2825C59.049 22.3354 61.9399 23.9645 65.297 24.586C68.3198 25.1463 71.3614 24.8402 74.37 24.3694L75.0057 24.2705L75.0669 24.9108C75.2128 26.4411 75.3635 28.1879 76.3711 29.4309L76.437 29.5109C77.6188 30.9046 79.634 31.5826 81.2913 32.2088L82.1671 32.5384L81.5079 33.2023C80.7546 33.965 80.0107 34.7419 79.295 35.5423L82.1765 35.9614L80.7405 36.3051C82.3931 36.3946 84.074 36.371 85.6984 36.1874L86.8802 36.0556L86.2963 37.0914C86.2775 37.1244 86.2587 37.1573 86.2398 37.1856L86.2446 37.1903Z" fill="#22409A"/>
<path fill-rule="evenodd" clip-rule="evenodd" d="M55.9977 37.4916C63.9361 37.4916 70.1276 43.9892 70.1276 51.6214C70.1276 59.2537 63.9314 65.7513 55.9977 65.7513C51.7508 65.7513 47.9276 63.8632 45.3286 60.864L45.3097 60.8404C40.6861 55.487 40.7379 47.5864 45.3992 42.2941C47.9935 39.3514 51.7837 37.4916 55.9977 37.4916ZM70.1558 63.2182C70.6502 63.0769 71.1587 63.2558 71.4318 63.6937C71.6625 63.5854 71.9309 63.5619 72.1098 63.7314C72.0721 63.5007 71.9215 63.2935 71.7096 63.1852L71.6672 63.1617L71.6578 63.1146C71.6154 62.8462 71.4271 62.6249 71.1728 62.5307C70.9139 62.4319 70.6172 62.479 70.4007 62.6485L70.363 62.6767L70.3159 62.6673C70.0805 62.6108 69.8262 62.6626 69.6379 62.8085C69.878 62.8038 70.0617 62.9875 70.1558 63.2229V63.2182ZM69.5579 64.7672C69.8262 64.7531 70.0852 64.8331 70.2877 65.0121C70.3442 65.0639 70.396 65.1156 70.4383 65.1816C70.7726 65.2569 71.1352 65.2522 71.46 65.1345C71.639 65.0686 71.8932 64.9273 71.9685 64.739C72.0533 64.5271 72.0957 64.1881 71.8885 64.0327C71.7331 63.915 71.5213 63.9856 71.3706 64.0751L71.2811 64.1269L71.234 64.0374C71.1257 63.8303 70.961 63.6702 70.7397 63.5901C70.5184 63.5054 70.2782 63.5195 70.0569 63.5995L69.9581 63.6372L69.9298 63.5383C69.8827 63.3783 69.7791 63.204 69.6002 63.1758C69.3271 63.1334 69.1059 63.4206 69.0164 63.6419C68.9552 63.7973 69.0023 64.0092 69.0635 64.1551C69.1671 64.4 69.346 64.6118 69.5532 64.7766L69.5579 64.7672ZM69.8451 66.4717C70.0993 66.4481 70.363 66.5187 70.4666 66.74C70.5184 66.514 70.4572 66.2692 70.2971 66.0903L70.2641 66.0526L70.2735 66.0008C70.3347 65.7371 70.2406 65.4688 70.0381 65.2899C69.8262 65.1062 69.5343 65.0544 69.2706 65.1392L69.2236 65.1533L69.1859 65.1251C68.9881 64.9885 68.7292 64.9556 68.4985 65.0262C68.7245 65.1062 68.8234 65.3369 68.8281 65.5865C69.3413 65.6241 69.7509 65.9537 69.8451 66.4669V66.4717ZM67.651 66.7495C68.0371 66.8436 68.3384 67.1402 68.3996 67.5357C68.6868 67.7147 69.0211 67.8277 69.3601 67.8277C69.5532 67.8277 69.8404 67.7806 69.9769 67.6299C70.3394 67.2438 70.3112 66.6929 69.6614 66.806L69.5579 66.8248L69.5484 66.7212C69.5249 66.4952 69.4307 66.288 69.2565 66.1374C69.0776 65.982 68.8469 65.9161 68.6162 65.9161H68.5079L68.5173 65.8125C68.5314 65.6477 68.4985 65.4594 68.3431 65.3699C68.1124 65.2381 67.7969 65.3981 67.6463 65.5865C67.3685 65.9302 67.4673 66.3916 67.6557 66.7542L67.651 66.7495ZM66.4739 66.7636C66.714 66.7447 66.9541 66.8295 67.1236 67.0084L67.1566 67.0414H67.2037C67.4768 67.0131 67.7498 67.1261 67.9146 67.3474C68.0747 67.564 68.0983 67.8465 67.9806 68.0913L67.957 68.1384L67.9806 68.1855C68.0983 68.3974 68.0983 68.6469 67.9994 68.8541C67.9476 68.614 67.7028 68.4915 67.4532 68.4586C67.4768 67.9407 67.1566 67.531 66.6669 67.3851C66.7187 67.1402 66.6716 66.8907 66.4692 66.7683L66.4739 66.7636ZM65.2497 68.2561C64.8683 66.7871 66.6057 66.5847 66.3091 67.5216L66.2761 67.6252L66.3797 67.6487C66.6057 67.6958 66.8129 67.8088 66.9541 68.0019C67.0907 68.1855 67.133 68.4115 67.1048 68.6328L67.0907 68.7411H67.199C67.3685 68.7505 67.585 68.8023 67.651 68.9812C67.7404 69.2261 67.5003 69.4897 67.3167 69.6168C67.1472 69.7299 66.8647 69.7204 66.6763 69.6781C66.3515 69.6121 66.0548 69.4379 65.8194 69.2072C65.8571 68.7929 65.6264 68.4303 65.2544 68.2608L65.2497 68.2561ZM64.0349 68.0772C64.2138 68.2326 64.2233 68.4821 64.1338 68.7176C64.5952 68.9341 64.8495 69.3909 64.7459 69.8946C64.986 69.9653 65.2073 70.1206 65.2214 70.3608C65.358 70.1677 65.3957 69.9229 65.3109 69.6969L65.2921 69.6498L65.3203 69.6074C65.4757 69.3861 65.4945 69.1036 65.3721 68.8635C65.245 68.6187 64.9907 68.468 64.7176 68.4539H64.6706L64.6423 68.4115C64.5058 68.209 64.2751 68.0913 64.0396 68.0772H64.0349ZM63.1121 70.5256C63.3098 70.7422 63.5594 70.9164 63.8372 71.0058C64.0067 71.0623 64.2562 71.1 64.4257 71.0152C64.6282 70.9164 64.9154 70.6857 64.8589 70.4314C64.8212 70.2478 64.6094 70.1677 64.4493 70.1395L64.341 70.1206L64.3692 70.0171C64.4352 69.8005 64.4257 69.5745 64.3174 69.372C64.2091 69.1648 64.0208 69.0236 63.8042 68.9436L63.7006 68.9059L63.7477 68.807C63.8184 68.6705 63.8748 68.4774 63.7666 68.3409C63.5971 68.1243 63.2063 68.1996 62.9944 68.2985C62.8343 68.3738 62.7213 68.5716 62.6648 68.7317C62.5706 68.9859 62.5612 69.2637 62.6083 69.5274C62.9708 69.7299 63.178 70.1159 63.1074 70.5303L63.1121 70.5256ZM61.516 69.2166C61.7514 69.2637 61.9585 69.4144 62.0621 69.631L62.081 69.6734L62.128 69.6828C62.3964 69.7346 62.6224 69.9229 62.7119 70.1819C62.7966 70.4361 62.7307 70.7139 62.5471 70.9117L62.5141 70.9493L62.5235 71.0011C62.5706 71.2365 62.4953 71.4767 62.3305 71.6462C62.354 71.406 62.161 71.2224 61.935 71.1188C62.1139 70.6386 61.9397 70.1489 61.516 69.8664C61.6431 69.6498 61.676 69.4003 61.516 69.2166ZM61.596 70.535C61.5207 70.3137 61.3606 70.1489 61.1581 70.0359L61.0639 69.9841L61.1299 69.8946C61.2193 69.7675 61.3041 69.5839 61.2193 69.4332C61.0875 69.1931 60.692 69.2166 60.466 69.2873C60.2447 69.3579 60.0705 69.631 59.9904 69.8381C59.8445 70.2195 59.8633 70.6433 59.9904 71.0294C60.1223 71.4202 60.3624 71.7733 60.7108 71.9993C60.8992 72.1217 61.2099 72.2488 61.4359 72.1782C61.6525 72.1123 61.9774 71.924 61.9538 71.6603C61.9397 71.4767 61.7514 71.3731 61.596 71.3166L61.4924 71.2789L61.5395 71.18C61.6384 70.9776 61.6619 70.7516 61.5913 70.535H61.596ZM56.9912 74.1698C57.5327 72.7903 58.3425 71.7168 59.6797 71.0388C59.7503 71.2789 59.8586 71.5096 59.9999 71.7168C58.6203 72.4277 57.6692 73.4165 56.9912 74.7914V74.1698ZM62.9944 70.6951C62.9944 70.8175 63.9973 71.5285 64.6094 71.2318C64.8165 71.1329 64.9813 70.9776 65.0802 70.8269C65.4522 70.5679 65.6311 70.1395 65.5181 69.7581L65.5039 69.711C65.5887 69.6027 65.6499 69.4803 65.6829 69.3579C66.3232 69.9511 67.1472 70.0594 67.5285 69.7958C67.7169 69.6686 67.8534 69.4944 67.9335 69.3249C68.2772 69.0048 68.3761 68.5292 68.1783 68.162C68.2583 68.0207 68.3007 67.8653 68.3054 67.7147C69.1059 68.209 69.9487 68.0631 70.2312 67.7617C70.3865 67.597 70.4807 67.3945 70.5137 67.2156C70.7726 66.8295 70.7632 66.3445 70.4854 66.0291C70.5466 65.8078 70.5325 65.5771 70.4477 65.3746C71.38 65.5629 72.1145 65.1439 72.2652 64.7672C72.3499 64.5601 72.3641 64.3388 72.3311 64.1598C72.43 63.7078 72.2463 63.2605 71.865 63.0581C71.7849 62.2577 70.895 61.9281 70.2735 62.4648C69.8545 62.366 69.3978 62.5778 69.1576 62.9733C69.007 63.0863 68.8657 63.2558 68.781 63.463C68.6491 63.7879 68.8139 64.4141 69.3836 64.8802C69.3271 64.8896 69.2706 64.9085 69.2141 64.9273C68.8563 64.6919 68.3572 64.7343 67.9806 65.0262C67.8016 65.078 67.6039 65.191 67.4485 65.3558C67.2178 65.6053 67.133 66.2033 67.4485 66.8107C67.3638 66.806 67.279 66.8107 67.1943 66.8201C66.9023 66.514 66.3985 66.4528 65.9701 66.6506C65.7817 66.6647 65.5652 66.7306 65.3768 66.8577C65.0943 67.0508 64.873 67.6205 65.0425 68.2797C64.9484 68.2514 64.8495 68.242 64.7459 68.2373C64.5011 67.8936 64.0208 67.757 63.5641 67.8936C63.3758 67.8795 63.1498 67.9124 62.9426 68.0113C62.6083 68.1714 62.2787 68.7788 62.4105 69.5321C62.3399 69.5086 62.2693 69.4897 62.194 69.4756C62.0056 69.1036 61.5489 68.8965 61.0781 68.9671C60.8944 68.9247 60.6637 68.9247 60.4472 68.9953C60.0422 69.1225 59.5573 69.8146 59.7126 70.7327C58.5026 71.2883 57.4668 72.23 56.7605 74.038V75.9449C57.575 73.7084 58.8228 72.602 60.2729 71.891C60.7108 72.3618 61.2805 72.5172 61.596 72.4183C61.8173 72.3477 62.0009 72.2206 62.128 72.084C62.5518 71.8769 62.7966 71.4484 62.7213 71.0435L62.9755 70.6668L62.9991 70.6951H62.9944ZM69.6144 68.1431V73.8591C70.4666 73.6096 71.3 73.3506 72.0863 73.0493V65.2145C72.5053 64.9226 72.4912 64.6542 72.5147 64.287C72.6089 63.7973 72.4723 63.2888 72.0863 63.0581V58.1755C71.4318 59.0183 70.5607 59.7763 69.6144 60.3414V62.3754C69.313 62.4742 69.0399 62.6955 68.8751 63.0063C68.7716 63.1146 68.6821 63.2464 68.6209 63.4018C68.4985 63.7031 68.6068 64.2446 69.0258 64.7107C68.6539 64.5742 68.1971 64.6683 67.844 64.9414C67.6745 65.0074 67.4909 65.1156 67.3496 65.271C67.2366 65.3934 67.1519 65.5959 67.133 65.8454V61.2877C67.0907 61.2924 67.0483 61.3019 67.0059 61.3066C66.3044 62.1023 65.5134 62.8227 64.6564 63.4536V67.983C64.3598 67.7005 63.8607 67.6393 63.404 67.7853C63.2392 67.7947 63.0556 67.8324 62.8861 67.9124C62.5518 68.0725 62.2222 68.6516 62.2975 69.3861C62.2693 69.3814 62.241 69.372 62.2081 69.372C62.194 69.3485 62.1798 69.3202 62.1657 69.2967V64.9273C61.3747 65.2946 60.5507 65.5959 59.6938 65.8219V69.711C59.6044 69.9606 59.562 70.2619 59.5949 70.5868C58.6015 71.0812 57.7587 71.8439 57.2078 72.6538V66.2409C56.3885 66.3069 55.5975 66.3069 54.783 66.2409V72.6538C54.2133 71.8157 53.3328 71.0294 52.297 70.5397V65.8172C51.44 65.5912 50.6114 65.2946 49.8251 64.9226V67.5028C49.6179 67.3662 49.3966 67.2391 49.1706 67.1073C48.4549 66.693 47.8993 66.2457 47.339 65.6806V63.4489C46.4821 62.818 45.6911 62.0976 44.9896 61.3019C44.9472 61.2972 44.9048 61.2924 44.8624 61.283V64.0986C44.6788 63.7973 44.4999 63.4865 44.3304 63.157C44.1656 64.2776 43.803 65.3087 43.9914 66.4669C44.0997 67.1167 44.4387 67.6582 44.8624 68.129V68.275C44.2598 67.9218 43.69 67.5169 43.1439 67.0837C43.0827 65.6477 42.3858 64.7484 42.3764 64.7201V60.3366C41.43 59.7716 40.5543 59.0136 39.9045 58.1708V62.6108C39.7633 62.4366 39.6267 62.2482 39.4949 62.0364C39.3725 63.1193 39.4713 64.3764 39.9045 65.4123V73.0445C40.6908 73.3459 41.5242 73.6048 42.3764 73.8544V70.8787C43.2192 71.1942 43.9867 71.2507 44.8624 70.9069V74.5748L47.3343 75.394V73.1717C48.2242 73.4495 48.954 73.4589 49.8204 72.9739V76.4205C50.7055 76.8301 51.5154 77.2821 52.2922 77.8235V72.4277C53.4505 73.1764 54.1709 74.1604 54.7783 75.4129V80.0506C55.1785 80.4979 55.5787 80.9876 55.993 81.5384C56.4027 80.9876 56.8076 80.4979 57.2078 80.0506V75.4129C57.8152 74.1651 58.5308 73.1811 59.6938 72.4277V77.8235C60.4707 77.2774 61.2852 76.8301 62.1657 76.4205V72.2253C62.613 71.9899 62.8673 71.5332 62.7872 71.0953C62.872 71.0152 62.9426 70.9211 62.9991 70.8222C63.5688 71.3872 64.2939 71.5002 64.6517 71.3354V75.3893L67.1236 74.5701V70.0406C67.3214 70.0312 67.4909 69.9794 67.6039 69.9041C67.764 69.7958 67.8864 69.6592 67.9711 69.518C68.3902 69.1601 68.5267 68.6046 68.296 68.1808C68.3478 68.0866 68.3855 67.9878 68.409 67.8889C68.8328 68.1102 69.2565 68.1761 69.6096 68.1431H69.6144ZM67.1283 66.6176C67.1566 66.6412 67.1848 66.6647 67.2084 66.6929C67.2319 66.6929 67.2508 66.6882 67.2743 66.6835C67.1895 66.4811 67.1425 66.2833 67.1283 66.0997V66.6176ZM82.859 40.3402C83.2828 39.8976 83.6029 39.4503 83.8336 39.0595C84.5587 38.7017 85.1614 38.2449 85.6511 37.7741C88.7539 37.873 92.0733 37.5622 94.8183 36.9172C94.2344 37.9954 92.5583 39.3326 90.0958 40.1236C88.1842 40.5803 85.1096 40.6792 82.8637 40.3402H82.859ZM37.6209 47.737C36.3968 47.85 35.1867 47.883 34.1885 47.8453C31.0904 47.737 29.9275 47.0166 29.3954 46.0703C31.1234 46.3151 33.3646 46.268 35.5351 46.1315C35.7141 46.2256 35.9071 46.3151 36.1049 46.3999C36.4815 46.8519 36.9947 47.3321 37.6209 47.7417V47.737ZM36.9853 48.641C38.8875 49.0365 39.6267 51.1459 40.2247 53.2035C40.5919 54.4653 41.317 55.9155 42.3623 57.0408C40.7191 52.9351 41.0298 48.3067 43.1768 44.4741C41.9385 45.8443 41.4536 47.3509 41.0345 47.8359C39.8998 49.1637 38.9675 48.5516 36.9806 48.6363L36.9853 48.641ZM41.5195 55.2516C40.9309 52.921 40.9168 50.4726 41.4818 48.1372C40.5166 49.2484 39.8715 49.093 38.4167 49.0412C39.7162 49.7993 40.1399 51.4331 40.639 53.1564C40.8321 53.8297 41.1287 54.55 41.5242 55.2516H41.5195ZM33.0209 36.0979C34.4758 36.4463 35.7611 37.4398 36.2226 38.4568C37.2631 40.7404 37.1266 42.3648 38.2142 44.0645C39.0994 45.4535 40.1305 46.5411 41.2087 47.0826C41.3641 46.7765 41.6466 45.8913 42.2304 45.4629C41.5948 45.6936 41.2746 45.7454 40.752 45.3499C39.17 44.1445 39.363 42.5908 38.8687 40.3449C38.2377 37.4869 36.4721 35.5894 33.0162 36.0932L33.0209 36.0979ZM35.5634 38.7017C33.859 38.9795 31.9662 39.1725 30.7561 39.1113C27.8275 38.9606 26.8058 37.8071 26.2314 36.7853C28.1901 37.0019 30.5207 37.0161 32.9738 36.7759C33.1668 36.7571 33.3599 36.7383 33.5482 36.7147C34.4381 37.2232 35.1349 37.8777 35.4739 38.5369C35.5022 38.5934 35.5304 38.6452 35.5587 38.7017H35.5634ZM36.6322 41.6208C35.667 41.8374 34.763 41.9599 34.0332 41.8986C31.566 41.6962 29.8898 40.6886 29.3154 39.6669C31.0622 39.8599 33.6612 39.8317 35.8365 39.2761C36.2084 40.1236 36.4297 40.8958 36.6369 41.6208H36.6322ZM37.5927 44.2293C35.0596 44.5542 32.3334 43.4618 31.533 42.0493C32.9691 42.4684 34.9278 42.4448 36.7687 42.1105C36.9806 42.8403 37.2066 43.5324 37.5927 44.2246V44.2293ZM39.1983 46.2256C38.7321 45.7925 38.299 45.3028 37.9411 44.7849C36.6604 44.8743 35.4127 44.799 34.4193 44.5071C34.9748 45.4911 36.7075 46.6117 39.1983 46.2256ZM37.2443 46.7577C38.2001 48.2032 40.7567 48.3397 40.9215 47.4875C40.5213 47.2662 40.1399 47.0072 39.7727 46.72C38.8545 46.8519 37.9835 46.8754 37.2443 46.7577ZM38.9487 56.6359C36.3968 56.4381 34.8336 55.4305 34.3863 54.5924C35.4928 54.9032 36.8817 55.0774 38.3743 55.1339C38.5297 55.6377 38.7133 56.1415 38.9487 56.6406V56.6359ZM37.0983 49.1072C38.525 51.5791 37.6727 54.4606 40.0363 57.7047C41.2464 59.3714 42.8331 60.3837 44.4999 60.7086C43.836 59.8705 43.2616 58.9571 42.786 57.9872C42.0186 57.3092 41.6702 57.667 40.4554 55.068C39.2406 52.469 39.1983 49.8982 37.0983 49.1025V49.1072ZM37.6162 51.8804C36.4062 52.0028 35.1067 52.0264 34.2498 51.9463C31.081 51.6497 29.1176 50.5197 28.5856 49.5403C30.742 49.7899 33.9861 49.8793 36.8629 49.5027C37.216 50.2089 37.4279 51.0188 37.6162 51.8804ZM38.2142 54.5877C35.0502 54.5877 31.7261 53.3353 30.9916 51.9652C32.7666 52.4642 35.2715 52.6102 37.7387 52.4784C37.8799 53.1611 38.0212 53.872 38.2142 54.5924V54.5877ZM34.7677 45.6465C33.3081 45.7266 31.8438 45.6983 30.7091 45.6465C27.3331 45.5006 26.3585 44.38 25.7794 43.3441C27.5827 43.6125 29.9039 43.5984 32.1734 43.4807C32.5265 43.7585 32.9314 44.0174 33.3881 44.2293C33.7083 44.6907 34.165 45.1992 34.763 45.6418L34.7677 45.6465ZM31.5707 42.9439C31.0669 42.4307 30.7279 41.8986 30.5396 41.4937C30.2523 41.3148 29.984 41.1171 29.7438 40.9146C29.3672 40.9476 28.9858 40.9758 28.595 40.9993C26.1325 41.1453 23.7877 41.0417 21.8243 40.7498C22.4035 41.7856 23.3075 42.7462 26.6834 42.8921C28.0253 42.9486 29.8474 43.0381 31.5707 42.9439ZM29.1317 40.3449C28.708 39.9023 28.3878 39.455 28.1571 39.0642C27.432 38.7064 26.8294 38.2497 26.3397 37.7788C23.2369 37.8777 19.9175 37.5669 17.1725 36.9219C17.7563 38.0001 19.4325 39.3373 21.895 40.1283C23.8066 40.585 26.8811 40.6839 29.127 40.3449H29.1317ZM80.4248 42.9439C80.9286 42.4307 81.2676 41.8986 81.4559 41.4937C81.7431 41.3148 82.0115 41.1171 82.2516 40.9146C82.6283 40.9476 83.0097 40.9758 83.4005 40.9993C85.863 41.1453 88.2077 41.0417 90.1711 40.7498C89.592 41.7856 88.688 42.7462 85.3121 42.8921C83.9702 42.9486 82.1481 43.0381 80.4248 42.9439ZM77.2278 45.6465C77.8258 45.1992 78.2825 44.6954 78.6026 44.234C79.0594 44.0221 79.4643 43.7632 79.8174 43.4854C82.0915 43.6031 84.4128 43.6172 86.2114 43.3488C85.6322 44.3847 84.6623 45.5053 81.2817 45.6512C80.147 45.6983 78.6827 45.7266 77.2231 45.6512L77.2278 45.6465ZM73.7813 54.5877C73.9743 53.8673 74.1156 53.1564 74.2568 52.4737C76.724 52.6102 79.2336 52.4595 81.0039 51.9604C80.2694 53.3306 76.9453 54.5783 73.7813 54.583V54.5877ZM74.3792 51.8804C75.5893 52.0028 76.8888 52.0264 77.7457 51.9463C80.9145 51.6497 82.8779 50.5197 83.4099 49.5403C81.2535 49.7899 78.0094 49.8793 75.1326 49.5027C74.7794 50.2089 74.5676 51.0188 74.3792 51.8804ZM74.8972 49.1072C72.7972 49.9076 72.7548 52.4737 71.5401 55.0727C70.3253 57.6717 69.9769 57.3139 69.2094 57.9919C68.7386 58.9618 68.1642 59.8752 67.4956 60.7133C69.1624 60.3837 70.7444 59.3761 71.9591 57.7094C74.318 54.4606 73.4658 51.5791 74.8972 49.1119V49.1072ZM73.0468 56.6359C73.2822 56.1368 73.4658 55.633 73.6212 55.1292C75.109 55.0727 76.5027 54.8985 77.6092 54.5877C77.1572 55.4258 75.5987 56.4334 73.0468 56.6312V56.6359ZM74.7512 46.7577C73.7954 48.2032 71.2388 48.3397 71.074 47.4875C71.4742 47.2662 71.8555 47.0072 72.2228 46.72C73.1409 46.8519 74.012 46.8754 74.7512 46.7577ZM72.7972 46.2256C75.2879 46.6164 77.0206 45.4911 77.5762 44.5071C76.5828 44.799 75.3397 44.8743 74.0544 44.7849C73.6965 45.2981 73.2633 45.7925 72.7972 46.2256ZM74.4028 44.2293C76.9359 44.5542 79.662 43.4618 80.4625 42.0493C79.0264 42.4684 77.0677 42.4448 75.2267 42.1105C75.0149 42.8403 74.7889 43.5324 74.4028 44.2246V44.2293ZM75.3633 41.6208C76.3285 41.8374 77.2325 41.9599 77.9623 41.8986C80.4295 41.6962 82.1057 40.6886 82.6801 39.6669C80.9333 39.8599 78.3343 39.8317 76.159 39.2761C75.787 40.1236 75.5657 40.8958 75.3586 41.6208H75.3633ZM76.4321 38.7017C78.1365 38.9795 80.0293 39.1725 81.2393 39.1113C84.1632 38.9606 85.1897 37.8071 85.7641 36.7853C83.8054 37.0019 81.4748 37.0161 79.0217 36.7759C78.8286 36.7571 78.6356 36.7383 78.4473 36.7147C77.5574 37.2232 76.8605 37.8777 76.5215 38.5369C76.4933 38.5934 76.465 38.6452 76.4368 38.7017H76.4321ZM78.9746 36.0979C75.5187 35.5941 73.753 37.4916 73.1221 40.3496C72.6277 42.5955 72.8208 44.1492 71.2387 45.3546C70.7161 45.7548 70.396 45.6983 69.7603 45.4676C70.3489 45.8961 70.6267 46.7765 70.782 47.0873C71.8603 46.5458 72.8914 45.4582 73.7766 44.0692C74.8642 42.3648 74.7277 40.7404 75.7682 38.4615C76.2343 37.4445 77.515 36.4511 78.9699 36.1026L78.9746 36.0979ZM70.476 55.2516C71.0645 52.921 71.0787 50.4726 70.5137 48.1372C71.4789 49.2484 72.1239 49.093 73.5788 49.0412C72.2793 49.7993 71.8555 51.4331 71.3565 53.1564C71.1634 53.8297 70.8668 54.55 70.4713 55.2516H70.476ZM75.0102 48.641C73.0232 48.5563 72.091 49.1684 70.9562 47.8406C70.5372 47.3509 70.0522 45.849 68.8139 44.4788C70.961 48.3115 71.2764 52.9398 69.6285 57.0455C70.6785 55.9202 71.3988 54.47 71.7708 53.2082C72.3688 51.1506 73.108 49.0413 75.0102 48.6457V48.641ZM74.3745 47.737C75.5987 47.85 76.8088 47.883 77.8069 47.8453C80.905 47.737 82.068 47.0166 82.6001 46.0703C80.8721 46.3151 78.6309 46.268 76.4603 46.1315C76.2814 46.2256 76.0884 46.3151 75.8906 46.3999C75.514 46.8519 75.0007 47.3321 74.3745 47.7417V47.737ZM55.0043 74.7866C54.3027 73.3647 53.314 72.3618 51.8685 71.6462C51.1764 71.3024 50.4419 71.0576 49.7073 70.8222C48.954 70.5821 48.1913 70.3608 47.452 70.083C46.9153 69.8805 46.3927 69.6168 45.8983 69.3202C46.3126 69.5038 46.7364 69.6592 47.1742 69.7675C47.9841 69.97 48.8128 70.1112 49.6273 70.2949C50.4042 70.4691 51.1858 70.6762 51.9109 71.0105C53.4552 71.7215 54.3922 72.8703 55.0043 74.4335V74.7866ZM42.6448 66.9001C42.6354 66.8154 42.626 66.7306 42.6212 66.6459C42.5742 66.1892 42.3999 65.8078 42.2022 65.3981C42.1033 65.1957 41.9668 65.0215 41.802 64.8661C41.5148 64.6024 41.1569 64.4094 40.8274 64.1975C40.5166 63.995 40.2294 63.7832 39.9751 63.5148C39.9751 63.5525 39.9751 63.5854 39.9798 63.6231C39.9893 63.7926 40.0034 63.9621 40.0222 64.1269C40.0787 64.5742 40.2011 64.9932 40.4036 65.3981C40.8179 66.2457 41.689 66.8766 42.6448 66.8954V66.9001ZM41.2511 69.7016C41.5477 69.6875 41.8349 69.6404 42.1222 69.5651C42.4517 69.4803 42.7766 69.372 43.1109 69.3155C43.4028 69.2684 43.6759 69.2731 43.9631 69.3485C44.2786 69.4332 44.5893 69.5368 44.8907 69.6545C45.0696 69.7251 45.2579 69.8099 45.451 69.8287C45.4698 69.8287 45.4839 69.8287 45.5028 69.8287C45.2626 70.1301 44.9095 70.3608 44.5564 70.4973C44.0761 70.6856 43.5394 70.7327 43.0403 70.6009C42.593 70.4832 42.1787 70.2996 41.7831 70.0547C41.6325 69.9606 41.4818 69.8617 41.3359 69.7581C41.3076 69.7393 41.2794 69.7157 41.2464 69.6969L41.2511 69.7016ZM46.2749 68.5104C46.2891 68.4492 46.3032 68.388 46.3173 68.3268C46.355 68.1714 46.3926 68.0254 46.3974 67.8653C46.4115 67.6017 46.3644 67.3286 46.3079 67.0696C46.2844 66.9707 46.2561 66.8766 46.2137 66.7824C46.0348 66.3634 45.6817 66.0102 45.3756 65.6806C45.0743 65.3605 44.7824 65.0356 44.5658 64.6542C44.5611 64.6872 44.5517 64.7248 44.547 64.7578C44.514 64.9179 44.4858 65.078 44.4669 65.2381C44.4151 65.6618 44.4245 66.0714 44.5187 66.4858C44.7165 67.3898 45.564 67.9972 46.2796 68.5104H46.2749ZM50.4889 71.6509C50.2629 72.004 49.8957 72.31 49.5473 72.5172C49.1565 72.7479 48.6574 72.9268 48.196 72.875C47.7957 72.8327 47.4238 72.7197 47.0612 72.5455C46.92 72.4795 46.7834 72.4042 46.6469 72.3289C46.6234 72.3147 46.5951 72.3006 46.5716 72.2865C46.8917 72.2206 47.1931 72.1076 47.4944 71.9757C47.824 71.8345 48.163 71.6697 48.5161 71.5991C48.6903 71.5614 48.8693 71.552 49.0482 71.5708C49.2883 71.5991 49.5284 71.632 49.7686 71.6697C49.9239 71.6932 50.084 71.7121 50.2441 71.698C50.3289 71.6885 50.4089 71.6744 50.4889 71.6509ZM50.6679 69.7628C49.9239 69.3861 48.808 69.1696 48.3655 68.4445C48.163 68.1102 48.0312 67.7617 47.9605 67.3804C47.937 67.2391 47.9182 67.0932 47.904 66.9472C47.904 66.9189 47.8993 66.8907 47.8946 66.8577C48.2713 67.1826 48.7186 67.4086 49.1565 67.6393C49.5708 67.8606 50.0652 68.1196 50.3147 68.5339C50.4419 68.7411 50.569 68.9765 50.6255 69.2166C50.6584 69.3626 50.6632 69.5038 50.6632 69.6545C50.6632 69.6922 50.6632 69.7299 50.6632 69.7675L50.6679 69.7628ZM51.0069 71.5755C52.7537 72.2724 54.2886 73.3506 55.235 75.9496V74.0427C54.3027 71.6556 52.7913 70.7798 51.0728 70.3043C51.0351 69.8523 51.1858 69.5274 50.6443 68.5622C50.0463 67.4934 48.4549 67.2015 47.4615 66.0809C47.5603 66.6223 47.4615 67.4745 48.0641 68.5433C48.5632 69.4332 49.6932 69.7534 50.5972 70.1819C49.2883 69.8758 47.7204 69.7204 46.4586 69.2496C46.5527 68.694 46.8305 68.4915 46.6234 67.2438C46.4115 65.9726 44.999 65.191 44.4293 63.7408C44.3398 64.3246 43.9631 65.1674 44.175 66.4387C44.3775 67.6676 45.5028 68.5245 46.3644 69.2072C45.1449 68.7364 43.9725 67.983 42.9697 67.1685C42.9414 66.6882 42.9932 66.4104 42.5129 65.2993C41.9762 64.0563 40.5543 63.9197 39.6173 62.5731C39.6785 63.1852 39.5137 64.1175 40.0505 65.3652C40.5778 66.5941 41.7502 67.3474 42.9367 67.3521C43.7701 68.1525 44.7212 68.9247 45.7194 69.5321C45.3945 69.4379 44.9943 69.2119 44.142 68.9906C42.8425 68.6516 41.9715 69.5745 40.3989 69.4991C40.9451 69.8287 41.656 70.535 42.9555 70.8693C44.1609 71.1847 45.4792 70.615 46.1007 69.7581C47.5462 70.5632 48.9681 70.8363 50.4842 71.3731C50.1782 71.3731 49.8109 71.2789 49.1141 71.2036C47.8899 71.0717 47.1036 72.0464 45.6817 72.2112C46.2279 72.4513 46.9906 73.0351 48.2101 73.1717C49.2789 73.2894 50.5078 72.4748 51.0116 71.5755H51.0069ZM40.4318 44.4647C41.0486 45.3499 41.543 45.3828 42.3764 44.5824V27.1238C41.5619 27.0767 40.7379 26.9966 39.9045 26.8836V42.7179C40.1164 43.3064 40.2906 43.8903 40.4318 44.4694V44.4647ZM47.3343 71.4578V70.535C47.7957 70.7092 48.2666 70.8646 48.7563 71.0152C48.2383 71.0435 47.7957 71.2412 47.3343 71.4578ZM42.3764 68.9577V67.4981C42.5271 67.5216 42.6872 67.5358 42.8567 67.5405C43.3463 68.0066 43.8784 68.468 44.434 68.8871C43.7795 68.694 42.9885 68.7788 42.3764 68.953V68.9577ZM47.3343 66.3069C47.5697 67.8418 47.5415 68.8776 49.0858 69.7016C48.5208 69.598 47.9511 69.4944 47.3767 69.3532L47.3343 69.3438V66.3069ZM47.3343 26.8413C46.5104 26.9966 45.6864 27.0908 44.8624 27.1332V42.0729C45.5969 41.2206 46.4256 40.4485 47.3343 39.7799V33.4801L48.6998 34.4594L47.8193 37.1244L49.8204 35.6553V38.3062C50.6114 37.9389 51.4353 37.6376 52.2922 37.4116V37.0867L52.3393 37.1196L52.2922 36.9784V33.8567L53.7377 32.8209L52.2922 32.8303V25.1227C51.4589 25.5512 50.6349 25.8996 49.8204 26.1821V30.9752L49.2271 32.835L47.3343 32.8256V26.8366V26.8413ZM55.993 26.3139L55.4939 27.8865L53.846 27.8771L55.1832 28.8376L54.6653 30.4008L55.993 29.4262L57.3208 30.4008L56.8029 28.8376L58.14 27.8771L56.4921 27.8865L55.993 26.3139ZM50.0793 31.7521L50.5784 33.32L52.2263 33.3106L50.8844 34.2711L51.4024 35.8343L50.0746 34.8596L48.7468 35.8343L49.2648 34.2711L47.9276 33.3106L49.5755 33.32L50.0746 31.7521H50.0793ZM61.9067 31.7521L61.4077 33.32L59.7597 33.3106L61.0969 34.2711L60.579 35.8343L61.9067 34.8596L63.2345 35.8343L62.7166 34.2711L64.0538 33.3106L62.4058 33.32L61.9067 31.7521ZM55.993 25.2875L56.7228 27.5758L59.1241 27.5616L57.1748 28.9647L57.9282 31.2436L55.993 29.8217L54.0579 31.2436L54.8112 28.9647L52.862 27.5664L55.2632 27.5805L55.993 25.2922V25.2875ZM50.0793 30.7257L50.8091 33.0139L53.2104 33.0045L51.2611 34.4029L52.0145 36.6818L50.0793 35.2598L48.1442 36.6818L48.8975 34.4029L46.9482 33.0045L49.3495 33.0139L50.0793 30.7257ZM61.9067 30.7257L62.6365 33.0092L65.0378 32.9998L63.0886 34.3982L63.8419 36.6771L61.9067 35.2551L59.9716 36.6771L60.7249 34.3982L58.7757 32.9998L61.1769 33.0092L61.9067 30.7257ZM57.2078 27.4016L59.6514 27.3874L57.3726 29.0259L58.253 31.6909L57.2031 30.9187V36.9925C56.3885 36.9266 55.5928 36.9266 54.7783 36.9925V30.9187L53.7283 31.6909L54.6088 29.0259L52.3299 27.3874L54.7736 27.4016V23.6349C55.1738 23.3618 55.5787 23.0699 55.9883 22.7544C56.3979 23.0651 56.8029 23.3571 57.2031 23.6349V27.4016H57.2078ZM62.1657 26.1821C61.3512 25.8996 60.5272 25.5512 59.6938 25.1227V32.835L58.2483 32.8256L59.6938 33.8614V36.9831L59.6467 37.1244L59.6938 37.0914V37.4163C60.5507 37.6423 61.3794 37.9389 62.1657 38.3109V35.6553L64.1668 37.1244L63.2863 34.4594L64.6517 33.4801V39.7799C65.5605 40.4485 66.3938 41.2159 67.1236 42.0681V27.1379C66.2997 27.0955 65.4757 27.0013 64.6517 26.846V32.835L62.759 32.8444L62.1657 30.9846V26.1821ZM55.993 21.9304C50.1452 26.3045 45.0225 27.0249 38.346 26.0361C38.1247 27.9242 37.7151 29.2849 36.8111 30.4008C35.9306 31.4884 34.6123 32.3124 32.5689 33.1364C33.3646 33.9603 34.0897 34.7702 34.7488 35.5612C34.3675 35.5282 33.9578 35.5282 33.52 35.5612C32.6819 34.596 31.7967 33.6731 30.9162 32.7785C32.7337 32.0911 34.8289 31.3801 36.0907 29.817C37.1925 28.4515 37.362 26.6435 37.5268 24.972C40.6108 25.457 43.6995 25.763 46.8023 25.1886C50.2582 24.5483 53.2292 22.8862 55.9977 20.7675C58.7663 22.8815 61.7325 24.5436 65.1932 25.1886C68.296 25.763 71.3847 25.457 74.4687 24.972C74.6288 26.6482 74.7983 28.4562 75.9048 29.817C77.1666 31.3801 79.2665 32.0911 81.0792 32.7785C80.1941 33.6731 79.3136 34.596 78.4755 35.5612C78.0376 35.5282 77.628 35.5282 77.2466 35.5612C77.9058 34.7702 78.6309 33.9603 79.4266 33.1364C77.3832 32.3077 76.0648 31.4884 75.1844 30.4008C74.2804 29.2849 73.8707 27.9289 73.6494 26.0361C66.9683 27.0249 61.8502 26.3045 56.0024 21.9304H55.993ZM37.4938 56.8101C37.1737 56.73 36.8676 56.6359 36.5804 56.5229C34.4569 59.9364 31.7779 63.1899 32.6489 67.4557C34.3204 75.6059 45.0508 74.49 51.6331 79.1654C53.3846 80.4084 54.7218 82.0281 55.9977 83.7373C57.2737 82.0328 58.6109 80.4132 60.3624 79.1654C66.9447 74.49 77.6751 75.6106 79.3466 67.4557C80.2176 63.1946 77.5386 59.9364 75.4151 56.5229C75.1232 56.6311 74.8218 56.7253 74.5017 56.8101C76.5263 60.1012 79.2477 63.3265 78.4379 67.2721C77.4868 71.9051 72.9526 73.3082 68.409 74.7113C63.0179 76.3781 59.6044 77.5646 56.0024 82.1929C54.7076 80.5309 53.4976 79.3491 52.1792 78.4121C45.5357 73.6896 35.0878 74.7019 33.567 67.2721C32.7572 63.3312 35.4833 60.1012 37.5032 56.8101H37.4938ZM69.6144 27.1238V44.5871C70.2359 45.1804 70.7208 45.4393 71.3235 44.766C71.413 44.6672 71.4883 44.5683 71.5589 44.4694C71.7002 43.8903 71.8744 43.3064 72.0863 42.7179V26.8883C71.2482 27.0013 70.4289 27.0814 69.6144 27.1285V27.1238ZM74.5723 58.2555C75.4951 59.6681 76.4274 61.0711 77.0442 62.5402V69.0942C76.4698 70.276 75.6128 71.1471 74.5723 71.8298V58.2555ZM74.5723 30.8387C75.1326 31.5685 75.9189 32.1617 77.0442 32.7267V34.7466C76.7428 35.0856 76.4556 35.4199 76.1778 35.7542C75.5563 35.9284 75.0243 36.2062 74.5676 36.5546V30.8434L74.5723 30.8387ZM37.4185 30.8387V36.5499C36.9618 36.2015 36.4297 35.9284 35.8082 35.7495C35.5351 35.4152 35.2432 35.0762 34.9419 34.7419V32.722C36.0672 32.157 36.8535 31.5638 37.4138 30.834L37.4185 30.8387ZM37.4185 58.2555V71.8298C36.3779 71.1471 35.521 70.2713 34.9466 69.0942V62.5402C35.5681 61.0711 36.4956 59.6728 37.4185 58.2555ZM55.993 43.0145C51.2517 43.0145 47.3861 46.8801 47.3861 51.6214C47.3861 56.3628 51.2517 60.2284 55.993 60.2284C60.7344 60.2284 64.5999 56.3628 64.5999 51.6214C64.5999 46.8801 60.7344 43.0145 55.993 43.0145ZM55.5457 49.0648C55.6164 49.0507 55.6917 49.0412 55.767 49.0365L55.3621 44.3847C55.1644 44.4035 54.9101 44.4553 54.7406 44.4694L55.5457 49.0695V49.0648ZM55.993 50.6798C55.4751 50.6798 55.0561 51.1035 55.0561 51.6167C55.0561 52.1299 55.4798 52.5537 55.993 52.5537C56.5062 52.5537 56.93 52.1299 56.93 51.6167C56.93 51.1035 56.5062 50.6798 55.993 50.6798ZM55.993 49.5968C54.8819 49.5968 53.9731 50.5056 53.9731 51.6167C53.9731 52.7279 54.8819 53.6366 55.993 53.6366C57.1042 53.6366 58.0129 52.7279 58.0129 51.6167C58.0129 50.5056 57.1042 49.5968 55.993 49.5968ZM55.993 50.1383C55.1785 50.1383 54.5146 50.8022 54.5146 51.6167C54.5146 52.4313 55.1785 53.0952 55.993 53.0952C56.8076 53.0952 57.4715 52.4313 57.4715 51.6167C57.4715 50.8022 56.8076 50.1383 55.993 50.1383ZM55.7623 54.2016C55.687 54.1969 55.6117 54.1875 55.541 54.1734L54.7312 58.7735C54.9242 58.8064 55.1832 58.8253 55.3527 58.8535L55.767 54.2016H55.7623ZM55.1031 54.0557C55.0325 54.0321 54.9619 53.9992 54.896 53.9709L52.9232 58.2085C53.1021 58.2932 53.3469 58.3733 53.5023 58.4439L55.1031 54.0557ZM56.445 49.0648L57.2549 44.4647C57.0571 44.4317 56.8029 44.4129 56.6334 44.3847L56.219 49.0365C56.2944 49.0412 56.3697 49.0507 56.4403 49.0648H56.445ZM58.432 52.5066C58.4084 52.5772 58.3755 52.6432 58.3472 52.7138L62.58 54.6913C62.6648 54.5124 62.7448 54.2675 62.8155 54.1122L58.4273 52.5113L58.432 52.5066ZM54.5099 53.7355C54.4487 53.6931 54.3922 53.646 54.331 53.599L51.327 57.1773C51.4777 57.3044 51.6943 57.4457 51.8261 57.5587L54.5099 53.7355ZM57.0948 49.2673L59.0676 45.0344C58.8887 44.9497 58.6438 44.8696 58.4885 44.7943L56.8876 49.1825C56.9582 49.2108 57.0242 49.239 57.0948 49.2673ZM57.0948 53.9662C57.0289 53.9992 56.9582 54.0274 56.8876 54.051L58.4838 58.4392C58.6721 58.3685 58.9028 58.2555 59.0629 58.199L57.0948 53.9662ZM54.0155 53.2788C53.9684 53.2223 53.9213 53.1611 53.879 53.0999L50.0511 55.7789C50.1641 55.939 50.3336 56.1368 50.4324 56.2733L54.0155 53.2741V53.2788ZM57.6692 49.6298L60.6732 46.0514C60.5225 45.9243 60.3059 45.7831 60.1741 45.6701L57.4903 49.4933C57.5515 49.5356 57.608 49.5827 57.6692 49.6298ZM54.5193 49.4933L51.8402 45.6653C51.6802 45.7783 51.4871 45.9478 51.3459 46.0467L54.3451 49.6298C54.4016 49.5827 54.4628 49.5356 54.524 49.4933H54.5193ZM53.653 52.7091C53.62 52.6432 53.5918 52.5725 53.5682 52.5019L49.18 54.098C49.2506 54.2864 49.3636 54.5171 49.4201 54.6772L53.653 52.7091ZM58.1259 50.1289L61.9538 47.4498C61.8408 47.285 61.6666 47.092 61.5725 46.9554L57.9894 49.9547C58.0365 50.0112 58.0835 50.0724 58.1259 50.1336V50.1289ZM58.1259 53.1046C58.0835 53.1658 58.0365 53.2223 57.9894 53.2835L61.5677 56.2874C61.6949 56.1368 61.8361 55.9202 61.9491 55.7884L58.1259 53.1046ZM53.4505 52.064C53.4364 51.9934 53.427 51.9181 53.4223 51.8427L48.7704 52.2524C48.7892 52.4501 48.841 52.7044 48.8551 52.8739L53.4552 52.0687L53.4505 52.064ZM58.4414 50.7316L62.8296 49.1354C62.759 48.9471 62.646 48.7164 62.5895 48.5563L58.3519 50.5244C58.3849 50.5903 58.4131 50.6609 58.4367 50.7316H58.4414ZM56.4544 54.1734C56.3838 54.1875 56.3085 54.1969 56.2332 54.2016L56.6381 58.8535C56.8358 58.8347 57.0901 58.7829 57.2596 58.7688L56.4544 54.1687V54.1734ZM53.4223 51.3907C53.427 51.3154 53.4364 51.2401 53.4505 51.1694L48.8504 50.3596C48.8175 50.5526 48.7986 50.8116 48.7704 50.9811L53.4223 51.3954V51.3907ZM58.5873 51.3907L63.2392 50.9858C63.2204 50.7881 63.1686 50.5338 63.1545 50.3643L58.5544 51.1694C58.5685 51.2401 58.5779 51.3154 58.5826 51.3907H58.5873ZM55.1173 49.1778L53.5211 44.7896C53.3328 44.8602 53.1021 44.9732 52.942 45.0297L54.9101 49.2673C54.976 49.2343 55.0466 49.206 55.1173 49.1825V49.1778ZM53.5682 50.7268C53.5918 50.6562 53.6247 50.5903 53.653 50.5197L49.4201 48.5469C49.3354 48.7258 49.2553 48.9706 49.1847 49.126L53.5729 50.7268H53.5682ZM58.5591 52.0687L63.1592 52.8786C63.1921 52.6808 63.211 52.4266 63.2392 52.2571L58.5873 51.8427C58.5826 51.9181 58.5732 51.9934 58.5591 52.064V52.0687ZM57.6692 53.6037C57.6127 53.6508 57.5515 53.6978 57.4903 53.7402L60.1694 57.5681C60.3294 57.4551 60.5272 57.2809 60.6637 57.1867L57.6645 53.6037H57.6692ZM53.8837 50.1289C53.9261 50.0677 53.9731 50.0112 54.0202 49.95L50.4419 46.946C50.3147 47.0967 50.1735 47.3133 50.0605 47.4451L53.8837 50.1289ZM56.0024 43.5701C51.5719 43.5701 47.9558 47.1862 47.9558 51.6167C47.9558 56.0473 51.5719 59.6633 56.0024 59.6633C60.433 59.6633 64.0491 56.0473 64.0491 51.6167C64.0491 47.1862 60.433 43.5701 56.0024 43.5701ZM56.0024 41.0511C50.1829 41.0511 45.4368 45.7972 45.4368 51.6167C45.4368 57.4363 50.1829 62.1823 56.0024 62.1823C61.822 62.1823 66.568 57.4363 66.568 51.6167C66.568 45.7972 61.822 41.0511 56.0024 41.0511ZM56.0024 42.5578C51.0116 42.5578 46.9435 46.6259 46.9435 51.6167C46.9435 56.6076 51.0116 60.6756 56.0024 60.6756C60.9933 60.6756 65.0614 56.6076 65.0614 51.6167C65.0614 46.6259 60.9933 42.5578 56.0024 42.5578ZM48.3278 60.5768L47.3579 61.8151L48.3372 62.5825L48.5773 62.2765L47.9794 61.8104L48.7092 60.8781L48.3278 60.5768ZM49.7686 63.1523L49.7026 63.4159L50.1405 63.6796L50.4419 62.027L49.9899 61.7539L48.6762 62.7991L49.1 63.0534L49.2977 62.8698L49.7733 63.157L49.7686 63.1523ZM49.858 62.8085L49.9993 62.2341L49.5614 62.6296L49.858 62.8085ZM51.1952 62.4083L50.6066 63.8679L51.7602 64.3341L51.9062 63.9762L51.2046 63.6937L51.6472 62.5967L51.1952 62.413V62.4083ZM53.6294 63.1805L53.3987 64.1128C53.3093 64.4753 52.7866 64.3388 52.8761 63.9809L53.1068 63.0487L52.636 62.931L52.41 63.8397C52.1981 64.6825 53.4317 64.9603 53.766 64.4471C53.8931 64.254 54.0296 63.5666 54.1003 63.2935L53.6294 63.1758V63.1805ZM55.1785 63.4018L55.122 64.9744L56.365 65.0168L56.3791 64.6307L55.6211 64.6024L55.6634 63.4206L55.1785 63.4018ZM56.817 63.3877L56.9535 64.9509L57.4385 64.9085L57.302 63.3406L56.817 63.383V63.3877ZM57.754 63.3406L58.1353 64.8661L58.5779 64.7578L58.3708 63.9197L59.1524 64.6166L59.5949 64.5036L59.2136 62.978L58.771 63.091L58.9828 63.9338L58.1965 63.2323L57.754 63.3406ZM59.5431 62.9027L59.6891 63.2605L60.1458 63.0769L60.5884 64.174L61.0404 63.9903L60.5978 62.8933L61.0592 62.7097L60.9133 62.3518L59.5431 62.9027ZM62.5895 62.9404L62.7872 63.124L63.2251 62.8603L61.9115 61.8151L61.4595 62.0882L61.7608 63.7408L62.1845 63.4865L62.1139 63.2229L62.5895 62.9404ZM62.3258 62.7002L61.8879 62.3047L62.0292 62.8792L62.3258 62.7002ZM63.2533 62.2577C63.3616 62.3707 63.4935 62.4366 63.6347 62.4507C63.9737 62.4884 64.7789 61.8763 64.3645 61.3678C64.1291 61.0759 63.7854 61.2312 63.4605 61.396C62.9756 61.6409 63.2675 60.9393 63.5923 61.2265L63.9314 60.9158C63.5029 60.5014 62.9803 61.0429 62.872 61.2501C62.7119 61.5608 62.8908 62.1399 63.6771 61.7492C64.3692 61.4007 64.0161 62.3424 63.5876 61.9422L63.2486 62.2577H63.2533ZM47.6639 40.7686L48.8881 42.7273L49.4955 42.3459L49.0435 41.6208C49.3495 41.4278 49.7262 41.2395 49.8156 40.9099C49.9286 40.4908 49.4861 39.6339 48.6762 40.1424L47.6733 40.7686H47.6639ZM48.7939 41.2253C48.9728 41.1123 49.2742 40.9617 49.1235 40.7215C48.9681 40.472 48.7186 40.6698 48.5208 40.7922L48.7939 41.2301V41.2253ZM51.101 40.0671C51.3412 40.811 51.8967 41.0606 52.6313 40.8251C53.9637 40.392 53.4411 38.9041 52.8055 38.5839C52.1698 38.2638 50.6632 38.7158 51.101 40.0671ZM51.779 39.8505C52.038 40.6509 52.636 40.3166 52.7348 40.0718C52.8243 39.8505 52.6642 38.8712 52.0333 39.0783C51.6943 39.1913 51.6707 39.5021 51.7837 39.8505H51.779ZM54.8206 37.9954L54.863 40.3025L56.6899 40.2695L56.6805 39.6998L55.5693 39.7187L55.541 37.9813L54.8301 37.9954H54.8206ZM58.1871 38.1461L57.7869 40.4202L58.4885 40.5426L58.8887 38.2685L58.1871 38.1461ZM59.9104 40.1377C59.8351 40.359 59.8351 40.5709 59.9104 40.7686C60.0893 41.2348 61.4218 41.8845 61.8173 40.9993C62.0433 40.4955 61.6101 40.1518 61.1769 39.8364C60.5319 39.3702 61.6431 39.2761 61.4877 39.9023L62.1186 40.1377C62.1893 39.907 62.1751 39.7093 62.081 39.5492C61.8361 39.1348 60.6826 38.6169 60.3624 39.342C60.0705 40.0012 61.0263 40.3731 61.144 40.6274C61.3417 41.0747 60.353 41.0511 60.5554 40.3731L59.9198 40.1377H59.9104ZM63.7948 40.439L62.4718 42.3271L63.0556 42.7367L64.3786 40.8487L63.7948 40.439ZM67.8205 45.1992C67.4532 44.5071 66.8223 44.1022 66.408 44.3046C65.7912 44.6012 66.0784 45.9196 66.8223 46.5646C66.8411 46.381 66.8882 46.2162 66.9635 46.0844C66.8835 45.9808 66.8035 45.8537 66.7328 45.7218C66.0972 44.5165 66.7658 44.1916 67.4014 45.397C67.7028 45.9667 67.7593 46.5788 67.4108 46.4752C67.3685 46.5599 67.359 46.6965 67.3732 46.8566C68.0653 46.9837 68.2772 46.0844 67.8111 45.1992H67.8205ZM43.5347 48.4527C43.9773 48.8623 44.6976 48.3162 44.9896 47.4875C45.2815 46.6541 45.0555 45.8113 44.4481 45.8725C44.4057 46.0373 44.3963 46.1786 44.4293 46.268C44.7353 46.1644 44.7541 46.7718 44.547 47.3462C44.3351 47.9536 43.916 48.4197 43.7513 48.1043C43.6759 48.189 43.5959 48.3067 43.53 48.4527H43.5347ZM43.4028 46.9743C43.2945 47.285 43.2569 47.5911 43.2804 47.85C43.4217 47.6947 43.5723 47.5769 43.7324 47.5157L44.0055 46.7389C43.9066 46.607 43.8548 46.4281 43.8501 46.2209C43.6665 46.414 43.5064 46.6729 43.4028 46.979V46.9743ZM44.2503 49.8793C44.5281 49.4462 44.6506 48.8341 44.5517 48.3303C44.4198 48.4574 44.2786 48.561 44.1373 48.6269L43.9725 49.4603C44.0808 49.5733 44.175 49.7145 44.2503 49.8793ZM42.899 48.8341C42.7107 49.8087 43.1721 50.6138 43.7983 50.3125C43.7654 50.1665 43.7277 50.0394 43.6759 49.9405C43.3699 50.1713 43.2239 49.578 43.351 48.9188C43.4829 48.2502 43.8454 47.7464 44.0432 48.0854C44.1279 48.0101 44.2174 47.9065 44.2974 47.7794C43.8266 47.2709 43.0874 47.8642 42.8943 48.8388L42.899 48.8341ZM43.2333 52.1299C43.7748 52.403 44.3068 51.6921 44.3445 50.8116C44.3822 49.9453 43.9208 49.1731 43.3463 49.4085C43.3557 49.5686 43.384 49.7051 43.4264 49.8087C43.6995 49.5639 43.9113 50.1571 43.8831 50.7881C43.8548 51.4237 43.5912 51.984 43.3463 51.7344C43.2945 51.8333 43.2569 51.9699 43.2333 52.1252V52.1299ZM42.673 50.7457C42.6589 51.0753 42.7107 51.3813 42.8143 51.6261C42.9037 51.4425 43.0167 51.2919 43.1486 51.1883L43.191 50.3313C43.0685 50.2183 42.9697 50.0583 42.899 49.8699C42.7719 50.1053 42.6872 50.4114 42.673 50.7457ZM44.3351 53.3023C44.4716 52.8127 44.4104 52.2006 44.175 51.7486C44.0855 51.9087 43.9773 52.0405 43.8595 52.1441L43.9443 52.968C44.0808 53.0481 44.2127 53.1611 44.3351 53.2976V53.3023ZM42.7295 52.6714C42.8331 53.6555 43.5111 54.3099 44.0243 53.8485C43.9537 53.7167 43.8737 53.6037 43.7983 53.5236C43.5676 53.8297 43.2569 53.2929 43.191 52.629C43.125 51.9699 43.3134 51.386 43.6006 51.6309C43.6618 51.5367 43.7136 51.4143 43.756 51.2683C43.1392 50.9105 42.6354 51.7297 42.7295 52.6714ZM45.4086 56.5746C45.3992 56.0614 45.1543 55.4917 44.7965 55.1198C44.7541 55.2987 44.6929 55.4541 44.6082 55.5812L44.9378 56.3581C45.0884 56.3957 45.2485 56.4664 45.4086 56.5699V56.5746ZM43.6806 56.3957C44.0667 57.3186 44.9189 57.7612 45.2768 57.1679C45.1685 57.0596 45.0602 56.9702 44.9613 56.9137C44.8389 57.2903 44.3775 56.8666 44.1091 56.2309C43.8501 55.6141 43.869 55.0021 44.2127 55.1668C44.2409 55.0586 44.2598 54.9267 44.2598 54.7808C43.577 54.6018 43.2992 55.487 43.6806 56.4004V56.3957ZM44.0102 55.746C44.6364 55.8637 44.8954 54.9879 44.6929 54.1828C44.4999 53.4295 43.9773 52.9021 43.53 53.0057C43.4593 53.0245 43.3934 53.0528 43.3322 53.0999C43.3887 53.2505 43.4546 53.373 43.5205 53.4624C43.7136 53.1705 44.0855 53.6743 44.2409 54.2911C44.3963 54.9032 44.3115 55.5106 44.0055 55.3458C43.9867 55.4541 43.9867 55.5953 44.0055 55.7507L44.0102 55.746ZM43.0638 54.5642C43.1439 54.8796 43.2851 55.1621 43.4546 55.3693C43.4876 55.1668 43.5535 54.9926 43.6477 54.8608L43.4405 54.0604C43.2898 53.9803 43.1439 53.8532 43.0215 53.6884C42.9744 53.9474 42.9838 54.2534 43.0638 54.5689V54.5642ZM44.5564 58.1237C44.9613 58.797 45.6158 59.1643 46.016 58.943C46.4162 58.7217 46.4115 57.9919 46.0066 57.3233C45.5499 56.5699 44.7353 56.165 44.3822 56.65C44.481 56.7771 44.5799 56.8807 44.6694 56.9466C44.6835 56.8995 44.7071 56.8619 44.7447 56.843C45.1732 56.6076 46.2373 58.3732 45.8088 58.6087C45.531 58.764 44.9566 58.0248 44.7541 57.5116C44.5893 57.4787 44.4151 57.3939 44.2503 57.2715C44.2739 57.5352 44.3775 57.8365 44.5517 58.1284L44.5564 58.1237ZM44.1797 45.1992C43.7089 46.0891 43.9255 46.9837 44.6176 46.8566C44.6364 46.6918 44.6223 46.5552 44.5799 46.4752C44.5281 46.4893 44.4858 46.4893 44.4434 46.4752C44.0055 46.2633 44.966 44.4412 45.4039 44.653C45.6911 44.7943 45.3568 45.6559 45.0272 46.0891C45.1026 46.2209 45.1496 46.381 45.1685 46.5694C45.9171 45.9243 46.1996 44.606 45.5828 44.3093C45.1732 44.1116 44.5375 44.5118 44.1703 45.2039L44.1797 45.1992ZM67.4438 58.1237C67.618 57.8365 67.7169 57.5352 67.7451 57.2668C67.5803 57.3939 67.4061 57.474 67.2413 57.5069C67.1943 57.6293 67.1283 57.7659 67.0483 57.8977C66.342 59.0701 65.6923 58.7075 66.3985 57.5399C66.7281 56.9937 67.2319 56.6076 67.3308 56.9419C67.425 56.876 67.5238 56.7724 67.618 56.6453C67.2696 56.1603 66.4503 56.5652 65.9936 57.3186C65.5887 57.9919 65.584 58.717 65.9842 58.9383C66.3844 59.1595 67.0389 58.7923 67.4438 58.119V58.1237ZM68.9364 54.5642C69.0164 54.2487 69.0258 53.9427 68.9787 53.6837C68.8516 53.8485 68.7104 53.9756 68.5597 54.0557L68.3525 54.8561C68.4514 54.9926 68.5173 55.1668 68.5456 55.3646C68.7151 55.1574 68.8516 54.8796 68.9364 54.5642ZM67.99 55.746C68.0088 55.5906 68.0135 55.4541 67.99 55.3411C67.6792 55.5059 67.5945 54.8985 67.7546 54.2864C67.9099 53.6696 68.2819 53.1705 68.4749 53.4577C68.5456 53.3682 68.6068 53.2458 68.6633 53.0952C68.6068 53.0481 68.5408 53.0198 68.4655 53.001C68.0182 52.8974 67.4956 53.4247 67.3025 54.1781C67.0954 54.9785 67.3591 55.859 67.9853 55.7413L67.99 55.746ZM68.3196 56.3957C68.7009 55.4823 68.4231 54.6018 67.7404 54.7761C67.7404 54.9267 67.7546 55.0586 67.7875 55.1621C68.1312 55.0021 68.1501 55.6094 67.8911 56.2262C67.6227 56.8619 67.1613 57.2856 67.0389 56.9089C66.94 56.9654 66.8317 57.0549 66.7234 57.1632C67.0765 57.7565 67.9288 57.3139 68.3196 56.391V56.3957ZM66.5916 56.5746C66.747 56.4711 66.907 56.4004 67.0624 56.3628L67.392 55.5859C67.312 55.4588 67.246 55.2987 67.2037 55.1245C66.8458 55.4917 66.601 56.0661 66.5916 56.5794V56.5746ZM69.2706 52.6714C69.3695 51.7297 68.8657 50.9152 68.2442 51.2683C68.2866 51.4096 68.3431 51.5367 68.3996 51.6309C68.6868 51.386 68.8751 51.9699 68.8092 52.629C68.7386 53.2976 68.4278 53.8297 68.2018 53.5236C68.1265 53.6037 68.0465 53.7167 67.9758 53.8485C68.4938 54.3099 69.1718 53.6555 69.2706 52.6714ZM67.6651 53.3023C67.7875 53.1611 67.9193 53.0481 68.0559 52.9727L68.1406 52.1488C68.0229 52.0452 67.9193 51.9087 67.8252 51.7533C67.5898 52.2053 67.5285 52.8174 67.6651 53.307V53.3023ZM69.3271 50.7457C69.313 50.4114 69.2283 50.1053 69.1011 49.8699C69.0305 50.063 68.9316 50.2183 68.8092 50.3313L68.8516 51.1883C68.9834 51.2919 69.0964 51.4425 69.1859 51.6261C69.2895 51.3813 69.3413 51.0753 69.3271 50.7457ZM68.7668 52.1299C68.7433 51.9746 68.7056 51.838 68.6539 51.7392C68.4043 51.9887 68.1453 51.4331 68.1171 50.7928C68.0888 50.1618 68.3007 49.5686 68.5738 49.8134C68.6162 49.7098 68.6397 49.5733 68.6539 49.4132C68.0794 49.1778 67.618 49.95 67.6557 50.8163C67.6933 51.6921 68.2254 52.403 68.7668 52.1347V52.1299ZM69.1011 48.8341C68.9128 47.8594 68.1689 47.2615 67.6981 47.7747C67.7828 47.9018 67.8675 48.0101 67.9523 48.0807C68.1501 47.7417 68.5126 48.2455 68.6444 48.9141C68.7716 49.5733 68.6303 50.1666 68.3196 49.9358C68.2678 50.0347 68.2254 50.1618 68.1971 50.3078C68.8234 50.6091 69.2895 49.804 69.0964 48.8294L69.1011 48.8341ZM67.7498 49.8793C67.8252 49.7145 67.9193 49.5733 68.0276 49.4603L67.8628 48.6269C67.7216 48.561 67.5803 48.4574 67.4485 48.3303C67.3496 48.8341 67.472 49.4462 67.7498 49.8793ZM68.5974 46.9743C68.4891 46.6682 68.329 46.4093 68.1501 46.2162C68.1453 46.4234 68.0888 46.6023 67.9947 46.7341L68.2678 47.511C68.4278 47.5769 68.5785 47.6899 68.7198 47.8453C68.7433 47.5864 68.7056 47.2803 68.5974 46.9696V46.9743ZM68.4655 48.4527C68.3949 48.3067 68.3196 48.189 68.2442 48.1043C68.0794 48.4197 67.6651 47.9489 67.4485 47.3462C67.246 46.7718 67.2602 46.1644 67.5662 46.268C67.5992 46.1833 67.5945 46.042 67.5474 45.8725C66.9447 45.8113 66.714 46.6541 67.0059 47.4875C67.2978 48.3209 68.0182 48.8623 68.4608 48.4527H68.4655ZM55.9977 40.7074C49.9804 40.7074 45.079 45.6136 45.079 51.6261C45.079 57.6387 49.9851 62.5449 55.9977 62.5449C62.0103 62.5449 66.9165 57.6387 66.9165 51.6261C66.9165 45.6136 62.0103 40.7074 55.9977 40.7074Z" fill="white"/>
<path fill-rule="evenodd" clip-rule="evenodd" d="M51.2612 89.8535C52.7961 90.2348 54.4205 90.4326 55.9978 90.4326C57.5798 90.4326 59.2042 90.2348 60.7344 89.8535C65.5087 88.4174 66.6623 86.0726 71.592 84.34C75.208 83.0357 78.1648 82.8097 81.5831 82.7815V78.2191C72.5383 78.3368 69.7886 80.4226 65.0709 83.5019C62.5001 85.4794 59.0912 85.6677 56.0025 85.6677C52.9138 85.6677 49.505 85.4747 46.9342 83.5019C42.2164 80.4226 39.462 78.3368 30.4219 78.2191V82.7815C33.8402 82.8144 36.7924 83.0404 40.4131 84.34C45.3428 86.0773 46.4916 88.4174 51.2706 89.8535H51.2612ZM29.6639 77.5034V81.0535C26.6505 81.077 24.1221 80.5685 21.9563 79.6692C23.6042 79.302 25.2474 78.9394 26.8953 78.5722C25.7324 77.4281 24.5647 76.2839 23.4017 75.1351C26.5705 76.0768 29.8805 77.0043 35.9919 75.8272C33.8826 76.3875 31.7779 76.9431 29.6686 77.5034H29.6639ZM29.758 81.708H29.6686C26.9377 81.7315 24.2351 81.3266 21.702 80.2719L19.7904 79.4762L21.8103 79.0289C23.0627 78.7511 24.3199 78.4733 25.5723 78.1908C24.6918 77.3292 23.8161 76.4628 22.9356 75.6012L21.057 73.7555L23.5807 74.5089C25.2757 75.0127 26.8812 75.4458 28.6516 75.6295C31.067 75.8743 33.4824 75.6483 35.8601 75.1869L37.4468 74.9091V78.2379C37.5975 78.2709 37.7434 78.3038 37.8894 78.3368C39.7021 78.7605 41.3501 79.3915 42.9839 80.2766C44.467 81.077 45.8701 82.0328 47.2779 82.951L47.3156 82.9792C49.7639 84.8626 53.0315 85.0085 55.9884 85.0085C58.9453 85.0085 62.2082 84.8579 64.6565 82.9792L64.6942 82.951C66.102 82.0328 67.5051 81.077 68.9882 80.2766C70.6267 79.3915 72.27 78.7558 74.0827 78.3368C74.2286 78.3038 74.3746 78.2709 74.5206 78.2379V74.9091L76.1167 75.1869C78.4944 75.6436 80.9098 75.8743 83.3252 75.6295C85.0956 75.4505 86.7011 75.0174 88.3961 74.5089L90.9198 73.7555L89.0412 75.6012C88.1607 76.4628 87.285 77.3292 86.4045 78.1908C87.6569 78.4686 88.9141 78.7464 90.1665 79.0289L92.1864 79.4762L90.2748 80.2719C87.7417 81.3266 85.0438 81.7268 82.3082 81.708H82.2188V83.4265H81.569C80.3731 83.4454 79.1819 83.4783 77.9906 83.5913C75.8389 83.7891 73.8284 84.2317 71.7897 84.9568C70.6974 85.3475 69.6568 85.8184 68.6492 86.3881C67.8064 86.8636 67.006 87.4004 66.1962 87.923C65.4428 88.4127 64.6895 88.8788 63.889 89.2885C62.9285 89.7781 61.9351 90.1689 60.9039 90.4797H60.8898L60.8757 90.4891C59.289 90.8846 57.6552 91.0871 56.0355 91.0871H55.9319C54.3122 91.0871 52.6737 90.8846 51.087 90.4891H51.0729L51.0587 90.4797C50.0276 90.1689 49.0341 89.7781 48.0736 89.2885C47.2732 88.8788 46.5199 88.4127 45.7665 87.923C44.9567 87.3957 44.1563 86.8636 43.3135 86.3881C42.3059 85.8184 41.2653 85.3475 40.173 84.9568C38.139 84.2317 36.1238 83.7891 33.972 83.5913C32.7808 83.483 31.5896 83.4454 30.3937 83.4359H29.7439V81.708H29.758ZM82.3318 77.5034C80.2224 76.9431 78.1178 76.3875 76.0084 75.8272C82.1152 77.0043 85.4299 76.0768 88.5986 75.1351C87.4356 76.2792 86.268 77.4234 85.105 78.5722C86.7529 78.9394 88.3961 79.302 90.0441 79.6692C87.8782 80.5685 85.3498 81.077 82.3365 81.0535V77.5034H82.3318Z" fill="#22409A"/>
<path fill-rule="evenodd" clip-rule="evenodd" d="M32.1499 79.189L33.1198 79.2832C33.3411 79.302 33.5059 79.3349 33.6142 79.382C33.7649 79.4432 33.8873 79.5374 33.9862 79.6645C34.085 79.7917 34.1557 79.9423 34.198 80.1165C34.2404 80.2907 34.2498 80.5026 34.2263 80.7475C34.2075 80.964 34.1604 81.1477 34.0897 81.303C34.005 81.4914 33.8967 81.6373 33.7649 81.7409C33.666 81.821 33.5342 81.8822 33.3694 81.9151C33.2469 81.9434 33.0916 81.9434 32.8938 81.9246L31.8909 81.8304L32.1452 79.189H32.1499ZM32.6396 79.6881L32.4701 81.4349L32.8656 81.4725C33.0115 81.4867 33.1198 81.4867 33.1904 81.4773C33.2799 81.4631 33.3552 81.4349 33.4164 81.3878C33.4777 81.3407 33.5342 81.2607 33.5812 81.1477C33.6283 81.0347 33.6613 80.8746 33.6801 80.6674C33.6989 80.465 33.6989 80.3049 33.6707 80.1919C33.6472 80.0789 33.6048 79.9894 33.5436 79.9235C33.4871 79.8576 33.407 79.8058 33.3082 79.7775C33.2375 79.754 33.0916 79.7304 32.875 79.7116L32.6349 79.6881H32.6396ZM35.4363 79.5515L35.2904 80.5215C35.4834 80.352 35.6906 80.286 35.9166 80.319C36.0343 80.3378 36.1332 80.3755 36.2226 80.432C36.3074 80.4885 36.3733 80.5544 36.411 80.6297C36.4486 80.7051 36.4722 80.7804 36.4769 80.8652C36.4816 80.9499 36.4769 81.077 36.4486 81.2465L36.2838 82.3624L35.7801 82.2871L35.9307 81.2842C35.959 81.0865 35.9684 80.9593 35.959 80.9028C35.9496 80.8463 35.9213 80.7993 35.8742 80.7616C35.8318 80.7239 35.7706 80.6957 35.6953 80.6862C35.6105 80.6721 35.5352 80.6862 35.4599 80.7145C35.3893 80.7427 35.328 80.7992 35.2857 80.8746C35.2433 80.9499 35.2103 81.0676 35.1868 81.2277L35.0455 82.1788L34.5417 82.1035L34.9325 79.4809L35.4363 79.5562V79.5515ZM37.4562 81.2465L37.0278 81.0629C37.1219 80.8934 37.2396 80.7757 37.3856 80.7192C37.5316 80.6627 37.7246 80.658 37.9647 80.7192C38.186 80.771 38.3461 80.8369 38.4403 80.9122C38.5345 80.9876 38.5957 81.0723 38.6192 81.1665C38.6427 81.256 38.6333 81.4113 38.5815 81.6232L38.4403 82.1976C38.4026 82.3624 38.3838 82.4848 38.3791 82.5649C38.3791 82.6449 38.3885 82.7391 38.4073 82.838L37.9177 82.725C37.9129 82.6873 37.9082 82.6355 37.9035 82.5696C37.9035 82.5366 37.9035 82.5178 37.9035 82.5084C37.7999 82.5696 37.6964 82.612 37.5881 82.6308C37.4845 82.6496 37.3762 82.6449 37.2679 82.6214C37.0749 82.579 36.9383 82.4896 36.8489 82.3577C36.7641 82.2259 36.7359 82.0846 36.7735 81.9246C36.7971 81.821 36.8441 81.7315 36.9148 81.6609C36.9854 81.5903 37.0701 81.5432 37.169 81.5196C37.2679 81.4961 37.4091 81.4914 37.5881 81.4961C37.8282 81.5055 37.9977 81.5055 38.0966 81.4867L38.106 81.4349C38.1295 81.3407 38.1201 81.2654 38.0824 81.2136C38.0448 81.1618 37.96 81.1194 37.8282 81.0912C37.7387 81.0723 37.6681 81.0723 37.6116 81.0912C37.5551 81.1147 37.4986 81.1665 37.4468 81.2465H37.4562ZM38.0259 81.8021C37.96 81.8068 37.8517 81.8116 37.7058 81.8068C37.5598 81.8068 37.4657 81.8116 37.4186 81.8304C37.3432 81.8633 37.2962 81.9104 37.282 81.9811C37.2679 82.0517 37.282 82.1176 37.3197 82.1788C37.3574 82.24 37.4186 82.2824 37.4986 82.3012C37.5881 82.3201 37.6775 82.3106 37.7764 82.273C37.847 82.24 37.8988 82.1976 37.9318 82.1364C37.9553 82.0988 37.9789 82.0187 38.0071 81.901L38.0307 81.8021H38.0259ZM39.2501 83.0922L38.7652 82.9369L39.349 81.1053L39.7963 81.2465L39.7115 81.5055C39.8293 81.4066 39.9234 81.3501 39.9988 81.3313C40.0741 81.3125 40.1494 81.3172 40.2248 81.3407C40.3331 81.3737 40.4319 81.4396 40.5167 81.5338L40.2342 81.9104C40.1683 81.8304 40.1023 81.7786 40.0317 81.7598C39.9658 81.7362 39.8999 81.7362 39.8387 81.7598C39.7775 81.7833 39.721 81.8398 39.6645 81.9246C39.608 82.014 39.5279 82.2118 39.429 82.5272L39.2501 83.0922ZM40.9028 81.5855L40.1353 83.3465L40.6014 83.5489L40.9734 82.692C41.0487 82.5225 41.1099 82.4095 41.1664 82.3436C41.2229 82.2824 41.2888 82.2447 41.3642 82.2306C41.4395 82.2165 41.5101 82.2259 41.5808 82.2588C41.642 82.2871 41.6844 82.3153 41.7079 82.3577C41.7314 82.3954 41.7409 82.4472 41.7361 82.5037C41.7314 82.5602 41.6891 82.6732 41.6184 82.8474L41.1994 83.8126L41.6655 84.0151L42.0328 83.1723C42.1034 83.0075 42.1693 82.8898 42.2305 82.8238C42.287 82.7579 42.3577 82.7203 42.433 82.7014C42.5083 82.6873 42.5789 82.692 42.6449 82.7203C42.7343 82.7579 42.7861 82.8239 42.8002 82.9086C42.8097 82.9745 42.7767 83.0922 42.7014 83.2664L42.2635 84.274L42.7296 84.4765L43.2193 83.3512C43.2946 83.1817 43.3276 83.0546 43.3276 82.9651C43.3276 82.8427 43.2946 82.7391 43.2287 82.6449C43.1628 82.5508 43.0639 82.4801 42.9368 82.4236C42.8332 82.3813 42.7296 82.3624 42.6213 82.3671C42.513 82.3766 42.3953 82.4095 42.2776 82.4707C42.2635 82.353 42.2305 82.2541 42.1646 82.1694C42.1034 82.0893 42.0139 82.0234 41.9009 81.9716C41.6891 81.8775 41.4678 81.8916 41.2323 82.0093L41.3359 81.7692L40.9075 81.5808L40.9028 81.5855ZM44.1562 83.822L43.8031 83.516C43.9444 83.3794 44.0903 83.3088 44.2457 83.2947C44.4011 83.2806 44.5847 83.3418 44.8013 83.4689C44.9943 83.5866 45.1262 83.6949 45.1968 83.7985C45.2627 83.9021 45.2957 84.0009 45.291 84.0951C45.291 84.1893 45.2298 84.3305 45.1168 84.5189L44.806 85.0227C44.7213 85.1686 44.66 85.2769 44.6365 85.357C44.6083 85.4323 44.5894 85.5218 44.58 85.6253L44.1468 85.3664C44.1515 85.3334 44.1657 85.2816 44.1798 85.2157C44.1892 85.1875 44.1939 85.1639 44.1939 85.1545C44.0762 85.1827 43.9632 85.1922 43.8549 85.1733C43.7466 85.1545 43.6477 85.1215 43.5536 85.065C43.3841 84.9615 43.2805 84.839 43.2381 84.6884C43.1957 84.5377 43.2146 84.3917 43.2993 84.2505C43.3558 84.1563 43.4265 84.0904 43.5159 84.0433C43.6054 83.9962 43.6995 83.9774 43.8031 83.9868C43.9067 83.9962 44.0432 84.0292 44.208 84.0951C44.434 84.1799 44.5988 84.227 44.693 84.2411L44.7213 84.1987C44.773 84.114 44.7872 84.0433 44.7683 83.9821C44.7495 83.9209 44.6789 83.855 44.5659 83.7891C44.4858 83.742 44.4199 83.7232 44.3587 83.7279C44.2975 83.7279 44.2269 83.7655 44.1562 83.8267V83.822ZM44.5282 84.5236C44.4623 84.5095 44.3587 84.4765 44.2222 84.4294C44.0856 84.3823 43.9915 84.3588 43.9397 84.3635C43.8596 84.3682 43.7984 84.4059 43.7607 84.4671C43.7231 84.5283 43.7137 84.5942 43.7325 84.6648C43.7513 84.7355 43.7937 84.792 43.8643 84.8343C43.9444 84.8814 44.0338 84.9002 44.1374 84.8908C44.2128 84.8814 44.2787 84.8579 44.3258 84.8108C44.3587 84.7825 44.4058 84.7119 44.4717 84.6083L44.5235 84.5236H44.5282ZM44.8908 85.8278L45.3192 86.0962L45.6488 85.5735L45.9831 85.4841L45.9313 86.4776L46.3974 86.7695L46.4492 85.3617L47.3768 85.1168L46.8447 84.7825L45.9831 85.0415L46.7317 83.8503L46.3033 83.5819L44.8908 85.8278ZM47.9182 86.9437L48.3185 87.2638C48.1725 87.3957 48.0124 87.4663 47.8429 87.4851C47.6734 87.4993 47.4945 87.4569 47.3109 87.3533C47.0189 87.1885 46.8589 86.9719 46.8259 86.7036C46.8024 86.487 46.8541 86.2657 46.986 86.0303C47.1414 85.7525 47.3344 85.5735 47.5698 85.4982C47.8052 85.4229 48.0312 85.4464 48.2525 85.5688C48.5021 85.7101 48.6527 85.8984 48.7045 86.148C48.7563 86.3928 48.6857 86.6847 48.488 87.0237L47.3815 86.4022C47.3109 86.534 47.2873 86.6565 47.3156 86.7695C47.3438 86.8825 47.405 86.9672 47.5086 87.0237C47.5792 87.0614 47.6452 87.0755 47.7158 87.0661C47.7864 87.0567 47.8523 87.0143 47.923 86.9437H47.9182ZM48.196 86.5105C48.2667 86.3787 48.2855 86.2657 48.262 86.1621C48.2384 86.0585 48.1772 85.9832 48.0877 85.9314C47.9936 85.8796 47.89 85.8702 47.7911 85.9031C47.6875 85.9408 47.6028 86.0161 47.5369 86.1385L48.196 86.5105ZM48.907 88.1161L49.1565 87.5793C49.2931 87.2827 49.3967 87.0943 49.4673 87.0143C49.5379 86.9343 49.5991 86.8872 49.6603 86.8683C49.7215 86.8542 49.7828 86.8589 49.8487 86.8919C49.9146 86.9249 49.9758 86.9814 50.0323 87.0661L50.3619 86.7318C50.2913 86.6282 50.2018 86.5529 50.0982 86.5058C50.0229 86.4728 49.9476 86.4587 49.8722 86.4681C49.7969 86.4775 49.6933 86.5246 49.5662 86.6047L49.6792 86.3551L49.2507 86.1574L48.4456 87.9042L48.907 88.1161ZM51.4119 87.0143L51.28 87.3957L50.9504 87.2827L50.7009 88.0219C50.6491 88.1726 50.6256 88.2573 50.6208 88.2856C50.6208 88.3138 50.6256 88.3374 50.6444 88.3609C50.6632 88.3844 50.6868 88.4033 50.7197 88.4127C50.7668 88.4268 50.8327 88.4362 50.9316 88.4315L50.8469 88.8176C50.7197 88.827 50.5832 88.8082 50.4419 88.7611C50.3572 88.7329 50.2818 88.6905 50.2253 88.6387C50.1641 88.5869 50.1265 88.5304 50.1123 88.4739C50.0935 88.4174 50.0935 88.3468 50.1123 88.262C50.1218 88.2008 50.1547 88.0878 50.2112 87.9183L50.4843 87.1226L50.263 87.0473L50.3948 86.6659L50.6161 86.7412L50.7386 86.3787L51.3177 86.2563L51.0964 86.9013L51.426 87.0143H51.4119ZM51.7744 87.7206C51.8262 87.6405 51.878 87.584 51.9345 87.5605C51.991 87.5369 52.0663 87.5322 52.1511 87.5511C52.2829 87.5793 52.3677 87.617 52.4053 87.6688C52.443 87.7206 52.4524 87.7959 52.4336 87.8901L52.4242 87.9419C52.3253 87.9607 52.1558 87.9701 51.9157 87.9607C51.7367 87.9607 51.5955 87.9701 51.4966 87.9936C51.3977 88.0172 51.313 88.069 51.2424 88.1396C51.1717 88.2102 51.1294 88.2997 51.1058 88.408C51.0729 88.5681 51.1011 88.714 51.1906 88.8412C51.28 88.9683 51.4213 89.053 51.6143 89.0954C51.7226 89.1189 51.8309 89.1189 51.9345 89.0954C52.0381 89.0719 52.1417 89.0295 52.2452 88.9636C52.2452 88.973 52.2452 88.9918 52.2499 89.0248C52.2547 89.0907 52.2594 89.1425 52.2688 89.1802L52.7632 89.2837C52.7396 89.1849 52.7255 89.0954 52.7255 89.0154C52.7255 88.9353 52.7443 88.8082 52.7773 88.6434L52.9044 88.0643C52.9515 87.8477 52.9609 87.697 52.9327 87.6029C52.9044 87.5134 52.8432 87.4286 52.7443 87.3533C52.6455 87.278 52.4854 87.2168 52.2641 87.1697C52.0192 87.1179 51.8262 87.1226 51.6849 87.1838C51.5437 87.245 51.426 87.3627 51.3365 87.5369L51.7697 87.7111L51.7744 87.7206ZM52.3582 88.262L52.3394 88.3609C52.3159 88.4786 52.2923 88.5587 52.2688 88.601C52.2358 88.6622 52.184 88.7093 52.1134 88.7423C52.0192 88.7847 51.9298 88.7941 51.8403 88.7752C51.7603 88.7564 51.6991 88.7187 51.6567 88.6575C51.6143 88.5963 51.6002 88.5304 51.619 88.4598C51.6332 88.3891 51.6802 88.3374 51.7509 88.3044C51.7979 88.2856 51.8968 88.2761 52.0381 88.2761C52.184 88.2761 52.2876 88.2761 52.3582 88.262ZM54.1757 89.4438L54.1568 86.793H54.962L55.4516 88.5916L55.9084 86.7789H56.7135L56.7323 89.425H56.2379L56.2191 87.3392L55.7106 89.4297H55.1927L54.6559 87.3486L54.6701 89.4344H54.1757V89.4438ZM57.5045 88.0031L57.0384 87.9701C57.0713 87.7771 57.1467 87.6311 57.2644 87.5275C57.3821 87.4239 57.5657 87.3627 57.8105 87.3345C58.0365 87.3109 58.206 87.3204 58.3237 87.3627C58.4415 87.4051 58.5262 87.4663 58.578 87.5416C58.6298 87.6217 58.6675 87.7676 58.691 87.9889L58.7428 88.5775C58.7616 88.747 58.7805 88.8694 58.804 88.9447C58.8275 89.0201 58.8652 89.1048 58.9217 89.1896L58.4226 89.2414C58.4085 89.2084 58.385 89.1613 58.3567 89.1001C58.3473 89.0719 58.3379 89.053 58.3332 89.0436C58.2578 89.1378 58.1684 89.2084 58.0742 89.2602C57.98 89.312 57.8765 89.345 57.7682 89.3544C57.5704 89.3732 57.4103 89.3355 57.2879 89.2414C57.1655 89.1472 57.0949 89.0154 57.076 88.8553C57.0666 88.747 57.0807 88.6481 57.1231 88.5587C57.1655 88.4692 57.2314 88.3986 57.3209 88.3421C57.4103 88.2856 57.5375 88.2338 57.7117 88.182C57.9424 88.1114 58.1025 88.0549 58.1872 88.0078V87.956C58.1731 87.8571 58.1401 87.7912 58.0883 87.7535C58.0365 87.7159 57.9424 87.7064 57.8105 87.7206C57.7211 87.73 57.6505 87.7535 57.6034 87.7959C57.5563 87.8383 57.5233 87.9042 57.4998 87.9984L57.5045 88.0031ZM58.2249 88.3421C58.1637 88.3703 58.0648 88.408 57.9235 88.4504C57.787 88.4927 57.6975 88.5351 57.6599 88.5681C57.5987 88.6199 57.5704 88.6858 57.5798 88.7564C57.5892 88.827 57.6175 88.8835 57.6787 88.9306C57.7352 88.9777 57.8058 88.9965 57.8859 88.9871C57.9753 88.9777 58.0601 88.94 58.1354 88.8694C58.1919 88.8176 58.2249 88.7564 58.239 88.6905C58.2484 88.6481 58.2437 88.5634 58.2343 88.4409L58.2249 88.3421ZM59.7833 88.9918L59.6609 88.4127C59.595 88.0925 59.5621 87.8806 59.5715 87.7724C59.5762 87.6641 59.5997 87.5887 59.6421 87.5416C59.6845 87.4946 59.7363 87.4616 59.8069 87.4475C59.8775 87.4333 59.9623 87.4475 60.0564 87.4804L60.1176 87.0143C59.9999 86.9719 59.8822 86.9672 59.7692 86.9908C59.6892 87.0096 59.6233 87.0426 59.5668 87.0943C59.5103 87.1461 59.4585 87.245 59.4067 87.3863L59.3502 87.1179L58.8888 87.2168L59.2843 89.0954L59.7786 88.9918H59.7833ZM60.7062 88.9071L61.2806 88.7941C61.3089 88.8553 61.3465 88.893 61.3889 88.9071C61.4454 88.9259 61.5254 88.9212 61.6243 88.8882C61.7514 88.8459 61.8362 88.7988 61.888 88.7376C61.9209 88.6999 61.9398 88.6481 61.9445 88.5822C61.9445 88.5398 61.9304 88.4598 61.8927 88.3515L61.8079 88.0831C61.7279 88.3279 61.5772 88.488 61.3559 88.5634C61.1111 88.6434 60.8804 88.6057 60.6732 88.4456C60.5084 88.3185 60.386 88.1349 60.306 87.8901C60.2071 87.584 60.2024 87.3251 60.2966 87.1179C60.3907 86.906 60.5461 86.7695 60.7674 86.6941C60.9934 86.6188 61.21 86.6565 61.4219 86.8071L61.3371 86.5482L61.7891 86.4022L62.3259 88.0407C62.3965 88.2573 62.4295 88.4221 62.4295 88.5398C62.4295 88.6575 62.4059 88.7564 62.3635 88.8412C62.3212 88.9212 62.2505 88.9965 62.1517 89.0672C62.0575 89.1378 61.9257 89.199 61.7609 89.2508C61.4501 89.3544 61.2147 89.3732 61.0499 89.3073C60.8851 89.2414 60.7768 89.1284 60.725 88.9683C60.7203 88.9542 60.7156 88.9306 60.7062 88.9071ZM60.7909 87.697C60.8569 87.8901 60.9369 88.0172 61.0405 88.0831C61.1441 88.149 61.2524 88.1631 61.3607 88.1255C61.4784 88.0878 61.5631 88.0078 61.6149 87.8901C61.6667 87.7724 61.662 87.6217 61.6008 87.4428C61.5396 87.2544 61.4548 87.1273 61.3465 87.0614C61.2382 86.9955 61.1252 86.9813 61.0075 87.019C60.8898 87.0567 60.8098 87.132 60.7674 87.2497C60.7203 87.3627 60.7297 87.5134 60.7909 87.697ZM62.6084 86.6423C62.599 86.5482 62.6084 86.4728 62.6366 86.4163C62.6649 86.3598 62.7214 86.3128 62.8014 86.2751C62.9238 86.2186 63.0133 86.195 63.0745 86.2139C63.1357 86.2327 63.1875 86.2845 63.2299 86.374L63.2534 86.4211C63.1875 86.4964 63.0557 86.6047 62.8626 86.7459C62.7167 86.8542 62.6131 86.9484 62.5519 87.0284C62.486 87.1085 62.4483 87.1979 62.4389 87.2968C62.4295 87.3957 62.4483 87.4946 62.4954 87.5934C62.566 87.7394 62.6743 87.8383 62.825 87.8854C62.9756 87.9324 63.1357 87.9136 63.3146 87.8288C63.4135 87.7818 63.503 87.7159 63.5689 87.6358C63.6395 87.5558 63.696 87.4569 63.7384 87.3439C63.7478 87.3486 63.7619 87.3674 63.7808 87.391C63.8278 87.4428 63.8608 87.4804 63.889 87.504L64.3411 87.2874C64.261 87.2262 64.1951 87.1603 64.148 87.0943C64.1009 87.0284 64.0397 86.9201 63.9644 86.7695L63.7148 86.2327C63.6207 86.035 63.5312 85.9078 63.4559 85.8513C63.3805 85.7948 63.2817 85.7713 63.1545 85.7666C63.0321 85.7666 62.8673 85.8137 62.6649 85.9125C62.4389 86.0208 62.2882 86.1433 62.2129 86.2798C62.1375 86.4163 62.1187 86.5811 62.1517 86.7695L62.599 86.6423H62.6084ZM63.3994 86.7177L63.4418 86.8071C63.4935 86.9154 63.5218 86.9955 63.5312 87.0378C63.5406 87.1085 63.5312 87.1744 63.4935 87.2403C63.4465 87.3298 63.3805 87.3957 63.2958 87.4333C63.2205 87.471 63.1498 87.4757 63.0792 87.4522C63.0086 87.4286 62.9568 87.3863 62.9285 87.3204C62.8956 87.2544 62.9003 87.1885 62.9427 87.1179C62.9709 87.0755 63.0415 87.0049 63.1545 86.9201C63.2675 86.8307 63.3523 86.7648 63.3994 86.7177ZM65.5605 86.5388L64.1433 84.2976L65.0944 83.6949C65.3345 83.5442 65.5229 83.4548 65.6547 83.4265C65.7912 83.3983 65.9231 83.4124 66.0502 83.4736C66.182 83.5348 66.2903 83.6337 66.3704 83.7655C66.4787 83.935 66.5163 84.1045 66.4881 84.274C66.4598 84.4482 66.3562 84.6083 66.1773 84.759C66.3092 84.7543 66.4316 84.7637 66.5352 84.792C66.6435 84.8202 66.8035 84.8861 67.0201 84.9944L67.571 85.2581L67.0295 85.6018L66.3939 85.3193C66.1679 85.2204 66.0172 85.1592 65.9466 85.1404C65.876 85.1215 65.8101 85.1215 65.7536 85.1357C65.6924 85.1498 65.6123 85.1875 65.5087 85.2534L65.4193 85.3099L66.0125 86.2468L65.5605 86.534V86.5388ZM65.1933 84.9615L65.5276 84.7496C65.7442 84.613 65.8713 84.5189 65.9184 84.4624C65.9607 84.4106 65.9843 84.3494 65.9843 84.2882C65.9843 84.2222 65.9654 84.1563 65.9231 84.0904C65.876 84.0151 65.8148 83.968 65.7489 83.9444C65.6782 83.9256 65.6029 83.9303 65.5229 83.9633C65.4805 83.9821 65.3722 84.048 65.1886 84.1657L64.8354 84.387L65.198 84.9567L65.1933 84.9615ZM67.4674 83.7749C67.4486 83.6808 67.4533 83.6054 67.4768 83.5489C67.5004 83.4924 67.5522 83.4406 67.6322 83.3936C67.7499 83.3276 67.8394 83.2994 67.9006 83.3088C67.9618 83.3229 68.0183 83.37 68.0701 83.4548L68.0936 83.4972C68.0324 83.5772 67.9147 83.6949 67.7311 83.855C67.5945 83.9727 67.5004 84.0763 67.4439 84.161C67.3874 84.2458 67.3544 84.34 67.3544 84.4388C67.3544 84.5377 67.378 84.6366 67.4345 84.7307C67.5192 84.872 67.6369 84.9614 67.7876 84.9944C67.9383 85.0321 68.103 84.9944 68.2725 84.9002C68.3667 84.8437 68.4468 84.7731 68.5127 84.6837C68.5786 84.5989 68.6257 84.4953 68.6539 84.3776C68.6633 84.3823 68.6775 84.3964 68.701 84.42C68.7528 84.4671 68.7905 84.5 68.8187 84.5236L69.2519 84.2693C69.1671 84.2128 69.0965 84.1563 69.0447 84.0951C68.9882 84.0339 68.9223 83.9303 68.8376 83.7844L68.5456 83.2711C68.4326 83.0781 68.3385 82.9604 68.2584 82.9133C68.1784 82.8662 68.0748 82.8474 67.9524 82.8568C67.83 82.8662 67.6699 82.9274 67.4721 83.0451C67.2555 83.1723 67.119 83.3041 67.0531 83.4454C66.9872 83.5866 66.9825 83.7514 67.0342 83.9397L67.4721 83.7797L67.4674 83.7749ZM68.2631 83.7844L68.3149 83.8738C68.3761 83.9774 68.4138 84.0527 68.4232 84.0998C68.442 84.1657 68.4326 84.2364 68.4044 84.307C68.362 84.4012 68.3008 84.4718 68.2255 84.5189C68.1548 84.5612 68.0842 84.5707 68.0136 84.5518C67.943 84.533 67.8865 84.4953 67.8535 84.4341C67.8158 84.3729 67.8158 84.3023 67.8535 84.2317C67.877 84.1846 67.943 84.114 68.0465 84.0151C68.1548 83.9162 68.2302 83.8409 68.2725 83.7938L68.2631 83.7844ZM69.5909 84.1045L68.4656 81.7033L68.927 81.4867L69.525 82.7626L69.7745 81.8963L70.3395 81.6326L70.0429 82.5461L71.1964 83.3512L70.7021 83.5819L69.8969 83.0028L69.7886 83.3324L70.0476 83.8879L69.5862 84.1045H69.5909ZM71.1682 82.8003C71.2624 82.9604 71.3989 83.0734 71.5731 83.1299C71.7473 83.1911 71.9639 83.1817 72.2135 83.1111C72.4913 83.031 72.6843 82.9086 72.7879 82.7485C72.8962 82.5884 72.9244 82.4189 72.8726 82.2494C72.8303 82.0941 72.7408 81.9858 72.6137 81.9293C72.4865 81.8728 72.2841 81.8539 72.0063 81.868C71.7285 81.8822 71.5637 81.8822 71.5072 81.8633C71.4695 81.8492 71.4413 81.8257 71.4319 81.788C71.4225 81.7456 71.4319 81.708 71.4601 81.675C71.5072 81.6232 71.5919 81.5761 71.7238 81.5432C71.8274 81.5149 71.9121 81.5102 71.978 81.5338C72.044 81.5573 72.1005 81.5997 72.1381 81.6703L72.5713 81.4537C72.4771 81.303 72.3594 81.2089 72.2135 81.1618C72.0675 81.1147 71.865 81.1288 71.6155 81.1995C71.3518 81.2748 71.1682 81.3878 71.074 81.5338C70.9799 81.6797 70.9563 81.8304 70.9987 81.9952C71.0505 82.1741 71.1635 82.2918 71.3377 82.3483C71.4648 82.3907 71.7379 82.3954 72.157 82.3718C72.2464 82.3718 72.3076 82.3718 72.3406 82.3907C72.3688 82.4095 72.3924 82.4378 72.4018 82.4707C72.4159 82.5272 72.4065 82.5743 72.3735 82.6214C72.3218 82.6873 72.2323 82.7344 72.1099 82.7721C71.9969 82.805 71.898 82.805 71.8227 82.7721C71.7426 82.7438 71.6814 82.6826 71.6343 82.5931L71.1635 82.8097L71.1682 82.8003ZM72.802 80.8934L73.3293 80.771L74.0874 81.9952L74.2192 80.5638L74.7324 80.4461L74.4923 82.4001L74.4499 82.7532C74.4311 82.8709 74.4076 82.9651 74.384 83.031C74.3605 83.0969 74.3228 83.1534 74.2804 83.2005C74.2381 83.2476 74.1816 83.29 74.1109 83.3276C74.0403 83.3653 73.9603 83.3936 73.8661 83.4171C73.7719 83.4406 73.6731 83.4501 73.5789 83.4501L73.4471 83.0734C73.5271 83.0734 73.6024 83.064 73.6636 83.0499C73.7813 83.0216 73.8567 82.9698 73.8943 82.8898C73.932 82.8097 73.9556 82.7109 73.9603 82.6026L72.8114 80.8934H72.802ZM75.6459 80.8934H75.1797C75.1986 80.6957 75.2645 80.5403 75.3775 80.432C75.4858 80.3237 75.6647 80.2484 75.9142 80.206C76.1402 80.1683 76.3097 80.1683 76.4275 80.206C76.5452 80.239 76.6346 80.2955 76.6911 80.3708C76.7476 80.4461 76.7947 80.5921 76.8324 80.8087L76.9218 81.3925C76.9501 81.5573 76.9783 81.6797 77.0066 81.7551C77.0348 81.8304 77.0772 81.9104 77.1384 81.9952L76.6393 82.0752C76.6205 82.0423 76.597 81.9999 76.5687 81.9387C76.5546 81.9104 76.5452 81.8916 76.5405 81.8822C76.4698 81.981 76.3898 82.0564 76.2956 82.1176C76.2062 82.1741 76.1073 82.2118 75.9943 82.2306C75.8012 82.2636 75.6364 82.2306 75.5093 82.1458C75.3822 82.0611 75.3022 81.934 75.2739 81.7739C75.2551 81.6656 75.2645 81.5667 75.3022 81.4773C75.3398 81.3878 75.401 81.3078 75.4858 81.2513C75.5705 81.19 75.6977 81.1288 75.8672 81.0676C76.0932 80.9876 76.2485 80.917 76.3333 80.8652L76.3239 80.8134C76.3097 80.7145 76.2721 80.6486 76.2203 80.6156C76.1638 80.5827 76.0696 80.578 75.9378 80.5968C75.8483 80.6109 75.7824 80.6392 75.7353 80.6862C75.6882 80.7286 75.66 80.7993 75.6459 80.8934ZM76.3851 81.19C76.3239 81.223 76.225 81.2654 76.0932 81.3172C75.9613 81.369 75.8719 81.416 75.8342 81.449C75.7777 81.5055 75.7542 81.5714 75.7636 81.642C75.773 81.7127 75.8107 81.7692 75.8719 81.8116C75.9331 81.8539 76.0037 81.868 76.0837 81.8539C76.1732 81.8398 76.2532 81.7974 76.3286 81.7221C76.3804 81.6656 76.4133 81.6044 76.4227 81.5385C76.4275 81.4914 76.4227 81.4113 76.4039 81.2889L76.3898 81.19H76.3851ZM77.5057 81.9669L77.3362 79.3208L77.8447 79.2879L77.9341 80.691L78.485 79.9753L79.1112 79.9329L78.5038 80.6768L79.2854 81.8492L78.7393 81.8869L78.1978 81.0535L77.9812 81.3219L78.0189 81.934L77.5104 81.9669H77.5057ZM80.0341 80.5638L79.5821 80.4555C79.6433 80.2719 79.7421 80.1401 79.874 80.0553C80.0058 79.9706 80.1942 79.9376 80.4437 79.9517C80.6697 79.9659 80.8392 79.9988 80.9428 80.06C81.0511 80.1212 81.1264 80.1919 81.1641 80.2766C81.2065 80.3614 81.2206 80.512 81.2065 80.7333L81.1641 81.3266C81.1547 81.4961 81.1547 81.6185 81.1641 81.6985C81.1735 81.7786 81.2017 81.8681 81.2394 81.9622L80.7356 81.934C80.7262 81.901 80.7121 81.8492 80.6932 81.7833C80.6885 81.7551 80.6838 81.7315 80.6791 81.7221C80.5897 81.8021 80.4908 81.8586 80.3919 81.8963C80.293 81.934 80.1847 81.9481 80.0717 81.9434C79.874 81.934 79.7233 81.8681 79.615 81.7551C79.5067 81.642 79.4596 81.5008 79.4691 81.3407C79.4738 81.2324 79.5067 81.1383 79.5632 81.0535C79.6197 80.9735 79.6951 80.9122 79.7939 80.8699C79.8881 80.8322 80.0247 80.7992 80.2036 80.7757C80.4437 80.7475 80.6085 80.7145 80.7027 80.6815V80.6297C80.7121 80.5309 80.6932 80.4602 80.6462 80.4132C80.5991 80.3661 80.5096 80.3425 80.3778 80.3331C80.2883 80.3284 80.2177 80.3425 80.1612 80.3755C80.1094 80.4085 80.0623 80.4697 80.0294 80.5591L80.0341 80.5638ZM80.6885 81.0158C80.6226 81.0347 80.519 81.0535 80.3731 81.077C80.2318 81.1006 80.1376 81.1241 80.0906 81.1477C80.0199 81.19 79.987 81.2465 79.9823 81.3219C79.9823 81.3925 80.0011 81.4537 80.0529 81.5102C80.1047 81.5667 80.1706 81.595 80.2507 81.5997C80.3401 81.6044 80.4296 81.5808 80.519 81.5243C80.5849 81.482 80.6273 81.4302 80.6509 81.3643C80.665 81.3219 80.6791 81.2418 80.6838 81.1194V81.0205L80.6885 81.0158Z" fill="#22409A"/>
</g>
<rect x="1" y="1" width="110" height="110" rx="9" stroke="black" stroke-opacity="0.1" stroke-width="2"/>
<defs>
<clipPath id="clip0_768_296">
<rect x="2" y="2" width="108" height="108" rx="8" fill="white"/>
</clipPath>
</defs>
</svg>
