<svg width="112" height="112" viewBox="0 0 112 112" fill="none" xmlns="http://www.w3.org/2000/svg">
<g clip-path="url(#clip0_786_617)">
<rect x="2" y="2" width="108" height="108" rx="8" fill="white"/>
<g clip-path="url(#clip1_786_617)">
<path fill-rule="evenodd" clip-rule="evenodd" d="M24.3254 46.5196C26.7738 46.5196 29.2248 46.5196 31.6658 46.5196C32.3108 46.5196 32.755 46.8907 32.8698 47.523C32.8773 47.5925 32.8773 47.6918 32.8773 47.7663C32.8773 52.9977 32.8773 58.2434 32.8773 63.4645C32.8773 64.2087 32.3958 64.7349 31.703 64.7349C26.7737 64.7349 21.8604 64.7349 16.9199 64.7349C16.2324 64.7349 15.7644 64.2161 15.7644 63.4645C15.7644 58.2621 15.7668 53.068 15.7644 47.8656C15.742 47.0595 16.2668 46.498 17.0139 46.5054C19.4512 46.5273 21.8843 46.5196 24.3253 46.5196L24.3254 46.5196ZM30.3675 52.4789C29.9606 53.3403 29.3367 53.9294 28.5662 54.3871C28.4348 54.4625 28.3766 54.4833 28.334 54.3013C28.1757 53.7825 27.9958 53.2711 27.8197 52.7739C27.4643 51.7221 27.1426 50.6568 26.7573 49.6103C26.5431 49.0854 26.1736 48.7354 25.6629 48.5882C24.9806 48.3844 24.285 48.3844 23.5811 48.4539C22.6441 48.5592 22.0418 49.0085 21.7261 49.9984C21.1296 51.8901 20.4815 53.7772 19.8529 55.6554C19.3445 57.1626 18.8474 58.6555 18.3705 60.1618C18.2368 60.5553 18.1809 60.9703 18.2682 61.3772C18.4294 62.1693 19.1844 62.8053 19.971 62.8351C20.8595 62.883 21.4887 62.4343 21.7402 61.5802C21.8999 61.0667 22.0768 60.5419 22.1896 60.0231C22.2642 59.6296 22.465 59.3773 22.7644 59.1877C22.7942 59.1319 22.848 59.1132 22.9144 59.0758C23.8111 58.4517 24.8174 58.2831 25.8745 58.2434C25.9999 58.2434 25.9999 58.3389 26.0163 58.4309C26.3 59.4827 26.568 60.515 26.8862 61.5586C27.0923 62.2947 27.5521 62.7016 28.2827 62.8143C29.3801 62.9957 30.5926 62.014 30.3864 60.6899C30.3416 60.4852 30.2923 60.2395 30.2363 60.0365C29.9183 59.1266 29.613 58.192 29.3127 57.2879C29.2829 57.1565 29.2829 57.0446 29.365 56.9535C29.6964 56.5945 29.9077 56.1884 30.0891 55.7255C30.4638 54.681 30.3974 53.5868 30.3705 52.4789" fill="#E82E2D"/>
<path fill-rule="evenodd" clip-rule="evenodd" d="M67.2683 53.0969C67.8222 52.8776 68.3515 52.7111 68.9329 52.7172C69.5212 52.7172 69.8615 53.0754 69.8346 53.7129C69.8346 54.2049 69.6793 54.681 69.5696 55.1366C69.5696 55.1843 69.5323 55.2403 69.5696 55.3128C69.8615 54.8685 70.1496 54.4624 70.49 54.0982C70.9178 53.601 71.3702 53.1591 71.9292 52.8723C72.2241 52.7172 72.5369 52.6176 72.8452 52.6261C73.5991 52.6529 73.9739 53.0969 73.9873 53.8944C74.0022 54.3444 73.8783 54.7863 73.7977 55.2274C73.7753 55.3051 73.7753 55.3828 73.7529 55.5427C73.9351 55.297 74.0664 55.0879 74.2217 54.8685C74.7323 54.1675 75.3107 53.483 76.0438 53.0253C76.4552 52.7657 76.8942 52.5992 77.3816 52.6477C78.0027 52.7172 78.326 53.097 78.3452 53.7772C78.3751 54.2883 78.2512 54.7721 78.1735 55.2754C77.9242 56.5034 77.6704 57.729 77.4756 58.9496C77.4233 59.3907 77.4233 59.8065 77.5278 60.2126C77.5801 60.4425 77.6696 60.6256 77.8436 60.8017C77.2762 61.1733 76.6685 61.4385 75.982 61.2913C75.4803 61.1733 75.2101 60.7883 75.1601 60.1992C75.1227 59.6027 75.2452 59.0139 75.3437 58.4308C75.5848 57.2476 75.8177 56.0973 76.0432 54.9327C76.0656 54.8498 76.0656 54.7863 76.0656 54.7163C76.0432 54.6386 75.9909 54.6125 75.9081 54.6647C75.7871 54.7087 75.6856 54.7937 75.6057 54.9117C74.8615 55.8158 74.2747 56.8407 73.7298 57.8844C73.4596 58.4121 73.2185 58.9712 73.002 59.5116C72.8228 59.9962 72.64 60.4994 72.905 60.9922C72.9572 61.0667 72.8826 61.0667 72.8452 61.1033C72.3503 61.2913 71.8382 61.4117 71.2823 61.2995C70.7978 61.1868 70.5627 60.7583 70.653 60.1776C70.768 59.4424 70.9718 58.7405 71.1136 58.024C71.3495 57.0446 71.5525 56.0831 71.6839 55.0879C71.7138 54.9409 71.828 54.7513 71.6541 54.6647C71.5204 54.5902 71.3943 54.7648 71.3002 54.8685C70.6664 55.5703 70.1984 56.383 69.7512 57.2184C69.3608 57.9494 69.0264 58.6771 68.7002 59.4424C68.48 59.9454 68.3277 60.4426 68.5815 60.9922C68.6338 61.0667 68.5762 61.0667 68.5367 61.1033C68.0254 61.2913 67.4931 61.4251 66.9848 61.2913C66.3563 61.1444 66.1068 60.633 66.2943 59.9051C66.578 58.7458 66.8721 57.6253 67.1212 56.4823C67.2944 55.6254 67.4363 54.7648 67.493 53.8733C67.5079 53.6218 67.5602 53.3008 67.2683 53.0969Z" fill="#E82E2D"/>
<path fill-rule="evenodd" clip-rule="evenodd" d="M46.9623 59.7012C46.9623 60.6756 46.2096 61.3608 45.4043 61.2913C44.7325 61.2347 44.3493 60.9145 44.1568 60.1992C44.0821 59.905 43.9724 59.6027 43.8843 59.2951C43.8619 59.1877 43.8246 59.1132 43.6857 59.1132C42.6721 59.1266 41.6679 59.1266 40.6625 59.1132C40.5154 59.1132 40.4856 59.1824 40.4453 59.287C40.3549 59.5953 40.2444 59.8834 40.1832 60.1776C39.9257 61.2347 39.0785 61.4251 38.4304 61.2429C37.6198 61.0048 37.1966 60.2395 37.4346 59.3512C37.6922 58.4308 38.0236 57.5425 38.3208 56.6377C38.8993 54.8685 39.5062 53.1238 40.06 51.3494C40.3325 50.4961 40.7931 50.0326 41.6546 49.9549C42.1264 49.9207 42.6237 49.9207 43.0977 50.0603C43.6247 50.1588 43.9725 50.5148 44.1569 51.0555C44.551 52.2408 44.9437 53.4261 45.3288 54.5901C45.8245 56.0831 46.3008 57.5202 46.7957 59.0057C46.8867 59.2735 46.9562 59.5603 46.9621 59.7012L46.9623 59.7012ZM41.1328 56.6377C41.7598 56.6377 42.3884 56.6377 43.0118 56.6377C43.1671 56.6646 43.191 56.6087 43.138 56.4346C42.9103 55.642 42.6721 54.8335 42.4362 54.0368C42.3691 53.7345 42.2735 53.4606 42.1877 53.1457H42.1503C41.8129 54.3013 41.4658 55.4658 41.133 56.6377" fill="#1560AA"/>
<path fill-rule="evenodd" clip-rule="evenodd" d="M65.1242 57.0632C65.1093 58.0455 65.169 59.0196 65.1092 59.988C64.9943 61.1233 63.9797 61.749 63.0854 61.2428C62.9309 61.1659 62.8264 61.0667 62.7331 60.9703C62.6733 60.8576 62.6203 60.871 62.524 60.9353C60.2277 62.2812 57.2761 60.718 56.9363 57.9404C56.7624 56.5034 57.0244 55.1842 57.916 54.0982C58.652 53.1717 59.6225 52.808 60.7175 52.7172C61.3625 52.6827 61.9752 52.8373 62.5428 53.1717C62.6204 53.2276 62.6764 53.2584 62.7496 53.1591C63.1795 52.7112 63.6826 52.6127 64.2291 52.8426C64.7718 53.033 65.0391 53.5225 65.1092 54.1272C65.1689 54.9812 65.1241 55.8382 65.1241 56.6938C65.1241 56.8407 65.1241 56.9534 65.1241 57.0633L65.1242 57.0632ZM61.0646 59.2869C61.673 59.2869 61.985 59.0347 62.1568 58.4121C62.3359 57.877 62.3359 57.3176 62.3046 56.7496C62.2822 56.3085 62.2374 55.915 62.0306 55.5082C61.8895 55.1924 61.673 54.9886 61.3304 54.9327C60.6496 54.7937 60.0666 55.1366 59.8307 55.8642C59.5716 56.6719 59.5716 57.5201 59.8307 58.3555C60.021 58.9846 60.4569 59.2869 61.0646 59.2869Z" fill="#1161AB"/>
<path fill-rule="evenodd" clip-rule="evenodd" d="M87.8041 58.5159C87.4189 59.0407 87.0733 59.5953 86.6425 60.0575C86.1633 60.6256 85.6415 61.1309 84.9241 61.286C84.6031 61.3555 84.3083 61.3608 84.0148 61.2995C83.3154 61.1517 82.9682 60.6329 82.8669 59.9453C82.6526 58.7892 82.8295 57.6813 83.2043 56.6161C83.6022 55.4658 84.2419 54.4624 85.1228 53.6779C86.1986 52.7172 87.3912 52.5431 88.7133 53.1238C88.773 53.1457 88.8656 53.2584 88.882 53.0969C88.9626 52.5618 89.0858 52.0296 89.0343 51.4755C88.997 51.1121 88.997 51.1121 89.3426 50.9383C89.736 50.7479 90.1317 50.6568 90.5788 50.6776C91.2424 50.7263 91.5821 51.1592 91.4621 51.8421C91.315 52.6342 91.1224 53.4261 90.9597 54.1967C90.6543 55.6074 90.3617 56.9884 90.1804 58.4121C90.0863 59.1877 90.0863 59.988 90.4208 60.7106C90.4656 60.7883 90.4282 60.8144 90.3685 60.8576C89.7982 61.3348 89.1482 61.5025 88.4577 61.222C87.9867 61.0129 87.7724 60.5768 87.7321 60.0522C87.6873 59.555 87.7694 59.0347 87.7993 58.5159L87.8041 58.5159ZM85.2346 58.4308C85.2271 58.6286 85.2346 58.8369 85.2645 59.0347C85.3242 59.4257 85.519 59.4982 85.8019 59.2527C86.0908 59.0347 86.2834 58.7331 86.485 58.4308C87.1374 57.5475 87.6165 56.56 88.1593 55.642C88.5266 55.0373 88.499 54.9812 87.9324 54.5901C87.9249 54.5691 87.9025 54.5527 87.8951 54.5348C87.2635 54.1056 86.7334 54.2048 86.2834 54.8335C86.1983 54.9327 86.1423 55.0373 86.0908 55.1574C85.6257 56.1884 85.3071 57.2663 85.2346 58.4308Z" fill="#E82E2D"/>
<path fill-rule="evenodd" clip-rule="evenodd" d="M55.1711 57.5976C55.1711 58.2831 55.1711 59.0347 55.1711 59.7365C55.1711 59.8834 55.1711 60.023 55.1562 60.1618C55.0151 60.9353 54.4896 61.3556 53.7565 61.2913C52.9593 61.2347 52.4837 60.6972 52.4695 59.8626C52.4396 59.1877 52.4695 58.4867 52.4471 57.794C52.4471 56.9534 52.4471 56.0973 52.4695 55.2627C52.4695 55.1013 52.4471 55.0239 52.2664 54.9975C51.9104 54.9678 51.6185 54.8124 51.4074 54.4832C51.0708 53.8733 51.4074 53.1718 52.0823 53.033C52.4458 52.9626 52.4697 52.9626 52.4458 52.5618C52.4458 52.2327 52.4458 51.9035 52.513 51.6032C52.6631 50.8517 53.096 50.3484 53.7573 50.0811C54.5895 49.7645 55.4032 49.7788 56.2513 50.0603C56.8029 50.2201 57.1076 50.6567 57.0726 51.1971C57.0502 51.6943 56.7703 51.9811 56.2939 51.9682C56.0774 51.9682 55.8773 51.9384 55.6758 51.9682C55.3518 51.9946 55.1995 52.1713 55.1779 52.5276C55.1629 52.9903 55.1629 52.9977 55.5929 52.9903C55.7751 52.9903 55.9759 52.9976 56.1573 53.033C56.5962 53.1238 56.8963 53.4607 56.9181 53.9587C56.948 54.4348 56.7225 54.7648 56.2813 54.9328C55.976 55.0373 55.6759 55.0239 55.363 55.0239C55.2077 54.9975 55.1779 55.0537 55.1779 55.2193C55.1779 56.0143 55.1779 56.7983 55.1779 57.5976" fill="#1260AA"/>
<path fill-rule="evenodd" clip-rule="evenodd" d="M47.8737 55.5993C47.8737 54.1967 47.8662 52.808 47.8737 51.4054C47.8737 50.6567 48.3156 50.0603 48.9044 49.9073C49.7661 49.666 50.4863 50.2201 50.6356 51.1592C50.6506 51.3285 50.673 51.4921 50.673 51.6735C50.673 54.2794 50.673 56.881 50.673 59.4826C50.673 59.7012 50.6506 59.9237 50.5901 60.1426C50.3998 60.8844 49.9026 61.3205 49.2122 61.2994C48.5531 61.2779 48.0498 60.8091 47.911 60.0575C47.8662 59.8492 47.8662 59.6027 47.8662 59.3997C47.8662 58.1306 47.8662 56.846 47.8662 55.5993L47.8737 55.5993Z" fill="#1560AA"/>
<path fill-rule="evenodd" clip-rule="evenodd" d="M94.4864 60.7665C93.8818 61.222 93.2471 61.4251 92.5464 61.2995C92.0163 61.222 91.7005 60.8017 91.6736 60.1918C91.6064 59.5603 91.7729 58.9444 91.9013 58.3389C92.1342 57.1699 92.4283 56.027 92.6209 54.8498C92.7008 54.4221 92.7441 53.9644 92.6508 53.5225C92.6508 53.4606 92.6433 53.3919 92.6135 53.3403C92.5007 53.0464 92.5007 53.0464 92.8083 52.9627C93.3361 52.8081 93.8712 52.6611 94.4245 52.7172C95.0881 52.8426 95.3477 53.2584 95.1769 53.9294C94.9544 54.7937 94.717 55.6554 94.5341 56.531C94.3318 57.4164 94.1519 58.2831 94.0579 59.1959C94.0525 59.4423 94.0525 59.6804 94.0728 59.905C94.1325 60.2395 94.2176 60.5337 94.4849 60.7665" fill="#E82E2D"/>
<path fill-rule="evenodd" clip-rule="evenodd" d="M80.003 54.1272C80.003 53.7129 79.9656 53.4396 79.8208 53.1665C79.791 53.097 79.8059 53.068 79.8805 53.033C80.5233 52.8215 81.1756 52.6342 81.858 52.7738C82.3746 52.8723 82.6067 53.271 82.4657 53.8517C82.3104 54.6125 82.1103 55.3312 81.9252 56.0831C81.6975 57.0632 81.4863 58.0882 81.3631 59.0916C81.3258 59.4982 81.3407 59.905 81.4624 60.3037C81.4997 60.3814 81.5221 60.4507 81.5639 60.5337C81.6311 60.6195 81.7431 60.718 81.7214 60.7583C81.6766 60.9063 81.5422 60.9487 81.4512 60.9921C81.0018 61.2429 80.5547 61.3772 80.0514 61.3348C79.3213 61.2563 78.9549 60.8368 78.9414 60.0365C78.9388 59.4423 79.0863 58.8459 79.2035 58.2433C79.4289 57.0848 79.7469 55.9419 79.9395 54.7647C79.9694 54.5259 79.9843 54.2533 80.0067 54.1272" fill="#E82E2D"/>
<path fill-rule="evenodd" clip-rule="evenodd" d="M82.069 49.9073C82.1064 49.9073 82.1549 49.9073 82.2116 49.9073C82.9096 49.9549 83.1829 50.3976 83.0007 51.1121C82.9096 51.4621 82.7252 51.6735 82.399 51.7781C82.0048 51.89 81.6278 51.9946 81.2105 51.9458C80.6484 51.8421 80.4879 51.6309 80.6215 51.0336C80.6961 50.7903 80.7529 50.544 80.6215 50.2849C80.5618 50.1938 80.6961 50.2072 80.7342 50.1938C81.1754 49.9984 81.609 49.9125 82.0688 49.9073" fill="#E92D2E"/>
<path fill-rule="evenodd" clip-rule="evenodd" d="M93.3008 50.2201C93.9055 49.9984 94.5154 49.8088 95.1419 49.9476C95.6428 50.0326 95.8511 50.4237 95.7309 50.9567C95.6562 51.3794 95.4659 51.687 95.0135 51.7907C94.6231 51.8982 94.2379 51.9946 93.834 51.9385C93.3599 51.8205 93.2017 51.6032 93.336 51.1068C93.3435 50.9994 93.3659 50.8867 93.3958 50.7829C93.4405 50.5999 93.4182 50.4187 93.2995 50.2201" fill="#E92D2E"/>
<path fill-rule="evenodd" clip-rule="evenodd" d="M30.3676 52.4789C30.3974 53.5868 30.4609 54.681 30.0861 55.7254C29.9047 56.1884 29.6935 56.5945 29.362 56.9534C29.2836 57.0445 29.2836 57.1565 29.3098 57.2879C29.6099 58.1919 29.9152 59.1266 30.2333 60.0364C30.2856 60.2395 30.3356 60.4852 30.3834 60.6898C30.5894 62.0139 29.3772 62.9957 28.2798 62.8142C27.549 62.7015 27.0892 62.2947 26.8833 61.5586C26.5653 60.5149 26.2973 59.4826 26.0135 58.4308C25.9985 58.3389 25.9985 58.2433 25.8716 58.2433C24.8145 58.2831 23.8082 58.4516 22.9115 59.0757C22.8443 59.1131 22.7891 59.1318 22.7615 59.1877C22.4621 59.3773 22.2583 59.6296 22.1867 60.023C22.074 60.5418 21.897 61.0667 21.7373 61.5802C21.4857 62.4342 20.8566 62.883 19.9681 62.835C19.1815 62.8053 18.4267 62.1693 18.2653 61.3771C18.178 60.9703 18.2355 60.5552 18.3676 60.1618C18.8446 58.6554 19.3417 57.1625 19.85 55.6554C20.4785 53.7772 21.1267 51.89 21.7232 49.9984C22.0389 49.0085 22.6412 48.5592 23.5782 48.4538C24.2822 48.3843 24.9779 48.3843 25.66 48.5882C26.1706 48.7354 26.5403 49.0854 26.7544 49.6102C27.1396 50.6568 27.4614 51.722 27.8168 52.7738C27.993 53.271 28.1729 53.7824 28.3311 54.3012C28.3759 54.4832 28.4319 54.4624 28.5633 54.3871C29.3338 53.9294 29.958 53.3403 30.3646 52.4789L30.3676 52.4789ZM23.0617 56.6853C23.694 56.0973 24.3732 55.7254 25.0982 55.4739C25.2565 55.4389 25.1654 55.3312 25.143 55.2627C24.8915 54.3921 24.6563 53.5307 24.3936 52.6685C24.3861 52.5916 24.3861 52.5089 24.2928 52.4438C23.8912 53.8464 23.4916 55.2274 23.0611 56.6853" fill="white"/>
<path fill-rule="evenodd" clip-rule="evenodd" d="M23.0615 56.6853C23.4923 55.2274 23.8916 53.8464 24.2932 52.4438C24.3843 52.5089 24.3843 52.5916 24.394 52.6685C24.6568 53.5307 24.8919 54.3921 25.1435 55.2627C25.1659 55.3312 25.2562 55.4389 25.0987 55.4739C24.3739 55.7254 23.6946 56.0973 23.0623 56.6853" fill="#E92D2E"/>
</g>
</g>
<rect x="1" y="1" width="110" height="110" rx="9" stroke="black" stroke-opacity="0.1" stroke-width="2"/>
<defs>
<clipPath id="clip0_786_617">
<rect x="2" y="2" width="108" height="108" rx="8" fill="white"/>
</clipPath>
<clipPath id="clip1_786_617">
<rect width="80" height="18.2296" fill="white" transform="translate(15.7637 46.5053)"/>
</clipPath>
</defs>
</svg>
