<svg width="112" height="112" viewBox="0 0 112 112" fill="none" xmlns="http://www.w3.org/2000/svg">
<g clip-path="url(#clip0_786_520)">
<rect x="2" y="2" width="108" height="108" rx="8" fill="white"/>
<g clip-path="url(#clip1_786_520)">
<path fill-rule="evenodd" clip-rule="evenodd" d="M22.1541 47.295C22.3839 47.6528 23.331 50.8646 23.4702 51.4911L20.8719 51.4685L22.1541 47.295ZM30.6791 43.4372C29.4212 43.8079 29.426 45.1257 29.426 46.526C29.426 48.8022 29.3338 53.0922 29.4293 55.1045C29.541 57.4745 32.1749 57.7173 32.8484 55.8589C33.1252 55.0948 33.0021 50.5862 33.0021 49.5987C33.0021 48.2194 33.0669 46.675 32.9941 45.3151C32.9277 44.0767 32.0826 43.0228 30.6774 43.4356L30.6791 43.4372ZM35.2686 47.1315C33.2709 47.1428 33.2272 49.4028 35.2686 49.5501V54.1736C35.2686 54.9215 35.1795 55.5869 35.5017 56.194C36.1428 57.4049 38.0045 57.2899 38.5209 56.2458C39.0017 55.2744 38.5387 51.3875 38.7572 49.5517C39.8387 49.5517 40.9832 49.5145 40.9508 48.3165C40.9201 47.1137 39.8581 47.1347 38.7362 47.1347C38.7362 46.3852 38.6536 45.9513 39.4485 45.8785C40.1414 45.8137 40.6789 46.0404 40.9913 45.4981C41.5595 44.5089 40.7598 43.6169 39.3643 43.4146C38.1307 43.2365 36.9214 43.489 36.1266 44.0637C35.2216 44.7178 35.2686 46.0873 35.2686 47.1347V47.1315ZM45.9159 49.4433C47.3519 49.1373 47.7339 50.4567 47.8116 51.6692C47.8958 52.9708 47.7533 54.5201 46.4599 54.635C44.9673 54.7677 44.4962 53.6685 44.4298 52.3168C44.3586 50.8857 44.7001 49.7023 45.9159 49.4433ZM48.2422 56.5582C47.4199 56.8286 47.2596 57.2867 45.5274 57.1588C44.5787 57.0876 43.7304 56.7881 43.0521 56.3623C41.8299 55.595 40.8343 54.0797 40.9039 51.9574C40.9735 49.8609 41.9659 48.3991 43.125 47.6285C43.7855 47.1898 44.65 46.8968 45.5954 46.8207C47.3438 46.6782 47.6708 47.274 48.3378 47.4116C49.0549 46.3415 50.7402 46.7349 51.2032 47.8519L51.1319 56.283C50.6495 57.1685 49.5972 57.3903 48.8234 57.0196C48.5061 56.8674 48.5013 56.746 48.239 56.5615L48.2422 56.5582ZM20.0366 54.478L24.325 54.4553C24.503 55.2226 24.8123 56.33 25.2817 56.6942C26.0248 57.2689 27.1127 57.1248 27.7295 56.5258C28.5098 55.7666 28.3365 55.0575 27.9674 54.0069C27.6793 53.1845 27.4041 52.3993 27.1127 51.5769C26.5396 49.9597 25.973 48.3489 25.4193 46.7689C24.6989 44.7161 24.7281 43.4405 22.1589 43.4534C21.0856 43.4583 20.2632 43.6687 19.8504 44.3616C19.4457 45.0399 16.9737 52.4009 16.399 53.9874C16.0493 54.9539 15.9003 55.7973 16.5689 56.4757C17.3509 57.2705 19.1154 57.4842 19.6529 55.7391C19.784 55.3149 19.9087 54.9167 20.0366 54.478Z" fill="#005AAB"/>
<path fill-rule="evenodd" clip-rule="evenodd" d="M16.085 64.8193L16.0979 66.231H80.6117C84.1846 66.231 87.7607 66.2488 91.3319 66.231C92.7485 66.2245 94.2508 65.5851 94.9987 64.5571C96.0801 63.0726 96.085 62.4671 96.085 60.2784C95.2901 60.1537 27.7765 60.2444 20.8007 60.246C18.2543 60.246 16.085 62.268 16.085 64.8193Z" fill="#ED1C24"/>
<path fill-rule="evenodd" clip-rule="evenodd" d="M90.1127 44.7485C90.3151 45.2439 90.4252 45.0723 90.4009 45.885C90.3879 46.3334 90.3135 46.7786 90.2293 47.2157C90.082 47.996 89.8537 48.7892 89.6724 49.5809C88.9617 52.6842 87.461 57.7189 92.2027 57.1167C93.7924 56.9144 95.6379 56.0062 94.6132 54.2562C93.93 54.6496 91.8255 56.1179 91.8255 53.8871C91.8255 52.5078 92.3338 51.1754 92.5248 49.8658C94.0272 49.8625 95.9844 50.1944 96.0815 47.9118C95.0147 48.1271 94.0806 48.221 92.9377 48.1676C93.0753 47.2966 93.8734 45.3993 93.3942 44.742C92.7774 43.897 90.9885 44.5316 90.1111 44.7469L90.1127 44.7485ZM57.0359 49.848C57.1735 49.0369 57.7676 47.5443 57.0359 47.0198C56.3624 46.5374 54.7937 46.8773 54.1251 47.2545C54.5331 47.588 54.444 48.1433 54.3615 48.7989C54.1866 50.1912 53.7479 52.1322 53.395 53.4629C53.2072 54.1704 52.5839 55.8216 52.9369 56.4724C53.4128 57.3515 54.8568 57.1005 55.8087 56.7929C55.7197 56.0645 55.3393 56.0175 56.1082 54.4666C56.4498 53.7802 56.7704 53.1327 57.1119 52.4689C57.4616 51.789 57.8631 51.1803 58.2452 50.6007C58.4475 50.2932 58.6887 49.9807 58.8878 49.7427C59.0174 49.5857 59.121 49.5323 59.2521 49.3931C59.4399 49.1939 59.414 49.134 59.7475 49.1C59.8656 49.9564 58.9542 53.3528 58.7146 54.3614C58.5301 55.1401 58.0995 56.2555 58.747 56.814C59.3023 57.2916 60.7366 57.0941 61.3145 56.746C60.9584 55.8151 61.2336 55.2421 61.6318 54.4213C61.9734 53.7203 62.2762 53.0938 62.6485 52.4349C63.0791 51.6708 64.5604 49.1357 65.2452 49.1049C65.3634 49.4352 64.3661 53.764 64.2269 54.5136C64.0343 55.5626 64.0893 56.5971 64.9554 56.9662C65.9979 57.4097 66.8446 56.7703 67.5521 56.4951C67.4452 56.249 67.5683 56.4951 67.4258 56.283C67.3109 56.113 67.3918 56.283 67.2817 56.0661C66.7766 55.0688 67.2558 53.3043 67.4711 52.2585C67.6751 51.2726 68.3194 48.7601 68.198 47.8567C67.9762 46.2023 66.1307 46.5455 64.8987 47.397C64.3354 47.7855 63.976 48.208 63.568 48.6403C63.0548 49.1826 62.6712 49.8091 62.3895 50.1086C62.4656 49.2538 62.8865 48.3197 62.5238 47.4682C62.1936 46.696 61.3259 46.5098 60.3497 46.8482C59.1566 47.2626 58.4928 48.1093 57.7482 48.9624C57.6122 49.1179 57.5523 49.2037 57.4033 49.4044L57.0359 49.8528V49.848ZM76.0366 49.5533C75.8359 49.8107 74.7933 51.8457 74.0697 52.8461C73.7507 53.2865 71.7239 56.3834 71.9068 53.5973C71.991 52.3151 72.7325 48.1109 74.5586 48.4315C75.1462 48.5351 75.8731 49.1729 76.035 49.5517L76.0366 49.5533ZM75.1106 53.7446C74.8694 53.9437 74.4809 54.6382 74.2348 54.9393C73.6067 55.7067 73.7297 55.4898 73.2829 55.9884C72.7406 56.5938 71.664 57.3191 70.424 57.1264C68.1737 56.7768 68.6141 53.0792 69.3458 51.2629C70.4434 48.5367 72.8846 45.9578 75.7776 46.8547C75.954 46.9097 76.4089 47.1396 76.4883 47.1525C76.7554 47.1962 76.9626 46.9567 77.2491 46.8789C77.9469 46.6863 79.2679 46.9065 79.7503 47.2383L78.9894 49.2587C78.5086 50.727 78.2205 52.4705 78.1606 54.0263C78.099 55.6322 78.2723 55.5092 78.5491 56.4805C77.908 57.0471 76.6631 57.3855 75.7047 56.7929C74.8435 56.262 75.0798 54.8843 75.1138 53.743L75.1106 53.7446ZM84.1375 49.9257C84.8708 48.9317 86.2177 46.9324 87.5776 46.709C89.8262 46.3399 88.2931 49.848 87.1146 50.5813C86.896 50.2899 86.6742 49.9467 86.1513 50.1297C85.5038 50.3563 84.4709 51.9768 84.1472 52.5628C83.7845 53.2201 83.485 53.8175 83.1856 54.5298C82.4943 56.1826 82.8326 55.9447 82.9395 56.7849C82.02 57.1022 80.4885 57.3871 79.9478 56.5485C79.5641 55.9544 80.2117 54.1493 80.3962 53.4516C80.665 52.4301 80.9159 51.3762 81.1344 50.3336C81.4129 49.011 81.6379 48.2825 81.2073 47.193C82.0248 46.9599 83.3717 46.4597 84.1391 47.0667C84.9518 47.7094 84.152 49.0337 84.1358 49.9241L84.1375 49.9257Z" fill="#ED1C24"/>
<path fill-rule="evenodd" clip-rule="evenodd" d="M16.085 68.9637H89.4006C91.2299 68.9637 92.4991 69.1223 93.9011 68.2465C94.6603 67.7722 95.9684 66.3961 95.9733 65.1253C95.7207 65.2969 95.5912 65.5478 95.3467 65.7631C93.0803 67.7705 91.1053 67.3448 87.8999 67.3448H16.0898L16.085 68.9637Z" fill="#FFD503"/>
</g>
</g>
<rect x="1" y="1" width="110" height="110" rx="9" stroke="black" stroke-opacity="0.1" stroke-width="2"/>
<defs>
<clipPath id="clip0_786_520">
<rect x="2" y="2" width="108" height="108" rx="8" fill="white"/>
</clipPath>
<clipPath id="clip1_786_520">
<rect width="80" height="25.6301" fill="white" transform="translate(16.085 43.345)"/>
</clipPath>
</defs>
</svg>
