<svg width="112" height="112" viewBox="0 0 112 112" fill="none" xmlns="http://www.w3.org/2000/svg">
<g clip-path="url(#clip0_786_572)">
<rect x="2" y="2" width="108" height="108" rx="8" fill="white"/>
<g clip-path="url(#clip1_786_572)">
<path d="M17.6159 74.7657C16.7206 74.6156 16.1384 74.0124 16.0208 73.1131C16.0033 72.9787 15.9966 66.9295 16.0017 55.8069L16.0095 38.7073L16.0716 38.4883C16.2788 37.7586 16.7476 37.2811 17.4607 37.0734L17.6797 37.0097L55.8218 37.002C83.1474 36.9964 94.03 37.0027 94.1967 37.024C94.4746 37.0595 94.8229 37.174 95.0386 37.3009C95.1248 37.3515 95.2883 37.486 95.402 37.5997C95.7327 37.9304 95.9148 38.3354 95.9757 38.875C95.9978 39.0716 96.0039 43.7927 95.9977 56.1629C95.9898 72.3431 95.987 73.1891 95.9409 73.3583C95.9142 73.4562 95.8381 73.6483 95.7717 73.7853C95.5149 74.3146 95.0325 74.6464 94.3401 74.7699C94.02 74.8269 17.9565 74.8228 17.6159 74.7657Z" fill="#019EC4"/>
<path d="M94.3216 73.4807C94.4631 73.3937 94.6081 73.2068 94.6678 73.0346C94.696 72.9534 94.7041 69.6306 94.7098 55.9033C94.716 40.7693 94.7121 38.8568 94.6753 38.7302C94.6254 38.5585 94.5294 38.4382 94.3777 38.357L94.2647 38.2966H56.0678H17.8709L17.7262 38.362C17.5409 38.4457 17.3763 38.6305 17.3227 38.815C17.2869 38.9381 17.2829 40.9944 17.289 55.9991L17.2959 73.0434L17.3589 73.18C17.4417 73.3596 17.5135 73.4341 17.6793 73.5123L17.8162 73.5769L56.0015 73.5703L94.1869 73.5637L94.3216 73.4807Z" fill="white"/>
<path d="M55.726 56.358C55.6012 56.3306 55.4794 56.2657 55.411 56.1902C55.3597 56.1336 55.3558 56.0849 55.3482 55.4083L55.3401 54.6868L54.6179 54.6787C53.8984 54.6706 53.8955 54.6703 53.8258 54.6048C53.7096 54.4956 53.6587 54.3195 53.6587 54.0271C53.6587 53.7306 53.7144 53.5424 53.8288 53.4524C53.8949 53.4004 53.939 53.3973 54.6207 53.3973H55.3426V52.7119C55.3426 51.8998 55.3473 51.8801 55.564 51.7721C55.6947 51.707 55.7384 51.6999 55.9983 51.7018C56.2991 51.704 56.4008 51.7277 56.5356 51.8275L56.6159 51.8869L56.6296 52.6353L56.6433 53.3837L57.3918 53.3973L58.1404 53.411L58.2055 53.4868C58.2967 53.5929 58.3337 53.7542 58.3331 54.0424C58.3325 54.3401 58.2918 54.4912 58.1846 54.5939L58.1046 54.6706L57.3671 54.6787L56.6296 54.6868V55.4074C56.6296 56.2252 56.6305 56.2216 56.4042 56.3135C56.2748 56.366 55.8803 56.3919 55.726 56.358Z" fill="#F27D2E"/>
<path d="M80.6152 60.8208C80.3525 60.7354 80.1408 60.537 80.0036 60.2476L79.917 60.0647V53.9723V47.88L79.9906 47.7229C80.0802 47.5318 80.2803 47.3259 80.4646 47.2354C80.5776 47.1798 80.6421 47.1681 80.8343 47.1683C81.1161 47.1686 81.2586 47.225 81.4641 47.4172C81.6831 47.6221 82.3295 48.5697 85.8235 53.808C86.7425 55.186 87.5115 56.3315 87.5323 56.3535C87.5644 56.3876 87.5701 55.7801 87.5701 52.298C87.5701 49.6421 87.5798 48.1505 87.5979 48.0549C87.6592 47.7293 87.8848 47.4282 88.1664 47.2962C88.3767 47.1977 88.7197 47.1917 88.9186 47.2832C89.2039 47.4143 89.454 47.7408 89.5148 48.0613C89.5538 48.2673 89.551 59.7151 89.5118 59.9296C89.466 60.1807 89.3441 60.409 89.172 60.5663C88.9757 60.7458 88.8181 60.7989 88.5199 60.7862C88.2413 60.7743 88.0471 60.6845 87.8189 60.4624C87.6556 60.3035 87.6384 60.2784 86.5444 58.5998C86.1666 58.02 85.6667 57.253 85.4337 56.8954C85.2006 56.5378 84.8796 56.0449 84.7203 55.8001C84.4556 55.3933 83.563 54.0222 82.5231 52.4253C82.2976 52.0789 82.0563 51.7093 81.987 51.6038L81.8611 51.4122L81.8474 55.711C81.8324 60.4161 81.8452 60.0686 81.6762 60.3565C81.4958 60.6639 81.2306 60.8256 80.889 60.8364C80.7761 60.84 80.6529 60.833 80.6152 60.8208Z" fill="#019EC4"/>
<path d="M70.635 60.7957C70.3402 60.6933 70.1351 60.4941 70.0131 60.1919C69.9522 60.041 69.9505 60.01 69.942 58.901C69.9333 57.7531 69.9579 57.1735 70.0882 55.4625C70.1909 54.1139 70.6472 52.4921 71.2784 51.2325C72.0266 49.7395 73.0839 48.5664 74.2951 47.8855C74.9308 47.5281 75.4714 47.3511 76.3166 47.2235C76.9473 47.1283 77.9487 47.1441 78.2753 47.2544C78.6413 47.378 78.8959 47.6812 78.9724 48.0843C79.0103 48.2843 79.0104 59.7687 78.9724 59.972C78.9106 60.3031 78.6936 60.6108 78.421 60.7539C78.2918 60.8217 78.2449 60.8309 78.0279 60.831C77.7339 60.8311 77.6089 60.7832 77.3921 60.5873C77.2298 60.4407 77.0986 60.2005 77.056 59.972C77.0404 59.8882 77.0285 59.3348 77.0285 58.6917V57.559L74.4615 57.566L71.8945 57.573L71.8808 58.8195L71.8672 60.066L71.7779 60.2473C71.6651 60.4763 71.3977 60.7358 71.2079 60.8005C71.0395 60.8578 70.8083 60.8559 70.635 60.7957ZM77.0218 52.35L77.0288 49.3449L76.8849 49.3449C76.68 49.345 76.3212 49.4129 76.0027 49.5118C74.4569 49.9921 73.2221 51.3879 72.5516 53.4131C72.3567 54.0018 72.0999 55.0751 72.0999 55.3009V55.3696L74.5574 55.3624L77.0148 55.3551L77.0218 52.35Z" fill="#019EC4"/>
<path d="M60.5955 60.8069C60.3356 60.714 60.121 60.5188 59.9902 60.2563C59.8885 60.0522 59.8878 60.0126 59.8878 54.0315C59.8878 47.6258 59.8778 48.0294 60.0451 47.7219C60.1325 47.5615 60.3206 47.3858 60.5063 47.2913L60.6408 47.2228H62.4069C64.2862 47.2228 64.3692 47.2275 64.9044 47.3619C66.5058 47.764 67.9112 48.9702 68.7301 50.6455C69.0821 51.3655 69.298 52.0744 69.4223 52.9181C69.4723 53.2575 69.483 53.4525 69.4839 54.0408C69.4852 54.9535 69.4204 55.4859 69.2204 56.2039C68.7813 57.7798 67.7535 59.2129 66.5086 59.9849C65.7777 60.4381 64.9365 60.7291 64.1038 60.8168C63.6967 60.8596 60.7197 60.8512 60.5955 60.8069ZM64.3819 58.5513C65.1101 58.375 65.7009 58.0561 66.1894 57.5758C66.8489 56.9275 67.2563 56.1294 67.4488 55.1093C67.521 54.7265 67.5488 53.838 67.5016 53.4219C67.3537 52.1183 66.7611 50.957 65.8784 50.2407C65.4857 49.922 65.1445 49.7325 64.6925 49.5819C64.2404 49.4314 64.1451 49.4218 62.9614 49.4076L61.8593 49.3945V54.0127V58.6309L63.0024 58.6197C64.0452 58.6095 64.1664 58.6035 64.3819 58.5513Z" fill="#019EC4"/>
<path d="M43.1332 60.8021C42.7791 60.6728 42.5472 60.3583 42.4742 59.9082C42.4364 59.6753 42.4363 48.3113 42.4742 48.0443C42.5263 47.6764 42.7413 47.3699 43.0484 47.226C43.2214 47.1449 43.5835 47.1462 43.7651 47.2284C44.0359 47.3511 44.1178 47.4529 45.038 48.811C46.0021 50.2337 46.4025 50.8297 48.0458 53.2878C48.9469 54.6357 49.7837 55.8863 49.9053 56.067L50.1264 56.3956L50.1401 52.2063L50.1538 48.0169L50.2151 47.8663C50.3166 47.6168 50.4919 47.4198 50.7062 47.3143C50.8727 47.2323 50.9161 47.2229 51.1253 47.2229C51.3246 47.2229 51.381 47.2339 51.5126 47.2985C51.8011 47.4402 52.0262 47.7515 52.0838 48.0884C52.1049 48.2121 52.1114 49.976 52.1058 54.1093L52.0979 59.9552L52.0322 60.1195C51.9033 60.4421 51.6928 60.6701 51.4489 60.751C51.2341 60.8224 50.9078 60.7977 50.7017 60.6945C50.3988 60.5428 50.2734 60.3829 49.37 58.9967C48.9088 58.2889 48.2303 57.2478 47.8622 56.6831C47.1255 55.5527 47.1013 55.5155 46.347 54.3557C45.7507 53.4388 45.0052 52.294 44.6627 51.7693L44.431 51.4146L44.4173 55.7122C44.4025 60.3685 44.4132 60.0416 44.2661 60.326C44.1917 60.4698 43.9777 60.6806 43.8302 60.7553C43.653 60.8452 43.3135 60.8679 43.1332 60.8021Z" fill="#019EC4"/>
<path d="M33.2262 60.8053C32.8726 60.6948 32.6389 60.4409 32.5347 60.054C32.5167 59.9872 32.5049 59.513 32.5036 58.8008C32.5018 57.8387 32.5129 57.4841 32.5731 56.5873C32.6871 54.8894 32.6807 54.9462 32.8536 54.1229C33.5188 50.9564 35.2027 48.5594 37.4351 47.6012C37.9121 47.3965 38.5521 47.2496 39.2697 47.1801C39.685 47.1399 40.4659 47.1633 40.7185 47.2235C41.178 47.3331 41.4691 47.6534 41.5423 48.13C41.5621 48.2587 41.5688 50.1608 41.5636 54.1503L41.556 59.9825L41.4904 60.1468C41.3705 60.4469 41.1926 60.6582 40.9673 60.7683C40.7903 60.8548 40.4057 60.8565 40.2221 60.7717C40.0483 60.6914 39.8274 60.4797 39.742 60.3117C39.604 60.0401 39.5989 59.9839 39.5986 58.7298L39.5983 57.5593H37.0257H34.4531L34.445 58.812L34.4369 60.0647L34.3568 60.229C34.2466 60.4551 33.9605 60.7389 33.7817 60.7994C33.6225 60.8533 33.3877 60.8558 33.2262 60.8053ZM39.5915 52.346L39.5985 49.3368L39.3451 49.355C38.9086 49.3863 38.4824 49.5087 37.9965 49.7423C36.5138 50.455 35.4342 52.0098 34.8787 54.2325C34.7676 54.6767 34.6696 55.1717 34.6696 55.2882V55.3691L37.1271 55.3621L39.5846 55.3551L39.5915 52.346Z" fill="#019EC4"/>
<path d="M23.1529 60.8071C22.8998 60.726 22.6838 60.5186 22.546 60.2245L22.4712 60.0647L22.4628 54.1367C22.4565 49.6704 22.4624 48.1715 22.4866 48.058C22.5559 47.734 22.7811 47.4339 23.0564 47.2986L23.2105 47.2229H24.9766C26.8833 47.2229 26.9396 47.2263 27.5093 47.3744C28.4598 47.6216 29.257 48.091 30.016 48.8506C30.5861 49.4211 30.9192 49.8925 31.3039 50.6729C31.7696 51.6177 32.0169 52.6357 32.0589 53.7804C32.1348 55.85 31.4666 57.7049 30.1378 59.1132C29.4485 59.8438 28.5259 60.3916 27.5477 60.6512C26.8872 60.8265 26.8788 60.8271 24.9903 60.8355C23.6227 60.8416 23.242 60.8357 23.1529 60.8071ZM26.9138 58.562C28.5202 58.1847 29.6301 56.9851 29.9853 55.2419C30.0794 54.7801 30.1051 54.4364 30.0883 53.8629C30.064 53.0346 29.9231 52.4327 29.5896 51.7333C29.0006 50.4984 27.975 49.6753 26.7427 49.4487C26.6074 49.4238 26.2365 49.4134 25.4831 49.4134H24.4153L24.4083 54.0222L24.4014 58.6309L25.5583 58.6198C26.5239 58.6105 26.7481 58.6009 26.9138 58.562Z" fill="#019EC4"/>
<path d="M83.1291 68.6906C82.8736 68.6203 82.6892 68.4557 82.562 68.1845L82.4908 68.0326L82.4771 66.91L82.4634 65.7874L82.2649 65.7793L82.0664 65.7713V65.5124V65.2535H82.2718H82.4771V64.7058V64.1582H82.8331H83.189V64.7058V65.2535H83.5313H83.8736V65.5136V65.7737H83.5313H83.189L83.1895 66.821C83.1899 67.9651 83.1888 67.9568 83.3509 68.0661C83.4278 68.1179 83.4801 68.1285 83.6586 68.1285H83.8736V68.4297V68.7309L83.5655 68.7284C83.3961 68.7271 83.1997 68.7101 83.1291 68.6906Z" fill="#82BE42"/>
<path d="M65.7476 66.2376V63.7443L66.9318 63.7538C68.0848 63.7631 68.1207 63.765 68.292 63.8261C68.8454 64.0236 69.1472 64.4164 69.1887 64.9934C69.2221 65.4556 69.0154 65.8839 68.6579 66.0934L68.5395 66.1628L68.6974 66.2575C69.0271 66.4551 69.1976 66.7088 69.2548 67.0868C69.3535 67.739 69.0854 68.3076 68.5567 68.5672C68.2511 68.7173 68.1209 68.7299 66.877 68.7304L65.7476 68.7309V66.2376ZM67.8602 68.0481C68.2864 67.9783 68.5131 67.7167 68.5131 67.2948C68.5131 66.9607 68.3731 66.7371 68.0768 66.5982C67.9248 66.527 67.9225 66.5268 67.2125 66.5268H66.5005L66.4932 67.2656C66.4892 67.672 66.4919 68.0201 66.4992 68.0392C66.5154 68.0813 67.6133 68.0885 67.8602 68.0481ZM68.0613 65.7694C68.3324 65.6254 68.4415 65.4407 68.439 65.1303C68.4365 64.8105 68.3347 64.6468 68.052 64.5075L67.8709 64.4183H67.1857H66.5005L66.4932 65.1391L66.4859 65.8599L67.2051 65.851C67.9232 65.8422 67.9246 65.8421 68.0613 65.7694Z" fill="#82BE42"/>
<path d="M56.3008 66.2392V63.7475H56.6431H56.9853V64.6191C56.9853 65.0985 56.9933 65.4988 57.0031 65.5085C57.0129 65.5183 57.0678 65.4839 57.1251 65.4321C57.4623 65.1275 58.0663 65.0516 58.5098 65.258C58.6774 65.336 58.9274 65.5843 59.0087 65.7533C59.1434 66.0334 59.1478 66.0867 59.1481 67.4508L59.1484 68.7309H58.8082H58.468L58.4575 67.533C58.4458 66.1985 58.4432 66.1785 58.2576 65.9873C58.1043 65.8295 57.9914 65.7873 57.7246 65.788C57.5401 65.7884 57.4692 65.8007 57.3823 65.8471C57.2363 65.9251 57.1384 66.0324 57.0622 66.1981C57 66.3333 56.999 66.3503 56.99 67.533L56.9808 68.7309H56.6408H56.3008L56.3008 66.2392Z" fill="#82BE42"/>
<path d="M54.4848 68.6897C54.2316 68.6201 54.021 68.4219 53.9091 68.1482C53.8534 68.0118 53.8503 67.9547 53.8419 66.8895L53.8332 65.7737H53.6295H53.4258V65.5136V65.2535H53.6311H53.8365V64.7058V64.1582H54.1925H54.5484V64.7058V65.2535H54.8907H55.2329V65.5127V65.772L54.8975 65.7797L54.5621 65.7874L54.5551 66.8142C54.5488 67.7471 54.5525 67.8497 54.5962 67.9368C54.6642 68.0725 54.792 68.1284 55.0344 68.1284H55.2329V68.4296V68.7308L54.9249 68.7284C54.7555 68.7271 54.5574 68.7096 54.4848 68.6897Z" fill="#82BE42"/>
<path d="M52.0762 68.701C51.7436 68.6227 51.4975 68.348 51.4292 67.9786C51.4094 67.8715 51.3994 67.1334 51.3994 65.7824V63.7475H51.7554H52.1113V65.7883C52.1113 68.0102 52.108 67.9616 52.2651 68.0648C52.3179 68.0995 52.4129 68.119 52.5754 68.1285L52.8095 68.1422L52.8173 68.4365L52.8251 68.7309L52.5024 68.7281C52.325 68.7266 52.1332 68.7144 52.0762 68.701Z" fill="#82BE42"/>
<path d="M38.7222 66.2392V63.7475H39.0915H39.4608L39.468 64.8085L39.4752 65.8695L40.4951 65.8767L41.5151 65.8839V64.8157V63.7475H41.8847H42.2544V66.2392V68.7309H41.8847H41.5151V67.6353V66.5397L40.4951 66.5469L39.4752 66.5541L39.468 67.6425L39.4608 68.7309H39.0915H38.7222V66.2392Z" fill="#82BE42"/>
<path d="M32.6709 66.9511V65.1713H33.0269H33.3828V65.3522V65.533L33.4776 65.4498C33.8621 65.1122 34.4753 65.0431 34.956 65.2832C35.1054 65.3578 35.3243 65.5803 35.4061 65.7407C35.5392 66.0015 35.5459 66.0838 35.5459 67.4497V68.7309H35.2037H34.8614V67.627C34.8614 66.9523 34.8499 66.4599 34.8317 66.3606C34.7941 66.1548 34.6892 65.9849 34.5369 65.8832C34.2429 65.6869 33.7389 65.7597 33.5372 66.0276C33.3883 66.2253 33.3828 66.2794 33.3828 67.5545V68.7309H33.0269H32.6709V66.9511Z" fill="#82BE42"/>
<path d="M24.4014 66.2392V63.7475H25.9895H27.5776V64.0761V64.4046H26.3591H25.1407V65.1713V65.938H26.1812H27.2216V66.2803V66.6225H26.1812H25.1407V67.6767V68.7309H24.771H24.4014V66.2392Z" fill="#82BE42"/>
<path d="M79.2388 68.7555C79.0162 68.7312 78.7526 68.615 78.5927 68.4705C78.4595 68.3502 78.3001 68.0429 78.2607 67.8304C78.2451 67.7459 78.2334 67.1466 78.2334 66.4271V65.1713H78.5739H78.9143L78.9243 66.3693C78.9356 67.7204 78.938 67.7379 79.1433 67.9431C79.288 68.0878 79.4122 68.1361 79.6435 68.1374C79.9654 68.1394 80.1781 68.0158 80.3188 67.7452C80.3827 67.6221 80.3828 67.6203 80.391 66.3966L80.3991 65.1713H80.7538H81.1084V66.9511V68.7309H80.7525H80.3965V68.5652V68.3996L80.2174 68.5274C79.9381 68.7266 79.631 68.7982 79.2388 68.7555Z" fill="#82BE42"/>
<path d="M75.1117 68.7557C74.7762 68.7236 74.5467 68.6146 74.3629 68.3998C74.2048 68.2151 74.1447 68.0257 74.142 67.7035C74.1398 67.4468 74.1454 67.4175 74.2289 67.2479C74.3721 66.9568 74.6277 66.7705 74.9736 66.7049C75.0537 66.6897 75.3815 66.6773 75.7022 66.6773C76.3769 66.6773 76.336 66.6975 76.3036 66.3798C76.2563 65.9159 75.9882 65.7216 75.4367 65.7516C75.1694 65.7661 75.0091 65.8276 74.8399 65.9805L74.7254 66.0839L74.5694 65.9318C74.4836 65.8481 74.3793 65.749 74.3376 65.7114L74.2618 65.6432L74.4136 65.5045C74.7255 65.2194 75.067 65.1243 75.6807 65.1516C76.3069 65.1796 76.6857 65.3659 76.8734 65.7385C76.9925 65.975 77.001 66.0881 77.001 67.4453V68.7309H76.6587H76.3164V68.5985C76.3164 68.5257 76.3093 68.459 76.3006 68.4503C76.2918 68.4416 76.2152 68.4831 76.1302 68.5426C75.8713 68.724 75.5293 68.7955 75.1117 68.7557ZM75.9662 68.0946C76.1914 67.9915 76.2579 67.8784 76.2962 67.5334C76.3127 67.3844 76.3183 67.2418 76.3085 67.2164C76.2927 67.1753 76.2339 67.1702 75.7765 67.1703C75.4877 67.1703 75.2148 67.1836 75.154 67.2005C74.9343 67.2615 74.7838 67.5126 74.8223 67.7537C74.8733 68.0722 75.0745 68.1908 75.5369 68.1748C75.761 68.1671 75.84 68.1524 75.9662 68.0946Z" fill="#82BE42"/>
<path d="M71.6193 68.7547C70.9663 68.6975 70.5324 68.3268 70.3577 67.6767C70.3154 67.5195 70.3062 67.389 70.3067 66.9511C70.3072 66.4756 70.3139 66.3962 70.3682 66.2255C70.5934 65.5175 71.0869 65.143 71.7929 65.1444C72.3002 65.1454 72.6997 65.3373 72.9642 65.7071C73.1928 66.0268 73.277 66.3317 73.277 66.8401V67.1702H72.127C71.0498 67.1702 70.977 67.1732 70.9774 67.2181C70.9787 67.342 71.0645 67.6538 71.1266 67.7597C71.2967 68.0499 71.556 68.1697 71.9735 68.1508C72.2494 68.1384 72.434 68.0716 72.6304 67.9132C72.689 67.8659 72.7475 67.8273 72.7604 67.8273C72.7734 67.8273 72.8779 67.9166 72.9928 68.0256L73.2015 68.224L73.0478 68.3637C72.6951 68.6842 72.239 68.8091 71.6193 68.7547ZM72.5792 66.5203C72.5166 66.0199 72.239 65.7354 71.8121 65.7343C71.3487 65.7331 71.0852 65.9691 71.0069 66.4556C70.9914 66.5518 70.9852 66.6411 70.9931 66.6539C71.0011 66.6668 71.3656 66.6773 71.8032 66.6773H72.5988L72.5792 66.5203Z" fill="#82BE42"/>
<path d="M48.297 68.7565C47.7441 68.7066 47.4008 68.404 47.3194 67.8949C47.2505 67.4636 47.4042 67.0782 47.728 66.8704C47.9747 66.7121 48.0626 66.6964 48.7981 66.6792L49.469 66.6636L49.4651 66.4287C49.4621 66.2511 49.4474 66.1667 49.4047 66.083C49.2889 65.8561 49.0597 65.746 48.7042 65.7466C48.3864 65.7472 48.1811 65.8198 47.9859 66.0008L47.8992 66.0811L47.671 65.8583L47.4428 65.6354L47.5931 65.498C47.8979 65.2193 48.2098 65.1308 48.8118 65.1521C49.3885 65.1726 49.7351 65.3071 49.9545 65.5957C50.1627 65.8695 50.1672 65.9083 50.1672 67.4058V68.7309H49.8249H49.4827V68.5985C49.4827 68.5257 49.4748 68.4583 49.4652 68.4487C49.4556 68.4391 49.4094 68.4636 49.3625 68.5031C49.2303 68.6147 48.9706 68.7262 48.8012 68.7441C48.7167 68.753 48.6167 68.7638 48.5791 68.768C48.5414 68.7723 48.4145 68.7671 48.297 68.7565ZM49.0078 68.1424C49.3396 68.0439 49.4475 67.8833 49.474 67.4481L49.491 67.1701H48.9629C48.6312 67.1701 48.3941 67.1824 48.3251 67.203C48.0939 67.2723 47.9513 67.5075 47.9888 67.7578C48.0207 67.9704 48.148 68.1027 48.3737 68.1576C48.5185 68.1929 48.866 68.1845 49.0078 68.1424Z" fill="#82BE42"/>
<path d="M44.7981 68.7575C43.8704 68.6712 43.4242 68.0288 43.4672 66.8416C43.4898 66.2168 43.6195 65.86 43.9413 65.5372C44.2147 65.263 44.5283 65.1439 44.9769 65.1439C45.4277 65.1439 45.8223 65.3196 46.0798 65.6351C46.331 65.9428 46.4354 66.2663 46.4624 66.821L46.4794 67.1701H45.3251H44.1709V67.2884C44.1709 67.6189 44.3467 67.9228 44.6227 68.0694C44.748 68.136 44.7862 68.1422 45.0745 68.1422C45.3565 68.1422 45.405 68.1348 45.5399 68.0711C45.6228 68.032 45.7464 67.9571 45.8148 67.9046L45.939 67.8092L46.1535 68.0089C46.2842 68.1306 46.3623 68.2234 46.3535 68.2465C46.3295 68.309 46.0035 68.542 45.827 68.6228C45.5637 68.7434 45.1827 68.7932 44.7981 68.7575ZM45.759 66.5872C45.759 66.4642 45.6892 66.2059 45.6298 66.1092C45.4599 65.8323 45.284 65.7359 44.9512 65.7374C44.6426 65.7387 44.448 65.8404 44.3016 66.077C44.2367 66.1819 44.1709 66.4247 44.1709 66.559V66.6773H44.9649H45.759V66.5872Z" fill="#82BE42"/>
<path d="M29.5614 68.7581C29.1061 68.7089 28.7699 68.4507 28.6098 68.0272C28.5515 67.8728 28.5496 67.8312 28.542 66.5199L28.5342 65.1713H28.8774H29.2207V66.2712C29.2207 67.4267 29.2363 67.6307 29.3391 67.8138C29.5123 68.1226 29.9129 68.2298 30.2922 68.0688C30.4493 68.0022 30.5409 67.9086 30.6225 67.7315C30.6849 67.5961 30.6857 67.5815 30.6937 66.3829L30.7019 65.1713H31.0565H31.4112V66.9511V68.7309H31.0552H30.6993V68.5666C30.6993 68.3909 30.6816 68.3707 30.6037 68.4568C30.4034 68.6781 29.9729 68.8025 29.5614 68.7581Z" fill="#82BE42"/>
<path d="M84.7775 69.8479V69.5329L84.9691 69.5168C85.2966 69.4894 85.3532 69.4282 85.5442 68.895L85.6554 68.5845L85.5884 68.3907C85.5516 68.2842 85.4146 67.9074 85.284 67.5535C84.8059 66.2577 84.4427 65.266 84.4291 65.2192C84.4163 65.1753 84.4457 65.1713 84.7854 65.1713H85.1556L85.2361 65.3972C85.2803 65.5215 85.468 66.0729 85.6532 66.6225C85.8384 67.1722 85.998 67.6312 86.008 67.6425C86.0179 67.6538 86.211 67.1055 86.437 66.424L86.848 65.185L87.2229 65.1774C87.4291 65.1732 87.5978 65.1774 87.5978 65.1867C87.5978 65.2048 87.4844 65.5151 86.9135 67.0606C86.716 67.5953 86.4574 68.2976 86.3389 68.6214C85.9355 69.7231 85.9234 69.7492 85.7409 69.9141C85.5865 70.0536 85.367 70.1271 85.0464 70.1466L84.7775 70.163V69.8479Z" fill="#82BE42"/>
<path d="M60.2642 70.1397C60.2529 70.1279 60.2436 69.9865 60.2436 69.8256V69.5329L60.4371 69.5167C60.7745 69.4884 60.8407 69.4176 61.0338 68.8787L61.1423 68.5756L60.8613 67.8113C60.2033 66.0215 59.915 65.226 59.915 65.1995C59.915 65.1816 60.0483 65.1713 60.2815 65.1713H60.648L60.8706 65.8353C61.4354 67.5195 61.4954 67.6818 61.5264 67.6083C61.5422 67.5706 61.7313 67.0069 61.9465 66.3556L62.3377 65.1713H62.7174C63.068 65.1713 63.0957 65.175 63.0783 65.2192C63.0679 65.2456 62.8642 65.797 62.6257 66.4446C61.681 69.0089 61.4697 69.5698 61.3997 69.6983C61.2451 69.9824 60.9829 70.1199 60.5468 70.1457C60.4026 70.1542 60.2754 70.1515 60.2642 70.1397Z" fill="#82BE42"/>
</g>
</g>
<rect x="1" y="1" width="110" height="110" rx="9" stroke="black" stroke-opacity="0.1" stroke-width="2"/>
<defs>
<clipPath id="clip0_786_572">
<rect x="2" y="2" width="108" height="108" rx="8" fill="white"/>
</clipPath>
<clipPath id="clip1_786_572">
<rect width="80" height="37.8106" fill="white" transform="translate(16 37)"/>
</clipPath>
</defs>
</svg>
