<svg width="112" height="112" viewBox="0 0 112 112" fill="none" xmlns="http://www.w3.org/2000/svg">
<g clip-path="url(#clip0_786_556)">
<rect x="2" y="2" width="108" height="108" rx="8" fill="white"/>
<path d="M84.8098 66.043H28V86.3497H84.8098V66.043Z" fill="#0079C4"/>
<path fill-rule="evenodd" clip-rule="evenodd" d="M58.1474 54.7178L56.9572 51.6871H55.2148C55.2148 51.6871 57.3621 56.8773 57.3253 56.9264C57.313 56.9632 56.6013 58.7669 56.5645 58.816C56.6136 58.8282 58.3069 58.816 58.3191 58.8037C58.3314 58.7178 60.9204 51.6871 60.9204 51.6871H59.2517L58.1474 54.7178Z" fill="#0079C4"/>
<path fill-rule="evenodd" clip-rule="evenodd" d="M51.2757 49.1349C50.7235 49.1349 50.2695 49.5889 50.2695 50.1411C50.2695 50.6932 50.7113 51.1472 51.2757 51.1472C51.8278 51.1472 52.2818 50.6932 52.2818 50.1411C52.2818 49.5767 51.8278 49.1349 51.2757 49.1349Z" fill="#0079C4"/>
<path fill-rule="evenodd" clip-rule="evenodd" d="M40.7239 56.681C40.7239 56.497 40.7239 56.362 40.7239 56.1779C40.7239 55.2577 40.7239 54.3374 40.7239 53.4049C40.7239 53.3804 40.7239 53.3559 40.7239 53.3313C40.6993 53.0123 40.5153 51.6994 38.9202 51.6258C38.9079 51.6258 38.4662 51.6258 38.4662 51.6258C36.822 51.6626 36.6134 52.0062 36.6134 52.0062V53.319C36.6134 53.319 37.1165 52.9264 37.8282 52.9141C38.5275 52.9019 38.8098 53.0123 38.9693 53.1595C39.0061 53.1963 39.0429 53.2454 39.0797 53.2945C39.1288 53.4049 39.1779 53.4908 39.2024 53.6381C39.2024 53.6381 39.1901 53.7117 39.1779 53.724C39.1656 53.7362 39.1165 53.7362 39.1165 53.7362C39.1042 53.7362 39.0674 53.724 39.0552 53.724C39.0183 53.6994 38.7852 53.5644 37.8772 53.6013C37.3128 53.6258 36.6748 54.0307 36.5521 54.1902C36.3926 54.3743 36.0122 54.6565 36.0122 55.6135C36.0122 55.9325 36.1349 56.3252 36.4048 56.7914C36.6748 57.2577 37.5214 57.3927 37.5459 57.3927C37.9754 57.4049 38.4417 57.3804 38.6502 57.319C38.8711 57.2454 39.0797 57.0982 39.141 57.0491C39.1779 57.0123 39.2637 57.0246 39.2637 57.0614C39.2637 57.1595 39.2883 57.2454 39.3374 57.3313C39.3496 57.3804 39.3619 57.4049 39.3619 57.4049C39.3619 57.4049 40.9693 57.4049 41.0061 57.4049C40.9447 57.3313 40.8956 57.2822 40.8711 57.2209C40.8466 57.0982 40.7239 56.7914 40.7239 56.681ZM39.0552 55.9816C38.9447 56.0798 38.7852 56.0921 38.0613 56.0921C37.9509 56.0921 37.5214 55.9325 37.5214 55.454C37.5214 54.5706 38.4294 54.6565 38.6871 54.6565C38.9325 54.6565 39.2024 54.7546 39.2024 54.9264C39.2024 55.0614 39.2147 55.4663 39.2147 55.6503C39.2147 55.8344 39.1288 55.9203 39.0552 55.9816Z" fill="#0079C4"/>
<path fill-rule="evenodd" clip-rule="evenodd" d="M74.3679 56.681C74.3679 56.497 74.3679 56.362 74.3679 56.1779V53.4049C74.3679 53.3804 74.3679 53.3559 74.3679 53.3313C74.3434 53.0123 74.1716 51.6994 72.5642 51.6258C72.552 51.6258 72.1102 51.6258 72.1102 51.6258C70.4538 51.6626 70.2575 52.0062 70.2575 52.0062V53.319C70.2575 53.319 70.7605 52.9264 71.4599 52.9141C72.1593 52.9019 72.4415 53.0123 72.6133 53.1595C72.6501 53.1963 72.6869 53.2454 72.7237 53.2945C72.7728 53.4049 72.8219 53.4908 72.8464 53.6381C72.8464 53.6381 72.8342 53.7117 72.8219 53.724C72.8096 53.7362 72.7605 53.7362 72.7605 53.7362C72.7483 53.7362 72.7115 53.724 72.6992 53.724C72.6747 53.6994 72.4293 53.5644 71.5336 53.6013C70.9569 53.6258 70.3311 54.0307 70.1961 54.1902C70.0366 54.3743 69.6562 54.6565 69.6562 55.6135C69.6562 55.9325 69.779 56.3252 70.0489 56.7914C70.3188 57.2577 71.1655 57.3927 71.19 57.3927C71.6194 57.4049 72.0857 57.3804 72.2943 57.319C72.5151 57.2454 72.7237 57.0982 72.7851 57.0491C72.8219 57.0123 72.9078 57.0246 72.9078 57.0614C72.9078 57.1595 72.9446 57.2454 72.9814 57.3313C73.0059 57.3804 73.0182 57.4049 73.0182 57.4049C73.0182 57.4049 74.6256 57.4049 74.6624 57.4049C74.601 57.3313 74.552 57.2822 74.5151 57.2209C74.4906 57.0982 74.3679 56.7914 74.3679 56.681ZM72.6992 55.9816C72.5888 56.0798 72.4293 56.0921 71.7053 56.0921C71.5949 56.0921 71.1655 55.9325 71.1655 55.454C71.1655 54.5706 72.0734 54.6565 72.3311 54.6565C72.5765 54.6565 72.8464 54.7546 72.8464 54.9264C72.8464 55.0614 72.8464 55.4663 72.8464 55.6503C72.8587 55.8344 72.7728 55.9203 72.6992 55.9816Z" fill="#0079C4"/>
<path fill-rule="evenodd" clip-rule="evenodd" d="M47.6312 51.6135C46.7477 51.6135 46.0238 51.908 45.987 52.2884C45.9502 51.908 45.2999 51.6135 44.4901 51.6135C43.8643 51.6135 43.3244 51.7976 43.1036 52.0552C43.1036 51.9325 43.1036 51.8221 43.1036 51.6994C43.0667 51.6994 43.0545 51.6994 43.0422 51.6994C42.6128 51.6994 42.171 51.6994 41.7416 51.6994C41.6802 51.6994 41.668 51.724 41.668 51.773V52.3006V57.2577V57.3927H43.1649V53.6749C43.1649 53.3681 43.5207 53.1227 43.9747 53.1227C44.4287 53.1227 44.7845 53.3681 44.7845 53.6749V57.3927H46.3183V53.6749C46.3183 53.3681 46.6741 53.1227 47.1281 53.1227C47.5821 53.1227 47.9379 53.3681 47.9379 53.6749V57.3927H49.4962V53.4049V53.3436V53.2332C49.4962 53.2332 49.4962 53.2332 49.4962 53.2209C49.4226 52.1166 48.5146 51.6135 47.6312 51.6135Z" fill="#0079C4"/>
<path fill-rule="evenodd" clip-rule="evenodd" d="M76.7612 52.1657V51.6871H75.252V57.3804H76.7489V53.6994C76.9084 53.5644 77.3256 53.27 77.8041 53.27C78.4176 53.27 78.6998 53.5031 78.6998 53.5031V51.8466C78.6998 51.8466 78.344 51.6381 77.9023 51.6381C77.571 51.6381 77.0311 51.9448 76.7612 52.1657Z" fill="#0079C4"/>
<path d="M52.0244 51.6871H50.5029V57.3804H52.0244V51.6871Z" fill="#0079C4"/>
<path d="M54.6752 49.2454H53.166V57.3804H54.6752V49.2454Z" fill="#0079C4"/>
<path fill-rule="evenodd" clip-rule="evenodd" d="M32.3436 50.8037H36.0245V49.2454H32.3436H30.7607V50.8037V57.3804H32.3436V53.8098H35.8773V52.2516H32.3436V50.8037Z" fill="#0079C4"/>
<path fill-rule="evenodd" clip-rule="evenodd" d="M82.736 53.1718V51.6871H81.4231V49.5521L79.9262 50.2392V51.6748H79.0918V53.1595H79.9262V55.638C79.9262 55.6748 79.9262 55.6994 79.9262 55.7362V55.7975H79.9384C80.0243 57.2086 81.239 57.3681 81.828 57.3681C82.4415 57.3681 82.6746 57.2086 82.6746 57.2086V55.7975C82.6746 55.7975 82.5397 55.908 81.9875 55.908C81.4354 55.908 81.4354 55.1472 81.4354 55.1472V53.1472H82.736V53.1718Z" fill="#0079C4"/>
<path fill-rule="evenodd" clip-rule="evenodd" d="M65.1414 51.7362C64.9819 51.5399 63.1168 49.2454 63.1168 49.2454H61.4727V57.3927H63.1168V51.773C63.1168 51.773 64.8346 53.9693 65.1414 54.3743C65.4481 53.9816 67.1659 51.7853 67.1659 51.773V57.3927H68.8223V49.2454H67.1659C67.1659 49.2454 65.3009 51.5399 65.1414 51.7362Z" fill="#0079C4"/>
<path d="M84.8098 25H28V43.0613H84.8098V25Z" fill="#1EAA39"/>
</g>
<rect x="1" y="1" width="110" height="110" rx="9" stroke="black" stroke-opacity="0.1" stroke-width="2"/>
<defs>
<clipPath id="clip0_786_556">
<rect x="2" y="2" width="108" height="108" rx="8" fill="white"/>
</clipPath>
</defs>
</svg>
