<svg width="112" height="112" viewBox="0 0 112 112" fill="none" xmlns="http://www.w3.org/2000/svg">
<g clip-path="url(#clip0_786_690)">
<rect x="2" y="2" width="108" height="108" rx="8" fill="white"/>
<g clip-path="url(#clip1_786_690)">
<path d="M40.067 36.6076C39.879 36.6076 39.6717 36.6167 39.435 36.6336C35.5374 36.9315 31.2208 37.5964 25.0918 42.0569C24.5187 42.4726 22.6237 44.0641 20.757 46.3917C18.4101 49.3208 16.9965 52.3338 16.6726 55.1066C16.608 55.6548 16.4676 57.5996 17.3658 59.6441C18.3127 61.8008 20.057 63.2687 22.5501 64.0095L22.643 64.0367L22.609 65.166L22.5784 65.2C22.0347 65.8173 20.6834 67.4676 19.9053 69.4487C18.9538 71.8749 19.2064 73.8922 20.6562 75.4451C21.1093 75.9299 21.7764 76.187 22.5852 76.187C23.6159 76.187 24.8166 75.777 26.058 75.0011C27.458 74.1266 28.8274 72.849 30.1289 71.2032L30.1821 71.1352L30.2637 71.1601C32.7782 71.9134 35.8569 72.294 39.4124 72.294C46.3988 72.294 52.6376 70.8453 52.6976 70.8305C52.7758 70.8101 52.94 70.7784 53.1881 70.7297C63.3041 68.7385 72.216 65.2147 77.91 62.6084L77.9939 62.5699L78.055 62.639C79.395 64.1216 80.8641 64.8726 82.4227 64.8726C86.0869 64.8726 89.639 60.8572 92.234 57.9258C92.3223 57.8262 92.4095 57.7265 92.4956 57.6302L91.5057 53.1357C91.1081 53.4676 90.0626 54.3386 89.5393 54.7702C88.8892 55.3037 87.7168 56.1996 87.155 56.1996C86.9579 56.1996 86.873 56.092 86.8401 56.0286C86.779 55.9074 86.5898 55.537 87.9898 53.6126L88.0181 53.5718L88.0668 53.5627C92.1762 52.7721 94.0587 48.6877 95.0714 46.4937C95.2254 46.1607 95.3624 45.8628 95.4848 45.6294L93.6249 45.5128L93.643 45.3802C93.9251 43.3153 92.5443 42.0989 91.8307 41.8338C91.3969 41.6718 90.9405 41.5891 90.4761 41.5891C88.4565 41.5891 86.7099 43.1228 86.2081 43.7129L86.1345 43.7979L86.0416 43.7344C82.3026 41.187 76.783 40.6524 72.8107 40.6524C72.2806 40.6524 71.8581 40.6615 71.5489 40.6683C71.4073 40.6717 71.294 40.6739 71.2102 40.6739C67.5301 40.7022 58.0631 41.6628 52.2989 43.4819L52.2083 43.5102L52.1562 43.4298C51.3554 42.1974 50.0596 41.4906 48.6007 41.4906C46.2198 41.4906 44.2829 43.4909 44.2829 45.95V46.0383L41.4059 47.0657L40.357 46.1323L40.4895 46.0406C45.0644 42.8861 44.429 41.6005 43.3756 39.4699L43.3009 39.3181C42.2395 37.1649 41.5746 36.6076 40.067 36.6076ZM22.5852 76.4373C21.7051 76.4373 20.9745 76.153 20.4727 75.615C19.6459 74.7304 19.1871 73.6883 19.1067 72.5148C19.0399 71.5475 19.2302 70.4851 19.6731 69.3569C20.4501 67.3736 21.7889 65.7199 22.3609 65.0674L22.3858 64.2213C21.0493 63.8124 19.9098 63.1838 18.9968 62.3535C18.2051 61.632 17.5787 60.7542 17.1358 59.7461C16.2127 57.6427 16.3566 55.6401 16.4234 55.0771C16.6057 53.5208 17.1132 51.9034 17.9332 50.2689C18.6061 48.9278 19.4907 47.5708 20.5622 46.2354C22.4459 43.8862 24.3635 42.2767 24.9434 41.8542C27.6687 39.8709 30.2285 38.4901 32.7703 37.6327C35.2713 36.7888 37.5321 36.5283 39.4157 36.3845C39.6593 36.3652 39.8722 36.3561 40.067 36.3561C41.6789 36.3561 42.423 36.9689 43.5251 39.2071L43.5999 39.3589C44.6646 41.5133 45.3725 42.9427 40.7625 46.1573L41.4614 46.7791L44.0326 45.8616C44.0541 44.6361 44.5253 43.4887 45.3657 42.621C46.2277 41.7307 47.3763 41.2403 48.6007 41.2403C50.114 41.2403 51.4619 41.9584 52.3136 43.2134C58.1096 41.4068 67.5335 40.4508 71.2079 40.4236C71.2906 40.4225 71.4039 40.4202 71.5444 40.4179C71.8536 40.4111 72.2795 40.4021 72.8107 40.4021C76.7853 40.4021 82.3015 40.9356 86.0903 43.466C86.6963 42.8011 88.4519 41.3388 90.4761 41.3388C90.971 41.3388 91.4558 41.426 91.918 41.5982C92.6768 41.8814 94.1335 43.1455 93.9081 45.2794L95.8971 45.404L95.7974 45.5785C95.6581 45.8209 95.4916 46.181 95.3001 46.599C94.2717 48.8259 92.3642 52.9613 88.1631 53.7995C86.9477 55.4793 87.0338 55.8564 87.0644 55.9153C87.0689 55.9255 87.0814 55.9493 87.155 55.9493C87.5028 55.9493 88.3353 55.4362 89.3796 54.5765C90.0309 54.0407 91.4887 52.8231 91.5034 52.8106L91.662 52.6793L92.7675 57.7016L92.7256 57.748C92.6259 57.8613 92.5239 57.9757 92.422 58.0924C89.7964 61.06 86.2013 65.1229 82.4238 65.1241C80.8154 65.1241 79.3032 64.3674 77.9304 62.8746C72.6589 65.2826 67.239 67.3022 61.8203 68.8778C57.4832 70.1396 54.3978 70.7467 53.2368 70.9755C52.991 71.0242 52.8301 71.0548 52.7565 71.0741C52.6965 71.0876 46.4282 72.5443 39.4124 72.5443C35.8704 72.5443 32.7952 72.1682 30.2727 71.4252C28.969 73.0608 27.5962 74.3351 26.1905 75.214C24.9106 76.0148 23.6635 76.4373 22.5852 76.4373Z" fill="white"/>
<path fill-rule="evenodd" clip-rule="evenodd" d="M43.9625 45.7713C43.9625 43.2398 45.9447 41.1874 48.4072 41.1874C49.9544 41.1874 51.2672 41.953 52.0669 43.1831C57.6465 41.4241 67.041 40.4001 71.0156 40.3707C72.2717 40.3616 80.7363 39.921 85.9172 43.4527C86.5288 42.7346 89.032 40.5496 91.6803 41.5373C92.4471 41.8228 93.8629 43.0937 93.573 45.2186L95.494 45.3375C94.6207 46.8632 92.873 52.5493 87.8971 53.5064C85.7427 56.4695 86.7916 56.5296 89.2654 54.4941C89.9246 53.9527 91.3903 52.7294 91.3903 52.7294L92.4369 57.4878C88.8282 61.5576 83.0651 68.4092 77.7675 62.5441C63.9714 68.8588 53.3434 70.5749 52.5324 70.7731C51.3102 71.0721 38.7363 73.7056 30.0328 71.1016C26.1035 76.0706 21.9805 77.0765 20.3698 75.3514C16.8766 71.6113 21.1559 66.2253 22.2909 64.9386L22.3192 63.9509C16.47 62.2145 16.1234 56.8739 16.3533 54.9132C17.1383 48.2111 23.709 42.5873 24.8236 41.7775C30.7022 37.4982 34.9237 36.66 39.2313 36.3304C41.2701 36.1752 42.0109 36.6328 43.2184 39.084C44.325 41.3278 45.1394 42.6746 40.3663 45.9661L41.2396 46.7443L43.9625 45.7713Z" fill="white"/>
<path d="M39.8727 36.4288C39.6847 36.4288 39.4774 36.4378 39.2407 36.4559C35.3431 36.7538 31.0264 37.4176 24.8975 41.8781C24.3243 42.2949 22.4294 43.8852 20.5627 46.214C18.2158 49.142 16.8022 52.1561 16.4782 54.9278C16.4137 55.476 16.2732 57.4219 17.1714 59.4653C18.1184 61.6231 19.8627 63.091 22.3557 63.8307L22.4486 63.8578L22.4146 64.9871L22.3852 65.0211C21.8404 65.6384 20.4891 67.2899 19.7121 69.271C18.7595 71.6972 19.0121 73.7133 20.4619 75.2662C20.915 75.751 21.5821 76.0082 22.3908 76.0082C23.4216 76.0082 24.6234 75.5981 25.8637 74.8222C27.2637 73.9489 28.6331 72.6701 29.9345 71.0243L29.9878 70.9587L30.0693 70.9824C32.5839 71.7345 35.6625 72.1163 39.218 72.1163C46.2044 72.1163 52.4432 70.6664 52.5033 70.6517C52.5826 70.6324 52.7457 70.5996 52.9937 70.552C63.1097 68.5596 72.0206 65.0358 77.7157 62.4295L77.7995 62.3922L77.8607 62.4601C79.1995 63.9439 80.6698 64.6949 82.2283 64.6949H82.2306C85.8937 64.6938 89.4458 60.6784 92.0396 57.7481C92.128 57.6485 92.2152 57.5488 92.3013 57.4525L91.3113 52.958C90.9137 53.2899 89.8683 54.1609 89.345 54.5914C88.696 55.126 87.5225 56.0208 86.9595 56.0208C86.7625 56.0208 86.6786 55.9143 86.6458 55.8498C86.5846 55.7286 86.3955 55.3582 87.7955 53.4338L87.8238 53.393L87.8736 53.3839C91.9807 52.5933 93.8644 48.5088 94.877 46.316C95.0311 45.9818 95.1681 45.6851 95.2904 45.4506L93.4306 45.3351L93.4487 45.2014C93.7307 43.1365 92.35 41.9211 91.6364 41.655C91.2026 41.493 90.7461 41.4114 90.2817 41.4114C88.2621 41.4114 86.5155 42.944 86.0138 43.5341L85.9401 43.6202L85.8473 43.5567C82.1094 41.0093 76.5887 40.4736 72.6152 40.4736C72.0874 40.4736 71.6638 40.4826 71.3557 40.4894C71.213 40.4928 71.0997 40.4951 71.0159 40.4951C67.3358 40.5234 57.8688 41.4851 52.1046 43.303L52.014 43.3313L51.9619 43.2509C51.161 42.0197 49.8653 41.3118 48.4075 41.3118C46.0254 41.3118 44.0886 43.3121 44.0886 45.7711V45.8595L41.2115 46.8868L40.1627 45.9535L40.2952 45.8629C44.8701 42.7084 44.2347 41.4228 43.1813 39.2911L43.1065 39.1393C42.0452 36.986 41.3803 36.4288 39.8727 36.4288ZM22.3908 76.2585C21.5108 76.2585 20.7802 75.9753 20.2784 75.4373C19.4515 74.5527 18.9928 73.5083 18.9124 72.336C18.8455 71.3687 19.0358 70.3062 19.4787 69.1792C20.2569 67.1959 21.5946 65.541 22.1666 64.8886L22.1915 64.0436C20.8549 63.6336 19.7154 63.0049 18.8025 62.1747C18.0108 61.4543 17.3844 60.5765 16.9415 59.5672C16.0184 57.465 16.1622 55.4624 16.229 54.8983C16.4114 53.342 16.9188 51.7257 17.7389 50.0901C18.4129 48.7501 19.2964 47.3931 20.3679 46.0566C22.2515 43.7074 24.1692 42.0978 24.7491 41.6754C27.4743 39.692 30.0353 38.3113 32.576 37.4538C35.0769 36.61 37.3378 36.3495 39.2214 36.2056C39.4649 36.1875 39.6779 36.1784 39.8727 36.1784C41.4845 36.1784 42.2287 36.7912 43.3308 39.0283L43.4067 39.18C44.4714 41.3344 45.1782 42.765 40.5682 45.9784L41.267 46.6014L43.8382 45.6828C43.8598 44.4584 44.331 43.3098 45.1714 42.4422C46.0334 41.5519 47.1831 41.0614 48.4075 41.0614C49.9196 41.0614 51.2675 41.7796 52.1193 43.0357C57.9152 41.2279 67.3392 40.2731 71.0147 40.2448C71.0963 40.2448 71.2084 40.2414 71.35 40.2391C71.6604 40.2323 72.084 40.2233 72.6152 40.2233C76.5921 40.2233 82.1083 40.7567 85.8971 43.2872C86.5019 42.6223 88.2576 41.16 90.2817 41.16C90.7767 41.16 91.2615 41.2483 91.7236 41.4205C92.4825 41.7025 93.9392 42.9677 93.7137 45.1017L95.7027 45.2252L95.6031 45.3996C95.4637 45.642 95.2972 46.0033 95.1047 46.4202C94.0785 48.647 92.1699 52.7836 87.9699 53.6206C86.7534 55.3004 86.8395 55.6776 86.8689 55.7365C86.8746 55.7467 86.8871 55.7705 86.9595 55.7705C87.3084 55.7705 88.1409 55.2574 89.1853 54.3977C89.8366 53.8619 91.2955 52.6454 91.3091 52.6329L91.4676 52.5004L92.5731 57.5227L92.5312 57.5703C92.4316 57.6825 92.3307 57.798 92.2277 57.9135C89.6021 60.8812 86.0058 64.9452 82.2306 64.9452C80.621 64.9452 79.1089 64.1886 77.7361 62.6957C72.4646 65.1038 67.0447 67.1245 61.6259 68.7001C57.2889 69.9619 54.2034 70.569 53.0424 70.7967C52.7978 70.8465 52.6358 70.8771 52.5622 70.8952C52.5021 70.9099 46.2339 72.3666 39.218 72.3666C35.6761 72.3666 32.602 71.9894 30.0784 71.2464C28.7747 72.8831 27.4018 74.1574 25.9962 75.0352C24.7163 75.8349 23.4692 76.2585 22.3908 76.2585Z" stroke="#006F51" stroke-width="0.356796" stroke-miterlimit="10"/>
<path fill-rule="evenodd" clip-rule="evenodd" d="M24.8107 64.0781C23.3315 57.9831 35.8895 49.5163 52.8594 45.1679C69.8293 40.8195 84.7853 42.2354 86.2646 48.3304C87.7427 54.4253 75.1858 62.8922 58.2159 67.2417C41.246 71.5889 26.29 70.173 24.8107 64.0781Z" fill="#FDBE56"/>
<path fill-rule="evenodd" clip-rule="evenodd" d="M68.6864 56.4621C67.9298 57.5393 68.6275 57.8383 69.2108 57.1802C72.0629 53.5896 76.0794 50.178 78.0005 50.298C78.8738 50.477 78.8738 51.9132 78.9315 52.9904C78.3493 53.4095 75.905 55.8629 75.2062 58.3775C74.9819 59.1851 75.5856 59.7152 76.4283 59.3346C78.816 58.2574 79.977 57.11 81.027 55.804C82.1336 54.4267 83.9969 51.6742 83.9969 51.6742C83.5302 51.075 81.9003 51.2551 81.9003 51.2551C83.4725 47.0064 85.6257 47.6645 86.9068 47.9636C87.4901 47.1254 88.0134 46.1682 88.6545 45.4501C89.1336 44.9121 90.6911 44.1328 91.331 44.6119C91.7751 44.9438 91.9132 45.4501 91.2144 46.4072C90.6469 47.1877 90.2833 47.7846 90.2833 47.7846L92.2621 47.9636C92.0299 48.9818 90.1089 53.7085 86.7323 51.8532C85.9757 52.8114 84.1668 55.1901 83.6469 57.6593C83.1802 59.8737 84.1317 60.0312 85.9757 59.5736C87.6634 59.1556 90.1089 56.581 90.5755 55.983L90.6911 57.1202C90.1666 57.7783 86.9068 61.4266 84.6946 62.5072C82.367 63.6444 78.6982 63.0453 81.0859 57.4203C79.3393 58.4375 77.2438 62.0881 73.2851 62.8652C72.2566 63.0679 70.723 61.6679 72.0629 58.3174C72.3099 57.699 73.4018 55.9229 73.6929 55.5639C72.4707 55.804 69.793 59.9938 68.3364 61.31C66.8197 62.6817 64.7866 62.7462 65.0765 59.2757C64.4955 59.8137 62.7738 61.5309 61.5267 62.147C58.3824 63.7045 57.6257 62.3872 57.8591 58.7354C57.8591 58.7354 54.4248 61.3689 53.6092 62.0281C53.0916 62.4461 52.3871 62.7462 51.8626 62.5072C51.3393 62.2671 49.9416 60.4118 49.7672 59.1556C46.9728 62.0881 42.6075 65.5587 40.9198 58.8554C39.6376 59.4546 33.5256 64.0624 33.0601 64.4215C32.5945 64.7805 31.779 66.0978 31.2557 66.8749C30.7324 67.6541 25.3759 75.2545 22.6394 74.1773C19.8462 70.7656 27.297 65.3797 27.9958 64.1224C30.0913 61.3689 32.3034 57.7182 33.0601 55.2048C33.0601 55.2048 27.5824 59.9859 26.7725 60.6519C25.0271 62.0881 23.6486 62.5593 22.1739 61.7291C19.7295 60.3517 19.076 57.2199 19.3217 55.6839C20.195 50.238 24.9965 45.9496 26.0748 45.0911C33.0601 39.5251 39.1143 39.5251 40.802 39.704C41.6753 40.5422 42.1419 42.3375 42.1419 42.3375C41.152 44.0127 37.3677 46.0493 35.5055 46.7074C35.3311 45.9293 36.2622 44.911 36.9021 44.3729C33.0601 46.2283 26.4237 49.1936 22.7572 55.8629C21.9994 57.2402 22.5816 60.4718 25.7837 58.1974C27.5031 56.9763 30.4402 55.2048 37.4843 48.5627C37.8332 48.0236 38.7065 48.2626 39.2309 48.7417C39.9445 49.3941 40.3953 49.5788 39.8709 50.4181C39.4337 51.1169 37.0766 56.5221 34.1078 61.2488L41.152 57.6593C42.3164 54.7257 44.8774 51.1351 46.9728 49.999C48.4306 49.2084 49.535 50.537 48.7194 51.8532C47.905 53.1705 45.5173 56.5221 44.7029 57.1802C44.0618 61.1888 47.7872 60.1127 49.2427 57.8983C51.1649 51.9132 58.1502 49.2809 62.3411 48.2626C63.04 48.5027 64.4955 50.0579 62.6322 50.716C63.4477 51.4953 64.6688 52.5713 62.3989 54.3077C61.35 55.1097 59.8368 57.8961 60.7112 58.7954C61.7011 59.8137 63.1566 59.1556 64.4955 57.9584C65.1162 57.4033 65.4843 57.0001 65.9498 56.103C66.4165 55.2048 68.3953 52.3923 69.793 51.2551C71.3063 51.3152 72.4707 51.3752 71.423 52.9304C70.9167 53.6825 70.0841 54.7257 68.6864 56.4621Z" fill="white"/>
<path fill-rule="evenodd" clip-rule="evenodd" d="M68.1044 55.5043C67.3489 56.5815 68.0466 56.8817 68.6277 56.2224C71.4809 52.6318 75.4974 49.2202 77.4184 49.3403C78.2917 49.5192 78.2917 50.9555 78.3495 52.0326C77.7684 52.4517 75.323 54.9063 74.6252 57.4197C74.3998 58.2273 75.0036 58.7574 75.8474 58.3768C78.234 57.2996 79.3961 56.1522 80.4461 54.8462C81.5516 53.47 83.4149 50.7165 83.4149 50.7165C82.9482 50.1173 81.3194 50.2974 81.3194 50.2974C82.8904 46.0487 85.0448 46.7068 86.3247 47.0058C86.9069 46.1676 87.4314 45.2105 88.0714 44.4924C88.5516 43.9543 90.109 43.175 90.749 43.6542C91.193 43.9861 91.3312 44.4924 90.6323 45.4495C90.0649 46.2288 89.7013 46.8268 89.7013 46.8268L91.6801 47.0058C91.4479 48.0241 89.528 52.7519 86.1515 50.8966C85.3937 51.8537 83.5848 54.2323 83.0649 56.7016C82.6005 58.916 83.5508 59.0734 85.3937 58.6169C87.0825 58.1978 89.528 55.6244 89.9924 55.0252L90.109 56.1635C89.5857 56.8216 86.3247 60.4689 84.1126 61.5495C81.785 62.6867 78.1173 62.0875 80.5028 56.4626C78.7573 57.4786 76.6618 61.1292 72.7042 61.9074C71.6746 62.109 70.1421 60.7113 71.4809 57.3597C71.729 56.7401 72.8197 54.9652 73.1108 54.6072C71.8887 54.8462 69.211 59.0349 67.7555 60.3522C66.2377 61.7239 64.2045 61.7885 64.4956 58.3168C63.9134 58.8548 62.1906 60.572 60.9447 61.1893C57.8003 62.7456 57.0437 61.4283 57.2771 57.7788C57.2771 57.7788 53.8427 60.4111 53.0272 61.0703C52.5096 61.4894 51.805 61.7885 51.2806 61.5495C50.7573 61.3093 49.3607 59.4551 49.1852 58.1978C46.3919 61.1292 42.0254 64.6009 40.3377 57.8988C39.0567 58.4969 32.9447 63.1046 32.478 63.4637C32.0125 63.8228 31.1981 65.1389 30.6737 65.9171C30.1504 66.6964 24.7939 74.2967 22.0585 73.2195C19.2641 69.8079 26.7149 64.4219 27.4138 63.1647C29.5104 60.4111 31.7214 56.7616 32.478 54.247C32.478 54.247 27.0004 59.0281 26.1916 59.6941C24.445 61.1292 23.0666 61.6004 21.5929 60.7702C19.1475 59.3951 18.4939 56.2621 18.7397 54.7262C19.613 49.2802 24.4145 44.9919 25.4928 44.1333C32.478 38.5673 38.5322 38.5673 40.2211 38.7474C41.0932 39.5844 41.5599 41.3797 41.5599 41.3797C40.57 43.0561 36.7856 45.0916 34.9235 45.7496C34.7491 44.9704 35.6801 43.9543 36.3201 43.4152C32.478 45.2705 25.8416 48.2359 22.1751 54.9063C21.4174 56.2836 22.0007 59.514 25.2017 57.2396C26.9211 56.0186 29.8581 54.247 36.9023 47.605C37.2512 47.0658 38.1256 47.3048 38.6489 47.7839C39.3625 48.4352 39.8133 48.6221 39.2889 49.4592C38.8517 50.1592 36.4957 55.5644 33.5258 60.2922L40.5699 56.7016C41.7343 53.769 44.2953 50.1773 46.3919 49.0412C47.8486 48.2506 48.9529 49.5793 48.1374 50.8966C47.323 52.2127 44.9353 55.5644 44.1209 56.2224C43.4809 60.2321 47.2063 59.155 48.6618 56.9406C50.5829 50.9555 57.5681 48.3231 61.7591 47.3048C62.458 47.5449 63.9134 49.1001 62.0502 49.7593C62.8646 50.5375 64.0879 51.6136 61.818 53.35C60.768 54.1519 59.2547 56.9394 60.1291 57.8388C61.1191 58.8548 62.5746 58.1978 63.9134 56.9995C64.5342 56.4445 64.9034 56.0435 65.3689 55.1453C65.8345 54.247 67.8144 51.4346 69.211 50.2974C70.7243 50.3574 71.8887 50.4174 70.8398 51.9737C70.3346 52.7247 69.501 53.769 68.1044 55.5043Z" fill="#006F51"/>
<path fill-rule="evenodd" clip-rule="evenodd" d="M46.5371 46.1978C46.5371 44.9417 47.5271 43.9234 48.7492 43.9234C49.9703 43.9234 50.9614 44.9417 50.9614 46.1978C50.9614 47.4539 49.9703 48.4722 48.7492 48.4722C47.5271 48.4722 46.5371 47.4539 46.5371 46.1978Z" fill="#E31837"/>
<path d="M48.7484 44.1606C47.6587 44.1606 46.7718 45.0746 46.7718 46.1983C46.7718 47.3219 47.6587 48.2359 48.7484 48.2359C49.8391 48.2359 50.726 47.3219 50.726 46.1983C50.726 45.0746 49.8391 44.1606 48.7484 44.1606ZM48.7484 48.7094C47.3993 48.7094 46.3018 47.5824 46.3018 46.1983C46.3018 44.8141 47.3993 43.6871 48.7484 43.6871C50.0974 43.6871 51.1961 44.8141 51.1961 46.1983C51.1961 47.5824 50.0974 48.7094 48.7484 48.7094Z" fill="white"/>
<path fill-rule="evenodd" clip-rule="evenodd" d="M58.7907 51.8835C57.1608 52.2131 53.2904 54.9656 52.6493 57.0599C52.4216 57.8052 52.9721 57.9502 53.552 57.539C55.1525 56.4018 58.5585 52.3921 58.7907 51.8835Z" fill="white"/>
</g>
</g>
<rect x="1" y="1" width="110" height="110" rx="9" stroke="black" stroke-opacity="0.1" stroke-width="2"/>
<defs>
<clipPath id="clip0_786_690">
<rect x="2" y="2" width="108" height="108" rx="8" fill="white"/>
</clipPath>
<clipPath id="clip1_786_690">
<rect width="80" height="40.4373" fill="white" transform="translate(16 36)"/>
</clipPath>
</defs>
</svg>
