<svg width="112" height="112" viewBox="0 0 112 112" fill="none" xmlns="http://www.w3.org/2000/svg">
<g clip-path="url(#clip0_786_638)">
<rect x="2" y="2" width="108" height="108" rx="8" fill="white"/>
<g clip-path="url(#clip1_786_638)">
<path d="M48.5382 52.164H39.9591V56.354V57.0147C39.9591 57.6506 40.0296 58.1883 40.1678 58.6267C40.3061 59.0657 40.5876 59.3636 41.0018 59.517V59.5859H36.5049V59.517C36.9218 59.3636 37.2034 59.0657 37.3382 58.6267C37.4765 58.1849 37.5448 57.6506 37.5448 57.0209V56.3574V47.6367V46.897C37.5448 46.278 37.4765 45.7578 37.3416 45.3386C37.2068 44.9199 36.9269 44.6305 36.5049 44.4753V44.4082H41.0018V44.4753C40.5876 44.6305 40.3061 44.9289 40.1678 45.3668C40.0296 45.8069 39.9591 46.3429 39.9591 46.985V47.6513V50.5018H48.5382V47.6513V46.8885C48.5382 46.2701 48.4693 45.7493 48.3328 45.3346C48.1957 44.9199 47.9141 44.6305 47.4887 44.4753V44.4082H52.0155V44.4753C51.5839 44.6305 51.2995 44.9318 51.1573 45.3707C51.0185 45.8108 50.9491 46.3514 50.9491 46.9946V47.6367V56.3574V56.9995C50.9491 57.6421 51.0185 58.1849 51.1573 58.6233C51.2995 59.0617 51.5839 59.3591 52.0155 59.517V59.5859H47.4887V59.517C48.1866 59.2614 48.5382 58.4512 48.5382 57.0897V56.354V52.164Z" fill="#09509F"/>
<path d="M57.8128 52.1758V57.6623L60.7451 57.9388C60.8551 57.9512 61.0216 57.9597 61.2535 57.9597C62.7221 57.9597 63.9747 57.4998 65.0163 56.5762H65.0857L64.0475 59.5942H54.4297V59.5243C54.8489 59.3719 55.1282 59.0701 55.2642 58.6311C55.3973 58.1916 55.4667 57.6505 55.4667 57.0061V56.3646V47.6732V47.0024C55.4667 46.3603 55.3973 45.8186 55.2642 45.3791C55.1282 44.9401 54.8489 44.6439 54.4297 44.4848V44.4148H61.8103C62.3763 44.4148 62.7385 44.377 62.8931 44.3054H62.9569V47.0103H62.8931C62.5664 46.6322 62.194 46.3789 61.7624 46.2627C61.3319 46.1448 60.8021 46.0866 60.173 46.0866C59.172 46.0866 58.3877 46.1402 57.8128 46.2452V50.5124H60.5583C61.0543 50.5124 61.3951 50.4667 61.5801 50.3753H61.6484V52.8235H61.5801C61.425 52.5459 61.1795 52.3682 60.8472 52.2903C60.5149 52.213 60.0703 52.1758 59.5213 52.1758H57.8128Z" fill="#09509F"/>
<path d="M87.3396 44C88.5826 44 89.7376 44.2076 90.8085 44.624C91.8743 45.041 92.7968 45.6154 93.5687 46.3427C94.3439 47.0756 94.9448 47.9118 95.3686 48.8608C95.7901 49.8093 96.0005 50.7984 96.0005 51.8253C96.0005 52.9819 95.7692 54.059 95.3099 55.0504C94.8455 56.0485 94.1989 56.9152 93.3712 57.6498C92.5407 58.3872 91.5843 58.952 90.5072 59.3549C89.4363 59.7532 88.3101 59.9569 87.1314 59.9614V58.2896C87.1602 58.2936 87.189 58.2936 87.2189 58.2936C88.1149 58.2936 88.9364 58.1418 89.6902 57.845C90.4412 57.5494 91.0804 57.1301 91.6125 56.5857C92.1401 56.04 92.5486 55.4019 92.8284 54.6645C93.1083 53.9315 93.2476 53.1394 93.2476 52.2902C93.2476 51.1516 93.0039 50.0733 92.5113 49.0504C92.0193 48.0354 91.3118 47.2178 90.3887 46.5938C89.4617 45.9776 88.3874 45.6679 87.1636 45.6679H87.1314V44H87.3396ZM87.1314 59.9614H87.0953C85.9189 59.9614 84.7938 59.7662 83.7178 59.3797C82.6413 58.9932 81.694 58.4352 80.864 57.7102C80.0396 56.9885 79.3992 56.1331 78.9394 55.1491C78.4846 54.1646 78.2578 53.0953 78.2578 51.9404C78.2578 50.8819 78.4846 49.8618 78.9394 48.8885C79.3992 47.9174 80.0396 47.0688 80.8544 46.3376C81.6776 45.6092 82.6413 45.037 83.75 44.624C84.8012 44.2285 85.9279 44.0203 87.1314 44V45.6679C85.9228 45.6718 84.8587 45.933 83.9339 46.4499C82.999 46.9701 82.2779 47.69 81.7707 48.6165C81.2629 49.5447 81.0112 50.5823 81.0112 51.7372C81.0112 52.5385 81.1557 53.3306 81.4463 54.1115C81.7335 54.8969 82.1561 55.6045 82.7056 56.2392C83.2557 56.87 83.9181 57.3705 84.6906 57.7406C85.4404 58.0938 86.2535 58.28 87.1314 58.2896V59.9614Z" fill="#09509F"/>
<path d="M71.5306 51.1718C70.9523 51.4076 70.335 51.5774 69.6839 51.6807L72.3313 52.1665C72.9564 52.0142 73.5421 51.7518 74.0928 51.3749C74.6542 50.9873 75.0994 50.5127 75.4418 49.9457C75.7776 49.3775 75.9496 48.7715 75.9496 48.121C75.9496 47.4134 75.7623 46.7781 75.3939 46.2173C75.0226 45.6514 74.4793 45.2079 73.7497 44.8863C73.0275 44.5664 72.1676 44.4078 71.1757 44.4078H65.6768V44.4744C66.0932 44.6296 66.3657 44.9196 66.4955 45.3377C66.6247 45.7586 66.6946 46.2777 66.6946 46.8961V47.6657V56.3565V57.0933C66.6946 57.7196 66.6247 58.2404 66.4926 58.6613C66.3623 59.0867 66.0892 59.3722 65.6768 59.5167V59.585H70.0777V59.5167C69.6557 59.3593 69.3747 59.067 69.2387 58.6309C69.105 58.1958 69.0412 57.6581 69.0412 57.0205V56.3565V46.0226C69.6185 45.9166 70.1443 45.8556 70.6154 45.8336C71.4697 45.8336 72.1806 46.0655 72.7493 46.5299C73.3192 46.9891 73.5991 47.6166 73.5991 48.4008C73.5991 49.0751 73.4089 49.645 73.0179 50.1054C72.628 50.5647 72.1315 50.919 71.5306 51.1718Z" fill="#09509F"/>
<path d="M69.5938 51.6953L71.7288 54.9509L74.5482 58.4322C74.889 58.8509 75.2671 59.1488 75.6778 59.3214C76.088 59.4969 76.606 59.5861 77.2289 59.5861H79.347C78.8945 59.3011 78.4482 58.9852 78.003 58.6438C77.5606 58.3013 77.1256 57.9272 76.69 57.517C76.2601 57.1057 75.8984 56.7198 75.6101 56.3576L72.2908 52.1761C72.3037 52.1727 72.3201 52.1676 72.3308 52.1676L69.6835 51.6812C69.6507 51.6869 69.6225 51.6925 69.5938 51.6953Z" fill="#ED2227"/>
<path d="M21.2527 61.5714L20.9238 62.9939H20.6541C20.645 62.9143 20.6259 62.8133 20.6005 62.6954C20.5723 62.5758 20.5362 62.4584 20.4888 62.341C20.4402 62.2209 20.3878 62.121 20.3308 62.042C20.2704 61.9608 20.2038 61.9156 20.1254 61.9009C20.0543 61.8919 19.9646 61.8823 19.8568 61.8756C19.7496 61.8688 19.6537 61.866 19.5764 61.866H19.4004L18.5083 65.7258C18.4987 65.7665 18.4908 65.8043 18.4857 65.8415C18.4801 65.8771 18.4767 65.903 18.4767 65.9199C18.4767 65.9764 18.4886 66.0254 18.5089 66.0672C18.5309 66.1112 18.5732 66.1456 18.6341 66.1721C18.6906 66.1936 18.7718 66.2173 18.8807 66.2393C18.9868 66.2613 19.0765 66.2765 19.1465 66.2833L19.0855 66.5383H16.3157L16.3761 66.2833C16.4404 66.2782 16.5386 66.2686 16.6627 66.2557C16.7891 66.2421 16.8788 66.2241 16.9341 66.2054C17.0261 66.1676 17.0972 66.1185 17.1435 66.0554C17.1892 65.9922 17.2213 65.9182 17.2411 65.8314L18.1591 61.866H18.0214C17.9334 61.866 17.842 61.8688 17.7528 61.8739C17.6637 61.8801 17.5621 61.8891 17.4459 61.9009C17.3641 61.9128 17.2687 61.9636 17.1671 62.0522C17.0616 62.1407 16.9595 62.2367 16.8625 62.341C16.7462 62.4736 16.6498 62.5904 16.5741 62.6959C16.4997 62.8026 16.4331 62.9008 16.3812 62.9939H16.1104L16.4387 61.5714H21.2527Z" fill="#39B54A"/>
<path d="M25.327 66.01L25.2503 66.3187C25.0207 66.4095 24.8345 66.4795 24.6968 66.5269C24.5586 66.5748 24.4017 66.5985 24.2178 66.5985C23.9419 66.5985 23.7258 66.5285 23.5695 66.3903C23.4132 66.2509 23.337 66.0783 23.337 65.8735C23.337 65.808 23.3387 65.7358 23.3449 65.6568C23.3511 65.5784 23.3714 65.4689 23.407 65.3307L23.6558 64.3997C23.6834 64.2993 23.7015 64.2096 23.7145 64.1283C23.7263 64.0482 23.7325 63.9811 23.7325 63.9308C23.7325 63.818 23.706 63.7311 23.6524 63.6679C23.5988 63.6058 23.5091 63.5743 23.3805 63.5743C23.3009 63.5743 23.188 63.6047 23.0419 63.6662C22.8952 63.7294 22.7305 63.8434 22.5488 64.011L21.9688 66.5387H20.8115L21.8412 62.083C21.8525 62.0429 21.8576 62.0057 21.861 61.9718C21.8683 61.9357 21.8706 61.9064 21.8706 61.8827C21.8706 61.7998 21.8553 61.7315 21.8271 61.683C21.8006 61.6339 21.7594 61.5944 21.7002 61.5645C21.6432 61.5334 21.5823 61.5131 21.5083 61.5024C21.4356 61.4917 21.3526 61.4787 21.255 61.4697L21.3199 61.2107L23.1621 61.1204L23.201 61.1752L22.6419 63.5979H22.6656C22.8817 63.4078 23.1079 63.2566 23.3415 63.1471C23.5757 63.0399 23.8256 62.9863 24.0948 62.9863C24.3532 62.9863 24.5569 63.0569 24.7013 63.1996C24.8486 63.3418 24.9214 63.5144 24.9214 63.717C24.9214 63.7712 24.9163 63.8468 24.9078 63.9427C24.9022 64.0397 24.8807 64.1424 24.8503 64.253L24.5851 65.2359C24.5603 65.3188 24.5399 65.4114 24.5208 65.5169C24.5027 65.6224 24.4948 65.7014 24.4948 65.7556C24.4948 65.8904 24.5224 65.9829 24.5817 66.0354C24.6415 66.0868 24.747 66.1127 24.8965 66.1127C24.9671 66.1127 25.0455 66.0992 25.1346 66.076C25.2232 66.0506 25.2875 66.0275 25.327 66.01Z" fill="#39B54A"/>
<path d="M27.3401 66.6541C27.0609 66.6541 26.8126 66.6168 26.6055 66.5412C26.3911 66.465 26.2173 66.3601 26.0791 66.2241C25.9442 66.0893 25.8444 65.9307 25.775 65.7519C25.7078 65.5719 25.6729 65.3727 25.6729 65.156C25.6729 64.8813 25.7242 64.6138 25.8269 64.3543C25.9296 64.0953 26.0842 63.8623 26.285 63.6546C26.4769 63.4554 26.7195 63.2946 27.0163 63.1716C27.308 63.0469 27.6318 62.986 27.9879 62.986C28.4043 62.986 28.7231 63.0526 28.9414 63.1841C29.1592 63.3189 29.2692 63.5181 29.2692 63.7844C29.2692 64.0383 29.1739 64.2567 28.9866 64.44C28.7959 64.6234 28.5386 64.7588 28.2147 64.8485C27.958 64.9241 27.7379 64.9806 27.5574 65.0116C27.3774 65.0454 27.1573 65.077 26.8938 65.1036C26.9012 65.2057 26.9142 65.3219 26.9395 65.4494C26.961 65.5792 26.996 65.6881 27.0434 65.7789C27.0987 65.8844 27.1788 65.968 27.2798 66.0295C27.3825 66.091 27.5139 66.1231 27.6725 66.1231C27.9489 66.1231 28.182 66.0701 28.3744 65.9617C28.5656 65.8557 28.7518 65.6881 28.9268 65.4568L29.1812 65.67C28.9708 65.9696 28.7022 66.2083 28.3744 66.386C28.0471 66.5655 27.7007 66.6541 27.3401 66.6541ZM28.1318 63.882C28.1318 63.6834 28.0956 63.5305 28.024 63.4261C27.9495 63.32 27.8491 63.2653 27.721 63.2653C27.541 63.2653 27.3723 63.412 27.2132 63.7054C27.053 63.9988 26.9497 64.3678 26.9051 64.8164C27.0434 64.7994 27.1793 64.7791 27.3159 64.7532C27.4513 64.7267 27.5574 64.6973 27.6364 64.6618C27.8124 64.585 27.9365 64.4874 28.0144 64.3633C28.0923 64.2437 28.1318 64.0829 28.1318 63.882Z" fill="#39B54A"/>
<path d="M33.4164 63.5003C33.3002 64.0769 33.198 64.5768 33.1123 65.0011C33.0259 65.4248 32.9255 65.8666 32.8076 66.3287C32.7506 66.5556 32.6558 66.7762 32.5221 66.9945C32.3855 67.2146 32.2276 67.4025 32.0464 67.561C31.8524 67.7292 31.6458 67.8595 31.4213 67.9532C31.2012 68.0474 30.9705 68.0931 30.7324 68.0931C30.5202 68.0931 30.3493 68.0722 30.2178 68.031C30.0841 67.9887 29.9825 67.934 29.9075 67.8696C29.8341 67.8042 29.7856 67.7314 29.7596 67.6524C29.7326 67.5723 29.7207 67.4944 29.7207 67.4188C29.7207 67.2823 29.7664 67.1632 29.8657 67.0588C29.9633 66.9533 30.0908 66.9026 30.2567 66.9026C30.382 66.9026 30.4897 66.9358 30.5834 67.003C30.6754 67.0696 30.7549 67.1491 30.8215 67.2434C30.887 67.3336 30.9423 67.4346 30.9913 67.5458C31.0438 67.6592 31.0839 67.7466 31.1098 67.8093C31.208 67.7009 31.2994 67.5407 31.3886 67.324C31.4749 67.1091 31.5544 66.8219 31.6261 66.4608L32.2541 63.5003H31.5776L31.6594 63.1386H32.3348L32.3918 62.8706C32.4408 62.6511 32.5289 62.4356 32.6592 62.2251C32.789 62.0141 32.9458 61.8251 33.1315 61.6598C33.3086 61.4961 33.5123 61.3624 33.7436 61.2603C33.9767 61.1576 34.2086 61.1063 34.4427 61.1063C34.6453 61.1063 34.8157 61.1249 34.9477 61.1644C35.0837 61.2033 35.1886 61.2546 35.2654 61.3218C35.3353 61.385 35.3822 61.4566 35.4087 61.5345C35.4318 61.6129 35.4437 61.6902 35.4437 61.7681C35.4437 61.8183 35.4329 61.8759 35.4138 61.9379C35.3957 62.0028 35.363 62.0598 35.3207 62.1111C35.2699 62.1693 35.2168 62.2133 35.1593 62.2477C35.1023 62.2804 35.0188 62.2956 34.9088 62.2956C34.7835 62.2956 34.6752 62.2629 34.5855 62.1963C34.4929 62.1303 34.4168 62.0519 34.353 61.9599C34.2853 61.8646 34.2294 61.7602 34.1832 61.6524C34.1358 61.543 34.0985 61.4549 34.0669 61.3895C33.9716 61.499 33.8853 61.6598 33.8085 61.8691C33.7301 62.0779 33.6522 62.369 33.571 62.738L33.4841 63.1386H34.366L34.2814 63.5003H33.4164Z" fill="#39B54A"/>
<path d="M37.8452 63.7136C37.8452 63.8191 37.8305 63.9201 37.7984 64.0188C37.7685 64.1164 37.7245 64.2011 37.663 64.2699C37.5958 64.35 37.5242 64.4093 37.4514 64.4471C37.3741 64.4877 37.2691 64.5052 37.1337 64.5052C36.9588 64.5052 36.8206 64.4612 36.7218 64.3743C36.6203 64.2897 36.5701 64.1932 36.5701 64.0843C36.5701 63.985 36.5847 63.8981 36.6163 63.8242C36.6434 63.7542 36.6919 63.6436 36.7529 63.4969C36.5971 63.5629 36.4612 63.6419 36.3494 63.7373C36.236 63.8315 36.1283 63.9393 36.0244 64.06L35.4721 66.5375H34.3154L34.7995 64.3861C34.8125 64.3207 34.8305 64.2355 34.8548 64.13C34.8757 64.0256 34.8864 63.9376 34.8864 63.8687C34.8864 63.7328 34.8616 63.6408 34.8074 63.5923C34.7555 63.5432 34.6528 63.5178 34.5044 63.5178C34.4316 63.5178 34.3543 63.5279 34.2753 63.5533C34.1969 63.5759 34.1303 63.5979 34.0762 63.6194L34.1535 63.3039C34.3414 63.2278 34.5197 63.1612 34.6929 63.1059C34.865 63.0512 35.0292 63.0247 35.1838 63.0247C35.4591 63.0247 35.6639 63.0788 35.7993 63.1866C35.9376 63.2955 36.0273 63.4478 36.0702 63.6436H36.0955C36.3269 63.3993 36.5232 63.2289 36.6846 63.1319C36.846 63.0342 37.0181 62.9863 37.2042 62.9863C37.4023 62.9863 37.5597 63.0484 37.6731 63.1725C37.7877 63.2989 37.8452 63.4794 37.8452 63.7136Z" fill="#39B54A"/>
<path d="M39.7101 66.6541C39.4308 66.6541 39.1854 66.6168 38.9738 66.5412C38.7622 66.465 38.5873 66.3601 38.4496 66.2241C38.3148 66.0893 38.2143 65.9307 38.1461 65.7519C38.0778 65.5719 38.0439 65.3727 38.0439 65.156C38.0439 64.8813 38.0947 64.6138 38.1985 64.3543C38.3007 64.0953 38.453 63.8623 38.6561 63.6546C38.8474 63.4554 39.0923 63.2946 39.3857 63.1716C39.6791 63.0469 40.0018 62.986 40.3573 62.986C40.7742 62.986 41.0942 63.0526 41.3125 63.1841C41.5292 63.3189 41.6392 63.5181 41.6392 63.7844C41.6392 64.0383 41.5444 64.2567 41.3577 64.44C41.1675 64.6234 40.9091 64.7588 40.5875 64.8485C40.3279 64.9241 40.1096 64.9806 39.929 65.0116C39.7473 65.0454 39.5279 65.077 39.2655 65.1036C39.27 65.2057 39.2836 65.3219 39.3078 65.4494C39.3321 65.5792 39.3665 65.6881 39.4145 65.7789C39.4692 65.8844 39.5487 65.968 39.6514 66.0295C39.7552 66.091 39.8839 66.1231 40.0424 66.1231C40.3189 66.1231 40.5519 66.0701 40.7455 65.9617C40.9356 65.8557 41.1224 65.6881 41.2967 65.4568L41.5534 65.67C41.3407 65.9696 41.0738 66.2083 40.7455 66.386C40.4171 66.5655 40.0707 66.6541 39.7101 66.6541ZM40.5017 63.882C40.5017 63.6834 40.4656 63.5305 40.394 63.4261C40.3212 63.32 40.219 63.2653 40.091 63.2653C39.9127 63.2653 39.744 63.412 39.5832 63.7054C39.4218 63.9988 39.3214 64.3678 39.2751 64.8164C39.415 64.7994 39.5487 64.7791 39.687 64.7532C39.823 64.7267 39.929 64.6973 40.008 64.6618C40.1824 64.585 40.3088 64.4874 40.3877 64.3633C40.4622 64.2437 40.5017 64.0829 40.5017 63.882Z" fill="#39B54A"/>
<path d="M43.3159 66.6541C43.0226 66.6541 42.7788 66.6315 42.5864 66.5835C42.394 66.5344 42.2428 66.4746 42.1299 66.3996C42.016 66.3245 41.937 66.2444 41.8952 66.1592C41.8546 66.0723 41.832 65.9939 41.832 65.9189C41.832 65.784 41.8828 65.6661 41.9855 65.5623C42.0871 65.4618 42.2219 65.4122 42.3884 65.4122C42.5277 65.4122 42.6462 65.4477 42.7393 65.52C42.8352 65.5916 42.9131 65.683 42.9768 65.7936C43.0361 65.8935 43.0829 66.0052 43.1252 66.1254C43.1659 66.2467 43.1924 66.3364 43.2082 66.3951C43.4705 66.3951 43.6708 66.3398 43.8051 66.2258C43.9411 66.113 44.0083 65.9578 44.0083 65.7614C44.0083 65.6751 43.9902 65.6018 43.9479 65.5431C43.9067 65.485 43.8548 65.4342 43.7854 65.3902C43.7182 65.3473 43.6302 65.3067 43.5275 65.2683C43.4232 65.2277 43.3176 65.1904 43.2138 65.156C42.9328 65.0607 42.7083 64.9286 42.5452 64.7588C42.381 64.5895 42.2986 64.3785 42.2986 64.1269C42.2986 63.9774 42.3325 63.8369 42.4008 63.7054C42.4707 63.5739 42.5779 63.4515 42.7252 63.3387C42.8702 63.2314 43.0525 63.1451 43.2765 63.0819C43.4954 63.0182 43.7572 62.9849 44.0534 62.9849C44.23 62.9849 44.3942 62.9962 44.546 63.017C44.7 63.0374 44.8388 63.0763 44.9691 63.1327C45.0944 63.1903 45.1909 63.2608 45.2575 63.3516C45.3269 63.4402 45.3613 63.5502 45.3613 63.6783C45.3613 63.8064 45.3133 63.9176 45.2151 64.0084C45.1175 64.1021 44.9917 64.1466 44.8343 64.1466C44.7006 64.1466 44.5877 64.1133 44.498 64.0434C44.4089 63.9706 44.3366 63.8888 44.2796 63.7929C44.2221 63.6936 44.1792 63.5937 44.1454 63.4893C44.1138 63.3838 44.0867 63.298 44.0647 63.2281C43.9039 63.2365 43.7538 63.2969 43.6206 63.4058C43.4852 63.5147 43.4164 63.6495 43.4164 63.8115C43.4164 63.9091 43.435 63.987 43.4643 64.0439C43.4954 64.0987 43.5383 64.1449 43.593 64.1839C43.6534 64.2234 43.7295 64.2634 43.8221 64.3001C43.914 64.3373 44.0303 64.3785 44.1679 64.4237C44.485 64.5365 44.7231 64.6714 44.8845 64.8265C45.0459 64.9834 45.1271 65.1888 45.1271 65.4449C45.1271 65.6153 45.0854 65.7756 45.0098 65.9307C44.9302 66.0842 44.8202 66.2106 44.6752 66.315C44.5144 66.4267 44.3293 66.5119 44.1172 66.5683C43.9067 66.6253 43.6415 66.6541 43.3159 66.6541Z" fill="#39B54A"/>
<path d="M50.2396 66.01L50.1656 66.3187C49.9337 66.4095 49.7504 66.4795 49.6104 66.5269C49.4739 66.5748 49.3159 66.5985 49.1309 66.5985C48.8549 66.5985 48.6372 66.5285 48.4837 66.3903C48.3274 66.2509 48.2507 66.0783 48.2507 65.8735C48.2507 65.808 48.2529 65.7358 48.2591 65.6568C48.2653 65.5784 48.2851 65.4689 48.3212 65.3307L48.57 64.3997C48.5971 64.2993 48.6157 64.2096 48.627 64.1283C48.64 64.0482 48.6467 63.9811 48.6467 63.9308C48.6467 63.818 48.6208 63.7311 48.5661 63.6679C48.5141 63.6058 48.4233 63.5743 48.2947 63.5743C48.214 63.5743 48.104 63.6047 47.9556 63.6662C47.8106 63.7294 47.6458 63.8434 47.4613 64.011L46.883 66.5387H45.7246L46.7555 62.083C46.765 62.0429 46.7701 62.0057 46.7752 61.9718C46.7831 61.9357 46.7848 61.9064 46.7848 61.8827C46.7848 61.7998 46.769 61.7315 46.7408 61.683C46.7131 61.6339 46.6708 61.5944 46.6155 61.5645C46.5585 61.5334 46.4965 61.5131 46.4226 61.5024C46.3509 61.4917 46.2651 61.4787 46.1692 61.4697L46.233 61.2107L48.0763 61.1204L48.1152 61.1752L47.5561 63.5979H47.5792C47.7965 63.4078 48.021 63.2566 48.2552 63.1471C48.4899 63.0399 48.7393 62.9863 49.0084 62.9863C49.2668 62.9863 49.4711 63.0569 49.6161 63.1996C49.7622 63.3418 49.8361 63.5144 49.8361 63.717C49.8361 63.7712 49.8305 63.8468 49.822 63.9427C49.8141 64.0397 49.7955 64.1424 49.7645 64.253L49.5004 65.2359C49.4745 65.3188 49.4547 65.4114 49.4355 65.5169C49.4158 65.6224 49.409 65.7014 49.409 65.7556C49.409 65.8904 49.4355 65.9829 49.4982 66.0354C49.5568 66.0868 49.6595 66.1127 49.8096 66.1127C49.8807 66.1127 49.9597 66.0992 50.0488 66.076C50.1374 66.0506 50.2023 66.0275 50.2396 66.01Z" fill="#39B54A"/>
<path d="M54.3353 63.5003C54.2197 64.0769 54.1175 64.5768 54.0312 65.0011C53.946 65.4248 53.8467 65.8666 53.7277 66.3287C53.6695 66.5556 53.5759 66.7762 53.4382 66.9945C53.3056 67.2146 53.1465 67.4025 52.9626 67.561C52.773 67.7292 52.5648 67.8595 52.3414 67.9532C52.1185 68.0474 51.8888 68.0931 51.6524 68.0931C51.4397 68.0931 51.2693 68.0722 51.1367 68.031C51.0041 67.9887 50.902 67.934 50.8253 67.8696C50.7536 67.8042 50.7051 67.7314 50.6786 67.6524C50.6515 67.5723 50.6396 67.4944 50.6396 67.4188C50.6396 67.2823 50.687 67.1632 50.7847 67.0588C50.8823 66.9533 51.0126 66.9026 51.1745 66.9026C51.3009 66.9026 51.4115 66.9358 51.5024 67.003C51.5954 67.0696 51.6727 67.1491 51.7376 67.2434C51.8031 67.3336 51.8629 67.4346 51.912 67.5458C51.9622 67.6592 52.0017 67.7466 52.0305 67.8093C52.127 67.7009 52.22 67.5407 52.3058 67.324C52.3921 67.1091 52.4734 66.8219 52.5467 66.4608L53.1725 63.5003H52.4965L52.5795 63.1386H53.2531L53.3124 62.8706C53.3609 62.6511 53.4489 62.4356 53.5781 62.2251C53.7079 62.0141 53.8648 61.8251 54.0504 61.6598C54.2276 61.4961 54.4318 61.3624 54.6632 61.2603C54.8962 61.1576 55.1292 61.1063 55.3617 61.1063C55.5654 61.1063 55.7329 61.1249 55.8678 61.1644C56.0032 61.2033 56.107 61.2546 56.1843 61.3218C56.2543 61.385 56.3028 61.4566 56.3271 61.5345C56.3519 61.6129 56.3643 61.6902 56.3643 61.7681C56.3643 61.8183 56.3525 61.8759 56.3327 61.9379C56.3141 62.0028 56.2836 62.0598 56.2413 62.1111C56.1905 62.1693 56.1358 62.2133 56.0782 62.2477C56.0212 62.2804 55.9394 62.2956 55.8277 62.2956C55.7025 62.2956 55.5947 62.2629 55.5044 62.1963C55.4124 62.1303 55.3351 62.0519 55.2736 61.9599C55.2054 61.8646 55.149 61.7602 55.1021 61.6524C55.0553 61.543 55.0175 61.4549 54.987 61.3895C54.8894 61.499 54.8042 61.6598 54.7275 61.8691C54.6507 62.0779 54.5717 62.369 54.4916 62.738L54.403 63.1386H55.2844L55.2003 63.5003H54.3353Z" fill="#39B54A"/>
<path d="M59.2163 64.442C59.2163 64.7359 59.1605 65.0181 59.0471 65.2849C58.9387 65.5546 58.7785 65.7877 58.572 65.9846C58.3497 66.1979 58.0924 66.3626 57.7945 66.4771C57.4977 66.5928 57.1603 66.6515 56.7924 66.6515C56.2936 66.6515 55.893 66.5178 55.5866 66.2537C55.282 65.9891 55.1279 65.6274 55.1279 65.1704C55.1279 64.8601 55.1855 64.5717 55.3 64.3054C55.4174 64.038 55.5776 63.8061 55.7886 63.6109C55.9895 63.4162 56.2423 63.2616 56.543 63.1482C56.8426 63.0348 57.1637 62.9795 57.5107 62.9795C58.0388 62.9795 58.4557 63.1081 58.761 63.3666C59.064 63.6233 59.2163 63.981 59.2163 64.442ZM57.9835 64.0465C57.9835 63.7734 57.9378 63.5731 57.8464 63.445C57.7538 63.3158 57.6207 63.2509 57.4441 63.2509C57.2658 63.2509 57.1016 63.3242 56.9515 63.4664C56.8026 63.6109 56.6824 63.8208 56.5876 64.0989C56.5058 64.3308 56.4471 64.5802 56.4127 64.8499C56.3783 65.119 56.3608 65.3594 56.3608 65.5716C56.3608 65.8548 56.4065 66.0596 56.4996 66.186C56.5938 66.3146 56.7286 66.3778 56.9058 66.3778C57.0982 66.3778 57.2658 66.2983 57.4046 66.1431C57.544 65.9863 57.6551 65.7944 57.7358 65.5659C57.8182 65.3425 57.8791 65.0937 57.9214 64.8223C57.9632 64.5509 57.9835 64.2913 57.9835 64.0465Z" fill="#39B54A"/>
<path d="M63.7747 64.442C63.7747 64.7359 63.7171 65.0181 63.606 65.2849C63.4931 65.5546 63.3351 65.7877 63.1303 65.9846C62.908 66.1979 62.6479 66.3626 62.3505 66.4771C62.0526 66.5928 61.7192 66.6515 61.349 66.6515C60.8497 66.6515 60.4485 66.5178 60.1455 66.2537C59.8375 65.9891 59.6846 65.6274 59.6846 65.1704C59.6846 64.8601 59.7444 64.5717 59.8572 64.3054C59.974 64.038 60.1348 63.8061 60.343 63.6109C60.5501 63.4162 60.7995 63.2616 61.1002 63.1482C61.3976 63.0348 61.7209 62.9795 62.069 62.9795C62.5954 62.9795 63.0113 63.1081 63.3159 63.3666C63.6206 63.6233 63.7747 63.981 63.7747 64.442ZM62.5401 64.0465C62.5401 63.7734 62.4944 63.5731 62.4025 63.445C62.3105 63.3158 62.1768 63.2509 62.0013 63.2509C61.8224 63.2509 61.6588 63.3242 61.5076 63.4664C61.3581 63.6109 61.2385 63.8208 61.1442 64.0989C61.0641 64.3308 61.0043 64.5802 60.9699 64.8499C60.9343 65.119 60.9174 65.3594 60.9174 65.5716C60.9174 65.8548 60.9637 66.0596 61.0562 66.186C61.151 66.3146 61.2847 66.3778 61.4636 66.3778C61.6543 66.3778 61.8207 66.2983 61.9607 66.1431C62.1017 65.9863 62.2123 65.7944 62.2924 65.5659C62.3742 65.3425 62.4357 65.0937 62.4798 64.8223C62.5204 64.5509 62.5401 64.2913 62.5401 64.0465Z" fill="#39B54A"/>
<path d="M66.6918 66.1011H66.6625C66.5824 66.1716 66.5045 66.2354 66.4306 66.2918C66.3561 66.3499 66.2596 66.408 66.1429 66.4667C66.0328 66.5226 65.9262 66.5654 65.8218 66.5976C65.718 66.6286 65.5989 66.6439 65.4647 66.6439C65.055 66.6439 64.7503 66.5242 64.545 66.2856C64.3379 66.0469 64.2363 65.7185 64.2363 65.3044C64.2363 64.9856 64.2916 64.6866 64.4033 64.4067C64.5145 64.1257 64.668 63.8797 64.8592 63.667C65.0483 63.4571 65.2728 63.2918 65.5312 63.1688C65.7913 63.0458 66.0627 62.9854 66.3482 62.9854C66.5626 62.9854 66.7415 63.0091 66.8871 63.0542C67.0326 63.0999 67.1523 63.1609 67.2493 63.2337L67.5066 62.0956C67.5145 62.0629 67.5213 62.0285 67.5258 61.9895C67.532 61.9517 67.5342 61.9201 67.5342 61.8976C67.5342 61.8203 67.5156 61.7543 67.4767 61.7012C67.4361 61.6482 67.3813 61.6053 67.3119 61.5748C67.2454 61.5455 67.1709 61.5224 67.0874 61.5083C67.0033 61.4947 66.9108 61.4823 66.8132 61.4676L66.873 61.2109L68.8342 61.1206L68.8731 61.1742L67.9326 65.2468C67.9162 65.3145 67.8976 65.4037 67.8739 65.516C67.8525 65.6266 67.8412 65.7089 67.8412 65.7654C67.8412 65.898 67.8711 65.9905 67.9315 66.0401C67.9901 66.0904 68.0945 66.1146 68.244 66.1146C68.3089 66.1146 68.3879 66.1022 68.4799 66.0768C68.5724 66.0514 68.6373 66.0305 68.6757 66.0136L68.5972 66.3285C68.3676 66.4204 68.182 66.4887 68.0454 66.5367C67.9094 66.5852 67.7492 66.6094 67.5675 66.6094C67.3272 66.6094 67.1365 66.5615 66.9926 66.4684C66.8493 66.3736 66.7494 66.2512 66.6918 66.1011ZM67.1037 63.8605C67.1037 63.8018 67.097 63.742 67.0823 63.6805C67.0642 63.619 67.036 63.5592 66.9915 63.5045C66.9463 63.4453 66.8921 63.399 66.8267 63.3663C66.7612 63.3318 66.6721 63.3149 66.5609 63.3149C66.4114 63.3149 66.2732 63.3713 66.1423 63.4808C66.0125 63.592 65.8985 63.742 65.7964 63.9327C65.7033 64.1116 65.6294 64.3215 65.573 64.5652C65.516 64.8084 65.4883 65.0601 65.4883 65.3191C65.4883 65.4319 65.4974 65.5385 65.516 65.6367C65.5335 65.7343 65.5628 65.8167 65.6012 65.8844C65.6429 65.9561 65.7011 66.0125 65.771 66.0531C65.8444 66.0909 65.9313 66.1129 66.0413 66.1129C66.1508 66.1129 66.2585 66.0791 66.3663 66.0153C66.4752 65.9516 66.5739 65.8726 66.6597 65.7789L67.1037 63.8605Z" fill="#39B54A"/>
<path d="M75.1013 64.3273C75.1013 64.6393 75.0465 64.9378 74.9343 65.2216C74.8237 65.5043 74.6747 65.7503 74.4812 65.9585C74.2837 66.1735 74.0608 66.3388 73.8131 66.455C73.566 66.5707 73.2935 66.6294 72.9939 66.6294C72.7704 66.6294 72.5916 66.6085 72.4539 66.5645C72.3162 66.5216 72.1989 66.4612 72.0996 66.3817L71.8863 67.3149C71.879 67.342 71.8716 67.3764 71.866 67.4148C71.8575 67.4531 71.8541 67.4802 71.8541 67.4983C71.8541 67.5513 71.866 67.5998 71.8897 67.6444C71.9128 67.6884 71.9484 67.7211 71.9952 67.7414C72.046 67.7663 72.1272 67.7888 72.2429 67.8125C72.3557 67.8334 72.4505 67.847 72.5267 67.852L72.4708 68.093H69.9414L69.9973 67.852C70.0593 67.847 70.1327 67.8379 70.2252 67.8249C70.3172 67.8131 70.386 67.799 70.4317 67.7855C70.5118 67.7595 70.5716 67.7189 70.6145 67.6625C70.6552 67.6094 70.6862 67.5344 70.7042 67.4413L71.4011 64.3882C71.414 64.3183 71.4332 64.2331 71.453 64.1276C71.4772 64.0221 71.4891 63.9363 71.4891 63.868C71.4891 63.7456 71.4626 63.6553 71.4112 63.5995C71.3587 63.5458 71.2577 63.5182 71.1048 63.5182C71.0349 63.5182 70.9593 63.5301 70.8763 63.5526C70.7951 63.5763 70.7274 63.5983 70.6726 63.6192L70.7505 63.3038C70.9401 63.2282 71.1229 63.1605 71.2944 63.1058C71.4676 63.051 71.6318 63.0245 71.7876 63.0245C71.9156 63.0245 72.0296 63.0364 72.1261 63.0595C72.226 63.0854 72.3106 63.1249 72.3873 63.1763C72.45 63.2237 72.5019 63.275 72.5442 63.3393C72.5859 63.4025 72.6181 63.4674 72.6474 63.5306H72.6757C72.8872 63.3461 73.0971 63.2067 73.2991 63.1176C73.5034 63.0307 73.6963 62.9861 73.882 62.9861C74.286 62.9861 74.5923 63.1058 74.7966 63.3444C75.0003 63.5837 75.1013 63.9109 75.1013 64.3273ZM73.5446 65.7057C73.6439 65.5015 73.7206 65.2882 73.7708 65.0659C73.8222 64.8408 73.8492 64.5897 73.8492 64.3121C73.8492 64.1981 73.8391 64.0931 73.8244 63.9961C73.8081 63.8991 73.7787 63.8155 73.7364 63.7456C73.6946 63.6722 73.6377 63.6175 73.566 63.5769C73.4955 63.5385 73.4075 63.5182 73.2991 63.5182C73.1773 63.5182 73.0571 63.556 72.9369 63.6327C72.8167 63.7083 72.7315 63.7811 72.6757 63.8494L72.2401 65.7723C72.2401 65.9325 72.2869 66.0674 72.3817 66.1735C72.4742 66.2807 72.6079 66.332 72.7834 66.332C72.9267 66.332 73.0644 66.2761 73.1993 66.165C73.333 66.0521 73.4492 65.8998 73.5446 65.7057Z" fill="#39B54A"/>
<path d="M77.2413 66.6541C76.9603 66.6541 76.7148 66.6168 76.5038 66.5412C76.2933 66.465 76.1184 66.3601 75.9808 66.2241C75.8465 66.0893 75.7438 65.9307 75.6755 65.7519C75.6078 65.5719 75.5723 65.3727 75.5723 65.156C75.5723 64.8813 75.6253 64.6138 75.7286 64.3543C75.8307 64.0953 75.9842 63.8623 76.1873 63.6546C76.378 63.4554 76.62 63.2946 76.9157 63.1716C77.2085 63.0469 77.5335 62.986 77.889 62.986C78.3054 62.986 78.6236 63.0526 78.8425 63.1841C79.0609 63.3189 79.1687 63.5181 79.1687 63.7844C79.1687 64.0383 79.0756 64.2567 78.886 64.44C78.697 64.6234 78.4402 64.7588 78.1169 64.8485C77.8585 64.9241 77.6402 64.9806 77.4596 65.0116C77.2785 65.0454 77.0573 65.077 76.7955 65.1036C76.8023 65.2057 76.8153 65.3219 76.8384 65.4494C76.8615 65.5792 76.8976 65.6881 76.9433 65.7789C76.9998 65.8844 77.0782 65.968 77.182 66.0295C77.2836 66.091 77.415 66.1231 77.5747 66.1231C77.8484 66.1231 78.0819 66.0701 78.2755 65.9617C78.4668 65.8557 78.6507 65.6881 78.8262 65.4568L79.0823 65.67C78.8713 65.9696 78.6044 66.2083 78.2755 66.386C77.9482 66.5655 77.6029 66.6541 77.2413 66.6541ZM78.0317 63.882C78.0317 63.6834 77.9968 63.5305 77.924 63.4261C77.8523 63.32 77.7513 63.2653 77.6227 63.2653C77.4421 63.2653 77.2723 63.412 77.1126 63.7054C76.9529 63.9988 76.8508 64.3678 76.8068 64.8164C76.9445 64.7994 77.0804 64.7791 77.2153 64.7532C77.3518 64.7267 77.4579 64.6973 77.5386 64.6618C77.7135 64.585 77.8405 64.4874 77.9166 64.3633C77.9939 64.2437 78.0317 64.0829 78.0317 63.882Z" fill="#39B54A"/>
<path d="M83.646 64.442C83.646 64.7359 83.589 65.0181 83.4784 65.2849C83.3667 65.5546 83.2076 65.7877 83.0034 65.9846C82.7805 66.1979 82.5204 66.3626 82.2236 66.4771C81.9251 66.5928 81.5917 66.6515 81.2215 66.6515C80.7239 66.6515 80.3227 66.5178 80.0175 66.2537C79.7117 65.9891 79.5576 65.6274 79.5576 65.1704C79.5576 64.8601 79.614 64.5717 79.7303 64.3054C79.8476 64.038 80.0067 63.8061 80.2166 63.6109C80.4209 63.4162 80.672 63.2616 80.9721 63.1482C81.2695 63.0348 81.5939 62.9795 81.942 62.9795C82.4696 62.9795 82.8837 63.1081 83.1895 63.3666C83.4942 63.6233 83.646 63.981 83.646 64.442ZM82.4154 64.0465C82.4154 63.7734 82.3686 63.5731 82.2761 63.445C82.1847 63.3158 82.0509 63.2509 81.8755 63.2509C81.6972 63.2509 81.5302 63.3242 81.3835 63.4664C81.2317 63.6109 81.1104 63.8208 81.0184 64.0989C80.9366 64.3308 80.8779 64.5802 80.8435 64.8499C80.8079 65.119 80.7916 65.3594 80.7916 65.5716C80.7916 65.8548 80.8373 66.0596 80.9293 66.186C81.0229 66.3146 81.1583 66.3778 81.3355 66.3778C81.5273 66.3778 81.6938 66.2983 81.8326 66.1431C81.9719 65.9863 82.0848 65.7944 82.1655 65.5659C82.2479 65.3425 82.3099 65.0937 82.3511 64.8223C82.3946 64.5509 82.4154 64.2913 82.4154 64.0465Z" fill="#39B54A"/>
<path d="M88.4046 64.3273C88.4046 64.6393 88.3504 64.9378 88.2376 65.2216C88.1287 65.5043 87.9769 65.7503 87.7856 65.9585C87.5859 66.1735 87.3653 66.3388 87.1164 66.455C86.8687 66.5707 86.5968 66.6294 86.3 66.6294C86.0743 66.6294 85.8938 66.6085 85.7572 66.5645C85.6195 66.5216 85.5022 66.4612 85.4023 66.3817L85.1907 67.3149C85.1823 67.342 85.1755 67.3764 85.1698 67.4148C85.1619 67.4531 85.1586 67.4802 85.1586 67.4983C85.1586 67.5513 85.1704 67.5998 85.1924 67.6444C85.2172 67.6884 85.2517 67.7211 85.2985 67.7414C85.3493 67.7663 85.4311 67.7888 85.5473 67.8125C85.6607 67.8334 85.7566 67.847 85.8323 67.852L85.7747 68.093H83.2441L83.3 67.852C83.3621 67.847 83.436 67.8379 83.5274 67.8249C83.6194 67.8131 83.6876 67.799 83.7339 67.7855C83.8123 67.7595 83.8744 67.7189 83.9173 67.6625C83.9585 67.6094 83.9895 67.5344 84.0075 67.4413L84.7027 64.3882C84.7173 64.3183 84.7365 64.2331 84.7574 64.1276C84.7805 64.0221 84.7924 63.9363 84.7924 63.868C84.7924 63.7456 84.7647 63.6553 84.7128 63.5995C84.662 63.5458 84.561 63.5182 84.407 63.5182C84.3382 63.5182 84.2609 63.5301 84.1808 63.5526C84.0973 63.5763 84.0307 63.5983 83.9759 63.6192L84.0527 63.3038C84.2423 63.2282 84.4245 63.1605 84.5989 63.1058C84.7721 63.051 84.934 63.0245 85.0903 63.0245C85.2201 63.0245 85.334 63.0364 85.4305 63.0595C85.5304 63.0854 85.6162 63.1249 85.6912 63.1763C85.7533 63.2237 85.8052 63.275 85.8464 63.3393C85.8887 63.4025 85.9225 63.4674 85.9507 63.5306H85.979C86.1922 63.3461 86.4004 63.2067 86.6024 63.1176C86.8055 63.0307 87.0008 62.9861 87.1853 62.9861C87.5909 62.9861 87.8968 63.1058 88.0999 63.3444C88.3036 63.5837 88.4046 63.9109 88.4046 64.3273ZM86.8473 65.7057C86.95 65.5015 87.0239 65.2882 87.0741 65.0659C87.1272 64.8408 87.152 64.5897 87.152 64.3121C87.152 64.1981 87.1441 64.0931 87.1277 63.9961C87.1114 63.8991 87.0809 63.8155 87.0403 63.7456C86.9979 63.6722 86.9427 63.6175 86.871 63.5769C86.7993 63.5385 86.7108 63.5182 86.6024 63.5182C86.4805 63.5182 86.3604 63.556 86.2402 63.6327C86.1211 63.7083 86.0348 63.7811 85.979 63.8494L85.5445 65.7723C85.5445 65.9325 85.5919 66.0674 85.6839 66.1735C85.7792 66.2807 85.9124 66.332 86.0873 66.332C86.2306 66.332 86.3694 66.2761 86.5037 66.165C86.6368 66.0521 86.7531 65.8998 86.8473 65.7057Z" fill="#39B54A"/>
<path d="M91.247 61.1752L90.3053 65.2715C90.2906 65.3392 90.2715 65.4295 90.2483 65.5406C90.2263 65.6523 90.2145 65.7358 90.2145 65.7889C90.2145 65.9249 90.2483 66.0174 90.316 66.0659C90.3837 66.1156 90.496 66.1398 90.6512 66.1398C90.7082 66.1398 90.7877 66.128 90.8876 66.102C90.988 66.0789 91.058 66.0575 91.1003 66.0388L91.0236 66.3531C90.7945 66.4445 90.6027 66.5133 90.4554 66.5613C90.3087 66.6093 90.1428 66.6341 89.9544 66.6341C89.6762 66.6341 89.4545 66.5658 89.2931 66.4293C89.1329 66.2916 89.0527 66.119 89.0527 65.9074C89.0527 65.8227 89.0595 65.7319 89.0747 65.6388C89.0894 65.5457 89.1075 65.4543 89.1261 65.3702L89.8827 62.083C89.8917 62.0424 89.8985 62.0057 89.9013 61.9719C89.9075 61.9346 89.9109 61.9059 89.9109 61.8827C89.9109 61.7998 89.8968 61.7327 89.8675 61.6824C89.841 61.6345 89.7975 61.595 89.7428 61.5645C89.6864 61.5335 89.6226 61.5132 89.5498 61.5013C89.4776 61.4912 89.3947 61.4787 89.2987 61.4697L89.3597 61.2107L91.2109 61.1205L91.247 61.1752Z" fill="#39B54A"/>
<path d="M93.0861 66.6541C92.8074 66.6541 92.5585 66.6168 92.3498 66.5412C92.1365 66.465 91.9638 66.3601 91.8256 66.2241C91.6902 66.0893 91.5892 65.9307 91.5209 65.7519C91.4526 65.5719 91.4199 65.3727 91.4199 65.156C91.4199 64.8813 91.4718 64.6138 91.5745 64.3543C91.6755 64.0953 91.829 63.8623 92.0321 63.6546C92.2228 63.4554 92.4671 63.2946 92.76 63.1716C93.0539 63.0469 93.3795 62.986 93.7333 62.986C94.1513 62.986 94.4684 63.0526 94.6868 63.1841C94.904 63.3189 95.0135 63.5181 95.0135 63.7844C95.0135 64.0383 94.9198 64.2567 94.7308 64.44C94.5401 64.6234 94.2851 64.7588 93.9618 64.8485C93.7039 64.9241 93.485 64.9806 93.3033 65.0116C93.1239 65.0454 92.9021 65.077 92.6415 65.1036C92.6471 65.2057 92.6601 65.3219 92.6832 65.4494C92.7069 65.5792 92.7419 65.6881 92.7882 65.7789C92.8446 65.8844 92.9236 65.968 93.0268 66.0295C93.1273 66.091 93.2599 66.1231 93.4179 66.1231C93.6949 66.1231 93.9285 66.0701 94.1214 65.9617C94.3127 65.8557 94.4967 65.6881 94.6716 65.4568L94.9272 65.67C94.7167 65.9696 94.4493 66.2083 94.1214 66.386C93.7931 66.5655 93.4466 66.6541 93.0861 66.6541ZM93.8771 63.882C93.8771 63.6834 93.8405 63.5305 93.7688 63.4261C93.6971 63.32 93.595 63.2653 93.4675 63.2653C93.287 63.2653 93.1171 63.412 92.9586 63.7054C92.7978 63.9988 92.6956 64.3678 92.6511 64.8164C92.7882 64.7994 92.9253 64.7791 93.0618 64.7532C93.1955 64.7267 93.3033 64.6973 93.3823 64.6618C93.5567 64.585 93.6853 64.4874 93.762 64.3633C93.8371 64.2437 93.8771 64.0829 93.8771 63.882Z" fill="#39B54A"/>
<path d="M32.3462 44.0802H17.4721C16.663 44.0802 16 44.7341 16 45.5325V57.4433C16 59.0096 16.9197 59.7245 19.5947 59.7245C20.098 59.7245 21.4933 59.6703 22.5913 59.0835C23.6865 58.5001 26.0692 57.1352 27.4109 57.0918C27.974 57.0766 28.1755 57.1505 28.2607 57.085C28.3464 57.019 28.4407 56.9451 28.2861 56.6963C28.1252 56.4373 26.4958 53.7454 26.4297 53.6235C26.3649 53.505 26.2988 53.3623 26.5307 53.2765C26.7626 53.1907 30.6885 51.7249 30.8132 51.6656C30.9453 51.6086 31.1049 51.5014 30.9238 51.2678C30.7427 51.032 29.6678 49.7337 29.5821 49.6384C29.4974 49.5402 29.3056 49.4589 29.1499 49.6113C28.993 49.7563 26.6312 52.2039 26.5008 52.3416C26.3694 52.4843 26.256 52.6496 25.7262 52.6547C25.2037 52.6632 25.154 52.7405 25.2178 52.8934C25.2849 53.0542 26.4608 55.1322 26.5505 55.3094C26.6475 55.4905 26.7327 55.859 26.4151 55.9701C26.0991 56.0739 23.3784 57.0783 23.2537 57.1183C23.1324 57.1623 23.0021 57.1984 23.0021 56.94C23.0021 56.6861 22.9665 56.1095 22.8966 55.8759C22.8209 55.6372 22.6545 55.1407 22.3538 54.6284C22.0468 54.1155 21.7856 53.5761 21.64 52.9052C21.4933 52.2355 21.5447 51.5184 21.7613 50.8419C21.9763 50.1637 22.448 49.4369 23.098 48.924C23.7463 48.4123 24.4104 48.0574 25.4452 47.8492C26.485 47.641 27.4459 47.9925 27.8426 48.1685C28.2403 48.3468 28.5919 48.5556 28.738 48.6391C28.8841 48.7254 29.0037 48.7339 29.1538 48.5607C29.3056 48.3909 29.5217 48.1685 29.7576 48.4648L32.2813 51.5968C32.3671 51.7029 32.4168 51.8157 32.2323 51.8665C32.0399 51.9161 31.7374 51.9805 31.659 52.0002C31.5828 52.0239 31.4869 52.1085 31.5721 52.2355C31.659 52.3619 32.7739 54.1866 32.8191 54.2718C32.8698 54.3542 32.9951 54.581 32.735 54.7125C32.4783 54.8484 32.2356 54.9681 32.1956 54.9985C32.151 55.025 31.9998 55.0978 31.9998 55.4516V56.8859C31.9998 57.0563 32.0805 57.4845 31.2759 57.4845L29.4822 57.476C29.3513 57.476 29.0839 57.498 28.9191 57.858C28.7521 58.2265 28.1196 59.7245 28.1196 59.7245H32.3462C33.1565 59.7245 33.82 59.0734 33.82 58.275V45.5325C33.82 44.7341 33.1565 44.0802 32.3462 44.0802ZM29.0246 45.8422C28.9541 45.9839 28.36 47.0948 28.1997 47.386C28.0389 47.6732 27.7072 47.4362 27.4561 47.369C26.867 47.1986 25.8125 47.1716 24.9227 47.3572C24.0323 47.5332 23.1679 48.0676 22.7154 48.4445C22.2629 48.8231 21.5746 49.552 21.2682 50.3735C20.9663 51.1973 20.9421 51.6538 20.9212 52.1887C20.9071 52.7219 21.1587 53.4802 21.2281 53.6596C21.2981 53.8402 21.8099 54.9494 22.0372 55.4285C22.2629 55.9081 22.1326 56.1715 22.0265 56.3566C21.921 56.54 21.7461 56.632 21.5142 56.7047C21.2823 56.7803 20.8557 56.8689 20.2035 57.0918C19.5496 57.3102 18.8516 57.7034 18.8516 57.7034C18.6135 56.9852 18.4081 56.9062 17.8749 55.9949C17.1713 54.7971 16.9648 53.5152 16.9648 52.1571C16.9648 50.7967 17.3666 49.613 17.5934 49.1119C18.2716 47.6308 19.1433 46.8725 19.4034 46.6034C19.6647 46.3376 20.5544 45.6859 21.0775 45.4112C21.6852 45.0975 22.5862 44.711 23.6515 44.527C24.7173 44.3408 25.9129 44.4198 26.1933 44.4537C27.5108 44.6196 28.5163 45.032 28.874 45.208C29.2351 45.3903 29.0952 45.704 29.0246 45.8422ZM30.9041 53.2686C31.11 53.2686 31.0942 53.1236 31.075 53.0813C31.0558 53.0485 30.9543 52.8748 30.8939 52.7405C30.8335 52.6073 30.6722 52.6293 30.6231 52.6547C30.5684 52.6784 29.8089 53.0164 29.7519 53.0502C29.5984 53.1388 29.7034 53.2686 29.8033 53.2686H30.9041Z" fill="#ED2227"/>
</g>
</g>
<rect x="1" y="1" width="110" height="110" rx="9" stroke="black" stroke-opacity="0.1" stroke-width="2"/>
<defs>
<clipPath id="clip0_786_638">
<rect x="2" y="2" width="108" height="108" rx="8" fill="white"/>
</clipPath>
<clipPath id="clip1_786_638">
<rect width="80" height="24.0931" fill="white" transform="translate(16 44)"/>
</clipPath>
</defs>
</svg>
