<svg width="112" height="112" viewBox="0 0 112 112" fill="none" xmlns="http://www.w3.org/2000/svg">
<g clip-path="url(#clip0_786_550)">
<rect x="2" y="2" width="108" height="108" rx="8" fill="white"/>
<path d="M96 63.6191C96 64.5291 95.2655 65.2606 94.3592 65.2606H17.6386C16.733 65.2606 16 64.5291 16 63.6191V48.6416C16 47.7368 16.733 47.0001 17.6386 47.0001H94.3592C95.2655 47.0001 96 47.7368 96 48.6416V63.6191Z" fill="#0093D0"/>
<path d="M31.3486 60.4666C31.3486 61.1015 30.8361 61.6104 30.2004 61.6104H21.8157C21.1866 61.6104 20.6734 61.1015 20.6734 60.4666V52.0855C20.6734 51.4499 21.1866 50.9396 21.8157 50.9396H30.2004C30.8361 50.9396 31.3486 51.4499 31.3486 52.0855V60.4666Z" fill="#FCEE21"/>
<path d="M40.0924 54.2061C39.9258 53.9879 39.7096 53.8094 39.4456 53.684C39.1816 53.5565 38.8586 53.4945 38.4774 53.4945C38.175 53.4945 37.8742 53.5587 37.591 53.6899C37.3984 53.7829 37.2075 53.906 37.0172 54.0594V51.4857C37.0172 51.412 36.9963 51.3471 36.9524 51.2881C36.9163 51.238 36.8536 51.1959 36.7689 51.1642C36.6995 51.1391 36.6163 51.117 36.5108 51.1059C36.4075 51.0926 36.2851 51.0876 36.1354 51.0876C35.9784 51.0876 35.8589 51.0928 35.7549 51.1059C35.6525 51.117 35.5639 51.1391 35.4953 51.1642C35.4119 51.1959 35.3515 51.238 35.3133 51.2881C35.2721 51.3471 35.2499 51.412 35.2499 51.4857V59.2149C35.2499 59.2886 35.2735 59.3543 35.3164 59.411C35.3592 59.4612 35.4182 59.4995 35.5008 59.5283C35.5693 59.5526 35.6542 59.5718 35.7596 59.5821C35.8591 59.5903 35.9808 59.5984 36.1357 59.5984C36.2816 59.5984 36.4078 59.5903 36.5059 59.5821C36.6135 59.5719 36.6999 59.5526 36.7655 59.5283C36.8503 59.4995 36.9101 59.4612 36.9507 59.411C36.9942 59.3543 37.0178 59.2886 37.0178 59.2149V55.7784C37.2059 55.5468 37.3865 55.3691 37.5583 55.2452C37.7249 55.1265 37.8887 55.0653 38.0421 55.0653C38.1734 55.0653 38.2803 55.0926 38.3725 55.1398C38.4603 55.1811 38.5332 55.2452 38.5922 55.33C38.6526 55.42 38.7013 55.5306 38.7337 55.6582C38.7661 55.7917 38.7831 55.9834 38.7831 56.2231V59.2149C38.7831 59.2886 38.8096 59.3542 38.8502 59.411C38.8893 59.4612 38.9511 59.4981 39.0322 59.5283C39.0979 59.5526 39.1834 59.5718 39.2926 59.5821C39.3921 59.5903 39.5197 59.5984 39.6694 59.5984C39.8109 59.5984 39.9364 59.5903 40.0403 59.5821C40.1474 59.5719 40.2335 59.5526 40.3014 59.5283C40.3804 59.498 40.4408 59.4612 40.4828 59.411C40.5211 59.3543 40.5485 59.2886 40.5485 59.2149V56.0018C40.5485 55.6051 40.5123 55.257 40.4408 54.976C40.3708 54.6833 40.2531 54.4259 40.0924 54.2061Z" fill="#FCEE21"/>
<path d="M46.5998 53.6166C46.482 53.5982 46.3322 53.5915 46.1618 53.5915C45.9317 53.5915 45.7776 53.5982 45.6795 53.6166C45.5667 53.6402 45.4849 53.6755 45.4258 53.7272C45.3654 53.7781 45.3226 53.8666 45.2937 53.9986L44.2864 57.1895L43.1824 54.0627C43.1536 53.9631 43.1235 53.8887 43.088 53.8282C43.0497 53.7522 42.9855 53.691 42.8963 53.6549C42.8277 53.6247 42.737 53.6084 42.6212 53.5996C42.5209 53.5937 42.3867 53.5914 42.2112 53.5914C42.0239 53.5914 41.8683 53.5981 41.751 53.6165C41.608 53.6379 41.5062 53.6763 41.4361 53.7367C41.3822 53.7839 41.318 53.8724 41.318 54.0169C41.318 54.1047 41.3416 54.2249 41.4006 54.3783L43.2059 59.2019C43.231 59.2705 43.2721 59.3391 43.3238 59.401C43.3446 59.4276 43.3666 59.4489 43.3938 59.4733L42.7375 61.1192C42.7013 61.2099 42.6881 61.2866 42.694 61.3596C42.6982 61.4209 42.7264 61.5108 42.8334 61.5853C42.8961 61.6273 42.9883 61.6576 43.1055 61.6738C43.2059 61.684 43.3363 61.6959 43.503 61.6959C43.8179 61.6959 44.059 61.6738 44.2279 61.6259C44.4292 61.5705 44.5627 61.471 44.6136 61.3206L45.2478 59.4637L46.9955 54.3185C47.0308 54.2057 47.0486 54.1106 47.0486 54.0228C47.0486 53.9063 47.0043 53.806 46.9144 53.7337C46.845 53.6762 46.7406 53.6379 46.5998 53.6166Z" fill="#FCEE21"/>
<path d="M51.7515 57.1942C51.7132 57.3778 51.6491 57.5467 51.573 57.6905C51.4971 57.8329 51.3974 57.9464 51.2832 58.029C51.1703 58.1109 51.0361 58.1492 50.8739 58.1492C50.7006 58.1492 50.5361 58.0895 50.3746 57.9656C50.2022 57.838 50.0236 57.6529 49.8355 57.4214V55.7872C49.9388 55.6552 50.0377 55.5416 50.1283 55.448C50.2287 55.3484 50.3209 55.2695 50.4152 55.2083C50.5051 55.1515 50.5914 55.1095 50.6711 55.0822C50.7559 55.0571 50.8406 55.0439 50.924 55.0439C51.0871 55.0439 51.2205 55.0822 51.3296 55.1582C51.4396 55.2415 51.5338 55.3521 51.6025 55.4937C51.6769 55.6397 51.73 55.8108 51.7603 56.0018C51.7912 56.2009 51.8082 56.4089 51.8082 56.622C51.8082 56.813 51.7875 57.0054 51.7515 57.1942ZM53.1222 54.4045C52.9378 54.1228 52.6967 53.9001 52.4098 53.7371C52.1163 53.5734 51.7646 53.4945 51.3568 53.4945C51.1642 53.4945 50.9762 53.5143 50.803 53.5557C50.6288 53.5948 50.4578 53.6604 50.2956 53.7452C50.1357 53.8307 49.9755 53.9362 49.8221 54.0616C49.7521 54.1198 49.6821 54.181 49.6054 54.2496V53.9679C49.6054 53.903 49.5886 53.8426 49.5537 53.788C49.5176 53.7327 49.4601 53.6906 49.3842 53.6604C49.3244 53.6375 49.2462 53.6198 49.1548 53.608C49.0664 53.5963 48.9638 53.5917 48.8422 53.5917C48.7124 53.5917 48.6062 53.5961 48.5184 53.608C48.4248 53.6197 48.3504 53.6375 48.2913 53.6604C48.2102 53.6906 48.1577 53.7327 48.1195 53.788C48.0818 53.8411 48.0664 53.903 48.0664 53.9679V61.2981C48.0664 61.3696 48.0892 61.4308 48.1312 61.4876C48.1694 61.5466 48.2321 61.5857 48.317 61.6174C48.3826 61.644 48.4696 61.6639 48.5736 61.6771C48.6746 61.6868 48.803 61.6955 48.9505 61.6955C49.1016 61.6955 49.23 61.6868 49.328 61.6771C49.4342 61.6638 49.5191 61.644 49.5884 61.6174C49.6718 61.5857 49.7328 61.5466 49.7719 61.4876C49.8125 61.4308 49.8352 61.3696 49.8352 61.2981V59.1492C49.8802 59.1883 49.9251 59.2288 49.9703 59.2613C50.0942 59.3564 50.2217 59.4383 50.3478 59.4995C50.4768 59.5666 50.6148 59.6182 50.7527 59.647C50.8861 59.6787 51.0396 59.6978 51.2047 59.6978C51.5912 59.6978 51.9444 59.6204 52.2504 59.467C52.5565 59.3188 52.8153 59.099 53.0159 58.8181C53.2201 58.546 53.3765 58.2045 53.4834 57.8188C53.5844 57.4317 53.6346 56.9936 53.6346 56.5195C53.6346 56.1102 53.5947 55.726 53.5129 55.3683C53.4333 55.0011 53.3014 54.6803 53.1222 54.4045Z" fill="#FCEE21"/>
<path d="M57.017 54.9152C57.1357 54.8562 57.2795 54.8274 57.444 54.8274C57.7706 54.8274 58.0015 54.9248 58.1549 55.1246C58.2928 55.309 58.365 55.5582 58.3768 55.8731H56.4624C56.4792 55.7573 56.4963 55.6438 56.531 55.5413C56.5724 55.3953 56.6372 55.2655 56.7177 55.1578C56.7973 55.0605 56.8982 54.9764 57.017 54.9152ZM59.4801 54.2729C59.2655 54.0273 58.9919 53.8326 58.6593 53.6984C58.3304 53.559 57.9359 53.4949 57.478 53.4949C57.0473 53.4949 56.652 53.5657 56.3054 53.7109C55.9559 53.8525 55.6513 54.0715 55.4072 54.3415C55.1653 54.618 54.9743 54.9565 54.8453 55.3488C54.7213 55.7345 54.6572 56.1733 54.6572 56.6519C54.6572 57.1541 54.7213 57.6017 54.8392 57.977C54.9603 58.3627 55.1497 58.6857 55.3982 58.9416C55.6497 59.1953 55.9646 59.3885 56.337 59.5131C56.6991 59.6333 57.1275 59.6982 57.6076 59.6982C57.8731 59.6982 58.1238 59.6769 58.3583 59.6444C58.5847 59.6112 58.7986 59.5714 58.9829 59.5257C59.1591 59.4763 59.3126 59.4305 59.432 59.3804C59.6091 59.3052 59.6614 59.2646 59.6916 59.2337C59.7284 59.1953 59.7549 59.1547 59.7765 59.1164C59.8001 59.0729 59.8156 59.0264 59.8258 58.9667C59.8342 58.9188 59.8404 58.8605 59.8467 58.7949C59.8488 58.7292 59.8488 58.6525 59.8488 58.5633C59.8488 58.463 59.8488 58.3723 59.8426 58.3074C59.8342 58.2271 59.8198 58.1629 59.7962 58.1128C59.7696 58.0508 59.732 58.0036 59.6797 57.9726C59.5787 57.9107 59.4378 57.9181 59.2372 57.9992C59.148 58.0324 59.0307 58.0759 58.8936 58.1186C58.7542 58.1629 58.5854 58.2012 58.3995 58.2366C58.2145 58.2742 57.9924 58.2912 57.7424 58.2912C57.505 58.2912 57.3022 58.2617 57.1363 58.2012C56.9799 58.143 56.8442 58.056 56.7477 57.9468C56.6481 57.8362 56.5706 57.699 56.5264 57.5383C56.4882 57.4107 56.4652 57.2684 56.4564 57.1142H59.5013C59.6827 57.1142 59.8317 57.056 59.94 56.9387C60.0439 56.8244 60.0979 56.6548 60.0979 56.4424V56.2079C60.0979 55.8259 60.0506 55.4661 59.9497 55.1409C59.8495 54.8075 59.6918 54.5177 59.4801 54.2729Z" fill="#FCEE21"/>
<path d="M65.0943 53.9098C65.0838 53.8611 65.0715 53.8213 65.0595 53.7859C65.0387 53.7424 65.0123 53.707 64.9755 53.6716C64.9431 53.6377 64.8921 53.6111 64.8258 53.5861C64.7719 53.5662 64.7138 53.5507 64.6423 53.5367C64.5723 53.5189 64.5081 53.5079 64.4439 53.502C64.3806 53.4947 64.3208 53.4947 64.2648 53.4947C64.1423 53.4947 64.0185 53.5079 63.8953 53.5397C63.7722 53.5736 63.6468 53.6319 63.5229 53.7167C63.4065 53.7978 63.2825 53.9069 63.1557 54.0404C63.1114 54.0883 63.0591 54.1407 63.0133 54.1982V53.9681C63.0133 53.9032 62.9945 53.8428 62.9602 53.7882C62.9255 53.7344 62.8687 53.6901 62.8009 53.6621C62.742 53.6378 62.6674 53.6201 62.5701 53.6083C62.4809 53.5966 62.3688 53.592 62.242 53.592C62.1136 53.592 62.0097 53.5964 61.9204 53.6083C61.8282 53.62 61.7494 53.6378 61.6889 53.6607C61.6092 53.6901 61.5518 53.7329 61.5156 53.7882C61.4809 53.8428 61.464 53.9033 61.464 53.9682V59.2143C61.464 59.2888 61.4868 59.3537 61.5319 59.4105C61.5701 59.4606 61.6343 59.4997 61.72 59.5285C61.7827 59.5528 61.8668 59.572 61.9752 59.5823C62.0732 59.5905 62.2001 59.5978 62.3491 59.5978C62.4944 59.5978 62.6241 59.5905 62.7207 59.5823C62.8255 59.5721 62.9124 59.5528 62.9796 59.5285C63.0592 59.4997 63.1226 59.4606 63.1646 59.4105C63.2045 59.3537 63.2294 59.2888 63.2294 59.2143V55.9888C63.3289 55.8376 63.4211 55.7078 63.5089 55.6016C63.5973 55.4939 63.6822 55.4077 63.7648 55.342C63.84 55.2793 63.9138 55.2358 63.9816 55.2086C64.1085 55.1577 64.2382 55.1577 64.3341 55.1827C64.3938 55.1976 64.444 55.21 64.4852 55.2262C64.5368 55.2402 64.578 55.2528 64.6179 55.2668C64.7536 55.3147 64.8672 55.3022 64.9535 55.238C65.0051 55.1997 65.0427 55.1407 65.0685 55.061C65.0852 54.9983 65.0979 54.9216 65.1075 54.8184C65.1159 54.7218 65.1201 54.6038 65.1201 54.4615C65.1201 54.3192 65.1201 54.2049 65.1117 54.1171C65.1075 54.0271 65.0992 53.9586 65.0929 53.9099" fill="#FCEE21"/>
<path d="M74.8062 54.2061C74.6432 53.9879 74.4324 53.8094 74.1735 53.684C73.9139 53.5565 73.5961 53.4945 73.2303 53.4945C73.0643 53.4945 72.9044 53.5144 72.7436 53.555C72.5849 53.5919 72.428 53.6538 72.2702 53.7327C72.1161 53.8138 71.9575 53.92 71.7997 54.0483C71.6876 54.1376 71.5748 54.2416 71.4627 54.3514C71.411 54.2666 71.3542 54.1811 71.2908 54.111C71.1817 53.9768 71.0541 53.8699 70.9059 53.7755C70.7598 53.6848 70.5939 53.6133 70.4044 53.5638C70.2224 53.5159 70.0173 53.4945 69.7879 53.4945C69.4509 53.4945 69.1264 53.5764 68.816 53.7453C68.597 53.8632 68.3794 54.0255 68.1597 54.2283V53.968C68.1597 53.9031 68.1388 53.8426 68.1089 53.788C68.0712 53.7334 68.0152 53.6899 67.9473 53.6619C67.8898 53.6383 67.8116 53.6199 67.7179 53.6081C67.6287 53.5964 67.5166 53.5918 67.3876 53.5918C67.2592 53.5918 67.1538 53.5962 67.0712 53.6081C66.9753 53.6198 66.8987 53.6383 66.8367 53.6604C66.7564 53.6899 66.6996 53.7327 66.6634 53.788C66.6258 53.8411 66.6103 53.9031 66.6103 53.968V59.2149C66.6103 59.2886 66.6325 59.3543 66.6736 59.411C66.7179 59.4612 66.7792 59.4995 66.8624 59.5283C66.928 59.5526 67.0135 59.5718 67.1205 59.5821C67.2194 59.5903 67.3447 59.5984 67.4936 59.5984C67.6456 59.5984 67.765 59.5903 67.8668 59.5821C67.973 59.5719 68.0579 59.5526 68.1264 59.5283C68.2119 59.4995 68.2731 59.4612 68.3114 59.411C68.3534 59.3543 68.3793 59.2886 68.3793 59.2149V55.7784C68.5658 55.5446 68.7406 55.3654 68.9014 55.2415C69.0578 55.1265 69.2097 55.0653 69.3564 55.0653C69.4751 55.0653 69.574 55.0896 69.6588 55.1376C69.7428 55.1796 69.8128 55.2415 69.8674 55.3278C69.9242 55.42 69.9669 55.524 69.9987 55.6575C70.0296 55.7917 70.0415 55.9414 70.0415 56.1058V59.2149C70.0415 59.2886 70.0666 59.3543 70.1101 59.411C70.1529 59.4612 70.2125 59.4995 70.2959 59.5283C70.3668 59.5526 70.4479 59.5718 70.554 59.5821C70.6521 59.5903 70.7789 59.5984 70.9294 59.5984C71.0747 59.5984 71.1971 59.5903 71.2937 59.5821C71.4007 59.5719 71.4847 59.5526 71.5533 59.5283C71.6381 59.4995 71.6971 59.4612 71.7406 59.411C71.7855 59.3543 71.8077 59.2886 71.8077 59.2149V55.7821C71.9993 55.5468 72.1801 55.3654 72.3386 55.2415C72.4912 55.1265 72.641 55.0653 72.787 55.0653C72.9063 55.0653 73.0075 55.0896 73.093 55.1361C73.175 55.1796 73.2435 55.2452 73.2981 55.33C73.3579 55.42 73.4028 55.5277 73.4308 55.6575C73.4632 55.7917 73.4772 55.9414 73.4772 56.1058V59.2149C73.4772 59.2872 73.496 59.3513 73.537 59.4066C73.5799 59.4605 73.6395 59.4981 73.7229 59.5283C73.7937 59.5526 73.8755 59.5718 73.9832 59.5821C74.0821 59.5903 74.2118 59.5984 74.3652 59.5984C74.5134 59.5984 74.6373 59.5903 74.7361 59.5821C74.8415 59.5719 74.9272 59.5526 74.9949 59.5283C75.0746 59.4981 75.1335 59.4612 75.1741 59.4111C75.2205 59.3543 75.2435 59.2886 75.2435 59.2149V55.8617C75.2435 55.5469 75.2096 55.2489 75.1431 54.968C75.0767 54.6789 74.9626 54.4244 74.8062 54.2061Z" fill="#FCEE21"/>
<path d="M78.8541 57.1814C79.0128 57.1489 79.2096 57.1327 79.436 57.1327H79.8585V57.8281C79.7015 57.9992 79.5451 58.1364 79.3954 58.2249C79.242 58.3156 79.0783 58.3621 78.8962 58.3621C78.6867 58.3621 78.5238 58.3127 78.4139 58.2116C78.3048 58.1121 78.2502 57.9771 78.2502 57.8008C78.2502 57.6902 78.2724 57.5973 78.3071 57.5177C78.347 57.4439 78.4074 57.3761 78.4929 57.3171C78.5822 57.2603 78.7059 57.2116 78.8541 57.1814ZM81.0098 54.0178C80.8004 53.8408 80.5437 53.7066 80.2311 53.6166C79.9258 53.5377 79.5585 53.4949 79.1396 53.4949C78.8978 53.4949 78.6647 53.5104 78.4369 53.5517C78.2164 53.5864 78.0055 53.6402 77.8181 53.7021C77.6235 53.7567 77.4553 53.8283 77.313 53.8998C77.164 53.9743 77.0549 54.0487 76.9871 54.1158C76.9156 54.1918 76.866 54.2736 76.841 54.3688C76.8196 54.4529 76.8071 54.5605 76.8071 54.694C76.8071 54.7921 76.8113 54.8828 76.8259 54.9646C76.8405 55.0509 76.8606 55.1239 76.8863 55.1822C76.9158 55.2567 76.9586 55.3171 77.0094 55.3592C77.1369 55.4609 77.2985 55.458 77.5264 55.3326C77.6223 55.2825 77.7446 55.2183 77.8914 55.1564C78.0323 55.0922 78.1997 55.0325 78.3855 54.9823C78.569 54.9263 78.7734 54.9034 79.0064 54.9034C79.1797 54.9034 79.3265 54.9218 79.44 54.955C79.541 54.9868 79.6221 55.0325 79.6834 55.0981C79.7423 55.163 79.7837 55.2449 79.8147 55.3474C79.845 55.458 79.859 55.5885 79.859 55.7412V55.9174H79.491C79.0153 55.9174 78.5913 55.9521 78.2351 56.0236C77.8657 56.0988 77.5515 56.2146 77.2993 56.3724C77.0405 56.528 76.8465 56.736 76.7138 56.9845C76.5848 57.2271 76.5177 57.5177 76.5177 57.8466C76.5177 58.1467 76.5679 58.4173 76.6718 58.6474C76.7727 58.8804 76.9218 59.0737 77.1083 59.2322C77.2919 59.3863 77.5132 59.4992 77.7617 59.5818C78.0087 59.6555 78.2787 59.6975 78.5736 59.6975C78.9283 59.6975 79.258 59.626 79.5529 59.4896C79.7425 59.3996 79.9209 59.2853 80.0883 59.1496V59.2352C80.0883 59.3539 80.1391 59.4276 80.1812 59.4667C80.238 59.5198 80.3177 59.5545 80.4252 59.5736C80.5174 59.5862 80.6494 59.598 80.836 59.598C81.0101 59.598 81.1398 59.5863 81.235 59.5751C81.3418 59.5544 81.426 59.522 81.485 59.4748C81.5587 59.418 81.5985 59.3317 81.5985 59.2351V55.7043C81.5985 55.3326 81.5521 55.0022 81.459 54.7235C81.3654 54.4432 81.2148 54.2044 81.0098 54.0178Z" fill="#FCEE21"/>
<path d="M86.8508 53.9098C86.8424 53.8611 86.8299 53.8213 86.8154 53.7859C86.8029 53.7424 86.7697 53.707 86.7343 53.6716C86.7005 53.6377 86.6488 53.6111 86.5847 53.5861C86.5309 53.5662 86.4711 53.5507 86.3965 53.5367C86.3302 53.5189 86.2638 53.5079 86.2019 53.502C86.14 53.4947 86.0788 53.4947 86.0219 53.4947C85.9017 53.4947 85.7778 53.5079 85.6539 53.5397C85.5314 53.5736 85.4062 53.6319 85.283 53.7167C85.1657 53.7978 85.0418 53.9069 84.9113 54.0404C84.8699 54.0883 84.8191 54.1407 84.7704 54.1982V53.9681C84.7704 53.9032 84.7516 53.8428 84.7188 53.7882C84.6818 53.7344 84.6295 53.6901 84.5589 53.6621C84.5014 53.6378 84.4261 53.6201 84.3281 53.6083C84.2382 53.5966 84.1311 53.592 83.9984 53.592C83.8738 53.592 83.7639 53.5964 83.6791 53.6083C83.5846 53.62 83.5117 53.6378 83.4483 53.6607C83.3649 53.6901 83.3089 53.7329 83.275 53.7882C83.2397 53.8428 83.2219 53.9033 83.2219 53.9682V59.2143C83.2219 59.2888 83.2407 59.3537 83.2867 59.4105C83.3302 59.4606 83.3914 59.4997 83.474 59.5285C83.5405 59.5528 83.6266 59.572 83.7299 59.5823C83.8302 59.5905 83.957 59.5978 84.1053 59.5978C84.2549 59.5978 84.3803 59.5905 84.4792 59.5823C84.5854 59.5721 84.6708 59.5528 84.7365 59.5285C84.8191 59.4997 84.8826 59.4606 84.9217 59.4105C84.9667 59.3537 84.9888 59.2888 84.9888 59.2143V55.9888C85.0877 55.8376 85.1814 55.7078 85.2646 55.6016C85.3554 55.4939 85.4423 55.4077 85.5205 55.342C85.6002 55.2793 85.6725 55.2358 85.7395 55.2086C85.8685 55.1577 85.9954 55.1577 86.0965 55.1827C86.1502 55.1976 86.2004 55.21 86.2484 55.2262C86.2948 55.2402 86.3377 55.2528 86.3745 55.2668C86.5095 55.3147 86.6282 55.3022 86.7115 55.238C86.7623 55.1997 86.8037 55.1407 86.8259 55.061C86.8447 54.9983 86.8553 54.9216 86.8664 54.8184C86.8727 54.7218 86.8789 54.6038 86.8789 54.4615C86.8789 54.3192 86.8748 54.2049 86.8748 54.1171C86.8664 54.0271 86.8601 53.9586 86.852 53.9099" fill="#FCEE21"/>
<path d="M91.2759 58.2214C91.255 58.1462 91.217 58.0909 91.1639 58.0577C91.0805 58.0031 90.978 58.0031 90.8748 58.0481C90.8453 58.0577 90.8025 58.0761 90.7552 58.0908C90.7124 58.1078 90.6607 58.1189 90.6091 58.1366C90.5554 58.1447 90.4956 58.1491 90.4285 58.1491C90.1579 58.1491 90.0878 58.0385 90.0657 58.0031C89.989 57.8851 89.9522 57.6904 89.9522 57.4375V55.1167H90.9573C91.0332 55.1167 91.1741 55.0835 91.2582 54.8896C91.3069 54.7775 91.3259 54.6079 91.3259 54.3719C91.3259 54.251 91.3217 54.1477 91.3092 54.0629C91.303 53.9693 91.2826 53.9 91.259 53.841C91.2258 53.7709 91.1881 53.7163 91.1321 53.6802C91.0813 53.6456 91.0178 53.6286 90.9507 53.6286H89.953V52.6028C89.953 52.5328 89.9321 52.4664 89.8888 52.4082C89.8474 52.3551 89.7908 52.3138 89.7088 52.2835C89.6403 52.2555 89.5562 52.2385 89.4434 52.226C89.3409 52.2143 89.2162 52.2091 89.068 52.2091C88.9242 52.2091 88.8003 52.2143 88.6985 52.226C88.585 52.2362 88.5024 52.2555 88.4316 52.2835C88.3476 52.3138 88.2863 52.3565 88.2487 52.4126C88.2073 52.4701 88.1904 52.5328 88.1904 52.6029V53.6286H87.7081C87.641 53.6286 87.5806 53.6456 87.5289 53.6817C87.4773 53.7164 87.433 53.771 87.3999 53.841C87.3771 53.9 87.3556 53.9693 87.3475 54.063C87.3349 54.1515 87.3328 54.2496 87.3328 54.372C87.3328 54.6094 87.3542 54.7776 87.3999 54.8897C87.4833 55.0836 87.6241 55.1168 87.703 55.1168H88.1905V57.6573C88.1905 57.9921 88.2275 58.2841 88.2929 58.5312C88.3682 58.7878 88.4825 59.0053 88.6402 59.1749C88.7958 59.346 88.9964 59.4766 89.2332 59.5569C89.4618 59.6395 89.7354 59.6764 90.0458 59.6764C90.1587 59.6764 90.2729 59.6726 90.3858 59.6624C90.5001 59.6446 90.6033 59.6314 90.7021 59.6071C90.8031 59.5835 90.8903 59.5547 90.9676 59.5223C91.0561 59.4847 91.1211 59.4426 91.1712 59.3881C91.2258 59.3305 91.2619 59.2472 91.2958 59.1292C91.3146 59.026 91.3268 58.8873 91.3268 58.6985C91.3268 58.5835 91.3226 58.4869 91.31 58.4087C91.3038 58.332 91.2933 58.2701 91.2776 58.2214" fill="#FCEE21"/>
<path d="M28.778 56.3606C28.7117 56.1091 28.5951 55.8887 28.4366 55.6984C28.2767 55.5081 28.0634 55.357 27.8031 55.2493C27.5457 55.1379 27.2301 55.0834 26.8577 55.0834C26.5613 55.0834 26.2685 55.1394 25.9934 55.2552C25.8038 55.3304 25.6151 55.4396 25.4315 55.573V53.3519C25.4315 53.2877 25.4106 53.2353 25.3717 53.1845C25.3289 53.1388 25.2722 53.1019 25.1865 53.0746C25.1209 53.0517 25.0391 53.0363 24.9358 53.0252C24.8835 53.0185 24.8229 53.0156 24.7566 53.012L24.5495 53.2377L25.1756 53.7104L24.3917 53.7399L24.4999 54.5149L23.9255 53.984L23.7035 54.2745V60.014C23.7035 60.0753 23.7271 60.1313 23.7714 60.18C23.8097 60.2257 23.868 60.2603 23.9506 60.2847C24.0169 60.3054 24.1003 60.3208 24.2035 60.3289C24.2995 60.3377 24.4211 60.3429 24.5686 60.3429C24.7124 60.3429 24.837 60.3377 24.9358 60.3289C25.0368 60.3208 25.1208 60.3053 25.1843 60.2847C25.2669 60.2603 25.3281 60.2257 25.3664 60.18C25.4099 60.1313 25.4312 60.0753 25.4312 60.014V57.0547C25.6147 56.8526 25.7933 56.7007 25.9585 56.5931C26.1215 56.4913 26.2822 56.4397 26.4326 56.4397C26.561 56.4397 26.6664 56.4595 26.7534 56.4994C26.8404 56.5363 26.9127 56.5931 26.9725 56.6668C27.0293 56.7428 27.0764 56.8394 27.109 56.95C27.1399 57.0643 27.1562 57.2287 27.1562 57.4345V60.0141C27.1562 60.0753 27.1805 60.1313 27.2227 60.18C27.2632 60.2257 27.323 60.2574 27.4012 60.2847C27.4645 60.3054 27.5473 60.3208 27.6527 60.3289C27.7515 60.3377 27.8776 60.3429 28.0206 60.3429C28.1622 60.3429 28.2854 60.3377 28.3813 60.3289C28.4883 60.3208 28.5738 60.3053 28.6386 60.2847C28.7191 60.2574 28.7751 60.2257 28.8163 60.18C28.856 60.1313 28.8811 60.0753 28.8811 60.0141V57.2455C28.8811 56.8997 28.846 56.6054 28.778 56.3606Z" fill="#0093D0"/>
<path d="M23.7034 53.3521C23.7034 53.2879 23.7256 53.2348 23.7676 53.1847C23.8067 53.139 23.865 53.1021 23.9453 53.074C24.0124 53.0519 24.0979 53.0364 24.1997 53.0254C24.2992 53.0158 24.4202 53.0085 24.5692 53.0085C24.6377 53.0085 24.6983 53.0114 24.7566 53.012L25.0855 52.6611L24.306 52.768L24.2795 51.9849L23.8068 52.6109L23.2308 52.0748L23.3399 52.8528L22.5538 52.8816L23.1799 53.355L22.646 53.9317L23.424 53.8211L23.4529 54.6065L23.7035 54.2745L23.7034 53.3521Z" fill="#0093D0"/>
</g>
<rect x="1" y="1" width="110" height="110" rx="9" stroke="black" stroke-opacity="0.1" stroke-width="2"/>
<defs>
<clipPath id="clip0_786_550">
<rect x="2" y="2" width="108" height="108" rx="8" fill="white"/>
</clipPath>
</defs>
</svg>
