<svg width="112" height="112" viewBox="0 0 112 112" fill="none" xmlns="http://www.w3.org/2000/svg">
<g clip-path="url(#clip0_786_602)">
<rect x="2" y="2" width="108" height="108" rx="8" fill="white"/>
<g clip-path="url(#clip1_786_602)">
<path fill-rule="evenodd" clip-rule="evenodd" d="M18.8109 42.575H94.1891C94.8252 42.575 95.404 42.8346 95.8222 43.2528C96.2403 43.671 96.5 44.2487 96.5 44.8858V67.1142C96.5 67.7502 96.2403 68.329 95.8222 68.7472C95.404 69.1653 94.8263 69.425 94.1891 69.425H18.8109C18.1748 69.425 17.596 69.1653 17.1779 68.7472C16.7597 68.329 16.5 67.7513 16.5 67.1142V44.8858C16.5 44.2498 16.7597 43.671 17.1779 43.2528C17.596 42.8346 18.1748 42.575 18.8109 42.575Z" fill="#F0F0F0"/>
<path fill-rule="evenodd" clip-rule="evenodd" d="M95.6197 60.8011V67.1142C95.6197 67.9009 94.976 68.5447 94.1892 68.5447H18.8109C18.0241 68.5447 17.3804 67.9009 17.3804 67.1142V60.8011H95.6197Z" fill="#FECF22"/>
<path d="M95.6197 52.1078H17.3804V59.8933H95.6197V52.1078Z" fill="#006AB4"/>
<path fill-rule="evenodd" clip-rule="evenodd" d="M18.8109 43.4553H94.1892C94.976 43.4553 95.6197 44.0991 95.6197 44.8859V51.2H17.3804V44.8859C17.3804 44.0991 18.0241 43.4553 18.8109 43.4553Z" fill="#D61627"/>
<path fill-rule="evenodd" clip-rule="evenodd" d="M29.3341 48.8902C34.5809 47.3354 39.0222 46.411 43.2543 45.8718C47.0442 45.3887 50.6491 45.2193 54.5061 45.1829V45.1697H58.6458V45.184C62.4708 45.2226 66.0527 45.3964 69.8183 45.8806C74.0296 46.4209 78.4499 47.3442 83.6659 48.8891C84.2392 49.0586 84.796 49.3271 85.2164 49.7464C85.6587 50.1887 85.936 50.7532 85.936 51.4729V60.5249C85.936 61.2446 85.6587 61.8091 85.2164 62.2514C84.7971 62.6707 84.2392 62.9392 83.6659 63.1087C78.4499 64.6536 74.0296 65.5769 69.8183 66.1172C66.0516 66.6014 62.4708 66.7752 58.6458 66.8138V66.827H57.2912V66.8226H56.8576H56.7751V66.827H56.2249V66.8226H55.4546V66.8204C51.2829 66.805 47.4524 66.6542 43.4513 66.1546C39.1762 65.6209 34.6799 64.6911 29.3341 63.1076C28.7608 62.9381 28.204 62.6696 27.7836 62.2503C27.3413 61.808 27.064 61.2435 27.064 60.5238V51.474C27.064 50.7543 27.3413 50.1898 27.7836 49.7475C28.2029 49.3282 28.7608 49.0597 29.3341 48.8902Z" fill="#E6E6E6"/>
<path fill-rule="evenodd" clip-rule="evenodd" d="M65.5929 59.0603C65.2672 58.6036 65.5797 57.8432 65.8097 57.4184C66.054 56.9684 66.4149 56.3962 66.9871 56.5062C67.249 57.4481 66.4094 59.1516 65.5929 59.0603ZM47.8135 56.4468C48.2372 57.5087 46.8452 59.452 46.3742 58.9227C45.9923 58.4924 46.8848 56.2289 47.8135 56.4468ZM50.7428 58.9238L50.5778 58.5618C50.1167 58.6663 49.3882 59.0944 48.8721 58.9711C48.5915 58.3285 50.6163 54.0996 51.0025 52.8044L49.9868 52.8495C49.6996 53.3227 49.1703 54.9777 48.9117 55.3211C47.1148 55.1329 46.3665 55.6512 45.6347 56.6096C44.4441 58.1656 45.3178 58.3219 44.422 58.8314C43.6331 59.2803 43.7464 59.0261 43.687 58.9623C43.3601 58.6773 44.2779 56.7131 44.3659 56.285C44.4793 55.7271 44.1899 55.2814 43.6705 55.3111C43.1852 55.3398 42.8231 55.6842 42.4765 55.8702C41.2771 56.5172 42.4061 54.0171 39.139 56.3257C38.887 56.504 38.2531 56.8704 38.1288 56.9948C38.1563 56.7901 39.0971 54.7598 39.2886 54.2834C39.6573 53.3667 40.027 52.4193 40.3417 51.4872C39.1555 51.4069 35.6231 52.0198 34.5491 52.9783C32.5178 54.7896 34.9398 57.1841 36.5398 55.3442C36.1535 55.0669 35.5615 55.3354 35.4702 54.6223C35.3921 54.0105 35.6121 53.6033 35.9423 53.348C36.3461 53.0377 38.1178 52.7186 38.7439 52.6008C38.679 52.931 38.4039 53.5549 38.2718 53.9235C37.572 55.8746 36.7148 58.8523 34.2245 58.9293C32.9227 58.97 32.5497 58.3879 32.0875 57.4977C31.8025 57.8201 31.6848 58.4869 31.8498 58.9733C31.9973 59.4091 32.3406 59.7106 32.7478 59.9065C34.6933 60.8451 36.411 59.2649 37.7921 58.1942C38.1409 57.9246 39.4372 56.6096 40.1018 56.9365C40.4738 57.677 39.3954 59.2319 39.3712 60.0022L40.6531 60.0297C40.8842 59.3948 41.0713 58.7015 41.2914 58.0347C41.4784 57.468 41.7392 56.4589 42.4831 56.9706C42.7681 57.731 41.5577 59.3233 42.2212 59.857C42.909 60.4105 44.454 59.3023 44.8215 59.0801C45.1087 59.4927 45.1032 60.0088 45.8438 60.1343C46.4347 60.2344 47.0333 59.9549 47.3689 59.6787C47.578 59.9362 47.5263 60.1948 48.0105 60.1497C48.4859 60.1045 49.8999 59.1802 50.745 58.9238H50.7428ZM75.0707 57.8388C75.0135 57.1708 75.7497 56.2487 76.2735 56.2729C76.4474 56.6658 76.1425 57.0982 75.9478 57.3282C75.7233 57.5934 75.4889 57.8806 75.0707 57.8388ZM55.7794 56.2498L55.9258 56.6999C56.3263 56.5876 56.772 56.3257 57.1725 56.4358C57.298 57.1984 56.1414 59.2924 55.9731 60.1794L57.2352 60.153C57.4839 59.7348 57.7458 58.7565 57.9384 58.2437C58.1387 57.7111 58.372 56.6702 59.106 56.9255C59.5384 57.7805 58.3621 59.3156 58.274 60.1508L59.7145 60.164C59.9808 59.3959 60.2823 58.4418 60.5948 57.6836C60.75 57.3073 60.9139 56.7186 61.4729 56.8748C62.1101 57.0531 61.0108 58.2459 61.0229 59.3012C61.0284 59.7733 61.3486 60.1882 61.8196 60.142C62.4468 60.0803 63.4977 59.222 64.0369 59.101C64.2834 59.6567 64.3351 60.0033 64.9943 60.1067C65.6677 60.2124 66.0892 59.8933 66.5216 59.6424C66.5348 59.6556 66.5491 59.6765 66.5569 59.6864L66.6537 59.8228C66.7857 60.0143 66.8606 60.164 67.1819 60.1959C68.2449 60.3026 69.8141 58.6069 70.427 57.7981C71.1126 56.8935 70.833 56.9618 71.7134 56.8847C71.5197 57.7177 70.5712 59.0493 71.3734 59.8548C72.1767 60.6625 73.78 59.573 74.2674 59.288C74.7164 59.7843 74.9541 60.2245 76.0226 60.175C76.8644 60.1365 77.331 59.7975 78.0055 59.6017C78.8264 60.9497 81.5082 59.6237 81.4058 58.8028C81.0592 58.7367 80.6553 59.2187 80.2999 59.4102C79.808 59.6743 79.3084 59.5059 79.2974 58.9348C79.2919 58.652 79.9786 56.5524 80.115 56.2905L80.9271 56.2828L81.1967 55.3585L80.6256 55.3475C80.7324 54.3791 81.2463 53.5494 81.4201 52.6922L80.279 52.7373L79.3635 55.2715L78.5271 55.3189L78.3302 56.2696L78.9871 56.2586C78.8474 57.1598 78.3258 58.3769 77.8669 58.9491C77.3926 59.5422 75.6914 59.8955 75.3833 58.8589C75.7816 58.4132 76.4771 58.3109 77.0196 57.3711C78.3808 55.0162 75.6639 54.729 74.5546 56.3686C73.8625 57.3931 74.076 57.7111 74.1145 58.9238C72.7467 59.6842 72.2658 59.836 72.389 58.4957C72.5134 57.14 72.7203 57.3414 72.9458 57.1004C73.1186 56.9155 73.1835 56.5832 72.9954 56.4017C72.7775 56.1761 72.4066 56.3763 72.0006 56.2311C71.7431 55.594 72.1833 55.4883 72.3604 55.1395C72.126 55.0845 71.9379 55.1164 71.7046 55.0801C71.1445 54.9931 71.6463 54.9788 71.271 54.762C70.9486 54.8864 70.9266 54.8985 70.8132 55.2605C70.4864 56.3026 70.6053 56.5293 70.0341 57.3304C69.7238 57.7662 68.6729 59.233 67.9511 58.9634C67.6176 58.5233 68.8897 55.9472 69.0471 55.3012C67.7519 55.2044 67.9456 55.4509 67.764 55.6512C66.5667 55.1131 65.9373 55.5708 65.2022 56.2234C64.1502 57.1576 64.104 58.5023 63.9753 58.6509C63.6562 58.8578 63.008 59.1439 62.5348 58.9722C62.3984 58.433 63.2358 56.8539 63.3723 56.2113C63.5164 55.5334 63.1258 55.1725 62.4424 55.3486C61.9296 55.4806 61.7326 55.956 61.2606 56.0176C60.8633 55.7381 60.8457 55.1516 60.0336 55.2913C59.4603 55.3893 59.424 55.8371 58.7758 55.9659C58.7626 55.9472 58.7527 55.9219 58.7461 55.9065L58.6746 55.7282C58.6427 55.6391 58.5712 55.3607 58.427 55.2836C57.7723 55.2 56.465 56.044 55.7794 56.2454V56.2498Z" fill="#006AB4"/>
<path fill-rule="evenodd" clip-rule="evenodd" d="M53.2265 55.8756C53.6667 55.8756 54.0661 56.0539 54.3544 56.3433C54.6427 56.6316 54.8221 57.0311 54.8221 57.4712C54.8221 57.9114 54.6438 58.3109 54.3544 58.5992C54.0661 58.8875 53.6667 59.0668 53.2265 59.0668C52.7863 59.0668 52.3869 58.8886 52.0986 58.5992C51.8103 58.3109 51.6309 57.9114 51.6309 57.4712C51.6309 57.0311 51.8092 56.6316 52.0986 56.3433C52.3869 56.055 52.7863 55.8756 53.2265 55.8756ZM53.2265 54.5001C52.4056 54.5001 51.6628 54.8324 51.1258 55.3705C50.5877 55.9086 50.2554 56.6514 50.2554 57.4712C50.2554 58.291 50.5877 59.0349 51.1258 59.5719C51.6639 60.1089 52.4067 60.4423 53.2265 60.4423C54.0463 60.4423 54.7902 60.11 55.3272 59.5719C55.8653 59.0338 56.1976 58.291 56.1976 57.4712C56.1976 56.6514 55.8653 55.9075 55.3272 55.3705C54.7891 54.8324 54.0463 54.5001 53.2265 54.5001ZM55.0939 55.6038C54.6163 55.1263 53.9561 54.8302 53.2265 54.8302C52.4969 54.8302 51.8367 55.1263 51.3591 55.6038C50.8815 56.0814 50.5855 56.7417 50.5855 57.4712C50.5855 58.2008 50.8815 58.8611 51.3591 59.3386C51.8367 59.8162 52.4969 60.1122 53.2265 60.1122C53.9561 60.1122 54.6163 59.8162 55.0939 59.3386C55.5715 58.8611 55.8675 58.2008 55.8675 57.4712C55.8675 56.7417 55.5715 56.0814 55.0939 55.6038ZM53.2265 55.1879C52.5959 55.1879 52.0248 55.4432 51.6122 55.8569C51.1984 56.2696 50.9431 56.8407 50.9431 57.4712C50.9431 58.1018 51.1984 58.6729 51.6122 59.0855C52.0259 59.4993 52.5959 59.7546 53.2265 59.7546C53.857 59.7546 54.4281 59.4993 54.8408 59.0855C55.2545 58.6729 55.5098 58.1018 55.5098 57.4712C55.5098 56.8407 55.2545 56.2696 54.8408 55.8569C54.427 55.4432 53.857 55.1879 53.2265 55.1879ZM54.6075 56.0902C54.2543 55.737 53.7657 55.518 53.2265 55.518C52.6873 55.518 52.1987 55.737 51.8455 56.0902C51.4922 56.4435 51.2733 56.932 51.2733 57.4712C51.2733 58.0104 51.4922 58.499 51.8455 58.8523C52.1987 59.2055 52.6873 59.4245 53.2265 59.4245C53.7657 59.4245 54.2543 59.2055 54.6075 58.8523C54.9607 58.499 55.1797 58.0104 55.1797 57.4712C55.1797 56.932 54.9607 56.4435 54.6075 56.0902ZM54.1211 56.5766C53.8922 56.3477 53.5753 56.2058 53.2265 56.2058C52.8777 56.2058 52.5607 56.3477 52.3318 56.5766C52.103 56.8055 51.961 57.1224 51.961 57.4712C51.961 57.8201 52.103 58.137 52.3318 58.3659C52.5607 58.5948 52.8777 58.7367 53.2265 58.7367C53.5753 58.7367 53.8922 58.5948 54.1211 58.3659C54.35 58.137 54.492 57.8201 54.492 57.4712C54.492 57.1224 54.35 56.8055 54.1211 56.5766Z" fill="#D61627"/>
<path fill-rule="evenodd" clip-rule="evenodd" d="M29.7048 50.1535C40.0718 47.0823 47.2024 46.5078 55.8264 46.4913H57.3251C65.8808 46.5144 72.9884 47.101 83.2949 50.1535C83.9914 50.3593 84.6154 50.7477 84.6154 51.474V60.526C84.6154 61.2523 83.9914 61.6407 83.2949 61.8465C72.9884 64.9001 65.8808 65.4856 57.3251 65.5087H57.291C57.1194 65.5087 56.9477 65.5087 56.7749 65.5087H56.2247C47.4203 65.5098 40.2313 64.9651 29.7048 61.8465C29.0082 61.6407 28.3843 61.2523 28.3843 60.526V51.474C28.3843 50.7477 29.0082 50.3593 29.7048 50.1535ZM56.0134 48.4743C47.9584 48.504 40.7419 48.811 31.3004 51.2539C30.5972 51.4355 29.9799 51.8481 29.9799 52.5744V59.4256C29.9799 60.1519 30.5972 60.5645 31.3004 60.7461C40.6682 63.1692 47.8462 63.4905 55.8264 63.5246H57.1755C65.1546 63.4905 72.3326 63.1692 81.6993 60.7461C82.4024 60.5645 83.0198 60.1519 83.0198 59.4256V52.5744C83.0198 51.8481 82.4024 51.4355 81.6993 51.2539C72.2577 48.8121 65.0412 48.5051 56.9862 48.4743H56.0123H56.0134Z" fill="#D61627"/>
</g>
</g>
<rect x="1" y="1" width="110" height="110" rx="9" stroke="black" stroke-opacity="0.1" stroke-width="2"/>
<defs>
<clipPath id="clip0_786_602">
<rect x="2" y="2" width="108" height="108" rx="8" fill="white"/>
</clipPath>
<clipPath id="clip1_786_602">
<rect width="80" height="26.8501" fill="white" transform="translate(16.5 42.575)"/>
</clipPath>
</defs>
</svg>
