<svg width="112" height="112" viewBox="0 0 112 112" fill="none" xmlns="http://www.w3.org/2000/svg">
<g clip-path="url(#clip0_786_711)">
<rect x="2" y="2" width="108" height="108" rx="8" fill="white"/>
<g clip-path="url(#clip1_786_711)">
<path d="M62.1866 56.2094H67.5388C67.998 56.2094 67.998 56.3554 67.998 56.5956V58.5707C67.998 59.0705 67.9186 59.2376 67.1932 59.2376H62.258C62.0665 59.2376 61.8067 59.314 61.8067 58.931V57.4037C61.8067 57.1425 61.7499 57.0484 61.4627 57.0484H60.3462C60.179 57.0484 60.0134 57.0484 60.0134 57.4038V60.0961C60.0134 61 60.3917 61.5697 61.5584 61.5697H68.0095C68.962 61.5697 69.8076 61.0698 69.8076 59.8575V55.9302C69.8076 55.0718 69.1633 54.4048 67.9981 54.4048H62.3422C62.0566 54.4048 61.8067 54.3593 61.8067 53.9535V52.1425C61.8067 51.9299 61.9219 51.7661 62.2806 51.7661H67.6036C68.1051 51.7661 67.9979 51.8813 67.9979 52.2383V53.2851C67.9979 53.5723 68.2236 53.5723 68.4833 53.5723H69.4829C69.7717 53.5723 69.8075 53.4295 69.8075 53.2153V51.6037C69.8075 50.01 69.2475 49.4306 67.9136 49.4306H62.2806C60.8055 49.4306 60.0134 49.4566 59.9972 51.6037V54.7358C59.9972 55.7403 60.6155 56.2094 62.1865 56.2094M73.5207 55.716V52.3355C73.5207 51.8811 73.7706 51.7659 74.0579 51.7659H79.2463C79.6049 51.7659 79.7088 51.8585 79.7088 52.1424V58.8352C79.7088 59.2376 79.4847 59.2376 79.2463 59.2376H74.0335C73.6749 59.2376 73.5207 59.1662 73.5207 58.8125V55.716ZM73.5419 61.5698H79.5238C80.8561 61.5698 81.5199 61.1251 81.5199 59.5525V51.6037C81.5199 50.1447 80.9114 49.4306 79.5952 49.4306H73.6749C72.4383 49.4306 71.7096 49.9369 71.7096 51.6037V59.8138C71.7096 60.8378 72.1851 61.5698 73.5419 61.5698ZM16.3126 51.7659H17.9209V59.2376H16.3597C16.324 59.2376 16.2888 59.2445 16.2558 59.2581C16.2229 59.2717 16.193 59.2917 16.1678 59.3168C16.1426 59.342 16.1226 59.372 16.109 59.4049C16.0954 59.4378 16.0885 59.4731 16.0886 59.5087V61.302C16.0886 61.4528 16.2087 61.5698 16.3597 61.5698H25.8162C25.9655 61.5698 26.0855 61.4529 26.0855 61.302V57.1993C26.0855 57.05 25.967 56.9283 25.8177 56.9283H24.5373C24.4655 56.9284 24.3966 56.957 24.3458 57.0078C24.295 57.0586 24.2664 57.1275 24.2663 57.1993V59.2376H19.7303V51.7659H21.2444C21.2804 51.766 21.3161 51.759 21.3493 51.7453C21.3826 51.7316 21.4128 51.7113 21.4382 51.6858C21.4635 51.6603 21.4836 51.63 21.4971 51.5967C21.5107 51.5633 21.5175 51.5276 21.5171 51.4917V49.7016C21.5172 49.6659 21.5101 49.6305 21.4964 49.5975C21.4827 49.5645 21.4626 49.5345 21.4372 49.5093C21.4119 49.4841 21.3818 49.4642 21.3487 49.4507C21.3156 49.4372 21.2802 49.4304 21.2444 49.4306H16.3126C16.2407 49.4307 16.1719 49.4593 16.121 49.5101C16.0702 49.5609 16.0416 49.6297 16.0415 49.7016V51.4917C16.0415 51.6442 16.1632 51.7659 16.3126 51.7659ZM34.0116 53.681L35.3928 56.1688H35.4074L35.3945 56.1737L35.3928 56.1688H32.6095L32.5998 56.1655L34.0116 53.681ZM27.4521 61.5698H32.3839C32.5333 61.5698 32.6566 61.4529 32.6566 61.302V59.5087C32.6566 59.3595 32.5333 59.2376 32.384 59.2376H30.86L30.8503 59.2328L31.5627 57.9751H36.3957L36.3909 57.98L37.0903 59.2426L37.0838 59.2376H35.5941C35.4447 59.2376 35.3213 59.3593 35.3213 59.5087V61.302C35.3213 61.4529 35.4447 61.5698 35.5941 61.5698H40.5307C40.5659 61.5699 40.6008 61.563 40.6333 61.5496C40.6659 61.5362 40.6954 61.5165 40.7203 61.4916C40.7452 61.4667 40.7649 61.4371 40.7783 61.4046C40.7917 61.3721 40.7986 61.3372 40.7985 61.302V59.5087C40.7985 59.3595 40.6768 59.2376 40.5307 59.2376H39.1545V59.2426L35.0275 51.766H36.5774C36.7282 51.766 36.8484 51.6443 36.8484 51.4917V49.7016C36.8485 49.666 36.8415 49.6307 36.8279 49.5978C36.8143 49.5649 36.7944 49.535 36.7692 49.5098C36.744 49.4846 36.7141 49.4647 36.6812 49.4511C36.6483 49.4375 36.613 49.4305 36.5774 49.4306H31.6422C31.6067 49.4307 31.5716 49.4378 31.5389 49.4514C31.5061 49.4651 31.4764 49.4851 31.4513 49.5103C31.4263 49.5354 31.4065 49.5653 31.393 49.5981C31.3795 49.6309 31.3726 49.6661 31.3727 49.7016V51.4917C31.3727 51.6442 31.4928 51.766 31.6422 51.766H33.0168L28.7714 59.2328L28.7763 59.2376H27.4521C27.3802 59.2377 27.3113 59.2663 27.2605 59.3171C27.2096 59.368 27.181 59.4369 27.181 59.5087V61.302C27.181 61.4529 27.3027 61.5698 27.4521 61.5698ZM38.8301 51.7659H40.3101L44.0119 59.2376H42.4978C42.4623 59.2377 42.4271 59.2448 42.3944 59.2585C42.3616 59.2722 42.3319 59.2921 42.3068 59.3173C42.2818 59.3425 42.262 59.3724 42.2485 59.4052C42.235 59.4381 42.2282 59.4732 42.2283 59.5087V61.302C42.2283 61.4528 42.3484 61.5698 42.4978 61.5698H47.4346C47.5822 61.5698 47.7056 61.4529 47.7056 61.302V59.5087C47.7052 59.437 47.6765 59.3682 47.6258 59.3175C47.575 59.2667 47.5063 59.238 47.4346 59.2376H46.0599L48.7377 53.775L51.4414 59.2376H49.9744C49.9025 59.2378 49.8336 59.2664 49.7828 59.3172C49.732 59.368 49.7035 59.4369 49.7034 59.5087V61.302C49.7034 61.4528 49.8251 61.5698 49.9744 61.5698H54.9079C55.0588 61.5698 55.1789 61.4529 55.1789 61.302V59.5087C55.179 59.4731 55.1721 59.4378 55.1585 59.4049C55.1449 59.372 55.1249 59.3421 55.0997 59.3169C55.0746 59.2917 55.0447 59.2717 55.0117 59.2581C54.9788 59.2445 54.9435 59.2376 54.9079 59.2376H53.5236L57.175 51.7659H58.6243C58.7736 51.7659 58.8921 51.6442 58.8921 51.4917V49.7016C58.8921 49.5523 58.7736 49.4306 58.6243 49.4306H53.6875C53.6157 49.4307 53.5468 49.4593 53.496 49.5101C53.4452 49.5609 53.4166 49.6298 53.4165 49.7016V51.4917C53.4165 51.6442 53.5382 51.7659 53.6875 51.7659H55.166L52.4768 57.2481L49.7618 51.7659H51.1964C51.3457 51.7659 51.4642 51.6442 51.4642 51.4917V49.7016C51.4642 49.5523 51.3457 49.4306 51.1964 49.4306H46.2596C46.2241 49.4307 46.189 49.4378 46.1563 49.4515C46.1235 49.4651 46.0938 49.4851 46.0688 49.5103C46.0438 49.5355 46.024 49.5653 46.0105 49.5981C45.997 49.631 45.9901 49.6661 45.9902 49.7016V51.4917C45.9902 51.6442 46.1103 51.7659 46.2595 51.7659H47.6926L45.031 57.1993L42.3355 51.7659H43.7669C43.9178 51.7659 44.0379 51.6442 44.0379 51.4917V49.7016C44.0379 49.666 44.031 49.6307 44.0174 49.5978C44.0038 49.5649 43.9838 49.535 43.9586 49.5098C43.9335 49.4846 43.9036 49.4647 43.8707 49.4511C43.8377 49.4375 43.8025 49.4305 43.7669 49.4306H38.8301C38.6823 49.4306 38.5622 49.5523 38.5622 49.7016V51.4917C38.5622 51.6442 38.6823 51.7659 38.8301 51.7659ZM82.9675 61.5697H87.9011C88.0537 61.5697 88.1704 61.4529 88.1704 61.3019V59.5086C88.1704 59.3593 88.0537 59.2376 87.9012 59.2376H86.2798V53.8919H86.283L92.0054 59.2376H90.7265C90.6549 59.2381 90.5864 59.2669 90.536 59.3176C90.4855 59.3684 90.4572 59.437 90.4571 59.5086V61.3019C90.4571 61.3372 90.464 61.3722 90.4776 61.4048C90.4911 61.4374 90.511 61.4671 90.536 61.492C90.561 61.5169 90.5908 61.5365 90.6235 61.5499C90.6562 61.5632 90.6912 61.5699 90.7265 61.5697H95.6617C95.8126 61.5697 95.9327 61.4529 95.9327 61.3019V59.5086C95.9327 59.473 95.9258 59.4377 95.9122 59.4048C95.8986 59.3719 95.8786 59.342 95.8535 59.3168C95.8283 59.2917 95.7984 59.2717 95.7655 59.2581C95.7326 59.2445 95.6973 59.2376 95.6617 59.2376H94.0908V51.7659H95.6617C95.8126 51.7659 95.9327 51.6442 95.9327 51.4917V49.7016C95.9327 49.666 95.9258 49.6307 95.9122 49.5978C95.8986 49.5649 95.8786 49.535 95.8535 49.5098C95.8283 49.4846 95.7984 49.4647 95.7655 49.4511C95.7326 49.4375 95.6973 49.4305 95.6617 49.4306H90.7266C90.655 49.4311 90.5865 49.4598 90.536 49.5106C90.4855 49.5613 90.4572 49.63 90.4571 49.7016V51.4917C90.4571 51.6442 90.5788 51.7659 90.7265 51.7659H92.2796V57.0159H92.2732L86.6578 51.7659H87.901C88.0536 51.7659 88.1703 51.6442 88.1703 51.4917V49.7016C88.1703 49.5523 88.0536 49.4306 87.9011 49.4306H82.9674C82.9318 49.4305 82.8965 49.4375 82.8636 49.4511C82.8307 49.4647 82.8008 49.4846 82.7756 49.5098C82.7504 49.535 82.7305 49.5649 82.7169 49.5978C82.7033 49.6307 82.6963 49.666 82.6964 49.7016V51.4917C82.6964 51.6442 82.8165 51.7659 82.9674 51.7659H84.4702V59.2376H82.9674C82.9318 59.2376 82.8965 59.2445 82.8636 59.2581C82.8307 59.2717 82.8008 59.2917 82.7756 59.3168C82.7504 59.342 82.7305 59.3719 82.7169 59.4048C82.7033 59.4377 82.6963 59.473 82.6964 59.5086V61.3019C82.6964 61.4529 82.8165 61.5697 82.9674 61.5697" fill="#007BC2"/>
</g>
</g>
<rect x="1" y="1" width="110" height="110" rx="9" stroke="black" stroke-opacity="0.1" stroke-width="2"/>
<defs>
<clipPath id="clip0_786_711">
<rect x="2" y="2" width="108" height="108" rx="8" fill="white"/>
</clipPath>
<clipPath id="clip1_786_711">
<rect width="80" height="12.192" fill="white" transform="translate(16 49.404)"/>
</clipPath>
</defs>
</svg>
