<svg width="112" height="112" viewBox="0 0 112 112" fill="none" xmlns="http://www.w3.org/2000/svg">
<g clip-path="url(#clip0_786_529)">
<rect x="2" y="2" width="108" height="108" rx="8" fill="white"/>
<g clip-path="url(#clip1_786_529)">
<path d="M33.9113 66.6096C31.0831 69.4398 26.4523 69.4398 23.6241 66.6096L18.3971 61.3826C15.5668 58.5523 15.5668 53.9236 18.3971 51.0933L23.6241 45.8684C26.4543 43.0381 31.0831 43.0381 33.9113 45.8684L39.1383 51.0953C41.9666 53.9236 41.9666 58.5544 39.1383 61.3846L33.9113 66.6116V66.6096Z" fill="#ED1C24"/>
<path d="M25.6679 63.9178C25.2524 63.9178 24.9131 63.5926 24.8971 63.1771C24.8891 62.9704 24.9613 62.7737 25.0998 62.6231C25.2403 62.4706 25.429 62.3822 25.6378 62.3742C26.0613 62.3541 26.4246 62.6873 26.4427 63.1149C26.4587 63.5404 26.1275 63.9018 25.702 63.9178C25.69 63.9178 25.6799 63.9178 25.6679 63.9178Z" fill="white"/>
<path d="M28.4814 49.65C28.0559 49.65 27.7166 49.7825 27.4416 50.0555C26.8495 50.6457 26.5384 51.8601 26.5665 53.4799C26.5986 55.4752 27.0743 59.3894 28.644 61.4067C28.8989 61.7339 29.1719 61.9928 29.459 62.1815C29.736 62.3641 30.0451 62.5428 30.5288 62.5428C30.6613 62.5428 30.8018 62.5287 30.9484 62.5026C31.8496 62.2859 32.9757 61.2842 33.8147 59.9514C33.9432 59.7487 34.162 59.6282 34.4029 59.6282C34.5333 59.6282 34.6598 59.6643 34.7722 59.7326C34.9288 59.833 35.0372 59.9855 35.0793 60.1662C35.1195 60.3468 35.0894 60.5335 34.991 60.6901C33.9312 62.3762 32.5301 63.5605 31.2474 63.8575C31.2434 63.8575 31.2294 63.8616 31.2133 63.8636C30.9785 63.9077 30.7476 63.9298 30.5268 63.9298C29.6998 63.9298 29.1157 63.6147 28.6982 63.3397C28.2867 63.0667 27.9013 62.7034 27.554 62.2598C25.344 59.4215 25.1935 54.1022 25.1835 53.504C25.1594 52.0889 25.3641 50.1699 26.4681 49.074C27.0081 48.538 27.6845 48.267 28.4774 48.267H28.6059C29.4027 48.267 30.0792 48.538 30.6192 49.074C31.7252 50.1699 31.9279 52.0889 31.9058 53.504C31.8797 54.9794 31.6108 57.8357 30.0812 60.397C29.9568 60.6058 29.7279 60.7342 29.485 60.7342C29.3606 60.7342 29.2361 60.7001 29.1298 60.6359C28.8026 60.4392 28.6942 60.0136 28.8889 59.6844C29.9588 57.8919 30.4766 55.9188 30.5188 53.4779C30.5449 51.858 30.2358 50.6436 29.6416 50.0535C29.3666 49.7805 29.0274 49.648 28.6059 49.648H28.4854L28.4814 49.65Z" fill="white"/>
<path d="M60.9758 60.0658C59.3379 60.0658 58.0893 58.3998 58.0893 56.3504C58.0893 54.3009 59.3379 52.6369 60.9758 52.6369C62.6137 52.6369 63.8683 54.2989 63.8683 56.3504C63.8683 58.4018 62.6218 60.0658 60.9758 60.0658ZM60.9758 51.6192C57.5514 51.6192 55.502 53.7389 55.502 56.3504C55.502 58.9618 57.5514 61.0815 60.9758 61.0815C64.4002 61.0815 66.4577 58.9638 66.4577 56.3504C66.4577 53.7369 64.4042 51.6192 60.9758 51.6192Z" fill="#ED1C24"/>
<path d="M66.9268 53.0163H70.5318V60.6861H73.2477V53.0163H76.2927V51.9705H66.9268V53.0163Z" fill="#ED1C24"/>
<path d="M77.2822 53.0163H80.3232V60.6861H83.0391V53.0163H86.6522V51.9705H77.2822V53.0163Z" fill="#ED1C24"/>
<path d="M50.0879 59.1224V51.9685H47.4805V59.6504C47.4805 60.2244 47.9462 60.6881 48.5202 60.6881H55.1864V59.6403H50.6098C50.3268 59.6403 50.0879 59.4135 50.0879 59.1224Z" fill="#ED1C24"/>
<path d="M88.1279 53.0063V59.6504C88.1279 60.2244 88.5956 60.6881 89.1697 60.6881H96.2755V59.6604H91.2613C90.9702 59.6604 90.7374 59.4276 90.7374 59.1385V56.5712H96.1992V55.5475H90.7374V53.5161C90.7374 53.2311 90.9702 52.9982 91.2613 52.9982H96.2755V51.9705H89.1677C88.5976 51.9705 88.1279 52.4322 88.1279 53.0083" fill="#ED1C24"/>
</g>
</g>
<rect x="1" y="1" width="110" height="110" rx="9" stroke="black" stroke-opacity="0.1" stroke-width="2"/>
<defs>
<clipPath id="clip0_786_529">
<rect x="2" y="2" width="108" height="108" rx="8" fill="white"/>
</clipPath>
<clipPath id="clip1_786_529">
<rect width="80" height="24.9866" fill="white" transform="translate(16.2754 43.7467)"/>
</clipPath>
</defs>
</svg>
