<svg width="112" height="112" viewBox="0 0 112 112" fill="none" xmlns="http://www.w3.org/2000/svg">
<g clip-path="url(#clip0_786_544)">
<rect x="2" y="2" width="108" height="108" rx="8" fill="white"/>
<path d="M29.2395 71.6971C28.4685 71.6516 28.1434 71.3459 28.1434 70.4614V61.8339H24.5122V71.2439C24.5122 72.7012 25.4064 73.0066 26.2222 73.0391H34.4725V71.6971H29.2395ZM81.9651 63.154H88.0273V61.8315H78.9498C78.1344 61.8654 77.24 62.1708 77.24 63.6271V71.2439C77.24 72.6999 78.1344 73.0046 78.9498 73.0391H88.0273V71.7157H81.9651C81.1944 71.6689 80.8702 71.3459 80.8702 70.4614V67.4255H87.924V66.1144H80.8702V64.4099C80.8702 63.5228 81.1944 63.1998 81.9651 63.154ZM76.0776 61.8329H63.237V63.1822H67.831V73.0478H71.4732V63.1822H76.0776V61.8329ZM62.0733 61.8329H49.2318V63.1822H53.8272V73.0478H57.4703V63.1822H62.0733V61.8329ZM41.7487 72.2371C39.6265 72.2371 38.0124 70.1016 38.0124 67.4671C38.0124 64.8302 39.6265 62.6961 41.7487 62.6961C43.8729 62.6961 45.4868 64.8302 45.4868 67.4671C45.4868 70.1016 43.8729 72.2371 41.7487 72.2371ZM41.7487 61.387C37.1575 61.387 34.4063 64.1105 34.4063 67.4671C34.4063 70.8236 37.1575 73.5448 41.7487 73.5448C46.344 73.5448 49.0955 70.8236 49.0955 67.4671C49.0955 64.1105 46.344 61.387 41.7487 61.387Z" fill="#ED1C24"/>
<path d="M24.0504 95.4862C24.0781 95.3313 24.649 91.3231 25.3191 86.5792C25.9892 81.8353 26.5575 77.8662 26.582 77.7589L26.6266 77.5639H32.1556L32.4696 78.4524C32.6423 78.9411 33.4867 81.3851 34.3461 83.8836C35.2055 86.3821 35.9278 88.4454 35.9512 88.4687C36.0046 88.5221 35.8031 89.0577 38.048 82.8951L39.9742 77.6072L42.7599 77.5843C44.2921 77.5718 45.5476 77.5718 45.5499 77.5843C45.5523 77.5969 46.1092 81.6836 46.7875 86.6659L48.0209 95.7246L45.2945 95.7475C43.7949 95.7601 42.5505 95.753 42.5292 95.7316C42.5078 95.7103 42.1524 93.2552 41.7395 90.2759C41.3266 87.2966 40.9682 84.8387 40.9431 84.8139C40.918 84.7892 40.0816 87.0389 39.0844 89.8133C38.0871 92.5878 37.1941 95.0626 37.0998 95.3129L36.9284 95.768H33.3272L32.5466 93.4925C32.1172 92.2409 31.2826 89.8051 30.6919 88.0794C30.1012 86.3538 29.594 84.9689 29.5647 85.002C29.5355 85.0351 29.1658 87.471 28.7432 90.4151L27.9748 95.768H24L24.0504 95.4862ZM82.1815 95.8934C81.3552 95.7145 80.4216 95.2385 79.9259 94.7435C79.4196 94.2378 79.1061 93.6532 78.8555 92.7473C78.6865 92.136 78.6681 91.7939 78.6225 88.3996L78.5548 84.7776L76.6382 84.7848C74.4389 84.793 73.9426 84.7971 72.9935 85.2479C72.2549 85.5987 71.5802 86.2296 71.195 86.9295L70.9346 87.4028L70.8849 95.768H65.9437V81.4647H70.8912V83.3012L71.3438 82.8948C71.9009 82.3947 72.7806 81.9434 73.6571 81.7082C74.2121 81.5592 74.669 81.5232 76.4681 81.487L78.6164 81.4437V77.5639L80.3307 77.5644C81.2736 77.5647 82.3673 77.59 82.7611 77.6206L83.4772 77.6763V81.4648H87.036V83.0667L87.0451 84.7776H83.5206L83.4949 87.5762C83.461 91.2598 83.549 91.7475 84.3279 92.2312C84.6143 92.409 84.778 92.4338 85.8425 92.4606L87.036 92.4906V96.028L84.8877 96.0211C83.3991 96.0164 82.5681 95.9771 82.1815 95.8934ZM57.4664 92.6216C58.0474 92.3559 58.5249 91.9372 58.7623 91.4852C58.9244 91.1766 58.9492 90.9835 58.9525 90.006L58.9563 88.8818L58.2185 88.9078C56.6114 88.9645 55.4023 89.316 54.7908 89.9043C53.8236 90.8347 54.16 92.3705 55.4196 92.7743C55.9876 92.9564 56.8797 92.8899 57.4664 92.6216ZM53.8656 96.0175C50.6025 95.7525 48.5793 93.0239 49.5761 90.1527C50.5084 87.4786 53.6791 86.6306 55.7962 86.3878C56.6583 86.2938 57.6119 86.251 58.6769 86.2259C58.7369 86.1906 58.7478 85.9139 58.747 85.8126C58.7445 85.4982 58.5651 85.16 58.3068 84.9228C57.3288 84.0249 54.3534 84.0114 52.0729 84.951C51.7243 85.0947 51.428 85.1979 51.4145 85.1805C51.4009 85.1631 51.194 84.5377 50.9546 83.7907L50.5193 82.4325L51.1899 82.1679C52.9458 81.4749 54.9163 81.1641 57.1335 81.2303C59.5886 81.3035 60.9783 81.7858 62.1705 82.9782C62.8673 83.6752 63.2572 84.3505 63.533 85.3384C63.7151 85.9904 63.7233 86.1982 63.7531 90.8919L63.7841 95.768H58.9997V95.1612C58.9997 94.8274 58.9805 94.5544 58.957 94.5544C58.9336 94.5544 58.7319 94.6935 58.5089 94.8634C57.3404 95.7542 55.6864 96.1653 53.8656 96.0175Z" fill="#ED1C24"/>
<path fill-rule="evenodd" clip-rule="evenodd" d="M63.837 50.6321C59.5403 54.9553 52.6283 54.9553 48.3316 50.6321L40.4855 42.7377C36.1889 38.4145 36.1889 31.4599 40.4855 27.1368L48.3316 19.2424C52.6283 14.9192 59.5403 14.9192 63.837 19.2424L71.6831 27.1368C75.9798 31.4599 75.9798 38.4145 71.6831 42.7377L63.837 50.6321Z" fill="#ED1D24"/>
<path fill-rule="evenodd" clip-rule="evenodd" d="M51.5074 46.4969C50.947 46.4969 50.3866 45.9331 50.3866 45.3692C50.3866 44.9932 50.5734 44.8053 50.7602 44.6173C50.947 44.4294 51.3206 44.2414 51.5074 44.2414C52.0679 44.2414 52.6283 44.8053 52.6283 45.3692C52.6283 45.9331 52.0679 46.4969 51.5074 46.4969Z" fill="white"/>
<path fill-rule="evenodd" clip-rule="evenodd" d="M55.6173 25.0692C55.0569 25.0692 54.4964 25.2571 54.1228 25.6331C53.1887 26.5729 52.8151 28.2645 52.8151 30.7081C52.8151 33.7155 53.5624 39.5423 55.9909 42.7377C56.3645 43.3016 56.7382 43.6775 57.2986 43.8654C57.6722 44.0534 58.2326 44.4293 58.9799 44.4293C59.1667 44.4293 59.3535 44.4293 59.5403 44.4293C60.848 44.0534 62.5293 42.5497 63.837 40.6701C64.0238 40.2942 64.3974 40.1062 64.7711 40.1062C64.9579 40.1062 65.1447 40.1062 65.3315 40.2942C65.5183 40.4821 65.7051 40.6701 65.7051 40.858C65.7051 41.046 65.7051 41.4219 65.5183 41.6099C63.837 44.2414 61.7821 45.933 59.914 46.309C59.5403 46.309 59.1667 46.4969 58.7931 46.4969C57.4854 46.4969 56.7382 45.933 55.9909 45.5571C55.4305 45.1812 54.87 44.6173 54.3096 43.8654C50.947 39.5423 50.7602 31.4599 50.7602 30.7081C50.7602 28.6405 50.947 25.6331 52.6283 23.9414C53.3755 23.1896 54.4964 22.8136 55.6173 22.8136H55.8041C56.925 22.8136 58.0458 23.1896 58.7931 23.9414C60.4744 25.6331 60.848 28.4525 60.6612 30.7081C60.6612 32.9636 60.2876 37.2868 57.859 41.046C57.6722 41.4219 57.2986 41.6099 56.925 41.6099C56.7382 41.6099 56.5513 41.6099 56.3645 41.4219C55.8041 41.046 55.8041 40.4821 55.9909 39.9182C57.6722 37.2868 58.4195 34.2794 58.4195 30.5201C58.4195 28.0766 58.0458 26.197 57.1118 25.4451C56.925 25.2571 56.5513 25.0692 55.6173 25.0692Z" fill="white"/>
</g>
<rect x="1" y="1" width="110" height="110" rx="9" stroke="black" stroke-opacity="0.1" stroke-width="2"/>
<defs>
<clipPath id="clip0_786_544">
<rect x="2" y="2" width="108" height="108" rx="8" fill="white"/>
</clipPath>
</defs>
</svg>
