<svg width="112" height="112" viewBox="0 0 112 112" fill="none" xmlns="http://www.w3.org/2000/svg">
<g clip-path="url(#clip0_786_553)">
<rect x="2" y="2" width="108" height="108" rx="8" fill="white"/>
<path d="M22.8421 63.0632C22.0371 62.9182 21.3606 62.6193 20.7884 62.1557C20.4683 61.8963 16.9767 58.3853 16.8248 58.17C16.4757 57.6752 16.2425 57.1637 16.0921 56.5624C16.0111 56.2386 16.0013 56.1352 16 55.5888C15.9984 54.7821 16.0945 54.3204 16.4051 53.6482C16.6833 53.0461 16.7897 52.924 18.7634 50.9417C19.8766 49.8237 20.7301 48.9945 20.8992 48.8667C21.4353 48.4618 22.1247 48.1657 22.8081 48.0469C23.2858 47.9638 24.1298 47.9946 24.5911 48.1119C25.1222 48.2469 25.5727 48.4474 26.0345 48.7543C26.399 48.9965 30.0967 52.6942 30.3391 53.0589C30.832 53.8006 31.0533 54.4921 31.0834 55.385C31.1178 56.403 30.9036 57.1775 30.3557 58.0171C30.2011 58.254 29.8287 58.6456 28.2792 60.2004C26.9188 61.5656 26.3105 62.1526 26.1025 62.301C25.6377 62.6326 25.0376 62.8973 24.4553 63.0275C24.1238 63.1016 23.1722 63.1226 22.8421 63.0632Z" fill="#EC1F26"/>
<path d="M21.7949 60.1897C21.8648 60.1704 21.9654 60.1028 22.0242 60.0359C22.108 59.9404 22.1288 59.8862 22.1288 59.7633C22.1288 59.4635 21.9553 59.2738 21.6811 59.2738C21.4491 59.2738 21.3219 59.3486 21.2402 59.5332C21.0986 59.8533 21.2819 60.1586 21.6534 60.2215C21.6627 60.2231 21.7264 60.2088 21.7949 60.1897Z" fill="white"/>
<path d="M25.2612 60.1077C25.6939 59.9572 26.0104 59.7389 26.4945 59.2568C26.9367 58.8164 27.3232 58.3104 27.3725 58.1071C27.4052 57.9726 27.3396 57.7977 27.2184 57.6956C27.0987 57.5949 26.8437 57.5767 26.7242 57.6605C26.6843 57.6884 26.5633 57.8374 26.4553 57.9915C26.2102 58.3414 25.7074 58.8653 25.4459 59.0433C25.1093 59.2726 24.9058 59.3493 24.6305 59.351C24.0651 59.3547 23.5376 58.9135 23.1143 58.0833C22.7595 57.3876 22.5165 56.5404 22.3403 55.3851C22.263 54.8782 22.2519 54.6979 22.25 53.9077C22.248 53.1508 22.2576 52.9645 22.31 52.736C22.3979 52.3523 22.6026 51.9398 22.7806 51.7874C23.1237 51.4937 23.7064 51.496 24.0344 51.7924C24.2006 51.9425 24.4086 52.3638 24.4919 52.719C24.5688 53.0468 24.5974 54.1693 24.5424 54.7017C24.4463 55.6323 24.217 56.4281 23.8073 57.253C23.5077 57.8563 23.4934 57.9506 23.6715 58.145C23.7761 58.2591 23.8049 58.2719 23.9577 58.2719C24.1988 58.2719 24.284 58.1933 24.5134 57.7595C25.4699 55.9513 25.7395 53.2387 25.1011 51.8486C24.8185 51.2332 24.3786 50.8617 23.7974 50.7473C23.5127 50.6913 23.0132 50.722 22.7643 50.8107C21.7525 51.1715 21.2538 52.4414 21.3791 54.3384C21.5769 57.3312 22.4326 59.3624 23.774 60.0224C24.2191 60.2415 24.7835 60.2738 25.2612 60.1077Z" fill="white"/>
<path d="M43.3855 57.8113C44.5186 57.5501 45.1406 55.9564 44.6338 54.6128C44.2936 53.7111 43.5299 53.22 42.748 53.4003C42.146 53.5391 41.6194 54.1241 41.4136 54.8829C41.3187 55.2327 41.3105 55.9184 41.397 56.2681C41.6627 57.3421 42.5234 58.0101 43.3855 57.8113ZM42.4784 58.4222C41.0407 58.2356 40.0245 57.3448 39.8031 56.0768C39.6227 55.0438 40.0534 53.9792 40.8947 53.3789C41.7344 52.7797 43.0138 52.5909 44.1996 52.8912C44.7668 53.0349 45.4301 53.4465 45.7689 53.8651C46.2709 54.4851 46.4817 55.3322 46.3302 56.1208C46.0524 57.5675 44.7606 58.477 43.0158 58.4543C42.8384 58.452 42.5965 58.4375 42.4784 58.4222Z" fill="#EC1F26"/>
<path d="M81.838 57.0436C82.2784 56.7961 82.5143 56.283 82.5143 55.5726C82.5143 54.8802 82.2512 54.3393 81.8087 54.122C81.6416 54.04 81.5737 54.0266 81.3256 54.0269C81.1035 54.0271 81.0007 54.0438 80.8799 54.0995C80.3886 54.3256 80.1217 54.8516 80.1244 55.5888C80.1264 56.1587 80.2413 56.5155 80.5198 56.8177C80.7617 57.0801 80.9903 57.1702 81.3795 57.1565C81.6122 57.1483 81.6823 57.1311 81.838 57.0436ZM80.9252 58.3172C79.8204 58.2227 78.9512 57.7079 78.5265 56.8964C78.3023 56.4678 78.2518 56.2328 78.2531 55.6228C78.254 55.2101 78.2686 55.0277 78.3142 54.8644C78.6012 53.8347 79.3603 53.1769 80.5614 52.917C80.8714 52.8499 81.9575 52.8582 82.2679 52.93C83.3437 53.179 84.099 53.8751 84.3512 54.8502C84.4357 55.1771 84.4447 55.8131 84.3698 56.1722C84.2287 56.8485 83.8669 57.3945 83.3172 57.7602C82.6439 58.2082 81.8399 58.3954 80.9252 58.3172Z" fill="#2685C7"/>
<path d="M85.7067 58.2727C85.2061 58.1879 84.6539 58.013 84.6539 57.9391C84.6539 57.9175 84.7242 57.6533 84.8101 57.3519L84.9663 56.8039L85.0903 56.8634C85.6633 57.1381 86.5824 57.2646 87.0305 57.1303C87.2659 57.0598 87.3893 56.8548 87.3302 56.6326C87.2849 56.462 87.0844 56.3422 86.5451 56.1636C85.9598 55.9698 85.7088 55.8596 85.4461 55.6813C85.1995 55.5138 85.0253 55.3245 84.9013 55.0891C84.8152 54.9257 84.8067 54.8775 84.8067 54.553C84.8067 54.2215 84.8144 54.18 84.9165 53.9646C85.1362 53.5007 85.6428 53.1257 86.2841 52.9522C86.5354 52.8842 86.654 52.8739 87.2011 52.8729C87.6019 52.872 87.9155 52.8887 88.0671 52.9187C88.3437 52.9731 88.8219 53.1176 88.8432 53.1531C88.8587 53.1788 88.5768 54.2075 88.5458 54.2384C88.5359 54.2483 88.4395 54.2243 88.3314 54.1851C87.3907 53.8434 86.5558 53.9436 86.5558 54.3982C86.5558 54.6412 86.7119 54.7423 87.5038 55.0121C88.3565 55.3026 88.7617 55.5739 88.9676 55.9922C89.148 56.3587 89.1561 56.887 88.9868 57.2566C88.8887 57.4708 88.6197 57.7677 88.39 57.9151C88.1698 58.0564 87.7349 58.2104 87.3825 58.2719C87.0249 58.3342 86.0728 58.3346 85.7067 58.2727Z" fill="#2685C7"/>
<path d="M70.2028 58.2529C68.6828 58.1036 67.5597 57.4522 67.0054 56.3984C66.7397 55.893 66.6219 55.4233 66.6025 54.7907C66.5702 53.7393 66.9057 52.8656 67.6108 52.1655C68.5314 51.2513 70.0581 50.7979 71.8134 50.9172C72.1014 50.9368 72.4688 50.9757 72.6298 51.0037C72.9381 51.0571 73.4332 51.1794 73.5003 51.2185C73.5286 51.235 73.4852 51.4286 73.3487 51.8957C73.1962 52.4177 73.1473 52.5457 73.1066 52.5301C72.3548 52.2399 71.0736 52.1607 70.3141 52.3574C69.4244 52.5878 68.8128 53.1585 68.6102 53.9474C68.3835 54.8304 68.6477 55.8054 69.2621 56.3532C69.4822 56.5493 69.9645 56.7984 70.2789 56.8782C70.7143 56.9888 71.5533 57.0061 71.9273 56.9122L72.0198 56.889V55.3341H70.7632V54.0775H73.8204L73.8029 57.8962L73.4123 57.9908C72.9333 58.107 72.3558 58.2065 71.8889 58.2535C71.4921 58.2933 70.6118 58.2928 70.2028 58.2529Z" fill="#2685C7"/>
<path d="M35.2893 58.1567C35.1322 58.0842 35.0205 57.9726 34.9689 57.8366C34.9445 57.7722 34.9327 56.9608 34.9327 55.3489V52.9567H36.495V55.1457C36.495 56.6779 36.5063 57.3595 36.5327 57.4175C36.5535 57.463 36.6031 57.5173 36.6431 57.5382C36.6926 57.5641 37.1712 57.5789 38.1422 57.5844L39.5686 57.5926L39.5881 58.2209L37.5067 58.2199C35.5556 58.2189 35.4167 58.2155 35.2893 58.1567Z" fill="#EC1F26"/>
<path d="M48.8234 53.603L46.6668 53.5851L46.6472 52.9568H52.3215V53.6021H50.4876V58.221H48.8234L48.8234 53.603Z" fill="#EC1F26"/>
<path d="M54.7668 53.602H52.9329V52.9567H58.5707V53.602H56.3971V58.2209H54.7668V53.602Z" fill="#EC1F26"/>
<path d="M59.8443 58.1645C59.7052 58.0912 59.594 57.986 59.5269 57.8643C59.4762 57.7725 59.4707 57.5501 59.4707 55.6228C59.4707 54.446 59.4821 53.4423 59.4961 53.3924C59.5344 53.256 59.6886 53.0906 59.8428 53.0206C59.9714 52.9622 60.1191 52.9582 62.1792 52.9575L64.3783 52.9565V53.5678H62.8658C61.2561 53.5678 61.1705 53.5757 61.0866 53.7325C61.0639 53.7749 61.0499 54.0545 61.0499 54.4656V55.1301H64.3443V55.7414H61.0499L61.0507 56.565C61.0515 57.454 61.0556 57.4756 61.243 57.5714C61.2944 57.5977 61.7873 57.6093 62.8477 57.6093H64.3782V58.2207L62.1622 58.2194C60.2089 58.218 59.9341 58.2118 59.8443 58.1645Z" fill="#EC1F26"/>
<path d="M74.6519 52.9893L76.435 52.9737L76.4412 53.2115C76.4446 53.3422 76.4455 53.4836 76.4433 53.5256C76.4379 53.6252 76.4723 53.6221 76.5734 53.5139C76.6922 53.3867 77.0619 53.1773 77.318 53.0921C77.4656 53.043 77.6624 53.0126 77.9123 53.0003L78.2859 52.982V54.1794L78.0583 54.1794C77.3902 54.1794 76.8191 54.502 76.5617 55.0247L76.4519 55.2477L76.4432 56.6919C76.4385 57.4862 76.4347 58.1552 76.4348 58.1785C76.4348 58.2114 76.2323 58.221 75.5347 58.221H74.6345L74.6519 52.9893Z" fill="#2685C7"/>
<path d="M89.6464 52.9567H91.4804V58.2209H89.6464V52.9567Z" fill="#2685C7"/>
<path d="M92.3634 52.9929L93.2497 52.9833C93.7534 52.9778 94.1442 52.9869 94.155 53.0044C94.1654 53.0213 94.1732 53.1428 94.1723 53.2743C94.17 53.6084 94.1816 53.6242 94.3298 53.4903C94.6443 53.2061 95.1032 53.0312 95.6334 52.9932C95.8243 52.9796 95.9836 52.9702 95.9874 52.9723C95.9934 52.9756 96.0033 53.9538 95.999 54.1199C95.9977 54.17 95.9639 54.1794 95.7852 54.1799C95.106 54.1816 94.5228 54.5187 94.272 55.0538L94.1804 55.2492L94.1716 56.6756C94.1668 57.4601 94.1629 58.1288 94.1631 58.1615C94.1634 58.2166 94.0981 58.2209 93.2634 58.2209H92.3634L92.3634 52.9929Z" fill="#2685C7"/>
<path d="M90.2543 52.2229C90.0091 52.1675 89.7837 52.0139 89.6643 51.8207C89.5733 51.6736 89.5616 51.625 89.5622 51.3971C89.5629 51.1053 89.6092 50.9914 89.8037 50.8025C90.1626 50.4539 90.9903 50.4471 91.3408 50.7899C91.6376 51.08 91.6971 51.5189 91.483 51.8377C91.373 52.0015 91.1538 52.1603 90.9691 52.2101C90.7835 52.26 90.4456 52.2661 90.2543 52.2229Z" fill="#2685C7"/>
</g>
<rect x="1" y="1" width="110" height="110" rx="9" stroke="black" stroke-opacity="0.1" stroke-width="2"/>
<defs>
<clipPath id="clip0_786_553">
<rect x="2" y="2" width="108" height="108" rx="8" fill="white"/>
</clipPath>
</defs>
</svg>
