<svg width="112" height="112" viewBox="0 0 112 112" fill="none" xmlns="http://www.w3.org/2000/svg">
<g clip-path="url(#clip0_786_728)">
<rect x="2" y="2" width="108" height="108" rx="8" fill="white"/>
<path fill-rule="evenodd" clip-rule="evenodd" d="M51.5883 57.6923L54.0709 57.6659C54.0709 57.6659 54.0533 57.6483 54.0313 57.6308C53.8687 57.4989 53.7721 57.4242 53.6666 57.1562C53.5656 56.9014 53.5348 56.6026 53.5392 56.3038L53.5743 52.4239C53.5787 51.7911 53.5656 51.1277 53.5963 50.4993C53.7018 50.7146 54.7607 53.764 54.8838 54.098L56.1229 57.5956C56.158 57.6879 56.1273 57.6571 56.1932 57.6879H57.3795C57.4323 57.4286 57.5861 57.0507 57.6739 56.7827L59.7655 50.5037C59.7655 50.5037 59.7787 50.4773 59.783 50.4686L59.805 50.4378C59.8621 51.7428 59.8797 53.0654 59.9193 54.3748C59.9368 55.0207 59.9676 55.6798 59.9764 56.3257C59.9808 56.8267 59.8577 57.2704 59.4799 57.5736C59.4271 57.6176 59.37 57.6395 59.3217 57.6879C59.7523 57.7186 62.9731 57.7011 63.6366 57.6923C63.4828 57.4945 63.2631 57.433 63.1049 56.8486C62.9994 56.4663 63.0082 55.9918 62.9907 55.5744L62.7973 50.2489C62.7841 49.8402 62.7314 49.3173 62.8149 48.9351C62.8764 48.6582 63.0302 48.3331 63.2411 48.1661L63.3422 48.0607H59.3349C59.2514 48.4385 59.0405 48.9614 58.9086 49.3437C58.768 49.7567 57.6827 53.061 57.6124 53.1489L55.9603 48.0607H51.9749L52.054 48.1617C52.0848 48.1925 52.1111 48.2144 52.1463 48.2496C52.6296 48.7593 52.5066 49.6776 52.4846 50.2928C52.4495 51.176 52.4143 52.0636 52.3792 52.9468C52.3572 53.5312 52.2913 56.4268 52.1551 56.8794C52.0408 57.2704 51.8783 57.4198 51.6234 57.6395L51.5751 57.6879L51.5883 57.6923Z" fill="#ED314C"/>
<path fill-rule="evenodd" clip-rule="evenodd" d="M80.4787 48.9307C81.1246 48.8384 81.7354 48.7549 82.2671 49.0976C82.6977 49.3788 82.891 49.9149 82.869 50.6136C82.8251 52.1383 81.9639 52.459 80.4743 52.459V48.9307H80.4787ZM76.7306 48.0607C76.8185 48.1749 76.9152 48.1837 77.0778 48.4341C77.4205 48.9614 77.3414 49.6996 77.3414 50.3367V56.0972C77.3414 56.563 77.1173 56.8574 76.8888 57.0639C76.4758 57.4374 76.2649 57.5033 76.0891 57.6483L81.1158 57.6879C80.9093 57.4682 80.7204 57.3891 80.5842 56.9453C80.4699 56.5762 80.4787 56.1588 80.4787 55.7545C80.4787 55.1306 80.4524 53.7157 80.4787 53.1928C80.7204 53.4609 81.9287 55.403 82.4428 56.0138C82.6933 56.3126 82.7284 56.3257 82.9877 56.6026C83.8972 57.5692 85.9097 58.0658 87.6058 57.5736L87.2718 57.3276C86.995 57.0991 86.9027 56.9673 86.6918 56.7695C86.5161 56.6026 86.0459 56.0094 85.9053 55.8336C85.4439 55.2536 84.8903 54.4363 84.4772 53.8168L83.7918 52.7798C83.7215 52.6699 83.6116 52.5337 83.5633 52.4151C84.5256 52.2042 85.5362 51.6374 85.8042 50.6267C85.958 50.0467 85.8482 49.4096 85.5582 49.001C84.4245 47.384 80.6852 47.9816 78.7563 48.0475C78.084 48.0694 77.4029 48.0475 76.7306 48.0563V48.0607Z" fill="#ED314C"/>
<path fill-rule="evenodd" clip-rule="evenodd" d="M45.2038 48.7461C46.2847 48.5923 46.7988 49.2822 47.1284 49.994C47.4667 50.7278 47.6688 51.7121 47.7172 52.604C47.8182 54.3616 47.4887 56.8882 45.7794 57.02C44.7688 57.0991 44.18 56.396 43.868 55.7194C43.2089 54.2957 42.9497 51.7516 43.5165 50.2664C43.8109 49.5019 44.2898 48.8691 45.1994 48.7373L45.2038 48.7461ZM45.3708 47.8322C44.0965 47.9113 42.7212 48.3243 41.7765 49.1635C41.2272 49.6513 40.7878 50.1214 40.4847 50.842C40.1947 51.5275 40.054 52.1998 40.0628 53.0434C40.0892 55.3459 41.425 57.02 43.3364 57.6527C45.0061 58.2064 47.1811 58.0482 48.6575 57.0244C48.9079 56.853 49.1935 56.6377 49.3781 56.4312L49.6988 56.0929C50.9907 54.6472 51.3554 52.2569 50.5381 50.5389C50.1954 49.8139 49.6725 49.2207 49.031 48.7549C48.9167 48.6714 48.7673 48.5791 48.6311 48.5C47.682 47.9464 46.4956 47.7663 45.3708 47.8366V47.8322Z" fill="#ED314C"/>
<path fill-rule="evenodd" clip-rule="evenodd" d="M68.6237 49.9852C68.6633 50.0204 69.7178 52.4898 69.7882 52.7183H67.5999L68.6237 49.9852ZM63.8167 57.6879H66.7695C66.708 57.6483 66.6113 57.6088 66.5454 57.5692C66.4443 57.5121 66.4136 57.4726 66.3477 57.4023C65.7896 56.8135 66.8134 54.6868 67.1474 53.9178C67.1781 53.8431 67.2089 53.6981 67.288 53.6981C68.2019 53.6981 69.318 53.6806 70.21 53.6981C70.7197 54.8977 71.6073 56.3345 71.6292 57.6791C71.7654 57.7186 75.4081 57.7186 75.742 57.6879L75.3685 57.4023C75.1708 57.2133 75.0126 57.0244 74.8588 56.7783C74.5468 56.2906 73.4659 53.7113 73.1803 53.061L71.5413 49.3261C71.4447 49.1152 71.3612 48.9087 71.2645 48.6934C71.181 48.5044 71.0448 48.2364 70.9965 48.0563H67.2836C67.3231 48.1485 67.3099 48.1046 67.3802 48.1837C67.6966 48.5264 67.7362 48.9043 67.6659 49.3569C67.5912 49.8314 67.4462 50.2928 67.2968 50.7278C66.7519 52.3184 65.8907 54.0497 65.2623 55.6315C64.9592 56.396 64.7526 57.0244 64.1023 57.5077C64.0101 57.578 63.909 57.6088 63.8255 57.6835L63.8167 57.6879Z" fill="#ED314C"/>
<path fill-rule="evenodd" clip-rule="evenodd" d="M34.1266 54.2869V56.1676C34.1266 56.4883 34.0958 56.7959 33.9947 57.0771C33.8761 57.4154 33.7399 57.4901 33.5597 57.6923H37.8263C37.7384 57.5868 37.6549 57.5341 37.5671 57.4242C37.5011 57.3407 37.4177 57.1957 37.3693 57.0771C37.1496 56.5454 37.2199 55.3459 37.2199 54.6956C37.2199 52.8237 38.4678 50.8289 39.4828 49.4623C39.8212 49.0098 40.0057 48.8076 40.3221 48.421C40.3748 48.3594 40.4231 48.3155 40.4715 48.254L40.5769 48.131C40.6253 48.0694 40.5857 48.1397 40.6209 48.065H37.3474C37.4352 48.3331 37.6945 48.5791 37.7604 49.1855C37.8307 49.8578 37.2639 50.8289 36.9299 51.4001C36.8245 51.5802 36.473 52.2701 36.3719 52.3624C35.9676 51.3342 34.6407 49.247 34.7285 48.065H30.5103L31.3584 49.0757C32.2679 50.2532 34.1222 52.8545 34.1222 54.2869H34.1266Z" fill="#ED314C"/>
<path fill-rule="evenodd" clip-rule="evenodd" d="M87.2938 50.5652C87.3509 50.4642 87.4124 50.3236 87.4652 50.2225C87.6365 49.9061 87.9221 49.581 88.2649 49.414C88.6383 49.2295 89.5831 49.0317 90.0664 49.0844V55.7633C90.0664 56.3565 90.1059 56.8926 89.7764 57.3671L89.5435 57.6132C89.4952 57.6527 89.4952 57.6351 89.4468 57.6923H93.8232C93.8232 57.6923 93.7969 57.6659 93.7617 57.6351C93.3223 57.2397 93.2213 56.831 93.2213 56.1719V49.0713C93.8672 49.0713 94.5175 49.1196 95.0448 49.3613C95.2864 49.4711 95.5105 49.6513 95.6336 49.8139C95.7258 49.9369 95.761 49.9852 95.8357 50.1346C95.9016 50.262 95.9236 50.407 95.9851 50.5301C96.0159 49.9457 95.9895 48.7154 95.9895 48.0607H87.285V50.5652H87.2938Z" fill="#ED314C"/>
<path fill-rule="evenodd" clip-rule="evenodd" d="M22.5352 47.6784L22.6495 47.7663C22.6934 47.7926 22.733 47.819 22.7725 47.8453C23.1064 48.0694 23.4843 48.3638 23.7787 48.6275L24.284 49.1328C24.763 49.0229 25.075 48.8735 25.6462 48.8647C26.1998 48.856 26.6216 48.9966 26.8282 49.3393C27.0654 49.7392 26.8194 50.2972 26.6304 50.596C26.3756 50.9958 26.1515 51.2024 25.8615 51.4836C25.1189 52.2086 23.6908 52.9819 22.4957 53.0566C22.232 53.0742 21.9728 53.0566 21.7179 53.0259C21.5554 53.0039 21.1248 52.8765 21.0325 52.8809C20.9973 53.2587 20.9402 54.6297 21.1072 54.9065C22.6231 55.1833 24.6004 54.678 25.7472 54.0672C26.0372 53.9134 26.3624 53.685 26.5865 53.5004C27.3686 52.8677 28.0321 52.1602 28.4364 51.132C29.0295 49.6205 28.6209 48.0387 27.1269 47.3664C26.0065 46.8611 24.7366 46.9226 23.5458 47.2829C23.0801 47.4235 22.8164 47.5861 22.5352 47.6784Z" fill="#ED314C"/>
<path fill-rule="evenodd" clip-rule="evenodd" d="M18.5894 53.8475C18.5894 53.329 18.6993 52.6392 18.8267 52.1295C18.8663 51.9757 18.9409 51.7516 18.9629 51.6066C18.7608 51.4967 18.2994 50.9563 18.1412 50.7278C17.5129 49.8226 17.6271 48.9043 18.9409 48.8779C19.4594 48.8691 19.956 48.9966 20.4041 49.146C21.4631 49.5063 22.7857 50.3279 23.3657 51.3078C23.4711 51.4836 23.5678 51.6637 23.6557 51.8834C23.7084 52.0196 23.8227 52.4678 23.8666 52.5337C24.2928 52.4107 25.4177 51.7033 25.6066 51.4704C25.3254 50.596 24.4422 49.4579 23.8007 48.8867C23.4052 48.5352 23.0537 48.2057 22.5704 47.9156C20.8479 46.8875 17.9391 46.4612 16.5506 48.1705C16.1024 48.7241 15.8783 49.5854 16.0673 50.4949C16.309 51.6417 16.9944 52.5162 17.7634 53.2192C17.9084 53.351 18.4093 53.786 18.5938 53.8431L18.5894 53.8475Z" fill="#ED314C"/>
<path fill-rule="evenodd" clip-rule="evenodd" d="M25.9362 54.1595C25.5759 54.388 24.8465 54.656 24.3939 54.7966C24.2006 54.8538 23.994 54.8933 23.8051 54.9548C23.6996 55.4382 23.603 55.7765 23.3965 56.1807C23.2207 56.5235 22.9614 56.8838 22.5792 56.9936C21.7179 57.2441 21.1995 56.0313 21.0149 55.3415C20.6414 53.9354 20.7161 51.8614 21.7531 50.7234C21.8278 50.6443 21.8717 50.5828 21.942 50.5037C22.0167 50.4246 22.1002 50.3719 22.1617 50.2928C21.8849 50.0335 20.6985 49.3701 20.3558 49.3261C19.9779 49.7216 19.5078 50.6575 19.3188 51.1452C18.7213 52.7139 18.5543 54.3133 19.1299 55.9303C19.3891 56.6597 19.6923 57.1826 20.1844 57.7318C21.9025 59.63 24.3939 58.7292 25.3869 56.4488C25.5363 56.1016 25.6594 55.7765 25.756 55.3898C25.8175 55.135 25.9669 54.41 25.9362 54.1595Z" fill="#ED314C"/>
<path fill-rule="evenodd" clip-rule="evenodd" d="M54.8442 60.4649C55.2572 60.4517 55.8153 60.4649 56.0745 60.689C56.4788 61.0405 56.2371 62.2532 55.5868 62.7234C55.2221 62.9826 54.8574 62.9563 54.3433 62.9563L54.8442 60.4649ZM53.5304 63.4308C54.2027 63.4308 55.2528 63.5055 55.8109 63.2682C57.072 62.741 57.4894 60.6538 56.5359 60.1353C56.2503 59.9815 55.8065 59.9903 55.4462 59.9903C55.143 59.9903 54.4839 59.9552 54.2203 59.9991L53.5304 63.4308ZM82.0781 61.9017L82.2715 60.8867H81.6168L81.1027 63.4352C81.7969 63.4352 81.753 63.4879 81.7881 63.3078L81.8892 62.7937C81.9595 62.451 81.9859 62.4773 82.1528 62.24C82.2583 62.0863 82.3901 61.9061 82.5087 61.7787C82.5747 61.7084 82.8075 61.392 82.9745 61.4755C83.0756 61.6073 82.8998 62.24 82.8647 62.429C82.8031 62.7585 82.7153 63.1013 82.6669 63.4308H83.2909C83.3392 63.3298 83.348 63.2375 83.37 63.1188C83.4754 62.5696 83.4315 62.6091 83.7083 62.2313C83.7962 62.1082 84.3542 61.3261 84.5388 61.4755C84.6574 61.5722 84.2795 63.0925 84.2312 63.4308H84.8771C84.943 63.2946 85.0836 62.4378 85.1276 62.2225C85.1979 61.8841 85.378 61.2909 85.2066 61.0097C84.9738 60.6318 84.4553 60.8867 84.2312 61.0976C84.073 61.2426 83.6424 61.7699 83.6248 61.9105C83.6072 61.6644 83.7874 61.3744 83.6731 61.0668C83.5853 60.8164 83.3084 60.7593 83.0097 60.8735C82.6186 61.0229 82.289 61.515 82.0737 61.8973L82.0781 61.9017ZM71.3436 62.9035C71.1942 63.031 70.9218 63.1013 70.6845 63.0617C69.9463 62.9343 70.0298 61.9369 70.7504 61.7303C70.8383 61.9281 70.9306 62.1346 71.0317 62.3279C71.1107 62.4773 71.2997 62.7805 71.3436 62.9035ZM71.2074 61.1767C71.1591 60.9702 71.08 60.7505 71.181 60.5396C71.2514 60.3946 71.4711 60.2364 71.6688 60.3726C71.928 60.5484 71.638 61.0273 71.2074 61.1767ZM70.6098 61.3612C70.2803 61.537 70.0562 61.5634 69.7662 61.8929C69.1203 62.6223 69.7178 63.7911 71.0668 63.444C71.2821 63.3869 71.4227 63.277 71.5765 63.2331C71.6029 63.3122 71.6468 63.3473 71.6776 63.4264H72.4553C72.4245 63.3649 72.4553 63.4176 72.407 63.3517C72.3894 63.3254 72.3762 63.3122 72.3586 63.2858L72.0818 62.8552C72.2268 62.6838 72.3542 62.6575 72.552 62.2796C72.6486 62.0994 72.8068 61.7611 72.798 61.5062H72.2576C72.2048 61.7216 72.2136 61.8709 72.1345 62.0906C72.0906 62.2137 72.0247 62.3191 71.9456 62.4246L71.8445 62.5213C71.7654 62.3191 71.4315 61.8182 71.3568 61.5414C71.4227 61.4887 71.5238 61.4623 71.6029 61.4228C71.8621 61.2953 72.0686 61.1635 72.218 60.9043C72.4685 60.4781 72.2664 60.0782 71.8797 59.9508C71.4315 59.8014 70.9394 59.9947 70.7197 60.2232C70.355 60.6055 70.4516 60.8559 70.601 61.3569L70.6098 61.3612ZM34.5747 62.9563L34.7857 61.8753C35.2251 61.8753 35.704 62.0116 35.6161 62.5081C35.5326 62.9694 35.0581 62.9563 34.5747 62.9563ZM34.8867 61.4228L35.0669 60.4737C35.4755 60.4517 35.9852 60.4649 35.7611 60.9922C35.6161 61.3305 35.3437 61.4184 34.8867 61.4184V61.4228ZM33.7882 63.4308C34.1969 63.444 34.6275 63.4308 35.0361 63.4308C35.4448 63.4308 35.7919 63.3869 36.0336 63.154C36.4466 62.7453 36.4905 62.1741 36.0599 61.8578C35.9105 61.7479 35.7699 61.7216 35.6513 61.6381C35.9632 61.5238 36.1698 61.392 36.3367 61.1899C36.6267 60.834 36.763 60.0431 35.6249 59.9947C35.2602 59.9771 34.834 59.9815 34.4693 59.9947L33.7882 63.4308ZM77.2184 61.3964H75.8343L76.1067 59.9947H75.4256C75.3641 60.0343 75.4081 59.9771 75.3773 60.065L75.0521 61.6908C74.9379 62.2444 74.7929 62.8728 74.7094 63.4308H75.4256C75.4916 62.9782 75.6102 62.5125 75.6981 62.0599C75.7376 61.8578 75.6937 61.8622 75.9046 61.8666H77.1437L76.8449 63.4308H77.5655C77.6402 62.9211 78.2466 60.1617 78.229 59.9903C78.0357 59.9903 77.8379 59.9903 77.6446 59.9903C77.5128 59.9903 77.5216 59.9947 77.4996 60.1265C77.482 60.2144 77.4644 60.3023 77.4469 60.3902C77.4117 60.5615 77.381 60.7285 77.3458 60.9043C77.3194 61.0317 77.315 61.3129 77.2184 61.3964ZM59.9896 63.4308H60.6662C60.7234 63.3254 60.9079 62.3103 60.9387 62.1258L61.1408 62.451C61.2287 62.6091 61.6725 63.4132 61.734 63.4308H62.4678C62.3887 63.2155 61.7164 62.1917 61.6637 61.9896C61.7208 61.9456 61.7428 61.9061 61.7999 61.8578L62.727 60.8823C62.6084 60.8735 62.4897 60.8779 62.3667 60.8779C62.1909 60.8779 62.1602 60.8515 62.0679 60.9482L60.9518 62.0775L61.4088 59.7618H60.7234L59.9896 63.4264V63.4308ZM42.976 61.3393C42.9673 61.5326 42.9189 61.7479 42.8091 61.8973C42.6948 62.0555 41.8512 63.2419 41.7106 62.7585C41.6315 62.4729 41.9347 61.849 42.0533 61.6644C42.2071 61.4272 42.5718 61.0756 42.976 61.3393ZM42.7651 62.407L42.5718 63.4264H43.2265C43.2924 63.4088 43.4814 62.3147 43.5077 62.1829C43.5912 61.7611 43.7011 61.3041 43.7626 60.8779C43.5824 60.8779 43.4067 60.8779 43.2265 60.8779C42.9014 60.8779 42.563 60.667 41.9786 61.0625C41.4162 61.4403 40.7791 62.5696 41.0691 63.1584C41.1877 63.3957 41.3942 63.567 41.7413 63.4572C41.8907 63.4088 42.1192 63.2638 42.2071 63.154C42.2642 63.0881 42.2906 63.0793 42.3433 63.0178C42.4971 62.8508 42.6289 62.6267 42.7651 62.407ZM86.4457 62.8552C86.2392 62.5213 86.7533 61.0053 87.5662 61.2865C87.7024 61.3349 87.6673 61.3525 87.6365 61.5062C87.6145 61.6029 87.6058 61.7259 87.5618 61.7962C87.4827 61.9369 87.3553 62.0863 87.2586 62.2181C87.0873 62.4422 86.7621 62.9123 86.4457 62.8596V62.8552ZM87.4476 62.4202L87.2542 63.4264H87.9002C87.9441 63.4176 87.9529 63.3737 87.9661 63.3078L88.1902 62.1697C88.2692 61.7655 88.4011 61.269 88.445 60.8735C88.2693 60.8735 88.0979 60.8735 87.9221 60.8735C87.5838 60.8735 87.2411 60.6626 86.6698 61.0537C86.0898 61.4491 85.4747 62.53 85.7383 63.132C86.0195 63.7735 86.6303 63.4352 87.0038 63.0222C87.0961 62.9211 87.1488 62.8596 87.2367 62.7366C87.307 62.6355 87.3597 62.5037 87.4432 62.4158L87.4476 62.4202ZM50.8589 61.3261C50.8852 61.515 50.7886 61.7611 50.7095 61.8797C50.5996 62.0423 49.7735 63.2111 49.6066 62.7805C49.5055 62.5169 49.9669 60.8999 50.8589 61.3261ZM50.6479 62.3938L50.4546 63.4264H51.1357L51.6498 60.8735C51.4696 60.8735 51.2895 60.8735 51.1137 60.8735C50.7886 60.8735 50.437 60.6626 49.8658 61.0581C49.2551 61.4799 48.6707 62.5696 48.9519 63.1584C49.0617 63.3913 49.277 63.5626 49.6241 63.4484C49.8702 63.3693 50.1119 63.1496 50.2261 63.009C50.292 62.9299 50.6348 62.4993 50.6436 62.3938H50.6479ZM64.902 61.3349C64.8932 61.5282 64.8449 61.7391 64.7351 61.8929C64.6208 62.0511 63.7772 63.2463 63.6366 62.7585C63.5223 62.3587 64.1551 60.8515 64.902 61.3349ZM64.6911 62.4026C64.4802 62.7893 64.0935 63.3122 63.6629 63.4528C63.3202 63.5626 63.1005 63.3913 62.9907 63.154C62.705 62.552 63.3466 61.414 63.9046 61.0581C64.5329 60.6538 64.7834 60.8735 65.1525 60.8735C65.3326 60.8735 65.5084 60.8735 65.693 60.8735L65.1789 63.4264H64.4978L64.6955 62.4026H64.6911ZM45.0764 61.9105L45.2697 60.8735H44.5755L44.0702 63.4264H44.76C44.7864 63.2155 44.8479 62.9651 44.8918 62.7585C44.9665 62.385 45.3005 62.0467 45.5246 61.7567C45.5597 61.7084 45.674 61.5941 45.7267 61.5502C45.797 61.4887 45.898 61.4315 46.0123 61.4667C46.0826 61.704 45.7311 63.0573 45.6784 63.4264H46.3506C46.4297 63.2946 46.5615 62.4422 46.6055 62.2225C46.6714 61.9017 46.8603 61.2822 46.6758 61.0053C46.4385 60.645 45.9332 60.8515 45.6915 61.0844C45.5377 61.2338 45.0852 61.7523 45.072 61.9061L45.0764 61.9105ZM79.1122 62.095C79.2264 61.4535 79.7801 61.1152 79.9734 61.3481C80.1404 61.5546 79.9383 62.0775 79.1122 62.095ZM80.6589 62.6619C80.6589 62.7102 80.6193 63.154 80.5051 63.2155C79.9163 63.5407 78.1455 63.8351 78.396 62.3543C78.5102 61.6776 79.0243 60.9878 79.7449 60.8428C80.8478 60.6187 80.9577 61.6688 80.1492 62.1961C79.8372 62.4026 79.4989 62.4861 79.0682 62.5213C79.0375 62.9563 79.389 63.0749 79.7933 62.9958C80.158 62.9211 80.3864 62.8025 80.6633 62.6619H80.6589ZM57.9947 62.0863C58.043 61.8534 58.1529 61.6381 58.2671 61.5019C58.7153 60.9702 59.2338 61.4975 58.6582 61.9149C58.5 62.0335 58.2408 62.1126 57.9947 62.0863ZM59.5458 62.6575C59.5458 62.7541 59.515 62.8596 59.4974 62.9519C59.4491 63.2023 59.4974 63.2375 58.8691 63.3913C57.9991 63.6066 57.0895 63.444 57.2785 62.3455C57.3927 61.6732 57.9156 60.979 58.6318 60.8384C59.7611 60.6187 59.805 61.7128 59.0361 62.1961C58.7417 62.3807 58.3726 62.4905 57.9508 62.5169C57.8761 63.3605 59.1152 62.9211 59.5502 62.6531L59.5458 62.6575ZM37.5187 62.095C37.5627 61.8578 37.6901 61.6205 37.8043 61.4931C38.2833 60.957 38.7227 61.5282 38.1998 61.9105C38.0065 62.0511 37.8131 62.0906 37.5231 62.095H37.5187ZM39.0654 62.6619C39.0654 62.7629 39.0346 62.8596 39.0171 62.9607C39.0083 63.009 38.9995 63.0749 38.9907 63.1144C38.9687 63.2067 38.9907 63.1804 38.9116 63.2199C38.793 63.2814 38.5293 63.3649 38.3887 63.4001C36.5081 63.8482 36.4729 62.3763 37.2595 61.3876L37.4396 61.2075C38.0152 60.6978 39.0083 60.6626 39.0742 61.2997C39.1225 61.7523 38.7974 62.0467 38.5557 62.2093C38.2701 62.4026 37.8878 62.5037 37.4704 62.53C37.4396 62.9651 37.7911 63.0837 38.1954 63.0046C38.5645 62.9299 38.7842 62.8069 39.0654 62.6707V62.6619ZM66.6377 60.4429L66.5366 60.8779C66.128 60.8779 66.1719 60.8252 66.1192 61.08C66.1016 61.1547 66.0796 61.2338 66.0752 61.3041L66.4531 61.3129C66.3345 62.1434 65.8555 63.1935 66.4751 63.422C66.6596 63.4879 67.1254 63.5187 67.2792 63.4001C67.3187 63.3561 67.2924 63.4001 67.3187 63.321L67.3846 62.9694C66.7871 63.1144 66.8398 62.8684 66.9365 62.3719C66.9892 62.1082 67.0683 61.5458 67.1518 61.3217L67.6659 61.3085L67.7581 60.8779H67.244L67.3363 60.355L66.6464 60.4429H66.6377ZM89.2887 60.8735H88.9108L88.8229 61.3041H89.2052C89.0953 62.1741 88.5944 63.176 89.2359 63.4176C89.4337 63.4923 89.8511 63.4879 90.0444 63.4001L90.1367 62.9694C89.5303 63.0749 89.5787 62.886 89.6885 62.3587L89.8687 61.4315C89.9038 61.269 89.8511 61.3041 90.4179 61.3041L90.5058 60.8735H89.9873L90.0796 60.355C89.8862 60.3726 89.6885 60.4034 89.4952 60.4253C89.3502 60.4429 89.3721 60.4517 89.3458 60.5923C89.3282 60.6934 89.315 60.7768 89.2843 60.8735H89.2887ZM46.2364 64.3184C46.2012 64.2393 46.2759 63.9888 46.2979 63.8526C46.6494 63.9405 46.935 64.1075 47.1987 63.7999C47.3656 63.6066 47.4096 63.1716 47.4711 62.8684C47.5502 62.4685 47.827 61.1811 47.8622 60.8779H48.552L48.0555 63.3385C47.7963 64.2349 47.1108 64.5864 46.2408 64.3228L46.2364 64.3184ZM39.5136 63.4308C39.6366 62.574 39.975 61.1372 40.1595 60.1617C40.1727 60.087 40.1903 60.0079 40.2034 59.9332C40.243 59.7267 40.1463 59.7399 40.9197 59.7618C40.9153 59.9596 40.2122 63.3781 40.1815 63.4308H39.5136ZM47.9544 60.4473H48.6355L48.7629 59.8453H48.0775L47.9588 60.4473H47.9544Z" fill="#00A758"/>
</g>
<rect x="1" y="1" width="110" height="110" rx="9" stroke="black" stroke-opacity="0.1" stroke-width="2"/>
<defs>
<clipPath id="clip0_786_728">
<rect x="2" y="2" width="108" height="108" rx="8" fill="white"/>
</clipPath>
</defs>
</svg>
