<svg width="112" height="112" viewBox="0 0 112 112" fill="none" xmlns="http://www.w3.org/2000/svg">
<g clip-path="url(#clip0_647_1067)">
<rect x="1.99988" y="2" width="108" height="108" rx="8" fill="white"/>
<mask id="mask0_647_1067" style="mask-type:alpha" maskUnits="userSpaceOnUse" x="16" y="16" width="80" height="80">
<path d="M75.9123 16H36.0877C24.9936 16 16 24.9936 16 36.0877V75.9123C16 87.0064 24.9936 96 36.0877 96H75.9123C87.0064 96 96 87.0064 96 75.9123V36.0877C96 24.9936 87.0064 16 75.9123 16Z" fill="black"/>
</mask>
<g mask="url(#mask0_647_1067)">
<path d="M75.9123 16H36.0877C24.9936 16 16 24.9936 16 36.0877V75.9123C16 87.0064 24.9936 96 36.0877 96H75.9123C87.0064 96 96 87.0064 96 75.9123V36.0877C96 24.9936 87.0064 16 75.9123 16Z" fill="url(#paint0_linear_647_1067)"/>
<path d="M36.731 41.7894C36.1939 41.1367 35.4746 40.6589 34.6648 40.4167C33.855 40.1745 32.9914 40.1791 32.1842 40.4297C30.7222 40.9999 29.7719 43.5292 30.7222 45.883C32.6081 50.6637 38.0321 50.0789 38.0321 50.0789C39.2016 54.0684 41.8052 57.4844 45.3421 59.6695C47.1257 65.2104 47.5643 71.3654 48.9678 72.9444C52.1842 76.6724 54.2456 79.3625 54.2456 79.3625L59.8596 71.5555C59.2602 67.5204 57.1988 60.2251 57.7397 59.7865C62.8421 55.5467 62.6666 48.2806 62.6666 48.2806C63.3421 48.243 63.9988 48.0442 64.5818 47.7009C65.1648 47.3576 65.6572 46.8798 66.0178 46.3074C66.3785 45.735 66.5969 45.0845 66.6548 44.4105C66.7127 43.7364 66.6085 43.0582 66.3508 42.4327C66.209 41.9382 65.9656 41.4788 65.6362 41.0837C65.3068 40.6886 64.8986 40.3666 64.4377 40.1382C63.9767 39.9098 63.4733 39.7801 62.9594 39.7573C62.4455 39.7345 61.9325 39.8191 61.4532 40.0058C61.4532 40.0058 62.345 25.3859 48.5877 26.9356C42.038 27.652 37.3011 30.8683 36.0584 34.114C35.0058 36.9502 36.731 41.7894 36.731 41.7894Z" fill="white"/>
<path d="M54.2018 80.0057C54.1032 80.0063 54.0057 79.9842 53.917 79.9411C53.8283 79.898 53.7506 79.8351 53.6901 79.7572C53.6901 79.7572 51.5995 77.0379 48.4416 73.3829C47.5351 72.3303 46.9796 69.9472 46.424 66.9355C45.9854 64.8157 45.4884 62.418 44.772 60.1227C41.3712 57.9255 38.835 54.6197 37.5936 50.7659C36.0309 50.8426 34.4818 50.4416 33.1525 49.6163C31.8232 48.7911 30.7767 47.5806 30.1521 46.1461C29.5831 44.7394 29.5831 43.1667 30.1521 41.7601C30.3166 41.3386 30.5626 40.9537 30.8763 40.6275C31.1899 40.3014 31.5648 40.0404 31.9796 39.8595C32.5619 39.6317 33.1872 39.5345 33.8111 39.5749C34.4351 39.6153 35.0426 39.7923 35.5907 40.0934C35.0205 38.1151 34.9902 36.0202 35.503 34.0262C36.965 30.2396 42.3012 27.1256 48.5585 26.4385C52.696 25.9852 55.9708 26.8917 58.3246 29.1139C61.7018 32.3303 62.1404 37.3157 62.1696 39.3478C63.0451 39.1992 63.9449 39.3111 64.7574 39.6695C65.2904 39.9355 65.7636 40.3073 66.1482 40.7623C66.5327 41.2173 66.8206 41.7458 66.9942 42.3157C67.2784 43.06 67.379 43.8619 67.2874 44.6534C67.1957 45.4449 66.9146 46.2027 66.4679 46.8624C66.1065 47.3956 65.6424 47.8513 65.1026 48.2028C64.5629 48.5542 63.9584 48.7944 63.3246 48.9092C63.2515 50.7659 62.6521 56.4823 58.31 60.2104C58.5304 62.0236 58.8673 63.8207 59.3188 65.5905C59.7866 67.6811 60.2544 69.8303 60.5176 71.4385C60.531 71.5226 60.5276 71.6086 60.5075 71.6914C60.4874 71.7742 60.4511 71.8522 60.4006 71.9209L54.7135 79.6695C54.6537 79.7492 54.5766 79.8144 54.4879 79.8599C54.3993 79.9055 54.3015 79.9304 54.2018 79.9326V80.0057ZM38.1199 49.4355C38.2616 49.4334 38.4 49.4781 38.5137 49.5627C38.6274 49.6473 38.71 49.767 38.7486 49.9034C39.8666 53.7078 42.3295 56.976 45.6784 59.0993C45.8238 59.1772 45.9338 59.3081 45.9854 59.4648C46.7008 61.8248 47.2913 64.2209 47.7544 66.6431C48.2954 69.2455 48.8071 71.7162 49.4942 72.4911C51.7457 75.108 53.4416 77.2279 54.2603 78.2513L59.2749 71.4092C59.0264 69.8303 58.5731 67.7981 58.1346 65.8537C56.9503 60.5613 56.8626 59.7572 57.4182 59.304C62.2135 55.3127 62.1112 48.3829 62.1112 48.3244C62.1092 48.2399 62.1239 48.1559 62.1545 48.0771C62.185 47.9983 62.2308 47.9263 62.2892 47.8652C62.3476 47.8041 62.4174 47.7551 62.4947 47.721C62.5721 47.687 62.6553 47.6684 62.7398 47.6665C63.2841 47.6363 63.814 47.4807 64.2883 47.2119C64.7625 46.9431 65.1682 46.5683 65.4737 46.1168C65.7763 45.6149 65.9553 45.0483 65.996 44.4637C66.0367 43.8791 65.9378 43.2932 65.7076 42.7542C65.4849 41.9553 64.9608 41.2739 64.2457 40.8537C63.452 40.5359 62.5713 40.5099 61.7603 40.7806C61.6592 40.8203 61.5498 40.8338 61.4421 40.8199C61.3344 40.8059 61.232 40.7649 61.1444 40.7007C61.0568 40.6365 60.9869 40.5511 60.9413 40.4526C60.8956 40.3541 60.8756 40.2456 60.8831 40.1373C60.8831 40.1373 61.2193 33.6607 57.4474 30.0788C55.386 28.1197 52.462 27.3303 48.6755 27.7542C41.9211 28.4999 37.7252 31.7747 36.6872 34.5086C35.7515 37.0086 37.3158 41.5847 37.3305 41.6431C37.3902 41.7881 37.3948 41.9499 37.3436 42.0981C37.2924 42.2463 37.1889 42.3707 37.0524 42.4479C36.9159 42.5251 36.756 42.5499 36.6026 42.5174C36.4492 42.485 36.3129 42.3976 36.2193 42.2718C35.7706 41.7213 35.1677 41.3173 34.4879 41.1115C33.8081 40.9057 33.0823 40.9076 32.4036 41.1168C31.8953 41.3648 31.5024 41.7995 31.3071 42.3303C30.861 43.4219 30.861 44.645 31.3071 45.7367C33.0176 49.918 37.9299 49.4502 37.9299 49.4355H38.1199Z" fill="#00376E"/>
<path d="M32.3304 42.5496C32.5018 42.336 32.7296 42.1747 32.9881 42.0843C33.2466 41.9938 33.5253 41.9778 33.7924 42.038C34.3097 42.1341 34.7818 42.3958 35.1375 42.7836C35.4687 43.1268 35.7054 43.5498 35.8246 44.0116C35.9685 44.4883 35.9685 44.9969 35.8246 45.4736C35.6345 45.1227 35.4445 44.7573 35.2252 44.421C35.015 44.0843 34.77 43.7707 34.4942 43.4853C34.2327 43.1908 33.9145 42.9521 33.5585 42.7836C33.2046 42.6114 32.804 42.56 32.4182 42.6374L32.3304 42.5496Z" fill="#00376E"/>
<path d="M58.3976 39.611C58.2681 39.611 58.1416 39.572 58.0347 39.4989C57.9277 39.4259 57.8453 39.3223 57.7982 39.2016C57.6711 38.8166 57.469 38.4606 57.2036 38.1541C56.9381 37.8476 56.6146 37.5967 56.2517 37.4159C55.8888 37.2351 55.4936 37.128 55.0891 37.1008C54.6845 37.0735 54.2786 37.1267 53.8947 37.2572C53.7299 37.3095 53.5511 37.2943 53.3976 37.2148C53.244 37.1353 53.1283 36.998 53.076 36.8332C53.0237 36.6684 53.0389 36.4896 53.1184 36.3361C53.1979 36.1825 53.3352 36.0668 53.5 36.0145C54.5861 35.6581 55.7685 35.7399 56.7952 36.2423C57.822 36.7448 58.612 37.6282 58.9971 38.7046C59.0382 38.8028 59.0543 38.9097 59.044 39.0158C59.0336 39.1218 58.9971 39.2236 58.9376 39.312C58.8782 39.4004 58.7978 39.4726 58.7035 39.5223C58.6093 39.5719 58.5042 39.5974 58.3976 39.5964V39.611Z" fill="#00376E"/>
<path d="M41.7456 39.3918C41.5786 39.3882 41.4192 39.3213 41.2997 39.2045C41.1803 39.0878 41.1097 38.93 41.1023 38.7631C41.3068 37.8747 41.8262 37.0905 42.5643 36.5555C43.1548 36.1288 43.8422 35.8559 44.5645 35.7615C45.2869 35.6671 46.0214 35.754 46.7017 36.0146C46.8665 36.065 47.0045 36.1788 47.0854 36.3309C47.1663 36.4831 47.1834 36.6612 47.133 36.826C47.0826 36.9908 46.9688 37.1288 46.8166 37.2097C46.6644 37.2905 46.4864 37.3077 46.3216 37.2573C45.8977 37.0986 45.4461 37.0272 44.9939 37.0473C44.5417 37.0674 44.0982 37.1786 43.69 37.3742C43.1009 37.7014 42.6378 38.216 42.3742 38.8362C42.3474 38.9848 42.2703 39.1197 42.1559 39.2182C42.0414 39.3167 41.8965 39.3728 41.7456 39.3771V39.3918Z" fill="#00376E"/>
<path d="M44.114 40.8537C44.2748 41.804 44.8596 42.4911 45.4298 42.4034C46 42.3157 46.3362 41.4677 46.1754 40.5175C46.0146 39.5672 45.4298 38.88 44.8596 38.9677C44.2894 39.0555 43.9678 39.8303 44.114 40.8537Z" fill="#00376E"/>
<path d="M54.7865 41.1022C54.9327 41.9794 55.4737 42.5642 56 42.5642C56.5263 42.5642 56.8333 41.7016 56.6871 40.8244C56.5409 39.9472 56 39.3624 55.4737 39.3624C54.9474 39.3624 54.6403 40.2396 54.7865 41.1022Z" fill="#00376E"/>
<path d="M52.4182 48.3976C52.2808 48.3931 52.1491 48.3415 52.0452 48.2515C51.9413 48.1615 51.8715 48.0385 51.8476 47.9031C51.8236 47.7678 51.8468 47.6283 51.9135 47.508C51.9801 47.3878 52.086 47.2941 52.2135 47.2427C52.291 47.2239 52.3587 47.177 52.4036 47.1111C52.5205 46.8187 52.1404 45.9561 51.8041 45.1959C51.4695 44.4693 51.1814 43.7222 50.9416 42.959C50.5665 41.9333 50.5004 40.8201 50.7515 39.7573C50.7957 39.6177 50.8895 39.4992 51.0151 39.424C51.1407 39.3489 51.2895 39.3223 51.4334 39.3493C51.5772 39.3762 51.7063 39.4549 51.7961 39.5705C51.886 39.686 51.9304 39.8305 51.9211 39.9766V40.0935C51.7378 40.9361 51.7986 41.8135 52.0965 42.6228C52.325 43.3362 52.5985 44.0345 52.9152 44.7134C53.4269 45.883 53.8363 46.8041 53.5147 47.6374C53.433 47.8212 53.3142 47.9863 53.1657 48.1221C53.0173 48.258 52.8425 48.3617 52.6521 48.4269L52.4182 48.3976Z" fill="#00376E"/>
<path d="M58.5292 58.3245C58.233 59.2798 57.6191 60.1051 56.7894 60.6637C56.5897 60.8178 56.374 60.9501 56.1462 61.0584C55.9281 61.161 55.7034 61.2489 55.4736 61.3215C55.2421 61.4166 55.0023 61.49 54.7573 61.5408L54.0263 61.7017C53.0504 61.8377 52.0574 61.7831 51.1023 61.5408C50.6429 61.4126 50.1934 61.2514 49.7573 61.0584C49.3317 60.8347 48.9258 60.5755 48.5438 60.2835L49.845 60.6052C50.2836 60.6052 50.7222 60.766 51.1608 60.8099C52.0442 60.9222 52.9382 60.9222 53.8216 60.8099C54.7277 60.6439 55.5983 60.3224 56.3947 59.8596C57.1671 59.4753 57.8496 58.9323 58.3976 58.266H58.4853L58.5292 58.3245Z" fill="#00376E"/>
<path d="M61.7456 45.7806C62.2246 46.4448 62.5447 47.2101 62.6813 48.0175C62.7299 48.2145 62.7641 48.4149 62.7836 48.6169C62.7836 48.8216 62.7836 49.0116 62.7836 49.2163C62.7836 49.421 62.7836 50.0204 62.7836 50.4298C62.7115 51.2326 62.5396 52.0232 62.2719 52.7836C62.0133 53.5491 61.6279 54.2657 61.1316 54.9034C61.377 54.1746 61.582 53.4327 61.7456 52.6812C61.9027 51.9289 62.0101 51.167 62.0673 50.4005C62.1251 49.6365 62.1251 48.8692 62.0673 48.1052C62.0242 47.3371 61.8917 46.5766 61.6725 45.8391L61.7456 45.7806Z" fill="#00376E"/>
<path d="M83.3392 70.9414C83.3392 70.9414 82.2573 74.6987 79.6404 75.0934C79.2164 75.0934 74.2164 74.8303 73.7924 74.918C62.6228 77.0964 54.5527 85.3712 52.7252 99.7718L38.8217 101.117C33.2076 101.219 13.7632 98.88 13.7632 98.88C18.1199 86.6578 22.3451 80.1227 26.2339 75.2104C26.9782 74.3726 27.8284 73.6354 28.7632 73.0174L46.5117 64.2455C46.832 65.524 47.2776 66.7679 47.8421 67.9589C51.6433 77.2426 60.0936 74.7718 58.3538 66.6285L58.0176 62.9297C58.0176 62.9297 73.8363 64.4502 83.3392 70.9414Z" fill="#00376E"/>
<path d="M61.5555 42.3156C61.7467 42.1319 61.9796 41.9973 62.2343 41.9234C62.4889 41.8496 62.7577 41.8387 63.0175 41.8917C63.5275 41.9587 63.9981 42.2018 64.3479 42.5788C64.6825 42.9425 64.8925 43.4034 64.9474 43.8946C64.9805 44.1273 64.9805 44.3636 64.9474 44.5963C64.8873 44.835 64.7885 45.0622 64.655 45.2689L64.5088 44.7279C64.5088 44.5525 64.3918 44.377 64.3187 44.2016C64.1722 43.863 63.9695 43.5516 63.7193 43.2806C63.4648 43.012 63.159 42.7972 62.82 42.649C62.4809 42.5009 62.1156 42.4223 61.7456 42.418L61.5555 42.3156Z" fill="#00376E"/>
<path d="M34.6989 49.1432L35.7954 49.3332C36.1583 49.3936 36.5244 49.4327 36.8919 49.4502C37.2619 49.4713 37.6329 49.4713 38.003 49.4502C38.3657 49.436 38.7249 49.3721 39.0702 49.2601L39.7866 48.9531C39.7342 49.1116 39.6551 49.2599 39.5527 49.3917L39.3919 49.6256L39.2164 49.7865C39.0152 49.9106 38.799 50.0089 38.5731 50.0789C38.3735 50.1466 38.1679 50.1956 37.9591 50.2251H37.3451H36.7457C36.3537 50.1652 35.9707 50.0572 35.6053 49.9034C35.2286 49.7386 34.8826 49.5113 34.5819 49.2309L34.6989 49.1432Z" fill="#00376E"/>
<path d="M54.0117 57.9298C53.0008 57.8876 52.0077 57.6492 51.0878 57.228C45.2398 54.8304 42.3158 47.9298 42.3158 47.6374C42.2622 47.5078 42.2514 47.3645 42.285 47.2283C42.3186 47.0922 42.3949 46.9703 42.5026 46.8805C42.6103 46.7907 42.7439 46.7377 42.8839 46.7292C43.0239 46.7207 43.1629 46.7572 43.2807 46.8333C51.6725 52.345 57.6667 50.0204 57.7106 50.0058C57.8508 49.9566 58.0035 49.9563 58.1439 50.005C58.2843 50.0537 58.4041 50.1484 58.4838 50.2739C58.5634 50.3993 58.5983 50.548 58.5827 50.6958C58.567 50.8436 58.5018 50.9817 58.3977 51.0877C57.7165 52.0971 57.3316 53.2772 57.2866 54.4941C57.2907 55.0912 57.149 55.6803 56.8738 56.2102C56.5987 56.7401 56.1984 57.1949 55.7076 57.5351C55.187 57.8139 54.602 57.9501 54.0117 57.9298ZM44.5527 49.1579C46.1237 52.1148 48.5694 54.5146 51.5556 56.0292C52.0829 56.345 52.6736 56.5403 53.2853 56.6009C53.897 56.6616 54.5145 56.5862 55.0936 56.3801C55.402 56.1412 55.6491 55.8322 55.8143 55.4788C55.9796 55.1254 56.0583 54.7378 56.0439 54.3479C56.1149 53.4259 56.3218 52.5194 56.6579 51.6579C52.4553 52.246 48.1785 51.3628 44.5527 49.1579Z" fill="#00376E"/>
<path d="M61.5409 39.5964C61.6286 39.9327 61.6579 40.0935 61.6579 40.0935L61.5409 39.5964Z" fill="#003A6C"/>
<path d="M51.0146 27.8127C51.0897 27.8795 51.1453 27.9654 51.1754 28.0613C50.5614 28.0613 49.8889 28.0613 49.2456 28.0613C49.8296 27.9422 50.4204 27.8592 51.0146 27.8127Z" fill="#00376E"/>
<path d="M30.9123 33.7339C31.0072 31.858 31.7815 30.0807 33.0907 28.7339C31.3217 28.997 30.6492 28.076 31.3802 28.0321C32.0744 27.8845 32.7439 27.6384 33.3685 27.3011C34.0172 27 34.6385 26.6429 35.2252 26.2339C36.3021 25.4116 37.3139 24.5073 38.2515 23.5292C38.2515 23.5292 38.2515 23.3976 38.2515 23.4415C34.6989 26.1608 31.9211 24.9035 32.9006 24.728C33.8268 24.5629 34.6994 24.1767 35.4445 23.6023L36.1901 23.076C36.9485 22.5338 37.762 22.0732 38.617 21.7017C39.1885 21.4555 39.7804 21.2598 40.386 21.1169C41.5757 20.845 42.7914 20.7028 44.0117 20.6929C43.3007 20.6626 42.5973 20.5347 41.9211 20.3128C40.4591 19.7426 40.4591 18.8508 40.9854 19.0701C43.1492 19.845 49.0264 19.1725 52.0673 20.1812C52.0673 20.1812 56.3071 21.6432 57.4328 25.1812C57.4328 25.1812 64.6258 26.8187 62.7544 39.3625L60.9562 39.8157C60.9893 37.7248 60.5912 35.6495 59.7866 33.7192C59.4828 32.9094 59.014 32.1715 58.41 31.5524C57.806 30.9333 57.0799 30.4464 56.2778 30.1228C56.1279 30.0569 55.964 30.0292 55.8008 30.0419C55.6376 30.0547 55.48 30.1076 55.3421 30.1959L55.2398 30.269C54.4294 30.6822 53.5326 30.8976 52.6228 30.8976C50.1813 30.6783 47.4474 29.6695 45.3129 30.8099C43.1784 31.9502 42.2281 33.4268 40.0936 34.4649C39.618 34.6922 39.1299 34.8923 38.6316 35.0643L37.5936 35.5321C36.1316 36.1315 37.0819 40.576 37.5936 42.5789C37.5936 42.6666 37.5936 42.7836 37.5936 42.9005C37.6061 43.1392 37.6061 43.3783 37.5936 43.6169C37.6085 43.822 37.5733 44.0277 37.4913 44.2163C37.4733 44.2463 37.4495 44.2725 37.4213 44.2932C37.393 44.3139 37.361 44.3288 37.3269 44.337C37.2929 44.3451 37.2576 44.3464 37.223 44.3408C37.1885 44.3351 37.1554 44.3226 37.1258 44.304C36.8792 44.0543 36.6721 43.7683 36.5117 43.4561C35.6784 41.804 35.386 40.9999 32.1258 40.5321C31.1578 38.4036 30.7405 36.0658 30.9123 33.7339Z" fill="#003A6C"/>
<path d="M36.2485 25.9414C34.1837 27.1133 31.9341 27.9242 29.5964 28.3391C29.1432 28.3391 29.0701 28.9092 29.3918 29.2163C30.6637 30.4005 33.2076 30.3859 35.3421 29.4063C38.7631 27.842 36.2485 25.9414 36.2485 25.9414Z" fill="#00376E"/>
<path d="M44.8597 23.9531C44.2738 24.1232 43.702 24.3382 43.1492 24.5963C42.5936 24.8449 42.0673 25.1811 41.5264 25.4735C42.4628 24.4935 43.6025 23.7304 44.8654 23.2379C46.1282 22.7454 47.4836 22.5354 48.8363 22.6227C51.3388 22.9185 53.6341 24.1577 55.2544 26.0876C54.312 25.3055 53.2509 24.6788 52.1112 24.2308L51.541 24.0262C50.9925 23.8447 50.4302 23.7078 49.8597 23.6168H49.4942C49.1791 23.5717 48.8619 23.5424 48.5439 23.5291H47.9006C46.871 23.5094 45.8447 23.6525 44.8597 23.9531Z" fill="white"/>
<path d="M48.9971 25.7806C49.2032 25.7214 49.4133 25.6774 49.6258 25.649H49.8304C50.9508 25.5257 52.083 25.7288 53.0907 26.2338C53.58 26.4749 54.0288 26.7905 54.4211 27.1695L54.7281 27.4911L54.4357 27.3595C53.9592 27.1343 53.4712 26.9343 52.9737 26.7601C52.3594 26.5581 51.7282 26.4114 51.0878 26.3215C50.4855 26.2519 49.8772 26.2519 49.2749 26.3215H49.1579C48.5207 26.4058 47.9026 26.5987 47.3304 26.8917C47.7596 26.3599 48.3412 25.9722 48.9971 25.7806Z" fill="white"/>
<path d="M34.8743 28.88C36.4168 28.5653 37.8491 27.8492 39.0263 26.804C38.7076 27.6123 38.1014 28.2744 37.3242 28.6629C36.5471 29.0515 35.6537 29.1392 34.8158 28.9092L34.8743 28.88Z" fill="white"/>
<path d="M92.0234 72.4911C91.9503 72.7835 91.8626 73.0759 91.7603 73.3829C91.8626 73.0905 91.9503 72.7981 92.0234 72.5057V72.4911Z" fill="#0081F2"/>
<path d="M90.5614 76.0877L90.0643 77.0818C90.0704 76.9796 90.0704 76.8771 90.0643 76.7748C90.2422 76.5549 90.4082 76.3255 90.5614 76.0877Z" fill="#0081F2"/>
<path d="M59.5526 89.9619C60.6072 84.8967 63.5769 80.4343 67.842 77.5057C63.5758 80.4332 60.6058 84.8961 59.5526 89.9619Z" fill="#003A6C"/>
<path d="M59.611 90.7368C59.5473 90.4824 59.5473 90.2163 59.611 89.9619C60.6657 84.8967 63.6353 80.4343 67.9005 77.5058C68.7194 76.9307 69.5739 76.4082 70.459 75.9414L71.6432 75.342C72.842 74.7718 75.3128 72.8274 76.5555 72.418C76.5555 72.418 90.6929 68.4414 91.7309 74.114C91.7309 74.2017 90.0935 77.0379 90.0935 77.1403L86.8479 83.6023C86.6941 83.8483 86.4835 84.0539 86.2338 84.2017L86.1023 84.2894C85.7772 84.4577 85.4156 84.543 85.0496 84.5379H84.8303C82.3838 84.2604 79.91 84.7185 77.7251 85.8537C76.1595 86.6626 74.8374 87.8736 73.8947 89.3625C73.6065 89.8263 73.3618 90.3157 73.1637 90.8245C72.9975 91.2296 72.6914 91.5617 72.3011 91.7601C72.0986 91.8614 71.8816 91.9304 71.6578 91.9648H71.2923L61.7455 92.1256C61.3529 92.1296 60.9656 92.0341 60.6198 91.8479C60.1717 91.6239 59.8264 91.2367 59.6549 90.766L59.611 90.7368Z" fill="#00376E"/>
<path d="M76.4971 67.5935C76.3363 68.5438 75.6345 70.883 75.4883 71.6725L75.3714 72.3596C75.3054 72.8447 75.3054 73.3365 75.3714 73.8216C74.1237 74.232 72.903 74.7203 71.7164 75.2836L70.5322 75.883C69.6255 76.3665 68.7514 76.9086 67.9152 77.5058C63.649 80.4333 60.679 84.8961 59.6258 89.9619C59.562 90.2163 59.562 90.4824 59.6258 90.7368C59.7972 91.2075 60.1425 91.5947 60.5907 91.8186C60.9408 92.0073 61.3334 92.1029 61.731 92.0964L71.2778 92.0233H71.6433C71.867 91.9885 72.0839 91.9194 72.2866 91.8186C72.6769 91.6202 72.983 91.2881 73.1491 90.883C73.3472 90.3742 73.5919 89.8848 73.8801 89.421C74.825 87.934 76.1466 86.7234 77.7106 85.9122C79.8955 84.777 82.3693 84.3189 84.8158 84.5964H85.0351C85.4012 84.6021 85.7629 84.5167 86.0877 84.3479L86.2193 84.2602C86.469 84.1124 86.6796 83.9068 86.8334 83.6608L90.0644 77.1988L90.5614 76.0877C90.7777 75.7289 90.973 75.3579 91.1462 74.9765C91.3217 74.611 91.4825 74.2309 91.6287 73.807C91.6287 73.6608 91.7164 73.5146 91.7749 73.3684C91.8334 73.2222 91.9649 72.7836 92.038 72.4765C92.2469 71.6969 92.3791 70.8988 92.4328 70.0935C92.4328 69.845 92.3304 68.7339 92.3304 68.4853C96.3504 70.0408 99.6697 73.0017 101.673 76.8186C101.673 76.8186 99.3334 92.2719 99.2018 92.5643L79.6696 99.8742L50.5468 105.401C47.8568 77.3157 69.3918 67.8713 76.4971 67.5935Z" fill="#FF8D00"/>
<path d="M64.6549 75.7368C60.0636 80.1368 56.8357 85.7653 55.3567 91.9502C55.3193 90.3126 55.5414 88.6793 56.0146 87.111C56.2028 86.2991 56.4371 85.4986 56.7163 84.7134C57.038 83.9678 57.4181 83.2514 57.8128 82.5204C58.2076 81.7894 58.6754 81.1315 59.1579 80.4736C59.6492 79.8212 60.1764 79.1964 60.7368 78.6023C61.8506 77.4007 63.1485 76.3841 64.5818 75.5906V75.6783L64.6549 75.7368Z" fill="white"/>
<path d="M92.3305 68.5292C92.3305 68.5292 82.7983 64.0701 70.1521 69.2017L72.4328 74.9034C72.4328 74.9034 85.1521 69.6549 91.1609 74.9912C96.541 79.7719 94.3041 73.2368 94.3041 73.2368L92.3305 68.5292Z" fill="#FF8D00"/>
<path d="M77.4035 67.1695C77.4035 67.1695 75.079 74.0994 76.8187 75.1081C78.5585 76.1169 83.2515 74.4795 83.2515 74.4795L83.6755 69.3771L82.7106 66.6578L79.1872 66.7748L77.4035 67.1695Z" fill="white"/>
<path d="M76.0439 74.3624C75.7644 74.5664 75.5337 74.8297 75.3683 75.1336C75.2029 75.4374 75.1069 75.7742 75.0874 76.1196C75.0678 76.465 75.1251 76.8104 75.2551 77.131C75.3851 77.4516 75.5846 77.7393 75.8392 77.9735C77.0234 78.8215 78.0468 78.2075 79.421 78.7776C80.4373 79.2626 81.5415 79.5361 82.6667 79.5817C82.9557 79.585 83.2377 79.492 83.468 79.3173C83.6983 79.1425 83.8639 78.8961 83.9386 78.6168C84.114 77.7689 83.3246 76.994 82.2573 76.4677" fill="white"/>
<path d="M82.5644 80.1958C81.3907 80.1274 80.2403 79.8398 79.1725 79.3478C78.7051 79.1741 78.2092 79.0897 77.7106 79.0993C76.9117 79.1397 76.1214 78.919 75.4591 78.4706C75.1146 78.2203 74.8398 77.8861 74.6607 77.4998C74.4816 77.1134 74.4042 76.6877 74.4357 76.263C74.4453 75.7876 74.5652 75.321 74.7859 74.8998C75.0066 74.4787 75.3222 74.1145 75.7076 73.8361C75.8473 73.7756 76.0042 73.7678 76.1492 73.8142C76.2942 73.8606 76.4174 73.958 76.496 74.0884C76.5746 74.2188 76.6032 74.3733 76.5765 74.5232C76.5498 74.673 76.4697 74.8082 76.3509 74.9034C76.1395 75.0837 75.9698 75.3079 75.8536 75.5603C75.7375 75.8128 75.6777 76.0875 75.6784 76.3654C75.6542 76.5859 75.6888 76.8089 75.7787 77.0118C75.8685 77.2146 76.0105 77.3901 76.1901 77.5204C76.6527 77.8233 77.2035 77.9623 77.7544 77.9151C78.4036 77.9045 79.0488 78.0187 79.655 78.2513C80.568 78.7005 81.5628 78.9591 82.579 79.0116C82.7283 79.0152 82.8747 78.97 82.996 78.883C83.1174 78.7959 83.2071 78.6717 83.2515 78.5291C83.3685 78.0028 82.6228 77.4326 81.8918 77.0671C81.7671 76.9836 81.6763 76.8581 81.636 76.7135C81.5957 76.5688 81.6085 76.4145 81.6721 76.2785C81.7357 76.1425 81.8459 76.0337 81.9827 75.9719C82.1196 75.91 82.274 75.8992 82.4182 75.9414C83.8801 76.687 84.655 77.725 84.4357 78.7777C84.3343 79.1939 84.0963 79.5641 83.7597 79.8292C83.4231 80.0942 83.0074 80.2387 82.579 80.2396L82.5644 80.1958Z" fill="#00376E"/>
<path d="M86.0584 75.9414C86.2497 76.2353 86.5317 76.4586 86.8616 76.5774C87.1915 76.6961 87.5512 76.7038 87.8859 76.5993C90.3567 76.1022 92.8274 72.608 91.3508 68.0028C91.2019 67.4768 90.892 67.0106 90.4646 66.6697C90.0372 66.3288 89.5137 66.1304 88.9678 66.1022C88.6594 65.601 88.207 65.2044 87.6697 64.9645C87.1324 64.7245 86.5351 64.6522 85.9561 64.7572C85.6388 64.177 85.12 63.7333 84.4977 63.5097C83.8754 63.2861 83.1928 63.2982 82.5789 63.5437C82.2575 63.1817 81.8293 62.9313 81.3562 62.8288C80.8831 62.7263 80.3897 62.777 79.9473 62.9735C79.2403 63.3931 78.6418 63.9729 78.1999 64.6661C77.7581 65.3594 77.4853 66.1467 77.4034 66.9648" fill="white"/>
<path d="M87.4035 77.4034C87.0232 77.4141 86.6469 77.3237 86.313 77.1413C85.979 76.9589 85.6995 76.6912 85.503 76.3654C85.4523 76.293 85.4174 76.2107 85.4007 76.1239C85.3839 76.0371 85.3857 75.9477 85.4058 75.8616C85.426 75.7756 85.464 75.6947 85.5176 75.6243C85.5711 75.554 85.6388 75.4957 85.7164 75.4533C85.794 75.4109 85.8796 75.3853 85.9677 75.3782C86.0559 75.3712 86.1445 75.3828 86.2278 75.4123C86.3112 75.4418 86.3873 75.4886 86.4514 75.5495C86.5154 75.6105 86.5659 75.6842 86.5995 75.766C86.7299 75.9394 86.9121 76.0668 87.1197 76.1299C87.3273 76.1929 87.5496 76.1884 87.7544 76.1169C88.304 75.969 88.8173 75.7097 89.2625 75.3551C89.7076 75.0004 90.0751 74.5581 90.3421 74.0555C90.8208 73.1842 91.1064 72.2202 91.1795 71.2288C91.2527 70.2375 91.1117 69.2419 90.7661 68.3099C90.6609 67.9066 90.4298 67.5474 90.1064 67.2844C89.783 67.0215 89.3841 66.8686 88.9679 66.8479H88.6024L88.4269 66.5263C88.187 66.1377 87.8353 65.8307 87.4179 65.6454C87.0005 65.4602 86.5368 65.4054 86.0878 65.4882L85.6492 65.5613L85.4299 65.1666C85.1892 64.7161 84.7888 64.3717 84.3073 64.2013C83.8258 64.0309 83.298 64.0467 82.8275 64.2455L82.462 64.3917L82.1696 64.1286C81.9328 63.8424 81.6078 63.6426 81.2454 63.5607C80.883 63.4787 80.5037 63.519 80.1667 63.6754C79.2749 63.997 78.4708 65.3128 78.0322 67.1695C77.978 67.3109 77.8746 67.428 77.741 67.4993C77.6074 67.5705 77.4525 67.5911 77.3049 67.5573C77.1573 67.5235 77.0268 67.4376 76.9375 67.3153C76.8482 67.193 76.806 67.0426 76.8187 66.8917C77.3597 64.5526 78.3977 62.9882 79.7427 62.5058C80.224 62.3015 80.7527 62.2358 81.2693 62.3158C81.7859 62.3959 82.2699 62.6187 82.6667 62.959C83.316 62.7705 84.008 62.7905 84.6453 63.0161C85.2826 63.2416 85.8332 63.6614 86.2193 64.2163C86.8114 64.1767 87.4036 64.2904 87.9389 64.5465C88.4741 64.8026 88.9343 65.1924 89.2749 65.6783C89.8808 65.7771 90.4464 66.0449 90.9068 66.451C91.3672 66.857 91.7036 67.3848 91.8772 67.9736C92.2738 69.0723 92.432 70.2429 92.3412 71.4075C92.2505 72.572 91.9129 73.704 91.3509 74.728C90.9993 75.3824 90.5145 75.956 89.9278 76.4117C89.3411 76.8675 88.6655 77.1953 87.9445 77.3742C87.7654 77.3997 87.5844 77.4095 87.4035 77.4034Z" fill="#00376E"/>
<path d="M82.4181 75.5613C82.4712 75.8652 82.6113 76.1472 82.8216 76.3729C83.0318 76.5987 83.303 76.7586 83.6023 76.8333C85.1666 77.2572 86.5263 75.7368 86.9795 75.1666C88.2701 73.2096 88.8149 70.8541 88.5146 68.5292" fill="white"/>
<path d="M82.4912 75.5467C82.5369 75.7974 82.6472 76.0318 82.8113 76.2267C82.9754 76.4216 83.1877 76.5702 83.4269 76.6578C83.6657 76.7455 83.9182 76.79 84.1725 76.7894C84.4272 76.7796 84.6787 76.7303 84.9181 76.6432C85.4025 76.4539 85.8447 76.1707 86.2193 75.8099C86.603 75.4588 86.9286 75.0493 87.1842 74.5964C87.6976 73.6791 88.0814 72.6951 88.3246 71.6725C88.5893 70.6456 88.6341 69.5745 88.4562 68.5292C89.0599 69.5451 89.3021 70.7353 89.1433 71.9064C89.0934 72.487 88.9807 73.0606 88.807 73.6169C88.645 74.1862 88.4194 74.7354 88.1345 75.2543C88.0587 75.3949 87.9758 75.5316 87.886 75.6637C87.7919 75.8062 87.6894 75.9429 87.579 76.073C87.3698 76.3166 87.1399 76.5417 86.8918 76.7455C86.385 77.1824 85.7848 77.4974 85.1374 77.6666C84.779 77.7223 84.414 77.7223 84.0556 77.6666C83.6933 77.6149 83.3452 77.4906 83.0322 77.3011C82.7257 77.1062 82.482 76.827 82.3304 76.497C82.201 76.1976 82.1702 75.8648 82.2427 75.5467H82.4912Z" fill="#00376E"/>
<path d="M78.8655 74.7864C78.8655 74.7864 78.9532 76.7163 80.7514 76.6432C82.5497 76.5701 85.6783 72.2572 85.5614 67.5057" fill="white"/>
<path d="M78.8655 74.7864C78.8811 75.0656 78.9525 75.3389 79.0756 75.59C79.1986 75.8411 79.3708 76.065 79.5819 76.2484C79.8095 76.4067 80.0724 76.5068 80.3477 76.54C80.623 76.5731 80.9022 76.5383 81.1608 76.4385C81.6808 76.2096 82.1447 75.8703 82.5205 75.4443C82.9123 75.0227 83.2601 74.5622 83.5585 74.07C84.7936 72.0996 85.4379 69.8165 85.4152 67.4911C85.8612 68.6651 85.9873 69.9365 85.7807 71.1753C85.7407 71.7981 85.6378 72.4153 85.4737 73.0174C85.2701 73.6178 85.0157 74.1998 84.7135 74.7572C84.006 76.0013 82.8668 76.9428 81.5117 77.4034C81.3016 77.4585 81.0856 77.4879 80.8685 77.4911C80.6851 77.4855 80.5032 77.4561 80.3275 77.4034C79.9224 77.3082 79.5524 77.1004 79.2603 76.804C79.0237 76.5403 78.858 76.2209 78.7787 75.8756C78.6995 75.5304 78.7092 75.1707 78.807 74.8303H78.8801L78.8655 74.7864Z" fill="#00376E"/>
<path d="M77.2426 76.0877C76.9965 76.094 76.7522 76.0431 76.5289 75.9391C76.3057 75.8351 76.1096 75.6808 75.9561 75.4883C75.6732 74.9265 75.5044 74.3144 75.4592 73.6871C75.414 73.0598 75.4935 72.4297 75.6929 71.8333L76.8625 66.5994L78.076 66.8771L76.9064 72.1111C76.5888 72.9545 76.5888 73.8846 76.9064 74.728C76.944 74.776 76.9934 74.8134 77.0498 74.8364C77.1062 74.8595 77.1676 74.8675 77.228 74.8596C77.3764 74.8824 77.5118 74.9576 77.6096 75.0716C77.7073 75.1856 77.7611 75.3308 77.7611 75.4809C77.7611 75.6311 77.7073 75.7763 77.6096 75.8903C77.5118 76.0042 77.3764 76.0795 77.228 76.1023L77.2426 76.0877Z" fill="#00376E"/>
<path d="M76.8626 72.1548C76.731 72.8566 76.234 75.7367 77.7544 75.3712C80.8538 74.6402 82.2427 66.4823 82.2427 66.4823" fill="white"/>
<path d="M76.921 72.1694C76.8056 72.7471 76.7469 73.3347 76.7456 73.9238C76.7413 74.2156 76.7807 74.5063 76.8625 74.7864C76.8904 74.9154 76.9549 75.0337 77.0482 75.127C77.1416 75.2203 77.2598 75.2848 77.3888 75.3127C77.5187 75.3427 77.6537 75.3427 77.7836 75.3127C77.9207 75.274 78.0531 75.22 78.1783 75.1519C78.4312 75.016 78.6628 74.8436 78.8654 74.6402C79.2766 74.2058 79.6214 73.7132 79.8888 73.1782C80.4556 72.1405 80.916 71.0483 81.2631 69.918C81.622 68.7908 81.9149 67.6436 82.1403 66.4823C82.3668 67.7098 82.3668 68.9683 82.1403 70.1958C82.0681 70.8175 81.9508 71.4331 81.7894 72.0379C81.575 72.6458 81.3059 73.233 80.9853 73.7922C80.6444 74.4013 80.1991 74.9457 79.6695 75.4004C79.3728 75.6603 79.0374 75.8724 78.6754 76.0291C78.4777 76.1098 78.2718 76.1686 78.0614 76.2045C77.801 76.2585 77.5323 76.2585 77.2719 76.2045C76.9403 76.1432 76.6432 75.9608 76.4385 75.6928C76.2847 75.4905 76.1796 75.2553 76.1315 75.0057C76.0642 74.6482 76.0642 74.2813 76.1315 73.9238C76.2475 73.2982 76.4648 72.6958 76.7748 72.1402H76.8625L76.921 72.1694Z" fill="#00376E"/>
<path d="M92.0234 73.149C90.8405 76.9203 89.037 80.468 86.6871 83.6461L87.6667 78.0613L90.9561 74.7134L92.0234 73.149Z" fill="#00376E"/>
</g>
</g>
<rect x="1" y="1" width="110" height="110" rx="9" stroke="black" stroke-opacity="0.1" stroke-width="2"/>
<defs>
<linearGradient id="paint0_linear_647_1067" x1="49.348" y1="28.4123" x2="62.8129" y2="84.2456" gradientUnits="userSpaceOnUse">
<stop stop-color="#00C6F9"/>
<stop offset="0.42" stop-color="#00C6F9"/>
<stop offset="0.79" stop-color="#009CE0"/>
<stop offset="1" stop-color="#0089D5"/>
</linearGradient>
<clipPath id="clip0_647_1067">
<rect x="2" y="2" width="108" height="108" rx="8" fill="white"/>
</clipPath>
</defs>
</svg>
