<svg width="112" height="112" viewBox="0 0 112 112" fill="none" xmlns="http://www.w3.org/2000/svg">
<g clip-path="url(#clip0_647_994)">
<rect x="1.99988" y="2" width="108" height="108" rx="8" fill="white"/>
<g clip-path="url(#clip1_647_994)">
<path d="M32.392 45H21.496C18.4606 45 16 47.4606 16 50.496V61.392C16 64.4273 18.4606 66.888 21.496 66.888H32.392C35.4274 66.888 37.888 64.4273 37.888 61.392V50.496C37.888 47.4606 35.4274 45 32.392 45Z" fill="url(#paint0_linear_647_994)"/>
<mask id="mask0_647_994" style="mask-type:luminance" maskUnits="userSpaceOnUse" x="16" y="45" width="22" height="22">
<path d="M32.392 45H21.496C18.4606 45 16 47.4606 16 50.496V61.392C16 64.4273 18.4606 66.888 21.496 66.888H32.392C35.4274 66.888 37.888 64.4273 37.888 61.392V50.496C37.888 47.4606 35.4274 45 32.392 45Z" fill="white"/>
</mask>
<g mask="url(#mask0_647_994)">
<path d="M21.6719 52.0559C21.525 51.8774 21.3282 51.7466 21.1066 51.6804C20.885 51.6141 20.6488 51.6153 20.4279 51.6839C20.0279 51.8399 19.7679 52.5319 20.0279 53.1759C20.5439 54.4839 22.0279 54.3239 22.0279 54.3239C22.3479 55.4155 23.0602 56.3501 24.0279 56.9479C24.5159 58.4639 24.6359 60.1479 25.0199 60.5799C25.8999 61.5999 26.4639 62.3359 26.4639 62.3359L27.9999 60.1999C27.8359 59.0959 27.2719 57.0999 27.4199 56.9799C28.8159 55.8199 28.7679 53.8319 28.7679 53.8319C28.9527 53.8216 29.1324 53.7672 29.2919 53.6733C29.4514 53.5794 29.5861 53.4487 29.6848 53.292C29.7835 53.1354 29.8432 52.9575 29.8591 52.773C29.8749 52.5886 29.8464 52.4031 29.7759 52.2319C29.7371 52.0966 29.6705 51.9709 29.5804 51.8628C29.4902 51.7548 29.3786 51.6667 29.2525 51.6042C29.1264 51.5417 28.9886 51.5062 28.848 51.4999C28.7074 51.4937 28.567 51.5169 28.4359 51.5679C28.4359 51.5679 28.6799 47.5679 24.9159 47.9919C23.1239 48.1879 21.8279 49.0679 21.4879 49.9559C21.1999 50.7319 21.6719 52.0559 21.6719 52.0559Z" fill="white"/>
<path d="M26.4519 62.5119C26.4249 62.5121 26.3982 62.506 26.374 62.4943C26.3497 62.4825 26.3284 62.4652 26.3119 62.4439C26.3119 62.4439 25.7399 61.6999 24.8759 60.6999C24.6279 60.4119 24.4759 59.7599 24.3239 58.9359C24.2039 58.3559 24.0679 57.6999 23.8719 57.0719C22.9414 56.4708 22.2475 55.5663 21.9079 54.5119C21.4803 54.5329 21.0565 54.4232 20.6928 54.1974C20.3291 53.9716 20.0428 53.6404 19.8719 53.2479C19.7162 52.8631 19.7162 52.4328 19.8719 52.0479C19.9169 51.9326 19.9842 51.8273 20.07 51.7381C20.1558 51.6488 20.2584 51.5774 20.3719 51.5279C20.5312 51.4656 20.7023 51.439 20.873 51.4501C21.0437 51.4611 21.2099 51.5096 21.3599 51.5919C21.2039 51.0507 21.1956 50.4775 21.3359 49.9319C21.7359 48.8959 23.1959 48.0439 24.9079 47.8559C26.0399 47.7319 26.9359 47.9799 27.5799 48.5879C28.5039 49.4679 28.6239 50.8319 28.6319 51.3879C28.8714 51.3473 29.1176 51.3779 29.3399 51.4759C29.4857 51.5487 29.6152 51.6505 29.7204 51.7749C29.8256 51.8994 29.9044 52.044 29.9519 52.1999C30.0296 52.4036 30.0572 52.623 30.0321 52.8396C30.007 53.0561 29.9301 53.2634 29.8079 53.4439C29.709 53.5898 29.582 53.7145 29.4344 53.8107C29.2867 53.9068 29.1213 53.9725 28.9479 54.0039C28.9279 54.5119 28.7639 56.0759 27.5759 57.0959C27.6362 57.592 27.7284 58.0837 27.8519 58.5679C27.9799 59.1399 28.1079 59.7279 28.1799 60.1679C28.1836 60.191 28.1826 60.2145 28.1771 60.2372C28.1716 60.2598 28.1617 60.2812 28.1479 60.2999L26.5919 62.4199C26.5755 62.4418 26.5544 62.4596 26.5302 62.4721C26.5059 62.4845 26.4792 62.4913 26.4519 62.4919V62.5119ZM22.0519 54.1479C22.0907 54.1474 22.1285 54.1596 22.1596 54.1827C22.1907 54.2059 22.2133 54.2386 22.2239 54.2759C22.5298 55.3168 23.2036 56.211 24.1199 56.7919C24.1597 56.8133 24.1897 56.8491 24.2039 56.8919C24.3996 57.5376 24.5612 58.1932 24.6879 58.8559C24.8359 59.5679 24.9759 60.2439 25.1639 60.4559C25.7799 61.1719 26.2439 61.7519 26.4679 62.0319L27.8399 60.1599C27.7719 59.7279 27.6479 59.1719 27.5279 58.6399C27.2039 57.1919 27.1799 56.9719 27.3319 56.8479C28.6439 55.7559 28.6159 53.8599 28.6159 53.8439C28.6154 53.8208 28.6194 53.7978 28.6277 53.7763C28.6361 53.7547 28.6486 53.735 28.6646 53.7183C28.6806 53.7016 28.6997 53.6882 28.7208 53.6789C28.742 53.6695 28.7648 53.6645 28.7879 53.6639C28.9368 53.6557 29.0818 53.6131 29.2115 53.5395C29.3413 53.466 29.4523 53.3635 29.5359 53.2399C29.6187 53.1026 29.6676 52.9476 29.6788 52.7877C29.6899 52.6277 29.6629 52.4674 29.5999 52.3199C29.5389 52.1013 29.3955 51.9149 29.1999 51.7999C28.9827 51.713 28.7418 51.7059 28.5199 51.7799C28.4922 51.7908 28.4623 51.7945 28.4328 51.7907C28.4034 51.7869 28.3753 51.7757 28.3514 51.7581C28.3274 51.7405 28.3083 51.7172 28.2958 51.6902C28.2833 51.6633 28.2778 51.6336 28.2799 51.6039C28.2799 51.6039 28.3719 49.8319 27.3399 48.8519C26.7759 48.3159 25.9759 48.0999 24.9399 48.2159C23.0919 48.4199 21.9439 49.3159 21.6599 50.0639C21.4039 50.7479 21.8319 51.9999 21.8359 52.0159C21.8522 52.0556 21.8535 52.0999 21.8395 52.1404C21.8255 52.181 21.7971 52.215 21.7598 52.2361C21.7225 52.2573 21.6787 52.264 21.6367 52.2551C21.5948 52.2463 21.5575 52.2224 21.5319 52.1879C21.4091 52.0373 21.2441 51.9268 21.0582 51.8705C20.8722 51.8142 20.6736 51.8147 20.4879 51.8719C20.3488 51.9398 20.2413 52.0587 20.1879 52.2039C20.0658 52.5026 20.0658 52.8373 20.1879 53.1359C20.6559 54.2799 21.9999 54.1519 21.9999 54.1479H22.0519Z" fill="#00376E"/>
<path d="M20.4679 52.2639C20.5148 52.2055 20.5771 52.1614 20.6478 52.1366C20.7186 52.1119 20.7948 52.1075 20.8679 52.1239C21.0094 52.1503 21.1386 52.2219 21.2359 52.3279C21.3265 52.4218 21.3913 52.5376 21.4239 52.6639C21.4633 52.7944 21.4633 52.9335 21.4239 53.0639C21.3719 52.9679 21.3199 52.8679 21.2599 52.7759C21.2024 52.6838 21.1354 52.598 21.0599 52.5199C20.9884 52.4394 20.9013 52.3741 20.8039 52.3279C20.7071 52.2808 20.5975 52.2668 20.4919 52.2879L20.4679 52.2639Z" fill="#00376E"/>
<path d="M27.6 51.4599C27.5646 51.46 27.5299 51.4493 27.5007 51.4293C27.4714 51.4093 27.4489 51.381 27.436 51.3479C27.4012 51.2426 27.3459 51.1452 27.2733 51.0613C27.2007 50.9775 27.1122 50.9088 27.0129 50.8594C26.9136 50.8099 26.8055 50.7806 26.6948 50.7732C26.5841 50.7657 26.473 50.7802 26.368 50.8159C26.3229 50.8303 26.274 50.8261 26.232 50.8043C26.19 50.7826 26.1583 50.745 26.144 50.6999C26.1297 50.6549 26.1338 50.6059 26.1556 50.5639C26.1774 50.5219 26.2149 50.4903 26.26 50.4759C26.5572 50.3784 26.8807 50.4008 27.1616 50.5383C27.4425 50.6758 27.6586 50.9175 27.764 51.2119C27.7753 51.2388 27.7797 51.2681 27.7768 51.2971C27.774 51.3261 27.764 51.3539 27.7477 51.3781C27.7315 51.4023 27.7095 51.4221 27.6837 51.4357C27.6579 51.4493 27.6291 51.4562 27.6 51.4559V51.4599Z" fill="#00376E"/>
<path d="M23.0439 51.3999C22.9982 51.399 22.9546 51.3807 22.9219 51.3487C22.8893 51.3168 22.8699 51.2736 22.8679 51.2279C22.9239 50.9849 23.066 50.7703 23.2679 50.6239C23.4295 50.5072 23.6176 50.4325 23.8152 50.4067C24.0128 50.3809 24.2138 50.4047 24.3999 50.4759C24.445 50.4897 24.4828 50.5209 24.5049 50.5625C24.527 50.6041 24.5317 50.6529 24.5179 50.6979C24.5041 50.743 24.473 50.7808 24.4314 50.8029C24.3897 50.825 24.341 50.8297 24.2959 50.8159C24.1799 50.7725 24.0564 50.753 23.9327 50.7585C23.8089 50.764 23.6876 50.7944 23.5759 50.8479C23.4147 50.9375 23.288 51.0782 23.2159 51.2479C23.2086 51.2886 23.1875 51.3255 23.1562 51.3525C23.1249 51.3794 23.0852 51.3948 23.0439 51.3959V51.3999Z" fill="#00376E"/>
<path d="M23.692 51.7999C23.736 52.0599 23.896 52.2479 24.052 52.2239C24.208 52.1999 24.3 51.9679 24.256 51.7079C24.212 51.4479 24.052 51.2599 23.896 51.2839C23.74 51.3079 23.652 51.5199 23.692 51.7999Z" fill="#00376E"/>
<path d="M26.6119 51.8679C26.6519 52.1079 26.7999 52.2679 26.9439 52.2679C27.0879 52.2679 27.1719 52.0319 27.1319 51.7919C27.0919 51.5519 26.9439 51.3919 26.7999 51.3919C26.6559 51.3919 26.5719 51.6319 26.6119 51.8679Z" fill="#00376E"/>
<path d="M25.964 53.8639C25.9264 53.8627 25.8903 53.8486 25.8619 53.824C25.8335 53.7993 25.8144 53.7657 25.8078 53.7286C25.8013 53.6916 25.8076 53.6534 25.8259 53.6205C25.8441 53.5876 25.8731 53.562 25.908 53.5479C25.9292 53.5428 25.9477 53.53 25.96 53.5119C25.992 53.4319 25.888 53.1959 25.796 52.9879C25.7044 52.7891 25.6256 52.5847 25.56 52.3759C25.4574 52.0953 25.4393 51.7907 25.508 51.4999C25.5201 51.4618 25.5457 51.4293 25.5801 51.4088C25.6145 51.3882 25.6552 51.3809 25.6945 51.3883C25.7339 51.3957 25.7692 51.4172 25.7938 51.4488C25.8184 51.4805 25.8305 51.52 25.828 51.5599V51.5919C25.7778 51.8225 25.7945 52.0625 25.876 52.2839C25.9385 52.4791 26.0133 52.6702 26.1 52.8559C26.24 53.1759 26.352 53.4279 26.264 53.6559C26.2416 53.7062 26.2091 53.7514 26.1685 53.7886C26.1279 53.8257 26.08 53.8541 26.028 53.8719L25.964 53.8639Z" fill="#00376E"/>
<path d="M27.6359 56.5799C27.5549 56.8413 27.3869 57.0671 27.1599 57.2199C27.1053 57.2621 27.0463 57.2983 26.9839 57.3279C26.9243 57.356 26.8628 57.3801 26.7999 57.3999C26.7366 57.4259 26.671 57.446 26.6039 57.4599L26.4039 57.5039C26.1369 57.5411 25.8652 57.5262 25.6039 57.4599C25.4782 57.4249 25.3553 57.3807 25.2359 57.3279C25.1195 57.2667 25.0084 57.1958 24.9039 57.1159L25.2599 57.2039C25.3799 57.2039 25.4999 57.2479 25.6199 57.2599C25.8616 57.2907 26.1062 57.2907 26.3479 57.2599C26.5958 57.2145 26.834 57.1266 27.0519 56.9999C27.2633 56.8948 27.45 56.7462 27.5999 56.5639H27.6239L27.6359 56.5799Z" fill="#00376E"/>
<path d="M28.5159 53.1479C28.6469 53.3297 28.7345 53.539 28.7719 53.7599C28.7852 53.8139 28.7946 53.8687 28.7999 53.9239C28.7999 53.9799 28.7999 54.0319 28.7999 54.0879C28.7999 54.1439 28.7999 54.3079 28.7999 54.4199C28.7802 54.6396 28.7331 54.8559 28.6599 55.0639C28.5891 55.2734 28.4837 55.4695 28.3479 55.6439C28.415 55.4445 28.4711 55.2416 28.5159 55.0359C28.5589 54.8301 28.5883 54.6217 28.6039 54.4119C28.6197 54.2029 28.6197 53.993 28.6039 53.7839C28.5921 53.5738 28.5559 53.3657 28.4959 53.1639L28.5159 53.1479Z" fill="#00376E"/>
<path d="M34.4239 60.0319C34.4239 60.0319 34.1279 61.0599 33.4119 61.1679C33.2959 61.1679 31.9279 61.0959 31.8119 61.1199C28.7559 61.7159 26.5479 63.9799 26.0479 67.9199L22.2439 68.2879C20.7079 68.3159 15.3879 67.6759 15.3879 67.6759C16.5799 64.3319 17.7359 62.5439 18.7999 61.1999C19.0036 60.9707 19.2362 60.769 19.4919 60.5999L24.3479 58.1999C24.4356 58.5497 24.5575 58.8901 24.7119 59.2159C25.7519 61.7559 28.0639 61.0799 27.5879 58.8519L27.4959 57.8399C27.4959 57.8399 31.8239 58.2559 34.4239 60.0319Z" fill="#00376E"/>
<path d="M28.464 52.1999C28.5163 52.1496 28.58 52.1128 28.6497 52.0926C28.7194 52.0724 28.7929 52.0694 28.864 52.0839C29.0035 52.1023 29.1323 52.1688 29.228 52.2719C29.3195 52.3714 29.377 52.4975 29.392 52.6319C29.4011 52.6956 29.4011 52.7602 29.392 52.8239C29.3756 52.8892 29.3485 52.9514 29.312 53.0079L29.272 52.8599C29.272 52.8119 29.24 52.7639 29.22 52.7159C29.1799 52.6233 29.1245 52.5381 29.056 52.4639C28.9864 52.3904 28.9027 52.3317 28.8099 52.2911C28.7172 52.2506 28.6172 52.2291 28.516 52.2279L28.464 52.1999Z" fill="#00376E"/>
<path d="M21.116 54.0679L21.416 54.1199C21.5153 54.1364 21.6154 54.1471 21.716 54.1519C21.8172 54.1577 21.9187 54.1577 22.02 54.1519C22.1192 54.1481 22.2175 54.1306 22.312 54.0999L22.508 54.0159C22.4937 54.0593 22.472 54.0999 22.444 54.1359L22.4 54.1999L22.352 54.2439C22.2969 54.2779 22.2378 54.3048 22.176 54.3239C22.1214 54.3425 22.0651 54.3559 22.008 54.3639H21.84H21.676C21.5688 54.3476 21.464 54.318 21.364 54.2759C21.2609 54.2308 21.1663 54.1686 21.084 54.0919L21.116 54.0679Z" fill="#00376E"/>
<path d="M26.3999 56.4719C26.1234 56.4604 25.8517 56.3952 25.5999 56.2799C23.9999 55.6239 23.1999 53.7359 23.1999 53.6559C23.1853 53.6205 23.1823 53.5813 23.1915 53.544C23.2007 53.5068 23.2216 53.4734 23.251 53.4489C23.2805 53.4243 23.3171 53.4098 23.3554 53.4075C23.3937 53.4051 23.4317 53.4151 23.4639 53.4359C25.7599 54.9439 27.3999 54.3079 27.4119 54.3039C27.4503 54.2905 27.4921 54.2904 27.5305 54.3037C27.5689 54.317 27.6017 54.343 27.6235 54.3773C27.6453 54.4116 27.6548 54.4523 27.6506 54.4927C27.6463 54.5331 27.6284 54.5709 27.5999 54.5999C27.4136 54.8761 27.3083 55.199 27.2959 55.5319C27.2971 55.6953 27.2583 55.8565 27.183 56.0015C27.1077 56.1464 26.9982 56.2709 26.8639 56.3639C26.7215 56.4402 26.5614 56.4775 26.3999 56.4719ZM23.8119 54.0719C24.2418 54.881 24.9109 55.5375 25.7279 55.9519C25.8722 56.0383 26.0338 56.0918 26.2012 56.1084C26.3686 56.125 26.5375 56.1043 26.6959 56.0479C26.7803 55.9826 26.8479 55.898 26.8931 55.8014C26.9383 55.7047 26.9599 55.5986 26.9559 55.4919C26.9754 55.2397 27.032 54.9917 27.1239 54.7559C25.9741 54.9169 24.804 54.6752 23.8119 54.0719Z" fill="#00376E"/>
<path d="M28.46 51.4559C28.484 51.5479 28.492 51.5919 28.492 51.5919L28.46 51.4559Z" fill="#003A6C"/>
<path d="M25.5799 48.2319C25.6005 48.2502 25.6157 48.2737 25.6239 48.2999C25.4559 48.2999 25.2719 48.2999 25.0959 48.2999C25.2557 48.2674 25.4174 48.2446 25.5799 48.2319Z" fill="#00376E"/>
<path d="M20.0799 49.8519C20.1058 49.3387 20.3177 48.8524 20.6759 48.4839C20.1919 48.5559 20.0079 48.3039 20.2079 48.2919C20.3978 48.2515 20.581 48.1842 20.7519 48.0919C20.9294 48.0095 21.0994 47.9118 21.2599 47.7999C21.5545 47.5749 21.8314 47.3275 22.0879 47.0599C22.0879 47.0599 22.0879 47.0239 22.0879 47.0359C21.1159 47.7799 20.3559 47.4359 20.6239 47.3879C20.8773 47.3427 21.116 47.2371 21.3199 47.0799L21.5239 46.9359C21.7314 46.7876 21.954 46.6616 22.1879 46.5599C22.3442 46.4926 22.5062 46.439 22.6719 46.3999C22.9974 46.3255 23.33 46.2866 23.6639 46.2839C23.4694 46.2756 23.2769 46.2406 23.0919 46.1799C22.6919 46.0239 22.6919 45.7799 22.8359 45.8399C23.4279 46.0519 25.0359 45.8679 25.8679 46.1439C25.8679 46.1439 27.0279 46.5439 27.3359 47.5119C27.3359 47.5119 29.3039 47.9599 28.7919 51.3919L28.2999 51.5159C28.309 50.9438 28.2 50.376 27.9799 49.8479C27.8968 49.6264 27.7685 49.4245 27.6033 49.2551C27.438 49.0857 27.2393 48.9525 27.0199 48.8639C26.9789 48.8459 26.934 48.8383 26.8894 48.8418C26.8447 48.8453 26.8016 48.8598 26.7639 48.8839L26.7359 48.9039C26.5142 49.017 26.2688 49.0759 26.0199 49.0759C25.3519 49.0159 24.6039 48.7399 24.0199 49.0519C23.4359 49.3639 23.1759 49.7679 22.5919 50.0519C22.4618 50.1141 22.3282 50.1689 22.1919 50.2159L21.9079 50.3439C21.5079 50.5079 21.7679 51.7239 21.9079 52.2719C21.9079 52.2959 21.9079 52.3279 21.9079 52.3599C21.9113 52.4252 21.9113 52.4906 21.9079 52.5559C21.912 52.612 21.9023 52.6683 21.8799 52.7199C21.875 52.7281 21.8685 52.7353 21.8607 52.741C21.853 52.7466 21.8442 52.7507 21.8349 52.7529C21.8256 52.7552 21.816 52.7555 21.8065 52.754C21.7971 52.7524 21.788 52.749 21.7799 52.7439C21.7124 52.6756 21.6558 52.5974 21.6119 52.5119C21.3839 52.0599 21.3039 51.8399 20.4119 51.7119C20.1471 51.1296 20.0329 50.49 20.0799 49.8519Z" fill="#003A6C"/>
<path d="M21.5399 47.7199C20.975 48.0406 20.3595 48.2624 19.7199 48.3759C19.5959 48.3759 19.5759 48.5319 19.6639 48.6159C20.0119 48.9399 20.7079 48.9359 21.2919 48.6679C22.2279 48.2399 21.5399 47.7199 21.5399 47.7199Z" fill="#00376E"/>
<path d="M23.8959 47.1759C23.7356 47.2225 23.5791 47.2813 23.4279 47.3519C23.2759 47.4199 23.1319 47.5119 22.9839 47.5919C23.2401 47.3238 23.5519 47.115 23.8974 46.9803C24.243 46.8455 24.6138 46.7881 24.9839 46.8119C25.6686 46.8929 26.2966 47.2319 26.7399 47.7599C26.482 47.546 26.1917 47.3745 25.8799 47.2519L25.7239 47.1959C25.5738 47.1463 25.42 47.1088 25.2639 47.0839H25.1639C25.0777 47.0716 24.9909 47.0636 24.9039 47.0599H24.7279C24.4462 47.0546 24.1654 47.0937 23.8959 47.1759Z" fill="white"/>
<path d="M25.0279 47.6759C25.0843 47.6598 25.1418 47.6477 25.1999 47.6399H25.2559C25.5624 47.6062 25.8722 47.6618 26.1479 47.7999C26.2818 47.8659 26.4046 47.9523 26.5119 48.0559L26.5959 48.1439L26.5159 48.1079C26.3855 48.0463 26.252 47.9916 26.1159 47.9439C25.9478 47.8887 25.7751 47.8485 25.5999 47.8239C25.4351 47.8049 25.2687 47.8049 25.1039 47.8239H25.0719C24.8975 47.847 24.7284 47.8998 24.5719 47.9799C24.6893 47.8345 24.8484 47.7284 25.0279 47.6759Z" fill="white"/>
<path d="M21.1639 48.5239C21.586 48.4378 21.9778 48.2419 22.2999 47.9559C22.2127 48.1771 22.0469 48.3582 21.8343 48.4646C21.6216 48.5709 21.3772 48.5949 21.1479 48.5319L21.1639 48.5239Z" fill="white"/>
<path d="M36.7999 60.4559C36.7799 60.5359 36.7559 60.6159 36.7279 60.6999C36.7559 60.6199 36.7799 60.5399 36.7999 60.4599V60.4559Z" fill="#0081F2"/>
<path d="M36.3999 61.4399L36.2639 61.7119C36.2656 61.6839 36.2656 61.6559 36.2639 61.6279C36.3126 61.5677 36.358 61.505 36.3999 61.4399Z" fill="#0081F2"/>
<path d="M27.9159 65.2359C28.2045 63.8501 29.017 62.6292 30.1839 61.8279C29.0167 62.6289 28.2041 63.8499 27.9159 65.2359Z" fill="#003A6C"/>
<path d="M27.9319 65.4479C27.9145 65.3783 27.9145 65.3055 27.9319 65.2359C28.2204 63.8501 29.033 62.6292 30.1999 61.8279C30.4239 61.6706 30.6577 61.5276 30.8999 61.3999L31.2239 61.2359C31.5519 61.0799 32.2279 60.5479 32.5679 60.4359C32.5679 60.4359 36.4359 59.3479 36.7199 60.8999C36.7199 60.9239 36.2719 61.6999 36.2719 61.7279L35.3839 63.4959C35.3418 63.5632 35.2842 63.6195 35.2159 63.6599L35.1799 63.6839C35.091 63.73 34.992 63.7533 34.8919 63.7519H34.8319C34.1625 63.676 33.4857 63.8013 32.8879 64.1119C32.4596 64.3332 32.0978 64.6646 31.8399 65.0719C31.7611 65.1988 31.6941 65.3327 31.6399 65.4719C31.5944 65.5828 31.5107 65.6736 31.4039 65.7279C31.3485 65.7556 31.2891 65.7745 31.2279 65.7839H31.1279L28.5159 65.8279C28.4085 65.829 28.3025 65.8029 28.2079 65.7519C28.0853 65.6906 27.9908 65.5847 27.9439 65.4559L27.9319 65.4479Z" fill="#00376E"/>
<path d="M32.5519 59.1159C32.5079 59.3759 32.3159 60.0159 32.2759 60.2319L32.2439 60.4199C32.2259 60.5527 32.2259 60.6872 32.2439 60.8199C31.9025 60.9322 31.5686 61.0658 31.2439 61.2199L30.9199 61.3839C30.6718 61.5162 30.4327 61.6645 30.2039 61.8279C29.0367 62.6289 28.2241 63.8499 27.9359 65.2359C27.9185 65.3055 27.9185 65.3783 27.9359 65.4479C27.9828 65.5767 28.0773 65.6827 28.1999 65.7439C28.2957 65.7955 28.4031 65.8217 28.5119 65.8199L31.1239 65.7999H31.2239C31.2851 65.7904 31.3445 65.7715 31.3999 65.7439C31.5067 65.6896 31.5905 65.5988 31.6359 65.4879C31.6901 65.3487 31.7571 65.2148 31.8359 65.0879C32.0944 64.6811 32.456 64.3499 32.8839 64.1279C33.4817 63.8173 34.1585 63.692 34.8279 63.7679H34.8879C34.9881 63.7695 35.087 63.7461 35.1759 63.6999L35.2119 63.6759C35.2802 63.6355 35.3378 63.5793 35.3799 63.5119L36.2639 61.7439L36.3999 61.4399C36.4591 61.3418 36.5125 61.2403 36.5599 61.1359C36.6079 61.0359 36.6519 60.9319 36.6919 60.8159C36.6919 60.7759 36.7159 60.7359 36.7319 60.6959C36.7479 60.6559 36.7839 60.5359 36.8039 60.4519C36.861 60.2386 36.8972 60.0203 36.9119 59.7999C36.9119 59.7319 36.8839 59.4279 36.8839 59.3599C37.9838 59.7855 38.8919 60.5956 39.4399 61.6399C39.4399 61.6399 38.7999 65.8679 38.7639 65.9479L33.4199 67.9479L25.4519 69.4599C24.7159 61.7759 30.6079 59.1919 32.5519 59.1159Z" fill="#FF8D00"/>
<path d="M29.3119 61.3439C28.0558 62.5478 27.1726 64.0877 26.768 65.7799C26.7577 65.3319 26.8185 64.885 26.948 64.4559C26.9994 64.2338 27.0635 64.0148 27.14 63.7999C27.228 63.5959 27.332 63.3999 27.44 63.1999C27.548 62.9999 27.676 62.8199 27.808 62.6399C27.9424 62.4614 28.0866 62.2905 28.24 62.1279C28.5447 61.7992 28.8998 61.521 29.2919 61.3039V61.3279L29.3119 61.3439Z" fill="white"/>
<path d="M36.8839 59.3719C36.8839 59.3719 34.2759 58.1519 30.8159 59.5559L31.4399 61.1159C31.4399 61.1159 34.9199 59.6799 36.5639 61.1399C38.0359 62.4479 37.4239 60.6599 37.4239 60.6599L36.8839 59.3719Z" fill="#FF8D00"/>
<path d="M32.7999 58.9999C32.7999 58.9999 32.1639 60.8959 32.6399 61.1719C33.1159 61.4479 34.3999 60.9999 34.3999 60.9999L34.5159 59.6039L34.2519 58.8599L33.2879 58.8919L32.7999 58.9999Z" fill="white"/>
<path d="M32.4279 60.9679C32.3514 61.0237 32.2883 61.0958 32.243 61.1789C32.1978 61.262 32.1715 61.3542 32.1662 61.4487C32.1608 61.5432 32.1765 61.6377 32.2121 61.7254C32.2476 61.8131 32.3022 61.8918 32.3719 61.9559C32.6959 62.1879 32.9759 62.0199 33.3519 62.1759C33.6299 62.3086 33.932 62.3835 34.2399 62.3959C34.319 62.3968 34.3961 62.3714 34.4591 62.3236C34.5221 62.2758 34.5674 62.2083 34.5879 62.1319C34.6359 61.8999 34.4199 61.6879 34.1279 61.5439" fill="white"/>
<path d="M34.212 62.5639C33.8909 62.5452 33.5761 62.4665 33.284 62.3319C33.1561 62.2844 33.0204 62.2613 32.884 62.2639C32.6654 62.275 32.4492 62.2146 32.268 62.0919C32.1737 62.0234 32.0985 61.932 32.0495 61.8263C32.0005 61.7206 31.9793 61.6041 31.988 61.4879C31.9906 61.3579 32.0234 61.2302 32.0838 61.115C32.1442 60.9997 32.2305 60.9001 32.336 60.8239C32.3742 60.8074 32.4171 60.8052 32.4568 60.8179C32.4965 60.8306 32.5302 60.8573 32.5517 60.893C32.5732 60.9286 32.581 60.9709 32.5737 61.0119C32.5664 61.0529 32.5445 61.0899 32.512 61.1159C32.4541 61.1653 32.4077 61.2266 32.3759 61.2957C32.3441 61.3647 32.3278 61.4399 32.328 61.5159C32.3213 61.5763 32.3308 61.6373 32.3554 61.6928C32.38 61.7483 32.4188 61.7963 32.468 61.8319C32.5945 61.9148 32.7452 61.9528 32.896 61.9399C33.0736 61.937 33.2501 61.9683 33.416 62.0319C33.6658 62.1548 33.9379 62.2256 34.216 62.2399C34.2568 62.2409 34.2969 62.2286 34.3301 62.2047C34.3633 62.1809 34.3878 62.1469 34.4 62.1079C34.432 61.9639 34.228 61.8079 34.028 61.7079C33.9938 61.6851 33.969 61.6508 33.958 61.6112C33.9469 61.5716 33.9504 61.5294 33.9678 61.4922C33.9852 61.4549 34.0154 61.4252 34.0528 61.4083C34.0903 61.3914 34.1325 61.3884 34.172 61.3999C34.572 61.6039 34.784 61.8879 34.724 62.1759C34.6962 62.2898 34.6311 62.3911 34.539 62.4636C34.4469 62.5361 34.3332 62.5757 34.216 62.5759L34.212 62.5639Z" fill="#00376E"/>
<path d="M35.1679 61.3999C35.2202 61.4803 35.2974 61.5414 35.3877 61.5739C35.4779 61.6064 35.5764 61.6085 35.6679 61.5799C36.3439 61.4439 37.0199 60.4879 36.6159 59.2279C36.5752 59.084 36.4904 58.9565 36.3734 58.8632C36.2565 58.7699 36.1133 58.7156 35.9639 58.7079C35.8796 58.5708 35.7558 58.4623 35.6088 58.3967C35.4618 58.331 35.2984 58.3112 35.1399 58.3399C35.0531 58.1812 34.9112 58.0598 34.7409 57.9986C34.5707 57.9374 34.3839 57.9408 34.2159 58.0079C34.128 57.9089 34.0108 57.8404 33.8814 57.8123C33.752 57.7843 33.617 57.7982 33.4959 57.8519C33.3025 57.9667 33.1387 58.1253 33.0178 58.315C32.897 58.5047 32.8223 58.7201 32.7999 58.9439" fill="white"/>
<path d="M35.5359 61.7999C35.4318 61.8029 35.3289 61.7781 35.2375 61.7282C35.1461 61.6783 35.0697 61.6051 35.0159 61.5159C35.002 61.4961 34.9925 61.4736 34.9879 61.4498C34.9833 61.4261 34.9838 61.4016 34.9893 61.3781C34.9948 61.3545 35.0052 61.3324 35.0199 61.3132C35.0345 61.2939 35.0531 61.278 35.0743 61.2664C35.0955 61.2548 35.1189 61.2478 35.1431 61.2458C35.1672 61.2439 35.1914 61.2471 35.2142 61.2552C35.237 61.2632 35.2579 61.276 35.2754 61.2927C35.2929 61.3094 35.3067 61.3296 35.3159 61.3519C35.3516 61.3994 35.4014 61.4342 35.4582 61.4515C35.515 61.4687 35.5758 61.4675 35.6319 61.4479C35.7823 61.4075 35.9227 61.3365 36.0445 61.2395C36.1663 61.1425 36.2668 61.0214 36.3399 60.8839C36.4708 60.6456 36.549 60.3818 36.569 60.1106C36.589 59.8393 36.5504 59.5669 36.4559 59.3119C36.4271 59.2016 36.3639 59.1033 36.2754 59.0314C36.1869 58.9594 36.0778 58.9176 35.9639 58.9119H35.8639L35.8159 58.8239C35.7503 58.7176 35.654 58.6336 35.5398 58.5829C35.4256 58.5323 35.2988 58.5173 35.1759 58.5399L35.0559 58.5599L34.9959 58.4519C34.9301 58.3287 34.8205 58.2345 34.6888 58.1878C34.557 58.1412 34.4126 58.1455 34.2839 58.1999L34.1839 58.2399L34.1039 58.1679C34.0391 58.0896 33.9502 58.035 33.851 58.0125C33.7519 57.9901 33.6481 58.0012 33.5559 58.0439C33.3119 58.1319 33.0919 58.4919 32.9719 58.9999C32.9571 59.0386 32.9288 59.0707 32.8922 59.0901C32.8557 59.1096 32.8133 59.1153 32.7729 59.106C32.7325 59.0968 32.6968 59.0733 32.6724 59.0398C32.648 59.0064 32.6364 58.9652 32.6399 58.9239C32.7879 58.2839 33.0719 57.8559 33.4399 57.7239C33.5716 57.6681 33.7162 57.6501 33.8576 57.672C33.9989 57.6939 34.1313 57.7548 34.2399 57.8479C34.4175 57.7964 34.6069 57.8018 34.7812 57.8635C34.9556 57.9253 35.1062 58.0401 35.2119 58.1919C35.3739 58.1811 35.5359 58.2122 35.6824 58.2823C35.8288 58.3524 35.9547 58.459 36.0479 58.5919C36.2137 58.619 36.3684 58.6922 36.4944 58.8033C36.6203 58.9144 36.7124 59.0588 36.7599 59.2199C36.8684 59.5205 36.9117 59.8408 36.8868 60.1594C36.862 60.4781 36.7696 60.7878 36.6159 61.0679C36.5197 61.247 36.3871 61.4039 36.2265 61.5286C36.066 61.6533 35.8812 61.743 35.6839 61.7919C35.6349 61.7989 35.5854 61.8016 35.5359 61.7999Z" fill="#00376E"/>
<path d="M34.172 61.2959C34.1865 61.3791 34.2249 61.4562 34.2824 61.518C34.3399 61.5797 34.4141 61.6235 34.496 61.6439C34.924 61.7599 35.296 61.3439 35.42 61.1879C35.7731 60.6525 35.9222 60.008 35.84 59.3719" fill="white"/>
<path d="M34.1919 61.2919C34.2044 61.3605 34.2346 61.4246 34.2795 61.478C34.3244 61.5313 34.3824 61.5719 34.4479 61.5959C34.5132 61.6199 34.5823 61.6321 34.6519 61.6319C34.7216 61.6292 34.7904 61.6158 34.8559 61.5919C34.9884 61.5401 35.1094 61.4626 35.2119 61.3639C35.3169 61.2679 35.406 61.1558 35.4759 61.0319C35.6164 60.7809 35.7214 60.5117 35.7879 60.2319C35.8603 59.951 35.8726 59.6579 35.8239 59.3719C35.9891 59.6499 36.0553 59.9755 36.0119 60.2959C35.9983 60.4548 35.9674 60.6117 35.9199 60.7639C35.8756 60.9197 35.8138 61.07 35.7359 61.2119C35.7152 61.2504 35.6925 61.2878 35.6679 61.3239C35.6422 61.3629 35.6141 61.4003 35.5839 61.4359C35.5267 61.5026 35.4638 61.5641 35.3959 61.6199C35.2572 61.7394 35.093 61.8256 34.9159 61.8719C34.8178 61.8872 34.718 61.8872 34.6199 61.8719C34.5208 61.8578 34.4256 61.8237 34.3399 61.7719C34.2561 61.7186 34.1894 61.6422 34.1479 61.5519C34.1125 61.47 34.1041 61.3789 34.1239 61.2919H34.1919Z" fill="#00376E"/>
<path d="M33.2 61.0839C33.2 61.0839 33.224 61.6119 33.716 61.5919C34.208 61.5719 35.064 60.3919 35.032 59.0919" fill="white"/>
<path d="M33.2 61.0839C33.2043 61.1603 33.2238 61.2351 33.2575 61.3038C33.2911 61.3725 33.3382 61.4337 33.396 61.4839C33.4583 61.5272 33.5302 61.5546 33.6055 61.5637C33.6808 61.5728 33.7572 61.5632 33.828 61.5359C33.9703 61.4733 34.0972 61.3805 34.2 61.2639C34.3072 61.1486 34.4024 61.0226 34.484 60.8879C34.8219 60.3488 34.9982 59.7241 34.992 59.0879C35.114 59.4091 35.1485 59.757 35.092 60.0959C35.081 60.2663 35.0529 60.4352 35.008 60.5999C34.9523 60.7642 34.8827 60.9234 34.8 61.0759C34.6064 61.4163 34.2948 61.6739 33.924 61.7999C33.8665 61.815 33.8074 61.8231 33.748 61.8239C33.6978 61.8224 33.6481 61.8143 33.6 61.7999C33.4892 61.7739 33.3879 61.717 33.308 61.6359C33.2433 61.5638 33.1979 61.4764 33.1763 61.3819C33.1546 61.2875 33.1572 61.1891 33.184 61.0959H33.204L33.2 61.0839Z" fill="#00376E"/>
<path d="M32.756 61.4399C32.6886 61.4417 32.6218 61.4277 32.5607 61.3993C32.4996 61.3708 32.446 61.3286 32.404 61.2759C32.3266 61.1222 32.2804 60.9548 32.268 60.7831C32.2557 60.6115 32.2774 60.4391 32.332 60.2759L32.652 58.8439L32.984 58.9199L32.664 60.3519C32.5771 60.5827 32.5771 60.8372 32.664 61.0679C32.6742 61.0811 32.6878 61.0913 32.7032 61.0976C32.7186 61.1039 32.7354 61.1061 32.752 61.1039C32.7926 61.1102 32.8296 61.1308 32.8564 61.1619C32.8831 61.1931 32.8978 61.2328 32.8978 61.2739C32.8978 61.315 32.8831 61.3547 32.8564 61.3859C32.8296 61.4171 32.7926 61.4377 32.752 61.4439L32.756 61.4399Z" fill="#00376E"/>
<path d="M32.6519 60.3639C32.6159 60.5559 32.4799 61.3439 32.8959 61.2439C33.7439 61.0439 34.1239 58.8119 34.1239 58.8119" fill="white"/>
<path d="M32.6679 60.3679C32.6364 60.526 32.6203 60.6867 32.6199 60.8479C32.6188 60.9277 32.6295 61.0073 32.6519 61.0839C32.6596 61.1192 32.6772 61.1516 32.7027 61.1771C32.7283 61.2026 32.7606 61.2203 32.7959 61.2279C32.8315 61.2361 32.8684 61.2361 32.9039 61.2279C32.9414 61.2173 32.9777 61.2026 33.0119 61.1839C33.0811 61.1467 33.1445 61.0996 33.1999 61.0439C33.3124 60.9251 33.4068 60.7903 33.4799 60.6439C33.635 60.36 33.761 60.0612 33.8559 59.7519C33.9541 59.4435 34.0342 59.1296 34.0959 58.8119C34.1579 59.1478 34.1579 59.4921 34.0959 59.8279C34.0762 59.998 34.0441 60.1665 33.9999 60.3319C33.9413 60.4982 33.8676 60.6589 33.7799 60.8119C33.6867 60.9786 33.5648 61.1275 33.4199 61.2519C33.3387 61.323 33.247 61.381 33.1479 61.4239C33.0938 61.446 33.0375 61.4621 32.9799 61.4719C32.9087 61.4867 32.8352 61.4867 32.7639 61.4719C32.6732 61.4551 32.5919 61.4052 32.5359 61.3319C32.4938 61.2766 32.4651 61.2122 32.4519 61.1439C32.4335 61.0461 32.4335 60.9457 32.4519 60.8479C32.4836 60.6768 32.5431 60.5119 32.6279 60.3599H32.6519L32.6679 60.3679Z" fill="#00376E"/>
<path d="M36.8 60.6359C36.4763 61.6678 35.9829 62.6384 35.34 63.5079L35.608 61.9799L36.508 61.0639L36.8 60.6359Z" fill="#00376E"/>
</g>
<path d="M47.248 58.744H43.504L43 60.016C42.9694 60.0958 42.914 60.1637 42.8421 60.2097C42.7701 60.2558 42.6852 60.2776 42.6 60.272H41.2C41.1292 60.279 41.0579 60.2671 40.9932 60.2375C40.9286 60.2078 40.8731 60.1614 40.8323 60.1032C40.7916 60.0449 40.7671 59.9768 40.7614 59.906C40.7557 59.8351 40.769 59.764 40.8 59.7L44.112 51.956C44.1675 51.8354 44.2567 51.7335 44.3688 51.6626C44.481 51.5916 44.6113 51.5546 44.744 51.556H46.156C46.2916 51.5529 46.425 51.59 46.5396 51.6626C46.6542 51.7352 46.7448 51.84 46.8 51.964L50 59.716C50.0278 59.7777 50.0394 59.8456 50.0338 59.9131C50.0282 59.9806 50.0056 60.0456 49.968 60.102C49.9304 60.1584 49.8791 60.2043 49.819 60.2354C49.7588 60.2665 49.6917 60.2819 49.624 60.28H48.12C48.0342 60.2853 47.949 60.2629 47.8769 60.2161C47.8049 60.1693 47.7499 60.1005 47.72 60.02L47.248 58.744ZM46.516 56.84L45.516 54.232C45.5069 54.2075 45.4905 54.1863 45.469 54.1714C45.4476 54.1565 45.4221 54.1485 45.396 54.1485C45.3698 54.1485 45.3443 54.1565 45.3229 54.1714C45.3014 54.1863 45.285 54.2075 45.276 54.232L44.252 56.84C44.2455 56.8557 44.2422 56.8726 44.2423 56.8896C44.2425 56.9066 44.246 56.9234 44.2527 56.9391C44.2594 56.9547 44.2691 56.9689 44.2814 56.9807C44.2936 56.9925 44.3081 57.0018 44.324 57.008H44.372H46.4C46.421 57.0082 46.4418 57.0032 46.4605 56.9934C46.4792 56.9837 46.4952 56.9695 46.5071 56.9521C46.5189 56.9347 46.5263 56.9146 46.5286 56.8936C46.5308 56.8727 46.5279 56.8515 46.52 56.832L46.516 56.84Z" fill="#00376E"/>
<path d="M73.1999 51.5679C72.3243 51.5632 71.4669 51.8184 70.7364 52.3013C70.0059 52.7841 69.4352 53.4729 69.0964 54.2804C68.7577 55.0879 68.6661 55.9777 68.8335 56.8373C69.0008 57.6968 69.4195 58.4873 70.0364 59.1088C70.6533 59.7302 71.4408 60.1545 72.2991 60.3281C73.1574 60.5017 74.0479 60.4166 74.8578 60.0837C75.6677 59.7508 76.3606 59.185 76.8488 58.4581C77.3369 57.7311 77.5984 56.8756 77.5999 55.9999C77.6021 54.8294 77.1402 53.7057 76.3155 52.875C75.4908 52.0443 74.3705 51.5743 73.1999 51.5679ZM73.1999 58.3679C72.7253 58.3679 72.2613 58.2272 71.8666 57.9635C71.4719 57.6997 71.1643 57.3249 70.9826 56.8864C70.801 56.4478 70.7535 55.9653 70.8461 55.4997C70.9387 55.0342 71.1672 54.6065 71.5029 54.2709C71.8385 53.9352 72.2662 53.7067 72.7317 53.6141C73.1973 53.5214 73.6798 53.569 74.1184 53.7506C74.5569 53.9323 74.9318 54.2399 75.1955 54.6346C75.4592 55.0292 75.5999 55.4933 75.5999 55.9679C75.5999 56.6045 75.3471 57.2149 74.897 57.665C74.4469 58.1151 73.8365 58.3679 73.1999 58.3679Z" fill="#00376E"/>
<path d="M86.532 54.7759V59.9759C86.532 60.082 86.4899 60.1838 86.4149 60.2588C86.3399 60.3338 86.2381 60.3759 86.132 60.3759H84.964C84.7801 60.3749 84.6041 60.3011 84.4745 60.1707C84.3448 60.0403 84.272 59.8638 84.272 59.6799V55.5599C84.272 54.3599 83.572 53.6719 82.672 53.6719C81.54 53.6719 80.992 54.3599 80.988 55.5559V59.9559C80.988 60.062 80.9459 60.1638 80.8709 60.2388C80.7959 60.3138 80.6941 60.3559 80.588 60.3559H79.456C79.2721 60.3549 79.0961 60.2811 78.9665 60.1507C78.8368 60.0203 78.764 59.8438 78.764 59.6599V52.0599C78.764 51.939 78.8121 51.823 78.8976 51.7375C78.9831 51.652 79.0991 51.6039 79.22 51.6039H79.896C80.1825 51.6039 80.4572 51.7177 80.6597 51.9203C80.8623 52.1228 80.976 52.3975 80.976 52.6839C80.976 52.6839 81.624 51.5719 83.376 51.5719C83.7967 51.5641 84.2146 51.642 84.6042 51.8009C84.9938 51.9597 85.347 52.1962 85.6423 52.496C85.9376 52.7957 86.1687 53.1525 86.3217 53.5444C86.4747 53.9364 86.5462 54.3554 86.532 54.7759Z" fill="#00376E"/>
<path d="M87.692 56.0279V55.9999C87.692 53.5999 89.42 51.5999 91.884 51.5999C94.708 51.5999 96 53.7999 96 56.1999C95.999 56.3658 95.9323 56.5245 95.8147 56.6414C95.697 56.7583 95.5379 56.8239 95.372 56.8239H90.076C90.1501 57.3094 90.4037 57.7494 90.7867 58.0568C91.1696 58.3642 91.654 58.5166 92.144 58.4839C92.7943 58.5 93.4278 58.2765 93.924 57.8559C94.0012 57.7908 94.099 57.7551 94.2 57.7551C94.301 57.7551 94.3988 57.7908 94.476 57.8559L95.252 58.5439C95.2942 58.5806 95.3287 58.6253 95.3535 58.6753C95.3784 58.7254 95.3931 58.7799 95.3968 58.8356C95.4005 58.8914 95.3932 58.9473 95.3752 59.0002C95.3572 59.0532 95.3289 59.102 95.292 59.1439C94.878 59.5584 94.3831 59.8832 93.838 60.0979C93.2929 60.3126 92.7095 60.4127 92.124 60.3919C89.568 60.4079 87.688 58.6199 87.692 56.0279ZM93.664 55.3239C93.524 54.2479 92.892 53.5239 91.88 53.5199C90.868 53.5159 90.236 54.2279 90.044 55.3199L93.664 55.3239Z" fill="#00376E"/>
<path d="M65.1119 57.9479C65.0475 57.8565 64.9495 57.7943 64.8394 57.7749C64.7292 57.7554 64.6159 57.7802 64.5239 57.8439C64.0655 58.2234 63.4947 58.4413 62.8999 58.4639C62.5837 58.4642 62.2707 58.4005 61.9796 58.2768C61.6886 58.1531 61.4255 57.9719 61.2063 57.744C60.987 57.5161 60.816 57.2463 60.7036 56.9507C60.5911 56.6552 60.5395 56.3399 60.5519 56.0239C60.5519 56.0039 60.5519 55.9839 60.5519 55.9639C60.5519 55.9439 60.5519 55.9239 60.5519 55.9039C60.5401 55.5881 60.5922 55.2732 60.7052 54.978C60.8181 54.6828 60.9896 54.4136 61.2094 54.1864C61.4291 53.9592 61.6924 53.7788 61.9837 53.656C62.2749 53.5333 62.5879 53.4706 62.9039 53.4719C63.4978 53.4962 64.0672 53.7155 64.5239 54.0959C64.568 54.1302 64.6184 54.1554 64.6723 54.1701C64.7261 54.1848 64.7824 54.1888 64.8377 54.1817C64.8931 54.1747 64.9465 54.1567 64.995 54.129C65.0434 54.1012 65.0859 54.0641 65.1199 54.0199L65.7839 53.0759C65.8165 53.0308 65.8399 52.9796 65.8527 52.9254C65.8655 52.8712 65.8675 52.815 65.8586 52.76C65.8497 52.7051 65.83 52.6524 65.8007 52.605C65.7715 52.5576 65.7331 52.5165 65.6879 52.4839C64.8579 51.9 63.8707 51.5807 62.8559 51.5679C60.2119 51.5679 58.2159 53.4439 58.2159 55.9399C58.2159 55.9399 58.2159 55.9639 58.2159 55.9759C58.2159 55.9879 58.2159 55.9999 58.2159 56.0119C58.2159 58.5079 60.2159 60.3919 62.8479 60.4119C63.8617 60.4005 64.8485 60.0841 65.6799 59.5039C65.7254 59.4717 65.7641 59.4308 65.7938 59.3835C65.8234 59.3363 65.8435 59.2837 65.8528 59.2287C65.8621 59.1737 65.8604 59.1174 65.8479 59.063C65.8354 59.0087 65.8123 58.9573 65.7799 58.9119L65.1119 57.9479Z" fill="#00376E"/>
<path d="M57.092 57.9399C57.0276 57.8486 56.9296 57.7863 56.8195 57.7669C56.7093 57.7474 56.596 57.7722 56.504 57.8359C56.0456 58.2155 55.4748 58.4333 54.88 58.4559C54.5638 58.4562 54.2508 58.3925 53.9597 58.2688C53.6687 58.1451 53.4056 57.9639 53.1864 57.736C52.9671 57.5081 52.7961 57.2383 52.6837 56.9428C52.5712 56.6472 52.5197 56.3319 52.532 56.0159C52.532 55.9959 52.532 55.9759 52.532 55.9559C52.532 55.9359 52.532 55.9159 52.532 55.8959C52.5202 55.5801 52.5723 55.2652 52.6853 54.97C52.7983 54.6748 52.9697 54.4056 53.1895 54.1784C53.4092 53.9512 53.6725 53.7708 53.9638 53.648C54.255 53.5253 54.568 53.4626 54.884 53.4639C55.4793 53.4874 56.0502 53.7067 56.508 54.0879C56.5968 54.1559 56.7088 54.186 56.8197 54.1717C56.9305 54.1575 57.0313 54.1001 57.1 54.0119L57.764 53.0679C57.7966 53.0228 57.82 52.9716 57.8328 52.9174C57.8456 52.8632 57.8476 52.807 57.8387 52.752C57.8298 52.6971 57.8101 52.6444 57.7808 52.597C57.7516 52.5496 57.7132 52.5085 57.668 52.4759C56.8379 51.8922 55.8508 51.573 54.836 51.5599C52.188 51.5599 50.196 53.4359 50.196 55.9319C50.196 55.9319 50.196 55.9559 50.196 55.9679C50.196 55.9799 50.196 55.9919 50.196 56.0039C50.196 58.4999 52.196 60.3839 54.828 60.4039C55.8418 60.3925 56.8286 60.0761 57.66 59.4959C57.7055 59.4637 57.7442 59.4228 57.7739 59.3755C57.8035 59.3283 57.8236 59.2757 57.8329 59.2207C57.8422 59.1657 57.8405 59.1094 57.828 59.0551C57.8155 59.0007 57.7924 58.9493 57.76 58.9039L57.092 57.9399Z" fill="#00376E"/>
</g>
</g>
<rect x="1" y="1" width="110" height="110" rx="9" stroke="black" stroke-opacity="0.1" stroke-width="2"/>
<defs>
<linearGradient id="paint0_linear_647_994" x1="25.124" y1="48.396" x2="28.808" y2="63.672" gradientUnits="userSpaceOnUse">
<stop stop-color="#00C6F9"/>
<stop offset="0.42" stop-color="#00C6F9"/>
<stop offset="0.79" stop-color="#009CE0"/>
<stop offset="1" stop-color="#0089D5"/>
</linearGradient>
<clipPath id="clip0_647_994">
<rect x="2" y="2" width="108" height="108" rx="8" fill="white"/>
</clipPath>
<clipPath id="clip1_647_994">
<rect width="80" height="21.888" fill="white" transform="translate(16 45)"/>
</clipPath>
</defs>
</svg>
