<svg width="112" height="112" viewBox="0 0 112 112" fill="none" xmlns="http://www.w3.org/2000/svg">
<g clip-path="url(#clip0_647_823)">
<rect x="1.99988" y="2" width="108" height="108" rx="8" fill="white"/>
<path d="M16 49.5222C16.0663 49.4182 16.0571 49.2955 16.0805 49.1816C16.4393 47.4559 17.8949 46.1628 19.647 46.02C19.7956 46.0078 19.9453 46.0009 20.0945 46.0009C24.0595 46 28.0248 46 31.9902 46C33.9343 46 35.6021 47.4142 35.9222 49.3299C35.9627 49.5732 35.9789 49.8173 35.9789 50.0629C35.9792 54.0033 35.9697 57.9437 35.9833 61.8842C35.9899 63.8454 34.6632 65.4229 32.9279 65.8408C32.6745 65.9019 32.4179 65.943 32.1564 65.9471C32.1257 65.9477 32.0878 65.9303 32.0663 65.9705H19.908C19.8915 65.9355 19.859 65.9477 19.8324 65.9468C18.0417 65.8753 16.5337 64.6392 16.1083 62.8987C16.0689 62.7379 16.0678 62.5688 16 62.4147V49.5222ZM27.8149 57.03C27.8262 57.0237 27.8372 57.0173 27.8485 57.0106C27.8794 57.0474 27.9075 57.0868 27.9414 57.1207C29.1497 58.326 30.3576 59.5317 31.5673 60.7353C32.1518 61.3168 33.1095 61.2128 33.5587 60.5224C33.8955 60.0049 33.8121 59.3478 33.3429 58.8766C32.581 58.1114 31.8146 57.3506 31.0515 56.5864C30.7014 56.2359 30.7023 55.7236 31.0512 55.3749C31.8013 54.6251 32.5523 53.8759 33.3024 53.1264C33.3533 53.0754 33.4049 53.0242 33.4515 52.9691C33.8164 52.5356 33.8639 51.9164 33.5691 51.4499C33.1269 50.7499 32.1512 50.6442 31.5552 51.237C30.3353 52.451 29.119 53.6688 27.9006 54.8843C27.8661 54.9185 27.8386 54.9648 27.7801 54.9816C27.7714 54.9448 27.7627 54.9173 27.7584 54.8892C27.3437 52.2535 24.7873 50.4374 22.1669 50.917C19.8732 51.3369 18.2161 53.3204 18.2143 55.6498C18.2135 57.0323 18.2135 58.4149 18.2152 59.7975C18.2152 59.9079 18.2187 60.0208 18.2424 60.1277C18.3803 60.7509 18.9575 61.1743 19.5697 61.108C20.219 61.0376 20.6899 60.5114 20.6899 59.8546C20.6902 58.472 20.6899 57.0894 20.6899 55.7068C20.6899 55.5768 20.6974 55.4479 20.7137 55.3182C20.8935 53.8852 22.4224 52.9518 23.7832 53.4458C24.7407 53.7934 25.3471 54.6547 25.3471 55.6666C25.3471 57.0491 25.3489 58.4317 25.3454 59.8143C25.3448 60.0092 25.3596 60.2067 25.4433 60.375C25.7363 60.9647 26.2828 61.1934 26.8508 61.0828C27.3964 60.9765 27.8111 60.4642 27.8149 59.8876C27.8178 59.4106 27.8154 58.9336 27.8154 58.4569C27.8154 57.9814 27.8149 57.5056 27.8149 57.03ZM24.253 56.498C24.2538 55.8093 23.7071 55.2539 23.025 55.2498C22.3418 55.2458 21.7731 55.8114 21.7716 56.496C21.7702 57.1725 22.3332 57.7315 23.0166 57.7323C23.7079 57.7329 24.2524 57.1893 24.253 56.498Z" fill="#00953B"/>
<path d="M81.9004 57.3929C81.9004 56.5791 81.8966 55.7653 81.9019 54.9515C81.9048 54.5006 82.1112 54.1452 82.5245 53.977C83.6919 53.5017 84.8932 53.3144 86.1388 53.6544C86.5101 53.7557 86.8156 53.9735 87.1226 54.1875C87.2228 54.2576 87.2819 54.2512 87.3757 54.1733C87.9787 53.6729 88.6851 53.4551 89.4603 53.4505C90.2956 53.4453 91.074 53.6515 91.7627 54.1334C92.3486 54.5435 92.6394 55.127 92.6469 55.8337C92.6611 57.158 92.6559 58.4827 92.6542 59.8074C92.6533 60.3258 92.3104 60.7188 91.8143 60.7877C91.3492 60.8523 90.9011 60.5641 90.7653 60.112C90.7317 60.0005 90.7199 59.8864 90.7201 59.77C90.721 58.5563 90.7207 57.3425 90.7201 56.1285C90.7201 56.0373 90.7207 55.9446 90.708 55.8545C90.6573 55.5012 90.4488 55.2808 90.1094 55.1916C89.6141 55.0613 89.1244 55.1012 88.6483 55.2811C88.3396 55.3975 88.1919 55.6292 88.1919 55.962C88.1916 57.1514 88.1866 58.3411 88.184 59.5305C88.184 59.6553 88.1988 59.7796 88.1852 59.905C88.1247 60.4645 87.7195 60.817 87.1565 60.7961C86.6627 60.7776 86.2741 60.353 86.2726 59.8166C86.2694 58.5884 86.2718 57.3602 86.2715 56.132C86.2715 56.079 86.272 56.026 86.268 55.9732C86.23 55.4911 86.014 55.246 85.5396 55.1647C85.0557 55.0815 84.5784 55.1606 84.1046 55.2501C83.9187 55.2854 83.8139 55.4522 83.8133 55.6634C83.8115 56.0969 83.8118 56.5305 83.813 56.964C83.8153 57.9128 83.8179 58.8615 83.8214 59.8103C83.8234 60.3637 83.4064 60.7949 82.8662 60.7964C82.3038 60.7981 81.892 60.386 81.892 59.8207C81.892 59.0115 81.892 58.2024 81.892 57.3932C81.8949 57.3932 81.8975 57.3929 81.9004 57.3929Z" fill="#00953B"/>
<path d="M44.551 51.0209C45.3608 51.0189 45.9249 51.396 46.1859 52.0192C47.0851 54.1687 47.9835 56.3188 48.8824 58.4682C49.0122 58.7784 49.1442 59.0877 49.2734 59.3985C49.4944 59.9308 49.2728 60.4964 48.7608 60.7115C48.2563 60.9235 47.6985 60.6887 47.4694 60.1674C47.2279 59.6174 46.9829 59.0689 46.7477 58.5163C46.6834 58.3651 46.5853 58.3046 46.4265 58.3049C45.2638 58.3069 44.1013 58.3069 42.9385 58.3049C42.7798 58.3049 42.6831 58.3631 42.6225 58.5192C42.4053 59.079 42.1791 59.6353 41.9504 60.1905C41.7682 60.633 41.3645 60.8471 40.8316 60.7941C40.4206 60.7532 40.078 60.4405 39.9862 60.0176C39.9399 59.8039 39.9726 59.598 40.0583 59.3976C40.7572 57.7682 41.4548 56.1386 42.1525 54.5087C42.5081 53.6784 42.8589 52.8458 43.2194 52.0175C43.4983 51.3766 43.9993 51.0514 44.551 51.0209ZM44.6675 56.5223C45.0338 56.5223 45.4002 56.5192 45.7662 56.5244C45.8696 56.5258 45.8864 56.5032 45.8514 56.4048C45.5293 55.4957 45.2108 54.5854 44.8939 53.6743C44.8551 53.5625 44.7905 53.4844 44.6692 53.4861C44.5548 53.4875 44.492 53.564 44.4549 53.6691C44.1334 54.5834 43.8111 55.4977 43.4859 56.4108C43.4531 56.5024 43.4717 56.5255 43.5684 56.5241C43.9348 56.5195 44.3011 56.5223 44.6675 56.5223Z" fill="#00953B"/>
<path d="M65.941 55.9457C65.941 54.6741 65.9401 53.4027 65.9415 52.131C65.9421 51.599 66.2607 51.1933 66.7385 51.109C67.3586 50.9995 67.8984 51.4478 67.8996 52.078C67.9016 53.0462 67.903 54.0143 67.8967 54.9822C67.8958 55.1125 67.9306 55.1479 68.0557 55.1371C68.1898 55.1256 68.3259 55.1293 68.4605 55.1357C68.6517 55.1447 68.7887 55.0647 68.9036 54.9153C69.7788 53.778 70.6569 52.643 71.5353 51.5084C71.7795 51.1933 72.18 51.0794 72.5449 51.2153C73.098 51.4215 73.2906 52.1003 72.9182 52.5741C72.4597 53.1571 71.9883 53.7299 71.5223 54.3071C71.1985 54.7082 70.8741 55.1085 70.5512 55.5102C70.3389 55.7743 70.3355 55.8183 70.5399 56.085C71.3456 57.1357 72.1551 58.1838 72.9605 59.2348C73.2359 59.5942 73.2124 60.0895 72.9127 60.4153C72.509 60.8546 71.8206 60.8086 71.4693 60.3182C70.8808 59.4963 70.2926 58.6741 69.7047 57.8519C69.4582 57.5073 69.2109 57.1635 68.9674 56.8169C68.8614 56.6663 68.7241 56.5924 68.5385 56.5982C68.3699 56.6034 68.2005 56.6066 68.0322 56.5968C67.9233 56.5904 67.8967 56.6234 67.8973 56.7314C67.9019 57.6706 67.9002 58.6098 67.8996 59.549C67.8996 59.6788 67.908 59.8106 67.89 59.9383C67.8141 60.4853 67.3786 60.832 66.8254 60.7952C66.3264 60.7619 65.9424 60.3232 65.9415 59.7746C65.9392 58.4983 65.941 57.222 65.941 55.9457Z" fill="#00953B"/>
<path d="M56.7931 56.0022C56.7931 57.3028 56.7931 58.6032 56.7931 59.9038C56.7931 59.9664 56.7905 60.0289 56.7887 60.0915C56.7835 60.2826 56.688 60.415 56.5078 60.4683C55.1209 60.8786 53.718 61.106 52.2764 60.7918C51.7035 60.6669 51.1776 60.4384 50.7539 60.0153C50.347 59.6087 50.139 59.1109 50.1037 58.5444C50.0603 57.847 50.1083 57.1485 50.0968 56.4505C50.0936 56.2533 50.0803 56.0555 50.0933 55.8591C50.1448 55.0772 50.5477 54.5032 51.19 54.0891C51.9045 53.6286 52.6905 53.4334 53.5414 53.4991C53.9407 53.5298 54.3375 53.5741 54.7291 53.657C54.8423 53.681 54.866 53.6497 54.8652 53.54C54.86 53.0247 54.8594 52.5092 54.864 51.9937C54.8684 51.5162 55.1606 51.1521 55.6161 51.0424C56.0349 50.9416 56.4673 51.14 56.6796 51.5278C56.7702 51.6934 56.7942 51.8712 56.7942 52.0569C56.7928 53.372 56.7931 54.6871 56.7931 56.0022ZM54.873 57.2698C54.873 56.6393 54.8695 56.0086 54.8756 55.3781C54.877 55.2246 54.8185 55.1302 54.6772 55.0836C53.9833 54.8545 53.2952 54.8507 52.6222 55.1571C52.2373 55.3323 52.0351 55.626 52.0331 56.0645C52.0296 56.8293 52.0235 57.5942 52.0371 58.359C52.0386 58.4451 52.0409 58.5331 52.0589 58.6168C52.146 59.0231 52.4452 59.2192 52.806 59.3446C53.4267 59.5601 54.0554 59.5299 54.6862 59.3932C54.8209 59.364 54.8756 59.2852 54.875 59.1474C54.8715 58.5215 54.873 57.8957 54.873 57.2698Z" fill="#00953B"/>
<path d="M80.5668 57.4201C80.5668 58.0463 80.5891 58.6736 80.5607 59.2985C80.53 59.971 80.0921 60.4749 79.4353 60.6565C78.9166 60.7999 78.3828 60.8387 77.8482 60.8639C77.2603 60.8917 76.6715 60.9079 76.0874 60.8233C75.538 60.7437 75.017 60.5766 74.5774 60.2201C74.0428 59.7868 73.8394 59.2067 73.891 58.5409C73.9666 57.5618 74.5667 56.9843 75.4306 56.6341C75.9197 56.436 76.439 56.3961 76.9606 56.3718C77.4807 56.3477 77.9892 56.4303 78.4952 56.531C78.6133 56.5545 78.6189 56.5168 78.618 56.4219C78.6154 56.2 78.5977 55.9805 78.5682 55.7604C78.5326 55.4942 78.3811 55.3248 78.1503 55.2127C77.7587 55.0228 77.3385 54.9805 76.9116 54.9825C76.5511 54.9842 76.2073 55.0697 75.8705 55.1968C75.5322 55.3245 75.1742 55.2072 74.975 54.9191C74.7839 54.6428 74.8033 54.2689 75.0225 54.0065C75.0981 53.9162 75.1893 53.8435 75.2994 53.8038C76.6689 53.3103 78.0252 53.2886 79.3475 53.9553C79.8778 54.2229 80.2934 54.6141 80.4848 55.2023C80.5873 55.5168 80.5586 55.8415 80.5679 56.1621C80.5798 56.5808 80.5708 57.0002 80.5708 57.4193C80.5697 57.4193 80.5679 57.4201 80.5668 57.4201ZM77.5763 59.4801C77.7442 59.4784 78.0338 59.4708 78.3194 59.4231C78.554 59.3837 78.6113 59.3133 78.6145 59.0738C78.6189 58.7706 78.6125 58.4671 78.6168 58.1636C78.6189 58.0144 78.5563 57.9351 78.4098 57.8989C78.0625 57.8126 77.7101 57.7613 77.3544 57.7358C76.9299 57.7054 76.5273 57.7975 76.165 58.0199C75.8907 58.1882 75.7732 58.4511 75.8091 58.772C75.8415 59.0631 76.0321 59.2308 76.2849 59.3394C76.3593 59.3712 76.4393 59.3947 76.5189 59.4097C76.8279 59.4688 77.1413 59.4819 77.5763 59.4801Z" fill="#00953B"/>
<path d="M64.6047 57.4893C64.6047 58.0193 64.585 58.5499 64.609 59.0787C64.649 59.9583 64.0588 60.563 63.2656 60.7098C62.355 60.8783 61.4378 60.907 60.5157 60.8627C59.9993 60.8378 59.5093 60.7162 59.041 60.4955C57.6518 59.8413 57.5765 58.0022 58.6541 57.1071C59.1983 56.655 59.8383 56.4693 60.5279 56.4001C61.2018 56.3324 61.8656 56.3871 62.5242 56.529C62.6359 56.553 62.6545 56.5221 62.6516 56.4207C62.6455 56.209 62.6357 55.9984 62.6096 55.7876C62.5772 55.5252 62.4428 55.3413 62.2111 55.2249C61.8129 55.0251 61.3834 54.9805 60.9467 54.9825C60.5864 54.9842 60.2429 55.0711 59.9058 55.1968C59.5641 55.3242 59.2078 55.2069 59.0106 54.9199C58.8177 54.6393 58.8363 54.2701 59.0561 54.0085C59.1485 53.8985 59.2672 53.8275 59.3996 53.7769C60.1282 53.498 60.8844 53.4166 61.6576 53.4702C62.32 53.5162 62.9458 53.6882 63.5201 54.0311C64.2398 54.4606 64.6345 55.0682 64.6076 55.9284C64.5914 56.4482 64.6047 56.9689 64.6047 57.4893ZM61.5369 59.4824C61.7943 59.4732 62.1022 59.4691 62.4066 59.4135C62.556 59.3863 62.6296 59.3035 62.6438 59.1517C62.6765 58.801 62.6577 58.4508 62.6484 58.1004C62.6455 57.9892 62.5728 57.9319 62.4686 57.9046C62.1277 57.8157 61.7799 57.7694 61.4303 57.7373C61.0318 57.7005 60.6544 57.7862 60.2988 57.9608C59.962 58.1265 59.7966 58.4398 59.8479 58.7851C59.8942 59.0975 60.1505 59.3318 60.5386 59.4077C60.8514 59.4688 61.1688 59.4819 61.5369 59.4824Z" fill="#00953B"/>
<path d="M95.9316 57.1992C95.9316 58.0709 95.9319 58.9429 95.9316 59.8146C95.9314 60.3649 95.5106 60.7909 94.9681 60.7912C94.4173 60.7918 93.9878 60.3637 93.9878 59.8126C93.9875 58.0689 93.9875 56.3251 93.9878 54.5814C93.9878 54.032 94.4228 53.599 94.9693 53.6025C95.5088 53.6057 95.9316 54.0358 95.9319 54.5834C95.9325 55.4551 95.9316 56.3274 95.9316 57.1992Z" fill="#00953B"/>
<path d="M93.9247 52.12C93.9276 51.546 94.3944 51.0841 94.9681 51.0878C95.5424 51.0916 96.0014 51.5564 96 52.1325C95.9986 52.7099 95.5395 53.1684 94.962 53.169C94.3779 53.1695 93.9218 52.7085 93.9247 52.12Z" fill="#00953B"/>
<path d="M27.8149 57.03C27.8149 57.5056 27.8154 57.9814 27.8154 58.4569C27.8154 58.9336 27.8178 59.4106 27.8149 59.8876C27.8111 60.4642 27.3964 60.9765 26.8508 61.0828C26.2828 61.1934 25.7363 60.9647 25.4433 60.375C25.3596 60.2067 25.3448 60.0092 25.3454 59.8143C25.3489 58.4317 25.3471 57.0491 25.3471 55.6666C25.3471 54.6547 24.7407 53.7934 23.7832 53.4458C22.4224 52.9518 20.8935 53.8852 20.7137 55.3182C20.6974 55.4479 20.6899 55.5768 20.6899 55.7068C20.6899 57.0894 20.6902 58.472 20.6899 59.8546C20.6899 60.5114 20.219 61.0376 19.5697 61.108C18.9575 61.1743 18.3803 60.7509 18.2424 60.1277C18.2187 60.0208 18.2152 59.9079 18.2152 59.7975C18.2135 58.4149 18.2135 57.0323 18.2143 55.6498C18.2161 53.3204 19.8732 51.3369 22.1669 50.917C24.7873 50.4374 27.3437 52.2535 27.7584 54.8892C27.7627 54.9173 27.7714 54.9448 27.7801 54.9816C27.8386 54.9648 27.8661 54.9185 27.9006 54.8843C29.119 53.6688 30.3353 52.451 31.5552 51.237C32.1512 50.6442 33.1269 50.7499 33.5691 51.4499C33.8639 51.9164 33.8164 52.5356 33.4515 52.9691C33.4049 53.0242 33.3533 53.0754 33.3024 53.1264C32.5523 53.8759 31.8013 54.6251 31.0512 55.3749C30.7023 55.7236 30.7014 56.2359 31.0515 56.5864C31.8146 57.3506 32.581 58.1114 33.3429 58.8766C33.8121 59.3478 33.8955 60.0049 33.5587 60.5224C33.1095 61.2128 32.1518 61.3168 31.5673 60.7353C30.3576 59.5317 29.1497 58.326 27.9414 57.1207C27.9075 57.0868 27.8794 57.0474 27.8485 57.0106C27.8372 57.0173 27.8262 57.0237 27.8149 57.03Z" fill="#FEFEFE"/>
<path d="M24.253 56.498C24.2524 57.1893 23.7079 57.7329 23.0166 57.7323C22.3332 57.7315 21.7702 57.1725 21.7716 56.496C21.7731 55.8114 22.3418 55.2458 23.025 55.2498C23.7071 55.2539 24.2538 55.8093 24.253 56.498Z" fill="#DBE000"/>
</g>
<rect x="1" y="1" width="110" height="110" rx="9" stroke="black" stroke-opacity="0.1" stroke-width="2"/>
<defs>
<clipPath id="clip0_647_823">
<rect x="2" y="2" width="108" height="108" rx="8" fill="white"/>
</clipPath>
</defs>
</svg>
