<svg width="112" height="112" viewBox="0 0 112 112" fill="none" xmlns="http://www.w3.org/2000/svg">
<g clip-path="url(#clip0_647_829)">
<rect x="1.99988" y="2" width="108" height="108" rx="8" fill="white"/>
<g clip-path="url(#clip1_647_829)">
<path fill-rule="evenodd" clip-rule="evenodd" d="M41.1292 56.0407C42.9861 56.2095 43.5421 55.9248 45.0107 55.3082C47.1881 54.3241 48.4871 51.8176 48.2007 50.7484C48.0335 50.0155 47.4025 49.6892 46.7091 49.5967C45.6062 49.5096 44.4952 49.4432 43.6104 49.4838L41.1292 56.0407ZM16 58.0572H20.5275L26.5032 51.0547L28.0128 58.0572H42.2037C44.4653 58.1797 46.9447 57.9602 48.535 57.3435C50.8596 56.5432 52.5207 55.1264 53.6222 52.9725C54.6371 51.0389 54.555 49.6686 53.7248 48.4471C52.9593 47.3797 50.9861 47.0615 49.0286 47.0615C46.8887 46.9981 42.0945 47.0363 36.8327 47.0363L37.1998 49.3464L34.3045 57.284L32.2021 47.0949L28.3716 47.0784C26.896 47.0784 26.2459 47.2491 25.1683 48.3046" fill="#231F20"/>
<path fill-rule="evenodd" clip-rule="evenodd" d="M52.7656 58.0827H59.3701L63.4696 47L56.9238 47.0612C55.5956 50.5572 54.1649 54.4148 52.7656 58.0827Z" fill="#231F20"/>
<path fill-rule="evenodd" clip-rule="evenodd" d="M60.8989 58.0827L64.753 47.9862L64.9984 47.0612H78.1996C79.8353 47.0149 82.0774 48.834 79.9214 51.1877L77.599 53.65L79.3109 56.9127L80.0453 58.0827H72.9498L70.9784 53.3962L74.7295 49.2646L70.8707 49.4011L67.5055 58.0827H60.8989Z" fill="#231F20"/>
<path fill-rule="evenodd" clip-rule="evenodd" d="M24.8905 52.9464L35.4728 52.9566L20.8887 57.6261L24.8905 52.9464Z" fill="#FFDE00"/>
<path fill-rule="evenodd" clip-rule="evenodd" d="M76.9827 58.0827H81.8092L87.9878 50.8182L89.4543 58.0827H96L93.6754 47.1191L89.2109 47.1247C88.1006 47.1247 87.4386 47.3084 86.3393 48.3558C86.4001 48.4171 76.9827 58.0827 76.9827 58.0827Z" fill="#231F20"/>
<path d="M34.7001 65.2941V61.0746H37.7026V61.4477V61.8237H35.5813V62.7825H37.4299V63.1441V63.5087H35.5813V65.2941H35.1421H34.7001Z" fill="#231F20"/>
<path d="M44.1683 65.2941V61.0746H44.6075H45.0496V65.2941H44.6104H44.1683Z" fill="#231F20"/>
<path d="M61.7062 65.2941L63.2899 61.0746H63.7984H64.3069L65.7952 65.2941H65.3296H64.8639L64.5811 64.4358H62.9871L62.6451 65.2941C62.3432 65.2941 62.008 65.2941 61.7062 65.2941ZM63.7621 62.1372L63.22 63.6749C63.5923 63.6749 63.9299 63.6749 64.3022 63.6749L63.7621 62.1372Z" fill="#231F20"/>
<path d="M86.1533 63.8158C86.0972 64.3038 85.897 64.6913 85.5527 64.9784C85.2104 65.2654 84.774 65.4089 84.2435 65.4089C83.6229 65.4089 83.1294 65.2109 82.7631 64.8147C82.3987 64.4186 82.2166 63.8828 82.2166 63.2073C82.2166 62.5184 82.3987 61.9721 82.7631 61.5683C83.1294 61.1626 83.6229 60.9597 84.2435 60.9597C84.768 60.9597 85.2024 61.0956 85.5467 61.3673C85.891 61.6372 86.0932 62.0036 86.1533 62.4667H85.2284C85.1984 62.239 85.0953 62.0582 84.9191 61.9242C84.7449 61.7903 84.5227 61.7233 84.2525 61.7233C83.9102 61.7233 83.6419 61.8544 83.4477 62.1165C83.2535 62.3768 83.1564 62.7385 83.1564 63.2016C83.1564 63.6532 83.2525 64.0072 83.4447 64.2636C83.6389 64.5181 83.9082 64.6454 84.2525 64.6454C84.5227 64.6454 84.7449 64.5708 84.9191 64.4215C85.0953 64.2722 85.1984 64.0703 85.2284 63.8158H86.1533Z" fill="#231F20"/>
<path d="M92.6006 65.2941V61.0746H95.7064V61.4477V61.8237H93.4818V62.7193H95.5457V63.081V63.4455H93.4818V64.5449H95.804V64.9181V65.2941H92.6006Z" fill="#231F20"/>
<path d="M52.7064 65.3643L52.6643 65.2941H52.2391H51.8109V61.0746H52.2896H52.7684L54.5227 63.9357C54.5227 62.9493 54.5227 62.061 54.5227 61.0746H54.9479H55.3761V65.2941H54.9211H54.4662L52.7064 62.5056V65.3643Z" fill="#231F20"/>
<path d="M73.0635 65.3643L73.0214 65.2941H72.5962H72.168V61.0746H72.6467H73.1254L74.8798 63.9357C74.8798 62.9493 74.8798 62.061 74.8798 61.0746H75.305H75.7331V65.2941H75.2782H74.8233L73.0635 62.5056V65.3643Z" fill="#231F20"/>
</g>
</g>
<rect x="1" y="1" width="110" height="110" rx="9" stroke="black" stroke-opacity="0.1" stroke-width="2"/>
<defs>
<clipPath id="clip0_647_829">
<rect x="2" y="2" width="108" height="108" rx="8" fill="white"/>
</clipPath>
<clipPath id="clip1_647_829">
<rect width="80" height="18.4089" fill="white" transform="translate(16 47)"/>
</clipPath>
</defs>
</svg>
