<svg width="112" height="112" viewBox="0 0 112 112" fill="none" xmlns="http://www.w3.org/2000/svg">
<g clip-path="url(#clip0_647_826)">
<rect x="1.99988" y="2" width="108" height="108" rx="8" fill="white"/>
<path fill-rule="evenodd" clip-rule="evenodd" d="M25.3755 20.9729H86.6244C88.4376 20.9729 89.9915 22.5268 89.9915 24.3396V87.5308C89.9915 89.474 88.4376 91.0279 86.6244 91.0279H25.3755C23.4332 91.0279 22.0088 89.474 22.0088 87.5308V24.3396C22.0088 22.5268 23.4332 20.9729 25.3755 20.9729Z" fill="#673E89"/>
<path fill-rule="evenodd" clip-rule="evenodd" d="M22.0088 44.6696H25.246C54.7698 44.6696 78.7259 41.5618 78.7259 36.5121C78.7259 30.9441 54.7698 26.4119 25.246 26.4119H22.0088V25.0954C24.2512 25.0244 26.9792 25.2465 29.2602 25.2465C61.1144 25.2465 86.8838 31.721 86.8838 39.2314C86.8838 46.7418 61.1144 52.0509 29.2602 52.0509C26.9792 52.0509 24.2516 52.0518 22.0088 51.9488V44.6696Z" fill="#F7A131"/>
<path fill-rule="evenodd" clip-rule="evenodd" d="M49.4607 69.2723C49.4607 68.7543 49.3312 68.2364 49.3312 67.5893C49.3312 62.5392 53.4749 58.3955 58.3955 58.3955C63.4456 58.3955 67.4598 62.5392 67.4598 67.5893C67.4598 72.6395 63.4456 76.7831 58.3955 76.7831C54.6403 76.7831 51.4031 74.4519 49.9787 71.0852H47.7773C45.4465 71.0852 43.2452 70.9557 41.3028 70.6967V74.7109H49.8492V76.5233H39.49V70.3074C37.0296 69.7894 35.4758 68.883 35.4758 67.977C35.4758 67.071 36.6412 66.0346 39.49 65.5167V60.0781L27.9653 76.5242H25.6349L37.9365 58.784H49.8496V60.7264H41.3028V65.2585C42.5977 65.1294 44.1516 65 45.9641 65C44.1512 65 42.5973 65.2585 41.3028 65.5179V68.8842C43.1157 69.1436 45.4465 69.4022 48.0363 69.4022H49.4607V69.2723ZM82.3516 58.784V76.5242H80.4093L70.3086 62.1503V76.5242H68.4957V58.784H70.3086L80.4093 73.2865V58.784H82.3516Z" fill="white"/>
<path fill-rule="evenodd" clip-rule="evenodd" d="M39.4899 68.4958C38.195 68.2364 37.4181 67.7192 37.4181 67.3299C37.4181 66.9415 38.195 66.4235 39.4899 66.0355V68.4958ZM52.0505 70.9561C56.7121 70.4381 60.0793 69.4022 60.0793 67.9778C60.0793 66.812 58.5254 65.7761 53.4749 65.2581C56.4536 65.6474 58.5254 66.5534 58.5254 67.3299C58.5254 68.2364 55.5467 69.0137 51.403 69.2723C51.2736 68.7543 51.2735 68.2364 51.2735 67.5893C51.2735 63.5751 54.5108 60.3375 58.3959 60.3375C62.4101 60.3375 65.6478 63.5751 65.6478 67.5893C65.6478 71.6035 62.4101 74.9699 58.3959 74.9699C55.6762 74.9703 53.2159 73.2865 52.0505 70.9561Z" fill="#673E89"/>
<path fill-rule="evenodd" clip-rule="evenodd" d="M31.3321 85.2C31.2026 85.3295 30.5551 85.8479 29.9077 85.8479C28.7423 85.8479 27.9649 84.812 27.9649 83.2581C27.9649 81.9628 28.6128 80.6683 29.9077 80.6683C30.5551 80.6683 31.0731 81.1862 31.2026 81.4448V81.3157C31.3321 81.1862 31.3321 80.9264 31.4616 80.7978C30.9436 80.5384 30.4256 80.4085 29.9077 80.4085C28.4829 80.4085 27.3179 81.4444 27.3179 83.2577C27.3179 85.0701 28.2243 86.2359 29.7782 86.2359C30.2962 86.2359 30.8141 86.1064 31.3321 85.718V85.2ZM33.2744 80.7978H34.3104C34.8283 80.9268 35.0873 81.3157 35.0873 81.8337C35.0873 82.4807 34.6988 82.8688 34.1804 82.9987C33.792 83.1282 33.4035 82.9987 33.274 82.9987L33.2744 80.7978ZM32.7565 86.1064H33.2744V83.3867H33.5334L34.0514 84.1641L34.9578 85.3299L35.3467 86.1064H36.1236L35.9941 85.8479L35.7352 85.4586L34.3108 83.2577C34.9582 83.1282 35.6057 82.7397 35.6057 81.7038C35.6057 80.9264 35.2172 80.5379 34.1813 80.5379H32.7569L32.7565 86.1064ZM37.9361 80.9268H39.7489V80.5384H37.2886V86.1064H39.7489V85.5885H39.1015C38.713 85.718 38.3245 85.718 37.9361 85.718V83.2577H38.972C39.1015 83.2577 39.3605 83.2577 39.6194 83.3867C39.6194 83.2577 39.49 83.1282 39.49 83.1282C39.49 82.9987 39.6194 82.9987 39.6194 82.8688H37.9361V80.9268ZM41.8208 80.7978H42.7272C44.1516 80.7978 44.7991 81.4448 44.7991 83.1282C44.7991 84.1641 44.5401 85.0705 43.7631 85.4586C43.2452 85.8479 42.4682 85.718 41.8208 85.718V80.7978ZM41.1733 86.1064H42.5977C43.2452 86.1064 44.0221 85.9769 44.6696 85.4586C45.1875 84.9406 45.4465 84.1641 45.4465 82.9983C45.4465 82.2217 45.317 81.4444 44.7991 80.9264C44.1516 80.4085 43.5042 80.5379 42.7272 80.5379H41.1733V86.1064ZM46.8709 86.1064H47.5188V80.5384H46.8709V86.1064ZM50.8851 80.9268H52.3095V80.5384H48.6838C48.8132 80.5384 48.8132 80.6679 48.8132 80.7978C48.8132 80.7978 48.8132 80.9268 48.6838 80.9268H50.2376V86.1064H50.8851V80.9268ZM55.5467 84.9406C55.5467 85.2 55.5467 85.4586 55.4172 85.718C55.6762 85.9765 56.1942 86.2359 56.5822 86.2359C57.4895 86.2359 58.266 85.4586 58.266 84.2936C58.266 82.6098 56.0647 83.1278 56.0647 81.7038C56.0647 81.0559 56.4536 80.6679 56.9715 80.6679C57.36 80.6679 57.7481 81.0563 57.878 81.4444C58.0075 81.1858 58.0075 80.9264 58.1374 80.7973C57.878 80.5379 57.4895 80.408 57.1006 80.408C56.3241 80.408 55.5471 80.926 55.5471 81.9619C55.5471 83.7752 57.7485 83.1278 57.7485 84.6816C57.7485 85.3295 57.36 85.8475 56.842 85.8475C56.1946 85.8475 55.9356 85.4582 55.6766 84.9402L55.5467 84.9406ZM60.2084 80.9268H62.0221V80.5384H59.5618V86.1064H62.1507C62.0217 85.9769 62.0217 85.8479 62.0217 85.8479C62.0217 85.7184 62.0217 85.7184 62.1507 85.5885H61.5037C60.9857 85.718 60.5973 85.718 60.2084 85.718V83.2577H61.2443C61.5037 83.2577 61.6336 83.2577 61.8922 83.3867V82.8688H60.2084V80.9268ZM64.0935 80.7978H65.1294C65.6474 80.9268 65.7765 81.3157 65.7765 81.8337C65.7765 82.4807 65.5179 82.8688 64.9999 82.9987C64.6115 83.1282 64.2226 82.9987 64.0935 82.9987V80.7978ZM63.4456 86.1064H64.0935V83.3867H64.3521L65.6474 85.3299C65.7765 85.5885 65.9059 85.8479 66.1645 86.1064H66.9423L66.8128 85.8479L66.4243 85.4586L64.9999 83.2577C65.7765 83.1282 66.4243 82.7397 66.4243 81.7038C66.4243 80.9264 66.0359 80.5379 64.8704 80.5379H63.446L63.4456 86.1064ZM70.0496 84.1641C69.9201 84.5526 69.7902 84.812 69.6612 85.2H69.5317L68.7543 82.7397L68.2364 81.3153C68.1073 81.0559 68.1073 80.7973 67.9778 80.5379H67.3299C67.5893 81.1858 68.6252 84.1637 69.4018 86.106H69.6607C69.9193 85.1996 71.4732 81.0559 71.6031 80.5379H71.215L71.0855 80.6674L70.6971 81.9619L70.0496 84.1641ZM72.7685 86.1064H73.4164V80.5384H72.7685V86.1064ZM78.7259 85.2C78.5964 85.3295 77.9485 85.8479 77.3015 85.8479C76.1357 85.8479 75.3583 84.812 75.3583 83.2581C75.3583 81.9628 76.0062 80.6683 77.3015 80.6683C77.9485 80.6683 78.4665 81.1862 78.596 81.4448V81.3157C78.7255 81.1862 78.7255 80.9264 78.8545 80.7978C78.3374 80.5384 77.8195 80.4085 77.3015 80.4085C75.8763 80.4085 74.7117 81.4444 74.7117 83.2577C74.7117 85.0701 75.6181 86.2359 77.172 86.2359C77.69 86.2359 78.2079 86.1064 78.7259 85.718V85.2ZM80.6678 80.9268H82.4807V80.5384H80.0204V86.1064H82.6102C82.4807 85.9769 82.4807 85.8479 82.4807 85.8479C82.4807 85.7184 82.4807 85.7184 82.6102 85.5885H81.9623C81.4443 85.718 81.0559 85.718 80.6678 85.718V83.2577H81.7037C81.9623 83.2577 82.0922 83.2577 82.3516 83.3867V82.8688H80.6678V80.9268Z" fill="white"/>
</g>
<rect x="1" y="1" width="110" height="110" rx="9" stroke="black" stroke-opacity="0.1" stroke-width="2"/>
<defs>
<clipPath id="clip0_647_826">
<rect x="2" y="2" width="108" height="108" rx="8" fill="white"/>
</clipPath>
</defs>
</svg>
