<svg width="112" height="112" viewBox="0 0 112 112" fill="none" xmlns="http://www.w3.org/2000/svg">
<g clip-path="url(#clip0_647_1134)">
<rect x="1.99988" y="2" width="108" height="108" rx="8" fill="white"/>
<path d="M58.7166 41.6229C57.2761 40.7083 55.6626 40.1004 53.9766 39.8372C52.3557 39.5886 50.7027 39.6448 49.1024 40.0029C47.2429 40.4346 45.5043 41.2792 44.0156 42.4741C42.5269 43.6691 41.3262 45.1837 40.5024 46.9057C39.4109 49.1657 39.0224 51.9057 39.3824 54.82C39.6703 57.0258 40.5511 59.1123 41.9309 60.8572C44.7509 64.46 49.4881 66.3543 53.9509 65.6143C55.6877 65.3314 57.3487 64.6982 58.8331 63.7532C60.3174 62.8082 61.594 61.5711 62.5852 60.1172C64.4109 57.3743 65.0224 53.9229 64.5452 50.5686C64.2867 48.7421 63.6309 46.9944 62.6238 45.4488C61.6168 43.9032 60.2831 42.5972 58.7166 41.6229Z" fill="#EB3223"/>
<path d="M61.9365 16.4486C54.1126 15.2731 46.1158 16.4441 38.9575 19.8136C31.7992 23.1832 25.8009 28.5998 21.7212 35.3786C17.6415 42.1573 15.6637 49.9937 16.0379 57.8965C16.4122 65.7994 19.1216 73.4138 23.8235 79.7767C28.5255 86.1397 35.0088 90.9653 42.4535 93.6434C49.8981 96.3214 57.9698 96.7316 65.6476 94.822C73.3254 92.9125 80.2645 88.7689 85.5873 82.9154C90.91 77.0619 94.3774 69.7614 95.5508 61.9372C97.1239 51.4477 94.4665 40.7629 88.1628 32.2325C81.8592 23.7021 72.4255 18.0246 61.9365 16.4486ZM74.2994 69.1886C73.5397 69.928 72.533 70.3596 71.4736 70.4C70.4789 70.4115 69.5105 70.0806 68.7308 69.4629C68.2871 69.1134 67.9245 68.6718 67.6679 68.1686C67.6313 68.06 67.5675 67.9625 67.4826 67.8855C67.3976 67.8085 67.2943 67.7545 67.1826 67.7288C67.0709 67.703 66.9544 67.7062 66.8443 67.7382C66.7342 67.7702 66.6342 67.8298 66.5536 67.9115C66.2536 68.1972 65.9536 68.4372 65.6336 68.7086C64.6042 69.6051 63.4816 70.3886 62.2851 71.0458C60.1754 72.1757 57.8931 72.9481 55.5308 73.3315C53.8796 73.5943 52.2025 73.6557 50.5365 73.5143C47.4122 73.2575 44.3854 72.3026 41.6794 70.72C38.9939 69.1272 36.6903 66.965 34.9308 64.3858C33.3026 61.9768 32.1961 59.254 31.6822 56.3921C31.1684 53.5302 31.2586 50.5926 31.9471 47.7676C32.6356 44.9427 33.9071 42.2929 35.6801 39.9884C37.453 37.6839 39.6882 35.7755 42.2422 34.3858C44.3633 33.2425 46.664 32.4695 49.0451 32.1C55.0651 31.1372 60.8851 33 65.2108 36.3858C66.9875 37.7686 68.5135 39.4463 69.7222 41.3458C70.2108 42.0343 71.3365 43.5886 72.5994 47.8343C73.5897 51.3059 74.3269 54.8447 74.8051 58.4229C75.0451 60.1372 75.1908 61.28 75.3765 63.5658C75.4079 63.9686 75.5279 65.9915 75.5279 66.1829C75.5322 67.3079 75.0904 68.3887 74.2994 69.1886ZM86.7479 67.68C86.0093 68.392 85.0253 68.793 83.9994 68.8C82.9385 68.8 81.9211 68.3786 81.1709 67.6285C80.4208 66.8783 79.9994 65.8609 79.9994 64.8L79.9565 63.9058C79.8978 61.325 79.6946 58.7495 79.3479 56.1915C78.9794 53.1686 78.5279 50.2715 77.9708 47.5343C76.6479 40.9795 74.6703 34.5741 72.0679 28.4143C71.6336 27.4029 71.2308 26.4143 70.8479 25.6372C70.593 25.187 70.4117 24.6989 70.3108 24.1915C70.2898 23.959 70.3174 23.7248 70.3918 23.5036C70.4661 23.2824 70.5857 23.0791 70.7429 22.9066C70.9001 22.7341 71.0915 22.5962 71.3048 22.5016C71.5182 22.407 71.7488 22.3578 71.9822 22.3572C72.5432 22.398 73.097 22.5084 73.6308 22.6858C74.3945 22.9117 75.1254 23.2364 75.8051 23.6515C76.9521 24.3209 77.9506 25.2173 78.7394 26.2858C79.2086 26.9384 79.617 27.6328 79.9594 28.36C80.2908 29.1086 80.6136 29.8486 80.9308 30.6058C81.6822 32.3972 82.3594 34.2372 83.0394 36.0658C83.4679 37.2343 83.8536 38.4086 84.2394 39.6C84.4451 40.2286 84.6736 40.9029 84.8508 41.5372C85.0936 42.3943 85.3879 43.34 85.6422 44.2743C85.7679 44.7372 85.9279 45.3 86.0251 45.8143C86.2394 46.8458 86.3822 47.8715 86.5536 48.8686C86.9365 51.1115 87.1965 53.3915 87.3965 55.3658C87.7451 58.7943 87.8794 61.5658 87.9365 63.6772C87.9365 63.9086 87.9594 64.5743 87.9594 64.8343C87.9555 65.3652 87.8464 65.89 87.6385 66.3784C87.4306 66.8669 87.1279 67.3093 86.7479 67.68Z" fill="#EB3223"/>
</g>
<rect x="1" y="1" width="110" height="110" rx="9" stroke="black" stroke-opacity="0.1" stroke-width="2"/>
<defs>
<clipPath id="clip0_647_1134">
<rect x="2" y="2" width="108" height="108" rx="8" fill="white"/>
</clipPath>
</defs>
</svg>
