<svg width="112" height="112" viewBox="0 0 112 112" fill="none" xmlns="http://www.w3.org/2000/svg">
<g clip-path="url(#clip0_647_1165)">
<rect x="1.99988" y="2" width="108" height="108" rx="8" fill="white"/>
<path d="M21.1422 59.3018C21.1422 58.8659 21.1469 57.7007 21.1362 57.5572C21.1456 55.8233 19.8849 54.6003 19.0885 54.6956C18.5374 54.7434 18.0756 54.9682 17.8276 55.6146C17.5978 56.2171 17.8032 57.0184 18.5674 57.2064C19.3845 57.4084 19.8617 57.5764 20.207 57.8134C20.6301 58.1036 20.9755 58.658 20.9846 59.3025" fill="#0060AF"/>
<path d="M21.4684 61.9374C20.0276 61.9374 18.5469 61.5825 17.0682 60.8807L17.0319 60.8629L17.0145 60.8259C16.3509 59.4251 16 57.893 16 56.3941C16 54.8974 16.3365 53.4309 17.0006 52.032L17.0189 51.9949L17.0558 51.9763C18.4237 51.3283 19.8953 51.0001 21.4309 51.0001C22.8614 51.0001 24.3892 51.3655 25.8483 52.0587L25.8858 52.0753L25.903 52.1132C26.5793 53.5398 26.936 55.0714 26.936 56.5456C26.936 58.0139 26.5935 59.4817 25.9164 60.9074L25.8986 60.9449L25.8609 60.9622C24.5139 61.5999 22.9948 61.9374 21.4684 61.9374ZM17.205 60.6886C18.6416 61.3643 20.0742 61.7056 21.4684 61.7056C22.9466 61.7056 24.4168 61.3825 25.7254 60.77C26.3755 59.3884 26.705 57.9666 26.705 56.5456C26.705 55.1188 26.3611 53.6346 25.7105 52.25C24.2945 51.5844 22.8157 51.2314 21.4309 51.2314C19.9442 51.2314 18.5192 51.5467 17.1926 52.1688C16.5558 53.5247 16.2317 54.9454 16.2317 56.3941C16.2317 57.8455 16.5685 59.3303 17.205 60.6886Z" fill="#0060AF"/>
<path d="M20.8007 59.3025C20.8034 58.7437 20.4915 58.2496 20.0839 57.9841C19.7223 57.7494 19.2369 57.5952 18.4538 57.3966C18.2117 57.3347 17.9585 57.1972 17.8801 57.0218C17.6728 57.2308 17.6351 57.7005 17.6716 57.975C17.714 58.2927 18.0852 58.8163 18.6442 58.8368C18.9856 58.8505 19.4172 58.7634 19.6241 58.7194C19.9812 58.6423 20.5461 58.8659 20.636 59.3018" fill="#0060AF"/>
<path d="M21.4309 51.9934C20.4831 51.9934 19.6645 52.6185 19.6674 53.7C19.6704 54.6095 20.4018 55.0964 20.6628 55.4442C21.0572 55.9683 21.2707 56.5886 21.2929 57.5377C21.3101 58.2931 21.3092 59.039 21.3131 59.3034H21.5223C21.5187 59.0268 21.5092 58.235 21.52 57.5144C21.5342 56.5649 21.7554 55.9683 22.15 55.4442C22.4133 55.0964 23.1441 54.6095 23.1457 53.7C23.1492 52.6185 22.331 51.9934 21.3841 51.9934" fill="#0060AF"/>
<path d="M21.6715 59.3018C21.6715 58.8659 21.6666 57.7007 21.6771 57.5572C21.6679 55.8233 22.9277 54.6003 23.7248 54.6956C24.2759 54.7434 24.7372 54.9682 24.9859 55.6146C25.2156 56.2171 25.0089 57.0184 24.2456 57.2064C23.4281 57.4084 22.9516 57.5764 22.6054 57.8134C22.1828 58.1036 21.8615 58.658 21.8516 59.3025" fill="#0060AF"/>
<path d="M22.0128 59.3025C22.0098 58.7437 22.3216 58.2496 22.728 57.9841C23.0911 57.7494 23.5771 57.5952 24.3595 57.3966C24.6021 57.3347 24.855 57.1972 24.932 57.0218C25.1403 57.2308 25.1779 57.7005 25.1414 57.975C25.0981 58.2927 24.7279 58.8163 24.1699 58.8368C23.8286 58.8505 23.3948 58.7634 23.1887 58.7194C22.833 58.6423 22.2666 58.8659 22.1762 59.3018" fill="#0060AF"/>
<path d="M22.3051 61.1064L22.1838 60.2215L22.4766 60.1771C22.5479 60.1674 22.6346 60.1798 22.6694 60.2244C22.7077 60.2711 22.7194 60.3096 22.7268 60.3708C22.7379 60.4464 22.716 60.5339 22.6308 60.5774V60.5801C22.726 60.5801 22.7834 60.6484 22.8001 60.7638C22.8026 60.7881 22.8098 60.847 22.8026 60.8961C22.7832 61.013 22.7135 61.0505 22.5959 61.067L22.3051 61.1064ZM22.4935 60.948C22.5283 60.943 22.5635 60.9412 22.591 60.9236C22.6331 60.8961 22.6292 60.8373 22.6234 60.7936C22.6087 60.6975 22.5837 60.6611 22.4818 60.6761L22.4178 60.686L22.4583 60.9529L22.4935 60.948ZM22.4322 60.5391C22.471 60.5328 22.5235 60.5281 22.5454 60.4914C22.5568 60.4668 22.5715 60.4473 22.5619 60.3927C22.5499 60.3279 22.5285 60.2878 22.4462 60.3033L22.3696 60.3157L22.3998 60.5424" fill="#0060AF"/>
<path d="M23.5732 60.5742C23.5755 60.5907 23.5782 60.609 23.5792 60.6255C23.6028 60.7869 23.5732 60.9205 23.3918 60.9573C23.1236 61.0089 23.0722 60.8423 23.025 60.609L22.9999 60.4828C22.9629 60.2595 22.947 60.0905 23.2085 60.0385C23.3559 60.0116 23.4533 60.0702 23.4939 60.217C23.5002 60.2388 23.5081 60.2605 23.511 60.2825L23.3506 60.3157C23.3321 60.2605 23.3075 60.162 23.2353 60.1703C23.1058 60.1859 23.1486 60.3471 23.1619 60.4145L23.2101 60.6567C23.2246 60.73 23.2534 60.847 23.3655 60.8244C23.4565 60.8062 23.4169 60.6644 23.4088 60.6063" fill="#0060AF"/>
<path d="M23.8307 60.842L23.7752 59.9262L23.9907 59.8604L24.4426 60.6569L24.2729 60.7077L24.1658 60.5053L23.9774 60.5619L24.0018 60.792L23.8307 60.842ZM23.9616 60.414L24.0978 60.3745L23.917 60.004" fill="#0060AF"/>
<path d="M18.507 60.1496C18.5744 59.9337 18.6349 59.7747 18.8922 59.8453C19.0299 59.8838 19.1153 59.9445 19.1113 60.1045C19.1106 60.1401 19.0989 60.1764 19.0912 60.2116L18.931 60.1674C18.952 60.079 18.9653 60.0089 18.8564 59.9754C18.7306 59.9409 18.6999 60.0934 18.6826 60.1593L18.6174 60.3994C18.5967 60.4707 18.5718 60.5885 18.6826 60.6189C18.7741 60.6435 18.8296 60.5537 18.8627 60.4225L18.7506 60.3929L18.7894 60.2539L19.0529 60.3387L18.9278 60.8015L18.8065 60.7685L18.8338 60.6707H18.8304C18.7746 60.7507 18.7064 60.7591 18.6468 60.7476C18.3832 60.6763 18.4107 60.5041 18.4736 60.2739" fill="#0060AF"/>
<path d="M19.488 60.5405L19.4086 60.9169L19.2299 60.8783L19.4203 59.9992L19.7249 60.0681C19.9032 60.1065 19.957 60.1859 19.9318 60.3493C19.9174 60.4431 19.8711 60.5441 19.7582 60.5359L19.757 60.5344C19.8525 60.5678 19.8606 60.6159 19.8439 60.6992C19.8367 60.7346 19.7871 60.9494 19.8213 60.9841L19.8225 61.0104L19.6376 60.9622C19.6299 60.9027 19.6561 60.7956 19.6664 60.7363C19.6769 60.6839 19.6935 60.6099 19.6403 60.5821C19.5986 60.5599 19.5831 60.561 19.536 60.5502L19.488 60.5405ZM19.5184 60.4043L19.6387 60.4367C19.7118 60.4473 19.7524 60.4094 19.7668 60.3212C19.7798 60.2402 19.763 60.2086 19.6974 60.1929L19.5684 60.1668" fill="#0060AF"/>
<path d="M20.6339 60.1957L20.8106 60.2162L20.7345 60.8341C20.6975 61.03 20.6218 61.1157 20.4062 61.0889C20.1869 61.0612 20.1349 60.9613 20.1482 60.7638L20.2248 60.1464L20.4029 60.1668L20.3265 60.7704C20.3184 60.836 20.3032 60.9331 20.4198 60.9448C20.5233 60.9527 20.5467 60.8842 20.5584 60.799" fill="#0060AF"/>
<path d="M21.0054 61.1227L21.0586 60.239L21.3981 60.2537C21.5585 60.2616 21.6005 60.3927 21.5955 60.5177C21.5908 60.5937 21.5671 60.6786 21.5008 60.7247C21.4465 60.7638 21.3767 60.7731 21.3119 60.7699L21.2013 60.7638L21.1792 61.1341L21.0054 61.1227ZM21.2063 60.629L21.2962 60.634C21.3693 60.6367 21.4177 60.6078 21.424 60.5005C21.4276 60.3975 21.3886 60.38 21.294 60.3759L21.2227 60.3735" fill="#0060AF"/>
<path d="M44.9492 52.8475L43.5999 55.2965C43.0907 54.883 42.4688 54.5786 41.6753 54.5786C39.7977 54.5786 39.035 55.9782 39.035 56.9642C39.035 57.696 39.5142 58.7758 41.1849 58.7758C41.8861 58.7758 42.8831 58.2879 43.17 58.0659L41.8356 60.9072C41.1995 61.0341 40.9905 61.1128 40.4521 61.1294C37.4618 61.2187 36.2534 59.3817 36.2543 57.5046C36.2563 55.0232 38.4625 52.0054 42.1198 52.0054C42.344 52.0054 42.6181 52.0829 42.8524 52.1687L43.0893 51.8658" fill="#0060AF"/>
<path d="M50.5166 51.9426L50.8987 60.8437H48.0552L48.0535 59.3171H46.1146L45.4764 60.8437H42.3927L45.6167 54.4876L44.8897 54.4828L46.271 51.9426H50.5166ZM48.0351 54.6657L46.9388 57.2546H48.0681" fill="#0060AF"/>
<path d="M34.4591 51.9426C35.8673 51.9505 36.663 52.7149 36.663 53.8191C36.663 54.8369 35.8238 55.7379 34.9025 56.2038C35.851 56.5525 35.933 57.4084 35.933 58.0139C35.933 59.4767 34.4651 60.8437 32.5571 60.8437H28.3959L30.0191 54.5761L29.3523 54.5723L30.7153 51.9426C30.7153 51.9426 33.3141 51.9348 34.4591 51.9426ZM33.0776 55.5515C33.3689 55.5515 33.8832 55.4777 34.0118 54.914C34.1527 54.3021 33.67 54.2856 33.4385 54.2856L32.6112 54.282L32.3227 55.5515L33.0776 55.5515ZM31.908 57.1244L31.5271 58.5873H32.5012C32.8844 58.5873 33.4067 58.3971 33.5347 57.921C33.6611 57.4436 33.296 57.1244 32.9141 57.1244" fill="#0060AF"/>
<path d="M73.629 60.768C73.6339 60.7513 73.8889 59.3247 74.1956 57.5979C74.5023 55.8711 74.7573 54.4406 74.7622 54.4191L74.7711 54.38H77.0171L77.0072 54.4278C76.9903 54.5104 76.8404 55.4203 76.8404 55.4407C76.8404 55.4514 76.921 55.3873 77.0196 55.2984C77.6208 54.7558 78.2383 54.4177 78.8046 54.321C79.1588 54.2605 79.6525 54.2962 79.983 54.4062C80.4425 54.5591 80.7207 54.7819 80.8942 55.1361C81.1104 55.5775 81.133 56.0427 80.9802 56.9021C80.9277 57.1976 80.3018 60.7874 80.3018 60.7932C80.3018 60.7961 79.7537 60.7985 79.0839 60.7985H77.866L77.8751 60.7593C77.8858 60.7133 78.3308 58.3622 78.3961 58.0067C78.4756 57.5733 78.545 57.0539 78.5448 56.8935C78.5445 56.6501 78.4788 56.4586 78.3669 56.3746C78.282 56.3109 78.1404 56.2441 78.0285 56.2149C77.7496 56.1423 77.372 56.2355 77.1494 56.4319C76.9788 56.5824 76.7882 56.9295 76.6937 57.2618C76.6616 57.3745 76.0228 60.7338 76.0228 60.7897C76.0228 60.7945 75.4822 60.7985 74.8214 60.7985C73.6855 60.7985 73.6205 60.7968 73.629 60.768Z" fill="#00A6B5"/>
<path d="M58.8725 60.7941C58.8728 60.7917 59.1297 59.3495 59.4434 57.5892L60.0137 54.3887L61.14 54.3842C62.2074 54.3799 62.2659 54.3813 62.2577 54.4103C62.2337 54.4951 62.0881 55.4275 62.0974 55.4369C62.1034 55.4428 62.1492 55.4079 62.1991 55.3594C62.4887 55.0781 62.9172 54.7706 63.2698 54.5911C63.6811 54.3816 64.0304 54.2929 64.4435 54.2931C65.3153 54.2935 65.9471 54.6333 66.1889 55.2319C66.3551 55.6434 66.3669 56.1045 66.231 56.8761C66.0631 57.8294 65.5515 60.7711 65.5515 60.7831C65.5515 60.7918 65.0269 60.7985 64.3325 60.7985H63.1135L63.1235 60.7506C63.1701 60.527 63.633 58.0606 63.6727 57.824C63.7677 57.2582 63.7991 56.9906 63.7899 56.8239C63.7746 56.5443 63.6905 56.3988 63.4838 56.2945C63.32 56.2118 63.1835 56.1835 63.0032 56.195C62.5724 56.2225 62.2914 56.4379 62.0717 56.9094C61.9491 57.1723 61.9058 57.3658 61.5862 59.0803C61.4136 60.0057 61.2725 60.7708 61.2725 60.7806C61.2725 60.7926 60.8813 60.7985 60.0723 60.7985C59.4121 60.7985 58.8723 60.7965 58.8725 60.7941Z" fill="#00A6B5"/>
<path d="M55.71 60.768C55.7143 60.7513 55.9636 59.3149 56.264 57.5762L56.8102 54.4148H59.1531L59.1432 54.4626C59.1377 54.4889 58.8942 55.9037 58.6022 57.6066C58.3101 59.3095 58.0667 60.7243 58.0614 60.7506L58.0518 60.7985H56.877C55.7668 60.7985 55.7027 60.7968 55.71 60.768Z" fill="#00A6B5"/>
<path d="M51.8534 60.7767C51.8584 60.7552 52.0348 59.7435 52.2452 58.5285C52.4557 57.3135 52.6323 56.2979 52.6378 56.2716L52.6477 56.2238H51.7376L51.7475 56.1759C51.753 56.1496 51.8203 55.7602 51.8972 55.3106C51.9741 54.8609 52.0413 54.4715 52.0466 54.4452L52.0563 54.3974H52.9747L52.9831 54.3582C52.9877 54.3367 53.0001 54.2721 53.0108 54.2147C53.1484 53.4745 53.4469 52.8099 53.8002 52.4572C54.0874 52.1705 54.5466 51.9692 55.1149 51.8809C55.3902 51.8381 56.1308 51.8377 56.4874 51.8802C56.8083 51.9185 57.1913 51.9795 57.2194 51.9968C57.2358 52.007 57.1806 52.1921 56.9983 52.7385L56.7553 53.4668L56.4961 53.461C56.0262 53.4506 55.834 53.499 55.6714 53.6686C55.5355 53.8104 55.4876 53.9368 55.4201 54.3321L55.409 54.3974H56.0012C56.5202 54.3974 56.5934 54.4006 56.5934 54.4239C56.5934 54.4463 56.3159 56.0344 56.2872 56.1759L56.2775 56.2238H55.0714L54.6482 58.4893C54.4155 59.7353 54.2212 60.7685 54.2165 60.7852C54.2085 60.8139 54.1369 60.8157 53.0261 60.8157H51.8441L51.8534 60.7767Z" fill="#00A6B5"/>
<path d="M67.7962 60.9362C67.3843 60.8965 67.1167 60.7975 66.8125 60.5721C66.5851 60.4037 66.4327 60.23 66.3264 60.0185C66.1679 59.7027 66.1648 59.1912 66.3189 58.7499C66.5268 58.1545 67.0423 57.6646 67.7021 57.4356C67.9823 57.3383 68.2965 57.2661 69.2999 57.0683C70.467 56.8382 70.732 56.7779 70.955 56.6912C71.2604 56.5726 71.3317 56.4963 71.3304 56.2899C71.3292 56.0995 71.2338 55.9533 71.0492 55.8591C70.8551 55.7601 70.4517 55.7343 70.173 55.8031C69.7532 55.9068 69.3957 56.1499 69.2619 56.4228C69.2163 56.5158 69.2101 56.5213 69.1609 56.513C69.1321 56.5081 68.6252 56.4472 68.0345 56.3777C67.0767 56.265 66.9604 56.248 66.9604 56.2212C66.9604 56.2046 66.9809 56.1339 67.0061 56.064C67.1754 55.5924 67.5156 55.1881 68.0319 54.8449C68.497 54.5358 68.9284 54.3875 69.6232 54.2981C69.9146 54.2606 71.1599 54.2556 71.5351 54.2905C71.9941 54.3331 72.5469 54.4754 72.856 54.6306C73.1345 54.7703 73.3779 54.9823 73.4771 55.1715C73.6235 55.4505 73.7035 55.8626 73.6849 56.2412C73.663 56.6855 73.6058 57.0573 73.344 58.459C73.152 59.4872 73.1185 59.7023 73.1059 59.9904C73.0951 60.2352 73.1215 60.4522 73.1876 60.6629C73.2064 60.7232 73.222 60.7783 73.2221 60.7855C73.2223 60.7927 72.7144 60.7985 72.0936 60.7985H70.9649L70.9292 60.7226C70.8848 60.6282 70.8439 60.4252 70.8242 60.2022C70.816 60.1086 70.805 60.0278 70.7998 60.0227C70.7946 60.0175 70.7143 60.0773 70.6212 60.1555C70.2904 60.4337 70.0141 60.5886 69.6119 60.7213C69.0435 60.909 68.3571 60.9902 67.7962 60.9362ZM69.8391 59.5075C70.0154 59.4446 70.2577 59.3188 70.3807 59.2264C70.4394 59.1822 70.5549 59.0752 70.6374 58.9886C70.8136 58.8033 70.9155 58.6146 70.9853 58.3438C71.0297 58.172 71.0879 57.8233 71.0745 57.8099C71.0675 57.803 70.7872 57.8735 69.9783 58.0857C69.1932 58.2917 68.8134 58.509 68.7264 58.8021C68.6949 58.908 68.6916 59.1234 68.72 59.2181C68.748 59.3115 68.8438 59.4174 68.9479 59.4702C69.09 59.5422 69.2206 59.5633 69.4826 59.5568C69.6791 59.5518 69.7373 59.5438 69.8391 59.5075Z" fill="#00A6B5"/>
<path d="M91.2515 60.9538C90.7179 60.9229 90.2649 60.8046 89.8522 60.5884C89.4243 60.3642 89.0339 59.9698 88.8212 59.547C88.7015 59.3091 88.5742 58.857 88.6138 58.8104C88.6236 58.7989 89.0193 58.5077 89.4933 58.1633C89.9672 57.8189 90.3532 57.529 90.351 57.5191C90.3488 57.5092 90.0691 57.2401 89.7295 56.921C89.3899 56.6018 89.0973 56.3269 89.0793 56.31C89.0475 56.28 89.0483 56.2764 89.113 56.1689C89.5024 55.5217 90.3356 54.8583 91.1073 54.581C92.4786 54.0883 93.8787 54.162 94.9043 54.781C95.5728 55.1845 95.9212 55.8002 95.9921 56.7035C96.0182 57.036 95.9793 57.5017 95.8817 58.0241L95.859 58.1459L90.9645 58.1547V58.3293C90.9645 58.5755 91.0013 58.7389 91.1041 58.949C91.1737 59.0913 91.2102 59.1434 91.2907 59.2155C91.4132 59.3253 91.6305 59.4336 91.8018 59.4701C92.1765 59.5501 92.7258 59.3972 92.9901 59.1392C93.05 59.0808 93.111 59.0149 93.1256 58.9928L93.1523 58.9526L94.3373 59.038C94.9891 59.085 95.5272 59.1283 95.5331 59.1342C95.539 59.14 95.4782 59.2366 95.398 59.3488C94.7133 60.3064 93.5192 60.9045 92.2082 60.9466C91.6226 60.9653 91.4707 60.9665 91.2515 60.9538ZM93.5631 57.0312C93.5833 56.9787 93.5729 56.5625 93.5486 56.4477C93.4864 56.1544 93.298 55.9272 93.0459 55.8418C92.7906 55.7552 92.4745 55.755 92.2155 55.8412C91.7838 55.9847 91.3964 56.4307 91.237 56.9675L91.2099 57.0588H92.3812C93.4333 57.0588 93.5536 57.0559 93.5631 57.0312Z" fill="#00A6B5"/>
<path d="M84.059 60.9536C83.455 60.9185 82.8552 60.7802 82.4711 60.5875C82.0977 60.4002 81.7782 60.1005 81.5104 59.6865C81.2916 59.3483 81.172 58.9269 81.1719 58.4937C81.1717 57.4191 81.4564 56.547 82.0463 55.815C82.2072 55.6154 82.4572 55.3554 82.614 55.2246C83.3288 54.6284 84.4491 54.2586 85.5409 54.2583C86.3128 54.2581 87.065 54.4204 87.5291 54.6874C87.9808 54.9472 88.3784 55.4377 88.546 55.9418C88.636 56.2125 88.6875 56.5758 88.6609 56.7531L88.6489 56.8326H86.3243L86.3173 56.7239C86.3078 56.5765 86.2528 56.4706 86.105 56.3149C85.9585 56.1607 85.8909 56.1191 85.6853 56.0564C85.5453 56.0136 85.5022 56.0086 85.2766 56.0087C85.059 56.0087 85.0009 56.0151 84.8538 56.0546C84.5712 56.1306 84.4401 56.2041 84.259 56.3881C84.0405 56.6101 83.9061 56.8525 83.7629 57.2828C83.6661 57.5736 83.6247 57.794 83.6125 58.085C83.6005 58.368 83.6241 58.533 83.708 58.7538C83.8795 59.2051 84.5732 59.4094 85.2125 59.1968C85.4537 59.1166 85.5715 59.0436 85.7564 58.8596C85.934 58.6829 86.0326 58.5429 86.1052 58.3642L86.1445 58.2676L88.5158 58.2587L88.5038 58.3066C88.4795 58.4044 88.351 58.7139 88.266 58.8795C87.6931 59.995 86.6005 60.7091 85.1589 60.9102C84.989 60.9339 84.3945 60.9759 84.3199 60.9695C84.3055 60.9683 84.1881 60.9611 84.059 60.9536Z" fill="#00A6B5"/>
</g>
<rect x="1" y="1" width="110" height="110" rx="9" stroke="black" stroke-opacity="0.1" stroke-width="2"/>
<defs>
<clipPath id="clip0_647_1165">
<rect x="2" y="2" width="108" height="108" rx="8" fill="white"/>
</clipPath>
</defs>
</svg>
