<svg width="112" height="112" viewBox="0 0 112 112" fill="none" xmlns="http://www.w3.org/2000/svg">
<g clip-path="url(#clip0_647_1131)">
<rect x="1.99988" y="2" width="108" height="108" rx="8" fill="white"/>
<path d="M35.4664 56.1951C37.6549 55.0215 40.902 52.3981 40.902 48.7871C40.902 43.8631 36.3554 40.0688 30.8241 40.0688H19.8051C19.5693 40.0688 19.3432 40.1625 19.1765 40.3292C19.0097 40.4959 18.9161 40.7221 18.9161 40.9579V66.18H16.8917C16.7747 66.1797 16.6588 66.2023 16.5507 66.2469C16.4425 66.2913 16.3441 66.3568 16.2613 66.4394C16.1784 66.522 16.1127 66.6201 16.0679 66.7282C16.023 66.8363 15.9999 66.9521 16 67.0691V71.9931C15.9999 72.1101 16.023 72.2259 16.0679 72.334C16.1127 72.4421 16.1784 72.5401 16.2613 72.6228C16.3441 72.7053 16.4425 72.7708 16.5507 72.8153C16.6588 72.8599 16.7747 72.8825 16.8917 72.8821H31.5272C37.105 72.8821 41.7473 69.0852 41.7473 63.8356C41.7473 59.5243 37.9557 57.2346 35.4664 56.1951ZM26.3241 46.8202H29.9815C31.7624 46.8202 33.2642 48.1306 33.2642 50.0072C33.2731 50.8891 32.933 51.7388 32.3181 52.371C31.7032 53.0034 30.8634 53.367 29.9815 53.3829H25.6183V46.8175L26.3241 46.8202ZM30.5888 66.18H25.6183V59.475H30.121C31.9484 59.475 33.9508 60.8839 33.9508 62.7577C33.956 63.6566 33.6053 64.5208 32.9754 65.1621C32.3456 65.8032 31.4876 66.1692 30.5888 66.18Z" fill="#1A325E"/>
<path d="M95.1926 40.0688H78.3359C77.7892 40.0688 77.248 40.1765 76.743 40.3858C76.238 40.5951 75.7791 40.9018 75.3927 41.2884C75.0063 41.6751 74.7 42.1341 74.4909 42.6392C74.282 43.1444 74.1746 43.6857 74.175 44.2324V72.0068C74.175 72.1238 74.1981 72.2396 74.243 72.3476C74.2878 72.4557 74.3535 72.5538 74.4364 72.6364C74.5192 72.719 74.6176 72.7844 74.7258 72.829C74.8339 72.8735 74.9499 72.8962 75.0668 72.8959H80.5955C80.8292 72.8884 81.0512 72.7924 81.2168 72.6273C81.3824 72.4623 81.4791 72.2404 81.4873 72.0068V60.0823H87.1964C87.4479 60.0923 87.6954 60.0165 87.8982 59.8674C88.101 59.7182 88.247 59.5047 88.3125 59.2617C88.3125 59.2617 89.9703 55.3634 90.1344 54.9695C90.4737 54.1488 89.9238 53.7166 89.4916 53.7166H81.4873V46.9597H92.7032C92.9754 46.9708 93.2432 46.8887 93.4625 46.7271C93.6818 46.5655 93.8395 46.3339 93.9096 46.0707C93.9096 46.0707 95.7041 41.8524 95.882 41.4202C96.2567 40.5475 95.6604 40.0688 95.1926 40.0688Z" fill="#1A325E"/>
<path d="M72.2459 71.6782L60.3269 46.0457L56.6886 54.1321H56.7351L60.2558 61.7917H55.5698C55.3213 61.7839 55.0775 61.8608 54.8786 62.01C54.6797 62.1592 54.5375 62.3717 54.4755 62.6124C54.4755 62.6124 52.8341 66.4641 52.6782 66.8526C52.3417 67.6569 52.8861 68.0891 53.3129 68.0891H63.0434L64.6985 71.7329C65.1169 72.6138 65.4862 72.89 66.3206 72.89H71.4607C71.6083 72.9018 71.7562 72.8734 71.8889 72.8079C72.0216 72.7424 72.1342 72.6423 72.2146 72.5182C72.2951 72.3939 72.3404 72.2504 72.346 72.1024C72.3515 71.9546 72.3169 71.808 72.2459 71.6782Z" fill="#1A325E"/>
<path d="M57.7557 40.5198C57.6818 40.3714 57.57 40.2452 57.4316 40.154C57.2933 40.0627 57.1332 40.0096 56.9678 40H56.5055C56.3411 40.0082 56.1817 40.0596 56.0435 40.1489C55.9051 40.2382 55.7928 40.3623 55.7176 40.5088L41.2382 71.6782C41.1691 71.8078 41.1362 71.9538 41.1429 72.1007C41.1496 72.2476 41.1956 72.39 41.276 72.513C41.3565 72.6361 41.4687 72.7351 41.6005 72.8C41.7325 72.8648 41.8794 72.8931 42.0261 72.8818H47.1197C47.4786 72.8936 47.8321 72.7929 48.1308 72.5937C48.4297 72.3946 48.6586 72.1069 48.7857 71.7711L60.3408 46.0457L57.7557 40.5198Z" fill="#EEAF2E"/>
</g>
<rect x="1" y="1" width="110" height="110" rx="9" stroke="black" stroke-opacity="0.1" stroke-width="2"/>
<defs>
<clipPath id="clip0_647_1131">
<rect x="2" y="2" width="108" height="108" rx="8" fill="white"/>
</clipPath>
</defs>
</svg>
