<svg width="112" height="112" viewBox="0 0 112 112" fill="none" xmlns="http://www.w3.org/2000/svg">
<g clip-path="url(#clip0_647_982)">
<rect x="1.99988" y="2" width="108" height="108" rx="8" fill="white"/>
<path d="M62.5337 53.9971C62.6525 53.9971 62.7713 53.8783 62.7713 53.7425V46.6148C62.7713 46.4791 62.6525 46.3603 62.5337 46.3603H61.2609C61.1421 46.3603 61.0233 46.4791 61.0233 46.6148V53.7255C61.0233 53.8613 61.1252 53.9801 61.2609 53.9801H62.5337V53.9971Z" fill="black"/>
<path d="M70.6966 46.3603H69.4748C69.339 46.3603 69.2372 46.4791 69.2372 46.6148V49.5677H66.6746V46.6148C66.6746 46.4791 66.5728 46.3603 66.437 46.3603H65.2151C65.0963 46.3603 64.9945 46.4791 64.9945 46.6148V53.7255C64.9945 53.8613 65.0963 53.9801 65.2151 53.9801H66.437C66.5558 53.9801 66.6746 53.8613 66.6746 53.7255V50.3993H69.2372V53.7255C69.2372 53.8613 69.339 53.9801 69.4748 53.9801H70.6966C70.8154 53.9801 70.9342 53.8613 70.9342 53.7255V46.6148C70.9342 46.4791 70.8324 46.3603 70.6966 46.3603Z" fill="black"/>
<path d="M49.076 46.3603H46.0552C45.9194 46.3603 45.8176 46.479 45.8176 46.6148V53.7255C45.8176 53.8613 45.9194 53.9801 46.0552 53.9801H49.042C50.8239 53.9801 52.1986 52.894 52.1986 50.1447C52.1986 47.3955 50.8409 46.3433 49.076 46.3433M48.6347 53.1485H47.4977V47.1579H48.6347C50.0094 47.1579 50.4506 48.0743 50.4506 50.1447C50.4506 52.2151 50.0433 53.1655 48.6347 53.1655" fill="black"/>
<path d="M59.7166 53.7425L57.2389 46.6318C57.2049 46.4961 57.0522 46.3773 56.9164 46.3773H55.6606C55.6606 46.3773 55.5078 46.4451 55.4909 46.513L53.0131 53.8613C53.0131 53.8613 53.0132 53.9971 53.081 53.9971H53.8278C53.8278 53.9971 53.9805 53.9292 53.9975 53.8613L54.6084 51.9946H57.2728L57.8498 53.7425C57.9007 53.8783 58.0365 53.9971 58.1723 53.9971H59.5299C59.6487 53.9971 59.7166 53.8953 59.6826 53.7425M54.8799 51.18L55.9491 47.9046L57.0182 51.18H54.8799Z" fill="black"/>
<path d="M78.7238 53.7255L76.263 46.6148C76.2121 46.4621 76.0764 46.3603 75.9406 46.3603H74.6848C74.6848 46.3603 74.549 46.4282 74.5151 46.496L72.0373 53.8443C72.0373 53.8443 72.0373 53.9801 72.1222 53.9801H72.8859C72.8859 53.9801 73.0216 53.9122 73.0556 53.8443L73.6665 51.9776H76.3479L76.9249 53.7255C76.9758 53.8613 77.1116 53.9801 77.2304 53.9801H78.588C78.7068 53.9801 78.7917 53.8613 78.7408 53.7255M73.938 51.163L75.0072 47.8876L76.0764 51.163H73.938Z" fill="black"/>
<path d="M84.0017 46.3603H78.2995C78.2995 46.3603 78.1807 46.4282 78.1807 46.496V47.0391C78.1807 47.0391 78.2316 47.1749 78.2995 47.1749H80.336V53.7086C80.336 53.8443 80.4378 53.9631 80.5736 53.9631H81.8124C81.9482 53.9631 82.05 53.8443 82.05 53.7086V47.1749H84.0356C84.0356 47.1749 84.1714 47.1239 84.1714 47.0391V46.496C84.1714 46.496 84.1035 46.3603 84.0356 46.3603" fill="black"/>
<path d="M94.9817 51.4684V46.496C94.9817 46.496 95.0496 46.3603 95.1005 46.3603H95.8303C95.8303 46.3603 95.966 46.4282 95.966 46.496V51.2309C95.966 51.6551 95.966 51.8079 95.966 52.0794C95.8642 53.5898 94.8969 54.065 93.3356 54.065C91.4858 54.065 90.6203 53.0298 90.4506 52.0794C90.3827 51.723 90.3827 51.3497 90.3827 51.0272V46.6318C90.3827 46.496 90.4845 46.3772 90.6203 46.3772H91.8252C91.9609 46.3772 92.0628 46.496 92.0628 46.6318V51.6042C92.0628 51.7909 92.0628 52.0115 92.0967 52.2321C92.1816 52.6394 92.4531 53.3352 93.5392 53.3352C94.4896 53.3352 94.9648 52.7752 94.9648 52.0794V51.5024L94.9817 51.4684Z" fill="black"/>
<path d="M88.5668 47.5482C88.5668 47.5482 88.6856 47.5143 88.6856 47.4464V46.7845C88.6856 46.6997 88.6516 46.6657 88.5668 46.6148C88.5668 46.6148 88.4141 46.513 88.0237 46.4112C87.7352 46.3433 87.294 46.2584 86.8188 46.2584C85.6987 46.2584 85.1726 46.6318 84.8502 47.073C84.5447 47.4973 84.409 48.0234 84.5277 48.6174C84.6974 49.6017 85.4781 50.1956 86.2757 50.7896C86.8867 51.2478 87.4807 51.6042 87.6843 52.1982C87.7692 52.4358 87.7352 52.8091 87.5146 53.0128C87.294 53.2164 87.0394 53.3013 86.6152 53.3013C86.1569 53.3013 85.546 53.1995 84.9351 52.911C84.8332 52.86 84.6975 52.7922 84.6975 52.7922C84.6296 52.7582 84.5787 52.7922 84.5787 52.877V53.5558C84.5787 53.5558 84.6296 53.6916 84.7144 53.7256C84.7144 53.7256 84.7993 53.7595 84.8841 53.7934C85.4102 53.9801 85.9872 54.065 86.6491 54.065C87.7522 54.065 88.3462 53.6746 88.6516 53.3183C89.008 52.911 89.1947 52.317 89.042 51.6042C88.8383 50.4672 87.888 49.8562 87.1243 49.3301C86.5642 48.9228 85.9872 48.5325 85.8345 48.0743C85.7327 47.7349 85.8684 47.4973 85.9533 47.3785C86.106 47.1749 86.4285 47.0221 86.8697 47.0221C87.26 47.0221 87.6504 47.107 88.0916 47.3106C88.1765 47.3446 88.3631 47.4464 88.5498 47.5482" fill="black"/>
<path d="M16.017 43H40.7264V57.5439H16.017V43ZM23.4841 47.2766C28.2189 47.2766 34.8545 47.7348 38.011 49.0076C38.2995 49.1264 38.5371 49.2282 38.5371 49.4489C38.5371 49.7374 37.8923 49.941 37.2983 50.1277C34.9563 50.8574 30.7985 51.706 24.689 52.1302L19.0378 46.479C18.4947 46.479 18.0365 46.5129 17.6801 46.5299L23.535 52.3848L21.9567 54.6928C31.4094 53.1994 35.6861 51.706 37.5868 50.8235C37.9941 50.6368 39.1651 50.1107 39.1651 49.4319C39.1651 49.0076 38.7747 48.7531 38.2486 48.5324C36.297 47.7009 33.0216 47.1408 29.7972 46.8693C26.437 46.5299 21.9737 46.4451 19.513 46.462L24.7908 51.7229C25.8261 51.6551 26.7934 51.5532 27.7268 51.4684L23.5011 47.2427L23.4841 47.2766Z" fill="black"/>
<path d="M32.6483 62.7031L31.9355 64.6207H33.3441L32.6483 62.7031Z" fill="black"/>
<path d="M49.8057 62.7539L49.0929 64.6716H50.5185L49.8227 62.7539H49.8057Z" fill="black"/>
<path d="M69.4917 62.4994H68.2359V63.7892H69.4239C69.9499 63.7892 70.2045 63.6025 70.2045 63.1273C70.2045 62.8728 70.0857 62.4994 69.4917 62.4994Z" fill="black"/>
<path d="M96 58.4604H16V69.661H96V58.4604ZM23.4501 62.5333H21.0233V63.6195H23.1447V64.468H21.0233V66.5045H20.0051V61.6678H23.4501V62.5333ZM24.7739 66.4536H23.7726V61.6339H24.7739V66.4536ZM29.5936 66.4536H28.4735L26.3012 63.0085V66.4536H25.266V61.6339H26.437L28.5414 64.9941V61.6339H29.5766V66.4536H29.5936ZM34.0569 66.4536L33.7005 65.4693H31.63L31.2397 66.4536H30.0178L31.9864 61.6339H33.3271L35.2787 66.4536H34.0229H34.0569ZM40.0136 66.5045H38.9105L36.7382 63.0594H36.7213V66.5045H35.686V61.6678H36.857L38.9614 65.028H38.9784V61.6678H40.0136V66.5045ZM42.9495 65.7578C43.5605 65.7578 44.0017 65.4523 44.1205 64.8583H45.2236C45.003 65.9105 44.2563 66.6403 42.9325 66.6403C41.524 66.6403 40.5227 65.7747 40.5227 64.1116C40.5227 62.4485 41.5919 61.566 42.9495 61.566C44.5278 61.566 45.1727 62.5673 45.2236 63.2631H44.1205C44.0356 62.9746 43.8659 62.4315 42.9495 62.4315C42.4234 62.4315 41.6428 62.754 41.6428 64.1116C41.6428 64.9771 42.0161 65.7578 42.9495 65.7578ZM46.6661 66.5045H45.6648V61.6678H46.6661V66.5045ZM51.2143 66.5045L50.8579 65.5202H48.8044L48.4141 66.5045H47.1922L49.1608 61.6678H50.5015L52.4531 66.5045H51.1973H51.2143ZM56.1188 66.5045H52.7077V61.6678H53.7259V65.622H56.1188V66.5045ZM60.8536 66.5893C58.902 66.5893 58.5796 65.5711 58.5796 64.9771H59.6487C59.6487 65.2487 59.8014 65.7578 60.7688 65.7578C61.2949 65.7578 61.8888 65.639 61.8888 65.1299C61.8888 64.7565 61.4815 64.6547 60.9215 64.5359L60.3615 64.4001C59.496 64.2134 58.6644 64.0437 58.6644 62.9916C58.6644 62.4485 58.9699 61.4981 60.7179 61.4981C62.347 61.4981 62.7883 62.4655 62.7883 63.0594H61.7191C61.6852 62.8558 61.6003 62.3297 60.633 62.3297C60.2087 62.3297 59.7166 62.4824 59.7166 62.9067C59.7166 63.2801 60.056 63.3649 60.2766 63.4158L61.5664 63.7043C62.2961 63.874 62.975 64.1286 62.975 65.0111C62.975 66.4536 61.3458 66.5893 60.8876 66.5893M66.9122 66.5045H63.2465V61.6678H66.8104V62.5333H64.2478V63.5516H66.6067V64.4001H64.2478V65.656H66.9122V66.5045ZM70.2045 66.5045L69.3051 64.6038H68.2698V66.5045H67.2855V61.6678H69.7293C71.0191 61.6678 71.4094 62.5503 71.4094 63.1782C71.4094 64.1965 71.07 64.3662 70.51 64.5868C70.51 64.5868 71.4094 66.4536 71.4943 66.4705H70.2215L70.2045 66.5045ZM74.8205 66.5045H73.1744L71.2737 61.6678H72.6653L74.0059 65.3335L75.3466 61.6678H76.6873L74.8036 66.5045H74.8205ZM78.0789 66.4536H77.0607V61.6339H78.0789V66.4536ZM80.9639 65.7069C81.5749 65.7069 81.9992 65.4014 82.1349 64.8074H83.238C83.0174 65.8596 82.2707 66.5893 80.947 66.5893C79.5384 66.5893 78.5371 65.7238 78.5371 64.0437C78.5371 62.3636 79.6063 61.4981 80.9639 61.4981C82.5422 61.4981 83.1871 62.4994 83.238 63.2122H82.1349C82.0501 62.9237 81.8804 62.3806 80.9639 62.3806C80.4378 62.3806 79.6572 62.7031 79.6572 64.0607C79.6572 64.9262 80.0305 65.7069 80.9639 65.7069ZM87.4468 66.4875H83.7811V61.6509H87.328V62.5164H84.7654V63.5346H87.1243V64.3832H84.7654V65.639H87.4468V66.4875ZM89.9415 66.6233C87.9898 66.6233 87.6674 65.605 87.6674 65.0111H88.7365C88.7365 65.2826 88.8893 65.7917 89.8566 65.7917C90.3827 65.7917 90.9767 65.6729 90.9767 65.1638C90.9767 64.7905 90.5694 64.6886 90.0093 64.5698L89.4493 64.451C88.5838 64.2644 87.7692 64.0947 87.7692 63.0425C87.7692 62.4994 88.0916 61.549 89.8227 61.549C91.4519 61.549 91.8931 62.5164 91.8931 63.1104H90.8239C90.79 62.8897 90.7051 62.3806 89.7378 62.3806C89.3135 62.3806 88.8044 62.5333 88.8044 62.9576C88.8044 63.331 89.1438 63.4158 89.3645 63.4667L90.6542 63.7552C91.384 63.908 92.0628 64.1795 92.0628 65.045C92.0628 66.4875 90.4336 66.6233 89.9754 66.6233" fill="black"/>
</g>
<rect x="1" y="1" width="110" height="110" rx="9" stroke="black" stroke-opacity="0.1" stroke-width="2"/>
<defs>
<clipPath id="clip0_647_982">
<rect x="2" y="2" width="108" height="108" rx="8" fill="white"/>
</clipPath>
</defs>
</svg>
