<svg width="112" height="112" viewBox="0 0 112 112" fill="none" xmlns="http://www.w3.org/2000/svg">
<g clip-path="url(#clip0_647_846)">
<rect x="1.99988" y="2" width="108" height="108" rx="8" fill="white"/>
<g clip-path="url(#clip1_647_846)">
<path fill-rule="evenodd" clip-rule="evenodd" d="M52.1015 47.1044C49.3097 50.204 29.043 75.651 41.4371 94.2833C43.0628 96.724 43.3879 96.5506 43.0237 93.8671C41.164 80.1682 41.9747 71.7624 58.5608 51.9727C63.6285 45.9772 56.5623 42.1493 52.1015 47.1V47.1044ZM23.0996 50.7545C21.3265 30.9778 43.7174 4.23886 67.2787 21.6053C70.2439 23.7902 70.0185 24.952 66.4203 23.5518C46.8386 15.909 30.1832 31.7408 26.0648 50.9236C25.3192 54.3873 23.4031 54.1316 23.0996 50.7589V50.7545ZM80.5831 37.6929C74.5226 24.9216 98.8729 43.2765 84.346 66.0618C80.3577 72.3217 72.7366 77.6669 65.3712 86.103C62.7051 89.1549 61.3656 88.3009 63.2253 84.8154C66.6718 78.3561 71.5141 72.417 75.9012 67.384C83.6914 58.445 84.8619 46.7055 80.5831 37.6929ZM29.1254 76.1496C25.4882 57.7991 33.5602 39.752 46.0497 32.0095C61.7124 22.3032 81.5108 37.2724 74.9345 54.5564C70.0835 67.3103 55.6779 76.2276 51.85 92.6576C50.983 96.3728 50.6015 96.8714 49.8819 93.0305C48.4816 83.5279 51.9757 73.206 65.0851 56.4032C73.868 44.8241 59.4668 29.9417 47.0901 41.0612C38.6973 49.3196 34.4056 58.2369 31.1802 76.0455C30.621 79.1234 29.7193 79.1451 29.1254 76.1496Z" fill="url(#paint0_radial_647_846)"/>
</g>
</g>
<rect x="1" y="1" width="110" height="110" rx="9" stroke="black" stroke-opacity="0.1" stroke-width="2"/>
<defs>
<radialGradient id="paint0_radial_647_846" cx="0" cy="0" r="1" gradientUnits="userSpaceOnUse" gradientTransform="translate(63.6458 40.1422) scale(36.6793 36.6793)">
<stop offset="0.11" stop-color="#F4EC40"/>
<stop offset="0.24" stop-color="#F3CA3B"/>
<stop offset="0.62" stop-color="#F26A2F"/>
<stop offset="0.87" stop-color="#DB372F"/>
<stop offset="1" stop-color="#D3232F"/>
</radialGradient>
<clipPath id="clip0_647_846">
<rect x="2" y="2" width="108" height="108" rx="8" fill="white"/>
</clipPath>
<clipPath id="clip1_647_846">
<rect width="66.0453" height="80" fill="white" transform="translate(23 16)"/>
</clipPath>
</defs>
</svg>
