<svg width="112" height="112" viewBox="0 0 112 112" fill="none" xmlns="http://www.w3.org/2000/svg">
<g clip-path="url(#clip0_647_1137)">
<rect x="1.99988" y="2" width="108" height="108" rx="8" fill="white"/>
<g clip-path="url(#clip1_647_1137)">
<path d="M22.4415 47.0604C22.7328 47.194 23.0558 47.201 23.3594 47.2907C25.841 48.0193 27.5929 50.4382 27.4581 52.9644C27.311 55.7209 25.3686 57.9523 22.7293 58.396C19.5924 58.9235 16.7221 56.9453 16.0973 53.8307C16.078 53.7346 16.1078 53.6121 16 53.5417V52.0237C16.1026 51.9393 16.0756 51.8109 16.0996 51.7042C16.6412 49.3117 18.1124 47.82 20.4803 47.1928C20.6644 47.1442 20.8625 47.1536 21.036 47.0604H22.4415ZM20.8637 48.749C20.6673 48.7531 20.4153 48.9184 20.1808 49.1124C19.7483 49.4705 19.4159 49.9154 19.1135 50.3819C18.8568 50.7781 18.9294 51.1603 19.3057 51.4598C20.0683 52.0676 20.8015 52.7053 21.4715 53.4175C22.0089 53.9889 22.2082 54.6612 22.1648 55.4214C22.1525 55.6342 22.1121 55.8452 22.0822 56.0562C22.0676 56.1582 22.0711 56.2496 22.1684 56.3141C22.2621 56.3762 22.3366 56.3223 22.4081 56.2736C23.2586 55.6975 24.0516 55.0592 24.6799 54.2339C25.2736 53.455 25.32 52.6555 24.82 51.8197C24.0926 50.6047 23.0968 49.6686 21.8513 48.9975C21.5858 48.8545 21.3015 48.7461 20.8631 48.749H20.8637ZM21.6215 55.2485C21.5992 54.6278 21.3982 54.0663 20.9076 53.6326C20.6696 53.4221 20.4446 53.4145 20.233 53.6279C19.7746 54.0915 19.3257 54.5651 18.8785 55.0398C18.7143 55.2145 18.6751 55.4361 18.8146 55.6289C19.185 56.1418 19.6346 56.5696 20.2617 56.7554C20.6831 56.8803 21.0272 56.7525 21.2839 56.3938C21.5248 56.0574 21.6051 55.6711 21.6215 55.2473V55.2485Z" fill="#02AED5"/>
<path d="M20.8643 48.7484C21.3027 48.7455 21.587 48.8539 21.8525 48.9969C23.098 49.668 24.0938 50.6041 24.8212 51.8191C25.3212 52.6543 25.2749 53.4538 24.6811 54.2334C24.0522 55.0586 23.2598 55.6969 22.4093 56.2731C22.3372 56.3217 22.2634 56.3756 22.1696 56.3135C22.0723 56.249 22.0688 56.1576 22.0834 56.0556C22.1139 55.844 22.1543 55.633 22.1661 55.4208C22.2094 54.66 22.0102 53.9884 21.4727 53.4169C20.8027 52.7047 20.0695 52.067 19.307 51.4592C18.9312 51.1597 18.8586 50.7776 19.1147 50.3813C19.4171 49.9142 19.7495 49.4699 20.182 49.1118C20.4165 48.9172 20.6685 48.7525 20.8649 48.7484H20.8643Z" fill="#FDFDFD"/>
<path d="M21.6215 55.2479C21.6051 55.6711 21.5248 56.0574 21.2839 56.3944C21.0272 56.7531 20.6831 56.8809 20.2617 56.756C19.6345 56.5696 19.185 56.1418 18.8145 55.6295C18.675 55.4367 18.7143 55.2151 18.8784 55.0404C19.3256 54.5657 19.7746 54.0921 20.233 53.6285C20.4445 53.4145 20.669 53.4222 20.9076 53.6332C21.3982 54.0669 21.5992 54.6278 21.6215 55.2491V55.2479Z" fill="#FDFDFD"/>
<path d="M32.3594 55.9378C33.0094 56.7062 33.5534 56.9664 34.4636 56.9664C35.4448 56.9664 36.1663 56.3398 36.1663 55.4888V55.0398H36.1429C35.7056 55.5245 34.9841 55.7965 34.1213 55.7965C32.2299 55.8317 30.7165 54.3658 30.7517 52.4978C30.7517 50.6773 32.1824 49.2466 34.0621 49.2466C34.9489 49.2466 35.7056 49.5068 36.1429 49.9798H36.1663V49.365H37.845V55.4653C37.845 57.239 36.4383 58.4681 34.4636 58.4681C33.0329 58.4681 31.8507 57.9599 31.1063 56.9781L32.3594 55.9378ZM36.0954 52.1426C36.0954 51.4334 35.2912 50.7828 34.3927 50.7828C33.258 50.7828 32.5013 51.4686 32.5013 52.4972C32.5013 53.5968 33.1988 54.2585 34.3218 54.2585C35.3029 54.2585 36.0954 53.6437 36.0954 52.8753V52.142V52.1426Z" fill="black"/>
<path d="M42.2433 49.1874C44.2888 49.1874 45.7782 50.6416 45.7782 52.4979C45.7782 54.3541 44.2883 55.8083 42.2433 55.8083C40.2452 55.844 38.6726 54.3307 38.7084 52.4979C38.6726 50.6656 40.2452 49.1523 42.2433 49.1874ZM42.2433 50.7242C41.1671 50.7242 40.4579 51.4692 40.4579 52.4979C40.4579 53.5265 41.1671 54.2715 42.2433 54.2715C43.3194 54.2715 44.0286 53.5265 44.0286 52.4979C44.0286 51.4692 43.3194 50.7242 42.2433 50.7242Z" fill="black"/>
<path d="M46.7241 49.3644H48.4028V49.9201H48.4262C48.8992 49.4354 49.6319 49.1868 50.4478 49.1868C52.2565 49.1511 53.7342 50.6645 53.699 52.4973C53.7342 54.3535 52.2806 55.8429 50.4595 55.8077C49.6911 55.8077 48.9109 55.5357 48.4971 55.146H48.4737V58.2905H46.7241V49.3644ZM50.1764 50.736C49.2544 50.736 48.4737 51.386 48.4737 52.0958V52.8876C48.4737 53.6443 49.2304 54.2709 50.1881 54.2709C51.2285 54.2709 51.9494 53.5376 51.9494 52.4973C51.9494 51.4569 51.2285 50.736 50.1758 50.736H50.1764Z" fill="black"/>
<path d="M56.9977 51.8947C58.1448 51.7412 58.4877 51.5753 58.4877 51.2564C58.4877 50.8426 58.0504 50.5941 57.3764 50.5941C56.5722 50.5941 55.9697 51.0196 55.8161 51.7171L54.1609 51.3742C54.3971 50.0977 55.7094 49.1868 57.3295 49.1868C59.1617 49.1868 60.297 50.1205 60.297 51.6462V55.6301H58.7244V54.9443H58.701C58.3229 55.4765 57.5188 55.8071 56.5845 55.8071C55.2013 55.8071 54.2435 55.0504 54.2435 53.9391C54.2435 52.7686 55.0237 52.1655 56.9983 51.8935L56.9977 51.8947ZM58.6295 52.557H58.606C58.4525 52.7815 58.1213 52.9116 57.2703 53.0652C56.2416 53.2545 55.8753 53.4556 55.8753 53.8219C55.8753 54.1882 56.1824 54.3658 56.8447 54.3658C57.8499 54.3658 58.6301 53.9045 58.6301 53.302V52.557H58.6295Z" fill="black"/>
<path d="M63.4644 55.2878L60.5677 49.365H62.4949L64.3981 53.4555H64.4215L66.3012 49.365H68.2401L63.901 58.2911H61.9739L63.4638 55.2884L63.4644 55.2878Z" fill="black"/>
<path d="M68.8198 47H70.5694V55.6307H68.8198V47Z" fill="black"/>
<path d="M74.3411 51.8947C75.4882 51.7412 75.831 51.5753 75.831 51.2564C75.831 50.8426 75.3938 50.5941 74.7197 50.5941C73.9156 50.5941 73.313 51.0196 73.1595 51.7171L71.5043 51.3742C71.7405 50.0977 73.0528 49.1868 74.6729 49.1868C76.5051 49.1868 77.6404 50.1205 77.6404 51.6462V55.6301H76.0678V54.9443H76.0444C75.6663 55.4765 74.8622 55.8071 73.9279 55.8071C72.5446 55.8071 71.5869 55.0504 71.5869 53.9391C71.5869 52.7686 72.367 52.1655 74.3417 51.8935L74.3411 51.8947ZM75.9729 52.557H75.9494C75.7959 52.7815 75.4647 52.9116 74.6137 53.0652C73.585 53.2545 73.2187 53.4556 73.2187 53.8219C73.2187 54.1882 73.5258 54.3658 74.1881 54.3658C75.1933 54.3658 75.9735 53.9045 75.9735 53.302V52.557H75.9729Z" fill="black"/>
<path d="M81.34 50.8544V53.5025C81.34 53.8928 81.4701 54.0106 81.9783 54.0106H83.1253V55.6301H81.8013C80.2287 55.6301 79.5904 55.0153 79.5904 53.6086V50.8538H78.1128V49.3639H79.5904V47.7919H81.34V49.3644H83.3615V50.8544H81.34Z" fill="black"/>
<path d="M87.121 49.1874C89.2017 49.1874 90.5258 50.6533 90.5258 52.557V53.0535H85.4423C85.5015 53.8694 86.1756 54.3893 87.216 54.3893C87.9726 54.3893 88.5166 54.1056 89.1431 53.455L90.231 54.5428C89.4743 55.3587 88.5406 55.8077 87.2283 55.8077C85.0409 55.8077 83.7168 54.4953 83.7168 52.509C83.7168 50.5226 85.1475 49.1868 87.1216 49.1868L87.121 49.1874ZM88.8237 51.8238C88.741 51.0788 88.0905 50.6058 87.1568 50.6058C86.2231 50.6058 85.5607 51.0788 85.4664 51.8238H88.8237Z" fill="black"/>
<path d="M91.4601 49.3644H93.1036V49.9675H93.127C93.5883 49.4828 94.2026 49.2466 94.9716 49.2466C95.291 49.2466 95.6339 49.3058 96.0002 49.4119L95.6339 50.9844C95.3144 50.9018 95.019 50.8543 94.7236 50.8543C93.7659 50.8543 93.2103 51.4926 93.2103 52.7698V55.6306H91.4607V49.3644H91.4601Z" fill="black"/>
<path d="M30.7673 61.074H32.4255C33.0098 61.074 33.3914 61.4087 33.3914 61.9221C33.3914 62.2421 33.2455 62.4965 33.0005 62.6049V62.6143C33.3158 62.7274 33.5139 63.0193 33.5139 63.4009C33.5139 64.0368 33.1089 64.3715 32.3505 64.3715H30.7679V61.074H30.7673ZM32.3358 62.4684C32.7643 62.4684 32.9811 62.2943 32.9811 61.9409C32.9811 61.6208 32.7549 61.4462 32.3358 61.4462H31.1723V62.4684H32.3358ZM32.2795 63.9993C32.8492 63.9993 33.1036 63.8159 33.1036 63.4056C33.1036 62.9953 32.8727 62.8165 32.2936 62.8165H31.1723V63.9987H32.2795V63.9993Z" fill="black"/>
<path d="M34.9218 64.1547L33.7771 61.8746H34.2196L35.1334 63.7496H35.1428L36.0518 61.8746H36.4944L34.7184 65.4312H34.2806L34.9212 64.1547H34.9218Z" fill="black"/>
<path d="M38.2234 61.074H40.5978V61.4462H38.629V62.6284H40.4471V62.9818H38.629V64.3715H38.224V61.074H38.2234Z" fill="black"/>
<path d="M41.0873 61.0078H41.5351V61.4362H41.0873V61.0078ZM41.1248 61.8746H41.511V64.3709H41.1248V61.8746Z" fill="black"/>
<path d="M42.1282 61.8746H42.5051V62.1853H42.5144C42.7026 61.945 43.0466 61.8037 43.4094 61.8037C44.111 61.8037 44.5917 62.2369 44.5917 62.8681V64.3709H44.2054V62.9437C44.2054 62.449 43.8994 62.1431 43.4094 62.1431C42.8819 62.1431 42.5144 62.4778 42.5144 62.9625V64.3709H42.1282V61.8746Z" fill="black"/>
<path d="M46.4098 61.8043C46.8007 61.8043 47.1495 61.9456 47.3564 62.1906H47.3658V60.9327H47.752V64.3715H47.3798V64.0609H47.3704C47.1676 64.3012 46.8242 64.4424 46.4332 64.4424C45.656 64.4424 45.0957 63.8962 45.0957 63.1237C45.0957 62.3512 45.6607 61.8049 46.4098 61.8049V61.8043ZM47.3658 62.9349C47.3658 62.4971 46.9607 62.1437 46.4332 62.1437C45.8635 62.1437 45.482 62.5299 45.482 63.1237C45.482 63.7174 45.8588 64.1037 46.4573 64.1037C46.966 64.1037 47.3663 63.7502 47.3663 63.3124V62.9355L47.3658 62.9349Z" fill="black"/>
<path d="M49.3821 62.9203C49.9143 62.8306 50.0983 62.7321 50.0983 62.5387C50.0983 62.2984 49.8533 62.1431 49.4717 62.1431C49.0386 62.1431 48.7414 62.3646 48.6664 62.7415L48.2942 62.6612C48.3886 62.1384 48.8452 61.8037 49.4717 61.8037C50.0983 61.8037 50.5127 62.1237 50.5127 62.6184V64.3709H50.1405V64.0556H50.1311C49.9617 64.2865 49.5989 64.4419 49.2033 64.4419C48.6236 64.4419 48.2802 64.1593 48.2802 63.7022C48.2802 63.245 48.5861 63.0475 49.3826 62.9203H49.3821ZM50.1264 62.9625H50.1171C50.0461 63.0897 49.8674 63.1606 49.453 63.2309C48.8927 63.3253 48.6711 63.4572 48.6711 63.7022C48.6711 63.9706 48.8692 64.0978 49.2836 64.0978C49.7261 64.0978 50.127 63.8153 50.127 63.4994V62.9625H50.1264Z" fill="black"/>
<path d="M51.9399 64.1547L50.7952 61.8746H51.2377L52.1515 63.7496H52.1608L53.0699 61.8746H53.5124L51.7365 65.4312H51.2986L51.9393 64.1547H51.9399Z" fill="black"/>
<path d="M54.7374 62.9203C55.2696 62.8306 55.4537 62.7321 55.4537 62.5387C55.4537 62.2984 55.2087 62.1431 54.8271 62.1431C54.3939 62.1431 54.0968 62.3646 54.0218 62.7415L53.6496 62.6612C53.7439 62.1384 54.2005 61.8037 54.8271 61.8037C55.4537 61.8037 55.868 62.1237 55.868 62.6184V64.3709H55.4959V64.0556H55.4865C55.3171 64.2865 54.9543 64.4419 54.5586 64.4419C53.979 64.4419 53.6355 64.1593 53.6355 63.7022C53.6355 63.245 53.9415 63.0475 54.738 62.9203H54.7374ZM55.4818 62.9625H55.4724C55.4015 63.0897 55.2227 63.1606 54.8083 63.2309C54.248 63.3253 54.0264 63.4572 54.0264 63.7022C54.0264 63.9706 54.2246 64.0978 54.6389 64.0978C55.0815 64.0978 55.4824 63.8153 55.4824 63.4994V62.9625H55.4818Z" fill="black"/>
</g>
</g>
<rect x="1" y="1" width="110" height="110" rx="9" stroke="black" stroke-opacity="0.1" stroke-width="2"/>
<defs>
<clipPath id="clip0_647_1137">
<rect x="2" y="2" width="108" height="108" rx="8" fill="white"/>
</clipPath>
<clipPath id="clip1_647_1137">
<rect width="80" height="18.4312" fill="white" transform="translate(16 47)"/>
</clipPath>
</defs>
</svg>
