<svg width="112" height="112" viewBox="0 0 112 112" fill="none" xmlns="http://www.w3.org/2000/svg">
<g clip-path="url(#clip0_647_991)">
<rect x="1.99988" y="2" width="108" height="108" rx="8" fill="white"/>
<path d="M93.1637 43.9999C93.8035 43.9487 94.3793 44.4648 94.4603 45.0619C94.5072 45.4287 94.4006 45.787 94.2598 45.996C94.085 46.2519 93.7225 46.495 93.4196 46.5376C92.5751 46.6528 91.9866 45.9917 91.9823 45.2709C91.9823 44.597 92.4429 44.0596 93.1637 44.0042" fill="#DC0814"/>
<path d="M73.4591 57.9382C72.8748 57.9296 72.2521 57.9595 71.6933 57.9254C72.3331 54.1124 72.9558 50.2866 73.5742 46.512H75.3954C75.3954 46.512 75.4125 46.5248 75.4253 46.5248C74.7599 50.3165 74.1202 54.138 73.4591 57.9339" fill="#DC0814"/>
<path d="M93.394 52.1249C92.814 52.4234 92.1913 52.1931 91.8714 51.7922C91.7818 51.6728 91.6624 51.4808 91.6112 51.2505C91.3681 50.2141 92.4728 49.4379 93.3471 49.8431C93.9698 50.1288 94.2129 50.9818 93.9869 51.515C93.8845 51.7623 93.6969 51.9713 93.394 52.1249Z" fill="#DC0814"/>
<path d="M57.1537 48.4612H60.5871V50.6321C60.8302 50.6662 61.2055 50.6321 61.4273 50.6449V53.0205C61.2055 53.0205 60.8728 53.0205 60.6041 53.0205C60.57 54.6199 60.5999 56.2791 60.5871 57.904C59.4739 57.8699 58.22 57.8998 57.1281 57.8913C57.1196 56.2833 57.1452 54.6327 57.1153 53.0504C56.9021 52.9949 56.4628 53.0163 56.2751 53.0376C56.241 52.2656 56.2708 51.4297 56.2623 50.6321C56.5139 50.6577 56.8594 50.6534 57.1153 50.6321C57.1494 49.9497 57.1196 49.199 57.1281 48.491C57.1196 48.4697 57.158 48.4271 57.158 48.4612" fill="#009FDC"/>
<path d="M95.3474 49.0028C94.9167 49.2289 94.4475 49.182 94.1532 49.0156C94.0381 48.9474 93.7566 48.7043 93.667 48.5251C93.2746 47.7404 93.6073 46.9684 94.294 46.704C94.7589 46.5248 95.3261 46.6954 95.6161 46.9897C95.7612 47.1433 95.9232 47.429 95.9787 47.7233C96.0682 48.2309 95.8337 48.7427 95.3474 48.9986" fill="#DC0814"/>
<path d="M53.8653 49.8473C53.8184 49.8175 53.4004 49.9284 53.3365 49.8601C53.3578 49.8814 53.5412 49.8473 53.5924 49.8473H53.8653Z" fill="white"/>
<path d="M88.438 51.1183C88.0968 51.5022 87.73 51.8732 87.3717 52.24C87.1201 52.0054 86.8599 51.6728 86.5017 51.5534C85.9856 51.3827 85.5932 51.8434 85.4909 52.223C85.3501 52.7433 85.8022 53.0675 86.1306 53.2125C86.3311 53.302 86.5657 53.3276 86.7832 53.43C87.0007 53.5281 87.2225 53.7072 87.3675 53.8693C87.6234 54.1593 87.7513 54.5346 87.8537 54.9313C87.939 56.0573 87.6277 56.8932 87.0689 57.4392C86.668 57.7505 86.1392 58.0235 85.5292 58.1088C85.2307 58.1514 84.8895 58.1727 84.5909 58.1088C83.7507 57.9211 83.0981 57.3496 82.5394 56.8975C82.8593 56.5733 83.1664 56.2407 83.5204 55.9506C83.7422 56.0999 83.9469 56.2364 84.1772 56.3601C84.4203 56.488 84.6805 56.6203 84.9321 56.6672C85.6103 56.7866 86.0496 56.4113 86.1434 55.8781C86.1989 55.554 86.024 55.2426 85.8321 55.0763C85.5591 54.8417 85.2094 54.765 84.8767 54.6242C84.5568 54.4877 84.254 54.3129 84.0365 54.0569C83.7251 53.6944 83.5545 53.1442 83.6398 52.4661C83.7166 51.8434 84.0493 51.3316 84.463 50.9648C84.8895 50.5894 85.5036 50.3421 86.1434 50.2952C87.1756 50.2184 87.8324 50.6449 88.4338 51.1098" fill="#DC0814"/>
<path d="M66.0805 52.5898C65.6497 52.9736 65.2573 53.6518 65.2701 54.428C65.2787 55.0422 65.5175 55.5625 65.8502 55.8995C66.1573 56.2065 66.6136 56.4283 67.1596 56.3814C68.1619 56.2961 68.968 55.3578 69.0533 54.3555C69.113 53.6603 68.9381 53.2082 68.6694 52.8371C68.3538 52.4064 67.9273 52.1163 67.2747 52.1249C66.7842 52.1249 66.3535 52.3467 66.0762 52.5898M65.2531 57.1534C65.1763 57.2515 65.2019 57.388 65.1806 57.5031C64.9161 58.9021 64.6901 60.3479 64.4555 61.7426C63.7432 61.7511 63.0566 61.7341 62.3784 61.717C62.9883 58.0533 63.6196 54.3086 64.2551 50.6236H66.3364C66.3364 50.7302 66.2682 50.7686 66.2895 50.9008C66.5198 50.8624 66.6904 50.7558 66.8909 50.6961C67.5221 50.5127 68.2685 50.5468 68.8827 50.8112C69.7314 51.178 70.3456 51.9287 70.6057 52.8798C70.6655 53.0888 70.6868 53.2935 70.7209 53.5238C70.7422 53.6688 70.7849 54.0314 70.7635 54.2659C70.7635 54.3086 70.7294 54.3555 70.7209 54.3982C70.6953 54.5304 70.7081 54.6669 70.6782 54.8033C70.465 55.8525 69.8124 56.7866 69.0405 57.3411C68.5287 57.7079 67.7695 58.0107 66.8653 57.9083C66.3705 57.8529 66.0293 57.6481 65.6241 57.4434C65.5218 57.324 65.3938 57.2344 65.2531 57.1534Z" fill="#DC0814"/>
<path d="M77.9971 50.6193C77.8393 51.5064 77.7242 52.5258 77.5706 53.5068C77.5493 53.6432 77.5066 53.7712 77.4853 53.8991C77.4384 54.219 77.4213 54.5346 77.3702 54.8332C77.3531 54.9313 77.3104 55.1403 77.3275 55.2981C77.3915 55.8099 77.7497 56.1554 78.2104 56.2151C78.8843 56.3046 79.4003 56.0743 79.6904 55.635C79.9505 55.0592 79.9591 54.219 80.1297 53.5494C80.2576 52.6537 80.4112 51.7751 80.5775 50.9136C80.5604 50.7856 80.6031 50.7217 80.6159 50.6236H82.339C82.1087 52.0353 81.8997 53.6518 81.6651 55.055C81.584 55.5668 81.3708 56.0487 81.1405 56.4369C80.9016 56.8463 80.5818 57.1705 80.2405 57.4434C79.8524 57.6439 79.4771 57.8571 78.9738 57.9083C77.1569 58.1045 75.7068 57.3155 75.4295 55.7928C75.3784 55.473 75.3741 55.1232 75.4295 54.8161C75.4978 54.428 75.5618 54.0314 75.63 53.6347C75.6684 53.4044 75.7025 53.1656 75.7452 52.9352C75.8859 52.1675 76.0096 51.4254 76.1418 50.662C76.1418 50.6364 76.1546 50.6236 76.1717 50.6193H77.9971Z" fill="#DC0814"/>
<path d="M51.9972 50.6364C53.0422 50.6705 54.1511 50.6364 55.2174 50.6492V57.904C54.1724 57.8785 53.0294 57.8785 51.9844 57.904V50.679C51.9844 50.679 51.9844 50.6406 51.9972 50.6364Z" fill="#009FDC"/>
<path d="M19.3481 46.8746C19.3651 48.909 19.3097 51.1396 19.3779 53.1698C19.5699 53.0802 19.6594 52.7433 19.8343 52.5855C20.2395 51.9201 20.6916 51.306 21.101 50.6492C22.3336 50.6364 23.5748 50.6918 24.7903 50.6492C24.8116 50.7174 24.705 50.7814 24.6453 50.8539C23.7752 51.8988 22.8966 53.0248 22.0393 54.0911C22.9777 55.3621 23.9288 56.6757 24.8586 57.9083C23.6558 57.8827 22.1588 57.8827 20.956 57.9083C20.7001 57.452 20.4442 56.9871 20.1883 56.5222C19.9324 56.0573 19.6893 55.5881 19.4078 55.1531C19.3353 55.2256 19.3523 55.3621 19.3523 55.4602C19.3268 56.2321 19.3694 57.1534 19.3523 57.8955H16V46.8874C17.0748 46.8532 18.2946 46.8831 19.3481 46.8746Z" fill="#009FDC"/>
<path d="M37.2443 53.3191C36.8519 53.3191 36.3273 53.3404 35.9776 53.2892C35.9691 52.7604 36.1866 52.3211 36.6344 52.24C37.1846 52.1419 37.5557 52.6367 37.6026 53.2295C37.56 53.3617 37.3723 53.3191 37.2443 53.3191ZM40.9038 54.6882C40.9891 54.3001 40.9038 53.9119 40.8782 53.5238C40.8185 53.4215 40.8099 53.3532 40.7929 53.2039C40.6905 53.012 40.6351 52.8073 40.537 52.6196C40.0422 51.7112 39.1252 51.0757 38.0163 50.7984C37.5344 50.679 36.9372 50.6406 36.451 50.6705C35.0819 50.743 34.0157 51.3316 33.3461 52.1547C33.2352 52.2955 33.1371 52.4533 33.0475 52.6196C33.0049 52.7007 32.9409 52.7817 32.9068 52.867C32.8854 52.9182 32.894 52.9822 32.8769 53.0291C32.8556 53.076 32.8087 53.1016 32.7916 53.1442C32.7575 53.2423 32.7788 53.366 32.7063 53.4513C32.7148 53.5878 32.6551 53.6518 32.6764 53.801C32.6082 54.0314 32.6082 54.5176 32.6764 54.7479C32.6594 55.0209 32.766 55.1701 32.7916 55.4047C33.0006 55.8696 33.2437 56.3004 33.5892 56.6288C33.9218 56.97 34.3611 57.2088 34.7834 57.4605C35.2653 57.6183 35.8369 57.8401 36.4638 57.8827C37.5088 57.9595 38.4258 57.7804 39.1252 57.4306C39.2916 57.3027 39.475 57.2174 39.637 57.0937C40.1318 56.7184 40.5156 56.2492 40.763 55.6222C39.6754 55.5369 38.5324 55.5028 37.4619 55.4047C37.3851 55.6819 37.2187 55.9805 36.9074 56.0317C36.7069 56.0658 36.5065 55.989 36.3913 55.8995C36.1013 55.6691 35.9733 55.1744 35.9776 54.6882C37.5855 54.6626 39.2958 54.6626 40.9038 54.6882Z" fill="#009FDC"/>
<path d="M45.992 53.0248C45.3437 52.9651 44.8916 53.7072 44.9769 54.4835C45.0238 54.8886 45.365 55.3663 45.7446 55.4474C46.0176 55.5028 46.2436 55.4132 46.3844 55.3151C46.6275 55.1445 46.7554 54.8247 46.8535 54.5432C46.8877 54.3256 46.8749 54.1678 46.8535 53.9461C46.6829 53.4812 46.4782 53.076 45.9877 53.0291M47.0967 46.7466H50.3168C50.2827 50.4402 50.3125 54.1934 50.2997 57.9083C49.2718 57.8913 48.1032 57.8657 47.0967 57.9254C47.054 57.5543 47.1094 57.0852 47.0668 56.7141C46.9261 56.8079 46.8408 56.9572 46.7256 57.0766C46.3801 57.4306 45.9408 57.6951 45.3864 57.8486C44.5291 57.9851 43.8126 57.7932 43.2922 57.4392C42.516 56.906 42.0425 55.989 41.8677 54.8758C41.8122 54.3427 41.8378 53.8608 41.8975 53.3447C41.9914 53.0504 42.0425 52.7476 42.1534 52.4831C42.4818 51.6984 43.0576 51.1013 43.8637 50.7899C44.4182 50.5767 45.203 50.598 45.7574 50.807C46.3076 51.016 46.7213 51.37 47.054 51.7666C47.1222 50.1587 47.0668 48.4313 47.0839 46.7679C47.0796 46.7381 47.0967 46.7168 47.1009 46.7381" fill="#009FDC"/>
<path d="M31.9045 50.6364V53.6091C31.8618 53.6176 31.7893 53.5537 31.7211 53.5068C31.5419 53.3873 31.2775 53.2338 31.0216 53.1869C30.4543 53.0802 29.9639 53.2935 29.6824 53.5963C29.6269 53.7285 29.5672 53.8522 29.5118 53.9887V57.9083C28.4583 57.8742 27.2683 57.904 26.2362 57.8955V50.6492H29.5118C29.5331 50.9051 29.4691 51.1994 29.5373 51.3785C29.6013 51.3358 29.6312 51.2719 29.6781 51.2164C29.9255 50.952 30.369 50.6918 30.7742 50.5894C31.1325 50.4999 31.5206 50.5127 31.9002 50.6321" fill="#009FDC"/>
<path d="M53.3109 46.6613C53.9677 46.576 54.5435 46.8618 54.8335 47.2158C54.9487 47.3523 55.1918 47.7958 55.2216 48.0688C55.3496 49.2502 54.5605 50.0734 53.5582 50.0862C52.8801 50.0947 52.2361 49.6085 52.01 49.0967C51.8991 48.8322 51.8224 48.3929 51.8991 47.992C52.0228 47.3011 52.5645 46.7594 53.3109 46.6656" fill="#009FDC"/>
<path d="M26.5305 66.5749L26.475 66.5408C26.2916 66.3574 26.0357 66.2764 25.6945 66.2977C25.4088 66.3148 25.1827 66.4299 25.0121 66.5323C25.0121 66.5323 25.0121 66.528 25.0121 66.5238C25.0121 66.4342 25.0249 66.3361 25.0334 66.2423C25.042 66.1484 25.0548 66.0503 25.0548 65.9565C25.0548 65.8627 25.0462 65.7731 25.0121 65.6963C25.0036 65.675 24.9865 65.6665 24.9652 65.6665C24.8714 65.6665 24.6922 65.7305 24.6496 65.7688L24.624 65.82C24.624 65.9224 24.5984 66.2081 24.5771 66.2423L24.5643 66.2764C24.5259 66.6816 24.5259 67.0398 24.5643 67.3469C24.5643 67.3768 24.6282 67.4237 24.6752 67.4407C24.7263 67.4578 24.8799 67.4152 24.9737 67.381L25.0078 67.3768C25.0377 67.3768 25.0548 67.3512 25.0505 67.3171V67.2275C25.1145 66.9631 25.3789 66.6474 25.6902 66.6005C25.8651 66.5707 26.0059 66.6176 26.1168 66.737C26.1338 66.7583 26.1637 66.9503 26.0485 67.1678C25.9632 67.3299 25.7883 67.4663 25.5623 67.5516C25.3448 67.6327 25.1102 67.6668 24.8159 67.654C24.8031 67.6455 24.5429 67.4706 24.5429 67.4706C24.3126 67.3085 24.0226 67.1038 23.7624 67.0057C23.7155 66.9886 23.6345 66.9204 23.5833 66.8778L23.5577 66.8564C23.4084 66.737 23.1184 66.5451 22.8881 66.3915C22.8881 66.3915 22.7857 66.3233 22.7644 66.3105C22.7644 66.302 22.7644 66.2849 22.7644 66.2849C22.7729 66.2764 22.9179 66.1911 22.9179 66.1911C23.1227 66.0717 23.2165 66.0119 23.2336 65.9821C23.2336 65.9864 23.2592 65.965 23.2592 65.965L23.7624 65.6793C24.2444 65.4148 24.7946 65.112 25.0803 64.8135L25.0931 64.7665L25.1017 64.7239C25.1187 64.6599 25.123 64.613 25.1017 64.5576C25.1017 64.5405 25.0846 64.5234 25.0633 64.5192C24.8372 64.4978 24.5515 64.6301 24.287 64.8774C24.2273 64.9329 24.1761 64.9627 24.125 64.9883L24.0866 65.0097C23.7966 65.176 23.144 65.5812 22.7985 65.7987C22.8199 65.4319 22.8881 64.9073 22.9734 64.468L22.9649 64.4168L22.9307 64.3528L22.9052 64.3059H22.8966C22.8284 64.2675 22.7729 64.2846 22.7303 64.2931L22.662 64.3187L22.5725 64.3528C22.5725 64.3528 22.5426 64.3699 22.5341 64.387C22.372 64.7836 22.2355 65.4319 22.2014 65.9522C21.873 65.7433 21.5745 65.594 21.4252 65.5215H21.4209L21.4038 65.5172C21.3527 65.5087 21.2844 65.4703 21.2247 65.4319C21.2204 65.4319 21.101 65.3509 21.101 65.3509L20.9091 65.2272L20.8579 65.2144C20.7769 65.2272 20.6191 65.3338 20.5722 65.4063C20.5679 65.4148 20.5636 65.4276 20.5636 65.4362C20.5636 65.449 20.5679 65.466 20.5722 65.4788L20.5807 65.5172L20.5892 65.5385C20.6788 65.6324 20.9091 65.7859 21.1351 65.9096L21.3953 66.0503L21.7962 66.2679L21.8645 66.3233L21.9114 66.3489C21.9114 66.3489 21.9157 66.3489 21.9199 66.3532C21.8133 66.4257 21.1949 66.8394 21.1949 66.8394L20.811 67.091C20.7769 67.1166 20.6233 67.1848 20.5892 67.1976C20.5082 67.2318 20.4442 67.2829 20.4186 67.3384L20.4101 67.3597L20.4186 67.3725L20.4485 67.3938L20.4869 67.4194L20.5295 67.4493L20.5679 67.4535C20.6361 67.4535 20.7342 67.4194 20.9219 67.3384C21.0925 67.2616 21.5574 66.9844 21.7536 66.865L21.8389 66.8138C21.873 66.8138 21.9114 66.7882 21.9455 66.7626C21.9839 66.7285 22.0735 66.6773 22.1246 66.656C22.1246 66.656 22.1588 66.6389 22.1844 66.6219C22.1844 66.6304 22.1844 66.6432 22.1844 66.6432C22.1929 67.2488 22.227 67.6924 22.2952 68.0336V68.0421L22.3038 68.0549C22.3379 68.1018 22.372 68.2468 22.4061 68.3748L22.4829 68.6264L22.5042 68.652C22.5469 68.6819 22.6791 68.7331 22.7687 68.7203H22.79L22.8028 68.6862C22.8113 68.6478 22.8113 68.6094 22.8113 68.571C22.8113 68.5241 22.8113 68.4729 22.8028 68.4132V68.3236C22.7687 67.9014 22.7431 67.2872 22.7431 66.882V66.8479C22.8156 66.8948 23.1312 67.091 23.1312 67.091C23.6686 67.4407 24.4747 67.9654 24.9652 68.1018C24.9908 68.1104 25.0164 68.1018 25.0377 68.0848L25.1145 68.0379H25.1273C25.1571 68.0208 25.1742 67.9696 25.1784 67.9184C25.5922 67.8971 26.1679 67.7393 26.475 67.3512C26.5944 67.2019 26.6456 67.0185 26.6456 66.8607C26.6456 66.7327 26.6115 66.6219 26.5433 66.5579" fill="#F9B000"/>
<path d="M64.2252 67.9398V67.7222C64.1058 67.8886 63.8669 67.9867 63.6196 67.9867C63.0566 67.9867 62.758 67.6412 62.758 66.9716V65.675H63.2314V66.9545C63.2314 67.4109 63.4148 67.5772 63.7262 67.5772C64.0375 67.5772 64.2252 67.3682 64.2252 66.9972V65.675H64.6986V67.9398H64.2252Z" fill="#7A7267"/>
<path d="M53.925 67.9995C53.8397 67.9995 53.7587 67.9909 53.6734 67.9824C53.5881 67.9654 53.5028 67.944 53.426 67.9184C53.3407 67.8971 53.264 67.863 53.1957 67.8246C53.1189 67.7905 53.055 67.7521 52.991 67.7094L53.2085 67.3682C53.3237 67.445 53.4388 67.5005 53.5625 67.5346C53.6819 67.573 53.8014 67.5943 53.9165 67.5943C54.0658 67.5943 54.1767 67.5772 54.2577 67.5303C54.326 67.4877 54.3643 67.428 54.3643 67.3469C54.3643 67.3043 54.3473 67.2659 54.326 67.2318C54.3004 67.2019 54.262 67.1678 54.2151 67.1337C54.1639 67.1081 54.1084 67.0782 54.0359 67.0484C53.9634 67.0228 53.8824 66.9887 53.7971 66.9588C53.6649 66.9119 53.554 66.865 53.4644 66.818C53.3706 66.7711 53.2981 66.72 53.2469 66.6645C53.1872 66.6091 53.1445 66.5493 53.1232 66.4811C53.0976 66.4171 53.0848 66.3361 53.0848 66.2465C53.0848 66.1442 53.1019 66.0546 53.1445 65.9778C53.1829 65.9011 53.2426 65.8371 53.3194 65.7859C53.3876 65.7347 53.4772 65.6963 53.5838 65.6665C53.6819 65.6452 53.7928 65.6281 53.9165 65.6281C54.0701 65.6281 54.2193 65.6494 54.3643 65.6963C54.5051 65.7432 54.633 65.803 54.7439 65.8755L54.5349 66.2209C54.4326 66.1612 54.3345 66.11 54.2321 66.0759C54.1298 66.0461 54.0189 66.029 53.9037 66.029C53.7886 66.029 53.699 66.0503 53.6478 66.0887C53.5924 66.1271 53.5668 66.1783 53.5668 66.238C53.5668 66.2679 53.5668 66.2977 53.5881 66.319C53.6009 66.3446 53.6222 66.3745 53.6563 66.3958C53.6862 66.4214 53.7288 66.4513 53.7928 66.4768C53.8483 66.5067 53.925 66.5366 54.0146 66.5707C54.1511 66.6219 54.2705 66.6688 54.3729 66.7114C54.4752 66.7583 54.5605 66.8095 54.633 66.865C54.697 66.9247 54.7482 66.9886 54.7866 67.0612C54.8164 67.1379 54.8378 67.2275 54.8378 67.3341C54.8378 67.4621 54.8122 67.5644 54.7653 67.6497C54.7098 67.7393 54.6458 67.8075 54.5648 67.863C54.4795 67.9142 54.3814 67.9526 54.2705 67.9739C54.1596 67.9952 54.0445 68.008 53.9293 68.008" fill="#7A7267"/>
<path d="M43.0576 65.3637V66.1527H43.9832V66.5963H43.0576V67.9398H42.5757V64.9201H44.6485V65.3637H43.0576Z" fill="#7A7267"/>
<path d="M47.4123 67.9398V66.6602C47.4123 66.2039 47.2289 66.0375 46.9133 66.0375C46.5976 66.0375 46.4185 66.2508 46.4185 66.6176V67.9398H45.9451V65.675H46.4185V65.8925C46.5379 65.7305 46.7768 65.6281 47.0241 65.6281C47.5871 65.6281 47.8857 65.9736 47.8857 66.6432V67.9398H47.4123Z" fill="#7A7267"/>
<path d="M49.7197 66.9716C49.5917 66.9119 49.4254 66.8735 49.1652 66.8735C48.8624 66.8735 48.6705 67.0014 48.6705 67.2104C48.6705 67.4322 48.824 67.5858 49.1354 67.5858C49.387 67.5858 49.6088 67.4407 49.7197 67.2957V66.9716ZM49.7197 67.9398V67.7137C49.5533 67.8673 49.3188 67.9867 49.0586 67.9867C48.6662 67.9867 48.2226 67.782 48.2226 67.2232C48.2226 66.72 48.6364 66.4896 49.1823 66.4896C49.4083 66.4896 49.5875 66.5195 49.7197 66.5749V66.4086C49.7197 66.1612 49.5576 66.0247 49.2633 66.0247C49.0159 66.0247 48.824 66.0674 48.6321 66.1655L48.4487 65.8286C48.679 65.6921 48.9349 65.6238 49.2761 65.6238C49.8135 65.6238 50.1803 65.8712 50.1803 66.383V67.9355H49.7154L49.7197 67.9398Z" fill="#7A7267"/>
<path d="M52.0996 67.9398V66.6602C52.0996 66.2039 51.9162 66.0375 51.6006 66.0375C51.285 66.0375 51.1058 66.2508 51.1058 66.6176V67.9398H50.6324V65.675H51.1058V65.8925C51.2253 65.7305 51.4641 65.6281 51.7115 65.6281C52.2745 65.6281 52.573 65.9736 52.573 66.6432V67.9398H52.0996Z" fill="#7A7267"/>
<path d="M45.4461 65.6665H44.9726V67.9398H45.4461V65.6665Z" fill="#7A7267"/>
<path d="M45.4461 64.9201H44.9726V65.3679H45.4461V64.9201Z" fill="#7A7267"/>
<path d="M39.0143 67.5943H39.9655C40.554 67.5943 40.7118 67.364 40.7118 67.0697C40.7118 66.7242 40.473 66.5323 39.9399 66.5323H39.0143V67.5943ZM39.0143 66.1868H39.9953C40.3578 66.1868 40.6265 66.0503 40.6265 65.7262C40.6265 65.4447 40.4943 65.257 39.9399 65.257H39.0143V66.1868ZM38.5324 64.9158H40.0166C40.7246 64.9158 41.0914 65.1504 41.0914 65.6622C41.0914 66.0247 40.8355 66.2764 40.4986 66.3446V66.3574C40.9848 66.4171 41.2151 66.7327 41.2151 67.0953C41.2151 67.5474 40.8867 67.9355 40.0635 67.9355H38.5324V64.9158Z" fill="#7A7267"/>
<path d="M35.2696 64.9201H35.7516V66.2721L37.3723 64.9201H38.0547L36.3401 66.2806L38.1997 67.9398H37.5173L35.7516 66.319V67.9398H35.2696V64.9201Z" fill="#7A7267"/>
<path d="M57.5674 66.9716C57.4395 66.9119 57.2731 66.8735 57.013 66.8735C56.7101 66.8735 56.5182 67.0014 56.5182 67.2104C56.5182 67.4322 56.6717 67.5858 56.9831 67.5858C57.2347 67.5858 57.4565 67.4407 57.5674 67.2957V66.9716ZM57.5674 67.9398V67.7137C57.4011 67.8673 57.1665 67.9867 56.9063 67.9867C56.5139 67.9867 56.0704 67.782 56.0704 67.2232C56.0704 66.72 56.4841 66.4896 57.03 66.4896C57.2561 66.4896 57.4352 66.5195 57.5674 66.5749V66.4086C57.5674 66.1612 57.4053 66.0247 57.111 66.0247C56.8637 66.0247 56.6675 66.0674 56.4798 66.1655L56.2964 65.8286C56.5267 65.6921 56.7826 65.6238 57.1238 65.6238C57.6612 65.6238 58.028 65.8712 58.028 66.383V67.9355H57.5631L57.5674 67.9398Z" fill="#7A7267"/>
<path d="M55.7292 65.6665H55.2557V67.9398H55.7292V65.6665Z" fill="#7A7267"/>
<path d="M55.7292 64.9201H55.2557V65.3679H55.7292V64.9201Z" fill="#7A7267"/>
<path d="M68.4178 65.6665H67.9443V67.9398H68.4178V65.6665Z" fill="#7A7267"/>
<path d="M68.4178 64.9201H67.9443V65.3679H68.4178V64.9201Z" fill="#7A7267"/>
<path d="M67.4283 67.8843C67.3131 67.944 67.1553 67.9867 66.9676 67.9867C66.635 67.9867 66.4302 67.7947 66.4302 67.3938V66.1015H66.089V65.7006H66.4302V65.0608L66.8909 64.8305V65.7006H67.4794V66.1015H66.8909V67.3171C66.8909 67.526 66.9634 67.5858 67.134 67.5858C67.2577 67.5858 67.3941 67.5431 67.4794 67.4962L67.424 67.8843H67.4283Z" fill="#7A7267"/>
<path d="M61.841 67.9398V66.3617C61.841 66.1826 61.8453 65.9224 61.8495 65.8371C61.8154 65.9224 61.7216 66.1356 61.6448 66.3062L60.8728 67.9867L60.1094 66.3062C60.0326 66.1356 59.9431 65.9224 59.9047 65.8371C59.9089 65.9224 59.9132 66.1826 59.9132 66.3617V67.9398H59.4611V64.9542H59.9516L60.6639 66.5451C60.7406 66.7157 60.8387 66.9332 60.8814 67.0569C60.9283 66.9332 61.0179 66.72 61.0946 66.5451L61.7941 64.9542H62.3059V67.9398H61.8368H61.841Z" fill="#7A7267"/>
<path d="M65.1891 67.9398V65.0267L65.6625 64.7964V67.9398H65.1891Z" fill="#7A7267"/>
<path d="M29.371 66.3276C29.5331 66.3276 29.6653 66.2892 29.7677 66.2039C29.8658 66.1228 29.9169 66.0034 29.9212 65.8413C29.9212 65.6835 29.87 65.5599 29.7719 65.4745C29.6696 65.3935 29.5331 65.3509 29.371 65.3509H28.4711V66.3276H29.371ZM29.371 66.7583H28.4711V67.9398H28.0488V64.9201H29.371C29.5118 64.9201 29.644 64.9414 29.7762 64.9755C29.8999 65.0139 30.0108 65.0694 30.1089 65.1419C30.2027 65.2186 30.2795 65.3125 30.3349 65.4234C30.3904 65.5385 30.416 65.6793 30.416 65.8328V65.8541C30.416 66.0119 30.3904 66.1484 30.3349 66.2593C30.2752 66.3745 30.1984 66.4726 30.1089 66.5451C30.0108 66.6219 29.8999 66.6773 29.7762 66.7114C29.644 66.7498 29.5118 66.7669 29.371 66.7669" fill="#7A7267"/>
<path d="M32.1177 65.3679V67.9398H31.6315V65.3679H30.6847V64.9201H33.0646V65.3679H32.1177Z" fill="#7A7267"/>
<path d="M70.4479 65.3637V66.1527H71.3735V66.5963H70.4479V67.9398H69.966V64.9201H72.0388V65.3637H70.4479Z" fill="#7A7267"/>
<path d="M74.8026 67.9398V66.6602C74.8026 66.2039 74.6192 66.0375 74.3036 66.0375C73.9879 66.0375 73.8088 66.2508 73.8088 66.6176V67.9398H73.3354V65.675H73.8088V65.8925C73.9282 65.7305 74.1671 65.6281 74.4145 65.6281C74.9774 65.6281 75.276 65.9736 75.276 66.6432V67.9398H74.8026Z" fill="#7A7267"/>
<path d="M72.8364 65.6665H72.363V67.9398H72.8364V65.6665Z" fill="#7A7267"/>
<path d="M72.8364 64.9201H72.363V65.3679H72.8364V64.9201Z" fill="#7A7267"/>
<path d="M77.11 66.9759C76.982 66.9161 76.8157 66.8778 76.5598 66.8778C76.257 66.8778 76.065 67.0057 76.065 67.2147C76.065 67.4407 76.2143 67.59 76.5299 67.59C76.7816 67.59 77.0034 67.445 77.1142 67.3V66.9759H77.11ZM77.11 67.9398V67.7137C76.9436 67.8673 76.7091 67.9867 76.4489 67.9867C76.0565 67.9867 75.6129 67.7777 75.6129 67.2232C75.6129 66.7199 76.0267 66.4896 76.5726 66.4896C76.7986 66.4896 76.9778 66.5195 77.11 66.5749V66.4086C77.11 66.1612 76.9479 66.0247 76.6536 66.0247C76.4062 66.0247 76.2101 66.0674 76.0224 66.1698L75.839 65.8328C76.0693 65.7006 76.3252 65.6281 76.6664 65.6281C77.2038 65.6281 77.5706 65.8755 77.5706 66.3873V67.9398H77.1057H77.11Z" fill="#7A7267"/>
<path d="M79.4899 67.9398V66.6602C79.4899 66.2039 79.3065 66.0418 78.9951 66.0418C78.6838 66.0418 78.5004 66.2508 78.5004 66.6176V67.9398H78.027V65.675H78.5004V65.8925C78.6198 65.7305 78.8587 65.6281 79.106 65.6281C79.669 65.6281 79.9676 65.9736 79.9676 66.6432V67.9398H79.4899Z" fill="#7A7267"/>
<path d="M81.9338 66.3276C81.7376 66.1356 81.5627 66.0503 81.3452 66.0503C80.9997 66.0503 80.778 66.3404 80.778 66.801C80.778 67.2616 80.9784 67.5644 81.358 67.5644C81.5841 67.5644 81.7163 67.4706 81.9039 67.2829L82.2067 67.5644C82.0191 67.7905 81.7802 67.9867 81.3409 67.9867C80.7524 67.9867 80.296 67.5218 80.296 66.8138C80.296 66.0631 80.7652 65.6281 81.3537 65.6281C81.7077 65.6281 81.985 65.7603 82.211 66.0119L81.9295 66.3276H81.9338Z" fill="#7A7267"/>
<path d="M83.418 66.029C83.1024 66.029 82.9062 66.2337 82.8678 66.5963H83.9896C83.9682 66.2849 83.8104 66.029 83.418 66.029ZM84.4502 66.9631H82.855C82.9062 67.3981 83.1664 67.5858 83.4607 67.5858C83.6654 67.5858 83.8232 67.5175 83.9853 67.4066L84.2668 67.6924C84.0535 67.8843 83.8019 67.9909 83.4351 67.9909C82.8678 67.9909 82.3902 67.5644 82.3902 66.8138C82.3902 66.0631 82.8209 65.6324 83.4479 65.6324C84.1346 65.6324 84.463 66.1527 84.463 66.7669C84.463 66.8479 84.4544 66.9204 84.4502 66.9673" fill="#7A7267"/>
</g>
<rect x="1" y="1" width="110" height="110" rx="9" stroke="black" stroke-opacity="0.1" stroke-width="2"/>
<defs>
<clipPath id="clip0_647_991">
<rect x="2" y="2" width="108" height="108" rx="8" fill="white"/>
</clipPath>
</defs>
</svg>
