<svg width="112" height="112" viewBox="0 0 112 112" fill="none" xmlns="http://www.w3.org/2000/svg">
<g clip-path="url(#clip0_647_979)">
<rect x="1.99988" y="2" width="108" height="108" rx="8" fill="white"/>
<path d="M33.5361 62.9449C33.5022 63.1314 33.4513 63.2841 33.4174 63.3858L33.0104 64.7256H34.0619L33.6549 63.3858C33.6209 63.2841 33.587 63.1314 33.5361 62.9449Z" fill="black"/>
<path d="M70.6095 62.8092C70.4738 62.7075 70.3211 62.6396 70.1176 62.6396H69.3545V63.9625H70.1176C70.3211 63.9625 70.4907 63.8946 70.6264 63.7759C70.7451 63.6402 70.813 63.4876 70.813 63.2671C70.813 63.0806 70.7451 62.9279 70.6095 62.8092Z" fill="black"/>
<path d="M51.4622 62.9449C51.4114 63.1314 51.3774 63.2841 51.3435 63.3858L50.9365 64.7256H51.988L51.581 63.3858C51.547 63.2841 51.5131 63.1314 51.4622 62.9449Z" fill="black"/>
<path d="M16 69.9831H95.9809V58.7899H16V69.9831ZM22.9364 62.6567H21.2066V63.9625H22.8347V64.9801H21.2066V67.1339H20.0024V61.656H22.9364V62.6736V62.6567ZM25.0055 67.1339H23.8014V61.656H25.0055V67.1339ZM30.6191 67.1339H29.5845L27.1593 63.9456C27.1593 63.9456 27.0745 63.8099 27.0237 63.7251C27.0237 63.8438 27.0237 63.9286 27.0237 63.9965V67.1339H25.8195V61.656H26.8541L29.2793 64.8105C29.2793 64.8105 29.3641 64.9462 29.4149 65.0479C29.4149 64.9292 29.4149 64.8444 29.4149 64.7596V61.656H30.6191V67.1339ZM34.7741 67.1339L34.3502 65.7433H32.6712L32.2472 67.1339H30.9922L32.9425 61.656H34.0958L36.08 67.1339H34.7572H34.7741ZM41.2527 67.1339H40.2181L37.7929 63.9456C37.7929 63.9456 37.7081 63.8099 37.6573 63.7251C37.6573 63.8438 37.6573 63.9286 37.6573 63.9965V67.1339H36.4531V61.656H37.4877L39.9129 64.8105C39.9129 64.8105 39.9977 64.9462 40.0485 65.0479C40.0485 64.9292 40.0485 64.8444 40.0485 64.7596V61.656H41.2527V67.1339ZM45.8317 66.9813C45.5095 67.1339 45.1025 67.2187 44.6276 67.2187C44.2206 67.2187 43.8305 67.1509 43.4913 67.0152C43.1521 66.8796 42.8469 66.693 42.5925 66.4386C42.355 66.2012 42.1685 65.8959 42.0159 65.5398C41.8802 65.1836 41.8123 64.7935 41.8123 64.3526C41.8123 63.9456 41.8802 63.5725 42.0328 63.2163C42.1854 62.8771 42.372 62.5888 42.6264 62.3344C42.8808 62.097 43.1691 61.8935 43.5083 61.7578C43.8475 61.6221 44.2036 61.5543 44.5937 61.5543C44.9838 61.5543 45.3569 61.6221 45.6791 61.7408C45.9844 61.8596 46.2896 62.0631 46.578 62.3683L45.8996 63.1485C45.5265 62.7754 45.1025 62.6058 44.5937 62.6058C44.3563 62.6058 44.1527 62.6567 43.9492 62.7415C43.7627 62.8262 43.5931 62.945 43.4574 63.1146C43.3217 63.2672 43.22 63.4537 43.1521 63.6742C43.0843 63.8947 43.0334 64.1321 43.0334 64.3696C43.0334 64.9462 43.1691 65.3871 43.4404 65.7094C43.6948 66.0316 44.0849 66.2012 44.5937 66.2012C44.7633 66.2012 44.9159 66.1842 45.0516 66.1503C45.1873 66.1164 45.306 66.0655 45.4077 66.0146C45.5265 65.9637 45.6112 65.8959 45.713 65.8111C45.7978 65.7263 45.8996 65.6585 45.9844 65.5737L46.6628 66.3538C46.4084 66.6252 46.12 66.8456 45.7978 67.0152M48.4265 67.1679H47.2224V61.69H48.4265V67.1679ZM52.6834 67.1679L52.2594 65.7772H50.5973L50.1734 67.1679H48.9014L50.8687 61.69H52.0219L54.0062 67.1679H52.6834ZM57.6016 67.1679H54.4472V61.69H55.6513V66.1673H57.6016V67.1848V67.1679ZM63.0965 66.8287C62.7573 67.117 62.2824 67.2696 61.6889 67.2696C61.3158 67.2696 60.9765 67.2018 60.6882 67.0831C60.3999 66.9474 60.1116 66.7948 59.8572 66.5912L60.4678 65.7433C60.6374 65.879 60.8239 65.9807 61.0444 66.0825C61.2649 66.1673 61.4853 66.2181 61.7058 66.2181C61.9772 66.2181 62.1637 66.1673 62.2655 66.0825C62.3672 65.9977 62.4012 65.862 62.4012 65.6924C62.4012 65.5567 62.3503 65.438 62.2485 65.3362C62.1298 65.2345 62.0111 65.1497 61.8415 65.0819C61.6889 65.014 61.5362 64.9462 61.3666 64.8783C61.214 64.8105 61.0614 64.7596 60.9426 64.6918C60.807 64.607 60.6713 64.5392 60.5526 64.4544C60.4338 64.3696 60.3321 64.2678 60.2473 64.1491C60.1625 64.0304 60.0947 63.8947 60.0438 63.7421C59.9929 63.5894 59.9759 63.4029 59.9759 63.1824C59.9759 62.911 60.0268 62.6567 60.1455 62.4701C60.2643 62.2666 60.3999 62.097 60.5865 61.9783C60.773 61.8596 60.9765 61.7578 61.214 61.69C61.4344 61.6391 61.6889 61.6052 61.9263 61.6052C62.1976 61.6052 62.469 61.6391 62.7403 61.7239C63.0286 61.7917 63.283 61.9274 63.5035 62.08L62.9608 62.9789C62.8421 62.8941 62.6895 62.8093 62.5029 62.7584C62.3164 62.7075 62.1298 62.6567 61.9093 62.6567C61.7736 62.6567 61.6549 62.6736 61.5532 62.7075C61.4684 62.7415 61.3836 62.7923 61.3158 62.8432C61.2479 62.8941 61.214 62.945 61.197 63.0128C61.1631 63.0806 61.1461 63.1315 61.1461 63.1824C61.1461 63.3011 61.197 63.4029 61.2649 63.5046C61.3327 63.5894 61.4514 63.6742 61.5701 63.7251C61.7058 63.7929 61.8415 63.8608 61.9941 63.9117C62.1468 63.9625 62.2994 64.0304 62.469 64.0982C62.6047 64.166 62.7403 64.2339 62.876 64.3017C63.0117 64.3865 63.1134 64.4883 63.2322 64.607C63.3339 64.7257 63.4187 64.8614 63.4866 65.031C63.5544 65.2006 63.5883 65.3871 63.5883 65.6076C63.5883 66.1333 63.4187 66.5234 63.0795 66.8287M67.4381 67.1679H64.131V61.69H67.3363V62.7075H65.3521V63.9965H67.2007V65.014H65.3521V66.1673H67.4551V67.1848L67.4381 67.1679ZM70.83 67.1679L69.3036 64.5731V67.1679H68.0995V61.69H70.0668C70.3551 61.69 70.6095 61.7239 70.847 61.8087C71.0844 61.8935 71.2879 62.0122 71.4406 62.1479C71.6102 62.3005 71.7289 62.4701 71.8306 62.6736C71.9154 62.8771 71.9663 63.0976 71.9663 63.335C71.9663 63.7421 71.8476 64.0812 71.6271 64.3526C71.3897 64.607 71.1014 64.7935 70.7452 64.8953L72.2037 67.1848H70.847L70.83 67.1679ZM75.036 67.1679H73.8827L72.085 61.69H73.323L74.3915 65.2006C74.3915 65.2006 74.4424 65.3702 74.4763 65.5058C74.5102 65.3702 74.5441 65.2684 74.5611 65.2006L75.6126 61.69H76.8167L75.036 67.1679ZM78.5805 67.1679H77.3764V61.69H78.5805V67.1679ZM83.1595 67.0152C82.8373 67.1679 82.4303 67.2527 81.9554 67.2527C81.5484 67.2527 81.1583 67.1848 80.8192 67.0492C80.463 66.9135 80.1747 66.7269 79.9373 66.4725C79.6998 66.2351 79.5133 65.9298 79.3606 65.5737C79.225 65.2175 79.1571 64.8275 79.1571 64.3865C79.1571 63.9795 79.2249 63.6064 79.3776 63.2502C79.5302 62.911 79.7168 62.6227 79.9712 62.3683C80.2256 62.1309 80.5139 61.9274 80.8531 61.7917C81.1922 61.656 81.5484 61.5882 81.9385 61.5882C82.3285 61.5882 82.7016 61.656 83.0239 61.7748C83.3291 61.8935 83.6344 62.097 83.9227 62.4023L83.2443 63.1824C82.8712 62.8093 82.4472 62.6397 81.9385 62.6397C81.701 62.6397 81.4806 62.6906 81.294 62.7754C81.1075 62.8602 80.9548 62.9789 80.8192 63.1485C80.6835 63.3011 80.5817 63.4877 80.5139 63.7081C80.4291 63.9286 80.3952 64.166 80.3952 64.4035C80.3952 64.9801 80.5308 65.421 80.8022 65.7433C81.0735 66.0655 81.4466 66.2351 81.9554 66.2351C82.125 66.2351 82.2776 66.2181 82.4133 66.1842C82.549 66.1503 82.6677 66.0994 82.7695 66.0485C82.8712 65.9977 82.973 65.9298 83.0578 65.845C83.1595 65.7602 83.2274 65.6924 83.3291 65.6076L84.0245 66.3877C83.7701 66.6591 83.4648 66.8796 83.1595 67.0492M87.7725 67.2018H84.4654V61.7239H87.6538V62.7415H85.6696V64.0304H87.5181V65.0479H85.6696V66.2012H87.7725V67.2187V67.2018ZM91.4358 66.8626C91.0966 67.1509 90.6217 67.3035 90.0281 67.3035C89.6381 67.3035 89.3158 67.2357 89.0275 67.117C88.7392 66.9813 88.4509 66.8287 88.1965 66.6252L88.824 65.7772C88.9767 65.9129 89.1802 66.0146 89.4006 66.1164C89.6211 66.2012 89.8585 66.2521 90.079 66.2521C90.3504 66.2521 90.5369 66.2012 90.6387 66.1164C90.7235 66.0316 90.7744 65.8959 90.7744 65.7263C90.7744 65.5906 90.7235 65.4719 90.6217 65.3702C90.52 65.2684 90.3843 65.1836 90.2147 65.1158C90.0621 65.0479 89.9094 64.9801 89.7398 64.9123C89.5872 64.8444 89.4346 64.7935 89.3158 64.7257C89.1802 64.6409 89.0445 64.5731 88.9258 64.4883C88.8071 64.4035 88.7053 64.3017 88.6205 64.183C88.5357 64.0643 88.4509 63.9286 88.417 63.776C88.3661 63.6233 88.3491 63.4368 88.3491 63.2163C88.3491 62.945 88.417 62.6906 88.5187 62.504C88.6375 62.3005 88.7731 62.1309 88.9597 62.0122C89.1462 61.8935 89.3498 61.7917 89.5872 61.7239C89.8246 61.673 90.0621 61.6391 90.2995 61.6391C90.5369 61.6391 90.8252 61.673 91.1135 61.7578C91.4019 61.8256 91.6562 61.9613 91.8767 62.114L91.334 63.0128C91.2153 62.928 91.0627 62.8432 90.8761 62.7923C90.6896 62.7415 90.503 62.6906 90.2995 62.6906C90.1469 62.6906 90.0451 62.7075 89.9433 62.7415C89.8416 62.7754 89.7737 62.8263 89.7059 62.8771C89.655 62.928 89.6042 62.9789 89.5872 63.0467C89.5702 63.1146 89.5533 63.1654 89.5533 63.2163C89.5533 63.335 89.6042 63.4368 89.672 63.5385C89.7568 63.6233 89.8585 63.7081 89.9942 63.759C90.1129 63.8269 90.2656 63.8947 90.4182 63.9456C90.5708 63.9965 90.7404 64.0643 90.8931 64.1321C91.0287 64.2 91.1644 64.2678 91.2831 64.3356C91.4188 64.4204 91.5206 64.5222 91.6393 64.6409C91.758 64.7596 91.8259 64.8953 91.8937 65.0649C91.9615 65.2345 91.9954 65.421 91.9954 65.6415C91.9954 66.1673 91.8259 66.5573 91.4697 66.8626" fill="black"/>
<path d="M25.8365 56.3816C28.6348 56.3816 32.0606 55.6015 34.011 53.3798H32.332C30.4325 55.0927 27.9564 55.4828 25.8535 55.4828C20.7487 55.4828 17.5094 52.8371 17.5094 49.1569C17.5094 45.782 21.1726 42.7462 25.7856 42.7462C26.3453 42.7462 26.5149 42.8649 25.9382 43.5942C24.7511 45.0697 22.6481 47.9528 21.6645 49.6657C20.596 51.4973 21.6814 52.9728 24.0727 52.9728H33.7227C34.3332 52.9728 34.6554 52.6336 35.0116 52.023C35.2829 51.5312 35.7239 50.5306 35.7239 49.1738C35.7239 46.4434 33.6548 43.9164 30.5343 42.6614L30.0933 43.3228C33.0443 44.5439 34.2314 46.7317 34.2314 49.0891C34.2314 50.2593 33.9092 51.3277 33.2987 51.3277H25.5821C24.5306 51.3277 24.2253 50.9546 24.7002 50.0218C25.5482 48.3598 28.0751 45.1714 29.6354 43.255C29.8728 42.9667 30.0424 42.5427 29.2284 42.3222C28.3974 42.1018 27.0406 42 25.8874 42C20.0872 42 16.0509 45.1375 16.0509 49.1738C16.0509 52.9049 19.5615 56.3816 25.8874 56.3816" fill="black"/>
<path d="M42.3889 52.9897H61.2988L65.1825 50.5476L68.5405 52.9897H72.526L67.3363 49.1908L71.5592 46.5282V50.5476C71.5592 51.8026 73.1704 52.9897 74.6459 52.9897H93.5387C96.8289 52.9897 96.8119 48.6481 93.5387 48.6481H86.9924C87.1959 47.8171 87.8573 47.2405 89.0784 47.2405H95.3364V45.8328H88.6714C84.8724 45.8328 83.9736 48.5294 83.9736 50.0557H92.0802C93.1996 50.0557 93.1995 51.5482 92.1141 51.5482C91.0287 51.5482 83.1595 51.5482 83.1595 51.5482V45.8159H80.463V51.5482H75.9857C74.7816 51.5482 74.2897 50.9715 74.2897 50.0727C74.2897 49.0043 74.2897 45.8159 74.2897 45.8159H69.9651L66.0983 48.258L62.7743 45.8159H53.1921C50.4108 45.8159 48.4435 47.444 48.223 49.4622H50.0207C49.2915 49.937 48.7487 50.7002 48.4265 51.5651H42.7621C41.6936 51.5651 41.1848 51.0055 41.1848 49.954V45.8159H38.4713V49.3434C38.4713 51.5821 39.6924 52.9897 42.4398 52.9897M53.6331 47.2405H59.6537V46.4603L63.9614 49.6148L60.8578 51.5651H51.6827C51.7675 50.802 52.1746 50.0218 53.4296 50.0218H59.111V48.6311H51.5471C51.6827 48.0545 52.2763 47.2235 53.6331 47.2235" fill="black"/>
</g>
<rect x="1" y="1" width="110" height="110" rx="9" stroke="black" stroke-opacity="0.1" stroke-width="2"/>
<defs>
<clipPath id="clip0_647_979">
<rect x="2" y="2" width="108" height="108" rx="8" fill="white"/>
</clipPath>
</defs>
</svg>
