<svg width="112" height="112" viewBox="0 0 112 112" fill="none" xmlns="http://www.w3.org/2000/svg">
<g clip-path="url(#clip0_647_945)">
<rect x="1.99988" y="2" width="108" height="108" rx="8" fill="white"/>
<path d="M21.7269 58.8513H16.2666V72.2098H18.5796V67.3037H20.6162C20.6162 67.3037 23.6833 67.4211 24.7811 64.7114C25.7555 62.3068 24.6888 58.8513 21.7269 58.8513ZM22.8997 63.5098C22.6521 65.2073 20.9251 65.3912 20.9251 65.3912H18.5183V60.7948H20.9872C22.2213 60.7948 23.1246 61.9585 22.8997 63.5098Z" fill="#004E44"/>
<path d="M33.2646 67.6447C33.2646 67.6447 33.8476 61.9057 29.5934 62.0594C24.504 62.2457 24.9962 70.4876 28.0511 71.9012C30.5193 73.0429 33.2646 71.6544 33.2646 71.6544V69.6185C27.6817 72.0859 28.1435 67.6742 28.1435 67.6742L33.2646 67.6447ZM29.8712 63.9121C31.5058 64.0037 31.259 66.0396 31.259 66.0396H28.2048C28.2048 66.0396 28.1776 63.8152 29.8712 63.9121Z" fill="#004E44"/>
<path d="M38.6364 76.1423C42.7044 76.1438 42.7044 72.3022 42.7044 72.3022V62.0562H40.7003V62.8928C35.7942 60.1467 33.728 65.8857 35.3013 69.9885C36.8746 74.0913 40.608 71.5004 40.608 71.5004C40.5141 76.0038 35.4861 73.1971 35.4861 73.1971V75.5101C35.4861 75.5101 36.5195 76.1438 38.6364 76.1423ZM40.67 69.2185C40.67 69.2185 40.4596 70.3277 38.7439 70.3277C37.0291 70.3277 37.2759 66.5648 37.2759 66.5648C37.2759 66.5648 37.2206 63.9724 38.7439 63.9119C40.268 63.849 40.67 64.7129 40.67 64.7129V69.2185Z" fill="#004E44"/>
<path d="M59.5447 59.0062V62.6456C54.6409 59.9003 52.5732 65.6385 54.1472 69.7413C55.7198 73.8441 59.4531 71.2541 59.4531 71.2541V72.0596H61.5511V59.0062H59.5447ZM59.5144 68.9714C59.5144 68.9714 59.3062 70.0813 57.5898 70.0813C55.875 70.0813 56.121 66.3161 56.121 66.3161C56.121 66.3161 56.0658 63.7268 57.5898 63.664C59.1139 63.6019 59.5144 64.4665 59.5144 64.4665V68.9714Z" fill="#004E44"/>
<path d="M51.4628 70.3277V65.5776C51.4628 65.5776 51.8686 60.5034 45.0773 62.5536V64.5585C45.0773 64.5585 45.8783 64.0338 47.4221 64.0338C48.9636 64.0338 49.4269 64.7129 49.4269 65.7297C49.4269 65.7297 44.5526 64.8061 44.1203 68.6931C43.6887 72.5794 47.7302 72.858 49.4269 71.3778C49.4269 71.3778 50.1098 72.833 52.6045 72.06V70.3277C52.6045 70.3277 51.9882 70.5442 51.4628 70.3277ZM46.4651 68.8778C46.5264 66.7496 49.3565 67.2046 49.3565 67.2046C49.3565 67.2046 49.3656 68.5538 49.3656 69.7591C48.9015 70.5306 46.403 71.0061 46.4651 68.8778Z" fill="#004E44"/>
<path d="M73.7982 72.0596H75.8045V62.3678H73.7982V72.0596Z" fill="#004E44"/>
<path d="M76.0357 60.0915C76.0357 60.7737 75.483 61.3263 74.8023 61.3263C74.1194 61.3263 73.5667 60.7737 73.5667 60.0915C73.5667 59.4101 74.1194 58.8574 74.8023 58.8574C75.483 58.8574 76.0357 59.4101 76.0357 60.0915Z" fill="#004E44"/>
<path d="M88.1136 62.3688H90.1806V63.1706C90.1806 63.1706 90.9824 62.1213 92.8963 62.1213C94.8073 62.1213 95.7333 64.0345 95.7333 64.7439V72.0599H93.4816V65.1762C93.4816 65.1762 93.4195 64.2192 92.3406 64.2192C91.261 64.2192 90.2101 65.1141 90.2101 65.5465V72.0599H88.1136V62.3688Z" fill="#004E44"/>
<path d="M70.8383 70.3277V65.5776C70.8383 65.5776 71.2433 60.5034 64.452 62.5536V64.5585C64.452 64.5585 65.2538 64.0338 66.7968 64.0338C68.339 64.0338 68.8024 64.7129 68.8024 65.7297C68.8024 65.7297 63.9281 64.8061 63.4958 68.6931C63.0642 72.5794 67.1057 72.858 68.8024 71.3778C68.8024 71.3778 69.4861 72.833 71.98 72.06V70.3277C71.98 70.3277 71.3629 70.5442 70.8383 70.3277ZM65.8413 68.8778C65.9019 66.7496 68.7312 67.2046 68.7312 67.2046C68.7312 67.2046 68.7403 68.5538 68.7403 69.7591C68.2769 70.5306 65.7785 71.0061 65.8413 68.8778Z" fill="#004E44"/>
<path d="M85.2723 70.3277V65.5776C85.2723 65.5776 85.6766 60.5034 78.886 62.5536V64.5585C78.886 64.5585 79.6878 64.0338 81.2308 64.0338C82.773 64.0338 83.2364 64.7129 83.2364 65.7297C83.2364 65.7297 78.3621 64.8061 77.929 68.6931C77.4982 72.5801 81.5397 72.858 83.2364 71.3778C83.2364 71.3778 83.9201 72.833 86.414 72.06V70.3277C86.414 70.3277 85.7962 70.5442 85.2723 70.3277ZM80.2753 68.8778C80.3359 66.7496 83.166 67.2046 83.166 67.2046C83.166 67.2046 83.1735 68.5538 83.1735 69.7591C82.7102 70.5306 80.2132 71.0061 80.2753 68.8778Z" fill="#004E44"/>
<path d="M26.7498 35.2675C21.74 35.2675 17.6796 39.3287 17.6796 44.3378C17.6796 49.3476 21.74 53.4073 26.7498 53.4073C28.9849 53.4073 31.0306 52.5987 32.6114 51.2586C30.6475 49.5952 29.4028 47.1119 29.4028 44.3378C29.4028 41.563 30.6475 39.0796 32.6114 37.4155C31.0306 36.0761 28.9849 35.2675 26.7498 35.2675Z" fill="#BFD730"/>
<path d="M38.4728 35.2675C36.2378 35.2675 34.1915 36.0761 32.6114 37.4155C34.5739 39.0796 35.8199 41.563 35.8199 44.3378C35.8199 47.1119 34.5739 49.5952 32.6114 51.2586C34.1915 52.5987 36.2378 53.4073 38.4728 53.4073C43.4827 53.4073 47.5431 49.3476 47.5431 44.3378C47.5431 39.3287 43.4827 35.2675 38.4728 35.2675Z" fill="#72BF44"/>
<path d="M32.6114 37.4155C30.6475 39.0796 29.4028 41.563 29.4028 44.3378C29.4028 47.1119 30.6475 49.5952 32.6114 51.2586C34.5739 49.5952 35.8199 47.1119 35.8199 44.3378C35.8199 41.563 34.5739 39.0796 32.6114 37.4155Z" fill="#00AB4E"/>
<path d="M59.3893 44.337C59.3893 49.3468 55.3289 53.4072 50.3198 53.4072C45.31 53.4072 41.2495 49.3468 41.2495 44.337C41.2495 39.3279 45.31 35.2667 50.3198 35.2667C55.3289 35.2667 59.3893 39.3279 59.3893 44.337Z" fill="#00AB4E"/>
<path d="M55.2386 40.9113C54.5238 40.423 52.6606 39.6583 50.393 39.653H50.3203L50.2446 39.6522C47.9778 39.6575 46.1153 40.423 45.3998 40.9113C45.1682 41.0696 45.0273 41.2709 45.0402 41.3997C45.0788 41.5147 45.2143 41.5783 45.6133 41.4572C46.3001 41.2475 47.9551 40.3087 50.3203 40.2882C52.6848 40.3087 54.3376 41.2475 55.0251 41.4572C55.4248 41.5783 55.5596 41.5147 55.5989 41.3997C55.6118 41.2709 55.4702 41.0696 55.2386 40.9113Z" fill="white"/>
<path d="M51.7667 46.9672C51.7667 46.9672 50.2669 47.0641 51.1383 47.9348C52.0083 48.8055 54.8134 49.8692 57.1339 47.9348C57.1339 47.9348 58.1023 47.1618 56.6501 46.9672C55.2003 46.7749 51.7667 46.9672 51.7667 46.9672Z" fill="white"/>
<path d="M50.8752 47.4025L53.7764 40.649H54.582L57.4431 47.4025H56.7405L54.1792 41.4258L51.5119 47.4025H50.8752Z" fill="white"/>
<path d="M44.0891 46.9672C44.0891 46.9672 42.59 47.0641 43.4607 47.9348C44.3306 48.8055 47.1365 49.8692 49.4571 47.9348C49.4571 47.9348 50.4254 47.1618 48.9733 46.9672C47.5234 46.7749 44.0891 46.9672 44.0891 46.9672Z" fill="white"/>
<path d="M43.1977 47.4025L46.099 40.649H46.9038L49.7642 47.4025H49.0623L46.5017 41.4258L43.8344 47.4025H43.1977Z" fill="white"/>
</g>
<rect x="1" y="1" width="110" height="110" rx="9" stroke="black" stroke-opacity="0.1" stroke-width="2"/>
<defs>
<clipPath id="clip0_647_945">
<rect x="2" y="2" width="108" height="108" rx="8" fill="white"/>
</clipPath>
</defs>
</svg>
