<svg width="112" height="112" viewBox="0 0 112 112" fill="none" xmlns="http://www.w3.org/2000/svg">
<g clip-path="url(#clip0_647_985)">
<rect x="1.99988" y="2" width="108" height="108" rx="8" fill="white"/>
<path d="M28.8638 47.9724C28.5753 45.7323 27.5571 43.9334 26.5218 43.9334C25.3848 43.9334 24.4345 45.5286 24.0781 47.9724H23.9084C21.6513 47.4972 20.4294 46.8354 20.4294 46.0038C20.4294 44.7819 23.0429 43.8485 26.3521 43.8485C29.6614 43.8485 32.5465 44.7989 32.5465 46.0038C32.5465 46.8523 31.1379 47.7009 28.8978 47.9724M36.9588 49.7543C36.9588 45.919 32.3598 43 26.454 43C20.5482 43 16 45.902 16 49.6695C16 53.437 20.5991 56.5087 26.5218 56.5087C32.4446 56.5087 36.9249 53.5218 36.9249 49.7374M27.2686 55.6601C28.4905 54.5401 29.0505 52.5715 29.0505 49.6525L29.1353 49.5507C32.1392 49.1773 34.2096 47.8706 34.2096 46.462V46.3602C35.0581 47.3106 35.4315 48.3458 35.4315 49.4828C35.4315 52.6733 31.8676 55.3886 27.2686 55.6771M18.7323 46.2753C18.6644 46.3319 18.6305 46.3941 18.6305 46.462C18.6305 47.8706 20.7009 49.0925 23.8065 49.5507L23.9084 49.6525V49.8392C23.9084 52.6733 24.5702 54.6249 25.6903 55.6601C20.8876 55.2868 17.5104 52.6733 17.5104 49.364C17.5104 48.3288 17.9007 47.1918 18.7493 46.2584M27.9474 48.1421H25.1133L24.9266 48.0403C25.2151 46.462 25.7751 45.5117 26.42 45.5117C27.1837 45.5117 27.6419 46.3602 27.9304 48.0403V48.1421H27.9474ZM28.1341 49.7374C28.0492 51.9945 27.3874 53.5897 26.5388 53.5897C25.5885 53.5897 24.9436 51.9945 24.8587 49.7374H24.9436C25.4188 49.7374 25.9618 49.8392 26.6237 49.8392C27.3874 49.8392 27.574 49.8392 28.1341 49.7374Z" fill="black"/>
<path d="M46.9885 46.8354H43.9847V54.5571H41.8125V46.8354H38.9105V45.0705H46.9885V46.8354Z" fill="black"/>
<path d="M55.2363 49.8561C55.2363 51.7229 54.1162 53.0466 52.521 53.0466C50.8239 53.0466 49.7208 51.8247 49.7208 49.8561C49.8057 47.9724 50.8409 46.6656 52.521 46.6656C54.1332 46.6656 55.2363 47.9724 55.2363 49.8561ZM57.5104 49.8561C57.5104 47.022 55.2363 44.7819 52.521 44.7819C49.8057 44.7819 47.4468 47.022 47.4468 49.941C47.4468 52.6902 49.7039 54.9304 52.4361 54.9304C55.3381 54.9304 57.5104 52.6902 57.5104 49.8561Z" fill="black"/>
<path d="M63.6029 51.0611V54.5571H61.4476V51.0611L57.6971 45.0705H60.1239L62.4659 49.0077L64.9096 45.0705H67.4383L63.6029 51.0611Z" fill="black"/>
<path d="M75.143 49.8561C75.143 51.7229 74.1078 53.0466 72.4107 53.0466C70.7136 53.0466 69.6954 51.8247 69.6954 49.8561C69.6954 47.8875 70.8155 46.6656 72.4956 46.6656C74.1757 46.6656 75.126 47.9724 75.126 49.8561M77.468 49.8561C77.468 47.022 75.2278 44.7819 72.3937 44.7819C69.5596 44.7819 67.4043 47.022 67.4043 49.941C67.4043 52.6902 69.5766 54.9304 72.3937 54.9304C75.2109 54.9304 77.468 52.6902 77.468 49.8561Z" fill="black"/>
<path d="M86.0382 46.8354H83.0343V54.5571H80.8791V46.8354H77.9771V45.0705H86.0382V46.8354Z" fill="black"/>
<path d="M90.5524 47.1239L91.8761 50.7726H89.1439L90.5524 47.1239ZM89.2457 45.0535L85.3933 54.5401H87.7523L88.5159 52.4527H92.555L93.3865 54.5401H95.7285L91.8931 45.0535H89.2457Z" fill="black"/>
<path d="M32.6483 62.4654L31.9355 64.3831H33.3441L32.6483 62.4654Z" fill="black"/>
<path d="M49.8057 62.5163L49.0929 64.434H50.5185L49.8227 62.5163H49.8057Z" fill="black"/>
<path d="M69.4917 62.2618H68.2359V63.5516H69.4238C69.9499 63.5516 70.2045 63.3649 70.2045 62.8897C70.2045 62.6352 70.0857 62.2618 69.4917 62.2618Z" fill="black"/>
<path d="M96 58.2228H16V69.4234H96V58.2228ZM23.4501 62.2788H21.0233V63.3649H23.1447V64.2134H21.0233V66.2499H20.0051V61.4133H23.4501V62.2788ZM24.7739 66.216H23.7726V61.3963H24.7739V66.216ZM29.5766 66.216H28.4565L26.2843 62.7709H26.2673V66.216H25.2321V61.3963H26.4031L28.5074 64.7565H28.5244V61.3963H29.5596V66.216H29.5766ZM34.0399 66.216L33.6835 65.2317H31.6131L31.2227 66.216H30.0008L31.9695 61.3963H33.3101L35.2618 66.216H34.0059H34.0399ZM39.9966 66.2669H38.8765L36.7043 62.8218H36.6873V66.2669H35.6521V61.4302H36.8231L38.9275 64.8074H38.9444V61.4302H39.9796V66.2669H39.9966ZM42.9325 65.5202C43.5435 65.5202 43.9678 65.1977 44.1035 64.6207H45.2066C44.986 65.6729 44.2393 66.4026 42.9156 66.4026C41.507 66.4026 40.5057 65.5371 40.5057 63.874C40.5057 62.2109 41.5749 61.3284 42.9325 61.3284C44.5108 61.3284 45.1557 62.3297 45.2066 63.0255H44.1035C44.0187 62.737 43.849 62.1939 42.9325 62.1939C42.4065 62.1939 41.6258 62.5163 41.6258 63.874C41.6258 64.7395 41.9992 65.5202 42.9325 65.5202ZM46.6491 66.2669H45.6479V61.4302H46.6491V66.2669ZM51.1973 66.2669L50.8409 65.2826H48.7874L48.3971 66.2669H47.1752L49.1438 61.4302H50.4845L52.4361 66.2669H51.1803H51.1973ZM56.1018 66.2669H52.6907V61.4302H53.709V65.3844H56.1018V66.2669ZM60.8367 66.3517C58.885 66.3517 58.5626 65.3335 58.5626 64.7395H59.6317C59.6317 65.011 59.7845 65.5202 60.7688 65.5202C61.2949 65.5202 61.8719 65.4014 61.8719 64.8922C61.8719 64.5189 61.4646 64.4171 60.9045 64.2983L60.3445 64.1625C59.479 63.9758 58.6474 63.8061 58.6474 62.737C58.6474 62.1939 58.9699 61.2435 60.7009 61.2435C62.3301 61.2435 62.7713 62.2109 62.7713 62.8049H61.7022C61.6682 62.6012 61.5834 62.0751 60.616 62.0751C60.1918 62.0751 59.6826 62.2109 59.6826 62.6521C59.6826 63.0255 60.0221 63.1103 60.2427 63.1612L61.5325 63.4497C62.2622 63.6194 62.941 63.874 62.941 64.7565C62.941 66.199 61.3118 66.3348 60.8536 66.3348M66.8782 66.2499H63.2126V61.4133H66.7764V62.2788H64.2138V63.297H66.5728V64.1455H64.2138V65.4014H66.8782V66.2499ZM70.1706 66.2499L69.2881 64.3492H68.2359V66.2499H67.2516V61.4133H69.6954C70.9852 61.4133 71.3755 62.2957 71.3755 62.9406C71.3755 63.9589 71.0361 64.1286 70.476 64.3492C70.476 64.3492 71.3755 66.216 71.4603 66.2329H70.1875L70.1706 66.2499ZM74.7866 66.2499H73.1404L71.2227 61.4133H72.6143L73.955 65.0789L75.2957 61.4133H76.6364L74.7527 66.2499H74.7866ZM78.045 66.199H77.0267V61.3793H78.045V66.199ZM80.93 65.4523C81.5409 65.4523 81.9652 65.1468 82.101 64.5528H83.2041C82.9835 65.605 82.2367 66.3348 80.913 66.3348C79.5045 66.3348 78.5032 65.4693 78.5032 63.7892C78.5032 62.1091 79.5723 61.2435 80.93 61.2435C82.5083 61.2435 83.1532 62.2448 83.2041 62.9406H82.101C82.0161 62.6521 81.8464 62.1091 80.93 62.1091C80.4039 62.1091 79.6233 62.4315 79.6233 63.7892C79.6233 64.6547 79.9966 65.4353 80.93 65.4353M87.4128 66.2329H83.7471V61.3963H87.294V62.2618H84.7314V63.28H87.0904V64.1286H84.7314V65.3844H87.4128V66.2329ZM89.9075 66.3687C87.9559 66.3687 87.6334 65.3505 87.6334 64.7565H88.7026C88.7026 65.028 88.8553 65.5371 89.8227 65.5371C90.3488 65.5371 90.9427 65.4183 90.9427 64.9092C90.9427 64.5359 90.5354 64.434 89.9754 64.3152L89.4154 64.1964C88.5499 64.0098 87.7353 63.8401 87.7353 62.7879C87.7353 62.2448 88.0577 61.2945 89.7887 61.2945C91.4179 61.2945 91.8591 62.2618 91.8591 62.8558H90.79C90.7561 62.6351 90.6712 62.126 89.7039 62.126C89.2796 62.126 88.7705 62.2788 88.7705 62.703C88.7705 63.0764 89.1099 63.1612 89.3305 63.2122L90.6203 63.5007C91.35 63.6704 92.0289 63.9249 92.0289 64.8074C92.0289 66.2499 90.3997 66.3857 89.9415 66.3857" fill="black"/>
</g>
<rect x="1" y="1" width="110" height="110" rx="9" stroke="black" stroke-opacity="0.1" stroke-width="2"/>
<defs>
<clipPath id="clip0_647_985">
<rect x="2" y="2" width="108" height="108" rx="8" fill="white"/>
</clipPath>
</defs>
</svg>
