<svg width="112" height="112" viewBox="0 0 112 112" fill="none" xmlns="http://www.w3.org/2000/svg">
<g clip-path="url(#clip0_647_988)">
<rect x="1.99988" y="2" width="108" height="108" rx="8" fill="white"/>
<path d="M56.2673 63.8373L56.2255 61.9079C56.1462 61.9538 56.0585 61.9789 55.9582 61.9873H55.6659L51.0094 62.0248C51.2057 62.1418 51.3477 62.2963 51.4354 62.4926C51.5231 62.6763 51.569 62.9937 51.569 63.4364V69.279C51.569 69.3416 51.569 69.4001 51.569 69.4627C51.5565 69.7216 51.5189 69.9513 51.4521 70.1476C51.3811 70.3898 51.2349 70.5861 51.0136 70.749L54.6218 70.7072C54.3546 70.4608 54.1917 70.2061 54.129 69.9472C54.0998 69.8177 54.0748 69.6548 54.058 69.4627C54.0413 69.2748 54.0372 69.0535 54.0372 68.8029V66.7523L54.3044 66.7649C54.6511 66.7649 54.9142 66.7899 55.1021 66.8442C55.2984 66.8902 55.432 67.0238 55.503 67.2451H55.5698V65.3825H55.503C55.407 65.4285 55.2399 65.4494 55.0102 65.4494H54.0372V63.2902H54.8474C55.2023 63.2902 55.4905 63.3278 55.7118 63.3988C55.9415 63.4615 56.1295 63.6076 56.2715 63.8373M59.0654 63.9835C59.3159 63.7371 59.437 63.4281 59.437 63.0647C59.437 62.7264 59.3118 62.4341 59.0654 62.1877C58.8148 61.9371 58.5224 61.816 58.1883 61.816C57.825 61.816 57.5243 61.9455 57.2821 62.2002C57.0399 62.4592 56.9229 62.7682 56.9229 63.1315C56.9229 63.4531 57.0441 63.7371 57.2821 63.9835C57.5201 64.2341 57.8041 64.3552 58.1341 64.3552C58.5057 64.3552 58.819 64.2299 59.0654 63.9835ZM56.6431 70.7448L59.8797 70.7031C59.65 70.5068 59.5122 70.3272 59.4663 70.156C59.437 70.0056 59.4162 69.7718 59.412 69.4585C59.412 69.4001 59.412 69.3374 59.412 69.2748L59.3702 64.4178C59.2449 64.4972 59.1071 64.5515 58.9568 64.5765C58.8148 64.6058 58.6519 64.6183 58.464 64.6183L56.6515 64.66C56.8227 64.802 56.9355 64.944 56.9981 65.086C57.0691 65.2197 57.1067 65.4786 57.1067 65.8586V69.279C57.1067 69.3416 57.1067 69.4043 57.1067 69.4627C57.1025 69.7759 57.0775 70.0098 57.0399 70.1602C57.0065 70.3356 56.8728 70.5318 56.639 70.7448M64.3191 70.7448L67.5556 70.7031C67.28 70.4734 67.1255 70.2019 67.0921 69.8887V66.7607C67.0921 66.4308 67.0587 66.1426 66.996 65.8962C66.9334 65.6498 66.7956 65.4034 66.5826 65.1654C66.3779 64.9148 66.1232 64.7352 65.81 64.6183C65.5009 64.5014 65.146 64.4471 64.7576 64.4471C64.4109 64.4471 64.0977 64.5097 63.8096 64.6308C63.5339 64.7477 63.3042 64.919 63.1163 65.1487L63.0787 64.4136C62.8908 64.493 62.7321 64.5473 62.5985 64.5723C62.4648 64.6016 62.3103 64.6141 62.1307 64.6141L60.3475 64.6559C60.5145 64.7979 60.6356 64.944 60.7066 65.0944C60.7776 65.2364 60.8152 65.4911 60.8152 65.8545V69.2748C60.8152 69.3374 60.8152 69.4001 60.8152 69.4585C60.811 69.7843 60.786 70.0182 60.7526 70.1685C60.715 70.3439 60.5855 70.536 60.3558 70.7406L63.5882 70.6989C63.3126 70.4692 63.1581 70.1977 63.1205 69.8845V67.0238C63.1205 66.8359 63.1288 66.6646 63.1455 66.5059C63.1706 66.3347 63.2374 66.176 63.346 66.0257C63.4629 65.8753 63.6467 65.8002 63.9056 65.8002C64.2147 65.8002 64.4276 65.892 64.5446 66.08C64.6657 66.2637 64.7367 66.4099 64.7576 66.5185C64.7743 66.6271 64.7826 66.7941 64.7826 67.0238V69.2706C64.7826 69.3333 64.7826 69.3959 64.7826 69.4544C64.7743 69.7801 64.7534 70.014 64.7158 70.1643C64.6824 70.3397 64.5488 70.5318 64.3149 70.7365M74.3796 70.8701L74.9267 69.7133C74.5007 69.7133 74.2126 69.6256 74.0581 69.4585C74.0288 69.421 73.9996 69.3834 73.9829 69.3416C73.8785 69.0869 73.8242 68.6609 73.8242 68.0637V66.9987C73.8242 66.5268 73.7741 66.1301 73.678 65.8002C73.5903 65.4619 73.4066 65.1904 73.1309 64.99C72.8636 64.7853 72.5671 64.6433 72.2372 64.564C71.9198 64.4846 71.5815 64.4471 71.2391 64.4471C70.93 64.4471 70.6294 64.4638 70.3496 64.4972C70.0739 64.5222 69.8108 64.5682 69.5644 64.6308L68.938 66.151C69.2053 66.0173 69.4767 65.9087 69.7607 65.8294C70.053 65.75 70.337 65.7083 70.6127 65.7083C70.8173 65.7083 71.0052 65.7584 71.1848 65.8545C71.3727 65.9422 71.4646 66.08 71.4646 66.2637C71.4646 66.5477 71.0679 66.7941 70.2786 66.9987C69.4892 67.195 68.8753 67.408 68.441 67.6377C68.015 67.8674 67.802 68.3351 67.802 69.0367C67.802 69.1787 67.8188 69.3207 67.8522 69.4585C67.8897 69.6172 67.9524 69.7759 68.0401 69.9263C68.203 70.2103 68.3909 70.4233 68.6122 70.5652C68.8419 70.6989 69.08 70.7866 69.3305 70.8325C69.5895 70.8868 69.8442 70.9119 70.1032 70.9119L70.7839 70.8743L71.356 69.7175L71.0887 69.7467C70.8507 69.7467 70.6544 69.659 70.5041 69.492C70.4957 69.4794 70.4874 69.4711 70.479 69.4627C70.3454 69.2998 70.2786 69.1036 70.2786 68.8822C70.2786 68.6859 70.3454 68.5356 70.479 68.427C70.6127 68.3101 70.8006 68.1973 71.0386 68.0804L71.4646 67.8799V68.5982C71.4646 68.9449 71.4855 69.233 71.5273 69.4585C71.5356 69.5003 71.544 69.5421 71.5565 69.5797C71.6275 69.8177 71.7862 70.0599 72.0367 70.3021C72.2957 70.5402 72.563 70.7031 72.8469 70.7824C73.1309 70.8701 73.465 70.916 73.8451 70.916L74.3754 70.8785L74.3796 70.8701ZM78.9568 70.7365L82.1892 70.6947C81.9136 70.465 81.759 70.1936 81.7256 69.8803V66.7523C81.7256 66.4224 81.6964 66.1343 81.6296 65.8879C81.5669 65.6415 81.4333 65.3951 81.2161 65.157C81.0115 64.9064 80.7567 64.7269 80.4435 64.6099C80.1345 64.493 79.7837 64.4387 79.3911 64.4387C79.0445 64.4387 78.7313 64.5014 78.4473 64.6225C78.1716 64.7394 77.9419 64.9106 77.754 65.1403L77.7123 64.4053C77.5243 64.4846 77.3656 64.5389 77.232 64.564C77.0983 64.5932 76.9438 64.6058 76.7643 64.6058L74.981 64.6475C75.148 64.7895 75.2692 64.9357 75.3402 65.086C75.4111 65.228 75.4487 65.4828 75.4487 65.8461V69.2664C75.4487 69.3291 75.4487 69.3917 75.4487 69.4502C75.4446 69.7759 75.4195 70.0098 75.3819 70.1602C75.3485 70.3356 75.2149 70.5277 74.981 70.7323L78.2176 70.6905C77.9419 70.4608 77.7874 70.1894 77.7498 69.8762V67.0154C77.7498 66.8275 77.7582 66.6563 77.7791 66.4976C77.8041 66.3264 77.871 66.1677 77.9795 66.0173C78.0965 65.867 78.2802 65.7918 78.5392 65.7918C78.8482 65.7918 79.0612 65.8837 79.1781 66.0716C79.3034 66.2554 79.3744 66.4015 79.3911 66.5101C79.4078 66.6187 79.4162 66.7857 79.4162 67.0154V69.2623C79.4162 69.3249 79.4162 69.3875 79.4162 69.446C79.412 69.7718 79.3869 70.0056 79.3493 70.156C79.3159 70.3314 79.1781 70.5235 78.9484 70.7281M86.5074 69.4627C86.5074 69.4627 86.4782 69.4502 86.4615 69.446H83.3335C83.4755 69.659 83.6509 69.8553 83.8555 70.0349C84.5195 70.6112 85.3255 70.8993 86.2777 70.8993C86.7037 70.8993 87.1046 70.8618 87.4763 70.7782C87.848 70.6989 88.2113 70.5694 88.5705 70.394L88.821 69.446L88.9547 68.9449C88.7166 69.1328 88.4368 69.2831 88.1153 69.4001C88.0693 69.4168 88.0192 69.4335 87.9691 69.4502C87.7102 69.5337 87.4512 69.5713 87.1965 69.5713C86.9543 69.5713 86.7246 69.5379 86.5032 69.4669M85.5594 68.3477C85.4717 68.0428 85.4258 67.7421 85.4258 67.4414C85.4258 67.1741 85.4508 66.9319 85.4926 66.7064C85.5469 66.4851 85.6638 66.2554 85.8517 66.0173C86.0397 65.7751 86.3487 65.6582 86.7831 65.6582C87.0503 65.6582 87.2884 65.6958 87.5014 65.7668C87.7143 65.8377 87.9399 65.9463 88.1821 66.1008V64.5682C88.0484 64.5682 87.7979 64.5473 87.422 64.5014C87.0503 64.4554 86.7789 64.4345 86.6076 64.4345C85.526 64.4345 84.6281 64.7269 83.9181 65.3115C83.2082 65.8879 82.8532 66.7022 82.8532 67.7588C82.8532 68.4061 83.0119 68.9699 83.3293 69.446H86.4573C86.261 69.3625 86.0898 69.2414 85.9436 69.0743C85.7849 68.8864 85.6555 68.6442 85.5552 68.3435M94.9392 69.446H95.8204L95.9791 68.9825C95.6074 69.1704 95.2608 69.3249 94.9392 69.446ZM91.7862 66.5602C91.8196 66.2679 91.9198 66.0299 92.0785 65.8545C92.2497 65.679 92.4753 65.5872 92.7592 65.5872C93.0683 65.5872 93.298 65.679 93.44 65.867C93.582 66.0466 93.653 66.2762 93.653 66.5602H91.7862ZM91.7862 67.692H95.9123C95.9123 66.6438 95.645 65.8419 95.1105 65.2823C94.5884 64.7143 93.7991 64.4304 92.7551 64.4304C91.8238 64.4304 91.047 64.731 90.4247 65.3324C89.8025 65.9338 89.4934 66.7022 89.4934 67.6335C89.4934 68.1556 89.5937 68.6525 89.7983 69.1244C89.8484 69.2372 89.9027 69.3416 89.9612 69.4418C90.1449 69.7551 90.383 70.014 90.6628 70.2144C91.0345 70.4817 91.4437 70.6613 91.8864 70.749C92.3374 70.8451 92.8302 70.8952 93.3648 70.8952C93.7198 70.8952 94.0789 70.8618 94.4423 70.7908C94.814 70.7198 95.1522 70.6195 95.4529 70.4859L95.8121 69.446H94.9309C94.8891 69.4627 94.8515 69.4753 94.8139 69.4878C94.459 69.6047 94.0998 69.6632 93.7365 69.6632C93.3731 69.6632 93.0432 69.5922 92.7634 69.446C92.5964 69.3625 92.4502 69.2497 92.3124 69.1161C91.9574 68.7444 91.782 68.2683 91.782 67.692" fill="#14AAE2"/>
<path d="M46.5659 62.029L49.7482 61.9873L49.4391 62.3214C49.3306 62.4466 49.2804 62.6012 49.2804 62.7891V62.9353L49.9069 68.6985C49.957 69.2205 50.028 69.6298 50.1073 69.9221C50.195 70.2144 50.3704 70.4775 50.6377 70.7072L47.1255 70.7448C47.2591 70.5945 47.3635 70.4358 47.4429 70.2646C47.5306 70.0892 47.5682 69.9179 47.5473 69.7592L47.067 65.086L45.2963 70.891C45.1 70.8451 44.8912 70.7699 44.6699 70.6655C44.4569 70.5485 44.2314 70.4107 43.9891 70.252C43.7511 70.0933 43.5673 69.9012 43.4421 69.6799C43.3168 69.4502 43.1664 69.0994 42.991 68.6275L41.688 65.086L41.1952 69.6757C41.1785 69.897 41.2161 70.0975 41.3164 70.2771C41.4249 70.4567 41.5753 70.5987 41.7799 70.7031L39.1572 70.7406C39.4078 70.5193 39.5707 70.2771 39.65 70.0098C39.7294 69.7342 39.7962 69.3458 39.8505 68.8363L40.4895 63.2443V63.0856C40.4895 62.668 40.3224 62.313 39.9841 62.0207L43.0453 61.9789L45.0165 67.1199L46.5617 62.0207L46.5659 62.029ZM32.2539 68.4437C32.4586 68.7903 32.7133 69.0701 33.0265 69.2831C33.3356 69.4878 33.678 69.588 34.0497 69.588C34.3963 69.588 34.7262 69.5045 35.0353 69.3374C35.3443 69.1704 35.5991 68.949 35.7954 68.6859C36 68.4187 36.1378 68.1347 36.2088 67.834C36.2798 67.5333 36.3174 67.1867 36.3174 66.7983C36.3174 65.867 36.1253 65.0192 35.7327 64.2549C35.3443 63.4907 34.7304 63.1107 33.8952 63.1107C33.1685 63.1107 32.6089 63.3988 32.2163 63.9751C31.8238 64.5515 31.6317 65.2238 31.6317 65.9881C31.6317 66.3681 31.6901 66.7941 31.8071 67.2618C31.924 67.7254 32.0743 68.118 32.2581 68.4479M34.0539 61.7784C35.4989 61.7784 36.6682 62.1794 37.5577 62.977C38.4515 63.7747 38.9025 64.8939 38.9025 66.3305C38.9025 67.7672 38.418 68.853 37.4533 69.6841C36.4844 70.5109 35.3026 70.9202 33.8994 70.9202C32.4961 70.9202 31.3477 70.5068 30.4247 69.6715C29.5101 68.8279 29.0549 67.7212 29.0549 66.3431C29.0549 64.9649 29.5394 63.8749 30.5083 63.0438C31.4855 62.2002 32.6674 61.7784 34.0622 61.7784M21.0157 70.8993C20.7943 70.8701 20.5605 70.8158 20.3099 70.7281C20.0718 70.6279 19.7962 70.4942 19.483 70.3147C19.1739 70.1309 18.9401 69.9096 18.7897 69.6632C18.6394 69.4043 18.4849 69.0033 18.322 68.4646L16.8687 63.4865C16.7684 63.1399 16.6598 62.8601 16.5346 62.6471C16.4176 62.4341 16.2422 62.2295 16 62.0332L18.89 61.9914L20.5145 68.0595L21.4876 64.4136C21.521 64.2633 21.5627 64.0796 21.6087 63.8666C21.663 63.6536 21.688 63.4991 21.688 63.3988C21.688 63.1858 21.6254 62.9394 21.5001 62.6555C21.3832 62.3631 21.2454 62.1543 21.0867 62.029L23.8806 61.9873C23.8472 62.1125 23.8263 62.2002 23.8263 62.2545C23.8263 62.4299 23.8388 62.597 23.8639 62.7473C23.9014 62.8977 23.9891 63.2151 24.1311 63.6912L25.4091 68.0553L26.5659 64.0879C26.6452 63.8332 26.7037 63.6285 26.7413 63.474C26.7747 63.3237 26.7956 63.1733 26.7956 63.023C26.7956 62.835 26.7496 62.6596 26.6619 62.4884C26.5826 62.3214 26.474 62.1668 26.3404 62.0248L28.5914 61.9831L25.8601 70.916C25.6304 70.8618 25.4091 70.7949 25.1961 70.7031C24.9831 70.6154 24.7367 70.4942 24.4527 70.3439C24.1687 70.1852 23.9474 69.9889 23.7887 69.7592C23.63 69.5295 23.4922 69.2163 23.3752 68.8279L22.3896 65.6081L21.0031 70.891L21.0157 70.8993Z" fill="#213D75"/>
<path d="M56 34.0274C72.3333 34.0274 84.7576 39.4565 84.7576 45.4869C84.7576 51.5174 72.3333 56.9465 56 56.9465C39.6667 56.9465 27.2466 51.5174 27.2466 45.4869C27.2466 39.4565 39.6709 34.0274 56 34.0274Z" fill="#EDEDED"/>
<path d="M56 33C63.1957 33 69.9445 34.0691 75.1898 35.9025C74.8139 36.1238 74.4297 36.3535 74.0413 36.5957C69.1677 35.0088 62.9367 34.0274 56 34.0274C39.6709 34.0274 27.2466 39.4565 27.2466 45.4869C27.2466 51.5174 39.6709 56.9465 56 56.9465C72.3291 56.9465 84.7576 51.5174 84.7576 45.4869C84.7576 43.8039 83.7887 42.171 82.043 40.6885C81.9678 40.6007 81.9261 40.4629 81.9261 40.3418C81.9261 40.062 82.1516 39.8365 82.4314 39.8365C82.54 39.8365 82.6653 39.8699 82.753 39.9284C84.6866 41.5822 85.7849 43.4573 85.7849 45.4869C85.7849 52.6826 71.9992 57.9739 56.0042 57.9739C40.0092 57.9739 26.2193 52.6784 26.2193 45.4869C26.2193 38.2955 40.0008 33 56 33Z" fill="#14AAE2"/>
<path d="M48.7417 48.2307C45.1251 50.3021 36.9021 58.3163 32.6047 56.5414C27.2174 54.3197 36.5638 46.2303 37.8208 45.0025C42.1182 40.8137 45.0541 38.1451 45.0541 38.1451C46.8039 36.696 51.995 37.0885 49.1635 39.3813C46.4531 41.578 35.0061 51.2794 35.478 52.5573C36.4928 55.3136 54.8808 37.9029 56.3717 43.2652C56.6724 44.3468 53.2771 49.6089 52.9096 51.6678C52.2038 55.6603 72.3959 38.0658 80.4101 35.5308C84.4778 34.2445 86.048 36.6834 82.8156 37.6231C74.1082 40.1455 57.6956 56.4997 51.3936 56.4287C46.6411 56.3744 47.5974 51.7054 49.3848 48.4228C49.3848 48.4228 49.9277 47.55 48.7375 48.2349" fill="#BFE2F7"/>
<path d="M48.6081 46.4558C44.9914 48.5272 36.7684 56.5414 32.4711 54.7707C27.0837 52.549 36.4302 44.4596 37.6872 43.2318C41.9845 39.043 44.9204 36.3744 44.9204 36.3744C46.6703 34.9211 51.8613 35.3178 49.0299 37.6106C46.3195 39.8073 34.9518 49.4836 35.3443 50.7866C36.071 53.2172 54.2126 36.1614 55.7077 41.5195C56.0084 42.6012 52.6131 47.8632 52.2456 49.9221C51.5356 53.9104 72.0451 36.0821 80.0593 33.5471C84.127 32.2608 85.9144 34.9127 82.682 35.8482C73.9745 38.3706 57.5619 54.7248 51.26 54.6538C46.5116 54.5995 47.4679 49.9305 49.2554 46.6479C49.2554 46.6479 49.7983 45.7793 48.6081 46.46" fill="#213D75"/>
<path d="M90.7254 79.4773H91.118L91.4855 77.6398H91.498C91.5607 77.8486 91.6734 78.0115 91.8363 78.1284C91.9992 78.2412 92.1871 78.2996 92.4001 78.2996C92.6548 78.2996 92.8762 78.2412 93.0725 78.1284C93.2687 78.0115 93.4274 77.8653 93.5527 77.6774C93.678 77.4936 93.7741 77.2848 93.8409 77.0509C93.9077 76.8171 93.9369 76.5832 93.9369 76.3493C93.9369 76.1781 93.9161 76.0194 93.8701 75.8691C93.8284 75.7187 93.7615 75.5893 93.6738 75.4807C93.5861 75.3679 93.4776 75.2802 93.3481 75.2176C93.2186 75.1549 93.0683 75.1215 92.8971 75.1215C92.6924 75.1215 92.5003 75.1675 92.3207 75.2635C92.1453 75.3554 92.0033 75.4849 91.9031 75.6477H91.8906C91.9031 75.5934 91.9156 75.5266 91.924 75.4473C91.9365 75.3721 91.9449 75.2844 91.9532 75.1967H91.5774C91.5648 75.3094 91.5481 75.4306 91.5273 75.5517C91.5064 75.6728 91.4813 75.7897 91.4562 75.9067L90.7129 79.4815L90.7254 79.4773ZM91.7235 76.4997C91.7778 76.3159 91.853 76.1447 91.9532 75.9902C92.0535 75.8315 92.1746 75.702 92.3166 75.6018C92.4585 75.4974 92.6214 75.4473 92.7968 75.4473C92.9263 75.4473 93.039 75.4723 93.1309 75.5183C93.2228 75.5642 93.3022 75.631 93.3606 75.7104C93.4191 75.7897 93.465 75.8858 93.4901 75.9985C93.5193 76.1071 93.5318 76.224 93.5318 76.3493C93.5318 76.5247 93.511 76.7085 93.465 76.9006C93.4191 77.0927 93.3523 77.2681 93.2604 77.431C93.1685 77.5938 93.0516 77.7233 92.9096 77.8277C92.7676 77.9321 92.5964 77.9822 92.4043 77.9822C92.2748 77.9822 92.1579 77.953 92.0618 77.8987C91.9658 77.8444 91.8864 77.7693 91.8238 77.6774C91.7611 77.5855 91.7152 77.4811 91.6859 77.3683C91.6567 77.2556 91.64 77.1386 91.64 77.0175C91.64 76.8588 91.6651 76.6876 91.7194 76.5039M90.7003 75.1967H90.3078L90.0113 76.6375C89.9737 76.8129 89.9277 76.9799 89.8609 77.1386C89.7983 77.3015 89.7189 77.4435 89.6271 77.5688C89.5352 77.6941 89.4224 77.7943 89.2971 77.8695C89.1718 77.9447 89.0257 77.9822 88.8628 77.9822C88.6707 77.9822 88.5287 77.9279 88.4285 77.8235C88.3282 77.7191 88.2781 77.5771 88.2781 77.3976C88.2781 77.2932 88.2865 77.2055 88.2948 77.1303C88.3074 77.0551 88.3241 76.9674 88.3408 76.8672L88.6874 75.1967H88.2948L87.9566 76.7962C87.9357 76.8922 87.9148 76.9925 87.8981 77.1011C87.8772 77.2096 87.8689 77.3182 87.8689 77.4184C87.8689 77.7024 87.9607 77.9238 88.1403 78.0741C88.3199 78.2245 88.5454 78.2996 88.821 78.2996C89.0132 78.2996 89.1927 78.2537 89.3681 78.1576C89.5435 78.0616 89.6813 77.9321 89.7858 77.7693H89.7983C89.7816 77.8235 89.7691 77.8904 89.7607 77.9697C89.7523 78.0449 89.7398 78.1326 89.7356 78.2286H90.1115C90.1199 78.1535 90.1282 78.0783 90.1407 78.0073C90.1491 77.9363 90.1658 77.8486 90.1867 77.7442L90.7087 75.1925L90.7003 75.1967ZM84.5446 77.5061C84.5989 77.669 84.6824 77.8068 84.7868 77.9238C84.8912 78.0407 85.0207 78.1326 85.171 78.1994C85.3214 78.2662 85.4884 78.2996 85.6763 78.2996C85.9394 78.2996 86.1733 78.2495 86.3821 78.1493C86.5909 78.0491 86.7663 77.9112 86.9125 77.74C87.0587 77.5688 87.1673 77.3725 87.2466 77.147C87.3218 76.9215 87.3635 76.6793 87.3635 76.4287C87.3635 76.2366 87.3385 76.057 87.2842 75.8983C87.2299 75.7354 87.1506 75.5976 87.0503 75.4849C86.9459 75.3679 86.8206 75.2802 86.6745 75.2217C86.5241 75.1591 86.3529 75.1299 86.1608 75.1299C85.9019 75.1299 85.6722 75.18 85.4633 75.276C85.2545 75.3721 85.0791 75.5057 84.9288 75.677C84.7826 75.844 84.6699 76.0445 84.5905 76.27C84.5112 76.4955 84.4694 76.7335 84.4694 76.9883C84.4694 77.1804 84.4986 77.3558 84.5529 77.5145M84.9538 76.4704C85.004 76.2783 85.0791 76.1113 85.1794 75.9609C85.2796 75.8106 85.4091 75.6895 85.5636 75.5934C85.7181 75.5016 85.9019 75.4556 86.1107 75.4556C86.2568 75.4556 86.3863 75.4807 86.4907 75.5308C86.5951 75.5809 86.6828 75.6477 86.7538 75.7354C86.8206 75.8231 86.8707 75.9275 86.9042 76.0486C86.9376 76.1698 86.9543 76.2992 86.9543 76.4454C86.9543 76.625 86.925 76.8045 86.8749 76.9883C86.8206 77.1721 86.7413 77.3391 86.6369 77.4894C86.5325 77.6398 86.403 77.7609 86.2485 77.8528C86.0981 77.9447 85.9227 77.9948 85.7265 77.9948C85.597 77.9948 85.4759 77.9697 85.3715 77.9196C85.2671 77.8695 85.1752 77.8027 85.1042 77.7191C85.029 77.6356 84.9747 77.5354 84.9371 77.4226C84.8954 77.3057 84.8787 77.1846 84.8787 77.0551C84.8787 76.863 84.9037 76.6709 84.9538 76.4788M82.4272 78.2453H82.824L83.133 76.7503C83.1622 76.6166 83.1998 76.4746 83.2458 76.3326C83.2917 76.1865 83.3544 76.057 83.4295 75.9359C83.5047 75.8148 83.5966 75.7187 83.7052 75.6435C83.8137 75.5684 83.9474 75.5308 84.1019 75.5308C84.1562 75.5308 84.2105 75.5308 84.2648 75.5391C84.3191 75.5475 84.3692 75.56 84.4235 75.5767L84.5112 75.18C84.4611 75.1716 84.4068 75.1633 84.3566 75.1549C84.3065 75.1424 84.2481 75.1382 84.1854 75.1382C83.985 75.1382 83.8221 75.1883 83.6843 75.2886C83.5506 75.3888 83.4337 75.5141 83.3376 75.6686H83.3251C83.3418 75.6143 83.3543 75.5475 83.3627 75.4681C83.3711 75.3888 83.3836 75.3053 83.3878 75.2092H83.0119C83.0035 75.3053 82.991 75.3972 82.9785 75.4849C82.966 75.5726 82.9493 75.6603 82.9284 75.748L82.4189 78.2412L82.4272 78.2453ZM78.9192 79.327C79.1029 79.4063 79.2742 79.4606 79.437 79.4899C79.5999 79.5191 79.7711 79.5316 79.9465 79.5316C80.2556 79.5316 80.5062 79.4982 80.6983 79.4272C80.8904 79.3562 81.0449 79.256 81.1618 79.1224C81.2788 78.9887 81.3748 78.8175 81.4416 78.617C81.5085 78.4166 81.5711 78.1827 81.6254 77.9196L82.0764 75.8315C82.1098 75.702 82.1349 75.5809 82.1599 75.4723C82.185 75.3637 82.2017 75.276 82.2184 75.2134H81.8426C81.7841 75.418 81.734 75.6268 81.7006 75.8315H81.688C81.663 75.7062 81.6212 75.6018 81.5586 75.5141C81.4959 75.4264 81.4249 75.3554 81.3372 75.3011C81.2537 75.2468 81.1535 75.205 81.0449 75.18C80.9363 75.1549 80.8194 75.1424 80.7024 75.1424C80.4477 75.1424 80.2263 75.1967 80.0342 75.3011C79.8421 75.4055 79.6793 75.5433 79.5498 75.7187C79.4203 75.8899 79.3201 76.0904 79.2533 76.3159C79.1865 76.5414 79.1572 76.7753 79.1572 77.0134C79.1572 77.1762 79.1781 77.3349 79.2241 77.4811C79.27 77.6314 79.3368 77.7651 79.4245 77.8778C79.5122 77.9906 79.6291 78.0825 79.7628 78.1493C79.9006 78.2161 80.0551 78.2495 80.2347 78.2495C80.6481 78.2495 80.9864 78.1034 81.2537 77.811H81.2662L81.2203 78.0324C81.1744 78.2245 81.1242 78.3915 81.0699 78.5377C81.0115 78.6838 80.9363 78.8091 80.8403 78.9094C80.7442 79.0096 80.6273 79.0848 80.4811 79.1391C80.3391 79.1892 80.1595 79.2142 79.9382 79.2142C79.7711 79.2142 79.6124 79.1975 79.4621 79.1558C79.3118 79.1182 79.1614 79.0514 79.0111 78.9511L78.9108 79.3312L78.9192 79.327ZM79.6459 76.483C79.6918 76.2992 79.767 76.1322 79.8588 75.9818C79.9549 75.8315 80.0718 75.7062 80.2138 75.606C80.3558 75.5057 80.5187 75.4598 80.7066 75.4598C80.8444 75.4598 80.9655 75.4849 81.0699 75.535C81.1744 75.5851 81.2579 75.6519 81.3247 75.7396C81.3915 75.8273 81.4416 75.9275 81.475 76.0445C81.5085 76.1614 81.5252 76.2867 81.5252 76.4203C81.5252 76.5957 81.5001 76.7711 81.4542 76.9507C81.4082 77.1303 81.3331 77.289 81.2412 77.431C81.1451 77.573 81.0282 77.6899 80.882 77.7818C80.74 77.8737 80.573 77.9196 80.3809 77.9196C80.2431 77.9196 80.1219 77.8945 80.0175 77.8486C79.9131 77.8027 79.8296 77.7358 79.7628 77.6523C79.696 77.5688 79.65 77.4727 79.6166 77.36C79.5832 77.2472 79.5707 77.1303 79.5707 77.0008C79.5707 76.8338 79.5957 76.6584 79.6417 76.4788M51.2809 78.2412H51.6734L52.2581 75.5266H53.0056L53.0808 75.205H52.3249L52.3708 74.9795C52.3959 74.8626 52.421 74.7457 52.4502 74.6287C52.4794 74.5118 52.517 74.4116 52.5671 74.3239C52.6131 74.2362 52.6757 74.1652 52.7509 74.1109C52.8261 74.0566 52.9179 74.0315 53.0265 74.0315C53.1184 74.0315 53.1852 74.0399 53.2353 74.0566C53.2813 74.0733 53.3147 74.0858 53.3314 74.09L53.4191 73.7726C53.3523 73.7434 53.2813 73.7267 53.2144 73.7183C53.1435 73.7099 53.0725 73.7058 53.0015 73.7058C52.8219 73.7058 52.6757 73.7434 52.563 73.8185C52.446 73.8937 52.3541 73.9898 52.279 74.1067C52.2038 74.2236 52.1453 74.3531 52.1036 74.4951C52.0618 74.6371 52.0284 74.7707 51.9992 74.9002L51.9323 75.205H51.285L51.2099 75.5266H51.8655L51.2809 78.2412ZM47.8522 77.5187C47.9064 77.6815 47.99 77.8194 48.0944 77.9363C48.1988 78.0532 48.3283 78.1451 48.4786 78.2119C48.6289 78.2788 48.796 78.3122 48.9839 78.3122C49.247 78.3122 49.4809 78.2621 49.6897 78.1618C49.8985 78.0616 50.0739 77.9238 50.2201 77.7525C50.3663 77.5813 50.4748 77.385 50.5542 77.1595C50.6335 76.934 50.6711 76.6918 50.6711 76.4412C50.6711 76.2491 50.6461 76.0695 50.5918 75.9108C50.5375 75.748 50.4581 75.6101 50.3579 75.4974C50.2535 75.3804 50.1282 75.2927 49.982 75.2343C49.8317 75.1716 49.6605 75.1424 49.4684 75.1424C49.2094 75.1424 48.9756 75.1925 48.7709 75.2886C48.5621 75.3846 48.3867 75.5183 48.2405 75.6895C48.0944 75.8565 47.9816 76.057 47.9023 76.2825C47.8229 76.508 47.7853 76.7461 47.7853 77.0008C47.7853 77.1929 47.8146 77.3683 47.8689 77.527M48.2698 76.483C48.3199 76.2909 48.3951 76.1238 48.4953 75.9735C48.5955 75.8231 48.725 75.702 48.8795 75.606C49.034 75.5141 49.2178 75.4681 49.4266 75.4681C49.5728 75.4681 49.6981 75.4932 49.8066 75.5433C49.9152 75.5934 49.9987 75.6603 50.0697 75.748C50.1366 75.8357 50.1867 75.9401 50.2201 76.0612C50.2535 76.1823 50.2702 76.3117 50.2702 76.4579C50.2702 76.6375 50.241 76.8171 50.1909 77.0008C50.1366 77.1846 50.0572 77.3516 49.9528 77.502C49.8484 77.6523 49.7189 77.7734 49.5644 77.8653C49.4099 77.9572 49.2387 78.0073 49.0424 78.0073C48.9129 78.0073 48.7918 77.9822 48.6874 77.9321C48.583 77.882 48.4953 77.8152 48.4201 77.7317C48.345 77.6481 48.2907 77.5479 48.2489 77.4352C48.2071 77.3182 48.1904 77.1971 48.1904 77.0676C48.1904 76.8755 48.2155 76.6834 48.2656 76.4913M44.081 78.2579H44.4819L44.791 76.7628C44.8202 76.6291 44.8578 76.4871 44.9037 76.3452C44.9497 76.199 45.0123 76.0695 45.0875 75.9484C45.1627 75.8273 45.2545 75.7313 45.3631 75.6561C45.4717 75.5809 45.6053 75.5433 45.7599 75.5433C45.8142 75.5433 45.8684 75.5433 45.9227 75.5517C45.977 75.56 46.0271 75.5726 46.0814 75.5893L46.1691 75.1925C46.119 75.1842 46.0647 75.1758 46.0146 75.1675C45.9645 75.1549 45.906 75.1508 45.8434 75.1508C45.6429 75.1508 45.4801 75.2009 45.3422 75.3011C45.2086 75.4013 45.0917 75.5266 44.9956 75.6811H44.9831C44.9998 75.6268 45.0123 75.56 45.0207 75.4807C45.029 75.4013 45.0374 75.3178 45.0457 75.2217H44.6699C44.6615 75.3178 44.649 75.4097 44.6365 75.4974C44.6239 75.5851 44.6072 75.6728 44.5863 75.7605L44.0727 78.2537L44.081 78.2579ZM43.772 76.8463C43.7803 76.7502 43.7887 76.6542 43.797 76.5623C43.8054 76.4663 43.8137 76.3744 43.8137 76.2825C43.8137 75.9359 43.726 75.6644 43.5465 75.4598C43.3669 75.2552 43.0996 75.1549 42.7446 75.1549C42.4982 75.1549 42.2811 75.2092 42.0848 75.3178C41.8927 75.4264 41.7298 75.5684 41.592 75.748C41.4542 75.9275 41.3498 76.1322 41.2788 76.366C41.2078 76.5999 41.1702 76.8463 41.1702 77.0969C41.1702 77.2973 41.2036 77.4769 41.2662 77.6314C41.3289 77.786 41.4166 77.9154 41.5335 78.0198C41.6463 78.1242 41.7799 78.2036 41.9303 78.2537C42.0806 78.3038 42.2476 78.3289 42.423 78.3289C42.5442 78.3289 42.6527 78.3247 42.7488 78.3122C42.8407 78.3038 42.9242 78.2871 42.9952 78.2704C43.0662 78.2537 43.1288 78.237 43.1831 78.2161C43.2374 78.1952 43.2834 78.1785 43.3293 78.1618L43.3585 77.8068C43.2416 77.857 43.108 77.9029 42.9701 77.9447C42.8281 77.9864 42.6653 78.0073 42.4732 78.0073C42.2017 78.0073 41.9804 77.9279 41.8091 77.7693C41.6379 77.6106 41.5502 77.385 41.5502 77.0927C41.5502 77.0092 41.5586 76.9298 41.5669 76.8505H43.7762L43.772 76.8463ZM41.6296 76.5247C41.6546 76.3869 41.6964 76.2533 41.7632 76.128C41.83 76.0027 41.9094 75.8899 42.0054 75.7939C42.1015 75.6978 42.2101 75.6185 42.3354 75.5642C42.4606 75.5057 42.5943 75.4765 42.7446 75.4765C42.991 75.4765 43.1664 75.5517 43.275 75.6978C43.3836 75.8482 43.4379 76.0445 43.4379 76.295C43.4379 76.3326 43.4379 76.366 43.4337 76.4036C43.4337 76.4412 43.4254 76.483 43.4212 76.5247H41.6296ZM39.1071 73.7935H38.7146L37.8918 77.6356C37.871 77.74 37.8501 77.8402 37.8208 77.9405C37.7916 78.0407 37.7624 78.1451 37.7331 78.2537H38.1215C38.1466 78.1451 38.1716 78.0449 38.1967 77.953C38.2259 77.8611 38.2426 77.7818 38.251 77.7191H38.2635C38.2886 77.786 38.322 77.857 38.3637 77.928C38.4055 77.9989 38.464 78.0658 38.535 78.1242C38.606 78.1827 38.6978 78.2328 38.8064 78.2704C38.915 78.308 39.0487 78.3289 39.2032 78.3289C39.4579 78.3289 39.6793 78.2704 39.8714 78.1576C40.0635 78.0449 40.2263 77.8945 40.3558 77.7108C40.4853 77.527 40.5855 77.3182 40.6523 77.0843C40.7191 76.8505 40.7526 76.6124 40.7526 76.3744C40.7526 76.2073 40.7317 76.0528 40.6899 75.9067C40.6481 75.7605 40.5855 75.631 40.502 75.5183C40.4185 75.4055 40.3141 75.3136 40.1846 75.251C40.0551 75.1842 39.9048 75.1549 39.7294 75.1549C39.4788 75.1549 39.2783 75.2009 39.1238 75.2844C38.9693 75.3721 38.8398 75.4849 38.7271 75.631H38.7146L39.1155 73.7977L39.1071 73.7935ZM39.9257 75.5433C40.0175 75.5893 40.0969 75.6561 40.1595 75.7354C40.2222 75.8148 40.2639 75.9108 40.2932 76.0194C40.3224 76.128 40.3349 76.2491 40.3349 76.3744C40.3349 76.5498 40.3141 76.7335 40.2681 76.9257C40.2222 77.1178 40.1512 77.2932 40.0593 77.456C39.9674 77.6189 39.8505 77.7484 39.7043 77.8528C39.5623 77.9572 39.3911 78.0073 39.199 78.0073C39.0528 78.0073 38.9275 77.9822 38.8315 77.9321C38.7313 77.882 38.6519 77.811 38.5934 77.7191C38.535 77.6314 38.4932 77.527 38.464 77.4143C38.4389 77.3015 38.4264 77.1762 38.4264 77.0468C38.4264 76.8797 38.4514 76.7043 38.5016 76.5206C38.5517 76.3368 38.6269 76.1656 38.7271 76.0111C38.8273 75.8565 38.9484 75.7271 39.0946 75.6268C39.2408 75.5266 39.4036 75.4765 39.5916 75.4765C39.721 75.4765 39.8338 75.5016 39.9257 75.5475M32.8428 78.262H33.2353L33.5527 76.721C33.582 76.5874 33.6237 76.4454 33.678 76.2992C33.7323 76.153 33.8033 76.0194 33.891 75.8941C33.9787 75.773 34.0789 75.6728 34.1959 75.5934C34.3128 75.5141 34.4464 75.4765 34.6051 75.4765C34.7889 75.4765 34.9184 75.535 34.9935 75.6435C35.0729 75.7563 35.1105 75.8983 35.1105 76.0653C35.1105 76.1823 35.1021 76.2867 35.0854 76.3786C35.0687 76.4704 35.052 76.5623 35.0311 76.6542L34.6928 78.262H35.0854L35.4028 76.721C35.432 76.5874 35.4696 76.4454 35.5281 76.2992C35.5824 76.153 35.6534 76.0194 35.7411 75.8941C35.8246 75.773 35.929 75.6728 36.0459 75.5934C36.1629 75.5141 36.3007 75.4765 36.4552 75.4765C36.639 75.4765 36.7684 75.535 36.8436 75.6435C36.9229 75.7563 36.9605 75.8983 36.9605 76.0653C36.9605 76.1823 36.9522 76.2867 36.9355 76.3786C36.9188 76.4704 36.9021 76.5623 36.8812 76.6542L36.5429 78.262H36.9355L37.2821 76.6208C37.3072 76.508 37.328 76.4036 37.3447 76.295C37.3615 76.1906 37.3698 76.1071 37.3698 76.0486C37.3698 75.773 37.2946 75.5517 37.1401 75.393C36.9856 75.2343 36.7768 75.1549 36.5137 75.1549C36.2715 75.1549 36.0626 75.2134 35.8914 75.3345C35.7202 75.4556 35.5824 75.6185 35.4863 75.8357H35.4738C35.4654 75.6143 35.3903 75.4431 35.2483 75.3303C35.1063 75.2176 34.9267 75.1591 34.7137 75.1591C34.6093 75.1591 34.5174 75.1675 34.4297 75.1883C34.3462 75.2092 34.2669 75.2385 34.1917 75.2802C34.1165 75.322 34.0455 75.3763 33.9787 75.4431C33.9119 75.5099 33.8409 75.5934 33.7699 75.6853H33.7574C33.7866 75.5684 33.8075 75.418 33.8242 75.2259H33.4483C33.44 75.3053 33.4316 75.393 33.4191 75.4849C33.4066 75.5767 33.3898 75.6603 33.3731 75.7354L32.8553 78.2579L32.8428 78.262ZM32.5337 76.8505C32.5421 76.7544 32.5504 76.6584 32.5588 76.5665C32.5671 76.4704 32.5713 76.3786 32.5713 76.2867C32.5713 75.9401 32.4836 75.6686 32.304 75.464C32.1244 75.2593 31.8572 75.1591 31.5022 75.1591C31.2558 75.1591 31.0386 75.2134 30.8465 75.322C30.6544 75.4306 30.4874 75.5726 30.3537 75.7521C30.2159 75.9317 30.1115 76.1363 30.0405 76.3702C29.9695 76.6041 29.9319 76.8505 29.9319 77.1011C29.9319 77.3015 29.9612 77.4811 30.028 77.6356C30.0906 77.7901 30.1783 77.9196 30.2911 78.024C30.4038 78.1284 30.5375 78.2078 30.6878 78.2579C30.8382 78.308 31.001 78.333 31.1806 78.333C31.3017 78.333 31.4103 78.3289 31.5064 78.3163C31.5982 78.308 31.6818 78.2913 31.7528 78.2746C31.8238 78.2579 31.8864 78.2412 31.9407 78.2203C31.995 78.1994 32.0409 78.1827 32.0869 78.166L32.1161 77.811C31.9992 77.8611 31.8655 77.9071 31.7277 77.9488C31.5857 77.9906 31.4187 78.0115 31.2307 78.0115C30.9593 78.0115 30.7421 77.9321 30.5667 77.7734C30.3955 77.6147 30.3078 77.3892 30.3078 77.0969C30.3078 77.0134 30.312 76.934 30.3245 76.8547H32.5295L32.5337 76.8505ZM30.3913 76.5289C30.4164 76.3911 30.4581 76.2575 30.525 76.1322C30.5918 76.0069 30.6711 75.8941 30.7672 75.7981C30.8632 75.702 30.9718 75.6227 31.0971 75.5684C31.2224 75.5099 31.356 75.4807 31.5022 75.4807C31.7486 75.4807 31.924 75.5558 32.0367 75.702C32.1453 75.8524 32.1996 76.0486 32.1996 76.2992C32.1996 76.3368 32.1996 76.3702 32.1954 76.4078C32.1954 76.4454 32.1871 76.4871 32.1829 76.5289H30.3913ZM24.9121 78.262H25.3047L25.6179 76.721C25.6471 76.5874 25.6889 76.4454 25.7432 76.2992C25.7975 76.153 25.8684 76.0194 25.952 75.8941C26.0397 75.773 26.1399 75.6728 26.2568 75.5934C26.3738 75.5141 26.5116 75.4765 26.6661 75.4765C26.8499 75.4765 26.9793 75.535 27.0545 75.6435C27.1338 75.7563 27.1714 75.8983 27.1714 76.0653C27.1714 76.1823 27.1631 76.2867 27.1464 76.3786C27.1297 76.4704 27.113 76.5623 27.0921 76.6542L26.7538 78.262H27.1464L27.4596 76.721C27.4888 76.5874 27.5306 76.4454 27.5849 76.2992C27.6392 76.153 27.7102 76.0194 27.7979 75.8941C27.8814 75.773 27.9858 75.6728 28.1027 75.5934C28.2197 75.5141 28.3575 75.4765 28.512 75.4765C28.6958 75.4765 28.8252 75.535 28.9004 75.6435C28.9756 75.7563 29.0173 75.8983 29.0173 76.0653C29.0173 76.1823 29.009 76.2867 28.9923 76.3786C28.9756 76.4704 28.9589 76.5623 28.938 76.6542L28.5997 78.262H28.9923L29.3389 76.6208C29.364 76.508 29.3848 76.4036 29.4015 76.295C29.4182 76.1906 29.4266 76.1071 29.4266 76.0486C29.4266 75.773 29.3473 75.5517 29.1927 75.393C29.0382 75.2343 28.8294 75.1549 28.5705 75.1549C28.3283 75.1549 28.1194 75.2134 27.9482 75.3345C27.777 75.4556 27.6392 75.6185 27.5389 75.8357H27.5264C27.5181 75.6143 27.4429 75.4431 27.3009 75.3303C27.1589 75.2176 26.9793 75.1591 26.7663 75.1591C26.6619 75.1591 26.5701 75.1675 26.4824 75.1883C26.3988 75.2092 26.3195 75.2385 26.2443 75.2802C26.1691 75.322 26.1023 75.3763 26.0313 75.4431C25.9645 75.5099 25.8935 75.5934 25.8225 75.6853H25.81C25.8392 75.5684 25.8601 75.418 25.8768 75.2259H25.5009C25.4926 75.3053 25.4842 75.393 25.4717 75.4849C25.4592 75.5767 25.4425 75.6603 25.4258 75.7354L24.9079 78.2579L24.9121 78.262ZM22.7112 76.721C22.7404 76.5999 22.7572 76.4913 22.7697 76.3869C22.7822 76.2825 22.7864 76.2032 22.7864 76.1447C22.7864 75.8273 22.7029 75.5851 22.5316 75.4139C22.3646 75.2426 22.114 75.1591 21.7841 75.1591C21.6045 75.1591 21.4375 75.18 21.2746 75.2259C21.1117 75.2719 20.9781 75.3178 20.8695 75.3596L20.8277 75.7396C20.9321 75.6895 21.0616 75.631 21.2203 75.5684C21.379 75.5057 21.546 75.4765 21.7256 75.4765C21.9344 75.4765 22.0973 75.535 22.2059 75.6435C22.3186 75.7563 22.3729 75.9192 22.3729 76.128C22.3729 76.2449 22.3688 76.3452 22.3562 76.4329C22.2978 76.4245 22.2351 76.4203 22.1641 76.4162C22.0931 76.412 22.0221 76.4078 21.9428 76.4078C21.7549 76.4078 21.5586 76.4203 21.3581 76.4496C21.1535 76.4788 20.9655 76.5289 20.7943 76.6083C20.6231 76.6876 20.4811 76.7962 20.3683 76.934C20.2556 77.0718 20.2013 77.2514 20.2013 77.4769C20.2013 77.6022 20.2222 77.7191 20.2681 77.8235C20.3141 77.9279 20.3767 78.0157 20.456 78.0908C20.5354 78.166 20.6273 78.2245 20.7317 78.2662C20.8361 78.308 20.9488 78.3289 21.0658 78.3289C21.2913 78.3289 21.4876 78.2913 21.6588 78.2119C21.8259 78.1326 21.9762 77.9989 22.1015 77.811H22.114C22.0973 77.8778 22.0848 77.9488 22.0806 78.024C22.0722 78.0992 22.0639 78.1785 22.0555 78.2579H22.4314C22.4398 78.1535 22.4523 78.0365 22.469 77.9071C22.4857 77.7776 22.5108 77.6523 22.5442 77.5396L22.7029 76.7168L22.7112 76.721ZM20.7526 77.076C20.8444 76.9758 20.9572 76.9048 21.0908 76.8547C21.2245 76.8045 21.3665 76.7711 21.521 76.7544C21.6755 76.7377 21.8175 76.7294 21.9428 76.7294C22.0054 76.7294 22.0681 76.7294 22.1265 76.7335C22.185 76.7377 22.2476 76.7377 22.3103 76.7377C22.2894 76.8964 22.2518 77.0509 22.2017 77.2055C22.1474 77.36 22.0764 77.4936 21.9887 77.6147C21.901 77.7317 21.7924 77.8277 21.663 77.8987C21.5335 77.9697 21.3832 78.0073 21.2078 78.0073C21.1326 78.0073 21.0574 77.9948 20.9864 77.9697C20.9154 77.9447 20.8528 77.9112 20.7985 77.8653C20.7442 77.8194 20.7024 77.7651 20.669 77.6983C20.6356 77.6314 20.6189 77.5563 20.6189 77.4686C20.6189 77.3015 20.6649 77.1679 20.7567 77.0718" fill="black"/>
<path d="M77.3489 73.8603H55.0436V78.546H77.3489V73.8603Z" fill="#FFCE07"/>
<path d="M68.8837 77.3809C68.5705 77.3809 68.2698 77.3224 68.0944 77.2556V74.7874H68.7375V75.6185C68.8211 75.5893 68.9589 75.5684 69.0674 75.5684C69.6145 75.5684 69.9904 75.8732 69.9904 76.412C69.9904 77.0718 69.5978 77.385 68.8795 77.385M68.938 75.9693C68.8628 75.9693 68.7835 75.986 68.7333 76.0069V76.9465C68.7709 76.9591 68.8461 76.9674 68.9213 76.9674C69.1886 76.9674 69.3431 76.7837 69.3431 76.4579C69.3431 76.1489 69.1927 75.9735 68.9338 75.9735" fill="black"/>
<path d="M71.0679 77.3809C70.4038 77.3809 70.0739 77.1762 70.0739 76.8004C70.0739 76.3368 70.6461 76.2282 71.2808 76.199V76.1322C71.2808 75.9902 71.1639 75.9275 70.9468 75.9275C70.7421 75.9275 70.4999 75.986 70.3496 76.0361L70.1909 75.677C70.3788 75.6143 70.6419 75.5391 71.0261 75.5391C71.6024 75.5391 71.8906 75.7354 71.8906 76.199V77.2598C71.7319 77.3266 71.4061 77.385 71.0679 77.385M71.2808 76.5373C70.9342 76.5498 70.6711 76.5832 70.6711 76.792C70.6711 76.934 70.8173 77.0134 71.047 77.0134C71.1389 77.0134 71.2391 77.0008 71.2808 76.9841V76.5331V76.5373Z" fill="black"/>
<path d="M73.3189 77.3391V76.199C73.3189 76.0528 73.2353 75.9568 73.0056 75.9568C72.8845 75.9568 72.7801 76.0027 72.7801 76.0027V77.3433H72.137V75.677C72.3708 75.6018 72.6507 75.5391 73.014 75.5391C73.6738 75.5391 73.9662 75.7605 73.9662 76.1447V77.3475H73.323L73.3189 77.3391Z" fill="black"/>
<path d="M75.5072 77.3391L74.8599 76.4663H74.8515V77.3391H74.2167V74.7832H74.8515V76.3368H74.8599L75.4446 75.5851H76.1712L75.5156 76.4036L76.2255 77.3391H75.5072Z" fill="black"/>
<path d="M66.8791 78.0449H66.2025L66.5199 77.3391L65.7265 75.5851H66.4281L66.8582 76.8338L67.28 75.5851H67.9816L66.8791 78.0449Z" fill="black"/>
<path d="M63.5256 74.9837H62.7739L62.2769 76.4412L61.7799 74.9837H61.0282L60.6899 77.3391H61.3038L61.5001 75.7229L62.0723 77.3391H62.4815L63.0537 75.7229L63.2499 77.3391H63.8639L63.5256 74.9837Z" fill="black"/>
<path d="M64.9371 77.3809C64.2731 77.3809 63.9432 77.1762 63.9432 76.8004C63.9432 76.3368 64.5153 76.2282 65.1501 76.199V76.1322C65.1501 75.9902 65.0332 75.9275 64.816 75.9275C64.6114 75.9275 64.3692 75.986 64.2188 76.0361L64.0601 75.677C64.2481 75.6143 64.5655 75.5391 64.8954 75.5391C65.4717 75.5391 65.7599 75.7354 65.7599 76.199V77.2598C65.6012 77.3266 65.2754 77.385 64.9413 77.385M65.1543 76.5373C64.8077 76.5498 64.5446 76.5832 64.5446 76.792C64.5446 76.934 64.6907 77.0134 64.9204 77.0134C65.0123 77.0134 65.1125 77.0008 65.1543 76.9841V76.5331V76.5373Z" fill="black"/>
<path d="M58.1341 74.1986C57.0482 74.1986 56.1712 75.0756 56.1712 76.1614C56.1712 77.2472 57.0482 78.1242 58.1341 78.1242C59.2199 78.1242 60.0969 77.2472 60.0969 76.1614C60.0969 75.0756 59.2157 74.1986 58.1341 74.1986ZM58.1341 77.9697C57.1359 77.9697 56.3257 77.1595 56.3257 76.1656C56.3257 75.1716 57.1359 74.3573 58.1341 74.3573C59.1322 74.3573 59.9424 75.1675 59.9424 76.1656C59.9424 77.1637 59.1322 77.9697 58.1341 77.9697Z" fill="black"/>
<path d="M57.3531 76.0695C57.2111 76.0319 57.09 76.199 57.0232 76.3201C57.0441 76.1489 57.2529 75.8732 57.3531 76.0695Z" fill="black"/>
<path d="M57.0441 76.0737C57.09 75.9108 57.2028 75.8524 57.2612 75.9025C57.1819 75.9275 57.1234 75.9735 57.0441 76.0737Z" fill="black"/>
<path d="M57.399 76.3326C57.47 76.27 57.4617 76.1823 57.3531 76.153C57.2696 76.1322 57.09 76.2825 57.0733 76.4454C57.1443 76.3535 57.3489 76.1865 57.4032 76.3326" fill="black"/>
<path d="M58.5266 76.7628C58.5392 76.5498 58.3345 76.4537 58.2928 76.2324C58.2552 76.0152 58.6143 75.6644 58.3846 75.3094C58.8148 75.6561 58.4765 75.8649 58.6937 76.153C58.6101 76.128 58.5266 76.0528 58.5016 76.0152C58.3805 76.1739 58.7981 76.3911 58.5224 76.7628" fill="black"/>
<path d="M58.2218 75.205C58.2719 75.1466 58.2218 75.0714 58.0213 75.0463C58.2343 75.1508 57.8918 75.1716 57.8793 75.3512C57.7665 75.393 57.6747 75.322 57.6204 75.3721C57.5661 75.4222 57.5034 75.3888 57.5201 75.3303C57.4575 75.3637 57.47 75.4514 57.5327 75.4807C57.5452 75.4849 57.5577 75.4974 57.5452 75.5057C57.4784 75.5726 57.445 75.6268 57.516 75.6937C57.5536 75.6185 57.5744 75.5934 57.6204 75.56C57.6621 75.5851 57.7331 75.5684 57.8334 75.4598C57.8375 75.4556 57.8459 75.4598 57.8417 75.4598C57.7665 75.7271 57.5661 75.773 57.5034 75.7563C57.541 75.8148 57.7958 75.8482 57.825 75.7354C57.896 75.4807 58.1424 75.3679 57.9294 75.3763C57.9879 75.3095 58.18 75.2468 58.2218 75.1967M57.6872 75.5099C57.6872 75.5099 57.658 75.489 57.6538 75.4598C57.6747 75.5099 57.7248 75.4849 57.6956 75.4139C57.7123 75.4139 57.7415 75.4139 57.7958 75.4139C57.7373 75.4431 57.7123 75.5141 57.6872 75.5141" fill="black"/>
<path d="M56.6933 75.9401C56.7601 75.7647 56.9188 75.56 57.1819 75.4055C57.2403 75.251 57.2236 75.1466 57.8543 74.9002C57.871 74.8083 57.8668 74.6955 57.896 74.6955C57.9252 74.6955 58.0171 74.7373 58.0839 74.8334C58.1132 74.8334 58.1341 74.8292 58.1549 74.825C58.1675 74.7707 58.2051 74.6204 58.2552 74.5452C58.3011 74.4742 58.3888 74.4658 58.5016 74.5619C58.6185 74.658 58.702 74.6955 58.8649 74.9044C59.0027 74.967 59.2157 75.0463 59.3995 75.2719C59.3201 75.2176 59.2282 75.2009 59.1531 75.1925C59.3034 75.3262 59.4036 75.5433 59.3285 75.8607C59.2992 75.5642 59.0779 75.4389 58.9442 75.3429C59.0152 75.5934 58.702 75.5057 58.606 75.3178C58.6394 75.3262 58.6686 75.3262 58.6895 75.3178C58.6811 74.9336 58.4974 74.7122 58.418 74.6496C58.3136 74.5661 58.2593 74.7707 58.2259 74.9252C58.2134 74.9753 58.1716 75.0129 58.1132 75.0129C58.1257 74.9962 58.1382 74.9461 58.1424 74.9294C57.9837 74.9419 57.8041 75.038 57.6956 75.0839C57.4157 75.2092 57.3447 75.2719 57.2821 75.4849C57.0608 75.5809 56.806 75.8357 56.6974 75.9568" fill="black"/>
<path d="M58.0881 75.8858C58.1173 75.9234 58.3011 76.199 58.0881 76.554C58.1466 76.295 57.9837 75.7939 57.8041 76.0486C57.9252 76.0988 57.967 76.199 57.9336 76.295C57.8835 76.2032 57.7582 76.1029 57.6329 76.1447C57.5703 76.1656 57.4867 76.1656 57.4283 76.0737C57.3489 75.9568 57.4826 75.8106 57.2529 75.8231C57.5327 75.6811 57.4492 75.9568 57.587 75.9902C57.7415 76.0278 57.7624 75.9317 57.8125 75.8691C57.8543 75.8148 57.9378 75.7772 58.0213 75.8315C58.0631 75.7104 58.0046 75.5141 58.1174 75.4139C58.1591 75.3763 58.2928 75.3804 58.3638 75.4347C58.2635 75.4347 58.1466 75.5517 58.0923 75.8816" fill="black"/>
<path d="M59.5122 75.4013C59.6542 75.8983 59.6124 76.3744 59.4705 76.6584C59.4872 76.4788 59.3326 76.2199 59.3953 75.9108C59.0988 76.199 59.5623 76.9089 58.89 77.3725C58.9902 77.2096 59.0361 76.8087 58.9985 76.6584C59.0361 76.6751 59.0695 76.7168 59.0946 76.7544C59.1489 76.5707 59.1572 76.3076 59.0528 76.0403C59.0904 76.0445 59.1656 76.0779 59.199 76.1113C59.2157 75.702 58.915 75.6728 58.8607 75.56C58.8607 75.6811 58.9985 75.7814 59.0278 75.9359C58.9275 75.8899 58.8565 75.8858 58.8064 75.8899C58.8816 75.9442 59.0487 76.27 59.0027 76.5331C58.9317 76.4704 58.8649 76.4454 58.7897 76.437C58.8774 76.5748 58.915 76.9257 58.8023 77.0885C58.8023 77.0509 58.7855 76.9465 58.7438 76.9006C58.6895 77.0969 58.535 77.1804 58.4306 77.2055C58.5642 77.0676 58.535 76.8212 58.3429 76.7586C58.1675 76.7001 57.9503 76.8171 57.8584 77.2305C57.7331 77.2681 57.3573 77.1888 57.5828 76.9424C57.7206 76.9883 58.0672 76.7544 58.0464 76.5916C58.0129 76.3619 57.8041 76.2825 57.6413 76.2867C57.4366 76.2867 57.2988 76.4788 57.1318 76.5623C56.9939 76.5414 56.9438 76.5206 56.8728 76.3368C56.8645 76.224 56.9856 76.1447 56.9814 76.0278C56.8812 76.0486 56.8561 75.8983 56.664 76.0528C56.6473 76.0236 56.6724 75.9609 56.6724 75.9609C56.6014 76.0236 56.5888 76.1029 56.5847 76.1196C56.6181 76.1865 56.6682 76.2491 56.7643 76.3117C56.877 76.6166 56.9939 76.65 57.1151 76.6625C57.1359 76.6918 57.2236 76.8004 57.3364 76.8171C57.3155 76.7586 57.3155 76.5999 57.3239 76.5581C57.5703 76.3117 57.754 76.4621 57.7749 76.5289C57.5577 76.5749 57.7123 77.0426 57.3489 76.8338C57.3322 76.8839 57.3531 77.0008 57.399 77.0718C57.4366 77.3934 57.8417 77.314 57.967 77.3683C57.9545 77.0551 58.1257 76.8296 58.2761 76.8463C58.4264 76.863 58.464 77.1094 58.2092 77.3349C58.2719 77.3683 58.5433 77.3224 58.6811 77.2222C58.6937 77.3015 58.5934 77.5354 58.464 77.7024C59.5289 77.456 60.005 76.2992 59.508 75.3971M56.8144 76.27C56.7643 76.2366 56.6849 76.153 56.6766 76.1238C56.6849 76.1113 56.7267 76.0653 56.7851 76.0528C56.8269 76.0445 56.8478 76.0653 56.8436 76.0737C56.8394 76.0904 56.8018 76.0904 56.7935 76.1196C56.7768 76.1656 56.8311 76.1781 56.8394 76.199C56.8478 76.2115 56.8603 76.2449 56.8185 76.27M57.1735 76.625C57.186 76.5957 57.2362 76.5581 57.2612 76.5581C57.2529 76.6375 57.2821 76.7461 57.2821 76.7461C57.2821 76.7461 57.1735 76.6793 57.1735 76.625ZM57.729 76.7001C57.754 76.7001 57.7791 76.7252 57.8041 76.7085C57.8292 76.6918 57.8041 76.6166 57.7833 76.5916C57.8083 76.5916 57.9044 76.5957 57.9002 76.6333C57.8877 76.7252 57.8334 76.7544 57.6914 76.8212C57.7164 76.8004 57.7123 76.7502 57.729 76.7001ZM57.4492 77.005C57.4492 77.005 57.399 76.9465 57.4032 76.8964C57.4492 76.9257 57.5118 76.9424 57.5118 76.9424C57.5118 76.9424 57.4826 76.9925 57.4492 77.0092" fill="black"/>
</g>
<rect x="1" y="1" width="110" height="110" rx="9" stroke="black" stroke-opacity="0.1" stroke-width="2"/>
<defs>
<clipPath id="clip0_647_988">
<rect x="2" y="2" width="108" height="108" rx="8" fill="white"/>
</clipPath>
</defs>
</svg>
