<svg width="112" height="112" viewBox="0 0 112 112" fill="none" xmlns="http://www.w3.org/2000/svg">
<g clip-path="url(#clip0_511_161)">
<rect x="2" y="2" width="108" height="108" rx="8" fill="white"/>
<path d="M56.0424 16.3875H89.1326C90.5876 16.3875 91.9544 16.63 93.1449 17.5118C94.7762 18.5921 95.7683 20.4218 95.8124 22.3839C95.8344 26.1316 95.8344 29.8573 95.8344 33.5609L95.8564 89.4682C95.8564 90.6145 95.8344 91.7168 95.3053 92.7529C94.4235 94.6929 92.6378 96.0377 90.5435 96.3023C89.9924 96.3904 89.4192 96.4125 88.868 96.4125L23.7458 96.3904C23.0183 96.3904 22.2467 96.3464 21.5192 96.3023C18.1242 96.0157 15.611 93.0616 15.8756 89.6666C15.8756 67.4448 15.8976 45.267 15.8756 23.0232C15.8756 21.0832 16.4267 19.4298 17.8817 18.085C18.9399 17.0709 20.3287 16.4757 21.7837 16.4316C22.7537 16.4096 23.7458 16.4096 24.7158 16.4096L56.0424 16.3875Z" fill="#E2261D"/>
<path d="M35.3638 28.3141H29.147C28.0668 28.3141 27.8243 28.5566 27.8022 29.5928V32.9437C27.8022 33.9137 28.0668 34.1562 28.9927 34.1782L36.7968 34.2885C38.2297 34.3105 39.6407 34.2885 41.0516 34.3105C42.9034 34.3325 44.5568 34.9719 46.0338 36.0962C49.4288 38.7196 49.7154 43.9003 46.8495 46.9425C45.2843 48.64 43.0797 49.61 40.765 49.5659C36.885 49.588 33.027 49.5659 29.147 49.5439C28.0447 49.5439 27.8022 49.8084 27.8022 50.9107V54.2616C27.8243 55.2757 28.1329 55.5844 29.147 55.5844C32.6743 55.5844 36.1795 55.6064 39.6847 55.5844C40.6327 55.5844 41.5807 55.5182 42.5066 55.408C45.9016 55.0773 49.032 53.4019 51.1704 50.7123C54.5213 46.7662 55.2929 41.2548 53.1766 36.5371C50.95 31.1139 46.5409 28.4905 40.7429 28.27C38.9793 28.248 37.1716 28.2921 35.3638 28.3141ZM69.865 28.2921C77.625 28.2921 83.93 34.3987 83.93 41.9603C83.93 49.5219 77.625 55.6284 69.8429 55.6284C62.0609 55.6284 55.7779 49.5219 55.7779 41.9823C55.7779 34.4428 62.0829 28.2921 69.865 28.2921ZM69.865 50.1612C74.2079 50.1612 77.7572 46.4796 77.7572 41.9603C77.7572 37.441 74.23 33.7594 69.8429 33.7594C65.5 33.7594 61.9286 37.441 61.9286 41.9603C61.9506 46.5016 65.5 50.1612 69.865 50.1612ZM34.3718 68.503C34.1072 68.1723 34.1954 67.8196 34.1954 67.4889V58.1857C34.1293 57.5684 33.9088 57.348 33.3577 57.2157C33.1593 57.1716 32.9388 57.1275 32.7404 57.1275H29.1029C28.1329 57.1496 27.8243 57.4582 27.8243 58.4062V83.1632C27.8243 84.1112 28.0888 84.3757 29.0147 84.3978H32.4759C33.975 84.3978 34.1954 84.2214 34.1954 82.6562V77.1448C34.1954 76.5275 34.3277 75.9764 34.7907 75.5355C35.43 74.8741 36.0693 74.2128 36.7527 73.5955C37.2597 73.1105 37.6345 73.1546 38.0975 73.7057C38.5384 74.2348 38.9352 74.7859 39.3541 75.315L45.5929 83.4939C46.0338 84.045 46.585 84.3978 47.3125 84.3978L52.6475 84.3757C52.9341 84.3757 53.2647 84.3978 53.4411 83.9348C53.3088 83.7143 53.1545 83.3837 52.9341 83.1191L45.4386 73.5073L42.4184 69.5612C41.9113 68.8998 41.9334 68.5471 42.5066 67.9298C42.5947 67.8416 42.6609 67.7534 42.7491 67.6653L48.1722 62.2862L52.3168 58.1637C52.5372 57.9212 52.9341 57.7448 52.7577 57.2598C52.6254 57.2378 52.4932 57.1716 52.3609 57.1496C50.5972 57.1275 48.8777 57.0834 47.1141 57.0834C46.1 57.0834 45.2843 57.4803 44.5568 58.2298C41.4704 61.4705 38.34 64.623 35.1875 67.8196C34.967 68.1062 34.7907 68.4368 34.3718 68.503ZM55.822 64.8875V67.4669C55.8661 69.2525 55.7118 70.9941 55.9984 72.7578C57.0786 79.7903 63.3836 84.8387 70.5043 84.3537C77.9777 84.1553 83.9079 77.9825 83.8638 70.5091C83.9079 66.5409 83.8638 62.5948 83.8638 58.6266V58.0975C83.7977 57.5023 83.5552 57.1937 82.96 57.1937C81.527 57.1716 80.1381 57.1716 78.7052 57.1937C78.11 57.2157 77.8675 57.5244 77.8454 58.0975V59.0014C77.8013 62.9916 77.7793 66.9818 77.7131 70.9941C77.6911 72.7137 77.0959 74.3891 76.0597 75.7559C73.5245 79.1509 68.7186 79.8564 65.3016 77.3212C63.1191 75.6898 61.8845 73.1105 61.9506 70.3989C61.9286 66.4307 61.9727 62.4846 62.0168 58.5164C62.0168 57.4141 61.7522 57.1716 60.65 57.1496H57.1227C56.0645 57.1716 55.8441 57.4141 55.8441 58.4944V64.8875H55.822Z" fill="white"/>
</g>
<rect x="1" y="1" width="110" height="110" rx="9" stroke="black" stroke-opacity="0.1" stroke-width="2"/>
<defs>
<clipPath id="clip0_511_161">
<rect x="2" y="2" width="108" height="108" rx="8" fill="white"/>
</clipPath>
</defs>
</svg>
