<svg width="112" height="112" viewBox="0 0 112 112" fill="none" xmlns="http://www.w3.org/2000/svg">
<g clip-path="url(#clip0_511_164)">
<rect x="2" y="2" width="108" height="108" rx="8" fill="white"/>
<g clip-path="url(#clip1_511_164)">
<path d="M52.1095 63.4568V64.483C52.1095 65.4621 52.1106 66.4416 52.1095 67.4207C52.1079 68.1962 51.5605 68.7254 50.7641 68.7243C49.9773 68.7238 49.4348 68.2016 49.4348 67.4346C49.4337 61.488 49.4096 55.5414 49.4476 49.5948C49.4605 47.5815 50.4835 46.0588 52.1598 44.9887C54.9556 43.2042 58.8038 43.9149 60.7008 46.5441C61.3987 47.5108 61.7522 48.5911 61.7511 49.787C61.7479 52.8313 61.7843 55.8767 61.7383 58.9204C61.7077 60.9283 60.7116 62.4638 59.0234 63.489C56.8419 64.814 54.5914 64.822 52.3484 63.5822C52.2868 63.5484 52.2241 63.5168 52.11 63.4563L52.1095 63.4568ZM52.0924 54.1885C52.0983 54.1885 52.1041 54.1885 52.1095 54.1885C52.1095 55.7101 52.1095 57.2312 52.1095 58.7528C52.1095 59.3173 52.2445 59.8502 52.553 60.322C53.3879 61.5989 54.6027 62.1034 56.0878 61.9331C57.7123 61.7467 59.1225 60.4495 59.1139 58.629C59.1 55.738 59.0935 52.8474 59.0839 49.9563C59.0839 49.8674 59.0839 49.7785 59.0839 49.6896C59.0839 48.9746 58.8381 48.3447 58.3796 47.8064C57.5141 46.791 56.3953 46.4145 55.0831 46.5478C53.4308 46.716 52.1202 48.0689 52.0966 49.6783C52.0747 51.1817 52.0918 52.6851 52.0918 54.1885H52.0924Z" fill="#00B9D3"/>
<path d="M95.999 52.1222C95.999 54.3117 96.0006 56.5017 95.999 58.6912C95.9968 61.3659 93.975 63.7712 91.3377 64.2339C91.168 64.2639 91.1369 64.3277 91.1401 64.4996C91.1615 65.5311 91.1867 66.5643 91.1626 67.5953C91.1471 68.2669 90.4921 68.7575 89.7529 68.7227C89.0819 68.6911 88.5468 68.155 88.5468 67.501C88.5468 66.5043 88.5532 65.5076 88.5623 64.5108C88.5639 64.3491 88.5425 64.258 88.3443 64.2275C86.2374 63.9013 84.2455 61.9732 83.8438 59.8844C83.741 59.351 83.6874 58.8138 83.6885 58.2691C83.6955 54.0235 83.6971 49.7779 83.7019 45.5323C83.7019 45.2474 83.719 44.9635 83.8577 44.7027C84.1271 44.1971 84.7436 43.9432 85.3493 44.0895C85.9878 44.2437 86.3514 44.6856 86.352 45.3235C86.3536 48.5991 86.3525 51.8747 86.3525 55.1504C86.3525 56.2451 86.3862 57.3415 86.345 58.4346C86.2716 60.375 87.6888 61.5421 89.0813 61.8667C90.815 62.271 92.742 61.2063 93.2203 59.5749C93.3237 59.223 93.3607 58.8599 93.3607 58.4957C93.3633 54.1344 93.3623 49.7726 93.3623 45.4113C93.3623 44.6427 93.6836 44.225 94.4286 44.0782C95.2422 43.9181 95.9947 44.4654 95.9931 45.3133C95.9882 47.5831 95.9915 49.8529 95.9915 52.1222H95.999Z" fill="#00B9D3"/>
<path d="M78.5997 56.2039C78.5997 58.4652 78.5997 60.7264 78.5997 62.9877C78.5997 63.6475 78.198 64.1333 77.5419 64.2698C76.9356 64.3962 76.3036 64.0915 76.0588 63.5318C75.9785 63.3486 75.9351 63.2999 75.7284 63.4097C73.6551 64.5109 71.538 64.6496 69.4347 63.5372C67.8312 62.6888 66.7386 61.3884 66.3985 59.5647C66.0552 57.7271 66.602 56.1247 67.8617 54.7793C69.0132 53.5496 70.455 52.901 72.1544 52.8351C73.3311 52.7896 74.5078 52.8185 75.6845 52.8169C75.9282 52.8169 75.9785 52.7435 75.9758 52.5153C75.963 51.5716 75.9731 50.6279 75.9699 49.6842C75.9646 48.1835 74.692 46.7733 73.1983 46.5917C72.0543 46.453 71.0313 46.693 70.131 47.446C69.5043 47.9698 68.5724 47.9066 68.1381 47.3201C67.6812 46.7037 67.7417 46.1006 68.4107 45.5457C69.3431 44.7724 70.4159 44.2968 71.6194 44.127C73.6932 43.8351 75.5131 44.3707 77.0068 45.851C78.071 46.9056 78.6098 48.2028 78.6082 49.7126C78.6056 51.8758 78.6077 54.0396 78.6077 56.2028C78.6055 56.2028 78.6029 56.2028 78.6007 56.2028L78.5997 56.2039ZM73.9979 55.3106C73.5255 55.3106 73.0531 55.3127 72.5813 55.3106C72.0682 55.3079 71.569 55.3845 71.0918 55.5767C69.9076 56.0534 69.146 56.898 68.9875 58.1765C68.8359 59.3971 69.3099 60.3901 70.3034 61.1152C71.5139 61.999 73.314 62.0193 74.5549 61.1742C75.4365 60.5738 75.9308 59.7356 75.9635 58.6708C75.9956 57.6222 75.9673 56.5719 75.9742 55.5221C75.9753 55.3593 75.9271 55.3057 75.7627 55.3079C75.1746 55.3159 74.5865 55.3111 73.9984 55.3111L73.9979 55.3106Z" fill="#00B9D3"/>
<path d="M16.0093 54.1837C16.0093 52.7863 16.042 51.3879 16.0024 49.9916C15.9215 47.1209 17.9187 44.9892 20.2951 44.2967C22.9661 43.5185 25.8582 44.4788 27.3531 46.6426C28.963 48.9724 28.5431 52.1013 26.3681 53.9651C25.1684 54.9935 23.7684 55.4921 22.1954 55.5092C21.099 55.521 20.0016 55.5173 18.9053 55.5066C18.7012 55.5044 18.6551 55.5617 18.6573 55.7583C18.668 56.6838 18.6605 57.6093 18.6621 58.5353C18.6653 60.3011 20.1157 61.7579 21.8863 61.7815C22.8879 61.7949 23.7711 61.5175 24.5343 60.8367C25.3007 60.1533 26.5802 60.5973 26.7661 61.5865C26.8394 61.9764 26.7179 62.3176 26.4372 62.5822C23.5027 65.3517 18.4955 64.6945 16.6044 61.1056C16.2086 60.3531 16.0131 59.5454 16.0109 58.6965C16.0067 57.1926 16.0099 55.6881 16.0099 54.1842L16.0093 54.1837ZM20.6395 53.0134C21.0851 53.0134 21.5312 53.0139 21.9768 53.0134C22.5156 53.0123 23.0421 52.9443 23.5499 52.751C25.8282 51.8822 26.3997 49.094 24.6339 47.4508C23.4701 46.3678 21.4782 46.2216 20.1125 47.1273C19.1784 47.747 18.6792 48.6189 18.6642 49.7431C18.6508 50.7575 18.6669 51.7725 18.6567 52.7869C18.6546 52.9829 18.7215 53.0204 18.9004 53.0172C19.4799 53.0064 20.0594 53.0134 20.6389 53.0134H20.6395Z" fill="#006090"/>
<path d="M39.049 44C40.9557 44.0991 42.7692 44.8104 44.0519 46.5789C44.4676 47.152 44.3144 47.8857 43.7322 48.2858C43.1307 48.6993 42.0612 48.5466 41.6552 47.9387C40.7008 46.5093 38.1267 45.9613 36.4648 47.266C34.9341 48.4679 35.0851 50.5138 36.7867 51.5379C37.8557 52.1811 38.9323 52.8115 40.005 53.4483C40.6258 53.8168 41.2556 54.1703 41.8646 54.5575C43.2196 55.4182 44.1414 56.5954 44.4001 58.2107C44.6989 60.0773 44.0519 61.6021 42.6407 62.8211C40.238 64.8959 36.4675 65.0438 33.9058 63.1714C33.4275 62.8216 33.0226 62.3996 32.6632 61.9288C32.3424 61.5084 32.2433 61.0617 32.4892 60.5855C32.7527 60.0741 33.2165 59.8571 33.7719 59.8743C34.2919 59.8898 34.7247 60.0923 35.0525 60.5325C35.9726 61.7703 37.7433 62.2689 39.3195 61.7585C40.2086 61.4703 40.9396 60.9813 41.3692 60.1217C41.9771 58.9049 41.4822 57.4325 40.1984 56.6543C38.5525 55.6565 36.9035 54.6625 35.2528 53.6733C33.977 52.909 33.043 51.8624 32.6938 50.3998C32.2524 48.5525 32.8373 46.9902 34.2105 45.7246C35.5099 44.527 37.0936 44.0397 39.049 44Z" fill="#006090"/>
</g>
</g>
<rect x="1" y="1" width="110" height="110" rx="9" stroke="black" stroke-opacity="0.1" stroke-width="2"/>
<defs>
<clipPath id="clip0_511_164">
<rect x="2" y="2" width="108" height="108" rx="8" fill="white"/>
</clipPath>
<clipPath id="clip1_511_164">
<rect width="80" height="24.7248" fill="white" transform="translate(16 44)"/>
</clipPath>
</defs>
</svg>
