<svg width="112" height="112" viewBox="0 0 112 112" fill="none" xmlns="http://www.w3.org/2000/svg">
<g clip-path="url(#clip0_511_163)">
<rect x="2" y="2" width="108" height="108" rx="8" fill="white"/>
<g clip-path="url(#clip1_511_163)">
<path d="M30.0934 33.0078C28.8461 32.3229 27.493 32 25.8336 32C21.5071 32 19.0292 34.6728 19.0292 39.3334V40.8425H17.6148C16.7239 40.8425 16 41.5663 16 42.4573V42.6354C16 43.5264 16.7239 44.2447 17.6148 44.2447H19.0292V60.3928C19.0292 61.2837 19.753 62.0076 20.644 62.0076H21.1451C22.0361 62.0076 22.7599 61.2837 22.7599 60.3928V44.2391H27.8494C28.7403 44.2391 29.4642 43.5152 29.4642 42.6299V42.4517C29.4642 41.5608 28.7403 40.8369 27.8494 40.8369H22.7488V39.4504C22.7488 35.8198 24.603 35.3966 25.9951 35.3966C26.9083 35.3966 27.7102 35.6027 28.4842 36.0259C28.7904 36.2152 29.1301 36.2709 29.4475 36.1706C29.776 36.0704 30.0433 35.8198 30.1936 35.4802L30.6057 34.6171C30.9064 33.9433 30.6948 33.303 30.0934 33.0023V33.0078Z" fill="#02194B"/>
<path d="M33.3675 40.8425H33.8687C34.7596 40.8425 35.4835 41.5663 35.4835 42.4573V60.3872C35.4835 61.2782 34.7596 62.002 33.8687 62.002H33.3731C32.4822 62.002 31.7583 61.2782 31.7583 60.3872V42.4517C31.7583 41.5608 32.4822 40.8369 33.3731 40.8369L33.3675 40.8425Z" fill="#02194B"/>
<path d="M45.6849 40.358C40.5899 40.358 37.7891 43.2034 37.7891 48.3764V60.3928C37.7891 61.2837 38.5129 62.0076 39.4039 62.0076H39.905C40.796 62.0076 41.5198 61.2837 41.5198 60.3928V48.7383C41.5198 45.247 42.7671 43.7603 45.6905 43.7603C48.6139 43.7603 49.8612 45.247 49.8612 48.7383V60.3928C49.8612 61.2837 50.5851 62.0076 51.476 62.0076H51.9771C52.8681 62.0076 53.5919 61.2837 53.5919 60.3928V48.3708C53.5919 43.2034 50.7855 40.3524 45.6961 40.3524L45.6849 40.358Z" fill="#02194B"/>
<path d="M63.9431 40.358C58.7479 40.358 55.8857 43.2647 55.8857 48.5379V66.8465C55.8857 67.7374 56.6096 68.4613 57.5006 68.4613H58.0017C58.8926 68.4613 59.6165 67.7374 59.6165 66.8465V60.9775C60.7692 61.9798 62.3339 62.4865 64.2716 62.4865C69.233 62.4865 71.967 59.5798 71.967 54.3066V48.5323C71.967 43.2591 69.1161 40.3524 63.9487 40.3524L63.9431 40.358ZM63.9431 43.7603C66.9556 43.7603 68.2363 45.2971 68.2363 48.8998V53.9057C68.2363 57.5363 66.95 59.0898 63.9431 59.0898C60.9362 59.0898 59.6109 57.4416 59.6109 53.9057V48.8998C59.6109 45.2971 60.9084 43.7603 63.9431 43.7603Z" fill="#009CA6"/>
<path d="M75.9096 40.358C73.3593 40.358 71.171 41.171 69.3668 42.8025C68.8545 43.3148 68.8323 43.9663 69.2722 44.4841L69.9515 45.3639C70.2355 45.7481 70.564 45.8428 70.7867 45.8595C71.015 45.8762 71.3603 45.8205 71.7055 45.4697C72.7802 44.395 74.2725 43.7547 75.698 43.7547C78.8497 43.7547 80.1916 45.3416 80.1916 49.0557V49.1893H75.8985C71.054 49.1893 68.1641 51.6561 68.1641 55.7934C68.1641 59.9306 71.0262 62.4809 75.8205 62.4809C81.0436 62.4809 83.9168 59.5631 83.9168 54.2621V48.6492C83.9168 43.2981 81.0714 40.3469 75.8985 40.3469L75.9096 40.358ZM80.2028 52.5192V53.9057C80.2028 57.5362 78.8942 59.0898 75.8261 59.0898C74.0331 59.0898 71.8948 58.5218 71.8948 55.8045C71.8948 53.0872 74.228 52.5192 76.188 52.5192H80.1972H80.2028Z" fill="#FFB81C"/>
<path d="M94.391 40.8425H93.8899C92.9989 40.8425 92.275 41.5663 92.275 42.4573V53.5048C92.275 56.9293 90.9498 58.5274 88.1044 58.5274C85.259 58.5274 83.9337 57.024 83.9337 53.5048V42.4517C83.9337 41.5608 83.2098 40.8369 82.3189 40.8369H81.8177C80.9268 40.8369 80.2085 41.5608 80.2085 42.4517V53.9001C80.2085 59.0731 82.8702 61.9185 87.7035 61.9185C89.5967 61.9185 91.1447 61.4229 92.2806 60.4708V61.0053C92.2806 63.9732 90.766 65.0423 87.9095 65.0423C86.0497 65.0423 84.6409 64.5078 83.349 63.3273C83.0873 63.0656 82.7588 62.9375 82.4303 62.9542C82.0962 62.9821 81.7788 63.1603 81.5449 63.4721L80.9324 64.2906C80.537 64.8419 80.5927 65.4655 81.105 65.9722C82.937 67.6316 85.2033 68.4334 88.0264 68.4334C92.9488 68.4334 96.0002 65.5156 96.0002 60.8216V42.4517C96.0002 41.5608 95.2764 40.8369 94.3854 40.8369L94.391 40.8425Z" fill="#E4002B"/>
<path d="M18.4614 76.7358L18.0884 79.0633C18.0717 79.1914 17.9993 79.2527 17.8712 79.2527H17.2086C17.0527 79.2527 16.9914 79.1803 17.0192 79.0244L17.4035 76.6244L16.0893 73.4616C16.0225 73.3168 16.0949 73.2166 16.2508 73.2166H17.0248C17.1362 73.2166 17.2141 73.2723 17.2587 73.3781L18.0828 75.5943L19.6252 73.3503C19.6865 73.2612 19.77 73.2166 19.8814 73.2166H20.6832C20.867 73.2166 20.9171 73.328 20.8168 73.4728L18.4559 76.7358H18.4614Z" fill="#02194B"/>
<path d="M23.7122 76.023C23.7122 76.14 23.7011 76.2569 23.6844 76.385L23.4839 77.6657C23.3002 78.7905 22.6543 79.3529 21.5517 79.3529C20.5049 79.3529 19.9258 78.8462 19.9258 77.9664C19.9258 77.855 19.9369 77.7269 19.9592 77.5933L20.1597 76.3126C20.3378 75.1878 20.9838 74.6254 22.0919 74.6254C23.1164 74.6254 23.7067 75.1265 23.7067 76.023H23.7122ZM22.515 77.5488L22.6877 76.424C22.7044 76.3237 22.7155 76.2235 22.7155 76.14C22.7155 75.6945 22.4983 75.4773 22.0529 75.4773C21.535 75.4773 21.2343 75.7947 21.1341 76.4351L20.9615 77.5599C20.9448 77.6601 20.9336 77.7604 20.9336 77.8439C20.9336 78.2893 21.1508 78.5065 21.5907 78.5065C22.1086 78.5065 22.4148 78.1891 22.515 77.5543V77.5488Z" fill="#02194B"/>
<path d="M27.7882 77.7214C27.6156 78.8128 26.9864 79.3585 25.9172 79.3585C24.9261 79.3585 24.3525 78.8684 24.3525 78.0054C24.3525 77.8996 24.3637 77.7771 24.3804 77.649L24.8147 74.9261C24.8314 74.798 24.9038 74.7368 25.0319 74.7368H25.6054C25.7613 74.7368 25.8226 74.8091 25.7947 74.9651L25.366 77.6546C25.3548 77.7158 25.3493 77.7993 25.3493 77.9107C25.3493 78.3116 25.5609 78.5121 25.9785 78.5121C26.4852 78.5121 26.7413 78.2281 26.8416 77.6211L27.2703 74.9316C27.287 74.8036 27.3594 74.7423 27.4875 74.7423H28.0332C28.1891 74.7423 28.2504 74.8147 28.2225 74.9706L27.7882 77.7325V77.7214Z" fill="#02194B"/>
<path d="M29.0691 76.2959C29.2473 75.1767 29.832 74.6254 30.8232 74.6254C31.2408 74.6254 31.586 74.7145 31.87 74.8982C31.9758 74.9706 31.9981 75.0709 31.9257 75.1878L31.6918 75.5664C31.6194 75.6778 31.5192 75.6945 31.4023 75.6221C31.2464 75.5219 31.0737 75.4773 30.8844 75.4773C30.4334 75.4773 30.1605 75.7502 30.0659 76.307L29.6315 79.0578C29.6148 79.1858 29.5425 79.2471 29.4144 79.2471H28.8408C28.6849 79.2471 28.6237 79.1747 28.6515 79.0188L29.0803 76.2959H29.0691Z" fill="#02194B"/>
<path d="M35.6677 75.7947H37.728C37.8839 75.7947 37.9451 75.8671 37.9229 76.023L37.8393 76.552C37.8226 76.6801 37.7502 76.7414 37.6222 76.7414H35.5229L35.1498 79.0578C35.1331 79.1858 35.0607 79.2471 34.9327 79.2471H34.27C34.1141 79.2471 34.0529 79.1747 34.0807 79.0188L34.9717 73.4059C34.9884 73.2779 35.0607 73.2166 35.1888 73.2166H38.5409C38.6969 73.2166 38.7581 73.289 38.7303 73.4449L38.6467 73.9739C38.63 74.102 38.5576 74.1632 38.4296 74.1632H35.9294L35.6677 75.8003V75.7947Z" fill="#02194B"/>
<path d="M38.7637 79.2471C38.6078 79.2471 38.5465 79.1747 38.5744 79.0188L39.2259 74.9205C39.2426 74.7924 39.315 74.7312 39.443 74.7312H40.0166C40.1725 74.7312 40.2337 74.8036 40.2059 74.9595L39.5544 79.0578C39.5377 79.1858 39.4653 79.2471 39.3372 79.2471H38.7637ZM39.3818 73.4449C39.3818 73.0718 39.6435 72.8101 39.9999 72.8101C40.3562 72.8101 40.5567 73.0273 40.5567 73.3558C40.5567 73.7178 40.2838 73.985 39.933 73.985C39.6045 73.985 39.3873 73.7679 39.3873 73.4505L39.3818 73.4449Z" fill="#02194B"/>
<path d="M43.502 76.4073C43.5187 76.2959 43.5299 76.2012 43.5299 76.1177C43.5299 75.6889 43.3238 75.4829 42.9006 75.4829C42.4106 75.4829 42.1211 75.7947 42.0208 76.4128L41.6032 79.0633C41.5865 79.1914 41.5141 79.2527 41.3861 79.2527H40.8125C40.6566 79.2527 40.5954 79.1803 40.6232 79.0244L41.0464 76.2903C41.219 75.1822 41.8538 74.6254 42.9452 74.6254C43.9642 74.6254 44.5377 75.1098 44.5377 75.9785C44.5377 76.062 44.5266 76.179 44.4988 76.3516L44.07 79.0578C44.0533 79.1858 43.9809 79.2471 43.8528 79.2471H43.2793C43.1234 79.2471 43.0621 79.1747 43.09 79.0188L43.4965 76.4017L43.502 76.4073Z" fill="#02194B"/>
<path d="M46.8375 75.5887L46.4811 77.8439C46.47 77.8773 46.47 77.933 46.47 77.9998C46.47 78.3339 46.6593 78.5065 47.0324 78.5065C47.1493 78.5065 47.2607 78.4898 47.3776 78.4452C47.5224 78.4007 47.6171 78.4341 47.6393 78.5733L47.7284 78.9631C47.7563 79.0967 47.7173 79.1914 47.6115 79.2359C47.3999 79.3195 47.166 79.364 46.882 79.364C45.9744 79.364 45.4677 78.9408 45.4677 78.1501C45.4677 78.0388 45.4788 77.9218 45.4955 77.7937L45.8408 75.5943H45.4844C45.3285 75.5943 45.2672 75.5219 45.2951 75.366L45.3675 74.9316C45.3842 74.8036 45.4566 74.7423 45.5846 74.7423H45.9744L46.1359 73.7512C46.1526 73.6231 46.225 73.5618 46.3531 73.5618H46.9266C47.0825 73.5618 47.1438 73.6342 47.1159 73.7901L46.96 74.7423H48.0403C48.1962 74.7423 48.2574 74.8147 48.2296 74.9706L48.1628 75.4049C48.1461 75.533 48.0737 75.5943 47.9456 75.5943H46.8208L46.8375 75.5887Z" fill="#02194B"/>
<path d="M52.0942 76.023C52.0942 76.14 52.0831 76.2569 52.0664 76.385L51.9495 77.1144C51.9328 77.2425 51.8604 77.3037 51.7323 77.3037H49.4437L49.4159 77.4819C49.3992 77.5933 49.388 77.688 49.388 77.7937C49.388 78.2949 49.6442 78.5009 50.1954 78.5009C50.4961 78.5009 50.769 78.3896 51.014 78.1835C51.1309 78.0944 51.2312 78.1 51.3147 78.2225L51.543 78.5845C51.6042 78.7014 51.5987 78.7905 51.4984 78.874C51.0919 79.1914 50.6353 79.3529 50.1286 79.3529C49.0038 79.3529 48.3857 78.8517 48.3857 77.9163C48.3857 77.7882 48.3969 77.6545 48.4247 77.5153L48.614 76.307C48.7978 75.1822 49.4326 74.6198 50.5128 74.6198C51.5318 74.6198 52.1054 75.121 52.1054 76.0175L52.0942 76.023ZM49.5718 76.4295L49.5551 76.5576H51.0975L51.1142 76.4239C51.1309 76.3126 51.1421 76.2179 51.1421 76.1233C51.1421 75.6945 50.9249 75.4773 50.4906 75.4773C49.9727 75.4773 49.6832 75.778 49.5718 76.4351V76.4295Z" fill="#02194B"/>
<path d="M55.4742 78.6513C55.5355 78.7682 55.5299 78.8573 55.4297 78.9408C55.0733 79.2248 54.6668 79.3584 54.2047 79.3584C53.1801 79.3584 52.562 78.8406 52.562 77.9218C52.562 77.8383 52.5731 77.7047 52.601 77.5209L52.7847 76.3738C52.9741 75.2045 53.62 74.6198 54.7281 74.6198C55.2292 74.6198 55.6302 74.7479 55.9253 74.9929C56.0255 75.0764 56.0255 75.1655 55.9364 75.2824L55.6357 75.6388C55.5522 75.739 55.4631 75.739 55.3462 75.6555C55.1903 75.5386 54.9898 75.4718 54.7559 75.4718C54.1991 75.4718 53.8761 75.8059 53.7536 76.4908L53.5977 77.4819C53.581 77.5933 53.5699 77.688 53.5699 77.7826C53.5699 78.2615 53.8149 78.5009 54.316 78.5009C54.5332 78.5009 54.7504 78.4174 54.9675 78.2448C55.0845 78.1613 55.1847 78.1724 55.2571 78.2893L55.4742 78.6457V78.6513Z" fill="#02194B"/>
<path d="M60.1126 75.9228C60.1126 76.0676 60.1071 76.2124 60.0792 76.3516L59.6505 79.0578C59.6338 79.1858 59.5614 79.2471 59.4333 79.2471H58.8598C58.7039 79.2471 58.6426 79.1747 58.6704 79.0188L59.0881 76.385C59.1048 76.2847 59.1159 76.1957 59.1159 76.101C59.1159 75.6834 58.9099 75.4718 58.4811 75.4718C57.9967 75.4718 57.7016 75.7836 57.6013 76.3905L57.1726 79.0522C57.1559 79.1803 57.0835 79.2415 56.9554 79.2415H56.3819C56.2259 79.2415 56.1647 79.1691 56.1925 79.0132L57.1392 73.0718C57.1559 72.9438 57.2282 72.8825 57.3563 72.8825H57.9299C58.0858 72.8825 58.147 72.9549 58.1192 73.1108L57.8296 74.9261H57.8463C58.0913 74.7145 58.4032 74.6143 58.7707 74.6143C59.6449 74.6143 60.1126 75.0764 60.1126 75.9117V75.9228Z" fill="#02194B"/>
<path d="M67.2123 73.8068C67.2902 73.9182 67.2735 74.0184 67.1733 74.0964L66.7 74.4973C66.5997 74.5808 66.5106 74.5697 66.4104 74.4583C66.1654 74.1855 65.8202 74.0519 65.3747 74.0519C64.6954 74.0519 64.2555 74.4249 64.2555 75.0152C64.2555 75.405 64.5172 75.6054 65.3079 75.7502C66.4605 75.9618 66.9171 76.4017 66.9171 77.2759C66.9171 78.5566 66.054 79.3529 64.662 79.3529C63.7432 79.3529 63.0639 79.0689 62.6295 78.5176C62.546 78.4174 62.5683 78.3172 62.6741 78.2281L63.1363 77.8272C63.2365 77.7381 63.3256 77.7436 63.4258 77.8606C63.7321 78.2225 64.172 78.4063 64.7232 78.4063C65.3858 78.4063 65.8313 78.0165 65.8313 77.4318C65.8313 77.0587 65.5585 76.8583 64.7845 76.7135C63.6151 76.4963 63.1585 76.0509 63.1585 75.1711C63.1585 74.5474 63.359 74.0351 63.7655 73.6621C64.1775 73.289 64.7288 73.0997 65.4193 73.0997C66.2267 73.0997 66.828 73.3335 67.2011 73.8013L67.2123 73.8068Z" fill="#02194B"/>
<path d="M71.1434 76.023C71.1434 76.14 71.1378 76.2569 71.1155 76.385L70.9151 77.6657C70.7369 78.7905 70.091 79.3529 68.9829 79.3529C67.9416 79.3529 67.3569 78.8462 67.3569 77.9664C67.3569 77.855 67.3625 77.7269 67.3959 77.5933L67.5964 76.3126C67.7801 75.1878 68.4205 74.6254 69.5286 74.6254C70.5531 74.6254 71.1434 75.1265 71.1434 76.023ZM69.9462 77.5488L70.1188 76.424C70.1355 76.3237 70.1467 76.2235 70.1467 76.14C70.1467 75.6945 69.9295 75.4773 69.484 75.4773C68.9662 75.4773 68.6655 75.7947 68.5653 76.4351L68.3926 77.5599C68.3759 77.6601 68.3648 77.7604 68.3648 77.8439C68.3648 78.2893 68.582 78.5065 69.0163 78.5065C69.5341 78.5065 69.8404 78.1891 69.9462 77.5543V77.5488Z" fill="#02194B"/>
<path d="M71.8784 79.2471C71.7225 79.2471 71.6613 79.1747 71.6891 79.0188L72.6302 73.0774C72.6469 72.9493 72.7193 72.8881 72.8473 72.8881H73.4209C73.5768 72.8881 73.638 72.9604 73.6102 73.1164L72.6636 79.0578C72.6469 79.1858 72.5745 79.2471 72.4464 79.2471H71.8729H71.8784Z" fill="#02194B"/>
<path d="M77.3072 77.7214C77.1346 78.8128 76.5054 79.3585 75.4363 79.3585C74.4451 79.3585 73.8716 78.8684 73.8716 78.0054C73.8716 77.8996 73.8827 77.7771 73.8994 77.649L74.3393 74.9261C74.356 74.798 74.4284 74.7368 74.5565 74.7368H75.13C75.2859 74.7368 75.3472 74.8091 75.3193 74.9651L74.8906 77.6546C74.885 77.7158 74.8739 77.7993 74.8739 77.9107C74.8739 78.3116 75.0799 78.5121 75.4975 78.5121C76.0098 78.5121 76.2604 78.2281 76.3606 77.6211L76.7894 74.9316C76.8061 74.8036 76.8785 74.7423 77.0065 74.7423H77.5522C77.7082 74.7423 77.7694 74.8147 77.7416 74.9706L77.3072 77.7325V77.7214Z" fill="#02194B"/>
<path d="M79.9244 75.5887L79.568 77.8439C79.5569 77.8773 79.5569 77.933 79.5569 77.9998C79.5569 78.3339 79.7462 78.5065 80.1193 78.5065C80.2362 78.5065 80.3476 78.4898 80.4645 78.4452C80.6093 78.4007 80.6984 78.4341 80.7263 78.5733L80.8153 78.9631C80.8432 79.0967 80.8042 79.1914 80.6984 79.2359C80.4868 79.3195 80.2529 79.364 79.969 79.364C79.0613 79.364 78.5546 78.9408 78.5546 78.1501C78.5546 78.0388 78.5657 77.9218 78.5825 77.7937L78.9277 75.5943H78.5713C78.4154 75.5943 78.3542 75.5219 78.382 75.366L78.4544 74.9316C78.4711 74.8036 78.5435 74.7423 78.6715 74.7423H79.0613L79.2228 73.7512C79.2395 73.6231 79.3119 73.5618 79.44 73.5618H80.0135C80.1694 73.5618 80.2307 73.6342 80.2028 73.7901L80.0469 74.7423H81.1272C81.2831 74.7423 81.3443 74.8147 81.3165 74.9706L81.2552 75.4049C81.2385 75.533 81.1662 75.5943 81.0381 75.5943H79.9133L79.9244 75.5887Z" fill="#02194B"/>
<path d="M81.645 79.2471C81.4891 79.2471 81.4279 79.1747 81.4557 79.0188L82.1072 74.9205C82.1239 74.7924 82.1963 74.7312 82.3244 74.7312H82.8979C83.0538 74.7312 83.1151 74.8036 83.0928 74.9595L82.4357 79.0578C82.419 79.1858 82.3467 79.2471 82.2186 79.2471H81.645ZM82.2631 73.4449C82.2631 73.0718 82.5248 72.8101 82.8812 72.8101C83.2376 72.8101 83.438 73.0273 83.438 73.3558C83.438 73.7178 83.1652 73.985 82.8088 73.985C82.4859 73.985 82.2631 73.7679 82.2631 73.4505V73.4449Z" fill="#02194B"/>
<path d="M87.3304 76.023C87.3304 76.14 87.3193 76.2569 87.3026 76.385L87.1021 77.6657C86.9239 78.7905 86.278 79.3529 85.1699 79.3529C84.123 79.3529 83.5439 78.8462 83.5439 77.9664C83.5439 77.855 83.5495 77.7269 83.5774 77.5933L83.7778 76.3126C83.9616 75.1878 84.6019 74.6254 85.71 74.6254C86.7346 74.6254 87.3248 75.1265 87.3248 76.023H87.3304ZM86.1332 77.5488L86.3058 76.424C86.3225 76.3237 86.3337 76.2235 86.3337 76.14C86.3337 75.6945 86.1165 75.4773 85.671 75.4773C85.1532 75.4773 84.8525 75.7947 84.7523 76.4351L84.5797 77.5599C84.5629 77.6601 84.5518 77.7604 84.5518 77.8439C84.5518 78.2893 84.769 78.5065 85.2033 78.5065C85.7212 78.5065 86.0274 78.1891 86.1332 77.5543V77.5488Z" fill="#02194B"/>
<path d="M90.7216 76.4073C90.7383 76.2959 90.7494 76.2012 90.7494 76.1177C90.7494 75.6889 90.5434 75.4829 90.1257 75.4829C89.6357 75.4829 89.3462 75.7947 89.2459 76.4128L88.8283 79.0633C88.8116 79.1914 88.7392 79.2527 88.6112 79.2527H88.0376C87.8817 79.2527 87.8205 79.1803 87.8483 79.0244L88.2715 76.2903C88.4441 75.1822 89.0789 74.6254 90.1703 74.6254C91.1893 74.6254 91.7628 75.1098 91.7628 75.9785C91.7628 76.062 91.7517 76.179 91.7239 76.3516L91.2951 79.0578C91.2784 79.1858 91.206 79.2471 91.0779 79.2471H90.5044C90.3485 79.2471 90.2872 79.1747 90.3151 79.0188L90.7216 76.4017V76.4073Z" fill="#02194B"/>
<path d="M92.2695 78.8684C92.1693 78.7849 92.1693 78.6903 92.2584 78.5789L92.5702 78.2058C92.6537 78.1056 92.7484 78.0945 92.8597 78.1891C93.1159 78.4063 93.4388 78.5176 93.8398 78.5176C94.391 78.5176 94.675 78.3172 94.675 77.9163C94.675 77.6546 94.4857 77.5154 93.901 77.4096C92.9822 77.2369 92.637 76.9084 92.637 76.2179C92.637 75.2435 93.372 74.6254 94.508 74.6254C95.037 74.6254 95.4601 74.7423 95.7998 74.9706C95.9112 75.0542 95.9167 75.1544 95.8277 75.2713L95.5437 75.6333C95.4601 75.7335 95.3711 75.7502 95.2541 75.6722C95.037 75.533 94.7919 75.4718 94.508 75.4718C93.9289 75.4718 93.6337 75.6722 93.6337 76.062C93.6337 76.307 93.8119 76.424 94.3688 76.5298C95.3154 76.7024 95.6662 77.0365 95.6662 77.7659C95.6662 78.7459 94.959 79.364 93.8398 79.364C93.166 79.364 92.6426 79.2025 92.2584 78.874L92.2695 78.8684Z" fill="#02194B"/>
</g>
</g>
<rect x="1" y="1" width="110" height="110" rx="9" stroke="black" stroke-opacity="0.1" stroke-width="2"/>
<defs>
<clipPath id="clip0_511_163">
<rect x="2" y="2" width="108" height="108" rx="8" fill="white"/>
</clipPath>
<clipPath id="clip1_511_163">
<rect width="80" height="47.3585" fill="white" transform="translate(16 32)"/>
</clipPath>
</defs>
</svg>
