<svg width="112" height="112" viewBox="0 0 112 112" fill="none" xmlns="http://www.w3.org/2000/svg">
<g clip-path="url(#clip0_511_168)">
<rect x="2" y="2" width="108" height="108" rx="8" fill="white"/>
<g clip-path="url(#clip1_511_168)">
<path d="M96 46.0154L93.652 40.9134H19.7305V65.5511H93.652L96 59.33V46.0154Z" fill="white"/>
<path d="M61.3585 54.4913C60.9772 54.1347 60.5027 53.9565 59.9294 53.9565C59.3561 53.9565 58.8541 54.1347 58.4591 54.4913C58.0586 54.8479 57.8584 55.2704 57.8584 55.7586C57.8584 56.2743 58.0504 56.7077 58.4207 57.0615C58.7992 57.4181 59.293 57.5964 59.9047 57.5964C60.5164 57.5964 61.0129 57.4318 61.3832 57.0972C61.748 56.7653 61.9345 56.3374 61.9345 55.8135C61.9345 55.2896 61.7425 54.8479 61.3612 54.4913" fill="#EA6011"/>
<path d="M59.8772 51.688C60.2886 51.688 60.626 51.5536 60.8866 51.282C61.15 51.0105 61.2844 50.6594 61.2844 50.2287C61.2844 49.82 61.15 49.4881 60.8866 49.233C60.6178 48.9751 60.2694 48.8462 59.836 48.8462C59.4383 48.8462 59.1091 48.9779 58.8513 49.2412C58.5935 49.5018 58.4673 49.8364 58.4673 50.2479C58.4673 50.6594 58.6044 50.9995 58.876 51.2765C59.1475 51.5536 59.4822 51.6907 59.8799 51.6907" fill="#EA6011"/>
<path d="M31.5088 52.0884C30.7627 52.0884 30.1428 52.3435 29.6546 52.8483C29.1663 53.3557 28.9194 54.0223 28.9194 54.8424C28.9194 55.6626 29.1663 56.3593 29.6546 56.875C30.1456 57.3907 30.7655 57.6513 31.5088 57.6513C32.2522 57.6513 32.8392 57.3879 33.3329 56.8613C33.8267 56.3374 34.0736 55.6653 34.0736 54.8507C34.0736 54.036 33.8294 53.3804 33.3439 52.8647C32.8584 52.3463 32.2467 52.0912 31.5088 52.0912" fill="#EA6011"/>
<path d="M41.4389 52.0884C40.7092 52.0884 40.1003 52.3435 39.6148 52.862C39.1293 53.3777 38.8906 54.0415 38.8906 54.8479C38.8906 55.6543 39.1348 56.3346 39.6285 56.8585C40.1222 57.3852 40.7284 57.6485 41.4471 57.6485C42.1658 57.6485 42.8049 57.3879 43.2959 56.8722C43.7842 56.3566 44.0283 55.679 44.0283 54.8397C44.0283 54.0003 43.7814 53.3557 43.2959 52.8455C42.8049 52.3381 42.1877 52.0857 41.4389 52.0857" fill="#EA6011"/>
<path d="M69.878 54.4913C69.4995 54.1347 69.0195 53.9565 68.4489 53.9565C67.8784 53.9565 67.3736 54.1347 66.9759 54.4913C66.5782 54.8479 66.3779 55.2704 66.3779 55.7586C66.3779 56.2743 66.5672 56.7077 66.9402 57.0615C67.316 57.4181 67.8098 57.5964 68.4215 57.5964C69.0332 57.5964 69.5324 57.4318 69.9 57.0972C70.2648 56.7653 70.4486 56.3374 70.4486 55.8135C70.4486 55.2896 70.2593 54.8479 69.878 54.4913Z" fill="#EA6011"/>
<path d="M68.3972 51.688C68.8059 51.688 69.1433 51.5536 69.4066 51.282C69.67 51.0105 69.8044 50.6594 69.8044 50.2287C69.8044 49.82 69.6672 49.4881 69.4039 49.233C69.1378 48.9751 68.7895 48.8462 68.3533 48.8462C67.9556 48.8462 67.6264 48.9779 67.3713 49.2412C67.1135 49.5018 66.9873 49.8364 66.9873 50.2479C66.9873 50.6594 67.1217 50.9995 67.3933 51.2765C67.6676 51.5536 67.9995 51.6907 68.4 51.6907" fill="#EA6011"/>
<path d="M78.4941 60.6905C78.1046 50.695 95.5556 49.9132 96.0027 49.8968V43.9444C96.0027 41.7665 94.2362 40 92.0583 40H19.9417C17.7638 40 16 41.7665 16 43.9444V63.9382C16 66.1162 17.7638 67.8827 19.9417 67.8827H92.0583C94.2362 67.8827 96.0027 66.1162 96.0027 63.9382V56.1399C80.6199 56.0329 78.4941 60.6933 78.4941 60.6933M25.9462 59.5769H23.5817V50.1464H25.9462V59.5741V59.5769ZM25.8337 48.8901C25.5429 49.1863 25.1918 49.3317 24.7831 49.3317C24.3744 49.3317 24.0014 49.1809 23.7051 48.8791C23.4089 48.5774 23.2608 48.2098 23.2608 47.7737C23.2608 47.3376 23.4061 47.0029 23.7024 46.7067C23.9931 46.4132 24.347 46.265 24.7639 46.265C25.1809 46.265 25.5347 46.4159 25.831 46.7149C26.1272 47.0139 26.2753 47.3787 26.2753 47.8066C26.2753 48.2345 26.13 48.5884 25.8337 48.8874M35.0969 58.4001C34.2081 59.3437 33.1521 59.8155 31.9342 59.8155C31.3938 59.8155 30.8863 59.7195 30.42 59.5275C29.951 59.3327 29.4874 59.0173 29.0238 58.5784V63.0248H26.6786V50.1464H29.0238V51.186C29.4517 50.7608 29.9153 50.4372 30.4091 50.2232C30.9083 50.0092 31.4377 49.9023 32.0055 49.9023C33.2344 49.9023 34.2794 50.3658 35.1408 51.2957C36.0021 52.2256 36.4327 53.4188 36.4327 54.8726C36.4327 56.3264 35.9883 57.451 35.0969 58.3974M72.3031 58.0106C71.9355 58.636 71.4391 59.1051 70.8246 59.4205C70.2074 59.736 69.4175 59.8923 68.4601 59.8923C67.4315 59.8923 66.6141 59.7414 66.0079 59.437C65.4017 59.1352 64.9162 58.6744 64.5513 58.06C64.3813 57.7747 64.2524 57.4702 64.1618 57.152C64.0713 57.451 63.9479 57.7363 63.7833 58.0133C63.4157 58.6388 62.922 59.1078 62.3048 59.4233C61.6876 59.7387 60.8949 59.8951 59.9376 59.8951C58.909 59.8951 58.0916 59.7442 57.4881 59.4397C56.8819 59.138 56.3964 58.6772 56.0315 58.0627C55.6667 57.4483 55.4829 56.7516 55.4829 55.978C55.4829 55.306 55.6311 54.697 55.9218 54.1457C56.2126 53.5916 56.6515 53.0979 57.2357 52.6672C56.8572 52.2805 56.5664 51.869 56.3744 51.4329C56.2236 51.0982 56.133 50.7499 56.0974 50.3878L50.3041 63.0276H47.8601L49.7994 58.8747L46.2884 50.3274V59.5769H43.9239V58.5812C43.4603 59.02 42.9995 59.3355 42.5359 59.5302C42.0696 59.7222 41.5676 59.8182 41.0273 59.8182C39.8066 59.8182 38.756 59.3465 37.8673 58.4029C36.9786 57.4565 36.5342 56.2853 36.5342 54.8781C36.5342 53.4709 36.9649 52.2283 37.8234 51.3012C38.6847 50.3713 39.7271 49.9078 40.9559 49.9078C41.521 49.9078 42.0531 50.012 42.5469 50.2287C43.0434 50.4426 43.5015 50.7663 43.9239 51.1915V50.1519H48.6309L51.0804 56.0658L53.7823 50.1519H56.0837C56.0837 50.119 56.0837 50.086 56.0837 50.0531C56.0837 49.3893 56.2428 48.7859 56.5637 48.24C56.8846 47.6941 57.3317 47.2717 57.9105 46.9672C58.4865 46.6628 59.1531 46.5119 59.9102 46.5119C60.6672 46.5119 61.3091 46.6655 61.8769 46.97C62.4447 47.2772 62.8918 47.7106 63.2182 48.2757C63.5447 48.838 63.7065 49.4414 63.7065 50.0888C63.7065 50.5441 63.6215 50.9666 63.4541 51.3561C63.2841 51.7456 62.9714 52.1817 62.5215 52.67C63.0976 53.0375 63.5447 53.5148 63.8601 54.0963C63.989 54.3322 64.0878 54.5764 64.1646 54.8287C64.2332 54.5928 64.3264 54.3651 64.4416 54.1484C64.7324 53.5944 65.1685 53.1006 65.7528 52.67C65.3688 52.2832 65.0835 51.8717 64.8915 51.4356C64.6967 50.9995 64.6007 50.5414 64.6007 50.0559C64.6007 49.3921 64.7598 48.7886 65.0807 48.2427C65.4017 47.6969 65.8515 47.2745 66.4276 46.97C67.0036 46.6655 67.6729 46.5146 68.43 46.5146C69.187 46.5146 69.8316 46.6683 70.3967 46.9727C70.9618 47.2799 71.4089 47.7133 71.7353 48.2784C72.0617 48.8407 72.2236 49.4442 72.2236 50.0915C72.2236 50.5469 72.1358 50.9693 71.9685 51.3588C71.7956 51.7483 71.4857 52.1845 71.0331 52.6727C71.6119 53.0403 72.059 53.5176 72.3744 54.0991C72.6871 54.6778 72.8462 55.3087 72.8462 55.9835C72.8462 56.7186 72.6624 57.3989 72.2976 58.0216M94.442 48.4814C81.2975 49.6856 78.1594 41.676 78.1594 41.676C95.2841 41.4428 94.442 48.4814 94.442 48.4814Z" fill="#EA6011"/>
<path d="M39.3568 71.1469L38.97 71.0783C39.0139 70.9247 39.088 70.8095 39.195 70.7327C39.2992 70.6586 39.4583 70.623 39.6668 70.623C39.856 70.623 39.9959 70.6449 40.0892 70.6888C40.1825 70.7354 40.2483 70.7903 40.2867 70.8589C40.3251 70.9275 40.3443 71.0564 40.3443 71.2402L40.3388 71.7339C40.3388 71.8738 40.3443 71.978 40.3608 72.0439C40.3745 72.1124 40.3992 72.1838 40.4376 72.2606H40.0179C40.0069 72.2304 39.9932 72.1892 39.9767 72.1344C39.9685 72.1097 39.9658 72.0932 39.9603 72.085C39.889 72.1563 39.8121 72.2084 39.7271 72.2441C39.6448 72.2798 39.557 72.299 39.4638 72.299C39.2992 72.299 39.1703 72.2551 39.0743 72.1646C38.9783 72.074 38.9316 71.9616 38.9316 71.8244C38.9316 71.7339 38.9536 71.6544 38.9975 71.583C39.0414 71.5117 39.1017 71.4596 39.1785 71.4185C39.2581 71.3828 39.3705 71.3471 39.5159 71.3197C39.7134 71.2841 39.8533 71.2484 39.9301 71.2155V71.1743C39.9301 71.092 39.9082 71.0344 39.8698 70.9988C39.8313 70.9631 39.7545 70.9467 39.6421 70.9467C39.568 70.9467 39.5104 70.9604 39.4665 70.9906C39.4254 71.0207 39.3897 71.0701 39.365 71.1442M39.9328 71.4898C39.878 71.509 39.7929 71.5282 39.675 71.5556C39.557 71.5803 39.4775 71.605 39.4446 71.6297C39.387 71.6681 39.3623 71.7174 39.3623 71.7778C39.3623 71.8381 39.3842 71.8875 39.4281 71.9314C39.472 71.9725 39.5296 71.9972 39.5982 71.9972C39.675 71.9972 39.7463 71.9698 39.8149 71.9204C39.867 71.882 39.9027 71.8354 39.9164 71.7805C39.9301 71.7449 39.9328 71.6763 39.9328 71.5748V71.4898Z" fill="#EA6012"/>
<path d="M42.2203 72.2606H41.7952V71.4404C41.7952 71.2676 41.7869 71.1551 41.7677 71.1058C41.7485 71.0536 41.7184 71.0152 41.68 70.9878C41.6388 70.9604 41.5894 70.9439 41.5318 70.9439C41.4578 70.9439 41.3919 70.9659 41.3343 71.0043C41.274 71.0427 41.2356 71.0975 41.2136 71.1634C41.1917 71.2292 41.1835 71.3526 41.1835 71.5309V72.2578H40.7583V70.6559H41.1506V70.8918C41.2904 70.7108 41.4687 70.6202 41.68 70.6202C41.7732 70.6202 41.8582 70.6367 41.9378 70.6724C42.0146 70.7053 42.0722 70.7492 42.1133 70.8013C42.1518 70.8534 42.1819 70.9137 42.1956 70.9796C42.2121 71.0454 42.2203 71.1414 42.2203 71.2648V72.2606Z" fill="#EA6012"/>
<path d="M43.5181 72.2605V70.0469H43.9515L44.8567 71.5254V70.0469H45.2736V72.2605H44.8237L43.9323 70.8177V72.2605H43.5181Z" fill="#EA6012"/>
<path d="M46.2444 72.2605V70.42H45.5889V70.0469H47.3471V70.42H46.6916V72.2605H46.2444Z" fill="#EA6012"/>
<path d="M48.1346 72.2605V70.42H47.479V70.0469H49.2373V70.42H48.5817V72.2605H48.1346Z" fill="#EA6012"/>
<path d="M50.3833 70.0469H51.2007C51.3845 70.0469 51.5244 70.0606 51.6204 70.0908C51.7493 70.1265 51.8618 70.1951 51.955 70.2938C52.0483 70.3926 52.1196 70.5105 52.1663 70.6504C52.2156 70.793 52.2403 70.9658 52.2403 71.1743C52.2403 71.3553 52.2184 71.5117 52.1717 71.6461C52.1169 71.8079 52.0373 71.9369 51.9358 72.0356C51.8563 72.1124 51.7521 72.17 51.6204 72.2112C51.5217 72.2441 51.39 72.2605 51.2254 72.2605H50.3833V70.0442V70.0469ZM50.8304 70.4227V71.8902H51.1623C51.2885 71.8902 51.379 71.882 51.4339 71.8683C51.5052 71.8518 51.5655 71.8217 51.6122 71.7778C51.6615 71.7339 51.6999 71.6626 51.7301 71.5638C51.7603 71.4623 51.774 71.3279 51.774 71.1579C51.774 70.9878 51.7575 70.8561 51.7301 70.7629C51.6972 70.6723 51.6561 70.601 51.6039 70.5489C51.5491 70.4968 51.4805 70.4611 51.3955 70.4447C51.3351 70.431 51.2117 70.4227 51.0279 70.4227H50.8277H50.8304Z" fill="#EA6012"/>
<path d="M54.6159 72.2633H54.1304L53.9384 71.7613H53.0524L52.8686 72.2633H52.394L53.2581 70.0497H53.7299L54.6186 72.2633H54.6159ZM53.793 71.3855L53.4885 70.5654L53.1895 71.3855H53.7957H53.793Z" fill="#EA6012"/>
<path d="M55.1209 72.2605V70.42H54.4653V70.0469H56.2236V70.42H55.568V72.2605H55.1209Z" fill="#EA6012"/>
<path d="M58.2809 72.2633H57.7954L57.6034 71.7613H56.7174L56.5336 72.2633H56.0591L56.9231 70.0497H57.3949L58.2837 72.2633H58.2809ZM57.458 71.3855L57.1535 70.5654L56.8546 71.3855H57.4608H57.458Z" fill="#EA6012"/>
<path d="M60.6781 71.4459L61.1114 71.583C61.0429 71.8244 60.9359 72.0055 60.7823 72.1234C60.6259 72.2414 60.4312 72.299 60.1925 72.299C59.899 72.299 59.6576 72.1975 59.4684 71.9972C59.2791 71.797 59.1831 71.5227 59.1831 71.1743C59.1831 70.8068 59.2791 70.5187 59.4684 70.3158C59.6604 70.1128 59.9073 70.0113 60.22 70.0113C60.4915 70.0113 60.711 70.0908 60.8783 70.2527C60.9798 70.3459 61.0538 70.4831 61.1032 70.6614L60.6616 70.7684C60.6342 70.6532 60.5793 70.5626 60.497 70.4968C60.4147 70.4282 60.3132 70.3953 60.1953 70.3953C60.0307 70.3953 59.899 70.4557 59.7948 70.5709C59.6933 70.6888 59.6412 70.8808 59.6412 71.1442C59.6412 71.4239 59.6933 71.6242 59.7921 71.7394C59.8935 71.8601 60.0225 71.9204 60.1843 71.9204C60.3023 71.9204 60.4037 71.882 60.4915 71.808C60.5766 71.7312 60.6369 71.6132 60.6753 71.4514" fill="#EA6012"/>
<path d="M61.3943 71.4377C61.3943 71.2978 61.4273 71.1606 61.4986 71.029C61.5672 70.8973 61.6659 70.7958 61.7948 70.7272C61.921 70.6559 62.0636 70.623 62.22 70.623C62.4641 70.623 62.6616 70.6998 62.818 70.8589C62.9743 71.018 63.0511 71.2155 63.0511 71.4569C63.0511 71.6982 62.9716 71.9012 62.8152 72.0603C62.6589 72.2194 62.4614 72.299 62.2227 72.299C62.0746 72.299 61.9347 72.266 61.8003 72.2002C61.6659 72.1344 61.5672 72.0384 61.4958 71.9095C61.4245 71.7833 61.3916 71.6242 61.3916 71.4404M61.825 71.4623C61.825 71.6214 61.8607 71.7421 61.9375 71.8299C62.0115 71.9122 62.1048 71.9561 62.2173 71.9561C62.3297 71.9561 62.4202 71.9149 62.4943 71.8299C62.5684 71.7449 62.6068 71.6214 62.6068 71.4596C62.6068 71.2978 62.5711 71.1826 62.4943 71.0975C62.4202 71.0152 62.327 70.9713 62.2173 70.9713C62.1075 70.9713 62.0115 71.0152 61.9375 71.0975C61.8607 71.1826 61.825 71.3033 61.825 71.4623Z" fill="#EA6012"/>
<path d="M63.3496 70.6586H63.7391V70.8781C63.879 70.708 64.0463 70.623 64.2383 70.623C64.3426 70.623 64.4331 70.6422 64.5072 70.6833C64.5812 70.7272 64.6443 70.7903 64.6909 70.8753C64.7623 70.7875 64.8391 70.7244 64.9186 70.6833C65.0009 70.6422 65.0887 70.623 65.1819 70.623C65.2972 70.623 65.3986 70.6449 65.4809 70.6943C65.5605 70.7409 65.6236 70.8122 65.6647 70.9055C65.6949 70.9741 65.7086 71.0838 65.7086 71.2374V72.2633H65.2862V71.3471C65.2862 71.1908 65.2697 71.0865 65.2423 71.0399C65.2011 70.9795 65.1435 70.9494 65.0613 70.9494C65.0009 70.9494 64.946 70.9658 64.8939 71.0042C64.8418 71.0399 64.8034 71.092 64.7815 71.1633C64.7595 71.2346 64.7458 71.3416 64.7458 71.4952V72.266H64.3206V71.3883C64.3206 71.2319 64.3124 71.1304 64.2987 71.0865C64.2822 71.0426 64.2603 71.007 64.2301 70.985C64.1972 70.9603 64.1561 70.9521 64.1012 70.9521C64.0354 70.9521 63.975 70.9686 63.9229 71.0042C63.8708 71.0399 63.8324 71.092 63.8104 71.1578C63.7885 71.2237 63.7775 71.3334 63.7775 71.4897V72.2688H63.3524V70.6641L63.3496 70.6586Z" fill="#EA6012"/>
</g>
</g>
<rect x="1" y="1" width="110" height="110" rx="9" stroke="black" stroke-opacity="0.1" stroke-width="2"/>
<defs>
<clipPath id="clip0_511_168">
<rect x="2" y="2" width="108" height="108" rx="8" fill="white"/>
</clipPath>
<clipPath id="clip1_511_168">
<rect width="80" height="32.2989" fill="white" transform="translate(16 40)"/>
</clipPath>
</defs>
</svg>
