<svg width="112" height="112" viewBox="0 0 112 112" fill="none" xmlns="http://www.w3.org/2000/svg">
<g clip-path="url(#clip0_511_165)">
<rect x="2" y="2" width="108" height="108" rx="8" fill="white"/>
<g clip-path="url(#clip1_511_165)">
<path fill-rule="evenodd" clip-rule="evenodd" d="M16.4956 59.9755C16.3811 59.9755 16.2677 59.953 16.1619 59.9092C16.0561 59.8654 15.96 59.8012 15.879 59.7202C15.7981 59.6393 15.7338 59.5432 15.69 59.4374C15.6462 59.3316 15.6236 59.2183 15.6236 59.1038V52.761C15.6218 52.6453 15.643 52.5305 15.686 52.4231C15.729 52.3157 15.7929 52.2179 15.874 52.1355C15.9552 52.0531 16.0519 51.9876 16.1586 51.9429C16.2653 51.8982 16.3798 51.8752 16.4954 51.8752C16.6111 51.8752 16.7256 51.8982 16.8323 51.9429C16.939 51.9876 17.0357 52.0531 17.1169 52.1355C17.198 52.2179 17.2619 52.3157 17.3049 52.4231C17.3479 52.5305 17.3691 52.6453 17.3673 52.761V59.1038C17.3673 59.335 17.2754 59.5567 17.1119 59.7202C16.9485 59.8836 16.7267 59.9755 16.4956 59.9755Z" fill="#9DDCF9"/>
<path fill-rule="evenodd" clip-rule="evenodd" d="M26.9569 59.9755C26.8424 59.9756 26.729 59.9531 26.6232 59.9093C26.5173 59.8655 26.4211 59.8013 26.3401 59.7204C26.2591 59.6394 26.1948 59.5433 26.151 59.4375C26.1072 59.3317 26.0846 59.2183 26.0846 59.1038V52.7661C26.0827 52.6504 26.1039 52.5355 26.1469 52.4282C26.1899 52.3208 26.2538 52.223 26.335 52.1406C26.4161 52.0581 26.5128 51.9927 26.6195 51.948C26.7262 51.9033 26.8407 51.8803 26.9564 51.8803C27.0721 51.8803 27.1866 51.9033 27.2933 51.948C27.3999 51.9927 27.4967 52.0581 27.5778 52.1406C27.6589 52.223 27.7229 52.3208 27.7658 52.4282C27.8088 52.5355 27.83 52.6504 27.8282 52.7661V59.1038C27.8281 59.3349 27.7363 59.5565 27.573 59.7199C27.4096 59.8834 27.188 59.9753 26.9569 59.9755Z" fill="#00ACDB"/>
<path fill-rule="evenodd" clip-rule="evenodd" d="M21.7264 62.5192C21.4953 62.5191 21.2737 62.4273 21.1102 62.264C20.9467 62.1006 20.8547 61.879 20.8545 61.6479V50.2223C20.8581 49.9935 20.9516 49.7753 21.1147 49.6148C21.2778 49.4542 21.4974 49.3643 21.7263 49.3643C21.9551 49.3643 22.1748 49.4542 22.3379 49.6148C22.501 49.7753 22.5945 49.9935 22.5981 50.2223V61.6479C22.5979 61.879 22.506 62.1006 22.3426 62.264C22.1791 62.4273 21.9575 62.5191 21.7264 62.5192Z" fill="#0256A7"/>
<path fill-rule="evenodd" clip-rule="evenodd" d="M48.9674 52.4595C48.9667 52.3068 49.0261 52.16 49.1327 52.0508C49.2393 51.9415 49.3845 51.8784 49.5371 51.8752C49.6142 51.874 49.6907 51.8883 49.7621 51.9173C49.8336 51.9462 49.8985 51.9892 49.953 52.0437C50.0075 52.0982 50.0505 52.1631 50.0795 52.2345C50.1086 52.3059 50.1229 52.3824 50.1218 52.4595V59.2868C50.1246 59.3631 50.1119 59.4391 50.0845 59.5103C50.057 59.5815 50.0153 59.6464 49.9621 59.7011C49.9088 59.7557 49.8449 59.7989 49.7744 59.8282C49.7039 59.8574 49.6282 59.872 49.5519 59.8711C49.4748 59.8723 49.3983 59.858 49.3268 59.829C49.2554 59.8001 49.1905 59.7571 49.136 59.7026C49.0815 59.6481 49.0385 59.5832 49.0095 59.5118C48.9805 59.4404 48.9662 59.3639 48.9674 59.2868V52.4595Z" fill="#002855"/>
<path fill-rule="evenodd" clip-rule="evenodd" d="M53.2398 55.8998V55.9297C53.2398 57.7577 54.5141 58.9287 55.9685 58.9287C57.408 58.9287 58.7719 57.7141 58.7719 55.9297V55.8998C58.7719 54.1159 57.408 52.9163 55.9685 52.9163C54.4687 52.9163 53.2398 54.0256 53.2398 55.8998ZM59.8816 59.2883C59.8831 59.3651 59.8693 59.4414 59.841 59.5128C59.8126 59.5841 59.7703 59.6491 59.7166 59.7039C59.6628 59.7588 59.5987 59.8023 59.5279 59.832C59.4571 59.8618 59.3811 59.8771 59.3043 59.8771C59.2275 59.8771 59.1515 59.8618 59.0807 59.832C59.0099 59.8023 58.9458 59.7588 58.892 59.7039C58.8382 59.6491 58.796 59.5841 58.7676 59.5128C58.7393 59.4414 58.7255 59.3651 58.7269 59.2883V58.4545C58.0973 59.3841 57.1827 59.9609 55.7582 59.9609C53.8994 59.9609 52.0547 58.4917 52.0547 55.9425V55.9126C52.0547 53.3799 53.8994 51.8796 55.7582 51.8796C57.1976 51.8796 58.1275 52.4414 58.7269 53.3111V49.9217C58.7241 49.8455 58.7368 49.7694 58.7642 49.6982C58.7916 49.627 58.8332 49.5621 58.8864 49.5074C58.9396 49.4527 59.0034 49.4094 59.0738 49.38C59.1443 49.3507 59.22 49.336 59.2963 49.3368C59.3734 49.3356 59.45 49.3499 59.5214 49.3789C59.5929 49.4079 59.6579 49.451 59.7124 49.5055C59.7669 49.5601 59.8099 49.625 59.8389 49.6965C59.8679 49.768 59.8822 49.8446 59.881 49.9217L59.8816 59.2883Z" fill="#002855"/>
<path fill-rule="evenodd" clip-rule="evenodd" d="M89.8811 58.9723C89.8158 58.9235 89.7628 58.8601 89.7264 58.7872C89.69 58.7142 89.6712 58.6338 89.6714 58.5523C89.6734 58.4191 89.7282 58.2922 89.8238 58.1994C89.9193 58.1066 90.0478 58.0556 90.181 58.0574C90.2834 58.0549 90.3837 58.0867 90.466 58.1477C91.1828 58.6659 92.0404 58.9535 92.9247 58.9723C93.8545 58.9723 94.5294 58.4926 94.5294 57.7425V57.713C94.5294 56.9334 93.6147 56.6338 92.595 56.3475C91.3806 56.0026 90.031 55.5829 90.031 54.1588V54.1284C90.031 52.7942 91.1406 51.9093 92.6699 51.9093C93.5357 51.928 94.3842 52.1546 95.144 52.57C95.2293 52.6181 95.3004 52.6877 95.3504 52.7719C95.4003 52.8561 95.4274 52.9518 95.4288 53.0497C95.4268 53.1829 95.3719 53.3099 95.2763 53.4027C95.1807 53.4955 95.0522 53.5465 94.9189 53.5446C94.8305 53.5443 94.7433 53.5238 94.6641 53.4845C94.0517 53.1153 93.3551 52.9089 92.6404 52.8848C91.7253 52.8848 91.1406 53.3644 91.1406 54.0095V54.0395C91.1406 54.7739 92.1004 55.0587 93.1348 55.3736C94.3342 55.7333 95.6235 56.1982 95.6235 57.5927V57.6222C95.6235 59.0921 94.4091 59.9466 92.8646 59.9466C91.7952 59.9265 90.7562 59.5872 89.8811 58.9723Z" fill="#002855"/>
<path fill-rule="evenodd" clip-rule="evenodd" d="M88.0068 55.1431C88.0068 53.3992 86.4771 51.8803 84.6328 51.8803C84.1892 51.8802 83.7498 51.9675 83.3399 52.1372C82.93 52.3069 82.5575 52.5557 82.2437 52.8694C81.93 53.1831 81.6811 53.5555 81.5113 53.9654C81.3414 54.3753 81.254 54.8146 81.254 55.2583V59.2536C81.2527 59.3341 81.2677 59.4141 81.2979 59.4887C81.3282 59.5634 81.3731 59.6312 81.4301 59.6881C81.487 59.745 81.5549 59.79 81.6295 59.8202C81.7042 59.8504 81.7842 59.8653 81.8647 59.864C81.9444 59.8649 82.0234 59.8496 82.097 59.819C82.1705 59.7884 82.2372 59.7432 82.2928 59.6861C82.3483 59.6291 82.3918 59.5613 82.4204 59.4869C82.449 59.4126 82.4623 59.3332 82.4593 59.2536V57.4591V55.1429C82.4593 54.5673 82.688 54.0153 83.095 53.6083C83.502 53.2013 84.054 52.9726 84.6295 52.9726C85.2051 52.9726 85.7571 53.2013 86.1641 53.6083C86.5711 54.0153 86.7997 54.5673 86.7997 55.1429V59.2536C86.7982 59.3337 86.8127 59.4134 86.8423 59.4879C86.8719 59.5624 86.9161 59.6303 86.9723 59.6875C87.0284 59.7448 87.0954 59.7902 87.1693 59.8213C87.2433 59.8523 87.3227 59.8683 87.4029 59.8683C87.483 59.8683 87.5624 59.8523 87.6364 59.8213C87.7103 59.7902 87.7773 59.7448 87.8335 59.6875C87.8896 59.6303 87.9338 59.5624 87.9634 59.4879C87.993 59.4134 88.0075 59.3337 88.006 59.2536C88.006 59.2536 88.0181 55.5188 88.0068 55.1431Z" fill="#002855"/>
<path fill-rule="evenodd" clip-rule="evenodd" d="M79.1947 55.0592H79.1921C79.1163 54.2192 78.7292 53.438 78.1068 52.8688C77.4845 52.2997 76.6718 51.9839 75.8284 51.9833H75.3113C75.1683 51.9862 75.0322 52.045 74.9321 52.1472C74.832 52.2493 74.7759 52.3866 74.7759 52.5296C74.7759 52.6726 74.832 52.81 74.9321 52.9121C75.0322 53.0142 75.1683 53.0731 75.3113 53.0759H75.8258C77.0245 53.0759 78.0854 54.0476 78.0854 55.2459V55.3437C77.3113 55.1174 76.5081 55.0061 75.7016 55.0133C73.7375 55.0133 72.3877 55.8831 72.3877 57.5172V57.5472C72.3877 59.1366 73.7893 59.9612 75.2287 59.9612C75.7984 59.972 76.3614 59.8368 76.8641 59.5686C77.3668 59.3003 77.7925 58.9078 78.1006 58.4285V59.3165C78.1006 59.4617 78.1583 59.601 78.261 59.7037C78.3636 59.8064 78.5029 59.864 78.6481 59.864C78.7933 59.864 78.9326 59.8064 79.0353 59.7037C79.1379 59.601 79.1956 59.4617 79.1956 59.3165V55.0585L79.1947 55.0592ZM75.4353 58.9252C74.3857 58.9252 73.5576 58.4777 73.5576 57.5031V57.4727C73.5576 56.4982 74.3672 55.8685 75.8214 55.8685C76.5912 55.8899 77.356 56.0008 78.1002 56.1989V56.2006C78.1002 57.6209 76.7726 58.9252 75.4353 58.9252Z" fill="#002855"/>
<path fill-rule="evenodd" clip-rule="evenodd" d="M72.1696 52.5282C72.1696 52.3832 72.112 52.2442 72.0095 52.1417C71.9069 52.0392 71.7679 51.9816 71.6229 51.9816H71.2496C70.3538 51.9816 69.4946 52.3375 68.8611 52.971C68.2276 53.6045 67.8717 54.4637 67.8717 55.3595V59.2535C67.8704 59.3341 67.8853 59.414 67.9156 59.4886C67.9458 59.5633 67.9907 59.6311 68.0477 59.688C68.1046 59.7449 68.1724 59.7899 68.2471 59.8201C68.3217 59.8503 68.4016 59.8653 68.4821 59.864C68.5618 59.8649 68.6409 59.8496 68.7145 59.819C68.7881 59.7885 68.8547 59.7433 68.9103 59.6862C68.9659 59.6291 69.0093 59.5613 69.0379 59.487C69.0666 59.4126 69.0798 59.3332 69.0768 59.2535V57.4591V55.2441C69.0768 54.6686 69.3055 54.1167 69.7124 53.7098C70.1194 53.3029 70.6713 53.0742 71.2468 53.0742H71.2498H71.6227C71.7676 53.0742 71.9066 53.0167 72.0091 52.9144C72.1117 52.812 72.1694 52.6731 72.1696 52.5282Z" fill="#002855"/>
<path fill-rule="evenodd" clip-rule="evenodd" d="M65.9553 52.5004C65.9554 52.4335 65.9422 52.3671 65.9166 52.3053C65.891 52.2434 65.8534 52.1871 65.8061 52.1398C65.7587 52.0924 65.7025 52.0548 65.6406 52.0292C65.5788 52.0036 65.5125 51.9904 65.4455 51.9904H63.4215V49.9554C63.4221 49.798 63.3624 49.6465 63.2546 49.5318C63.1468 49.4172 62.9992 49.3482 62.8421 49.3392C62.7657 49.3389 62.6901 49.3539 62.6196 49.3834C62.5492 49.4128 62.4853 49.456 62.4318 49.5104C62.3782 49.5649 62.3362 49.6295 62.308 49.7005C62.2798 49.7715 62.2661 49.8473 62.2677 49.9237V57.7421C62.2677 59.3163 63.2121 59.9312 64.4566 59.9312C64.8466 59.938 65.2339 59.8667 65.5959 59.7215C65.6909 59.69 65.7737 59.6298 65.8328 59.5491C65.892 59.4685 65.9247 59.3714 65.9263 59.2714C65.9251 59.1405 65.8726 59.0154 65.78 58.9229C65.6874 58.8304 65.5622 58.778 65.4314 58.7769C65.201 58.8372 64.9646 58.8722 64.7266 58.8813C63.947 58.8813 63.4226 58.5364 63.4226 57.5921V53.0103H65.4466C65.5816 53.01 65.711 52.9562 65.8064 52.8606C65.9018 52.765 65.9553 52.6355 65.9553 52.5004Z" fill="#002855"/>
<path fill-rule="evenodd" clip-rule="evenodd" d="M43.3433 51.8752C42.8189 51.875 42.3023 52.0025 41.8383 52.2468C41.3743 52.4911 40.9768 52.8448 40.6802 53.2772C40.3867 52.8468 39.9925 52.4945 39.532 52.251C39.0714 52.0076 38.5583 51.8803 38.0373 51.8802C37.1799 51.8803 36.3576 52.221 35.7513 52.8273C35.145 53.4336 34.8043 54.2559 34.8043 55.1133V59.287C34.8031 59.3641 34.8173 59.4407 34.8463 59.5122C34.8753 59.5837 34.9183 59.6486 34.9728 59.7031C35.0274 59.7576 35.0923 59.8006 35.1638 59.8296C35.2353 59.8585 35.3119 59.8728 35.389 59.8715C35.4653 59.8724 35.5411 59.8578 35.6116 59.8286C35.6821 59.7994 35.746 59.7561 35.7993 59.7014C35.8526 59.6468 35.8942 59.5818 35.9217 59.5106C35.9491 59.4394 35.9618 59.3633 35.959 59.287V55.0028C35.959 54.4519 36.1778 53.9237 36.5673 53.5342C36.9567 53.1447 37.485 52.9259 38.0358 52.9259C38.5866 52.9259 39.1148 53.1447 39.5043 53.5342C39.8938 53.9237 40.1126 54.4519 40.1126 55.0028V58.8086V58.8104C40.1126 58.9636 40.1735 59.1104 40.2817 59.2187C40.39 59.327 40.5369 59.3879 40.6901 59.3879C40.8432 59.3879 40.9901 59.327 41.0984 59.2187C41.2067 59.1104 41.2675 58.9636 41.2675 58.8104L41.264 54.9968C41.264 54.4459 41.4828 53.9176 41.8724 53.5281C42.2619 53.1386 42.7902 52.9198 43.3411 52.9198C43.8919 52.9198 44.4202 53.1386 44.8097 53.5281C45.1993 53.9176 45.4181 54.4459 45.4181 54.9968V59.2817C45.4181 59.4348 45.4789 59.5816 45.5872 59.6899C45.6954 59.7981 45.8422 59.859 45.9953 59.859C46.1484 59.859 46.2952 59.7981 46.4035 59.6899C46.5118 59.5816 46.5726 59.4348 46.5726 59.2817L46.5761 55.1133C46.5733 54.2563 46.2319 53.4351 45.6264 52.8286C45.0209 52.2221 44.2003 51.8794 43.3433 51.8752Z" fill="#002855"/>
</g>
</g>
<rect x="1" y="1" width="110" height="110" rx="9" stroke="black" stroke-opacity="0.1" stroke-width="2"/>
<defs>
<clipPath id="clip0_511_165">
<rect x="2" y="2" width="108" height="108" rx="8" fill="white"/>
</clipPath>
<clipPath id="clip1_511_165">
<rect width="80" height="13.1824" fill="white" transform="translate(15.623 49.3368)"/>
</clipPath>
</defs>
</svg>
