<svg width="112" height="112" viewBox="0 0 112 112" fill="none" xmlns="http://www.w3.org/2000/svg">
<g clip-path="url(#clip0_511_167)">
<rect x="2" y="2" width="108" height="108" rx="8" fill="white"/>
<g clip-path="url(#clip1_511_167)">
<path d="M80.5763 44C80.8407 44.073 81.1176 44.0872 81.3775 44.1845C82.1456 44.4728 82.8098 44.9307 83.439 45.4435C84.7685 46.527 85.9091 47.7958 87.0041 49.1072C88.9298 51.4137 90.6539 53.8702 92.3854 56.3215C92.5282 56.5237 92.6703 56.7269 92.7877 56.958C92.6463 56.8405 92.5039 56.7245 92.3642 56.6053C90.5212 55.0312 88.6758 53.4596 86.7265 52.0164C85.1778 50.87 83.5884 49.7868 81.842 48.9558C81.0162 48.5629 80.1678 48.23 79.2569 48.0918C77.5626 47.8347 75.9263 47.975 74.3942 48.8165C73.9895 49.0388 73.5782 49.2486 73.1696 49.464C73.1106 49.4953 73.0567 49.5488 72.9678 49.5092C74.3084 47.7662 75.746 46.1286 77.6213 44.9352C78.2494 44.5357 78.9203 44.2338 79.6536 44.0803C79.7419 44.0618 79.8558 44.1108 79.917 44H80.577H80.5763Z" fill="#0162A8"/>
<path d="M95.9998 62.9977C95.9387 63.0109 95.9679 63.0637 95.9609 63.0963C95.7942 63.8936 95.3036 64.4571 94.6529 64.9018C93.8407 65.457 92.9256 65.7738 91.9834 66.0166C90.4382 66.4148 88.8599 66.5899 87.2712 66.6875C86.0577 66.7622 84.8432 66.7893 83.6279 66.7688C82.2689 66.7462 80.9112 66.6868 79.5553 66.586C78.4019 66.5006 77.2506 66.3957 76.102 66.2598C74.6561 66.0885 73.2151 65.8818 71.7827 65.6157C70.3976 65.3586 69.0201 65.0713 67.6774 64.6364C67.5239 64.5867 67.372 64.5315 67.2202 64.4776C67.2001 64.4703 67.1824 64.4561 67.1685 64.422C67.5374 64.4602 67.9064 64.4998 68.2756 64.536C69.0754 64.6145 69.8751 64.6923 70.6752 64.768C71.3773 64.8344 72.0794 64.9011 72.7822 64.9602C73.4677 65.0178 74.1548 65.0595 74.8403 65.1196C75.7856 65.2027 76.7326 65.2461 77.6803 65.2836C79.317 65.3486 80.9546 65.384 82.592 65.3472C84.0431 65.3145 85.4918 65.2374 86.9335 65.0519C88.2245 64.8858 89.5005 64.6583 90.729 64.2132C91.3786 63.9777 91.997 63.6814 92.5313 63.2339C93.3522 62.546 93.652 61.6841 93.4109 60.6311C93.1733 59.5945 92.6512 58.7047 92.0227 57.8671C91.2956 56.8975 90.4531 56.0294 89.6249 55.1487C89.4689 54.983 89.315 54.8152 89.1552 54.6428C89.2354 54.6091 89.2678 54.6647 89.3053 54.6925C90.7321 55.7431 92.1155 56.8458 93.3679 58.103C94.1735 58.9121 94.9225 59.7692 95.4655 60.785C95.7094 61.2412 95.8966 61.7171 95.9703 62.233C95.972 62.2459 95.9897 62.2566 95.9998 62.2681V62.9973V62.9977Z" fill="#01983E"/>
<path d="M16 54.5928C16.0545 54.6435 16.1188 54.6074 16.1765 54.6074C17.8201 54.6105 19.4637 54.6036 21.1072 54.613C21.7604 54.6168 22.4138 54.647 23.0322 54.9006C24.1009 55.339 24.5685 56.2704 24.5233 57.3241C24.4615 58.7628 23.3897 59.5409 22.1658 59.6278C21.1316 59.7011 20.0952 59.6514 19.0596 59.6622C18.51 59.6677 17.9601 59.6684 17.4101 59.6598C17.2694 59.6577 17.2281 59.6872 17.2291 59.8355C17.2368 60.8423 17.2305 61.8491 17.2361 62.8559C17.2368 62.9886 17.2083 63.0348 17.0665 63.03C16.7254 63.0185 16.3839 63.0258 16.0424 63.0254C16.0379 62.9508 16.0295 62.8761 16.0295 62.8014C16.0288 60.1531 16.0295 57.5048 16.0271 54.8565C16.0271 54.7922 16.0584 54.7196 16 54.6619V54.5925V54.5928ZM19.4755 55.6347C19.4755 55.633 19.4755 55.6309 19.4755 55.6291C18.7813 55.6291 18.0869 55.6323 17.3928 55.6264C17.2635 55.6253 17.2166 55.6496 17.218 55.7931C17.2253 56.6953 17.225 57.5979 17.218 58.5001C17.217 58.6342 17.2555 58.6596 17.3816 58.6592C18.7181 58.6544 20.0546 58.6575 21.3907 58.6554C21.6923 58.6551 21.9897 58.6165 22.2766 58.5164C22.828 58.3243 23.1938 57.8428 23.2236 57.2696C23.2594 56.5842 22.9749 56.0794 22.3992 55.8223C22.0994 55.6882 21.7784 55.6399 21.4529 55.6368C20.7935 55.6309 20.1342 55.635 19.4744 55.635L19.4755 55.6347Z" fill="#080808"/>
<path d="M26.3866 67.0613C26.2692 66.9807 26.126 66.9977 25.9968 66.9612C25.6831 66.8723 25.3805 66.7653 25.1411 66.5315C24.736 66.1358 24.7492 65.6039 25.1745 65.227C25.4705 64.9647 25.8307 64.8483 26.2125 64.7899C26.8087 64.6989 27.3986 64.716 27.9763 64.9063C28.2327 64.9908 28.4578 65.1276 28.6569 65.3083C28.734 65.3785 28.8014 65.4573 28.8532 65.549C28.9195 65.6668 28.9973 65.8089 28.9428 65.9225C28.9001 66.0118 28.7424 65.9527 28.6371 65.9531C27.6595 65.9565 26.6819 65.9552 25.7043 65.9555C25.5281 65.9555 25.5174 65.9753 25.5914 66.1393C25.6813 66.338 25.8547 66.4495 26.0395 66.528C26.6162 66.7726 27.2051 66.7841 27.7957 66.5722C27.9159 66.5291 28.0413 66.4735 28.1163 66.3734C28.2292 66.2227 28.3619 66.2393 28.5103 66.2758C28.544 66.2842 28.5784 66.289 28.6117 66.297C28.6937 66.3165 28.8417 66.3293 28.8452 66.3585C28.857 66.4596 28.7545 66.5221 28.6823 66.5815C28.3876 66.8233 28.0284 66.9112 27.6671 66.9946C27.565 67.0182 27.4528 66.9967 27.3593 67.0603H26.3866V67.0613ZM28.2216 65.631C27.8408 65.104 27.318 65.0373 26.7798 65.0592C26.3161 65.0779 25.8759 65.1936 25.5611 65.6171C25.6084 65.6255 25.6244 65.631 25.6403 65.631C26.4849 65.6314 27.3291 65.6314 28.2216 65.6314V65.631Z" fill="#0A0A0A"/>
<path d="M48.0281 67.0612C47.8731 66.98 47.697 67.0011 47.533 66.9602C47.2343 66.8851 46.9456 66.7903 46.6968 66.602C46.2619 66.273 46.2191 65.7293 46.5975 65.3367C46.9098 65.0126 47.3197 64.89 47.7429 64.8125C48.4474 64.6839 49.1461 64.7222 49.8298 64.9434C50.1028 65.0317 50.3505 65.1724 50.5263 65.4041C50.8098 65.7779 50.7413 66.2667 50.3707 66.5603C50.0007 66.8535 49.5619 66.9668 49.1047 67.0276C49.0689 67.0324 49.021 67.0057 49.0012 67.0609H48.0284L48.0281 67.0612ZM48.5002 65.1029C48.3908 65.1078 48.281 65.1067 48.1723 65.1189C47.8304 65.1568 47.5007 65.2346 47.2294 65.4639C46.9202 65.7251 46.9279 66.1024 47.2468 66.3473C47.5615 66.5898 47.9333 66.6642 48.3168 66.6923C48.815 66.7288 49.2968 66.6659 49.73 66.397C50.0038 66.2271 50.0986 65.9634 49.9965 65.7011C49.9156 65.4927 49.7419 65.3781 49.548 65.2929C49.2145 65.1467 48.8601 65.1067 48.5002 65.1029Z" fill="#0A0A0A"/>
<path d="M16 54.6623C16.0584 54.72 16.0271 54.7926 16.0271 54.8568C16.0292 57.5051 16.0288 60.1534 16.0295 62.8017C16.0295 62.8764 16.0379 62.9511 16.0424 63.0258C16.0281 63.0279 16.0142 63.03 16 63.0324C16 60.2424 16 57.4523 16 54.6623Z" fill="#AEADAB"/>
<path d="M42.6432 57.9887C43.7063 56.9267 45.8529 56.8722 46.9111 57.4652C47.1411 57.5941 47.3419 57.7549 47.5087 57.9592C47.5552 58.0165 47.5893 58.0871 47.6608 58.1218C48.3626 57.379 49.2638 57.1299 50.2424 57.0771C50.7958 57.0473 51.3382 57.1126 51.8631 57.296C52.9546 57.6778 53.4771 58.3952 53.4851 59.5482C53.4931 60.6593 53.4844 61.7706 53.49 62.8816C53.4907 63.0105 53.4469 63.0327 53.3316 63.0293C53.0655 63.0209 52.7987 63.0192 52.5329 63.03C52.3984 63.0355 52.3592 63.0001 52.3602 62.8608C52.3668 61.929 52.3658 60.9973 52.362 60.0655C52.3609 59.829 52.3498 59.5924 52.314 59.3572C52.2369 58.8503 51.9538 58.4814 51.4969 58.2917C50.4662 57.8637 49.4753 57.9477 48.5735 58.6412C48.2226 58.9111 48.0607 59.2898 48.0579 59.7303C48.051 60.7659 48.0461 61.8015 48.0485 62.8372C48.0485 62.9827 48.0249 63.0407 47.8623 63.031C47.5969 63.0147 47.3298 63.0195 47.064 63.0296C46.9389 63.0345 46.9129 62.9942 46.9136 62.8754C46.9184 61.9784 46.917 61.0814 46.916 60.1844C46.916 59.953 46.909 59.7223 46.8851 59.4916C46.8184 58.8541 46.4932 58.4011 45.8887 58.1986C44.9438 57.8817 44.0534 58.0322 43.2429 58.612C42.8142 58.9187 42.6405 59.3537 42.6425 59.8738C42.6471 60.8691 42.6411 61.8648 42.6471 62.8601C42.6477 62.9966 42.6127 63.0355 42.4768 63.03C42.2111 63.0189 41.9439 63.0182 41.6781 63.03C41.5256 63.0369 41.4749 63.0011 41.4756 62.8354C41.4825 61.2846 41.4798 59.7334 41.4798 58.1822C41.4798 57.9102 41.4857 57.6382 41.477 57.3662C41.4732 57.2488 41.5114 57.2206 41.6232 57.2237C41.9182 57.2314 42.2138 57.2331 42.5088 57.223C42.6318 57.2189 42.6495 57.2661 42.6457 57.3707C42.6387 57.5666 42.6436 57.7633 42.6436 57.9884L42.6432 57.9887Z" fill="#080808"/>
<path d="M66.9173 56.7394C67.099 56.382 67.3523 56.0724 67.5878 55.7518C68.613 54.3583 69.6956 53.0117 70.9282 51.7937C71.9777 50.7571 73.1147 49.8323 74.4519 49.1844C75.4181 48.7164 76.4311 48.4336 77.5147 48.3985C78.7049 48.36 79.828 48.6163 80.9116 49.0826C81.7704 49.4522 82.5646 49.9351 83.3157 50.4903C83.3515 50.5167 83.3997 50.532 83.4084 50.6028C82.9572 50.5146 82.5114 50.4281 82.0661 50.3398C80.929 50.1147 79.7829 49.9754 78.6229 50.0508C77.4903 50.1241 76.404 50.4104 75.358 50.8481C73.5785 51.5929 71.9881 52.6494 70.4616 53.8132C69.2703 54.7217 68.1406 55.7021 67.0257 56.7012C67.0004 56.7238 66.9691 56.7398 66.9403 56.7585C66.9323 56.7519 66.9246 56.7457 66.917 56.7391L66.9173 56.7394Z" fill="#AEADAB"/>
<path d="M61.0484 57.8452C61.0484 57.601 61.0539 57.3578 61.0459 57.1153C61.0421 57.0007 61.0647 56.9524 61.1943 56.9572C61.4774 56.9677 61.7616 56.9645 62.0451 56.9579C62.1476 56.9555 62.1861 56.9781 62.1858 57.09C62.1827 59.0288 62.1827 60.9681 62.1858 62.9069C62.1858 63.0115 62.1455 63.0303 62.0534 63.0289C61.764 63.024 61.4743 63.0202 61.1852 63.0303C61.0609 63.0348 61.0428 62.9858 61.0466 62.8805C61.0536 62.6929 61.0487 62.5046 61.0487 62.274C60.489 62.7621 59.8672 62.9903 59.1936 63.0813C58.1392 63.2241 57.1178 63.138 56.226 62.4932C55.2765 61.8067 54.8822 60.8472 55.0198 59.6948C55.1515 58.5939 55.7848 57.8278 56.7947 57.4193C58.2385 56.835 59.64 56.9475 60.9556 57.8216C60.9775 57.8362 60.9949 57.8668 61.0487 57.8456L61.0484 57.8452ZM61.0998 60.1715C61.1178 59.2706 60.7878 58.6634 60.0662 58.3128C59.2224 57.9032 58.3438 57.848 57.4635 58.1905C56.8652 58.4233 56.4483 58.8524 56.2798 59.4815C55.9647 60.6582 56.3976 61.6261 57.5493 62.0377C58.004 62.2003 58.4751 62.2292 58.9518 62.1854C59.3457 62.1493 59.7265 62.0541 60.0805 61.8745C60.8194 61.4996 61.106 60.8645 61.1001 60.1715H61.0998Z" fill="#080808"/>
<path d="M32.8374 62.0304C33.1546 61.8241 33.4607 61.6288 33.7619 61.4263C33.8313 61.3794 33.8671 61.4194 33.913 61.4517C35.1848 62.3497 36.5894 62.4324 38.0544 62.1173C38.2879 62.0669 38.4956 61.9488 38.6558 61.7612C38.9302 61.4399 38.8521 61.0289 38.4797 60.8298C38.192 60.6759 37.8755 60.637 37.5597 60.6047C36.7777 60.5241 35.9912 60.4984 35.2112 60.3942C34.8611 60.3476 34.5213 60.2684 34.1972 60.119C33.1879 59.6542 33.1678 58.3504 33.8682 57.7212C34.2656 57.3641 34.7492 57.2025 35.2613 57.1136C36.4053 56.9149 37.5396 56.9298 38.6534 57.2977C39.0508 57.429 39.4163 57.6243 39.7581 57.864C39.8474 57.9265 39.937 57.9908 40.0037 58.086C39.7025 58.252 39.4027 58.4132 39.1078 58.5828C39.0268 58.6293 38.9775 58.6026 38.9073 58.5619C37.7723 57.9046 36.5616 57.8167 35.3061 58.0985C35.1133 58.1419 34.9396 58.235 34.8006 58.3837C34.5567 58.6446 34.6022 58.9965 34.9118 59.1765C35.2154 59.353 35.5593 59.3794 35.897 59.4193C36.7579 59.5208 37.6278 59.5322 38.4859 59.6639C38.8934 59.7264 39.269 59.8671 39.5726 60.1579C40.2844 60.8392 40.1639 62.0402 39.3245 62.636C38.8396 62.9803 38.282 63.1328 37.7039 63.1943C36.44 63.3284 35.1994 63.2189 34.0071 62.7485C33.5861 62.5825 33.1991 62.3528 32.8374 62.0311V62.0304Z" fill="#080808"/>
<path d="M84.5663 60.2114C85.0273 59.8328 85.4595 59.4784 85.8913 59.1237C86.6289 58.5178 87.3661 57.9123 88.1033 57.3061C88.1575 57.2616 88.2085 57.2244 88.2867 57.2251C88.8307 57.2282 89.3744 57.2268 89.9688 57.2268C89.8834 57.2953 89.8302 57.3384 89.7764 57.3808C88.9106 58.0572 88.0466 58.736 87.1767 59.4072C87.0649 59.4937 87.0781 59.5309 87.1726 59.617C88.3718 60.7134 89.5672 61.814 90.7641 62.9129C90.7936 62.94 90.8276 62.9626 90.8467 63.0275C90.7644 63.0275 90.6821 63.0275 90.5994 63.0275C90.1884 63.0275 89.7774 63.0227 89.3664 63.0303C89.2469 63.0324 89.1622 62.9956 89.0763 62.9157C88.1575 62.0614 87.2334 61.2127 86.3162 60.356C86.2002 60.2476 86.13 60.2323 85.9976 60.34C85.5672 60.6902 85.1242 61.0258 84.6806 61.3593C84.5906 61.427 84.5628 61.4972 84.5642 61.6045C84.5698 62.027 84.5625 62.4494 84.5691 62.8719C84.5708 62.9876 84.5479 63.0348 84.4197 63.0303C84.1307 63.0202 83.8406 63.0188 83.5515 63.0306C83.4126 63.0362 83.3935 62.9848 83.3938 62.8625C83.3973 60.8944 83.3962 58.9267 83.3966 56.9587C83.3966 56.2294 83.4001 55.4999 83.3931 54.7707C83.3917 54.6404 83.4244 54.6018 83.555 54.6067C83.8326 54.6168 84.1109 54.6182 84.3884 54.606C84.533 54.5998 84.5705 54.6414 84.5701 54.7863C84.5649 56.5167 84.5667 58.2475 84.5667 59.978C84.5667 60.0415 84.5667 60.1051 84.5667 60.2114H84.5663Z" fill="#0A0A0A"/>
<path d="M75.8698 57.8633C77.1927 56.9368 78.5969 56.8114 80.0574 57.3415C81.0594 57.7052 81.5249 58.4393 81.5301 59.502C81.5357 60.6249 81.5291 61.7477 81.5346 62.8705C81.5353 63.0043 81.4954 63.0352 81.3682 63.0303C81.0965 63.0202 80.8238 63.0206 80.5522 63.0303C80.4302 63.0345 80.3986 63.0004 80.3993 62.8785C80.4045 61.9005 80.4024 60.9222 80.4021 59.9443C80.4021 59.7303 80.3979 59.5152 80.35 59.3061C80.2294 58.7812 79.907 58.414 79.4102 58.2302C78.4792 57.8852 77.5603 57.9255 76.6911 58.4292C76.1571 58.7388 75.916 59.2401 75.8879 59.8432C75.8458 60.7454 75.8781 61.6483 75.8677 62.5509C75.866 62.7055 75.9365 62.916 75.8357 62.9994C75.7416 63.0772 75.5384 63.0254 75.3834 63.0275C75.2097 63.0296 75.0357 63.0195 74.8627 63.031C74.7411 63.039 74.7199 62.9914 74.7202 62.8834C74.723 61.0428 74.723 59.2026 74.7202 57.362C74.7202 57.2564 74.7463 57.2223 74.8554 57.2255C75.1448 57.2331 75.4345 57.2352 75.7235 57.2248C75.8538 57.2199 75.8774 57.2699 75.8715 57.3839C75.8632 57.5434 75.8694 57.7035 75.8694 57.8647L75.8698 57.8633Z" fill="#080808"/>
<path d="M64.1459 58.8305C64.1459 57.4822 64.1484 56.1342 64.1425 54.786C64.1418 54.6418 64.1751 54.599 64.3214 54.606C64.5927 54.6188 64.8661 54.6244 65.1367 54.605C65.325 54.5914 65.3483 54.6626 65.348 54.8273C65.3427 57.1303 65.3445 59.4332 65.3445 61.7362C65.3445 61.9094 65.4327 61.9961 65.6092 61.9961C67.3223 61.9961 69.0353 61.9978 70.7484 61.9926C70.8912 61.9922 70.9367 62.0259 70.9287 62.1718C70.9159 62.4143 70.9214 62.6579 70.9273 62.9007C70.9298 62.9962 70.9058 63.0334 70.8033 63.0292C70.607 63.0213 70.4097 63.0268 70.2131 63.0268C68.2512 63.0268 66.2891 63.0244 64.3273 63.031C64.1689 63.0317 64.1414 62.9872 64.1421 62.8403C64.148 61.5038 64.1456 60.167 64.1456 58.8305H64.1459Z" fill="#080808"/>
<path d="M26.7399 57.8341C27.5726 57.1887 28.4655 56.9413 29.467 57.0938C29.6011 57.1143 29.6755 57.1563 29.663 57.3203C29.6442 57.5677 29.6501 57.8178 29.6609 58.0662C29.6675 58.217 29.6487 58.2573 29.4778 58.2152C28.906 58.0749 28.331 58.0815 27.7693 58.2746C27.1342 58.4932 26.7746 58.9736 26.7663 59.6424C26.7527 60.7065 26.752 61.7706 26.7562 62.8347C26.7569 62.9977 26.7114 63.039 26.5554 63.031C26.3015 63.0178 26.0461 63.0202 25.7918 63.0307C25.6594 63.0362 25.6185 63.0036 25.6191 62.8632C25.6251 61.608 25.6226 60.3525 25.6226 59.0973C25.6226 58.5189 25.6251 57.9404 25.6205 57.362C25.6198 57.2613 25.6355 57.2206 25.7501 57.2244C26.0392 57.2338 26.3286 57.2314 26.6179 57.2251C26.7163 57.223 26.7475 57.2515 26.7423 57.3502C26.7343 57.5048 26.7402 57.6597 26.7402 57.8348L26.7399 57.8341Z" fill="#080808"/>
<path d="M30.5605 60.1329C30.5605 59.2189 30.564 58.3052 30.5567 57.3912C30.5556 57.2488 30.6001 57.2192 30.7307 57.2238C31.0138 57.2331 31.2977 57.2311 31.5808 57.2238C31.6826 57.2213 31.7031 57.2557 31.7031 57.3502C31.7007 59.2012 31.7003 61.0518 31.7031 62.9028C31.7031 63.0008 31.6767 63.0307 31.5777 63.0286C31.2886 63.0223 30.9989 63.0199 30.7102 63.0293C30.5855 63.0335 30.557 62.9935 30.5577 62.874C30.5626 61.96 30.5605 61.0463 30.5605 60.1323V60.1329Z" fill="#080808"/>
<path d="M71.736 60.1152C71.736 59.2126 71.7405 58.3101 71.7315 57.4078C71.7298 57.2487 71.7767 57.2168 71.9236 57.223C72.2008 57.2352 72.4791 57.2303 72.7567 57.2244C72.8529 57.2223 72.8845 57.2484 72.8842 57.3484C72.8814 59.1998 72.8814 61.0511 72.8842 62.9021C72.8842 63.0018 72.8529 63.0306 72.755 63.0285C72.4659 63.0226 72.1762 63.0206 71.8871 63.0292C71.7645 63.0331 71.7325 62.9945 71.7332 62.8743C71.7381 61.9544 71.7357 61.0348 71.7357 60.1148L71.736 60.1152Z" fill="#080808"/>
<path d="M40.8413 65.038C40.8612 64.8161 40.9779 64.7051 41.1912 64.7051C41.4045 64.7051 41.5123 64.8136 41.5146 65.0307C41.5146 65.6379 41.5118 66.2449 41.5174 66.8518C41.5184 66.9657 41.4875 67.0053 41.3729 66.9942C41.2697 66.9841 41.1644 66.9859 41.0609 66.9935C40.9257 67.0039 40.8194 67.0001 40.8514 66.8132C40.8688 66.7104 40.7979 66.735 40.7441 66.7614C40.2685 66.9946 39.7585 67.0383 39.2408 67.0251C38.8225 67.0144 38.4143 66.9449 38.0339 66.7573C37.8561 66.6697 37.6952 66.5593 37.5705 66.4022C37.2988 66.0607 37.3172 65.6351 37.6184 65.3176C37.9203 64.999 38.3185 64.8813 38.7301 64.8042C39.4513 64.669 40.1535 64.7451 40.841 65.0376L40.8413 65.038ZM39.4593 65.1022C39.3384 65.1078 39.2155 65.1022 39.0966 65.121C38.7864 65.17 38.4821 65.2422 38.2497 65.4764C38.0138 65.7147 38.002 66.0729 38.2226 66.3039C38.3237 66.4099 38.4532 66.4797 38.5901 66.5259C39.1974 66.7298 39.8061 66.7215 40.4074 66.5061C40.7215 66.3935 40.9066 66.1514 40.8986 65.8811C40.8896 65.5768 40.6975 65.4038 40.4397 65.287C40.1281 65.146 39.797 65.1088 39.4593 65.1022Z" fill="#0A0A0A"/>
<path d="M59.7632 65.0428C59.7727 64.8175 59.8873 64.7049 60.1071 64.7051C60.3218 64.7051 60.4292 64.8131 60.4292 65.0289C60.4292 65.6365 60.4264 66.2438 60.4316 66.8514C60.4326 66.9616 60.4083 67.0088 60.2912 66.9942C60.2113 66.9845 60.1294 66.9925 60.0484 66.9925C59.8694 66.9925 59.7727 66.9009 59.7583 66.7177C59.3633 66.9254 58.9412 67.0078 58.5059 67.0248C57.9876 67.0449 57.4783 66.9994 56.9975 66.7819C56.8602 66.7198 56.7314 66.6423 56.6198 66.5398C56.1567 66.1128 56.1897 65.5358 56.7025 65.1689C57.035 64.931 57.4199 64.8264 57.818 64.775C58.4833 64.6892 59.1295 64.7649 59.7628 65.0435L59.7632 65.0428ZM58.4674 65.1074C57.9938 65.1005 57.643 65.1554 57.3265 65.3485C57.1027 65.4851 56.9725 65.68 56.9874 65.9496C57.002 66.2101 57.1594 66.3748 57.3859 66.4703C58.0581 66.7535 58.7349 66.7354 59.4078 66.4703C59.5874 66.3994 59.7132 66.2643 59.7705 66.075C59.8698 65.7467 59.735 65.4646 59.3883 65.3002C59.0635 65.1463 58.7137 65.1057 58.4681 65.1078L58.4674 65.1074Z" fill="#0A0A0A"/>
<path d="M18.4789 65.0452C19.303 64.6884 20.1232 64.6596 20.9591 64.8691C21.088 64.9014 21.2103 64.9532 21.3273 65.0161C21.6077 65.1668 21.7473 65.3944 21.7394 65.7196C21.73 66.0955 21.7341 66.4717 21.7394 66.8476C21.7407 66.9515 21.7265 67.0084 21.6025 66.9938C21.4322 66.9737 21.2033 67.0661 21.1053 66.9574C21.0206 66.8636 21.0786 66.6395 21.0772 66.4727C21.0751 66.2528 21.0702 66.0329 21.0779 65.8134C21.088 65.5323 20.9504 65.3544 20.7027 65.2516C20.2483 65.0626 19.7793 65.0775 19.3072 65.1634C19.2339 65.1766 19.1616 65.1981 19.0897 65.2193C18.6464 65.3499 18.4845 65.5646 18.4838 66.0218C18.4838 66.2994 18.48 66.5773 18.4859 66.8549C18.488 66.9539 18.472 67.0036 18.356 66.9945C18.2121 66.9834 18.0669 66.9886 17.9224 66.9932C17.8487 66.9956 17.8209 66.9733 17.8213 66.8962C17.8237 66.2368 17.8234 65.5775 17.8213 64.9177C17.8213 64.8382 17.8425 64.8017 17.9293 64.8069C18.0388 64.8135 18.1503 64.8184 18.2587 64.8062C18.4279 64.7878 18.5272 64.8291 18.4782 65.0445L18.4789 65.0452Z" fill="#0A0A0A"/>
<path d="M33.2894 65.0383C34.1093 64.6909 34.9298 64.6565 35.765 64.8743C35.8863 64.9059 36.0037 64.9605 36.1159 65.0178C36.3997 65.163 36.5373 65.3965 36.5314 65.7196C36.5244 66.0955 36.5265 66.4717 36.5321 66.848C36.5335 66.9525 36.5189 67.0088 36.3952 66.9939C36.2309 66.9744 36.0096 67.064 35.9151 66.9584C35.8331 66.8671 35.8887 66.6506 35.887 66.4898C35.8849 66.2699 35.8838 66.05 35.887 65.8301C35.8915 65.5389 35.7508 65.3479 35.4871 65.2443C35.0306 65.0651 34.5619 65.0755 34.0902 65.1662C33.9199 65.1988 33.7556 65.2516 33.6052 65.343C33.3947 65.4715 33.2897 65.6546 33.2929 65.9034C33.2967 66.2216 33.289 66.5398 33.2963 66.858C33.2988 66.9636 33.2731 67.0043 33.1629 66.9935C32.9868 66.9762 32.7561 67.0661 32.6491 66.9557C32.5637 66.8674 32.622 66.6378 32.6217 66.4707C32.6203 65.9673 32.6248 65.4639 32.6185 64.9605C32.6172 64.8396 32.6498 64.7934 32.7728 64.8073C32.8586 64.817 32.9465 64.8146 33.033 64.808C33.2001 64.7951 33.3596 64.7844 33.2897 65.0383H33.2894Z" fill="#0A0A0A"/>
<path d="M52.1912 65.0428C53.0608 64.6826 53.915 64.6395 54.7783 64.9084C55.2915 65.0682 55.4471 65.2923 55.4551 65.8221C55.4603 66.1691 55.4506 66.5165 55.4589 66.8633C55.4617 66.9772 55.4221 66.9998 55.3206 66.9939C55.1542 66.9842 54.9357 67.0488 54.8343 66.9657C54.728 66.8789 54.8072 66.652 54.8027 66.4867C54.7967 66.2727 54.795 66.0583 54.8027 65.8447C54.8131 65.5504 54.6692 65.3493 54.4104 65.2527C53.7941 65.023 53.1764 65.0474 52.5758 65.3166C52.3187 65.4319 52.2016 65.6491 52.202 65.9298C52.2023 66.2421 52.1988 66.5548 52.2044 66.8671C52.2061 66.9616 52.186 67.0005 52.0828 66.9942C51.9101 66.9835 51.6847 67.0516 51.578 66.9661C51.4665 66.8768 51.545 66.6416 51.5436 66.4707C51.5388 65.9673 51.5457 65.4639 51.5391 64.9608C51.5374 64.84 51.569 64.7937 51.6927 64.8073C51.784 64.8174 51.8785 64.8177 51.9699 64.8073C52.1426 64.7875 52.261 64.8136 52.1915 65.0428H52.1912Z" fill="#0A0A0A"/>
<path d="M42.6603 65.8506C42.6603 65.6366 42.6576 65.4222 42.6617 65.2082C42.6635 65.1259 42.635 65.0946 42.552 65.0985C42.4481 65.1037 42.3428 65.0905 42.2396 65.1016C42.1111 65.1155 42.1017 65.0495 42.1021 64.9484C42.1021 64.8514 42.1146 64.7948 42.2327 64.8066C42.3414 64.8174 42.4526 64.8035 42.5624 64.8108C42.651 64.8167 42.6847 64.7924 42.6801 64.6975C42.6725 64.5301 42.6871 64.3613 42.6749 64.1945C42.6662 64.0719 42.7152 64.0482 42.8222 64.0548C42.949 64.0625 43.0772 64.0632 43.204 64.0548C43.3086 64.0479 43.3482 64.0767 43.3409 64.1875C43.3308 64.3432 43.3496 64.5009 43.3347 64.6559C43.3215 64.7955 43.3767 64.8181 43.4993 64.8122C43.7071 64.8025 43.9166 64.8181 44.124 64.8063C44.2536 64.7986 44.2602 64.8594 44.2615 64.9598C44.2629 65.0592 44.2456 65.1064 44.1302 65.1023C43.8992 65.0936 43.6671 65.104 43.4358 65.0985C43.3392 65.096 43.3055 65.1242 43.3069 65.2249C43.3124 65.5893 43.3062 65.9541 43.3103 66.3185C43.3124 66.5173 43.3746 66.5784 43.573 66.6191C43.7526 66.6559 43.9308 66.6361 44.108 66.6131C44.2126 66.5996 44.2615 66.6215 44.2421 66.7351C44.2355 66.7747 44.2334 66.8164 44.2383 66.856C44.2529 66.9696 44.207 66.9991 44.0937 67.0022C43.7929 67.0106 43.4924 67.022 43.1926 66.9922C42.8135 66.9547 42.6635 66.7872 42.6603 66.4061C42.6586 66.2209 42.6603 66.0358 42.6603 65.8506Z" fill="#0A0A0A"/>
<path d="M23.5385 65.7807C23.5385 65.9659 23.5399 66.1507 23.5385 66.3359C23.5371 66.4999 23.6101 66.5892 23.7778 66.6173C23.9696 66.6496 24.1583 66.6361 24.3472 66.6131C24.4379 66.602 24.4775 66.6079 24.4744 66.7205C24.4668 67.0015 24.4737 67.0064 24.1937 67.0081C23.9397 67.0095 23.6851 67.0199 23.4311 66.9939C23.0455 66.9543 22.8881 66.7896 22.8843 66.4009C22.8805 66.0135 22.8788 65.6258 22.8864 65.2384C22.8885 65.1228 22.8537 65.0856 22.7415 65.0974C22.6557 65.1064 22.5678 65.0939 22.4817 65.1005C22.375 65.1085 22.3177 65.097 22.316 64.9595C22.3142 64.8163 22.3705 64.8045 22.4872 64.8052C22.6231 64.8059 22.8037 64.8712 22.8829 64.7753C22.9493 64.6951 22.9059 64.5221 22.9066 64.3901C22.9083 64.0562 22.9072 64.0562 23.2387 64.0562C23.5444 64.0562 23.5413 64.0562 23.5461 64.3637C23.5482 64.5065 23.4829 64.692 23.5725 64.7813C23.6622 64.8702 23.847 64.8021 23.9901 64.808C24.1055 64.8129 24.2218 64.815 24.3372 64.8073C24.4442 64.8 24.4897 64.8243 24.4873 64.9463C24.4852 65.0633 24.4609 65.1089 24.3344 65.1023C24.1211 65.0915 23.9057 65.1096 23.6927 65.0957C23.5545 65.0866 23.5291 65.1373 23.5364 65.2603C23.5465 65.4333 23.5388 65.607 23.5392 65.7807H23.5385Z" fill="#0A0A0A"/>
<path d="M16.7296 65.4291C16.7296 65.9037 16.7258 66.3782 16.7324 66.8528C16.7341 66.9661 16.7043 67.005 16.5903 66.9939C16.4083 66.9758 16.163 67.0703 16.0605 66.9556C15.9705 66.8549 16.0352 66.6145 16.0352 66.4359C16.0345 65.6199 16.0372 64.8038 16.032 63.9881C16.0313 63.8689 16.0577 63.8241 16.1828 63.8345C16.3207 63.846 16.4611 63.8456 16.599 63.8345C16.7109 63.8258 16.7327 63.8672 16.7317 63.9707C16.7265 64.4567 16.7293 64.9428 16.7293 65.4291H16.7296Z" fill="#080808"/>
<path d="M30.4418 65.0241C30.9372 64.7948 31.4309 64.7149 31.9464 64.7503C32.0687 64.7586 32.1271 64.8007 32.1017 64.9282C32.0983 64.9448 32.1014 64.9629 32.1014 64.9799C32.1014 65.204 32.1017 65.2009 31.8784 65.1717C31.5365 65.1272 31.1971 65.1425 30.8688 65.2551C30.5502 65.3645 30.4512 65.5115 30.4512 65.8453C30.4512 66.1861 30.4477 66.5273 30.4533 66.8681C30.4547 66.9636 30.4317 66.9994 30.331 66.9935C30.1587 66.9838 29.9336 67.0522 29.8269 66.9675C29.7154 66.8789 29.7943 66.644 29.7929 66.4734C29.788 65.9648 29.7949 65.4562 29.7883 64.9476C29.787 64.8312 29.8224 64.7968 29.9336 64.8066C30.0367 64.8156 30.1427 64.8187 30.2452 64.8062C30.4022 64.7871 30.4759 64.8406 30.4422 65.0234L30.4418 65.0241Z" fill="#0A0A0A"/>
<path d="M61.4999 65.4118C61.4999 64.9313 61.5031 64.4508 61.4975 63.9707C61.4965 63.8658 61.5218 63.8262 61.632 63.8349C61.7921 63.8474 62.0012 63.7852 62.1016 63.8651C62.2087 63.9502 62.1343 64.1681 62.135 64.3275C62.1388 65.1669 62.134 66.0058 62.1399 66.8452C62.1409 66.9689 62.1076 67.0074 61.987 66.9939C61.8279 66.9758 61.6142 67.0616 61.5232 66.9588C61.445 66.8702 61.5006 66.6614 61.5003 66.5061C61.4992 66.1413 61.5003 65.7769 61.5003 65.4121L61.4999 65.4118Z" fill="#080808"/>
<path d="M45.51 65.9054C45.51 66.2289 45.5072 66.552 45.5117 66.8754C45.5127 66.9633 45.4912 66.9987 45.3971 66.9939C45.2473 66.9862 45.0969 66.9883 44.9468 66.9932C44.8711 66.9956 44.8478 66.9688 44.8481 66.8945C44.8502 66.2362 44.8502 65.5782 44.8481 64.9198C44.8481 64.8427 44.8662 64.8114 44.9534 64.8062C45.5103 64.7729 45.5103 64.7704 45.5103 65.3162C45.5103 65.5125 45.5103 65.7088 45.5103 65.9051L45.51 65.9054Z" fill="#0A0A0A"/>
<path d="M71.7182 55.6506C71.7182 55.4947 71.721 55.3387 71.7168 55.1827C71.7147 55.109 71.7373 55.0819 71.8144 55.083C72.1264 55.0868 72.4384 55.0868 72.7504 55.083C72.8316 55.0819 72.8619 55.1066 72.8608 55.1907C72.857 55.5026 72.8563 55.8146 72.8608 56.1262C72.8622 56.2131 72.8303 56.2332 72.7504 56.2322C72.4384 56.2287 72.1264 56.2287 71.8144 56.2322C71.7394 56.2332 71.714 56.2114 71.7165 56.1353C71.7217 55.9737 71.7182 55.8118 71.7182 55.6499V55.6506Z" fill="#0A0A0A"/>
<path d="M30.5602 55.6354C30.5602 55.4849 30.5629 55.3342 30.5591 55.1837C30.557 55.1087 30.5838 55.0823 30.6595 55.0833C30.9663 55.0865 31.273 55.0861 31.5801 55.0833C31.6514 55.0826 31.6861 55.1004 31.6858 55.1785C31.6833 55.4968 31.683 55.8153 31.6858 56.1336C31.6865 56.2093 31.6597 56.2333 31.585 56.2326C31.2783 56.2294 30.9711 56.2287 30.6644 56.2326C30.5782 56.2336 30.5563 56.2016 30.5588 56.121C30.564 55.9592 30.5602 55.7969 30.5602 55.635V55.6354Z" fill="#0A0A0A"/>
<path d="M45.1871 64.0218C45.5216 64.0218 45.5181 64.0218 45.4949 64.3592C45.4893 64.4387 45.4605 64.454 45.3906 64.4523C45.2472 64.4484 45.103 64.4474 44.9595 64.4523C44.8793 64.4551 44.8515 64.4311 44.8466 64.347C44.8275 64.0215 44.8244 64.0215 45.1871 64.0215V64.0218Z" fill="#0A0A0A"/>
<path d="M66.8915 56.8169C66.8821 56.7853 66.8932 56.7603 66.9172 56.7398C66.9249 56.7464 66.9325 56.7527 66.9405 56.7593C66.9235 56.778 66.9064 56.7964 66.8894 56.8152L66.8915 56.8173V56.8169Z" fill="#AEADAB"/>
<path d="M66.8892 56.8148C66.8871 56.8193 66.8858 56.8245 66.8826 56.8284C66.8809 56.8305 66.876 56.8294 66.8726 56.8298C66.8788 56.8256 66.8847 56.8211 66.891 56.8169L66.8892 56.8148Z" fill="#AEADAB"/>
</g>
</g>
<rect x="1" y="1" width="110" height="110" rx="9" stroke="black" stroke-opacity="0.1" stroke-width="2"/>
<defs>
<clipPath id="clip0_511_167">
<rect x="2" y="2" width="108" height="108" rx="8" fill="white"/>
</clipPath>
<clipPath id="clip1_511_167">
<rect width="80" height="23.0613" fill="white" transform="translate(16 44)"/>
</clipPath>
</defs>
</svg>
