<svg width="112" height="112" viewBox="0 0 112 112" fill="none" xmlns="http://www.w3.org/2000/svg">
<g clip-path="url(#clip0_511_162)">
<rect x="2" y="2" width="108" height="108" rx="8" fill="white"/>
<g clip-path="url(#clip1_511_162)">
<path d="M21.6222 52.0456C21.6222 51.179 22.3333 50.8456 23.5112 50.8456C25.2 50.8456 27.3333 51.3568 29.0222 52.2679V47.0456C27.1778 46.3123 25.3556 46.0234 23.5112 46.0234C19 46.0234 16 48.379 16 52.3125C16 58.4456 24.4444 57.4679 24.4444 60.1125C24.4444 61.1345 23.5556 61.4679 22.3111 61.4679C20.4667 61.4679 18.1111 60.7123 16.2444 59.6901V64.979C18.3111 65.8679 20.4 66.2456 22.3111 66.2456C26.9333 66.2456 30.1111 63.9568 30.1111 59.979C30.0889 53.3568 21.6222 54.5345 21.6222 52.0456ZM36.6444 41.579L31.2222 42.7345L31.2 60.5345C31.2 63.8236 33.6667 66.2456 36.9556 66.2456C38.7778 66.2456 40.1111 65.9123 40.8444 65.5123V61.0012C40.1334 61.2901 36.6222 62.3123 36.6222 59.0234V51.1345H40.8444V46.4012H36.6222L36.6444 41.579ZM47.7556 48.0456L47.4 46.4012H42.6V65.8456H48.1556V52.6679C49.4666 50.9568 51.6889 51.2679 52.3778 51.5123V46.4012C51.6667 46.1345 49.0667 45.6456 47.7556 48.0456ZM53.7333 46.4012H59.3111V65.8456H53.7333V46.4012ZM53.7333 44.7123L59.3111 43.5123V39.0012L53.7333 40.179V44.7123ZM70.9111 46.0234C68.7333 46.0234 67.3333 47.0456 66.5556 47.7568L66.2666 46.379H61.3778V72.29L66.9333 71.1123L66.9556 64.8234C67.7556 65.4012 68.9333 66.2234 70.8889 66.2234C74.8667 66.2234 78.4889 63.0234 78.4889 55.979C78.4667 49.5345 74.8 46.0234 70.9111 46.0234ZM69.5778 61.3345C68.2667 61.3345 67.4888 60.8679 66.9556 60.2901L66.9333 52.0456C67.5111 51.4012 68.3111 50.9568 69.5778 50.9568C71.6 50.9568 73 53.2234 73 56.1345C73 59.1123 71.6222 61.3345 69.5778 61.3345ZM96 56.2012C96 50.5123 93.2444 46.0234 87.9778 46.0234C82.6888 46.0234 79.4888 50.5125 79.4888 56.1568C79.4888 62.8456 83.2667 66.2234 88.6888 66.2234C91.3333 66.2234 93.3333 65.6234 94.8444 64.779V60.3345C93.3334 61.0901 91.6 61.5568 89.4 61.5568C87.2444 61.5568 85.3333 60.8012 85.0889 58.179H95.9556C95.9556 57.89 96 56.7345 96 56.2012ZM85.0222 54.0901C85.0222 51.579 86.5556 50.5345 87.9556 50.5345C89.3111 50.5345 90.7556 51.579 90.7556 54.0901H85.0222Z" fill="#6772E5"/>
</g>
</g>
<rect x="1" y="1" width="110" height="110" rx="9" stroke="black" stroke-opacity="0.1" stroke-width="2"/>
<defs>
<clipPath id="clip0_511_162">
<rect x="2" y="2" width="108" height="108" rx="8" fill="white"/>
</clipPath>
<clipPath id="clip1_511_162">
<rect width="80" height="33.44" fill="white" transform="translate(16 39)"/>
</clipPath>
</defs>
</svg>
