<svg width="112" height="112" viewBox="0 0 112 112" fill="none" xmlns="http://www.w3.org/2000/svg">
<g clip-path="url(#clip0_511_166)">
<rect x="2" y="2" width="108" height="108" rx="8" fill="white"/>
<path fill-rule="evenodd" clip-rule="evenodd" d="M51.6522 51.5436L49.2106 55.0896L46.7546 51.5436H44.8072L48.2079 56.3103L44.6328 61.3096H46.5802L49.2106 57.5456L51.812 61.3096H53.7594L50.1843 56.3103L53.585 51.5436H51.6522Z" fill="#446CB3"/>
<path fill-rule="evenodd" clip-rule="evenodd" d="M59.0347 52.8225C59.7468 52.8225 60.2991 53.055 60.6769 53.5055C61.0403 53.9415 61.2437 54.581 61.2583 55.3948H56.5351C56.6223 54.61 56.8839 53.9851 57.2908 53.5346C57.7268 53.055 58.3081 52.8225 59.0347 52.8225ZM59.0493 51.3692C57.7413 51.3692 56.6804 51.8343 55.9102 52.7644C55.1399 53.6799 54.7476 54.9443 54.7476 56.4993C54.7476 58.0543 55.169 59.2751 55.9974 60.147C56.8258 61.019 57.9884 61.4695 59.4271 61.4695C60.0811 61.4695 60.6333 61.4259 61.0984 61.3242C61.5634 61.2225 62.0576 61.0626 62.5662 60.8446L62.6389 60.8155V59.2605L62.4645 59.3332C61.4763 59.7546 60.4735 59.9726 59.4707 59.9726C58.5406 59.9726 57.7994 59.6965 57.2908 59.1443C56.7967 58.6065 56.5206 57.8218 56.477 56.8045H63.0458V55.7726C63.0458 54.4647 62.6825 53.3893 61.9704 52.59C61.2583 51.7761 60.27 51.3692 59.0493 51.3692Z" fill="#446CB3"/>
<path fill-rule="evenodd" clip-rule="evenodd" d="M69.891 51.3692C69.2225 51.3692 68.5975 51.5 68.0598 51.7616C67.5802 51.9941 67.1733 52.3138 66.8827 52.7208L66.6647 51.5291H65.2695V61.2951H66.9553V56.1796C66.9553 54.9733 67.1733 54.1014 67.6238 53.5927C68.0598 53.0841 68.7719 52.8225 69.7166 52.8225C70.4287 52.8225 70.9519 52.9969 71.2861 53.3602C71.6204 53.7235 71.7802 54.2758 71.7802 55.0169V61.2951H73.466V54.9588C73.466 53.709 73.1608 52.7934 72.565 52.2121C71.9692 51.6599 71.0681 51.3692 69.891 51.3692Z" fill="#446CB3"/>
<path fill-rule="evenodd" clip-rule="evenodd" d="M79.9183 60.0162C79.0899 60.0162 78.4795 59.7256 78.0581 59.1442C77.6366 58.5484 77.4186 57.6474 77.4186 56.4702C77.4186 55.3076 77.6366 54.392 78.0726 53.7526C78.4941 53.1277 79.1044 52.8225 79.9183 52.8225C80.8629 52.8225 81.5459 53.0986 81.9674 53.6363C82.4034 54.1886 82.6214 55.1332 82.6214 56.4411V56.7463C82.6214 57.909 82.4034 58.7519 81.9819 59.2605C81.5459 59.7692 80.8629 60.0162 79.9183 60.0162ZM82.5923 51.5436L82.6214 52.2121L82.665 52.6481C81.9674 51.7906 80.9792 51.3547 79.7293 51.3547C78.4505 51.3547 77.4477 51.8052 76.7356 52.7062C76.0235 53.5927 75.6602 54.8425 75.6602 56.4411C75.6602 58.0252 76.0235 59.275 76.7211 60.147C77.4332 61.019 78.4505 61.4695 79.7293 61.4695C81.0228 61.4695 82.0255 61.019 82.7086 60.1179L82.883 61.2951H84.2927V47.5471H82.6068L82.5923 51.5436Z" fill="#446CB3"/>
<path fill-rule="evenodd" clip-rule="evenodd" d="M87.9551 47.9976C87.679 47.9976 87.4465 48.0848 87.2576 48.2591C87.0686 48.4335 86.9814 48.7097 86.9814 49.073C86.9814 49.4363 87.0686 49.6979 87.2576 49.8868C87.4465 50.0758 87.679 50.1629 87.9551 50.1629C88.2167 50.1629 88.4493 50.0758 88.6382 49.8868C88.8271 49.6979 88.9288 49.4363 88.9288 49.073C88.9288 48.7097 88.8271 48.4481 88.6382 48.2591C88.4493 48.0848 88.2167 47.9976 87.9551 47.9976Z" fill="#446CB3"/>
<path fill-rule="evenodd" clip-rule="evenodd" d="M87.0977 61.3096H88.798V51.5436H87.0977V61.3096Z" fill="#446CB3"/>
<path fill-rule="evenodd" clip-rule="evenodd" d="M96.0788 59.8709C95.948 59.9145 95.7591 59.9435 95.5266 59.9871C95.2941 60.0162 95.0615 60.0453 94.8 60.0453C94.364 60.0453 94.0152 59.9145 93.7681 59.6238C93.5211 59.3477 93.3903 58.9263 93.3903 58.3885V52.9097H96.1515V51.5436H93.3903V49.3346H92.3439L91.719 51.3983L90.3384 52.0086V52.9097H91.7045V58.4467C91.7045 60.4522 92.6782 61.484 94.5965 61.484C94.8436 61.484 95.1197 61.455 95.4394 61.4114C95.7591 61.3532 95.9916 61.2951 96.166 61.2079L96.2387 61.1788V59.8273L96.0788 59.8709Z" fill="#446CB3"/>
<path d="M29.406 44.1174H22.9244L16.2393 55.7L22.9244 67.2827L24.2468 65.001L18.8842 55.7L24.2468 46.4136H28.0835L29.406 44.1174Z" fill="#446CB3"/>
<path d="M24.8426 51.9796L26.1506 49.7125L24.2468 46.4135L22.9243 48.6806L24.8426 51.9796Z" fill="#D24D57"/>
<path d="M32.3416 46.4135L33.6641 48.6952L24.2468 65.001L22.9243 62.7193L32.3416 46.4135Z" fill="#D24D57"/>
<path d="M27.1973 67.2827L28.5052 65.001H32.3419L37.7045 55.7L32.3419 46.4136L33.6644 44.1174L40.3495 55.7L33.6644 67.2827H27.1973Z" fill="#446CB3"/>
<path d="M31.7165 59.3768L30.394 61.6585L32.3414 65.001L33.6639 62.7339L31.7165 59.3768Z" fill="#D24D57"/>
</g>
<rect x="1" y="1" width="110" height="110" rx="9" stroke="black" stroke-opacity="0.1" stroke-width="2"/>
<defs>
<clipPath id="clip0_511_166">
<rect x="2" y="2" width="108" height="108" rx="8" fill="white"/>
</clipPath>
</defs>
</svg>
