<svg width="112" height="112" viewBox="0 0 112 112" fill="none" xmlns="http://www.w3.org/2000/svg">
<g clip-path="url(#clip0_752_502)">
<rect x="1.99988" y="2" width="108" height="108" rx="8" fill="white"/>
<g clip-path="url(#clip1_752_502)">
<path d="M58.2879 26C58.6502 26.2537 59.0948 26.2616 59.495 26.3923C61.8484 27.1943 63.823 28.8368 65.04 31.0049C68.7803 37.4811 72.5389 43.952 76.2464 50.4399C79.6192 56.3407 76.5655 63.6721 70.0724 65.3906C69.2308 65.6161 68.3634 65.7313 67.4921 65.7332C59.9566 65.7332 52.4212 65.7489 44.887 65.7332C37.0481 65.7123 32.2015 57.2234 36.1366 50.4321C39.8411 44.037 43.5348 37.6367 47.2175 31.2312C48.7554 28.5606 50.9408 26.7847 53.9722 26.1164C54.0232 26.1059 54.0611 26.0405 54.103 26H58.2879ZM62.6612 59.7409C67.2384 59.7527 70.2725 55.1767 68.1617 51.2769C66.1699 47.5968 64.0853 43.9533 61.8778 40.4027C59.2374 36.1497 53.0254 36.2674 50.4582 40.5661C48.3657 44.0658 46.3504 47.6112 44.3325 51.1592C43.7332 52.2049 43.4663 53.4082 43.5675 54.6092C43.7662 57.0456 45.0753 58.7091 47.3156 59.5565C49.6304 60.4327 51.7621 59.975 53.593 58.2814C54.1344 57.7792 54.613 57.209 55.1375 56.6872C55.8267 56.0007 56.6323 56.0007 57.3215 56.6872C57.7844 57.1476 58.2121 57.6445 58.6816 58.097C59.2038 58.6198 59.8242 59.0342 60.5072 59.3164C61.1902 59.5985 61.9222 59.7428 62.6612 59.7409Z" fill="#0045E5"/>
<path d="M26 82.0779C26.2616 81.8988 26.2459 81.5849 26.3387 81.3299C27.2032 78.9654 28.0807 76.6022 28.8902 74.2168C29.1518 73.4322 29.7023 73.3354 30.351 73.3354C30.9997 73.3354 31.5123 73.4727 31.7804 74.2011C32.6959 76.6859 33.5394 79.1995 34.3607 81.7196C34.4143 81.8844 34.4653 82.0505 34.5111 82.2179C34.6052 82.5684 34.9139 82.9489 34.3071 83.1713C33.7277 83.3831 33.1719 83.2589 32.9627 82.7606C32.7513 82.2367 32.5692 81.7014 32.4173 81.1573C32.3192 80.8251 32.178 80.6577 31.7896 80.6681C30.7887 80.6987 29.786 80.6987 28.7817 80.6681C28.4429 80.659 28.3213 80.8081 28.2389 81.0827C28.0951 81.5614 27.9447 82.0387 27.7917 82.5147C27.5471 83.2759 26.9325 83.4943 26.2459 83.0627C26.1602 83.0008 26.0781 82.9339 26 82.8626V82.0779ZM30.4164 74.9021L30.2765 74.893C29.8065 76.2653 29.3366 77.6371 28.8667 79.0086C28.7686 79.2963 28.9177 79.3342 29.1557 79.3329C30.045 79.3264 30.9356 79.3329 31.8942 79.3329L30.4164 74.9021Z" fill="#0045E5"/>
<path d="M80.5112 86C80.2183 85.5174 80.2811 85.1565 80.7388 84.7589C81.326 84.2463 81.7706 83.5819 82.2009 82.928C82.3526 82.6978 82.4062 82.5357 82.1002 82.3657C81.6739 82.1368 81.496 81.6948 81.2959 81.2854C80.5543 79.7401 79.9317 78.1404 79.4336 76.5002C79.3316 76.172 79.1315 75.8254 79.6206 75.6305C80.0744 75.4488 80.5282 75.403 80.8617 75.8346C81.0032 76.0521 81.11 76.2904 81.1782 76.5408C81.7406 78.1323 82.2911 79.7265 83.0091 81.3796C83.4198 80.6734 83.6238 79.9829 83.8356 79.3041C84.1469 78.3115 84.4215 77.3058 84.6844 76.2962C84.8871 75.5259 85.3971 75.284 86.1229 75.6567L86.3937 75.8006V76.9776C86.1805 77.0809 86.2093 77.3071 86.1609 77.4811C85.2794 80.5792 84.1887 83.5714 81.9498 85.9974L80.5112 86Z" fill="#0045E5"/>
<path d="M63.5414 78.2932C63.5414 77.009 63.5558 75.7247 63.5335 74.4405C63.5257 73.9174 63.7467 73.6218 64.2397 73.5041C65.6574 73.1667 67.0868 73.0921 68.4979 73.4884C69.96 73.8991 70.7931 75.2042 70.6544 76.733C70.5001 78.4331 69.4434 79.5108 67.6701 79.7161C67.0859 79.7782 66.4976 79.7926 65.9111 79.7592C65.435 79.7357 65.2454 79.8639 65.2768 80.37C65.3187 81.0644 65.2507 81.7654 65.299 82.4624C65.337 82.9934 65.1513 83.2275 64.6308 83.2209C64.1312 83.2131 63.6185 83.1896 63.5636 82.5396C63.5165 81.9772 63.5427 81.4097 63.5414 80.8395C63.5335 79.9907 63.5414 79.142 63.5414 78.2932ZM65.2559 76.5852C65.2559 77.0626 65.2559 77.5399 65.2559 78.0173C65.2559 78.2213 65.248 78.4096 65.5449 78.4096C66.2603 78.4018 66.9835 78.4658 67.6779 78.2487C68.5188 77.9872 68.9595 77.3333 68.9347 76.4178C68.9098 75.5024 68.4796 74.9897 67.5864 74.7517C67.0292 74.6026 66.4695 74.6471 65.9059 74.6576C65.3827 74.6654 65.1826 74.8864 65.252 75.4161C65.2761 75.8054 65.2774 76.1958 65.2559 76.5852Z" fill="#0045E5"/>
<path d="M77.9741 79.8639C77.9741 80.4511 77.9544 81.0409 77.9741 81.6268C77.9937 82.2126 77.7269 82.5906 77.2325 82.8168C75.7822 83.4773 74.2939 83.5793 72.8018 82.9882C71.8562 82.6128 71.4482 81.8818 71.4874 80.8081C71.5214 79.8926 71.9883 79.2636 72.926 78.9262C73.7551 78.628 74.634 78.6332 75.4958 78.5247C75.7757 78.4894 76.2282 78.6555 76.3014 78.2134C76.3851 77.7152 76.2125 77.2496 75.726 77.0024C75.1955 76.7337 74.5863 76.6641 74.0089 76.8063C73.5864 76.9043 73.1692 77.0233 72.7521 77.1424C72.5389 77.2038 72.3283 77.4261 72.123 77.1306C72.0203 77.0027 71.9592 76.8464 71.948 76.6827C71.9368 76.519 71.9759 76.3559 72.0602 76.2151C72.1345 76.1086 72.2308 76.0194 72.3427 75.9536C73.4766 75.199 75.9954 75.2761 77.0835 76.0844C77.7373 76.5748 77.9309 77.2731 77.9571 78.0369C77.9767 78.645 77.9571 79.2557 77.9571 79.8678L77.9741 79.8639ZM76.3276 80.7296C76.3276 80.4916 76.3276 80.2523 76.3276 80.0129C76.3341 79.8089 76.2949 79.6847 76.0425 79.7082C75.3075 79.7762 74.5647 79.7972 73.8506 80.0012C73.385 80.132 73.1196 80.4484 73.1366 80.9598C73.1536 81.4711 73.4217 81.7719 73.8728 81.9223C74.2886 82.0567 74.7291 82.0969 75.1623 82.04C76.2805 81.9079 76.3276 81.853 76.3276 80.7296Z" fill="#0045E5"/>
<path d="M60.9794 79.8299C60.9794 80.417 60.9559 81.0069 60.9794 81.5914C61.003 82.176 60.7793 82.5644 60.2758 82.7998C58.8072 83.4864 57.2993 83.5845 55.7901 82.9764C54.8642 82.6024 54.4562 81.8635 54.4915 80.8473C54.5242 79.8966 55.0041 79.2623 55.9667 78.9209C56.7762 78.6332 57.6328 78.6398 58.4698 78.5286C58.7627 78.4894 59.244 78.6999 59.3146 78.186C59.3852 77.672 59.2139 77.2313 58.7143 76.9906C58.2614 76.7723 57.7539 76.6936 57.2562 76.7644C56.7597 76.8252 56.2731 76.9496 55.8084 77.1345C55.5469 77.2391 55.2853 77.4235 55.0891 77.0443C54.9139 76.7042 54.8943 76.376 55.1872 76.0883C55.4279 75.8516 55.743 75.7522 56.0569 75.6645C57.1031 75.3716 58.1494 75.3141 59.2034 75.6462C60.3595 76.0111 60.8944 76.6728 60.9611 77.8695C60.9977 78.5234 60.9677 79.1773 60.9677 79.8312L60.9794 79.8299ZM59.3329 80.7453C59.3329 80.4837 59.3329 80.2222 59.3329 79.9606C59.3329 79.7697 59.2662 79.6899 59.0635 79.7082C58.3076 79.7775 57.5439 79.7906 56.8128 80.0208C56.6091 80.0698 56.4297 80.1901 56.3071 80.3599C56.1845 80.5298 56.1268 80.738 56.1445 80.9467C56.139 81.1555 56.2011 81.3604 56.3215 81.531C56.442 81.7016 56.6143 81.8288 56.8128 81.8935C57.244 82.0478 57.7056 82.098 58.1598 82.04C59.2832 81.9145 59.3342 81.8556 59.3329 80.744V80.7453Z" fill="#0045E5"/>
<path d="M38.9353 75.4148C39.5366 75.4169 40.1342 75.5081 40.7087 75.6855C40.9826 75.763 41.2289 75.9167 41.4188 76.1288C41.6804 76.4335 41.6804 76.7578 41.4777 77.0926C41.2501 77.4771 40.9951 77.2117 40.7558 77.1175C40.0391 76.835 39.3172 76.6205 38.5325 76.8298C38.1075 76.9436 37.7478 77.1201 37.7348 77.6328C37.7269 78.1166 38.0656 78.3023 38.4632 78.4253C39.2479 78.6685 40.0731 78.7888 40.8094 79.1877C41.594 79.6101 41.9864 80.2431 41.9498 81.1494C41.9158 82.0256 41.4803 82.6089 40.7165 82.9908C40.2428 83.2066 39.7292 83.3206 39.2086 83.3255C38.3128 83.3687 37.4248 83.3059 36.614 82.8613C36.2465 82.6599 36.0006 82.38 36.0451 81.9236C36.0974 81.3796 36.3812 81.2109 36.8559 81.4737C37.621 81.8988 38.4253 82.1015 39.3002 81.9655C39.7736 81.8922 40.1999 81.7484 40.2732 81.1808C40.3543 80.5491 39.9593 80.2784 39.444 80.1136C38.6594 79.8612 37.8289 79.7605 37.0979 79.3512C36.8164 79.1977 36.5767 78.9776 36.4 78.7101C36.2233 78.4426 36.1148 78.1358 36.0841 77.8167C36.0534 77.4976 36.1014 77.1757 36.2238 76.8794C36.3463 76.5831 36.5395 76.3214 36.7866 76.117C37.0855 75.8629 37.4405 75.6836 37.8224 75.5939C38.2396 75.4854 38.6672 75.386 38.9353 75.4148Z" fill="#0045E5"/>
<path d="M43.251 77.7008C43.251 76.5238 43.2785 75.3468 43.2379 74.1789C43.2222 73.7133 43.3543 73.4884 43.816 73.4766C44.2776 73.4649 44.772 73.4479 44.8792 74.0612C44.9157 74.3627 44.9279 74.6667 44.9158 74.9701C44.9158 75.815 44.9158 75.815 45.7907 75.815C46.1831 75.815 46.5754 75.8437 46.9677 75.8084C47.4281 75.7666 47.5327 76.036 47.5484 76.3956C47.5641 76.7801 47.4582 77.1044 46.9991 77.1227C46.476 77.1411 45.9529 77.1541 45.4298 77.1227C45.0374 77.1005 44.8975 77.2274 44.9067 77.6328C44.9328 78.6097 44.9145 79.5945 44.9158 80.5675C44.9158 81.7445 45.4102 82.1368 46.6002 81.9328C46.9363 81.8739 47.3588 81.5091 47.534 82.1564C47.6556 82.6076 47.3614 83.0601 46.8003 83.2157C46.1244 83.399 45.4106 83.3882 44.7406 83.1843C43.7519 82.8979 43.2758 82.2689 43.2588 81.2227C43.2392 80.0457 43.2588 78.8686 43.2588 77.6995L43.251 77.7008Z" fill="#0045E5"/>
<path d="M48.8653 79.7409C48.8653 78.8922 48.8745 78.0408 48.8653 77.1973C48.8502 77.0011 48.8902 76.8046 48.9808 76.6299C49.0714 76.4552 49.2089 76.3093 49.378 76.2086C50.4517 75.5258 51.7459 75.2797 52.9953 75.5207C53.1368 75.5351 53.2716 75.5881 53.3851 75.6739C53.4986 75.7597 53.5863 75.8749 53.6387 76.0072C53.8166 76.4636 53.5302 76.8755 53.0528 76.8272C52.3997 76.7619 51.7401 76.8219 51.1095 77.0037C50.6805 77.1227 50.4843 77.3333 50.4961 77.8302C50.5353 79.3996 50.4817 80.9611 50.5262 82.5252C50.5419 83.0706 50.3065 83.2223 49.8579 83.2144C49.4093 83.2066 48.8862 83.1896 48.8692 82.5461C48.8457 81.6111 48.8692 80.676 48.8692 79.7422L48.8653 79.7409Z" fill="#0045E5"/>
<path d="M62.6612 59.7409C61.9208 59.7419 61.1876 59.5962 60.5039 59.3123C59.8202 59.0283 59.1995 58.6117 58.6777 58.0866C58.2082 57.6341 57.7805 57.1371 57.3176 56.6768C56.6283 55.9954 55.8228 55.9954 55.1335 56.6768C54.6104 57.1999 54.1305 57.7688 53.589 58.271C51.7581 59.9645 49.6304 60.4223 47.3117 59.5461C45.0714 58.6986 43.7623 57.0351 43.5635 54.5987C43.4624 53.3977 43.7293 52.1944 44.3286 51.1487C46.3465 47.606 48.3644 44.0605 50.4543 40.5557C53.0215 36.257 59.2335 36.1393 61.8739 40.3922C64.0814 43.9481 66.166 47.585 68.1578 51.2664C70.2725 55.1715 67.2411 59.7475 62.6612 59.7409ZM62.9502 56.8638C65.2637 56.8638 66.6839 54.4574 65.435 52.2591C63.5082 48.8771 61.5639 45.5109 59.6023 42.1603C58.0538 39.5081 54.4064 39.5081 52.8449 42.1525C52.14 43.3478 51.4547 44.5549 50.7629 45.758C49.4551 48.0336 48.116 50.2921 46.8513 52.5925C46.0274 54.09 46.4014 55.6384 47.6844 56.5251C48.9673 57.4117 50.6374 57.209 51.7634 56.0203C52.1819 55.5769 52.6108 55.1427 53.0359 54.7125C54.8484 52.8554 57.5438 52.8345 59.3682 54.6667C59.7513 55.0512 60.1162 55.4514 60.4981 55.8437C61.1141 56.4714 61.8333 56.8716 62.9502 56.852V56.8638Z" fill="#EAE702"/>
<path d="M62.9502 56.852C61.8347 56.8716 61.1193 56.4662 60.4981 55.8385C60.1163 55.4461 59.7514 55.046 59.3682 54.6615C57.5373 52.8306 54.8485 52.8502 53.0359 54.7072C52.6109 55.1427 52.1819 55.5769 51.7634 56.015C50.6374 57.2038 48.9752 57.4118 47.6844 56.5198C46.3936 55.6279 46.0275 54.0847 46.8514 52.5873C48.116 50.2869 49.4552 48.0284 50.763 45.7528C51.4548 44.5497 52.1401 43.3426 52.845 42.1473C54.4065 39.5029 58.0539 39.5029 59.6023 42.1551C61.5605 45.5091 63.503 48.8732 65.4298 52.2473C66.684 54.4457 65.2637 56.8533 62.9502 56.852Z" fill="#0045E5"/>
</g>
</g>
<rect x="1" y="1" width="110" height="110" rx="9" stroke="black" stroke-opacity="0.1" stroke-width="2"/>
<defs>
<clipPath id="clip0_752_502">
<rect x="2" y="2" width="108" height="108" rx="8" fill="white"/>
</clipPath>
<clipPath id="clip1_752_502">
<rect width="60.3936" height="60" fill="white" transform="translate(26 26)"/>
</clipPath>
</defs>
</svg>
