<svg width="112" height="112" viewBox="0 0 112 112" fill="none" xmlns="http://www.w3.org/2000/svg">
<g clip-path="url(#clip0_752_382)">
<rect x="2" y="2" width="108" height="108" rx="8" fill="white"/>
<path d="M55.6411 64.1987C67.5701 64.1987 77.2404 54.5284 77.2404 42.5994C77.2404 30.6704 67.5701 21 55.6411 21C43.7121 21 34.0417 30.6704 34.0417 42.5994C34.0417 54.5284 43.7121 64.1987 55.6411 64.1987Z" fill="#00AED6"/>
<path fill-rule="evenodd" clip-rule="evenodd" d="M68.2407 41.9693C68.0607 39.2694 65.7207 37.1095 63.0208 37.2895H49.3412C48.8012 37.2895 48.4413 36.9295 48.4413 36.3895C48.4413 35.8495 48.8012 35.4895 49.3412 35.4895H63.2008C63.1108 33.6896 61.7609 31.7997 60.0509 31.5297C56.001 30.8097 51.8612 30.8097 47.9013 31.5297C45.6513 31.8897 43.9414 34.1396 43.5814 36.2995C42.9514 40.5294 42.9514 44.8493 43.5814 49.0791C44.0314 51.5091 46.0113 53.489 48.5313 53.849C53.5711 54.479 58.611 54.479 63.5608 53.849C65.8107 53.579 67.2507 51.5091 67.7007 49.3491C68.1507 46.8292 68.3307 44.3993 68.2407 41.9693ZM63.7408 44.9393V45.7492C63.7408 46.2892 63.3808 46.6492 62.8408 46.6492C62.3008 46.6492 61.9409 46.2892 61.9409 45.7492V44.9393C61.6709 44.6693 61.4909 44.3093 61.4909 43.9493C61.4909 43.2293 62.1208 42.5993 62.8408 42.5993C63.5608 42.5993 64.1908 43.2293 64.1908 43.9493C64.1908 44.3093 64.0108 44.6693 63.7408 44.9393Z" fill="white"/>
<path d="M23.0621 85.798C23.9621 87.148 25.492 87.868 27.112 87.778C29.0019 87.778 30.3519 86.608 30.3519 84.988V84.0881C29.3619 85.078 27.9219 85.618 26.482 85.528C22.9721 85.618 20.0922 82.9181 20.0022 79.4082C19.9122 75.8983 22.6121 73.0184 26.122 72.9284C26.212 72.9284 26.302 72.9284 26.392 72.9284C27.8319 72.8384 29.2719 73.3784 30.3519 74.3684V73.1984H33.5918V84.898C33.5918 88.3179 30.8919 90.6579 27.112 90.6579C24.592 90.8379 22.2521 89.7579 20.6322 87.778L23.0621 85.798ZM30.2619 78.5082C30.2619 77.1583 28.7319 75.8983 27.022 75.8983C24.862 75.8983 23.4221 77.2483 23.4221 79.2282C23.3321 80.9382 24.592 82.4681 26.392 82.6481C26.572 82.6481 26.752 82.6481 26.932 82.6481C28.8219 82.6481 30.3519 81.4782 30.3519 80.0382V78.5082H30.2619Z" fill="black"/>
<path d="M42.0515 72.8384C46.0114 72.8384 48.8013 75.6283 48.8013 79.2282C48.8013 82.8281 45.9214 85.618 42.0515 85.618C38.5416 85.798 35.4817 83.0981 35.3017 79.5882C35.1217 76.0783 37.7316 73.0184 41.2415 72.8384C41.5115 72.8384 41.7815 72.8384 42.0515 72.8384ZM42.0515 75.8083C40.1616 75.8083 38.6316 77.3383 38.6316 79.2282C38.6316 81.1182 40.1616 82.6481 42.0515 82.6481C43.9415 82.6481 45.4714 81.1182 45.4714 79.2282C45.5614 77.4283 44.1214 75.8983 42.4115 75.8083C42.2315 75.8083 42.1415 75.8083 42.0515 75.8083Z" fill="black"/>
<path d="M50.6912 73.1984H53.9311V74.2784H54.0211C55.1011 73.2884 56.451 72.8384 57.891 72.8384C61.4009 72.9284 64.1908 75.8083 64.1008 79.3182C64.0108 82.7381 61.3109 85.438 57.891 85.528C56.541 85.528 55.1911 85.078 54.1111 84.2681H54.0211V90.2979H50.6912V73.1984ZM57.261 75.8083C55.4611 75.8083 54.0211 77.0683 54.0211 78.4182V79.9482C54.0211 81.3881 55.4611 82.5581 57.351 82.5581C59.241 82.5581 60.7709 81.0282 60.6809 79.1382C60.6809 77.3383 59.151 75.8083 57.261 75.8083Z" fill="black"/>
<path d="M70.4007 78.0583C72.5606 77.7883 73.2806 77.4283 73.2806 76.7983C73.2806 75.9883 72.4706 75.5383 71.1206 75.5383C69.7707 75.4483 68.4207 76.3483 68.1507 77.6983L65.0008 77.0683C65.4508 74.6384 67.9707 72.8384 71.1206 72.8384C74.6305 72.8384 76.7905 74.6384 76.7905 77.5183V85.168H73.6406V83.8181C72.6506 84.988 71.1206 85.618 69.5907 85.438C66.9808 85.438 65.0908 83.9981 65.0908 81.8381C65.0908 79.6782 66.5308 78.5982 70.4007 78.0583ZM73.4606 79.3182C73.1006 79.7682 72.4706 80.0382 70.8506 80.3082C68.8707 80.6682 68.1507 81.0282 68.1507 81.7481C68.1507 82.4681 68.7807 82.8281 70.0407 82.8281C71.9306 82.8281 73.4606 81.9281 73.4606 80.7582V79.3182Z" fill="black"/>
<path d="M82.7303 84.5381L77.2404 73.1984H80.9303L84.6202 81.0282H84.7102L88.3101 73.1984H92L83.7203 90.2979H79.9404L82.7303 84.5381Z" fill="black"/>
</g>
<rect x="1" y="1" width="110" height="110" rx="9" stroke="black" stroke-opacity="0.1" stroke-width="2"/>
<defs>
<clipPath id="clip0_752_382">
<rect x="2" y="2" width="108" height="108" rx="8" fill="white"/>
</clipPath>
</defs>
</svg>
