<svg width="112" height="112" viewBox="0 0 112 112" fill="none" xmlns="http://www.w3.org/2000/svg">
<g clip-path="url(#clip0_752_303)">
<rect x="1.99991" y="2" width="108" height="108" rx="8" fill="white"/>
<g clip-path="url(#clip1_752_303)">
<path d="M53.212 35.2143H73.4878C76.4166 35.2143 78.3159 37.5952 78.3159 40.2661V83.0708C78.3159 86.9014 75.8048 89.2504 73.4878 90.0219L56.4946 95.7518C56.4946 95.7518 51.3127 91.2136 49.5116 84.6802C49.5116 84.6802 51.7107 87.6238 55.2882 87.6238C59.5365 87.6238 63.2049 84.3657 63.2049 80.3091C63.2049 76.2525 63.2295 56.7506 63.2295 48.544C63.2295 40.3373 55.9885 35.7991 53.212 35.2119V35.2143Z" fill="url(#paint0_linear_752_303)"/>
<path d="M55.4553 96C55.4553 96 47.9317 89.0882 47.9317 80.5917V48.3769C47.9317 43.2932 53.5953 41.8116 55.5904 41.8116C57.5856 41.8116 60.0967 43.0352 61.738 44.9665C61.738 44.9665 60.2908 39.6248 55.6224 37.3397C50.9564 35.0546 47.7696 35.2168 46.0643 35.2168C44.3591 35.2168 40.3344 35.2168 38.0518 35.2168C35.7692 35.2168 33.0001 36.6616 33.0001 40.556V84.1004C33.0001 88.0096 36.8454 89.5551 38.4867 90.1349C40.128 90.7148 55.4553 96 55.4553 96Z" fill="url(#paint1_linear_752_303)"/>
<path d="M63.2516 23.6587C63.2516 27.8898 59.8215 31.3174 55.5929 31.3174C51.3643 31.3174 47.9342 27.8873 47.9342 23.6587C47.9342 19.4301 51.3618 16 55.5929 16C59.824 16 63.2516 19.4301 63.2516 23.6587Z" fill="url(#paint2_linear_752_303)"/>
</g>
</g>
<rect x="1" y="1" width="110" height="110" rx="9" stroke="black" stroke-opacity="0.1" stroke-width="2"/>
<defs>
<linearGradient id="paint0_linear_752_303" x1="63.9126" y1="35.5362" x2="63.9126" y2="94.8181" gradientUnits="userSpaceOnUse">
<stop stop-color="#00B0C3"/>
<stop offset="1" stop-color="#3151B0"/>
</linearGradient>
<linearGradient id="paint1_linear_752_303" x1="47.369" y1="35.5362" x2="47.369" y2="96.3243" gradientUnits="userSpaceOnUse">
<stop stop-color="#3151B0"/>
<stop offset="1" stop-color="#00B0C3"/>
</linearGradient>
<linearGradient id="paint2_linear_752_303" x1="55.5929" y1="16.516" x2="55.5929" y2="31.6884" gradientUnits="userSpaceOnUse">
<stop stop-color="#FABE40"/>
<stop offset="1" stop-color="#F07728"/>
</linearGradient>
<clipPath id="clip0_752_303">
<rect x="2" y="2" width="108" height="108" rx="8" fill="white"/>
</clipPath>
<clipPath id="clip1_752_303">
<rect width="45.3134" height="80" fill="white" transform="translate(33 16)"/>
</clipPath>
</defs>
</svg>
