<svg width="112" height="112" viewBox="0 0 112 112" fill="none" xmlns="http://www.w3.org/2000/svg">
<g clip-path="url(#clip0_752_448)">
<rect x="2" y="2" width="108" height="108" rx="8" fill="white"/>
<g clip-path="url(#clip1_752_448)">
<path d="M83.7434 42.0206V45.1222C83.6914 45.5267 83.7097 45.9356 83.6732 46.3404C83.5349 47.8772 83.285 49.3957 82.8886 50.8884C81.2958 56.8879 78.0796 61.8414 73.2295 65.7063C68.5865 69.406 63.2682 71.3846 57.3427 71.7148C55.8296 71.7992 54.316 71.7508 52.8068 71.5809C50.8633 71.3623 48.9571 70.9713 47.1097 70.3324C39.6734 67.7609 34.211 62.9372 30.743 55.879C29.1657 52.6688 28.3221 49.252 28.0817 45.6857C27.9927 44.3635 28.0079 43.0418 28.1116 41.7195C28.2279 40.2345 28.4495 38.7669 28.8045 37.3208C30.0791 32.1279 32.6146 27.6426 36.454 23.9231C41.3147 19.2148 47.1457 16.6136 53.8913 16.0778C55.7036 15.9338 57.5148 15.9945 59.321 16.2159C61.2438 16.4513 63.1277 16.8621 64.9519 17.5114C72.1781 20.0832 77.5242 24.8013 80.9549 31.6572C82.5627 34.8701 83.4717 38.288 83.692 41.8813C83.695 41.9313 83.6754 41.9931 83.7434 42.0206ZM61.1611 44.7354V45.503C61.1611 48.4051 61.1611 51.3071 61.1611 54.2091C61.1611 54.3449 61.1613 54.4802 61.1845 54.6155C61.3211 55.4156 61.7701 56.002 62.4686 56.3753C63.811 57.0929 65.2005 57.1378 66.5736 56.489C67.5659 56.0203 68.0851 55.2188 68.0796 54.0822C68.0652 51.1168 68.0742 48.1511 68.075 45.1856C68.0755 43.7891 68.0755 42.3933 67.9683 40.9992C67.8855 39.9225 67.7603 38.8535 67.5259 37.798C67.2346 36.4867 66.6643 35.3218 65.7398 34.3382C64.8243 33.3641 63.7258 32.6547 62.5084 32.1247C60.2573 31.1446 57.888 30.7921 55.4493 30.84C53.7637 30.8732 52.1098 31.1215 50.4996 31.6303C49.0524 32.0874 47.6991 32.7296 46.5201 33.7009C45.1535 34.8271 44.2649 36.2324 43.9962 38.0079C43.8209 39.1679 43.7534 40.3347 43.7495 41.5039C43.7357 45.7663 43.7378 50.0287 43.734 54.291C43.734 54.4272 43.7414 54.5622 43.77 54.6964C43.9216 55.4102 44.3218 55.9481 44.9308 56.3369C45.4619 56.6761 46.0505 56.847 46.6725 56.9034C47.5889 56.9867 48.4676 56.8473 49.2675 56.3753C50.1122 55.8771 50.554 55.1478 50.5554 54.1391C50.5606 50.2034 50.5097 46.2678 50.5881 42.3326C50.5989 41.7895 50.5663 41.2448 50.6409 40.703C50.9319 38.5891 52.6595 36.9993 54.7903 36.8879C57.1794 36.763 59.2524 38.6104 59.409 41.0033C59.5587 43.2933 57.9626 45.2983 55.6905 45.6756C55.6353 45.6849 55.5639 45.6705 55.5367 45.7579C56.6314 46.106 57.7396 46.2081 58.8661 45.9746C59.7112 45.7995 60.4642 45.4445 61.0421 44.7778C61.0639 44.7528 61.0832 44.7171 61.1603 44.7351L61.1611 44.7354Z" fill="#009AD9"/>
<path d="M83.7434 83.2671C83.5913 83.5336 83.3484 83.5992 83.0604 83.5984C81.3829 83.594 79.7051 83.5959 78.0276 83.597C77.9288 83.597 77.8284 83.5812 77.7314 83.6128C77.7102 84.5109 78.3559 85.3948 79.2693 85.6516C80.261 85.93 81.1896 85.7999 82.0017 85.1147C82.1607 84.9805 82.2968 84.8185 82.4822 84.7167C82.7365 84.577 82.9894 84.5888 83.2276 84.7466C83.4505 84.8945 83.5406 85.1163 83.5227 85.3799C83.5096 85.5704 83.4037 85.7188 83.2812 85.8555C83.0188 86.1489 82.713 86.3909 82.3654 86.5731C81.0747 87.2496 79.7343 87.337 78.3695 86.8461C77.5087 86.5363 76.8518 85.9551 76.4465 85.1332C75.7771 83.7767 75.7305 82.3837 76.4008 81.0225C77.0683 79.6668 78.2133 78.9688 79.7141 78.8552C80.1867 78.8196 80.6558 78.8544 81.112 78.999C82.4054 79.409 83.1728 80.3196 83.5782 81.5787C83.6699 81.8634 83.6852 82.161 83.7434 82.4509V83.2671ZM77.7793 82.201C77.8303 82.2048 77.8836 82.2124 77.937 82.2127C79.2766 82.2135 80.6163 82.2138 81.9557 82.2127C82.1939 82.2127 82.2089 82.1964 82.1498 81.9666C81.9772 81.2961 81.62 80.7606 80.9906 80.4385C79.9599 79.9112 78.299 80.2306 77.8185 81.8781C77.7894 81.9778 77.7298 82.0801 77.7793 82.201Z" fill="#232323"/>
<path d="M45.4853 96C45.4494 95.9096 45.3577 95.9178 45.2874 95.8908C45.0536 95.8012 44.8554 95.6621 44.6969 95.4689C44.578 95.3238 44.575 95.1561 44.6822 95.0523C44.7969 94.9415 44.9539 94.9418 45.1009 95.0572C45.1508 95.0962 45.1935 95.1438 45.2406 95.1865C45.6313 95.5413 46.5511 95.4792 46.6992 94.7055C46.7303 94.5435 46.7406 94.3845 46.7395 94.17C46.3807 94.5626 45.9604 94.666 45.4908 94.5792C45.1576 94.5177 44.8856 94.3432 44.6733 94.0796C44.2309 93.5311 44.2731 92.609 44.7623 92.1005C45.2861 91.5558 46.0287 91.5321 46.7199 92.0395C46.7373 91.9889 46.7493 91.9366 46.7722 91.8901C46.8457 91.7414 46.953 91.6815 47.0981 91.702C47.2328 91.721 47.3395 91.8261 47.3684 91.9706C47.3736 91.9971 47.3744 92.0248 47.3741 92.0518C47.3646 92.8856 47.4013 93.72 47.3412 94.5533C47.3259 94.7627 47.2742 94.9639 47.1933 95.1574C47.0373 95.5312 46.7697 95.7806 46.3796 95.9006C46.2977 95.9259 46.1972 95.9156 46.1384 95.9997H45.4853V96ZM46.7319 93.1208C46.7273 92.6224 46.369 92.2766 45.8621 92.2815C45.3718 92.2862 45.0062 92.6605 45.013 93.1505C45.0198 93.6443 45.3887 94.0007 45.8847 93.9931C46.3717 93.9857 46.7365 93.61 46.7322 93.1208H46.7319Z" fill="#232323"/>
<path d="M61.1611 44.7353C61.0841 44.7174 61.0647 44.753 61.043 44.7781C60.465 45.445 59.712 45.7998 58.867 45.9748C57.7405 46.2081 56.6325 46.1063 55.5376 45.7581C55.5648 45.6707 55.6361 45.6851 55.6914 45.6759C57.9634 45.2986 59.5595 43.2936 59.4098 41.0035C59.2533 38.6106 57.18 36.7632 54.7911 36.8882C52.6601 36.9995 50.9327 38.5894 50.6417 40.7033C50.5671 41.245 50.5998 41.7898 50.5889 42.3329C50.5105 46.268 50.5614 50.204 50.5562 54.1394C50.5549 55.1483 50.1128 55.8773 49.2683 56.3755C48.4685 56.8473 47.5897 56.9869 46.6734 56.9036C46.0513 56.847 45.4627 56.676 44.9316 56.3371C44.3226 55.9484 43.9224 55.4104 43.7708 54.6966C43.7422 54.5621 43.7346 54.4274 43.7349 54.2913C43.7387 50.0289 43.7365 45.7665 43.7504 41.5042C43.7542 40.3349 43.8217 39.1679 43.997 38.0081C44.2655 36.2329 45.1543 34.8274 46.5209 33.7011C47.7 32.7295 49.0532 32.0876 50.5004 31.6305C52.1107 31.1217 53.7648 30.8734 55.4502 30.8402C57.8889 30.792 60.2578 31.1449 62.5092 32.1249C63.7266 32.6549 64.8251 33.3644 65.7406 34.3384C66.6651 35.322 67.2355 36.4872 67.5267 37.7983C67.7611 38.8537 67.8864 39.9228 67.9691 40.9995C68.0764 42.3936 68.0761 43.7896 68.0758 45.1859C68.075 48.1513 68.066 51.117 68.0805 54.0825C68.0859 55.2188 67.5668 56.0205 66.5745 56.4893C65.201 57.138 63.8116 57.0931 62.4695 56.3755C61.7712 56.0023 61.322 55.4159 61.1853 54.6158C61.1622 54.4805 61.1619 54.3452 61.1619 54.2093C61.1619 51.3073 61.1619 48.4053 61.1619 45.5033V44.7356L61.1611 44.7353Z" fill="#FEFEFE"/>
<path d="M67.9993 80.0969C68.09 80 68.1618 79.9189 68.2381 79.8426C69.8478 78.2332 72.6681 78.4434 74.0184 80.2739C74.4905 80.9139 74.7325 81.6391 74.7442 82.4283C74.7624 83.652 74.7556 84.8762 74.7529 86.1005C74.7521 86.4642 74.5977 86.7528 74.2591 86.912C73.9454 87.0596 73.6405 87.0242 73.3637 86.8143C73.1296 86.6371 73.0335 86.3893 73.0316 86.1024C73.0291 85.7036 73.031 85.3045 73.031 84.9054C73.031 84.053 73.0348 83.2006 73.0299 82.3483C73.0245 81.3982 72.3992 80.6109 71.4864 80.3928C70.4962 80.1563 69.5094 80.5774 69.0771 81.4238C68.917 81.7368 68.8579 82.072 68.8588 82.4223C68.8618 83.5921 68.8604 84.7616 68.8593 85.9314C68.8593 86.04 68.8579 86.1495 68.8441 86.257C68.7869 86.6937 68.409 87.0166 67.98 87.0008C67.5403 86.9847 67.187 86.6523 67.1486 86.2162C67.1415 86.1351 67.1445 86.0531 67.1445 85.9714C67.1445 84.7837 67.1461 83.5957 67.1437 82.4079C67.142 81.5585 66.7737 80.9155 66.0052 80.5504C65.2236 80.1791 64.4499 80.2426 63.7465 80.7609C63.2055 81.1594 62.9673 81.7249 62.9652 82.3888C62.9611 83.5948 62.9643 84.8008 62.9635 86.0068C62.9635 86.1424 62.9695 86.2782 62.9251 86.4106C62.7956 86.7971 62.4131 87.0421 62.0159 86.9904C61.5874 86.9343 61.277 86.6185 61.2632 86.1955C61.2495 85.7787 61.2577 85.3614 61.2583 84.9443C61.2591 84.074 61.2365 83.2026 61.2691 82.3333C61.3105 81.2269 61.7619 80.2978 62.6262 79.5955C63.4394 78.9347 64.3862 78.6895 65.4229 78.7812C66.444 78.8713 67.2964 79.3033 67.9996 80.0977L67.9993 80.0969Z" fill="#232323"/>
<path d="M38.9044 83.5962C38.9512 84.6666 39.6549 85.5067 40.6654 85.7098C41.6482 85.9072 42.5384 85.7204 43.2914 85.0232C43.3777 84.9432 43.4632 84.861 43.5568 84.7899C43.8705 84.552 44.2696 84.5722 44.52 84.8335C44.7702 85.0946 44.7792 85.4651 44.5325 85.7738C44.3447 86.009 44.1196 86.2064 43.8702 86.3749C43.1855 86.8374 42.426 87.0802 41.6049 87.1328C40.9851 87.1725 40.3742 87.1235 39.7793 86.9281C38.6281 86.5494 37.8323 85.7934 37.4185 84.6582C36.9985 83.5055 36.9889 82.3393 37.4928 81.2131C38.1522 79.7392 39.3255 78.962 40.9311 78.8547C42.1456 78.7736 43.1782 79.171 43.978 80.1075C44.4726 80.6868 44.7514 81.3688 44.8873 82.1133C44.9428 82.4177 44.9657 82.725 44.9564 83.0338C44.9466 83.3613 44.7667 83.5513 44.4389 83.5886C44.3403 83.5997 44.2396 83.5959 44.14 83.5959C42.4984 83.5962 40.8566 83.5959 39.215 83.5959H38.9049L38.9044 83.5962ZM38.9694 82.1947C39.0378 82.2239 39.111 82.2124 39.1826 82.2124C40.495 82.213 41.8075 82.2132 43.1196 82.2124C43.3911 82.2124 43.387 82.2116 43.3235 81.9402C43.0984 80.9738 42.267 80.1777 41.1255 80.2101C40.0801 80.2398 39.2147 80.9348 38.9719 81.9821C38.9561 82.0507 38.9278 82.1218 38.9694 82.1945V82.1947Z" fill="#232323"/>
<path d="M33.9195 84.1818C33.9195 83.5924 33.9181 83.0027 33.9195 82.4133C33.9227 81.2593 33.1534 80.613 32.4303 80.4102C31.327 80.1004 30.2037 80.6547 29.8477 81.6897C29.7606 81.9429 29.7412 82.2026 29.7412 82.4664C29.7418 83.6455 29.7412 84.8242 29.7412 86.0033C29.7412 86.1119 29.7412 86.22 29.7162 86.3275C29.6291 86.7073 29.3184 86.973 28.9253 86.998C28.5605 87.0214 28.2031 86.787 28.0787 86.4361C28.0335 86.3085 28.0068 86.1772 28.0071 86.0376C28.0109 84.8678 27.9823 83.6972 28.0153 82.5282C28.0735 80.4448 29.429 79.1373 31.0509 78.8329C33.1169 78.4453 35.1189 79.6267 35.5518 81.7668C35.5986 81.9976 35.6299 82.2312 35.6299 82.4681C35.6296 83.6743 35.6313 84.8803 35.6291 86.0866C35.628 86.5861 35.3354 86.9281 34.8677 86.989C34.4394 87.0448 34.0251 86.7527 33.9426 86.3289C33.9219 86.2232 33.9203 86.1127 33.9197 86.0044C33.9178 85.3967 33.9187 84.7891 33.9187 84.1815L33.9195 84.1818Z" fill="#232323"/>
<path d="M55.2615 85.4215C55.3786 85.4759 55.4695 85.4552 55.5569 85.4552C56.6725 85.4569 57.7879 85.4563 58.9035 85.4563C58.9759 85.4563 59.0489 85.4531 59.121 85.4577C59.5457 85.4849 59.8048 85.7419 59.8141 86.1429C59.8231 86.5371 59.5634 86.811 59.1425 86.8477C59.0614 86.8548 58.9794 86.8523 58.8978 86.8523C57.2382 86.8523 55.5784 86.8491 53.9189 86.8551C53.5527 86.8564 53.2168 86.8042 53.048 86.4369C52.8779 86.0661 53.0382 85.7631 53.2805 85.4713C54.6071 83.8744 55.9258 82.2704 57.2469 80.6688C57.3153 80.5858 57.3817 80.5011 57.459 80.4045C57.373 80.3356 57.2801 80.3656 57.1977 80.3653C56.1185 80.3631 55.0391 80.3642 53.96 80.3634C53.8606 80.3634 53.7599 80.3637 53.6619 80.3498C53.2549 80.2926 53.0211 80.0062 53.0407 79.5973C53.0581 79.2361 53.3273 78.9834 53.7299 78.9728C54.1288 78.9625 54.5279 78.9698 54.927 78.9698C56.2329 78.9698 57.5388 78.9698 58.8447 78.9698C58.9263 78.9698 59.0083 78.9663 59.0894 78.9731C59.6611 79.0205 59.9467 79.5701 59.6548 80.0656C59.6048 80.1508 59.5394 80.2281 59.4763 80.3046C58.1205 81.9481 56.7637 83.591 55.4077 85.2342C55.3623 85.2892 55.3198 85.3464 55.2613 85.4209L55.2615 85.4215Z" fill="#232323"/>
<path d="M49.1276 82.3278C49.1276 82.8897 49.1284 83.4519 49.1276 84.014C49.1273 84.2054 49.1491 84.3941 49.1932 84.5797C49.3129 85.082 49.6369 85.37 50.1514 85.4479C50.4672 85.4958 50.7844 85.4787 51.1012 85.4871C51.4138 85.4953 51.6452 85.6621 51.7462 85.9398C51.909 86.3871 51.6343 86.8602 51.1522 86.8935C50.5007 86.9381 49.8452 86.9316 49.2125 86.7315C48.2338 86.4219 47.6983 85.7242 47.499 84.7406C47.4375 84.4374 47.4174 84.13 47.4171 83.8216C47.4157 82.761 47.4166 81.7003 47.4166 80.6397C47.4166 80.5853 47.4176 80.5308 47.4166 80.4766C47.4119 80.2828 47.4117 80.2798 47.226 80.2784C46.9358 80.276 46.6459 80.2779 46.3557 80.2776C46.2833 80.2776 46.2103 80.2798 46.1382 80.2741C45.7401 80.2431 45.4783 79.9537 45.481 79.5508C45.4837 79.1503 45.7543 78.8617 46.1558 78.8503C46.5092 78.8402 46.8631 78.8495 47.2165 78.8468C47.4098 78.8451 47.4147 78.8419 47.4157 78.6505C47.4185 78.0521 47.4168 77.4537 47.4168 76.8556C47.4168 76.7832 47.4138 76.7105 47.4179 76.6381C47.4465 76.1402 47.7933 75.8105 48.2823 75.8152C48.7641 75.8195 49.1186 76.165 49.1254 76.6596C49.1344 77.2942 49.1276 77.9288 49.1278 78.5634C49.1278 78.6268 49.1278 78.6902 49.1289 78.7537C49.13 78.8185 49.1616 78.8533 49.2288 78.8528C49.2923 78.8525 49.3557 78.8533 49.4191 78.8533C49.9723 78.8533 50.5255 78.846 51.0784 78.856C51.6125 78.8658 51.9367 79.3553 51.7396 79.8453C51.6226 80.1369 51.3939 80.2795 51.0822 80.2812C50.52 80.2842 49.9579 80.2828 49.3957 80.2817C49.1088 80.2812 49.1284 80.227 49.1278 80.5605C49.1273 80.9321 49.1278 81.304 49.1278 81.6756C49.1278 81.8931 49.1278 82.1106 49.1278 82.3281L49.1276 82.3278Z" fill="#232323"/>
<path d="M70.3667 93.0323C70.5807 93.3342 70.7952 93.6364 71.0089 93.9394C71.0506 93.9985 71.0963 94.0565 71.1265 94.1213C71.1997 94.277 71.1532 94.4422 71.0201 94.5291C70.8848 94.6173 70.7173 94.598 70.6008 94.4727C70.5521 94.4202 70.5148 94.3565 70.4745 94.2963C70.2232 93.9195 69.9736 93.5417 69.721 93.1657C69.6358 93.0391 69.3502 92.9684 69.216 93.0323C69.1509 93.0634 69.1645 93.1211 69.1642 93.172C69.1626 93.4712 69.1634 93.7701 69.1632 94.0693C69.1632 94.1327 69.167 94.1964 69.1618 94.2596C69.1463 94.4439 69.0232 94.5691 68.8536 94.5789C68.6889 94.5881 68.5501 94.4692 68.5207 94.2846C68.5095 94.2136 68.5141 94.1401 68.5141 94.0676C68.5139 93.0163 68.5141 91.9649 68.5141 90.9135C68.5141 90.8501 68.5103 90.7861 68.5174 90.7232C68.5425 90.5019 68.6484 90.3977 68.8716 90.3955C69.3428 90.3908 69.8146 90.383 70.2856 90.399C70.7168 90.4137 71.0473 90.6182 71.2425 91.0102C71.4614 91.4496 71.4673 91.9012 71.2738 92.349C71.1368 92.6662 70.8962 92.875 70.5551 92.9577C70.4938 92.9727 70.4304 92.982 70.3667 93.0323ZM69.1637 91.6951C69.1637 91.8944 69.1659 92.0939 69.1626 92.2932C69.1612 92.3801 69.1866 92.4315 69.2832 92.4299C69.5911 92.425 69.8993 92.4291 70.2069 92.4163C70.4293 92.4073 70.5728 92.2684 70.6602 92.0754C70.7707 91.8318 70.7674 91.5813 70.6585 91.3377C70.5619 91.1218 70.3966 90.9938 70.1516 90.9914C69.8707 90.9884 69.5895 90.9936 69.3088 90.9857C69.1808 90.9821 69.1585 91.0431 69.1618 91.1509C69.1672 91.332 69.1632 91.5133 69.1634 91.6946L69.1637 91.6951Z" fill="#232323"/>
<path d="M51.6871 93.034C51.915 93.3552 52.1346 93.6648 52.3543 93.9743C52.4014 94.0404 52.4537 94.1025 52.4692 94.1869C52.497 94.3399 52.4469 94.4662 52.3241 94.5373C52.1902 94.6146 52.0394 94.5961 51.9283 94.479C51.879 94.427 51.8423 94.363 51.802 94.3029C51.5502 93.9266 51.3 93.5496 51.0473 93.1739C50.9583 93.0416 50.6888 92.9648 50.5464 93.0277C50.4694 93.0618 50.4893 93.1325 50.489 93.1922C50.4874 93.4911 50.4882 93.79 50.4882 94.0889C50.4882 94.1523 50.4931 94.2166 50.4852 94.2789C50.4629 94.4553 50.3232 94.5797 50.1558 94.5786C49.9979 94.5776 49.8707 94.4643 49.8452 94.2931C49.8345 94.222 49.8389 94.1485 49.8389 94.0761C49.8386 93.0163 49.8386 91.9562 49.8389 90.8964C49.8389 90.824 49.8351 90.7505 49.8457 90.6794C49.8721 90.5036 49.9753 90.399 50.1552 90.3971C50.6624 90.3917 51.1712 90.3762 51.6767 90.4061C52.1986 90.4371 52.5593 90.7984 52.6889 91.3551C52.7583 91.6532 52.7466 91.95 52.6421 92.2377C52.5068 92.6098 52.2596 92.8679 51.8621 92.9613C51.8183 92.9716 51.7753 92.9863 51.7323 93.0002C51.7241 93.003 51.7179 93.0108 51.6874 93.0343L51.6871 93.034ZM50.4882 91.6747C50.4882 91.883 50.4906 92.0915 50.4871 92.2998C50.4857 92.3891 50.5151 92.4329 50.6107 92.431C50.9093 92.4255 51.2085 92.4296 51.5071 92.4198C51.7277 92.4125 51.8777 92.2883 51.9708 92.0942C52.1014 91.822 52.0908 91.5506 51.9514 91.2854C51.8556 91.1033 51.7023 90.9985 51.4944 90.9941C51.2047 90.9879 50.9145 90.9933 50.6248 90.9871C50.5162 90.9846 50.4841 91.0293 50.4871 91.1313C50.4923 91.3124 50.4884 91.4937 50.4887 91.6747H50.4882Z" fill="#232323"/>
<path d="M76.306 92.0479C76.5652 91.7498 76.8807 91.66 77.2283 91.6693C77.5929 91.6791 77.8613 91.8612 78.0418 92.1971C78.3086 91.7822 78.6723 91.6252 79.1245 91.6758C79.6436 91.7341 79.9621 92.0439 80.0419 92.5597C80.0599 92.6757 80.0686 92.7941 80.0694 92.9115C80.0726 93.3193 80.0707 93.7271 80.0705 94.1349C80.0705 94.1893 80.0737 94.2443 80.0658 94.2977C80.0408 94.4665 79.912 94.5794 79.7522 94.5786C79.5938 94.5778 79.4699 94.4629 79.4476 94.2895C79.4394 94.2269 79.4438 94.1629 79.4438 94.0995C79.4435 93.7641 79.4438 93.4287 79.4438 93.0936C79.4438 93.0302 79.446 92.9665 79.4422 92.9033C79.4209 92.5339 79.211 92.3 78.8871 92.2832C78.5321 92.2646 78.2541 92.4841 78.1959 92.8382C78.1782 92.9447 78.1784 93.0549 78.1776 93.1636C78.1754 93.4807 78.1771 93.7979 78.1765 94.1153C78.1765 94.1787 78.1812 94.2432 78.1705 94.305C78.142 94.4708 78.0056 94.5832 77.8482 94.5789C77.7007 94.5748 77.5782 94.4689 77.5501 94.3113C77.5392 94.2495 77.5439 94.185 77.5436 94.1215C77.543 93.7772 77.5436 93.4328 77.5433 93.0884C77.5433 93.025 77.5455 92.9613 77.5425 92.8981C77.5245 92.5276 77.3116 92.2921 76.988 92.2829C76.5979 92.2714 76.3057 92.5094 76.2867 92.8856C76.2679 93.2564 76.2802 93.6285 76.2788 94.0001C76.2785 94.0818 76.2837 94.1637 76.2761 94.2446C76.2567 94.4482 76.1266 94.5792 75.9513 94.5789C75.7749 94.5789 75.6431 94.4477 75.6415 94.2378C75.6358 93.5128 75.6369 92.7876 75.6407 92.0626C75.6418 91.8585 75.7433 91.7327 75.9056 91.7038C76.0738 91.6739 76.1794 91.7463 76.2685 91.9537C76.2791 91.9782 76.2883 92.0033 76.306 92.0482V92.0479Z" fill="#232323"/>
<path d="M57.6299 92.0338C58.0328 91.5718 58.9677 91.4752 59.3412 92.1544C59.4139 92.1669 59.431 92.1016 59.4602 92.0621C59.7313 91.693 60.2159 91.5784 60.6888 91.7226C61.1336 91.8582 61.3329 92.2091 61.3723 92.6452C61.4208 93.1783 61.3944 93.7143 61.3881 94.249C61.3857 94.4545 61.2463 94.5822 61.0674 94.5786C60.8891 94.5751 60.7729 94.4474 60.7699 94.2294C60.7644 93.8395 60.7693 93.4497 60.7672 93.0598C60.7666 92.9697 60.7644 92.8777 60.747 92.7901C60.683 92.4683 60.493 92.2949 60.2006 92.2821C59.8786 92.2679 59.6102 92.4571 59.5331 92.7658C59.5073 92.8701 59.5024 92.9812 59.501 93.0892C59.4969 93.4157 59.4996 93.7421 59.4994 94.0685C59.4994 94.1229 59.501 94.1776 59.4964 94.2315C59.4765 94.455 59.3458 94.5887 59.1596 94.5784C58.9821 94.5686 58.8721 94.4414 58.8694 94.2204C58.8645 93.8305 58.8681 93.4407 58.8675 93.0509C58.8675 92.9785 58.8708 92.9052 58.8615 92.8336C58.8177 92.4936 58.6054 92.2875 58.298 92.2821C57.9416 92.2758 57.674 92.4822 57.6158 92.8151C57.5717 93.0669 57.6008 93.3217 57.5956 93.5752C57.5913 93.7927 57.6011 94.0108 57.591 94.2277C57.5807 94.4523 57.4451 94.5868 57.2592 94.5784C57.0825 94.5705 56.9662 94.4414 56.9651 94.2242C56.9611 93.5079 56.9616 92.7917 56.9646 92.0754C56.9654 91.8528 57.0661 91.7254 57.2406 91.7022C57.4094 91.6799 57.5004 91.7504 57.5875 91.9693C57.5937 91.9851 57.6063 91.9984 57.6302 92.0338H57.6299Z" fill="#232323"/>
<path d="M31.6125 91.9981C31.6125 92.3607 31.6014 92.7234 31.6147 93.0854C31.646 93.9465 30.9431 94.6472 30.0025 94.6064C29.126 94.5686 28.5322 93.9716 28.5175 93.0909C28.5047 92.3207 28.5145 91.5503 28.5145 90.7802C28.5145 90.7529 28.5134 90.7257 28.5164 90.6988C28.5385 90.4951 28.6689 90.3568 28.8374 90.3571C29.0233 90.3577 29.1611 90.5 29.1622 90.7159C29.166 91.4409 29.1638 92.1658 29.1641 92.8908C29.1641 92.9814 29.1603 93.0724 29.1673 93.1625C29.2068 93.6552 29.6029 93.9955 30.1063 93.986C30.5127 93.9784 30.9725 93.6326 30.9657 93.1127C30.9559 92.3697 30.9633 91.6265 30.9635 90.8833C30.9635 90.8109 30.9581 90.7374 30.9676 90.6661C30.9935 90.4769 31.1489 90.3446 31.3204 90.3579C31.4843 90.3707 31.6036 90.4998 31.6101 90.693C31.6177 90.9193 31.6125 91.146 31.6125 91.3725C31.6125 91.5811 31.6125 91.7893 31.6125 91.9979V91.9981Z" fill="#232323"/>
<path d="M55.4804 92.0447C55.5049 91.9804 55.5191 91.9274 55.5441 91.8803C55.6209 91.7363 55.7322 91.6791 55.8757 91.7036C56.0088 91.7265 56.1144 91.8343 56.1381 91.9794C56.1468 92.0324 56.1427 92.0877 56.143 92.1419C56.143 92.8029 56.143 93.4636 56.143 94.1246C56.143 94.1518 56.1441 94.179 56.143 94.206C56.1338 94.4191 56.03 94.5541 55.8585 94.577C55.7001 94.598 55.5887 94.5109 55.5103 94.3042C55.5008 94.2792 55.4929 94.2539 55.4837 94.2272C54.8483 94.8354 53.9543 94.6394 53.5121 94.1567C53.0036 93.6013 53.0091 92.6406 53.5298 92.0986C54.0223 91.586 54.9141 91.4907 55.4804 92.0444V92.0447ZM54.6308 93.9931C55.1352 93.998 55.4954 93.6506 55.5024 93.1524C55.5095 92.6537 55.1575 92.2905 54.6582 92.2818C54.1568 92.2728 53.7917 92.6245 53.7857 93.1216C53.78 93.6177 54.1396 93.9884 54.6305 93.9931H54.6308Z" fill="#232323"/>
<path d="M74.1515 92.0276C74.2163 91.9905 74.1975 91.9143 74.2294 91.8615C74.3024 91.7414 74.4055 91.6832 74.5474 91.7031C74.6835 91.7221 74.7921 91.8294 74.8142 91.9718C74.8223 92.0248 74.8188 92.0801 74.8188 92.1343C74.8188 92.804 74.8188 93.4734 74.8188 94.1431C74.8188 94.1883 74.8218 94.234 74.8166 94.2787C74.7984 94.4357 74.6906 94.5531 74.5465 94.5762C74.411 94.598 74.2896 94.5302 74.2188 94.3892C74.1954 94.3424 74.2052 94.2798 74.1523 94.2465C73.4396 94.8686 72.5818 94.5934 72.1822 94.1466C71.6848 93.5907 71.6919 92.6488 72.1988 92.1095C72.6401 91.6399 73.5091 91.4425 74.1513 92.0276H74.1515ZM74.1798 93.1592C74.1913 92.6602 73.8425 92.2938 73.3446 92.2821C72.8522 92.2707 72.483 92.6104 72.4699 93.0876C72.4555 93.6103 72.8018 93.9863 73.3035 93.9931C73.8115 94.0002 74.1684 93.6604 74.1798 93.159V93.1592Z" fill="#232323"/>
<path d="M82.3801 93.3577C82.0902 93.3577 81.8 93.3547 81.51 93.3588C81.3478 93.361 81.332 93.3868 81.3815 93.5314C81.4531 93.7407 81.5947 93.8932 81.7953 93.9748C82.0951 94.0971 82.3959 94.0974 82.6801 93.9193C82.7566 93.8714 82.8252 93.8104 82.902 93.7631C83.043 93.6765 83.2112 93.6939 83.2986 93.7976C83.3904 93.9068 83.3767 94.0592 83.251 94.188C82.9469 94.5 82.5639 94.6113 82.1403 94.6075C81.2868 94.6002 80.6468 93.9258 80.7203 92.9807C80.7941 92.0273 81.6726 91.4708 82.6052 91.7267C83.1587 91.8786 83.5542 92.3559 83.5785 93.0231C83.5869 93.2534 83.49 93.3501 83.2502 93.3552C82.9602 93.3615 82.6703 93.3566 82.3801 93.3566V93.3572V93.3577ZM82.9297 92.8919C82.905 92.4925 82.6208 92.2345 82.1953 92.217C81.7499 92.1988 81.4139 92.4689 81.3649 92.8919H82.93H82.9297Z" fill="#232323"/>
<path d="M63.7002 93.358C63.4013 93.358 63.1024 93.3601 62.8034 93.3569C62.6864 93.3555 62.6608 93.4105 62.6932 93.5096C62.7648 93.7287 62.9069 93.8918 63.1184 93.9762C63.4184 94.0954 63.7192 94.0984 64.0026 93.9179C64.0789 93.8695 64.1472 93.8085 64.2245 93.7617C64.3661 93.6759 64.5359 93.6955 64.6206 93.8003C64.7096 93.9109 64.696 94.0677 64.5694 94.1924C64.2221 94.534 63.7952 94.6402 63.3215 94.5966C62.6219 94.5324 62.1171 94.0228 62.0412 93.3043C61.9628 92.5652 62.3475 91.9394 63.0169 91.7374C63.8586 91.4831 64.7856 91.9048 64.8972 92.9434C64.9282 93.2319 64.8305 93.3522 64.543 93.3569C64.2624 93.3612 63.9814 93.358 63.7005 93.358V93.3585L63.7002 93.358ZM62.6905 92.8916H64.2536C64.224 92.4857 63.9174 92.2176 63.4895 92.2159C63.0485 92.2143 62.7245 92.4849 62.6905 92.8916Z" fill="#232323"/>
<path d="M41.8347 92.0319C42.0032 91.8503 42.2161 91.7267 42.4758 91.6834C43.0986 91.5797 43.6017 91.9309 43.6891 92.5548C43.7672 93.1135 43.7259 93.6767 43.7215 94.2381C43.7199 94.4575 43.5636 94.5914 43.3788 94.5781C43.2034 94.5653 43.0948 94.436 43.0918 94.2155C43.0869 93.8711 43.0905 93.5267 43.0902 93.1826C43.0902 93.092 43.0929 93.0013 43.0888 92.9109C43.0725 92.5469 42.88 92.3158 42.5719 92.2861C42.1828 92.2486 41.879 92.4566 41.8047 92.8181C41.7867 92.9057 41.7862 92.9983 41.7857 93.0884C41.7835 93.4418 41.7851 93.7951 41.7843 94.1485C41.7843 94.2117 41.7884 94.2773 41.7745 94.3377C41.741 94.4828 41.5989 94.5846 41.4527 94.5786C41.315 94.5732 41.2014 94.4768 41.1707 94.3295C41.1579 94.2683 41.1584 94.2035 41.1584 94.1403C41.1576 93.4788 41.1579 92.8173 41.1579 92.156C41.1579 92.1198 41.1562 92.0833 41.1587 92.0474C41.1726 91.844 41.2714 91.7221 41.4372 91.7017C41.6071 91.6807 41.7094 91.7599 41.7837 91.9712C41.7914 91.9927 41.7805 92.0248 41.8349 92.0319H41.8347Z" fill="#232323"/>
<path d="M39.6889 94.2081C39.4093 94.5152 39.0927 94.6339 38.7165 94.5996C38.2385 94.5558 37.9134 94.2727 37.8157 93.8009C37.7846 93.6506 37.7634 93.4984 37.7648 93.343C37.768 92.9447 37.7656 92.5464 37.7664 92.1481C37.7664 92.085 37.7637 92.0199 37.777 91.9592C37.8135 91.7926 37.9488 91.6916 38.11 91.7009C38.2581 91.7093 38.3721 91.816 38.3969 91.9775C38.4064 92.0395 38.4013 92.1038 38.4013 92.1672C38.4015 92.4931 38.4013 92.8189 38.4015 93.1448C38.4015 93.2262 38.4007 93.3079 38.4062 93.389C38.4293 93.741 38.6185 93.964 38.9147 93.9909C39.2996 94.026 39.5874 93.8349 39.6772 93.4894C39.7028 93.3914 39.7072 93.2934 39.7069 93.1935C39.7063 92.8494 39.7063 92.5056 39.7069 92.1615C39.7069 92.0981 39.7036 92.0338 39.7131 91.9717C39.7385 91.8051 39.868 91.6976 40.0319 91.7001C40.186 91.7025 40.2976 91.8016 40.3246 91.9652C40.3333 92.0183 40.3317 92.0736 40.3317 92.1277C40.3322 92.7977 40.3319 93.4674 40.3319 94.1374C40.3319 94.1463 40.3319 94.1553 40.3319 94.1646C40.3265 94.4238 40.2282 94.5618 40.0377 94.5776C39.8621 94.592 39.7564 94.4869 39.6889 94.2079V94.2081Z" fill="#232323"/>
<path d="M33.1164 92.0545C33.4117 91.7463 33.7447 91.6224 34.1416 91.6826C34.5812 91.749 34.8649 92.0003 34.9705 92.4312C35.0048 92.5712 35.0291 92.7146 35.0283 92.8611C35.0258 93.2961 35.0277 93.7309 35.0272 94.1659C35.0272 94.2201 35.0293 94.2759 35.0174 94.3279C34.9825 94.4768 34.8489 94.58 34.7024 94.5786C34.5657 94.5775 34.4443 94.4855 34.4081 94.341C34.391 94.2721 34.3929 94.1975 34.3926 94.1254C34.3912 93.781 34.392 93.4366 34.3918 93.0925C34.3918 93.0201 34.3931 92.9474 34.3885 92.8753C34.3662 92.5388 34.1838 92.3226 33.8955 92.288C33.5282 92.2439 33.222 92.4277 33.1294 92.7487C33.0968 92.8625 33.0851 92.979 33.0859 93.0977C33.0883 93.4328 33.087 93.7682 33.0867 94.1036C33.0867 94.167 33.0908 94.231 33.0831 94.2936C33.0633 94.4591 32.9334 94.5767 32.775 94.5789C32.613 94.5811 32.4867 94.4686 32.4731 94.2936C32.4627 94.1586 32.4693 94.0219 32.4693 93.8861C32.4693 93.3152 32.4693 92.7443 32.4693 92.1734C32.4693 92.101 32.4641 92.0272 32.4755 91.9565C32.4981 91.816 32.5899 91.7327 32.726 91.7052C32.8531 91.6796 32.9538 91.7286 33.0347 91.8307C33.0821 91.8903 33.0717 91.9657 33.1166 92.0547L33.1164 92.0545Z" fill="#232323"/>
<path d="M36.0533 92.2867C35.9621 92.2282 35.8782 92.2554 35.7987 92.2481C35.6098 92.2301 35.5156 92.1427 35.5181 91.9853C35.5205 91.8359 35.6035 91.7515 35.7772 91.7275C35.8219 91.7213 35.8679 91.7218 35.9131 91.7235C36.0152 91.7273 36.0576 91.6837 36.0549 91.5781C36.0492 91.3788 36.0495 91.1793 36.0549 90.98C36.0606 90.7638 36.1763 90.6315 36.3511 90.6285C36.5351 90.6253 36.6674 90.7685 36.6729 90.9873C36.6778 91.1776 36.6816 91.3682 36.6715 91.5579C36.6644 91.6943 36.7211 91.7333 36.8463 91.7248C36.9269 91.7194 37.0104 91.7218 37.0894 91.7376C37.229 91.7654 37.3134 91.8803 37.3034 92.0096C37.2944 92.125 37.2037 92.2222 37.0739 92.2415C37.0028 92.2521 36.9285 92.2538 36.8569 92.2461C36.7175 92.2314 36.6688 92.281 36.671 92.4264C36.6789 92.9608 36.6742 93.4957 36.674 94.0301C36.674 94.0935 36.6759 94.157 36.6734 94.2204C36.6644 94.4414 36.5389 94.5803 36.3519 94.5778C36.1747 94.5756 36.0579 94.4472 36.0549 94.2296C36.0497 93.8583 36.0533 93.4867 36.0533 93.1151C36.0533 92.8353 36.0533 92.5557 36.0533 92.2859V92.2867Z" fill="#232323"/>
<path d="M66.5867 92.838C66.8399 92.838 67.0931 92.8336 67.3462 92.8391C67.5447 92.8434 67.6683 92.9605 67.6678 93.1282C67.6672 93.2861 67.5561 93.4037 67.3645 93.4064C66.8402 93.414 66.3156 93.4146 65.7915 93.4051C65.592 93.4015 65.5 93.2926 65.504 93.1192C65.5078 92.9483 65.6083 92.8454 65.8005 92.8399C66.0624 92.8326 66.3248 92.838 66.5873 92.838H66.5867Z" fill="#232323"/>
</g>
</g>
<rect x="1" y="1" width="110" height="110" rx="9" stroke="black" stroke-opacity="0.1" stroke-width="2"/>
<defs>
<clipPath id="clip0_752_448">
<rect x="2" y="2" width="108" height="108" rx="8" fill="white"/>
</clipPath>
<clipPath id="clip1_752_448">
<rect width="55.7434" height="80" fill="white" transform="translate(28 16)"/>
</clipPath>
</defs>
</svg>
