<svg width="112" height="112" viewBox="0 0 112 112" fill="none" xmlns="http://www.w3.org/2000/svg">
<g clip-path="url(#clip0_752_353)">
<rect x="2" y="2" width="108" height="108" rx="8" fill="white"/>
<g clip-path="url(#clip1_752_353)">
<path d="M16 84.4173V27.6257C16.0634 27.5937 16.0584 27.5292 16.0654 27.4749C16.1081 27.1392 16.1351 26.8009 16.1895 26.4672C16.6877 23.4126 18.1095 20.8726 20.4785 18.8832C22.3648 17.2989 24.5458 16.3793 26.9965 16.1003C27.2612 16.07 27.5356 16.1023 27.7914 16H84.3095C84.3784 16.0759 84.4722 16.0471 84.5548 16.0523C84.9509 16.0779 85.3465 16.1174 85.7354 16.191C89.9645 16.9899 93.0293 19.3264 94.8999 23.2042C95.5884 24.6315 95.9427 26.1539 95.9985 27.7417C95.9968 27.9062 95.993 28.0704 95.993 28.2349C95.993 46.7692 95.993 65.3032 95.993 83.8375C95.993 83.9921 95.9974 84.147 95.9997 84.3016C95.9901 84.5144 95.9907 84.728 95.9692 84.9393C95.8181 86.4268 95.446 87.8574 94.7566 89.1859C92.7797 92.9959 89.6733 95.258 85.4282 95.9419C85.2102 95.977 84.9826 95.9506 84.7739 96.0433H27.3269C27.2499 95.9921 27.1607 95.9985 27.0747 95.9913C26.7177 95.9613 26.3649 95.905 26.0138 95.8358C23.4919 95.3385 21.324 94.1753 19.5365 92.3295C17.5349 90.2624 16.3924 87.787 16.1067 84.919C16.0898 84.7489 16.0982 84.5713 16 84.4176V84.4173ZM56.0514 21.4818C46.845 21.4818 37.6384 21.4818 28.432 21.4815C27.9855 21.4815 27.5414 21.5149 27.1034 21.5969C23.859 22.2041 21.5094 25.0277 21.5091 28.3238C21.508 46.8084 21.5086 65.2927 21.508 83.7773C21.508 84.195 21.5478 84.6077 21.6234 85.0186C22.2107 88.2128 25.0306 90.5795 28.2724 90.594C29.1048 90.5978 29.9375 90.5946 30.7702 90.5946C48.3991 90.5946 66.0278 90.5946 83.6567 90.5952C84.1223 90.5952 84.5833 90.5606 85.0416 90.4728C88.2207 89.8631 90.5728 87.0229 90.5728 83.777C90.5743 65.2924 90.5737 46.8081 90.5728 28.3235C90.5728 27.7795 90.5063 27.2421 90.3746 26.7137C89.6006 23.6093 86.8759 21.4824 83.6712 21.4821C74.4648 21.4818 65.2581 21.4821 56.0517 21.4821L56.0514 21.4818Z" fill="#FFCB07"/>
<path d="M56.0515 21.4818C65.2579 21.4818 74.4645 21.4818 83.6709 21.4818C86.8756 21.4818 89.6003 23.609 90.3743 26.7134C90.506 27.2417 90.5725 27.7794 90.5725 28.3232C90.5737 46.8078 90.574 65.2921 90.5725 83.7767C90.5725 87.0229 88.2201 89.8628 85.0413 90.4725C84.583 90.5606 84.122 90.5949 83.6564 90.5949C66.0275 90.594 48.3988 90.5943 30.7699 90.5943C29.9372 90.5943 29.1048 90.5975 28.2721 90.5937C25.03 90.5792 22.2105 88.2125 21.6231 85.0183C21.5475 84.6073 21.5077 84.1946 21.5077 83.777C21.5083 65.2924 21.5077 46.8081 21.5089 28.3235C21.5089 25.0276 23.8587 22.2037 27.1031 21.5966C27.5411 21.5146 27.9852 21.4812 28.4317 21.4812C37.6381 21.4815 46.8448 21.4815 56.0512 21.4815L56.0515 21.4818ZM24.994 56.0383C24.9515 72.9619 38.5742 86.9514 55.7068 87.1293C72.9686 87.3083 86.95 73.4473 87.084 56.3208C87.2194 39.0197 73.3331 25.1259 56.3665 24.9561C38.9596 24.782 24.9727 38.9102 24.9937 56.0383H24.994Z" fill="#0079C0"/>
<path d="M24.994 56.0383C24.973 38.9102 38.9599 24.782 56.3668 24.9561C73.3334 25.1259 87.2194 39.0197 87.0843 56.3208C86.9503 73.4473 72.9689 87.3083 55.707 87.1293C38.5745 86.9517 24.9518 72.9622 24.9942 56.0383H24.994ZM77.4678 61.7588C77.7084 62.0139 77.9092 62.2363 78.1203 62.4485C78.3807 62.7106 78.5533 62.7118 78.8088 62.4578C79.3511 61.9183 79.883 61.3678 80.4355 60.8392C80.6384 60.645 80.6619 60.3791 80.4428 60.1625C79.1485 58.8826 77.8662 57.5904 76.5784 56.3037C76.3293 56.0549 76.1692 56.0569 75.9146 56.3098C75.3719 56.8489 74.8313 57.3901 74.2925 57.933C74.03 58.1975 74.0309 58.3536 74.2931 58.6204C74.5578 58.8895 74.8241 59.1575 75.0947 59.4208C75.1763 59.5005 75.1938 59.5699 75.1394 59.6737C75.0185 59.9053 74.913 60.1448 74.7933 60.3768C73.7934 62.3148 72.5408 64.0801 71.1236 65.731C69.1118 68.0744 66.7416 69.9613 63.9569 71.3102C61.8425 72.3344 59.6089 72.9255 57.2643 73.0659C55.6934 73.1601 54.1315 73.0578 52.5864 72.7413C48.2695 71.8569 44.5789 69.8058 41.494 66.6817C39.9214 65.0889 38.6818 63.2346 37.6227 61.2632C37.3843 60.8197 37.1821 60.359 37.0036 59.8873C36.9478 59.74 36.9597 59.64 37.078 59.5292C37.3323 59.2912 37.5756 59.041 37.8189 58.7913C38.0656 58.5381 38.0659 58.3754 37.8162 58.1234C37.2844 57.5872 36.7502 57.0533 36.2148 56.5205C35.9512 56.2583 35.7829 56.2551 35.5251 56.5124C34.2439 57.7921 32.964 59.0726 31.6854 60.355C31.4334 60.6075 31.436 60.7651 31.6892 61.0205C32.1324 61.4675 32.5783 61.9116 33.0232 62.3569C33.1395 62.4734 33.2514 62.5946 33.3735 62.7048C33.5397 62.8548 33.7231 62.8565 33.8955 62.7127C33.9771 62.6446 34.0463 62.5624 34.1245 62.49C34.2556 62.3688 34.364 62.2209 34.5044 62.1305C34.5724 62.1616 34.5776 62.2017 34.5898 62.2374C34.8319 62.9463 35.1621 63.6142 35.5582 64.2472C37.162 66.8098 39.0823 69.1071 41.401 71.05C45.3747 74.3796 49.9578 76.1505 55.1449 76.3153C57.0489 76.3758 58.9332 76.1787 60.7898 75.7509C64.6862 74.8528 68.1654 73.1246 71.1044 70.3972C73.5295 68.1468 75.4838 65.5191 77.0452 62.6007C77.1815 62.3461 77.3041 62.0846 77.4678 61.7573V61.7588ZM53.5822 52.3001C53.5822 51.0506 53.5819 49.8011 53.5824 48.5517C53.5824 48.2729 53.5845 48.2718 53.8713 48.2715C54.3649 48.2706 54.8587 48.2724 55.3522 48.2709C55.6672 48.2697 55.6879 48.2511 55.6893 47.9471C55.6919 47.4434 55.6916 46.9398 55.6893 46.4361C55.6881 46.1277 55.6637 46.1021 55.3612 46.1021C53.4447 46.101 51.5282 46.101 49.6117 46.1021C49.3216 46.1021 49.2902 46.1338 49.2888 46.414C49.2862 46.9273 49.2862 47.4408 49.2888 47.9541C49.2902 48.2427 49.3173 48.2694 49.6047 48.2706C50.1081 48.2729 50.6112 48.2706 51.1146 48.2718C51.3986 48.2724 51.3986 48.2738 51.4015 48.5592C51.402 48.6173 51.4015 48.6755 51.4015 48.7336C51.4015 50.4964 51.4015 52.2594 51.4015 54.0221C51.4015 54.2747 51.4174 54.525 51.4881 54.7697C51.731 55.6143 52.4925 56.2496 53.3598 56.3293C53.5598 56.3476 53.5746 56.3351 53.5816 56.1363C53.5836 56.0781 53.5822 56.02 53.5822 55.9619C53.5822 54.7415 53.5822 53.5211 53.5822 52.3004V52.3001ZM60.3832 52.3012C60.3832 51.0428 60.3826 49.7843 60.3838 48.5258C60.3838 48.2747 60.3873 48.2724 60.6404 48.2718C61.1531 48.27 61.6658 48.2729 62.1785 48.2706C62.4656 48.2694 62.4967 48.2404 62.4988 47.9558C62.5023 47.4525 62.5017 46.9491 62.4994 46.4457C62.4979 46.1262 62.4726 46.1021 62.1483 46.1018C61.2293 46.1007 60.3102 46.1013 59.3912 46.1013C58.4045 46.1013 57.4178 46.1004 56.431 46.1018C56.12 46.1024 56.0913 46.1297 56.0901 46.4276C56.0878 46.9406 56.0872 47.4539 56.0901 47.9669C56.0916 48.2317 56.1288 48.2689 56.3927 48.2706C56.8859 48.2738 57.3794 48.2703 57.8726 48.2721C58.2304 48.2732 58.2115 48.2279 58.2115 48.6211C58.2115 50.4315 58.2118 52.2417 58.2115 54.0521C58.2115 54.2849 58.2223 54.5154 58.2845 54.7424C58.5202 55.6003 59.2846 56.2482 60.1629 56.3293C60.3614 56.3476 60.3756 56.3354 60.3826 56.1354C60.3846 56.0773 60.3832 56.0191 60.3832 55.961C60.3832 54.7412 60.3832 53.5214 60.3832 52.3015V52.3012ZM68.1204 46.0213C65.2535 46.0184 62.9292 48.338 62.9234 51.2081C62.9173 54.0948 65.2416 56.4234 68.1233 56.4182C70.989 56.413 73.3191 54.0803 73.3159 51.2201C73.3127 48.3572 70.9812 46.0242 68.1204 46.0213ZM48.8874 51.2157C48.8859 48.3944 46.6111 46.112 43.798 46.1097C40.9642 46.1076 38.6707 48.3892 38.669 51.2122C38.6672 54.0387 40.9581 56.3386 43.7802 56.3362C46.709 56.3339 48.9246 53.9143 48.8874 51.2154V51.2157ZM52.8776 65.3805C53.2578 65.3784 53.5929 65.3993 53.928 65.3651C54.1117 65.3462 54.221 65.2302 54.2785 65.0602C54.3561 64.8311 54.4433 64.6047 54.509 64.3722C54.5503 64.2263 54.6218 64.1737 54.7744 64.176C55.3161 64.1842 55.8585 64.1865 56.4002 64.1749C56.5711 64.1714 56.6377 64.2379 56.6804 64.3914C56.7455 64.6239 56.8321 64.8506 56.9115 65.0791C56.9585 65.2142 57.0423 65.3139 57.1861 65.3549C57.3466 65.4005 58.0825 65.3886 58.285 65.3299C58.1046 64.8608 57.9255 64.3923 57.7444 63.9246C57.273 62.7065 56.8013 61.4885 56.3281 60.271C56.2287 60.0155 56.2206 60.0114 55.9471 60.0088C55.7053 60.0065 55.4626 60.0175 55.2214 60.0053C55.0261 59.9954 54.9229 60.0739 54.8557 60.2567C54.6622 60.7834 54.4538 61.3045 54.2512 61.8279C53.801 62.992 53.3508 64.156 52.8773 65.3805H52.8776ZM49.2882 62.2418C49.2882 62.8708 49.2882 63.4997 49.2882 64.1287C49.2882 64.1382 49.2882 64.1481 49.2882 64.1577C49.3039 64.7352 49.7146 65.2389 50.2569 65.347C50.5089 65.3973 50.5426 65.372 50.5441 65.1151C50.5461 64.7184 50.5435 64.3216 50.5449 63.9249C50.5464 63.5634 50.5109 63.5898 50.8661 63.5916C51.1564 63.593 51.4459 63.5866 51.7342 63.5485C52.6585 63.4265 53.2287 62.8789 53.3246 61.9788C53.4086 61.1891 53.0808 60.4796 52.2318 60.1759C51.9371 60.0704 51.6325 60.0196 51.3224 60.0149C50.7618 60.0065 50.2008 60.0082 49.6399 60.0088C49.3146 60.0091 49.2891 60.0352 49.2882 60.355C49.2867 60.9839 49.2876 61.6129 49.2879 62.2418H49.2882ZM59.9496 62.4284C59.8644 62.3543 59.8417 62.2569 59.8002 62.1726C59.5066 61.5733 59.2096 60.9755 58.9277 60.3707C58.8053 60.1082 58.6231 59.9893 58.3347 60.0056C58.113 60.0181 57.8898 60.0047 57.6674 60.0091C57.4329 60.0137 57.4041 60.0629 57.5087 60.2625C57.5358 60.314 57.5669 60.3631 57.5959 60.4131C58.1232 61.3152 58.6472 62.2191 59.1802 63.1178C59.2782 63.2832 59.3258 63.4471 59.3174 63.6383C59.3081 63.8508 59.3069 64.065 59.3232 64.2769C59.3642 64.8134 59.8188 65.2898 60.3393 65.3563C60.5436 65.3825 60.5553 65.3764 60.5564 65.1718C60.559 64.6393 60.5614 64.1069 60.555 63.5744C60.5529 63.4137 60.5887 63.2753 60.6715 63.1364C61.0139 62.5633 61.3478 61.9855 61.6847 61.4088C61.9091 61.0246 62.1366 60.6418 62.3561 60.255C62.4604 60.0713 62.4267 60.0161 62.2154 60.0094C62.0125 60.0033 61.8079 60.0228 61.6062 60.0044C61.2438 59.9716 61.0368 60.13 60.8904 60.4584C60.5948 61.1199 60.2675 61.7672 59.9496 62.4281V62.4284Z" fill="#FEFEFF"/>
<path d="M77.4677 61.7588C77.3041 62.0861 77.1812 62.3476 77.0452 62.6022C75.4838 65.5206 73.5292 68.1483 71.1044 70.3987C68.1654 73.1261 64.6861 74.8543 60.7898 75.7524C58.9332 76.1805 57.0489 76.3776 55.1449 76.3168C49.9578 76.152 45.3747 74.3811 41.401 71.0515C39.0823 69.1086 37.162 66.8116 35.5582 64.2487C35.1621 63.6157 34.8319 62.9478 34.5898 62.2389C34.5776 62.2032 34.5724 62.1628 34.5044 62.132C34.364 62.2224 34.2556 62.3703 34.1245 62.4915C34.0463 62.5639 33.9768 62.6461 33.8955 62.7141C33.7228 62.858 33.5397 62.8563 33.3735 62.7063C33.2514 62.5961 33.1395 62.4747 33.0232 62.3584C32.5786 61.9131 32.1324 61.469 31.6892 61.022C31.436 60.7668 31.4334 60.6093 31.6854 60.3565C32.9639 59.0741 34.2439 57.7936 35.5251 56.5139C35.7826 56.2566 35.9509 56.2596 36.2148 56.522C36.7501 57.0547 37.2846 57.5884 37.8162 58.1249C38.0662 58.3769 38.0659 58.5396 37.8188 58.7928C37.5756 59.0425 37.3323 59.2924 37.078 59.5307C36.9597 59.6415 36.9478 59.7415 37.0036 59.8888C37.182 60.3605 37.3846 60.8212 37.6227 61.2647C38.6818 63.2361 39.9214 65.0904 41.494 66.6832C44.5786 69.8073 48.2695 71.8581 52.5864 72.7428C54.1315 73.0593 55.6934 73.1616 57.2643 73.0674C59.6092 72.927 61.8425 72.3359 63.9569 71.3116C66.7416 69.9628 69.1118 68.0759 71.1236 65.7325C72.5408 64.0816 73.7937 62.3163 74.7933 60.3783C74.913 60.146 75.0185 59.9065 75.1394 59.6752C75.1938 59.5714 75.1763 59.5017 75.0946 59.4223C74.8241 59.159 74.5578 58.891 74.2931 58.6219C74.0309 58.3554 74.03 58.199 74.2925 57.9345C74.8316 57.3919 75.3722 56.8504 75.9145 56.3113C76.1692 56.0581 76.3293 56.0564 76.5784 56.3052C77.8662 57.5919 79.1482 58.8841 80.4428 60.164C80.6619 60.3806 80.6384 60.6465 80.4355 60.8407C79.883 61.3693 79.3514 61.9198 78.8088 62.4593C78.5533 62.7133 78.3807 62.7121 78.1202 62.45C77.9092 62.2375 77.7081 62.0151 77.4677 61.7603V61.7588Z" fill="#0074BA"/>
<path d="M53.5822 52.3001C53.5822 53.5205 53.5822 54.7409 53.5822 55.9616C53.5822 56.0198 53.5839 56.0779 53.5816 56.136C53.5746 56.3348 53.5595 56.3473 53.3598 56.329C52.4925 56.2494 51.7311 55.614 51.4881 54.7694C51.4177 54.5247 51.4015 54.2747 51.4015 54.0219C51.4018 52.2591 51.4015 50.4961 51.4015 48.7334C51.4015 48.6752 51.402 48.6171 51.4015 48.559C51.3988 48.2736 51.3986 48.2721 51.1146 48.2715C50.6112 48.2704 50.1078 48.2727 49.6047 48.2704C49.3173 48.2692 49.2902 48.2422 49.2888 47.9539C49.2865 47.4406 49.2862 46.927 49.2888 46.4137C49.2902 46.1333 49.3216 46.1019 49.6117 46.1019C51.5282 46.1004 53.4447 46.1007 55.3612 46.1019C55.664 46.1019 55.6882 46.1275 55.6893 46.4358C55.6913 46.9395 55.6916 47.4432 55.6893 47.9469C55.6879 48.2512 55.6672 48.2698 55.3522 48.2707C54.8587 48.2724 54.3649 48.2707 53.8713 48.2712C53.5845 48.2718 53.5824 48.2727 53.5824 48.5514C53.5816 49.8009 53.5822 51.0504 53.5822 52.2998V52.3001Z" fill="#0074BA"/>
<path d="M60.3832 52.3012C60.3832 53.5211 60.3832 54.7409 60.3832 55.9607C60.3832 56.0189 60.3846 56.077 60.3826 56.1351C60.3756 56.3354 60.3614 56.3476 60.1629 56.329C59.2845 56.2479 58.5201 55.6 58.2844 54.7421C58.2219 54.5151 58.2112 54.2846 58.2115 54.0518C58.2118 52.2414 58.2118 50.4313 58.2115 48.6208C58.2115 48.2276 58.2304 48.2729 57.8726 48.2718C57.3794 48.27 56.8859 48.2735 56.3926 48.2703C56.129 48.2686 56.0918 48.2314 56.0901 47.9666C56.0872 47.4536 56.0875 46.9403 56.0901 46.4274C56.0915 46.1295 56.12 46.1021 56.431 46.1015C57.4177 46.1001 58.4045 46.101 59.3912 46.101C60.3102 46.101 61.2292 46.1001 62.1482 46.1015C62.4726 46.1018 62.4979 46.1263 62.4993 46.4454C62.5017 46.9488 62.5022 47.4522 62.4988 47.9556C62.4967 48.2401 62.4656 48.2692 62.1785 48.2703C61.6658 48.2727 61.1531 48.2697 60.6404 48.2715C60.3869 48.2724 60.3837 48.2747 60.3837 48.5255C60.3826 49.784 60.3832 51.0425 60.3832 52.301V52.3012Z" fill="#0074BA"/>
<path d="M68.1204 46.0214C70.9809 46.0243 73.3124 48.3573 73.3159 51.2201C73.3191 54.0803 70.989 56.413 68.1233 56.4182C65.2416 56.4235 62.9173 54.0948 62.9234 51.2082C62.9295 48.3381 65.2535 46.0185 68.1204 46.0214ZM68.1067 46.7779C65.6613 46.7831 63.6791 48.7723 63.6791 51.2218C63.6791 53.6728 65.6557 55.6544 68.1079 55.6611C70.5589 55.6678 72.5716 53.6536 72.5591 51.2061C72.5469 48.7636 70.5452 46.773 68.1067 46.7779Z" fill="#EE3151"/>
<path d="M48.8874 51.2157C48.9246 53.9146 46.709 56.3342 43.7802 56.3365C40.9584 56.3389 38.6672 54.0387 38.669 51.2125C38.6707 48.3892 40.9639 46.1077 43.7979 46.11C46.6111 46.112 48.8859 48.3944 48.8874 51.216V51.2157ZM48.1512 51.2622C48.2023 48.9414 46.2716 46.9331 43.9534 46.8523C41.5963 46.77 39.5005 48.5929 39.4194 51.0649C39.3392 53.5147 41.2606 55.5393 43.6686 55.5899C46.1167 55.6413 48.0966 53.7298 48.1509 51.2622H48.1512Z" fill="#EE3151"/>
<path d="M52.8776 65.3805C53.3511 64.156 53.8013 62.992 54.2515 61.828C54.4541 61.3045 54.6622 60.7834 54.856 60.2567C54.9232 60.0739 55.0263 59.9955 55.2217 60.0053C55.4629 60.0175 55.7056 60.0065 55.9474 60.0088C56.2209 60.0114 56.2293 60.0155 56.3284 60.271C56.8016 61.4885 57.2733 62.7066 57.7447 63.9247C57.9258 64.3923 58.1048 64.8608 58.2853 65.3299C58.0827 65.3886 57.3465 65.4005 57.1864 65.3549C57.0422 65.3139 56.9585 65.2142 56.9117 65.0791C56.8324 64.8507 56.7455 64.6242 56.6807 64.3914C56.6377 64.238 56.5714 64.1714 56.4005 64.1749C55.8587 64.1862 55.3164 64.1842 54.7747 64.1761C54.6221 64.1737 54.5506 64.2263 54.5093 64.3723C54.4436 64.6048 54.3564 64.8312 54.2788 65.0602C54.2213 65.2302 54.112 65.3462 53.9283 65.3651C53.5932 65.3994 53.2581 65.3787 52.8779 65.3805H52.8776ZM56.3127 63.3094C56.0741 62.6017 55.8425 61.9149 55.5916 61.1714C55.3565 61.9253 55.0868 62.5958 54.8889 63.3094H56.3127Z" fill="#0074BA"/>
<path d="M49.2882 62.2418C49.2882 61.6129 49.287 60.9839 49.2885 60.3549C49.2894 60.0352 49.3149 60.0094 49.6402 60.0088C50.2011 60.0082 50.7617 60.0065 51.3227 60.0149C51.6328 60.0195 51.9374 60.0704 52.2321 60.1759C53.0808 60.4796 53.4089 61.1891 53.3249 61.9788C53.229 62.8789 52.6591 63.4265 51.7345 63.5485C51.4462 63.5866 51.1567 63.593 50.8664 63.5915C50.5115 63.5898 50.5467 63.5634 50.5452 63.9249C50.5435 64.3216 50.5464 64.7184 50.5444 65.1151C50.5429 65.372 50.5095 65.3973 50.2572 65.347C49.7146 65.2389 49.3042 64.7352 49.2885 64.1577C49.2885 64.1481 49.2885 64.1382 49.2885 64.1287C49.2885 63.4997 49.2885 62.8708 49.2885 62.2418H49.2882ZM50.5455 61.7785C50.5455 62.0099 50.5473 62.2412 50.5446 62.4726C50.5435 62.5743 50.5696 62.6388 50.6885 62.6353C50.9292 62.6284 51.1716 62.6429 51.4102 62.6193C51.8261 62.5784 52.0589 62.2993 52.0792 61.8515C52.1007 61.3777 51.899 61.0821 51.4889 60.9868C51.2227 60.9249 50.9521 60.9476 50.683 60.9432C50.56 60.9412 50.5446 61.0173 50.5449 61.1132C50.5461 61.335 50.5452 61.5568 50.5452 61.7785H50.5455Z" fill="#0074BA"/>
<path d="M59.9495 62.4284C60.2675 61.7678 60.5948 61.1205 60.8903 60.4587C61.0371 60.1303 61.2441 59.9719 61.6062 60.0047C61.8076 60.023 62.0122 60.0036 62.2154 60.0097C62.4267 60.0161 62.4604 60.0713 62.3561 60.2553C62.1366 60.6424 61.9093 61.0249 61.6847 61.4091C61.3478 61.9855 61.0139 62.5636 60.6715 63.1367C60.5887 63.2756 60.5529 63.414 60.5549 63.5747C60.5613 64.1072 60.559 64.6396 60.5564 65.1721C60.5555 65.3767 60.5439 65.3828 60.3393 65.3566C59.8187 65.2901 59.3642 64.8134 59.3232 64.2772C59.3069 64.0653 59.3081 63.8511 59.3174 63.6386C59.3258 63.4474 59.2782 63.2835 59.1802 63.1181C58.6472 62.2194 58.1231 61.3155 57.5959 60.4134C57.5666 60.3634 57.5355 60.314 57.5087 60.2628C57.4041 60.0629 57.4329 60.0137 57.6674 60.0094C57.8898 60.005 58.113 60.0184 58.3347 60.0059C58.623 59.9896 58.8053 60.1085 58.9276 60.3709C59.2096 60.9758 59.5066 61.5736 59.8001 62.1729C59.8414 62.2575 59.8644 62.3546 59.9495 62.4287V62.4284Z" fill="#0074BA"/>
<path d="M68.1064 46.7779C70.5449 46.773 72.5466 48.7636 72.5588 51.2061C72.5713 53.6536 70.5586 55.6678 68.1076 55.6611C65.6554 55.6544 63.6785 53.6728 63.6788 51.2218C63.6788 48.7723 65.661 46.7831 68.1064 46.7779ZM64.1258 51.2024C64.1214 53.413 65.8914 55.2074 68.0881 55.2196C70.288 55.2315 72.1004 53.4429 72.106 51.255C72.1115 49.0295 70.3351 47.2293 68.1262 47.2217C65.9295 47.2142 64.1298 49.0048 64.1258 51.2026V51.2024Z" fill="#FFF4F2"/>
<path d="M48.1512 51.2619C48.0968 53.7295 46.117 55.6411 43.6689 55.5896C41.2609 55.539 39.3395 53.5144 39.4197 51.0646C39.5008 48.593 41.5966 46.7701 43.9537 46.852C46.2719 46.9328 48.2026 48.9412 48.1515 51.2619H48.1512ZM43.7881 55.1478C45.9487 55.1467 47.7071 53.3929 47.71 51.2369C47.7126 49.0635 45.956 47.2761 43.7915 47.2877C41.4612 47.3002 39.849 49.1905 39.8554 51.2189C39.8623 53.3953 41.6091 55.149 43.7881 55.1478Z" fill="#FFF4F2"/>
<path d="M56.3127 63.309H54.8889C55.0868 62.5955 55.3565 61.925 55.5917 61.1711C55.8422 61.9145 56.0741 62.6013 56.3127 63.309Z" fill="#FEFEFF"/>
<path d="M50.5455 61.7785C50.5455 61.5568 50.5461 61.335 50.5452 61.1133C50.5446 61.0174 50.5603 60.9412 50.6833 60.9432C50.9527 60.9476 51.2233 60.9249 51.4892 60.9868C51.899 61.0822 52.101 61.3778 52.0795 61.8515C52.0592 62.2994 51.8261 62.5784 51.4105 62.6194C51.1718 62.6429 50.9295 62.6284 50.6888 62.6354C50.5699 62.6389 50.5438 62.5743 50.5449 62.4726C50.5475 62.2413 50.5458 62.0099 50.5458 61.7785H50.5455Z" fill="#FEFEFF"/>
<path d="M64.1258 51.202C64.1302 49.0045 65.9295 47.2138 68.1262 47.2211C70.3348 47.2286 72.1115 49.0292 72.106 51.2543C72.1005 53.4423 70.288 55.2309 68.0881 55.219C65.8915 55.2071 64.1214 53.4127 64.1258 51.2017V51.202ZM64.8786 51.225C64.8803 53.0072 66.3327 54.4627 68.1111 54.4645C69.8991 54.4662 71.355 53.0011 71.3515 51.2029C71.3483 49.4306 69.8802 47.9724 68.1032 47.9762C66.3289 47.9802 64.8768 49.4431 64.8783 51.225H64.8786Z" fill="#EE3151"/>
<path d="M43.7881 55.1481C41.6088 55.1493 39.8623 53.3955 39.8554 51.2192C39.849 49.1908 41.4612 47.3007 43.7915 47.288C45.956 47.2763 47.7126 49.0638 47.71 51.2372C47.7074 53.3932 45.9487 55.1469 43.7881 55.1481ZM46.9651 51.2128C46.9619 49.4506 45.5278 48.0285 43.7593 48.0335C42.0183 48.0384 40.5942 49.4785 40.5985 51.2299C40.6029 52.9779 42.032 54.4099 43.7764 54.4139C45.531 54.4183 46.9686 52.9753 46.9654 51.2128H46.9651Z" fill="#EE3151"/>
<path d="M64.8785 51.225C64.8768 49.4434 66.3291 47.9803 68.1035 47.9762C69.8805 47.9721 71.3482 49.4303 71.3517 51.2029C71.3549 53.0011 69.8994 54.4663 68.1114 54.4645C66.3329 54.4628 64.8806 53.0072 64.8788 51.225H64.8785ZM68.1163 54.0326C69.4591 54.073 70.9068 52.9878 70.9341 51.2337C70.9582 49.6863 69.6573 48.3915 68.1125 48.3965C66.5526 48.4011 65.293 49.6741 65.3006 51.2378C65.3081 52.7962 66.555 54.0338 68.1163 54.0329V54.0326Z" fill="#FFF4F2"/>
<path d="M46.9651 51.2128C46.9683 52.975 45.5307 54.418 43.7761 54.4139C42.0317 54.4099 40.6026 52.9779 40.5982 51.2299C40.5939 49.4785 42.018 48.0384 43.759 48.0335C45.5275 48.0285 46.9616 49.4506 46.9648 51.2128H46.9651ZM46.5529 51.2294C46.5558 49.7009 45.3189 48.4514 43.7979 48.4462C42.2654 48.4409 41.0415 49.6689 41.0139 51.1988C40.9886 52.5957 42.1093 53.9852 43.7819 53.9963C45.3064 54.0062 46.55 52.7552 46.5529 51.2294Z" fill="#FFF4F2"/>
<path d="M68.1163 54.0326C66.555 54.0335 65.3081 52.7959 65.3006 51.2375C65.293 49.6739 66.5527 48.4008 68.1125 48.3962C69.6573 48.3915 70.9582 49.6861 70.9341 51.2334C70.9068 52.9875 69.4591 54.0727 68.1163 54.0323V54.0326ZM68.1125 53.2761C69.0528 53.3153 70.1665 52.553 70.177 51.2085C70.1857 50.0863 69.2353 49.1568 68.1163 49.1536C66.9822 49.1504 66.0513 50.0906 66.0571 51.2337C66.0629 52.3699 66.9747 53.2761 68.1125 53.2761Z" fill="#EE3151"/>
<path d="M46.5529 51.2294C46.55 52.7553 45.3064 54.0062 43.782 53.9963C42.109 53.9853 40.9886 52.5957 41.0139 51.1989C41.0415 49.6689 42.2654 48.4407 43.7979 48.4462C45.3192 48.4514 46.5561 49.7012 46.5529 51.2294ZM45.8066 51.2241C45.8077 50.1017 44.8986 49.1911 43.7776 49.1926C42.6639 49.194 41.7414 50.1232 41.7512 51.2335C41.7611 52.337 42.6714 53.247 43.7724 53.2537C44.8876 53.2604 45.8054 52.3446 45.8066 51.2239V51.2241Z" fill="#EE3151"/>
<path d="M68.1128 53.2761C66.975 53.2761 66.0629 52.3698 66.0574 51.2337C66.0516 50.0906 66.9825 49.1501 68.1166 49.1536C69.2356 49.1568 70.1863 50.0862 70.1773 51.2084C70.1668 52.5529 69.0531 53.3153 68.1128 53.2761Z" fill="#FEFEFF"/>
<path d="M45.8066 51.2241C45.8054 52.3448 44.8879 53.2606 43.7724 53.254C42.6717 53.2473 41.7611 52.3373 41.7512 51.2337C41.7414 50.1234 42.6639 49.194 43.7776 49.1928C44.8983 49.1914 45.8074 50.1016 45.8066 51.2244V51.2241Z" fill="#FEFEFF"/>
</g>
</g>
<rect x="1" y="1" width="110" height="110" rx="9" stroke="black" stroke-opacity="0.1" stroke-width="2"/>
<defs>
<clipPath id="clip0_752_353">
<rect x="2" y="2" width="108" height="108" rx="8" fill="white"/>
</clipPath>
<clipPath id="clip1_752_353">
<rect width="80" height="80.043" fill="white" transform="translate(16 16)"/>
</clipPath>
</defs>
</svg>
