<svg width="112" height="112" viewBox="0 0 112 112" fill="none" xmlns="http://www.w3.org/2000/svg">
<g clip-path="url(#clip0_752_392)">
<rect x="2" y="2" width="108" height="108" rx="8" fill="white"/>
<g clip-path="url(#clip1_752_392)">
<path d="M76.6631 16.9999H35.3368C24.658 16.9999 16.001 25.6569 16.001 36.3357V75.6508C16.001 86.3297 24.658 94.9866 35.3368 94.9866H76.6631C87.3419 94.9866 95.9989 86.3297 95.9989 75.6508V36.3357C95.9989 25.6569 87.3419 16.9999 76.6631 16.9999Z" fill="white"/>
<path d="M39.7792 94.9757V72.1657C40.0451 72.449 40.2568 72.6748 40.4684 72.9005C44.1304 76.7937 48.5924 79.2217 53.8737 80.0574C60.0137 81.0288 65.7943 80.0194 71.003 76.5245C76.8238 72.6194 80.2611 67.096 81.5288 60.2571C82.5664 54.6621 82.1225 49.1734 79.6283 43.9832C76.0521 36.543 70.1108 31.8814 62.1497 30.0026C53.6447 27.9958 45.8594 29.8452 39.0954 35.4088C34.284 39.366 31.3872 44.5096 30.4266 50.682C30.2139 52.0485 30.113 53.4454 30.1108 54.8281C30.088 67.7255 30.0967 80.6229 30.0967 93.5203V94.3332C29.3619 94.0868 28.6716 93.9034 28.0193 93.6299C21.5961 90.9371 17.6096 86.2266 16.2746 79.3606C16.0966 78.4456 16.0315 77.4959 16.0315 76.5615C16.0163 62.9781 15.9652 49.3937 16.0434 35.8104C16.0846 28.2682 19.6956 22.7632 26.2654 19.1804C29.0439 17.6653 32.0742 17.0347 35.237 17.0336C49.0699 17.0282 62.904 16.9533 76.7359 17.0444C84.3964 17.0944 90.2041 20.548 93.9324 27.2859C95.3173 29.7888 95.9728 32.5217 95.9739 35.3925C95.9772 49.0659 96.0434 62.7404 95.9479 76.4138C95.8958 83.8052 92.2956 89.2049 85.8952 92.7594C83.031 94.3506 79.9019 94.992 76.6197 94.9877C64.595 94.9692 52.5702 94.9779 40.5455 94.9768C40.3121 94.9768 40.0788 94.9768 39.7792 94.9768V94.9757Z" fill="url(#paint0_linear_752_392)"/>
<path d="M72.7992 54.8042C72.6332 61.2752 70.1965 66.2939 64.8218 69.6607C61.6688 71.6361 58.1674 72.3643 54.4533 72.03C50.66 71.6892 47.3268 70.3022 44.5461 67.6691C41.9727 65.2324 40.3762 62.2368 39.713 58.7854C38.81 54.0857 39.4189 49.5804 41.9315 45.4473C44.4777 41.26 48.2212 38.7561 53.0641 37.9757C58.1381 37.1584 62.7596 38.2514 66.7538 41.5498C69.9946 44.2263 71.8126 47.7461 72.5105 51.8531C72.6874 52.8973 72.7189 53.9663 72.7971 54.8032L72.7992 54.8042Z" fill="url(#paint1_linear_752_392)"/>
</g>
</g>
<rect x="1" y="1" width="110" height="110" rx="9" stroke="black" stroke-opacity="0.1" stroke-width="2"/>
<defs>
<linearGradient id="paint0_linear_752_392" x1="16" y1="55.9938" x2="94.7844" y2="55.9938" gradientUnits="userSpaceOnUse">
<stop offset="0.02" stop-color="#2B357F"/>
<stop offset="1" stop-color="#272660"/>
</linearGradient>
<linearGradient id="paint1_linear_752_392" x1="16.0304" y1="54.9128" x2="94.8147" y2="54.9128" gradientUnits="userSpaceOnUse">
<stop stop-color="#2B357F"/>
<stop offset="1" stop-color="#272660"/>
</linearGradient>
<clipPath id="clip0_752_392">
<rect x="2" y="2" width="108" height="108" rx="8" fill="white"/>
</clipPath>
<clipPath id="clip1_752_392">
<rect width="80" height="77.9866" fill="white" transform="translate(16 17)"/>
</clipPath>
</defs>
</svg>
