<svg width="112" height="112" viewBox="0 0 112 112" fill="none" xmlns="http://www.w3.org/2000/svg">
<g clip-path="url(#clip0_752_414)">
<rect x="2" y="2" width="108" height="108" rx="8" fill="white"/>
<g clip-path="url(#clip1_752_414)">
<path d="M49.8772 59.3069C49.1912 59.3046 48.5597 59.3834 47.9265 59.4184C46.8134 59.4799 45.7008 59.4967 44.5869 59.4958C43.3441 59.4945 42.104 59.4194 40.8689 59.3005C39.7349 59.1913 38.6082 59.0169 37.4901 58.7843C35.955 58.4652 34.4627 58.0222 33.051 57.3344C31.8615 56.7548 30.7853 56.0192 29.9991 54.9302C29.0545 53.6214 28.8901 52.1874 29.38 50.6664C29.7924 49.3863 30.565 48.3297 31.4541 47.3464C31.8096 46.9526 32.2088 46.6039 32.5885 46.2351C32.7369 46.0908 32.8048 46.1673 32.9067 46.2756C33.0105 46.3858 33.0415 46.4523 32.9076 46.5802C32.3145 47.1483 31.7987 47.7752 31.4409 48.5263C30.8581 49.7505 31.2474 51.0183 32.0491 51.902C32.9618 52.908 34.1409 53.4735 35.3946 53.9109C36.6033 54.3325 37.8502 54.5852 39.1153 54.7682C40.4733 54.9644 41.8377 55.0427 43.207 55.1C44.6101 55.1583 46.009 55.0891 47.4075 55.0222C48.5629 54.9666 49.7165 54.8574 50.8646 54.714C52.168 54.5515 53.4677 54.3634 54.7624 54.1372C56.7846 53.7839 58.7881 53.3496 60.7734 52.8307C62.4004 52.4055 64.0156 51.9356 65.5985 51.3671C68.0718 50.4784 70.506 49.4965 72.8136 48.2241C74.6633 47.2043 76.4223 46.0612 77.9051 44.5366C78.6553 43.7654 79.299 42.9201 79.6482 41.8871C79.9204 41.0813 79.9509 40.266 79.6017 39.4748C79.3158 38.827 78.7768 38.4041 78.2001 38.0289C77.7557 37.7403 77.2814 37.5068 76.797 37.2933C76.5862 37.2004 76.5462 37.0124 76.6914 36.8367C76.7483 36.7679 76.7874 36.8271 76.8284 36.8398C77.9547 37.1995 79.0341 37.6611 80.0379 38.2934C80.8609 38.812 81.5893 39.4306 82.1224 40.251C82.7693 41.2475 83.0224 42.3355 82.8203 43.5182C82.5963 44.8298 81.9626 45.9456 81.1464 46.9644C79.9714 48.4312 78.5269 49.6025 76.9914 50.6669C74.8399 52.1587 72.5177 53.3351 70.1145 54.3584C68.9282 54.8638 67.7204 55.3135 66.5054 55.746C66.1489 55.873 65.8758 56.1594 65.5685 56.3779C64.7249 56.9788 63.8886 57.5911 63.0483 58.1966C61.6976 59.1694 60.3464 60.1409 58.9948 61.1119C56.3844 62.988 53.7727 64.8622 51.1637 66.7405C50.1754 67.4521 49.1953 68.1755 48.2074 68.8875C46.7524 69.9359 45.2938 70.9784 43.8375 72.0245C43.7028 72.1215 43.5698 72.2217 43.4397 72.3245C43.3545 72.3919 43.3199 72.3705 43.2862 72.2717C42.9735 71.3572 42.6844 70.4376 42.5788 69.4697C42.4846 68.6052 42.4905 67.7444 42.6894 66.8967C42.9685 65.7053 43.523 64.6505 44.3301 63.7282C44.9729 62.9939 45.7359 62.4016 46.5171 61.8249C47.5937 61.0305 48.7136 60.2939 49.7365 59.4266C49.7702 59.398 49.8039 59.3693 49.8781 59.306L49.8772 59.3069Z" fill="#007CC2"/>
<path d="M44.5782 36.8193C47.5077 34.712 50.424 32.6152 53.3393 30.517C55.082 29.2628 56.8224 28.0059 58.5646 26.7508C60.3992 25.4292 62.2338 24.1072 64.0694 22.787C65.3336 21.8779 66.601 20.9724 67.8638 20.0606C67.9767 19.9791 68.0354 19.9659 68.0873 20.112C68.5285 21.3493 68.8421 22.6145 68.8244 23.9365C68.7998 25.7643 68.1552 27.3535 66.9296 28.7129C66.0542 29.6834 64.9821 30.4082 63.9314 31.1616C62.8921 31.9068 61.8469 32.6462 60.9186 33.532C60.3901 34.0365 59.9062 34.5796 59.6057 35.2542C58.9784 36.6637 59.1869 37.9798 60.1006 39.1948C60.7762 40.0934 61.6525 40.784 62.5329 41.4664C63.585 42.2827 64.7163 42.9906 65.7579 43.8214C66.9693 44.7879 67.9157 45.9533 68.4356 47.4351C68.6345 48.0023 68.6382 47.9887 68.096 48.2204C66.4794 48.9106 64.8205 49.4837 63.1466 50.015C63.0296 50.0518 62.9358 50.0418 62.8311 49.9667C61.0825 48.7071 59.3207 47.4652 57.5822 46.1914C55.1598 44.4169 52.7034 42.691 50.2733 40.9274C48.4437 39.5995 46.6054 38.2834 44.7708 36.9623C44.7098 36.9186 44.6506 36.8726 44.5791 36.8193H44.5782Z" fill="#F8941F"/>
<path d="M60.2699 50.833C59.2179 51.0921 58.205 51.3579 57.1798 51.5783C56.0881 51.8127 54.9937 52.0312 53.892 52.2092C53.0052 52.3526 52.1157 52.4819 51.2275 52.6162C50.9976 52.6508 50.8132 52.6221 50.6243 52.4286C49.6992 51.484 48.6294 50.7147 47.5582 49.9467C46.7411 49.3608 45.8975 48.8086 45.1464 48.1339C44.0547 47.1538 43.2467 45.9924 42.8119 44.5771C42.4941 43.5428 42.4655 42.4939 42.5925 41.4341C42.7067 40.4781 42.9922 39.5649 43.3322 38.6367C48.9763 42.7006 54.6086 46.7563 60.2699 50.833Z" fill="#007CC2"/>
<path d="M23.8566 81.199C23.6517 81.199 23.4473 81.1972 23.2424 81.1999C23.1546 81.2008 23.0995 81.1885 23.1113 81.0761C23.2046 80.2034 22.6834 79.4909 21.5967 79.3821C20.7914 79.3016 20.0048 79.4058 19.3205 79.8874C18.8999 80.1834 18.5908 80.5612 18.5539 81.112C18.5252 81.535 18.7064 81.8441 19.0292 82.0835C19.4885 82.4241 20.0262 82.5797 20.5761 82.689C21.2949 82.8315 22.0151 82.9635 22.6734 83.3068C23.7286 83.8562 24.1775 84.7471 24.0245 85.9299C23.8643 87.1668 23.3153 88.1492 22.2045 88.7692C21.5671 89.1247 20.8683 89.2763 20.1472 89.3392C19.5718 89.3892 19.0005 89.3924 18.4342 89.2527C17.2278 88.9545 16.3983 88.2561 16.0778 87.0284C15.9681 86.6073 15.9891 86.1739 16.0523 85.7432C16.0669 85.6435 16.1247 85.644 16.1953 85.644C16.62 85.644 17.0443 85.6435 17.4691 85.6444C17.5383 85.6444 17.5851 85.6385 17.5774 85.7537C17.5032 86.8485 17.9425 87.4595 19.031 87.6957C20.0166 87.9093 20.9703 87.7945 21.8371 87.2355C22.3975 86.874 22.6292 85.9458 22.4649 85.389C22.3779 85.094 22.1558 84.911 21.8986 84.7699C21.4155 84.505 20.8852 84.3861 20.3498 84.2896C19.7084 84.1745 19.0806 84.0188 18.4956 83.7233C16.8149 82.8743 16.6724 81.1553 17.4622 79.826C18.1314 78.6993 19.1703 78.0997 20.4368 77.8803C21.3832 77.7164 22.321 77.7305 23.2015 78.1862C24.2217 78.7138 24.818 79.897 24.6546 81.0347C24.6373 81.1557 24.6 81.2081 24.4716 81.2026C24.2672 81.194 24.0623 81.2004 23.8575 81.2004L23.8566 81.199Z" fill="#007CC2"/>
<path d="M58.8295 81.972C58.9192 81.4749 59.0057 81.0082 59.0872 80.5412C59.242 79.6571 59.3954 78.773 59.5452 77.888C59.5597 77.8015 59.5971 77.7728 59.6781 77.7728C60.1252 77.7742 60.5727 77.7751 61.0197 77.7719C61.1262 77.771 61.1431 77.8097 61.1249 77.9094C60.8599 79.3716 60.595 80.8339 60.3373 82.297C60.1138 83.5671 59.9112 84.8409 59.6767 86.1092C59.5174 86.9701 59.3899 87.8359 59.247 88.6991C59.2179 88.8762 59.2675 89.1111 59.1414 89.2149C59.0062 89.3255 58.7772 89.2449 58.5892 89.249C58.3165 89.2554 58.0429 89.2395 57.7706 89.2545C57.5895 89.2645 57.5672 89.1844 57.5958 89.0396C57.6282 88.878 57.6555 88.715 57.6914 88.5161C57.4889 88.6577 57.3213 88.7828 57.1456 88.8953C56.6048 89.2435 56.0029 89.3974 55.367 89.4275C54.7114 89.4584 54.0714 89.4061 53.4686 89.1001C52.7894 88.756 52.3515 88.2101 52.1812 87.4881C51.7724 85.7578 52.1584 84.1735 53.1987 82.7555C53.8173 81.9119 54.6472 81.3415 55.692 81.1457C56.8119 80.9363 57.8635 81.0451 58.7248 81.8991C58.7458 81.9196 58.7735 81.9333 58.8286 81.9711L58.8295 81.972ZM53.6653 86.1556C53.6571 86.3919 53.6712 86.6264 53.7286 86.8549C53.8715 87.4262 54.1788 87.876 54.7692 88.0303C55.6492 88.2602 56.4637 88.0927 57.1119 87.4335C58.0693 86.4598 58.4344 85.2556 58.316 83.9136C58.2277 82.9066 57.4588 82.3589 56.4896 82.3858C55.6069 82.4104 54.9368 82.8438 54.4415 83.5494C53.8947 84.3288 53.6899 85.2174 53.6653 86.1552V86.1556Z" fill="#007CC2"/>
<path d="M27.936 81.9724C28.4709 81.565 29.0477 81.2363 29.7205 81.1298C30.8318 80.9541 31.8843 81.0583 32.7383 81.8937C33.2495 82.394 33.4726 83.0404 33.5213 83.7329C33.6279 85.247 33.2386 86.6318 32.2917 87.8264C31.5087 88.8138 30.4899 89.3906 29.2002 89.4329C28.454 89.4575 27.7543 89.3291 27.1461 88.8671C27.0219 88.7728 26.9112 88.6604 26.7747 88.5388C26.6135 89.1352 26.542 89.7247 26.4328 90.3065C26.3089 90.9666 26.1919 91.6281 26.0809 92.2905C26.0617 92.4038 26.024 92.4398 25.9111 92.438C25.5018 92.4321 25.0921 92.4271 24.6828 92.4398C24.5066 92.4453 24.5039 92.3661 24.5276 92.2368C24.6551 91.5311 24.7821 90.826 24.9054 90.1199C25.1271 88.8493 25.3443 87.5778 25.5669 86.3072C25.7349 85.349 25.9161 84.3925 26.0772 83.4329C26.191 82.7555 26.2848 82.0749 26.3763 81.3943C26.3918 81.2777 26.4228 81.2413 26.5388 81.2427C26.9709 81.2486 27.4033 81.2491 27.8354 81.2427C27.9633 81.2409 27.9915 81.29 27.9742 81.4048C27.9474 81.5841 27.9296 81.7644 27.9078 81.9447C27.905 81.9615 27.9023 81.9784 27.8996 81.9952C27.9123 81.9879 27.9251 81.9806 27.9378 81.9733L27.936 81.9724ZM29.0868 88.1114C29.6932 88.1469 30.2345 87.8929 30.672 87.444C31.6639 86.4256 31.9708 85.1691 31.8292 83.7939C31.7646 83.1679 31.4336 82.6567 30.8004 82.4832C29.8425 82.221 28.9726 82.4459 28.3015 83.1943C27.4694 84.1225 27.183 85.262 27.2595 86.4743C27.3237 87.4913 28.0015 88.1624 29.0868 88.1114Z" fill="#007CC2"/>
<path d="M78.1673 81.9128C78.2165 81.632 78.2684 81.397 78.2957 81.1594C78.3162 80.98 78.3899 80.9254 78.5706 80.9336C78.9184 80.95 79.2685 80.9536 79.6159 80.9327C79.8358 80.9195 79.8708 81.0019 79.8362 81.1899C79.7229 81.8059 79.615 82.4227 79.5071 83.0396C79.2517 84.4954 78.9986 85.9522 78.7418 87.4081C78.6426 87.9726 78.531 88.5348 78.4368 89.0997C78.4154 89.229 78.3635 89.2559 78.246 89.2541C77.8445 89.2481 77.443 89.2491 77.041 89.2531C76.9186 89.2545 76.863 89.2413 76.9022 89.0902C76.9605 88.8657 76.9864 88.6327 77.0356 88.3518C76.9177 88.4419 76.8398 88.507 76.7565 88.5644C75.3985 89.4976 73.9536 89.6966 72.4558 88.9714C71.5089 88.5129 71.0346 87.6612 70.8816 86.6455C70.6626 85.1865 71.0674 83.8781 71.9355 82.7054C72.6079 81.7968 73.5024 81.1958 74.5996 80.9418C75.5879 80.7128 76.5667 80.7429 77.4721 81.2873C77.728 81.4412 77.9233 81.6638 78.1664 81.9124L78.1673 81.9128ZM75.6325 82.2406C75.1377 82.2219 74.6619 82.3253 74.2349 82.5625C72.8656 83.3232 72.1435 84.8223 72.4344 86.3555C72.6024 87.2414 73.1851 87.7454 73.9609 87.9111C75.0689 88.1474 76.0044 87.7704 76.7656 86.9615C77.4339 86.2513 77.7294 85.3759 77.7389 84.4167C77.7521 83.0878 76.9122 82.2402 75.6325 82.2406Z" fill="#F8941F"/>
<path d="M69.9884 81.2413C69.799 81.2413 69.6083 81.2299 69.4203 81.245C69.2537 81.2582 69.2227 81.199 69.2341 81.0428C69.2828 80.375 69.0242 79.8569 68.4233 79.5465C67.9257 79.2893 67.3822 79.241 66.8327 79.2979C65.7178 79.414 64.9011 80.0117 64.2624 80.8994C63.6014 81.8186 63.2936 82.8624 63.1375 83.9664C63.036 84.6857 63.0414 85.3954 63.2326 86.1001C63.5973 87.4449 64.6917 87.9661 65.8844 87.8587C66.4999 87.8032 67.0844 87.627 67.5734 87.215C67.9412 86.905 68.213 86.528 68.3546 86.0692C68.3987 85.9258 68.4529 85.8766 68.6008 85.8807C68.9796 85.8907 69.3588 85.893 69.7376 85.8802C69.9115 85.8743 69.9424 85.9358 69.911 86.0892C69.7845 86.7133 69.4672 87.241 69.0798 87.7312C68.2844 88.7373 67.2201 89.2413 65.9641 89.3733C65.1547 89.4584 64.3607 89.3947 63.6169 89.0346C62.6003 88.5425 62.0354 87.683 61.7303 86.6328C61.4217 85.5702 61.4768 84.5004 61.6866 83.4256C61.9639 82.0066 62.492 80.7069 63.4521 79.6084C64.2465 78.6997 65.2252 78.0697 66.4157 77.8425C67.5433 77.6276 68.6564 77.705 69.6433 78.3678C70.3499 78.8422 70.705 79.5433 70.7933 80.3877C70.8179 80.624 70.8047 80.8544 70.7896 81.0884C70.7819 81.2058 70.7414 81.2468 70.6248 81.2427C70.4127 81.2354 70.2006 81.2409 69.9884 81.2409V81.2413Z" fill="#F8941F"/>
<path d="M90.5712 81.8277C90.9978 81.5013 91.4057 81.1999 91.8914 81.0419C92.9895 80.6846 94.052 80.6869 95.0148 81.4207C95.6604 81.9128 95.9235 82.608 95.9882 83.3914C96.0469 84.1025 95.8675 84.789 95.7491 85.4805C95.5452 86.6701 95.3276 87.8574 95.1246 89.0474C95.0972 89.2067 95.0449 89.2618 94.8805 89.2563C94.5018 89.244 94.1221 89.2436 93.7438 89.2563C93.5726 89.2622 93.5567 89.1885 93.5808 89.0542C93.7547 88.0891 93.9336 87.1244 94.098 86.1575C94.2154 85.466 94.3989 84.7813 94.4358 84.0811C94.5109 82.6612 93.472 81.9706 92.1691 82.3134C90.9482 82.6344 90.2489 83.4775 90.0368 84.7235C89.8938 85.5643 89.7468 86.4042 89.6016 87.2446C89.5001 87.8319 89.3963 88.4187 89.2993 89.0068C89.272 89.1735 89.2287 89.2695 89.0184 89.259C88.5891 89.2372 88.1575 89.2527 87.7141 89.2527C88.0105 87.571 88.3041 85.9153 88.5946 84.2587C88.8472 82.8165 89.0949 81.3738 89.3471 79.9316C89.465 79.2551 89.5897 78.58 89.7054 77.9035C89.7213 77.8102 89.7532 77.7715 89.8479 77.7724C90.2799 77.7751 90.7124 77.777 91.1444 77.7719C91.3524 77.7692 91.2596 77.9176 91.2477 77.9918C91.174 78.4462 91.0861 78.8982 91.0023 79.3507C90.8649 80.0923 90.726 80.8339 90.5894 81.5759C90.5762 81.6479 90.5781 81.7221 90.5708 81.8286L90.5712 81.8277Z" fill="#F8941F"/>
<path d="M39.2642 85.5661C38.3546 85.5661 37.4446 85.5702 36.535 85.5625C36.3602 85.5611 36.2992 85.608 36.2897 85.7883C36.2728 86.107 36.2828 86.4188 36.3434 86.7329C36.4918 87.5036 37.1455 88.0518 37.9326 88.1091C39.0949 88.1933 40.0836 87.8068 40.9623 87.0775C41.0032 87.0439 41.046 87.0129 41.0861 86.9783C41.1626 86.9123 41.1962 86.9269 41.2145 87.0293C41.2837 87.4153 41.3547 87.8014 41.4352 88.1851C41.4667 88.3349 41.3661 88.3864 41.2759 88.451C40.6017 88.9358 39.8547 89.2518 39.032 89.3633C38.1557 89.4821 37.2812 89.5085 36.4394 89.1616C35.5353 88.7892 34.9558 88.1237 34.7528 87.1718C34.404 85.537 34.8274 84.0757 35.8353 82.77C36.5414 81.855 37.486 81.3083 38.615 81.1193C39.4445 80.9805 40.2762 81.0142 41.0465 81.4221C41.85 81.8477 42.2237 82.5538 42.353 83.4261C42.4513 84.0898 42.3662 84.7358 42.2351 85.384C42.2028 85.5443 42.1354 85.5698 41.9938 85.5689C41.0843 85.5639 40.1742 85.5661 39.2647 85.5661H39.2642ZM36.6147 84.3789H40.1578C40.6462 84.3789 40.8469 84.1349 40.7601 83.6468C40.6463 83.0059 40.2293 82.5342 39.6607 82.4323C39.1194 82.3353 38.595 82.389 38.1006 82.6544C37.3913 83.035 36.9056 83.6031 36.6142 84.3784L36.6147 84.3789Z" fill="#007CC2"/>
<path d="M49.9719 86.9059C50.0598 87.3438 50.1404 87.7481 50.2218 88.1523C50.2451 88.2661 50.2168 88.349 50.1158 88.4214C49.3965 88.9385 48.6025 89.2649 47.7217 89.3756C47.0342 89.4621 46.3455 89.4894 45.6708 89.3082C44.3793 88.9608 43.5913 88.0768 43.4592 86.7393C43.2844 84.9693 43.8416 83.4319 45.1454 82.2169C46.131 81.2982 47.3315 80.944 48.6795 81.0902C49.6623 81.1967 50.4445 81.5982 50.886 82.5237C51.1956 83.1733 51.2152 83.868 51.1565 84.5673C51.1351 84.8222 51.0759 85.074 51.0426 85.328C51.019 85.5069 50.9407 85.5711 50.7486 85.5702C48.9517 85.562 47.1549 85.5693 45.3585 85.5602C45.135 85.5588 45.0803 85.6285 45.0781 85.8415C45.0731 86.3682 45.0753 86.889 45.3831 87.3488C45.699 87.8209 46.1515 88.0558 46.711 88.1041C47.8878 88.2056 48.8907 87.8004 49.7798 87.0588C49.8317 87.0156 49.8859 86.9742 49.9724 86.905L49.9719 86.9059ZM45.4177 84.3793C46.3446 84.3793 47.2532 84.3793 48.1623 84.3793C48.5789 84.3793 48.9959 84.3793 49.4124 84.3793C49.4935 84.3793 49.5786 84.3979 49.5859 84.265C49.6414 83.2034 49.1666 82.3698 47.9402 82.3844C46.7274 82.399 45.7532 83.3614 45.4177 84.3793Z" fill="#007CC2"/>
<path d="M81.1869 86.5108C81.3918 86.5108 81.5966 86.5167 81.801 86.5085C81.9189 86.5039 81.9472 86.5508 81.9239 86.6551C81.8242 87.1021 82.0428 87.3926 82.3997 87.612C82.8991 87.9188 83.4481 87.9329 84.0026 87.8555C84.2921 87.815 84.5812 87.7522 84.8452 87.6084C85.2358 87.3953 85.3788 87.0489 85.3806 86.6291C85.3815 86.4502 85.2823 86.3173 85.1352 86.219C84.7942 85.9913 84.4036 85.9067 84.0099 85.8347C83.4536 85.7328 82.8973 85.6362 82.3742 85.4036C80.8801 84.7399 80.7672 83.3213 81.5306 82.2301C82.0919 81.4275 82.9146 81.0328 83.8601 80.8831C84.6008 80.7656 85.3401 80.7706 86.0448 81.072C86.9252 81.4489 87.4324 82.3271 87.3454 83.2817C87.3327 83.4206 87.2921 83.4798 87.1406 83.4793C86.7472 83.4784 86.3534 83.4962 85.9601 83.5048C85.8782 83.5066 85.8031 83.5221 85.794 83.3874C85.7507 82.7591 85.5144 82.4596 84.8967 82.3626C84.2689 82.2643 83.6429 82.3011 83.0889 82.6799C83.0329 82.7181 82.9765 82.7578 82.9259 82.8028C82.4652 83.2144 82.5208 83.6792 83.0639 83.9682C83.4636 84.1808 83.9024 84.2528 84.3417 84.3302C84.9222 84.4326 85.493 84.5646 86.0116 84.8683C86.6366 85.2343 86.9603 85.7756 86.9325 86.4944C86.8906 87.5806 86.4181 88.415 85.4284 88.9263C84.9304 89.1835 84.3986 89.3155 83.846 89.3619C83.0698 89.4275 82.3041 89.3984 81.5934 89.0187C80.677 88.5284 80.2477 87.693 80.382 86.6674C80.3962 86.5581 80.4321 86.5053 80.5509 86.5089C80.7631 86.5158 80.9752 86.5108 81.1878 86.5108H81.1869Z" fill="#F8941F"/>
<path d="M27.936 81.9725C27.9232 81.9798 27.9105 81.987 27.8977 81.9943C27.9005 81.9775 27.9037 81.9606 27.9059 81.9438C27.9164 81.9529 27.926 81.962 27.9355 81.9725H27.936Z" fill="white"/>
</g>
</g>
<rect x="1" y="1" width="110" height="110" rx="9" stroke="black" stroke-opacity="0.1" stroke-width="2"/>
<defs>
<clipPath id="clip0_752_414">
<rect x="2" y="2" width="108" height="108" rx="8" fill="white"/>
</clipPath>
<clipPath id="clip1_752_414">
<rect width="80" height="72.4398" fill="white" transform="translate(16 20)"/>
</clipPath>
</defs>
</svg>
