<svg width="112" height="112" viewBox="0 0 112 112" fill="none" xmlns="http://www.w3.org/2000/svg">
<g clip-path="url(#clip0_505_170)">
<rect x="1.99988" y="2" width="108" height="108" rx="8" fill="white"/>
<path fill-rule="evenodd" clip-rule="evenodd" d="M55.1429 58.102C55.1429 58.0154 55.1773 57.9324 55.2385 57.8711C55.2997 57.8099 55.3828 57.7755 55.4694 57.7755C55.556 57.7755 55.639 57.8099 55.7003 57.8711C55.7615 57.9324 55.7959 58.0154 55.7959 58.102V62.0612H61.7143V58.102C61.7137 58.059 61.7218 58.0163 61.738 57.9764C61.7542 57.9366 61.7783 57.9004 61.8087 57.8699C61.8391 57.8395 61.8754 57.8155 61.9152 57.7992C61.9551 57.783 61.9978 57.775 62.0408 57.7755C62.1255 57.7812 62.2053 57.8175 62.2653 57.8775C62.3254 57.9376 62.3616 58.0173 62.3673 58.102V66.7143C62.3679 66.7573 62.3598 66.8 62.3436 66.8399C62.3274 66.8797 62.3034 66.916 62.2729 66.9464C62.2425 66.9768 62.2063 67.0009 62.1664 67.0171C62.1266 67.0333 62.0839 67.0414 62.0408 67.0408C61.9561 67.0351 61.8763 66.9988 61.8163 66.9388C61.7563 66.8788 61.72 66.799 61.7143 66.7143V62.6735H55.7959V66.7143C55.7959 66.8009 55.7615 66.8839 55.7003 66.9452C55.639 67.0064 55.556 67.0408 55.4694 67.0408C55.3828 67.0408 55.2997 67.0064 55.2385 66.9452C55.1773 66.8839 55.1429 66.8009 55.1429 66.7143V58.102Z" fill="#E64325"/>
<path fill-rule="evenodd" clip-rule="evenodd" d="M63.9184 63.6939C63.9086 63.2351 63.9898 62.779 64.1571 62.3518C64.3244 61.9246 64.5747 61.5347 64.8934 61.2046C65.2121 60.8745 65.593 60.6107 66.0141 60.4285C66.4352 60.2463 66.8882 60.1492 67.3469 60.1428H67.3878C67.8382 60.1423 68.2842 60.2306 68.7005 60.4027C69.1167 60.5749 69.4948 60.8274 69.8133 61.1459C70.1318 61.4643 70.3843 61.8425 70.5564 62.2587C70.7285 62.6749 70.8169 63.121 70.8163 63.5714V63.6939C70.8434 64.6086 70.506 65.4966 69.8783 66.1626C69.2506 66.8285 68.3841 67.2178 67.4694 67.2449C66.5547 67.2719 65.6667 66.9345 65.0007 66.3069C64.3348 65.6792 63.9454 64.8127 63.9184 63.898V63.6939ZM70.0816 63.6939C70.0958 63.3212 70.0363 62.9493 69.9064 62.5997C69.7765 62.25 69.5788 61.9295 69.3247 61.6564C69.0706 61.3834 68.7651 61.1632 68.4257 61.0085C68.0863 60.8538 67.7197 60.7677 67.3469 60.7551H67.3061C66.9346 60.7602 66.5678 60.8399 66.2276 60.9894C65.8874 61.1389 65.5807 61.3552 65.3256 61.6254C65.0706 61.8957 64.8724 62.2144 64.7428 62.5627C64.6133 62.911 64.555 63.2818 64.5714 63.653V63.6939C64.5464 64.0592 64.5943 64.4259 64.7125 64.7725C64.8306 65.1191 65.0165 65.4388 65.2594 65.7128C65.5024 65.9868 65.7974 66.2097 66.1273 66.3686C66.4573 66.5274 66.8156 66.619 67.1813 66.638C67.547 66.6569 67.9128 66.6029 68.2574 66.479C68.602 66.3552 68.9185 66.164 69.1885 65.9165C69.4585 65.6691 69.6765 65.3704 69.8298 65.0378C69.9831 64.7053 70.0687 64.3456 70.0816 63.9796V63.6939Z" fill="#E64325"/>
<path fill-rule="evenodd" clip-rule="evenodd" d="M72.1225 60.5918C72.1282 60.5071 72.1644 60.4273 72.2245 60.3673C72.2845 60.3073 72.3643 60.271 72.449 60.2653C72.5297 60.2618 72.6087 60.2896 72.6695 60.3428C72.7303 60.396 72.7682 60.4705 72.7755 60.551V61.5306C72.9954 61.1134 73.3277 60.766 73.7348 60.5279C74.1418 60.2897 74.6074 60.1702 75.0789 60.1829C75.5504 60.1957 76.0088 60.3401 76.4024 60.6C76.7961 60.8598 77.1091 61.2246 77.3061 61.6531C77.5325 61.2095 77.8774 60.8373 78.3025 60.5779C78.7276 60.3185 79.2163 60.1821 79.7143 60.1837C81.3061 60.1837 82.2857 61.2857 82.2857 63V66.7551C82.2892 66.8358 82.2614 66.9148 82.2082 66.9756C82.155 67.0364 82.0805 67.0744 82 67.0816C81.9193 67.0851 81.8403 67.0574 81.7795 67.0042C81.7187 66.9509 81.6807 66.8764 81.6735 66.7959V63.0408C81.6735 61.5714 80.9388 60.7551 79.6735 60.7551C78.5306 60.7551 77.551 61.6122 77.551 63.1224V66.7551C77.5545 66.8358 77.5268 66.9148 77.4736 66.9756C77.4204 67.0364 77.3458 67.0744 77.2653 67.0816C77.1806 67.0759 77.1008 67.0397 77.0408 66.9796C76.9808 66.9196 76.9445 66.8398 76.9388 66.7551V63C76.9388 61.6122 76.1633 60.7551 74.9796 60.7551C74.365 60.7837 73.786 61.0517 73.3665 61.5018C72.9469 61.9518 72.7202 62.5482 72.7347 63.1633V66.7551C72.729 66.8398 72.6927 66.9196 72.6327 66.9796C72.5727 67.0397 72.4929 67.0759 72.4082 67.0816C72.3274 67.0851 72.2485 67.0574 72.1877 67.0042C72.1269 66.9509 72.0889 66.8764 72.0816 66.7959V60.5918H72.1225Z" fill="#E64325"/>
<path fill-rule="evenodd" clip-rule="evenodd" d="M83.551 63.6939C83.551 61.7347 84.9388 60.1837 86.7347 60.1837C88.6123 60.1837 89.7959 61.7347 89.7959 63.6531C89.7902 63.7378 89.754 63.8175 89.6939 63.8776C89.6339 63.9376 89.5541 63.9739 89.4694 63.9796H84.2041C84.3265 65.6531 85.5102 66.6326 86.8163 66.6326C87.2222 66.6343 87.6241 66.5517 87.9964 66.3901C88.3688 66.2285 88.7035 65.9914 88.9796 65.6939C88.9987 65.6564 89.028 65.625 89.0641 65.6034C89.1002 65.5817 89.1416 65.5707 89.1837 65.5714C89.2684 65.5772 89.3482 65.6134 89.4082 65.6734C89.4682 65.7335 89.5045 65.8132 89.5102 65.8979C89.5088 65.9737 89.4798 66.0462 89.4286 66.102C89.0924 66.4667 88.6811 66.7541 88.223 66.9443C87.765 67.1346 87.2711 67.2232 86.7755 67.2041C85.8833 67.1638 85.0433 66.772 84.4391 66.1142C83.8349 65.4565 83.5156 64.5863 83.551 63.6939ZM89.1021 63.3265C89.0204 61.9796 88.2449 60.7143 86.6939 60.7143C85.3878 60.7143 84.3265 61.8163 84.2449 63.3265H89.1021Z" fill="#E64325"/>
<path fill-rule="evenodd" clip-rule="evenodd" d="M37.4694 35.6122C28.8571 32.551 22.1633 41.8163 21.7551 49.1224C22.898 41 31.551 37.4898 36.2041 39.2449C37.3878 39.6939 38.3673 40.6735 38.1224 42.102C38.0151 42.6213 37.7918 43.1096 37.4694 43.5306C37.4286 43.5306 42.4898 37.4082 37.4694 35.6122Z" fill="url(#paint0_linear_505_170)"/>
<path fill-rule="evenodd" clip-rule="evenodd" d="M26.2449 74.5918C20.9388 71.8163 21.5918 57.449 21.5918 51.8571C21.5918 50.9592 21.6327 50.0204 21.7143 49.1224C22.1225 42.6735 27.4286 34.5918 34.6122 35.0408C33.8645 35 33.1151 35 32.3674 35.0408C28.19 35.4589 24.2563 37.204 21.1429 40.0204C16.9388 44.0612 15.7959 49.8979 15.8367 56.2653C15.9592 71.6939 23.0204 74.2245 26.1225 75C26.1633 75 26.1633 75.0408 26.2041 75.0408C26.2314 75.0426 26.2587 75.0386 26.2843 75.029C26.3098 75.0193 26.3331 75.0044 26.3524 74.985C26.3717 74.9657 26.3867 74.9425 26.3963 74.9169C26.4059 74.8913 26.41 74.864 26.4082 74.8367C26.4067 74.7847 26.3905 74.7342 26.3617 74.6909C26.3328 74.6476 26.2923 74.6132 26.2449 74.5918Z" fill="url(#paint1_linear_505_170)"/>
<path fill-rule="evenodd" clip-rule="evenodd" d="M45.3469 57.9796C41.0204 54.102 38.449 52.9592 38.3265 50.6326C38.2041 48.9184 39.5102 47.9388 41.0204 45.7347C43.6735 41.8163 42.0816 37.5306 37.9592 35.7755C42.1633 37.7755 37.4694 43.5306 37.4694 43.5306C37.4694 43.5306 37.5102 43.449 37.551 43.449C36 45.6122 32.5714 48.5102 33.2653 51.4898C34.3674 56.3877 41.7551 54.102 46.898 59.5306C46.4082 59 45.8776 58.4694 45.3469 57.9796Z" fill="url(#paint2_linear_505_170)"/>
<path fill-rule="evenodd" clip-rule="evenodd" d="M33.2245 51.4898C33.1744 51.3172 33.1469 51.1388 33.1429 50.9592C33.2245 55.1633 35.9592 56.7551 40.2449 59.9796C44.898 63.4898 45.5918 74.3061 28.6939 75C28.5714 75 28.449 75.0408 28.3265 75.0408C28.2699 75.0527 28.219 75.0834 28.182 75.1278C28.1449 75.1723 28.124 75.2279 28.1225 75.2857C28.1225 75.3673 28.2041 75.449 28.3265 75.4898C32.7755 76.5918 41.6735 77.1224 46.4898 72.5918C49.9592 69.2857 50.3673 63.8571 46.6939 59.4082C41.5918 54.102 34.3673 56.3061 33.2245 51.4898Z" fill="url(#paint3_radial_505_170)"/>
<path fill-rule="evenodd" clip-rule="evenodd" d="M55.102 44.8775C55.0988 44.7622 55.1184 44.6473 55.1599 44.5395C55.2013 44.4318 55.2636 44.3333 55.3433 44.2498C55.423 44.1663 55.5185 44.0994 55.6242 44.053C55.7299 44.0067 55.8438 43.9817 55.9592 43.9796H59.6735C60.8571 43.9796 61.7551 44.3061 62.3265 44.8775C62.7694 45.3221 63.0188 45.9235 63.0204 46.551V46.5918C63.0337 47.0712 62.9 47.5432 62.6374 47.9445C62.3747 48.3457 61.9957 48.6571 61.551 48.8367C62.7347 49.2449 63.551 49.9388 63.551 51.3265V51.3673C63.551 53.1633 62.0408 54.1837 59.7959 54.1837H56C55.8846 54.1869 55.7697 54.1673 55.662 54.1259C55.5542 54.0844 55.4558 54.0221 55.3723 53.9424C55.2888 53.8627 55.2219 53.7672 55.1755 53.6615C55.1291 53.5558 55.1042 53.4419 55.102 53.3265V44.8775ZM59.3469 48.2653C60.4898 48.2653 61.2653 47.8163 61.2653 46.8775V46.8367C61.2653 46.0204 60.6122 45.5306 59.4694 45.5306H56.898V48.2245H59.3469V48.2653ZM59.8367 52.5918C61.0612 52.5918 61.7959 52.102 61.7959 51.2041V51.1633C61.7959 50.3061 61.102 49.8163 59.6735 49.8163H56.8163V52.6326L59.8367 52.5918Z" fill="#2C296C"/>
<path fill-rule="evenodd" clip-rule="evenodd" d="M64.6531 44.7959C64.6603 44.6804 64.6904 44.5674 64.7417 44.4637C64.7929 44.3599 64.8643 44.2673 64.9517 44.1914C65.039 44.1154 65.1406 44.0576 65.2505 44.0212C65.3604 43.9848 65.4764 43.9707 65.5918 43.9796H65.6327C65.7509 43.9672 65.8704 43.9787 65.9841 44.0133C66.0978 44.0479 66.2034 44.1049 66.2947 44.181C66.3861 44.2571 66.4612 44.3507 66.5157 44.4563C66.5703 44.5619 66.6031 44.6774 66.6122 44.7959V44.8775C66.5927 45.1125 66.4851 45.3313 66.311 45.4903C66.1369 45.6492 65.9092 45.7365 65.6735 45.7347H65.6327C65.5172 45.7436 65.4012 45.7294 65.2913 45.6931C65.1814 45.6567 65.0798 45.5989 64.9925 45.5229C64.9051 45.447 64.8338 45.3544 64.7825 45.2506C64.7312 45.1468 64.7011 45.0339 64.6939 44.9184V44.8775C64.6531 44.8775 64.6531 44.7959 64.6531 44.7959ZM64.7755 47.5306C64.7743 47.3099 64.8586 47.0973 65.0108 46.9374C65.1631 46.7776 65.3713 46.683 65.5918 46.6735H65.6327C65.8597 46.6745 66.077 46.7652 66.2376 46.9257C66.3981 47.0862 66.4887 47.3036 66.4898 47.5306V53.3673C66.4898 53.5947 66.3995 53.8127 66.2387 53.9734C66.078 54.1342 65.86 54.2245 65.6327 54.2245C65.4053 54.2245 65.1873 54.1342 65.0266 53.9734C64.8658 53.8127 64.7755 53.5947 64.7755 53.3673V47.5306Z" fill="#2C296C"/>
<path fill-rule="evenodd" clip-rule="evenodd" d="M67.5918 53.449C67.5876 53.294 67.6184 53.1401 67.6821 52.9987C67.7457 52.8574 67.8404 52.7322 67.9592 52.6326L71.9184 48.1428H68.4082C68.3169 48.1434 68.2264 48.1258 68.142 48.0911C68.0576 48.0565 67.9809 48.0054 67.9163 47.9408C67.8518 47.8763 67.8007 47.7996 67.766 47.7151C67.7313 47.6307 67.7137 47.5402 67.7143 47.449C67.7109 47.2709 67.7774 47.0986 67.8994 46.969C68.0215 46.8393 68.1894 46.7625 68.3674 46.7551H73.3061C73.7959 46.7551 74.1224 47.0408 74.1224 47.4082V47.449C74.1267 47.6039 74.0959 47.7578 74.0322 47.8992C73.9686 48.0406 73.8739 48.1657 73.7551 48.2653L69.7959 52.7551H73.4286C73.6066 52.7517 73.7789 52.8182 73.9086 52.9402C74.0382 53.0623 74.115 53.2302 74.1224 53.4082V53.449C74.1173 53.6314 74.0426 53.8049 73.9135 53.9339C73.7845 54.063 73.611 54.1377 73.4286 54.1428H68.4082C68.2205 54.1595 68.0334 54.1062 67.8827 53.9932C67.732 53.8802 67.6284 53.7154 67.5918 53.5306V53.449Z" fill="#2C296C"/>
<path fill-rule="evenodd" clip-rule="evenodd" d="M75.102 47.5306C75.1008 47.3099 75.1851 47.0973 75.3374 46.9374C75.4896 46.7776 75.6978 46.683 75.9184 46.6735H75.9592C76.1862 46.6745 76.4036 46.7652 76.5641 46.9257C76.7246 47.0862 76.8153 47.3036 76.8163 47.5306V47.898C77.0549 47.4976 77.3967 47.1689 77.8061 46.9463C78.2155 46.7237 78.6772 46.6153 79.1429 46.6326C80.8163 46.6326 81.7959 47.7347 81.7959 49.4898V53.4082C81.7773 53.6326 81.6743 53.8417 81.5077 53.9932C81.341 54.1446 81.1232 54.2273 80.898 54.2245C80.6862 54.2102 80.4868 54.1195 80.3367 53.9695C80.1866 53.8194 80.096 53.6199 80.0816 53.4082V49.9796C80.0816 48.8367 79.5102 48.1837 78.4898 48.1837C77.4694 48.1837 76.8163 48.8775 76.8163 50.0204V53.4082C76.7978 53.6326 76.6948 53.8417 76.5281 53.9932C76.3615 54.1446 76.1436 54.2273 75.9184 54.2245C75.7066 54.2102 75.5072 54.1195 75.3571 53.9695C75.207 53.8194 75.1164 53.6199 75.102 53.4082V47.5306Z" fill="#2C296C"/>
<path fill-rule="evenodd" clip-rule="evenodd" d="M82.6939 50.5102C82.6939 48.3877 84.2041 46.6326 86.3265 46.6326C88.6939 46.6326 89.8367 48.551 89.8367 50.2653C89.8411 50.3702 89.8244 50.475 89.7875 50.5733C89.7505 50.6717 89.6943 50.7616 89.6219 50.8377C89.5496 50.9139 89.4627 50.9747 89.3663 51.0166C89.27 51.0585 89.1663 51.0806 89.0612 51.0816H84.3673C84.4091 51.6085 84.6537 52.0986 85.0496 52.4488C85.4455 52.799 85.9618 52.982 86.4898 52.9592C87.1367 52.9735 87.7647 52.7399 88.2449 52.3061C88.3645 52.2173 88.5052 52.161 88.6531 52.1428C88.7424 52.1427 88.8308 52.1608 88.9128 52.1962C88.9948 52.2315 89.0687 52.2833 89.1299 52.3483C89.1911 52.4134 89.2383 52.4903 89.2686 52.5743C89.2989 52.6583 89.3117 52.7476 89.3061 52.8367C89.3068 52.9279 89.2891 53.0183 89.254 53.1024C89.219 53.1866 89.1673 53.2628 89.102 53.3265C88.3787 53.9856 87.4271 54.3369 86.449 54.3061C84.3673 54.3469 82.7347 52.7551 82.6939 50.5102ZM88.2041 49.9388C88.0816 48.8367 87.4286 47.9796 86.3265 47.9796C85.3061 47.9796 84.5714 48.7959 84.4082 49.9388H88.2041Z" fill="#2C296C"/>
<path fill-rule="evenodd" clip-rule="evenodd" d="M91.2245 52.1428V48.2653H90.9388C90.7562 48.2693 90.579 48.2036 90.4432 48.0815C90.3073 47.9595 90.2231 47.7904 90.2075 47.6084C90.1919 47.4265 90.2461 47.2455 90.3592 47.1021C90.4723 46.9588 90.6358 46.8639 90.8163 46.8367H91.1837V45.6122C91.2022 45.3878 91.3052 45.1787 91.4719 45.0272C91.6385 44.8757 91.8564 44.7931 92.0816 44.7959C92.2934 44.8102 92.4928 44.9008 92.6429 45.0509C92.793 45.201 92.8836 45.4004 92.898 45.6122V46.8775H94.2041C94.3012 46.8629 94.4003 46.8684 94.4952 46.8936C94.5901 46.9187 94.6788 46.9631 94.7559 47.0239C94.833 47.0848 94.8968 47.1607 94.9434 47.2472C94.99 47.3336 95.0183 47.4287 95.0267 47.5266C95.0351 47.6244 95.0233 47.7229 94.9921 47.816C94.961 47.9091 94.911 47.9949 94.8454 48.0679C94.7798 48.141 94.6999 48.1998 94.6106 48.2408C94.5214 48.2817 94.4247 48.304 94.3265 48.3061H92.9388V51.9388C92.9176 52.0668 92.9272 52.1981 92.9669 52.3217C93.0065 52.4453 93.0751 52.5576 93.1669 52.6494C93.2587 52.7412 93.371 52.8098 93.4946 52.8495C93.6182 52.8891 93.7495 52.8988 93.8776 52.8775C94 52.8775 94.1633 52.8367 94.2857 52.8367C94.4746 52.8334 94.6572 52.9041 94.7946 53.0338C94.9319 53.1635 95.013 53.3419 95.0204 53.5306C95.0206 53.6721 94.9778 53.8104 94.8976 53.927C94.8174 54.0437 94.7037 54.1332 94.5714 54.1837C94.1902 54.3141 93.7906 54.383 93.3878 54.3877C92.1225 54.3061 91.2245 53.7347 91.2245 52.1428Z" fill="#2C296C"/>
<path fill-rule="evenodd" clip-rule="evenodd" d="M94.2449 44.6326C94.2449 44.4161 94.3309 44.2085 94.484 44.0554C94.6371 43.9023 94.8447 43.8163 95.0612 43.8163C95.164 43.8129 95.2663 43.8306 95.362 43.8684C95.4576 43.9062 95.5445 43.9632 95.6172 44.0359C95.6899 44.1086 95.7469 44.1954 95.7847 44.2911C95.8224 44.3867 95.8401 44.4891 95.8367 44.5918C95.8357 44.6969 95.8136 44.8006 95.7717 44.8969C95.7298 44.9933 95.669 45.0802 95.5929 45.1525C95.5167 45.2249 95.4268 45.2811 95.3285 45.3181C95.2301 45.355 95.1254 45.3717 95.0204 45.3673C94.92 45.3754 94.819 45.3622 94.724 45.3287C94.629 45.2952 94.5421 45.2421 94.469 45.1728C94.3958 45.1035 94.3381 45.0196 94.2995 44.9265C94.2609 44.8335 94.2423 44.7334 94.2449 44.6326ZM95.7143 44.6326C95.7154 44.5466 95.6992 44.4612 95.6668 44.3814C95.6344 44.3017 95.5863 44.2293 95.5255 44.1684C95.4646 44.1076 95.3922 44.0595 95.3124 44.0271C95.2327 43.9946 95.1473 43.9785 95.0612 43.9796H95.0204C94.8441 43.9821 94.6751 44.0506 94.5467 44.1714C94.4183 44.2923 94.3398 44.4568 94.3265 44.6326C94.3254 44.7187 94.3416 44.8041 94.374 44.8839C94.4064 44.9636 94.4545 45.036 94.5154 45.0969C94.5762 45.1577 94.6487 45.2058 94.7284 45.2382C94.8081 45.2707 94.8935 45.2868 94.9796 45.2857H95.0204C95.1094 45.2907 95.1985 45.2775 95.2822 45.247C95.366 45.2165 95.4426 45.1692 95.5075 45.1081C95.5724 45.047 95.6242 44.9734 95.6598 44.8916C95.6953 44.8099 95.7139 44.7218 95.7143 44.6326Z" fill="#2C296C"/>
<path fill-rule="evenodd" clip-rule="evenodd" d="M94.6939 44.2653C94.6957 44.2443 94.7049 44.2246 94.7198 44.2096C94.7348 44.1947 94.7545 44.1855 94.7755 44.1837H95.0612C95.148 44.1921 95.2317 44.22 95.3061 44.2653C95.3491 44.3103 95.3775 44.3672 95.3878 44.4286C95.3862 44.4806 95.3701 44.5311 95.3413 44.5744C95.3124 44.6177 95.2719 44.6521 95.2245 44.6735L95.3878 44.8775L95.4286 44.9184C95.4267 44.9394 95.4175 44.9591 95.4026 44.974C95.3877 44.989 95.368 44.9982 95.3469 45C95.3061 45 95.3061 45 95.2653 44.9592L95.0612 44.6735H94.898V44.8775C94.898 44.8992 94.8894 44.92 94.8741 44.9353C94.8587 44.9506 94.838 44.9592 94.8163 44.9592C94.7947 44.9592 94.7739 44.9506 94.7586 44.9353C94.7433 44.92 94.7347 44.8992 94.7347 44.8775L94.6939 44.2653ZM95.102 44.5918C95.2245 44.5918 95.2653 44.551 95.2653 44.4694C95.2653 44.3877 95.1837 44.3469 95.102 44.3469H94.898V44.6326H95.102V44.5918Z" fill="#2C296C"/>
</g>
<rect x="1" y="1" width="110" height="110" rx="9" stroke="black" stroke-opacity="0.1" stroke-width="2"/>
<defs>
<linearGradient id="paint0_linear_505_170" x1="14.8766" y1="55.6816" x2="95.2276" y2="55.6816" gradientUnits="userSpaceOnUse">
<stop offset="0.17" stop-color="#F5A31D"/>
<stop offset="0.26" stop-color="#F39A1F"/>
<stop offset="0.43" stop-color="#EF8522"/>
<stop offset="0.64" stop-color="#E95F24"/>
<stop offset="0.76" stop-color="#E64325"/>
</linearGradient>
<linearGradient id="paint1_linear_505_170" x1="99.2609" y1="72.0316" x2="72.9142" y2="20.894" gradientUnits="userSpaceOnUse">
<stop stop-color="#FBC311"/>
<stop offset="0.09" stop-color="#F9BA16"/>
<stop offset="0.26" stop-color="#F5A41D"/>
<stop offset="0.48" stop-color="#EF8022"/>
<stop offset="0.6" stop-color="#ED7823"/>
<stop offset="0.82" stop-color="#E95F24"/>
<stop offset="1" stop-color="#E64325"/>
</linearGradient>
<linearGradient id="paint2_linear_505_170" x1="55.6588" y1="34.8036" x2="55.6588" y2="79.4678" gradientUnits="userSpaceOnUse">
<stop offset="0.17" stop-color="#F5A31D"/>
<stop offset="0.26" stop-color="#F39A1F"/>
<stop offset="0.43" stop-color="#EF8522"/>
<stop offset="0.64" stop-color="#E95F24"/>
<stop offset="0.76" stop-color="#E64325"/>
</linearGradient>
<radialGradient id="paint3_radial_505_170" cx="0" cy="0" r="1" gradientUnits="userSpaceOnUse" gradientTransform="translate(21.502 73.8222) scale(103.555 53.3782)">
<stop stop-color="#FBC311"/>
<stop offset="0.14" stop-color="#F9B717"/>
<stop offset="0.41" stop-color="#F3991F"/>
<stop offset="0.62" stop-color="#EF8022"/>
<stop offset="0.68" stop-color="#ED7423"/>
<stop offset="0.78" stop-color="#E75225"/>
<stop offset="0.82" stop-color="#E64325"/>
<stop offset="1" stop-color="#E64325"/>
</radialGradient>
<clipPath id="clip0_505_170">
<rect x="2" y="2" width="108" height="108" rx="8" fill="white"/>
</clipPath>
</defs>
</svg>
