<svg width="112" height="112" viewBox="0 0 112 112" fill="none" xmlns="http://www.w3.org/2000/svg">
<g clip-path="url(#clip0_505_169)">
<rect x="2" y="2" width="108" height="108" rx="8" fill="white"/>
<path d="M62.4195 16.7248C52.4891 13.1737 44.768 23.9256 44.2832 32.3788C45.595 23.005 55.6037 18.8978 60.9582 20.9561C62.3278 21.4768 63.4419 22.5766 63.1586 24.2505C63.0686 24.7979 62.7729 25.3447 62.3841 25.9182C62.3841 25.9182 68.1846 18.7936 62.4195 16.7248Z" fill="black"/>
<path d="M62.4195 16.7248C52.4891 13.1737 44.768 23.9256 44.2832 32.3788C45.595 23.005 55.6037 18.8978 60.9582 20.9561C62.3278 21.4768 63.4419 22.5766 63.1586 24.2505C63.0686 24.7979 62.7729 25.3447 62.3841 25.9182C62.3841 25.9182 68.1846 18.7936 62.4195 16.7248Z" fill="url(#paint0_linear_505_169)"/>
<path d="M49.4809 61.8339C43.3539 58.6374 44.119 42.0287 44.1164 35.5346C44.1164 34.421 44.1791 33.3726 44.2832 32.3788C44.7141 24.8774 50.83 15.5804 59.14 16.0498C58.3184 15.9802 57.4593 15.9827 56.5373 16.059C54.2572 16.2437 48.2237 17.426 43.5398 21.863C38.6701 26.4824 37.3712 33.2505 37.4376 40.6394C37.5907 58.4966 45.7537 61.4309 49.3055 62.3131C49.3254 62.3174 49.36 62.326 49.3848 62.3237C49.5268 62.3237 49.641 62.2121 49.641 62.0677C49.641 61.9627 49.5739 61.881 49.4809 61.8339Z" fill="black"/>
<path d="M49.3005 62.3256V62.3128H49.2492V62.3H49.1979V62.2872H49.1466V62.2743H49.0952V62.2615H49.0439V62.2487H48.9926V62.2358H48.9541V62.223H48.9028V62.2102H48.8515V62.1974H48.813V62.1845H48.7617V62.1717H48.7232V62.1589H48.6719V62.146H48.6206V62.1332H48.5821V62.1204H48.5436V62.1076H48.4923V62.0947H48.4538V62.0819H48.4153V62.0691H48.364V62.0562H48.3255V62.0434H48.2871V62.0306H48.2486V62.0178H48.2101V62.0049H48.1588V61.9921H48.1203V61.9793H48.0818V61.9664H48.0433V61.9536H48.0048V61.9408H47.9664V61.928H47.9279V61.9151H47.8894V61.9023H47.8637V61.8895H47.8252V61.8766H47.7868V61.8638H47.7483V61.851H47.7098V61.8382H47.6713V61.8253H47.6456V61.8125H47.6072V61.7997H47.5687V61.7868H47.543V61.774H47.5045V61.7612H47.4661V61.7484H47.4404V61.7355H47.4019V61.7227H47.3763V61.7099H47.3378V61.6971H47.2993V61.6842H47.2736V61.6714H47.2351V61.6586H47.2095V61.6457H47.1838V61.6329H47.1453V61.6201H47.1197V61.6073H47.0812V61.5944H47.0555V61.5816H47.0299V61.5688H46.9914V61.5559H46.9657V61.5431H46.9273V61.5303H46.9016V61.5175H46.8759V61.5046H46.8503V61.4918H46.8118V61.479H46.7861V61.4661H46.7605V61.4533H46.7348V61.4405H46.6964V61.4277H46.6707V61.4148H46.645V61.402H46.6194V61.3892H46.5937V61.3763H46.5681V61.3635H46.5424V61.3507H46.5039V61.3379H46.4783V61.325H46.4526V61.3122H46.427V61.2994H46.4013V61.2865H46.3756V61.2737H46.35V61.2609H46.3243V61.2481H46.2987V61.2352H46.273V61.2224H46.2474V61.2096H46.2217V61.1967H46.196V61.1839H46.1704V61.1711H46.1447V61.1583H46.1191V61.1454H46.0934V61.1326H46.0678V61.1198H46.0421V61.1069H46.0165V61.0941H46.0036V61.0813H45.978V61.0685H45.9523V61.0556H45.9267V61.0428H45.901V61.03H45.8753V61.0172H45.8625V61.0043H45.8369V60.9915H45.8112V60.9787H45.7855V60.9658H45.7599V60.953H45.7342V60.9402H45.7214V60.9274H45.6957V60.9145H45.6701V60.9017H45.6444V60.8889H45.6316V60.876H45.6059V60.8632H45.5803V60.8504H45.5675V60.8376H45.5418V60.8247H45.5161V60.8119H45.4905V60.7991H45.4777V60.7862H45.452V60.7734H45.4263V60.7606H45.4135V60.7478H45.3879V60.7349H45.3622V60.7221H45.3494V60.7093H45.3237V60.6964H45.3109V60.6836H45.2852V60.6708H45.2596V60.658H45.2468V60.6451H45.2211V60.6323H45.2083V60.6195H45.1826V60.6066H45.157V60.5938H45.1441V60.581H45.1185V60.5682H45.1056V60.5553H45.08V60.5425H45.0672V60.5297H45.0415V60.5168H45.0158V60.504H45.003V60.4912H44.9774V60.4784H44.9645V60.4655H44.9517V60.4527H44.926V60.4399H44.9132V60.427H44.8876V60.4142H44.8747V60.4014H44.8491V60.3886H44.8362V60.3757H44.8106V60.3629H44.7978V60.3501H44.7721V60.3372H44.7593V60.3244H44.7336V60.3116H44.7208V60.2988H44.6951V60.2859H44.6823V60.2731H44.6695V60.2603H44.6438V60.2475H44.631V60.2346H44.6053V60.2218H44.5925V60.209H44.5797V60.1961H44.554V60.1833H44.5412V60.1705H44.5155V60.1577H44.5027V60.1448H44.4899V60.132H44.4642V60.1192H44.4514V60.1063H44.4386V60.0935H44.4129V60.0807H44.4001V60.0679H44.3873V60.055H44.3616V60.0422H44.3488V60.0294H44.3359V60.0165H44.3103V60.0037H44.2975V59.9909H44.2846V59.9781H44.259V59.9652H44.2461V59.9524H44.2333V59.9396H44.2205V59.9267H44.1948V59.9139H44.182V59.9011H44.1692V59.8883H44.1435V59.8754H44.1307V59.8626H44.1179V59.8498H44.105V59.8369H44.0794V59.8241H44.0665V59.8113H44.0537V59.7985H44.0409V59.7856H44.0152V59.7728H44.0024V59.76H43.9896V59.7471H43.9767V59.7343H43.9639V59.7215H43.9383V59.7087H43.9254V59.6958H43.9126V59.683H43.8998V59.6702H43.8741V59.6573H43.8613V59.6445H43.8485V59.6317H43.8356V59.6189H43.8228V59.606H43.7971V59.5932H43.7843V59.5804H43.7715V59.5676H43.7587V59.5547H43.7458V59.5419H43.733V59.5291H43.7074V59.5162H43.6945V59.5034H43.6817V59.4906H43.6689V59.4778H43.656V59.4649H43.6432V59.4521H43.6304V59.4393H43.6047V59.4264H43.5919V59.4136H43.5791V59.4008H43.5662V59.388H43.5534V59.3751H43.5406V59.3623H43.5278V59.3495H43.5149V59.3366H43.4893V59.3238H43.4764V59.311H43.4636V59.2982H43.4508V59.2853H43.438V59.2725H43.4251V59.2597H43.4123V59.2468H43.3995V59.234H43.3866V59.2212H43.3738V59.2084H43.361V59.1955H43.3482V59.1827H43.3225V59.1699H43.3097V59.157H43.2968V59.1442H43.284V59.1314H43.2712V59.1186H43.2584V59.1057H43.2455V59.0929H43.2327V59.0801H43.2199V59.0672H43.207V59.0544H43.1942V59.0416H43.1814V59.0288H43.1686V59.0159H43.1557V59.0031H43.1429V58.9903H43.1301V58.9774H43.1172V58.9646H43.1044V58.9518H43.0916V58.939H43.0788V58.9261H43.0659V58.9133H43.0531V58.9005H43.0403V58.8876H43.0275V58.8748H43.0146V58.862H43.0018V58.8492H42.989V58.8363H42.9761V58.8235H42.9633V58.8107H42.9505V58.7979H42.9377V58.785H42.9248V58.7722H42.912V58.7594H42.8992V58.7465H42.8863V58.7337H42.8735V58.7209H42.8607V58.7081H42.8479V58.6952H42.835V58.6824H42.8222V58.6696H42.8094V58.6567H42.7965V58.6439H42.7837V58.6311H42.7709V58.6183H42.7581V58.6054H42.7452V58.5926H42.7324V58.5798H42.7196V58.5541H42.7067V58.5413H42.6939V58.5285H42.6811V58.5156H42.6683V58.5028H42.6554V58.49H42.6426V58.4771H42.6298V58.4643H42.6169V58.4515H42.6041V58.4387H42.5913V58.4258H42.5785V58.413H42.5656V58.4002H42.5528V58.3745H42.54V58.3617H42.5271V58.3489H42.5143V58.336H42.5015V58.3232H42.4887V58.3104H42.4758V58.2975H42.463V58.2719H42.4502V58.2591H42.4373V58.2462H42.4245V58.2334H42.4117V58.2206H42.3989V58.2077H42.386V58.1949H42.3732V58.1821H42.3604V58.1564H42.3475V58.1436H42.3347V58.1308H42.3219V58.118H42.3091V58.1051H42.2962V58.0923H42.2834V58.0666H42.2706V58.0538H42.2578V58.041H42.2449V58.0282H42.2321V58.0153H42.2193V57.9897H42.2064V57.9768H42.1936V57.964H42.1808V57.9512H42.168V57.9384H42.1551V57.9127H42.1423V57.8999H42.1295V57.887H42.1166V57.8742H42.1038V57.8614H42.091V57.8357H42.0782V57.8229H42.0653V57.8101H42.0525V57.7972H42.0397V57.7716H42.0268V57.7588H42.014V57.7459H42.0012V57.7331H41.9884V57.7074H41.9755V57.6946H41.9627V57.6818H41.9499V57.6561H41.937V57.6433H41.9242V57.6305H41.9114V57.6176H41.8986V57.592H41.8857V57.5792H41.8729V57.5663H41.8601V57.5535H41.8472V57.5278H41.8344V57.515H41.8216V57.5022H41.8088V57.4765H41.7959V57.4637H41.7831V57.4509H41.7703V57.4252H41.7574V57.4124H41.7446V57.3996H41.7318V57.3739H41.719V57.3611H41.7061V57.3483H41.6933V57.3226H41.6805V57.3098H41.6676V57.2969H41.6548V57.2713H41.642V57.2585H41.6292V57.2456H41.6163V57.22H41.6035V57.2071H41.5907V57.1815H41.5779V57.1687H41.565V57.1558H41.5522V57.1302H41.5394V57.1173H41.5265V57.0917H41.5137V57.0789H41.5009V57.066H41.4881V57.0404H41.4752V57.0275H41.4624V57.0019H41.4496V56.9891H41.4367V56.9762H41.4239V56.9506H41.4111V56.9377H41.3983V56.9121H41.3854V56.8993H41.3726V56.8736H41.3598V56.8608H41.3469V56.8351H41.3341V56.8223H41.3213V56.7966H41.3085V56.7838H41.2956V56.7581H41.2828V56.7453H41.27V56.7197H41.2571V56.7068H41.2443V56.6812H41.2315V56.6684H41.2187V56.6427H41.2058V56.6299H41.193V56.6042H41.1802V56.5914H41.1673V56.5657H41.1545V56.5529H41.1417V56.5272H41.1289V56.5144H41.116V56.4888H41.1032V56.4759H41.0904V56.4503H41.0775V56.4246H41.0647V56.4118H41.0519V56.3861H41.0391V56.3733H41.0262V56.3476H41.0134V56.322H41.0006V56.3092H40.9877V56.2835H40.9749V56.2707H40.9621V56.245H40.9493V56.2322H40.9364V56.2065H40.9236V56.1809H40.9108V56.168H40.8979V56.1424H40.8851V56.1167H40.8723V56.1039H40.8595V56.0782H40.8466V56.0526H40.8338V56.0398H40.821V56.0141H40.8082V55.9884H40.7953V55.9756H40.7825V55.95H40.7697V55.9243H40.7568V55.9115H40.744V55.8858H40.7312V55.8602H40.7184V55.8345H40.7055V55.8217H40.6927V55.796H40.6799V55.7704H40.667V55.7447H40.6542V55.7191H40.6414V55.7062H40.6286V55.6806H40.6157V55.6549H40.6029V55.6293H40.5901V55.6164H40.5772V55.5908H40.5644V55.5651H40.5516V55.5395H40.5388V55.5266H40.5259V55.501H40.5131V55.4753H40.5003V55.4497H40.4874V55.424H40.4746V55.3983H40.4618V55.3727H40.449V55.3599H40.4361V55.3342H40.4233V55.3085H40.4105V55.2829H40.3976V55.2572H40.3848V55.2316H40.372V55.2059H40.3592V55.1803H40.3463V55.1674H40.3335V55.1418H40.3207V55.1161H40.3078V55.0905H40.295V55.0648H40.2822V55.0392H40.2694V55.0135H40.2565V54.9878H40.2437V54.9622H40.2309V54.9365H40.218V54.9109H40.2052V54.8852H40.1924V54.8596H40.1796V54.8339H40.1667V54.8082H40.1539V54.7826H40.1411V54.7569H40.1283V54.7313H40.1154V54.7056H40.1026V54.68H40.0898V54.6543H40.0769V54.6158H40.0641V54.5902H40.0513V54.5645H40.0385V54.5388H40.0256V54.5132H40.0128V54.4875H40V54.4619H39.9871V54.4362H39.9743V54.3977H39.9615V54.3721H39.9487V54.3464H39.9358V54.3208H39.923V54.2951H39.9102V54.2695H39.8973V54.231H39.8845V54.2053H39.8717V54.1797H39.8589V54.154H39.846V54.1155H39.8332V54.0899H39.8204V54.0642H39.8075V54.0385H39.7947V54.0001H39.7819V53.9744H39.7691V53.9487H39.7562V53.9231H39.7434V53.8846H39.7306V53.8589H39.7177V53.8333H39.7049V53.7948H39.6921V53.7691H39.6793V53.7435H39.6664V53.705H39.6536V53.6793H39.6408V53.6409H39.6279V53.6152H39.6151V53.5767H39.6023V53.5511H39.5895V53.5254H39.5766V53.4869H39.5638V53.4613H39.551V53.4228H39.5381V53.3971H39.5253V53.3586H39.5125V53.333H39.4997V53.2945H39.4868V53.2688H39.474V53.2304H39.4612V53.1919H39.4483V53.1662H39.4355V53.1277H39.4227V53.1021H39.4099V53.0636H39.397V53.0379H39.3842V52.9994H39.3714V52.961H39.3586V52.9353H39.3457V52.8968H39.3329V52.8583H39.3201V52.8199H39.3072V52.7942H39.2944V52.7557H39.2816V52.7172H39.2688V52.6787H39.2559V52.6531H39.2431V52.6146H39.2303V52.5761H39.2174V52.5376H39.2046V52.512H39.1918V52.4735H39.179V52.435H39.1661V52.3965H39.1533V52.358H39.1405V52.3195H39.1276V52.2811H39.1148V52.2426H39.102V52.2041H39.0892V52.1656H39.0763V52.1271H39.0635V52.0886H39.0507V52.0502H39.0378V52.0117H39.025V51.9732H39.0122V51.9347H38.9994V51.8962H38.9865V51.8577H38.9737V51.8192H38.9609V51.7679H38.948V51.7294H38.9352V51.691H38.9224V51.6525H38.9096V51.614H38.8967V51.5627H38.8839V51.5242H38.8711V51.4857H38.8582V51.4472H38.8454V51.3959H38.8326V51.3574H38.8198V51.3189H38.8069V51.2676H38.7941V51.2291H38.7813V51.1778H38.7684V51.1393H38.7556V51.088H38.7428V51.0495H38.73V50.9982H38.7171V50.9597H38.7043V50.9084H38.6915V50.8699H38.6786V50.8186H38.6658V50.7673H38.653V50.716H38.6402V50.6775H38.6273V50.6262H38.6145V50.5749H38.6017V50.5236H38.5889V50.4851H38.576V50.4338H38.5632V50.3825H38.5504V50.3312H38.5375V50.2798H38.5247V50.2285H38.5119V50.1772H38.4991V50.1259H38.4862V50.0746H38.4734V50.0233H38.4606V49.972H38.4477V49.9207H38.4349V49.8693H38.4221V49.8052H38.4093V49.7539H38.3964V49.7026H38.3836V49.6384H38.3708V49.5871H38.3579V49.523H38.3451V49.4717H38.3323V49.4075H38.3195V49.3562H38.3066V49.2921H38.2938V49.2407H38.281V49.1766H38.2681V49.1125H38.2553V49.0483H38.2425V48.9842H38.2297V48.9329H38.2168V48.8687H38.204V48.8046H38.1912V48.7404H38.1783V48.6763H38.1655V48.6122H38.1527V48.548H38.1399V48.4711H38.127V48.4069H38.1142V48.3299H38.1014V48.2658H38.0885V48.1888H38.0757V48.1247H38.0629V48.0477H38.0501V47.9836H38.0372V47.9066H38.0244V47.8296H38.0116V47.7527H37.9987V47.6757H37.9859V47.5987H37.9731V47.5218H37.9603V47.4448H37.9474V47.355H37.9346V47.278H37.9218V47.1882H37.9089V47.0984H37.8961V47.0086H37.8833V46.9188H37.8705V46.8419H37.8576V46.7521H37.8448V46.6623H37.832V46.5596H37.8192V46.457H37.8063V46.3544H37.7935V46.2517H37.7807V46.162H37.7678V46.0593H37.755V45.9567H37.7422V45.8412H37.7294V45.713H37.7165V45.5975H37.7037V45.482H37.6909V45.3666H37.678V45.2511H37.6652V45.11H37.6524V44.9689H37.6396V44.8406H37.6267V44.6995H37.6139V44.5584H37.6011V44.3916H37.5882V44.2249H37.5754V44.0581H37.5626V43.8913H37.5498V43.6989H37.5369V43.4937H37.5241V43.2756H37.5113V43.0703H37.4984V42.7881H37.4856V42.5059H37.4728V42.198H37.46V41.7747H37.4471V41.2744H37.4343V39.0166H37.4471V38.4778H37.46V38.1314H37.4728V37.7979H37.4856V37.5541H37.4984V37.2976H37.5113V37.0795H37.5241V36.8871H37.5369V36.6946H37.5498V36.5022H37.5626V36.3483H37.5754V36.1943H37.5882V36.0404H37.6011V35.8865H37.6139V35.7582H37.6267V35.6171H37.6396V35.4888H37.6524V35.3605H37.6652V35.2322H37.678V35.1296H37.6909V35.0141H37.7037V34.9115H37.7165V34.7961H37.7294V34.6806H37.7422V34.578H37.755V34.4882H37.7678V34.3855H37.7807V34.2957H37.7935V34.206H37.8063V34.1033H37.8192V34.0135H37.832V33.9237H37.8448V33.8339H37.8576V33.757H37.8705V33.68H37.8833V33.5902H37.8961V33.5132H37.9089V33.4234H37.9218V33.3465H37.9346V33.2695H37.9474V33.1925H37.9603V33.1284H37.9731V33.0514H37.9859V32.9744H37.9987V32.9103H38.0116V32.8333H38.0244V32.7692H38.0372V32.6922H38.0501V32.6281H38.0629V32.5639H38.0757V32.4998H38.0885V32.4356H38.1014V32.3715H38.1142V32.3074H38.127V32.2432H38.1399V32.1791H38.1527V32.1149H38.1655V32.0508H38.1783V31.9867H38.1912V31.9353H38.204V31.8712H38.2168V31.8199H38.2297V31.7557H38.2425V31.7044H38.2553V31.6531H38.2681V31.589H38.281V31.5377H38.2938V31.4735H38.3066V31.4222H38.3195V31.3709H38.3323V31.3196H38.3451V31.2683H38.3579V31.217H38.3708V31.1656H38.3836V31.1143H38.3964V31.063H38.4093V31.0117H38.4221V30.9604H38.4349V30.9091H38.4477V30.8578H38.4606V30.8064H38.4734V30.7551H38.4862V30.7038H38.4991V30.6653H38.5119V30.614H38.5247V30.5627H38.5375V30.5242H38.5504V30.4729H38.5632V30.4344H38.576V30.3831H38.5889V30.3318H38.6017V30.2933H38.6145V30.242H38.6273V30.2035H38.6402V30.1522H38.653V30.1137H38.6658V30.0752H38.6786V30.0239H38.6915V29.9854H38.7043V29.9469H38.7171V29.9085H38.73V29.8572H38.7428V29.8187H38.7556V29.7802H38.7684V29.7289H38.7813V29.6904H38.7941V29.6519H38.8069V29.6134H38.8198V29.5749H38.8326V29.5364H38.8454V29.498H38.8582V29.4595H38.8711V29.421H38.8839V29.3825H38.8967V29.344H38.9096V29.3055H38.9224V29.267H38.9352V29.2286H38.948V29.1901H38.9609V29.1516H38.9737V29.1131H38.9865V29.0746H38.9994V29.0361H39.0122V28.9977H39.025V28.9592H39.0378V28.9207H39.0507V28.895H39.0635V28.8565H39.0763V28.8181H39.0892V28.7796H39.102V28.7539H39.1148V28.7154H39.1276V28.6769H39.1405V28.6385H39.1533V28.6128H39.1661V28.5743H39.179V28.5358H39.1918V28.4973H39.2046V28.4717H39.2174V28.4332H39.2303V28.4075H39.2431V28.3691H39.2559V28.3434H39.2688V28.3049H39.2816V28.2793H39.2944V28.2408H39.3072V28.2151H39.3201V28.1766H39.3329V28.151H39.3457V28.1125H39.3586V28.074H39.3714V28.0484H39.3842V28.0099H39.397V27.9842H39.4099V27.9457H39.4227V27.9201H39.4355V27.8816H39.4483V27.8559H39.4612V27.8303H39.474V27.7918H39.4868V27.7661H39.4997V27.7405H39.5125V27.7148H39.5253V27.6763H39.5381V27.6507H39.551V27.625H39.5638V27.5865H39.5766V27.5609H39.5895V27.5352H39.6023V27.4967H39.6151V27.4711H39.6279V27.4454H39.6408V27.4198H39.6536V27.3813H39.6664V27.3556H39.6793V27.33H39.6921V27.2915H39.7049V27.2658H39.7177V27.2402H39.7306V27.2145H39.7434V27.1889H39.7562V27.1632H39.7691V27.1375H39.7819V27.1119H39.7947V27.0734H39.8075V27.0477H39.8204V27.0221H39.8332V26.9964H39.846V26.9708H39.8589V26.9451H39.8717V26.9195H39.8845V26.8938H39.8973V26.8553H39.9102V26.8297H39.923V26.804H39.9358V26.7784H39.9487V26.7527H39.9615V26.727H39.9743V26.7014H39.9871V26.6757H40V26.6501H40.0128V26.6244H40.0256V26.5988H40.0385V26.5731H40.0513V26.5474H40.0641V26.5346H40.0769V26.509H40.0898V26.4833H40.1026V26.4576H40.1154V26.432H40.1283V26.4063H40.1411V26.3807H40.1539V26.355H40.1667V26.3294H40.1796V26.3037H40.1924V26.278H40.2052V26.2524H40.218V26.2267H40.2309V26.2011H40.2437V26.1754H40.2565V26.1626H40.2694V26.1369H40.2822V26.1113H40.295V26.0856H40.3078V26.06H40.3207V26.0471H40.3335V26.0215H40.3463V25.9958H40.3592V25.9702H40.372V25.9445H40.3848V25.9317H40.3976V25.906H40.4105V25.8804H40.4233V25.8547H40.4361V25.8291H40.449V25.8162H40.4618V25.7906H40.4746V25.7649H40.4874V25.7393H40.5003V25.7136H40.5131V25.7008H40.5259V25.6751H40.5388V25.6495H40.5516V25.6366H40.5644V25.611H40.5772V25.5853H40.5901V25.5597H40.6029V25.5468H40.6157V25.5212H40.6286V25.4955H40.6414V25.4827H40.6542V25.457H40.667V25.4314H40.6799V25.4185H40.6927V25.3929H40.7055V25.3672H40.7184V25.3544H40.7312V25.3288H40.744V25.3031H40.7568V25.2903H40.7697V25.2646H40.7825V25.239H40.7953V25.2261H40.8082V25.2005H40.821V25.1748H40.8338V25.162H40.8466V25.1363H40.8595V25.1235H40.8723V25.0978H40.8851V25.085H40.8979V25.0594H40.9108V25.0465H40.9236V25.0209H40.9364V25.008H40.9493V24.9824H40.9621V24.9567H40.9749V24.9439H40.9877V24.9182H41.0006V24.9054H41.0134V24.8798H41.0262V24.8669H41.0391V24.8413H41.0519V24.8284H41.0647V24.8028H41.0775V24.7771H41.0904V24.7643H41.1032V24.7386H41.116V24.7258H41.1289V24.7002H41.1417V24.6873H41.1545V24.6617H41.1673V24.6489H41.1802V24.6232H41.193V24.6104H41.2058V24.5975H41.2187V24.5719H41.2315V24.5591H41.2443V24.5334H41.2571V24.5206H41.27V24.4949H41.2828V24.4821H41.2956V24.4564H41.3085V24.4436H41.3213V24.4308H41.3341V24.4051H41.3469V24.3923H41.3598V24.3666H41.3726V24.3538H41.3854V24.3281H41.3983V24.3153H41.4111V24.3025H41.4239V24.2768H41.4367V24.264H41.4496V24.2383H41.4624V24.2255H41.4752V24.1999H41.4881V24.187H41.5009V24.1742H41.5137V24.1485H41.5265V24.1357H41.5394V24.1229H41.5522V24.0972H41.565V24.0844H41.5779V24.0716H41.5907V24.0459H41.6035V24.0331H41.6163V24.0203H41.6292V23.9946H41.642V23.9818H41.6548V23.9689H41.6676V23.9433H41.6805V23.9305H41.6933V23.9176H41.7061V23.892H41.719V23.8792H41.7318V23.8663H41.7446V23.8407H41.7574V23.8278H41.7703V23.815H41.7831V23.7894H41.7959V23.7765H41.8088V23.7637H41.8216V23.738H41.8344V23.7252H41.8472V23.7124H41.8601V23.6867H41.8729V23.6739H41.8857V23.6611H41.8986V23.6482H41.9114V23.6226H41.9242V23.6098H41.937V23.5969H41.9499V23.5841H41.9627V23.5713H41.9755V23.5456H41.9884V23.5328H42.0012V23.52H42.014V23.5071H42.0268V23.4815H42.0397V23.4686H42.0525V23.4558H42.0653V23.443H42.0782V23.4173H42.091V23.4045H42.1038V23.3917H42.1166V23.3788H42.1295V23.3532H42.1423V23.3404H42.1551V23.3275H42.168V23.3147H42.1808V23.3019H42.1936V23.2762H42.2064V23.2634H42.2193V23.2506H42.2321V23.2377H42.2449V23.2121H42.2578V23.1992H42.2706V23.1864H42.2834V23.1736H42.2962V23.1608H42.3091V23.1479H42.3219V23.1351H42.3347V23.1095H42.3475V23.0966H42.3604V23.0838H42.3732V23.071H42.386V23.0581H42.3989V23.0453H42.4117V23.0325H42.4245V23.0068H42.4373V22.994H42.4502V22.9812H42.463V22.9683H42.4758V22.9555H42.4887V22.9427H42.5015V22.917H42.5143V22.9042H42.5271V22.8914H42.54V22.8785H42.5528V22.8657H42.5656V22.8529H42.5785V22.8401H42.5913V22.8144H42.6041V22.8016H42.6169V22.7887H42.6298V22.7759H42.6426V22.7631H42.6554V22.7503H42.6683V22.7374H42.6811V22.7246H42.6939V22.7118H42.7067V22.6989H42.7196V22.6733H42.7324V22.6605H42.7452V22.6476H42.7581V22.6348H42.7709V22.622H42.7837V22.6091H42.7965V22.5963H42.8094V22.5835H42.8222V22.5707H42.835V22.5578H42.8479V22.545H42.8607V22.5322H42.8735V22.5193H42.8863V22.5065H42.8992V22.4937H42.912V22.4809H42.9248V22.4552H42.9377V22.4424H42.9505V22.4295H42.9633V22.4167H42.9761V22.4039H42.989V22.3911H43.0018V22.3782H43.0146V22.3654H43.0275V22.3526H43.0403V22.3398H43.0531V22.3269H43.0659V22.3141H43.0788V22.3013H43.0916V22.2884H43.1044V22.2756H43.1172V22.2628H43.1301V22.25H43.1429V22.2371H43.1557V22.2243H43.1686V22.2115H43.1814V22.1986H43.1942V22.1858H43.207V22.173H43.2199V22.1602H43.2327V22.1473H43.2455V22.1345H43.2584V22.1217H43.2712V22.1088H43.284V22.096H43.2968V22.0832H43.3097V22.0704H43.3225V22.0575H43.3353V22.0447H43.3482V22.0319H43.361V22.019H43.3738V22.0062H43.3866V21.9934H43.3995V21.9806H43.4123V21.9677H43.4251V21.9549H43.438V21.9421H43.4508V21.9292H43.4636V21.9164H43.4764V21.9036H43.4893V21.8908H43.5021V21.8779H43.5149V21.8651H43.5278V21.8523H43.5406V21.8394H43.5534V21.8266H43.5662V21.8138H43.5919V21.801H43.6047V21.7881H43.6176V21.7753H43.6304V21.7625H43.6432V21.7496H43.656V21.7368H43.6689V21.724H43.6817V21.7112H43.6945V21.6983H43.7074V21.6855H43.7202V21.6727H43.733V21.6599H43.7587V21.647H43.7715V21.6342H43.7843V21.6214H43.7971V21.6085H43.81V21.5957H43.8228V21.5829H43.8356V21.5701H43.8485V21.5572H43.8613V21.5444H43.8741V21.5316H43.8998V21.5187H43.9126V21.5059H43.9254V21.4931H43.9383V21.4803H43.9511V21.4674H43.9639V21.4546H43.9767V21.4418H43.9896V21.4289H44.0024V21.4161H44.0281V21.4033H44.0409V21.3905H44.0537V21.3776H44.0665V21.3648H44.0794V21.352H44.0922V21.3391H44.1179V21.3263H44.1307V21.3135H44.1435V21.3007H44.1563V21.2878H44.1692V21.275H44.182V21.2622H44.2077V21.2493H44.2205V21.2365H44.2333V21.2237H44.2461V21.2109H44.259V21.198H44.2718V21.1852H44.2975V21.1724H44.3103V21.1595H44.3231V21.1467H44.3359V21.1339H44.3488V21.1211H44.3616V21.1082H44.3744V21.0954H44.4001V21.0826H44.4129V21.0697H44.4257V21.0569H44.4386V21.0441H44.4514V21.0313H44.4771V21.0184H44.4899V21.0056H44.5027V20.9928H44.5155V20.9799H44.5412V20.9671H44.554V20.9543H44.5669V20.9415H44.5797V20.9286H44.6053V20.9158H44.6182V20.903H44.631V20.8902H44.6438V20.8773H44.6566V20.8645H44.6823V20.8517H44.6951V20.8388H44.708V20.826H44.7208V20.8132H44.7464V20.8004H44.7593V20.7875H44.7721V20.7747H44.7849V20.7619H44.8106V20.749H44.8234V20.7362H44.8362V20.7234H44.8491V20.7106H44.8619V20.6977H44.8876V20.6849H44.9004V20.6721H44.9132V20.6592H44.9389V20.6464H44.9517V20.6336H44.9645V20.6208H44.9902V20.6079H45.003V20.5951H45.0158V20.5823H45.0415V20.5694H45.0543V20.5566H45.0672V20.5438H45.08V20.531H45.1056V20.5181H45.1185V20.5053H45.1313V20.4925H45.157V20.4796H45.1698V20.4668H45.1826V20.454H45.2083V20.4412H45.2211V20.4283H45.2339V20.4155H45.2596V20.4027H45.2724V20.3898H45.2852V20.377H45.2981V20.3642H45.3237V20.3514H45.3365V20.3385H45.3494V20.3257H45.375V20.3129H45.3879V20.3H45.4135V20.2872H45.4263V20.2744H45.4392V20.2616H45.4648V20.2487H45.4777V20.2359H45.5033V20.2231H45.5161V20.2102H45.529V20.1974H45.5546V20.1846H45.5675V20.1718H45.5931V20.1589H45.6059V20.1461H45.6188V20.1333H45.6444V20.1205H45.6573V20.1076H45.6829V20.0948H45.6957V20.082H45.7086V20.0691H45.7342V20.0563H45.7471V20.0435H45.7599V20.0307H45.7855V20.0178H45.7984V20.005H45.824V19.9922H45.8369V19.9793H45.8625V19.9665H45.8753V19.9537H45.901V19.9409H45.9138V19.928H45.9395V19.9152H45.9523V19.9024H45.978V19.8895H45.9908V19.8767H46.0036V19.8639H46.0293V19.8511H46.0421V19.8382H46.0678V19.8254H46.0806V19.8126H46.1062V19.7997H46.1191V19.7869H46.1447V19.7741H46.1576V19.7613H46.1832V19.7484H46.196V19.7356H46.2217V19.7228H46.2345V19.7099H46.2602V19.6971H46.273V19.6843H46.2987V19.6715H46.3115V19.6586H46.3372V19.6458H46.35V19.633H46.3756V19.6201H46.4013V19.6073H46.4141V19.5945H46.4398V19.5817H46.4526V19.5688H46.4783V19.556H46.4911V19.5432H46.5168V19.5303H46.5296V19.5175H46.5552V19.5047H46.5809V19.4919H46.5937V19.479H46.6194V19.4662H46.6322V19.4534H46.6579V19.4406H46.6707V19.4277H46.6964V19.4149H46.722V19.4021H46.7348V19.3892H46.7605V19.3764H46.7733V19.3636H46.799V19.3508H46.8246V19.3379H46.8375V19.3251H46.8631V19.3123H46.8888V19.2994H46.9016V19.2866H46.9273V19.2738H46.9529V19.261H46.9657V19.2481H46.9914V19.2353H47.0171V19.2225H47.0299V19.2096H47.0555V19.1968H47.0812V19.184H47.094V19.1712H47.1197V19.1583H47.1453V19.1455H47.1582V19.1327H47.1838V19.1198H47.2095V19.107H47.2223V19.0942H47.248V19.0814H47.2736V19.0685H47.2993V19.0557H47.3121V19.0429H47.3378V19.03H47.3634V19.0172H47.3891V19.0044H47.4019V18.9916H47.4276V18.9787H47.4532V18.9659H47.4789V18.9531H47.4917V18.9402H47.5174V18.9274H47.543V18.9146H47.5687V18.9018H47.5815V18.8889H47.6072V18.8761H47.6328V18.8633H47.6585V18.8504H47.6713V18.8376H47.697V18.8248H47.7226V18.812H47.7483V18.7991H47.7739V18.7863H47.7996V18.7735H47.8252V18.7606H47.8381V18.7478H47.8637V18.735H47.8894V18.7222H47.915V18.7093H47.9407V18.6965H47.9664V18.6837H47.992V18.6709H48.0048V18.658H48.0305V18.6452H48.0562V18.6324H48.0818V18.6195H48.1075V18.6067H48.1331V18.5939H48.1588V18.5811H48.1716V18.5682H48.1973V18.5554H48.2229V18.5426H48.2486V18.5297H48.2742V18.5169H48.2999V18.5041H48.3255V18.4913H48.3512V18.4784H48.3769V18.4656H48.4025V18.4528H48.4282V18.4399H48.4538V18.4271H48.4795V18.4143H48.5051V18.4015H48.5308V18.3886H48.5565V18.3758H48.5821V18.363H48.6078V18.3501H48.6334V18.3373H48.6591V18.3245H48.6847V18.3117H48.7104V18.2988H48.7361V18.286H48.7617V18.2732H48.8002V18.2603H48.8259V18.2475H48.8515V18.2347H48.8772V18.2219H48.9028V18.209H48.9285V18.1962H48.9541V18.1834H48.9798V18.1705H49.0054V18.1577H49.0311V18.1449H49.0568V18.1321H49.0952V18.1192H49.1209V18.1064H49.1466V18.0936H49.1722V18.0807H49.1979V18.0679H49.2364V18.0551H49.262V18.0423H49.2877V18.0294H49.3133V18.0166H49.339V18.0038H49.3775V17.9909H49.4031V17.9781H49.4288V17.9653H49.4544V17.9525H49.4801V17.9396H49.5186V17.9268H49.5442V17.914H49.5699V17.9012H49.5956V17.8883H49.634V17.8755H49.6597V17.8627H49.6982V17.8498H49.7238V17.837H49.7495V17.8242H49.788V17.8114H49.8136V17.7985H49.8393V17.7857H49.8778V17.7729H49.9034V17.76H49.9291V17.7472H49.9676V17.7344H49.9932V17.7216H50.0189V17.7087H50.0574V17.6959H50.083V17.6831H50.1215V17.6702H50.1472V17.6574H50.1857V17.6446H50.2113V17.6318H50.2498V17.6189H50.2755V17.6061H50.3139V17.5933H50.3396V17.5804H50.3781V17.5676H50.4037V17.5548H50.4422V17.542H50.4679V17.5291H50.5064V17.5163H50.532V17.5035H50.5705V17.4906H50.609V17.4778H50.6346V17.465H50.6731V17.4522H50.7116V17.4393H50.7373V17.4265H50.7758V17.4137H50.8142V17.4008H50.8399V17.388H50.8784V17.3752H50.9169V17.3624H50.9425V17.3495H50.981V17.3367H51.0195V17.3239H51.058V17.311H51.0836V17.2982H51.1221V17.2854H51.1606V17.2726H51.1991V17.2597H51.2376V17.2469H51.2632V17.2341H51.3017V17.2213H51.3402V17.2084H51.3787V17.1956H51.4172V17.1828H51.4557V17.1699H51.4941V17.1571H51.5326V17.1443H51.5711V17.1315H51.6096V17.1186H51.6481V17.1058H51.6866V17.093H51.7251V17.0801H51.7635V17.0673H51.802V17.0545H51.8405V17.0417H51.879V17.0288H51.9175V17.016H51.956V17.0032H52.0073V16.9903H52.0458V16.9775H52.0842V16.9647H52.1227V16.9519H52.1612V16.939H52.1997V16.9262H52.251V16.9134H52.2895V16.9005H52.328V16.8877H52.3793V16.8749H52.4178V16.8621H52.4691V16.8492H52.5076V16.8364H52.5461V16.8236H52.5974V16.8107H52.6359V16.7979H52.6872V16.7851H52.7257V16.7723H52.777V16.7594H52.8283V16.7466H52.8668V16.7338H52.9181V16.7209H52.9566V16.7081H53.0079V16.6953H53.0592V16.6825H53.1105V16.6696H53.149V16.6568H53.2003V16.644H53.2516V16.6311H53.3029V16.6183H53.3543V16.6055H53.4056V16.5927H53.4569V16.5798H53.5082V16.567H53.5595V16.5542H53.6108V16.5413H53.6621V16.5285H53.7134V16.5157H53.7776V16.5029H53.8289V16.49H53.8802V16.4772H53.9444V16.4644H53.9957V16.4516H54.0598V16.4387H54.1111V16.4259H54.1753V16.4131H54.2266V16.4002H54.2907V16.3874H54.3549V16.3746H54.419V16.3618H54.4831V16.3489H54.5345V16.3361H54.6114V16.3233H54.6756V16.3104H54.7397V16.2976H54.8039V16.2848H54.8808V16.272H54.945V16.2591H55.0219V16.2463H55.0989V16.2335H55.1759V16.2206H55.2528V16.2078H55.3298V16.195H55.4068V16.1822H55.4966V16.1693H55.5864V16.1565H55.6762V16.1437H55.766V16.1308H55.8558V16.118H55.9584V16.1052H56.061V16.0924H56.1893V16.0795H56.3048V16.0667H56.4459V16.0539H56.587V16.041H56.7666V16.0282H56.9975V16.0154H57.2156V16.0026H58.601V16.0154H58.8319V16.0282H59.0372V16.041H59.1527V16.0539H58.9859V16.041H58.2418V16.0539H57.9853V16.0667H57.7415V16.0795H57.5619V16.0924H57.4593V16.1052H57.3567V16.118H57.2541V16.1308H57.1514V16.1437H57.0488V16.1565H56.9462V16.1693H56.8564V16.1822H56.7922V16.195H56.7153V16.2078H56.6511V16.2206H56.587V16.2335H56.5228V16.2463H56.4587V16.2591H56.3946V16.272H56.3304V16.2848H56.2663V16.2976H56.2021V16.3104H56.138V16.3233H56.0867V16.3361H56.0354V16.3489H55.9969V16.3618H55.9456V16.3746H55.8943V16.3874H55.8429V16.4002H55.8045V16.4131H55.7531V16.4259H55.7018V16.4387H55.6505V16.4516H55.612V16.4644H55.5607V16.4772H55.5094V16.49H55.4709V16.5029H55.4196V16.5157H55.3811V16.5285H55.3426V16.5413H55.3042V16.5542H55.2657V16.567H55.2272V16.5798H55.1887V16.5927H55.1502V16.6055H55.1246V16.6183H55.0861V16.6311H55.0476V16.644H55.0091V16.6568H54.9706V16.6696H54.9321V16.6825H54.8937V16.6953H54.8552V16.7081H54.8167V16.7209H54.7782V16.7338H54.7397V16.7466H54.7141V16.7594H54.6756V16.7723H54.6499V16.7851H54.6114V16.7979H54.5858V16.8107H54.5601V16.8236H54.5216V16.8364H54.496V16.8492H54.4575V16.8621H54.4318V16.8749H54.4062V16.8877H54.3677V16.9005H54.342V16.9134H54.3035V16.9262H54.2779V16.939H54.2522V16.9519H54.2137V16.9647H54.1881V16.9775H54.1496V16.9903H54.124V17.0032H54.0855V17.016H54.0598V17.0288H54.0342V17.0417H54.0085V17.0545H53.9828V17.0673H53.9572V17.0801H53.9315V17.093H53.9059V17.1058H53.8802V17.1186H53.8546V17.1315H53.8161V17.1443H53.7904V17.1571H53.7648V17.1699H53.7391V17.1828H53.7134V17.1956H53.6878V17.2084H53.6621V17.2213H53.6365V17.2341H53.6108V17.2469H53.5852V17.2597H53.5595V17.2726H53.5338V17.2854H53.5082V17.2982H53.4825V17.311H53.4569V17.3239H53.4312V17.3367H53.4056V17.3495H53.3799V17.3624H53.3543V17.3752H53.3286V17.388H53.3158V17.4008H53.2901V17.4137H53.2645V17.4265H53.2388V17.4393H53.2131V17.4522H53.2003V17.465H53.1747V17.4778H53.149V17.4906H53.1233V17.5035H53.1105V17.5163H53.0849V17.5291H53.0592V17.542H53.0335V17.5548H53.0207V17.5676H52.9951V17.5804H52.9694V17.5933H52.9437V17.6061H52.9181V17.6189H52.9053V17.6318H52.8796V17.6446H52.8539V17.6574H52.8283V17.6702H52.8155V17.6831H52.7898V17.6959H52.7641V17.7087H52.7385V17.7216H52.7257V17.7344H52.7V17.7472H52.6872V17.76H52.6615V17.7729H52.6359V17.7857H52.623V17.7985H52.5974V17.8114H52.5846V17.8242H52.5589V17.837H52.5461V17.8498H52.5204V17.8627H52.5076V17.8755H52.4819V17.8883H52.4563V17.9012H52.4434V17.914H52.4178V17.9268H52.405V17.9396H52.3793V17.9525H52.3665V17.9653H52.3408V17.9781H52.328V17.9909H52.3023V18.0038H52.2767V18.0166H52.2638V18.0294H52.2382V18.0423H52.2254V18.0551H52.1997V18.0679H52.1869V18.0807H52.1612V18.0936H52.1484V18.1064H52.1227V18.1192H52.1099V18.1321H52.0842V18.1449H52.0714V18.1577H52.0458V18.1705H52.0329V18.1834H52.0201V18.1962H51.9944V18.209H51.9816V18.2219H51.956V18.2347H51.9431V18.2475H51.9303V18.2603H51.9047V18.2732H51.8918V18.286H51.879V18.2988H51.8533V18.3117H51.8405V18.3245H51.8149V18.3373H51.802V18.3501H51.7892V18.363H51.7635V18.3758H51.7507V18.3886H51.7251V18.4015H51.7122V18.4143H51.6994V18.4271H51.6737V18.4399H51.6609V18.4528H51.6481V18.4656H51.6224V18.4784H51.6096V18.4913H51.5839V18.5041H51.5711V18.5169H51.5583V18.5297H51.5326V18.5426H51.5198V18.5554H51.4941V18.5682H51.4813V18.5811H51.4685V18.5939H51.4557V18.6067H51.43V18.6195H51.4172V18.6324H51.4043V18.6452H51.3915V18.658H51.3659V18.6709H51.353V18.6837H51.3402V18.6965H51.3274V18.7093H51.3145V18.7222H51.2889V18.735H51.2761V18.7478H51.2632V18.7606H51.2504V18.7735H51.2248V18.7863H51.2119V18.7991H51.1991V18.812H51.1863V18.8248H51.1606V18.8376H51.1478V18.8504H51.135V18.8633H51.1221V18.8761H51.0965V18.8889H51.0836V18.9018H51.0708V18.9146H51.058V18.9274H51.0323V18.9402H51.0195V18.9531H51.0067V18.9659H50.9938V18.9787H50.9682V18.9916H50.9554V19.0044H50.9425V19.0172H50.9297V19.03H50.904V19.0429H50.8912V19.0557H50.8784V19.0685H50.8656V19.0814H50.8527V19.0942H50.8399V19.107H50.8271V19.1198H50.8142V19.1327H50.7886V19.1455H50.7758V19.1583H50.7629V19.1712H50.7501V19.184H50.7373V19.1968H50.7244V19.2096H50.7116V19.2225H50.6988V19.2353H50.6731V19.2481H50.6603V19.261H50.6475V19.2738H50.6346V19.2866H50.6218V19.2994H50.609V19.3123H50.5962V19.3251H50.5833V19.3379H50.5577V19.3508H50.5448V19.3636H50.532V19.3764H50.5192V19.3892H50.5064V19.4021H50.4935V19.4149H50.4807V19.4277H50.4679V19.4406H50.4422V19.4534H50.4294V19.4662H50.4166V19.479H50.4037V19.4919H50.3909V19.5047H50.3781V19.5175H50.3653V19.5303H50.3524V19.5432H50.3396V19.556H50.3268V19.5688H50.3011V19.5817H50.2883V19.5945H50.2755V19.6073H50.2626V19.6201H50.2498V19.633H50.237V19.6458H50.2241V19.6586H50.2113V19.6715H50.1985V19.6843H50.1857V19.6971H50.1728V19.7099H50.16V19.7228H50.1472V19.7356H50.1343V19.7484H50.1215V19.7613H50.1087V19.7741H50.0959V19.7869H50.083V19.7997H50.0702V19.8126H50.0574V19.8254H50.0445V19.8382H50.0317V19.8511H50.0189V19.8639H50.0061V19.8767H49.9932V19.8895H49.9804V19.9024H49.9676V19.9152H49.9547V19.928H49.9419V19.9409H49.9291V19.9537H49.9163V19.9665H49.9034V19.9793H49.8906V19.9922H49.8778V20.005H49.8649V20.0178H49.8521V20.0307H49.8393V20.0435H49.8265V20.0563H49.8136V20.0691H49.8008V20.082H49.788V20.0948H49.7752V20.1076H49.7623V20.1205H49.7495V20.1333H49.7367V20.1461H49.7238V20.1589H49.711V20.1718H49.6982V20.1846H49.6854V20.1974H49.6725V20.2102H49.6597V20.2231H49.6469V20.2359H49.634V20.2616H49.6212V20.2744H49.6084V20.2872H49.5956V20.3H49.5827V20.3129H49.5699V20.3257H49.5571V20.3385H49.5442V20.3514H49.5314V20.3642H49.5186V20.377H49.5058V20.3898H49.4929V20.4027H49.4801V20.4155H49.4673V20.4283H49.4544V20.454H49.4416V20.4668H49.4288V20.4796H49.416V20.4925H49.4031V20.5053H49.3903V20.5181H49.3775V20.531H49.3646V20.5438H49.3518V20.5566H49.339V20.5694H49.3262V20.5823H49.3133V20.5951H49.3005V20.6079H49.2877V20.6208H49.2748V20.6464H49.262V20.6592H49.2492V20.6721H49.2364V20.6849H49.2235V20.6977H49.2107V20.7106H49.1979V20.7362H49.185V20.749H49.1722V20.7619H49.1594V20.7747H49.1466V20.7875H49.1337V20.8004H49.1209V20.826H49.1081V20.8388H49.0952V20.8517H49.0824V20.8645H49.0696V20.8773H49.0568V20.8902H49.0439V20.9158H49.0311V20.9286H49.0183V20.9415H49.0054V20.9543H48.9926V20.9671H48.9798V20.9799H48.967V21.0056H48.9541V21.0184H48.9413V21.0313H48.9285V21.0441H48.9157V21.0569H48.9028V21.0697H48.89V21.0954H48.8772V21.1082H48.8643V21.1211H48.8515V21.1339H48.8387V21.1467H48.8259V21.1595H48.813V21.1852H48.8002V21.198H48.7874V21.2109H48.7745V21.2237H48.7617V21.2365H48.7489V21.2622H48.7361V21.275H48.7232V21.2878H48.7104V21.3135H48.6976V21.3263H48.6847V21.3391H48.6719V21.352H48.6591V21.3776H48.6463V21.3905H48.6334V21.4033H48.6206V21.4161H48.6078V21.4418H48.5949V21.4546H48.5821V21.4674H48.5693V21.4931H48.5565V21.5059H48.5436V21.5187H48.5308V21.5316H48.518V21.5572H48.5051V21.5701H48.4923V21.5829H48.4795V21.5957H48.4667V21.6214H48.4538V21.6342H48.441V21.647H48.4282V21.6727H48.4153V21.6855H48.4025V21.6983H48.3897V21.7112H48.3769V21.7368H48.364V21.7496H48.3512V21.7625H48.3384V21.7753H48.3255V21.801H48.3127V21.8138H48.2999V21.8266H48.2871V21.8523H48.2742V21.8651H48.2614V21.8779H48.2486V21.9036H48.2358V21.9164H48.2229V21.9421H48.2101V21.9549H48.1973V21.9677H48.1844V21.9934H48.1716V22.0062H48.1588V22.0319H48.146V22.0447H48.1331V22.0575H48.1203V22.0832H48.1075V22.096H48.0946V22.1088H48.0818V22.1345H48.069V22.1473H48.0562V22.173H48.0433V22.1858H48.0305V22.1986H48.0177V22.2243H48.0048V22.2371H47.992V22.2628H47.9792V22.2756H47.9664V22.2884H47.9535V22.3141H47.9407V22.3269H47.9279V22.3398H47.915V22.3654H47.9022V22.3782H47.8894V22.4039H47.8766V22.4167H47.8637V22.4295H47.8509V22.4552H47.8381V22.468H47.8252V22.4937H47.8124V22.5065H47.7996V22.5322H47.7868V22.545H47.7739V22.5707H47.7611V22.5835H47.7483V22.6091H47.7354V22.622H47.7226V22.6476H47.7098V22.6605H47.697V22.6861H47.6841V22.6989H47.6713V22.7246H47.6585V22.7374H47.6456V22.7631H47.6328V22.7759H47.62V22.8016H47.6072V22.8144H47.5943V22.8401H47.5815V22.8529H47.5687V22.8785H47.5558V22.8914H47.543V22.917H47.5302V22.9299H47.5174V22.9555H47.5045V22.9683H47.4917V22.994H47.4789V23.0068H47.4661V23.0325H47.4532V23.0453H47.4404V23.071H47.4276V23.0838H47.4147V23.1095H47.4019V23.1351H47.3891V23.1479H47.3763V23.1736H47.3634V23.1864H47.3506V23.2121H47.3378V23.2377H47.3249V23.2506H47.3121V23.2762H47.2993V23.3019H47.2865V23.3147H47.2736V23.3404H47.2608V23.366H47.248V23.3788H47.2351V23.4045H47.2223V23.4302H47.2095V23.443H47.1967V23.4686H47.1838V23.4815H47.171V23.5071H47.1582V23.5328H47.1453V23.5456H47.1325V23.5713H47.1197V23.5969H47.1069V23.6098H47.094V23.6354H47.0812V23.6611H47.0684V23.6739H47.0555V23.6996H47.0427V23.7252H47.0299V23.738H47.0171V23.7637H47.0042V23.7894H46.9914V23.8022H46.9786V23.8278H46.9657V23.8535H46.9529V23.8792H46.9401V23.892H46.9273V23.9176H46.9144V23.9433H46.9016V23.9689H46.8888V23.9946H46.8759V24.0074H46.8631V24.0331H46.8503V24.0587H46.8375V24.0844H46.8246V24.1101H46.8118V24.1229H46.799V24.1485H46.7861V24.1742H46.7733V24.1999H46.7605V24.2255H46.7477V24.2383H46.7348V24.264H46.722V24.2897H46.7092V24.3153H46.6964V24.3281H46.6835V24.3538H46.6707V24.3795H46.6579V24.4051H46.645V24.4308H46.6322V24.4436H46.6194V24.4693H46.6066V24.4949H46.5937V24.5206H46.5809V24.5462H46.5681V24.5719H46.5552V24.5975H46.5424V24.6232H46.5296V24.6489H46.5168V24.6745H46.5039V24.7002H46.4911V24.7258H46.4783V24.7515H46.4654V24.7771H46.4526V24.8028H46.4398V24.8284H46.427V24.8541H46.4141V24.8798H46.4013V24.9054H46.3885V24.9311H46.3756V24.9567H46.3628V24.9696H46.35V24.9952H46.3372V25.0209H46.3243V25.0465H46.3115V25.0722H46.2987V25.0978H46.2858V25.1235H46.273V25.1492H46.2602V25.1748H46.2474V25.2005H46.2345V25.2261H46.2217V25.2646H46.2089V25.2903H46.196V25.3159H46.1832V25.3416H46.1704V25.3672H46.1576V25.3929H46.1447V25.4314H46.1319V25.457H46.1191V25.4827H46.1062V25.5083H46.0934V25.534H46.0806V25.5597H46.0678V25.5981H46.0549V25.6238H46.0421V25.6495H46.0293V25.6751H46.0165V25.7008H46.0036V25.7264H45.9908V25.7521H45.978V25.7906H45.9651V25.8162H45.9523V25.8419H45.9395V25.8675H45.9267V25.8932H45.9138V25.9317H45.901V25.9573H45.8882V25.983H45.8753V26.0215H45.8625V26.0471H45.8497V26.0856H45.8369V26.1113H45.824V26.1369H45.8112V26.1754H45.7984V26.2011H45.7855V26.2396H45.7727V26.2652H45.7599V26.2909H45.7471V26.3294H45.7342V26.355H45.7214V26.3807H45.7086V26.4192H45.6957V26.4448H45.6829V26.4833H45.6701V26.509H45.6573V26.5346H45.6444V26.5731H45.6316V26.5988H45.6188V26.6372H45.6059V26.6629H45.5931V26.7014H45.5803V26.7399H45.5675V26.7655H45.5546V26.804H45.5418V26.8425H45.529V26.8682H45.5161V26.9066H45.5033V26.9451H45.4905V26.9708H45.4777V27.0093H45.4648V27.0477H45.452V27.0734H45.4392V27.1119H45.4263V27.1504H45.4135V27.176H45.4007V27.2145H45.3879V27.253H45.375V27.2787H45.3622V27.3171H45.3494V27.3556H45.3365V27.3941H45.3237V27.4326H45.3109V27.4711H45.2981V27.5096H45.2852V27.5481H45.2724V27.5865H45.2596V27.625H45.2468V27.6635H45.2339V27.702H45.2211V27.7405H45.2083V27.779H45.1954V27.8174H45.1826V27.8559H45.1698V27.8944H45.157V27.9329H45.1441V27.9714H45.1313V28.0099H45.1185V28.0484H45.1056V28.0868H45.0928V28.1253H45.08V28.1766H45.0672V28.2151H45.0543V28.2536H45.0415V28.3049H45.0287V28.3434H45.0158V28.3947H45.003V28.4332H44.9902V28.4717H44.9774V28.523H44.9645V28.5615H44.9517V28.6128H44.9389V28.6513H44.926V28.7026H44.9132V28.7411H44.9004V28.7796H44.8876V28.8309H44.8747V28.8822H44.8619V28.9335H44.8491V28.9848H44.8362V29.0361H44.8234V29.0875H44.8106V29.1388H44.7978V29.1901H44.7849V29.2414H44.7721V29.2927H44.7593V29.344H44.7464V29.3953H44.7336V29.4466H44.7208V29.498H44.708V29.5493H44.6951V29.6134H44.6823V29.6776H44.6695V29.7417H44.6566V29.793H44.6438V29.8572H44.631V29.9213H44.6182V29.9854H44.6053V30.0367H44.5925V30.1009H44.5797V30.165H44.5669V30.2292H44.554V30.2933H44.5412V30.3703H44.5284V30.4473H44.5155V30.5242H44.5027V30.6012H44.4899V30.6782H44.4771V30.7551H44.4642V30.8321H44.4514V30.9091H44.4386V30.986H44.4257V31.0887H44.4129V31.1913H44.4001V31.2939H44.3873V31.3965H44.3744V31.4992H44.3616V31.6018H44.3488V31.7301H44.3359V31.8712H44.3231V32.0123H44.3103V32.1662H44.2975V32.3587H44.2846V32.4998H44.2718V32.6281H44.259V32.7692H44.2461V32.9103H44.2333V33.0642H44.2205V33.2182H44.2077V33.4106H44.1948V33.603H44.182V33.7954H44.1692V34.0264H44.1563V34.3342H44.1435V34.6421H44.1307V35.2579H44.1179V37.413H44.105V38.9909H44.0922V41.6977H44.105V42.7624H44.1179V43.4423H44.1307V43.9683H44.1435V44.4173H44.1563V44.8021H44.1692V45.1485H44.182V45.4692H44.1948V45.7514H44.2077V46.0208H44.2205V46.2774H44.2333V46.5211H44.2461V46.7521H44.259V46.9701H44.2718V47.1754H44.2846V47.3806H44.2975V47.5602H44.3103V47.7398H44.3231V47.9194H44.3359V48.0862H44.3488V48.253H44.3616V48.4197H44.3744V48.5737H44.3873V48.7148H44.4001V48.8687H44.4129V49.0098H44.4257V49.151H44.4386V49.2792H44.4514V49.4203H44.4642V49.5486H44.4771V49.6769H44.4899V49.7924H44.5027V49.9207H44.5155V50.0361H44.5284V50.1516H44.5412V50.267H44.554V50.3825H44.5669V50.4851H44.5797V50.5877H44.5925V50.7032H44.6053V50.8058H44.6182V50.9084H44.631V51.0111H44.6438V51.1009H44.6566V51.2035H44.6695V51.2933H44.6823V51.3959H44.6951V51.4857H44.708V51.5755H44.7208V51.6653H44.7336V51.7551H44.7464V51.8449H44.7593V51.9219H44.7721V52.0117H44.7849V52.0886H44.7978V52.1784H44.8106V52.2554H44.8234V52.3324H44.8362V52.4222H44.8491V52.4991H44.8619V52.5633H44.8747V52.6403H44.8876V52.7172H44.9004V52.7942H44.9132V52.8712H44.926V52.9481H44.9389V53.0123H44.9517V53.0892H44.9645V53.1534H44.9774V53.2304H44.9902V53.2945H45.003V53.3586H45.0158V53.4228H45.0287V53.4998H45.0415V53.5639H45.0543V53.628H45.0672V53.6922H45.08V53.7563H45.0928V53.8205H45.1056V53.8846H45.1185V53.9359H45.1313V54.0001H45.1441V54.0642H45.157V54.1155H45.1698V54.1797H45.1826V54.2438H45.1954V54.2951H45.2083V54.3592H45.2211V54.4106H45.2339V54.4619H45.2468V54.526H45.2596V54.5773H45.2724V54.6415H45.2852V54.6928H45.2981V54.7441H45.3109V54.7954H45.3237V54.8467H45.3365V54.898H45.3494V54.9494H45.3622V55.0007H45.375V55.052H45.3879V55.1161H45.4007V55.1674H45.4135V55.2059H45.4263V55.2572H45.4392V55.3085H45.452V55.3599H45.4648V55.3983H45.4777V55.4497H45.4905V55.501H45.5033V55.5523H45.5161V55.5908H45.529V55.6421H45.5418V55.6934H45.5546V55.7319H45.5675V55.7832H45.5803V55.8217H45.5931V55.8602H45.6059V55.9115H45.6188V55.95H45.6316V56.0013H45.6444V56.0398H45.6573V56.0911H45.6701V56.1296H45.6829V56.168H45.6957V56.2065H45.7086V56.2578H45.7214V56.2963H45.7342V56.3348H45.7471V56.3733H45.7599V56.4118H45.7727V56.4631H45.7855V56.5016H45.7984V56.5401H45.8112V56.5786H45.824V56.617H45.8369V56.6555H45.8497V56.694H45.8625V56.7325H45.8753V56.771H45.8882V56.8095H45.901V56.8479H45.9138V56.8864H45.9267V56.9121H45.9395V56.9506H45.9523V56.9891H45.9651V57.0275H45.978V57.066H45.9908V57.0917H46.0036V57.1302H46.0165V57.1687H46.0293V57.2071H46.0421V57.2328H46.0549V57.2713H46.0678V57.3098H46.0806V57.3354H46.0934V57.3739H46.1062V57.4124H46.1191V57.438H46.1319V57.4765H46.1447V57.5022H46.1576V57.5407H46.1704V57.5663H46.1832V57.6048H46.196V57.6305H46.2089V57.669H46.2217V57.6946H46.2345V57.7331H46.2474V57.7588H46.2602V57.7972H46.273V57.8229H46.2858V57.8486H46.2987V57.887H46.3115V57.9127H46.3243V57.9384H46.3372V57.9768H46.35V58.0025H46.3628V58.041H46.3756V58.0666H46.3885V58.0923H46.4013V58.118H46.4141V58.1436H46.427V58.1821H46.4398V58.2077H46.4526V58.2334H46.4654V58.2591H46.4783V58.2847H46.4911V58.3232H46.5039V58.3489H46.5168V58.3745H46.5296V58.4002H46.5424V58.4258H46.5552V58.4515H46.5681V58.4771H46.5809V58.5028H46.5937V58.5285H46.6066V58.5541H46.6194V58.5798H46.6322V58.6054H46.645V58.6311H46.6579V58.6567H46.6707V58.6952H46.6835V58.7209H46.6964V58.7465H46.7092V58.7722H46.722V58.785H46.7348V58.8107H46.7477V58.8363H46.7605V58.862H46.7733V58.8876H46.7861V58.9133H46.799V58.939H46.8118V58.9518H46.8246V58.9774H46.8375V59.0031H46.8503V59.0288H46.8631V59.0544H46.8759V59.0801H46.8888V59.1057H46.9016V59.1186H46.9144V59.1442H46.9273V59.1699H46.9401V59.1955H46.9529V59.2084H46.9657V59.234H46.9786V59.2597H46.9914V59.2725H47.0042V59.2982H47.0171V59.3238H47.0299V59.3495H47.0427V59.3623H47.0555V59.388H47.0684V59.4136H47.0812V59.4264H47.094V59.4521H47.1069V59.4778H47.1197V59.4906H47.1325V59.5162H47.1453V59.5291H47.1582V59.5547H47.171V59.5676H47.1838V59.5932H47.1967V59.6189H47.2095V59.6317H47.2223V59.6573H47.2351V59.6702H47.248V59.6958H47.2608V59.7087H47.2736V59.7343H47.2865V59.7471H47.2993V59.7728H47.3121V59.7856H47.3249V59.8113H47.3378V59.8241H47.3506V59.8498H47.3634V59.8626H47.3763V59.8754H47.3891V59.9011H47.4019V59.9139H47.4147V59.9396H47.4276V59.9524H47.4404V59.9781H47.4532V59.9909H47.4661V60.0037H47.4789V60.0294H47.4917V60.0422H47.5045V60.0679H47.5174V60.0807H47.5302V60.0935H47.543V60.1192H47.5558V60.132H47.5687V60.1448H47.5815V60.1577H47.5943V60.1833H47.6072V60.1961H47.62V60.209H47.6328V60.2346H47.6456V60.2475H47.6585V60.2603H47.6713V60.2859H47.6841V60.2988H47.697V60.3116H47.7098V60.3244H47.7226V60.3501H47.7354V60.3629H47.7483V60.3757H47.7611V60.3886H47.7739V60.4014H47.7868V60.427H47.7996V60.4399H47.8124V60.4527H47.8252V60.4655H47.8381V60.4784H47.8509V60.4912H47.8637V60.5168H47.8766V60.5297H47.8894V60.5425H47.9022V60.5553H47.915V60.5682H47.9279V60.5938H47.9407V60.6066H47.9535V60.6195H47.9664V60.6323H47.9792V60.6451H47.992V60.658H48.0048V60.6708H48.0177V60.6836H48.0305V60.6964H48.0433V60.7093H48.0562V60.7221H48.069V60.7349H48.0818V60.7478H48.0946V60.7606H48.1075V60.7862H48.1203V60.7991H48.1331V60.8119H48.146V60.8247H48.1588V60.8376H48.1716V60.8504H48.1844V60.8632H48.1973V60.876H48.2101V60.8889H48.2229V60.9017H48.2358V60.9145H48.2486V60.9274H48.2614V60.9402H48.2871V60.953H48.2999V60.9658H48.3127V60.9787H48.3255V60.9915H48.3384V61.0043H48.3512V61.0172H48.364V61.03H48.3769V61.0428H48.3897V61.0556H48.4025V61.0685H48.4153V61.0813H48.4282V61.0941H48.441V61.1069H48.4667V61.1198H48.4795V61.1326H48.4923V61.1454H48.5051V61.1583H48.518V61.1711H48.5308V61.1839H48.5565V61.1967H48.5693V61.2096H48.5821V61.2224H48.5949V61.2352H48.6078V61.2481H48.6206V61.2609H48.6463V61.2737H48.6591V61.2865H48.6719V61.2994H48.6847V61.3122H48.7104V61.325H48.7232V61.3379H48.7361V61.3507H48.7617V61.3635H48.7745V61.3763H48.7874V61.3892H48.813V61.402H48.8259V61.4148H48.8387V61.4277H48.8643V61.4405H48.8772V61.4533H48.89V61.4661H48.9157V61.479H48.9285V61.4918H48.9413V61.5046H48.967V61.5175H48.9798V61.5303H49.0054V61.5431H49.0183V61.5559H49.0439V61.5688H49.0696V61.5816H49.0824V61.5944H49.1081V61.6073H49.1209V61.6201H49.1466V61.6329H49.1594V61.6457H49.185V61.6586H49.1979V61.6714H49.2235V61.6842H49.2492V61.6971H49.262V61.7099H49.2877V61.7227H49.3133V61.7355H49.3262V61.7484H49.3518V61.7612H49.3775V61.774H49.4031V61.7868H49.416V61.7997H49.4416V61.8125H49.4673V61.8253H49.4929V61.8382H49.5186V61.851H49.5314V61.8638H49.5571V61.8766H49.5699V61.8895H49.5827V61.9151H49.5956V61.928H49.6084V61.9536H49.6212V61.9664H49.634V62.0049H49.6469V62.1204H49.634V62.1717H49.6212V62.1974H49.6084V62.2102H49.5956V62.2358H49.5827V62.2487H49.5699V62.2615H49.5571V62.2743H49.5314V62.2872H49.5186V62.3H49.4929V62.3128H49.4544V62.3256" fill="url(#paint1_linear_505_169)"/>
<path d="M71.5113 42.6226C66.5075 38.1135 63.567 36.7919 63.3848 34.1241C63.2466 32.1494 64.7599 31.0137 66.4896 28.4408C69.5472 23.8972 67.7258 18.9803 62.9664 16.9548C67.7946 19.263 62.3841 25.9182 62.3841 25.9182C62.4072 25.8824 62.4232 25.8457 62.4518 25.8152C60.7104 28.2977 56.7245 31.6726 57.5274 35.1073C58.8257 40.7367 67.3161 38.0987 73.241 44.439C72.4803 43.5265 71.8659 42.9411 71.5113 42.6226Z" fill="black"/>
<path d="M71.5113 42.6226C66.5075 38.1135 63.567 36.7919 63.3848 34.1241C63.2466 32.1494 64.7599 31.0137 66.4896 28.4408C69.5472 23.8972 67.7258 18.9803 62.9664 16.9548C67.7946 19.263 62.3841 25.9182 62.3841 25.9182C62.4072 25.8824 62.4232 25.8457 62.4518 25.8152C60.7104 28.2977 56.7245 31.6726 57.5274 35.1073C58.8257 40.7367 67.3161 38.0987 73.241 44.439C72.4803 43.5265 71.8659 42.9411 71.5113 42.6226Z" fill="url(#paint2_linear_505_169)"/>
<path d="M73.1208 44.3187C67.2019 38.1346 58.8187 40.6976 57.5274 35.1073C57.4766 34.9057 57.448 34.7036 57.4349 34.5004C57.5342 39.3484 60.6737 41.1991 65.6396 44.9399C70.9992 48.9802 71.8219 61.491 52.3018 62.3292C52.1841 62.3323 52.0284 62.3522 51.8646 62.3596C51.5981 62.3763 51.5225 62.7943 51.8604 62.8805C56.9856 64.1457 67.2694 64.7687 72.8269 59.5239C76.879 55.6881 77.3301 49.4098 73.1208 44.3187Z" fill="black"/>
<path d="M73.1208 44.3187C67.2019 38.1346 58.8187 40.6976 57.5274 35.1073C57.4766 34.9057 57.448 34.7036 57.4349 34.5004C57.5342 39.3484 60.6737 41.1991 65.6396 44.9399C70.9992 48.9802 71.8219 61.491 52.3018 62.3292C52.1841 62.3323 52.0284 62.3522 51.8646 62.3596C51.5981 62.3763 51.5225 62.7943 51.8604 62.8805C56.9856 64.1457 67.2694 64.7687 72.8269 59.5239C76.879 55.6881 77.3301 49.4098 73.1208 44.3187Z" fill="url(#paint3_radial_505_169)"/>
<path d="M27.5263 92.8374C29.7308 92.8387 31.0719 91.9746 31.0688 90.3205L31.0701 90.2708C31.0701 88.7198 29.8357 87.8041 27.2951 87.8061H22.1798V92.8413L27.5263 92.8374ZM26.5821 85.0749C28.6577 85.0749 30.0446 84.2653 30.0464 82.5834L30.0476 82.5332C30.0476 81.0905 28.8883 80.1947 26.8202 80.1972H22.1773L22.1798 85.0731L26.5821 85.0749ZM19.0049 78.9671C19.0032 78.0509 19.7092 77.3379 20.6279 77.3379L27.2381 77.3391C29.3403 77.3391 30.9925 77.9137 32.0414 78.9641C32.8536 79.7805 33.2728 80.7774 33.2728 82.0093V82.0614C33.2709 84.2627 32.0136 85.4433 30.6479 86.1524C32.8003 86.8878 34.2932 88.1203 34.2932 90.6125V90.6646C34.2932 93.9424 31.5951 95.6974 27.5009 95.6956H20.6279C19.7092 95.6974 19.0032 94.9895 19 94.075L19.0049 78.9671Z" fill="#2B2D72"/>
<path d="M36.3613 83.7711C36.3613 82.9386 37.016 82.2307 37.8728 82.233C38.7048 82.2317 39.4141 82.9151 39.4141 83.773V94.3137C39.4141 95.1648 38.732 95.825 37.8721 95.825C37.0396 95.825 36.3613 95.1648 36.3613 94.3155V83.7711ZM36.132 78.8059C36.132 77.8953 36.892 77.3143 37.8721 77.3143C38.8598 77.3143 39.6155 77.8953 39.6155 78.8009L39.6161 78.9578C39.6155 79.8593 38.8561 80.4662 37.8728 80.4662C36.892 80.4668 36.1307 79.863 36.132 78.9547V78.8059Z" fill="#2B2D72"/>
<path d="M41.4543 94.4643V94.4127C41.455 93.8295 41.6564 93.4538 42.1369 92.9529L49.2243 84.8815L42.9193 84.8796C42.2385 84.8796 41.6787 84.3279 41.6806 83.6472C41.6787 82.9386 42.2374 82.3844 42.9174 82.3844H51.7221C52.5522 82.3844 53.1827 82.8884 53.1827 83.5939L53.1834 83.6671C53.1815 84.2492 52.9807 84.6298 52.5257 85.1339L45.4139 93.2007H51.9715C52.6774 93.2007 53.2342 93.7569 53.2342 94.463C53.2342 95.1488 52.6794 95.6956 51.9715 95.6956L42.9441 95.6986C42.0848 95.6956 41.455 95.1916 41.4543 94.4643Z" fill="#2B2D72"/>
<path d="M54.9973 83.7693C54.9973 82.9386 55.6527 82.2317 56.5113 82.2317C57.3451 82.233 58.0494 82.9151 58.0526 83.773L58.0494 84.4526C58.9049 83.1896 60.1425 82.1097 62.2126 82.1079C65.2119 82.1041 66.9515 84.1221 66.9515 87.2275V94.3155C66.9515 95.1686 66.2701 95.825 65.4401 95.8258C64.5825 95.8258 63.9013 95.1686 63.9013 94.3137V88.1333C63.9013 86.0626 62.8641 84.8796 61.0495 84.8815C59.2856 84.8827 58.0526 86.1153 58.0526 88.1834L58.0494 94.3137C58.0526 95.1666 57.37 95.825 56.5126 95.8258C55.6775 95.825 54.9973 95.1686 54.9986 94.3155L54.9973 83.7693Z" fill="#2B2D72"/>
<path d="M78.5033 88.1103C78.2993 86.1432 77.1363 84.6032 75.1244 84.605C73.2547 84.605 71.9434 86.0391 71.6682 88.1072L78.5033 88.1103ZM68.6422 89.091V89.0446C68.6422 85.2311 71.3408 82.1023 75.1474 82.106C79.3811 82.106 81.4771 85.5877 81.4771 88.664C81.4771 89.5189 80.82 90.1283 80.0364 90.1271H71.6898C72.0197 92.2926 73.5578 93.5077 75.5269 93.5083C76.8107 93.5083 77.8206 93.0774 78.6767 92.3465C78.8287 92.2213 79.1076 92.0688 79.4573 92.0688C80.1374 92.0668 80.67 92.6236 80.67 93.3018C80.67 93.6838 80.4945 94.0123 80.2658 94.2107C79.0581 95.2981 77.5428 95.9993 75.4735 96C71.6154 96 68.6402 93.2007 68.6422 89.091Z" fill="#2B2D72"/>
<path d="M83.9719 92.0173V85.0087H83.4722C82.7377 85.0055 82.1585 84.4259 82.1615 83.6967C82.1585 82.9646 82.7377 82.3844 83.4691 82.3825L83.9737 82.3844L83.9719 80.1129C83.9737 79.2833 84.6575 78.6038 85.4852 78.6038C86.3425 78.5995 87.024 79.2833 87.0271 80.1153V82.3825L89.422 82.3844C90.1528 82.3825 90.7344 82.9646 90.7332 83.6951C90.7344 84.4259 90.1535 85.0087 89.4201 85.0068L87.0271 85.0055V91.5399C87.024 92.7235 87.6315 93.2015 88.665 93.2015C89.0178 93.2015 89.319 93.1277 89.422 93.1277C90.1044 93.1277 90.7096 93.6838 90.7076 94.3868C90.7076 94.9447 90.3296 95.3962 89.9006 95.5727C89.2439 95.7991 88.6141 95.9243 87.8051 95.9243C85.5614 95.9243 83.975 94.9447 83.9719 92.0173Z" fill="#2B2D72"/>
<path d="M92.0152 78.4866L92.0172 78.4792C92.0172 77.8084 91.4944 77.2678 90.8076 77.2678C90.1175 77.2678 89.5925 77.8165 89.5925 78.4866V78.4948C89.5925 79.1668 90.1114 79.7074 90.7977 79.7085C91.4939 79.7085 92.0172 79.1592 92.0152 78.4866ZM89.373 78.4972L89.3761 78.4897C89.3749 77.7104 90.0035 77.0588 90.8076 77.0614C91.6105 77.0588 92.2354 77.7018 92.2354 78.4811L92.2323 78.4866C92.2323 79.266 91.6029 79.9169 90.8001 79.9194C89.9991 79.9169 89.373 79.2747 89.373 78.4972Z" fill="#2B2D72"/>
<path d="M90.8851 78.429C91.0698 78.4308 91.1807 78.3385 91.1807 78.1958V78.1898C91.182 78.0371 91.068 77.9541 90.8826 77.9522L90.513 77.9541V78.4308L90.8851 78.429ZM90.2266 77.843C90.2285 77.7607 90.2924 77.6981 90.3717 77.695L90.8956 77.6981C91.0897 77.6981 91.2446 77.7552 91.3512 77.8592C91.4294 77.9375 91.4721 78.0415 91.4704 78.1723V78.1798C91.4721 78.4098 91.3414 78.558 91.135 78.6298L91.4244 78.9795C91.451 79.0086 91.4641 79.0408 91.4641 79.0812C91.4654 79.155 91.4015 79.2195 91.3315 79.2189C91.2689 79.2189 91.2416 79.1977 91.2068 79.155L90.8323 78.6765C90.828 78.6801 90.8237 78.6775 90.8181 78.6775H90.513V79.078C90.5106 79.155 90.4443 79.2195 90.37 79.2189C90.2924 79.2164 90.2266 79.1524 90.2266 79.078V77.843Z" fill="#2B2D72"/>
</g>
<rect x="1" y="1" width="110" height="110" rx="9" stroke="black" stroke-opacity="0.1" stroke-width="2"/>
<defs>
<linearGradient id="paint0_linear_505_169" x1="19" y1="55.9996" x2="92.2354" y2="55.9996" gradientUnits="userSpaceOnUse">
<stop stop-color="#4CB0E7"/>
<stop offset="0.0901456" stop-color="#4CB0E7"/>
<stop offset="1" stop-color="#2F439A"/>
</linearGradient>
<linearGradient id="paint1_linear_505_169" x1="94.8096" y1="24.437" x2="77.5032" y2="96.903" gradientUnits="userSpaceOnUse">
<stop stop-color="#83D2EF"/>
<stop offset="0.378296" stop-color="#4CB0E7"/>
<stop offset="1" stop-color="#2F439A"/>
</linearGradient>
<linearGradient id="paint2_linear_505_169" x1="55.6176" y1="97.2173" x2="55.6176" y2="10.5292" gradientUnits="userSpaceOnUse">
<stop stop-color="#4CB0E7"/>
<stop offset="0.712223" stop-color="#2A4FA5"/>
<stop offset="1" stop-color="#2F439A"/>
</linearGradient>
<radialGradient id="paint3_radial_505_169" cx="0" cy="0" r="1" gradientUnits="userSpaceOnUse" gradientTransform="translate(23.8717 19.1779) scale(85.7962 98.0311)">
<stop stop-color="#83D2EF"/>
<stop offset="0.365446" stop-color="#4CB0E7"/>
<stop offset="0.931088" stop-color="#3068B9"/>
<stop offset="0.999291" stop-color="#3068B9"/>
<stop offset="1" stop-color="#3068B9"/>
</radialGradient>
<clipPath id="clip0_505_169">
<rect x="2" y="2" width="108" height="108" rx="8" fill="white"/>
</clipPath>
</defs>
</svg>
