<svg width="112" height="112" viewBox="0 0 112 112" fill="none" xmlns="http://www.w3.org/2000/svg">
<g clip-path="url(#clip0_764_967)">
<rect x="1.99988" y="2" width="108" height="108" rx="8" fill="white"/>
<path fill-rule="evenodd" clip-rule="evenodd" d="M55.4545 66.0145C54.1066 66.0145 52.8416 65.7615 51.6636 65.2556C50.4856 64.7496 49.446 64.0499 48.5764 63.1763C47.7067 62.3066 47.0031 61.267 46.4971 60.089C45.9911 58.9111 45.7381 57.6461 45.7381 56.2981C45.7381 54.9502 45.9911 53.6852 46.4971 52.5073C47.0031 51.3293 47.7028 50.2896 48.5764 49.3884C49.446 48.5187 50.4856 47.8151 51.6636 47.2814C52.8416 46.7755 54.1342 46.4948 55.4545 46.4948C56.3795 46.4948 57.2531 46.6055 58.0951 46.8585C58.9094 47.0838 59.696 47.4198 60.455 47.8704L61.0993 48.2341L60.708 48.8508C60.5104 49.1591 60.3167 49.4398 60.119 49.7204C59.9214 50.0011 59.7277 50.2541 59.5577 50.5347L59.194 51.0961L58.605 50.7601C58.1267 50.4794 57.6207 50.2817 57.1187 50.1157C56.6127 49.9734 56.0791 49.8904 55.4901 49.8904C54.6481 49.8904 53.8338 50.0604 53.0748 50.3964C52.3159 50.7324 51.6715 51.183 51.1102 51.772C50.5489 52.361 50.0983 53.037 49.7623 53.8236C49.4263 54.5826 49.2839 55.4245 49.2839 56.2665C49.2839 57.1085 49.4539 57.9505 49.7623 58.7095C50.0983 59.4684 50.5489 60.1404 51.1102 60.7294C51.6715 61.2907 52.3475 61.7414 53.1025 62.0774C53.8338 62.4134 54.6481 62.5834 55.5178 62.5834C56.6404 62.5834 57.68 62.3027 58.605 61.7414L59.1663 61.4054L61.1033 64.2713L60.4313 64.6626C59.7 65.0856 58.945 65.4216 58.1307 65.6469C57.261 65.8999 56.3597 66.0106 55.4624 66.0106L55.4545 66.0145Z" fill="#39393B"/>
<path fill-rule="evenodd" clip-rule="evenodd" d="M63.9613 65.8169V46.6925H69.2978C70.1674 46.6925 70.9817 46.7755 71.7407 46.9731C72.4997 47.1708 73.1717 47.4791 73.733 47.8704C74.2943 48.2934 74.745 48.8547 75.081 49.5267C75.3893 50.1711 75.5593 50.9577 75.5593 51.8274C75.5593 53.0053 75.2786 54.045 74.7173 54.9739C74.4366 55.4245 74.073 55.8159 73.65 56.1242C74.1283 56.4049 74.575 56.7409 74.9426 57.1362C75.334 57.5591 75.6462 58.0612 75.8676 58.6225C76.0929 59.1838 76.2313 59.8281 76.2313 60.5318C76.2313 61.4014 76.0336 62.1881 75.67 62.864C75.3063 63.5083 74.8003 64.0697 74.1836 64.5203C73.5947 64.9433 72.891 65.2793 72.1321 65.4769C71.3731 65.6746 70.6141 65.7853 69.8275 65.7853H63.9573V65.8129L63.9613 65.8169ZM69.5784 62.3897C70.0291 62.3897 70.4758 62.3343 70.8711 62.2474C71.2347 62.1643 71.5747 61.9944 71.8277 61.8244C72.0807 61.6267 72.2783 61.433 72.4443 61.1524C72.5866 60.8994 72.642 60.6187 72.642 60.2551C72.642 59.8637 72.559 59.5238 72.389 59.2708C72.219 58.9624 71.966 58.7371 71.6854 58.5395C71.377 58.3418 71.0134 58.2035 70.5904 58.0888C70.1398 57.9782 69.6654 57.9189 69.2148 57.9189H67.4755V62.4134H69.5824V62.3857L69.5784 62.3897ZM69.5231 54.4719C70.3374 54.4719 70.9541 54.2742 71.4047 53.8275C71.8553 53.4046 72.049 52.8433 72.049 52.1436C72.049 51.3846 71.8514 50.8786 71.4601 50.598C70.9817 50.262 70.3097 50.092 69.4954 50.092H67.5308V54.4442H69.5231V54.4719Z" fill="#39393B"/>
<path fill-rule="evenodd" clip-rule="evenodd" d="M94.7667 66.4059C92.6044 64.1052 90.4422 61.8007 88.3076 59.5277C86.4536 57.5354 84.572 55.5392 82.6627 53.5469V65.8169H79.1525V44.7832L80.3898 46.1311C82.5521 48.4911 84.7143 50.8193 86.8489 53.1516C88.7029 55.1716 90.5845 57.1955 92.4937 59.2747V46.6964H96.004V67.6985L94.7667 66.4059Z" fill="#39393B"/>
<path fill-rule="evenodd" clip-rule="evenodd" d="M39.7573 59.8914C39.0537 59.8914 38.437 60.089 37.931 60.5081L37.7887 60.6187L34.8398 63.5676C33.1559 64.9156 30.7406 64.8049 29.1673 63.2593C27.8194 61.9114 27.5664 59.8598 28.4084 58.2628L32.0886 54.5272C33.1282 53.3769 33.7449 51.859 33.7449 50.2027C33.7449 46.6371 30.8513 43.7435 27.2857 43.7435C25.7401 43.7435 24.3368 44.2772 23.2142 45.1745L22.9335 45.3998C20.3206 47.8704 18.6366 51.2977 18.6366 55.1716C18.6366 62.698 24.7282 68.7618 32.2269 68.7618C36.2155 68.7618 39.781 67.0779 42.2516 64.3543L42.2793 64.2989C42.5323 63.876 42.643 63.3739 42.643 62.8126C42.6983 61.2117 41.378 59.8914 39.7494 59.8914H39.7573Z" fill="#0065B2"/>
<path fill-rule="evenodd" clip-rule="evenodd" d="M34.7094 63.6744C33.0333 64.9116 30.7011 64.7654 29.1713 63.2633C27.8233 61.9153 27.5703 59.8637 28.4123 58.2667C26.1828 60.0693 24.4752 62.5992 26.9576 65.2279C28.5388 66.9039 31.2071 66.983 32.8831 65.3979L34.7094 63.6744Z" fill="#004070"/>
<path fill-rule="evenodd" clip-rule="evenodd" d="M21.9255 41.9489C21.9255 43.5775 20.6052 44.8978 18.9766 44.8978C17.3203 44.9255 16 43.6052 16 41.9489C16 40.2926 17.3203 39 18.9489 39C20.5775 39 21.9255 40.3203 21.9255 41.9489Z" fill="#0065B2"/>
<path fill-rule="evenodd" clip-rule="evenodd" d="M35.9071 72.0784C36.5238 72.189 34.8952 72.7227 32.2585 72.695C29.618 72.695 27.9893 72.1337 28.6376 71.9637C29.282 71.7937 30.8829 71.9084 32.2862 71.9637C33.6895 72.0191 35.2905 71.9361 35.9071 72.0744V72.0784Z" fill="#CCCCCC"/>
</g>
<rect x="1" y="1" width="110" height="110" rx="9" stroke="black" stroke-opacity="0.1" stroke-width="2"/>
<defs>
<clipPath id="clip0_764_967">
<rect x="2" y="2" width="108" height="108" rx="8" fill="white"/>
</clipPath>
</defs>
</svg>
