<svg width="112" height="112" viewBox="0 0 112 112" fill="none" xmlns="http://www.w3.org/2000/svg">
<g clip-path="url(#clip0_505_165)">
<rect x="1.99988" y="2" width="108" height="108" rx="8" fill="white"/>
<path d="M50.7744 66.7956L50.135 64.3886V66.9963C50.135 67.1413 50.0978 67.2491 50.0309 67.3216C49.9621 67.3923 49.871 67.4294 49.7614 67.4294C49.6517 67.4294 49.5625 67.3923 49.4937 67.3235C49.4249 67.251 49.3896 67.1413 49.3896 66.9963V64.0075C49.3896 63.8421 49.4342 63.7325 49.5253 63.6748C49.6164 63.6172 49.7391 63.5875 49.8952 63.5875H50.1461C50.2948 63.5875 50.4045 63.6005 50.4732 63.6284C50.542 63.6525 50.5903 63.699 50.6238 63.7659C50.6591 63.8328 50.6944 63.9425 50.7353 64.093L51.3171 66.1618L51.897 64.093C51.9398 63.9425 51.9769 63.8328 52.0085 63.7659C52.042 63.699 52.094 63.6525 52.1591 63.6284C52.2297 63.6005 52.3375 63.5875 52.4881 63.5875H52.739C52.8951 63.5875 53.016 63.6172 53.1089 63.6748C53.1981 63.7325 53.2446 63.8421 53.2446 64.0075V66.9963C53.2446 67.1413 53.2093 67.2491 53.1423 67.3216C53.0736 67.3923 52.9825 67.4294 52.8673 67.4294C52.7613 67.4294 52.674 67.3923 52.6033 67.3216C52.5345 67.2491 52.5029 67.1413 52.5029 66.9963V64.3886L51.8598 66.7956C51.8171 66.9517 51.7855 67.067 51.7576 67.1413C51.7316 67.2138 51.6833 67.2789 51.6126 67.3383C51.542 67.3997 51.4435 67.4294 51.3171 67.4294C51.2223 67.4294 51.1442 67.4108 51.0773 67.3718C51.0123 67.3328 50.9621 67.2826 50.923 67.2231C50.8877 67.1636 50.8599 67.0967 50.8376 67.0261C50.8171 66.9499 50.7948 66.8755 50.7744 66.7956Z" fill="black"/>
<path d="M56.2358 64.2029H54.4105V65.1304H56.0926C56.2135 65.1304 56.3082 65.1583 56.3677 65.2103C56.4291 65.2624 56.4588 65.3311 56.4588 65.4185C56.4588 65.504 56.4291 65.5728 56.3696 65.6267C56.3082 65.6806 56.2172 65.7085 56.0926 65.7085H54.4105V66.7846H56.2971C56.4253 66.7846 56.5201 66.8125 56.5852 66.8683C56.6502 66.924 56.6837 66.9984 56.6837 67.0895C56.6837 67.1805 56.6502 67.253 56.5852 67.3069C56.5201 67.3627 56.4253 67.3906 56.2971 67.3906H54.0982C53.9217 67.3906 53.7971 67.3534 53.7209 67.2809C53.6429 67.2084 53.6038 67.0876 53.6038 66.9222V64.0839C53.6038 63.9724 53.6206 63.8832 53.6559 63.8126C53.6912 63.7438 53.7432 63.6936 53.8176 63.6602C53.8919 63.6286 53.9849 63.6118 54.0982 63.6118H56.2358C56.3659 63.6118 56.4625 63.6397 56.522 63.6955C56.5852 63.7494 56.6168 63.82 56.6168 63.9074C56.6168 63.9984 56.5852 64.0672 56.522 64.1211C56.4625 64.1769 56.3659 64.2029 56.2358 64.2029Z" fill="black"/>
<path d="M57.6878 63.612H58.7194C58.9907 63.612 59.2175 63.638 59.4108 63.6864C59.6023 63.7347 59.777 63.8239 59.935 63.9559C60.342 64.2923 60.5428 64.8072 60.5428 65.493C60.5428 65.7198 60.5223 65.9261 60.4833 66.1157C60.4424 66.3016 60.3773 66.4707 60.2918 66.6213C60.2082 66.7699 60.1004 66.9056 59.9666 67.0246C59.8606 67.1138 59.7472 67.1863 59.6227 67.2421C59.4982 67.2978 59.3662 67.3369 59.2212 67.3573C59.0781 67.3815 58.9164 67.3908 58.738 67.3908H57.7045C57.5633 67.3908 57.4517 67.3685 57.383 67.3257C57.3086 67.2867 57.2603 67.2253 57.238 67.151C57.2157 67.0729 57.2045 66.9725 57.2045 66.8536V64.0841C57.2045 63.9168 57.2417 63.7979 57.3179 63.7235C57.3941 63.651 57.5187 63.612 57.6878 63.612ZM57.9926 64.2179V66.7848H58.5948C58.7268 66.7848 58.8309 66.7811 58.9034 66.7755C58.9796 66.7681 59.0558 66.7514 59.1376 66.7216C59.2156 66.6937 59.2863 66.6584 59.3439 66.6082C59.6116 66.3889 59.7435 66.019 59.7435 65.4893C59.7435 65.1157 59.684 64.835 59.5688 64.6492C59.4517 64.4633 59.3067 64.3462 59.1376 64.2942C58.9647 64.244 58.7584 64.2179 58.5168 64.2179H57.9926Z" fill="black"/>
<path d="M61.0949 66.9621V63.9864C61.0949 63.8339 61.134 63.715 61.2046 63.6388C61.2808 63.5607 61.3774 63.5217 61.4927 63.5217C61.6154 63.5217 61.7157 63.5607 61.7901 63.6388C61.8644 63.7131 61.9035 63.8321 61.9035 63.9864V66.9621C61.9035 67.1183 61.8644 67.2354 61.7901 67.3116C61.7157 67.3897 61.6154 67.4287 61.4927 67.4287C61.3793 67.4287 61.2826 67.3897 61.2083 67.3097C61.134 67.2354 61.0949 67.1164 61.0949 66.9621Z" fill="black"/>
<path d="M65.1078 66.9363L64.9201 66.4605H63.3179L63.1302 66.9475C63.0558 67.1352 62.9964 67.2634 62.9406 67.3303C62.8886 67.3935 62.8049 67.4289 62.686 67.4289C62.5856 67.4289 62.4964 67.3917 62.4202 67.3229C62.3421 67.2504 62.3049 67.1724 62.3049 67.0831C62.3049 67.0311 62.3124 66.9791 62.3309 66.9251C62.3495 66.8694 62.3774 66.7913 62.4202 66.6947L63.4294 64.2412C63.4555 64.1705 63.4908 64.085 63.5317 63.9865C63.5707 63.888 63.6153 63.8081 63.6599 63.743C63.7064 63.6743 63.7659 63.6241 63.8421 63.5832C63.9127 63.5423 64.0075 63.5219 64.1172 63.5219C64.2268 63.5219 64.3216 63.5423 64.3923 63.5832C64.4703 63.6241 64.5279 63.6743 64.5744 63.7393C64.6209 63.8007 64.6599 63.8713 64.6878 63.9438C64.7212 64.0181 64.7621 64.1148 64.8086 64.2356L65.8402 66.6742C65.9201 66.8582 65.961 66.9921 65.961 67.0776C65.961 67.1668 65.922 67.2448 65.8458 67.3192C65.7714 67.3917 65.6785 67.4289 65.5725 67.4289C65.5075 67.4289 65.4536 67.4177 65.409 67.3954C65.3644 67.375 65.3253 67.3452 65.2974 67.3099C65.2658 67.2709 65.2342 67.2151 65.1989 67.1389C65.1618 67.0627 65.1357 66.9921 65.1078 66.9363ZM63.5261 65.8861H64.7064L64.1097 64.3285L63.5261 65.8861Z" fill="black"/>
<path d="M21.9653 37H40.1509V43.0352H29.5786V46.0389H37.1621V51.3604H29.5786V67.4121H21.9653V37Z" fill="#006FBA"/>
<path d="M49.3115 37.032H54.54C57.4006 36.9892 59.4359 37.2309 60.6533 37.7141C61.8652 38.1955 62.8429 38.9966 63.5845 40.1193C64.3205 41.2401 64.6923 42.7066 64.6923 44.2382C64.6923 45.846 64.2834 47.1917 63.4674 48.2753C62.657 49.3589 61.5474 50.1303 59.9061 50.6823L66.1235 58.251L61.6589 61.4814L54.1887 51.2436H54.5995V61.3383H49.3115V37.032ZM54.6069 46.7103H55.7538C57.343 46.7103 58.4359 46.5151 59.0325 46.1248C59.631 45.7326 59.9303 45.0858 59.9303 44.1787C59.9303 43.6434 59.7853 43.1731 59.4879 42.7791C59.1887 42.3813 58.7928 42.097 58.2946 41.9241C57.7983 41.7512 56.8857 41.6639 55.5586 41.6639H54.6069V46.7103Z" fill="#F7901E"/>
<path d="M78.9835 37.0019L95.9999 37.0037V43.0036L90.3011 42.9999L90.3104 67.3824H84.4388L84.4239 42.9999L78.9798 42.9943L78.9835 37.0019Z" fill="#00A851"/>
<path d="M41.7341 46.1721H47.8009V67.3428H41.7341V46.1721Z" fill="#CC1543"/>
<path d="M47.7844 41.6663C47.7844 43.354 46.4164 44.7238 44.7269 44.7238C43.0392 44.7238 41.6693 43.354 41.6693 41.6663C41.6693 39.9767 43.0392 38.6087 44.7269 38.6087C46.4164 38.6087 47.7844 39.9767 47.7844 41.6663Z" fill="#CC1543"/>
<path d="M16 73.5267C16 73.5267 55.3377 67.0937 95.2366 74.9709C95.2366 74.9709 56.1332 62.473 16 73.5267Z" fill="#006FBA"/>
<path d="M77.6908 53.8034C73.7708 50.8184 72.2633 49.35 72.2633 49.35C72.2633 49.35 71.5645 48.5229 72.4362 47.8091C73.3098 47.0935 76.5848 48.4597 77.4603 50.1492L81.687 46.9522C81.687 46.9522 77.9064 41.9895 72.9938 42.3501C67.9251 42.7274 66.769 45.9169 66.3936 46.9169C66.0181 47.9188 65.1259 50.7775 69.6444 54.5488C73.6369 57.8796 77.3172 59.9427 75.6908 61.5691C74.0644 63.1955 70.44 61.7996 69.5218 59.0524L65.1854 62.4241C65.1854 62.4241 66.8415 67.9073 74.0923 67.9073C74.0923 67.9073 74.8618 67.9092 75.7782 67.6805C75.7782 67.6805 81.6294 66.5932 81.858 60.8275C81.858 60.8275 82.371 57.2885 77.6908 53.8034Z" fill="#006FBA"/>
</g>
<rect x="1" y="1" width="110" height="110" rx="9" stroke="black" stroke-opacity="0.1" stroke-width="2"/>
<defs>
<clipPath id="clip0_505_165">
<rect x="2" y="2" width="108" height="108" rx="8" fill="white"/>
</clipPath>
</defs>
</svg>
