<svg width="112" height="112" viewBox="0 0 112 112" fill="none" xmlns="http://www.w3.org/2000/svg">
<g clip-path="url(#clip0_505_168)">
<rect x="2" y="2" width="108" height="108" rx="8" fill="white"/>
<path d="M60.8375 44C59.7758 44 58.9205 44.8592 58.9205 45.9194C58.9205 46.6821 59.3655 47.3402 60.0078 47.6497L59.9384 47.6895L57.7473 48.9425C57.5606 49.0487 57.4237 49.2249 57.368 49.4334C57.3085 49.6458 57.337 49.8642 57.4447 50.0539C57.5893 50.3077 57.8611 50.4648 58.1517 50.4648C58.2699 50.4648 58.3858 50.4363 58.4912 50.3889L60.4664 49.2527V46.5653C60.4664 46.4742 60.5417 46.4013 60.632 46.4013H61.0581C61.1492 46.4013 61.2223 46.4742 61.2223 46.5653V48.8175L64.2131 47.0978C64.2801 47.0609 64.3614 47.0609 64.4277 47.0978L70.245 50.4084C70.3391 50.4438 70.4362 50.4648 70.5356 50.4648C70.8278 50.4648 71.0982 50.3077 71.2428 50.0539C71.3512 49.8642 71.3791 49.6458 71.3219 49.4334C71.2654 49.2249 71.1292 49.0487 70.9402 48.9425L64.7477 45.4058C64.6249 45.3358 64.4849 45.2959 64.3456 45.2959C64.2063 45.2959 64.0633 45.3358 63.9391 45.4058L62.7786 46.0684L62.7509 46.0848C62.7555 46.0299 62.7577 45.9751 62.7577 45.9194C62.7577 44.8592 61.8992 44 60.8375 44ZM60.1094 44.8892C60.1402 44.8892 60.1704 44.9012 60.193 44.9245C60.2269 44.9629 60.2321 45.0195 60.205 45.0609C60.1869 45.0843 60.1681 45.104 60.15 45.1266C60.1304 45.1476 60.1094 45.17 60.0944 45.1948C59.9905 45.3379 59.9332 45.4993 59.9189 45.6672C59.8986 45.9142 59.9678 46.14 60.1259 46.3395C60.1342 46.3546 60.1478 46.3657 60.1598 46.38L60.187 46.4102C60.2209 46.4516 60.2269 46.4908 60.2058 46.5359C60.187 46.5774 60.153 46.5993 60.1048 46.6016H60.1027C60.0733 46.6016 60.0469 46.5864 60.0228 46.5623C59.9422 46.4825 59.8753 46.3876 59.8211 46.283C59.7503 46.1489 59.7065 46.0037 59.693 45.8494C59.6915 45.8253 59.6916 45.801 59.6886 45.7777C59.6916 45.4644 59.7811 45.2174 59.9595 44.9998C59.9949 44.9562 60.0206 44.9254 60.053 44.9058C60.071 44.8937 60.0898 44.8892 60.1094 44.8892ZM61.6094 44.893C61.635 44.893 61.6567 44.9013 61.6778 44.9202C61.7328 44.9706 61.7856 45.0339 61.8337 45.1092C61.9249 45.2493 61.9813 45.3991 62.0069 45.5609C62.0189 45.6219 62.0221 45.6874 62.0228 45.7378C62.0198 46.0277 61.9309 46.2732 61.7539 46.4908C61.7163 46.536 61.6907 46.5668 61.6591 46.5864C61.6425 46.5992 61.6215 46.603 61.6019 46.603C61.5703 46.603 61.5415 46.5895 61.5197 46.5677C61.4843 46.53 61.4799 46.4704 61.5092 46.4305C61.5243 46.4071 61.543 46.3861 61.5619 46.3658C61.583 46.3439 61.6018 46.3206 61.6214 46.2958C61.711 46.1648 61.7675 46.0254 61.7878 45.8786C61.8187 45.6512 61.7727 45.4353 61.6462 45.2342C61.6139 45.1845 61.5716 45.1369 61.5317 45.088C61.4978 45.0511 61.4873 45.0121 61.4978 44.9767C61.5068 44.9406 61.5348 44.9111 61.5717 44.8983C61.5853 44.893 61.5981 44.893 61.6094 44.893ZM60.4903 45.222C60.5167 45.222 60.5416 45.2341 60.5627 45.253C60.5852 45.2771 60.5981 45.3043 60.5981 45.3344C60.6004 45.3645 60.5852 45.3976 60.5581 45.4217C60.5205 45.4631 60.4692 45.518 60.4452 45.5933C60.3872 45.765 60.4181 45.9171 60.5394 46.0489C60.5627 46.0753 60.5854 46.0992 60.5922 46.1323C60.6027 46.1768 60.5831 46.2243 60.5447 46.2461C60.5259 46.2604 60.5033 46.2656 60.4822 46.2656C60.4581 46.2656 60.4362 46.2589 60.4197 46.2461C60.3482 46.1889 60.2931 46.1142 60.248 46.0148C60.2103 45.9283 60.1916 45.8372 60.1916 45.7408C60.1953 45.5556 60.2653 45.3952 60.3978 45.2642C60.4234 45.2371 60.4572 45.222 60.4903 45.222ZM61.2291 45.225C61.2532 45.225 61.275 45.2326 61.2923 45.2477C61.3639 45.3034 61.4187 45.3793 61.4631 45.4772C61.5008 45.5623 61.5219 45.655 61.5197 45.7498C61.5159 45.9358 61.446 46.097 61.3142 46.2295C61.2856 46.2536 61.254 46.2695 61.2223 46.2695C61.1952 46.2695 61.1696 46.2574 61.15 46.2386C61.1267 46.2168 61.1139 46.1881 61.1139 46.1588C61.1139 46.1271 61.1266 46.0963 61.153 46.0684C61.1921 46.03 61.2411 45.9758 61.2667 45.8983C61.3262 45.7266 61.293 45.5752 61.1741 45.4434C61.1447 45.4118 61.1267 45.3907 61.1192 45.3606C61.1087 45.317 61.1304 45.2671 61.1658 45.2453C61.1869 45.2303 61.2087 45.225 61.2291 45.225ZM43.4591 45.475L42.2047 46.8009C42.0789 46.9448 41.9894 47.088 41.9894 47.2853C41.9894 47.4111 42.0255 47.5902 42.2047 47.7333L43.5308 48.8264L44.785 47.5006C44.9107 47.3568 45.0005 47.1956 45.0005 47.0164C45.0005 46.8914 44.9461 46.7113 44.785 46.5683L43.4591 45.475ZM39.1092 45.53C38.034 45.53 37.4603 46.1038 37.4603 47.1609V51.2292C36.9581 49.9213 35.9725 49.3838 34.7361 49.3838C32.3703 49.3838 30.9727 51.3903 30.9727 54.2938C30.9727 57.1972 32.3349 59.1505 34.7361 59.1505C35.9725 59.1505 36.9399 58.685 37.4775 57.6633C37.5852 58.6308 38.1228 59.0255 39.1084 59.0255C39.5384 59.0255 39.9872 58.9359 40.2741 58.7928V45.7627C39.9872 45.6196 39.5211 45.53 39.1092 45.53ZM60.8556 45.6016C60.9332 45.6016 60.9994 45.667 61.0002 45.7461C61.0002 45.7845 60.9845 45.8191 60.9573 45.8463C60.9317 45.8749 60.894 45.8892 60.8556 45.8892C60.7773 45.8892 60.7134 45.8252 60.7111 45.7477C60.7111 45.6686 60.7773 45.6031 60.8556 45.6016ZM47.7902 45.9531C47.5854 45.9531 47.3753 45.9742 47.1584 46.0164C46.9423 46.0593 46.7616 46.1158 46.617 46.1881V57.5444C46.617 58.0737 46.7639 58.4803 47.0591 58.7627C47.3535 59.045 47.7781 59.1866 48.3316 59.1866C48.8007 59.1866 49.1915 59.1082 49.5047 58.9516V53.8247H54.0902V57.5436C54.0902 58.0729 54.237 58.4795 54.5322 58.7619C54.8266 59.0442 55.2513 59.1858 55.8047 59.1858C56.2738 59.1858 56.6646 59.1076 56.9778 58.9509V47.5955C56.9778 47.0661 56.8302 46.6601 56.5358 46.377C56.2414 46.0947 55.8167 45.9531 55.2633 45.9531C55.0585 45.9531 54.8484 45.9742 54.6316 46.0164C54.4155 46.0593 54.2347 46.1158 54.0902 46.1881V51.2963H49.5047V47.5955C49.5047 47.0661 49.3571 46.6601 49.0627 46.377C48.7675 46.0947 48.3436 45.9531 47.7902 45.9531ZM17.1648 45.9614C16.753 45.9614 16.2869 46.051 16 46.1941V57.4667C16 58.5239 16.5911 59.0977 17.7025 59.0977C18.1144 59.0977 18.5805 59.0081 18.8673 58.865V47.5923C18.8673 46.5352 18.2762 45.9614 17.1648 45.9614ZM64.32 47.5322L58.8075 50.7028V58.6422C58.8075 59.1512 59.2239 59.5669 59.7314 59.5669H69.1262C69.6345 59.5669 70.05 59.1512 70.05 58.6422V50.7948L64.32 47.5322ZM64.4292 49.3378C67.3507 49.3378 69.2858 51.291 69.2858 54.2125C69.2858 57.134 67.35 59.1044 64.4292 59.1044C61.5077 59.1044 59.5725 57.1513 59.5725 54.2125C59.5725 51.2737 61.5077 49.3378 64.4292 49.3378ZM91.7686 49.3814C89.0444 49.3814 87.2342 51.2631 87.2342 54.1666C87.2342 57.195 89.1694 59.1481 92.0728 59.1481C94.2775 59.1481 95.693 58.3779 95.693 57.0873C95.693 56.4955 95.3527 56.0655 94.7789 55.9044C94.2955 56.6393 93.4709 56.9977 92.4853 56.9977C90.944 56.9977 90.0661 56.1731 90.0661 54.8291H95.9445C96.016 54.3811 95.998 53.9866 95.998 53.6644C95.998 51.102 94.4928 49.3814 91.7686 49.3814ZM77.1911 49.383C75.9193 49.383 74.8796 49.992 74.4497 51.1569V51.0313C74.4497 50.1172 73.8578 49.508 72.8187 49.508C72.3888 49.508 71.9408 49.5976 71.6539 49.7406V58.9697H74.4677V53.1275C74.4677 52.1599 75.0595 51.5327 75.9375 51.5327C76.8697 51.5327 77.3711 52.2313 77.3711 53.4858V58.9697H80.1488V53.1275C80.1488 52.178 80.7761 51.5327 81.7083 51.5327C82.6404 51.5327 83.0703 52.1417 83.0703 53.4858V58.9697H85.8661V52.6614C85.8661 50.6721 84.6463 49.383 82.7466 49.383C81.456 49.383 80.3988 49.9922 79.8792 51.3723C79.3951 49.9922 78.374 49.383 77.1911 49.383ZM26.4308 49.3844C25.141 49.3844 24.1193 50.0117 23.6712 51.1411V51.123C23.6712 50.1554 23.0794 49.5102 22.0403 49.5102C21.6104 49.5102 21.1623 49.5998 20.8755 49.7428V58.9719H23.6892V53.1478C23.6892 52.1983 24.3345 51.5348 25.3202 51.5348C26.3058 51.5348 26.7719 52.1441 26.7719 53.4166V58.9719H29.5677V52.7712C29.5677 50.675 28.3659 49.3844 26.4308 49.3844ZM42.097 49.5606V57.3914C42.097 58.4486 42.6707 59.0223 43.7459 59.0223C44.1578 59.0223 44.6241 58.9328 44.9109 58.7897V49.5606H42.097ZM91.8402 51.4069C92.9515 51.4069 93.489 52.1238 93.5425 53.1809H90.0661C90.0842 52.0522 90.7288 51.4069 91.8402 51.4069ZM64.4292 51.4881C63.1386 51.4881 62.4217 52.4566 62.4217 54.2125C62.4217 55.9684 63.1386 56.9539 64.4292 56.9539C65.7198 56.9539 66.4366 55.9684 66.4366 54.2125C66.4366 52.4739 65.7198 51.4881 64.4292 51.4881ZM35.7036 51.5348C36.7246 51.5348 37.4595 52.3233 37.4595 53.3089V55.4233C37.4595 56.2832 36.6719 57.018 35.7397 57.018C34.5387 57.018 33.8219 56.0323 33.8219 54.2764C33.8219 52.5205 34.5742 51.5348 35.7036 51.5348ZM71.4239 61.3108V66.0559C71.4239 66.5466 71.7736 66.7705 72.1161 66.7705C72.4586 66.7705 72.6758 66.6564 72.6758 66.6564C72.6758 66.6564 72.4659 66.4874 72.4659 65.7359V61.9425C72.4659 61.6183 72.2592 61.3108 71.8778 61.3108H71.4239ZM73.1495 61.3108V66.7081H74.1914V65.0017L75.1103 66.0764C75.3883 66.4015 75.5896 66.7081 76.0461 66.7081H76.8795L75.7789 65.4359C75.5281 65.146 75.3406 64.8668 74.9747 64.8139C74.9643 64.8124 74.9558 64.8055 74.9558 64.795C74.9558 64.7845 74.9645 64.7783 74.9747 64.7761C75.2903 64.7068 75.4721 64.4416 75.6977 64.1634L76.7295 62.8911H75.5494L74.1914 64.5484V61.3108H73.1495ZM94.7481 61.3108V66.0559C94.7481 66.5466 95.0978 66.7705 95.4403 66.7705C95.7828 66.7705 96 66.6564 96 66.6564C96 66.6564 95.7902 66.4874 95.7902 65.7359V61.9425C95.7902 61.6183 95.5835 61.3108 95.202 61.3108H94.7481ZM64.6656 61.4767C64.3507 61.4767 64.0705 61.7332 64.0705 62.0252V62.5609H65.5842V66.0559C65.5842 66.5466 65.9339 66.7705 66.2764 66.7705C66.6189 66.7705 66.8361 66.6564 66.8361 66.6564C66.8361 66.6564 66.6262 66.4874 66.6262 65.7359V62.3845C66.6262 62.0604 66.2485 61.4767 65.6267 61.4767H64.6656ZM66.2936 61.4767C66.2737 61.4767 66.2578 61.4926 66.2578 61.5125C66.2578 61.5324 66.2777 61.5472 66.2936 61.5591C66.3595 61.6083 66.565 61.7538 66.6631 61.9531C66.7612 62.1524 66.7636 62.3333 66.8273 62.4378C66.8911 62.5423 66.9951 62.5609 67.1052 62.5609H67.8962C68.0711 62.5609 68.1398 62.4436 68.1398 62.3042V61.4767H66.2936ZM69.1833 62.8314C68.0219 62.8287 67.2591 63.6584 67.2591 64.8448C67.259 66.1779 68.2987 66.7705 69.3092 66.7705C69.9213 66.7705 70.3946 66.5484 70.6366 66.3973V65.4967C70.4687 65.6392 69.956 65.9212 69.442 65.9231C68.8495 65.9253 68.36 65.6734 68.2537 65.098H70.8681C70.8807 64.9981 70.9038 64.8596 70.9033 64.7016C70.8997 63.5343 70.1167 62.8336 69.1833 62.8314ZM78.5553 62.8314C77.3786 62.8296 76.5545 63.6708 76.5561 64.797C76.5577 65.9232 77.3653 66.7709 78.5553 66.7705C79.7453 66.77 80.536 65.9105 80.5361 64.797C80.5362 63.6835 79.732 62.8332 78.5553 62.8314ZM83.087 62.8314C82.5831 62.8314 82.2378 63.0222 82.0802 63.4111C82.0622 63.1362 81.798 62.8911 81.4931 62.8911H81.0392V66.7081H82.0811V64.7539C82.0811 64.1984 82.3223 63.7096 82.7991 63.7156C83.2791 63.7217 83.4083 64.0065 83.4083 64.4189V66.7081H84.45V64.7539C84.45 64.1984 84.6727 63.7096 85.1495 63.7156C85.6296 63.7217 85.7798 64.0065 85.7798 64.4189V66.7081H86.8217V64.1764C86.8217 63.2991 86.1843 62.8314 85.4055 62.8314C84.9014 62.8314 84.5111 63.0727 84.2272 63.467C84.0099 63.024 83.6322 62.8314 83.087 62.8314ZM88.8817 62.8314C87.9768 62.8314 87.3523 63.2628 87.3522 64.0319C87.3521 64.4939 87.6889 64.8725 88.3561 65.0775C89.0233 65.2825 89.3052 65.3638 89.303 65.5891C89.3008 65.8143 89.1399 65.9577 88.6708 65.9577C88.2016 65.9577 87.7222 65.7493 87.3806 65.4409V66.3814C87.6358 66.5722 88.1242 66.7705 88.7133 66.7705C89.7151 66.7705 90.2969 66.333 90.3016 65.5283C90.3046 65.013 89.9546 64.6739 89.4283 64.4897C88.902 64.3055 88.3588 64.2468 88.358 63.9681C88.3572 63.733 88.5324 63.6286 88.9203 63.6323C89.4093 63.6371 89.8557 63.7972 90.0692 64.0088V63.1338C89.8702 63.0186 89.5122 62.8314 88.8817 62.8314ZM92.5128 62.8314C91.3514 62.8287 90.5886 63.6584 90.5886 64.8448C90.5886 66.1779 91.6282 66.7705 92.6387 66.7705C93.2509 66.7705 93.7242 66.5484 93.9661 66.3973V65.4967C93.7982 65.6392 93.2855 65.9212 92.7716 65.9231C92.179 65.9253 91.6896 65.6734 91.5833 65.098H94.1977C94.2102 64.9981 94.2331 64.8596 94.2327 64.7016C94.229 63.5343 93.4462 62.8336 92.5128 62.8314ZM58.9012 63.2331C58.7499 63.2331 58.6417 63.3412 58.6417 63.4925V66.1733C58.6417 66.316 58.7586 66.4328 58.9012 66.4328C59.0526 66.4328 59.165 66.316 59.165 66.1733V66.0566C59.325 66.2684 59.5628 66.4588 59.9433 66.4588C60.4838 66.4588 61.0027 66.0351 61.0027 65.2741V65.2653C61.0027 64.5043 60.4794 64.0806 59.9433 64.0806C59.5671 64.0806 59.3336 64.2708 59.165 64.5086V63.4925C59.165 63.3412 59.0526 63.2331 58.9012 63.2331ZM69.1541 63.6033C69.6699 63.5992 69.8989 64.0417 69.9055 64.3833H68.2803C68.4157 63.7839 68.809 63.606 69.1541 63.6033ZM92.4836 63.6033C92.9994 63.5992 93.2285 64.0417 93.235 64.3833H91.6098C91.7453 63.7839 92.1386 63.606 92.4836 63.6033ZM78.5553 63.7306C79.1169 63.7306 79.5016 64.1602 79.5016 64.797C79.5016 65.4339 79.1037 65.8634 78.5553 65.8634C78.007 65.8634 77.5933 65.4538 77.5933 64.797C77.5933 64.1403 77.9937 63.7306 78.5553 63.7306ZM61.5777 64.1022C61.4263 64.1022 61.3183 64.206 61.3183 64.3573C61.3183 64.3963 61.327 64.4351 61.3486 64.4827L62.1959 66.3766L62.1787 66.4242C62.0923 66.6015 62.01 66.6663 61.8544 66.6663C61.7809 66.6663 61.7377 66.6534 61.6728 66.6361C61.6425 66.6231 61.6252 66.6188 61.5777 66.6188C61.4609 66.6188 61.3658 66.7008 61.3658 66.8348C61.3658 66.9602 61.448 67.0208 61.5302 67.0511C61.6383 67.0987 61.7419 67.1159 61.8933 67.1159C62.2608 67.1159 62.4684 66.9431 62.663 66.4761L63.4975 64.4741C63.5105 64.4438 63.5191 64.3963 63.5191 64.3488C63.5191 64.2104 63.4066 64.1022 63.2683 64.1022C63.1342 64.1022 63.0651 64.193 63.0175 64.3011L62.4467 65.8188L61.8328 64.3011C61.7853 64.18 61.7117 64.1022 61.5777 64.1022ZM59.8178 64.5345C60.1767 64.5345 60.4708 64.8243 60.4708 65.2653V65.2741C60.4708 65.7237 60.1767 66.0047 59.8178 66.0047C59.4589 66.0047 59.152 65.7108 59.152 65.2741V65.2653C59.152 64.8286 59.4589 64.5345 59.8178 64.5345Z" fill="#FF0025"/>
</g>
<rect x="1" y="1" width="110" height="110" rx="9" stroke="black" stroke-opacity="0.1" stroke-width="2"/>
<defs>
<clipPath id="clip0_505_168">
<rect x="2" y="2" width="108" height="108" rx="8" fill="white"/>
</clipPath>
</defs>
</svg>
