<svg width="112" height="112" viewBox="0 0 112 112" fill="none" xmlns="http://www.w3.org/2000/svg">
<g clip-path="url(#clip0_505_166)">
<rect x="1.99988" y="2" width="108" height="108" rx="8" fill="white"/>
<path d="M16 61.7864C16 62.4976 16.5624 63.06 17.2736 63.06C17.9848 63.06 18.5472 62.4976 18.5472 61.7864V52.5569C18.5472 51.8456 17.9848 51.2833 17.2736 51.2833C16.5624 51.2833 16 51.8456 16 52.5569V61.7864Z" fill="#ED3123"/>
<path d="M20.7136 61.8029C20.7136 62.4976 21.276 63.06 21.9707 63.06C22.6654 63.06 23.2277 62.4976 23.2277 61.8029V58.0152C23.2277 56.8243 23.8397 56.2123 24.7991 56.2123C25.7584 56.2123 26.3208 56.8243 26.3208 58.0152V61.8029C26.3208 62.4976 26.8832 63.06 27.5778 63.06C28.2726 63.06 28.8349 62.4976 28.8349 61.8029V57.2212C28.8349 55.1868 27.7267 53.9297 25.8246 53.9297C24.551 53.9297 23.8066 54.6079 23.2277 55.3522V55.2529C23.2277 54.5582 22.6654 53.9959 21.9707 53.9959C21.276 53.9959 20.7136 54.5582 20.7136 55.2529V61.8029Z" fill="#ED3123"/>
<path d="M39.4522 52.0441C39.4522 51.3494 38.8899 50.787 38.1952 50.787C37.5005 50.787 36.9381 51.3494 36.9381 52.0441V55.2529C36.3426 54.5417 35.5156 53.9297 34.1759 53.9297C32.0752 53.9297 30.14 55.5507 30.14 58.5114V58.5445C30.14 61.5052 32.1083 63.1261 34.1759 63.1261C35.4825 63.1261 36.3261 62.5141 36.9381 61.6871V61.8029C36.9381 62.4976 37.5005 63.06 38.1952 63.06C38.8899 63.06 39.4522 62.4976 39.4522 61.8029V52.0441ZM34.8209 56.0634C35.9953 56.0634 36.9712 57.0393 36.9712 58.5114V58.5445C36.9712 60.0166 35.9953 60.9924 34.8209 60.9924C33.6466 60.9924 32.6541 60.0166 32.6541 58.5445V58.5114C32.6541 57.0228 33.6466 56.0634 34.8209 56.0634Z" fill="#ED3123"/>
<path d="M41.2473 52.011C41.2473 52.7388 41.8593 53.2019 42.6533 53.2019C43.4472 53.2019 44.0592 52.7388 44.0592 52.011V51.978C44.0592 51.2502 43.4472 50.8036 42.6533 50.8036C41.8593 50.8036 41.2473 51.2502 41.2473 51.978V52.011ZM41.3962 61.8029C41.3962 62.4976 41.9586 63.06 42.6533 63.06C43.348 63.06 43.9103 62.4976 43.9103 61.8029V55.2529C43.9103 54.5582 43.348 53.9959 42.6533 53.9959C41.9586 53.9959 41.3962 54.5582 41.3962 55.2529V61.8029Z" fill="#ED3123"/>
<path d="M46.035 61.7864C46.035 62.4976 46.5974 63.06 47.3086 63.06C48.0198 63.06 48.5822 62.4976 48.5822 61.7864V58.3129H53.2797V61.7864C53.2797 62.4976 53.842 63.06 54.5533 63.06C55.2645 63.06 55.8269 62.4976 55.8269 61.7864V52.5569C55.8269 51.8456 55.2645 51.2833 54.5533 51.2833C53.842 51.2833 53.2797 51.8456 53.2797 52.5569V55.9642H48.5822V52.5569C48.5822 51.8456 48.0198 51.2833 47.3086 51.2833C46.5974 51.2833 46.035 51.8456 46.035 52.5569V61.7864Z" fill="#808285"/>
<path d="M72.5622 61.8029C72.5622 62.4976 73.1245 63.06 73.8192 63.06C74.5139 63.06 75.0763 62.4976 75.0763 61.8029V58.0152C75.0763 56.8243 75.6552 56.2123 76.598 56.2123C77.5408 56.2123 78.0701 56.8243 78.0701 58.0152V61.8029C78.0701 62.4976 78.6325 63.06 79.3272 63.06C80.0219 63.06 80.5842 62.4976 80.5842 61.8029V58.0152C80.5842 56.8243 81.1632 56.2123 82.106 56.2123C83.0488 56.2123 83.578 56.8243 83.578 58.0152V61.8029C83.578 62.4976 84.1404 63.06 84.8351 63.06C85.5298 63.06 86.0922 62.4976 86.0922 61.8029V57.1882C86.0922 55.0545 84.9674 53.9297 83.0984 53.9297C81.8909 53.9297 80.9647 54.4259 80.1873 55.3356C79.7241 54.4425 78.8475 53.9297 77.6897 53.9297C76.4161 53.9297 75.6552 54.6079 75.0763 55.3522V55.2529C75.0763 54.5582 74.5139 53.9959 73.8192 53.9959C73.1245 53.9959 72.5622 54.5582 72.5622 55.2529V61.8029Z" fill="#808285"/>
<path d="M89.8139 57.8332C90.0124 56.6919 90.6906 55.9476 91.7326 55.9476C92.7912 55.9476 93.4528 56.7085 93.6017 57.8332H89.8139ZM95.0572 62.0841C95.2392 61.9187 95.388 61.6706 95.388 61.3398C95.388 60.7774 94.9745 60.3474 94.4121 60.3474C94.1475 60.3474 93.9821 60.4135 93.8002 60.5458C93.2874 60.9263 92.7085 61.1413 92.0138 61.1413C90.8891 61.1413 90.0951 60.5458 89.847 59.4046H94.8257C95.4873 59.4046 96 58.9249 96 58.1971C96 56.3611 94.6933 53.9297 91.7326 53.9297C89.1523 53.9297 87.3494 56.0138 87.3494 58.5445V58.5775C87.3494 61.2902 89.3177 63.1592 91.9807 63.1592C93.2709 63.1592 94.2798 62.7457 95.0572 62.0841Z" fill="#808285"/>
<path fill-rule="evenodd" clip-rule="evenodd" d="M60.4133 49C59.3233 49 58.4397 49.8837 58.4396 50.9737C58.4396 51.7259 58.867 52.4127 59.5418 52.7448L57.2206 54.0781C56.7651 54.3398 56.7263 54.8473 56.9362 55.2234C57.1461 55.5994 57.6592 55.7504 58.0518 55.5249L63.9743 52.1228L69.8968 55.5249C70.3523 55.7865 70.8101 55.5643 71.0295 55.1937C71.2489 54.8231 71.1205 54.3036 70.728 54.0781L64.5304 50.518C64.3325 50.4043 64.1744 50.3354 64.0048 50.3299C63.8352 50.3245 63.6542 50.3824 63.4106 50.5224L62.3822 51.1132C62.3855 51.0668 62.3871 51.0202 62.3871 50.9737C62.387 49.8837 61.5034 49 60.4133 49ZM63.9743 52.6206L58.2911 55.9017V62.0223C58.2911 62.5651 58.7281 63.0021 59.2709 63.0021H68.891C69.4338 63.0021 69.871 62.5651 69.871 62.0223V55.9702L63.9743 52.6206Z" fill="#ED3123"/>
<path d="M64.004 53.8269C61.3789 53.8269 59.4101 55.8079 59.4101 58.2507C59.4101 60.7177 61.3546 62.6744 63.9797 62.6744C66.6047 62.6744 68.5734 60.6934 68.5734 58.2507C68.5734 55.7836 66.629 53.8269 64.004 53.8269ZM63.9741 56.0396C65.2245 56.0396 66.0776 57.0679 66.0776 58.2481C66.0776 59.4518 65.248 60.4567 63.9976 60.4567C62.7589 60.4567 61.9057 59.4284 61.9057 58.2481C61.9057 57.0445 62.7355 56.0396 63.9741 56.0396Z" fill="white"/>
<path fill-rule="evenodd" clip-rule="evenodd" d="M60.2196 51.4296C60.1067 51.4296 60.0159 51.5204 60.0159 51.6333V54.4081L60.804 53.9531V51.6333C60.804 51.5204 60.7132 51.4296 60.6004 51.4296H60.2196ZM59.5002 49.9756C59.2891 50.1855 59.1781 50.4879 59.1781 50.8069C59.1781 51.1259 59.297 51.4207 59.5002 51.6382C59.5593 51.7014 59.6703 51.768 59.764 51.7006C59.8345 51.6499 59.8597 51.5555 59.7265 51.4135C59.5795 51.2567 59.4999 51.0397 59.4999 50.8069C59.4999 50.5741 59.5795 50.3571 59.7265 50.2004C59.8597 50.0583 59.8367 49.9608 59.764 49.9132C59.6693 49.8512 59.5671 49.9091 59.5002 49.9756ZM59.9164 50.2961C59.7626 50.4342 59.7064 50.6368 59.7064 50.8069C59.7064 50.9771 59.7716 51.1702 59.9164 51.3178C59.9814 51.3841 60.0795 51.4203 60.1624 51.3277C60.2256 51.2572 60.1826 51.1805 60.1001 51.0944C60.0369 51.0284 59.9955 50.9262 59.9955 50.8069C59.9955 50.6876 60.0369 50.5854 60.1001 50.5195C60.1826 50.4334 60.2279 50.3545 60.1624 50.2862C60.0784 50.1985 59.9878 50.2319 59.9164 50.2961ZM60.5965 50.8114C60.5965 50.9065 60.5194 50.9835 60.4244 50.9835C60.3294 50.9835 60.2523 50.9065 60.2523 50.8114C60.2523 50.7164 60.3294 50.6394 60.4244 50.6394C60.5194 50.6394 60.5965 50.7164 60.5965 50.8114ZM61.3464 49.9756C61.5575 50.1855 61.6685 50.4879 61.6685 50.807C61.6685 51.126 61.5497 51.4208 61.3464 51.6383C61.2873 51.7015 61.1763 51.7681 61.0826 51.7006C61.0121 51.6499 60.987 51.5556 61.1201 51.4135C61.2671 51.2568 61.3467 51.0397 61.3467 50.807C61.3467 50.5742 61.2671 50.3571 61.1201 50.2004C60.987 50.0584 61.0099 49.9608 61.0826 49.9133C61.1773 49.8513 61.2795 49.9091 61.3464 49.9756ZM60.9302 50.2961C61.084 50.4342 61.1402 50.6368 61.1402 50.807C61.1402 50.9771 61.075 51.1703 60.9302 51.3178C60.8652 51.3841 60.7672 51.4204 60.6842 51.3277C60.6211 51.2572 60.664 51.1805 60.7465 51.0944C60.8097 51.0284 60.8511 50.9263 60.8511 50.807C60.8511 50.6876 60.8097 50.5855 60.7465 50.5195C60.664 50.4334 60.6187 50.3545 60.6842 50.2862C60.7682 50.1986 60.8588 50.2319 60.9302 50.2961Z" fill="white"/>
</g>
<rect x="1" y="1" width="110" height="110" rx="9" stroke="black" stroke-opacity="0.1" stroke-width="2"/>
<defs>
<clipPath id="clip0_505_166">
<rect x="2" y="2" width="108" height="108" rx="8" fill="white"/>
</clipPath>
</defs>
</svg>
