<svg width="112" height="112" viewBox="0 0 112 112" fill="none" xmlns="http://www.w3.org/2000/svg">
<g clip-path="url(#clip0_755_469)">
<rect x="1.99988" y="2" width="108" height="108" rx="8" fill="white"/>
<path d="M94.769 61.4805H94.9153V62.2085L94.769 62.2085V61.4805Z" fill="white"/>
<path d="M16.0333 61.4997H16.7428V62.2085H16.0333V61.4997Z" fill="white"/>
<path d="M16.7775 61.4997H17.4871V62.2085H16.7775V61.4997Z" fill="#FCFAF5"/>
<path d="M17.5218 61.4997H18.2313V62.2085H17.5218V61.4997Z" fill="#F7F4ED"/>
<path d="M18.2668 61.4997H18.9764V62.2085H18.2668V61.4997Z" fill="#F5F1E7"/>
<path d="M19.0111 61.4997H19.7206V62.2085H19.0111V61.4997Z" fill="#F2ECE0"/>
<path d="M19.7554 61.4997H20.4649V62.2085H19.7554V61.4997Z" fill="#EFEADB"/>
<path d="M20.5004 61.4997H21.2099V62.2085H20.5004V61.4997Z" fill="#EDE7D5"/>
<path d="M21.2447 61.4997H21.9542V62.2085H21.2447V61.4997Z" fill="#EBE3D1"/>
<path d="M21.9889 61.4997H22.6985V62.2085H21.9889V61.4997Z" fill="#E9E1CB"/>
<path d="M22.7339 61.4997H23.4435V62.2085H22.7339V61.4997Z" fill="#E8DEC6"/>
<path d="M23.4782 61.4997H24.1878V62.2085H23.4782V61.4997Z" fill="#E6DCC0"/>
<path d="M24.2225 61.4997H24.932V62.2085H24.2225V61.4997Z" fill="#E5DABC"/>
<path d="M24.9675 61.4997H25.677V62.2085H24.9675V61.4997Z" fill="#E2D6B7"/>
<path d="M25.7118 61.4997H26.4213V62.2085H25.7118V61.4997Z" fill="#E0D4B2"/>
<path d="M26.4561 61.4997H27.1656V62.2085H26.4561V61.4997Z" fill="#DFD1AD"/>
<path d="M27.2011 61.4997H27.9106V62.2085H27.2011V61.4997Z" fill="#DDCEA9"/>
<path d="M27.9454 61.4997H28.6549V62.2085H27.9454V61.4997Z" fill="#DBCDA5"/>
<path d="M28.6896 61.4997H29.3992V62.2085H28.6896V61.4997Z" fill="#DACAA0"/>
<path d="M29.4346 61.4997H30.1442V62.2085H29.4346V61.4997Z" fill="#D7C89C"/>
<path d="M30.1789 61.4997H30.8885V62.2085H30.1789V61.4997Z" fill="#D6C597"/>
<path d="M30.9232 61.4997H31.6327V62.2085H30.9232V61.4997Z" fill="#D4C493"/>
<path d="M31.6682 61.4997H32.3777V62.2085H31.6682V61.4997Z" fill="#D3C08E"/>
<path d="M32.4125 61.4997H33.122V62.2085H32.4125V61.4997Z" fill="#D2BE8A"/>
<path d="M33.1567 61.4997H33.8663V62.2085H33.1567V61.4997Z" fill="#D0BC86"/>
<path d="M33.9018 61.4997H34.6113V62.2085H33.9018V61.4997Z" fill="#CEBA82"/>
<path d="M34.646 61.4997H35.3556V62.2085H34.646V61.4997Z" fill="#CDB87E"/>
<path d="M35.3903 61.4997H36.0999V62.2085H35.3903V61.4997Z" fill="#CAB67A"/>
<path d="M36.1353 61.4997H36.8449V62.2085H36.1353V61.4997Z" fill="#CAB577"/>
<path d="M36.8796 61.4997H37.5891V62.2085H36.8796V61.4997Z" fill="#C9B273"/>
<path d="M37.6239 61.4997H38.3334V62.2085H37.6239V61.4997Z" fill="#C7B070"/>
<path d="M38.3689 61.4997H39.0784V62.2085H38.3689V61.4997Z" fill="#C6AE6B"/>
<path d="M39.1132 61.4997H39.8227V62.2085H39.1132V61.4997Z" fill="#C4AC68"/>
<path d="M39.8574 61.4997H40.567V62.2085H39.8574V61.4997Z" fill="#C3AA64"/>
<path d="M40.6025 61.4997H41.312V62.2085H40.6025V61.4997Z" fill="#C0A861"/>
<path d="M41.3467 61.4997H42.0563V62.2085H41.3467V61.4997Z" fill="#C0A65D"/>
<path d="M42.091 61.4997H42.8006V62.2085H42.091V61.4997Z" fill="#BDA559"/>
<path d="M42.836 61.4997H43.5456V62.2085H42.836V61.4997Z" fill="#BCA355"/>
<path d="M43.5803 61.4997H44.2898V62.2085H43.5803V61.4997Z" fill="#BBA052"/>
<path d="M44.3246 61.4997H45.0341V62.2085H44.3246V61.4997Z" fill="#B99E4E"/>
<path d="M45.0696 61.4997H45.7791V62.2085H45.0696V61.4997Z" fill="#B89C4B"/>
<path d="M45.8139 61.4997H46.5234V62.2085H45.8139V61.4997Z" fill="#B69A47"/>
<path d="M46.5581 61.4997H47.2677V62.2085H46.5581V61.4997Z" fill="#B59943"/>
<path d="M47.3032 61.4997H48.0127V62.2085H47.3032V61.4997Z" fill="#B3973F"/>
<path d="M48.0474 61.4997H48.757V62.2085H48.0474V61.4997Z" fill="#B2953C"/>
<path d="M48.7917 61.4997H49.5012V62.2085H48.7917V61.4997Z" fill="#B09338"/>
<path d="M49.5367 61.4997H50.2463V62.2085H49.5367V61.4997Z" fill="#AE9234"/>
<path d="M50.281 61.4997H50.9905V62.2085H50.281V61.4997Z" fill="#AD8F31"/>
<path d="M51.0253 61.4997H51.7348V62.2085H51.0253V61.4997Z" fill="#AC8E2E"/>
<path d="M51.7703 61.4997H52.4798V62.2085H51.7703V61.4997Z" fill="#AA8C2B"/>
<path d="M52.5145 61.4997H53.2241V62.2085H52.5145V61.4997Z" fill="#A98A28"/>
<path d="M53.2588 61.4997H53.9684V62.2085H53.2588V61.4997Z" fill="#A88824"/>
<path d="M54.0039 61.4997H54.7134V62.2085H54.0039V61.4997Z" fill="#A68722"/>
<path d="M54.7481 61.4997H55.4577L55.4577 62.2085L54.7481 62.2085V61.4997Z" fill="#A58520"/>
<path d="M55.4909 61.4997H56.2005V62.2085H55.4909V61.4997Z" fill="#A58520"/>
<path d="M56.2352 61.4997H56.9447V62.2085H56.2352V61.4997Z" fill="#A68722"/>
<path d="M56.9802 61.4997H57.6897V62.2085H56.9802V61.4997Z" fill="#A88824"/>
<path d="M57.7245 61.4997H58.434V62.2085H57.7245V61.4997Z" fill="#A98A28"/>
<path d="M58.4688 61.4997H59.1783V62.2085H58.4688V61.4997Z" fill="#AA8C2B"/>
<path d="M59.2138 61.4997H59.9233V62.2085H59.2138V61.4997Z" fill="#AC8E2E"/>
<path d="M59.9581 61.4997H60.6676V62.2085H59.9581V61.4997Z" fill="#AD8F31"/>
<path d="M60.7023 61.4997H61.4119V62.2085H60.7023V61.4997Z" fill="#AE9234"/>
<path d="M61.4473 61.4997H62.1569V62.2085H61.4473V61.4997Z" fill="#B09338"/>
<path d="M62.1916 61.4997H62.9011V62.2085H62.1916V61.4997Z" fill="#B2953C"/>
<path d="M62.9359 61.4997H63.6454V62.2085H62.9359V61.4997Z" fill="#B3973F"/>
<path d="M63.6809 61.4997H64.3904V62.2085H63.6809V61.4997Z" fill="#B59943"/>
<path d="M64.4252 61.4997H65.1347V62.2085H64.4252V61.4997Z" fill="#B69A47"/>
<path d="M65.1694 61.4997H65.879V62.2085H65.1694V61.4997Z" fill="#B89C4B"/>
<path d="M65.9145 61.4997H66.624V62.2085H65.9145V61.4997Z" fill="#B99E4E"/>
<path d="M66.6587 61.4997H67.3683V62.2085H66.6587V61.4997Z" fill="#BBA052"/>
<path d="M67.403 61.4997H68.1125V62.2085H67.403V61.4997Z" fill="#BCA355"/>
<path d="M68.148 61.4997H68.8576V62.2085H68.148V61.4997Z" fill="#BDA559"/>
<path d="M68.8923 61.4997H69.6018V62.2085H68.8923V61.4997Z" fill="#C0A65D"/>
<path d="M69.6366 61.4997H70.3461V62.2085H69.6366V61.4997Z" fill="#C0A861"/>
<path d="M70.3808 61.4997H71.0904V62.2085H70.3808V61.4997Z" fill="#C3AA64"/>
<path d="M71.1259 61.4997H71.8354V62.2085H71.1259V61.4997Z" fill="#C4AC68"/>
<path d="M71.8701 61.4997H72.5797V62.2085H71.8701V61.4997Z" fill="#C6AE6B"/>
<path d="M72.6144 61.4997H73.324V62.2085H72.6144V61.4997Z" fill="#C7B070"/>
<path d="M73.3594 61.4997H74.069V62.2085H73.3594V61.4997Z" fill="#C9B273"/>
<path d="M74.1037 61.4997H74.8132V62.2085H74.1037V61.4997Z" fill="#CAB577"/>
<path d="M74.848 61.4997H75.5575V62.2085H74.848V61.4997Z" fill="#CAB67A"/>
<path d="M75.593 61.4997H76.3025V62.2085H75.593V61.4997Z" fill="#CDB87E"/>
<path d="M76.3373 61.4997H77.0468V62.2085H76.3373V61.4997Z" fill="#CEBA82"/>
<path d="M77.0815 61.4997H77.7911V62.2085H77.0815V61.4997Z" fill="#D0BC86"/>
<path d="M77.8266 61.4997H78.5361V62.2085H77.8266V61.4997Z" fill="#D2BE8A"/>
<path d="M78.5708 61.4997H79.2804V62.2085H78.5708V61.4997Z" fill="#D3C08E"/>
<path d="M79.3151 61.4997H80.0246V62.2085H79.3151V61.4997Z" fill="#D4C493"/>
<path d="M80.0601 61.4997H80.7696V62.2085H80.0601V61.4997Z" fill="#D6C597"/>
<path d="M80.8044 61.4997H81.5139V62.2085H80.8044V61.4997Z" fill="#D7C89C"/>
<path d="M81.5487 61.4997H82.2582V62.2085H81.5487V61.4997Z" fill="#DACAA0"/>
<path d="M82.2937 61.4997H83.0032V62.2085H82.2937V61.4997Z" fill="#DBCDA5"/>
<path d="M83.0379 61.4997H83.7475V62.2085H83.0379V61.4997Z" fill="#DDCEA9"/>
<path d="M83.7822 61.4997H84.4918V62.2085H83.7822V61.4997Z" fill="#DFD1AD"/>
<path d="M84.5272 61.4997H85.2368V62.2085H84.5272V61.4997Z" fill="#E0D4B2"/>
<path d="M85.2715 61.4997H85.9811V62.2085H85.2715V61.4997Z" fill="#E2D6B7"/>
<path d="M86.0158 61.4997H86.7253V62.2085H86.0158V61.4997Z" fill="#E5DABC"/>
<path d="M86.7608 61.4997H87.4704V62.2085H86.7608V61.4997Z" fill="#E6DCC0"/>
<path d="M87.5051 61.4997H88.2146V62.2085H87.5051V61.4997Z" fill="#E8DEC6"/>
<path d="M88.2494 61.4997H88.9589V62.2085H88.2494V61.4997Z" fill="#E9E1CB"/>
<path d="M88.9944 61.4997H89.7039V62.2085H88.9944V61.4997Z" fill="#EBE3D1"/>
<path d="M89.7387 61.4997H90.4482V62.2085H89.7387V61.4997Z" fill="#EDE7D5"/>
<path d="M90.4829 61.4997H91.1925V62.2085H90.4829V61.4997Z" fill="#EFEADB"/>
<path d="M91.2279 61.4997H91.9375V62.2085H91.2279V61.4997Z" fill="#F2ECE0"/>
<path d="M91.9722 61.4997H92.6817V62.2085H91.9722V61.4997Z" fill="#F5F1E7"/>
<path d="M92.7165 61.4997H93.426V62.2085H92.7165V61.4997Z" fill="#F7F4ED"/>
<path d="M93.4615 61.4997H94.171V62.2085H93.4615V61.4997Z" fill="#FCFAF5"/>
<path d="M94.2058 61.4997H94.9153L94.9153 62.2085L94.2058 62.2085V61.4997Z" fill="white"/>
<path d="M16.2735 54.0104C16.2735 52.4619 16.2454 51.3969 16.1619 50.1796C16.4686 50.2077 16.8448 50.2491 17.3045 50.2491C17.7642 50.2491 18.1404 50.2077 18.4472 50.1796C18.3636 51.3969 18.3356 52.4619 18.3356 54.0104V55.8914C18.3356 57.4398 18.3636 58.5048 18.4472 59.7221C18.1404 59.6941 17.7642 59.6527 17.3045 59.6527C16.8448 59.6527 16.4686 59.6941 16.1619 59.7221C16.2454 58.5048 16.2735 57.4398 16.2735 55.8914V54.0104Z" fill="#034699"/>
<path d="M20.816 50.1796C21.0251 50.2217 21.2343 50.2491 21.4435 50.2491C21.6519 50.2491 21.8611 50.2218 22.0702 50.1796C24.0769 52.3784 26.0695 54.564 28.1183 56.7628C28.1183 54.564 28.1183 50.8019 28.0207 50.1796C28.2292 50.2217 28.4383 50.2491 28.6475 50.2491C28.8567 50.2491 29.0651 50.2218 29.2743 50.1796C29.0518 54.204 29.0518 56.0436 29.0518 59.7221C28.8567 59.6808 28.6756 59.6527 28.4805 59.6527C28.2853 59.6527 28.1043 59.6808 27.9365 59.7221C26.0274 57.4819 23.9934 55.2417 21.847 53.0008C21.8197 54.0385 21.8197 55.1863 21.8197 56.2232C21.8197 58.4361 21.8611 59.2107 21.9032 59.7221C21.68 59.6808 21.4568 59.6527 21.2484 59.6527C21.0392 59.6527 20.816 59.6808 20.6068 59.7221C20.6771 59.3208 20.8855 55.7532 20.8855 52.932C20.8855 51.6874 20.8301 50.8433 20.816 50.1796Z" fill="#034699"/>
<path d="M31.5041 54.0104C31.5041 52.4619 31.476 51.3969 31.3925 50.1796C31.6992 50.2077 32.0754 50.2491 32.5352 50.2491C33.1486 50.2491 33.8316 50.1796 35.0577 50.1796C38.2344 50.1796 40.4221 51.1892 40.4221 54.6741C40.4221 57.717 38.2211 59.7221 35.601 59.7221C34.2078 59.7221 33.2602 59.6527 32.5352 59.6527C32.0754 59.6527 31.6992 59.6941 31.3925 59.7221C31.476 58.5048 31.5041 57.4398 31.5041 55.8914V54.0104ZM33.5662 56.1959C33.5662 56.9424 33.5662 58.6297 33.5803 58.8921C33.8589 58.9061 34.2351 58.9335 34.8065 58.9335C36.8966 58.9335 38.2211 57.5233 38.2211 54.6467C38.2211 52.3784 36.9528 50.9682 35.0297 50.9682C34.3608 50.9682 34.0127 50.9955 33.5803 51.037C33.5662 51.3001 33.5662 52.9874 33.5662 53.7339V56.1959Z" fill="#034699"/>
<path d="M46.8464 50C49.8006 50 52.128 51.6046 52.128 54.9372C52.128 57.6756 49.9122 59.9017 46.805 59.9017C43.8641 59.9017 41.4953 58.408 41.4953 54.9512C41.4953 52.2269 43.6136 50 46.8464 50ZM46.805 50.7886C44.8959 50.7886 43.7806 52.697 43.7806 55.0754C43.7806 58.0207 45.1465 59.0444 46.7074 59.0444C48.3793 59.0444 49.8427 57.6615 49.8427 54.6467C49.8427 52.2543 48.6025 50.7886 46.805 50.7886Z" fill="#034699"/>
<path d="M57.8686 52.0466C57.5759 51.2587 57.0327 50.8574 56.1827 50.8574C55.3327 50.8574 54.7333 51.4383 54.7333 52.102C54.7333 54.1486 58.9699 53.6371 58.9699 56.7761C58.9699 58.6298 57.4924 59.9017 55.2773 59.9017C54.2736 59.9017 53.4377 59.6113 53.0334 59.3068C53.2145 58.6711 53.3401 58.173 53.4377 57.5507H53.7023C53.8553 58.3526 54.4968 59.0444 55.6254 59.0444C56.7119 59.0444 57.2559 58.408 57.2559 57.6334C57.2559 55.5455 53.1029 56.0991 53.1029 52.9594C53.1029 51.051 54.5803 50 56.2381 50C57.2418 50 57.9942 50.2631 58.5242 50.6778C58.3564 51.1064 58.2588 51.4383 58.0778 52.0466H57.8686Z" fill="#034699"/>
<path d="M68.4873 59.7221C68.0416 59.6941 67.6513 59.6527 67.2611 59.6527C66.8708 59.6527 66.4666 59.6941 66.0763 59.7221C65.7836 58.7813 65.4636 57.8271 65.1147 56.8869C64.5161 56.8729 63.9307 56.8596 63.3313 56.8596C62.8435 56.8596 62.3697 56.8729 61.8819 56.8869C61.5057 57.8271 61.199 58.768 60.9344 59.7221C60.7119 59.6941 60.5028 59.6527 60.2795 59.6527C60.0563 59.6527 59.8479 59.6941 59.5826 59.7221C60.2655 58.187 62.3557 53.2639 63.5545 50.1109C63.7356 50.1382 63.9026 50.1796 64.0837 50.1796C64.2648 50.1796 64.4318 50.1382 64.6136 50.1109C65.7977 53.2639 67.4281 57.4679 68.4873 59.7221ZM64.7947 56.071C64.3904 54.9512 64.0002 53.8581 63.5545 52.7798C63.0807 53.8581 62.6484 54.9512 62.2448 56.071H64.7947Z" fill="#034699"/>
<path d="M70.7319 52.4339C70.7319 51.9084 70.7319 51.4109 70.6898 51.2173C70.1466 51.2173 68.9758 51.3001 68.1399 51.3969C68.1813 51.1892 68.2094 50.9956 68.2094 50.7886C68.2094 50.5809 68.1813 50.3873 68.1399 50.1796C69.4075 50.2217 70.035 50.2491 71.763 50.2491C73.491 50.2491 74.1178 50.2218 75.3026 50.1796C75.2604 50.3873 75.2323 50.5809 75.2323 50.7886C75.2323 50.9956 75.2604 51.1892 75.3026 51.3969C74.5494 51.3001 73.3794 51.2173 72.8221 51.2173C72.794 51.4109 72.794 51.9084 72.794 52.4339V55.8914C72.794 57.4398 72.8221 58.5048 72.9056 59.7221C72.5989 59.6941 72.2227 59.6527 71.763 59.6527C71.3033 59.6527 70.9271 59.6941 70.6203 59.7221C70.7039 58.5048 70.732 57.4398 70.732 55.8914L70.7319 52.4339Z" fill="#034699"/>
<path d="M79.1525 53.4605C78.4511 55.5484 77.9138 57.6504 77.3654 59.7391C77.1503 59.6978 76.933 59.6697 76.7238 59.6697C76.5006 59.6697 76.2863 59.6978 76.0557 59.7391C77.2634 56.558 78.3469 53.3777 79.3595 50.1966C79.5465 50.238 79.7224 50.2661 79.9175 50.2661C80.0986 50.2661 80.2989 50.238 80.4888 50.1966C81.0749 52.3954 81.7771 54.8574 82.4127 56.8071C83.9168 54.7465 85.5199 52.3954 86.9545 50.1966C87.1414 50.238 87.3447 50.2661 87.5398 50.2661C87.7349 50.2661 87.9352 50.238 88.1385 50.1966C87.8776 53.3777 87.5014 57.7887 87.4681 59.7391C87.1001 59.6978 86.729 59.6697 86.3528 59.6697C85.9766 59.6697 85.5812 59.6978 85.1828 59.7391C85.4615 57.8167 85.6854 55.4657 85.882 53.3223H85.8547C84.389 55.4657 82.9411 57.5957 81.5176 59.7391C81.4371 59.7251 81.3425 59.7111 81.2582 59.7111C81.1747 59.7111 81.0749 59.7251 80.9884 59.7391C80.4082 57.6504 79.8162 55.5484 79.1806 53.4605H79.1525Z" fill="#A58520"/>
<path d="M88.5649 59.1168C91.9316 56.5167 93.3484 54.8293 93.7061 53.0044C94.001 51.4967 93.4024 50.9993 92.6914 50.9993C91.6603 50.9993 91.0993 52.2986 90.9722 53.0178L90.8244 53.0591C90.5302 52.714 90.222 52.4368 89.9168 52.1464C90.446 51.1508 91.5317 50.3769 93.1614 50.3769C95.7394 50.3769 96.1622 51.7044 95.9538 52.7687C95.7158 53.986 94.7254 55.272 90.9559 58.0104L90.9641 58.0377C92.2767 58.0244 93.6004 58.0244 94.9294 57.9276C94.8562 58.2314 94.7571 58.5218 94.698 58.8264C94.6381 59.1301 94.6204 59.4346 94.5746 59.7391C93.5347 59.7111 92.5118 59.6697 91.4667 59.6697C90.4637 59.6697 89.4519 59.7111 88.443 59.7391L88.5649 59.1168Z" fill="#A58520"/>
</g>
<rect x="1" y="1" width="110" height="110" rx="9" stroke="black" stroke-opacity="0.1" stroke-width="2"/>
<defs>
<clipPath id="clip0_755_469">
<rect x="2" y="2" width="108" height="108" rx="8" fill="white"/>
</clipPath>
</defs>
</svg>
