<svg width="112" height="112" viewBox="0 0 112 112" fill="none" xmlns="http://www.w3.org/2000/svg">
<g clip-path="url(#clip0_505_171)">
<rect x="1.99988" y="2" width="108" height="108" rx="8" fill="white"/>
<g clip-path="url(#clip1_505_171)">
<mask id="mask0_505_171" style="mask-type:luminance" maskUnits="userSpaceOnUse" x="16" y="24" width="80" height="64">
<path d="M95.7497 24.2181H16.2145V87.8463H95.7497V24.2181Z" fill="white"/>
</mask>
<g mask="url(#mask0_505_171)">
<path d="M16.5885 26.257C16.47 26.1492 16.3757 26.0192 16.3113 25.875C16.2469 25.7308 16.2139 25.5754 16.2142 25.4185C16.2121 25.2601 16.2443 25.103 16.3087 24.9572C16.3732 24.8114 16.4685 24.6801 16.5885 24.5717C16.7019 24.4592 16.8376 24.3699 16.9877 24.3092C17.1378 24.2484 17.2991 24.2175 17.462 24.2182C17.6261 24.2159 17.7889 24.2461 17.9403 24.3069C18.0917 24.3677 18.2286 24.4579 18.3422 24.5717C18.4603 24.6812 18.5536 24.8129 18.6166 24.9585C18.6795 25.1042 18.7106 25.2608 18.708 25.4185C18.7089 25.5747 18.6769 25.7296 18.614 25.8737C18.5512 26.0177 18.4587 26.1481 18.3422 26.257C18.2291 26.3721 18.0926 26.4634 17.9411 26.5254C17.7897 26.5873 17.6266 26.6186 17.462 26.6171C17.2985 26.6177 17.1367 26.586 16.9865 26.5241C16.8363 26.4621 16.7008 26.3713 16.5885 26.257ZM16.3612 27.3241H18.5627V34.9451H16.3612V27.3241Z" fill="#4D4D4F"/>
<path d="M19.4432 30.7956C19.432 30.1275 19.6093 29.4689 19.956 28.8899C20.2884 28.3385 20.7698 27.884 21.3491 27.5745C21.9717 27.2476 22.6721 27.0822 23.3814 27.0944C24.0828 27.0819 24.7755 27.2451 25.3915 27.568C25.9697 27.8749 26.4515 28.3258 26.7862 28.8735C27.1355 29.4563 27.3128 30.1197 27.299 30.7923V34.9457H25.0924V30.7956C25.0988 30.5783 25.0584 30.3621 24.9737 30.1606C24.8889 29.9591 24.7617 29.7767 24.6001 29.6249C24.439 29.4717 24.2474 29.3516 24.0368 29.2716C23.8262 29.1916 23.6009 29.1535 23.3745 29.1596C23.146 29.1524 22.9183 29.1899 22.7053 29.2699C22.4923 29.3499 22.2984 29.4707 22.1353 29.6249C21.9737 29.7767 21.8465 29.9591 21.7618 30.1606C21.677 30.3621 21.6366 30.5783 21.6431 30.7956V34.9457H19.4432V30.7956Z" fill="#4D4D4F"/>
<path d="M29.7655 34.6353C29.1649 34.2793 28.6716 33.7782 28.3348 33.1818C27.9786 32.5545 27.7967 31.8494 27.8067 31.1347C27.8025 30.5988 27.9046 30.067 28.1075 29.5678C28.3003 29.0898 28.5863 28.6517 28.9502 28.2771C29.3063 27.9097 29.7352 27.6146 30.2116 27.4089C30.7017 27.1997 31.2326 27.0938 31.7687 27.0982C32.2047 27.0946 32.6376 27.1688 33.0456 27.3168C33.4251 27.457 33.7732 27.6657 34.0711 27.9318V24.9245H36.2727V34.9542H34.0711V34.3245C33.7769 34.5984 33.428 34.8122 33.0456 34.9527C32.638 35.1021 32.2049 35.1767 31.7687 35.1729C31.0615 35.1803 30.3666 34.9938 29.7655 34.6353ZM33.4917 32.5537C33.6837 32.3676 33.8341 32.1458 33.9337 31.9018C34.0334 31.6578 34.0801 31.3968 34.0711 31.1347C34.0748 30.7862 33.9841 30.4428 33.8079 30.1383C33.6377 29.8435 33.3894 29.5973 33.0883 29.4247C32.7723 29.2487 32.4124 29.1588 32.0474 29.165C31.6796 29.1595 31.3171 29.2492 30.9979 29.4247C30.6932 29.5952 30.4422 29.8418 30.2714 30.1383C30.0937 30.4441 30.0024 30.7894 30.0065 31.1397C29.997 31.4004 30.0433 31.6602 30.1423 31.9031C30.2414 32.1459 30.3912 32.3666 30.5825 32.5516C30.7738 32.7365 31.0025 32.8817 31.2544 32.9782C31.5064 33.0748 31.7763 33.1205 32.0474 33.1127C32.315 33.1194 32.5813 33.0732 32.8297 32.977C33.0781 32.8809 33.3034 32.7368 33.4917 32.5537Z" fill="#4D4D4F"/>
<path d="M39.4039 34.8533C38.6459 34.5437 37.9997 34.0256 37.5469 33.3638C37.0942 32.702 36.8548 31.9263 36.859 31.1341C36.8497 30.424 37.0398 29.7248 37.4093 29.11C37.7717 28.5065 38.2898 28.0031 38.9134 27.6483C39.581 27.2872 40.3337 27.0975 41.0995 27.0975C41.8653 27.0975 42.6183 27.2872 43.2858 27.6483C43.9094 28.0031 44.4273 28.5065 44.7898 29.11C45.1592 29.7248 45.3494 30.424 45.3403 31.1341C45.3458 31.9266 45.107 32.7029 44.6538 33.3649C44.2008 34.0269 43.5541 34.5448 42.7951 34.8533C41.708 35.2786 40.4911 35.2786 39.4039 34.8533ZM42.149 32.8424C42.4537 32.668 42.7054 32.4197 42.8788 32.1222C43.0519 31.818 43.1424 31.4767 43.1424 31.1299C43.1424 30.7832 43.0519 30.4419 42.8788 30.1377C42.7052 29.8437 42.4548 29.5983 42.1524 29.4257C41.8328 29.2501 41.4711 29.1577 41.1029 29.1577C40.7348 29.1577 40.3731 29.2501 40.0534 29.4257C39.7499 29.5979 39.4984 29.8433 39.3236 30.1377C39.1462 30.4411 39.0555 30.7843 39.0604 31.1324C39.0575 31.4787 39.1515 31.8194 39.3321 32.119C39.5082 32.4156 39.7607 32.6637 40.0654 32.8391C40.3776 33.0191 40.7357 33.1119 41.0995 33.1071C41.4682 33.1143 41.8316 33.0226 42.149 32.8424Z" fill="#4D4D4F"/>
<path d="M47.3434 34.8677C46.845 34.6899 46.4043 34.388 46.0667 33.993C45.7457 33.6018 45.577 33.115 45.5897 32.6168H47.7468C47.7553 32.7452 47.7973 32.8695 47.8691 32.9782C47.9407 33.0868 48.0397 33.1763 48.1569 33.2383C48.4207 33.3915 48.7241 33.4696 49.0322 33.4636C49.4219 33.4636 49.7005 33.3978 49.8681 33.2663C49.9453 33.2102 50.008 33.1377 50.0514 33.0543C50.0946 32.9711 50.1173 32.8793 50.1175 32.7861C50.1222 32.7028 50.1059 32.6196 50.0701 32.5435C50.0345 32.4674 49.9804 32.4006 49.9124 32.3488C49.7768 32.2463 49.614 32.1825 49.4424 32.1646L48.063 32.0002C47.4305 31.9474 46.8342 31.6941 46.3674 31.28C46.1544 31.0785 45.9875 30.8362 45.8779 30.5689C45.768 30.3016 45.7177 30.0151 45.7298 29.7279C45.7112 29.2335 45.8495 28.7454 46.1263 28.3286C46.4075 27.9328 46.7959 27.6184 47.2495 27.4194C47.7577 27.1943 48.312 27.0819 48.8714 27.0905C49.4435 27.0827 50.0114 27.1833 50.5432 27.3865C51.0105 27.5629 51.4226 27.8523 51.7396 28.2267C52.0417 28.5996 52.2041 29.0595 52.2011 29.5322H50.0304C50.016 29.4209 49.9753 29.3142 49.9116 29.2202C49.848 29.1262 49.763 29.0473 49.6628 28.9896C49.4611 28.8574 49.2233 28.7859 48.9792 28.7841C48.7203 28.7718 48.4647 28.843 48.2528 28.9863C48.1666 29.0452 48.0967 29.1235 48.0494 29.2144C48.002 29.3052 47.9786 29.4059 47.981 29.5075C47.9753 29.604 47.9979 29.7 48.046 29.7848C48.0939 29.8696 48.1655 29.9398 48.2528 29.9877C48.4484 30.0959 48.6658 30.1632 48.8904 30.185L49.745 30.2836C50.5568 30.379 51.1944 30.6223 51.6593 31.0186C51.8837 31.2025 52.0629 31.4322 52.1835 31.691C52.3041 31.9498 52.3632 32.2313 52.3566 32.5148C52.3685 33.0088 52.2282 33.4951 51.9532 33.9125C51.6722 34.317 51.2783 34.6372 50.8166 34.8364C50.2788 35.0652 49.6954 35.1775 49.1074 35.1654C48.505 35.1752 47.9062 35.0741 47.3434 34.8677Z" fill="#4D4D4F"/>
<path d="M59.0298 27.6491C59.6534 28.0039 60.1713 28.5073 60.5338 29.1108C60.9032 29.7256 61.0934 30.4248 61.0843 31.1349V34.9461H58.8827V34.3674C58.6122 34.6228 58.2897 34.8222 57.9358 34.9527C57.5465 35.1018 57.1308 35.1766 56.7119 35.1731C56.1561 35.1771 55.6058 35.0684 55.0968 34.8541C54.6058 34.6482 54.1619 34.3509 53.7909 33.9794C53.4186 33.6056 53.123 33.1677 52.919 32.6886C52.4907 31.7056 52.4839 30.5994 52.9001 29.6115C53.3163 28.6236 54.1221 27.8342 55.1411 27.4156C55.6782 27.2002 56.255 27.0923 56.8367 27.0983C57.6065 27.0835 58.3657 27.2741 59.0298 27.6491ZM57.893 32.8432C58.1966 32.6684 58.4469 32.4201 58.6194 32.123C58.7921 31.819 58.8827 31.478 58.8827 31.1316C58.8827 30.7851 58.7921 30.4442 58.6194 30.1401C58.4458 29.8461 58.1954 29.6007 57.893 29.4281C57.5734 29.2525 57.2117 29.1602 56.8435 29.1602C56.4754 29.1602 56.1137 29.2525 55.794 29.4281C55.492 29.6003 55.2417 29.8451 55.0676 30.1385C54.8949 30.4425 54.8046 30.7834 54.8046 31.1299C54.8046 31.4764 54.8949 31.8173 55.0676 32.1214C55.2401 32.4184 55.4907 32.6667 55.794 32.8416C56.1137 33.0172 56.4754 33.1095 56.8435 33.1095C57.2117 33.1095 57.5734 33.0188 57.893 32.8432Z" fill="#4D4D4F"/>
<path d="M63.3438 34.7425C62.8254 34.4645 62.3943 34.0572 62.0961 33.5635C61.7889 33.0487 61.6318 32.4636 61.6414 31.87V25.4904H63.843V27.3254H65.8822V29.3987H63.843V31.8651C63.8413 32.0285 63.8737 32.1906 63.9379 32.3419C64.0023 32.4932 64.0972 32.6307 64.2174 32.7463C64.3375 32.8619 64.4804 32.9532 64.6376 33.0151C64.795 33.0769 64.9635 33.108 65.1334 33.1065H65.8822V35.1733H65.1334C64.5081 35.182 63.8911 35.0336 63.3438 34.7425Z" fill="#4D4D4F"/>
<path d="M90.7672 49.5675C90.1045 49.5664 89.4483 49.6933 88.8374 49.9404C88.2263 50.1875 87.6731 50.55 87.2103 51.0063H87.1899C86.7399 51.5623 86.1226 51.9712 85.4223 52.1772C84.7218 52.3832 83.9725 52.3762 83.2762 52.1575C82.58 51.9386 81.971 51.5184 81.5323 50.9543C81.0935 50.3901 80.8464 49.7095 80.8246 49.0053V37.7374C80.8246 37.6995 80.8246 37.6618 80.8246 37.624C80.8246 36.9903 81.0861 36.3827 81.552 35.9346C82.0176 35.4866 82.6494 35.2349 83.3082 35.2349C83.9668 35.2349 84.5985 35.4866 85.0642 35.9346C85.53 36.3827 85.7916 36.9903 85.7916 37.624V39.9555C85.7916 41.2227 86.315 42.4379 87.2465 43.334C88.178 44.2301 89.4415 44.7335 90.7587 44.7335C92.0762 44.7335 93.3395 44.2301 94.271 43.334C95.2025 42.4379 95.7259 41.2227 95.7259 39.9555V37.624C95.7452 36.0435 95.4382 34.4753 94.8228 33.0098C94.2075 31.5444 93.2959 30.211 92.1409 29.0869C90.986 27.9628 89.6108 27.0703 88.0947 26.4613C86.5786 25.8521 84.9519 25.5385 83.3089 25.5385C81.666 25.5385 80.0393 25.8521 78.5232 26.4613C77.0071 27.0703 75.6319 27.9628 74.4769 29.0869C73.3219 30.211 72.4103 31.5444 71.7951 33.0098C71.1796 34.4753 70.8728 36.0435 70.892 37.624C70.892 37.6618 70.892 37.6995 70.892 37.7374V83.0687C70.8914 83.6959 71.019 84.3172 71.268 84.8969C71.5169 85.4767 71.8822 86.0036 72.3427 86.4476C72.8033 86.8915 73.3504 87.2439 73.9525 87.4846C74.5547 87.7253 75.2003 87.8493 75.8523 87.8501C76.5053 87.8507 77.1519 87.7276 77.7555 87.4875C78.359 87.2473 78.9072 86.8953 79.3691 86.4512C79.831 86.0072 80.1972 85.4798 80.447 84.8993C80.6968 84.3189 80.825 83.6968 80.8246 83.0687V59.7931C80.8236 59.1172 81.0306 58.4563 81.4196 57.8935C81.8086 57.3307 82.3621 56.8912 83.0101 56.6304C83.6583 56.3697 84.3722 56.2994 85.0617 56.4282C85.7514 56.5571 86.386 56.8795 86.8855 57.3546C87.4122 57.9869 88.0969 58.4804 88.8758 58.7891C89.6545 59.0975 90.5019 59.2112 91.3388 59.1191C92.1756 59.0269 92.9745 58.7322 93.6606 58.2624C94.3469 57.7926 94.8982 57.1631 95.2627 56.4327C95.6272 55.7023 95.7933 54.8949 95.7454 54.0861C95.6973 53.2771 95.4369 52.4931 94.9885 51.8074C94.5399 51.1215 93.9178 50.5564 93.1806 50.1646C92.4432 49.773 91.6147 49.5675 90.7724 49.5675H90.7672Z" fill="#FFB71B"/>
<path d="M65.8549 49.6233C65.8549 46.9845 63.6309 44.8453 60.8877 44.8453C58.1445 44.8453 55.9205 46.9845 55.9205 49.6233V83.0669C55.9205 85.7058 58.1445 87.8451 60.8877 87.8451C63.6309 87.8451 65.8549 85.7058 65.8549 83.0669V49.6233Z" fill="#D9117C"/>
<path d="M45.9864 54.4008C44.6693 54.4011 43.4062 54.9047 42.4751 55.8008C41.544 56.6969 41.0209 57.9119 41.0209 59.1787V68.7334L40.9713 71.1751C40.98 71.491 40.9228 71.8052 40.8032 72.0994C40.6835 72.3937 40.5038 72.6619 40.2746 72.8883C40.0455 73.1146 39.7715 73.2945 39.4689 73.4174C39.1663 73.5402 38.8411 73.6034 38.5126 73.6034C38.1842 73.6034 37.859 73.5402 37.5564 73.4174C37.2538 73.2945 36.9798 73.1146 36.7507 72.8883C36.5215 72.6619 36.3418 72.3937 36.2221 72.0994C36.1024 71.8052 36.0453 71.491 36.0538 71.1751V68.7334C36.0538 68.1058 35.9254 67.4845 35.6756 66.9048C35.4258 66.325 35.0597 65.7983 34.5983 65.3548C34.1369 64.9112 33.5891 64.5595 32.9863 64.3196C32.3834 64.0796 31.7374 63.9565 31.085 63.9569C29.7696 63.9592 28.5088 64.4633 27.5795 65.3588C26.6501 66.2543 26.1282 67.468 26.1282 68.7334V83.0677C26.1273 84.3338 26.6488 85.5485 27.5782 86.4449C28.5076 87.3416 29.7688 87.8465 31.085 87.8491C32.4024 87.8491 33.6658 87.3458 34.5973 86.4497C35.5288 85.5536 36.0521 84.3382 36.0521 83.0709V80.641C36.0436 80.3251 36.1007 80.0107 36.2204 79.7164C36.3401 79.4222 36.5198 79.154 36.749 78.9277C36.9781 78.7012 37.2521 78.5213 37.5547 78.3986C37.8573 78.2757 38.1825 78.2125 38.5108 78.2125C38.8394 78.2125 39.1646 78.2757 39.4672 78.3986C39.7698 78.5213 40.0438 78.7012 40.2729 78.9277C40.5021 79.154 40.6818 79.4222 40.8015 79.7164C40.9211 80.0107 40.9783 80.3251 40.9696 80.641L41.0192 83.0677C41.0189 83.6955 41.1469 84.3172 41.3963 84.8972C41.6459 85.4773 42.0115 86.0045 42.4728 86.4485C42.9341 86.8926 43.4818 87.2448 44.0848 87.4852C44.6875 87.7255 45.3338 87.8491 45.9864 87.8491C47.3037 87.8491 48.5671 87.3458 49.4986 86.4497C50.4302 85.5536 50.9534 84.3382 50.9534 83.0709V59.1787C50.9534 57.9117 50.4302 56.6963 49.4986 55.8002C48.5671 54.9041 47.3037 54.4008 45.9864 54.4008Z" fill="#D9117C"/>
<path d="M95.7205 68.7361C95.7205 66.0972 93.4967 63.9579 90.7535 63.9579C88.0103 63.9579 85.7864 66.0972 85.7864 68.7361V83.0689C85.7864 85.7078 88.0103 87.8469 90.7535 87.8469C93.4967 87.8469 95.7205 85.7078 95.7205 83.0689V68.7361Z" fill="#FFB71B"/>
</g>
</g>
</g>
<rect x="1" y="1" width="110" height="110" rx="9" stroke="black" stroke-opacity="0.1" stroke-width="2"/>
<defs>
<clipPath id="clip0_505_171">
<rect x="2" y="2" width="108" height="108" rx="8" fill="white"/>
</clipPath>
<clipPath id="clip1_505_171">
<rect width="80" height="64" fill="white" transform="translate(16 24)"/>
</clipPath>
</defs>
</svg>
