<svg width="112" height="112" viewBox="0 0 112 112" fill="none" xmlns="http://www.w3.org/2000/svg">
<g clip-path="url(#clip0_755_470)">
<rect x="1.99988" y="2" width="108" height="108" rx="8" fill="white"/>
<path fill-rule="evenodd" clip-rule="evenodd" d="M26.1915 63.0646C26.1915 61.853 25.2294 60.8909 24.0178 60.8909C22.8062 60.8909 21.8441 61.853 21.8441 63.0646V65.8441C21.8441 67.0557 22.8062 68.0178 24.0178 68.0178C25.2294 68.0178 26.1915 67.0557 26.1915 65.8441V63.0646Z" fill="#87CCD4"/>
<path fill-rule="evenodd" clip-rule="evenodd" d="M20.2049 66.0935C20.2049 64.9176 19.2784 63.9911 18.1024 63.9911C16.9265 63.9911 16 64.9176 16 66.0935V65.9154C16 67.0913 16.9265 68.0178 18.1024 68.0178C19.2784 68.0178 20.2049 67.0913 20.2049 65.9154V66.0935Z" fill="#F89F32"/>
<path fill-rule="evenodd" clip-rule="evenodd" d="M31.1091 62.0312C31.1091 62.0668 31.1091 62.1024 31.1091 62.1381V61.9599C31.1091 61.9955 31.1091 62.0312 31.1091 62.0668C31.1804 60.6058 32.2851 60.392 32.2851 58.8597C32.2851 57.5056 31.8931 55.9733 30.1826 55.9733C28.4722 55.9733 28.0802 57.4699 28.0802 58.8597C28.0802 60.4276 29.1849 60.6414 29.2561 62.0668C29.1849 63.4922 28.0802 63.706 28.0802 65.2027C28.0802 66.5568 28.5078 68.0534 30.1826 68.0534C31.8575 68.0534 32.2851 66.5568 32.2851 65.2027C32.2851 63.6704 31.1804 63.4922 31.1091 62.0668V62.0312Z" fill="#B210A5"/>
<path fill-rule="evenodd" clip-rule="evenodd" d="M53.8797 62.9577V65.0958L53.951 66.735V67.3764L53.7016 67.3408L53.2027 67.3051C52.7751 67.3051 52.3118 67.3051 51.8842 67.3764C51.9198 67.1269 51.9198 66.9131 51.9198 66.6637L52.0267 65.1314L52.1336 62.5301V60.6771C52.1336 59.8218 52.1693 58.6459 51.706 57.8975C51.2428 57.2205 50.4232 56.8285 49.6036 56.8285C48.2494 56.8285 47.1091 57.5768 46.6815 58.8953C46.539 59.5367 46.539 60.1782 46.5033 60.8552C46.4677 61.8174 46.4677 62.8508 46.4677 63.8129C46.4677 64.49 46.4677 65.167 46.5033 65.8085V66.8419L46.5746 67.3764C46.2183 67.3051 45.8976 67.3051 45.5768 67.3051C45.2205 67.3051 44.8285 67.3051 44.4722 67.3764C44.5078 67.1982 44.5078 67.0557 44.5078 66.8775L44.6503 64.0267V60.2494C44.6503 59.3942 44.6147 58.4677 44.0802 57.755C43.5813 57.1136 42.8686 56.8641 42.0846 56.8641C40.9087 56.8641 39.8753 57.4699 39.412 58.5746C39.02 59.5724 39.02 60.7127 39.02 61.7461V65.0958L39.0913 66.8419L39.1269 67.3408L38.8775 67.3051C38.6281 67.2695 38.3786 67.2695 38.0935 67.2695C37.7372 67.2695 37.4165 67.2695 37.0601 67.3408C37.0958 67.1626 37.0958 66.9488 37.0958 66.7706L37.2739 61.9599V59.0379L37.167 56.3296V55.7595L37.3452 55.7951C37.6303 55.8307 37.8797 55.8307 38.1648 55.8307C38.4855 55.8307 38.8062 55.7951 39.1269 55.7595C39.0557 56.4365 39.0913 57.1136 39.0913 57.8263C39.9822 56.4365 41.0869 55.6169 42.7973 55.6169C44.4009 55.6169 45.8619 56.4365 46.3608 58.0045C47.2873 56.4365 48.5345 55.6526 50.3875 55.6526C52.5612 55.6526 54.0579 56.9354 54.0579 59.1804C54.0579 59.9287 54.0223 60.6414 53.9866 61.4254L53.9154 62.9577H53.8797ZM86.735 58.2895V56.9354C87.9109 56.1158 89.2294 55.5457 90.6904 55.5457C91.7951 55.5457 92.9354 55.902 93.7194 56.686C94.6102 57.6125 94.6815 58.4677 94.6459 59.6793L94.5746 62.6013C94.5746 63.1715 94.539 63.7773 94.539 64.3474C94.539 65.0601 94.4321 66.5568 95.4655 66.5568C95.6437 66.5568 95.8575 66.5568 96.0356 66.4499V66.9844C96 67.02 95.9287 67.02 95.8575 67.0557C95.6437 67.0913 95.5011 67.1626 95.2873 67.2338C94.0044 67.4477 92.971 67.2695 92.7572 65.8085L92.5434 66.0223C91.51 67.0557 90.4053 67.5546 88.9087 67.5546C87.1626 67.5546 85.6659 66.3786 85.6659 64.5612C85.6659 63.5278 86.1648 62.3519 87.1269 61.853C88.0891 61.3541 89.1225 61.1759 90.2272 61.0334C90.9399 60.9265 91.7238 60.8552 92.3652 60.4632C92.5078 60.392 92.6503 60.3207 92.7216 60.1782C92.8285 59.9287 92.7929 59.6437 92.7929 59.3586C92.7929 57.5412 91.7595 56.4365 89.9421 56.4365C88.873 56.4365 87.8396 56.9354 87.2338 57.8263C87.1269 57.9332 87.0557 58.0401 87.02 58.1826H86.735V58.2895ZM92.7929 61.2472C92.7216 61.2828 92.6503 61.2828 92.5791 61.3541L91.8307 61.4967C90.1559 61.8174 87.6615 62.0668 87.6615 64.2762C87.6615 65.8085 88.5523 66.5924 90.049 66.5924C90.7261 66.5924 91.5457 66.1292 92.0445 65.7016C92.1871 65.5234 92.3296 65.3452 92.4722 65.2027C92.5791 65.1314 92.6147 65.0245 92.6503 64.9176L92.7572 61.2828L92.7929 61.2472ZM75.9733 65.0245C76.5434 65.9866 77.6481 66.7706 78.7884 66.7706C80 66.7706 81.1759 65.9154 81.1759 64.6325C81.1759 62.9577 79.608 62.7082 78.3252 62.3163C77.6481 62.1024 76.9354 61.8886 76.4009 61.4254C75.7951 60.8909 75.4031 60 75.4031 59.216C75.4031 56.8641 77.1849 55.5813 79.3942 55.5813C80.2851 55.5813 81.1403 55.7595 81.9955 56.1514C82.0312 56.1871 82.1024 56.1871 82.1737 56.2227C81.9243 56.7929 81.7461 57.363 81.6036 57.9688H81.3898C81.069 57.1492 80.2138 56.4009 79.3229 56.4009C78.1114 56.4009 77.1136 57.0779 77.1136 58.3964C77.1136 59.8575 78.2183 60.3207 79.4298 60.6414C79.9644 60.784 81.1759 61.1403 81.6392 61.461C82.4588 62.1024 82.8508 62.7439 82.8508 63.8129C82.8508 65.3452 82.1024 66.3073 80.8909 67.0913C80.2494 67.5189 79.1091 67.6615 78.3608 67.6615C77.363 67.6615 76.1514 67.3764 75.2962 66.8775C75.51 66.3073 75.7238 65.7016 75.7951 65.0958H75.9733V65.0245ZM72.0178 64.5256L72.0535 67.0557L72.0891 67.3051L71.4477 67.2695C70.9488 67.2338 70.4855 67.2338 69.9866 67.3051C70.0223 67.0557 70.0223 66.8062 70.0223 66.5568L70.2004 60.8909V51.3764L70.1292 44.1782L70.0935 44L70.4143 44.0713H71.9465C72.0534 44.0356 72.1604 44.0356 72.2673 44C72.2316 44.2138 72.2316 44.4276 72.2316 44.6771L72.0535 55.0824V64.5256H72.0178ZM66.9577 61.4254L62.0045 61.3541L58.5122 61.4254C58.2984 64.2049 59.8307 66.5568 62.7884 66.5568C63.9644 66.5568 65.3541 65.951 66.1737 65.0958C66.245 64.9889 66.3163 64.9532 66.5301 64.9176L66.3875 66.1292C65.1759 66.9844 63.6793 67.5902 62.1826 67.5902C61.6125 67.5902 61.0423 67.4477 60.4722 67.3051C59.1893 67.02 58.0134 66.1292 57.3007 64.9889C56.588 63.8842 56.4098 62.7795 56.4098 61.4967C56.4098 60 56.9087 58.1826 57.9421 57.0779C58.9755 55.9733 60.5078 55.4388 62.0045 55.4388C65.1759 55.4388 66.8864 57.363 67.0289 60.4276L66.9933 61.3898L66.9577 61.4254ZM62.0045 56.294C59.6882 56.294 58.6904 58.4677 58.5479 60.4632C59.6169 60.4989 60.686 60.5345 61.755 60.5345C62.8597 60.5345 63.9644 60.4989 65.069 60.4632C65.0334 58.3964 64.4276 56.294 62.0045 56.294Z" fill="black"/>
</g>
<rect x="1" y="1" width="110" height="110" rx="9" stroke="black" stroke-opacity="0.1" stroke-width="2"/>
<defs>
<clipPath id="clip0_755_470">
<rect x="2" y="2" width="108" height="108" rx="8" fill="white"/>
</clipPath>
</defs>
</svg>
