<svg width="112" height="112" viewBox="0 0 112 112" fill="none" xmlns="http://www.w3.org/2000/svg">
<g clip-path="url(#clip0_764_966)">
<rect x="1.99988" y="2" width="108" height="108" rx="8" fill="white"/>
<path fill-rule="evenodd" clip-rule="evenodd" d="M59.172 78.4797C60.102 78.2308 59.6959 81.6975 59.5868 82.3218C59.4121 83.3086 58.8926 85.3345 57.8054 85.0856C56.1157 84.697 57.9146 78.8159 59.172 78.4797ZM51.575 77.4493C52.6971 76.9559 51.8239 80.5885 50.8153 80.9509C49.7543 81.3307 50.5228 77.9077 51.575 77.4493ZM42.2577 74.7729C43.5981 74.7336 45.4712 76.2224 45.0608 77.7025C44.7115 78.9599 42.8865 79.6105 41.3409 79.7546L42.2577 74.7729ZM42.6201 72.4807C42.118 72.3322 41.6683 72.1838 41.0964 72.1969C40.3498 72.2143 40.3105 72.4152 40.1053 73.0046C39.0487 73.1749 38.254 73.2054 37.5904 73.8385C37.2062 74.2053 37.1101 74.3537 37.4114 74.8515C37.6166 75.192 37.8742 75.6068 38.1405 75.7858C38.4461 75.3885 38.957 75.0261 39.6556 74.8864C39.3543 76.9472 37.4201 85.675 37.586 86.5788C38.027 86.6705 38.4549 86.7578 38.9002 86.8102C39.1011 86.832 39.7472 86.8888 39.9568 86.8189C40.1708 86.7491 40.1096 86.7447 40.1838 86.6312C40.2493 86.5264 40.52 84.4962 40.5768 84.16C40.6598 83.6579 40.8562 82.025 41.0309 81.7193L42.2883 83.0946C42.9782 83.9155 44.3185 85.2777 45.1568 86.2077C45.3271 86.3954 45.7987 86.9936 46.0693 86.9412C46.5234 86.8539 47.6848 85.7492 47.9642 85.4698C48.7632 86.2251 49.5622 86.9062 50.9332 86.9586C52.8106 87.0285 53.4568 86.0025 54.0244 85.6226C53.9327 86.653 53.7188 87.8537 53.5397 88.8885C53.4655 89.3163 53.3869 89.3513 53.6227 89.5696C54.103 90.0193 54.8714 90.3293 55.5656 90.3991L56.369 85.7405C56.5654 85.8453 56.5349 85.8627 56.727 86.0199C57.1112 86.3299 57.6744 86.6268 58.1984 86.6792C60.412 86.8975 61.4642 83.7758 61.8572 81.9726C62.2326 80.2479 62.1148 78.5714 61.1935 77.4362C60.3421 76.3883 58.6044 76.3228 57.4387 77.5934C57.3251 76.48 56.465 76.4145 55.3691 76.3272L54.4566 82.6668L53.5048 82.3131C53.3258 82.5401 53.2516 83.0073 53.1293 83.2737C52.9852 83.588 52.7975 83.8762 52.6098 84.0989C52.243 84.5267 51.7846 84.9459 51.0423 85.1685C48.9553 85.7929 49.1867 82.9724 49.5186 81.9813C50.2215 82.3175 51.1209 82.8501 52.1295 82.4572C52.8499 82.1734 53.2952 81.4661 53.5528 80.6016C55.0155 75.6592 49.8111 74.7117 48.117 79.1564C47.3311 81.2172 47.043 82.5314 47.4752 84.6053C46.9644 84.4088 43.8077 82.0206 43.5981 81.0077C43.9562 80.7631 48.1825 79.7982 47.3835 76.6503C46.8465 74.5327 44.4321 73.6333 42.5284 73.1967L42.6114 72.4763L42.6201 72.4807ZM74.8769 78.746C76.2696 78.1697 75.4663 84.8935 73.8988 85.0201C72.1568 85.1598 73.6413 79.2568 74.8769 78.746ZM72.9863 71.7515C73.1173 71.8214 73.9818 72.0484 74.7197 72.4108C74.3224 73.5373 73.7591 76.1744 73.6325 77.4711C74.3922 77.2222 76.4137 75.9473 77.4834 77.947C78.6841 80.1868 77.5489 84.8105 75.4357 86.0854C74.497 86.653 72.9907 86.7272 72.0258 86.2994C71.5805 86.1029 71.5499 85.9806 71.2661 85.6444C70.8513 85.7449 68.3932 87.8319 67.5113 84.0727C67.1838 84.4307 66.9611 86.4434 65.2627 86.5919C64.1275 86.6923 62.9487 85.9282 62.5732 84.6315C62.0493 82.8196 62.6562 80.3091 63.1844 78.5321C63.3635 77.9339 63.6342 77.3227 63.787 76.7725C64.5991 76.7463 65.1972 76.8948 65.9133 77.1087C65.695 78.65 64.2541 83.6229 65.0793 84.8062C65.4985 84.8193 65.5814 84.5093 65.7299 84.16C65.8696 83.8369 65.97 83.5094 66.0748 83.1558C66.5813 81.4748 67.2537 78.2002 67.4894 76.528C68.6115 76.4189 69.1704 76.9559 69.917 77.2659C69.7773 78.1042 69.5328 78.9163 69.4105 79.8026C69.2795 80.7544 69.1835 81.7673 69.2621 82.7585C69.524 86.0068 70.7771 84.3564 70.7116 83.7146C70.323 79.7939 71.5412 75.5238 72.3838 71.7603H72.9863V71.7515ZM23.322 73.4543C23.3525 73.0963 23.4049 73.0395 23.1604 72.8998C22.6845 72.6291 21.5668 72.8212 21.0996 72.9216C20.6368 73.0221 20.532 73.0002 20.3137 73.3539C19.3314 74.9475 18.6284 76.7027 18.0128 78.519C17.5544 79.8812 15.9913 85.2864 16 86.4827C16.62 86.9586 17.633 87.356 18.4276 87.679C18.6634 86.9193 18.8205 85.8584 19.0083 85.0419C19.2091 84.1818 19.4274 83.3042 19.637 82.4572L20.9643 77.5934C21.008 77.5017 21.0123 77.5017 21.0516 77.4493C21.0909 78.5321 21.1477 84.1032 21.5362 84.8804C21.7982 85.4043 22.7151 85.5921 23.5097 85.4218C24.4615 82.2826 25.7059 79.2001 27.0375 76.2137C27.0856 76.1089 27.1205 76.0085 27.1729 75.8993L27.3388 75.633L26.9939 84.4219C26.9589 86.1727 26.828 86.6923 27.9544 87.0154C28.4871 87.1682 29.3035 87.2599 29.9017 87.2468C29.4433 84.0421 29.3559 77.6414 29.4389 74.0656C29.4782 72.2886 29.7882 72.3453 28.0199 71.9742C27.2078 71.8039 27.0244 72.1183 26.7144 72.6073C25.9154 73.8516 24.8545 76.5892 24.3306 78.0736C24.1996 78.4404 23.418 80.7981 23.3045 80.9291C23.0382 80.2043 23.108 78.7198 23.108 77.8597L23.3263 73.4499L23.322 73.4543ZM84.0675 84.9895C82.9061 83.4832 84.8708 78.2395 84.8316 77.5497C84.2116 77.2222 83.334 77.0258 82.5306 76.969C81.8277 79.0997 81.295 81.6276 81.4566 84.0901C81.5482 85.4611 81.8277 86.2339 83.203 86.4391C84.6875 86.6618 85.5476 85.6663 86.1458 85.365C86.9316 87.1595 91.4287 87.0241 92.6993 84.0552C92.9874 83.3828 92.9438 83.1994 92.5202 82.8458C92.2888 82.6537 91.7562 82.3 91.4244 82.2127C91.1799 83.361 90.1713 85.1423 88.7217 84.7843C86.5387 84.2473 87.3726 79.3791 88.892 78.2526C89.1584 78.0562 89.5513 77.9732 89.6561 78.3924C89.8264 79.0866 89.1453 80.2436 89.1889 80.4837C89.2413 80.7719 90.5686 81.3831 90.9616 81.226C91.4462 81.0295 91.5728 79.8113 91.4855 79.1302C91.0925 75.9954 88.0712 76.3796 86.8269 77.541C84.6133 79.6105 85.4341 83.4483 85.3686 83.6797C85.3206 83.8412 84.9756 84.3695 84.8621 84.518C84.539 84.9328 84.408 85.0376 84.0675 84.9983V84.9895ZM35.7959 90.7266C35.7479 90.7004 35.7959 90.7135 35.6431 90.6567C35.5252 90.6131 35.5558 90.6262 35.4423 90.5912C35.3069 90.5519 35.2021 90.5214 35.0581 90.4646C34.6738 90.3031 34.1455 89.9844 33.9229 89.6656C33.757 89.4255 33.8617 89.1984 33.9141 88.8754C34.0888 87.7969 34.3202 86.5744 34.4293 85.4916C34.115 85.6401 33.0278 86.9062 31.6525 86.212C30.7967 85.7798 30.3296 85.0594 30.216 83.7801C30.0545 81.9551 30.7356 78.6587 31.3425 77.1131C32.1939 77.0956 33.2287 77.3139 33.8137 77.6807C33.8355 77.9339 33.054 80.9596 32.9361 81.6014C32.8139 82.2607 32.696 83.0335 32.6873 83.7146C32.6785 84.4656 32.9361 85.413 33.6129 84.6533C34.5385 83.6142 35.3418 78.6849 35.5689 76.8948C36.6429 76.9646 36.966 77.2484 37.7607 77.5366C37.6471 78.5714 37.4026 79.7109 37.2586 80.7675C37.1058 81.8678 36.9573 82.9462 36.8089 84.0595C36.5163 86.2164 36.298 88.561 35.94 90.7222H35.8047L35.7959 90.7266ZM80.6314 71.7515H80.1118C79.6708 74.0132 79.1731 76.1962 78.8151 78.519C78.6011 79.9074 77.9331 84.5529 78.003 85.7099C78.5618 86.1204 79.4351 86.4391 80.3126 86.3954C80.4262 85.9282 80.4436 85.0419 80.4917 84.5005C80.758 81.5752 81.1378 78.5976 81.6574 75.7072C81.7491 75.2051 82.3123 72.6378 82.2905 72.4501C81.8495 72.1314 81.1116 72.0484 80.6314 71.7559V71.7515ZM83.4169 73.7163C84.2552 73.5111 84.9363 74.0961 85.0892 74.7205C85.2987 75.5806 84.7093 76.2966 84.0544 76.4407C82.2119 76.8424 81.5875 74.1616 83.4126 73.7163H83.4169ZM93.0747 78.5146V76.9865H92.529V76.6765H93.9916V76.9865H93.4502V78.5146H93.0747ZM94.2274 78.5146V76.6721H94.7863L95.1181 77.9296L95.4455 76.6721H96.0044V78.5146H95.6595V77.0651L95.2971 78.5146H94.9391L94.5767 77.0651V78.5146H94.2274Z" fill="#7D8081"/>
<path fill-rule="evenodd" clip-rule="evenodd" d="M46.4361 48.7989C47.2395 45.8038 48.0385 42.8087 48.8418 39.8135C46.017 37.6785 41.1662 39.0669 38.1143 43.2889C36.4203 45.4065 37.0708 47.3101 39.1491 46.4325C42.4499 44.7472 44.908 45.4545 46.4361 48.7989Z" fill="#7F1E7C"/>
<path fill-rule="evenodd" clip-rule="evenodd" d="M59.8619 59.426C62.5208 57.8324 65.1841 56.2388 67.8431 54.6452C70.6723 56.7758 70.6723 61.823 67.4458 65.9141C65.874 68.1233 63.8656 68.0229 64.1363 65.7831C64.8479 62.1461 63.4944 59.9762 59.8575 59.426H59.8619Z" fill="#7F1E7C"/>
<path fill-rule="evenodd" clip-rule="evenodd" d="M43.9212 60.0329C42.9607 60.3211 41.9958 60.6136 41.0352 60.9018C42.5284 56.1689 43.6767 52.401 45.5105 46.6989C47.3442 40.9967 50.4966 35.0239 53.4612 30.4264C60.1806 20.7992 75.1083 17.7123 80.758 25.1041C84.753 31.6096 83.7138 39.473 79.8717 45.6685C74.497 53.8898 58.9144 61.1987 49.2479 66.8964C49.1736 66.0319 49.0994 65.1718 49.0252 64.3073C46.8552 65.3683 44.6853 66.4292 42.5153 67.4902C42.9825 65.0059 43.4541 62.5216 43.9212 60.0373V60.0329Z" fill="#852683"/>
<path fill-rule="evenodd" clip-rule="evenodd" d="M46.8378 43.0619C48.6715 38.5343 51.1253 34.0503 53.4655 30.4264C60.1806 20.7992 75.1083 17.7123 80.758 25.1041C82.0635 27.2304 82.8319 29.5052 83.1419 31.8148C81.0069 35.395 78.0336 38.9316 74.3791 42.0009C64.0577 50.6851 52.2474 52.3748 48.0035 45.7776C47.4752 44.9568 47.091 44.0486 46.8378 43.0663V43.0619Z" fill="#90298D"/>
<path fill-rule="evenodd" clip-rule="evenodd" d="M54.5483 29.0118C61.6738 20.5154 75.3964 18.0878 80.758 25.0998C82.0591 27.2173 82.8275 29.4833 83.1375 31.7843C79.8629 34.1682 74.8201 35.7225 69.345 35.7225C61.9576 35.7225 56.0764 32.8933 54.5527 29.0118H54.5483Z" fill="#973D92"/>
<path fill-rule="evenodd" clip-rule="evenodd" d="M43.9212 60.0329C42.9607 60.3211 41.9958 60.6136 41.0352 60.9018C42.3145 56.8457 43.3405 53.5012 44.7595 49.0435C48.1694 54.1212 54.0113 59.7317 59.6086 61.0633C55.9018 63.1503 52.2823 65.102 49.2435 66.8921C49.1693 66.0276 49.0951 65.1674 49.0208 64.303L43.5501 66.9794L42.7118 66.4336L43.9169 60.0329L43.9212 60.0329Z" fill="#7F8082"/>
<path fill-rule="evenodd" clip-rule="evenodd" d="M43.9212 60.0329C42.9607 60.3211 41.9958 60.6136 41.0352 60.9018C42.0831 57.5792 42.9607 54.7325 44.026 51.3618C47.2788 55.9812 51.4746 59.4566 56.8361 62.6133C54.1204 64.124 51.5182 65.5517 49.2479 66.8921C49.1736 66.0276 49.0994 65.1674 49.0252 64.303C46.8552 65.3639 44.6853 66.4249 42.5153 67.4858C42.9825 65.0015 43.4541 62.5172 43.9212 60.0329Z" fill="#FAAB3B"/>
<path fill-rule="evenodd" clip-rule="evenodd" d="M45.9296 53.8156C48.2568 56.54 50.9943 58.8541 54.2034 60.976L51.5968 62.5609L51.5619 60.4521L45.9384 62.932L46.9382 56.4964L44.8687 57.1251L45.934 53.8156H45.9296Z" fill="#FFD43A"/>
<path fill-rule="evenodd" clip-rule="evenodd" d="M66.0704 21.7248C71.8337 20.1574 77.6799 21.0699 80.758 25.1041C83.0371 28.8153 83.6789 32.9675 83.0939 36.9974C75.4226 35.3295 68.0788 27.7893 66.0661 21.7248H66.0704Z" fill="#939099"/>
<path fill-rule="evenodd" clip-rule="evenodd" d="M66.0704 21.7248C71.8337 20.1574 77.6799 21.0699 80.758 25.1041C82.0635 27.2304 82.8319 29.5052 83.1419 31.8148C82.2861 33.2513 81.2907 34.6834 80.1729 36.0805C73.6325 33.4172 67.8256 27.0121 66.0704 21.7248Z" fill="#BBBDBF"/>
<path fill-rule="evenodd" clip-rule="evenodd" d="M66.0704 21.7248C71.8337 20.1574 77.6799 21.0699 80.758 25.1041C82.0591 27.2217 82.8275 29.4877 83.1375 31.7886C81.5352 32.9544 79.5093 33.9237 77.2171 34.6048C71.9385 31.4743 67.5505 26.1957 66.0661 21.7248H66.0704Z" fill="#ADAFB1"/>
<path fill-rule="evenodd" clip-rule="evenodd" d="M68.1924 21.262C73.2265 20.4324 78.0554 21.5676 80.758 25.1041C82.6092 28.1211 83.382 31.4262 83.2903 34.7227C75.9902 33.2556 69.8733 27.3178 68.1924 21.262Z" fill="#AEAAB5"/>
<path fill-rule="evenodd" clip-rule="evenodd" d="M68.1924 21.262C73.2265 20.4324 78.0554 21.5676 80.758 25.1041C82.0635 27.2304 82.8319 29.5052 83.1419 31.8148C82.6485 32.64 82.1115 33.4608 81.5352 34.2773C75.0253 32.2864 69.738 26.8244 68.1967 21.262H68.1924Z" fill="#CACCCE"/>
<path fill-rule="evenodd" clip-rule="evenodd" d="M53.1424 57.1426C49.4312 60.8232 47.3137 58.6008 49.0296 55.8677C50.6319 53.3528 52.2343 50.8379 53.8366 48.323C56.2773 44.6162 61.2328 47.9912 58.4953 51.4666C56.775 53.6933 55.0286 55.4529 53.1424 57.1426Z" fill="#7F1E7C"/>
<path fill-rule="evenodd" clip-rule="evenodd" d="M73.1217 22.109C75.0297 22.2531 76.5796 22.8993 76.5796 23.5498C76.5796 24.2004 75.034 24.6064 73.1217 24.4623C71.2137 24.3182 69.6637 23.6721 69.6637 23.0215C69.6637 22.371 71.2093 21.9649 73.1217 22.109Z" fill="#E8E8E9"/>
<path fill-rule="evenodd" clip-rule="evenodd" d="M65.5771 46.4325C69.2926 46.4325 72.3271 43.4025 72.3271 39.6825C72.3271 35.9626 69.297 32.9326 65.5771 32.9326C61.8572 32.9326 58.8271 35.9626 58.8271 39.6825C58.8271 43.4025 61.8572 46.4325 65.5771 46.4325Z" fill="white"/>
<path fill-rule="evenodd" clip-rule="evenodd" d="M65.5771 44.9568C68.4805 44.9568 70.847 42.5904 70.847 39.6869C70.847 36.7834 68.4805 34.417 65.5771 34.417C62.6736 34.417 60.3072 36.7834 60.3072 39.6869C60.3072 42.5904 62.6736 44.9568 65.5771 44.9568Z" fill="#1FB2DE"/>
<path fill-rule="evenodd" clip-rule="evenodd" d="M65.7212 40.4772C67.651 40.2676 69.3014 40.8788 69.4061 41.8438C69.5109 42.8087 68.0308 43.7605 66.1054 43.97C64.1756 44.1796 62.5252 43.5684 62.4204 42.6035C62.3156 41.6385 63.7957 40.6867 65.7212 40.4772Z" fill="#AEDAEF"/>
</g>
<rect x="1" y="1" width="110" height="110" rx="9" stroke="black" stroke-opacity="0.1" stroke-width="2"/>
<defs>
<clipPath id="clip0_764_966">
<rect x="2" y="2" width="108" height="108" rx="8" fill="white"/>
</clipPath>
</defs>
</svg>
