<svg width="112" height="112" viewBox="0 0 112 112" fill="none" xmlns="http://www.w3.org/2000/svg">
<g clip-path="url(#clip0_505_167)">
<rect x="2" y="2" width="108" height="108" rx="8" fill="white"/>
<path fill-rule="evenodd" clip-rule="evenodd" d="M46.8498 42.9467C46.8498 44.2157 46.0569 45.0717 44.9642 45.0717C43.8716 45.0717 43.047 44.2554 43.047 42.9467C43.047 41.638 43.8451 40.8217 44.9642 40.8217C46.0833 40.8217 46.8498 41.6777 46.8498 42.9467ZM44.9643 39.0301C42.6196 39.0265 40.9773 40.7026 40.9805 42.9468C40.9837 45.1909 42.593 46.88 44.9643 46.879C47.3356 46.8781 48.9108 45.1655 48.9109 42.9468C48.9111 40.728 47.3089 39.0337 44.9643 39.0301Z" fill="#FF0025"/>
<path fill-rule="evenodd" clip-rule="evenodd" d="M26.2893 39.0301C25.16 39.028 24.3113 39.3781 23.583 40.0787C22.8547 40.7793 22.443 41.7389 22.4446 43.0631C22.4463 44.3874 23.0048 45.3898 23.7297 45.975C24.4546 46.5603 25.3209 46.8792 26.5406 46.879C27.7603 46.8789 28.7032 46.4364 29.1853 46.1355V44.3408C28.8507 44.6246 27.829 45.1801 26.8049 45.1801C25.7809 45.1801 24.7235 44.8381 24.4635 43.5701H29.6469C29.672 43.3711 29.7177 43.0712 29.7166 42.7564C29.7132 41.7325 29.4914 41.0528 28.9667 40.3249C28.442 39.5969 27.4186 39.0322 26.2893 39.0301ZM26.1914 40.589C26.6688 40.589 26.9999 40.7399 27.2553 41.0081C27.5108 41.2764 27.6848 41.6763 27.7127 42.1064H24.5007C24.5885 41.7298 24.6899 41.4595 24.9728 41.1294C25.2557 40.7993 25.714 40.589 26.1914 40.589Z" fill="#FF0025"/>
<path fill-rule="evenodd" clip-rule="evenodd" d="M30.7542 36V45.4553C30.7542 46.4331 31.4508 46.8791 32.1333 46.8791C32.8157 46.8791 33.2485 46.6518 33.2485 46.6518C33.2485 46.6518 32.8324 46.3149 32.8306 44.8174C32.8288 43.3651 32.8304 37.9048 32.8306 37.2588C32.8307 36.6129 32.4186 36 31.6586 36H30.7542Z" fill="#FF0025"/>
<path fill-rule="evenodd" clip-rule="evenodd" d="M16.1017 37.4235V38.4912H19.118V45.4553C19.118 46.4331 19.8147 46.8791 20.4971 46.8791C21.1795 46.8791 21.6124 46.6518 21.6124 46.6518C21.6124 46.6518 21.1962 46.3149 21.1944 44.8174C21.1926 43.3651 21.1942 38.7856 21.1944 38.1396C21.1945 37.4937 20.4416 36.3307 19.2026 36.3307L17.2877 36.3307C16.6601 36.3307 16.1017 36.8419 16.1017 37.4235ZM20.5315 36.3307C20.4919 36.3307 20.4601 36.3625 20.4601 36.4021C20.4601 36.4416 20.4998 36.471 20.5315 36.4946C20.6629 36.5927 21.0723 36.8829 21.2678 37.28C21.4633 37.6772 21.468 38.0376 21.595 38.2457C21.722 38.4539 21.9293 38.4912 22.1486 38.4912H23.725C24.0734 38.4912 24.2102 38.2571 24.2102 37.9794V36.3307H20.5315Z" fill="#FF0025"/>
<path fill-rule="evenodd" clip-rule="evenodd" d="M34.1921 36V46.7548H36.2685C36.2685 45.6388 36.2686 44.5209 36.2685 43.3545C36.7173 43.8731 37.9439 45.3149 38.0998 45.496C38.6558 46.142 39.0547 46.7548 39.9643 46.7548H41.625C41.625 46.7548 39.6167 44.4341 39.4321 44.2197C38.9337 43.6407 38.5528 43.0886 37.8242 42.9804V42.9051C38.4522 42.7625 38.8172 42.2356 39.2701 41.6842C39.4462 41.4698 41.3261 39.1491 41.3261 39.1491H38.9746L36.2685 42.4514C36.2685 42.4514 36.2684 37.9637 36.2685 36H34.1921Z" fill="#FF0025"/>
<path fill-rule="evenodd" clip-rule="evenodd" d="M53.893 39.0301C53.0653 39.0301 52.5194 39.3973 52.2727 39.6813C52.0261 39.9652 52.0663 40.0434 51.9923 40.0978C51.851 39.5424 51.4743 39.1502 50.8276 39.1502H49.9232V46.7548H51.9996V42.8283C51.9996 41.5967 52.5674 40.8001 53.3723 40.8024C54.1771 40.8047 54.623 41.215 54.623 42.1667V46.7548H56.6994V42.8607C56.6994 41.7538 57.1472 40.7971 58.1039 40.8024C59.0606 40.8077 59.3652 41.435 59.3652 42.2567V46.7548H61.4258V41.71C61.4258 40.8502 61.1715 40.214 60.6519 39.7353C60.1323 39.2566 59.5643 39.0301 58.6299 39.0301C57.6956 39.0301 57.035 39.4169 56.5272 39.9685C56.4386 40.0648 56.3549 40.195 56.2769 40.3033C56.1473 40.0276 55.9196 39.7257 55.7246 39.5634C55.2353 39.1563 54.7207 39.0301 53.893 39.0301Z" fill="#FF0025"/>
<path fill-rule="evenodd" clip-rule="evenodd" d="M65.5407 39.0301C64.2843 39.0279 63.6072 39.4205 63.2256 39.7562C62.8441 40.092 62.496 40.5174 62.4929 41.438C62.4897 42.3586 63.1637 43.1181 64.4932 43.5266C65.8228 43.9351 66.3739 44.076 66.3695 44.5248C66.3652 44.9737 66.034 45.2594 65.0991 45.2594C64.1642 45.2594 63.2196 44.8441 62.539 44.2297V46.1143C63.0475 46.4946 64.0309 46.8789 65.2048 46.8791C66.3787 46.8792 67.087 46.592 67.4953 46.2682C67.9036 45.9444 68.3735 45.4307 68.3699 44.4039C68.3664 43.3771 67.6784 42.7016 66.6297 42.3345C65.5809 41.9675 64.5992 41.8437 64.5181 41.4149C64.437 40.9862 64.6806 40.696 65.4536 40.626C66.2266 40.556 67.4816 40.9543 67.907 41.3759V39.6323C67.5104 39.4028 66.7971 39.0324 65.5407 39.0301Z" fill="#FF0025"/>
<path fill-rule="evenodd" clip-rule="evenodd" d="M72.7759 39.0301C71.6465 39.028 70.7978 39.3781 70.0695 40.0787C69.3412 40.7793 68.9295 41.7389 68.9312 43.0632C68.9328 44.3874 69.4914 45.3898 70.2162 45.975C70.9411 46.5603 71.8074 46.8792 73.0271 46.879C74.2468 46.8789 75.1897 46.4364 75.6718 46.1355V44.3408C75.3373 44.6246 74.3155 45.1801 73.2914 45.1801C72.2674 45.1801 71.21 44.8381 70.95 43.5701H76.1335C76.1585 43.3711 76.2042 43.0712 76.2031 42.7564C76.1997 41.7325 75.978 41.0528 75.4532 40.3249C74.9285 39.5969 73.9052 39.0322 72.7759 39.0301ZM72.6779 40.589C73.1553 40.589 73.4864 40.7399 73.7419 41.0081C73.9973 41.2764 74.1713 41.6763 74.1992 42.1064H70.9872C71.075 41.7298 71.1764 41.4595 71.4593 41.1294C71.7422 40.7993 72.2005 40.589 72.6779 40.589Z" fill="#FF0025"/>
<path fill-rule="evenodd" clip-rule="evenodd" d="M77.2407 36V45.4553C77.2407 46.4331 77.9373 46.8791 78.6198 46.8791C79.3022 46.8791 79.735 46.6518 79.735 46.6518C79.735 46.6518 79.3189 46.3149 79.3171 44.8174C79.3153 43.3651 79.3171 37.9048 79.3171 37.2588C79.3171 36.6129 78.9051 36 78.1451 36H77.2407Z" fill="#FF0025"/>
<path d="M27.1018 51.6229C24.8002 51.6229 22.8033 52.1306 21.1448 53.146C19.4863 54.1614 18.2001 55.5829 17.32 57.4784C16.44 59.3738 15.9935 61.5739 16.0001 64.1462C16.0032 65.3949 16.1333 66.814 16.4067 67.9256C16.5306 68.429 16.9141 69.5561 18.0335 69.8574C19.4159 70.2296 21.7818 68.8521 22.2139 68.5903C21.75 67.3991 21.517 65.9223 21.517 64.1462C21.517 61.6077 21.991 59.6784 22.9387 58.3245C23.8865 56.9706 25.2403 56.2937 27.0342 56.2937C28.828 56.2937 30.2157 57.0045 31.1972 58.3584C32.1788 59.7123 32.6866 61.6415 32.6866 64.1462C32.6866 66.6509 32.1788 68.6141 31.1972 69.9679C30.2157 71.3218 28.828 71.9987 27.0342 71.9987C25.2403 71.9987 23.8865 71.3218 22.9387 69.9679C22.8798 69.8837 22.8226 69.7971 22.7673 69.7083L19.3877 73.8048C19.9234 74.3272 20.5199 74.785 21.1787 75.1803C22.871 76.1957 24.8342 76.6695 27.1357 76.6695C29.4035 76.6695 31.3665 76.1957 33.025 75.1803C34.6835 74.1649 35.9697 72.7434 36.8497 70.848C37.7297 68.9525 38.2036 66.7186 38.2036 64.1462C38.2036 61.5738 37.7297 59.3738 36.8497 57.4784C35.9697 55.5829 34.6835 54.1614 33.025 53.146C31.3326 52.1306 29.3696 51.6229 27.1018 51.6229Z" fill="#FF0025"/>
<path d="M41.0118 58.8661V76.3311H46.3257V66.9217C46.3257 65.6693 46.6642 64.6878 47.3411 63.977C48.0181 63.2662 48.9658 62.8939 50.2181 62.8939C51.3012 62.8939 52.1474 63.1647 52.7905 63.7062C53.5013 62.8939 53.8736 61.98 53.8736 61.0323C53.8736 60.2538 53.6028 59.6446 53.0951 59.1707C52.5874 58.7307 51.9105 58.4938 51.0305 58.4938C50.015 58.4938 49.1012 58.7984 48.2212 59.4077C47.3411 60.0169 46.6981 60.8292 46.2919 61.8108V61.3708C46.2919 60.4908 45.9873 59.78 45.4457 59.2384C44.9042 58.6969 44.1595 58.4261 43.2118 58.4261C42.3318 58.4261 41.5872 58.5953 41.0118 58.8661Z" fill="#FF0025"/>
<path d="M69.9023 59.3738C68.8192 58.6292 67.5669 58.223 66.1115 58.223C63.5729 58.223 61.8467 59.4077 60.9667 61.7092V54.026C60.9667 53.0444 60.6959 52.2998 60.1544 51.7583C59.6129 51.2167 58.8682 50.9459 57.8528 50.9459C57.4467 50.9459 57.0743 51.0136 56.6682 51.0813C56.262 51.149 55.9235 51.2506 55.6528 51.3859V75.9926C56.2282 76.2972 56.9728 76.4326 57.8528 76.4326C58.8005 76.4326 59.5113 76.2295 60.019 75.8234C60.4929 75.4172 60.7975 74.7403 60.899 73.7926C61.8467 75.7218 63.6068 76.6696 66.1115 76.6696C68.3453 76.6696 70.0715 75.8572 71.3239 74.1987C72.5762 72.5402 73.2193 70.3063 73.2193 67.4971C73.2193 65.6693 72.9147 64.0447 72.3731 62.6231C71.7977 61.2354 70.9854 60.1523 69.9023 59.3738ZM66.8561 71.2879C66.213 72.2018 65.333 72.6418 64.216 72.6418C63.336 72.6418 62.5575 72.371 61.9144 71.7618C61.2713 71.1525 60.9667 70.4417 60.9667 69.6294V65.6355C60.9667 64.6878 61.2713 63.9093 61.9144 63.2662C62.5237 62.6231 63.336 62.2846 64.2837 62.2846C65.3668 62.2846 66.213 62.7585 66.8561 63.6724C67.4992 64.5862 67.8376 65.8386 67.8376 67.4632C67.8376 69.0879 67.4992 70.374 66.8561 71.2879Z" fill="#FF0025"/>
<path d="M76.0887 53.3491C75.8179 53.6875 75.6825 53.9922 75.6825 54.2629C75.6825 54.6014 75.8179 54.906 76.0887 55.1091L78.5933 57.1738L80.9626 54.6691C81.2334 54.3645 81.3688 54.0598 81.3688 53.7552C81.3688 53.4506 81.2334 53.1798 80.9626 52.9091L78.458 50.8444L76.0887 53.3491ZM75.8856 58.5615V73.3526C75.8856 74.368 76.1225 75.1126 76.6641 75.6542C77.2056 76.1957 77.9841 76.4326 78.9995 76.4326C79.3718 76.4326 79.778 76.3988 80.1841 76.3311C80.5903 76.2634 80.9288 76.128 81.1996 75.9926V58.5615H75.8856Z" fill="#FF0025"/>
<path d="M85.8459 58.5615H82.7997C82.7997 59.5769 82.8674 60.3215 83.0705 60.8631C83.2397 61.4046 83.5443 61.8108 83.9844 62.0139C84.4244 62.2508 85.0675 62.3862 85.8798 62.3862V71.1187C85.8798 72.8787 86.3198 74.2326 87.2337 75.1803C88.1475 76.128 89.4676 76.568 91.1599 76.568C92.7507 76.568 93.9692 76.3311 94.7815 75.8572C95.5938 75.3834 96 74.6726 96 73.7249C96 73.4541 95.9323 73.1833 95.8308 72.9126C95.6954 72.6418 95.56 72.4049 95.3908 72.1341C95.2215 71.8633 95.0861 71.6602 95.0184 71.5248C94.7477 71.7956 94.443 71.9987 94.0369 72.1679C93.6307 72.3372 93.2246 72.4049 92.8184 72.4049C91.7014 72.4049 91.1599 71.8972 91.1599 70.8141V62.3862H95.6277V58.5615H91.126V56.6661C91.126 55.6845 90.8553 54.9399 90.3137 54.3983C89.7722 53.8568 89.0275 53.586 88.046 53.586C87.6398 53.586 87.2675 53.6537 86.8613 53.7214C86.4552 53.7891 86.1167 53.8906 85.8459 54.026V58.5615Z" fill="#FF0025"/>
</g>
<rect x="1" y="1" width="110" height="110" rx="9" stroke="black" stroke-opacity="0.1" stroke-width="2"/>
<defs>
<clipPath id="clip0_505_167">
<rect x="2" y="2" width="108" height="108" rx="8" fill="white"/>
</clipPath>
</defs>
</svg>
