<svg width="112" height="112" viewBox="0 0 112 112" fill="none" xmlns="http://www.w3.org/2000/svg">
<g clip-path="url(#clip0_505_101)">
<rect x="2" y="2" width="108" height="108" rx="8" fill="white"/>
<g clip-path="url(#clip1_505_101)">
<path d="M20.3323 48.3682H17.4931V50.7225H16.1521V53.328H17.4931V56.3856C17.4931 58.788 19.4325 60.3168 21.8305 60.3168H23.5078V57.8118H21.8218C21.4279 57.8118 21.0501 57.6553 20.7716 57.3768C20.4931 57.0983 20.3366 56.7205 20.3366 56.3267V53.328H22.2018C22.555 53.315 22.8893 53.165 23.1339 52.9098C23.3784 52.6546 23.5141 52.3143 23.5122 51.9608V50.7291H20.3323V48.3682ZM36.6621 56.438C36.6621 56.8319 36.5056 57.2097 36.2271 57.4882C35.9486 57.7667 35.5708 57.9232 35.1769 57.9232C34.7831 57.9232 34.4053 57.7667 34.1268 57.4882C33.8483 57.2097 33.6918 56.8319 33.6918 56.438V52.0941C33.6918 51.9136 33.6562 51.7349 33.587 51.5682C33.5178 51.4015 33.4164 51.2501 33.2886 51.1227C33.1607 50.9953 33.009 50.8943 32.8421 50.8257C32.6752 50.757 32.4964 50.7219 32.3159 50.7225H30.8373V56.0668C30.8373 58.4692 32.1477 60.4195 35.1748 60.4195C38.2018 60.4195 39.5144 58.4714 39.5144 56.0668V50.7225H36.6752V56.438M49.3424 55.8003C49.3227 52.8323 47.7109 50.4976 44.7123 50.4976C42.1374 50.4976 40.0604 52.5767 40.0604 55.4421C40.0604 58.5325 41.9495 60.3627 44.7341 60.4173C45.5944 60.4157 46.4382 60.1819 47.1767 59.7407C47.9151 59.2994 48.5207 58.6669 48.9296 57.9101L46.3241 57.2287C46.1415 57.4842 45.8992 57.6912 45.6182 57.8317C45.3373 57.9722 45.0263 58.0418 44.7123 58.0346C43.6967 58.0346 42.8756 57.3051 42.8472 56.4228H49.3402C49.3402 56.283 49.3402 55.9467 49.3402 55.8003M42.8275 54.4703C42.8559 53.5967 43.6749 52.865 44.6926 52.865C45.7104 52.865 46.549 53.5792 46.5622 54.4703H42.8275ZM28.507 50.7225H28.1204C27.6018 50.7225 27.0883 50.8247 26.6092 51.0233C26.1301 51.2219 25.6948 51.513 25.3283 51.88C24.9618 52.2469 24.6712 52.6825 24.4731 53.1618C24.275 53.6411 24.1734 54.1547 24.1739 54.6734V60.3059H27.0131V54.8131C27.0126 54.6176 27.0507 54.4239 27.1254 54.2431C27.2001 54.0624 27.3099 53.8983 27.4484 53.7602C27.5869 53.6221 27.7513 53.5128 27.9323 53.4386C28.1132 53.3645 28.3071 53.3269 28.5026 53.328H30.1668V50.7225H28.5026H28.507Z" fill="#ED1C24"/>
<path d="M69.8043 57.5039C69.6219 57.7534 69.3831 57.9564 69.1074 58.0964C68.8317 58.2363 68.5269 58.3093 68.2177 58.3093C67.9085 58.3093 67.6037 58.2363 67.328 58.0964C67.0523 57.9564 66.8135 57.7534 66.631 57.5039C66.2444 56.995 66.0304 56.1454 66.0304 55.3701C66.0059 54.6588 66.2171 53.9594 66.631 53.3805C66.8084 53.1237 67.0454 52.9138 67.3218 52.7688C67.5982 52.6238 67.9056 52.5481 68.2177 52.5481C68.5298 52.5481 68.8372 52.6238 69.1135 52.7688C69.3899 52.9138 69.627 53.1237 69.8043 53.3805C70.216 53.9606 70.4276 54.659 70.4071 55.3701C70.4071 56.1432 70.1887 56.995 69.8043 57.5039ZM68.2231 50.4714C67.6572 50.4771 67.0996 50.6086 66.5908 50.8564C66.082 51.1042 65.6347 51.462 65.2813 51.9041C64.4788 52.88 64.0485 54.1089 64.067 55.3723C64.067 56.7045 64.53 58.0935 65.2813 58.9759C65.6284 59.4227 66.073 59.7842 66.5811 60.0329C67.0893 60.2816 67.6475 60.4109 68.2133 60.4109C68.7791 60.4109 69.3373 60.2816 69.8455 60.0329C70.3536 59.7842 70.7982 59.4227 71.1453 58.9759C71.901 58.1023 72.3596 56.7045 72.3596 55.3723C72.3766 54.1092 71.9465 52.8807 71.1453 51.9041C70.7931 51.4651 70.3484 51.1091 69.843 50.8615C69.3375 50.6139 68.7837 50.4807 68.2209 50.4714" fill="#F58220"/>
<path d="M77.182 50.4692C76.7144 50.4828 76.2564 50.6052 75.8443 50.8266C75.4323 51.048 75.0774 51.3623 74.808 51.7447V51.7337C74.8102 51.4322 74.7084 51.139 74.5197 50.9038C74.4355 50.7971 74.3289 50.7102 74.2073 50.6495C74.0858 50.5887 73.9523 50.5555 73.8164 50.5522C73.6802 50.5551 73.5464 50.5891 73.4253 50.6516C73.3042 50.714 73.1989 50.8033 73.1175 50.9126C72.9364 51.1488 72.8381 51.4382 72.838 51.7359V59.1899C72.8342 59.4846 72.9383 59.7704 73.1306 59.9936C73.2178 60.095 73.3252 60.1771 73.4459 60.2347C73.5666 60.2922 73.698 60.3239 73.8317 60.3278C73.9631 60.3237 74.0922 60.2918 74.2104 60.2342C74.3286 60.1766 74.4333 60.0946 74.5175 59.9936C74.7091 59.7703 74.8118 59.4842 74.8058 59.1899V54.918C74.7917 54.328 74.9645 53.7485 75.2994 53.2625C75.46 53.038 75.6726 52.8557 75.9191 52.7313C76.1656 52.6069 76.4385 52.5442 76.7146 52.5484C76.9743 52.5392 77.2322 52.5954 77.4646 52.7118C77.697 52.8282 77.8964 53.001 78.0446 53.2145C78.3731 53.7137 78.5366 54.3035 78.512 54.9005V59.1877C78.5013 59.4835 78.6063 59.7718 78.8047 59.9915C78.8907 60.0931 78.9973 60.1753 79.1173 60.2329C79.2374 60.2905 79.3683 60.3221 79.5014 60.3256C79.633 60.3224 79.7623 60.2909 79.8806 60.2332C79.999 60.1755 80.1035 60.0931 80.1872 59.9915C80.3759 59.7666 80.4774 59.4813 80.4733 59.1877V54.8307C80.4733 53.6054 80.1784 52.5091 79.5997 51.725C79.331 51.3299 78.968 51.0081 78.5436 50.7888C78.1191 50.5695 77.6465 50.4596 77.1689 50.4692" fill="#F58220"/>
<path d="M85.0509 52.4501C85.3075 52.4543 85.5607 52.5102 85.7952 52.6146C86.0298 52.7189 86.2408 52.8694 86.4159 53.0572C86.7555 53.437 86.9772 53.9075 87.0536 54.4113H83.0459C83.1234 53.9029 83.343 53.4267 83.6793 53.0376C83.8552 52.8512 84.0675 52.7029 84.3031 52.6019C84.5386 52.5008 84.7924 52.4491 85.0487 52.4501M88.5278 57.4733H88.5147C88.4464 57.3588 88.3508 57.263 88.2365 57.1944C88.1222 57.1258 87.9926 57.0865 87.8595 57.0802C87.7601 57.0785 87.6616 57.0987 87.571 57.1395C87.4804 57.1803 87.3999 57.2405 87.3353 57.316C86.7413 57.9909 86.0074 58.408 85.1513 58.408C84.8689 58.4081 84.5896 58.3499 84.3307 58.2372C84.0718 58.1244 83.8389 57.9596 83.6465 57.7528C83.2674 57.2832 83.039 56.71 82.9913 56.1083H88.2766C88.4725 56.1065 88.6598 56.0281 88.7986 55.8899C88.9512 55.7325 89.0359 55.5215 89.0345 55.3024C89.0583 54.055 88.6605 52.8361 87.9053 51.8429C87.5654 51.4104 87.1321 51.0605 86.6377 50.8192C86.1434 50.5779 85.6009 50.4515 85.0509 50.4495C84.4882 50.4602 83.935 50.5961 83.4314 50.8474C82.9278 51.0986 82.4865 51.4588 82.1396 51.9019C81.3548 52.8856 80.937 54.1119 80.958 55.3701C80.958 56.7111 81.4189 58.0913 82.1658 58.9737C82.5222 59.4127 82.9705 59.7684 83.4791 60.0155C83.9878 60.2627 84.5444 60.3953 85.1098 60.4042C85.7428 60.3948 86.3661 60.2479 86.9366 59.9738C87.5072 59.6996 88.0114 59.3047 88.4142 58.8164V58.799C88.5872 58.5844 88.6847 58.3188 88.6916 58.0433C88.6856 57.8481 88.6332 57.6572 88.5387 57.4864" fill="#F58220"/>
<path d="M96.15 51.7621C96.1589 51.5602 96.1088 51.36 96.0061 51.186C95.9034 51.0119 95.7523 50.8714 95.5713 50.7815C95.4825 50.7334 95.3838 50.7065 95.283 50.7029C95.0975 50.7103 94.919 50.7755 94.7725 50.8895C94.6261 51.0035 94.5189 51.1605 94.4662 51.3384L92.4481 56.6958L90.3952 51.3275C90.34 51.1496 90.2301 50.9936 90.0811 50.8818C89.932 50.7701 89.7515 50.7082 89.5653 50.7051C89.4461 50.7075 89.3286 50.7342 89.2202 50.7837C89.0467 50.8847 88.904 51.0309 88.807 51.2067C88.7101 51.3824 88.6627 51.5812 88.6698 51.7818C88.6731 51.8485 88.6848 51.9146 88.7048 51.9783C88.7768 52.2426 88.9668 52.8017 89.2202 53.4875C89.9409 55.4771 91.1618 58.5806 91.4042 59.2467C90.8691 60.568 90.0021 61.6491 88.8205 62.2825C88.6657 62.3676 88.5338 62.489 88.4361 62.6363C88.3278 62.8064 88.2716 63.0046 88.2745 63.2063C88.2719 63.4593 88.3585 63.7052 88.5191 63.9008C88.5862 63.996 88.6742 64.0745 88.7765 64.1302C88.8787 64.1859 88.9925 64.2172 89.1088 64.2219C89.2221 64.2114 89.3321 64.178 89.432 64.1236C91.2426 63.3024 92.5115 61.5967 93.254 59.618L96.067 52.1924C96.1246 52.0542 96.1507 51.905 96.1435 51.7556" fill="#F58220"/>
<path d="M60.5594 50.4648C60.0125 50.4737 59.4781 50.6292 59.0117 50.915C58.5454 51.2008 58.1642 51.6065 57.908 52.0897C57.7069 51.6546 57.408 51.2719 57.0344 50.9715C56.5928 50.6342 56.0503 50.4557 55.4947 50.4648C54.6211 50.4648 54.0008 50.9715 53.5029 51.7097C53.5075 51.4183 53.4128 51.1341 53.2343 50.9038C53.1566 50.7954 53.0548 50.7067 52.9369 50.6445C52.819 50.5823 52.6883 50.5485 52.555 50.5456C52.4114 50.5474 52.2698 50.5804 52.1401 50.6422C52.0104 50.7041 51.8956 50.7933 51.8037 50.9038C51.6292 51.1433 51.5372 51.433 51.5417 51.7293V59.1549C51.5389 59.4469 51.6292 59.7323 51.7994 59.9696C51.8861 60.0764 51.9952 60.1631 52.1189 60.2234C52.2427 60.2838 52.3781 60.3164 52.5157 60.319C52.6539 60.3176 52.79 60.2856 52.9143 60.2251C53.0386 60.1647 53.1479 60.0774 53.2343 59.9696C53.4179 59.7384 53.5145 59.4501 53.5073 59.1549V54.918C53.5073 54.2759 53.5269 53.684 53.7977 53.2538C53.9307 53.037 54.1179 52.8586 54.3407 52.736C54.5636 52.6135 54.8145 52.5511 55.0688 52.5549C55.3078 52.5453 55.5448 52.6012 55.7543 52.7167C55.9637 52.8322 56.1375 53.0028 56.2569 53.2101C56.5103 53.6097 56.5889 54.2038 56.5889 54.8852V59.1549C56.5889 59.773 56.9886 60.319 57.5127 60.319C57.6518 60.3158 57.7886 60.283 57.9141 60.2227C58.0395 60.1625 58.1506 60.0762 58.24 59.9696C58.4189 59.735 58.5191 59.4499 58.5261 59.1549V54.8219C58.4974 54.2625 58.6365 53.7072 58.9258 53.2276C59.0594 53.0184 59.2443 52.8469 59.463 52.7295C59.6817 52.6121 59.9268 52.5528 60.175 52.5571C60.414 52.5475 60.651 52.6034 60.8605 52.7189C61.0699 52.8344 61.2437 53.005 61.3631 53.2123C61.6121 53.6119 61.6208 54.206 61.6208 54.8874V59.1571C61.6158 59.4509 61.7097 59.7377 61.8873 59.9717C61.9698 60.0795 62.0759 60.1671 62.1974 60.2276C62.3189 60.2882 62.4526 60.3202 62.5883 60.3212C62.7274 60.3177 62.8641 60.2848 62.9895 60.2245C63.1149 60.1643 63.226 60.0781 63.3156 59.9717C63.4981 59.7401 63.5939 59.4519 63.5864 59.1571V54.7673C63.5864 53.5224 63.368 52.4631 62.8635 51.6966C62.6282 51.3005 62.2893 50.9761 61.8833 50.7583C61.4773 50.5405 61.0196 50.4375 60.5594 50.4604" fill="#F58220"/>
</g>
</g>
<rect x="1" y="1" width="110" height="110" rx="9" stroke="black" stroke-opacity="0.1" stroke-width="2"/>
<defs>
<clipPath id="clip0_505_101">
<rect x="2" y="2" width="108" height="108" rx="8" fill="white"/>
</clipPath>
<clipPath id="clip1_505_101">
<rect width="80" height="15.8537" fill="white" transform="translate(16.1499 48.3682)"/>
</clipPath>
</defs>
</svg>
