<svg width="112" height="112" viewBox="0 0 112 112" fill="none" xmlns="http://www.w3.org/2000/svg">
<g clip-path="url(#clip0_428_523)">
<rect x="2" y="2" width="108" height="108" rx="8" fill="white"/>
<path fill-rule="evenodd" clip-rule="evenodd" d="M60.7267 23C52.6768 23 41.2423 26.4865 34.4887 34.9363C23.8025 39.6033 16 50.0368 16 61.4303C16 79.114 31.0588 89.6772 49.2094 89.6772C52.1968 89.6772 55.0378 89.0134 57.6958 88.3434C59.6534 88.651 61.6816 88.8139 63.7751 88.8139C80.9047 88.8139 96 74.9235 96 56.786C96 38.0543 81.1129 23 60.7267 23ZM48.4445 36.5498C57.0563 36.5498 63.7367 45.0248 63.7367 52.5929C63.7367 62.8225 57.4876 69.685 48.7599 69.685C40.9277 69.685 33.9485 62.4253 33.9485 52.1111C33.9485 43.6056 40.2709 36.5498 48.4445 36.5498ZM47.2919 86.493C35.4366 86.493 22.9025 75.0254 22.9025 60.7325C22.9025 53.7594 25.0945 46.7855 30.6353 42.0976C29.6404 44.1519 28.9801 46.62 28.7126 49.5664C28.5767 50.6362 28.5009 51.7461 28.5009 52.8917C28.5009 68.3302 36.9603 81.1256 50.1913 86.3205C49.2338 86.4329 48.2659 86.493 47.2919 86.493ZM56.1782 84.8778C46.2421 82.9272 38.0946 75.4 34.5749 66.492C38.0597 69.8932 43.0178 72.2263 49.3375 72.2263C59.4452 72.2263 69.0563 64.4865 69.0563 52.9971C69.0563 47.3579 67.0621 43.6657 67.0621 43.6657C71.2735 47.9424 73.9376 53.9485 73.9376 61.2735C73.9376 71.5702 66.2327 81.1691 56.1782 84.8778ZM66.0062 84.9344C74.1049 80.0958 79.1396 71.8246 79.1396 62.826C79.1396 42.7841 59.5959 35.6019 59.5959 35.6019C56.0039 33.4866 51.5791 32.3576 46.662 32.3576C46.2883 32.3576 45.6488 32.3671 45.2785 32.3802C50.2618 28.6227 56.7453 26.3097 63.3046 26.3097C78.5951 26.3097 90.1612 40.8213 90.1612 54.4094C90.1612 70.2068 78.981 82.4602 66.0062 84.9344Z" fill="#00A4DE"/>
</g>
<rect x="1" y="1" width="110" height="110" rx="9" stroke="#CCCCCC" stroke-width="2"/>
<defs>
<clipPath id="clip0_428_523">
<rect x="2" y="2" width="108" height="108" rx="8" fill="white"/>
</clipPath>
</defs>
</svg>
