<svg width="112" height="112" viewBox="0 0 112 112" fill="none" xmlns="http://www.w3.org/2000/svg">
<g clip-path="url(#clip0_755_423)">
<rect x="2" y="2" width="108" height="108" rx="8" fill="white"/>
<g clip-path="url(#clip1_755_423)">
<path d="M16 16H96V96H16V16Z" fill="url(#paint0_linear_755_423)"/>
<path d="M42.0156 74.2422L42.023 74.2445L39.324 78.9193C38.3388 80.6257 36.1567 81.2104 34.4503 80.2252C32.744 79.2401 32.1593 77.058 33.1445 75.3516L35.1328 71.9078L35.3235 71.5774C35.6643 71.0874 36.5053 70.2423 38.1874 70.4011C38.1874 70.4011 42.1457 70.8307 42.4321 72.8881C42.4322 72.8881 42.4713 73.5651 42.0156 74.2422ZM80.2967 62.3021H71.8802C71.3071 62.2638 71.0567 62.0591 70.9585 61.9401L70.9522 61.9292L61.9426 46.3242L61.931 46.332L61.3906 45.5573C60.5051 44.2031 59.0989 47.6666 59.0989 47.6666C57.42 51.5259 59.3371 55.9138 60.0056 57.24L72.5194 78.9145C73.5045 80.6209 75.6866 81.2056 77.393 80.2203C79.0993 79.2352 79.684 77.0531 78.6988 75.3467L75.5696 69.9269C75.5091 69.7956 75.4035 69.439 76.0453 69.4376H80.2967C82.2671 69.4376 83.8644 67.8402 83.8644 65.8699C83.8644 63.8995 82.2671 62.3021 80.2967 62.3021ZM63.9492 67.1524C63.9492 67.1524 64.3984 69.4375 62.6601 69.4375H60.9218L31.5467 69.4376C29.5763 69.4376 27.979 67.8402 27.979 65.8699C27.979 63.8995 29.5763 62.3021 31.5467 62.3021H39.5456C40.8371 62.2273 41.1432 61.4818 41.1432 61.4818L41.1503 61.4854L51.5915 43.4006L51.5884 43.3999C51.7788 43.0506 51.6203 42.7205 51.5927 42.6682L48.1445 36.6958C47.1592 34.9894 47.7439 32.8074 49.4503 31.8222C51.1567 30.837 53.3387 31.4216 54.3239 33.1281L55.9231 35.8981L57.5196 33.133C58.5047 31.4266 60.6867 30.8419 62.3931 31.8271C64.0996 32.8124 64.6842 34.9944 63.699 36.7007L49.1697 61.8661C49.1062 62.0193 49.0867 62.2598 49.5594 62.3021H58.2442L58.246 62.3867C58.246 62.3867 63.2656 62.4649 63.9492 67.1524Z" fill="white"/>
</g>
</g>
<rect x="1" y="1" width="110" height="110" rx="9" stroke="black" stroke-opacity="0.1" stroke-width="2"/>
<defs>
<linearGradient id="paint0_linear_755_423" x1="56" y1="96" x2="56" y2="16" gradientUnits="userSpaceOnUse">
<stop stop-color="#1D76F2"/>
<stop offset="1" stop-color="#1AC2FB"/>
</linearGradient>
<clipPath id="clip0_755_423">
<rect x="2" y="2" width="108" height="108" rx="8" fill="white"/>
</clipPath>
<clipPath id="clip1_755_423">
<rect width="80" height="80" fill="white" transform="translate(16 16)"/>
</clipPath>
</defs>
</svg>
