<svg width="112" height="112" viewBox="0 0 112 112" fill="none" xmlns="http://www.w3.org/2000/svg">
<g clip-path="url(#clip0_755_419)">
<rect x="2" y="2" width="108" height="108" rx="8" fill="white"/>
<path fill-rule="evenodd" clip-rule="evenodd" d="M47.6161 45.9232V63.4992H51.0812V57.0964H55.3499C58.7895 57.0964 61.3505 54.7115 61.3505 51.4724C61.3505 48.2583 58.8899 45.9232 55.4753 45.9232H47.6161ZM55.0989 54.134H51.0812V49.0117H55.0989C56.7559 49.0117 57.9109 50.0663 57.9109 51.5729C57.9109 53.0793 56.7559 54.134 55.0989 54.134ZM66.1712 44.9192L62.9827 45.9232V63.4992H66.1712V44.9192ZM73.9293 63.6752C75.4864 63.6752 76.8925 63.0977 77.9471 62.1181V63.4992H81.1356V50.9704H77.9471V52.3509C76.9425 51.3468 75.5613 50.7693 74.0553 50.7693C70.7913 50.7693 67.8281 53.4809 67.8281 57.222C67.8281 60.9631 70.7408 63.6752 73.9293 63.6752ZM74.482 60.8125C72.5489 60.8125 70.9917 59.3311 70.9917 57.222C70.9917 55.1129 72.5489 53.6315 74.482 53.6315C76.4404 53.6315 77.972 55.1129 77.972 57.222C77.972 59.3311 76.4404 60.8125 74.482 60.8125ZM96 50.9704H92.6605L89.0948 58.352L85.4543 50.9704H81.8891L87.2623 61.9172L83.6717 69.0484H87.1368L96 50.9704ZM34.3005 58.2896L33.2768 56.6553H30.2879L31.3132 55.0181H32.2575L31.1161 53.1957L27.9321 58.2896H19.4376L21.4828 55.0181H19.9811L21.002 53.3811H27.5681L26.5467 55.0181H23.4149L22.3912 56.6553H27.0239L31.1161 50.106L36.2304 58.2896H34.3005ZM23.048 50.106H29.7833L28.7596 51.7439H22.0249L23.048 50.106ZM27.716 43C21.2457 43 16 48.246 16 54.7167C16 61.1888 21.2457 66.4325 27.716 66.4325C34.1861 66.4325 39.4327 61.1888 39.4327 54.7167C39.4327 48.246 34.1861 43 27.716 43Z" fill="#FF4747"/>
</g>
<rect x="1" y="1" width="110" height="110" rx="9" stroke="black" stroke-opacity="0.1" stroke-width="2"/>
<defs>
<clipPath id="clip0_755_419">
<rect x="2" y="2" width="108" height="108" rx="8" fill="white"/>
</clipPath>
</defs>
</svg>
