<svg width="112" height="112" viewBox="0 0 112 112" fill="none" xmlns="http://www.w3.org/2000/svg">
<g clip-path="url(#clip0_755_430)">
<rect x="2" y="2" width="108" height="108" rx="8" fill="white"/>
<path d="M53.5708 62.5864H38.2414L41.7782 57.069H50.9656L54.4755 51.5556H33.235L29.726 57.069H34.7578L27.7767 68.084H56.9118L67.673 51.1131L71.597 57.069H68.0588L64.7082 62.5864H75.185L78.8234 68.0841H85.5066L67.3903 40.5815L53.5708 62.5864ZM40.1645 40.5287L36.7341 46.0408H59.3139L62.7702 40.5287H40.1645ZM16 56.0002C16 33.9439 33.9434 15.9999 56 15.9999C78.0557 15.9999 96 33.9439 96 56.0002C96 78.0563 78.0557 96.0007 56 96.0007C33.9434 96.0007 16 78.0562 16 56.0002Z" fill="#FF4747"/>
<path d="M62.7741 40.5279L59.3178 46.042L36.7302 46.0417L40.1606 40.5277L62.7741 40.5279Z" fill="#0D1042"/>
<path d="M67.3928 40.5783L85.5102 68.0858L78.8268 68.0862L75.1887 62.5881L64.711 62.5893L68.0549 57.0681L71.593 57.0683L67.6768 51.112L56.9118 68.088L27.7731 68.0858L34.7538 57.0695L29.722 57.0694L33.2311 51.5552L54.4731 51.5525L50.962 57.0707L41.7821 57.0683L38.245 62.5848L53.5722 62.5827L67.3928 40.5783Z" fill="#0D1042"/>
</g>
<rect x="1" y="1" width="110" height="110" rx="9" stroke="black" stroke-opacity="0.1" stroke-width="2"/>
<defs>
<clipPath id="clip0_755_430">
<rect x="2" y="2" width="108" height="108" rx="8" fill="white"/>
</clipPath>
</defs>
</svg>
