<svg width="112" height="112" viewBox="0 0 112 112" fill="none" xmlns="http://www.w3.org/2000/svg">
<g clip-path="url(#clip0_755_421)">
<rect x="2" y="2" width="108" height="108" rx="8" fill="white"/>
<path fill-rule="evenodd" clip-rule="evenodd" d="M84.6811 15.9998H28.2612C23.6882 15.9998 22.0005 17.6875 22.0005 22.2626V77.4691C22.0005 77.9868 22.0214 78.4677 22.0671 78.9133C22.1712 79.912 22.1908 80.8797 23.1196 81.9815C23.2104 82.0894 24.1586 82.795 24.1586 82.795C24.6687 83.0452 25.0169 83.2294 25.5922 83.4609L53.3741 95.1006C54.8163 95.7618 55.4194 96.0194 56.4669 95.9987C56.4684 95.9987 56.4696 95.9988 56.4711 95.9988C56.4725 95.9988 56.4738 95.9988 56.4752 95.9988C57.5227 96.0196 58.1258 95.7618 59.5682 95.1006L87.35 83.4609C87.9253 83.2294 88.2735 83.0452 88.7837 82.795C88.7837 82.795 89.7319 82.0894 89.8225 81.9815C90.7513 80.8797 90.7709 79.912 90.875 78.9133C90.9208 78.4677 90.9418 77.9868 90.9418 77.4691V22.2626C90.9418 17.6875 89.254 15.9998 84.6811 15.9998Z" fill="#2F2D2E"/>
<path d="M80.9028 71.5026L80.8901 71.6301L80.8774 71.77L80.8518 71.8974L80.8138 72.0246L80.7891 72.1393L80.7507 72.2667L80.6999 72.3813L80.6489 72.4833L80.5987 72.5978L80.4715 72.8016L80.3958 72.9034L80.332 73.0053L80.2564 73.0943L80.1672 73.1835L80.0915 73.2599L79.9898 73.3491L79.9013 73.4255L79.7995 73.502L79.6984 73.5647L79.5972 73.6412L79.4826 73.7048L79.3687 73.7558L79.2549 73.8194L79.1275 73.8704L79.001 73.9214L78.8744 73.9595L78.7478 73.9978L78.6332 74.0359L78.5067 74.0614L78.279 74.1123L78.1516 74.1379L78.0249 74.1505L77.9111 74.1633L77.7837 74.1761L77.6445 74.1889L77.5178 74.2015H76.9853L76.8586 74.1889H76.7194L76.4655 74.1633L76.3261 74.1505L76.1996 74.1251L76.073 74.1123L75.9456 74.0869L75.8189 74.0614L75.6923 74.0359L75.5658 74.0105L75.4385 73.9724L75.3246 73.9468L75.0714 73.8704L74.9569 73.8194L74.8303 73.7812L74.7164 73.7431L74.5897 73.6921L74.4752 73.6412L74.3613 73.5902L74.2474 73.5274L74.1329 73.4764L74.019 73.4126L73.9179 73.3491L73.8032 73.2854L73.7021 73.2217L73.6003 73.1581L73.398 73.0053L73.2962 72.9288L73.1949 72.8524L73.1058 72.776L73.0047 72.687L73.0811 72.5851L73.1695 72.4959L73.2459 72.3939L73.3344 72.2921L73.4108 72.203L73.4864 72.1012L73.5756 71.9992L73.6511 71.9101L73.7403 71.8083L73.816 71.7191L73.9051 71.6173L73.9808 71.5153L74.0572 71.4262L74.1456 71.3244L74.222 71.2224L74.3103 71.1333L74.3867 71.0315L74.4879 71.1079L74.6018 71.1843L74.7036 71.2608L74.8175 71.3372L74.9194 71.4008L75.0333 71.4771L75.1343 71.5409L75.249 71.5917L75.35 71.6555L75.4639 71.7065L75.5786 71.7573L75.6923 71.8083L75.8064 71.8465L75.9209 71.8974L76.1741 71.9738L76.2879 72.012L76.6684 72.0884L76.8078 72.1012L76.935 72.1266H77.0617L77.2009 72.1393H77.4796L77.6189 72.1266L77.7463 72.1012L77.8601 72.0756L77.974 72.0502L78.0759 72.012L78.1644 71.9611L78.2662 71.8847L78.3418 71.7955L78.3928 71.6935L78.4311 71.5791L78.4436 71.4517V71.4262L78.4311 71.2734L78.3801 71.146L78.3163 71.0569L78.228 70.9805L78.126 70.9041L78.0249 70.8532L77.9111 70.8023L77.7837 70.7513L77.6317 70.6878L77.5432 70.6622L77.4422 70.6368L77.3276 70.5984L77.2137 70.573L77.0871 70.5348L76.9597 70.5094L76.8205 70.4712L76.6938 70.4457L76.5545 70.4075L76.428 70.3821L76.3005 70.3439L76.1741 70.3183L76.0474 70.2801L75.9328 70.2421L75.8064 70.2165L75.5786 70.1401L75.4639 70.1019L75.3246 70.0509L75.1981 69.9999L74.9441 69.898L74.8303 69.8344L74.7036 69.7708L74.6018 69.7072L74.4879 69.6435L74.3867 69.5671L74.2849 69.5035L74.1965 69.4269L74.1075 69.3379L74.019 69.2487L73.9426 69.1595L73.867 69.0704L73.8032 68.9813L73.7403 68.8794L73.6767 68.7649L73.6257 68.6765L73.5875 68.5745L73.5501 68.4599L73.5119 68.3581L73.4864 68.2307L73.4609 68.1161L73.4482 67.9888L73.4355 67.8614L73.4227 67.7215V67.4285L73.4355 67.3012L73.4482 67.1866L73.4609 67.0592L73.5119 66.83L73.5501 66.7153L73.5756 66.6008L73.6257 66.4862L73.7275 66.2571L73.7906 66.1423L73.8541 66.0278L73.9298 65.9258L74.0064 65.824L74.0947 65.7222L74.1838 65.6331L74.2723 65.5311L74.3741 65.4419L74.4624 65.3783L74.5643 65.3019L74.6656 65.2255L74.7665 65.1618L74.8812 65.0982L74.9951 65.0472L75.1089 64.9836L75.2235 64.9327L75.35 64.8944L75.4766 64.8435L75.5912 64.8053L75.6923 64.7797L75.9209 64.7289L76.0474 64.7035L76.1614 64.6779L76.5419 64.6397L76.6684 64.627H77.2137L77.4924 64.6525H77.6189L77.759 64.6653L77.8855 64.6907L78.0249 64.7035L78.1516 64.7289L78.2662 64.7543L78.3928 64.7797L78.5193 64.8053L78.6332 64.8307L78.7605 64.8689L78.8744 64.9071L78.9883 64.9327L79.1156 64.9836L79.2295 65.0218L79.4572 65.1236L79.5844 65.1746L79.6984 65.2382L79.7995 65.2892L79.9141 65.3529L80.028 65.4165L80.1292 65.4803L80.2436 65.5567L80.3449 65.6202L80.4468 65.6967L80.6489 65.8494L80.5733 65.9514L80.5097 66.0532L80.434 66.1551L80.3576 66.2571L80.282 66.3716L80.2182 66.4734L80.1418 66.5754L80.0661 66.6772L80.0026 66.7791L79.9268 66.881L79.8505 66.9829L79.7867 67.0847L79.7111 67.1993L79.6346 67.3012L79.559 67.403L79.4954 67.5049L79.4197 67.6067L79.3178 67.5304L79.2041 67.4667L79.1028 67.403L79.001 67.3266L78.8872 67.2758L78.7852 67.212L78.6714 67.161L78.5703 67.1101L78.4557 67.0592L78.3545 67.0083L78.2408 66.9701L78.1389 66.9191L77.9995 66.881L77.8729 66.8427L77.7463 66.8046L77.4924 66.7536L77.3658 66.7281L77.2393 66.7153L77.1119 66.7026L76.9981 66.6899H76.7194L76.5801 66.7153L76.4527 66.7408L76.3389 66.7663L76.2378 66.8173L76.1486 66.8681L76.0347 66.9701L75.9582 67.0847L75.9082 67.1993L75.8953 67.3266V67.3522L75.9082 67.5177L75.971 67.6577L76.022 67.7341L76.1104 67.8233L76.225 67.8869L76.3261 67.9506L76.4527 68.0016L76.5927 68.0526L76.7448 68.1034L76.846 68.1288L76.9471 68.167L77.0617 68.1925L77.1755 68.2307L77.302 68.2562L77.5816 68.3325L77.7209 68.3709L77.8601 68.3963L77.9867 68.4345L78.126 68.4727L78.2534 68.4981L78.5067 68.5745L78.6204 68.6128L78.7478 68.651L78.9755 68.7274L79.1156 68.7775L79.2421 68.8413L79.3687 68.8921L79.4954 68.9558L79.61 69.0196L79.7239 69.0832L79.8249 69.1468L79.9268 69.2232L80.028 69.2869L80.1292 69.3761L80.231 69.4651L80.3193 69.5671L80.4084 69.6562L80.4841 69.7581L80.5605 69.8726L80.6234 69.9745L80.6872 70.0892L80.7381 70.1911L80.7763 70.3056L80.8138 70.4202L80.8392 70.5348L80.8901 70.7896L80.9028 70.9169L80.9156 71.0569V71.3626L80.9028 71.5026ZM64.748 74.0488V64.7797H72.0752V66.881H67.1688V68.3963H71.5808V70.3693H67.1688V71.9482H72.1389V74.0488H64.748ZM60.4295 74.0488V68.5677L60.366 68.6696L60.2903 68.785L60.2265 68.8869L60.1509 68.9889L60.0873 69.1034L60.0107 69.2053L59.9479 69.3072L59.8842 69.4225L59.8086 69.5243L59.7448 69.6262L59.6686 69.7282L59.6056 69.8435L59.5292 69.9453L59.4663 70.0472L59.4025 70.1618L59.3261 70.2644L59.2632 70.3663L59.1868 70.4808L59.124 70.5828L59.0476 70.6847L58.9846 70.8L58.9209 70.902L58.8446 71.0038L58.7817 71.1184L58.7053 71.221L58.6423 71.3228L58.5659 71.4248L58.5021 71.5393L58.4392 71.6418L58.363 71.7438L58.3 71.8584L58.2236 71.9603L58.16 72.0621L58.0843 72.1776L58.0206 72.2794H57.9704L57.8941 72.1648L57.8303 72.0621L57.7546 71.9475L57.691 71.8457L57.6153 71.7312L57.5516 71.6285L57.4761 71.5139L57.4123 71.4119L57.3359 71.2974L57.273 71.1956L57.1965 71.0801L57.1338 70.9782L57.0573 70.8636L56.9936 70.7618L56.918 70.6464L56.8542 70.5446L56.7787 70.43L56.7023 70.3281L56.6386 70.2128L56.5629 70.111L56.4993 69.9963L56.4236 69.8945L56.3599 69.779L56.2842 69.6772L56.2206 69.5626L56.1442 69.4607L56.0813 69.3461L56.0048 69.2434L55.9419 69.1289L55.8655 69.0269L55.8019 68.9123L55.7263 68.8106L55.6624 68.6951L55.5868 68.5933V74.0488H53.1779V64.7797H55.7772L55.8401 64.8817L55.9037 64.9962L55.9793 65.0973L56.0431 65.212L56.1067 65.3138L56.1696 65.4286L56.2332 65.5296L56.3091 65.6443L56.3726 65.7462L56.4364 65.848L56.4993 65.9618L56.5629 66.0638L56.6386 66.1782L56.7023 66.2802L56.7659 66.394L56.8288 66.4958L56.9052 66.5977L56.969 66.7117L57.0318 66.8134L57.0954 66.9281L57.1585 67.03L57.2349 67.1438L57.2985 67.2458L57.3613 67.3603L57.4251 67.4614L57.488 67.5632L57.5644 67.6779L57.6281 67.7799L57.691 67.8945L57.7546 67.9956L57.8175 68.1102L57.8941 68.2121L57.9577 68.3258L58.0206 68.4278L58.0843 68.3258L58.1479 68.2121L58.2236 68.1102L58.2871 67.9956L58.3502 67.8945L58.4138 67.7799L58.4895 67.6779L58.5531 67.5632L58.6169 67.4614L58.6797 67.3603L58.7561 67.2458L58.819 67.1438L58.8828 67.03L58.9463 66.9281L59.022 66.8134L59.0856 66.7117L59.1494 66.5977L59.2122 66.4958L59.2761 66.394L59.3517 66.2802L59.4153 66.1782L59.4789 66.0638L59.542 65.9618L59.6183 65.848L59.6813 65.7462L59.7448 65.6443L59.8086 65.5296L59.8842 65.4286L59.9479 65.3138L60.0107 65.212L60.0745 65.0973L60.1509 64.9962L60.2138 64.8817L60.2775 64.7797H62.8759V74.0488H60.4295ZM48.0401 70.2293L48.0019 70.1139L47.9518 69.9865L47.9008 69.8719L47.8626 69.7566L47.8124 69.642L47.7616 69.5145L47.7232 69.3992L47.6722 69.2846L47.6222 69.1701L47.5839 69.0548L47.5329 68.9274L47.4955 68.8127L47.4446 68.6974L47.3936 68.5828L47.3555 68.4682L47.3052 68.3402L47.2544 68.2254L47.2162 68.1109L47.1652 67.9956L47.115 67.8682L47.0768 67.7529L47.0258 67.6382L46.9757 67.7529L46.9376 67.8682L46.8866 67.9956L46.8356 68.1109L46.7981 68.2254L46.7473 68.3402L46.6963 68.4682L46.6462 68.5828L46.6078 68.6974L46.557 68.8127L46.506 68.9274L46.4685 69.0548L46.4176 69.1701L46.3666 69.2846L46.3286 69.3992L46.2783 69.5145L46.2273 69.642L46.1764 69.7566L46.1391 69.8719L46.0881 69.9865L46.0371 70.1139L45.9989 70.2293L45.9488 70.3439H48.091L48.0401 70.2293ZM49.536 74.0488L49.4858 73.934L49.4476 73.8194L49.3967 73.7048L49.3457 73.5775L49.3082 73.4636L49.2064 73.2345L49.1689 73.1199L49.118 73.0053L49.067 72.8906L49.029 72.776L48.9787 72.6487L48.9277 72.5341L48.8895 72.4195L48.8385 72.3049H45.2004L45.1502 72.4195L45.112 72.5341L45.061 72.6487L45.0102 72.776L44.9727 72.8906L44.9218 73.0053L44.8708 73.1199L44.8326 73.2345L44.7825 73.3491L44.7315 73.4636L44.6933 73.5775L44.643 73.7048L44.5922 73.8194L44.554 73.934L44.503 74.0488H41.9427L41.9929 73.934L42.0439 73.8194L42.0947 73.7048L42.145 73.5775L42.1832 73.4636L42.2342 73.3491L42.285 73.2345L42.3352 73.1199L42.3862 73.0053L42.4372 72.8778L42.4873 72.7632L42.5383 72.6487L42.5764 72.5341L42.6274 72.4195L42.6775 72.3049L42.7285 72.1776L42.7793 72.063L42.8296 71.9482L42.8806 71.8337L42.9315 71.7191L42.9697 71.6045L43.0198 71.4771L43.1218 71.248L43.1719 71.1333L43.2739 70.9041L43.3241 70.7767L43.3623 70.6622L43.4133 70.5476L43.4641 70.433L43.5144 70.3183L43.5652 70.2037L43.6161 70.0765L43.6664 69.9618L43.7172 69.8472L43.7554 69.7326L43.8064 69.6181L43.8565 69.5035L43.9075 69.3761L43.9585 69.2614L44.0087 69.1468L44.0595 69.0322L44.1105 68.9177L44.1487 68.8029L44.199 68.6892L44.2499 68.5618L44.3007 68.4473L44.351 68.3325L44.4018 68.2179L44.4528 68.1034L44.503 67.9888L44.5412 67.8614L44.5922 67.7469L44.643 67.6323L44.6933 67.5177L44.7443 67.403L44.7951 67.2884L44.8454 67.161L44.8963 67.0465L44.9345 66.9319L44.9853 66.8173L45.0356 66.7026L45.0865 66.588L45.1374 66.4608L45.1876 66.3461L45.2896 66.1169L45.3269 66.0024L45.3779 65.8876L45.4289 65.7604L45.4799 65.6457L45.53 65.5311L45.581 65.4165L45.6319 65.3019L45.682 65.1874L45.7204 65.06L45.7712 64.9454L45.8222 64.8307L45.8723 64.7161H48.2177L48.2685 64.8307L48.3195 64.9454L48.3698 65.06L48.4206 65.1874L48.4588 65.3019L48.509 65.4165L48.56 65.5311L48.6108 65.6457L48.6618 65.7604L48.712 65.8876L48.8139 66.1169L48.8513 66.2315L48.9533 66.4608L49.0043 66.588L49.0544 66.7026L49.1053 66.8173L49.1562 66.9319L49.2064 67.0465L49.2446 67.161L49.2954 67.2884L49.3457 67.403L49.3967 67.5177L49.4476 67.6323L49.4986 67.7469L49.5487 67.8614L49.5995 67.9888L49.6379 68.1034L49.688 68.2179L49.8409 68.5618L49.891 68.6892L49.942 68.8029L49.9928 68.9177L50.0303 69.0322L50.0812 69.1468L50.1322 69.2614L50.1825 69.3761L50.2333 69.5035L50.3353 69.7326L50.3854 69.8472L50.4236 69.9618L50.4745 70.0765L50.5248 70.2037L50.5756 70.3183L50.6266 70.433L50.6775 70.5476L50.7277 70.6622L50.7787 70.7767L50.8168 70.9041L50.8671 71.0187L50.9179 71.1333L50.9689 71.248L51.0191 71.3626L51.0701 71.4771L51.121 71.6045L51.172 71.7191L51.2094 71.8337L51.3114 72.063L51.3615 72.1776L51.4124 72.3049L51.4634 72.4195L51.5142 72.5341L51.5643 72.6487L51.6027 72.7632L51.6537 72.8778L51.7038 73.0053L51.8055 73.2345L51.8558 73.3491L51.9067 73.4636L51.9576 73.5775L51.996 73.7048L52.046 73.8194L52.097 73.934L52.1478 74.0488H49.536ZM40.9151 72.8651L40.8133 72.9415L40.7248 73.0053L40.6229 73.0817L40.5218 73.1453L40.4207 73.2217L40.3188 73.2854L40.2177 73.3491L40.1031 73.4126L39.8752 73.54L39.7608 73.5902L39.6469 73.6539L39.5203 73.7048L39.4065 73.7558L39.2791 73.8066L39.1653 73.8576L39.0513 73.8958L38.9368 73.934L38.8229 73.9724L38.6963 74.0105L38.5826 74.0488L38.4552 74.0742L38.3412 74.0997L38.2147 74.1251L38.0874 74.1505L37.9607 74.1633L37.8214 74.1761L37.6948 74.1889L37.5555 74.2015L37.4281 74.2143L37.2889 74.2269H36.7435L36.6169 74.2143L36.4776 74.2015L36.351 74.1889L36.0971 74.1633L35.8438 74.1123L35.73 74.0869L35.6028 74.0614L35.4889 74.0232L35.3623 73.9978L35.2477 73.9595L35.1338 73.9086L35.0198 73.8704L34.8934 73.8194L34.7788 73.7686L34.6649 73.7177L34.5511 73.6667L34.4364 73.6031L34.3354 73.54L34.2215 73.4764L34.1196 73.4126L34.0185 73.3491L33.9166 73.2726L33.7142 73.1199L33.6252 73.0435L33.5368 72.967L33.4476 72.8778L33.3593 72.8016L33.2701 72.7124L33.1817 72.6232L33.1053 72.5341L33.0296 72.4323L32.9532 72.3431L32.8896 72.2412L32.8139 72.1393L32.7504 72.0376L32.6873 71.9356L32.6237 71.8209L32.56 71.7191L32.5099 71.6045L32.4589 71.4899L32.4081 71.3752L32.3578 71.2608L32.3196 71.1589L32.2686 71.0441L32.2432 70.9295L32.2057 70.815L32.1802 70.6878L32.142 70.573L32.1166 70.4457L32.1038 70.3311L32.0783 70.2037L32.0658 70.0892L32.0528 69.9618L32.0409 69.8344L32.0283 69.7072V69.2869L32.0409 69.1468V69.0196L32.0528 68.8921L32.0658 68.7521L32.0912 68.6255L32.1038 68.4981L32.1293 68.3835L32.1675 68.2562L32.193 68.1288L32.2304 68.0142L32.2686 67.8869L32.3068 67.7723L32.3578 67.6449L32.4081 67.5304L32.4589 67.4158L32.5099 67.3012L32.56 67.1866L32.6237 67.0719L32.6873 66.9701L32.7504 66.8681L32.8139 66.7663L32.8776 66.6644L32.9532 66.5626L33.0296 66.4608L33.1053 66.3589L33.1817 66.2696L33.2701 66.1805L33.3465 66.0913L33.5241 65.9131L33.6124 65.8368L33.7142 65.7476L33.8027 65.6712L33.9039 65.5947L34.0057 65.5311L34.1068 65.4547L34.2088 65.3911L34.3098 65.3274L34.4237 65.2637L34.5383 65.2L34.6521 65.1364L34.766 65.0854L34.8805 65.0346L35.0072 64.9708L35.1083 64.9327L35.2349 64.8944L35.3497 64.8435L35.4634 64.8179L35.5772 64.7797L35.7045 64.7543L35.8184 64.7161L35.9449 64.6907L36.0716 64.6779L36.1989 64.6525L36.7061 64.6015H37.2505L37.5301 64.627H37.6566L37.7832 64.6397L37.9225 64.6653L38.0371 64.6779L38.1637 64.7035L38.2904 64.7289L38.4049 64.7543L38.6327 64.8053L38.7473 64.8435L38.8611 64.8689L38.9622 64.9071L39.0769 64.9454L39.1908 64.9962L39.3045 65.0472L39.4192 65.0982L39.5331 65.1618L39.6469 65.2128L39.7488 65.2764L39.8626 65.3401L39.9637 65.4037L40.0784 65.4675L40.1795 65.5438L40.2806 65.6075L40.3825 65.6839L40.4836 65.7604L40.5854 65.8494L40.6866 65.9258L40.6101 66.0278L40.5218 66.1169L40.4454 66.2187L40.357 66.3206L40.2806 66.4225L40.2049 66.5116L40.1157 66.6134L40.0402 66.7153L39.9637 66.8046L39.8752 66.9065L39.799 67.0083L39.7105 67.1101L39.6341 67.1993L39.5585 67.3012L39.4694 67.403L39.3936 67.5049L39.3045 67.5941L39.2288 67.6959L39.127 67.6195L39.0259 67.5304L38.924 67.4667L38.8229 67.3902L38.7218 67.3266L38.5187 67.1993L38.4049 67.1356L38.303 67.0847L38.2019 67.0337L38.1001 66.9955L37.8724 66.9191L37.7578 66.8937L37.6312 66.8681L37.5046 66.8427L37.3779 66.83L37.2386 66.8173L37.0986 66.8046H36.8327L36.7061 66.8173L36.5915 66.83L36.4649 66.8555L36.351 66.881L36.2364 66.9191L36.1226 66.9573L36.0087 67.0083L35.8948 67.0592L35.793 67.1228L35.692 67.1866L35.59 67.2503L35.5016 67.3266L35.4124 67.403L35.3241 67.4794L35.2477 67.5685L35.1593 67.6577L35.0829 67.7595L35.0198 67.8487L34.9562 67.9506L34.8934 68.0652L34.8297 68.167L34.7788 68.2817L34.7406 68.3963L34.6903 68.5109L34.6521 68.6382L34.6267 68.7649L34.6013 68.8794L34.5757 69.0196L34.5631 69.1468L34.5511 69.2741V69.5671L34.5631 69.6944L34.5757 69.809L34.5885 69.9364L34.6649 70.2801L34.7031 70.3948L34.7406 70.4966L34.7916 70.6239L34.8424 70.7386L34.9054 70.8532L35.0326 71.0569L35.1083 71.1589L35.1848 71.248L35.2731 71.3372L35.3497 71.4262L35.4379 71.5026L35.5398 71.5791L35.641 71.6555L35.742 71.7191L35.8438 71.7827L36.0716 71.8847L36.1861 71.9356L36.4394 72.012L36.6933 72.063L36.8199 72.0756L36.9592 72.0884H37.2505L37.5301 72.063L37.6566 72.0502L37.7832 72.0246L37.9106 71.9992L38.0371 71.9611L38.1509 71.9356L38.265 71.8847L38.3668 71.8337L38.4806 71.7827L38.5696 71.7319L38.6709 71.6681V70.5094H36.8199V68.651H41.0035V72.7888L40.9151 72.8651Z" fill="white"/>
<path d="M36.8381 43.8077H42.3325V39.5576H36.8381V30.8811H42.5512V26.6311H32.1723V57.3042H42.6381V53.054H36.8381V43.8077Z" fill="white"/>
<path d="M76.1931 44.7283V51.6518C76.1931 52.8789 75.626 53.4482 74.4492 53.4482H73.5765C72.3557 53.4482 71.7886 52.8789 71.7886 51.6518V32.2833C71.7886 31.0564 72.3557 30.4871 73.5765 30.4871H74.3616C75.5391 30.4871 76.1062 31.0564 76.1062 32.2833V38.2871H80.6845V32.0204C80.6845 28.2086 78.8529 26.368 75.0598 26.368H72.7916C68.9984 26.368 67.1226 28.252 67.1226 32.0646V51.8705C67.1226 55.6833 68.9984 57.5671 72.7916 57.5671H75.1031C78.8972 57.5671 80.772 55.6833 80.772 51.8705V44.7283H76.1931Z" fill="white"/>
<path d="M59.9896 57.3042H64.6561V26.631H59.9896V57.3042Z" fill="white"/>
<path d="M53.2188 40.2587C53.2188 41.4857 52.6525 42.0557 51.475 42.0557H49.5559V30.7501H51.475C52.6525 30.7501 53.2188 31.3196 53.2188 32.5463V40.2587ZM52.2159 26.6311H44.89V57.3043H49.5559V46.174H52.2159C56.0098 46.174 57.8847 44.2901 57.8847 40.4783V32.3276C57.8847 28.515 56.0098 26.6311 52.2159 26.6311Z" fill="white"/>
<path fill-rule="evenodd" clip-rule="evenodd" d="M43.1791 85.0388H69.8898L56.2562 89.5349L43.1791 85.0388Z" fill="white"/>
</g>
<rect x="1" y="1" width="110" height="110" rx="9" stroke="black" stroke-opacity="0.1" stroke-width="2"/>
<defs>
<clipPath id="clip0_755_421">
<rect x="2" y="2" width="108" height="108" rx="8" fill="white"/>
</clipPath>
</defs>
</svg>
