<svg width="112" height="112" viewBox="0 0 112 112" fill="none" xmlns="http://www.w3.org/2000/svg">
<g clip-path="url(#clip0_755_425)">
<rect x="2" y="2" width="108" height="108" rx="8" fill="white"/>
<path d="M34.7644 95.9983H77.6924C81.1719 95.9983 82.456 94.7142 82.456 91.2331V49.2283C82.456 48.8343 82.4402 48.4684 82.4054 48.1294C82.3988 48.0666 82.3927 48.0039 82.3866 47.9413L82.3865 47.9402C82.3189 47.2465 82.2522 46.5633 81.6046 45.7949C81.5355 45.7128 80.814 45.1759 80.814 45.1759C80.7444 45.1418 80.6787 45.1092 80.6153 45.0778C80.3253 44.9342 80.0824 44.8138 79.7232 44.6692L58.5848 35.813C57.4875 35.31 57.0286 35.1139 56.2316 35.1297L56.2284 35.1295H56.2254C55.4283 35.1137 54.9694 35.31 53.872 35.813L32.7337 44.6692C32.3749 44.8137 32.1322 44.9339 31.8426 45.0773C31.7791 45.1088 31.7126 45.1417 31.6428 45.1759C31.6428 45.1759 30.9213 45.7128 30.8524 45.7949C30.2046 46.5634 30.1381 47.2461 30.0705 47.9398C30.0643 48.0029 30.0582 48.0661 30.0516 48.1294C30.0168 48.4684 30.0008 48.8343 30.0008 49.2283V91.2331C30.0008 94.7142 31.285 95.9983 34.7644 95.9983Z" fill="#666666"/>
<path fill-rule="evenodd" clip-rule="evenodd" d="M77.6922 15.9999H34.7641C31.2846 15.9999 30.0005 17.284 30.0005 20.7651V62.77C30.0005 63.1639 30.0164 63.5299 30.0512 63.8688C30.1304 64.6287 30.1453 65.365 30.852 66.2033C30.921 66.2854 31.6425 66.8223 31.6425 66.8223C32.0306 67.0127 32.2956 67.1528 32.7333 67.329L53.8717 76.1853C54.969 76.6883 55.4279 76.8843 56.2249 76.8685C56.226 76.8685 56.227 76.8687 56.2281 76.8687C56.2291 76.8687 56.2301 76.8687 56.2312 76.8687C57.0282 76.8845 57.4871 76.6883 58.5846 76.1853L79.7228 67.329C80.1606 67.1528 80.4255 67.0127 80.8137 66.8223C80.8137 66.8223 81.5352 66.2854 81.6041 66.2033C82.3108 65.365 82.3258 64.6287 82.4049 63.8688C82.4397 63.5299 82.4558 63.1639 82.4558 62.77V20.7651C82.4558 17.284 81.1716 15.9999 77.6922 15.9999Z" fill="white"/>
<path d="M74.8169 58.2302L74.8071 58.3272L74.7975 58.4337L74.778 58.5306L74.7491 58.6274L74.7303 58.7146L74.7011 58.8116L74.6625 58.8988L74.6236 58.9764L74.5855 59.0635L74.4887 59.2186L74.431 59.2961L74.3825 59.3736L74.325 59.4414L74.2572 59.5092L74.1996 59.5673L74.1222 59.6352L74.0549 59.6933L73.9774 59.7515L73.9004 59.7993L73.8235 59.8574L73.7363 59.9058L73.6496 59.9446L73.563 59.993L73.4661 60.0318L73.3698 60.0707L73.2735 60.0996L73.1772 60.1288L73.09 60.1577L72.9937 60.1772L72.8204 60.2159L72.7235 60.2354L72.6271 60.2449L72.5406 60.2546L72.4436 60.2644L72.3377 60.2741L72.2413 60.2837H71.8361L71.7397 60.2741H71.6338L71.4406 60.2546L71.3346 60.2449L71.2383 60.2256L71.142 60.2159L71.045 60.1965L70.8524 60.1577L70.7561 60.1384L70.6592 60.1094L70.5726 60.0899L70.3799 60.0318L70.2928 59.993L70.1965 59.964L70.1098 59.935L70.0134 59.8962L69.9263 59.8574L69.8396 59.8186L69.753 59.7708L69.6658 59.732L69.5792 59.6835L69.5023 59.6352L69.415 59.5867L69.338 59.5383L69.2605 59.4898L69.1067 59.3736L69.0292 59.3154L68.9521 59.2573L68.8844 59.1992L68.8075 59.1314L68.8656 59.0539L68.9328 58.986L68.991 58.9084L69.0582 58.8309L69.1164 58.7632L69.1739 58.6857L69.2417 58.6081L69.2993 58.5404L69.3671 58.4629L69.4248 58.3949L69.4925 58.3175L69.5501 58.2399L69.6083 58.1721L69.6755 58.0946L69.7336 58.0171L69.8008 57.9493L69.859 57.8718L69.9359 57.9299L70.0226 57.9881L70.1001 58.0463L70.1867 58.1044L70.2642 58.1528L70.3509 58.2108L70.4277 58.2593L70.5151 58.298L70.5919 58.3466L70.6786 58.3854L70.7658 58.424L70.8524 58.4629L70.9392 58.4919L71.0262 58.5306L71.219 58.5887L71.3055 58.6178L71.5951 58.676L71.7011 58.6857L71.7979 58.7051H71.8943L72.0002 58.7146H72.2122L72.3182 58.7051L72.4152 58.6857L72.5017 58.6662L72.5885 58.6469L72.6659 58.6178L72.7332 58.5791L72.8107 58.521L72.8682 58.4531L72.907 58.3755L72.9362 58.2884L72.9457 58.1915V58.1721L72.9362 58.0558L72.8974 57.9589L72.8489 57.8911L72.7817 57.833L72.704 57.7749L72.6271 57.7361L72.5406 57.6974L72.4436 57.6586L72.3279 57.6103L72.2607 57.5908L72.1838 57.5714L72.0966 57.5423L72.0099 57.523L71.9136 57.4939L71.8167 57.4745L71.7108 57.4455L71.6143 57.4261L71.5083 57.397L71.412 57.3777L71.3151 57.3486L71.219 57.3292L71.1225 57.3001L71.0353 57.2711L70.9392 57.2517L70.7658 57.1936L70.6786 57.1645L70.5726 57.1256L70.3799 57.0482L70.283 57.0094L70.1965 56.9609L70.1001 56.9126L70.0226 56.8642L69.9359 56.8157L69.859 56.7576L69.7815 56.7092L69.7143 56.6509L69.6465 56.5832L69.5792 56.5153L69.5211 56.4474L69.4635 56.3796L69.415 56.3119L69.3671 56.2343L69.3187 56.1472L69.2799 56.08L69.2508 56.0024L69.2225 55.9152L69.1934 55.8377L69.1739 55.7408L69.1545 55.6536L69.1448 55.5567L69.1352 55.4598L69.1255 55.3533V55.1303L69.1352 55.0335L69.1448 54.9463L69.1545 54.8493L69.1934 54.6751L69.2225 54.5877L69.2417 54.5006L69.2799 54.4134L69.3187 54.3262L69.3574 54.2391L69.4054 54.1518L69.4537 54.0647L69.5113 53.9871L69.5695 53.9096L69.6368 53.8321L69.7046 53.7644L69.7718 53.6867L69.8493 53.6189L69.9166 53.5705L69.9941 53.5123L70.0711 53.4542L70.1479 53.4058L70.2351 53.3573L70.3219 53.3186L70.4084 53.2701L70.4956 53.2314L70.5919 53.2022L70.6882 53.1636L70.7754 53.1345L70.8524 53.115L70.9392 53.0957L71.0262 53.0764L71.1225 53.057L71.2092 53.0375L71.4988 53.0084L71.5951 52.9989H72.0099L72.1159 53.0084L72.2219 53.0182H72.3182L72.4248 53.0279L72.5211 53.0473L72.6271 53.057L72.7235 53.0764L72.8107 53.0957L73.0033 53.1345L73.09 53.1539L73.1868 53.1829L73.2735 53.212L73.3602 53.2314L73.457 53.2701L73.5437 53.2992L73.6302 53.3378L73.7169 53.3767L73.8137 53.4155L73.9004 53.4639L73.9774 53.5027L74.0646 53.5511L74.1512 53.5995L74.2282 53.648L74.3153 53.7062L74.3924 53.7545L74.4699 53.8127L74.6236 53.9289L74.5662 54.0065L74.5177 54.084L74.4601 54.1615L74.4019 54.2391L74.3445 54.3262L74.2959 54.4037L74.2378 54.4813L74.1802 54.5588L74.1319 54.6362L74.0742 54.7138L74.0161 54.7913L73.9677 54.8688L73.9101 54.956L73.8519 55.0335L73.7944 55.111L73.746 55.1885L73.6884 55.266L73.6109 55.2079L73.5243 55.1594L73.4473 55.111L73.3698 55.0529L73.2832 55.0142L73.2056 54.9656L73.119 54.9268L73.0421 54.8882L72.9549 54.8493L72.878 54.8107L72.7914 54.7816L72.7139 54.7428L72.6077 54.7138L72.5115 54.6846L72.4152 54.6557L72.1256 54.5974L72.0293 54.5877L71.9324 54.5781L71.8458 54.5684H71.6338L71.5278 54.5877L71.4308 54.6071L71.3443 54.6265L71.2674 54.6653L71.1995 54.704L71.1128 54.7816L71.0547 54.8688L71.0167 54.956L71.0068 55.0529V55.0723L71.0167 55.1982L71.0644 55.3048L71.1032 55.3629L71.1704 55.4308L71.2576 55.4792L71.3346 55.5276L71.4308 55.5664L71.5374 55.6052L71.6532 55.6439L71.7301 55.6633L71.8071 55.6923L71.8943 55.7117L71.9809 55.7408L72.0772 55.7602L72.1838 55.7892L72.2898 55.8183L72.3959 55.8474L72.5017 55.8667L72.598 55.8958L72.704 55.9249L72.801 55.9442L72.9937 56.0024L73.0803 56.0314L73.1772 56.0605L73.3504 56.1186L73.457 56.1568L73.5533 56.2054L73.6496 56.244L73.746 56.2924L73.8332 56.341L73.9198 56.3894L73.9967 56.4378L74.0742 56.4959L74.1512 56.5443L74.2282 56.6123L74.3057 56.68L74.3729 56.7576L74.4407 56.8253L74.4982 56.9029L74.5564 56.99L74.6043 57.0675L74.6528 57.1548L74.6915 57.2323L74.7206 57.3194L74.7491 57.4067L74.7685 57.4939L74.8071 57.6878L74.8169 57.7846L74.8266 57.8911V58.1237L74.8169 58.2302ZM62.5252 60.1676V53.115H68.1002V54.7138H64.3671V55.8667H67.724V57.368H64.3671V58.5693H68.1487V60.1676H62.5252ZM59.2393 60.1676V55.9972L59.191 56.0747L59.1334 56.1626L59.0849 56.2401L59.0274 56.3176L58.979 56.4048L58.9207 56.4823L58.8729 56.5598L58.8244 56.6476L58.7669 56.7251L58.7184 56.8026L58.6603 56.8801L58.6125 56.9679L58.5543 57.0454L58.5065 57.1229L58.458 57.2101L58.3998 57.2881L58.3519 57.3657L58.2938 57.4528L58.246 57.5304L58.1879 57.6079L58.14 57.6956L58.0915 57.7733L58.0335 57.8508L57.9856 57.938L57.9275 58.0159L57.8796 58.0934L57.8214 58.1711L57.7729 58.2581L57.725 58.3362L57.667 58.4138L57.6191 58.501L57.5609 58.5785L57.5125 58.6559L57.4549 58.7438L57.4065 58.8213H57.3683L57.3102 58.7341L57.2617 58.6559L57.2041 58.5687L57.1557 58.4912L57.0981 58.4042L57.0496 58.3261L56.9922 58.2388L56.9436 58.1612L56.8855 58.0741L56.8376 57.9966L56.7795 57.9088L56.7318 57.8313L56.6736 57.7441L56.6251 57.6666L56.5675 57.5788L56.5191 57.5013L56.4615 57.4141L56.4034 57.3366L56.355 57.2488L56.2974 57.1714L56.249 57.0841L56.1914 57.0067L56.143 56.9188L56.0854 56.8413L56.037 56.7541L55.9788 56.6766L55.9309 56.5894L55.8727 56.5113L55.8249 56.4242L55.7667 56.3466L55.7183 56.2593L55.6609 56.182L55.6122 56.0942L55.5547 56.0167V60.1676H53.7218V53.115H55.6995L55.7474 53.1926L55.7958 53.2797L55.8533 53.3567L55.9018 53.4439L55.9502 53.5214L55.9981 53.6087L56.0465 53.6856L56.1042 53.7729L56.1525 53.8503L56.2011 53.9278L56.249 54.0144L56.2974 54.092L56.355 54.1791L56.4034 54.2567L56.4518 54.3432L56.4997 54.4207L56.5578 54.4982L56.6064 54.585L56.6541 54.6624L56.7026 54.7496L56.7506 54.8272L56.8087 54.9138L56.8571 54.9913L56.9049 55.0785L56.9534 55.1554L57.0013 55.2329L57.0594 55.3201L57.1078 55.3977L57.1557 55.485L57.2041 55.5619L57.252 55.6491L57.3102 55.7266L57.3586 55.8131L57.4065 55.8907L57.4549 55.8131L57.5034 55.7266L57.5609 55.6491L57.6092 55.5619L57.6572 55.485L57.7057 55.3977L57.7632 55.3201L57.8117 55.2329L57.8602 55.1554L57.908 55.0785L57.9661 54.9913L58.014 54.9138L58.0625 54.8272L58.1108 54.7496L58.1684 54.6624L58.2168 54.585L58.2654 54.4982L58.3131 54.4207L58.3617 54.3432L58.4193 54.2567L58.4677 54.1791L58.5161 54.092L58.5641 54.0144L58.6221 53.9278L58.6701 53.8503L58.7184 53.7729L58.7669 53.6856L58.8244 53.6087L58.8729 53.5214L58.9207 53.4439L58.9692 53.3567L59.0274 53.2797L59.0753 53.1926L59.1236 53.115H61.1007V60.1676H59.2393ZM49.8127 57.2614L49.7836 57.1736L49.7454 57.0767L49.7067 56.9895L49.6776 56.9018L49.6394 56.8146L49.6007 56.7176L49.5716 56.6298L49.5327 56.5426L49.4947 56.4555L49.4655 56.3678L49.4267 56.2709L49.3983 56.1836L49.3595 56.0959L49.3207 56.0086L49.2918 55.9214L49.2535 55.8241L49.2148 55.7367L49.1857 55.6497L49.1469 55.5619L49.1088 55.4649L49.0797 55.3772L49.0409 55.2899L49.0028 55.3772L48.9738 55.4649L48.935 55.5619L48.8962 55.6497L48.8677 55.7367L48.829 55.8241L48.7902 55.9214L48.752 56.0086L48.7228 56.0959L48.6842 56.1836L48.6454 56.2709L48.6168 56.3678L48.5782 56.4555L48.5393 56.5426L48.5104 56.6298L48.4721 56.7176L48.4333 56.8146L48.3947 56.9018L48.3662 56.9895L48.3275 57.0767L48.2886 57.1736L48.2595 57.2614L48.2214 57.3486H49.8513L49.8127 57.2614ZM50.9508 60.1676L50.9126 60.0802L50.8836 59.993L50.8448 59.9058L50.8061 59.809L50.7775 59.7223L50.7001 59.548L50.6715 59.4608L50.594 59.2864L50.565 59.1992L50.5268 59.1023L50.488 59.0151L50.4589 58.9279L50.4201 58.8407H47.652L47.6139 58.9279L47.5848 59.0151L47.5459 59.1023L47.5073 59.1992L47.4787 59.2864L47.4401 59.3736L47.4013 59.4608L47.3722 59.548L47.3341 59.6352L47.2952 59.7223L47.2661 59.809L47.2279 59.9058L47.1892 59.993L47.1601 60.0802L47.1214 60.1676H45.1733L45.2115 60.0802L45.2503 59.993L45.289 59.9058L45.3273 59.809L45.3564 59.7223L45.4338 59.548L45.4719 59.4608L45.5108 59.3736L45.5496 59.2767L45.5877 59.1894L45.6265 59.1023L45.6554 59.0151L45.6943 58.9279L45.7324 58.8407L45.7712 58.7438L45.8099 58.6566L45.8482 58.5693L45.9257 58.3949L45.9547 58.3077L45.9929 58.2108L46.0317 58.1237L46.0704 58.0365L46.1086 57.9493L46.1862 57.7749L46.2244 57.6779L46.2535 57.5908L46.3309 57.4164L46.3692 57.3292L46.4079 57.242L46.4465 57.1451L46.4848 57.0579L46.5235 56.9707L46.5525 56.8835L46.5914 56.7964L46.6295 56.7092L46.6683 56.6123L46.7071 56.525L46.7453 56.4378L46.784 56.3506L46.8228 56.2635L46.8518 56.1762L46.8901 56.0896L46.9288 55.9927L46.9675 55.9055L47.0057 55.8183L47.0444 55.731L47.0832 55.6439L47.1214 55.5567L47.1504 55.4598L47.1892 55.3726L47.2279 55.2854L47.2661 55.1982L47.305 55.111L47.3436 55.0238L47.3819 54.9268L47.4206 54.8398L47.4496 54.7526L47.4884 54.6653L47.5266 54.5781L47.5653 54.4909L47.6041 54.3941L47.6422 54.3068L47.7199 54.1324L47.7482 54.0453L47.7871 53.958L47.8259 53.8611L47.8646 53.7739L47.9028 53.6867L47.9416 53.5995L47.9803 53.5123L48.0185 53.4252L48.0477 53.3283L48.0863 53.2411L48.1251 53.1539L48.1632 53.0666H49.9477L50.0252 53.2411L50.0635 53.3283L50.1022 53.4252L50.1312 53.5123L50.1694 53.5995L50.2082 53.6867L50.2469 53.7739L50.2857 53.8611L50.3238 53.958L50.4015 54.1324L50.4298 54.2196L50.5075 54.3941L50.5462 54.4909L50.5844 54.5781L50.6231 54.6653L50.6619 54.7526L50.7001 54.8398L50.7291 54.9268L50.7678 55.0238L50.8061 55.111L50.9223 55.3726L50.9605 55.4598L50.9992 55.5567L51.0283 55.6439L51.0665 55.731L51.1052 55.8183L51.1828 55.9927L51.2209 56.0896L51.2597 56.1762L51.2984 56.2635L51.3269 56.3506L51.4044 56.525L51.4427 56.6123L51.4814 56.7092L51.5202 56.7964L51.559 56.8835L51.5972 56.9707L51.6262 57.0579L51.6649 57.1451L51.7032 57.242L51.7418 57.3292L51.7807 57.4164L51.8193 57.5036L51.8576 57.5908L51.8964 57.6779L51.9254 57.7749L51.9636 57.8621L52.0023 57.9493L52.0411 58.0365L52.0793 58.1237L52.118 58.2108L52.1568 58.3077L52.1957 58.3949L52.224 58.4822L52.3017 58.6566L52.3398 58.7438L52.3785 58.8407L52.456 59.0151L52.4941 59.1023L52.5233 59.1894L52.5621 59.2767L52.6003 59.3736L52.6776 59.548L52.7159 59.6352L52.7546 59.7223L52.7934 59.809L52.8225 59.9058L52.8606 59.993L52.9381 60.1676H50.9508ZM44.3915 59.2669L44.314 59.325L44.2466 59.3736L44.1692 59.4317L44.0922 59.4801L44.0152 59.5383L43.9378 59.5867L43.8608 59.6352L43.7736 59.6835L43.6002 59.7805L43.5132 59.8186L43.4265 59.8671L43.3302 59.9058L43.2436 59.9446L43.1467 59.9833L43.0601 60.0221L42.9734 60.0512L42.8862 60.0802L42.7996 60.1094L42.7033 60.1384L42.6167 60.1676L42.5198 60.1869L42.4331 60.2063L42.3368 60.2256L42.24 60.2449L42.1435 60.2546L42.0375 60.2644L41.9412 60.2741L41.8352 60.2837L41.7383 60.2935L41.6324 60.3031H41.2174L41.1211 60.2935L41.0151 60.2837L40.7256 60.2546L40.6293 60.2354L40.5328 60.2159L40.4463 60.1965L40.3495 60.1772L40.2628 60.1481L40.1665 60.1288L40.0793 60.0996L39.9926 60.0609L39.906 60.0318L39.8098 59.993L39.7226 59.9543L39.6359 59.9157L39.5493 59.8769L39.462 59.8285L39.3851 59.7805L39.2985 59.732L39.221 59.6835L39.1441 59.6352L39.0666 59.577L38.9126 59.4608L38.8448 59.4026L38.7776 59.3445L38.7097 59.2767L38.6425 59.2186L38.5746 59.1507L38.5074 59.0828L38.4493 59.0151L38.3917 58.9376L38.3335 58.8698L38.2851 58.7923L38.2275 58.7146L38.1792 58.6373L38.1312 58.5597L38.0828 58.4724L38.0344 58.3949L37.9962 58.3077L37.9574 58.2205L37.9187 58.1333L37.8805 58.0463L37.8514 57.9688L37.8126 57.8814L37.7933 57.7942L37.7647 57.7071L37.7454 57.6103L37.7163 57.523L37.697 57.4261L37.6872 57.3389L37.6678 57.242L37.6583 57.1548L37.6484 57.0579L37.6394 56.9609L37.6297 56.8642V56.5443L37.6394 56.4378V56.341L37.6484 56.244L37.6583 56.1374L37.6776 56.0411L37.6872 55.9442L37.7066 55.857L37.7357 55.7602L37.7551 55.6633L37.7835 55.5761L37.8126 55.4792L37.8417 55.392L37.8805 55.2951L37.9187 55.2079L37.9574 55.1207L37.9962 55.0335L38.0344 54.9463L38.0828 54.8591L38.1312 54.7816L38.1792 54.704L38.2275 54.6265L38.276 54.549L38.3335 54.4715L38.3917 54.3941L38.4493 54.3166L38.5074 54.2486L38.5746 54.1808L38.6328 54.113L38.7001 54.0453L38.7678 53.9774L38.8351 53.9193L38.9126 53.8514L38.9799 53.7933L39.0569 53.7352L39.1343 53.6867L39.2113 53.6286L39.2888 53.5802L39.3657 53.5317L39.4524 53.4833L39.5396 53.4348L39.6262 53.3864L39.7128 53.3476L39.8 53.3089L39.8963 53.2604L39.9733 53.2314L40.0695 53.2022L40.1569 53.1636L40.2435 53.1441L40.3301 53.115L40.4268 53.0957L40.5136 53.0666L40.6099 53.0473L40.7062 53.0375L40.8031 53.0182L40.8995 53.0084L40.9957 52.9989L41.189 52.9794H41.6032L41.8159 52.9989H41.9122L42.0085 53.0084L42.1145 53.0279L42.2017 53.0375L42.298 53.057L42.3944 53.0764L42.4815 53.0957L42.6548 53.1345L42.742 53.1636L42.8286 53.1829L42.9056 53.212L42.9928 53.2411L43.0795 53.2797L43.166 53.3186L43.2533 53.3573L43.3399 53.4058L43.4265 53.4445L43.5041 53.493L43.5907 53.5414L43.6676 53.5898L43.7548 53.6383L43.8317 53.6963L43.9087 53.7449L43.9862 53.803L44.0631 53.8611L44.1406 53.9289L44.2176 53.9871L44.1594 54.0647L44.0922 54.1324L44.034 54.2099L43.9669 54.2874L43.9087 54.365L43.8511 54.4327L43.7833 54.5102L43.7257 54.5877L43.6676 54.6557L43.6002 54.7332L43.5422 54.8107L43.4749 54.8882L43.4167 54.956L43.3593 55.0335L43.2915 55.111L43.2338 55.1885L43.166 55.2564L43.1084 55.3339L43.0309 55.2757L42.954 55.2079L42.8765 55.1594L42.7996 55.1012L42.7226 55.0529L42.5681 54.956L42.4815 54.9075L42.4041 54.8688L42.3271 54.83L42.2496 54.8009L42.0764 54.7428L41.9891 54.7235L41.7966 54.6846L41.7002 54.6751L41.5942 54.6653L41.4876 54.6557H41.2853L41.189 54.6653L41.1018 54.6751L41.0055 54.6944L40.9188 54.7138L40.8316 54.7428L40.745 54.7718L40.6583 54.8107L40.5717 54.8493L40.4942 54.8978L40.4173 54.9463L40.3398 54.9948L40.2725 55.0529L40.2047 55.111L40.1375 55.1692L40.0793 55.2369L40.0121 55.3048L39.954 55.3823L39.906 55.4501L39.8575 55.5276L39.8098 55.6148L39.7612 55.6923L39.7226 55.7795L39.6935 55.8667L39.6552 55.9539L39.6262 56.0508L39.6068 56.1472L39.5874 56.2343L39.568 56.341L39.5584 56.4378L39.5493 56.5346V56.7576L39.5584 56.8544L39.568 56.9417L39.5777 57.0386L39.6359 57.3001L39.6649 57.3873L39.6935 57.4648L39.7323 57.5616L39.7709 57.6489L39.8188 57.7361L39.9157 57.8911L39.9733 57.9688L40.0315 58.0365L40.0986 58.1044L40.1569 58.1721L40.224 58.2302L40.3016 58.2884L40.3785 58.3466L40.4554 58.3949L40.5328 58.4434L40.6197 58.4822L40.7062 58.521L40.7934 58.5597L40.986 58.6178L41.1793 58.6566L41.2755 58.6662L41.3816 58.676H41.6032L41.8159 58.6566L41.9122 58.6469L42.0085 58.6274L42.1055 58.6081L42.2017 58.5791L42.2883 58.5597L42.375 58.521L42.4525 58.4822L42.5391 58.4434L42.6069 58.4047L42.6839 58.3562V57.4745H41.2755V56.0605H44.4587V59.2089L44.3915 59.2669Z" fill="#343434"/>
<path d="M41.2892 37.158H45.4697V33.9243H41.2892V27.3226H45.6362V24.0889H37.7391V47.4271H45.7023V44.1933H41.2892V37.158Z" fill="#343434"/>
<path d="M71.2331 37.8585V43.1264C71.2331 44.06 70.8016 44.4932 69.9062 44.4932H69.2422C68.3133 44.4932 67.8818 44.06 67.8818 43.1264V28.3895C67.8818 27.456 68.3133 27.0229 69.2422 27.0229H69.8396C70.7354 27.0229 71.167 27.456 71.167 28.3895V32.9576H74.6504V28.1895C74.6504 25.2891 73.2569 23.8888 70.3708 23.8888H68.645C65.7588 23.8888 64.3316 25.3222 64.3316 28.2231V43.2928C64.3316 46.1938 65.7588 47.6271 68.645 47.6271H70.4038C73.2906 47.6271 74.717 46.1938 74.717 43.2928V37.8585H71.2331Z" fill="#343434"/>
<path d="M58.9049 47.4271H62.4555V24.0888H58.9049V47.4271Z" fill="#343434"/>
<path d="M53.7532 34.4577C53.7532 35.3913 53.3223 35.825 52.4264 35.825H50.9662V27.2229H52.4264C53.3223 27.2229 53.7532 27.6561 53.7532 28.5896V34.4577ZM52.9902 24.0888H47.4161V47.4271H50.9662V38.9584H52.9902C55.8768 38.9584 57.3033 37.5251 57.3033 34.6247V28.4232C57.3033 25.5223 55.8768 24.0888 52.9902 24.0888Z" fill="#343434"/>
<path fill-rule="evenodd" clip-rule="evenodd" d="M46.1143 68.5295H66.4377L56.0643 71.9505L46.1143 68.5295Z" fill="#343434"/>
<path d="M45.7729 80.7215L51.9212 80.722V82.5319H49.8394V88.7982H47.8473V82.5318H45.7729V80.7215Z" fill="white"/>
<path d="M43.0994 83.4364H44.9118C44.9118 82.7184 44.9936 81.9324 43.6005 81.0979C42.5172 80.449 40.9253 80.7695 40.3136 81.1128C39.2651 81.7013 38.9951 82.4991 39.018 83.3573C39.0562 84.7839 40.1035 85.103 41.0833 85.468C41.7192 85.7048 42.4388 85.8469 42.9047 86.2754C43.0833 86.4396 43.1577 86.7626 42.7699 86.9121C42.2183 87.1246 41.6268 87.149 41.0123 86.7544C40.8019 86.6193 40.733 86.4068 40.733 86.178L38.8142 86.1534C38.8142 86.818 38.9345 87.3647 39.355 87.8409C39.9608 88.5269 40.7909 88.7297 41.6915 88.7922C42.8202 88.8705 43.482 88.6731 44.028 88.3203C44.5836 87.9614 44.9347 87.4151 45.039 86.6724C45.1023 86.2219 45.1518 85.7802 44.6346 85.1368C44.1706 84.6887 43.3778 84.2454 42.373 83.9383C41.8918 83.7564 41.181 83.5601 41.0538 83.2502C40.9236 82.9834 41.1242 82.7168 41.2937 82.6185C41.5683 82.4645 41.9654 82.4629 42.3124 82.5941C42.7157 82.7464 43.0994 83.0404 43.0994 83.4364Z" fill="white"/>
<path d="M52.7347 83.3244L52.7172 85.9836C52.7172 89.6755 59.1126 89.7776 59.1126 85.9836V83.3244C59.1126 79.7122 52.7347 79.9848 52.7347 83.3244ZM55.9198 82.3889C56.5419 82.3994 57.164 82.8034 57.164 83.5693V85.8998C57.164 87.4105 54.6752 87.3856 54.6752 85.8998V83.5693C54.6752 82.7613 55.2975 82.3784 55.9198 82.3889Z" fill="white"/>
<path d="M60.6756 80.7043V88.7733H62.6375V85.8954H63.4015L64.9659 88.7627H66.966V88.0449L65.5218 85.6238C67.5596 84.4469 67.063 80.7133 64.4811 80.7133L60.6756 80.7043ZM62.642 82.4293L63.7542 82.4506C65.0212 82.4506 64.9513 84.1449 63.7542 84.153H62.642V82.4293Z" fill="white"/>
<path d="M68.2991 80.6856L73.4365 80.6803V82.3874H70.2462V83.8878H72.9722V85.5806H70.2163V87.0788H73.5413V88.7519H68.2991V80.6856Z" fill="white"/>
</g>
<rect x="1" y="1" width="110" height="110" rx="9" stroke="black" stroke-opacity="0.1" stroke-width="2"/>
<defs>
<clipPath id="clip0_755_425">
<rect x="2" y="2" width="108" height="108" rx="8" fill="white"/>
</clipPath>
</defs>
</svg>
