<svg width="112" height="112" viewBox="0 0 112 112" fill="none" xmlns="http://www.w3.org/2000/svg">
<g clip-path="url(#clip0_755_422)">
<rect x="2" y="2" width="108" height="108" rx="8" fill="white"/>
<path fill-rule="evenodd" clip-rule="evenodd" d="M37.7589 55.0591C37.7589 52.5949 39.8301 50.5887 42.294 50.5887C43.6561 50.5887 44.6256 51.1236 45.3569 51.8201L44.4956 52.6814C43.9729 52.1906 43.2641 51.8098 42.2927 51.8098C40.4931 51.8098 39.0869 53.2585 39.0869 55.0581C39.0869 56.8576 40.4935 58.308 42.2917 58.308C43.4585 58.308 44.1221 57.8397 44.548 57.4128C44.8969 57.0639 45.1251 56.5628 45.2136 55.8756H42.2937V54.6571H46.4039C46.447 54.8753 46.4696 55.1367 46.4696 55.4196C46.4696 56.3343 46.2185 57.4692 45.4109 58.2768C44.6249 59.0947 43.623 59.5308 42.2924 59.5308C39.8275 59.5308 37.7563 57.5266 37.7563 55.0604L37.7589 55.0591ZM49.7928 53.7729C48.2012 53.7729 46.9017 54.9838 46.9017 56.6507C46.9017 58.309 48.2002 59.5285 49.7928 59.5285C51.3854 59.5285 52.6819 58.3073 52.6819 56.6497C52.6815 54.9828 51.3844 53.7719 49.7928 53.7729ZM49.7928 58.3965C48.9212 58.3965 48.1684 57.6772 48.1684 56.6517C48.1684 55.6156 48.9205 54.9068 49.7928 54.9068C50.6644 54.9068 51.4163 55.6146 51.4163 56.6517C51.4163 57.6762 50.6651 58.3965 49.7928 58.3965ZM56.0963 53.7729C54.5047 53.7729 53.2072 54.9838 53.2072 56.6507C53.2072 58.309 54.5047 59.5285 56.0963 59.5285C57.6879 59.5285 58.9854 58.3073 58.9854 56.6497C58.9854 54.9828 57.6889 53.7719 56.0963 53.7729ZM56.0963 58.3965C55.2247 58.3965 54.4718 57.6772 54.4718 56.6517C54.4718 55.6156 55.224 54.9068 56.0963 54.9068C56.9679 54.9068 57.7208 55.6146 57.7208 56.6517C57.7208 57.6762 56.9679 58.3965 56.0963 58.3965ZM63.8325 53.9477V54.416H63.7894C63.5065 54.0767 62.9613 53.7719 62.2747 53.7719C60.8353 53.7719 59.5144 55.0372 59.5144 56.663C59.5144 58.2751 60.8344 59.5305 62.2747 59.5305C62.9609 59.5305 63.5062 59.226 63.7894 58.8771H63.8325V59.2907C63.8325 60.3914 63.2438 60.9811 62.2953 60.9811C61.5206 60.9811 61.0413 60.4246 60.8446 59.9573L59.7429 60.415C60.0586 61.1775 60.8994 62.1157 62.2943 62.1157C63.7758 62.1157 65.0302 61.2425 65.0302 59.1166V53.9467L63.8325 53.9477ZM62.3829 58.3965C61.5113 58.3965 60.779 57.6652 60.779 56.663C60.779 55.6494 61.5103 54.9078 62.3829 54.9078C63.2442 54.9078 63.9201 55.6488 63.9201 56.663C63.9211 57.6649 63.2452 58.3965 62.3829 58.3965ZM65.9037 50.8941H67.169V59.3554H65.9037V50.8941ZM70.6372 58.3965C69.9941 58.3965 69.5354 58.1014 69.2429 57.5249L73.0918 55.9313L72.9591 55.6043C72.7203 54.9622 71.989 53.7729 70.4949 53.7729C69.0124 53.7729 67.7799 54.9397 67.7799 56.6517C67.7799 58.2639 69.0011 59.5295 70.6368 59.5295C71.9568 59.5295 72.7203 58.7239 73.036 58.2536L72.0547 57.6002C71.727 58.0805 71.2793 58.3972 70.6372 58.3965ZM70.5387 54.8849C71.0398 54.8849 71.4646 55.136 71.6066 55.4952L69.0326 56.5641C69.0004 55.4517 69.8946 54.8849 70.5387 54.8849Z" fill="#5F6368"/>
<path fill-rule="evenodd" clip-rule="evenodd" d="M94.5918 53.8386L93.1381 57.5206H93.0947L91.5863 53.8386H90.2205L92.4821 58.9865L91.1916 61.8494H92.5139L96 53.8382L94.5918 53.8386Z" fill="#5F6368"/>
<path fill-rule="evenodd" clip-rule="evenodd" d="M89.7532 59.3689V56.059C89.7532 54.5261 88.6077 53.6711 87.1295 53.6711C86.1979 53.6711 85.2318 54.0827 84.8318 54.9931L85.9753 55.47C86.2201 54.9931 86.6748 54.8369 87.1534 54.8369C87.819 54.8369 88.4966 55.2368 88.5069 55.9489V56.0381C88.2737 55.9048 87.7749 55.7041 87.1627 55.7041C85.9299 55.7041 84.6749 56.3814 84.6749 57.6476C84.6749 58.8038 85.6861 59.547 86.8191 59.547C87.6864 59.547 88.1633 59.1583 88.4624 58.7036H88.5065V59.3703H89.7519L89.7532 59.3689ZM86.9759 58.4038C86.5537 58.4038 85.9647 58.1929 85.9647 57.6719C85.9647 57.0052 86.6987 56.7479 87.3318 56.7479C87.8989 56.7479 88.1646 56.8696 88.5099 57.0367C88.411 57.8118 87.756 58.3942 86.9759 58.4038Z" fill="#5F6368"/>
<path fill-rule="evenodd" clip-rule="evenodd" d="M83.7121 59.4535V51.3979H82.5102V59.4535H83.7121Z" fill="#5F6368"/>
<path fill-rule="evenodd" clip-rule="evenodd" d="M79.1253 51.4138H76.2647V59.4137H77.4584V56.3837H79.1259C80.4496 56.3837 81.7507 55.4255 81.7507 53.8983C81.7507 52.374 80.4502 51.4148 79.1276 51.4148L79.1253 51.4138ZM79.1561 55.2697H77.4584V52.5265H79.1561C80.0486 52.5265 80.557 53.2671 80.557 53.8979C80.557 54.5185 80.0486 55.2697 79.1561 55.2697Z" fill="#5F6368"/>
<path d="M23.6137 55.5331L16.0688 63.3855V63.3891C16.3003 64.2416 17.0928 64.8686 18.0373 64.8686C18.4136 64.8686 18.7683 64.7682 19.0722 64.5927L27.5906 59.7709L23.6137 55.5331Z" fill="#EA4335"/>
<path d="M31.249 54.1969L31.2418 54.1933L27.5761 52.1084L23.4436 55.7122L27.5906 59.7745L31.2346 57.7147C31.8751 57.3744 32.3093 56.7152 32.3093 55.9522C32.3093 55.1963 31.8823 54.5372 31.249 54.1969Z" fill="#FBBC04"/>
<path d="M16.0688 48.4831C16.0217 48.6479 16 48.8198 16 48.9989V62.8732C16.0072 63.0738 16.0253 63.2243 16.0688 63.3855L23.8742 55.7337L16.0688 48.4831Z" fill="#4285F4"/>
<path d="M23.6679 55.9343L27.5725 52.1084L19.0903 47.2866C18.7827 47.1039 18.4209 47 18.0373 47C17.0928 47 16.3003 47.6305 16.0688 48.4831C16.0688 48.4831 16.0688 48.4831 16.0688 48.4867L23.6679 55.9343Z" fill="#34A853"/>
</g>
<rect x="1" y="1" width="110" height="110" rx="9" stroke="black" stroke-opacity="0.1" stroke-width="2"/>
<defs>
<clipPath id="clip0_755_422">
<rect x="2" y="2" width="108" height="108" rx="8" fill="white"/>
</clipPath>
</defs>
</svg>
