<svg width="112" height="112" viewBox="0 0 112 112" fill="none" xmlns="http://www.w3.org/2000/svg">
<g clip-path="url(#clip0_755_428)">
<rect x="2" y="2" width="108" height="108" rx="8" fill="white"/>
<path d="M54.0805 54.2243L20.2832 89.3645C21.3217 93.1963 24.9091 96 29.063 96C30.7623 96 32.3672 95.5327 33.6888 94.785L33.7833 94.6916L71.7343 73.1963L54.0805 54.2243Z" fill="#EA4335"/>
<path d="M88.2552 48.243L71.8287 38.8972L53.3252 54.972L71.8287 73.1963L88.1608 63.9439C90.993 62.4486 92.9755 59.4579 92.9755 56.0935C92.9755 52.6355 91.0874 49.7383 88.2552 48.243Z" fill="#FBBC04"/>
<path d="M20.2832 22.6355C20.0944 23.3832 20 24.1308 20 24.972V87.028C20 87.9626 20.0944 88.6168 20.2832 89.3645L55.2133 55.1589L20.2832 22.6355Z" fill="#4285F4"/>
<path d="M54.3636 56L71.8287 38.8972L33.8776 17.3084C32.4615 16.4673 30.8566 16 29.1573 16C24.9091 16 21.4161 18.8037 20.3776 22.6355L54.3636 56Z" fill="#34A853"/>
</g>
<rect x="1" y="1" width="110" height="110" rx="9" stroke="black" stroke-opacity="0.1" stroke-width="2"/>
<defs>
<clipPath id="clip0_755_428">
<rect x="2" y="2" width="108" height="108" rx="8" fill="white"/>
</clipPath>
</defs>
</svg>
