<svg width="112" height="112" viewBox="0 0 112 112" fill="none" xmlns="http://www.w3.org/2000/svg">
<g clip-path="url(#clip0_755_418)">
<rect x="2" y="2" width="108" height="108" rx="8" fill="white"/>
<g clip-path="url(#clip1_755_418)">
<path fill-rule="evenodd" clip-rule="evenodd" d="M26.3233 16C20.6217 16 16 20.6217 16 26.3233V85.6775C16 91.3783 20.6217 96 26.3233 96H85.6767C91.3767 96 95.9992 91.3783 95.9992 85.6775V26.3233C95.9992 20.6217 91.3775 16 85.6767 16H26.3233Z" fill="white"/>
<path fill-rule="evenodd" clip-rule="evenodd" d="M78.6317 78.9017C77.7767 78.9017 77.1217 79.5858 77.1217 80.4267C77.1217 81.2683 77.7767 81.9525 78.6317 81.9525C79.49 81.9525 80.1233 81.2783 80.1233 80.4275C80.1233 79.575 79.49 78.9017 78.6317 78.9017ZM85.3125 78.9167C84.4942 78.9167 83.8292 79.5958 83.8292 80.4308C83.8292 81.2667 84.4942 81.945 85.3125 81.945C86.13 81.945 86.7958 81.2667 86.7958 80.4308C86.7958 79.5958 86.13 78.9167 85.3125 78.9167ZM65.785 78.82C65.2075 78.82 64.635 79.105 64.38 79.8175H67.2242C67.06 79.335 66.5983 78.82 65.785 78.82ZM91.1817 83.2408H90.8675L90.8783 82.2392L90.5883 83.2408H90.3633L90.0733 82.2392L90.085 83.2408H89.77V81.9025H90.2275L90.4783 82.765L90.7233 81.9025H91.1817V83.2408ZM89.5975 82.2025H89.335V83.2408H88.9933V82.2025H88.7292V81.9025H89.5975V82.2025ZM85.3125 83.4217C84.9184 83.4227 84.528 83.346 84.1636 83.1961C83.7991 83.0462 83.4677 82.826 83.1884 82.548C82.909 82.2701 82.6872 81.9398 82.5355 81.5761C82.3838 81.2124 82.3052 80.8224 82.3042 80.4283C82.3064 79.6325 82.6245 78.87 83.1886 78.3086C83.7527 77.7471 84.5166 77.4326 85.3125 77.4342C86.1083 77.4326 86.8722 77.7471 87.4361 78.3086C88.0001 78.8701 88.318 79.6325 88.32 80.4283C88.318 81.2241 88.0001 81.9864 87.4361 82.5478C86.8721 83.1091 86.1082 83.4234 85.3125 83.4217ZM71.8833 66.1967C69.6792 66.1967 67.2733 65.57 65.3542 64.5375C62.16 66.7417 56.5842 69.5708 49.0175 69.5708C36.05 69.5708 28.5067 61.075 27.6892 60.1067C27.3106 59.658 27.1257 59.0773 27.1753 58.4924C27.2248 57.9074 27.5047 57.3661 27.9533 56.9875C28.402 56.6089 28.9827 56.424 29.5676 56.4736C30.1526 56.5231 30.6939 56.803 31.0725 57.2517C33.545 60.1833 40.1083 65.1442 49.0175 65.1442C56.6642 65.1442 61.9708 61.6283 63.8975 60.1175C64.2846 59.8138 64.7618 59.6477 65.2538 59.6456C65.7458 59.6435 66.2245 59.8054 66.6142 60.1058C67.6558 60.9075 69.7475 61.7708 71.8833 61.7708C77.2875 61.7708 81.5208 57.5442 81.5208 52.1475C81.5208 47.695 77.6858 42.735 72.1825 42.735C72.1241 42.7347 72.0658 42.7328 72.0075 42.7292C71.8969 42.7246 71.7861 42.7273 71.6758 42.7375C71.234 42.7665 70.7937 42.6626 70.4114 42.4393C70.0292 42.2159 69.7225 41.8833 69.5308 41.4842C66.3583 34.8458 60.1867 30.8825 53.0225 30.8825C45.2508 30.8825 37.2117 35.8492 37.2117 44.1592C37.2117 47.0233 38.6483 48.9275 39.8817 50.0342L44.5325 41.3633C44.7234 41.0071 45.0082 40.7099 45.3561 40.5041C45.704 40.2983 46.1015 40.1917 46.5057 40.1959C46.9099 40.2002 47.3051 40.315 47.6486 40.528C47.9921 40.741 48.2707 41.044 48.4542 41.4042L51.1617 46.71L53.8683 41.4042C54.0524 41.043 54.3321 40.7393 54.6771 40.5264C55.022 40.3134 55.4188 40.1994 55.8242 40.1967C56.229 40.1964 56.6263 40.306 56.9737 40.5138C57.3211 40.7216 57.6055 41.0198 57.7967 41.3767L63.5167 52.2133C63.7775 52.7311 63.8248 53.3305 63.6484 53.8828C63.472 54.4351 63.0859 54.896 62.5731 55.1667C62.0604 55.4373 61.462 55.4959 60.9065 55.3299C60.351 55.164 59.8828 54.7867 59.6025 54.2792L55.8733 47.2142L53.1325 52.5858C52.9469 52.9489 52.6647 53.2536 52.3169 53.4664C51.9692 53.6792 51.5694 53.7919 51.1617 53.7919C50.754 53.7919 50.3542 53.6792 50.0064 53.4664C49.6586 53.2536 49.3764 52.9489 49.1908 52.5858L46.4333 47.1833L42.6192 54.2925C42.3524 54.7901 41.9054 55.167 41.3699 55.3459C40.8344 55.5248 40.2507 55.4923 39.7383 55.255C39.455 55.1225 32.785 51.94 32.785 44.16C32.785 33.0792 43.0742 26.4575 53.0208 26.4575C61.4717 26.4575 68.8008 30.8675 72.8842 38.3275C80.7283 38.7208 85.9458 45.6575 85.9458 52.1483C85.9458 60.0267 79.7683 66.1983 71.8825 66.1983L71.8833 66.1967ZM81.7533 83.2475H80.1142V82.8308H80.0858C79.9558 83.0242 79.3517 83.4217 78.5775 83.4217C76.9608 83.4217 75.6017 82.0725 75.6017 80.4267C75.6017 78.7817 76.9617 77.435 78.5767 77.435C79.3517 77.435 79.9558 77.83 80.0858 78.0225H80.1142V75.3117H81.7533V83.2475ZM75.0508 83.2442H73.4125V80.3408C73.4125 79.2317 72.6983 78.9342 72.2292 78.9342C71.5533 78.9342 70.9575 79.4067 70.9575 80.5017V83.2458H69.32V77.6083H70.9575V78.0883H70.975C71.3092 77.6833 71.8575 77.4342 72.4708 77.4342C73.7408 77.4342 75.0508 78.3233 75.0508 80.2192V83.2442ZM67.6808 80.9442H64.3575C64.5183 81.6617 65.1875 82.0392 65.7608 82.0392C66.3292 82.0392 66.7558 81.84 67.105 81.4042L68.4425 81.875C68.0075 82.7333 67.0008 83.4217 65.7758 83.4217C64.0925 83.4217 62.8133 81.9533 62.8133 80.4183C62.8133 78.9333 64.0633 77.435 65.76 77.435C67.7142 77.435 68.7342 79.0992 68.7575 80.2692C68.7575 80.8033 68.3958 80.9442 67.6808 80.9442ZM62.6808 78.9375H61.5733V83.2458H59.94V78.9375H58.845V77.6083H59.9392V76.055H61.5733V77.6083H62.6808V78.9375ZM58.555 83.2442H56.9158V80.3408C56.9158 79.2317 56.2017 78.9342 55.7325 78.9342C55.0575 78.9342 54.4608 79.4067 54.4608 80.5017V83.2458H52.8242V77.6083H54.4608V78.0883H54.4792C54.8125 77.6833 55.3617 77.4342 55.975 77.4342C57.245 77.4342 58.555 78.3233 58.555 80.2192V83.2442ZM50.9383 76.87C50.8103 76.8737 50.6828 76.8516 50.5634 76.8051C50.444 76.7586 50.3352 76.6886 50.2433 76.5993C50.1515 76.5099 50.0785 76.4031 50.0287 76.2851C49.9789 76.167 49.9533 76.0402 49.9534 75.9121C49.9535 75.7839 49.9794 75.6571 50.0294 75.5392C50.0794 75.4212 50.1525 75.3145 50.2445 75.2253C50.3365 75.1362 50.4455 75.0664 50.5649 75.0201C50.6844 74.9738 50.8119 74.9519 50.94 74.9558C51.1889 74.9634 51.4251 75.0676 51.5985 75.2465C51.7718 75.4253 51.8687 75.6647 51.8684 75.9137C51.8682 76.1628 51.771 76.402 51.5973 76.5805C51.4237 76.759 51.1873 76.8629 50.9383 76.87ZM50.12 83.2483H51.7575V77.6075H50.12V83.2483ZM48.9683 82.38C48.9683 82.9217 48.64 83.2992 48.0133 83.2992C47.7483 83.2992 47.4217 83.16 47.0783 82.71L43.7575 78.3383V83.245H41.9992V76.1775C41.9992 75.6358 42.3283 75.2592 42.9542 75.2592C43.2192 75.2592 43.5458 75.3975 43.8892 75.8475L47.2108 80.2175V75.3117H48.9692L48.9683 82.38ZM37.1725 84.3767C36.7825 85.33 36.1342 85.555 34.8825 85.555H34.5708V84.1475H34.8117C35.4658 84.1475 35.935 83.8625 36.0917 83.1317L33.6442 77.6008H35.4758L36.8475 81.1L38.0808 77.6H39.925L37.1725 84.3767ZM33 83.245H31.2417V78.8217H31.2067L29.5692 82.545C29.2858 83.19 28.9692 83.2975 28.6592 83.2975C28.3483 83.2975 28.0317 83.1892 27.7483 82.545L26.1117 78.8217H26.0767V83.245H24.3183V76.5333C24.3183 75.6333 24.8483 75.2575 25.4183 75.2575C25.81 75.2575 26.2983 75.4217 26.665 76.2575C26.9175 76.8325 28.6425 80.7433 28.6425 80.7433H28.6758C28.6758 80.7433 30.4008 76.835 30.6525 76.26C31.0192 75.4217 31.4833 75.2575 31.9 75.2575C32.5167 75.2575 33 75.6425 33 76.5408V83.245ZM26.3233 16C20.6217 16 16 20.6217 16 26.3233V85.6775C16 91.3783 20.6217 96 26.3233 96H85.6767C91.3767 96 95.9992 91.3783 95.9992 85.6775V26.3233C95.9992 20.6217 91.3775 16 85.6767 16H26.3233Z" fill="#E60012"/>
</g>
</g>
<rect x="1" y="1" width="110" height="110" rx="9" stroke="black" stroke-opacity="0.1" stroke-width="2"/>
<defs>
<clipPath id="clip0_755_418">
<rect x="2" y="2" width="108" height="108" rx="8" fill="white"/>
</clipPath>
<clipPath id="clip1_755_418">
<rect width="80" height="80" fill="white" transform="translate(16 16)"/>
</clipPath>
</defs>
</svg>
