<svg width="112" height="112" viewBox="0 0 112 112" fill="none" xmlns="http://www.w3.org/2000/svg">
<g clip-path="url(#clip0_755_426)">
<rect x="2" y="2" width="108" height="108" rx="8" fill="white"/>
<path d="M96.0005 66.4679H16.0005V45H96.0005" fill="#E60012"/>
<path d="M22.2331 53.1194C22.2331 53.2808 22.2648 53.4406 22.3266 53.5897C22.3884 53.7388 22.4789 53.8743 22.5931 53.9884C22.7072 54.1026 22.8427 54.1931 22.9918 54.2548C23.141 54.3166 23.3008 54.3484 23.4622 54.3483C23.7881 54.3483 24.1007 54.2189 24.3312 53.9884C24.5617 53.7579 24.6912 53.4453 24.6912 53.1194C24.6912 52.958 24.6594 52.7981 24.5976 52.649C24.5358 52.4999 24.4453 52.3644 24.3312 52.2503C24.2171 52.1362 24.0816 52.0456 23.9325 51.9839C23.7833 51.9221 23.6235 51.8903 23.4621 51.8903C23.3007 51.8903 23.1409 51.9221 22.9918 51.9839C22.8427 52.0456 22.7072 52.1362 22.593 52.2503C22.4789 52.3644 22.3884 52.4999 22.3266 52.649C22.2648 52.7981 22.2331 52.958 22.2331 53.1194ZM29.9188 49.1974H27.8962C27.885 49.1974 27.874 49.1996 27.8636 49.2039C27.8533 49.2081 27.8439 49.2144 27.836 49.2223C27.8281 49.2302 27.8218 49.2396 27.8175 49.25C27.8132 49.2603 27.8111 49.2714 27.8111 49.2826V62.1746C27.8111 62.2274 27.8538 62.2707 27.9068 62.2707H29.9188C31.77 62.2707 33.2708 60.7699 33.2708 58.9185V52.5495C33.2708 50.6982 31.77 49.1974 29.9188 49.1974ZM30.3974 57.7095C30.2238 57.7095 30.052 57.6753 29.8916 57.6089C29.7312 57.5424 29.5855 57.4451 29.4628 57.3223C29.3401 57.1996 29.2427 57.0539 29.1763 56.8935C29.1099 56.7331 29.0757 56.5613 29.0758 56.3877C29.0796 56.0396 29.2205 55.7072 29.468 55.4624C29.7154 55.2177 30.0494 55.0804 30.3975 55.0804C30.7455 55.0804 31.0796 55.2177 31.327 55.4624C31.5745 55.7072 31.7154 56.0396 31.7192 56.3877C31.7192 56.7382 31.58 57.0745 31.3321 57.3223C31.0842 57.5702 30.748 57.7095 30.3974 57.7095ZM26.4071 49.1974H23.5498C21.6985 49.1974 20.1977 50.6982 20.1977 52.5495V58.9183C20.1977 60.7697 21.6985 62.2705 23.5498 62.2705H26.4071C26.4326 62.2705 26.457 62.2604 26.475 62.2424C26.4931 62.2244 26.5032 62.1999 26.5032 62.1744V49.2932C26.5032 49.2806 26.5007 49.2681 26.4959 49.2565C26.491 49.2448 26.4839 49.2343 26.475 49.2254C26.4661 49.2165 26.4555 49.2094 26.4439 49.2046C26.4322 49.1998 26.4197 49.1974 26.4071 49.1974ZM25.4492 61.2168H23.5498C22.9358 61.2168 22.3587 60.9778 21.9247 60.5438C21.7106 60.3309 21.5409 60.0776 21.4254 59.7986C21.3098 59.5196 21.2508 59.2204 21.2517 58.9185V52.5495C21.2517 51.9354 21.4906 51.3583 21.9246 50.9246C22.1375 50.7105 22.3908 50.5407 22.6697 50.4252C22.9487 50.3096 23.2478 50.2506 23.5498 50.2514H25.4492V61.2168ZM41.2325 51.2411C38.4848 51.2411 36.2572 53.4363 36.2572 56.1442C36.2572 58.852 38.4848 61.0474 41.2325 61.0474C43.9804 61.0474 46.2078 58.852 46.2078 56.1442C46.2078 53.4363 43.9804 51.2411 41.2325 51.2411ZM41.2325 59.1733C39.6161 59.1733 38.3055 57.8171 38.3055 56.1442C38.3055 54.4713 39.6161 53.1152 41.2325 53.1152C42.849 53.1152 44.1593 54.4713 44.1593 56.1442C44.1593 57.8171 42.849 59.1733 41.2325 59.1733ZM68.4593 60.7486H70.437V51.54H68.4593V60.7486ZM91.803 53.3356V51.54H84.1993V60.7486H91.803V58.9527H86.1771V56.8724H91.5301V55.1675H86.1771V53.3356H91.803ZM79.5542 57.4795L74.97 51.5398H73.1148V60.7484H74.9769V54.6083L79.8782 60.7486H81.5092V51.54H79.5541L79.5542 57.4795ZM54.8831 57.4795L50.2989 51.5398H48.4437V60.7484H50.3058V54.6083L55.2071 60.7486H56.8381V51.54H54.8831V57.4795ZM61.4937 51.54H59.516V60.7486H66.5402V58.9527H61.4939L61.4937 51.54Z" fill="white"/>
</g>
<rect x="1" y="1" width="110" height="110" rx="9" stroke="black" stroke-opacity="0.1" stroke-width="2"/>
<defs>
<clipPath id="clip0_755_426">
<rect x="2" y="2" width="108" height="108" rx="8" fill="white"/>
</clipPath>
</defs>
</svg>
