<svg width="112" height="112" viewBox="0 0 112 112" fill="none" xmlns="http://www.w3.org/2000/svg">
<g clip-path="url(#clip0_755_429)">
<rect x="2" y="2" width="108" height="108" rx="8" fill="white"/>
<path d="M94.6142 61.1802C94.5426 61.2132 94.4682 61.2435 94.391 61.2656C94.3139 61.2904 94.2367 61.3097 94.1541 61.3262C94.0714 61.3427 93.9887 61.3538 93.9033 61.362L76.5747 62.8582L65.6303 70.0305L82.3197 68.4131C82.4023 68.4048 82.4822 68.3938 82.5621 68.3772C82.642 68.3607 82.7164 68.3414 82.7908 68.3166C82.8652 68.2918 82.9369 68.2643 83.0058 68.2312C83.0746 68.1981 83.1435 68.1623 83.2069 68.1237C87.0782 65.7734 90.9495 63.423 94.8209 61.0699C94.7547 61.1085 94.6859 61.1471 94.6142 61.1802Z" fill="url(#paint0_linear_755_429)"/>
<path d="M42.4742 19.1632C42.4218 18.929 42.397 18.6975 42.3942 18.4771C42.3942 18.2567 42.419 18.0445 42.4659 17.8461C42.5127 17.6477 42.5844 17.4604 42.6753 17.2868C42.7662 17.1132 42.8792 16.9534 43.0087 16.8128C40.0026 20.0614 36.9964 23.3073 33.9931 26.5559C33.8663 26.6937 33.7561 26.8452 33.6679 27.0133C33.5798 27.1814 33.5081 27.3605 33.4613 27.5506C33.4144 27.7407 33.3869 27.9446 33.3841 28.154C33.3841 28.3634 33.4034 28.5839 33.453 28.8071L37.4538 47.4528L46.8773 38.7733L42.4714 19.1604L42.4742 19.1632Z" fill="url(#paint1_linear_755_429)"/>
<path d="M80.1183 86.775C80.0549 86.8026 79.9888 86.8246 79.9199 86.8466C79.851 86.8687 79.7822 86.8852 79.7133 86.9017C79.6416 86.9155 79.57 86.9293 79.4956 86.9376L61.4313 89.2686C61.0014 89.3237 60.5716 89.2796 60.1583 89.1529C59.745 89.0261 59.3509 88.814 58.9983 88.5357C58.6456 88.2574 58.3314 87.9102 58.078 87.5134C57.8272 87.1167 57.6343 86.6703 57.5269 86.1909L52.749 64.9137L42.7745 72.2458L47.095 92.3795C47.1914 92.8341 47.3677 93.2529 47.6047 93.6277C47.8417 93.9996 48.1365 94.3248 48.4699 94.5865C48.8033 94.8483 49.178 95.0439 49.5721 95.1624C49.9661 95.2809 50.3766 95.3167 50.7872 95.2616L68.1131 92.892C68.182 92.8809 68.2536 92.8699 68.3197 92.8534C68.3886 92.8369 68.4548 92.8203 68.5209 92.7983C68.587 92.7762 68.6504 92.7542 68.711 92.7294C68.7716 92.7046 68.835 92.6743 68.8929 92.644C72.6981 90.6573 76.5005 88.6735 80.3029 86.6868C80.2423 86.7171 80.1789 86.7474 80.1156 86.775H80.1183Z" fill="url(#paint2_linear_755_429)"/>
<path d="M32.7117 66.6441C32.2543 66.6827 31.7969 66.6248 31.3643 66.4815C30.929 66.341 30.5184 66.1178 30.1519 65.8285C29.7855 65.5392 29.4658 65.1865 29.2096 64.787C28.9561 64.3874 28.7687 63.9383 28.6723 63.4589L24.5144 43.0717C24.4621 42.8127 24.44 42.5565 24.4455 42.3112C24.451 42.066 24.4869 41.829 24.5475 41.6059C24.6081 41.3827 24.6935 41.1705 24.801 40.9776C24.9112 40.782 25.0407 40.6029 25.195 40.4431C22.3762 43.4051 19.5547 46.3644 16.7359 49.3237C16.5899 49.478 16.4604 49.6488 16.3557 49.8362C16.251 50.0236 16.1656 50.2247 16.1077 50.4369C16.0499 50.6491 16.014 50.875 16.0058 51.1064C15.9975 51.3407 16.0168 51.5804 16.0636 51.8284L19.8275 71.1244C19.9157 71.5763 20.0893 71.9978 20.3262 72.3753C20.5632 72.7528 20.8663 73.0835 21.2107 73.3535C21.5551 73.6235 21.9464 73.8302 22.3569 73.9597C22.7675 74.0892 23.2028 74.1415 23.6382 74.0974L42.7771 72.2403L52.7517 64.9082L32.7117 66.6386V66.6441Z" fill="url(#paint3_linear_755_429)"/>
<path d="M95.8763 58.6783V58.6728C95.8597 58.4716 95.8239 58.2622 95.766 58.05L90.9882 39.9168C90.9331 39.7129 90.8642 39.5118 90.776 39.3216V39.3189C90.6906 39.1288 90.5887 38.9441 90.4757 38.7706C90.2498 38.4206 89.9715 38.1093 89.6601 37.853C89.5058 37.7263 89.346 37.6105 89.1779 37.5113H89.1724L89.1669 37.5058C88.9988 37.4066 88.8252 37.3212 88.6489 37.2523C88.4698 37.1835 88.2879 37.1339 88.1061 37.1008C87.9242 37.0677 87.7396 37.0567 87.555 37.0622L70.4082 37.7841L65.7791 18.9428C65.6799 18.5322 65.5036 18.1437 65.2749 17.791C65.1619 17.6147 65.0324 17.4466 64.8947 17.2923C64.7569 17.1352 64.6053 16.9919 64.4455 16.8569C64.1259 16.5897 63.7705 16.3775 63.3985 16.2287C63.2111 16.1543 63.021 16.0964 62.8281 16.0579C62.6352 16.0193 62.4396 16 62.2467 16L44.7941 16.0772C44.5874 16.0772 44.3918 16.0992 44.2072 16.1405C44.0226 16.1819 43.8462 16.2425 43.6864 16.3196C43.3613 16.4767 43.0885 16.7026 42.8763 16.9809C42.6669 17.2592 42.5181 17.5926 42.4492 17.9618C42.4134 18.1465 42.3969 18.3393 42.4024 18.5405C42.4079 18.7416 42.4327 18.9483 42.4796 19.1632L46.8854 38.7761L27.1238 39.6082C26.6719 39.6275 26.2613 39.7377 25.9031 39.9223C25.724 40.0132 25.5587 40.1235 25.4099 40.2502V40.253C25.2611 40.3797 25.1261 40.5202 25.0076 40.6773C24.7707 40.9914 24.6026 41.3606 24.5172 41.7657C24.4731 41.9696 24.451 42.179 24.4538 42.3994C24.4538 42.6198 24.4758 42.8458 24.5227 43.0772L28.6806 63.4644C28.7302 63.7041 28.799 63.9328 28.89 64.1532V64.1587C28.9809 64.3792 29.0911 64.5913 29.2151 64.7897C29.3419 64.9909 29.4851 65.1782 29.6422 65.3518C29.7992 65.5254 29.9701 65.6852 30.1547 65.8285C30.5212 66.1178 30.9317 66.341 31.3671 66.4815C31.7997 66.6221 32.2571 66.6827 32.7145 66.6441L52.7544 64.9137L57.5323 86.1909C57.5846 86.4278 57.659 86.6565 57.7499 86.8769V86.8852L57.7554 86.8935C57.8464 87.1112 57.9566 87.3206 58.0806 87.5162C58.2073 87.7146 58.3479 87.8992 58.5022 88.07V88.0728C58.6565 88.2436 58.8218 88.3979 58.9981 88.5385C59.1745 88.6762 59.3591 88.7974 59.552 88.9022H59.5547L59.5602 88.9077C59.7531 89.0096 59.9542 89.095 60.1581 89.1584C60.3648 89.2218 60.5742 89.2659 60.7864 89.2852C60.9985 89.3044 61.2135 89.3017 61.4256 89.2741L79.49 86.9431C79.6911 86.9183 79.8812 86.8687 80.0576 86.7998C80.2339 86.7309 80.3992 86.6427 80.5535 86.5353C80.7051 86.4278 80.8429 86.3038 80.9696 86.1661H80.9724L80.9751 86.1578C81.0991 86.02 81.2066 85.8657 81.3003 85.7004C81.4876 85.3642 81.6116 84.9785 81.6612 84.5624C81.7081 84.1464 81.6833 83.7 81.5703 83.2398L76.5637 62.861L93.8924 61.3648C94.2616 61.3317 94.5923 61.216 94.8733 61.0314C95.1516 60.8468 95.3803 60.596 95.5484 60.2957C95.631 60.1469 95.6999 59.9843 95.7523 59.8135V59.808C95.8046 59.6371 95.8404 59.4553 95.8597 59.2679C95.879 59.0778 95.879 58.8822 95.8625 58.6783H95.8763Z" fill="url(#paint4_linear_755_429)"/>
<path d="M47.312 58.8408L44.62 45.1052L31.1985 45.9428L33.8905 59.9595L47.312 58.8408ZM43.0191 47.18L44.9562 57.0608L35.4914 57.8489L33.5571 47.7696L43.0191 47.18Z" fill="#D07500"/>
<path d="M90.2133 49.602C89.7945 45.6259 86.2208 42.3911 82.2448 42.3911C80.3353 42.3911 78.6187 43.1323 77.409 44.4742C76.1884 45.8298 75.6291 47.6346 75.8302 49.5579C76.249 53.5339 79.8228 56.7687 83.7988 56.7687C85.7083 56.7687 87.4249 56.0275 88.6345 54.6857C89.8551 53.33 90.4145 51.5252 90.2133 49.602ZM87.1824 53.3796C86.3475 54.3054 85.1462 54.8179 83.7988 54.8179C80.8423 54.8179 78.0841 52.316 77.7728 49.3567C77.6295 47.9901 78.0152 46.7226 78.8584 45.783C79.6933 44.8572 80.8946 44.3447 82.242 44.3447C85.1985 44.3447 87.9567 46.8466 88.268 49.8059C88.4113 51.1725 88.0256 52.4428 87.1824 53.3796Z" fill="#D07500"/>
<path d="M73.8684 81.3992L75.0807 79.7818L69.3909 75.6762L73.5047 69.9781L71.8872 68.7657L67.7762 74.4584L61.4498 69.7163L60.2375 71.3338L66.5611 76.073L61.8218 82.3939L63.4392 83.6063L68.1757 77.2881L73.8684 81.3992Z" fill="#D07500"/>
<path d="M55.5177 18.9593L49.4145 33.7254L65.2883 32.8106L55.5177 18.9565V18.9593ZM62.3428 31.2731L52.5501 31.6203L55.9475 22.6019L62.34 31.2703L62.3428 31.2731Z" fill="#D07500"/>
</g>
<rect x="1" y="1" width="110" height="110" rx="9" stroke="black" stroke-opacity="0.1" stroke-width="2"/>
<defs>
<linearGradient id="paint0_linear_755_429" x1="24.6139" y1="18.7794" x2="94.6805" y2="26.6666" gradientUnits="userSpaceOnUse">
<stop stop-color="#D39D04"/>
<stop offset="0.47" stop-color="#C06C11"/>
</linearGradient>
<linearGradient id="paint1_linear_755_429" x1="12.3667" y1="48.6132" x2="73.5978" y2="99.5949" gradientUnits="userSpaceOnUse">
<stop stop-color="#D39D04"/>
<stop offset="0.47" stop-color="#C06C11"/>
</linearGradient>
<linearGradient id="paint2_linear_755_429" x1="12.7668" y1="46.0729" x2="96.4613" y2="70.9104" gradientUnits="userSpaceOnUse">
<stop stop-color="#D39D04"/>
<stop offset="0.47" stop-color="#C06C11"/>
</linearGradient>
<linearGradient id="paint3_linear_755_429" x1="13.4327" y1="47.8002" x2="95.3121" y2="75.3076" gradientUnits="userSpaceOnUse">
<stop stop-color="#D39D04"/>
<stop offset="0.47" stop-color="#C06C11"/>
</linearGradient>
<linearGradient id="paint4_linear_755_429" x1="36.9328" y1="82.481" x2="74.8636" y2="26.4798" gradientUnits="userSpaceOnUse">
<stop offset="0.16" stop-color="#FBF6C8"/>
<stop offset="0.48" stop-color="#FACC00"/>
</linearGradient>
<clipPath id="clip0_755_429">
<rect x="2" y="2" width="108" height="108" rx="8" fill="white"/>
</clipPath>
</defs>
</svg>
