<svg width="112" height="112" viewBox="0 0 112 112" fill="none" xmlns="http://www.w3.org/2000/svg">
<g clip-path="url(#clip0_755_432)">
<rect x="2" y="2" width="108" height="108" rx="8" fill="white"/>
<path fill-rule="evenodd" clip-rule="evenodd" d="M26.9814 52.5248C26.9814 52.4666 26.9233 52.4201 26.8651 52.4317L25.7367 52.2688H24.1314C24.0383 51.536 23.7591 50.3029 23.224 49.5933C22.9332 49.1978 22.5842 49 22.212 49C21.9793 49 21.7466 49.0814 21.5605 49.221C21.3744 49.1047 21.1417 49.0582 20.9207 49.0698C19.8505 49.1745 19.5248 50.7449 19.455 52.2688C18.5243 52.2688 17.5821 52.2805 16.6514 52.3037C16.5816 52.3037 16.5235 52.3503 16.5235 52.4201C16.5002 52.8505 16.3955 54.5256 16.2559 57.1081C16.1047 59.8418 16.0233 61.3309 16 61.7264C16 61.7845 16.0465 61.8311 16.1047 61.8427L25.062 63.2037C25.0969 63.2037 25.1318 63.2037 25.1667 63.1805L27.3653 61.7729C27.4351 61.738 27.47 61.6682 27.4584 61.5868L26.9814 52.5248ZM22.212 49.4188C22.433 49.4304 22.6424 49.5351 22.7703 49.7096C23.3171 50.3029 23.5846 51.5592 23.701 52.2688H23.0263C22.875 51.3266 22.4911 50.1284 21.9095 49.5002C22.0026 49.442 22.1189 49.4188 22.212 49.4188ZM21.5954 49.7794C22.1073 50.3029 22.4562 51.3964 22.5958 52.2688H20.9556C21.0021 51.4662 21.165 50.3494 21.5954 49.7794ZM19.6644 58.2365L18.4429 58.6786C18.2335 58.76 18.1986 58.8647 18.3731 58.9228C18.6058 58.981 18.8501 58.9694 19.0827 58.888L19.6644 58.6786V59.2951L19.548 59.3184C18.9431 59.4231 18.3149 59.3649 17.7217 59.1671C17.1517 59.0043 17.047 58.6669 17.3145 58.4692C17.5123 58.3412 17.7333 58.2365 17.966 58.1551L19.6644 57.5502V58.2365ZM20.9789 49.4886C21.0719 49.4769 21.1766 49.4886 21.2581 49.5351C20.7229 50.268 20.5717 51.5476 20.5252 52.2688H19.8854C19.9668 50.5472 20.3507 49.5467 20.9789 49.4886ZM21.0836 55.6075V59.9931L19.897 59.6208V54.386C20.4438 54.5024 20.9905 54.6536 21.5256 54.8281C22.526 55.1771 22.8634 55.5958 22.8634 56.5614C22.8634 57.5036 22.2817 57.8643 21.5489 57.5036V55.7587C21.5489 55.5493 21.514 55.3632 21.3162 55.305C21.1766 55.2701 21.0836 55.3981 21.0836 55.6075ZM24.3757 58.6786C24.2361 58.8531 23.8871 58.981 23.8871 58.981L21.3046 59.9116V59.2253L23.2124 58.5506C23.4218 58.4692 23.4567 58.3645 23.2822 58.3063C23.0495 58.2481 22.8052 58.2598 22.5726 58.3412L21.3046 58.7833V58.0736L21.3744 58.0504C21.6652 57.9573 21.956 57.8992 22.2585 57.8643C22.8169 57.8061 23.3752 57.8759 23.8987 58.062C24.4571 58.2365 24.5153 58.5041 24.3757 58.6786Z" fill="#0072CE"/>
<path fill-rule="evenodd" clip-rule="evenodd" d="M76.3754 60.9469L76.1427 60.2606V60.9469H76.0264V60.0977H76.1776L76.4219 60.819L76.6662 60.0977H76.8174V60.9469H76.7011V60.2606L76.4684 60.9469H76.3754ZM75.5378 60.1908H75.2586V60.0977H75.9333V60.1908H75.6425V60.9469H75.5261L75.5378 60.1908ZM92.6497 58.8181C92.7079 59.8185 93.3244 60.4584 94.3132 60.4584C94.7437 60.4584 95.1741 60.3769 95.5812 60.2257L95.7092 60.7957C95.2555 60.9702 94.7786 61.0516 94.3016 61.04C92.7428 61.04 91.9169 59.993 91.9169 58.6087C91.9169 57.1895 92.7312 56.1542 94.0457 56.1542C95.3602 56.1542 96 57.0615 96 58.4342V58.7948L92.6497 58.8181ZM92.6497 58.2248H95.302V58.1899C95.302 57.2942 94.7902 56.7707 94.0457 56.7707C93.2081 56.7707 92.7312 57.364 92.6497 58.2248ZM91.9285 56.794C91.8005 56.7707 91.6726 56.7707 91.533 56.7707C90.9048 56.7707 90.4046 57.1313 90.4046 58.2248V60.9586H89.6485V56.2938H90.3813V56.922H90.393C90.6256 56.4217 91.0211 56.1891 91.626 56.1891C91.7424 56.1891 91.8587 56.1891 91.9634 56.2124L91.9285 56.794ZM86.8449 61.0633C85.4955 61.0633 84.658 60.1326 84.658 58.6087C84.658 57.0848 85.4955 56.1774 86.8449 56.1774C88.1943 56.1774 89.0319 57.0848 89.0319 58.6087C89.0319 60.1326 88.1827 61.0633 86.8449 61.0633ZM86.8449 56.7707C85.8678 56.7707 85.4141 57.5269 85.4141 58.6087C85.4141 59.6906 85.8794 60.47 86.8449 60.47C87.8221 60.47 88.2758 59.7022 88.2758 58.6087C88.2758 57.5152 87.8221 56.7707 86.8449 56.7707ZM81.7032 56.2821H82.5408V55.1072H83.2969V56.2821H84.3904V56.8754H83.2969V59.6673C83.2969 60.3071 83.3551 60.4235 83.8902 60.4235C84.053 60.4235 84.2275 60.4118 84.3904 60.3886V60.9586C84.1577 60.9935 83.9134 61.0167 83.6808 61.0167C82.7036 61.0167 82.5408 60.5514 82.5408 59.7138V56.8754H81.7032V56.2821ZM81.0052 55.4446C80.5632 55.2701 80.0862 55.177 79.6093 55.177C79.0044 55.177 78.3297 55.4097 78.3297 56.1426C78.3297 56.7126 78.667 57.015 79.6558 57.3989C80.854 57.8642 81.4822 58.3295 81.4822 59.3183C81.4822 60.563 80.3887 61.0633 79.3417 61.0633C78.6903 61.0633 78.0505 60.9237 77.4572 60.6677L77.655 60.0047C78.1901 60.2606 78.7717 60.4002 79.365 60.4118C80.1328 60.4118 80.7144 60.0745 80.7144 59.3649C80.7144 58.725 80.156 58.3877 79.1905 58.0038C78.097 57.5734 77.5619 57.0267 77.5619 56.1891C77.5619 55.0258 78.667 54.5256 79.6326 54.5256C80.1677 54.5139 80.7028 54.607 81.2146 54.7931L81.0052 55.4446ZM43.8848 56.1426H45.0364C45.048 56.1426 45.0597 56.1542 45.0597 56.1658L46.1299 59.2602C46.1299 59.2718 46.1415 59.2718 46.1415 59.2602L47.3513 56.1542C47.3513 56.1426 47.363 56.1309 47.3746 56.1426H48.4099C48.4216 56.1426 48.4216 56.1542 48.4216 56.1542L45.5599 63.2619C45.5599 63.2735 45.5483 63.2851 45.5366 63.2851H44.5827C44.5711 63.2851 44.5711 63.2851 44.5711 63.2735C44.5711 63.2735 44.5711 63.2735 44.5711 63.2619L45.4785 60.9237C45.4785 60.912 45.4785 60.9004 45.4785 60.8888L43.8499 56.1658C43.8615 56.1542 43.8615 56.1542 43.8848 56.1426C43.8731 56.1426 43.8731 56.1426 43.8848 56.1426ZM68.0346 56.1426C69.8726 56.1426 70.1052 57.4222 70.1052 58.5506C70.1052 59.6789 69.8726 60.9586 68.0346 60.9586C66.1966 60.9586 65.9756 59.6673 65.9756 58.5506C65.9756 57.4338 66.1966 56.1426 68.0346 56.1426ZM68.7326 59.9465C68.8954 59.6906 68.9652 59.2485 68.9652 58.5506C68.9652 57.7246 68.8605 57.2477 68.6279 57.0267C68.4883 56.8987 68.3138 56.8405 68.0346 56.8405C67.7554 56.8405 67.5809 56.8987 67.4413 57.0267C67.2087 57.2477 67.104 57.7246 67.104 58.5506C67.104 59.2485 67.1737 59.6906 67.3366 59.9465C67.5111 60.2257 67.7903 60.2606 68.0346 60.2606C68.2789 60.2606 68.5581 60.2257 68.7326 59.9465ZM72.8041 56.1426C74.549 56.1426 74.7816 57.4222 74.7816 58.5389V60.9237C74.7816 60.9353 74.77 60.9469 74.7584 60.9469H73.6649C73.6533 60.9469 73.6416 60.9353 73.6416 60.9237C73.6416 60.9237 73.6416 58.4342 73.6416 58.411C73.6416 57.7595 73.5718 57.3524 73.4322 57.1197C73.2694 56.8638 73.0251 56.8289 72.8041 56.8289H71.9665C71.9665 56.8289 71.9549 56.8289 71.9549 56.8405V60.9353C71.9549 60.9469 71.9432 60.9586 71.9316 60.9586H70.8381C70.8265 60.9586 70.8148 60.9469 70.8148 60.9353V56.1658C70.8148 56.1542 70.8148 56.1542 70.8265 56.1426H72.8041ZM65.2194 54.6303C65.2311 54.6303 65.2427 54.6419 65.2427 54.6535V55.5609C65.2427 55.5725 65.2427 55.5725 65.2311 55.5842H64.1376C64.1259 55.5842 64.1259 55.5842 64.1143 55.5725V54.6652C64.1143 54.6535 64.1259 54.6419 64.1376 54.6419H65.2194V54.6303ZM65.2194 56.1426C65.2311 56.1426 65.2427 56.1542 65.2427 56.1542V60.9237C65.2427 60.9353 65.2311 60.9469 65.2194 60.9469H64.1259C64.1143 60.9469 64.1027 60.9353 64.1027 60.9237V56.1542C64.1027 56.1426 64.1143 56.1309 64.1259 56.1309H65.2194V56.1426ZM63.4047 56.1426C63.4163 56.1426 63.4163 56.1426 63.428 56.1542V56.8056C63.428 56.8173 63.4163 56.8289 63.4047 56.8289C63.4047 56.8289 62.5788 56.8289 62.2182 56.8289C62.2182 56.8289 62.2065 56.8289 62.2065 56.8405V59.6441C62.2065 60.2606 62.4973 60.2606 62.6137 60.2606H63.1022C63.1139 60.2606 63.1255 60.2722 63.1255 60.2839V60.9353C63.1255 60.9469 63.1139 60.9586 63.1022 60.9586H62.3112C61.59 60.9586 61.0665 60.3537 61.0665 59.5161V55.3515C61.0665 55.3399 61.0781 55.3283 61.0898 55.3283H62.1833C62.1949 55.3283 62.2065 55.3399 62.2065 55.3515V56.1426C62.2065 56.1426 62.2065 56.1542 62.2182 56.1542L63.4047 56.1426ZM55.7386 56.1426C55.7503 56.1426 55.7619 56.1425 55.7619 56.1658V56.8173C55.7619 56.8289 55.7503 56.8405 55.7386 56.8405C55.7386 56.8405 54.9127 56.8405 54.5521 56.8405C54.5521 56.8405 54.5405 56.8405 54.5405 56.8522V59.6557C54.5405 60.2722 54.8313 60.2722 54.9476 60.2722H55.4246C55.4362 60.2722 55.4478 60.2839 55.4478 60.2955V60.9469C55.4478 60.9586 55.4362 60.9702 55.4246 60.9702H54.6335C53.9123 60.9702 53.3888 60.3653 53.3888 59.5277V55.3631C53.3888 55.3515 53.4004 55.3399 53.4121 55.3399H54.5056C54.5172 55.3399 54.5288 55.3515 54.5288 55.3631V56.1658L55.7386 56.1426ZM60.1475 56.1658V60.9353C60.1475 60.9469 60.1359 60.9586 60.1242 60.9586H59.0307C59.0191 60.9586 59.0075 60.9469 59.0075 60.9469V56.8522C59.0075 56.8522 59.0075 56.8405 58.9958 56.8405H58.1583C57.9373 56.8405 57.693 56.8754 57.5301 57.1546C57.3905 57.4105 57.3207 57.8526 57.3207 58.5506V59.5975C57.3207 60.1908 57.5534 60.2722 57.7279 60.2722H58.484C58.4956 60.2722 58.5073 60.2839 58.5073 60.2839V60.9353C58.5073 60.9469 58.4956 60.9586 58.484 60.9586H57.4138C56.6925 60.9586 56.1691 60.3537 56.1691 59.5161V58.5389C56.1691 57.4222 56.3901 56.1426 58.1466 56.1426H60.101C60.1475 56.1426 60.1591 56.1542 60.1475 56.1658ZM51.1553 57.2709C51.6206 57.3058 51.9696 57.4571 52.1906 57.7479C52.4582 58.0736 52.5978 58.5389 52.5978 59.1206C52.5978 60.7259 51.5973 60.9702 51.0041 60.9702H49.0846C49.073 60.9702 49.0614 60.9586 49.0614 60.9586V60.3071C49.0614 60.2955 49.073 60.2839 49.0846 60.2839H50.6318C51.3763 60.2839 51.4694 59.6557 51.4694 59.3067V59.1555C51.4694 58.5971 51.2135 58.2365 50.8063 58.2132L50.2712 58.1667C49.4104 58.1085 48.8287 57.4222 48.8287 56.4915V56.4217C48.8287 55.2352 49.5616 54.6419 50.5737 54.6419H52.2255C52.2372 54.6419 52.2488 54.6535 52.2488 54.6652V55.3166C52.2488 55.3282 52.2371 55.3399 52.2371 55.3399H50.7481C50.2828 55.3399 49.9338 55.5493 49.9338 56.317C49.9338 56.9801 50.2363 57.2011 50.6434 57.236L51.1553 57.2709ZM43.2682 56.1658V60.9353C43.2682 60.9469 43.2682 60.9469 43.2566 60.9586H42.1631C42.1515 60.9586 42.1398 60.9586 42.1398 60.9469V56.8522C42.1398 56.8522 42.1398 56.8405 42.1282 56.8405H41.2906C41.0696 56.8405 40.8137 56.8754 40.6624 57.1546C40.5229 57.4105 40.4531 57.8526 40.4531 58.5506V59.5975C40.4531 60.1908 40.6857 60.2722 40.8602 60.2722H41.628C41.6396 60.2722 41.6512 60.2839 41.6512 60.2955V60.9469C41.6512 60.9586 41.6396 60.9702 41.628 60.9702H40.5694C39.8481 60.9702 39.3247 60.3653 39.3247 59.5277V58.5506C39.3247 57.4338 39.5457 56.1542 41.3023 56.1542H43.2566C43.2566 56.1426 43.2682 56.1542 43.2682 56.1658ZM38.4755 54.6419C38.4871 54.6419 38.4987 54.6535 38.4987 54.6652V60.9353C38.4987 60.9469 38.4871 60.9586 38.4871 60.9586H37.3936C37.382 60.9586 37.3703 60.9469 37.3703 60.9469V54.6652C37.3703 54.6535 37.382 54.6419 37.3936 54.6419H38.4755ZM35.1717 54.6419C36.0907 54.6419 36.684 55.4213 36.684 56.6195C36.684 57.236 36.5095 57.7595 36.1954 58.1085C35.9395 58.411 35.5673 58.5738 35.1717 58.5855H34.1015C34.0899 58.5855 34.0782 58.5855 34.0782 58.5738V57.9224C34.0782 57.9107 34.0899 57.8991 34.1015 57.8991H34.8576C35.3113 57.8991 35.5673 57.4454 35.5673 56.6195C35.5673 55.7936 35.3113 55.3399 34.8576 55.3399H33.6013C33.6013 55.3399 33.5897 55.3399 33.5897 55.3515V60.9469C33.5897 60.9586 33.578 60.9702 33.5664 60.9702H32.4613C32.4496 60.9702 32.438 60.9586 32.438 60.9469V54.6768C32.438 54.6652 32.4496 54.6535 32.4613 54.6535L35.1717 54.6419Z" fill="black"/>
</g>
<rect x="1" y="1" width="110" height="110" rx="9" stroke="black" stroke-opacity="0.1" stroke-width="2"/>
<defs>
<clipPath id="clip0_755_432">
<rect x="2" y="2" width="108" height="108" rx="8" fill="white"/>
</clipPath>
</defs>
</svg>
