<svg width="112" height="112" viewBox="0 0 112 112" fill="none" xmlns="http://www.w3.org/2000/svg">
<g clip-path="url(#clip0_755_431)">
<rect x="2" y="2" width="108" height="108" rx="8" fill="white"/>
<path d="M28.0198 44C21.6909 44 16.5001 48.8804 16 55.0886L22.4669 57.7616C23.0188 57.3822 23.6741 57.1752 24.3811 57.1752C24.4501 57.1752 24.5018 57.1752 24.5708 57.1752L27.4507 53.0019C27.4507 52.9847 27.4507 52.9674 27.4507 52.9502C27.4507 50.4497 29.4857 48.3975 32.0035 48.3975C34.504 48.3975 36.5562 50.4324 36.5562 52.9502C36.5562 55.4507 34.5212 57.5029 32.0035 57.5029C31.969 57.5029 31.9345 57.5029 31.9 57.5029L27.7956 60.4346C27.7956 60.4863 27.7956 60.538 27.7956 60.5898C27.7956 62.4695 26.2608 64.0043 24.3811 64.0043C22.7256 64.0043 21.346 62.8316 21.0356 61.2623L16.4139 59.3481C17.8452 64.4182 22.5014 68.1259 28.0198 68.1259C34.6764 68.1259 40.0742 62.7282 40.0742 56.0716C40.0742 49.3977 34.6764 44 28.0198 44Z" fill="black"/>
<path d="M23.5533 62.297L22.0702 61.6934C22.3289 62.2453 22.7945 62.6937 23.3981 62.9523C24.7087 63.4869 26.2091 62.8834 26.7437 61.5727C27.0023 60.9347 27.0023 60.2449 26.7437 59.6068C26.485 58.9687 25.9849 58.4859 25.3641 58.2099C24.7432 57.9513 24.0707 57.9513 23.4843 58.1754L25.0192 58.8135C25.9849 59.2102 26.4332 60.3138 26.0366 61.2796C25.6227 62.2453 24.519 62.7109 23.5533 62.297Z" fill="black"/>
<path d="M35.0212 52.9502C35.0212 51.2774 33.6589 49.9151 31.9861 49.9151C30.3133 49.9151 28.951 51.2774 28.951 52.9502C28.951 54.623 30.3133 55.9853 31.9861 55.9853C33.6589 55.9853 35.0212 54.623 35.0212 52.9502ZM29.727 52.9502C29.727 51.6913 30.7445 50.6738 32.0033 50.6738C33.2622 50.6738 34.2797 51.6913 34.2797 52.9502C34.2797 54.2091 33.2622 55.2265 32.0033 55.2265C30.7445 55.2265 29.727 54.2091 29.727 52.9502Z" fill="black"/>
<path d="M52.9561 52.2604L52.1456 53.6745C51.5248 53.2434 50.6798 52.9847 49.9382 52.9847C49.0932 52.9847 48.5759 53.3296 48.5759 53.9504C48.5759 54.7092 49.5071 54.8816 50.8695 55.3817C52.3526 55.8991 53.1976 56.5199 53.1976 57.865C53.1976 59.7103 51.749 60.7622 49.6451 60.7622C48.6276 60.7622 47.386 60.5035 46.4547 59.9172L47.0411 58.3479C47.8171 58.7618 48.7311 58.986 49.5416 58.986C50.6453 58.986 51.1799 58.5721 51.1799 57.9685C51.1799 57.2787 50.3866 57.0718 49.0932 56.6406C47.6274 56.1405 46.5927 55.5025 46.5927 54.0021C46.5927 52.3121 47.9378 51.3464 49.8865 51.3464C51.2489 51.3636 52.3526 51.7948 52.9561 52.2604Z" fill="black"/>
<path d="M59.268 53.1571V60.607H57.371V53.1571H54.6118V51.5188H62.0272V53.1571H59.268Z" fill="black"/>
<path d="M66.0279 53.1571V55.192H69.6666V56.8303H66.0279V58.9687H70.253V60.607H64.131V51.5188H70.253V53.1571H66.0279Z" fill="black"/>
<path d="M74.4953 58.848L73.8917 60.607H71.8913L75.3058 51.5188H77.22L80.7207 60.607H78.6513L78.0305 58.848H74.4953ZM76.2543 53.6917L75.0126 57.3304H77.5304L76.2543 53.6917Z" fill="black"/>
<path d="M90.4987 55.0368L88.0154 60.3483H86.929L84.4974 55.0886V60.607H82.6694V51.5188H84.4802L87.5326 58.0892L90.4815 51.5188H92.3267V60.607H90.4987V55.0368Z" fill="black"/>
<path d="M96 52.6743C96 53.4503 95.4136 53.9332 94.7411 53.9332C94.0685 53.9332 93.4822 53.4503 93.4822 52.6743C93.4822 51.8982 94.0685 51.4154 94.7411 51.4154C95.4136 51.3981 96 51.881 96 52.6743ZM93.6891 52.6743C93.6891 53.3296 94.1547 53.7435 94.7411 53.7435C95.3102 53.7435 95.793 53.3296 95.793 52.6743C95.793 52.019 95.3274 51.6223 94.7411 51.6223C94.172 51.6051 93.6891 52.019 93.6891 52.6743ZM94.7583 52.019C95.086 52.019 95.1895 52.1914 95.1895 52.3811C95.1895 52.5536 95.086 52.6743 94.9653 52.726L95.2584 53.2778H95.017L94.7756 52.795H94.5169V53.2778H94.3099V52.0362H94.7583V52.019ZM94.5169 52.6053H94.7411C94.879 52.6053 94.9653 52.5191 94.9653 52.3983C94.9653 52.2776 94.8963 52.2087 94.7411 52.2087H94.5169V52.6053Z" fill="black"/>
</g>
<rect x="1" y="1" width="110" height="110" rx="9" stroke="black" stroke-opacity="0.1" stroke-width="2"/>
<defs>
<clipPath id="clip0_755_431">
<rect x="2" y="2" width="108" height="108" rx="8" fill="white"/>
</clipPath>
</defs>
</svg>
