<svg width="112" height="112" viewBox="0 0 112 112" fill="none" xmlns="http://www.w3.org/2000/svg">
<g clip-path="url(#clip0_755_420)">
<rect x="2" y="2" width="108" height="108" rx="8" fill="white"/>
<path d="M23.7873 56.5543C23.7873 57.5048 23.57 58.2352 23.1352 58.7455C22.7003 59.2558 22.0877 59.516 21.2774 59.516C20.4671 59.516 19.8544 59.2558 19.4196 58.7455C18.9848 58.2352 18.7674 57.5048 18.7674 56.5543V49H16.0005V56.7744C16.0005 57.815 16.208 58.7355 16.6132 59.556C17.0183 60.3765 17.6211 61.0168 18.4215 61.477C19.222 61.9373 20.1706 62.1675 21.2872 62.1675C22.394 62.1675 23.3525 61.9373 24.1529 61.477C24.9534 61.0168 25.5562 60.3765 25.9613 59.556C26.3665 58.7355 26.574 57.805 26.574 56.7744V49H23.7873V56.5543Z" fill="black"/>
<path d="M34.4798 54.9133C35.0035 54.6932 35.4185 54.353 35.715 53.8828C36.0114 53.4225 36.1596 52.8322 36.1596 52.1318C36.1596 51.1712 35.7841 50.4108 35.043 49.8405C34.3019 49.2802 33.3038 49 32.0587 49H27.7996V61.9573H32.2267C33.1457 61.9573 33.9363 61.7972 34.6181 61.4671C35.2999 61.1369 35.8237 60.6866 36.1992 60.0963C36.5747 59.5059 36.7526 58.8456 36.7526 58.1052C36.7625 56.5643 36.0015 55.4937 34.4798 54.9133ZM30.5863 51.4914H32.0488C32.4836 51.4914 32.8394 51.6115 33.0963 51.8516C33.3631 52.0918 33.4916 52.4319 33.4916 52.8622C33.4916 53.2924 33.3631 53.6326 33.0963 53.8728C32.8295 54.1129 32.4836 54.233 32.0488 54.233H30.5863V51.4914ZM33.5014 59.0757C33.1753 59.3559 32.7208 59.496 32.118 59.496H30.5863V56.2341H32.118C32.7109 56.2341 33.1753 56.3742 33.5014 56.6543C33.8275 56.9345 33.9856 57.3347 33.9856 57.865C33.9856 58.3953 33.8177 58.7955 33.5014 59.0757Z" fill="black"/>
<path d="M40.5125 49H37.7358V61.9573H40.5125V49Z" fill="black"/>
<path d="M47.1834 54.4431C46.2051 54.0929 45.5331 53.7827 45.1477 53.5126C44.7624 53.2324 44.5746 52.9122 44.5746 52.542C44.5746 52.2118 44.7129 51.9417 44.9896 51.7315C45.2663 51.5214 45.6122 51.4214 46.0371 51.4214C46.9858 51.4214 47.6873 51.9217 48.1222 52.9222L50.3357 51.3713C49.9799 50.5909 49.4463 50.0006 48.7151 49.6003C47.9937 49.2001 47.134 49 46.1458 49C45.3454 49 44.624 49.1601 43.9916 49.4703C43.3591 49.7804 42.865 50.2207 42.5093 50.771C42.1535 51.3313 41.9757 51.9517 41.9757 52.6421C41.9757 53.6426 42.2721 54.4331 42.865 55.0234C43.458 55.6138 44.3078 56.104 45.4145 56.5143C46.3039 56.8344 46.9166 57.1346 47.2427 57.4248C47.5688 57.7049 47.7368 58.0451 47.7368 58.4453C47.7368 58.8556 47.5885 59.1758 47.302 59.4159C47.0055 59.656 46.63 59.7761 46.1656 59.7761C45.632 59.7761 45.128 59.606 44.6636 59.2558C44.1991 58.9056 43.873 58.4554 43.6754 57.885L41.4618 59.556C41.8176 60.4665 42.3908 61.1769 43.2011 61.6672C44.0015 62.1574 44.9699 62.4076 46.0865 62.4076C46.9067 62.4076 47.6478 62.2475 48.3198 61.9173C48.9918 61.5871 49.5254 61.1169 49.9207 60.4865C50.3159 59.8561 50.5135 59.1057 50.5135 58.2452C50.5135 57.2847 50.2467 56.5143 49.7131 55.9439C49.1795 55.3436 48.3297 54.8533 47.1834 54.4431Z" fill="black"/>
<path d="M61.2501 49.8805C60.2619 49.2902 59.1354 49 57.9002 49C56.9021 49 55.9732 49.1701 55.1234 49.5103C54.2736 49.8505 53.5918 50.2807 53.0779 50.811L53.5127 51.2513C52.8506 51.8116 52.3367 52.492 51.9612 53.3124C51.5858 54.1329 51.398 55.0734 51.398 56.134C51.398 57.2647 51.6747 58.3153 52.2182 59.2758C52.7716 60.2364 53.5324 60.9868 54.5206 61.5571C55.5088 62.1174 56.6353 62.3976 57.9002 62.3976C59.1453 62.3976 60.2619 62.1074 61.26 61.5171C62.258 60.9268 63.0289 60.1263 63.5822 59.1057C64.1356 58.0852 64.4123 56.9445 64.4123 55.6938C64.4123 54.4431 64.1356 53.3124 63.5822 52.2919C63.019 51.2713 62.2482 50.4708 61.2501 49.8805ZM61.1316 57.785C60.8252 58.3953 60.3904 58.8756 59.837 59.2158C59.2738 59.566 58.6314 59.7361 57.9002 59.7361C57.159 59.7361 56.5068 59.566 55.9436 59.2358C55.3803 58.9056 54.9554 58.4554 54.659 57.895C54.3625 57.3347 54.2143 56.7143 54.2143 56.054C54.2143 55.4037 54.3328 54.8533 54.5602 54.4131C54.7874 53.9728 55.1037 53.5926 55.4891 53.2524L55.0542 52.8122C55.3705 52.462 55.7658 52.1918 56.2499 51.9817C56.7341 51.7716 57.2875 51.6715 57.9002 51.6715C58.6314 51.6715 59.2738 51.8416 59.837 52.1918C60.4003 52.542 60.8351 53.0123 61.1316 53.6226C61.4379 54.233 61.5861 54.9234 61.5861 55.7038C61.5861 56.4842 61.4379 57.1746 61.1316 57.785Z" fill="black"/>
<path d="M65.6811 61.9574H68.4579V56.7944H73.8929V54.6532H68.4579V51.6715H74.4364V49H65.6811V61.9574Z" fill="black"/>
<path d="M75.6172 51.6715H79.2142V61.9574H81.9911V51.6715H85.5779V49H75.6172V51.6715Z" fill="black"/>
<path d="M92.1514 52.2318V49H89.9972V52.2318H86.7953V54.4131H89.9972V57.6549H92.1514V54.4131H94.8094L95.7088 52.2318H92.1514Z" fill="#428EE0"/>
</g>
<rect x="1" y="1" width="110" height="110" rx="9" stroke="black" stroke-opacity="0.1" stroke-width="2"/>
<defs>
<clipPath id="clip0_755_420">
<rect x="2" y="2" width="108" height="108" rx="8" fill="white"/>
</clipPath>
</defs>
</svg>
