<svg width="112" height="112" viewBox="0 0 112 112" fill="none" xmlns="http://www.w3.org/2000/svg">
<g clip-path="url(#clip0_755_424)">
<rect x="2" y="2" width="108" height="108" rx="8" fill="white"/>
<path d="M22.8193 54.4688C22.8275 54.47 22.8357 54.4735 22.8415 54.4805C24.8815 56.0315 28.3734 59.8688 27.3078 60.953C24.7368 63.2008 20.9007 63.2008 18.3297 60.953C17.2653 59.8688 20.7571 56.0339 22.796 54.4805C22.803 54.4747 22.8112 54.47 22.8193 54.4688ZM26.3719 49.9978C24.1906 48.6674 21.448 48.6674 19.2668 49.9978C19.2551 50.0048 19.2493 50.0188 19.2551 50.0317C19.2621 50.0434 19.2761 50.048 19.2878 50.0434C20.6078 49.7574 22.6139 50.8976 22.8042 51.0132C22.8123 51.0202 22.8252 51.0202 22.8333 51.0132C23.0236 50.8988 25.0286 49.7586 26.3497 50.0434C26.3625 50.048 26.3765 50.0434 26.3824 50.0317C26.3882 50.0188 26.3835 50.0037 26.3719 49.9978ZM18.0461 50.956C18.0344 50.9618 18.0251 50.97 18.0157 50.9793C15.5871 53.3905 15.321 57.2278 17.3949 59.9505C17.403 59.9622 17.4182 59.9669 17.431 59.961C17.4415 59.9529 17.445 59.9377 17.4392 59.926C16.9199 58.319 19.5772 54.4222 20.9497 52.7883C20.9555 52.7836 20.9579 52.7766 20.959 52.7684C20.959 52.7591 20.9544 52.7509 20.9474 52.7463C18.8665 50.6771 18.1604 50.9 18.0461 50.956ZM24.6913 52.7463C24.6843 52.7521 24.6796 52.7603 24.6796 52.7684C24.6808 52.7754 24.6831 52.7824 24.689 52.7883C26.0614 54.4222 28.7188 58.3178 28.1995 59.926C28.1936 59.9377 28.1971 59.9529 28.2076 59.961C28.2205 59.9669 28.2368 59.9622 28.2438 59.9505C30.3165 57.2278 30.0516 53.3905 27.6229 50.9793C27.6136 50.97 27.6043 50.963 27.5926 50.956C27.4771 50.9 26.771 50.6771 24.6913 52.7463ZM46.0344 51.8208H44.6176L41.4164 60.0182H42.7165L43.5089 57.8942H47.142L47.9344 60.0182H49.2333L46.0344 51.8208ZM43.9092 56.803L45.3272 53.052L46.7452 56.803H43.9092ZM40.7617 55.7013V60.0182H39.5841V58.9469C39.297 59.3472 38.9142 59.6693 38.4707 59.884C37.9864 60.1046 37.4589 60.2143 36.9267 60.2038C36.3817 60.212 35.8402 60.1116 35.3349 59.9073C34.8622 59.7078 34.4421 59.4032 34.1048 59.0169C33.7465 58.6224 33.4734 58.1579 33.3018 57.6526C32.9447 56.5194 32.9447 55.3021 33.3053 54.1689C33.4781 53.6647 33.7547 53.2014 34.1176 52.8105C34.4654 52.4265 34.8937 52.1254 35.3734 51.9293C35.8904 51.7274 36.4412 51.6282 36.9967 51.6376C37.8942 51.6049 38.7765 51.8815 39.4954 52.4207C40.1443 52.9458 40.5656 53.7009 40.6706 54.5284V54.5424H39.3845V54.533C39.2865 54.0114 38.9947 53.5469 38.5676 53.2318C38.1148 52.9062 37.5674 52.7369 37.0084 52.7521C36.2638 52.7229 35.5473 53.0392 35.0664 53.6087C34.0908 54.9952 34.0908 56.845 35.0664 58.2303C35.5578 58.7986 36.2813 59.1137 37.0318 59.0869C37.6923 59.1032 38.3342 58.8663 38.8255 58.424C39.3029 58.005 39.5806 57.4028 39.5899 56.768H37.18V55.6989L40.7617 55.7013ZM60.8094 52.947V55.322H64.8813V56.3677H60.8094V58.892H65.4123V60.0182H59.5583V51.822H65.4134V52.9482L60.8094 52.947ZM58.3049 51.8208V60.0182H57.0993V53.5154C56.9441 53.9717 56.7364 54.5377 56.4796 55.2029L54.6287 60.0206H53.5795L53.576 60.0124L51.7052 55.2018C51.4823 54.6077 51.278 54.0499 51.0971 53.5375V60.0194H49.8904V51.8231H51.6106L53.29 56.1821C53.6262 57.0644 53.9051 57.83 54.1186 58.4555C54.3672 57.7109 54.6497 56.908 54.9566 56.0689L56.5776 51.8255L58.3049 51.8208ZM74.1045 52.5187C73.5303 52.025 72.7857 51.7753 72.0295 51.8208H68.54V60.0182H69.7922V56.9979H72.0295C72.7857 57.0434 73.5291 56.7936 74.1045 56.3C75.0895 55.2309 75.0895 53.5865 74.1045 52.5187ZM69.7922 52.9248H72.0073C72.4309 52.8956 72.8488 53.0345 73.1697 53.3111C73.4498 53.6087 73.5933 54.0079 73.5677 54.4163C73.5945 54.8225 73.4498 55.2204 73.1697 55.5157C72.8464 55.79 72.4298 55.9265 72.0073 55.8973H69.7922V52.9248ZM88.7079 57.7471C88.7347 58.4497 88.4185 59.1219 87.8594 59.5491C87.1732 60.0217 86.3481 60.2528 85.516 60.2061C84.6139 60.2598 83.7211 59.9995 82.9882 59.4685C82.3649 58.9305 82.0265 58.1346 82.0708 57.313V57.3013H83.3231V57.313C83.2974 57.8311 83.5063 58.3341 83.8926 58.6808C84.3723 59.018 84.9535 59.1791 85.5382 59.1371C86.026 59.1674 86.5103 59.0461 86.9258 58.7893C87.2467 58.5571 87.4288 58.1789 87.409 57.7833C87.4241 57.46 87.2747 57.1508 87.0122 56.9605C86.5687 56.6991 86.0797 56.5217 85.5708 56.4388L84.8706 56.2895C84.1727 56.1856 83.5133 55.8997 82.9601 55.4608C82.5202 55.0512 82.2832 54.4677 82.3136 53.8678C82.2949 53.2318 82.5879 52.6261 83.099 52.2456C83.7187 51.8138 84.4645 51.6014 85.2184 51.6411C86.0832 51.5792 86.941 51.8231 87.6424 52.3331C88.1909 52.8116 88.4978 53.5084 88.4791 54.2366V54.2483H87.2386V54.2366C87.2386 53.7955 87.0495 53.3741 86.7204 53.08C86.2781 52.7964 85.7541 52.6657 85.2301 52.7089C84.8018 52.6821 84.3769 52.7848 84.0082 53.0054C83.7327 53.1944 83.574 53.5119 83.5892 53.8456C83.5693 54.1701 83.7082 54.484 83.9638 54.6859C84.3863 54.959 84.8613 55.1387 85.3596 55.2123L86.0715 55.3616C86.8079 55.4725 87.5035 55.7701 88.0917 56.2253C88.5083 56.6162 88.7336 57.1729 88.7079 57.7471ZM95.9985 57.7471C96.0253 58.4497 95.7091 59.1219 95.1501 59.5491C94.4638 60.0217 93.6387 60.2528 92.8066 60.2061C91.9045 60.2598 91.0117 59.9995 90.2788 59.4685C89.6555 58.9305 89.3171 58.1346 89.3614 57.313V57.3013H90.6137V57.313C90.588 57.8311 90.7969 58.3341 91.1832 58.6808C91.6629 59.018 92.2441 59.1791 92.8288 59.1371C93.3166 59.1674 93.8009 59.0461 94.2164 58.7893C94.5374 58.5571 94.7194 58.1789 94.6996 57.7833C94.7147 57.46 94.5654 57.1508 94.3028 56.9605C93.8581 56.6991 93.3691 56.5229 92.8615 56.44L92.1612 56.2906C91.4633 56.1868 90.8039 55.9008 90.2507 55.462C89.8108 55.0524 89.5739 54.4688 89.6042 53.869C89.5855 53.2329 89.8785 52.6272 90.3896 52.2468C91.0093 51.8149 91.7551 51.6025 92.509 51.6422C93.3738 51.5792 94.2316 51.8243 94.933 52.3343C95.4815 52.8128 95.7884 53.5095 95.7698 54.2378V54.2494H94.5292V54.2378C94.5292 53.7966 94.3401 53.3753 94.011 53.0812C93.5687 52.7976 93.0447 52.6669 92.5207 52.7101C92.0935 52.6832 91.6676 52.7871 91.2999 53.0065C91.0245 53.1956 90.8658 53.513 90.881 53.8468C90.8611 54.1712 91 54.4852 91.2556 54.6871C91.6781 54.9602 92.153 55.1399 92.6514 55.2134L93.3633 55.3628C94.0997 55.4737 94.7953 55.7713 95.3835 56.2264C95.7989 56.6174 96.0242 57.1729 95.9985 57.7471ZM78.5872 51.8231H77.1704L73.9691 60.0206H75.2692L76.0617 57.8965H79.6947L80.4871 60.0206H81.7872L78.5872 51.8231ZM76.462 56.8041L77.8788 53.0532L79.2967 56.8041H76.462Z" fill="black"/>
</g>
<rect x="1" y="1" width="110" height="110" rx="9" stroke="black" stroke-opacity="0.1" stroke-width="2"/>
<defs>
<clipPath id="clip0_755_424">
<rect x="2" y="2" width="108" height="108" rx="8" fill="white"/>
</clipPath>
</defs>
</svg>
