<svg width="112" height="112" viewBox="0 0 112 112" fill="none" xmlns="http://www.w3.org/2000/svg">
<g clip-path="url(#clip0_755_409)">
<rect x="2" y="2" width="108" height="108" rx="8" fill="white"/>
<g clip-path="url(#clip1_755_409)">
<path d="M41.6093 53.4668C40.3634 52.0124 37.9228 50.9268 36.6255 50.2885C33.42 48.7122 30.0669 47.4342 26.6257 46.4769C25.7085 46.2203 24.772 45.9862 23.8211 46.0006C21.3051 46.0407 18.9976 48.3402 17.5945 50.2308C16.6051 51.5666 15.7857 53.3626 16.0502 55.0752C16.6147 58.7201 20.0928 62.4323 22.8702 64.6163C23.6687 65.2449 24.5267 65.8238 25.4904 66.1477C27.0314 66.6657 28.5147 66.2215 29.9322 65.5592C32.3616 64.4239 34.7028 63.0801 36.8484 61.4686C38.9571 59.8842 44.2231 56.5168 41.6093 53.4652" fill="#FACA06"/>
<path d="M39.1783 54.8043C39.1014 54.6985 38.9955 54.6151 38.8785 54.5606C38.755 54.5013 38.6187 54.49 38.492 54.4387C38.3894 54.397 38.3156 54.1934 38.2146 54.1437C38.1248 54.1004 38.0318 54.0635 37.9356 54.033C37.8458 54.0058 37.756 53.9994 37.6646 53.9801C37.4369 53.9496 36.8275 53.8278 36.603 53.7684C36.5373 53.7508 36.5822 53.9111 36.595 53.9368C36.6319 54.0138 36.6928 54.0523 36.7762 54.0699C36.8692 54.0907 36.9735 54.0972 37.0408 54.1693C36.9927 54.2046 36.9398 54.2479 36.9013 54.2944C36.8339 54.3762 36.7858 54.474 36.7457 54.5718C36.4491 55.2838 35.859 55.9894 35.1823 56.3694C34.1319 56.9579 33.7695 56.5009 33.1425 55.5211C32.7224 54.8621 32.1932 54.2816 31.5278 53.8438C30.8831 53.4205 30.1599 53.0901 29.4223 52.8672C28.5997 52.6171 27.7321 52.5914 26.9079 52.3493C26.1783 52.136 24.1257 51.7479 23.4474 49.8525C22.9567 51.0905 23.271 52.4712 23.8836 53.6065C24.5812 54.899 25.6507 55.7889 26.8085 56.6613C27.0009 56.8056 27.1901 56.9531 27.3761 57.1038C27.9486 57.5641 28.7055 58.1285 28.7825 58.9159C28.8931 60.0464 27.6199 60.3254 26.7492 60.4104C25.2322 60.5579 23.7649 59.9918 22.4709 59.2478C22.357 59.182 22.2448 59.1163 22.1325 59.0474C21.4558 58.6352 20.7695 58.2103 20.1136 57.7533C20.011 57.6811 19.8907 57.8174 19.9757 57.9104C21.3772 59.4611 22.9824 60.8722 24.9724 61.6227C26.4749 62.1887 28.133 62.3362 29.7125 62.0412C31.268 61.7509 32.7465 61.0261 33.9636 60.0191C34.1448 59.8684 34.3212 59.7112 34.4911 59.5493C34.9898 59.0698 35.4405 58.5406 35.8333 57.9713C36.5597 56.9226 37.3246 55.7488 38.4615 55.1058C38.6796 54.9823 38.9282 54.8669 39.1687 55.0064C39.1927 55.0208 39.2232 55.0032 39.2216 54.9743C39.2184 54.9214 39.2104 54.8492 39.1783 54.8059" fill="#58585A"/>
<path d="M23.8838 53.6029C24.5814 54.8954 25.651 55.7854 26.8087 56.6577C27.0011 56.802 27.1904 56.9512 27.378 57.1003C27.9504 57.5605 28.7057 58.125 28.7843 58.9123C28.826 59.3357 28.6608 59.65 28.3946 59.8825C29.1259 59.2731 30.5659 57.5974 26.86 55.3573C22.5785 52.7691 23.4493 49.8506 23.4493 49.8506C22.9586 51.0886 23.2729 52.4693 23.8854 53.6046" fill="url(#paint0_linear_755_409)"/>
<path d="M49.0879 60.1553C48.387 59.7737 47.8372 59.2461 47.4393 58.5742C47.0417 57.9023 46.8428 57.1422 46.8428 56.2972C46.8428 55.4521 47.0432 54.6936 47.4459 54.0201C47.8483 53.3482 48.3999 52.8207 49.1007 52.439C49.8016 52.0574 50.5872 51.8665 51.4579 51.8665C52.1635 51.8665 52.8065 51.99 53.3902 52.2353C53.9724 52.4823 54.4646 52.8383 54.867 53.3065L53.8327 54.2783C53.2089 53.6064 52.4425 53.2696 51.5316 53.2696C50.9416 53.2696 50.4125 53.3995 49.9442 53.6577C49.4759 53.9159 49.1118 54.2751 48.8491 54.7337C48.586 55.1939 48.4545 55.7135 48.4545 56.2972C48.4545 56.8809 48.586 57.4004 48.8491 57.8606C49.1118 58.3209 49.4759 58.6784 49.9442 58.9366C50.4125 59.1948 50.9416 59.3247 51.5316 59.3247C52.4425 59.3247 53.2089 58.9847 53.8327 58.3032L54.867 59.2878C54.4646 59.756 53.9709 60.112 53.3839 60.359C52.7969 60.6059 52.1506 60.7278 51.445 60.7278C50.5761 60.7278 49.7902 60.537 49.0879 60.1553Z" fill="#58585A"/>
<path d="M55.9879 52.6857C55.7989 52.5093 55.706 52.2896 55.706 52.0266C55.706 51.7636 55.8004 51.5456 55.9879 51.3676C56.1773 51.1912 56.4098 51.103 56.6888 51.103C56.9677 51.103 57.202 51.188 57.3896 51.3547C57.579 51.5231 57.6718 51.7348 57.6718 51.9881C57.6718 52.2592 57.579 52.4868 57.3944 52.6713C57.2101 52.8557 56.9743 52.9487 56.6873 52.9487C56.4002 52.9487 56.174 52.8605 55.9864 52.6841L55.9879 52.6857ZM55.9142 54.0327H57.4522V60.6041H55.9142V54.0327Z" fill="#58585A"/>
<path d="M63.2841 60.2484C63.1031 60.3959 62.885 60.5066 62.6252 60.5804C62.367 60.6541 62.0943 60.691 61.8073 60.691C61.0858 60.691 60.5276 60.5018 60.1333 60.1249C59.7405 59.7481 59.543 59.1981 59.543 58.4765V55.3143H58.4608V54.0843H59.543V52.5834H61.081V54.0843H62.8401V55.3143H61.081V58.4396C61.081 58.7587 61.158 59.0041 61.315 59.1724C61.4705 59.3408 61.6967 59.4242 61.9918 59.4242C62.3364 59.4242 62.6234 59.3344 62.853 59.1532L63.2841 60.2484Z" fill="#58585A"/>
<path d="M63.9706 52.6857C63.7815 52.5093 63.6883 52.2896 63.6883 52.0266C63.6883 51.7636 63.783 51.5456 63.9706 51.3676C64.1599 51.1912 64.3924 51.103 64.6714 51.103C64.9503 51.103 65.1843 51.188 65.3722 51.3547C65.5613 51.5231 65.6545 51.7348 65.6545 51.9881C65.6545 52.2592 65.5613 52.4868 65.377 52.6713C65.1924 52.8557 64.9566 52.9487 64.6696 52.9487C64.3825 52.9487 64.1566 52.8605 63.9691 52.6841L63.9706 52.6857ZM63.8969 54.0327H65.4345V60.6041H63.8969V54.0327Z" fill="#58585A"/>
<path d="M71.2011 60.2484C71.0198 60.3959 70.8017 60.5066 70.5419 60.5804C70.2837 60.6541 70.0113 60.691 69.7243 60.691C69.0025 60.691 68.4446 60.5018 68.05 60.1249C67.6557 59.7481 67.46 59.1981 67.46 58.4765V55.3143H66.3775V54.0843H67.46V52.5834H68.9977V54.0843H70.7568V55.3143H68.9977V58.4396C68.9977 58.7587 69.0747 59.0041 69.232 59.1724C69.3875 59.3408 69.6134 59.4242 69.9085 59.4242C70.2534 59.4242 70.5404 59.3344 70.7697 59.1532L71.2011 60.2484Z" fill="#58585A"/>
<path d="M75.5595 53.9592V55.4233C75.4279 55.3992 75.3093 55.3864 75.202 55.3864C74.6037 55.3864 74.1357 55.5612 73.7989 55.9091C73.4621 56.2571 73.2937 56.7606 73.2937 57.4165V60.6044H71.7557V54.033H73.22V54.9935C73.6625 54.304 74.4419 53.9592 75.558 53.9592H75.5595Z" fill="#58585A"/>
<path d="M81.228 54.6552C81.741 55.1186 81.9978 55.8178 81.9978 56.7526V60.6044H80.5449V59.8042C80.3555 60.0912 80.0879 60.3109 79.7383 60.4633C79.3886 60.6156 78.9685 60.691 78.4763 60.691C77.984 60.691 77.5525 60.6076 77.1837 60.4392C76.8151 60.2708 76.5296 60.0367 76.3291 59.7369C76.1272 59.437 76.0277 59.0986 76.0277 58.7218C76.0277 58.1317 76.2473 57.657 76.6866 57.3011C77.1261 56.9451 77.8171 56.7654 78.76 56.7654H80.4583V56.6676C80.4583 56.209 80.3205 55.8562 80.0463 55.6093C79.7718 55.3639 79.3632 55.2405 78.8211 55.2405C78.4523 55.2405 78.0882 55.2982 77.7323 55.4121C77.3745 55.5275 77.0731 55.6863 76.8277 55.8915L76.2249 54.7722C76.5697 54.5093 76.9832 54.3088 77.4677 54.1693C77.9519 54.0298 78.4652 53.9592 79.0054 53.9592C79.9741 53.9592 80.7133 54.1918 81.2265 54.6552H81.228ZM79.8249 59.3071C80.1248 59.1307 80.3348 58.8789 80.4583 58.5502V57.7869H78.8709C77.984 57.7869 77.5414 58.0788 77.5414 58.6609C77.5414 58.9399 77.652 59.1612 77.8734 59.3247C78.0945 59.4883 78.4026 59.5717 78.7969 59.5717C79.1915 59.5717 79.5249 59.4835 79.8249 59.3071Z" fill="#58585A"/>
<path d="M88.9396 54.6853C89.4399 55.1696 89.6898 55.888 89.6898 56.8389V60.6041H88.1521V57.0346C88.1521 56.4605 88.0173 56.0275 87.7464 55.7357C87.4756 55.4454 87.0906 55.2995 86.5902 55.2995C86.0242 55.2995 85.5769 55.4695 85.2497 55.811C84.921 56.151 84.7574 56.6417 84.7574 57.2815V60.6041H83.2197V54.0327H84.6837V54.881C84.9387 54.5779 85.2578 54.3486 85.6443 54.1914C86.029 54.0359 86.4637 53.9573 86.9479 53.9573C87.777 53.9573 88.4407 54.1995 88.9411 54.6837L88.9396 54.6853Z" fill="#58585A"/>
<path d="M91.3752 60.4825C90.867 60.343 90.4599 60.1666 90.1566 59.9533L90.7469 58.7843C91.0417 58.9816 91.3962 59.1387 91.8115 59.2574C92.2253 59.376 92.6342 59.4354 93.0366 59.4354C93.9556 59.4354 94.414 59.1932 94.414 58.709C94.414 58.4797 94.2972 58.3193 94.0629 58.2295C93.8288 58.1397 93.4534 58.0531 92.9372 57.9713C92.3951 57.8895 91.9541 57.795 91.6143 57.6891C91.2742 57.5833 90.9776 57.3957 90.7274 57.1295C90.4772 56.8633 90.3523 56.4913 90.3523 56.0166C90.3523 55.3928 90.6121 54.8941 91.1331 54.5221C91.6545 54.1484 92.3583 53.9624 93.2434 53.9624C93.694 53.9624 94.1461 54.0138 94.5968 54.1164C95.0474 54.219 95.4163 54.3569 95.7048 54.5285L95.1148 55.6975C94.5569 55.3704 93.9298 55.2052 93.2323 55.2052C92.7817 55.2052 92.4386 55.2726 92.2043 55.4089C91.9703 55.5436 91.8531 55.7232 91.8531 55.9444C91.8531 56.1914 91.9784 56.3646 92.2285 56.4672C92.4787 56.5698 92.8667 56.6661 93.3911 56.7559C93.9154 56.8376 94.3466 56.9322 94.6834 57.0381C95.0202 57.1455 95.309 57.3251 95.5511 57.5801C95.7932 57.835 95.9133 58.1959 95.9133 58.6625C95.9133 59.2782 95.6473 59.7705 95.1133 60.1393C94.5791 60.5082 93.8543 60.6926 92.9357 60.6926C92.4017 60.6926 91.8822 60.6236 91.3722 60.4841L91.3752 60.4825Z" fill="#58585A"/>
</g>
</g>
<rect x="1" y="1" width="110" height="110" rx="9" stroke="black" stroke-opacity="0.1" stroke-width="2"/>
<defs>
<linearGradient id="paint0_linear_755_409" x1="23.2055" y1="54.865" x2="29.2894" y2="54.865" gradientUnits="userSpaceOnUse">
<stop stop-color="#FACA06"/>
<stop offset="0.12" stop-color="#F3C509"/>
<stop offset="0.29" stop-color="#E0B813"/>
<stop offset="0.49" stop-color="#C2A222"/>
<stop offset="0.72" stop-color="#988538"/>
<stop offset="0.96" stop-color="#625F54"/>
<stop offset="1" stop-color="#58585A"/>
</linearGradient>
<clipPath id="clip0_755_409">
<rect x="2" y="2" width="108" height="108" rx="8" fill="white"/>
</clipPath>
<clipPath id="clip1_755_409">
<rect width="80" height="20.3745" fill="white" transform="translate(16 46)"/>
</clipPath>
</defs>
</svg>
