<svg width="112" height="112" viewBox="0 0 112 112" fill="none" xmlns="http://www.w3.org/2000/svg">
<g clip-path="url(#clip0_755_417)">
<rect x="2" y="2" width="108" height="108" rx="8" fill="white"/>
<path d="M87.2888 56.74C88.9772 56.2977 90.2234 54.7617 90.2234 52.9328C90.2234 50.7602 88.4632 48.997 86.2876 48.997H80.2809V62.1819H83.7385V57.0957L87.1035 62.1819H91.4307L87.2888 56.737V56.74ZM84.901 54.8992H83.7355V51.6059H84.901C85.8095 51.6059 86.5476 52.3441 86.5476 53.2525C86.5476 54.161 85.8095 54.8992 84.901 54.8992Z" fill="#005DAA"/>
<path d="M40.9294 49H35.7833V62.1849H40.9294C44.5693 62.1849 47.5219 59.2324 47.5219 55.5925C47.5219 51.9526 44.5693 49 40.9294 49ZM40.2361 59.3489H39.3276V51.836H40.2361C42.31 51.836 43.9925 53.5185 43.9925 55.5925C43.9925 57.6664 42.31 59.3489 40.2361 59.3489Z" fill="#005DAA"/>
<path d="M56.0837 49H52.2376L47.1722 62.1849H50.8121L51.6668 59.8629H56.6545L57.5091 62.1849H61.149L56.0837 49ZM52.638 57.2182L54.1591 53.0792L55.6802 57.2182H52.638Z" fill="#005DAA"/>
<path d="M76.7097 49H73.2641L70.5745 56.0109L67.8849 49H64.4393L62.195 62.1849H65.6406L66.7643 54.6153L69.8633 62.1849H71.2828L74.3848 54.6153L75.5054 62.1849H78.9511L76.7097 49Z" fill="#005DAA"/>
<path d="M96 49H92.5275V62.1849H96V49Z" fill="#005DAA"/>
<path d="M16 49.012L22.1741 55.5925L16 62.173H19.9686L26.1457 55.5925L19.9686 49.012H16Z" fill="#005DAA"/>
<path d="M26.1457 55.5925L19.9686 49.012L26.5342 49.012L32.7112 55.5925L26.1457 55.5925Z" fill="#FEEE00"/>
<path d="M26.5342 62.173L32.7112 55.5925L26.1457 55.5925L19.9686 62.173L26.5342 62.173Z" fill="#FDC42F"/>
</g>
<rect x="1" y="1" width="110" height="110" rx="9" stroke="black" stroke-opacity="0.1" stroke-width="2"/>
<defs>
<clipPath id="clip0_755_417">
<rect x="2" y="2" width="108" height="108" rx="8" fill="white"/>
</clipPath>
</defs>
</svg>
