<svg width="112" height="112" viewBox="0 0 112 112" fill="none" xmlns="http://www.w3.org/2000/svg">
<g clip-path="url(#clip0_755_407)">
<rect x="2" y="2" width="108" height="108" rx="8" fill="white"/>
<path d="M16 65.2608V64.6112L16.0187 64.6104L16.0375 64.611C16.0404 64.8254 16.0434 65.0399 16.0463 65.2543C16.0308 65.2564 16.0155 65.2587 16 65.2608Z" fill="#EE352A"/>
<path d="M16.0375 64.611L16.0187 64.6104L16 64.6112C16 64.4838 16 64.3564 16 64.2291C16.0187 64.2312 16.0373 64.2334 16.056 64.2355C16.0499 64.3608 16.0436 64.4857 16.0375 64.611Z" fill="#EE352A"/>
<path d="M95.9671 43.0186C95.978 43.0186 95.9891 43.0186 96 43.0192V43.3631L95.9839 43.3637C95.9839 43.3637 95.9679 43.3637 95.9677 43.3637C95.9677 43.2487 95.9673 43.1338 95.9671 43.0186Z" fill="#EE352A"/>
<path d="M16.056 64.2355C16.0373 64.2334 16.0187 64.2312 16 64.2291C16 64.1783 16 64.127 16 64.0761C16.0203 64.0786 16.0407 64.0813 16.061 64.0838C16.0593 64.1343 16.0576 64.185 16.056 64.2355Z" fill="#EE352A"/>
<path d="M58.7151 40.0323C58.7151 40.0216 58.7151 40.0109 58.7151 40H58.8681C58.8681 40.0107 58.8681 40.0214 58.8681 40.0321C58.817 40.0321 58.7661 40.0323 58.7151 40.0323Z" fill="#EE352A"/>
<path d="M16 65.2608C16.0155 65.2587 16.0308 65.2564 16.0463 65.2543C16.0415 65.2949 16.0367 65.3352 16.0319 65.3758C16.0212 65.3754 16.0107 65.3754 16 65.3754C16 65.3373 16 65.2991 16 65.2608Z" fill="#EE352A"/>
<path d="M16.0319 65.3758C16.0367 65.3352 16.0415 65.2949 16.0463 65.2543C16.0434 65.0399 16.0404 64.8254 16.0375 64.611C16.0436 64.4857 16.0499 64.3608 16.056 64.2355C16.0576 64.185 16.0593 64.1343 16.061 64.0838C16.0756 63.7796 16.0903 63.4754 16.105 63.1713C16.1613 62.0168 16.2141 60.8621 16.2753 59.7081C16.3139 58.9788 16.3658 58.2504 16.4107 57.5215C16.4149 57.4521 16.4126 57.3823 16.4132 57.3126C16.4138 57.2996 16.4142 57.2866 16.4147 57.2736C16.4268 57.0827 16.439 56.892 16.4511 56.7011C16.4516 56.6881 16.452 56.6752 16.4526 56.6622C16.4926 56.1482 16.5287 55.6338 16.5739 55.1204C16.6261 54.5243 16.6868 53.929 16.743 53.3333C16.7753 52.9911 16.8008 52.6481 16.8392 52.3066C16.8626 52.0996 16.7927 51.9242 16.6837 51.7603C16.5965 51.6292 16.4773 51.5164 16.4063 51.3781C16.3061 51.1828 16.2232 50.9817 16.2183 50.7472C16.2137 50.5293 16.2085 50.3162 16.2602 50.1037C16.348 49.7423 16.5404 49.4385 16.7901 49.1711C16.9238 49.028 17.0908 48.9151 17.2186 48.7678C17.3381 48.6301 17.4372 48.4707 17.5246 48.3097C17.6356 48.1048 17.723 47.8846 17.8762 47.7073C17.996 47.5686 18.1461 47.4534 18.3455 47.476C18.4472 47.4875 18.5553 47.5189 18.642 47.5718C18.8243 47.6836 19.0376 47.7473 19.183 47.9213C19.2073 47.9504 19.3012 47.9416 19.3536 47.9235C19.4954 47.8739 19.6304 47.805 19.7714 47.7528C20.0731 47.6407 20.3715 47.5158 20.6808 47.4299C21.1336 47.3042 21.5914 47.19 22.0532 47.1037C22.7834 46.9674 23.5216 46.8924 24.2661 46.9505C24.5586 46.9733 24.8509 47.0085 25.1405 47.0548C25.5221 47.1158 25.9013 47.1931 26.2814 47.2635C26.3089 47.2857 26.3365 47.3077 26.3638 47.3299C26.4398 47.3454 26.5157 47.3607 26.5919 47.3762C26.6049 47.3869 26.6179 47.3974 26.6309 47.4081C27.2645 47.599 27.8439 47.8944 28.361 48.3083C29.019 48.8352 29.5153 49.4825 29.8114 50.2754C30.1153 51.0894 30.2143 51.9294 30.1067 52.7914C30.0828 52.9836 30.0151 53.1715 30.0023 53.3637C29.9776 53.7331 29.8491 54.0769 29.7613 54.4296C29.6715 54.7898 29.5483 55.1424 29.4255 55.4934C29.2417 56.0187 29.0139 56.5257 28.7665 57.0249C28.1806 58.2077 27.4204 59.2688 26.5528 60.2586C25.2163 61.7836 23.732 63.1435 22.0547 64.2881C21.2991 64.8038 20.5194 65.2811 19.6989 65.6866C19.1612 65.9525 18.6137 66.1991 18.0654 66.443C17.8739 66.5281 17.7119 66.6399 17.5793 66.7998C17.4496 66.9561 17.3163 67.1095 17.1736 67.2774C17.1093 67.2333 17.0519 67.1971 16.9984 67.1562C16.6573 66.8954 16.4019 66.5591 16.2508 66.1656C16.1703 65.9558 16.0616 65.7387 16.0773 65.4963C16.0798 65.4573 16.048 65.4159 16.0319 65.3758ZM17.8039 63.9441C17.9615 63.8628 18.0934 63.8001 18.2204 63.7287C18.5155 63.5627 18.8119 63.3982 19.1015 63.2225C19.3833 63.0517 19.6557 62.8658 19.9346 62.6904C20.2785 62.4742 20.6261 62.2638 20.9695 62.0466C21.0485 61.9967 21.1135 61.9256 21.1902 61.8718C21.5003 61.6547 21.8177 61.4479 22.122 61.2229C22.3503 61.0542 22.5613 60.8625 22.782 60.6837C23.0032 60.5044 23.2323 60.3347 23.4477 60.1492C23.6224 59.9988 23.7796 59.8284 23.9489 59.6715C24.3206 59.327 24.6726 58.9628 25.0236 58.5976C25.0978 58.5203 25.1837 58.4537 25.2557 58.3745C25.3892 58.2274 25.5187 58.0767 25.6455 57.9238C25.8384 57.6912 26.0327 57.4592 26.2165 57.2195C26.3292 57.0726 26.4254 56.9126 26.5259 56.7567C26.7047 56.4795 26.8999 56.2106 27.0538 55.92C27.2371 55.5741 27.3968 55.2143 27.5441 54.8514C27.7448 54.3571 27.8527 53.8362 27.9376 53.3103C28.0254 52.7671 28.0285 52.2238 27.9281 51.6836C27.7773 50.8723 27.3773 50.2278 26.6378 49.82C26.2307 49.5956 25.7886 49.4896 25.3324 49.4399C24.4105 49.3392 23.4965 49.3968 22.5901 49.5902C21.7113 49.7777 20.8798 50.0949 20.075 50.4889C19.9185 50.5656 19.8043 50.6766 19.7255 50.8271C19.614 51.0399 19.5537 51.2675 19.5231 51.5059C19.4969 51.7092 19.4527 51.9101 19.4186 52.1125C19.3877 52.2967 19.3601 52.4817 19.3295 52.6659C19.2844 52.9375 19.2388 53.2092 19.1918 53.4804C19.1491 53.7262 19.1005 53.9713 19.0607 54.2175C19.0169 54.488 18.9819 54.7598 18.9398 55.0307C18.9064 55.2468 18.8683 55.4622 18.8316 55.678C18.7971 55.8802 18.7615 56.0822 18.7275 56.2844C18.6973 56.4639 18.6659 56.6431 18.6399 56.8231C18.5984 57.1103 18.5643 57.3985 18.5209 57.6853C18.489 57.8955 18.4409 58.1035 18.4107 58.3139C18.3614 58.6582 18.3237 59.0043 18.2757 59.349C18.2215 59.7381 18.1551 60.1257 18.106 60.5153C18.0794 60.7271 18.0828 60.9427 18.0639 61.1558C18.0084 61.7769 17.9483 62.3977 17.8902 63.0184C17.8625 63.3149 17.8351 63.6114 17.8039 63.9441Z" fill="#EE352A"/>
<path d="M58.7151 40.0323C58.7661 40.0323 58.817 40.0321 58.8681 40.0321C59.4349 40.1155 59.9438 40.3424 60.4113 40.6655C60.515 40.7372 60.6156 40.8206 60.6967 40.9165C60.8897 41.1451 60.8698 41.3901 60.6253 41.5588C60.4576 41.6746 60.2644 41.7624 60.071 41.8297C59.8001 41.924 59.5168 41.982 59.2419 42.0656C58.8019 42.1993 58.37 42.3623 57.9246 42.4734C57.5036 42.5784 57.1019 42.7332 56.6957 42.8776C56.6097 42.9082 56.5284 42.971 56.4622 43.0364C56.2703 43.226 56.1377 43.4422 56.1079 43.7257C56.0631 44.1511 55.9625 44.5718 55.9353 44.9976C55.9212 45.218 55.8468 45.4232 55.8416 45.6436C55.8363 45.8701 55.7942 46.0958 55.7643 46.3213C55.665 47.0752 55.5658 47.8291 55.4625 48.5825C55.4326 48.7998 55.3815 49.0144 55.3528 49.2319C55.3205 49.4774 55.3087 49.7255 55.2767 49.9709C55.245 50.2154 55.1956 50.4576 55.1615 50.7018C55.1409 50.8512 55.139 51.0031 55.1208 51.1529C55.1065 51.2713 55.0772 51.3878 55.0598 51.506C55.0389 51.6486 55.0248 51.792 55.0058 51.9347C54.9559 52.3118 54.9016 52.6881 54.8553 53.0655C54.8122 53.4152 54.7813 53.7662 54.7374 54.1157C54.6657 54.6884 54.5877 55.2606 54.5127 55.833C54.4486 56.3217 54.3851 56.8107 54.3212 57.2994C54.2315 57.9856 54.1452 58.6722 54.0507 59.3578C54.005 59.6897 53.9443 60.0197 53.8904 60.3504C53.846 60.3692 53.8081 60.3906 53.8473 60.4466C53.7921 60.5857 53.7368 60.7248 53.6752 60.8795C53.482 60.7877 53.3207 60.659 53.173 60.5178C52.9452 60.3003 52.7591 60.047 52.6449 59.7521C52.566 59.5483 52.4782 59.3381 52.4561 59.1242C52.4119 58.7016 52.3879 58.2743 52.396 57.8498C52.4128 56.9469 52.4429 56.0438 52.4909 55.142C52.5477 54.0751 52.6271 53.0096 52.7009 51.9437C52.752 51.2078 52.8067 50.4721 52.8662 49.7369C52.9102 49.1919 52.9643 48.6479 53.0139 48.1035C53.0852 48.0386 53.0525 47.9596 53.0439 47.8837C53.0418 47.8031 53.0399 47.7226 53.0378 47.6421L53.0405 47.5684C53.0563 47.4664 53.0722 47.3643 53.0881 47.2623C53.1336 47.2269 53.147 47.1893 53.0963 47.147C53.1317 46.8032 53.1673 46.4597 53.2027 46.1159C53.2482 46.0807 53.2618 46.043 53.2113 46.0005C53.2465 45.6845 53.3043 45.3691 53.3096 45.0525C53.3136 44.821 53.3766 44.6006 53.3825 44.372C53.3852 44.2659 53.3988 44.1597 53.4099 44.0241C53.1591 44.1274 52.9347 44.2179 52.7118 44.3124C52.5997 44.3598 52.4926 44.4187 52.3803 44.4656C52.1039 44.5809 51.8269 44.6949 51.5482 44.8046C51.1405 44.9647 50.7262 45.1091 50.3242 45.2822C50.0786 45.3882 49.8309 45.4613 49.5659 45.4802C49.4602 45.4879 49.3544 45.4927 49.2484 45.4982C49.2363 45.4988 49.2228 45.4988 49.2121 45.4942C49.0056 45.4058 48.7912 45.3318 48.5953 45.2241C48.3403 45.0839 48.1699 44.8503 48.0111 44.6127C47.8623 44.39 47.8561 44.1335 47.8349 43.877C47.8152 43.6394 47.9415 43.4534 48.0176 43.2499C48.0396 43.1912 48.1071 43.1491 48.1553 43.1007C48.3472 42.9081 48.5521 42.7414 48.8247 42.6659C49.4276 42.4989 50.0274 42.3208 50.6278 42.1448C50.8671 42.0746 51.1038 41.9954 51.3431 41.9254C51.433 41.8992 51.5292 41.8942 51.6193 41.8684C52.4138 41.6421 53.2109 41.4259 54.0109 41.2204C55.1981 40.9157 56.3832 40.6027 57.5704 40.2984C57.9501 40.201 58.3338 40.1201 58.7158 40.0315L58.7151 40.0323Z" fill="#EE352A"/>
<path d="M42.6206 68.6638C42.634 68.5488 42.6475 68.4336 42.6609 68.3187C42.7604 68.2917 42.7413 68.2318 42.7036 68.1666C42.7021 68.1536 42.7003 68.1406 42.6988 68.1276C42.7635 68.1159 42.7726 68.0757 42.7531 68.0212C42.7864 67.7892 42.8195 67.5569 42.8528 67.3249C42.8991 67.3165 42.9419 67.3063 42.889 67.2501C42.8897 67.2113 42.8903 67.1726 42.8911 67.1338C42.9373 67.1254 42.9802 67.1152 42.9272 67.059C42.928 67.0202 42.9286 66.9815 42.9293 66.9427C42.9758 66.9343 43.0185 66.9239 42.9653 66.8677C43.0121 66.6498 43.0609 66.4323 43.1049 66.214C43.1174 66.1526 43.1154 66.0885 43.1202 66.0256C43.1673 66.0168 43.2101 66.0063 43.1554 65.9502C43.182 65.797 43.2086 65.6438 43.235 65.4907C43.2815 65.4821 43.3249 65.472 43.2708 65.4156C43.2874 65.326 43.3041 65.2367 43.3209 65.1472C43.3693 65.1355 43.3993 65.1177 43.3469 65.0714C43.3758 64.931 43.4045 64.7906 43.4334 64.6502C43.4946 64.6362 43.4977 64.5947 43.4831 64.545C43.5943 64.0887 43.6951 63.6296 43.8188 63.1768C44.018 62.448 44.2322 61.7232 44.4402 60.9968C44.59 60.4736 44.7472 59.9525 44.8867 59.4267C44.9641 59.1344 45.0123 58.8344 45.0739 58.5377C45.0778 58.5279 45.0818 58.5182 45.0856 58.5084C45.0653 58.5172 45.0449 58.526 45.0246 58.535C44.6818 58.7531 44.3374 58.9685 43.9967 59.1898C43.5593 59.4741 43.117 59.7492 42.6452 59.9745C42.2225 60.1763 41.7777 60.2538 41.3134 60.2121C41.2046 60.2024 41.0929 60.1735 40.9923 60.1304C40.421 59.8863 40.1023 59.4351 39.938 58.8499C39.8546 58.5526 39.851 58.2492 39.8395 57.9485C39.8232 57.5233 39.8449 57.0965 39.8514 56.6705C39.8533 56.5434 39.855 56.416 39.8642 56.2894C39.8737 56.1587 39.8923 56.0289 39.907 55.8988C39.9841 55.8819 39.9998 55.8452 39.9443 55.785C39.9449 55.7337 39.9455 55.6824 39.9461 55.6312C40.0109 55.6183 40.0214 55.5797 39.9971 55.5244C40.0342 55.1676 40.1425 54.8262 40.2211 54.4782C40.2349 54.4172 40.2452 54.3552 40.2571 54.2936C40.3011 54.285 40.3407 54.2741 40.2942 54.22C40.2959 54.193 40.2975 54.1658 40.2992 54.1389C40.3072 54.1276 40.3151 54.1161 40.3231 54.1048C40.3539 53.9889 40.3847 53.873 40.4153 53.757C40.423 53.7465 40.4308 53.736 40.4384 53.7255C40.4538 53.6725 40.4691 53.6197 40.4844 53.5667C40.4943 53.5546 40.5041 53.5428 40.514 53.5307C40.5741 53.429 40.6232 53.318 40.6978 53.2281C40.7508 53.164 40.8348 53.1223 40.9104 53.0806C41.183 52.9302 41.4604 52.9304 41.7421 53.0596C41.8963 53.1303 41.9839 53.2581 42.0448 53.4052C42.1318 53.6155 42.2041 53.8309 42.1959 54.0637C42.1854 54.1147 42.1747 54.166 42.1641 54.2171C42.1488 54.5781 42.066 54.927 41.9839 55.2769C41.8944 55.6577 41.8188 56.0419 41.7289 56.4225C41.6603 56.7139 41.6189 57.0071 41.6591 57.3044C41.6811 57.4664 41.7196 57.6289 41.7735 57.7832C41.8902 58.117 42.0603 58.232 42.4084 58.1922C42.7432 58.1538 43.0596 58.0528 43.3108 57.8075C43.7136 57.414 44.1232 57.027 44.5192 56.627C44.786 56.3575 45.0428 56.0769 45.2895 55.7888C45.6096 55.415 45.938 55.0464 46.202 54.629C46.4174 54.2886 46.6209 53.9411 46.8304 53.5969C46.8532 53.5594 46.8788 53.5233 46.906 53.4888C46.9877 53.3857 47.089 53.2933 47.1495 53.1791C47.2733 52.9448 47.4764 52.8222 47.7077 52.7279C47.7194 52.7273 47.731 52.7265 47.7427 52.7254C47.9051 52.7062 48.0671 52.6772 48.2301 52.6708C48.4113 52.6638 48.5234 52.7774 48.5976 52.9302C48.6441 53.0259 48.6846 53.1244 48.7246 53.2229C48.8555 53.5456 48.8392 53.8619 48.6946 54.1788C48.549 54.4975 48.4082 54.8191 48.2783 55.1445C48.1182 55.546 47.9723 55.9531 47.819 56.3571C47.555 57.0527 47.319 57.758 47.0912 58.466C46.6795 59.7459 46.3191 61.0404 45.9797 62.3411C45.8156 62.9698 45.6455 63.5973 45.4879 64.2278C45.3792 64.6626 45.2912 65.1024 45.1872 65.5384C45.0481 66.1205 44.8987 66.6999 44.7606 67.2822C44.5903 68.0007 44.4318 68.7221 44.2592 69.44C44.167 69.8234 44.066 70.2052 43.9501 70.5819C43.882 70.8034 43.7823 71.0159 43.6865 71.2277C43.6187 71.3777 43.4994 71.4819 43.3433 71.5405C43.331 71.5493 43.3186 71.5583 43.3064 71.5671C43.0889 71.6696 42.8714 71.7723 42.6475 71.8779C42.5846 71.7687 42.524 71.6633 42.4633 71.5579C42.4539 71.5481 42.4444 71.5384 42.435 71.5286C42.4098 71.4716 42.3881 71.4127 42.3587 71.3582C42.2605 71.1772 42.197 70.9907 42.2416 70.7805C42.2504 70.7388 42.242 70.6936 42.2416 70.65C42.3269 70.6351 42.3116 70.5737 42.3036 70.5157C42.321 70.3439 42.3384 70.1721 42.356 70.0004C42.4209 69.9889 42.4295 69.9487 42.4103 69.8942C42.4176 69.7894 42.4249 69.6847 42.4321 69.5799C42.4786 69.5711 42.5224 69.5611 42.4681 69.5045C42.4714 69.4661 42.4746 69.4276 42.4779 69.3892C42.5781 69.3421 42.5511 69.2713 42.5134 69.1984C42.5117 69.1854 42.5102 69.1724 42.5085 69.1594C42.5549 69.1506 42.5988 69.1405 42.5442 69.0839C42.5578 68.9689 42.5714 68.8539 42.585 68.7389C42.6311 68.7303 42.6743 68.7208 42.6206 68.6638Z" fill="#EE352A"/>
<path d="M70.8763 46.6517L71.293 46.3808C71.3065 46.3732 71.3199 46.3657 71.3335 46.3581C71.3471 46.3535 71.3609 46.3489 71.3745 46.3443C71.3865 46.3353 71.3986 46.3263 71.4104 46.3173C71.7012 46.1555 72.0128 46.0409 72.3447 46.0421C72.9119 46.0442 73.2394 46.254 73.5066 46.8155C73.5382 46.8818 73.548 46.9586 73.5679 47.0305C73.5759 47.0429 73.5837 47.0555 73.5918 47.068C73.6298 47.2526 73.6681 47.437 73.7056 47.6218C73.815 48.1601 73.8129 48.7074 73.8294 49.2524C73.8391 49.5757 73.8319 49.9015 73.8024 50.2234C73.7676 50.6039 73.7102 50.9855 73.7538 51.3645C73.7806 51.5977 73.8697 51.8293 73.9635 52.0476C74.1075 52.3828 74.3533 52.646 74.6581 52.8417C74.8968 52.9949 75.148 53.1332 75.4062 53.2507C75.6784 53.3744 75.9638 53.4701 76.2464 53.5697C76.4471 53.6405 76.6537 53.6947 76.856 53.7612C77.0634 53.8295 77.2402 53.9397 77.3043 54.1643C77.3701 54.3946 77.429 54.627 77.482 54.8606C77.5141 55.0024 77.5296 55.1477 77.556 55.3126C77.4871 55.3341 77.4121 55.3586 77.3364 55.3806C77.13 55.4408 76.9255 55.511 76.7156 55.556C76.5747 55.5862 76.4258 55.5887 76.2808 55.5868C76.2171 55.5858 76.1534 55.5447 76.0909 55.5191C75.7924 55.3968 75.4904 55.282 75.1975 55.1477C75.0223 55.0674 74.8582 54.9607 74.6944 54.8574C74.3503 54.6404 74.0117 54.4147 73.6671 54.1985C73.4146 54.0401 73.1654 53.872 72.8979 53.7425C72.4057 53.5043 71.9388 53.5713 71.5449 53.9556C71.346 54.1498 71.1703 54.3713 71.0064 54.5966C70.8015 54.8778 70.6227 55.178 70.4266 55.4659C70.0446 56.0271 69.5971 56.5239 69.0137 56.8866C68.7038 57.0793 68.3696 57.1288 68.0151 57.0766C67.9734 57.0705 67.9336 57.0513 67.8929 57.0383C67.8808 57.0274 67.8686 57.0165 67.8565 57.0056C67.7727 56.9819 67.7088 56.932 67.6438 56.873C67.4818 56.7267 67.346 56.5662 67.2823 56.3533C67.2761 56.2992 67.3054 56.2332 67.2314 56.2018C67.223 56.1878 67.2145 56.1739 67.2061 56.1601C67.1979 56.1494 67.1895 56.1387 67.1813 56.1278C67.1767 56.1008 67.1723 56.0736 67.1677 56.0466C67.1594 56.0356 67.1512 56.0245 67.1432 56.0132C67.1388 55.9858 67.1342 55.9585 67.1298 55.9311C67.1221 55.9204 67.1145 55.9097 67.1068 55.899C67.0539 55.7119 67.0152 55.5191 66.9437 55.3392C66.8813 55.1826 66.8656 55.041 66.8916 54.8702C66.9613 54.4143 67.0596 53.9652 67.1696 53.5189C67.2765 53.085 67.3852 52.649 67.5332 52.2282C68.021 50.8409 68.6801 49.5382 69.5187 48.3277C69.6583 48.126 69.7823 47.9129 69.9296 47.7174C70.0939 47.4993 70.2925 47.3061 70.4461 47.0816C70.5563 46.9205 70.711 46.8183 70.8436 46.6875C70.8545 46.6756 70.8654 46.6636 70.8763 46.6517ZM69.0977 53.965C69.5183 53.7706 69.8699 53.5571 70.2003 53.3077C70.8172 52.8419 71.3194 52.2689 71.7352 51.6231C72.0654 51.1103 72.3692 50.5804 72.6841 50.0577C72.7128 50.0101 72.7378 49.9602 72.7696 49.9024C72.5544 49.701 72.3376 49.5171 72.0769 49.3918C71.6876 49.2046 71.3718 49.2505 71.0716 49.5638C70.9278 49.714 70.8023 49.8863 70.6917 50.0631C70.2561 50.7588 69.8816 51.4881 69.5183 52.2236C69.3381 52.5886 69.1736 52.9532 69.1671 53.3725C69.1642 53.5594 69.1244 53.7455 69.0977 53.965Z" fill="#EE352A"/>
<path d="M35.9214 54.4392C35.922 55.6042 35.9223 56.7692 35.9231 57.9344C35.9231 58.1239 35.9137 58.3125 35.9644 58.5006C36.0568 58.844 36.2255 59.1389 36.5094 59.353C36.686 59.4861 36.8748 59.6136 37.0764 59.7008C37.5587 59.9091 38.0517 60.0929 38.5414 60.2839C38.6041 60.3083 38.6732 60.3185 38.7401 60.33C39.1835 60.4067 39.4908 60.689 39.5855 61.1267C39.6281 61.3237 39.6541 61.5254 39.675 61.726C39.6978 61.9445 39.5007 62.1894 39.2802 62.2035C38.9444 62.2251 38.6074 62.236 38.2709 62.2339C38.1636 62.2332 38.052 62.1874 37.9501 62.1446C37.2205 61.8383 36.5345 61.455 35.8921 60.9913C35.6503 60.8168 35.3923 60.6622 35.1306 60.519C34.9708 60.4315 34.7935 60.3705 34.6175 60.32C34.3665 60.2481 34.1198 60.2869 33.9063 60.4371C33.7567 60.5425 33.6057 60.6588 33.4921 60.7998C33.2331 61.1217 32.9869 61.455 32.7535 61.7959C32.2977 62.4618 31.7377 63.0182 31.0621 63.4588C30.8549 63.5938 30.6368 63.6994 30.3908 63.7528C30.0763 63.8209 29.521 63.7017 29.3936 63.2937C29.3398 63.1215 29.2813 62.9423 29.2771 62.765C29.258 61.9686 29.3022 61.1747 29.4099 60.3841C29.4816 59.8576 29.5981 59.3421 29.7697 58.8407C29.8649 58.562 29.9885 58.2925 30.1081 58.0227C30.255 57.6914 30.3987 57.3578 30.5664 57.0372C30.7449 56.6959 30.9517 56.3692 31.1428 56.0344C31.2647 55.8211 31.3752 55.6015 31.5011 55.3907C31.5837 55.2522 31.6876 55.1267 31.7758 54.9913C31.8372 54.8971 31.8835 54.7929 31.9449 54.6988C32.1083 54.4482 32.277 54.2012 32.4419 53.9516C32.5375 53.8068 32.6198 53.6522 32.726 53.5158C32.8105 53.4071 32.9224 53.3197 33.0221 53.2229C33.0332 53.2097 33.0441 53.1965 33.0552 53.1833C33.1713 53.1005 33.2784 52.9982 33.4056 52.9392C33.5872 52.8551 33.7794 52.7854 33.9744 52.741C34.2487 52.6787 34.5291 52.6839 34.805 52.7504C35.1954 52.8447 35.429 53.1244 35.6075 53.4561C35.7691 53.7563 35.8611 54.0826 35.921 54.4178C35.9212 54.425 35.921 54.4319 35.9214 54.4392ZM31.2784 60.5995C31.3532 60.5647 31.411 60.5408 31.4661 60.5117C31.9872 60.2355 32.4582 59.8913 32.8784 59.477C33.7115 58.6561 34.2625 57.6419 34.8306 56.6393C34.8727 56.5651 34.8601 56.5052 34.7899 56.4589C34.5727 56.3156 34.3638 56.1565 34.1343 56.0369C34.0069 55.9705 33.8435 55.9422 33.6987 55.9481C33.5078 55.9562 33.328 56.0419 33.2023 56.1939C33.0449 56.3847 32.8861 56.5777 32.7566 56.7875C32.338 57.4647 32.0036 58.1874 31.6371 58.8927C31.3655 59.4154 31.2 59.946 31.2712 60.5371C31.2727 60.5496 31.274 60.562 31.2784 60.5995Z" fill="#EE352A"/>
<path d="M95.9671 43.0186C95.9673 43.1338 95.9677 43.2487 95.9677 43.3637C95.9087 43.625 95.7571 43.8238 95.5371 43.9669C95.2253 44.1698 94.8802 44.2949 94.5234 44.3988C94.1565 44.5058 93.797 44.6385 93.4343 44.7604C93.1172 44.8669 92.7964 44.9641 92.484 45.0831C92.0515 45.248 91.7351 45.542 91.5602 45.9778C91.4286 46.3057 91.3794 46.6465 91.41 46.997C91.429 47.2151 91.508 47.4173 91.6624 47.573C91.8179 47.7299 91.9786 47.8911 92.1645 48.0061C92.515 48.2228 92.8836 48.4105 93.2474 48.6048C93.5315 48.7565 93.7907 48.9394 93.9889 49.1952C94.4165 49.7469 94.5152 50.3512 94.25 51.0022C94.1905 51.1483 94.1115 51.2891 94.0241 51.4207C93.2272 52.6182 92.2255 53.5961 90.933 54.2511C90.6148 54.4124 90.2789 54.539 89.9474 54.6726C89.7515 54.7516 89.5491 54.8153 89.3483 54.8817C89.2293 54.9211 89.1097 54.9075 88.9984 54.8528C88.7053 54.7087 88.414 54.5612 88.1117 54.4101C88.3952 53.9736 88.6881 53.5881 89.1837 53.4003C89.5154 53.2746 89.8403 53.1235 90.1521 52.9542C90.391 52.8245 90.6223 52.6684 90.8254 52.4883C91.1038 52.2416 91.3607 51.9688 91.6099 51.692C91.7274 51.5617 91.819 51.4027 91.8986 51.2449C92.0536 50.9379 92.0069 50.641 91.7984 50.3743C91.7089 50.2599 91.6056 50.1515 91.4912 50.0627C91.2955 49.9108 91.0864 49.7762 90.8826 49.6346C90.5808 49.4249 90.2537 49.2426 89.9845 48.997C89.7842 48.8141 89.658 48.5501 89.5011 48.3204C89.4692 48.2737 89.4483 48.2196 89.4223 48.1689C89.4148 48.1595 89.4076 48.1499 89.4001 48.1406C89.3951 48.1134 89.3902 48.0862 89.3852 48.0593C89.3771 48.0482 89.3689 48.0371 89.3609 48.026C89.3586 47.9992 89.3565 47.9726 89.3542 47.9458C89.4028 47.8938 89.3649 47.881 89.3203 47.8712L89.3161 47.793C89.3661 47.7341 89.3196 47.7272 89.2759 47.7188C89.2807 47.6782 89.2855 47.6377 89.2901 47.5971C89.2844 47.5745 89.2788 47.5521 89.2733 47.5296C89.2723 47.3245 89.2714 47.1194 89.2704 46.9146C89.2715 46.9042 89.2719 46.8937 89.2712 46.8832C89.2727 46.8181 89.2742 46.7533 89.2758 46.6883C89.3224 46.6791 89.3666 46.6689 89.3111 46.6123C89.3146 46.574 89.318 46.536 89.3215 46.4977C89.3911 46.4809 89.4001 46.4424 89.3609 46.387C89.3611 46.3602 89.3613 46.3334 89.3615 46.3066C89.4194 46.2934 89.4253 46.2542 89.4118 46.2054C89.4328 46.0983 89.4538 45.9914 89.4749 45.8842L89.5 45.8502C89.5044 45.8234 89.5086 45.7966 89.513 45.7696C89.5214 45.7586 89.53 45.7476 89.5386 45.7366C89.5464 45.723 89.5543 45.7092 89.5623 45.6956C89.6392 45.6648 89.608 45.5973 89.6143 45.5426C89.6205 45.53 89.6268 45.5171 89.6329 45.5045C89.6786 45.4911 89.7088 45.4729 89.6576 45.4282C89.6715 45.3894 89.6855 45.3505 89.6995 45.3115C89.7094 45.3002 89.7196 45.2887 89.7295 45.2774C89.8194 45.111 89.9093 44.9444 89.9994 44.778C90.0237 44.7521 90.0482 44.7263 90.0725 44.7003C90.1029 44.6209 90.158 44.5584 90.2068 44.4901C90.3751 44.2546 90.5949 44.0669 90.7812 43.8496C90.8926 43.7199 91.0418 43.6411 91.1514 43.515C91.1619 43.5043 91.1725 43.4936 91.1828 43.4831C91.4097 43.3283 91.6365 43.1738 91.8632 43.019C91.878 43.0098 91.8925 43.0006 91.9072 42.9915C91.9572 42.9618 92.0071 42.9323 92.057 42.9027C92.0708 42.8949 92.0844 42.887 92.0981 42.8792C92.1115 42.8748 92.1247 42.8706 92.1381 42.8662C92.1504 42.8568 92.1628 42.8476 92.175 42.8382C92.3876 42.7332 92.5972 42.6223 92.8134 42.5253C92.9331 42.4715 93.0351 42.374 93.1765 42.3715C93.23 42.374 93.2796 42.3701 93.2849 42.2999C93.4858 42.2339 93.6872 42.1698 93.8873 42.1017C94.1923 41.9979 94.4979 41.8959 94.7996 41.7828C94.8763 41.754 94.927 41.754 94.9861 41.8087C95.1633 41.9724 95.3412 42.1356 95.5231 42.294C95.7479 42.4895 95.8992 42.7282 95.9671 43.0186Z" fill="#EE352A"/>
<path d="M85.7276 51.4661C85.7232 51.4383 85.7188 51.4108 85.7144 51.383C85.7066 51.3725 85.6989 51.3622 85.6911 51.3517C85.6352 51.1585 85.5791 50.9651 85.5233 50.7718C85.5156 50.7613 85.5078 50.7506 85.5001 50.7401C85.4317 50.5193 85.3687 50.2967 85.2935 50.0782C85.1214 49.5772 84.949 49.0762 84.7642 48.5798C84.7057 48.4227 84.616 48.2751 84.5253 48.1329C84.4025 47.9407 84.215 47.8309 83.992 47.8004C83.8064 47.775 83.639 47.855 83.4824 47.9441C82.7348 48.3694 82.1209 48.9434 81.6149 49.6357C81.3018 50.0642 81.0494 50.5272 80.8591 51.0217C80.6854 51.4731 80.5215 51.9284 80.3589 52.3843C80.1718 52.909 79.9944 53.4374 79.8047 53.9611C79.762 54.079 79.6955 54.1918 79.6216 54.294C79.4246 54.5672 79.1403 54.6731 78.834 54.5519C78.689 54.4945 78.5584 54.3696 78.4547 54.2471C78.291 54.0537 78.1551 53.8364 78.0086 53.6308C78.0159 53.6162 78.0184 53.5996 78.0266 53.5958C78.1922 53.5217 78.234 53.3874 78.2449 53.216C78.2793 52.6764 78.3269 52.1375 78.3717 51.5986C78.4429 50.7426 78.5148 49.8867 78.588 49.0311C78.6288 48.5557 78.6724 48.0805 78.7149 47.6053C78.7227 47.5571 78.7306 47.5091 78.7384 47.4609C78.7434 47.3819 78.7482 47.3027 78.7531 47.2237C78.7531 47.2107 78.7531 47.1979 78.7533 47.1849C78.7554 47.1085 78.7577 47.0322 78.7598 46.9559C78.8025 46.9476 78.8492 46.9419 78.8015 46.8824C78.8034 46.8554 78.8055 46.8283 78.8077 46.8013C78.8157 46.7912 78.8235 46.781 78.8316 46.7709C78.9008 46.6393 78.9578 46.4991 79.0416 46.3774C79.2731 46.0411 79.6191 45.9535 80.0033 45.9665C80.1127 45.9703 80.1729 46.0417 80.2043 46.1402C80.294 46.422 80.3845 46.7034 80.4717 46.9857C80.5274 47.1657 80.5779 47.3471 80.6307 47.5279C80.6539 47.5969 80.6868 47.5688 80.72 47.5367C80.7675 47.5217 80.8149 47.507 80.8624 47.4921C80.9153 47.4936 80.9662 47.4921 80.9718 47.4209C81.27 47.3553 81.5361 47.2239 81.772 47.0305C81.8384 47.0328 81.854 46.9901 81.8561 46.9356C81.9988 46.7407 82.1806 46.583 82.3556 46.4195C82.3661 46.4084 82.3767 46.3973 82.3874 46.386C82.7149 46.1635 83.047 45.951 83.4437 45.8693C83.794 45.7972 84.1486 45.7702 84.4955 45.8571C85.0759 46.0025 85.5702 46.2928 85.9001 46.8097C86.0346 47.0205 86.1498 47.2443 86.2644 47.4668C86.304 47.5437 86.3155 47.635 86.3397 47.7197C86.348 47.731 86.3562 47.7423 86.3644 47.7538C86.6808 48.6959 86.9144 49.6602 87.126 50.6301C87.2027 50.9817 87.2721 51.335 87.345 51.6874C87.3284 51.7029 87.3117 51.7186 87.2951 51.7341C87.315 51.7461 87.3349 51.7582 87.3548 51.7702C87.3867 51.9036 87.4116 52.0392 87.4525 52.1698C87.5045 52.3357 87.4919 52.4985 87.4186 52.6473C87.3209 52.8455 87.2011 53.0326 87.0887 53.2281C86.8868 53.1464 86.7061 53.0712 86.5238 53.0001C86.3091 52.9161 86.19 52.7627 86.1209 52.5406C86.0191 52.2135 85.8852 51.8961 85.7659 51.5743C85.7574 51.5516 85.7561 51.5263 85.7515 51.5022C85.7435 51.49 85.7356 51.4783 85.7276 51.4661Z" fill="#EE352A"/>
<path d="M61.4841 57.4645C61.4795 57.4917 61.4747 57.5189 61.4701 57.546C61.4621 57.5571 61.454 57.568 61.446 57.5791C61.4412 57.6065 61.4366 57.6336 61.4318 57.661C61.4238 57.6719 61.4158 57.683 61.4077 57.6939C61.403 57.7211 61.3984 57.7482 61.3936 57.7754C61.3854 57.7865 61.3773 57.7976 61.3691 57.8087C61.3645 57.8356 61.3597 57.8626 61.3551 57.8894C61.3467 57.9007 61.3381 57.912 61.3297 57.9235C61.2161 58.4113 60.9205 58.7684 60.4958 59.0087C60.2764 59.1328 60.0342 59.1051 59.8234 58.9438L59.7976 58.9178C59.7653 58.8491 59.7331 58.7805 59.7008 58.7118C59.7117 58.6592 59.7006 58.62 59.6394 58.611C59.6084 57.8295 59.591 57.0479 59.6365 56.2664C59.6926 55.3017 59.7525 54.3372 59.8114 53.3727C59.8269 53.1189 59.8449 52.8652 59.8617 52.6115C59.8628 52.5861 59.864 52.5607 59.8651 52.5352C59.9078 51.8873 59.951 51.2394 59.9929 50.5915C60.0107 50.3183 60.0344 50.0451 60.0394 49.7718C60.0427 49.5935 60.0941 49.454 60.2374 49.3411C60.5523 49.0932 60.8614 48.838 61.1904 48.5716C61.3978 48.8453 61.648 49.0661 61.8079 49.3591C61.9485 49.6168 61.9793 49.9036 62.0013 50.1894C62.0249 50.4929 62.0365 50.7975 62.0553 51.1357C62.1276 51.0886 62.1836 51.0546 62.2372 51.0167C63.1529 50.3711 64.0685 49.7251 64.984 49.0793C64.9944 49.072 65.0047 49.0643 65.0152 49.0571C65.6578 48.6136 65.9187 48.5775 66.6988 48.7826C66.8566 48.8241 66.9863 48.875 67.0661 49.0194C67.1721 49.2114 67.2036 49.415 67.1449 49.6279C67.0793 49.8661 66.9243 50.0413 66.7321 50.1855C66.6357 50.2578 66.5295 50.3173 66.4296 50.3856C65.9675 50.7018 65.4986 51.0089 65.0458 51.3377C63.9097 52.1626 63.0956 53.2415 62.5383 54.5258C62.2252 55.2474 61.9811 55.9923 61.7351 56.7372C61.6842 56.8912 61.6346 57.0458 61.5843 57.2C61.5759 57.2118 61.5677 57.2235 61.5593 57.2354C61.555 57.2621 61.5506 57.2889 61.5464 57.3155C61.5382 57.327 61.53 57.3385 61.5218 57.3499C61.5174 57.3769 61.5128 57.4039 61.5084 57.4311C61.5003 57.4422 61.4923 57.4534 61.4841 57.4645Z" fill="#EE352A"/>
<path d="M53.0139 48.1035C53.0852 48.0386 53.0525 47.9596 53.0439 47.8837C52.9632 47.9474 52.9511 48.0202 53.0139 48.1035Z" fill="#EE352A"/>
<path d="M42.4779 69.3892C42.5781 69.3421 42.5511 69.2713 42.5134 69.1984C42.5016 69.2619 42.4897 69.3256 42.4779 69.3892Z" fill="#EE352A"/>
<path d="M42.1641 54.2171L42.1959 54.0637C42.2475 54.1278 42.2651 54.1848 42.1641 54.2171Z" fill="#EE352A"/>
<path d="M39.907 55.8988C39.9841 55.8819 39.9998 55.8452 39.9443 55.785C39.9319 55.823 39.9195 55.8609 39.907 55.8988Z" fill="#EE352A"/>
<path d="M89.3215 46.4977C89.3911 46.4809 89.4001 46.4424 89.3609 46.387C89.2861 46.4021 89.3081 46.4514 89.3215 46.4977Z" fill="#EE352A"/>
<path d="M42.2416 70.65C42.3269 70.6351 42.3116 70.5737 42.3036 70.5157C42.2412 70.5411 42.2276 70.5892 42.2416 70.65Z" fill="#EE352A"/>
<path d="M53.0881 47.2623C53.1336 47.2269 53.147 47.1893 53.0963 47.147C53.028 47.1806 53.0341 47.2199 53.0881 47.2623Z" fill="#EE352A"/>
<path d="M78.7149 47.6053C78.7227 47.5571 78.7306 47.5091 78.7384 47.4609C78.6934 47.503 78.6345 47.543 78.7149 47.6053Z" fill="#EE352A"/>
<path d="M89.5623 45.6956C89.6392 45.6648 89.608 45.5973 89.6143 45.5426C89.5661 45.5831 89.5327 45.6287 89.5623 45.6956Z" fill="#EE352A"/>
<path d="M42.6609 68.3187C42.7604 68.2917 42.7413 68.2318 42.7036 68.1666C42.6892 68.2173 42.6751 68.268 42.6609 68.3187Z" fill="#EE352A"/>
<path d="M67.2823 56.3533C67.2761 56.2992 67.3054 56.2332 67.2314 56.2018C67.2006 56.2684 67.2329 56.3137 67.2823 56.3533Z" fill="#EE352A"/>
<path d="M53.2027 46.1159C53.2482 46.0807 53.2618 46.043 53.2113 46.0005C53.1424 46.034 53.1489 46.0732 53.2027 46.1159Z" fill="#EE352A"/>
<path d="M93.1765 42.3715C93.23 42.374 93.2796 42.3701 93.2849 42.2999C93.2488 42.3236 93.2126 42.3476 93.1765 42.3715Z" fill="#EE352A"/>
<path d="M81.772 47.0305C81.8384 47.0328 81.854 46.9901 81.8561 46.9356C81.828 46.9672 81.8001 46.9989 81.772 47.0305Z" fill="#EE352A"/>
<path d="M80.8624 47.4921C80.9153 47.4936 80.9662 47.4921 80.9718 47.4209C80.9354 47.4446 80.8989 47.4684 80.8624 47.4921Z" fill="#EE352A"/>
<path d="M42.8528 67.3249C42.8991 67.3165 42.9419 67.3063 42.889 67.2501C42.8769 67.275 42.8648 67.3 42.8528 67.3249Z" fill="#EE352A"/>
<path d="M78.7598 46.9559C78.8025 46.9476 78.8492 46.9419 78.8015 46.8824C78.7876 46.9069 78.7738 46.9314 78.7598 46.9559Z" fill="#EE352A"/>
<path d="M39.9461 55.6312C40.0109 55.6183 40.0214 55.5797 39.9971 55.5244L39.9461 55.6312Z" fill="#EE352A"/>
<path d="M40.2571 54.2936C40.3011 54.285 40.3407 54.2741 40.2942 54.22C40.2818 54.2444 40.2695 54.2691 40.2571 54.2936Z" fill="#EE352A"/>
<path d="M43.1202 66.0256C43.1673 66.0168 43.2101 66.0063 43.1554 65.9502C43.1438 65.9753 43.1319 66.0005 43.1202 66.0256Z" fill="#EE352A"/>
<path d="M43.235 65.4907C43.2815 65.4821 43.3249 65.472 43.2708 65.4156C43.2589 65.4406 43.2469 65.4657 43.235 65.4907Z" fill="#EE352A"/>
<path d="M42.8911 67.1338C42.9373 67.1254 42.9802 67.1152 42.9272 67.059C42.9152 67.0839 42.9031 67.1089 42.8911 67.1338Z" fill="#EE352A"/>
<path d="M89.3542 47.9458C89.4028 47.8938 89.3649 47.881 89.3203 47.8712C89.3039 47.9087 89.3014 47.9399 89.3542 47.9458Z" fill="#EE352A"/>
<path d="M42.356 70.0004C42.4209 69.9889 42.4295 69.9487 42.4103 69.8942C42.3922 69.9296 42.3742 69.965 42.356 70.0004Z" fill="#EE352A"/>
<path d="M43.3209 65.1472C43.3693 65.1355 43.3993 65.1177 43.3469 65.0714L43.3209 65.1472Z" fill="#EE352A"/>
<path d="M89.3161 47.793C89.3661 47.7341 89.3196 47.7272 89.2759 47.7188C89.2893 47.7436 89.3027 47.7683 89.3161 47.793Z" fill="#EE352A"/>
<path d="M43.4334 64.6502C43.4946 64.6362 43.4977 64.5947 43.4831 64.545C43.45 64.5721 43.3999 64.5915 43.4334 64.6502Z" fill="#EE352A"/>
<path d="M42.9293 66.9427C42.9758 66.9343 43.0185 66.9239 42.9653 66.8677C42.9532 66.8927 42.9414 66.9176 42.9293 66.9427Z" fill="#EE352A"/>
<path d="M42.4321 69.5799C42.4786 69.5711 42.5224 69.5611 42.4681 69.5045C42.456 69.5296 42.4442 69.5548 42.4321 69.5799Z" fill="#EE352A"/>
<path d="M89.2758 46.6883C89.3224 46.6791 89.3666 46.6689 89.3111 46.6123C89.2993 46.6376 89.2876 46.663 89.2758 46.6883Z" fill="#EE352A"/>
<path d="M59.7008 58.7118C59.7117 58.6592 59.7006 58.62 59.6394 58.611C59.6599 58.6446 59.6803 58.6783 59.7008 58.7118Z" fill="#EE352A"/>
<path d="M53.0378 47.6421L53.0405 47.5684C53.0395 47.5929 53.0387 47.6176 53.0378 47.6421Z" fill="#EE352A"/>
<path d="M89.2733 47.5296C89.2788 47.5521 89.2844 47.5745 89.2901 47.5971C89.2731 47.586 89.2562 47.5751 89.2394 47.564C89.2507 47.5525 89.262 47.541 89.2733 47.5296Z" fill="#EE352A"/>
<path d="M87.3548 51.7702C87.3349 51.7582 87.315 51.7461 87.2951 51.7341C87.3117 51.7186 87.3284 51.7029 87.345 51.6874C87.3483 51.7151 87.3515 51.7425 87.3548 51.7702Z" fill="#EE352A"/>
<path d="M53.8904 60.3504C53.846 60.3692 53.8081 60.3906 53.8473 60.4466C53.8617 60.4145 53.876 60.3824 53.8904 60.3504Z" fill="#EE352A"/>
<path d="M89.3615 46.3066C89.4194 46.2934 89.4253 46.2542 89.4118 46.2054C89.3747 46.2291 89.3255 46.2467 89.3615 46.3066Z" fill="#EE352A"/>
<path d="M89.6329 45.5045C89.6786 45.4911 89.7088 45.4729 89.6576 45.4282C89.6494 45.4536 89.6411 45.4791 89.6329 45.5045Z" fill="#EE352A"/>
<path d="M42.585 68.7389C42.6311 68.7303 42.6743 68.7208 42.6206 68.6638C42.6083 68.6888 42.5972 68.7139 42.585 68.7389Z" fill="#EE352A"/>
<path d="M42.5085 69.1594C42.5549 69.1506 42.5988 69.1405 42.5442 69.0839C42.5324 69.1091 42.5203 69.1342 42.5085 69.1594Z" fill="#EE352A"/>
<path d="M42.6988 68.1276C42.7635 68.1159 42.7726 68.0757 42.7531 68.0212C42.735 68.0566 42.7168 68.0922 42.6988 68.1276Z" fill="#EE352A"/>
<path d="M80.6307 47.5279C80.6539 47.5969 80.6868 47.5688 80.72 47.5367C80.6902 47.5338 80.6605 47.5307 80.6307 47.5279Z" fill="#EE352A"/>
<path d="M45.0246 58.535C45.0449 58.526 45.0653 58.5172 45.0856 58.5084C45.0818 58.5182 45.0778 58.5279 45.0739 58.5377C45.0575 58.5367 45.041 58.5358 45.0246 58.535Z" fill="#EE352A"/>
<path d="M16.4147 57.2736C16.4142 57.2866 16.4138 57.2996 16.4132 57.3126C16.3981 57.3059 16.3828 57.2989 16.3677 57.2922C16.3834 57.2861 16.399 57.2797 16.4147 57.2736Z" fill="#EE352A"/>
<path d="M16.4526 56.6622C16.452 56.6752 16.4516 56.6881 16.4511 56.7011C16.436 56.6944 16.421 56.6873 16.4059 56.6806C16.4216 56.6745 16.4369 56.6684 16.4526 56.6622Z" fill="#EE352A"/>
<path d="M35.9214 54.4392C35.921 54.4319 35.9212 54.425 35.921 54.4178C35.9315 54.4208 35.9415 54.4233 35.952 54.4264C35.9418 54.4306 35.9315 54.435 35.9214 54.4392Z" fill="#EE352A"/>
<path d="M47.7427 52.7254C47.731 52.7265 47.7194 52.7273 47.7077 52.7279C47.7102 52.7185 47.7121 52.7089 47.7146 52.6993C47.7238 52.708 47.7335 52.7168 47.7427 52.7254Z" fill="#EE352A"/>
<path d="M82.3874 46.386L82.3556 46.4195C82.3661 46.4084 82.3767 46.3973 82.3874 46.386Z" fill="#EE352A"/>
<path d="M78.7533 47.1849C78.7531 47.1979 78.7531 47.2107 78.7531 47.2237C78.7441 47.2151 78.7351 47.2063 78.726 47.1977C78.7351 47.1933 78.7441 47.1893 78.7533 47.1849Z" fill="#EE352A"/>
<path d="M89.2712 46.8832C89.2719 46.8937 89.2715 46.9042 89.2704 46.9146C89.2616 46.9071 89.2528 46.8996 89.244 46.8922C89.2532 46.8893 89.262 46.8861 89.2712 46.8832Z" fill="#EE352A"/>
</g>
<rect x="1" y="1" width="110" height="110" rx="9" stroke="black" stroke-opacity="0.1" stroke-width="2"/>
<defs>
<clipPath id="clip0_755_407">
<rect x="2" y="2" width="108" height="108" rx="8" fill="white"/>
</clipPath>
</defs>
</svg>
