<svg width="112" height="112" viewBox="0 0 112 112" fill="none" xmlns="http://www.w3.org/2000/svg">
<g clip-path="url(#clip0_755_406)">
<rect x="2" y="2" width="108" height="108" rx="8" fill="white"/>
<g clip-path="url(#clip1_755_406)">
<path d="M26.4394 78.9547C25.9947 78.3195 25.2959 77.9595 24.5124 77.9595H20.5103V77.8748L22.8396 64.7673C22.9667 64.0685 22.7761 63.3697 22.3314 62.8403C21.8867 62.3109 21.2303 61.9933 20.5315 61.9933H19.4516L16 81.6017H26.5664L26.7358 81.0935C26.9899 80.3735 26.8841 79.59 26.4182 78.9547" fill="#01629E"/>
<path d="M30.8229 67.3718L28.3242 81.6017H32.1993L34.7191 67.3718H30.8229Z" fill="#01629E"/>
<path d="M48.5249 68.5365C47.8897 67.5412 46.8733 67.0542 45.4334 67.0542C43.8029 67.0542 42.4265 67.6259 41.3254 68.7906L41.0501 69.087L41.0077 68.9812C40.7325 68.0494 39.7796 67.3718 38.7632 67.3718H37.2809L34.7822 81.6228H38.6573L40.1607 73.2586C40.3301 72.2633 40.6266 71.501 41.0924 71.014C41.5583 70.5058 42.2359 70.2517 43.1253 70.2517C44.0146 70.2517 44.544 70.527 44.8405 71.0775C45.1157 71.6069 45.1581 72.348 44.9675 73.3433L43.4852 81.644H47.4238L48.9908 72.7292C49.3084 70.9716 49.139 69.5741 48.5038 68.5576" fill="#01629E"/>
<path d="M62.5858 80.0982L64.8304 67.3718H62.7764C61.9294 67.3718 61.1247 67.8377 60.7224 68.6L60.4259 69.1506L60.2565 68.7482C60.0659 68.2824 59.6848 67.88 59.1131 67.5624C58.5413 67.2448 57.8002 67.0754 56.9108 67.0754C55.1956 67.0754 53.8193 67.6048 52.8664 68.6424C51.8923 69.6799 51.1723 71.4799 50.7488 73.9574C50.3042 76.4772 50.41 78.383 51.0665 79.6112C51.7229 80.8182 52.8452 81.4111 54.4757 81.4111C55.3227 81.4111 56.085 81.2629 56.7414 80.9876C57.3979 80.6911 57.9272 80.3523 58.3084 79.95L59.1131 79.103L58.6684 80.2041V80.2464C58.4143 81.6864 57.9272 82.7028 57.2285 83.3169C56.5085 83.931 55.4709 84.2486 54.1369 84.2486C53.671 84.2486 53.2052 84.2274 52.7605 84.1639C52.1041 84.0792 51.4476 84.3121 50.9394 84.7356C50.4312 85.2015 50.1348 85.8367 50.1348 86.5143V86.7473C51.2359 87.1708 52.5487 87.4037 54.0734 87.4037C58.9013 87.4037 61.7811 84.9474 62.6493 80.1406M58.4778 77.6419C58.0119 78.1289 57.3555 78.3618 56.5509 78.3618C55.6191 78.3618 55.0051 78.0442 54.7086 77.4089C54.4333 76.816 54.4122 75.8208 54.6874 74.402C54.9415 72.8986 55.3015 71.8822 55.7674 71.2469C56.2544 70.6117 56.9744 70.294 57.8849 70.294C58.7319 70.294 59.3036 70.5693 59.6213 71.0987C59.9177 71.6069 59.9812 72.4327 59.8542 73.6186L59.6001 75.2067C59.6001 75.2067 59.6001 75.2067 59.6001 75.2279C59.3248 76.3502 58.9437 77.1548 58.499 77.6207" fill="#01629E"/>
<path d="M87.1066 67.0542C84.7561 67.0542 82.9774 67.6048 81.8127 68.6847C80.6481 69.7858 79.8223 71.6492 79.3564 74.2326C78.8694 77.0278 79.1447 79.0818 80.1822 80.3311C81.0504 81.3687 82.4903 81.8981 84.4385 81.8981C86.8101 81.8981 88.61 81.3264 89.7746 80.2041C90.9604 79.0818 91.7863 77.1972 92.231 74.635C92.6968 72.0092 92.4851 70.0399 91.6381 68.8329C90.791 67.6259 89.2664 67.033 87.1277 67.033M88.3135 74.4656C88.0383 76.0325 87.6783 77.1125 87.1912 77.7477C86.7042 78.4042 85.9843 78.743 85.0949 78.743C84.2055 78.743 83.5279 78.4042 83.2527 77.7266C82.9986 77.0913 82.9986 76.0325 83.295 74.4656C83.5703 72.9198 83.9303 71.8398 84.3961 71.2046C84.8831 70.5481 85.5819 70.2093 86.5136 70.2093C87.4454 70.2093 88.0594 70.5481 88.3347 71.2469C88.5888 71.8822 88.5888 72.9621 88.3347 74.4867" fill="#01629E"/>
<path d="M75.1851 68.2824L72.03 72.5598C71.8818 72.7715 71.6065 72.8986 71.3524 72.8986H70.1666L71.5853 64.852C71.6912 64.2379 71.5853 63.645 71.2889 63.1579C70.8442 62.4592 70.1031 62.0356 69.2772 62.0356H68.2396L64.7881 81.644H68.642L69.6796 75.842H70.9924C71.3524 75.842 71.67 76.0537 71.7971 76.3925L73.237 80.1194C73.597 81.0299 74.4863 81.6652 75.4604 81.6652H77.9803L74.9522 74.8044C74.8251 74.5291 74.8675 74.1903 75.0581 73.9574L80.1613 67.4142H77.0485C76.3286 67.4142 75.651 67.753 75.2275 68.3247" fill="#01629E"/>
<path d="M40.288 46.3023C39.4621 45.2859 37.9587 44.7989 35.8412 44.7989C34.126 44.7989 32.4108 45.0106 30.865 45.413L30.3144 48.3775C31.3732 48.0599 32.7919 47.8905 34.5071 47.8905C35.6506 47.8905 36.3917 48.0599 36.8152 48.4199C37.2599 48.7799 37.387 49.3939 37.2176 50.2621L37.1117 50.9821H33.6389C31.9238 50.9821 30.6109 51.2997 29.7004 51.9562C28.811 52.5914 28.2393 53.5443 28.0063 54.7937C27.7311 56.2336 27.9216 57.4194 28.5569 58.2876C29.1922 59.1558 30.2721 59.6005 31.7755 59.6005C33.5119 59.6005 34.7612 59.0287 35.5235 57.9064L35.7988 57.4829L35.8412 57.61C36.2012 58.6476 37.0693 59.2828 38.0857 59.2828H39.568L41.0503 50.6856C41.4103 48.7587 41.1773 47.2976 40.3727 46.3447M36.7729 53.142L36.5188 54.8148C36.307 55.5136 35.9682 56.0218 35.4812 56.3606C35.0153 56.6994 34.3589 56.8688 33.5542 56.8688C32.7919 56.8688 32.2837 56.6994 32.0085 56.3606C31.7332 56.043 31.6485 55.556 31.7544 54.9419C31.9661 53.7349 32.7496 53.1208 34.0625 53.1208H36.7941L36.7729 53.142Z" fill="#01629E"/>
<path d="M26.1218 39.6533H25.0206L23.009 51.1939C22.7125 52.9091 22.2043 54.1584 21.4844 54.8784C20.7644 55.6195 19.7692 56.0007 18.541 56.0007C18.0116 56.0007 17.5034 55.9583 17.0164 55.8948L16 59.4734C16.72 59.6216 17.5458 59.6852 18.4563 59.6852C20.9127 59.6852 22.5643 59.1134 24.0042 57.737C25.3806 56.4453 26.3123 54.4125 26.7994 51.7021L28.4299 42.4061C28.5569 41.7073 28.3663 41.0085 27.9217 40.4791C27.477 39.9497 26.8205 39.6321 26.1218 39.6321" fill="#01629E"/>
<path d="M52.1887 45.9212L49.0336 50.1986C48.8642 50.4104 48.6101 50.5374 48.3348 50.5374H47.149L48.5678 42.4908C48.6736 41.8767 48.5678 41.2838 48.2713 40.7968C47.8266 40.098 47.0855 39.6745 46.2597 39.6745H45.2221L41.7705 59.2617H45.6244L46.662 53.4596H47.9749C48.3348 53.4596 48.6525 53.6714 48.7795 54.0102L50.2194 57.737C50.5794 58.6688 51.4688 59.2828 52.4428 59.2828H54.9627L51.9346 52.422C51.8076 52.1468 51.8499 51.8079 52.0405 51.575L57.1437 45.053H54.031C53.311 45.053 52.6334 45.3918 52.2099 45.9635" fill="#01629E"/>
<path d="M34.9098 62.8615C34.4651 62.2262 33.7452 61.8662 32.9829 61.8662H31.8394L31.1406 65.699H35.0369L35.2486 65.0214C35.5027 64.2802 35.3968 63.4967 34.931 62.8615" fill="#09AB8A"/>
<mask id="mask0_755_406" style="mask-type:luminance" maskUnits="userSpaceOnUse" x="59" y="27" width="11" height="9">
<path d="M62.9459 27.5833C62.4377 28.0492 62.1836 28.5362 62.2048 29.0444C62.2048 29.595 62.5224 30.1455 63.1577 30.6961C64.0258 31.4161 64.5764 31.8819 65.5081 32.8348L65.5928 32.9195C63.5812 32.9195 60.6166 32.9195 59.7061 35.0159L59.6426 35.1853H59.8332C63.8353 34.8465 65.0634 34.7618 68.9385 34.6559C68.9385 34.6559 68.9597 34.6559 68.9809 34.6559C69.1926 34.6347 69.3832 34.5077 69.4467 34.3594C69.5102 34.2112 69.4467 34.0418 69.3408 33.9148C68.6632 33.1736 66.8422 31.1831 64.2164 29.2562C63.7506 28.9174 63.2 28.3668 63.1577 27.6892V27.4563L62.9671 27.6045L62.9459 27.5833Z" fill="white"/>
</mask>
<g mask="url(#mask0_755_406)">
<path d="M60.5858 24.4875L57.3027 34.3973L68.4788 38.0999L71.7619 28.1902L60.5858 24.4875Z" fill="url(#paint0_linear_755_406)"/>
</g>
<mask id="mask1_755_406" style="mask-type:luminance" maskUnits="userSpaceOnUse" x="60" y="44" width="11" height="13">
<path d="M60.3833 44.5236H60.2139L60.2774 44.693C61.4209 47.0435 63.8772 46.9164 66.6935 46.7682H66.9688C66.0794 48.4622 65.8677 48.9069 65.063 50.368C64.2795 51.7868 63.8348 53.9467 66.1006 56.2336L66.397 56.5301L66.2912 56.1277C65.9665 54.9278 67.244 51.6174 70.1239 46.1965C70.505 45.4553 70.7591 44.9683 70.5897 44.6719C70.505 44.5024 70.3145 44.4177 69.9968 44.3966C68.684 44.3966 67.6887 44.3754 66.6935 44.3754C65.0418 44.3754 63.3902 44.4177 60.3621 44.5236" fill="white"/>
</mask>
<g mask="url(#mask1_755_406)">
<path d="M68.6371 40.1444L55.3408 46.7911L62.3189 60.7504L75.6151 54.1037L68.6371 40.1444Z" fill="url(#paint1_linear_755_406)"/>
</g>
<mask id="mask2_755_406" style="mask-type:luminance" maskUnits="userSpaceOnUse" x="73" y="51" width="12" height="10">
<path d="M80.1821 51.3844C80.1821 51.3844 80.0551 51.4691 79.9704 51.575C78.4881 53.9466 76.7941 56.8477 75.8835 58.5629C75.7565 58.7746 75.6718 58.9228 75.5871 59.0499C75.3542 59.3675 74.6977 60.151 73.5966 60.4898L73.2578 60.5957L73.5966 60.7016C74.0201 60.8286 74.4436 60.9133 74.8248 60.9345C74.9095 60.9345 74.973 60.9345 75.0365 60.9345C76.8364 60.9345 77.7893 59.7275 78.2128 58.9864C78.8269 57.8852 79.1869 57.2076 80.1186 55.7042L80.2245 55.5348C81.0926 58.0758 81.9185 60.4686 83.9725 60.638H84.1419L84.0995 60.4898C83.3796 58.1394 82.7867 56.1065 81.7067 53.5231C81.0079 51.8291 80.8385 51.4268 80.5844 51.3209C80.5421 51.3209 80.5209 51.3209 80.4786 51.3209C80.3727 51.3209 80.288 51.3632 80.1821 51.4268" fill="white"/>
</mask>
<g mask="url(#mask2_755_406)">
<path d="M84.1144 51.1034L73.0625 51.2924L73.2302 61.0952L84.282 60.9062L84.1144 51.1034Z" fill="url(#paint2_linear_755_406)"/>
</g>
<mask id="mask3_755_406" style="mask-type:luminance" maskUnits="userSpaceOnUse" x="89" y="47" width="7" height="11">
<path d="M89.2666 47.5941C89.0336 47.6999 88.9701 47.9752 89.076 48.314C90.1136 51.7868 90.4947 53.0785 91.0453 57.5465V57.8006L91.2359 57.5888C92.6758 55.7889 91.8923 52.7185 91.49 51.0668L91.4264 50.8762C92.1041 51.2574 92.7181 51.6597 93.5016 52.3373C94.031 52.8032 94.4969 52.9726 94.8992 52.8455C95.365 52.6973 95.725 52.1468 95.9368 51.215L96.0003 50.9398L95.7462 51.1092C95.3227 51.4268 94.8145 51.1092 94.4757 50.7704C93.2687 49.6481 91.85 48.6952 90.2195 47.9329C89.6054 47.6788 89.4572 47.5941 89.3725 47.5941C89.3301 47.5941 89.3089 47.5941 89.2878 47.6152" fill="white"/>
</mask>
<g mask="url(#mask3_755_406)">
<path d="M92.6907 44.064L83.8545 52.3792L92.2712 61.3233L101.107 53.0081L92.6907 44.064Z" fill="url(#paint3_linear_755_406)"/>
</g>
<mask id="mask4_755_406" style="mask-type:luminance" maskUnits="userSpaceOnUse" x="87" y="31" width="9" height="12">
<path d="M88.0805 32.0937C88.2075 33.4489 88.2499 33.8936 87.6781 36.2441C87.6146 36.4982 87.8899 36.9429 88.2287 37.1123C93.8189 39.7803 94.6871 41.5379 95.3647 42.9567V42.999L95.5765 42.9143V42.872C94.6448 40.0345 93.3107 38.6581 92.612 38.0863C91.6379 37.3452 90.7485 36.7946 90.1133 36.4135L89.8803 36.2864C90.1768 35.3759 90.4944 34.2536 88.271 32.009L88.0593 31.7972L88.1016 32.1149L88.0805 32.0937Z" fill="white"/>
</mask>
<g mask="url(#mask4_755_406)">
<path d="M93.0656 28.077L82.3984 35.2857L90.0932 46.6723L100.76 39.4636L93.0656 28.077Z" fill="url(#paint4_linear_755_406)"/>
</g>
<mask id="mask5_755_406" style="mask-type:luminance" maskUnits="userSpaceOnUse" x="56" y="25" width="41" height="38">
<path d="M76.4766 38.3616C76.6037 38.3616 76.7307 38.3616 76.8366 38.2981C77.3872 37.9169 77.1331 37.4934 77.006 37.2393C74.0838 33.3642 70.7382 30.1879 67.3713 28.0492C67.096 27.8586 66.969 27.668 66.9901 27.5198C67.0325 27.3716 67.2442 27.2445 67.5195 27.2022C67.8795 27.1387 68.4512 27.181 68.9806 27.4563C71.5005 29.0233 74.6344 30.9714 78.8906 36.3288C79.293 36.837 79.6529 36.9217 79.8859 36.9217C80.14 36.9217 80.3305 36.7523 80.3941 36.6464C82.0246 33.1101 82.8292 30.9502 82.5963 28.8539L82.6598 28.7903C83.4433 28.9597 84.7562 29.8491 84.7562 30.2726C84.8409 31.3102 84.9679 33.0678 83.0198 37.3028C82.681 38.0228 82.4692 38.5098 82.6386 38.9122C82.7445 39.1663 82.9986 39.3568 83.4221 39.5262C91.4052 41.8344 94.4968 44.6507 94.7509 46.3659C94.7932 46.7047 94.7085 46.98 94.4968 47.107C94.4544 47.1282 94.3909 47.1705 94.1791 47.0011C90.5793 44.0366 84.5868 41.3261 83.2951 42.0885C83.1468 42.1732 82.9774 42.3426 83.041 42.6814C83.0621 42.8084 83.1468 42.9566 83.168 43.0202C86.8525 50.3468 89.2453 58.5841 88.0807 59.9605C87.9324 60.151 87.7207 60.1934 87.4454 60.1087C87.3184 60.0663 87.0007 59.8969 86.8313 59.2193C86.2173 56.4665 85.0314 52.5703 83.9092 49.521C82.9139 46.8106 81.4952 43.5496 80.4152 43.3166C80.3941 43.3166 80.3517 43.3166 80.3305 43.3166C80.1188 43.3166 79.9494 43.4013 79.8012 43.6131C79.8012 43.6131 79.8012 43.6131 79.8012 43.6343C76.2155 49.7469 73.8297 53.8902 72.6439 56.0642C72.6439 56.0642 72.4957 56.2971 72.4322 56.403C72.1569 56.7418 71.691 56.89 71.2252 56.7842C70.6958 56.6571 70.2935 56.2336 70.1876 55.7042C70.1029 55.2595 70.2511 54.9419 70.3147 54.8148C71.2252 53.1208 72.2416 51.4268 73.2157 49.7963C74.7191 47.2764 76.2649 44.693 77.5142 41.9826C77.5989 41.792 77.5778 41.5379 77.4507 41.305C77.366 41.1356 77.1331 40.8391 76.6249 40.7544C71.9875 40.4156 68.3242 40.2462 60.0023 40.7544C59.9176 40.7544 59.8541 40.7544 59.8117 40.7544C59.2824 40.6909 58.9224 40.4156 58.7742 39.9921C58.6471 39.5898 58.7742 39.1451 59.1341 38.8486C59.3459 38.6581 59.6212 38.531 59.9388 38.5098C64.9573 38.1922 69.997 37.9381 76.3496 38.3828H76.3919L76.4766 38.3616ZM65.6138 26.1858C65.0632 26.4399 64.7667 26.7999 64.7244 27.2022C64.682 27.6892 65.0208 28.1974 65.6985 28.7056C67.4772 29.9973 70.1453 31.9666 73.5545 36.0747C63.6868 35.8417 58.9436 36.6252 58.9012 36.6252C57.6942 37.0275 56.826 37.8957 56.5508 38.9969C56.2967 39.9921 56.5508 41.0297 57.2284 41.792C58.2236 42.8719 59.5365 42.8719 59.9811 42.8508C66.2067 42.5331 69.2982 42.512 74.0627 42.7661C74.105 42.7661 74.1685 42.7661 74.2109 42.7661C67.9642 53.8408 67.943 54.0737 67.8372 55.0478C67.6889 56.2124 68.2183 57.4829 69.1924 58.33C70.1241 59.1346 71.3099 59.4311 72.4745 59.1346C73.7662 58.7958 74.3591 57.8217 74.5497 57.4829C76.879 53.3326 77.4719 52.3585 80.6482 47.0435C82.1304 50.1351 83.8033 53.6714 85.3702 59.9816C85.582 60.7863 85.8573 61.231 86.0055 61.4639C86.429 62.0992 87.0007 62.4803 87.6148 62.5015C87.7207 62.5015 87.8054 62.5015 87.9113 62.5015C88.7371 62.3956 89.4147 61.6545 89.817 60.4687C90.177 59.4099 90.0923 58.4994 90.05 58.0547C89.4994 54.5396 88.9489 50.8974 86.2384 44.7354C87.996 45.3283 91.5111 46.5565 94.158 48.9281C94.7509 49.4575 94.8991 49.4575 95.2802 49.4363C95.4708 49.4363 95.619 49.3093 95.7461 49.0975C96.1696 48.3987 96.2331 46.4082 95.0897 44.1848C94.645 43.3166 94.2638 42.9355 94.0097 42.7025C92.4851 41.432 90.177 39.5474 85.4126 37.9804C86.0267 36.3923 87.4454 32.7713 86.7678 31.0984C86.429 30.2514 85.0738 29.1927 83.9092 28.4515C82.7445 27.7104 81.347 27.0751 80.8387 27.2657C80.7752 27.2657 80.7117 27.3292 80.6693 27.3716C80.6693 27.3716 80.6482 27.3928 80.627 27.4139H80.5846V27.6469C80.6693 28.8539 80.754 29.9126 79.1235 33.6818C76.4343 30.6538 73.4698 28.261 70.3147 26.5881C69.2559 26.0587 68.1971 25.8893 67.3078 25.8893C66.5878 25.8893 65.9949 26.0164 65.6138 26.1646" fill="white"/>
</mask>
<g mask="url(#mask5_755_406)">
<path d="M78.0805 6.02382L38.04 42.5348L74.3938 82.4034L114.434 45.8924L78.0805 6.02382Z" fill="url(#paint5_radial_755_406)"/>
</g>
<mask id="mask6_755_406" style="mask-type:luminance" maskUnits="userSpaceOnUse" x="68" y="25" width="12" height="6">
<path d="M68.8959 25.0635H68.8535V25.1693V25.2752H68.8747C69.8064 25.3811 72.3051 25.6564 77.2601 29.7009C77.9377 30.2514 78.2977 30.5691 78.5729 30.5691H78.6576C78.6576 30.5691 78.8482 30.4844 78.9117 30.3573C79.4835 28.5574 79.6529 28.028 79.547 26.6728V26.5881L79.4623 26.5669C78.5518 26.2916 78.0224 26.2705 77.6836 26.4822C77.3236 26.7151 77.2389 27.2445 77.133 27.9645C76.6672 27.6469 75.5449 26.8845 74.0626 26.0799C73.2791 25.6352 71.7757 24.9999 69.8911 24.9999C69.5523 24.9999 69.2135 24.9999 68.8535 25.0635" fill="white"/>
</mask>
<g mask="url(#mask6_755_406)">
<path d="M77.8024 20.9305L66.7686 25.9776L70.741 34.6622L81.7749 29.6152L77.8024 20.9305Z" fill="url(#paint6_linear_755_406)"/>
</g>
</g>
</g>
<rect x="1" y="1" width="110" height="110" rx="9" stroke="black" stroke-opacity="0.1" stroke-width="2"/>
<defs>
<linearGradient id="paint0_linear_755_406" x1="69.8956" y1="28.8663" x2="61.2723" y2="26.0095" gradientUnits="userSpaceOnUse">
<stop stop-color="#BAD647"/>
<stop offset="1" stop-color="#73BC56"/>
</linearGradient>
<linearGradient id="paint1_linear_755_406" x1="67.236" y1="42.4851" x2="61.1182" y2="45.5434" gradientUnits="userSpaceOnUse">
<stop stop-color="#08AB8A"/>
<stop offset="1" stop-color="#0A9077"/>
</linearGradient>
<linearGradient id="paint2_linear_755_406" x1="72.0141" y1="53.3952" x2="72.1677" y2="62.3722" gradientUnits="userSpaceOnUse">
<stop stop-color="#BAD647"/>
<stop offset="1" stop-color="#73BC56"/>
</linearGradient>
<linearGradient id="paint3_linear_755_406" x1="94.4998" y1="40.1441" x2="99.4047" y2="45.3563" gradientUnits="userSpaceOnUse">
<stop stop-color="#08AB8A"/>
<stop offset="1" stop-color="#0A9077"/>
</linearGradient>
<linearGradient id="paint4_linear_755_406" x1="88.3949" y1="37.3439" x2="91.6758" y2="35.1267" gradientUnits="userSpaceOnUse">
<stop stop-color="#BAD647"/>
<stop offset="1" stop-color="#73BC56"/>
</linearGradient>
<radialGradient id="paint5_radial_755_406" cx="0" cy="0" r="1" gradientUnits="userSpaceOnUse" gradientTransform="translate(87.793 34.4771) rotate(-132.36) scale(21.5565 13.2981)">
<stop stop-color="#2BB6EA"/>
<stop offset="1" stop-color="#1083B8"/>
</radialGradient>
<linearGradient id="paint6_linear_755_406" x1="76.3733" y1="31.5921" x2="74.18" y2="26.7972" gradientUnits="userSpaceOnUse">
<stop stop-color="#08AB8A"/>
<stop offset="1" stop-color="#0A9077"/>
</linearGradient>
<clipPath id="clip0_755_406">
<rect x="2" y="2" width="108" height="108" rx="8" fill="white"/>
</clipPath>
<clipPath id="clip1_755_406">
<rect width="80" height="62.3614" fill="white" transform="translate(16 25)"/>
</clipPath>
</defs>
</svg>
