<svg width="112" height="112" viewBox="0 0 112 112" fill="none" xmlns="http://www.w3.org/2000/svg">
<g clip-path="url(#clip0_755_412)">
<rect x="2" y="2" width="108" height="108" rx="8" fill="white"/>
<path fill-rule="evenodd" clip-rule="evenodd" d="M20.0234 51.4318C16.6311 55.4254 13.6238 61.7008 18.7335 65.8214C20.0684 66.8979 24.8456 69.7912 35.0792 67.2844L36.6479 61.0158C36.6479 61.0158 32.1668 62.2676 27.8914 62.4004C25.0366 62.5608 22.8275 62.1202 21.2589 61.2559C19.9728 60.5472 19.1138 59.5553 18.6785 58.3749C18.2456 57.201 18.2355 55.8469 18.6445 54.4062C18.9172 53.4453 19.3772 52.4443 20.0234 51.4318Z" fill="#ED2324"/>
<path fill-rule="evenodd" clip-rule="evenodd" d="M40.4248 44.0397C38.4805 43.9307 31.4402 43.8095 25.3146 47.164C22.4401 48.738 20.0412 51.3426 19.1328 54.5432C18.7534 55.8801 18.7595 57.1279 19.1549 58.2001C19.5057 59.1515 20.1662 59.9698 21.1389 60.5945C21.2505 60.0314 23.0765 51.6208 32.8906 50.1795L40.4248 44.0397Z" fill="#ED2324"/>
<path fill-rule="evenodd" clip-rule="evenodd" d="M39.387 50.2132L40.9279 44.1526L33.6473 50.0856C35.3307 49.9073 37.2334 49.9266 39.387 50.2132Z" fill="#FDB813"/>
<path fill-rule="evenodd" clip-rule="evenodd" d="M38.9558 57.2832L39.5465 55.0786C39.7953 53.784 41.0633 53.0962 42.2933 53.0962H45.0335C46.1785 53.1346 46.8733 53.8763 46.5876 55.0354L46.0266 57.3102C45.7371 58.4842 44.8534 59.1935 43.6198 59.1935H40.7698C39.6349 59.1935 38.7441 58.5502 38.9558 57.2832ZM40.6953 57.0227L41.1756 55.2299C41.1756 55.2299 41.3162 54.6868 41.8892 54.7011H44.403C44.403 54.7011 45.0046 54.6367 44.8399 55.2741L44.3923 56.9443C44.2994 57.2911 44.1209 57.5802 43.7243 57.5802H41.2499C40.8383 57.5928 40.5941 57.467 40.6953 57.0227Z" fill="#1D1819"/>
<path fill-rule="evenodd" clip-rule="evenodd" d="M31.0487 57.2832L31.6394 55.0786C31.8882 53.784 33.1562 53.0962 34.3863 53.0962H37.1264C38.2714 53.1346 38.9661 53.8763 38.6804 55.0354L38.5513 55.5593H36.8563L36.9327 55.2741C37.0975 54.6367 36.4959 54.7011 36.4959 54.7011H33.9821C33.4091 54.6868 33.2686 55.2299 33.2686 55.2299L32.7882 57.0227C32.687 57.467 32.9312 57.5928 33.3428 57.5802H35.8172C36.2138 57.5802 36.3923 57.2911 36.4852 56.9443L36.5187 56.8193H38.2406L38.1195 57.3102C37.83 58.4842 36.9463 59.1935 35.7127 59.1935H32.8626C31.7278 59.1935 30.837 58.5502 31.0487 57.2832Z" fill="#1D1819"/>
<path fill-rule="evenodd" clip-rule="evenodd" d="M48.0359 59.1935H46.3509L47.9369 53.0581H49.9192L51.0867 57.2873L54.3025 53.0472H56.6373L55.1065 59.1815H53.4545L54.4126 55.426L51.5332 59.1831H49.9619L48.9752 55.4932L48.0359 59.1935Z" fill="#1D1819"/>
<path fill-rule="evenodd" clip-rule="evenodd" d="M57.6016 59.1935H55.9166L57.5025 53.0581H59.485L60.6524 57.2873L63.8682 53.0472H66.203L64.6722 59.1815H63.0202L63.9783 55.426L61.0989 59.1831H59.5276L58.5409 55.4932L57.6016 59.1935Z" fill="#1D1819"/>
<path fill-rule="evenodd" clip-rule="evenodd" d="M81.9028 53.0705H74.561L74.1579 54.6681H76.9117L75.7747 59.1935H77.5505L78.7307 54.6567H81.4702L81.9028 53.0705Z" fill="#1D1819"/>
<path fill-rule="evenodd" clip-rule="evenodd" d="M66.0398 57.2831L67.0968 53.0649H68.7665L67.7793 57.0226C67.6781 57.4669 67.9223 57.5928 68.3339 57.5802H70.36C70.7566 57.5802 70.9413 57.2926 71.028 56.9443L71.9943 53.0649H73.6963L72.6623 57.3102C72.3763 58.485 71.4891 59.1935 70.2555 59.1935H67.8537C66.7189 59.1935 65.828 58.5501 66.0398 57.2831Z" fill="#1D1819"/>
<path fill-rule="evenodd" clip-rule="evenodd" d="M88.9565 53.0418H82.7586L81.1834 59.1936H87.3662L87.7843 57.6225H83.2232L83.4285 56.8332L86.9101 56.837L87.2902 55.4687L83.7833 55.4693L83.9912 54.6701L88.5065 54.6705L88.9565 53.0418Z" fill="#1D1819"/>
<path fill-rule="evenodd" clip-rule="evenodd" d="M89.9007 59.1935H88.2276L89.8204 53.0149H94.5094C94.5094 53.0149 96.2576 52.9237 95.9675 54.5107L95.605 56.0495C95.605 56.0495 95.4707 56.7207 94.7618 56.9382C94.7618 56.9382 95.3445 57.1739 95.1084 57.9652L94.7997 59.1645H93.1504L93.4284 58.0619C93.5214 57.693 93.3698 57.5781 93.0286 57.5811H90.308L89.9007 59.1935ZM90.6315 56.2133L91.0484 54.6253H93.899C93.899 54.6253 94.3046 54.5967 94.2246 54.9623C94.165 55.2344 94.0613 55.6165 94.0168 55.7953C93.9504 56.0614 93.8188 56.2027 93.5105 56.219C93.1449 56.2304 90.6315 56.2133 90.6315 56.2133Z" fill="#1D1819"/>
<path fill-rule="evenodd" clip-rule="evenodd" d="M92.3445 63.8242C92.4062 63.8065 92.4681 63.7889 92.53 63.7715C92.5985 63.7522 92.6671 63.733 92.7357 63.714C92.7659 63.7057 92.7973 63.6984 92.8254 63.6886L92.8309 63.6864L92.8386 63.6843C92.8707 63.6756 92.9299 63.6555 92.9499 63.6294C92.9678 63.606 92.9885 63.5753 92.9959 63.5474L93.1485 62.9655C93.1529 62.949 93.1537 62.9316 93.1525 62.9146C93.1519 62.9059 93.1457 62.8977 93.1396 62.8914C93.1236 62.8745 93.0925 62.8611 93.0701 62.8529C93.022 62.8353 92.9494 62.833 92.8979 62.833C92.8411 62.833 92.7766 62.8367 92.7228 62.8537C92.6899 62.864 92.6539 62.8786 92.6271 62.8993C92.6116 62.9113 92.5933 62.9275 92.5844 62.9442C92.5744 62.9627 92.5653 62.9826 92.5601 63.0027L92.3445 63.8242ZM63.8461 62.4106C63.9197 62.3793 63.9969 62.3548 64.0753 62.335C64.2151 62.2997 64.3648 62.29 64.5099 62.29C64.6703 62.29 64.8619 62.3012 65.0099 62.3611C65.1104 62.4017 65.2096 62.4592 65.2712 62.544C65.3217 62.6136 65.3505 62.6916 65.3472 62.7748C65.3452 62.8268 65.3415 62.8798 65.3281 62.9304L64.6078 65.6277H63.932L64.6428 62.9655C64.6472 62.949 64.648 62.9316 64.6468 62.9146C64.6462 62.9059 64.6398 62.8976 64.6337 62.8913C64.6174 62.8745 64.5857 62.861 64.563 62.8529C64.5141 62.8353 64.4402 62.833 64.3878 62.833C64.3291 62.833 64.2603 62.8365 64.2046 62.8537C64.1734 62.8633 64.1373 62.8775 64.1123 62.8974C64.0961 62.9103 64.0784 62.9267 64.0688 62.9442C64.0588 62.9627 64.0494 62.9826 64.044 63.0027L63.3431 65.6277H62.6623L63.3731 62.9655C63.3776 62.949 63.3783 62.9316 63.3772 62.9146C63.3766 62.9059 63.3701 62.8976 63.364 62.8913C63.3477 62.8745 63.316 62.861 63.2933 62.8529C63.2444 62.8353 63.1705 62.833 63.1181 62.833C63.0604 62.833 62.9947 62.8367 62.9399 62.8537C62.9065 62.864 62.8697 62.8787 62.8425 62.8993C62.8268 62.9113 62.8082 62.9274 62.7991 62.9443C62.7891 62.9627 62.7798 62.9826 62.7744 63.0027L62.0734 65.6277H61.3926L62.1205 62.9018C62.1346 62.8491 62.1594 62.797 62.1838 62.7478C62.2258 62.6628 62.2966 62.5905 62.3741 62.5304C62.4725 62.4541 62.5932 62.3999 62.7145 62.3595C62.8803 62.3042 63.0689 62.29 63.2453 62.29C63.3807 62.29 63.53 62.2978 63.6597 62.3357C63.7239 62.3545 63.7881 62.3784 63.8461 62.4106ZM39.3482 64.3463C39.3286 64.352 39.3089 64.3573 39.2896 64.3617L39.2092 64.3835L39.2048 64.3844C39.1746 64.3908 39.1453 64.4009 39.118 64.4144C39.0937 64.4264 39.0714 64.4426 39.0512 64.4598C39.0384 64.4709 39.0316 64.4865 39.0274 64.502L38.732 65.6277H38.0629L38.93 62.324H39.5991L39.2048 63.8262C39.2272 63.8197 39.2495 63.8131 39.2717 63.8064C39.3241 63.7904 39.3765 63.7747 39.429 63.7593C39.4774 63.745 39.5259 63.7312 39.5746 63.718L39.6991 63.6844C39.733 63.6746 39.788 63.6549 39.8101 63.6272C39.828 63.605 39.8497 63.5743 39.8568 63.5474L40.1779 62.324H40.8421L40.4968 63.6398C40.466 63.7572 40.3994 63.8612 40.3135 63.9511C40.2323 64.0362 40.1287 64.099 40.0171 64.1456L40.222 65.6277H39.5242L39.3482 64.3463ZM41.5791 63.6959H42.4615L42.3146 64.2558H41.4323L41.2417 64.9819C41.233 65.0149 41.2334 65.0465 41.2551 65.0754C41.275 65.1019 41.3112 65.106 41.3435 65.106H42.3059L42.169 65.6277H41.1022C41.004 65.6277 40.9018 65.6138 40.8138 65.5705C40.7412 65.5348 40.6789 65.4861 40.6336 65.4226C40.5911 65.3628 40.5651 65.2962 40.5553 65.2257C40.5457 65.157 40.5495 65.0883 40.567 65.0213L41.1234 62.9018C41.1419 62.831 41.1753 62.7638 41.2164 62.7019C41.2626 62.6323 41.3207 62.5704 41.3872 62.5167C41.4586 62.4589 41.5401 62.4131 41.6278 62.3789C41.7257 62.3406 41.8305 62.324 41.9371 62.324H43.036L42.8991 62.8457H41.9688C41.9188 62.8457 41.8772 62.8582 41.8389 62.8882C41.7992 62.9192 41.7734 62.956 41.7611 63.0027L41.5791 63.6959ZM46.1538 63.6959H47.0361L46.8892 64.2558H46.0069L45.8163 64.9819C45.8076 65.0149 45.808 65.0465 45.8297 65.0754C45.8497 65.1019 45.8858 65.106 45.9181 65.106H46.8805L46.7436 65.6277H45.6769C45.5787 65.6277 45.4764 65.6138 45.3884 65.5705C45.3158 65.5348 45.2535 65.4861 45.2082 65.4226C45.1657 65.3628 45.1397 65.2962 45.1299 65.2257C45.1203 65.157 45.1241 65.0883 45.1416 65.0213L45.6979 62.9018C45.7165 62.831 45.7499 62.7638 45.791 62.7019C45.8373 62.6323 45.8953 62.5704 45.9619 62.5167C46.0333 62.4589 46.1147 62.4131 46.2024 62.3789C46.3003 62.3407 46.4051 62.324 46.5117 62.324H47.6106L47.4737 62.8457H46.5435C46.4934 62.8457 46.4518 62.8582 46.4135 62.8882C46.3738 62.9192 46.348 62.956 46.3357 63.0027L46.1538 63.6959ZM49.0903 62.85L48.3613 65.6277H47.697L48.426 62.85H47.802L47.9401 62.324H49.8522L49.7142 62.85H49.0903ZM54.8843 63.1048L54.9299 62.9316C54.9342 62.915 54.9349 62.8976 54.9338 62.8807C54.9332 62.872 54.927 62.8638 54.921 62.8574C54.9049 62.8405 54.8738 62.827 54.8514 62.8189C54.8033 62.8014 54.7307 62.799 54.6792 62.799C54.6224 62.799 54.5579 62.8028 54.504 62.8198C54.4711 62.8301 54.4351 62.8447 54.4083 62.8654C54.3928 62.8773 54.3746 62.8935 54.3657 62.9103C54.3557 62.9287 54.3466 62.9485 54.3413 62.9687L53.8219 64.948C53.8171 64.9662 53.8155 64.9853 53.8158 65.0041C53.8158 65.0134 53.8216 65.0224 53.8276 65.0295C53.8406 65.0453 53.8687 65.0579 53.8883 65.0654C53.933 65.0823 53.9991 65.0848 54.0471 65.0848C54.1075 65.0848 54.1781 65.0813 54.2355 65.0637C54.2712 65.0528 54.3109 65.038 54.3412 65.0174C54.3566 65.007 54.3736 64.9933 54.3828 64.9777C54.3917 64.9627 54.4016 64.9445 54.4059 64.9278L54.4439 64.7833H55.1131L55.052 65.0159C55.0378 65.0696 55.0137 65.1224 54.9891 65.1726C54.9482 65.2556 54.8803 65.3268 54.8065 65.3863C54.7109 65.4635 54.5921 65.518 54.473 65.5583C54.31 65.6135 54.1247 65.6277 53.9514 65.6277C53.7938 65.6277 53.6054 65.6165 53.46 65.5567C53.3612 65.5161 53.2639 65.459 53.2019 65.3753C53.1503 65.3058 53.1203 65.2271 53.1235 65.143C53.1255 65.091 53.1292 65.038 53.1424 64.9873L53.6987 62.8678C53.7124 62.8152 53.7368 62.7631 53.7608 62.7137C53.8022 62.6288 53.8718 62.5566 53.9479 62.4965C54.0445 62.4201 54.1632 62.3659 54.2825 62.3255C54.4455 62.2703 54.6308 62.256 54.8042 62.256C54.9618 62.256 55.1501 62.2672 55.2955 62.3271C55.3943 62.3678 55.4919 62.4252 55.5523 62.51C55.602 62.5796 55.6303 62.6576 55.6271 62.7408C55.6251 62.7929 55.6215 62.8459 55.6082 62.8965L55.5535 63.1048H54.8843ZM60.125 62.4106C60.1985 62.3793 60.2757 62.3548 60.3542 62.335C60.4939 62.2997 60.6436 62.29 60.7887 62.29C60.9491 62.29 61.1408 62.3012 61.2887 62.3611C61.3893 62.4017 61.4885 62.4592 61.55 62.544C61.6006 62.6136 61.6294 62.6916 61.6261 62.7748C61.624 62.8268 61.6204 62.8798 61.6069 62.9304L60.8867 65.6277H60.2108L60.9217 62.9655C60.9261 62.949 60.9268 62.9316 60.9257 62.9146C60.9251 62.9059 60.9186 62.8976 60.9125 62.8913C60.8963 62.8745 60.8645 62.861 60.8418 62.8529C60.7929 62.8353 60.719 62.833 60.6665 62.833C60.6078 62.833 60.5392 62.8365 60.4834 62.8537C60.4522 62.8633 60.4161 62.8775 60.3911 62.8974C60.3749 62.9103 60.3572 62.9267 60.3477 62.9442C60.3376 62.9627 60.3283 62.9826 60.3229 63.0027L59.6219 65.6277H58.9411L59.6519 62.9655C59.6564 62.949 59.6572 62.9316 59.656 62.9146C59.6554 62.9059 59.6489 62.8976 59.6428 62.8913C59.6266 62.8745 59.5948 62.861 59.5722 62.8529C59.5232 62.8353 59.4494 62.833 59.397 62.833C59.3392 62.833 59.2735 62.8367 59.2188 62.8537C59.1853 62.864 59.1485 62.8787 59.1214 62.8993C59.1056 62.9113 59.0871 62.9274 59.0779 62.9443C59.0679 62.9627 59.0586 62.9826 59.0532 63.0027L58.3523 65.6277H57.6715L58.3993 62.9018C58.4134 62.8491 58.4382 62.797 58.4627 62.7478C58.5047 62.6628 58.5755 62.5905 58.6529 62.5304C58.7513 62.4541 58.872 62.3999 58.9933 62.3595C59.1592 62.3042 59.3477 62.29 59.524 62.29C59.6595 62.29 59.8088 62.2978 59.9385 62.3357C60.0028 62.3545 60.0669 62.3784 60.125 62.4106ZM67.1902 65.0714C67.1771 65.1059 67.1613 65.1397 67.1451 65.1726C67.1043 65.2556 67.0364 65.3267 66.9626 65.3863C66.8669 65.4635 66.7482 65.518 66.6291 65.5583C66.4661 65.6135 66.2808 65.6277 66.1075 65.6277C65.9499 65.6277 65.7614 65.6165 65.6161 65.5567C65.5172 65.516 65.4198 65.4585 65.3593 65.3738C65.3096 65.3042 65.2813 65.2262 65.2845 65.1429C65.2865 65.0909 65.2901 65.038 65.3033 64.9873L66.0112 62.29H66.6804L65.9828 64.948C65.978 64.9662 65.9765 64.9853 65.9766 65.0042C65.9768 65.0133 65.9827 65.0224 65.9886 65.0295C66.0015 65.0453 66.0297 65.0579 66.0493 65.0654C66.0939 65.0822 66.16 65.0848 66.2081 65.0848C66.2685 65.0848 66.339 65.0813 66.3966 65.0637C66.4321 65.0528 66.4719 65.038 66.5021 65.0174C66.5175 65.007 66.5345 64.9933 66.5437 64.9777C66.5526 64.9627 66.5625 64.9444 66.5669 64.9278L67.2592 62.29H67.9283L67.1984 65.0714H67.1902ZM69.3626 62.85L68.6336 65.6277H67.9693L68.6983 62.85H68.0743L68.2124 62.324H70.1246L69.9865 62.85H69.3626ZM70.7542 63.6959H71.6366L71.4896 64.2558H70.6073L70.4167 64.9819C70.4081 65.0149 70.4084 65.0465 70.4302 65.0754C70.4501 65.1019 70.4862 65.106 70.5185 65.106H71.4809L71.344 65.6277H70.2773C70.1791 65.6277 70.0769 65.6138 69.9888 65.5705C69.9163 65.5348 69.8539 65.4861 69.8088 65.4226C69.7662 65.3628 69.7402 65.2962 69.7303 65.2257C69.7208 65.157 69.7245 65.0883 69.7421 65.0213L70.2984 62.9018C70.3169 62.831 70.3504 62.7638 70.3915 62.7019C70.4377 62.6323 70.4958 62.5704 70.5623 62.5167C70.6337 62.4589 70.7152 62.4131 70.8029 62.3789C70.9008 62.3406 71.0055 62.324 71.1122 62.324H72.2111L72.0742 62.8457H71.1439C71.0938 62.8457 71.0522 62.8582 71.0139 62.8882C70.9742 62.9192 70.9485 62.956 70.9362 63.0027L70.7542 63.6959ZM75.3032 65.6277L76.1703 62.324H76.8346L75.9675 65.6277H75.3032ZM78.2216 65.6277H77.5524L78.2511 62.9655C78.2555 62.949 78.2562 62.9316 78.2551 62.9146C78.2545 62.9048 78.2489 62.8962 78.2423 62.8888C78.2289 62.8736 78.1956 62.8602 78.1762 62.8533C78.1261 62.8355 78.054 62.833 78.0004 62.833C77.9437 62.833 77.8791 62.8367 77.8253 62.8537C77.7924 62.864 77.7563 62.8786 77.7296 62.8993C77.7141 62.9113 77.6959 62.9275 77.6869 62.9442C77.677 62.9627 77.6679 62.9826 77.6626 63.0027L76.9737 65.6277H76.3094L77.0248 62.9018C77.0386 62.8491 77.063 62.797 77.087 62.7478C77.1279 62.6637 77.1957 62.5917 77.2703 62.5315C77.3659 62.4543 77.4847 62.3998 77.6037 62.3595C77.7667 62.3042 77.9521 62.29 78.1253 62.29C78.283 62.29 78.4714 62.3012 78.6168 62.3611C78.7156 62.4017 78.8131 62.4592 78.8735 62.544C78.9232 62.6136 78.9515 62.6916 78.9483 62.7748C78.9463 62.8268 78.9428 62.8798 78.9295 62.9304L78.2216 65.6277ZM85.2931 65.6277H84.6239L85.3226 62.9655C85.3269 62.949 85.3276 62.9316 85.3265 62.9146C85.3259 62.9048 85.3204 62.8963 85.3137 62.8888C85.3003 62.8736 85.2671 62.8602 85.2477 62.8533C85.1975 62.8355 85.1254 62.833 85.0719 62.833C85.0151 62.833 84.9506 62.8367 84.8968 62.8537C84.8639 62.864 84.8279 62.8787 84.8011 62.8993C84.7856 62.9113 84.7673 62.9274 84.7584 62.9442C84.7485 62.9627 84.7394 62.9826 84.7341 63.0027L84.0451 65.6277H83.3808L84.0963 62.9018C84.1101 62.8491 84.1344 62.797 84.1584 62.7478C84.1993 62.6637 84.2671 62.5917 84.3417 62.5315C84.4373 62.4543 84.5561 62.3998 84.6751 62.3595C84.8382 62.3042 85.0235 62.29 85.1969 62.29C85.3545 62.29 85.5428 62.3012 85.6882 62.3611C85.7871 62.4017 85.8846 62.4592 85.945 62.544C85.9947 62.6136 86.023 62.6916 86.0198 62.7748C86.0178 62.8268 86.0142 62.8798 86.0009 62.9304L85.2931 65.6277ZM86.9542 63.6959H87.8365L87.6896 64.2558H86.8073L86.6167 64.9819C86.6081 65.0149 86.6084 65.0465 86.6302 65.0753C86.6501 65.1019 86.6861 65.106 86.7185 65.106H87.6809L87.544 65.6277H86.4773C86.379 65.6277 86.2768 65.6138 86.1888 65.5705C86.1162 65.5348 86.0539 65.4861 86.0087 65.4226C85.9661 65.3628 85.9401 65.2962 85.9303 65.2257C85.9207 65.157 85.9245 65.0883 85.9421 65.0213L86.4983 62.9018C86.5169 62.831 86.5504 62.7638 86.5914 62.7019C86.6377 62.6323 86.6958 62.5704 86.7623 62.5167C86.8337 62.4589 86.9152 62.4131 87.0028 62.3789C87.1007 62.3407 87.2054 62.324 87.3121 62.324H88.411L88.2742 62.8457H87.3439C87.2938 62.8457 87.2522 62.8582 87.2139 62.8882C87.1741 62.9192 87.1484 62.956 87.1361 63.0027L86.9542 63.6959ZM89.2057 64.3079L88.8643 64.2005L88.8616 64.1992L88.8498 64.1959C88.6935 64.1523 88.527 64.0774 88.4486 63.938C88.3844 63.8239 88.3711 63.7008 88.4035 63.5772L88.5897 62.8678C88.6034 62.8152 88.6278 62.7631 88.6519 62.7137C88.6927 62.6297 88.7605 62.5578 88.8351 62.4975C88.9307 62.4203 89.0496 62.3659 89.1687 62.3255C89.3316 62.2704 89.517 62.256 89.6903 62.256C89.8478 62.256 90.0362 62.2673 90.1815 62.3271C90.2804 62.3678 90.378 62.4252 90.4384 62.51C90.4881 62.5796 90.5164 62.6576 90.5132 62.7408C90.5113 62.7929 90.5076 62.8459 90.4944 62.8965L90.4397 63.1048H89.7705L89.816 62.9316C89.8203 62.915 89.8211 62.8976 89.82 62.8807C89.8194 62.872 89.8132 62.8638 89.8071 62.8574C89.791 62.8405 89.7599 62.827 89.7375 62.8189C89.6894 62.8014 89.6168 62.799 89.5653 62.799C89.5085 62.799 89.444 62.8028 89.3901 62.8198C89.3572 62.8301 89.3213 62.8447 89.2945 62.8654C89.2791 62.8772 89.2607 62.8935 89.2517 62.9103C89.2419 62.9287 89.2328 62.9485 89.2275 62.9687L89.077 63.5422C89.0709 63.5651 89.0749 63.5916 89.0812 63.6145C89.085 63.6285 89.1344 63.6471 89.147 63.6513L89.1553 63.6539L89.1633 63.6578C89.1715 63.6619 89.1813 63.6651 89.1902 63.6679C89.2082 63.6736 89.2262 63.6792 89.2443 63.6848C89.3068 63.7045 89.3693 63.7245 89.4317 63.7446C89.4965 63.7654 89.5609 63.7876 89.6244 63.8118C89.6798 63.825 89.7352 63.8419 89.7863 63.8661C89.8491 63.8869 89.9068 63.9182 89.9543 63.9619C89.9985 64.0027 90.0337 64.0501 90.0603 64.102C90.1147 64.2084 90.1203 64.3216 90.0909 64.434L89.9381 65.0159C89.924 65.0696 89.8998 65.1224 89.8752 65.1726C89.8344 65.2556 89.7664 65.3268 89.6926 65.3863C89.5971 65.4635 89.4782 65.518 89.3591 65.5583C89.1961 65.6135 89.0109 65.6277 88.8375 65.6277C88.68 65.6277 88.4915 65.6165 88.3461 65.5567C88.2473 65.516 88.1498 65.4586 88.0893 65.3738C88.0396 65.3042 88.0113 65.2262 88.0145 65.143C88.0165 65.091 88.0202 65.038 88.0334 64.9873L88.087 64.7833H88.7513L88.708 64.9479C88.7033 64.9662 88.7016 64.9853 88.7018 65.0042C88.7019 65.0134 88.7079 65.0224 88.7138 65.0296C88.7267 65.0453 88.7548 65.058 88.7744 65.0654C88.8191 65.0823 88.8852 65.0848 88.9332 65.0848C88.9937 65.0848 89.0641 65.0813 89.1217 65.0637C89.1573 65.0528 89.197 65.038 89.2274 65.0174C89.2427 65.007 89.2597 64.9932 89.2689 64.9777C89.2778 64.9626 89.2877 64.9445 89.292 64.9278L89.4135 64.4649C89.4195 64.4422 89.4152 64.4129 89.4102 64.3903C89.4073 64.3772 89.36 64.3595 89.3484 64.3557C89.3263 64.3485 89.3042 64.3418 89.2821 64.3349C89.2562 64.3269 89.2307 64.318 89.2057 64.3079ZM90.1976 65.6277L91.0646 62.324H91.7289L90.8619 65.6277H90.1976ZM43.732 63.8233C43.7566 63.8164 43.7811 63.8096 43.8058 63.8029C43.8575 63.789 43.909 63.7744 43.9603 63.7593C44.0086 63.745 44.0572 63.7312 44.1058 63.718C44.1268 63.7124 44.1479 63.7067 44.1689 63.701C44.1866 63.6962 44.2041 63.6911 44.2223 63.6853C44.2582 63.6749 44.3142 63.6552 44.3366 63.6272C44.3526 63.6072 44.3757 63.576 44.3821 63.5516L44.5359 62.9655C44.5403 62.949 44.541 62.9316 44.5398 62.9145C44.5393 62.9059 44.5329 62.8976 44.5269 62.8913C44.511 62.8745 44.4798 62.861 44.4574 62.8529C44.4094 62.8353 44.3367 62.833 44.2853 62.833C44.2285 62.833 44.1639 62.8367 44.1102 62.8537C44.0772 62.864 44.0411 62.8786 44.0143 62.8993C43.9989 62.9113 43.9807 62.9274 43.9718 62.9443C43.9618 62.9627 43.9527 62.9826 43.9474 63.0027L43.732 63.8233ZM43.8746 64.3463C43.855 64.352 43.8353 64.3573 43.816 64.3617L43.7399 64.3823C43.7046 64.3919 43.67 64.4038 43.6366 64.418C43.617 64.4263 43.5993 64.4393 43.5839 64.4531C43.5702 64.4656 43.5612 64.4812 43.5551 64.4979L43.2585 65.6277H42.5893L43.3048 62.9018C43.3185 62.8491 43.3429 62.797 43.3669 62.7478C43.4078 62.6637 43.4756 62.5917 43.5502 62.5315C43.6458 62.4543 43.7646 62.3998 43.8837 62.3595C44.0466 62.3043 44.232 62.29 44.4053 62.29C44.5629 62.29 44.7513 62.3012 44.8967 62.3611C44.9955 62.4017 45.0931 62.4592 45.1535 62.544C45.2032 62.6136 45.2315 62.6916 45.2283 62.7748C45.2263 62.8268 45.2227 62.8798 45.2094 62.9304L45.0233 63.6398C44.9925 63.7572 44.9259 63.8612 44.84 63.9511C44.7587 64.0361 44.6551 64.099 44.5435 64.1456L44.7485 65.6277H44.0507L43.8746 64.3463ZM50.4883 63.8242C50.5501 63.8065 50.6119 63.7889 50.6738 63.7715C50.7424 63.7522 50.8109 63.733 50.8796 63.714C50.9094 63.7057 50.9402 63.6986 50.9693 63.6885L50.9747 63.6864L50.9825 63.6843C51.0146 63.6756 51.0737 63.6555 51.0937 63.6294C51.1116 63.606 51.1324 63.5753 51.1397 63.5474L51.2924 62.9655C51.2968 62.949 51.2975 62.9316 51.2964 62.9146C51.2958 62.9059 51.2896 62.8977 51.2835 62.8914C51.2675 62.8745 51.2363 62.8611 51.2139 62.8529C51.1659 62.8353 51.0933 62.833 51.0417 62.833C50.985 62.833 50.9204 62.8367 50.8666 62.8537C50.8337 62.864 50.7977 62.8786 50.7709 62.8993C50.7554 62.9113 50.7372 62.9275 50.7282 62.9442C50.7183 62.9627 50.7092 62.9826 50.704 63.0027L50.4883 63.8242ZM50.9535 64.2572C50.9064 64.2707 50.8592 64.2839 50.8119 64.2973L50.4921 64.3836L50.4878 64.3844C50.4575 64.3908 50.4282 64.4009 50.4009 64.4144C50.3766 64.4264 50.3543 64.4426 50.3341 64.4598C50.3213 64.4709 50.3145 64.4865 50.3104 64.502L50.015 65.6277H49.3507L50.0661 62.9018C50.0799 62.8491 50.1043 62.797 50.1283 62.7478C50.1692 62.6637 50.237 62.5917 50.3116 62.5315C50.4072 62.4543 50.526 62.3998 50.6451 62.3595C50.8081 62.3042 50.9934 62.29 51.1667 62.29C51.3243 62.29 51.5127 62.3012 51.6581 62.3611C51.7569 62.4017 51.8545 62.4592 51.9149 62.544C51.9646 62.6136 51.9929 62.6916 51.9897 62.7748C51.9877 62.8268 51.9841 62.8798 51.9708 62.9304L51.2629 65.6277H50.5937L50.9535 64.2572ZM56.755 64.7833L57.1955 63.1048H57.1907L57.2361 62.9316C57.2404 62.915 57.2411 62.8976 57.2401 62.8807C57.2394 62.8709 57.2339 62.8623 57.2272 62.8549C57.2138 62.8397 57.1808 62.8263 57.1613 62.8193C57.111 62.8016 57.039 62.799 56.9854 62.799C56.9287 62.799 56.8642 62.8028 56.8103 62.8198C56.7774 62.8301 56.7414 62.8447 56.7146 62.8654C56.6992 62.8773 56.6809 62.8935 56.6719 62.9103C56.6621 62.9287 56.6529 62.9485 56.6476 62.9687L56.1282 64.948C56.1234 64.9663 56.1218 64.9854 56.122 65.0043C56.1221 65.0134 56.128 65.0225 56.1339 65.0296C56.1468 65.0453 56.175 65.058 56.1946 65.0654C56.2393 65.0823 56.3053 65.0848 56.3533 65.0848C56.4155 65.0848 56.4861 65.0811 56.5454 65.0634C56.5788 65.0534 56.6194 65.0389 56.6475 65.0191C56.6632 65.008 56.6795 64.9939 56.689 64.9777C56.6979 64.9626 56.7079 64.9445 56.7122 64.9278L56.7501 64.7833H56.755ZM57.9145 62.8965L57.3583 65.0159C57.3442 65.0696 57.32 65.1224 57.2953 65.1726C57.2545 65.2556 57.1865 65.3268 57.1127 65.3863C57.0172 65.4635 56.8984 65.518 56.7793 65.5583C56.6163 65.6135 56.431 65.6277 56.2576 65.6277C56.1001 65.6277 55.9116 65.6165 55.7663 65.5567C55.6675 65.5161 55.5699 65.4586 55.5094 65.3738C55.4598 65.3042 55.4315 65.2262 55.4347 65.143C55.4367 65.0909 55.4403 65.038 55.4535 64.9873L56.0098 62.8678C56.0236 62.8152 56.048 62.7631 56.072 62.7137C56.1129 62.6297 56.1807 62.5578 56.2553 62.4975C56.3509 62.4203 56.4697 62.3659 56.5888 62.3255C56.7518 62.2704 56.9371 62.256 57.1104 62.256C57.268 62.256 57.4563 62.2673 57.6017 62.3271C57.7006 62.3678 57.7981 62.4252 57.8586 62.51C57.9083 62.5797 57.9366 62.6576 57.9334 62.7408C57.9314 62.7929 57.9278 62.8459 57.9145 62.8965ZM72.8616 63.8233C72.8861 63.8164 72.9106 63.8096 72.9352 63.8029C72.987 63.789 73.0385 63.7745 73.0898 63.7593C73.1382 63.745 73.1867 63.7312 73.2354 63.718C73.2564 63.7123 73.2774 63.7067 73.2985 63.701C73.3161 63.6962 73.3336 63.6911 73.3519 63.6853C73.3877 63.6749 73.4437 63.6552 73.4661 63.6272C73.4821 63.6072 73.5052 63.576 73.5117 63.5516L73.6655 62.9655C73.6698 62.949 73.6705 62.9316 73.6695 62.9146C73.6689 62.9059 73.6625 62.8976 73.6565 62.8913C73.6405 62.8745 73.6093 62.861 73.587 62.8529C73.539 62.8353 73.4663 62.833 73.4148 62.833C73.3581 62.833 73.2935 62.8367 73.2396 62.8537C73.2068 62.864 73.1707 62.8787 73.1439 62.8993C73.1284 62.9113 73.1102 62.9274 73.1012 62.9443C73.0913 62.9627 73.0822 62.9826 73.0769 63.0027L72.8616 63.8233ZM73.0041 64.3463C72.9845 64.352 72.9648 64.3573 72.9456 64.3617L72.8694 64.3823C72.8341 64.3919 72.7995 64.4038 72.7662 64.418C72.7466 64.4263 72.7288 64.4393 72.7135 64.4531C72.6997 64.4656 72.6907 64.4812 72.6845 64.4979L72.388 65.6277H71.7189L72.4343 62.9018C72.4481 62.8491 72.4725 62.797 72.4964 62.7478C72.5374 62.6637 72.6052 62.5917 72.6798 62.5315C72.7753 62.4543 72.8942 62.3998 73.0132 62.3595C73.1762 62.3042 73.3616 62.29 73.5348 62.29C73.6925 62.29 73.8809 62.3012 74.0263 62.3611C74.1251 62.4017 74.2226 62.4592 74.283 62.544C74.3327 62.6136 74.361 62.6916 74.3578 62.7748C74.3558 62.8268 74.3523 62.8798 74.3389 62.9304L74.1528 63.6398C74.122 63.7572 74.0554 63.8612 73.9695 63.9511C73.8883 64.0362 73.7847 64.099 73.673 64.1456L73.878 65.6277H73.1802L73.0041 64.3463ZM80.1108 62.8457L79.5176 65.106H79.9298C79.9799 65.106 80.0215 65.0935 80.0598 65.0636C80.0981 65.0336 80.1246 64.9986 80.1365 64.9533L80.6559 62.974C80.6647 62.9405 80.6661 62.9061 80.6436 62.8763C80.6236 62.8499 80.5875 62.8457 80.5552 62.8457H80.1108ZM81.3316 62.9304L80.7754 65.0499C80.7568 65.1208 80.7234 65.1879 80.6822 65.2498C80.636 65.3194 80.5779 65.3813 80.5115 65.4351C80.44 65.4928 80.3585 65.5386 80.2709 65.5728C80.173 65.6111 80.0683 65.6277 79.9616 65.6277H78.7115L79.5786 62.324H80.7965C80.8947 62.324 80.9968 62.338 81.0849 62.3813C81.1574 62.4169 81.2199 62.4656 81.2651 62.5291C81.3076 62.589 81.3336 62.6555 81.3434 62.726C81.3529 62.7947 81.3492 62.8635 81.3316 62.9304ZM82.4719 64.7833L82.9124 63.1048H82.9075L82.9529 62.9316C82.9573 62.915 82.9581 62.8976 82.9569 62.8807C82.9563 62.8709 82.9507 62.8623 82.9441 62.8549C82.9307 62.8397 82.8977 62.8263 82.8781 62.8193C82.8279 62.8016 82.7558 62.799 82.7023 62.799C82.6455 62.799 82.5809 62.8028 82.5271 62.8198C82.4942 62.8301 82.4582 62.8447 82.4315 62.8654C82.416 62.8773 82.3977 62.8936 82.3888 62.9103C82.3789 62.9287 82.3697 62.9485 82.3644 62.9687L81.845 64.948C81.8402 64.9663 81.8387 64.9854 81.8388 65.0043C81.8389 65.0134 81.8449 65.0225 81.8507 65.0296C81.8637 65.0453 81.8918 65.058 81.9114 65.0654C81.956 65.0823 82.0222 65.0848 82.0702 65.0848C82.1324 65.0848 82.2029 65.081 82.2621 65.0634C82.2956 65.0534 82.3363 65.0389 82.3642 65.0191C82.38 65.008 82.3963 64.9938 82.4059 64.9777C82.4148 64.9626 82.4247 64.9445 82.4291 64.9278L82.467 64.7833H82.4719ZM83.6313 62.8965L83.0751 65.0159C83.061 65.0696 83.0368 65.1224 83.0121 65.1726C82.9713 65.2556 82.9034 65.3268 82.8296 65.3863C82.7339 65.4635 82.6152 65.518 82.4961 65.5583C82.3331 65.6135 82.1478 65.6277 81.9745 65.6277C81.8169 65.6277 81.6284 65.6165 81.4831 65.5567C81.3842 65.5161 81.2868 65.4586 81.2263 65.3738C81.1767 65.3042 81.1483 65.2262 81.1516 65.143C81.1535 65.0909 81.1571 65.038 81.1704 64.9873L81.7266 62.8678C81.7405 62.8152 81.7649 62.7631 81.7888 62.7137C81.8297 62.6297 81.8976 62.5578 81.9721 62.4975C82.0678 62.4203 82.1865 62.3659 82.3056 62.3255C82.4686 62.2704 82.654 62.256 82.8272 62.256C82.9848 62.256 83.1732 62.2672 83.3185 62.3271C83.4174 62.3678 83.5149 62.4252 83.5754 62.51C83.625 62.5797 83.6534 62.6576 83.6502 62.7408C83.6482 62.7929 83.6446 62.8459 83.6313 62.8965ZM92.8095 64.2572C92.7625 64.2707 92.7153 64.2839 92.668 64.2973L92.3483 64.3836L92.3439 64.3844C92.3137 64.3908 92.2843 64.4009 92.2571 64.4144C92.2328 64.4264 92.2104 64.4426 92.1903 64.4598C92.1774 64.4709 92.1707 64.4865 92.1666 64.502L91.8711 65.6277H91.2068L91.9223 62.9018C91.9361 62.8491 91.9605 62.797 91.9844 62.7478C92.0253 62.6637 92.0931 62.5917 92.1677 62.5315C92.2634 62.4543 92.3821 62.3998 92.5012 62.3595C92.6642 62.3042 92.8495 62.29 93.0228 62.29C93.1804 62.29 93.3689 62.3012 93.5143 62.3611C93.6131 62.4017 93.7106 62.4592 93.771 62.544C93.8207 62.6136 93.849 62.6916 93.8457 62.7748C93.8438 62.8268 93.8402 62.8798 93.8269 62.9304L93.119 65.6277H92.4499L92.8095 64.2572Z" fill="#ED2324"/>
</g>
<rect x="1" y="1" width="110" height="110" rx="9" stroke="black" stroke-opacity="0.1" stroke-width="2"/>
<defs>
<clipPath id="clip0_755_412">
<rect x="2" y="2" width="108" height="108" rx="8" fill="white"/>
</clipPath>
</defs>
</svg>
