<svg width="112" height="112" viewBox="0 0 112 112" fill="none" xmlns="http://www.w3.org/2000/svg">
<g clip-path="url(#clip0_755_411)">
<rect x="2" y="2" width="108" height="108" rx="8" fill="white"/>
<g clip-path="url(#clip1_755_411)">
<path d="M32.7987 59.9469H37.6152L36.5105 58.1311L32.7987 59.9469ZM35.6099 56.6533L30.604 48.4267L40.3083 39H32.6428C32.0416 38.9997 31.4642 39.2346 31.0339 39.6543L24.2355 46.2983L24.9991 39H18.0753L16.0074 58.698C15.9732 59.0171 16.0766 59.3363 16.2989 59.5745C16.5211 59.8128 16.8199 59.9491 17.1412 59.9491H22.7985L23.2693 55.5261L25.3569 53.5026L29.0294 59.3086C29.153 59.504 29.324 59.6649 29.5266 59.7764C29.7292 59.8879 29.9567 59.9463 30.1879 59.9462H32.798L34.1147 57.3208L35.6099 56.6533Z" fill="#2D2A70"/>
<path d="M39.7836 59.9469L49.1615 54.2458L50.3551 59.0871C50.4789 59.5935 50.9336 59.9491 51.4553 59.9491H57.5251L54.8145 50.8043L65.1396 44.5233L65.1834 44.1006L32.8066 59.9432L39.7836 59.9469ZM53.8439 47.5275L51.3125 39H45.3484C44.7378 39.0002 44.1394 39.1701 43.6198 39.4908C43.1002 39.8114 42.68 40.2702 42.4061 40.8158L33.8814 57.7806L65.246 43.4718L65.2948 42.9909L53.8439 47.5275ZM43.7621 51.5184L45.8534 47.0933L46.405 45.8706C46.4705 45.7248 46.6221 45.6374 46.781 45.652C46.9398 45.6665 47.0724 45.7795 47.1118 45.934L48.0678 49.8126L43.7621 51.5184Z" fill="#ED6B23"/>
<path d="M61.4573 39C60.6437 39.0006 59.8592 39.3023 59.2548 39.8469C58.6505 40.3915 58.2691 41.1405 58.1841 41.9496L57.7615 45.9762L65.2973 42.9916L65.7083 39H61.4573ZM56.2969 59.9469H63.5471L65.1356 44.5255L57.4205 49.2202L56.2969 59.9469Z" fill="#2D2A70"/>
<path d="M51.8015 64.2358H55.0018C55.847 64.2358 56.4829 64.4575 56.9094 64.901C57.3447 65.3446 57.522 65.9219 57.4413 66.6331C57.3903 67.0849 57.2237 67.4863 56.9415 67.8376C56.6597 68.1805 56.3238 68.4147 55.9337 68.54C56.3733 68.6488 56.7178 68.8956 56.967 69.2803C57.2259 69.6568 57.3255 70.1127 57.2657 70.648C57.1831 71.3757 56.865 71.9739 56.3112 72.4427C55.7574 72.9027 55.0664 73.1328 54.2381 73.1328H50.7988L51.8015 64.2358ZM53.0941 67.9126H54.3241C54.7176 67.9126 55.0382 67.8123 55.2859 67.6117C55.5347 67.4111 55.678 67.139 55.7159 66.7956C55.7547 66.4526 55.6721 66.185 55.4681 65.9926C55.2738 65.792 54.9714 65.6916 54.5609 65.6916H53.3441L53.0941 67.9126ZM52.6686 71.69H54.0749C54.4927 71.69 54.8327 71.5897 55.095 71.3891C55.3612 71.1802 55.5143 70.896 55.5541 70.5365C55.5944 70.1771 55.5099 69.8885 55.3005 69.6709C55.0989 69.4533 54.789 69.3444 54.3707 69.3444H52.9404L52.6686 71.69Z" fill="#2093D1"/>
<path d="M57.902 71.451C57.9612 70.9239 58.1803 70.5013 58.5592 70.1831C58.9381 69.8654 59.4045 69.6645 59.9582 69.5805L61.503 69.3619C61.8173 69.3201 61.9885 69.1737 62.0167 68.9225C62.043 68.6884 61.9701 68.496 61.7981 68.3454C61.6393 68.1997 61.3925 68.1268 61.0578 68.1268C60.7066 68.1268 60.4151 68.223 60.1834 68.4154C59.9609 68.6077 59.821 68.8462 59.7637 69.1309L58.318 68.8176C58.437 68.2823 58.7538 67.8096 59.2682 67.3996C59.7831 66.9896 60.4253 66.7846 61.1948 66.7846C62.1148 66.7846 62.7675 67.0064 63.1527 67.4499C63.5389 67.8851 63.6934 68.4457 63.6161 69.1316L63.2737 72.1687C63.2324 72.5369 63.2207 72.8631 63.2387 73.1473H61.7085C61.6876 72.9627 61.6944 72.7159 61.7289 72.407C61.2674 73.0176 60.6262 73.3229 59.8052 73.3229C59.1689 73.3229 58.6751 73.1388 58.3239 72.7706C57.9804 72.4024 57.8371 71.9676 57.8939 71.4663L57.902 71.451ZM60.3051 72.066C60.6986 72.066 61.033 71.9571 61.3085 71.7395C61.5931 71.5136 61.7644 71.1454 61.8222 70.6349L61.8535 70.358L60.4363 70.5715C59.9174 70.6468 59.6333 70.9062 59.5837 71.3497C59.5609 71.5503 59.6126 71.7218 59.7389 71.8641C59.8662 71.9982 60.0552 72.0652 60.3058 72.0652L60.3051 72.066Z" fill="#2093D1"/>
<path d="M66.6949 69.582L66.2941 73.1335H64.6182L65.3133 66.9595H66.9324L66.8464 67.7246C67.0553 67.4235 67.3322 67.1934 67.6771 67.0346C68.0171 66.8757 68.3693 66.7963 68.7337 66.7963C69.4614 66.7963 69.9877 67.0263 70.3127 67.4864C70.6464 67.9381 70.7727 68.5211 70.6916 69.2352L70.2544 73.1262H68.5784L68.9843 69.5244C69.0256 69.1562 68.9629 68.8592 68.7963 68.6333C68.6375 68.4074 68.3654 68.2945 67.9802 68.2945C67.629 68.2945 67.3375 68.4159 67.1058 68.6588C66.8693 68.9017 66.7303 69.207 66.689 69.5747L66.6949 69.582ZM78.6362 64.0471L77.7385 72.0085C77.6923 72.4184 77.6671 72.7908 77.6627 73.1255H76.0691C76.0507 72.9166 76.0565 72.6781 76.0866 72.4099C75.9151 72.6694 75.6657 72.8782 75.3383 73.0366C75.0191 73.1954 74.6587 73.2749 74.2569 73.2749C73.3786 73.2749 72.6893 72.9696 72.189 72.3589C71.7032 71.7401 71.5106 70.9621 71.6112 70.025C71.7083 69.1132 72.0707 68.3476 72.6983 67.7283C73.3284 67.1094 74.074 66.8 74.9353 66.8C75.8223 66.8 76.3752 67.055 76.5938 67.5651L76.9909 64.0383L78.6362 64.0471ZM73.2936 70.033C73.2324 70.5771 73.3262 71.008 73.5749 71.3257C73.8246 71.6351 74.1753 71.7899 74.6271 71.7899C75.0706 71.7899 75.4524 71.631 75.7725 71.3133C76.0932 70.9956 76.2838 70.5647 76.3446 70.0207C76.4048 69.4853 76.3096 69.0671 76.0589 68.7659C75.8092 68.4565 75.4626 68.3017 75.0191 68.3017C74.5756 68.3017 74.1901 68.4565 73.8627 68.7659C73.5436 69.0753 73.3541 69.498 73.2944 70.0338L73.2936 70.033Z" fill="#2093D1"/>
<path d="M78.9674 71.451C79.0267 70.924 79.2457 70.5013 79.6246 70.1832C80.0035 69.8655 80.4699 69.6646 81.0237 69.5805L82.5684 69.3619C82.8827 69.3202 83.054 69.1737 83.0822 68.9226C83.1084 68.6884 83.0355 68.4961 82.8636 68.3455C82.7047 68.1997 82.4579 68.1269 82.1232 68.1269C81.772 68.1269 81.4805 68.223 81.2488 68.4154C81.0263 68.6078 80.8864 68.8463 80.8291 69.131L79.3835 68.8176C79.5025 68.2823 79.8192 67.8097 80.3336 67.3997C80.8486 66.9897 81.4907 66.7847 82.2602 66.7847C83.1803 66.7847 83.8329 67.0064 84.2181 67.4499C84.6043 67.8852 84.7588 68.4458 84.6816 69.1317L84.3391 72.1688C84.2978 72.537 84.2861 72.8632 84.3041 73.1474H82.7739C82.753 72.9628 82.7598 72.716 82.7943 72.407C82.3328 73.0177 81.6916 73.323 80.8707 73.323C80.2343 73.323 79.7405 73.1389 79.3893 72.7706C79.0458 72.4024 78.9025 71.9677 78.9594 71.4663L78.9674 71.451ZM81.3705 72.066C81.764 72.066 82.0985 71.9572 82.3739 71.7396C82.6586 71.5137 82.8298 71.1455 82.8876 70.6349L82.9189 70.358L81.5017 70.5715C80.9829 70.6468 80.6987 70.9062 80.6491 71.3497C80.6263 71.5504 80.678 71.7218 80.8043 71.8642C80.9316 71.9983 81.1206 72.0653 81.3712 72.0653L81.3705 72.066Z" fill="#2093D1"/>
<path d="M90.1542 66.9333L89.9648 68.6151C89.8011 68.5811 89.6359 68.5641 89.4693 68.5641C88.9923 68.5641 88.592 68.702 88.2685 68.978C87.9454 69.2451 87.7492 69.6887 87.6797 70.3085L87.362 73.1321H85.6934L86.3885 66.9581H88.0076L87.9041 67.874C88.2782 67.2299 88.9 66.9078 89.7695 66.9078C89.8618 66.9078 89.9905 66.9161 90.1557 66.9326L90.1542 66.9333Z" fill="#2093D1"/>
<path d="M90.2584 71.451C90.3177 70.924 90.5368 70.5013 90.9157 70.1832C91.2946 69.8655 91.7609 69.6646 92.3147 69.5805L93.8595 69.3619C94.1738 69.3202 94.345 69.1737 94.3732 68.9226C94.3994 68.6884 94.3265 68.4961 94.1546 68.3455C93.9957 68.1997 93.7489 68.1269 93.4142 68.1269C93.063 68.1269 92.7716 68.223 92.5398 68.4154C92.3174 68.6078 92.1775 68.8463 92.1201 69.131L90.6745 68.8176C90.7935 68.2823 91.1102 67.8097 91.6246 67.3997C92.1396 66.9897 92.7818 66.7847 93.5512 66.7847C94.4713 66.7847 95.1239 67.0064 95.5092 67.4499C95.8953 67.8852 96.0498 68.4458 95.9726 69.1317L95.6301 72.1688C95.5888 72.537 95.5772 72.8632 95.5951 73.1474H94.0649C94.0441 72.9628 94.0509 72.716 94.0853 72.407C93.6239 73.0177 92.9826 73.323 92.1617 73.323C91.5253 73.323 91.0315 73.1389 90.6803 72.7706C90.3369 72.4024 90.1936 71.9677 90.2504 71.4663L90.2584 71.451ZM92.6615 72.066C93.055 72.066 93.3895 71.9572 93.6649 71.7396C93.9496 71.5137 94.1208 71.1455 94.1786 70.6349L94.2099 70.358L92.7927 70.5715C92.2739 70.6468 91.9897 70.9062 91.9402 71.3497C91.9173 71.5504 91.9691 71.7218 92.0954 71.8642C92.2226 71.9983 92.4116 72.0653 92.6623 72.0653L92.6615 72.066Z" fill="#2093D1"/>
</g>
</g>
<rect x="1" y="1" width="110" height="110" rx="9" stroke="black" stroke-opacity="0.1" stroke-width="2"/>
<defs>
<clipPath id="clip0_755_411">
<rect x="2" y="2" width="108" height="108" rx="8" fill="white"/>
</clipPath>
<clipPath id="clip1_755_411">
<rect width="80" height="34.8185" fill="white" transform="translate(16 39)"/>
</clipPath>
</defs>
</svg>
