<svg width="112" height="112" viewBox="0 0 112 112" fill="none" xmlns="http://www.w3.org/2000/svg">
<g clip-path="url(#clip0_755_410)">
<rect x="2" y="2" width="108" height="108" rx="8" fill="white"/>
<path d="M43.0281 72.7164H50.78L49.0021 69.7932L43.0281 72.7164ZM47.5527 67.4155L39.4941 54.1754L55.1174 39H42.7756C41.8081 38.9994 40.8787 39.3774 40.1862 40.0531L29.2423 50.7473L30.4746 39H19.3299L15.9995 70.7052C15.9724 70.9593 15.9992 71.2164 16.078 71.4595C16.1568 71.7027 16.286 71.9265 16.457 72.1165C16.628 72.3064 16.8371 72.4583 17.0706 72.5621C17.3042 72.6659 17.557 72.7194 17.8126 72.7192H26.9325L27.6898 65.5997L31.05 62.3426L36.9617 71.6877C37.1608 72.0021 37.4362 72.261 37.7622 72.4404C38.0882 72.6198 38.4543 72.7138 38.8264 72.7137H43.0281L45.1479 68.4876L47.5527 67.4155Z" fill="#2D2A70"/>
<path d="M54.2705 72.7164L69.3645 63.5395L71.2862 71.3322C71.3834 71.7281 71.6106 72.0799 71.9314 72.3314C72.2523 72.5828 72.6482 72.7194 73.0559 72.7192H82.8272L78.4627 57.9998L95.0848 47.8919L95.1553 47.2133L43.0416 72.7137L54.2705 72.7164ZM76.902 52.726L72.8279 39H63.2276C62.2446 38.9999 61.281 39.2733 60.4446 39.7896C59.6081 40.3058 58.9318 41.0446 58.4912 41.9232L44.7706 69.2286L95.2558 46.1982L95.3345 45.4246L76.902 52.726ZM60.6762 59.1506L64.0418 52.0284L64.9294 50.0606C64.9815 49.9466 65.0677 49.8516 65.1761 49.7887C65.2845 49.7258 65.4097 49.6981 65.5346 49.7094C65.6594 49.7207 65.7776 49.7705 65.8729 49.8519C65.9682 49.9332 66.0359 50.0422 66.0667 50.1637L67.6056 56.4065L60.6762 59.1506Z" fill="#ED6B23"/>
<path d="M89.1568 39C87.8473 39.0003 86.5842 39.4855 85.6113 40.3622C84.6384 41.2388 84.0247 42.4447 83.8885 43.7472L83.2099 50.2288L95.3399 45.4246L95.9995 39H89.1568ZM80.8512 72.7164H92.5225L95.0794 47.8946L82.6616 55.4511L80.8512 72.7164Z" fill="#2D2A70"/>
</g>
<rect x="1" y="1" width="110" height="110" rx="9" stroke="black" stroke-opacity="0.1" stroke-width="2"/>
<defs>
<clipPath id="clip0_755_410">
<rect x="2" y="2" width="108" height="108" rx="8" fill="white"/>
</clipPath>
</defs>
</svg>
