<svg width="112" height="112" viewBox="0 0 112 112" fill="none" xmlns="http://www.w3.org/2000/svg">
<g clip-path="url(#clip0_755_415)">
<rect x="2" y="2" width="108" height="108" rx="8" fill="white"/>
<path d="M19.237 61.1738C19.8242 61.1738 20.3545 61.1662 20.8868 61.1814C20.9663 61.1833 21.0611 61.2742 21.1198 61.3462C22.0176 62.4921 23.1219 63.3653 24.4818 63.9051C26.054 64.5283 27.6753 64.6495 29.3156 64.2783C32.0829 63.6532 34.2043 62.1512 35.4753 59.5714C36.0757 58.3535 36.2879 57.0484 36.1894 55.696C36.1629 55.3399 36.1079 54.9838 36.0587 54.5728C31.6056 57.1488 26.8514 58.2133 21.777 57.8591C22.834 57.6754 23.8947 57.5163 24.9459 57.3003C27.8988 56.6942 30.7059 55.7168 33.2232 54.0121C34.3009 53.281 35.2821 52.4362 36.161 51.4759C36.2197 51.4134 36.2784 51.3509 36.375 51.2467C36.5512 51.6255 36.7254 51.9722 36.8769 52.3302C37.3921 53.5538 37.6706 54.8323 37.6497 56.162C37.6119 58.63 36.7046 60.7571 35.034 62.5603C33.71 63.9904 32.1076 64.9867 30.221 65.5056C27.4537 66.2671 24.8607 65.8561 22.4494 64.3142C21.2277 63.532 20.2239 62.5148 19.3563 61.3575C19.326 61.3178 19.3014 61.2723 19.2389 61.1757" fill="#EF3B39"/>
<path d="M32.9126 47.5096C32.9296 47.521 32.8652 47.5967 32.7705 47.6801C32.636 47.7843 32.2742 48.0987 31.9655 48.3809C31.8954 48.434 31.7534 48.4321 31.6454 48.3752C31.0847 48.0078 29.8214 47.5854 28.8251 47.432C27.4916 46.9925 25.0482 47.4585 23.3719 48.4699C21.3016 49.2768 19.398 52.3453 19.1177 55.3229C19.1177 55.7945 19.1234 56.7605 19.131 57.4784C19.131 57.5541 19.1385 57.6299 19.1404 57.6829C19.1404 57.7113 19.059 57.736 18.9529 57.736C18.809 57.7511 18.396 57.7454 18.0324 57.7265C17.9623 57.6905 17.8903 57.5939 17.8733 57.5106C17.6706 56.8533 17.6213 55.5028 17.7634 54.4932C17.7577 53.1446 18.7862 50.866 20.0572 49.4037C21.116 47.5892 24.3303 46.0701 27.234 46.0152C28.5675 45.8939 31.0658 46.5341 32.8141 47.4433C32.8501 47.4623 32.8823 47.4888 32.9126 47.5096Z" fill="#BA8039"/>
<path d="M79.4949 56.4593C79.3586 55.5994 79.226 54.7698 79.0934 53.9269C78.6009 54.7679 78.1122 55.5975 77.6084 56.4593H79.4968H79.4949ZM72.5928 53.2412C72.3977 54.0936 72.2139 54.9005 72.0132 55.785C72.3863 55.4858 72.7026 55.2338 73.0171 54.98C73.6914 54.4364 74.3619 53.8871 75.04 53.3492C75.1138 53.2905 75.2199 53.2507 75.3146 53.245C75.5968 53.2318 75.8791 53.2393 76.1897 53.2905C75.3203 53.9875 74.4509 54.6845 73.5626 55.3986C74.2047 56.4252 74.8373 57.4367 75.4965 58.4917C75.7578 58.075 75.9965 57.6962 76.2333 57.3155C77.0212 56.0407 77.813 54.7679 78.5914 53.4856C78.7127 53.2867 78.849 53.2336 79.0688 53.2374C79.6522 53.2507 79.6654 53.2393 79.7677 53.7962C80.0367 55.2604 80.2924 56.7283 80.5519 58.1925C80.5689 58.2928 80.5897 58.3913 80.6106 58.5107H79.8719C79.7942 58.0921 79.709 57.6829 79.6484 57.27C79.62 57.0806 79.5556 57.0086 79.3548 57.0124C78.7184 57.0257 78.0819 57.0105 77.4455 57.0238C77.3489 57.0257 77.2182 57.0977 77.1652 57.1791C76.9038 57.5712 76.6708 57.9803 76.4132 58.3743C76.3678 58.4444 76.2636 58.5163 76.184 58.5201C75.7294 58.5334 75.2729 58.5334 74.8165 58.5201C74.735 58.5182 74.6271 58.4501 74.5816 58.38C74.0872 57.5996 73.6023 56.8097 73.1137 56.0256C73.0815 55.9744 73.0417 55.9309 72.9849 55.8551C72.5947 56.1695 72.195 56.465 71.8332 56.8003C71.7253 56.9007 71.7101 57.1109 71.6703 57.2738C71.5718 57.681 71.4847 58.0902 71.3881 58.5107H70.6286C70.7195 58.0996 70.8028 57.7 70.8937 57.3041C71.1817 56.0369 71.4752 54.7698 71.7575 53.5007C71.8029 53.2943 71.8882 53.2109 72.1022 53.2374C72.2537 53.2564 72.409 53.2412 72.5947 53.2412" fill="#343333"/>
<path d="M16 59.0448C22.0081 59.8365 27.9102 59.613 33.6134 57.2094C33.8142 57.5428 34.015 57.8686 34.2101 58.1981C34.407 58.5277 34.5984 58.8592 34.8124 59.221C28.5031 60.6056 22.2449 60.6756 16 59.0448Z" fill="#EF3B39"/>
<path d="M26.1736 55.5975C26.0069 55.6562 26.0922 55.5615 26.363 55.3854C26.7494 55.1732 27.7969 54.4895 28.706 53.8606C30.1361 53.0935 32.4318 50.8793 33.8315 48.9151C34.0342 48.5912 34.4623 47.9358 34.7881 47.4509C34.8449 47.3543 34.9547 47.2823 35.0324 47.2899C35.5438 47.3373 36.5875 47.4414 37.3641 47.521C37.3963 47.5248 37.4266 47.5399 37.4663 47.5532C37.4891 47.5608 37.4398 47.663 37.3565 47.7824C37.2599 47.9566 36.9341 48.4226 36.6329 48.8241C35.5476 50.491 32.5189 52.8643 29.869 54.1239C29.3728 54.355 28.3443 54.7906 27.5715 55.0994C27.0316 55.3153 26.4748 55.4895 26.1755 55.5956" fill="#BA8039"/>
<path d="M50.2024 55.5805C50.7896 55.5521 51.3464 55.5502 51.8976 55.4839C52.1192 55.4573 52.3446 55.321 52.5303 55.1846C52.7613 55.0122 52.8295 54.7452 52.7386 54.4686C52.6477 54.194 52.4015 54.1485 52.1533 54.1447C51.6741 54.1352 51.193 54.1428 50.7138 54.1353C50.5717 54.1334 50.5244 54.1959 50.496 54.3266C50.4107 54.7262 50.3123 55.1221 50.2043 55.5843M48.3462 58.5182C48.7534 56.7416 49.153 55.0009 49.5546 53.2545C50.5623 53.2545 51.5491 53.2507 52.5359 53.2583C52.6799 53.2583 52.822 53.3113 52.964 53.334C53.7292 53.4572 54.0645 54.194 53.9452 54.891C53.8239 55.5994 53.3542 56.0578 52.642 56.2055C52.517 56.232 52.3901 56.2548 52.2727 56.2775C52.4962 56.6317 52.7348 56.9783 52.9394 57.3458C53.1459 57.717 53.3163 58.1072 53.5152 58.5182H52.2575C52.0132 57.9936 51.7764 57.4822 51.5377 56.9707C51.3294 56.5256 50.9903 56.3059 50.4884 56.3589C50.4126 56.3665 50.3331 56.3684 50.2573 56.3589C50.0793 56.3362 50.0111 56.3987 49.9732 56.5862C49.8425 57.2302 49.6834 57.8686 49.5338 58.5182H48.3462Z" fill="#343333"/>
<path d="M83.2548 53.8398C83.1203 54.4345 82.9915 55.0065 82.857 55.5975C83.5749 55.5975 84.2643 55.6316 84.9462 55.5824C85.2531 55.5596 85.5713 55.4062 85.8402 55.2414C86.1528 55.0501 86.2551 54.622 86.149 54.2773C86.0486 53.9515 85.7796 53.8511 85.4879 53.8454C84.7492 53.8303 84.0124 53.8398 83.2529 53.8398M82.1619 58.5163H81.4175C81.5141 58.094 81.605 57.6886 81.6978 57.2833C81.9895 56.018 82.2831 54.7508 82.5691 53.4837C82.6089 53.3075 82.6714 53.2336 82.8703 53.2355C83.6772 53.2488 84.4859 53.2355 85.2947 53.2431C85.4993 53.245 85.7076 53.264 85.9084 53.3056C86.8896 53.5083 87.2684 54.6183 86.6377 55.4081C86.2986 55.8343 85.8251 55.9896 85.325 56.0995C85.2341 56.1203 85.1432 56.1392 85.0163 56.1676C85.8099 56.7757 86.0619 57.6735 86.471 58.5258C86.1982 58.5258 85.9596 58.5391 85.7228 58.5182C85.6565 58.5126 85.5732 58.4235 85.5391 58.3535C85.325 57.9064 85.1299 57.45 84.9159 57.0029C84.842 56.8495 84.736 56.7131 84.6375 56.573C84.4556 56.3173 84.2056 56.1904 83.8893 56.1942C83.5616 56.1961 83.2358 56.2017 82.91 56.1885C82.7547 56.1828 82.696 56.2491 82.6657 56.3855C82.5104 57.0692 82.3532 57.7511 82.1941 58.433C82.1884 58.4576 82.1751 58.4785 82.16 58.5145" fill="#343333"/>
<path d="M56.3299 54.1371H54.6441C54.7066 53.8454 54.7483 53.5841 54.824 53.334C54.8392 53.2848 54.9737 53.245 55.0532 53.245C56.112 53.2393 57.169 53.2412 58.2278 53.2412H59.3927C59.3548 53.3795 59.3245 53.4818 59.2998 53.5879C59.2563 53.7602 59.2714 54.0159 59.1635 54.086C59.0233 54.1788 58.7865 54.1315 58.5896 54.1334C58.3054 54.1371 58.0213 54.1409 57.7391 54.1334C57.5838 54.1277 57.5099 54.1769 57.4739 54.336C57.2542 55.3285 57.0231 56.3192 56.7977 57.3117C56.7068 57.7113 56.614 58.1091 56.5212 58.5163H55.3373C55.6688 57.0636 55.9965 55.6202 56.3337 54.1371" fill="#343333"/>
<path d="M68.725 56.4555C68.5943 55.6146 68.4655 54.7849 68.331 53.9212C67.831 54.7717 67.3461 55.5975 66.8422 56.4555H68.725ZM64.7132 58.5277C65.1697 57.789 65.5978 57.0901 66.0297 56.3949C66.6187 55.4403 67.2173 54.4913 67.7969 53.5329C67.9257 53.3189 68.0602 53.2242 68.3215 53.2355C68.8879 53.2602 68.886 53.2431 68.9902 53.8151C69.2497 55.2357 69.5148 56.6563 69.7743 58.0769C69.8008 58.2171 69.8103 58.361 69.8274 58.4974C69.8065 58.5126 69.7989 58.5201 69.7914 58.5201C69.0981 58.5826 69.1019 58.5826 68.9977 57.8875C68.9561 57.6091 68.8879 57.3363 68.8273 57.0389C68.7553 57.0333 68.6814 57.0219 68.6057 57.0219C67.9692 57.0219 67.3328 57.0276 66.6983 57.0162C66.5392 57.0143 66.4464 57.0655 66.3687 57.198C66.1433 57.5807 65.899 57.9538 65.6811 58.3402C65.6035 58.4785 65.5239 58.5429 65.3629 58.5315C65.1659 58.5182 64.9689 58.5277 64.7151 58.5277" fill="#343333"/>
<path d="M93.0114 56.4461H94.8922C94.7596 55.6108 94.629 54.7868 94.4926 53.9269C93.9887 54.7849 93.5095 55.5994 93.0114 56.4461ZM96.0022 58.5163H95.2729C95.182 58.0201 95.0911 57.5352 94.9964 57.02H93.2235C92.8283 57.02 92.5303 57.1886 92.3295 57.5257C92.1628 57.8061 92.0075 58.0921 91.8257 58.361C91.7707 58.4425 91.6495 58.5107 91.5491 58.522C91.3464 58.5467 91.1381 58.5296 90.8843 58.5296C91.0642 58.2322 91.2233 57.9633 91.3881 57.6981C92.2708 56.2718 93.1553 54.8455 94.0342 53.4174C94.11 53.2943 94.1895 53.2261 94.3391 53.2412C94.4661 53.2545 94.5986 53.2602 94.7256 53.2412C94.9964 53.1977 95.0911 53.3056 95.1385 53.5727C95.4055 55.1297 95.6935 56.6847 95.9738 58.2417C95.9889 58.325 95.9908 58.4103 96.0022 58.5182" fill="#343333"/>
<path d="M45.8174 53.2412C45.4784 54.7186 45.1488 56.162 44.8098 57.6469H47.7456C47.6774 57.9633 47.6187 58.236 47.5581 58.5145H43.4233C43.5047 58.1565 43.5805 57.8155 43.6581 57.4765C43.965 56.1449 44.2756 54.8133 44.5749 53.4818C44.6147 53.3018 44.6847 53.2261 44.8798 53.2374C45.1772 53.2564 45.4765 53.2431 45.8155 53.2431" fill="#343333"/>
<path d="M92.2991 53.8379C91.7726 53.8379 91.2668 53.8511 90.7611 53.8322C90.513 53.8227 90.4069 53.8909 90.3501 54.1447C90.0432 55.5464 89.7156 56.9461 89.3954 58.344C89.3841 58.3932 89.3689 58.4425 89.3519 58.5088H88.5904C88.9465 56.9537 89.2988 55.4119 89.6587 53.8398H87.7362C87.7684 53.6636 87.7854 53.5121 87.829 53.3681C87.8461 53.3151 87.9313 53.2469 87.9862 53.2469C89.4561 53.2393 90.924 53.2412 92.4374 53.2412C92.39 53.4477 92.3484 53.6257 92.301 53.836" fill="#343333"/>
<path d="M61.8512 56.9423C61.8512 57.0408 61.8587 57.1014 61.8512 57.1583C61.7849 57.5693 61.8928 57.8326 62.1826 57.9576C62.5728 58.1262 63.0956 58.0371 63.2642 57.7019C63.4365 57.3571 63.5426 56.9726 63.6335 56.5957C63.8873 55.5407 64.1203 54.48 64.3571 53.4193C64.3874 53.2848 64.448 53.2336 64.5844 53.2412C64.77 53.2507 64.9556 53.2431 65.164 53.2431C65.0314 53.8455 64.9102 54.4118 64.7795 54.9743C64.6033 55.7396 64.4101 56.501 64.2397 57.2681C63.9214 58.6963 62.5255 58.8573 61.6352 58.4197C61.1106 58.1621 61.031 57.5579 61.1636 57.0787C61.1769 57.0351 61.2602 56.9878 61.3151 56.9802C61.4837 56.9575 61.6542 56.9556 61.8512 56.9423Z" fill="#343333"/>
</g>
<rect x="1" y="1" width="110" height="110" rx="9" stroke="black" stroke-opacity="0.1" stroke-width="2"/>
<defs>
<clipPath id="clip0_755_415">
<rect x="2" y="2" width="108" height="108" rx="8" fill="white"/>
</clipPath>
</defs>
</svg>
