<svg width="112" height="112" viewBox="0 0 112 112" fill="none" xmlns="http://www.w3.org/2000/svg">
<g clip-path="url(#clip0_755_416)">
<rect x="2" y="2" width="108" height="108" rx="8" fill="white"/>
<path d="M63.9131 61.0518H73.6603L79.1776 42.0731C81.0167 36.0889 76.4189 32.1564 70.3499 32.1564C61.8901 32.1564 57.1085 36.7728 55.0855 43.27C54.9016 43.7829 47.1774 69.6008 47.1774 69.6008C46.6257 70.7976 46.2578 71.8235 44.2348 71.8235C42.9475 71.8235 41.844 70.7976 42.2118 69.6008L50.3038 42.0731C51.959 36.4308 46.9935 32.1564 41.4762 32.1564C32.6486 32.1564 28.4186 36.2598 26.5795 42.0731L16.0967 77.4658H25.4761L36.1428 41.3892C36.5107 40.1924 37.4302 39.1665 39.0853 39.1665C40.3727 39.1665 41.1084 40.1924 40.7406 41.3892L32.8324 67.72C30.9933 73.8752 35.2233 78.8336 41.4762 78.8336C49.5682 79.0046 54.1659 76.6109 56.7406 67.72L64.6488 41.3892C65.0166 40.1924 65.9361 39.1665 67.5913 39.1665C68.8786 39.1665 69.6143 40.1924 69.2465 41.3892L63.9131 61.0518Z" fill="#0056B8"/>
<path d="M95.7295 33.1821H86.534L75.8673 69.2587C75.3156 70.4555 74.9477 71.1395 72.9247 71.1395C71.8213 71.1395 70.9017 70.2846 71.2696 69.2587L72.9247 63.7873H63.1776L62.0741 67.7199C59.8672 75.072 64.0971 78.8335 70.7179 78.8335C80.0972 78.8335 83.9593 73.8751 85.6145 67.7199C85.4306 67.7199 95.7295 33.1821 95.7295 33.1821Z" fill="#45BB3C"/>
</g>
<rect x="1" y="1" width="110" height="110" rx="9" stroke="black" stroke-opacity="0.1" stroke-width="2"/>
<defs>
<clipPath id="clip0_755_416">
<rect x="2" y="2" width="108" height="108" rx="8" fill="white"/>
</clipPath>
</defs>
</svg>
