<svg width="112" height="112" viewBox="0 0 112 112" fill="none" xmlns="http://www.w3.org/2000/svg">
<g clip-path="url(#clip0_755_408)">
<rect x="2" y="2" width="108" height="108" rx="8" fill="white"/>
<g clip-path="url(#clip1_755_408)">
<path fill-rule="evenodd" clip-rule="evenodd" d="M53.6451 49.2783H54.8592C55.4778 49.2783 55.8754 49.7637 55.7201 50.3522L55.5444 51.0149H53.1846L53.6451 49.2783Z" fill="#1E468E"/>
<path fill-rule="evenodd" clip-rule="evenodd" d="M77.3447 60.0134L78.4238 55.9851C78.962 53.9746 80.3324 52.4378 82.4601 51.9279C83.1786 51.7562 83.8943 51.7101 84.6276 51.7101L84.0349 53.9258H83.2563C81.9876 53.9258 81.1711 54.5351 80.8484 55.7374L79.7045 60.0134H77.3447Z" fill="#1E468E"/>
<path fill-rule="evenodd" clip-rule="evenodd" d="M74.4225 56.2346C75.018 56.1098 75.4933 55.9769 75.8456 55.8305L75.6366 56.6106C75.4804 57.1937 75.1789 57.6503 74.7314 57.982C74.282 58.3156 73.7438 58.4837 73.1122 58.4837C72.7303 58.4837 72.4612 58.4006 72.3022 58.2333C72.1505 58.0462 72.1163 57.7976 72.2014 57.4848C72.3836 56.7996 72.9559 56.5483 73.6069 56.3928C73.606 56.3919 73.876 56.3394 74.4225 56.2346ZM74.1442 53.3644C74.4133 53.2812 74.7073 53.2387 75.0217 53.2387C75.4822 53.2387 76.4874 53.3056 76.3043 53.9872C76.1924 54.4049 75.6255 54.6743 74.6028 54.799C73.4645 54.9156 72.3216 55.0964 71.3183 55.6732C70.6673 56.0493 70.2244 56.6721 69.9895 57.5463C69.7389 58.4837 69.861 59.1545 70.3594 59.5613C70.8578 59.9681 71.5116 60.1706 72.3188 60.1706C72.7248 60.1706 73.1991 60.1444 73.7419 60.0929C74.282 60.0395 74.8211 59.8985 75.3546 59.6689C75.8586 59.4619 76.3376 59.1229 76.7888 58.6555C77.2382 58.189 77.5785 57.5363 77.8004 56.7047L78.5614 53.8616C78.763 53.113 78.5929 52.5291 78.051 52.1132C77.5304 51.7164 76.639 51.5193 75.3796 51.5193C74.2561 51.5193 73.3258 51.7598 72.5907 52.2362C71.9369 52.6538 71.482 53.1854 71.2203 53.829H73.4793C73.655 53.6003 73.8732 53.4448 74.1442 53.3644Z" fill="#1E468E"/>
<path fill-rule="evenodd" clip-rule="evenodd" d="M50.4729 61.2428C51.3116 58.077 52.1503 54.9093 52.989 51.7417H54.2041C54.8199 51.7417 55.2212 52.2253 55.0659 52.8148C54.291 55.7392 53.5142 58.6655 52.7412 61.5908C52.2789 63.3392 50.8123 63.6438 49.1645 63.6438H16.3193C16.8668 61.5836 18.7809 61.8114 19.307 61.8114H49.748C50.1289 61.8114 50.3657 61.674 50.4794 61.2428" fill="#1E468E"/>
<path fill-rule="evenodd" clip-rule="evenodd" d="M20.9014 60.0134L19.0159 60.0079C17.8795 60.0043 17.3108 59.6409 17.6104 58.4521L20.0682 49.2765H21.2824C21.8806 49.2765 22.2625 49.7737 22.1118 50.336L21.7364 51.7408H23.1179L22.9995 52.1774C22.9163 52.4893 22.736 52.7443 22.4576 52.9449C22.1802 53.142 21.8834 53.2406 21.5699 53.2406H21.3332L20.0951 57.8627C20.0007 58.218 20.1792 58.3925 20.6268 58.3925H21.3351L20.9014 60.0134Z" fill="#3381C3"/>
<path fill-rule="evenodd" clip-rule="evenodd" d="M65.1943 54.7701L68.8783 51.7119H71.7106L67.6558 54.8949L69.5219 60.0152H66.6895L65.7907 57.2046C65.6012 56.6423 65.3746 56.4055 65.1046 56.4877C64.8355 56.5709 64.6783 56.6957 64.6339 56.8611L63.7888 60.0152H61.4308L64.3066 49.2756H65.5207C66.1042 49.2756 66.5444 49.7303 66.3899 50.307C65.9914 51.7932 65.5929 53.2812 65.1943 54.7683M58.6188 56.2355C59.2134 56.1108 59.6896 55.9779 60.0419 55.8314L59.832 56.6116C59.6767 57.1947 59.3752 57.6512 58.9267 57.983C58.4783 58.3165 57.9382 58.4847 57.3085 58.4847C56.9257 58.4847 56.6566 58.4015 56.4966 58.2343C56.3459 58.0471 56.3135 57.7985 56.3958 57.4858C56.5798 56.8005 57.1513 56.5492 57.8023 56.3937C57.8023 56.3928 58.0732 56.3404 58.6188 56.2355ZM58.3405 53.3653C58.6096 53.2821 58.9036 53.2396 59.2162 53.2396C59.6804 53.2396 60.6836 53.3065 60.5015 53.9882C60.3905 54.4058 59.8218 54.6752 58.7991 54.8C57.6608 54.9166 56.5179 55.0974 55.5137 55.6741C54.8655 56.0502 54.4207 56.6731 54.1858 57.5472C53.9352 58.4847 54.0573 59.1554 54.5557 59.5623C55.0541 59.9691 55.7079 60.1716 56.517 60.1716C56.922 60.1716 57.3945 60.1453 57.9382 60.0938C58.4801 60.0405 59.0183 59.8994 59.5509 59.6698C60.0549 59.4628 60.5348 59.1238 60.9851 58.6564C61.4345 58.19 61.7748 57.5373 61.9976 56.7056L62.7577 53.8625C62.9584 53.114 62.7901 52.53 62.2473 52.1142C61.7267 51.7173 60.8362 51.5202 59.5749 51.5202C58.4524 51.5202 57.5221 51.7607 56.787 52.2371C56.1341 52.6547 55.6783 53.1863 55.4166 53.83H57.6756C57.8513 53.6012 58.0714 53.4458 58.3405 53.3653Z" fill="#1E468E"/>
<path fill-rule="evenodd" clip-rule="evenodd" d="M86.6196 60.0134C85.8659 60.0559 85.0651 60.045 84.2163 59.9817C83.3656 59.9203 83.0715 59.4077 83.3276 58.4531L85.7855 49.2774H86.9996C87.5969 49.2774 87.9807 49.7746 87.829 50.3369L87.4527 51.7417H88.8342L88.7168 52.1784C88.5522 52.794 87.9345 53.2415 87.2872 53.2415H87.0514L85.8132 57.8636C85.718 58.2189 85.8955 58.3934 86.3449 58.3934H87.0532L86.6196 60.0134ZM91.8413 56.2346C92.4359 56.1099 92.9121 55.977 93.2653 55.8305L93.0554 56.6107C92.8991 57.1938 92.5995 57.6503 92.1501 57.9821C91.7017 58.3157 91.1616 58.4838 90.5319 58.4838C90.1491 58.4838 89.88 58.4006 89.721 58.2334C89.5693 58.0463 89.536 57.7977 89.6193 57.4849C89.8033 56.7996 90.3747 56.5483 91.0257 56.3928C91.0266 56.3919 91.2967 56.3395 91.8413 56.2346ZM91.5639 53.3644C91.833 53.2812 92.1261 53.2388 92.4405 53.2388C92.9038 53.2388 93.9071 53.3057 93.7258 53.9873C93.613 54.4049 93.0471 54.6743 92.0225 54.7991C90.8852 54.9157 89.7413 55.0965 88.7371 55.6732C88.088 56.0493 87.6441 56.6722 87.4102 57.5463C87.1596 58.4838 87.2807 59.1546 87.7791 59.5614C88.2775 59.9682 88.9313 60.1707 89.7404 60.1707C90.1454 60.1707 90.6179 60.1445 91.1616 60.0929C91.7035 60.0396 92.2417 59.8986 92.7743 59.6689C93.2792 59.4619 93.7573 59.1229 94.2094 58.6556C94.6588 58.1891 94.9982 57.5364 95.2211 56.7047L95.9821 53.8616C96.1827 53.1131 96.0144 52.5291 95.4707 52.1133C94.9501 51.7164 94.0587 51.5193 92.7974 51.5193C91.6758 51.5193 90.7455 51.7598 90.0104 52.2362C89.3576 52.6539 88.9017 53.1854 88.64 53.8291H90.899C91.0738 53.6004 91.2948 53.4449 91.5639 53.3644Z" fill="#1E468E"/>
<path fill-rule="evenodd" clip-rule="evenodd" d="M21.3447 60.0133L22.4238 55.9851C22.6402 55.1751 22.9518 54.4935 23.3596 53.9411C23.7656 53.3906 24.2381 52.9467 24.7763 52.6149C25.2858 52.3031 25.8471 52.0734 26.4601 51.927C27.0714 51.7814 27.6817 51.71 28.2883 51.71H28.4584H28.6285L28.0349 53.9257H27.2572C26.6044 53.9257 26.081 54.0722 25.6908 54.3633C25.2987 54.6526 25.0176 55.1109 24.8512 55.7374L23.7055 60.0133H21.3447ZM31.5349 56.2346C32.1304 56.1098 32.6057 55.9769 32.9589 55.8305L32.749 56.6106C32.5927 57.1937 32.2922 57.6503 31.8437 57.982C31.3943 58.3156 30.8543 58.4837 30.2236 58.4837C29.8417 58.4837 29.5727 58.4006 29.4136 58.2333C29.2629 58.0462 29.2287 57.7976 29.3119 57.4848C29.495 56.7996 30.0683 56.5483 30.7184 56.3928C30.7193 56.3919 30.9884 56.3394 31.5349 56.2346ZM31.2565 53.3644C31.5256 53.2812 31.8187 53.2387 32.1331 53.2387C32.5955 53.2387 33.5997 53.3056 33.4175 53.9872C33.3056 54.4049 32.7388 54.6743 31.7152 54.799C30.5769 54.9156 29.4349 55.0964 28.4307 55.6732C27.7806 56.0493 27.3367 56.6721 27.1028 57.5463C26.8522 58.4837 26.9733 59.1545 27.4708 59.5613C27.9692 59.9672 28.6239 60.1706 29.4321 60.1706C29.838 60.1706 30.3115 60.1444 30.8534 60.0929C31.3952 60.0395 31.9334 59.8985 32.467 59.6689C32.9718 59.4619 33.4499 59.1229 33.9021 58.6555C34.3515 58.189 34.6908 57.5363 34.9128 56.7047L35.6738 53.8616C35.8754 53.113 35.7052 52.5291 35.1643 52.1132C34.6428 51.7164 33.7523 51.5193 32.491 51.5193C31.3675 51.5193 30.4382 51.7598 29.703 52.2362C29.0502 52.6538 28.5943 53.1854 28.3336 53.829H30.5907C30.7664 53.6003 30.9865 53.4448 31.2565 53.3644Z" fill="#3381C3"/>
<path fill-rule="evenodd" clip-rule="evenodd" d="M42.1784 59.9049H41.029C40.3817 59.9049 40.0257 59.4583 40.1857 58.8454L41.2944 54.5983C41.521 53.7332 41.0226 53.1619 40.1228 53.1619C39.2037 53.1619 38.4612 53.7314 38.2355 54.5983L36.8485 59.9049H34.5479L35.8193 55.0359C36.5027 52.5237 38.0987 51.5229 40.5149 51.4153C41.5931 51.4153 43.2048 51.7688 43.5571 52.9377C43.7153 53.4602 43.6792 54.1599 43.4508 55.0359L42.1784 59.9049Z" fill="#3381C3"/>
<path fill-rule="evenodd" clip-rule="evenodd" d="M51.5822 54.1617C52.0473 52.088 50.3413 51.3919 48.5279 51.4145C46.7072 51.438 44.7709 52.2208 44.278 54.1012C44.0561 54.9455 44.3455 55.6262 45.1075 56.0321C45.4774 56.2292 45.9887 56.4082 46.6406 56.5682C47.1501 56.7445 48.8581 56.8295 48.6565 57.5988C48.4882 58.2415 47.5903 58.4106 47.0188 58.4106C46.1903 58.4106 45.3156 58.1493 45.5282 57.1612H43.2766L43.2489 57.2534C43.0084 58.171 43.1444 58.8689 43.6603 59.3453C44.1504 59.8235 45.0252 60.064 46.2856 60.064C47.6088 60.064 48.6639 59.8344 49.4462 59.377C50.283 58.8788 50.8221 58.171 51.0644 57.2534C51.4296 55.8676 50.5438 55.3523 49.3019 54.9817C48.8562 54.8479 48.3874 54.7566 47.9315 54.6499C47.4423 54.536 47.0891 54.4094 46.8727 54.2711C46.4196 53.9791 46.6795 53.5 47.0734 53.2867C47.3295 53.1619 47.6781 53.1059 48.1174 53.1004C48.9857 53.0896 49.1743 53.3816 49.3814 53.6989C49.5969 54.0234 49.7365 54.1608 50.1563 54.1608L51.5822 54.1617Z" fill="#3381C3"/>
</g>
</g>
<rect x="1" y="1" width="110" height="110" rx="9" stroke="black" stroke-opacity="0.1" stroke-width="2"/>
<defs>
<clipPath id="clip0_755_408">
<rect x="2" y="2" width="108" height="108" rx="8" fill="white"/>
</clipPath>
<clipPath id="clip1_755_408">
<rect width="80" height="14.7433" fill="white" transform="translate(16 49)"/>
</clipPath>
</defs>
</svg>
