<svg width="112" height="112" viewBox="0 0 112 112" fill="none" xmlns="http://www.w3.org/2000/svg">
<g clip-path="url(#clip0_755_414)">
<rect x="2" y="2" width="108" height="108" rx="8" fill="white"/>
<path d="M24.0027 56.0064C23.9652 56.0812 23.9447 56.1634 23.9428 56.247C23.9409 56.3306 23.9575 56.4135 23.9915 56.4898C24.0255 56.566 24.076 56.6337 24.1394 56.6878C24.2028 56.742 24.2775 56.7812 24.3579 56.8028C24.8505 56.9372 25.3326 56.9788 25.8043 56.9276C29.8391 56.5008 34.03 54.8576 37.7456 53.236C37.7956 53.2157 37.85 53.2107 37.9016 53.2216C38.1639 53.2776 38.2295 53.4167 38.0983 53.6388C38.0567 53.7108 37.9863 53.7748 37.8871 53.8308C37.1747 54.248 35.0279 55.7308 34.9583 56.5848C34.7687 58.8804 43.4187 55.4956 44.3303 55.1024C44.3852 55.0789 44.4452 55.0714 44.5031 55.0808C44.8181 55.1336 44.9205 55.2743 44.8103 55.5028C44.7767 55.5732 44.7159 55.6324 44.6279 55.6804C41.6247 57.3212 31.5063 62.572 28.5511 61.26C27.3471 60.7276 28.3519 59.684 28.7599 59.046C28.7935 58.9939 28.8139 58.9346 28.8195 58.8729C28.8251 58.8113 28.8157 58.7492 28.7921 58.6919C28.7686 58.6347 28.7315 58.584 28.6841 58.5442C28.6367 58.5043 28.5804 58.4766 28.5199 58.4632C28.2607 58.4056 27.8388 58.432 27.5628 58.5304C25.8548 59.1492 17.2815 62.4644 16.1203 60.7996C14.6379 58.6744 27.4211 51.8448 29.0355 51.0292C29.085 51.005 29.1404 50.9955 29.1952 51.0019C29.2501 51.0083 29.3021 51.0302 29.3451 51.0652C29.5515 51.2356 29.4771 51.5016 29.2611 51.6312C27.5315 52.6964 24.7799 54.4492 24.0027 56.0064Z" fill="#C52D42"/>
<path d="M51.5603 57.7552L48.586 61.2648C48.5356 61.3241 48.4728 61.3718 48.402 61.4046C48.3312 61.4373 48.2541 61.4543 48.1759 61.4544H46.3071C46.2908 61.4546 46.2746 61.4512 46.2597 61.4445C46.2448 61.4378 46.2315 61.428 46.2208 61.4157C46.2101 61.4033 46.2022 61.3888 46.1976 61.3731C46.193 61.3574 46.1919 61.341 46.1944 61.3248L47.0844 55.3828C47.1084 55.2324 47.1963 55.1572 47.3483 55.1572H49.0756C49.162 55.1572 49.1987 55.2004 49.186 55.2868C49.0499 56.1599 48.8925 57.0259 48.7136 57.8848C48.5936 58.458 48.2915 58.8852 48.0107 59.3744C47.9967 59.4008 47.9928 59.4314 47.9998 59.4605C48.0068 59.4896 48.0242 59.5151 48.0487 59.5322C48.0732 59.5494 48.1031 59.5569 48.1329 59.5535C48.1626 59.5501 48.19 59.5359 48.21 59.5136L51.8296 55.258C51.8856 55.1908 51.9576 55.1572 52.0456 55.1572H53.6192C53.7072 55.1572 53.748 55.2012 53.7416 55.2892C53.6192 56.8268 53.6528 58.0264 52.854 59.3912C52.8452 59.4057 52.8404 59.4223 52.84 59.4393C52.8396 59.4562 52.8435 59.473 52.8515 59.488C52.8595 59.5029 52.8712 59.5156 52.8855 59.5247C52.8998 59.5338 52.9162 59.5391 52.9332 59.54C53.0372 59.5432 53.1252 59.496 53.1972 59.3984C53.9009 58.4357 54.9748 57.0548 56.4188 55.2556C56.4435 55.2249 56.4749 55.2001 56.5106 55.1831C56.5463 55.1661 56.5854 55.1572 56.6251 55.1572H58.4387C58.5683 55.1572 58.5932 55.2076 58.5131 55.3084L53.754 61.2216C53.6955 61.2942 53.6214 61.3529 53.5372 61.3932C53.4529 61.4334 53.3607 61.4544 53.2672 61.4544H51.5519C51.5232 61.4546 51.4948 61.4487 51.4686 61.4371C51.4423 61.4255 51.4187 61.4085 51.3995 61.3872C51.3802 61.3659 51.3657 61.3408 51.3568 61.3135C51.3479 61.2862 51.3449 61.2573 51.348 61.2288L51.708 57.8176C51.7093 57.8001 51.7051 57.7826 51.696 57.7676C51.6869 57.7525 51.6733 57.7408 51.6571 57.7339C51.641 57.727 51.6231 57.7253 51.6059 57.7292C51.5888 57.733 51.5733 57.7421 51.5616 57.7552H51.5603Z" fill="#C52D42"/>
<path d="M60.1119 57.496C60.0978 57.5194 60.0928 57.547 60.0977 57.5737C60.1027 57.6003 60.1172 57.6243 60.1388 57.6413C60.1604 57.6582 60.1875 57.6669 60.2152 57.6658C60.2429 57.6646 60.2693 57.6538 60.2896 57.6352C61.2924 56.6516 62.4723 55.932 63.9187 56.34C66.1975 56.9804 64.1611 60.022 63.5539 61.2144C63.5179 61.2866 63.4624 61.3473 63.3937 61.3897C63.325 61.4321 63.2459 61.4545 63.1651 61.4544H61.4931C61.4699 61.4541 61.447 61.4479 61.4268 61.4363C61.4066 61.4247 61.3897 61.4081 61.3777 61.3882C61.3657 61.3682 61.359 61.3456 61.3582 61.3223C61.3574 61.299 61.3625 61.2759 61.3731 61.2552C61.7745 60.4683 62.1647 59.6639 62.5439 58.842C63.1675 57.4892 61.4476 57.5516 60.7784 57.9616C60.114 58.3692 59.3415 60.4804 58.9551 61.2408C58.9234 61.3049 58.8742 61.3589 58.8131 61.3967C58.752 61.4344 58.6815 61.4544 58.6095 61.4544H56.8127C56.7981 61.4543 56.7837 61.4505 56.7709 61.4433C56.7582 61.4361 56.7474 61.4258 56.7398 61.4133C56.7321 61.4008 56.7277 61.3866 56.727 61.3719C56.7264 61.3573 56.7294 61.3427 56.7359 61.3296L59.6407 55.28C59.658 55.244 59.6851 55.2137 59.7191 55.1925C59.7531 55.1712 59.7925 55.16 59.8327 55.16L61.6679 55.1576C61.7928 55.1576 61.8311 55.2152 61.7831 55.3304C61.6823 55.572 61.5695 55.8015 61.4447 56.0188C61.1303 56.5656 60.4595 56.9204 60.1119 57.496Z" fill="#C52D42"/>
<path d="M91.3083 57.6064C92.2199 56.7428 93.3279 56.0208 94.6619 56.2632C97.3655 56.7548 95.2687 59.8732 94.4867 61.332C94.4678 61.3668 94.44 61.3958 94.4062 61.4161C94.3725 61.4363 94.334 61.4471 94.2947 61.4472L92.5027 61.4568C92.4799 61.4568 92.4574 61.4509 92.4374 61.4397C92.4174 61.4285 92.4007 61.4125 92.3886 61.393C92.3766 61.3735 92.3698 61.3513 92.3687 61.3285C92.3677 61.3056 92.3725 61.2829 92.3827 61.2624C92.7873 60.4787 93.1687 59.6679 93.5271 58.83C94.1123 57.4604 92.5603 57.578 91.8575 57.928C91.1931 58.2568 90.3511 60.49 90.0151 61.2C89.9786 61.2761 89.9212 61.3404 89.8495 61.3854C89.7778 61.4304 89.6948 61.4543 89.6099 61.4544H87.8827C87.8635 61.4542 87.8447 61.4492 87.8279 61.4399C87.8111 61.4306 87.797 61.4172 87.7869 61.4011C87.7768 61.385 87.7711 61.3667 87.7702 61.3479C87.7693 61.329 87.7734 61.3104 87.7819 61.2936L90.6315 55.3468C90.659 55.2899 90.7018 55.2419 90.7549 55.2084C90.8079 55.1749 90.8692 55.1571 90.9315 55.1572H92.7307C92.7491 55.1571 92.7672 55.1617 92.7832 55.1707C92.7992 55.1797 92.8127 55.1927 92.8221 55.2085C92.8316 55.2242 92.8367 55.2422 92.8371 55.2605C92.8375 55.2789 92.8331 55.297 92.8243 55.3132L92.2991 56.3064C92.2928 56.3175 92.2846 56.3265 92.2751 56.3328C91.8434 56.6509 91.4603 57.0196 91.1259 57.4388C91.1079 57.4635 91.0996 57.4941 91.1026 57.5246C91.1056 57.5551 91.1197 57.5834 91.1422 57.6041C91.1648 57.6249 91.1941 57.6366 91.2248 57.6371C91.2554 57.6376 91.2852 57.6264 91.3083 57.6064Z" fill="#C52D42"/>
<path d="M66.6103 61.358C63.7871 60.6096 66.2672 57.1912 67.8839 56.618C69.436 56.0688 73.9215 55.6224 72.8999 58.7744C72.0603 61.37 68.9611 61.984 66.6103 61.358ZM70.7711 57.494C70.653 57.3703 70.4974 57.2847 70.3131 57.2421C70.1289 57.1996 69.9197 57.2009 69.6975 57.2459C69.4752 57.291 69.2443 57.3789 69.0179 57.5047C68.7915 57.6306 68.574 57.7918 68.3779 57.9792C67.9819 58.3576 67.6969 58.8197 67.5856 59.2638C67.4743 59.708 67.5458 60.0978 67.7844 60.3476C67.9025 60.4713 68.0581 60.5569 68.2424 60.5995C68.4266 60.642 68.6358 60.6407 68.858 60.5957C69.0803 60.5506 69.3112 60.4627 69.5376 60.3369C69.764 60.211 69.9814 60.0498 70.1775 59.8624C70.3737 59.675 70.5446 59.4651 70.6806 59.2446C70.8166 59.0242 70.915 58.7975 70.9701 58.5775C71.0252 58.3575 71.036 58.1486 71.0019 57.9626C70.9677 57.7766 70.8893 57.6177 70.7711 57.494Z" fill="#C52D42"/>
<path d="M73.4179 59.866C73.5523 55.56 81.5931 55.0276 81.0055 58.2708C80.4539 61.3028 77.0667 62.0584 74.5455 61.358C73.8547 61.166 73.394 60.6144 73.4179 59.866ZM78.7867 57.4948C78.669 57.3711 78.5137 57.2856 78.3297 57.243C78.1457 57.2004 77.9365 57.2016 77.7142 57.2466C77.4919 57.2916 77.2608 57.3794 77.034 57.5051C76.8073 57.6308 76.5894 57.7919 76.3927 57.9792C76.1961 58.1665 76.0245 58.3763 75.8879 58.5966C75.7512 58.8169 75.6522 59.0435 75.5964 59.2634C75.5406 59.4832 75.5292 59.6921 75.5627 59.878C75.5963 60.0639 75.6742 60.2232 75.7919 60.3468C75.9097 60.4705 76.065 60.556 76.249 60.5986C76.433 60.6412 76.6422 60.64 76.8645 60.595C77.0868 60.55 77.3179 60.4622 77.5446 60.3365C77.7714 60.2108 77.9893 60.0497 78.1859 59.8624C78.3826 59.6751 78.5542 59.4653 78.6908 59.245C78.8275 59.0247 78.9265 58.7981 78.9823 58.5782C79.0381 58.3584 79.0495 58.1495 79.016 57.9636C78.9824 57.7777 78.9045 57.6184 78.7867 57.4948Z" fill="#C52D42"/>
<path d="M84.04 58.012C85.026 58.4032 86.0812 58.3 87.108 58.6908C88.8256 59.3456 86.9087 60.9192 86.1315 61.212C85.0999 61.6008 81.0844 62.054 81.2236 60.0652C81.2262 60.0321 81.2394 60.001 81.2611 59.9766C81.2829 59.9523 81.3119 59.9361 81.3436 59.9308L82.6412 59.7028C82.7116 59.6916 82.7652 59.7164 82.802 59.7772C83.2936 60.5832 84.702 60.696 85.4312 60.1944C85.4765 60.1635 85.5113 60.1195 85.5309 60.0684C85.5505 60.0172 85.5541 59.9612 85.5411 59.9077C85.5281 59.8542 85.4992 59.8058 85.4581 59.7688C85.4171 59.7318 85.3658 59.7079 85.3111 59.7004C84.2747 59.566 82.514 59.5252 81.8472 58.6712C81.8236 58.6408 81.8064 58.6061 81.7965 58.569C81.7866 58.5319 81.7843 58.4932 81.7896 58.4552C82.1664 55.8812 87.1915 55.4232 88.2471 57.4836C88.27 57.5285 88.282 57.5782 88.2821 57.6287C88.2822 57.6791 88.2704 57.7288 88.2478 57.7739C88.2251 57.8189 88.1922 57.858 88.1516 57.888C88.1111 57.9179 88.0641 57.9379 88.0144 57.9464L86.8484 58.1456C86.7604 58.16 86.686 58.136 86.6252 58.0736C85.8862 57.3123 85.0202 57.1676 84.0272 57.6396C83.9914 57.6569 83.9613 57.6842 83.9407 57.7183C83.9201 57.7523 83.9098 57.7914 83.9111 57.831C83.9123 57.8705 83.9251 57.9087 83.9479 57.9408C83.9706 57.9729 84.0032 57.9979 84.04 58.012Z" fill="#C52D42"/>
</g>
<rect x="1" y="1" width="110" height="110" rx="9" stroke="black" stroke-opacity="0.1" stroke-width="2"/>
<defs>
<clipPath id="clip0_755_414">
<rect x="2" y="2" width="108" height="108" rx="8" fill="white"/>
</clipPath>
</defs>
</svg>
