<svg width="112" height="112" viewBox="0 0 112 112" fill="none" xmlns="http://www.w3.org/2000/svg">
<g clip-path="url(#clip0_642_1037)">
<rect x="2" y="2" width="108" height="108" rx="8" fill="white"/>
<path d="M34.7598 52.9045H37.5259C38.783 52.9045 39.5978 53.6407 39.5978 54.6427C39.6069 54.9595 39.5177 55.2715 39.3423 55.5355C39.1669 55.7996 38.914 56.0028 38.6184 56.1172C39.4041 56.3432 39.9637 56.9782 39.9637 57.8156C39.9637 58.964 39.149 59.7788 37.7347 59.7788H34.7598V52.9045ZM37.3107 55.7523C37.8994 55.7523 38.3321 55.4381 38.3321 54.8095C38.3321 54.181 37.8703 53.8957 37.301 53.8957H36.046V55.7523H37.3107ZM37.5259 58.7853C38.1448 58.7853 38.6657 58.4711 38.6657 57.7446C38.6657 57.0181 38.1448 56.6941 37.4818 56.6941H36.046V58.7853H37.5259Z" fill="#1F4396"/>
<path d="M40.3512 57.2936C40.3512 55.7717 41.1659 54.6717 42.5501 54.6717C42.8677 54.6615 43.1821 54.7385 43.4591 54.8942C43.7361 55.05 43.9652 55.2787 44.1215 55.5554V54.8095H45.3291V59.7766H44.1215V59.0297C43.9636 59.305 43.7342 59.5326 43.4576 59.6881C43.1809 59.8437 42.8673 59.9215 42.5501 59.9133C41.1659 59.9133 40.3512 58.8144 40.3512 57.2925V57.2936ZM42.845 58.908C43.6597 58.908 44.1021 58.2504 44.1021 57.2936C44.1021 56.3368 43.6608 55.6867 42.845 55.6867C42.0291 55.6867 41.5879 56.3443 41.5879 57.3011C41.5879 58.258 42.0399 58.9037 42.845 58.9037V58.908Z" fill="#1F4396"/>
<path d="M46.2116 54.8095H47.4192V55.5941C47.5624 55.313 47.7821 55.078 48.0532 54.9165C48.3242 54.755 48.6354 54.6735 48.9508 54.6814C50.1186 54.6814 50.7278 55.3886 50.7278 56.5962V59.7766H49.49V56.8125C49.49 56.1054 49.1962 55.6931 48.5483 55.6931C47.8508 55.6931 47.4483 56.2227 47.4483 57.1268V59.7766H46.2116V54.8095Z" fill="#1F4396"/>
<path d="M51.4101 60.092H52.6672C52.7846 60.4741 53.1387 60.7302 53.7435 60.7302C54.5787 60.7302 54.9124 60.2093 54.9124 59.4387V58.879C54.7447 59.101 54.526 59.2794 54.2748 59.3989C54.0235 59.5185 53.7471 59.5757 53.4691 59.5657C52.114 59.5657 51.309 58.5443 51.309 57.1214C51.309 55.6985 52.114 54.6664 53.4691 54.6664C53.7641 54.657 54.0566 54.724 54.3182 54.8609C54.5797 54.9978 54.8015 55.1999 54.9619 55.4478V54.8095H56.1566V59.4376C56.1566 60.8712 55.2041 61.686 53.7317 61.686C52.4165 61.686 51.5619 61.0682 51.4144 60.0963L51.4101 60.092ZM53.7575 58.5701C54.5325 58.5701 54.9748 57.9803 54.9748 57.1268C54.9748 56.2733 54.5368 55.6867 53.7618 55.6867C52.9869 55.6867 52.5542 56.2754 52.5542 57.13C52.5542 57.9846 52.9955 58.5701 53.7618 58.5701H53.7575Z" fill="#1F4396"/>
<path d="M58.2801 57.3625V59.7766H57.0435V52.9045H58.2801V56.8512L60.0582 54.8063H61.5402L59.5179 57.0547L61.805 59.7766H60.2831L58.2812 57.3614L58.2801 57.3625Z" fill="#1F4396"/>
<path d="M61.4832 57.2936C61.4832 55.7717 62.4163 54.6621 64.006 54.6621C65.5957 54.6621 66.5106 55.7717 66.5106 57.2936C66.5106 58.8155 65.5871 59.9251 64.006 59.9251C62.4249 59.9251 61.4832 58.8155 61.4832 57.2936ZM64.0028 58.9231C64.8283 58.9231 65.2696 58.2461 65.2696 57.2936C65.2696 56.3411 64.8315 55.6641 64.0028 55.6641C63.174 55.6641 62.7166 56.3508 62.7166 57.2936C62.7166 58.2364 63.1719 58.9231 64.0028 58.9231Z" fill="#1F4396"/>
<path d="M68.3672 59.7766H67.1305V52.9045H68.3672V56.8512L70.1441 54.8063H71.6273L69.6049 57.0547L71.892 59.7766H70.3702L68.3672 57.3614V59.7766Z" fill="#1F4396"/>
<path d="M74.4052 52.9045H77.1745C78.4305 52.9045 79.2453 53.6407 79.2453 54.6427C79.2543 54.9598 79.1647 55.2719 78.9889 55.536C78.8131 55.8001 78.5597 56.0031 78.2637 56.1172C79.0494 56.3432 79.6091 56.9782 79.6091 57.8156C79.6091 58.964 78.7943 59.7788 77.3801 59.7788H74.4052V52.9045ZM76.9582 55.7523C77.5469 55.7523 77.9796 55.4381 77.9796 54.8095C77.9796 54.181 77.5178 53.8957 76.9485 53.8957H75.6914V55.7523H76.9582ZM77.1734 58.7853C77.7923 58.7853 78.3122 58.4711 78.3122 57.7446C78.3122 57.0181 77.7923 56.6941 77.1282 56.6941H75.6914V58.7853H77.1734Z" fill="#1F4396"/>
<path d="M79.9966 57.2936C79.9966 55.7717 80.8113 54.6717 82.1965 54.6717C82.514 54.6616 82.8282 54.7386 83.105 54.8944C83.3818 55.0501 83.6107 55.2787 83.7668 55.5554V54.8095H84.9744V59.7766H83.7668V59.0297C83.6089 59.3057 83.379 59.5338 83.1018 59.6896C82.8245 59.8454 82.5101 59.9231 82.1922 59.9144C80.807 59.9144 79.9922 58.8155 79.9922 57.2936H79.9966ZM82.4903 58.908C83.3051 58.908 83.7474 58.2504 83.7474 57.2936C83.7474 56.3368 83.3051 55.6792 82.4903 55.6792C81.6756 55.6792 81.2343 56.3368 81.2343 57.2936C81.2343 58.2504 81.6853 58.9037 82.4903 58.9037V58.908Z" fill="#1F4396"/>
<path d="M85.857 54.8095H87.0646V55.5941C87.2077 55.313 87.4275 55.078 87.6985 54.9165C87.9696 54.755 88.2808 54.6735 88.5962 54.6814C89.765 54.6814 90.3731 55.3886 90.3731 56.5962V59.7766H89.1365V56.8125C89.1365 56.1054 88.8416 55.6931 88.1936 55.6931C87.4962 55.6931 87.0937 56.2227 87.0937 57.1268V59.7766H85.857V54.8095Z" fill="#1F4396"/>
<path d="M92.4751 59.7766H91.2385V52.9045H92.4751V56.8512L94.2521 54.8063H95.7352L93.7086 57.0579L96 59.7766H94.4781L92.4751 57.3614V59.7766Z" fill="#1F4396"/>
<path d="M29.5204 53.9431L23.4695 46.0001L17.4196 53.9431C16.3982 55.2874 16 56.4574 16 57.7317C16 59.669 16.9687 61.4169 18.7144 62.6364L23.4695 65.9191L28.2256 62.6321C29.9682 61.4126 30.939 59.669 30.939 57.7317C30.939 56.4574 30.5408 55.2874 29.5204 53.9431ZM22.4987 62.3092V63.4791L19.5851 61.4869C18.2161 60.5656 17.4444 59.1965 17.4444 57.8016C17.4522 57.078 17.6405 56.3677 17.9922 55.7352C18.1418 56.1592 18.3905 56.5822 18.9383 57.2043L22.0273 60.6377C22.5234 61.2135 22.4987 61.5622 22.4987 62.3092ZM20.2083 56.4574C19.4355 55.6114 19.287 55.1378 19.287 54.6395C19.287 54.1412 19.386 53.7494 19.9823 52.9712L23.4695 48.44L26.9556 52.9712C27.5282 53.744 27.6531 54.167 27.6531 54.6395C27.6531 55.1378 27.5035 55.6082 26.7317 56.4574L23.4695 60.0931L20.2083 56.4574ZM27.3538 61.4869L24.4403 63.4791V62.3092C24.4403 61.5622 24.4156 61.2135 24.9139 60.6409L28.0018 57.2043C28.5485 56.5822 28.7982 56.1592 28.9478 55.7352C29.2991 56.3679 29.4874 57.078 29.4957 57.8016C29.4957 59.1965 28.7229 60.5656 27.3538 61.4869Z" fill="#1F4396"/>
</g>
<rect x="1" y="1" width="110" height="110" rx="9" stroke="#CCCCCC" stroke-width="2"/>
<defs>
<clipPath id="clip0_642_1037">
<rect x="2" y="2" width="108" height="108" rx="8" fill="white"/>
</clipPath>
</defs>
</svg>
