<svg width="113" height="112" viewBox="0 0 113 112" fill="none" xmlns="http://www.w3.org/2000/svg">
<g clip-path="url(#clip0_421_537)">
<rect x="2.5" y="2" width="108" height="108" rx="8" fill="white"/>
<g clip-path="url(#clip1_421_537)">
<path d="M56.5001 28.8433C41.5034 28.8433 29.3434 41.0033 29.3434 56C29.3434 70.9967 41.5034 83.1567 56.5001 83.1567C71.4967 83.1567 83.6567 70.9967 83.6567 56C83.6567 41.0033 71.4967 28.8433 56.5001 28.8433Z" fill="white"/>
<path d="M37.6666 75.42C38.2633 74.97 38.7933 74.44 39.3633 73.9567C39.4666 73.8733 39.5633 73.7833 39.6833 73.68C39.74 73.8567 39.7866 74 39.83 74.1467C40.1133 75.0767 40.71 75.7233 41.6266 76.0767C42.0033 76.2233 42.38 76.37 42.7666 76.4967C44.3966 77.0233 45.62 78.0367 46.45 79.52C46.53 79.6633 46.5933 79.7267 46.78 79.6733C48.49 79.1967 50.14 79.4 51.7366 80.1467C52.2533 80.3867 52.77 80.6267 53.3166 80.8067C54.1366 81.0833 54.8966 80.9667 55.6 80.47C55.7433 80.37 55.8833 80.2633 56.08 80.12C56.0933 81.1133 56.11 82.0633 56.1233 83.01C56.12 83.1667 56.0866 83.2567 55.8866 83.2433C54.91 83.19 53.9366 83.15 52.9633 83.03C50.8866 82.7767 48.8766 82.28 46.9266 81.5333C43.89 80.3767 41.17 78.6967 38.7066 76.6033C38.3666 76.3167 38.0366 76.0133 37.6966 75.7267C37.5766 75.6267 37.5566 75.5333 37.6666 75.42Z" fill="black"/>
<path d="M36.9533 37.2267C37.57 37.8967 38.1867 38.5667 38.83 39.2667C38.6733 39.32 38.5433 39.3667 38.4133 39.4033C37.42 39.69 36.7533 40.32 36.3933 41.2733C36.2433 41.6667 36.0967 42.0633 35.9633 42.4633C35.4467 44.0167 34.4567 45.18 33.0333 45.9867C32.8367 46.0967 32.7867 46.1933 32.85 46.4167C33.32 48.0667 33.1267 49.6633 32.4167 51.2133C32.2133 51.6533 32.02 52.0967 31.8367 52.5433C31.4267 53.54 31.55 54.4633 32.2533 55.2933C32.3133 55.3633 32.37 55.4367 32.4667 55.56C31.41 55.58 30.3967 55.6 29.3867 55.6167C29.2667 55.55 29.31 55.4367 29.31 55.34C29.36 51.0333 30.39 46.98 32.4933 43.2C33.0233 42.25 33.6133 41.34 34.2333 40.45C34.65 39.85 35.0867 39.27 35.55 38.7067C35.9233 38.26 36.3067 37.82 36.7067 37.3967C36.7767 37.3233 36.83 37.2233 36.9533 37.2267Z" fill="black"/>
<path d="M29.3933 56.55C30.3167 56.6033 31.24 56.6567 32.1967 56.71C32.1167 56.8633 32.05 57 31.98 57.1333C31.52 57.9867 31.4767 58.8633 31.87 59.7533C32.0467 60.1467 32.2267 60.5433 32.4233 60.93C33.18 62.4167 33.31 63.9633 32.86 65.5567C32.8067 65.7367 32.8233 65.83 33 65.9267C34.5233 66.7633 35.5367 68.03 36.14 69.6367C36.28 70.0133 36.44 70.3833 36.5767 70.76C37.0267 71.99 37.8867 72.6633 39.2867 72.6833C38.5633 73.4333 37.88 74.1433 37.1933 74.85C37.0267 74.9867 36.9533 74.83 36.87 74.7433C35.48 73.32 34.2533 71.7733 33.2167 70.08C31.42 67.14 30.2967 63.9633 29.7333 60.5767C29.5233 59.3133 29.42 58.0433 29.3233 56.77C29.3167 56.6867 29.3033 56.6 29.3933 56.55Z" fill="black"/>
<path d="M83.7767 55.5767C82.8433 55.5267 81.91 55.4733 80.9433 55.42C81.0367 55.2467 81.1167 55.1033 81.19 54.96C81.6267 54.12 81.67 53.2633 81.2867 52.3933C81.1033 51.9767 80.9133 51.5667 80.71 51.16C79.9767 49.6833 79.8533 48.1567 80.3033 46.58C80.35 46.4133 80.3567 46.3067 80.1733 46.2067C78.6267 45.3567 77.61 44.0633 77.01 42.4333C76.8567 42.0167 76.6833 41.6067 76.52 41.1967C76.12 40.17 75.3833 39.5667 74.2633 39.4533C74.16 39.4433 74.06 39.4267 73.9567 39.4133C73.9433 39.3067 74.0333 39.27 74.0867 39.2167C74.7 38.5967 75.3233 37.9833 75.93 37.3567C76.07 37.2167 76.14 37.2067 76.2833 37.3567C77.46 38.5633 78.5167 39.8667 79.4533 41.2633C79.5067 41.34 79.52 41.4567 79.6433 41.4767L79.6367 41.47C79.6833 41.69 79.8367 41.8533 79.9567 42.0333L79.9533 42.0267C80.0167 42.1333 80.08 42.24 80.1467 42.3433L80.14 42.3367C80.15 42.3733 80.15 42.4167 80.21 42.4067L80.2033 42.3967C80.1933 42.4567 80.2033 42.51 80.2667 42.5367C80.7 43.2167 81.0333 43.95 81.3733 44.67C81.8467 45.68 82.2133 46.7333 82.5467 47.7967C82.5767 47.89 82.6867 47.9567 82.6433 48.0733C82.5767 48.1767 82.67 48.23 82.7167 48.2967L82.71 48.29C82.7367 48.4167 82.7467 48.55 82.7933 48.6733C82.93 49.05 82.9333 49.4633 83.1333 49.82C83.13 50.2133 83.2233 50.6033 83.3267 50.9733C83.41 51.2633 83.3933 51.5467 83.4367 51.83C83.6133 53.0733 83.7833 54.3167 83.7767 55.5767Z" fill="black"/>
<path d="M75.9933 74.6733C75.42 74.0333 74.85 73.3967 74.2533 72.7333C74.3733 72.6933 74.4666 72.66 74.56 72.6333C75.5966 72.3467 76.3133 71.7167 76.6766 70.7067C76.8166 70.3067 76.97 69.9133 77.1033 69.5133C77.6133 67.9833 78.5866 66.8267 79.9866 66.03C80.2266 65.8933 80.2566 65.77 80.1866 65.52C79.72 63.87 79.9333 62.2767 80.6433 60.73C80.8733 60.2333 81.0866 59.73 81.2766 59.2167C81.5866 58.3667 81.4433 57.5733 80.8933 56.85C80.8 56.73 80.7033 56.6067 80.5666 56.4333C81.6166 56.41 82.62 56.39 83.62 56.37C83.7233 56.4333 83.6933 56.5333 83.6966 56.6233C83.72 58.1433 83.57 59.65 83.2966 61.1433C82.83 63.7067 81.9733 66.1433 80.7533 68.45C79.6533 70.5267 78.3066 72.43 76.75 74.1967C76.6133 74.35 76.4666 74.4967 76.3433 74.6633C76.22 74.83 76.1133 74.7933 75.9933 74.6733Z" fill="black"/>
<path d="M56.99 31.96C56.99 30.9433 56.9934 29.9833 56.9867 29.0267C56.9867 28.8333 57.0934 28.8433 57.23 28.8467C60.5134 28.9267 63.68 29.5533 66.7167 30.8067C69.9567 32.15 72.8034 34.08 75.3667 36.44C75.45 36.5167 75.5567 36.5667 75.4067 36.6967C74.7434 37.2633 74.0867 37.84 73.43 38.41C73.4167 38.4233 73.39 38.4167 73.33 38.4267C73.0934 36.9 72.03 36.18 70.6467 35.7533C69.69 35.46 68.7834 35.0467 68.0267 34.36C67.4567 33.8467 67 33.25 66.6267 32.5867C66.55 32.45 66.48 32.39 66.3134 32.4367C64.5767 32.92 62.9134 32.6933 61.3 31.93C60.7567 31.67 60.2134 31.4133 59.6334 31.24C58.8934 31.02 58.21 31.1367 57.5734 31.55C57.3934 31.6667 57.22 31.8 56.99 31.96Z" fill="black"/>
<path d="M39.6133 38.8C38.8933 38.1167 38.1767 37.44 37.46 36.7667C37.3067 36.6233 37.47 36.57 37.5333 36.5067C38.2467 35.79 39 35.12 39.79 34.4933C43.3733 31.6533 47.4567 29.92 51.97 29.1567C53.1533 28.9533 54.3433 28.82 55.54 28.74C55.7467 28.7267 55.8033 28.7767 55.7933 28.9833C55.7533 29.77 55.73 30.5533 55.7067 31.34C55.7033 31.5333 55.6633 31.5767 55.4833 31.47C54.43 30.8533 53.3733 30.8767 52.2967 31.4233C51.52 31.82 50.7467 32.2333 49.8867 32.4333C48.8267 32.6833 47.7733 32.61 46.73 32.35C46.57 32.31 46.4967 32.3233 46.4167 32.4733C45.5767 34.03 44.2867 35.0667 42.64 35.6933C42.1433 35.8833 41.6533 36.0867 41.1733 36.31C40.26 36.7267 39.7767 37.45 39.6933 38.44C39.6833 38.5333 39.67 38.6233 39.6567 38.7167C39.6533 38.7367 39.6367 38.7533 39.6133 38.8Z" fill="black"/>
<path d="M75.47 75.22C74.7533 74.5567 74.0333 73.89 73.2933 73.2033C73.2866 73.29 73.28 73.34 73.2766 73.39C73.2066 74.5867 72.61 75.4 71.4866 75.84C71.0633 76.0067 70.64 76.1867 70.2133 76.35C68.6666 76.9467 67.4266 77.91 66.61 79.36C66.4566 79.63 66.33 79.6967 66.0166 79.6167C64.5666 79.2433 63.1466 79.35 61.7833 80C61.3166 80.2233 60.85 80.45 60.38 80.6667C59.4366 81.1033 58.5066 81.0767 57.5866 80.5867C57.4833 80.5333 57.39 80.4367 57.23 80.4433C57.1933 81.27 57.1533 82.0933 57.1133 82.9167C57.07 83.2 57.2033 83.26 57.4666 83.2433C58.56 83.1667 59.6433 83.0433 60.7233 82.8733C64.0533 82.35 67.19 81.29 70.1033 79.6C72.04 78.4767 73.7966 77.1233 75.38 75.55C75.4733 75.46 75.61 75.3767 75.47 75.22Z" fill="black"/>
<path d="M56.5 16C34.4433 16 16.5 33.9433 16.5 56C16.5 78.0567 34.4433 96 56.5 96C78.5567 96 96.5 78.0567 96.5 56C96.5 33.9433 78.5567 16 56.5 16ZM56.5 94.52C35.2267 94.52 17.98 77.2733 17.98 56C17.98 34.7267 35.2267 17.48 56.5 17.48C77.7733 17.48 95.02 34.7267 95.02 56C95.02 77.2733 77.7733 94.52 56.5 94.52Z" fill="black"/>
<path d="M56.5 17.48C35.2266 17.48 17.98 34.7267 17.98 56C17.98 77.2733 35.2266 94.52 56.5 94.52C77.7733 94.52 95.02 77.2733 95.02 56C95.02 34.7267 77.7733 17.48 56.5 17.48ZM56.5 83.1567C41.5033 83.1567 29.3433 70.9967 29.3433 56C29.3433 41.0033 41.5033 28.8433 56.5 28.8433C71.4966 28.8433 83.6566 41.0033 83.6566 56C83.6566 70.9967 71.4966 83.1567 56.5 83.1567Z" fill="#019966"/>
<path d="M86.83 54.5567C87.3866 54.59 87.8766 54.7733 88.3833 54.89C88.48 54.91 88.6033 54.9967 88.66 54.8767C88.73 54.7233 88.5566 54.6933 88.47 54.6433C88.0766 54.43 87.6933 54.1967 87.3233 53.9433C87.0966 53.7867 86.91 53.5967 86.8266 53.32C86.77 53.1367 86.82 52.9833 86.9466 52.8667C87.0666 52.7567 87.2133 52.72 87.3833 52.7833C87.8 52.9433 88.01 53.31 88.2433 53.6533C88.41 53.9033 88.55 54.1733 88.7066 54.43C88.7566 54.5133 88.7866 54.66 88.9233 54.6C89.05 54.5467 88.95 54.4367 88.9333 54.3533C88.8233 53.7967 88.6 53.2567 88.6133 52.6767C88.6166 52.47 88.6566 52.2833 88.8166 52.14C89.06 51.92 89.33 51.96 89.4866 52.25C89.6233 52.5 89.6433 52.7667 89.58 53.04C89.4833 53.4733 89.3766 53.91 89.2733 54.3433C89.2566 54.42 89.19 54.5133 89.3066 54.5567C89.41 54.59 89.45 54.4933 89.4866 54.42C89.64 54.1233 89.7933 53.83 89.9433 53.53C90.08 53.2567 90.27 53.0233 90.5 52.8233C90.6966 52.65 91.05 52.61 91.19 52.76C91.3733 52.9567 91.3366 53.1833 91.2266 53.4C91.06 53.72 90.77 53.91 90.49 54.11C90.2266 54.2933 89.95 54.46 89.6833 54.6433C89.62 54.6867 89.5266 54.74 89.57 54.84C89.6166 54.9533 89.71 54.93 89.8066 54.9033C90.18 54.8 90.5533 54.7133 90.9233 54.6067C91.16 54.54 91.4 54.5467 91.6366 54.5567C91.9233 54.5733 92.1766 54.7933 92.1866 55.02C92.2 55.2367 91.99 55.4433 91.6933 55.4967C91.1433 55.6 90.63 55.3967 90.1033 55.29C89.99 55.27 89.8833 55.23 89.7733 55.2C89.6933 55.1767 89.6333 55.1867 89.5933 55.27C89.5466 55.37 89.62 55.3967 89.6833 55.4367C90.0066 55.6433 90.33 55.85 90.66 56.0533C90.8566 56.1767 91.0166 56.3433 91.17 56.51C91.4033 56.76 91.42 57.08 91.24 57.2767C91.09 57.4367 90.74 57.4167 90.5 57.2033C90.2233 56.96 90.0333 56.6467 89.85 56.33C89.7333 56.12 89.6166 55.91 89.4966 55.7033C89.46 55.6367 89.4333 55.53 89.32 55.5833C89.2133 55.63 89.2666 55.72 89.2833 55.8C89.39 56.3367 89.5733 56.8633 89.55 57.4267C89.5433 57.5867 89.5166 57.7367 89.41 57.86C89.3 57.9867 89.1766 58.1433 89 58.1067C88.81 58.07 88.69 57.9067 88.6166 57.7233C88.4933 57.4133 88.58 57.1067 88.6466 56.8033C88.7233 56.46 88.8333 56.1233 88.9233 55.78C88.9433 55.7033 89.0333 55.5967 88.8866 55.5433C88.7666 55.5 88.7533 55.6233 88.7133 55.68C88.4133 56.13 88.17 56.6167 87.77 56.9967C87.45 57.3033 87.0933 57.3833 86.89 57.1767C86.6966 56.9833 86.7833 56.5933 87.0966 56.2967C87.4766 55.9433 87.9566 55.7533 88.3933 55.49C88.4466 55.4567 88.5033 55.43 88.5566 55.4C88.62 55.3633 88.7033 55.33 88.6566 55.24C88.6166 55.1633 88.5466 55.22 88.49 55.2333C88.0633 55.33 87.64 55.4267 87.2133 55.53C87.0266 55.5733 86.84 55.5667 86.6533 55.55C86.3566 55.52 86.0866 55.2767 86.1 55.0467C86.1133 54.75 86.3566 54.6633 86.5833 54.5833C86.67 54.5533 86.77 54.5633 86.83 54.5567Z" fill="black"/>
<path d="M24.0267 52.7533C24.0267 53.25 23.8401 53.71 23.7367 54.1867C23.7167 54.2833 23.6434 54.42 23.7567 54.4667C23.8867 54.5167 23.9034 54.35 23.9534 54.2733C24.2467 53.8067 24.4067 53.26 24.8101 52.8633C25.0967 52.5767 25.4467 52.4933 25.6401 52.6733C25.8567 52.8767 25.8034 53.2167 25.5101 53.5367C25.1234 53.96 24.6201 54.22 24.1634 54.5467C24.0867 54.6 23.9467 54.6167 24.0067 54.77C24.0734 54.93 24.1901 54.8267 24.2734 54.8067C24.7567 54.6833 25.2334 54.54 25.7267 54.4567C25.9234 54.4233 26.1101 54.45 26.2801 54.5167C26.4767 54.5967 26.6534 54.7533 26.6367 54.9833C26.6201 55.1933 26.4567 55.33 26.2501 55.3867C25.8634 55.4933 25.4834 55.4267 25.1067 55.34C24.8234 55.2767 24.5434 55.1967 24.2601 55.13C24.1867 55.1133 24.0867 55.08 24.0401 55.1833C23.9901 55.2933 24.1034 55.32 24.1634 55.3633C24.6067 55.6767 25.1034 55.9067 25.4967 56.2933C25.6567 56.45 25.7867 56.6167 25.7867 56.8567C25.7867 57.2267 25.5067 57.41 25.1734 57.2533C24.8667 57.11 24.6634 56.86 24.5001 56.5767C24.3201 56.27 24.1467 55.9633 23.9734 55.6533C23.9267 55.5767 23.8934 55.4567 23.7734 55.51C23.6567 55.5567 23.7067 55.6733 23.7267 55.7567C23.8301 56.16 23.9201 56.5633 23.9867 56.9767C24.0201 57.18 24.0134 57.37 23.9634 57.5633C23.8867 57.8467 23.6601 58.06 23.4434 58.0033C23.1867 57.94 23.0534 57.74 23.0234 57.48C22.9834 57.1 23.0734 56.7367 23.1801 56.3767C23.2501 56.1367 23.3234 55.8967 23.3901 55.6567C23.4101 55.5833 23.4067 55.5 23.3234 55.4633C23.2234 55.42 23.2067 55.5233 23.1734 55.5767C22.8367 56.09 22.5667 56.6467 22.0734 57.0433C21.7234 57.3233 21.2934 57.23 21.2334 56.8567C21.2001 56.6667 21.2934 56.5167 21.4101 56.3767C21.7901 55.9233 22.3334 55.7067 22.8234 55.4167C22.9301 55.3533 23.1601 55.3133 23.1067 55.1867C23.0334 55.0133 22.8434 55.17 22.7201 55.2C22.3067 55.3033 21.8934 55.4067 21.4734 55.4733C21.2134 55.5133 20.9701 55.4767 20.7567 55.32C20.6301 55.23 20.5034 55.1 20.5334 54.9367C20.5634 54.7567 20.6834 54.6167 20.8701 54.5567C21.2534 54.4267 21.6301 54.5 22.0067 54.59C22.2801 54.6567 22.5467 54.74 22.8201 54.8067C22.9201 54.8333 23.0567 54.95 23.1234 54.8067C23.1967 54.6533 23.0201 54.63 22.9334 54.5733C22.5601 54.3433 22.1834 54.1233 21.8134 53.89C21.6267 53.7733 21.4634 53.6233 21.3567 53.4233C21.2367 53.2 21.1801 52.9567 21.4001 52.77C21.6201 52.58 21.8634 52.6733 22.0601 52.8267C22.3667 53.0633 22.5934 53.38 22.7834 53.7167C22.9067 53.9367 23.0334 54.1533 23.1667 54.3633C23.2101 54.4333 23.2367 54.5767 23.3567 54.5167C23.4534 54.47 23.4067 54.3433 23.3867 54.26C23.3101 53.9233 23.2301 53.59 23.1367 53.26C23.0634 53.0033 23.0667 52.7433 23.0834 52.4833C23.1001 52.1867 23.3401 51.9167 23.5701 51.92C23.7934 51.9233 23.9967 52.1667 24.0234 52.4733C24.0334 52.5667 24.0267 52.66 24.0267 52.7533Z" fill="black"/>
<path d="M33.85 34.54C33.5333 34.2633 33.16 34.1467 32.74 34.1833C32.5333 34.2067 32.3133 34.2833 32.0833 34.4133C32.1333 34.1867 32.14 33.97 32.0966 33.7667C32.0333 33.4533 31.8766 33.1833 31.6333 32.9733C31.35 32.7267 31.0166 32.6 30.6366 32.6C30.6333 32.6 30.63 32.6 30.63 32.6C30.2566 32.6 29.8733 32.7367 29.4933 33.0067C29.2466 33.1833 28.96 33.4567 28.6433 33.82L26.8933 35.8333L27.2133 36.11L27.4433 35.8433C27.5633 35.7033 27.6866 35.6367 27.8166 35.6333C27.8666 35.6367 27.9966 35.6667 28.3333 35.96L31.2 38.4533C31.51 38.7233 31.57 38.8467 31.5833 38.8867C31.62 39.0267 31.5733 39.17 31.44 39.32L31.21 39.5867L31.5266 39.8633L33.43 37.6733C33.88 37.1567 34.1566 36.7433 34.2833 36.4C34.41 36.0533 34.43 35.7067 34.3433 35.3667C34.2566 35.0267 34.09 34.7467 33.85 34.54ZM30.8433 33.83C30.9933 33.96 31.0966 34.12 31.1566 34.3033C31.2166 34.4867 31.2166 34.67 31.1533 34.8633C31.09 35.0667 30.9233 35.3233 30.66 35.6267C30.5533 35.7467 30.4533 35.8533 30.3566 35.95C30.2966 36.01 30.2366 36.0667 30.1766 36.1167L28.6333 34.7733C28.73 34.5967 28.8533 34.42 29.01 34.24C29.3366 33.8633 29.6733 33.6467 30.0066 33.6C30.3366 33.5533 30.61 33.63 30.8433 33.83ZM32.3033 37.9633L30.6466 36.5267C30.68 36.4833 30.7166 36.4333 30.7566 36.38C30.8366 36.28 30.9333 36.1633 31.05 36.0333C31.3066 35.7367 31.5666 35.5233 31.8266 35.4C32.0733 35.28 32.3066 35.24 32.52 35.28C32.7366 35.32 32.9233 35.41 33.0766 35.5433C33.31 35.7467 33.4233 36.0033 33.42 36.3267C33.42 36.6533 33.2566 37.0067 32.9366 37.3767C32.75 37.5867 32.54 37.7867 32.3033 37.9633Z" fill="black"/>
<path d="M40.5333 30.97C40.3566 31.0867 40.1933 31.1367 40.0466 31.1267C39.94 31.1167 39.72 31.0533 39.2866 30.7967L34.6533 28.05L34.3933 28.2433L35.6466 33.4433C35.75 33.87 35.79 34.1767 35.7566 34.36C35.75 34.3933 35.7166 34.4933 35.51 34.71L35.4333 34.79L35.6733 35.1133L37.3666 33.8533L37.12 33.5233L37.0166 33.5867C36.7233 33.7733 36.6033 33.7867 36.57 33.79C36.48 33.7867 36.4433 33.7533 36.4266 33.73C36.3866 33.6767 36.3266 33.5567 36.26 33.28L36.0466 32.38L37.73 31.1267L38.4466 31.55C38.7433 31.7267 38.86 31.8367 38.9066 31.8967C38.94 31.94 38.9466 31.99 38.93 32.0533C38.92 32.0967 38.87 32.19 38.6633 32.3633L38.5666 32.44L38.8166 32.7733L40.8833 31.2367L40.6366 30.9033L40.5333 30.97ZM35.8966 31.7667L35.4133 29.7433L37.1966 30.7967L35.8966 31.7667Z" fill="black"/>
<path d="M45.04 27.2333L45.0467 27.3433C45.06 27.72 45.0367 28.0133 44.9767 28.2133C44.9167 28.4067 44.8267 28.5667 44.7034 28.6867C44.58 28.8133 44.3167 28.9667 43.9234 29.1467L43.5334 29.3267C43.0667 29.5433 42.9634 29.5567 42.95 29.5567C42.9 29.56 42.8634 29.55 42.8367 29.53C42.8 29.5033 42.7234 29.4167 42.6034 29.1567L41.06 25.8C40.8767 25.3967 40.8567 25.2667 40.86 25.2267C40.86 25.1533 40.8967 25.0733 40.9667 24.99C41.02 24.9267 41.15 24.82 41.48 24.6733L41.6 24.62L41.4234 24.2367L38.77 25.4533L38.9467 25.8367L39.2667 25.69C39.4334 25.6133 39.5734 25.6033 39.6934 25.6567C39.7234 25.6667 39.8334 25.7433 40.0267 26.1667L41.6134 29.6133C41.7867 29.9933 41.7934 30.1233 41.7867 30.16C41.7634 30.3067 41.6634 30.42 41.48 30.5033L41.16 30.65L41.3367 31.0333L45.67 29.0433L45.43 27.1467L45.04 27.2333Z" fill="black"/>
<path d="M49.0734 27.6067C48.9601 27.6367 48.8467 27.64 48.7301 27.61C48.6567 27.5933 48.6067 27.5667 48.5801 27.53C48.5501 27.49 48.4867 27.3733 48.3867 27.02L47.3567 23.3633C47.2334 22.93 47.2634 22.8033 47.2734 22.7767C47.3267 22.6467 47.4434 22.56 47.6367 22.5067L47.9667 22.4133L47.8501 22.0067L45.1801 22.76L45.2934 23.1633L45.6201 23.0733C45.7334 23.04 45.8467 23.04 45.9634 23.0667C46.0334 23.0833 46.0834 23.1133 46.1134 23.15C46.1434 23.19 46.2067 23.3067 46.3067 23.66L47.3367 27.3167C47.4567 27.75 47.4301 27.8767 47.4201 27.9033C47.3701 28.03 47.2501 28.12 47.0567 28.1733L46.7301 28.2633L46.8434 28.67L49.5167 27.9167L49.4001 27.5133L49.0734 27.6067Z" fill="black"/>
<path d="M60.8433 21.5667C60.39 21.32 59.71 21.16 58.8233 21.0867L56.31 20.88L56.2766 21.3L56.6266 21.33C56.81 21.3433 56.94 21.4033 57.0166 21.51C57.0366 21.5333 57.0933 21.6533 57.0566 22.1167L56.7433 25.9033C56.71 26.3167 56.65 26.4333 56.6233 26.4667C56.5366 26.58 56.3933 26.6267 56.1933 26.61L55.8433 26.58L55.8066 27L58.55 27.2267C58.7133 27.24 58.87 27.2467 59.0233 27.2467C59.9666 27.2467 60.72 26.9933 61.2633 26.4867C61.8233 25.96 62.1433 25.2633 62.2133 24.4167C62.2666 23.79 62.1666 23.2133 61.9166 22.7067C61.6666 22.1967 61.3066 21.8133 60.8433 21.5667ZM58.1833 21.7267C58.47 21.6833 58.7266 21.6733 58.9466 21.69C59.6033 21.7433 60.11 22.0033 60.4933 22.4833C60.87 22.9567 61.03 23.5867 60.9666 24.36C60.9033 25.1233 60.6433 25.72 60.19 26.13C59.7366 26.54 59.2066 26.7133 58.57 26.6633C58.3566 26.6467 58.0966 26.59 57.79 26.5L58.1833 21.7267Z" fill="black"/>
<path d="M71.72 24.98C71.8333 24.88 71.9333 24.8233 72.0167 24.8067C72.1033 24.7933 72.2067 24.8067 72.33 24.85L72.4533 24.8933L72.5933 24.4933L70.6933 23.8267L70.5533 24.2233L70.6767 24.2667C70.8267 24.32 70.9433 24.38 71.02 24.4433C71.0533 24.47 71.0733 24.5033 71.0867 24.5467C71.1 24.59 71.1 24.6267 71.0867 24.6633C71.0567 24.7433 70.9633 24.9133 70.68 25.2667L68.7833 27.6567V24.6433C68.7833 24.18 68.82 23.98 68.85 23.8933C68.8767 23.8167 68.9167 23.77 68.9767 23.7433C69.0367 23.7167 69.1333 23.7233 69.25 23.7667L69.52 23.86L69.66 23.4633L67.26 22.6167L67.12 23.0133L67.2433 23.0567C67.3733 23.1033 67.4233 23.1367 67.4433 23.15C67.4933 23.1867 67.54 23.2367 67.5833 23.3C67.6133 23.3433 67.6333 23.3867 67.6467 23.4333C67.68 23.5533 67.7 23.69 67.7067 23.83V24.7233L66.12 26.72L66.1233 23.5967C66.1267 23.1133 66.1533 22.9633 66.17 22.92C66.19 22.8633 66.2267 22.8233 66.29 22.8C66.36 22.7733 66.4533 22.78 66.5667 22.82L66.7867 22.8967L66.9267 22.5L64.63 21.6933L64.49 22.09L64.6133 22.1333C64.7533 22.1833 64.8567 22.24 64.9167 22.3067C64.9733 22.3733 65.01 22.45 65.0233 22.5467C65.03 22.5933 65.04 22.75 65.04 23.22L65.0633 28.4967L65.3867 28.61L67.7133 25.72L67.7267 29.4367L68.0633 29.5533L71.24 25.5533C71.5367 25.1667 71.6633 25.0267 71.72 24.98Z" fill="black"/>
<path d="M72.9566 31.4133C72.92 31.3467 72.9066 31.29 72.9133 31.2467C72.92 31.1967 72.9633 31.07 73.15 30.7567L75.1066 27.5C75.3366 27.1133 75.45 27.0467 75.4766 27.0367C75.6066 26.9867 75.75 27.0133 75.92 27.1133L76.2166 27.29L76.4333 26.93L74.0533 25.5L73.8366 25.8633L74.1266 26.0367C74.2266 26.0967 74.3066 26.1767 74.3666 26.28C74.4 26.3467 74.4133 26.4 74.4066 26.4467C74.4 26.4967 74.3566 26.6233 74.17 26.9367L72.2133 30.1933C71.9833 30.58 71.8733 30.65 71.8466 30.66C71.7166 30.71 71.57 30.6833 71.4 30.58L71.11 30.4033L70.8933 30.7667L73.27 32.1933L73.49 31.8333L73.1933 31.6567C73.0933 31.5967 73.0166 31.5167 72.9566 31.4133Z" fill="black"/>
<path d="M79.0966 32.78C79.5666 32.7467 79.97 32.5267 80.2967 32.13C80.54 31.8333 80.6633 31.5033 80.6667 31.1433C80.67 30.79 80.5833 30.46 80.4067 30.1633C80.2333 29.8767 79.9367 29.5567 79.52 29.2167L77.7567 27.77L77.49 28.0933L77.76 28.3167C77.9033 28.4333 77.9767 28.5567 77.98 28.6867C77.98 28.7167 77.96 28.8433 77.6633 29.2067L75.25 32.1433C74.9767 32.4733 74.8667 32.53 74.8433 32.5367C74.7 32.58 74.5567 32.54 74.3967 32.41L74.1267 32.19L73.86 32.5133L76.0033 34.2767L76.27 33.95L75.9967 33.7233C75.8533 33.6067 75.7833 33.4867 75.78 33.3567C75.78 33.3267 75.7966 33.1967 76.0966 32.8333L77.08 31.6333C77.1667 31.74 77.2533 31.8367 77.3366 31.9233C77.4533 32.0467 77.57 32.1567 77.6833 32.25C78.1533 32.6367 78.63 32.8133 79.0966 32.78ZM78.8267 29.51C78.9833 29.5933 79.11 29.67 79.1967 29.7433C79.3667 29.8833 79.4867 30.0467 79.5567 30.2267C79.6267 30.4067 79.6367 30.6 79.5833 30.81C79.53 31.0233 79.4267 31.2233 79.28 31.4033C79.0633 31.6667 78.82 31.81 78.5367 31.85C78.2533 31.8867 78.02 31.82 77.8133 31.6533C77.7533 31.6033 77.6833 31.5367 77.6067 31.4567C77.5433 31.3933 77.48 31.32 77.4067 31.2367L78.8267 29.51Z" fill="black"/>
<path d="M84.43 33.8333L84.22 33.5867L79.1167 35.1933C78.6967 35.33 78.3934 35.3867 78.21 35.3667C78.1767 35.3633 78.0734 35.3367 77.8434 35.1467L77.7567 35.0767L77.4534 35.3367L78.8267 36.94L79.14 36.67L79.0667 36.5733C78.86 36.2933 78.8334 36.1767 78.8334 36.14C78.83 36.05 78.86 36.0133 78.8834 35.9933C78.9334 35.95 79.05 35.8833 79.3234 35.7967L80.2034 35.52L81.57 37.1167L81.1967 37.8567C81.0434 38.17 80.94 38.2933 80.8834 38.34C80.8434 38.3767 80.7934 38.39 80.73 38.3767C80.6867 38.3667 80.5867 38.3267 80.4034 38.13L80.3167 38.04L80 38.31L81.6767 40.2667L81.9934 39.9967L81.9167 39.9C81.7934 39.7333 81.73 39.5733 81.73 39.4267C81.73 39.3167 81.78 39.0933 82.0067 38.6433L84.43 33.8333ZM82.7934 34.71L81.86 36.56L80.8067 35.33L82.7934 34.71Z" fill="black"/>
<path d="M35.3601 77.88L35.5734 78.1067C35.6367 78.1767 35.6801 78.2567 35.7034 78.3533C35.7167 78.41 35.7167 78.4533 35.7034 78.4867C35.6867 78.52 35.6234 78.61 35.4001 78.82L32.9134 81.1333C32.7434 81.29 32.6534 81.3233 32.6134 81.33C32.5634 81.3367 32.5267 81.33 32.51 81.3167C32.4934 81.2933 32.5 81.2367 32.5334 81.1633C32.6734 80.8433 32.6867 80.72 32.6834 80.65C32.6767 80.54 32.6367 80.4433 32.56 80.3633C32.4634 80.26 32.3434 80.2033 32.1934 80.1933C32.0734 80.1933 31.9534 80.24 31.8401 80.3433C31.7034 80.47 31.64 80.6433 31.6467 80.8567C31.6567 81.0633 31.75 81.2633 31.9267 81.4533C32.14 81.6833 32.4001 81.8167 32.6934 81.85C32.7567 81.8567 32.8201 81.86 32.8834 81.86C33.0967 81.86 33.3001 81.82 33.4901 81.7367C33.7301 81.6333 33.9934 81.4467 34.2767 81.1833L36.0567 79.5267C36.3367 79.2667 36.4367 79.2433 36.4534 79.24C36.5634 79.2333 36.6701 79.2833 36.7801 79.4033L36.9901 79.63L37.28 79.36L35.6534 77.61L35.3601 77.88Z" fill="black"/>
<path d="M49.0533 90.9767C49.0066 90.9033 48.9433 90.7233 48.9 90.3033L48.4633 85.7567L48.1733 85.6667L45.24 89.1233C44.9433 89.4767 44.7666 89.6067 44.6733 89.6533C44.6566 89.66 44.5766 89.69 44.32 89.6567L44.2133 89.6433L44.1 90.0033L45.8466 90.5433L45.96 90.17L45.8466 90.1267C45.57 90.02 45.5066 89.95 45.4933 89.93C45.45 89.8667 45.4633 89.8333 45.4666 89.82C45.4833 89.77 45.5333 89.67 45.6866 89.49L46.1866 88.9067L47.86 89.4233L47.9266 90.1067C47.9566 90.3967 47.94 90.53 47.9233 90.5867C47.9133 90.6133 47.8966 90.6467 47.8366 90.67C47.8133 90.68 47.73 90.6967 47.5066 90.64L47.3866 90.61L47.27 90.9833L49.3933 91.64L49.5066 91.2667L49.3933 91.2233C49.23 91.1633 49.1166 91.08 49.0533 90.9767ZM47.8133 88.85L46.56 88.4633L47.65 87.1833L47.8133 88.85Z" fill="black"/>
<path d="M63.79 86.1L63.8833 86.4833L64.01 86.4533C64.1466 86.42 64.22 86.4233 64.2533 86.43C64.3033 86.44 64.34 86.4567 64.37 86.4833C64.3966 86.51 64.4166 86.5433 64.4266 86.5833C64.4366 86.63 64.44 86.7567 64.3366 87.0633L63.8166 88.59L62.5766 87.4167C62.32 87.1733 62.29 87.0867 62.2866 87.07C62.27 87.0133 62.2833 86.97 62.33 86.93C62.3966 86.87 62.47 86.83 62.5633 86.8067L62.7966 86.75L62.7 86.3633L60.3833 86.93L60.4766 87.3133L60.6033 87.2833C60.6933 87.26 60.74 87.2633 60.76 87.27C60.9966 87.3167 61.0833 87.36 61.1133 87.38C61.1566 87.41 61.2633 87.4933 61.5233 87.7333L63.3133 89.4067L63.5833 90.5133C63.6666 90.8533 63.6433 90.9533 63.6366 90.9733C63.5966 91.0767 63.5 91.1467 63.3366 91.1867L63.04 91.2567L63.1333 91.6433L65.44 91.0833L65.3433 90.6967L65.06 90.7667C64.9033 90.8033 64.7833 90.7933 64.7 90.74C64.6866 90.73 64.6133 90.6633 64.52 90.2867L64.2333 89.11L64.94 87.0267C65.0233 86.7733 65.1 86.5833 65.1666 86.4667C65.2333 86.3567 65.31 86.2633 65.4033 86.19C65.5266 86.0933 65.5833 86.07 65.6033 86.0667L65.8233 86.0133L65.73 85.6267L63.79 86.1Z" fill="black"/>
<path d="M81.23 80.6833L81.1366 80.7633C81.0066 80.8767 80.8766 80.94 80.7566 80.9467C80.6666 80.95 80.48 80.9233 80.0933 80.76L75.8833 78.98L75.6666 79.1933L77.3133 83.42C77.48 83.8467 77.5133 84.0633 77.5066 84.1667C77.5066 84.19 77.4933 84.27 77.3433 84.48L77.28 84.57L77.5433 84.8367L78.8466 83.56L78.5766 83.2833L78.4833 83.3633C78.2566 83.5533 78.1666 83.5767 78.1433 83.58C78.0766 83.5867 78.05 83.5667 78.0333 83.55C77.9966 83.5133 77.9333 83.42 77.8466 83.1967L77.57 82.48L78.82 81.2567L79.4566 81.5233C79.7233 81.6367 79.8333 81.71 79.8766 81.7567C79.8933 81.7733 79.9166 81.8067 79.9066 81.8667C79.9033 81.8967 79.88 81.9767 79.7233 82.1467L79.64 82.2367L79.9133 82.5167L81.5 80.9633L81.23 80.6833ZM78.2966 81.0233L77.36 81.9433L76.7533 80.3733L78.2966 81.0233Z" fill="black"/>
<path d="M40.88 61.1333C40.65 61.1333 40.4566 61.11 40.27 61.1367C39.59 61.24 39.1666 61.7767 39.1166 62.55C39.05 63.6333 39.3933 64.6133 39.8833 65.5467C40.98 67.6233 42.58 69.1633 44.78 70.0367C46.14 70.5767 47.5566 70.6633 48.9966 70.5033C50.16 70.3733 51.3133 70.18 52.4033 69.7267C54.8766 68.6933 56.2533 66.8233 56.3733 64.1667C56.4633 62.2367 55.8766 60.4633 54.4 59.1033C52.4633 57.32 48.9966 57.5567 47.3866 59.5567C46.97 60.0767 46.83 60.4767 46.7466 61.4133C45.27 60.5933 44.31 58.8167 46.0033 57.2533C46.1366 57.13 46.28 57.0167 46.4266 56.91C47.49 56.1467 48.6933 55.7167 49.9566 55.4333C50.9333 55.2167 51.89 54.9533 52.73 54.3767C53.4966 53.85 54.1166 53.1967 54.4666 52.3167C55.06 50.8167 54.5033 49.4433 53.02 48.8133C52.7466 48.7 52.6833 48.5667 52.6866 48.29C52.7133 47.1667 52.7166 46.0433 52.7133 44.92C52.71 44.7067 52.77 44.65 52.9833 44.6433C55.23 44.5867 57.0833 45.4067 58.5 47.1567C59.9733 48.98 60.03 51.4933 58.69 53.6367C57.9666 54.7933 57.0133 55.73 55.9233 56.5367C55.72 56.6867 55.7033 56.7467 55.9233 56.9C57.24 57.8167 58.4233 58.8767 59.3233 60.22C61.4066 63.33 61.0733 66.86 58.44 69.5333C56.6266 71.3767 54.4066 72.4367 51.87 72.8167C47.5966 73.45 43.9533 72.1033 40.8166 69.22C39.8333 68.3133 38.89 67.3733 38.1666 66.2367C37.2866 64.85 36.71 63.3667 36.7733 61.6933C36.8033 60.9133 36.9833 60.1733 37.4533 59.53C38.13 58.6067 39.1166 58.5367 39.9033 59.36C40.3766 59.8567 40.66 60.4533 40.88 61.1333Z" fill="#8C8101"/>
<path d="M44.9433 41.4867C45.42 41.65 45.88 41.8667 46.3667 42.0133C48.14 42.54 49.89 42.38 51.6333 41.8667C53.2 41.4067 54.6867 40.7333 56.1967 40.13C57.88 39.4567 59.5933 38.8967 61.39 38.58C62.89 38.3167 64.34 38.4733 65.79 38.89C67.48 39.3767 69.0867 40.0233 70.48 41.1233C72.2034 42.48 73.2 44.2667 73.5634 46.4133C73.8367 48.04 73.8 49.6667 73.45 51.2733C73.2534 52.1867 72.72 52.95 72.1867 53.7C70.9733 55.39 69.4867 56.76 67.58 57.6367C66.9634 57.92 66.3233 58.1433 65.62 58.2933C65.62 57.5533 65.62 56.8267 65.62 56.1C65.62 56.0067 65.6834 55.9733 65.7567 55.9367C67.7667 54.9533 68.96 53.2567 69.7767 51.2467C70.0867 50.4867 70.3767 49.72 70.4234 48.8833C70.5134 47.3 70.09 45.8633 69.1534 44.5933C67.8634 42.8367 66.06 41.88 63.97 41.43C62.3367 41.0733 60.6867 41.05 59.07 41.4967C58.0967 41.7633 57.1733 42.2133 56.2133 42.5467C54.3433 43.1967 52.44 43.7033 50.4433 43.75C48.39 43.8 46.5567 43.2567 45.1 41.7267C45.0333 41.66 44.9433 41.61 44.9333 41.5033L44.9433 41.4867Z" fill="#8C8101"/>
<path d="M60.4667 68.87C61.0467 68.9933 61.62 69.14 62.2067 69.23C63.9367 69.4967 65.6133 69.3967 67.1667 68.49C68.4333 67.7467 69.29 66.6267 69.9433 65.34C71.1167 63.04 71.5767 60.5867 71.4367 58.02C71.39 57.2067 71.3433 56.5567 71.12 55.7667C71.09 55.6567 71.0467 55.5567 71.17 55.4367C72.16 54.4533 72.92 53.3133 73.4933 52.0433C73.5067 52.01 73.5333 51.98 73.5633 51.9367C74.2133 53.0267 74.5767 54.03 74.8333 55.2567C75.1167 56.6 75.1633 57.9533 75.0333 59.32C74.9367 60.2833 74.8767 61.25 74.73 62.2067C74.42 64.2467 73.6 66.06 72.3433 67.6767C71 69.4033 69.1667 70.33 67.0633 70.73C65.2667 71.0733 63.53 70.85 61.9067 69.9633C61.3733 69.6767 60.8867 69.3233 60.4667 68.87Z" fill="#8C8101"/>
<path d="M41.5467 47.9533C41.9101 48.1767 42.2701 48.39 42.6567 48.56C43.1867 48.7933 43.7434 48.9467 44.3234 48.9533C44.5467 48.9567 44.5867 49.04 44.5834 49.2433C44.5767 51.3733 44.5801 53.5067 44.5801 55.6367C44.5801 58.96 44.5834 62.28 44.5734 65.6033C44.5734 65.8833 44.6534 66.09 44.8301 66.3C45.2367 66.7733 45.6067 67.2733 45.9067 67.8233C46.0267 68.0433 46.1267 68.27 46.1734 68.52C46.2401 68.8933 46.0667 69.1133 45.6867 69.13C45.2134 69.15 44.7767 68.9967 44.3567 68.81C43.1601 68.28 42.0701 67.5933 41.2467 66.5467C41.0501 66.2967 40.8934 66.0233 40.8567 65.6967C40.8201 65.32 40.9801 65.0333 41.2901 64.85C41.4834 64.7433 41.5167 64.61 41.5167 64.41C41.5134 59.0333 41.5134 53.6567 41.5134 48.2833C41.5134 48.18 41.4867 48.0733 41.5467 47.9533Z" fill="#8C8101"/>
<path d="M62.1534 48.8633C63.3501 49.21 64.3734 49.8067 65.2367 50.6733C65.3267 50.76 65.3167 50.86 65.3167 50.9633C65.3101 52.6633 65.3034 54.3633 65.3034 56.06C65.3034 59.2767 65.3134 62.4933 65.3134 65.7067C65.3134 65.85 65.3567 65.94 65.4767 66.0133C65.7067 66.1533 65.9167 66.32 66.1067 66.5133C66.7201 67.1433 66.6367 67.71 65.8701 68.1333C65.4867 68.3433 65.0701 68.46 64.6434 68.53C63.8001 68.67 62.9634 68.6233 62.1401 68.3767C61.1567 68.08 60.9501 67.4433 61.5767 66.62C61.6501 66.52 61.7201 66.4067 61.8167 66.3367C62.1701 66.0767 62.2334 65.7367 62.2301 65.3133C62.2034 63.0967 62.2101 60.88 62.2001 58.66C62.1867 55.5067 62.1701 52.35 62.1534 49.1967C62.1501 49.0933 62.1534 48.9867 62.1534 48.8633Z" fill="#8C8101"/>
<path d="M52.3267 62.2433C52.3267 63.4033 52.33 64.5633 52.32 65.7267C52.3167 65.9467 52.3867 66.1033 52.5433 66.2533C52.84 66.54 53.1067 66.8567 53.3 67.2233C53.6567 67.9067 53.4833 68.41 52.78 68.7133C52.29 68.9267 51.7667 69.0067 51.24 69.04C50.1967 69.1 49.15 69.1467 48.1267 68.8433C46.9867 68.5033 46.7533 67.7133 47.54 66.82C47.7467 66.5867 47.9733 66.38 48.23 66.21C48.4033 66.1 48.4633 65.9667 48.4633 65.7633C48.4567 63.72 48.4667 61.6733 48.46 59.63C48.4567 59.42 48.53 59.31 48.7067 59.2067C49.7633 58.59 50.9067 58.3467 52.1233 58.38C52.3233 58.3867 52.3567 58.4667 52.3567 58.6433C52.35 59.8433 52.3533 61.0433 52.3533 62.2433C52.3433 62.2433 52.3333 62.2433 52.3267 62.2433Z" fill="#8C8101"/>
<path d="M48.3533 55.37C48.3533 55.1033 48.3533 54.8733 48.3533 54.6433C48.3633 51.7733 48.3699 48.9033 48.3766 46.0333C48.3799 45.5267 48.3799 45.5233 48.8566 45.35C49.8799 44.9833 50.9366 44.7767 52.0199 44.7067C52.2599 44.69 52.3066 44.7467 52.3033 44.9733C52.2799 47.2067 52.2633 49.4433 52.2466 51.68C52.2433 52.2367 52.2233 52.7933 52.2433 53.35C52.2533 53.6267 52.1399 53.7967 51.9433 53.9567C51.5533 54.2767 51.1233 54.51 50.6433 54.67C49.8933 54.92 49.1066 55.0433 48.3533 55.37Z" fill="#8C8101"/>
<path d="M58.1899 43.82C58.7499 44.3133 59.2966 44.8067 59.8699 45.27C60.9399 46.13 62.1333 46.5933 63.5233 46.5833C64.6833 46.5733 65.8466 46.6267 66.9833 46.8967C68.0899 47.16 69.0599 47.72 70.0066 48.3267C70.1933 48.4467 70.1299 48.6133 70.1199 48.7633C70.0433 49.68 69.7699 50.5433 69.3966 51.3767C69.2933 51.61 69.1833 51.8367 69.0666 52.0867C67.9433 50.9 66.6199 50.07 65.1833 49.4133C64.2599 48.99 63.2799 48.7033 62.3333 48.3433C61.4499 48.0067 60.5999 47.6133 59.8733 46.9967C58.8933 46.1667 58.3733 45.0833 58.1899 43.82Z" fill="#8C8101"/>
<path d="M39.8199 43.37C40.2566 43.9367 40.6633 44.4167 41.1466 44.83C42.5833 46.0667 44.2433 46.44 46.0833 46.1267C46.6433 46.0333 47.1866 45.8833 47.7166 45.6867C47.9133 45.6133 47.9866 45.62 47.9833 45.8567C47.9766 46.71 47.9866 47.5633 47.9933 48.4167C47.9933 48.5433 47.9933 48.6333 47.8233 48.6467C46.1899 48.7633 44.5666 48.7667 43.0033 48.1633C41.2133 47.4767 40.2633 46.1233 39.9399 44.2767C39.8899 44.0067 39.8666 43.7267 39.8199 43.37Z" fill="#8C8101"/>
<path d="M57.6934 55.97C58.5634 56.21 59.4267 56.4267 60.31 56.5533C60.7667 56.6167 61.2234 56.6633 61.6834 56.6633C61.8734 56.6633 61.9267 56.7333 61.92 56.9167C61.9067 57.3367 61.9134 57.76 61.92 58.1833C61.92 58.3133 61.8967 58.3833 61.7434 58.3533C60.13 58.0067 58.75 57.2567 57.6934 55.97Z" fill="#8C8101"/>
<path d="M57.6934 55.97C58.5634 56.21 59.4267 56.4267 60.31 56.5533C60.7667 56.6167 61.2234 56.6633 61.6834 56.6633C61.8734 56.6633 61.9267 56.7333 61.92 56.9167C61.9167 57.0233 61.9134 57.13 61.9134 57.2333C61.9134 57.2333 59.2267 57.3167 57.6934 55.97Z" fill="url(#paint0_linear_421_537)"/>
<path d="M44.9333 41.5033C44.91 41.49 44.8866 41.48 44.8633 41.47C44.8733 41.46 44.8833 41.45 44.8899 41.44C44.9066 41.4567 44.9233 41.47 44.9433 41.4867L44.9333 41.5033Z" fill="#8C8101"/>
</g>
</g>
<rect x="1.5" y="1" width="110" height="110" rx="9" stroke="#CCCCCC" stroke-width="2"/>
<defs>
<linearGradient id="paint0_linear_421_537" x1="57.6934" y1="56.6033" x2="61.92" y2="56.6033" gradientUnits="userSpaceOnUse">
<stop stop-color="#847424"/>
<stop offset="0.258824" stop-color="#E5D71A"/>
<stop offset="0.65098" stop-color="#E5D71A"/>
<stop offset="0.85098" stop-color="#E5D71A"/>
<stop offset="0.980392" stop-color="#847424"/>
<stop offset="1" stop-color="#847424"/>
</linearGradient>
<clipPath id="clip0_421_537">
<rect x="2.5" y="2" width="108" height="108" rx="8" fill="white"/>
</clipPath>
<clipPath id="clip1_421_537">
<rect width="80" height="80" fill="white" transform="translate(16.5 16)"/>
</clipPath>
</defs>
</svg>
