<svg width="113" height="112" viewBox="0 0 113 112" fill="none" xmlns="http://www.w3.org/2000/svg">
<g clip-path="url(#clip0_528_591)">
<rect x="2.5" y="2" width="108" height="108" rx="8" fill="white"/>
<path fill-rule="evenodd" clip-rule="evenodd" d="M38.1023 69.2886L42.4754 42.3375H19.8373C18.1804 42.3375 16.8373 43.6806 16.8373 45.3375V66.2886C16.8373 67.9455 18.1804 69.2886 19.8373 69.2886H38.1023Z" fill="url(#paint0_linear_528_591)"/>
<path fill-rule="evenodd" clip-rule="evenodd" d="M42.4754 42.3375L38.1023 69.2886H69.7867L65.4149 42.3375H42.4754Z" fill="url(#paint1_linear_528_591)"/>
<path fill-rule="evenodd" clip-rule="evenodd" d="M65.4149 42.3375L69.7867 69.2886H93.1613C94.8182 69.2886 96.1613 67.9455 96.1613 66.2886V45.3375C96.1613 43.6806 94.8182 42.3375 93.1613 42.3375H65.4149Z" fill="url(#paint2_linear_528_591)"/>
<path fill-rule="evenodd" clip-rule="evenodd" d="M20.2213 42.0001H92.7787C93.8027 42.0001 94.7327 42.4194 95.4074 43.0927C96.082 43.7674 96.5 44.6974 96.5 45.7214V65.9045C96.5 66.9286 96.0807 67.8586 95.4074 68.5333C94.7327 69.2079 93.8027 69.6259 92.7787 69.6259H20.2213C19.1973 69.6259 18.2673 69.2066 17.5926 68.5333C16.918 67.8586 16.5 66.9286 16.5 65.9045V45.7214C16.5 44.6974 16.9193 43.7674 17.5926 43.0927C18.2673 42.4181 19.1973 42.0001 20.2213 42.0001ZM92.7773 42.6761H20.2213C19.3841 42.6761 18.6221 43.0188 18.0711 43.5711C17.5187 44.1235 17.176 44.8842 17.176 45.7214V65.9045C17.176 66.7418 17.5187 67.5038 18.0711 68.0548C18.6234 68.6072 19.3841 68.9499 20.2213 68.9499H92.7787C93.6159 68.9499 94.3779 68.6072 94.929 68.0548C95.4813 67.5025 95.824 66.7418 95.824 65.9045V45.7214C95.824 44.8842 95.4813 44.1222 94.929 43.5711C94.3766 43.0188 93.6159 42.6761 92.7787 42.6761H92.7773Z" fill="white"/>
<path fill-rule="evenodd" clip-rule="evenodd" d="M37.0016 46.6757C36.8484 46.8236 36.8148 46.8988 36.7153 47.091C36.6306 47.2563 36.5514 47.431 36.4774 47.6138C36.2328 48.2199 36.046 48.916 35.8821 49.6592C35.4009 51.8472 35.1792 53.9706 34.8056 56.1518C34.7465 56.4998 34.6725 56.8936 34.5489 57.2605C34.3836 57.7551 34.135 58.2039 33.6659 58.4606C33.5087 58.5466 33.3286 58.6111 33.1203 58.6501H26.9369C27.2621 58.3047 27.5376 57.6301 27.7782 56.7659C27.9663 56.0913 28.133 55.3037 28.2862 54.4678C28.5604 52.9666 28.731 51.448 28.977 49.9428C29.1759 48.7266 29.6167 47.0251 30.7187 46.6757H37.0002H37.0016Z" fill="#F0B300"/>
<path fill-rule="evenodd" clip-rule="evenodd" d="M44.8784 56.3103C44.8784 56.5643 44.8408 56.7995 44.7668 57.0159C44.6902 57.2296 44.5854 57.4245 44.4483 57.5951C44.3113 57.7658 44.1473 57.9163 43.9551 58.0467C43.7629 58.1744 43.5466 58.2846 43.3073 58.3719C43.0654 58.4593 42.8074 58.5251 42.5332 58.5681C42.2591 58.6125 41.9433 58.634 41.5898 58.634H39.1223C39.0108 58.634 38.906 58.6017 38.8065 58.5372C38.7071 58.4714 38.6573 58.3571 38.6573 58.1959V50.9709C38.6573 50.8083 38.7071 50.6954 38.8065 50.6296C38.906 50.565 39.0108 50.5328 39.1223 50.5328H41.2686C41.8317 50.5328 42.294 50.5771 42.6528 50.6699C43.0144 50.7613 43.3154 50.897 43.5546 51.0717C43.7965 51.2464 43.978 51.4628 44.0976 51.7168C44.2199 51.9708 44.2817 52.2597 44.2817 52.5796C44.2817 52.7718 44.2548 52.9559 44.1997 53.1306C44.1473 53.3053 44.068 53.4679 43.9632 53.6158C43.8584 53.7636 43.7293 53.8953 43.5694 54.0136C43.4122 54.1305 43.2307 54.2246 43.0265 54.3025C43.2832 54.3428 43.5251 54.4194 43.7481 54.531C43.9726 54.6398 44.1661 54.7809 44.3354 54.9516C44.5021 55.1223 44.6338 55.3239 44.7319 55.5537C44.8287 55.7822 44.8784 56.0348 44.8784 56.3103ZM88.7442 56.2028C88.7442 56.4918 88.6999 56.7525 88.6071 56.985C88.513 57.2202 88.3854 57.4271 88.2241 57.6072C88.0601 57.7873 87.8653 57.9405 87.6395 58.0682C87.4151 58.1986 87.1637 58.3061 86.8923 58.3894C86.6208 58.4727 86.3292 58.5345 86.0201 58.5735C85.711 58.6138 85.3669 58.6326 84.9866 58.6326H82.4788C82.3175 58.6326 82.1818 58.5923 82.0729 58.5104C81.9627 58.4297 81.909 58.2967 81.909 58.1125V51.0489C81.909 50.8647 81.9641 50.733 82.0729 50.6511C82.1831 50.5704 82.3175 50.5288 82.4788 50.5288H84.8495C85.4274 50.5288 85.9179 50.5718 86.3184 50.6551C86.7189 50.7384 87.0576 50.8647 87.3317 51.0327C87.6086 51.2021 87.8169 51.4158 87.9647 51.6738C88.1085 51.9318 88.1838 52.2382 88.1838 52.589C88.1838 52.7852 88.1542 52.9693 88.0937 53.1427C88.036 53.3161 87.9513 53.4733 87.8397 53.6144C87.7282 53.7582 87.5911 53.8819 87.4258 53.9907C87.2645 54.0996 87.0777 54.1869 86.8681 54.2541C87.1369 54.2971 87.3842 54.3697 87.6099 54.4745C87.8344 54.5794 88.0333 54.7124 88.1999 54.8791C88.3666 55.043 88.501 55.2365 88.5977 55.4583C88.6945 55.6787 88.7415 55.926 88.7415 56.2015L88.7442 56.2028ZM86.2633 52.7919C86.2633 52.628 86.2337 52.4815 86.176 52.3538C86.1182 52.2235 86.0295 52.1159 85.9125 52.0313C85.7983 51.9453 85.6505 51.8794 85.4717 51.8324C85.2943 51.788 85.0578 51.7638 84.7621 51.7638H83.7905V53.8671H84.8643C85.1411 53.8671 85.3629 53.8389 85.5268 53.7838C85.6935 53.7287 85.8306 53.6494 85.9408 53.5526C86.051 53.4545 86.1303 53.3389 86.1854 53.2059C86.2378 53.0755 86.2647 52.9371 86.2647 52.7919H86.2633ZM86.7512 56.2606C86.7512 56.0725 86.7162 55.9031 86.641 55.7566C86.5684 55.6075 86.4622 55.4825 86.3224 55.383C86.18 55.2849 86.0012 55.2056 85.7822 55.1519C85.5631 55.0981 85.2796 55.0712 84.9274 55.0712H83.7891V57.3747H85.1761C85.4422 57.3747 85.6666 57.3519 85.8507 57.3022C86.0322 57.2551 86.1894 57.1852 86.3238 57.0912C86.4582 56.9971 86.563 56.8802 86.6369 56.7404C86.7122 56.5993 86.7485 56.4407 86.7485 56.262L86.7512 56.2606ZM81.2558 51.2061C81.2558 51.3284 81.2478 51.4305 81.2357 51.5165C81.2236 51.6026 81.2061 51.6724 81.1806 51.7235C81.155 51.7746 81.1255 51.8149 81.0905 51.8391C81.0529 51.8646 81.0139 51.8781 80.9682 51.8781H78.6043V58.4096C78.6043 58.4499 78.5895 58.4888 78.5572 58.5211C78.525 58.5547 78.4726 58.5829 78.4 58.6017C78.3274 58.6232 78.228 58.6407 78.103 58.6528C77.9807 58.6662 77.8261 58.6716 77.6393 58.6716C77.4525 58.6716 77.3007 58.6649 77.1757 58.6528C77.0534 58.6394 76.9539 58.6232 76.8814 58.6017C76.8061 58.5829 76.7537 58.5547 76.7241 58.5211C76.6919 58.4888 76.6771 58.4512 76.6771 58.4096V51.8781H74.3118C74.2647 51.8781 74.2217 51.8646 74.1895 51.8391C74.1545 51.8162 74.125 51.7746 74.0994 51.7235C74.0766 51.6724 74.0578 51.6012 74.0443 51.5165C74.0349 51.4305 74.0268 51.3284 74.0268 51.2061C74.0268 51.0838 74.0349 50.9749 74.0443 50.8876C74.0564 50.8002 74.0766 50.729 74.0994 50.6779C74.125 50.6242 74.1545 50.5879 74.1895 50.565C74.2217 50.5422 74.2647 50.5314 74.3118 50.5314H80.9655C81.0099 50.5314 81.0502 50.5422 81.0879 50.565C81.1228 50.5879 81.1524 50.6255 81.1779 50.6779C81.2034 50.729 81.2209 50.8002 81.233 50.8876C81.2451 50.9749 81.2532 51.0825 81.2532 51.2061H81.2558ZM73.3791 58.0561C73.3791 58.1529 73.3589 58.2375 73.3213 58.3141C73.281 58.3894 73.2286 58.4512 73.164 58.4996C73.0969 58.5507 73.0202 58.587 72.9302 58.6111C72.8402 58.6326 72.7488 58.6447 72.656 58.6447H71.8389C71.6696 58.6447 71.5204 58.63 71.3981 58.6004C71.2731 58.5722 71.1589 58.5198 71.0541 58.4418C70.9493 58.3652 70.8471 58.2604 70.7504 58.1273C70.6536 57.997 70.5434 57.8263 70.4238 57.6166L68.0732 53.8294C67.9389 53.6023 67.7991 53.3618 67.658 53.101C67.5182 52.8403 67.3919 52.5863 67.279 52.3404H67.2642C67.2844 52.6401 67.2991 52.9384 67.3086 53.2381C67.3166 53.5378 67.3207 53.8456 67.3207 54.1614V58.4015C67.3207 58.4418 67.3086 58.4808 67.2803 58.513C67.2548 58.5466 67.2078 58.5749 67.1432 58.599C67.0761 58.6219 66.9887 58.6394 66.8772 58.6528C66.7656 58.6662 66.6205 58.6716 66.4458 58.6716C66.271 58.6716 66.134 58.6649 66.0224 58.6528C65.9109 58.6394 65.8235 58.6232 65.759 58.599C65.6972 58.5749 65.6542 58.548 65.63 58.513C65.6045 58.4808 65.5924 58.4432 65.5924 58.4015V51.1187C65.5924 50.9239 65.6596 50.7774 65.7939 50.6779C65.9256 50.5798 66.091 50.5301 66.2845 50.5301H67.3153C67.4994 50.5301 67.6539 50.5435 67.7816 50.5704C67.9093 50.5986 68.0208 50.643 68.1203 50.7048C68.2197 50.7666 68.3152 50.854 68.4012 50.9655C68.4885 51.0744 68.5786 51.2115 68.67 51.3741L70.5098 54.3361C70.6173 54.5162 70.7221 54.6936 70.8256 54.8656C70.9304 55.039 71.0326 55.2123 71.1293 55.3844C71.2261 55.5577 71.3215 55.7284 71.4129 55.8951C71.5056 56.0617 71.5943 56.2284 71.6817 56.395H71.6898C71.675 56.102 71.6642 55.7983 71.6575 55.4798C71.6494 55.164 71.6481 54.8602 71.6481 54.574V50.772C71.6481 50.7317 71.6629 50.6927 71.6911 50.6591C71.7207 50.6269 71.7704 50.5973 71.8376 50.5718C71.9048 50.5489 71.9948 50.5288 72.1064 50.5207C72.2179 50.5099 72.3631 50.5032 72.5378 50.5032C72.7125 50.5032 72.8415 50.5099 72.9531 50.5207C73.0646 50.5288 73.152 50.5489 73.2124 50.5718C73.2743 50.5973 73.3173 50.6269 73.3401 50.6591C73.3656 50.6927 73.3777 50.7317 73.3777 50.772V58.0534L73.3791 58.0561ZM64.2699 58.4714C64.2699 58.5036 64.2605 58.5332 64.2431 58.5587C64.2229 58.5843 64.1906 58.6031 64.1436 58.6206C64.0966 58.638 64.0334 58.6501 63.9487 58.6595C63.8668 58.6676 63.7619 58.673 63.6356 58.673C63.5093 58.673 63.3964 58.6689 63.3117 58.6622C63.227 58.6555 63.1545 58.6447 63.098 58.6326C63.0389 58.6179 62.9905 58.5964 62.9542 58.5681C62.9193 58.5426 62.887 58.5077 62.8575 58.4714L60.0863 55.3535V58.4781C60.0863 58.5103 60.0769 58.5399 60.0567 58.5614C60.0366 58.5843 60.0043 58.6044 59.9626 58.6206C59.9183 58.638 59.8578 58.6501 59.7812 58.6595C59.7019 58.6676 59.6025 58.673 59.4802 58.673C59.3659 58.673 59.2678 58.6689 59.1885 58.6595C59.1119 58.6515 59.0488 58.638 59.0044 58.6206C58.9574 58.6031 58.9251 58.5843 58.9103 58.5614C58.8929 58.5399 58.8835 58.5103 58.8835 58.4781V50.1135C58.8835 50.0799 58.8929 50.049 58.9103 50.0261C58.9251 50.0006 58.9574 49.9791 59.0044 49.9616C59.0488 49.9468 59.1119 49.9334 59.1885 49.9253C59.2678 49.9173 59.3659 49.9119 59.4802 49.9119C59.6025 49.9119 59.7019 49.9159 59.7812 49.9253C59.8578 49.9334 59.9183 49.9468 59.9626 49.9616C60.0056 49.9791 60.0379 50.0006 60.0567 50.0261C60.0769 50.049 60.0863 50.0799 60.0863 50.1135V55.2083L62.5672 52.8685C62.6048 52.8255 62.6465 52.7919 62.6922 52.7637C62.7338 52.7382 62.7862 52.714 62.8494 52.6952C62.9085 52.6764 62.9811 52.6656 63.0631 52.6589C63.1451 52.6522 63.2445 52.6481 63.3614 52.6481C63.4784 52.6481 63.5859 52.6522 63.6679 52.6589C63.7498 52.6656 63.817 52.6737 63.8694 52.6885C63.9192 52.7032 63.9568 52.7221 63.9796 52.7462C63.9998 52.7677 64.0119 52.8 64.0119 52.8363C64.0119 52.8874 63.9944 52.9371 63.9649 52.9855C63.9326 53.0365 63.8802 53.0943 63.8076 53.1602L61.4289 55.2029L64.0979 58.1757C64.1597 58.2456 64.2054 58.3034 64.2323 58.3491C64.2592 58.3921 64.2726 58.4324 64.2726 58.4714H64.2699ZM57.7492 58.4781C57.7492 58.5103 57.7398 58.5399 57.7196 58.5614C57.6995 58.5843 57.6699 58.6044 57.6255 58.6206C57.5812 58.638 57.5207 58.6501 57.4441 58.6595C57.3648 58.6676 57.2667 58.673 57.1525 58.673C57.0302 58.673 56.9307 58.6689 56.8514 58.6595C56.7748 58.6515 56.7144 58.638 56.67 58.6206C56.627 58.6031 56.5948 58.5843 56.5759 58.5614C56.5558 58.5399 56.5464 58.5103 56.5464 58.4781V55.1788C56.5464 54.8562 56.5195 54.5968 56.459 54.4033C56.4012 54.2071 56.3166 54.0378 56.205 53.8953C56.0935 53.7542 55.9483 53.6453 55.7696 53.5701C55.5922 53.4948 55.3879 53.4572 55.1541 53.4572C54.853 53.4572 54.552 53.5486 54.2496 53.7327C53.9459 53.9168 53.6301 54.1856 53.3008 54.5404V58.4794C53.3008 58.5117 53.2914 58.5413 53.2712 58.5628C53.2511 58.5856 53.2188 58.6058 53.1771 58.6219C53.1328 58.6394 53.0723 58.6515 52.9957 58.6609C52.9164 58.6689 52.817 58.6743 52.6947 58.6743C52.5804 58.6743 52.4823 58.6703 52.403 58.6609C52.3264 58.6528 52.2633 58.6394 52.2189 58.6219C52.1719 58.6044 52.1396 58.5856 52.1249 58.5628C52.1074 58.5413 52.098 58.5117 52.098 58.4794V52.8443C52.098 52.8107 52.106 52.7825 52.1208 52.7583C52.1356 52.7368 52.1652 52.7153 52.2082 52.6965C52.2525 52.6777 52.3076 52.6669 52.3775 52.6602C52.4447 52.6535 52.5348 52.6495 52.6463 52.6495C52.7578 52.6495 52.8425 52.6535 52.9124 52.6602C52.9823 52.6669 53.0374 52.6777 53.0764 52.6965C53.114 52.7153 53.1435 52.7368 53.161 52.7583C53.1758 52.7812 53.1866 52.8094 53.1866 52.8443V53.5902C53.5548 53.2354 53.923 52.9747 54.2926 52.8107C54.6582 52.6468 55.0304 52.5635 55.4027 52.5635C55.8408 52.5635 56.2091 52.628 56.5087 52.7556C56.8071 52.882 57.0517 53.0527 57.2358 53.2637C57.4199 53.4773 57.5516 53.7273 57.6323 54.0122C57.7143 54.2985 57.7546 54.6425 57.7546 55.0417V58.4808L57.7492 58.4781ZM50.9906 58.4848C50.9906 58.5345 50.9704 58.5722 50.9314 58.5964C50.8938 58.6219 50.8387 58.6407 50.7715 58.6542C50.7016 58.6676 50.6022 58.673 50.4732 58.673C50.3441 58.673 50.2447 58.6662 50.1694 58.6542C50.0942 58.6407 50.0404 58.6219 50.0055 58.5964C49.9705 58.5735 49.9558 58.5345 49.9558 58.4848V57.9204C49.6668 58.1838 49.3483 58.3881 48.9948 58.5332C48.6441 58.6783 48.2705 58.7536 47.8767 58.7536C47.53 58.7536 47.2168 58.7146 46.9373 58.6367C46.6578 58.5601 46.4199 58.4485 46.2223 58.3034C46.0261 58.1556 45.8716 57.9768 45.7614 57.7645C45.6538 57.5508 45.6001 57.3089 45.6001 57.0374C45.6001 56.7189 45.6753 56.4461 45.8245 56.2109C45.9764 55.9784 46.1928 55.7835 46.475 55.629C46.7559 55.4731 47.1026 55.3575 47.5111 55.2809C47.9197 55.2043 48.3807 55.1653 48.8914 55.1653H49.7958V54.7272C49.7958 54.5095 49.7689 54.3173 49.7165 54.1506C49.6614 53.984 49.5768 53.8456 49.4572 53.7354C49.3375 53.6238 49.183 53.5405 48.9935 53.4827C48.804 53.4276 48.5702 53.3994 48.2933 53.3994C47.995 53.3994 47.7302 53.429 47.4937 53.4894C47.2571 53.5513 47.0502 53.6171 46.8741 53.6897C46.6954 53.7623 46.5476 53.8281 46.4279 53.8899C46.3083 53.9504 46.221 53.98 46.1618 53.98C46.1242 53.98 46.0893 53.9719 46.0597 53.9558C46.0301 53.9383 46.0046 53.9128 45.9831 53.8792C45.9629 53.8469 45.9455 53.8039 45.9361 53.7515C45.9267 53.7004 45.9213 53.6426 45.9213 53.5808C45.9213 53.476 45.9307 53.3927 45.9482 53.3335C45.9656 53.2731 46.0059 53.2166 46.0731 53.1602C46.1377 53.1064 46.2505 53.0432 46.4118 52.9693C46.5717 52.8968 46.7559 52.8309 46.9642 52.7691C47.1738 52.7086 47.4023 52.6602 47.6509 52.6199C47.8969 52.5796 48.1495 52.5594 48.4035 52.5594C48.8739 52.5594 49.2757 52.6065 49.6063 52.6979C49.9369 52.7892 50.2044 52.925 50.4087 53.1024C50.6129 53.2798 50.7621 53.5002 50.8548 53.7623C50.9476 54.0257 50.9946 54.3307 50.9946 54.6815V58.4835L50.9906 58.4848ZM49.7931 55.9112H48.765C48.4344 55.9112 48.1468 55.9354 47.9036 55.9811C47.6617 56.0308 47.4601 56.1007 47.2988 56.1948C47.1389 56.2888 47.0193 56.4017 46.9454 56.5321C46.8701 56.6651 46.8338 56.8143 46.8338 56.985C46.8338 57.278 46.9413 57.5105 47.1577 57.6838C47.3741 57.8572 47.6778 57.9446 48.0662 57.9446C48.382 57.9446 48.6736 57.876 48.9451 57.7376C49.2139 57.6005 49.4975 57.3895 49.7945 57.1046V55.9098L49.7931 55.9112ZM42.9888 52.6858C42.9888 52.4896 42.9566 52.3122 42.8948 52.1536C42.8329 51.995 42.7335 51.8606 42.5964 51.749C42.4593 51.6375 42.2833 51.5528 42.0629 51.495C41.8438 51.4373 41.5549 51.4077 41.1933 51.4077H39.8965V54.0324H41.3264C41.653 54.0324 41.9164 53.9961 42.1153 53.9208C42.3142 53.8483 42.4795 53.7502 42.6112 53.6279C42.7429 53.5042 42.8383 53.3604 42.9001 53.1965C42.9593 53.0298 42.9902 52.8605 42.9902 52.6858H42.9888ZM43.5587 56.3722C43.5587 56.1303 43.5143 55.9166 43.4216 55.7351C43.3315 55.551 43.2025 55.3951 43.0278 55.2715C42.8558 55.1452 42.6394 55.0511 42.38 54.9852C42.118 54.9207 41.7927 54.8885 41.3963 54.8885H39.8951V57.7443H41.7175C42.0064 57.7443 42.255 57.7147 42.4701 57.657C42.6838 57.5992 42.8733 57.5118 43.0359 57.3962C43.1998 57.2833 43.3275 57.1395 43.4189 56.9689C43.5116 56.7982 43.5587 56.5993 43.5587 56.3722Z" fill="white"/>
<path fill-rule="evenodd" clip-rule="evenodd" d="M24.9828 52.6481C25.304 54.1076 25.4519 55.5241 25.7005 56.9796C25.7408 57.2108 25.7892 57.4742 25.8712 57.7188C25.9814 58.048 26.1467 58.3477 26.4598 58.5198C26.5646 58.5775 26.6842 58.6192 26.824 58.6461H26.9409C27.2648 58.2994 27.539 57.626 27.7795 56.7659C27.9677 56.0913 28.1343 55.3037 28.2875 54.4678C28.5187 53.2045 28.6759 51.9291 28.8668 50.6578H24.2356C24.3377 50.7572 24.3606 50.807 24.4264 50.9346C24.4829 51.0448 24.5353 51.1617 24.585 51.284C24.7476 51.6886 24.8726 52.1536 24.9815 52.6481H24.9828Z" fill="#00ABE6"/>
<path fill-rule="evenodd" clip-rule="evenodd" d="M28.8668 50.6591C28.6759 51.9291 28.5187 53.2045 28.2875 54.4692C28.1343 55.3051 27.9677 56.094 27.7795 56.7673C27.539 57.6274 27.2648 58.3007 26.9409 58.6474H32.2736C32.0573 58.4176 31.8731 57.9674 31.7119 57.3909C31.5869 56.9406 31.4753 56.4152 31.3732 55.8574C31.1904 54.8562 31.0762 53.8429 30.9122 52.839C30.7805 52.0272 30.4849 50.893 29.7497 50.6605H28.8654L28.8668 50.6591Z" fill="#007BBF"/>
<path fill-rule="evenodd" clip-rule="evenodd" d="M69.7343 62.0543H69.5166C69.5475 61.7626 69.5636 61.5409 69.5636 61.3904C69.5636 61.1767 69.5058 61.0074 69.3902 60.8837C69.2746 60.7601 69.1187 60.6983 68.9198 60.6983C68.6148 60.6983 68.3473 60.8098 68.1189 61.0302C67.8904 61.2506 67.7775 61.4992 67.7775 61.7747C67.7775 61.9212 67.8084 62.0556 67.8716 62.1752C67.9334 62.2948 68.0718 62.4615 68.2855 62.6765C68.6766 63.0595 68.9346 63.3606 69.0569 63.5769C69.1792 63.7947 69.241 64.0057 69.241 64.2126C69.241 64.5164 69.1483 64.808 68.9629 65.0889C68.7774 65.3697 68.5059 65.6022 68.1457 65.7837C67.7856 65.9665 67.4052 66.0565 67.0047 66.0565C66.6043 66.0565 66.275 65.953 66.0049 65.7474C65.7347 65.5404 65.5977 65.3241 65.5977 65.0969C65.5977 64.9746 65.6326 64.8738 65.7052 64.7919C65.7764 64.7112 65.857 64.6709 65.9484 64.6709C66.0398 64.6709 66.1218 64.7085 66.1823 64.7838C66.2226 64.8281 66.2602 64.9289 66.3005 65.0848C66.3449 65.2743 66.3986 65.4114 66.4631 65.4961C66.5277 65.5807 66.615 65.6493 66.7279 65.7044C66.8408 65.7581 66.9631 65.785 67.0961 65.785C67.4939 65.785 67.842 65.6506 68.1404 65.3818C68.436 65.1144 68.5866 64.8161 68.5866 64.4922C68.5866 64.3806 68.5677 64.2704 68.5301 64.1602C68.4925 64.05 68.4253 63.925 68.3231 63.7866C68.2546 63.6912 68.1 63.5245 67.8608 63.2853C67.6243 63.0515 67.4765 62.8915 67.4146 62.8055C67.3273 62.6805 67.2641 62.5542 67.2225 62.4279C67.1808 62.3016 67.1593 62.1752 67.1593 62.0502C67.1593 61.7962 67.2453 61.5436 67.4146 61.2869C67.584 61.0302 67.8044 60.8273 68.0759 60.6754C68.3473 60.5235 68.6551 60.4469 69.0005 60.4469C69.1725 60.4469 69.3862 60.4738 69.6388 60.5262C69.784 60.5531 69.909 60.5746 70.0151 60.5894C69.9533 60.7708 69.9063 60.9402 69.8727 61.1001C69.8404 61.26 69.7947 61.5772 69.7356 62.0529L69.7343 62.0543ZM70.085 62.776C70.339 62.5919 70.5326 62.4991 70.6696 62.4991C70.7866 62.4991 70.8968 62.573 71.0002 62.7209C71.2059 63.0071 71.3645 63.4211 71.4773 63.964C71.5902 64.5069 71.6467 64.9706 71.6467 65.3577C71.6467 65.6345 71.5701 65.906 71.4182 66.1761C71.2677 66.4449 71.0621 66.6774 70.8027 66.8723C70.6132 67.0134 70.4331 67.0846 70.2638 67.0846C70.1993 67.0846 70.0797 67.0658 69.9049 67.0268C69.741 66.9905 69.612 66.9731 69.5179 66.9731C69.3956 66.9731 69.2975 67.0026 69.2249 67.0631C69.1537 67.1236 69.1161 67.1948 69.1161 67.2781C69.1161 67.3722 69.1631 67.4542 69.2558 67.5214C69.3499 67.5899 69.4883 67.6235 69.6711 67.6235C69.913 67.6235 70.1697 67.559 70.4398 67.43C70.7113 67.301 70.9922 67.0873 71.2825 66.7876C71.5728 66.4879 71.8953 66.031 72.2474 65.4141C72.5995 64.7972 72.8576 64.222 73.0215 63.6858C73.1868 63.1496 73.2675 62.7034 73.2675 62.3446C73.2675 62.2048 73.2379 62.0986 73.1774 62.0247C73.1169 61.9495 73.039 61.9105 72.9422 61.9105C72.8643 61.9105 72.7998 61.9374 72.7487 61.9898C72.6963 62.0422 72.6707 62.1094 72.6707 62.19C72.6707 62.2707 72.6963 62.4118 72.746 62.608C72.793 62.7827 72.8172 62.9225 72.8172 63.03C72.8172 63.538 72.5821 64.2247 72.1117 65.0916C72.1171 64.9599 72.1197 64.8631 72.1197 64.7999C72.1197 64.3067 72.0351 63.7987 71.8684 63.2746C71.7018 62.7504 71.4948 62.3325 71.2502 62.0247C71.1978 61.9575 71.1414 61.9239 71.0836 61.9239C71.0258 61.9239 70.9613 61.9414 70.8914 61.9736C70.7691 62.0314 70.5581 62.1645 70.2571 62.3714L69.948 62.5798L70.0823 62.776H70.085ZM76.3612 61.8567L76.6367 61.7989L76.3235 62.8553C76.1999 63.2746 76.0816 63.7584 75.9688 64.3067C75.9069 64.6051 75.8774 64.7972 75.8774 64.8819C75.8774 64.9666 75.911 65.0109 75.9808 65.0109C76.0252 65.0109 76.0964 64.9827 76.1945 64.9236C76.3666 64.8201 76.5319 64.6924 76.6904 64.5392L76.8248 64.7018C76.5077 64.9908 76.3047 65.1682 76.2147 65.2286C76.0373 65.3496 75.8666 65.441 75.7067 65.4988C75.6019 65.5377 75.497 65.5566 75.3976 65.5566C75.325 65.5566 75.2712 65.5391 75.235 65.5068C75.1973 65.4732 75.1812 65.4249 75.1812 65.3603C75.1812 65.3187 75.1933 65.2622 75.2135 65.1897L75.3801 64.6225C75.1409 64.9088 74.856 65.1547 74.5254 65.3603C74.3211 65.488 74.1356 65.5525 73.965 65.5525C73.7943 65.5525 73.68 65.4961 73.5927 65.3818C73.4758 65.2273 73.418 65.0284 73.418 64.7811C73.418 64.4868 73.4973 64.1589 73.6545 63.7974C73.8117 63.4358 74.0214 63.1066 74.2875 62.8123C74.5509 62.5179 74.8304 62.3002 75.1221 62.1618C75.3465 62.057 75.6368 62.0032 75.9889 62.0032C76.079 62.0032 76.169 62.0086 76.2604 62.0207L76.3598 61.8567H76.3612ZM75.8438 62.4964C75.6932 62.4655 75.5656 62.4494 75.4634 62.4494C75.2121 62.4494 74.9944 62.5193 74.8076 62.6564C74.6208 62.7948 74.4488 63.0421 74.2875 63.3996C74.1276 63.757 74.0483 64.1132 74.0483 64.4693C74.0483 64.6588 74.0792 64.7959 74.1437 64.8779C74.2082 64.9625 74.2915 65.0029 74.395 65.0029C74.5872 65.0029 74.7928 64.9007 75.0132 64.6924C75.2323 64.4854 75.3935 64.1871 75.4957 63.7974L75.8438 62.4951V62.4964ZM77.8758 65.4383H77.2535L77.5452 64.3161C77.6876 63.7651 77.8113 63.2423 77.9174 62.7464C77.943 62.6241 77.9551 62.5488 77.9551 62.5166C77.9551 62.4494 77.9255 62.4171 77.8637 62.4171C77.822 62.4171 77.7589 62.4454 77.6715 62.5032C77.5855 62.5596 77.4296 62.7007 77.2038 62.9265L77.0748 62.7813C77.3422 62.4951 77.6083 62.2801 77.8744 62.1363C78.1405 61.9938 78.3448 61.9212 78.4873 61.9212C78.537 61.9212 78.576 61.9347 78.6055 61.9575C78.6338 61.9817 78.6499 62.0113 78.6499 62.0476C78.6499 62.0838 78.6311 62.1806 78.5961 62.3352L78.416 63.0824C78.6969 62.6389 79.0141 62.2626 79.3675 61.9468C79.5369 61.7962 79.678 61.7223 79.7922 61.7223C79.8769 61.7223 79.9454 61.7492 80.0019 61.803C80.057 61.8567 80.0852 61.9199 80.0852 61.9925C80.0852 62.065 80.0583 62.1322 80.0032 62.1846C79.9495 62.2371 79.8137 62.3002 79.5974 62.3728C79.3904 62.4427 79.2237 62.5247 79.0947 62.6214C78.9657 62.7195 78.8233 62.8674 78.6687 63.0689C78.5155 63.2692 78.4066 63.4439 78.3448 63.5931C78.283 63.7409 78.1889 64.0876 78.0653 64.6306L77.8771 65.4396L77.8758 65.4383ZM81.4439 60.1338C81.5299 60.1338 81.6011 60.162 81.6562 60.2198C81.7114 60.2763 81.7409 60.3515 81.7409 60.4389C81.7409 60.5612 81.6979 60.67 81.6132 60.7628C81.5286 60.8568 81.4332 60.9025 81.3283 60.9025C81.2437 60.9025 81.1751 60.8743 81.1187 60.8152C81.0636 60.7574 81.0367 60.6794 81.0367 60.5854C81.0367 60.4604 81.077 60.3529 81.1577 60.2669C81.2369 60.1782 81.3337 60.1338 81.4453 60.1338H81.4439ZM79.8003 62.8969C80.0435 62.6577 80.2021 62.5152 80.2734 62.4709C80.3446 62.4265 80.4077 62.4037 80.4628 62.4037C80.5139 62.4037 80.5381 62.4319 80.5381 62.4884C80.5381 62.5381 80.5287 62.5959 80.5099 62.659C80.0919 64.011 79.8836 64.8617 79.8836 65.2085C79.8836 65.3173 79.9118 65.402 79.9696 65.4638C80.0261 65.5256 80.104 65.5552 80.2021 65.5552C80.3137 65.5552 80.4561 65.5055 80.6322 65.406C80.8069 65.3052 81.0851 65.0754 81.4654 64.7166L81.3028 64.558C80.9359 64.9021 80.7074 65.0754 80.6187 65.0754C80.5959 65.0754 80.5744 65.062 80.5556 65.0351C80.5354 65.0096 80.526 64.9773 80.526 64.937C80.526 64.7341 80.6738 64.1387 80.9695 63.1523C81.1509 62.5488 81.2396 62.2048 81.2396 62.1255C81.2396 62.0583 81.2168 62.0059 81.1684 61.9656C81.1214 61.9266 81.0528 61.9078 80.9641 61.9078C80.8029 61.9078 80.6066 61.9736 80.3768 62.1027C80.147 62.2317 79.8944 62.4494 79.6162 62.7545L79.8003 62.8969ZM84.5605 61.8567L84.836 61.7989L84.5228 62.8553C84.3992 63.2746 84.2809 63.7584 84.1681 64.3067C84.1062 64.6051 84.0767 64.7972 84.0767 64.8819C84.0767 64.9666 84.1103 65.0109 84.1801 65.0109C84.2245 65.0109 84.2957 64.9827 84.3938 64.9236C84.5659 64.8201 84.7312 64.6924 84.8897 64.5392L85.0241 64.7018C84.707 64.9908 84.504 65.1682 84.414 65.2286C84.2366 65.3496 84.0659 65.441 83.906 65.4988C83.8012 65.5377 83.6963 65.5566 83.5969 65.5566C83.5243 65.5566 83.4706 65.5391 83.4343 65.5068C83.3966 65.4732 83.3805 65.4249 83.3805 65.3603C83.3805 65.3187 83.3913 65.2622 83.4128 65.1897L83.5794 64.6225C83.3402 64.9088 83.0553 65.1547 82.7247 65.3603C82.5204 65.488 82.3349 65.5525 82.1643 65.5525C81.9936 65.5525 81.8793 65.4961 81.792 65.3818C81.6751 65.2273 81.6173 65.0284 81.6173 64.7811C81.6173 64.4868 81.6966 64.1589 81.8538 63.7974C82.011 63.4358 82.2207 63.1066 82.4868 62.8123C82.7502 62.5179 83.0297 62.3002 83.3214 62.1618C83.5458 62.057 83.8361 62.0032 84.1896 62.0032C84.2796 62.0032 84.3696 62.0086 84.461 62.0207L84.5605 61.8567ZM84.0431 62.4964C83.8925 62.4655 83.7649 62.4494 83.6627 62.4494C83.4114 62.4494 83.1937 62.5193 83.0069 62.6564C82.8201 62.7948 82.6481 63.0421 82.4868 63.3996C82.3269 63.757 82.2476 64.1132 82.2476 64.4693C82.2476 64.6588 82.2785 64.7959 82.343 64.8779C82.4075 64.9625 82.4908 65.0029 82.5943 65.0029C82.7865 65.0029 82.9921 64.9007 83.2125 64.6924C83.4316 64.4854 83.5929 64.1871 83.695 63.7974L84.0431 62.4951V62.4964ZM88.6541 64.554L88.7629 64.7072C88.5076 64.9921 88.2442 65.2165 87.9754 65.3832C87.7913 65.4974 87.6394 65.5539 87.5198 65.5539C87.423 65.5539 87.3451 65.5149 87.2846 65.4369C87.2241 65.359 87.1946 65.238 87.1946 65.0741C87.1946 64.9625 87.2174 64.8013 87.2631 64.5889C87.3088 64.3752 87.4392 63.9197 87.6529 63.2168C87.7483 62.8714 87.7953 62.6711 87.7953 62.6134C87.7953 62.5179 87.7483 62.4709 87.6529 62.4709C87.5359 62.4709 87.3908 62.5287 87.2161 62.6456C86.9715 62.8069 86.7538 63.0125 86.5656 63.2638C86.446 63.4251 86.3493 63.6643 86.2767 63.9815L85.9434 65.4329H85.3211C85.4555 64.9451 85.559 64.5486 85.6303 64.2395L86.2444 61.5597C86.356 61.0678 86.5025 60.6888 86.6852 60.4227C86.868 60.1567 87.1059 59.9457 87.3989 59.7857C87.6918 59.6271 87.9835 59.5479 88.2697 59.5479C88.3893 59.5479 88.4834 59.5774 88.5533 59.6366C88.6232 59.6943 88.6568 59.7683 88.6568 59.857C88.6568 59.9322 88.6232 59.9981 88.556 60.0545C88.4874 60.111 88.3947 60.1405 88.2778 60.1405C88.2106 60.1405 88.1246 60.1338 88.0184 60.1204C87.7792 60.0868 87.6139 60.0693 87.5212 60.0693C87.3948 60.0693 87.2887 60.1217 87.2094 60.2252C87.1287 60.3273 87.0441 60.5706 86.958 60.9523L86.4904 63.0138C86.821 62.6658 87.1811 62.3728 87.5709 62.1336C87.7993 61.9911 87.9821 61.9199 88.1205 61.9199C88.2294 61.9199 88.3141 61.9521 88.3759 62.018C88.4377 62.0838 88.4673 62.1752 88.4673 62.2908C88.4673 62.3849 88.4579 62.4803 88.435 62.5744C88.4001 62.7383 88.3141 63.0353 88.1797 63.4681C87.9982 64.0635 87.8934 64.4344 87.8612 64.5782C87.8303 64.7233 87.8141 64.8537 87.8141 64.9666C87.8141 65.0109 87.8209 65.0445 87.837 65.066C87.8518 65.0889 87.8746 65.0996 87.9055 65.0996C87.9727 65.0996 88.0977 65.0203 88.2818 64.8617C88.384 64.7744 88.5103 64.6723 88.6568 64.5526L88.6541 64.554Z" fill="white"/>
</g>
<rect x="1.5" y="1" width="110" height="110" rx="9" stroke="#CCCCCC" stroke-width="2"/>
<defs>
<linearGradient id="paint0_linear_528_591" x1="42.4754" y1="55.8131" x2="16.8373" y2="55.8131" gradientUnits="userSpaceOnUse">
<stop stop-color="#00693F"/>
<stop offset="1" stop-color="#008A44"/>
</linearGradient>
<linearGradient id="paint1_linear_528_591" x1="69.7867" y1="55.8131" x2="38.1023" y2="55.8131" gradientUnits="userSpaceOnUse">
<stop stop-color="#00693F"/>
<stop offset="1" stop-color="#008A44"/>
</linearGradient>
<linearGradient id="paint2_linear_528_591" x1="96.1613" y1="55.8131" x2="65.4149" y2="55.8131" gradientUnits="userSpaceOnUse">
<stop stop-color="#00693F"/>
<stop offset="1" stop-color="#008A44"/>
</linearGradient>
<clipPath id="clip0_528_591">
<rect x="2.5" y="2" width="108" height="108" rx="8" fill="white"/>
</clipPath>
</defs>
</svg>
