<svg width="113" height="112" viewBox="0 0 113 112" fill="none" xmlns="http://www.w3.org/2000/svg">
<g clip-path="url(#clip0_528_596)">
<rect x="2.5" y="2" width="108" height="108" rx="8" fill="white"/>
<path d="M54.1284 59.1104C54.1284 59.1104 53.7331 57.4333 54.327 55.8964C54.8546 54.5293 56.4933 54.6732 57.1332 55.4407C57.6129 56.0163 57.8767 56.9277 57.9007 58.3428C57.9007 58.3428 59.3571 57.3316 58.9081 54.7672C58.5003 52.4387 55.1904 51.699 53.6314 53.4739L53.0529 57.8631L54.1284 59.1104Z" fill="#72BB38"/>
<path d="M57.6129 51.2193C57.6129 51.2193 56.5336 49.5644 54.4229 51.5551C52.3123 53.5459 53.0884 57.181 53.8041 57.6415C53.8041 57.6415 53.4837 52.6824 57.6129 51.2193Z" fill="#9EC92A"/>
<path d="M54.3913 43.9999C54.3913 43.9999 55.3823 45.5589 55.4303 48.1013C55.4782 50.6437 54.6148 52.3946 54.279 53.6178C53.9432 54.8411 52.9359 58.5107 55.2144 60.8613C55.2144 60.8613 54.7587 61.0052 54.1351 60.4055C53.5115 59.8059 51.3692 57.1436 51.5447 54.0496C51.7366 50.6677 55.0465 47.4537 54.3913 43.9999Z" fill="#E6E400"/>
<path d="M60.3616 48.724C59.5614 48.1464 58.579 47.9286 57.5333 48.0274C58.3372 48.0294 59.0904 48.2443 59.7245 48.7019C61.8812 50.258 61.8381 54.0045 59.6267 57.0688C57.4153 60.1331 53.8741 61.3553 51.7174 59.7982C49.814 58.4254 49.625 55.3467 51.1264 52.5366C49.0311 55.8762 49.0599 59.6927 51.2886 61.2997C53.6544 63.0074 57.6043 61.576 60.1102 58.103C62.6161 54.63 62.7293 50.4307 60.3635 48.723L60.3616 48.724Z" fill="#E62129"/>
<path d="M20.1073 49.3725C20.6532 49.3725 21.0926 49.4003 21.4265 49.456C21.7604 49.5116 22.0578 49.6104 22.3206 49.7515C22.7351 49.9635 23.0555 50.2417 23.2829 50.5852C23.5103 50.9286 23.6235 51.3076 23.6235 51.7221C23.6235 52.0655 23.5429 52.3869 23.3808 52.6843C23.2186 52.9827 22.9913 53.2274 22.6986 53.4192C22.6075 53.4797 22.5164 53.5353 22.4262 53.5862C22.335 53.637 22.1988 53.7023 22.0165 53.7828C22.3082 53.8634 22.5365 53.9344 22.7025 53.9949C22.8685 54.0553 23.0363 54.1369 23.2071 54.2376C23.659 54.4899 24.0082 54.8238 24.2548 55.2382C24.5004 55.6527 24.6241 56.1075 24.6241 56.6025C24.6241 57.2088 24.4447 57.7672 24.0869 58.2776C23.729 58.788 23.2378 59.19 22.6123 59.4826C22.4406 59.5632 22.264 59.6323 22.0827 59.687C21.9014 59.7426 21.7047 59.7858 21.4927 59.8155C21.2807 59.8462 21.0437 59.8712 20.7818 59.8913C20.5199 59.9115 20.2224 59.922 19.8895 59.922H16.5C16.6516 59.8414 16.7725 59.7532 16.8636 59.6572C16.9548 59.5613 17.0248 59.4375 17.0756 59.2859C17.1265 59.1343 17.161 58.9473 17.1821 58.7247C17.2023 58.5021 17.2128 58.2191 17.2128 57.8756V51.4343C17.2128 51.0908 17.2023 50.8078 17.1821 50.5852C17.162 50.3626 17.1265 50.1755 17.0756 50.0239C17.0248 49.8724 16.9548 49.7486 16.8636 49.6527C16.7725 49.5567 16.6516 49.4685 16.5 49.3879H19.0539C19.2007 49.3879 19.3849 49.3831 19.6075 49.3725H20.1073ZM18.7738 53.6322C18.9148 53.6524 19.029 53.6629 19.1143 53.6629H19.3801C20.138 53.6629 20.7492 53.5094 21.2145 53.2005C21.6788 52.8925 21.9119 52.4809 21.9119 51.9648C21.9119 51.4899 21.7249 51.1081 21.3507 50.8202C20.9765 50.5324 20.4863 50.3885 19.8799 50.3885C19.7178 50.3885 19.5566 50.3962 19.3945 50.4115C19.2324 50.4269 19.0251 50.4547 18.7728 50.495L18.7738 53.6322ZM18.7738 58.6489C19.0664 58.7093 19.312 58.7496 19.5087 58.7698C19.7053 58.7899 19.9308 58.8005 20.1831 58.8005C21.0418 58.8005 21.7009 58.6287 22.1614 58.2853C22.6209 57.9418 22.8512 57.4516 22.8512 56.8145C22.8512 56.1171 22.6037 55.5769 22.1086 55.1922C21.8457 54.9898 21.555 54.8459 21.2375 54.7605C20.919 54.6751 20.5026 54.6319 19.9874 54.6319C19.7754 54.6319 19.5806 54.6367 19.4041 54.6473C19.2276 54.6578 19.0174 54.678 18.7747 54.7077L18.7738 58.6489Z" fill="#00824A"/>
<path d="M29.7473 55.9213C29.6053 55.9818 29.4873 56.0326 29.3914 56.0729C29.2954 56.1132 29.1813 56.1535 29.0508 56.1938C28.9194 56.2341 28.7495 56.2801 28.5433 56.33C28.336 56.3809 28.0559 56.4461 27.7019 56.5267C26.9334 56.709 26.5496 57.1177 26.5496 57.7547C26.5496 58.1692 26.6993 58.4896 26.9996 58.717C27.2989 58.9444 27.7182 59.0576 28.2564 59.0576C28.4598 59.0576 28.645 59.0422 28.8119 59.0125C28.9798 58.9818 29.1957 58.9271 29.4595 58.8456L28.5193 60.0429C28.3476 60.0832 28.2008 60.1081 28.0799 60.1187C27.959 60.1283 27.8122 60.134 27.6405 60.134C26.8317 60.134 26.2004 59.9268 25.7457 59.5114C25.4828 59.2783 25.2804 59.0048 25.1393 58.6911C24.9973 58.3774 24.9273 58.0579 24.9273 57.7336C24.9273 57.4094 25.0079 57.0851 25.1691 56.7915C25.3303 56.4979 25.5471 56.2754 25.8186 56.1228C25.9299 56.0624 26.045 56.0067 26.1659 55.9559C26.2868 55.905 26.4278 55.8542 26.589 55.8043C26.7502 55.7534 26.9363 55.7055 27.1483 55.6604C27.3594 55.6153 27.6165 55.5616 27.9187 55.5011C28.2708 55.4301 28.5634 55.362 28.7946 55.2958C29.0258 55.2296 29.21 55.1538 29.3463 55.0684C29.4825 54.9821 29.5775 54.8861 29.6331 54.7797C29.6888 54.6732 29.7166 54.5494 29.7166 54.4074C29.7166 54.1033 29.5756 53.8577 29.2926 53.6706C29.0105 53.4835 28.6421 53.3895 28.1873 53.3895C28.0156 53.3895 27.8544 53.4 27.7028 53.4202C27.5513 53.4413 27.3949 53.4749 27.2337 53.5209C27.0725 53.5679 26.8931 53.6351 26.6964 53.7224C26.4998 53.8107 26.2705 53.9162 26.0076 54.0409L27.0706 52.4339C27.3037 52.3831 27.4927 52.3533 27.6395 52.3428C27.7863 52.3332 27.9657 52.3274 28.1787 52.3274C29.5353 52.3274 30.4362 52.6863 30.8823 53.4039C30.9533 53.5152 31.0089 53.6188 31.0492 53.7147C31.0895 53.8107 31.1202 53.9268 31.1403 54.063C31.1605 54.1992 31.1758 54.3662 31.1864 54.5628C31.196 54.7595 31.2017 55.0099 31.2017 55.3131V57.3748C31.2017 57.607 31.2065 57.7969 31.2171 57.9428C31.2267 58.0896 31.2449 58.2085 31.2699 58.2987C31.2948 58.3899 31.3351 58.4685 31.3907 58.5338C31.4464 58.6 31.5193 58.6623 31.6105 58.7228C31.7217 58.8139 31.8503 58.8772 31.9971 58.9118C32.1439 58.9473 32.3329 58.9703 32.565 58.9799L31.8676 60.0256C31.4637 59.9949 31.1538 59.9546 30.9398 59.9047C30.7259 59.8539 30.5311 59.7733 30.3584 59.662C30.2356 59.591 30.1339 59.5104 30.0524 59.4193C29.9708 59.3281 29.9066 59.2197 29.8615 59.0931C29.8154 58.9665 29.7847 58.8149 29.7694 58.6383C29.754 58.4618 29.7463 58.2421 29.7463 57.9792V55.9175L29.7473 55.9213Z" fill="#00824A"/>
<path d="M34.3706 53.5718C34.7534 53.117 35.1238 52.7966 35.4816 52.6095C35.8395 52.4224 36.2549 52.3294 36.7288 52.3294C37.2421 52.3294 37.7208 52.433 38.1641 52.6402C38.6073 52.8474 38.945 53.1228 39.1772 53.4662C39.2472 53.5775 39.3077 53.6965 39.3585 53.8222C39.4084 53.9488 39.4487 54.0946 39.4794 54.2616C39.5101 54.4285 39.5302 54.6233 39.5398 54.8449C39.5494 55.0675 39.5552 55.3303 39.5552 55.6335V58.3467C39.5552 58.6096 39.56 58.8168 39.5705 58.9684C39.5801 59.12 39.606 59.2485 39.6463 59.355C39.6866 59.4615 39.7471 59.5546 39.8286 59.6351C39.9092 59.7157 40.0205 59.8117 40.1625 59.923H37.4944C37.6326 59.8117 37.7429 59.7157 37.8273 59.6351C37.9108 59.5546 37.9731 59.4605 38.0125 59.355C38.0518 59.2485 38.0768 59.118 38.0864 58.9607C38.096 58.8043 38.1017 58.6 38.1017 58.3467V55.8005C38.1017 55.3764 38.0768 55.0454 38.0269 54.8075C37.977 54.5705 37.8868 54.3652 37.7563 54.1935C37.5961 53.991 37.3706 53.827 37.08 53.7013C36.7893 53.5747 36.4832 53.5123 36.1628 53.5123C35.8423 53.5123 35.5488 53.5756 35.283 53.7013C35.0173 53.8279 34.8091 53.9968 34.6594 54.2088C34.5788 54.3201 34.5241 54.441 34.4934 54.5724C34.4637 54.7039 34.4483 54.8861 34.4483 55.1183V58.3467C34.4483 58.6096 34.4531 58.8168 34.4627 58.9684C34.4723 59.12 34.4973 59.2485 34.5366 59.355C34.5759 59.4615 34.6354 59.5546 34.7141 59.6351C34.7928 59.7157 34.9012 59.8117 35.0393 59.923H32.3866C32.5276 59.8117 32.6389 59.7157 32.7205 59.6351C32.8011 59.5546 32.8615 59.4605 32.9028 59.355C32.943 59.2485 32.968 59.12 32.9785 58.9684C32.9881 58.8168 32.9939 58.6096 32.9939 58.3467V54.1177C32.9939 53.8654 32.9891 53.661 32.9785 53.5037C32.968 53.3473 32.943 53.2158 32.9028 53.1094C32.8625 53.0029 32.802 52.9098 32.7205 52.8292C32.6399 52.7486 32.5286 52.6527 32.3866 52.5414H33.4218C33.6568 52.5414 33.8458 52.5184 33.9888 52.4733C34.1317 52.4282 34.2593 52.3495 34.3716 52.2382L34.3706 53.5718Z" fill="#00824A"/>
<path d="M41.6668 49.3879C41.9019 49.3879 42.0909 49.3648 42.2338 49.3197C42.3768 49.2747 42.5044 49.196 42.6166 49.0847V58.3457C42.6166 58.6086 42.6214 58.8158 42.632 58.9674C42.6416 59.119 42.6675 59.2476 42.7078 59.354C42.7481 59.4605 42.8085 59.5536 42.89 59.6342C42.9706 59.7148 43.0819 59.8107 43.2239 59.922H40.5558C40.6969 59.8107 40.8082 59.7148 40.8897 59.6342C40.9703 59.5536 41.0307 59.4596 41.072 59.354C41.1123 59.2476 41.1372 59.119 41.1478 58.9674C41.1574 58.8158 41.1631 58.6086 41.1631 58.3457V50.9641C41.1631 50.7013 41.1583 50.494 41.1478 50.3425C41.1372 50.1909 41.1123 50.0623 41.072 49.9558C41.0317 49.8493 40.9713 49.7563 40.8897 49.6757C40.8091 49.5951 40.6978 49.4992 40.5558 49.3879H41.6668ZM44.4961 55.6326C44.6572 55.835 44.9105 56.1535 45.254 56.5872C45.5975 57.0218 46.0321 57.582 46.5578 58.2699C46.7497 58.5127 46.9118 58.717 47.0433 58.8839C47.1747 59.0509 47.2985 59.1919 47.4145 59.308C47.5306 59.4241 47.6467 59.5306 47.7628 59.6265C47.8789 59.7225 48.0132 59.8213 48.1648 59.922C47.9624 59.9422 47.7484 59.9546 47.521 59.9594C47.2937 59.9642 47.0788 59.9671 46.8773 59.9671C46.6653 59.9671 46.4906 59.9565 46.3544 59.9364C46.2182 59.9163 46.0915 59.8712 45.9755 59.8002C45.8594 59.7292 45.7481 59.6332 45.6416 59.5123C45.5351 59.3915 45.4065 59.2245 45.2549 59.0125C45.0429 58.7093 44.8328 58.411 44.6256 58.1183C44.4184 57.8257 44.1987 57.5274 43.9665 57.2242C43.8149 57.0122 43.6662 56.8049 43.5194 56.6025C43.3726 56.4001 43.2191 56.2082 43.057 56.0269C43.0368 55.9866 43.0119 55.9492 42.9812 55.9137C42.9505 55.8782 42.9207 55.8407 42.89 55.7995L44.3454 54.1925C44.6083 53.9095 44.7925 53.6802 44.899 53.5027C45.0055 53.3262 45.0583 53.1717 45.0583 53.0403C45.0583 52.8887 44.9518 52.7218 44.7398 52.5404H47.1805L44.498 55.6326H44.4961Z" fill="#00824A"/>
<path d="M68.2862 59.9978C68.527 59.9268 68.8253 59.757 68.9961 59.4164C69.1659 59.0758 69.1381 58.7918 69.0105 58.4378L68.4425 56.7205H65.2219L64.6405 58.4234C64.5272 58.7784 64.4841 59.0902 64.6261 59.4164C64.7824 59.7714 65.123 59.9278 65.3638 59.9978H61.7594C61.9292 59.8558 62.0146 59.7282 62.1566 59.5584C62.3696 59.3032 62.5394 59.1324 62.667 58.8062L65.4905 50.6332C65.5327 50.4912 65.5615 50.4058 65.5471 50.2648C65.5471 49.7822 65.2065 49.385 64.8093 49.2574H68.9098L72.258 58.5088C72.3856 58.8494 72.5276 59.0336 72.7406 59.3176C72.9536 59.6016 73.109 59.757 73.3796 59.9988L68.2862 59.9978ZM66.7962 52.0377L65.6613 55.1596H67.9312L66.7962 52.0377Z" fill="#00824A"/>
<path d="M79.2434 59.615L78.5334 59.8414C77.7813 60.0832 77.0867 60.182 76.4477 60.182C74.3332 60.182 72.4605 58.8484 72.4605 56.4787C72.4605 54.109 73.936 52.4771 76.9303 52.4637C77.2143 52.4637 77.5117 52.4781 77.8101 52.5059L78.8174 52.6057V54.4218L78.1084 54.0812C77.8101 53.9392 77.4273 53.8826 77.0588 53.8826C76.0227 53.8826 75.4979 54.8334 75.4979 56.0959C75.4979 57.8267 76.4487 58.6355 77.6259 58.6355C78.0653 58.6355 78.5056 58.5223 78.9028 58.3093L79.7538 57.8267L79.2434 59.615Z" fill="#00824A"/>
<path d="M86.9195 59.7292L86.1817 59.9565C85.5859 60.1408 84.947 60.2549 84.2946 60.2549C81.6131 60.2549 79.7538 58.8926 79.7538 56.4807C79.7538 53.7282 81.7119 52.3802 83.741 52.3802C85.3873 52.3802 87.0749 53.4298 87.3311 55.3169L87.4731 56.3665H82.4785L82.5351 56.8491C82.6627 58.0972 84.096 58.7506 84.8616 58.7506C85.6848 58.7362 86.4791 58.41 86.7487 58.2824L87.5009 57.9418L86.9195 59.7292ZM83.6134 53.8404C83.032 53.8404 82.5351 54.3086 82.5063 55.0042H84.7484C84.7484 54.3086 84.2092 53.8404 83.6134 53.8404Z" fill="#00824A"/>
<path d="M92.4696 59.9978C92.7248 59.828 92.8524 59.686 92.9944 59.402C93.1076 59.1468 93.1076 58.9626 93.1076 58.6786V54.961C93.1076 54.4362 92.6538 54.0102 92.128 54.0102C91.6033 54.0246 91.1773 54.4362 91.1773 54.9466V58.5932C91.1773 58.7774 91.1629 59.2034 91.3337 59.5152C91.4613 59.7282 91.5889 59.8558 91.7875 59.9978L87.829 59.9834C88.0564 59.827 88.1696 59.6994 88.2828 59.4442C88.4248 59.1602 88.4104 58.9617 88.4104 58.6499V50.3214C88.4104 50.094 88.3682 49.9664 88.2684 49.7678C88.1552 49.5404 88.041 49.3994 87.8146 49.2574H90.3829C90.5815 49.2574 90.6947 49.2008 90.8799 49.1298C90.9931 49.0732 91.0641 49.0444 91.1782 48.9878V52.975C91.774 52.5069 92.3132 52.3505 93.2496 52.3505C94.4555 52.3505 95.8745 53.188 95.8745 54.3508V58.6499C95.8745 59.0183 95.8745 59.26 96.0731 59.5574C96.1863 59.7704 96.3139 59.8836 96.499 59.9968L92.4696 59.9978Z" fill="#00824A"/>
<path d="M29.9363 65.6035C29.9363 65.6956 29.9392 65.7705 29.944 65.83C29.9497 65.8894 29.9584 65.9393 29.9728 65.9796C29.9862 66.0199 30.0054 66.0535 30.0294 66.0784C30.0534 66.1043 30.086 66.1274 30.1263 66.1494H29.3127C29.353 66.1283 29.3856 66.1043 29.4096 66.0784C29.4336 66.0525 29.4528 66.0199 29.4662 65.9796C29.4796 65.9393 29.4892 65.8894 29.494 65.83C29.4998 65.7705 29.5017 65.6947 29.5017 65.6035V63.8833C29.5017 63.7922 29.4988 63.7164 29.494 63.6569C29.4883 63.5974 29.4796 63.5476 29.4662 63.5073C29.4528 63.467 29.4336 63.4334 29.4096 63.4084C29.3856 63.3825 29.353 63.3595 29.3127 63.3374H30.1263C30.086 63.3595 30.0534 63.3825 30.0294 63.4084C30.0054 63.4343 29.9862 63.467 29.9728 63.5073C29.9593 63.5476 29.9497 63.5974 29.944 63.6569C29.9382 63.7164 29.9363 63.7922 29.9363 63.8833V65.6035ZM30.5964 63.8997C30.6607 63.8162 30.7125 63.7394 30.7499 63.6713C30.7873 63.6022 30.8065 63.5514 30.8065 63.5197C30.8065 63.4526 30.7633 63.3912 30.677 63.3374H31.4464L30.463 64.6C30.6194 64.8101 30.7441 64.978 30.8372 65.1037C30.9302 65.2294 31.006 65.3301 31.0636 65.4069C31.1212 65.4836 31.1691 65.545 31.2075 65.5911C31.2449 65.6371 31.2862 65.6841 31.3294 65.7331C31.3591 65.7657 31.3898 65.7973 31.4224 65.828C31.455 65.8587 31.4915 65.8904 31.5318 65.923C31.5721 65.9556 31.6172 65.9902 31.6671 66.0285C31.7169 66.066 31.7745 66.1072 31.8388 66.1504C31.7851 66.1561 31.7198 66.1609 31.645 66.1648C31.5692 66.1686 31.4982 66.1705 31.4301 66.1705C31.3466 66.1705 31.2756 66.1629 31.2181 66.1485C31.1605 66.1341 31.0991 66.0976 31.0358 66.041C30.9725 65.9844 30.8976 65.9 30.8113 65.7877C30.7249 65.6755 30.6117 65.5229 30.4717 65.3282C30.4122 65.2418 30.3527 65.1565 30.2913 65.0711C30.2308 64.9857 30.1694 64.9003 30.1071 64.814C30.0879 64.7928 30.0706 64.7708 30.0543 64.7497C30.038 64.7276 30.0217 64.7065 30.0054 64.6844L30.5964 63.8997Z" fill="#00824A"/>
<path d="M32.3847 65.1219C32.3952 65.3742 32.4758 65.5709 32.6255 65.7119C32.7752 65.853 32.9795 65.924 33.2385 65.924C33.3815 65.924 33.5081 65.9057 33.6194 65.8702C33.7298 65.8348 33.842 65.7772 33.9552 65.6976L33.725 66.1063C33.6309 66.1437 33.5379 66.1705 33.4477 66.1849C33.3575 66.1993 33.2529 66.207 33.134 66.207C32.9555 66.207 32.7924 66.1811 32.6447 66.1302C32.496 66.0794 32.3684 66.0074 32.2619 65.9153C32.1554 65.8232 32.0719 65.7139 32.0134 65.5853C31.9539 65.4568 31.9242 65.3157 31.9242 65.1622C31.9242 65.0087 31.9549 64.8696 32.0172 64.7295C32.0796 64.5895 32.164 64.4695 32.2724 64.3698C32.4586 64.2057 32.6955 64.1232 32.9843 64.1232C33.1244 64.1232 33.2539 64.1462 33.3729 64.1923C33.4918 64.2383 33.5945 64.3026 33.6808 64.387C33.7672 64.4705 33.8343 64.5693 33.8833 64.6825C33.9322 64.7957 33.9562 64.9204 33.9562 65.0548V65.1238H32.3856L32.3847 65.1219ZM33.5062 64.8552C33.4439 64.5396 33.2635 64.3813 32.9642 64.3813C32.8183 64.3813 32.6965 64.4225 32.5977 64.505C32.4988 64.5875 32.4336 64.7036 32.401 64.8552H33.5062Z" fill="#00824A"/>
<path d="M34.9108 65.806C35.0029 65.8491 35.0844 65.8798 35.1545 65.8971C35.2245 65.9144 35.3032 65.923 35.3905 65.923C35.6044 65.923 35.7694 65.8587 35.8855 65.7302C36.0016 65.6016 36.0601 65.4174 36.0601 65.1785C36.0601 65.0644 36.0448 64.9598 36.0131 64.8658C35.9824 64.7708 35.9383 64.6892 35.8817 64.6221C35.8251 64.554 35.757 64.5012 35.6773 64.4638C35.5977 64.4254 35.5094 64.4072 35.4125 64.4072C35.3156 64.4072 35.2226 64.4273 35.1353 64.4676C35.048 64.5079 34.9741 64.5645 34.9146 64.6374C34.8772 64.6864 34.8503 64.7401 34.834 64.7996C34.8177 64.859 34.81 64.9377 34.81 65.0346V66.6119C34.81 66.679 34.8119 66.7356 34.8158 66.7798C34.8196 66.8239 34.8273 66.8613 34.8398 66.891C34.8513 66.9208 34.8676 66.9457 34.8868 66.9659C34.9069 66.986 34.9338 67.0052 34.9674 67.0244H34.2593C34.2948 67.0052 34.3217 66.986 34.3418 66.9659C34.362 66.9457 34.3783 66.9208 34.3908 66.891C34.4032 66.8613 34.4109 66.8248 34.4148 66.7817C34.4186 66.7385 34.4205 66.6819 34.4205 66.6119V64.6C34.4205 64.5329 34.4196 64.4782 34.4167 64.436C34.4138 64.3937 34.4071 64.3592 34.3965 64.3304C34.386 64.3016 34.3697 64.2767 34.3476 64.2556C34.3255 64.2345 34.2968 64.2086 34.2584 64.1788H34.5548C34.6172 64.1788 34.668 64.1731 34.7064 64.1606C34.7448 64.1481 34.7784 64.128 34.8091 64.0982L34.8052 64.4302C34.8839 64.3362 34.9856 64.2613 35.1113 64.2057C35.237 64.1501 35.3694 64.1222 35.5104 64.1222C35.6399 64.1222 35.7685 64.1491 35.897 64.2028C36.0256 64.2565 36.134 64.3285 36.2232 64.4177C36.3096 64.507 36.3767 64.6134 36.4237 64.7372C36.4707 64.861 36.4947 64.9934 36.4947 65.1334C36.4947 65.2869 36.4688 65.4299 36.418 65.5604C36.3671 65.6908 36.2952 65.8041 36.2031 65.9C36.111 65.9959 36.0026 66.0708 35.8769 66.1245C35.7512 66.1782 35.614 66.2051 35.4663 66.2051C35.4039 66.2051 35.3502 66.2012 35.3041 66.1926C35.2581 66.1849 35.2043 66.1696 35.142 66.1485L34.9117 65.8041L34.9108 65.806Z" fill="#00824A"/>
<path d="M37.2785 65.1219C37.2891 65.3742 37.3697 65.5709 37.5194 65.7119C37.669 65.853 37.8734 65.924 38.1324 65.924C38.2754 65.924 38.402 65.9057 38.5133 65.8702C38.6236 65.8348 38.7359 65.7772 38.8491 65.6976L38.6188 66.1063C38.5248 66.1437 38.4317 66.1705 38.3416 66.1849C38.2514 66.1993 38.1468 66.207 38.0278 66.207C37.8494 66.207 37.6863 66.1811 37.5385 66.1302C37.3898 66.0794 37.2622 66.0074 37.1557 65.9153C37.0493 65.8232 36.9658 65.7139 36.9073 65.5853C36.8478 65.4568 36.818 65.3157 36.818 65.1622C36.818 65.0087 36.8487 64.8696 36.9111 64.7295C36.9735 64.5895 37.0579 64.4695 37.1663 64.3698C37.3524 64.2057 37.5894 64.1232 37.8782 64.1232C38.0182 64.1232 38.1478 64.1462 38.2667 64.1923C38.3857 64.2383 38.4883 64.3026 38.5747 64.387C38.661 64.4705 38.7282 64.5693 38.7771 64.6825C38.8261 64.7957 38.85 64.9204 38.85 65.0548V65.1238H37.2795L37.2785 65.1219ZM38.4001 64.8552C38.3377 64.5396 38.1574 64.3813 37.858 64.3813C37.7122 64.3813 37.5904 64.4225 37.4915 64.505C37.3927 64.5875 37.3275 64.7036 37.2949 64.8552H38.4001Z" fill="#00824A"/>
<path d="M39.1801 66.1494C39.2175 66.1197 39.2472 66.0938 39.2693 66.0727C39.2914 66.0516 39.3067 66.0257 39.3182 65.9978C39.3288 65.97 39.3355 65.9355 39.3384 65.8942C39.3412 65.8539 39.3422 65.7983 39.3422 65.7283V64.5991C39.3422 64.5319 39.3412 64.4772 39.3384 64.435C39.3355 64.3928 39.3288 64.3582 39.3182 64.3295C39.3077 64.3007 39.2914 64.2757 39.2693 64.2546C39.2472 64.2326 39.2184 64.2076 39.1801 64.1779H39.4765C39.5389 64.1779 39.5897 64.1721 39.6281 64.1597C39.6665 64.1472 39.7001 64.127 39.7308 64.0973V64.4494C39.8468 64.2306 40.0167 64.1213 40.2412 64.1213C40.2786 64.1213 40.3285 64.127 40.3908 64.1376V64.53C40.3419 64.4839 40.2747 64.4609 40.1884 64.4609C40.1126 64.4609 40.0416 64.4762 39.9764 64.507C39.9102 64.5377 39.8584 64.5808 39.8209 64.6346C39.7615 64.718 39.7317 64.8475 39.7317 65.0231V65.7273C39.7317 65.7973 39.7327 65.853 39.7356 65.8933C39.7384 65.9336 39.7452 65.9681 39.7557 65.9969C39.7663 66.0247 39.7826 66.0506 39.8046 66.0717C39.8267 66.0938 39.8555 66.1187 39.8939 66.1485H39.182L39.1801 66.1494Z" fill="#00824A"/>
<path d="M42.2645 64.6154C42.1244 64.4753 41.946 64.4053 41.7301 64.4053C41.6217 64.4053 41.5248 64.4225 41.4366 64.4561C41.3493 64.4897 41.2744 64.5377 41.2121 64.5981C41.1497 64.6595 41.1017 64.7334 41.0682 64.8216C41.0346 64.9099 41.0173 65.0068 41.0173 65.1123C41.0173 65.2284 41.0394 65.3368 41.0845 65.4356C41.1286 65.5345 41.19 65.6198 41.2667 65.6918C41.3435 65.7638 41.4356 65.8204 41.5421 65.8607C41.6486 65.9009 41.7656 65.9221 41.8923 65.9221C42.0084 65.9221 42.1177 65.9048 42.2204 65.8702C42.323 65.8357 42.4305 65.7829 42.5437 65.711L42.2923 66.1274C42.2252 66.1542 42.1456 66.1744 42.0535 66.1859C41.9614 66.1984 41.8597 66.2041 41.7455 66.2041C41.5757 66.2041 41.4193 66.1792 41.2763 66.1293C41.1334 66.0794 41.0106 66.0094 40.9089 65.9211C40.8072 65.8319 40.7276 65.7263 40.67 65.6035C40.6124 65.4807 40.5837 65.3464 40.5837 65.2006C40.5837 65.0548 40.6134 64.9089 40.6719 64.7775C40.7304 64.647 40.8158 64.529 40.9281 64.4235C41.0432 64.3179 41.1708 64.2412 41.3099 64.1932C41.449 64.1443 41.6112 64.1203 41.7973 64.1203C41.8808 64.1203 41.9575 64.1242 42.0256 64.1309C42.0947 64.1376 42.1734 64.152 42.2626 64.1731V64.6144L42.2645 64.6154Z" fill="#00824A"/>
<path d="M43.9598 65.0816C43.9224 65.0979 43.8907 65.1114 43.8648 65.1219C43.8389 65.1325 43.8091 65.144 43.7736 65.1545C43.7381 65.1651 43.6931 65.1776 43.6384 65.191C43.5827 65.2044 43.5079 65.2217 43.4139 65.2438C43.2086 65.2927 43.1059 65.4011 43.1059 65.5719C43.1059 65.6822 43.1462 65.7686 43.2258 65.829C43.3055 65.8894 43.4177 65.9201 43.5616 65.9201C43.6153 65.9201 43.6652 65.9163 43.7103 65.9077C43.7554 65.9 43.813 65.8846 43.883 65.8635L43.6317 66.183C43.5856 66.1936 43.5463 66.2003 43.5146 66.2032C43.482 66.206 43.4427 66.207 43.3976 66.207C43.1817 66.207 43.0128 66.1514 42.892 66.041C42.8219 65.9787 42.7682 65.9057 42.7298 65.8223C42.6924 65.7388 42.6732 65.6534 42.6732 65.5671C42.6732 65.4807 42.6943 65.3944 42.7375 65.3157C42.7807 65.237 42.8382 65.1776 42.9112 65.1373C42.9409 65.121 42.9716 65.1066 43.0042 65.0931C43.0368 65.0797 43.0742 65.0663 43.1174 65.0528C43.1606 65.0394 43.2105 65.026 43.2671 65.0145C43.3237 65.002 43.3918 64.9876 43.4724 64.9723C43.5664 64.9531 43.6441 64.9348 43.7065 64.9176C43.7679 64.9003 43.8178 64.8802 43.8542 64.8571C43.8907 64.8341 43.9156 64.8082 43.931 64.7804C43.9463 64.7526 43.9531 64.719 43.9531 64.6806C43.9531 64.5991 43.9156 64.5338 43.8398 64.4839C43.7641 64.434 43.6662 64.4091 43.5453 64.4091C43.4993 64.4091 43.4561 64.412 43.4158 64.4177C43.3755 64.4235 43.3333 64.4321 43.2901 64.4446C43.2469 64.4571 43.199 64.4753 43.1462 64.4983C43.0934 64.5223 43.032 64.5501 42.962 64.5827L43.246 64.1539C43.3083 64.1405 43.3592 64.1328 43.3976 64.1299C43.4369 64.127 43.4849 64.1261 43.5415 64.1261C43.9041 64.1261 44.144 64.222 44.2629 64.4139C44.2821 64.4436 44.2965 64.4715 44.3071 64.4974C44.3176 64.5233 44.3263 64.554 44.3311 64.5904C44.3368 64.6269 44.3406 64.671 44.3435 64.7238C44.3464 64.7765 44.3474 64.8427 44.3474 64.9243V65.475C44.3474 65.5373 44.3483 65.5872 44.3512 65.6266C44.3541 65.6659 44.3589 65.6976 44.3656 65.7215C44.3723 65.7455 44.3829 65.7666 44.3982 65.7839C44.4126 65.8012 44.4327 65.8184 44.4567 65.8348C44.4865 65.8587 44.521 65.876 44.5603 65.8856C44.5997 65.8952 44.6496 65.9009 44.7119 65.9038L44.5258 66.183C44.4174 66.1753 44.3349 66.1638 44.2783 66.1504C44.2207 66.137 44.1689 66.1149 44.1229 66.0861C44.0902 66.0669 44.0624 66.0458 44.0413 66.0209C44.0193 65.9969 44.0029 65.9681 43.9905 65.9336C43.978 65.9 43.9703 65.8597 43.9655 65.8117C43.9617 65.7647 43.9598 65.7062 43.9598 65.6362V65.0816Z" fill="#00824A"/>
<path d="M46.4494 64.6355C46.4926 64.5281 46.5137 64.4417 46.5137 64.3765C46.5137 64.3362 46.5041 64.3007 46.4858 64.2709C46.4667 64.2412 46.435 64.2115 46.389 64.1817H46.9876L46.0772 66.3547C46.0234 66.4814 45.9726 66.5802 45.9256 66.6502C45.8786 66.7203 45.82 66.7836 45.75 66.8392C45.5936 66.962 45.4008 67.0234 45.1715 67.0234C45.0851 67.0234 45.0045 67.0158 44.9307 66.9995C44.8568 66.9831 44.7637 66.9553 44.6534 66.916L45.0381 66.6397C45.0842 66.6694 45.1245 66.6896 45.16 66.7001C45.1955 66.7107 45.2358 66.7164 45.2818 66.7164C45.3893 66.7164 45.4833 66.6771 45.5629 66.5994C45.6425 66.5207 45.7164 66.397 45.7836 66.2271L45.8239 66.1139C45.7912 66.0813 45.7653 66.0545 45.7452 66.0333C45.725 66.0122 45.7078 65.9911 45.6924 65.971C45.678 65.9508 45.6636 65.9278 45.6521 65.9019C45.6397 65.876 45.6243 65.8424 45.6061 65.7983L45.0391 64.5636C45.0122 64.5041 44.9873 64.4532 44.9643 64.412C44.9412 64.3698 44.9172 64.3352 44.8933 64.3064C44.8693 64.2777 44.8424 64.2546 44.8146 64.2354C44.7868 64.2163 44.7541 64.199 44.7196 64.1827L45.1321 64.1664C45.1974 64.1664 45.2396 64.1702 45.2617 64.1788C45.2751 64.1817 45.2876 64.1913 45.3 64.2095C45.3125 64.2268 45.3288 64.2585 45.3509 64.3045L46.0023 65.7733L46.4513 64.6365L46.4494 64.6355Z" fill="#00824A"/>
<path d="M48.4363 65.0816C48.3989 65.0979 48.3672 65.1114 48.3413 65.1219C48.3154 65.1325 48.2857 65.144 48.2502 65.1545C48.2147 65.1651 48.1696 65.1776 48.1149 65.191C48.0593 65.2044 47.9844 65.2217 47.8904 65.2438C47.6851 65.2927 47.5824 65.4011 47.5824 65.5719C47.5824 65.6822 47.6227 65.7686 47.7024 65.829C47.782 65.8894 47.8942 65.9201 48.0382 65.9201C48.0919 65.9201 48.1418 65.9163 48.1869 65.9077C48.2319 65.9 48.2895 65.8846 48.3595 65.8635L48.1082 66.183C48.0621 66.1936 48.0228 66.2003 47.9911 66.2032C47.9585 66.206 47.9192 66.207 47.8741 66.207C47.6582 66.207 47.4894 66.1514 47.3685 66.041C47.2985 65.9787 47.2447 65.9057 47.2064 65.8223C47.1689 65.7388 47.1497 65.6534 47.1497 65.5671C47.1497 65.4807 47.1709 65.3944 47.214 65.3157C47.2572 65.237 47.3148 65.1776 47.3877 65.1373C47.4174 65.121 47.4481 65.1066 47.4807 65.0931C47.5134 65.0797 47.5508 65.0663 47.594 65.0528C47.6371 65.0394 47.687 65.026 47.7436 65.0145C47.8002 65.002 47.8683 64.9876 47.9489 64.9723C48.0429 64.9531 48.1207 64.9348 48.183 64.9176C48.2444 64.9003 48.2943 64.8802 48.3308 64.8571C48.3672 64.8341 48.3922 64.8082 48.4075 64.7804C48.4229 64.7526 48.4296 64.719 48.4296 64.6806C48.4296 64.5991 48.3922 64.5338 48.3164 64.4839C48.2406 64.434 48.1427 64.4091 48.0218 64.4091C47.9758 64.4091 47.9326 64.412 47.8923 64.4177C47.852 64.4235 47.8098 64.4321 47.7666 64.4446C47.7235 64.4571 47.6755 64.4753 47.6227 64.4983C47.57 64.5223 47.5086 64.5501 47.4385 64.5827L47.7225 64.1539C47.7849 64.1405 47.8357 64.1328 47.8741 64.1299C47.9134 64.127 47.9614 64.1261 48.018 64.1261C48.3806 64.1261 48.6205 64.222 48.7395 64.4139C48.7587 64.4436 48.773 64.4715 48.7836 64.4974C48.7941 64.5233 48.8028 64.554 48.8076 64.5904C48.8133 64.6269 48.8172 64.671 48.8201 64.7238C48.8229 64.7765 48.8239 64.8427 48.8239 64.9243V65.475C48.8239 65.5373 48.8249 65.5872 48.8277 65.6266C48.8306 65.6659 48.8354 65.6976 48.8421 65.7215C48.8488 65.7455 48.8594 65.7666 48.8747 65.7839C48.8891 65.8012 48.9093 65.8184 48.9333 65.8348C48.963 65.8587 48.9975 65.876 49.0369 65.8856C49.0762 65.8952 49.1261 65.9009 49.1885 65.9038L49.0023 66.183C48.8939 66.1753 48.8114 66.1638 48.7548 66.1504C48.6973 66.137 48.6454 66.1149 48.5994 66.0861C48.5668 66.0669 48.539 66.0458 48.5178 66.0209C48.4958 65.9969 48.4795 65.9681 48.467 65.9336C48.4545 65.9 48.4469 65.8597 48.4421 65.8117C48.4373 65.7638 48.4363 65.7062 48.4363 65.6362V65.0816Z" fill="#00824A"/>
<path d="M50.6419 65.0816C50.6045 65.0979 50.5729 65.1114 50.547 65.1219C50.5211 65.1325 50.4913 65.144 50.4558 65.1545C50.4203 65.1651 50.3752 65.1776 50.3205 65.191C50.2649 65.2044 50.1901 65.2217 50.0961 65.2438C49.8907 65.2927 49.7881 65.4011 49.7881 65.5719C49.7881 65.6822 49.8284 65.7686 49.908 65.829C49.9876 65.8894 50.0999 65.9201 50.2438 65.9201C50.2975 65.9201 50.3474 65.9163 50.3925 65.9077C50.4376 65.9 50.4952 65.8846 50.5652 65.8635L50.3138 66.183C50.2678 66.1936 50.2284 66.2003 50.1968 66.2032C50.1642 66.206 50.1248 66.207 50.0797 66.207C49.8639 66.207 49.695 66.1514 49.5741 66.041C49.5041 65.9787 49.4504 65.9057 49.412 65.8223C49.3746 65.7388 49.3554 65.6534 49.3554 65.5671C49.3554 65.4807 49.3765 65.3944 49.4197 65.3157C49.4628 65.237 49.5204 65.1776 49.5933 65.1373C49.6231 65.121 49.6538 65.1066 49.6864 65.0931C49.719 65.0797 49.7564 65.0663 49.7996 65.0528C49.8428 65.0394 49.8927 65.026 49.9493 65.0145C50.0059 65.002 50.074 64.9876 50.1555 64.9723C50.2496 64.9531 50.3273 64.9348 50.3896 64.9176C50.451 64.9003 50.5009 64.8802 50.5374 64.8571C50.5738 64.8341 50.5988 64.8082 50.6141 64.7804C50.6295 64.7526 50.6362 64.719 50.6362 64.6806C50.6362 64.5991 50.5988 64.5338 50.523 64.4839C50.4472 64.434 50.3493 64.4091 50.2284 64.4091C50.1824 64.4091 50.1392 64.412 50.0989 64.4177C50.0586 64.4235 50.0164 64.4321 49.9732 64.4446C49.9301 64.4571 49.8821 64.4753 49.8293 64.4983C49.7766 64.5223 49.7152 64.5501 49.6451 64.5827L49.9291 64.1539C49.9915 64.1405 50.0423 64.1328 50.0807 64.1299C50.12 64.127 50.168 64.1261 50.2246 64.1261C50.5873 64.1261 50.8271 64.222 50.9461 64.4139C50.9653 64.4436 50.9797 64.4715 50.9902 64.4974C51.0008 64.5233 51.0094 64.554 51.0142 64.5904C51.0199 64.6269 51.0238 64.671 51.0267 64.7238C51.0295 64.7765 51.0305 64.8427 51.0305 64.9243V65.475C51.0305 65.5373 51.0315 65.5872 51.0343 65.6266C51.0372 65.6659 51.042 65.6976 51.0487 65.7215C51.0554 65.7455 51.066 65.7666 51.0813 65.7839C51.0957 65.8012 51.1159 65.8184 51.1399 65.8348C51.1696 65.8587 51.2042 65.876 51.2435 65.8856C51.2828 65.8952 51.3327 65.9009 51.3951 65.9038L51.2089 66.183C51.1005 66.1753 51.018 66.1638 50.9614 66.1504C50.9039 66.137 50.8521 66.1149 50.806 66.0861C50.7734 66.0669 50.7456 66.0458 50.7245 66.0209C50.7024 65.9969 50.6861 65.9681 50.6736 65.9336C50.6611 65.9 50.6535 65.8597 50.6487 65.8117C50.6448 65.7647 50.6429 65.7062 50.6429 65.6362V65.0855L50.6419 65.0816Z" fill="#00824A"/>
<path d="M52.1194 64.4542C52.2221 64.3323 52.3209 64.247 52.4159 64.1971C52.5118 64.1472 52.6221 64.1222 52.7488 64.1222C52.886 64.1222 53.0136 64.1501 53.1325 64.2057C53.2505 64.2613 53.3407 64.3343 53.4031 64.4264C53.4223 64.4561 53.4376 64.4878 53.451 64.5213C53.4645 64.5549 53.475 64.5943 53.4837 64.6384C53.4913 64.6825 53.4971 64.7353 53.5 64.7938C53.5029 64.8533 53.5038 64.9233 53.5038 65.0039V65.7283C53.5038 65.7983 53.5048 65.8539 53.5077 65.8942C53.5105 65.9345 53.5173 65.9691 53.5278 65.9978C53.5384 66.0257 53.5547 66.0516 53.5767 66.0727C53.5978 66.0947 53.6276 66.1197 53.666 66.1494H52.9541C52.9905 66.1197 53.0203 66.0938 53.0433 66.0727C53.0654 66.0516 53.0817 66.0257 53.0922 65.9978C53.1028 65.97 53.1095 65.9345 53.1124 65.8923C53.1153 65.8501 53.1162 65.7964 53.1162 65.7283V65.048C53.1162 64.9348 53.1095 64.8466 53.0961 64.7833C53.0826 64.7199 53.0587 64.6653 53.0241 64.6192C52.9809 64.5655 52.9215 64.5213 52.8438 64.4878C52.766 64.4542 52.6845 64.4369 52.5991 64.4369C52.5137 64.4369 52.4351 64.4542 52.3641 64.4878C52.2931 64.5213 52.2374 64.5664 52.1971 64.623C52.176 64.6528 52.1607 64.6854 52.153 64.7199C52.1453 64.7554 52.1405 64.8034 52.1405 64.8658V65.7283C52.1405 65.7983 52.1415 65.8539 52.1444 65.8942C52.1472 65.9345 52.1539 65.9691 52.1645 65.9978C52.1751 66.0257 52.1904 66.0516 52.2115 66.0727C52.2326 66.0947 52.2614 66.1197 52.2988 66.1494H51.5908C51.6282 66.1197 51.6579 66.0938 51.68 66.0727C51.7021 66.0516 51.7174 66.0257 51.7289 65.9978C51.7395 65.97 51.7462 65.9355 51.7491 65.8942C51.752 65.8539 51.7529 65.7983 51.7529 65.7283V64.5991C51.7529 64.5319 51.752 64.4772 51.7491 64.435C51.7462 64.3928 51.7395 64.3582 51.7289 64.3295C51.7184 64.3007 51.7021 64.2757 51.68 64.2546C51.6579 64.2326 51.6292 64.2076 51.5908 64.1779H51.8671C51.9295 64.1779 51.9803 64.1721 52.0187 64.1597C52.057 64.1472 52.0906 64.127 52.1213 64.0973V64.4532L52.1194 64.4542Z" fill="#00824A"/>
<path d="M56.7044 63.7615C56.7044 63.6943 56.7034 63.6397 56.7005 63.5974C56.6976 63.5552 56.6909 63.5207 56.6804 63.4919C56.6698 63.4631 56.6545 63.4382 56.6334 63.4171C56.6123 63.395 56.5835 63.3701 56.5461 63.3403H56.8415C56.9039 63.3403 56.9538 63.3346 56.9912 63.3221C57.0286 63.3096 57.0622 63.2895 57.0919 63.2597V65.7302C57.0919 65.8002 57.0929 65.8549 57.0958 65.8962C57.0987 65.9364 57.1054 65.971 57.1159 65.9988C57.1265 66.0276 57.1428 66.0525 57.1649 66.0736C57.186 66.0947 57.2157 66.1207 57.2541 66.1504H56.7034V65.1814C56.7034 65.1008 56.7024 65.0327 56.6996 64.9771C56.6967 64.9224 56.6909 64.8744 56.6813 64.836C56.6717 64.7967 56.6593 64.7631 56.643 64.7334C56.6266 64.7036 56.6065 64.6729 56.5825 64.6403C56.5259 64.5645 56.4549 64.507 56.3705 64.4667C56.2851 64.4264 56.1949 64.4062 56.0971 64.4062C56.005 64.4062 55.9215 64.4235 55.8438 64.459C55.767 64.4945 55.7008 64.5415 55.6452 64.6019C55.5895 64.6624 55.5464 64.7353 55.5157 64.8216C55.485 64.908 55.4687 65.0001 55.4687 65.0999C55.4687 65.2159 55.4878 65.3234 55.5253 65.4232C55.5627 65.5229 55.6154 65.6083 55.6816 65.6812C55.7478 65.7542 55.8265 65.8108 55.9176 65.8511C56.0088 65.8914 56.1067 65.9115 56.2122 65.9115C56.2851 65.9115 56.3494 65.9038 56.4031 65.8875C56.4568 65.8712 56.5192 65.8405 56.5902 65.7945L56.3427 66.1792C56.2966 66.1926 56.2602 66.2012 56.2333 66.2032C56.2064 66.206 56.1709 66.207 56.1278 66.207C55.8678 66.207 55.6529 66.1504 55.4821 66.0372C55.3372 65.9403 55.2278 65.8175 55.1511 65.6688C55.0753 65.5201 55.0369 65.3541 55.0369 65.1709C55.0369 65.0221 55.0628 64.885 55.1137 64.7583C55.1645 64.6317 55.2355 64.5213 55.3257 64.4264C55.4159 64.3323 55.5214 64.2575 55.6423 64.2038C55.7632 64.1501 55.8937 64.1232 56.0337 64.1232C56.1652 64.1232 56.2832 64.1433 56.3868 64.1827C56.4904 64.222 56.5959 64.2872 56.7034 64.3774V63.7625L56.7044 63.7615Z" fill="#00824A"/>
<path d="M58.8294 65.0816C58.792 65.0979 58.7603 65.1114 58.7344 65.1219C58.7085 65.1325 58.6788 65.144 58.6433 65.1545C58.6078 65.1651 58.5627 65.1776 58.508 65.191C58.4524 65.2044 58.3775 65.2217 58.2835 65.2438C58.0782 65.2927 57.9756 65.4011 57.9756 65.5719C57.9756 65.6822 58.0158 65.7686 58.0955 65.829C58.1751 65.8894 58.2874 65.9201 58.4313 65.9201C58.485 65.9201 58.5349 65.9163 58.58 65.9077C58.6251 65.9 58.6826 65.8846 58.7527 65.8635L58.5013 66.183C58.4552 66.1936 58.4159 66.2003 58.3843 66.2032C58.3516 66.206 58.3123 66.207 58.2672 66.207C58.0513 66.207 57.8825 66.1514 57.7616 66.041C57.6916 65.9787 57.6378 65.9057 57.5995 65.8223C57.5621 65.7388 57.5429 65.6534 57.5429 65.5671C57.5429 65.4807 57.564 65.3944 57.6071 65.3157C57.6503 65.237 57.7079 65.1776 57.7808 65.1373C57.8105 65.121 57.8412 65.1066 57.8739 65.0931C57.9065 65.0797 57.9439 65.0663 57.9871 65.0528C58.0302 65.0394 58.0801 65.026 58.1367 65.0145C58.1933 65.002 58.2615 64.9876 58.343 64.9723C58.437 64.9531 58.5147 64.9348 58.5771 64.9176C58.6385 64.9003 58.6884 64.8802 58.7248 64.8571C58.7613 64.8341 58.7862 64.8082 58.8016 64.7804C58.8169 64.7526 58.8237 64.719 58.8237 64.6806C58.8237 64.5991 58.7862 64.5338 58.7104 64.4839C58.6347 64.434 58.5368 64.4091 58.4159 64.4091C58.3699 64.4091 58.3267 64.412 58.2864 64.4177C58.2461 64.4235 58.2039 64.4321 58.1607 64.4446C58.1175 64.4571 58.0696 64.4753 58.0168 64.4983C57.964 64.5223 57.9026 64.5501 57.8326 64.5827L58.1166 64.1539C58.1789 64.1405 58.2298 64.1328 58.2682 64.1299C58.3075 64.127 58.3555 64.1261 58.4121 64.1261C58.7747 64.1261 59.0146 64.222 59.1335 64.4139C59.1527 64.4436 59.1671 64.4715 59.1777 64.4974C59.1882 64.5233 59.1969 64.554 59.2017 64.5904C59.2074 64.6269 59.2113 64.671 59.2141 64.7238C59.217 64.7765 59.218 64.8427 59.218 64.9243V65.475C59.218 65.5373 59.2189 65.5872 59.2218 65.6266C59.2247 65.6659 59.2295 65.6976 59.2362 65.7215C59.2429 65.7455 59.2535 65.7666 59.2688 65.7839C59.2832 65.8012 59.3034 65.8184 59.3273 65.8348C59.3571 65.8587 59.3916 65.876 59.431 65.8856C59.4703 65.8952 59.5202 65.9009 59.5825 65.9038L59.3964 66.183C59.288 66.1753 59.2055 66.1638 59.1489 66.1504C59.0913 66.137 59.0395 66.1149 58.9935 66.0861C58.9608 66.0669 58.933 66.0458 58.9119 66.0209C58.8899 65.9969 58.8735 65.9681 58.8611 65.9336C58.8486 65.9 58.8409 65.8597 58.8361 65.8117C58.8313 65.7638 58.8304 65.7062 58.8304 65.6362V65.0855L58.8294 65.0816Z" fill="#00824A"/>
<path d="M60.3069 64.4542C60.4095 64.3323 60.5084 64.247 60.6033 64.1971C60.6993 64.1472 60.8096 64.1222 60.9362 64.1222C61.0734 64.1222 61.201 64.1501 61.32 64.2057C61.438 64.2613 61.5282 64.3343 61.5905 64.4264C61.6097 64.4561 61.6251 64.4878 61.6385 64.5213C61.6519 64.5549 61.6625 64.5943 61.6711 64.6384C61.6788 64.6825 61.6846 64.7353 61.6874 64.7938C61.6903 64.8533 61.6913 64.9233 61.6913 65.0039V65.7283C61.6913 65.7983 61.6922 65.8539 61.6951 65.8942C61.698 65.9345 61.7047 65.9691 61.7153 65.9978C61.7258 66.0257 61.7421 66.0516 61.7642 66.0727C61.7853 66.0947 61.815 66.1197 61.8534 66.1494H61.1415C61.178 66.1197 61.2077 66.0938 61.2308 66.0727C61.2528 66.0516 61.2701 66.0257 61.2797 65.9978C61.2902 65.97 61.297 65.9345 61.2998 65.8923C61.3027 65.8501 61.3037 65.7964 61.3037 65.7283V65.048C61.3037 64.9348 61.297 64.8466 61.2835 64.7833C61.2701 64.7199 61.2461 64.6653 61.2116 64.6192C61.1684 64.5655 61.1089 64.5213 61.0312 64.4878C60.9535 64.4542 60.872 64.4369 60.7866 64.4369C60.7012 64.4369 60.6225 64.4542 60.5515 64.4878C60.4805 64.5213 60.4249 64.5664 60.3846 64.623C60.3635 64.6528 60.3481 64.6854 60.3405 64.7199C60.3328 64.7554 60.328 64.8034 60.328 64.8658V65.7283C60.328 65.7983 60.3289 65.8539 60.3318 65.8942C60.3347 65.9345 60.3414 65.9691 60.352 65.9978C60.3625 66.0257 60.3779 66.0516 60.399 66.0727C60.4201 66.0947 60.4489 66.1197 60.4863 66.1494H59.7782C59.8157 66.1197 59.8454 66.0938 59.8675 66.0727C59.8895 66.0516 59.9049 66.0257 59.9164 65.9978C59.927 65.97 59.9337 65.9355 59.9365 65.8942C59.9394 65.8539 59.9404 65.7983 59.9404 65.7283V64.5991C59.9404 64.5319 59.9394 64.4772 59.9365 64.435C59.9337 64.3928 59.927 64.3582 59.9164 64.3295C59.9058 64.3007 59.8895 64.2757 59.8675 64.2546C59.8454 64.2326 59.8166 64.2076 59.7782 64.1779H60.0546C60.1169 64.1779 60.1678 64.1721 60.2061 64.1597C60.2445 64.1472 60.2781 64.127 60.3088 64.0973V64.4532L60.3069 64.4542Z" fill="#00824A"/>
<path d="M63.896 65.6035C63.896 65.6956 63.8988 65.7705 63.9036 65.83C63.9094 65.8894 63.918 65.9393 63.9315 65.9796C63.9449 66.0199 63.9641 66.0535 63.9881 66.0784C64.0121 66.1043 64.0447 66.1274 64.085 66.1494H63.2714C63.3117 66.1283 63.3443 66.1043 63.3683 66.0784C63.3923 66.0525 63.4115 66.0199 63.4249 65.9796C63.4383 65.9393 63.4479 65.8894 63.4527 65.83C63.4585 65.7705 63.4614 65.6947 63.4614 65.6035V63.8833C63.4614 63.7922 63.4585 63.7164 63.4527 63.6569C63.447 63.5974 63.4383 63.5476 63.4249 63.5073C63.4115 63.467 63.3923 63.4334 63.3683 63.4084C63.3443 63.3835 63.3117 63.3595 63.2714 63.3374H64.085C64.0447 63.3595 64.0121 63.3825 63.9881 63.4084C63.9641 63.4343 63.9449 63.467 63.9315 63.5073C63.918 63.5476 63.9084 63.5974 63.9036 63.6569C63.8979 63.7164 63.896 63.7922 63.896 63.8833V65.6035ZM64.556 63.8997C64.6203 63.8162 64.6721 63.7394 64.7095 63.6713C64.7469 63.6022 64.7661 63.5514 64.7661 63.5197C64.7661 63.4526 64.723 63.3912 64.6366 63.3374H65.4051L64.4217 64.6C64.5781 64.8101 64.7028 64.978 64.7959 65.1037C64.8889 65.2294 64.9647 65.3301 65.0223 65.4069C65.0799 65.4836 65.1278 65.545 65.1662 65.5911C65.2036 65.6371 65.2449 65.6841 65.288 65.7331C65.3178 65.7657 65.3485 65.7973 65.3811 65.828C65.4137 65.8587 65.4502 65.8904 65.4905 65.923C65.5308 65.9556 65.5759 65.9902 65.6258 66.0285C65.6756 66.066 65.7332 66.1072 65.7975 66.1504C65.7438 66.1561 65.6785 66.1609 65.6027 66.1648C65.5269 66.1686 65.4559 66.1705 65.3878 66.1705C65.3044 66.1705 65.2334 66.1629 65.1758 66.1485C65.1173 66.1341 65.0568 66.0976 64.9935 66.041C64.9302 65.9844 64.8554 65.9 64.769 65.7877C64.6827 65.6755 64.5695 65.5229 64.4294 65.3282C64.3699 65.2418 64.3095 65.1565 64.249 65.0711C64.1886 64.9857 64.1272 64.9003 64.0648 64.814C64.0456 64.7928 64.0284 64.7708 64.0121 64.7497C63.9958 64.7276 63.9794 64.7065 63.9631 64.6844L64.5541 63.8997H64.556Z" fill="#00824A"/>
<path d="M66.3443 65.1219C66.3549 65.3742 66.4355 65.5709 66.5851 65.7119C66.7348 65.853 66.9392 65.924 67.1982 65.924C67.3412 65.924 67.4678 65.9057 67.5791 65.8702C67.6894 65.8348 67.8017 65.7772 67.9149 65.6976L67.6846 66.1063C67.5896 66.1437 67.4975 66.1705 67.4073 66.1849C67.3172 66.1993 67.2126 66.207 67.0936 66.207C66.9152 66.207 66.7521 66.1811 66.6043 66.1302C66.4556 66.0794 66.328 66.0074 66.2215 65.9153C66.115 65.8232 66.0316 65.7139 65.9731 65.5853C65.9136 65.4568 65.8838 65.3157 65.8838 65.1622C65.8838 65.0087 65.9145 64.8696 65.9769 64.7295C66.0393 64.5895 66.1237 64.4695 66.2321 64.3698C66.4182 64.2057 66.6561 64.1232 66.944 64.1232C67.084 64.1232 67.2136 64.1462 67.3325 64.1923C67.4515 64.2383 67.5541 64.3026 67.6405 64.387C67.7268 64.4705 67.794 64.5693 67.8429 64.6825C67.8918 64.7957 67.9158 64.9204 67.9158 65.0548V65.1238H66.3453L66.3443 65.1219ZM67.4659 64.8552C67.4035 64.5396 67.2231 64.3813 66.9238 64.3813C66.778 64.3813 66.6561 64.4225 66.5573 64.505C66.4585 64.5875 66.3933 64.7036 66.3607 64.8552H67.4659Z" fill="#00824A"/>
<path d="M68.7774 64.458C68.8666 64.3371 68.9577 64.2498 69.0527 64.199C69.1467 64.1481 69.2628 64.1222 69.401 64.1222C69.5487 64.1222 69.6744 64.152 69.7771 64.2115C69.8797 64.2709 69.9709 64.3669 70.0524 64.4993C70.1551 64.3621 70.2567 64.2642 70.3584 64.2076C70.4592 64.151 70.582 64.1222 70.7249 64.1222C70.8679 64.1222 71.0032 64.1501 71.1221 64.2076C71.2411 64.2642 71.3303 64.34 71.3898 64.434C71.4272 64.4983 71.4541 64.5693 71.4685 64.6441C71.4829 64.7199 71.4905 64.8264 71.4905 64.9636V65.7283C71.4905 65.7983 71.4934 65.8568 71.4982 65.9048C71.504 65.9518 71.5126 65.9911 71.527 66.0218C71.5404 66.0525 71.5596 66.0775 71.5836 66.0967C71.6076 66.1159 71.6402 66.1331 71.6805 66.1494H70.9389C70.9763 66.1226 71.006 66.0986 71.0281 66.0765C71.0502 66.0554 71.0674 66.0305 71.078 66.0017C71.0885 65.9739 71.0953 65.9384 71.0981 65.8962C71.101 65.8539 71.102 65.7983 71.102 65.7283V65.0682C71.102 64.9492 71.0933 64.8552 71.0761 64.7852C71.0588 64.7151 71.031 64.6547 70.9936 64.6029C70.9504 64.552 70.8967 64.5108 70.8305 64.481C70.7643 64.4513 70.6923 64.4369 70.6146 64.4369C70.5206 64.4369 70.4352 64.459 70.3584 64.5022C70.2817 64.5453 70.2251 64.6029 70.1867 64.6758C70.1762 64.695 70.1675 64.7132 70.1627 64.7305C70.157 64.7478 70.1531 64.7679 70.1503 64.789C70.1474 64.8101 70.1455 64.8379 70.1445 64.8715C70.1435 64.9051 70.1426 64.9473 70.1426 64.9991V65.7273C70.1426 65.7973 70.1435 65.853 70.1464 65.8933C70.1493 65.9336 70.156 65.9681 70.1666 65.9969C70.1771 66.0247 70.1944 66.0506 70.2165 66.0717C70.2395 66.0938 70.2692 66.1187 70.3066 66.1485H69.5938C69.6312 66.1216 69.661 66.0976 69.6821 66.0756C69.7032 66.0545 69.7195 66.0295 69.73 66.0007C69.7406 65.9729 69.7473 65.9374 69.7502 65.8952C69.7531 65.853 69.754 65.7973 69.754 65.7273V65.0308C69.754 64.8283 69.7108 64.6825 69.6255 64.5933C69.5823 64.5472 69.5295 64.5127 69.4662 64.4878C69.4029 64.4638 69.3376 64.4513 69.2705 64.4513C69.187 64.4513 69.1093 64.4686 69.0364 64.5022C68.9635 64.5357 68.9088 64.5827 68.8714 64.6422C68.8416 64.6854 68.8225 64.7295 68.8129 64.7737C68.8033 64.8178 68.7985 64.884 68.7985 64.9703V65.7273C68.7985 65.7973 68.7994 65.8539 68.8023 65.8952C68.8052 65.9374 68.8119 65.9719 68.8225 66.0007C68.833 66.0295 68.8493 66.0545 68.8704 66.0756C68.8915 66.0976 68.9203 66.1216 68.9577 66.1485H68.2487C68.2862 66.1187 68.3159 66.0928 68.338 66.0717C68.3591 66.0506 68.3754 66.0247 68.3869 65.9969C68.3974 65.9691 68.4042 65.9345 68.407 65.8933C68.4099 65.853 68.4109 65.7973 68.4109 65.7273V64.5981C68.4109 64.5309 68.4099 64.4762 68.407 64.434C68.4042 64.3918 68.3974 64.3573 68.3869 64.3285C68.3763 64.2997 68.36 64.2748 68.338 64.2537C68.3159 64.2316 68.2862 64.2067 68.2487 64.1769H68.5452C68.6546 64.1769 68.7323 64.1501 68.7783 64.0963V64.4561L68.7774 64.458Z" fill="#00824A"/>
<path d="M72.5449 65.7283C72.5449 65.7983 72.5459 65.8539 72.5487 65.8942C72.5516 65.9345 72.5583 65.9691 72.5689 65.9978C72.5794 66.0257 72.5958 66.0516 72.6178 66.0727C72.6389 66.0947 72.6687 66.1197 72.707 66.1494H71.9952C72.0326 66.1197 72.0623 66.0938 72.0844 66.0727C72.1055 66.0516 72.1218 66.0257 72.1333 65.9978C72.1439 65.97 72.1506 65.9355 72.1535 65.8942C72.1563 65.8539 72.1573 65.7983 72.1573 65.7283V64.5991C72.1573 64.5319 72.1563 64.4772 72.1535 64.435C72.1506 64.3928 72.1439 64.3582 72.1333 64.3295C72.1228 64.3007 72.1065 64.2757 72.0844 64.2546C72.0623 64.2326 72.0326 64.2076 71.9952 64.1779H72.2916C72.354 64.1779 72.4048 64.1721 72.4432 64.1597C72.4816 64.1472 72.5152 64.127 72.5459 64.0973L72.5449 65.7283ZM72.3463 63.3893C72.4163 63.3893 72.4768 63.4152 72.5286 63.4679C72.5794 63.5207 72.6053 63.5821 72.6053 63.6521C72.6053 63.7279 72.5794 63.7912 72.5286 63.8421C72.4777 63.8939 72.4135 63.9188 72.3386 63.9188C72.2638 63.9188 72.2034 63.8929 72.1525 63.8421C72.1017 63.7912 72.0758 63.7279 72.0758 63.6521C72.0758 63.5763 72.1017 63.5169 72.1525 63.466C72.2034 63.4152 72.2686 63.3893 72.3463 63.3893Z" fill="#00824A"/>
<path d="M73.6501 65.3685C73.6501 65.4874 73.6559 65.5738 73.6664 65.6294C73.677 65.6851 73.6971 65.7311 73.7269 65.7695C73.8075 65.8664 73.9168 65.9153 74.055 65.9153C74.0876 65.9153 74.1154 65.9125 74.1404 65.9077C74.1644 65.9019 74.196 65.8933 74.2334 65.8798L74.0109 66.183C73.9811 66.1936 73.9562 66.2003 73.936 66.2032C73.9159 66.206 73.889 66.207 73.8574 66.207C73.7681 66.207 73.6885 66.1916 73.6175 66.16C73.5465 66.1293 73.4803 66.0823 73.418 66.0209C73.3853 65.9854 73.3585 65.9518 73.3383 65.9201C73.3182 65.8875 73.3019 65.8491 73.2913 65.805C73.2808 65.7609 73.2731 65.7062 73.2692 65.6429C73.2654 65.5796 73.2635 65.5009 73.2635 65.4059V64.4628H72.9718V64.3093C73.1205 64.2853 73.2376 64.223 73.3249 64.1232C73.4314 64.01 73.4841 63.8344 73.4841 63.5974V63.5447H73.652V64.1798H73.984C74.054 64.1798 74.1068 64.1788 74.1413 64.176C74.1768 64.1731 74.2075 64.1664 74.2344 64.1558V64.5405C74.1989 64.5108 74.1644 64.4906 74.1289 64.4801C74.0934 64.4695 74.0396 64.4638 73.9667 64.4638H73.6511V65.3704L73.6501 65.3685Z" fill="#00824A"/>
<path d="M74.4349 66.1494C74.4723 66.1197 74.5021 66.0938 74.5241 66.0727C74.5452 66.0516 74.5615 66.0257 74.5731 65.9978C74.5836 65.97 74.5903 65.9355 74.5932 65.8942C74.5961 65.8539 74.597 65.7983 74.597 65.7283V64.5991C74.597 64.5319 74.5961 64.4772 74.5932 64.435C74.5903 64.3928 74.5836 64.3582 74.5731 64.3295C74.5625 64.3007 74.5462 64.2757 74.5241 64.2546C74.5021 64.2326 74.4723 64.2076 74.4349 64.1779H74.7314C74.7937 64.1779 74.8446 64.1721 74.8829 64.1597C74.9213 64.1472 74.9549 64.127 74.9856 64.0973V64.4494C75.1017 64.2306 75.2715 64.1213 75.496 64.1213C75.5334 64.1213 75.5833 64.127 75.6457 64.1376V64.53C75.5967 64.4839 75.5296 64.4609 75.4432 64.4609C75.3674 64.4609 75.2964 64.4762 75.2312 64.507C75.165 64.5377 75.1132 64.5808 75.0758 64.6346C75.0163 64.718 74.9866 64.8475 74.9866 65.0231V65.7273C74.9866 65.7973 74.9875 65.853 74.9904 65.8933C74.9933 65.9336 75 65.9681 75.0105 65.9969C75.0211 66.0247 75.0374 66.0506 75.0595 66.0717C75.0806 66.0938 75.1103 66.1187 75.1487 66.1485H74.4368L74.4349 66.1494Z" fill="#00824A"/>
<path d="M77.1059 65.0816C77.0685 65.0979 77.0368 65.1114 77.0109 65.1219C76.985 65.1325 76.9552 65.144 76.9197 65.1545C76.8842 65.1651 76.8391 65.1776 76.7845 65.191C76.7288 65.2044 76.654 65.2217 76.56 65.2438C76.3547 65.2927 76.252 65.4011 76.252 65.5719C76.252 65.6822 76.2923 65.7686 76.3719 65.829C76.4516 65.8894 76.5638 65.9201 76.7077 65.9201C76.7614 65.9201 76.8113 65.9163 76.8564 65.9077C76.9015 65.9 76.9591 65.8846 77.0291 65.8635L76.7777 66.183C76.7317 66.1936 76.6924 66.2003 76.6607 66.2032C76.6281 66.206 76.5887 66.207 76.5437 66.207C76.3278 66.207 76.1589 66.1514 76.0381 66.041C75.968 65.9787 75.9143 65.9057 75.8759 65.8223C75.8385 65.7388 75.8193 65.6534 75.8193 65.5671C75.8193 65.4807 75.8404 65.3944 75.8836 65.3157C75.9268 65.237 75.9843 65.1776 76.0572 65.1373C76.087 65.121 76.1177 65.1066 76.1503 65.0931C76.1829 65.0797 76.2203 65.0663 76.2635 65.0528C76.3067 65.0394 76.3566 65.026 76.4132 65.0145C76.4698 65.002 76.5379 64.9876 76.6185 64.9723C76.7125 64.9531 76.7902 64.9348 76.8526 64.9176C76.914 64.9003 76.9639 64.8802 77.0003 64.8571C77.0368 64.8341 77.0617 64.8082 77.0771 64.7804C77.0924 64.7526 77.0991 64.719 77.0991 64.6806C77.0991 64.5991 77.0617 64.5338 76.9859 64.4839C76.9101 64.434 76.8123 64.4091 76.6904 64.4091C76.6444 64.4091 76.6012 64.412 76.5609 64.4177C76.5206 64.4235 76.4784 64.4321 76.4352 64.4446C76.3921 64.4571 76.3441 64.4753 76.2913 64.4983C76.2386 64.5223 76.1772 64.5501 76.1071 64.5827L76.3911 64.1539C76.4535 64.1405 76.5043 64.1328 76.5437 64.1299C76.583 64.127 76.631 64.1261 76.6876 64.1261C77.0502 64.1261 77.2901 64.222 77.409 64.4139C77.4282 64.4436 77.4426 64.4715 77.4532 64.4974C77.4637 64.5233 77.4724 64.554 77.4771 64.5904C77.4819 64.6269 77.4867 64.671 77.4896 64.7238C77.4925 64.7765 77.4935 64.8427 77.4935 64.9243V65.475C77.4935 65.5373 77.4944 65.5872 77.4973 65.6266C77.5002 65.6659 77.505 65.6976 77.5117 65.7215C77.5184 65.7455 77.529 65.7666 77.5443 65.7839C77.5587 65.8012 77.5788 65.8184 77.6028 65.8348C77.6326 65.8587 77.6671 65.876 77.7064 65.8856C77.7458 65.8952 77.7957 65.9009 77.858 65.9038L77.6719 66.183C77.5644 66.1753 77.481 66.1638 77.4244 66.1504C77.3668 66.137 77.315 66.1149 77.269 66.0861C77.2363 66.0669 77.2085 66.0458 77.1874 66.0209C77.1653 65.9969 77.149 65.9681 77.1366 65.9336C77.1241 65.9 77.1164 65.8597 77.1116 65.8117C77.1078 65.7647 77.1059 65.7062 77.1059 65.6362V65.0816Z" fill="#00824A"/>
<path d="M79.3115 65.0816C79.2741 65.0979 79.2424 65.1114 79.2165 65.1219C79.1906 65.1325 79.1609 65.144 79.1254 65.1545C79.0899 65.1651 79.0448 65.1776 78.9901 65.191C78.9345 65.2044 78.8596 65.2217 78.7656 65.2438C78.5603 65.2927 78.4576 65.4011 78.4576 65.5719C78.4576 65.6822 78.4979 65.7686 78.5776 65.829C78.6572 65.8894 78.7694 65.9201 78.9134 65.9201C78.9671 65.9201 79.017 65.9163 79.0621 65.9077C79.1072 65.9 79.1647 65.8846 79.2348 65.8635L78.9834 66.183C78.9373 66.1936 78.898 66.2003 78.8663 66.2032C78.8337 66.206 78.7944 66.207 78.7493 66.207C78.5334 66.207 78.3646 66.1514 78.2437 66.041C78.1737 65.9787 78.1199 65.9057 78.0816 65.8223C78.0441 65.7388 78.025 65.6534 78.025 65.5671C78.025 65.4807 78.0461 65.3944 78.0892 65.3157C78.1324 65.237 78.19 65.1776 78.2629 65.1373C78.2926 65.121 78.3233 65.1066 78.3559 65.0931C78.3886 65.0797 78.426 65.0663 78.4692 65.0528C78.5123 65.0394 78.5622 65.026 78.6188 65.0145C78.6754 65.002 78.7435 64.9876 78.8241 64.9723C78.9182 64.9531 78.9959 64.9348 79.0582 64.9176C79.1196 64.9003 79.1695 64.8802 79.206 64.8571C79.2424 64.8341 79.2674 64.8082 79.2827 64.7804C79.2981 64.7526 79.3048 64.719 79.3048 64.6806C79.3048 64.5991 79.2674 64.5338 79.1916 64.4839C79.1158 64.434 79.0179 64.4091 78.8961 64.4091C78.85 64.4091 78.8069 64.412 78.7666 64.4177C78.7263 64.4235 78.6841 64.4321 78.6409 64.4446C78.5977 64.4571 78.5497 64.4753 78.497 64.4983C78.4442 64.5223 78.3828 64.5501 78.3128 64.5827L78.5968 64.1539C78.6591 64.1405 78.71 64.1328 78.7483 64.1299C78.7877 64.127 78.8357 64.1261 78.8923 64.1261C79.2549 64.1261 79.4947 64.222 79.6137 64.4139C79.6329 64.4436 79.6473 64.4715 79.6578 64.4974C79.6684 64.5233 79.677 64.554 79.6818 64.5904C79.6866 64.6269 79.6914 64.671 79.6943 64.7238C79.6972 64.7765 79.6981 64.8427 79.6981 64.9243V65.475C79.6981 65.5373 79.6991 65.5872 79.702 65.6266C79.7049 65.6659 79.7097 65.6976 79.7164 65.7215C79.7231 65.7455 79.7336 65.7666 79.749 65.7839C79.7634 65.8012 79.7835 65.8184 79.8075 65.8348C79.8372 65.8587 79.8718 65.876 79.9111 65.8856C79.9505 65.8952 80.0004 65.9009 80.0627 65.9038L79.8766 66.183C79.7691 66.1753 79.6857 66.1638 79.6291 66.1504C79.5715 66.137 79.5197 66.1149 79.4736 66.0861C79.441 66.0669 79.4132 66.0458 79.3921 66.0209C79.37 65.9969 79.3537 65.9681 79.3412 65.9336C79.3288 65.9 79.3211 65.8597 79.3163 65.8117C79.3125 65.7647 79.3105 65.7062 79.3105 65.6362V65.0855L79.3115 65.0816Z" fill="#00824A"/>
<path d="M80.789 64.4542C80.8916 64.3323 80.9904 64.247 81.0854 64.1971C81.1814 64.1472 81.2917 64.1222 81.4183 64.1222C81.5555 64.1222 81.6831 64.1501 81.8021 64.2057C81.9201 64.2613 82.0103 64.3343 82.0726 64.4264C82.0918 64.4561 82.1072 64.4878 82.1206 64.5213C82.134 64.5549 82.1446 64.5943 82.1532 64.6384C82.1609 64.6825 82.1667 64.7353 82.1695 64.7938C82.1724 64.8533 82.1734 64.9233 82.1734 65.0039V65.7283C82.1734 65.7983 82.1743 65.8539 82.1772 65.8942C82.1801 65.9345 82.1868 65.9691 82.1974 65.9978C82.2079 66.0257 82.2242 66.0516 82.2463 66.0727C82.2674 66.0947 82.2971 66.1197 82.3355 66.1494H81.6236C81.6601 66.1197 81.6898 66.0938 81.7129 66.0727C81.7349 66.0516 81.7522 66.0257 81.7618 65.9978C81.7723 65.97 81.7791 65.9345 81.781 65.8923C81.7839 65.8501 81.7848 65.7964 81.7848 65.7283V65.048C81.7848 64.9348 81.7781 64.8466 81.7647 64.7833C81.7513 64.7199 81.7273 64.6653 81.6927 64.6192C81.6496 64.5655 81.5901 64.5213 81.5124 64.4878C81.4346 64.4542 81.3531 64.4369 81.2677 64.4369C81.1823 64.4369 81.1037 64.4542 81.0327 64.4878C80.9617 64.5213 80.906 64.5664 80.8657 64.623C80.8446 64.6528 80.8293 64.6854 80.8216 64.7199C80.8139 64.7554 80.8101 64.8034 80.8101 64.8658V65.7283C80.8101 65.7983 80.811 65.8539 80.8139 65.8942C80.8168 65.9345 80.8235 65.9691 80.8341 65.9978C80.8446 66.0257 80.86 66.0516 80.8811 66.0727C80.9022 66.0947 80.931 66.1197 80.9684 66.1494H80.2603C80.2978 66.1197 80.3275 66.0938 80.3496 66.0727C80.3707 66.0516 80.387 66.0257 80.3985 65.9978C80.4091 65.97 80.4158 65.9355 80.4186 65.8942C80.4215 65.8539 80.4225 65.7983 80.4225 65.7283V64.5991C80.4225 64.5319 80.4215 64.4772 80.4186 64.435C80.4158 64.3928 80.4091 64.3582 80.3985 64.3295C80.388 64.3007 80.3716 64.2757 80.3496 64.2546C80.3275 64.2326 80.2978 64.2076 80.2603 64.1779H80.5367C80.599 64.1779 80.6499 64.1721 80.6882 64.1597C80.7266 64.1472 80.7602 64.127 80.7909 64.0973V64.4532L80.789 64.4542Z" fill="#00824A"/>
</g>
<rect x="1.5" y="1" width="110" height="110" rx="9" stroke="#CCCCCC" stroke-width="2"/>
<defs>
<clipPath id="clip0_528_596">
<rect x="2.5" y="2" width="108" height="108" rx="8" fill="white"/>
</clipPath>
</defs>
</svg>
