<svg width="112" height="112" viewBox="0 0 112 112" fill="none" xmlns="http://www.w3.org/2000/svg">
<g clip-path="url(#clip0_642_1034)">
<rect x="2" y="2" width="108" height="108" rx="8" fill="white"/>
<path fill-rule="evenodd" clip-rule="evenodd" d="M31.8255 43.0001C31.6335 43.1833 31.5942 43.2749 31.472 43.5149C31.3673 43.72 31.267 43.9382 31.1753 44.165C30.8743 44.9155 30.6387 45.7794 30.438 46.7001C29.8402 49.414 29.5653 52.0451 29.1028 54.7503C29.0286 55.1822 28.937 55.6709 28.7843 56.1247C28.5792 56.7355 28.2738 57.294 27.6891 57.6126C27.4928 57.7173 27.2702 57.8002 27.0128 57.8482H19.351C19.7524 57.4206 20.0971 56.5828 20.3938 55.5138C20.625 54.6761 20.8345 53.6987 21.0221 52.6646C21.3624 50.8015 21.5719 48.921 21.8773 47.0535C22.1216 45.5438 22.6714 43.4364 24.0371 43.0044H31.8255V43.0001Z" fill="#EFB305"/>
<path fill-rule="evenodd" clip-rule="evenodd" d="M41.5904 54.9422C41.5904 55.2564 41.5424 55.5487 41.4508 55.8149C41.3548 56.0811 41.2239 56.321 41.0537 56.5348C40.8836 56.7486 40.6785 56.9319 40.4429 57.0933C40.2029 57.2504 39.9367 57.3857 39.64 57.4947C39.339 57.6038 39.0205 57.6867 38.6801 57.7391C38.3398 57.7958 37.9471 57.822 37.5108 57.822H34.4521C34.3125 57.822 34.1816 57.7827 34.0594 57.7042C33.9373 57.6213 33.8762 57.4817 33.8762 57.2809V48.3232C33.8762 48.1225 33.9373 47.9829 34.0594 47.9C34.1816 47.8214 34.3125 47.7822 34.4521 47.7822H37.1137C37.8118 47.7822 38.3878 47.8389 38.8285 47.9523C39.2779 48.0658 39.6488 48.2316 39.9455 48.4497C40.2465 48.6679 40.469 48.9341 40.6174 49.2482C40.7701 49.5624 40.8443 49.9202 40.8443 50.3172C40.8443 50.5572 40.8094 50.7841 40.7439 51.0022C40.6785 51.2204 40.5825 51.4211 40.4516 51.6044C40.3207 51.7876 40.1636 51.9534 39.9629 52.0974C39.7666 52.2414 39.544 52.3592 39.291 52.4552C39.6095 52.5076 39.9106 52.5992 40.1854 52.7388C40.4647 52.8741 40.7047 53.0486 40.9141 53.2624C41.1192 53.4762 41.285 53.7249 41.4071 54.0085C41.5293 54.2921 41.5904 54.6063 41.5904 54.9466V54.9422ZM95.9738 54.8113C95.9738 55.1691 95.9171 55.492 95.8036 55.78C95.6858 56.0723 95.5288 56.3298 95.3281 56.5523C95.123 56.7748 94.883 56.9668 94.6038 57.1239C94.3245 57.2853 94.0147 57.4162 93.6788 57.5209C93.3428 57.6256 92.9806 57.6998 92.5967 57.7478C92.2127 57.8002 91.7895 57.822 91.3139 57.822H88.2029C88.0022 57.822 87.8364 57.7696 87.7011 57.6693C87.5659 57.5689 87.496 57.4031 87.496 57.1762V48.4236C87.496 48.1967 87.5659 48.0309 87.7011 47.9305C87.8364 47.8302 88.0022 47.7778 88.2029 47.7778H91.1437C91.8593 47.7778 92.4701 47.8302 92.9632 47.9349C93.4606 48.0396 93.8795 48.1967 94.2198 48.4018C94.5645 48.6112 94.8219 48.8773 95.0052 49.1959C95.1841 49.5144 95.2757 49.894 95.2757 50.3303C95.2757 50.5746 95.2364 50.8015 95.1666 51.0153C95.0968 51.2291 94.9921 51.4255 94.8525 51.6C94.7128 51.7789 94.5427 51.9316 94.342 52.0669C94.1413 52.2021 93.91 52.3112 93.6526 52.3941C93.9842 52.4465 94.2896 52.5381 94.5732 52.669C94.8525 52.7999 95.0968 52.9613 95.3062 53.1708C95.5113 53.3758 95.6815 53.6115 95.7993 53.8907C95.9215 54.1656 95.9782 54.471 95.9782 54.8113H95.9738ZM92.8977 50.5834C92.8977 50.3783 92.8628 50.1994 92.7887 50.0423C92.7188 49.8809 92.6054 49.75 92.4614 49.6409C92.3174 49.5362 92.1385 49.4533 91.916 49.3966C91.6978 49.3398 91.4055 49.3137 91.0346 49.3137H89.8304V51.9185H91.1612C91.5059 51.9185 91.7764 51.8836 91.9815 51.8138C92.1865 51.744 92.3567 51.648 92.492 51.5258C92.6272 51.4037 92.7276 51.2597 92.793 51.0982C92.8585 50.9368 92.8934 50.7623 92.8934 50.5834H92.8977ZM93.5042 54.8855C93.5042 54.6543 93.4606 54.4448 93.369 54.2616C93.2773 54.074 93.1464 53.9212 92.9719 53.7991C92.7974 53.6769 92.5749 53.5809 92.3 53.5111C92.0294 53.4457 91.676 53.4108 91.2397 53.4108H89.8304V56.2687H91.5495C91.8811 56.2687 92.156 56.2381 92.3872 56.177C92.6141 56.1203 92.8061 56.0331 92.9719 55.9153C93.1377 55.7974 93.2686 55.6535 93.3602 55.4789C93.4519 55.3044 93.4999 55.1081 93.4999 54.8855H93.5042ZM86.6932 48.6199C86.6932 48.7726 86.6845 48.8992 86.667 49.0039C86.6496 49.1086 86.6321 49.1959 86.5972 49.2613C86.5667 49.3268 86.5274 49.3748 86.4881 49.4053C86.4401 49.4358 86.3921 49.4533 86.3354 49.4533H83.4077V57.5515C83.4077 57.6038 83.3902 57.6475 83.351 57.6911C83.3117 57.7347 83.2463 57.7696 83.1546 57.7914C83.063 57.8176 82.9408 57.8394 82.7881 57.8569C82.6354 57.8743 82.4434 57.8787 82.2122 57.8787C81.9809 57.8787 81.7933 57.87 81.6362 57.8569C81.4835 57.8394 81.3613 57.8176 81.2741 57.7914C81.1824 57.7696 81.117 57.7347 81.0777 57.6911C81.0385 57.6518 81.021 57.6038 81.021 57.5515V49.4489H78.0889C78.0322 49.4489 77.9798 49.4315 77.9362 49.4009C77.8926 49.3704 77.8576 49.3224 77.8271 49.2569C77.8009 49.1915 77.7747 49.1042 77.7573 48.9995C77.7442 48.8948 77.7355 48.7683 77.7355 48.6156C77.7355 48.4628 77.7442 48.3276 77.7573 48.2229C77.7747 48.1138 77.7966 48.0265 77.8271 47.9654C77.8576 47.9 77.8969 47.852 77.9362 47.8258C77.9755 47.7953 78.0278 47.7822 78.0889 47.7822H86.3398C86.3965 47.7822 86.4445 47.7953 86.4925 47.8258C86.5361 47.8563 86.571 47.9 86.6016 47.9654C86.6321 48.0309 86.6539 48.1181 86.6714 48.2229C86.6889 48.3319 86.6976 48.4628 86.6976 48.6156L86.6932 48.6199ZM76.9283 57.1108C76.9283 57.2286 76.9021 57.3377 76.8585 57.4293C76.8105 57.5209 76.745 57.5995 76.6621 57.6605C76.5792 57.726 76.4832 57.7696 76.3698 57.8002C76.2607 57.8263 76.1429 57.8438 76.0295 57.8438H75.0172C74.8077 57.8438 74.6201 57.8263 74.4718 57.7871C74.3191 57.7522 74.1751 57.6867 74.0442 57.5907C73.9133 57.4947 73.7867 57.3638 73.6689 57.2024C73.5468 57.041 73.4115 56.8272 73.2632 56.5697L70.3485 51.8749C70.1827 51.5956 70.0082 51.2946 69.8336 50.9717C69.6591 50.6488 69.502 50.3347 69.3624 50.0292H69.345C69.3711 50.4001 69.3886 50.771 69.4017 51.1419C69.4104 51.5127 69.4191 51.8923 69.4191 52.285V57.5427C69.4191 57.5951 69.4017 57.6387 69.3711 57.6824C69.3406 57.726 69.2795 57.7609 69.201 57.7871C69.1181 57.8176 69.009 57.8394 68.8694 57.8525C68.7298 57.87 68.5509 57.8743 68.3371 57.8743C68.1233 57.8743 67.9531 57.8656 67.8135 57.8525C67.6738 57.8351 67.5648 57.8133 67.4862 57.7871C67.4077 57.7565 67.3553 57.7216 67.3248 57.6824C67.2942 57.6431 67.2768 57.5951 67.2768 57.5427V48.5108C67.2768 48.2709 67.3597 48.0876 67.5255 47.9654C67.6913 47.8433 67.892 47.7822 68.132 47.7822H69.4104C69.6373 47.7822 69.8293 47.7996 69.9864 47.8345C70.1434 47.8694 70.2831 47.9262 70.4052 48.0003C70.5274 48.0789 70.6452 48.1836 70.7543 48.3232C70.8634 48.4585 70.9725 48.6286 71.0859 48.8293L73.3679 52.5032C73.4988 52.7257 73.6297 52.9439 73.7606 53.162C73.8915 53.3758 74.018 53.5896 74.1358 53.8078C74.258 54.0216 74.3714 54.2354 74.4892 54.4405C74.6027 54.6455 74.7161 54.855 74.8208 55.0601H74.8296C74.8121 54.6979 74.799 54.3227 74.7903 53.9256C74.7816 53.5329 74.7772 53.1577 74.7772 52.8043V48.092C74.7772 48.0396 74.7947 47.996 74.8296 47.9523C74.8645 47.9131 74.9299 47.8738 75.0128 47.8433C75.0957 47.8127 75.2092 47.7909 75.3444 47.7778C75.484 47.7647 75.6629 47.756 75.8767 47.756C76.0905 47.756 76.252 47.7647 76.3916 47.7778C76.5312 47.7865 76.6403 47.8127 76.7145 47.8433C76.793 47.8738 76.8454 47.9131 76.8716 47.9523C76.9021 47.996 76.9196 48.044 76.9196 48.092V57.1195L76.9283 57.1108ZM65.6362 57.6256C65.6362 57.6649 65.6231 57.7042 65.6013 57.7347C65.5751 57.7653 65.5359 57.7914 65.4791 57.8133C65.4224 57.8351 65.3439 57.8482 65.2392 57.8613C65.1388 57.87 65.0079 57.8787 64.8508 57.8787C64.6938 57.8787 64.5541 57.8743 64.4494 57.8656C64.3447 57.8569 64.2531 57.8438 64.1833 57.8307C64.1091 57.8133 64.0524 57.7871 64.0044 57.7522C63.9607 57.7216 63.9215 57.678 63.8822 57.6344L60.444 53.7685V57.6431C60.444 57.6824 60.4309 57.7216 60.4091 57.7478C60.3829 57.7784 60.3436 57.8002 60.2912 57.822C60.2345 57.8438 60.1603 57.8569 60.0644 57.87C59.964 57.8787 59.8418 57.8874 59.6891 57.8874C59.5451 57.8874 59.4273 57.8831 59.327 57.87C59.231 57.8613 59.1524 57.8438 59.1001 57.822C59.0434 57.8002 58.9997 57.7784 58.9823 57.7478C58.9605 57.7216 58.9474 57.6824 58.9474 57.6431V47.2629C58.9474 47.2193 58.9605 47.1844 58.9823 47.1539C58.9997 47.1233 59.039 47.0971 59.1001 47.0753C59.1568 47.0579 59.231 47.0404 59.327 47.0317C59.4273 47.023 59.5451 47.0142 59.6891 47.0142C59.8418 47.0142 59.964 47.0186 60.0644 47.0317C60.1603 47.0404 60.2345 47.0579 60.2912 47.0753C60.3436 47.0971 60.3829 47.1233 60.4091 47.1539C60.4352 47.1844 60.444 47.2193 60.444 47.2629V53.5809L63.52 50.6794C63.568 50.627 63.6204 50.5834 63.6728 50.5485C63.7251 50.5179 63.7906 50.4874 63.8691 50.4656C63.9433 50.4437 64.0349 50.4307 64.1353 50.4219C64.2356 50.4132 64.3621 50.4088 64.5061 50.4088C64.6501 50.4088 64.7854 50.4132 64.8857 50.4219C64.9861 50.4307 65.069 50.4394 65.1344 50.4568C65.1955 50.4743 65.2435 50.5005 65.2697 50.5266C65.2959 50.5528 65.309 50.5921 65.309 50.6401C65.309 50.7055 65.2872 50.7666 65.2522 50.8233C65.213 50.8888 65.1475 50.9586 65.0559 51.0415L62.1064 53.5722L65.4181 57.2591C65.4966 57.3464 65.549 57.4162 65.5839 57.4729C65.6188 57.5253 65.6319 57.5776 65.6319 57.6256H65.6362ZM57.5511 57.6344C57.5511 57.6736 57.538 57.7129 57.5162 57.7391C57.49 57.7696 57.4551 57.7914 57.3984 57.8133C57.3417 57.8351 57.2675 57.8482 57.1715 57.8613C57.0712 57.87 56.9534 57.8787 56.8094 57.8787C56.6567 57.8787 56.5345 57.8743 56.4341 57.8613C56.3382 57.8525 56.264 57.8351 56.2073 57.8133C56.1549 57.7914 56.1156 57.7696 56.0894 57.7391C56.0633 57.7129 56.0545 57.6736 56.0545 57.6344V53.5416C56.0545 53.1402 56.0196 52.8217 55.9455 52.5817C55.8756 52.3374 55.7709 52.128 55.6313 51.9491C55.4917 51.7745 55.3128 51.6393 55.0903 51.5476C54.8721 51.456 54.619 51.408 54.3267 51.408C53.9515 51.408 53.5806 51.5215 53.2053 51.7484C52.8301 51.9752 52.4374 52.3112 52.0273 52.7519V57.6344C52.0273 57.6736 52.0142 57.7129 51.9924 57.7391C51.9662 57.7696 51.9269 57.7914 51.8746 57.8133C51.8178 57.8351 51.7437 57.8482 51.6477 57.8613C51.5473 57.87 51.4251 57.8787 51.2724 57.8787C51.1284 57.8787 51.0106 57.8743 50.9103 57.8613C50.8143 57.8525 50.7358 57.8351 50.6834 57.8133C50.6267 57.7914 50.583 57.7696 50.5656 57.7391C50.5438 57.7129 50.5307 57.6736 50.5307 57.6344V50.6488C50.5307 50.6052 50.5394 50.5703 50.5569 50.5441C50.5743 50.5179 50.6136 50.4917 50.6659 50.4656C50.7227 50.4437 50.7881 50.4307 50.8754 50.4219C50.9583 50.4132 51.0717 50.4088 51.207 50.4088C51.3422 50.4088 51.4513 50.4132 51.5386 50.4219C51.6259 50.4307 51.6913 50.4437 51.7437 50.4656C51.7917 50.4874 51.8266 50.5179 51.8484 50.5441C51.8658 50.5746 51.8789 50.6096 51.8789 50.6488V51.5738C52.3371 51.1331 52.7908 50.8103 53.249 50.6052C53.7028 50.4001 54.1609 50.2998 54.6278 50.2998C55.1732 50.2998 55.6269 50.3783 55.9978 50.5397C56.3687 50.6968 56.6698 50.9063 56.901 51.1724C57.1279 51.4386 57.2937 51.7484 57.3897 52.1018C57.49 52.4552 57.5424 52.8828 57.5424 53.3802V57.6431L57.5511 57.6344ZM49.1737 57.6431C49.1737 57.7042 49.1475 57.7522 49.0995 57.7827C49.0515 57.8133 48.9861 57.8394 48.9032 57.8525C48.8159 57.87 48.6938 57.8743 48.5323 57.8743C48.3709 57.8743 48.2487 57.8656 48.1571 57.8525C48.0654 57.8351 47.9956 57.8133 47.952 57.7827C47.9084 57.7522 47.8909 57.7042 47.8909 57.6431V56.945C47.5331 57.2722 47.1361 57.5253 46.6998 57.7042C46.2634 57.8831 45.8009 57.9791 45.3122 57.9791C44.8846 57.9791 44.492 57.9311 44.1473 57.8351C43.8026 57.7391 43.5059 57.6038 43.2615 57.4206C43.0172 57.2373 42.8252 57.0148 42.6899 56.753C42.559 56.4868 42.4892 56.1901 42.4892 55.8542C42.4892 55.4615 42.5809 55.1211 42.7685 54.8288C42.9561 54.5408 43.2266 54.3009 43.5757 54.1089C43.9247 53.9169 44.3523 53.7729 44.8585 53.6769C45.3646 53.5809 45.9362 53.5329 46.5689 53.5329H47.6902V52.9919C47.6902 52.7214 47.6553 52.4814 47.5899 52.2763C47.52 52.0712 47.4153 51.8967 47.267 51.7614C47.1186 51.6218 46.9266 51.5215 46.691 51.4473C46.4554 51.3775 46.1674 51.3426 45.8227 51.3426C45.4519 51.3426 45.1246 51.3775 44.8323 51.456C44.54 51.5346 44.2825 51.6131 44.0644 51.7047C43.8418 51.7964 43.6586 51.8749 43.5102 51.9534C43.3619 52.0276 43.2528 52.0625 43.1786 52.0625C43.1306 52.0625 43.0914 52.0538 43.0521 52.032C43.0172 52.0102 42.9823 51.9796 42.9561 51.936C42.9299 51.8967 42.9081 51.8443 42.8994 51.7789C42.8863 51.7135 42.8819 51.6436 42.8819 51.5651C42.8819 51.4342 42.895 51.3338 42.9168 51.2597C42.9386 51.1855 42.9866 51.1157 43.0695 51.0459C43.1481 50.9804 43.2877 50.9019 43.4884 50.8103C43.6848 50.7186 43.916 50.6401 44.1734 50.5616C44.4309 50.4874 44.7188 50.4263 45.0243 50.3739C45.3297 50.3216 45.6395 50.2998 45.958 50.2998C46.5427 50.2998 47.0401 50.3565 47.4502 50.4699C47.8604 50.5834 48.192 50.7492 48.445 50.9717C48.6981 51.1899 48.8814 51.4647 48.9992 51.792C49.1126 52.1192 49.1737 52.4945 49.1737 52.9308V57.6431ZM47.6902 54.4536H46.4161C46.006 54.4536 45.6526 54.4841 45.3472 54.5408C45.0461 54.6019 44.7974 54.6892 44.5967 54.807C44.4003 54.9248 44.252 55.0644 44.1603 55.2259C44.0687 55.3917 44.0207 55.5749 44.0207 55.7887C44.0207 56.1509 44.1516 56.4388 44.4221 56.657C44.6927 56.8708 45.0679 56.9799 45.5479 56.9799C45.9406 56.9799 46.3027 56.897 46.6387 56.7224C46.9703 56.5523 47.3237 56.2905 47.6902 55.9371V54.4536ZM39.2561 50.4568C39.2561 50.2125 39.2168 49.9943 39.1383 49.798C39.0597 49.6016 38.9376 49.4358 38.7674 49.2962C38.5972 49.1566 38.3791 49.0519 38.1085 48.9821C37.838 48.9123 37.4802 48.873 37.0308 48.873H35.4208V52.128H37.1923C37.598 52.128 37.9253 52.0843 38.1696 51.9883C38.4183 51.8967 38.619 51.7745 38.7848 51.6262C38.9506 51.4735 39.0641 51.2946 39.1426 51.0895C39.2168 50.8844 39.2517 50.675 39.2517 50.4568H39.2561ZM39.9629 55.0251C39.9629 54.7241 39.9062 54.4623 39.7927 54.2354C39.6837 54.0085 39.5222 53.8122 39.3041 53.6595C39.0903 53.5024 38.8241 53.3846 38.5012 53.306C38.1783 53.2275 37.7726 53.1882 37.2839 53.1882H35.4208V56.7268H37.6809C38.0387 56.7268 38.3485 56.6919 38.6147 56.6177C38.8808 56.5479 39.1164 56.4388 39.3172 56.2949C39.5222 56.1552 39.6793 55.9763 39.7927 55.7669C39.9062 55.5531 39.9673 55.3088 39.9673 55.0295L39.9629 55.0251Z" fill="#0B6E45"/>
<path fill-rule="evenodd" clip-rule="evenodd" d="M16.925 50.4045C17.3221 52.2152 17.5053 53.9692 17.8151 55.7756C17.8631 56.0636 17.9242 56.3865 18.0289 56.6919C18.1642 57.1021 18.3692 57.4729 18.7576 57.6824C18.8885 57.7522 19.0368 57.8045 19.207 57.8394H19.351C19.7524 57.4118 20.0927 56.5741 20.3894 55.5095C20.6207 54.6717 20.8301 53.6944 21.0177 52.6603C21.3057 51.0939 21.4977 49.5144 21.7333 47.9392H16C16.1265 48.0614 16.1571 48.1225 16.2356 48.2839C16.3054 48.4192 16.3709 48.5632 16.432 48.7159C16.6327 49.2177 16.7897 49.7936 16.925 50.4088V50.4045Z" fill="#00ABE5"/>
<path fill-rule="evenodd" clip-rule="evenodd" d="M21.742 47.9392C21.5064 49.5144 21.3101 51.0939 21.0265 52.6603C20.8388 53.6944 20.6294 54.6761 20.3981 55.5095C20.1014 56.5741 19.7611 57.4118 19.3597 57.8394H25.97C25.6995 57.5558 25.4726 56.9973 25.2719 56.2818C25.1148 55.7233 24.9795 55.0731 24.853 54.3794C24.6261 53.1359 24.4865 51.8836 24.2814 50.6357C24.1156 49.6322 23.7535 48.2229 22.8416 47.9349H21.7464L21.742 47.9392Z" fill="#007EBF"/>
<path fill-rule="evenodd" clip-rule="evenodd" d="M72.4036 62.0631H72.1331C72.1723 61.7009 72.1898 61.426 72.1898 61.2384C72.1898 60.9722 72.1156 60.7628 71.976 60.6101C71.832 60.4574 71.64 60.3788 71.3913 60.3788C71.0117 60.3788 70.6801 60.5185 70.4009 60.789C70.1173 61.0639 69.9776 61.3693 69.9776 61.714C69.9776 61.8973 70.0169 62.0631 70.0954 62.2114C70.1696 62.3598 70.3442 62.5648 70.6103 62.831C71.0946 63.3066 71.4175 63.6775 71.5659 63.948C71.7186 64.2185 71.7927 64.4803 71.7927 64.7377C71.7927 65.113 71.6793 65.4751 71.4481 65.8242C71.2168 66.1732 70.8808 66.4612 70.4358 66.6837C69.9907 66.9106 69.5195 67.0241 69.0221 67.0241C68.5247 67.0241 68.1189 66.8932 67.7829 66.6401C67.447 66.3827 67.2768 66.1165 67.2768 65.8329C67.2768 65.6802 67.3204 65.5536 67.4077 65.4533C67.495 65.3529 67.5953 65.3049 67.7088 65.3049C67.8222 65.3049 67.9226 65.3529 67.9967 65.4446C68.0447 65.5013 68.0927 65.6235 68.1451 65.8154C68.2018 66.0511 68.2673 66.2212 68.3458 66.3259C68.4243 66.4307 68.5334 66.5179 68.673 66.5834C68.8127 66.6488 68.9654 66.6837 69.1312 66.6837C69.6242 66.6837 70.0562 66.5179 70.4271 66.182C70.7936 65.8503 70.9812 65.4795 70.9812 65.0781C70.9812 64.9384 70.9594 64.8032 70.9114 64.6679C70.8634 64.5326 70.7805 64.3756 70.6539 64.2054C70.571 64.0876 70.3747 63.8825 70.078 63.5858C69.7857 63.2979 69.6024 63.0971 69.5239 62.9924C69.4148 62.8353 69.3362 62.6826 69.2839 62.5256C69.2315 62.3685 69.2053 62.2114 69.2053 62.0587C69.2053 61.7445 69.3101 61.4304 69.5195 61.1119C69.7289 60.7934 70.0038 60.5403 70.3398 60.3527C70.6758 60.165 71.0597 60.0691 71.4873 60.0691C71.7011 60.0691 71.9673 60.104 72.2771 60.1694C72.456 60.2043 72.613 60.2305 72.7439 60.2479C72.6698 60.4705 72.6087 60.6843 72.5694 60.8806C72.5301 61.077 72.4734 61.474 72.3992 62.0631H72.4036ZM72.8399 62.9575C73.1541 62.7306 73.3941 62.6128 73.5642 62.6128C73.7082 62.6128 73.8435 62.7045 73.9744 62.8877C74.2274 63.2411 74.4281 63.756 74.5678 64.4279C74.7074 65.0999 74.7772 65.6758 74.7772 66.1558C74.7772 66.5005 74.6812 66.8364 74.4936 67.1724C74.306 67.504 74.0529 67.792 73.73 68.0363C73.4944 68.2109 73.2719 68.2981 73.0624 68.2981C72.9839 68.2981 72.8356 68.2763 72.6174 68.2239C72.4123 68.1803 72.2553 68.1585 72.1374 68.1585C71.9847 68.1585 71.8626 68.1934 71.7753 68.2676C71.688 68.3418 71.64 68.429 71.64 68.5337C71.64 68.6515 71.6968 68.7519 71.8146 68.8348C71.9324 68.9177 72.1025 68.9613 72.3294 68.9613C72.6305 68.9613 72.949 68.8828 73.285 68.7214C73.6209 68.5599 73.97 68.2938 74.3322 67.9229C74.6943 67.552 75.0914 66.9848 75.5277 66.2212C75.964 65.4577 76.2825 64.7421 76.4876 64.0789C76.6927 63.4157 76.793 62.8615 76.793 62.4165C76.793 62.2419 76.7581 62.111 76.6839 62.0194C76.6098 61.9278 76.5138 61.8798 76.3916 61.8798C76.2956 61.8798 76.2171 61.9147 76.1516 61.9802C76.0862 62.0456 76.0556 62.1285 76.0556 62.2289C76.0556 62.3292 76.0862 62.5037 76.1473 62.7481C76.204 62.9662 76.2345 63.1364 76.2345 63.2717C76.2345 63.9 75.9422 64.7552 75.3619 65.8285C75.3706 65.6671 75.3706 65.5449 75.3706 65.4664C75.3706 64.8555 75.2659 64.2229 75.0608 63.5771C74.8557 62.927 74.5983 62.4078 74.2929 62.0281C74.2274 61.9452 74.1576 61.9016 74.0878 61.9016C74.018 61.9016 73.9351 61.9234 73.8478 61.9627C73.6951 62.0369 73.4333 62.1983 73.0624 62.4557L72.6785 62.7132L72.8443 62.9575H72.8399ZM80.6196 61.8187L80.9599 61.7445L80.5716 63.0535C80.4189 63.5727 80.2705 64.1749 80.1309 64.8512C80.0567 65.222 80.0175 65.4577 80.0175 65.5667C80.0175 65.6758 80.0611 65.7282 80.1484 65.7282C80.2051 65.7282 80.2923 65.6933 80.4145 65.6191C80.6283 65.4882 80.8334 65.3311 81.0297 65.1435L81.1955 65.3442C80.8028 65.702 80.5498 65.9202 80.4407 65.9987C80.2182 66.147 80.0087 66.2605 79.8124 66.3347C79.6815 66.3827 79.5549 66.4088 79.4284 66.4088C79.3368 66.4088 79.2713 66.387 79.2277 66.3478C79.1797 66.3041 79.1623 66.2474 79.1623 66.1645C79.1623 66.1121 79.1754 66.0423 79.2015 65.9507L79.4066 65.2482C79.1099 65.6016 78.7565 65.9071 78.3463 66.1645C78.0933 66.3216 77.862 66.4045 77.6526 66.4045C77.4431 66.4045 77.2992 66.3347 77.1901 66.1907C77.0461 65.9987 76.9719 65.7544 76.9719 65.4446C76.9719 65.0781 77.0723 64.6723 77.2643 64.2229C77.4606 63.7734 77.718 63.3677 78.0496 63.0012C78.3769 62.6346 78.7216 62.3685 79.0837 62.194C79.363 62.0631 79.7207 61.9976 80.1571 61.9976C80.2705 61.9976 80.3796 62.0063 80.493 62.0194L80.6152 61.8143L80.6196 61.8187ZM79.9782 62.6128C79.7906 62.5736 79.6335 62.5561 79.507 62.5561C79.1972 62.5561 78.9266 62.6434 78.6954 62.8135C78.4641 62.9837 78.2503 63.2935 78.0496 63.7342C77.8533 64.1792 77.7529 64.6199 77.7529 65.0606C77.7529 65.2962 77.7922 65.4664 77.8707 65.5667C77.9493 65.6715 78.054 65.7238 78.1805 65.7238C78.4205 65.7238 78.6736 65.5973 78.9485 65.3398C79.219 65.0824 79.4197 64.7115 79.5462 64.2316L79.9782 62.6172V62.6128ZM81.7278 66.2605L82.09 64.8686C82.2645 64.1836 82.4216 63.5378 82.5525 62.9226C82.583 62.7699 82.6005 62.6783 82.6005 62.639C82.6005 62.5561 82.5612 62.5168 82.487 62.5168C82.4347 62.5168 82.3561 62.5517 82.2471 62.6215C82.1423 62.6914 81.946 62.8659 81.6668 63.1451L81.5053 62.9662C81.8369 62.6128 82.1685 62.3467 82.4958 62.1678C82.8274 61.9932 83.0804 61.9016 83.255 61.9016C83.3161 61.9016 83.3641 61.9191 83.4033 61.9452C83.4382 61.9758 83.4601 62.0107 83.4601 62.0543C83.4601 62.098 83.4382 62.2201 83.3946 62.4121L83.1721 63.3371C83.5211 62.7874 83.9138 62.3205 84.3502 61.9278C84.5596 61.7402 84.7341 61.6485 84.8781 61.6485C84.9828 61.6485 85.0701 61.6835 85.1355 61.7489C85.2053 61.8144 85.2402 61.8929 85.2402 61.9845C85.2402 62.0761 85.2053 62.159 85.1399 62.2245C85.0744 62.2899 84.9043 62.3685 84.6381 62.4557C84.3807 62.543 84.1756 62.6434 84.0142 62.7655C83.8527 62.8877 83.6782 63.071 83.4862 63.3197C83.2942 63.5684 83.1633 63.7822 83.0848 63.9698C83.0106 64.153 82.8928 64.5806 82.7401 65.2569L82.5089 66.2605H81.7278ZM86.9245 59.6851C87.0292 59.6851 87.1208 59.72 87.1863 59.7898C87.2561 59.8596 87.291 59.9512 87.291 60.0603C87.291 60.213 87.2386 60.3483 87.1339 60.4617C87.0292 60.5796 86.9114 60.6363 86.7805 60.6363C86.6758 60.6363 86.5885 60.6014 86.523 60.5272C86.4532 60.453 86.4227 60.3614 86.4227 60.2436C86.4227 60.0865 86.4707 59.9556 86.571 59.8465C86.6714 59.7374 86.7892 59.6807 86.9288 59.6807L86.9245 59.6851ZM84.8868 63.1102C85.1879 62.8135 85.3842 62.639 85.4715 62.5823C85.5588 62.5256 85.6373 62.4994 85.7071 62.4994C85.7726 62.4994 85.7987 62.5343 85.7987 62.6041C85.7987 62.6652 85.7857 62.735 85.7638 62.8179C85.2446 64.4934 84.9872 65.5493 84.9872 65.9769C84.9872 66.1121 85.0221 66.2169 85.0919 66.291C85.1617 66.3652 85.2577 66.4045 85.3799 66.4045C85.5195 66.4045 85.694 66.3434 85.9122 66.2212C86.1303 66.0947 86.4751 65.8111 86.9463 65.366L86.7456 65.1697C86.2918 65.5973 86.0082 65.8111 85.8991 65.8111C85.8729 65.8111 85.8424 65.7936 85.8206 65.7631C85.7944 65.7325 85.7857 65.6889 85.7857 65.6409C85.7857 65.3922 85.9689 64.6505 86.3354 63.4287C86.5579 62.6783 86.6714 62.255 86.6714 62.1547C86.6714 62.0718 86.6452 62.0063 86.5841 61.9583C86.5274 61.9103 86.4401 61.8842 86.3311 61.8842C86.1304 61.8842 85.886 61.9671 85.6024 62.1241C85.3188 62.2856 85.0046 62.5517 84.6599 62.9313L84.8868 63.1059V63.1102ZM90.7903 61.8231L91.1306 61.7489L90.7423 63.0579C90.5896 63.5771 90.4412 64.1792 90.3016 64.8555C90.2274 65.2264 90.1882 65.462 90.1882 65.5711C90.1882 65.6802 90.2318 65.7325 90.3191 65.7325C90.3758 65.7325 90.4631 65.6976 90.5852 65.6235C90.799 65.4926 91.0041 65.3355 91.2004 65.1479L91.3662 65.3486C90.9735 65.7064 90.7205 65.9245 90.6114 66.0031C90.3889 66.1514 90.1794 66.2649 89.9831 66.339C89.8522 66.387 89.7257 66.4132 89.5991 66.4132C89.5075 66.4132 89.4421 66.3914 89.3984 66.3521C89.3504 66.3085 89.333 66.2518 89.333 66.1689C89.333 66.1165 89.3461 66.0467 89.3722 65.9551L89.5773 65.2526C89.2806 65.606 88.9272 65.9114 88.517 66.1689C88.264 66.3259 88.0327 66.4088 87.8233 66.4088C87.6139 66.4088 87.4699 66.339 87.3608 66.195C87.2168 66.0031 87.1426 65.7587 87.1426 65.4489C87.1426 65.0824 87.243 64.6766 87.435 64.2272C87.6313 63.7778 87.8887 63.372 88.2203 63.0055C88.5476 62.639 88.8923 62.3728 89.2544 62.1983C89.5337 62.0674 89.8915 62.002 90.3278 62.002C90.4369 62.002 90.5503 62.0107 90.6638 62.0238L90.7859 61.8187L90.7903 61.8231ZM90.1489 62.6172C89.9613 62.5779 89.8042 62.5605 89.6777 62.5605C89.3679 62.5605 89.0974 62.6477 88.8661 62.8179C88.6348 62.9881 88.4211 63.2978 88.2203 63.7385C88.024 64.1836 87.9236 64.6243 87.9236 65.065C87.9236 65.3006 87.9629 65.4707 88.0415 65.5711C88.12 65.6758 88.2247 65.7282 88.3512 65.7282C88.5912 65.7282 88.8443 65.6016 89.1192 65.3442C89.3897 65.0868 89.5904 64.7159 89.7169 64.2359L90.1489 62.6215V62.6172ZM95.8647 65.1653L96 65.3573C95.6859 65.7107 95.3586 65.99 95.0226 66.195C94.7957 66.3347 94.6081 66.4088 94.4554 66.4088C94.3376 66.4088 94.2373 66.3608 94.1631 66.2649C94.0889 66.1689 94.054 66.0161 94.054 65.8154C94.054 65.6758 94.0802 65.4751 94.1369 65.2133C94.1936 64.9472 94.3551 64.3843 94.6212 63.5116C94.739 63.0841 94.7957 62.8353 94.7957 62.7612C94.7957 62.6434 94.739 62.5866 94.6212 62.5866C94.4772 62.5866 94.2983 62.6608 94.0802 62.8048C93.7747 63.0055 93.5042 63.2586 93.273 63.5727C93.1246 63.7734 93.0025 64.0701 92.9152 64.4628L92.5007 66.2605H91.7284C91.8942 65.6584 92.0251 65.1653 92.1124 64.7814L92.8716 61.4609C93.0112 60.8501 93.1901 60.3832 93.417 60.0516C93.6438 59.72 93.9362 59.4582 94.3027 59.2619C94.6648 59.0655 95.027 58.9652 95.3804 58.9652C95.5288 58.9652 95.6466 59.0001 95.7338 59.0742C95.8211 59.1484 95.8647 59.2357 95.8647 59.3491C95.8647 59.4407 95.8211 59.5236 95.7382 59.5935C95.6553 59.6633 95.5375 59.6982 95.3935 59.6982C95.3106 59.6982 95.2015 59.6895 95.0706 59.672C94.7739 59.6284 94.5689 59.6066 94.4554 59.6066C94.2983 59.6066 94.1674 59.672 94.0671 59.7985C93.9667 59.9251 93.862 60.2261 93.7573 60.6974L93.177 63.2542C93.5871 62.8223 94.0322 62.4601 94.5165 62.1634C94.8001 61.9889 95.027 61.8973 95.1972 61.8973C95.3324 61.8973 95.4371 61.9365 95.5113 62.0194C95.5855 62.1023 95.6248 62.2158 95.6248 62.3598C95.6248 62.4776 95.6117 62.5954 95.5855 62.7132C95.5419 62.9182 95.4371 63.2848 95.2713 63.8214C95.0488 64.5588 94.9179 65.017 94.8743 65.1959C94.835 65.3748 94.8176 65.5362 94.8176 65.6758C94.8176 65.7325 94.8263 65.7718 94.8437 65.798C94.8612 65.8242 94.8917 65.8416 94.9266 65.8416C95.0095 65.8416 95.1666 65.7413 95.3935 65.5449C95.5201 65.4358 95.6771 65.3093 95.856 65.161L95.8647 65.1653Z" fill="#0B6E45"/>
</g>
<rect x="1" y="1" width="110" height="110" rx="9" stroke="#CCCCCC" stroke-width="2"/>
<defs>
<clipPath id="clip0_642_1034">
<rect x="2" y="2" width="108" height="108" rx="8" fill="white"/>
</clipPath>
</defs>
</svg>
