<svg width="113" height="112" viewBox="0 0 113 112" fill="none" xmlns="http://www.w3.org/2000/svg">
<g clip-path="url(#clip0_517_516)">
<rect x="2.5" y="2" width="108" height="108" rx="8" fill="white"/>
<path fill-rule="evenodd" clip-rule="evenodd" d="M17.7614 57.6874C17.7614 57.8428 17.7893 57.9973 17.8165 58.1387C18.0526 59.0001 18.7594 59.5927 19.6464 59.5927C20.9217 59.5927 21.6845 58.534 21.6845 56.9674C21.6845 55.5981 20.9909 54.4261 19.6883 54.4261C18.8565 54.4261 18.0798 55.0047 17.8305 55.9507C17.8033 56.0921 17.7614 56.2614 17.7614 56.4587V57.6874ZM16.5551 50.4028H17.7614V54.6948H17.7893C18.2188 53.9321 18.9948 53.4381 20.0759 53.4381C21.7396 53.4381 22.9179 54.8494 22.9039 56.9247C22.9039 59.3667 21.3932 60.5806 19.8957 60.5806C18.9256 60.5806 18.1497 60.2001 17.6503 59.2968H17.6091L17.5532 60.4261H16.5C16.528 59.9601 16.5551 59.268 16.5551 58.6614V50.4028Z" fill="#D2272C"/>
<path fill-rule="evenodd" clip-rule="evenodd" d="M27.9773 56.9387C26.6468 56.9107 25.1353 57.1507 25.1353 58.4781C25.1353 59.282 25.6619 59.6634 26.2856 59.6634C27.1594 59.6634 27.714 59.0987 27.9082 58.5201C27.9493 58.3927 27.9773 58.2521 27.9773 58.1247V56.9387ZM29.1555 58.788C29.1555 59.3814 29.1827 59.9601 29.2658 60.4261H28.1575L28.0604 59.5647H28.0184C27.6441 60.1014 26.9241 60.5806 25.9672 60.5806C24.6087 60.5806 23.9159 59.6067 23.9159 58.6187C23.9159 56.9674 25.3575 56.0641 27.9493 56.0781V55.9368C27.9493 55.3721 27.7971 54.3554 26.4247 54.3554C25.801 54.3554 25.1493 54.5535 24.6779 54.8641L24.4006 54.0455C24.9551 53.6781 25.759 53.4381 26.6049 53.4381C28.6561 53.4381 29.1555 54.8641 29.1555 56.2335V58.788Z" fill="#D2272C"/>
<path fill-rule="evenodd" clip-rule="evenodd" d="M31.1237 55.4428C31.1237 54.7368 31.1097 54.1581 31.0685 53.5935H32.1497L32.2188 54.7228H32.2468C32.5792 54.0735 33.3551 53.4381 34.4643 53.4381C35.3932 53.4381 36.8348 54.0028 36.8348 56.3461V60.4261H35.6146V56.4874C35.6146 55.3861 35.213 54.4688 34.0619 54.4688C33.2581 54.4688 32.6344 55.0474 32.4262 55.7395C32.3711 55.8948 32.3431 56.1061 32.3431 56.3181V60.4261H31.1237V55.4428Z" fill="#D2272C"/>
<path fill-rule="evenodd" clip-rule="evenodd" d="M40.0223 56.7274H40.0503C40.2165 56.4874 40.4518 56.1907 40.6468 55.9507L42.615 53.5935H44.0837L41.4918 56.4028L44.4441 60.4261H42.9614L40.6468 57.1507L40.0223 57.8568V60.4261H38.8169V50.4028H40.0223V56.7274Z" fill="#D2272C"/>
<path fill-rule="evenodd" clip-rule="evenodd" d="M48.1567 51.6152C48.1567 52.1232 47.7839 52.5472 47.154 52.5472C46.5676 52.5472 46.1948 52.1232 46.1948 51.6152C46.1948 51.0793 46.5816 50.6692 47.1827 50.6692C47.7839 50.6692 48.1567 51.0793 48.1567 51.6152ZM44.5202 62.0618C45.0926 62.0191 45.5509 61.8777 45.8367 61.5678C46.166 61.2284 46.295 60.6777 46.295 59.1818V53.5352H48.0565V59.6758C48.0565 61.1018 47.7839 61.9911 47.154 62.6117C46.5388 63.1771 45.5649 63.4164 44.6918 63.4164L44.5202 62.0618Z" fill="#332C2B"/>
<path fill-rule="evenodd" clip-rule="evenodd" d="M53.6254 57.0505C52.3796 57.0218 51.1913 57.2905 51.1913 58.3344C51.1913 59.0125 51.6355 59.3232 52.1932 59.3232C52.8953 59.3232 53.4103 58.8711 53.568 58.3771C53.6107 58.2498 53.6254 58.1092 53.6254 57.9958V57.0505ZM55.3435 58.7585C55.3435 59.3791 55.3722 59.9865 55.4437 60.4098H53.8546L53.7396 59.6478H53.6969C53.2674 60.1837 52.5373 60.5651 51.6355 60.5651C50.232 60.5651 49.4445 59.5632 49.4445 58.5185C49.4445 56.7818 51.0056 55.9065 53.5819 55.9212V55.8078C53.5819 55.3566 53.3963 54.6078 52.1652 54.6078C51.4779 54.6078 50.7617 54.8199 50.2895 55.1166L49.9462 53.9872C50.4612 53.6766 51.3629 53.3799 52.4658 53.3799C54.6988 53.3799 55.3435 54.7771 55.3435 56.2738V58.7585Z" fill="#332C2B"/>
<path fill-rule="evenodd" clip-rule="evenodd" d="M59.1369 51.7705V53.5352H60.8122V54.8338H59.1369V57.8692C59.1369 58.7018 59.3668 59.1391 60.0394 59.1391C60.3687 59.1391 60.5264 59.1111 60.7268 59.0544L60.7555 60.3818C60.4977 60.4804 60.0394 60.5651 59.481 60.5651C58.8363 60.5651 58.2926 60.3391 57.9633 59.9865C57.5913 59.5911 57.4188 58.9698 57.4188 58.0665V54.8338H56.4169V53.5352H57.4188V52.2645L59.1369 51.7705Z" fill="#332C2B"/>
<path fill-rule="evenodd" clip-rule="evenodd" d="M62.1435 60.4098V53.5352H63.919V60.4098H62.1435ZM64.0192 51.6152C64.0192 52.1379 63.6324 52.5472 63.0173 52.5472C62.4301 52.5472 62.0433 52.1379 62.0433 51.6152C62.0433 51.0793 62.4449 50.6692 63.0313 50.6692C63.6324 50.6692 64.0052 51.0793 64.0192 51.6152Z" fill="#332C2B"/>
<path fill-rule="evenodd" clip-rule="evenodd" d="M65.8087 55.5818C65.8087 54.7919 65.7948 54.1278 65.752 53.5352H67.2689L67.3404 54.5519H67.3839C67.7272 54.0152 68.3571 53.3799 69.5315 53.3799C70.4472 53.3799 71.1633 53.8878 71.4639 54.6505H71.4926C71.7357 54.2692 72.0223 53.9872 72.3517 53.7892C72.7377 53.5212 73.1819 53.3799 73.7544 53.3799C74.914 53.3799 76.0884 54.1566 76.0884 56.3585V60.4098H74.3703V56.6125C74.3703 55.4692 73.9695 54.7919 73.1245 54.7919C72.5233 54.7919 72.0798 55.2152 71.8934 55.7092C71.8507 55.8785 71.8072 56.0905 71.8072 56.2878V60.4098H70.0891V56.4292C70.0891 55.4692 69.7031 54.7919 68.8868 54.7919C68.2282 54.7919 67.7847 55.2999 67.627 55.7799C67.5555 55.9492 67.5268 56.1465 67.5268 56.3445V60.4098H65.8087V55.5818Z" fill="#332C2B"/>
<path fill-rule="evenodd" clip-rule="evenodd" d="M56.9357 62.5177C56.9357 62.5177 65.5882 65.1834 72.0278 63.6913C78.4619 62.2008 82.5054 59.7364 87.3171 52.6816C90.6227 47.9002 92.0837 47.0001 92.0837 47.0001C92.0837 47.0001 91.8918 51.1764 89.1027 55.0731C86.712 58.3049 85.4429 59.8397 85.4429 59.8397L74.8612 65.0637C74.8612 65.0637 69.1058 66.141 56.9357 62.5177Z" fill="#E5252A"/>
<path fill-rule="evenodd" clip-rule="evenodd" d="M63.2907 64.134C63.2907 64.134 69.9027 65.3294 78.5357 61.6323C81.6503 60.2987 82.82 59.7169 89.088 54.9845C91.9214 52.8439 95.9454 50.6303 95.9454 50.6303C95.9454 50.6303 94.9909 53.39 91.1392 56.8144C88.594 59.2556 88.8744 60.3274 88.8744 60.3274L77.6083 64.2738C77.6083 64.2738 73.3559 65.4179 63.2907 64.134Z" fill="#D1272C"/>
<path fill-rule="evenodd" clip-rule="evenodd" d="M69.7365 64.1783C69.7365 64.1783 72.4705 63.7138 75.4973 62.8595C79.874 61.6253 85.0515 59.7729 89.2355 57.5818C91.3404 56.4789 96.5 55.0133 96.5 55.0133C96.5 55.0133 94.8068 57.3822 91.2868 59.3969C89.3994 60.8369 87.7008 61.3449 87.7008 61.3449L82.9388 62.983C82.9388 62.983 77.199 64.9356 69.7365 64.1783Z" fill="#BB292D"/>
<path fill-rule="evenodd" clip-rule="evenodd" d="M69.2091 63.9057C69.2091 63.9057 70.0332 64.0828 72.8542 63.5065C77.3186 62.5954 81.6386 61.5453 85.7746 60.3041C89.6115 59.1531 94.1202 59.0575 94.1202 59.0575C94.1202 59.0575 91.8476 60.2676 88.7485 61.5515C86.8612 62.3702 85.2658 62.649 85.2658 62.649L80.5039 63.5795C80.5039 63.5795 76.6716 64.336 69.2091 63.9057Z" fill="#9D272A"/>
<path fill-rule="evenodd" clip-rule="evenodd" d="M73.3116 65.6393C67.7738 65.7317 61.9773 64.5325 56.7307 62.4517C56.7307 62.4517 64.6779 64.5768 72.6181 63.5507C77.2371 62.9542 80.9 62.0641 84.9264 61.6253C88.173 61.2711 91.5229 61.6105 91.5229 61.6105C91.5229 61.6105 83.9369 65.4622 73.3116 65.6393Z" fill="#8B2527"/>
</g>
<rect x="1.5" y="1" width="110" height="110" rx="9" stroke="#CCCCCC" stroke-width="2"/>
<defs>
<clipPath id="clip0_517_516">
<rect x="2.5" y="2" width="108" height="108" rx="8" fill="white"/>
</clipPath>
</defs>
</svg>
