<svg width="112" height="112" viewBox="0 0 112 112" fill="none" xmlns="http://www.w3.org/2000/svg">
<g clip-path="url(#clip0_302_1293)">
<rect x="2" y="2" width="108" height="108" rx="8" fill="white"/>
<path d="M30.5404 40.2272C30.5404 40.2272 29.3579 37.5022 28.7254 37.2597C28.0929 37.0172 26.7329 45.6172 27.4129 47.4672C27.4129 47.4672 30.9379 50.2397 31.5179 52.6497L33.6229 49.9747L35.0279 44.9522L30.5379 40.2272H30.5404Z" fill="url(#paint0_linear_302_1293)" stroke="#A3822E" stroke-width="0.075" stroke-miterlimit="10"/>
<path d="M31.2704 49.4672C31.2704 49.4672 29.3129 45.3822 29.1729 40.0397" stroke="#A3822E" stroke-width="0.025" stroke-miterlimit="10"/>
<path d="M81.1879 40.2272C81.1879 40.2272 82.3704 37.5022 83.0029 37.2597C83.6354 37.0172 84.9954 45.6172 84.3154 47.4672C84.3154 47.4672 80.7904 50.2397 80.2104 52.6497L78.1054 49.9747L76.7004 44.9522L81.1904 40.2272H81.1879Z" fill="url(#paint1_linear_302_1293)" stroke="#A3822E" stroke-width="0.075" stroke-miterlimit="10"/>
<path d="M80.4579 49.4672C80.4579 49.4672 82.4154 45.3822 82.5554 40.0397" stroke="#A3822E" stroke-width="0.025" stroke-miterlimit="10"/>
<path d="M37.5304 33.5947C37.5304 33.5947 36.0154 30.5722 35.2654 30.5722C34.5154 30.5722 32.7354 35.7747 33.5554 38.3297C34.3754 40.8847 35.5279 41.1772 35.2429 42.7522C34.9604 44.3272 39.8104 40.0172 39.8579 39.6647C39.9054 39.3122 39.5779 35.5397 39.5779 35.5397L37.5304 33.5947Z" fill="url(#paint2_linear_302_1293)" stroke="#A3822E" stroke-width="0.075" stroke-miterlimit="10"/>
<path d="M41.3229 27.3147C41.3229 27.3147 36.0904 28.5647 37.9154 39.3397C39.7404 50.1147 43.5829 37.8122 43.5829 37.8122C43.5829 37.8122 49.2304 33.3122 47.2154 32.2347C45.2004 31.1572 41.3229 27.3147 41.3229 27.3147Z" fill="url(#paint3_linear_302_1293)" stroke="#A3822E" stroke-width="0.075" stroke-miterlimit="10"/>
<path d="M37.9154 39.3397C37.9154 39.3397 39.6679 30.7822 43.8404 30.3497C48.0129 29.9172 48.7154 34.8447 48.7154 34.8447L39.8629 38.2122L37.9179 39.3397H37.9154Z" fill="url(#paint4_linear_302_1293)" stroke="#A3822E" stroke-width="0.075" stroke-miterlimit="10"/>
<path d="M34.1754 77.4472L31.2704 78.4022C31.2704 78.4022 33.5654 80.7447 35.5354 80.2522C37.5054 79.7597 39.9654 77.1022 39.9654 77.1022C39.9654 77.1022 40.1954 75.4147 39.9304 75.3297C39.6654 75.2447 34.3054 76.5247 34.3054 76.5247L34.1779 77.4472H34.1754Z" fill="url(#paint5_linear_302_1293)" stroke="#A3822E" stroke-width="0.075" stroke-miterlimit="10"/>
<path d="M30.8929 70.8897L27.1679 70.9622C27.1679 70.9622 30.0829 75.9147 33.6004 77.1247C33.6004 77.1247 35.1154 78.4097 37.9604 77.3097C40.8054 76.2097 41.4379 74.3222 41.4379 74.3222L36.3079 69.4947C36.3079 69.4947 33.1554 69.8497 32.9229 69.8822C32.6904 69.9147 30.8954 70.8897 30.8954 70.8897H30.8929Z" fill="url(#paint6_linear_302_1293)" stroke="#A3822E" stroke-width="0.075" stroke-miterlimit="10"/>
<path d="M34.4179 71.4597C34.4179 71.4597 29.6629 71.8522 27.4504 67.9847C25.2354 64.1172 25.5879 62.6072 25.5879 62.6072C25.5879 62.6072 25.4129 61.8697 28.1979 63.8272L34.6929 64.2947C34.6929 64.2947 35.0204 66.1697 35.0329 66.9722C35.0454 67.7747 35.5379 70.2697 35.5379 70.5172C35.5379 70.7647 34.4229 71.4622 34.4229 71.4622L34.4179 71.4597Z" fill="url(#paint7_linear_302_1293)" stroke="#A3822E" stroke-width="0.075" stroke-miterlimit="10"/>
<path d="M38.9904 76.0597C38.9904 76.0597 35.9179 74.5572 34.1604 70.9722C32.4029 67.3872 32.9179 66.2997 32.9179 66.2997L35.1229 65.8647C35.1229 65.8647 36.4104 67.2447 36.9379 68.5472C37.4654 69.8472 39.6829 72.6947 40.2104 73.1522C40.7354 73.6097 40.7704 75.0797 40.7704 75.0797L38.9904 76.0597Z" fill="url(#paint8_linear_302_1293)" stroke="#A3822E" stroke-width="0.075" stroke-miterlimit="10"/>
<path d="M27.7229 55.8547C27.7229 55.8547 25.7979 54.5922 25.0254 54.5922C25.0254 54.5922 24.7004 57.8972 26.3754 61.0947C28.0479 64.2922 29.9079 65.9622 33.4779 66.3772C33.4779 66.3772 36.3104 61.2372 34.5529 59.6197C32.7954 58.0022 27.7254 55.8572 27.7254 55.8572L27.7229 55.8547Z" fill="url(#paint9_linear_302_1293)" stroke="#A3822E" stroke-width="0.075" stroke-miterlimit="10"/>
<path d="M31.5204 52.6497C31.5204 52.6497 31.5854 50.0672 26.6179 46.6472C26.6179 46.6472 23.9004 54.2397 30.1104 57.9422L31.4129 58.8297L32.9229 55.4197L31.5229 52.6522L31.5204 52.6497Z" fill="url(#paint10_linear_302_1293)" stroke="#A3822E" stroke-width="0.075" stroke-miterlimit="10"/>
<path d="M35.4754 42.6397C35.4754 42.6397 35.4304 37.8822 31.2704 36.0772C31.2704 36.0772 28.4904 41.5847 33.7879 45.3097C33.7879 45.3097 35.6654 44.0397 35.4754 42.6397Z" fill="url(#paint11_linear_302_1293)" stroke="#A3822E" stroke-width="0.075" stroke-miterlimit="10"/>
<path d="M37.1479 75.6722C36.9104 75.7322 35.0079 75.4072 32.2804 73.9872C31.4179 73.5397 30.4754 72.9822 29.4754 72.2947" stroke="#A3822E" stroke-width="0.025" stroke-miterlimit="10"/>
<path d="M32.4054 69.4947C32.4054 69.4947 28.7504 67.1747 27.1679 64.2922" stroke="#A3822E" stroke-width="0.025" stroke-miterlimit="10"/>
<path d="M31.1279 62.9572C31.1279 62.9572 27.3729 60.6347 25.5654 56.1722" stroke="#A3822E" stroke-width="0.025" stroke-miterlimit="10"/>
<path d="M30.5404 55.4172C30.5404 55.4172 27.9054 53.1147 27.1679 48.3322" stroke="#A3822E" stroke-width="0.025" stroke-miterlimit="10"/>
<path d="M33.3429 43.1747L31.7029 37.2597" stroke="#A3822E" stroke-width="0.025" stroke-miterlimit="10"/>
<path d="M74.1979 33.5947C74.1979 33.5947 75.7129 30.5722 76.4629 30.5722C77.2129 30.5722 78.9929 35.7747 78.1729 38.3297C77.3529 40.8847 76.2004 41.1772 76.4854 42.7522C76.7679 44.3272 71.9179 40.0172 71.8704 39.6647C71.8229 39.3122 72.1504 35.5397 72.1504 35.5397L74.1979 33.5947Z" fill="url(#paint12_linear_302_1293)" stroke="#A3822E" stroke-width="0.075" stroke-miterlimit="10"/>
<path d="M70.4054 27.3147C70.4054 27.3147 75.6379 28.5647 73.8129 39.3397C71.9879 50.1147 68.1454 37.8122 68.1454 37.8122C68.1454 37.8122 62.4979 33.3122 64.5129 32.2347C66.5279 31.1572 70.4054 27.3147 70.4054 27.3147Z" fill="url(#paint13_linear_302_1293)" stroke="#A3822E" stroke-width="0.075" stroke-miterlimit="10"/>
<path d="M73.8129 39.3397C73.8129 39.3397 72.0604 30.7822 67.8879 30.3497C63.7154 29.9172 63.0129 34.8447 63.0129 34.8447L71.8654 38.2122L73.8104 39.3397H73.8129Z" fill="url(#paint14_linear_302_1293)" stroke="#A3822E" stroke-width="0.075" stroke-miterlimit="10"/>
<path d="M77.5529 77.4472L80.4579 78.4022C80.4579 78.4022 78.1629 80.7447 76.1929 80.2522C74.2254 79.7572 71.7629 77.1022 71.7629 77.1022C71.7629 77.1022 71.5329 75.4147 71.7979 75.3297C72.0629 75.2447 77.4229 76.5247 77.4229 76.5247L77.5504 77.4472H77.5529Z" fill="url(#paint15_linear_302_1293)" stroke="#A3822E" stroke-width="0.075" stroke-miterlimit="10"/>
<path d="M80.8354 70.8897L84.5604 70.9622C84.5604 70.9622 81.6454 75.9147 78.1279 77.1247C78.1279 77.1247 76.6129 78.4097 73.7679 77.3097C70.9229 76.2097 70.2904 74.3222 70.2904 74.3222L75.4204 69.4947C75.4204 69.4947 78.5729 69.8497 78.8054 69.8822C79.0379 69.9147 80.8329 70.8897 80.8329 70.8897H80.8354Z" fill="url(#paint16_linear_302_1293)" stroke="#A3822E" stroke-width="0.075" stroke-miterlimit="10"/>
<path d="M77.3104 71.4597C77.3104 71.4597 82.0654 71.8522 84.2779 67.9847C86.4929 64.1172 86.1404 62.6072 86.1404 62.6072C86.1404 62.6072 86.3154 61.8697 83.5304 63.8272L77.0354 64.2947C77.0354 64.2947 76.7079 66.1697 76.6954 66.9722C76.6829 67.7747 76.1904 70.2697 76.1904 70.5172C76.1904 70.7647 77.3054 71.4622 77.3054 71.4622L77.3104 71.4597Z" fill="url(#paint17_linear_302_1293)" stroke="#A3822E" stroke-width="0.075" stroke-miterlimit="10"/>
<path d="M72.7354 76.0597C72.7354 76.0597 75.8079 74.5572 77.5654 70.9722C79.3229 67.3872 78.8079 66.2997 78.8079 66.2997L76.6029 65.8647C76.6029 65.8647 75.3154 67.2447 74.7879 68.5472C74.2604 69.8472 72.0429 72.6947 71.5154 73.1522C70.9879 73.6097 70.9554 75.0797 70.9554 75.0797L72.7354 76.0597Z" fill="url(#paint18_linear_302_1293)" stroke="#A3822E" stroke-width="0.075" stroke-miterlimit="10"/>
<path d="M84.0054 55.8547C84.0054 55.8547 85.9304 54.5922 86.7029 54.5922C86.7029 54.5922 87.0279 57.8972 85.3529 61.0947C83.6804 64.2922 81.8204 65.9622 78.2504 66.3772C78.2504 66.3772 75.4179 61.2372 77.1754 59.6197C78.9329 58.0022 84.0029 55.8572 84.0029 55.8572L84.0054 55.8547Z" fill="url(#paint19_linear_302_1293)" stroke="#A3822E" stroke-width="0.075" stroke-miterlimit="10"/>
<path d="M80.2079 52.6497C80.2079 52.6497 80.1429 50.0672 85.1104 46.6472C85.1104 46.6472 87.8279 54.2397 81.6179 57.9422L80.3154 58.8297L78.8054 55.4197L80.2054 52.6522L80.2079 52.6497Z" fill="url(#paint20_linear_302_1293)" stroke="#A3822E" stroke-width="0.075" stroke-miterlimit="10"/>
<path d="M76.2529 42.6397C76.2529 42.6397 76.2979 37.8822 80.4579 36.0772C80.4579 36.0772 83.2379 41.5847 77.9404 45.3097C77.9404 45.3097 76.0629 44.0397 76.2529 42.6397Z" fill="url(#paint21_linear_302_1293)" stroke="#A3822E" stroke-width="0.075" stroke-miterlimit="10"/>
<path d="M40.6079 74.4472C40.3654 74.3372 34.9829 81.4647 34.9829 81.4647C34.9829 81.4647 41.6029 88.7597 56.4779 88.7597C71.3529 88.7597 76.6479 80.8072 76.6479 80.8072L70.8829 73.8147C70.8829 73.8147 60.9004 83.7097 40.6054 74.4472H40.6079Z" fill="url(#paint22_linear_302_1293)" stroke="#A3822E" stroke-width="0.075" stroke-miterlimit="10"/>
<path d="M40.5379 80.9047L40.5929 80.9422C40.5829 81.2047 40.6129 81.4272 40.6829 81.6097C40.7554 81.7922 40.8854 81.9472 41.0779 82.0772C41.2179 82.1722 41.3679 82.2222 41.5279 82.2272C41.6879 82.2322 41.8404 82.1972 41.9854 82.1222C42.1304 82.0472 42.2504 81.9397 42.3429 81.7997C42.4904 81.5797 42.5329 81.3722 42.4654 81.1797C42.3979 80.9872 42.2629 80.7447 42.0604 80.4497C41.8579 80.1547 41.7279 79.8922 41.6729 79.6647C41.6179 79.4372 41.6804 79.1872 41.8629 78.9172C42.0829 78.5897 42.3654 78.4122 42.7079 78.3872C43.0504 78.3622 43.3929 78.4647 43.7354 78.6947C43.8729 78.7872 43.9979 78.9022 44.1079 79.0372C44.2179 79.1722 44.2904 79.3147 44.3229 79.4597C44.2529 79.5022 44.1079 79.6172 43.8854 79.7997L43.8329 79.7647C43.8754 79.5847 43.8679 79.4147 43.8079 79.2547C43.7479 79.0947 43.6404 78.9622 43.4854 78.8572C43.3629 78.7747 43.2329 78.7247 43.0954 78.7072C42.9579 78.6897 42.8279 78.7072 42.7029 78.7647C42.5779 78.8197 42.4754 78.9072 42.3954 79.0272C42.2479 79.2447 42.2079 79.4472 42.2729 79.6397C42.3379 79.8322 42.4729 80.0772 42.6804 80.3797C42.8879 80.6822 43.0204 80.9447 43.0779 81.1672C43.1354 81.3897 43.0779 81.6272 42.9104 81.8797C42.7854 82.0672 42.6379 82.2122 42.4679 82.3172C42.3004 82.4222 42.1179 82.4872 41.9254 82.5097C41.7329 82.5322 41.5379 82.5197 41.3429 82.4672C41.1479 82.4147 40.9579 82.3272 40.7754 82.2047C40.6329 82.1097 40.4929 81.9747 40.3554 81.7972C40.2179 81.6222 40.1379 81.4597 40.1154 81.3097C40.2354 81.2222 40.3754 81.0872 40.5354 80.9047H40.5379Z" fill="black"/>
<path d="M45.9854 82.7247L45.3304 84.0622C45.2929 84.1372 45.2679 84.1947 45.2554 84.2322C45.2429 84.2697 45.2404 84.3072 45.2554 84.3397C45.2679 84.3747 45.2979 84.4022 45.3454 84.4272C45.3879 84.4472 45.4479 84.4672 45.5279 84.4847L45.4654 84.6122C45.3854 84.6122 45.3179 84.5997 45.2604 84.5847C45.1929 84.5647 45.1279 84.5422 45.0679 84.5122C44.9554 84.4522 44.8754 84.3772 44.8304 84.2897C44.7854 84.2022 44.7854 84.0897 44.8304 83.9597L44.7529 83.9872C44.3929 84.1122 44.0479 84.0922 43.7204 83.9322C43.5104 83.8297 43.3604 83.6747 43.2754 83.4697C43.1879 83.2647 43.1954 83.0572 43.2979 82.8522C43.3979 82.6497 43.5229 82.5147 43.6754 82.4497C43.8279 82.3847 43.9854 82.3647 44.1479 82.3897C44.3104 82.4147 44.5204 82.4672 44.7729 82.5447C44.9679 82.6022 45.1104 82.6397 45.1979 82.6547C45.2854 82.6697 45.3604 82.6647 45.4179 82.6372C45.4754 82.6097 45.5279 82.5497 45.5729 82.4572C45.6779 82.2422 45.7004 82.0472 45.6404 81.8697C45.5804 81.6947 45.4429 81.5547 45.2304 81.4497C45.1054 81.3872 44.9804 81.3547 44.8604 81.3522C44.7379 81.3497 44.6329 81.3622 44.5454 81.3947C44.4579 81.4272 44.3904 81.4647 44.3479 81.5097L44.2829 81.4772L44.4404 81.1572C44.8529 81.0972 45.2154 81.1422 45.5254 81.2947C45.8304 81.4447 46.0254 81.6397 46.1029 81.8772C46.1829 82.1172 46.1429 82.3972 45.9854 82.7197V82.7247ZM44.9229 83.7272L45.3354 82.8847L45.1129 82.8272C44.9754 82.7872 44.8454 82.7522 44.7279 82.7247C44.6079 82.6947 44.4929 82.6797 44.3779 82.6747C44.2654 82.6697 44.1554 82.6922 44.0554 82.7422C43.9529 82.7922 43.8729 82.8797 43.8129 83.0022C43.7254 83.1822 43.7079 83.3422 43.7604 83.4822C43.8154 83.6222 43.9304 83.7347 44.1129 83.8222C44.1854 83.8572 44.2754 83.8747 44.3879 83.8722C44.5004 83.8722 44.5979 83.8572 44.6829 83.8272C44.7104 83.8172 44.7404 83.8072 44.7729 83.7997C44.8054 83.7897 44.8379 83.7772 44.8704 83.7622C44.9029 83.7472 44.9204 83.7347 44.9254 83.7247L44.9229 83.7272Z" fill="black"/>
<path d="M46.4954 85.1997L47.3179 82.2397C47.3679 82.2572 47.4154 82.2747 47.4554 82.2897C47.4954 82.3047 47.5304 82.3172 47.5604 82.3247C47.5879 82.3322 47.6229 82.3397 47.6654 82.3472C47.7079 82.3547 47.7554 82.3647 47.8129 82.3747L47.6654 82.9072C47.7704 82.8047 47.8779 82.7247 47.9854 82.6647C48.0954 82.6047 48.2129 82.5697 48.3404 82.5547C48.4679 82.5422 48.6004 82.5547 48.7379 82.5922C48.9454 82.6497 49.1179 82.7572 49.2529 82.9122C49.3904 83.0697 49.4629 83.2497 49.4704 83.4572C49.8279 83.1172 50.2079 83.0022 50.6129 83.1147C50.9779 83.2172 51.2079 83.3872 51.3029 83.6297C51.3979 83.8722 51.3879 84.1947 51.2779 84.5972L50.7804 86.3872C50.7404 86.3722 50.7079 86.3597 50.6804 86.3497C50.6529 86.3397 50.6329 86.3322 50.6129 86.3247C50.5929 86.3172 50.5704 86.3097 50.5354 86.2997C50.4979 86.2897 50.4729 86.2822 50.4604 86.2797C50.4479 86.2772 50.4254 86.2722 50.3904 86.2672C50.3554 86.2597 50.3179 86.2547 50.2804 86.2497L50.7379 84.6022C50.7954 84.3922 50.8279 84.2097 50.8354 84.0522C50.8429 83.8947 50.8104 83.7572 50.7329 83.6397C50.6579 83.5222 50.5229 83.4347 50.3329 83.3822C50.0529 83.3047 49.8379 83.3472 49.6879 83.5097C49.5379 83.6747 49.4229 83.8997 49.3429 84.1872L48.8779 85.8597C48.8379 85.8447 48.8054 85.8322 48.7804 85.8222C48.7554 85.8122 48.7329 85.8047 48.7154 85.7972C48.6979 85.7897 48.6729 85.7822 48.6354 85.7722C48.5979 85.7622 48.5679 85.7547 48.5504 85.7522C48.5329 85.7497 48.5079 85.7447 48.4804 85.7397C48.4529 85.7347 48.4204 85.7272 48.3829 85.7222L48.8854 83.9072C48.9679 83.6122 48.9754 83.3822 48.9079 83.2122C48.8429 83.0422 48.6954 82.9272 48.4679 82.8647C48.2629 82.8072 48.0979 82.8047 47.9679 82.8522C47.8379 82.8997 47.7379 82.9822 47.6629 83.0997C47.5904 83.2147 47.5279 83.3597 47.4804 83.5297L46.9804 85.3322C46.9404 85.3172 46.9079 85.3047 46.8829 85.2947C46.8554 85.2847 46.8354 85.2772 46.8179 85.2697C46.8004 85.2622 46.7754 85.2547 46.7379 85.2447C46.7079 85.2372 46.6704 85.2272 46.6229 85.2197C46.5754 85.2097 46.5304 85.2022 46.4854 85.1947L46.4954 85.1997Z" fill="black"/>
<path d="M52.7579 86.0247L52.5954 88.2272C52.5529 88.2197 52.5204 88.2147 52.4929 88.2097C52.4654 88.2047 52.4429 88.2022 52.4254 88.1972C52.4079 88.1947 52.3804 88.1897 52.3429 88.1872C52.3029 88.1847 52.2729 88.1822 52.2554 88.1847C52.2379 88.1847 52.2129 88.1847 52.1854 88.1847C52.1579 88.1847 52.1229 88.1847 52.0854 88.1847L52.4304 83.4822C52.4854 83.4897 52.5329 83.4972 52.5779 83.5047C52.6229 83.5122 52.6579 83.5172 52.6879 83.5197C52.7154 83.5197 52.7504 83.5222 52.7929 83.5197C52.8354 83.5172 52.8854 83.5197 52.9454 83.5197L52.8979 84.1672H52.9104C53.0304 83.9747 53.1654 83.8172 53.3154 83.6997C53.4654 83.5822 53.7079 83.5372 54.0454 83.5622C54.2454 83.5772 54.4229 83.6272 54.5754 83.7172C54.7304 83.8047 54.8579 83.9222 54.9604 84.0697C55.0629 84.2172 55.1379 84.3822 55.1804 84.5597C55.2254 84.7372 55.2379 84.9272 55.2254 85.1247C55.1879 85.6447 55.0304 86.0447 54.7529 86.3297C54.4754 86.6122 54.1304 86.7397 53.7154 86.7097C53.2779 86.6772 52.9629 86.4472 52.7754 86.0222H52.7629L52.7579 86.0247ZM52.8229 85.1397C52.7954 85.5047 52.8529 85.8072 52.9929 86.0472C53.1329 86.2872 53.3604 86.4197 53.6729 86.4422C53.8804 86.4572 54.0529 86.4072 54.1929 86.2947C54.3329 86.1797 54.4404 86.0222 54.5129 85.8197C54.5879 85.6172 54.6354 85.3822 54.6554 85.1172C54.6729 84.8897 54.6604 84.6772 54.6179 84.4822C54.5754 84.2872 54.4929 84.1247 54.3704 83.9947C54.2479 83.8647 54.0779 83.7947 53.8629 83.7797C53.6329 83.7622 53.4429 83.8222 53.2929 83.9572C53.1429 84.0922 53.0304 84.2697 52.9579 84.4847C52.8854 84.6997 52.8404 84.9197 52.8229 85.1422V85.1397Z" fill="black"/>
<path d="M55.9004 85.1997C55.8804 84.9722 55.9054 84.7622 55.9704 84.5672C56.0354 84.3722 56.1379 84.1997 56.2754 84.0472C56.4129 83.8972 56.5779 83.7772 56.7654 83.6872C56.9529 83.5972 57.1654 83.5447 57.4004 83.5247C57.6929 83.5022 57.9554 83.5422 58.1904 83.6522C58.4254 83.7597 58.6154 83.9272 58.7579 84.1547C58.9004 84.3822 58.9879 84.6522 59.0129 84.9672C59.0304 85.1722 59.0129 85.3722 58.9579 85.5697C58.9054 85.7672 58.8154 85.9472 58.6904 86.1097C58.5654 86.2722 58.4054 86.4047 58.2104 86.5047C58.0179 86.6047 57.7929 86.6672 57.5404 86.6872C57.2629 86.7097 57.0029 86.6672 56.7629 86.5572C56.5204 86.4472 56.3229 86.2772 56.1704 86.0422C56.0154 85.8072 55.9254 85.5272 55.9004 85.1997ZM57.4079 83.7222C57.1529 83.7447 56.9529 83.8297 56.8079 83.9822C56.6604 84.1347 56.5629 84.3222 56.5129 84.5472C56.4629 84.7722 56.4479 85.0072 56.4679 85.2547C56.4879 85.4872 56.5379 85.6972 56.6229 85.8897C56.7079 86.0822 56.8279 86.2347 56.9904 86.3472C57.1504 86.4597 57.3454 86.5072 57.5754 86.4897C57.8029 86.4697 57.9829 86.3772 58.1204 86.2072C58.2579 86.0372 58.3479 85.8422 58.3979 85.6172C58.4454 85.3922 58.4629 85.1797 58.4479 84.9847C58.4354 84.8247 58.4054 84.6672 58.3629 84.5172C58.3179 84.3672 58.2554 84.2297 58.1704 84.1047C58.0854 83.9797 57.9804 83.8822 57.8529 83.8122C57.7254 83.7422 57.5779 83.7122 57.4079 83.7272V83.7222Z" fill="black"/>
<path d="M62.3629 85.1522L62.4304 85.4823C62.2879 85.6348 62.1329 85.7647 61.9629 85.8722C61.7929 85.9772 61.6154 86.0522 61.4354 86.0922C61.1479 86.1572 60.8779 86.1497 60.6254 86.0772C60.3729 86.0022 60.1604 85.8647 59.9829 85.6572C59.8079 85.4522 59.6829 85.1922 59.6129 84.8747C59.5479 84.5797 59.5454 84.3047 59.6029 84.0472C59.6604 83.7897 59.7854 83.5697 59.9729 83.3872C60.1604 83.2047 60.4054 83.0822 60.7079 83.0147C60.8779 82.9772 61.0454 82.9697 61.2129 82.9947C61.3804 83.0172 61.5354 83.0747 61.6779 83.1622C61.8204 83.2497 61.9454 83.3747 62.0529 83.5347C62.1604 83.6972 62.2429 83.8947 62.2929 84.1322C62.3004 84.1597 62.3054 84.1848 62.3079 84.2048C62.3104 84.2248 62.3154 84.2472 62.3179 84.2722C61.8904 84.3522 61.4654 84.4422 61.0429 84.5347L60.1579 84.7297C60.1579 84.7597 60.1679 84.8047 60.1804 84.8622C60.2154 85.0197 60.2729 85.1672 60.3504 85.2972C60.4279 85.4297 60.5279 85.5397 60.6454 85.6272C60.7629 85.7147 60.9004 85.7747 61.0504 85.8047C61.2004 85.8347 61.3604 85.8297 61.5279 85.7922C61.8454 85.7222 62.1229 85.5097 62.3604 85.1522H62.3629ZM60.1079 84.4947L61.7754 84.1272C61.6954 83.8072 61.5754 83.5572 61.4154 83.3797C61.2554 83.2022 61.0329 83.1447 60.7529 83.2072C60.5679 83.2497 60.4229 83.3347 60.3179 83.4672C60.2129 83.5972 60.1454 83.7547 60.1129 83.9372C60.0804 84.1197 60.0804 84.3072 60.1104 84.4972L60.1079 84.4947Z" fill="black"/>
<path d="M63.6104 85.4622L62.6604 82.5422C62.7129 82.5297 62.7629 82.5172 62.8054 82.5072C62.8479 82.4972 62.8854 82.4872 62.9129 82.4797C62.9379 82.4722 62.9704 82.4572 63.0104 82.4422C63.0504 82.4247 63.0979 82.4047 63.1504 82.3822L63.3504 82.9947L63.3554 82.9097C63.4729 82.4497 63.6654 82.1747 63.9379 82.0872C64.0179 82.0622 64.0829 82.0497 64.1354 82.0547L64.2179 82.5947C64.1979 82.5947 64.1504 82.5947 64.0754 82.5822C64.0004 82.5697 63.9404 82.5747 63.8954 82.5897C63.8229 82.6122 63.7554 82.6497 63.6929 82.6972C63.6304 82.7472 63.5829 82.8047 63.5554 82.8697C63.4954 83.0147 63.4679 83.1447 63.4779 83.2597C63.4879 83.3747 63.5229 83.5272 63.5854 83.7172L64.1004 85.2972C64.0604 85.3072 64.0254 85.3147 63.9979 85.3197C63.9704 85.3272 63.9479 85.3322 63.9279 85.3347C63.9104 85.3372 63.8829 85.3472 63.8504 85.3572C63.8129 85.3697 63.7879 85.3772 63.7779 85.3822C63.7679 85.3872 63.7454 85.3947 63.7129 85.4097C63.6804 85.4222 63.6454 85.4372 63.6129 85.4547L63.6104 85.4622Z" fill="black"/>
<path d="M65.8629 84.6997L64.6479 81.8797C64.7004 81.8622 64.7454 81.8472 64.7879 81.8322C64.8304 81.8197 64.8654 81.8072 64.8904 81.7947C64.9154 81.7822 64.9479 81.7672 64.9854 81.7472C65.0229 81.7272 65.0679 81.7022 65.1204 81.6747L65.3529 82.2122C65.4054 81.7372 65.6379 81.4097 66.0529 81.2297C66.3929 81.0822 66.6754 81.0722 66.9029 81.1922C67.1304 81.3147 67.3279 81.5722 67.4979 81.9697L68.2329 83.6747C68.1929 83.6872 68.1604 83.6972 68.1329 83.7072C68.1054 83.7172 68.0829 83.7247 68.0679 83.7297C68.0504 83.7347 68.0254 83.7447 67.9904 83.7597C67.9529 83.7747 67.9279 83.7872 67.9104 83.7972C67.8929 83.8072 67.8729 83.8172 67.8479 83.8322C67.8229 83.8447 67.7929 83.8622 67.7604 83.8797L67.0829 82.3097C66.9954 82.1072 66.9054 81.9447 66.8079 81.8172C66.7129 81.6897 66.5979 81.6047 66.4654 81.5647C66.3329 81.5222 66.1804 81.5397 66.0054 81.6147C65.7154 81.7397 65.5579 81.9247 65.5279 82.1697C65.5004 82.4147 65.5729 82.7347 65.7429 83.1297L66.3329 84.4972C66.2929 84.5097 66.2604 84.5197 66.2329 84.5297C66.2054 84.5397 66.1829 84.5472 66.1654 84.5522C66.1479 84.5572 66.1204 84.5672 66.0879 84.5822C66.0504 84.5972 66.0279 84.6072 66.0179 84.6147C66.0079 84.6197 65.9879 84.6322 65.9554 84.6497C65.9229 84.6672 65.8904 84.6847 65.8579 84.7022L65.8629 84.6997Z" fill="black"/>
<path d="M70.2729 80.2947L70.9904 81.5997C71.0304 81.6722 71.0629 81.7272 71.0879 81.7597C71.1129 81.7922 71.1429 81.8147 71.1754 81.8247C71.2104 81.8347 71.2504 81.8247 71.2979 81.7997C71.3379 81.7772 71.3879 81.7397 71.4479 81.6847L71.5154 81.8097C71.4679 81.8747 71.4204 81.9247 71.3779 81.9597C71.3229 82.0047 71.2679 82.0422 71.2079 82.0747C71.0954 82.1322 70.9879 82.1547 70.8879 82.1422C70.7879 82.1297 70.6979 82.0647 70.6179 81.9522L70.5979 82.0322C70.4929 82.3972 70.2804 82.6697 69.9604 82.8447C69.7554 82.9572 69.5429 82.9897 69.3254 82.9447C69.1079 82.8972 68.9429 82.7722 68.8329 82.5722C68.7229 82.3747 68.6854 82.1947 68.7204 82.0322C68.7554 81.8697 68.8279 81.7297 68.9429 81.6122C69.0554 81.4922 69.2179 81.3522 69.4304 81.1897C69.5904 81.0647 69.7029 80.9697 69.7654 80.9047C69.8279 80.8422 69.8654 80.7772 69.8779 80.7147C69.8904 80.6522 69.8704 80.5747 69.8204 80.4847C69.7054 80.2747 69.5579 80.1422 69.3804 80.0897C69.2029 80.0372 69.0104 80.0697 68.8004 80.1847C68.6779 80.2522 68.5804 80.3347 68.5054 80.4322C68.4329 80.5297 68.3829 80.6247 68.3604 80.7147C68.3354 80.8047 68.3304 80.8822 68.3404 80.9422L68.2779 80.9772L68.1054 80.6647C68.2929 80.2922 68.5379 80.0222 68.8429 79.8547C69.1404 79.6897 69.4104 79.6447 69.6529 79.7172C69.8929 79.7897 70.1004 79.9822 70.2754 80.2972L70.2729 80.2947ZM70.4804 81.7422L70.0279 80.9197L69.8529 81.0697C69.7404 81.1597 69.6379 81.2447 69.5454 81.3247C69.4529 81.4047 69.3729 81.4897 69.3029 81.5822C69.2329 81.6747 69.1904 81.7747 69.1729 81.8872C69.1554 81.9997 69.1804 82.1147 69.2479 82.2372C69.3454 82.4122 69.4654 82.5197 69.6104 82.5547C69.7554 82.5897 69.9154 82.5597 70.0929 82.4647C70.1629 82.4272 70.2279 82.3622 70.2929 82.2697C70.3579 82.1772 70.4004 82.0897 70.4254 82.0047C70.4329 81.9772 70.4429 81.9472 70.4529 81.9147C70.4629 81.8822 70.4729 81.8497 70.4779 81.8122C70.4829 81.7772 70.4829 81.7547 70.4779 81.7447L70.4804 81.7422Z" fill="black"/>
<path d="M44.7429 34.4697C44.7429 34.4697 43.9704 28.6497 41.2304 27.3122C41.2304 27.3122 55.5729 17.6097 70.4054 27.3122C70.4054 27.3122 66.4904 30.9347 66.6554 33.9747L44.7429 34.4697Z" fill="url(#paint23_linear_302_1293)" stroke="#A3822E" stroke-width="0.075" stroke-miterlimit="10"/>
<path d="M48.7254 30.7447L47.7379 25.8047L49.1579 25.5197C49.5204 25.4472 49.8279 25.4197 50.0779 25.4347C50.3279 25.4522 50.5279 25.5222 50.6779 25.6447C50.8279 25.7672 50.9279 25.9522 50.9754 26.1972C51.0079 26.3622 51.0104 26.5197 50.9804 26.6697C50.9504 26.8197 50.8954 26.9597 50.8129 27.0922C50.7304 27.2247 50.6279 27.3397 50.5054 27.4422C50.3829 27.5422 50.2404 27.6322 50.0829 27.7097C50.2354 27.6872 50.3954 27.6822 50.5604 27.6947C50.7254 27.7072 50.8829 27.7447 51.0279 27.8047C51.1754 27.8647 51.3054 27.9597 51.4154 28.0872C51.5254 28.2147 51.6004 28.3797 51.6429 28.5822C51.7454 29.0972 51.6104 29.5497 51.2354 29.9372C51.1254 30.0472 50.9904 30.1422 50.8279 30.2197C50.6679 30.2997 50.5054 30.3597 50.3454 30.4022C50.1829 30.4447 49.9904 30.4872 49.7604 30.5347L48.7279 30.7422L48.7254 30.7447ZM48.4279 25.9472L48.8104 27.8622L49.1079 27.8022C49.2979 27.7647 49.4629 27.7197 49.5979 27.6722C49.7329 27.6247 49.8654 27.5572 49.9879 27.4672C50.1479 27.3472 50.2604 27.2022 50.3279 27.0322C50.3929 26.8622 50.4079 26.6772 50.3679 26.4797C50.3229 26.2597 50.2404 26.0947 50.1179 25.9822C49.9954 25.8697 49.8379 25.8047 49.6479 25.7872C49.4579 25.7697 49.2279 25.7872 48.9604 25.8422L48.4279 25.9497V25.9472ZM48.8654 28.1322L49.3079 30.3497L49.9954 30.2122C50.2354 30.1647 50.4354 30.0747 50.6004 29.9422C50.7654 29.8097 50.8829 29.6472 50.9504 29.4547C51.0179 29.2622 51.0304 29.0597 50.9879 28.8472C50.9079 28.4447 50.7204 28.1897 50.4279 28.0772C50.1329 27.9672 49.7454 27.9572 49.2654 28.0547L48.8604 28.1347L48.8654 28.1322Z" fill="black"/>
<path d="M55.2279 27.5772L55.3204 29.2897C55.3254 29.3872 55.3329 29.4572 55.3404 29.5047C55.3479 29.5522 55.3679 29.5872 55.3979 29.6147C55.4279 29.6422 55.4754 29.6547 55.5379 29.6497C55.5904 29.6472 55.6629 29.6322 55.7529 29.6047L55.7604 29.7672C55.6779 29.8097 55.6054 29.8397 55.5404 29.8547C55.4629 29.8722 55.3829 29.8847 55.3079 29.8897C55.1604 29.8922 55.0404 29.8622 54.9429 29.7997C54.8479 29.7372 54.7854 29.6247 54.7579 29.4672L54.6954 29.5397C54.4029 29.8647 54.0454 30.0397 53.6279 30.0622C53.3579 30.0772 53.1229 30.0047 52.9204 29.8472C52.7179 29.6897 52.6104 29.4772 52.5954 29.2122C52.5829 28.9522 52.6329 28.7472 52.7479 28.5972C52.8629 28.4472 53.0104 28.3372 53.1879 28.2722C53.3654 28.2072 53.6029 28.1397 53.9029 28.0772C54.1304 28.0272 54.2954 27.9847 54.3904 27.9497C54.4879 27.9147 54.5579 27.8672 54.6004 27.8072C54.6454 27.7472 54.6629 27.6572 54.6579 27.5397C54.6429 27.2622 54.5554 27.0547 54.3979 26.9122C54.2404 26.7697 54.0229 26.7072 53.7504 26.7222C53.5879 26.7297 53.4454 26.7672 53.3229 26.8322C53.1979 26.8972 53.1004 26.9697 53.0304 27.0522C52.9604 27.1347 52.9154 27.2097 52.8979 27.2772L52.8154 27.2822L52.7929 26.8722C53.1754 26.5797 53.5654 26.4222 53.9604 26.4022C54.3504 26.3822 54.6554 26.4697 54.8679 26.6647C55.0829 26.8597 55.2004 27.1647 55.2229 27.5797L55.2279 27.5772ZM54.7204 29.1797L54.6629 28.1022L54.4054 28.1697C54.2429 28.2072 54.0954 28.2447 53.9604 28.2822C53.8254 28.3197 53.6979 28.3672 53.5804 28.4272C53.4629 28.4872 53.3679 28.5697 53.2929 28.6772C53.2204 28.7847 53.1854 28.9172 53.1954 29.0772C53.2079 29.3072 53.2804 29.4772 53.4129 29.5872C53.5454 29.6972 53.7279 29.7472 53.9579 29.7347C54.0504 29.7297 54.1504 29.6947 54.2629 29.6322C54.3754 29.5697 54.4654 29.4997 54.5354 29.4222C54.5579 29.3972 54.5829 29.3697 54.6104 29.3422C54.6379 29.3147 54.6629 29.2847 54.6854 29.2497C54.7079 29.2172 54.7204 29.1947 54.7204 29.1822V29.1797Z" fill="black"/>
<path d="M56.3954 29.9047L56.6754 26.3822C56.7379 26.3922 56.7929 26.4022 56.8429 26.4097C56.8929 26.4172 56.9354 26.4247 56.9679 26.4272C56.9979 26.4272 57.0404 26.4297 57.0879 26.4272C57.1379 26.4272 57.1954 26.4272 57.2629 26.4272L57.2079 27.0997C57.5179 26.6447 57.9304 26.4372 58.4504 26.4772C58.8754 26.5122 59.1704 26.6497 59.3354 26.8972C59.5004 27.1422 59.5629 27.5122 59.5229 28.0072L59.3529 30.1372C59.3054 30.1297 59.2654 30.1222 59.2329 30.1172C59.2004 30.1122 59.1754 30.1072 59.1554 30.1047C59.1354 30.1022 59.1029 30.0972 59.0604 30.0947C59.0154 30.0922 58.9804 30.0897 58.9604 30.0897C58.9404 30.0897 58.9104 30.0897 58.8779 30.0897C58.8454 30.0897 58.8079 30.0897 58.7629 30.0897L58.9204 28.1297C58.9404 27.8772 58.9354 27.6622 58.9079 27.4797C58.8804 27.2972 58.8079 27.1522 58.6954 27.0372C58.5829 26.9222 58.4179 26.8572 58.2029 26.8397C57.8404 26.8097 57.5804 26.9122 57.4204 27.1472C57.2604 27.3822 57.1604 27.7447 57.1204 28.2397L56.9854 29.9497C56.9379 29.9422 56.8979 29.9347 56.8654 29.9297C56.8329 29.9247 56.8079 29.9197 56.7854 29.9172C56.7629 29.9147 56.7329 29.9097 56.6929 29.9072C56.6479 29.9047 56.6179 29.9022 56.6054 29.9022C56.5929 29.9022 56.5654 29.9022 56.5229 29.9022C56.4804 29.9022 56.4404 29.9022 56.3954 29.9022V29.9047Z" fill="black"/>
<path d="M62.0729 24.9947L61.3754 28.2347C61.3554 28.3322 61.3429 28.3922 61.3429 28.4197C61.3429 28.4472 61.3479 28.4672 61.3604 28.4797C61.4954 28.5072 61.7354 28.4122 62.0804 28.1872L62.6254 27.8297L63.3229 27.3297C63.3829 27.3472 63.4379 27.3647 63.4854 27.3797C63.5329 27.3947 63.5754 27.4072 63.6079 27.4122C63.6329 27.4172 63.6704 27.4222 63.7204 27.4297C63.7704 27.4347 63.8279 27.4422 63.8954 27.4522L63.8829 27.5047C63.7929 27.5572 63.7154 27.5997 63.6454 27.6347C63.5779 27.6697 63.4229 27.7497 63.1829 27.8772C62.9429 28.0047 62.7054 28.1372 62.4754 28.2697C62.2454 28.4022 62.0829 28.4972 61.9904 28.5547C62.0479 28.6597 62.1279 28.8022 62.2279 28.9872C62.3279 29.1722 62.4429 29.3872 62.5754 29.6322C62.7079 29.8772 62.8304 30.0997 62.9404 30.3022C63.0504 30.5047 63.1579 30.6997 63.2629 30.8922L63.2554 30.9272C63.1954 30.9097 63.1479 30.8947 63.1104 30.8847C63.0754 30.8747 63.0454 30.8647 63.0179 30.8572C62.9929 30.8497 62.9554 30.8397 62.9054 30.8297C62.8504 30.8172 62.8129 30.8097 62.7954 30.8072C62.7779 30.8047 62.7454 30.7997 62.6954 30.7922C62.6454 30.7847 62.5929 30.7772 62.5404 30.7722C62.4629 30.6047 62.3329 30.3522 62.1479 30.0122C61.9629 29.6722 61.7504 29.2847 61.5079 28.8472C61.4554 28.7572 61.4079 28.7072 61.3654 28.6972C61.3054 28.6847 61.2554 28.7647 61.2154 28.9422L60.8979 30.4172C60.8504 30.4022 60.8129 30.3897 60.7829 30.3822C60.7529 30.3722 60.7254 30.3647 60.7054 30.3572C60.6854 30.3497 60.6529 30.3422 60.6154 30.3347C60.5704 30.3247 60.5429 30.3197 60.5279 30.3172C60.5154 30.3172 60.4879 30.3122 60.4479 30.3072C60.4079 30.3022 60.3654 30.2972 60.3229 30.2922L61.4929 24.8622C61.5529 24.8797 61.6079 24.8972 61.6554 24.9122C61.7029 24.9272 61.7454 24.9397 61.7779 24.9447C61.8079 24.9522 61.8479 24.9572 61.8979 24.9622C61.9479 24.9672 62.0054 24.9747 62.0729 24.9847V24.9947Z" fill="black"/>
<path d="M55.8179 80.8122C69.4262 80.8122 80.4579 69.7805 80.4579 56.1722C80.4579 42.5639 69.4262 31.5322 55.8179 31.5322C42.2096 31.5322 31.1779 42.5639 31.1779 56.1722C31.1779 69.7805 42.2096 80.8122 55.8179 80.8122Z" fill="url(#paint24_linear_302_1293)" stroke="#A3822E" stroke-width="0.075" stroke-miterlimit="10"/>
<path d="M56.1854 74.4447C66.694 74.4447 75.2129 65.9258 75.2129 55.4172C75.2129 44.9086 66.694 36.3897 56.1854 36.3897C45.6768 36.3897 37.1579 44.9086 37.1579 55.4172C37.1579 65.9258 45.6768 74.4447 56.1854 74.4447Z" fill="white"/>
<path d="M56.1854 75.0797C45.3429 75.0797 36.5254 66.2597 36.5254 55.4197C36.5254 44.5797 45.3429 35.7572 56.1854 35.7572C67.0279 35.7572 75.8454 44.5772 75.8454 55.4172C75.8454 66.2572 67.0254 75.0772 56.1854 75.0772V75.0797ZM56.1854 37.0222C46.0429 37.0222 37.7904 45.2747 37.7904 55.4172C37.7904 65.5597 46.0429 73.8122 56.1854 73.8122C66.3279 73.8122 74.5804 65.5597 74.5804 55.4172C74.5804 45.2747 66.3279 37.0222 56.1854 37.0222Z" fill="black"/>
<path d="M56.1829 38.5447C46.8704 38.5447 39.3154 46.0997 39.3154 55.4197C39.3154 64.7397 46.8704 72.2947 56.1829 72.2947C65.4954 72.2947 73.0579 64.7397 73.0579 55.4197C73.0579 46.0997 65.5029 38.5447 56.1829 38.5447ZM55.6054 65.5897H56.0379C55.8879 65.7697 55.7904 65.8672 55.7904 65.8672C55.7229 65.7772 55.6679 65.6822 55.6054 65.5897Z" fill="#FF0000"/>
<path d="M68.4829 47.3847C60.1504 44.4672 55.8279 49.6697 55.8279 49.6697C49.1154 44.1522 42.6804 48.1947 42.6804 48.1947C44.5479 56.8072 51.1204 57.7222 51.1204 57.7222C49.0779 64.3972 55.8279 69.8822 55.8279 69.8822C61.5229 66.6497 61.2754 57.4747 61.2754 57.4747C67.8879 55.0447 68.4829 47.3822 68.4829 47.3822V47.3847ZM55.6329 53.4522C56.0879 52.8322 57.5304 55.7872 57.2529 56.0647C56.9754 56.3497 54.5629 56.4697 54.3554 55.9072C54.1404 55.3497 55.6329 53.4522 55.6329 53.4522ZM51.8554 55.0847C47.4254 53.9272 46.2304 49.9347 46.2304 49.9347C51.2804 49.1822 53.9804 51.6747 53.9804 51.6747C51.8554 52.9397 51.8554 55.0847 51.8554 55.0847ZM55.6454 65.5297C53.2854 62.3022 53.5454 58.2797 53.5454 58.2797C55.5129 58.8422 58.0179 58.2797 58.0179 58.2797C58.5679 62.6022 55.6454 65.5297 55.6454 65.5297ZM60.2379 55.0847C59.7329 53.4322 57.7254 51.5172 57.7254 51.5172C61.0654 48.7197 65.1104 49.5997 65.1104 49.5997C63.6679 53.3272 60.2379 55.0847 60.2379 55.0847Z" fill="white" stroke="black" stroke-width="0.125" stroke-miterlimit="10"/>
<path d="M48.4829 77.4422L48.5154 77.4572C48.5304 77.5647 48.5679 77.6672 48.6254 77.7622C48.6854 77.8572 48.7579 77.9222 48.8479 77.9622C48.9129 77.9922 48.9854 78.0047 49.0579 77.9997C49.1329 77.9947 49.2029 77.9722 49.2654 77.9322C49.3279 77.8922 49.3754 77.8397 49.4054 77.7697C49.4579 77.6497 49.4579 77.5497 49.4054 77.4722C49.3504 77.3947 49.2529 77.2947 49.1104 77.1747C48.9679 77.0547 48.8704 76.9447 48.8204 76.8422C48.7704 76.7397 48.7804 76.6097 48.8479 76.4522C48.9304 76.2672 49.0579 76.1472 49.2279 76.0972C49.3979 76.0472 49.5804 76.0622 49.7704 76.1472C49.8629 76.1872 49.9454 76.2397 50.0229 76.2997C50.1004 76.3597 50.1529 76.4122 50.1804 76.4547C50.1054 76.5222 50.0304 76.6022 49.9554 76.6972L49.9204 76.6822C49.9204 76.6322 49.9154 76.5772 49.8979 76.5172C49.8804 76.4572 49.8554 76.4072 49.8229 76.3622C49.7904 76.3172 49.7479 76.2847 49.6979 76.2622C49.5929 76.2172 49.4929 76.2072 49.3979 76.2347C49.3029 76.2622 49.2304 76.3297 49.1854 76.4347C49.1354 76.5472 49.1354 76.6447 49.1879 76.7247C49.2404 76.8022 49.3354 76.9047 49.4729 77.0272C49.6104 77.1497 49.7054 77.2622 49.7604 77.3672C49.8154 77.4722 49.8079 77.5972 49.7454 77.7422C49.6854 77.8772 49.5979 77.9772 49.4829 78.0422C49.3679 78.1072 49.2429 78.1397 49.1054 78.1347C48.9704 78.1322 48.8404 78.1047 48.7204 78.0497C48.5304 77.9647 48.3804 77.8497 48.2729 77.6997C48.3904 77.5697 48.4604 77.4847 48.4879 77.4422H48.4829Z" fill="black"/>
<path d="M51.9954 77.6597L51.7229 78.6422C51.7079 78.6972 51.6979 78.7397 51.6929 78.7672C51.6879 78.7947 51.6929 78.8197 51.7054 78.8397C51.7179 78.8597 51.7404 78.8772 51.7779 78.8872C51.8079 78.8947 51.8504 78.8997 51.9079 78.9022L51.8829 78.9947C51.8279 79.0022 51.7829 79.0047 51.7429 79.0022C51.6954 78.9972 51.6504 78.9897 51.6054 78.9772C51.5229 78.9522 51.4579 78.9097 51.4179 78.8572C51.3754 78.8022 51.3604 78.7297 51.3754 78.6347L51.3279 78.6647C51.1004 78.7922 50.8679 78.8247 50.6254 78.7572C50.4704 78.7147 50.3504 78.6297 50.2679 78.5022C50.1829 78.3747 50.1629 78.2347 50.2054 78.0847C50.2479 77.9347 50.3129 77.8297 50.4079 77.7672C50.5029 77.7047 50.6054 77.6697 50.7179 77.6672C50.8304 77.6647 50.9779 77.6722 51.1579 77.6922C51.2979 77.7072 51.3954 77.7147 51.4579 77.7122C51.5204 77.7097 51.5679 77.6972 51.6029 77.6722C51.6404 77.6472 51.6654 77.5997 51.6854 77.5322C51.7304 77.3747 51.7204 77.2397 51.6579 77.1297C51.5954 77.0197 51.4854 76.9422 51.3279 76.8997C51.2354 76.8747 51.1479 76.8672 51.0654 76.8797C50.9829 76.8922 50.9129 76.9147 50.8604 76.9497C50.8054 76.9822 50.7654 77.0172 50.7429 77.0522L50.6954 77.0397L50.7604 76.8047C51.0304 76.7122 51.2804 76.6972 51.5079 76.7597C51.7329 76.8222 51.8879 76.9297 51.9704 77.0797C52.0529 77.2297 52.0629 77.4247 51.9979 77.6622L51.9954 77.6597ZM51.4054 78.4672L51.5779 77.8472L51.4204 77.8372C51.3204 77.8272 51.2304 77.8222 51.1479 77.8172C51.0654 77.8122 50.9829 77.8172 50.9079 77.8272C50.8304 77.8397 50.7604 77.8672 50.6979 77.9147C50.6354 77.9622 50.5929 78.0297 50.5654 78.1222C50.5279 78.2547 50.5379 78.3647 50.5904 78.4522C50.6429 78.5397 50.7379 78.6022 50.8704 78.6372C50.9229 78.6522 50.9854 78.6522 51.0629 78.6372C51.1404 78.6222 51.2029 78.5997 51.2554 78.5697C51.2729 78.5597 51.2929 78.5497 51.3129 78.5397C51.3329 78.5297 51.3554 78.5172 51.3729 78.5022C51.3929 78.4872 51.4029 78.4772 51.4054 78.4697V78.4672Z" fill="black"/>
<path d="M52.5954 79.2022L52.9979 75.9222C53.0354 75.9297 53.0679 75.9372 53.0979 75.9422C53.1279 75.9497 53.1529 75.9547 53.1729 75.9547C53.1929 75.9547 53.2154 75.9572 53.2454 75.9597C53.2754 75.9597 53.3104 75.9597 53.3504 75.9647L53.1554 77.5547C53.3504 77.2922 53.6029 77.1797 53.9104 77.2172C54.1579 77.2472 54.3304 77.3397 54.4229 77.4947C54.5154 77.6497 54.5454 77.8697 54.5104 78.1547L54.3554 79.4172C54.3279 79.4097 54.3054 79.4047 54.2854 79.4022C54.2654 79.3972 54.2504 79.3947 54.2404 79.3922C54.2304 79.3897 54.2104 79.3872 54.1829 79.3822C54.1554 79.3797 54.1354 79.3772 54.1229 79.3772C54.1104 79.3772 54.0929 79.3772 54.0754 79.3772C54.0554 79.3772 54.0329 79.3772 54.0079 79.3772L54.1504 78.2147C54.1804 77.9622 54.1679 77.7722 54.1104 77.6497C54.0529 77.5247 53.9354 77.4522 53.7554 77.4297C53.3729 77.3822 53.1554 77.5922 53.0979 78.0597L52.9529 79.2472C52.9254 79.2397 52.9029 79.2347 52.8829 79.2322C52.8629 79.2297 52.8479 79.2247 52.8354 79.2222C52.8229 79.2197 52.8054 79.2172 52.7804 79.2122C52.7529 79.2097 52.7354 79.2072 52.7279 79.2072C52.7204 79.2072 52.7029 79.2072 52.6804 79.2072C52.6554 79.2072 52.6304 79.2072 52.6054 79.2072L52.5954 79.2022Z" fill="black"/>
<path d="M56.7429 78.0472L56.7579 79.0672C56.7579 79.1247 56.7604 79.1672 56.7654 79.1947C56.7679 79.2222 56.7804 79.2447 56.7979 79.2622C56.8154 79.2797 56.8429 79.2872 56.8804 79.2872C56.9129 79.2872 56.9554 79.2797 57.0079 79.2672V79.3647C56.9604 79.3872 56.9154 79.4047 56.8779 79.4122C56.8304 79.4222 56.7829 79.4272 56.7379 79.4272C56.6504 79.4272 56.5804 79.4047 56.5229 79.3647C56.4679 79.3247 56.4329 79.2572 56.4204 79.1622L56.3829 79.2047C56.2004 79.3922 55.9854 79.4872 55.7354 79.4897C55.5754 79.4922 55.4354 79.4447 55.3204 79.3447C55.2029 79.2472 55.1429 79.1172 55.1429 78.9597C55.1429 78.8047 55.1754 78.6847 55.2479 78.5972C55.3204 78.5097 55.4104 78.4497 55.5179 78.4122C55.6254 78.3772 55.7679 78.3447 55.9479 78.3122C56.0854 78.2872 56.1829 78.2672 56.2404 78.2472C56.2979 78.2297 56.3429 78.2022 56.3704 78.1672C56.3979 78.1322 56.4104 78.0797 56.4104 78.0097C56.4104 77.8447 56.3604 77.7197 56.2704 77.6297C56.1804 77.5397 56.0529 77.4997 55.8879 77.5022C55.7929 77.5022 55.7079 77.5222 55.6304 77.5572C55.5529 77.5922 55.4954 77.6347 55.4529 77.6822C55.4079 77.7297 55.3804 77.7722 55.3679 77.8122H55.3179L55.3154 77.5672C55.5504 77.4022 55.7854 77.3172 56.0204 77.3147C56.2529 77.3122 56.4329 77.3697 56.5554 77.4922C56.6779 77.6147 56.7404 77.7972 56.7454 78.0447L56.7429 78.0472ZM56.4029 78.9897L56.3929 78.3472L56.2379 78.3822C56.1404 78.4022 56.0504 78.4197 55.9704 78.4397C55.8879 78.4572 55.8129 78.4847 55.7404 78.5172C55.6704 78.5497 55.6104 78.5972 55.5629 78.6597C55.5179 78.7222 55.4954 78.7997 55.4954 78.8947C55.4954 79.0322 55.5379 79.1347 55.6129 79.2022C55.6904 79.2697 55.7954 79.3047 55.9329 79.3022C55.9879 79.3022 56.0479 79.2822 56.1179 79.2472C56.1854 79.2122 56.2404 79.1722 56.2829 79.1297C56.2979 79.1147 56.3129 79.0997 56.3304 79.0847C56.3479 79.0697 56.3629 79.0522 56.3779 79.0322C56.3929 79.0122 56.4004 78.9997 56.4004 78.9922L56.4029 78.9897Z" fill="black"/>
<path d="M57.6529 79.3672L57.1954 76.1072C57.2329 76.1072 57.2654 76.1022 57.2954 76.1022C57.3254 76.1022 57.3504 76.0997 57.3704 76.0947C57.3879 76.0922 57.4129 76.0872 57.4404 76.0797C57.4704 76.0722 57.5029 76.0647 57.5429 76.0572L57.7704 77.6697C57.8454 77.5147 57.9404 77.3897 58.0504 77.2922C58.1629 77.1947 58.3004 77.1372 58.4604 77.1147C58.6554 77.0872 58.8254 77.1147 58.9729 77.1922C59.1179 77.2697 59.2354 77.3822 59.3204 77.5297C59.4054 77.6772 59.4604 77.8322 59.4829 78.0022C59.5029 78.1497 59.5029 78.2947 59.4779 78.4372C59.4529 78.5772 59.4054 78.7072 59.3354 78.8247C59.2654 78.9422 59.1729 79.0422 59.0604 79.1222C58.9454 79.2022 58.8129 79.2522 58.6579 79.2747C58.3854 79.3122 58.1629 79.2397 57.9954 79.0522C57.9654 79.0822 57.9279 79.1222 57.8854 79.1747C57.8429 79.2272 57.7929 79.2872 57.7354 79.3547L57.6529 79.3647V79.3672ZM58.3779 77.3147C58.1479 77.3472 57.9954 77.4672 57.9204 77.6772C57.8454 77.8872 57.8279 78.1372 57.8704 78.4297C57.8929 78.5822 57.9354 78.7172 58.0029 78.8322C58.0679 78.9472 58.1529 79.0322 58.2554 79.0872C58.3579 79.1422 58.4704 79.1597 58.5954 79.1422C58.7129 79.1247 58.8079 79.0822 58.8829 79.0097C58.9579 78.9372 59.0154 78.8472 59.0529 78.7397C59.0904 78.6322 59.1129 78.5247 59.1204 78.4122C59.1279 78.3022 59.1204 78.1872 59.1054 78.0747C59.0829 77.9097 59.0404 77.7672 58.9804 77.6472C58.9204 77.5272 58.8404 77.4372 58.7404 77.3772C58.6404 77.3172 58.5204 77.2947 58.3829 77.3147H58.3779Z" fill="black"/>
<path d="M61.4104 77.2272L61.6654 78.2147C61.6804 78.2697 61.6929 78.3122 61.7029 78.3372C61.7129 78.3622 61.7279 78.3822 61.7504 78.3947C61.7704 78.4072 61.8004 78.4072 61.8354 78.3997C61.8654 78.3922 61.9054 78.3747 61.9554 78.3472L61.9804 78.4397C61.9379 78.4747 61.8979 78.4997 61.8629 78.5172C61.8204 78.5372 61.7754 78.5547 61.7304 78.5647C61.6454 78.5847 61.5704 78.5822 61.5079 78.5547C61.4429 78.5297 61.3954 78.4722 61.3604 78.3822L61.3329 78.4322C61.2004 78.6572 61.0129 78.8022 60.7729 78.8647C60.6179 78.9047 60.4729 78.8922 60.3354 78.8222C60.1979 78.7547 60.1104 78.6447 60.0704 78.4922C60.0329 78.3422 60.0379 78.2172 60.0879 78.1147C60.1379 78.0122 60.2104 77.9322 60.3054 77.8722C60.4004 77.8122 60.5329 77.7472 60.7004 77.6722C60.8279 77.6147 60.9179 77.5722 60.9704 77.5397C61.0229 77.5097 61.0579 77.4722 61.0779 77.4322C61.0954 77.3922 61.0954 77.3372 61.0779 77.2697C61.0354 77.1097 60.9604 76.9972 60.8529 76.9347C60.7429 76.8697 60.6104 76.8597 60.4529 76.8997C60.3604 76.9247 60.2804 76.9622 60.2154 77.0147C60.1504 77.0672 60.1029 77.1222 60.0704 77.1772C60.0404 77.2347 60.0229 77.2822 60.0204 77.3247L59.9729 77.3372L59.9104 77.0997C60.0979 76.8847 60.3079 76.7472 60.5354 76.6872C60.7604 76.6272 60.9479 76.6447 61.0979 76.7322C61.2454 76.8222 61.3504 76.9847 61.4129 77.2222L61.4104 77.2272ZM61.3054 78.2222L61.1429 77.5997L61.0004 77.6697C60.9104 77.7097 60.8279 77.7497 60.7529 77.7872C60.6779 77.8247 60.6104 77.8672 60.5479 77.9172C60.4854 77.9647 60.4404 78.0247 60.4104 78.0972C60.3804 78.1697 60.3754 78.2497 60.4004 78.3422C60.4354 78.4747 60.4979 78.5647 60.5879 78.6147C60.6779 78.6622 60.7904 78.6697 60.9229 78.6347C60.9754 78.6197 61.0304 78.5897 61.0879 78.5372C61.1454 78.4872 61.1904 78.4347 61.2204 78.3822C61.2304 78.3647 61.2429 78.3472 61.2554 78.3272C61.2679 78.3072 61.2804 78.2872 61.2904 78.2647C61.3004 78.2422 61.3029 78.2272 61.3029 78.2197L61.3054 78.2222Z" fill="black"/>
<path d="M61.7304 75.9147L62.0204 75.6722L62.2054 76.2122L62.6454 76.0622C62.6529 76.1047 62.6604 76.1347 62.6654 76.1497C62.6729 76.1722 62.6854 76.1972 62.7004 76.2222L62.2604 76.3722L62.6179 77.4172L62.6704 77.5672C62.7254 77.7272 62.7879 77.8472 62.8629 77.9272C62.9354 78.0097 63.0354 78.0272 63.1604 77.9847C63.1879 77.9747 63.2454 77.9447 63.3379 77.8922L63.3729 77.9922C63.2529 78.0897 63.1429 78.1547 63.0479 78.1872C62.9704 78.2147 62.9004 78.2272 62.8354 78.2272C62.7704 78.2272 62.7079 78.2097 62.6504 78.1722C62.5929 78.1347 62.5379 78.0797 62.4854 77.9997C62.4354 77.9197 62.3879 77.8197 62.3454 77.6947L61.9304 76.4822L61.6729 76.5697C61.6729 76.5497 61.6679 76.5197 61.6554 76.4872C61.6429 76.4497 61.6304 76.4247 61.6179 76.4122L61.8754 76.3247L61.7354 75.9122L61.7304 75.9147Z" fill="black"/>
<path d="M74.5804 75.6722C74.8179 75.7322 76.7204 75.4072 79.4479 73.9872C80.3104 73.5397 81.2529 72.9822 82.2529 72.2947" stroke="#A3822E" stroke-width="0.025" stroke-miterlimit="10"/>
<path d="M79.3229 69.4947C79.3229 69.4947 82.9779 67.1747 84.5604 64.2922" stroke="#A3822E" stroke-width="0.025" stroke-miterlimit="10"/>
<path d="M80.5979 62.9572C80.5979 62.9572 84.3529 60.6347 86.1604 56.1722" stroke="#A3822E" stroke-width="0.025" stroke-miterlimit="10"/>
<path d="M81.1879 55.4172C81.1879 55.4172 83.8229 53.1147 84.5604 48.3322" stroke="#A3822E" stroke-width="0.025" stroke-miterlimit="10"/>
<path d="M78.3854 43.1747L80.0254 37.2597" stroke="#A3822E" stroke-width="0.025" stroke-miterlimit="10"/>
</g>
<rect x="1" y="1" width="110" height="110" rx="9" stroke="#CCCCCC" stroke-width="2"/>
<defs>
<linearGradient id="paint0_linear_302_1293" x1="30.6804" y1="44.2397" x2="26.3229" y2="49.4422" gradientUnits="userSpaceOnUse">
<stop stop-color="#F7E349"/>
<stop offset="1" stop-color="#A3822E"/>
</linearGradient>
<linearGradient id="paint1_linear_302_1293" x1="81.0479" y1="44.2397" x2="85.4054" y2="49.4422" gradientUnits="userSpaceOnUse">
<stop stop-color="#F7E349"/>
<stop offset="1" stop-color="#A3822E"/>
</linearGradient>
<linearGradient id="paint2_linear_302_1293" x1="36.3854" y1="36.7647" x2="31.1829" y2="37.1147" gradientUnits="userSpaceOnUse">
<stop stop-color="#F7E349"/>
<stop offset="1" stop-color="#A3822E"/>
</linearGradient>
<linearGradient id="paint3_linear_302_1293" x1="42.7854" y1="32.2647" x2="39.2004" y2="39.8572" gradientUnits="userSpaceOnUse">
<stop stop-color="#F7E349"/>
<stop offset="1" stop-color="#A3822E"/>
</linearGradient>
<linearGradient id="paint4_linear_302_1293" x1="46.5354" y1="34.8297" x2="35.1479" y2="34.8297" gradientUnits="userSpaceOnUse">
<stop stop-color="#F7E349"/>
<stop offset="1" stop-color="#A3822E"/>
</linearGradient>
<linearGradient id="paint5_linear_302_1293" x1="30.5304" y1="76.7747" x2="40.0904" y2="78.2497" gradientUnits="userSpaceOnUse">
<stop stop-color="#F7E349"/>
<stop offset="1" stop-color="#A3822E"/>
</linearGradient>
<linearGradient id="paint6_linear_302_1293" x1="34.5754" y1="71.4247" x2="32.7479" y2="79.5797" gradientUnits="userSpaceOnUse">
<stop stop-color="#F7E349"/>
<stop offset="1" stop-color="#A3822E"/>
</linearGradient>
<linearGradient id="paint7_linear_302_1293" x1="30.9754" y1="65.8322" x2="27.9529" y2="71.0347" gradientUnits="userSpaceOnUse">
<stop stop-color="#F7E349"/>
<stop offset="1" stop-color="#A3822E"/>
</linearGradient>
<linearGradient id="paint8_linear_302_1293" x1="34.1129" y1="68.2747" x2="42.4079" y2="76.8522" gradientUnits="userSpaceOnUse">
<stop stop-color="#F7E349"/>
<stop offset="1" stop-color="#A3822E"/>
</linearGradient>
<linearGradient id="paint9_linear_302_1293" x1="30.1829" y1="58.4347" x2="25.8254" y2="68.2772" gradientUnits="userSpaceOnUse">
<stop stop-color="#F7E349"/>
<stop offset="1" stop-color="#A3822E"/>
</linearGradient>
<linearGradient id="paint10_linear_302_1293" x1="30.6204" y1="50.7697" x2="24.0829" y2="58.7822" gradientUnits="userSpaceOnUse">
<stop stop-color="#F7E349"/>
<stop offset="1" stop-color="#A3822E"/>
</linearGradient>
<linearGradient id="paint11_linear_302_1293" x1="34.3729" y1="40.4347" x2="28.3979" y2="41.2772" gradientUnits="userSpaceOnUse">
<stop stop-color="#F7E349"/>
<stop offset="1" stop-color="#A3822E"/>
</linearGradient>
<linearGradient id="paint12_linear_302_1293" x1="75.3429" y1="36.7647" x2="80.5454" y2="37.1147" gradientUnits="userSpaceOnUse">
<stop stop-color="#F7E349"/>
<stop offset="1" stop-color="#A3822E"/>
</linearGradient>
<linearGradient id="paint13_linear_302_1293" x1="68.9429" y1="32.2647" x2="72.5279" y2="39.8572" gradientUnits="userSpaceOnUse">
<stop stop-color="#F7E349"/>
<stop offset="1" stop-color="#A3822E"/>
</linearGradient>
<linearGradient id="paint14_linear_302_1293" x1="65.1929" y1="34.8297" x2="76.5804" y2="34.8297" gradientUnits="userSpaceOnUse">
<stop stop-color="#F7E349"/>
<stop offset="1" stop-color="#A3822E"/>
</linearGradient>
<linearGradient id="paint15_linear_302_1293" x1="81.1979" y1="76.7747" x2="71.6379" y2="78.2497" gradientUnits="userSpaceOnUse">
<stop stop-color="#F7E349"/>
<stop offset="1" stop-color="#A3822E"/>
</linearGradient>
<linearGradient id="paint16_linear_302_1293" x1="77.1529" y1="71.4247" x2="78.9804" y2="79.5797" gradientUnits="userSpaceOnUse">
<stop stop-color="#F7E349"/>
<stop offset="1" stop-color="#A3822E"/>
</linearGradient>
<linearGradient id="paint17_linear_302_1293" x1="80.7529" y1="65.8322" x2="83.7754" y2="71.0347" gradientUnits="userSpaceOnUse">
<stop stop-color="#F7E349"/>
<stop offset="1" stop-color="#A3822E"/>
</linearGradient>
<linearGradient id="paint18_linear_302_1293" x1="77.6154" y1="68.2747" x2="69.3204" y2="76.8522" gradientUnits="userSpaceOnUse">
<stop stop-color="#F7E349"/>
<stop offset="1" stop-color="#A3822E"/>
</linearGradient>
<linearGradient id="paint19_linear_302_1293" x1="81.5454" y1="58.4347" x2="85.9029" y2="68.2772" gradientUnits="userSpaceOnUse">
<stop stop-color="#F7E349"/>
<stop offset="1" stop-color="#A3822E"/>
</linearGradient>
<linearGradient id="paint20_linear_302_1293" x1="81.1079" y1="50.7697" x2="87.6454" y2="58.7822" gradientUnits="userSpaceOnUse">
<stop stop-color="#F7E349"/>
<stop offset="1" stop-color="#A3822E"/>
</linearGradient>
<linearGradient id="paint21_linear_302_1293" x1="77.3554" y1="40.4347" x2="83.3304" y2="41.2772" gradientUnits="userSpaceOnUse">
<stop stop-color="#F7E349"/>
<stop offset="1" stop-color="#A3822E"/>
</linearGradient>
<linearGradient id="paint22_linear_302_1293" x1="55.8179" y1="73.8147" x2="55.8179" y2="88.7572" gradientUnits="userSpaceOnUse">
<stop stop-color="#F7E349"/>
<stop offset="1" stop-color="#A3822E"/>
</linearGradient>
<linearGradient id="paint23_linear_302_1293" x1="55.8179" y1="34.4697" x2="55.8179" y2="23.0022" gradientUnits="userSpaceOnUse">
<stop stop-color="#F7E349"/>
<stop offset="1" stop-color="#A3822E"/>
</linearGradient>
<linearGradient id="paint24_linear_302_1293" x1="55.8179" y1="31.5322" x2="55.8179" y2="80.8122" gradientUnits="userSpaceOnUse">
<stop stop-color="#F7E349"/>
<stop offset="1" stop-color="#A3822E"/>
</linearGradient>
<clipPath id="clip0_302_1293">
<rect x="2" y="2" width="108" height="108" rx="8" fill="white"/>
</clipPath>
</defs>
</svg>
