<svg width="112" height="112" viewBox="0 0 112 112" fill="none" xmlns="http://www.w3.org/2000/svg">
<g clip-path="url(#clip0_642_1032)">
<rect x="2" y="2" width="108" height="108" rx="8" fill="white"/>
<path fill-rule="evenodd" clip-rule="evenodd" d="M56.6736 46.4093C56.3937 43.4792 54.8587 41.1687 52.1485 40.0494C49.4742 38.9461 46.6321 39.2699 43.8619 39.8096C37.6379 41.0128 29.0155 46.9249 26.6571 52.7971C25.29 56.1989 26.2054 59.9365 28.9636 62.0991C31.9137 64.4096 36.0869 64.0058 39.3968 63.0105C41.1956 62.4668 42.3829 61.9991 44.0578 61.2276C44.4055 61.0677 45.285 60.5681 45.5488 60.5201L45.9525 66.3483L49.83 64.3216C51.1052 63.6221 52.4203 62.9785 53.7115 62.267C53.5596 62.0471 52.3923 61.3755 52.1085 61.0797L53.3757 58.8931C54.2072 57.2742 54.9307 55.8391 55.5423 54.0643L56.1539 52.0456C56.6256 50.2747 56.8534 48.2121 56.6816 46.4093H56.6736ZM46.4762 45.0382C47.7434 44.9302 49.1025 45.0701 50.0019 45.6098C50.5935 45.9656 51.2691 46.7331 51.2851 47.4446C51.3011 48.1561 51.2011 49.6192 50.8893 50.1668C50.4736 50.8983 49.5862 51.8617 48.9506 52.3894C47.6714 53.4567 46.808 54.0483 45.193 54.8838C44.0098 55.4994 40.7199 56.9984 39.4767 57.4941C37.3621 58.3375 34.8318 59.149 32.873 57.8818C32.0696 57.3621 31.458 56.2109 31.5339 55.0876C31.5939 54.1722 32.1735 53.2928 32.7491 52.6452C32.857 52.5253 32.853 52.4933 32.977 52.3734C33.1608 52.2015 33.3167 52.0536 33.4966 51.8537C34.0203 51.2781 35.7751 49.9789 36.4067 49.5592C39.5447 47.4686 42.4428 45.3779 46.4762 45.0342V45.0382Z" fill="#FF0000"/>
<path fill-rule="evenodd" clip-rule="evenodd" d="M47.2397 59.3968C47.3836 59.0371 47.6554 58.6093 47.8553 58.2256C48.4829 57.0104 48.9906 56.1229 49.6381 54.7998C51.405 51.2101 52.5283 47.5685 50.8853 43.691C50.1738 42.0081 48.315 40.2772 48.0432 39.6257C50.0459 39.6137 52.2245 40.2413 53.7954 41.4685C55.8381 43.0634 56.5217 46.0415 56.3098 48.6558C56.046 51.9497 54.6909 55.7192 53.1239 58.4894L51.5569 61.2036C51.8327 61.4475 52.8081 61.9831 52.948 62.231C52.3404 62.4309 46.6441 65.6248 46.3083 65.6767L45.8326 58.7892L47.2357 59.3888L47.2397 59.3968Z" fill="white"/>
<path fill-rule="evenodd" clip-rule="evenodd" d="M55.6262 55.9351C55.9061 58.8652 57.4411 61.1757 60.1513 62.2949C62.8256 63.3982 65.6677 63.0744 68.4379 62.5348C74.6619 61.3316 83.2843 55.4194 85.6427 49.5472C87.0098 46.1454 86.0944 42.4079 83.3362 40.2453C80.3861 37.9348 76.2129 38.3385 72.903 39.3339C71.1042 39.8775 69.917 40.3452 68.242 41.1167C67.8943 41.2766 67.0148 41.7763 66.751 41.8242L66.3473 35.996L62.4698 38.0227C61.1946 38.7223 59.8795 39.3658 58.5883 40.0774C58.7402 40.2972 59.9075 40.9688 60.1913 41.2606L58.9241 43.4472C58.0926 45.0661 57.3691 46.5012 56.7575 48.2761L56.1459 50.2947C55.6742 52.0656 55.4464 54.1282 55.6183 55.9311L55.6262 55.9351ZM65.8236 57.3062C64.5564 57.4141 63.1973 57.2742 62.2979 56.7346C61.7063 56.3788 61.0307 55.6113 61.0147 54.8997C60.9988 54.1882 61.0987 52.7252 61.4105 52.1775C61.8262 51.446 62.7136 50.4826 63.3492 49.955C64.6284 48.8877 65.4918 48.296 67.1068 47.4606C68.29 46.845 71.5799 45.346 72.8231 44.8503C74.9377 44.0068 77.468 43.1954 79.4268 44.4625C80.2302 44.9822 80.8419 46.1334 80.7659 47.2567C80.7059 48.1721 80.1263 49.0515 79.5507 49.6991C79.4428 49.819 79.4468 49.851 79.3228 49.9709C79.139 50.1428 78.9831 50.2907 78.8032 50.4906C78.2795 51.0662 76.5247 52.3654 75.8931 52.7851C72.7551 54.8758 69.857 56.9664 65.8236 57.3102V57.3062Z" fill="#FF0000"/>
<path fill-rule="evenodd" clip-rule="evenodd" d="M65.0601 42.9475C64.9162 43.3073 64.6444 43.735 64.4445 44.1188C63.8169 45.334 63.3092 46.2214 62.6617 47.5445C60.8948 51.1342 59.7715 54.7758 61.4145 58.6533C62.126 60.3362 63.9848 62.0671 64.2566 62.7187C62.2539 62.7307 60.0754 62.1031 58.5044 60.8759C56.4617 59.2809 55.7821 56.3028 55.99 53.6885C56.2538 50.3947 57.609 46.6251 59.1759 43.8549L60.7429 41.1407C60.4671 40.8968 59.4917 40.3612 59.3518 40.1134C59.9594 39.9135 65.6557 36.7196 65.9915 36.6676L66.4672 43.5551L65.0641 42.9555L65.0601 42.9475Z" fill="white"/>
<path fill-rule="evenodd" clip-rule="evenodd" d="M17.7908 74.6069H18.0826C18.6982 74.6069 19.138 74.527 19.3978 74.3711C19.6576 74.2112 19.8135 73.9434 19.8695 73.5636C19.9175 73.2398 19.8535 73.008 19.6736 72.8761C19.4977 72.7401 19.134 72.6722 18.5903 72.6722H18.3265L17.7948 74.6109L17.7908 74.6069ZM19.126 69.6821L18.6423 71.457H18.8022C19.3538 71.457 19.7456 71.385 19.9774 71.2371C20.2093 71.0932 20.3492 70.8414 20.3971 70.4936C20.4411 70.1938 20.3851 69.9819 20.2332 69.862C20.0813 69.7421 19.7536 69.6821 19.2539 69.6821H19.122H19.126ZM16.004 75.8181L17.9947 68.4789H19.4578C20.0773 68.4789 20.5171 68.5149 20.7889 68.5788C21.0607 68.6468 21.2846 68.7587 21.4565 68.9186C21.6323 69.0825 21.7563 69.2744 21.8282 69.4943C21.8962 69.7141 21.9122 69.958 21.8762 70.2298C21.8082 70.7055 21.6163 71.0972 21.3046 71.413C20.9888 71.7288 20.597 71.9167 20.1253 71.9846C20.565 72.0566 20.8968 72.2325 21.1127 72.5203C21.3285 72.8081 21.4045 73.1679 21.3405 73.5996C21.2846 73.9793 21.1566 74.3231 20.9608 74.6309C20.7609 74.9387 20.5011 75.1945 20.1773 75.3944C19.9334 75.5503 19.6416 75.6543 19.3059 75.7182C18.9661 75.7822 18.4144 75.8141 17.6389 75.8141H16L16.004 75.8181ZM22.3839 75.8181L22.9875 74.575H25.1101L25.3459 75.8181H26.5851L25.242 70.0419H23.9668L21.0767 75.8181H22.3839ZM23.4392 73.6276L24.1187 72.1325C24.1907 71.9766 24.2586 71.8088 24.3226 71.6289C24.3865 71.449 24.4465 71.2531 24.5025 71.0413C24.5225 71.3171 24.5384 71.5569 24.5584 71.7528C24.5784 71.9527 24.6024 72.1205 24.6264 72.2605L24.8942 73.6276H23.4392ZM27.1967 75.8181L27.9322 70.0419H29.1475L30.8743 73.02C31.0582 73.3478 31.1901 73.5916 31.2701 73.7595C31.35 73.9234 31.414 74.0833 31.4619 74.2312C31.4739 73.9594 31.4859 73.7155 31.4979 73.5076C31.5139 73.2998 31.5299 73.1319 31.5419 73.012L31.9256 70.0459H33.0249L32.2854 75.8221H31.1541L29.2314 72.4603C29.1115 72.2565 29.0155 72.0766 28.9436 71.9207C28.8676 71.7648 28.8077 71.6169 28.7557 71.473V71.6568C28.7557 71.8567 28.7517 72.0446 28.7397 72.2285C28.7317 72.4124 28.7157 72.5882 28.6957 72.7481L28.28 75.8181H27.1927H27.1967ZM33.5206 75.8181L34.2561 70.0419H35.4274L35.0916 72.6402L37.2702 70.0419H38.6493L36.2668 72.8121L37.9457 75.8181H36.6346L35.0556 72.9L34.6918 75.8181H33.5166H33.5206ZM40.3602 74.4071L41.7273 74.1432C41.7033 74.3471 41.7193 74.499 41.7673 74.5989C41.8192 74.6989 41.9112 74.7508 42.0391 74.7508C42.3029 74.7508 42.5667 74.2472 42.8306 73.2438C42.8865 73.0359 42.9265 72.8801 42.9545 72.7761L44.0578 68.7108H45.4928L44.3496 72.924C44.3216 73.024 44.2816 73.1759 44.2297 73.3797C43.9578 74.4031 43.69 75.0666 43.4262 75.3784C43.2503 75.5823 43.0384 75.7342 42.7866 75.8341C42.5348 75.9341 42.2389 75.986 41.8992 75.986C41.3395 75.986 40.9278 75.8541 40.66 75.5863C40.3961 75.3185 40.2962 74.9307 40.3562 74.4191L40.3602 74.4071ZM45.6687 75.8181L46.2723 74.575H48.3949L48.6308 75.8181H49.87L48.5269 70.0419H47.2517L44.3616 75.8181H45.6687ZM46.724 73.6276L47.4036 72.1325C47.4755 71.9766 47.5435 71.8088 47.6075 71.6289C47.6714 71.449 47.7314 71.2531 47.7873 71.0413C47.8073 71.3171 47.8233 71.5569 47.8433 71.7528C47.8633 71.9527 47.8873 72.1205 47.9113 72.2605L48.1791 73.6276H46.724ZM50.8294 74.2672C50.9613 74.503 51.1132 74.6789 51.2891 74.7908C51.4609 74.9027 51.6648 74.9587 51.9007 74.9587C52.1485 74.9587 52.3444 74.8867 52.4843 74.7508C52.6242 74.6109 52.6961 74.4191 52.6961 74.1752C52.6961 74.0193 52.6562 73.8754 52.5722 73.7515C52.4923 73.6276 52.3684 73.5196 52.2045 73.4237C52.1645 73.3997 52.1045 73.3677 52.0246 73.3198C51.5689 73.0639 51.2611 72.8441 51.1012 72.6602C50.9893 72.5243 50.9013 72.3724 50.8414 72.2005C50.7814 72.0286 50.7534 71.8407 50.7534 71.6449C50.7534 71.1492 50.9253 70.7334 51.2731 70.4017C51.6168 70.0699 52.0526 69.902 52.5802 69.902C52.896 69.902 53.1798 69.9619 53.4277 70.0859C53.6755 70.2098 53.8834 70.3897 54.0593 70.6335L53.4596 71.437C53.3597 71.2451 53.2398 71.1012 53.0919 71.0053C52.948 70.9093 52.7801 70.8614 52.5882 70.8614C52.3724 70.8614 52.1925 70.9253 52.0526 71.0532C51.9127 71.1812 51.8407 71.3451 51.8407 71.5449C51.8407 71.8048 52.0726 72.0726 52.5363 72.3404C52.6242 72.3924 52.6922 72.4363 52.7361 72.4643C53.1558 72.7202 53.4397 72.968 53.5916 73.2158C53.7395 73.4597 53.8154 73.7755 53.8154 74.1632C53.8154 74.7029 53.6395 75.1386 53.2878 75.4704C52.936 75.8022 52.4683 75.966 51.8847 75.966C51.5329 75.966 51.2171 75.8941 50.9413 75.7502C50.6655 75.6063 50.4176 75.3824 50.2018 75.0866L50.8374 74.2632L50.8294 74.2672ZM55.2705 75.8181L55.8741 74.575H57.9967L58.2325 75.8181H59.4717L58.1286 70.0419H56.8534L53.9633 75.8181H55.2705ZM56.3258 73.6276L57.0053 72.1325C57.0773 71.9766 57.1453 71.8088 57.2092 71.6289C57.2732 71.449 57.3331 71.2531 57.3891 71.0413C57.4091 71.3171 57.4251 71.5569 57.4451 71.7528C57.465 71.9527 57.489 72.1205 57.513 72.2605L57.7808 73.6276H56.3258ZM62.2299 74.3871L63.6131 74.1193C63.5891 74.3231 63.6051 74.479 63.657 74.579C63.709 74.6789 63.8009 74.7309 63.9328 74.7309C64.2007 74.7309 64.4685 74.2232 64.7323 73.2078C64.7883 73 64.8283 72.8401 64.8562 72.7361L65.9715 68.6308H67.4226L66.2673 72.8881C66.2393 72.988 66.1994 73.1399 66.1434 73.3478C65.8676 74.3791 65.5998 75.0506 65.3319 75.3664C65.1561 75.5703 64.9402 75.7262 64.6844 75.8261C64.4285 75.9261 64.1327 75.978 63.7889 75.978C63.2213 75.978 62.8056 75.8421 62.5378 75.5743C62.2739 75.3025 62.17 74.9107 62.2299 74.3991V74.3871ZM67.5785 75.8141L68.1821 74.571H70.3047L70.5406 75.8141H71.7797L70.4366 70.0379H69.1614L66.2713 75.8141H67.5785ZM68.6338 73.6236L69.3133 72.1285C69.3853 71.9726 69.4533 71.8048 69.5172 71.6249C69.5812 71.445 69.6411 71.2491 69.6971 71.0373C69.7171 71.3131 69.7331 71.5529 69.7531 71.7488C69.773 71.9487 69.797 72.1166 69.821 72.2565L70.0888 73.6236H68.6338ZM72.3913 75.8141L73.1269 70.0379H74.2981L73.9623 72.6362L76.1409 70.0379H77.52L75.1376 72.8081L76.8165 75.8141H75.5053L73.9263 72.896L73.5626 75.8141H72.3873H72.3913ZM77.9517 75.8141L78.5553 74.571H80.678L80.9138 75.8141H82.153L80.8099 70.0379H79.5347L76.6446 75.8141H77.9517ZM79.007 73.6236L79.6866 72.1285C79.7586 71.9726 79.8265 71.8048 79.8905 71.6249C79.9544 71.445 80.0144 71.2491 80.0704 71.0373C80.0903 71.3131 80.1063 71.5529 80.1263 71.7488C80.1463 71.9487 80.1703 72.1166 80.1943 72.2565L80.4621 73.6236H79.007ZM84.3516 72.5323H84.5235C84.9672 72.5323 85.267 72.4723 85.4269 72.3444C85.5868 72.2205 85.6667 72.0046 85.6667 71.7008C85.6667 71.441 85.5988 71.2611 85.4668 71.1532C85.3349 71.0492 85.0711 70.9973 84.6834 70.9973H84.5514L84.3556 72.5323H84.3516ZM82.7646 75.8141L83.5001 70.0379H84.6634C85.1471 70.0379 85.4988 70.0659 85.7147 70.1179C85.9305 70.1698 86.1184 70.2578 86.2823 70.3857C86.4622 70.5216 86.5981 70.6895 86.694 70.8893C86.786 71.0892 86.834 71.3091 86.834 71.5489C86.834 71.9886 86.714 72.3564 86.4742 72.6442C86.2343 72.932 85.8906 73.1279 85.4389 73.2318L86.706 75.8141H85.4269L84.2796 73.1639L83.9438 75.8141H82.7646ZM88.1691 75.8141L88.7727 71.0492H87.3256L87.4576 70.0379H91.419L91.2911 71.0492H89.9399L89.3363 75.8141H88.1651H88.1691ZM91.7987 75.8141L92.4023 74.571H94.525L94.7608 75.8141H96L94.6569 70.0379H93.3817L90.4916 75.8141H91.7987ZM92.854 73.6236L93.5336 72.1285C93.6056 71.9726 93.6735 71.8048 93.7375 71.6249C93.8014 71.445 93.8614 71.2491 93.9174 71.0373C93.9373 71.3131 93.9533 71.5529 93.9733 71.7488C93.9933 71.9487 94.0173 72.1166 94.0413 72.2565L94.3091 73.6236H92.854Z" fill="black"/>
</g>
<rect x="1" y="1" width="110" height="110" rx="9" stroke="#CCCCCC" stroke-width="2"/>
<defs>
<clipPath id="clip0_642_1032">
<rect x="2" y="2" width="108" height="108" rx="8" fill="white"/>
</clipPath>
</defs>
</svg>
