<svg width="112" height="112" viewBox="0 0 112 112" fill="none" xmlns="http://www.w3.org/2000/svg">
<g clip-path="url(#clip0_642_1028)">
<rect x="2" y="2" width="108" height="108" rx="8" fill="white"/>
<g clip-path="url(#clip1_642_1028)">
<path d="M20.2242 59.088L18.2502 57.2061C18.2502 57.2061 25.5871 51.1341 28.0963 53.807C28.0963 53.807 23.9199 54.6525 20.2208 59.088" fill="#003058"/>
<path d="M17.8479 56.8276L16 55.065C16 55.065 21.3629 50.5852 26.2041 52.6649C26.2041 52.6649 21.2299 53.4456 17.8513 56.8276" fill="#003058"/>
<path d="M31.0079 52.1125L32.9819 53.9945C32.9819 53.9945 25.645 60.0699 23.1323 57.3936C23.1323 57.3936 27.3088 56.5481 31.0079 52.1125Z" fill="#C72127"/>
<path d="M33.3808 54.3763L35.2287 56.139C35.2287 56.139 29.8658 60.6222 25.0245 58.5391C25.0245 58.5391 29.9988 57.7584 33.3774 54.3763" fill="#C72127"/>
<path d="M42.0643 55.3173C42.886 55.0446 42.9099 53.8547 42.9099 53.8547C42.9099 52.2319 40.9461 52.2557 40.9461 52.2557H36.8378V58.5187C36.9742 58.8494 37.4208 58.9448 37.4208 58.9448H40.7415C43.1485 58.9448 43.1383 57.0663 43.1383 57.0663C43.1383 55.5901 42.0643 55.3173 42.0643 55.3173ZM38.9823 53.9093H40.2847C40.2847 53.9093 40.7415 53.9093 40.7415 54.3422C40.7415 54.3422 40.7858 54.8502 40.2335 54.8502H38.9857V53.9058L38.9823 53.9093ZM40.4654 57.339H38.9823V56.2753H40.5131C40.5131 56.2753 41.0381 56.3776 41.0381 56.7663C41.0381 56.7663 41.0586 57.3356 40.4654 57.3356" fill="#003058"/>
<path d="M48.9137 58.471V55.3616C48.9137 53.7149 46.4726 53.9434 46.4726 53.9434C43.7554 53.9434 43.6872 55.6139 43.6872 55.6139H45.2384C45.3646 55.0548 46.3328 55.0855 46.3328 55.0855C47.1545 55.0855 47.042 55.5082 47.042 55.5082C47.042 56.0674 45.4328 56.0674 45.4328 56.0674C43.3088 56.2276 43.469 57.7243 43.469 57.7243C43.469 58.8426 44.3691 59.0608 44.3691 59.0608C46.2306 59.4835 47.1068 58.4675 47.1068 58.4675C47.2568 58.8562 48.0546 58.9414 48.0546 58.9414H49.299C48.9444 58.7983 48.9103 58.4675 48.9103 58.4675M46.1044 57.9868C46.1044 57.9868 45.5692 58.0312 45.5692 57.472C45.5692 57.472 45.518 56.8652 46.892 56.6606L46.9499 56.6708C46.9499 56.6708 47.0181 57.9868 46.1044 57.9868Z" fill="#003058"/>
<path d="M49.8035 58.9448V54.0593C49.8035 54.0593 51.5593 53.9229 51.5593 54.7684C51.5593 54.7684 52.0162 53.9911 53.1788 53.9911C53.1788 53.9911 55.1187 53.7627 55.1187 55.6139V58.9448H53.8879C53.8879 58.9448 53.2129 58.9278 53.2129 58.4471V55.9446C53.2129 55.9446 53.2469 55.1912 52.5617 55.1912C52.5617 55.1912 51.6991 55.2934 51.6991 56.0537V58.9448H49.8001H49.8035Z" fill="#003058"/>
<path d="M55.8074 58.9449V53.166C55.8074 53.166 55.9437 52.1603 56.7654 52.1603H57.7916V55.4298L59.0633 54.0354H61.385L59.5576 56.0128L61.6339 58.9449H59.8304C59.8304 58.9449 59.469 59.0199 59.0803 58.5119L58.2212 57.4311C58.2212 57.4311 57.7882 57.4891 57.7882 57.9118V58.9449H55.804H55.8074Z" fill="#003058"/>
<path d="M68.439 54.8809H66.5229C66.5229 54.8809 66.1104 53.7252 65.1081 53.7252C65.1081 53.7252 63.7852 53.6467 63.7852 55.6003C63.7852 55.6003 63.7273 57.5879 65.166 57.5879C65.166 57.5879 66.3422 57.4925 66.3422 56.3333H68.3947C68.3947 56.3333 68.6231 59.2687 65.2342 59.2687C65.2342 59.2687 61.6067 59.5653 61.6067 55.5901C61.6067 55.5901 61.5146 52.0444 64.9615 52.0444C64.9615 52.0444 68.4424 51.7921 68.4424 54.8775" fill="#003058"/>
<path d="M74.0507 58.471V55.3616C74.0507 53.7149 71.6096 53.9434 71.6096 53.9434C68.8924 53.9434 68.8242 55.6139 68.8242 55.6139H70.3755C70.5016 55.0548 71.4699 55.0855 71.4699 55.0855C72.2915 55.0855 72.179 55.5082 72.179 55.5082C72.179 56.0674 70.5698 56.0674 70.5698 56.0674C68.4458 56.2276 68.606 57.7243 68.606 57.7243C68.606 58.8426 69.5061 59.0608 69.5061 59.0608C71.3676 59.4835 72.2438 58.4675 72.2438 58.4675C72.3938 58.8562 73.1916 58.9414 73.1916 58.9414H74.436C74.0814 58.7983 74.0473 58.4675 74.0473 58.4675M71.2414 57.9868C71.2414 57.9868 70.7062 58.0312 70.7062 57.472C70.7062 57.472 70.655 56.8652 72.029 56.6606L72.087 56.6708C72.087 56.6708 72.1551 57.9868 71.2414 57.9868Z" fill="#003058"/>
<path d="M93.0305 58.471V55.3616C93.0305 53.7149 90.5894 53.9434 90.5894 53.9434C87.8721 53.9434 87.804 55.6139 87.804 55.6139H89.3552C89.4814 55.0548 90.4496 55.0855 90.4496 55.0855C91.2712 55.0855 91.1587 55.5082 91.1587 55.5082C91.1587 56.0674 89.5495 56.0674 89.5495 56.0674C87.4255 56.2276 87.5858 57.7243 87.5858 57.7243C87.5858 58.8426 88.4858 59.0608 88.4858 59.0608C90.3473 59.4835 91.2235 58.4675 91.2235 58.4675C91.3701 58.8562 92.1713 58.9414 92.1713 58.9414H93.4157C93.0612 58.7983 93.0271 58.4675 93.0271 58.4675M90.2212 57.9868C90.2212 57.9868 89.6859 58.0312 89.6859 57.472C89.6859 57.472 89.6348 56.8652 91.0087 56.6606L91.0667 56.6708C91.0667 56.6708 91.1349 57.9868 90.2212 57.9868Z" fill="#003058"/>
<path d="M80.5012 56.5038C80.5012 53.7252 78.3329 53.9434 78.3329 53.9434C76.9862 53.9434 76.7578 54.6968 76.7578 54.6968C76.6452 53.8956 74.9747 53.9434 74.9747 53.9434V60.0324C74.9747 60.5711 75.7384 60.6666 75.7384 60.6666H76.935V58.621C77.2589 59.2278 78.2783 59.1801 78.2783 59.1801C80.6512 59.1801 80.5046 56.5038 80.5046 56.5038M77.7158 57.6459C77.2589 57.6459 76.8873 57.1379 76.8873 56.514C76.8873 55.8901 77.2589 55.3821 77.7158 55.3821C78.1726 55.3821 78.5442 55.8901 78.5442 56.514C78.5442 57.1379 78.1726 57.6459 77.7158 57.6459Z" fill="#003058"/>
<path d="M81.2546 52H83.1264V53.3263H81.8035C81.8035 53.3263 81.2546 53.2581 81.2546 52.8558V52Z" fill="#003058"/>
<path d="M81.2546 58.3448V54.0354H83.1264V58.9448H81.9161C81.9161 58.9448 81.2546 58.8937 81.2546 58.3448Z" fill="#003058"/>
<path d="M86.3004 52.4739V54.0354H87.1664V55.1332H86.3004V57.155C86.3004 57.155 86.2766 57.7277 87.1664 57.7277V58.9449H85.1447C84.5378 58.7948 84.4764 58.2766 84.473 58.1164V58.0755V55.1332H83.6616V54.0354H84.473V53.1899C84.473 53.1899 84.4833 52.4739 85.3902 52.4739H86.297H86.3004Z" fill="#003058"/>
<path d="M94.9022 52.1398H95.9966V58.2459C95.9966 58.2459 96.0409 58.9483 95.2772 58.9483H94.0567V52.9819C94.0567 52.9819 94.0499 52.208 94.9022 52.1364" fill="#003058"/>
</g>
</g>
<rect x="1" y="1" width="110" height="110" rx="9" stroke="#CCCCCC" stroke-width="2"/>
<defs>
<clipPath id="clip0_642_1028">
<rect x="2" y="2" width="108" height="108" rx="8" fill="white"/>
</clipPath>
<clipPath id="clip1_642_1028">
<rect width="80" height="8.66652" fill="white" transform="translate(16 52)"/>
</clipPath>
</defs>
</svg>
