<svg width="112" height="112" viewBox="0 0 112 112" fill="none" xmlns="http://www.w3.org/2000/svg">
<g clip-path="url(#clip0_642_1038)">
<rect x="2" y="2" width="108" height="108" rx="8" fill="white"/>
<path fill-rule="evenodd" clip-rule="evenodd" d="M16 56.4021H61.838L78.646 59.089L95.7192 56.4021V76.7862H16V56.4021Z" fill="#007CC5"/>
<path fill-rule="evenodd" clip-rule="evenodd" d="M30.2498 61.5225C30.1952 61.5225 28.5144 61.5225 28.5144 61.5225V65.6094H29.9495V62.7002C30.0236 62.669 30.1562 62.6456 30.2693 62.6456C30.5345 62.6456 30.6905 62.7977 30.6905 63.0551V65.6094H32.1295V62.8874C32.1295 62.0061 31.5796 61.5264 30.2537 61.5264L30.2498 61.5225ZM35.1362 61.6161L34.2588 63.2813H34.2432V60.1693H32.8236V65.6094H34.2432V63.6401H34.2588L35.2649 65.6094H36.8482L35.7017 63.4607L36.7468 61.6161H35.1362ZM22.9728 62.7275V62.708C23.4018 62.5715 23.7372 62.2088 23.7372 61.6824C23.7372 60.801 23.1093 60.1498 21.5923 60.1498H19.8218V65.5977H21.5923C23.1093 65.5977 23.8347 65.005 23.8347 64.0027C23.8347 63.3437 23.3784 62.8874 22.9767 62.7236L22.9728 62.7275ZM21.2179 61.2846C21.3076 61.2573 21.448 61.2495 21.5806 61.2495C22.1577 61.2495 22.3293 61.4796 22.3293 61.8462C22.3293 62.0411 22.2708 62.1893 22.1811 62.2751C22.1149 62.3414 21.9433 62.4077 21.7444 62.4077H21.2179V61.2846ZM21.5806 64.5019C21.448 64.5019 21.2998 64.4785 21.2179 64.4629V63.3242H21.7444C21.9745 63.3242 22.1148 63.3827 22.2123 63.4724C22.3098 63.5621 22.3683 63.722 22.3683 63.8974C22.3683 64.3342 22.146 64.498 21.5806 64.498V64.5019ZM56.39 61.5381C56.2847 61.5069 56.1092 61.4796 55.9688 61.4796C54.717 61.4796 54.0813 62.2712 54.0813 63.5075C54.0813 64.8685 54.8067 65.5977 56.1482 65.6094H57.829V60.1693H56.39V61.542V61.5381ZM56.39 64.4629C56.3393 64.4863 56.2418 64.4941 56.1482 64.4941C55.7387 64.4941 55.5203 64.1743 55.5203 63.4958C55.5203 62.9186 55.7348 62.5364 56.1326 62.5364C56.234 62.5364 56.3471 62.5598 56.39 62.5832V64.4629ZM51.6985 61.5186H49.9592V65.6055H51.3983V62.6963C51.4685 62.6651 51.605 62.6417 51.7141 62.6417C51.9793 62.6417 52.1353 62.7938 52.1353 63.0512V65.6055H53.5704V62.8835C53.5704 62.0022 53.0206 61.5186 51.6985 61.5186ZM58.5232 65.6055H59.9583V61.5147H58.5232V65.6055ZM58.5232 60.996H59.9583V60.1459H58.5232V60.996ZM40.6466 61.5186C39.426 61.5186 38.7162 62.4077 38.7162 63.6089C38.7162 64.81 39.426 65.703 40.6466 65.703C41.8672 65.703 42.577 64.8061 42.577 63.6089C42.577 62.4116 41.8672 61.5186 40.6466 61.5186ZM40.6466 64.5565C40.3307 64.5565 40.1513 64.2601 40.1513 63.5933C40.1513 62.9264 40.3307 62.63 40.6466 62.63C40.9625 62.63 41.1419 62.9264 41.1419 63.5933C41.1419 64.2601 40.9625 64.5565 40.6466 64.5565ZM43.3491 61.9866H42.9241V63.0512H43.3491V65.6055H44.7569V63.0512H45.4082V61.9866H44.7569V61.6395C44.7569 61.3509 44.9792 61.2456 45.2756 61.2456C45.3419 61.2456 45.4082 61.2534 45.4823 61.2612V60.1654C45.3575 60.142 45.1508 60.1264 44.9948 60.1264C44.016 60.1264 43.3491 60.5865 43.3491 61.6356V61.9866ZM47.9314 65.6055H49.4133V60.181H47.9314V65.6055ZM25.9288 61.5186H24.6848V62.5325H26.077C26.2993 62.5442 26.4319 62.669 26.4553 62.8757V62.8835C25.2581 62.9576 24.2207 63.2228 24.2207 64.2523C24.2207 65.1337 24.8642 65.6055 26.1784 65.6055H27.8007V62.8835C27.8007 62.0022 27.2548 61.5186 25.9288 61.5186ZM26.4553 64.5916C26.3968 64.615 26.2603 64.6228 26.1355 64.6228C25.7962 64.6228 25.5506 64.4863 25.5506 64.2133C25.5506 63.8623 25.8742 63.7844 26.4553 63.761V64.5916ZM60.9488 61.5186V62.5325H62.3449C62.5633 62.5442 62.6998 62.669 62.7232 62.8757V62.8835C61.5221 62.9576 60.4886 63.2228 60.4886 64.2523C60.4886 65.1337 61.1321 65.6055 62.4502 65.6055H64.0725V62.8835C64.0725 62.0022 63.5266 61.5186 62.2006 61.5186H60.9488ZM62.7193 64.5916C62.6569 64.615 62.5243 64.6228 62.3995 64.6228C62.0564 64.6228 61.8146 64.4863 61.8146 64.2133C61.8146 63.8623 62.1421 63.7844 62.7193 63.761V64.5916ZM28.452 71.3304C27.7578 71.4279 27.6213 71.0106 27.633 70.3828C27.6447 69.8173 27.8358 69.4312 28.4403 69.5287L28.4637 69.8095V70.4452L28.452 71.3304ZM28.4676 68.4836C27.6057 68.4017 27.0247 68.5499 26.6191 69.049C26.2603 69.4936 26.1043 70.3594 26.2837 71.112C26.662 72.6875 28.1985 72.5159 29.852 72.477L29.8754 67.1577H28.4754L28.4676 68.4875V68.4836ZM35.0387 72.4497L36.4465 72.4886L36.4543 70.3204C36.4543 70.18 36.4153 69.6964 36.5401 69.6067C36.7702 69.5326 36.9613 69.5404 37.1212 69.7471C37.324 70.2307 37.0627 71.8413 37.2148 72.4925L38.5758 72.5004C38.646 72.0324 38.5953 71.1432 38.5953 70.6363C38.5953 70.0357 38.6733 69.4195 38.3535 69.0061C37.7802 68.2652 35.3936 68.4095 35.0426 68.507V72.4497H35.0387ZM21.9823 72.473H23.3667L23.3745 69.9304C23.3862 69.5053 23.5071 69.5443 23.9516 69.6379C24.1661 69.7237 24.1115 70.0045 24.1349 70.2658L24.1427 72.4809H25.4843C25.5467 71.9466 25.5077 71.1978 25.5077 70.6441C25.5077 68.5889 25.3595 68.4407 22.0057 68.5031L21.9862 72.477L21.9823 72.473ZM32.3479 69.6106C33.0693 69.3337 33.1317 71.1822 32.6247 71.385C31.8175 71.7126 31.7902 69.8212 32.3479 69.6106ZM32.0632 68.507C34.8593 68.0234 35.0777 72.1299 32.9016 72.5393C30.1055 73.0697 29.7818 68.9009 32.0632 68.507ZM51.176 70.7182V71.4396C50.045 71.7672 50.0528 70.453 51.176 70.7182ZM49.4523 69.4507C50.3999 69.4702 51.02 69.2947 51.1565 69.751C50.7431 69.9733 50.0567 69.8407 49.4991 70.2073C49.0779 70.4842 48.8283 71.0496 49.0896 71.6697C49.2924 72.1494 49.7877 72.3717 50.3999 72.4497C50.7938 72.5004 52.1353 72.5198 52.5019 72.4497C52.7437 68.4095 52.4785 68.4212 49.464 68.4641L49.4523 69.4468V69.4507ZM40.5881 70.2619C40.5881 70.0123 40.5179 69.6379 40.7285 69.4975C41.329 69.088 42.2065 70.2775 40.5881 70.2619ZM42.7798 72.4458L42.7876 71.502C41.8672 71.463 40.904 71.6307 40.6427 71.2134C40.8182 71.1003 41.1458 71.1198 41.446 71.0535C42.2494 70.878 43.0332 70.4491 42.7369 69.3922C42.4717 68.4485 40.787 68.2223 39.8744 68.7098C39.3675 68.9828 39.2817 69.3727 39.2817 70.0708C39.2817 70.6558 39.1842 71.4123 39.4533 71.8569C39.6833 72.2352 40.1747 72.4263 40.7909 72.4613C41.1575 72.4847 42.4912 72.5159 42.7837 72.4497L42.7798 72.4458ZM44.8739 71.3577C44.9441 71.0457 44.7101 71.0223 44.3514 70.8897C42.9241 70.3711 42.577 68.0429 46.3091 68.4875L46.2974 69.478C45.845 69.5287 44.9168 69.3415 44.7725 69.6223C44.6595 69.9382 44.9714 69.907 45.3224 70.0435C46.0127 70.3126 46.5781 70.8663 46.2311 71.7087C45.8489 72.6407 44.5815 72.5121 43.3842 72.4653L43.4037 71.4201C43.8795 71.3967 44.4645 71.4747 44.8739 71.3577ZM19.8218 72.4692H21.2647L21.2725 67.1772L19.8296 67.1538L19.8218 72.4692ZM46.9018 72.4613L48.3096 72.473V68.468L46.933 68.4563L46.9018 72.4613ZM46.9018 67.9376L48.2979 67.9454L48.3096 67.1343L46.9174 67.1148L46.9018 67.9376Z" fill="white"/>
<path fill-rule="evenodd" clip-rule="evenodd" d="M78.646 67.0719L67.672 76.7745L73.8142 63.5075L61.2998 56.2773L75.6003 57.8138L78.6499 35.0001L81.6956 57.8099L96 56.2734L83.4817 63.5036L89.6239 76.7706L78.6499 67.068L78.646 67.0719Z" fill="#191917"/>
<path fill-rule="evenodd" clip-rule="evenodd" d="M78.646 66.7911L68.2843 75.9556L74.0833 63.4217L62.2591 56.5932L75.7797 58.04L78.646 36.5834L81.5123 58.04L95.0368 56.5893L83.2126 63.4217L89.0116 75.9556L78.646 66.7911Z" fill="#E3300C"/>
<path fill-rule="evenodd" clip-rule="evenodd" d="M81.5162 58.04H75.7836L74.095 63.4295L78.6499 66.795L83.2165 63.4256L81.5201 58.0439L81.5162 58.04Z" fill="#0073BD"/>
<path d="M78.646 65.6445C80.6878 65.6445 82.343 63.9893 82.343 61.9476C82.343 59.9058 80.6878 58.2506 78.646 58.2506C76.6042 58.2506 74.949 59.9058 74.949 61.9476C74.949 63.9893 76.6042 65.6445 78.646 65.6445Z" fill="#191917"/>
<path fill-rule="evenodd" clip-rule="evenodd" d="M78.646 65.4301C76.7234 65.4301 75.1596 63.8662 75.1596 61.9437C75.1596 60.0211 76.7234 58.4573 78.646 58.4573C80.5686 58.4573 82.1324 60.025 82.1324 61.9437C82.1324 63.8623 80.5686 65.4301 78.646 65.4301Z" fill="white"/>
<path fill-rule="evenodd" clip-rule="evenodd" d="M78.5173 59.5492C78.5173 59.5492 78.5095 59.557 78.5095 59.5648C78.5095 59.5765 78.5134 59.5843 78.5251 59.5882C78.49 59.5882 78.4744 59.5687 78.4744 59.5687C78.4744 59.5687 78.4861 59.5531 78.5212 59.5492H78.5173ZM78.5524 59.5492C78.5524 59.5492 78.5719 59.5531 78.5836 59.5609C78.5836 59.5609 78.5719 59.5804 78.5446 59.5843C78.5485 59.5804 78.5602 59.5726 78.5602 59.5609C78.5602 59.557 78.5563 59.5492 78.5524 59.5453V59.5492ZM78.4744 59.596C78.4744 59.596 78.5095 59.6077 78.5329 59.6077C78.5992 59.6077 78.6187 59.5609 78.6265 59.557C78.6265 59.5102 78.5953 59.4673 78.5524 59.4634C78.5329 59.4595 78.5056 59.4673 78.4939 59.4751C78.4744 59.4829 78.4627 59.5024 78.4549 59.518C78.4783 59.5141 78.5017 59.4829 78.5563 59.4946C78.5836 59.4985 78.6148 59.5375 78.5953 59.5414C78.5797 59.5297 78.5758 59.5258 78.5641 59.5219C78.5173 59.5024 78.4744 59.5375 78.451 59.557C78.4471 59.557 78.4393 59.5531 78.4354 59.5531C78.4432 59.5726 78.451 59.5804 78.4705 59.596H78.4744ZM78.7591 59.5492C78.7591 59.5492 78.7552 59.557 78.7552 59.5648C78.7552 59.5765 78.7591 59.5843 78.7708 59.5882C78.7396 59.5843 78.7201 59.5687 78.7201 59.5687C78.7201 59.5687 78.7357 59.5531 78.763 59.5492H78.7591ZM78.7981 59.5492H78.802C78.802 59.5492 78.8215 59.5531 78.8215 59.557C78.8254 59.5609 78.8254 59.5609 78.8293 59.5609C78.8293 59.5609 78.8176 59.5804 78.7903 59.5882C78.7942 59.5843 78.802 59.5765 78.802 59.5648C78.802 59.5609 78.802 59.5531 78.7981 59.5492ZM78.6226 59.7325C78.6109 59.6935 78.6538 59.7169 78.6694 59.713C78.6811 59.713 78.6928 59.6974 78.6928 59.6818C78.6928 59.6623 78.6772 59.6545 78.6772 59.6389C78.6772 59.6038 78.6772 59.518 78.6928 59.4985C78.7162 59.4712 78.7942 59.4478 78.8293 59.479C78.8371 59.4868 78.8449 59.4985 78.8527 59.5141C78.8215 59.4751 78.7045 59.4829 78.7162 59.5453C78.7162 59.5453 78.7435 59.5258 78.7747 59.5258C78.8098 59.5219 78.8293 59.5258 78.8566 59.5492C78.8644 59.557 78.8683 59.5453 78.8761 59.5453C78.8761 59.5453 78.8761 59.557 78.8722 59.5609L78.8683 59.5648C78.8605 59.5726 78.8488 59.5726 78.8449 59.5804C78.7981 59.6272 78.724 59.5882 78.724 59.5843C78.7162 59.5999 78.7123 59.6116 78.7123 59.6311C78.7123 59.6662 78.7591 59.7208 78.7162 59.7403C78.6928 59.752 78.6694 59.7364 78.6421 59.7364C78.6343 59.7364 78.6265 59.7403 78.6226 59.7364V59.7325ZM80.2488 64.186C80.2059 64.1665 80.202 64.1275 80.1747 64.1041C80.1708 64.1041 80.1552 64.0885 80.1474 64.0846C80.1396 64.0807 80.1279 64.0729 80.1201 64.069C80.085 64.0534 80.046 64.0456 80.0109 64.0378C79.9953 64.0339 79.9836 64.0339 79.9719 64.0339C79.9563 64.03 79.9407 64.0183 79.9251 64.0105C79.8705 63.9988 79.8081 64.0066 79.7535 63.9988C79.6638 63.9949 79.5858 63.9793 79.5039 63.9715C79.465 63.9676 79.4221 63.9598 79.387 63.9481C79.3753 63.9442 79.3636 63.9364 79.3519 63.9325C79.3168 63.9247 79.2934 63.9286 79.27 63.9364C79.2583 63.9403 79.2466 63.952 79.2388 63.952C79.2232 63.952 79.2115 63.9247 79.1881 63.9325C79.1764 63.9442 79.1686 63.9637 79.1764 63.9754C79.1803 63.9793 79.2037 64.0027 79.2076 64.0027C79.2349 64.0144 79.2505 63.9988 79.27 63.9949C79.3363 63.9754 79.4104 64.0105 79.4688 64.0183C79.6209 64.0417 79.8198 64.0339 79.9524 64.0768C79.9797 64.0807 80.0031 64.0885 80.0265 64.0963C80.0889 64.1197 80.1318 64.1587 80.1825 64.186C80.2137 64.225 80.241 64.2523 80.2956 64.264C80.3229 64.2718 80.3619 64.2718 80.3619 64.2367C80.3619 64.1938 80.2878 64.2016 80.2527 64.186H80.2488ZM81.177 63.9988C81.177 63.9988 81.2082 64.0339 81.2082 64.0534C81.2082 64.0573 81.1964 64.069 81.1887 64.069C81.1614 64.069 81.1653 64.0066 81.1263 64.0105C81.1224 64.0105 81.1146 64.0105 81.1107 64.0222C81.099 64.0573 81.1731 64.069 81.1536 64.1236C81.1458 64.147 81.1185 64.1509 81.0873 64.1509C81.0873 64.1392 81.099 64.1353 81.099 64.1236C81.099 64.0885 81.0483 64.0534 81.021 64.0846C81.021 64.1119 81.0561 64.1275 81.0444 64.1587C81.0288 64.1782 80.9859 64.1782 80.9703 64.1587C80.9742 64.1587 80.9898 64.1626 80.9976 64.1587C81.0054 64.1587 81.0093 64.1509 81.0093 64.1431C81.0132 64.1275 80.9976 64.1236 80.982 64.1158C80.9703 64.1041 80.9586 64.0963 80.9508 64.0885C80.9547 64.0261 80.9001 64.0144 80.8377 64.0105C80.7363 64.0027 80.6193 63.991 80.5257 63.9832C80.5296 63.9364 80.4867 63.9286 80.4477 63.9208C80.3931 63.9091 80.3424 63.9052 80.2878 63.8935C80.2644 63.8896 80.2254 63.8779 80.2254 63.8584C80.2254 63.835 80.2566 63.8233 80.2722 63.8116C80.3268 63.7727 80.3775 63.7337 80.4243 63.6947C80.5335 63.7142 80.6037 63.7571 80.6895 63.8078C80.7129 63.8195 80.7363 63.8272 80.7558 63.8389C80.7792 63.8545 80.8026 63.8623 80.826 63.8701C80.9352 63.9013 81.0912 63.8701 81.1692 63.9247C81.1964 63.9442 81.2237 63.9676 81.2237 64.0066C81.2042 64.0066 81.2043 63.9598 81.1809 63.9559C81.1692 63.9559 81.1575 63.9676 81.1575 63.9754C81.1575 63.9871 81.1731 63.9949 81.1848 64.0027L81.177 63.9988ZM80.8884 64.108C80.8884 64.108 80.904 64.1158 80.9079 64.1158C80.9079 64.108 80.9079 64.0924 80.904 64.0885C80.8767 64.0456 80.7558 64.0417 80.6856 64.0456C80.6466 64.0456 80.6037 64.0417 80.5764 64.0573C80.6115 64.0651 80.6544 64.069 80.6934 64.0768C80.7363 64.0807 80.7753 64.0924 80.8143 64.0963C80.8416 64.0963 80.865 64.0963 80.8884 64.108ZM80.5452 64.1158C80.5569 64.1509 80.5881 64.1587 80.5803 64.2094C80.5686 64.225 80.5569 64.2406 80.5413 64.2523C80.5452 64.2328 80.5413 64.2094 80.5257 64.1977C80.5179 64.1977 80.5218 64.2133 80.514 64.2133C80.4984 64.2094 80.5023 64.1899 80.4789 64.1899C80.475 64.2133 80.4945 64.2211 80.4984 64.2406C80.5023 64.2913 80.4672 64.3147 80.4243 64.3108C80.4282 64.2874 80.4594 64.2952 80.4672 64.2796C80.4711 64.2562 80.4477 64.2406 80.436 64.2289C80.4243 64.2289 80.436 64.2406 80.4204 64.2445C80.4048 64.2406 80.3931 64.2094 80.3697 64.2211C80.3814 64.2367 80.397 64.2601 80.3814 64.2796C80.3619 64.2913 80.3385 64.2952 80.3112 64.2952C80.2722 64.2952 80.2332 64.2835 80.2137 64.2601C80.202 64.2445 80.1942 64.225 80.1825 64.2133C80.1669 64.1977 80.1435 64.1977 80.1279 64.1821C80.1162 64.1782 80.1123 64.1626 80.1045 64.1548C80.0889 64.1431 80.0655 64.1353 80.0421 64.1236C79.9875 64.0963 79.9017 64.0768 79.8354 64.069C79.7145 64.0573 79.5819 64.0612 79.465 64.0378C79.4221 64.03 79.3792 64.0183 79.3402 64.0144C79.2973 64.0105 79.2544 64.0261 79.2154 64.0183C79.1803 64.0144 79.1608 63.9871 79.1491 63.9559C79.1374 63.8701 79.1218 63.7844 79.0828 63.722C79.0711 63.6947 79.0672 63.6596 79.075 63.6089C79.075 63.5816 79.0906 63.5465 79.0945 63.5114C79.0984 63.4763 79.0984 63.4373 79.1062 63.4022C79.114 63.3398 79.1374 63.2852 79.1647 63.254C79.1803 63.2579 79.192 63.2813 79.2037 63.293C79.2349 63.3125 79.27 63.3203 79.2973 63.3476C79.309 63.3554 79.3207 63.371 79.3285 63.3827C79.3636 63.4451 79.3519 63.5387 79.3792 63.6128C79.3831 63.6245 79.3948 63.6323 79.3909 63.644C79.3519 63.6479 79.3012 63.6479 79.2778 63.6752C79.2973 63.7064 79.3402 63.6791 79.3792 63.6791C79.4182 63.6791 79.4611 63.6908 79.4883 63.7103C79.5079 63.7259 79.5273 63.7571 79.5546 63.7649C79.5936 63.7805 79.656 63.7843 79.7067 63.7882C79.7652 63.7922 79.8237 63.8 79.8705 63.8078C79.9485 63.8233 80.0187 63.8545 80.0889 63.8818C80.1006 63.8857 80.1123 63.8935 80.124 63.8974C80.1357 63.9013 80.1435 63.913 80.1513 63.9169C80.1747 63.9325 80.2059 63.9325 80.2371 63.9364C80.2683 63.9403 80.2917 63.952 80.319 63.9598C80.3424 63.9715 80.3736 63.9793 80.4009 63.9949C80.4126 63.9988 80.4204 64.0105 80.4321 64.0144C80.4516 64.0183 80.4711 64.0144 80.4867 64.0183C80.5023 64.0222 80.5257 64.0339 80.5413 64.0456C80.5764 64.0651 80.6037 64.0924 80.6037 64.1392C80.5881 64.1275 80.5842 64.0885 80.553 64.108L80.5452 64.1158ZM79.3246 64.2406C79.2856 64.2172 79.2466 64.186 79.1998 64.1743C79.1842 64.1704 79.1686 64.1665 79.153 64.1704C79.1491 64.1899 79.1764 64.186 79.1959 64.1899C79.2349 64.1938 79.2622 64.2133 79.2895 64.2289C79.3012 64.2406 79.3246 64.2523 79.3168 64.2679C79.3012 64.2952 79.2505 64.2484 79.2505 64.2367C79.2349 64.2328 79.231 64.2172 79.2154 64.2133C79.2037 64.2094 79.1881 64.2133 79.1764 64.2094C79.1608 64.2094 79.1491 64.2016 79.1374 64.1977C79.1335 64.2406 79.1998 64.2211 79.2193 64.2406C79.2232 64.2445 79.2154 64.2523 79.2154 64.2601C79.2232 64.2679 79.231 64.2718 79.2349 64.2757C79.2349 64.2757 79.231 64.2679 79.2349 64.2601C79.2817 64.2484 79.2856 64.303 79.2466 64.3147C79.2076 64.3264 79.1803 64.2952 79.153 64.2874C79.1062 64.2796 79.0672 64.2913 79.0321 64.2835C78.997 64.2757 78.9853 64.2523 78.9619 64.2328C78.9346 64.2055 78.9034 64.2055 78.8683 64.1938C78.8878 64.1587 78.8956 64.1197 78.9268 64.0924C78.9424 64.0768 79.0165 64.0417 79.0516 64.0651C79.0711 64.0729 79.1023 64.0807 79.1179 64.0885C79.1296 64.0924 79.1413 64.1041 79.1491 64.1119C79.1608 64.1236 79.1686 64.1392 79.1803 64.1431C79.2076 64.1509 79.2505 64.1587 79.2817 64.1704C79.2895 64.1704 79.3051 64.1743 79.3051 64.186C79.3051 64.1899 79.3051 64.2016 79.2934 64.2016C79.2856 64.2016 79.2817 64.1899 79.2739 64.186C79.2505 64.1704 79.2037 64.1704 79.1764 64.1587C79.1803 64.1626 79.192 64.1665 79.1959 64.1704C79.2427 64.1821 79.2817 64.2016 79.3168 64.2211C79.3285 64.225 79.348 64.2406 79.3324 64.2484L79.3246 64.2406ZM78.8098 63.9091C78.8137 63.6947 78.8215 63.4724 78.8293 63.254C78.8293 63.254 78.8293 63.254 78.8332 63.2501V63.254C78.841 63.2618 78.841 63.2774 78.841 63.2891C78.8527 63.3749 78.8644 63.4724 78.8761 63.5621C78.8917 63.6635 78.919 63.761 78.9229 63.8662C78.8995 63.8779 78.8722 63.8857 78.8488 63.8935C78.8332 63.8974 78.8254 63.913 78.8059 63.913L78.8098 63.9091ZM79.0087 63.7999C78.997 63.7181 78.9658 63.6401 78.9541 63.5504C78.9385 63.4685 78.9268 63.3749 78.919 63.2774C78.9112 63.1448 78.8995 62.9927 78.8956 62.8484C78.8956 62.8094 78.9034 62.7236 78.8761 62.7119C78.8566 62.708 78.8449 62.7119 78.8332 62.7158C78.8254 62.8991 78.841 63.098 78.8605 63.2852C78.88 63.4685 78.9151 63.6518 78.9502 63.8116C78.9697 63.8116 78.9892 63.8116 79.0048 63.7999H79.0087ZM78.958 63.2228C78.9736 63.3359 78.9775 63.449 79.0087 63.5426C79.0165 63.4568 79.0243 63.3749 79.0321 63.2969C79.0633 62.9966 79.1101 62.7665 79.0984 62.4389C79.0984 62.4584 79.0789 62.4857 79.075 62.5091C79.0633 62.5247 79.0516 62.5325 79.036 62.5481C79.0204 62.5598 79.0048 62.5676 78.9931 62.5793C78.9697 62.6066 78.9658 62.6417 78.9619 62.6807C78.9619 62.7002 78.9619 62.7236 78.958 62.7431C78.9502 62.8991 78.9463 63.0746 78.9619 63.2267L78.958 63.2228ZM78.7279 62.669C78.7045 62.6963 78.6772 62.7275 78.6538 62.7548C78.6421 62.7704 78.6304 62.786 78.6148 62.7977C78.6967 62.5676 78.7981 62.3492 78.8683 62.1074C78.9034 61.9866 78.9385 61.8657 78.9697 61.737C79.0048 61.6044 79.0204 61.4679 79.0243 61.3119C79.0243 61.3119 79.0243 61.308 79.0282 61.308C79.0555 61.3236 79.0633 61.3509 79.0672 61.3782C79.0984 61.4601 79.114 61.5537 79.1335 61.6473C79.1452 61.7097 79.153 61.776 79.1569 61.8423C79.1569 61.8735 79.1647 61.9086 79.1647 61.9437C79.1647 61.9788 79.1686 62.0217 79.1647 62.049C79.1608 62.0879 79.1296 62.1269 79.1101 62.162C79.0906 62.201 79.0672 62.2322 79.0477 62.2634C79.0087 62.3297 78.958 62.3921 78.9112 62.4506C78.8488 62.5247 78.7903 62.6027 78.7279 62.6729V62.669ZM78.7786 62.8796C78.7825 63.059 78.7669 63.2306 78.763 63.4061C78.7591 63.6128 78.7396 63.8155 78.7318 64.0066C78.6928 64.0027 78.6538 63.9832 78.6109 63.9754C78.5641 63.9676 78.5173 63.9676 78.4744 63.9637C78.5407 63.7376 78.6226 63.5075 78.6694 63.2579C78.7006 63.1097 78.7318 62.9615 78.763 62.8094C78.763 62.8094 78.763 62.8055 78.7669 62.8055C78.7786 62.8016 78.7747 62.8601 78.7747 62.8757L78.7786 62.8796ZM78.4549 64.1236C78.4705 64.0846 78.4861 64.0534 78.5017 64.0105H78.5056C78.4939 64.0495 78.4783 64.0924 78.4627 64.1275C78.4588 64.1275 78.4588 64.1236 78.451 64.1275L78.4549 64.1236ZM78.6499 64.225C78.6343 64.264 78.6382 64.303 78.5992 64.3264C78.5914 64.3303 78.5797 64.3264 78.5758 64.3303C78.5407 64.3537 78.5446 64.4434 78.4822 64.4044C78.4666 64.3693 78.5095 64.3615 78.5251 64.381C78.5251 64.3615 78.5017 64.3576 78.4822 64.3576C78.4861 64.3186 78.5134 64.303 78.5368 64.2835C78.5368 64.2718 78.5368 64.2679 78.5368 64.264C78.5173 64.2484 78.5017 64.2679 78.5056 64.2913C78.5017 64.303 78.4783 64.3186 78.4666 64.3342C78.4549 64.3537 78.4549 64.3771 78.4315 64.3537C78.4276 64.2991 78.4744 64.2991 78.4822 64.2601C78.4822 64.2562 78.4783 64.2562 78.4783 64.2484C78.4432 64.2445 78.4549 64.2913 78.4276 64.2952C78.4159 64.3186 78.412 64.3459 78.3964 64.3654C78.3925 64.3693 78.3847 64.3654 78.3769 64.3615C78.3808 64.3576 78.373 64.3498 78.3769 64.3459C78.3769 64.342 78.3847 64.342 78.3886 64.3342C78.3691 64.2991 78.4003 64.264 78.4198 64.2484C78.4003 64.2133 78.373 64.2796 78.3652 64.2952C78.3613 64.3108 78.3652 64.3264 78.3535 64.3264C78.3379 64.3264 78.3535 64.2718 78.3574 64.2601C78.3652 64.2406 78.3808 64.2367 78.3847 64.2211C78.373 64.2211 78.3574 64.2328 78.3496 64.2445C78.3457 64.2484 78.3418 64.264 78.334 64.264C78.3145 64.264 78.334 64.2367 78.334 64.2328C78.3496 64.2133 78.3574 64.2055 78.3847 64.2016C78.3964 64.1938 78.4003 64.1782 78.412 64.1704C78.4354 64.1548 78.5017 64.1626 78.5329 64.1665C78.5563 64.1665 78.5797 64.1704 78.5992 64.1782C78.6226 64.1782 78.646 64.1782 78.6577 64.1938C78.6577 64.2094 78.646 64.2133 78.6421 64.2211L78.6499 64.225ZM78.4159 64.3849C78.4003 64.42 78.4627 64.4161 78.451 64.381C78.4471 64.3732 78.4237 64.3732 78.4276 64.3888C78.4237 64.3888 78.4198 64.3849 78.4159 64.3849ZM78.2365 64.225C78.2716 64.225 78.3106 64.2289 78.3301 64.2211C78.3418 64.2055 78.3574 64.2016 78.373 64.186C78.3574 64.1743 78.3418 64.1665 78.3301 64.1548C78.3223 64.1509 78.3145 64.1431 78.3067 64.1392C78.2911 64.1236 78.2833 64.1119 78.2716 64.1002C78.2521 64.0846 78.2287 64.0729 78.2131 64.0573C78.2053 64.0417 78.2014 64.03 78.1897 64.0183C78.1117 64.0105 78.022 63.991 77.9362 63.9949C77.9557 64.0768 77.9752 64.1509 77.9947 64.2289C78.0688 64.2211 78.1468 64.2172 78.2287 64.2172L78.2365 64.225ZM78.022 64.3186C78.022 64.3186 78.0181 64.3069 78.0181 64.303C78.0259 64.2991 78.0376 64.2952 78.0454 64.2913C78.1156 64.2757 78.2053 64.2679 78.2872 64.264C78.2911 64.264 78.3106 64.2601 78.3106 64.2679C78.2209 64.2913 78.1156 64.2991 78.022 64.3147V64.3186ZM77.9011 64.3537C77.8543 64.3693 77.788 64.381 77.7295 64.3849C77.6984 64.3849 77.675 64.3849 77.6438 64.3849C77.597 64.381 77.5619 64.3771 77.5307 64.3615C77.5112 64.3498 77.4995 64.342 77.4839 64.3303C77.4644 64.3108 77.4488 64.2874 77.4566 64.2445L77.4605 64.2406C77.4605 64.2328 77.4605 64.225 77.4605 64.2211C77.4644 64.2133 77.4761 64.2016 77.4761 64.1899C77.4722 64.1743 77.4644 64.1587 77.4527 64.147C77.4254 64.147 77.4098 64.1548 77.3942 64.1743C77.3903 64.1782 77.3903 64.1782 77.3903 64.186C77.3903 64.186 77.3747 64.2016 77.3708 64.2016C77.3669 64.2055 77.3474 64.2094 77.3396 64.2094C77.3201 64.2094 77.2967 64.2055 77.285 64.1977C77.2421 64.1782 77.2187 64.1431 77.1953 64.108C77.1914 64.0807 77.1797 64.0651 77.1836 64.0339C77.1836 64.0144 77.1875 63.9871 77.1992 63.9715C77.2031 63.9598 77.2304 63.9325 77.2187 63.9052C77.2148 63.8935 77.1992 63.8935 77.1914 63.8857C77.1836 63.8779 77.1875 63.8662 77.1758 63.8584C77.1602 63.8545 77.1485 63.8584 77.1407 63.8701C77.1251 63.8935 77.1173 63.9403 77.1095 63.9598C77.1095 64.0027 77.1095 64.0534 77.1173 64.0924C77.1212 64.1197 77.1407 64.1314 77.1446 64.1587C77.1641 64.1821 77.1836 64.2094 77.207 64.2289C77.207 64.2289 77.2109 64.2289 77.2109 64.2328C77.2265 64.2562 77.2772 64.2757 77.2889 64.2991C77.3123 64.3108 77.3318 64.3186 77.3552 64.3303C77.3747 64.3576 77.4215 64.3537 77.4449 64.3771C77.4683 64.381 77.4956 64.3966 77.5151 64.4083C77.6048 64.4395 77.6789 64.4824 77.7607 64.5097C77.7958 64.5292 77.827 64.5487 77.8582 64.5643C77.8738 64.5838 77.8933 64.5994 77.905 64.615C77.8855 64.6111 77.8738 64.5838 77.8504 64.5955C77.8543 64.615 77.8699 64.6306 77.8855 64.6384C77.8855 64.6423 77.8855 64.6423 77.8855 64.6501C77.8933 64.6462 77.8972 64.6618 77.905 64.6657C77.8894 64.6696 77.8777 64.6423 77.8621 64.6384C77.8582 64.6267 77.8465 64.615 77.8348 64.615C77.8309 64.6228 77.8426 64.6267 77.8387 64.6384C77.8349 64.6345 77.827 64.6267 77.8231 64.6189C77.8075 64.6345 77.8349 64.6462 77.8387 64.6579C77.827 64.654 77.8192 64.6384 77.8036 64.6306C77.7958 64.6345 77.8036 64.6462 77.8036 64.654C77.7958 64.654 77.7958 64.6384 77.788 64.6423C77.7802 64.654 77.788 64.6657 77.7919 64.6774C77.7958 64.6891 77.8036 64.7008 77.8075 64.7125C77.8153 64.7593 77.7919 64.8178 77.8153 64.8607C77.7841 64.8295 77.8036 64.7632 77.7997 64.7242C77.7958 64.7008 77.7802 64.6657 77.7685 64.6462C77.7023 64.5526 77.5853 64.4941 77.4605 64.459C77.4332 64.4434 77.3903 64.4356 77.3552 64.4239C77.2772 64.4005 77.1992 64.3654 77.1212 64.3342C77.0822 64.3069 77.0549 64.2757 77.0237 64.2445C77.0081 64.225 76.9847 64.1977 76.973 64.1704C76.9613 64.1509 76.9535 64.1275 76.9457 64.1002C76.9418 64.0768 76.9379 64.0573 76.9379 64.0339C76.934 64.0066 76.9301 63.9793 76.934 63.9481C76.9379 63.8857 76.9691 63.8116 76.9964 63.7649C77.0237 63.722 77.0549 63.6869 77.0822 63.6518C77.1173 63.6167 77.1524 63.5816 77.1836 63.5387C77.2187 63.4841 77.2421 63.4334 77.2889 63.3944C77.3123 63.3749 77.3396 63.3632 77.3708 63.3437C77.4527 63.3008 77.5541 63.2657 77.6594 63.254C77.714 63.449 77.7607 63.6479 77.8114 63.8428C77.8192 63.8701 77.827 63.9013 77.827 63.9286C77.7958 63.9169 77.7101 63.8935 77.6789 63.9091C77.6438 63.9286 77.6828 63.9715 77.7178 63.9715C77.714 63.9754 77.7023 63.9754 77.6984 63.9754C77.6867 63.9832 77.6711 63.9949 77.6516 63.9988C77.6477 64.0027 77.6399 64.0027 77.6321 64.0027C77.6126 64.0105 77.6009 64.0261 77.5931 64.0456C77.5814 64.069 77.6009 64.0963 77.6321 64.0807C77.6516 64.069 77.675 64.0417 77.6906 64.0339C77.7374 64.0144 77.7958 63.9988 77.8504 64.0066C77.8738 64.0846 77.8933 64.1704 77.9128 64.2562C77.866 64.264 77.7997 64.2679 77.7452 64.2562C77.7062 64.2445 77.6867 64.2406 77.6594 64.264C77.6633 64.2718 77.6711 64.2757 77.6711 64.2874C77.6711 64.3225 77.6204 64.3108 77.6126 64.2835C77.6009 64.3264 77.6555 64.3615 77.6945 64.3654C77.6983 64.3654 77.71 64.3654 77.7178 64.3654C77.788 64.3654 77.8699 64.342 77.9284 64.3264C77.9323 64.3498 77.9011 64.3459 77.8855 64.3537H77.9011ZM77.8504 64.6267C77.866 64.6501 77.8738 64.6774 77.8894 64.6969C77.8777 64.6735 77.8699 64.6423 77.8504 64.6267ZM77.5931 62.591C77.5502 62.4155 77.5112 62.2361 77.4644 62.0567C77.4527 62.0139 77.4449 61.9671 77.4332 61.9242C77.4176 61.8774 77.4059 61.8345 77.3981 61.7916C77.3396 61.5225 77.2694 61.2573 77.207 60.9921V60.9882C77.246 61.0038 77.3006 60.9999 77.3357 61.0116C77.3318 61.0467 77.3396 61.0818 77.3864 61.0779C77.3942 61.0935 77.3981 61.113 77.4059 61.1247C77.4371 61.1325 77.4644 61.1208 77.48 61.1091C77.636 61.1754 77.7802 61.2534 77.9674 61.2846C77.9752 61.4718 77.9518 61.6707 77.9479 61.8735C77.9479 61.9437 77.9362 62.0061 77.9323 62.0763C77.9284 62.2049 77.9206 62.3336 77.905 62.4623C77.8894 62.5559 77.8816 62.6495 77.8738 62.7392C77.8699 62.7743 77.8699 62.8055 77.8699 62.8445C77.8699 62.8757 77.8582 62.9147 77.8699 62.9381C77.8738 62.9459 77.8855 62.9537 77.8933 62.9576C77.9362 62.9888 78.0025 63.0083 78.0454 63.0395C78.0454 63.0512 78.0454 63.0629 78.0454 63.0746C77.9362 63.0863 77.8348 63.1058 77.7295 63.1214C77.6867 62.9459 77.636 62.7704 77.597 62.591H77.5931ZM77.1758 60.8868C77.1758 60.8868 77.2031 60.8712 77.207 60.8517C77.207 60.8361 77.1953 60.8283 77.1914 60.8127C77.207 60.8166 77.2148 60.8361 77.2304 60.8517C77.2382 60.8595 77.2655 60.8868 77.2772 60.8868C77.2928 60.8907 77.324 60.879 77.3123 60.8595C77.2967 60.8517 77.2772 60.8556 77.2616 60.8439C77.2382 60.8283 77.2265 60.7971 77.2148 60.7698C77.2226 60.7503 77.2148 60.7308 77.1992 60.723C77.2031 60.6918 77.1953 60.6723 77.1797 60.6606L77.1836 60.6567C77.2109 60.6723 77.2421 60.684 77.2655 60.6996C77.3162 60.7308 77.3513 60.7698 77.363 60.8439C77.3825 60.8556 77.4059 60.8634 77.4215 60.8829C77.4137 60.9297 77.3981 60.9648 77.363 60.9882C77.3396 60.9765 77.3201 60.957 77.3006 60.9453C77.2772 60.9687 77.2031 60.957 77.1836 60.9375C77.1797 60.9336 77.168 60.9024 77.1719 60.8868H77.1758ZM77.1134 60.8556C77.1368 60.8556 77.1914 60.8751 77.1914 60.8439C77.1914 60.8244 77.1095 60.8088 77.0822 60.8166C77.051 60.8322 77.0666 60.879 77.09 60.8829C77.0939 60.8673 77.1017 60.8556 77.1173 60.8517L77.1134 60.8556ZM77.0393 60.7776C77.0393 60.7776 77.0393 60.8166 77.0549 60.8244C77.0861 60.7932 77.1368 60.8127 77.1719 60.8088C77.1836 60.7893 77.1563 60.7815 77.1407 60.7776C77.1134 60.7659 77.0588 60.7503 77.0354 60.7776H77.0393ZM77.0315 60.7074C77.0315 60.7074 77.0198 60.7542 77.0393 60.762C77.051 60.762 77.0627 60.7503 77.0783 60.7503C77.1095 60.7425 77.1407 60.762 77.168 60.7698C77.1875 60.7698 77.1992 60.7698 77.1992 60.7581C77.1992 60.7425 77.1758 60.7386 77.1602 60.7269C77.1329 60.7113 77.1173 60.6918 77.0744 60.6957C77.0627 60.6957 77.0393 60.6957 77.0315 60.7074ZM77.1797 60.7113C77.1992 60.6411 77.0081 60.5982 77.0276 60.6957C77.0588 60.6879 77.1017 60.6762 77.1368 60.6918C77.1524 60.6996 77.1641 60.7191 77.1797 60.7152V60.7113ZM77.051 60.567C77.051 60.567 77.0705 60.5787 77.0744 60.5865C77.09 60.6021 77.1134 60.6177 77.129 60.6333C77.1056 60.6216 77.0744 60.6333 77.0588 60.6216C77.0432 60.6177 77.0276 60.567 77.051 60.567ZM77.4566 60.8712C77.441 60.9219 77.4176 60.9687 77.3864 61.0038C77.3786 61.0155 77.3552 61.0272 77.3552 61.0389C77.3552 61.0584 77.3786 61.0584 77.3942 61.0506C77.4176 61.0389 77.441 60.996 77.4527 60.9726C77.4644 60.9414 77.4839 60.9024 77.4722 60.8673C77.4683 60.8673 77.4566 60.8634 77.4566 60.8712ZM77.5112 60.8985C77.4878 60.9609 77.4644 61.0233 77.4176 61.0623C77.4176 61.0662 77.4176 61.0818 77.4254 61.0818C77.4449 61.0779 77.4449 61.0545 77.4683 61.0467C77.4683 61.0428 77.4683 61.0428 77.4683 61.035C77.4761 61.0272 77.48 61.0233 77.4878 61.0116C77.4839 60.9999 77.4956 60.9843 77.5073 60.9804C77.5034 60.957 77.5151 60.9531 77.5268 60.9414C77.5073 60.9297 77.5268 60.8985 77.5424 60.8946C77.5385 60.8868 77.5268 60.8907 77.5229 60.8946L77.5112 60.8985ZM77.5385 61.0233C77.5307 61.0428 77.5073 61.0545 77.5073 61.0818C77.5814 61.113 77.6633 61.152 77.7413 61.1793C77.7686 61.1832 77.792 61.1988 77.8192 61.2066C77.8426 61.2105 77.8738 61.2183 77.905 61.2261C77.9245 61.23 77.9713 61.2417 77.9947 61.2417C78.0337 61.2339 78.0376 61.191 78.061 61.1676C78.0805 61.1052 78.1195 61.0662 78.1312 60.9999C78.0961 60.9765 78.0337 60.9531 77.9791 60.9414C77.9674 60.9414 77.944 60.9375 77.9362 60.9414C77.9323 60.9531 77.9284 60.9648 77.9284 60.9804C77.9674 60.9804 78.0103 61.0272 77.9791 61.0545C77.9713 61.0662 77.9635 61.0545 77.9479 61.0545C77.9323 61.0467 77.9206 61.0272 77.905 61.0194C77.8894 61.0116 77.8699 61.0038 77.8504 60.9999C77.7646 60.9726 77.6672 60.957 77.5775 60.9375C77.5619 60.9453 77.5658 60.9609 77.5619 60.9726C77.5619 60.9843 77.5502 60.9921 77.5463 60.9999C77.5424 61.0077 77.5424 61.0155 77.5424 61.0272L77.5385 61.0233ZM77.9518 60.8751C78.0337 60.879 78.1039 60.9024 78.1546 60.9375C78.1546 60.9414 78.1546 60.9492 78.1507 60.9531C78.0883 60.9258 78.022 60.9063 77.9479 60.8907C77.9479 60.879 77.9479 60.8751 77.9518 60.8751ZM77.9947 60.6801C78.0103 60.5943 78.022 60.5124 78.0454 60.4227C78.0649 60.3447 78.0766 60.2785 78.1078 60.22C78.1195 60.2005 78.1312 60.1888 78.1468 60.1732C78.1507 60.1693 78.1507 60.1576 78.1585 60.1537C78.178 60.1381 78.2014 60.1264 78.2209 60.103C78.2248 60.103 78.2326 60.0991 78.2326 60.103C78.256 60.0835 78.2911 60.0796 78.3145 60.0679H78.3184C78.3223 60.1342 78.3262 60.1927 78.3418 60.2512C78.3496 60.2863 78.3613 60.3135 78.3652 60.3447C78.3184 60.3759 78.2755 60.411 78.2326 60.4422C78.2209 60.4266 78.2287 60.4071 78.2092 60.3993C78.2014 60.4149 78.1897 60.4266 78.1897 60.4422C78.1897 60.4539 78.2053 60.4773 78.2014 60.489C78.2014 60.5046 78.2053 60.5787 78.2014 60.6099C78.2014 60.6255 78.1858 60.7035 78.1819 60.7386C78.1819 60.7581 78.178 60.7737 78.1819 60.7893C78.1234 60.7698 78.0454 60.7503 77.9869 60.7425C77.9908 60.7191 77.9908 60.6957 78.0025 60.6801H77.9947ZM78.3652 60.3876C78.3652 60.3876 78.3418 60.3954 78.334 60.4071C78.3418 60.4188 78.3457 60.4461 78.334 60.4617C78.3262 60.4773 78.3106 60.4851 78.3106 60.5046C78.3145 60.5046 78.3223 60.5046 78.3301 60.5046C78.3496 60.5007 78.3964 60.4539 78.4042 60.4422C78.4198 60.4071 78.3769 60.4071 78.3613 60.3876H78.3652ZM78.4354 60.0133C78.4471 60.0796 78.451 60.142 78.4627 60.2005C78.4666 60.22 78.4783 60.2395 78.4783 60.259C78.4588 60.2746 78.4393 60.2902 78.4159 60.298C78.3847 60.2278 78.373 60.1381 78.373 60.0367C78.3925 60.0328 78.4159 60.0211 78.4354 60.0133ZM78.4198 59.4829C78.4081 59.5336 78.3808 59.5609 78.3769 59.6116C78.373 59.6779 78.3925 59.7364 78.4237 59.7871C78.4432 59.8261 78.4705 59.8612 78.4939 59.8846C78.5251 59.9119 78.5719 59.9392 78.6148 59.9509C78.6733 59.9587 78.724 59.9314 78.7513 59.9041C78.8254 59.8456 78.8878 59.7208 78.8878 59.6077C78.8878 59.5765 78.8722 59.557 78.8605 59.5375C78.8527 59.5141 78.8566 59.4946 78.8488 59.4673C78.8371 59.4127 78.802 59.3698 78.763 59.3425C78.724 59.3113 78.6928 59.284 78.6382 59.2723C78.6343 59.2606 78.6382 59.245 78.6304 59.2294C78.6265 59.245 78.6265 59.2567 78.6265 59.2723C78.5641 59.2996 78.4978 59.323 78.4549 59.3737C78.4471 59.3854 78.4393 59.3971 78.4315 59.4088C78.4237 59.4322 78.4159 59.4556 78.412 59.4829H78.4198ZM78.8371 60.0601C78.841 60.0328 78.8449 60.025 78.8527 60.0055C78.8722 60.0094 78.8878 60.0211 78.9073 60.0289C78.8878 60.0484 78.8566 60.0484 78.8371 60.0601ZM78.7942 59.9431C78.7942 59.9431 78.7981 59.9548 78.7981 59.9626C78.7981 59.9821 78.7825 60.0055 78.7708 60.0094C78.7513 60.025 78.7279 60.0133 78.7084 60.0133C78.6889 60.0172 78.6733 60.025 78.6538 60.025C78.5992 60.025 78.5602 59.9899 78.5329 59.9665C78.5173 59.9509 78.5056 59.9353 78.49 59.9236C78.49 59.9431 78.4783 59.9587 78.4783 59.9782C78.4744 60.0016 78.4783 60.0289 78.4822 60.0523C78.4939 60.1186 78.5095 60.181 78.5329 60.2239C78.6109 60.1732 78.6889 60.1264 78.7786 60.0874C78.7942 60.0562 78.8137 60.025 78.8137 59.986C78.8137 59.947 78.7942 59.908 78.7942 59.8651C78.7903 59.8768 78.7942 59.8846 78.7942 59.9002C78.7942 59.9197 78.7903 59.9314 78.7903 59.9431H78.7942ZM78.9619 60.1459C78.9385 60.1576 78.9151 60.1693 78.8917 60.181H78.8956C78.8605 60.2005 78.8215 60.2161 78.7864 60.2356C78.7045 60.2707 78.6265 60.3175 78.5485 60.3681C78.5173 60.3915 78.4822 60.411 78.4549 60.4305C78.4393 60.4422 78.4276 60.4578 78.412 60.4695C78.3613 60.5046 78.3262 60.5358 78.2755 60.5709C78.2482 60.5943 78.2209 60.6177 78.2092 60.6489C78.2014 60.6723 78.2053 60.7542 78.2053 60.7737C78.2053 60.8517 78.2404 60.8907 78.3067 60.8907C78.3418 60.8907 78.3574 60.8751 78.3808 60.8634C78.3964 60.8478 78.4081 60.8205 78.4315 60.8205C78.4432 60.84 78.4198 60.8634 78.4042 60.879C78.3808 60.9063 78.3574 60.9375 78.3262 60.9531C78.3145 60.9609 78.295 60.9609 78.2794 60.9609C78.2911 61.0233 78.3652 60.9882 78.3925 60.9648C78.4861 60.8712 78.5602 60.7581 78.6343 60.645C78.6733 60.5904 78.7084 60.5358 78.7513 60.4812C78.7708 60.4539 78.7903 60.4305 78.8137 60.4032C78.8527 60.3564 78.8917 60.3135 78.9385 60.2746C78.9502 60.2629 78.9619 60.2551 78.9736 60.2434C79.0087 60.2161 79.0399 60.1966 79.0789 60.1693C79.1023 60.1537 79.1335 60.1459 79.153 60.1264C79.1335 60.0991 79.0945 60.1264 79.0711 60.1303C79.0555 60.1303 79.0438 60.1381 79.0321 60.142C79.0126 60.1537 78.9892 60.1654 78.9697 60.181H78.9736C78.9736 60.181 78.9658 60.1888 78.9619 60.1888C78.9346 60.2044 78.9151 60.22 78.8956 60.2395C78.8566 60.2707 78.8176 60.298 78.7825 60.3291C78.7825 60.3291 78.7747 60.3292 78.7669 60.337C78.7045 60.3915 78.6499 60.4461 78.5875 60.5007C78.568 60.5163 78.5524 60.5436 78.5251 60.5436C78.5134 60.5007 78.5485 60.4812 78.5719 60.4578C78.5875 60.4383 78.6031 60.4266 78.6226 60.411C78.6967 60.3486 78.7747 60.2941 78.8488 60.2395C78.8878 60.2083 78.9268 60.1849 78.9541 60.1498L78.9619 60.1459ZM78.9502 61.1247V61.0935C78.9502 61.0935 78.9502 61.074 78.9502 61.0623C78.9502 61.0584 78.9502 61.0506 78.9502 61.0428C78.9502 61.0389 78.9502 61.0428 78.9502 61.0389C78.9541 61.0389 78.9541 61.0389 78.9541 61.0389C78.9541 61.0584 78.958 61.0818 78.958 61.1013C78.958 61.1169 78.958 61.1286 78.9541 61.1403C78.9502 61.1403 78.9463 61.1286 78.9463 61.1208L78.9502 61.1247ZM78.5407 62.786C78.5602 62.747 78.5797 62.7119 78.5992 62.6768C78.6226 62.6378 78.6382 62.5988 78.6538 62.5637C78.7279 62.4116 78.7864 62.2478 78.8371 62.0763C78.8605 61.9905 78.8839 61.9008 78.9073 61.8072C78.919 61.7643 78.9307 61.7175 78.9385 61.6707C78.9424 61.62 78.9541 61.5732 78.9541 61.5225C78.9385 61.5264 78.9424 61.5498 78.9385 61.5615C78.9268 61.6044 78.9151 61.6473 78.9034 61.6863C78.8566 61.8501 78.8098 62.01 78.7513 62.1659C78.6928 62.3141 78.6343 62.4779 78.5641 62.6105C78.5524 62.63 78.5407 62.6534 78.5251 62.6768C78.5134 62.6924 78.49 62.7314 78.4705 62.7236C78.4549 62.7158 78.4627 62.6807 78.4705 62.6612C78.4822 62.6144 78.5056 62.5793 78.529 62.5442C78.5407 62.5247 78.5524 62.5091 78.568 62.4896C78.5797 62.4584 78.5992 62.4272 78.6148 62.396C78.6187 62.3804 78.6304 62.3648 78.6421 62.3492C78.6499 62.3336 78.6616 62.3219 78.6694 62.3063C78.685 62.2712 78.6967 62.2283 78.7084 62.1932C78.7201 62.1581 78.7396 62.1191 78.7513 62.0802C78.8176 61.8891 78.88 61.698 78.9307 61.4952C78.9307 61.4835 78.9424 61.4484 78.9463 61.4328C78.9463 61.4211 78.958 61.3704 78.9424 61.3704C78.9385 61.3704 78.9346 61.3704 78.9307 61.3743C78.8956 61.4055 78.8644 61.4523 78.8371 61.503C78.8059 61.5654 78.7708 61.6278 78.7435 61.6902C78.6928 61.7877 78.6538 61.8813 78.6031 61.9749C78.5368 62.0996 78.4627 62.2127 78.3886 62.3297C78.3535 62.3882 78.3106 62.4428 78.2794 62.5091C78.2365 62.5793 78.2014 62.669 78.1663 62.7509C78.1585 62.7665 78.1507 62.786 78.1429 62.8016C78.1156 62.8562 78.0922 62.8991 78.0922 62.9693C78.0922 63.0668 78.0922 63.1721 78.1039 63.2657C78.1039 63.2969 78.1039 63.3281 78.1156 63.3554C78.1273 63.3554 78.1312 63.3398 78.139 63.3359C78.178 63.2774 78.2248 63.2228 78.2677 63.1721C78.3184 63.1097 78.3691 63.0473 78.4198 62.9888C78.4471 62.9615 78.4744 62.9303 78.49 62.8913C78.5095 62.8562 78.5329 62.8211 78.5524 62.7821L78.5407 62.786ZM78.1546 63.6167C78.1351 63.6596 78.1468 63.7142 78.1507 63.7688C78.1546 63.8077 78.1585 63.8467 78.1663 63.8779C78.2092 63.9091 78.2638 63.9403 78.3223 63.9481C78.3418 63.9481 78.3652 63.9598 78.3769 63.952C78.4003 63.9481 78.4042 63.9169 78.4159 63.8935C78.4237 63.874 78.4315 63.8584 78.4354 63.8428C78.4744 63.7376 78.5134 63.6323 78.5485 63.5348C78.5602 63.4997 78.568 63.4646 78.5797 63.4295C78.5992 63.3554 78.6187 63.2852 78.6382 63.2072C78.6499 63.1409 78.6655 63.0785 78.6772 63.0122C78.685 62.9615 78.6928 62.9147 78.6928 62.8835C78.6928 62.8835 78.6733 62.903 78.6616 62.9147C78.6499 62.9342 78.6421 62.9576 78.6304 62.981C78.6031 63.0473 78.5797 63.1175 78.5602 63.1877C78.5368 63.2618 78.5134 63.3242 78.4861 63.3905C78.4822 63.4022 78.4627 63.449 78.4471 63.4451C78.4198 63.4295 78.4666 63.3593 78.4666 63.3554C78.5017 63.2735 78.5173 63.1955 78.5368 63.1058C78.5368 63.0902 78.5524 63.0707 78.5407 63.0551C78.529 63.0629 78.5212 63.0785 78.5134 63.0902C78.4861 63.1253 78.4588 63.1565 78.4354 63.1916C78.4198 63.215 78.4042 63.2345 78.3847 63.2579C78.3301 63.3281 78.2833 63.3983 78.2404 63.4685C78.2248 63.4919 78.2092 63.5153 78.1936 63.5426C78.178 63.5699 78.1624 63.5933 78.1546 63.6206V63.6167ZM78.0415 63.1838C78.0415 63.1838 78.0103 63.1799 77.9986 63.1838C77.944 63.1916 77.8855 63.1994 77.8309 63.2072C77.7958 63.2072 77.7607 63.2189 77.7374 63.2345C77.7958 63.4685 77.8543 63.7103 77.9128 63.9442C77.9479 63.9442 77.9791 63.9442 78.0064 63.9481C78.0415 63.9559 78.0805 63.952 78.1156 63.9559C78.1273 63.9559 78.139 63.9559 78.1507 63.9598C78.1351 63.913 78.1234 63.8623 78.1156 63.8078C78.1078 63.7454 78.1 63.6635 78.0844 63.6128C78.0649 63.5972 78.0532 63.566 78.0298 63.5504C78.022 63.5465 78.0064 63.5426 77.9908 63.5348C77.983 63.5348 77.9713 63.5192 77.9596 63.5153C77.9284 63.5075 77.905 63.5153 77.8816 63.5192C77.8699 63.5153 77.8582 63.5114 77.8465 63.5075C77.8348 63.4958 77.8192 63.4724 77.8192 63.4451C77.827 63.4412 77.8309 63.4334 77.8426 63.4295C77.9089 63.41 77.9869 63.4178 78.0532 63.4295C78.0532 63.3437 78.0493 63.2618 78.0415 63.176V63.1838ZM78.4393 61.1871C78.4159 61.1988 78.4198 61.1676 78.412 61.1403C78.4081 61.113 78.3925 61.0779 78.4237 61.0779C78.4354 61.1091 78.4393 61.152 78.4393 61.1871ZM78.4432 61.035C78.4432 61.035 78.4081 61.0623 78.3808 61.0467C78.3847 61.0272 78.4081 61.0233 78.4198 61.0155C78.4354 61.0038 78.4471 60.9921 78.4588 60.9843C78.4939 60.9804 78.5134 60.9648 78.5368 60.9492C78.5407 60.9492 78.5407 60.9492 78.5446 60.9492C78.5212 60.9804 78.4783 61.0077 78.4432 61.0311V61.035ZM78.5251 61.1715C78.5134 61.1442 78.5134 61.1091 78.529 61.0818C78.5446 61.0584 78.5836 61.0311 78.6226 61.0311C78.6811 61.0272 78.7396 61.0467 78.7591 61.0818C78.7786 61.1364 78.7591 61.1988 78.7123 61.2222C78.6499 61.2573 78.5485 61.2261 78.5251 61.1715ZM78.3574 62.0879C78.3223 62.0957 78.3145 62.1347 78.2989 62.162C78.2716 62.2205 78.2482 62.2712 78.2248 62.3375C78.1702 62.4662 78.1195 62.6105 78.0688 62.747C78.0649 62.7587 78.0649 62.7782 78.0493 62.786C78.0415 62.7704 78.0454 62.747 78.0454 62.7275C78.0454 62.6222 78.0454 62.513 78.0493 62.4116C78.0532 62.3726 78.061 62.3375 78.061 62.2985C78.061 62.2673 78.061 62.2361 78.061 62.2127C78.061 62.1893 78.0727 62.1659 78.0766 62.1386C78.0805 62.1152 78.0883 62.0918 78.0961 62.0723C78.0961 62.0606 78.1039 62.049 78.1117 62.0373C78.1429 61.9398 78.1975 61.854 78.2482 61.776C78.2989 61.7058 78.3496 61.6395 78.4042 61.581C78.4744 61.4991 78.5485 61.4328 78.6343 61.3704C78.685 61.3353 78.7357 61.2963 78.7747 61.2534C78.7903 61.2378 78.7981 61.2183 78.8176 61.2066C78.8176 61.2261 78.8059 61.2456 78.802 61.2573C78.7747 61.3002 78.7396 61.3392 78.7123 61.3782C78.6538 61.4562 78.5914 61.5342 78.5368 61.6239C78.5095 61.6707 78.4861 61.7136 78.4588 61.7604C78.3808 61.893 78.3106 62.0334 78.2326 62.1698C78.2053 62.2166 78.1819 62.2634 78.1663 62.3141C78.1819 62.3141 78.1858 62.2946 78.1936 62.2829C78.3028 62.1035 78.4042 61.9164 78.5173 61.7409C78.5758 61.6473 78.6382 61.5576 78.7084 61.4679C78.763 61.4055 78.8059 61.3392 78.8488 61.2612C78.8644 61.2378 78.88 61.2105 78.8956 61.191C78.9112 61.1754 78.9229 61.2222 78.919 61.2456C78.919 61.2573 78.9034 61.2768 78.8995 61.2924C78.8761 61.3392 78.8605 61.3899 78.8371 61.4328C78.8059 61.4952 78.7708 61.5537 78.7474 61.6083C78.6889 61.7331 78.6187 61.8423 78.5563 61.9554C78.5212 62.0139 78.49 62.0684 78.4588 62.1269C78.3691 62.2868 78.2833 62.4428 78.1975 62.6027C78.1897 62.6144 78.1819 62.6378 78.1663 62.6378C78.1702 62.6183 78.178 62.5988 78.1858 62.5832C78.2209 62.5013 78.2599 62.4116 78.3028 62.3297C78.3301 62.2712 78.3496 62.2244 78.3652 62.1581C78.3691 62.1308 78.3847 62.0996 78.3652 62.084L78.3574 62.0879ZM78.8098 60.9531C78.8371 60.9375 78.8605 60.9375 78.8761 60.9258H78.88C78.88 60.9258 78.8722 60.9414 78.8683 60.9453C78.8488 60.9765 78.8449 61.0233 78.8176 61.035C78.7981 61.0467 78.7786 61.0389 78.7513 61.0428C78.7045 60.996 78.6031 60.996 78.5485 61.0272C78.529 61.035 78.5134 61.0545 78.4822 61.0467C78.4861 61.0233 78.5095 61.0155 78.529 61.0038C78.5641 60.9843 78.5953 60.9609 78.6343 60.9414C78.6538 60.9336 78.6772 60.9219 78.6967 60.9258C78.6967 60.957 78.7123 60.9765 78.7552 60.9687C78.7591 60.9687 78.7708 60.9648 78.7825 60.957C78.7825 60.957 78.7981 60.9492 78.8059 60.9453L78.8098 60.9531ZM78.3028 61.1988C78.3106 61.1637 78.3028 61.113 78.3028 61.0779C78.3028 61.1169 78.3028 61.1559 78.3028 61.2027V61.1988ZM78.1195 61.1754C78.1195 61.1754 78.1195 61.1442 78.1234 61.1325C78.1273 61.1052 78.1429 61.0779 78.1546 61.0584C78.1663 61.0779 78.1624 61.1052 78.1663 61.1325C78.1702 61.1715 78.178 61.2144 78.1819 61.2534C78.1819 61.2846 78.1819 61.3119 78.1702 61.3314C78.1546 61.3548 78.1429 61.3782 78.1312 61.4016C78.1195 61.3314 78.1117 61.2534 78.1195 61.1793V61.1754ZM78.1546 61.4367C78.139 61.4757 78.1312 61.5264 78.1156 61.5693C78.1039 61.6161 78.0844 61.6629 78.0805 61.7058C78.0649 61.8072 78.0493 61.9086 78.0532 62.0178C78.0688 62.0061 78.0766 61.9827 78.0844 61.9671C78.1195 61.9125 78.1468 61.8579 78.1819 61.8111C78.2287 61.7448 78.2755 61.6824 78.3262 61.62C78.3769 61.5537 78.4315 61.4991 78.4822 61.4406C78.5095 61.4094 78.5368 61.3821 78.5641 61.3587C78.5953 61.3314 78.6304 61.308 78.6499 61.2729C78.6226 61.269 78.5914 61.2729 78.568 61.2651C78.5485 61.2612 78.529 61.2417 78.5134 61.2378C78.4978 61.2339 78.4744 61.2378 78.4588 61.2339C78.4003 61.2339 78.3418 61.2261 78.295 61.2144C78.2755 61.2339 78.2638 61.2534 78.2482 61.2729C78.2209 61.308 78.2014 61.3392 78.178 61.386C78.1663 61.4055 78.1585 61.425 78.1507 61.4445L78.1546 61.4367ZM77.9791 62.4974C77.9791 62.4974 77.983 62.4584 77.9791 62.4428C77.9791 62.4428 77.9791 62.4428 77.9752 62.4428C77.9557 62.6105 77.9362 62.7743 77.9167 62.9381C77.9401 62.9342 77.9479 62.942 77.9596 62.9498C77.9674 62.9186 77.9635 62.8874 77.9674 62.8562C77.9674 62.8211 77.9713 62.7899 77.9713 62.7548C77.9713 62.669 77.9791 62.5832 77.983 62.5013L77.9791 62.4974ZM78.0142 62.4038C78.0181 62.1737 78.0025 61.9437 78.0298 61.7643C78.0298 61.7643 78.0337 61.7565 78.0337 61.7526C78.0337 61.7487 78.0337 61.7409 78.0337 61.7331C78.0415 61.7058 78.0493 61.6785 78.0493 61.6551C78.061 61.6434 78.061 61.6239 78.0649 61.6044C78.0688 61.5888 78.0766 61.5693 78.0805 61.5498C78.0883 61.503 78.0805 61.4484 78.0727 61.3938C78.0727 61.3431 78.0805 61.2885 78.0649 61.2417C78.0415 61.2573 78.0259 61.2768 77.9986 61.2885C77.9947 61.3977 77.9947 61.4952 77.9869 61.5966C77.9869 61.6395 77.983 61.6785 77.983 61.7214C77.983 61.7682 77.983 61.8111 77.9791 61.8579C77.9674 62.0217 77.9713 62.2049 77.9674 62.3999C77.9869 62.4038 78.0025 62.4077 78.0181 62.4116L78.0142 62.4038ZM79.1998 60.2278C79.1998 60.2278 79.2115 60.2551 79.2154 60.2668C79.2349 60.3292 79.2427 60.3954 79.2544 60.4656C79.2622 60.4968 79.27 60.5319 79.2739 60.5631C79.2817 60.5982 79.2895 60.6294 79.2973 60.6606C79.2817 60.6606 79.27 60.6645 79.2583 60.6684C79.192 60.6801 79.0984 60.6801 79.0243 60.7035V60.6879C79.0243 60.6879 79.0243 60.684 79.0243 60.6723C79.0204 60.645 79.0204 60.6489 79.0204 60.6294C79.0204 60.6099 79.0204 60.5826 79.0087 60.5865C79.0087 60.5631 78.9775 60.5163 78.9736 60.5514C78.9736 60.5631 78.9736 60.5748 78.9736 60.5826C78.9775 60.6372 78.9775 60.6372 78.9775 60.6957C78.9775 60.7191 78.9814 60.8244 78.9775 60.8439C78.9658 60.8439 78.9541 60.8478 78.9424 60.8439C78.9268 60.8517 78.9073 60.8595 78.8917 60.8634C78.8683 60.8673 78.8449 60.8751 78.8176 60.8751C78.7903 60.8712 78.7669 60.8634 78.7435 60.8556C78.724 60.8439 78.7045 60.8283 78.685 60.8244C78.6265 60.8049 78.6226 60.8634 78.5602 60.8517C78.5836 60.7932 78.6187 60.7503 78.6499 60.6996C78.6928 60.6294 78.7396 60.567 78.7903 60.5085C78.8137 60.4851 78.8332 60.4578 78.8527 60.4344C78.88 60.4032 78.9073 60.372 78.9385 60.3447C78.9502 60.3369 78.958 60.3214 78.9775 60.3214C78.9658 60.3759 78.9424 60.411 78.9073 60.4422C78.8956 60.4539 78.8839 60.4695 78.8761 60.4734C78.8644 60.4812 78.8488 60.4851 78.8449 60.5007V60.5085C78.8449 60.5358 78.88 60.5436 78.8995 60.5319C78.9229 60.5163 78.9424 60.4734 78.9619 60.4422C79.0165 60.3486 79.0828 60.2434 79.1647 60.1927C79.1842 60.1771 79.1998 60.2122 79.2076 60.2278H79.1998ZM79.3207 60.7464C79.3207 60.7464 79.3012 60.7191 79.3012 60.6996C79.2856 60.6957 79.2661 60.7035 79.2544 60.7113C79.2583 60.7269 79.2583 60.7425 79.2661 60.7581C79.2856 60.7542 79.3051 60.7542 79.3207 60.7503V60.7464ZM79.3324 60.7737C79.3324 60.7737 79.348 60.7737 79.348 60.7854C79.348 60.7971 79.2973 60.8049 79.2856 60.8088C79.2154 60.8283 79.1374 60.8634 79.0867 60.8946C79.0672 60.9063 79.0594 60.9219 79.0399 60.9141C79.0438 60.9024 79.0555 60.8907 79.0633 60.8868C79.075 60.879 79.0906 60.8712 79.0984 60.8673C79.1452 60.8439 79.192 60.8205 79.2466 60.801C79.2739 60.7932 79.3051 60.7854 79.3285 60.7737H79.3324ZM79.3519 61.2612C79.3441 61.2339 79.3324 61.2144 79.3285 61.1949C79.3246 61.1793 79.3207 61.1676 79.3207 61.152V61.0935C79.3129 61.0662 79.309 61.0662 79.309 61.0389C79.3012 60.9999 79.2973 60.996 79.2895 60.957C79.2232 60.957 79.1647 60.9726 79.114 60.9921C79.114 61.0701 79.114 61.0935 79.114 61.1169C79.1218 61.1559 79.1179 61.1871 79.1335 61.23C79.1725 61.3314 79.27 61.62 79.3129 61.7136C79.3207 61.7331 79.3324 61.7643 79.3402 61.7721C79.348 61.776 79.3714 61.776 79.387 61.776C79.4142 61.776 79.4728 61.7565 79.4767 61.7331C79.4805 61.7136 79.4688 61.6824 79.461 61.6629C79.4221 61.5186 79.3909 61.386 79.3441 61.2573L79.3519 61.2612ZM79.5234 61.7409C79.5234 61.7409 79.5156 61.7799 79.5039 61.7877C79.4688 61.8111 79.4026 61.8306 79.348 61.8306C79.3246 61.8306 79.2895 61.8306 79.3012 61.7994C79.3831 61.8189 79.4883 61.8033 79.5156 61.7409H79.5234ZM79.5351 61.7955C79.5351 61.7955 79.4923 61.8189 79.4572 61.8306C79.4338 61.8384 79.4025 61.8462 79.387 61.8462C79.3675 61.8462 79.3285 61.8462 79.3207 61.8618C79.3051 61.8813 79.3324 61.9008 79.3519 61.8969C79.3675 61.893 79.3753 61.8774 79.3948 61.8852C79.4065 61.8813 79.4104 61.8696 79.4221 61.8696C79.4299 61.8657 79.4377 61.8696 79.4455 61.8696C79.4572 61.8696 79.4649 61.8579 79.4727 61.8579C79.4766 61.8579 79.4883 61.8579 79.4922 61.8579C79.5078 61.854 79.5117 61.8384 79.5234 61.8384C79.5468 61.8306 79.5663 61.8384 79.5702 61.8189C79.5702 61.8072 79.5546 61.7877 79.539 61.7916L79.5351 61.7955ZM79.5741 61.8618C79.6521 61.8813 79.7262 61.9203 79.8042 61.9437C79.8549 61.9593 79.9017 61.971 79.9368 61.9944C79.9485 61.9983 79.9524 62.0061 79.9602 62.01C79.9758 62.0178 79.9875 62.0256 80.0031 62.0334C80.007 62.0373 80.0187 62.0334 80.0148 62.0451C79.9992 62.0529 79.9914 62.0373 79.9797 62.0334C79.9134 61.9983 79.8432 61.9554 79.7535 61.9437C79.7652 61.9593 79.7808 61.9593 79.7964 61.9593C79.8783 61.9788 79.9485 62.0334 80.0148 62.0723C80.0265 62.0763 80.0421 62.084 80.0421 62.0996C80.0304 62.1074 80.0148 62.0996 80.007 62.0918C79.9329 62.0412 79.8588 61.9827 79.7457 61.9632C79.7379 61.9827 79.7691 61.9866 79.7769 61.9866C79.8354 62.0022 79.8783 62.0217 79.9251 62.049C79.9368 62.0568 79.9524 62.0685 79.968 62.0802C79.9836 62.0879 80.0031 62.0957 80.0109 62.1113C79.9875 62.1308 79.9524 62.1113 79.929 62.0957C79.9056 62.084 79.89 62.0723 79.8666 62.0646C79.8276 62.049 79.7769 62.0373 79.7262 62.0256C79.6989 62.0217 79.6716 62.0217 79.6482 62.0139C79.6248 62.01 79.6053 61.9905 79.5819 61.9905C79.5624 62.0139 79.5975 62.0139 79.6209 62.0217C79.6209 62.0217 79.6287 62.0334 79.6326 62.0334C79.6638 62.0412 79.7067 62.0373 79.7418 62.0451C79.7652 62.049 79.8081 62.0646 79.8081 62.0763C79.8081 62.1035 79.7184 62.0802 79.695 62.0802C79.6365 62.0763 79.6014 62.084 79.5468 62.0763C79.5078 62.0723 79.465 62.0606 79.4455 62.0334C79.4377 62.0217 79.4299 62.0061 79.4299 62.0022C79.4299 61.9905 79.4338 61.9749 79.4299 61.9593C79.426 61.9437 79.4143 61.9437 79.4221 61.9281C79.4221 61.9164 79.4299 61.9281 79.4455 61.9203C79.4494 61.9203 79.4571 61.9164 79.461 61.9125C79.4688 61.9125 79.4805 61.9125 79.4883 61.9125C79.5039 61.9125 79.5039 61.8891 79.5273 61.8969C79.5429 61.8813 79.5585 61.8735 79.578 61.8618H79.5741ZM79.929 61.9593C79.929 61.971 79.9446 61.9749 79.9524 61.9827C79.9602 61.9905 79.968 61.9944 79.9797 62.0022C79.9992 62.0139 80.0226 62.0217 80.0343 62.0373C80.0382 62.0412 80.0382 62.0529 80.046 62.0606C80.0538 62.0762 80.0694 62.084 80.0694 62.0996C80.0655 62.1308 79.9992 62.1386 79.968 62.1503C79.9602 62.1581 79.9563 62.1698 79.9446 62.1776C79.9407 62.1893 79.929 62.1971 79.929 62.2127C79.9446 62.2127 79.9524 62.1932 79.968 62.1854C79.9758 62.1815 79.9836 62.1815 79.9953 62.1737C80.0226 62.1581 80.0499 62.1464 80.0733 62.1308C80.0889 62.1074 80.0928 62.084 80.085 62.0606C80.0772 62.0451 80.0421 62.0061 80.0304 61.9944C80.0187 61.9905 79.9992 61.9827 79.9836 61.9788C79.9641 61.971 79.9446 61.9554 79.9329 61.9632L79.929 61.9593ZM80.0811 61.9905C80.085 62.0256 80.1123 62.0529 80.1201 62.0802C80.124 62.1386 80.0616 62.162 80.0304 62.1776C80.0109 62.1893 79.9875 62.1893 79.9758 62.2049C79.9914 62.2166 80.0109 62.2049 80.0304 62.2049C80.0499 62.2049 80.0733 62.2088 80.0889 62.2088C80.124 62.2049 80.1552 62.1815 80.1747 62.1659C80.1981 62.1464 80.2215 62.123 80.2449 62.1113C80.2527 62.1113 80.2683 62.1113 80.2722 62.0996C80.2761 62.0918 80.2605 62.0802 80.2566 62.0763C80.2449 62.0568 80.2371 62.0412 80.2137 62.0334C80.1903 62.0295 80.1669 62.0334 80.1474 62.0295C80.1201 62.0217 80.1123 61.9827 80.0811 61.9866V61.9905ZM80.2995 62.1425C80.2449 62.1425 80.2137 62.1776 80.1786 62.2088C80.1903 62.201 80.2059 62.201 80.2137 62.1893C80.2176 62.1854 80.2254 62.1737 80.2293 62.1698C80.2527 62.1542 80.3034 62.1347 80.3385 62.1581C80.3502 62.1698 80.3619 62.1932 80.3658 62.2088C80.3775 62.24 80.3775 62.2829 80.3658 62.3141C80.3541 62.3492 80.3268 62.3648 80.3112 62.3882C80.3541 62.4428 80.3853 62.5091 80.3892 62.5988C80.3892 62.63 80.3853 62.6573 80.3853 62.6885C80.3853 62.7704 80.4438 62.8289 80.4282 62.9069C80.4282 62.9186 80.4165 62.9303 80.4165 62.942C80.4165 62.9537 80.436 62.9732 80.4438 62.9849C80.4711 63.0434 80.475 63.1097 80.475 63.1838C80.475 63.2072 80.4711 63.2345 80.4711 63.2579C80.475 63.293 80.4906 63.3242 80.4984 63.3515C80.4984 63.3593 80.4984 63.3749 80.5101 63.3788C80.5218 63.3632 80.514 63.3437 80.514 63.3281C80.514 63.1955 80.4906 63.0824 80.4867 62.9576C80.4867 62.8796 80.4906 62.8016 80.4906 62.7275C80.4906 62.6534 80.4906 62.5793 80.475 62.5169C80.4711 62.4974 80.4594 62.4779 80.4555 62.4584C80.4204 62.3648 80.4126 62.2517 80.3658 62.1815C80.3502 62.1581 80.3307 62.1386 80.2956 62.1386L80.2995 62.1425ZM80.0655 63.7337C80.046 63.7688 80.0109 63.8 79.9797 63.8155C80.0343 63.835 80.1006 63.8155 80.1201 63.7766C80.1357 63.7415 80.1279 63.7025 80.1396 63.6713C80.1396 63.6635 80.1435 63.6557 80.1513 63.6518C80.1591 63.6362 80.1747 63.6245 80.1864 63.6089C80.202 63.5816 80.202 63.5387 80.202 63.5036C80.2566 63.566 80.1864 63.6362 80.1669 63.6908C80.163 63.7025 80.1552 63.7181 80.1669 63.7298C80.1825 63.7298 80.1864 63.7142 80.1981 63.7103C80.2098 63.7025 80.2176 63.7025 80.2293 63.6908C80.2605 63.6674 80.2644 63.6206 80.2722 63.5738C80.2761 63.5543 80.2839 63.5348 80.2839 63.5192C80.2839 63.4919 80.2761 63.4568 80.2839 63.4295C80.2917 63.4022 80.3073 63.3905 80.3151 63.3671C80.3268 63.3398 80.3112 63.3164 80.3112 63.2852C80.3151 63.2657 80.3229 63.254 80.3268 63.2423C80.3307 63.2228 80.3307 63.2033 80.3268 63.1799C80.319 63.1448 80.2956 63.1292 80.28 63.1019C80.2722 63.0902 80.2722 63.0863 80.2644 63.0746C80.2644 63.0668 80.2527 63.059 80.2527 63.0473C80.2371 62.9966 80.2644 62.9342 80.2566 62.8874C80.2527 62.8874 80.2527 62.8835 80.2527 62.8835C80.2527 62.8835 80.2527 62.8874 80.2488 62.8874C80.2449 62.9147 80.2332 62.9342 80.2254 62.9537C80.2215 62.9615 80.2215 62.9693 80.2137 62.9771C80.2059 62.9927 80.1903 63.0005 80.1786 63.0161C80.1669 63.0317 80.1552 63.0512 80.1552 63.0746C80.1591 63.098 80.1747 63.1175 80.1864 63.1409C80.1903 63.1604 80.1942 63.1838 80.1903 63.2072C80.1864 63.2462 80.1669 63.2852 80.1513 63.3086C80.1279 63.3515 80.0967 63.4022 80.0889 63.4451C80.0811 63.4919 80.0967 63.5348 80.1006 63.5816C80.1006 63.6362 80.0889 63.6869 80.0694 63.7181L80.0655 63.7337ZM79.7886 63.3515C79.7886 63.3515 79.7847 63.3203 79.7847 63.3086C79.7847 63.2852 79.8042 63.2657 79.8042 63.2462C79.8003 63.2384 79.7886 63.2267 79.7847 63.2111C79.7808 63.1994 79.7808 63.1916 79.7808 63.1838C79.7808 63.1799 79.773 63.1721 79.7691 63.1643C79.7652 63.1409 79.7574 63.1292 79.7418 63.1175C79.7145 63.1721 79.7652 63.2111 79.773 63.2579C79.773 63.3164 79.7496 63.3593 79.7769 63.3983C79.7691 63.3749 79.7886 63.3632 79.7925 63.3476L79.7886 63.3515ZM79.6482 63.5621C79.6482 63.6089 79.6755 63.6362 79.695 63.6674C79.6989 63.6791 79.7106 63.6947 79.7106 63.7064C79.7145 63.7259 79.7067 63.7571 79.7145 63.7649C79.7262 63.7571 79.7262 63.7376 79.7379 63.7259C79.7496 63.7103 79.7691 63.7064 79.7847 63.6947C79.8237 63.6635 79.8393 63.5894 79.8159 63.5231C79.812 63.5153 79.8042 63.5036 79.8003 63.4958C79.7808 63.4685 79.7574 63.449 79.7457 63.4178C79.7223 63.3593 79.734 63.2891 79.7262 63.2228C79.7067 63.1877 79.6794 63.1643 79.6794 63.1214C79.6794 63.1019 79.6911 63.0902 79.6911 63.0707C79.6911 63.0473 79.6755 63.0239 79.6716 63.0044C79.6521 62.9966 79.6443 62.981 79.6287 62.9693C79.6014 63.0473 79.6755 63.098 79.6521 63.1721C79.6443 63.1721 79.6443 63.1838 79.6287 63.1838C79.617 63.1838 79.6287 63.1565 79.617 63.1604C79.5975 63.2501 79.6638 63.3125 79.6716 63.3866C79.6716 63.4139 79.6716 63.4373 79.6716 63.4646C79.6716 63.4997 79.6521 63.5309 79.6482 63.566V63.5621ZM79.6248 63.6479C79.6287 63.6791 79.6209 63.722 79.6131 63.7532C79.6287 63.7532 79.6482 63.7571 79.6677 63.7571C79.6677 63.7103 79.656 63.6713 79.6326 63.6401C79.6326 63.6401 79.6248 63.6401 79.6248 63.644V63.6479ZM79.5741 63.4997C79.5741 63.4997 79.5936 63.5387 79.6053 63.5621C79.6053 63.5192 79.6287 63.4802 79.6326 63.4373C79.6365 63.3827 79.6209 63.3476 79.6092 63.3086C79.6014 63.2852 79.5936 63.2618 79.5897 63.2423C79.5858 63.2033 79.5897 63.1604 79.6014 63.1253C79.6014 63.1058 79.6053 63.0902 79.6053 63.0746C79.6053 63.0551 79.5936 63.0239 79.5975 62.9966C79.5975 62.9771 79.6092 62.9537 79.6092 62.9342C79.6092 62.9303 79.6053 62.9186 79.5975 62.9108C79.5936 62.8913 79.5858 62.8796 79.5819 62.8601C79.5819 62.8445 79.5819 62.8328 79.5702 62.8328C79.5663 62.8679 79.5663 62.8913 79.5546 62.9147C79.539 62.9771 79.4883 63.0161 79.4962 63.0863C79.5 63.1409 79.5351 63.1799 79.5546 63.2267C79.5663 63.2579 79.5819 63.293 79.5819 63.3281C79.5858 63.3866 79.5546 63.449 79.5702 63.4958L79.5741 63.4997ZM79.4143 63.4334C79.4143 63.4646 79.3948 63.488 79.387 63.5153C79.387 63.5387 79.3948 63.566 79.4065 63.5894C79.426 63.6245 79.4416 63.6518 79.4688 63.6713C79.4805 63.6518 79.5079 63.644 79.5079 63.6206C79.5079 63.5972 79.4766 63.5816 79.461 63.566C79.4338 63.527 79.4182 63.4373 79.4416 63.3749C79.4494 63.3515 79.4728 63.3242 79.465 63.293C79.465 63.2735 79.4416 63.254 79.4299 63.2345C79.4182 63.215 79.4065 63.1994 79.3948 63.1799C79.3714 63.137 79.3714 63.0785 79.3753 63.0239C79.3441 63.0005 79.3285 62.9615 79.3012 62.9303L79.2973 62.9342C79.2817 63.0473 79.309 63.1136 79.3558 63.176C79.3831 63.2111 79.4338 63.254 79.4143 63.3125C79.4143 63.3242 79.4026 63.3281 79.4026 63.3398C79.3987 63.3476 79.4065 63.3593 79.4065 63.3671C79.4065 63.3866 79.4065 63.41 79.4065 63.4295L79.4143 63.4334ZM79.4688 62.1308C79.4688 62.1308 79.4845 62.1191 79.4767 62.1152C79.4611 62.1152 79.4571 62.123 79.4416 62.1269C79.3753 62.1776 79.3363 62.2478 79.2934 62.3219C79.2778 62.3687 79.2505 62.4038 79.2388 62.4545C79.2154 62.5247 79.1998 62.6105 79.1881 62.6846C79.1842 62.7158 79.1764 62.7392 79.1803 62.7665C79.1803 62.7938 79.1842 62.8172 79.192 62.8484C79.2037 62.8991 79.2232 62.942 79.231 62.9966C79.231 63.0551 79.231 63.1019 79.2505 63.1409C79.27 63.176 79.3051 63.1994 79.3363 63.215C79.3324 63.1994 79.3207 63.1916 79.3168 63.1799C79.2895 63.1253 79.27 63.0707 79.2622 63.0005C79.2622 62.981 79.2622 62.9576 79.2622 62.9381C79.2622 62.9069 79.2817 62.8757 79.2817 62.8406C79.2817 62.8328 79.2817 62.8211 79.2778 62.8055V62.7704C79.2778 62.7704 79.2583 62.7509 79.2505 62.7392C79.2388 62.7119 79.2232 62.6573 79.2388 62.6144C79.2427 62.6066 79.2505 62.5949 79.2583 62.5832C79.2778 62.5559 79.3051 62.5325 79.3168 62.5052C79.3285 62.4818 79.3402 62.435 79.3402 62.4116C79.3402 62.3999 79.3363 62.3882 79.3363 62.3765C79.3363 62.3531 79.3324 62.3297 79.3402 62.3102C79.3558 62.2673 79.387 62.2439 79.4338 62.2361C79.4416 62.2127 79.4533 62.1932 79.4688 62.1737C79.4688 62.1581 79.4688 62.1386 79.4805 62.1269L79.4688 62.1308ZM79.5156 62.3375C79.5156 62.3375 79.5157 62.3258 79.5196 62.318C79.5234 62.318 79.5234 62.318 79.5196 62.318C79.504 62.3609 79.4883 62.4038 79.4767 62.4506C79.4728 62.4428 79.4728 62.4311 79.4767 62.4233C79.4805 62.3921 79.4922 62.3453 79.5117 62.3336L79.5156 62.3375ZM79.3324 62.669C79.3402 62.6456 79.3597 62.6261 79.3675 62.6066C79.3831 62.5676 79.3948 62.5247 79.3987 62.4779V62.4701C79.3987 62.4701 79.3987 62.4701 79.4026 62.474C79.4377 62.5871 79.3675 62.6924 79.3675 62.7977C79.3675 62.8328 79.3792 62.8679 79.3948 62.8952C79.4026 62.9186 79.4182 62.942 79.4065 62.9771C79.3792 62.9576 79.3675 62.9303 79.348 62.8991C79.3402 62.8874 79.3324 62.8718 79.3285 62.864C79.3129 62.8016 79.3168 62.7236 79.3324 62.6729V62.669ZM79.3792 62.3297C79.3792 62.3297 79.4065 62.3063 79.4299 62.3102C79.4104 62.3492 79.4026 62.396 79.4026 62.4428C79.3987 62.4389 79.387 62.435 79.3792 62.4272C79.3558 62.3999 79.3636 62.3492 79.3792 62.3297ZM79.2778 62.6105H79.2817C79.309 62.5598 79.3441 62.5169 79.3558 62.4584C79.3597 62.4584 79.3636 62.4623 79.3675 62.4623C79.3675 62.5754 79.2778 62.6222 79.2661 62.7197C79.2466 62.6963 79.2505 62.6456 79.2661 62.63C79.2661 62.63 79.2661 62.6066 79.27 62.6222C79.2739 62.6183 79.2661 62.6144 79.27 62.6066L79.2778 62.6105ZM79.465 62.5715C79.465 62.6027 79.4649 62.6378 79.461 62.669C79.4493 62.7002 79.426 62.7236 79.4221 62.7587C79.4221 62.7626 79.4221 62.7743 79.4221 62.7782C79.4221 62.786 79.4143 62.7938 79.4104 62.7977C79.4065 62.8289 79.4143 62.8562 79.4143 62.8913C79.387 62.8445 79.3831 62.7782 79.3948 62.7236C79.4065 62.6807 79.426 62.6456 79.426 62.6066C79.4338 62.5325 79.426 62.4428 79.4377 62.3726C79.4494 62.3297 79.4767 62.3063 79.4962 62.2751C79.5079 62.2712 79.5157 62.2517 79.5312 62.2556C79.5312 62.2517 79.5234 62.2556 79.5273 62.2517C79.578 62.2166 79.6482 62.1776 79.7301 62.201C79.7067 62.2049 79.6716 62.2088 79.6443 62.2088C79.5741 62.2361 79.5117 62.2751 79.4767 62.3453C79.4767 62.3453 79.4753 62.3479 79.4727 62.3531C79.4727 62.3531 79.4572 62.4077 79.4533 62.4389C79.4455 62.4896 79.465 62.5286 79.465 62.5754V62.5715ZM80.163 62.4623C80.1747 62.5442 80.163 62.6222 80.1318 62.6807C80.1123 62.7197 80.085 62.7548 80.0616 62.7899C80.0655 62.8055 80.0772 62.8328 80.0616 62.8484C80.0304 62.8445 80.007 62.8328 79.9797 62.8211C79.9836 62.864 80.0265 62.8679 80.0538 62.8835C80.0538 62.8952 80.0421 62.9108 80.0343 62.9108C80.0226 62.9108 79.9875 62.8835 79.9758 62.8796C79.9719 62.8757 79.9641 62.864 79.9602 62.864C79.9602 62.903 79.9914 62.9147 80.0109 62.9342C80.007 62.9459 79.9914 62.9654 79.9797 62.9654C79.9485 62.9693 79.9329 62.9108 79.9212 62.8835C79.9017 62.8913 79.9056 62.9225 79.8978 62.942C79.8471 62.9225 79.8315 62.8718 79.8354 62.8172C79.8471 62.7704 79.929 62.7821 79.9446 62.7353C79.9446 62.7197 79.9446 62.7041 79.9368 62.6924C79.9329 62.6768 79.929 62.6651 79.9173 62.6612C79.9056 62.6768 79.9329 62.7002 79.9173 62.7158C79.9056 62.7197 79.8978 62.7158 79.89 62.7158C79.8549 62.7119 79.8276 62.7275 79.7964 62.7236C79.7808 62.7236 79.7652 62.7158 79.7496 62.7158C79.7379 62.7158 79.7262 62.7158 79.7145 62.7119C79.7106 62.6924 79.7262 62.6768 79.7067 62.669C79.6989 62.6846 79.6911 62.7002 79.695 62.7275C79.695 62.747 79.7145 62.7665 79.7262 62.7743C79.7535 62.7899 79.7964 62.7899 79.8081 62.8133C79.812 62.8289 79.812 62.8484 79.8081 62.8601C79.8042 62.9069 79.7652 62.9381 79.7262 62.9498C79.7301 62.9342 79.7379 62.8913 79.7184 62.8952C79.7067 62.8952 79.7028 62.9264 79.6911 62.942C79.6755 62.9654 79.6404 62.9849 79.6209 62.9459C79.6482 62.9264 79.6755 62.9147 79.6872 62.8796C79.6755 62.8796 79.6482 62.8874 79.6287 62.8991C79.6053 62.9108 79.5897 62.9225 79.5897 62.8796C79.6287 62.8757 79.656 62.8523 79.6716 62.825C79.6482 62.8328 79.617 62.8484 79.5858 62.8406C79.5819 62.8367 79.5858 62.825 79.5858 62.8211C79.5312 62.7548 79.4922 62.669 79.4883 62.5637C79.4883 62.4974 79.5039 62.4233 79.5273 62.3687C79.539 62.3453 79.5468 62.3297 79.5585 62.3141C79.5702 62.2907 79.5819 62.2751 79.6053 62.2634C79.6365 62.2517 79.6755 62.2439 79.7145 62.2439C79.7574 62.2478 79.7847 62.2673 79.8159 62.2751C79.8588 62.2868 79.89 62.2556 79.9251 62.2517C79.9758 62.2478 80.0187 62.2634 80.0499 62.2868C80.0616 62.2907 80.0733 62.3102 80.085 62.3219C80.1162 62.3531 80.1396 62.4077 80.1474 62.4662L80.163 62.4623ZM80.1357 63.1253C80.1357 63.1253 80.1513 63.1409 80.1591 63.1526C80.1708 63.176 80.1708 63.254 80.1474 63.2618C80.1513 63.1643 80.0616 63.1253 80.085 63.0278C80.0889 63.0044 80.0967 62.9849 80.1084 62.9615C80.124 62.9147 80.1474 62.8601 80.1318 62.8016C80.1318 62.7977 80.124 62.786 80.124 62.7782C80.124 62.7665 80.1513 62.7158 80.163 62.708C80.1786 62.7119 80.1786 62.7353 80.1786 62.747C80.1903 62.7821 80.2137 62.825 80.2137 62.8679C80.2137 62.9069 80.1942 62.9537 80.1786 62.9849C80.1552 63.0161 80.124 63.0395 80.1279 63.0902C80.1318 63.1058 80.1357 63.1175 80.1396 63.1292L80.1357 63.1253ZM80.1708 62.3765C80.1708 62.3765 80.1708 62.3726 80.1708 62.3687C80.1708 62.3726 80.1747 62.3726 80.1747 62.3726C80.2137 62.3921 80.2293 62.4428 80.2332 62.4974C80.2332 62.5364 80.2176 62.5754 80.2137 62.6105C80.2098 62.6495 80.2176 62.6846 80.2371 62.708C80.2488 62.7197 80.2722 62.7314 80.2722 62.7548C80.2722 62.7782 80.2527 62.7938 80.2488 62.8133C80.2332 62.7938 80.2293 62.7704 80.2254 62.747C80.2215 62.7236 80.2098 62.7002 80.2098 62.6768C80.2098 62.6534 80.2137 62.6378 80.2137 62.6144C80.2215 62.5325 80.1942 62.4467 80.1708 62.3804V62.3765ZM80.3892 62.8718C80.3892 62.8952 80.3775 62.9225 80.3697 62.942C80.3502 62.9693 80.3268 62.9771 80.3151 63.0083C80.3034 63.0512 80.3346 63.0902 80.3268 63.1253C80.3151 63.1253 80.3073 63.1097 80.3034 63.098C80.2956 63.0902 80.2878 63.0785 80.2839 63.0668C80.2683 63.0122 80.3073 62.9342 80.2878 62.8718C80.2878 62.8601 80.2722 62.8445 80.2722 62.8367C80.2722 62.8055 80.2995 62.7821 80.2956 62.747C80.2956 62.7236 80.28 62.7119 80.2683 62.6963C80.2566 62.6807 80.2449 62.6729 80.2449 62.6534C80.2449 62.6222 80.2683 62.5949 80.2722 62.5637C80.2839 62.5052 80.2722 62.4623 80.2488 62.4194H80.2527C80.2761 62.4428 80.2956 62.4701 80.3151 62.5052C80.3307 62.5325 80.3424 62.5754 80.3424 62.6144C80.3424 62.6651 80.3268 62.7158 80.3307 62.7626C80.3346 62.8016 80.3736 62.825 80.3775 62.8679L80.3892 62.8718ZM80.2605 62.2088C80.2605 62.2088 80.2722 62.1971 80.2722 62.1932C80.2956 62.1737 80.3268 62.1971 80.3307 62.2166C80.3541 62.2829 80.2995 62.3648 80.2488 62.3726C80.2254 62.3765 80.1903 62.3687 80.1903 62.3531C80.1942 62.3453 80.202 62.3492 80.2098 62.3492C80.2527 62.3453 80.2839 62.3219 80.3073 62.2985C80.3229 62.2556 80.3034 62.2127 80.2644 62.2127L80.2605 62.2088ZM80.2449 62.2127C80.2449 62.2127 80.2332 62.2322 80.241 62.2439C80.241 62.2517 80.2527 62.2595 80.2527 62.2634C80.2527 62.2712 80.2176 62.2907 80.2059 62.2946C80.1708 62.3063 80.1201 62.2946 80.1084 62.2751C80.1708 62.2673 80.2098 62.24 80.2488 62.2088L80.2449 62.2127ZM79.8159 62.1113C79.8159 62.1113 79.8822 62.0957 79.8432 62.0879C79.8393 62.0996 79.8159 62.0918 79.8159 62.1113ZM79.8549 62.1386C79.812 62.1464 79.7574 62.1191 79.7067 62.1152C79.6794 62.1113 79.6482 62.1074 79.6209 62.1113C79.5429 62.123 79.4961 62.1698 79.4688 62.2478C79.5 62.2205 79.5312 62.1893 79.5741 62.1737C79.6209 62.1542 79.6911 62.1386 79.7457 62.162C79.7691 62.1737 79.7925 62.1854 79.8159 62.1893C79.8549 62.1893 79.8705 62.1776 79.89 62.1659C79.9017 62.1464 79.9368 62.1347 79.9212 62.1074C79.8939 62.1074 79.8861 62.1308 79.8588 62.1386H79.8549ZM79.1101 60.9375C79.1101 60.9375 79.1296 60.9219 79.1452 60.918C79.1881 60.9063 79.2349 60.8907 79.2817 60.8907C79.2856 60.8946 79.2895 60.9024 79.2895 60.9102C79.2622 60.9258 79.2271 60.9258 79.1959 60.9297C79.1647 60.9336 79.1374 60.9453 79.1101 60.9414V60.9375ZM78.9931 61.0389C78.9931 61.0389 78.997 61.0779 78.997 61.0935V61.1481C78.997 61.1481 78.997 61.1715 78.997 61.1832C79.1803 61.4718 79.2154 61.9086 79.2076 62.3687C79.2193 62.357 79.2232 62.3414 79.231 62.3258C79.2583 62.2556 79.2973 62.1971 79.3402 62.1386C79.3597 62.1113 79.3753 62.0879 79.3948 62.0723C79.4026 62.0606 79.4299 62.0528 79.4299 62.0411C79.4299 62.0256 79.4143 61.9944 79.4104 61.9827C79.4026 61.9632 79.3987 61.9437 79.387 61.9281C79.3558 61.9281 79.3051 61.9125 79.3012 61.8813C79.2973 61.8657 79.3051 61.8579 79.3129 61.8384C79.309 61.8267 79.2934 61.8267 79.2934 61.8111C79.2934 61.7916 79.3051 61.776 79.309 61.7604C79.2544 61.6512 79.1998 61.5342 79.1569 61.4094C79.1413 61.3704 79.114 61.2651 79.1062 61.2222C79.1023 61.1949 79.0906 61.1286 79.0867 61.1013C79.0828 61.0818 79.0789 61.0584 79.075 61.0389C79.075 61.0389 79.0711 61.0233 79.0633 60.957H79.0594C79.0321 60.9687 79.0126 60.9999 78.9892 61.0155C78.9892 61.0233 79.0009 61.0272 79.0009 61.035L78.9931 61.0389ZM79.114 63.0083C79.114 63.0083 79.114 62.9927 79.114 62.9849C79.1179 62.9615 79.1257 62.9303 79.1335 62.903C79.1335 62.8835 79.1335 62.8679 79.1452 62.8562C79.1452 62.8562 79.1452 62.8562 79.1491 62.8562C79.1374 62.8874 79.1374 62.9264 79.1335 62.9537C79.1296 62.9732 79.1257 62.9927 79.114 63.0044V63.0083ZM79.1608 62.9186C79.1608 62.981 79.1296 63.0239 79.1296 63.0824C79.1335 63.1526 79.1608 63.2189 79.1959 63.2579C79.231 63.2969 79.2895 63.3047 79.3246 63.3437C79.3402 63.3593 79.3519 63.3827 79.3636 63.4022C79.3714 63.4178 79.3714 63.4373 79.3831 63.449C79.387 63.4256 79.3948 63.4061 79.3948 63.3866C79.3948 63.3632 79.3753 63.3476 79.3753 63.332C79.3753 63.3047 79.3909 63.2774 79.3636 63.2579C79.3051 63.2384 79.2544 63.2228 79.2271 63.176C79.1803 63.1058 79.2037 63.0005 79.1725 62.9186H79.1686C79.1686 62.9186 79.1686 62.9186 79.1686 62.9225L79.1608 62.9186ZM79.5117 63.5387C79.539 63.5777 79.5585 63.6557 79.5234 63.6986C79.539 63.7181 79.5468 63.7376 79.5702 63.7454C79.6014 63.683 79.5975 63.6128 79.5702 63.5543C79.5585 63.5309 79.5391 63.5075 79.5312 63.4841C79.5196 63.4334 79.5429 63.4022 79.5468 63.3554C79.5468 63.3359 79.5507 63.3086 79.5468 63.2891C79.5429 63.2423 79.5039 63.2033 79.4883 63.1604C79.4805 63.1409 79.4728 63.1175 79.465 63.098C79.4572 63.0473 79.465 62.9927 79.4767 62.9498C79.4883 62.9225 79.5 62.8991 79.5117 62.8679C79.5234 62.8211 79.5117 62.7665 79.5 62.7314C79.5 62.7197 79.4922 62.6963 79.4805 62.7002C79.4688 62.7197 79.4533 62.7509 79.4494 62.7704C79.4338 62.8133 79.4377 62.864 79.4338 62.9147C79.4338 62.9654 79.4143 63.0122 79.4104 63.0512C79.4026 63.1136 79.426 63.1448 79.4455 63.1799C79.4611 63.2072 79.4805 63.2306 79.4883 63.254C79.5079 63.3125 79.4883 63.3632 79.4688 63.4139C79.4571 63.4607 79.4688 63.5036 79.4805 63.5348C79.4844 63.5465 79.4883 63.5621 79.5039 63.5699C79.5156 63.5699 79.504 63.5504 79.5079 63.5426L79.5117 63.5387ZM79.9407 63.41C79.9407 63.4529 79.9602 63.488 79.968 63.527C79.9758 63.5933 79.9485 63.6479 79.9173 63.683C79.8861 63.722 79.8354 63.7259 79.8276 63.7882C79.851 63.7882 79.8666 63.8039 79.8861 63.7999C79.8978 63.7999 79.9056 63.7882 79.9173 63.7882C79.9407 63.7805 79.9602 63.7766 79.9797 63.7649C80.007 63.7493 80.0109 63.7454 80.0265 63.722C80.0421 63.7025 80.0538 63.6869 80.0616 63.6596C80.0616 63.6401 80.0694 63.6011 80.0655 63.5855C80.0655 63.566 80.0538 63.5387 80.0499 63.5192C80.046 63.4919 80.0382 63.4685 80.0304 63.4529C80.0226 63.4412 80.0109 63.4295 80.0031 63.4139C79.9953 63.3983 79.9875 63.3632 79.9875 63.3476C79.9875 63.3125 80.0265 63.2891 80.0343 63.2579C80.0343 63.2267 80.0304 63.2072 80.0187 63.1877C80.0109 63.1682 80.0109 63.1526 80.0031 63.1409C79.9914 63.1097 79.9485 63.0746 79.9485 63.0395C79.9485 63.0278 79.9485 63.0161 79.968 63.0122C79.9836 63.02 79.9797 63.0395 79.9914 63.0512C79.9914 63.059 80.0031 63.0668 80.0109 63.0746C80.0148 63.0902 80.0226 63.1097 80.0265 63.1292C80.0382 63.1682 80.0655 63.215 80.0577 63.2657C80.0499 63.3008 80.0187 63.3281 80.0187 63.3593C80.0187 63.3827 80.0382 63.4061 80.0538 63.4178C80.0811 63.3593 80.1162 63.3203 80.1123 63.2384C80.1123 63.2189 80.1084 63.2033 80.1084 63.1916C80.0967 63.1448 80.0577 63.1136 80.0499 63.059C80.0421 62.9966 80.0772 62.9615 80.085 62.903C80.0655 62.942 80.046 62.981 79.9992 62.9966C79.9836 62.9849 79.9719 62.9732 79.9485 62.9654C79.9446 62.9654 79.9407 62.9654 79.9329 62.9654C79.9173 62.9654 79.8978 62.9459 79.8822 62.9459C79.8705 62.9459 79.8588 62.9537 79.8432 62.9576C79.8276 62.9576 79.8081 62.9459 79.7925 62.9459C79.7808 62.9459 79.7652 62.9615 79.7496 62.9654C79.7301 62.9654 79.7145 62.9654 79.6989 62.9771C79.7145 62.9966 79.7106 63.0434 79.7301 63.059C79.7496 63.0746 79.7769 63.0629 79.7964 63.0746C79.7964 63.0824 79.8042 63.0863 79.8042 63.0902C79.8042 63.137 79.8237 63.1565 79.8237 63.1955C79.8276 63.2072 79.8432 63.2189 79.8432 63.2345C79.8432 63.2501 79.8237 63.2696 79.8198 63.293C79.8198 63.3125 79.8198 63.3242 79.8198 63.3398C79.8198 63.3593 79.8003 63.371 79.8003 63.3905C79.8003 63.4022 79.8003 63.4139 79.8042 63.4217C79.8042 63.4295 79.8081 63.4412 79.8198 63.449C79.8198 63.3788 79.8588 63.3281 79.8588 63.2696C79.8588 63.2462 79.8471 63.2267 79.8432 63.2072C79.8393 63.1838 79.8354 63.1643 79.8276 63.1448C79.8276 63.1331 79.812 63.1253 79.8081 63.1136C79.8081 63.098 79.8081 63.0902 79.812 63.0785C79.8315 63.0746 79.8627 63.0785 79.8822 63.0746C79.8861 63.0863 79.8978 63.0941 79.8978 63.1136C79.8978 63.1331 79.8744 63.1487 79.8666 63.1682C79.8627 63.2111 79.8939 63.2618 79.89 63.3164C79.8861 63.3398 79.8822 63.371 79.8705 63.3944C79.8627 63.4217 79.851 63.4412 79.851 63.4724C79.851 63.5348 79.8666 63.5972 79.8549 63.644C79.8432 63.6791 79.8159 63.6986 79.7925 63.7181C79.7847 63.7376 79.7613 63.7376 79.7535 63.7571C79.8042 63.7843 79.8081 63.7337 79.8237 63.7103C79.8432 63.6869 79.8666 63.683 79.8822 63.6674C79.9095 63.6167 79.9602 63.5582 79.9407 63.4802C79.9329 63.4568 79.9173 63.4412 79.9095 63.4178C79.9095 63.3905 79.929 63.3671 79.9251 63.3398C79.9251 63.3281 79.9173 63.3125 79.9173 63.2969C79.9173 63.2696 79.9407 63.2345 79.9329 63.1994C79.9251 63.1799 79.9134 63.1682 79.9095 63.1487C79.9095 63.137 79.9095 63.1136 79.9095 63.1097C79.9095 63.0902 79.9173 63.0512 79.9329 63.0512C79.9446 63.0512 79.9563 63.1136 79.9563 63.1253C79.9563 63.1409 79.9446 63.1643 79.9524 63.176C79.9524 63.2033 79.968 63.2189 79.968 63.2423C79.9641 63.2657 79.9485 63.2852 79.9446 63.3047C79.9407 63.3281 79.9563 63.3476 79.9563 63.3671C79.9563 63.3788 79.9524 63.3905 79.9524 63.3983L79.9407 63.41ZM80.4672 63.527C80.475 63.4997 80.4711 63.4646 80.4672 63.4334C80.4672 63.3788 80.436 63.3398 80.4321 63.2813C80.4321 63.254 80.4321 63.2189 80.4321 63.1916C80.4321 63.1604 80.4399 63.1058 80.4321 63.0629C80.4321 63.0356 80.4126 62.9654 80.3931 62.9576C80.3853 62.9576 80.3775 62.9732 80.3736 62.9771C80.3658 62.981 80.3619 62.981 80.3541 62.9849C80.3424 63.0005 80.3346 63.0317 80.3346 63.0512C80.3346 63.0668 80.3463 63.0824 80.3463 63.098C80.3463 63.1253 80.3346 63.1409 80.3346 63.1565C80.3346 63.1721 80.3424 63.1838 80.3463 63.1955C80.3502 63.215 80.3502 63.2345 80.3463 63.254C80.3463 63.2735 80.3346 63.2891 80.3268 63.3086C80.3229 63.3515 80.3346 63.3944 80.3151 63.4295C80.3034 63.449 80.2839 63.4646 80.28 63.488C80.28 63.5075 80.2917 63.527 80.2878 63.5465C80.3229 63.5153 80.3541 63.4763 80.3541 63.4178C80.3541 63.3749 80.3424 63.3125 80.3697 63.2852C80.358 63.3671 80.3853 63.4178 80.3736 63.4802C80.3736 63.4958 80.358 63.5309 80.3502 63.5426C80.3424 63.5543 80.3268 63.5738 80.319 63.5816C80.3034 63.5972 80.2839 63.6011 80.2722 63.6206C80.2683 63.6284 80.2722 63.6401 80.2644 63.6479C80.2644 63.6635 80.2566 63.683 80.2449 63.6986C80.2215 63.7298 80.1825 63.7493 80.1669 63.7805C80.163 63.7883 80.1669 63.7999 80.163 63.8039C80.1591 63.8155 80.1435 63.8194 80.1357 63.8311C80.1279 63.8311 80.1084 63.8312 80.1162 63.8506C80.1279 63.8545 80.1357 63.8506 80.1435 63.8467C80.1591 63.8389 80.1786 63.8194 80.1942 63.8039C80.2098 63.7883 80.2254 63.7727 80.241 63.761C80.2956 63.7181 80.358 63.6908 80.3931 63.644C80.4126 63.6167 80.4282 63.5933 80.4399 63.5621C80.4438 63.5543 80.4555 63.5426 80.4555 63.5309L80.4672 63.527ZM76.9379 59.8378C76.9379 59.8378 76.9769 59.8183 76.9925 59.8027C76.9886 59.8222 76.9613 59.8378 76.9379 59.8417C76.9379 59.8417 76.9379 59.8417 76.9379 59.8378ZM76.895 60.0952C76.8833 60.0523 76.8794 59.9977 76.8716 59.9587C76.8833 59.9821 76.8911 60.0133 76.8989 60.0445C76.9028 60.0757 76.9145 60.1108 76.9106 60.1381C76.8989 60.1303 76.8989 60.1108 76.895 60.0991V60.0952ZM76.8326 59.8534C76.8326 59.8534 76.8521 59.8378 76.8599 59.8339C76.8638 59.8378 76.8521 59.8417 76.8482 59.8495C76.856 59.8807 76.856 59.9158 76.8794 59.9353C76.8677 59.9353 76.8638 59.9431 76.8521 59.9431C76.8521 59.9275 76.8248 59.8729 76.8287 59.8534H76.8326ZM76.8209 59.7637C76.7975 59.7208 76.7702 59.6779 76.7468 59.6389C76.7585 59.5999 76.7663 59.5492 76.7702 59.4985C76.778 59.4985 76.7741 59.5102 76.7741 59.518C76.7858 59.5531 76.817 59.596 76.778 59.6116C76.7897 59.6701 76.817 59.7208 76.8287 59.7832C76.8209 59.7793 76.8248 59.7715 76.817 59.7637H76.8209ZM76.7858 59.9353C76.7858 59.9353 76.8131 59.9353 76.8131 59.9236C76.8092 59.9119 76.7936 59.9236 76.7858 59.9236C76.7702 59.9275 76.7546 59.9314 76.739 59.9275C76.7078 59.9197 76.6727 59.9041 76.661 59.8768C76.6493 59.8573 76.6454 59.8261 76.6454 59.7988C76.6454 59.752 76.6454 59.6935 76.6376 59.6623C76.6337 59.7403 76.622 59.8417 76.6532 59.9002C76.6688 59.9119 76.6844 59.9236 76.7 59.9314C76.7234 59.9392 76.7585 59.9431 76.7897 59.9353H76.7858ZM81.0951 63.8818C81.0951 63.8818 81.0639 63.874 81.0522 63.8662C81.021 63.8623 80.982 63.8623 80.9508 63.8623C80.9196 63.8584 80.8923 63.8584 80.8572 63.8506C80.826 63.8467 80.7948 63.8428 80.7636 63.835C80.7402 63.8272 80.7129 63.8078 80.6895 63.7922C80.6037 63.7493 80.5179 63.7064 80.4243 63.6713C80.4438 63.6401 80.4672 63.6167 80.4828 63.5855C80.5023 63.5465 80.5062 63.4958 80.514 63.4451C80.5179 63.4139 80.5296 63.3788 80.5335 63.3515C80.5374 63.2852 80.5335 63.2267 80.5296 63.1682C80.5101 62.9849 80.5296 62.8055 80.5218 62.6339C80.5179 62.5637 80.5023 62.4896 80.4789 62.4233C80.4555 62.357 80.4399 62.2829 80.4165 62.2283C80.4087 62.2088 80.3931 62.1776 80.3814 62.1659C80.3697 62.1503 80.3463 62.1386 80.3385 62.123C80.3385 62.1152 80.3385 62.1074 80.3385 62.0957C80.3307 62.0723 80.2995 62.0646 80.2839 62.049C80.2683 62.0373 80.2605 62.0256 80.2488 62.0178C80.2371 62.0061 80.2215 62.0022 80.2059 61.9944C80.1942 61.9905 80.1786 61.9905 80.1669 61.9827C80.1552 61.9788 80.1513 61.9671 80.1435 61.9632C80.1045 61.9398 80.0694 61.9515 80.0187 61.9398C80.0109 61.9398 80.0031 61.932 79.9953 61.932C79.9329 61.9125 79.8432 61.9281 79.7769 61.9047C79.7028 61.8852 79.6404 61.8462 79.578 61.8267C79.5819 61.7916 79.5546 61.7838 79.5351 61.7721C79.5351 61.7526 79.5507 61.7175 79.5273 61.7058H79.5C79.465 61.5849 79.4454 61.4679 79.4143 61.3548C79.3987 61.2963 79.3714 61.2417 79.3636 61.1871C79.3597 61.1559 79.3558 61.1286 79.348 61.0896C79.348 61.0584 79.3363 61.0272 79.3324 60.996C79.3207 60.9453 79.3246 60.9024 79.3207 60.8556C79.3363 60.8322 79.3753 60.8088 79.3714 60.7737C79.3714 60.7698 79.3714 60.762 79.3714 60.7542C79.3675 60.7308 79.3519 60.7113 79.3402 60.6918C79.309 60.6216 79.2973 60.5397 79.2817 60.4617C79.2661 60.3759 79.2544 60.298 79.2271 60.2278C79.2193 60.2044 79.2076 60.181 79.1998 60.1576C79.1998 60.1576 79.1959 60.1576 79.1959 60.1537C79.1881 60.103 79.1686 60.0796 79.1218 60.0718C79.1179 60.0562 79.1023 60.0445 79.0945 60.025C79.0906 60.0133 79.0672 59.9899 79.0672 59.9782C79.0633 59.9509 79.0711 59.9314 79.0633 59.9119C79.0633 59.9002 79.0477 59.8963 79.0438 59.8846C79.0438 59.8729 79.0477 59.8651 79.0438 59.8534C79.0438 59.8378 79.0282 59.8378 79.0243 59.8222C79.0438 59.791 79.0243 59.7598 79.0087 59.7403C79.0243 59.7169 79.0087 59.6935 78.9931 59.6779C79.0126 59.6545 78.9892 59.6272 78.9775 59.6077C78.9892 59.5804 78.9775 59.5531 78.9619 59.5375C78.9775 59.4985 78.958 59.4751 78.9502 59.4556C78.9502 59.4517 78.9502 59.44 78.9502 59.4322C78.9502 59.4205 78.9385 59.4127 78.9346 59.4049C78.9346 59.3932 78.9346 59.3815 78.9307 59.3737C78.9307 59.362 78.9268 59.3464 78.919 59.3347C78.9073 59.2645 78.8995 59.2216 78.8566 59.1709C78.7903 59.0968 78.6967 59.0773 78.6226 59.0773C78.5407 59.0695 78.4588 59.1046 78.3925 59.1475C78.3457 59.1787 78.3184 59.2216 78.3028 59.2723C78.3028 59.2762 78.2989 59.284 78.2911 59.2879C78.2716 59.323 78.256 59.362 78.256 59.4049C78.2443 59.4322 78.2365 59.4595 78.2287 59.4829C78.2248 59.4985 78.2287 59.5102 78.2248 59.5258C78.2248 59.5297 78.2209 59.5414 78.217 59.5492C78.217 59.557 78.2209 59.5648 78.2209 59.5765C78.1975 59.5921 78.2014 59.6233 78.2053 59.6506C78.1858 59.6623 78.1858 59.7013 78.2014 59.713C78.178 59.7325 78.178 59.7793 78.1975 59.8027C78.1936 59.8183 78.1819 59.8222 78.1819 59.8378C78.1819 59.8534 78.1936 59.8612 78.1936 59.8729C78.1936 59.8846 78.178 59.8924 78.1741 59.9041C78.1702 59.9275 78.1741 59.9392 78.1819 59.9548C78.1663 59.9743 78.1507 60.0016 78.1624 60.0328C78.1585 60.0445 78.1468 60.0484 78.1429 60.0601C78.139 60.064 78.1429 60.0757 78.139 60.0835C78.1351 60.103 78.1156 60.1147 78.1039 60.1264C78.0922 60.1381 78.0844 60.1537 78.0766 60.1693C78.0493 60.2122 78.0298 60.259 78.0142 60.3097C77.9713 60.489 77.9362 60.6918 77.8855 60.8634C77.8738 60.8985 77.8699 60.9336 77.8504 60.9648C77.7569 60.9297 77.6477 60.918 77.5463 60.8946C77.5424 60.8751 77.5463 60.8556 77.5307 60.8478C77.5112 60.8361 77.4878 60.8517 77.4683 60.8595C77.4605 60.8361 77.4176 60.8244 77.3942 60.84C77.3825 60.8322 77.3669 60.8283 77.3591 60.8166C77.3474 60.7659 77.3201 60.7269 77.285 60.6996C77.2694 60.6879 77.246 60.6801 77.2265 60.6645C77.1953 60.645 77.168 60.6294 77.1329 60.6177C77.1095 60.6099 77.0666 60.5826 77.0549 60.5631C77.0549 60.5592 77.0549 60.5436 77.051 60.5358C77.0198 60.4188 76.9886 60.3057 76.9613 60.1888C76.9574 60.1693 76.9496 60.1459 76.9496 60.1342C76.9496 60.1225 76.9574 60.1225 76.9613 60.1108C76.9613 60.0991 76.9574 60.0796 76.9535 60.064C76.9379 60.0133 76.9223 59.9704 76.9184 59.9236C76.973 59.9158 77.012 59.8924 77.0471 59.8612C77.0666 59.83 77.0861 59.8066 77.0822 59.7559C77.0705 59.6272 76.9691 59.5336 76.9613 59.3932C76.9613 59.362 76.9691 59.3347 76.9574 59.3113C76.9418 59.3113 76.934 59.3347 76.9301 59.3503C76.8911 59.4595 76.9574 59.5531 76.973 59.6506C76.9808 59.6935 76.973 59.7403 76.9418 59.7676C76.9262 59.7793 76.8989 59.8066 76.8833 59.7949C76.8677 59.7559 76.8599 59.6935 76.8677 59.6467C76.8521 59.6233 76.8833 59.5999 76.8755 59.5726C76.8755 59.5609 76.856 59.5453 76.8443 59.5375C76.8365 59.5219 76.8248 59.5102 76.817 59.5024C76.7819 59.4478 76.7468 59.3815 76.7234 59.323C76.7117 59.3035 76.7078 59.2762 76.6844 59.2684C76.6688 59.2801 76.6805 59.2957 76.6805 59.3074C76.6883 59.3542 76.6922 59.3971 76.6961 59.4478C76.6961 59.4829 76.6961 59.5453 76.6883 59.5843C76.6844 59.596 76.6727 59.6116 76.6766 59.6233C76.6805 59.6311 76.6922 59.6389 76.6961 59.6467C76.7039 59.6584 76.7078 59.6701 76.7156 59.6818C76.7468 59.7208 76.7663 59.7676 76.7858 59.8144C76.7741 59.8183 76.7663 59.8339 76.7702 59.8495C76.7 59.8768 76.6571 59.8261 76.6532 59.7676C76.6493 59.713 76.6532 59.6506 76.6415 59.596C76.6337 59.5336 76.6103 59.4751 76.5752 59.4361C76.5635 59.4244 76.5479 59.4049 76.5284 59.4127C76.5284 59.4322 76.544 59.4439 76.5518 59.4595C76.5869 59.5609 76.5713 59.7325 76.5752 59.8534C76.5752 59.908 76.6064 59.9509 76.6415 59.9704C76.6883 59.9977 76.7507 59.9821 76.8053 59.9704C76.8209 60.0133 76.8365 60.0757 76.8482 60.1225C76.8521 60.1342 76.8521 60.1459 76.856 60.1537C76.8599 60.1576 76.8716 60.1615 76.8755 60.1693C76.8833 60.1771 76.8872 60.2083 76.8911 60.2278C76.9262 60.3642 76.9613 60.5085 76.9925 60.6372C76.9925 60.6489 76.9808 60.6528 76.9769 60.6606C76.9691 60.6801 76.973 60.6996 76.973 60.723C76.973 60.7347 76.973 60.7464 76.973 60.7542C76.973 60.7659 76.9847 60.7776 76.9886 60.7893C76.9925 60.8166 76.9886 60.84 77.0081 60.8517C77.0081 60.879 77.0237 60.9063 77.0393 60.9219C77.051 60.9336 77.0666 60.9375 77.0744 60.9492C77.0822 60.9609 77.09 60.996 77.0939 61.0155C77.0978 61.0428 77.1056 61.0662 77.1095 61.0857C77.1446 61.2261 77.1758 61.3587 77.2109 61.4991C77.3279 61.9593 77.4371 62.4155 77.5502 62.8757C77.5736 62.9693 77.6009 63.059 77.6126 63.1565C77.5931 63.1604 77.5697 63.1682 77.5502 63.176C77.519 63.1916 77.4878 63.2033 77.4527 63.215C77.402 63.2384 77.3474 63.2657 77.3084 63.293C77.3006 63.2969 77.2889 63.3047 77.2811 63.3086C77.1602 63.3905 77.0744 63.527 76.9964 63.6557C76.9847 63.6752 76.973 63.6947 76.9613 63.7142C76.9574 63.7259 76.9535 63.7415 76.9457 63.7532C76.9418 63.7649 76.9301 63.7766 76.9262 63.7882C76.9028 63.8428 76.8833 63.8974 76.8755 63.9637C76.8638 64.0456 76.8755 64.1236 76.8989 64.186C76.8638 64.186 76.7858 64.1977 76.7858 64.2328C76.7858 64.2523 76.8092 64.2718 76.8131 64.2835C76.7936 64.2913 76.7819 64.2952 76.7546 64.2874C76.7117 64.2835 76.6493 64.2757 76.6142 64.2913C76.6025 64.2991 76.583 64.3147 76.5869 64.3303C76.5869 64.3615 76.6571 64.3693 76.6883 64.3693C76.7039 64.3693 76.7156 64.3654 76.7234 64.3654C76.7507 64.3654 76.7819 64.3654 76.8053 64.3732C76.817 64.3771 76.817 64.3849 76.8209 64.3849C76.8248 64.3849 76.8365 64.3849 76.8482 64.3849C76.856 64.3849 76.8638 64.3888 76.8755 64.3888C76.9067 64.3888 76.9379 64.3888 76.9613 64.3888C76.9574 64.3966 76.9457 64.4044 76.9379 64.4122C76.9418 64.4239 76.9379 64.4317 76.9379 64.4473C76.9535 64.4746 76.973 64.4824 77.0042 64.4902C77.0666 64.5058 77.1173 64.4746 77.1758 64.4824C77.2187 64.4863 77.2616 64.5097 77.3123 64.5019C77.2928 64.5253 77.2772 64.5682 77.2967 64.5955C77.3084 64.6111 77.324 64.6111 77.3357 64.6189C77.3825 64.6228 77.4293 64.6228 77.4722 64.6189C77.5034 64.6189 77.5619 64.5994 77.5892 64.6189C77.6009 64.6228 77.6048 64.6423 77.6165 64.6579C77.6165 64.6618 77.6282 64.6696 77.636 64.6735C77.6399 64.6774 77.6477 64.6891 77.6516 64.693C77.6711 64.7047 77.7296 64.7164 77.7413 64.7359C77.7413 64.7359 77.7374 64.7398 77.7413 64.7437C77.7413 64.7944 77.7412 64.849 77.7685 64.888C77.7802 64.9036 77.7997 64.9114 77.8075 64.9309C77.8348 64.9465 77.8621 64.9699 77.8933 64.9894C77.9128 65.0011 77.9362 65.0089 77.9557 65.0167C77.9752 65.0284 77.9908 65.0479 78.0064 65.0635C78.0064 65.0635 78.0077 65.0635 78.0103 65.0635H78.0142C78.0025 65.0674 78.0025 65.0479 78.0025 65.0362C78.0025 65.0089 78.0142 64.9816 78.022 64.9543C78.0571 64.7866 77.9596 64.6657 77.8855 64.5877C77.8738 64.576 77.8621 64.5682 77.8582 64.5565C77.8972 64.5487 77.9206 64.5292 77.9557 64.5097C77.9713 64.5682 77.983 64.6306 77.9947 64.693C77.9986 64.7125 78.0064 64.7398 78.0181 64.7476C78.0337 64.7554 78.0688 64.7437 78.0727 64.732C78.0883 64.7086 78.0688 64.6696 78.061 64.6423C78.0493 64.5955 78.0415 64.5643 78.0298 64.5175C78.0259 64.498 78.0103 64.4629 78.0181 64.4512C78.022 64.4317 78.0844 64.4278 78.1234 64.4317C78.1429 64.4317 78.1741 64.4395 78.1975 64.4395C78.2287 64.4356 78.2521 64.4122 78.2872 64.4239C78.3028 64.4356 78.3106 64.4512 78.3262 64.4551C78.3769 64.4707 78.4354 64.4668 78.4861 64.4551C78.5095 64.4473 78.5329 64.4395 78.5563 64.4317C78.5914 64.42 78.6265 64.42 78.6499 64.4044C78.6733 64.4005 78.724 64.3888 78.724 64.3693C78.724 64.3576 78.7084 64.3576 78.7123 64.342C78.7318 64.3381 78.7513 64.3264 78.7747 64.3264C78.8059 64.3264 78.8371 64.3342 78.8644 64.3342C78.88 64.3342 78.8995 64.3264 78.9151 64.3303C78.9502 64.3342 78.9853 64.3498 79.0243 64.3459C79.0438 64.342 79.0594 64.3342 79.0867 64.3303C79.1101 64.3264 79.1374 64.3342 79.1608 64.3381C79.192 64.3381 79.231 64.3381 79.2661 64.3342C79.3129 64.3303 79.3636 64.3186 79.3948 64.303C79.4026 64.2991 79.4182 64.2835 79.4299 64.2835C79.4416 64.2835 79.465 64.2874 79.4805 64.2952C79.5 64.2952 79.5234 64.2991 79.539 64.2991C79.5585 64.2991 79.5936 64.2952 79.5936 64.2835C79.5975 64.2718 79.5741 64.2523 79.5663 64.2445C79.5195 64.2172 79.4299 64.2172 79.3714 64.225C79.3558 64.2289 79.3363 64.2406 79.3285 64.225C79.3285 64.2094 79.3519 64.2133 79.3636 64.2055C79.3753 64.2016 79.3792 64.1899 79.387 64.1821C79.4376 64.1938 79.4961 64.1938 79.5468 64.1821C79.5741 64.2016 79.6092 64.2055 79.6521 64.2094C79.656 64.2172 79.6521 64.2289 79.656 64.2367C79.6794 64.2562 79.7184 64.2601 79.7574 64.2601C79.8588 64.264 79.9719 64.2874 80.0733 64.2913C80.1162 64.3264 80.1981 64.3186 80.2527 64.3342C80.2371 64.3381 80.2254 64.3537 80.2137 64.3615C80.1396 64.342 80.0538 64.3498 79.9914 64.3693C79.9641 64.381 79.9524 64.4122 79.9758 64.4317C79.9992 64.4551 80.0499 64.459 80.0928 64.459C80.1357 64.459 80.1825 64.4707 80.2254 64.459C80.241 64.459 80.2683 64.4434 80.2761 64.4356C80.2878 64.4317 80.2917 64.4161 80.2917 64.4044C80.3346 64.4044 80.4516 64.4083 80.4594 64.3654C80.4594 64.3498 80.4477 64.3459 80.4438 64.3381C80.4672 64.342 80.4711 64.3108 80.4906 64.3069H80.5218C80.5218 64.3069 80.553 64.2991 80.5608 64.2952C80.5803 64.2835 80.5842 64.2679 80.5998 64.2562C80.6271 64.2562 80.6505 64.264 80.6739 64.2523C80.7012 64.2406 80.7207 64.2133 80.748 64.2094C80.7792 64.2016 80.8026 64.2094 80.8338 64.2172C80.8611 64.2211 80.8923 64.2328 80.9235 64.2328C80.9508 64.2367 80.9898 64.2328 81.0132 64.2172C81.0288 64.2133 81.0405 64.1938 81.0561 64.1899C81.0834 64.1821 81.1185 64.186 81.138 64.1587C81.138 64.1548 81.138 64.1392 81.138 64.1353C81.1926 64.1119 81.216 64.0729 81.2082 63.9988C81.2043 63.9286 81.1497 63.8818 81.0834 63.8701L81.0951 63.8818ZM79.5196 64.3654C79.5702 64.3537 79.6599 64.3498 79.6794 64.3966C79.7379 64.3966 79.7925 64.4083 79.8237 64.4317C79.8315 64.4551 79.8159 64.4629 79.7964 64.4785C79.773 64.4902 79.7379 64.5097 79.695 64.5019C79.6794 64.5019 79.656 64.4902 79.6404 64.4824C79.6014 64.4785 79.5546 64.4824 79.5273 64.4824C79.4844 64.4785 79.4026 64.4785 79.3753 64.4551C79.3636 64.4473 79.3597 64.4317 79.3714 64.42C79.348 64.4161 79.309 64.4083 79.2973 64.3927C79.2544 64.3576 79.3441 64.3459 79.3714 64.3459C79.3987 64.3459 79.4221 64.3498 79.4416 64.3576C79.4571 64.3615 79.465 64.3732 79.4767 64.3732C79.4883 64.3732 79.504 64.3654 79.5196 64.3615V64.3654ZM79.3168 63.7999C79.3168 63.7999 79.3636 63.7805 79.3792 63.7688C79.348 63.7337 79.2505 63.7376 79.2544 63.8078C79.2583 63.835 79.3207 63.8428 79.3168 63.8039V63.7999ZM79.7847 62.9927C79.7847 62.9927 79.8393 62.9849 79.8549 62.9927C79.8588 63.0161 79.8354 63.0356 79.8159 63.0317C79.8003 63.0317 79.7808 63.0122 79.7808 62.9927H79.7847ZM79.6482 62.4896C79.6365 62.5325 79.695 62.5442 79.7262 62.5325C79.7262 62.5247 79.7262 62.5247 79.7184 62.5208C79.6989 62.5325 79.6638 62.5364 79.6599 62.5091C79.6599 62.5091 79.6716 62.513 79.6794 62.513C79.7028 62.4974 79.6716 62.4779 79.6482 62.4857V62.4896ZM79.7067 62.4545C79.6638 62.4311 79.6209 62.4623 79.5858 62.4545C79.578 62.4545 79.5702 62.4428 79.5624 62.4428C79.5624 62.4779 79.578 62.4935 79.6092 62.4974C79.6248 62.5442 79.6755 62.5598 79.7418 62.5598C79.7496 62.5637 79.7457 62.5754 79.7574 62.5754C79.7652 62.5754 79.7769 62.5598 79.7769 62.552C79.7769 62.5403 79.7652 62.513 79.7613 62.5091C79.7574 62.4896 79.7223 62.4662 79.7067 62.4545ZM79.9758 62.5208C80.0109 62.5364 80.0538 62.5208 80.0616 62.4857C80.0577 62.4818 80.0538 62.474 80.0421 62.474C80.0421 62.4974 80.0265 62.5208 79.9992 62.513C80.0148 62.5052 80.0148 62.4857 79.9992 62.474C79.9797 62.474 79.9719 62.4857 79.9719 62.5052C79.968 62.5091 79.9602 62.5052 79.9602 62.5208C79.9641 62.5247 79.968 62.5169 79.9758 62.5169V62.5208ZM80.0811 62.4467C80.0538 62.4467 80.0265 62.4272 79.9992 62.4311C79.9797 62.4311 79.9563 62.4506 79.9407 62.4662C79.929 62.4857 79.9134 62.5247 79.9134 62.5481C79.9134 62.552 79.9134 62.5598 79.9251 62.5637C79.9368 62.5676 79.9329 62.5481 79.9407 62.5481C79.9953 62.552 80.0304 62.552 80.0577 62.5325C80.0733 62.5208 80.0811 62.4974 80.0889 62.474C80.0967 62.4584 80.1162 62.4428 80.1084 62.4233C80.1084 62.4233 80.1084 62.4233 80.1045 62.4233C80.0967 62.4272 80.0889 62.4428 80.0772 62.4467H80.0811ZM79.8666 62.4428C79.8666 62.4428 79.8432 62.4155 79.8432 62.4116C79.8354 62.4428 79.8159 62.4467 79.8003 62.4506C79.7847 62.4545 79.7769 62.4428 79.7691 62.4428C79.7652 62.4857 79.8315 62.474 79.8432 62.4506C79.8549 62.4662 79.9017 62.4857 79.9056 62.4467C79.89 62.4545 79.8744 62.4506 79.8588 62.4428H79.8666ZM78.6538 61.1949C78.6928 61.1559 78.6889 61.0896 78.646 61.0623C78.646 61.0623 78.646 61.0623 78.6421 61.0623C78.6226 61.074 78.6031 61.0974 78.5992 61.1247C78.5992 61.1559 78.6109 61.1754 78.6226 61.191C78.6343 61.2105 78.6421 61.2105 78.6577 61.1949H78.6538ZM78.6343 61.0506C78.5953 61.0545 78.5641 61.074 78.5524 61.0974C78.5407 61.1169 78.5368 61.1481 78.5485 61.1715C78.5602 61.1949 78.6031 61.2261 78.6343 61.2261C78.6694 61.2261 78.7123 61.1988 78.724 61.1754C78.7552 61.1091 78.7006 61.0467 78.6304 61.0506H78.6343ZM78.6304 59.8378C78.6304 59.8378 78.646 59.8339 78.6538 59.8339C78.6538 59.8417 78.6343 59.8378 78.6304 59.8378ZM78.724 59.7832C78.724 59.7832 78.7435 59.791 78.7435 59.8105C78.724 59.8105 78.7162 59.8144 78.7084 59.8144C78.7084 59.8339 78.6967 59.8495 78.6811 59.8573C78.6655 59.8612 78.6343 59.8612 78.6226 59.8573C78.6031 59.8495 78.6031 59.8261 78.5953 59.8144C78.5875 59.8144 78.5758 59.8144 78.5641 59.8144C78.5602 59.8066 78.5563 59.791 78.5641 59.7871C78.5719 59.7871 78.5719 59.7988 78.5875 59.7988C78.607 59.8027 78.6265 59.7754 78.6538 59.7949C78.6616 59.7949 78.6733 59.7871 78.685 59.791C78.6928 59.791 78.7045 59.7949 78.7123 59.7949C78.7162 59.7949 78.724 59.7871 78.7279 59.7871L78.724 59.7832Z" fill="#191917"/>
<path fill-rule="evenodd" clip-rule="evenodd" d="M78.646 38.1628L76.0721 57.4901L78.6499 56.1174V38.1628H78.646Z" fill="#EE7A00"/>
<path fill-rule="evenodd" clip-rule="evenodd" d="M73.1473 60.1459L63.2146 56.909L73.7206 62.9537L73.1473 60.1459Z" fill="#EE7A00"/>
<path fill-rule="evenodd" clip-rule="evenodd" d="M94.0774 56.9012L82.1207 58.1882L84.1759 60.1342L94.0774 56.9012Z" fill="#EE7A00"/>
<path fill-rule="evenodd" clip-rule="evenodd" d="M82.0973 66.5805L88.4071 75.1366L83.2516 64.0495L82.0973 66.5805Z" fill="#EE7A00"/>
<path fill-rule="evenodd" clip-rule="evenodd" d="M68.881 75.1483L78.0805 66.9978L75.2064 66.5766L68.8849 75.1483H68.881Z" fill="#EE7A00"/>
<path fill-rule="evenodd" clip-rule="evenodd" d="M79.0048 66.7872L81.9374 66.366L83.1151 63.7532L79.0048 66.7872Z" fill="#EE7A00"/>
<path fill-rule="evenodd" clip-rule="evenodd" d="M74.1886 63.7571L75.3663 66.3621L78.2911 66.7872L74.1847 63.7571H74.1886Z" fill="#EE7A00"/>
<path fill-rule="evenodd" clip-rule="evenodd" d="M75.4911 58.2701L73.4047 60.2278L73.9897 63.0629L75.4911 58.2701Z" fill="#EE7A00"/>
<path fill-rule="evenodd" clip-rule="evenodd" d="M81.8048 58.2701L83.8912 60.2278L83.3062 63.0668L81.8048 58.274V58.2701Z" fill="#EE7A00"/>
<path fill-rule="evenodd" clip-rule="evenodd" d="M81.255 57.8294L78.6538 56.4216L76.0448 57.8294H81.255Z" fill="#EE7A00"/>
</g>
<rect x="1" y="1" width="110" height="110" rx="9" stroke="#CCCCCC" stroke-width="2"/>
<defs>
<clipPath id="clip0_642_1038">
<rect x="2" y="2" width="108" height="108" rx="8" fill="white"/>
</clipPath>
</defs>
</svg>
