<svg width="112" height="112" viewBox="0 0 112 112" fill="none" xmlns="http://www.w3.org/2000/svg">
<g clip-path="url(#clip0_528_47)">
<rect x="2" y="2" width="108" height="108" rx="8" fill="white"/>
<path d="M16.0544 54.6984C16.0544 54.4699 16.0791 54.2507 16.1285 54.0376C16.2737 53.3923 16.7924 52.5277 17.7187 52.5277C19.0187 52.5277 18.8087 54.6243 16.9221 54.1982C17.1197 54.5625 17.7249 55.6772 17.9781 56.0971C18.6605 57.2334 19.9542 57.5268 20.7138 57.0636C20.229 57.4187 19.6331 57.6287 18.9847 57.6287C17.3667 57.6287 16.0544 56.3164 16.0544 54.6984ZM20.2599 51.9905C20.2599 51.9905 20.2537 51.9905 20.2476 51.9905C20.2321 51.9905 20.2167 52.0028 20.2167 52.0213C20.2167 52.0337 20.2229 52.043 20.2352 52.0491C21.2264 52.5185 21.9149 53.5282 21.9149 54.7015C21.9149 55.0442 21.8563 55.3715 21.7482 55.6772C21.5444 56.2824 20.8404 56.4275 20.3803 55.6587C20.297 55.5197 19.8184 54.6212 19.6733 54.3526C21.918 53.9234 20.6335 51.0364 17.7897 51.9627C17.7619 51.9719 17.7681 52.009 17.7928 52.0028C20.4174 51.4409 20.8281 54.3186 18.6975 54.4082C18.9353 54.8281 19.3336 55.5228 19.4942 55.8069C19.9234 56.5727 20.6459 56.7425 21.3159 56.3781C21.3715 56.3473 21.4178 56.3133 21.4456 56.2824C21.3962 56.3596 21.3437 56.4368 21.285 56.5078C20.9979 56.8444 19.7906 57.2489 18.9476 55.881C18.7562 55.5691 18.2838 54.72 18.0954 54.3526C19.7751 54.3711 20.0561 52.2838 18.2745 52.1418C17.4995 52.0769 16.249 52.6265 15.7518 54.0068C15.616 54.3742 15.5419 54.7725 15.5419 55.1863C15.5419 57.0852 17.0826 58.626 18.9816 58.626C20.8806 58.626 22.4213 57.0852 22.4213 55.1863C22.4213 53.7381 21.5259 52.4969 20.2568 51.9905" fill="#009E5E"/>
<path d="M16.4033 59.892H16.286V59.5986H16.4188C16.5423 59.5986 16.6164 59.6511 16.6164 59.7407C16.6164 59.8302 16.5361 59.892 16.4033 59.892ZM16.5917 59.9753C16.709 59.9475 16.7893 59.8549 16.7893 59.7376C16.7893 59.4844 16.5855 59.4504 16.3817 59.4504H16.1193V60.4941H16.286V60.0402H16.3663C16.4435 60.0402 16.4867 60.0402 16.5299 60.1359L16.6905 60.4972H16.8758L16.6751 60.0772C16.6473 60.0217 16.6257 59.9969 16.5886 59.9784M17.061 60.4972H17.6539V60.3489H17.2247V60.0278H17.6137V59.8796H17.2247V59.5986H17.6539V59.4504H17.061V60.4972ZM18.0059 59.7098C18.0059 59.5955 18.1263 59.5832 18.1757 59.5832C18.2498 59.5832 18.2899 59.5955 18.3671 59.6264L18.3764 59.6326L18.4011 59.4782H18.3949C18.327 59.4504 18.2467 59.4381 18.1726 59.4381C17.9688 59.4381 17.833 59.5492 17.833 59.7252C17.833 59.9012 17.9657 59.9661 18.0862 60.0217C18.1881 60.068 18.2745 60.1112 18.2745 60.21C18.2745 60.3273 18.1603 60.3675 18.0831 60.3675C17.9997 60.3675 17.9009 60.3304 17.8731 60.3181H17.8608L17.8453 60.4694H17.8515C17.9194 60.4941 17.9904 60.5157 18.0645 60.5157C18.3085 60.5157 18.4474 60.4014 18.4474 60.2007C18.4474 60 18.2992 59.929 18.1788 59.8734C18.0862 59.8302 18.0059 59.7901 18.0059 59.7098ZM19.4386 59.9753C19.4386 60.1575 19.3521 60.3675 19.1082 60.3675C18.8643 60.3675 18.7778 60.1575 18.7778 59.9753C18.7778 59.8487 18.818 59.7376 18.889 59.6666C18.9445 59.611 19.0187 59.5832 19.1051 59.5832C19.1916 59.5832 19.2657 59.611 19.3243 59.6666C19.3954 59.7376 19.4355 59.8487 19.4355 59.9753M19.6084 59.9753C19.6084 59.6511 19.4077 59.435 19.1051 59.435C18.8025 59.435 18.6018 59.6511 18.6018 59.9753C18.6018 60.2995 18.7994 60.5157 19.1051 60.5157C19.4108 60.5157 19.6084 60.3026 19.6084 59.9753ZM20.439 60.4972H20.6397V59.4535H20.4761V60.2594C20.4483 60.2131 20.0345 59.4535 20.0345 59.4535H19.8184V60.4972H19.982V59.6727C20.0098 59.7191 20.4359 60.4972 20.4359 60.4972M21.4919 60.0988H21.109C21.1183 60.0772 21.285 59.6604 21.3005 59.6233C21.3159 59.6604 21.4827 60.0772 21.4919 60.0988ZM21.8316 60.4972L21.39 59.4535H21.2233L20.7787 60.4972H20.9516C20.9516 60.4972 21.0504 60.2501 21.0566 60.2378H21.5475L21.6525 60.4972H21.8316Z" fill="#F7922A"/>
<path d="M93.8066 57.7028C93.504 57.7028 93.1797 57.4959 93.1797 57.1624C93.1797 56.6004 93.9332 56.5171 94.3809 56.5171C94.3809 56.5171 94.7051 56.5294 94.7607 56.5294V56.8042C94.7607 57.36 94.3932 57.7028 93.8035 57.7028M95.5419 58.24L95.5357 58.1906C95.5172 58.0517 95.5079 57.8232 95.5079 57.4928V56.0076C95.5079 54.964 95.0355 54.4792 94.0196 54.4792C93.6028 54.4792 93.1983 54.5965 92.8154 54.8219L92.7907 54.8343L92.8339 55.5074L92.8988 55.4518C93.1612 55.2326 93.5503 55.0967 93.9146 55.0967C94.4982 55.0967 94.7421 55.3437 94.7576 55.9458C94.6742 55.9458 94.0968 55.9335 94.0968 55.9335C93.4607 55.9335 92.3862 56.1929 92.3862 57.1593C92.3862 57.9096 92.871 58.3234 93.7448 58.3234C94.3253 58.3234 94.668 58.027 94.8286 57.8386V58.24H95.5419ZM90.9226 53.0156V53.8462H91.7563V53.0156H90.9226ZM90.9689 54.5656V58.24H91.7162V54.5656H90.9689ZM88.7025 54.4792C88.2085 54.4792 87.7793 54.7077 87.5539 55.0628V54.5625H86.8283V58.2369H87.5755V56.5325C87.5755 55.9983 87.7114 55.0998 88.6223 55.0998C89.1379 55.1307 89.3386 55.4796 89.3386 56.338V58.24H90.0858V56.0663C90.0858 55.0288 89.6072 54.4823 88.6995 54.4823M84.2284 57.7059C83.9258 57.7059 83.6016 57.499 83.6016 57.1655C83.6016 56.6035 84.355 56.5202 84.8058 56.5202C84.8058 56.5202 85.13 56.5325 85.1856 56.5325V56.8073C85.1856 57.3631 84.8182 57.7059 84.2284 57.7059ZM85.9668 58.2431L85.9606 58.1937C85.9421 58.0548 85.9329 57.8263 85.9329 57.4959V56.0107C85.9329 54.967 85.4604 54.4823 84.4446 54.4823C84.0277 54.4823 83.6232 54.5996 83.2403 54.825L83.2187 54.8374L83.262 55.5105L83.3268 55.4549C83.5893 55.2357 83.9752 55.0998 84.3396 55.0998C84.9232 55.0998 85.1702 55.3468 85.1825 55.9489C85.0992 55.9489 84.5248 55.9366 84.5248 55.9366C83.8888 55.9366 82.8142 56.196 82.8142 57.1624C82.8142 57.9127 83.2959 58.3265 84.1728 58.3265C84.7533 58.3265 85.0961 58.0301 85.2566 57.8417V58.2431H85.9668ZM80.3564 57.7059C80.131 57.7059 79.9396 57.6225 79.779 57.4619C79.4918 57.1686 79.3992 56.7023 79.4085 56.3936C79.3992 55.9551 79.5227 55.5753 79.742 55.3499C79.8994 55.1894 80.1032 55.106 80.3502 55.106C81.0511 55.106 81.3692 55.7853 81.3692 56.4152C81.3692 57.0451 81.0511 57.7089 80.3564 57.7089M81.3692 55.0072C81.1191 54.6675 80.7331 54.4884 80.2082 54.4884C79.109 54.4884 78.618 55.4209 78.618 56.3473C78.618 57.2736 79.0318 58.3327 80.202 58.3327C80.7733 58.3327 81.1808 58.0733 81.397 57.8077V58.2462H82.1164V52.8736H81.3692V55.0072ZM78.4081 54.5348C78.2753 54.507 78.1734 54.4884 77.9758 54.4884C77.6238 54.4884 77.2718 54.7169 77.0711 55.0504V54.5749H76.364V58.2493H77.1112V56.5727C77.1112 55.7081 77.4786 55.1523 78.0468 55.1523C78.1826 55.1523 78.3 55.1708 78.3957 55.211L78.4544 55.2357V54.544L78.405 54.5348H78.4081ZM73.9926 55.1091C74.5607 55.1091 74.8263 55.5599 74.8417 56.023H73.0817C73.1435 55.5722 73.4121 55.1091 73.9957 55.1091M75.6353 56.5572C75.6353 55.1832 75.0887 54.4854 74.008 54.4854C72.9922 54.4854 72.282 55.2511 72.282 56.3442C72.282 57.6225 72.9582 58.3296 74.184 58.3296C74.712 58.3296 75.0023 58.2184 75.237 58.1289L75.3605 58.0826V57.3014L75.2894 57.36C75.1412 57.4805 74.641 57.7089 74.2118 57.7089C73.5881 57.7089 73.1002 57.2242 73.0786 56.6004H75.6353V56.5572ZM70.2163 55.5784H69.5648V53.945H70.1206C70.5374 53.945 71.1611 54.1581 71.1611 54.7478C71.1611 55.3376 70.6548 55.5691 70.2194 55.5691M70.1082 53.241H68.7774V58.24H69.5679V56.2762H70.2132C71.3279 56.2762 71.9948 55.7081 71.9948 54.754C71.9948 53.7999 71.3433 53.241 70.1082 53.241ZM38.002 56.4615C38.1379 56.619 39.5397 58.2308 39.5397 58.2308H40.605C40.605 58.2308 38.7492 56.2546 38.6937 56.196C38.7523 56.1404 40.4043 54.5656 40.4043 54.5656H39.3791C39.3791 54.5656 38.1348 55.8254 38.002 55.9582V52.8766H37.2579V58.2277H38.002V56.4584V56.4615ZM33.108 54.5625V58.2277H33.8521V56.5294C33.8521 55.9953 33.988 55.0967 34.8988 55.0967C35.4145 55.1276 35.6121 55.4765 35.6121 56.3318V58.2277H36.3563V56.057C36.3563 55.0226 35.8777 54.4761 34.973 54.4761C34.482 54.4761 34.0528 54.7046 33.8305 55.0597V54.5625H33.1049H33.108ZM30.5204 57.6935C30.2209 57.6935 29.8967 57.4866 29.8967 57.1532C29.8967 56.5912 30.647 56.5078 31.0948 56.5078C31.0948 56.5078 31.419 56.5171 31.4746 56.5202V56.795C31.4746 57.3477 31.1102 57.6935 30.5204 57.6935ZM30.4649 58.3141C31.0423 58.3141 31.385 58.0177 31.5456 57.8294V58.2277H32.2558L32.2496 58.1783C32.2311 58.0362 32.2218 57.8108 32.2218 57.4804V55.9983C32.2218 54.9578 31.7525 54.473 30.7397 54.473C30.3259 54.473 29.9214 54.5872 29.5385 54.8157L29.5169 54.8281L29.5602 55.5012L29.625 55.4456C29.8844 55.2264 30.2734 55.0905 30.6347 55.0905C31.2183 55.0905 31.4622 55.3407 31.4746 55.9366C31.3912 55.9366 30.8169 55.9242 30.8169 55.9242C30.1839 55.9242 29.1094 56.1805 29.1094 57.147C29.1094 57.8942 29.591 58.3049 30.4649 58.3049M26.457 55.9891C27.0282 55.9891 27.6828 56.0817 27.6828 56.8104C27.6828 57.3292 27.3246 57.5607 26.5249 57.5607H26.0402V55.9891H26.457ZM26.0432 53.9049H26.738C26.9973 53.9049 27.5995 53.9728 27.5995 54.5903C27.5995 55.2789 27.0498 55.3345 26.386 55.3345H26.0432V53.9049ZM28.3868 54.5131C28.3868 53.664 27.794 53.2348 26.6237 53.2348H25.2528V58.2277H26.6021C27.8866 58.2277 28.5134 57.7861 28.5134 56.8783C28.5134 56.2484 28.1151 55.7946 27.4914 55.6803C28.0904 55.4889 28.3868 55.1091 28.3868 54.5193M63.5592 57.6904C63.2597 57.6904 62.9354 57.4835 62.9354 57.1501C62.9354 56.5881 63.6858 56.5047 64.1335 56.5047C64.1335 56.5047 64.4577 56.514 64.5133 56.5171V56.7919C64.5133 57.3446 64.1489 57.6904 63.5592 57.6904ZM65.2945 58.2246L65.2852 58.1752C65.2667 58.0362 65.2574 57.8077 65.2574 57.4774V55.9953C65.2574 54.9547 64.7881 54.4699 63.7753 54.4699C63.3615 54.4699 62.9571 54.5842 62.5742 54.8127L62.5526 54.825L62.5958 55.4981L62.6606 55.4425C62.92 55.2233 63.3091 55.0875 63.6703 55.0875C64.2539 55.0875 64.4978 55.3376 64.5102 55.9335C64.4268 55.9335 63.8525 55.9211 63.8525 55.9211C63.2195 55.9211 62.145 56.1774 62.145 57.1439C62.145 57.8911 62.6267 58.3018 63.5005 58.3018C64.0779 58.3018 64.4206 58.0054 64.5812 57.817V58.2153H65.2914L65.2945 58.2246ZM58.273 54.5595V58.2246H59.0202V56.5263C59.0202 55.9922 59.1561 55.0936 60.0638 55.0936C60.5795 55.1245 60.7802 55.4734 60.7802 56.3287V58.2246H61.5243V56.0539C61.5243 55.0195 61.0457 54.473 60.141 54.473C59.6501 54.473 59.2209 54.7015 58.9986 55.0566V54.5595H58.273ZM55.7534 57.6904C55.0123 57.6904 54.6727 57.0173 54.6727 56.3905C54.6727 55.7637 55.0525 55.0936 55.7534 55.0936C56.4543 55.0936 56.8279 55.7637 56.8279 56.3905C56.8279 57.0173 56.4913 57.6904 55.7534 57.6904ZM55.7534 58.311C56.8156 58.311 57.6153 57.4866 57.6153 56.3936C57.6153 55.3005 56.8495 54.4761 55.7534 54.4761C54.6572 54.4761 53.8853 55.2635 53.8853 56.3936C53.8853 57.5237 54.6881 58.311 55.7534 58.311ZM52.0265 57.6904C51.8567 57.6904 51.4861 57.6132 51.2268 57.4434L51.165 57.4033L51.1218 58.0918L51.1465 58.1042C51.48 58.2833 51.8567 58.3049 52.15 58.3049C52.7922 58.3049 53.4407 57.9467 53.4407 57.147C53.4407 56.4831 52.9466 56.2577 52.5113 56.0632C52.1778 55.9119 51.8906 55.7822 51.8906 55.4858C51.8906 55.1894 52.2056 55.0936 52.4804 55.0936C52.6224 55.0936 53.0084 55.1801 53.1535 55.2696L53.2122 55.3036L53.277 54.6243L53.243 54.615C53.0022 54.544 52.7367 54.473 52.4094 54.473C51.6035 54.473 51.1033 54.9115 51.1033 55.6186C51.1033 56.2021 51.5942 56.4399 52.0265 56.6499C52.3631 56.8135 52.6533 56.9555 52.6533 57.218C52.6533 57.6657 52.1284 57.6873 52.0234 57.6873M48.8863 55.0905C49.4544 55.0905 49.7169 55.5414 49.7292 56.0014H47.9723C48.034 55.5506 48.3027 55.0905 48.8832 55.0905M50.5197 56.5356C50.5197 55.1647 49.9731 54.4699 48.8986 54.4699C47.8858 54.4699 47.1788 55.2326 47.1788 56.3226C47.1788 57.6009 47.8519 58.3018 49.0746 58.3018C49.5995 58.3018 49.8898 58.1906 50.1244 58.1042L50.248 58.0579V57.2767L50.1769 57.3353C50.0287 57.4557 49.5316 57.6842 49.1024 57.6842C48.4818 57.6842 47.9939 57.1995 47.9723 56.5757H50.5228V56.5325L50.5197 56.5356ZM45.7183 54.6181C45.7183 55.0689 45.3385 55.3407 44.7024 55.3407H44.1497V53.945H44.7796C45.3786 53.945 45.7183 54.192 45.7183 54.6243M46.5489 54.612C46.5489 53.4046 45.567 53.2441 44.6036 53.2441H43.3592V58.2277H44.1466V56.0508H44.5233C44.8938 56.0508 45.1007 56.0508 45.3076 56.5016L46.0703 58.2246H46.9657L46.0116 56.2114C45.8757 55.9489 45.7707 55.8285 45.6009 55.7421C46.1721 55.6031 46.5489 55.1616 46.5489 54.6089" fill="black"/>
</g>
<rect x="1" y="1" width="110" height="110" rx="9" stroke="#CCCCCC" stroke-width="2"/>
<defs>
<clipPath id="clip0_528_47">
<rect x="2" y="2" width="108" height="108" rx="8" fill="white"/>
</clipPath>
</defs>
</svg>
