<svg width="113" height="112" viewBox="0 0 113 112" fill="none" xmlns="http://www.w3.org/2000/svg">
<g clip-path="url(#clip0_517_510)">
<rect x="2.5" y="2" width="108" height="108" rx="8" fill="white"/>
<path fill-rule="evenodd" clip-rule="evenodd" d="M52.0752 59.8781C54.1786 60.3104 56.2071 59.8332 58.1777 58.6365L51.7075 64.9345L49.3346 62.5588L52.0752 59.8781Z" fill="#C13439"/>
<path fill-rule="evenodd" clip-rule="evenodd" d="M58.6446 61.0205L53.1157 66.4222L52.0556 65.3602L58.1299 59.3831C61.2963 56.5022 61.853 53.4444 61.1007 50.2987C62.508 54.3857 62.6006 56.0334 60.7732 58.5625C60.1248 59.4608 59.4343 60.2496 58.6446 61.0205Z" fill="#EC9033"/>
<path fill-rule="evenodd" clip-rule="evenodd" d="M59.6803 62.1639L54.1168 67.4683L53.4441 66.7684L59.5278 60.7773C62.5566 57.7541 63.1461 56.0372 62.4125 52.6238C63.5447 55.7705 63.3781 57.6727 61.8399 59.792C61.1952 60.6809 60.4691 61.4126 59.6803 62.1639Z" fill="#DABD29"/>
<path fill-rule="evenodd" clip-rule="evenodd" d="M58.2928 47.0697C60.7377 49.9628 59.6495 54.7759 55.2144 55.8407C56.573 55.1614 57.3449 54.1209 57.6237 53.0205C58.1328 51.0079 57.0287 48.9897 55.0778 48.3179C53.9503 47.9286 52.6544 48.0138 51.6102 48.6266C50.0195 49.5604 49.2813 51.5543 49.8034 53.3312C50.4359 55.487 52.5571 56.5499 54.6895 56.4657C58.5912 56.3104 61.2504 52.2439 59.8516 48.5368C63.089 54.6561 57.4684 60.4358 52.0696 59.0856C48.6366 58.2276 46.1449 54.6758 46.5295 51.1614C46.8139 48.5714 48.6301 46.4297 51.0291 45.5005C53.5508 44.5228 56.4953 44.942 58.2928 47.0697Z" fill="#C13439"/>
<path fill-rule="evenodd" clip-rule="evenodd" d="M65.1063 51.5515C65.9288 51.6938 66.7456 51.7377 67.5494 51.5618C67.4502 52.8428 67.3996 54.206 67.3819 55.6236C67.3688 56.7015 67.5007 57.8187 67.3903 58.9396C67.3211 59.5375 67.1292 59.996 66.8439 60.3506C66.303 61.0205 65.4768 61.4379 64.413 61.4772L64.1332 60.5789C64.8106 60.5434 65.1596 60.1738 65.1363 59.4243C65.1952 56.8297 65.2747 54.1761 65.1063 51.5515ZM93.94 51.6161C94.8223 51.7639 95.6775 51.7752 96.5 51.6114C96.1791 54.5036 96.2268 57.2966 96.4888 60.0297C95.5915 59.9165 94.7353 59.9305 93.9044 60.0222C94.1627 57.2133 94.1449 54.4119 93.94 51.6161ZM87.5288 51.6311C88.7508 51.7471 89.9119 51.6442 91.104 51.6507C92.5608 51.7153 93.3028 52.5508 93.3851 53.4622C93.4563 54.2379 93.0726 55.0715 92.0106 55.5179C93.2158 55.8743 93.7538 56.9438 93.5377 57.9796C93.3346 58.9555 92.6263 59.8987 90.7961 59.9932C89.6836 60.069 89.2317 59.8622 87.4595 60.0128C87.6944 57.2339 87.6644 54.4362 87.5288 51.6311ZM89.751 52.7324C89.7351 53.5202 89.7145 54.3108 89.7182 55.0996C90.7793 55.1398 91.1994 54.5158 91.2003 53.8776C91.2003 53.5689 91.1414 53.2423 90.9365 53.0168C90.7026 52.7595 90.2881 52.6294 89.751 52.7324ZM89.7154 56.1897C89.6986 56.9775 89.7145 58.1172 89.7182 58.905C90.5828 59.0126 90.8364 58.7375 91.0394 58.4343C91.2518 58.1162 91.293 57.7775 91.2939 57.451C91.2939 57.1422 91.1685 56.7754 90.9646 56.5508C90.7297 56.2926 90.2525 56.0858 89.7154 56.1897ZM77.9194 51.6255C78.3461 51.7349 78.7737 51.7714 79.2003 51.603C80.0303 53.4135 80.9314 55.1801 81.867 56.9251C82.8018 55.1819 83.714 53.4191 84.5758 51.6096C85.0015 51.7143 85.4413 51.7312 85.9007 51.6114C86.1851 54.4474 86.537 57.2489 86.9618 60.0128C86.1636 59.9146 85.3655 59.9052 84.5674 60.0063L84.1444 55.1838C83.308 56.7679 82.4696 58.3642 81.7201 60.0081L81.0043 60.011L78.6015 55.2867C78.4144 56.8596 78.2759 58.454 78.1852 60.0699C77.6752 59.9146 77.1615 59.909 76.645 60.0446C76.6647 59.8687 76.6553 59.72 76.6544 59.5422C77.2064 57.0336 77.5564 54.323 77.9194 51.6255ZM71.3837 51.5525C71.7861 51.6713 72.1884 51.6872 72.5908 51.5618C73.7501 54.3239 74.9374 57.0365 76.1894 59.6273L76.1753 60.0156C75.3323 59.9174 74.4958 59.9211 73.6659 60.0343C73.4207 59.211 73.1372 58.4081 72.7994 57.6315C71.9302 57.5838 71.0469 57.5782 70.1505 57.6091C69.8174 58.3576 69.5152 59.1567 69.2607 60.0381C68.7695 59.8968 68.252 59.9099 67.714 60.054L67.7253 59.6348C69.0109 56.9513 70.2712 54.2631 71.3837 51.5525ZM71.4913 54.5279L72.3447 56.519L70.6174 56.5143L71.4913 54.5279Z" fill="#332C2B"/>
<path fill-rule="evenodd" clip-rule="evenodd" d="M16.5 51.9735H19.2658C20.9697 51.9885 21.3945 52.7829 21.4226 53.6053C21.4497 54.3894 20.9295 55.1932 19.5784 55.6255C21.2298 55.763 21.8212 56.7211 21.6902 57.7466C21.5676 58.7122 20.7611 59.8846 18.4715 59.8042H16.5C16.6095 57.188 16.6291 54.5766 16.5 51.9735ZM38.8382 51.9988C39.2022 52.0765 39.5653 52.0736 39.9292 51.9988L39.8787 55.4C39.8871 55.5731 39.8899 55.6638 39.9882 55.6432C40.9332 54.9228 42.2544 53.4538 43.6429 51.9988C43.9564 52.0334 44.268 52.0297 44.5786 51.9988L40.966 55.5113L44.7442 59.7621L44.7451 59.8285C44.2848 59.749 43.8759 59.7742 43.482 59.8266C42.3798 58.4849 41.2607 57.1646 40.0995 55.8959C40.0275 55.865 39.9545 55.8528 39.8806 55.865C39.8806 57.1824 39.86 58.497 39.948 59.8285C39.5858 59.7967 39.2172 59.7911 38.8382 59.822C39.0216 57.1656 39.0057 54.5625 38.8382 51.9988ZM30.8495 51.8248H31.0432L36.8827 57.9328C36.9594 55.9763 36.9416 53.988 36.8799 51.9848C37.1437 52.0503 37.4095 52.0615 37.6771 51.9913C37.6219 52.4245 37.6135 52.8933 37.5863 53.3443C37.4544 55.5366 37.3945 57.742 37.4778 59.9726L37.3327 59.9698L31.4081 53.6521C31.3809 55.4074 31.3594 57.2124 31.4184 58.8863C31.4296 59.2269 31.4549 59.501 31.4726 59.8369C31.2275 59.7864 30.9636 59.7855 30.6782 59.8407C30.827 57.1768 30.8598 54.5027 30.8495 51.8248ZM26.0092 51.8351H26.2301L29.7519 59.8341C29.3271 59.7555 28.9295 59.7714 28.544 59.8322C28.1735 58.7646 27.7702 57.7354 27.3201 56.7604C26.3367 56.7239 25.344 56.7221 24.3409 56.7576C23.9339 57.7289 23.5437 58.7469 23.176 59.8248C22.9215 59.778 22.6408 59.7789 22.3395 59.8191L26.0092 51.8351ZM24.5374 56.2739L25.8333 53.3293L27.1395 56.2889C26.2974 56.2589 25.4329 56.2505 24.5374 56.2739ZM17.5405 52.4217C19.5185 52.2795 20.3915 52.5143 20.4008 53.9384C20.3419 54.5878 20.049 54.9593 19.5306 55.2269C19.263 55.3653 18.9608 55.414 18.6277 55.4346C18.289 55.4552 17.9194 55.501 17.5208 55.472L17.5405 52.4217ZM17.5115 55.8893C18.9627 55.8248 19.7225 55.9558 20.1519 56.3703C20.7816 56.9794 20.7349 58.061 20.2249 58.7291C19.9742 59.0566 19.6167 59.2596 19.1536 59.3532C18.7129 59.4421 18.1674 59.3719 17.548 59.3326L17.5115 55.8893Z" fill="#332C2B"/>
</g>
<rect x="1.5" y="1" width="110" height="110" rx="9" stroke="#CCCCCC" stroke-width="2"/>
<defs>
<clipPath id="clip0_517_510">
<rect x="2.5" y="2" width="108" height="108" rx="8" fill="white"/>
</clipPath>
</defs>
</svg>
