<svg width="112" height="112" viewBox="0 0 112 112" fill="none" xmlns="http://www.w3.org/2000/svg">
<g clip-path="url(#clip0_528_603)">
<rect x="2" y="2" width="108" height="108" rx="8" fill="white"/>
<path fill-rule="evenodd" clip-rule="evenodd" d="M31.1759 56.8444C31.7181 56.9706 32.1005 57.1235 32.3192 57.3027C32.6342 57.5572 32.7914 57.8877 32.7914 58.2941C32.7914 58.7219 32.6197 59.0769 32.2748 59.3577C31.8529 59.6967 31.239 59.8657 30.4348 59.8657H27.544V59.7197C27.8071 59.7197 27.9862 59.6951 28.0793 59.6453C28.1734 59.5961 28.2391 59.532 28.2766 59.4534C28.3151 59.3748 28.3338 59.1801 28.3338 58.8694V55.1691C28.3338 54.8584 28.3151 54.6637 28.2766 54.5835C28.2391 54.5033 28.1723 54.4391 28.0777 54.3905C27.9819 54.3429 27.8044 54.3188 27.544 54.3188V54.1728H30.2717C30.9241 54.1728 31.385 54.2317 31.6567 54.3472C31.9283 54.4632 32.1417 54.6365 32.2994 54.8669C32.455 55.0974 32.5342 55.3434 32.5342 55.6022C32.5342 55.8771 32.4336 56.1204 32.2336 56.3353C32.0331 56.5481 31.6807 56.7187 31.1759 56.8444ZM29.6476 56.7316C30.0482 56.7316 30.3444 56.6872 30.5348 56.5968C30.7251 56.5086 30.8711 56.3824 30.9727 56.2193C31.0743 56.0578 31.1257 55.8498 31.1257 55.5979C31.1257 55.3461 31.0754 55.1402 30.9754 54.9798C30.8754 54.8183 30.7321 54.6969 30.5449 54.6119C30.3588 54.5279 30.0594 54.4878 29.6476 54.4905V56.7316ZM29.6476 57.0578V59.0914C29.6476 59.2416 29.6845 59.3561 29.7605 59.432C29.8364 59.509 29.9482 59.5475 30.0968 59.5475C30.3171 59.5475 30.5193 59.4978 30.7048 59.3988C30.8909 59.2999 31.0326 59.1571 31.1315 58.9684C31.2305 58.7807 31.2802 58.5705 31.2802 58.34C31.2802 58.0754 31.2246 57.8379 31.1144 57.6272C31.0027 57.4171 30.8396 57.2679 30.6219 57.1823C30.4043 57.0963 30.0797 57.0551 29.6476 57.0578ZM36.6554 58.2427H34.6645L34.417 58.7978C34.3384 58.9839 34.2999 59.1384 34.2999 59.2603C34.2999 59.4218 34.364 59.5405 34.4913 59.6181C34.5672 59.6625 34.7533 59.6967 35.0496 59.7197V59.8657H33.1593V59.7197C33.3625 59.6881 33.5314 59.602 33.6614 59.4635C33.7935 59.3229 33.9566 59.0341 34.148 58.5962L36.18 54.0611H36.2602L38.3109 58.7219C38.5072 59.1684 38.6671 59.4507 38.7933 59.5662C38.889 59.655 39.0221 59.7052 39.197 59.7197V59.8657H36.4463V59.7197H36.5591C36.78 59.7197 36.9356 59.6881 37.0243 59.625C37.0858 59.5806 37.1158 59.5149 37.1158 59.4304C37.1158 59.379 37.1088 59.3261 37.0917 59.2716C37.0858 59.2475 37.0447 59.14 36.9655 58.9523L36.6554 58.2427ZM36.5206 57.9337L35.672 55.9947L34.8036 57.9337H36.5206ZM41.4263 54.1728L44.2299 57.6989V55.2546C44.2299 54.9097 44.1807 54.6782 44.0823 54.5563C43.9476 54.3921 43.7214 54.3129 43.4054 54.3188V54.1728H45.2855V54.3188C45.0454 54.3504 44.8839 54.3905 44.8005 54.4391C44.7192 54.4889 44.6545 54.5691 44.6074 54.6808C44.5615 54.7926 44.539 54.984 44.539 55.2546V59.994H44.3973L40.5547 55.2487V58.878C40.5547 59.2074 40.629 59.4304 40.7793 59.5464C40.9295 59.6625 41.1028 59.7197 41.2958 59.7197H41.4306V59.8657H39.4045V59.7197C39.7189 59.7165 39.9365 59.6523 40.0611 59.525C40.1841 59.3978 40.2456 59.1828 40.2456 58.878V54.8525L40.1269 54.7049C40.0066 54.5504 39.9007 54.4493 39.8076 54.4001C39.7162 54.352 39.5831 54.3247 39.4098 54.3188V54.1728H41.4263ZM49.0693 56.3567L51.0628 58.8636C51.3446 59.217 51.5879 59.4577 51.7927 59.5849C51.9403 59.6753 52.0975 59.7197 52.2622 59.7197V59.8657H49.3067V59.7197C49.4944 59.7026 49.6147 59.6721 49.6693 59.6309C49.7233 59.5876 49.7506 59.5363 49.7506 59.4732C49.7506 59.3544 49.6233 59.1315 49.3655 58.8037L48.0635 57.1663L47.8501 57.3385V58.8951C47.8501 59.1946 47.8672 59.3801 47.9004 59.4534C47.9346 59.5261 47.9988 59.5892 48.095 59.6405C48.1907 59.694 48.3437 59.7197 48.5543 59.7197V59.8657H45.6865V59.7197H45.8737C46.0384 59.7197 46.1716 59.6892 46.2716 59.6309C46.3448 59.5908 46.4004 59.5234 46.4389 59.4277C46.4694 59.3603 46.4849 59.1828 46.4849 58.8951V55.1429C46.4849 54.8498 46.4694 54.6664 46.4389 54.5937C46.4079 54.5204 46.3464 54.4563 46.2534 54.4017C46.1603 54.3461 46.0341 54.3188 45.8737 54.3188H45.6865V54.1728H48.511V54.3188C48.3196 54.3188 48.172 54.3472 48.072 54.4033C47.9988 54.4434 47.9415 54.5092 47.9004 54.6022C47.8672 54.6723 47.8501 54.8525 47.8501 55.1429V56.9187L49.9666 55.2161C50.2602 54.9744 50.4061 54.7798 50.4061 54.6349C50.4061 54.5263 50.3457 54.4418 50.2254 54.3787C50.1639 54.3472 50.0126 54.3274 49.7693 54.3188V54.1728H51.9831V54.3188C51.7842 54.3333 51.628 54.3691 51.5152 54.4274C51.4018 54.4846 51.1414 54.6824 50.7339 55.0172L49.0693 56.3567ZM58.3539 54.044L58.3967 55.9418H58.2251C58.1438 55.4664 57.9443 55.0846 57.6267 54.7953C57.308 54.5065 56.9642 54.3616 56.5952 54.3616C56.3091 54.3616 56.0829 54.4375 55.9166 54.5905C55.7492 54.7423 55.6663 54.9183 55.6663 55.1161C55.6663 55.2418 55.6963 55.3535 55.7551 55.4519C55.8353 55.5824 55.9653 55.7129 56.146 55.8412C56.2776 55.9332 56.5807 56.0974 57.0561 56.3321C57.7229 56.6583 58.1721 56.9674 58.4042 57.2583C58.6341 57.5486 58.7491 57.8807 58.7491 58.2556C58.7491 58.7304 58.563 59.1384 58.1919 59.4806C57.8213 59.8223 57.3508 59.994 56.7797 59.994C56.6011 59.994 56.4305 59.9758 56.2717 59.94C56.1112 59.9042 55.9113 59.8352 55.6706 59.7336C55.5364 59.678 55.4257 59.6507 55.3386 59.6507C55.2658 59.6507 55.1899 59.6796 55.1081 59.7352C55.0268 59.7924 54.961 59.8785 54.9108 59.994H54.7648V57.8476H54.9108C55.0338 58.4502 55.2717 58.9111 55.622 59.2272C55.9738 59.5432 56.3519 59.7026 56.7583 59.7026C57.0716 59.7026 57.3219 59.6165 57.508 59.4464C57.6941 59.2758 57.7871 59.0785 57.7871 58.8507C57.7871 58.7176 57.7513 58.5876 57.6796 58.4614C57.6085 58.3358 57.501 58.2171 57.355 58.1026C57.2091 57.9893 56.9513 57.8422 56.5824 57.6604C56.0642 57.4069 55.692 57.1893 55.4658 57.0107C55.2412 56.8316 55.068 56.6316 54.9466 56.4107C54.8247 56.1893 54.7648 55.946 54.7648 55.6813C54.7648 55.2273 54.9311 54.8413 55.2642 54.522C55.5963 54.2028 56.0155 54.044 56.5219 54.044C56.7069 54.044 56.8855 54.0654 57.0588 54.1097C57.1903 54.1445 57.3508 54.206 57.5395 54.2958C57.7283 54.3862 57.8604 54.4306 57.9358 54.4306C58.009 54.4306 58.0662 54.4092 58.108 54.3648C58.1491 54.3204 58.1892 54.2129 58.2251 54.044H58.3539ZM59.2913 54.1728H62.2276V54.3188H62.08C61.8586 54.3188 61.7067 54.3418 61.6239 54.3889C61.541 54.4349 61.4822 54.499 61.4479 54.5808C61.4121 54.6621 61.395 54.8669 61.395 55.1947V57.9791C61.395 58.4887 61.4335 58.8251 61.5094 58.9898C61.5864 59.1555 61.7126 59.2919 61.8885 59.402C62.0645 59.5106 62.288 59.5651 62.5554 59.5651C62.8628 59.5651 63.1249 59.4962 63.3409 59.3577C63.5569 59.2186 63.719 59.0283 63.8259 58.785C63.9334 58.5416 63.9879 58.1181 63.9879 57.5144V55.1947C63.9879 54.9386 63.9607 54.7536 63.9077 54.645C63.8548 54.5349 63.7874 54.4589 63.7061 54.4161C63.5799 54.352 63.4024 54.3188 63.1719 54.3188V54.1728H65.1381V54.3188H65.021C64.8622 54.3188 64.7307 54.352 64.6248 54.4161C64.5189 54.4803 64.4414 54.5776 64.3943 54.7081C64.3585 54.798 64.3398 54.96 64.3398 55.1947V57.3556C64.3398 58.024 64.2954 58.5058 64.2082 58.8021C64.1195 59.0999 63.9061 59.3716 63.5655 59.6207C63.2238 59.8699 62.7602 59.994 62.1704 59.994C61.6784 59.994 61.2987 59.9282 61.0314 59.7967C60.6651 59.6181 60.4057 59.3887 60.2555 59.1085C60.1052 58.8293 60.0298 58.4529 60.0298 57.9807V55.1947C60.0298 54.8643 60.0111 54.6595 59.9753 54.5792C59.9378 54.499 59.8763 54.4349 59.7865 54.3862C59.6961 54.3386 59.5314 54.3162 59.2913 54.3188V54.1728ZM70.7208 57.8732L70.5064 59.8657H65.4659V59.7197H65.6536C65.8183 59.7197 65.9515 59.6892 66.0515 59.6309C66.1242 59.5908 66.1803 59.5234 66.2188 59.4277C66.2488 59.3603 66.2643 59.1828 66.2643 58.8951V55.1429C66.2643 54.8498 66.2488 54.6664 66.2188 54.5937C66.1873 54.5204 66.1258 54.4563 66.0328 54.4017C65.9397 54.3461 65.8141 54.3188 65.6536 54.3188H65.4659V54.1728H68.4968V54.3188H68.2482C68.0835 54.3188 67.9503 54.3488 67.8487 54.4076C67.7755 54.4477 67.7183 54.5151 67.6755 54.6108C67.6455 54.6782 67.63 54.8552 67.63 55.1429V58.7748C67.63 59.0657 67.6471 59.2518 67.6797 59.3315C67.7129 59.4117 67.7787 59.4705 67.876 59.5106C67.946 59.5347 68.115 59.5475 68.3808 59.5475H68.8535C69.154 59.5475 69.4043 59.4951 69.6048 59.3887C69.8048 59.2828 69.9797 59.1154 70.1256 58.8866C70.2716 58.6577 70.4101 58.3197 70.5406 57.8732H70.7208ZM71.2186 54.1728H74.1554V54.3188H74.0078C73.7859 54.3188 73.6346 54.3418 73.5512 54.3889C73.4683 54.4349 73.4095 54.499 73.3752 54.5808C73.3394 54.6621 73.3223 54.8669 73.3223 55.1947V57.9791C73.3223 58.4887 73.3608 58.8251 73.4367 58.9898C73.5143 59.1555 73.6399 59.2919 73.8159 59.402C73.9923 59.5106 74.2153 59.5651 74.4827 59.5651C74.7907 59.5651 75.0527 59.4962 75.2687 59.3577C75.4848 59.2186 75.6463 59.0283 75.7537 58.785C75.8612 58.5416 75.9152 58.1181 75.9152 57.5144V55.1947C75.9152 54.9386 75.888 54.7536 75.835 54.645C75.7821 54.5349 75.7152 54.4589 75.6334 54.4161C75.5078 54.352 75.3302 54.3188 75.0998 54.3188V54.1728H77.066V54.3188H76.9483C76.7895 54.3188 76.658 54.352 76.5521 54.4161C76.4462 54.4803 76.3692 54.5776 76.3216 54.7081C76.2858 54.798 76.2676 54.96 76.2676 55.1947V57.3556C76.2676 58.024 76.2233 58.5058 76.1356 58.8021C76.0473 59.0999 75.834 59.3716 75.4933 59.6207C75.1511 59.8699 74.6875 59.994 74.0982 59.994C73.6057 59.994 73.2266 59.9282 72.9587 59.7967C72.5924 59.6181 72.3336 59.3887 72.1833 59.1085C72.033 58.8293 71.9571 58.4529 71.9571 57.9807V55.1947C71.9571 54.8643 71.9384 54.6595 71.9026 54.5792C71.8657 54.499 71.8042 54.4349 71.7138 54.3862C71.624 54.3386 71.4593 54.3162 71.2186 54.3188V54.1728ZM82.6396 54.1728V55.7097H82.4941C82.4037 55.3551 82.3048 55.1001 82.1963 54.9455C82.0872 54.7894 81.9369 54.6664 81.7471 54.575C81.6412 54.5247 81.4551 54.499 81.1888 54.499H80.7594V58.8951C80.7594 59.1887 80.7755 59.3716 80.8065 59.4448C80.838 59.5175 80.9011 59.5822 80.9926 59.6363C81.0856 59.6924 81.2118 59.7197 81.3717 59.7197H81.5578V59.8657H78.5959V59.7197H78.783C78.9461 59.7197 79.0782 59.6892 79.1782 59.6309C79.2499 59.5908 79.3071 59.5234 79.3483 59.4277C79.3787 59.3603 79.3942 59.1828 79.3942 58.8951V54.499H78.982C78.6012 54.499 78.3253 54.5808 78.152 54.7423C77.9103 54.9685 77.7585 55.2904 77.6943 55.7097H77.5312V54.1728H82.6396ZM88.8735 54.044V56.0444H88.7275C88.5398 55.5006 88.258 55.0872 87.8832 54.8038C87.5083 54.5204 87.0971 54.3787 86.6522 54.3787C86.226 54.3787 85.8726 54.4974 85.5892 54.7365C85.3058 54.9755 85.1052 55.3092 84.9881 55.7353C84.8705 56.1631 84.8122 56.6011 84.8122 57.0508C84.8122 57.5957 84.8753 58.0721 85.0036 58.4828C85.1325 58.894 85.34 59.1946 85.6261 59.3876C85.9127 59.5806 86.2517 59.6764 86.6453 59.6764C86.7827 59.6764 86.9228 59.6625 87.0661 59.632C87.2105 59.6036 87.3581 59.5609 87.5083 59.5047V58.3283C87.5083 58.101 87.4923 57.9534 87.4623 57.8866C87.4324 57.8203 87.3677 57.7588 87.272 57.7059C87.1763 57.6518 87.0602 57.6246 86.9244 57.6246H86.7784V57.4786H89.543V57.6246C89.3329 57.639 89.1853 57.6674 89.1024 57.7117C89.0206 57.7561 88.9564 57.8288 88.912 57.932C88.8864 57.985 88.8735 58.1181 88.8735 58.3283V59.5047C88.5099 59.6667 88.1318 59.7881 87.7399 59.871C87.3479 59.9528 86.9399 59.994 86.518 59.994C85.9795 59.994 85.5319 59.9213 85.1758 59.7737C84.8191 59.6277 84.5042 59.4347 84.2325 59.1956C83.9604 58.9566 83.7475 58.6876 83.5941 58.3887C83.3983 58.0037 83.301 57.5716 83.301 57.0952C83.301 56.2391 83.6015 55.5182 84.2026 54.9284C84.8047 54.3386 85.5619 54.044 86.4736 54.044C86.757 54.044 87.01 54.0654 87.2378 54.1097C87.3607 54.1327 87.5597 54.1958 87.8356 54.3001C88.1105 54.4049 88.2735 54.4563 88.3238 54.4563C88.4024 54.4563 88.4757 54.4274 88.5431 54.3702C88.6099 54.3129 88.6714 54.2044 88.7275 54.044H88.8735ZM92.9386 54.1044C93.8444 54.0712 94.5818 54.3343 95.1481 54.8953C95.715 55.4578 95.9984 56.1589 95.9984 57.0032C95.9984 57.723 95.7866 58.3572 95.3642 58.9053C94.8048 59.6309 94.015 59.994 92.9931 59.994C91.9686 59.994 91.1772 59.648 90.6178 58.9555C90.1756 58.4074 89.9537 57.7588 89.9537 57.0075C89.9537 56.1631 90.2414 55.4605 90.8167 54.8985C91.3921 54.3343 92.0991 54.0712 92.9386 54.1044ZM92.9889 54.3702C92.4664 54.3702 92.0702 54.6349 91.7969 55.1659C91.575 55.6011 91.4649 56.2262 91.4649 57.0422C91.4649 58.0107 91.6365 58.7277 91.9787 59.1914C92.2178 59.5149 92.5509 59.6764 92.9803 59.6764C93.2696 59.6764 93.5113 59.6063 93.7043 59.4678C93.9509 59.2887 94.1439 59.0026 94.2813 58.6106C94.4187 58.2181 94.4872 57.7059 94.4872 57.0765C94.4872 56.3252 94.4171 55.7626 94.277 55.3904C94.1364 55.0172 93.9578 54.7536 93.7402 54.6006C93.5225 54.4477 93.2723 54.3702 92.9889 54.3702Z" fill="#014C8F"/>
<path fill-rule="evenodd" clip-rule="evenodd" d="M16.7316 62.1228L16.7653 62.1479C16.7562 62.1666 16.7476 62.1832 16.7396 62.1971C16.7316 62.2115 16.722 62.2287 16.7102 62.249C16.699 62.2693 16.6904 62.2843 16.684 62.2939C16.6338 62.3827 16.5862 62.4265 16.5418 62.4265C16.5231 62.4265 16.507 62.4196 16.4936 62.4046C16.4803 62.3896 16.4733 62.3693 16.4733 62.3436C16.4733 62.3073 16.4862 62.2575 16.5124 62.1944C16.538 62.1313 16.5781 62.0527 16.6321 61.9608C16.6867 61.8677 16.7546 61.7629 16.837 61.6458C16.9188 61.5287 17.0113 61.4052 17.1145 61.2752C17.0551 61.2667 16.9845 61.2624 16.9033 61.2624C16.8097 61.2624 16.7054 61.2725 16.591 61.2939C16.476 61.3143 16.376 61.3383 16.291 61.3656C16.206 61.3929 16.1632 61.4126 16.1632 61.4255C16.1632 61.4303 16.1648 61.4335 16.168 61.4351C16.1717 61.4367 16.1771 61.4378 16.1851 61.4389C16.1926 61.4399 16.2028 61.441 16.2145 61.4426C16.2931 61.4533 16.3332 61.4656 16.3332 61.479C16.3332 61.4854 16.3156 61.4886 16.2814 61.488C16.2471 61.4875 16.206 61.4875 16.1573 61.4875C16.1188 61.4875 16.091 61.4864 16.0739 61.4832C16.0568 61.48 16.045 61.4741 16.0397 61.4661C16.0338 61.4576 16.0311 61.4447 16.0311 61.4271C16.0311 61.4159 16.0343 61.3907 16.0413 61.3522C16.0536 61.2811 16.0733 61.2239 16.1001 61.1806C16.1268 61.1378 16.1675 61.1025 16.2225 61.0752C16.2771 61.048 16.3525 61.0266 16.4493 61.01C16.6102 60.9827 16.7439 60.9688 16.8498 60.9688C16.9279 60.9688 16.9894 60.972 17.0348 60.9784C17.0797 60.9849 17.1129 60.994 17.1343 61.0062C17.1551 61.0185 17.1685 61.0303 17.1744 61.0421C17.1803 61.0538 17.1877 61.0742 17.1974 61.1036L17.2284 61.1961C17.2305 61.2025 17.2321 61.2073 17.2332 61.2111C17.2348 61.2148 17.2359 61.2185 17.2369 61.2228C17.238 61.2266 17.2385 61.2303 17.2385 61.234C17.2385 61.2602 17.2327 61.2832 17.2209 61.3046C17.2091 61.3255 17.1877 61.3565 17.1562 61.3982C17.1246 61.4405 17.1016 61.4725 17.0872 61.4966C16.9134 61.7784 16.7952 61.987 16.7316 62.1228ZM17.7054 62.003V62.0704C17.661 62.111 17.6257 62.1378 17.599 62.1517C17.5717 62.165 17.5332 62.1704 17.4824 62.1672C17.3952 62.2709 17.3182 62.3233 17.2519 62.3233C17.2139 62.3233 17.1797 62.3105 17.1487 62.2859C17.1177 62.2607 17.0931 62.2271 17.0744 62.1837C17.0562 62.141 17.0466 62.0928 17.0466 62.0394C17.0466 61.9966 17.061 61.9485 17.0893 61.8961C17.1182 61.8436 17.1551 61.795 17.2006 61.7495C17.246 61.7041 17.2947 61.6672 17.3466 61.6394C17.3979 61.6116 17.4466 61.5971 17.4904 61.5971C17.5225 61.5971 17.5471 61.6019 17.5653 61.6116C17.5834 61.6217 17.5925 61.6351 17.5925 61.6527C17.5925 61.6661 17.585 61.6816 17.5695 61.6993C17.5952 61.7046 17.6123 61.7137 17.6219 61.726C17.631 61.7383 17.6358 61.7613 17.6358 61.7939C17.6358 61.8265 17.6284 61.8672 17.6134 61.9164C17.5979 61.9656 17.5776 62.011 17.5514 62.0543L17.5695 62.0725H17.5845C17.5963 62.0725 17.6075 62.0693 17.6182 62.064C17.6294 62.0581 17.6396 62.0522 17.6481 62.0458C17.6572 62.0394 17.676 62.0249 17.7054 62.003ZM17.4979 61.7378C17.4417 61.7715 17.3947 61.8019 17.3546 61.8292C17.315 61.8565 17.2813 61.8843 17.2535 61.9121C17.2257 61.9399 17.2075 61.9677 17.1979 61.996C17.1813 62.0714 17.1728 62.1121 17.1728 62.118C17.1728 62.1624 17.2038 62.1848 17.2658 62.1848C17.2947 62.1848 17.3428 62.1597 17.4113 62.1099C17.4 62.0784 17.3941 62.0479 17.3941 62.019C17.3941 61.9768 17.4027 61.9335 17.4203 61.8896C17.438 61.8453 17.4637 61.795 17.4979 61.7378ZM17.6936 62.0832V62.0174C17.7294 61.9741 17.7572 61.9378 17.7765 61.9073C17.7546 61.8998 17.7391 61.8912 17.7294 61.88C17.7193 61.8693 17.7145 61.8533 17.7145 61.8319C17.7145 61.8073 17.7246 61.7763 17.7449 61.7399C17.7653 61.7025 17.7899 61.6677 17.8198 61.6351C17.8492 61.603 17.8759 61.5822 17.9 61.5725C17.9102 61.5683 17.9187 61.5656 17.9278 61.5656C17.9412 61.5656 17.9481 61.572 17.9481 61.5848C17.9481 61.5961 17.9374 61.6196 17.9166 61.6544C18.0556 61.633 18.1428 61.6223 18.1797 61.6223C18.1936 61.6223 18.2032 61.6233 18.2086 61.626C18.2203 61.6319 18.2294 61.6463 18.2369 61.6688C18.2444 61.6912 18.2481 61.7132 18.2481 61.7356C18.2481 61.7495 18.2417 61.765 18.2294 61.7816C18.2171 61.7982 18.1957 61.8223 18.1652 61.8538C18.1294 61.8923 18.1 61.934 18.0754 61.9789C18.0513 62.0244 18.039 62.0586 18.039 62.0811C18.039 62.1132 18.0588 62.1287 18.0979 62.1287C18.1385 62.1287 18.2102 62.087 18.3118 62.0035V62.0714C18.2556 62.1297 18.2096 62.1757 18.1733 62.2089C18.1369 62.2431 18.1032 62.2693 18.0722 62.2891C18.0412 62.3089 18.0139 62.319 17.9893 62.319C17.961 62.319 17.9374 62.3062 17.9187 62.28C17.8995 62.2543 17.8904 62.2169 17.8904 62.1677C17.8904 62.1388 17.8979 62.1057 17.9128 62.0688C17.9278 62.0313 17.9492 61.9918 17.9781 61.9479C18.0064 61.9046 18.0385 61.8613 18.0743 61.8185C18.0556 61.8223 18.0342 61.8265 18.0107 61.8308C17.9872 61.8356 17.9626 61.8399 17.9358 61.8447C17.9096 61.8495 17.8893 61.8533 17.8754 61.8559C17.8337 61.9394 17.7727 62.0153 17.6936 62.0832ZM18.4257 61.8244C18.5283 61.7314 18.6273 61.6624 18.724 61.6175C18.8203 61.572 18.8946 61.5495 18.947 61.5495C18.9609 61.5495 18.9743 61.5554 18.9866 61.5672C18.9984 61.579 19.0085 61.5929 19.0149 61.6084C19.0224 61.6239 19.0256 61.6351 19.0256 61.6431C19.0256 61.6549 19.0208 61.664 19.0117 61.6693C19.0026 61.6752 18.9861 61.6822 18.962 61.6902C18.9668 61.7009 18.9732 61.7148 18.9802 61.7319C18.9882 61.7485 18.9935 61.7618 18.9978 61.7725C19.0016 61.7832 19.0032 61.7923 19.0032 61.8003C19.0032 61.8164 18.9871 61.8463 18.9545 61.8907C18.9219 61.9346 18.8989 61.9672 18.8861 61.988C18.8727 62.0089 18.8663 62.0345 18.8663 62.065C18.8663 62.1148 18.8893 62.1399 18.9347 62.1399C18.9823 62.1399 19.0556 62.0955 19.1561 62.0073V62.0688C18.9861 62.2581 18.8641 62.3522 18.7903 62.3522C18.7641 62.3522 18.7454 62.3436 18.7337 62.3265C18.723 62.3094 18.7176 62.2843 18.7176 62.2506C18.7176 62.1971 18.7369 62.1206 18.7754 62.0196C18.677 62.1281 18.6043 62.2062 18.5561 62.2522C18.508 62.2982 18.469 62.3212 18.438 62.3212C18.423 62.3212 18.4048 62.3083 18.3823 62.2827C18.3604 62.257 18.3406 62.2238 18.3235 62.1832C18.3064 62.1426 18.2979 62.1003 18.2979 62.0565C18.2979 62.0249 18.3005 61.9987 18.3064 61.9773C18.3128 61.9559 18.3246 61.9346 18.3422 61.9121C18.3599 61.8902 18.3877 61.8608 18.4257 61.8244ZM18.9096 61.7132C18.7347 61.7934 18.6101 61.8613 18.5353 61.9169C18.4609 61.9736 18.4235 62.0308 18.4235 62.0902C18.4235 62.1116 18.4278 62.1297 18.4347 62.1431C18.4422 62.157 18.4524 62.164 18.4652 62.164C18.4727 62.164 18.4861 62.1591 18.5043 62.1495C18.5748 62.1078 18.6401 62.0538 18.6984 61.9864C18.7572 61.9196 18.8278 61.8281 18.9096 61.7132ZM19.8277 61.8223C19.709 61.9543 19.6497 62.0463 19.6497 62.0982C19.6497 62.1271 19.6614 62.1415 19.685 62.1415C19.7042 62.1415 19.7299 62.1313 19.7614 62.1105C19.7924 62.0902 19.8416 62.0538 19.9079 62.0014V62.0704C19.8128 62.165 19.739 62.2329 19.6882 62.2746C19.6368 62.3164 19.5951 62.3377 19.5625 62.3377C19.5074 62.3377 19.4802 62.3008 19.4802 62.2281C19.4802 62.2073 19.4834 62.1859 19.4903 62.165C19.4967 62.1442 19.5064 62.1222 19.5181 62.0998C19.5299 62.0768 19.5475 62.0452 19.5721 62.003C19.5962 61.9608 19.624 61.9132 19.6555 61.8602C19.6176 61.8795 19.5695 61.918 19.5112 61.9757C19.4732 62.0121 19.4417 62.0468 19.4155 62.0795C19.3893 62.1121 19.3609 62.1484 19.331 62.1886C19.301 62.2287 19.2791 62.2554 19.2652 62.2693C19.2518 62.2832 19.2379 62.2902 19.2235 62.2902C19.2021 62.2902 19.1823 62.2677 19.1641 62.2222C19.1459 62.1773 19.1369 62.1244 19.1369 62.0645C19.1369 62.0276 19.1411 61.9987 19.1497 61.9779C19.1577 61.957 19.1743 61.9276 19.1994 61.8891C19.2459 61.8174 19.286 61.765 19.3197 61.7319C19.3534 61.6987 19.3855 61.6816 19.4165 61.6816C19.4379 61.6816 19.455 61.6854 19.4684 61.6929C19.4812 61.7003 19.4882 61.7116 19.4882 61.7271C19.4882 61.734 19.486 61.741 19.4823 61.7485C19.478 61.7565 19.4732 61.7629 19.4684 61.7688C19.4636 61.7747 19.4529 61.787 19.4363 61.8041C19.3304 61.9217 19.2775 61.9987 19.2775 62.0335C19.2775 62.0527 19.2839 62.0624 19.2967 62.0624C19.3048 62.0624 19.3203 62.0495 19.3438 62.0239C19.3668 61.9977 19.3967 61.9634 19.4331 61.9217C19.47 61.8795 19.5133 61.8356 19.5636 61.7902C19.6138 61.7442 19.6705 61.6998 19.7342 61.6576C19.77 61.6324 19.7999 61.6201 19.8235 61.6201C19.8342 61.6201 19.8448 61.6351 19.8555 61.6645C19.8657 61.6939 19.871 61.7244 19.871 61.7549C19.871 61.7699 19.8561 61.7923 19.8277 61.8223ZM20.7047 62.0725L20.3689 62.3484C20.2748 62.5115 20.1892 62.6329 20.1117 62.7131C20.0347 62.7933 19.9769 62.834 19.9395 62.834C19.9192 62.834 19.909 62.8217 19.909 62.7965C19.909 62.7479 19.9336 62.6859 19.9828 62.611C20.0021 62.581 20.0245 62.5522 20.0497 62.5238C20.0748 62.496 20.0988 62.4714 20.1213 62.4506C20.1438 62.4303 20.1737 62.4046 20.2106 62.3741C20.248 62.3436 20.2732 62.3222 20.2865 62.311C20.3539 62.1736 20.402 62.0688 20.4315 61.996C20.3684 62.0634 20.3133 62.1185 20.2662 62.1618C20.2192 62.2051 20.1758 62.2383 20.1363 62.2613C20.0972 62.2843 20.0619 62.296 20.0299 62.296C19.9956 62.296 19.9641 62.2688 19.9352 62.2137C19.9063 62.1591 19.8919 62.1025 19.8919 62.0447C19.8919 62.018 19.8983 61.9896 19.9106 61.9597C19.9229 61.9303 19.9427 61.8987 19.9689 61.865C19.9956 61.8313 20.0293 61.7971 20.0705 61.7618C20.1111 61.726 20.1598 61.6918 20.2149 61.6581C20.3192 61.5929 20.4004 61.5602 20.4582 61.5602C20.501 61.5602 20.5224 61.5757 20.5224 61.6078C20.5224 61.6511 20.4758 61.6939 20.3823 61.7356C20.325 61.7608 20.2684 61.7934 20.2122 61.8346C20.1561 61.8757 20.1106 61.919 20.0764 61.9656C20.0416 62.011 20.024 62.0527 20.024 62.0896C20.024 62.1078 20.0288 62.1228 20.0374 62.1335C20.0464 62.1442 20.0577 62.1495 20.0716 62.1495C20.0951 62.1495 20.1218 62.1388 20.1523 62.1169C20.1828 62.0955 20.2277 62.0575 20.2871 62.003C20.3138 61.9784 20.3496 61.9378 20.3946 61.8821C20.4389 61.8271 20.4758 61.7843 20.5052 61.7549C20.5347 61.7255 20.5614 61.711 20.5844 61.711C20.5978 61.711 20.609 61.7153 20.6175 61.7239C20.6261 61.7319 20.6298 61.7447 20.6298 61.7608C20.6298 61.7918 20.6175 61.8367 20.5929 61.8955C20.5683 61.9543 20.524 62.0506 20.4598 62.1848L20.7047 62.0073V62.0725ZM21.2662 62.0896V62.019C21.3608 61.9169 21.4421 61.8201 21.51 61.7303C21.5785 61.6399 21.6325 61.5683 21.672 61.5153C21.7116 61.4624 21.7469 61.4244 21.7774 61.4025C21.8073 61.3811 21.8453 61.3699 21.8913 61.3699C21.9143 61.3699 21.926 61.3784 21.926 61.3961C21.926 61.41 21.9164 61.4314 21.8977 61.4586C21.8795 61.4864 21.8555 61.5148 21.8266 61.5437C21.7881 61.5816 21.7506 61.6287 21.7143 61.6854C21.6774 61.7426 21.6357 61.8153 21.5897 61.9035C21.6255 61.8752 21.6678 61.8415 21.7154 61.803C21.7624 61.764 21.8014 61.734 21.8314 61.7116C21.8613 61.6902 21.8913 61.6731 21.9202 61.6602C21.9496 61.6474 21.979 61.641 22.0084 61.641C22.0276 61.641 22.0394 61.6442 22.0453 61.6506C22.0512 61.6576 22.0538 61.6709 22.0538 61.6902C22.0538 61.7415 22.0415 61.7912 22.0169 61.8399C21.9918 61.8886 21.956 61.9394 21.9095 61.9918C21.8629 62.0442 21.8057 62.1014 21.7378 62.1634C21.7613 62.172 21.7854 62.1763 21.8105 62.1763C21.8886 62.1763 21.9934 62.1169 22.1244 61.9977V62.0704C22.0736 62.1164 22.0234 62.1591 21.9747 62.2003C21.926 62.2404 21.8801 62.273 21.8367 62.2971C21.794 62.3212 21.7544 62.3335 21.7175 62.3335C21.7041 62.3335 21.6902 62.3319 21.6747 62.3292C21.6597 62.326 21.6458 62.3222 21.633 62.3174C21.6202 62.3137 21.6036 62.3073 21.5833 62.2992C21.5635 62.2907 21.548 62.2853 21.5373 62.2816C21.5154 62.2875 21.5036 62.2902 21.5004 62.2902C21.4774 62.2902 21.4496 62.2805 21.418 62.2613C21.3956 62.3046 21.3715 62.3602 21.3448 62.4286C21.318 62.4966 21.2956 62.5511 21.2774 62.5912C21.2592 62.6318 21.2352 62.6704 21.2047 62.7072C21.1881 62.7244 21.1763 62.7324 21.1694 62.7324C21.1405 62.7324 21.1261 62.7072 21.1261 62.6559C21.1261 62.611 21.1346 62.565 21.1528 62.5169C21.171 62.4688 21.1924 62.4233 21.2181 62.3805C21.2443 62.3372 21.2726 62.2934 21.3036 62.2495C21.3346 62.2057 21.3565 62.1725 21.3694 62.1511C21.4758 61.9682 21.5587 61.8126 21.6175 61.6843C21.463 61.8725 21.3459 62.0073 21.2662 62.0896ZM21.6763 62.1394C21.7426 62.0693 21.7924 62.0094 21.825 61.9608C21.8581 61.911 21.8742 61.8736 21.8742 61.8474C21.8742 61.8228 21.8619 61.8105 21.8367 61.8105C21.8031 61.8105 21.756 61.8378 21.695 61.8934C21.6341 61.949 21.571 62.0239 21.5068 62.118C21.5565 62.1126 21.5897 62.1105 21.6068 62.1121C21.6234 62.1137 21.6469 62.1228 21.6763 62.1394ZM22.279 62.0415V62.0666C22.279 62.1062 22.2886 62.1372 22.3084 62.1591C22.3282 62.1816 22.3533 62.1928 22.3854 62.1928C22.418 62.1928 22.4522 62.1853 22.4875 62.1698C22.5228 62.1543 22.5581 62.1335 22.5929 62.1078C22.6282 62.0827 22.6709 62.0479 22.7212 62.0051V62.0666C22.6453 62.1581 22.5741 62.2281 22.5073 62.2768C22.4405 62.3254 22.3731 62.35 22.3041 62.35C22.2447 62.35 22.1972 62.3271 22.1619 62.2805C22.1271 62.234 22.1095 62.1704 22.1095 62.0896C22.1095 62.019 22.126 61.9549 22.1592 61.8971C22.1918 61.8394 22.2458 61.7789 22.3201 61.7153C22.3715 61.6715 22.4223 61.6383 22.4731 61.6164C22.5233 61.5939 22.5683 61.5827 22.6084 61.5827C22.6399 61.5827 22.665 61.5902 22.6832 61.6046C22.7019 61.6191 22.711 61.641 22.711 61.6699C22.711 61.7121 22.6955 61.7543 22.6634 61.7966C22.6319 61.8383 22.5838 61.88 22.5191 61.9217C22.4538 61.9634 22.3736 62.0035 22.279 62.0415ZM22.2891 61.9763C22.3496 61.9522 22.4014 61.9233 22.4447 61.888C22.4875 61.8533 22.5191 61.8196 22.5399 61.788C22.5602 61.7559 22.5704 61.7324 22.5704 61.7174C22.5704 61.7019 22.5634 61.6945 22.5495 61.6945C22.5372 61.6945 22.5175 61.7019 22.4902 61.7174C22.4629 61.733 22.4356 61.7533 22.4078 61.7784C22.3795 61.803 22.3549 61.8324 22.3324 61.8661C22.3105 61.8998 22.2961 61.9367 22.2891 61.9763ZM23.8538 61.641L23.8024 61.7014C23.8623 61.7068 23.9158 61.7137 23.9629 61.7233C24.0099 61.7319 24.0538 61.742 24.0939 61.7533C24.134 61.7645 24.1687 61.7757 24.1992 61.788C24.3056 61.8324 24.3586 61.8944 24.3586 61.9736C24.3586 62.0222 24.3366 62.0693 24.2923 62.1158C24.2479 62.1624 24.1901 62.2041 24.119 62.2399C24.0479 62.2768 23.9752 62.3051 23.9003 62.3254C23.8249 62.3458 23.7564 62.3565 23.6955 62.3565C23.5928 62.3565 23.5137 62.3372 23.4565 62.2992C23.3992 62.2613 23.3704 62.2089 23.3704 62.1431C23.3704 62.0976 23.388 62.0436 23.4228 61.9821C23.4581 61.9201 23.5121 61.8426 23.5853 61.7506C23.5303 61.7479 23.4912 61.7399 23.4682 61.726C23.4458 61.7121 23.434 61.6929 23.434 61.6677C23.434 61.6522 23.4383 61.6404 23.4468 61.6324C23.4559 61.6244 23.4677 61.6185 23.4827 61.6148C23.4971 61.611 23.5254 61.6062 23.5677 61.6009C23.6099 61.5955 23.6639 61.5886 23.7297 61.5806C23.8035 61.4907 23.8693 61.4228 23.927 61.3774C23.9859 61.3319 24.0479 61.3057 24.1142 61.2987C24.1201 61.2982 24.126 61.2977 24.1318 61.2977C24.1388 61.2977 24.1415 61.2998 24.1415 61.303C24.1415 61.3073 24.134 61.318 24.119 61.3356C24.104 61.3528 24.0794 61.3811 24.0452 61.4196C24.0115 61.4576 23.9709 61.5036 23.9244 61.556C24.0511 61.5388 24.1543 61.5196 24.235 61.4977C24.3152 61.4763 24.3762 61.4501 24.4168 61.4196C24.458 61.3891 24.4789 61.3554 24.4789 61.3185C24.4789 61.2736 24.457 61.2405 24.4131 61.2201C24.3693 61.1998 24.3024 61.1902 24.2126 61.1902C24.1623 61.1902 24.1056 61.195 24.0409 61.2052C23.9768 61.2153 23.9185 61.2271 23.8661 61.2394C23.8142 61.2522 23.7677 61.2661 23.727 61.2806C23.6864 61.295 23.6661 61.3052 23.6661 61.3121C23.6661 61.3143 23.6682 61.3164 23.6725 61.3185C23.7051 61.3308 23.7217 61.3405 23.7217 61.349C23.7217 61.3597 23.6714 61.38 23.5704 61.411C23.4693 61.4415 23.4014 61.457 23.3661 61.457C23.3415 61.457 23.3292 61.4447 23.3292 61.4196C23.3292 61.3897 23.3565 61.3367 23.4105 61.2597C23.4645 61.1822 23.5137 61.133 23.5581 61.1116C23.5736 61.1036 23.6099 61.0923 23.6666 61.0758C23.7228 61.0597 23.7848 61.0448 23.8527 61.0292C23.9201 61.0148 23.9891 61.002 24.0591 60.9923C24.1292 60.9822 24.1912 60.9768 24.2452 60.9768C24.3725 60.9768 24.4676 60.9998 24.5318 61.0453C24.5955 61.0907 24.6275 61.1474 24.6275 61.2164C24.6275 61.2629 24.6131 61.3078 24.5837 61.3512C24.5543 61.3939 24.5088 61.4346 24.4468 61.4731C24.3848 61.5116 24.3046 61.5453 24.2046 61.5741C24.1056 61.603 23.9885 61.6255 23.8538 61.641ZM23.7468 61.7709C23.7121 61.8126 23.6805 61.8495 23.6532 61.8811C23.626 61.9132 23.6067 61.9394 23.595 61.9592C23.5832 61.9789 23.5773 61.9987 23.5773 62.019C23.5773 62.0517 23.5939 62.08 23.627 62.1051C23.6607 62.1303 23.7083 62.1431 23.7714 62.1431C23.8292 62.1431 23.8907 62.1329 23.9564 62.1126C24.0222 62.0918 24.0773 62.0656 24.1222 62.0324C24.1671 61.9993 24.1891 61.9661 24.1891 61.9324C24.1891 61.9035 24.1725 61.8795 24.1393 61.8608C24.1067 61.842 24.0564 61.8255 23.9896 61.811C23.9217 61.7966 23.8415 61.7832 23.7468 61.7709ZM24.5612 61.8244C24.6634 61.7314 24.7628 61.6624 24.8591 61.6175C24.9553 61.572 25.0297 61.5495 25.0821 61.5495C25.0965 61.5495 25.1093 61.5554 25.1216 61.5672C25.1339 61.579 25.1436 61.5929 25.1505 61.6084C25.1575 61.6239 25.1612 61.6351 25.1612 61.6431C25.1612 61.6549 25.1564 61.664 25.1468 61.6693C25.1377 61.6752 25.1211 61.6822 25.0976 61.6902C25.1024 61.7009 25.1083 61.7148 25.1158 61.7319C25.1232 61.7485 25.1286 61.7618 25.1329 61.7725C25.1371 61.7832 25.1387 61.7923 25.1387 61.8003C25.1387 61.8164 25.1222 61.8463 25.0895 61.8907C25.0575 61.9346 25.0345 61.9672 25.0211 61.988C25.0083 62.0089 25.0013 62.0345 25.0013 62.065C25.0013 62.1148 25.0243 62.1399 25.0703 62.1399C25.1174 62.1399 25.1911 62.0955 25.2911 62.0073V62.0688C25.1211 62.2581 24.9992 62.3522 24.9259 62.3522C24.8992 62.3522 24.8805 62.3436 24.8692 62.3265C24.858 62.3094 24.8527 62.2843 24.8527 62.2506C24.8527 62.1971 24.8719 62.1206 24.9104 62.0196C24.812 62.1281 24.7393 62.2062 24.6912 62.2522C24.6436 62.2982 24.604 62.3212 24.573 62.3212C24.5586 62.3212 24.5398 62.3083 24.5179 62.2827C24.4955 62.257 24.4762 62.2238 24.4586 62.1832C24.4414 62.1426 24.4329 62.1003 24.4329 62.0565C24.4329 62.0249 24.4361 61.9987 24.442 61.9773C24.4479 61.9559 24.4596 61.9346 24.4773 61.9121C24.4949 61.8902 24.5227 61.8608 24.5612 61.8244ZM25.0452 61.7132C24.8698 61.7934 24.7452 61.8613 24.6708 61.9169C24.596 61.9736 24.5591 62.0308 24.5591 62.0902C24.5591 62.1116 24.5628 62.1297 24.5703 62.1431C24.5778 62.157 24.5874 62.164 24.6003 62.164C24.6077 62.164 24.6211 62.1591 24.6398 62.1495C24.7104 62.1078 24.7751 62.0538 24.8334 61.9864C24.8922 61.9196 24.9628 61.8281 25.0452 61.7132ZM25.9628 61.8223C25.8441 61.9543 25.7847 62.0463 25.7847 62.0982C25.7847 62.1271 25.7965 62.1415 25.82 62.1415C25.8398 62.1415 25.8649 62.1313 25.8965 62.1105C25.928 62.0902 25.9767 62.0538 26.0435 62.0014V62.0704C25.9478 62.165 25.8745 62.2329 25.8232 62.2746C25.7719 62.3164 25.7302 62.3377 25.6981 62.3377C25.643 62.3377 25.6152 62.3008 25.6152 62.2281C25.6152 62.2073 25.6189 62.1859 25.6254 62.165C25.6323 62.1442 25.6414 62.1222 25.6532 62.0998C25.6649 62.0768 25.6826 62.0452 25.7072 62.003C25.7312 61.9608 25.7596 61.9132 25.7911 61.8602C25.7526 61.8795 25.7045 61.918 25.6467 61.9757C25.6088 62.0121 25.5772 62.0468 25.5505 62.0795C25.5243 62.1121 25.4965 62.1484 25.4665 62.1886C25.4366 62.2287 25.4141 62.2554 25.4008 62.2693C25.3869 62.2832 25.373 62.2902 25.3591 62.2902C25.3371 62.2902 25.3173 62.2677 25.2992 62.2222C25.281 62.1773 25.2719 62.1244 25.2719 62.0645C25.2719 62.0276 25.2762 61.9987 25.2847 61.9779C25.2927 61.957 25.3099 61.9276 25.335 61.8891C25.381 61.8174 25.4211 61.765 25.4548 61.7319C25.4885 61.6987 25.5211 61.6816 25.5516 61.6816C25.573 61.6816 25.5906 61.6854 25.6034 61.6929C25.6168 61.7003 25.6232 61.7116 25.6232 61.7271C25.6232 61.734 25.6216 61.741 25.6173 61.7485C25.6131 61.7565 25.6088 61.7629 25.6034 61.7688C25.5986 61.7747 25.5879 61.787 25.5719 61.8041C25.4655 61.9217 25.4125 61.9987 25.4125 62.0335C25.4125 62.0527 25.4189 62.0624 25.4318 62.0624C25.4398 62.0624 25.4553 62.0495 25.4788 62.0239C25.5018 61.9977 25.5318 61.9634 25.5681 61.9217C25.605 61.8795 25.6489 61.8356 25.6986 61.7902C25.7489 61.7442 25.8061 61.6998 25.8697 61.6576C25.9056 61.6324 25.935 61.6201 25.9585 61.6201C25.9697 61.6201 25.9799 61.6351 25.9906 61.6645C26.0007 61.6939 26.0061 61.7244 26.0061 61.7549C26.0061 61.7699 25.9916 61.7923 25.9628 61.8223ZM26.7986 62.0051V62.073C26.7232 62.1613 26.6601 62.2281 26.6087 62.2736C26.5579 62.319 26.5152 62.3415 26.4804 62.3415C26.4472 62.3415 26.4178 62.3319 26.3911 62.3126C26.3649 62.2928 26.3408 62.2661 26.3194 62.2319C26.2981 62.1971 26.2729 62.1495 26.244 62.0886C26.2098 62.1308 26.1788 62.1704 26.151 62.2073C26.1237 62.2436 26.1045 62.2682 26.0938 62.28C26.0831 62.2923 26.0729 62.2982 26.0644 62.2982C26.0462 62.2982 26.0328 62.2864 26.0248 62.2634C26.0168 62.2404 26.0125 62.2062 26.0125 62.1618C26.0125 62.1014 26.02 62.0431 26.0344 61.987C26.0489 61.9308 26.0697 61.8757 26.097 61.8228C26.1243 61.7699 26.1596 61.7121 26.2023 61.6506C26.2451 61.5891 26.2927 61.5244 26.3462 61.4576C26.4194 61.3645 26.4831 61.2886 26.536 61.2298C26.589 61.1709 26.6355 61.126 26.675 61.0961C26.7141 61.0661 26.7472 61.0517 26.7734 61.0517C26.8061 61.0517 26.8221 61.0661 26.8221 61.095C26.8221 61.1196 26.7627 61.2094 26.6435 61.364C26.5242 61.5185 26.3505 61.7292 26.1221 61.9966V62.0832C26.2751 61.9196 26.3981 61.7982 26.4911 61.7185C26.5847 61.6388 26.6569 61.5993 26.7082 61.5993C26.7285 61.5993 26.7451 61.6116 26.7563 61.6362C26.7676 61.6608 26.7734 61.6891 26.7734 61.7217C26.7734 61.7875 26.7451 61.8485 26.6889 61.9051C26.6323 61.9613 26.5451 62.026 26.428 62.0987C26.4483 62.1287 26.466 62.1506 26.4815 62.1645C26.497 62.1784 26.5162 62.1853 26.5403 62.1853C26.5611 62.1853 26.5836 62.1779 26.6077 62.164C26.6317 62.1495 26.6569 62.1324 26.682 62.1105C26.7071 62.0891 26.7462 62.0538 26.7986 62.0051ZM26.3997 62.057C26.4253 62.0399 26.4574 62.0137 26.4948 61.9784C26.5333 61.9431 26.566 61.9062 26.5927 61.8682C26.6194 61.8303 26.6328 61.7982 26.6328 61.7725C26.6328 61.7618 26.628 61.7565 26.6189 61.7565C26.5932 61.7565 26.5494 61.7811 26.4874 61.8303C26.4248 61.8795 26.3644 61.9426 26.305 62.0196C26.3301 62.0196 26.3622 62.0319 26.3997 62.057Z" fill="#ED1C24"/>
<path fill-rule="evenodd" clip-rule="evenodd" d="M19.5219 58.6181C18.1519 58.3267 17.2246 58.6235 16.0851 59.6657C16.014 59.6972 15.9883 59.6715 16.0081 59.5887L19.8031 55.0584C20.6983 53.9894 20.9657 53.3862 22.1346 53.3558C22.9362 53.3349 23.441 53.1606 23.6147 52.7638C23.6848 52.6034 23.6853 52.3767 23.696 52.0975C23.7324 51.1794 24.0292 50.4805 24.5398 49.9998C24.2511 50.5521 24.1784 51.1912 24.3848 51.8975C24.6243 52.7189 24.481 53.3012 23.9329 53.7183C23.5661 53.998 22.9126 54.0408 21.9121 53.9627C21.3827 53.9215 21.0876 54.1167 21.0314 54.3771C21.3747 54.4178 21.9619 54.6274 22.8303 54.8953C24.5195 55.4166 25.5617 54.9792 25.1692 53.8739C25.5992 54.4119 25.5601 55.0001 25.0211 55.6134C24.5227 56.1802 23.6185 56.307 22.3934 55.8573C21.2587 55.4412 20.5224 55.3364 20.1213 55.7022C20.8218 55.7856 21.6277 56.0343 22.5266 56.4717C23.7415 57.0631 24.6404 57.2898 25.2061 57.0567C25.7997 56.8118 25.9596 56.2829 25.7168 55.5391C26.2494 56.1706 26.2879 56.8209 25.8056 57.4711C25.22 58.2609 24.1778 58.3582 22.6971 57.8042C21.8742 57.4962 21.1255 57.2342 20.447 57.0417C19.6165 56.807 19.0695 56.9283 18.8187 57.3599C19.8491 57.2925 21.0181 57.6615 22.3715 58.3818C24.5126 59.5207 25.8649 59.3881 26.3831 58.0705C26.6916 58.871 26.3922 59.5919 25.4355 60.1507C24.8035 60.5196 23.8276 60.4421 22.4618 59.902C21.8565 59.663 20.2352 58.7705 19.5219 58.6181Z" fill="#1D5580"/>
<path fill-rule="evenodd" clip-rule="evenodd" d="M19.5219 58.6181C18.1519 58.3267 17.2246 58.6235 16.0851 59.6657C16.014 59.6972 15.9883 59.6715 16.0081 59.5887L19.8031 55.0584C20.6983 53.9894 20.9657 53.3862 22.1346 53.3558C22.9362 53.3349 23.441 53.1606 23.6147 52.7638C23.6848 52.6034 23.6853 52.3767 23.696 52.0975C23.7324 51.1794 24.0292 50.4805 24.5398 49.9998C24.2511 50.5521 24.1784 51.1912 24.3848 51.8975C24.6243 52.7189 24.481 53.3012 23.9329 53.7183C23.5661 53.998 22.9126 54.0408 21.9121 53.9627C21.3827 53.9215 21.0876 54.1167 21.0314 54.3771C21.3747 54.4178 21.9619 54.6274 22.8303 54.8953C24.5195 55.4166 25.5617 54.9792 25.1692 53.8739C25.5992 54.4119 25.5601 55.0001 25.0211 55.6134C24.5227 56.1802 23.6185 56.307 22.3934 55.8573C21.2587 55.4412 20.5224 55.3364 20.1213 55.7022C20.8218 55.7856 21.6277 56.0343 22.5266 56.4717C23.7415 57.0631 24.6404 57.2898 25.2061 57.0567C25.7997 56.8118 25.9596 56.2829 25.7168 55.5391C26.2494 56.1706 26.2879 56.8209 25.8056 57.4711C25.22 58.2609 24.1778 58.3582 22.6971 57.8042C21.8742 57.4962 21.1255 57.2342 20.447 57.0417C19.6165 56.807 19.0695 56.9283 18.8187 57.3599C19.8491 57.2925 21.0181 57.6615 22.3715 58.3818C24.5126 59.5207 25.8649 59.3881 26.3831 58.0705C26.6916 58.871 26.3922 59.5919 25.4355 60.1507C24.8035 60.5196 23.8276 60.4421 22.4618 59.902C21.8565 59.663 20.2352 58.7705 19.5219 58.6181Z" fill="#2AA7DE"/>
</g>
<rect x="1" y="1" width="110" height="110" rx="9" stroke="#CCCCCC" stroke-width="2"/>
<defs>
<clipPath id="clip0_528_603">
<rect x="2" y="2" width="108" height="108" rx="8" fill="white"/>
</clipPath>
</defs>
</svg>
