<svg width="113" height="112" viewBox="0 0 113 112" fill="none" xmlns="http://www.w3.org/2000/svg">
<g clip-path="url(#clip0_421_544)">
<rect x="2.5" y="2" width="108" height="108" rx="8" fill="white"/>
<g clip-path="url(#clip1_421_544)">
<path fill-rule="evenodd" clip-rule="evenodd" d="M24.4689 48.5306C28.5941 48.5306 31.9385 51.8751 31.9385 56.0002C31.9385 60.1247 28.5941 63.4691 24.4689 63.4691C20.3438 63.4691 17 60.1247 17 56.0002C17 51.8751 20.3438 48.5306 24.4689 48.5306Z" fill="#EC2127"/>
<path fill-rule="evenodd" clip-rule="evenodd" d="M17.5877 58.9095C17.2092 58.0155 17 57.0318 17 55.9996C17 54.7576 17.3038 53.5865 17.8405 52.5555C20.5374 52.1633 23.0271 53.2752 26.8254 53.1825C27.7847 53.1594 29.0324 52.9832 29.932 53.0306C29.6917 53.5106 29.3181 53.8088 28.9141 54.1039C27.4374 55.1834 26.2364 55.7412 24.1496 55.5868C22.9138 55.4953 21.6581 55.2849 20.431 55.1274C19.7978 55.0458 19.1317 54.9618 18.5203 55.1604C18.0845 55.3023 17.4551 55.7804 17.3524 56.05C19.25 56.9067 21.8834 56.9913 23.9292 56.4385C24.8437 56.1913 25.1525 55.9591 25.8062 55.7375C25.7539 56.1695 24.9402 57.1775 24.5611 57.4688C24.2249 57.7278 24.1097 57.853 23.6976 58.1169C21.9974 59.2039 19.6304 59.4038 17.5927 58.9095H17.5877Z" fill="#FEFEFE"/>
<path fill-rule="evenodd" clip-rule="evenodd" d="M64.2081 57.2609C62.5303 57.2609 62.3915 55.0203 63.5501 54.4842C65.0841 53.7758 66.0976 55.6553 65.1762 56.8164C64.9695 57.0766 64.5145 57.2609 64.2081 57.2609ZM61.3829 50.9549V58.4718H62.7955V57.8667C63.0807 58.0578 63.4306 58.5726 64.4099 58.5726C65.9096 58.5726 66.9829 57.3705 66.9829 56.0506C66.9829 55.1828 66.8858 54.4332 66.29 53.8168C65.3257 52.8176 63.7257 52.718 62.846 53.7297V50.8036H61.5342C61.4178 50.8036 61.3829 50.8385 61.3829 50.9549Z" fill="#221E1F"/>
<path fill-rule="evenodd" clip-rule="evenodd" d="M37.066 55.8483C37.066 55.3085 37.2372 54.9157 37.6046 54.6212C37.6979 54.5465 37.716 54.5334 37.8212 54.4849C39.4106 53.7453 40.3576 55.7867 39.4517 56.8214C38.7283 57.6469 37.066 57.264 37.066 55.8483ZM35.6541 51.0558V58.4718H37.066V57.8667C37.198 57.9551 37.2379 58.0285 37.3605 58.1275C38.8522 59.3341 41.2534 57.9856 41.2534 56.1515C41.2534 55.2867 41.2136 54.4923 40.5611 53.8169C39.8259 53.0555 38.7046 52.7921 37.772 53.2242C37.5286 53.3369 37.3406 53.5292 37.1165 53.6793V50.9045H35.8053C35.6889 50.9045 35.6541 50.9393 35.6541 51.0558Z" fill="#221E1F"/>
<path fill-rule="evenodd" clip-rule="evenodd" d="M69.3032 55.7979C69.3032 55.4063 69.4801 54.9842 69.6787 54.7607C70.323 54.0372 71.9772 54.1406 71.9772 55.8987C71.9772 56.3053 71.8178 56.6302 71.6136 56.8469C70.8684 57.6363 69.3032 57.269 69.3032 55.7979ZM67.8402 55.5962C67.8402 56.5026 67.9766 57.2136 68.558 57.805C69.2173 58.4749 70.3678 58.8142 71.3222 58.3716C71.6603 58.2153 71.7244 58.0354 71.9772 57.8667V58.4718H73.3898V53.1246H71.9267V53.6793C71.8041 53.5971 71.7786 53.5423 71.6547 53.447C70.1443 52.2909 67.8402 53.584 67.8402 55.5962Z" fill="#221E1F"/>
<path fill-rule="evenodd" clip-rule="evenodd" d="M43.5744 55.7979C43.5744 53.9376 46.2483 53.721 46.2483 55.8987C46.2483 56.3052 46.0889 56.6302 45.8841 56.8469C45.7895 56.9471 45.6432 57.0623 45.5074 57.1258C44.629 57.5392 43.5744 56.9608 43.5744 55.7979ZM42.1113 55.697C42.1113 58.2265 44.2474 58.9954 45.5927 58.3716C45.9308 58.2153 45.9955 58.0354 46.2483 57.8667V58.4718H47.6609V53.1245H46.1979V53.6793C45.7839 53.4022 45.5803 53.0231 44.5829 53.0231C43.1504 53.0231 42.1113 54.2831 42.1113 55.697Z" fill="#221E1F"/>
<path fill-rule="evenodd" clip-rule="evenodd" d="M55.2281 51.0558V58.4718H56.6912V56.2019C57.1058 56.4796 58.4935 58.4108 58.8135 58.4681C59.0831 58.5166 59.9883 58.4718 60.3232 58.4718C60.2118 58.2607 60.2018 58.2944 60.0636 58.1263L59.1914 57.0305C58.9934 56.7778 58.8285 56.5842 58.6299 56.3314C58.4319 56.0793 58.2196 55.8452 58.0534 55.5962L59.1628 54.3853C59.3769 54.1051 60.0854 53.4047 60.2728 53.1246H58.5576C58.4948 53.2428 56.9047 55.1 56.6912 55.2432V50.9045H55.3794C55.263 50.9045 55.2281 50.9393 55.2281 51.0558Z" fill="#221E1F"/>
<path fill-rule="evenodd" clip-rule="evenodd" d="M87.8184 54.3348H88.121C88.6595 54.3348 88.9758 54.7482 89.0797 55.1927H86.8092C86.9082 54.7681 87.298 54.3348 87.8184 54.3348ZM85.2958 55.5457C85.2958 56.4335 85.3854 57.1818 86.1151 57.8548C86.9854 58.6573 88.3121 58.7632 89.3979 58.2856C89.7714 58.1213 90.1257 57.8343 90.3411 57.513L89.4327 56.6558C89.1252 56.8618 88.9185 57.2609 88.121 57.2609C87.4984 57.2609 86.8553 56.8046 86.8092 56.2523H90.5428C90.5428 55.2631 90.5733 54.544 89.7739 53.7415C88.9204 52.8855 87.354 52.7877 86.4046 53.4763C86.018 53.7565 85.7285 54.0646 85.5392 54.5284C85.4228 54.8136 85.2958 55.1286 85.2958 55.5457Z" fill="#221E1F"/>
<path fill-rule="evenodd" clip-rule="evenodd" d="M93.3088 53.7378C93.3088 53.721 93.3455 53.7011 93.3468 53.7085L93.368 53.1246H91.8545V58.4718C93.696 58.4718 93.368 58.7725 93.368 57.2609C93.368 56.807 93.3686 56.3532 93.3673 55.8987C93.3667 55.3851 93.3879 55.0775 93.6108 54.78C94.1157 54.1063 95.0918 54.3031 95.3365 54.6866C95.664 55.2002 95.537 57.6705 95.537 58.4718H97V55.2936C97 54.6797 96.8519 53.998 96.5592 53.6656C95.6397 52.6197 93.8984 52.9876 93.368 53.7801L93.3088 53.7378Z" fill="#221E1F"/>
<path fill-rule="evenodd" clip-rule="evenodd" d="M76.114 53.7801V53.1245H74.651V58.4718H76.114C76.114 57.5996 75.9684 55.3515 76.3774 54.8005C76.8761 54.1275 77.9058 54.2396 78.1598 54.7613C78.4331 55.3247 78.3335 57.7085 78.3335 58.4718H79.7965V55.4449C79.7965 54.0055 79.319 53.0231 77.7788 53.0231C76.7951 53.0231 76.4365 53.5641 76.114 53.7801Z" fill="#221E1F"/>
<path fill-rule="evenodd" clip-rule="evenodd" d="M50.4855 53.7801V53.1246H49.0225V58.4718H50.4855V55.6466C50.4855 54.0428 52.6551 53.848 52.6551 55.344V58.4718H54.1182V54.9406C54.1182 53.2011 52.4341 52.6402 51.1734 53.2572C50.7955 53.4421 50.7557 53.5996 50.4855 53.7801Z" fill="#221E1F"/>
<path fill-rule="evenodd" clip-rule="evenodd" d="M81.4613 51.6615V53.1246H80.6544V54.3348H81.4613V56.9079C81.4613 58.7389 83.2082 58.9032 84.6905 58.1188C84.5965 57.7172 84.4259 57.3393 84.3369 56.9583C83.9192 57.0561 82.9243 57.6456 82.9243 56.6558V54.3348H84.3873V53.1246H82.9243V51.4088L81.4613 51.6615Z" fill="#221E1F"/>
<path d="M35.9541 60.8102H36.5804C36.7049 60.8102 36.7971 60.8151 36.8574 60.8251C36.9191 60.8357 36.9732 60.8575 37.0212 60.8898C37.0691 60.9228 37.1096 60.9658 37.1413 61.02C37.1737 61.0747 37.1899 61.1358 37.1899 61.203C37.1899 61.2758 37.17 61.3437 37.1308 61.4041C37.0915 61.4657 37.038 61.5112 36.9701 61.5417C37.0654 61.5697 37.1382 61.617 37.1899 61.6842C37.2409 61.7515 37.2665 61.8299 37.2665 61.9208C37.2665 61.9924 37.2497 62.0615 37.2167 62.1287C37.1837 62.1966 37.1382 62.2502 37.0809 62.2906C37.0237 62.3311 36.9527 62.3554 36.8687 62.3653C36.8164 62.3703 36.6887 62.374 36.4876 62.3759H35.9541V60.8102ZM36.271 61.0704V61.4309H36.4783C36.6009 61.4309 36.6775 61.429 36.7074 61.4252C36.7616 61.4196 36.8039 61.401 36.835 61.3698C36.8662 61.3387 36.8811 61.2982 36.8811 61.2478C36.8811 61.1993 36.868 61.1607 36.8413 61.1302C36.8145 61.1003 36.7746 61.0816 36.7224 61.0754C36.6912 61.0723 36.6009 61.0704 36.4528 61.0704H36.271ZM36.271 61.6911V62.1113H36.5642C36.6781 62.1113 36.7504 62.1076 36.7809 62.1014C36.8282 62.0926 36.8662 62.0721 36.896 62.0391C36.9253 62.0055 36.9402 61.9613 36.9402 61.9052C36.9402 61.8579 36.929 61.8181 36.906 61.7857C36.8836 61.7527 36.8506 61.7291 36.807 61.7135C36.7641 61.6986 36.6707 61.6911 36.5269 61.6911H36.271ZM39.6061 62.3759H39.2643L39.1292 62.0192H38.5016L38.3715 62.3759H38.036L38.6436 60.8102H38.9792L39.6061 62.3759ZM39.0265 61.7546L38.8092 61.175L38.5975 61.7546H39.0265ZM40.4372 62.3759V60.8102H40.7441L41.3885 61.8592V60.8102H41.6811V62.3759H41.3648L40.7304 61.3462V62.3759H40.4372ZM42.6828 62.3759V60.8102H43.0003V61.5037L43.6391 60.8102H44.0637L43.4729 61.4196L44.0948 62.3759H43.6858L43.255 61.6407L43.0003 61.9021V62.3759H42.6828Z" fill="#221E1F"/>
<path d="M45.8442 62.3759V60.8102H46.3516C46.5434 60.8102 46.6685 60.8176 46.727 60.8332C46.8167 60.8569 46.8914 60.9079 46.9518 60.987C47.0128 61.0654 47.0427 61.1669 47.0427 61.292C47.0427 61.3879 47.0253 61.4688 46.991 61.5342C46.9555 61.5996 46.9113 61.6513 46.8578 61.6886C46.8042 61.726 46.7501 61.7509 46.6947 61.7627C46.6187 61.7776 46.5098 61.7851 46.3672 61.7851H46.1617V62.3759H45.8442ZM46.1617 61.0748V61.5205H46.3342C46.4581 61.5205 46.5409 61.5124 46.5826 61.4956C46.6249 61.4794 46.6573 61.4539 46.681 61.4184C46.7053 61.3835 46.7171 61.3431 46.7171 61.2964C46.7171 61.2391 46.7003 61.1924 46.6673 61.1551C46.6337 61.1177 46.5913 61.0947 46.5403 61.0853C46.5029 61.0779 46.427 61.0748 46.3137 61.0748H46.1617ZM47.9105 62.3759V60.8102H49.0698V61.0748H48.2281V61.4221H49.0106V61.6867H48.2281V62.1113H49.1003V62.3759H47.9105ZM49.9725 62.3759V60.8102H50.4475L50.7277 61.8779L51.0053 60.8102H51.481V62.3759H51.1884L51.1871 61.1432L50.8783 62.3759H50.5739L50.2663 61.1432L50.2657 62.3759H49.9725ZM52.4061 60.8102H53.0324C53.1563 60.8102 53.2484 60.8151 53.3095 60.8251C53.3705 60.8357 53.4252 60.8575 53.4732 60.8899C53.5211 60.9228 53.5616 60.9658 53.5933 61.02C53.6257 61.0748 53.6413 61.1358 53.6413 61.203C53.6413 61.2758 53.622 61.3437 53.5828 61.4041C53.5429 61.4657 53.4894 61.5112 53.4221 61.5417C53.5174 61.5697 53.5902 61.617 53.6413 61.6842C53.6923 61.7515 53.7179 61.8299 53.7179 61.9208C53.7179 61.9924 53.7017 62.0615 53.6687 62.1288C53.6351 62.1966 53.5902 62.2502 53.5323 62.2906C53.4751 62.3311 53.4047 62.3554 53.3207 62.3653C53.2677 62.3703 53.1407 62.3741 52.939 62.3759H52.4061V60.8102ZM52.723 61.0704V61.4309H52.9303C53.053 61.4309 53.1295 61.429 53.1594 61.4253C53.213 61.4197 53.2559 61.401 53.287 61.3699C53.3175 61.3387 53.3331 61.2983 53.3331 61.2478C53.3331 61.1993 53.3194 61.1607 53.2933 61.1302C53.2665 61.1003 53.2267 61.0816 53.1744 61.0754C53.1432 61.0723 53.053 61.0704 52.9048 61.0704H52.723ZM52.723 61.6911V62.1113H53.0162C53.1295 62.1113 53.2024 62.1076 53.2329 62.1014C53.2802 62.0927 53.3182 62.0721 53.3481 62.0391C53.3773 62.0055 53.3923 61.9613 53.3923 61.9053C53.3923 61.8579 53.381 61.8181 53.358 61.7857C53.3356 61.7527 53.302 61.7291 53.259 61.7135C53.2161 61.6986 53.1227 61.6911 52.9789 61.6911H52.723ZM56.0033 62.3759H55.6615L55.5264 62.0192H54.8989L54.7688 62.3759H54.4332L55.0408 60.8102H55.3764L56.0033 62.3759ZM55.4237 61.7546L55.2064 61.175L54.9947 61.7546H55.4237ZM56.7796 62.3759V60.8102H57.0866L57.7309 61.8592V60.8102H58.0235V62.3759H57.7073L57.0729 61.3462V62.3759H56.7796ZM59.6945 61.8007V61.5361H60.375V62.1605C60.309 62.2253 60.2131 62.2819 60.0874 62.3311C59.9616 62.3797 59.8346 62.4039 59.7057 62.4039C59.542 62.4039 59.3994 62.3697 59.2774 62.3012C59.156 62.2321 59.0651 62.1331 59.0035 62.0055C58.9424 61.8772 58.9119 61.7378 58.9119 61.5871C58.9119 61.424 58.9462 61.279 59.014 61.152C59.0825 61.0249 59.1828 60.9272 59.3141 60.8593C59.4144 60.807 59.5395 60.7815 59.6889 60.7815C59.8831 60.7815 60.0351 60.8226 60.1446 60.9042C60.2536 60.9857 60.3239 61.0984 60.3551 61.2428L60.04 61.302C60.0182 61.2248 59.9765 61.1644 59.9155 61.1196C59.8551 61.0748 59.7798 61.053 59.6883 61.053C59.5507 61.053 59.4411 61.0965 59.3596 61.1843C59.2786 61.2721 59.2375 61.4022 59.2375 61.5747C59.2375 61.7608 59.2786 61.9003 59.3614 61.9937C59.4436 62.0864 59.5519 62.1331 59.6858 62.1331C59.7512 62.1331 59.8178 62.12 59.8844 62.0939C59.951 62.0684 60.0077 62.0366 60.0556 61.9993V61.8007H59.6945ZM61.2752 60.8102H61.5921V61.6587C61.5921 61.7932 61.5958 61.8804 61.6039 61.9202C61.617 61.9843 61.6488 62.036 61.6992 62.0746C61.7496 62.1138 61.8187 62.1331 61.9065 62.1331C61.9949 62.1331 62.0621 62.1144 62.107 62.0777C62.1524 62.041 62.1792 61.9962 62.1885 61.9426C62.1972 61.8891 62.2022 61.8007 62.2022 61.6768V60.8102H62.5191V61.6332C62.5191 61.8212 62.511 61.9544 62.4936 62.0323C62.4768 62.1095 62.445 62.1755 62.3996 62.229C62.3535 62.2825 62.2925 62.3249 62.2159 62.3566C62.1393 62.3884 62.0391 62.4039 61.9158 62.4039C61.7664 62.4039 61.6537 62.3871 61.5765 62.3523C61.5 62.318 61.4389 62.2732 61.3941 62.2178C61.3493 62.1624 61.32 62.1045 61.3057 62.0435C61.2852 61.9538 61.2752 61.8212 61.2752 61.6463V60.8102ZM63.4617 62.3759V60.8102H63.7686L64.413 61.8592V60.8102H64.7062V62.3759H64.3893L63.7549 61.3462V62.3759H63.4617ZM67.0589 62.3759H66.7177L66.5826 62.0192H65.9544L65.8243 62.3759H65.4888L66.097 60.8102H66.4319L67.0589 62.3759ZM66.4793 61.7546L66.262 61.175L66.0503 61.7546H66.4793ZM67.8352 62.3759V60.8102H68.1421L68.7865 61.8592V60.8102H69.0797V62.3759H68.7628L68.1284 61.3462V62.3759H67.8352Z" fill="#221E1F"/>
<path d="M71.1199 60.8102H71.6964C71.8265 60.8102 71.9255 60.8195 71.9933 60.84C72.0849 60.8668 72.1639 60.9147 72.2287 60.9838C72.2947 61.053 72.3438 61.1376 72.3781 61.2379C72.4123 61.3375 72.4291 61.4614 72.4291 61.6077C72.4291 61.7365 72.4136 61.8473 72.3812 61.9407C72.342 62.0547 72.2866 62.1474 72.2137 62.2178C72.1596 62.2713 72.0855 62.3124 71.9927 62.3423C71.923 62.3647 71.8296 62.3759 71.7132 62.3759H71.1199V60.8102ZM71.4368 61.0747V62.1113H71.6715C71.7592 62.1113 71.8228 62.1057 71.862 62.0964C71.913 62.0833 71.9554 62.0615 71.989 62.031C72.0232 62.0005 72.0506 61.9501 72.0718 61.8797C72.0929 61.81 72.1035 61.7141 72.1035 61.5933C72.1035 61.4719 72.0929 61.3798 72.0718 61.3144C72.0506 61.2497 72.0207 61.1993 71.9821 61.1631C71.9442 61.127 71.8956 61.1021 71.8364 61.0897C71.7929 61.0797 71.7063 61.0747 71.5781 61.0747H71.4368ZM74.7108 62.3759H74.3691L74.234 62.0192H73.6058L73.4757 62.3759H73.1407L73.7484 60.8102H74.0833L74.7108 62.3759ZM74.1312 61.7546L73.914 61.175L73.7023 61.7546H74.1312ZM75.481 62.3759V60.8102H76.6402V61.0747H75.7979V61.4221H76.581V61.6867H75.7979V62.1113H76.6707V62.3759H75.481ZM77.541 62.3759V60.8102H78.2072C78.374 60.8102 78.4961 60.8245 78.572 60.8525C78.648 60.8805 78.7084 60.9303 78.7538 61.0019C78.7999 61.0741 78.8223 61.1563 78.8223 61.2491C78.8223 61.3667 78.788 61.4632 78.7196 61.5398C78.6505 61.6164 78.5477 61.6643 78.4108 61.6849C78.4786 61.7241 78.5347 61.7683 78.5789 61.8156C78.6237 61.8635 78.6835 61.9488 78.7582 62.0702L78.9493 62.3759H78.5714L78.3448 62.0335C78.2632 61.9127 78.2078 61.8361 78.1773 61.8044C78.1474 61.7726 78.1157 61.7509 78.0821 61.7396C78.0484 61.7278 77.9955 61.7216 77.9221 61.7216H77.8579V62.3759H77.541ZM77.8579 61.4726H78.092C78.2439 61.4726 78.3379 61.4657 78.3759 61.4533C78.4139 61.4402 78.4438 61.4184 78.4643 61.3866C78.4861 61.3555 78.4967 61.3163 78.4967 61.269C78.4967 61.2161 78.4824 61.1737 78.4543 61.1414C78.4263 61.109 78.3865 61.0884 78.3354 61.0797C78.3099 61.0766 78.2327 61.0747 78.1051 61.0747H77.8579V61.4726ZM81.132 62.3759H80.7908L80.6557 62.0192H80.0276L79.8975 62.3759H79.5619L80.1701 60.8102H80.5051L81.132 62.3759ZM80.553 61.7546L80.3351 61.175L80.1241 61.7546H80.553ZM81.9028 62.3759V60.8102H82.2196V61.4265H82.8366V60.8102H83.1535V62.3759H82.8366V61.6911H82.2196V62.3759H81.9028Z" fill="#221E1F"/>
<path d="M85.0934 60.8102H85.7197C85.8436 60.8102 85.9357 60.8151 85.9967 60.8251C86.0577 60.8357 86.1125 60.8575 86.1605 60.8898C86.2084 60.9228 86.2489 60.9658 86.2806 61.02C86.313 61.0747 86.3292 61.1358 86.3292 61.203C86.3292 61.2758 86.3093 61.3437 86.27 61.4041C86.2302 61.4657 86.1766 61.5112 86.1094 61.5417C86.2047 61.5697 86.2775 61.617 86.3292 61.6842C86.3796 61.7515 86.4051 61.8299 86.4051 61.9208C86.4051 61.9924 86.3889 62.0615 86.356 62.1287C86.323 62.1966 86.2775 62.2502 86.2196 62.2906C86.163 62.3311 86.092 62.3554 86.0079 62.3653C85.955 62.3703 85.828 62.374 85.6263 62.3759H85.0934V60.8102ZM85.4103 61.0704V61.4309H85.6176C85.7402 61.4309 85.8168 61.429 85.8467 61.4252C85.9009 61.4196 85.9432 61.401 85.9743 61.3698C86.0054 61.3387 86.0204 61.2982 86.0204 61.2478C86.0204 61.1993 86.0073 61.1607 85.9805 61.1302C85.9538 61.1003 85.9139 61.0816 85.8616 61.0754C85.8305 61.0723 85.7402 61.0704 85.5921 61.0704H85.4103ZM85.4103 61.6911V62.1113H85.7035C85.8174 62.1113 85.8897 62.1076 85.9202 62.1014C85.9675 62.0926 86.0054 62.0721 86.0353 62.0391C86.0646 62.0055 86.0795 61.9613 86.0795 61.9052C86.0795 61.8579 86.0683 61.8181 86.0453 61.7857C86.0229 61.7527 85.9893 61.7291 85.9463 61.7135C85.9033 61.6986 85.81 61.6911 85.6661 61.6911H85.4103ZM88.7086 62.3759H88.3675L88.2318 62.0192H87.6042L87.4741 62.3759H87.1385L87.7468 60.8102H88.0817L88.7086 62.3759ZM88.129 61.7546L87.9118 61.175L87.7001 61.7546H88.129ZM89.5037 62.3759V60.8102H89.81L90.4543 61.8592V60.8102H90.7475V62.3759H90.4307L89.7963 61.3462V62.3759H89.5037ZM92.0605 62.3759V61.0747H91.5967V60.8102H92.8388V61.0747H92.3774V62.3759H92.0605ZM93.6699 62.3759V60.8102H94.8291V61.0747H93.9868V61.4221H94.77V61.6867H93.9868V62.1113H94.8596V62.3759H93.6699ZM95.7542 62.3759V60.8102H96.0612L96.7055 61.8592V60.8102H96.9988V62.3759H96.6819L96.0475 61.3462V62.3759H95.7542Z" fill="#221E1F"/>
</g>
</g>
<rect x="1.5" y="1" width="110" height="110" rx="9" stroke="#CCCCCC" stroke-width="2"/>
<defs>
<clipPath id="clip0_421_544">
<rect x="2.5" y="2" width="108" height="108" rx="8" fill="white"/>
</clipPath>
<clipPath id="clip1_421_544">
<rect width="80" height="14.9416" fill="white" transform="translate(17 48.5292)"/>
</clipPath>
</defs>
</svg>
