<svg width="112" height="112" viewBox="0 0 112 112" fill="none" xmlns="http://www.w3.org/2000/svg">
<g clip-path="url(#clip0_528_44)">
<rect x="2" y="2" width="108" height="108" rx="8" fill="white"/>
<mask id="mask0_528_44" style="mask-type:luminance" maskUnits="userSpaceOnUse" x="17" y="52" width="10" height="9">
<path d="M20.6894 54.0518C21.2806 54.5918 22.3264 55.7854 21.9115 56.6607C21.6841 57.1381 20.877 56.4277 20.4053 56.3254C20.7179 56.7971 21.3772 57.644 22.2184 58.3659C23.0539 59.0877 25.0091 60.6621 25.8333 59.8095C26.7711 58.8376 24.3328 55.541 22.764 54.2962C21.2635 53.1026 18.9331 52.0682 17.7964 52C19.0866 52.6252 20.2347 53.6312 20.7008 54.0575" fill="white"/>
</mask>
<g mask="url(#mask0_528_44)">
<path d="M22.1499 47.5095L13.4561 56.4496L22.4002 65.1474L31.0941 56.2073L22.1499 47.5095Z" fill="url(#paint0_linear_528_44)"/>
</g>
<mask id="mask1_528_44" style="mask-type:luminance" maskUnits="userSpaceOnUse" x="16" y="52" width="9" height="9">
<path d="M16.2277 52.2955C15.2046 53.2162 17.876 56.5242 19.3424 57.7633C20.8089 58.9967 23.0938 59.9686 24.2305 60.0311C22.9801 59.5196 21.8035 58.4226 21.3659 57.9679C20.9282 57.5132 19.422 55.9502 20.0188 55.2738C20.3655 54.8816 21.0703 55.5466 21.5421 55.6489C21.2238 54.9157 20.6895 54.4439 19.8483 53.7221C19.1833 53.148 17.8931 52.0454 16.9098 52.0454C16.654 52.0454 16.421 52.1193 16.222 52.2955" fill="white"/>
</mask>
<g mask="url(#mask1_528_44)">
<path d="M19.5966 47.5293L11.2158 56.1475L19.8462 64.5402L28.227 55.9221L19.5966 47.5293Z" fill="url(#paint1_linear_528_44)"/>
</g>
<path d="M20.0245 55.2682C20.3314 54.8817 21.076 55.2113 21.4227 55.5239C21.7751 55.8365 22.1559 56.422 21.9797 56.7175C21.8092 57.0131 21.093 56.8767 20.6554 56.5413C20.2291 56.206 19.7687 55.5921 20.0245 55.2682Z" fill="#19335D"/>
<path d="M93.3514 56.9108C93.323 56.9164 93.2775 56.9221 93.215 56.9221H92.3226C92.2033 56.9221 92.118 56.9164 92.0782 56.9051C92.0612 56.8994 92.0555 56.8937 92.0555 56.8937C92.0555 56.8937 92.0555 56.8937 92.0555 56.8823C92.0555 56.871 92.0668 56.8028 92.101 56.7118L92.6864 55.3022C92.6977 55.2681 92.7148 55.2511 92.7262 55.2397C92.7375 55.2511 92.7603 55.2852 92.7773 55.3363L93.3287 56.6891C93.3571 56.7516 93.3684 56.8085 93.3798 56.8426C93.3855 56.8596 93.3855 56.8767 93.3912 56.888C93.3912 56.888 93.3912 56.888 93.3912 56.8937C93.3912 56.8937 93.3741 56.9051 93.3514 56.9108ZM95.9603 59.1388C95.9318 59.082 95.8807 59.0479 95.8295 59.0251C95.7784 59.0081 95.7159 58.991 95.6477 58.9683C95.4203 58.8887 95.335 58.758 95.2271 58.5022L93.2491 53.7335C93.2036 53.6369 93.1411 53.5459 93.0331 53.5403C92.9819 53.5403 92.9308 53.5573 92.9024 53.5914C92.8683 53.6255 92.8569 53.6596 92.8398 53.6994L90.8846 58.2351C90.7255 58.5989 90.6175 58.8205 90.4299 58.9456C90.3674 58.991 90.2935 59.0081 90.2196 59.0422C90.1798 59.0592 90.1457 59.082 90.1173 59.1218C90.0889 59.1616 90.0718 59.2127 90.0718 59.2695C90.0718 59.3378 90.0946 59.4003 90.14 59.4457C90.1855 59.4912 90.248 59.5083 90.3162 59.5083C90.3788 59.5083 90.447 59.4855 90.5606 59.4685C90.6686 59.4514 90.8107 59.4344 90.9983 59.4344C91.4928 59.4344 91.8168 59.514 91.9986 59.514C92.0668 59.514 92.1351 59.4969 92.1862 59.4514C92.2317 59.406 92.2544 59.3378 92.2544 59.2695C92.2601 59.1786 92.1919 59.099 92.1237 59.0706C92.0555 59.0422 91.9702 59.0251 91.885 59.0081C91.7088 58.974 91.5894 58.9228 91.5155 58.8603C91.4416 58.7978 91.4132 58.7296 91.4075 58.6273C91.4075 58.5648 91.4246 58.4852 91.4644 58.3829L91.6747 57.7747C91.7372 57.6099 91.7883 57.5473 91.8509 57.5189C91.9191 57.4848 92.0327 57.4791 92.2033 57.4848H93.3002C93.4594 57.4848 93.5446 57.4905 93.5958 57.5246C93.6526 57.553 93.7038 57.6212 93.7663 57.7804L93.988 58.3147C94.0391 58.434 94.0562 58.5534 94.0562 58.6386C94.0562 58.741 94.0278 58.8092 93.988 58.8603C93.9255 58.9342 93.8232 58.9797 93.7208 59.0251C93.6697 59.0479 93.6242 59.0706 93.5787 59.1047C93.5333 59.1388 93.4992 59.1957 93.4992 59.2639C93.4992 59.3264 93.5162 59.3832 93.5503 59.4287C93.5844 59.4742 93.6356 59.5083 93.6981 59.5083C93.7549 59.5083 93.8459 59.4855 94.0107 59.4685C94.1699 59.4514 94.3972 59.4287 94.6871 59.4287C95.1986 59.4287 95.5624 59.4969 95.7784 59.5026C95.8352 59.5026 95.8921 59.5026 95.9432 59.4571C95.9944 59.406 95.9944 59.3434 96 59.2752C96 59.2298 95.9944 59.1843 95.9773 59.1445M88.702 58.3545C88.3553 58.7466 87.8608 58.9626 87.264 58.9626C86.8718 58.9626 86.69 58.8774 86.5933 58.7182C86.491 58.5591 86.4683 58.2862 86.4683 57.8997V54.8532C86.4683 54.569 86.4967 54.4042 86.5706 54.3246C86.6502 54.2394 86.8093 54.1882 87.139 54.1939C88.4122 54.1939 89.259 55.2113 89.259 56.655C89.259 57.3825 89.0544 57.9623 88.702 58.3545ZM89.5717 54.3644C89.0317 53.9097 88.2416 53.6653 87.2242 53.6653C86.7752 53.6653 86.2409 53.7449 85.61 53.7449C85.2122 53.7449 84.9564 53.6994 84.8086 53.6937C84.7234 53.6937 84.6552 53.7108 84.5983 53.7562C84.5415 53.796 84.5074 53.8699 84.5074 53.9438C84.5074 54.0177 84.5358 54.0802 84.5869 54.12C84.6608 54.1712 84.7404 54.1768 84.8257 54.1939C84.9109 54.2053 85.0019 54.2223 85.0814 54.2678C85.2179 54.3474 85.2861 54.4269 85.3258 54.5349C85.3656 54.6486 85.377 54.8021 85.377 55.0124V58.309C85.377 58.4795 85.36 58.6102 85.3202 58.7068C85.2804 58.8092 85.2179 58.8774 85.1155 58.9342C85.036 58.9854 84.945 59.0138 84.8711 59.0592C84.7972 59.099 84.7177 59.1843 84.7177 59.298C84.7177 59.4401 84.8427 59.531 84.9678 59.5367C84.9962 59.5367 85.0189 59.5253 85.0758 59.5196C85.2349 59.4912 85.5816 59.4401 86.1898 59.4401C86.5422 59.4401 86.8718 59.4855 87.1958 59.4855C88.1393 59.4855 88.9408 59.1331 89.5035 58.5648C90.0662 57.9907 90.3958 57.195 90.3958 56.314C90.3958 55.4898 90.1173 54.8134 89.5773 54.3587M81.9951 56.9164C81.9667 56.9221 81.9212 56.9278 81.8587 56.9278H80.9664C80.8413 56.9278 80.7617 56.9221 80.722 56.9108C80.7049 56.9051 80.6935 56.8994 80.6935 56.8994C80.6935 56.8994 80.6935 56.8994 80.6935 56.888C80.6935 56.8767 80.7049 56.8085 80.739 56.7175L81.3188 55.3079C81.3301 55.2738 81.3472 55.2568 81.3585 55.2454C81.3699 55.2568 81.3926 55.2909 81.4097 55.342L81.961 56.6948C81.9894 56.7573 82.0065 56.8141 82.0122 56.8482C82.0122 56.8653 82.0179 56.8823 82.0236 56.8937C82.0236 56.8937 82.0065 56.9108 81.9838 56.9164M84.4562 59.0308C84.4051 59.0138 84.3482 58.9967 84.2687 58.974C84.047 58.8944 83.956 58.7637 83.8481 58.5079L81.8644 53.7392C81.8189 53.6426 81.7564 53.5516 81.6484 53.5459C81.5973 53.5459 81.5461 53.563 81.512 53.5971C81.4779 53.6312 81.4665 53.6653 81.4495 53.7051L79.4943 58.2408C79.3408 58.6045 79.2271 58.8262 79.0396 58.9513C78.9713 58.9967 78.9031 59.0138 78.8236 59.0479C78.7895 59.0649 78.7497 59.0877 78.7213 59.1275C78.6928 59.1672 78.6758 59.2184 78.6758 59.2752C78.6758 59.3434 78.6985 59.406 78.744 59.4514C78.7951 59.4969 78.8577 59.514 78.9202 59.514C78.9827 59.514 79.0509 59.4912 79.1589 59.4742C79.2669 59.4571 79.4147 59.4401 79.5909 59.4401C80.0854 59.4401 80.4093 59.5196 80.5912 59.5196C80.6594 59.5196 80.7276 59.5026 80.7731 59.4571C80.8186 59.4116 80.8413 59.3434 80.8413 59.2752C80.8413 59.1843 80.7788 59.1047 80.7106 59.0763C80.6424 59.0479 80.5628 59.0308 80.4719 59.0138C80.3014 58.9797 80.1763 58.9285 80.1024 58.866C80.0285 58.8035 80.0001 58.7353 79.9944 58.633C79.9944 58.5704 80.0172 58.4909 80.0513 58.3886L80.2616 57.7804C80.3241 57.6156 80.3752 57.553 80.4378 57.5246C80.506 57.4905 80.6196 57.4848 80.7958 57.4848H81.8928C82.0463 57.4848 82.1372 57.4905 82.1941 57.5246C82.2452 57.553 82.2964 57.6212 82.3589 57.7804L82.5749 58.3147C82.626 58.434 82.6431 58.5534 82.6431 58.6386C82.6431 58.741 82.6147 58.8092 82.5749 58.8603C82.518 58.9342 82.41 58.9797 82.3077 59.0251C82.2566 59.0479 82.2054 59.0706 82.1656 59.1047C82.1202 59.1388 82.0804 59.1957 82.0861 59.2639C82.0861 59.3264 82.1031 59.3832 82.1372 59.4287C82.1713 59.4742 82.2225 59.5083 82.285 59.5083C82.3418 59.5083 82.4328 59.4855 82.5976 59.4685C82.7624 59.4514 82.9841 59.4287 83.274 59.4287C83.7912 59.4287 84.1493 59.4969 84.371 59.4969C84.4278 59.4969 84.479 59.4969 84.5358 59.4514C84.587 59.4003 84.5869 59.3378 84.5869 59.2695C84.5869 59.2241 84.587 59.1786 84.5642 59.1388C84.5358 59.082 84.479 59.0479 84.4335 59.0251M77.2094 56.4447C77.1184 56.4447 77.0559 56.4333 76.9991 56.4276C76.9422 56.4163 76.9081 56.4049 76.8683 56.4049C76.7547 56.4049 76.6751 56.4958 76.6751 56.5925C76.6751 56.6607 76.7035 56.7232 76.749 56.7743C76.8911 56.9164 77.1696 56.979 77.5561 56.9846C78.0335 56.9846 78.4598 56.8085 78.761 56.5072C79.0623 56.206 79.2442 55.7797 79.2442 55.2966C79.2442 54.8134 79.0737 54.4042 78.744 54.1143C78.4143 53.8244 77.9312 53.6596 77.323 53.6596C76.9763 53.6596 76.5103 53.7392 75.8907 53.7392C75.3849 53.7392 75.0666 53.6767 74.9302 53.6767C74.8563 53.6767 74.7881 53.6937 74.7369 53.7392C74.6857 53.7847 74.663 53.8529 74.6687 53.9211C74.6687 54.0063 74.7085 54.0802 74.7653 54.1143C74.8506 54.1655 74.9472 54.1655 75.0438 54.1882C75.1405 54.2109 75.2314 54.2394 75.3167 54.3189C75.3962 54.3985 75.436 54.4895 75.4644 54.6145C75.4872 54.7395 75.4928 54.893 75.4928 55.0863V58.2237C75.4928 58.5818 75.4076 58.7807 75.22 58.9058C75.1348 58.9626 75.0438 58.991 74.9699 59.0365C74.896 59.0763 74.8222 59.1672 74.8278 59.2809C74.8278 59.3434 74.8506 59.406 74.9017 59.4457C74.9529 59.4855 75.0154 59.5026 75.0893 59.5026C75.2825 59.5026 75.6406 59.4287 76.1522 59.4287C76.6637 59.4287 76.9479 59.4969 77.1014 59.5026C77.1753 59.5026 77.2435 59.4912 77.3003 59.4457C77.3515 59.4003 77.3742 59.3264 77.3742 59.2525C77.3742 59.1843 77.3515 59.1218 77.3117 59.082C77.2491 59.0195 77.1753 59.0024 77.1014 58.991C77.0275 58.974 76.9593 58.9569 76.8911 58.9285C76.7831 58.8717 76.7092 58.7921 76.6637 58.6727C76.6126 58.5534 76.5898 58.3999 76.5898 58.1953V55.0351C76.5898 54.7054 76.5898 54.4724 76.6523 54.3417C76.6808 54.2735 76.7092 54.2394 76.7603 54.2053C76.8172 54.1768 76.8911 54.1598 77.0104 54.1598C77.3571 54.1598 77.63 54.2905 77.8232 54.5122C78.0108 54.7339 78.1245 55.0578 78.1245 55.45C78.1245 55.7967 78.0449 56.0411 77.8971 56.2003C77.7493 56.3594 77.5277 56.4447 77.215 56.4447M72.1906 56.9108C72.1906 56.9108 72.1167 56.9221 72.0541 56.9221H71.1618C71.0367 56.9221 70.9572 56.9164 70.9174 56.9051C70.8946 56.8994 70.889 56.8937 70.889 56.8937C70.889 56.8937 70.889 56.8937 70.889 56.8823C70.889 56.871 70.9003 56.8028 70.9344 56.7118L71.5199 55.3022C71.5312 55.2681 71.5483 55.2511 71.5597 55.2397C71.571 55.2511 71.5938 55.2852 71.6108 55.3363L72.1621 56.6891C72.1906 56.7516 72.2019 56.8085 72.2133 56.8426C72.219 56.8596 72.219 56.8767 72.2247 56.888C72.2247 56.888 72.2247 56.888 72.2247 56.8937C72.219 56.8937 72.2076 56.9051 72.1849 56.9108M74.663 59.0251C74.6119 59.0081 74.555 58.991 74.4811 58.9683C74.2538 58.8887 74.1685 58.758 74.0605 58.5022L72.0826 53.7335C72.0371 53.6369 71.9746 53.5459 71.8666 53.5403C71.8154 53.5403 71.7643 53.5573 71.7359 53.5914C71.7017 53.6255 71.6904 53.6596 71.6733 53.6994L69.7181 58.2351C69.5646 58.5989 69.451 58.8205 69.2634 58.9456C69.1952 58.991 69.127 59.0081 69.0531 59.0422C69.019 59.0592 68.9792 59.082 68.9508 59.1218C68.9167 59.1616 68.9053 59.2127 68.9053 59.2695C68.9053 59.3378 68.928 59.4003 68.9735 59.4457C69.0247 59.4912 69.0872 59.5083 69.1497 59.5083C69.2122 59.5083 69.2804 59.4855 69.3941 59.4685C69.5021 59.4514 69.6442 59.4344 69.8261 59.4344C70.3206 59.4344 70.6502 59.514 70.8321 59.514C70.9003 59.514 70.9628 59.4969 71.014 59.4514C71.0595 59.406 71.0822 59.3378 71.0822 59.2695C71.0822 59.1786 71.0197 59.099 70.9515 59.0706C70.8833 59.0422 70.8037 59.0251 70.7128 59.0081C70.5366 58.974 70.4172 58.9228 70.3433 58.8603C70.2694 58.7978 70.2353 58.7296 70.2353 58.6273C70.2353 58.5648 70.2524 58.4852 70.2922 58.3829L70.5025 57.7747C70.565 57.6099 70.6161 57.5473 70.6787 57.5189C70.7469 57.4848 70.8605 57.4791 71.0311 57.4848H72.0428C72.0769 57.4848 72.1053 57.4848 72.128 57.4848C72.2815 57.4848 72.3724 57.4905 72.4236 57.5246C72.4747 57.553 72.5259 57.6212 72.5941 57.7804L72.8101 58.3147C72.8612 58.434 72.8783 58.5534 72.8783 58.6386C72.8783 58.741 72.8499 58.8092 72.8101 58.8603C72.7476 58.9342 72.6453 58.9797 72.5429 59.0251C72.4918 59.0479 72.4463 59.0706 72.4009 59.1047C72.3554 59.1388 72.3213 59.1957 72.3213 59.2639C72.3213 59.3264 72.3383 59.3832 72.3724 59.4287C72.4065 59.4742 72.4577 59.5083 72.5202 59.5083C72.5771 59.5083 72.668 59.4855 72.8328 59.4685C72.992 59.4514 73.2193 59.4287 73.5092 59.4287C74.0207 59.4287 74.3845 59.4969 74.6005 59.4969C74.6573 59.4969 74.7142 59.4969 74.7653 59.4514C74.8165 59.4003 74.8165 59.3378 74.8165 59.2695C74.8165 59.2241 74.8108 59.1786 74.7937 59.1388C74.7653 59.082 74.7142 59.0479 74.663 59.0251ZM68.8201 54.6259C68.9678 54.3474 69.1383 54.1825 69.2463 54.1427C69.2918 54.12 69.3543 54.1143 69.4169 54.0859C69.4794 54.0575 69.5419 53.9779 69.5362 53.8756C69.5362 53.8131 69.5135 53.7392 69.4623 53.7051C69.4055 53.6653 69.3486 53.6596 69.2748 53.6596C69.0929 53.6596 68.8655 53.7165 68.6041 53.7165C68.1437 53.7165 67.8879 53.671 67.7856 53.671C67.7174 53.671 67.6492 53.6823 67.6037 53.7221C67.5526 53.7619 67.5298 53.8301 67.5298 53.8926C67.5298 53.9495 67.5412 54.0063 67.5753 54.0461C67.6321 54.103 67.7003 54.1143 67.7685 54.12C67.8368 54.1314 67.9106 54.1371 67.9959 54.1598C68.1948 54.2223 68.2744 54.3246 68.2801 54.4895C68.2801 54.6145 68.2119 54.7282 68.1323 54.8873L67.3934 56.2855C67.3934 56.2855 67.3707 56.331 67.3593 56.3367C67.3536 56.331 67.3479 56.3196 67.3423 56.3083L66.4726 54.6031C66.3988 54.4667 66.3703 54.3644 66.3703 54.3133C66.3703 54.2507 66.3874 54.2223 66.4158 54.1939C66.4556 54.1541 66.5352 54.1314 66.6204 54.0973C66.6602 54.0802 66.7057 54.0632 66.7398 54.0291C66.7796 53.995 66.808 53.9381 66.808 53.8756C66.808 53.8074 66.7852 53.7335 66.7284 53.6937C66.6716 53.6596 66.6147 53.6596 66.5465 53.6596C66.4385 53.6596 66.1714 53.7165 65.6599 53.7165C65.3643 53.7165 65.1369 53.7051 64.9778 53.688C64.813 53.671 64.722 53.6596 64.6766 53.6596C64.6027 53.6596 64.5401 53.671 64.4833 53.7051C64.4265 53.7392 64.3867 53.8131 64.3924 53.8813C64.3924 53.9438 64.4094 54.0063 64.4549 54.0404C64.5117 54.0973 64.5856 54.1086 64.6538 54.1257C64.722 54.1427 64.7902 54.1484 64.8471 54.1768C64.9607 54.2223 65.154 54.4269 65.2961 54.7168L66.4215 56.8596C66.4783 56.9619 66.5181 57.0188 66.5238 57.212V58.1214C66.5238 58.3488 66.5181 58.5136 66.4783 58.6273C66.4442 58.7409 66.3817 58.8148 66.251 58.8887C66.1373 58.9569 66.0066 58.974 65.8872 59.0024C65.8304 59.0195 65.7735 59.0308 65.7224 59.0706C65.6712 59.1104 65.6371 59.1786 65.6371 59.2525C65.6371 59.3207 65.6712 59.3889 65.7224 59.4344C65.7792 59.4798 65.8474 59.4969 65.9327 59.4969C66.1998 59.4969 66.6204 59.4173 67.1717 59.4173C67.689 59.4173 68.0527 59.4855 68.2687 59.4912C68.3426 59.4912 68.4108 59.4742 68.4677 59.4287C68.5188 59.3832 68.5415 59.3093 68.5415 59.2411C68.5415 59.1502 68.4961 59.0763 68.4392 59.0365C68.3483 58.974 68.2403 58.9683 68.1323 58.9513C68.0243 58.9342 67.9163 58.9115 67.8481 58.866C67.7458 58.7921 67.6947 58.7125 67.6606 58.5818C67.6321 58.4511 67.6265 58.2749 67.6265 58.0362V57.0301C67.6265 56.9392 67.6265 56.8767 67.706 56.7402L68.8314 54.6145L68.8201 54.6259ZM62.6645 56.9108C62.6645 56.9108 62.5906 56.9221 62.5338 56.9221H61.6414C61.5164 56.9221 61.4368 56.9164 61.3913 56.9051C61.3743 56.9051 61.3686 56.8937 61.3686 56.8937C61.3686 56.8937 61.3686 56.8937 61.3686 56.8823C61.3686 56.871 61.3799 56.8028 61.4197 56.7118L61.9995 55.3022C62.0108 55.2681 62.0279 55.2511 62.0393 55.2397C62.0506 55.2511 62.0734 55.2852 62.0904 55.3363L62.6418 56.6891C62.6645 56.7516 62.6815 56.8085 62.6929 56.8426C62.6986 56.8596 62.6986 56.8767 62.7043 56.888C62.7043 56.888 62.7043 56.888 62.7043 56.8937C62.7043 56.8937 62.6872 56.9051 62.6645 56.9108ZM65.1369 59.0251C65.0858 59.0081 65.0289 58.991 64.9551 58.9683C64.7277 58.8887 64.6424 58.758 64.5345 58.5022L62.5565 53.7335C62.511 53.6369 62.4485 53.5459 62.3405 53.5403C62.2894 53.5403 62.2382 53.5573 62.2041 53.5914C62.17 53.6255 62.1586 53.6596 62.1473 53.6994L60.192 58.2351C60.0329 58.5989 59.9249 58.8205 59.7373 58.9456C59.6691 58.991 59.5952 59.0081 59.527 59.0422C59.4872 59.0592 59.4531 59.082 59.4247 59.1218C59.3963 59.1616 59.3792 59.2127 59.3792 59.2695C59.3792 59.3378 59.402 59.4003 59.4474 59.4457C59.4929 59.4912 59.5554 59.5083 59.6236 59.5083C59.6862 59.5083 59.7544 59.4855 59.868 59.4685C59.976 59.4514 60.1181 59.4344 60.3 59.4344C60.7945 59.4344 61.1242 59.514 61.3061 59.514C61.3743 59.514 61.4368 59.4969 61.4879 59.4514C61.5391 59.406 61.5618 59.3378 61.5561 59.2695C61.5618 59.1786 61.4936 59.099 61.4254 59.0706C61.3572 59.0422 61.2776 59.0251 61.1867 59.0081C61.0162 58.974 60.8911 58.9228 60.8172 58.8603C60.7434 58.7978 60.7149 58.7296 60.7093 58.6273C60.7093 58.5648 60.7263 58.4852 60.7661 58.3829L60.9764 57.7747C61.0389 57.6099 61.0901 57.5473 61.1526 57.5189C61.2208 57.4848 61.3345 57.4791 61.5107 57.4791H62.6076C62.7611 57.4791 62.8521 57.4848 62.9032 57.5189C62.9544 57.5473 63.0055 57.6156 63.068 57.7747L63.2897 58.309C63.3409 58.4283 63.3636 58.5477 63.3579 58.633C63.3579 58.7353 63.3295 58.8035 63.2897 58.8546C63.2272 58.9285 63.1249 58.974 63.0226 59.0195C62.9714 59.0422 62.9203 59.0649 62.8805 59.099C62.8407 59.1331 62.8009 59.19 62.8009 59.2582C62.8009 59.3207 62.8179 59.3775 62.8521 59.423C62.8862 59.4685 62.9373 59.5026 62.9998 59.5026C63.0567 59.5026 63.1476 59.4798 63.3124 59.4628C63.4773 59.4457 63.6989 59.423 63.9888 59.423C64.5004 59.423 64.8641 59.4912 65.0801 59.4912C65.1369 59.4912 65.1881 59.4912 65.2449 59.4457C65.2961 59.3946 65.2961 59.3321 65.2961 59.2639C65.2961 59.2184 65.2961 59.1729 65.2734 59.1331C65.2449 59.0763 65.1938 59.0422 65.1426 59.0195M59.1178 59.0024C59.0553 58.9854 58.9814 58.9626 58.8904 58.9001C58.7881 58.8148 58.7256 58.7239 58.6915 58.5989C58.6517 58.4738 58.6403 58.3147 58.6347 58.11L58.5494 54.9044V54.8362C58.5494 54.66 58.5665 54.5236 58.6006 54.4269C58.6347 54.3303 58.6801 54.2678 58.7597 54.2223C58.9132 54.1371 59.0098 54.1257 59.0837 54.1086C59.1235 54.103 59.1576 54.0973 59.203 54.0575C59.2428 54.0177 59.2485 53.9665 59.2485 53.9097C59.2485 53.8358 59.2428 53.7733 59.1917 53.7221C59.1405 53.671 59.078 53.6653 59.0155 53.6653C58.862 53.6653 58.6744 53.7221 58.4187 53.7221C58.2538 53.7221 58.1515 53.6937 58.0606 53.688C57.9981 53.688 57.9412 53.6994 57.8901 53.7278C57.8389 53.7562 57.8105 53.8074 57.7821 53.8585L55.9064 57.7633C55.9064 57.7633 55.8837 57.8031 55.878 57.8088H55.8723C55.8723 57.8088 55.8666 57.8088 55.861 57.7974C55.8553 57.7861 55.8439 57.769 55.8325 57.7463L54.116 53.9438C54.0762 53.8529 54.0478 53.7903 53.9967 53.7449C53.9455 53.6937 53.883 53.6767 53.8148 53.6767C53.7636 53.6767 53.6045 53.6994 53.3203 53.6994C53.1214 53.6994 52.9736 53.688 52.8713 53.6823C52.7633 53.671 52.7121 53.6653 52.678 53.6596C52.6155 53.6596 52.5587 53.671 52.5075 53.7165C52.462 53.7619 52.4507 53.8244 52.4507 53.8813C52.4507 53.9495 52.4734 54.012 52.5189 54.0518C52.5814 54.103 52.6439 54.1143 52.7121 54.1314C52.7803 54.1541 52.8485 54.1768 52.9281 54.245C53.1782 54.461 53.2294 54.8362 53.2294 55.3704C53.2294 55.5353 53.2237 55.6603 53.2237 55.7513L53.1384 57.7804C53.1157 58.3772 53.0418 58.7353 52.9281 58.8376C52.8599 58.9058 52.7462 58.9513 52.6439 58.991C52.5928 59.0138 52.5416 59.0365 52.5018 59.0706C52.4564 59.1047 52.4223 59.1616 52.4223 59.2298C52.4223 59.298 52.445 59.3548 52.4734 59.4003C52.5018 59.4457 52.5473 59.4855 52.6155 59.4855C52.7633 59.4855 53.0304 59.423 53.4283 59.423C53.7693 59.423 54.0194 59.4798 54.1956 59.4798C54.2638 59.4798 54.3207 59.4798 54.3775 59.4401C54.4343 59.4003 54.4627 59.3264 54.4571 59.2582C54.4571 59.19 54.44 59.1275 54.4002 59.0877C54.3377 59.0195 54.2638 59.0138 54.1956 59.0024C54.1274 58.991 54.0535 58.9797 53.991 58.9456C53.8546 58.8717 53.7807 58.7807 53.7352 58.65C53.6841 58.5193 53.6727 58.3431 53.6727 58.1214V57.7804L53.7409 55.7967C53.7409 55.7683 53.7409 55.7399 53.7523 55.7115C53.7579 55.7285 53.7693 55.7513 53.775 55.7683L55.2869 59.207C55.3153 59.2639 55.3267 59.315 55.3608 59.3605C55.3949 59.4116 55.4574 59.4457 55.5256 59.4457C55.5995 59.4457 55.6563 59.4116 55.6961 59.3662C55.7302 59.3207 55.753 59.2695 55.7757 59.2184L57.4126 55.8081C57.4354 55.7626 57.4581 55.7228 57.4808 55.6944C57.4808 55.7115 57.4865 55.7399 57.4865 55.7626L57.5888 58.2465V58.4113C57.5888 58.5534 57.5775 58.6614 57.5434 58.741C57.515 58.8205 57.4638 58.883 57.3785 58.9456C57.3103 58.991 57.2421 59.0081 57.1739 59.0422C57.1398 59.0592 57.1057 59.082 57.0773 59.1161C57.0489 59.1502 57.0318 59.2013 57.0318 59.2525C57.0318 59.3264 57.0546 59.3946 57.1057 59.4401C57.1569 59.4855 57.2251 59.4969 57.2933 59.4969C57.4524 59.4969 57.7309 59.423 58.1913 59.423C58.6517 59.423 58.9359 59.4855 59.095 59.4855C59.1803 59.4855 59.2428 59.4798 59.3054 59.4287C59.3622 59.3775 59.3736 59.3036 59.3736 59.2241C59.3736 59.1616 59.3565 59.1047 59.3167 59.0649C59.2485 59.0138 59.186 59.0195 59.1235 59.0024M50.3306 59.0024C50.2738 58.9854 50.1999 58.9626 50.1089 58.8944C49.9725 58.7978 49.7906 58.5989 49.586 58.3033L48.131 56.2799C48.0457 56.1719 48.023 56.0923 48.023 56.0639C48.023 56.0639 48.0741 55.9729 48.1651 55.8763L48.9949 55.0635C49.5235 54.5463 49.9043 54.2848 50.0123 54.228C50.1317 54.1655 50.2283 54.1484 50.3136 54.1143C50.359 54.0973 50.3988 54.0802 50.4329 54.0404C50.4727 54.0006 50.4841 53.9438 50.4841 53.8813C50.4841 53.8131 50.4557 53.7449 50.4045 53.7051C50.3477 53.6653 50.2908 53.6596 50.2226 53.6596C50.0407 53.6596 49.802 53.7165 49.461 53.7165C49.137 53.7165 48.8642 53.671 48.6198 53.6653C48.5573 53.6653 48.5004 53.671 48.455 53.7051C48.4038 53.7392 48.3867 53.8017 48.3924 53.8585C48.3924 53.9154 48.3924 53.9609 48.4208 54.0006C48.4493 54.0688 48.5175 54.0973 48.5629 54.103C48.6141 54.1143 48.6653 54.1143 48.7221 54.1257C48.813 54.1484 48.8415 54.1882 48.8471 54.2564C48.8471 54.2735 48.8358 54.3303 48.7903 54.4042C48.6653 54.6315 48.3413 55.0294 47.8127 55.541L46.926 56.4049C46.926 56.4049 46.8805 56.4447 46.8635 56.4504C46.8521 56.4504 46.8464 56.4561 46.8407 56.4561C46.8407 56.4333 46.8294 56.3822 46.8351 56.3083V54.9044C46.8351 54.7395 46.8351 54.6088 46.8578 54.5065C46.8805 54.4042 46.9203 54.3246 47.0113 54.245C47.0965 54.1655 47.1875 54.1371 47.2784 54.103C47.3239 54.0859 47.3693 54.0632 47.4091 54.0291C47.4489 53.9893 47.4717 53.9324 47.4717 53.8642C47.4717 53.796 47.4546 53.7392 47.4091 53.6994C47.3637 53.6539 47.3068 53.6369 47.2443 53.6369C47.1249 53.6369 46.7669 53.7108 46.1416 53.7108C45.6244 53.7108 45.2948 53.6482 45.1299 53.6482C45.0503 53.6482 44.9821 53.671 44.931 53.7165C44.8798 53.7619 44.8514 53.8301 44.8514 53.8983C44.8514 53.9836 44.8912 54.0632 44.9594 54.0916C45.0503 54.1427 45.1527 54.1427 45.255 54.1598C45.363 54.1768 45.4653 54.2109 45.5505 54.2962C45.6415 54.3815 45.6812 54.4667 45.7097 54.5918C45.7324 54.7111 45.7381 54.8646 45.7381 55.0635V58.0248C45.7381 58.2237 45.7324 58.3829 45.7097 58.5136C45.6812 58.6386 45.6358 58.7353 45.5562 58.8205C45.4766 58.9001 45.3743 58.9399 45.2777 58.991C45.2265 59.0195 45.1811 59.0422 45.1413 59.0877C45.1015 59.1331 45.0731 59.1957 45.0788 59.2695C45.0788 59.3321 45.1015 59.3946 45.1527 59.4344C45.2038 59.4742 45.2663 59.4912 45.3402 59.4912C45.5505 59.4912 45.9029 59.4173 46.4031 59.4173C46.8407 59.4173 47.1534 59.4855 47.3523 59.4912C47.4205 59.4912 47.483 59.4798 47.5342 59.4344C47.5853 59.3832 47.5967 59.315 47.5967 59.2411C47.5967 59.1672 47.574 59.1047 47.5228 59.0649C47.4546 59.0081 47.375 58.9967 47.2955 58.974C47.2159 58.9513 47.142 58.9342 47.0738 58.883C46.9601 58.7978 46.909 58.7012 46.8749 58.5534C46.8408 58.4056 46.8351 58.2124 46.8407 57.9736V57.4109C46.8407 57.3314 46.8407 57.2632 46.8521 57.212C46.8635 57.1608 46.8805 57.1324 46.9146 57.104L47.1647 56.8823C47.1931 56.8539 47.2216 56.8312 47.2386 56.8198C47.25 56.8312 47.2614 56.8539 47.2784 56.8767L48.8869 59.1843C49.0063 59.3548 49.1313 59.4571 49.2734 59.4571C49.3985 59.4571 49.5406 59.4173 49.6997 59.4173C49.8759 59.4173 50.0748 59.4628 50.2965 59.4628C50.3704 59.4628 50.4329 59.4514 50.4898 59.4003C50.5409 59.3491 50.558 59.2752 50.558 59.2013C50.558 59.1502 50.5409 59.0933 50.5011 59.0592C50.4443 59.0138 50.3931 59.0138 50.3306 58.9967M36.0188 56.8937C36.0188 56.8937 35.9449 56.9051 35.888 56.9051H34.9957C34.8763 56.9051 34.7911 56.8994 34.7513 56.888C34.7342 56.8823 34.7285 56.8767 34.7285 56.8767C34.7285 56.8767 34.7285 56.8767 34.7285 56.8653C34.7285 56.8539 34.7399 56.7857 34.7797 56.6948L35.3594 55.2852C35.3708 55.2511 35.3879 55.234 35.3992 55.2227C35.4106 55.234 35.4333 55.2681 35.4504 55.3193L36.0017 56.672C36.0245 56.7346 36.0415 56.7914 36.0529 56.8255C36.0586 56.8426 36.0642 56.8596 36.0642 56.871C36.0642 56.871 36.0642 56.871 36.0642 56.8767C36.0642 56.8767 36.0472 56.888 36.0245 56.8937M44.5445 53.6994C44.4933 53.6596 44.4365 53.6539 44.374 53.6539C44.1523 53.6539 43.8226 53.7165 43.4134 53.7165C43.1122 53.7165 42.8621 53.6596 42.6575 53.6596C42.5893 53.6596 42.5267 53.671 42.4813 53.7108C42.4301 53.7506 42.4131 53.8188 42.4131 53.8813C42.4131 53.9552 42.4472 54.0291 42.504 54.0632C42.5836 54.1086 42.6688 54.1143 42.7768 54.1427C42.8848 54.1655 43.0042 54.1996 43.1292 54.2905C43.2429 54.3701 43.3054 54.4724 43.3509 54.6259C43.3907 54.7793 43.3964 54.9783 43.3964 55.2227V57.2632C43.3964 57.3882 43.385 57.4791 43.3736 57.5303C43.3736 57.5473 43.3623 57.5587 43.3623 57.5701C43.3509 57.5701 43.3225 57.5473 43.2827 57.5189C43.2372 57.4791 43.1804 57.4223 43.1122 57.337L40.4408 54.0347C40.3328 53.9097 40.2703 53.8188 40.1907 53.7619C40.1111 53.6994 40.0202 53.671 39.9008 53.6767C39.6791 53.6767 39.4575 53.7165 39.2301 53.7165C39.071 53.7165 38.9175 53.6767 38.7641 53.6767C38.7072 53.6767 38.6447 53.6823 38.5935 53.7335C38.5424 53.7847 38.531 53.8529 38.531 53.9268C38.531 54.0063 38.5594 54.0859 38.622 54.12C38.7072 54.1655 38.7868 54.1598 38.8777 54.1768C38.9687 54.1939 39.0596 54.228 39.1619 54.336C39.3097 54.4838 39.3779 54.7793 39.3722 55.2625V57.2688C39.3722 57.7179 39.3495 58.0759 39.3097 58.3431C39.2699 58.6102 39.2131 58.7807 39.1562 58.8433C39.088 58.9399 38.98 58.974 38.872 59.0081C38.8209 59.0251 38.7697 59.0422 38.7243 59.0706C38.6845 59.0933 38.6447 59.1502 38.639 59.207C38.639 59.1843 38.6276 59.1616 38.6163 59.1388C38.5879 59.082 38.531 59.0479 38.4855 59.0251C38.4344 59.0081 38.3776 58.991 38.298 58.9683C38.0763 58.8887 37.9911 58.758 37.8831 58.5022L35.8994 53.7335C35.8539 53.6369 35.7914 53.5459 35.6834 53.5403C35.6323 53.5403 35.5811 53.5573 35.547 53.5914C35.5129 53.6255 35.5072 53.6596 35.4845 53.6994L33.5293 58.2351C33.3758 58.5989 33.2621 58.8205 33.0746 58.9456C33.0063 58.991 32.9381 59.0081 32.8643 59.0422C32.8302 59.0592 32.7904 59.082 32.7619 59.1218C32.7335 59.1616 32.7165 59.2127 32.7165 59.2695C32.7165 59.3378 32.7392 59.4003 32.7847 59.4457C32.8302 59.4912 32.8927 59.5083 32.9609 59.5083C33.0234 59.5083 33.0916 59.4855 33.2053 59.4685C33.3133 59.4514 33.4554 59.4344 33.6373 59.4344C34.1317 59.4344 34.4557 59.514 34.6376 59.514C34.7058 59.514 34.774 59.4969 34.8195 59.4514C34.8706 59.406 34.8877 59.3378 34.8877 59.2695C34.8877 59.1786 34.8252 59.099 34.757 59.0706C34.6888 59.0422 34.6092 59.0251 34.5126 59.0081C34.342 58.974 34.217 58.9228 34.1431 58.8603C34.0692 58.7978 34.0351 58.7296 34.0351 58.6273C34.0351 58.5648 34.0522 58.4852 34.092 58.3829L34.3023 57.7747C34.3591 57.6099 34.4159 57.5473 34.4785 57.5189C34.5467 57.4848 34.6603 57.4791 34.8309 57.4848H35.9278C36.0813 57.4848 36.1722 57.4905 36.2291 57.5246C36.2802 57.553 36.3314 57.6212 36.3939 57.7804L36.6099 58.3147C36.661 58.434 36.6838 58.5534 36.6838 58.6386C36.6838 58.741 36.6554 58.8092 36.6156 58.8603C36.553 58.9342 36.4507 58.9797 36.3484 59.0251C36.2973 59.0479 36.2518 59.0706 36.2063 59.1047C36.1609 59.1388 36.1268 59.1957 36.1268 59.2639C36.1268 59.3264 36.1438 59.3832 36.1779 59.4287C36.212 59.4742 36.2632 59.5083 36.3257 59.5083C36.3825 59.5083 36.4735 59.4855 36.6383 59.4685C36.8031 59.4514 37.0248 59.4287 37.3147 59.4287C37.8319 59.4287 38.1957 59.4969 38.4117 59.4969C38.4685 59.4969 38.5196 59.4969 38.5765 59.4514C38.6163 59.406 38.6276 59.3548 38.6276 59.298C38.6276 59.3434 38.6504 59.3889 38.6731 59.423C38.7129 59.4742 38.7754 59.5083 38.8436 59.5026C38.9971 59.5026 39.2756 59.4287 39.7189 59.4287C40.1339 59.4287 40.3896 59.5083 40.5374 59.5083C40.6113 59.5083 40.6738 59.5083 40.7363 59.4685C40.7989 59.423 40.8159 59.3434 40.8159 59.2639C40.8159 59.1729 40.7648 59.0933 40.7022 59.0649C40.6056 59.0138 40.4976 59.0081 40.3839 58.9854C40.2703 58.9626 40.1736 58.9285 40.0997 58.8603C39.9974 58.7466 39.9349 58.5704 39.9008 58.3033C39.8667 58.0418 39.8667 57.7008 39.8667 57.2802V55.4159C39.8667 55.3079 39.8724 55.2283 39.8894 55.1886C39.8894 55.1829 39.8894 55.1772 39.8951 55.1715C39.9235 55.1942 39.9747 55.234 40.0145 55.2852L43.2088 59.1729C43.2997 59.2866 43.3736 59.3775 43.4475 59.4514C43.5214 59.5196 43.601 59.5765 43.7033 59.5765C43.7431 59.5765 43.7772 59.5537 43.7999 59.531C43.8681 59.4457 43.8738 59.3378 43.8738 59.1616L43.9193 55.109C43.9193 54.876 43.9306 54.6998 43.9647 54.5633C43.9988 54.4269 44.05 54.336 44.158 54.2507C44.2432 54.1825 44.3285 54.1598 44.4138 54.1257C44.4535 54.1086 44.4933 54.0916 44.5331 54.0518C44.5672 54.012 44.59 53.9552 44.59 53.8926C44.59 53.8301 44.5786 53.7619 44.5274 53.7221M31.1762 58.6727C30.9829 58.8717 30.6987 58.991 30.3122 58.991C29.9598 58.991 29.7723 58.9342 29.6756 58.8262C29.5733 58.7239 29.5392 58.5306 29.5392 58.2124V57.1381C29.5392 56.8994 29.5506 56.7687 29.6074 56.7232C29.6472 56.672 29.7723 56.6379 30.0451 56.6379C30.4998 56.6379 30.8579 56.7573 31.0966 56.9562C31.3353 57.1608 31.466 57.4507 31.466 57.8145C31.466 58.1783 31.3637 58.4624 31.1705 58.6671M29.5335 54.8077C29.5335 54.5577 29.5563 54.3871 29.6188 54.2962C29.6756 54.2053 29.7723 54.1598 29.9882 54.1541C30.6703 54.1541 31.1534 54.5974 31.1534 55.342C31.1534 55.649 31.0909 55.8479 30.9715 55.9672C30.8522 56.0866 30.6476 56.1434 30.335 56.1434C29.9769 56.1434 29.7552 56.1321 29.6529 56.0809C29.6017 56.0582 29.579 56.0298 29.5563 55.9957C29.5392 55.9559 29.5279 55.8877 29.5279 55.8024V54.8077H29.5335ZM31.5342 56.223C31.7161 56.1264 31.8639 56.0127 31.9719 55.8706C32.131 55.666 32.2049 55.4159 32.2049 55.1204C32.2049 54.6884 32.0287 54.3189 31.7048 54.0632C31.3751 53.8074 30.9033 53.671 30.2952 53.671C29.8007 53.671 29.3346 53.7278 28.914 53.7278C28.59 53.7278 28.3399 53.7165 28.1694 53.6994C27.9932 53.688 27.8966 53.671 27.8511 53.671C27.7772 53.671 27.7034 53.688 27.6522 53.7335C27.5954 53.779 27.5726 53.8472 27.5726 53.9154C27.5669 54.0006 27.6124 54.0802 27.6749 54.1086C27.7659 54.1598 27.8682 54.1598 27.9705 54.1768C28.0785 54.1939 28.1808 54.228 28.2717 54.3133C28.357 54.3985 28.4025 54.4838 28.4252 54.6088C28.4536 54.7282 28.4536 54.8816 28.4536 55.0806V58.218C28.4536 58.5761 28.3684 58.7751 28.1751 58.9001C28.0898 58.9569 27.9989 58.9854 27.925 59.0308C27.8511 59.0706 27.7772 59.1616 27.7829 59.2752C27.7829 59.3378 27.8057 59.4003 27.8568 59.4401C27.9023 59.4798 27.9705 59.4969 28.0444 59.4969C28.2433 59.4969 28.5787 59.4344 29.0334 59.4344C29.2493 59.4344 29.7154 59.4969 30.4032 59.4969H30.4088C31.0682 59.4969 31.5797 59.423 32.0174 59.0195C32.3754 58.6898 32.5857 58.1953 32.5857 57.6838C32.5857 56.9562 32.1651 56.3765 31.5286 56.223" fill="#19335D"/>
<mask id="mask2_528_44" style="mask-type:luminance" maskUnits="userSpaceOnUse" x="17" y="52" width="10" height="9">
<path d="M20.6894 54.0518C21.2806 54.5918 22.3264 55.7854 21.9115 56.6607C21.6841 57.1381 20.877 56.4277 20.4053 56.3254C20.7179 56.7971 21.3772 57.644 22.2184 58.3659C23.0539 59.0877 25.0091 60.6621 25.8333 59.8095C26.7711 58.8376 24.3328 55.541 22.764 54.2962C21.2635 53.1026 18.9331 52.0682 17.7964 52C19.0866 52.6252 20.2347 53.6312 20.7008 54.0575" fill="white"/>
</mask>
<g mask="url(#mask2_528_44)">
<path d="M22.1499 47.5095L13.4561 56.4496L22.4002 65.1474L31.0941 56.2073L22.1499 47.5095Z" fill="url(#paint2_linear_528_44)"/>
</g>
<mask id="mask3_528_44" style="mask-type:luminance" maskUnits="userSpaceOnUse" x="16" y="52" width="9" height="9">
<path d="M16.2277 52.2955C15.2046 53.2162 17.876 56.5242 19.3424 57.7633C20.8089 58.9967 23.0938 59.9686 24.2305 60.0311C22.9801 59.5196 21.8035 58.4226 21.3659 57.9679C20.9282 57.5132 19.422 55.9502 20.0188 55.2738C20.3655 54.8816 21.0703 55.5466 21.5421 55.6489C21.2238 54.9157 20.6895 54.4439 19.8483 53.7221C19.1833 53.148 17.8931 52.0454 16.9098 52.0454C16.654 52.0454 16.421 52.1193 16.222 52.2955" fill="white"/>
</mask>
<g mask="url(#mask3_528_44)">
<path d="M19.5966 47.5293L11.2158 56.1475L19.8462 64.5402L28.227 55.9221L19.5966 47.5293Z" fill="url(#paint3_linear_528_44)"/>
</g>
<path d="M20.0245 55.2682C20.3314 54.8817 21.076 55.2113 21.4227 55.5239C21.7751 55.8365 22.1559 56.422 21.9797 56.7175C21.8092 57.0131 21.093 56.8767 20.6554 56.5413C20.2291 56.206 19.7687 55.5921 20.0245 55.2682Z" fill="#19335D"/>
</g>
<rect x="1" y="1" width="110" height="110" rx="9" stroke="#CCCCCC" stroke-width="2"/>
<defs>
<linearGradient id="paint0_linear_528_44" x1="19.047" y1="60.8116" x2="27.087" y2="52.5439" gradientUnits="userSpaceOnUse">
<stop stop-color="#EA292C"/>
<stop offset="0.27" stop-color="#EA292C"/>
<stop offset="0.38" stop-color="#EA292C"/>
<stop offset="0.41" stop-color="#EB3E2B"/>
<stop offset="0.46" stop-color="#EF7529"/>
<stop offset="0.54" stop-color="#F5CC26"/>
<stop offset="0.57" stop-color="#F8EC26"/>
<stop offset="1" stop-color="#F8EC26"/>
</linearGradient>
<linearGradient id="paint1_linear_528_44" x1="14.4519" y1="59.3708" x2="22.4523" y2="51.1438" gradientUnits="userSpaceOnUse">
<stop stop-color="#F8EC26"/>
<stop offset="0.45" stop-color="#F8EC26"/>
<stop offset="0.47" stop-color="#F5CC26"/>
<stop offset="0.54" stop-color="#EF7529"/>
<stop offset="0.58" stop-color="#EB3E2B"/>
<stop offset="0.61" stop-color="#EA292C"/>
<stop offset="0.74" stop-color="#EA292C"/>
<stop offset="1" stop-color="#EA292C"/>
</linearGradient>
<linearGradient id="paint2_linear_528_44" x1="19.047" y1="60.8116" x2="27.087" y2="52.5439" gradientUnits="userSpaceOnUse">
<stop stop-color="#EA292C"/>
<stop offset="0.27" stop-color="#EA292C"/>
<stop offset="0.38" stop-color="#EA292C"/>
<stop offset="0.41" stop-color="#EB3E2B"/>
<stop offset="0.46" stop-color="#EF7529"/>
<stop offset="0.54" stop-color="#F5CC26"/>
<stop offset="0.57" stop-color="#F8EC26"/>
<stop offset="1" stop-color="#F8EC26"/>
</linearGradient>
<linearGradient id="paint3_linear_528_44" x1="14.4519" y1="59.3708" x2="22.4523" y2="51.1438" gradientUnits="userSpaceOnUse">
<stop stop-color="#F8EC26"/>
<stop offset="0.45" stop-color="#F8EC26"/>
<stop offset="0.47" stop-color="#F5CC26"/>
<stop offset="0.54" stop-color="#EF7529"/>
<stop offset="0.58" stop-color="#EB3E2B"/>
<stop offset="0.61" stop-color="#EA292C"/>
<stop offset="0.74" stop-color="#EA292C"/>
<stop offset="1" stop-color="#EA292C"/>
</linearGradient>
<clipPath id="clip0_528_44">
<rect x="2" y="2" width="108" height="108" rx="8" fill="white"/>
</clipPath>
</defs>
</svg>
