<svg width="113" height="112" viewBox="0 0 113 112" fill="none" xmlns="http://www.w3.org/2000/svg">
<g clip-path="url(#clip0_517_516)">
<rect x="2.5" y="2" width="108" height="108" rx="8" fill="white"/>
<path fill-rule="evenodd" clip-rule="evenodd" d="M17.7614 52.1495C17.7614 52.3049 17.7893 52.4594 17.8165 52.6008C18.0526 53.4622 18.7594 54.0548 19.6464 54.0548C20.9217 54.0548 21.6845 52.9961 21.6845 51.4295C21.6845 50.0602 20.9909 48.8882 19.6883 48.8882C18.8565 48.8882 18.0798 49.4668 17.8305 50.4128C17.8033 50.5542 17.7614 50.7235 17.7614 50.9208V52.1495ZM16.5551 44.8649H17.7614V49.1569H17.7893C18.2188 48.3942 18.9948 47.9002 20.0759 47.9002C21.7396 47.9002 22.9179 49.3115 22.9039 51.3868C22.9039 53.8288 21.3932 55.0427 19.8957 55.0427C18.9256 55.0427 18.1497 54.6622 17.6503 53.7589H17.6091L17.5532 54.8882H16.5C16.528 54.4222 16.5551 53.7301 16.5551 53.1235V44.8649Z" fill="#D2272C"/>
<path fill-rule="evenodd" clip-rule="evenodd" d="M27.9773 51.4008C26.6468 51.3728 25.1353 51.6128 25.1353 52.9402C25.1353 53.7441 25.6619 54.1255 26.2856 54.1255C27.1594 54.1255 27.714 53.5608 27.9082 52.9822C27.9493 52.8548 27.9773 52.7142 27.9773 52.5868V51.4008ZM29.1555 53.2501C29.1555 53.8435 29.1827 54.4222 29.2658 54.8882H28.1575L28.0604 54.0268H28.0184C27.6441 54.5635 26.9241 55.0427 25.9672 55.0427C24.6087 55.0427 23.9159 54.0688 23.9159 53.0808C23.9159 51.4295 25.3575 50.5262 27.9493 50.5402V50.3989C27.9493 49.8342 27.7971 48.8175 26.4247 48.8175C25.801 48.8175 25.1493 49.0156 24.6779 49.3262L24.4006 48.5076C24.9551 48.1402 25.759 47.9002 26.6049 47.9002C28.6561 47.9002 29.1555 49.3262 29.1555 50.6956V53.2501Z" fill="#D2272C"/>
<path fill-rule="evenodd" clip-rule="evenodd" d="M31.1237 49.9049C31.1237 49.1989 31.1097 48.6202 31.0685 48.0556H32.1497L32.2188 49.1849H32.2468C32.5792 48.5356 33.3551 47.9002 34.4643 47.9002C35.3932 47.9002 36.8348 48.4649 36.8348 50.8082V54.8882H35.6146V50.9495C35.6146 49.8482 35.213 48.9309 34.0619 48.9309C33.2581 48.9309 32.6344 49.5095 32.4262 50.2016C32.3711 50.3569 32.3431 50.5682 32.3431 50.7802V54.8882H31.1237V49.9049Z" fill="#D2272C"/>
<path fill-rule="evenodd" clip-rule="evenodd" d="M40.0223 51.1895H40.0503C40.2165 50.9495 40.4518 50.6528 40.6468 50.4128L42.615 48.0556H44.0837L41.4918 50.8649L44.4441 54.8882H42.9614L40.6468 51.6128L40.0223 52.3189V54.8882H38.8169V44.8649H40.0223V51.1895Z" fill="#D2272C"/>
<path fill-rule="evenodd" clip-rule="evenodd" d="M48.1567 46.0773C48.1567 46.5853 47.7839 47.0093 47.154 47.0093C46.5676 47.0093 46.1948 46.5853 46.1948 46.0773C46.1948 45.5414 46.5816 45.1313 47.1827 45.1313C47.7839 45.1313 48.1567 45.5414 48.1567 46.0773ZM44.5202 56.5239C45.0926 56.4812 45.5509 56.3398 45.8367 56.0299C46.166 55.6905 46.295 55.1398 46.295 53.6439V47.9973H48.0565V54.1379C48.0565 55.5639 47.7839 56.4532 47.154 57.0738C46.5388 57.6392 45.5649 57.8785 44.6918 57.8785L44.5202 56.5239Z" fill="#332C2B"/>
<path fill-rule="evenodd" clip-rule="evenodd" d="M53.6254 51.5126C52.3796 51.4839 51.1913 51.7526 51.1913 52.7965C51.1913 53.4746 51.6355 53.7853 52.1932 53.7853C52.8953 53.7853 53.4103 53.3332 53.568 52.8392C53.6107 52.7119 53.6254 52.5713 53.6254 52.4579V51.5126ZM55.3435 53.2206C55.3435 53.8412 55.3722 54.4486 55.4437 54.8719H53.8546L53.7396 54.1099H53.6969C53.2674 54.6458 52.5373 55.0272 51.6355 55.0272C50.232 55.0272 49.4445 54.0253 49.4445 52.9806C49.4445 51.2439 51.0056 50.3686 53.5819 50.3833V50.2699C53.5819 49.8187 53.3963 49.0699 52.1652 49.0699C51.4779 49.0699 50.7617 49.282 50.2895 49.5787L49.9462 48.4493C50.4612 48.1387 51.3629 47.842 52.4658 47.842C54.6988 47.842 55.3435 49.2392 55.3435 50.7359V53.2206Z" fill="#332C2B"/>
<path fill-rule="evenodd" clip-rule="evenodd" d="M59.1369 46.2326V47.9973H60.8122V49.2959H59.1369V52.3313C59.1369 53.1639 59.3668 53.6012 60.0394 53.6012C60.3687 53.6012 60.5264 53.5732 60.7268 53.5165L60.7555 54.8439C60.4977 54.9425 60.0394 55.0272 59.481 55.0272C58.8363 55.0272 58.2926 54.8012 57.9633 54.4486C57.5913 54.0532 57.4188 53.4319 57.4188 52.5286V49.2959H56.4169V47.9973H57.4188V46.7266L59.1369 46.2326Z" fill="#332C2B"/>
<path fill-rule="evenodd" clip-rule="evenodd" d="M62.1435 54.8719V47.9973H63.919V54.8719H62.1435ZM64.0192 46.0773C64.0192 46.6 63.6324 47.0093 63.0173 47.0093C62.4301 47.0093 62.0433 46.6 62.0433 46.0773C62.0433 45.5414 62.4449 45.1313 63.0313 45.1313C63.6324 45.1313 64.0052 45.5414 64.0192 46.0773Z" fill="#332C2B"/>
<path fill-rule="evenodd" clip-rule="evenodd" d="M65.8087 50.0439C65.8087 49.254 65.7948 48.5899 65.752 47.9973H67.2689L67.3404 49.014H67.3839C67.7272 48.4773 68.3571 47.842 69.5315 47.842C70.4472 47.842 71.1633 48.3499 71.4639 49.1126H71.4926C71.7357 48.7313 72.0223 48.4493 72.3517 48.2513C72.7377 47.9833 73.1819 47.842 73.7544 47.842C74.914 47.842 76.0884 48.6187 76.0884 50.8206V54.8719H74.3703V51.0746C74.3703 49.9313 73.9695 49.254 73.1245 49.254C72.5233 49.254 72.0798 49.6773 71.8934 50.1713C71.8507 50.3406 71.8072 50.5526 71.8072 50.7499V54.8719H70.0891V50.8913C70.0891 49.9313 69.7031 49.254 68.8868 49.254C68.2282 49.254 67.7847 49.762 67.627 50.242C67.5555 50.4113 67.5268 50.6086 67.5268 50.8066V54.8719H65.8087V50.0439Z" fill="#332C2B"/>
<path fill-rule="evenodd" clip-rule="evenodd" d="M21.6908 67.1956C22.1175 67.4801 22.8286 67.6934 23.5397 67.6934C25.0331 67.6934 25.9575 66.8401 25.9575 65.7023C25.9575 64.7067 25.3175 64.1378 24.2509 63.7112C23.3975 63.3556 22.9709 63.0712 22.9709 62.5734C22.9709 62.0756 23.3975 61.6489 24.1086 61.6489C24.6775 61.6489 25.1753 61.8623 25.3886 62.0045L25.6731 61.1512C25.3175 60.9378 24.7486 60.7245 24.1086 60.7245C22.7575 60.7245 21.8331 61.6489 21.8331 62.7156C21.8331 63.4978 22.402 64.1378 23.6109 64.5645C24.4642 64.9201 24.8197 65.2045 24.8197 65.7734C24.8197 66.3423 24.3931 66.7689 23.5397 66.7689C22.9709 66.7689 22.3309 66.5556 21.9753 66.2712L21.6908 67.1956Z" fill="#D2272C"/>
<path fill-rule="evenodd" clip-rule="evenodd" d="M26.5975 60.8667L29.0153 66.9823C29.0864 67.1245 29.0864 67.2667 29.0864 67.3378C29.0864 67.4089 29.0153 67.48 29.0153 67.6223C28.7309 68.2623 28.3042 68.6889 28.0198 68.9734C27.6642 69.2578 27.2375 69.4712 26.9531 69.5423L27.2375 70.5378C27.522 70.4667 28.0909 70.3245 28.7309 69.7556C29.5131 69.0445 30.082 67.9067 30.9353 65.6312L32.7131 60.8667H31.4331L30.1531 64.7778C30.0109 65.2756 29.8686 65.7734 29.7264 66.2C29.6553 65.7734 29.442 65.2756 29.2998 64.7778L27.8775 60.8667H26.5975Z" fill="#D2272C"/>
<path fill-rule="evenodd" clip-rule="evenodd" d="M38.3309 63.4267C38.3309 62.1467 37.8331 60.7245 35.842 60.7245C34.9887 60.7245 34.2064 60.9378 33.7087 61.2934L33.922 62.1467C34.4198 61.7912 35.0598 61.6489 35.6998 61.6489C36.9798 61.6489 37.122 62.6445 37.122 63.1423V63.2845C34.6331 63.2845 33.2109 64.1378 33.2109 65.7734C33.2109 66.6978 33.922 67.6934 35.202 67.6934C36.1264 67.6934 36.8376 67.1956 37.1931 66.6978H37.2642L37.3353 67.5512H38.402C38.3309 67.0534 38.3309 66.4845 38.3309 65.9156V63.4267ZM37.1931 65.2756C37.1931 65.4178 37.1931 65.5601 37.122 65.7023C36.9087 66.2712 36.4109 66.7689 35.4864 66.7689C34.9175 66.7689 34.4198 66.4134 34.4198 65.6312C34.4198 64.3512 35.9131 64.1378 37.1931 64.1378V65.2756Z" fill="#D2272C"/>
<path fill-rule="evenodd" clip-rule="evenodd" d="M40.2509 67.5512H41.3887V63.9956C41.3887 63.7823 41.3887 63.5689 41.4598 63.4267C41.602 62.5023 42.1709 61.8623 43.0242 61.8623C43.1664 61.8623 43.3087 61.8623 43.4509 61.9334V60.7956C43.3087 60.7245 43.2376 60.7245 43.0953 60.7245C42.3131 60.7245 41.602 61.2934 41.3176 62.2178H41.2464L41.1753 60.8667H40.1798C40.1798 61.5067 40.2509 62.1467 40.2509 62.9289V67.5512Z" fill="#D2272C"/>
<path fill-rule="evenodd" clip-rule="evenodd" d="M45.8687 67.5512V60.8667H44.6598V67.5512H45.8687ZM45.2998 58.2356C44.802 58.2356 44.5176 58.5912 44.5176 59.0178C44.5176 59.4445 44.802 59.7289 45.2287 59.7289C45.7265 59.7289 46.0109 59.4445 46.0109 59.0178C46.0109 58.5912 45.7265 58.2356 45.2998 58.2356Z" fill="#D2272C"/>
<path fill-rule="evenodd" clip-rule="evenodd" d="M52.4109 63.4267C52.4109 62.1467 51.9131 60.7245 49.922 60.7245C49.1398 60.7245 48.2865 60.9378 47.7887 61.2934L48.0731 62.1467C48.4998 61.7912 49.1398 61.6489 49.7798 61.6489C51.0598 61.6489 51.202 62.6445 51.202 63.1423V63.2845C48.7131 63.2845 47.2909 64.1378 47.2909 65.7734C47.2909 66.6978 48.002 67.6934 49.282 67.6934C50.2065 67.6934 50.9176 67.1956 51.2731 66.6978H51.3442L51.4154 67.5512H52.482C52.4109 67.0534 52.4109 66.4845 52.4109 65.9156V63.4267ZM51.2731 65.2756C51.2731 65.4178 51.2731 65.5601 51.202 65.7023C50.9887 66.2712 50.4909 66.7689 49.6376 66.7689C48.9976 66.7689 48.4998 66.4134 48.4998 65.6312C48.4998 64.3512 49.9931 64.1378 51.2731 64.1378V65.2756Z" fill="#D2272C"/>
<path fill-rule="evenodd" clip-rule="evenodd" d="M54.3309 67.5512H55.4687V63.4978C55.4687 63.2845 55.5398 63.1423 55.6109 62.9289C55.8243 62.2889 56.3931 61.72 57.1754 61.72C58.3132 61.72 58.6687 62.6445 58.6687 63.7112V67.5512H59.8776V63.5689C59.8776 61.2934 58.4554 60.7245 57.602 60.7245C57.1043 60.7245 56.7487 60.8667 56.3931 61.08C56.0376 61.2934 55.682 61.5778 55.5398 61.9334H55.4687V57.7378H54.3309V67.5512Z" fill="#D2272C"/>
<path fill-rule="evenodd" clip-rule="evenodd" d="M56.9357 56.9798C56.9357 56.9798 65.5882 59.6455 72.0278 58.1534C78.4619 56.6629 82.5054 54.1985 87.3171 47.1437C90.6227 42.3623 92.0837 41.4622 92.0837 41.4622C92.0837 41.4622 91.8918 45.6385 89.1027 49.5352C86.712 52.767 85.4429 54.3018 85.4429 54.3018L74.8612 59.5258C74.8612 59.5258 69.1058 60.6031 56.9357 56.9798Z" fill="#E5252A"/>
<path fill-rule="evenodd" clip-rule="evenodd" d="M63.2907 58.5961C63.2907 58.5961 69.9027 59.7915 78.5357 56.0944C81.6503 54.7608 82.82 54.179 89.088 49.4466C91.9214 47.306 95.9454 45.0924 95.9454 45.0924C95.9454 45.0924 94.9909 47.8521 91.1392 51.2765C88.594 53.7177 88.8744 54.7895 88.8744 54.7895L77.6083 58.7359C77.6083 58.7359 73.3559 59.88 63.2907 58.5961Z" fill="#D1272C"/>
<path fill-rule="evenodd" clip-rule="evenodd" d="M69.7365 58.6404C69.7365 58.6404 72.4705 58.1759 75.4973 57.3216C79.874 56.0874 85.0515 54.235 89.2355 52.0439C91.3404 50.941 96.5 49.4754 96.5 49.4754C96.5 49.4754 94.8068 51.8443 91.2868 53.859C89.3994 55.299 87.7008 55.807 87.7008 55.807L82.9388 57.4451C82.9388 57.4451 77.199 59.3977 69.7365 58.6404Z" fill="#BB292D"/>
<path fill-rule="evenodd" clip-rule="evenodd" d="M69.2091 58.3678C69.2091 58.3678 70.0332 58.5449 72.8542 57.9686C77.3186 57.0575 81.6386 56.0074 85.7746 54.7662C89.6115 53.6152 94.1202 53.5196 94.1202 53.5196C94.1202 53.5196 91.8476 54.7297 88.7485 56.0136C86.8612 56.8323 85.2658 57.1111 85.2658 57.1111L80.5039 58.0416C80.5039 58.0416 76.6716 58.7981 69.2091 58.3678Z" fill="#9D272A"/>
<path fill-rule="evenodd" clip-rule="evenodd" d="M73.3116 60.1014C67.7738 60.1938 61.9773 58.9946 56.7307 56.9138C56.7307 56.9138 64.6779 59.0389 72.6181 58.0128C77.2371 57.4163 80.9 56.5262 84.9264 56.0874C88.173 55.7332 91.5229 56.0726 91.5229 56.0726C91.5229 56.0726 83.9369 59.9243 73.3116 60.1014Z" fill="#8B2527"/>
</g>
<rect x="1.5" y="1" width="110" height="110" rx="9" stroke="#CCCCCC" stroke-width="2"/>
<defs>
<clipPath id="clip0_517_516">
<rect x="2.5" y="2" width="108" height="108" rx="8" fill="white"/>
</clipPath>
</defs>
</svg>
