<svg width="113" height="112" viewBox="0 0 113 112" fill="none" xmlns="http://www.w3.org/2000/svg">
<g clip-path="url(#clip0_421_549)">
<rect x="2.5" y="2" width="108" height="108" rx="8" fill="white"/>
<g clip-path="url(#clip1_421_549)">
<path fill-rule="evenodd" clip-rule="evenodd" d="M25.9712 58.4573V45.2148C25.9712 45.2148 28.8683 44.66 30.8943 45.3341C32.9211 46.0082 35.4621 47.4184 35.4621 50.2572C35.4621 52.716 33.7392 54.1129 31.6939 55.045C29.6494 55.9763 28.4548 55.5575 27.7983 55.7165C27.1428 55.8765 26.6056 56.0752 26.3882 56.6699C26.1709 57.2645 25.9712 58.4573 25.9712 58.4573Z" fill="#DAB741"/>
<path fill-rule="evenodd" clip-rule="evenodd" d="M16.52 52.6569V65.8993C16.52 65.8993 19.4171 66.4542 21.4431 65.78C23.4699 65.1059 26.011 63.6958 26.011 60.857C26.011 58.0182 24.129 56.7733 22.5219 56.1124C20.4438 55.2571 19.0036 55.5575 18.3472 55.3976C17.6907 55.2386 17.1544 55.0389 16.937 54.4443C16.7197 53.8496 16.52 52.6569 16.52 52.6569ZM37.906 52.6569V65.8993C37.906 65.8993 35.0098 66.4542 32.983 65.78C30.9561 65.1059 28.4151 63.6958 28.4151 60.857C28.4151 58.0182 30.2025 56.9632 32.247 56.032C34.2915 55.1007 35.4224 55.5575 36.0789 55.3976C36.7353 55.2386 37.2716 55.0389 37.489 54.4443C37.7063 53.8496 37.906 52.6569 37.906 52.6569Z" fill="#2A82C5"/>
<path fill-rule="evenodd" clip-rule="evenodd" d="M44.4 64.801C44.6288 64.8832 44.8479 64.9451 45.0591 64.9866C45.2694 65.0281 45.4779 65.0484 45.6838 65.0484C46.3517 65.0484 46.8695 64.8629 47.2379 64.4918C47.6063 64.1198 47.791 63.5932 47.791 62.9103C47.791 62.245 47.6125 61.7202 47.2556 61.3349C46.8986 60.9506 46.4153 60.758 45.8075 60.758C45.5645 60.758 45.3277 60.7969 45.0962 60.8746C44.8656 60.9524 44.6332 61.0716 44.4 61.2324V64.801ZM43.1198 65.7835V56.4675H44.4V60.0847C44.6385 59.9151 44.893 59.7905 45.166 59.7101C45.439 59.6306 45.7421 59.5899 46.0769 59.5899C47.002 59.5899 47.7442 59.8912 48.3026 60.4938C48.8619 61.0964 49.141 61.8977 49.141 62.8961C49.141 63.9546 48.8274 64.7728 48.1992 65.3497C47.5719 65.9276 46.6848 66.2156 45.5398 66.2156C45.1545 66.2156 44.764 66.1802 44.3673 66.1096C43.9706 66.038 43.5553 65.9293 43.1198 65.7835ZM53.4951 64.7825V62.9244C52.6416 63.1895 52.0523 63.4351 51.7289 63.6586C51.4056 63.8839 51.2439 64.1446 51.2439 64.4423C51.2439 64.703 51.3278 64.9044 51.4948 65.0467C51.6627 65.188 51.8977 65.2596 52.2007 65.2596C52.426 65.2596 52.646 65.219 52.8616 65.1386C53.0772 65.0582 53.2884 64.9389 53.4951 64.7825ZM53.5428 65.5547C53.2221 65.78 52.9182 65.9417 52.6319 66.0398C52.3456 66.1387 52.0373 66.1882 51.7077 66.1882C51.1396 66.1882 50.6952 66.0512 50.3745 65.7791C50.0537 65.5061 49.8929 65.1315 49.8929 64.6544C49.8929 64.2055 50.067 63.8115 50.4151 63.4722C50.7632 63.1329 51.2872 62.8467 51.9878 62.6134L53.4951 62.108C53.4995 62.0718 53.5031 62.0356 53.5048 61.9985C53.5075 61.9622 53.5084 61.9092 53.5084 61.8412C53.5084 61.4622 53.4156 61.1891 53.2301 61.0222C53.0445 60.8552 52.7379 60.7721 52.3121 60.7721C51.9586 60.7721 51.5946 60.8463 51.2182 60.9948C50.8427 61.1441 50.4664 61.365 50.09 61.6583V60.4081C50.4151 60.1422 50.78 59.9416 51.1829 59.8073C51.5858 59.6721 52.0143 59.6041 52.4676 59.6041C53.2831 59.6041 53.8759 59.7834 54.247 60.143C54.6181 60.5026 54.8036 61.0822 54.8036 61.8836V64.5696C54.8036 64.7949 54.8231 64.9539 54.8619 65.0484C54.9008 65.1421 54.9662 65.1889 55.0581 65.1889C55.1358 65.1889 55.2171 65.1686 55.3019 65.1271C55.3868 65.0855 55.5255 64.9892 55.7181 64.8373V65.6104C55.4893 65.8074 55.2578 65.9532 55.0245 66.0468C54.7913 66.1405 54.5492 66.1882 54.2974 66.1882C54.0553 66.1882 53.8733 66.1378 53.7522 66.0362C53.6312 65.9355 53.5614 65.7747 53.5428 65.5547ZM56.4717 66.0751V59.7313H57.7379V60.5026C58.0542 60.2014 58.3687 59.9814 58.6824 59.8418C58.996 59.7022 59.3344 59.6324 59.6958 59.6324C60.3832 59.6324 60.9248 59.8312 61.3215 60.2296C61.7182 60.6272 61.9161 61.1741 61.9161 61.8695V66.0751H60.65V62.1928C60.65 61.6795 60.5413 61.3005 60.324 61.0549C60.1057 60.8101 59.7682 60.6873 59.3106 60.6873C58.9854 60.6873 58.7 60.75 58.4553 60.8764C58.2105 61.0027 57.9711 61.2095 57.7379 61.4984V66.0751H56.4717ZM69.1311 59.7313L66.4734 62.6284L69.6656 66.0751H67.9347L64.8388 62.6973L67.5716 59.7313H69.1311ZM63.5312 66.0751V56.4675H64.7973V66.0751H63.5312ZM73.4012 64.7825V62.9244C72.5468 63.1895 71.9584 63.4351 71.635 63.6586C71.3116 63.8839 71.1499 64.1446 71.1499 64.4423C71.1499 64.703 71.2339 64.9044 71.4009 65.0467C71.5687 65.188 71.8038 65.2596 72.1068 65.2596C72.3312 65.2596 72.5521 65.219 72.7677 65.1386C72.9833 65.0582 73.1944 64.9389 73.4012 64.7825ZM73.4489 65.5547C73.1282 65.78 72.8242 65.9417 72.538 66.0398C72.2517 66.1387 71.9434 66.1882 71.6138 66.1882C71.0457 66.1882 70.6013 66.0512 70.2805 65.7791C69.9598 65.5061 69.799 65.1315 69.799 64.6544C69.799 64.2055 69.9731 63.8115 70.3212 63.4722C70.6684 63.1329 71.1932 62.8467 71.893 62.6134L73.4012 62.108C73.4056 62.0718 73.4091 62.0356 73.4109 61.9985C73.4136 61.9622 73.4144 61.9092 73.4144 61.8412C73.4144 61.4622 73.3217 61.1891 73.1361 61.0222C72.9506 60.8552 72.644 60.7721 72.2181 60.7721C71.8647 60.7721 71.4998 60.8463 71.1243 60.9948C70.7479 61.1441 70.3724 61.365 69.996 61.6583V60.4081C70.3212 60.1422 70.6852 59.9416 71.089 59.8073C71.4919 59.6721 71.9195 59.6041 72.3736 59.6041C73.1883 59.6041 73.782 59.7834 74.1531 60.143C74.5242 60.5026 74.7088 61.0822 74.7088 61.8836V64.5696C74.7088 64.7949 74.7291 64.9539 74.768 65.0484C74.8069 65.1421 74.8723 65.1889 74.9633 65.1889C75.0419 65.1889 75.1232 65.1686 75.208 65.1271C75.2928 65.0855 75.4307 64.9892 75.6233 64.8373V65.6104C75.3953 65.8074 75.1638 65.9532 74.9306 66.0468C74.6973 66.1405 74.4552 66.1882 74.2034 66.1882C73.9613 66.1882 73.7793 66.1378 73.6583 66.0362C73.5364 65.9355 73.4675 65.7747 73.4489 65.5547ZM76.4193 66.0751V56.4675H77.6855V66.0751H76.4193ZM82.8639 65.879C82.6668 65.9885 82.4557 66.0698 82.2295 66.1228C82.0033 66.1758 81.7594 66.2023 81.4988 66.2023C80.7858 66.2023 80.2839 66.0327 79.9941 65.6934C79.7034 65.3541 79.5585 64.7357 79.5585 63.8371V60.8278H78.4753V60.705L80.6948 58.254H80.8388V59.7313H82.8223V60.8278H80.8388V63.7417C80.8388 64.2683 80.9042 64.6084 81.0341 64.7622C81.1648 64.915 81.4087 64.9919 81.7656 64.9919C81.9574 64.9919 82.1447 64.9671 82.3284 64.9168C82.5113 64.8664 82.6898 64.7878 82.8639 64.6826V65.879ZM83.8446 57.86C83.8446 57.6577 83.9135 57.4871 84.0513 57.3493C84.1892 57.2115 84.3597 57.1426 84.562 57.1426C84.7643 57.1426 84.9349 57.2115 85.0727 57.3493C85.2105 57.4871 85.2794 57.6577 85.2794 57.86C85.2794 58.0623 85.2105 58.2328 85.0727 58.3707C84.9349 58.5085 84.7643 58.5774 84.562 58.5774C84.3597 58.5774 84.1892 58.5085 84.0513 58.3707C83.9135 58.2328 83.8446 58.0623 83.8446 57.86ZM83.9294 66.0751V59.7313H85.1955V66.0751H83.9294ZM86.8707 66.0751V59.7313H88.1377V60.5026C88.4531 60.2014 88.7685 59.9814 89.0822 59.8418C89.3958 59.7022 89.7334 59.6324 90.0956 59.6324C90.563 59.6324 90.9526 59.7181 91.2672 59.8895C91.5808 60.0609 91.845 60.3312 92.0606 60.7014C92.4493 60.318 92.8142 60.0432 93.1553 59.8789C93.4954 59.7145 93.8586 59.6324 94.2429 59.6324C94.9338 59.6324 95.479 59.8312 95.8792 60.2296C96.2795 60.6272 96.48 61.1741 96.48 61.8695V66.0751H95.1998V62.1928C95.1998 61.6751 95.0929 61.2943 94.88 61.0513C94.667 60.8092 94.3339 60.6873 93.8807 60.6873C93.5467 60.6873 93.256 60.75 93.0086 60.8764C92.7612 61.0027 92.5209 61.2095 92.2877 61.4984V66.0751H91.0498V62.1928C91.0498 61.6795 90.9412 61.3005 90.7229 61.0549C90.5056 60.8101 90.1681 60.6873 89.7104 60.6873C89.3852 60.6873 89.0999 60.75 88.8551 60.8764C88.6104 61.0027 88.3709 61.2095 88.1377 61.4984V66.0751H86.8707Z" fill="#2A82C5"/>
</g>
</g>
<rect x="1.5" y="1" width="110" height="110" rx="9" stroke="#CCCCCC" stroke-width="2"/>
<defs>
<clipPath id="clip0_421_549">
<rect x="2.5" y="2" width="108" height="108" rx="8" fill="white"/>
</clipPath>
<clipPath id="clip1_421_549">
<rect width="80" height="21.2155" fill="white" transform="translate(16.5 45.0001)"/>
</clipPath>
</defs>
</svg>
