<svg width="112" height="112" viewBox="0 0 112 112" fill="none" xmlns="http://www.w3.org/2000/svg">
<g clip-path="url(#clip0_528_40)">
<rect x="2" y="2" width="108" height="108" rx="8" fill="white"/>
<path d="M53.0083 53.3044C52.371 53.3044 51.8621 53.2521 51.3722 53.0808C51.2105 53.0238 51.1058 53.0618 51.006 53.1855C50.4495 53.8941 49.9976 54.6599 49.6267 55.478C49.5363 55.6777 49.5601 55.7824 49.7598 55.9108C50.1546 56.1629 50.2973 56.6433 50.1451 57.0523C50.0024 57.4423 49.5601 57.7324 49.151 57.7087C48.7372 57.6849 48.3615 57.3567 48.2569 56.9286C48.1617 56.5481 48.3282 56.1153 48.6944 55.887C48.8704 55.7824 48.8704 55.6873 48.7991 55.5303C48.4138 54.6837 47.9049 53.9132 47.3484 53.1712C47.2533 53.0428 47.1582 53.038 47.0107 53.0808C45.8312 53.4233 44.6659 53.39 43.5244 52.9144C43.1344 52.7526 42.8014 52.5196 42.5494 52.1819C42.1165 51.6064 42.2925 50.8882 42.9536 50.6171C43.7242 50.2984 44.5137 50.4173 45.2985 50.5933C46.283 50.8073 47.0393 51.3971 47.7432 52.0773C48.0476 52.3721 48.0428 52.3817 48.3758 52.1296C48.5613 51.9917 48.8086 51.8727 48.8799 51.6635C48.9655 51.4161 48.6564 51.3115 48.5375 51.1308C47.5577 49.6658 47.1915 48.101 47.7384 46.3793C47.8573 46.0083 48.0523 45.6849 48.333 45.4138C48.9608 44.805 49.7789 44.8858 50.264 45.6088C50.868 46.5077 51.0012 47.5065 50.8538 48.5529C50.7016 49.6421 50.2925 50.6219 49.5553 51.4542C49.4792 51.5398 49.4602 51.5969 49.541 51.6825C49.5886 51.7348 49.6267 51.7966 49.6695 51.849C50.1023 52.3626 50.2164 52.3626 50.7063 51.9203C51.6385 51.0785 52.6849 50.4649 53.9786 50.4173C54.4828 50.3983 54.9822 50.4506 55.4435 50.7027C56.0143 51.0119 56.1712 51.7301 55.786 52.2532C55.4673 52.6908 55.006 52.9048 54.5113 53.0666C53.9786 53.2378 53.4364 53.3186 52.9988 53.3139M48.1427 48.3389C48.1617 49.3614 48.5613 50.2509 49.0892 51.0975C49.2034 51.2782 49.2557 51.1355 49.3175 51.0499C49.7693 50.4078 50.069 49.6991 50.2022 48.9239C50.3211 48.2437 50.264 47.5779 49.8692 46.9786C49.4602 46.3603 48.9132 46.365 48.5042 46.9881C48.2378 47.3971 48.1284 47.849 48.1427 48.3389ZM52.9227 53.038C53.1463 53.0238 53.3556 53.0142 53.5648 52.9952C54.0595 52.9572 54.5113 52.8192 54.8633 52.4482C55.044 52.2532 55.1867 52.044 55.0963 51.7776C55.006 51.516 54.7682 51.4304 54.5161 51.4161C53.2985 51.3353 52.3139 51.8252 51.4863 52.6861C51.3389 52.8383 51.4863 52.8668 51.5862 52.8906C52.0286 53.0047 52.4804 53.0095 52.918 53.0428M45.6409 53.0238C46.0119 53.0238 46.3829 53.0095 46.7491 52.9286C46.9251 52.8906 46.9679 52.8287 46.8252 52.6813C46.3496 52.1867 45.8026 51.8062 45.151 51.6016C44.6469 51.4399 44.1284 51.3829 43.6053 51.4922C43.1867 51.5826 43.0678 51.9203 43.3294 52.258C43.434 52.3912 43.572 52.4958 43.7099 52.6004C44.2902 53.0333 44.9798 52.9809 45.6457 53.0238M49.1796 54.2128C49.4269 53.7372 49.6267 53.2949 49.912 52.8953C50.1403 52.5814 50.1356 52.5862 49.8312 52.3674C49.6504 52.239 49.4745 52.1058 49.308 51.9631C49.2176 51.8823 49.151 51.8537 49.0559 51.9536C48.8609 52.1581 48.6183 52.3056 48.3853 52.4578C48.2711 52.5339 48.2473 52.6004 48.3377 52.7194C48.6706 53.1664 48.9703 53.6373 49.1796 54.2081" fill="#DD4140"/>
<path d="M17.0797 55.1926C17.0797 55.2307 17.0797 55.2735 17.0797 55.3115C17.0607 55.5255 17.1796 55.8585 17.0274 55.9346C16.761 56.0725 16.4186 55.9821 16.1094 55.9726C15.9477 55.9679 16.0095 55.8204 16.0095 55.7348C16.0095 54.95 16.0095 54.1653 16.0095 53.3757C16.0095 51.2069 16.0143 49.0333 16 46.8549C16 46.6266 16.0571 46.5505 16.2854 46.579C16.5422 46.6123 16.8847 46.4697 17.0369 46.6361C17.1653 46.7788 17.0797 47.1117 17.0797 47.3638C17.0797 48.3626 17.0797 49.3567 17.0797 50.3555V50.717C17.2842 50.4506 17.4269 50.2271 17.6314 50.0463C18.811 49.0285 21.2699 49.2235 21.7646 51.4875C22.0072 52.5862 21.9786 53.6849 21.4412 54.7075C20.8419 55.8585 19.5767 56.3959 18.3211 56.0582C17.8074 55.9203 17.4126 55.6159 17.0797 55.1926ZM17.0797 52.8906C17.0797 53.0808 17.0797 53.2711 17.0797 53.4661C17.1035 54.3317 17.6837 55.0499 18.5018 55.2259C19.3532 55.4066 20.157 55.0024 20.528 54.189C20.8704 53.4423 20.918 52.6528 20.761 51.8585C20.6754 51.4209 20.4899 51.0166 20.1237 50.7265C19.1724 49.9845 17.7456 50.3793 17.2795 51.5018C17.094 51.9488 17.0559 52.415 17.0797 52.8906Z" fill="#171717"/>
<path d="M38.0167 52.9762C38.0167 53.9037 38.0119 54.8073 38.0167 55.7158C38.0167 55.9156 37.9786 56.0107 37.7551 55.9869C37.5078 55.9584 37.1748 56.0915 37.0321 55.9298C36.9085 55.7966 36.9893 55.4732 36.9893 55.2307C36.9893 52.4483 36.9893 49.6658 36.9846 46.8882C36.9846 46.6361 37.0464 46.5695 37.2985 46.5743C38.0167 46.5886 38.0167 46.5743 38.0167 47.283V52.5719C38.5494 51.9917 39.025 51.4732 39.5054 50.95C39.8859 50.5362 40.2711 50.1272 40.6469 49.7087C40.6992 49.6516 40.742 49.6135 40.8229 49.6135C41.2129 49.6135 41.5981 49.6135 42.0642 49.6135C41.6504 50.0416 41.2937 50.4126 40.937 50.7883C40.3663 51.3829 39.7955 51.9774 39.22 52.5624C39.1059 52.6765 39.1344 52.7479 39.2343 52.8525C40.2283 53.8656 41.2129 54.8834 42.2022 55.8965C42.2117 55.906 42.2069 55.9298 42.2164 55.9726C41.7931 55.9726 41.3746 55.9726 40.9513 55.9726C40.8324 55.9726 40.78 55.8965 40.7087 55.8204C39.8811 54.9167 39.0488 54.0178 38.2164 53.1189C38.1641 53.0618 38.1356 52.9809 38.0072 52.9619" fill="#161717"/>
<path d="M26.7919 55.1403C26.4542 55.6492 25.9929 55.9726 25.3936 56.1058C24.5375 56.2913 23.5767 55.9821 23.1677 55.3781C22.4067 54.2509 23.0155 52.7051 24.3758 52.3341C25.0559 52.1486 25.7646 52.1201 26.459 52.0154C26.8823 51.9488 26.8871 51.9536 26.8347 51.5255C26.7444 50.755 26.3068 50.3603 25.5315 50.3555C25.3223 50.3555 25.113 50.3793 24.9037 50.4268C24.3995 50.5505 23.9429 50.7645 23.4959 51.1403C23.4959 50.7788 23.4959 50.4649 23.4959 50.151C23.4959 50.0416 23.5672 50.0178 23.6338 49.9798C24.585 49.4566 25.5886 49.3044 26.6302 49.6135C27.3532 49.8276 27.7194 50.3936 27.8526 51.1213C27.9001 51.3876 27.9144 51.6587 27.9097 51.9298C27.9097 53.1997 27.9049 54.4697 27.9097 55.7348C27.9097 55.9346 27.8573 56.0059 27.6623 55.9821C27.396 55.9488 27.044 56.1058 26.8918 55.9108C26.7682 55.7491 26.868 55.4161 26.868 55.1546C26.8443 55.1498 26.8157 55.1403 26.7919 55.1355M26.8585 53.3091C26.8585 52.9762 26.7032 52.8272 26.3924 52.862C26.3544 52.8668 26.3116 52.8668 26.2735 52.8716C25.6695 52.9524 25.0512 52.9714 24.4852 53.233C24.1094 53.4043 23.9667 53.7229 23.9382 54.1034C23.9097 54.4839 24.0381 54.8216 24.3663 55.0404C24.8752 55.3829 25.7598 55.2925 26.2212 54.8834C26.7063 54.4506 26.9013 53.9084 26.8633 53.3091" fill="#161717"/>
<path d="M91.5767 51.1022C91.5767 50.8692 91.6053 50.6932 91.572 50.5315C91.4911 50.132 91.7051 49.9702 92.0333 49.8276C92.8229 49.4851 93.6409 49.39 94.478 49.5517C95.258 49.7039 95.8193 50.346 95.9382 51.1974C95.9715 51.4542 95.9905 51.7205 95.9905 51.9821C95.9953 53.233 95.9905 54.4792 95.9953 55.7301C95.9953 55.9251 95.9525 56.0012 95.7479 55.9869C95.4959 55.9679 95.1772 56.0677 95.0107 55.9488C94.83 55.8204 94.9727 55.4827 94.9441 55.2354C94.9394 55.1926 94.9632 55.1355 94.8871 55.088C94.6635 55.4019 94.4114 55.692 94.0642 55.8823C93.2604 56.3293 91.9525 56.1629 91.396 55.5446C90.6635 54.7312 90.7158 52.8858 92.333 52.3721C92.9037 52.1914 93.503 52.1819 94.0833 52.0773C94.3211 52.0345 94.5589 51.9964 94.8014 51.9726C94.9441 51.9584 94.9679 51.8823 94.9584 51.7729C94.8775 50.8502 94.5256 50.2081 93.2794 50.365C92.9655 50.4031 92.6754 50.4982 92.3853 50.6123C92.1047 50.7265 91.8668 50.9025 91.572 51.0927M94.9441 53.2711C94.9441 52.9508 94.7824 52.8097 94.459 52.8478C94.4114 52.8525 94.3591 52.8573 94.3068 52.862C93.717 52.9524 93.1082 52.9524 92.547 53.2188C92.1475 53.409 92.0095 53.7324 92.0048 54.1462C91.9953 54.5553 92.1284 54.893 92.5185 55.0927C92.9703 55.321 93.4316 55.302 93.8882 55.126C94.5922 54.8549 94.9489 54.2176 94.9441 53.2758" fill="#161717"/>
<path d="M78.9727 49.4851C80.4519 49.4708 81.3888 49.8941 81.9311 50.95C82.3544 51.7681 82.4352 52.667 82.2545 53.566C81.8169 55.7634 79.6148 56.8145 77.6124 55.7919C76.956 55.459 76.5232 54.9215 76.2806 54.2271C75.9525 53.2711 75.981 52.3103 76.3139 51.3638C76.7277 50.1795 77.855 49.4804 78.9727 49.4851ZM77.113 52.5862C77.1035 53.2711 77.1701 53.6706 77.327 54.0511C77.66 54.8834 78.4019 55.3115 79.4388 55.2639C80.2474 55.2307 80.8752 54.736 81.1225 53.9084C81.3365 53.2092 81.3318 52.5006 81.1415 51.8014C80.9132 50.9453 80.352 50.4649 79.4673 50.3555C78.6635 50.2556 77.874 50.6266 77.4554 51.34C77.1891 51.7966 77.1082 52.2961 77.113 52.5862Z" fill="#161717"/>
<path d="M30.8157 50.6219C31.2533 50.0368 31.7765 49.6183 32.4994 49.5136C33.9453 49.2996 34.9156 50.0559 35.0345 51.4875C35.1534 52.9144 35.063 54.346 35.0821 55.7776C35.0821 55.9298 35.0488 55.9821 34.8823 55.9917C34.0405 56.0249 34.0405 56.0345 34.0405 55.1831C34.0405 54.0749 34.0547 52.9714 34.0167 51.8632C33.9976 51.3258 33.8359 50.8121 33.3032 50.5172C32.4281 50.0321 31.258 50.5695 30.9299 51.6112C30.8443 51.8918 30.811 52.1819 30.811 52.4768C30.811 53.5565 30.8014 54.6314 30.8157 55.711C30.8157 55.9441 30.7491 55.9917 30.5303 55.9917C29.7931 55.9821 29.7931 55.9917 29.7931 55.2639C29.7931 53.4804 29.7979 51.6968 29.7884 49.9132C29.7884 49.6658 29.8597 49.6135 30.0928 49.6135C30.811 49.6278 30.811 49.6135 30.811 50.327V50.6219H30.8157Z" fill="#171717"/>
<path d="M56.3139 49.6373C56.371 49.6278 56.39 49.6183 56.4091 49.6183C56.742 49.6183 57.132 49.5184 57.3841 49.6611C57.6219 49.799 57.6362 50.2223 57.7408 50.522C58.1926 51.8014 58.6493 53.0808 59.0963 54.365C59.1677 54.5743 59.2057 54.7931 59.2771 55.0975C59.3817 54.4649 59.61 53.9512 59.7955 53.4233C60.2331 52.1962 60.6754 50.9786 61.1177 49.7515C61.1558 49.6421 61.2271 49.604 61.346 49.6088C61.6362 49.6183 61.9311 49.6088 62.2402 49.6088C62.1974 49.8704 62.069 50.0844 61.9834 50.3127C61.2557 52.1439 60.5232 53.9702 59.7955 55.8014C59.767 55.8775 59.7622 55.9726 59.6576 55.9726C59.3674 55.9774 59.0726 55.9869 58.7824 55.9726C58.6492 55.9631 58.654 55.8062 58.6207 55.711C57.9168 53.8609 57.2176 52.0107 56.5185 50.1605C56.4566 49.994 56.39 49.8276 56.3187 49.6326" fill="#161717"/>
<path d="M75.2485 55.0689C75.2485 55.2639 75.2295 55.4161 75.2485 55.5636C75.3056 55.887 75.1391 56.0202 74.8538 56.0725C74.5161 56.1343 74.1736 56.1581 73.8359 56.0868C73.1653 55.9441 72.7372 55.4637 72.6516 54.7788C72.566 54.0939 72.6136 53.409 72.6041 52.7241C72.5946 52.0582 72.5993 51.3924 72.6041 50.7265C72.6041 50.5648 72.5755 50.4792 72.3948 50.5077C72.3234 50.5172 72.2521 50.5077 72.1808 50.5077C71.4483 50.5077 71.4483 50.5077 71.5054 49.78C71.5149 49.6468 71.5625 49.5993 71.6861 49.6135C71.7242 49.6135 71.767 49.6135 71.805 49.6135C72.0619 49.5945 72.4043 49.7277 72.5565 49.5612C72.6849 49.4185 72.5946 49.0856 72.5993 48.8335C72.5993 48.7717 72.5946 48.7098 72.5993 48.6528C72.6231 48.4578 72.4994 48.1819 72.6611 48.082C72.918 47.9251 73.2414 47.868 73.541 47.7919C73.679 47.7538 73.6314 47.8918 73.6314 47.9584C73.6314 48.434 73.6409 48.9049 73.6314 49.3805C73.6267 49.566 73.6695 49.6278 73.8645 49.6183C74.245 49.604 74.6302 49.623 75.0107 49.6088C75.201 49.604 75.2485 49.6658 75.2485 49.8513C75.2485 50.5077 75.258 50.5077 74.616 50.5077C74.3639 50.5077 74.1118 50.522 73.8597 50.5077C73.6647 50.4934 73.6267 50.5695 73.6314 50.7503C73.6409 51.868 73.6314 52.9857 73.6314 54.1082C73.6314 54.1795 73.6314 54.2509 73.6314 54.3175C73.7028 55.1308 74.302 55.4827 75.0535 55.1498C75.0963 55.1308 75.1439 55.1117 75.2343 55.0737" fill="#161717"/>
<path d="M70.7444 50.8216C70.3829 50.6266 70.0452 50.4459 69.6647 50.3888C68.2711 50.1748 67.1344 51.0832 67.0393 52.4958C66.9917 53.2235 67.0583 53.9179 67.5196 54.5267C68.195 55.4114 69.5886 55.4542 70.5018 54.8834C70.5731 54.8406 70.6207 54.7455 70.7539 54.7645C70.7539 55.0309 70.7539 55.2972 70.7539 55.5636C70.7539 55.673 70.7016 55.7253 70.616 55.7681C69.3127 56.4197 67.0821 56.3769 66.2402 54.384C65.698 53.1046 65.893 51.2639 67.0535 50.2414C67.8383 49.5469 68.7848 49.3757 69.7884 49.5041C70.7682 49.6278 70.8014 49.6991 70.7396 50.8169" fill="#171717"/>
<path d="M88.9655 63.4922C88.6707 63.7015 88.3853 63.9251 88.0761 64.1106C87.5957 64.4007 87.1867 64.3912 86.9013 64.1248C86.6302 63.868 86.5827 63.3638 86.8205 62.912C87.3722 61.8656 88.3187 61.4471 89.4364 61.3377C89.7265 61.3091 90.0167 61.3662 90.3116 61.3852C90.5113 61.3995 90.5256 61.4518 90.4257 61.6183C90.107 62.1557 89.8407 62.717 89.6457 63.3115C89.6029 63.4494 89.4887 63.6207 89.6219 63.7348C89.7456 63.8394 89.8978 63.6873 90.0405 63.6587C90.1641 63.6349 90.283 63.4066 90.3972 63.5731C90.497 63.7205 90.1926 63.6825 90.2117 63.8823C90.4019 63.9536 90.5351 63.8252 90.6397 63.6777C90.9774 63.2021 91.2485 62.6837 91.5387 62.1795C92.157 61.1094 92.6421 59.9631 93.4364 58.9976C93.8597 58.4839 94.3258 58.0416 94.9917 57.8609C95.6433 57.6849 95.8526 58.0511 95.9715 58.5695C95.981 58.6219 95.981 58.6742 95.9239 58.698C95.8573 58.7217 95.8145 58.6884 95.7765 58.6314C95.415 58.0416 95.1629 57.9988 94.6112 58.4126C93.7979 59.0214 93.2604 59.8442 92.8038 60.7241C92.5803 61.1617 92.3282 61.585 92.1712 62.0559C92.1617 62.0701 92.1427 62.0939 92.1475 62.1034C92.1665 62.1367 92.195 62.1272 92.2188 62.1082C92.6183 61.8799 92.9655 61.566 93.3936 61.3757C93.7218 61.2283 94.0452 61.1569 94.3639 61.39C94.6588 61.604 94.7206 61.8609 94.5684 62.2414C94.4162 62.6171 94.1689 62.9358 93.9501 63.2735C93.8835 63.3733 93.8121 63.4732 93.7551 63.5779C93.7075 63.6682 93.5981 63.7633 93.6837 63.8775C93.7646 63.9869 93.8835 63.9346 93.9881 63.9108C94.05 63.8965 94.1403 63.8394 94.1689 63.9346C94.1974 64.0249 94.107 64.0868 94.0309 64.101C93.874 64.1343 93.7123 64.1629 93.5553 64.1581C93.2747 64.1486 92.9988 64.082 92.7135 64.1248C92.6041 64.1391 92.5232 64.0773 92.4376 63.9298C92.9085 64.0582 93.0274 63.6873 93.2271 63.4399C93.5696 63.0071 93.9358 62.5886 94.1166 62.0511C94.264 61.604 94.0785 61.3947 93.6076 61.4804C93.3651 61.5232 93.1463 61.6135 92.9465 61.761C92.3092 62.2366 91.7955 62.8216 91.434 63.5351C91.3817 63.6349 91.2818 63.7681 91.415 63.8632C91.5434 63.9536 91.6814 63.8775 91.8003 63.7871C91.8716 63.7348 91.9049 63.5303 92.0381 63.6873C92.138 63.8062 91.9953 63.887 91.9192 63.9488C91.767 64.0725 91.591 64.1676 91.4007 64.1724C91.0821 64.1724 90.7729 64.1819 90.4542 64.277C90.1974 64.3579 90.2069 64.0582 90.1261 63.8632C89.8645 63.9869 89.6124 64.1248 89.3508 64.2342C89.1986 64.296 89.0179 64.4054 88.8704 64.2628C88.7277 64.1248 88.8704 63.9631 88.9085 63.8157C88.9322 63.7205 88.9655 63.6254 88.9988 63.5303L89.0226 63.4685C89.0226 63.4685 88.9846 63.4875 88.9655 63.497M87.3627 63.3924C87.3437 63.868 87.6195 64.0392 88.0571 63.8394C88.937 63.4399 89.346 62.6742 89.6504 61.8228C89.7028 61.6801 89.6314 61.6611 89.5125 61.6326C88.547 61.3852 87.4007 62.3175 87.3627 63.3924Z" fill="#9DBF58"/>
<path d="M85.0083 50.8311C85.1415 50.5981 85.2176 50.3317 85.3984 50.1224C85.8407 49.6183 86.3972 49.4328 87.0535 49.5422C87.1582 49.5612 87.2438 49.585 87.2438 49.7229C87.239 50.0226 87.2438 50.3222 87.2438 50.6314C85.9596 50.0987 85.094 50.9691 84.9941 52.2723C84.9085 53.3662 84.9751 54.4649 84.9608 55.5636C84.9608 55.9774 84.9608 55.9774 84.547 55.9774C84.1284 55.9774 83.9192 55.7697 83.9192 55.3543C83.9192 53.5422 83.9192 51.7253 83.9192 49.9132C83.9192 49.6896 83.9572 49.5755 84.2141 49.6088C84.4519 49.6373 84.7658 49.5374 84.9132 49.6611C85.0702 49.7895 84.937 50.1177 84.9703 50.3555C84.9893 50.5172 84.899 50.6884 85.0179 50.8406C85.0036 50.8311 84.9941 50.8216 84.9798 50.8121C84.9798 50.8264 84.9703 50.8406 84.9655 50.8502C84.9798 50.8454 84.9988 50.8359 85.0131 50.8311" fill="#171717"/>
<path d="M69.7789 64.1914C68.9893 64.1676 68.2711 63.9488 67.7004 63.3686C67.3484 63.0119 67.1819 62.579 67.2866 62.0701C67.4626 61.195 68.2711 60.7764 69.0797 61.1379C69.1796 61.1855 69.3223 61.233 69.2937 61.3567C69.2604 61.5089 69.1177 61.428 69.0131 61.4138C68.1142 61.2806 67.629 61.9227 67.9144 62.8502C68.0809 63.3971 68.4471 63.7538 68.9798 63.9108C69.7123 64.1248 70.44 64.0725 71.1106 63.6825C71.8336 63.2687 72.0523 62.3555 71.6576 61.5327C71.377 60.9524 70.9013 60.5481 70.459 60.1106C70.2592 59.9108 70.088 59.6873 69.9596 59.4352C69.5363 58.5886 69.9739 57.818 71.0012 57.7229C71.4103 57.6849 71.8003 57.8038 72.157 58.0083C72.5185 58.2128 72.6707 58.579 72.547 58.893C72.4947 59.0261 72.4233 59.126 72.2569 59.0785C72.1047 59.0309 71.981 58.95 71.9525 58.7788C71.9334 58.6599 72.0381 58.6599 72.1094 58.6409C72.2664 58.6028 72.2854 58.5077 72.1998 58.3983C71.9144 58.0368 71.1391 57.7419 70.6825 58.1224C70.3544 58.3983 70.2783 58.6647 70.4638 59.0499C70.6683 59.478 71.006 59.7966 71.3484 60.1106C71.8003 60.5196 72.1522 60.9905 72.2902 61.5897C72.5185 62.579 72.0143 63.516 71.044 63.9393C70.6397 64.1153 70.2212 64.2009 69.7789 64.1914Z" fill="#9DBF58"/>
<path d="M63.3437 52.8145C63.3437 51.8395 63.3484 50.8597 63.3437 49.8846C63.3437 49.6754 63.3912 49.6135 63.61 49.6135C64.3662 49.6183 64.3663 49.6135 64.3663 50.3603C64.3663 52.1439 64.3615 53.9227 64.371 55.7063C64.371 55.9441 64.3044 56.0059 64.0856 55.9821C63.8478 55.9584 63.5292 56.082 63.3912 55.9298C63.2723 55.8062 63.3532 55.4922 63.3532 55.2592C63.3532 54.4411 63.3532 53.6278 63.3532 52.8097" fill="#171717"/>
<path d="M89.3936 52.8192C89.3936 53.7848 89.3888 54.7503 89.3936 55.7158C89.3936 55.9203 89.3508 56.0154 89.132 55.9869C88.8847 55.9584 88.5565 56.0963 88.4138 55.9298C88.2901 55.7919 88.371 55.4685 88.371 55.2307C88.371 53.4708 88.371 51.711 88.3662 49.9465C88.3662 49.6991 88.3995 49.5993 88.6849 49.6088C89.3936 49.6326 89.3936 49.6183 89.3936 50.3127V52.8192Z" fill="#171717"/>
<path d="M74.811 63.6207C74.5446 63.8109 74.3544 63.9774 74.1356 64.0963C73.7693 64.3008 73.4269 64.2628 73.1558 64.0249C72.8799 63.7776 72.8181 63.497 72.9846 63.1593C73.1082 62.9072 73.289 62.6884 73.4554 62.4601C73.6203 62.2382 73.5743 62.0939 73.3175 62.0273C73.3841 61.8561 73.5601 61.8276 73.6837 61.7372C73.8978 61.585 74.1498 61.4994 74.3877 61.3947C74.4685 61.3614 74.5589 61.2949 74.635 61.3852C74.7063 61.4708 74.6873 61.5755 74.6255 61.6658C74.4923 61.8561 74.3639 62.0463 74.2259 62.2318C73.9786 62.5648 73.7503 62.9072 73.5981 63.2925C73.5363 63.4494 73.484 63.6207 73.6362 63.7681C73.7979 63.9251 73.9739 63.8727 74.1403 63.7919C74.7729 63.4827 75.201 62.9358 75.6528 62.4221C75.9192 62.1224 76.1808 61.8133 76.4376 61.5041C76.5089 61.4185 76.585 61.3424 76.742 61.3472C76.6469 61.6326 76.4519 61.8466 76.3044 62.0844C75.824 62.8644 75.4816 63.7158 75.0155 64.5053C74.5161 65.3567 73.9691 66.1748 73.1653 66.7883C72.8799 67.0071 72.5755 67.1736 72.2283 67.2544C71.805 67.3543 71.4626 67.1736 71.1677 66.8882C71.0821 66.8073 71.025 66.698 71.0726 66.5648C71.8526 67.1165 72.4614 67.0309 73.1273 66.3079C73.8407 65.5374 74.3116 64.6195 74.8157 63.6159" fill="#9DBF58"/>
<path d="M79.1629 63.4352C78.8062 63.6825 78.5161 63.9013 78.2117 64.0963C77.7646 64.3864 77.308 64.4007 77.0321 64.1581C76.7658 63.9203 76.7039 63.4399 76.9037 62.9738C77.2224 62.2414 77.8264 61.8228 78.5446 61.5517C79.1629 61.3186 79.8003 61.3044 80.4519 61.39C80.6421 61.4138 80.6421 61.4661 80.547 61.6088C80.176 62.189 79.9239 62.8216 79.7099 63.4732C79.6814 63.5588 79.6338 63.654 79.7099 63.7301C79.7955 63.8204 79.9001 63.7633 79.9905 63.7253C80.1284 63.6635 80.2616 63.5921 80.3995 63.5303C80.4661 63.497 80.5232 63.5303 80.5518 63.5826C80.585 63.6492 80.5185 63.6682 80.4804 63.6872C80.1047 63.9203 79.7242 64.1534 79.3009 64.2913C79.1962 64.3246 79.0726 64.3579 78.9822 64.277C78.8871 64.1867 78.9299 64.0677 78.9632 63.9631C79.0155 63.8014 79.0821 63.6492 79.1677 63.4352M77.4935 63.4161C77.4887 63.8965 77.7408 64.0582 78.1689 63.8442C78.5161 63.673 78.811 63.4399 79.0726 63.1545C79.434 62.7645 79.5529 62.2556 79.7765 61.799C79.8431 61.6611 79.7337 61.6611 79.6433 61.6373C78.6302 61.39 77.5077 62.3175 77.4935 63.4161Z" fill="#9DBF58"/>
<path d="M80.2711 64.0915C80.8799 63.9155 81.151 63.4542 81.3888 62.9548C81.5838 62.5505 81.7884 62.151 81.9881 61.7515C81.9596 61.7277 81.9453 61.7087 81.9311 61.7039C81.8502 61.6754 81.7265 61.78 81.6885 61.6658C81.6504 61.5517 81.7741 61.4946 81.8645 61.4566C82.0975 61.3567 82.3401 61.3044 82.5922 61.2711C82.6397 61.2663 82.7206 61.2568 82.7349 61.2853C82.9299 61.5755 83.1344 61.39 83.3389 61.2996C83.4673 61.2425 83.6053 61.1997 83.7479 61.2092C83.9953 61.2283 84.2426 61.2568 84.3234 61.5469C84.39 61.7752 84.1903 62.1367 83.9572 62.2556C83.8526 62.3079 83.7432 62.3412 83.6481 62.2604C83.5387 62.17 83.5957 62.0606 83.6338 61.956C83.6671 61.8656 83.7622 61.7848 83.6671 61.6849C83.5767 61.5897 83.4626 61.585 83.3342 61.6088C82.8633 61.6944 82.5494 62.0035 82.2783 62.3603C81.9881 62.7455 81.7646 63.1783 81.5791 63.6207C81.4792 63.8585 81.5268 63.906 81.7836 63.8727C81.8549 63.8632 81.9453 63.7681 81.9929 63.8775C82.0405 63.9821 81.9643 64.0677 81.893 64.1438C81.874 64.1629 81.8454 64.1819 81.8169 64.1867C81.2985 64.239 80.7848 64.2247 80.2711 64.0868" fill="#9DBF58"/>
<path d="M83.9192 64.1153C84.8133 63.6397 85.0084 62.7598 85.3841 61.9893C85.289 61.9322 85.2509 61.9702 85.2081 61.9893C85.1415 62.0226 85.0702 62.0606 85.0226 61.9798C84.9751 61.9037 85.0036 61.8228 85.0702 61.7657C85.1938 61.6563 85.3413 61.5897 85.4887 61.5327C85.6933 61.4518 85.8978 61.3614 86.1023 61.2853C86.1784 61.2568 86.2687 61.1807 86.3448 61.2853C86.4114 61.3757 86.3639 61.4661 86.3211 61.5422C86.05 62.0273 85.7789 62.5029 85.503 62.9833C85.3984 63.1688 85.2747 63.34 85.1796 63.5303C85.0559 63.7871 85.1273 63.8965 85.4079 63.9013C85.4745 63.9013 85.5268 63.8918 85.5411 63.9726C85.5553 64.0773 85.5173 64.1581 85.4126 64.1771C85.2747 64.2057 85.1273 64.2057 84.9988 64.1439C84.7753 64.0392 84.5565 64.0392 84.333 64.1486C84.2283 64.2009 84.1047 64.2104 83.9239 64.1153" fill="#9DBF58"/>
<path d="M86.9917 59.9203C86.9917 60.2009 86.7919 60.4387 86.5589 60.4435C86.3163 60.4435 86.0928 60.1867 86.1023 59.906C86.1118 59.6397 86.3258 59.3829 86.5399 59.3733C86.7777 59.3686 86.9917 59.6302 86.9917 59.9203Z" fill="#9DBF58"/>
<path d="M92.2236 62.0987C92.1998 62.1129 92.1712 62.1272 92.1522 62.0892C92.1522 62.0796 92.1665 62.0606 92.176 62.0463C92.1903 62.0654 92.2045 62.0796 92.2236 62.0987Z" fill="white"/>
<path d="M88.9655 63.4922C88.9655 63.4922 89.0036 63.4732 89.0226 63.4637L88.9988 63.5255C88.9988 63.5255 88.9751 63.5018 88.9655 63.4922Z" fill="white"/>
<path d="M85.0083 50.8311C85.0083 50.8311 84.9751 50.8454 84.9608 50.8502C84.9655 50.8359 84.9703 50.8264 84.9751 50.8121C84.9893 50.8216 84.9988 50.8311 85.0131 50.8406V50.8311" fill="white"/>
</g>
<rect x="1" y="1" width="110" height="110" rx="9" stroke="#CCCCCC" stroke-width="2"/>
<defs>
<clipPath id="clip0_528_40">
<rect x="2" y="2" width="108" height="108" rx="8" fill="white"/>
</clipPath>
</defs>
</svg>
