<svg width="112" height="112" viewBox="0 0 112 112" fill="none" xmlns="http://www.w3.org/2000/svg">
<g clip-path="url(#clip0_642_1035)">
<rect x="2" y="2" width="108" height="108" rx="8" fill="white"/>
<path fill-rule="evenodd" clip-rule="evenodd" d="M21.3052 48.6028C18.1118 48.9045 17.7239 51.0119 17.1637 52.0376C16.8103 51.7532 16.6293 51.6842 16.2716 51.4041C16.4957 50.6585 17.1723 49.5552 17.711 48.926C18.978 47.5556 20.3787 47.9951 21.8698 47.2539C22.7834 46.6635 23.0162 45.836 23.3222 44.9999C23.8005 45.0861 23.9212 45.1896 24.2961 45.3749C24.0074 46.8272 23.0722 48.2537 21.3052 48.6028ZM22.5119 50.2405C24.2789 49.8914 25.2141 48.4606 25.5028 47.0126C25.1279 46.8272 25.0072 46.7238 24.5289 46.6376C24.2229 47.4737 23.9901 48.3054 23.0765 48.8916C21.5854 49.6328 20.1847 49.1932 18.9177 50.5637C18.3747 51.1929 17.6981 52.2962 17.4783 53.0417C17.8317 53.3262 18.0127 53.3951 18.3704 53.6753C18.9306 52.6453 19.3185 50.5378 22.5119 50.2405ZM23.6842 51.848C25.4511 51.4989 26.3863 50.0681 26.6751 48.62C26.3001 48.4347 26.1795 48.3313 25.7011 48.2451C25.3951 49.0812 25.1624 49.9129 24.2487 50.4991C22.7576 51.2403 21.357 50.8007 20.0899 52.1712C19.5469 52.8004 18.8703 53.9037 18.6505 54.6492C19.0039 54.9337 19.1849 55.0026 19.5426 55.2828C20.1028 54.2528 20.4907 52.1453 23.6842 51.848ZM24.9469 53.3262C26.7138 52.9771 27.649 51.5463 27.9378 50.0983C27.5628 49.9129 27.4422 49.8095 26.9638 49.7233C26.6578 50.5594 26.4251 51.3911 25.5115 51.9773C24.0203 52.7185 22.6197 52.2789 21.3526 53.6494C20.8096 54.2786 20.133 55.3819 19.9132 56.1275C20.2666 56.4119 20.4476 56.4808 20.8053 56.761C21.3656 55.731 21.7534 53.6235 24.9469 53.3262ZM21.0768 58.3555C17.8791 58.6055 17.4567 60.7043 16.8792 61.7257C16.5301 61.4369 16.3491 61.3637 16.0001 61.0749C16.2328 60.3337 16.9266 59.239 17.4783 58.6184C18.7669 57.2695 20.1632 57.7306 21.6629 57.0109C22.5852 56.4377 22.8309 55.6103 23.1498 54.7785C23.6281 54.8733 23.7445 54.9768 24.1151 55.1664C23.8048 56.6144 22.8481 58.028 21.0768 58.3469V58.3555ZM22.2577 60.0104C19.0599 60.2604 18.6376 62.3592 18.0601 63.3806C17.711 63.0918 17.53 63.0186 17.1809 62.7298C17.4136 61.9886 18.1075 60.8939 18.6591 60.2733C19.9477 58.9244 21.344 59.3855 22.8438 58.6658C23.766 58.0927 24.0117 57.2652 24.3306 56.4334C24.809 56.5283 24.9253 56.6317 25.296 56.8213C24.9857 58.2693 24.0289 59.6829 22.2577 60.0061V60.0104ZM23.4083 61.6395C25.1796 61.3163 26.1364 59.9027 26.4466 58.459C26.076 58.2694 25.9553 58.1659 25.4813 58.0711C25.1624 58.9029 24.9167 59.7303 23.9945 60.3035C22.4947 61.0189 21.0984 60.5578 19.8098 61.911C19.2582 62.5316 18.5643 63.6262 18.3316 64.3675C18.6807 64.6562 18.8617 64.7295 19.2151 65.0183C19.7926 63.9969 20.2106 61.8981 23.4127 61.6481L23.4083 61.6395ZM24.6452 63.1393C26.4165 62.816 27.3732 61.4025 27.6878 59.9587C27.3172 59.7691 27.2008 59.6657 26.7225 59.5709C26.4036 60.4026 26.1579 61.2301 25.2356 61.8033C23.7359 62.5187 22.3396 62.0575 21.051 63.4108C20.4993 64.0313 19.8055 65.126 19.5728 65.8673C19.9218 66.156 20.1028 66.2293 20.4519 66.518C21.0294 65.4966 21.4475 63.3978 24.6495 63.1479L24.6452 63.1393ZM36.8631 48.9605C36.8631 49.1631 36.8372 49.3527 36.7812 49.5337C36.7295 49.7147 36.6519 49.8785 36.5571 50.0293C36.458 50.1801 36.3416 50.3137 36.1994 50.4301C36.0615 50.5465 35.902 50.6413 35.7253 50.7188C35.8589 50.7447 35.9839 50.7921 36.1046 50.8611C36.2209 50.93 36.3244 51.0162 36.4062 51.1196C36.4881 51.2231 36.5571 51.3481 36.6002 51.486C36.6476 51.6282 36.6691 51.7833 36.6691 51.9557C36.6691 52.1281 36.6476 52.3091 36.6002 52.4815C36.5571 52.6582 36.4838 52.8263 36.3933 52.9857C36.2985 53.1452 36.1865 53.296 36.0485 53.4339C35.9106 53.5718 35.7512 53.6925 35.5659 53.7916C35.3805 53.8951 35.1737 53.9726 34.9453 54.0287C34.7169 54.0847 34.454 54.1148 34.1523 54.1148H32.4802C32.3724 54.1148 32.2905 54.089 32.2388 54.033C32.1871 53.9769 32.1742 53.8907 32.2043 53.7658L33.3205 48.0469C33.3421 47.9176 33.3938 47.8271 33.4757 47.7754C33.5576 47.7236 33.6438 47.6978 33.73 47.6978H35.0875C35.4064 47.6978 35.6736 47.7236 35.8891 47.7797C36.1046 47.8357 36.2856 47.9133 36.4278 48.021C36.5743 48.1287 36.6778 48.258 36.751 48.4132C36.8243 48.5683 36.8588 48.745 36.8588 48.9476L36.8631 48.9605ZM35.9753 49.1157C35.9753 49.0079 35.958 48.9088 35.9236 48.8226C35.8891 48.7364 35.8288 48.6631 35.7512 48.5985C35.6736 48.5382 35.5702 48.4908 35.4495 48.4563C35.3288 48.4218 35.1694 48.4046 34.9711 48.4046H34.0877L33.6912 50.4818H34.635C34.8892 50.4818 35.1004 50.4387 35.2642 50.3525C35.428 50.2663 35.5616 50.1586 35.6693 50.025C35.7727 49.8914 35.8503 49.7449 35.902 49.5811C35.9537 49.4173 35.9753 49.2622 35.9753 49.1157ZM35.7857 52.0247C35.7857 51.7488 35.6908 51.5377 35.5012 51.3868C35.3116 51.236 35.0185 51.1627 34.6177 51.1627H33.5489L33.1094 53.4253H34.2816C34.5488 53.4253 34.7729 53.3865 34.9539 53.3089C35.1349 53.2314 35.29 53.1279 35.415 53.003C35.54 52.878 35.6305 52.7271 35.6952 52.5591C35.7598 52.391 35.7943 52.2143 35.7943 52.029L35.7857 52.0247ZM42.2286 53.8218L41.2848 47.8659C41.2761 47.8314 41.2675 47.8012 41.2503 47.7754C41.2331 47.7538 41.2072 47.7323 41.1641 47.7193C41.1253 47.7064 41.0693 47.6978 41.0046 47.6892C40.94 47.6849 40.8538 47.6805 40.7461 47.6805C40.6512 47.6805 40.5737 47.6805 40.509 47.6892C40.4444 47.6935 40.3884 47.7064 40.3496 47.7193C40.3065 47.7323 40.272 47.7495 40.2461 47.7754C40.2203 47.7969 40.1944 47.8271 40.1729 47.8659L36.8975 53.8218C36.8631 53.8951 36.8415 53.9511 36.8286 53.9985C36.82 54.0416 36.8286 54.0761 36.8501 54.1019C36.8717 54.1235 36.9148 54.1407 36.9708 54.1493C37.0268 54.1579 37.1044 54.1623 37.2035 54.1623C37.2897 54.1623 37.3673 54.1623 37.4276 54.1536C37.488 54.1493 37.5354 54.1364 37.5742 54.1235C37.6129 54.1105 37.6431 54.0933 37.6604 54.0717C37.6819 54.0502 37.6991 54.0243 37.7164 53.9899L38.5352 52.4427H41.1598L41.3882 54.0028C41.3882 54.033 41.4011 54.0588 41.4141 54.0761C41.427 54.0976 41.4485 54.1105 41.4744 54.1235C41.5002 54.1364 41.539 54.145 41.5908 54.1493C41.6425 54.1536 41.7071 54.1579 41.7761 54.1579C41.8838 54.1579 41.9743 54.1579 42.039 54.1493C42.1036 54.1407 42.151 54.1278 42.1812 54.1062C42.2113 54.0847 42.2329 54.0502 42.2372 54.0028C42.2415 53.9554 42.2372 53.8994 42.2286 53.8261V53.8218ZM40.5909 48.564L41.0607 51.7575H38.8972L40.5909 48.564ZM48.0337 53.7701C48.0251 53.8347 48.0035 53.8907 47.9777 53.9382C47.9475 53.9856 47.913 54.02 47.8785 54.0502C47.8397 54.0804 47.801 54.1019 47.7579 54.1148C47.7148 54.1278 47.6717 54.1321 47.6329 54.1321H47.3183C47.2321 54.1321 47.1631 54.1235 47.1028 54.1019C47.0468 54.0804 46.995 54.0459 46.9476 53.9985C46.9045 53.9511 46.8658 53.8864 46.8313 53.8132C46.7968 53.7356 46.758 53.6408 46.7235 53.5244L45.5427 50.1069C45.4608 49.8612 45.3832 49.6199 45.3014 49.3742C45.2195 49.1329 45.1462 48.8872 45.0686 48.6459H45.0557C45.0126 48.9174 44.9695 49.1846 44.9178 49.4518C44.8704 49.719 44.8187 49.9862 44.767 50.2534L44.0386 53.9899C44.0343 54.0157 44.0214 54.0416 44.0042 54.0588C43.9869 54.0804 43.9611 54.0933 43.9266 54.1062C43.8921 54.1192 43.849 54.1278 43.7973 54.1364C43.7413 54.145 43.6809 54.1493 43.6034 54.1493C43.5258 54.1493 43.4654 54.1493 43.4137 54.1364C43.362 54.1278 43.3275 54.1192 43.2974 54.1062C43.2715 54.0933 43.2543 54.0804 43.2457 54.0588C43.237 54.0416 43.237 54.0157 43.2457 53.9899L44.4006 48.077C44.4265 47.9434 44.4825 47.8486 44.5644 47.7969C44.6463 47.7409 44.7325 47.7107 44.8187 47.7107H45.2022C45.2798 47.7107 45.3488 47.7193 45.4048 47.7366C45.4608 47.7538 45.5125 47.784 45.5556 47.8228C45.5987 47.8659 45.6332 47.9219 45.6677 47.9908C45.7022 48.0598 45.7366 48.146 45.7754 48.2494L46.9692 51.7144C47.0425 51.9299 47.12 52.1453 47.1933 52.3565C47.2666 52.572 47.3398 52.7875 47.4088 53.0073H47.4174C47.4605 52.7358 47.5122 52.4556 47.5639 52.1669C47.6199 51.8781 47.6717 51.5937 47.7234 51.3265L48.4129 47.8529C48.4215 47.8271 48.4302 47.8055 48.4474 47.7883C48.4646 47.771 48.4862 47.7538 48.5207 47.7409C48.5551 47.7279 48.5939 47.7193 48.6456 47.7107C48.6974 47.7021 48.762 47.7021 48.8353 47.7021C48.9085 47.7021 48.9732 47.7021 49.0249 47.7107C49.0766 47.715 49.1154 47.7279 49.1413 47.7409C49.1714 47.7538 49.1887 47.7667 49.1973 47.7883C49.2059 47.8055 49.2102 47.8271 49.2059 47.8529L48.0337 53.7744V53.7701ZM54.8559 47.8443C54.8559 47.8874 54.8386 47.9305 54.8041 47.9822C54.7697 48.0296 54.7179 48.09 54.6447 48.1589L52.0287 50.7533L53.6836 53.7399C53.7138 53.7959 53.7353 53.839 53.744 53.8735C53.7569 53.908 53.7612 53.9382 53.7612 53.964C53.7612 53.9942 53.7526 54.02 53.7396 54.0416C53.7267 54.0631 53.7052 54.0847 53.675 54.0976C53.6448 54.1105 53.6017 54.1192 53.5414 54.1278C53.4854 54.1364 53.4121 54.1407 53.3216 54.1407C53.2311 54.1407 53.1578 54.1407 53.1061 54.1321C53.0501 54.1235 53.007 54.1148 52.9725 54.1062C52.9381 54.0933 52.9122 54.0761 52.895 54.0588C52.8777 54.0373 52.8648 54.0114 52.8519 53.9813L51.1237 50.7835L50.5031 53.9899C50.5031 54.0157 50.4902 54.0416 50.4729 54.0588C50.4557 54.0804 50.4298 54.0933 50.3911 54.1062C50.3566 54.1192 50.3092 54.1278 50.2531 54.1364C50.1971 54.145 50.1325 54.1493 50.0549 54.1493C49.9773 54.1493 49.9084 54.1493 49.8523 54.1364C49.8006 54.1278 49.7575 54.1192 49.7274 54.1062C49.6972 54.0933 49.68 54.0804 49.6713 54.0588C49.6627 54.0416 49.6584 54.0157 49.667 53.9899L50.8737 47.8314C50.8737 47.8098 50.8867 47.784 50.9082 47.7667C50.9254 47.7452 50.9556 47.7323 50.9901 47.7193C51.0246 47.7064 51.072 47.6978 51.128 47.6892C51.184 47.6805 51.2487 47.6762 51.3262 47.6762C51.4038 47.6762 51.4685 47.6762 51.5245 47.6892C51.5762 47.6978 51.6193 47.7064 51.6495 47.7193C51.6796 47.7323 51.6969 47.7452 51.7055 47.7667C51.7141 47.784 51.7184 47.8055 51.7141 47.8314L51.1539 50.6844L53.9077 47.84C53.9336 47.8098 53.9638 47.784 53.9939 47.7624C54.0241 47.7409 54.0586 47.7236 54.1017 47.715C54.1448 47.7021 54.1922 47.6935 54.2482 47.6892C54.3085 47.6805 54.3732 47.6805 54.4507 47.6805C54.5369 47.6805 54.6059 47.6805 54.6576 47.6935C54.7093 47.7021 54.7524 47.715 54.7783 47.7236C54.8084 47.7366 54.83 47.7538 54.8386 47.7754C54.8515 47.7926 54.8559 47.8185 54.8559 47.8443ZM37.1691 57.2997C37.1691 57.3298 37.1691 57.3686 37.1604 57.4203C37.1561 57.4721 37.1475 57.5281 37.1389 57.5927C37.1303 57.6574 37.113 57.7177 37.0958 57.7824C37.0786 57.847 37.0613 57.9073 37.0355 57.9591C37.0139 58.0108 36.9837 58.0582 36.9579 58.0927C36.9277 58.1271 36.8975 58.1444 36.8674 58.1444C36.82 58.1444 36.7596 58.1228 36.6864 58.0797C36.6131 58.0366 36.5226 57.9892 36.4149 57.9375C36.3071 57.8858 36.1821 57.8384 36.0399 57.7953C35.8977 57.7522 35.7383 57.7306 35.5529 57.7306C35.3676 57.7306 35.2082 57.7565 35.0746 57.8082C34.9453 57.8599 34.8375 57.9289 34.7513 58.0151C34.6695 58.1013 34.6048 58.1961 34.566 58.3038C34.5229 58.4073 34.5057 58.5193 34.5057 58.6271C34.5057 58.752 34.5359 58.8641 34.6005 58.9589C34.6651 59.0537 34.747 59.1442 34.8505 59.2261C34.9539 59.308 35.0746 59.3899 35.2082 59.4674C35.3418 59.545 35.4797 59.6226 35.6176 59.7088C35.7555 59.795 35.8934 59.8855 36.027 59.9846C36.1606 60.0837 36.2813 60.2001 36.3847 60.3294C36.4881 60.463 36.5743 60.6095 36.6347 60.7776C36.6993 60.9456 36.7295 61.1439 36.7295 61.3637C36.7295 61.6912 36.6648 61.9972 36.5312 62.2773C36.3976 62.5574 36.2123 62.7988 35.9667 63.01C35.721 63.2168 35.428 63.3806 35.0832 63.497C34.7384 63.6176 34.3549 63.6736 33.9368 63.6736C33.7084 63.6736 33.5015 63.6564 33.3119 63.6176C33.1223 63.5831 32.9499 63.5357 32.8034 63.484C32.6569 63.4323 32.5319 63.3763 32.4327 63.3159C32.3293 63.2599 32.2561 63.2039 32.2086 63.1522C32.1612 63.1005 32.1354 63.0186 32.1354 62.9151C32.1354 62.8893 32.1354 62.8462 32.144 62.7902C32.1526 62.7341 32.1612 62.6738 32.1742 62.6092C32.1871 62.5445 32.2 62.4799 32.2173 62.4109C32.2345 62.342 32.2561 62.2816 32.2819 62.2256C32.3078 62.1696 32.3336 62.1222 32.3638 62.0877C32.394 62.0532 32.4241 62.036 32.4586 62.036C32.5189 62.036 32.5879 62.0618 32.6698 62.1179C32.7517 62.1696 32.8551 62.2299 32.9758 62.2946C33.0964 62.3592 33.243 62.4195 33.411 62.4756C33.5791 62.5316 33.7774 62.5574 34.0144 62.5574C34.2213 62.5574 34.4023 62.5316 34.5574 62.4799C34.7126 62.4282 34.8418 62.3549 34.9496 62.2687C35.053 62.1782 35.1349 62.0748 35.1866 61.9541C35.2426 61.8334 35.2685 61.7041 35.2685 61.5619C35.2685 61.4326 35.2383 61.3206 35.1737 61.2215C35.109 61.1223 35.0272 61.0318 34.9237 60.95C34.8203 60.8681 34.7039 60.7905 34.5746 60.7172C34.4454 60.644 34.3118 60.5664 34.1738 60.4845C34.0402 60.4026 33.9023 60.3078 33.7731 60.213C33.6438 60.1182 33.5231 60.0018 33.424 59.8725C33.3205 59.7389 33.2387 59.5881 33.174 59.42C33.1094 59.2519 33.0792 59.0494 33.0792 58.8253C33.0792 58.5107 33.1438 58.2219 33.2688 57.9591C33.3938 57.6962 33.5705 57.4678 33.7903 57.2781C34.0144 57.0885 34.2816 56.942 34.5919 56.8342C34.9022 56.7308 35.2426 56.6748 35.6133 56.6748C35.79 56.6748 35.958 56.6877 36.1132 56.7136C36.2683 56.7394 36.4149 56.7739 36.5442 56.8127C36.6734 56.8515 36.7855 56.8946 36.876 56.9463C36.9665 56.9937 37.0311 57.0368 37.0656 57.0713C37.1001 57.1014 37.126 57.1402 37.1432 57.1747C37.1604 57.2135 37.1647 57.2566 37.1647 57.3126L37.1691 57.2997ZM43.4008 61.0534C43.3146 61.4843 43.1767 61.8679 42.9914 62.1911C42.8061 62.5187 42.5777 62.7902 42.3018 63.01C42.026 63.2298 41.7114 63.3935 41.3537 63.5056C40.996 63.6133 40.5995 63.6693 40.1686 63.6693C39.7074 63.6693 39.3109 63.6133 38.9834 63.5013C38.6516 63.3849 38.393 63.2168 38.1991 62.997C38.0051 62.7729 37.8845 62.4928 37.8284 62.1567C37.7724 61.8205 37.7896 61.4283 37.8801 60.9844L38.686 56.9635C38.6947 56.929 38.7076 56.8989 38.7378 56.8687C38.7636 56.8429 38.8067 56.817 38.8627 56.7998C38.9188 56.7825 38.9963 56.7696 39.0825 56.7567C39.173 56.748 39.2851 56.7394 39.423 56.7394C39.5523 56.7394 39.6643 56.7437 39.7462 56.7567C39.8324 56.7653 39.9014 56.7782 39.9488 56.7998C39.9962 56.817 40.0307 56.8429 40.0436 56.8687C40.0565 56.8989 40.0651 56.929 40.0565 56.9635L39.2506 60.9844C39.1946 61.2559 39.1773 61.4843 39.2032 61.6826C39.2291 61.8808 39.2894 62.0403 39.3799 62.1696C39.4747 62.2946 39.5997 62.3894 39.7548 62.454C39.91 62.5143 40.0996 62.5445 40.3194 62.5445C40.5392 62.5445 40.7461 62.51 40.9357 62.4411C41.1253 62.3721 41.2934 62.273 41.4399 62.1394C41.5864 62.0101 41.7114 61.8464 41.8149 61.6567C41.9183 61.4671 41.9915 61.2516 42.0433 61.0103L42.8578 56.9592C42.8664 56.9247 42.8793 56.8946 42.9095 56.8644C42.9354 56.8385 42.9741 56.8127 43.0302 56.7955C43.0819 56.7782 43.1552 56.7653 43.25 56.7524C43.3405 56.7437 43.4525 56.7351 43.5861 56.7351C43.7197 56.7351 43.8275 56.7394 43.9093 56.7524C43.9912 56.761 44.0559 56.7739 44.1076 56.7955C44.155 56.8127 44.1895 56.8385 44.2024 56.8644C44.2196 56.8946 44.2239 56.9247 44.2153 56.9592L43.3965 61.0448L43.4008 61.0534ZM52.3088 63.372C52.3002 63.4064 52.283 63.4366 52.2614 63.4668C52.2399 63.4926 52.2054 63.5185 52.1537 63.5357C52.102 63.553 52.033 63.5659 51.9468 63.5745C51.8606 63.5831 51.7529 63.5875 51.6236 63.5875C51.4943 63.5875 51.378 63.5875 51.2961 63.5745C51.2142 63.5659 51.1496 63.553 51.1021 63.5357C51.059 63.5185 51.0289 63.4926 51.0159 63.4668C51.003 63.4366 51.003 63.4064 51.0073 63.372L52.1063 57.8599H52.0977L49.0249 63.3677C48.9818 63.4539 48.8999 63.5142 48.7836 63.5444C48.6629 63.5745 48.4905 63.5875 48.2707 63.5875C48.0509 63.5875 47.8828 63.5659 47.7794 63.5271C47.6803 63.4883 47.6286 63.4366 47.6243 63.3806L46.8313 57.8556H46.8227L45.7194 63.372C45.7108 63.4064 45.6978 63.4366 45.6763 63.4668C45.6547 63.4926 45.616 63.5185 45.5642 63.5357C45.5125 63.553 45.4479 63.5659 45.3617 63.5745C45.2755 63.5831 45.1678 63.5875 45.0342 63.5875C44.9006 63.5875 44.7928 63.5875 44.7109 63.5745C44.6291 63.5659 44.5644 63.553 44.517 63.5357C44.4696 63.5185 44.4437 63.4926 44.4265 63.4668C44.4136 63.4366 44.4093 63.4064 44.4222 63.372L45.6246 57.3342C45.6418 57.248 45.6677 57.1661 45.7065 57.0971C45.7453 57.0282 45.7883 56.9678 45.8444 56.9204C45.8961 56.873 45.9607 56.8385 46.0297 56.8127C46.0986 56.7868 46.1762 56.7739 46.2538 56.7739H47.1114C47.2666 56.7739 47.3958 56.7868 47.5036 56.8127C47.6113 56.8385 47.7018 56.8859 47.7708 56.9463C47.8397 57.0109 47.8958 57.0928 47.9302 57.1919C47.9647 57.2954 47.9906 57.416 48.0035 57.5583L48.6586 61.5878H48.6844L51.0073 57.5583C51.0763 57.4204 51.1452 57.304 51.2142 57.2049C51.2831 57.1057 51.3607 57.0239 51.4469 56.9592C51.5331 56.8946 51.6279 56.8472 51.7314 56.817C51.8348 56.7868 51.9598 56.7739 52.102 56.7739H53.076C53.1622 56.7739 53.2397 56.7868 53.3001 56.8127C53.3604 56.8342 53.4121 56.873 53.4466 56.9204C53.4854 56.9678 53.5069 57.0239 53.5155 57.0928C53.5242 57.1618 53.5242 57.2393 53.5069 57.3255L52.3045 63.3677L52.3088 63.372ZM58.5234 57.2997C58.5234 57.2437 58.5147 57.1962 58.5018 57.1618C58.4846 57.1273 58.4587 57.0885 58.4242 57.0583C58.3898 57.0239 58.3251 56.9851 58.2346 56.9334C58.1441 56.8816 58.0321 56.8385 57.9028 56.7998C57.7735 56.7567 57.627 56.7265 57.4718 56.7006C57.3167 56.6748 57.1486 56.6619 56.9719 56.6619C56.6013 56.6619 56.2608 56.7136 55.9505 56.8213C55.6402 56.929 55.373 57.0756 55.1489 57.2652C54.9291 57.4548 54.7524 57.6832 54.6274 57.9461C54.5025 58.2133 54.4378 58.5021 54.4378 58.8124C54.4378 59.0408 54.468 59.239 54.5326 59.4071C54.5973 59.5795 54.6791 59.7303 54.7826 59.8596C54.886 59.9889 55.0024 60.1053 55.1317 60.2001C55.261 60.2992 55.3946 60.3897 55.5325 60.4716C55.6704 60.5535 55.804 60.631 55.9333 60.7043C56.0625 60.7776 56.1832 60.8551 56.2823 60.937C56.3858 61.0189 56.4677 61.1094 56.5323 61.2085C56.5926 61.3033 56.6271 61.4197 56.6271 61.549C56.6271 61.6912 56.6013 61.8205 56.5452 61.9412C56.4935 62.0618 56.4116 62.1653 56.3082 62.2558C56.2048 62.3463 56.0712 62.4152 55.916 62.4669C55.7609 62.5187 55.5799 62.5445 55.373 62.5445C55.1403 62.5445 54.9377 62.5144 54.7697 62.4626C54.6016 62.4066 54.4551 62.3463 54.3344 62.2816C54.2094 62.217 54.1103 62.1566 54.0284 62.1049C53.9465 62.0489 53.8776 62.023 53.8172 62.023C53.7827 62.023 53.7526 62.0403 53.7224 62.0748C53.6922 62.1092 53.6664 62.1566 53.6405 62.2127C53.619 62.2687 53.5974 62.329 53.5759 62.398C53.5586 62.4669 53.5457 62.5316 53.5328 62.5962C53.5199 62.6609 53.5112 62.7212 53.5026 62.7772C53.494 62.8333 53.494 62.8764 53.494 62.9022C53.494 63.0057 53.5199 63.0875 53.5673 63.1393C53.6147 63.191 53.6922 63.247 53.7914 63.303C53.8905 63.3633 54.0155 63.4194 54.162 63.4711C54.3085 63.5228 54.4809 63.5702 54.6705 63.6047C54.8645 63.6435 55.0713 63.6607 55.2954 63.6607C55.7135 63.6607 56.097 63.6004 56.4418 63.484C56.7866 63.3677 57.0796 63.2039 57.3253 62.997C57.5666 62.7902 57.7562 62.5445 57.8898 62.2644C58.0234 61.9843 58.0881 61.6783 58.0881 61.3507C58.0881 61.131 58.0579 60.937 57.9933 60.7646C57.9329 60.5966 57.8467 60.4457 57.7433 60.3164C57.6399 60.1871 57.5192 60.0708 57.3856 59.9717C57.252 59.8725 57.1141 59.782 56.9762 59.6958C56.8383 59.6096 56.7004 59.5321 56.5668 59.4545C56.4332 59.3769 56.3125 59.2994 56.2091 59.2132C56.1056 59.1313 56.0195 59.0451 55.9591 58.946C55.8945 58.8511 55.8643 58.7391 55.8643 58.6141C55.8643 58.5064 55.8859 58.3986 55.9246 58.2909C55.9634 58.1832 56.0281 58.0883 56.11 58.0022C56.1918 57.916 56.2996 57.847 56.4332 57.7953C56.5625 57.7436 56.7219 57.7177 56.9115 57.7177C57.1012 57.7177 57.2563 57.7393 57.3985 57.7824C57.5408 57.8255 57.6657 57.8729 57.7735 57.9246C57.8769 57.9763 57.9717 58.0237 58.045 58.0668C58.1182 58.1099 58.1786 58.1314 58.226 58.1314C58.2562 58.1314 58.2906 58.1142 58.3165 58.0797C58.3467 58.0452 58.3725 57.9978 58.3941 57.9461C58.4156 57.8901 58.4372 57.8341 58.4544 57.7694C58.4716 57.7048 58.4846 57.6401 58.4975 57.5798C58.5061 57.5152 58.5147 57.4591 58.5191 57.4074C58.5234 57.3557 58.5277 57.3126 58.5277 57.2867L58.5234 57.2997ZM64.0052 56.9765C64.0052 56.9765 64.0052 57.0325 63.9966 57.0885C63.9923 57.1402 63.9837 57.2006 63.9708 57.2652C63.9621 57.3298 63.9492 57.3988 63.9277 57.4678C63.9104 57.541 63.8889 57.6014 63.863 57.6617C63.8372 57.7177 63.807 57.7651 63.7682 57.8082C63.7294 57.847 63.6906 57.8642 63.6518 57.8642H61.2341L60.9023 59.5148H62.9537C63.0011 59.5148 63.0356 59.5321 63.0571 59.5666C63.0787 59.601 63.0873 59.6484 63.0873 59.7131C63.0873 59.7389 63.0873 59.7777 63.0787 59.8251C63.0743 59.8768 63.0657 59.9329 63.0528 59.9975C63.0442 60.0622 63.0312 60.1268 63.0097 60.1914C62.9925 60.2561 62.9709 60.3164 62.9451 60.3768C62.9192 60.4328 62.889 60.4759 62.8546 60.5104C62.8201 60.5448 62.7813 60.5621 62.7382 60.5621H60.6868L60.3032 62.4713H62.7554C62.7985 62.4713 62.8287 62.4885 62.8502 62.5273C62.8718 62.5618 62.8804 62.6178 62.8804 62.6867C62.8804 62.7083 62.8804 62.7514 62.8761 62.8031C62.8761 62.8548 62.8675 62.9151 62.8546 62.9798C62.8416 63.0444 62.8287 63.1091 62.8115 63.178C62.7942 63.2427 62.7727 63.3073 62.7468 63.3677C62.721 63.4237 62.6908 63.4711 62.6563 63.5056C62.6218 63.54 62.583 63.5573 62.5356 63.5573H59.131C59.075 63.5573 59.0233 63.5487 58.9802 63.5357C58.9328 63.5185 58.8983 63.4926 58.8681 63.4582C58.838 63.4194 58.8164 63.3763 58.8078 63.3246C58.7992 63.2685 58.7992 63.2039 58.8121 63.1263L59.9929 57.2221C60.0231 57.067 60.0878 56.9592 60.1826 56.8903C60.2774 56.8213 60.3851 56.7868 60.5015 56.7868H63.8673C63.9578 56.7868 64.0009 56.8515 64.0009 56.9851L64.0052 56.9765ZM67.8408 62.6221C67.8408 62.648 67.8408 62.6867 67.8322 62.7385C67.8279 62.7902 67.8193 62.8548 67.8063 62.9238C67.7934 62.9927 67.7762 63.066 67.7589 63.1393C67.7374 63.2125 67.7158 63.2815 67.69 63.3418C67.6641 63.4021 67.634 63.4539 67.5995 63.4926C67.565 63.5314 67.5262 63.5487 67.4788 63.5487H64.3715C64.3155 63.5487 64.2638 63.54 64.2164 63.5271C64.169 63.5099 64.1302 63.484 64.1 63.4495C64.0699 63.4108 64.0483 63.3677 64.0397 63.3159C64.0311 63.2599 64.0311 63.1953 64.044 63.1177L65.2766 56.9592C65.2766 56.9247 65.2981 56.8946 65.324 56.8644C65.3498 56.8385 65.3929 56.8127 65.4533 56.7955C65.5093 56.7782 65.5869 56.7653 65.6731 56.7567C65.7636 56.748 65.8756 56.7437 66.0135 56.7437C66.1514 56.7437 66.2549 56.7437 66.3411 56.7567C66.4272 56.7653 66.4962 56.7782 66.5436 56.7955C66.591 56.8127 66.6255 56.8385 66.6384 56.8644C66.6514 56.8946 66.66 56.9247 66.6514 56.9592L65.5653 62.4152H67.7072C67.7546 62.4152 67.7891 62.4368 67.8106 62.4713C67.8322 62.51 67.8408 62.5618 67.8408 62.6221ZM74.0338 58.1573C74.0338 58.3642 74.0036 58.5581 73.9476 58.7391C73.8916 58.9244 73.8054 59.0925 73.6976 59.2433C73.5899 59.3942 73.4563 59.5278 73.3011 59.6441C73.146 59.7605 72.9736 59.8553 72.784 59.9243C72.9348 59.9501 73.077 60.0018 73.202 60.0708C73.3313 60.1397 73.4391 60.2302 73.5296 60.338C73.6201 60.4457 73.6933 60.575 73.7407 60.7258C73.7924 60.8724 73.814 61.0405 73.814 61.2258C73.814 61.3938 73.7924 61.5662 73.745 61.7472C73.7019 61.9239 73.6287 62.1006 73.5296 62.273C73.4347 62.4454 73.3055 62.6092 73.1503 62.7643C72.9952 62.9195 72.8055 63.0574 72.5857 63.1737C72.3659 63.2901 72.1117 63.3849 71.8229 63.4539C71.5342 63.5228 71.198 63.5573 70.8145 63.5573H68.9355C68.7933 63.5573 68.6898 63.5228 68.6252 63.4539C68.5605 63.3849 68.5433 63.2772 68.5735 63.1263L69.7543 57.2221C69.7845 57.067 69.8448 56.9592 69.9396 56.8903C70.0344 56.8213 70.1465 56.7868 70.2715 56.7868H71.9048C72.2625 56.7868 72.5728 56.817 72.8357 56.8687C73.0986 56.9247 73.3141 57.0066 73.4951 57.123C73.6718 57.235 73.8054 57.3773 73.8959 57.5496C73.9864 57.722 74.0295 57.9246 74.0295 58.1659L74.0338 58.1573ZM72.6202 58.4159C72.6202 58.3168 72.603 58.2306 72.5685 58.1573C72.534 58.084 72.4823 58.0194 72.4133 57.9677C72.3401 57.916 72.2539 57.8729 72.1462 57.847C72.0427 57.8168 71.9048 57.8039 71.741 57.8039H70.9912L70.6421 59.5622H71.4135C71.6419 59.5622 71.8272 59.5278 71.9781 59.4545C72.1289 59.3812 72.2496 59.2907 72.3444 59.1787C72.4392 59.0666 72.5125 58.9417 72.5513 58.8037C72.5944 58.6658 72.6159 58.5365 72.6159 58.4116L72.6202 58.4159ZM72.3832 61.2947C72.3832 61.0706 72.3013 60.8939 72.1332 60.7646C71.9695 60.6353 71.7066 60.5707 71.3446 60.5707H70.4352L70.0474 62.5014H71.0213C71.267 62.5014 71.4782 62.4669 71.6462 62.398C71.8143 62.329 71.9565 62.2385 72.0643 62.1265C72.1763 62.0144 72.2539 61.8851 72.3056 61.7386C72.3573 61.5921 72.3832 61.4456 72.3832 61.2947ZM80.0285 63.0401L79.145 57.0325C79.1364 56.9678 79.1235 56.9161 79.1019 56.8773C79.0804 56.8385 79.0373 56.8127 78.9726 56.7911C78.908 56.7696 78.8132 56.761 78.6968 56.7524C78.5761 56.748 78.4167 56.7437 78.2141 56.7437C78.0331 56.7437 77.8909 56.7437 77.7789 56.7524C77.6668 56.7567 77.5806 56.7696 77.516 56.7911C77.4513 56.8127 77.3996 56.8385 77.3651 56.873C77.3307 56.9075 77.2962 56.9549 77.2617 57.0152L73.9821 63.0272C73.9174 63.1522 73.87 63.247 73.8485 63.3203C73.8269 63.3935 73.8312 63.4495 73.8571 63.4883C73.8873 63.5271 73.9476 63.553 74.0338 63.5616C74.1243 63.5702 74.2493 63.5788 74.4087 63.5788C74.5596 63.5788 74.6845 63.5788 74.7837 63.5702C74.8828 63.5616 74.9604 63.5487 75.0207 63.5357C75.081 63.5185 75.1241 63.4926 75.1543 63.4582C75.1845 63.428 75.2146 63.3849 75.2362 63.3332L75.9343 62.0058H78.4727L78.658 63.3677C78.658 63.4151 78.671 63.4539 78.6882 63.484C78.7054 63.5142 78.7399 63.5357 78.783 63.5487C78.8304 63.5616 78.8951 63.5745 78.9813 63.5788C79.0674 63.5831 79.1752 63.5875 79.3131 63.5875C79.4984 63.5875 79.6449 63.5875 79.7527 63.5745C79.8604 63.5659 79.9337 63.5444 79.9811 63.5056C80.0285 63.4668 80.05 63.4108 80.0544 63.3375C80.0544 63.2642 80.05 63.1651 80.0328 63.0401H80.0285ZM77.9685 58.0711L78.3564 60.9456H76.4558L77.9642 58.0711H77.9685ZM86.424 58.1573C86.424 58.3642 86.3939 58.5581 86.3378 58.7391C86.2818 58.9244 86.1956 59.0925 86.0879 59.2433C85.9801 59.3942 85.8465 59.5278 85.6914 59.6441C85.5362 59.7605 85.3638 59.8553 85.1742 59.9243C85.3251 59.9501 85.4673 60.0018 85.5923 60.0708C85.7215 60.1397 85.8293 60.2302 85.9198 60.338C86.0103 60.4457 86.0836 60.575 86.131 60.7258C86.1827 60.8724 86.2042 61.0405 86.2042 61.2258C86.2042 61.3938 86.1827 61.5662 86.1353 61.7472C86.0922 61.9239 86.0189 62.1006 85.9198 62.273C85.825 62.4454 85.6957 62.6092 85.5405 62.7643C85.3854 62.9195 85.1958 63.0574 84.976 63.1737C84.7562 63.2901 84.5019 63.3849 84.2132 63.4539C83.9244 63.5228 83.5883 63.5573 83.2047 63.5573H81.3257C81.1835 63.5573 81.0801 63.5228 81.0154 63.4539C80.9508 63.3849 80.9335 63.2772 80.9637 63.1263L82.1445 57.2221C82.1747 57.067 82.235 56.9592 82.3299 56.8903C82.4247 56.8213 82.5367 56.7868 82.666 56.7868H84.2994C84.6571 56.7868 84.9674 56.817 85.2302 56.8687C85.4931 56.9247 85.7086 57.0066 85.8896 57.123C86.0663 57.235 86.1999 57.3773 86.2904 57.5496C86.3809 57.722 86.424 57.9246 86.424 58.1659V58.1573ZM85.0105 58.4159C85.0105 58.3168 84.9932 58.2306 84.9587 58.1573C84.9243 58.084 84.8725 58.0194 84.8036 57.9677C84.7303 57.916 84.6441 57.8729 84.5364 57.847C84.433 57.8168 84.2951 57.8039 84.1313 57.8039H83.3814L83.0323 59.5622H83.8038C84.0322 59.5622 84.2175 59.5278 84.3683 59.4545C84.5192 59.3812 84.6398 59.2907 84.7346 59.1787C84.8295 59.0666 84.9027 58.9417 84.9415 58.8037C84.9846 58.6658 85.0061 58.5365 85.0061 58.4116L85.0105 58.4159ZM84.7734 61.2947C84.7734 61.0706 84.6915 60.8939 84.5235 60.7646C84.3597 60.6353 84.0968 60.5707 83.7348 60.5707H82.8255L82.4376 62.5014H83.4073C83.6529 62.5014 83.8641 62.4669 84.0322 62.398C84.2002 62.329 84.3425 62.2385 84.4502 62.1265C84.5622 62.0144 84.6398 61.8851 84.6915 61.7386C84.7433 61.5921 84.7691 61.4456 84.7691 61.2947H84.7734ZM92.1645 56.9765C92.1645 56.9765 92.1645 57.0325 92.1559 57.0885C92.1515 57.1402 92.1429 57.2006 92.13 57.2652C92.1214 57.3298 92.1084 57.3988 92.0869 57.4678C92.0697 57.541 92.0481 57.6014 92.0222 57.6617C91.9964 57.7177 91.9662 57.7651 91.9274 57.8082C91.8887 57.847 91.8499 57.8642 91.8111 57.8642H89.3934L89.0615 59.5148H91.1129C91.1603 59.5148 91.1948 59.5321 91.2163 59.5666C91.2379 59.601 91.2465 59.6484 91.2465 59.7131C91.2465 59.7389 91.2465 59.7777 91.2379 59.8251C91.2336 59.8768 91.225 59.9329 91.212 59.9975C91.2034 60.0622 91.1905 60.1268 91.1689 60.1914C91.1517 60.2561 91.1302 60.3164 91.1043 60.3768C91.0784 60.4328 91.0483 60.4759 91.0138 60.5104C90.9793 60.5448 90.9405 60.5621 90.8974 60.5621H88.846L88.4625 62.4713H90.9147C90.9578 62.4713 90.9879 62.4885 91.0095 62.5273C91.031 62.5618 91.0396 62.6178 91.0396 62.6867C91.0396 62.7083 91.0396 62.7514 91.0353 62.8031C91.0353 62.8548 91.0267 62.9151 91.0138 62.9798C91.0009 63.0444 90.9879 63.1091 90.9707 63.178C90.9535 63.2427 90.9319 63.3073 90.9061 63.3677C90.8802 63.4237 90.85 63.4711 90.8156 63.5056C90.7811 63.54 90.7423 63.5573 90.6949 63.5573H87.2903C87.2342 63.5573 87.1825 63.5487 87.1394 63.5357C87.092 63.5185 87.0575 63.4926 87.0274 63.4582C86.9972 63.4194 86.9757 63.3763 86.967 63.3246C86.9584 63.2685 86.9584 63.2039 86.9713 63.1263L88.1522 57.2221C88.1824 57.067 88.247 56.9592 88.3418 56.8903C88.4366 56.8213 88.5444 56.7868 88.6607 56.7868H92.0266C92.1171 56.7868 92.1602 56.8515 92.1602 56.9851L92.1645 56.9765ZM96.0001 62.6221C96.0001 62.648 96.0001 62.6867 95.9914 62.7385C95.9871 62.7902 95.9785 62.8548 95.9656 62.9238C95.9527 62.9927 95.9354 63.066 95.9182 63.1393C95.8966 63.2125 95.8751 63.2815 95.8492 63.3418C95.8234 63.4021 95.7932 63.4539 95.7587 63.4926C95.7242 63.5314 95.6855 63.5487 95.638 63.5487H92.5308C92.4748 63.5487 92.423 63.54 92.3756 63.5271C92.3282 63.5099 92.2895 63.484 92.2593 63.4495C92.2291 63.4108 92.2076 63.3677 92.1989 63.3159C92.1903 63.2599 92.1903 63.1953 92.2033 63.1177L93.4358 56.9592C93.4358 56.9247 93.4574 56.8946 93.4832 56.8644C93.5091 56.8385 93.5522 56.8127 93.6125 56.7955C93.6685 56.7782 93.7461 56.7653 93.8323 56.7567C93.9228 56.748 94.0349 56.7437 94.1728 56.7437C94.3107 56.7437 94.4141 56.7437 94.5003 56.7567C94.5865 56.7653 94.6554 56.7782 94.7029 56.7955C94.7503 56.8127 94.7847 56.8385 94.7977 56.8644C94.8106 56.8946 94.8192 56.9247 94.8106 56.9592L93.7246 62.4152H95.8665C95.9139 62.4152 95.9483 62.4368 95.9699 62.4713C95.9914 62.51 96.0001 62.5618 96.0001 62.6221Z" fill="#0077B3"/>
</g>
<rect x="1" y="1" width="110" height="110" rx="9" stroke="#CCCCCC" stroke-width="2"/>
<defs>
<clipPath id="clip0_642_1035">
<rect x="2" y="2" width="108" height="108" rx="8" fill="white"/>
</clipPath>
</defs>
</svg>
