<svg width="113" height="112" viewBox="0 0 113 112" fill="none" xmlns="http://www.w3.org/2000/svg">
<g clip-path="url(#clip0_528_602)">
<rect x="2.5" y="2" width="108" height="108" rx="8" fill="white"/>
<g clip-path="url(#clip1_528_602)">
<path d="M41.0809 46.1935C46.1297 46.0897 62.6118 40.1719 63.3706 36.5827L63.6211 35.3605C57.9502 39.3081 46.1681 43.6353 41.6056 43.6125H41.598L41.08 46.1652L41.0809 46.1935Z" fill="url(#paint0_linear_528_602)"/>
<path d="M65.5266 27.3286L65.6177 26.8579C58.5348 31.6254 47.8383 34.8215 43.6553 34.8291L43.1315 37.4102C48.3241 37.3874 64.6688 31.3825 65.4279 27.7993C65.4279 27.7993 65.4735 27.5639 65.5266 27.3286Z" fill="url(#paint1_linear_528_602)"/>
<path d="M64.684 31.0181C57.3581 36.0893 47.1095 39.1563 42.6684 39.2777L42.175 41.6539C47.1854 41.6387 63.7122 35.6262 64.4714 32.043L64.684 31.0181Z" fill="url(#paint2_linear_528_602)"/>
<path fill-rule="evenodd" clip-rule="evenodd" d="M90.6319 64.9221C89.0908 64.9221 87.8458 63.2671 87.8458 61.225C87.8458 59.1828 89.0908 57.5203 90.6319 57.5203C92.173 57.5203 93.418 59.1752 93.418 61.225C93.418 63.2747 92.173 64.9221 90.6319 64.9221ZM94.9667 56.8674C94.8984 56.7839 94.8224 56.6928 94.7465 56.6169C94.6251 56.4878 94.4808 56.3664 94.3366 56.2525C93.5471 55.6072 92.5829 55.22 91.5505 55.22C90.4345 55.22 89.4097 55.6679 88.5822 56.4119C88.5594 56.4271 88.5366 56.4423 88.5139 56.4575C88.4835 56.4726 88.4455 56.4954 88.3924 56.4802C88.2557 56.4423 88.1115 56.298 88.1115 56.0931V51.781C88.1115 51.5077 87.8913 51.2876 87.618 51.2876H85.5152C85.2419 51.2876 85.0217 51.5077 85.0217 51.781V51.9329C85.0217 51.9329 85.0217 51.9405 85.0217 51.9481V66.3569C85.0217 66.6302 85.2495 66.8579 85.5228 66.8579H87.4207C87.5421 66.8579 87.656 66.8124 87.7395 66.7364C87.7395 66.7364 87.7395 66.7364 87.7471 66.7364C87.7471 66.7364 87.7471 66.7365 87.7471 66.7289C87.7851 66.6909 87.823 66.6529 87.8458 66.6074C87.8762 66.5467 87.8989 66.4783 87.9065 66.41C87.9445 66.1063 88.1495 65.9317 88.2861 65.9773C88.3316 65.9925 88.3772 66.0153 88.4152 66.0456C88.4607 66.076 88.4987 66.1063 88.5442 66.1291C88.6733 66.2202 89.2426 66.615 89.6754 66.8048C89.8955 66.9035 90.6015 67.1388 91.4214 67.1388C92.2413 67.1388 92.8183 66.9566 92.9549 66.9186C93.0916 66.8807 93.2282 66.8351 93.3573 66.7744C93.995 66.5011 94.5112 66.1215 94.906 65.6433C95.2931 65.1726 95.612 64.6108 95.8777 63.9731C96.2648 63.1305 96.485 62.1663 96.485 61.1339C96.485 59.4561 95.8929 57.9378 94.9515 56.8598L94.9667 56.8674Z" fill="#2B5E87"/>
<path fill-rule="evenodd" clip-rule="evenodd" d="M18.4816 62.8192C18.4816 63.0621 18.5271 63.2975 18.5727 63.5176C18.9447 64.8461 20.053 65.7647 21.4499 65.7647C23.4541 65.7647 24.6535 64.1325 24.6535 61.7108C24.6535 59.5928 23.5603 57.786 21.5106 57.786C20.2049 57.786 18.9826 58.6818 18.5879 60.1394C18.5423 60.3595 18.4816 60.6176 18.4816 60.9289V62.8268V62.8192ZM16.5837 51.5685H18.4816V58.1959H18.5271C19.2028 57.0192 20.425 56.2601 22.1255 56.2601C24.7446 56.2601 26.597 58.4389 26.5742 61.6425C26.5742 65.4155 24.198 67.2906 21.8447 67.2906C20.3187 67.2906 19.0965 66.6985 18.3146 65.3092H18.2462L18.1627 67.0553H16.5002C16.5457 66.3341 16.5837 65.2637 16.5837 64.3299V51.5685Z" fill="#2B5E87"/>
<path fill-rule="evenodd" clip-rule="evenodd" d="M34.2948 61.6653C32.1996 61.6197 29.8234 61.9917 29.8234 64.0414C29.8234 65.2865 30.6509 65.871 31.6302 65.871C33.0043 65.871 33.8773 64.998 34.181 64.1022C34.2493 63.9048 34.2948 63.6846 34.2948 63.4948V61.6653ZM36.1472 64.5197C36.1472 65.4383 36.1927 66.3265 36.3218 67.0477H34.5757L34.4239 65.7192H34.3556C33.7634 66.5467 32.6323 67.2906 31.1291 67.2906C28.9883 67.2906 27.9027 65.7875 27.9027 64.2616C27.9027 61.7108 30.165 60.314 34.2493 60.3368V60.1166C34.2493 59.2436 34.0064 57.6721 31.8503 57.6721C30.871 57.6721 29.8462 57.9758 29.1022 58.4616L28.6619 57.1938C29.5349 56.6245 30.8027 56.2601 32.1312 56.2601C35.3577 56.2601 36.1396 58.4616 36.1396 60.5797V64.5273L36.1472 64.5197Z" fill="#2B5E87"/>
<path fill-rule="evenodd" clip-rule="evenodd" d="M39.0927 59.3498C39.0927 58.2643 39.0699 57.3684 39.0092 56.4954H40.7097L40.8236 58.2415H40.8691C41.393 57.2394 42.6152 56.2601 44.3613 56.2601C45.8188 56.2601 48.0887 57.1331 48.0887 60.7467V67.0477H46.1681V60.9669C46.1681 59.2663 45.538 57.8467 43.7236 57.8467C42.4558 57.8467 41.4765 58.7425 41.15 59.8129C41.0665 60.0483 41.021 60.3823 41.021 60.7087V67.0553H39.1003V59.3574L39.0927 59.3498Z" fill="#2B5E87"/>
<path fill-rule="evenodd" clip-rule="evenodd" d="M52.7803 61.3388H52.8259C53.0916 60.9669 53.456 60.5114 53.7672 60.1394L56.8646 56.4954H59.1724L55.0957 60.8378L59.7418 67.0477H57.4112L53.7672 61.9917L52.7879 63.0849V67.0553H50.89V51.5761H52.7879V61.3388H52.7803Z" fill="#2B5E87"/>
<path fill-rule="evenodd" clip-rule="evenodd" d="M71.2051 64.9221C69.664 64.9221 68.419 63.2671 68.419 61.225C68.419 59.1828 69.664 57.5203 71.2051 57.5203C72.7462 57.5203 73.9912 59.1752 73.9912 61.225C73.9912 63.2747 72.7462 64.9221 71.2051 64.9221ZM75.5398 56.8674C75.4715 56.7839 75.3956 56.6928 75.3197 56.6169C75.1982 56.4878 75.054 56.3664 74.9098 56.2525C74.1126 55.6072 73.1561 55.22 72.1236 55.22C71.0077 55.22 69.9828 55.6679 69.1553 56.4119C69.1326 56.4271 69.1098 56.4423 69.087 56.4575C69.0566 56.4726 69.0187 56.4954 68.9655 56.4802C68.8289 56.4423 68.6847 56.298 68.6847 56.0931V51.781C68.6847 51.5077 68.4645 51.2876 68.1912 51.2876H66.0883C65.815 51.2876 65.5949 51.5077 65.5949 51.781V51.9329C65.5949 51.9329 65.5949 51.9405 65.5949 51.9481V66.3569C65.5949 66.6302 65.8226 66.8579 66.0959 66.8579H67.9938C68.1153 66.8579 68.2216 66.8124 68.3127 66.7364C68.3127 66.7364 68.3127 66.7364 68.3203 66.7364C68.3203 66.7364 68.3203 66.7365 68.3203 66.7289C68.3582 66.6909 68.3962 66.6529 68.419 66.6074C68.4493 66.5467 68.4721 66.4783 68.4797 66.41C68.5176 66.1063 68.7302 65.9317 68.8593 65.9773C68.9048 65.9925 68.9504 66.0153 68.9883 66.0456C69.0339 66.076 69.0718 66.1063 69.1174 66.1291C69.2464 66.2202 69.8158 66.615 70.2485 66.8048C70.4687 66.9035 71.1747 67.1388 71.9946 67.1388C72.8145 67.1388 73.3914 66.9566 73.5281 66.9186C73.6647 66.8807 73.8014 66.8351 73.9304 66.7744C74.5681 66.5011 75.0844 66.1215 75.4791 65.6433C75.8663 65.1726 76.1851 64.6108 76.4508 63.9731C76.838 63.1305 77.0582 62.1663 77.0582 61.1339C77.0582 59.4561 76.466 57.9378 75.5247 56.8598L75.5398 56.8674Z" fill="#2B5E87"/>
<path fill-rule="evenodd" clip-rule="evenodd" d="M82.5393 56.465C82.5393 56.465 82.5393 56.4119 82.5317 56.3815V56.0171C82.5317 55.7438 82.3115 55.5161 82.0306 55.5161H79.9126C79.6317 55.5161 79.4116 55.7438 79.4116 56.0171V67.4197C79.404 67.7082 79.0472 68.1105 78.6372 68.2092C78.4474 68.2699 78.2576 68.2927 78.0678 68.2851C77.8781 68.2851 77.749 68.3535 77.6731 68.5129C77.6427 68.5812 77.6199 68.6799 77.6048 68.8014C77.5896 68.9152 77.6048 70.1375 77.6199 70.2438C77.6199 70.3424 77.6427 70.4335 77.6731 70.5019C77.7566 70.6309 77.916 70.722 78.1286 70.76C78.2045 70.7903 79.6089 70.7903 80.5503 70.5626C80.9223 70.4715 81.2184 70.2969 81.4689 70.1071C81.7118 69.9173 81.932 69.6744 82.1217 69.3859C82.3419 69.0367 82.4558 68.5964 82.4786 68.065C82.4786 67.9056 82.5165 67.488 82.5165 67.4349V57.08C82.5165 57.0192 82.5165 56.9661 82.5241 56.9054C82.5241 56.7611 82.5241 56.6169 82.5241 56.465" fill="#2B5E87"/>
<path fill-rule="evenodd" clip-rule="evenodd" d="M70.1195 81.5248H71.5467V76.7953C71.5467 76.5372 71.5619 76.3246 71.6454 76.112C71.9187 75.3529 72.6323 74.7076 73.5585 74.7076C74.9022 74.7076 75.3728 75.7628 75.3728 77.023V81.5248H76.8001V76.8636C76.8001 74.1762 75.1147 73.5309 74.0671 73.5309C73.5357 73.5309 73.0346 73.6751 72.6095 73.9181C72.1692 74.161 71.82 74.533 71.5922 74.9353H71.5619V70.0312H70.1347V81.5248H70.1195ZM66.4451 78.883C66.4451 79.012 66.43 79.1714 66.3768 79.3385C66.1491 79.9989 65.4886 80.6518 64.4486 80.6518C63.735 80.6518 63.12 80.2343 63.12 79.2929C63.12 77.7746 64.8889 77.4937 66.4376 77.5317V78.8906L66.4451 78.883ZM67.8192 76.7118C67.8192 75.1555 67.2347 73.5233 64.8433 73.5233C63.8564 73.5233 62.8999 73.7966 62.2546 74.2066L62.581 75.1631C63.1276 74.7911 63.8944 74.5785 64.6384 74.5785C66.2402 74.5634 66.4224 75.7476 66.4224 76.3777V76.5372C63.3933 76.522 61.708 77.5544 61.708 79.4523C61.708 80.5835 62.5203 81.6994 64.1069 81.6994C65.2229 81.6994 66.0656 81.1528 66.4983 80.5379H66.5514L66.6653 81.5248H67.9407C67.8572 80.9934 67.8268 80.3254 67.8268 79.6497V76.7194L67.8192 76.7118ZM59.2407 70.6082C58.7093 70.6082 58.3525 71.0105 58.3525 71.4964C58.3525 71.9822 58.6941 72.3694 59.2104 72.3694C59.7797 72.3694 60.1214 71.9822 60.1214 71.4964C60.1214 71.0105 59.7646 70.6082 59.2483 70.6082H59.2407ZM59.9544 81.5172V73.6827H58.5271V81.5172H59.9544ZM53.1751 81.5172H54.6023V77.3419C54.6023 77.1141 54.6175 76.8712 54.6478 76.6814C54.8452 75.611 55.5512 74.867 56.5609 74.867C56.7583 74.867 56.9025 74.867 57.0468 74.8974V73.5537C56.9177 73.5385 56.8038 73.5233 56.6596 73.5233C55.7031 73.5233 54.83 74.1838 54.4732 75.239H54.4277L54.367 73.6827H53.1219C53.1675 74.4115 53.1903 75.2086 53.1903 76.1272V81.5172H53.1751ZM49.5008 78.8754C49.5008 79.0044 49.4856 79.1639 49.44 79.3309C49.2123 79.9913 48.5518 80.6442 47.5118 80.6442C46.7982 80.6442 46.1832 80.2267 46.1832 79.2853C46.1832 77.767 47.9445 77.4861 49.5008 77.5241V78.883V78.8754ZM50.8748 76.7042C50.8748 75.1479 50.2903 73.5157 47.8989 73.5157C46.912 73.5157 45.9555 73.789 45.3102 74.199L45.6366 75.1555C46.1908 74.7835 46.95 74.571 47.694 74.571C49.2958 74.5558 49.478 75.7401 49.478 76.3702V76.5296C46.4489 76.5144 44.7712 77.5469 44.7712 79.4447C44.7712 80.5759 45.5835 81.6919 47.1701 81.6919C48.2861 81.6919 49.1288 81.1453 49.5691 80.5303H49.6146L49.7285 81.5172H51.0039C50.9204 80.9858 50.89 80.3178 50.89 79.6421V76.7118L50.8748 76.7042ZM36.7773 73.6751L39.6621 80.8947C39.7456 81.0693 39.7759 81.1832 39.7759 81.2667C39.7759 81.3502 39.7304 81.4641 39.6621 81.6083C39.3205 82.3371 38.8498 82.8837 38.4626 83.195C38.0451 83.5518 37.5744 83.7795 37.2176 83.8934L37.5744 85.0777C37.9312 85.017 38.6068 84.7664 39.3205 84.1743C40.2922 83.3164 40.9906 81.9576 42.0079 79.2701L44.1487 73.6827H42.6456L41.0893 78.2832C40.8919 78.8526 40.7325 79.4523 40.5882 79.9154H40.5579C40.4288 79.4447 40.2314 78.8298 40.0417 78.3136L38.3411 73.6827H36.7849L36.7773 73.6751ZM30.871 81.1377C31.4176 81.4641 32.2147 81.6843 33.0726 81.6843C34.9022 81.6843 35.9878 80.7125 35.9878 79.3233C35.9878 78.1542 35.2741 77.4785 33.9304 76.9775C32.9132 76.5751 32.4577 76.2791 32.4577 75.6338C32.4577 75.0492 32.9132 74.5634 33.7558 74.5634C34.4846 74.5634 35.054 74.8367 35.3577 75.034L35.6993 74.0016C35.2817 73.7283 34.5833 73.5157 33.7862 73.5157C32.116 73.5157 31.0836 74.5482 31.0836 75.816C31.0836 76.7573 31.7517 77.5165 33.1713 78.0327C34.2037 78.4199 34.6137 78.7767 34.6137 79.4599C34.6137 80.1432 34.1278 80.6214 33.1105 80.6214C32.3969 80.6214 31.653 80.333 31.2202 80.0748L30.8786 81.1453L30.871 81.1377Z" fill="#B53838"/>
<path fill-rule="evenodd" clip-rule="evenodd" d="M80.9906 54.3014C81.8484 54.3014 82.5469 53.603 82.5469 52.7452C82.5469 51.8873 81.8484 51.1889 80.9906 51.1889C80.1328 51.1889 79.4343 51.8873 79.4343 52.7452C79.4343 53.603 80.1328 54.3014 80.9906 54.3014Z" fill="#2B5E87"/>
</g>
</g>
<rect x="1.5" y="1" width="110" height="110" rx="9" stroke="#CCCCCC" stroke-width="2"/>
<defs>
<linearGradient id="paint0_linear_528_602" x1="42.8934" y1="33.9597" x2="65.6136" y2="33.1663" gradientUnits="userSpaceOnUse">
<stop stop-color="#3CAAE0"/>
<stop offset="0.12" stop-color="#3780AC"/>
<stop offset="0.42" stop-color="#306086"/>
<stop offset="0.56" stop-color="#898870"/>
<stop offset="1" stop-color="#ECC931"/>
</linearGradient>
<linearGradient id="paint1_linear_528_602" x1="42.8934" y1="33.9597" x2="65.6136" y2="33.1663" gradientUnits="userSpaceOnUse">
<stop stop-color="#3CAAE0"/>
<stop offset="0.12" stop-color="#3780AC"/>
<stop offset="0.42" stop-color="#306086"/>
<stop offset="0.56" stop-color="#898870"/>
<stop offset="1" stop-color="#ECC931"/>
</linearGradient>
<linearGradient id="paint2_linear_528_602" x1="42.8934" y1="33.9597" x2="65.6136" y2="33.1663" gradientUnits="userSpaceOnUse">
<stop stop-color="#3CAAE0"/>
<stop offset="0.12" stop-color="#3780AC"/>
<stop offset="0.42" stop-color="#306086"/>
<stop offset="0.56" stop-color="#898870"/>
<stop offset="1" stop-color="#ECC931"/>
</linearGradient>
<clipPath id="clip0_528_602">
<rect x="2.5" y="2" width="108" height="108" rx="8" fill="white"/>
</clipPath>
<clipPath id="clip1_528_602">
<rect width="80" height="59.0852" fill="white" transform="translate(16.5001 26)"/>
</clipPath>
</defs>
</svg>
