<svg width="112" height="112" viewBox="0 0 112 112" fill="none" xmlns="http://www.w3.org/2000/svg">
<g clip-path="url(#clip0_528_45)">
<rect x="2" y="2" width="108" height="108" rx="8" fill="white"/>
<g clip-path="url(#clip1_528_45)">
<path d="M91.4577 55.4752L91.6313 55.2811L91.788 55.1075L91.7845 55.1041L93.6676 52.7613C93.6676 52.7613 93.6676 52.7613 93.671 52.7579C93.8583 52.5025 94.0387 52.254 94.1818 52.0565C94.2499 51.9679 94.3384 51.893 94.4474 51.8385C94.5189 51.8045 94.5904 51.7772 94.6619 51.767C94.6687 51.767 94.6721 51.767 94.6755 51.767H96.47L96.3236 51.9543L96.1022 52.2437C96.1022 52.2437 96.1022 52.2506 96.0954 52.2506C96.0954 52.2506 96.0954 52.2506 96.092 52.254L93.7493 55.3356C93.7153 55.3833 93.6982 55.4344 93.6982 55.4922C93.6982 55.5467 93.7119 55.591 93.7459 55.6387C93.7459 55.6387 96.0273 58.7237 96.0375 58.7441L96.3474 59.18L94.6687 59.1698C94.5597 59.1698 94.4542 59.1391 94.3418 59.0812C94.2635 59.037 94.192 58.9859 94.1341 58.9212C94.1341 58.9212 94.0966 58.8735 94.0796 58.8565L93.688 58.3083L92.6188 56.827H92.6154L92.5609 56.7589L92.486 56.6704L91.9276 56.0234L91.6245 55.6727L91.5734 55.6182L91.4543 55.4786V55.4718L91.4577 55.4752Z" fill="#006EB4"/>
<path d="M16.63 57.3719C16.63 57.3719 21.244 63.7088 28.2722 61.0767C28.2722 61.0767 29.2733 60.1947 29.9032 58.9348C29.9032 58.9348 23.1338 63.433 16.4904 55.0053C16.4904 55.0053 16.3781 56.0234 16.6266 57.3685" fill="#003C5D"/>
<path d="M16.6573 54.0859C16.6573 54.0859 16.6641 54.0927 16.6641 54.0961C16.7798 54.2494 18.3973 56.3299 21.1827 57.5864C23.522 58.6386 26.6785 59.1085 30.4616 57.3719C30.465 57.3514 30.4718 57.3344 30.4753 57.314C30.5059 57.1471 30.6012 56.6159 30.6353 56.0439C30.6353 56.0268 30.6353 56.0064 30.6353 55.9894L30.5978 55.0087C30.5706 55.0359 30.54 55.0598 30.5127 55.087C30.1245 55.4343 28.4049 56.8305 25.7932 56.8305C23.5594 56.8305 20.6753 55.8021 17.4098 52.2233C17.4098 52.2233 17.4098 52.2301 17.4064 52.2301L16.6573 54.0859Z" fill="#003C5D"/>
<path d="M19.5584 49.9214C21.925 52.6013 24.0873 53.4389 25.8 53.5105C27.9419 53.599 29.3788 52.4821 29.641 52.2642C29.6546 52.254 29.6683 52.2403 29.6853 52.2267C29.6989 52.2471 29.7125 52.2642 29.7261 52.288C30.0156 52.7171 30.2403 53.3913 30.3527 53.7829C30.3629 53.8169 30.3731 53.851 30.3833 53.885C30.3935 53.9157 30.4004 53.9463 30.4072 53.9701C30.414 53.9974 30.4208 54.028 30.431 54.0587C30.431 54.0689 30.4344 54.0791 30.4378 54.0893C26.3176 55.7306 23.2632 55.2403 21.1963 54.2766C18.9217 53.2176 17.8354 51.5866 17.8354 51.5866L19.5618 49.9283L19.5584 49.9214Z" fill="#003C5D"/>
<mask id="mask0_528_45" style="mask-type:luminance" maskUnits="userSpaceOnUse" x="16" y="52" width="15" height="6">
<path d="M23.5492 54.5763C21.1929 54.5763 19.0409 53.6875 17.4132 52.2233C17.0795 52.7954 16.8241 53.4219 16.6607 54.0859C18.3803 55.9417 20.832 57.1029 23.5526 57.1029C26.2733 57.1029 28.725 55.9417 30.4412 54.0859C30.2778 53.4253 30.0224 52.7988 29.6887 52.2233C28.061 53.6875 25.909 54.5763 23.5526 54.5763" fill="white"/>
</mask>
<g mask="url(#mask0_528_45)">
<path d="M30.4344 52.2233H16.6573V57.1029H30.4344V52.2233Z" fill="url(#paint0_radial_528_45)"/>
</g>
<mask id="mask1_528_45" style="mask-type:luminance" maskUnits="userSpaceOnUse" x="16" y="55" width="15" height="6">
<path d="M23.5493 57.8622C20.8626 57.8622 18.4177 56.8134 16.5994 55.1041V57.2152C16.6096 57.2663 16.6198 57.3174 16.6334 57.3685C18.3496 59.2413 20.8149 60.4195 23.5527 60.4195C26.2904 60.4195 28.7523 59.2413 30.4685 57.3685C30.5842 56.8611 30.6455 56.3299 30.6455 55.7851C30.6455 55.5229 30.6319 55.2607 30.6013 55.0053C28.7761 56.7726 26.287 57.8622 23.5493 57.8622Z" fill="white"/>
</mask>
<g mask="url(#mask1_528_45)">
<path d="M30.6455 55.0087H16.5994V60.4195H30.6455V55.0087Z" fill="url(#paint1_radial_528_45)"/>
</g>
<mask id="mask2_528_45" style="mask-type:luminance" maskUnits="userSpaceOnUse" x="17" y="58" width="13" height="5">
<path d="M23.5492 61.1822C21.1452 61.1822 18.9319 60.3411 17.1919 58.9382C18.3258 61.2231 20.6583 62.8133 23.3688 62.8814C23.4301 62.8814 23.4913 62.8814 23.5526 62.8814C23.6139 62.8814 23.6752 62.8814 23.7365 62.8814C26.447 62.8133 28.7761 61.2231 29.91 58.9382C28.17 60.3411 25.9567 61.1822 23.5526 61.1822" fill="white"/>
</mask>
<g mask="url(#mask2_528_45)">
<path d="M29.91 58.9348H17.1919V62.8814H29.91V58.9348Z" fill="url(#paint2_radial_528_45)"/>
</g>
<mask id="mask3_528_45" style="mask-type:luminance" maskUnits="userSpaceOnUse" x="17" y="48" width="14" height="6">
<path d="M29.1404 48.2087C28.725 48.8454 28.2006 49.4073 27.5979 49.8704C27.5775 49.8874 27.5571 49.9044 27.5332 49.918C27.5332 49.918 27.5264 49.9214 27.523 49.9249C26.4095 50.7523 25.0373 51.2426 23.5458 51.2426C22.0544 51.2426 20.6719 50.7489 19.5584 49.918C18.8944 50.3709 18.3087 50.9328 17.832 51.5797C19.3371 52.9656 21.3427 53.8135 23.5458 53.8135C25.7489 53.8135 27.7307 52.9758 29.229 51.6036C29.2392 51.5934 29.2494 51.5866 29.2596 51.5763C29.2767 51.5627 29.2937 51.5457 29.3073 51.5287C29.9509 50.926 30.5025 50.2211 30.9315 49.4413L30.7238 48.2019H29.137L29.1404 48.2087Z" fill="white"/>
</mask>
<g mask="url(#mask3_528_45)">
<path d="M30.9384 48.2087H17.8354V53.8169H30.9384V48.2087Z" fill="url(#paint3_radial_528_45)"/>
</g>
<mask id="mask4_528_45" style="mask-type:luminance" maskUnits="userSpaceOnUse" x="20" y="48" width="7" height="3">
<path d="M20.2769 49.4924C21.2133 50.1189 22.3404 50.4833 23.5492 50.4833C24.7581 50.4833 25.8852 50.1189 26.8216 49.4924C25.8409 48.9816 24.7308 48.6922 23.5492 48.6922C22.3677 48.6922 21.2576 48.9816 20.2769 49.4924Z" fill="white"/>
</mask>
<g mask="url(#mask4_528_45)">
<path d="M26.8216 48.6922H20.2769V50.4799H26.8216V48.6922Z" fill="url(#paint4_radial_528_45)"/>
</g>
<mask id="mask5_528_45" style="mask-type:luminance" maskUnits="userSpaceOnUse" x="17" y="48" width="14" height="6">
<path d="M29.1404 48.2087C28.725 48.8454 28.2006 49.4073 27.5979 49.8704C27.5775 49.8874 27.5571 49.9044 27.5332 49.918C27.5332 49.918 27.5264 49.9214 27.523 49.9249C26.4095 50.7523 25.0373 51.2426 23.5458 51.2426C22.0544 51.2426 20.6719 50.7489 19.5584 49.918C18.8944 50.3709 18.3087 50.9328 17.832 51.5797C19.3371 52.9656 21.3427 53.8135 23.5458 53.8135C25.7489 53.8135 27.7307 52.9758 29.229 51.6036C29.2392 51.5934 29.2494 51.5866 29.2596 51.5763C29.2767 51.5627 29.2937 51.5457 29.3073 51.5287C29.9509 50.926 30.5025 50.2211 30.9315 49.4413L30.7238 48.2019H29.137L29.1404 48.2087Z" fill="white"/>
</mask>
<g mask="url(#mask5_528_45)">
<path d="M30.9384 48.2087H17.8354V53.8169H30.9384V48.2087Z" fill="url(#paint5_radial_528_45)"/>
</g>
<path d="M44.5248 56.5717C44.5248 56.5717 44.5146 56.5785 44.484 56.5785H43.0436C43.0061 56.5785 42.9959 56.5717 42.9925 56.5683C42.9891 56.5615 42.9925 56.541 42.9993 56.5172L43.7621 54.927L44.5112 56.5138C44.5316 56.5546 44.5214 56.5683 44.5214 56.5717M47.46 58.7033L44.0856 51.9645C44.0209 51.8351 43.9051 51.7636 43.7587 51.7636C43.6122 51.7636 43.4965 51.8351 43.4318 51.9611L40.2446 58.3219L39.8019 59.1766H41.2389C41.3512 59.1766 41.4602 59.1425 41.5658 59.0744C41.6679 59.0063 41.7496 58.9212 41.8007 58.8191L42.0868 58.2368C42.1072 58.1891 42.1446 58.1482 42.2025 58.1108C42.2638 58.0733 42.3217 58.0529 42.3762 58.0529H45.1377C45.1956 58.0529 45.2501 58.0733 45.3046 58.1074C45.3659 58.1448 45.4067 58.1891 45.434 58.2334L45.7234 58.8088C45.7677 58.9178 45.846 59.0063 45.9584 59.0744C46.0673 59.1391 46.1763 59.1732 46.2887 59.1732H47.7052L47.4737 58.7271C47.4737 58.7271 47.4668 58.7067 47.46 58.6965" fill="#006EB4"/>
<path d="M53.1364 51.8964C53.0512 51.9815 53.0036 52.0939 53.0036 52.2165V55.8838L48.7506 51.8624C48.6586 51.7806 48.5463 51.75 48.4135 51.7738C48.2636 51.8045 48.1751 51.9134 48.1751 52.0701V59.18H49.3839C49.5065 59.18 49.6155 59.1357 49.704 59.0472C49.7891 58.9621 49.8334 58.8497 49.8334 58.7305V55.1211L54.083 59.0778C54.1579 59.1391 54.243 59.1698 54.3384 59.1698C54.3656 59.1698 54.3963 59.1698 54.4235 59.1596C54.5733 59.1289 54.6653 59.0199 54.6653 58.8633V51.767H53.4565C53.3305 51.767 53.2249 51.8113 53.1364 51.8964Z" fill="#006EB4"/>
<path d="M61.6254 58.6045L58.9251 55.7102C58.8945 55.6761 58.8774 55.6387 58.874 55.591C58.874 55.5365 58.8876 55.4956 58.9149 55.4582L61.4721 52.2506C61.4858 52.2301 61.4994 52.2131 61.513 52.1927L61.8365 51.7772H60.1646C60.059 51.7772 59.9466 51.8045 59.8343 51.8624C59.7253 51.9169 59.6368 51.985 59.5721 52.0701L57.1919 55.1109V52.2131C57.1919 52.0905 57.1476 51.9816 57.0625 51.893C56.974 51.8079 56.8684 51.7636 56.7458 51.7636H55.9797C55.8571 51.7636 55.7481 51.8113 55.663 51.8964C55.5847 51.9816 55.5404 52.0905 55.5404 52.2097V58.7271C55.5404 58.8497 55.5813 58.9553 55.663 59.0438C55.7447 59.1323 55.8571 59.1766 55.9797 59.1766H56.7458C56.8684 59.1766 56.9774 59.1323 57.0625 59.0472C57.1476 58.9621 57.1919 58.8531 57.1919 58.7271V56.1699L59.7117 58.8974C59.7798 58.9791 59.8717 59.0506 59.9943 59.1017C60.1101 59.1528 60.2224 59.1766 60.3246 59.1766H62.211L61.6322 58.6011L61.6254 58.6045Z" fill="#006EB4"/>
<path d="M74.1664 51.7704L72.9576 51.7772C72.835 51.7772 72.7226 51.8249 72.6375 51.91C72.5524 51.9986 72.5081 52.1041 72.5081 52.2301L72.5285 55.8974L68.2517 51.8998C68.1598 51.8181 68.0372 51.7875 67.9146 51.8147C67.7648 51.8453 67.6728 51.9577 67.6762 52.1109L67.7171 59.2209L68.9259 59.214C69.0485 59.214 69.1575 59.1664 69.2426 59.0812C69.3277 58.9961 69.372 58.8837 69.372 58.7612L69.3516 55.1517L73.625 59.0846C73.7237 59.163 73.8361 59.1902 73.9655 59.1664C74.1153 59.1357 74.2073 59.0234 74.2039 58.8701L74.163 51.7704H74.1664Z" fill="#006EB4"/>
<path d="M80.1969 55.4752C80.1969 55.9519 80.139 56.3333 80.013 56.6125C79.8836 56.902 79.7202 57.1233 79.5329 57.2731C79.3388 57.4332 79.1243 57.5421 78.8961 57.5966C78.6408 57.6545 78.3922 57.6851 78.1572 57.6851L76.9961 57.692C76.9518 57.692 76.9246 57.6783 76.8973 57.6511C76.8667 57.6204 76.8531 57.5864 76.8531 57.5387L76.8292 53.4492C76.8292 53.4049 76.8429 53.3674 76.8701 53.3368C76.8973 53.3061 76.928 53.2959 76.9722 53.2959L78.1504 53.2891C78.3718 53.2891 78.6101 53.3164 78.8587 53.3674C79.0936 53.4185 79.315 53.5241 79.5125 53.6773C79.6998 53.8237 79.8632 54.0417 79.9994 54.3277C80.1288 54.6171 80.1935 55.0053 80.1969 55.4752ZM81.5624 53.885C81.3751 53.4253 81.0959 53.0235 80.7281 52.6864C80.0505 52.0769 79.1788 51.767 78.1436 51.767L75.1573 51.7841L75.2016 59.2072L78.1538 59.1902C78.668 59.1868 79.1515 59.1051 79.5942 58.9484C80.0266 58.7952 80.4182 58.5603 80.7622 58.2504C81.1333 57.9099 81.4091 57.4979 81.5828 57.0314C81.6747 56.793 81.7462 56.5444 81.7905 56.2856C81.8348 56.0234 81.8586 55.7442 81.8552 55.4548C81.8552 54.8997 81.753 54.372 81.5624 53.8816" fill="#006EB4"/>
<path d="M66.4905 51.7682L64.8323 51.7777L64.875 59.194L66.5333 59.1844L66.4905 51.7682Z" fill="#006EB4"/>
<path d="M88.0968 58.1108C88.0968 57.9882 88.0491 57.8758 87.964 57.7907C87.8788 57.7056 87.7665 57.6613 87.6439 57.6613L84.3614 57.6817C84.3171 57.6817 84.283 57.6681 84.2524 57.6375C84.2217 57.6068 84.2081 57.5728 84.2081 57.5285L84.2013 56.4559C84.2013 56.4116 84.2149 56.3776 84.2456 56.3469C84.2762 56.3163 84.3103 56.3027 84.3579 56.3027L87.2012 56.2856C87.3238 56.2856 87.4362 56.238 87.5213 56.1528C87.6064 56.0677 87.6507 55.9553 87.6507 55.8327V55.1994C87.6473 55.0768 87.5996 54.9678 87.5145 54.8827C87.4294 54.7976 87.3204 54.7533 87.1944 54.7533L84.3511 54.7703C84.3069 54.7703 84.2728 54.7567 84.2422 54.7261C84.2115 54.6954 84.1979 54.6614 84.1979 54.6171L84.1911 53.4389C84.1911 53.3947 84.2047 53.3606 84.2354 53.33C84.266 53.2993 84.3001 53.2857 84.3443 53.2857L87.6269 53.2653C87.7495 53.2653 87.8618 53.2176 87.9435 53.1325C88.0287 53.0473 88.0729 52.935 88.0729 52.8124L88.0661 51.7568L82.5226 51.7909L82.5669 59.214L88.1104 59.18L88.1036 58.1074L88.0968 58.1108Z" fill="#006EB4"/>
<path d="M56.2997 51.7636H55.5336V52.4515L56.2997 51.7636Z" fill="#006EB4"/>
<path d="M56.2997 59.1766H55.5336V58.4922L56.2997 59.1766Z" fill="#006EB4"/>
<path d="M38.2628 57.1505C38.2287 57.2425 38.1776 57.331 38.1027 57.4195C38.0312 57.5047 37.9597 57.566 37.8814 57.6034L37.8678 57.6102C37.7929 57.6545 37.7111 57.6783 37.6124 57.6783H35.9881C35.9439 57.6783 35.9098 57.6647 35.8792 57.6341C35.8485 57.6034 35.8349 57.5694 35.8349 57.5251V56.3197C35.8349 56.2754 35.8485 56.2414 35.8792 56.2073C35.9098 56.1767 35.9439 56.1631 35.9881 56.1631H37.466C37.7486 56.1631 37.9631 56.2312 38.1027 56.364C38.2492 56.5036 38.3207 56.667 38.3207 56.8611C38.3207 56.9701 38.3036 57.062 38.2628 57.1539M35.8349 53.4185C35.8349 53.3743 35.8485 53.3402 35.8792 53.3096C35.9098 53.2789 35.9439 53.2653 35.9881 53.2653H37.4592C37.5375 53.2653 37.6056 53.2823 37.6669 53.313C37.7452 53.3572 37.8065 53.4083 37.861 53.4662C37.9052 53.5105 37.9461 53.5786 37.9836 53.6705C38.0142 53.7488 38.0312 53.8305 38.0312 53.9157C38.0312 54.0212 38.0176 54.1132 37.9904 54.1915C37.9563 54.2902 37.912 54.372 37.861 54.4332C37.7963 54.5082 37.7282 54.566 37.6567 54.6001C37.5715 54.641 37.4762 54.6614 37.3604 54.6614H35.9881C35.9439 54.6614 35.9098 54.6478 35.8792 54.6171C35.8485 54.5865 35.8349 54.5524 35.8349 54.5082V53.4185ZM39.8427 56.2584C39.7508 56.0507 39.6282 55.86 39.4784 55.7034C39.3286 55.5331 39.1617 55.4003 38.9676 55.305C38.9472 55.2947 38.9302 55.2879 38.9063 55.2811C38.9132 55.2743 38.92 55.2709 38.9302 55.2675C39.097 55.1653 39.2366 55.0394 39.3422 54.8861C39.4375 54.7499 39.5227 54.5865 39.5942 54.4026C39.6589 54.2255 39.6895 54.0519 39.6895 53.885C39.6895 53.4424 39.6316 53.1018 39.5125 52.8465C39.4001 52.5638 39.2332 52.3391 39.0221 52.1859C38.828 52.0292 38.5897 51.9169 38.2934 51.8453C38.164 51.8181 38.0278 51.7977 37.8882 51.7841C37.752 51.7704 37.6056 51.7636 37.4558 51.7636H34.1732V59.1834H37.609C37.769 59.1834 37.9257 59.1732 38.0755 59.1528C38.2219 59.1323 38.3683 59.1051 38.5079 59.071C38.8008 59.0029 39.0596 58.8735 39.2673 58.6931C39.4784 58.5228 39.6555 58.2844 39.7883 57.9848C39.9109 57.6954 39.9755 57.3412 39.9755 56.936C39.9755 56.6943 39.9279 56.4695 39.8359 56.2652" fill="#006EB4"/>
<path d="M93.688 55.4786H93.6846L93.6403 55.4275L90.9741 52.0769C90.9741 52.0769 90.9639 52.0599 90.9605 52.0531C90.8924 51.9645 90.8039 51.8896 90.6983 51.8351C90.6268 51.8011 90.5553 51.7738 90.4838 51.7636C90.4804 51.7636 90.4736 51.7636 90.4702 51.7636H88.6757L88.8221 51.9509L89.0434 52.2403C89.0434 52.2403 89.0468 52.2437 89.0502 52.2472C89.0502 52.2472 89.0502 52.2472 89.0502 52.2506L91.3964 55.3322C91.4304 55.3799 91.4474 55.4309 91.4474 55.4888C91.4474 55.5433 91.4338 55.5876 91.3998 55.6353C91.3998 55.6353 89.1183 58.7203 89.1081 58.7407L88.7948 59.1766L90.477 59.1664C90.5859 59.1664 90.6915 59.1357 90.8039 59.0778C90.8822 59.037 90.9503 58.9825 91.0116 58.9178L91.0865 58.8225L93.6914 55.4752H93.6948L93.688 55.4786Z" fill="#5EB4E5"/>
</g>
</g>
<rect x="1" y="1" width="110" height="110" rx="9" stroke="#CCCCCC" stroke-width="2"/>
<defs>
<radialGradient id="paint0_radial_528_45" cx="0" cy="0" r="1" gradientUnits="userSpaceOnUse" gradientTransform="translate(30.7669 46.7731) scale(15.1732 15.1732)">
<stop stop-color="white"/>
<stop offset="0.21" stop-color="#86B9D7"/>
<stop offset="0.41" stop-color="#0A71AF"/>
<stop offset="1" stop-color="#0F4E8B"/>
</radialGradient>
<radialGradient id="paint1_radial_528_45" cx="0" cy="0" r="1" gradientUnits="userSpaceOnUse" gradientTransform="translate(4831.55 11765.3) scale(15.1766 15.1767)">
<stop stop-color="white"/>
<stop offset="0.21" stop-color="#86B9D7"/>
<stop offset="0.41" stop-color="#0A71AF"/>
<stop offset="1" stop-color="#0F4E8B"/>
</radialGradient>
<radialGradient id="paint2_radial_528_45" cx="0" cy="0" r="1" gradientUnits="userSpaceOnUse" gradientTransform="translate(4831.62 11765.5) scale(15.1766 15.1767)">
<stop stop-color="white"/>
<stop offset="0.21" stop-color="#86B9D7"/>
<stop offset="0.41" stop-color="#0A71AF"/>
<stop offset="1" stop-color="#0F4E8B"/>
</radialGradient>
<radialGradient id="paint3_radial_528_45" cx="0" cy="0" r="1" gradientUnits="userSpaceOnUse" gradientTransform="translate(4832.25 11767) scale(15.18 15.1801)">
<stop stop-color="white"/>
<stop offset="0.21" stop-color="#86B9D7"/>
<stop offset="0.41" stop-color="#0A71AF"/>
<stop offset="1" stop-color="#0F4E8B"/>
</radialGradient>
<radialGradient id="paint4_radial_528_45" cx="0" cy="0" r="1" gradientUnits="userSpaceOnUse" gradientTransform="translate(4832.26 11767) scale(15.18 15.1801)">
<stop stop-color="white"/>
<stop offset="0.21" stop-color="#86B9D7"/>
<stop offset="0.41" stop-color="#0A71AF"/>
<stop offset="1" stop-color="#0F4E8B"/>
</radialGradient>
<radialGradient id="paint5_radial_528_45" cx="0" cy="0" r="1" gradientUnits="userSpaceOnUse" gradientTransform="translate(32.3242 45.3014) scale(22.0073 22.0073)">
<stop stop-color="#D9E9F7"/>
<stop offset="0.12" stop-color="#D9E9F7"/>
<stop offset="0.24" stop-color="#A3CAE7"/>
<stop offset="0.44" stop-color="#4C99CF"/>
<stop offset="0.58" stop-color="#157ABF"/>
<stop offset="0.65" stop-color="#006FBA"/>
<stop offset="1" stop-color="#00305A"/>
</radialGradient>
<clipPath id="clip0_528_45">
<rect x="2" y="2" width="108" height="108" rx="8" fill="white"/>
</clipPath>
<clipPath id="clip1_528_45">
<rect width="80" height="14.6727" fill="white" transform="translate(16.47 48.2087)"/>
</clipPath>
</defs>
</svg>
