<svg width="113" height="112" viewBox="0 0 113 112" fill="none" xmlns="http://www.w3.org/2000/svg">
<g clip-path="url(#clip0_421_552)">
<rect x="2.5" y="2" width="108" height="108" rx="8" fill="white"/>
<g clip-path="url(#clip1_421_552)">
<path fill-rule="evenodd" clip-rule="evenodd" d="M60.2214 57.9347C59.6737 57.9347 59.8647 57.9322 59.5681 57.7336C59.5681 57.2075 59.8065 56.5953 59.8192 56.0249C60.1467 56.0249 60.1929 55.9724 60.4547 55.9066C60.5774 55.8756 60.671 55.8743 60.7931 55.8415C61.034 55.777 61.139 55.6176 61.5671 56.0356C61.846 56.3082 61.829 56.3436 61.829 56.7787C61.829 57.5622 60.9701 57.9347 60.2214 57.9347ZM59.9697 55.3716C59.9697 54.9624 60.0835 54.5482 60.1493 54.1441C60.3093 53.1645 60.4269 53.2612 61.2762 53.2612C62.0756 53.2612 62.2754 53.9866 61.4919 54.7328C61.3907 54.8302 61.3426 54.8473 61.2206 54.9137C60.9075 55.0832 60.3396 55.3412 59.9697 55.3716ZM58.412 53.0102C58.5689 53.2441 58.7637 53.2011 58.7637 53.4623C58.7637 53.9487 58.6296 54.3154 58.555 54.7613C58.5208 54.9668 58.5056 55.197 58.4531 55.4127L58.1085 57.3795C57.9852 58.3262 57.5077 57.8981 57.5077 58.3363C57.5077 58.5336 57.7562 58.588 57.9599 58.588C58.9831 58.588 60.8538 58.6633 61.7663 58.4748C61.9086 58.4457 62.0282 58.3856 62.1761 58.3319C63.3891 57.8892 63.8337 56.4505 63.0748 55.7339C62.9654 55.6309 62.8155 55.529 62.6783 55.4772L62.1306 55.3216C62.4715 55.2419 62.8301 55.0073 63.0716 54.8049C63.6667 54.306 63.8369 53.3554 63.0337 52.9115C62.3222 52.5181 59.7939 52.6579 58.8142 52.6579C58.5581 52.6579 58.4607 52.8002 58.412 53.0102Z" fill="#34368F"/>
<path fill-rule="evenodd" clip-rule="evenodd" d="M18.7137 57.9347C18.0585 57.9347 18.0035 57.8614 18.1394 57.1594L18.3115 56.0249L19.3252 55.8301C19.4441 55.794 19.5181 55.7466 19.6085 55.7561C20.2125 55.8168 20.7469 56.9672 19.8552 57.6192C19.5428 57.8481 19.114 57.9347 18.7137 57.9347ZM18.412 55.3716C18.5309 55.1243 18.5891 54.0454 18.7744 53.573C18.9281 53.1815 19.2285 53.2612 19.7685 53.2612C20.6122 53.2612 20.8424 54.1757 19.7097 54.9105C19.4365 55.0876 18.7529 55.364 18.412 55.3716ZM16.9043 53.0102C17.3072 53.6109 17.3862 52.749 17.0549 54.7177L16.5995 57.3782C16.5053 58.2984 16 57.905 16 58.3363C16 58.5336 16.2485 58.588 16.4522 58.588C17.4754 58.588 19.3461 58.6633 20.2587 58.4748C20.4009 58.4457 20.5205 58.3856 20.6685 58.3319C22.0408 57.831 22.5904 55.8604 20.8904 55.4057C20.8797 55.4032 20.7766 55.3766 20.7709 55.3747L20.6229 55.3216C20.9828 55.2375 21.4065 54.958 21.6367 54.7272C21.6443 54.7196 21.6538 54.7088 21.6607 54.7012C21.8688 54.4792 22.0484 54.1694 22.0667 53.8544C22.1173 52.9817 21.1883 52.6579 20.3219 52.6579H17.3066C17.0504 52.6579 16.9537 52.8002 16.9043 53.0102Z" fill="#34368F"/>
<path fill-rule="evenodd" clip-rule="evenodd" d="M82.1811 57.9347C81.223 57.9347 81.1471 58.268 81.7663 55.259C81.8181 55.0092 82.03 53.604 82.1008 53.4826C82.3101 53.1234 83.6148 53.1588 84.0929 53.7615C85.1256 55.0636 84.1239 57.9347 82.1811 57.9347ZM80.1707 52.9596C80.1707 53.2334 80.5223 53.2568 80.5223 53.4117L79.8412 57.4541C79.6698 58.3477 79.2664 57.8171 79.2664 58.4875C79.4415 58.5279 79.4358 58.588 79.618 58.588C81.4602 58.588 82.8351 58.779 84.3484 58.0922C85.2104 57.7007 85.6948 56.8046 85.9769 55.9515C86.1856 55.3222 86.128 54.5817 85.8795 53.9847L85.569 53.4914C85.0934 52.9564 84.3206 52.6579 83.4371 52.6579H80.6229C80.38 52.6579 80.1707 52.7199 80.1707 52.9596Z" fill="#34368F"/>
<path fill-rule="evenodd" clip-rule="evenodd" d="M72.4319 57.9347C71.3087 57.9347 71.6584 57.9423 72.0948 55.2856C72.1599 54.8903 72.2466 54.5368 72.3098 54.0935C72.4306 53.2479 72.4913 53.2612 73.3868 53.2612C73.5867 53.2612 73.8194 53.3555 73.9743 53.4269C74.2052 53.5338 74.2703 53.6027 74.4303 53.7754C75.3726 54.7891 74.7124 57.9347 72.4319 57.9347ZM70.472 52.9596C70.5549 53.1164 70.4954 53.0702 70.6434 53.191C70.9052 53.4041 70.9527 53.2619 70.7636 54.0549C70.615 54.6797 70.2646 57.5882 70.023 57.8873C69.8441 58.1093 69.6183 58.0182 69.6183 58.3869C69.6183 58.5634 69.8409 58.588 70.0199 58.588C71.6009 58.588 73.7435 58.7765 74.909 57.9493C75.6376 57.432 75.9639 56.9665 76.2719 56.0957C76.6728 54.9605 76.3813 53.3978 75.0602 52.8944C74.1255 52.539 72.091 52.6579 70.9748 52.6579C70.651 52.6579 70.5846 52.7477 70.472 52.9596Z" fill="#34368F"/>
<path fill-rule="evenodd" clip-rule="evenodd" d="M35.7489 52.9596C35.7489 53.1569 35.9671 53.241 36.1005 53.3112L35.5858 56.6661C35.5459 56.8571 35.4934 57.148 35.4618 57.346C35.4163 57.6305 35.4226 57.7912 35.2493 57.9373C35.1386 58.0302 34.8439 58.1637 34.8439 58.3363C34.8439 58.4988 35.0267 58.588 35.1962 58.588H36.8544C37.0675 58.588 37.206 58.4925 37.206 58.2864C37.206 57.8158 36.6419 58.4451 36.965 57.0905C36.9809 57.0228 37.0182 56.8653 37.0346 56.7578L37.0675 56.489C37.1244 56.2298 37.151 56.2785 37.4412 56.1096C37.5899 56.0236 37.6822 55.9591 37.8093 55.8743L38.3285 56.8122C38.4506 57.0563 38.7636 57.6495 38.7636 57.8841C38.7636 58.0214 38.4879 58.0119 38.412 58.3363C38.517 58.5349 38.5631 58.588 38.8642 58.588C40.485 58.588 40.7235 58.7581 40.7235 58.0853C40.4054 58.0005 40.3725 57.6976 40.2574 57.3959C40.1353 57.0747 40.0335 56.8552 39.8861 56.5611L39.2322 55.4064C39.1171 55.2084 39.0716 55.2628 39.0153 55.02C39.2171 54.9662 39.7774 54.428 39.988 54.2339L40.2283 54.022C40.6982 53.6305 40.4597 53.6514 41.1307 53.2663C41.5848 53.0051 41.3635 52.6579 41.0251 52.6579C40.5894 52.6579 39.3511 52.4998 39.4169 53.0102C39.5668 53.2928 39.5718 53.143 39.7186 53.3618C39.6395 53.6571 39.4112 53.7697 39.2044 53.9531C39.1494 54.0011 39.131 54.0264 39.0767 54.0764L37.2559 55.4721L37.4773 53.9847C37.6215 53.0424 38.1578 53.2739 38.1103 52.9096C38.0281 52.7534 38.0009 52.6579 37.7587 52.6579C37.1579 52.6579 35.7489 52.5055 35.7489 52.9596Z" fill="#34368F"/>
<path fill-rule="evenodd" clip-rule="evenodd" d="M29.2661 53.0102C29.7031 53.6622 29.7208 52.8925 29.576 54.1238C29.5406 54.4274 29.5153 54.5045 29.4628 54.7638L28.9935 57.4105C28.9442 57.6957 28.9929 57.8165 28.8026 57.9733C28.5863 58.1517 28.4939 58.0366 28.4124 58.3869C28.6255 58.7056 28.8272 58.588 29.7689 58.588C30.025 58.588 30.1218 58.4464 30.1711 58.2364C30.1028 58.158 30.0503 58.115 29.9618 58.0435C29.6095 57.7615 29.7954 57.4427 29.9061 56.8154L30.3216 54.065L32.0734 57.2884C32.3592 57.8304 32.5705 58.588 33.0353 58.588C34.0844 58.588 33.7126 58.2238 34.0788 56.6168L34.6682 53.4364C34.801 53.0557 35.1956 53.3523 35.0451 52.7085C34.7953 52.6503 33.4375 52.496 33.4375 52.9596C33.4375 53.2429 33.7891 53.1012 33.7891 53.6128L33.3369 56.477C33.1852 56.3664 33.2712 56.4056 33.0726 55.9875C32.8247 55.4671 32.5629 54.8581 32.272 54.3762L31.3765 52.9096C31.1355 52.5377 30.3197 52.6579 29.6683 52.6579C29.4122 52.6579 29.3154 52.8002 29.2661 53.0102Z" fill="#34368F"/>
<path fill-rule="evenodd" clip-rule="evenodd" d="M66.1508 55.6732C66.2027 55.4519 66.2229 55.2299 66.259 54.9776C66.2893 54.7657 66.3386 54.5456 66.3804 54.2952C66.5594 53.2239 66.5069 53.2612 67.4574 53.2612C67.6098 53.2612 67.9304 53.4288 68.0152 53.5072C68.5464 53.998 68.0835 54.9283 67.575 55.2381C67.3284 55.388 67.2803 55.443 66.9748 55.543C66.6441 55.6505 66.5726 55.6732 66.1508 55.6732ZM64.6937 52.9096C64.6937 53.2872 64.9929 53.1449 65.0352 53.4718C65.0498 53.5863 65.0409 53.5426 65.0283 53.6388L64.4016 57.3915C64.301 58.1675 63.8994 57.9132 63.7888 58.3869C63.797 58.3958 63.8071 58.3996 63.8109 58.4154C63.8141 58.4312 63.828 58.4375 63.833 58.4432C63.9298 58.5425 63.9703 58.588 64.141 58.588H65.8492C66.1527 58.588 66.2008 58.4274 66.2008 58.2364C66.2008 58.0656 65.8492 57.9695 65.8492 57.8342C65.8492 57.4174 66.0503 56.8476 66.0503 56.2766C67.0084 56.2766 67.9709 56.2076 68.7949 55.6536C69.1263 55.431 69.2673 55.3222 69.5045 55.0067C70.3608 53.8683 69.7005 52.6579 67.809 52.6579H65.0953C64.9303 52.6579 64.6937 52.8109 64.6937 52.9096Z" fill="#34368F"/>
<path fill-rule="evenodd" clip-rule="evenodd" d="M25.4976 53.8639C25.5115 54.0302 25.5633 54.1947 25.6196 54.3452C25.7467 54.6823 25.9498 55.6024 25.9498 55.9749H24.1411C24.3409 55.5961 24.518 55.2249 24.7463 54.872C24.812 54.7702 24.8329 54.7562 24.9101 54.6336C25.0233 54.4546 25.3762 53.9455 25.4976 53.8639ZM21.8796 58.2864C21.8796 58.7019 21.7746 58.588 23.4372 58.588C23.6459 58.588 23.6383 58.4015 23.6383 58.2864C23.6383 58.0239 23.2867 58.1371 23.2867 57.7836C23.2867 57.5363 23.6598 57.0184 23.7388 56.6781H26.1003C26.1414 57.1683 26.2008 57.2429 26.2008 57.8841C26.2008 58.2092 25.7992 57.8879 25.7992 58.3869C25.7992 58.5412 25.946 58.588 26.1003 58.588H27.859C28.0721 58.588 28.2113 58.4925 28.2113 58.2864C28.2113 58.1162 27.9336 58.0391 27.8394 57.7033C27.7591 57.42 27.761 57.1354 27.6965 56.8407L27.0052 54.1156C26.8611 53.7279 26.8522 53.5698 26.6207 53.0424C26.4335 52.6168 26.4329 52.5574 25.9498 52.5574C25.5083 52.5574 25.3091 52.9475 24.9664 53.3833C24.8614 53.5173 24.7956 53.5869 24.7033 53.7229L24.2056 54.4312C24.0285 54.6816 23.883 54.9365 23.723 55.2053C23.1754 56.1267 22.9376 56.6339 22.474 57.6249C22.2198 58.1687 21.8796 58.0138 21.8796 58.2864Z" fill="#34368F"/>
<path fill-rule="evenodd" clip-rule="evenodd" d="M89.8188 52.9596C89.8188 53.2302 90.1363 53.1025 90.3412 53.6938C90.4582 54.0309 90.5891 54.299 90.7403 54.6013C90.8933 54.9068 91.0261 55.1445 91.176 55.4222C91.7964 56.57 91.723 55.8288 91.5801 56.8818C91.5453 57.1373 91.4985 57.5578 91.3872 57.7937C91.3069 57.9632 91.3335 57.9019 91.1646 57.9733C90.3292 58.3275 90.9085 58.588 91.1254 58.588H93.1358C93.4109 58.588 93.7088 58.2566 93.2585 58.0625C92.9689 57.9379 92.9847 58.0062 92.9847 57.6331L93.1687 56.41C93.2212 56.0717 93.2459 56.1513 93.6595 55.6947L95.5333 53.4478C95.7711 53.2075 96 53.265 96 52.859C96 52.546 95.1621 52.6579 94.6435 52.6579C94.4203 52.6579 94.3305 52.7762 94.2413 52.9096C94.3178 53.2372 94.4171 53.0993 94.5929 53.3618L94.2811 53.9543C94.1268 54.1472 94.0168 54.2914 93.8549 54.483C93.7758 54.576 93.736 54.6361 93.6544 54.7347C93.6057 54.7942 93.5823 54.8245 93.5406 54.872L93.4679 54.9498C93.4609 54.9573 93.4501 54.9681 93.4432 54.9757C93.2712 55.1622 93.0441 55.3001 92.9847 55.5227C92.7602 55.4626 92.7627 55.3109 92.6426 55.111C91.2304 52.7559 92.382 53.4902 92.382 52.9096C92.382 52.7471 92.1992 52.6579 92.0304 52.6579H90.2717C90.0282 52.6579 89.8188 52.7199 89.8188 52.9596Z" fill="#34368F"/>
<path fill-rule="evenodd" clip-rule="evenodd" d="M87.1057 52.9096C87.1057 53.5875 87.6452 52.742 87.3454 54.0536C87.3049 54.2301 87.2853 54.4989 87.2493 54.7113C87.2145 54.9175 87.174 55.1218 87.1329 55.3494C87.0279 55.9313 86.9154 57.6514 86.6042 57.936C86.455 58.0726 86.2513 58.1219 86.2513 58.3869C86.2513 58.5412 86.3987 58.588 86.553 58.588H88.1606C88.4041 58.588 88.6128 58.526 88.6128 58.2864C88.6128 58.0606 88.2611 58.0182 88.2611 57.8841C88.2611 57.2321 88.8328 54.7493 88.9176 53.9177C89.0061 53.0513 89.5177 53.3181 89.5177 52.9096C89.5177 52.7471 89.335 52.6579 89.1655 52.6579H87.5579C87.3543 52.6579 87.1057 52.7123 87.1057 52.9096Z" fill="#34368F"/>
<path fill-rule="evenodd" clip-rule="evenodd" d="M54.0174 55.7049C54.0174 56.472 54.0269 56.8483 53.896 57.628C53.6696 58.9757 53.2263 60.1653 52.4149 61.2498C51.656 62.2642 50.4778 63.075 49.1377 63.075C48.7823 63.075 48.4585 63.0079 48.1815 62.9377C47.059 62.6519 46.0503 61.6489 45.4565 60.6617C44.4395 58.9725 44.0671 56.8059 44.3244 54.7385C44.4825 53.4668 44.8923 52.2981 45.4362 51.3956C46.7219 49.26 48.9986 48.1463 51.2032 49.6097C51.8489 50.0391 52.4048 50.681 52.8063 51.3475C53.0163 51.6954 53.0327 51.7554 53.194 52.0736C53.6816 53.0354 54.0174 54.6177 54.0174 55.7049ZM46.0598 48.7901C45.8467 49.0715 45.6474 49.3618 45.4609 49.6792C45.4122 49.7621 45.3705 49.8336 45.3306 49.9139C44.9581 50.6715 44.8272 50.8467 44.5237 51.7586C43.5573 54.6588 43.453 58.1302 44.7229 61.0304C44.764 61.1246 44.8057 61.2056 44.8449 61.2935C44.9651 61.5648 45.0833 61.7741 45.2225 62.029L45.8252 62.9447C45.8859 63.0219 45.9453 63.0857 45.9984 63.1566C46.0939 63.2837 46.3323 63.3033 46.5499 63.3545C48.0588 63.7087 50.6808 63.6416 52.0696 63.2736C52.2163 63.2343 52.2068 63.2426 52.2935 63.1332C53.2086 61.9727 53.767 60.7762 54.135 59.3045C54.2337 58.9087 54.3317 58.4641 54.3804 58.0315C54.4892 57.0614 54.4797 56.8053 54.4829 55.8668C54.4841 55.5986 54.4171 54.7727 54.3735 54.4577C54.2577 53.6185 54.0927 52.7806 53.8277 51.9869C53.5545 51.1692 53.2345 50.3736 52.7912 49.6413L52.3396 48.9589C52.3105 48.9204 52.2935 48.8938 52.2625 48.8539C52.2131 48.7913 52.2283 48.8002 52.1429 48.7705C51.7565 48.6383 50.9477 48.5283 50.5157 48.4947C50.0554 48.4587 49.5741 48.4207 49.0568 48.4372C48.5218 48.4385 47.9886 48.4656 47.4612 48.5232C47.2184 48.5498 46.9749 48.589 46.7403 48.6313C46.4923 48.6762 46.2906 48.7414 46.0598 48.7901Z" fill="#34368F"/>
<path fill-rule="evenodd" clip-rule="evenodd" d="M48.8303 59.1502L48.8651 59.1173C48.9866 58.977 49.2085 58.4609 49.2648 58.3022C49.49 57.6615 49.5165 57.0222 49.3603 56.3524C49.7802 56.3177 50.4569 55.9382 50.7111 55.6378C50.868 55.4525 50.9888 55.2128 51.0786 54.9732C51.279 54.4381 51.2993 53.6508 51.1399 53.0949C51.0982 52.9488 50.9768 52.5257 50.8383 52.5257C50.739 52.5257 50.5783 52.5555 50.5145 52.5864C50.7453 53.0234 50.6738 53.2846 50.7288 53.6476L50.7162 54.2661C50.6808 54.705 50.5328 55.1015 50.2716 55.4418C49.9832 55.8187 49.7568 55.9825 49.2996 56.0894C49.2231 55.7618 49.0043 55.2868 48.8133 55.0162C48.702 54.8581 48.616 54.8005 48.5704 54.7328C48.6039 54.6829 48.7077 54.6234 48.7962 54.5134C49.1725 54.0479 49.2395 53.2726 49.0074 52.7161L48.8164 52.3815C48.7747 52.3265 48.7715 52.343 48.7526 52.2626C49.027 52.1988 49.4413 51.8446 49.9674 52.0799C50.0471 52.1159 50.2052 52.2 50.2514 52.2626C50.068 52.305 49.8612 52.324 49.6721 52.2747C49.5817 52.2506 49.5614 52.2203 49.4817 52.2019C49.5469 52.2993 49.8112 52.465 49.9674 52.465C50.5979 52.465 50.7541 52.2045 51.0925 52.312C51.219 52.3518 51.336 52.4871 51.3922 52.5991C51.6939 53.1954 51.6686 55.2805 51.6686 56.1298C51.6686 56.9918 51.3897 58.2592 50.9768 58.9409C50.911 59.049 50.8199 59.2021 50.7333 59.2843C50.4645 59.5398 49.9624 59.3969 49.6784 59.2742C49.5178 59.2053 49.0979 58.9555 48.8544 59.1673L48.8303 59.1502ZM49.4381 59.1502C49.5703 59.1167 49.796 58.9251 50.1641 59.0921C50.4152 59.2065 50.3146 59.2223 50.4133 59.1673C50.3854 59.063 50.271 58.9985 50.1907 58.9441V56.312L49.9137 56.4606C49.8131 56.5112 49.7164 56.5466 49.6234 56.5953V58.8429C49.5013 58.9074 49.3894 58.9618 49.3603 59.0864L49.4381 59.1502ZM49.4817 52.1817L49.4754 52.1874C49.476 52.1868 49.4836 52.1836 49.4817 52.1817ZM49.4615 52.1615L49.4552 52.1671C49.4558 52.1665 49.4634 52.1634 49.4615 52.1615ZM49.4413 52.1412L49.4349 52.1469C49.4356 52.1463 49.4432 52.1431 49.4413 52.1412ZM49.421 52.1204L49.4147 52.1267C49.4153 52.126 49.4229 52.1229 49.421 52.1204ZM49.4008 52.1001L49.3945 52.1064C49.3951 52.1058 49.4027 52.1026 49.4008 52.1001ZM49.3805 52.0799L49.3742 52.0862C49.3749 52.0856 49.3824 52.0824 49.3805 52.0799ZM48.3276 59.0864C48.282 59.0554 48.1657 58.9744 48.1657 58.9238V56.2917L48.8544 56.312C48.9031 56.5219 48.8949 56.9918 48.8949 57.2435C48.8949 57.6641 48.8702 57.9841 48.7583 58.3022C48.6242 58.686 48.5255 58.7904 48.3276 59.0864ZM47.5782 51.9989C47.7122 51.9882 47.6572 51.9585 47.9228 51.9585C48.1081 51.9585 48.3706 52.0596 48.4085 52.2019C48.227 52.2019 48.0822 52.2639 47.8128 52.1697L47.618 52.0609C47.5598 52.0065 47.6104 52.0609 47.5782 51.9989ZM46.2621 51.8168C46.2621 51.9901 46.2963 52.0653 46.4392 52.207C46.7775 52.5434 47.0786 52.2626 47.5377 52.0192C47.5763 52.1001 47.556 52.1071 47.6231 52.1773C47.8368 52.403 48.2428 52.4106 48.53 52.3436C48.5622 52.4815 48.6071 52.5807 48.6349 52.7452C48.6931 53.0898 48.7273 54.0454 48.5502 54.3275C48.4269 54.5235 48.2492 54.5305 48.1657 54.5709V52.809C48.2998 52.7192 48.3377 52.7028 48.4288 52.5662L48.3649 52.4884C48.1714 52.6162 48.1707 52.6674 47.9026 52.6674C47.8292 52.6674 47.7293 52.6313 47.68 52.606C47.6111 52.5706 47.5756 52.5238 47.5175 52.4853C47.4871 52.5061 47.396 52.5788 47.3758 52.6067C47.4232 52.6769 47.4827 52.7464 47.5782 52.7686V54.49C47.4877 54.4464 47.4036 54.4154 47.3151 54.3679C47.3847 54.6652 47.7717 54.8543 48.0645 54.8543C48.1796 54.8543 48.2043 54.834 48.3276 54.834C48.4281 54.9839 48.559 55.2312 48.6286 55.4032C48.7608 55.7289 48.7545 55.7295 48.8341 56.0691H48.1657V55.0971C48.012 55.1332 47.9077 55.1281 47.7546 55.063C47.6857 55.0339 47.6395 54.9921 47.5782 54.9757V56.1905C47.4637 56.2513 47.3277 56.3335 47.2949 56.4739L47.5782 56.3524V58.8429C47.4726 58.8992 47.3802 58.9694 47.3151 59.0661L47.3916 59.1515C47.5567 59.106 47.6851 58.9567 48.0468 59.063C48.1353 59.0889 48.1903 59.1287 48.2669 59.1471C48.1518 59.3185 47.8109 59.5923 47.5175 59.5923C47.1013 59.5923 46.8591 59.0035 46.3804 59.4064C46.3266 59.4519 46.2191 59.5973 46.2014 59.6732C46.3096 59.6163 46.4044 59.5531 46.5277 59.5132C46.9616 59.3728 46.9072 59.7776 47.6035 59.8712C48.0487 59.9306 48.3453 59.7782 48.6286 59.4272C48.769 59.2533 48.7842 59.1875 48.9151 59.1875C49.0707 59.1875 49.2168 59.2685 49.316 59.333C49.4349 59.4095 49.5368 59.4791 49.6525 59.5632C50.2501 59.9996 50.9407 60.0717 51.4201 59.4247C51.7907 58.9245 52.0076 58.1194 52.1056 57.4781C52.1619 57.1082 52.2156 56.6788 52.215 56.2715C52.215 56.1722 52.2087 56.0445 52.2169 55.9483C52.222 55.8851 52.2334 55.8781 52.227 55.8143C52.2024 55.5626 52.2144 55.2729 52.2156 55.0162L52.1284 53.7868C52.0721 53.3371 51.9216 51.9585 51.3246 51.9585C51.1627 51.9585 50.9761 51.9958 50.8585 52.0394C50.6005 52.1349 50.6093 52.2007 50.4765 52.0982C50.2615 51.9313 49.9466 51.7561 49.6234 51.7561C49.3552 51.7561 48.8904 52.071 48.5907 52.1412C48.4958 51.9983 48.1587 51.7966 48.024 51.7966C47.5946 51.7966 46.9451 52.2791 46.615 52.0723C46.5663 52.0413 46.5157 51.9996 46.4841 51.9597C46.4462 51.9117 46.419 51.8623 46.3848 51.8143C46.357 51.7757 46.2621 51.696 46.2621 51.8168Z" fill="#34368F"/>
<path fill-rule="evenodd" clip-rule="evenodd" d="M46.1812 52.5662C46.1957 52.7382 46.4038 52.7844 46.4038 52.8698V58.7822C46.4038 58.8562 46.2564 58.8928 46.1407 59.0661L46.2172 59.1515C46.5125 59.075 46.5385 58.872 47.1734 59.2078L47.2544 59.1471C47.231 59.0453 47.1557 58.9744 47.0874 58.9093C46.9628 58.7898 46.99 58.8258 46.9913 58.6V52.8495C47.0982 52.8211 47.2386 52.6705 47.2948 52.5864L47.1892 52.4897C46.8174 52.7332 46.6928 52.7325 46.3228 52.4853C46.2729 52.5289 46.257 52.5485 46.1812 52.5662Z" fill="#34368F"/>
<path fill-rule="evenodd" clip-rule="evenodd" d="M49.421 52.5864C49.4463 52.6826 49.5254 52.7458 49.6234 52.7686V55.7251C49.6993 55.7074 49.7183 55.677 49.7777 55.6359C49.8732 55.5689 50.1331 55.3596 50.1736 55.283C50.2659 55.1098 50.1205 52.9419 50.2147 52.8135C50.2324 52.7894 50.3102 52.7401 50.3475 52.7034C50.3962 52.656 50.4379 52.6193 50.474 52.5662L50.4095 52.4884C50.216 52.6162 50.1774 52.6674 49.9269 52.6674C49.7967 52.6674 49.6164 52.558 49.5627 52.4853C49.5159 52.5169 49.471 52.5529 49.421 52.5864Z" fill="#34368F"/>
<path fill-rule="evenodd" clip-rule="evenodd" d="M47.9431 61.678H47.8014V60.706H48.0038C48.2422 60.706 48.3478 60.9109 48.3478 61.1512C48.3478 61.4535 48.2485 61.678 47.9431 61.678ZM47.5175 61.7387C47.5175 61.8336 47.642 61.7994 47.8824 61.7994C48.0778 61.7994 48.2289 61.7438 48.3333 61.6432C48.7039 61.2853 48.5394 60.5845 48.0443 60.5845H47.5175V61.7387Z" fill="#34368F"/>
<path fill-rule="evenodd" clip-rule="evenodd" d="M50.049 61.3339V61.7994H50.3121V61.3339C50.6207 61.2619 50.8332 60.7996 50.8383 60.5643H50.6157C50.6131 60.6838 50.5505 60.8919 50.5081 60.983C50.3589 61.3061 50.0319 61.3257 49.8726 61.0038C49.7916 60.8394 49.7885 60.7515 49.7448 60.5643H49.5222C49.5431 60.8147 49.741 61.2619 50.049 61.3339Z" fill="#34368F"/>
<path fill-rule="evenodd" clip-rule="evenodd" d="M48.9353 61.7994H49.1984V60.5845H48.9353V61.7994Z" fill="#34368F"/>
<path fill-rule="evenodd" clip-rule="evenodd" d="M46.0598 48.7901C46.2906 48.7414 46.4923 48.6762 46.7402 48.6313C46.9749 48.589 47.2183 48.5498 47.4612 48.5232C47.9886 48.4656 48.5217 48.4385 49.0568 48.4372C49.0017 48.3992 48.7627 48.4151 48.6716 48.4151L47.4757 48.4947C47.2209 48.5226 46.4057 48.6446 46.1426 48.7401L46.0598 48.7901Z" fill="#34368F"/>
<path fill-rule="evenodd" clip-rule="evenodd" d="M49.3666 52.1558L49.3818 52.1406C49.3806 52.1419 49.3616 52.1507 49.3666 52.1558Z" fill="#34368F"/>
</g>
</g>
<rect x="1.5" y="1" width="110" height="110" rx="9" stroke="#CCCCCC" stroke-width="2"/>
<defs>
<clipPath id="clip0_421_552">
<rect x="2.5" y="2" width="108" height="108" rx="8" fill="white"/>
</clipPath>
<clipPath id="clip1_421_552">
<rect width="80" height="15.1779" fill="white" transform="translate(16 48.411)"/>
</clipPath>
</defs>
</svg>
