<svg width="112" height="112" viewBox="0 0 112 112" fill="none" xmlns="http://www.w3.org/2000/svg">
<g clip-path="url(#clip0_642_1013)">
<rect x="2" y="2" width="108" height="108" rx="8" fill="white"/>
<path d="M21.6177 59.0697C21.6177 58.5935 21.6229 57.3206 21.6112 57.1637C21.6214 55.2696 20.2442 53.9334 19.3741 54.0376C18.7721 54.0898 18.2675 54.3353 17.9966 55.0415C17.7455 55.6997 17.97 56.5751 18.8048 56.7806C19.6975 57.0012 20.2188 57.1847 20.596 57.4437C21.0582 57.7607 21.4356 58.3664 21.4456 59.0705" fill="#0060AF"/>
<path d="M21.9743 61.9489C20.4003 61.9489 18.7826 61.5612 17.1672 60.7945L17.1275 60.775L17.1086 60.7346C16.3836 59.2043 16.0002 57.5305 16.0002 55.893C16.0002 54.2579 16.3679 52.6557 17.0934 51.1275L17.1133 51.0869L17.1537 51.0666C18.6481 50.3587 20.2557 50.0001 21.9334 50.0001C23.4962 50.0001 25.1652 50.3993 26.7593 51.1566L26.8002 51.1748L26.819 51.2162C27.5579 52.7747 27.9475 54.448 27.9475 56.0584C27.9475 57.6626 27.5734 59.2661 26.8337 60.8237L26.8142 60.8646L26.773 60.8836C25.3015 61.5802 23.6419 61.9489 21.9743 61.9489ZM17.3167 60.5846C18.8861 61.3228 20.4512 61.6957 21.9743 61.6957C23.5893 61.6957 25.1954 61.3427 26.625 60.6735C27.3352 59.1642 27.6952 57.6109 27.6952 56.0584C27.6952 54.4997 27.3195 52.8783 26.6088 51.3657C25.0618 50.6385 23.4462 50.2528 21.9334 50.2528C20.3092 50.2528 18.7524 50.5973 17.3031 51.2769C16.6074 52.7582 16.2534 54.3103 16.2534 55.893C16.2534 57.4786 16.6213 59.1007 17.3167 60.5846Z" fill="#0060AF"/>
<path d="M21.2447 59.0705C21.2476 58.46 20.9069 57.9203 20.4616 57.6302C20.0665 57.3738 19.5362 57.2053 18.6807 56.9884C18.4163 56.9207 18.1396 56.7704 18.054 56.5789C17.8275 56.8072 17.7863 57.3204 17.8262 57.6202C17.8725 57.9673 18.2781 58.5393 18.8887 58.5617C19.2617 58.5767 19.7331 58.4815 19.9593 58.4334C20.3493 58.3492 20.9664 58.5935 21.0647 59.0697" fill="#0060AF"/>
<path d="M21.9331 51.0855C20.8977 51.0855 20.0033 51.7683 20.0065 52.9499C20.0098 53.9435 20.8089 54.4754 21.094 54.8554C21.5249 55.4279 21.7581 56.1056 21.7823 57.1425C21.8012 57.9678 21.8002 58.7827 21.8044 59.0715H22.033C22.029 58.7693 22.0187 57.9042 22.0305 57.117C22.046 56.0797 22.2876 55.4279 22.7187 54.8554C23.0063 54.4754 23.8048 53.9435 23.8065 52.9499C23.8104 51.7683 22.9165 51.0855 21.882 51.0855" fill="#0060AF"/>
<path d="M22.196 59.0697C22.196 58.5935 22.1906 57.3206 22.2021 57.1637C22.192 55.2696 23.5683 53.9334 24.4391 54.0376C25.0412 54.0898 25.5452 54.3353 25.8169 55.0415C26.0678 55.6997 25.842 56.5751 25.0081 56.7806C24.115 57.0012 23.5944 57.1847 23.2162 57.4437C22.7545 57.7607 22.4035 58.3664 22.3928 59.0705" fill="#0060AF"/>
<path d="M22.5688 59.0705C22.5656 58.46 22.9062 57.9203 23.3502 57.6302C23.7468 57.3738 24.2778 57.2053 25.1325 56.9884C25.3975 56.9207 25.6738 56.7704 25.758 56.5789C25.9856 56.8072 26.0266 57.3204 25.9868 57.6202C25.9395 57.9673 25.535 58.5393 24.9254 58.5617C24.5526 58.5767 24.0786 58.4815 23.8535 58.4334C23.4649 58.3492 22.8461 58.5935 22.7474 59.0697" fill="#0060AF"/>
<path d="M22.8882 61.0412L22.7557 60.0745L23.0755 60.026C23.1534 60.0153 23.2482 60.0289 23.2861 60.0777C23.328 60.1286 23.3408 60.1708 23.3489 60.2375C23.361 60.3202 23.3371 60.4157 23.244 60.4633V60.4662C23.3479 60.4662 23.4107 60.5409 23.4289 60.6669C23.4316 60.6935 23.4395 60.7578 23.4316 60.8115C23.4105 60.9391 23.3344 60.9802 23.2058 60.9981L22.8882 61.0412ZM23.094 60.8681C23.132 60.8627 23.1704 60.8607 23.2005 60.8415C23.2465 60.8115 23.2423 60.7472 23.2359 60.6995C23.2199 60.5945 23.1925 60.5547 23.0812 60.5712L23.0113 60.5819L23.0556 60.8735L23.094 60.8681ZM23.027 60.4214C23.0694 60.4146 23.1268 60.4095 23.1507 60.3693C23.1632 60.3425 23.1792 60.3211 23.1687 60.2615C23.1557 60.1907 23.1322 60.1468 23.0423 60.1639L22.9586 60.1773L22.9916 60.4251" fill="#0060AF"/>
<path d="M24.2736 60.4598C24.2761 60.4778 24.279 60.4978 24.28 60.5158C24.3059 60.6921 24.2736 60.8381 24.0754 60.8783C23.7824 60.9347 23.7263 60.7527 23.6747 60.4978L23.6472 60.3599C23.6068 60.116 23.5894 59.9314 23.8751 59.8745C24.0362 59.8451 24.1426 59.9092 24.1869 60.0695C24.1938 60.0934 24.2024 60.1171 24.2056 60.1411L24.0303 60.1773C24.0101 60.1171 23.9833 60.0095 23.9044 60.0185C23.7629 60.0356 23.8096 60.2117 23.8242 60.2853L23.8768 60.5499C23.8927 60.63 23.9241 60.7578 24.0466 60.7332C24.146 60.7132 24.1027 60.5583 24.0939 60.4949" fill="#0060AF"/>
<path d="M24.5548 60.7523L24.4942 59.7518L24.7297 59.68L25.2234 60.5501L25.038 60.6056L24.921 60.3845L24.7151 60.4463L24.7417 60.6977L24.5548 60.7523ZM24.6979 60.2847L24.8467 60.2416L24.6491 59.8368" fill="#0060AF"/>
<path d="M18.7388 59.9959C18.8125 59.76 18.8785 59.5864 19.1596 59.6635C19.3101 59.7055 19.4034 59.7719 19.399 59.9467C19.3983 59.9856 19.3854 60.0252 19.377 60.0637L19.202 60.0153C19.2249 59.9188 19.2395 59.8422 19.1205 59.8056C18.9831 59.7679 18.9496 59.9345 18.9306 60.0065L18.8594 60.2688C18.8368 60.3467 18.8097 60.4754 18.9306 60.5086C19.0306 60.5355 19.0912 60.4374 19.1274 60.2941L19.005 60.2617L19.0473 60.1099L19.3352 60.2025L19.1985 60.7081L19.066 60.6721L19.0959 60.5652H19.0921C19.0311 60.6526 18.9567 60.6617 18.8915 60.6492C18.6036 60.5714 18.6336 60.3832 18.7024 60.1318" fill="#0060AF"/>
<path d="M19.8105 60.4229L19.7238 60.8342L19.5286 60.792L19.7366 59.8316L20.0693 59.9068C20.2641 59.9488 20.3229 60.0356 20.2953 60.2141C20.2796 60.3165 20.2291 60.4269 20.1058 60.418L20.1045 60.4163C20.2087 60.4528 20.2176 60.5054 20.1994 60.5963C20.1915 60.635 20.1373 60.8697 20.1747 60.9076L20.176 60.9364L19.974 60.8837C19.9656 60.8186 19.9942 60.7017 20.0055 60.6369C20.0169 60.5796 20.0351 60.4988 19.9769 60.4684C19.9314 60.4442 19.9144 60.4454 19.863 60.4335L19.8105 60.4229ZM19.8438 60.2742L19.9752 60.3096C20.055 60.3211 20.0994 60.2798 20.1151 60.1834C20.1293 60.0949 20.1109 60.0603 20.0393 60.0432L19.8984 60.0147" fill="#0060AF"/>
<path d="M21.0624 60.0462L21.2555 60.0686L21.1723 60.7437C21.1319 60.9578 21.0492 61.0514 20.8137 61.0221C20.5741 60.9918 20.5172 60.8827 20.5318 60.6669L20.6155 59.9924L20.81 60.0147L20.7265 60.6741C20.7177 60.7458 20.7011 60.8519 20.8286 60.8647C20.9416 60.8733 20.9672 60.7984 20.9799 60.7054" fill="#0060AF"/>
<path d="M21.4683 61.059L21.5264 60.0936L21.8973 60.1097C22.0725 60.1183 22.1184 60.2615 22.1129 60.398C22.1078 60.4811 22.0819 60.5738 22.0095 60.6242C21.9501 60.6669 21.8739 60.677 21.8031 60.6736L21.6822 60.6669L21.6581 61.0715L21.4683 61.059ZM21.6877 60.5197L21.786 60.5252C21.8658 60.5281 21.9187 60.4965 21.9256 60.3793C21.9295 60.2667 21.8869 60.2477 21.7835 60.2431L21.7056 60.2405" fill="#0060AF"/>
<path d="M47.6264 52.0186L46.1523 54.694C45.5959 54.2422 44.9165 53.9097 44.0497 53.9097C41.9984 53.9097 41.1652 55.4388 41.1652 56.5159C41.1652 57.3154 41.6887 58.495 43.5139 58.495C44.28 58.495 45.3692 57.962 45.6827 57.7196L44.2248 60.8235C43.5299 60.9622 43.3016 61.0481 42.7133 61.0663C39.4465 61.1638 38.1264 59.157 38.1273 57.1063C38.1295 54.3954 40.5397 51.0985 44.5353 51.0985C44.7802 51.0985 45.0796 51.1832 45.3357 51.277L45.5944 50.9461" fill="#0060AF"/>
<path d="M53.7086 51.03L54.126 60.7542H51.0196L51.0177 59.0864H48.8995L48.2023 60.7542H44.8334L48.3555 53.8103L47.5613 53.8051L49.0704 51.03H53.7086ZM50.9976 54.0048L49.8 56.8332H51.0337" fill="#0060AF"/>
<path d="M36.1662 51.03C37.7045 51.0386 38.5738 51.8737 38.5738 53.0799C38.5738 54.1919 37.657 55.1763 36.6506 55.6853C37.6868 56.0662 37.7764 57.0012 37.7764 57.6627C37.7764 59.2608 36.1727 60.7542 34.0882 60.7542H29.5422L31.3155 53.907L30.5871 53.9028L32.0761 51.03C32.0761 51.03 34.9152 51.0214 36.1662 51.03ZM34.6569 54.9726C34.9751 54.9726 35.537 54.892 35.6774 54.2762C35.8314 53.6077 35.3041 53.5897 35.0512 53.5897L34.1474 53.5857L33.8322 54.9726L34.6569 54.9726ZM33.3791 56.6909L32.963 58.2891H34.0272C34.4459 58.2891 35.0165 58.0813 35.1563 57.5612C35.2944 57.0396 34.8955 56.6909 34.4783 56.6909" fill="#0060AF"/>
<path d="M76.0011 52.9515C76.0011 52.9325 76.2974 51.1624 76.3146 51.0787L76.3236 51.0347H77.6823C78.4295 51.0347 79.0409 51.0387 79.0409 51.0436C79.0409 51.0484 78.9689 51.4771 78.8809 51.9963C78.7929 52.5154 78.7209 52.947 78.7209 52.9554C78.7209 52.9649 78.2126 52.9706 77.361 52.9706C76.3186 52.9706 76.0011 52.9662 76.0011 52.9515Z" fill="#00A6B5"/>
<path d="M64.188 52.9235C64.1932 52.8975 64.2671 52.4637 64.3523 51.9595L64.5072 51.0427L67.2328 51.0346L67.2242 51.0786C67.2194 51.1029 67.1455 51.5367 67.0599 52.0427L66.9043 52.9626L64.1785 52.9708L64.188 52.9235Z" fill="#00A6B5"/>
<path d="M91.6529 60.6302C91.6573 60.6104 92.0306 58.5009 92.4825 55.9425L93.3039 51.2907H96V51.364C96 51.4197 94.4645 60.1706 94.3825 60.5822L94.3658 60.6662H91.6448L91.6529 60.6302Z" fill="#00A6B5"/>
<path d="M74.6412 60.6478C74.6412 60.6159 75.8277 53.8593 75.8355 53.8466C75.8396 53.84 76.4509 53.8346 77.194 53.8346C78.4487 53.8346 78.545 53.8365 78.545 53.8615C78.545 53.8804 77.6243 59.1568 77.3666 60.6142L77.3575 60.6662H75.9993C74.9849 60.6662 74.6412 60.6615 74.6412 60.6478Z" fill="#00A6B5"/>
<path d="M62.8271 60.6383C62.8306 60.6228 63.0965 59.1055 63.418 57.2664C63.7395 55.4273 64.0065 53.9028 64.0114 53.8786L64.0203 53.8346H65.379C66.4557 53.8346 66.7374 53.8387 66.7368 53.8546C66.7363 53.8656 66.468 55.4009 66.1405 57.2664L65.5451 60.6582L64.1829 60.6623C62.891 60.6662 62.8211 60.6649 62.8271 60.6383Z" fill="#00A6B5"/>
<path d="M80.5784 60.714C80.1911 60.6872 79.8871 60.635 79.6732 60.5588C79.3141 60.4309 79.1032 60.183 79.0227 59.7942C78.9933 59.6522 78.9906 59.5975 78.9984 59.3063C79.007 58.9808 79.0352 58.733 79.1037 58.3783C79.1215 58.2859 79.2407 57.5984 79.3686 56.8504C79.4964 56.1025 79.6047 55.4743 79.6093 55.4545L79.6175 55.4185H79.1292C78.6745 55.4185 78.641 55.4166 78.6419 55.3905C78.6424 55.3751 78.7022 55.0205 78.7748 54.6025L78.9068 53.8426L79.9154 53.8341L80.0152 53.2784C80.07 52.9727 80.1553 52.4977 80.2046 52.2227L80.2944 51.7227H81.6276C82.3608 51.7227 82.9603 51.7281 82.9599 51.7347C82.9594 51.7413 82.8747 52.2147 82.7717 52.7866L82.5843 53.8266L83.8911 53.8349L83.8821 53.8788C83.8771 53.9029 83.8188 54.2394 83.7525 54.6265C83.6862 55.0137 83.628 55.3503 83.6231 55.3745L83.6141 55.4185H82.9594C82.5689 55.4185 82.3047 55.4245 82.3047 55.4333C82.3047 55.4414 82.1997 56.0408 82.0714 56.7652C81.824 58.1615 81.8007 58.3182 81.8259 58.4137C81.85 58.5044 81.9349 58.6054 82.0226 58.6474C82.1882 58.7267 82.3161 58.7463 82.6676 58.7463H82.9933L82.985 58.7823C82.9804 58.8021 82.9156 59.2143 82.8411 59.6983C82.7666 60.1822 82.7018 60.6003 82.697 60.6272L82.6884 60.6763L82.2046 60.6964C81.5647 60.7231 80.8246 60.7311 80.5784 60.714Z" fill="#00A6B5"/>
<path d="M84.1581 60.5828C83.946 60.4768 83.9176 60.4571 83.783 60.3231C83.6306 60.1715 83.5429 60.0397 83.4677 59.8495C83.377 59.6201 83.359 59.4431 83.3862 59.0503C83.4143 58.6464 83.4677 58.4431 83.6259 58.1383C83.7205 57.9562 83.8071 57.8439 84.0125 57.6366C84.3967 57.2487 84.8064 57.0099 85.3616 56.8501C85.5954 56.7828 86.4146 56.6448 87.1181 56.5542C87.9083 56.4523 88.3421 56.3697 88.5074 56.2894C88.6175 56.2359 88.7405 56.0997 88.7848 55.9824C88.8536 55.8003 88.8003 55.5789 88.6622 55.4736C88.5899 55.4185 88.3631 55.3507 88.1531 55.3216C87.9383 55.2917 87.5834 55.3512 87.3658 55.4534C87.2436 55.5109 87.0966 55.6609 87.0339 55.7924C87.0039 55.8551 86.9754 55.9191 86.9705 55.9345C86.962 55.9608 86.8846 55.9625 85.6415 55.9625H84.3214L84.3308 55.9105C84.4651 55.1639 84.9018 54.5777 85.6006 54.2064C86.2201 53.8772 87.0305 53.7146 88.2164 53.6814C89.2049 53.6538 90.1297 53.7858 90.6576 54.0299C90.9579 54.1688 91.2016 54.3781 91.3149 54.5945C91.433 54.82 91.5042 55.1603 91.5042 55.4989C91.5042 55.7399 91.488 55.9322 91.4388 56.2744C91.4051 56.5088 90.8199 59.8154 90.809 59.833C90.8056 59.8386 90.7947 59.9023 90.7848 59.9745C90.7529 60.2076 90.82 60.4158 90.9724 60.5563C91.042 60.6204 91.0436 60.6241 91.0301 60.6874L91.0163 60.7525L90.7843 60.7476C90.6567 60.7449 90.0267 60.7273 89.3844 60.7085L88.2164 60.6742L88.2078 59.9469L88.1081 60.0278C87.6627 60.3893 87.0897 60.6614 86.5285 60.7777C85.6977 60.9294 84.8491 60.9238 84.1581 60.5828ZM87.1685 59.3533C87.325 59.3282 87.5234 59.2545 87.6677 59.1678C88.1123 58.9008 88.3611 58.4457 88.4558 57.7264C88.4607 57.689 88.4613 57.6584 88.457 57.6584C88.4527 57.6584 88.3969 57.6791 88.3328 57.7044C88.093 57.7992 87.7993 57.8847 87.5306 57.9377C87.083 58.026 86.7824 58.1144 86.5776 58.2178C86.4607 58.2768 86.3317 58.4153 86.2678 58.5502C86.2232 58.6442 86.2158 58.6786 86.2111 58.8134C86.206 58.9583 86.2085 58.974 86.2503 59.0507C86.301 59.144 86.3561 59.1953 86.4635 59.2498C86.6609 59.3498 86.9374 59.3904 87.1685 59.3533Z" fill="#00A6B5"/>
<path d="M69.1055 62.9058C68.4313 62.8502 67.9088 62.7335 67.5228 62.5521C67.1834 62.3926 66.8656 62.1374 66.6819 61.8767C66.5399 61.6752 66.4324 61.371 66.4098 61.1062C66.4043 61.0421 66.4069 60.9842 66.4159 60.9709C66.4296 60.9506 66.5969 60.9522 67.7405 60.9836C68.4604 61.0033 69.0795 61.0231 69.1162 61.0276C69.1805 61.0355 69.1833 61.0382 69.1936 61.103C69.2179 61.2566 69.2832 61.3379 69.45 61.4224C69.5759 61.4862 69.7023 61.5041 69.9507 61.4934C70.2716 61.4796 70.4983 61.4044 70.7003 61.2447C70.9146 61.0752 71.1575 60.5855 71.1946 60.2478C71.2007 60.1919 71.2292 60.0238 71.258 59.8742C71.2867 59.7247 71.3088 59.6007 71.307 59.5988C71.3052 59.5969 71.2501 59.6353 71.1846 59.6841C70.6976 60.0467 70.1554 60.2586 69.5731 60.3139C69.3673 60.3335 68.8975 60.3204 68.6973 60.2896C68.1979 60.2127 67.7077 59.9622 67.3747 59.6136C66.9267 59.1447 66.6793 58.4307 66.7138 57.7064C66.7466 57.0189 66.8645 56.511 67.1335 55.8985C67.3436 55.4202 67.624 54.9896 67.9438 54.6542C68.4829 54.0887 69.1372 53.756 69.9534 53.6324C70.2295 53.5906 70.6482 53.594 70.8604 53.6397C71.4577 53.7684 71.9373 54.0798 72.2264 54.5268C72.3077 54.6526 72.3207 54.6661 72.3283 54.6327C72.333 54.6117 72.366 54.4325 72.4015 54.2346C72.4369 54.0366 72.47 53.8548 72.4749 53.8306L72.4838 53.7866H74.8818L74.8733 53.8226C74.8686 53.8424 74.6453 55.0933 74.3769 56.6024C73.7951 59.8742 73.827 59.7026 73.7296 60.0822C73.4927 61.0056 73.3044 61.4048 72.8808 61.8814C72.6117 62.1842 72.1734 62.4754 71.7773 62.6146C71.5047 62.7104 70.9777 62.8173 70.4894 62.876C70.1818 62.9129 69.3971 62.9299 69.1055 62.9058ZM70.7184 58.4256C70.9197 58.3751 71.0946 58.2778 71.234 58.1387C71.4958 57.8774 71.6934 57.4939 71.7675 57.103C71.8061 56.8997 71.8179 56.4587 71.7885 56.3224C71.7295 56.0491 71.6241 55.8714 71.4455 55.7439C71.2664 55.6161 71.1599 55.586 70.8974 55.5889C70.4376 55.5939 70.1626 55.7379 69.9241 56.0985C69.7391 56.3779 69.6284 56.664 69.559 57.0415C69.5231 57.2373 69.5187 57.2963 69.5254 57.4984C69.5318 57.691 69.5401 57.7521 69.5747 57.8584C69.682 58.1882 69.9196 58.3984 70.2536 58.4587C70.3584 58.4777 70.5715 58.4625 70.7184 58.4256Z" fill="#00A6B5"/>
<path d="M56.9411 60.8335C56.0084 60.7064 55.3671 60.1918 55.0377 59.3063C54.8713 58.8588 54.8365 58.4081 54.9072 57.6136C54.9407 57.2367 55.064 56.7595 55.2637 56.2344C55.4155 55.8351 55.5101 55.6485 55.7382 55.2985C56.3205 54.4051 57.0586 53.8703 57.9798 53.6745C58.5396 53.5556 59.3644 53.6678 59.7886 53.9207C59.9459 54.0144 60.1617 54.2093 60.2771 54.3618C60.3207 54.4194 60.361 54.465 60.3667 54.4632C60.3723 54.4613 60.5037 53.7413 60.6585 52.8632L60.9401 51.2667L63.6664 51.2585L63.6581 51.2946C63.6536 51.3145 63.2823 53.4186 62.833 55.9705C62.3838 58.5223 62.0125 60.6228 62.008 60.6382C62.0002 60.6645 61.9277 60.6662 60.7766 60.6662H59.5534L59.5615 60.6302C59.566 60.6104 59.599 60.425 59.6349 60.2182C59.6708 60.0114 59.7043 59.8242 59.7093 59.8022C59.716 59.7729 59.6613 59.8181 59.5042 59.9716C59.1767 60.2917 58.7993 60.5552 58.5073 60.6678C58.3359 60.7339 58.0638 60.8031 57.856 60.8334C57.647 60.8639 57.1644 60.8639 56.9411 60.8335ZM58.7817 58.8904C59.0853 58.8179 59.3276 58.6585 59.524 58.4023C59.6203 58.2767 59.7237 58.1068 59.7794 57.983C59.9744 57.5492 60.066 56.8234 59.9727 56.4504C59.9213 56.2445 59.839 56.0863 59.7226 55.9694C59.5504 55.7963 59.3486 55.7305 59.0353 55.7453C58.7084 55.7607 58.491 55.8503 58.2383 56.0737C58.1025 56.1938 57.8941 56.539 57.7885 56.8187C57.6689 57.1355 57.5941 57.6153 57.6064 57.9854C57.6155 58.2559 57.6443 58.384 57.7377 58.5696C57.8212 58.7353 57.9917 58.8635 58.1994 58.9166C58.31 58.9449 58.6099 58.9314 58.7817 58.8904Z" fill="#00A6B5"/>
</g>
<rect x="1" y="1" width="110" height="110" rx="9" stroke="#CCCCCC" stroke-width="2"/>
<defs>
<clipPath id="clip0_642_1013">
<rect x="2" y="2" width="108" height="108" rx="8" fill="white"/>
</clipPath>
</defs>
</svg>
