<svg width="113" height="112" viewBox="0 0 113 112" fill="none" xmlns="http://www.w3.org/2000/svg">
<g clip-path="url(#clip0_6_7360)">
<rect x="2.49988" y="2" width="108" height="108" rx="8" fill="white"/>
<path d="M43.7406 42.1689L43.2183 44.7342C48.3794 44.7137 64.6201 38.7454 65.3743 35.1848C65.3743 35.1854 65.4241 34.9517 65.4727 34.7167C65.5213 34.483 65.5693 34.2493 65.5662 34.2493C58.5303 38.9835 47.9014 42.1583 43.7406 42.1689ZM42.7559 46.5946L42.2691 48.9555C47.2451 48.9462 63.6709 42.9679 64.425 39.4067L64.6338 38.3883C57.358 43.4266 47.1697 46.4718 42.7559 46.5946ZM41.6957 50.9025L41.1722 53.4653C46.1794 53.3681 62.5752 47.4784 63.3294 43.9184L63.5781 42.7006C57.9383 46.6202 46.2367 50.9268 41.6957 50.9025Z" fill="url(#paint0_linear_6_7360)"/>
<path d="M16.8353 58.8098H18.7206V65.3963H18.7642C19.4361 64.2271 20.6489 63.4679 22.3398 63.4679C24.9407 63.4679 26.7817 65.6344 26.7593 68.821C26.7593 72.568 24.3984 74.4309 22.0575 74.4309C20.5405 74.4309 19.327 73.8463 18.5473 72.4602H18.4825L18.3965 74.1928H16.7493C16.7923 73.4773 16.8353 72.4153 16.8353 71.4842V58.8098ZM18.7206 69.9896C18.7206 70.2277 18.7642 70.4652 18.8079 70.6827C19.1762 72.004 20.2812 72.9152 21.668 72.9152C23.6611 72.9152 24.8534 71.2897 24.8534 68.884C24.8534 66.7818 23.7689 64.9843 21.7328 64.9843C20.4321 64.9843 19.2186 65.8724 18.8284 67.3246C18.7854 67.5415 18.7206 67.8008 18.7206 68.1049V69.9896Z" fill="#1B517E"/>
<path d="M36.2721 71.6792C36.2721 72.5898 36.3151 73.4773 36.4454 74.1928H34.7115L34.56 72.8709H34.4946C33.91 73.6948 32.7825 74.4309 31.2886 74.4309C29.1646 74.4309 28.082 72.9369 28.082 71.4206C28.082 68.8846 30.3344 67.4972 34.3868 67.5209V67.3027C34.3868 66.437 34.1487 64.8758 32.0035 64.8758C31.0281 64.8758 30.0103 65.1787 29.273 65.6561L28.8386 64.399C29.7062 63.8362 30.9639 63.4679 32.2846 63.4679C35.4918 63.4679 36.2721 65.6561 36.2721 67.7577V71.6792ZM34.4304 68.8409C32.3494 68.7973 29.9885 69.1663 29.9885 71.2018C29.9885 72.4383 30.8112 73.0236 31.786 73.0236C33.1515 73.0236 34.0178 72.156 34.3213 71.2685C34.3868 71.0722 34.4304 70.8559 34.4304 70.6621V68.8409Z" fill="#1B517E"/>
<path d="M39.198 66.5435C39.198 65.4603 39.1756 64.5734 39.1114 63.7058H40.7998L40.9095 65.4391H40.9518C41.4729 64.4437 42.6864 63.4677 44.4196 63.4677C45.8699 63.4677 48.1248 64.3347 48.1248 67.9302V74.1932H46.2171V68.1477C46.2171 66.4575 45.5901 65.0483 43.7908 65.0483C42.5343 65.0483 41.5576 65.9377 41.2329 66.9997C41.1469 67.2365 41.1033 67.5625 41.1033 67.8884V74.1932H39.198V66.5435Z" fill="#1B517E"/>
<path d="M52.8043 68.5164H52.8473C53.1078 68.1474 53.4761 67.6925 53.7803 67.3248L56.8567 63.7062H59.1533L55.1016 68.0178L59.7155 74.193H57.3989L53.7803 69.1665L52.8043 70.2497V74.193H50.9189V58.8099H52.8043V68.5164Z" fill="#1B517E"/>
<path d="M75.4261 64.0772C75.3551 63.9924 75.2853 63.9076 75.2099 63.8297C75.0865 63.7026 74.9493 63.5823 74.8035 63.4689C74.0145 62.8244 73.0609 62.4455 72.0332 62.4455C70.9238 62.4455 69.9023 62.8905 69.0802 63.6315C69.0559 63.6465 69.0353 63.6633 69.011 63.677C68.9817 63.692 68.94 63.7138 68.8913 63.7007C68.7567 63.6652 68.6115 63.5212 68.6109 63.3149V59.0263C68.6109 58.7577 68.3896 58.5402 68.1191 58.5402H66.0325C65.7601 58.5402 65.5401 58.7577 65.5401 59.0263V59.1759C65.5401 59.1809 65.5389 59.1853 65.5389 59.1915V59.6888L65.5426 73.5126C65.5426 73.7868 65.7645 74.0099 66.0381 74.0099H67.9272C68.0475 74.0099 68.1565 73.9644 68.2432 73.8921C68.2457 73.8902 68.25 73.8902 68.2513 73.8877C68.2544 73.8859 68.2556 73.8828 68.2575 73.8803C68.298 73.8447 68.3298 73.803 68.3566 73.7562H68.3572C68.3896 73.6952 68.4114 73.631 68.4189 73.5599C68.4563 73.2545 68.6645 73.0856 68.7935 73.1299C68.8377 73.1442 68.8801 73.1654 68.9238 73.1953C68.968 73.2227 69.011 73.2527 69.0534 73.2807C69.1812 73.3742 69.7452 73.76 70.1809 73.9544C70.4009 74.0517 71.1014 74.2891 71.9147 74.2891C72.7287 74.2891 73.3065 74.109 73.4429 74.0729C73.5801 74.0361 73.7147 73.99 73.8443 73.9308C74.4813 73.6565 74.993 73.2807 75.3825 72.8039C75.767 72.3359 76.0862 71.7818 76.3448 71.1454C76.7293 70.3072 76.9481 69.3467 76.9481 68.3234C76.9481 66.6524 76.3629 65.1473 75.4261 64.0772ZM71.1176 72.0809C69.5888 72.0809 68.3485 70.4343 68.3485 68.4038C68.3485 66.372 69.5888 64.7253 71.1176 64.7253C72.6458 64.7253 73.8848 66.372 73.8848 68.4038C73.8848 70.4343 72.6458 72.0809 71.1176 72.0809Z" fill="#1B517E"/>
<path d="M82.38 63.6757C82.3782 63.6477 82.3751 63.6203 82.3726 63.5935V63.227C82.3726 62.9515 82.1507 62.7284 81.8752 62.7284H79.7724C79.4969 62.7284 79.2738 62.9515 79.2738 63.227V74.5558C79.2632 74.8444 78.9123 75.2402 78.5065 75.338C78.3196 75.396 78.132 75.4228 77.9437 75.414C77.7555 75.4072 77.6265 75.4832 77.5536 75.6422C77.5249 75.7132 77.5037 75.8079 77.4881 75.9245C77.4751 76.0398 77.4913 77.2539 77.4994 77.3542C77.5075 77.4558 77.5249 77.5418 77.5536 77.6135C77.6402 77.7444 77.7923 77.831 78.0086 77.8746C78.0809 77.9039 79.4769 77.9077 80.4162 77.6796C80.7845 77.5904 81.0812 77.4122 81.328 77.2258C81.5717 77.0376 81.7892 76.7983 81.9787 76.5091C82.1956 76.1626 82.314 75.725 82.3364 75.1978C82.3433 75.0388 82.3726 74.6238 82.3726 74.5751V64.2809C82.3751 64.2254 82.3769 64.1693 82.38 64.1101C82.3875 63.9662 82.3875 63.821 82.38 63.6757Z" fill="#1B517E"/>
<path d="M94.7287 64.0772C94.6589 63.9924 94.5885 63.9076 94.5124 63.8297C94.389 63.7026 94.2513 63.5823 94.1061 63.4689C93.3177 62.8244 92.3641 62.4455 91.3357 62.4455C90.2269 62.4455 89.2054 62.8905 88.384 63.6315C88.3591 63.6465 88.3379 63.6633 88.3129 63.677C88.2843 63.692 88.2438 63.7138 88.1945 63.7007C88.0599 63.6652 87.9147 63.5212 87.9128 63.3149V59.0263C87.9128 58.7577 87.6934 58.5402 87.4223 58.5402H85.3357C85.0633 58.5402 84.8433 58.7577 84.8433 59.0263V59.1759C84.8433 59.1809 84.8414 59.1853 84.8414 59.1915V59.6888L84.8445 73.5126C84.8445 73.7868 85.067 74.0099 85.3419 74.0099H87.2285C87.3506 74.0099 87.4603 73.9644 87.5463 73.8921C87.5488 73.8902 87.5513 73.8902 87.5544 73.8877C87.5569 73.8859 87.5588 73.8828 87.5607 73.8803C87.5993 73.8447 87.6336 73.803 87.6598 73.7562L87.661 73.7544C87.6934 73.6952 87.7146 73.631 87.7221 73.5599C87.7595 73.2545 87.9664 73.0856 88.096 73.1299C88.1403 73.1442 88.1839 73.1654 88.2269 73.1953C88.2699 73.2227 88.3129 73.2527 88.3572 73.2807C88.4843 73.3742 89.0478 73.76 89.484 73.9544C89.704 74.0517 90.4033 74.2891 91.2185 74.2891C92.0306 74.2891 92.6084 74.109 92.7461 74.0729C92.8832 74.0361 93.0172 73.99 93.1475 73.9308C93.7826 73.6565 94.2968 73.2807 94.6863 72.8039C95.0709 72.3359 95.39 71.7818 95.648 71.1454C96.0319 70.3072 96.2507 69.3467 96.2507 68.3234C96.2507 66.6524 95.6648 65.1473 94.7287 64.0772ZM90.4214 72.0809C88.8913 72.0809 87.6523 70.4343 87.6523 68.4038C87.6523 66.372 88.8913 64.7253 90.4214 64.7253C91.9496 64.7253 93.1886 66.372 93.1886 68.4038C93.1886 70.4343 91.9496 72.0809 90.4214 72.0809Z" fill="#1B517E"/>
<path d="M80.7866 58.6643C80.4875 58.6686 80.2245 58.7366 79.9982 58.8681C79.7757 59.004 79.6037 59.1853 79.4815 59.4078C79.3544 59.6341 79.2914 59.8834 79.2914 60.1601C79.2914 60.4275 79.3544 60.6674 79.4722 60.8893C79.59 61.1118 79.7576 61.2888 79.9708 61.424C80.1883 61.5555 80.442 61.6235 80.7324 61.6285C81.0584 61.6235 81.3351 61.5555 81.562 61.424C81.7882 61.2888 81.9602 61.1118 82.078 60.8893C82.1958 60.6674 82.255 60.4275 82.255 60.1601C82.255 59.8834 82.1914 59.6341 82.0736 59.4078C81.9558 59.1853 81.7838 59.004 81.5657 58.8681C81.3482 58.7366 81.0858 58.6686 80.7866 58.6643Z" fill="#1B517E"/>
</g>
<rect x="1.5" y="1" width="110" height="110" rx="9" stroke="#CCCCCC" stroke-width="2"/>
<defs>
<linearGradient id="paint0_linear_6_7360" x1="39.5824" y1="34.6272" x2="69.0375" y2="33.5986" gradientUnits="userSpaceOnUse">
<stop stop-color="#3AA7DF"/>
<stop offset="0.12" stop-color="#227AAB"/>
<stop offset="0.42" stop-color="#1B517E"/>
<stop offset="0.57" stop-color="#8B8666"/>
<stop offset="1" stop-color="#EFC900"/>
</linearGradient>
<clipPath id="clip0_6_7360">
<rect x="2.5" y="2" width="108" height="108" rx="8" fill="white"/>
</clipPath>
</defs>
</svg>
