<svg width="112" height="112" viewBox="0 0 112 112" fill="none" xmlns="http://www.w3.org/2000/svg">
<g clip-path="url(#clip0_6_7363)">
<rect x="2" y="1.99999" width="108" height="108" rx="8" fill="white"/>
<path d="M28.1195 37.0361C31.3796 37 34.6426 37.0302 37.9037 37.0205C39.4527 37.0341 41.0048 36.9932 42.5529 37.04C43.4474 37.1805 44.3351 37.5541 44.9448 38.2428C45.5469 38.9249 45.9049 39.7881 45.9622 40.6961C46.0022 41.3224 45.9466 41.9506 45.9388 42.5779C45.8177 41.789 45.497 41.0443 45.0072 40.4142C44.0122 39.1783 42.5782 38.3306 41.0418 37.9609C39.2167 37.5024 37.3193 37.6828 35.4581 37.6526C35.3147 37.637 35.0913 37.6828 35.1303 37.8779C35.1303 41.3604 35.1303 44.8449 35.1303 48.3274C35.0864 48.5391 35.3411 48.4708 35.4601 48.4884C37.6608 48.4484 39.9571 48.7176 42.0515 47.8757C43.3664 47.3431 44.6063 46.4818 45.3467 45.2487C45.644 44.7302 45.8474 44.1632 45.9476 43.5738C45.9895 45.1824 45.9378 46.7929 45.9671 48.4015C45.6803 48.4991 45.3954 48.6122 45.1174 48.7342C45.3974 48.7956 45.6783 48.8512 45.9602 48.9029C45.9388 49.6511 45.9495 50.4013 45.9554 51.1466C44.9955 50.4764 43.9673 49.8862 42.8338 49.5702C41.3706 49.1195 39.8195 49.1156 38.2997 49.1224C37.2472 49.1302 36.1946 49.1107 35.143 49.1419C35.1303 52.8907 35.143 56.6405 35.1372 60.3903C35.0835 60.5991 35.3215 60.5854 35.4591 60.5854C36.8248 60.5854 38.1905 60.5854 39.5561 60.5854C41.7705 60.5727 44.058 60.005 45.8237 58.6188C46.4321 58.1819 46.9326 57.6117 47.2869 56.9517C48.041 55.6972 48.0878 54.0155 47.2869 52.7708C47.2011 51.6285 47.2869 50.4784 47.2537 49.3331C48.717 49.8989 50.0602 50.8715 50.9001 52.2147C51.3114 52.8508 51.5735 53.5718 51.6665 54.3236C51.7596 55.0753 51.6814 55.8384 51.4376 56.5557C50.9128 58.095 49.6496 59.2675 48.2644 60.0518C47.2333 60.5669 46.1339 60.9649 44.9848 61.1083C44.3848 61.1688 43.7859 61.2565 43.1811 61.2448C38.1085 61.2357 33.036 61.2338 27.9634 61.239C28.8531 61.0351 29.7447 60.6664 30.3485 59.9533C30.981 59.2117 31.3209 58.2647 31.3045 57.2902C31.3045 52.5753 31.3045 47.8605 31.3045 43.1456C31.3045 42.2676 31.3386 41.3829 31.2772 40.5049C31.2238 39.8665 31.0097 39.2519 30.6547 38.7185C30.2998 38.1851 29.8155 37.7503 29.2472 37.4546C28.8979 37.2478 28.4921 37.1834 28.1195 37.0361Z" fill="#020202"/>
<path d="M67.9702 38.3842C71.9932 36.5513 76.8091 36.5454 80.794 38.474C80.9813 38.5501 81.2291 38.7169 81.4057 38.5237C81.9266 38.0282 82.4309 37.5112 82.9333 37C82.9021 39.6094 82.946 42.2208 82.9108 44.8303C82.8328 44.6962 82.77 44.5539 82.7236 44.4059C82.1285 42.7476 81.1803 41.1985 79.8878 39.9909C78.8148 38.9744 77.4949 38.1852 76.0424 37.8594C74.2996 37.4529 72.4692 37.6729 70.8723 38.4808C69.2851 39.3023 67.9574 40.5489 67.0377 42.0813C66.4016 43.07 65.9271 44.1537 65.632 45.2917C64.9911 47.3246 64.9491 49.5165 65.2915 51.6099C65.3627 52.1113 65.5325 52.5922 65.6037 53.0936L65.6837 53.161C65.7123 53.5133 65.7214 53.867 65.711 54.2203L65.5852 54.1677L65.6164 54.1384C63.958 52.3825 62.2431 50.6676 60.5984 48.8932C60.6794 46.9481 61.2276 45.0137 62.2685 43.3631C63.131 41.9684 64.2576 40.7556 65.5852 39.7928C66.3432 39.2633 67.1405 38.7924 67.9702 38.3842Z" fill="#020202"/>
<path d="M47.2459 41.498C48.0819 42.3233 48.9238 43.1436 49.7325 43.9972C49.4291 45.1424 48.8916 46.3072 47.9327 47.0407C47.7191 47.1988 47.3406 47.5148 47.2216 47.588C47.2616 45.559 47.2157 43.528 47.2459 41.498Z" fill="#020202"/>
<path d="M82.6767 53.9735C82.7362 53.8292 82.7743 53.6653 82.905 53.5648C82.9323 56.1118 82.9118 58.6598 82.9157 61.2068C82.3763 60.7405 81.9032 60.202 81.3881 59.7094C81.2626 59.5755 81.1325 59.5755 80.9979 59.7094C79.4235 60.4293 77.7564 60.9727 76.0229 61.1444C73.1306 61.4585 70.1368 60.9805 67.5362 59.6577C67.3547 59.5494 67.1226 59.5036 66.9928 59.328C66.986 58.2716 66.9733 57.2141 66.9928 56.1577C67.9508 57.6463 69.2365 58.9563 70.8265 59.7611C72.282 60.4946 73.9308 60.7535 75.541 60.5015C77.3203 60.2167 78.9191 59.2509 80.1736 57.9965C81.2767 56.8426 82.1289 55.4729 82.6767 53.9735Z" fill="#020202"/>
<path d="M16.0185 66.3281C16.2283 66.3515 16.6311 66.215 16.6389 66.5466C16.6692 67.2295 16.6389 67.9123 16.6516 68.5952C17.2145 68.205 17.9383 68.1582 18.5889 68.3103C19.3079 68.5054 19.8571 69.2195 19.8288 69.9687C19.8288 70.7491 19.8346 71.5295 19.8288 72.3098C19.8182 72.6726 19.6931 73.0227 19.4715 73.3101C19.2498 73.5974 18.943 73.8073 18.5948 73.9097C17.8554 74.095 16.955 74.0072 16.4331 73.3917C16.1439 73.0698 15.992 72.6476 16.0097 72.2152C16.0107 70.2535 15.9824 68.2898 16.0185 66.3281ZM17.671 68.8878C17.3948 68.9007 17.1347 69.0215 16.9467 69.2242C16.7586 69.4269 16.6576 69.6952 16.6653 69.9716C16.6653 70.7188 16.6389 71.466 16.6516 72.2152C16.6409 72.6054 16.8379 73.0161 17.1969 73.1956C17.5003 73.378 17.8681 73.3458 18.2066 73.3253C18.4659 73.3058 18.709 73.1921 18.8902 73.0055C19.0714 72.819 19.1779 72.5725 19.1898 72.3128C19.2142 71.5636 19.1996 70.8144 19.1967 70.0691C19.2076 69.8985 19.1801 69.7275 19.1163 69.5688C19.0525 69.4102 18.954 69.2678 18.8279 69.1522C18.5177 68.8654 18.0661 68.8566 17.671 68.8878Z" fill="#020202"/>
<path d="M30.3592 66.332C30.56 66.3157 30.7621 66.3289 30.9591 66.3711C31.0128 66.8588 30.9826 67.3465 30.9894 67.8275C30.9894 69.8126 30.9952 71.7977 30.9894 73.7779C30.9826 74.1028 30.5299 73.9974 30.3426 73.894C30.3612 71.3763 30.3202 68.8527 30.3592 66.332Z" fill="#020202"/>
<path d="M22.249 68.285C22.6948 68.2099 23.1738 68.1942 23.6 68.3689C24.1697 68.5864 24.6048 69.1493 24.6087 69.7716C24.6253 71.1714 24.6087 72.5723 24.6087 73.9731C24.3063 74.093 24.1834 73.8063 24.0849 73.5829C23.6869 73.8209 23.2498 74.0306 22.7738 74.0131C22.2236 73.9945 21.6208 73.8755 21.2286 73.4561C20.8004 72.9976 20.6882 72.3138 20.8306 71.7167C20.917 71.3892 21.1021 71.0961 21.3607 70.8773C21.6193 70.6585 21.939 70.5245 22.2763 70.4935C22.8382 70.4476 23.401 70.4935 23.9629 70.4681C23.9629 70.0467 24.0361 69.557 23.7259 69.2175C23.364 68.8127 22.7309 68.8147 22.2431 68.9571C21.8598 69.0771 21.6578 69.4448 21.5964 69.8233C21.3876 69.8321 21.1799 69.8321 20.9711 69.8233C20.9806 69.4607 21.1118 69.1118 21.3436 68.8328C21.5754 68.5538 21.8943 68.3608 22.249 68.285ZM21.8042 71.3373C21.1701 71.8562 21.3525 73.0932 22.1827 73.3019C22.7426 73.377 23.4879 73.4326 23.8156 72.86C24.0868 72.3264 23.921 71.6943 23.9571 71.1188C23.4693 71.1071 22.9816 71.1051 22.4938 71.1129C22.2446 71.1036 22.0002 71.1832 21.8042 71.3373Z" fill="#020202"/>
<path d="M25.5598 68.2401C25.671 68.2352 25.7822 68.2323 25.8934 68.2303C25.9578 68.3767 26.0222 68.523 26.0885 68.6693C26.5002 68.4011 26.9548 68.1552 27.464 68.1816C28.4053 68.1572 29.3701 68.8839 29.3867 69.8701C29.3915 71.2261 29.3993 72.583 29.3867 73.9389C29.1867 73.9389 28.974 73.9906 28.7848 73.9038C28.7058 72.5625 28.7906 71.2144 28.7399 69.8711C28.7317 69.6749 28.6674 69.4852 28.5547 69.3244C28.442 69.1636 28.2855 69.0385 28.1039 68.9639C27.77 68.8542 27.4141 68.8287 27.0679 68.8898C26.8366 68.9336 26.6271 69.055 26.474 69.234C26.3209 69.4129 26.2335 69.6387 26.2261 69.874C26.1987 71.2085 26.2348 72.544 26.2114 73.8736C26.0875 74.1087 25.7598 73.9711 25.5627 73.9145C25.5354 72.025 25.5715 70.1326 25.5598 68.2401Z" fill="#020202"/>
<path d="M33.2525 68.4459C33.432 68.1016 33.8671 68.284 34.1734 68.243C33.5793 69.0302 33.0145 69.8399 32.4087 70.6193C32.2663 70.8047 31.9707 71.0407 32.1687 71.2904C32.8516 72.1684 33.513 73.0658 34.1529 73.975C33.869 73.9487 33.4593 74.1116 33.275 73.8121C32.6243 72.9117 31.9629 72.0211 31.3064 71.1256C31.9298 70.2145 32.6116 69.3443 33.2525 68.4459Z" fill="#020202"/>
<path d="M38.0022 68.2157C38.3192 68.1377 38.4324 68.4313 38.5494 68.6586C39.1016 68.2264 39.8605 68.0538 40.5336 68.284C41.2652 68.4966 41.8427 69.1912 41.8193 69.9716C41.8066 71.2973 41.8524 72.6259 41.8017 73.9506C41.6066 73.9165 41.234 74.0696 41.1872 73.7916C41.1569 72.5235 41.1872 71.2475 41.1716 69.9765C41.1647 69.635 41.0311 69.279 40.7414 69.08C40.3941 68.8429 39.9483 68.841 39.5464 68.8849C39.2896 68.925 39.0563 69.0576 38.8904 69.2577C38.7246 69.4579 38.6377 69.7118 38.646 69.9716C38.646 71.2934 38.646 72.6152 38.646 73.9369C38.4408 74.005 38.2197 74.0094 38.0119 73.9496C37.9446 73.3721 37.9924 72.7898 37.9778 72.2103C37.9885 70.8788 37.97 69.5472 38.0022 68.2157Z" fill="#020202"/>
<path d="M42.9947 69.1112C43.3118 68.5337 43.9702 68.2128 44.6228 68.2333C45.2803 68.1806 45.9798 68.4576 46.3261 69.039C46.6938 69.5707 46.5836 70.2418 46.6011 70.8495C46.6129 70.9871 46.5943 71.2027 46.3953 71.1558C45.4198 71.1617 44.4443 71.1412 43.4688 71.1656L43.4152 71.2046C43.4396 71.7899 43.2611 72.4727 43.6717 72.9605C44.0258 73.3819 44.6355 73.3712 45.135 73.3039C45.6959 73.1809 45.9983 72.5976 45.9749 72.0572C46.17 72.0572 46.3592 72.0572 46.5524 72.0572C46.6928 72.5186 46.4665 73.019 46.1778 73.3799C45.7154 73.9389 44.9223 74.0686 44.2395 73.9594C43.4747 73.8521 42.8133 73.179 42.7762 72.3986C42.7431 71.784 42.7645 71.1675 42.7597 70.552C42.7675 70.0691 42.7284 69.5424 42.9947 69.1112ZM43.7449 69.1892C43.3547 69.517 43.4171 70.0555 43.4123 70.5091C44.2531 70.5208 45.0969 70.5461 45.9368 70.4935C45.9739 70.0984 46.0032 69.6575 45.7486 69.3229C45.2803 68.7288 44.3009 68.721 43.7449 69.1912V69.1892Z" fill="#020202"/>
<path d="M55.5259 68.9532C56.001 68.2498 56.9511 68.1289 57.7227 68.2937C58.1254 68.3962 58.4774 68.6409 58.7137 68.9827C58.95 69.3244 59.0547 69.7401 59.0084 70.153C58.8084 70.153 58.6085 70.153 58.4085 70.153C58.4085 69.6575 58.1763 69.1102 57.6691 68.9542C57.1667 68.8283 56.5443 68.8098 56.1492 69.198C55.8859 69.4468 55.8283 69.8253 55.8332 70.1735C55.8332 70.8876 55.8166 71.6016 55.8439 72.3196C55.8551 72.5699 55.955 72.8081 56.1257 72.9916C56.2963 73.1752 56.5266 73.292 56.7755 73.3214C57.1901 73.3575 57.6642 73.3887 57.9968 73.0873C58.309 72.8473 58.3792 72.4405 58.4163 72.0728C58.6182 72.0728 58.8201 72.0728 59.024 72.0728C59.0541 72.4332 58.9756 72.7943 58.7987 73.1097C58.1158 74.292 56.1171 74.3018 55.4332 73.1195C55.085 72.5517 55.2225 71.8631 55.1981 71.2339C55.2411 70.4759 55.0333 69.6155 55.5259 68.9532Z" fill="#020202"/>
<path d="M61.3603 68.2781C61.8588 68.2089 62.4012 68.1894 62.8626 68.4264C63.146 68.5715 63.3842 68.7917 63.5509 69.0631C63.7176 69.3344 63.8065 69.6463 63.8078 69.9648C63.8156 70.6476 63.8 71.3305 63.8156 72.0133C63.8332 72.5567 63.682 73.1322 63.2694 73.5097C62.7728 73.9975 62.011 74.0677 61.3564 73.9487C60.5995 73.8053 59.9839 73.0971 59.9908 72.3206C59.9829 71.506 59.9771 70.6925 59.9908 69.8819C59.9839 69.1054 60.6092 68.4108 61.3603 68.2781ZM61.5671 68.8898C61.3051 68.9267 61.0648 69.0559 60.8895 69.2543C60.7142 69.4526 60.6155 69.707 60.6112 69.9716C60.6277 70.752 60.5926 71.5265 60.6199 72.303C60.6288 72.5013 60.6924 72.6933 60.8038 72.8576C60.9153 73.0219 61.0701 73.1521 61.2511 73.2336C61.5437 73.3575 61.8725 73.338 62.1856 73.3244C62.6597 73.2902 63.126 72.9059 63.1347 72.4084C63.2118 71.4796 63.204 70.5458 63.1113 69.6185C62.9367 68.9688 62.1524 68.7893 61.5642 68.8898H61.5671Z" fill="#020202"/>
<path d="M64.7599 68.2372C65.0301 68.1728 65.1774 68.3562 65.2788 68.5776C65.8202 68.2723 66.466 68.1191 67.0747 68.3074C67.4122 68.3757 67.6678 68.6137 67.9429 68.8029C68.6121 68.1435 69.7515 68.0226 70.5241 68.5718C70.7089 68.7131 70.8594 68.8945 70.9641 69.1023C71.0689 69.3101 71.1252 69.5389 71.1289 69.7716C71.1289 71.1627 71.1289 72.5547 71.1338 73.9467C70.9312 74.0084 70.7145 74.006 70.5133 73.9399C70.4773 72.5839 70.5133 71.2261 70.4938 69.8701C70.5007 69.4712 70.2812 69.0458 69.8783 68.9317C69.4071 68.7971 68.7926 68.8078 68.4668 69.2302C68.3232 69.4117 68.2554 69.6417 68.2775 69.8721C68.2775 71.1734 68.2775 72.4747 68.2824 73.774C68.299 74.0969 67.862 74.0091 67.6708 73.9379C67.6034 73.7945 67.6259 73.6306 67.6171 73.4794C67.6171 72.2415 67.6239 71.0027 67.6171 69.7648C67.6133 69.5571 67.5382 69.3571 67.4045 69.1981C67.2708 69.0392 67.0865 68.931 66.8826 68.8917C66.4699 68.8186 65.9744 68.8234 65.6642 69.1483C65.4505 69.3619 65.3969 69.6731 65.4008 69.9638C65.4008 71.1675 65.4008 72.3723 65.4076 73.5731C65.406 73.7204 65.3876 73.867 65.353 74.0101C65.1564 73.9979 64.9609 73.9725 64.7677 73.934C64.7121 72.0386 64.7745 70.1374 64.7599 68.2372Z" fill="#020202"/>
<path d="M72.0819 68.244C72.1882 68.244 72.2946 68.244 72.4019 68.2538C72.4672 68.3678 72.5261 68.4853 72.5784 68.6059C72.9481 68.4664 73.2944 68.2342 73.7042 68.2294C74.2894 68.1718 74.8533 68.4606 75.2708 68.8566C75.4847 68.6109 75.7599 68.4263 76.0683 68.3216C76.3768 68.2169 76.7074 68.1959 77.0267 68.2606C77.7983 68.3074 78.4646 68.9971 78.4509 69.7755C78.4587 71.1776 78.4587 72.5791 78.4509 73.9799C78.2438 74.0217 78.0292 74.0058 77.8305 73.934C77.812 72.6776 77.7983 71.4192 77.8305 70.1628C77.8539 69.7502 77.7495 69.2673 77.373 69.038C76.7809 68.6937 75.779 68.8693 75.622 69.6233C75.5761 71.0768 75.6415 72.5362 75.5908 73.9916C75.3693 74.0043 75.1411 74.0179 74.944 73.9038C74.9372 72.5566 74.944 71.2105 74.944 69.8643C74.9674 69.4234 74.6514 68.9805 74.2017 68.9171C73.7549 68.8195 73.1959 68.8615 72.916 69.2731C72.6867 69.5531 72.7501 69.9316 72.7335 70.2662C72.7335 71.3724 72.7277 72.4796 72.7443 73.5829C72.7228 73.7145 72.7716 73.9096 72.637 73.9916C72.4495 74.0117 72.26 73.9901 72.0819 73.9282C72.0565 72.0338 72.0965 70.1394 72.0819 68.244Z" fill="#020202"/>
<path d="M80.3014 68.4567C80.754 68.2079 81.2944 68.2089 81.7939 68.2616C82.1657 68.3229 82.5073 68.5041 82.7665 68.7776C83.0257 69.0512 83.1884 69.4019 83.2298 69.7765C83.2581 70.2311 83.2396 70.6876 83.2386 71.1422C82.1831 71.1851 81.1257 71.1422 80.0692 71.1656C80.0634 71.6319 80.0165 72.105 80.0995 72.5674C80.1643 72.7867 80.2975 72.9795 80.4797 73.1178C80.6618 73.2561 80.8834 73.3325 81.112 73.336C81.5022 73.3575 81.949 73.3429 82.2543 73.0561C82.547 72.8093 82.5723 72.4084 82.6318 72.0601C82.8269 72.0601 83.022 72.0601 83.2171 72.0601C83.2652 72.4471 83.1789 72.8388 82.9725 73.1697C82.7661 73.5006 82.4523 73.7504 82.0836 73.8774C81.5795 74.0381 81.0375 74.0347 80.5355 73.8677C80.212 73.7532 79.9315 73.5421 79.7319 73.2629C79.5323 72.9838 79.4233 72.6501 79.4195 72.3069C79.4039 71.4953 79.4039 70.6824 79.4195 69.8682C79.4301 69.5763 79.5171 69.2923 79.6718 69.0446C79.8266 68.7969 80.0437 68.5941 80.3014 68.4567ZM80.3121 69.2663C80.0009 69.6048 80.0526 70.0906 80.0643 70.5149C80.8759 70.5101 81.6915 70.552 82.5031 70.4964C82.6806 70.3384 82.6006 70.0789 82.5948 69.8731C82.5518 69.4312 82.2465 69.0127 81.7988 68.919C81.2915 68.8244 80.6672 68.8322 80.3121 69.2663Z" fill="#020202"/>
<path d="M84.1868 68.2508C84.2904 68.245 84.3943 68.245 84.498 68.2508C84.6033 68.3669 84.6648 68.7171 84.8687 68.5308C85.3242 68.2138 85.8978 68.2099 86.4295 68.2557C86.4295 68.4508 86.4295 68.6459 86.4295 68.841C86.129 68.8859 85.8217 68.8595 85.5252 68.922C85.3371 68.9733 85.1701 69.083 85.0484 69.2354C84.9267 69.3878 84.8566 69.5749 84.8482 69.7697C84.8306 71.1354 84.8599 72.501 84.8374 73.8667C84.7126 74.1087 84.3819 73.9643 84.1819 73.9126C84.1702 72.0279 84.1975 70.1394 84.1868 68.2508Z" fill="#020202"/>
<path d="M87.841 68.7942C88.3472 68.2138 89.1989 68.1503 89.908 68.2967C90.3093 68.3997 90.66 68.6437 90.8962 68.984C91.1325 69.3243 91.2384 69.7382 91.1947 70.1501C90.9762 70.1667 90.7518 70.1999 90.547 70.1052C90.576 69.9105 90.5495 69.7114 90.4707 69.531C90.3919 69.3505 90.2638 69.1959 90.1012 69.0849C89.7929 68.8644 89.392 68.8683 89.0281 68.8898C88.518 68.9249 88.0341 69.3443 88.0322 69.875C88.0058 70.6554 88.0136 71.4358 88.0234 72.222C88.0175 72.5557 88.1326 72.9049 88.4136 73.1068C88.7062 73.3595 89.1237 73.3546 89.4944 73.3409C89.6769 73.3388 89.8558 73.2905 90.0146 73.2006C90.1734 73.1108 90.3069 72.9822 90.4026 72.8268C90.5431 72.6161 90.5314 72.3528 90.5977 72.1167C90.7752 72.0094 91.0084 72.105 91.2074 72.0962C91.2293 72.3995 91.173 72.7034 91.0441 72.9789C90.9152 73.2543 90.7178 73.4921 90.4709 73.6697C89.9968 74.0101 89.3754 74.0433 88.8126 73.9623C88.4216 73.8954 88.0654 73.6964 87.8035 73.3985C87.5416 73.1005 87.3899 72.7218 87.3737 72.3254C87.36 71.6719 87.3815 71.0173 87.3678 70.3637C87.3444 69.8067 87.4283 69.201 87.841 68.7942Z" fill="#020202"/>
<path d="M92.339 69.1912C92.6316 68.5727 93.3145 68.2069 93.9973 68.2342C94.6801 68.1796 95.4147 68.4742 95.7532 69.0907C96.1434 69.7121 95.9483 70.4632 95.9892 71.1509C94.9406 71.1675 93.891 71.1324 92.8443 71.1695C92.7468 71.4963 92.818 71.864 92.8014 72.2074C92.7838 72.6951 93.1145 73.1829 93.5993 73.2902C94.0841 73.3975 94.6723 73.3799 95.0538 73.0161C95.2908 72.7605 95.3396 72.4015 95.3688 72.0699C95.5776 72.0581 95.7873 72.0533 95.998 72.0484C96.0304 72.4175 95.9474 72.7877 95.7605 73.1076C95.5735 73.4276 95.2918 73.6816 94.9543 73.8345C94.4972 74.0017 94.0024 74.0372 93.5262 73.9369C92.8121 73.7906 92.22 73.1497 92.1771 72.4162C92.1537 71.7948 92.1771 71.1724 92.1683 70.551C92.1683 70.0974 92.1127 69.6106 92.339 69.1912ZM93.0413 69.2819C92.7487 69.6155 92.7994 70.0838 92.7916 70.4964C93.6179 70.5227 94.4499 70.552 95.2791 70.4818C95.5425 69.8896 95.1815 69.0137 94.488 68.9083C93.9915 68.8264 93.374 68.8449 93.0413 69.2887V69.2819Z" fill="#020202"/>
<path d="M48.7501 68.3279C49.1544 68.2206 49.5772 68.203 49.989 68.2762C50.7362 68.4167 51.3547 69.0976 51.3732 69.8662C51.3986 70.5491 51.382 71.2319 51.3859 71.9148C51.3859 72.2874 51.381 72.6786 51.2045 73.019C50.585 74.3018 48.437 74.3398 47.7659 73.0863C47.4479 72.5235 47.5708 71.8533 47.5464 71.2378C47.5688 70.6525 47.4859 70.0496 47.6254 69.4721C47.7038 69.2033 47.8475 68.9581 48.0438 68.7584C48.24 68.5588 48.4827 68.4108 48.7501 68.3279ZM49.1794 68.8907C48.675 68.9239 48.2185 69.3492 48.2039 69.8662C48.1766 70.6847 48.1814 71.5051 48.2039 72.3245C48.2145 72.5736 48.3131 72.811 48.4823 72.9943C48.6514 73.1775 48.8801 73.2948 49.1277 73.3253C49.5276 73.3546 49.9802 73.376 50.3178 73.1205C50.6045 72.9205 50.7382 72.5635 50.7392 72.224C50.7587 71.5714 50.7236 70.9178 50.7392 70.2662C50.7392 69.9062 50.7392 69.4965 50.4563 69.2302C50.1295 68.879 49.6203 68.8381 49.1794 68.8907Z" fill="#020202"/>
<path d="M42.5529 37.04C44.7614 37.0185 46.9699 37.0293 49.1784 37.04C50.1539 38.0535 51.1089 39.0934 52.1097 40.0865C54.927 43.0363 57.7559 45.9739 60.5965 48.899C62.2412 50.6735 63.9541 52.3845 65.6144 54.1443L65.5832 54.1735L65.7091 54.2262C65.7195 53.8728 65.7103 53.5192 65.6817 53.1668C65.7422 50.8012 65.713 48.4337 65.7305 46.0662C65.7264 45.8072 65.6937 45.5494 65.633 45.2975C65.9289 44.159 66.4044 43.075 67.0416 42.0862C66.9811 42.5037 67.0143 42.9261 67.0084 43.3465C67.0084 47.6182 67.0172 51.8899 67.0084 56.1625C66.984 57.219 66.9967 58.2764 67.0084 59.3329C67.0172 59.8958 67.0347 60.4606 67.0084 61.0234L66.9187 61.2C65.2467 59.4743 63.523 57.7984 61.8334 56.0904C59.7966 54.0643 57.7812 52.0167 55.7298 50.0072C53.9963 48.2308 52.2385 46.4759 50.4797 44.7239C50.2846 44.523 50.0671 44.3454 49.9149 44.1104L49.7393 44.0021C48.9306 43.1485 48.0888 42.3281 47.2528 41.5029C47.2196 43.5329 47.2684 45.5638 47.2284 47.5929C47.2284 47.7002 47.2167 48.7742 47.2508 49.3419C47.2859 50.4871 47.1981 51.6372 47.284 52.7795C47.1923 53.5316 47.2576 54.2916 47.2372 55.0476C47.2645 55.6846 47.1903 56.3274 47.2869 56.9605C46.9326 57.6205 46.4321 58.1907 45.8237 58.6276C45.8764 58.1828 45.972 57.7428 45.9593 57.2931C45.9534 55.2446 45.9593 53.201 45.9534 51.1553C45.9476 50.4062 45.9368 49.656 45.9583 48.9117C45.9583 48.7264 45.9651 48.584 45.9651 48.4103C45.9359 46.8008 45.9876 45.1912 45.9456 43.5826C45.9359 43.25 45.9378 42.9183 45.9456 42.5866C45.9534 41.9594 46.009 41.3312 45.969 40.7049C45.9117 39.7968 45.5537 38.9337 44.9516 38.2516C44.3351 37.5541 43.4474 37.1805 42.5529 37.04Z" fill="#FFBE00"/>
<path d="M62.3817 37.0478C64.957 37.0215 67.5332 37.0146 70.1075 37.0478C69.3272 37.3346 68.4258 37.6331 67.9703 38.3842C67.1398 38.7926 66.3418 39.2638 65.5832 39.7938C65.4554 39.2836 65.1472 38.8427 64.8467 38.4203C64.214 37.6848 63.3402 37.1983 62.3817 37.0478Z" fill="#FFBE00"/>
<path d="M44.9721 61.1122C46.1212 60.9688 47.2206 60.5708 48.2517 60.0557L48.2907 60.0499C48.6703 60.4537 49.1375 60.7651 49.6564 60.96C49.8202 61.0302 50.0124 61.0576 50.1246 61.2127C48.3863 61.2761 45.5613 61.2214 43.821 61.24L44.9721 61.1122Z" fill="#FFBE00"/>
</g>
<rect x="1" y="1" width="110" height="110" rx="9" stroke="#CCCCCC" stroke-width="2"/>
<defs>
<clipPath id="clip0_6_7363">
<rect x="2" y="2" width="108" height="108" rx="8" fill="white"/>
</clipPath>
</defs>
</svg>
