<svg width="112" height="112" viewBox="0 0 112 112" fill="none" xmlns="http://www.w3.org/2000/svg">
<g clip-path="url(#clip0_421_555)">
<rect x="2" y="2" width="108" height="108" rx="8" fill="white"/>
<path d="M36.7204 53.4613C36.7554 54.0629 36.7904 55.5843 36.7904 56.1386C36.7904 56.6492 36.7904 58.3612 36.7012 59.0992L36.6942 59.1569H39.368C40.6813 59.1569 42.0715 58.7477 42.0715 57.5813C42.0715 56.8503 41.5416 56.31 40.5519 56.0144C41.2863 55.8186 41.776 55.3167 41.776 54.7431C41.776 53.7901 40.6813 53.4316 39.653 53.4071H36.7047L36.7204 53.4613ZM38.7857 54.0436C39.9014 54.0524 40.3088 54.2797 40.3088 54.8865C40.3088 55.0544 40.2581 55.203 40.1584 55.3167C39.9451 55.5738 39.5289 55.7067 38.999 55.6734H38.9728L38.6615 56.4848H38.9728C39.5883 56.4674 40.1234 56.6615 40.398 56.9972C40.5256 57.1511 40.5886 57.333 40.5886 57.5218C40.5886 58.1566 40.029 58.4836 38.9273 58.4836C38.7402 58.4836 38.4394 58.4836 38.2523 58.4766C38.2208 57.6302 38.2069 56.4831 38.2069 56.1386C38.2069 55.7381 38.2331 54.8481 38.2523 54.0874C38.38 54.0611 38.5898 54.0454 38.7874 54.0454" fill="#231F20"/>
<path d="M48.2444 53.4071H46.9434L46.9959 54.8568C47.0221 55.5738 47.0466 56.31 47.0955 57.0269C47.0116 56.8031 46.9329 56.6877 46.5377 56.1106C46.536 56.0914 45.1842 54.0104 44.7138 53.4194L44.6998 53.4054H43.1907V53.4596C43.2379 54.0611 43.2571 55.5825 43.2571 56.1369C43.2571 56.6475 43.2571 58.3595 43.1854 59.0974L43.1732 59.1551H44.5179V59.0974C44.441 57.695 44.441 56.2785 44.441 54.904C44.4882 55.0701 44.5477 55.2135 44.7593 55.5283C44.7768 55.565 47.0938 58.9383 47.2057 59.1324L47.218 59.1569H48.2952V59.0992C48.2112 58.3612 48.2042 56.6492 48.2042 56.1386C48.2042 55.5843 48.241 54.0629 48.2759 53.4613L48.2934 53.4071H48.241H48.2444Z" fill="#231F20"/>
<path d="M49.8008 53.4613C49.8533 54.0629 49.8743 55.5843 49.8743 56.1386C49.8743 56.6492 49.8743 58.3612 49.7956 59.0992V59.1586H51.3956L51.3886 59.0992C51.3344 58.5676 51.3064 57.5568 51.3012 56.7821C51.3764 56.7856 51.6037 56.7979 51.6037 56.7979L51.8311 56.8031C53.9365 56.8031 54.9613 56.247 54.9613 55.0736C54.9613 53.7394 53.5238 53.4333 52.3259 53.4089H49.8026V53.4631L49.8008 53.4613ZM51.7734 54.1014C52.5236 54.0874 53.0464 54.2395 53.2947 54.5543C53.4084 54.6907 53.4714 54.869 53.4714 55.0719C53.4714 55.9043 52.534 56.0844 51.7524 56.0844L51.4359 56.0652C51.4359 56.0652 51.3607 56.0582 51.3047 56.0529C51.2995 55.8606 51.2995 55.607 51.2995 55.322C51.2995 54.96 51.2995 54.5315 51.3169 54.1328C51.4271 54.1188 51.5932 54.0996 51.7734 54.0996" fill="#231F20"/>
<path d="M58.0128 53.4613C58.0635 54.0629 58.0932 55.5843 58.0932 56.1386C58.0932 56.6492 58.088 58.3612 58.0058 59.0992V59.1586H59.6076L59.5988 59.0992C59.5481 58.5676 59.5184 57.5568 59.5184 56.7821C59.5936 56.7856 59.8069 56.7979 59.8069 56.7979L60.0395 56.8031C62.145 56.8031 63.1767 56.247 63.1767 55.0736C63.1767 53.7394 61.7323 53.4333 60.5292 53.4089H58.0145V53.4631L58.0128 53.4613ZM59.9836 54.1014C60.7355 54.0874 61.2584 54.2395 61.5102 54.5543C61.6256 54.6907 61.6851 54.869 61.6851 55.0719C61.6851 55.9043 60.7495 56.0844 59.9766 56.0844L59.66 56.0652C59.66 56.0652 59.5761 56.0582 59.5271 56.0529C59.5184 55.8606 59.5184 55.6052 59.5184 55.322C59.5184 54.9565 59.5184 54.5315 59.5341 54.1328C59.6338 54.1188 59.8069 54.0996 59.9853 54.0996" fill="#231F20"/>
<path d="M65.3154 53.4071H65.2944L65.2839 53.4368C64.9849 54.2552 63.0665 58.4451 62.7623 59.0869L62.736 59.1586H64.1L64.1105 59.1271C64.2312 58.7337 64.3921 58.2895 64.5669 57.8139C64.6211 57.8139 65.7053 57.7964 65.7053 57.7964L66.6461 57.8034C66.6461 57.8034 66.7983 57.8139 66.8437 57.8139C67.0868 58.4312 67.2722 58.8981 67.3526 59.1341L67.3684 59.1586H68.9474L66.3961 53.4089H65.3154V53.4071ZM65.7053 55.0999C65.833 55.3744 66.1617 56.1386 66.5342 57.0514C66.4765 57.0549 66.4048 57.0549 66.4048 57.0549L65.7053 57.0637C65.7053 57.0637 64.9796 57.0549 64.859 57.0514C65.1615 56.3222 65.4605 55.6629 65.7053 55.0999Z" fill="#231F20"/>
<path d="M69.591 53.4613C69.6364 54.0629 69.6592 55.5843 69.6592 56.1386C69.6592 56.6492 69.6592 58.3612 69.5717 59.0992V59.1586H71.1823L71.1753 59.0992C71.0896 58.356 71.0844 56.651 71.0844 56.1386C71.0844 55.7381 71.0966 54.8481 71.1368 54.1276C71.2592 54.1206 71.4446 54.1014 71.5722 54.1014C72.3172 54.0874 72.8436 54.2412 73.0901 54.5543C73.2073 54.6889 73.2615 54.8725 73.2615 55.0719C73.2615 55.7364 72.6407 56.0721 72.0636 56.1019C71.8695 56.1106 71.7261 56.0844 71.7261 56.0844L71.6125 56.0652L71.6737 56.1701C72.2455 57.0042 73.1006 58.4486 73.4539 59.1306L73.4643 59.1551H75.1833L75.1414 59.0782C75.0714 58.9803 73.9505 57.3312 73.4748 56.6282C73.4748 56.6282 73.4539 56.6073 73.4329 56.5863C74.3142 56.3222 74.7409 55.8291 74.7409 55.0719C74.7409 53.7481 73.3052 53.4316 72.0916 53.4071H69.584L69.5892 53.4613H69.591Z" fill="#231F20"/>
<path d="M77.4602 53.4071H75.9265L75.9353 53.4613C75.9755 54.0629 76.007 55.5843 76.007 56.1386C76.007 56.6475 76 58.356 75.9283 59.0992L75.923 59.1569H77.5126L77.5039 59.0992C77.4427 58.356 77.4234 56.6475 77.4234 56.1386C77.4234 55.5843 77.4619 54.0629 77.5039 53.4613V53.4071H77.4619H77.4602Z" fill="#231F20"/>
<path d="M78.9605 53.4613C79.006 54.0629 79.034 55.5843 79.034 56.1386C79.034 56.6492 79.034 58.3612 78.9536 59.0992L78.9413 59.1569H81.6186C82.9284 59.1569 84.3221 58.7477 84.3221 57.5813C84.3221 56.8503 83.7922 56.31 82.7937 56.0144C83.5282 55.8186 84.0231 55.3167 84.0231 54.7431C84.0231 53.7901 82.9266 53.4316 81.9071 53.4071H78.9518L78.9588 53.4613H78.9605ZM81.024 54.0436C82.1467 54.0524 82.5559 54.2797 82.5559 54.8865C82.5559 55.0544 82.5052 55.203 82.402 55.3167C82.1992 55.5738 81.7672 55.7067 81.2409 55.6734H81.2146L80.9051 56.4848H81.2146C81.8319 56.4674 82.3618 56.6615 82.6363 56.9972C82.771 57.1511 82.8339 57.333 82.8339 57.5218C82.8339 58.1566 82.2726 58.4836 81.1657 58.4836C80.9873 58.4836 80.6883 58.4836 80.4994 58.4766C80.454 57.6302 80.4539 56.4831 80.4539 56.1386C80.4539 55.7381 80.4697 54.8481 80.4994 54.0874C80.6201 54.0611 80.8299 54.0454 81.024 54.0454" fill="#231F20"/>
<path d="M88.2602 53.4071H87.183L87.176 53.4333C86.8542 54.3042 84.8257 58.7144 84.6561 59.0799L84.6264 59.1586H85.9956L86.0044 59.1236C86.118 58.7284 86.2772 58.2878 86.4555 57.8034C86.4992 57.8034 87.5869 57.7859 87.5869 57.7859L88.5295 57.7999C88.5295 57.7999 88.6939 57.8016 88.7289 57.8016C88.9772 58.4189 89.1608 58.8893 89.2412 59.1219L89.257 59.1569H90.843L88.2917 53.4054H88.2567L88.2602 53.4071ZM87.5992 55.0981C87.7286 55.3657 88.0556 56.1316 88.4281 57.0462C88.3704 57.0462 88.3022 57.0514 88.3022 57.0514L87.5992 57.0602C87.5992 57.0602 86.8647 57.0444 86.7563 57.0444C87.0536 56.31 87.3474 55.656 87.5992 55.0964" fill="#231F20"/>
<path d="M91.2942 54.8935C91.2942 55.9043 92.305 56.31 93.2021 56.6824C93.8998 56.9605 94.629 57.2525 94.629 57.7352C94.629 57.8803 94.5993 58.0027 94.5188 58.0902C94.351 58.2878 94.0117 58.37 93.4731 58.3402C92.938 58.3192 92.3365 58.1496 91.6597 57.8383L91.3939 57.7107V58.9645L91.5758 59.01L91.6807 59.0275C92.0147 59.1097 92.6617 59.2618 93.3035 59.2618C94.9927 59.2618 96 58.5885 96 57.4746C96 56.4289 94.9595 56.0214 94.0397 55.656C93.3612 55.3814 92.6617 55.1104 92.6617 54.6609C92.6617 54.5315 92.6617 54.1556 93.5361 54.1556C94.1813 54.1556 94.8074 54.4179 95.1641 54.5543L95.4876 54.6889V54.4738L95.4859 53.4316L95.1641 53.3739C94.8354 53.3074 94.288 53.199 93.7249 53.199C92.2683 53.199 91.296 53.888 91.296 54.8953" fill="#231F20"/>
<mask id="mask0_421_555" style="mask-type:luminance" maskUnits="userSpaceOnUse" x="16" y="48" width="17" height="17">
<path d="M32.5568 48.0001H16V64.5568H32.5568V48.0001Z" fill="white"/>
</mask>
<g mask="url(#mask0_421_555)">
<path d="M32.5568 48.0001H16V64.5568H32.5568V48.0001Z" fill="url(#paint0_linear_421_555)"/>
</g>
<mask id="mask1_421_555" style="mask-type:luminance" maskUnits="userSpaceOnUse" x="16" y="48" width="17" height="17">
<path d="M17.2923 48.2956C16.9705 48.2956 16.7624 48.5667 16.7117 48.9462C16.7117 48.9462 16.299 51.1198 16.299 55.7329C16.299 60.346 16.7117 63.3695 16.7117 63.3695C16.7502 63.735 16.9723 64.02 17.2923 64.02H31.623C31.943 64.02 32.1983 63.7665 32.2035 63.3695C32.2035 63.3695 32.0444 59.8336 32.0444 56.3782C32.0444 52.9227 32.2035 48.9462 32.2035 48.9462C32.2123 48.5929 31.943 48.2956 31.623 48.2956H17.2923Z" fill="white"/>
</mask>
<g mask="url(#mask1_421_555)">
<path d="M32.2123 48.2956H16.299V64.0218H32.2123V48.2956Z" fill="url(#paint1_linear_421_555)"/>
</g>
<g style="mix-blend-mode:multiply">
<mask id="mask2_421_555" style="mask-type:luminance" maskUnits="userSpaceOnUse" x="16" y="48" width="17" height="17">
<path d="M32.2123 48.2956H16.299V64.02H32.2123V48.2956Z" fill="white"/>
</mask>
<g mask="url(#mask2_421_555)">
<mask id="mask3_421_555" style="mask-type:luminance" maskUnits="userSpaceOnUse" x="16" y="48" width="17" height="17">
<path d="M17.2765 48.2956C16.9653 48.3044 16.7624 48.5737 16.7134 48.9462C16.7134 48.9462 16.3008 51.1198 16.3008 55.7329C16.3008 60.346 16.7134 63.3695 16.7134 63.3695C16.7519 63.735 16.974 64.02 17.294 64.02H31.623C31.943 64.02 32.1983 63.7665 32.2035 63.3695C32.2035 63.3695 32.0444 59.8336 32.0444 56.3782C32.0444 52.9227 32.2035 48.9462 32.2035 48.9462C32.2105 48.5982 31.9517 48.3061 31.6387 48.2956H17.2765Z" fill="white"/>
</mask>
<g mask="url(#mask3_421_555)">
<path d="M32.2123 48.2956H16.299V64.02H32.2123V48.2956Z" fill="url(#paint2_linear_421_555)"/>
</g>
</g>
</g>
<path d="M28.8565 52.4733C27.8318 53.0731 27.5205 53.1203 26.4083 53.7883L26.4625 53.6642C27.0466 53.0276 27.2984 52.7618 27.6831 52.1988C26.6584 52.2547 25.1685 52.3771 24.1035 52.6114L24.1595 52.4978C25.1248 52.0274 26.9172 51.5605 27.8318 51.4398C27.6079 51.125 25.7928 50.144 25.3416 49.9552L25.3941 49.8397C26.7703 49.9954 28.5942 50.6389 29.3899 51.125C29.7256 51.0201 30.0701 51.0096 30.6927 50.9554C30.6927 50.9554 30.6 51.3296 29.9215 51.7966C30.0894 52.2477 29.6854 54.7449 29.3514 55.4076C29.3357 54.3619 29.2447 53.0434 28.8565 52.4716" fill="#009A7B"/>
<path d="M21.3755 61.4249L21.428 61.306C20.8841 61.0979 20.3403 60.9301 19.8996 60.5174C20.0378 60.1309 20.1969 59.8284 20.454 59.4472L20.5082 59.33C20.0413 59.3999 19.6181 59.5731 19.2124 59.6518C18.8941 59.0922 18.7717 58.3262 18.6108 57.597L18.5583 57.7107C18.4674 58.5448 18.4324 59.1411 18.5496 59.8039C18.2121 59.8983 17.9183 59.9123 17.6473 60.0277L17.5966 60.1396C18.0267 60.4037 18.38 60.6083 18.8679 60.8374C19.1284 61.3952 19.3977 61.7764 19.8367 62.2066L19.8891 62.0895C19.8104 61.7747 19.709 61.5106 19.7475 61.1609C20.2896 61.3183 20.7547 61.4005 21.3738 61.4232" fill="#009A7B"/>
<path d="M22.8846 53.1098C22.8846 53.1098 22.6661 53.4963 22.4912 54.0104H22.4492C23.7258 54.1835 24.9289 54.6994 25.2314 54.8778L25.1772 54.9932C23.8552 54.7589 23.1574 54.7868 22.6643 54.8306C22.1712 54.8795 22.0715 54.939 22.0715 54.939C21.7882 55.5598 21.6221 56.5723 21.5539 56.9465L21.4997 57.0619C21.2583 56.4796 20.9086 55.3185 20.9086 55.3185C20.2423 55.6752 18.7052 57.1179 18.7052 57.1179C19.5516 55.4286 20.4102 54.6574 20.4102 54.6574C20.1147 54.3602 19.3418 54.208 18.7769 54.1853L18.8311 54.0699C19.1844 53.9667 19.9153 53.923 20.4032 53.9002C20.9821 53.8828 21.3318 53.916 21.3318 53.916C21.8477 53.505 22.6153 53.1466 22.8864 53.1098" fill="#009A7B"/>
<path d="M24.5075 60.374C24.2399 60.7342 24.0126 61.0227 23.717 61.3532C23.2799 61.4739 22.7588 61.4197 22.3548 61.4319L22.3023 61.5456C22.6049 61.703 22.9021 61.7957 23.2187 61.8621C22.9616 62.0964 22.6171 62.2748 22.3775 62.4374L22.3233 62.5511C22.8409 62.427 23.5212 62.2084 24.0283 61.9111C24.2924 61.9216 24.5407 61.9023 24.7191 61.8674C24.7191 61.8674 24.7733 61.7502 24.7733 61.7537C24.7418 61.6383 24.6386 61.5666 24.6071 61.4022C25.081 61.0332 25.4255 60.6975 25.8242 60.297L25.8785 60.1834C25.485 60.4544 25.0093 60.8251 24.5494 61.042C24.5302 60.8199 24.5162 60.6258 24.504 60.374" fill="#009A7B"/>
<path d="M28.909 52.3579C27.8877 52.9594 27.573 53.0084 26.4643 53.6747C27.1113 52.9734 27.3351 52.6727 27.7373 52.0868C26.7126 52.141 25.2244 52.2635 24.1612 52.4995C25.0863 52.0046 26.9207 51.4556 27.8877 51.3261C27.6639 51.0166 25.847 50.0321 25.3941 49.8432C26.8333 49.9569 28.5907 50.492 29.4423 51.0131C29.7781 50.9082 30.1261 50.903 30.7521 50.8488C30.5912 51.1215 30.586 51.2789 29.9739 51.6846C30.1436 52.1375 29.7379 54.6347 29.4039 55.294C29.3916 54.25 29.3007 52.9315 28.909 52.3596" fill="white"/>
<path d="M21.428 61.306C20.8404 61.0909 20.4172 60.8374 19.9521 60.4002C20.092 60.0172 20.2494 59.7165 20.5099 59.33C20.0325 59.4017 19.681 59.4559 19.2701 59.5346C18.9343 58.947 18.7839 58.3839 18.6126 57.5953C18.5216 58.4294 18.4866 59.0257 18.6038 59.6885C18.2261 59.7934 17.9585 59.8843 17.649 60.0277C18.0844 60.2918 18.4359 60.4981 18.9221 60.7237C19.1826 61.2833 19.4537 61.6593 19.8909 62.0895C19.7894 61.724 19.7615 61.4319 19.8034 61.0437C20.3473 61.2046 20.8107 61.2885 21.428 61.3043" fill="white"/>
<path d="M22.9564 53.0102C22.7745 53.248 22.5612 53.6904 22.5035 53.8968C24.0161 54.1014 25.2297 54.8795 25.2297 54.8795C23.9077 54.6452 23.2099 54.6749 22.715 54.7186C22.2237 54.7641 22.124 54.8236 22.124 54.8236C21.7672 55.6052 21.5522 56.9482 21.5522 56.9482C21.3108 56.3677 20.9628 55.2048 20.9628 55.2048C20.2948 55.5615 18.7595 57.0042 18.7595 57.0042C19.6041 55.3132 20.461 54.5455 20.461 54.5455C20.1672 54.2465 19.3925 54.0979 18.8277 54.0716C19.1197 53.9527 19.8734 53.8128 20.4522 53.7866C21.0328 53.7691 21.3808 53.8023 21.3808 53.8023C21.8966 53.3949 22.6818 53.0504 22.9529 53.0119" fill="white"/>
<path d="M24.5599 60.2621C24.2941 60.6223 24.0633 60.9073 23.7677 61.2378C23.2589 61.3812 22.8514 61.4337 22.3565 61.4337C22.6608 61.5893 22.9563 61.6838 23.2746 61.7502C22.9581 62.0405 22.6888 62.2433 22.381 62.4409C22.8986 62.3168 23.5771 62.0982 24.0843 61.7992C24.3483 61.8097 24.5966 61.7939 24.7768 61.7572C24.7295 61.6033 24.6998 61.4896 24.6631 61.292C25.1387 60.9196 25.4867 60.5891 25.8837 60.1851C25.4622 60.4789 25.0968 60.6992 24.6089 60.9301C24.5861 60.7062 24.5739 60.5174 24.5634 60.2621" fill="white"/>
</g>
<rect x="1" y="1" width="110" height="110" rx="9" stroke="#CCCCCC" stroke-width="2"/>
<defs>
<linearGradient id="paint0_linear_421_555" x1="24.0056" y1="47.5926" x2="24.0056" y2="65.071" gradientUnits="userSpaceOnUse">
<stop stop-color="#009A7B"/>
<stop offset="0.6" stop-color="#77C1B1"/>
<stop offset="1" stop-color="#009A7B"/>
</linearGradient>
<linearGradient id="paint1_linear_421_555" x1="24.1402" y1="43.8924" x2="24.1402" y2="63.5286" gradientUnits="userSpaceOnUse">
<stop stop-color="#009A7B"/>
<stop offset="0.3" stop-color="#77C1B1"/>
<stop offset="0.55" stop-color="#009A7B"/>
<stop offset="0.84" stop-color="#009A7B"/>
<stop offset="1" stop-color="#00A184"/>
</linearGradient>
<linearGradient id="paint2_linear_421_555" x1="24.1385" y1="43.8924" x2="24.1385" y2="63.5286" gradientUnits="userSpaceOnUse">
<stop stop-color="white"/>
<stop offset="0.3" stop-color="white"/>
<stop offset="0.55" stop-color="white"/>
<stop offset="0.84" stop-color="#B1B3B5"/>
<stop offset="0.87" stop-color="#B9BBBD"/>
<stop offset="0.92" stop-color="#D2D3D4"/>
<stop offset="0.99" stop-color="#F9F9F9"/>
<stop offset="1" stop-color="white"/>
</linearGradient>
<clipPath id="clip0_421_555">
<rect x="2" y="2" width="108" height="108" rx="8" fill="white"/>
</clipPath>
</defs>
</svg>
