<svg width="112" height="112" viewBox="0 0 112 112" fill="none" xmlns="http://www.w3.org/2000/svg">
<g clip-path="url(#clip0_633_898)">
<rect x="2" y="2" width="108" height="108" rx="8" fill="white"/>
<g clip-path="url(#clip1_633_898)">
<path d="M45.5312 72.0723C45.242 72.0723 44.9578 72.0921 44.6772 72.1235H46.3853C46.1047 72.0921 45.8203 72.0723 45.5312 72.0723Z" fill="#00529C"/>
<path d="M42.0267 84.3584C43.3739 84.3584 44.3726 84.7076 45.0227 85.4045C45.6335 86.0905 45.9417 86.9004 45.9417 87.8373C45.9417 88.8024 45.5922 89.6272 44.8943 90.3124C44.1956 90.998 43.0475 91.3406 41.4483 91.3406H40.8501H36.0232V84.3584H42.0267ZM42.799 74.1589C43.1591 74.2964 43.46 74.4749 43.6947 74.6998C44.304 75.2842 44.6086 75.9822 44.6086 76.7943C44.6086 77.5307 44.4813 78.14 44.2278 78.6221C43.9738 79.1045 43.72 79.473 43.4666 79.7262H36.0232V73.8431H40.6501C41.5174 73.8431 42.2315 73.9497 42.799 74.1589ZM47.5327 81.1846C47.7108 81.0066 47.9212 80.7769 48.1638 80.4963C48.4056 80.2162 48.6353 79.8845 48.8521 79.5021C49.0684 79.1197 49.2535 78.6933 49.4067 78.2213C49.5594 77.7497 49.6361 77.2461 49.6361 76.7107C49.6361 75.6659 49.4576 74.6907 49.1008 73.7856C48.7435 72.8811 48.1955 72.0905 47.4565 71.4148C46.7168 70.7397 45.793 70.2104 44.6841 69.8278C43.5752 69.4454 42.2812 69.2542 40.803 69.2542H40.7628H36.5132H35.4064H31.0522V74.1287V91.0028V96.0209H41.759C43.3136 96.0209 44.6709 95.8107 45.8313 95.3901C46.9911 94.9692 47.9534 94.3898 48.7184 93.6501C49.4829 92.9111 50.0502 92.0506 50.4201 91.0691C50.7891 90.0881 50.9742 89.0367 50.9742 87.9143C50.9742 86.4106 50.6303 85.0723 49.942 83.8995C49.2535 82.7273 48.4507 81.822 47.5327 81.1846Z" fill="#00529C"/>
<path d="M63.2957 73.8427C63.6146 73.8427 63.9149 73.8632 64.2013 73.8997C65.1053 74.0359 65.843 74.3585 66.4118 74.8711C67.1857 75.5693 67.5734 76.4262 67.5734 77.4412C67.5734 77.9494 67.4903 78.4445 67.3257 78.9264C67.1603 79.4088 66.9003 79.8345 66.545 80.2019C66.1892 80.5701 65.7324 80.8684 65.1742 81.0969C64.6153 81.3255 63.9425 81.4397 63.1559 81.4397H57.7897V73.8427H63.2957ZM69.1272 84.492C69.93 83.9442 70.5993 83.3063 71.1346 82.58C71.6699 81.8535 72.065 81.0505 72.32 80.171C72.5745 79.2915 72.7024 78.3931 72.7024 77.4753C72.7024 76.2773 72.5046 75.175 72.1098 74.1676C71.7143 73.161 71.1214 72.2942 70.3316 71.5676C69.5413 70.8409 68.5536 70.2739 67.3682 69.8659C66.1829 69.4587 64.8121 69.2541 63.2577 69.2541H63.118H52.8187H52.7219V96.0205H57.7897V86.0787H60.6155L67.6038 96.0205H73.5436L66.3166 85.7346C67.3872 85.4545 68.324 85.0405 69.1272 84.492Z" fill="#00529C"/>
<path d="M75.3329 69.2543V69.2619C75.2818 69.2604 75.2319 69.2543 75.18 69.2543H75.1375V69.2566V79.0672V86.0975V96.0207H80.3039V69.2543H75.3329Z" fill="#00529C"/>
<path d="M40.0929 16.0347C38.3394 16.2389 37.1216 16.6218 35.8527 17.3749C33.13 18.983 31.3829 21.7016 31.0705 24.8159C31.0195 25.3392 31.0067 29.8382 31.0195 41.1082C31.045 55.3074 31.0514 56.7241 31.1534 57.19C31.5296 59.0279 32.1927 60.4255 33.3213 61.7848C34.8963 63.6865 37.23 64.9245 39.755 65.1989C40.6413 65.2947 70.6799 65.2883 71.5725 65.1926C73.2941 65.0075 75.0157 64.3246 76.4313 63.2589C77.0689 62.7739 78.0763 61.7082 78.5482 61.019C79.5684 59.5257 80.104 57.9494 80.2315 56.1051C80.308 55.0202 80.308 26.239 80.2315 25.1541C80.0594 22.6652 79.1157 20.5529 77.3941 18.8363C76.0296 17.4642 74.4992 16.6346 72.4843 16.1751L71.8467 16.0347L56.0655 16.0219C47.3874 16.0156 40.2013 16.022 40.0929 16.0347ZM46.4692 21.7335C48.4713 22.2887 50.1355 23.9352 50.6584 25.8688C50.8624 26.6346 50.8433 27.7131 50.6201 28.4725C50.4033 29.2001 50.0781 29.8637 49.6318 30.4764C49.1982 31.0826 49.5808 30.6742 44.2056 36.4177C41.6997 39.098 39.6466 41.3252 39.6466 41.3699C39.6466 41.4784 43.9378 45.62 47.1387 48.6003C49.0962 50.4254 49.8359 51.4146 50.3013 52.8505C50.5436 53.5907 50.5883 54.8479 50.397 55.6456C50.1292 56.7624 49.5744 57.7133 48.6881 58.5684C48.1015 59.1364 47.534 59.5193 47.1068 59.6469C46.9219 59.698 45.8953 59.7107 43.4086 59.698L39.9654 59.6788L39.4808 59.5065C38.1163 59.0215 37.179 58.0515 36.7007 56.6475C36.5923 56.3093 36.586 55.6775 36.5668 40.8849C36.5477 23.6353 36.5158 24.9499 37.0132 23.9161C37.3894 23.1311 38.0844 22.4483 38.9133 22.0335C39.857 21.5676 39.9973 21.5548 43.1854 21.574C45.8316 21.5868 45.9846 21.5931 46.4692 21.7335ZM60.9433 21.8675C62.1931 22.2951 63.4811 23.4438 64.0996 24.6819C65.3238 27.1133 64.514 29.7616 61.6256 32.7483C60.1973 34.2288 53.6744 41.2933 53.6744 41.3635C53.6744 41.4018 57.6276 45.5243 62.4545 50.5275C70.0677 58.4089 71.2155 59.6214 71.0943 59.6597C71.0178 59.6788 67.3132 59.698 62.8626 59.7043C56.4162 59.7107 54.7838 59.6916 54.8093 59.6278C55.8423 57.2474 56.0973 56.2008 56.0846 54.3182C56.0655 51.0955 54.6818 48.1344 51.9464 45.4796C51.5638 45.1095 50.3842 43.9927 49.3194 42.9972C48.2545 42.0016 47.3937 41.1657 47.4065 41.1401C47.4192 41.1146 48.7519 39.6787 50.3715 37.9429C53.5596 34.5224 53.7636 34.2926 54.4204 33.2907C56.0973 30.7317 56.7158 27.777 56.1547 25.0265C55.9953 24.2288 55.6127 23.1439 55.2047 22.3334L54.7336 21.5485H56.4289C57.9806 21.5447 59.5736 21.4119 60.9433 21.8675ZM71.445 21.6442C72.9052 21.9505 74.1294 23.1439 74.5949 24.7074C74.7097 25.0711 74.716 25.7795 74.7288 38.3003C74.7415 45.5626 74.7415 52.3527 74.7352 53.3801L74.7161 55.25L68.021 48.3195C64.3419 44.5096 61.3259 41.3507 61.3259 41.306C61.3259 41.2614 62.3142 40.1701 63.5257 38.881C66.395 35.8306 66.7075 35.486 67.2749 34.7329C69.0731 32.359 70.0295 29.9659 70.1889 27.4196C70.2973 25.754 69.8573 23.731 69.0476 22.1547C68.9073 21.8739 68.7797 21.625 68.767 21.5931C68.7224 21.5038 70.9923 21.5485 71.445 21.6442Z" fill="#00529C"/>
</g>
</g>
<rect x="1" y="1" width="110" height="110" rx="9" stroke="#CCCCCC" stroke-width="2"/>
<defs>
<clipPath id="clip0_633_898">
<rect x="2" y="2" width="108" height="108" rx="8" fill="white"/>
</clipPath>
<clipPath id="clip1_633_898">
<rect width="49.2518" height="80" fill="white" transform="translate(31 15.9999)"/>
</clipPath>
</defs>
</svg>
