<svg width="112" height="112" viewBox="0 0 112 112" fill="none" xmlns="http://www.w3.org/2000/svg">
<g clip-path="url(#clip0_647_381)">
<rect x="2" y="3" width="108" height="108" rx="8" fill="white"/>
<path d="M31.3281 54.642H32.6376C33.1421 54.642 33.5714 54.7279 33.5714 55.2968C33.5714 55.9301 32.9811 56.0804 32.5517 56.0804H31.0275L31.3281 54.642ZM28.3226 57.9052H32.7664C34.4516 57.9052 35.9544 57.1645 35.9544 55.3075C35.9544 54.5884 35.4928 53.9014 34.7736 53.7511V53.7297H34.7844C35.7182 53.4828 36.212 52.8387 36.212 51.8727C36.212 50.7456 35.5787 50.166 33.9042 50.166H29.9326L28.3226 57.9052ZM31.8648 52.023H33.0884C33.507 52.023 33.8291 52.1088 33.8291 52.5811C33.8291 53.0534 33.346 53.193 32.9703 53.193H31.6286L31.8648 52.023Z" fill="#0069AC"/>
<path d="M37.9831 57.9052H40.366L41.5575 52.1518H43.7043L44.1122 50.166H37.4357L37.0278 52.1518H39.1746L37.9831 57.9052Z" fill="#0069AC"/>
<path d="M43.3501 57.9052H45.6149L46.5166 53.5686H46.538L47.9549 57.9052H50.3056L51.9265 50.166H49.6616L48.7922 54.3952H48.7707L47.3216 50.166H44.9601L43.3501 57.9052Z" fill="#0069AC"/>
<path d="M27.4424 63.2399C27.5175 62.9823 27.4853 62.9823 27.6571 62.2739C27.7859 61.5654 28.5587 60.5028 29.9219 60.3847C30.3835 60.331 48.1803 59.5796 51.9801 59.3113L51.8728 59.9661C48.2877 60.4276 32.0687 62.6281 27.4424 63.2399Z" fill="#E21C23"/>
<path d="M19.6603 57.9052V59.3113L20.8732 58.6029L22.0969 59.3113V57.9052L20.8732 57.1967L19.6603 57.9052Z" fill="#A58560"/>
<path d="M24.5335 57.9052V56.499L20.8732 54.3844L17.2237 56.499V57.9052L20.8732 55.7906L24.5335 57.9052Z" fill="#A58560"/>
<path d="M16 51.5721L20.8732 48.7598L25.7571 51.5721V57.1967L24.5335 57.9052V52.2806L20.8732 50.166L17.2237 52.2806V57.9052L16 57.1967V51.5721Z" fill="#0069AC"/>
<path d="M20.8732 51.5721L23.3205 52.9783V58.6029L22.0969 59.3113V53.6867L20.8732 52.9783L19.6603 53.6867V59.3113L18.4473 58.6029V52.9783L20.8732 51.5721Z" fill="#0069AC"/>
<path fill-rule="evenodd" clip-rule="evenodd" d="M96 59.8587H94.2826V54.6206H92.4685V57.5187H84.139V55.8872C84.139 55.8872 84.9011 53.1608 89.3664 53.2359V55.9194H90.7726V50.1338H92.4471V52.8387H95.9678L96 59.8587ZM86.8762 51.9693L87.7778 51.0676L88.6795 51.9693L87.7778 52.8709L86.8762 51.9693ZM84.3537 51.9693L85.2553 51.0676L86.1462 51.9693L85.2553 52.8709L84.3537 51.9693ZM80.9725 51.9693L81.8634 51.0676L82.7651 51.9693L81.8634 52.8709L80.9725 51.9693ZM87.6919 55.9086L85.8242 55.8872C85.8242 55.8872 86.1248 54.9318 87.6812 54.642L87.6919 55.9086ZM82.7973 53.2144H81.112V55.9516H77.9026V54.6098C77.9026 54.6098 78.8579 54.524 79.5127 54.0517V53.2144H76.2174V55.9408H74.779V53.2252C74.779 53.2252 70.6572 52.7958 69.777 55.9408V57.4973H82.7651L82.7973 53.2144ZM73.1153 55.9086L71.3227 55.8872C71.3227 55.8872 71.6554 54.7708 73.1045 54.5562L73.1153 55.9086ZM72.3853 51.9693L73.287 51.0676L74.1887 51.9693L73.287 52.8709L72.3853 51.9693ZM69.8736 51.9693L70.7753 51.0676L71.6662 51.9693L70.7753 52.8709L69.8736 51.9693ZM92.3612 58.4633H69.7663V59.8158H92.3612V58.4633ZM68.7573 53.2466H67.1365V55.8979H65.2151V53.2252H63.4977V57.4651H67.2009V59.7192H68.7573V53.2466ZM66.106 58.4633H55.3506V59.8158H66.106V58.4633ZM62.5531 50.0586L62.5423 51.6687C62.5423 51.6687 59.451 51.2286 58.4098 53.0963L58.3668 53.193H62.5101V57.4221H55.3291V55.9194H60.8142V54.4703H56.1878V53.1178C56.1878 53.1178 57.1324 49.64 62.5531 50.0586Z" fill="#B38767"/>
</g>
<rect x="1" y="1" width="110" height="110" rx="9" stroke="#CCCCCC" stroke-width="2"/>
<defs>
<clipPath id="clip0_647_381">
<rect x="2" y="2" width="108" height="108" rx="8" fill="white"/>
</clipPath>
</defs>
</svg>
