<svg width="112" height="112" viewBox="0 0 112 112" fill="none" xmlns="http://www.w3.org/2000/svg">
<g clip-path="url(#clip0_633_897)">
<rect x="2" y="2" width="108" height="108" rx="8" fill="white"/>
<path d="M16.0917 58.4892C16.2884 58.4479 16.4354 58.3943 16.5289 58.3289C16.7433 58.177 16.8947 57.8884 16.9872 57.4601L18.4255 50.7681C18.4653 50.5689 18.4938 50.4037 18.5096 50.2724C18.5273 50.1416 18.5341 50.0398 18.5287 49.9661C18.5135 49.6996 18.4269 49.5319 18.2735 49.463C18.2184 49.4394 18.1516 49.4163 18.066 49.3971L18.1678 48.932H21.4447C22.5629 48.932 23.4396 49.108 24.0735 49.463C24.7122 49.8136 25.055 50.3796 25.1027 51.1679C25.1494 51.93 24.8067 52.5388 24.0745 52.9941C23.6806 53.242 23.1471 53.4485 22.4695 53.6147C23.1112 53.8389 23.5695 54.0632 23.8458 54.284C24.3105 54.6587 24.5633 55.1725 24.6001 55.8211C24.6528 56.6428 24.3543 57.3656 23.7165 57.9847C23.0763 58.6023 21.9654 58.9107 20.3806 58.9107H15.9998L16.0917 58.4892ZM19.495 58.3855C19.6174 58.4263 19.8102 58.4455 20.0674 58.4455C21.0164 58.4455 21.6724 58.0069 22.0348 57.1335C22.2482 56.6162 22.3406 56.0744 22.3082 55.5153C22.2683 54.8298 22.0008 54.3695 21.5135 54.133C21.2244 53.9914 20.7041 53.9039 19.9538 53.8709L19.1886 57.5127C19.1734 57.5707 19.1577 57.6366 19.1473 57.7158C19.1419 57.79 19.1419 57.8741 19.1488 57.9724C19.1616 58.1755 19.2757 58.3127 19.495 58.3855ZM21.5362 53.2508C21.8056 53.1874 22.049 53.0536 22.2634 52.8491C22.5373 52.5929 22.7217 52.2349 22.8196 51.7796C22.882 51.4831 22.9086 51.1895 22.8899 50.8999C22.8624 50.4608 22.7488 50.1077 22.5486 49.8348C22.3475 49.5584 21.9743 49.4193 21.4319 49.4193C21.2008 49.4193 21.0449 49.4743 20.9574 49.5786C20.8748 49.6882 20.8148 49.8525 20.7681 50.0747L20.0506 53.4249C20.7754 53.3693 21.2706 53.3093 21.5362 53.2508Z" fill="#0069AB"/>
<path d="M26.3029 53.797C27.1482 52.6183 28.0378 52.0297 28.9706 52.0297C29.3526 52.0297 29.6359 52.1409 29.8281 52.3616C29.9412 52.4983 30.0489 52.7265 30.1488 53.0471L30.7305 52.223H32.0282L31.1376 55.6336C31.0127 56.1303 30.9237 56.5064 30.8745 56.77C30.7688 57.2701 30.7197 57.6251 30.731 57.839C30.7359 57.928 30.758 57.9895 30.7998 58.0225C30.8406 58.0564 30.8829 58.0726 30.9311 58.0726C31.0211 58.0726 31.1022 58.0421 31.1809 57.9777C31.2615 57.9103 31.3515 57.8174 31.4445 57.6935L31.5104 57.6158C31.6126 57.6827 31.7459 57.7766 31.8595 57.8563C31.6298 58.167 31.4071 58.4242 31.1863 58.6342C30.8406 58.9695 30.4758 59.1367 30.1045 59.1367C29.8744 59.1367 29.6482 59.0517 29.4249 58.8825C29.2017 58.7119 29.0822 58.4635 29.066 58.1311C29.0606 58.0077 29.1087 57.7058 29.2076 57.2254L29.1569 57.3085C29.1087 57.3955 29.0286 57.5248 28.9219 57.6935C28.677 58.0933 28.3834 58.4306 28.0363 58.7084C27.6965 58.9838 27.307 59.1215 26.8719 59.1215C26.4731 59.1215 26.1008 58.9749 25.7448 58.6765C25.3903 58.3819 25.1931 57.8789 25.1567 57.1683C25.1021 56.0723 25.4847 54.9491 26.3029 53.797ZM29.7205 52.9881C29.6187 52.7649 29.4402 52.6557 29.1879 52.6557C28.6455 52.6557 28.1233 53.2925 27.6203 54.5685C27.1743 55.703 26.9677 56.5674 26.9987 57.1683C27.0095 57.4078 27.0779 57.6133 27.2033 57.7889C27.3341 57.9639 27.4964 58.052 27.6891 58.052C28.1882 58.0564 28.7163 57.4009 29.2774 56.0845C29.6703 54.9816 29.8493 54.1073 29.8168 53.4631C29.8085 53.2679 29.7765 53.1086 29.7205 52.9881Z" fill="#0069AB"/>
<path d="M32.1557 58.9108L33.3162 53.8878C33.3599 53.6955 33.3904 53.5401 33.4111 53.429C33.4494 53.2219 33.4671 53.0754 33.4637 52.9928C33.4524 52.8133 33.3899 52.7017 33.2768 52.6569C33.2173 52.6358 33.1264 52.6161 33.0074 52.6019L33.0762 52.2227H35.4837L34.7501 54.8038L34.7889 54.824C34.7658 54.8491 34.8991 54.6283 35.1936 54.1621C35.4857 53.6915 35.7684 53.3095 36.0384 53.0179C36.3089 52.7214 36.5921 52.4868 36.8881 52.3113C37.193 52.1328 37.5111 52.0413 37.8549 52.0413C38.1676 52.0413 38.442 52.1328 38.6682 52.3113C38.9013 52.4912 39.0271 52.7843 39.0498 53.1949C39.0694 53.573 38.889 54.406 38.5167 55.6978C38.1381 56.9871 37.9522 57.6751 37.9586 57.7665C37.9606 57.8555 37.9921 57.9224 38.0476 57.9726C38.1042 58.0144 38.1583 58.0375 38.2123 58.0375C38.3328 58.0375 38.4971 57.8988 38.7124 57.621L39.0665 57.8472C38.9116 58.0763 38.7724 58.2573 38.6446 58.3935C38.2207 58.8459 37.758 59.0721 37.2559 59.0721C36.9884 59.0721 36.7445 58.9919 36.5223 58.8385C36.3054 58.6831 36.1884 58.4372 36.1712 58.1019C36.1613 57.8885 36.1972 57.5767 36.2769 57.1686C36.3605 56.7614 36.4633 56.3435 36.5882 55.9093L37.2215 53.6797L37.2495 53.543C37.2559 53.5042 37.2599 53.4644 37.2599 53.425C37.253 53.3149 37.2112 53.2362 37.1291 53.1949C37.0553 53.1497 36.9732 53.128 36.8842 53.128C36.5803 53.128 36.2499 53.3641 35.8992 53.841C35.5482 54.3131 35.2649 54.7822 35.05 55.2553C34.8174 55.7637 34.6296 56.281 34.4801 56.8052C34.3321 57.3309 34.1566 58.0321 33.9564 58.9108H32.1557Z" fill="#0069AB"/>
<path d="M39.3572 58.9108C39.3572 58.9108 41.3074 50.1609 41.3221 50.0665C41.3374 49.976 41.3428 49.887 41.3393 49.7975C41.3266 49.5762 41.2498 49.4395 41.1063 49.3903C41.0369 49.3677 40.9484 49.351 40.8324 49.3397L40.9214 48.936H43.3559L41.9579 55.3044C42.4998 54.8972 42.9739 54.5103 43.3736 54.1478C43.9912 53.5794 44.2966 53.1831 44.2838 52.9588C44.2769 52.799 44.1988 52.6997 44.0522 52.6594C43.9863 52.6436 43.916 52.6269 43.8349 52.6161L43.9214 52.2168L46.1136 52.2409L45.9695 52.7469C45.5731 52.7607 45.5987 52.7956 44.6285 53.7171C44.6285 53.7171 43.9072 54.3986 43.8123 54.4832L43.7395 54.5501C43.7523 54.5894 43.8123 54.8436 43.9214 55.3108C44.0488 55.8517 44.1466 56.2185 44.2086 56.4123C44.4284 57.0618 44.5848 57.4877 44.6831 57.6859C44.7839 57.8811 44.9241 57.9779 45.0967 57.9779C45.2752 57.9779 45.4335 57.883 45.58 57.6927C45.5953 57.6736 45.6144 57.6475 45.6331 57.6195L45.9469 57.8555C45.8082 58.0856 45.6577 58.3005 45.4959 58.4948C45.1881 58.864 44.8164 59.0489 44.3841 59.0489C44.0562 59.0489 43.7754 58.9383 43.5443 58.7219C43.3146 58.5036 43.1194 58.2115 42.9611 57.8471C42.7914 57.4636 42.6439 57.023 42.5205 56.5224C42.4054 56.0218 42.343 55.7499 42.341 55.7066L41.7804 56.1138L41.1766 58.9108H39.3572Z" fill="#0069AB"/>
<path d="M70.0455 51.2141H71.623C72.1693 51.2141 72.5745 51.3257 72.5745 51.9266C72.5745 52.5433 71.9593 52.7232 71.4715 52.7232H69.7367L70.0455 51.2141ZM65.4793 58.7991H71.204C73.3873 58.7991 75.3144 57.8466 75.3144 55.4415C75.3144 54.521 74.7292 53.6384 73.8043 53.4422V53.4156H73.8181C75.0218 53.0955 75.6498 52.2689 75.6498 51.012C75.6498 49.5698 74.8394 48.8159 72.6723 48.8159H67.5485L65.4793 58.7991ZM69.3586 54.5835H71.0486C71.6928 54.5835 72.2406 54.6951 72.2406 55.4386C72.2406 56.248 71.4863 56.4422 70.9385 56.4422H68.9661L69.3586 54.5835Z" fill="#0069AB"/>
<path d="M77.936 58.7992H81.0093L82.5485 51.3731H85.3164L85.8499 48.8161H77.2358L76.7052 51.3731H79.4732L77.936 58.7992Z" fill="#0069AB"/>
<path d="M84.868 58.7992H87.7893L88.9493 53.2068H88.9769L90.8076 58.7992H93.8278L95.9265 48.8161H93.0022L91.8845 54.2689H91.8579L89.9844 48.8161H86.9347L84.868 58.7992Z" fill="#0069AB"/>
<path d="M64.3414 65.6851C64.4333 65.3453 64.3954 65.3472 64.6226 64.4307C64.7859 63.5273 65.7807 62.1436 67.5347 62.0015C68.1326 61.9302 91.0935 60.9546 96 60.6109L95.853 61.4596C91.2302 62.0571 70.3149 64.8924 64.3414 65.6851Z" fill="#E31C24"/>
<path d="M54.3022 58.8006V60.6136L55.8742 59.7059L57.4468 60.6136V58.8006L55.8742 57.8914L54.3022 58.8006Z" fill="#A68561"/>
<path d="M60.5898 58.8007V56.9828L55.8736 54.26L51.1604 56.9828V58.8007L55.8736 56.075L60.5898 58.8007Z" fill="#A68561"/>
<path d="M49.5867 50.6306L55.8745 47.0001L62.1632 50.6306V57.8915L60.5898 58.8007L60.5907 51.5398L55.8745 48.8156L51.1598 51.5398L51.1604 58.8007L49.5867 57.8915V50.6306Z" fill="#0069AB"/>
<path d="M55.8737 50.6305L59.0179 52.4464V59.7064L57.4468 60.6136L57.4468 53.3527L55.8737 52.4464L54.3026 53.3527V60.6126L52.7321 59.7064V52.4464L55.8737 50.6305Z" fill="#0069AB"/>
</g>
<rect x="1" y="1" width="110" height="110" rx="9" stroke="#CCCCCC" stroke-width="2"/>
<defs>
<clipPath id="clip0_633_897">
<rect x="2" y="2" width="108" height="108" rx="8" fill="white"/>
</clipPath>
</defs>
</svg>
