<svg width="112" height="112" viewBox="0 0 112 112" fill="none" xmlns="http://www.w3.org/2000/svg">
<g clip-path="url(#clip0_421_559)">
<rect x="2" y="2" width="108" height="108" rx="8" fill="white"/>
<g clip-path="url(#clip1_421_559)">
<path fill-rule="evenodd" clip-rule="evenodd" d="M26.5562 56.5524H16V46H26.5562V56.5524Z" fill="#6A1F1D"/>
<path fill-rule="evenodd" clip-rule="evenodd" d="M17.4265 47.9908L19.9077 51.2772H25.5211L23.0375 47.9908H17.4265Z" fill="white"/>
<path fill-rule="evenodd" clip-rule="evenodd" d="M19.9077 51.2772L17.4265 54.5598H23.0375L25.5211 51.2772H19.9077Z" fill="#DA242A"/>
<path fill-rule="evenodd" clip-rule="evenodd" d="M53.1719 51.2044C53.4806 51.036 53.9792 50.5663 53.9792 49.7983C53.9791 48.5992 53.1604 47.8523 51.8425 47.8523L49.0795 47.8523V54.7269H51.9596C53.2622 54.7269 54.0743 53.9656 54.0743 52.7359C54.0742 51.8139 53.5324 51.3848 53.1719 51.2044ZM50.468 49.1009C50.5229 49.1009 51.7393 49.1009 51.7393 49.1009C52.272 49.1009 52.5884 49.3803 52.5884 49.8535C52.5884 50.3287 52.272 50.6113 51.7393 50.6113C51.7393 50.6114 50.523 50.6113 50.468 50.6113L50.468 49.1009ZM51.8272 53.4841C51.8272 53.4841 50.523 53.4841 50.468 53.4841L50.468 51.8667C50.5229 51.8667 51.8272 51.8666 51.8272 51.8666C52.4607 51.8667 52.6842 52.2814 52.6842 52.6698C52.6842 53.0638 52.4607 53.4841 51.8272 53.4841ZM43.6751 52.2463C43.6272 52.1573 41.252 47.8402 41.252 47.8402L39.8944 47.8402V54.7151H41.2839C41.2839 54.7151 41.284 50.8138 41.284 50.6082C41.3854 50.7886 43.6751 54.7701 43.6751 54.7701C43.6751 54.7701 45.96 50.7885 46.0647 50.6082C46.0647 50.8151 46.0647 54.7151 46.0647 54.7151H47.4519V47.8402H46.0937C46.0937 47.8402 43.7256 52.1572 43.6751 52.2463ZM36.8046 47.8523V54.7269H38.1953V47.8523H36.8046ZM34.504 53.0724C34.1017 53.3937 33.6126 53.5642 33.0955 53.5642C31.8424 53.5643 30.865 52.5666 30.865 51.2912C30.865 50.0174 31.8425 49.0175 33.0955 49.0175C33.6126 49.0175 34.1018 49.1858 34.5041 49.509L34.5258 49.5256L35.4915 48.5577L35.4714 48.5398C34.8075 47.9657 33.9664 47.6511 33.0955 47.6511C31.0642 47.6511 29.4155 49.2848 29.4155 51.2912C29.4155 53.297 31.0643 54.9294 33.0955 54.9294C33.9664 54.9294 34.8075 54.6149 35.4714 54.0429L35.4915 54.0231L34.5258 53.0559L34.504 53.0724Z" fill="#6A1F1D"/>
<path fill-rule="evenodd" clip-rule="evenodd" d="M68.0094 52.069H70.3028L69.1752 48.7466H69.1563L68.0094 52.069ZM68.6835 47.8886H69.6791L72.0713 54.7038H71.2391L70.5899 52.8689H67.7267L67.1002 54.7469H66.175L68.6835 47.8886Z" fill="#6A1F1D"/>
<path fill-rule="evenodd" clip-rule="evenodd" d="M81.8693 52.069H84.1637L83.0339 48.7466H83.0151L81.8693 52.069ZM82.5415 47.8886H83.5365L85.9249 54.7038H85.0955L84.4479 52.8689H81.5831L80.9588 54.7469H80.0299L82.5415 47.8886Z" fill="#6A1F1D"/>
<path fill-rule="evenodd" clip-rule="evenodd" d="M78.7084 48.7778C78.7084 48.7778 76.1253 46.727 73.8089 48.9106C73.8089 48.9106 72.7688 49.8162 72.8295 51.7172C72.8295 51.7172 72.9466 54.8384 76.3923 54.8834C76.3923 54.8834 77.8616 54.7931 78.8428 54.2145V50.9605H76.5707V51.5828H78.1739V53.7227C78.1739 53.7227 75.8146 54.8384 74.4747 53.5017C74.4747 53.5017 73.4074 52.9218 73.6306 50.9141C73.6306 50.9141 74.0752 48.4785 76.5411 48.6289C76.5411 48.6289 77.8778 48.7918 78.2348 49.3717L78.7084 48.7778Z" fill="#6A1F1D"/>
<path fill-rule="evenodd" clip-rule="evenodd" d="M65.0296 47.8403V54.7039H64.3182V47.8403H65.0296Z" fill="#6A1F1D"/>
<path fill-rule="evenodd" clip-rule="evenodd" d="M61.7752 54.7039H62.4885V47.8403H61.7752V53.4585L57.6807 47.8403H56.9666V54.7039H57.6807V49.068L61.7752 54.7039Z" fill="#6A1F1D"/>
<path fill-rule="evenodd" clip-rule="evenodd" d="M76.1428 57.7039H76.1483H76.1497C76.3867 57.6972 76.5738 57.6292 76.7191 57.4993C76.9155 57.3255 76.911 57.1694 76.8746 57.0691C76.8212 56.9152 76.6722 56.8369 76.4148 56.8369C76.1573 56.8437 75.9699 56.912 75.8422 57.0448C75.67 57.2176 75.6803 57.3827 75.718 57.4884C75.7684 57.6325 75.9115 57.7039 76.143 57.7039H76.1428ZM74.1748 58.8306C74.2045 58.8504 74.2578 58.8832 74.3041 58.8832C74.4177 58.8832 74.4504 58.8229 74.4625 58.7865C74.4689 58.76 74.4951 58.705 74.5822 58.5908C74.6438 58.5058 74.7154 58.4256 74.7914 58.3563L74.8282 58.3244L74.8128 58.2782C74.7975 58.2341 74.7617 58.1989 74.7046 58.1593C74.6681 58.1417 74.6196 58.1175 74.5532 58.0958L74.5197 58.0868C74.5069 58.0859 74.4951 58.0825 74.4747 58.0801L74.4436 58.0703L74.4335 58.0693C74.3881 58.0604 74.3399 58.0517 74.2907 58.0459C74.2211 58.0361 74.1499 58.0341 74.0768 58.0341C73.2088 58.0342 72.2154 58.6268 71.8178 58.8887C71.8277 58.8734 71.8385 58.858 71.8481 58.8437L71.8711 58.8063C71.919 58.7379 71.9615 58.6655 71.9991 58.5862C72.0378 58.5027 72.0569 58.4387 72.0378 58.387C71.9988 58.2759 71.8925 58.1935 71.7191 58.1417C71.5498 58.0923 71.4789 58.0756 71.431 58.0756L71.4296 58.0757C71.3568 58.0757 71.3025 58.1417 71.2348 58.2519C71.2102 58.3123 71.1524 58.4288 71.0148 58.638C70.8985 58.8131 70.7628 59.0209 70.6258 59.2453C70.6098 59.2616 70.5891 59.2792 70.5674 59.299C68.7788 60.7558 67.71 61.0614 67.1269 61.0614C67.0129 61.0614 66.9085 61.0493 66.8254 61.0285C66.5933 60.9385 66.63 60.5952 66.6389 60.5323C66.6702 60.3915 66.7197 60.241 66.7858 60.0759C66.9497 59.6854 67.2329 59.1541 67.625 58.4949L68.4834 58.4851C68.5093 58.4784 68.6367 58.4365 68.6616 58.3356C68.6718 58.2947 68.6706 58.2321 68.5971 58.1593C68.5306 58.0977 68.2181 58.0626 67.9147 58.0495C67.9156 58.0495 67.9156 58.0461 67.9171 58.044C67.9573 57.9856 68.0036 57.9338 68.0585 57.8911L68.1742 57.8007L68.0327 57.7612L67.9842 57.749L67.9672 57.7436L67.9506 57.746L67.334 57.8693C67.2682 57.8913 67.2088 57.9242 67.1571 57.9637C67.1235 57.9903 67.0942 58.0276 67.0603 58.0736C66.4219 58.1311 65.4997 58.3003 64.6615 58.7988C64.3891 58.9505 64.1493 59.1102 63.9445 59.2772C63.5754 59.5764 63.3036 59.8935 63.1344 60.2202C62.9601 60.5536 62.9124 60.8375 62.9923 61.0594C63.0714 61.273 63.2829 61.381 63.6172 61.381L63.6476 61.3786C63.8737 61.3743 64.1122 61.3201 64.3549 61.2176C64.6001 61.12 64.8416 60.9976 65.069 60.8526C65.3011 60.7073 65.5195 60.5444 65.7175 60.3708C65.7625 60.3334 65.8088 60.2915 65.8516 60.252C65.8164 60.3334 65.79 60.4103 65.7702 60.4873C65.7101 60.7163 65.7054 60.8967 65.7565 61.034C65.8114 61.1848 65.9244 61.3102 66.0905 61.4025C66.245 61.4898 66.4734 61.5347 66.7697 61.5347H66.8204C67.1817 61.528 67.5553 61.4565 67.9337 61.3234C68.3188 61.1848 68.6921 61.011 69.0443 60.7999C69.4176 60.5732 69.766 60.3334 70.0793 60.0837C70.0905 60.0738 70.1036 60.0648 70.1163 60.0562C69.9442 60.3244 69.7775 60.5975 69.6153 60.8625C69.5255 61.0002 69.4975 61.1056 69.5256 61.1803C69.5383 61.2301 69.5821 61.2729 69.7737 61.3543C69.9426 61.4268 70.0036 61.4399 70.0419 61.4399C70.1499 61.4399 70.2163 61.4124 70.2399 61.3565C70.3932 61.1452 70.5312 60.9341 70.6516 60.7284C70.7595 60.5435 70.8904 60.3465 71.0466 60.1287C71.1944 59.9218 71.3528 59.7327 71.5157 59.5587C71.6785 59.3827 71.8909 59.2132 72.1467 59.0548C72.2999 58.9503 72.4909 58.8526 72.7132 58.7677C72.9331 58.6809 73.1494 58.6336 73.3554 58.6304L73.3937 58.6304C73.5552 58.6304 73.6792 58.6412 73.766 58.661C73.88 58.6921 73.9624 58.7195 74.0209 58.747C74.0752 58.7721 74.1368 58.8018 74.1748 58.8306ZM66.2054 59.4686C64.7378 60.6623 64.2352 60.8417 64.0662 60.8417C63.9995 60.8417 63.9902 60.8162 63.9857 60.7986C63.9857 60.6866 64.0266 60.5278 64.1058 60.3334C64.2217 60.054 64.4111 59.7655 64.6663 59.4817C64.8444 59.2837 65.06 59.0978 65.3072 58.9273C65.621 58.7249 66.1256 58.4841 66.7422 58.4841C66.7687 58.4841 66.7962 58.4841 66.8237 58.485C66.7806 58.5556 66.7362 58.6281 66.6915 58.7073L66.5558 58.9341C66.4347 59.1365 66.3051 59.3255 66.2054 59.4686ZM51.9815 61.5698L52.0228 61.5797C52.0662 61.5918 52.1135 61.605 52.1729 61.6225C52.4475 61.6876 52.7177 61.7272 52.9958 61.748C53.2362 61.7691 53.4837 61.779 53.7517 61.779H53.8574C54.5357 61.7647 55.1351 61.68 55.638 61.5257C55.8471 61.4619 56.0445 61.3817 56.2396 61.2783C56.4328 61.1783 56.6072 61.0592 56.7617 60.9308C56.9179 60.7986 57.0328 60.6546 57.1006 60.5026C57.1743 60.3398 57.182 60.1769 57.121 60.0054C57.084 59.9064 57.0418 59.8294 56.9926 59.7668C56.946 59.7062 56.8789 59.6423 56.7815 59.5631L56.7579 59.5455C56.7288 59.5258 56.6953 59.5015 56.6544 59.4731C56.5944 59.4312 56.5242 59.3881 56.4504 59.3444C56.4213 59.3233 56.3839 59.3025 56.3469 59.2792L56.3118 59.2572C55.3266 58.6412 55.0421 58.3551 54.9706 58.2672C54.8652 58.1009 54.7633 57.8579 54.8777 57.649C54.9977 57.4313 55.3998 57.1713 56.6225 57.1703C56.7991 57.1968 56.9454 57.2351 57.0594 57.2837C57.2924 57.3872 57.4317 57.4906 57.472 57.5973C57.4834 57.6292 57.4934 57.6711 57.4774 57.6985L57.4438 57.7589L57.5023 57.7985C57.5495 57.8294 57.5961 57.8448 57.6434 57.8448C57.6638 57.8448 57.6843 57.8414 57.7051 57.8349L57.752 57.8206L57.7558 57.7733C57.7642 57.6928 57.7834 57.5995 57.8112 57.4906C57.837 57.375 57.86 57.2847 57.8836 57.2176L57.8913 57.1937L57.8836 57.1671C57.8577 57.101 57.7978 57.0372 57.6987 56.9768C57.5084 56.8833 57.3114 56.8216 57.1131 56.7929C56.9406 56.7676 56.7637 56.7546 56.5871 56.7546L56.5149 56.7555C56.2141 56.7613 55.9539 56.7875 55.724 56.8369C55.5123 56.881 55.3159 56.9359 55.1393 57.0021C54.9763 57.0637 54.8429 57.1276 54.7289 57.2023C54.6171 57.2805 54.5386 57.3408 54.4843 57.3916C54.3198 57.5455 54.1966 57.7215 54.1155 57.9195C54.0363 58.1265 54.0308 58.3321 54.1037 58.5314C54.1739 58.7303 54.3065 58.904 54.4952 59.0528C54.6657 59.1879 54.9106 59.3476 55.2411 59.5388C55.5767 59.7282 55.8313 59.8933 55.9775 60.0143C56.0519 60.0801 56.1043 60.1395 56.1394 60.1813C56.1455 60.1881 56.2742 60.3752 56.1796 60.5796C56.0794 60.7955 55.7198 61.0803 54.5616 61.1991C54.2569 61.23 53.9743 61.2441 53.7202 61.2441C52.2592 61.2441 52.1513 60.7338 52.1513 60.6942L52.1579 60.67L52.1497 60.6457C52.1267 60.5818 52.0733 60.5467 51.9964 60.5467C51.9714 60.5476 51.921 60.5534 51.8948 60.593L51.8855 60.616L51.8841 60.6348C51.8697 60.7339 51.8567 60.8612 51.8413 61.0199C51.8301 61.1739 51.8215 61.3147 51.8171 61.4344L51.817 61.4632L51.8337 61.484C51.8617 61.5191 51.9046 61.5433 51.9814 61.5699L51.9815 61.5698ZM63.1953 58.2034C63.1586 58.1044 63.0894 58.0099 62.9878 57.9195C62.8901 57.8336 62.7895 57.7755 62.6746 57.7445C62.5238 57.7488 62.3715 57.8426 62.2217 58.0207C62.0854 58.1848 61.9449 58.3924 61.8082 58.6326C61.6022 58.9781 61.4058 59.321 61.2101 59.6797L61.0654 59.9109C60.9859 60.0405 60.9147 60.1529 60.8598 60.2411C60.4229 60.6808 59.8152 60.9152 59.812 60.9152C59.5786 60.9934 59.3876 61.0308 59.242 61.0308C59.242 61.0308 59.2406 61.0308 59.2396 61.0308C59.1026 61.0308 59.0106 60.9944 58.9695 60.9228C58.8756 60.7558 59.0126 60.4081 59.1611 60.1571C59.1831 60.1197 59.2105 60.0824 59.2387 60.0427C59.5691 59.5586 59.9332 58.9976 60.3177 58.3729L60.3365 58.342L60.3254 58.3091C60.293 58.2101 60.1689 58.2101 60.1273 58.2101C60.09 58.2101 60.0047 58.2187 59.838 58.2398C59.6889 58.2583 59.5675 58.2759 59.4628 58.2947C59.4101 58.3177 59.3644 58.3487 59.3201 58.3774C59.2865 58.4036 59.2418 58.4442 59.1901 58.4917L59.1725 58.5071L59.1682 58.5138C58.7001 59.1496 58.3527 59.627 58.0691 60.0373C57.7539 60.494 57.6406 60.8306 57.7255 61.0703C57.7836 61.2201 57.9053 61.33 58.0918 61.3971C58.2546 61.4555 58.4564 61.4839 58.694 61.4839L58.757 61.484C59.1258 61.4786 59.4751 61.4136 59.7938 61.2927C59.9752 61.2234 60.131 61.1572 60.2658 61.0933C57.5422 64.3225 55.1663 65.0132 53.6374 65.0132C52.8441 65.0132 52.2039 64.8305 51.76 64.6501C51.3183 64.4687 51.0734 64.2883 51.0718 64.2883C50.9706 64.1695 50.9074 64.0759 50.8876 64.0188C50.8763 63.977 50.8432 63.9418 50.7828 63.9118C50.7652 63.9055 50.7461 63.9022 50.7292 63.9022C50.6819 63.9022 50.6401 63.9284 50.6152 63.9747C50.5938 64.0188 50.5832 64.0935 50.5871 64.1903C50.5895 64.2851 50.6219 64.4215 50.6819 64.5952C50.7752 64.8593 50.9288 65.0649 51.1472 65.2224C51.3659 65.3786 51.6108 65.4929 51.8951 65.5743C52.1764 65.6513 52.4644 65.7065 52.7566 65.7349C52.9993 65.7579 53.2165 65.7691 53.4183 65.7691C53.47 65.7691 53.524 65.7676 53.5758 65.7657C54.6049 65.7325 55.5687 65.4795 56.4366 65.013C57.3037 64.5488 58.1237 63.9525 58.8741 63.2375C59.3883 62.749 59.8922 62.2121 60.375 61.6389L62.1822 59.608C62.3156 59.4607 62.4434 59.3132 62.5606 59.1778L62.6018 59.1296C62.7713 58.9316 62.9198 58.7422 63.0434 58.573C63.202 58.3485 63.2184 58.2626 63.1953 58.2032V58.2034ZM95.9783 53.7832C95.9614 53.6873 95.9087 53.5564 95.8139 53.376C95.6766 53.1196 95.4878 52.9184 95.249 52.7785C95.0152 52.639 94.7511 52.5387 94.4637 52.4825C94.1786 52.4221 93.8976 52.3924 93.605 52.3857L93.4712 52.3833C93.2308 52.3833 93.0082 52.3967 92.8089 52.421C91.8193 52.5375 90.9338 52.8728 90.1834 53.4198C89.4371 53.9634 88.7588 54.642 88.1674 55.4329C87.5887 56.2054 87.0545 57.0766 86.5793 58.0196L86.5563 58.0668C86.5244 58.1308 86.4947 58.1933 86.466 58.2482L86.4104 58.3309C86.3599 58.4079 86.3099 58.4826 86.261 58.5631C86.1614 58.7158 86.0633 58.8776 85.9643 59.0392L85.8433 59.2353C84.2948 60.4376 83.1838 61.0459 82.5414 61.0459C82.352 61.046 82.2102 60.9932 82.1179 60.8808C81.9301 60.6598 81.9886 60.2671 81.9985 60.2054C82.0078 60.1767 82.0183 60.1527 82.0275 60.124C82.0403 60.0889 82.0524 60.0515 82.0694 60.0106C82.2211 59.6434 82.4829 59.1472 82.8712 58.4957L83.7603 58.4871C83.7851 58.4795 83.9148 58.4363 83.9413 58.3354C83.9512 58.2945 83.9496 58.2319 83.8762 58.1591C83.8072 58.0966 83.4748 58.0579 83.1535 58.0493C83.1646 58.0317 83.1749 58.0183 83.1848 58.0007L83.2001 57.9787C83.241 57.9148 83.2857 57.8688 83.3384 57.8292L83.4639 57.7379L83.3141 57.697L83.264 57.684L83.2477 57.6796L83.2302 57.682L82.6151 57.8053C82.5529 57.8274 82.4948 57.858 82.435 57.8998C82.3906 57.9372 82.3459 57.9943 82.3015 58.0757C81.6737 58.0914 81.0897 58.2102 80.5695 58.4289C80.0802 58.6336 79.6514 58.8811 79.2928 59.1605L79.2595 59.1606C79.2193 59.1606 79.1771 59.1816 79.1104 59.2311C77.7027 60.4963 76.3801 60.9462 75.6115 60.9462C75.2602 60.9462 75.0175 60.846 74.9961 60.6853C74.9559 60.3114 75.462 59.3607 75.9449 58.5985L75.9818 58.5446L76.0148 58.4906C76.0553 58.4609 76.0834 58.4181 76.1 58.3596C76.1137 58.3092 76.117 58.2696 76.1039 58.2233C76.0652 58.1387 75.9519 58.1387 75.8937 58.1387C75.8206 58.1387 75.6942 58.1671 75.494 58.2287C75.2848 58.2894 75.151 58.3663 75.0919 58.4541C74.99 58.5698 74.8623 58.7415 74.7237 58.9494C74.5752 59.164 74.4274 59.3939 74.2837 59.628C74.1434 59.867 74.0288 60.0978 73.9382 60.3178C73.8391 60.5579 73.8177 60.747 73.8717 60.891C73.9119 61.0079 73.9899 61.1033 74.1016 61.1784C74.2013 61.2411 74.3143 61.2905 74.4481 61.3346C74.5682 61.371 74.7039 61.3927 74.8521 61.4007C74.9641 61.407 75.0641 61.4115 75.1529 61.4115L75.2116 61.4091C75.5038 61.4024 75.8146 61.3619 76.1345 61.2881C76.4635 61.2143 76.7684 61.1122 77.066 60.978C77.4428 60.804 77.835 60.5795 78.2629 60.2959C78.3086 60.265 78.3504 60.2343 78.3932 60.2056C78.2399 60.5137 78.1997 60.78 78.275 60.9956C78.3504 61.208 78.5631 61.3156 78.9032 61.3156H78.9318C79.15 61.3101 79.3882 61.2584 79.6331 61.1572C79.8755 61.0627 80.1173 60.9384 80.3514 60.7886C80.5787 60.6457 80.8032 60.4805 81.0012 60.309C81.0462 60.2685 81.0909 60.2298 81.1337 60.1912C81.0989 60.2717 81.0727 60.3486 81.0539 60.4234C80.9928 60.6424 80.9875 60.8283 81.0386 60.9691C81.089 61.1166 81.2014 61.2409 81.3735 61.3398C81.529 61.4267 81.751 61.4698 82.0365 61.4698H82.1003C82.4555 61.4665 82.8208 61.3961 83.2183 61.2584C83.5974 61.123 83.9716 60.9493 84.3268 60.736C84.6882 60.5182 85.0369 60.2771 85.3614 60.0197C85.3657 60.0183 85.3697 60.0163 85.3735 60.012C85.1954 60.3122 85.0162 60.6236 84.8329 60.9426C84.7955 61.0285 84.7866 61.1055 84.8125 61.1783C84.8504 61.2792 84.9616 61.3453 85.1459 61.3708C85.2845 61.3884 85.3972 61.3961 85.4891 61.3961H85.5274C85.6833 61.3927 85.8114 61.2881 85.9094 61.0879C86.0189 60.8768 86.1524 60.6334 86.3456 60.2969C86.4445 60.1197 86.5442 59.9469 86.6416 59.7764L86.8284 59.4497C87.279 58.9363 87.6865 58.5773 88.041 58.3838C88.4727 58.1494 88.6921 58.0935 88.8013 58.089C88.8144 58.089 88.8265 58.089 88.8386 58.1174C88.8539 58.1593 88.8588 58.2739 88.7148 58.5555C88.595 58.7909 88.4612 59.0505 88.3134 59.3322C88.162 59.6171 88.0343 59.9009 87.9321 60.1669C87.8202 60.4566 87.796 60.6983 87.8637 60.8854C87.9359 61.0879 88.0898 61.2386 88.3287 61.3398C88.5298 61.428 88.7681 61.473 89.0376 61.473C89.074 61.473 89.1114 61.473 89.1478 61.4696C89.5641 61.4562 89.9815 61.3671 90.4245 61.1998C90.8549 61.0405 91.2797 60.8281 91.6823 60.5729C92.0748 60.3264 92.4602 60.0438 92.83 59.7324C93.0654 59.5367 93.2803 59.3285 93.5236 59.0625C93.6957 58.9028 93.7976 58.7971 93.7976 58.7971L93.8464 58.7489L93.7988 58.6962C93.7369 58.6279 93.6715 58.5927 93.605 58.5927C93.4897 58.5928 93.4256 58.6917 93.4272 58.6917C93.4286 58.6918 93.4286 58.6917 93.4286 58.6917C91.4998 60.4816 90.3997 60.8578 89.8188 60.8578C89.1176 60.8578 88.9327 60.3341 88.9234 60.2165C88.9326 60.1284 88.9496 60.046 88.9758 59.9557C89.0515 59.7082 89.1549 59.453 89.2859 59.1966C89.4219 58.9316 89.5685 58.685 89.7313 58.4497C89.8833 58.223 90.006 58.0457 90.1005 57.9237C90.1911 57.8203 90.2451 57.7334 90.2627 57.6574L90.2651 57.6299L90.2675 57.629C90.2819 57.5156 90.2632 57.4265 90.2065 57.3594C90.1439 57.2879 90.0421 57.2525 89.8999 57.2525C89.2625 57.2525 87.8335 58.0115 87.2779 58.321C87.6161 57.3541 88.8637 54.3165 91.443 53.4636C91.6783 53.3956 91.9194 53.3362 92.1586 53.2898C92.3942 53.2525 92.6367 53.2336 92.8793 53.2336C93.7604 53.2337 94.7098 53.4779 95.6991 53.9566C95.7077 53.9697 95.7144 53.985 95.7199 53.993C95.7448 54.0426 95.7882 54.0655 95.8294 54.0821C95.8476 54.0907 95.8632 54.093 95.8798 54.093C95.9255 54.093 95.9766 54.0655 95.9922 53.9994C96.0063 53.9522 96.0008 53.886 95.9788 53.7829L95.9783 53.7832ZM81.3736 59.5565C81.3614 59.573 81.3477 59.5874 81.3327 59.6027L81.3109 59.627C80.1479 60.6083 79.6437 60.8152 79.424 60.8152C79.3608 60.8153 79.2762 60.7986 79.2729 60.6744C79.2822 60.5655 79.3234 60.4301 79.3905 60.2717C79.5032 59.9924 79.6926 59.7039 79.9528 59.4146C80.0192 59.3386 80.093 59.2648 80.1738 59.1914C80.1798 59.1848 80.9709 58.4828 82.0199 58.4828C82.0365 58.4828 82.0505 58.4828 82.0678 58.4842L82.0654 58.4852C81.9955 58.6062 81.9179 58.7339 81.8425 58.8702C81.6796 59.1321 81.528 59.3563 81.3734 59.5566L81.3736 59.5565Z" fill="#6A1F1D"/>
</g>
</g>
<rect x="1" y="1" width="110" height="110" rx="9" stroke="#CCCCCC" stroke-width="2"/>
<defs>
<clipPath id="clip0_421_559">
<rect x="2" y="2" width="108" height="108" rx="8" fill="white"/>
</clipPath>
<clipPath id="clip1_421_559">
<rect width="80" height="19.769" fill="white" transform="translate(16 46)"/>
</clipPath>
</defs>
</svg>
