<svg width="112" height="112" viewBox="0 0 112 112" fill="none" xmlns="http://www.w3.org/2000/svg">
<g clip-path="url(#clip0_421_556)">
<rect x="2" y="2" width="108" height="108" rx="8" fill="white"/>
<path fill-rule="evenodd" clip-rule="evenodd" d="M25.8407 62.7802L25.7826 62.8373C24.8507 63.7865 23.7718 64.29 22.661 64.29C20.342 64.29 18.658 62.5493 18.658 60.1479C18.658 57.7512 20.342 56.0096 22.661 56.0096C23.7718 56.0096 24.8507 56.514 25.7826 57.4651L25.8407 57.5236L27.3322 55.7193L27.2924 55.6706C26.0528 54.2044 24.5636 53.4916 22.7336 53.4916C20.8983 53.4916 19.2186 54.1098 18.009 55.2238C16.6935 56.4316 16 58.1333 16 60.1484C16 62.1639 16.6935 63.8699 18.009 65.0772C19.2186 66.1968 20.8979 66.8108 22.7336 66.8108C24.5636 66.8108 26.0528 66.098 27.2924 64.6313L27.3322 64.5859L25.8407 62.7802ZM28.8396 66.564H31.4751V53.6996H28.8396V66.564ZM41.7991 63.7673C41.0948 64.1954 40.441 64.4112 39.8524 64.4112C39.001 64.4112 38.6156 63.9617 38.6156 62.9605V56.1337H41.3008V53.7113H38.6156V49.7078L36.033 51.0907V53.7113H33.8049V56.1337H36.033V63.3965C36.033 65.3736 37.2047 66.7251 38.9556 66.7621C40.1427 66.785 40.8588 66.431 41.2933 66.1715L41.32 66.1537L41.9536 63.6727L41.7991 63.7673ZM43.9804 66.564H46.6183V53.6996H43.9804V66.564Z" fill="#1C4882"/>
<path fill-rule="evenodd" clip-rule="evenodd" d="M48.1547 51.4438C45.7472 48.0337 41.7494 45.9999 37.6819 45.9999C33.6152 45.9999 29.616 48.0342 27.2128 51.4438L27.0891 51.6189H30.1213L30.1536 51.5824C32.2178 49.4545 34.9119 48.3278 37.6819 48.3278C40.4518 48.3278 43.1445 49.4545 45.212 51.5824L45.2471 51.6189H48.276L48.1547 51.4438Z" fill="#CC2131"/>
<path fill-rule="evenodd" clip-rule="evenodd" d="M51.6505 56.757L51.6149 56.8043V63.4592L51.6407 63.4999C52.471 64.7835 53.8239 65.5515 55.261 65.5515C57.4831 65.5515 58.6098 63.6788 58.6098 59.9873C58.6098 56.6872 57.3623 54.7977 55.187 54.7977C53.8674 54.7972 52.6775 55.4566 51.6505 56.757ZM96 66.519V66.564H94.4078C94.3174 66.3813 91.0722 59.5096 91.0722 59.5096L88.6492 62.9061V66.5644H87.1456V49.6643C87.2771 49.5889 88.2943 49.0054 88.6492 48.8054V61.0765L89.4716 59.8C89.4688 59.8042 93.1584 54.4633 93.6304 53.7824H95.277C94.9267 54.2512 92.0266 58.2434 92.0266 58.2434C92.0266 58.2434 95.624 65.7454 96 66.519ZM66.0219 66.8328H65.3836C64.0883 66.7578 61.7553 66.1566 61.7553 62.8087C61.7553 59.8346 64.2101 58.7791 66.5094 58.7791C67.6656 58.7791 68.8059 59.0446 69.6329 59.5096L69.8815 59.6459V57.8116C69.8815 55.7774 68.8883 54.7471 66.9238 54.7471C65.7128 54.7471 64.6198 55.051 63.5011 55.6837C63.4004 55.4566 63.0529 54.6872 62.9569 54.4699C64.1277 53.8513 65.5737 53.5061 67.047 53.5061C69.9663 53.5061 71.3862 54.8394 71.3862 57.5868V66.564H69.8815V64.6997L69.5898 65.0233C68.5619 66.1551 67.394 66.7522 66.0219 66.8328ZM55.6848 66.8328H55.0896C53.8454 66.756 52.8283 66.2156 51.9071 65.1497L51.6149 64.8083V66.564H50.1141V49.6638C50.241 49.5884 51.2623 49.0049 51.6149 48.805V55.6434L51.9053 55.3245C53.0142 54.1009 54.2397 53.5061 55.6497 53.5061C58.4712 53.5061 60.091 55.857 60.091 59.9601C60.0905 64.0005 58.37 66.6604 55.6848 66.8328ZM63.2285 62.6846C63.2285 64.5967 64.219 65.648 66.0181 65.648C67.5499 65.648 68.9094 64.9245 69.8525 63.6091L69.8815 63.5641V60.7618L69.7973 60.7131C68.8368 60.1657 67.8557 59.9442 66.4096 59.9442C64.4203 59.9447 63.2285 60.9693 63.2285 62.6846ZM76.2934 55.3049C77.0689 54.1458 78.2846 53.5061 79.7077 53.5061C82.5432 53.5061 84.0469 55.3147 84.0469 58.7374V66.564H82.5385V59.0615C82.5385 56.1501 81.527 54.7972 79.3382 54.7972C77.2407 54.7972 75.9881 56.3927 75.9881 59.0615V66.564H74.4853V53.7824H75.9881V55.7638L76.2934 55.3049Z" fill="#1C4882"/>
</g>
<rect x="1" y="1" width="110" height="110" rx="9" stroke="#CCCCCC" stroke-width="2"/>
<defs>
<clipPath id="clip0_421_556">
<rect x="2" y="2" width="108" height="108" rx="8" fill="white"/>
</clipPath>
</defs>
</svg>
