<svg width="112" height="112" viewBox="0 0 112 112" fill="none" xmlns="http://www.w3.org/2000/svg">
<g clip-path="url(#clip0_528_34)">
<rect x="2.00003" y="2" width="108" height="108" rx="8" fill="white"/>
<path d="M17.9149 58.8532H18.7797C19.2733 58.8532 19.672 58.8925 20.1116 59.4001C20.4227 59.751 20.7647 60.5265 20.7647 61.781C20.7647 62.2313 20.768 62.6772 20.6827 63.1354C20.5457 63.858 20.2122 65.0165 18.3046 65.0165C17.7942 65.0165 17.9149 65.0033 17.9149 65.0033V58.8532ZM18.8959 66.0856C21.4632 66.0856 22.6127 64.9401 22.6127 61.8113C22.6127 60.9842 22.3695 59.5978 21.5991 58.7521C20.8023 57.884 19.7719 57.7756 18.9015 57.7756H16.04V66.0856H18.8959Z" fill="#046148"/>
<path d="M26.9986 63.9332C26.9986 64.2083 26.9907 64.5778 26.6987 64.8423C26.4539 65.0579 26.1091 65.0742 25.9777 65.0742C25.6521 65.0742 25.3589 64.9558 25.2354 64.5531C25.2045 64.4262 25.1921 64.2982 25.1921 64.1758C25.1921 63.5688 25.5947 63.3133 26.0423 63.2044C26.2768 63.15 26.4348 63.1397 26.9986 63.0927L26.9986 63.9332ZM26.9986 62.3435L26.0631 62.4356C25.0552 62.5512 24.6694 62.6432 24.2381 62.9298C23.5418 63.4031 23.5329 64.0955 23.5329 64.3229C23.5329 64.8906 23.7052 65.3179 23.94 65.5638C24.2493 65.9244 24.7396 66.0563 25.2129 66.0563C26.3736 66.0563 26.9273 65.5291 26.9273 65.5291L26.9352 65.9041H28.5002V61.9729C28.5002 61.5304 28.5108 60.9082 28.0032 60.468C27.7376 60.2406 27.5052 60.1356 27.1458 60.0845C26.7887 60.0204 26.6646 59.9945 26.3164 59.9945C25.2607 59.9945 24.4645 60.1803 24.0108 60.9878C23.8161 61.3377 23.8261 61.6886 23.8261 61.957H25.2608C25.274 61.723 25.2845 61.3989 25.4674 61.1737C25.56 61.0457 25.7768 60.8632 26.1783 60.8632C26.3091 60.8632 26.6893 60.8632 26.883 61.1799C26.9909 61.367 26.9999 61.61 26.9999 61.8857V62.3434L26.9986 62.3435Z" fill="#046148"/>
<path d="M39.4575 63.9332C39.4575 64.2083 39.4496 64.5778 39.1554 64.8423C38.9168 65.0579 38.5708 65.0742 38.431 65.0742C38.1076 65.0742 37.8189 64.9558 37.6937 64.5531C37.6623 64.4262 37.6533 64.2982 37.6533 64.1758C37.6533 63.5688 38.0537 63.3133 38.5035 63.2044C38.7381 63.15 38.8943 63.1397 39.4575 63.0927L39.4575 63.9332ZM39.4575 62.3435L38.5259 62.4356C37.5118 62.5512 37.1316 62.6432 36.6976 62.9298C36.0052 63.4031 35.9945 64.0955 35.9945 64.3229C35.9945 64.8906 36.1618 65.3179 36.3943 65.5638C36.7082 65.9244 37.2012 66.0563 37.6724 66.0563C38.8359 66.0563 39.3884 65.5291 39.3884 65.5291L39.3963 65.9041H40.9557V61.9729C40.9557 61.5304 40.9689 60.9082 40.4644 60.468C40.1988 60.2406 39.9618 60.1356 39.6069 60.0845C39.2481 60.0204 39.1257 59.9945 38.7753 59.9945C37.7202 59.9945 36.9256 60.1803 36.4691 60.9878C36.277 61.3377 36.2894 61.6886 36.2894 61.957H37.7202C37.7334 61.723 37.7439 61.3989 37.9273 61.1737C38.0189 61.0457 38.2356 60.8632 38.6376 60.8632C38.7685 60.8632 39.1481 60.8632 39.3469 61.1799C39.4495 61.367 39.4585 61.61 39.4585 61.8857V62.3434L39.4575 62.3435Z" fill="#046148"/>
<path d="M63.0339 65.904H61.401V62.3855C61.401 62.1604 61.401 61.9728 61.3825 61.7813C61.3666 61.5971 61.3139 60.9997 60.602 60.9997C60.4133 60.9997 60.2533 61.0464 60.1511 61.0896C59.6698 61.3102 59.6575 61.7011 59.6457 62.0117V65.9042H58.0094V60.1463H59.6457V60.801C60.0568 60.4332 60.4285 60.0306 61.3465 60.0306C62.1175 60.0306 62.4994 60.3293 62.6572 60.5141C63.0205 60.9223 63.0205 61.4518 63.0345 61.8645L63.0339 65.904Z" fill="#046148"/>
<path d="M34.7931 65.904H33.1613V62.3855C33.1613 62.1604 33.1613 61.9728 33.1344 61.7813C33.1238 61.5971 33.0681 60.9997 32.3522 60.9997C32.1696 60.9997 32.0096 61.0464 31.9074 61.0896C31.4251 61.3102 31.411 61.7011 31.3976 62.0117V65.9042H29.7624V60.1463H31.3976V60.801C31.8165 60.4332 32.1837 60.0306 33.1007 60.0306C33.8762 60.0306 34.2512 60.3293 34.4135 60.5141C34.7802 60.9223 34.7802 61.4518 34.7931 61.8645L34.7931 65.904Z" fill="#046148"/>
<path d="M42.1554 60.1434H43.79V60.8133C44.1039 60.5331 44.6576 60.0255 45.6391 60.0255C46.7622 60.0255 47.0744 60.696 47.1508 60.9172C47.8195 60.2703 48.2592 60.0255 48.8999 60.0255C49.2138 60.0255 49.4289 60.0767 49.6366 60.1524C50.5171 60.4905 50.5362 61.2732 50.5525 61.7809V65.9002H48.8893V62.1481C48.8813 61.7404 48.8682 61.5097 48.7623 61.3288C48.7412 61.2821 48.5787 60.9953 48.1654 60.9953C48.0256 60.9953 47.7589 61.0291 47.6337 61.0979C47.176 61.3164 47.1586 61.6965 47.1508 62.0048V65.9001H45.5302V62.1721C45.5302 61.7291 45.5355 60.9952 44.7974 60.9952C44.6306 60.9952 44.3403 61.0424 44.1971 61.1216C43.79 61.3725 43.7788 61.7404 43.79 62.2525V65.9002H42.1554V60.1434Z" fill="#046148"/>
<path d="M55.3798 62.9006C55.3798 63.2275 55.3666 63.5413 55.3326 63.858C55.2983 64.1759 55.2426 64.8149 54.7531 65.0833C54.6122 65.1506 54.4639 65.1859 54.3118 65.1859C53.3847 65.1859 53.301 64.2134 53.2819 63.8579C53.2608 63.5929 53.2442 63.3335 53.2442 63.0757C53.2442 62.8454 53.26 62.5254 53.2935 62.1481C53.3268 61.8432 53.3946 61.2598 53.8663 60.9841C54.0275 60.9025 54.1824 60.869 54.3627 60.869C55.2426 60.869 55.3223 61.7922 55.3431 62.1482C55.3668 62.4004 55.3798 62.6541 55.3798 62.9006ZM57.0467 62.9299C57.0467 62.4189 57.0467 61.4626 56.4784 60.8135C55.7928 59.9948 54.8112 59.9948 54.4637 59.9948C54.0605 59.9948 53.1334 60.0106 52.4057 60.6709C51.5825 61.4048 51.5825 62.5767 51.5825 63.1697C51.5825 64.2949 51.8363 65.4848 53.2597 65.9004C53.6742 66.0267 53.8943 66.0492 54.3115 66.0492C54.7017 66.0492 55.6777 66.0492 56.4026 65.2434C57.0467 64.5303 57.0467 63.4611 57.0467 62.9299Z" fill="#046148"/>
<path d="M28.6859 51.9103H43.8112L30.3964 47.7957L28.6859 48.7146L22.8808 50.2126L28.6859 51.9103Z" fill="#EF9826"/>
<path d="M16.0401 46.04V51.9102H28.6879V48.7145L16.0401 46.04Z" fill="#EB712D"/>
<path d="M43.8176 51.9103L28.6861 46.0401L28.6879 48.7145L43.8176 51.9103Z" fill="#FEC02B"/>
<path d="M95.96 62.9451V51.9066H75.5878L71.3535 54.9592L75.5878 58.6376L95.96 62.9451Z" fill="#EF9826"/>
<path d="M75.5878 58.6376L70.0499 53.8632L43.8193 51.9145L75.5877 62.9519L75.5878 58.6376Z" fill="#FEC02B"/>
<path d="M43.8126 51.9065V51.9117L75.5877 58.636V51.9078H43.8126V51.9065Z" fill="#EB712D"/>
<path d="M44.1049 72.3441C44.1179 72.5766 44.1728 72.7654 44.2695 72.9105C44.4537 73.1821 44.7783 73.3179 45.2433 73.3179C45.4516 73.3179 45.6414 73.2881 45.8125 73.2286C46.1436 73.1133 46.3092 72.9068 46.3092 72.6092C46.3092 72.386 46.2394 72.2269 46.0999 72.1321C45.9585 72.039 45.7372 71.9581 45.4358 71.8893L44.8806 71.7638C44.5179 71.6819 44.2612 71.5917 44.1105 71.4931C43.8501 71.322 43.7199 71.0662 43.7199 70.7258C43.7199 70.3575 43.8473 70.0552 44.1021 69.819C44.357 69.5828 44.7178 69.4646 45.1847 69.4646C45.6144 69.4646 45.979 69.5688 46.2785 69.7771C46.5798 69.9836 46.7305 70.3147 46.7305 70.7704H46.2087C46.1808 70.551 46.1213 70.3826 46.0301 70.2654C45.8609 70.0515 45.5735 69.9446 45.168 69.9446C44.8406 69.9446 44.6053 70.0134 44.4621 70.151C44.3188 70.2887 44.2472 70.4486 44.2472 70.6309C44.2472 70.8318 44.3309 70.9788 44.4983 71.0718C44.6081 71.1313 44.8564 71.2057 45.2433 71.295L45.8181 71.4261C46.0952 71.4894 46.3092 71.5759 46.4598 71.6856C46.7202 71.8772 46.8504 72.1553 46.8504 72.5199C46.8504 72.9738 46.6849 73.2983 46.3538 73.4937C46.0246 73.689 45.6414 73.7866 45.2042 73.7866C44.6946 73.7866 44.2956 73.6564 44.0073 73.396C43.7189 73.1374 43.5776 72.7868 43.5831 72.3441H44.1049Z" fill="#046148"/>
<path d="M49.3532 70.6784H49.9085C49.8378 70.87 49.6806 71.3071 49.4369 71.9898C49.2547 72.5031 49.1021 72.9217 48.9794 73.2453C48.6892 74.008 48.4846 74.473 48.3655 74.6404C48.2465 74.8078 48.0419 74.8915 47.7517 74.8915C47.681 74.8915 47.6261 74.8888 47.5871 74.8832C47.5499 74.8776 47.5033 74.8674 47.4475 74.8525V74.3949C47.535 74.4191 47.5982 74.434 47.6373 74.4395C47.6763 74.4451 47.7108 74.4479 47.7405 74.4479C47.8335 74.4479 47.9014 74.4321 47.9442 74.4005C47.9888 74.3707 48.026 74.3335 48.0558 74.2889C48.0651 74.274 48.0986 74.1977 48.1562 74.0601C48.2139 73.9224 48.2558 73.8201 48.2818 73.7531L47.1769 70.6784H47.7461L48.5469 73.1114L49.3532 70.6784Z" fill="#046148"/>
<path d="M50.7288 72.8715C50.7288 73.0165 50.7818 73.1309 50.8878 73.2146C50.9939 73.2984 51.1194 73.3402 51.2645 73.3402C51.4412 73.3402 51.6124 73.2993 51.7779 73.2174C52.0569 73.0816 52.1964 72.8594 52.1964 72.5506V72.146C52.135 72.1851 52.056 72.2176 51.9593 72.2437C51.8625 72.2697 51.7677 72.2883 51.6747 72.2995L51.3705 72.3385C51.1882 72.3627 51.0515 72.4008 50.9604 72.4529C50.806 72.5404 50.7288 72.6799 50.7288 72.8715ZM51.9453 71.8558C52.0606 71.8409 52.1378 71.7926 52.1769 71.7107C52.1992 71.6661 52.2104 71.6019 52.2104 71.5182C52.2104 71.3471 52.149 71.2234 52.0262 71.1471C51.9053 71.069 51.7314 71.0299 51.5045 71.0299C51.2422 71.0299 51.0562 71.1006 50.9464 71.242C50.885 71.3201 50.8451 71.4364 50.8265 71.5908H50.3577C50.367 71.2225 50.486 70.9667 50.7148 70.8235C50.9455 70.6784 51.2124 70.6058 51.5156 70.6058C51.8672 70.6058 52.1527 70.6728 52.3722 70.8067C52.5898 70.9406 52.6987 71.149 52.6987 71.4317V73.1533C52.6987 73.2053 52.7089 73.2472 52.7294 73.2788C52.7517 73.3104 52.7972 73.3263 52.8661 73.3263C52.8884 73.3263 52.9135 73.3253 52.9414 73.3235C52.9693 73.3197 52.9991 73.3151 53.0307 73.3095V73.6806C52.9526 73.7029 52.893 73.7169 52.8521 73.7225C52.8112 73.728 52.7554 73.7308 52.6847 73.7308C52.5117 73.7308 52.3862 73.6694 52.308 73.5467C52.2671 73.4816 52.2383 73.3895 52.2215 73.2704C52.1192 73.4044 51.9723 73.5206 51.7807 73.6192C51.5891 73.7178 51.378 73.7671 51.1473 73.7671C50.8702 73.7671 50.6432 73.6834 50.4665 73.516C50.2917 73.3467 50.2042 73.1356 50.2042 72.8826C50.2042 72.6055 50.2907 72.3906 50.4637 72.2381C50.6367 72.0856 50.8637 71.9916 51.1445 71.9563L51.9453 71.8558Z" fill="#046148"/>
<path d="M53.5385 70.6784H54.0156V71.1946C54.0547 71.0941 54.1505 70.9723 54.303 70.829C54.4555 70.684 54.6313 70.6114 54.8304 70.6114C54.8397 70.6114 54.8555 70.6123 54.8778 70.6142C54.9001 70.6161 54.9382 70.6198 54.9922 70.6254V71.1555C54.9624 71.1499 54.9345 71.1462 54.9085 71.1443C54.8843 71.1425 54.8573 71.1415 54.8276 71.1415C54.5746 71.1415 54.3802 71.2234 54.2444 71.3871C54.1086 71.5489 54.0407 71.7359 54.0407 71.9479V73.6667H53.5385V70.6784Z" fill="#046148"/>
<path d="M55.4275 70.6923H55.9381V73.6667H55.4275V70.6923ZM55.4275 69.5679H55.9381V70.1371H55.4275V69.5679Z" fill="#046148"/>
<path d="M57.0848 72.8715C57.0848 73.0165 57.1378 73.1309 57.2439 73.2146C57.3499 73.2984 57.4754 73.3402 57.6205 73.3402C57.7972 73.3402 57.9684 73.2993 58.1339 73.2174C58.4129 73.0816 58.5525 72.8594 58.5525 72.5506V72.146C58.4911 72.1851 58.412 72.2176 58.3153 72.2437C58.2186 72.2697 58.1237 72.2883 58.0307 72.2995L57.7266 72.3385C57.5443 72.3627 57.4076 72.4008 57.3164 72.4529C57.162 72.5404 57.0848 72.6799 57.0848 72.8715ZM58.3013 71.8558C58.4167 71.8409 58.4939 71.7926 58.5329 71.7107C58.5552 71.6661 58.5664 71.6019 58.5664 71.5182C58.5664 71.3471 58.505 71.2234 58.3823 71.1471C58.2613 71.069 58.0874 71.0299 57.8605 71.0299C57.5982 71.0299 57.4122 71.1006 57.3025 71.242C57.2411 71.3201 57.2011 71.4364 57.1825 71.5908H56.7137C56.723 71.2225 56.8421 70.9667 57.0709 70.8235C57.3015 70.6784 57.5685 70.6058 57.8717 70.6058C58.2232 70.6058 58.5087 70.6728 58.7282 70.8067C58.9459 70.9406 59.0547 71.149 59.0547 71.4317V73.1533C59.0547 73.2053 59.0649 73.2472 59.0854 73.2788C59.1077 73.3104 59.1533 73.3263 59.2221 73.3263C59.2444 73.3263 59.2695 73.3253 59.2974 73.3235C59.3253 73.3197 59.3551 73.3151 59.3867 73.3095V73.6806C59.3086 73.7029 59.2491 73.7169 59.2081 73.7225C59.1672 73.728 59.1114 73.7308 59.0407 73.7308C58.8677 73.7308 58.7422 73.6694 58.6641 73.5467C58.6231 73.4816 58.5943 73.3895 58.5776 73.2704C58.4753 73.4044 58.3283 73.5206 58.1367 73.6192C57.9451 73.7178 57.734 73.7671 57.5033 73.7671C57.2262 73.7671 56.9993 73.6834 56.8225 73.516C56.6477 73.3467 56.5603 73.1356 56.5603 72.8826C56.5603 72.6055 56.6468 72.3906 56.8198 72.2381C56.9927 72.0856 57.2197 71.9916 57.5006 71.9563L58.3013 71.8558Z" fill="#046148"/>
<path d="M59.8806 69.5539H60.3828V71.0829C60.5019 70.9323 60.6088 70.8263 60.7037 70.7649C60.8655 70.6588 61.0673 70.6058 61.3092 70.6058C61.7426 70.6058 62.0365 70.7574 62.1908 71.0606C62.2746 71.2262 62.3164 71.4559 62.3164 71.7498V73.6667H61.8002V71.7833C61.8002 71.5638 61.7723 71.4029 61.7165 71.3006C61.6254 71.1369 61.4542 71.055 61.2031 71.055C60.9948 71.055 60.806 71.1267 60.6367 71.2699C60.4674 71.4131 60.3828 71.6838 60.3828 72.0818V73.6667H59.8806V69.5539Z" fill="#046148"/>
</g>
<rect x="1" y="1" width="110" height="110" rx="9" stroke="#CCCCCC" stroke-width="2"/>
<defs>
<clipPath id="clip0_528_34">
<rect x="2" y="2" width="108" height="108" rx="8" fill="white"/>
</clipPath>
</defs>
</svg>
