<svg width="112" height="112" viewBox="0 0 112 112" fill="none" xmlns="http://www.w3.org/2000/svg">
<g clip-path="url(#clip0_6_7370)">
<rect x="2" y="2" width="108" height="108" rx="8" fill="white"/>
<path d="M17.915 58.8532H18.7797C19.2733 58.8532 19.672 58.8925 20.1117 59.4001C20.4228 59.751 20.7647 60.5265 20.7647 61.781C20.7647 62.2313 20.768 62.6772 20.6827 63.1354C20.5457 63.858 20.2122 65.0165 18.3047 65.0165C17.7943 65.0165 17.915 65.0033 17.915 65.0033V58.854V58.8532ZM18.896 66.0856C21.4633 66.0856 22.6127 64.9401 22.6127 61.8113C22.6127 60.9842 22.3696 59.5978 21.5992 58.7521C20.8023 57.884 19.7719 57.7756 18.9016 57.7756H16.04V66.0856H18.896Z" fill="#046148"/>
<path d="M26.9986 63.9332C26.9986 64.2084 26.9907 64.5778 26.6988 64.8423C26.4539 65.0579 26.1092 65.0742 25.9778 65.0742C25.6521 65.0742 25.359 64.9558 25.2354 64.5531C25.2046 64.4262 25.1922 64.2983 25.1922 64.1758C25.1922 63.5688 25.5948 63.3133 26.0423 63.2044C26.2769 63.15 26.4348 63.1397 26.9986 63.0928V63.9334L26.9986 63.9332ZM26.9986 62.3435L26.0631 62.4356C25.0552 62.5512 24.6694 62.6433 24.2382 62.9298C23.5419 63.4031 23.5329 64.0955 23.5329 64.3229C23.5329 64.8906 23.7052 65.3179 23.94 65.5639C24.2494 65.9244 24.7396 66.0563 25.213 66.0563C26.3737 66.0563 26.9273 65.5291 26.9273 65.5291L26.9353 65.9042H28.5002V61.9729C28.5002 61.5304 28.5108 60.9082 28.0033 60.468C27.7377 60.2406 27.5052 60.1356 27.1458 60.0845C26.7887 60.0204 26.6646 59.9945 26.3164 59.9945C25.2608 59.9945 24.4645 60.1803 24.0108 60.9879C23.8161 61.3377 23.8261 61.6886 23.8261 61.9571H25.2608C25.274 61.723 25.2845 61.3989 25.4674 61.1737C25.56 61.0457 25.7768 60.8632 26.1783 60.8632C26.3092 60.8632 26.6893 60.8632 26.883 61.1799C26.991 61.367 26.9999 61.61 26.9999 61.8857V62.3434L26.9986 62.3435Z" fill="#046148"/>
<path d="M39.4575 63.9332C39.4575 64.2084 39.4496 64.5778 39.1554 64.8423C38.9169 65.0579 38.5708 65.0742 38.431 65.0742C38.1076 65.0742 37.819 64.9558 37.6938 64.5531C37.6624 64.4262 37.6534 64.2983 37.6534 64.1758C37.6534 63.5688 38.0537 63.3133 38.5035 63.2044C38.7381 63.15 38.8943 63.1397 39.4576 63.0928V63.9334L39.4575 63.9332ZM39.4575 62.3435L38.5259 62.4356C37.5118 62.5512 37.1317 62.6433 36.6976 62.9298C36.0053 63.4031 35.9946 64.0955 35.9946 64.3229C35.9946 64.8906 36.1618 65.3179 36.3944 65.5639C36.7083 65.9244 37.2013 66.0563 37.6724 66.0563C38.8359 66.0563 39.3884 65.5291 39.3884 65.5291L39.3964 65.9042H40.9557V61.9729C40.9557 61.5304 40.9689 60.9082 40.4644 60.468C40.1988 60.2406 39.9618 60.1356 39.6069 60.0845C39.2481 60.0204 39.1257 59.9945 38.7753 59.9945C37.7202 59.9945 36.9256 60.1803 36.4691 60.9879C36.2771 61.3377 36.2895 61.6886 36.2895 61.9571H37.7202C37.7334 61.723 37.7439 61.3989 37.9273 61.1737C38.0189 61.0457 38.2356 60.8632 38.6377 60.8632C38.7686 60.8632 39.1481 60.8632 39.3469 61.1799C39.4495 61.367 39.4585 61.61 39.4585 61.8857V62.3434L39.4575 62.3435Z" fill="#046148"/>
<path d="M63.0339 65.904H61.401V62.3855C61.401 62.1604 61.401 61.9728 61.3825 61.7813C61.3667 61.5971 61.3139 60.9997 60.602 60.9997C60.4134 60.9997 60.2533 61.0464 60.1511 61.0896C59.6699 61.3102 59.6575 61.7011 59.6457 62.0117V65.9041H58.0095V60.1463H59.6457V60.801C60.0568 60.4332 60.4285 60.0306 61.3466 60.0306C62.1176 60.0306 62.4994 60.3293 62.6572 60.5141C63.0205 60.9223 63.0205 61.4518 63.0345 61.8645V65.9041L63.0339 65.904Z" fill="#046148"/>
<path d="M34.7931 65.904H33.1613V62.3855C33.1613 62.1604 33.1613 61.9728 33.1344 61.7813C33.1238 61.5971 33.0682 60.9997 32.3522 60.9997C32.1696 60.9997 32.0097 61.0464 31.9075 61.0896C31.4251 61.3102 31.4111 61.7011 31.3976 62.0117V65.9041H29.7625V60.1463H31.3976V60.801C31.8165 60.4332 32.1837 60.0306 33.1007 60.0306C33.8762 60.0306 34.2513 60.3293 34.4136 60.5141C34.7802 60.9223 34.7802 61.4518 34.7932 61.8645V65.9041L34.7931 65.904Z" fill="#046148"/>
<path d="M42.1555 60.1434H43.7901V60.8133C44.104 60.5331 44.6576 60.0255 45.6392 60.0255C46.7622 60.0255 47.0744 60.696 47.1508 60.9172C47.8196 60.2703 48.2593 60.0255 48.9 60.0255C49.2138 60.0255 49.4289 60.0767 49.6367 60.1524C50.5172 60.4905 50.5362 61.2732 50.5525 61.7809V65.9002H48.8893V62.1481C48.8814 61.7404 48.8682 61.5097 48.7624 61.3288C48.7413 61.2821 48.5787 60.9953 48.1655 60.9953C48.0256 60.9953 47.7589 61.0291 47.6337 61.0979C47.1761 61.3164 47.1587 61.6965 47.1508 62.0048V65.9001H45.5302V62.1721C45.5302 61.7291 45.5355 60.9952 44.7975 60.9952C44.6307 60.9952 44.3404 61.0424 44.1972 61.1216C43.7901 61.3725 43.7788 61.7404 43.7901 62.2525V65.9002H42.1555V60.1434V60.1434Z" fill="#046148"/>
<path d="M55.3799 62.9006C55.3799 63.2274 55.3667 63.5413 55.3326 63.858C55.2983 64.1759 55.2427 64.8149 54.7532 65.0833C54.6122 65.1506 54.464 65.1859 54.3118 65.1859C53.3847 65.1859 53.301 64.2134 53.2819 63.8579C53.2608 63.5929 53.2442 63.3335 53.2442 63.0757C53.2442 62.8454 53.26 62.5254 53.2935 62.1481C53.3268 61.8432 53.3946 61.2598 53.8663 60.984C54.0275 60.9025 54.1825 60.869 54.3627 60.869C55.2426 60.869 55.3224 61.7921 55.3431 62.1482C55.3669 62.4004 55.3796 62.6541 55.3796 62.9006L55.3799 62.9006ZM57.0467 62.9299C57.0467 62.4189 57.0467 61.4626 56.4785 60.8135C55.7928 59.9948 54.8113 59.9948 54.4637 59.9948C54.0605 59.9948 53.1334 60.0106 52.4057 60.6708C51.5825 61.4048 51.5825 62.5767 51.5825 63.1696C51.5825 64.2949 51.8364 65.4848 53.2598 65.9003C53.6742 66.0267 53.8943 66.0492 54.3115 66.0492C54.7018 66.0492 55.6777 66.0492 56.4027 65.2434C57.0467 64.5303 57.0467 63.4611 57.0467 62.9299" fill="#046148"/>
<path d="M28.686 51.9103H43.8112L30.3964 47.7958L28.686 48.7146L22.8808 50.2126L28.686 51.9103Z" fill="#EF9826"/>
<path d="M16.0401 46.04V51.9102H28.6879V48.7146L16.0401 46.04Z" fill="#EB712D"/>
<path d="M43.8176 51.9103L28.6861 46.0401L28.6884 48.7146L43.8177 51.9103H43.8176Z" fill="#FEC02B"/>
<path d="M95.96 62.9451V51.9066H75.5879L71.3535 54.9592L75.5879 58.6376L95.96 62.9451Z" fill="#EF9826"/>
<path d="M75.5877 58.6376L70.0499 53.8632L43.8193 51.9145L75.5877 62.9518V58.6376Z" fill="#FEC02B"/>
<path d="M43.8126 51.9065V51.9117L75.5877 58.636V51.9078H43.8126V51.9065Z" fill="#EB712D"/>
</g>
<rect x="1" y="1" width="110" height="110" rx="9" stroke="#CCCCCC" stroke-width="2"/>
<defs>
<clipPath id="clip0_6_7370">
<rect x="2" y="2" width="108" height="108" rx="8" fill="white"/>
</clipPath>
</defs>
</svg>
