<svg width="112" height="112" viewBox="0 0 112 112" fill="none" xmlns="http://www.w3.org/2000/svg">
<g clip-path="url(#clip0_642_1033)">
<rect x="2" y="2" width="108" height="108" rx="8" fill="white"/>
<path fill-rule="evenodd" clip-rule="evenodd" d="M83.3109 61.3126V63.3465H89.9066V57.245H85.8511V55.2111H89.9066V49.1056H83.3109V51.1394H87.8728V53.1773H83.8052V59.2788H87.8728V61.3126H83.3109ZM71.5819 56.2321C71.5819 50.0577 76.5895 45.042 82.768 45.042C88.9464 45.042 93.954 50.0536 93.954 56.2321C93.954 62.4106 88.9464 67.4182 82.768 67.4182C76.5895 67.4182 71.5819 62.4065 71.5819 56.2321ZM69.5319 56.2321C69.5319 48.9192 75.4551 43.0001 82.7639 43.0001C90.0728 43.0001 96 48.9233 96 56.2321C96 63.5409 90.0768 69.4682 82.7639 69.4682C75.4511 69.4682 69.5319 63.545 69.5319 56.2321ZM82.2818 49.1015H75.6779V55.2071H79.7253V57.245H75.6779V63.3465H82.2818V61.3126H77.7077V59.2788H81.7713V53.1733H77.7077V51.1394H82.2818V49.1015Z" fill="#CB0202"/>
<path fill-rule="evenodd" clip-rule="evenodd" d="M38.2344 57.3625V57.3301H43.1448C43.5945 57.3301 44.2387 57.403 44.7572 57.7433C45.2394 58.0634 45.4865 58.5333 45.4865 59.1451C45.4865 59.6313 45.3528 60.0121 45.0976 60.2755C44.6154 60.7576 43.7849 60.7576 43.1772 60.7576H38.2223V60.7292L38.2385 57.3706L38.2344 57.3625ZM38.2344 51.7188H42.7275C43.5175 51.7188 44.8423 51.7188 44.8423 53.2908C44.8423 53.8661 44.5952 54.2753 44.105 54.5062C43.6634 54.7128 43.1124 54.7371 42.7396 54.7371H38.2344V51.7188ZM43.3271 63.391C45.0287 63.391 46.3171 62.9737 47.1476 62.1553C47.9984 61.3126 48.1807 60.2309 48.1807 59.4692C48.1807 57.8041 47.4879 56.6454 46.1185 56.0255L46.0578 56.0012L46.1145 55.9728C46.7303 55.6487 47.5487 54.9843 47.5487 53.0071C47.5487 51.9214 47.1395 50.945 46.3981 50.2522C45.5837 49.4945 44.3926 49.0934 42.9625 49.0934H35.5442V63.387H43.3311L43.3271 63.391Z" fill="black"/>
<path d="M18.8279 49.0894H16V63.387H18.8279V49.0894Z" fill="black"/>
<path fill-rule="evenodd" clip-rule="evenodd" d="M21.1211 56.1187C21.1211 57.5002 21.352 58.6427 21.8301 59.607C22.2312 60.4092 22.7903 61.0898 23.6046 61.738C24.8687 62.7509 26.6473 63.2654 28.8918 63.2654H32.7609V60.5672H29.1065C27.0727 60.5672 25.5979 60.0607 24.7269 59.056C24.107 58.347 23.7869 57.3868 23.7788 56.2037C23.7667 54.9397 24.1232 53.9309 24.8281 53.2138C25.7114 52.3184 27.1496 51.8606 29.1065 51.8606H32.7609V49.1826H29.0255C27.7695 49.1826 26.7161 49.3082 25.8005 49.5675C24.8889 49.8268 24.1394 50.2116 23.5114 50.7464C22.6201 51.5081 21.117 53.2138 21.117 56.1106L21.1211 56.1187Z" fill="black"/>
<path fill-rule="evenodd" clip-rule="evenodd" d="M49.8823 56.1187C49.8823 57.4962 50.1214 58.7157 50.5913 59.7326C51.0005 60.6158 51.5961 61.3734 52.3659 61.9892C53.553 62.9454 55.2343 63.387 57.653 63.387H61.7328V60.6887H57.8718C55.842 60.6887 54.3673 60.158 53.4881 59.1167C52.8683 58.3834 52.5482 57.403 52.5401 56.2078C52.5279 54.9073 52.8926 53.8701 53.6259 53.1287C54.5131 52.2252 55.9393 51.7674 57.8677 51.7674H61.7288V49.0934H57.7827C56.5267 49.0934 55.4733 49.219 54.5577 49.4783C53.6461 49.7376 52.8966 50.1225 52.2727 50.6533C51.5515 51.265 49.8783 53.0234 49.8783 56.1187H49.8823Z" fill="black"/>
</g>
<rect x="1" y="1" width="110" height="110" rx="9" stroke="#CCCCCC" stroke-width="2"/>
<defs>
<clipPath id="clip0_642_1033">
<rect x="2" y="2" width="108" height="108" rx="8" fill="white"/>
</clipPath>
</defs>
</svg>
