<svg width="112" height="112" viewBox="0 0 112 112" fill="none" xmlns="http://www.w3.org/2000/svg">
<g clip-path="url(#clip0_302_1294)">
<rect x="2" y="2" width="108" height="108" rx="8" fill="white"/>
<path fill-rule="evenodd" clip-rule="evenodd" d="M54.8957 30.9846H44.0902V40.9656H50.7106V44.292H44.0902V54.2712H54.8957V50.9466H47.4148V47.622H54.0623V37.6356H47.4148V34.3128H54.8957V30.9846ZM34.0408 42.6432C34.0408 30.6858 43.7248 21.0018 55.6859 21.0018C67.6469 21.0018 77.3327 30.6858 77.3327 42.6432C77.3327 54.6006 67.6415 64.2864 55.6859 64.2864C43.7302 64.2864 34.0408 54.5988 34.0408 42.6432ZM37.3924 42.6432C37.3924 32.547 45.5824 24.3498 55.6859 24.3498C65.7893 24.3498 73.9757 32.547 73.9757 42.6432C73.9757 52.7394 65.7839 60.9348 55.6859 60.9348C45.5878 60.9348 37.3924 52.743 37.3924 42.6432ZM56.5697 54.2766H67.3571V44.3028H60.7241V40.9782H67.3571V30.9882H56.5697V34.3146H64.0289V37.6482H57.3815V47.6256H64.0289V50.9502H56.5697V54.2766Z" fill="#B2292E"/>
<path d="M61.0859 90.1542C63.1487 90.1542 64.7021 89.6556 65.7083 88.6746C66.7415 87.663 66.9575 86.3634 66.9575 85.449C66.9575 83.4474 66.1187 82.056 64.4591 81.318L64.3871 81.2874L64.4573 81.2514C65.2061 80.8608 66.1961 80.067 66.1961 77.6946C66.1961 76.3932 65.7011 75.2196 64.7993 74.3916C63.8129 73.4808 62.3747 73.002 60.6395 73.002L51.6539 72.9948V90.1506L61.0859 90.156V90.1542ZM54.9173 76.1502H60.3605C61.3181 76.1502 62.9237 76.1502 62.9237 78.0366C62.9237 78.7278 62.6231 79.221 62.0291 79.4946C61.4981 79.743 60.8285 79.7718 60.3731 79.7718H54.9173V76.1502ZM54.9173 82.92V82.884H60.8645C61.4063 82.884 62.1875 82.9686 62.8157 83.3772C63.4007 83.7606 63.6977 84.324 63.6977 85.0548C63.6977 85.6398 63.5357 86.0952 63.2243 86.4084C62.6411 86.9916 61.6331 86.9898 60.8987 86.9898H54.8993V86.952L54.9191 82.92H54.9173Z" fill="#161519"/>
<path d="M31.4218 73.0002H28V90.1542H31.4218V73.0002Z" fill="#161519"/>
<path d="M34.201 81.4314C34.201 83.091 34.4818 84.4608 35.0632 85.6164C35.5438 86.5812 36.2242 87.3912 37.207 88.1742C38.737 89.3928 40.8916 90.0102 43.6078 90.0102H48.2914V86.7702H43.8688C41.41 86.7702 39.6226 86.16 38.5642 84.9594C37.8136 84.1026 37.4266 82.956 37.4176 81.5394C37.405 80.022 37.8334 78.8142 38.6866 77.9538C39.754 76.8756 41.4982 76.3302 43.8688 76.3302H48.2914V73.119H43.7716C42.2488 73.119 40.9726 73.272 39.8674 73.5798C38.7658 73.8912 37.8568 74.3538 37.0972 74.9946C36.0136 75.9054 34.1992 77.9538 34.1992 81.4314" fill="#161519"/>
<path d="M69.0239 81.4314C69.0239 83.0874 69.3137 84.549 69.8843 85.7694C70.3811 86.8278 71.1029 87.7386 72.0299 88.482C73.4645 89.625 75.5021 90.156 78.4325 90.156H83.3717V86.9178H78.6917C76.2365 86.9178 74.4509 86.2824 73.3853 85.0314C72.6365 84.1494 72.2531 82.974 72.2387 81.5394C72.2243 79.9788 72.6689 78.7332 73.5545 77.8422C74.6291 76.7586 76.3571 76.2078 78.6917 76.2078H83.3717V73.002H78.5963C77.0753 73.002 75.7973 73.1532 74.6939 73.4628C73.5887 73.7706 72.6797 74.2332 71.9219 74.8758C71.0507 75.6066 69.0221 77.7162 69.0221 81.4332" fill="#161519"/>
</g>
<rect x="1" y="1" width="110" height="110" rx="9" stroke="#CCCCCC" stroke-width="2"/>
<defs>
<clipPath id="clip0_302_1294">
<rect x="2" y="2" width="108" height="108" rx="8" fill="white"/>
</clipPath>
</defs>
</svg>
