<svg width="112" height="112" viewBox="0 0 112 112" fill="none" xmlns="http://www.w3.org/2000/svg">
<g clip-path="url(#clip0_6_7375)">
<rect x="1.99988" y="2" width="108" height="108" rx="8" fill="white"/>
<path fill-rule="evenodd" clip-rule="evenodd" d="M45.9456 60.0782C45.9456 61.5891 44.9879 62.4402 42.945 62.5043V64.8025C45.2647 64.8025 48.2013 63.5469 48.2013 60.0782V48.8158H45.9456V60.0782ZM59.2568 53.6663C59.2568 51.8786 58.2778 48.6014 54.6602 48.6014C51.2338 48.6014 50.0636 51.4744 50.0636 54.4536C50.0636 57.4328 51.2551 60.3058 55.1922 60.3058C56.2562 60.3058 57.618 60.0506 59.1716 58.9437L58.0223 57.1562C57.0435 57.7733 56.1072 58.0928 55.1922 58.0928C53.4468 58.0928 52.6383 56.901 52.4469 55.6667H57.1925C58.5973 55.6667 59.2568 55.1133 59.2568 53.6663ZM52.4256 53.4535C52.5745 52.0489 53.1704 50.8147 54.6602 50.8147C56.1499 50.8147 56.7456 52.0489 56.8945 53.4535H52.4256ZM65.3907 48.6014C62.5816 48.6014 61.1343 50.9212 61.1343 50.9212V60.1782H63.39V51.6658C63.39 51.6658 64.0927 50.8147 65.3907 50.8147C66.8164 50.8147 67.6037 51.9851 67.6037 53.0279V60.1782H69.8597V53.0279C69.8597 50.8785 68.3484 48.6014 65.3907 48.6014ZM72.3632 48.729H74.6189V60.1782H72.3632V48.729ZM91.6812 53.2407H91.7025C90.9365 53.0279 89.9362 52.645 89.9362 51.8575C89.9362 51.2829 90.5321 50.8147 91.6598 50.8147C92.7878 50.8147 94.0647 51.3254 94.5541 51.5595L95.2779 49.5379C94.5328 49.1548 93.0219 48.6014 91.6598 48.6014C89.702 48.6014 87.6591 49.6018 87.6591 51.8575C87.6591 53.9431 89.4893 54.9857 91.2983 55.4328C92.2771 55.6454 93.5113 56.0498 93.5113 56.8585C93.5113 57.7097 92.511 58.0928 91.5324 58.0928C90.5748 58.0928 89.2551 57.4758 88.2548 56.9435L87.3825 59.0504C88.3399 59.5398 89.7447 60.2633 91.5324 60.306C93.5965 60.306 95.767 59.327 95.767 56.8585C95.767 54.475 93.3834 53.6665 91.6812 53.2407ZM83.6528 55.8795C83.6528 56.9186 82.8706 58.0843 81.4534 58.0918C80.0368 58.0843 79.2544 56.9186 79.2544 55.8795V48.729H76.9987V55.8795C76.9987 58.0219 78.4999 60.2908 81.4398 60.3053L81.4674 60.306C84.407 60.2915 85.9087 58.0219 85.9087 55.8795V48.729H83.6528V55.8795ZM28.1311 47.0014C25.9634 47.0014 22.8842 47.9403 21.0656 50.2157C18.1879 51.4725 16.0868 54.2821 16.0868 57.3503C16.0868 62.1123 20.1419 64.9568 25.0297 64.9568C25.8341 64.9568 26.5992 64.7781 27.3149 64.5977C27.8421 64.6805 28.3883 64.7243 28.952 64.7243C33.5648 64.7243 37.6298 60.9838 37.6298 56.0996C37.6298 51.0554 33.6209 47.0014 28.1311 47.0014ZM24.8237 50.6502C27.1427 50.6502 28.9417 52.9324 28.9417 54.9704C28.9417 57.7252 27.2589 59.5731 24.9086 59.5731C22.7995 59.5731 20.9201 57.6182 20.9201 54.8407C20.9201 52.5503 22.6226 50.6502 24.8237 50.6502ZM24.5133 64.0994C21.3208 64.0994 17.9456 61.0113 17.9456 57.1623C17.9456 55.2846 18.5358 53.4066 20.0279 52.1442C19.76 52.6974 19.5822 53.362 19.5101 54.1554C19.4735 54.4435 19.4531 54.7424 19.4531 55.0509C19.4531 59.2083 21.7311 62.654 25.2941 64.0529C25.0362 64.0832 24.7756 64.0994 24.5133 64.0994ZM26.9063 63.6644C24.2306 63.1391 22.0366 61.1121 21.0888 58.7133C22.0272 59.6292 23.3623 60.2575 25.0642 60.2575C27.786 60.2575 30.3742 58.1733 30.3742 55.0793C30.3742 53.5607 29.8372 52.5664 29.8372 52.5664C30.9712 53.7181 31.6887 55.3355 31.6887 57.308C31.6887 60.0808 29.6138 62.6657 26.9063 63.6644ZM29.5528 63.6796C31.7337 62.3767 33.0895 60.1493 33.0895 57.7261C33.0895 52.329 27.8266 50.395 27.8266 50.395C26.8593 49.8253 25.6678 49.5213 24.3437 49.5213C24.243 49.5213 24.0708 49.5239 23.9711 49.5274C25.3131 48.5155 27.059 47.8927 28.8253 47.8927C32.9429 47.8927 36.0575 51.8005 36.0575 55.4596C36.0575 59.7137 33.0468 63.0134 29.5528 63.6796Z" fill="#00A4DE"/>
</g>
<rect x="1" y="1" width="110" height="110" rx="9" stroke="#CCCCCC" stroke-width="2"/>
<defs>
<clipPath id="clip0_6_7375">
<rect x="2" y="2" width="108" height="108" rx="8" fill="white"/>
</clipPath>
</defs>
</svg>
