<svg width="112" height="112" viewBox="0 0 112 112" fill="none" xmlns="http://www.w3.org/2000/svg">
<g clip-path="url(#clip0_528_43)">
<rect x="2" y="2" width="108" height="108" rx="8" fill="white"/>
<path d="M19.9156 49.4867C19.7697 49.3602 19.6092 49.2532 19.439 49.1608C18.9234 48.8884 18.4126 48.6063 17.897 48.329C17.5565 48.1442 17.2209 47.9399 16.9047 47.7161C16.7929 47.6383 16.6859 47.5508 16.5789 47.4681C16.4718 47.3854 16.4135 47.2832 16.394 47.1519C16.3794 47.0546 16.394 46.9768 16.4573 46.9087C16.6226 46.7385 16.8123 46.6071 17.0312 46.5147C17.1382 46.4709 17.2404 46.4758 17.3377 46.5342C17.3863 46.5633 17.4349 46.5925 17.4884 46.6266C17.683 46.753 17.8776 46.8795 18.077 47.006C18.2472 47.113 18.4224 47.22 18.6266 47.2686C18.6996 47.2881 18.7677 47.3319 18.8407 47.3659C19.4 47.6383 19.9448 47.935 20.475 48.2609C20.5236 48.2901 20.5723 48.3242 20.6258 48.3436C20.6501 48.3533 20.6793 48.3436 20.7133 48.3436C20.7328 48.1539 20.7571 47.9739 20.7766 47.7891C20.869 46.9379 21.0295 46.0964 21.263 45.2744C21.3408 44.9922 21.443 44.7198 21.5354 44.4426C21.5548 44.3891 21.5743 44.3307 21.6035 44.2821C21.6229 44.248 21.6521 44.2188 21.6862 44.2042C21.8759 44.1216 22.0607 44.0486 22.265 44.0048C22.3671 43.9854 22.4596 44.0145 22.5471 44.0535C22.5714 44.0632 22.5958 44.0875 22.6104 44.1118C22.659 44.1945 22.7125 44.2772 22.7465 44.3696C22.766 44.4231 22.7709 44.4815 22.766 44.5399C22.766 44.6177 22.7417 44.6955 22.732 44.7685C22.6639 45.2014 22.5909 45.6294 22.5277 46.0623C22.4693 46.4661 22.4255 46.8698 22.3769 47.2784C22.3526 47.4729 22.3477 47.6675 22.338 47.8621C22.338 47.8864 22.3526 47.9204 22.372 47.9302C22.3915 47.9399 22.4304 47.9399 22.4547 47.9253C22.6882 47.7842 22.9168 47.6383 23.1503 47.4924C23.9042 47.0303 24.6581 46.5682 25.4121 46.111C25.5629 46.0186 25.7137 45.9359 25.8644 45.8483C26.0201 45.7656 26.1611 45.6635 26.2876 45.5419C26.487 45.357 26.7011 45.1868 26.9345 45.0457C27.2069 44.8755 27.4939 44.7393 27.8101 44.6615C27.9657 44.6226 28.1165 44.6177 28.2722 44.6226C28.3403 44.6226 28.3986 44.6761 28.4181 44.7442C28.4424 44.8269 28.457 44.9144 28.4424 45.002C28.4327 45.0603 28.4181 45.1187 28.4132 45.1771C28.3938 45.3279 28.3257 45.4495 28.2089 45.5516C27.9609 45.7705 27.7031 45.9748 27.4307 46.1645C26.8956 46.539 26.3363 46.8698 25.7672 47.1908C25.0813 47.5751 24.3955 47.9593 23.7096 48.3436C23.5929 48.4117 23.4762 48.4847 23.3692 48.5674C23.2719 48.6452 23.16 48.7084 23.053 48.7765C22.8438 48.903 22.6347 49.0246 22.4304 49.1511C22.3817 49.1802 22.3331 49.2143 22.2845 49.2483C22.2309 49.2872 22.2358 49.3505 22.2942 49.3943C22.3477 49.4332 22.4061 49.4721 22.4644 49.511C22.7611 49.7104 23.0627 49.9099 23.3594 50.1141C23.5686 50.2552 23.7777 50.4011 23.982 50.5471C24.1474 50.6687 24.3079 50.7951 24.4636 50.9216C24.6387 51.0626 24.8187 51.1891 25.0327 51.2718C25.3488 51.3934 25.6456 51.5685 25.9325 51.7533C26.2341 51.9479 26.5308 52.1522 26.8275 52.3516C27.0756 52.5219 27.3285 52.6873 27.5766 52.8624C27.635 52.9013 27.6982 52.9207 27.7663 52.9207C28.3111 52.9353 28.851 52.8916 29.3812 52.731C29.7752 52.6094 30.1449 52.4392 30.4659 52.1765C30.8891 51.8312 31.1177 51.3837 31.1469 50.8438C31.1663 50.4887 31.1371 50.4595 30.8453 50.2747C30.5778 50.0996 30.281 50.0752 29.9746 50.1287C29.6925 50.1774 29.4396 50.2941 29.2109 50.4692C28.8461 50.7416 28.5689 51.0918 28.3889 51.5101C28.3305 51.6463 28.2868 51.7825 28.2916 51.9333C28.2916 51.9722 28.2916 52.0111 28.2819 52.0501C28.2722 52.1133 28.2381 52.1571 28.1749 52.1765C27.9414 52.2446 27.7128 52.3225 27.4696 52.3565C27.2848 52.3808 27.1486 52.303 27.0416 52.1668C27.0124 52.1328 26.9978 52.0792 26.9929 52.0306C26.9783 51.9333 26.9783 51.836 26.9686 51.7388C26.9102 51.1162 26.92 50.4984 26.9637 49.8758C26.9735 49.7591 26.9783 49.6423 26.9832 49.5256C26.9929 49.3894 27.0075 49.2581 27.0513 49.1267C27.0756 49.0538 27.0853 48.9759 27.0951 48.8981C27.1194 48.6646 27.134 48.4312 27.1534 48.2025C27.1583 48.1345 27.1583 48.0664 27.1875 48.0031C27.2118 47.9496 27.241 47.8961 27.2994 47.8718C27.5377 47.755 27.7809 47.6578 28.0484 47.6529C28.1263 47.6529 28.1749 47.687 28.2041 47.7599C28.2673 47.9156 28.3014 48.0761 28.3062 48.2415C28.3159 48.4944 28.3062 48.7473 28.277 49.0003C28.2527 49.224 28.2333 49.4478 28.2138 49.6666C28.2138 49.6958 28.2138 49.725 28.2138 49.7542C28.2138 49.8223 28.2722 49.8612 28.3305 49.8369C28.3986 49.8028 28.4716 49.7737 28.5397 49.7347C28.7294 49.6375 28.924 49.545 29.1283 49.4818C29.7898 49.2629 30.461 49.2289 31.1371 49.4088C31.4533 49.4915 31.7354 49.6423 31.9786 49.8563C32.037 49.905 32.0954 49.9585 32.1635 50.0023C32.2802 50.085 32.3532 50.192 32.4018 50.3233C32.4942 50.5665 32.5137 50.8146 32.4796 51.0675C32.4164 51.5442 32.217 51.9576 31.8911 52.3079C31.5944 52.624 31.2441 52.8672 30.8599 53.0618C30.2519 53.3634 29.6098 53.5433 28.9386 53.6114C28.8899 53.6163 28.8413 53.626 28.7926 53.626C28.6662 53.626 28.5981 53.6795 28.5689 53.806C28.5543 53.8741 28.5008 53.9179 28.4376 53.9568C28.1068 54.1562 28.1895 54.1854 27.7712 54.0395C27.3772 53.8984 27.0026 53.7185 26.6281 53.5288C25.8158 53.1104 25.0375 52.6338 24.2641 52.1473C23.6756 51.7728 23.087 51.3934 22.4936 51.0189C22.4255 50.9751 22.3623 50.9362 22.2942 50.8973C22.2309 50.8584 22.1726 50.8827 22.1726 50.9508C22.1726 51.0091 22.1726 51.0675 22.1726 51.1259C22.1774 51.6998 22.1823 52.2738 22.2212 52.8478C22.2212 52.8867 22.2212 52.9256 22.2261 52.9645C22.2504 53.5093 22.2796 54.0541 22.3039 54.594C22.3136 54.7594 22.3331 54.9248 22.3428 55.0901C22.3526 55.2263 22.3526 55.3625 22.3477 55.4987C22.3477 55.5668 22.3282 55.63 22.3136 55.6981C22.3039 55.7419 22.2504 55.776 22.2018 55.776C22.1337 55.776 22.0656 55.776 21.9975 55.7662C21.8661 55.7419 21.7348 55.6981 21.6132 55.6398C21.5305 55.6009 21.4721 55.5376 21.4478 55.4501C21.3846 55.2361 21.3214 55.022 21.263 54.808C21.1852 54.5356 21.1219 54.2632 21.0052 54.0054C20.9566 53.9033 20.9468 53.7817 20.9274 53.6649C20.8349 53.0618 20.7717 52.4489 20.7425 51.836C20.7231 51.3788 20.7085 50.9216 20.689 50.4644C20.689 50.4157 20.6793 50.3671 20.6696 50.3233C20.6696 50.3087 20.6404 50.2941 20.6258 50.299C20.5966 50.299 20.5674 50.3087 20.5431 50.3184C20.3923 50.3865 20.2513 50.4741 20.1151 50.5714C20.0129 50.6443 19.9059 50.7124 19.7843 50.7562C19.6919 50.7903 19.6092 50.8438 19.5265 50.8924C19.0741 51.1599 18.6266 51.4323 18.1694 51.695C17.8095 51.9041 17.4447 52.1133 17.0555 52.2641C16.9096 52.3225 16.7637 52.3711 16.6178 52.4197C16.5643 52.4392 16.5059 52.4441 16.4475 52.4489C16.3892 52.4538 16.3308 52.4441 16.2773 52.41C16.2286 52.3808 16.18 52.3468 16.1314 52.3176C15.9806 52.2203 15.9611 52.1619 16.0827 52.016C16.1654 51.9187 16.2676 51.8458 16.3843 51.7874C16.4913 51.7388 16.5983 51.6901 16.7053 51.6415C16.8658 51.5734 17.0215 51.4907 17.1674 51.3934C18.0332 50.8146 18.899 50.2406 19.7648 49.6618C19.8135 49.6277 19.8621 49.5937 19.9059 49.5548C19.9205 49.545 19.9205 49.5207 19.9302 49.5013" fill="#FBB01D"/>
<path d="M60.9687 49.438C60.993 49.4867 61.0368 49.5061 61.0806 49.5207C61.2703 49.5985 61.4454 49.7056 61.601 49.8369C61.9464 50.1287 62.1507 50.513 62.248 50.9508C62.3307 51.3253 62.3112 51.7047 62.2091 52.0744C62.068 52.5657 61.781 52.9402 61.3433 53.198C61.0757 53.3585 60.7839 53.4704 60.4774 53.5336C60.137 53.6066 59.7867 53.6552 59.4365 53.6552C58.2497 53.6552 57.0677 53.6552 55.8809 53.6552C55.8128 53.6552 55.7495 53.6455 55.6766 53.6406C55.6668 53.5968 55.6522 53.5579 55.6522 53.519C55.6522 53.4412 55.6522 53.3634 55.6522 53.2855V46.0088C55.6522 45.9213 55.6522 45.8337 55.6522 45.7462C55.6522 45.6927 55.6912 45.6586 55.7447 45.6586C55.8225 45.6586 55.9003 45.6586 55.9781 45.6586C57.0093 45.6586 58.0357 45.6586 59.0668 45.6586C59.3392 45.6586 59.6116 45.6732 59.884 45.6927C60.1759 45.7121 60.458 45.7754 60.7401 45.8678C60.8909 45.9164 61.0319 45.9796 61.1633 46.0623C61.5135 46.2715 61.747 46.5682 61.8637 46.9573C61.995 47.4146 61.9999 47.8767 61.8588 48.3339C61.7324 48.7473 61.494 49.083 61.1341 49.3262C61.0806 49.3651 61.0076 49.3845 60.9784 49.4526M58.3956 50.1044C58.0259 50.1093 57.6563 50.1044 57.2914 50.1093C57.2331 50.1093 57.1747 50.1141 57.1163 50.1239C57.1017 50.1239 57.0823 50.1482 57.0774 50.1628C57.0677 50.1871 57.0628 50.2212 57.0628 50.2503C57.0628 50.9994 57.0628 51.7436 57.0628 52.4927C57.0628 52.5121 57.0628 52.5316 57.0628 52.5511C57.0628 52.5997 57.1017 52.6338 57.1601 52.6386C57.2379 52.6386 57.3158 52.6386 57.3936 52.6386C57.9286 52.6386 58.4637 52.6386 58.9939 52.6386C59.1204 52.6386 59.2468 52.6386 59.3733 52.6338C59.6068 52.6338 59.8354 52.5802 60.0591 52.517C60.2002 52.4781 60.3315 52.4197 60.4531 52.337C60.7206 52.1619 60.8812 51.9187 60.9298 51.6026C60.9639 51.3983 60.9541 51.194 60.9152 50.9945C60.8617 50.7368 60.7255 50.5325 60.4969 50.3865C60.3899 50.3184 60.2731 50.2698 60.1515 50.2309C59.9278 50.1676 59.6992 50.1239 59.4657 50.119C59.1058 50.1093 58.7458 50.1093 58.3907 50.0996M58.2886 46.6849C57.9578 46.6849 57.6271 46.6849 57.2963 46.6849C57.2379 46.6849 57.1796 46.6849 57.1212 46.6947C57.0969 46.6947 57.0677 46.719 57.0677 46.753C57.0677 46.8017 57.058 46.8503 57.058 46.899C57.058 47.541 57.058 48.1831 57.058 48.8203C57.058 48.8495 57.058 48.8787 57.058 48.9078C57.058 49.01 57.092 49.0392 57.2039 49.0392C57.272 49.0392 57.3401 49.0392 57.4082 49.0392C57.9432 49.0392 58.4783 49.0392 59.0085 49.0392C59.203 49.0392 59.3976 49.0246 59.5922 49.0051C59.8159 48.9808 60.0299 48.9127 60.2245 48.796C60.4726 48.65 60.6185 48.4312 60.6915 48.1539C60.7596 47.8912 60.745 47.6334 60.6866 47.3756C60.6428 47.2005 60.5455 47.0595 60.3947 46.9525C60.2148 46.826 60.0105 46.7628 59.8013 46.7336C59.5533 46.6947 59.3003 46.6704 59.0474 46.6752C58.7945 46.6752 58.5415 46.6752 58.2886 46.6752" fill="#796E63"/>
<path d="M50.2482 49.4283C50.2482 49.4283 50.2628 49.4769 50.2725 49.4818C50.3163 49.5013 50.365 49.5159 50.4087 49.5256C50.6471 49.5742 50.8757 49.6618 51.0848 49.7834C51.6102 50.0947 51.9166 50.5568 51.9896 51.1697C52.0236 51.4226 52.009 51.6755 51.9555 51.9236C51.8436 52.4295 51.5615 52.8235 51.1335 53.1202C50.8173 53.3391 50.4622 53.4704 50.0877 53.5482C49.7472 53.6212 49.397 53.6649 49.0468 53.6649C47.7335 53.6649 46.425 53.6649 45.1117 53.6649C45.0631 53.6649 45.0144 53.6601 44.9658 53.6552C44.9317 53.6552 44.9123 53.626 44.9074 53.6017C44.8977 53.5774 44.8977 53.5433 44.8977 53.5142C44.8977 53.4363 44.8977 53.3585 44.8977 53.2807V46.0234C44.8977 45.9359 44.8977 45.8483 44.8977 45.7608C44.8977 45.6975 44.9415 45.6586 45.0144 45.6586C45.0923 45.6586 45.1701 45.6586 45.2479 45.6586C46.4056 45.6586 47.5584 45.6586 48.716 45.6586C48.9787 45.6586 49.2413 45.6683 49.504 45.6878C49.8542 45.717 50.1947 45.7851 50.5255 45.9116C50.6811 45.9699 50.827 46.0477 50.9632 46.1402C51.2648 46.3445 51.474 46.6168 51.5858 46.9573C51.688 47.2686 51.7172 47.5848 51.6685 47.9058C51.581 48.4944 51.2648 48.9273 50.7541 49.2191C50.6617 49.2727 50.5595 49.3116 50.4622 49.3505C50.3893 49.3797 50.3163 49.404 50.2434 49.4283M47.714 52.7408C48.0448 52.7408 48.3755 52.7408 48.7063 52.7408C48.8133 52.7408 48.9203 52.7408 49.0273 52.7359C49.2608 52.7262 49.4894 52.6824 49.7132 52.624C49.8445 52.59 49.971 52.5365 50.0877 52.4635C50.3406 52.3127 50.5157 52.1036 50.5984 51.8166C50.6617 51.6074 50.6617 51.3934 50.6471 51.1794C50.613 50.7611 50.4136 50.4449 50.0537 50.2309C49.9126 50.1482 49.7569 50.085 49.5964 50.046C49.3338 49.9779 49.0662 49.9342 48.789 49.9342C47.9718 49.9342 47.1546 49.9342 46.3423 49.9342C46.3132 49.9342 46.284 49.9342 46.2548 49.939C46.2159 49.939 46.177 49.9779 46.177 50.012C46.177 50.0606 46.1672 50.1093 46.1672 50.1579C46.1672 50.9459 46.1672 51.7339 46.1672 52.517C46.1672 52.5657 46.1672 52.6143 46.177 52.6629C46.177 52.6921 46.2256 52.7359 46.2596 52.7359C46.3277 52.7359 46.3958 52.7359 46.4639 52.7408C46.8823 52.7408 47.3006 52.7408 47.7189 52.7408M47.6994 49.0197C47.9913 49.0197 48.2831 49.0197 48.575 49.0197C48.7501 49.0197 48.9252 49.01 49.1003 49.0051C49.2559 49.0051 49.4067 48.9662 49.5575 48.9224C49.718 48.8787 49.8688 48.8106 50.005 48.7133C50.2385 48.5479 50.3795 48.3242 50.4282 48.042C50.4622 47.8572 50.4525 47.6724 50.4233 47.4924C50.3747 47.1957 50.219 46.9719 49.9564 46.8211C49.8299 46.7482 49.6937 46.6995 49.5527 46.6655C49.2559 46.5974 48.9592 46.5682 48.6577 46.5682C47.9183 46.5682 47.179 46.5682 46.4396 46.5682C46.391 46.5682 46.3423 46.5682 46.2937 46.5682C46.2742 46.5682 46.2548 46.5682 46.2353 46.5828C46.2207 46.5925 46.2013 46.6071 46.1964 46.6217C46.1867 46.6704 46.177 46.719 46.177 46.7628C46.177 47.4535 46.177 48.1442 46.177 48.8349C46.177 48.8738 46.177 48.9127 46.1867 48.9516C46.1964 48.9759 46.2207 49.0051 46.2451 49.01C46.2986 49.0197 46.3618 49.0246 46.4153 49.0246C46.8433 49.0246 47.2714 49.0246 47.6994 49.0246" fill="#796E63"/>
<path d="M43.9395 53.6601H43.7546C43.3266 53.6601 42.8985 53.6601 42.4705 53.6601C42.1933 53.6601 42.2419 53.6893 42.0327 53.4947C41.4782 52.9888 40.9286 52.483 40.3789 51.9771C39.4985 51.1697 38.6181 50.3622 37.7377 49.5548C37.7329 49.5499 37.7231 49.5402 37.7134 49.5353C37.6696 49.5061 37.6356 49.438 37.5675 49.4721C37.514 49.5013 37.5383 49.5596 37.5334 49.6034C37.5334 49.6812 37.5334 49.7591 37.5334 49.8369V53.2466C37.5334 53.3245 37.5334 53.4023 37.5334 53.4801C37.5334 53.6309 37.514 53.6552 37.3729 53.6552C37.0519 53.6552 36.7309 53.6552 36.4098 53.6552C36.3806 53.6552 36.3515 53.6552 36.3223 53.6455C36.298 53.6358 36.2736 53.6114 36.2639 53.592C36.2542 53.5677 36.2542 53.5336 36.2542 53.5044C36.2542 53.4266 36.2542 53.3488 36.2542 53.271V45.931C36.2542 45.6489 36.2396 45.6538 36.5168 45.6538C36.7698 45.6538 37.0227 45.6538 37.2756 45.6538C37.3243 45.6538 37.3729 45.6538 37.4216 45.6538C37.4945 45.6538 37.5334 45.6878 37.5334 45.7559C37.5334 45.8435 37.5334 45.931 37.5334 46.0186V49.1413C37.5675 49.1413 37.6064 49.1608 37.621 49.1462C37.7572 49.0392 37.8934 48.9273 38.0296 48.8154C39.2407 47.8086 40.447 46.8017 41.6582 45.7948C41.6825 45.7754 41.702 45.7559 41.7263 45.7364C41.7944 45.6732 41.8722 45.644 41.9646 45.644C42.4802 45.644 42.9958 45.644 43.5114 45.644C43.5309 45.644 43.5455 45.6586 43.5601 45.6683C43.5747 45.6781 43.5601 45.7121 43.5309 45.7413C43.5017 45.7656 43.4725 45.7899 43.4433 45.8143C43.1563 46.0429 42.8645 46.2715 42.5775 46.505C41.4977 47.3659 40.4179 48.222 39.338 49.083C39.2797 49.1316 39.2213 49.1851 39.1678 49.2386C39.1581 49.2483 39.1581 49.2775 39.1678 49.2921C39.197 49.331 39.231 49.3651 39.2651 49.3991C39.698 49.7882 40.1357 50.1774 40.5686 50.5665C41.629 51.5101 42.6845 52.4538 43.7449 53.3974C43.8081 53.4558 43.8762 53.5142 43.9346 53.5774C43.9492 53.592 43.9395 53.626 43.9443 53.6601" fill="#796F64"/>
<path d="M82.0449 51.622C82.0449 50.3865 82.0449 49.1559 82.0449 47.9204C82.0449 47.8329 82.0449 47.7453 82.0449 47.6578C82.0449 47.6091 82.0887 47.5702 82.1422 47.5702C82.1811 47.5702 82.22 47.5702 82.2589 47.5702C82.5313 47.5702 82.8037 47.5702 83.0761 47.5702C83.1247 47.5702 83.1734 47.5751 83.222 47.5799C83.2561 47.5799 83.295 47.6237 83.295 47.6578C83.2998 47.7842 83.3047 47.9107 83.3144 48.0323C83.3144 48.042 83.3485 48.0615 83.3582 48.0566C83.402 48.0372 83.4458 48.0128 83.4847 47.9837C83.616 47.8815 83.7522 47.794 83.903 47.7161C84.3456 47.4827 84.8126 47.3902 85.3136 47.4632C85.4887 47.4875 85.6589 47.5264 85.8243 47.5848C86.2329 47.7259 86.5588 47.9788 86.8117 48.3242C87.0306 48.616 87.1765 48.9468 87.2641 49.297C87.4586 50.0606 87.4878 50.834 87.3322 51.6074C87.2689 51.9139 87.1668 52.2057 87.0112 52.4781C86.6561 53.1056 86.1259 53.5044 85.4206 53.6504C84.7688 53.7865 84.1656 53.6601 83.616 53.2855C83.5382 53.232 83.4604 53.1737 83.3825 53.1153C83.3631 53.1007 83.3144 53.1153 83.3144 53.1396C83.3144 53.2077 83.3047 53.2758 83.3047 53.3439C83.3047 53.8498 83.3047 54.3556 83.3047 54.8567C83.3047 54.915 83.3047 54.9734 83.2998 55.0318C83.2998 55.0561 83.2755 55.0853 83.2512 55.0999C83.222 55.1242 83.1831 55.1388 83.149 55.1582C82.828 55.3139 82.5021 55.4744 82.1811 55.63C82.1714 55.63 82.1616 55.6398 82.1568 55.6398C82.0984 55.6641 82.0546 55.6398 82.0546 55.5863C82.0546 55.4987 82.0546 55.4112 82.0546 55.3236V51.622H82.0449ZM86.1648 50.6346C86.1842 50.3817 86.1405 50.1239 86.1016 49.8661C86.0675 49.6326 85.9945 49.4137 85.8875 49.2046C85.7611 48.9662 85.586 48.7716 85.3379 48.6598C85.0558 48.5284 84.7591 48.4993 84.4526 48.5625C84.0003 48.6549 83.6355 48.9078 83.329 49.2483C83.295 49.2872 83.2804 49.331 83.2804 49.3845C83.2804 49.4526 83.2804 49.5207 83.2804 49.5888C83.2804 50.2309 83.2804 50.8729 83.2804 51.515C83.2804 51.5734 83.2804 51.6317 83.2804 51.6901C83.2804 51.7825 83.3096 51.8604 83.3728 51.9285C83.6403 52.2057 83.9516 52.4197 84.3164 52.5365C84.6131 52.6338 84.9099 52.6386 85.2066 52.5559C85.4984 52.4732 85.7222 52.2933 85.8778 52.0306C85.9994 51.8263 86.0724 51.6074 86.1113 51.3739C86.1551 51.1356 86.1794 50.8924 86.1648 50.6346Z" fill="#796F64"/>
<path d="M73.951 53.6552C73.8635 53.6066 73.8002 53.5288 73.737 53.4558C73.2068 52.9013 72.6815 52.3419 72.1513 51.7874C71.8254 51.442 71.4946 51.0967 71.1687 50.7513C71.1007 50.6784 71.0326 50.6103 70.9645 50.547C70.9547 50.5373 70.9304 50.5373 70.9109 50.5373C70.8866 50.5373 70.8769 50.5519 70.872 50.5762C70.872 50.6638 70.8623 50.7513 70.8623 50.8389C70.8623 51.6658 70.8623 52.4927 70.8623 53.3196C70.8623 53.4071 70.8623 53.4947 70.8574 53.5823C70.8574 53.6309 70.8137 53.6698 70.7602 53.6698C70.4002 53.6698 70.0403 53.6698 69.6803 53.6698C69.6171 53.6698 69.583 53.6309 69.5782 53.5579C69.5782 53.4996 69.5782 53.4412 69.5782 53.3828C69.5782 50.907 69.5782 48.4263 69.5782 45.9505C69.5782 45.8824 69.5782 45.8143 69.583 45.7462C69.583 45.7121 69.622 45.6781 69.6609 45.6732C69.6803 45.6732 69.6998 45.6683 69.7192 45.6683C70.05 45.6683 70.3808 45.6683 70.7115 45.6683C70.731 45.6683 70.7504 45.6683 70.7699 45.6732C70.8185 45.6732 70.8526 45.717 70.8574 45.7705C70.8574 45.858 70.8574 45.9456 70.8574 46.0332V49.7347C70.8574 50.0801 70.8623 50.1239 70.9109 50.119C71.0423 50.0947 71.1152 49.9828 71.2028 49.9001C72.0054 49.1754 72.8031 48.4506 73.6008 47.7259C73.63 47.7015 73.6592 47.6724 73.6884 47.648C73.7419 47.5994 73.8002 47.5751 73.8732 47.5751C74.3596 47.5751 74.846 47.5751 75.3373 47.5751C75.3373 47.6091 75.347 47.648 75.3373 47.6578C75.2643 47.7356 75.1865 47.8086 75.1087 47.8815C74.2915 48.6306 73.4743 49.3748 72.6572 50.1239C72.5939 50.1822 72.5307 50.2455 72.4675 50.3087C72.4431 50.333 72.4431 50.3865 72.4675 50.4157C72.5015 50.4546 72.5307 50.4887 72.5647 50.5227C72.9782 50.9459 73.3916 51.3691 73.81 51.7923C74.3499 52.3419 74.8849 52.8867 75.4248 53.4363C75.4783 53.4898 75.527 53.5482 75.5805 53.6066C75.5951 53.626 75.5951 53.6406 75.5805 53.6601C75.5756 53.6649 75.5659 53.6747 75.561 53.6747C75.5416 53.6747 75.5221 53.6795 75.5027 53.6795C75.0163 53.6795 74.5299 53.6795 74.0434 53.6795C74.0143 53.6795 73.9851 53.6747 73.9608 53.6698" fill="#796E63"/>
<path d="M75.4784 50.6443C75.4832 50.2309 75.5173 49.8807 75.6097 49.5402C75.6681 49.3213 75.7459 49.1121 75.848 48.9176C76.2031 48.2366 76.743 47.7794 77.4824 47.5653C78.1147 47.3805 78.747 47.4 79.3696 47.6334C79.9728 47.8572 80.4349 48.2609 80.7559 48.8203C80.9748 49.2046 81.1013 49.618 81.1548 50.0606C81.2131 50.5276 81.1888 50.9897 81.0915 51.4518C81.0089 51.836 80.8629 52.1911 80.644 52.517C80.3084 53.018 79.8463 53.3634 79.2772 53.5531C78.7324 53.733 78.1731 53.7622 77.6137 53.626C76.8889 53.4509 76.3344 53.0326 75.9502 52.4003C75.6972 51.9868 75.561 51.5345 75.5075 51.0578C75.4881 50.9021 75.4881 50.7465 75.4832 50.6589M79.9193 50.6151C79.9193 50.3136 79.8804 50.046 79.8074 49.7834C79.749 49.5742 79.6566 49.3845 79.535 49.2094C79.3794 48.9905 79.1799 48.8252 78.9319 48.7181C78.7859 48.6549 78.64 48.616 78.4844 48.6063C78.2898 48.5917 78.0952 48.5917 77.9055 48.6403C77.5699 48.7279 77.3121 48.9224 77.1176 49.2046C76.9133 49.5013 76.8208 49.832 76.7819 50.1871C76.7576 50.4303 76.7625 50.6735 76.7771 50.9167C76.7917 51.1307 76.8403 51.3399 76.9084 51.5442C76.9716 51.729 77.0641 51.8993 77.1857 52.0549C77.3656 52.2835 77.5942 52.4392 77.8715 52.5267C78.0515 52.5851 78.2314 52.5948 78.4211 52.59C78.7324 52.5802 79.0097 52.4732 79.248 52.2689C79.4912 52.0598 79.6566 51.802 79.7685 51.5053C79.8755 51.2086 79.9241 50.9021 79.929 50.62" fill="#796E64"/>
<path d="M67.1024 53.5433C67.0926 53.4996 67.078 53.4655 67.078 53.4266C67.0732 53.3293 67.0683 53.232 67.0634 53.1348C67.0634 53.1104 67.0099 53.0861 66.9953 53.1007C66.9662 53.125 66.937 53.1494 66.9078 53.1737C66.6111 53.4461 66.2511 53.592 65.862 53.6455C65.5069 53.6941 65.147 53.6893 64.7919 53.6017C64.2082 53.4607 63.7802 53.1299 63.5078 52.59C63.3764 52.3273 63.2986 52.0501 63.25 51.7582C63.2013 51.481 63.1916 51.1988 63.1916 50.9167C63.1916 49.8855 63.1916 48.8592 63.1916 47.828C63.1916 47.7696 63.1916 47.7113 63.1916 47.6529C63.1916 47.6334 63.1916 47.614 63.2062 47.5994C63.2159 47.5848 63.2305 47.5653 63.25 47.5605C63.2792 47.5508 63.3083 47.5459 63.3375 47.5459C63.6683 47.5459 63.9991 47.5459 64.3298 47.5459C64.3493 47.5459 64.3687 47.5459 64.3882 47.5556C64.4125 47.5702 64.4417 47.5897 64.4465 47.6091C64.4563 47.6772 64.4611 47.7453 64.4611 47.8134C64.4611 48.4555 64.4611 49.0975 64.4611 49.7347C64.4611 50.1531 64.4611 50.5714 64.4611 50.9897C64.4611 51.2037 64.4757 51.4177 64.5292 51.6269C64.5584 51.729 64.5876 51.8312 64.6265 51.9285C64.7724 52.2787 65.0448 52.483 65.4096 52.5511C65.6188 52.59 65.8328 52.5948 66.0468 52.5608C66.4262 52.4927 66.7084 52.2981 66.8883 51.9528C66.971 51.7971 67.0197 51.6317 67.044 51.4566C67.0683 51.2913 67.078 51.1307 67.078 50.9605C67.078 49.9488 67.078 48.9419 67.078 47.9302C67.078 47.8426 67.078 47.755 67.078 47.6675C67.078 47.5799 67.1121 47.5459 67.2045 47.5459C67.545 47.5459 67.8855 47.5459 68.226 47.5459C68.2989 47.5459 68.333 47.5799 68.3378 47.6529C68.3378 47.7307 68.3378 47.8086 68.3378 47.8864C68.3378 49.6618 68.3378 51.442 68.3378 53.2174C68.3378 53.5871 68.3719 53.5433 68.0119 53.5433C67.7687 53.5433 67.5255 53.5433 67.2823 53.5433C67.224 53.5433 67.1656 53.5385 67.1024 53.5336" fill="#796E63"/>
<path d="M92.1185 48.0955C92.1185 48.0955 92.1671 48.115 92.1768 48.1101C92.2109 48.0907 92.2401 48.0664 92.2693 48.042C92.6341 47.721 93.067 47.5653 93.5485 47.541C93.889 47.5216 94.2246 47.541 94.5554 47.6529C95.0515 47.8134 95.4212 48.1247 95.6595 48.5868C95.8298 48.9078 95.9173 49.2581 95.9563 49.618C95.9806 49.8418 95.9903 50.0655 95.9903 50.2893C95.9903 51.3204 95.9903 52.3516 95.9903 53.378C95.9903 53.4558 95.9806 53.5336 95.9757 53.6114C95.9757 53.626 95.9562 53.6406 95.9368 53.6504C95.9222 53.6601 95.8979 53.6649 95.8784 53.6649C95.5282 53.6649 95.178 53.6649 94.8278 53.6649C94.7743 53.6649 94.7354 53.626 94.7354 53.5774C94.7354 53.4898 94.7305 53.4023 94.7305 53.3147C94.7305 52.3516 94.7305 51.3885 94.7305 50.4303C94.7305 50.1968 94.7159 49.9634 94.6819 49.7347C94.6624 49.5888 94.6235 49.4478 94.5651 49.3164C94.4046 48.9322 94.1128 48.7181 93.7042 48.6598C93.5291 48.6355 93.354 48.6306 93.1788 48.6598C92.7605 48.7133 92.459 48.9273 92.2741 49.3067C92.172 49.5207 92.1282 49.7493 92.1087 49.9828C92.099 50.0996 92.1039 50.2163 92.1039 50.333C92.1039 51.335 92.1039 52.337 92.1039 53.3391C92.1039 53.4266 92.1039 53.5142 92.0941 53.6017C92.0941 53.6358 92.0552 53.6698 92.0163 53.6747C92.0066 53.6747 91.9969 53.6747 91.9871 53.6747C91.6369 53.6747 91.2867 53.6747 90.9365 53.6747C90.8878 53.6747 90.8441 53.6358 90.8392 53.5823C90.8392 53.5142 90.8343 53.4461 90.8343 53.378C90.8343 51.5685 90.8343 49.7639 90.8343 47.9545C90.8343 47.8864 90.8343 47.8183 90.8441 47.7502C90.8441 47.7161 90.883 47.6821 90.9219 47.6772C90.9316 47.6772 90.9414 47.6772 90.9511 47.6772C91.3013 47.6772 91.6515 47.6772 92.0017 47.6772C92.0552 47.6772 92.099 47.7161 92.099 47.7648C92.099 47.8815 92.1039 47.9983 92.1087 48.1101" fill="#796F64"/>
<path d="M43.9541 60.9854C43.993 60.9757 44.0173 60.966 44.0465 60.966C44.2605 60.966 44.4745 60.966 44.6885 60.966C44.7615 60.966 44.7858 61 44.7761 61.0779C44.7664 61.1362 44.7615 61.1946 44.7518 61.253C44.6059 62.0847 44.4599 62.9165 44.314 63.7482C44.2313 64.2347 44.1438 64.7259 44.0611 65.2123C44.027 65.4118 43.9784 65.6112 43.9006 65.8009C43.7254 66.2289 43.4433 66.5646 43.0542 66.8126C42.8402 66.9488 42.6116 67.0558 42.3684 67.1337C41.8576 67.299 41.3274 67.3526 40.7875 67.3623C40.7778 67.3623 40.7681 67.3623 40.7583 67.3623C40.7194 67.3623 40.6805 67.3234 40.6805 67.2893C40.6854 67.1434 40.6902 66.9975 40.7048 66.8516C40.7097 66.7786 40.7486 66.7543 40.8216 66.7494C41.1134 66.7299 41.4004 66.6862 41.6874 66.6229C41.916 66.5694 42.1349 66.5013 42.344 66.3943C42.4656 66.3311 42.5824 66.263 42.6845 66.1754C42.918 65.9809 43.0737 65.7425 43.1418 65.4507C43.1661 65.3485 43.1758 65.2415 43.1904 65.1345C43.1904 65.1248 43.1661 65.0956 43.1515 65.0956C43.0834 65.1005 43.0153 65.1102 42.9521 65.1248C42.7526 65.1783 42.5532 65.2123 42.3538 65.2464C42.0717 65.2902 41.7944 65.2853 41.5123 65.2269C41.3858 65.2026 41.2691 65.1588 41.1572 65.1005C40.9334 64.9789 40.7875 64.7892 40.7243 64.5411C40.6757 64.3611 40.6659 64.1763 40.6951 63.9915C40.7292 63.792 40.7583 63.5877 40.7924 63.3883C40.9237 62.6441 41.0551 61.895 41.1864 61.1508C41.1912 61.1119 41.1961 61.073 41.2107 61.0389C41.2204 61.0146 41.2496 61 41.2691 60.9806C41.2739 60.9757 41.2885 60.9757 41.2983 60.9757C41.5317 60.9757 41.7652 60.9757 41.9987 60.9757C42.023 60.9757 42.0522 61.0146 42.0522 61.0341C42.0522 61.0633 42.0522 61.0924 42.0522 61.1216C42.0084 61.3697 41.9646 61.6178 41.9209 61.8658C41.8041 62.5274 41.6874 63.184 41.5706 63.8455C41.5512 63.9525 41.5415 64.0547 41.5512 64.1666C41.5706 64.4 41.6923 64.5411 41.9209 64.5897C42.0327 64.6141 42.1495 64.6287 42.2662 64.6189C42.5872 64.5946 42.9034 64.5557 43.2147 64.4779C43.2877 64.4584 43.3315 64.4195 43.346 64.3417C43.4044 63.9963 43.4677 63.651 43.526 63.3105C43.6476 62.6149 43.7692 61.9145 43.8957 61.214C43.9103 61.1411 43.9297 61.0633 43.9492 60.9903" fill="#59A544"/>
<path d="M60.886 61.0633C60.9687 61.0389 61.0514 61.0146 61.1341 60.9952C61.3043 60.9514 61.4697 60.9027 61.64 60.8687C61.9561 60.8055 62.2772 60.8103 62.5933 60.893C62.642 60.9076 62.6857 60.9222 62.7295 60.9368C63.0797 61.073 63.2694 61.3356 63.3083 61.7053C63.3278 61.8999 63.3181 62.0944 63.284 62.2842C63.1284 63.1646 62.9776 64.045 62.8219 64.9254C62.8073 65.0129 62.783 65.0956 62.7684 65.1734C62.7441 65.188 62.7295 65.2026 62.7101 65.2026C62.4766 65.2026 62.2431 65.2026 62.0096 65.2026C61.961 65.2026 61.9269 65.1588 61.9367 65.1053C61.9367 65.0762 61.9464 65.047 61.9513 65.0178C61.9999 64.7211 62.0534 64.4244 62.1021 64.1276C62.2042 63.5342 62.3112 62.9408 62.4134 62.3474C62.4377 62.1917 62.4571 62.0409 62.4425 61.8853C62.4231 61.7005 62.3307 61.5789 62.1556 61.5205C62.0729 61.4913 61.9853 61.4816 61.8978 61.4767C61.7032 61.4718 61.5086 61.4816 61.3189 61.5253C61.1487 61.5643 60.9784 61.608 60.8082 61.647C60.7401 61.6615 60.7109 61.7102 60.7012 61.7686C60.6525 62.0264 60.6088 62.2842 60.565 62.5419C60.4239 63.3543 60.2829 64.1666 60.1369 64.9837C60.1272 65.0518 60.1029 65.1151 60.0834 65.1832C60.0397 65.188 60.0056 65.2026 59.9667 65.2026C59.8013 65.2026 59.6359 65.2026 59.4706 65.2026C59.2468 65.2026 59.2468 65.2026 59.2857 64.9691C59.4073 64.2687 59.5289 63.5731 59.6554 62.8727C59.7624 62.2696 59.8646 61.6664 59.9716 61.0633C60.0737 60.4698 60.1759 59.8764 60.2829 59.283C60.2877 59.2538 60.2926 59.2246 60.3023 59.2003C60.3169 59.1614 60.3412 59.1322 60.385 59.1273C60.6185 59.103 60.8471 59.0836 61.0806 59.0641C61.1244 59.0641 61.1584 59.0933 61.1535 59.1322C61.1438 59.1906 61.139 59.2489 61.1292 59.3073C61.0417 59.7937 60.9541 60.285 60.8714 60.7714C60.8568 60.8492 60.852 60.9271 60.8471 61C60.8471 61.0146 60.8666 61.0292 60.8812 61.0535" fill="#59A544"/>
<path d="M40.3011 60.0029C40.1357 59.9834 39.9898 59.964 39.8488 59.9494C39.5861 59.9202 39.3283 59.891 39.0656 59.8667C38.8808 59.8521 38.696 59.857 38.516 59.9056C38.409 59.9299 38.3117 59.9737 38.2241 60.0321C37.8788 60.2558 37.8058 60.6206 37.8739 60.9222C37.9031 61.0389 37.9615 61.1411 38.0442 61.2238C38.1171 61.3016 38.1998 61.3746 38.2825 61.4378C38.4625 61.574 38.6473 61.7005 38.8273 61.8269C38.9683 61.9291 39.1143 62.0264 39.2553 62.1285C39.3575 62.2015 39.4596 62.2793 39.552 62.362C39.8633 62.6344 40.0044 62.9846 40.0239 63.3883C40.053 63.9915 39.8196 64.4633 39.3429 64.8281C39.0462 65.0567 38.7057 65.1978 38.3409 65.2804C37.9372 65.3729 37.5334 65.3729 37.1249 65.3096C36.8281 65.2659 36.5314 65.2026 36.2493 65.1005C36.225 65.0907 36.1958 65.0762 36.1763 65.0567C36.1618 65.047 36.1472 65.0178 36.152 65.0081C36.2055 64.8427 36.2542 64.6773 36.3125 64.5119C36.3223 64.4876 36.3515 64.4681 36.3806 64.473C36.4196 64.473 36.4585 64.4779 36.4974 64.4876C36.7017 64.546 36.9157 64.58 37.1249 64.6141C37.3875 64.6578 37.6453 64.6627 37.908 64.6481C38.0928 64.6384 38.2728 64.5897 38.443 64.5119C38.5403 64.4681 38.6327 64.4098 38.7154 64.3417C39.0024 64.1082 39.1094 63.7969 39.0802 63.4369C39.0705 63.2764 39.0024 63.1354 38.8954 63.0186C38.8078 62.9262 38.7154 62.8435 38.6084 62.7706C38.4333 62.649 38.2533 62.5322 38.0831 62.4058C37.9031 62.2744 37.7231 62.1431 37.548 62.0069C37.4799 61.9534 37.4167 61.895 37.3486 61.8367C36.7649 61.3211 36.7795 60.3726 37.2659 59.8375C37.4702 59.6089 37.7183 59.4435 38.0053 59.3365C38.336 59.21 38.6814 59.1565 39.0364 59.1808C39.4742 59.2149 39.9071 59.2733 40.3303 59.3803C40.3595 59.3851 40.3838 59.3949 40.413 59.4046C40.447 59.4143 40.4762 59.4581 40.4665 59.4922C40.4227 59.6624 40.3838 59.8326 40.306 60.0175" fill="#59A544"/>
<path d="M47.6459 60.8249C47.9475 60.8249 48.2491 60.8784 48.5458 60.9708C48.7841 61.0438 49.0176 61.1411 49.2511 61.2481C49.3289 61.2821 49.3435 61.3162 49.3289 61.4135C49.2948 61.6226 49.2608 61.8367 49.2268 62.0458C49.1149 62.7171 48.9981 63.3834 48.8863 64.0547C48.8765 64.1228 48.8619 64.1909 48.8619 64.259C48.8571 64.4633 48.9252 64.6384 49.0954 64.7648C49.1295 64.7892 49.1635 64.8038 49.1878 64.8329C49.2073 64.8524 49.2219 64.8913 49.2122 64.9108C49.1343 65.047 49.0516 65.1783 48.969 65.3096C48.9446 65.3485 48.9057 65.3583 48.8668 65.3485C48.6771 65.3048 48.4971 65.2318 48.3415 65.1102C48.2248 65.0226 48.1421 64.901 48.0788 64.7648C48.0545 64.7113 48.0156 64.7065 47.9621 64.7503C47.9232 64.7794 47.8891 64.8135 47.8551 64.8475C47.7237 64.9643 47.5778 65.0616 47.4222 65.1394C47.0087 65.3485 46.571 65.402 46.1235 65.2853C45.7538 65.188 45.4911 64.9643 45.3355 64.6092C45.2382 64.3903 45.1993 64.1617 45.1847 63.9282C45.1506 63.3056 45.2722 62.7122 45.5641 62.1577C45.7635 61.7831 46.0262 61.467 46.3764 61.2238C46.7217 60.9854 47.1449 60.8298 47.6459 60.8298M46.0554 63.6558C46.0554 63.758 46.0554 63.792 46.0554 63.8309C46.0651 63.9963 46.0894 64.1617 46.1575 64.3125C46.2596 64.546 46.4445 64.6724 46.6974 64.6919C46.8433 64.7016 46.9893 64.6919 47.1303 64.6481C47.4805 64.5508 47.7578 64.3465 47.9815 64.0693C48.0059 64.0401 48.0205 64.0012 48.0302 63.9671C48.0594 63.8261 48.0837 63.6802 48.108 63.5391C48.2102 62.9359 48.3172 62.3328 48.4193 61.7296C48.429 61.6615 48.4047 61.6275 48.3366 61.5983C48.0934 61.5108 47.8502 61.4767 47.5924 61.4718C47.2617 61.4621 46.9893 61.5886 46.7558 61.8172C46.6293 61.9437 46.532 62.0847 46.4445 62.2355C46.1916 62.6976 46.0845 63.1937 46.0554 63.6558Z" fill="#59A544"/>
<path d="M57.6854 64.6919C57.6125 64.7551 57.5492 64.8135 57.4811 64.867C57.2234 65.081 56.9315 65.2318 56.6007 65.2999C56.2992 65.3631 56.0025 65.3485 55.7106 65.261C55.3993 65.1637 55.1707 64.9643 55.0248 64.6724C54.9275 64.4779 54.874 64.2736 54.8545 64.0596C54.8059 63.4613 54.8837 62.8776 55.1366 62.3279C55.2874 61.9972 55.4869 61.7005 55.7544 61.4524C56.2165 61.0195 56.7613 60.8103 57.3985 60.8298C57.593 60.8346 57.7876 60.8638 57.9724 60.9125C58.3032 60.9952 58.6194 61.1168 58.9258 61.2627C58.9744 61.287 58.9987 61.3259 58.989 61.3794C58.9647 61.5448 58.9404 61.7053 58.9112 61.8707C58.7847 62.5955 58.6631 63.3251 58.5367 64.0498C58.5221 64.1422 58.5123 64.2444 58.5172 64.3368C58.5172 64.4925 58.5853 64.6189 58.702 64.7211C58.7507 64.7648 58.8091 64.7989 58.8626 64.8475C58.8723 64.8573 58.882 64.8865 58.8723 64.901C58.7896 65.0421 58.702 65.1832 58.6096 65.3194C58.5999 65.3388 58.5561 65.3485 58.5318 65.3437C58.201 65.2659 57.9092 65.1297 57.7535 64.7989C57.7389 64.7648 57.7146 64.7357 57.6854 64.6967M55.7155 63.7239C55.7155 63.8163 55.7155 63.9039 55.7301 63.9866C55.7447 64.1131 55.7738 64.2347 55.8322 64.3465C55.9295 64.546 56.09 64.6627 56.3089 64.687C56.4548 64.7065 56.6007 64.7016 56.7418 64.6627C57.0726 64.58 57.345 64.4 57.5736 64.1568C57.6465 64.079 57.6952 63.9915 57.7146 63.8747C57.8216 63.2327 57.9335 62.5955 58.0454 61.9534C58.06 61.8658 58.0697 61.7783 58.0794 61.6956C58.0794 61.6615 58.0551 61.6178 58.0211 61.608C57.7049 61.4913 57.379 61.4475 57.0482 61.4864C56.9801 61.4962 56.9169 61.5156 56.8537 61.5399C56.6932 61.5934 56.5618 61.6859 56.4402 61.8026C56.2943 61.9437 56.1776 62.1139 56.0851 62.2939C55.8565 62.7414 55.7447 63.2229 55.7301 63.7191" fill="#59A544"/>
<path d="M88.2807 50.6297V47.9788C88.2807 47.8912 88.2807 47.8037 88.2807 47.7161C88.2807 47.6821 88.3196 47.6383 88.3536 47.6383C88.3828 47.6383 88.412 47.6286 88.4412 47.6286C88.7622 47.6286 89.0833 47.6286 89.4043 47.6286C89.4335 47.6286 89.4627 47.6286 89.487 47.6432C89.5113 47.6529 89.5356 47.6821 89.5405 47.7015C89.5502 47.7794 89.5502 47.8572 89.5502 47.935C89.5502 49.117 89.5502 50.3038 89.5502 51.4858V53.378C89.5502 53.4363 89.5502 53.4947 89.5502 53.5531C89.5502 53.6163 89.5064 53.6552 89.4383 53.6552C89.0881 53.6552 88.7379 53.6552 88.3926 53.6552C88.3293 53.6552 88.2904 53.6114 88.2904 53.5385C88.2904 53.4509 88.2904 53.3634 88.2904 53.2758V50.6249L88.2807 50.6297Z" fill="#7A7065"/>
<path d="M50.9632 60.9708C51.0313 61.0243 51.0411 61.0924 51.0605 61.1557C51.0751 61.1995 51.114 61.2092 51.1529 61.1946C51.1967 61.1751 51.2405 61.1508 51.2843 61.1314C51.5664 60.9903 51.8631 60.9076 52.1793 60.8979C52.3349 60.8979 52.4906 60.893 52.6462 60.893C52.6754 60.893 52.7046 60.9027 52.7435 60.9076C52.7435 60.9417 52.7581 60.9806 52.7532 61.0195C52.7289 61.1654 52.7046 61.3065 52.6803 61.4524C52.6657 61.5156 52.6268 61.5448 52.5538 61.5448C52.4079 61.5448 52.262 61.5448 52.116 61.5448C51.8728 61.5497 51.6296 61.574 51.3961 61.647C51.3475 61.6615 51.3037 61.6761 51.26 61.6907C51.0654 61.7637 51.0508 61.7783 51.0167 61.9728C50.8368 62.9894 50.6568 64.0012 50.4817 65.0129C50.4768 65.0421 50.472 65.0713 50.4671 65.1005C50.4525 65.1686 50.4136 65.2075 50.3504 65.2075C50.1266 65.2075 49.9029 65.2075 49.6791 65.2075C49.6256 65.2075 49.5916 65.1686 49.6013 65.1102C49.6256 64.9497 49.6548 64.7843 49.684 64.6238C49.8542 63.6558 50.0245 62.6927 50.1947 61.7248C50.2336 61.4962 50.2774 61.2676 50.3212 61.0341C50.326 60.9952 50.365 60.966 50.399 60.9611C50.5936 60.9514 50.7881 60.9514 50.9681 60.9611" fill="#59A745"/>
<path d="M53.5461 65.188C53.5461 65.188 53.5266 65.1978 53.5169 65.1978C53.264 65.2221 53.0159 65.2123 52.763 65.2075C52.724 65.2075 52.69 65.1637 52.6949 65.1297C52.6949 65.1005 52.6949 65.0713 52.7046 65.0421C52.8894 64.0012 53.0743 62.9603 53.2591 61.9193C53.3029 61.6615 53.3467 61.4037 53.3953 61.1459C53.4002 61.107 53.4099 61.073 53.4196 61.0341C53.4293 61 53.4683 60.966 53.5023 60.966C53.7455 60.966 53.9887 60.966 54.2271 60.966C54.266 60.966 54.3 61.0049 54.2952 61.0438C54.2611 61.2432 54.2271 61.4475 54.193 61.647C53.9984 62.7462 53.8087 63.8407 53.6142 64.94C53.5996 65.0275 53.5899 65.1151 53.5461 65.188Z" fill="#59A745"/>
<path d="M88.3001 45.6927C88.3293 45.6829 88.3536 45.6635 88.3828 45.6635C88.7379 45.6635 89.0979 45.6635 89.4529 45.6635C89.5064 45.6635 89.5454 45.7024 89.5454 45.751C89.5454 46.0915 89.5454 46.4271 89.5405 46.7628C89.5405 46.7968 89.5016 46.8309 89.4627 46.8357C89.4335 46.8357 89.4043 46.8406 89.3751 46.8406C89.0638 46.8406 88.7574 46.8406 88.4461 46.8406C88.4072 46.8406 88.3682 46.8357 88.3342 46.826C88.3196 46.826 88.3001 46.8065 88.2953 46.7871C88.2856 46.7628 88.2807 46.7336 88.2807 46.7044C88.2807 46.3931 88.2807 46.0867 88.2807 45.7754C88.2807 45.7462 88.2904 45.717 88.2953 45.6878" fill="#7C7166"/>
<path d="M54.0033 60.2753C53.8963 60.2753 53.7893 60.2558 53.6969 60.1974C53.5947 60.1293 53.5266 60.0369 53.5072 59.9153C53.4245 59.4192 53.8671 59.0592 54.2611 59.0982C54.3389 59.1079 54.4119 59.1322 54.48 59.1711C54.5821 59.2344 54.6502 59.3268 54.6794 59.4435C54.7037 59.5602 54.6989 59.677 54.66 59.7889C54.5578 60.0856 54.2854 60.2753 54.0033 60.2753Z" fill="#5AA644"/>
</g>
<rect x="1" y="1" width="110" height="110" rx="9" stroke="#CCCCCC" stroke-width="2"/>
<defs>
<clipPath id="clip0_528_43">
<rect x="2" y="2" width="108" height="108" rx="8" fill="white"/>
</clipPath>
</defs>
</svg>
