<svg width="112" height="112" viewBox="0 0 112 112" fill="none" xmlns="http://www.w3.org/2000/svg">
<g clip-path="url(#clip0_528_39)">
<rect x="2" y="2" width="108" height="108" rx="8" fill="white"/>
<path d="M43.5464 52.0546V61.3858H41.7216V56.8965H37.9339V61.3858H36.1054V52.0546H37.9339V55.6824H41.7216V52.0546H43.5464Z" fill="black"/>
<path d="M49.0135 61.3858C48.9589 61.3494 48.9008 61.2731 48.8354 61.1495C48.7663 61.0223 48.7336 60.9023 48.7336 60.7751C48.4573 61.0695 48.1447 61.2695 47.7848 61.3749C47.4286 61.4839 47.0796 61.5348 46.7343 61.5348C46.1018 61.5348 45.5747 61.3422 45.1603 60.9569C44.7423 60.5715 44.5351 60.0445 44.5351 59.3756C44.5351 58.7613 44.7568 58.2269 45.1967 57.7689C45.6365 57.3109 46.2727 57.0347 47.1087 56.9474L48.6027 56.7766C48.6027 56.2059 48.4755 55.8169 48.221 55.6097C47.9702 55.3989 47.6794 55.2935 47.3632 55.2935C46.9706 55.2935 46.5998 55.3807 46.2508 55.5516C45.8982 55.726 45.5784 55.9478 45.2839 56.2131L44.9749 54.8645C45.3312 54.6174 45.7056 54.4283 46.1018 54.3047C46.498 54.1775 46.9488 54.1194 47.4686 54.1194C47.7885 54.1194 48.1193 54.163 48.4609 54.2538C48.8026 54.3411 49.1116 54.4901 49.3879 54.6937C49.6714 54.8972 49.9041 55.1699 50.0822 55.5007C50.2603 55.8315 50.3512 56.2422 50.3512 56.7329V59.6373C50.3512 59.9136 50.3693 60.208 50.4166 60.517C50.4602 60.8296 50.5511 61.1168 50.6856 61.3822H49.0207L49.0135 61.3858ZM48.6136 57.8925L47.7194 58.0125C47.3014 58.067 46.9633 58.2088 46.7052 58.4378C46.4471 58.6704 46.3199 58.9576 46.3199 59.3066C46.3199 59.6155 46.4071 59.8664 46.5816 60.0517C46.7525 60.2371 46.9597 60.3316 47.1996 60.3316C47.385 60.3316 47.5667 60.3062 47.7412 60.2553C47.9157 60.2008 48.0647 60.1026 48.1883 59.9609C48.3228 59.8155 48.4282 59.6301 48.5046 59.3938C48.5773 59.1575 48.6173 58.8558 48.6173 58.4814V57.8962L48.6136 57.8925Z" fill="black"/>
<path d="M53.3864 54.2538V54.8682C53.6263 54.6283 53.9062 54.4429 54.2298 54.3156C54.5569 54.1848 54.8913 54.123 55.2403 54.123C56.0945 54.123 56.7634 54.3702 57.2577 54.8682C57.7521 55.3662 57.9957 56.0459 57.9957 56.9074V61.3858H56.2508V57.1619C56.2508 56.6203 56.1273 56.1804 55.8837 55.8424C55.6365 55.5079 55.2948 55.3371 54.8477 55.3371C54.437 55.3371 54.0953 55.5043 53.8154 55.8387C53.5355 56.1695 53.3937 56.6312 53.3937 57.2164V61.3894H51.6598V54.2538H53.3864Z" fill="black"/>
<path d="M63.4119 61.3858C63.361 61.3494 63.2992 61.2731 63.2301 61.1495C63.1647 61.0223 63.132 60.9023 63.132 60.7751C62.8557 61.0695 62.5431 61.2695 62.1869 61.3749C61.8306 61.4839 61.478 61.5348 61.1327 61.5348C60.5002 61.5348 59.9768 61.3422 59.5587 60.9569C59.1443 60.5715 58.9371 60.0445 58.9371 59.3756C58.9371 58.7613 59.1552 58.2269 59.5951 57.7689C60.0349 57.3109 60.6747 57.0347 61.5071 56.9474L62.9975 56.7766C62.9975 56.2059 62.8739 55.8169 62.6194 55.6097C62.365 55.3989 62.0778 55.2935 61.7579 55.2935C61.3653 55.2935 60.9946 55.3807 60.642 55.5516C60.293 55.726 59.9695 55.9478 59.675 56.2131L59.3697 54.8645C59.7259 54.6174 60.1003 54.4283 60.4929 54.3047C60.8928 54.1775 61.3472 54.1194 61.8633 54.1194C62.1832 54.1194 62.514 54.163 62.8521 54.2538C63.1974 54.3411 63.5064 54.4901 63.779 54.6937C64.0625 54.8972 64.2916 55.1699 64.4733 55.5007C64.6514 55.8315 64.7387 56.2422 64.7387 56.7329V59.6373C64.7387 59.9136 64.7605 60.208 64.8041 60.517C64.8477 60.8296 64.9386 61.1168 65.0695 61.3822H63.4046L63.4119 61.3858ZM63.012 57.8925L62.1178 58.0125C61.6998 58.067 61.3617 58.2088 61.1036 58.4378C60.8419 58.6704 60.7147 58.9576 60.7147 59.3066C60.7147 59.6155 60.8019 59.8664 60.9764 60.0517C61.1472 60.2371 61.3581 60.3316 61.5943 60.3316C61.7834 60.3316 61.9615 60.3062 62.136 60.2553C62.3068 60.2008 62.4595 60.1026 62.5831 59.9609C62.7176 59.8155 62.8194 59.6301 62.8957 59.3938C62.972 59.1575 63.0084 58.8558 63.0084 58.4814V57.8962L63.012 57.8925Z" fill="black"/>
<path d="M70.9618 61.3858H67.9884V52.0546H71.1618C71.9433 52.0546 72.5903 52.2546 73.1029 52.6508C73.6118 53.0506 73.8663 53.5668 73.8663 54.1993C73.8663 54.8318 73.7136 55.3298 73.401 55.6933C73.092 56.0568 72.7503 56.3076 72.3759 56.4421C72.9211 56.5766 73.3755 56.8202 73.7499 57.1728C74.1243 57.529 74.3097 58.0234 74.3097 58.6559C74.3097 59.481 74.0226 60.1426 73.4519 60.6442C72.8812 61.1422 72.0524 61.3894 70.9655 61.3894M69.8314 53.2179V55.9514H70.5111C71.0164 55.9514 71.3981 55.8169 71.6525 55.5443C71.9142 55.2717 72.0415 54.9118 72.0415 54.4574C72.0415 54.0866 71.9324 53.7849 71.7143 53.5596C71.4962 53.3342 71.1872 53.2179 70.7874 53.2179H69.8277H69.8314ZM69.8314 57.111V60.2299H70.791C71.2527 60.2299 71.638 60.0954 71.9433 59.8264C72.2487 59.5537 72.405 59.1648 72.405 58.6595C72.405 58.0997 72.2232 57.6999 71.8597 57.4672C71.4926 57.2273 71.0854 57.111 70.6347 57.111H69.8314Z" fill="black"/>
<path d="M79.6278 61.3858C79.5769 61.3494 79.5115 61.2731 79.446 61.1495C79.3806 61.0223 79.3479 60.9023 79.3479 60.7751C79.0716 61.0695 78.7554 61.2695 78.3992 61.3749C78.0466 61.4839 77.6903 61.5348 77.345 61.5348C76.7125 61.5348 76.189 61.3422 75.771 60.9569C75.353 60.5715 75.1422 60.0445 75.1422 59.3756C75.1422 58.7613 75.3639 58.2269 75.8037 57.7689C76.2436 57.3109 76.8797 57.0347 77.7158 56.9474L79.2061 56.7766C79.2061 56.2059 79.0789 55.8169 78.8281 55.6097C78.5736 55.3989 78.2901 55.2935 77.9702 55.2935C77.5776 55.2935 77.2069 55.3807 76.8543 55.5516C76.5017 55.726 76.1818 55.9478 75.8873 56.2131L75.582 54.8645C75.9382 54.6174 76.3126 54.4283 76.7052 54.3047C77.1051 54.1775 77.5595 54.1194 78.0756 54.1194C78.3955 54.1194 78.7263 54.163 79.068 54.2538C79.4097 54.3411 79.7187 54.4901 79.9949 54.6937C80.2785 54.8972 80.5075 55.1699 80.6892 55.5007C80.8673 55.8315 80.9546 56.2422 80.9546 56.7329V59.6373C80.9546 59.9136 80.9764 60.208 81.0237 60.517C81.0673 60.8296 81.1545 61.1168 81.289 61.3822H79.6242L79.6278 61.3858ZM79.2279 57.8925L78.3337 58.0125C77.9157 58.067 77.5813 58.2088 77.3195 58.4378C77.0615 58.6704 76.9342 58.9576 76.9342 59.3066C76.9342 59.6155 77.0215 59.8664 77.1923 60.0517C77.3668 60.2371 77.5776 60.3316 77.8139 60.3316C77.9993 60.3316 78.181 60.3062 78.3555 60.2553C78.5264 60.2008 78.6754 60.1026 78.8026 59.9609C78.9371 59.8155 79.0389 59.6301 79.1153 59.3938C79.1916 59.1575 79.2279 58.8558 79.2279 58.4814V57.8925Z" fill="black"/>
<path d="M84.0007 54.2538V54.8682C84.2407 54.6283 84.5206 54.4429 84.8441 54.3156C85.1676 54.1848 85.5057 54.123 85.851 54.123C86.7052 54.123 87.3777 54.3702 87.8721 54.8682C88.3664 55.3662 88.61 56.0459 88.61 56.9074V61.3858H86.8652V57.1619C86.8652 56.6203 86.7416 56.1804 86.498 55.8424C86.2545 55.5079 85.9091 55.3371 85.462 55.3371C85.0549 55.3371 84.7096 55.5043 84.4297 55.8387C84.1462 56.1695 84.008 56.6312 84.008 57.2164V61.3894H82.2741V54.2538H84.0007Z" fill="black"/>
<path d="M89.8386 61.3858V51.6548H91.5725V56.7584L93.8408 54.2538H95.6947L92.932 57.3073L96.04 61.3858H94.0553L91.5725 58.147V61.3858H89.8386Z" fill="black"/>
<path d="M28.65 57.7144C28.6063 57.449 28.5336 57.1873 28.4246 56.951C28.0865 56.2204 27.614 55.6061 26.9088 55.1953C25.811 54.5519 24.4842 54.5592 23.3973 55.2171C22.903 55.5152 22.4995 55.9441 22.2414 56.4567C22.1505 56.6312 22.0814 56.8129 22.0233 56.9983C21.7361 57.9071 21.747 59.1321 22.2632 59.9609C22.4304 60.2335 22.674 60.4625 22.972 60.5788C23.2701 60.6951 23.6227 60.6806 23.8917 60.5061C24.237 60.2844 24.2988 59.8591 24.2334 59.481C24.1498 58.9976 24.0916 58.5214 24.2697 58.0452C24.3243 57.8925 24.4042 57.7508 24.5242 57.6381C24.5969 57.5726 24.6805 57.5145 24.7677 57.4745C24.9568 57.38 25.1676 57.3436 25.3748 57.3727C25.7347 57.4309 26.0291 57.7108 26.189 58.0379C26.349 58.3651 26.3926 58.7359 26.4071 59.0994C26.4835 60.6879 26.1054 62.3273 25.6983 63.8504C25.6583 64.0067 25.6147 64.163 25.5711 64.3193C25.5347 64.4392 25.4766 64.5955 25.5529 64.7119C25.5856 64.7627 25.6402 64.7991 25.6947 64.8209C25.9273 64.9154 26.1236 64.77 26.2799 64.6137C27.2069 63.6795 27.8066 62.4727 28.2138 61.2331C28.3664 60.7678 28.4937 60.2989 28.5845 59.8155C28.7045 59.1612 28.7736 58.4087 28.6536 57.7144" fill="#008A8B"/>
<path d="M35.3057 50.3862C35.3057 50.1463 35.0949 49.9899 34.8695 49.9972C34.6369 50.0081 34.426 50.1244 34.2152 50.2044C30.1258 51.7602 25.5129 52.0546 21.2018 51.4331C20.4639 51.3276 19.7187 51.1786 18.9735 51.0623C18.5118 50.9896 18.0502 50.8842 17.5849 50.8514C17.185 50.8187 16.6907 50.8078 16.3672 51.0841C15.9419 51.4512 15.9709 52.1455 16.2145 52.6072C16.5053 53.1597 17.0106 53.5741 17.5376 53.8867C18.0502 54.1921 18.6609 54.5192 19.2752 54.4792C20.9219 54.3738 22.5649 54.2175 24.2007 54.003C26.9924 53.6395 29.9222 53.2978 32.5431 52.2146C33.401 51.862 34.2479 51.4185 34.9822 50.8478C35.1167 50.746 35.3057 50.5825 35.3057 50.3862Z" fill="#008A8B"/>
<path d="M23.5754 48.983C23.5754 49.87 24.2952 50.5934 25.1858 50.5934C26.0764 50.5934 26.7925 49.8736 26.7925 48.983C26.7925 48.8485 26.7634 48.7177 26.7089 48.5977C26.5707 48.3033 26.4181 48.1652 26.429 47.8126C26.4508 47.34 25.8437 47.3364 25.5166 47.3364C25.1603 47.3364 24.7823 47.3836 24.4624 47.5472C24.2079 47.6744 23.9862 47.8744 23.8299 48.1143C23.67 48.3614 23.5827 48.6522 23.5754 48.9467V48.983Z" fill="#E50045"/>
</g>
<rect x="1" y="1" width="110" height="110" rx="9" stroke="#CCCCCC" stroke-width="2"/>
<defs>
<clipPath id="clip0_528_39">
<rect x="2" y="2" width="108" height="108" rx="8" fill="white"/>
</clipPath>
</defs>
</svg>
