<svg width="112" height="112" viewBox="0 0 112 112" fill="none" xmlns="http://www.w3.org/2000/svg">
<g clip-path="url(#clip0_302_1301)">
<rect x="2" y="2" width="108" height="108" rx="8" fill="white"/>
<g clip-path="url(#clip1_302_1301)">
<path d="M79.062 44.0419C79.062 32.4279 67.691 24.2209 56.669 27.8799L32 36.0679V53.7609C32 53.9439 32.005 54.1249 32.012 54.3049L56.669 46.1209C64.503 43.5209 72.512 46.9149 76.49 53.2649C78.135 50.5459 79.062 47.3749 79.062 44.0419Z" fill="#00D200"/>
<path d="M66.853 60.958L49.81 66.615C41.217 69.467 32.359 63.252 32.012 54.305L32 54.309V72.002C32 81.239 41.043 87.766 49.81 84.856L66.853 79.199C74.142 76.78 79.062 69.963 79.062 62.283C79.062 58.923 78.109 55.85 76.49 53.265C74.345 56.811 70.979 59.589 66.854 60.958H66.853Z" fill="#008BEC"/>
<path d="M56.669 46.121L32.012 54.305C32.359 63.252 41.217 69.467 49.81 66.615L66.853 60.958C70.978 59.589 74.344 56.811 76.489 53.265C72.51 46.915 64.502 43.521 56.668 46.121H56.669Z" fill="#1A4FE3"/>
</g>
</g>
<rect x="1" y="1" width="110" height="110" rx="9" stroke="#CCCCCC" stroke-width="2"/>
<defs>
<clipPath id="clip0_302_1301">
<rect x="2" y="2" width="108" height="108" rx="8" fill="white"/>
</clipPath>
<clipPath id="clip1_302_1301">
<rect width="47.062" height="58.555" fill="white" transform="translate(32 27)"/>
</clipPath>
</defs>
</svg>
