<svg width="112" height="112" viewBox="0 0 112 112" fill="none" xmlns="http://www.w3.org/2000/svg">
<g clip-path="url(#clip0_421_540)">
<rect x="2" y="2" width="108" height="108" rx="8" fill="white"/>
<g clip-path="url(#clip1_421_540)">
<path fill-rule="evenodd" clip-rule="evenodd" d="M42.5979 71.8039C41.936 71.8039 41.5949 71.6777 41.1207 71.3229C40.1245 70.5792 40.2235 69.4926 40.2235 68.244C40.2235 67.809 40.2866 67.502 40.3957 67.1643C40.5015 66.8385 40.6328 66.6099 40.8273 66.3455L41.0525 66.122C41.0576 66.1186 41.0644 66.1118 41.0695 66.1067L41.136 66.0453C42.1049 65.2078 43.6776 65.3869 44.3753 66.4018C44.9467 67.2342 45.003 67.8056 45.003 68.853C45.003 70.2858 44.2081 71.8039 42.5979 71.8039ZM40.0631 65.1327L39.9659 63.9779C39.6554 63.9779 39.3467 63.9779 39.0363 63.9779C38.8606 63.9779 38.2277 63.8994 38.151 64.0257C38.1424 64.0393 38.2021 65.6018 38.2021 65.8065V76.551C38.2004 76.708 38.151 76.9365 38.2977 76.9365H40.2235V72.4777L40.3565 72.5681C40.4913 72.6926 40.5527 72.7694 40.7181 72.8802C41.8661 73.641 43.3876 73.6922 44.6192 73.0884C45.1087 72.8478 45.5284 72.5186 45.8797 72.1024C46.5484 71.3127 46.7122 70.8197 46.9424 69.8304C47.1386 68.9911 47.0925 67.7118 46.8606 66.8999C46.6678 66.2227 46.4409 65.7672 46.0111 65.2146C45.8593 65.0167 45.4704 64.6329 45.2418 64.4777C45.1326 64.4026 45.0371 64.3549 44.9211 64.2849C43.6947 63.5395 41.7126 63.6743 40.5851 64.6278L40.0631 65.1327Z" fill="#092139"/>
<path fill-rule="evenodd" clip-rule="evenodd" d="M51.8055 65.3885C52.4162 65.3885 52.7215 65.4227 53.2077 65.7826C53.3305 65.8713 53.3646 65.9224 53.4601 66.0435C53.9548 66.6798 53.8678 67.0619 53.9872 67.5702H49.7194C49.7962 66.661 50.6371 65.3885 51.8055 65.3885ZM52.2542 73.5045C53.467 73.5045 54.7002 73.2504 55.4951 72.8308L55.2051 71.676C55.1829 71.5856 55.142 71.357 55.1096 71.2905L54.2618 71.5975C54.1322 71.6333 54.064 71.6623 53.936 71.6896L52.5117 71.8363C51.925 71.8363 51.1267 71.6418 50.6712 71.2683C50.4734 71.1062 50.516 71.2154 50.3198 70.9476C50.0281 70.5502 49.8559 70.3028 49.7484 69.7553C49.7177 69.6035 49.6546 69.3067 49.6546 69.1412H55.8789C55.8789 68.5459 56.0887 68.6721 55.8891 67.3041C55.7766 66.528 55.5019 65.7843 55.0414 65.1685C54.8418 64.9024 54.5621 64.6261 54.2891 64.4453C53.2486 63.7595 51.9881 63.6538 50.7838 63.983C50.5518 64.0461 50.1783 64.2167 49.977 64.331C49.8644 64.3975 49.7552 64.4623 49.6461 64.5459C49.5301 64.6329 49.426 64.6994 49.3169 64.7949L49.1667 64.9331C48.9825 65.102 48.6107 65.5796 48.4844 65.7911L48.2303 66.2738C48.1945 66.3591 48.1723 66.3881 48.1382 66.47C47.9113 67.0022 47.7288 67.7834 47.7305 68.3736C47.7322 68.5749 47.6776 68.6977 47.7032 68.9126C47.7953 69.7024 47.7134 69.5847 47.9232 70.3932C48.2047 71.4781 48.9484 72.4248 49.919 72.9519C50.5723 73.3084 51.4866 73.5045 52.2542 73.5045Z" fill="#092139"/>
<path fill-rule="evenodd" clip-rule="evenodd" d="M27.1335 68.7574H27.4217V70.2005C27.4217 70.7071 27.1164 71.0772 26.7889 71.3962C26.6661 71.5156 26.3693 71.6657 26.2021 71.7408C25.8405 71.9045 25.2674 71.9523 24.8819 71.809L24.5475 71.6299C23.9727 71.1608 23.9659 70.2295 24.3548 69.6683C24.8358 68.974 26.2499 68.7574 27.1335 68.7574ZM22.6422 64.6824C22.6883 64.8819 23.1113 66.0163 23.1232 66.1595C23.2836 66.1459 23.3672 66.0077 23.5991 65.8986C24.4623 65.4892 24.7369 65.4209 25.8183 65.4209C26.893 65.4209 27.3893 66.1612 27.3893 67.2171L26.2107 67.2905C25.7075 67.3536 25.3493 67.4116 24.8802 67.531C23.7458 67.8226 22.6149 68.5203 22.2362 69.6666C21.9855 70.4273 21.9923 71.1983 22.3215 71.9318C22.8998 73.2248 24.4503 73.7365 25.7859 73.4073C27.1454 73.073 27.4064 72.5015 27.6145 72.4452L27.71 73.3118C27.9284 73.3118 29.4516 73.3391 29.5249 73.2964C29.6 73.2521 29.5574 73.2128 29.5198 72.945C29.5011 72.8018 29.4789 72.638 29.4755 72.5101L29.4345 71.6197C29.3322 70.8777 29.4772 67.5873 29.3987 67.0687C29.3578 66.8077 29.3305 66.5126 29.2691 66.2687L29.0217 65.5847C28.8375 65.1753 28.5851 64.829 28.2337 64.5442C28.0512 64.3958 27.8891 64.29 27.6674 64.1809C26.9015 63.7988 26.2738 63.8175 25.4652 63.8175C24.8 63.8175 23.8669 64.087 23.2409 64.3531L22.6422 64.6824Z" fill="#092139"/>
<path fill-rule="evenodd" clip-rule="evenodd" d="M59.055 65.0679C59.0533 64.928 59.0311 64.9553 59.0243 64.812C59.009 64.5425 59.0397 64.3225 58.9595 63.9779H57.1309C57.1309 64.3259 57.2299 65.2436 57.2281 65.6768L57.2264 73.3118H59.1522C59.3041 73.3118 59.2478 73.0628 59.2478 72.7984C59.2478 71.8227 59.2102 67.7067 59.2785 67.3126C59.3825 66.7276 59.7748 66.1664 60.2559 65.8508C61.0678 65.3203 62.4733 65.4329 62.9117 66.5058C63.1966 67.2035 63.1625 67.664 63.1625 68.6278L63.1591 73.09C63.1591 73.2094 63.1352 73.3118 63.258 73.3118H65.1838V67.4099C65.1838 66.8947 65.1105 66.7173 65.02 66.3216C64.8051 65.3698 64.2354 64.6568 63.3859 64.1706C63.1539 64.0393 62.748 63.9063 62.4802 63.8636C61.38 63.6879 60.394 63.9404 59.5497 64.6005C59.362 64.7472 59.2478 64.9399 59.055 65.0679Z" fill="#092139"/>
<path fill-rule="evenodd" clip-rule="evenodd" d="M30.9186 66.3506C30.9186 66.7651 30.9134 67.1915 31.1181 67.5634C31.4866 68.2372 31.971 68.6602 32.6618 69.003C32.887 69.1156 33.1122 69.2197 33.3527 69.305C33.6921 69.4261 34.2243 69.6444 34.5058 69.8866C34.5177 69.8969 34.5655 69.9378 34.574 69.9463L34.6354 70.0128C35.3382 70.7753 34.7446 71.8687 33.6136 71.8687C33.0456 71.8687 32.6499 71.8227 32.1245 71.6265C31.9471 71.56 31.7731 71.4969 31.623 71.4201C31.5019 71.3587 31.2665 71.1949 31.1437 71.1625L30.6303 72.7659C30.8145 72.8154 31.6964 73.5045 33.3885 73.5045C34.6627 73.5045 36.0188 72.9979 36.5339 71.9966C36.9126 71.2615 37.0303 70.3898 36.713 69.6035C36.6687 69.4943 36.6107 69.3834 36.5561 69.2794C36.5066 69.1907 36.5066 69.2043 36.452 69.1276C36.2883 68.8922 36.0751 68.6482 35.8414 68.4862C35.3416 68.1433 35.1249 68.0342 34.5399 67.7988C34.3045 67.705 34.0657 67.606 33.8388 67.5054C33.7859 67.4815 33.7501 67.461 33.6921 67.4286C33.3271 67.2239 32.8751 66.9919 32.8751 66.4478C32.8751 65.8047 33.4141 65.4209 33.9667 65.4209C34.5484 65.4209 34.7736 65.4414 35.3041 65.6239C35.4303 65.6683 35.5616 65.7485 35.693 65.8116C35.8107 65.8661 35.9539 65.9958 36.0836 66.0299L36.4657 64.8717C36.522 64.7165 36.5561 64.6346 36.597 64.4589C35.5241 63.8909 35.2751 63.8175 33.9019 63.8175C33.3612 63.8175 32.6294 64.0563 32.1996 64.3276C32.1569 64.3531 32.1399 64.3702 32.087 64.4077C31.9864 64.476 31.9744 64.4862 31.8891 64.5612C31.5087 64.8939 31.2034 65.264 31.0431 65.7689C31.0226 65.8337 30.9186 66.2806 30.9186 66.3506Z" fill="#092139"/>
<path fill-rule="evenodd" clip-rule="evenodd" d="M17.38 62.3745V63.9779H16V65.6137H17.38V70.5536C17.38 72.1792 18.0998 73.5045 19.9778 73.5045C20.29 73.5045 20.5544 73.4773 20.8256 73.421C21.3254 73.3203 21.3527 73.2692 21.5829 73.2163C21.5829 72.6431 21.5181 72.1638 21.5181 71.5788C21.3271 71.5839 20.0358 72.0768 19.5855 71.3621C19.4661 71.1711 19.3689 70.7617 19.3689 70.4564V65.6137H21.6785V63.9779H19.3689V61.7962L18.3744 62.0845C18.2021 62.1323 18.0674 62.18 17.8814 62.2346L17.38 62.3745Z" fill="#092139"/>
<path d="M75.3603 49.0815H78.1493V58.673H75.3603V49.0815ZM68.4964 58.673V52.0598C68.4964 51.519 68.4861 50.9988 68.4674 50.499C68.4486 50.0026 68.423 49.5318 68.3855 49.0815H70.9424L71.0431 50.7992C71.2853 50.209 71.6742 49.7638 72.2064 49.4619C72.7335 49.1583 73.397 49.0099 74.1868 49.0099H74.2687L74.2601 51.5276C74.0913 51.5156 73.9667 51.5054 73.8832 51.4986C73.7979 51.4934 73.7211 51.49 73.6546 51.49C72.9262 51.49 72.3548 51.6674 71.9454 52.0222C71.5309 52.3753 71.3228 52.8683 71.3228 53.496V58.673H68.4964ZM64.2797 49.0815H67.0687V58.673H64.2797V49.0815ZM59.7595 58.673L59.6674 57.3032C59.3228 57.8201 58.91 58.2073 58.4256 58.47C57.9412 58.731 57.3936 58.8606 56.7829 58.8606C55.6213 58.8606 54.678 58.4052 53.9514 57.4943C53.2299 56.5834 52.8665 55.3774 52.8665 53.8815C52.8665 52.3753 53.2196 51.1676 53.9292 50.2636C54.6405 49.3595 55.5787 48.9075 56.7471 48.9075C57.3817 48.9075 57.9343 49.032 58.4068 49.276C58.881 49.5216 59.2887 49.8986 59.6299 50.4001V44.9143H62.4V56.7438C62.4 57.2282 62.4051 57.6222 62.4222 57.9224C62.4375 58.2244 62.4631 58.4751 62.4921 58.673H59.7595ZM55.693 53.8969C55.693 54.8862 55.8652 55.6538 56.2064 56.1996C56.5476 56.7438 57.0269 57.015 57.6426 57.015C58.2687 57.015 58.7701 56.7369 59.1352 56.1792C59.5019 55.6231 59.6861 54.8623 59.6861 53.8969C59.6861 52.928 59.5019 52.1621 59.1352 51.6043C58.7701 51.0448 58.2687 50.7634 57.6426 50.7634C57.0269 50.7634 56.5476 51.038 56.2064 51.589C55.8652 52.1399 55.693 52.9092 55.693 53.8969ZM42.5126 58.673V50.922C42.5126 50.6491 42.5058 50.3625 42.4904 50.0623C42.4733 49.7638 42.4478 49.4363 42.4205 49.0815H45.0746L45.1326 50.5212C45.4925 49.9429 45.9224 49.5182 46.4154 49.2504C46.91 48.9843 47.5139 48.8495 48.2303 48.8495C49.2878 48.8495 50.0708 49.1497 50.5842 49.7519C51.0959 50.3489 51.3535 51.2666 51.3535 52.4981V58.673H48.6124V52.8819C48.6124 52.1638 48.4878 51.6521 48.2439 51.3399C47.9983 51.0312 47.6009 50.876 47.0465 50.876C46.5109 50.876 46.0776 51.0465 45.7535 51.3945C45.426 51.7374 45.2623 52.1962 45.2623 52.7693V58.673H42.5126ZM16.0733 58.673V50.922C16.0733 50.5792 16.0665 50.2568 16.0546 49.9548C16.0409 49.6529 16.0222 49.363 16 49.0815H18.6388L18.7122 50.5212C19.0721 49.9429 19.5002 49.5182 19.9966 49.2504C20.4896 48.9843 21.0951 48.8495 21.8081 48.8495C22.5313 48.8495 23.1386 49.0099 23.6384 49.3305C24.1348 49.6529 24.4981 50.1169 24.7284 50.7259C25.0388 50.0794 25.4465 49.6052 25.9497 49.3015C26.4529 48.9996 27.0908 48.8495 27.8635 48.8495C28.9211 48.8495 29.7075 49.1497 30.2226 49.7519C30.7394 50.3489 30.997 51.2666 30.997 52.4981V58.673H28.2269V52.8819C28.2269 52.1638 28.1023 51.6521 27.8567 51.3399C27.6128 51.0312 27.2136 50.876 26.661 50.876C26.1254 50.876 25.6955 51.0465 25.3765 51.3945C25.0559 51.7374 24.8972 52.1962 24.8972 52.7693V58.673H22.1271V52.8819C22.1271 52.1706 22.006 51.6606 21.7638 51.3467C21.5215 51.0312 21.1292 50.876 20.5885 50.876C20.0529 50.876 19.6299 51.0465 19.3143 51.3877C19.0004 51.7322 18.8435 52.1894 18.8435 52.7693V58.673H16.0733ZM38.4921 57.6717C37.9326 58.1595 36.8392 58.6832 36.0887 58.8521C35.8004 58.9186 35.4866 58.951 35.1454 58.951C34.3403 58.951 33.6665 58.6679 33.1224 58.1015C32.5783 57.5335 32.3087 56.8103 32.3087 55.9301C32.3087 55.2256 32.4469 54.6508 32.7232 54.2056C33.0013 53.757 33.3919 53.4056 33.9002 53.148C34.4017 52.8939 35.0277 52.7079 35.7714 52.6005C36.5168 52.4913 37.2878 52.4094 38.0861 52.36V52.3071C38.0861 50.0145 34.8162 50.2994 33.4175 51.2802L32.933 49.4721C34.0264 48.9604 35.1011 48.6994 36.4384 48.6994C38.7838 48.6994 40.7642 49.8235 40.7642 52.5101V58.6934H38.4921V57.6717ZM38.2721 55.8005V53.9514C37.849 53.9924 37.3885 54.0453 36.8938 54.1135C36.4009 54.1851 36.0256 54.2653 35.7697 54.3574C35.4576 54.4683 35.2171 54.6354 35.0533 54.8487C34.8861 55.0653 34.8026 55.345 34.8026 55.6981C34.8026 58.1271 37.6392 57.3391 38.2721 55.8005Z" fill="#053364"/>
<path fill-rule="evenodd" clip-rule="evenodd" d="M46.9595 42.9732C47.8141 43.9301 49.4072 46.5229 51.2921 46.3626C55.7083 45.9873 58.2226 41.2112 63.6759 41.5523C65.9156 41.6922 66.9697 45.4483 69.1923 45.7724C72.6925 46.2824 76.0461 40.899 81.7518 41.2078C84.0972 41.3357 85.0678 45.276 87.4047 45.5046C89.5846 45.7161 92.9996 42.6252 96 41.0235C95.2358 39.7374 93.8166 37.728 92.3053 37.6257C89.3288 37.4261 86.9493 41.2282 84.3326 40.563C82.8094 40.1775 81.0746 35.9933 78.5655 36.0018C73.9207 36.0171 70.7156 40.6159 66.6098 40.9792C64.2797 41.1856 63.1591 36.0018 60.0392 36.4794C55.768 37.131 51.4047 40.65 46.9595 42.9732Z" fill="url(#paint0_linear_421_540)"/>
</g>
</g>
<rect x="1" y="1" width="110" height="110" rx="9" stroke="#CCCCCC" stroke-width="2"/>
<defs>
<linearGradient id="paint0_linear_421_540" x1="50.0554" y1="50.1255" x2="92.9041" y2="32.3924" gradientUnits="userSpaceOnUse">
<stop stop-color="#F6AD02"/>
<stop offset="0.2" stop-color="#FFF000"/>
<stop offset="0.411765" stop-color="#F6AD02"/>
<stop offset="0.658824" stop-color="#FFF000"/>
<stop offset="0.788235" stop-color="#F6AD02"/>
<stop offset="1" stop-color="#FFF000"/>
</linearGradient>
<clipPath id="clip0_421_540">
<rect x="2" y="2" width="108" height="108" rx="8" fill="white"/>
</clipPath>
<clipPath id="clip1_421_540">
<rect width="80" height="40.9382" fill="white" transform="translate(16 36)"/>
</clipPath>
</defs>
</svg>
