<svg width="112" height="112" viewBox="0 0 112 112" fill="none" xmlns="http://www.w3.org/2000/svg">
<g clip-path="url(#clip0_6_7379)">
<rect x="2" y="2" width="108" height="108" rx="8" fill="white"/>
<path fill-rule="evenodd" clip-rule="evenodd" d="M25.1771 81.3996L28.189 73.162L29.174 81.3996H32.3559L30.6326 69.3009H26.7495L24.1779 76.5689L21.6069 69.3009H17.7239L16 81.3996H19.1825L20.1669 73.162L23.1793 81.3996H25.1771Z" fill="#231F20"/>
<path fill-rule="evenodd" clip-rule="evenodd" d="M85.5732 68.3033V81.3891H88.8695V76.8328L92.2499 81.3891H96L92.279 76.5788L95.668 72.4023H91.8808L88.8695 76.3316V68.3033H85.5732Z" fill="#231F20"/>
<path fill-rule="evenodd" clip-rule="evenodd" d="M49.8861 72.4023L47.7282 78.6945L45.5393 72.4023H41.9036L45.995 81.3995L44.3744 84.9292H47.8982L53.5231 72.4023H49.8861Z" fill="#231F20"/>
<path fill-rule="evenodd" clip-rule="evenodd" d="M57.4064 79.3129V74.5801C58.0742 74.3546 60.4931 73.7493 60.4931 76.8241C60.4931 79.9579 58.0117 79.4771 57.4064 79.3129ZM54.0532 80.9361C54.0532 80.9361 55.7963 81.5892 58.2399 81.5892C60.6829 81.5892 63.8648 80.829 63.8648 76.6166C63.8648 72.4023 59.6416 72.2505 59.1488 72.2505C58.2189 72.2505 57.6247 72.5039 57.4064 72.6161V68.2835H54.0532V80.9361Z" fill="#231F20"/>
<path fill-rule="evenodd" clip-rule="evenodd" d="M67.3508 78.6274C67.3508 77.3343 69.8031 77.242 70.4771 77.2414V79.5443C69.7753 79.6286 67.3508 79.8287 67.3508 78.6274ZM65.6647 74.6801C70.4758 73.2564 70.4771 74.9658 70.4771 75.1925V75.498C66.5829 75.5308 64.2629 76.6454 64.2629 78.6658C64.2629 80.7153 66.4227 81.6074 69.2831 81.6074C72.1435 81.6074 73.6015 80.9426 73.6015 80.9426V75.3443C73.6015 73.3704 72.3327 72.1176 69.2831 72.1176C66.2329 72.1176 64.9078 72.8394 64.9078 72.8394L65.6647 74.6801Z" fill="#231F20"/>
<path fill-rule="evenodd" clip-rule="evenodd" d="M35.8701 78.6274C35.8701 77.3343 38.3224 77.242 38.9951 77.2414V79.5443C38.294 79.6286 35.8701 79.8287 35.8701 78.6274ZM34.184 74.6801C38.9951 73.2564 38.9951 74.9658 38.9951 75.1925V75.498C35.1022 75.5308 32.7822 76.6454 32.7822 78.6658C32.7822 80.7153 34.942 81.6074 37.8018 81.6074C40.6621 81.6074 42.1208 80.9426 42.1208 80.9426V75.3443C42.1208 73.3704 40.852 72.1176 37.8018 72.1176C34.7522 72.1176 33.4265 72.8394 33.4265 72.8394L34.184 74.6801Z" fill="#231F20"/>
<path fill-rule="evenodd" clip-rule="evenodd" d="M81.0077 81.3803H84.3225V75.6866C84.3225 72.7257 82.2017 72.0987 79.5868 72.0987C76.9738 72.0987 74.8708 72.8199 74.8708 72.8199V81.3803H78.1863V74.5726C80.735 73.826 81.0077 75.0528 81.0077 75.6481V81.3803Z" fill="#231F20"/>
<mask id="mask0_6_7379" style="mask-type:luminance" maskUnits="userSpaceOnUse" x="37" y="28" width="36" height="35">
<path fill-rule="evenodd" clip-rule="evenodd" d="M37.9385 28H72.7819V62.9142H37.9385V28Z" fill="white"/>
</mask>
<g mask="url(#mask0_6_7379)">
<path fill-rule="evenodd" clip-rule="evenodd" d="M55.3597 27.9998C45.7544 27.9998 37.9383 35.8326 37.9383 45.456C37.9383 55.0815 45.7544 62.9143 55.3597 62.9143C64.967 62.9143 72.7821 55.0815 72.7821 45.456C72.7821 35.8326 64.967 27.9998 55.3597 27.9998Z" fill="#FFC600"/>
<path fill-rule="evenodd" clip-rule="evenodd" d="M55.3597 27.9998C45.7544 27.9998 37.9383 35.8326 37.9383 45.456C37.9383 55.0815 45.7544 62.9143 55.3597 62.9143C64.967 62.9143 72.7821 55.0815 72.7821 45.456C72.7821 35.8326 64.967 27.9998 55.3597 27.9998ZM55.3595 29.4576C64.1767 29.4576 71.3258 36.6188 71.3258 45.4558C71.3258 54.2917 64.1767 61.454 55.3595 61.454C46.5434 61.454 39.3954 54.2917 39.3954 45.4558C39.3954 36.6188 46.5434 29.4576 55.3595 29.4576Z" fill="#231F20"/>
</g>
<path fill-rule="evenodd" clip-rule="evenodd" d="M47.8573 39.3441C47.8573 39.3441 48.2267 37.8893 48.8167 37.3969C49.4077 36.9034 51.5309 35.4979 54.5974 34.512C54.9625 34.394 55.3865 34.5292 55.4058 34.5356C55.3854 34.6568 55.3736 34.7394 55.3683 34.7663C55.3276 34.9969 55.1552 35.1439 55.1552 35.1439C55.7784 35.2265 56.1885 34.7834 56.303 34.2728C56.4187 33.7653 56.8116 31.7462 57.4519 31.7763C59.2389 31.8578 60.5184 37.6436 60.3877 37.9054C60.301 38.0771 59.5997 37.9376 59.5997 37.9376C60.7143 39.696 62.1737 39.6788 62.5024 39.4009C62.83 39.1231 62.6501 38.2176 62.6501 38.2176C66.1599 40.3053 65.9629 42.7868 65.9629 42.7868C67.0122 38.6789 64.586 36.9195 64.586 36.9195C65.5367 36.8862 66.57 37.4945 66.57 37.4945C65.0935 35.5065 62.043 34.4047 62.043 34.4047C62.043 34.4047 58.4851 30.4449 57.3373 30.5929C56.3855 30.7163 55.8415 32.465 55.5749 33.6602C55.4443 33.6494 55.1948 33.6398 54.8704 33.6784C54.6188 33.3651 53.5535 32.0981 53.1391 32.5154C52.9774 32.6764 52.926 33.8179 52.9121 34.2974C51.1883 34.9841 48.2556 36.2747 47.6593 37.222C47.1196 38.0856 46.9954 38.7272 46.9954 38.7272C46.9954 38.7272 43.4792 40.9941 42.6173 43.4616C42.6173 43.4616 44.9793 40.6991 47.8573 39.3441Z" fill="#231F20"/>
<path fill-rule="evenodd" clip-rule="evenodd" d="M59.1733 37.5127C59.123 35.6867 58.2226 34.2255 57.7622 34.1408C57.3039 34.0603 57.1561 35.8005 57.1561 35.8005C58.3703 36.6051 59.1733 37.5127 59.1733 37.5127Z" fill="#231F20"/>
<path fill-rule="evenodd" clip-rule="evenodd" d="M50.5298 37.1839C49.8242 37.6087 50.1369 37.9713 50.1369 37.9713C50.1369 37.9713 50.0223 37.6087 50.8917 37.363C52.4421 36.9242 53.8436 36.4747 53.8094 36.0981C53.7772 35.7205 52.728 35.5724 52.728 35.5724C53.0235 35.9662 51.2354 36.7558 50.5298 37.1839Z" fill="#231F20"/>
<path fill-rule="evenodd" clip-rule="evenodd" d="M51.2597 39.5977C51.4728 39.5977 51.6451 39.4261 51.6451 39.2126C51.6451 39.0957 51.5927 38.9948 51.5102 38.924C51.7661 38.9068 52.3507 38.939 52.3507 38.939C52.2854 38.924 52.1377 39.0881 51.809 39.499C51.4813 39.911 51.1708 39.5977 51.1708 39.5977L51.1655 39.5795C51.1955 39.5859 51.2265 39.5977 51.2597 39.5977ZM50.022 41.3562C50.022 41.3562 50.4642 40.322 50.7929 40.1911C50.7929 40.1911 51.3668 40.3381 51.6783 40.2222C51.9899 40.1085 52.5799 39.3199 52.8101 39.3028C52.8101 39.3028 52.203 41.9463 49.7425 41.898C49.7425 41.898 51.5145 42.9011 52.4161 42.1941C53.3187 41.4871 52.6291 40.9453 53.794 39.8113C54.9579 38.6762 54.1881 38.629 54.1388 38.6462C54.0896 38.6612 53.7277 38.5464 53.7277 38.5464C53.7277 38.5464 53.8915 38.3329 54.2213 38.187C54.5489 38.0368 56.4344 37.1839 56.4676 36.6711C56.4997 36.1636 55.1057 35.5886 54.4011 35.6036C54.4011 35.6036 55.0393 35.8665 55.0072 36.2291C54.975 36.5906 53.1388 37.3963 53.1388 38.4316C53.1388 38.4316 52.4824 38.4799 52.006 38.3834C51.5306 38.2825 51.022 38.3329 50.4974 38.6762C49.9727 39.0228 49.9406 38.2514 49.9888 38.1516C49.9888 38.1516 48.9727 38.7921 50.2522 39.6139C50.2522 39.6139 49.7265 40.1568 49.6772 40.2887C49.628 40.4196 49.4149 41.1255 50.022 41.3562Z" fill="#231F20"/>
<path fill-rule="evenodd" clip-rule="evenodd" d="M48.3983 44.7419C48.3983 44.7419 48.3737 43.8053 47.5118 44.0027C46.0642 44.3331 45.5685 46.9101 45.5685 46.9101C47.1938 43.904 48.3983 44.7419 48.3983 44.7419Z" fill="#231F20"/>
<path fill-rule="evenodd" clip-rule="evenodd" d="M48.94 47.0332C49.7259 45.7533 48.7676 44.939 47.5374 45.6278C46.3082 46.3187 46.0117 47.9709 46.0117 47.9709C48.4475 45.3092 48.94 47.0332 48.94 47.0332Z" fill="#231F20"/>
<path fill-rule="evenodd" clip-rule="evenodd" d="M60.5515 45.382C60.5515 45.382 59.6649 44.5956 59.7634 43.1387C59.8619 41.6839 60.1328 39.4932 57.6734 37.9633C57.6734 37.9633 58.6809 39.5168 58.3116 41.0445C57.9422 42.5733 56.7109 45.1814 56.8115 46.0483C57.0331 47.9461 59.0011 48.2916 58.8533 50.8793C58.8533 50.8793 60.0097 49.4728 59.7891 47.8227C59.5675 46.1706 58.1156 45.455 58.7548 44.1504C58.7548 44.1504 59.4925 45.234 60.5515 45.382Z" fill="#231F20"/>
<path fill-rule="evenodd" clip-rule="evenodd" d="M49.3702 52.9736C49.1475 52.9018 48.9516 52.0875 48.9516 52.0875C49.2717 52.3471 49.9238 52.3589 49.9238 52.3589C49.6154 52.6529 49.5919 53.0477 49.3702 52.9736ZM51.8264 50.3785C51.8264 50.3785 52.5962 50.4107 52.6294 50.2798C52.6626 50.1478 52.3832 49.2434 52.3832 49.2434C52.3832 49.2434 53.3511 49.3421 53.3682 49.6554C53.3843 49.9654 52.8264 50.7572 51.6455 51.2657C51.6455 51.2657 51.8596 50.6402 51.8264 50.3785ZM46.822 49.5406C46.928 49.4794 47.0275 49.414 47.1185 49.3421C47.3584 49.1608 47.5383 49.0739 47.6592 49.0342C47.6346 49.3807 47.6143 49.9901 47.7224 50.4965C47.7224 50.4965 47.0854 50.0877 46.822 49.5406ZM43.7405 46.3843C43.3636 46.3843 42.6912 45.3822 42.5766 45.1848C42.4621 44.9885 43.2148 44.6259 43.446 44.5604C43.6752 44.4939 43.9172 44.5497 43.9536 44.6613C43.9867 44.7568 43.4792 45.07 43.4129 45.1848C43.3475 45.3007 43.8154 45.7331 43.8882 45.8242C44.0189 45.9916 44.1184 46.3843 43.7405 46.3843ZM67.6332 38.5042C67.6332 38.5042 69.7842 44.3641 67.3569 49.6875C67.3569 49.6875 67.495 48.914 66.8976 47.3884C66.2573 45.7534 66.4714 43.641 66.7338 43.2473C66.7338 43.2473 65.5517 44.4295 65.6181 46.4025C65.6845 48.3722 66.2081 53.9274 62.2079 55.998C62.2079 55.998 63.724 53.2204 63.1576 49.9654C63.1576 49.9654 63.6748 50.165 63.9457 50.8548C63.9457 50.8548 65.0281 47.9957 63.6255 44.4939C63.6255 44.4939 64.4125 44.643 64.905 45.0614C64.905 45.0614 65.4222 42.5564 62.5923 40.7969C61.8792 40.3527 61.9766 40.1081 61.9766 40.1081C61.9766 40.1081 61.7561 40.6746 62.2229 41.2411C62.6897 41.8086 63.3311 42.9179 63.2326 43.4854C63.2326 43.4854 62.4692 42.9415 61.3621 43.0906C61.3621 43.0906 63.4778 44.8887 63.1576 48.7595C63.1576 48.7595 62.618 48.1684 61.24 47.9216C61.24 47.9216 62.7893 50.8312 61.4113 53.6152C61.4113 53.6152 61.3128 52.6293 60.8706 52.0124C60.8706 52.0124 60.5258 54.0594 58.0665 54.775C58.0665 54.775 60.058 52.2838 57.6971 51.0286C55.3351 49.7691 53.3425 52.5552 52.9496 54.997C52.9496 54.997 50.2193 55.1923 49.9484 54.084C49.6775 52.9737 50.4645 52.5048 50.4645 52.5048C50.4645 52.5048 50.8831 52.7762 51.8435 52.3332C52.8018 51.8901 54.819 50.681 54.622 49.1533C54.425 47.6266 52.0395 46.1225 50.1443 46.7372C48.2513 47.3552 47.1678 49.031 46.1838 49.0063C45.1998 48.9816 43.9942 47.4775 44.1677 46.69C44.339 45.9004 44.9782 45.6783 45.1998 44.3469C45.1998 44.3469 44.8562 44.3802 44.627 44.2321C44.3968 44.083 43.7897 43.8373 43.4621 43.921C43.1334 44.0026 42.3304 44.5454 42.2972 44.4456C42.264 44.3469 42.3796 43.7537 42.3796 43.7537C42.3796 43.7537 41.4942 44.6902 41.6259 45.07C41.7565 45.4477 42.5274 46.3843 43.3304 46.911C43.3304 46.911 43.4792 48.06 44.5285 49.1297C45.1549 49.768 45.7395 49.8839 46.2384 49.7766C46.4494 50.0888 47.1678 51.0307 48.3124 51.2367C48.3124 51.2367 48.1143 49.9161 48.2578 48.9183C48.3017 48.8947 48.3456 48.869 48.382 48.8325C48.5618 48.6533 50.6615 46.7136 52.2194 48.5868C52.2194 48.5868 51.5138 48.8497 51.2354 49.7358C50.957 50.6252 50.7932 52.8267 48.4805 51.4137C48.4805 51.4137 48.2835 52.6786 48.9891 53.436C48.9891 53.436 48.8906 54.7825 50.4152 55.5206C51.941 56.2608 53.0074 55.703 53.9914 56.1954C53.9914 56.1954 53.8929 54.1731 54.728 52.9415C55.5653 51.7088 56.7463 51.2979 57.3202 51.7764C57.893 52.2516 58.2549 54.0594 56.0407 55.9336C56.0407 55.9336 58.5825 56.2608 60.3213 54.9305C60.3213 54.9305 60.1051 57.2779 58.3502 59.2669C64.7091 57.9001 69.4555 52.2355 69.4555 45.4552C69.4555 42.9286 68.7927 40.5566 67.6332 38.5042Z" fill="#231F20"/>
<path fill-rule="evenodd" clip-rule="evenodd" d="M57.4188 39.055C57.4188 39.055 55.7624 38.1206 55.0247 39.0883C54.3298 40.0013 54.7817 41.5644 54.3737 42.5418C54.3619 42.531 54.347 42.5182 54.3352 42.5074C53.4165 41.6835 52.2859 43.0825 52.0717 43.4923C51.8597 43.9043 51.5803 43.9515 51.5803 43.9515C49.5631 44.3635 49.9892 42.737 49.3168 42.2446C48.6455 41.75 47.5127 42.4753 47.5127 42.4753C48.6444 42.2585 48.9067 43.0492 48.8746 43.3604C48.8414 43.6736 49.0705 44.5952 49.3821 45.1037C49.6937 45.6122 50.9571 45.2507 51.9903 45.3355C53.0236 45.4159 53.6135 46.6797 53.6135 46.6797C54.2367 45.1681 52.5642 44.4793 52.5642 44.4793C52.5642 44.4793 53.0525 43.5502 53.6296 43.87C55.4669 44.8881 55.0076 49.0132 55.0076 49.0132C56.5901 46.0328 55.893 44.283 55.0675 43.2606C55.1714 42.3315 55.6414 39.4005 57.4188 39.055Z" fill="#231F20"/>
</g>
<rect x="1" y="1" width="110" height="110" rx="9" stroke="#CCCCCC" stroke-width="2"/>
<defs>
<clipPath id="clip0_6_7379">
<rect x="2" y="2" width="108" height="108" rx="8" fill="white"/>
</clipPath>
</defs>
</svg>
