<svg width="112" height="112" viewBox="0 0 112 112" fill="none" xmlns="http://www.w3.org/2000/svg">
<g clip-path="url(#clip0_421_558)">
<rect x="2" y="2" width="108" height="108" rx="8" fill="white"/>
<g clip-path="url(#clip1_421_558)">
<path d="M38.9391 27H51.5649C49.4632 31.7287 47.3569 36.4556 45.2517 41.1831C43.2777 45.6194 41.302 50.0551 39.3274 54.4908C35.1165 54.4925 30.9056 54.4919 26.6953 54.4914C30.7767 45.3276 34.8547 36.1621 38.9391 27Z" fill="#FFCA08"/>
<path d="M51.5649 27H51.5683C52.8911 29.9789 54.2219 32.9543 55.544 35.9338L55.5533 35.9546C54.6512 37.9222 53.7896 39.9084 52.9043 41.8835C51.8856 44.162 50.8749 46.4446 49.8573 48.7237C49.6423 49.1814 49.4695 49.6587 49.2233 50.1007C47.8983 47.1288 46.5761 44.1551 45.2517 41.1831C47.3568 36.4556 49.4632 31.7287 51.5649 27Z" fill="#FA9D1C"/>
<path d="M59.525 27H59.5284C61.6324 31.7298 63.7387 36.4585 65.8451 41.1872C64.5096 44.1609 63.1938 47.1438 61.8618 50.1192C59.7515 45.401 57.6561 40.6763 55.5533 35.9546L55.544 35.9338C56.8783 32.9589 58.2011 29.9789 59.525 27Z" fill="#9E9FA3"/>
<path d="M59.5284 27H72.1542C76.2409 36.1615 80.3171 45.3276 84.3998 54.4908C80.19 54.4948 75.9797 54.4914 71.7699 54.4925C69.7931 50.058 67.8191 45.6223 65.8451 41.1872C63.7388 36.4585 61.6324 31.7298 59.5284 27Z" fill="#636466"/>
<path d="M55.5533 35.9546C57.6561 40.6763 59.7515 45.401 61.8618 50.1192C61.2967 51.3611 60.3478 52.422 59.1846 53.1345C57.4614 54.2047 55.2603 54.4474 53.3401 53.8008C51.5348 53.2068 50.0046 51.8337 49.2234 50.1007C49.4695 49.6587 49.6423 49.1813 49.8573 48.7237C50.8749 46.4446 51.8856 44.162 52.9044 41.8835C53.7896 39.9083 54.6512 37.9222 55.5533 35.9546Z" fill="#F37022"/>
<path d="M55.3607 61.6457H58.02L60.4236 66.1887H60.5088L62.9124 61.6457H65.5802V72.334H62.8272V67.0921H62.742L61.3953 69.6491C61.3019 69.8092 61.1691 69.9427 61.0094 70.0367C60.8497 70.1307 60.6685 70.1821 60.4833 70.1861C60.2995 70.1754 60.121 70.1211 59.9624 70.0278C59.8038 69.9344 59.6698 69.8046 59.5713 69.6491L58.1138 67.2882H58.02V72.4022H55.3607" fill="#646565"/>
<path d="M70.8903 69.9815H75.5269V72.3425H67.9241V61.6457H75.5269V63.9896H70.8903V65.7966H74.7428V68.0894H70.8903V69.9815Z" fill="#646565"/>
<path d="M81.033 66.1801H85.4055V67.1603C85.4349 68.0583 85.3403 68.956 85.1242 69.8281C84.886 70.6632 84.3647 71.3894 83.6497 71.8823C82.8949 72.3869 82 72.6404 81.0927 72.6067C80.1903 72.6388 79.2993 72.3982 78.5357 71.9163C77.8297 71.4501 77.3106 70.75 77.0697 69.9389C76.8352 68.9771 76.732 67.9879 76.7628 66.9984C76.7328 66.0004 76.836 65.0029 77.0697 64.0323C77.3141 63.2275 77.8329 62.5339 78.5357 62.0719C79.2995 61.5905 80.1904 61.3499 81.0927 61.3815C81.9276 61.3556 82.7526 61.5685 83.4707 61.9952C84.1286 62.3926 84.6422 62.9899 84.9367 63.6999C85.1174 64.1187 85.2241 64.5657 85.2521 65.021H82.5672L82.465 64.68C82.3743 64.4422 82.213 64.238 82.0027 64.0947C81.7924 63.9514 81.5432 63.8761 81.2887 63.8788C80.4875 63.8788 79.9932 64.1175 79.7801 64.8335C79.6425 65.5435 79.591 66.2675 79.6267 66.9899C79.5933 67.7122 79.6448 68.4359 79.7801 69.1463C79.8733 69.4488 80.0688 69.7096 80.3332 69.8837C80.5976 70.0579 80.9143 70.1347 81.2291 70.1009C81.9962 70.1009 82.465 69.8196 82.6354 69.2485C82.6959 68.9684 82.7274 68.6828 82.7292 68.3962V68.3195H81.0245L81.033 66.1801Z" fill="#646565"/>
<path d="M92.0537 61.552L96 72.334H93.1617L92.5736 70.7998H89.3774L88.7722 72.334H85.9169L89.8291 61.552H92.0537ZM90.9116 65.5835L90.0592 68.2343H91.9173L90.9627 65.5835H90.9116Z" fill="#646565"/>
<path d="M45.0987 61.731H46.4539V67.7058L51.4656 61.731H53.1447L49.6672 66.0949L53.4771 72.5045H51.8832L48.5762 67.1177L46.4027 69.7088V72.5045H45.0987V61.731Z" fill="#646565"/>
<path d="M41.391 61.731H42.7206V72.5045H41.391L35.6974 64.0408V72.5045H34.4104V61.731H35.74L41.3995 70.2458L41.391 61.731Z" fill="#646565"/>
<path d="M29.3731 61.731H28.248L24.2165 72.5044H25.5717L26.424 70.1946H31.1715L31.9642 72.5044H33.3706L29.3731 61.731ZM26.7394 68.9928L28.8361 63.2992L30.8476 68.9928H26.7394Z" fill="#646565"/>
<path d="M20.0486 61.7309C20.9426 61.6639 21.8288 61.938 22.5289 62.498C22.8108 62.7623 23.0327 63.0839 23.1798 63.4412C23.3268 63.7984 23.3955 64.1831 23.3812 64.5692C23.4075 65.1053 23.2643 65.6361 22.9721 66.0864C22.7139 66.4707 22.3455 66.7678 21.9152 66.9387C22.3566 67.0841 22.7431 67.3606 23.0232 67.7314C23.1944 67.9532 23.3296 68.2005 23.4238 68.4644C23.5259 68.7782 23.5777 69.1061 23.5772 69.436C23.6055 69.8648 23.5367 70.2944 23.3758 70.6929C23.215 71.0914 22.9662 71.4484 22.6482 71.7373C21.8828 72.2986 20.9446 72.5731 19.9974 72.513H16V61.7309H20.0486ZM21.4294 65.9244C21.5938 65.7731 21.7237 65.5883 21.8105 65.3824C21.8972 65.1766 21.9388 64.9545 21.9322 64.7312C21.941 64.5013 21.9007 64.2721 21.814 64.059C21.7273 63.8459 21.5962 63.6537 21.4294 63.4953C21.0356 63.1628 20.5289 62.9949 20.0145 63.0265H17.4575V66.4358H20.0145C20.5346 66.4557 21.0421 66.2723 21.4294 65.9244ZM20.0912 71.2259C20.6353 71.2644 21.1731 71.0903 21.5913 70.7401C21.9167 70.3939 22.0979 69.9367 22.0979 69.4616C22.0979 68.9865 21.9167 68.5293 21.5913 68.1831C21.1731 67.833 20.6353 67.6588 20.0912 67.6973H17.4404V71.2515L20.0912 71.2259Z" fill="#646565"/>
<path d="M29.714 85.4343C29.1093 85.4321 28.5096 85.3254 27.9412 85.119C27.4496 84.9555 26.999 84.6881 26.6201 84.3348C26.6105 84.3253 26.603 84.314 26.5978 84.3016C26.5927 84.2892 26.59 84.2758 26.59 84.2624C26.59 84.2489 26.5927 84.2356 26.5978 84.2231C26.603 84.2107 26.6105 84.1994 26.6201 84.1899L27.6344 82.9967C27.6439 82.9871 27.6551 82.9796 27.6676 82.9744C27.68 82.9692 27.6933 82.9666 27.7068 82.9666C27.7203 82.9666 27.7336 82.9692 27.746 82.9744C27.7585 82.9796 27.7698 82.9871 27.7793 82.9967C28.309 83.4907 29.0067 83.7649 29.7311 83.7638C30.0079 83.7798 30.2834 83.7146 30.5238 83.5762C30.6152 83.5225 30.6905 83.445 30.7415 83.352C30.7925 83.2589 30.8174 83.1538 30.8136 83.0478C30.8176 82.9635 30.7992 82.8797 30.7603 82.8048C30.7213 82.7299 30.6633 82.6667 30.592 82.6216C30.3614 82.4931 30.1052 82.4174 29.8419 82.4L29.4413 82.3489C27.7366 82.1017 26.8843 81.3005 26.8843 79.9368C26.8771 79.6126 26.9431 79.291 27.0774 78.9958C27.2117 78.7007 27.4108 78.4397 27.6599 78.2321C28.2405 77.7439 28.9816 77.4888 29.7396 77.5162C30.7121 77.4958 31.6643 77.7952 32.45 78.3685C32.4698 78.3891 32.4809 78.4166 32.4809 78.4452C32.4809 78.4738 32.4698 78.5013 32.45 78.5219L31.5977 79.7493C31.5834 79.7734 31.5605 79.7912 31.5336 79.7991C31.5068 79.807 31.4779 79.8044 31.4528 79.7919C30.9543 79.4356 30.3606 79.2367 29.7481 79.2208C29.5286 79.2053 29.31 79.2622 29.1259 79.3828C29.0534 79.4387 28.9954 79.5113 28.9569 79.5944C28.9183 79.6774 28.9003 79.7686 28.9043 79.8601C28.9043 80.2095 29.2367 80.4226 29.8845 80.4993L30.2936 80.559C30.9978 80.6127 31.6679 80.8837 32.2114 81.3346C32.4327 81.5562 32.6024 81.8238 32.7084 82.1185C32.8145 82.4131 32.8543 82.7275 32.8251 83.0393C32.8324 83.3822 32.7591 83.722 32.611 84.0315C32.463 84.3409 32.2444 84.6112 31.9727 84.8206C31.3116 85.2762 30.5148 85.4927 29.714 85.4343Z" fill="#94278F"/>
<path d="M39.5585 85.298H37.5641V82.3233L35.2372 77.7463C35.2372 77.6611 35.2372 77.6184 35.3309 77.6184H37.1038C37.1411 77.618 37.1777 77.6282 37.2094 77.6478C37.2411 77.6674 37.2666 77.6957 37.2828 77.7292L38.5698 80.3544L39.8313 77.7292C39.8456 77.6942 39.8706 77.6647 39.9027 77.6448C39.9349 77.6248 39.9725 77.6156 40.0102 77.6184H41.7149C41.8172 77.6184 41.8428 77.6184 41.8087 77.7463L39.4818 82.3233L39.5585 85.298Z" fill="#94278F"/>
<path d="M43.8372 85.1872L46.4965 77.7292C46.5027 77.6961 46.5209 77.6665 46.5477 77.6461C46.5744 77.6256 46.6078 77.6158 46.6414 77.6184H48.4824C48.5146 77.6179 48.5459 77.6287 48.5708 77.649C48.5958 77.6692 48.6128 77.6977 48.6188 77.7292L51.2014 85.1872C51.2014 85.2554 51.2014 85.298 51.1247 85.298H49.2836C49.2508 85.2974 49.219 85.2864 49.1929 85.2664C49.1668 85.2465 49.1478 85.2187 49.1387 85.1872L48.7807 84.0024H46.2749L45.9169 85.1872C45.9091 85.2194 45.8904 85.2481 45.8641 85.2682C45.8377 85.2884 45.8052 85.2989 45.772 85.298H43.9224C43.8457 85.298 43.8202 85.2554 43.8372 85.1872ZM47.5278 79.9538L46.7863 82.3489H48.2779L47.5619 79.9538H47.5278Z" fill="#94278F"/>
<path d="M60.4151 85.298H58.4547C58.4199 85.2973 58.386 85.2864 58.3572 85.2667C58.3284 85.2471 58.306 85.2194 58.2928 85.1872L57.1677 82.562H56.3154V85.298H54.338V77.627H57.5768C58.3176 77.5804 59.0468 77.8286 59.6054 78.3174C59.8463 78.5408 60.0371 78.8128 60.1649 79.1155C60.2928 79.4182 60.3548 79.7447 60.3469 80.0732C60.3515 80.524 60.2368 80.968 60.0145 81.3602C59.7908 81.7289 59.4652 82.0249 59.0769 82.2125L60.4918 85.1872C60.5 85.2014 60.5044 85.2176 60.5044 85.234C60.5044 85.2505 60.5 85.2667 60.4918 85.2809C60.4808 85.2887 60.4683 85.2942 60.4551 85.2971C60.442 85.3 60.4284 85.3003 60.4151 85.298ZM57.4575 80.9255C57.5761 80.934 57.6953 80.9188 57.8079 80.8808C57.9206 80.8427 58.0246 80.7826 58.1138 80.7039C58.2674 80.545 58.3533 80.3326 58.3533 80.1115C58.3533 79.8905 58.2674 79.6781 58.1138 79.5192C57.9305 79.3665 57.6955 79.2902 57.4575 79.3061H56.3154V80.9255H57.4575Z" fill="#94278F"/>
<path d="M63.8756 85.298V77.627H65.8615V85.298H63.8756Z" fill="#94278F"/>
<path d="M68.8873 85.1872L71.538 77.7293C71.5461 77.6955 71.566 77.6657 71.5942 77.6454C71.6223 77.625 71.6569 77.6155 71.6915 77.6185H73.5325C73.5653 77.619 73.5971 77.63 73.6232 77.65C73.6493 77.6699 73.6683 77.6977 73.6774 77.7293L76.2344 85.1872C76.2344 85.2554 76.2344 85.298 76.1577 85.298H74.2144C74.1822 85.2985 74.1509 85.2877 74.126 85.2675C74.101 85.2472 74.084 85.2188 74.078 85.1872L73.7115 84.2752H71.4954L71.1033 85.1872C71.0973 85.2188 71.0803 85.2472 71.0554 85.2675C71.0304 85.2877 70.9991 85.2985 70.967 85.298H68.9725C68.8958 85.298 68.8702 85.2554 68.8873 85.1872ZM72.5779 80.6613L72.1176 82.366H73.0467L72.612 80.6613H72.5779Z" fill="#94278F"/>
<path d="M79.2261 85.298V77.627H81.2205V80.5334H83.4451V77.6184H85.4311V85.2894H83.4451V82.2807H81.2205V85.298H79.2261Z" fill="#94278F"/>
</g>
</g>
<rect x="1" y="1" width="110" height="110" rx="9" stroke="#CCCCCC" stroke-width="2"/>
<defs>
<clipPath id="clip0_421_558">
<rect x="2" y="2" width="108" height="108" rx="8" fill="white"/>
</clipPath>
<clipPath id="clip1_421_558">
<rect width="80" height="58.4437" fill="white" transform="translate(16 27)"/>
</clipPath>
</defs>
</svg>
