<svg width="112" height="112" viewBox="0 0 112 112" fill="none" xmlns="http://www.w3.org/2000/svg">
<g clip-path="url(#clip0_528_46)">
<rect x="2" y="2" width="108" height="108" rx="8" fill="white"/>
<path d="M28.0389 44.1594C27.3782 45.8419 26.6729 47.5305 25.9462 49.2307L24.963 51.4845L23.9683 49.2307C23.2183 47.5305 22.4994 45.8419 21.8252 44.1594H16.3225V44.6004C16.9326 44.6004 17.4339 45.1095 17.4339 45.7371C17.3445 46.8989 17.2474 48.0629 17.1289 49.2307L16.7636 52.7786C16.5887 54.4768 16.3904 56.1691 16.1594 57.8498H17.9177C18.0265 56.1691 18.1625 54.4768 18.3335 52.7786L18.8757 47.4294C19.6567 49.0557 20.4048 50.6918 21.1295 52.3317L21.3297 52.7786C22.0816 54.4768 22.7967 56.1691 23.4748 57.8498H24.0072C24.6716 56.1691 25.3751 54.4768 26.1056 52.7786L26.4223 52.0499C27.1315 50.41 27.8698 48.7741 28.6315 47.1497L29.2047 52.7786C29.3757 54.4768 29.5175 56.1691 29.6205 57.8498H33.6659C33.4327 56.1691 33.2325 54.4768 33.0616 52.7786L32.7002 49.2307C32.5311 47.5305 32.3854 45.8419 32.2864 44.1594H28.0389Z" fill="#183181"/>
<path d="M46.1845 56.4891C46.6255 55.6497 47.1017 54.8007 47.6067 53.9515L52.5206 45.7734V45.4276H41.7079V47.9437H42.1352C42.1352 47.3375 42.6016 46.842 43.1844 46.8051C43.5225 46.7935 43.8588 46.7877 44.191 46.7877H47.6806C47.2474 47.6095 46.7849 48.4392 46.2855 49.2689L41.3464 57.5053V57.8492H53.0083V56.3882C52.1884 56.4542 51.3568 56.4891 50.5291 56.4891H46.1845Z" fill="#183181"/>
<path d="M66.1744 57.8497C66.2094 57.8477 66.2444 57.8438 66.2774 57.8418C66.2133 57.0024 66.1744 56.1612 66.1744 55.314V52.2363H71.0028V55.314C71.0028 56.1612 70.9737 57.0102 70.9096 57.8497H74.6285C74.5605 57.0102 74.5294 56.1612 74.5294 55.314V47.9656C74.5294 47.1125 74.5605 46.2693 74.6285 45.426H69.8876V45.8186H69.9944C70.5229 45.8186 70.9485 46.2362 70.9854 46.7648C70.9969 47.1631 71.0028 47.5633 71.0028 47.9656V50.8743H66.1744V47.9656C66.1744 47.1125 66.2055 46.2693 66.2735 45.426H61.5345V45.8186H61.6375C62.164 45.8186 62.5915 46.2324 62.6284 46.759C62.6421 47.1611 62.6498 47.5613 62.6498 47.9656V56.5673C62.1621 56.6294 61.6607 56.6587 61.1537 56.6587C60.6076 56.6587 60.0695 56.6159 59.5449 56.5304C58.0565 56.2466 57.8194 54.8496 57.8194 53.9791V47.8937C57.8194 47.0678 57.8563 46.2459 57.9186 45.426H53.1795V45.8186H53.2805C53.809 45.8186 54.2326 46.2324 54.2695 46.757C54.2832 47.1611 54.291 47.5613 54.291 47.9656V53.3904C54.291 54.6107 54.6775 57.3075 57.9886 57.7971C59.0221 57.9391 60.0791 58.0206 61.1537 58.0206C62.8402 58.0206 64.5151 57.9604 66.1744 57.8497Z" fill="#183181"/>
<path d="M90.547 51.6392C90.547 55.8711 86.8884 58.02 83.284 58.02C79.6798 58.02 76.0288 55.8711 76.0288 51.6392C76.0288 47.4053 79.6798 45.2564 83.284 45.2564C86.8884 45.2564 90.547 47.4053 90.547 51.6392ZM87.0069 51.6392C87.003 49.3328 86.0392 46.6184 83.284 46.6184C80.5327 46.6184 79.5651 49.3328 79.5651 51.6392C79.5651 53.9436 80.5327 56.658 83.284 56.658C86.0392 56.658 87.003 53.9436 87.0069 51.6392Z" fill="#183181"/>
<path d="M39.6647 47.9657C39.6647 47.1128 39.6958 46.2695 39.7676 45.4262H34.9024V45.8673H35.0033C35.633 45.8673 36.1246 46.3763 36.1246 47.0097C36.1342 47.3245 36.1381 47.6433 36.1381 47.9657V55.3141C36.1381 56.1614 36.1051 57.0105 36.0488 57.8498H39.7676C39.6958 57.0105 39.6647 56.1614 39.6647 55.3141V47.9657Z" fill="#183181"/>
<path d="M22.9252 64.6729C32.722 62.4773 42.9033 61.3174 53.3567 61.3174C68.114 61.3174 82.3542 63.5304 95.7688 67.6457C95.8194 67.6613 95.8485 67.708 95.8388 67.7642C95.8272 67.8168 95.7708 67.8576 95.7184 67.8459C81.9327 65.5706 67.8127 64.2727 53.4286 64.022C43.1539 63.8413 33.0017 64.2046 22.9913 65.0712C22.8903 65.0809 22.8008 65.0169 22.7737 64.9178C22.7485 64.8089 22.8165 64.6981 22.9252 64.6729Z" fill="#ED1A3A"/>
</g>
<rect x="1" y="1" width="110" height="110" rx="9" stroke="#CCCCCC" stroke-width="2"/>
<defs>
<clipPath id="clip0_528_46">
<rect x="2" y="2" width="108" height="108" rx="8" fill="white"/>
</clipPath>
</defs>
</svg>
