<svg width="112" height="112" viewBox="0 0 112 112" fill="none" xmlns="http://www.w3.org/2000/svg">
<g clip-path="url(#clip0_302_1298)">
<rect x="2" y="2" width="108" height="108" rx="8" fill="white"/>
<path d="M71.4382 52.0445H72.6994V54.9651H72.7215C72.81 54.825 72.917 54.6996 73.0423 54.5889C73.1677 54.4783 73.3042 54.3861 73.4517 54.3124C73.6065 54.2312 73.7651 54.1722 73.9274 54.1354C74.097 54.0911 74.2629 54.069 74.4252 54.069C74.8751 54.069 75.266 54.1501 75.5979 54.3124C75.9371 54.4673 76.2174 54.6848 76.4386 54.9651C76.6599 55.238 76.8258 55.5588 76.9365 55.9275C77.0471 56.2963 77.1024 56.6909 77.1024 57.1113C77.1024 57.4948 77.0508 57.8672 76.9475 58.2286C76.8516 58.59 76.7005 58.9108 76.4939 59.1911C76.2948 59.464 76.0404 59.6852 75.7306 59.8549C75.4209 60.0171 75.0558 60.0982 74.6354 60.0982C74.4436 60.0982 74.2482 60.0835 74.0491 60.054C73.8573 60.0319 73.6729 59.9839 73.4959 59.9102C73.3189 59.8364 73.1567 59.7405 73.0092 59.6225C72.869 59.5045 72.751 59.3496 72.6551 59.1579H72.633V59.9434H71.4382V52.0445ZM75.8412 57.0891C75.8412 56.831 75.8081 56.5803 75.7417 56.3369C75.6753 56.0935 75.5757 55.8796 75.443 55.6952C75.3102 55.5035 75.1443 55.3523 74.9451 55.2417C74.746 55.1236 74.5174 55.0646 74.2593 55.0646C73.7282 55.0646 73.3263 55.249 73.0534 55.6178C72.7879 55.9865 72.6551 56.477 72.6551 57.0891C72.6551 57.3768 72.6883 57.646 72.7547 57.8967C72.8285 58.1401 72.9354 58.3503 73.0755 58.5273C73.2157 58.7043 73.3816 58.8444 73.5734 58.9477C73.7725 59.051 74.0011 59.1026 74.2593 59.1026C74.5469 59.1026 74.7903 59.0436 74.9894 58.9256C75.1885 58.8076 75.3508 58.6564 75.4762 58.472C75.6089 58.2802 75.7011 58.0664 75.7527 57.8304C75.8117 57.587 75.8412 57.3399 75.8412 57.0891Z" fill="#223C77"/>
<path d="M82.9583 58.6711C82.9583 58.826 82.9767 58.9366 83.0136 59.003C83.0578 59.0694 83.139 59.1026 83.257 59.1026C83.2938 59.1026 83.3381 59.1026 83.3897 59.1026C83.4413 59.1026 83.5003 59.0952 83.5667 59.0805V59.9544C83.5225 59.9692 83.4635 59.9839 83.3897 59.9987C83.3233 60.0208 83.2533 60.0392 83.1795 60.054C83.1058 60.0687 83.032 60.0798 82.9583 60.0872C82.8845 60.0945 82.8218 60.0982 82.7702 60.0982C82.5121 60.0982 82.2982 60.0466 82.1286 59.9434C81.9589 59.8401 81.8483 59.6594 81.7967 59.4013C81.5459 59.6447 81.2362 59.8217 80.8674 59.9323C80.506 60.0429 80.1557 60.0982 79.8164 60.0982C79.5583 60.0982 79.3112 60.0614 79.0752 59.9876C78.8392 59.9212 78.629 59.8217 78.4446 59.6889C78.2676 59.5488 78.1238 59.3755 78.0132 59.169C77.9099 58.9551 77.8583 58.708 77.8583 58.4277C77.8583 58.0737 77.921 57.7861 78.0464 57.5648C78.1791 57.3436 78.3488 57.1703 78.5553 57.0449C78.7691 56.9195 79.0052 56.831 79.2633 56.7794C79.5288 56.7204 79.7943 56.6761 80.0598 56.6466C80.2884 56.6024 80.506 56.5729 80.7125 56.5581C80.919 56.536 81.0997 56.5028 81.2546 56.4586C81.4168 56.4143 81.5422 56.3479 81.6307 56.2594C81.7266 56.1636 81.7745 56.0234 81.7745 55.839C81.7745 55.6768 81.734 55.544 81.6529 55.4408C81.5791 55.3375 81.4832 55.2601 81.3652 55.2085C81.2546 55.1495 81.1292 55.1126 80.9891 55.0978C80.849 55.0757 80.7162 55.0646 80.5908 55.0646C80.2368 55.0646 79.9455 55.1384 79.7169 55.2859C79.4882 55.4334 79.3592 55.662 79.3297 55.9718H78.0685C78.0906 55.603 78.1791 55.297 78.334 55.0536C78.4889 54.8102 78.6843 54.6148 78.9203 54.4673C79.1637 54.3197 79.4366 54.2165 79.739 54.1575C80.0414 54.0985 80.3511 54.069 80.6683 54.069C80.9485 54.069 81.2251 54.0985 81.498 54.1575C81.7709 54.2165 82.0142 54.3124 82.2281 54.4451C82.4494 54.5779 82.6264 54.7512 82.7591 54.9651C82.8919 55.1716 82.9583 55.426 82.9583 55.7284V58.6711ZM81.6971 57.0781C81.5054 57.2035 81.2693 57.2809 80.9891 57.3104C80.7088 57.3325 80.4286 57.3694 80.1483 57.421C80.0156 57.4432 79.8865 57.4763 79.7611 57.5206C79.6357 57.5575 79.5251 57.6128 79.4292 57.6865C79.3333 57.7529 79.2559 57.8451 79.1969 57.9631C79.1453 58.0737 79.1195 58.2102 79.1195 58.3724C79.1195 58.5126 79.16 58.6306 79.2412 58.7264C79.3223 58.8223 79.4182 58.8998 79.5288 58.9588C79.6468 59.0104 79.7722 59.0473 79.9049 59.0694C80.0451 59.0915 80.1704 59.1026 80.2811 59.1026C80.4212 59.1026 80.5724 59.0841 80.7346 59.0473C80.8969 59.0104 81.0481 58.9477 81.1882 58.8592C81.3357 58.7707 81.4574 58.6601 81.5533 58.5273C81.6492 58.3872 81.6971 58.2176 81.6971 58.0184V57.0781Z" fill="#223C77"/>
<path d="M84.3153 54.2239H85.5101V55.0646L85.5322 55.0868C85.7239 54.7696 85.9747 54.5226 86.2845 54.3456C86.5942 54.1612 86.9372 54.069 87.3133 54.069C87.9402 54.069 88.4343 54.2312 88.7957 54.5558C89.1571 54.8803 89.3378 55.367 89.3378 56.016V59.9434H88.0766V56.3479C88.0619 55.898 87.966 55.5735 87.789 55.3744C87.612 55.1679 87.3354 55.0646 86.9593 55.0646C86.7454 55.0646 86.5537 55.1052 86.384 55.1863C86.2144 55.2601 86.0706 55.367 85.9526 55.5072C85.8346 55.6399 85.7424 55.7985 85.676 55.9829C85.6096 56.1672 85.5764 56.3627 85.5764 56.5692V59.9434H84.3153V54.2239Z" fill="#223C77"/>
<path d="M90.701 52.0445H91.9621V56.536L94.2411 54.2239H95.7899L93.5994 56.3258L96 59.9434H94.4623L92.7144 57.1666L91.9621 57.8967V59.9434H90.701V52.0445Z" fill="#223C77"/>
<path d="M61.6815 45.8269C61.2201 45.4857 60.8681 45.0427 60.4456 44.6851C59.4797 43.7837 57.9752 43.797 57.0437 44.7286L57.0022 44.7711C56.8831 44.8703 56.7674 44.9747 56.6498 45.0847L53.1712 48.5357L53.1522 48.6216C52.8842 49.9302 53.7421 50.8878 53.7421 50.8878L55.6793 52.8742L58.7769 55.9978L59.8348 54.9379L62.0995 52.6941L63.8122 51.0244L63.9247 50.9298C63.9646 50.8955 64.0234 50.8495 64.1027 50.7973C64.5672 50.4786 65.0343 50.3614 65.4195 50.3302C65.7223 50.3046 65.9735 50.3353 66.1295 50.3665C66.2001 50.3798 66.2508 50.3936 66.2784 50.4018L66.2938 50.4064L66.3035 50.4095L61.6815 45.8269Z" fill="#FFD200"/>
<path d="M69.7817 53.8539L66.2938 50.4065L66.2785 50.4019C66.2509 50.3937 66.1997 50.3793 66.1296 50.3666C65.9736 50.3353 65.7229 50.3041 65.4201 50.3302C65.0354 50.3614 64.5678 50.4786 64.1033 50.7973C64.024 50.8495 63.9652 50.8955 63.9253 50.9298L63.8128 51.0244L62.1 52.6942L59.8354 54.9379L58.778 55.9978L61.6652 58.8252L63.8496 61.0224L63.8532 61.0255L63.8552 61.0285C63.9401 61.1191 64.2123 61.4434 64.399 62.0588C64.5919 62.6988 64.4936 63.2728 64.4614 63.4283L64.4507 63.4728L64.4532 63.4702L64.8922 63.0272L67.7774 60.1139L70.1024 57.7883C70.4927 57.3975 70.7209 56.9059 70.7905 56.3984C70.8099 56.2766 70.8237 56.1477 70.8253 56.0091C70.8406 55.0714 70.3715 54.4718 69.7817 53.8539Z" fill="#223C77"/>
<path d="M64.3995 62.0588C64.2123 61.4434 63.9406 61.1191 63.8552 61.0285L63.8501 61.0224L61.6657 58.8252L58.7779 55.9973L55.9485 58.882L53.7493 61.0715C53.7493 61.0715 52.9451 61.8885 51.6222 61.7243C51.5444 61.714 51.4641 61.7028 51.3833 61.6849L55.8513 66.1882C56.4043 66.7412 57.1814 67.8446 58.537 67.9536C59.2747 68.0641 60.0522 67.8369 60.6185 67.2716L63.3283 64.5609L64.4348 63.4907V63.4892L64.4517 63.4718L64.4624 63.4273C64.4941 63.2717 64.5929 62.6978 64.4 62.0578" fill="#EE3524"/>
<path d="M63.8547 61.0285L63.8532 61.0249L63.8501 61.0229L63.8552 61.0285H63.8547Z" fill="#EA4125"/>
<path d="M55.6799 52.8742L53.7421 50.8878C53.7421 50.8878 52.8847 49.9307 53.1523 48.6216L53.1712 48.5356L48.5855 53.0691C48.0095 53.6451 46.8345 54.4631 46.8099 55.9293C46.7951 56.8721 47.2606 57.4798 47.8438 58.1019L51.3066 61.6081H51.3055L51.3818 61.6843V61.6859C51.4636 61.7038 51.5439 61.715 51.6212 61.7242C52.9446 61.889 53.7488 61.072 53.7488 61.072L55.948 58.8825L58.7774 55.9978L55.6799 52.8747V52.8742Z" fill="#3F9244"/>
<path d="M52.3296 55.9973C52.3296 52.4665 55.2169 49.6043 58.7773 49.6043C62.3378 49.6043 65.2261 52.4665 65.2261 55.9973C65.2261 59.5281 62.3399 62.3893 58.7773 62.3893C55.2148 62.3893 52.3296 59.5281 52.3296 55.9973ZM52.7808 55.9973C52.7808 57.641 53.4514 59.1245 54.538 60.1993C55.6256 61.2751 57.1209 61.9406 58.7773 61.9406C60.4338 61.9406 61.9326 61.2746 63.0182 60.1993C64.1042 59.1245 64.7749 57.641 64.7749 55.9973C64.7749 54.3537 64.1042 52.8701 63.0182 51.7928C61.9326 50.717 60.4353 50.0519 58.7773 50.0519C57.1194 50.0519 55.6256 50.717 54.538 51.7928C53.4514 52.8706 52.7808 54.3537 52.7808 55.9973Z" fill="white"/>
<path d="M59.7416 55.9042C59.7416 56.4306 59.3155 56.8577 58.7881 56.8577C58.2607 56.8577 57.833 56.4306 57.833 55.9042C57.833 55.3778 58.2612 54.9491 58.7881 54.9491C59.315 54.9491 59.7416 55.3763 59.7416 55.9042Z" fill="white"/>
<path d="M35.795 52.0858V57.6128C35.795 57.6128 33.6694 54.3971 33.3512 53.8584C32.8044 53.1187 32.1322 52.0853 30.9832 52.0853H28.5999V59.9276H30.9832V54.4022C30.9832 54.4022 33.1093 57.6163 33.4275 58.1566C33.9733 58.8942 34.5867 59.9276 35.795 59.9276H38.1599V52.0858H35.795Z" fill="#223C77"/>
<path d="M23.3839 53.2865C22.8677 54.5004 21.95 57.0787 21.95 57.0787L20.8286 53.8123C20.8286 53.8123 20.2455 52.0858 18.3783 52.0858H16V59.9286H18.3783V54.4871C18.3783 54.4871 18.6632 54.5423 19.2131 56.098C19.7631 57.6516 20.5749 59.9455 20.5749 59.9455H22.1776C22.1776 59.9455 23.3292 59.8708 24.0003 58.044L24.8633 55.6898C24.8633 55.6898 25.2956 54.4073 25.6916 54.2528V59.9286H28.0468V52.0858H25.6916C25.6916 52.0858 23.9011 52.0735 23.3839 53.2859" fill="#223C77"/>
<path d="M46.8488 57.9136L46.8314 57.8957H43.1666C42.1296 57.8957 41.2886 57.0588 41.2886 56.0259C41.2886 54.9931 42.1296 54.1561 43.1666 54.1561H46.6866C46.9823 53.8282 47.3 53.5689 47.5215 53.3479L48.7968 52.0864H42.6683C40.4834 52.0864 38.7124 53.8497 38.7124 56.0264C38.7124 58.2031 40.4834 59.9665 42.6683 59.9665H48.8751L46.8483 57.9141L46.8488 57.9136Z" fill="#223C77"/>
<path d="M64.73 55.9973C64.73 59.2841 62.0648 61.9493 58.778 61.9493C55.4912 61.9493 52.8259 59.2841 52.8259 55.9973C52.8259 52.7105 55.4912 50.0458 58.778 50.0458C62.0648 50.0458 64.73 52.7105 64.73 55.9973Z" fill="url(#paint0_radial_302_1298)"/>
</g>
<rect x="1" y="1" width="110" height="110" rx="9" stroke="#CCCCCC" stroke-width="2"/>
<defs>
<radialGradient id="paint0_radial_302_1298" cx="0" cy="0" r="1" gradientUnits="userSpaceOnUse" gradientTransform="translate(58.7774 55.9973) scale(5.95203)">
<stop stop-color="white"/>
<stop offset="1" stop-color="white" stop-opacity="0"/>
</radialGradient>
<clipPath id="clip0_302_1298">
<rect x="2" y="2" width="108" height="108" rx="8" fill="white"/>
</clipPath>
</defs>
</svg>
