<svg width="112" height="112" viewBox="0 0 112 112" fill="none" xmlns="http://www.w3.org/2000/svg">
<g clip-path="url(#clip0_421_554)">
<rect x="2" y="2" width="108" height="108" rx="8" fill="white"/>
<path d="M54.1854 55.3568C54.2724 55.4003 54.3484 55.4546 54.4245 55.4981C54.4462 55.5089 54.468 55.5307 54.4897 55.5415C54.5332 55.5633 54.5658 55.5958 54.5984 55.6176L55.6633 56.2913V54.9113C55.6633 53.1617 54.2506 52.5858 52.5011 52.5858H51.9469V58.2256H54.1637C54.2072 58.2473 54.1528 55.3351 54.1854 55.3568Z" fill="#122448"/>
<path d="M54.1854 50.7709C54.2724 50.8144 54.3484 50.8687 54.4245 50.9122C54.4462 50.923 54.468 50.9448 54.4897 50.9556C54.5332 50.9882 54.5658 51.01 54.5984 51.0317L55.6633 51.7054V50.3254C55.6633 48.5759 54.2506 47.9999 52.5011 47.9999H51.9469V49.3474L54.0768 50.6948C54.1094 50.7274 54.1528 50.7492 54.1854 50.7709Z" fill="#122448"/>
<path d="M60.1186 61.0182C59.7709 61.1486 59.3797 61.2573 58.9559 61.3334C58.5321 61.4094 58.1192 61.442 57.728 61.442C56.9021 61.442 56.3479 61.2138 56.0762 60.7466C55.9024 60.4532 55.7937 60.0837 55.7285 59.6599L55.685 59.6925L55.6633 59.7034L52.4902 62.1484C52.6315 62.4635 52.8054 62.7569 53.0227 63.0177C53.4248 63.5067 53.9572 63.887 54.6201 64.1695C55.283 64.4412 56.1197 64.5825 57.1303 64.5825C57.9236 64.5825 58.5973 64.5173 59.1515 64.3869C59.1623 64.3869 59.1623 64.3869 59.1623 64.376C59.76 64.2347 60.1838 63.6914 60.1729 63.072L60.1186 61.0182Z" fill="#122448"/>
<path d="M84.6876 51.7599C85.3179 51.5751 86.1329 51.4121 87.1326 51.2491C88.1323 51.0861 89.1755 51.0101 90.2731 51.0101C91.3815 51.0101 92.316 51.1513 93.0441 51.4447C93.783 51.7381 94.3698 52.1402 94.8045 52.6727C95.2391 53.2051 95.5434 53.8354 95.7281 54.5634C95.9129 55.2915 95.9998 56.1065 95.9998 56.9975V64.3977H92.2834V57.4539C92.2834 56.2586 92.1204 55.411 91.8161 54.9112C91.501 54.4113 90.9142 54.1614 90.0449 54.1614C89.7732 54.1614 89.5015 54.1722 89.1973 54.194C88.893 54.2157 88.6322 54.2483 88.404 54.2809V64.3977H84.6985V51.7599H84.6876Z" fill="#122448"/>
<path d="M82.0796 57.8344C82.0796 58.8667 81.9275 59.8012 81.6341 60.6597C81.3298 61.5182 80.906 62.2462 80.3409 62.8547C79.7759 63.4633 79.1021 63.9305 78.3089 64.2565C77.5265 64.5825 76.6354 64.7564 75.6574 64.7564C74.6903 64.7564 73.821 64.5934 73.0277 64.2565C72.2344 63.9197 71.5607 63.4524 70.9956 62.8547C70.4306 62.2462 69.9959 61.5182 69.6808 60.6597C69.3656 59.8012 69.2135 58.8559 69.2135 57.8344C69.2135 56.8021 69.3765 55.8676 69.7025 55.02C70.0285 54.1724 70.474 53.4552 71.05 52.8575C71.6259 52.2599 72.2996 51.7926 73.0929 51.4666C73.8753 51.1297 74.7446 50.9667 75.6683 50.9667C76.6137 50.9667 77.483 51.1297 78.2763 51.4666C79.0695 51.7926 79.7433 52.2599 80.3083 52.8575C80.8734 53.4552 81.3081 54.1832 81.6232 55.02C81.9166 55.8676 82.0796 56.8021 82.0796 57.8344ZM78.2871 57.8344C78.2871 56.6934 78.0589 55.7915 77.6025 55.1286C77.1461 54.4766 76.4941 54.1506 75.6466 54.1506C74.799 54.1506 74.147 54.4766 73.6797 55.1286C73.2124 55.7806 72.9842 56.6825 72.9842 57.8344C72.9842 58.9754 73.2124 59.8882 73.6797 60.5619C74.147 61.2356 74.799 61.5725 75.6466 61.5725C76.4941 61.5725 77.1461 61.2356 77.6025 60.5619C78.0589 59.8882 78.2871 58.9754 78.2871 57.8344Z" fill="#122448"/>
<path d="M66.5838 64.4085H65.3776C63.9976 64.4085 62.8674 63.2893 62.8674 61.9092V51.3143H64.4214C65.6167 51.3143 66.5838 52.2815 66.5838 53.4768V64.4085Z" fill="#122448"/>
<path d="M49.4578 57.8344C49.4578 58.8667 49.3056 59.8012 49.0122 60.6597C48.708 61.5182 48.2842 62.2462 47.7191 62.8547C47.154 63.4633 46.4803 63.9305 45.6871 64.2565C44.9047 64.5825 44.0136 64.7564 43.0356 64.7564C42.0685 64.7564 41.1991 64.5934 40.4059 64.2565C39.6126 63.9197 38.9389 63.4524 38.3738 62.8547C37.8087 62.2462 37.3632 61.5182 37.0589 60.6597C36.7438 59.8012 36.5808 58.8559 36.5808 57.8344C36.5808 56.8021 36.7438 55.8676 37.0698 55.02C37.3958 54.1724 37.8413 53.4552 38.4173 52.8575C38.9932 52.2599 39.6669 51.7926 40.4602 51.4666C41.2535 51.1297 42.1119 50.9667 43.0356 50.9667C43.981 50.9667 44.8503 51.1297 45.6436 51.4666C46.4368 51.7926 47.1106 52.2599 47.6757 52.8575C48.2407 53.4552 48.6754 54.1832 48.9905 55.02C49.2948 55.8676 49.4578 56.8021 49.4578 57.8344ZM45.6653 57.8344C45.6653 56.6934 45.4371 55.7915 44.9807 55.1286C44.5243 54.4766 43.8723 54.1506 43.0247 54.1506C42.1771 54.1506 41.5251 54.4766 41.0579 55.1286C40.5906 55.7806 40.3624 56.6825 40.3624 57.8344C40.3624 58.9754 40.5906 59.8882 41.0579 60.5619C41.5251 61.2356 42.1771 61.5725 43.0247 61.5725C43.8723 61.5725 44.5243 61.2356 44.9807 60.5619C45.448 59.8882 45.6653 58.9754 45.6653 57.8344Z" fill="#122448"/>
<path d="M23.1827 57.4541C23.1827 56.2587 23.0306 55.4112 22.7263 54.9113C22.4221 54.4114 21.8896 54.1615 21.1507 54.1615C20.9225 54.1615 20.6834 54.1724 20.4335 54.205C20.1835 54.2267 19.9445 54.2593 19.7054 54.2919V64.3978H15.9999V51.76C16.315 51.6731 16.6845 51.5861 17.1083 51.4992C17.5321 51.4123 17.9776 51.3253 18.4557 51.2493C18.9339 51.1732 19.412 51.1189 19.9119 51.0754C20.4117 51.0319 20.9007 51.0102 21.3789 51.0102C22.3243 51.0102 23.0958 51.1297 23.6826 51.3688C24.2694 51.6079 24.7584 51.9013 25.1387 52.2272C25.6712 51.8469 26.2797 51.5427 26.9752 51.3253C27.6598 51.108 28.3009 50.9993 28.8768 50.9993C29.92 50.9993 30.7785 51.1406 31.4522 51.434C32.126 51.7274 32.6584 52.1403 33.0605 52.6619C33.4626 53.1944 33.7342 53.8246 33.8755 54.5527C34.0276 55.2808 34.1037 56.0957 34.1037 56.9977V64.3978H30.3982V57.4541C30.3982 56.2587 30.246 55.4112 29.9418 54.9113C29.6375 54.4114 29.105 54.1615 28.3552 54.1615C28.1596 54.1615 27.8771 54.2158 27.5185 54.3136C27.1599 54.4114 26.8665 54.5418 26.6383 54.6831C26.7578 55.0634 26.823 55.4655 26.8556 55.8893C26.8882 56.3131 26.91 56.7695 26.91 57.2476V64.3978H23.1936V57.4541H23.1827Z" fill="#122448"/>
<path d="M58.7277 53.7266L55.6524 51.7163L54.5984 51.0426C54.5658 51.01 54.5223 50.9883 54.4897 50.9665C54.468 50.9557 54.4462 50.9339 54.4245 50.9231C54.3484 50.8687 54.2724 50.8253 54.1963 50.7818H54.1854C54.142 50.7601 54.1094 50.7383 54.0768 50.7166L51.9469 49.3691V53.4658L52.4902 53.781C54.0007 54.672 54.055 56.8236 52.6098 57.8016L51.9578 58.2363V58.9317C51.9578 59.7793 52.0338 60.5508 52.1968 61.2463C52.2729 61.5723 52.3707 61.8766 52.5011 62.1591L55.6742 59.7141L55.6959 59.7032L55.7394 59.6706L55.8806 59.562L58.8255 57.4213C60.0751 56.4867 60.0317 54.5851 58.7277 53.7266Z" fill="#DCA32D"/>
</g>
<rect x="1" y="1" width="110" height="110" rx="9" stroke="#CCCCCC" stroke-width="2"/>
<defs>
<clipPath id="clip0_421_554">
<rect x="2" y="2" width="108" height="108" rx="8" fill="white"/>
</clipPath>
</defs>
</svg>
