<svg width="112" height="112" viewBox="0 0 112 112" fill="none" xmlns="http://www.w3.org/2000/svg">
<g clip-path="url(#clip0_421_562)">
<rect x="2" y="2" width="108" height="108" rx="8" fill="white"/>
<g clip-path="url(#clip1_421_562)">
<path d="M31.1663 55.4627C31.2008 55.48 31.2311 55.5015 31.2613 55.5188C31.2699 55.5231 31.2785 55.5318 31.2872 55.5361C31.3044 55.5447 31.3174 55.5576 31.3303 55.5663L31.7533 55.8339V55.2857C31.7533 54.5909 31.1922 54.3621 30.4973 54.3621H30.2772V56.6021H31.1577C31.1749 56.6107 31.1534 55.4541 31.1663 55.4627Z" fill="#122448"/>
<path d="M31.1663 53.6413C31.2008 53.6586 31.2311 53.6802 31.2613 53.6975C31.2699 53.7018 31.2785 53.7104 31.2872 53.7147C31.3044 53.7277 31.3174 53.7363 31.3303 53.7449L31.7533 54.0125V53.4644C31.7533 52.7695 31.1922 52.5408 30.4973 52.5408H30.2772V53.076L31.1232 53.6111C31.1361 53.6241 31.1534 53.6327 31.1663 53.6413Z" fill="#122448"/>
<path d="M33.5229 57.7113C33.3848 57.7631 33.2294 57.8063 33.0611 57.8365C32.8927 57.8667 32.7287 57.8796 32.5733 57.8796C32.2453 57.8796 32.0252 57.789 31.9173 57.6034C31.8483 57.4869 31.8051 57.3401 31.7792 57.1718L31.7619 57.1848L31.7533 57.1891L30.493 58.1602C30.5491 58.2853 30.6182 58.4019 30.7045 58.5055C30.8642 58.6997 31.0757 58.8507 31.339 58.9629C31.6022 59.0708 31.9346 59.127 32.336 59.127C32.651 59.127 32.9186 59.1011 33.1387 59.0493C33.1431 59.0493 33.1431 59.0493 33.1431 59.045C33.3804 58.9888 33.5488 58.773 33.5444 58.527L33.5229 57.7113Z" fill="#122448"/>
<path d="M43.2814 54.0341C43.5317 53.9607 43.8554 53.896 44.2525 53.8312C44.6495 53.7665 45.0639 53.7363 45.4998 53.7363C45.94 53.7363 46.3112 53.7924 46.6004 53.9089C46.8938 54.0254 47.1269 54.1851 47.2996 54.3966C47.4722 54.6081 47.593 54.8584 47.6664 55.1476C47.7398 55.4368 47.7743 55.7605 47.7743 56.1144V59.0536H46.2982V56.2956C46.2982 55.8209 46.2335 55.4842 46.1127 55.2857C45.9875 55.0872 45.7544 54.9879 45.4092 54.9879C45.3013 54.9879 45.1934 54.9922 45.0725 55.0008C44.9517 55.0095 44.8481 55.0224 44.7574 55.0354V59.0536H43.2857V54.0341H43.2814Z" fill="#122448"/>
<path d="M42.2455 56.4467C42.2455 56.8567 42.1851 57.2279 42.0685 57.5688C41.9477 57.9098 41.7794 58.199 41.5549 58.4407C41.3305 58.6824 41.0629 58.868 40.7479 58.9974C40.4371 59.1269 40.0832 59.196 39.6948 59.196C39.3106 59.196 38.9654 59.1312 38.6503 58.9974C38.3352 58.8636 38.0676 58.6781 37.8432 58.4407C37.6188 58.199 37.4461 57.9098 37.321 57.5688C37.1958 57.2279 37.1354 56.8524 37.1354 56.4467C37.1354 56.0367 37.2001 55.6655 37.3296 55.3289C37.4591 54.9922 37.636 54.7074 37.8648 54.47C38.0935 54.2326 38.3611 54.047 38.6762 53.9175C38.9869 53.7837 39.3322 53.719 39.6991 53.719C40.0746 53.719 40.4198 53.7837 40.7349 53.9175C41.05 54.047 41.3176 54.2326 41.542 54.47C41.7664 54.7074 41.9391 54.9965 42.0642 55.3289C42.1808 55.6655 42.2455 56.0367 42.2455 56.4467ZM40.7392 56.4467C40.7392 55.9935 40.6486 55.6353 40.4673 55.372C40.286 55.1131 40.0271 54.9836 39.6904 54.9836C39.3538 54.9836 39.0948 55.1131 38.9092 55.372C38.7237 55.631 38.633 55.9892 38.633 56.4467C38.633 56.8999 38.7237 57.2624 38.9092 57.53C39.0948 57.7976 39.3538 57.9314 39.6904 57.9314C40.0271 57.9314 40.286 57.7976 40.4673 57.53C40.6486 57.2624 40.7392 56.8999 40.7392 56.4467Z" fill="#122448"/>
<path d="M36.0909 59.0579H35.6119C35.0637 59.0579 34.6149 58.6133 34.6149 58.0652V53.8571H35.2321C35.7068 53.8571 36.0909 54.2412 36.0909 54.716V59.0579Z" fill="#122448"/>
<path d="M29.2889 56.4467C29.2889 56.8567 29.2285 57.2279 29.1119 57.5688C28.9911 57.9098 28.8228 58.199 28.5983 58.4407C28.3739 58.6824 28.1063 58.868 27.7912 58.9974C27.4805 59.1269 27.1266 59.196 26.7381 59.196C26.354 59.196 26.0087 59.1312 25.6937 58.9974C25.3786 58.8636 25.111 58.6781 24.8866 58.4407C24.6621 58.199 24.4852 57.9098 24.3643 57.5688C24.2392 57.2279 24.1744 56.8524 24.1744 56.4467C24.1744 56.0367 24.2392 55.6655 24.3687 55.3289C24.4981 54.9922 24.6751 54.7074 24.9038 54.47C25.1326 54.2326 25.4002 54.047 25.7152 53.9175C26.0303 53.7837 26.3713 53.719 26.7381 53.719C27.1136 53.719 27.4589 53.7837 27.774 53.9175C28.089 54.047 28.3566 54.2326 28.5811 54.47C28.8055 54.7074 28.9781 54.9965 29.1033 55.3289C29.2241 55.6655 29.2889 56.0367 29.2889 56.4467ZM27.7826 56.4467C27.7826 55.9935 27.692 55.6353 27.5107 55.372C27.3294 55.1131 27.0705 54.9836 26.7338 54.9836C26.3972 54.9836 26.1382 55.1131 25.9526 55.372C25.767 55.631 25.6764 55.9892 25.6764 56.4467C25.6764 56.8999 25.767 57.2624 25.9526 57.53C26.1382 57.7976 26.3972 57.9314 26.7338 57.9314C27.0705 57.9314 27.3294 57.7976 27.5107 57.53C27.6963 57.2624 27.7826 56.8999 27.7826 56.4467Z" fill="#122448"/>
<path d="M18.8529 56.2957C18.8529 55.8209 18.7924 55.4843 18.6716 55.2857C18.5507 55.0872 18.3393 54.9879 18.0458 54.9879C17.9551 54.9879 17.8602 54.9923 17.7609 55.0052C17.6616 55.0138 17.5667 55.0268 17.4717 55.0397V59.0536H16V54.0341C16.1252 53.9996 16.2719 53.9651 16.4402 53.9305C16.6086 53.896 16.7855 53.8615 16.9754 53.8313C17.1653 53.8011 17.3552 53.7795 17.5538 53.7622C17.7523 53.7449 17.9465 53.7363 18.1364 53.7363C18.5119 53.7363 18.8183 53.7838 19.0514 53.8787C19.2845 53.9737 19.4787 54.0902 19.6297 54.2197C19.8412 54.0686 20.0829 53.9478 20.3591 53.8615C20.631 53.7752 20.8857 53.732 21.1144 53.732C21.5288 53.732 21.8697 53.7881 22.1373 53.9046C22.4049 54.0212 22.6164 54.1852 22.7761 54.3923C22.9358 54.6038 23.0437 54.8541 23.0998 55.1433C23.1602 55.4325 23.1904 55.7562 23.1904 56.1144V59.0536H21.7187V56.2957C21.7187 55.8209 21.6582 55.4843 21.5374 55.2857C21.4166 55.0872 21.2051 54.9879 20.9073 54.9879C20.8296 54.9879 20.7174 55.0095 20.5749 55.0484C20.4325 55.0872 20.316 55.139 20.2253 55.1951C20.2728 55.3462 20.2987 55.5059 20.3117 55.6742C20.3246 55.8425 20.3332 56.0238 20.3332 56.2137V59.0536H18.8572V56.2957H18.8529Z" fill="#122448"/>
<path d="M32.9704 54.8153L31.749 54.0168L31.3303 53.7492C31.3174 53.7363 31.3001 53.7276 31.2872 53.719C31.2785 53.7147 31.2699 53.7061 31.2613 53.7017C31.2311 53.6802 31.2008 53.6629 31.1706 53.6456H31.1663C31.149 53.637 31.1361 53.6284 31.1232 53.6197L30.2772 53.0846V54.7117L30.493 54.8368C31.0929 55.1908 31.1145 56.0453 30.5405 56.4338L30.2815 56.6064V56.8826C30.2815 57.2193 30.3117 57.5257 30.3765 57.8019C30.4067 57.9314 30.4455 58.0522 30.4973 58.1645L31.7576 57.1934L31.7662 57.1891L31.7835 57.1761L31.8396 57.1329L33.0092 56.2827C33.5056 55.9115 33.4883 55.1562 32.9704 54.8153ZM58.0204 55.044L56.5961 53.637H56.5831C56.5745 53.637 56.5659 53.6327 56.5572 53.6327C56.5054 53.6241 56.4062 53.6068 56.2896 53.6197C56.1084 53.6327 55.94 53.6931 55.789 53.7967C55.7631 53.814 55.7415 53.8269 55.7242 53.8442C55.707 53.8571 55.694 53.8701 55.6811 53.883L55.4696 54.0902C55.9228 54.5649 56.2033 55.2037 56.2033 55.9115C56.2033 56.5978 55.94 57.2236 55.5041 57.694L55.694 57.8839L55.7242 57.9055V57.9185L55.7286 57.9228L55.7415 57.9357C55.7458 57.94 55.7501 57.9487 55.7545 57.953C55.7588 57.9573 55.7631 57.9659 55.7674 57.9702C55.7717 57.9789 55.776 57.9832 55.7847 57.9918C55.789 58.0005 55.7933 58.0048 55.7976 58.0134C55.8019 58.022 55.8106 58.0307 55.8149 58.0393C55.8192 58.0479 55.8235 58.0566 55.8278 58.0609C55.8321 58.0695 55.8408 58.0825 55.8451 58.0954L55.858 58.1213C55.8667 58.1343 55.871 58.1472 55.8753 58.1601L55.8883 58.186C55.8969 58.2033 55.9012 58.2206 55.9098 58.2378L55.9228 58.2637C55.9314 58.2896 55.94 58.3198 55.9487 58.3501C55.9573 58.3846 55.9659 58.4191 55.9746 58.4493C55.9789 58.4623 55.9789 58.4709 55.9789 58.4838C55.9832 58.5054 55.9875 58.527 55.9875 58.5443C55.9875 58.5572 55.9918 58.5702 55.9918 58.5831C55.9918 58.6004 55.9962 58.6176 55.9962 58.6349V58.7083L57.1874 57.5041L58.1498 56.5417C58.2923 56.3992 58.3829 56.218 58.4088 56.0194C58.4174 55.9633 58.4217 55.9158 58.4217 55.8684C58.4304 55.5058 58.2362 55.2728 58.0204 55.044ZM51.7535 53.9348C52.224 53.5162 52.8498 53.2615 53.5317 53.2615C54.2266 53.2615 54.8611 53.5248 55.3358 53.9564L55.5516 53.7449C55.5646 53.732 55.5732 53.7233 55.5861 53.7147C55.5905 53.7104 55.5991 53.7061 55.6034 53.6974C55.6163 53.6888 55.6293 53.6758 55.6422 53.6672C55.6552 53.6586 55.6681 53.6456 55.6854 53.637C55.7933 53.5636 55.9142 53.5075 56.0393 53.4687C56.1127 53.4471 56.1947 53.4342 56.2724 53.4255C56.3112 53.4212 56.3458 53.4212 56.3803 53.4212H56.3846L54.6711 51.725C54.5589 51.6387 54.4597 51.5438 54.3647 51.4488C54.2957 51.3797 54.2309 51.315 54.1575 51.2546C53.9806 51.0906 53.7562 50.9999 53.5188 50.9999C53.2728 50.9999 53.044 51.0949 52.8714 51.2675L52.8498 51.2891C52.8023 51.328 52.7592 51.3668 52.716 51.41L52.7074 51.4186L51.2917 52.8256V52.8299C51.1925 53.3263 51.5119 53.6888 51.5119 53.6931L51.7535 53.9348ZM55.8149 58.6522C55.8149 58.6392 55.8106 58.622 55.8106 58.6047C55.8106 58.5961 55.8106 58.5831 55.8063 58.5702C55.8063 58.5529 55.8019 58.5356 55.7976 58.5141C55.7976 58.5054 55.7933 58.4925 55.7933 58.4838C55.789 58.4536 55.7804 58.4277 55.7717 58.3975C55.7631 58.3673 55.7545 58.3414 55.7458 58.3155C55.7415 58.3069 55.7372 58.2983 55.7372 58.2896C55.7329 58.2724 55.7242 58.2551 55.7199 58.2422L55.707 58.2163C55.7027 58.2033 55.694 58.1904 55.6897 58.1817L55.6768 58.1558L55.6638 58.1299C55.6595 58.1213 55.6552 58.1127 55.6509 58.1084C55.6466 58.0997 55.6422 58.0954 55.6379 58.0868C55.6336 58.0781 55.6293 58.0738 55.625 58.0695C55.6207 58.0652 55.6163 58.0566 55.612 58.0522C55.6077 58.0479 55.6034 58.0436 55.6034 58.0393C55.5991 58.035 55.5948 58.0307 55.5948 58.0264L55.5861 58.0177L55.5775 58.0091L55.5646 57.9961L55.3833 57.8149C54.9042 58.268 54.2568 58.5486 53.5404 58.5486C52.8369 58.5486 52.1981 58.2767 51.719 57.8365L51.5248 58.0307C51.5205 58.035 51.4644 58.0911 51.3651 58.1515C51.3608 58.1558 51.3565 58.1558 51.3522 58.1601C51.3435 58.1645 51.3306 58.1731 51.3219 58.1774C51.3176 58.1817 51.3133 58.186 51.3047 58.186C51.2961 58.1904 51.2831 58.199 51.2702 58.2033C51.2615 58.2076 51.2572 58.2119 51.2486 58.2163C51.2356 58.2206 51.227 58.2249 51.214 58.2292L51.1882 58.2422C51.1752 58.2465 51.1666 58.2508 51.1536 58.2551C51.145 58.2594 51.132 58.2637 51.1234 58.268C51.1148 58.2724 51.1018 58.2767 51.0889 58.2767C51.0759 58.281 51.063 58.2853 51.0544 58.2896C51.0414 58.2939 51.0328 58.2939 51.0198 58.2983C51.0069 58.3026 50.9939 58.3069 50.9767 58.3069C50.9637 58.3112 50.9551 58.3112 50.9421 58.3112C50.9292 58.3155 50.9119 58.3155 50.8947 58.3198C50.8817 58.3198 50.8688 58.3242 50.8601 58.3242C50.8429 58.3242 50.8299 58.3285 50.8127 58.3285H50.722L52.3923 60.0117C52.4312 60.0505 52.47 60.0937 52.5132 60.1369C52.7246 60.3656 53.0095 60.6807 53.4454 60.7152C53.4972 60.7238 53.5447 60.7282 53.5878 60.7282C53.8295 60.7282 54.0626 60.6332 54.2352 60.4606L55.3574 59.3384L55.8019 58.9068V58.8939C55.8019 58.8895 55.8019 58.8852 55.8063 58.8766C55.8063 58.868 55.8106 58.8593 55.8106 58.855C55.8106 58.8464 55.8106 58.8421 55.8149 58.8334C55.8149 58.8248 55.8149 58.8162 55.8192 58.8032V58.7773V58.7428V58.7126V58.6738C55.8149 58.6738 55.8149 58.6651 55.8149 58.6522ZM51.5809 57.7113C51.1364 57.2408 50.8645 56.6064 50.8645 55.9072C50.8645 55.1908 51.1536 54.539 51.6198 54.0643L51.3824 53.8226C51.3824 53.8226 51.3781 53.8183 51.3781 53.814L51.3737 53.8096C51.3694 53.8053 51.3694 53.801 51.3651 53.7967C51.3651 53.7924 51.3608 53.7924 51.3608 53.7881C51.3565 53.7837 51.3522 53.7794 51.3478 53.7708C51.3435 53.7665 51.3435 53.7622 51.3392 53.7579C51.3349 53.7535 51.3306 53.7449 51.3263 53.7363C51.3219 53.732 51.3176 53.7276 51.3176 53.7233C51.3133 53.7147 51.3047 53.7061 51.3004 53.6974C51.2961 53.6931 51.2917 53.6888 51.2917 53.6802C51.2831 53.6672 51.2788 53.6586 51.2702 53.6456C51.2702 53.6413 51.2658 53.637 51.2658 53.6327C51.2572 53.6154 51.2486 53.5982 51.2356 53.5809C51.2313 53.5766 51.2313 53.5679 51.227 53.5636C51.2184 53.5507 51.214 53.5377 51.2054 53.5205C51.2011 53.5118 51.1968 53.5032 51.1968 53.4946C51.1925 53.4816 51.1838 53.4687 51.1795 53.4514C51.1752 53.4428 51.1709 53.4342 51.1709 53.4255C51.1666 53.4126 51.1623 53.3953 51.1579 53.3824C51.1536 53.3737 51.1493 53.3608 51.1493 53.3521C51.145 53.3349 51.1407 53.3219 51.1364 53.3047C51.132 53.296 51.132 53.2831 51.1277 53.2745L51.1148 53.2097C51.1148 53.2011 51.1105 53.1968 51.1105 53.1881C51.1061 53.1579 51.1018 53.132 51.1018 53.1018V53.0802V53.0198L49.3884 54.7117C49.3495 54.7505 49.3064 54.7894 49.2632 54.8325C49.0215 55.0526 48.6892 55.3591 48.6806 55.8338C48.6763 56.2007 48.8662 56.4381 49.0863 56.6711L50.5278 58.1299C50.5494 58.1343 50.571 58.1386 50.5925 58.1386C50.6357 58.1429 50.6832 58.1472 50.7263 58.1472C51.1407 58.1472 51.3953 57.8969 51.3953 57.8969L51.5809 57.7113Z" fill="#DCA32D"/>
<path d="M53.3117 55.5447C53.3678 55.5102 53.4369 55.4886 53.5146 55.4886C53.5879 55.4886 53.6527 55.5102 53.7131 55.5447L53.8728 55.385L54.7791 54.4873L55.1244 54.1506C54.6971 53.7665 54.1361 53.5334 53.5146 53.5334C52.9017 53.5334 52.3449 53.7622 51.922 54.1334L52.3406 54.5607L53.3117 55.5447ZM53.8383 55.6699C53.8728 55.726 53.8944 55.795 53.8944 55.8684C53.8944 55.9418 53.8728 56.0065 53.8383 56.0669L54.7273 56.9344L55.2884 57.4998C55.6725 57.0812 55.9099 56.5201 55.9099 55.9072C55.9099 55.2728 55.6596 54.6988 55.2539 54.2758L54.9043 54.6168L53.8383 55.6699ZM53.7131 56.1921C53.657 56.2266 53.5879 56.2482 53.5146 56.2482C53.4412 56.2482 53.3764 56.2266 53.316 56.1921L52.4442 57.0855L51.8831 57.6466C52.3104 58.0393 52.8844 58.281 53.5146 58.281C54.1576 58.281 54.736 58.0307 55.1676 57.625L54.6065 57.0596L53.7131 56.1921ZM53.1909 56.0669C53.1563 56.0065 53.1347 55.9418 53.1347 55.8684C53.1347 55.795 53.1563 55.7303 53.1909 55.6699L52.2111 54.6815L51.7925 54.2499C51.3738 54.6772 51.1149 55.2598 51.1149 55.9029C51.1149 56.5287 51.3566 57.0941 51.7536 57.5171L52.3147 56.956L53.1909 56.0669Z" fill="#DCA32D"/>
<path d="M65.8046 53.9734C66.4497 53.8035 67.0988 53.7372 67.7361 53.7357C68.4426 53.7357 68.9579 53.9916 69.2862 54.295C69.6145 54.5983 69.7808 55.043 69.7808 55.6331V58.9063C69.206 59.0603 68.3165 59.1859 67.456 59.1455C66.6615 59.0412 65.6488 59.0003 65.359 58.2097C65.2884 58.0102 65.251 57.7983 65.251 57.5697C65.251 57.3162 65.2925 57.0835 65.3757 56.8757C65.4588 56.6638 65.5876 56.4809 65.7538 56.3271C65.9201 56.1734 66.1362 56.0487 66.3897 55.9614C66.6473 55.8742 66.9507 55.8285 67.2998 55.8285H68.2615V55.6705C68.2615 55.5791 68.2532 55.4918 68.2324 55.4087C68.2116 55.3256 68.1742 55.2508 68.1119 55.1885C68.0495 55.1261 67.9664 55.0763 67.8542 55.0389C67.742 55.0015 67.7029 54.9807 67.52 54.9807C67.4245 54.9807 67.3122 54.9848 67.1876 54.9973C65.7309 55.2395 65.9426 54.4885 65.8046 53.9734ZM68.3188 56.8208H67.7095C67.6181 56.8208 67.5225 56.8291 67.4186 56.8416C67.3147 56.8541 67.2191 56.8832 67.1318 56.933C67.0446 56.9829 66.9739 57.0535 66.9116 57.145C66.8534 57.2364 66.8243 57.3038 66.8243 57.4617C66.8243 57.6902 66.8991 57.8482 67.0529 57.9396C67.2066 58.031 67.4103 58.0236 67.6721 58.0236C67.7095 58.0236 68.2565 58.0485 68.3188 58.0236V56.8208Z" fill="#142B4B"/>
<path d="M71.1321 54.0018C71.3839 53.9279 71.7096 53.8628 72.1091 53.7977C72.5086 53.7325 72.9254 53.7021 73.364 53.7021C73.8069 53.7021 74.1803 53.7586 74.4712 53.8758C74.7665 53.9931 75.001 54.1537 75.1747 54.3665C75.3484 54.5793 75.47 54.8311 75.5438 55.1221C75.6176 55.413 75.6523 55.7386 75.6523 56.0947V59.0518H74.1673V56.2771C74.1673 55.7994 74.1022 55.4607 73.9806 55.261C73.8547 55.0613 73.6202 54.9614 73.2728 54.9614C73.1642 54.9614 73.0557 54.9657 72.9341 54.9744C72.8125 54.9831 72.7083 54.9961 72.6171 55.0092V59.0518H71.1364V54.0018H71.1321Z" fill="#142B4B"/>
<path d="M84.2489 59.0818H83.7672C83.2162 59.0818 82.7649 58.6349 82.7649 58.0838V53.8531H83.3854C83.8627 53.8531 84.2489 54.2393 84.2489 54.7166V59.0818Z" fill="#142B4B"/>
<path d="M85.6105 54.0018C85.8623 53.9279 86.188 53.8628 86.5875 53.7977C86.987 53.7325 87.4038 53.7021 87.8424 53.7021C88.2853 53.7021 88.6587 53.7586 88.9496 53.8758C89.2449 53.9931 89.4794 54.1537 89.6531 54.3665C89.8268 54.5793 89.9483 54.8311 90.0222 55.1221C90.096 55.413 90.1307 55.7386 90.1307 56.0947V59.0518H88.6457V56.2771C88.6457 55.7994 88.5806 55.4607 88.459 55.261C88.333 55.0613 88.0986 54.9614 87.7512 54.9614C87.6426 54.9614 87.5341 54.9657 87.4125 54.9744C87.2909 54.9831 87.1867 54.9961 87.0955 55.0092V59.0518H85.6148V54.0018H85.6105Z" fill="#142B4B"/>
<path d="M76.9832 55.2069V51.3621H77.4755C77.8537 51.3621 78.0293 51.4236 78.2336 51.6279C78.4951 51.8894 78.4995 51.9241 78.5019 53.7669L78.5045 55.6401L78.9622 55.1525C79.214 54.8843 79.5787 54.4803 79.7725 54.2546L80.1251 53.8443C80.7131 53.8653 81.3012 53.8368 81.8892 53.8578L80.8332 55.0173L79.7772 56.1273L80.3329 56.7354C80.8784 57.3322 81.25 57.8375 81.7377 58.6456L81.9829 59.0517H81.1159H80.249L79.7614 58.3207C79.4933 57.9186 79.0997 57.4217 78.8867 57.2164L78.4994 56.8431V57.9474V59.0517H77.7413H76.9832V55.2069Z" fill="#142B4B"/>
<path d="M60.0614 59.0338L59.6543 58.9307V55.1464V51.3621H60.3423C61.1349 51.3621 61.1719 52.0744 61.1719 52.7594L61.1706 53.968L61.5111 53.8314C62.6371 53.5297 63.3587 53.8647 63.8877 54.3968C64.3426 54.8667 64.5283 55.5948 64.5438 56.3473C64.596 57.7849 63.9565 58.6004 62.935 59.045C62.4801 59.235 60.8303 59.2059 60.0614 59.0338ZM62.9224 56.8398C63.0089 56.0065 63.0228 55.2621 62.1649 55.0323C61.752 54.9647 61.6006 55.0239 61.1786 55.1629V57.7538C62.2422 58.143 62.8306 57.7231 62.9224 56.8398Z" fill="#142B4B"/>
<path d="M91.3757 60.4836L91.7611 59.3293C92.6853 59.6261 94.1387 60.2158 94.4342 58.8524C94.4342 58.8524 94.4671 58.6767 94.4552 58.565C92.3775 59.1217 91.2498 58.1231 91.2288 56.3116C91.2288 54.4304 92.19 53.7264 94.0394 53.7264C94.5587 53.7644 95.4873 53.8519 95.9999 53.9893V56.8336V59.181C96.0067 59.845 95.5279 60.2734 94.9499 60.5931C94.0519 61.1116 92.4972 61.1311 91.3757 60.4836ZM94.4636 57.3348C94.4636 56.8333 94.4755 56.8347 94.4755 56.1302V54.9361C93.1576 54.7903 92.81 55.5565 92.7505 56.0491C92.6916 56.4918 92.751 56.9358 93.0649 57.2244C93.3794 57.5052 93.884 57.6026 94.4636 57.3348Z" fill="#142B4B"/>
</g>
</g>
<rect x="1" y="1" width="110" height="110" rx="9" stroke="#CCCCCC" stroke-width="2"/>
<defs>
<clipPath id="clip0_421_562">
<rect x="2" y="2" width="108" height="108" rx="8" fill="white"/>
</clipPath>
<clipPath id="clip1_421_562">
<rect width="80" height="9.97631" fill="white" transform="translate(16 50.9999)"/>
</clipPath>
</defs>
</svg>
