<svg width="112" height="112" viewBox="0 0 112 112" fill="none" xmlns="http://www.w3.org/2000/svg">
<g clip-path="url(#clip0_6_7381)">
<rect x="2" y="2" width="108" height="108" rx="8" fill="white"/>
<path fill-rule="evenodd" clip-rule="evenodd" d="M29.2873 61.1355L30.4323 59.9906L31.595 61.1533L30.4501 62.2982L29.2873 61.1355ZM32.3837 61.1355L33.5286 59.9906L34.6926 61.1533L33.5477 62.2982L32.3837 61.1355ZM21.6126 52.8667L22.7754 51.7027L23.9572 52.8845L22.7944 54.0498L21.6126 52.8692V52.8667ZM28.3027 47.1116C26.3335 48.5313 25.4201 49.4701 25.0919 51.2371C24.5411 54.1986 25.7788 56.4528 25.9124 56.8815H23.5742C24.4253 57.4031 25.2598 58.6854 25.8055 58.7134C26.3805 58.7439 26.696 58.735 26.696 58.735C27.4466 60.2094 27.3512 62.0553 26.9963 62.9686C26.6032 63.9863 25.6529 65.1249 23.4585 64.4379C21.2959 63.7586 18.8432 62.0362 18.3942 59.5275C18.2212 58.5582 18.3942 57.2174 18.6753 56.6017C19.0926 55.7023 19.9156 54.7634 20.759 53.5867C19.1053 54.9212 16.8269 57.4031 16.1794 59.8316C15.4327 62.6582 17.047 64.6656 18.5392 65.9123C20.0314 67.159 22.6367 67.72 23.9164 67.3117C25.2356 66.8982 25.5575 66.3792 26.3042 65.5129C27.2214 64.4443 27.9173 63.3172 28.1144 62.4878C28.4706 60.9879 28.1628 58.7134 28.1628 58.7134C28.1628 58.7134 31.4958 58.8406 33.0503 58.7439C34.143 58.6752 36.3107 57.6143 36.4774 55.3868C36.6466 53.1351 34.2703 51.4661 32.3951 50.6532C33.5121 51.8592 33.7398 53.2343 33.3569 54.2508C32.9282 55.3957 31.857 56.2862 30.6243 56.6373C29.7149 56.8851 28.7652 56.9491 27.8308 56.8256C27.0675 55.6565 26.6413 50.3606 28.3027 47.1116ZM29.3039 46.7427C32.2298 47.2515 36.4112 49.5236 37.9212 52.7942C39.5648 56.3561 38.0243 60.0453 35.5627 62.5539C33.8097 64.3425 31.5301 64.99 30.2567 65.2661C29.3815 65.4518 28.8574 65.2203 28.374 65.378C27.2291 65.747 26.4543 67.1412 25.3934 68.0126C28.2786 68.1106 32.7602 68.4235 36.2662 65.9314C40.6385 62.8223 40.2314 56.7912 39.4923 54.2419C38.7532 51.6925 36.583 46.5124 31.4449 44C30.8342 45.1704 30.3343 45.9082 29.3039 46.7427Z" fill="#6FBD62"/>
<path fill-rule="evenodd" clip-rule="evenodd" d="M54.1218 53.7152H54.7731V53.1771C54.5327 53.2789 54.1091 53.2954 54.1091 52.9227V49.7424C54.1198 49.3555 54.0709 48.9694 53.9641 48.5975C53.8871 48.3389 53.7488 48.1027 53.5608 47.9092C53.1359 47.4971 52.6245 47.4576 52.0813 47.4309C51.4251 47.3975 50.7693 47.5028 50.1566 47.74L50.1477 48.357C50.8257 48.0721 51.9643 47.7973 52.6817 48.1026C52.8804 48.1783 53.0528 48.3101 53.1779 48.482C53.3031 48.6538 53.3755 48.8584 53.3865 49.0707C53.4056 49.3595 53.4069 49.6457 53.4069 49.9345C51.734 49.6024 49.5701 49.7729 49.5905 51.9393C49.5912 52.297 49.6969 52.6466 49.8946 52.9446C50.0922 53.2427 50.3731 53.4762 50.7023 53.616C51.6526 53.9976 52.9298 53.831 53.501 52.9138V53.0855C53.503 53.2518 53.57 53.4107 53.6877 53.5281C53.8054 53.6456 53.9644 53.7123 54.1307 53.7139L54.1218 53.7152ZM53.3522 51.7332C53.3331 52.3159 53.169 53.2865 51.7137 53.2865C51.525 53.2917 51.3373 53.2585 51.1619 53.1888C50.9865 53.1191 50.8272 53.0144 50.6936 52.881C50.56 52.7477 50.455 52.5886 50.385 52.4133C50.315 52.2381 50.2814 52.0504 50.2863 51.8617C50.2863 50.0082 52.2518 50.2576 53.3725 50.4624L53.3522 51.7332Z" fill="#420655"/>
<path fill-rule="evenodd" clip-rule="evenodd" d="M56.8148 47.5416H55.5287V48.0708H56.1813V53.7254H56.825V49.605C56.8148 48.6929 57.9699 47.9054 58.8706 47.9652C59.2191 47.9881 59.7114 48.1827 59.9417 48.488C60.1719 48.7934 60.2279 49.3111 60.2279 49.7067V53.7254H60.9352V49.6482C60.9352 48.2336 60.2584 47.4856 58.8044 47.4309C57.9635 47.4029 57.1379 47.7299 56.8148 48.4143V47.5416Z" fill="#420655"/>
<path fill-rule="evenodd" clip-rule="evenodd" d="M67.6482 53.172C66.8671 53.2152 67.0478 53.3615 65.3024 50.1723L67.2106 47.5505H66.4244L64.6791 49.9917H63.6232C63.6232 48.349 63.6232 46.7066 63.6232 45.0648H62.2607V45.8166H62.8968V53.7254H63.6283V50.5222L64.6943 50.5412C66.7297 53.976 66.3137 53.7216 67.6495 53.6707L67.6482 53.172Z" fill="#420655"/>
<path fill-rule="evenodd" clip-rule="evenodd" d="M42.4462 45.6639V46.2211H43.1815V53.7267H45.8529C46.5221 53.7267 47.1467 53.6134 47.6899 53.1326C48.1707 52.7064 48.3488 52.1047 48.3488 51.4305C48.3488 50.4662 47.8145 49.7258 46.863 49.4676C47.1936 49.3005 47.4692 49.0418 47.6568 48.7224C47.8445 48.403 47.9363 48.0364 47.9214 47.6663C47.9214 46.4234 46.9037 45.6652 45.7053 45.6652L42.4462 45.6639ZM43.946 49.2717V46.2262H45.6316C46.8274 46.2809 47.111 46.9221 47.111 47.7617C47.1199 48.703 46.6709 49.2742 45.7003 49.2742L43.946 49.2717ZM43.946 53.1262V49.8772H45.7066C46.9495 49.8772 47.5207 50.2589 47.5207 51.4292C47.5207 52.6619 46.7956 53.1262 45.8478 53.1262H43.946Z" fill="#420655"/>
<path fill-rule="evenodd" clip-rule="evenodd" d="M56.5209 65.1376C56.1737 65.6465 55.4295 65.8309 54.7705 65.8309C53.2757 65.8309 52.5875 64.9646 52.5875 63.5487V59.5963H53.8228V63.4928C53.8228 64.1352 53.9144 64.9519 55.0198 64.9519C55.6559 64.9519 56.2805 64.8247 56.4841 63.807V59.5963H57.6862V64.471C57.7028 64.9583 57.8198 65.0626 58.4228 64.8094V65.5104C58.1073 65.78 56.8415 66.0281 56.5209 65.1376Z" fill="#420655"/>
<path fill-rule="evenodd" clip-rule="evenodd" d="M83.1058 58.0162H82.3845V57.0723H84.3283V64.5499C84.3283 65.0091 84.6323 65.0854 85.1004 64.8145V65.5307C84.5458 65.9759 83.1122 65.9123 83.1058 64.8361V58.0162Z" fill="#420655"/>
<path fill-rule="evenodd" clip-rule="evenodd" d="M93.1035 60.5083H92.1379V59.6255H93.1035V58.0989L94.3311 57.66V59.628H95.7304V60.5109H94.3311V63.9965C94.3272 64.1457 94.3387 64.2949 94.3654 64.4417C94.5257 65.1707 95.5396 65.0027 96.0001 64.658V65.4989C95.0956 66.0319 93.3757 66.0611 93.1455 64.7127C93.1155 64.4594 93.1015 64.2045 93.1035 63.9494V60.5083Z" fill="#420655"/>
<path fill-rule="evenodd" clip-rule="evenodd" d="M64.1792 64.5473C64.1792 65.1147 64.688 64.9633 64.959 64.7661V65.5459C64.3077 65.9276 63.4744 65.9021 63.0063 65.2572C62.4466 66.0306 60.0282 66.1655 59.4723 64.7636C58.709 62.8236 60.0728 61.0566 63.005 61.9077C63.0394 59.5988 60.7673 60.3391 59.8158 60.8823L59.8438 59.9486C60.7813 59.2935 62.6425 59.3265 63.5737 60.0758C63.7953 60.2609 63.9646 60.5008 64.0647 60.7717C64.1983 61.1062 64.1792 61.4955 64.1792 61.853V64.546V64.5473ZM63.0063 63.784V62.7104C60.4315 62.0247 60.2229 63.6657 60.7228 64.5321C61.2469 65.4467 63.0241 64.9824 63.0063 63.7904V63.784Z" fill="#420655"/>
<path fill-rule="evenodd" clip-rule="evenodd" d="M67.0783 60.3188C67.348 59.8557 68.0744 59.4817 68.7321 59.4817C69.6226 59.4817 70.5652 59.7362 70.8832 60.4816C71.1059 59.7807 72.0701 59.3952 72.8525 59.4538C74.3129 59.5632 74.9133 60.3684 74.9133 61.7105V65.7215H73.6412V61.7665C73.659 59.7832 71.0969 60.3023 71.1046 61.6978V65.7215H69.9139V61.7665C69.9139 59.8456 67.4167 60.2399 67.3951 61.6062V65.7215H66.1331V60.5058H65.3584V59.5937L66.8468 59.5797L67.0783 60.3188Z" fill="#420655"/>
<path fill-rule="evenodd" clip-rule="evenodd" d="M49.7799 60.1038L47.4914 65.677H46.695L44.2538 60.0885V65.6948H43.1382V57.7695H44.4485L47.1199 63.9965L49.6655 57.7695H50.902V65.6948H49.7799V60.1038Z" fill="#420655"/>
<path fill-rule="evenodd" clip-rule="evenodd" d="M81.1722 64.5473C81.1722 65.1147 81.681 64.9633 81.9532 64.7661V65.5459C81.3019 65.9276 80.4674 65.9021 79.9993 65.2572C79.4395 66.0306 77.0212 66.1655 76.4666 64.7636C75.7033 62.8236 77.067 61.0566 79.9993 61.9077C80.0336 59.5988 77.7603 60.3391 76.8088 60.8823L76.838 59.9486C77.7756 59.2935 79.6367 59.3265 80.5679 60.0758C80.7888 60.2615 80.958 60.5013 81.0589 60.7717C81.1862 61.1062 81.1722 61.4955 81.1722 61.853V64.546V64.5473ZM79.9993 63.784V62.7104C77.4258 62.0247 77.2159 63.6657 77.7171 64.5321C78.2399 65.4467 80.0183 64.9824 79.9993 63.7904V63.784Z" fill="#420655"/>
<path fill-rule="evenodd" clip-rule="evenodd" d="M90.9179 64.5473C90.9179 65.1147 91.4267 64.9633 91.6989 64.7661V65.5459C91.0476 65.9276 90.2131 65.9021 89.745 65.2572C89.1852 66.0306 86.767 66.1655 86.2123 64.7636C85.449 62.8236 86.8128 61.0566 89.745 61.9077C89.7793 59.5988 87.506 60.3391 86.5545 60.8823L86.5838 59.9486C87.5213 59.2935 89.3824 59.3265 90.3136 60.0758C90.5345 60.2615 90.7037 60.5013 90.8046 60.7717C90.9319 61.1062 90.9179 61.4955 90.9179 61.853V64.546V64.5473ZM89.745 63.784V62.7104C87.1715 62.0247 86.9616 63.6657 87.4628 64.5321C87.9856 65.4467 89.7641 64.9824 89.745 63.7904V63.784Z" fill="#420655"/>
</g>
<rect x="1" y="1" width="110" height="110" rx="9" stroke="#CCCCCC" stroke-width="2"/>
<defs>
<clipPath id="clip0_6_7381">
<rect x="2" y="2" width="108" height="108" rx="8" fill="white"/>
</clipPath>
</defs>
</svg>
