<svg width="112" height="112" viewBox="0 0 112 112" fill="none" xmlns="http://www.w3.org/2000/svg">
<g clip-path="url(#clip0_642_1029)">
<rect x="2" y="2" width="108" height="108" rx="8" fill="white"/>
<g clip-path="url(#clip1_642_1029)">
<path fill-rule="evenodd" clip-rule="evenodd" d="M91.7775 49C94.109 49 96 50.891 96 53.2225C96 55.554 94.109 57.445 91.7775 57.445C89.446 57.445 87.555 55.554 87.555 53.2225C87.555 50.891 89.446 49 91.7775 49Z" fill="url(#paint0_linear_642_1029)"/>
<path fill-rule="evenodd" clip-rule="evenodd" d="M90.4105 49.6114C90.4029 49.9873 90.3421 50.3746 90.2244 50.7581C90.551 50.7581 90.8814 50.8075 91.2003 50.91C91.2725 50.9328 91.3446 50.9594 91.413 50.986C91.4851 51.0163 91.5573 51.0467 91.6256 51.0809C91.7167 50.6898 91.7471 50.2987 91.7205 49.9265C91.6484 49.8886 91.5762 49.8544 91.5003 49.824C91.4206 49.7898 91.3332 49.7595 91.2421 49.7329C90.9687 49.6493 90.6877 49.6114 90.4067 49.6152L90.4105 49.6114ZM87.6043 53.5377C87.6651 53.5719 87.7221 53.6099 87.779 53.6478C87.817 53.663 87.8588 53.6782 87.8967 53.6934C88.0068 53.7314 88.117 53.7617 88.2271 53.7807C88.0296 53.6706 87.8246 53.5871 87.6119 53.5263L87.6005 53.5339L87.6043 53.5377ZM88.3676 54.2516C88.5992 54.5857 88.7625 54.992 88.8346 55.4363H88.846C89.1498 55.5313 89.465 55.5692 89.7764 55.5578C89.5561 55.0414 89.2447 54.6009 88.8764 54.2554C88.7055 54.2706 88.5385 54.2706 88.3676 54.2554V54.2516ZM88.8726 55.911V55.9451C88.8726 56.0553 88.8688 56.1654 88.8574 56.2717C88.7473 56.1654 88.641 56.0515 88.5423 55.9338C88.5423 55.892 88.5423 55.8502 88.5423 55.8084C88.5043 55.7933 88.4625 55.7781 88.4245 55.7629L88.4056 55.7553C88.2195 55.5047 88.06 55.2351 87.9309 54.9503C88.0942 55.087 88.2727 55.2047 88.4739 55.2996C88.3828 54.9085 88.2081 54.563 87.9803 54.2858C87.9423 54.2402 87.9043 54.1984 87.8626 54.1567C87.8284 54.1453 87.7904 54.1339 87.7562 54.1225C87.7221 54.1111 87.6841 54.0959 87.6499 54.0807C87.6157 53.9098 87.5892 53.7314 87.5778 53.5529V53.5491V53.5453V53.5415C87.5778 53.4921 87.574 53.4466 87.5702 53.3972V53.3934V53.3896V53.3668V53.363V53.3592L88.922 50.1544C88.941 50.4392 88.9334 50.7354 88.8916 51.0353C89.1726 50.9252 89.465 50.8531 89.7612 50.8113C89.8941 50.4316 89.9624 50.0443 89.9776 49.6721C89.7384 49.7101 89.503 49.7709 89.2713 49.862C89.4916 49.6987 89.727 49.5544 89.9776 49.4367H89.9852H89.9928V49.4329H89.9966L90.0042 49.4291H90.0118V49.4253L90.0194 49.4215H90.027L90.0308 49.4177L90.0384 49.4139H90.046L90.0536 49.4063H90.0611H90.0687L90.0763 49.3987H90.0839H90.0915L90.0991 49.3911H90.1029H90.1105L90.1181 49.3835H90.1257L90.1333 49.3759H90.1371H90.1447L90.1523 49.3683H90.1599H90.1675L90.1751 49.3646H90.1827H90.1903L90.1978 49.3608H90.2054H90.2092L90.2168 49.357H90.2244V49.3532H90.2282L90.2358 49.3494H90.2434L90.2472 49.3456L90.2548 49.3418H90.2624L90.2662 49.338H90.2738H90.2814L90.289 49.3342H90.2966H90.3042L90.3118 49.3304H90.3194H90.327L90.3345 49.3266H90.3384H90.3459L90.3535 49.3228H90.3573H90.3649L90.3725 49.319H90.3763H90.3839L90.3991 49.3114H90.4067C90.4713 49.2886 90.5358 49.2696 90.6042 49.2506C90.8662 49.262 91.1244 49.3076 91.3788 49.3835C91.4699 49.4101 91.5573 49.4405 91.6446 49.4785C91.6142 49.3494 91.5762 49.2241 91.5307 49.0987V49.0912C91.6104 49.0874 91.694 49.0836 91.7813 49.0836C91.8534 49.0836 91.9294 49.0836 92.0015 49.0874C92.0661 49.2924 92.1155 49.5088 92.1458 49.7291C92.6433 50.0443 93.0192 50.4923 93.2508 51.0163C93.547 51.6885 93.604 52.4859 93.3647 53.2833L93.3458 53.3402C93.4976 53.9782 93.4749 54.6845 93.2546 55.387C93.2242 55.4819 93.1901 55.5768 93.1559 55.6717C92.9546 56.1806 92.6698 56.6362 92.3205 57.016C92.2977 57.183 92.2673 57.3425 92.2218 57.502C92.0775 57.5172 91.9294 57.5248 91.7813 57.5248H91.7623C91.5231 57.5248 91.2877 57.502 91.0598 57.464C91.3636 57.2932 91.6446 57.0729 91.8952 56.8185C91.937 56.3742 91.8952 55.9034 91.7623 55.4325C91.6332 55.5161 91.5041 55.5958 91.3674 55.6642C91.056 55.8236 90.7219 55.9414 90.3839 56.0135C90.5092 56.4616 90.5586 56.9096 90.5396 57.3387C90.3877 57.2932 90.2396 57.2362 90.0953 57.1755C90.0953 56.8185 90.046 56.4464 89.9358 56.0743C89.5827 56.1008 89.2258 56.0743 88.8764 55.9907L88.8726 55.911ZM88.7701 51.5442C88.7397 51.6505 88.7093 51.7568 88.6714 51.8631C88.6144 52.0264 88.5499 52.1821 88.4777 52.334C88.5764 52.3226 88.6752 52.3188 88.7739 52.3188C89.0777 52.034 89.3397 51.6809 89.5447 51.2784C89.2827 51.3353 89.0207 51.4264 88.7739 51.5442H88.7701ZM87.5588 53.3175L88.9106 50.1278C88.7511 50.2759 88.603 50.4354 88.4701 50.6024C88.4587 50.8113 88.4321 51.0239 88.3866 51.2366C88.2195 51.3277 88.06 51.4302 87.9043 51.5442C87.7904 51.81 87.7031 52.0872 87.6423 52.3758C87.8094 52.1973 87.9879 52.0378 88.1815 51.8973C88.1018 52.0948 88.0069 52.2846 87.9005 52.4593C87.8702 52.4707 87.8436 52.4783 87.8132 52.4897C87.7448 52.5163 87.6765 52.5466 87.6081 52.577C87.5892 52.7137 87.574 52.8504 87.5664 52.9871V52.9947V53.0023V53.0061V53.0137V53.0213V53.0251V53.0327V53.0403V53.0441V53.0517V53.0555V53.0593V53.0631V53.082V53.0858V53.0934V53.0972V53.101V53.139V53.1466V53.1542V53.1618V53.1694V53.177V53.1846V53.1922V53.1998V53.2073V53.2149V53.2187V53.2263V53.2339V53.2415V53.2453V53.2529V53.2643V53.2681V53.2719V53.2871L87.5588 53.3175ZM88.1891 53.2643C88.2765 53.2225 88.36 53.1732 88.4473 53.1238C88.6182 53.0213 88.7815 52.9036 88.9372 52.7707C89.3207 52.7972 89.7042 52.9188 90.0649 53.12C90.1295 53.158 90.1941 53.196 90.2586 53.2377C90.1713 53.3061 90.0763 53.3668 89.9852 53.4238C89.6814 53.6061 89.3549 53.7314 89.0207 53.7845C88.846 53.6364 88.66 53.5073 88.4663 53.401C88.3752 53.3516 88.284 53.3023 88.1929 53.2605L88.1891 53.2643ZM89.408 54.1605C89.6852 54.0845 89.9586 53.963 90.2168 53.8111C90.3573 53.7276 90.494 53.6288 90.6269 53.5225C91.0332 53.8833 91.3788 54.3579 91.6104 54.9199C91.4699 55.0224 91.318 55.1136 91.1661 55.1895C90.8738 55.3414 90.5624 55.4477 90.2434 55.5085C90.0422 54.992 89.7536 54.5364 89.4118 54.1605H89.408ZM90.0649 51.2062C89.8789 51.6467 89.6283 52.0416 89.3359 52.372C89.6586 52.4365 89.9776 52.558 90.2814 52.7289C90.3915 52.7897 90.5016 52.8618 90.6042 52.9339C90.9839 52.558 91.2953 52.072 91.5003 51.51C91.4206 51.4682 91.337 51.4302 91.2535 51.3999C91.1927 51.3771 91.132 51.3543 91.0712 51.3353C90.7447 51.2328 90.4029 51.191 90.0649 51.2062ZM92.0319 51.3087C92.4686 51.6049 92.8141 52.0036 93.0534 52.4669C93.0951 51.9884 93.0192 51.5252 92.8407 51.1189C92.6888 50.7771 92.4686 50.4771 92.18 50.2303C92.18 50.5835 92.1268 50.9442 92.0319 51.3087ZM92.3471 56.1806C92.5028 55.9489 92.6357 55.6983 92.7382 55.4325C92.7724 55.349 92.8028 55.2616 92.8293 55.1781C92.947 54.7984 93.004 54.4149 92.9964 54.0503C92.7686 54.4414 92.4724 54.7832 92.1382 55.0718C92.2597 55.4439 92.3281 55.816 92.3471 56.1844V56.1806ZM92.8787 53.2453C92.8445 53.12 92.8028 53.0023 92.7534 52.8846C92.5635 52.4365 92.2711 52.0492 91.8838 51.7568C91.6636 52.3302 91.3408 52.8238 90.9535 53.2225C91.3636 53.5947 91.7129 54.0693 91.9636 54.6275C92.3281 54.2896 92.6243 53.8719 92.8217 53.3972C92.8407 53.3478 92.8597 53.2985 92.8787 53.2491V53.2453Z" fill="url(#paint1_linear_642_1029)"/>
<path fill-rule="evenodd" clip-rule="evenodd" d="M89.5827 55.2806C89.4346 54.7604 89.1346 54.263 88.7093 53.8149C89.1498 53.7997 89.8827 53.606 90.2434 53.2339C89.9206 52.9149 89.2181 52.6681 88.5878 52.6567C88.9675 52.1783 89.4953 51.6543 89.5865 51.0277C89.1498 51.1454 88.6524 51.3353 88.2954 51.7112C88.4283 51.3467 88.5157 50.9594 88.5119 50.5265C88.4891 50.5531 88.4701 50.5797 88.4511 50.6024L87.8815 51.9808L87.7638 51.8707C87.6233 52.2922 87.5474 52.7441 87.5474 53.2149C87.5474 53.6098 87.6005 53.9896 87.7031 54.3541C87.9992 54.7642 88.2764 55.2806 88.546 55.835C88.527 55.4477 88.4777 55.0566 88.3182 54.6503C88.6865 54.9389 89.1688 55.1173 89.5865 55.2768L89.5827 55.2806Z" fill="#FF0000"/>
<path fill-rule="evenodd" clip-rule="evenodd" d="M17.1468 56.4654V55.8502H17.3442C17.4202 55.8502 17.4695 55.8502 17.4923 55.8578C17.5265 55.8654 17.5569 55.8882 17.5796 55.9186C17.6024 55.949 17.6138 55.9907 17.6138 56.0401C17.6138 56.0781 17.6062 56.1084 17.5948 56.135C17.5796 56.1616 17.5645 56.1806 17.5417 56.1958C17.5189 56.211 17.4999 56.2186 17.4771 56.2262C17.4467 56.2338 17.405 56.2338 17.348 56.2338H17.2683V56.4654H17.143H17.1468ZM17.2721 55.9528V56.1274H17.3404C17.3898 56.1274 17.4202 56.1274 17.4391 56.116C17.4543 56.1084 17.4695 56.1009 17.4771 56.0857C17.4847 56.0705 17.4923 56.0553 17.4923 56.0363C17.4923 56.0135 17.4847 55.9945 17.4733 55.9793C17.4619 55.9642 17.4429 55.9566 17.424 55.9528C17.4088 55.9528 17.3784 55.949 17.3366 55.949H17.2759L17.2721 55.9528ZM18.21 56.4654L17.9632 55.8502H17.8303L17.591 56.4654H17.7239L17.7733 56.3249H18.0201L18.0733 56.4654H18.21ZM17.8151 56.2224L17.8986 55.9945L17.986 56.2224H17.8151ZM18.2745 56.4654V55.8502H18.3961L18.6505 56.2641V55.8502H18.7644V56.4654H18.6391L18.3885 56.0591V56.4654H18.2745ZM18.8897 56.4654V55.8502H19.015V56.4654H18.8897ZM19.1327 56.4654V55.8502H19.2542L19.5086 56.2641V55.8502H19.6226V56.4654H19.4972L19.2466 56.0591V56.4654H19.1327ZM20.2795 56.2376V56.135H20.5453V56.3818C20.5187 56.4084 20.4807 56.4312 20.4314 56.4502C20.382 56.4692 20.3326 56.4806 20.2795 56.4806C20.2149 56.4806 20.158 56.4654 20.1124 56.4388C20.063 56.4122 20.0289 56.3743 20.0061 56.3211C19.9833 56.2717 19.9681 56.2148 19.9681 56.1578C19.9681 56.0933 19.9833 56.0363 20.0099 55.9869C20.0365 55.9376 20.0744 55.8996 20.1276 55.873C20.1656 55.854 20.2149 55.8426 20.2757 55.8426C20.3516 55.8426 20.4124 55.8578 20.4541 55.892C20.4959 55.9262 20.5263 55.9679 20.5377 56.0249L20.4124 56.0477C20.4048 56.0173 20.3858 55.9945 20.363 55.9755C20.3402 55.9566 20.3099 55.949 20.2719 55.949C20.2187 55.949 20.1732 55.9679 20.1428 56.0021C20.1124 56.0363 20.0934 56.0895 20.0934 56.154C20.0934 56.2262 20.1086 56.2831 20.1428 56.3173C20.177 56.3553 20.2187 56.3705 20.2719 56.3705C20.2985 56.3705 20.325 56.3667 20.3516 56.3553C20.3782 56.3439 20.401 56.3325 20.42 56.3173V56.2376H20.2795ZM20.663 55.8502H20.925C20.9896 55.8502 21.0389 55.854 21.0693 55.8654C21.0997 55.8768 21.1225 55.8958 21.1414 55.9262C21.1604 55.9528 21.168 55.9869 21.168 56.0249C21.168 56.0705 21.1528 56.1084 21.1263 56.1388C21.0997 56.1692 21.0579 56.1882 21.0047 56.1958C21.0313 56.211 21.0541 56.23 21.0693 56.2489C21.0883 56.2679 21.1111 56.3021 21.1414 56.3477L21.2174 56.4692H21.0693L20.982 56.3363C20.9516 56.2869 20.9288 56.2603 20.9174 56.2451C20.906 56.2338 20.8946 56.2262 20.8794 56.2186C20.8642 56.2148 20.8453 56.211 20.8149 56.211H20.7883V56.4692H20.663V55.8502ZM20.7883 56.1122H20.8794C20.9402 56.1122 20.9744 56.1122 20.9896 56.1046C21.0047 56.1009 21.0161 56.0895 21.0237 56.0781C21.0313 56.0667 21.0351 56.0515 21.0351 56.0325C21.0351 56.0135 21.0313 55.9945 21.0199 55.9831C21.0085 55.9717 20.9934 55.9642 20.9744 55.9604C20.963 55.9604 20.9326 55.9604 20.8832 55.9604H20.7845V56.116L20.7883 56.1122ZM21.2592 56.1616C21.2592 56.0971 21.2668 56.0477 21.2857 56.0021C21.3009 55.9717 21.3199 55.9414 21.3427 55.9186C21.3655 55.892 21.3921 55.8768 21.4224 55.8616C21.4604 55.8464 21.506 55.8388 21.5553 55.8388C21.6465 55.8388 21.7186 55.8654 21.7718 55.9224C21.8249 55.9793 21.8553 56.0553 21.8553 56.1578C21.8553 56.2603 21.8287 56.3363 21.7756 56.3932C21.7224 56.4502 21.6503 56.4768 21.5591 56.4768C21.468 56.4768 21.3959 56.4502 21.3389 56.3932C21.2819 56.3363 21.2592 56.2603 21.2592 56.1616ZM21.3883 56.1578C21.3883 56.2262 21.4035 56.2793 21.4376 56.3173C21.4718 56.3515 21.5098 56.3705 21.5591 56.3705C21.6085 56.3705 21.6503 56.3515 21.6807 56.3173C21.711 56.2831 21.73 56.2262 21.73 56.1578C21.73 56.0895 21.7148 56.0363 21.6845 55.9983C21.6541 55.9642 21.6123 55.9452 21.5591 55.9452C21.506 55.9452 21.468 55.9642 21.4338 55.9983C21.4035 56.0325 21.3883 56.0857 21.3883 56.1578ZM21.9541 55.8502H22.0794V56.1844C22.0794 56.2376 22.0794 56.2717 22.0832 56.2869C22.087 56.3135 22.1021 56.3325 22.1211 56.3477C22.1401 56.3629 22.1667 56.3705 22.2009 56.3705C22.235 56.3705 22.2616 56.3629 22.2806 56.3477C22.2996 56.3325 22.3072 56.3173 22.311 56.2945C22.311 56.2717 22.3148 56.2376 22.3148 56.1882V55.8464H22.4401V56.1692C22.4401 56.2413 22.4401 56.2945 22.4287 56.3249C22.4211 56.3553 22.4097 56.3818 22.3907 56.4008C22.3717 56.4236 22.349 56.4388 22.3186 56.4502C22.2882 56.4616 22.2502 56.4692 22.2009 56.4692C22.1439 56.4692 22.0983 56.4616 22.068 56.4502C22.0376 56.435 22.0148 56.4198 21.9958 56.397C21.9768 56.3743 21.9654 56.3515 21.9616 56.3287C21.9541 56.2945 21.9503 56.2413 21.9503 56.173V55.8426L21.9541 55.8502ZM22.573 56.4654V55.8502H22.7705C22.8464 55.8502 22.8958 55.8502 22.9185 55.8578C22.9527 55.8654 22.9831 55.8882 23.0059 55.9186C23.0287 55.949 23.0401 55.9907 23.0401 56.0401C23.0401 56.0781 23.0325 56.1084 23.0211 56.135C23.0059 56.1616 22.9907 56.1806 22.9679 56.1958C22.9451 56.211 22.9261 56.2186 22.9034 56.2262C22.873 56.2338 22.8312 56.2338 22.7743 56.2338H22.6945V56.4654H22.5692H22.573ZM22.6983 55.9528V56.1274H22.7667C22.816 56.1274 22.8464 56.1274 22.8654 56.116C22.8806 56.1084 22.8958 56.1009 22.9034 56.0857C22.911 56.0705 22.9185 56.0553 22.9185 56.0363C22.9185 56.0135 22.911 55.9945 22.8996 55.9793C22.8882 55.9642 22.8692 55.9566 22.8502 55.9528C22.835 55.9528 22.8046 55.949 22.7629 55.949H22.7021L22.6983 55.9528ZM16.4025 56.4654C16.4025 56.6742 16.5316 56.8983 16.7594 56.8983H23.2147C23.5489 56.8983 23.6894 56.773 23.6894 56.4654V49.7519C23.6894 49.5127 23.5033 49.357 23.2299 49.357H16.805C16.6379 49.357 16.4025 49.5392 16.4025 49.6683V56.4654ZM16 49.6304V56.4122C16 56.716 16.1177 57.0046 16.3683 57.1489C16.4329 57.1869 16.5582 57.2552 16.6531 57.2552H23.3324C23.7463 57.2552 24.0767 56.9362 24.0767 56.5755V49.6721C24.0767 49.5203 23.9666 49.3228 23.8489 49.2127C23.7501 49.1215 23.5375 49.0076 23.3476 49.0076H16.7139C16.5734 49.0076 16.3531 49.1253 16.2506 49.2203C16.1557 49.3076 16 49.4937 16 49.6304ZM20.2757 53.3023C20.2377 53.3137 20.2187 53.3327 20.1694 53.3441C19.9833 53.3972 19.8656 53.2985 19.8276 53.2871L19.9111 53.5301C20.044 54.039 19.8846 54.6085 19.52 54.9617C19.015 55.4439 18.2442 55.5427 17.648 55.144C17.5872 55.1022 17.5189 55.0566 17.4809 54.9997C18.2138 54.9997 18.1302 53.9364 17.4657 53.9554C17.2873 53.9592 17.0784 54.0845 17.0442 54.2288H17.0177C17.0177 54.1757 16.9987 54.1301 16.9949 54.0883C16.9797 53.9744 16.9949 53.7162 17.0139 53.6251C17.048 53.4504 17.1088 53.2795 17.1923 53.1504C17.2303 53.0859 17.2797 53.0137 17.329 52.9605C17.3594 52.9264 17.3746 52.9036 17.405 52.8732C17.5037 52.7669 17.7429 52.5998 17.8872 52.5428C18.0239 52.4897 18.2214 52.4213 18.4188 52.4213C18.8403 52.4213 19.0871 52.5125 19.3985 52.7441C19.5238 52.839 19.6074 52.9416 19.7061 53.0745C19.7061 52.9757 19.7175 52.9188 19.7706 52.8542L19.8162 52.8049C20.0554 52.577 20.4807 52.7935 20.4124 53.0896L20.4352 53.0707C20.4352 53.0707 20.4466 53.0555 20.4541 53.0479L20.7389 52.7783C21.1718 52.4707 21.7452 52.4175 22.2123 52.634C22.2958 52.672 22.349 52.7061 22.4211 52.7517C22.7515 52.9719 22.9603 53.2833 23.0552 53.6782C23.116 53.944 23.0742 54.0238 23.0742 54.2554C23.0211 54.2402 23.0249 54.206 22.9907 54.1643C22.8578 54.0048 22.5768 53.9364 22.3528 54.0769C22.2768 54.1263 22.2237 54.1681 22.1743 54.2516C21.9844 54.5782 22.1287 55.0414 22.6414 55.0414C22.5958 55.106 22.5274 55.1515 22.4591 55.1971L22.2578 55.3186C21.525 55.6604 20.7313 55.3984 20.3288 54.7338C20.2605 54.6199 20.2187 54.5288 20.1807 54.3921C20.12 54.1833 20.1124 54.0466 20.1314 53.8035C20.1542 53.5225 20.2605 53.3858 20.2795 53.3023H20.2757ZM18.6087 51.2138C18.6087 50.8949 18.734 50.5417 18.9277 50.2987C19.034 50.162 19.1935 50.0139 19.3454 49.9304C19.539 49.824 19.5162 49.8544 19.6529 49.7899C19.6226 49.919 19.4934 50.0405 19.6377 50.3177C19.6795 50.3974 19.7099 50.4316 19.7858 50.4848C20.0782 50.6822 20.4655 50.5683 20.5833 50.2721C20.6858 50.0177 20.5719 49.8886 20.5491 49.7899C20.6136 49.824 20.6972 49.8506 20.7655 49.8848C20.9592 49.9797 21.1225 50.124 21.2592 50.2873C21.8212 50.9784 21.6313 52.0226 20.8605 52.4859C20.4997 52.7023 20.082 52.7479 19.6719 52.634C19.4934 52.5846 19.3492 52.5011 19.2049 52.3948C19.1441 52.3492 18.9732 52.1935 18.9315 52.129C18.7416 51.8518 18.6125 51.5784 18.6125 51.2138H18.6087Z" fill="#2171B5"/>
<path fill-rule="evenodd" clip-rule="evenodd" d="M48.1815 50.7126C48.1815 51.0353 48.0714 51.305 47.8246 51.529C47.6043 51.7302 47.3575 51.8214 47.0879 51.8214C46.7993 51.8214 46.5449 51.7302 46.3285 51.5404C46.0854 51.3391 45.9639 51.0581 45.9639 50.724C45.9639 50.3898 46.0778 50.1012 46.3171 49.881C46.5373 49.6911 46.7955 49.6 47.0879 49.6C47.3651 49.6 47.6119 49.6987 47.8322 49.8886C48.0714 50.1088 48.1853 50.3822 48.1853 50.7126H48.1815Z" fill="#2171B5"/>
<path fill-rule="evenodd" clip-rule="evenodd" d="M39.5922 52.11H41.4984V52.9681C41.7756 52.615 42.068 52.3644 42.3642 52.2163C42.6527 52.0644 43.0135 51.9923 43.4312 51.9923C43.9894 51.9923 44.4336 52.1593 44.7564 52.4935C45.0792 52.82 45.2349 53.3289 45.2349 54.0238V57.3463H43.1844V54.4718C43.1844 54.1377 43.116 53.9136 42.9945 53.7694C42.8692 53.6365 42.6983 53.5681 42.4705 53.5681C42.2237 53.5681 42.0262 53.6592 41.8743 53.8453C41.7186 54.0276 41.6351 54.3541 41.6351 54.8402V57.3463H39.5922V52.11ZM48.8954 52.11H50.8016V52.9681C51.0826 52.615 51.3712 52.3644 51.6598 52.2163C51.9522 52.0644 52.3053 51.9923 52.723 51.9923C53.2926 51.9923 53.7369 52.1593 54.0596 52.4935C54.3748 52.82 54.5381 53.3289 54.5381 54.0238V57.3463H52.48V54.4718C52.48 54.1377 52.4192 53.9136 52.3015 53.7694C52.1724 53.6365 52.0015 53.5681 51.7737 53.5681C51.5269 53.5681 51.3218 53.6592 51.1661 53.8453C51.0142 54.0276 50.9383 54.3541 50.9383 54.8402V57.3463H48.8954V52.11ZM45.9601 57.3463H48.1815V52.11H45.9601V57.3463ZM32.7496 52.5011C32.7572 54.4415 31.2497 55.3072 29.6358 55.125V53.6668C30.2054 53.5985 30.6497 53.215 30.6649 52.3872C30.6801 51.8176 30.2396 51.3733 29.6358 51.3201V49.9645C29.7384 49.9569 29.8523 49.9569 29.97 49.9569C31.5686 49.9721 32.742 50.6898 32.7534 52.5011H32.7496ZM29.6358 55.125V53.6668C29.3131 53.701 28.9485 53.6402 28.5992 53.5073V51.5632C28.9561 51.3543 29.3245 51.2898 29.6358 51.3201V49.9645C29.2371 49.9911 28.9372 50.0822 28.5992 50.2227V49.9569H26.2943V57.3463H28.5992V54.8743C28.9372 55.0073 29.2903 55.0946 29.6358 55.125ZM35.943 51.9923C36.524 51.9923 36.9987 52.0264 37.3594 52.091C37.7353 52.1631 38.0391 52.3074 38.2859 52.5239C38.6619 52.8504 38.8821 53.4542 38.8821 53.9364V57.3463H36.9759V56.754C36.7367 56.9552 36.3607 57.1223 35.9468 57.221V56.2793C36.0759 56.2527 36.2051 56.211 36.3228 56.1426C36.5202 56.0439 36.6531 55.9186 36.7367 55.7743C36.8164 55.6262 36.8582 55.4325 36.8582 55.1971V54.8895C36.581 54.9921 36.2848 55.0642 35.981 55.1402C35.9734 55.1402 35.9582 55.1439 35.9468 55.1439V54.1567C36.0228 54.1415 36.0911 54.1225 36.1443 54.1073C36.3645 54.0466 36.6038 53.9668 36.8582 53.8643C36.8582 53.6137 36.8088 53.439 36.7063 53.3365C36.6038 53.2453 36.4177 53.196 36.1633 53.196C36.0873 53.196 36.019 53.196 35.9506 53.2074V51.9885L35.943 51.9923ZM35.0925 53.8301C35.1722 53.5947 35.2823 53.4466 35.4114 53.363C35.5405 53.2795 35.719 53.2301 35.9468 53.2112V51.9923H35.8975C35.514 51.9923 35.1646 52.0264 34.8343 52.0758C34.5115 52.1365 34.2533 52.2163 34.0672 52.3188C33.8166 52.4631 33.6077 52.6264 33.4748 52.8276C33.3381 53.0175 33.228 53.2871 33.1597 53.6213L35.1001 53.8301H35.0925ZM35.943 56.2793C35.8595 56.2945 35.7722 56.3021 35.6886 56.3021C35.4646 56.3021 35.3051 56.2527 35.195 56.1616C35.0849 56.0629 35.0241 55.9452 35.0241 55.7933C35.0241 55.6604 35.0849 55.5503 35.195 55.4439C35.3051 55.3528 35.5519 55.2503 35.943 55.1515V54.1643C35.6696 54.2288 35.2444 54.3124 34.652 54.4415C34.0216 54.5668 33.5888 54.7566 33.3495 55.0186C33.1103 55.2769 32.9926 55.6034 32.9926 56.0135C32.985 56.9552 33.9381 57.3501 34.9406 57.3501C35.2823 57.3501 35.6203 57.3084 35.943 57.2248V56.2793Z" fill="#FF0000"/>
<path fill-rule="evenodd" clip-rule="evenodd" d="M85.0564 50.7885C85.0564 51.0695 84.9615 51.3012 84.745 51.4948C84.5552 51.6695 84.3387 51.7454 84.1071 51.7454C83.8565 51.7454 83.6362 51.6657 83.4502 51.5024C83.2375 51.3277 83.135 51.0847 83.135 50.7961C83.135 50.5075 83.2337 50.2569 83.4426 50.0671C83.6324 49.9038 83.8565 49.824 84.1071 49.824C84.3463 49.824 84.5627 49.9076 84.7526 50.0747C84.9615 50.2645 85.0564 50.5037 85.0564 50.7847V50.7885Z" fill="#2171B5"/>
<path fill-rule="evenodd" clip-rule="evenodd" d="M83.135 52.0834H85.0564V57.221H83.135V52.0834ZM80.2339 54.8022C79.9567 54.9009 79.6719 54.9921 79.3719 55.068C78.9656 55.1781 78.7074 55.2882 78.6011 55.3946C78.4872 55.5047 78.434 55.63 78.434 55.7705C78.434 55.93 78.491 56.0629 78.5973 56.1654C78.7074 56.2679 78.8707 56.3173 79.0834 56.3173C79.296 56.3173 79.5162 56.2603 79.7099 56.1502C79.8998 56.0401 80.0365 55.9072 80.12 55.7477C80.1997 55.5882 80.2415 55.3832 80.2415 55.1288V54.8022H80.2339ZM78.4986 53.7428L76.5848 53.5377C76.6569 53.1998 76.7594 52.934 76.8961 52.7403C77.0328 52.5466 77.2265 52.3758 77.4847 52.2353C77.667 52.1327 77.9214 52.053 78.2404 51.996C78.5593 51.9391 78.9087 51.9125 79.2846 51.9125C79.8846 51.9125 80.3668 51.9467 80.7276 52.015C81.0921 52.0834 81.3959 52.2239 81.6351 52.4403C81.806 52.5884 81.9427 52.8011 82.0376 53.0745C82.1363 53.3479 82.1857 53.6099 82.1857 53.8567V56.1882C82.1857 56.4388 82.2009 56.6325 82.2313 56.773C82.2616 56.9135 82.33 57.0919 82.4363 57.3122H80.5605C80.4845 57.1755 80.4352 57.0729 80.4124 57.0046C80.3896 56.9324 80.3668 56.8223 80.344 56.6704C80.082 56.9248 79.82 57.1071 79.5618 57.2134C79.2087 57.3577 78.7948 57.4337 78.3277 57.4337C77.705 57.4337 77.2303 57.2894 76.9075 56.9932C76.5848 56.7008 76.4215 56.3401 76.4215 55.9148C76.4215 55.5123 76.5354 55.1819 76.7708 54.9237C77.0063 54.6655 77.4354 54.4718 78.0619 54.3465C78.8137 54.1946 79.2998 54.0883 79.5238 54.0238C79.7479 53.963 79.9833 53.8833 80.2339 53.7845C80.2339 53.5339 80.1845 53.363 80.082 53.2605C79.9795 53.1618 79.8048 53.1124 79.5466 53.1124C79.2201 53.1124 78.9732 53.1656 78.81 53.2719C78.6808 53.3555 78.5783 53.5111 78.5024 53.7428H78.4986ZM58.1872 51.2974L58.1948 55.93C58.3543 55.9831 58.5062 56.0097 58.6505 56.0097C58.9087 56.0097 59.1441 55.9338 59.3416 55.7705C59.5428 55.6072 59.7099 55.3566 59.8276 55.0148C59.9529 54.6579 60.0251 54.206 60.0289 53.6516C60.0365 53.2301 59.9947 52.8504 59.9073 52.5277C59.801 52.129 59.6264 51.8138 59.4023 51.5935C59.1783 51.3771 58.9011 51.2556 58.5859 51.248C58.4606 51.248 58.3277 51.2594 58.191 51.2936L58.1872 51.2974ZM56.057 49.9949H58.0201V50.2911C58.5821 50.0291 59.1175 49.9228 59.5998 49.9531C60.0744 49.9797 60.4997 50.1354 60.8643 50.3936C61.225 50.6518 61.5212 51.0126 61.7376 51.453C62.0224 52.0416 62.1629 52.7669 62.1173 53.5795C62.0794 54.5858 61.9199 55.3756 61.6617 55.9717C61.4338 56.5072 61.1225 56.8869 60.7503 57.1337C60.3782 57.3767 59.9415 57.483 59.4555 57.4641C59.0112 57.4451 58.5214 57.3236 58.0087 57.1109V57.4337H55.9734C55.9848 54.9541 55.9962 52.4745 56.0114 49.9987H56.057V49.9949ZM71.675 54.7035C71.675 55.1477 71.7661 55.4705 71.9522 55.668C72.1344 55.8692 72.3661 55.9679 72.647 55.9679C72.9053 55.9679 73.1255 55.8692 73.3002 55.6756C73.4786 55.4781 73.566 55.1515 73.566 54.6883C73.566 54.282 73.4786 53.982 73.3078 53.7921C73.1369 53.6023 72.928 53.5035 72.6812 53.5035C72.385 53.5035 72.1458 53.6023 71.9597 53.8035C71.7699 54.001 71.6788 54.3048 71.6788 54.7073L71.675 54.7035ZM69.4916 50.2038H71.6939V52.653C71.9104 52.4479 72.1572 52.2922 72.4344 52.1897C72.7116 52.0872 73.0154 52.0378 73.3495 52.0378C74.0406 52.0378 74.614 52.2619 75.0659 52.7137C75.5178 53.1656 75.7456 53.8111 75.7456 54.6541C75.7456 55.2161 75.6431 55.7097 75.4342 56.1388C75.2292 56.5679 74.9406 56.8869 74.576 57.0957C74.2115 57.3084 73.8052 57.4109 73.3609 57.4109C72.9812 57.4109 72.6281 57.335 72.3129 57.1869C72.0737 57.0691 71.8117 56.8527 71.5307 56.5299V57.2894H69.4916V50.2038ZM68.4245 57.3653H66.6322V56.5375C66.3664 56.8793 66.0968 57.1223 65.8272 57.2666C65.5538 57.4109 65.2235 57.483 64.8248 57.483C64.2969 57.483 63.8868 57.3198 63.5831 56.997C63.2831 56.6742 63.135 56.173 63.135 55.4971V52.2239H65.064V55.0566C65.064 55.3794 65.1209 55.6072 65.2387 55.7439C65.3526 55.8806 65.5159 55.9452 65.7247 55.9452C65.9525 55.9452 66.1386 55.854 66.2829 55.6756C66.4272 55.4933 66.4993 55.1705 66.4993 54.6997V52.2239H68.4207V57.3615L68.4245 57.3653Z" fill="#3B720D"/>
<path fill-rule="evenodd" clip-rule="evenodd" d="M36.9341 61.4967L38.0467 61.4284C38.0695 61.6068 38.1189 61.7435 38.1948 61.8347C38.3163 61.9866 38.4872 62.0625 38.7112 62.0625C38.8783 62.0625 39.0074 62.0245 39.0985 61.9448C39.1897 61.8688 39.2352 61.7777 39.2352 61.6752C39.2352 61.5727 39.1935 61.4929 39.1061 61.4132C39.0188 61.3372 38.8213 61.2651 38.5062 61.1967C37.9935 61.0828 37.6252 60.9309 37.4088 60.7411C37.1885 60.5512 37.0784 60.312 37.0784 60.0196C37.0784 59.8297 37.1354 59.6475 37.2493 59.4766C37.3632 59.3057 37.5303 59.169 37.7581 59.0741C37.986 58.9754 38.2973 58.926 38.6922 58.926C39.1783 58.926 39.5466 59.0133 39.801 59.1918C40.0554 59.3703 40.2073 59.6513 40.2567 60.0424L39.1555 60.1069C39.1251 59.9361 39.0644 59.8145 38.9694 59.7348C38.8745 59.6589 38.7454 59.6209 38.5783 59.6209C38.4416 59.6209 38.3391 59.6513 38.2707 59.7044C38.2024 59.7614 38.1682 59.8297 38.1682 59.9133C38.1682 59.974 38.1948 60.0272 38.2518 60.0728C38.3049 60.1221 38.4378 60.1677 38.6429 60.2095C39.1555 60.3196 39.5238 60.4297 39.7441 60.5398C39.9643 60.6499 40.1276 60.7904 40.2263 60.9537C40.3288 61.117 40.3782 61.3031 40.3782 61.5081C40.3782 61.7473 40.3099 61.9676 40.177 62.1726C40.0403 62.3739 39.8542 62.5296 39.6112 62.6321C39.3681 62.7384 39.0644 62.7878 38.6998 62.7878C38.0543 62.7878 37.6062 62.6663 37.3594 62.4194C37.1126 62.1726 36.9721 61.865 36.9379 61.4853L36.9341 61.4967ZM40.5946 60.0196H41.7072L42.273 61.8271L42.797 60.0196H43.8337L42.7439 62.9207C42.6186 63.251 42.4933 63.4713 42.3642 63.589C42.1819 63.7523 41.9047 63.832 41.5288 63.832C41.3769 63.832 41.1414 63.813 40.8263 63.7713L40.7427 63.046C40.8946 63.0915 41.0617 63.1181 41.2516 63.1181C41.3769 63.1181 41.4756 63.0915 41.5553 63.0346C41.6313 62.9814 41.6958 62.8789 41.749 62.7384L40.5946 60.0234V60.0196ZM45.0108 60.8968L44.0046 60.7904C44.0425 60.6158 44.0957 60.4791 44.1678 60.3803C44.24 60.2816 44.3425 60.1943 44.4754 60.1221C44.5703 60.069 44.7032 60.0272 44.8741 60.0006C45.0412 59.9702 45.2273 59.9588 45.4247 59.9588C45.7399 59.9588 45.9943 59.9778 46.1842 60.012C46.374 60.0462 46.5335 60.1183 46.6626 60.2322C46.7538 60.3082 46.8221 60.4183 46.8753 60.5588C46.9284 60.6993 46.9512 60.8322 46.9512 60.9613V62.1612C46.9512 62.2903 46.9588 62.3891 46.9778 62.4612C46.993 62.5334 47.0309 62.6245 47.0841 62.7384H46.0968C46.0589 62.6701 46.0323 62.6169 46.0209 62.5789C46.0095 62.5409 45.9981 62.484 45.9829 62.408C45.8462 62.5372 45.7095 62.6321 45.5728 62.689C45.3867 62.765 45.1703 62.803 44.9235 62.803C44.5969 62.803 44.3463 62.727 44.1754 62.5789C44.0046 62.4308 43.921 62.2448 43.921 62.0245C43.921 61.8195 43.9818 61.6486 44.1033 61.5157C44.2248 61.3828 44.4526 61.2841 44.783 61.2195C45.1779 61.1398 45.4323 61.0866 45.55 61.0524C45.6677 61.0221 45.7931 60.9803 45.9222 60.9271C45.9222 60.798 45.8956 60.7107 45.8424 60.6575C45.7893 60.6044 45.6943 60.5816 45.5614 60.5816C45.3905 60.5816 45.2614 60.6082 45.1741 60.6651C45.1058 60.7069 45.0526 60.7904 45.0108 60.9081V60.8968ZM45.9222 61.4398C45.7779 61.4929 45.626 61.5347 45.4665 61.5765C45.2538 61.6334 45.1171 61.6904 45.0602 61.7435C44.9994 61.8005 44.9729 61.865 44.9729 61.9372C44.9729 62.0207 45.0032 62.0891 45.0602 62.1384C45.1171 62.1916 45.2045 62.2182 45.3146 62.2182C45.4247 62.2182 45.5424 62.1878 45.645 62.1346C45.7475 62.0777 45.8158 62.0093 45.8614 61.9258C45.907 61.8423 45.926 61.7359 45.926 61.6068V61.4398H45.9222ZM47.5929 60.0158H48.5802V60.4601C48.6752 60.2664 48.7739 60.1335 48.8726 60.0614C48.9751 59.9892 49.1004 59.955 49.2485 59.955C49.4042 59.955 49.5751 60.0044 49.7612 60.0993L49.4346 60.836C49.3093 60.7828 49.2106 60.76 49.1384 60.76C49.0017 60.76 48.8916 60.817 48.8156 60.9271C48.7055 61.0866 48.6524 61.3828 48.6524 61.8195V62.7308H47.5929V60.0158ZM49.9738 60.0158H51.0294V62.7308H49.9738V60.0158ZM52.666 60.893L51.6598 60.7866C51.6977 60.612 51.7509 60.4753 51.823 60.3765C51.8952 60.2778 51.9977 60.1905 52.1306 60.1183C52.2256 60.0652 52.3585 60.0234 52.5293 59.9968C52.6964 59.9664 52.8825 59.955 53.0799 59.955C53.3951 59.955 53.6495 59.974 53.8394 60.0082C54.0292 60.0424 54.1887 60.1145 54.3178 60.2284C54.409 60.3044 54.4773 60.4145 54.5305 60.555C54.5836 60.6955 54.6064 60.8284 54.6064 60.9575V62.1574C54.6064 62.2865 54.614 62.3853 54.633 62.4574C54.6482 62.5296 54.6862 62.6207 54.7393 62.7346H53.752C53.7141 62.6663 53.6875 62.6131 53.6761 62.5751C53.6647 62.5372 53.6533 62.4802 53.6381 62.4043C53.5014 62.5334 53.3647 62.6283 53.228 62.6852C53.042 62.7612 52.8255 62.7992 52.5787 62.7992C52.2521 62.7992 52.0015 62.7232 51.8306 62.5751C51.6598 62.427 51.5762 62.241 51.5762 62.0207C51.5762 61.8157 51.637 61.6448 51.7585 61.5119C51.88 61.379 52.1078 61.2803 52.4382 61.2157C52.8331 61.136 53.0913 61.0828 53.2052 61.0486C53.323 61.0183 53.4483 60.9765 53.5774 60.9233C53.5774 60.7942 53.5508 60.7069 53.4976 60.6537C53.4445 60.6006 53.3495 60.5778 53.2166 60.5778C53.0458 60.5778 52.9167 60.6044 52.8293 60.6613C52.761 60.7031 52.7078 60.7866 52.666 60.9043V60.893ZM53.5774 61.436C53.4331 61.4891 53.2812 61.5309 53.1217 61.5727C52.9091 61.6296 52.7724 61.6866 52.7154 61.7397C52.6546 61.7967 52.6281 61.8612 52.6281 61.9334C52.6281 62.0169 52.6584 62.0853 52.7154 62.1346C52.7724 62.1878 52.8597 62.2144 52.9698 62.2144C53.0799 62.2144 53.1977 62.184 53.3002 62.1309C53.4027 62.0739 53.4711 62.0055 53.5166 61.922C53.5584 61.8385 53.5812 61.7321 53.5812 61.603V61.436H53.5774ZM55.2368 58.9829H56.2924V60.3613C56.4367 60.2132 56.5772 60.1069 56.7177 60.0462C56.8582 59.9816 57.0253 59.9512 57.2189 59.9512C57.5037 59.9512 57.7315 60.0386 57.8948 60.2095C58.0581 60.3803 58.1416 60.6461 58.1416 61.0031V62.727H57.0822V61.2347C57.0822 61.0638 57.0518 60.9423 56.9873 60.874C56.9227 60.8018 56.8354 60.7676 56.7177 60.7676C56.5924 60.7676 56.4898 60.817 56.4101 60.9119C56.3304 61.0069 56.2924 61.1777 56.2924 61.4246V62.727H55.2368V58.9829ZM60.6136 58.9829H62.8122C63.1768 58.9829 63.4578 59.0741 63.6552 59.2526C63.8527 59.431 63.9476 59.6513 63.9476 59.9171C63.9476 60.1373 63.8792 60.3272 63.7388 60.4866C63.6476 60.593 63.5109 60.6765 63.3287 60.7373C63.6021 60.8018 63.7995 60.9119 63.9286 61.0714C64.0577 61.2309 64.1223 61.4284 64.1223 61.6638C64.1223 61.8574 64.0767 62.0321 63.9856 62.1878C63.8944 62.3435 63.7691 62.465 63.6096 62.5561C63.5109 62.6131 63.3628 62.6511 63.1616 62.6777C62.8958 62.7118 62.7211 62.7308 62.6376 62.7308H60.6136V58.9829ZM61.7946 60.4525H62.3072C62.4895 60.4525 62.6186 60.4221 62.6907 60.3575C62.7629 60.293 62.797 60.2057 62.797 60.0879C62.797 59.9778 62.7629 59.8943 62.6907 59.8335C62.6186 59.7728 62.4933 59.7424 62.3148 59.7424H61.7946V60.4525ZM61.7946 61.922H62.3945C62.5958 61.922 62.7401 61.8878 62.8236 61.8157C62.9072 61.7435 62.9489 61.6524 62.9489 61.5309C62.9489 61.4208 62.9072 61.3296 62.8274 61.2651C62.7439 61.1967 62.5996 61.1626 62.3945 61.1626H61.7984V61.922H61.7946ZM65.626 60.893L64.6197 60.7866C64.6577 60.612 64.7108 60.4753 64.783 60.3765C64.8551 60.2778 64.9577 60.1905 65.0906 60.1183C65.1855 60.0652 65.3184 60.0234 65.4893 59.9968C65.6564 59.9664 65.8424 59.955 66.0399 59.955C66.355 59.955 66.6095 59.974 66.7993 60.0082C66.9892 60.0424 67.1487 60.1145 67.2778 60.2284C67.3689 60.3044 67.4373 60.4145 67.4904 60.555C67.5436 60.6955 67.5664 60.8284 67.5664 60.9575V62.1574C67.5664 62.2865 67.574 62.3853 67.5929 62.4574C67.6081 62.5296 67.6461 62.6207 67.6993 62.7346H66.712C66.674 62.6663 66.6474 62.6131 66.636 62.5751C66.6246 62.5372 66.6133 62.4802 66.5981 62.4043C66.4614 62.5334 66.3247 62.6283 66.188 62.6852C66.0019 62.7612 65.7855 62.7992 65.5386 62.7992C65.2121 62.7992 64.9615 62.7232 64.7906 62.5751C64.6197 62.427 64.5362 62.241 64.5362 62.0207C64.5362 61.8157 64.5969 61.6448 64.7184 61.5119C64.8399 61.379 65.0678 61.2803 65.3981 61.2157C65.7931 61.136 66.0475 61.0828 66.1652 61.0486C66.2829 61.0183 66.4082 60.9765 66.5373 60.9233C66.5373 60.7942 66.5107 60.7069 66.4576 60.6537C66.4044 60.6006 66.3095 60.5778 66.1766 60.5778C66.0057 60.5778 65.8766 60.6044 65.7893 60.6613C65.7209 60.7031 65.6677 60.7866 65.626 60.9043V60.893ZM66.5373 61.436C66.393 61.4891 66.2411 61.5309 66.0816 61.5727C65.869 61.6296 65.7323 61.6866 65.6753 61.7397C65.6146 61.7967 65.588 61.8612 65.588 61.9334C65.588 62.0169 65.6184 62.0853 65.6753 62.1346C65.7323 62.1878 65.8196 62.2144 65.9298 62.2144C66.0399 62.2144 66.1576 62.184 66.2601 62.1309C66.3626 62.0739 66.431 62.0055 66.4766 61.922C66.5183 61.8385 66.5411 61.7321 66.5411 61.603V61.436H66.5373ZM68.1967 60.012H69.1802V60.4525C69.3283 60.2702 69.4726 60.1411 69.6245 60.0652C69.7763 59.9892 69.9586 59.9474 70.1713 59.9474C70.4636 59.9474 70.6915 60.031 70.8548 60.2057C71.018 60.3765 71.1016 60.6423 71.1016 60.9993V62.7232H70.0422V61.2309C70.0422 61.06 70.0118 60.9385 69.9472 60.8702C69.8827 60.798 69.7953 60.7638 69.6776 60.7638C69.5523 60.7638 69.446 60.8132 69.37 60.9081C69.2903 61.0031 69.2523 61.1739 69.2523 61.4208V62.7232H68.1967V60.0082V60.012ZM71.7319 58.9829H72.8065V60.9119L73.5926 60.0158H74.8874L73.9001 60.9651L74.9444 62.7308H73.7596L73.2014 61.6448L72.8027 62.0283V62.7346H71.7281V58.9905L71.7319 58.9829Z" fill="#3B720D"/>
<path fill-rule="evenodd" clip-rule="evenodd" d="M50.5244 59.7386C50.8396 59.7386 51.094 59.4804 51.094 59.169C51.094 58.8576 50.8358 58.5994 50.5244 58.5994C50.213 58.5994 49.9548 58.8576 49.9548 59.169C49.9548 59.4804 50.213 59.7386 50.5244 59.7386Z" fill="#2171B5"/>
</g>
</g>
<rect x="1" y="1" width="110" height="110" rx="9" stroke="#CCCCCC" stroke-width="2"/>
<defs>
<linearGradient id="paint0_linear_642_1029" x1="91.0104" y1="54.8629" x2="93.7748" y2="48.943" gradientUnits="userSpaceOnUse">
<stop stop-color="#406F3D"/>
<stop offset="0.68" stop-color="#72C380"/>
<stop offset="1" stop-color="#406F3D"/>
</linearGradient>
<linearGradient id="paint1_linear_642_1029" x1="89.8599" y1="54.8364" x2="92.7572" y2="49.7709" gradientUnits="userSpaceOnUse">
<stop stop-color="#FFF9AE"/>
<stop offset="0.26" stop-color="#ABA048"/>
<stop offset="0.73" stop-color="#E5E3DD"/>
<stop offset="1" stop-color="#C7BC84"/>
</linearGradient>
<clipPath id="clip0_642_1029">
<rect x="2" y="2" width="108" height="108" rx="8" fill="white"/>
</clipPath>
<clipPath id="clip1_642_1029">
<rect width="80" height="14.832" fill="white" transform="translate(16 49)"/>
</clipPath>
</defs>
</svg>
