<svg width="112" height="112" viewBox="0 0 112 112" fill="none" xmlns="http://www.w3.org/2000/svg">
<g clip-path="url(#clip0_6_7385)">
<rect x="2" y="2" width="108" height="108" rx="8" fill="white"/>
<path fill-rule="evenodd" clip-rule="evenodd" d="M67.6181 76.6448C67.6264 76.4924 67.6352 76.2482 67.6431 75.9134V69.493L67.6223 68.8701C67.6172 68.7376 67.6107 68.6475 67.6043 68.6004C67.5974 68.5506 67.5867 68.5076 67.572 68.4679C67.5239 68.3095 67.4173 68.1978 67.257 68.1308C67.1093 68.0685 66.8909 68.0385 66.6073 68.0362V67.8178H70.2737C70.8066 67.8187 71.2882 67.8533 71.7181 67.9226C72.1476 67.9914 72.4934 68.0865 72.758 68.2075C73.5246 68.5709 73.9032 69.1827 73.899 70.0532C73.9078 71.2971 73.0896 72.0918 71.3958 72.2964L71.1118 72.3421C71.4928 72.356 72.0081 72.483 72.2478 72.5384C72.4856 72.5933 72.7188 72.6806 72.9473 72.7997C73.8464 73.2513 74.2892 73.9735 74.2805 74.9723C74.2851 76.1854 73.6936 76.9741 72.493 77.3467C72.2307 77.4215 71.9019 77.4806 71.5043 77.5236C71.1054 77.5665 70.6722 77.5887 70.2054 77.5896H66.6073V77.3707C67.0308 77.3656 67.3221 77.301 67.451 77.1491C67.505 77.0974 67.5433 77.0406 67.5687 76.9755C67.5946 76.9094 67.6098 76.7968 67.6181 76.6448ZM68.7476 68.1179V72.1925H70.1782C71.8419 72.1828 72.7035 71.4915 72.7128 70.1076C72.7243 68.7644 71.816 68.1087 70.0553 68.1179H68.7476ZM72.9991 74.8633C72.9898 73.9135 72.6463 73.2421 71.9615 72.8667C71.7537 72.7605 71.4896 72.6787 71.1723 72.621C70.8556 72.5638 70.506 72.5347 70.1237 72.5333H68.7476V77.289H70.1237C71.1206 77.2936 71.8493 77.1075 72.2981 76.7173C72.5258 76.5303 72.6985 76.2763 72.8185 75.9577C72.9381 75.6391 72.9977 75.2734 72.9991 74.8633Z" fill="#3A3A3A"/>
<path d="M79.528 77.3107C79.4536 77.1634 79.4015 76.9884 79.3788 76.541L79.3724 76.4085L79.2842 76.5077C79.1793 76.6264 79.0764 76.7289 78.9757 76.8162C78.8746 76.9044 78.7573 76.9944 78.6257 77.0859C78.3362 77.2983 78.0573 77.4479 77.7899 77.5352C77.5225 77.622 77.221 77.6644 76.8853 77.6617C76.3007 77.664 75.8519 77.5255 75.5309 77.2526C75.3513 77.0909 75.2105 76.8882 75.1075 76.6421C75.0045 76.3964 74.9519 76.1323 74.9496 75.8488C74.9565 74.8034 75.5984 74.1287 76.9112 73.83C77.2584 73.7496 77.6255 73.6836 78.0115 73.6319C78.399 73.5801 78.8376 73.5377 79.3285 73.5044L79.3788 72.5924C79.3797 72.2807 79.3645 72.0282 79.334 71.8356C79.3036 71.6407 79.2532 71.4708 79.1826 71.3272C78.9877 70.9476 78.5906 70.7657 78.0166 70.7657C77.0959 70.7611 76.5967 71.1993 76.545 72.0711C76.5394 72.2096 76.5265 72.3071 76.5085 72.3662C76.491 72.4216 76.4609 72.4627 76.4185 72.4927C76.327 72.5541 76.1811 72.5897 75.9715 72.592C75.5203 72.5989 75.3513 72.4645 75.3587 72.2387C75.3615 72.0023 75.44 71.7737 75.5974 71.5535C75.7549 71.3323 75.9742 71.1402 76.2578 70.9763C76.7675 70.6937 77.4205 70.5496 78.2212 70.5473C79.0971 70.5496 79.6845 70.7482 80.0054 71.1273C80.1352 71.287 80.2317 71.4842 80.2945 71.7229C80.3568 71.9617 80.3887 72.2641 80.3882 72.6321L80.3869 72.7102L80.3799 73.0667L80.361 74.0082L80.3471 75.303L80.3338 75.9301C80.3347 76.2251 80.3471 76.45 80.3675 76.7017C80.3878 76.9469 80.4755 77.2202 80.6718 77.2927C80.8763 77.3685 81.073 77.3985 81.4475 77.4008C81.7227 77.3952 81.9347 77.3638 82.0783 77.3029C82.2422 77.2332 82.3429 77.0854 82.3863 76.8758C82.4288 76.6712 82.4472 76.36 82.4426 75.943V72.2886C82.4519 71.7913 82.3941 71.4413 82.2524 71.2584C82.1139 71.0797 81.8562 71.0026 81.502 71.0063V70.8123L83.4516 70.6701V72.223L83.5532 72.042C83.8418 71.5281 84.1692 71.1647 84.5335 70.9462C84.8978 70.7278 85.3545 70.6198 85.9045 70.6253C86.731 70.6142 87.3068 70.8913 87.6439 71.445C87.7672 71.6301 87.8573 71.8536 87.9108 72.115C87.9644 72.3768 87.9912 72.7116 87.9898 73.1193V75.943C87.9847 76.3641 88.0023 76.6777 88.0429 76.8813C88.0845 77.0909 88.1842 77.2382 88.3486 77.3061C88.4843 77.362 88.8011 77.3925 89.0712 77.3999C89.3243 77.392 89.5201 77.3611 89.654 77.3024C89.8138 77.2327 89.9103 77.0845 89.9514 76.8748C89.9911 76.6712 90.0082 76.3595 90.0031 75.943V69.3038C90.0082 68.9233 89.9925 68.6411 89.9541 68.4592C89.9144 68.2694 89.8165 68.1387 89.6563 68.0824C89.5173 68.0334 89.3091 68.0104 89.0357 68.0094V67.815L91.0633 67.7116C91.0379 68.1618 91.0185 68.6222 91.0056 69.0927C90.9917 69.584 90.9853 70.013 90.9853 70.3801V74.8403L93.2193 72.3925C93.5351 72.0425 93.7078 71.7483 93.7101 71.5128C93.7263 71.185 93.3952 71.0368 92.8517 71.0095V70.816H95.7548V71.0127C95.5803 71.0331 95.4284 71.0649 95.2995 71.1093C95.1591 71.1568 95.0151 71.2261 94.8682 71.3147C94.7191 71.4048 94.5944 71.4874 94.4933 71.5627C94.3903 71.6398 94.2689 71.7493 94.1289 71.8915C93.989 72.0332 93.7868 72.2484 93.5208 72.5375L92.7834 73.3313L94.7135 76.3674C94.9338 76.7271 95.1365 76.9815 95.3226 77.126C95.5004 77.2636 95.7271 77.3523 96 77.3943V77.5929H94.2347C94.1862 77.4941 94.1197 77.3661 94.0347 77.2091L93.754 76.6971L93.5393 76.3115L92.1106 73.9833L90.988 75.2393L90.9853 75.943C90.9802 76.3595 90.9973 76.6712 91.0374 76.8753C91.079 77.0849 91.1769 77.2332 91.339 77.3029C91.4807 77.3634 91.6918 77.3952 91.966 77.4008V77.5929H85.9996V77.4003C86.4036 77.3892 86.6812 77.3232 86.7924 77.1759C86.8372 77.1186 86.8709 77.0535 86.8945 76.9806C86.9185 76.9072 86.9328 76.8125 86.9397 76.6971C86.9476 76.6056 86.9559 76.474 86.9651 76.3009C86.9748 76.1272 86.9799 76.0076 86.9808 75.9439V73.2015C86.9832 72.525 86.9107 72.0245 86.7573 71.7063C86.5251 71.2058 86.1049 70.955 85.5092 70.9527C84.8452 70.9504 84.3155 71.2667 83.923 71.8915C83.7753 72.1274 83.6608 72.3962 83.5781 72.6959C83.495 72.9965 83.453 73.292 83.4516 73.5829V75.943C83.4465 76.3641 83.464 76.6777 83.5047 76.8813C83.5462 77.0909 83.6455 77.2382 83.8099 77.3061C83.9535 77.3652 84.1673 77.3957 84.4462 77.4008V77.5929L81.5117 77.5924C81.2513 77.6012 80.7558 77.6146 80.5101 77.6113C80.2525 77.6077 80.1283 77.5804 79.8932 77.5629C79.6845 77.5019 79.5968 77.4474 79.528 77.3107ZM76.068 75.8082C76.0731 76.2524 76.1811 76.6135 76.3968 76.8859C76.6129 77.1597 76.9056 77.3001 77.2667 77.307C77.6315 77.302 77.9764 77.2068 78.2992 77.0221C78.6211 76.8374 78.8746 76.5913 79.0584 76.2852C79.1706 76.0898 79.2523 75.8386 79.3036 75.5343C79.3544 75.2314 79.3797 74.8546 79.3788 74.4044V73.7048C78.7254 73.7612 78.2581 73.8226 77.9183 73.8946C77.5761 73.9671 77.2741 74.0705 77.0109 74.2058C76.3861 74.5161 76.0726 75.0541 76.068 75.8082Z" fill="#3A3A3A"/>
<path fill-rule="evenodd" clip-rule="evenodd" d="M18.6579 73.476V75.9072C18.6528 76.2973 18.675 76.5869 18.7249 76.7757C18.7752 76.9651 18.8833 77.0897 19.05 77.1507C19.2166 77.2121 19.4725 77.2463 19.8174 77.2532V77.5926H16V77.2532C16.3255 77.2463 16.5661 77.2121 16.7222 77.1507C16.8783 77.0897 16.9794 76.9651 17.0256 76.7757C17.0718 76.5869 17.0921 76.2973 17.087 75.9072V69.5163C17.0921 69.1262 17.0718 68.8362 17.0274 68.6468C16.9826 68.4575 16.8857 68.3315 16.7365 68.2687C16.5869 68.2054 16.3579 68.1685 16.048 68.1569V67.8171H19.6849C20.9109 67.812 21.8085 68.0285 22.3793 68.4658C22.9495 68.9036 23.2312 69.5935 23.2248 70.5355C23.2285 71.8598 22.7131 72.7265 21.6783 73.1361C21.4082 73.2419 21.0637 73.3245 20.6453 73.3845C20.227 73.4441 19.762 73.4746 19.2499 73.476H18.6579ZM18.6579 73.0969H19.2864C20.0414 73.0945 20.5969 72.9158 20.9533 72.5612C21.1473 72.3557 21.2941 72.087 21.3943 71.754C21.4945 71.4216 21.5449 71.0415 21.5453 70.614C21.5412 69.0042 20.8365 68.1985 19.4309 68.1962H18.6579V73.0969Z" fill="#3A3A3A"/>
<path fill-rule="evenodd" clip-rule="evenodd" d="M29.371 73.8864H24.9288C24.9339 74.3602 24.9616 74.7577 25.0124 75.0787C25.0627 75.3991 25.144 75.6924 25.2557 75.9579C25.6247 76.8177 26.1945 77.2471 26.9656 77.2471C27.4025 77.2448 27.7987 77.1164 28.1538 76.8615C28.5093 76.6066 28.8044 76.2405 29.0404 75.7621L29.3548 75.9708C29.0454 76.5863 28.6677 77.0384 28.2216 77.327C27.7756 77.6156 27.2312 77.7583 26.5884 77.7555C25.5771 77.7426 24.6476 77.4194 24.0648 76.7867C23.4826 76.1537 23.1856 75.2865 23.1741 74.1861C23.1856 73.0774 23.4729 72.2005 24.0353 71.5545C24.5973 70.9089 25.4954 70.5788 26.4628 70.5645C27.1065 70.5663 27.7276 70.7127 28.1685 71.0041C28.6095 71.2959 28.9346 71.7226 29.1447 72.2841C29.2131 72.4706 29.2648 72.684 29.3003 72.9241C29.3354 73.1642 29.359 73.4851 29.371 73.8864ZM24.9413 73.5087H27.7202C27.7091 73.1069 27.6874 72.7832 27.6555 72.538C27.6241 72.2928 27.5743 72.0735 27.5064 71.8805C27.2718 71.1962 26.9112 70.8577 26.4254 70.8642C25.8805 70.8688 25.4737 71.2506 25.2054 72.0107C25.1371 72.2074 25.0821 72.4231 25.0406 72.6572C24.999 72.8913 24.9657 73.1753 24.9413 73.5087Z" fill="#3A3A3A"/>
<path d="M29.6551 70.7509L32.119 70.5805C32.132 70.8261 32.1421 71.033 32.1486 71.1997C32.155 71.3669 32.1583 71.5146 32.1583 71.6421V72.0355C32.6935 71.057 33.3399 70.5629 34.0981 70.5542C34.4255 70.5606 34.6915 70.6562 34.8961 70.8409C35.1002 71.0256 35.2059 71.2625 35.2119 71.5507C35.2073 71.7903 35.1186 71.9824 34.9464 72.1269C34.7746 72.2719 34.5488 72.3463 34.2685 72.35C33.9319 72.3606 33.7269 72.2211 33.6525 71.9307C33.6041 71.7511 33.5537 71.6287 33.5015 71.5636C33.4498 71.4985 33.3732 71.468 33.2725 71.4717H33.2462C32.9885 71.4939 32.7438 71.6989 32.5124 72.0877C32.4076 72.2821 32.3287 72.4963 32.276 72.7318C32.2238 72.9669 32.1975 73.237 32.1975 73.5427V75.9674C32.1924 76.3544 32.2114 76.6398 32.2539 76.8231C32.2963 77.0064 32.3929 77.1265 32.5434 77.1832C32.6935 77.2396 32.928 77.2714 33.2462 77.2779V77.5928H29.6029V77.2779C29.8998 77.2793 30.1196 77.2507 30.2627 77.1916C30.4059 77.1329 30.4987 77.0101 30.5416 76.8231C30.5841 76.6356 30.6031 76.3507 30.5989 75.9674V72.3366C30.6109 71.7963 30.5569 71.4454 30.4364 71.2833C30.3163 71.1212 30.0554 71.0487 29.6551 71.0653V70.7509Z" fill="#3A3A3A"/>
<path d="M38.139 70.5809L38.1524 71.8785C38.6829 71.0048 39.443 70.5634 40.4326 70.5546C41.4397 70.5482 42.0598 71.0067 42.2935 71.9311C42.5784 71.4551 42.9035 71.106 43.2682 70.8839C43.6335 70.6622 44.0597 70.5523 44.5478 70.5546C45.3189 70.5592 45.8869 70.8123 46.2517 71.3147C46.3944 71.5049 46.4955 71.7377 46.5565 72.0129C46.617 72.2881 46.6465 72.645 46.6447 73.0842V75.9674C46.6405 76.3507 46.6594 76.6356 46.7019 76.8226C46.7449 77.0101 46.8377 77.1329 46.9808 77.1916C47.124 77.2507 47.3438 77.2793 47.6412 77.2779V77.5928H44.0893V77.2779C44.3733 77.2793 44.5838 77.2507 44.7214 77.1916C44.859 77.1329 44.9486 77.0101 44.9902 76.8226C45.0317 76.6356 45.0502 76.3507 45.046 75.9674V73.0971C45.0488 72.4086 44.9643 71.9118 44.7921 71.6065C44.6194 71.3013 44.3419 71.1517 43.9581 71.1577C43.4973 71.1489 43.1085 71.389 42.7917 71.8785C42.5188 72.2872 42.383 72.7282 42.3854 73.2024V75.9674C42.3812 76.3507 42.3997 76.6356 42.4417 76.8226C42.4833 77.0101 42.5742 77.1329 42.7137 77.1916C42.8531 77.2507 43.0669 77.2793 43.3551 77.2779V77.5928H39.8429V77.2779C40.1269 77.2793 40.3379 77.2507 40.475 77.1916C40.6126 77.1329 40.7022 77.0101 40.7438 76.8226C40.7853 76.6356 40.8038 76.3507 40.7997 75.9674V73.0842C40.8061 71.7866 40.4524 71.1443 39.7381 71.1577C39.2934 71.1734 38.9207 71.3844 38.6206 71.7898C38.3204 72.1957 38.1644 72.7014 38.1524 73.3072V75.9674C38.1482 76.3548 38.1667 76.6421 38.2082 76.8286C38.2493 77.0156 38.3389 77.1375 38.4765 77.1948C38.6141 77.2521 38.8247 77.2798 39.1087 77.2779V77.5928H35.5568V77.2779C35.8542 77.2798 36.074 77.2521 36.2171 77.1948C36.3603 77.1375 36.4535 77.0156 36.496 76.8286C36.5385 76.6421 36.5574 76.3548 36.5533 75.9674V72.3241C36.5667 71.7908 36.5136 71.4454 36.3926 71.287C36.2721 71.1291 36.0024 71.0552 35.5836 71.0658V70.7513L38.139 70.5809Z" fill="#3A3A3A"/>
<path d="M56.9591 71.1807V75.5582C56.9587 75.8431 56.9693 76.0791 56.9901 76.2656C57.0113 76.4522 57.0446 76.6096 57.0903 76.7375C57.1457 76.8839 57.2311 77.0007 57.3475 77.088C57.4634 77.1753 57.5918 77.2205 57.7321 77.2224C58.012 77.2182 58.3176 77.0829 58.6497 76.816L58.833 77.1439C58.307 77.5849 57.7081 77.8033 57.0376 77.7991C56.3145 77.7881 55.8209 77.5479 55.5568 77.0783C55.505 76.9744 55.4644 76.8558 55.4358 76.7228C55.4071 76.5898 55.3873 76.4102 55.3762 76.1843C55.3651 75.9581 55.3596 75.6529 55.36 75.2696V71.1807H54.6129V70.7877C54.8983 70.7766 55.1402 70.7166 55.3388 70.6072C55.5374 70.4977 55.7105 70.3264 55.8583 70.0928C55.9742 69.915 56.0698 69.7169 56.145 69.4999C56.2199 69.2824 56.2859 69.0127 56.3431 68.6904L56.9984 68.6248C56.9896 68.7984 56.9822 68.9744 56.9767 69.1526C56.9707 69.3308 56.9665 69.5456 56.9638 69.7968C56.9605 70.0475 56.9591 70.3694 56.9591 70.7609H58.5448V71.1807H56.9591Z" fill="#3A3A3A"/>
<path fill-rule="evenodd" clip-rule="evenodd" d="M54.6066 77.3152V77.5922C54.2228 77.6176 54.0681 77.6172 53.665 77.6176C53.345 77.6181 53.0139 77.6125 52.7392 77.5091C52.5693 77.4454 52.4741 77.3909 52.3476 77.257C52.259 77.1166 52.2026 77.1092 52.174 76.7181C51.836 77.0834 51.4837 77.3521 51.1179 77.5239C50.7518 77.6961 50.3565 77.7811 49.933 77.7797C49.3041 77.7728 48.8123 77.5992 48.4573 77.2584C48.1017 76.9176 47.9211 76.4494 47.9147 75.8528C47.9124 74.7279 48.6119 74.0288 50.012 73.7559C50.6432 73.6335 51.3594 73.5509 52.1611 73.507V72.6551C52.168 71.9726 52.0955 71.4993 51.945 71.2365C51.7944 70.9733 51.5257 70.8477 51.1387 70.8597C50.7282 70.8509 50.4354 70.9992 50.2609 71.3053C50.1972 71.4101 50.151 71.5311 50.1214 71.6673C50.0924 71.8036 50.0688 71.9929 50.0513 72.2358C50.0406 72.469 49.9728 72.6347 49.8481 72.7336C49.7229 72.8324 49.5239 72.8804 49.2515 72.8781C48.6443 72.8735 48.3386 72.6726 48.334 72.275C48.3363 72.0432 48.4078 71.822 48.5491 71.6115C48.69 71.4009 48.8895 71.2157 49.1471 71.056C49.6929 70.7198 50.4091 70.554 51.2962 70.5582C52.1985 70.554 52.8449 70.7327 53.236 71.0957C53.412 71.2614 53.5413 71.4734 53.6239 71.7311C53.707 71.9887 53.7477 72.3184 53.7472 72.7206L53.7338 73.8607L53.7209 75.0008C53.7098 75.3744 53.7057 75.6103 53.7075 75.7087C53.7029 76.1811 53.7181 76.5265 53.7523 76.744C53.7865 76.9619 53.8243 77.0575 53.9675 77.1757C54.2178 77.3189 54.432 77.3147 54.6066 77.3152ZM52.1611 74.8175V73.8085C51.2228 73.8723 50.5574 74.0459 50.1644 74.3294C49.7714 74.6129 49.5807 75.0553 49.5923 75.6565C49.5964 76.128 49.6934 76.502 49.8823 76.7786C50.0716 77.0552 50.3288 77.1965 50.6539 77.203C50.9208 77.2002 51.1669 77.1235 51.3927 76.9716C51.6185 76.8206 51.7963 76.6091 51.9251 76.3381C52.0096 76.1718 52.0701 75.9696 52.107 75.7299C52.144 75.4903 52.162 75.1864 52.1611 74.8175Z" fill="#3A3A3A"/>
<path fill-rule="evenodd" clip-rule="evenodd" d="M65.8911 77.3152V77.5922C65.5073 77.6176 65.3527 77.6181 64.9495 77.6185C64.6295 77.619 64.2985 77.6135 64.0237 77.51C63.8538 77.4463 63.7586 77.3918 63.6321 77.2579C63.5435 77.1175 63.4871 77.1101 63.4585 76.719C63.1205 77.0843 62.7682 77.353 62.402 77.5248C62.0363 77.697 61.641 77.782 61.2176 77.7806C60.5886 77.7737 60.0969 77.6001 59.7418 77.2593C59.3862 76.9185 59.2057 76.4503 59.1992 75.8537C59.1969 74.7288 59.896 74.0297 61.2965 73.7568C61.9278 73.6344 62.644 73.5518 63.4456 73.5079V72.656C63.4525 71.9735 63.38 71.5002 63.2295 71.2374C63.0785 70.9742 62.8097 70.8486 62.4232 70.8606C62.0127 70.8519 61.72 71.0001 61.5454 71.3062C61.4817 71.4111 61.4351 71.532 61.406 71.6683C61.3769 71.8045 61.3533 71.9938 61.3358 72.2367C61.3252 72.4699 61.2573 72.6357 61.1326 72.7349C61.0075 72.8333 60.8084 72.8813 60.536 72.879C59.9288 72.8744 59.6231 72.6735 59.6185 72.2759C59.6208 72.0441 59.6924 71.8229 59.8337 71.6124C59.9745 71.4018 60.174 71.2167 60.4312 71.0569C60.9774 70.7207 61.6936 70.5549 62.5807 70.5591C63.483 70.5549 64.1294 70.7336 64.5206 71.0966C64.6965 71.2624 64.8258 71.4743 64.9084 71.732C64.9916 71.9896 65.0322 72.3193 65.0317 72.7215L65.0183 73.8616L65.0054 75.0017C64.9943 75.3753 64.9902 75.6113 64.992 75.7096C64.9874 76.182 65.0026 76.5274 65.0368 76.7453C65.071 76.9628 65.1088 77.0584 65.252 77.1766C65.5023 77.3198 65.7165 77.3147 65.8911 77.3152ZM63.4456 74.8184V73.8095C62.5073 73.8732 61.8414 74.0468 61.4489 74.3303C61.0559 74.6138 60.8652 75.0562 60.8768 75.6574C60.8809 76.1289 60.9779 76.5029 61.1668 76.7795C61.3561 77.0561 61.6133 77.1974 61.9384 77.2039C62.2053 77.2011 62.4514 77.1245 62.6772 76.9725C62.903 76.8211 63.0803 76.6101 63.2096 76.3385C63.2941 76.1732 63.3546 75.9705 63.3915 75.7309C63.4285 75.4917 63.4465 75.1874 63.4456 74.8184Z" fill="#3A3A3A"/>
<path d="M42.3927 44.808L42.3609 45.4281L54.2585 59.3848L54.6856 59.4546L54.7395 59.4279L54.9483 59.041L49.8745 42.0579L49.0134 41.4776L42.3927 44.808Z" fill="#0097B9"/>
<path d="M61.4857 41.1412L69.1785 44.6782L69.1927 45.676L56.5679 64.7995L55.9916 64.9515L55.9065 64.9124L55.7267 64.4813L60.8151 41.5139L61.4857 41.1412Z" fill="#80B13A"/>
<path d="M49.7345 35.6999L50.0408 35.1099L59.8899 35.0033L60.5264 35.6642L55.8078 51.4294L55.5088 51.603L55.4992 51.6024L55.1758 51.3846L49.7345 35.6999Z" fill="#D81936"/>
<path fill-rule="evenodd" clip-rule="evenodd" d="M45.9112 46.1063L54.7097 59.4918L54.2417 59.4152L42.3289 45.4221L45.9112 46.1063Z" fill="#005874"/>
<path d="M49.0258 41.4626L49.8841 42.0452L47.2185 45.5895L45.9807 45.0484L49.0258 41.4626Z" fill="#2FB8E7"/>
<path d="M45.9802 45.048L45.911 46.1065L42.3292 45.4224L42.3666 44.8069L45.9802 45.048Z" fill="#007592"/>
<path d="M47.2183 45.59L49.8896 42.0399L55.0274 59.0373L54.7659 59.4769L47.2183 45.59Z" fill="#007592"/>
<path d="M69.2192 45.6736L56.6046 64.8385L55.9596 65.0262L64.0677 46.1121L69.2192 45.6736Z" fill="#6E9123"/>
<path d="M62.615 45.3132L55.8871 64.9671L55.6976 64.4849L60.806 41.4943L62.615 45.3132Z" fill="#3F7937"/>
<path d="M69.1988 44.6778L69.2192 45.6734L64.0678 46.1124L63.7773 44.7481L69.1988 44.6778Z" fill="#A5C550"/>
<path d="M63.7775 44.7481L62.6146 45.312L60.805 41.4925L61.4698 41.1175L63.7775 44.7481Z" fill="#5D8B27"/>
<path d="M54.2598 36.7603L53.5502 37.5988L49.7012 35.6819L50.0121 35.0988L54.2598 36.7603Z" fill="#AF2C35"/>
<path d="M49.7007 35.6819L53.5503 37.5987L55.5017 51.6349L55.1602 51.4023L49.7007 35.6819Z" fill="#762624"/>
<path d="M55.4019 37.6008L60.5437 35.6573L55.8319 51.4508L55.5086 51.6346L55.4019 37.6008Z" fill="#B22B37"/>
<path d="M54.2604 36.7603L55.4018 37.601L60.5441 35.6575L59.9003 35L54.2604 36.7603Z" fill="#DC505E"/>
</g>
<rect x="1" y="1" width="110" height="110" rx="9" stroke="#CCCCCC" stroke-width="2"/>
<defs>
<clipPath id="clip0_6_7385">
<rect x="2" y="2" width="108" height="108" rx="8" fill="white"/>
</clipPath>
</defs>
</svg>
