<svg width="112" height="112" viewBox="0 0 112 112" fill="none" xmlns="http://www.w3.org/2000/svg">
<g clip-path="url(#clip0_302_1295)">
<rect x="2" y="2" width="108" height="108" rx="8" fill="white"/>
<circle cx="56" cy="56" r="36" fill="#012A31"/>
<g clip-path="url(#clip1_302_1295)">
<path d="M46.265 33.5509C45.6369 33.7322 45.0038 33.8985 44.3831 34.0996C32.3368 37.9826 31.433 50.5727 36.1503 56.9882C38.9186 60.7545 42.7445 62.6141 47.3302 62.994C49.0557 63.1355 50.7986 63.0237 52.534 63.0734C56.3848 63.1851 58.947 65.0273 59.6844 68.1705C60.5707 71.9517 59.0885 75.45 55.7988 77.2077C53.0033 78.6999 49.9619 78.9953 46.8833 78.6751C34.323 77.3666 25.5588 67.3214 25.9735 54.7934C26.3186 44.3062 34.4893 35.1647 44.9144 33.6031C45.3539 33.536 45.7933 33.474 46.2328 33.4069C46.2427 33.4541 46.2551 33.5037 46.265 33.5509Z" fill="#AFEE01"/>
<path d="M68.2798 43.472V34.0524C74.1962 39.9093 80.1722 45.8232 86.0737 51.6651C81.0983 56.5884 75.8944 61.7352 70.7353 66.8373C70.6111 66.1048 70.4944 65.1093 70.266 64.136C68.6125 57.0775 62.6787 52.3851 55.0641 52.1244C53.2889 52.0624 51.5088 52.1443 49.7361 52.0723C47.2136 51.9705 45.4806 50.451 45.287 48.2786C45.0288 45.3788 46.7071 43.5167 49.7609 43.4919C55.3372 43.4447 60.9159 43.4745 66.4947 43.472C67.0285 43.472 67.5623 43.472 68.2798 43.472Z" fill="#AFEE01"/>
</g>
</g>
<rect x="1" y="1" width="110" height="110" rx="9" stroke="#CCCCCC" stroke-width="2"/>
<defs>
<clipPath id="clip0_302_1295">
<rect x="2" y="2" width="108" height="108" rx="8" fill="white"/>
</clipPath>
<clipPath id="clip1_302_1295">
<rect width="60.1175" height="45.3848" fill="white" transform="translate(25.9586 33.4069)"/>
</clipPath>
</defs>
</svg>
