<svg width="112" height="112" viewBox="0 0 112 112" fill="none" xmlns="http://www.w3.org/2000/svg">
<g clip-path="url(#clip0_518_551)">
<rect x="2" y="2" width="108" height="108" rx="8" fill="white"/>
<path d="M55.9972 92.7266C53.9798 93.8344 51.8827 94.7569 49.6793 95.4291C49.0804 95.6119 48.475 95.7753 47.872 95.9451C47.3818 96.0836 46.9197 95.9041 46.46 95.7898C42.6425 94.8439 39.0408 93.3626 35.6645 91.3468C32.0443 89.1853 28.8499 86.5061 26.0637 83.3391C22.8106 79.6408 20.3182 75.4853 18.5753 70.8821C17.3992 67.7755 16.6328 64.5698 16.2399 61.2684C16.0153 59.383 15.9718 57.4968 16.0218 55.6042C16.1522 55.1695 16.1369 54.7147 16.2021 54.2711C16.5813 51.6942 17.2776 49.2115 18.337 46.827C19.9535 43.1882 22.2318 40.0269 25.1919 37.3743C28.0063 34.8521 31.2232 33.0166 34.8748 31.9878C36.6893 31.4766 38.5385 31.161 40.4303 31.1683C41.9494 31.1739 43.4645 31.1554 44.961 30.8535C43.7269 31.4694 42.4856 32.0675 41.315 32.8073C39.0376 34.2475 37.0315 35.9961 35.2886 38.0449C32.9105 40.8407 31.108 43.9683 29.9399 47.4541C29.2074 49.6421 28.7429 51.8826 28.5593 54.1866C28.2856 57.6224 28.6092 60.9995 29.572 64.3026C30.7321 68.281 32.6843 71.8401 35.4295 74.9531C37.8172 77.6605 40.6195 79.834 43.863 81.4296C44.8854 82.0052 45.985 82.4021 47.0775 82.8143C47.2352 82.8738 47.3818 82.8561 47.5395 82.7925C50.8667 81.4457 53.6747 79.3897 55.9763 76.6373C57.5678 74.6907 58.8148 72.5485 59.6794 70.1817C60.5078 67.9139 60.92 65.5737 60.9763 63.1675C60.994 62.4228 61.0158 61.6774 60.9425 60.9343C60.9385 60.399 60.9353 59.8636 60.9296 59.3291C60.9047 56.8987 60.7348 54.4748 60.5134 52.0572C60.251 49.1921 59.863 46.3407 59.3163 43.5142C58.9203 41.4671 58.4646 39.4327 57.6193 37.5144C57.2828 36.7504 56.9536 35.9655 56.2452 35.4414C57.3279 35.4148 58.3254 35.7642 59.2858 36.1997C62.5172 37.6617 65.0852 39.919 67.1284 42.801C69.2464 45.7885 70.8621 49.0231 71.9473 52.5193C72.6565 54.8064 73.1218 57.1434 73.3432 59.5303C73.4905 61.1187 73.5316 62.7094 73.4616 64.3002C73.3432 67.0043 72.9174 69.6609 72.1719 72.2651C71.35 75.1391 70.1698 77.8569 68.6467 80.4274C68.4567 80.7478 68.2619 81.0666 68.0695 81.3853C68.0042 81.4683 67.9326 81.548 67.8746 81.6357C66.1664 84.2271 64.1473 86.5504 61.8184 88.5992C60.0232 90.1787 58.0637 91.5328 55.994 92.7274L55.9972 92.7266Z" fill="#F47921"/>
<path d="M55.9972 92.7266C58.0677 91.532 60.0264 90.1779 61.8216 88.5984C64.1506 86.5496 66.1704 84.2263 67.8779 81.6349C67.9358 81.5472 68.0075 81.4683 68.0727 81.3845C68.6338 81.2686 69.0927 80.9329 69.57 80.6536C74.2143 77.9382 77.8047 74.2077 80.3148 69.4443C81.7856 66.6525 82.7291 63.6867 83.204 60.5704C83.4939 58.6714 83.5212 56.7586 83.4729 54.8459C83.5003 54.8861 83.4987 54.895 83.4705 54.8716C83.4617 54.8644 83.452 54.8507 83.452 54.8402C83.4745 54.1326 83.4262 53.4266 83.4021 52.7198C83.3409 50.9165 83.1751 49.1229 82.9561 47.3349C82.7041 45.2749 82.3419 43.2333 81.8717 41.2094C81.082 37.8098 79.9759 34.5245 78.4302 31.3921C76.6277 27.7397 74.3125 24.4656 71.2654 21.7373C69.8598 20.4783 68.3367 19.3818 66.6784 18.477C64.8187 17.4626 62.8561 16.7284 60.7791 16.3018C61.6429 16.268 62.4793 16.4716 63.3166 16.6286C67.1356 17.3443 70.7736 18.5953 74.2223 20.3897C78.101 22.4079 81.5553 24.9921 84.5984 28.1341C87.5271 31.1578 89.9228 34.5559 91.7897 38.3234C93.5994 41.975 94.8142 45.8174 95.4832 49.8418C95.9912 52.8993 96.0982 55.9745 95.9211 59.053C95.6225 64.247 94.3352 69.202 92.1021 73.9074C89.1009 80.2301 84.7553 85.4363 79.0799 89.5202C74.7746 92.618 70.02 94.7481 64.8501 95.9459C64.409 96.0482 64.0016 95.9194 63.5895 95.8083C60.9337 95.0894 58.3954 94.0823 55.9972 92.7266Z" fill="#006EB8"/>
<path d="M56.2476 35.4398C56.956 35.9639 57.2853 36.7488 57.6218 37.5127C58.4678 39.4311 58.9227 41.4654 59.3188 43.5126C59.8662 46.3391 60.2542 49.1897 60.5158 52.0556C60.7372 54.4739 60.9071 56.8971 60.932 59.3275C60.9377 59.8628 60.9409 60.3982 60.9449 60.9327C60.8499 60.853 60.8644 60.7395 60.8523 60.6357C60.6318 58.6464 60.1689 56.7168 59.4097 54.8644C58.9211 53.6713 58.3471 52.525 57.4076 51.6064C56.4907 50.7096 55.4667 50.7153 54.5441 51.6169C54.1392 52.013 53.793 52.4549 53.5113 52.9428C51.8561 55.8103 51.1308 58.9411 50.9939 62.2119C50.878 64.9949 51.357 67.699 52.3246 70.3137C53.182 72.6298 54.4177 74.7269 55.9779 76.6373C53.6771 79.3897 50.8683 81.4457 47.5412 82.7925C47.3826 82.8569 47.2369 82.8746 47.0791 82.8143C45.9858 82.4021 44.887 82.0052 43.8646 81.4296C43.809 81.0714 43.5538 80.8178 43.3783 80.5264C41.5453 77.4801 40.2194 74.2262 39.395 70.7726C38.6544 67.6708 38.3549 64.5175 38.495 61.3336C38.6955 56.7562 39.734 52.3744 41.6862 48.218C42.9203 45.5904 44.3911 43.1069 46.3231 40.9325C48.3695 38.6293 50.7814 36.818 53.7294 35.8037C54.5409 35.5243 55.3741 35.3271 56.2476 35.4398Z" fill="#006EB8"/>
<path d="M44.9634 30.8535C43.4669 31.1554 41.951 31.1739 40.4327 31.1683C38.5409 31.161 36.6909 31.4758 34.8772 31.9878C31.2256 33.0166 28.0087 34.8521 25.1943 37.3743C22.2342 40.0268 19.9559 43.1882 18.3394 46.827C17.28 49.2115 16.5837 51.6942 16.2045 54.2711C16.1393 54.7146 16.1546 55.1695 16.0242 55.6042C15.9509 54.3701 16.0684 53.1432 16.2029 51.9204C16.5652 48.6407 17.301 45.4455 18.4465 42.3494C20.2337 37.5192 22.8267 33.172 26.2601 29.3264C29.1905 26.0435 32.5635 23.3096 36.3826 21.1279C39.6172 19.2804 43.0483 17.9134 46.6701 17.0464C49.1037 16.4644 51.5727 16.082 54.0844 16.0071C54.4161 15.9975 54.5345 16.0957 54.5739 16.4008C55.2461 21.5152 53.4549 25.6071 49.4265 28.758C48.1683 29.7426 46.7418 30.3995 45.1856 30.7714C45.1092 30.7899 45.0375 30.8253 44.9634 30.8535Z" fill="#006EB8"/>
<path d="M60.7791 16.3018C62.8553 16.7276 64.8187 17.4618 66.6784 18.477C68.3367 19.3818 69.8598 20.4783 71.2654 21.7373C74.3125 24.4656 76.6277 27.7397 78.4302 31.3921C79.9759 34.5245 81.082 37.8098 81.8717 41.2094C82.3419 43.2333 82.7041 45.2749 82.9561 47.3349C83.1751 49.1229 83.3409 50.9165 83.4021 52.7198C83.4262 53.4266 83.4745 54.1326 83.452 54.8402C83.452 54.8507 83.4617 54.8644 83.4705 54.8716C83.4987 54.895 83.5003 54.8861 83.4729 54.8459C83.3393 53.1682 83.1179 51.5082 82.7243 49.8708C81.6125 45.2459 79.4252 41.1748 76.3347 37.5876C73.526 34.3272 70.1191 31.8703 66.0706 30.389C63.4945 29.4463 61.341 27.982 59.7028 25.7899C57.8174 23.2669 56.9906 20.43 57.2965 17.2807C57.3279 16.9611 57.3722 16.6431 57.406 16.3243C57.4318 16.0796 57.5211 15.9967 57.8045 16.0007C58.806 16.0152 59.7913 16.1609 60.7775 16.3034L60.7791 16.3018Z" fill="#F47921"/>
</g>
<rect x="1" y="1" width="110" height="110" rx="9" stroke="#CCCCCC" stroke-width="2"/>
<defs>
<clipPath id="clip0_518_551">
<rect x="2" y="2" width="108" height="108" rx="8" fill="white"/>
</clipPath>
</defs>
</svg>
