<svg width="112" height="112" viewBox="0 0 112 112" fill="none" xmlns="http://www.w3.org/2000/svg">
<g clip-path="url(#clip0_511_149)">
<rect x="2" y="2" width="108" height="108" rx="8" fill="white"/>
<g clip-path="url(#clip1_511_149)">
<path d="M93.1971 39H18.8029C17.2549 39 16 40.2549 16 41.8029V71.0809C16 72.6289 17.2549 73.8838 18.8029 73.8838H93.1971C94.7451 73.8838 96 72.6289 96 71.0809V41.8029C96 40.2549 94.7451 39 93.1971 39Z" fill="#0255A3"/>
<path d="M93.1938 40.2007H18.8028C17.918 40.2007 17.2007 40.918 17.2007 41.8029V71.0809C17.2007 71.9657 17.918 72.683 18.8028 72.683H93.1938C94.0786 72.683 94.7959 71.9657 94.7959 71.0809V41.8029C94.7959 40.918 94.0786 40.2007 93.1938 40.2007Z" fill="white"/>
<path d="M41.3256 48.6063L42.2791 46.6413H33.3407H31.8573H31.045L22.0745 64.4894H24.3701L28.6435 55.9876H35.2157L36.1693 54.0226H29.6324L32.355 48.6063H41.3256Z" fill="#0255A3"/>
<path d="M78.0878 51.4445H77.9144H75.4775H67.3417L65.8359 53.6566H73.0567L61.2222 64.4894H63.8581H71.3101L72.7838 62.7364H65.7717L78.0878 51.4445Z" fill="#0255A3"/>
<path d="M91.0043 51.4445H90.8309H88.394H80.2582L78.7524 53.6566H85.9732L74.1387 64.4894H76.7746H84.2266L85.7003 62.7364H78.6882L91.0043 51.4445Z" fill="#0255A3"/>
<path d="M45.3872 45.0392H51.3205L43.9392 57.6153H47.8594L38.5356 69.4819L43.4094 59.3812H38.9595L45.3872 45.0392Z" fill="#F5A61C"/>
<path d="M62.6093 51.0688C57.5172 50.0928 55.2408 52.3178 52.059 55.6023C47.9975 60.3701 48.8259 63.6899 50.0459 64.5921C53.0126 66.5699 57.0741 63.4074 57.0741 63.4074V64.6788H59.3344C59.3344 64.6788 59.4757 62.7877 59.4757 61.9594C59.4757 61.131 59.7229 60.8292 60.0054 60.1582C60.5705 58.5689 64.3687 51.9453 64.3687 51.9453C64.3687 51.9453 63.4601 51.255 62.6093 51.0688ZM61.219 54.0579C61.219 54.0579 58.5574 60.6751 55.5683 62.4153C53.5424 63.5936 52.3416 63.4523 51.8022 62.6978C51.2596 61.9433 50.6945 60.8132 52.4604 57.8465C54.2262 54.8799 56.676 53.114 59.2413 52.4301C59.9476 52.2407 62.1469 52.0127 61.219 54.0547V54.0579Z" fill="#0255A3"/>
</g>
</g>
<rect x="1" y="1" width="110" height="110" rx="9" stroke="black" stroke-opacity="0.1" stroke-width="2"/>
<defs>
<clipPath id="clip0_511_149">
<rect x="2" y="2" width="108" height="108" rx="8" fill="white"/>
</clipPath>
<clipPath id="clip1_511_149">
<rect width="80" height="34.8838" fill="white" transform="translate(16 39)"/>
</clipPath>
</defs>
</svg>
