<svg width="112" height="112" viewBox="0 0 112 112" fill="none" xmlns="http://www.w3.org/2000/svg">
<g clip-path="url(#clip0_630_788)">
<rect x="2" y="2" width="108" height="108" rx="8" fill="white"/>
<path d="M17.5442 46.3821H94.4558C95.0239 46.3821 95.4856 46.8437 95.4856 47.4118V73.1452C95.4856 73.7133 95.0239 74.175 94.4558 74.175H17.5442C16.976 74.175 16.5144 73.7133 16.5144 73.1452V47.4118C16.5144 46.8437 16.976 46.3821 17.5442 46.3821Z" fill="white"/>
<path d="M94.4558 74.6894H17.5442C16.6925 74.6894 16 73.9969 16 73.1452V47.4108C16 46.5592 16.6925 45.8667 17.5442 45.8667H94.4558C95.3075 45.8667 96 46.5592 96 47.4108V73.1452C96 73.9969 95.3075 74.6894 94.4558 74.6894ZM17.5442 46.8964C17.2606 46.8964 17.0298 47.1273 17.0298 47.4108V73.1452C17.0298 73.4288 17.2606 73.6596 17.5442 73.6596H94.4558C94.7394 73.6596 94.9702 73.4288 94.9702 73.1452V47.4108C94.9702 47.1273 94.7394 46.8964 94.4558 46.8964H17.5442Z" fill="#0061BC"/>
<path d="M63.7318 40.4402C59.4843 35.7122 53.4072 33 47.0574 33C40.7076 33 34.6304 35.7122 30.383 40.4402C29.2776 41.672 29.3791 43.5733 30.6108 44.6797C31.163 45.1752 31.8754 45.4488 32.6167 45.4488C33.0326 45.4488 33.4395 45.3602 33.8136 45.1981C33.4654 45.7612 33.3102 46.4179 33.3808 47.0875C33.4654 47.8854 33.8554 48.6018 34.4772 49.1052C35.0095 49.537 35.6801 49.7738 36.3656 49.7738C36.8402 49.7738 37.2979 49.6614 37.7088 49.4555C37.68 49.5002 37.6491 49.543 37.6213 49.5878C36.7517 50.9956 37.1895 52.8492 38.5973 53.7188C39.062 54.0064 39.5943 54.1586 40.1395 54.1656L35.0812 65.3637C34.7936 66.0005 34.8483 66.7407 35.2274 67.3278C35.6065 67.9148 36.2582 68.27 36.9566 68.27H38.3247L34.5946 75.8535C34.129 76.7997 34.4543 77.9449 35.3468 78.505C35.6861 78.7179 36.0652 78.8204 36.4403 78.8204C37.0541 78.8204 37.6591 78.5468 38.062 78.0314L47.9688 65.3796C48.4543 64.7598 48.5438 63.9171 48.1986 63.2087C47.8533 62.5003 47.135 62.0515 46.348 62.0515H45.5152L51.2213 52.5C51.277 52.5806 51.3317 52.6612 51.3834 52.7458C51.9346 53.6372 52.8898 54.1695 53.9375 54.1695C54.4956 54.1695 55.0429 54.0133 55.5155 53.7208C56.9233 52.8502 57.3611 50.9966 56.4905 49.5888C56.4627 49.544 56.4318 49.5022 56.403 49.4574C56.8139 49.6634 57.2705 49.7758 57.7461 49.7758C58.4317 49.7758 59.1023 49.538 59.6336 49.1082C60.2574 48.6038 60.6474 47.8864 60.732 47.0885C60.8026 46.4189 60.6484 45.7622 60.2992 45.1991C60.6733 45.3622 61.0802 45.4498 61.4971 45.4498C62.2383 45.4498 62.9507 45.1772 63.5029 44.6807C64.7347 43.5743 64.8362 41.673 63.7298 40.4412L63.7318 40.4402Z" fill="white"/>
<path d="M22.5478 68.8281L27.0081 59.993H33.7837L34.728 58.02H27.9513L30.9531 52.5309H40.2171V50.3857H29.7522L20.3171 68.8281H22.5478Z" fill="#0061BC"/>
<path d="M56.3433 55.5326C52.1117 57.5912 48.509 62.8236 48.509 66.0542C48.509 69.2848 51.7118 71.3722 56.6288 67.4551V68.8271H59.0306C59.0306 68.8271 59.0336 66.88 59.1162 65.7965C59.2595 63.938 64.0591 55.7037 64.0591 55.7037C64.0591 55.7037 60.5748 53.4741 56.3433 55.5326ZM52.655 67.4551C48.4951 67.4551 52.3973 60.5502 54.6707 58.5344C56.9442 56.5186 60.7837 55.8142 61.0752 56.7335C61.3618 57.634 60.2823 59.8726 59.7171 60.9083C59.1381 61.969 56.8149 67.4551 52.655 67.4551Z" fill="#0061BC"/>
<path d="M65.7565 57.3981L67.43 55.254H78.2372L65.5426 66.8552H72.941L71.2038 68.849H60.6106L73.5927 57.423L65.7565 57.3981Z" fill="#0061BC"/>
<path d="M79.3057 57.3981L80.9782 55.254H91.7854L79.0908 66.8552H86.4893L84.7521 68.849H74.1588L87.141 57.423L79.3057 57.3981Z" fill="#0061BC"/>
<path d="M43.777 51.115H49.6522L41.8896 64.1101H46.35L36.4433 76.7619L41.6329 66.2114H36.9576L43.777 51.115Z" fill="#FAA50C"/>
<path d="M53.9404 52.11C53.6241 52.11 53.3156 51.9508 53.1365 51.6623C51.8232 49.537 49.5507 48.2685 47.0574 48.2685C44.564 48.2685 42.2916 49.537 40.9782 51.6623C40.7046 52.106 40.1226 52.2423 39.6798 51.9687C39.2361 51.6951 39.0998 51.114 39.3734 50.6703C41.033 47.9849 43.9054 46.3821 47.0574 46.3821C50.2094 46.3821 53.0818 47.9849 54.7414 50.6703C55.015 51.114 54.8777 51.6951 54.4349 51.9687C54.2807 52.0642 54.1096 52.11 53.9404 52.11Z" fill="#0061BC"/>
<path d="M31.9142 41.8162C31.566 42.2043 31.5978 42.8002 31.9859 43.1485C32.3739 43.4967 32.9709 43.4649 33.3181 43.0768C36.8183 39.1806 41.8259 36.9449 47.0574 36.9449V35.0585C41.2916 35.0585 35.7727 37.521 31.9142 41.8162Z" fill="#FAA50C"/>
<path d="M35.6334 46.1791C35.305 46.584 35.3677 47.178 35.7736 47.5064C36.1786 47.8337 36.7726 47.772 37.1009 47.3661C39.5475 44.3424 43.1771 42.6082 47.0584 42.6082V40.7208C42.605 40.7208 38.4391 42.7107 35.6334 46.1791Z" fill="#FAA50C"/>
<path d="M60.7967 43.0768C60.9837 43.2838 61.2404 43.3902 61.4991 43.3902C61.724 43.3902 61.9488 43.3106 62.1289 43.1485C62.5169 42.8002 62.5488 42.2033 62.2005 41.8162C58.3421 37.522 52.8231 35.0585 47.0574 35.0585V36.9449C52.2888 36.9449 57.2964 39.1796 60.7967 43.0768Z" fill="#0061BC"/>
<path d="M57.0149 47.3661C57.2009 47.5969 57.4735 47.7163 57.7491 47.7163C57.9571 47.7163 58.168 47.6476 58.3421 47.5064C58.7471 47.179 58.8097 46.585 58.4824 46.1791C55.6756 42.7107 51.5118 40.7208 47.0584 40.7208V42.6082C50.9397 42.6082 54.5683 44.3424 57.0149 47.3661Z" fill="#0061BC"/>
</g>
<rect x="1" y="1" width="110" height="110" rx="9" stroke="black" stroke-opacity="0.1" stroke-width="2"/>
<defs>
<clipPath id="clip0_630_788">
<rect x="2" y="2" width="108" height="108" rx="8" fill="white"/>
</clipPath>
</defs>
</svg>
