<svg width="112" height="112" viewBox="0 0 112 112" fill="none" xmlns="http://www.w3.org/2000/svg">
<g clip-path="url(#clip0_511_150)">
<rect x="2" y="2" width="108" height="108" rx="8" fill="white"/>
<path fill-rule="evenodd" clip-rule="evenodd" d="M53.8993 48.0013H55.7229V64.0312H51.96V49.9599C51.96 48.8831 52.8344 48.0013 53.8993 48.0013Z" fill="#29458F"/>
<path fill-rule="evenodd" clip-rule="evenodd" d="M94.1763 48.0013H95.9999V64.0312H92.2297V49.9599C92.2297 48.8831 93.1042 48.0013 94.1763 48.0013Z" fill="#29458F"/>
<path fill-rule="evenodd" clip-rule="evenodd" d="M57.725 48.9385V48.0905H72.6323V50.897L62.2179 61.2223H72.3986V64.0288H57.5732V61.2223L67.9876 50.897H59.6643C58.5923 50.897 57.725 50.0153 57.725 48.9385Z" fill="#29458F"/>
<path fill-rule="evenodd" clip-rule="evenodd" d="M75.0364 48.9385V48.0905H89.9509V50.897L79.5365 61.2223H89.7172V64.0288H74.8918V61.2223L85.3062 50.897H76.9757C75.9085 50.897 75.0364 50.0153 75.0364 48.9385Z" fill="#29458F"/>
<path fill-rule="evenodd" clip-rule="evenodd" d="M37.6888 50.6344H43.0634C44.2655 50.6344 45.5013 51.627 45.5013 52.8411C45.5013 54.0553 44.463 55.0478 43.22 55.0478H37.6888V50.6344ZM35.8314 48.0013H37.655H43.4175C43.4175 48.0013 47.6454 47.8568 48.9222 50.5742C50.1918 53.2989 48.226 55.3128 48.226 55.3128C48.226 55.3128 47.3852 56.0717 46.518 56.2789H46.3541C47.4888 56.6715 48.3151 57.3894 48.6018 58.3001C48.8885 59.2035 48.8885 60.5212 48.8885 62.0727C48.8885 63.6169 49.6112 63.9132 49.6112 63.9132H45.4194C45.0701 63.5615 44.8943 62.0992 44.8654 60.9259C44.8389 59.76 44.6341 58.8855 44.6341 58.8855C44.3474 57.5051 41.9986 57.6858 41.9986 57.6858H37.655V64.0312H33.8921V49.9599C33.8921 48.8831 34.7666 48.0013 35.8314 48.0013Z" fill="#29458F"/>
<path fill-rule="evenodd" clip-rule="evenodd" d="M19.7364 50.8007H25.0292C26.1975 50.8007 27.113 51.4969 27.125 52.5255C27.1467 53.6361 25.9639 54.3396 24.9135 54.3396H19.7364V50.8007ZM17.9393 48.1097H19.7629H25.152C28.0212 48.1097 31.1602 49.2275 31.0325 52.4075C30.9699 53.7445 29.7967 55.0021 28.5343 55.455C29.2787 55.6886 30.0978 56.062 30.7121 56.6474C31.7022 57.5846 31.9287 59.7648 31.312 60.9789C31.0446 61.5089 30.2954 62.6412 28.8547 63.2748C27.9658 63.6602 26.6071 63.8963 25.4266 63.971C23.6174 64.0818 21.5962 63.9854 19.7654 63.9854H16V50.0659C16 48.9939 16.8745 48.1097 17.9393 48.1097ZM19.7364 56.9679H25.4724C26.7227 56.9679 27.7056 57.8086 27.7249 59.0372C27.7466 60.3694 26.4746 61.2102 25.3496 61.2102H19.7364V56.9679Z" fill="#29458F"/>
</g>
<rect x="1" y="1" width="110" height="110" rx="9" stroke="black" stroke-opacity="0.1" stroke-width="2"/>
<defs>
<clipPath id="clip0_511_150">
<rect x="2" y="2" width="108" height="108" rx="8" fill="white"/>
</clipPath>
</defs>
</svg>
