<svg width="112" height="112" viewBox="0 0 112 112" fill="none" xmlns="http://www.w3.org/2000/svg">
<g clip-path="url(#clip0_630_786)">
<rect x="2" y="2" width="108" height="108" rx="8" fill="white"/>
<g clip-path="url(#clip1_630_786)">
<path fill-rule="evenodd" clip-rule="evenodd" d="M95.1666 61.9395H96.0001V49.2299H95.1666V54.7351C94.4555 53.788 93.4092 53.1876 92.2376 53.1876C90.0955 53.1876 88.3615 55.1985 88.3615 57.6758C88.3615 60.153 90.0985 62.1639 92.2376 62.1639C93.4063 62.1639 94.4555 61.5636 95.1666 60.6164V61.9366V61.9395ZM75.7888 53.788L76.0424 53.6772C76.6602 53.3945 77.8347 52.8583 79.0733 53.1818C80.1604 53.4674 80.7229 54.1231 81.0172 54.9508C81.2883 55.7144 81.3087 56.6033 81.3057 57.4659C81.3057 58.4306 81.2912 59.3923 81.2795 60.185C81.2679 60.9982 81.2591 61.6277 81.2679 61.89C80.3615 61.9249 80.4402 61.6597 80.4431 61.2779C80.4431 61.1905 80.4431 61.0972 80.4431 60.9982C80.1371 61.4033 79.7699 61.6918 79.3414 61.89C78.5108 62.2717 77.6015 62.2834 76.8788 62.0561L76.8613 62.0473C76.5815 61.957 76.3367 61.8288 76.1298 61.6685C75.6926 61.3362 75.4245 60.8787 75.305 60.3774C75.1914 59.8907 75.2205 59.3632 75.3837 58.8619C75.4915 58.5326 75.6547 58.2149 75.8704 57.9322C76.8234 56.6849 78.9014 56.4459 80.4635 56.5858C80.4402 56.0991 80.379 55.6299 80.2362 55.2277C80.0292 54.6448 79.63 54.1843 78.8576 53.9803C78.3505 53.8463 77.8347 53.9133 77.3801 54.0386C76.8875 54.1756 76.6077 54.3446 76.1531 54.5107L75.7801 53.7909L75.7888 53.788ZM80.4693 59.4798C80.4781 58.8503 80.4839 58.1566 80.4868 57.4659V57.3085C79.2394 57.224 77.2373 57.5067 76.532 58.4306C76.3717 58.6404 76.2522 58.8736 76.1735 59.1155C76.0569 59.4739 76.0336 59.8499 76.1123 60.1909C76.1881 60.5144 76.36 60.8058 76.634 61.0156C76.768 61.1177 76.9312 61.2051 77.1207 61.2663L77.1352 61.2721C77.6832 61.4441 78.3768 61.4353 79.0092 61.1439C79.6037 60.8699 80.1458 60.3453 80.4722 59.4798H80.4693ZM73.9119 53.6772C72.3848 53.0681 71.7757 53.1381 70.9597 53.1963C69.1906 53.3246 67.7422 54.8226 67.4041 56.7869C67.2555 57.6379 67.3225 58.5238 67.6081 59.3399C68.1531 60.9049 69.4383 62.0299 70.9597 62.1406C71.7728 62.1989 72.3848 62.2659 73.9119 61.6597L73.5709 60.9399C72.7811 61.2983 71.7291 61.4936 70.8635 61.3508C69.8493 61.1818 68.9954 60.392 68.5582 59.3049C68.2376 58.5034 68.1677 57.6 68.3425 56.7548C68.6427 55.3034 69.6365 54.1931 70.8635 53.9861C71.7291 53.8404 72.7811 54.0386 73.5709 54.3971L73.9119 53.6772ZM84.7884 61.8929V56.781C84.9342 55.2743 86.0883 54.1027 87.6941 54.0386V53.2313C86.3884 53.141 85.3334 53.7646 84.7884 54.7322V53.3187H83.9549V61.8929H84.7884ZM95.1666 56.4459V58.9056C94.7527 60.357 93.6307 61.3974 92.3105 61.3974C90.6405 61.3974 89.2853 59.7304 89.2853 57.6728C89.2853 55.6153 90.6405 53.9483 92.3105 53.9483C93.6307 53.9483 94.7557 54.9887 95.1666 56.443V56.4459Z" fill="#F8EE6B"/>
<path fill-rule="evenodd" clip-rule="evenodd" d="M63.4551 49.2211H66.2179V61.9337H63.4551V49.2211ZM32.854 56.408H37.5433V58.1683H32.854V56.408ZM39.7349 62.0765H43.5003L43.8179 50.8211H44.6485L44.9662 62.0765H48.7316L46.8664 50.8211H51.9637L51.2351 49.0113H46.5662L46.1903 46.741H44.532L44.5961 49.0113H43.8675L43.9316 46.741H42.2733L41.8974 49.0113H37.2285L36.4999 50.8211H41.5972L39.732 62.0765H39.7349ZM53.8347 52.9952C56.3644 52.9952 58.4132 55.047 58.4132 57.5737C58.4132 60.1005 56.3615 62.1523 53.8347 62.1523C51.3079 62.1523 49.2562 60.1034 49.2562 57.5737C49.2562 55.0441 51.3079 52.9952 53.8347 52.9952ZM53.8347 55.8747C52.8963 55.8747 52.1356 56.6353 52.1356 57.5737C52.1356 58.5122 52.8963 59.2728 53.8347 59.2728C54.7731 59.2728 55.5338 58.5122 55.5338 57.5737C55.5338 56.6353 54.7731 55.8747 53.8347 55.8747ZM59.3312 49.2211H62.0941V61.9337H59.3312V49.2211Z" fill="#231F20"/>
<path fill-rule="evenodd" clip-rule="evenodd" d="M17.5183 56.9093C17.6728 56.9093 17.801 57.0346 17.801 57.192C17.801 57.3494 17.6757 57.4747 17.5183 57.4747C17.3609 57.4747 17.2356 57.3494 17.2356 57.192C17.2356 57.0346 17.3609 56.9093 17.5183 56.9093Z" fill="#C0C0C0"/>
<path fill-rule="evenodd" clip-rule="evenodd" d="M18.8007 56.7957C19.0192 56.7957 19.197 56.9734 19.197 57.192C19.197 57.4106 19.0192 57.5884 18.8007 57.5884C18.5821 57.5884 18.4043 57.4106 18.4043 57.192C18.4043 56.9734 18.5821 56.7957 18.8007 56.7957Z" fill="#C0C0C0"/>
<path fill-rule="evenodd" clip-rule="evenodd" d="M20.0976 56.4926C20.4853 56.4926 20.7971 56.8073 20.7971 57.192C20.7971 57.5767 20.4823 57.8915 20.0976 57.8915C19.7129 57.8915 19.3982 57.5767 19.3982 57.192C19.3982 56.8073 19.7129 56.4926 20.0976 56.4926Z" fill="#C0C0C0"/>
<path fill-rule="evenodd" clip-rule="evenodd" d="M21.4032 56.3381C21.8754 56.3381 22.2571 56.7199 22.2571 57.192C22.2571 57.6641 21.8754 58.0459 21.4032 58.0459C20.9311 58.0459 20.5493 57.6641 20.5493 57.192C20.5493 56.7199 20.9311 56.3381 21.4032 56.3381Z" fill="#C0C0C0"/>
<path fill-rule="evenodd" clip-rule="evenodd" d="M22.7001 56.2448C23.2247 56.2448 23.6502 56.6703 23.6502 57.1949C23.6502 57.7195 23.2247 58.145 22.7001 58.145C22.1755 58.145 21.75 57.7195 21.75 57.1949C21.75 56.6703 22.1755 56.2448 22.7001 56.2448Z" fill="#C0C0C0"/>
<path fill-rule="evenodd" clip-rule="evenodd" d="M24.0261 56.1691C24.5915 56.1691 25.052 56.6266 25.052 57.1949C25.052 57.7632 24.5944 58.2208 24.0261 58.2208C23.4578 58.2208 23.0002 57.7632 23.0002 57.1949C23.0002 56.6266 23.4578 56.1691 24.0261 56.1691Z" fill="#C0C0C0"/>
<path fill-rule="evenodd" clip-rule="evenodd" d="M30.5079 56.8306C30.3068 56.8306 30.1465 56.9938 30.1465 57.192C30.1465 57.3902 30.3097 57.5534 30.5079 57.5534C30.706 57.5534 30.8722 57.3902 30.8722 57.192C30.8722 56.9938 30.709 56.8306 30.5079 56.8306Z" fill="#C0C0C0"/>
<path fill-rule="evenodd" clip-rule="evenodd" d="M29.2255 56.7111C28.9603 56.7111 28.7446 56.9268 28.7446 57.192C28.7446 57.4572 28.9603 57.6729 29.2255 57.6729C29.4907 57.6729 29.7064 57.4572 29.7064 57.192C29.7064 56.9268 29.4907 56.7111 29.2255 56.7111Z" fill="#C0C0C0"/>
<path fill-rule="evenodd" clip-rule="evenodd" d="M27.9287 56.4926C27.5411 56.4926 27.2292 56.8073 27.2292 57.192C27.2292 57.5767 27.544 57.8915 27.9287 57.8915C28.3134 57.8915 28.6311 57.5767 28.6311 57.192C28.6311 56.8073 28.3163 56.4926 27.9287 56.4926Z" fill="#C0C0C0"/>
<path fill-rule="evenodd" clip-rule="evenodd" d="M26.623 56.3381C26.1508 56.3381 25.769 56.7199 25.769 57.192C25.769 57.6641 26.1508 58.0459 26.623 58.0459C27.0951 58.0459 27.4769 57.6641 27.4769 57.192C27.4769 56.7199 27.0951 56.3381 26.623 56.3381Z" fill="#C0C0C0"/>
<path fill-rule="evenodd" clip-rule="evenodd" d="M25.3261 56.2448C24.8015 56.2448 24.376 56.6703 24.376 57.1949C24.376 57.7195 24.8015 58.145 25.3261 58.145C25.8507 58.145 26.2762 57.7195 26.2762 57.1949C26.2762 56.6703 25.8507 56.2448 25.3261 56.2448Z" fill="#C0C0C0"/>
<path fill-rule="evenodd" clip-rule="evenodd" d="M17.5184 51.5876C17.6116 51.5876 17.6903 51.6634 17.6903 51.7596C17.6903 51.8558 17.6146 51.9315 17.5184 51.9315C17.4222 51.9315 17.3464 51.8558 17.3464 51.7596C17.3464 51.6634 17.4222 51.5876 17.5184 51.5876Z" fill="#C0C0C0"/>
<path fill-rule="evenodd" clip-rule="evenodd" d="M18.8008 51.5381C18.9232 51.5381 19.0223 51.6372 19.0223 51.7596C19.0223 51.882 18.9232 51.9811 18.8008 51.9811C18.6784 51.9811 18.5793 51.882 18.5793 51.7596C18.5793 51.6372 18.6784 51.5381 18.8008 51.5381Z" fill="#C0C0C0"/>
<path fill-rule="evenodd" clip-rule="evenodd" d="M20.0975 51.4099C20.2899 51.4099 20.4473 51.5672 20.4473 51.7596C20.4473 51.9519 20.2899 52.1093 20.0975 52.1093C19.9052 52.1093 19.7478 51.9519 19.7478 51.7596C19.7478 51.5672 19.9052 51.4099 20.0975 51.4099Z" fill="#C0C0C0"/>
<path fill-rule="evenodd" clip-rule="evenodd" d="M21.4033 51.334C21.6393 51.334 21.8288 51.5235 21.8288 51.7595C21.8288 51.9956 21.6393 52.185 21.4033 52.185C21.1672 52.185 20.9778 51.9956 20.9778 51.7595C20.9778 51.5235 21.1672 51.334 21.4033 51.334Z" fill="#C0C0C0"/>
<path fill-rule="evenodd" clip-rule="evenodd" d="M22.7001 51.2845C22.9624 51.2845 23.1752 51.4973 23.1752 51.7596C23.1752 52.0219 22.9624 52.2346 22.7001 52.2346C22.4378 52.2346 22.2251 52.0219 22.2251 51.7596C22.2251 51.4973 22.4378 51.2845 22.7001 51.2845Z" fill="#C0C0C0"/>
<path fill-rule="evenodd" clip-rule="evenodd" d="M24.0261 51.2C24.3088 51.2 24.539 51.4302 24.539 51.7129C24.539 51.9956 24.3088 52.2259 24.0261 52.2259C23.7434 52.2259 23.5132 51.9956 23.5132 51.7129C23.5132 51.4302 23.7434 51.2 24.0261 51.2Z" fill="#C0C0C0"/>
<path fill-rule="evenodd" clip-rule="evenodd" d="M30.5079 51.5876C30.4146 51.5876 30.3359 51.6634 30.3359 51.7596C30.3359 51.8558 30.4117 51.9315 30.5079 51.9315C30.6041 51.9315 30.6798 51.8558 30.6798 51.7596C30.6798 51.6634 30.6041 51.5876 30.5079 51.5876Z" fill="#C0C0C0"/>
<path fill-rule="evenodd" clip-rule="evenodd" d="M29.2254 51.5381C29.103 51.5381 29.0039 51.6372 29.0039 51.7596C29.0039 51.882 29.103 51.9811 29.2254 51.9811C29.3478 51.9811 29.4469 51.882 29.4469 51.7596C29.4469 51.6372 29.3478 51.5381 29.2254 51.5381Z" fill="#C0C0C0"/>
<path fill-rule="evenodd" clip-rule="evenodd" d="M27.9286 51.4099C27.7362 51.4099 27.5789 51.5672 27.5789 51.7596C27.5789 51.9519 27.7362 52.1093 27.9286 52.1093C28.1209 52.1093 28.2783 51.9519 28.2783 51.7596C28.2783 51.5672 28.1209 51.4099 27.9286 51.4099Z" fill="#C0C0C0"/>
<path fill-rule="evenodd" clip-rule="evenodd" d="M26.623 51.334C26.3869 51.334 26.1975 51.5235 26.1975 51.7595C26.1975 51.9956 26.3899 52.185 26.623 52.185C26.8562 52.185 27.0485 51.9956 27.0485 51.7595C27.0485 51.5235 26.8562 51.334 26.623 51.334Z" fill="#C0C0C0"/>
<path fill-rule="evenodd" clip-rule="evenodd" d="M25.3261 51.2845C25.0638 51.2845 24.8511 51.4973 24.8511 51.7596C24.8511 52.0219 25.0638 52.2346 25.3261 52.2346C25.5884 52.2346 25.8012 52.0219 25.8012 51.7596C25.8012 51.4973 25.5884 51.2845 25.3261 51.2845Z" fill="#C0C0C0"/>
<path fill-rule="evenodd" clip-rule="evenodd" d="M17.5185 52.8088C17.6321 52.8088 17.7225 52.902 17.7225 53.0128C17.7225 53.1235 17.6292 53.2168 17.5185 53.2168C17.4077 53.2168 17.3145 53.1235 17.3145 53.0128C17.3145 52.902 17.4048 52.8088 17.5185 52.8088Z" fill="#C0C0C0"/>
<path fill-rule="evenodd" clip-rule="evenodd" d="M18.8007 52.7272C18.9581 52.7272 19.0893 52.8554 19.0893 53.0157C19.0893 53.176 18.961 53.3042 18.8007 53.3042C18.6404 53.3042 18.5122 53.176 18.5122 53.0157C18.5122 52.8554 18.6404 52.7272 18.8007 52.7272Z" fill="#C0C0C0"/>
<path fill-rule="evenodd" clip-rule="evenodd" d="M20.0977 52.596C20.3279 52.596 20.5173 52.7825 20.5173 53.0128C20.5173 53.243 20.3308 53.4324 20.0977 53.4324C19.8645 53.4324 19.6809 53.2459 19.6809 53.0128C19.6809 52.7796 19.8674 52.596 20.0977 52.596Z" fill="#C0C0C0"/>
<path fill-rule="evenodd" clip-rule="evenodd" d="M21.4033 52.5027C21.686 52.5027 21.9133 52.7301 21.9133 53.0128C21.9133 53.2955 21.686 53.5228 21.4033 53.5228C21.1206 53.5228 20.8933 53.2955 20.8933 53.0128C20.8933 52.7301 21.1206 52.5027 21.4033 52.5027Z" fill="#C0C0C0"/>
<path fill-rule="evenodd" clip-rule="evenodd" d="M22.7002 52.4474C23.012 52.4474 23.2655 52.7009 23.2655 53.0128C23.2655 53.3246 23.012 53.5782 22.7002 53.5782C22.3883 53.5782 22.1348 53.3246 22.1348 53.0128C22.1348 52.7009 22.3883 52.4474 22.7002 52.4474Z" fill="#C0C0C0"/>
<path fill-rule="evenodd" clip-rule="evenodd" d="M24.0263 52.4008C24.3644 52.4008 24.6384 52.6747 24.6384 53.0128C24.6384 53.3508 24.3644 53.6248 24.0263 53.6248C23.6883 53.6248 23.4143 53.3508 23.4143 53.0128C23.4143 52.6747 23.6883 52.4008 24.0263 52.4008Z" fill="#C0C0C0"/>
<path fill-rule="evenodd" clip-rule="evenodd" d="M30.5077 52.8088C30.3941 52.8088 30.3037 52.902 30.3037 53.0128C30.3037 53.1235 30.397 53.2168 30.5077 53.2168C30.6185 53.2168 30.7117 53.1235 30.7117 53.0128C30.7117 52.902 30.6214 52.8088 30.5077 52.8088Z" fill="#C0C0C0"/>
<path fill-rule="evenodd" clip-rule="evenodd" d="M29.2255 52.7272C29.0652 52.7272 28.937 52.8554 28.937 53.0157C28.937 53.176 29.0652 53.3042 29.2255 53.3042C29.3858 53.3042 29.5141 53.176 29.5141 53.0157C29.5141 52.8554 29.3858 52.7272 29.2255 52.7272Z" fill="#C0C0C0"/>
<path fill-rule="evenodd" clip-rule="evenodd" d="M27.9285 52.596C27.6982 52.596 27.5117 52.7825 27.5117 53.0128C27.5117 53.243 27.6982 53.4324 27.9285 53.4324C28.1587 53.4324 28.3481 53.2459 28.3481 53.0128C28.3481 52.7796 28.1616 52.596 27.9285 52.596Z" fill="#C0C0C0"/>
<path fill-rule="evenodd" clip-rule="evenodd" d="M26.6231 52.5027C26.3404 52.5027 26.113 52.7301 26.113 53.0128C26.113 53.2955 26.3404 53.5228 26.6231 53.5228C26.9058 53.5228 27.1331 53.2955 27.1331 53.0128C27.1331 52.7301 26.9058 52.5027 26.6231 52.5027Z" fill="#C0C0C0"/>
<path fill-rule="evenodd" clip-rule="evenodd" d="M25.3261 52.4474C25.0114 52.4474 24.7607 52.7009 24.7607 53.0128C24.7607 53.3246 25.0143 53.5782 25.3261 53.5782C25.638 53.5782 25.8915 53.3246 25.8915 53.0128C25.8915 52.7009 25.638 52.4474 25.3261 52.4474Z" fill="#C0C0C0"/>
<path fill-rule="evenodd" clip-rule="evenodd" d="M20.0977 50.18C20.2463 50.18 20.3688 50.2995 20.3688 50.4481C20.3688 50.5968 20.2493 50.7192 20.0977 50.7192C19.9462 50.7192 19.8296 50.5997 19.8296 50.4481C19.8296 50.2966 19.9491 50.18 20.0977 50.18Z" fill="#C0C0C0"/>
<path fill-rule="evenodd" clip-rule="evenodd" d="M21.4034 50.0897C21.6016 50.0897 21.7619 50.25 21.7619 50.4481C21.7619 50.6463 21.6016 50.8066 21.4034 50.8066C21.2052 50.8066 21.0449 50.6463 21.0449 50.4481C21.0449 50.25 21.2052 50.0897 21.4034 50.0897Z" fill="#C0C0C0"/>
<path fill-rule="evenodd" clip-rule="evenodd" d="M22.7003 50.0488C22.9218 50.0488 23.0996 50.2266 23.0996 50.4481C23.0996 50.6696 22.9218 50.8474 22.7003 50.8474C22.4788 50.8474 22.301 50.6696 22.301 50.4481C22.301 50.2266 22.4788 50.0488 22.7003 50.0488Z" fill="#C0C0C0"/>
<path fill-rule="evenodd" clip-rule="evenodd" d="M24.0263 50.0197C24.2653 50.0197 24.4576 50.2121 24.4576 50.451C24.4576 50.69 24.2653 50.8824 24.0263 50.8824C23.7873 50.8824 23.595 50.69 23.595 50.451C23.595 50.2121 23.7873 50.0197 24.0263 50.0197Z" fill="#C0C0C0"/>
<path fill-rule="evenodd" clip-rule="evenodd" d="M27.9285 50.18C27.7799 50.18 27.6604 50.2995 27.6604 50.4481C27.6604 50.5968 27.7799 50.7192 27.9285 50.7192C28.0772 50.7192 28.1996 50.5997 28.1996 50.4481C28.1996 50.2966 28.0801 50.18 27.9285 50.18Z" fill="#C0C0C0"/>
<path fill-rule="evenodd" clip-rule="evenodd" d="M26.6229 50.0897C26.4247 50.0897 26.2644 50.25 26.2644 50.4481C26.2644 50.6463 26.4247 50.8066 26.6229 50.8066C26.8211 50.8066 26.9813 50.6463 26.9813 50.4481C26.9813 50.25 26.8211 50.0897 26.6229 50.0897Z" fill="#C0C0C0"/>
<path fill-rule="evenodd" clip-rule="evenodd" d="M25.326 50.0488C25.1045 50.0488 24.9268 50.2266 24.9268 50.4481C24.9268 50.6696 25.1045 50.8474 25.326 50.8474C25.5475 50.8474 25.7253 50.6696 25.7253 50.4481C25.7253 50.2266 25.5475 50.0488 25.326 50.0488Z" fill="#C0C0C0"/>
<path fill-rule="evenodd" clip-rule="evenodd" d="M18.8006 50.2791C18.8968 50.2791 18.9726 50.3548 18.9726 50.451C18.9726 50.5472 18.8968 50.623 18.8006 50.623C18.7044 50.623 18.6287 50.5472 18.6287 50.451C18.6287 50.3548 18.7044 50.2791 18.8006 50.2791Z" fill="#C0C0C0"/>
<path fill-rule="evenodd" clip-rule="evenodd" d="M29.2254 50.2791C29.3187 50.2791 29.3974 50.3548 29.3974 50.451C29.3974 50.5472 29.3216 50.623 29.2254 50.623C29.1292 50.623 29.0535 50.5472 29.0535 50.451C29.0535 50.3548 29.1292 50.2791 29.2254 50.2791Z" fill="#C0C0C0"/>
<path fill-rule="evenodd" clip-rule="evenodd" d="M17.5183 54.1406C17.6466 54.1406 17.7486 54.2426 17.7486 54.3709C17.7486 54.4991 17.6466 54.6011 17.5183 54.6011C17.3901 54.6011 17.2881 54.4991 17.2881 54.3709C17.2881 54.2426 17.393 54.1406 17.5183 54.1406Z" fill="#C0C0C0"/>
<path fill-rule="evenodd" clip-rule="evenodd" d="M18.8008 54.0474C18.9786 54.0474 19.1243 54.1931 19.1243 54.3709C19.1243 54.5486 18.9786 54.6944 18.8008 54.6944C18.623 54.6944 18.4773 54.5486 18.4773 54.3709C18.4773 54.1931 18.623 54.0474 18.8008 54.0474Z" fill="#C0C0C0"/>
<path fill-rule="evenodd" clip-rule="evenodd" d="M20.0976 53.8987C20.357 53.8987 20.5698 54.1086 20.5698 54.3709C20.5698 54.6332 20.3599 54.8401 20.0976 54.8401C19.8353 54.8401 19.6284 54.6303 19.6284 54.3709C19.6284 54.1115 19.8383 53.8987 20.0976 53.8987Z" fill="#C0C0C0"/>
<path fill-rule="evenodd" clip-rule="evenodd" d="M21.4032 53.7968C21.7209 53.7968 21.9774 54.0532 21.9774 54.3709C21.9774 54.6886 21.7209 54.945 21.4032 54.945C21.0856 54.945 20.8291 54.6886 20.8291 54.3709C20.8291 54.0532 21.0856 53.7968 21.4032 53.7968Z" fill="#C0C0C0"/>
<path fill-rule="evenodd" clip-rule="evenodd" d="M22.7003 53.7326C23.0529 53.7326 23.3385 54.0182 23.3385 54.3709C23.3385 54.7235 23.0529 55.0091 22.7003 55.0091C22.3476 55.0091 22.062 54.7235 22.062 54.3709C22.062 54.0182 22.3476 53.7326 22.7003 53.7326Z" fill="#C0C0C0"/>
<path fill-rule="evenodd" clip-rule="evenodd" d="M24.0262 53.683C24.405 53.683 24.714 53.992 24.714 54.3708C24.714 54.7497 24.405 55.0586 24.0262 55.0586C23.6473 55.0586 23.3384 54.7497 23.3384 54.3708C23.3384 53.992 23.6473 53.683 24.0262 53.683Z" fill="#C0C0C0"/>
<path fill-rule="evenodd" clip-rule="evenodd" d="M30.5079 54.1086C30.3622 54.1086 30.2456 54.2252 30.2456 54.3709C30.2456 54.5166 30.3622 54.6332 30.5079 54.6332C30.6536 54.6332 30.7702 54.5166 30.7702 54.3709C30.7702 54.2252 30.6536 54.1086 30.5079 54.1086Z" fill="#C0C0C0"/>
<path fill-rule="evenodd" clip-rule="evenodd" d="M29.2256 54.0474C29.0478 54.0474 28.9021 54.1931 28.9021 54.3709C28.9021 54.5486 29.0478 54.6944 29.2256 54.6944C29.4034 54.6944 29.5491 54.5486 29.5491 54.3709C29.5491 54.1931 29.4034 54.0474 29.2256 54.0474Z" fill="#C0C0C0"/>
<path fill-rule="evenodd" clip-rule="evenodd" d="M27.9287 53.8987C27.6693 53.8987 27.4595 54.1086 27.4595 54.3709C27.4595 54.6332 27.6693 54.8401 27.9287 54.8401C28.1881 54.8401 28.4008 54.6303 28.4008 54.3709C28.4008 54.1115 28.191 53.8987 27.9287 53.8987Z" fill="#C0C0C0"/>
<path fill-rule="evenodd" clip-rule="evenodd" d="M26.623 53.7968C26.3053 53.7968 26.0488 54.0532 26.0488 54.3709C26.0488 54.6886 26.3053 54.945 26.623 54.945C26.9406 54.945 27.1971 54.6886 27.1971 54.3709C27.1971 54.0532 26.9406 53.7968 26.623 53.7968Z" fill="#C0C0C0"/>
<path fill-rule="evenodd" clip-rule="evenodd" d="M25.326 53.7326C24.9734 53.7326 24.6877 54.0182 24.6877 54.3709C24.6877 54.7235 24.9734 55.0091 25.326 55.0091C25.6786 55.0091 25.9642 54.7235 25.9642 54.3709C25.9642 54.0182 25.6786 53.7326 25.326 53.7326Z" fill="#C0C0C0"/>
<path fill-rule="evenodd" clip-rule="evenodd" d="M17.5183 55.4259C17.6728 55.4259 17.801 55.5512 17.801 55.7086C17.801 55.866 17.6757 55.9913 17.5183 55.9913C17.3609 55.9913 17.2356 55.866 17.2356 55.7086C17.2356 55.5512 17.3609 55.4259 17.5183 55.4259Z" fill="#C0C0C0"/>
<path fill-rule="evenodd" clip-rule="evenodd" d="M18.8007 55.3122C19.0192 55.3122 19.197 55.49 19.197 55.7086C19.197 55.9271 19.0192 56.1049 18.8007 56.1049C18.5821 56.1049 18.4043 55.9271 18.4043 55.7086C18.4043 55.49 18.5821 55.3122 18.8007 55.3122Z" fill="#C0C0C0"/>
<path fill-rule="evenodd" clip-rule="evenodd" d="M20.0976 55.1315C20.4152 55.1315 20.6746 55.388 20.6746 55.7057C20.6746 56.0233 20.4182 56.2827 20.0976 56.2827C19.777 56.2827 19.5234 56.0262 19.5234 55.7057C19.5234 55.3851 19.7799 55.1315 20.0976 55.1315Z" fill="#C0C0C0"/>
<path fill-rule="evenodd" clip-rule="evenodd" d="M21.4033 55.0062C21.7909 55.0062 22.1057 55.321 22.1057 55.7086C22.1057 56.0962 21.7909 56.411 21.4033 56.411C21.0157 56.411 20.7009 56.0962 20.7009 55.7086C20.7009 55.321 21.0157 55.0062 21.4033 55.0062Z" fill="#C0C0C0"/>
<path fill-rule="evenodd" clip-rule="evenodd" d="M22.7002 54.9275C23.1316 54.9275 23.4813 55.2772 23.4813 55.7085C23.4813 56.1399 23.1316 56.4896 22.7002 56.4896C22.2689 56.4896 21.9192 56.1399 21.9192 55.7085C21.9192 55.2772 22.2689 54.9275 22.7002 54.9275Z" fill="#C0C0C0"/>
<path fill-rule="evenodd" clip-rule="evenodd" d="M24.0263 54.8663C24.4897 54.8663 24.8686 55.2423 24.8686 55.7086C24.8686 56.1749 24.4926 56.5508 24.0263 56.5508C23.56 56.5508 23.1841 56.1749 23.1841 55.7086C23.1841 55.2423 23.56 54.8663 24.0263 54.8663Z" fill="#C0C0C0"/>
<path fill-rule="evenodd" clip-rule="evenodd" d="M30.5079 55.3443C30.3068 55.3443 30.1465 55.5075 30.1465 55.7057C30.1465 55.9039 30.3097 56.0671 30.5079 56.0671C30.706 56.0671 30.8722 55.9039 30.8722 55.7057C30.8722 55.5075 30.709 55.3443 30.5079 55.3443Z" fill="#C0C0C0"/>
<path fill-rule="evenodd" clip-rule="evenodd" d="M29.2255 55.3122C29.0069 55.3122 28.8291 55.49 28.8291 55.7086C28.8291 55.9271 29.0069 56.1049 29.2255 56.1049C29.444 56.1049 29.6218 55.9271 29.6218 55.7086C29.6218 55.49 29.444 55.3122 29.2255 55.3122Z" fill="#C0C0C0"/>
<path fill-rule="evenodd" clip-rule="evenodd" d="M27.9286 55.1315C27.611 55.1315 27.3545 55.388 27.3545 55.7057C27.3545 56.0233 27.611 56.2827 27.9286 56.2827C28.2463 56.2827 28.5057 56.0262 28.5057 55.7057C28.5057 55.3851 28.2492 55.1315 27.9286 55.1315Z" fill="#C0C0C0"/>
<path fill-rule="evenodd" clip-rule="evenodd" d="M26.623 55.0062C26.2354 55.0062 25.9207 55.321 25.9207 55.7086C25.9207 56.0962 26.2354 56.411 26.623 56.411C27.0106 56.411 27.3254 56.0962 27.3254 55.7086C27.3254 55.321 27.0106 55.0062 26.623 55.0062Z" fill="#C0C0C0"/>
<path fill-rule="evenodd" clip-rule="evenodd" d="M25.326 54.9275C24.8946 54.9275 24.5449 55.2772 24.5449 55.7085C24.5449 56.1399 24.8946 56.4896 25.326 56.4896C25.7573 56.4896 26.107 56.1399 26.107 55.7085C26.107 55.2772 25.7573 54.9275 25.326 54.9275Z" fill="#C0C0C0"/>
<path fill-rule="evenodd" clip-rule="evenodd" d="M17.5184 62.7964C17.6116 62.7964 17.6903 62.7206 17.6903 62.6244C17.6903 62.5282 17.6146 62.4525 17.5184 62.4525C17.4222 62.4525 17.3464 62.5282 17.3464 62.6244C17.3464 62.7206 17.4222 62.7964 17.5184 62.7964Z" fill="#C0C0C0"/>
<path fill-rule="evenodd" clip-rule="evenodd" d="M18.8008 62.8459C18.9232 62.8459 19.0223 62.7469 19.0223 62.6244C19.0223 62.502 18.9232 62.403 18.8008 62.403C18.6784 62.403 18.5793 62.502 18.5793 62.6244C18.5793 62.7469 18.6784 62.8459 18.8008 62.8459Z" fill="#C0C0C0"/>
<path fill-rule="evenodd" clip-rule="evenodd" d="M20.0975 62.9742C20.2899 62.9742 20.4473 62.8168 20.4473 62.6244C20.4473 62.4321 20.2899 62.2747 20.0975 62.2747C19.9052 62.2747 19.7478 62.4321 19.7478 62.6244C19.7478 62.8168 19.9052 62.9742 20.0975 62.9742Z" fill="#C0C0C0"/>
<path fill-rule="evenodd" clip-rule="evenodd" d="M21.4033 63.0528C21.6393 63.0528 21.8288 62.8605 21.8288 62.6273C21.8288 62.3942 21.6393 62.2018 21.4033 62.2018C21.1672 62.2018 20.9778 62.3913 20.9778 62.6273C20.9778 62.8634 21.1672 63.0528 21.4033 63.0528Z" fill="#C0C0C0"/>
<path fill-rule="evenodd" clip-rule="evenodd" d="M22.7001 63.0994C22.9624 63.0994 23.1752 62.8867 23.1752 62.6244C23.1752 62.3621 22.9624 62.1494 22.7001 62.1494C22.4378 62.1494 22.2251 62.3621 22.2251 62.6244C22.2251 62.8867 22.4378 63.0994 22.7001 63.0994Z" fill="#C0C0C0"/>
<path fill-rule="evenodd" clip-rule="evenodd" d="M24.0261 63.1869C24.3088 63.1869 24.539 62.9566 24.539 62.6739C24.539 62.3912 24.3088 62.161 24.0261 62.161C23.7434 62.161 23.5132 62.3912 23.5132 62.6739C23.5132 62.9566 23.7434 63.1869 24.0261 63.1869Z" fill="#C0C0C0"/>
<path fill-rule="evenodd" clip-rule="evenodd" d="M30.5079 62.7964C30.4146 62.7964 30.3359 62.7206 30.3359 62.6244C30.3359 62.5282 30.4117 62.4525 30.5079 62.4525C30.6041 62.4525 30.6798 62.5282 30.6798 62.6244C30.6798 62.7206 30.6041 62.7964 30.5079 62.7964Z" fill="#C0C0C0"/>
<path fill-rule="evenodd" clip-rule="evenodd" d="M29.2254 62.8459C29.103 62.8459 29.0039 62.7469 29.0039 62.6244C29.0039 62.502 29.103 62.403 29.2254 62.403C29.3478 62.403 29.4469 62.502 29.4469 62.6244C29.4469 62.7469 29.3478 62.8459 29.2254 62.8459Z" fill="#C0C0C0"/>
<path fill-rule="evenodd" clip-rule="evenodd" d="M27.9286 62.9742C27.7362 62.9742 27.5789 62.8168 27.5789 62.6244C27.5789 62.4321 27.7362 62.2747 27.9286 62.2747C28.1209 62.2747 28.2783 62.4321 28.2783 62.6244C28.2783 62.8168 28.1209 62.9742 27.9286 62.9742Z" fill="#C0C0C0"/>
<path fill-rule="evenodd" clip-rule="evenodd" d="M26.623 63.0528C26.3869 63.0528 26.1975 62.8605 26.1975 62.6273C26.1975 62.3942 26.3899 62.2018 26.623 62.2018C26.8562 62.2018 27.0485 62.3913 27.0485 62.6273C27.0485 62.8634 26.8562 63.0528 26.623 63.0528Z" fill="#C0C0C0"/>
<path fill-rule="evenodd" clip-rule="evenodd" d="M25.3261 63.0994C25.0638 63.0994 24.8511 62.8867 24.8511 62.6244C24.8511 62.3621 25.0638 62.1494 25.3261 62.1494C25.5884 62.1494 25.8012 62.3621 25.8012 62.6244C25.8012 62.8867 25.5884 63.0994 25.3261 63.0994Z" fill="#C0C0C0"/>
<path fill-rule="evenodd" clip-rule="evenodd" d="M17.5185 61.5753C17.6321 61.5753 17.7225 61.482 17.7225 61.3712C17.7225 61.2605 17.6292 61.1672 17.5185 61.1672C17.4077 61.1672 17.3145 61.2576 17.3145 61.3712C17.3145 61.4849 17.4048 61.5753 17.5185 61.5753Z" fill="#C0C0C0"/>
<path fill-rule="evenodd" clip-rule="evenodd" d="M18.8007 61.6598C18.9581 61.6598 19.0893 61.5315 19.0893 61.3712C19.0893 61.2109 18.961 61.0827 18.8007 61.0827C18.6404 61.0827 18.5122 61.2109 18.5122 61.3712C18.5122 61.5315 18.6404 61.6598 18.8007 61.6598Z" fill="#C0C0C0"/>
<path fill-rule="evenodd" clip-rule="evenodd" d="M20.0977 61.7909C20.3279 61.7909 20.5173 61.6044 20.5173 61.3712C20.5173 61.1381 20.3308 60.9545 20.0977 60.9545C19.8645 60.9545 19.6809 61.141 19.6809 61.3712C19.6809 61.6015 19.8674 61.7909 20.0977 61.7909Z" fill="#C0C0C0"/>
<path fill-rule="evenodd" clip-rule="evenodd" d="M21.4033 61.8812C21.686 61.8812 21.9133 61.6539 21.9133 61.3712C21.9133 61.0885 21.686 60.8612 21.4033 60.8612C21.1206 60.8612 20.8933 61.0885 20.8933 61.3712C20.8933 61.6539 21.1206 61.8812 21.4033 61.8812Z" fill="#C0C0C0"/>
<path fill-rule="evenodd" clip-rule="evenodd" d="M22.7002 61.9396C23.012 61.9396 23.2655 61.686 23.2655 61.3742C23.2655 61.0623 23.012 60.8088 22.7002 60.8088C22.3883 60.8088 22.1348 61.0623 22.1348 61.3742C22.1348 61.686 22.3883 61.9396 22.7002 61.9396Z" fill="#C0C0C0"/>
<path fill-rule="evenodd" clip-rule="evenodd" d="M24.0263 61.9833C24.3644 61.9833 24.6384 61.7093 24.6384 61.3712C24.6384 61.0332 24.3644 60.7592 24.0263 60.7592C23.6883 60.7592 23.4143 61.0332 23.4143 61.3712C23.4143 61.7093 23.6883 61.9833 24.0263 61.9833Z" fill="#C0C0C0"/>
<path fill-rule="evenodd" clip-rule="evenodd" d="M30.5077 61.5753C30.3941 61.5753 30.3037 61.482 30.3037 61.3712C30.3037 61.2605 30.397 61.1672 30.5077 61.1672C30.6185 61.1672 30.7117 61.2576 30.7117 61.3712C30.7117 61.4849 30.6214 61.5753 30.5077 61.5753Z" fill="#C0C0C0"/>
<path fill-rule="evenodd" clip-rule="evenodd" d="M29.2255 61.6598C29.0652 61.6598 28.937 61.5315 28.937 61.3712C28.937 61.2109 29.0652 61.0827 29.2255 61.0827C29.3858 61.0827 29.5141 61.2109 29.5141 61.3712C29.5141 61.5315 29.3858 61.6598 29.2255 61.6598Z" fill="#C0C0C0"/>
<path fill-rule="evenodd" clip-rule="evenodd" d="M27.9285 61.7909C27.6982 61.7909 27.5117 61.6044 27.5117 61.3712C27.5117 61.1381 27.6982 60.9545 27.9285 60.9545C28.1587 60.9545 28.3481 61.141 28.3481 61.3712C28.3481 61.6015 28.1616 61.7909 27.9285 61.7909Z" fill="#C0C0C0"/>
<path fill-rule="evenodd" clip-rule="evenodd" d="M26.6231 61.8812C26.3404 61.8812 26.113 61.6539 26.113 61.3712C26.113 61.0885 26.3404 60.8612 26.6231 60.8612C26.9058 60.8612 27.1331 61.0885 27.1331 61.3712C27.1331 61.6539 26.9058 61.8812 26.6231 61.8812Z" fill="#C0C0C0"/>
<path fill-rule="evenodd" clip-rule="evenodd" d="M25.3261 61.9396C25.0114 61.9396 24.7607 61.686 24.7607 61.3742C24.7607 61.0623 25.0143 60.8088 25.3261 60.8088C25.638 60.8088 25.8915 61.0623 25.8915 61.3742C25.8915 61.686 25.638 61.9396 25.3261 61.9396Z" fill="#C0C0C0"/>
<path fill-rule="evenodd" clip-rule="evenodd" d="M20.0977 64.204C20.2463 64.204 20.3688 64.0845 20.3688 63.9359C20.3688 63.7873 20.2493 63.6678 20.0977 63.6678C19.9462 63.6678 19.8296 63.7873 19.8296 63.9359C19.8296 64.0845 19.9491 64.204 20.0977 64.204Z" fill="#C0C0C0"/>
<path fill-rule="evenodd" clip-rule="evenodd" d="M21.4034 64.2943C21.6016 64.2943 21.7619 64.134 21.7619 63.9359C21.7619 63.7377 21.6016 63.5774 21.4034 63.5774C21.2052 63.5774 21.0449 63.7377 21.0449 63.9359C21.0449 64.134 21.2052 64.2943 21.4034 64.2943Z" fill="#C0C0C0"/>
<path fill-rule="evenodd" clip-rule="evenodd" d="M22.7003 64.3352C22.9218 64.3352 23.0996 64.1574 23.0996 63.9359C23.0996 63.7144 22.9218 63.5366 22.7003 63.5366C22.4788 63.5366 22.301 63.7144 22.301 63.9359C22.301 64.1574 22.4788 64.3352 22.7003 64.3352Z" fill="#C0C0C0"/>
<path fill-rule="evenodd" clip-rule="evenodd" d="M24.0263 64.3672C24.2653 64.3672 24.4576 64.1749 24.4576 63.9359C24.4576 63.6969 24.2653 63.5046 24.0263 63.5046C23.7873 63.5046 23.595 63.6969 23.595 63.9359C23.595 64.1749 23.7873 64.3672 24.0263 64.3672Z" fill="#C0C0C0"/>
<path fill-rule="evenodd" clip-rule="evenodd" d="M27.9285 64.204C27.7799 64.204 27.6604 64.0845 27.6604 63.9359C27.6604 63.7873 27.7799 63.6678 27.9285 63.6678C28.0772 63.6678 28.1996 63.7873 28.1996 63.9359C28.1996 64.0845 28.0801 64.204 27.9285 64.204Z" fill="#C0C0C0"/>
<path fill-rule="evenodd" clip-rule="evenodd" d="M26.6229 64.2943C26.4247 64.2943 26.2644 64.134 26.2644 63.9359C26.2644 63.7377 26.4247 63.5774 26.6229 63.5774C26.8211 63.5774 26.9813 63.7377 26.9813 63.9359C26.9813 64.134 26.8211 64.2943 26.6229 64.2943Z" fill="#C0C0C0"/>
<path fill-rule="evenodd" clip-rule="evenodd" d="M25.326 64.3352C25.1045 64.3352 24.9268 64.1574 24.9268 63.9359C24.9268 63.7144 25.1045 63.5366 25.326 63.5366C25.5475 63.5366 25.7253 63.7144 25.7253 63.9359C25.7253 64.1574 25.5475 64.3352 25.326 64.3352Z" fill="#C0C0C0"/>
<path fill-rule="evenodd" clip-rule="evenodd" d="M18.8006 64.1078C18.8968 64.1078 18.9726 64.032 18.9726 63.9359C18.9726 63.8397 18.8968 63.7639 18.8006 63.7639C18.7044 63.7639 18.6287 63.8397 18.6287 63.9359C18.6287 64.032 18.7044 64.1078 18.8006 64.1078Z" fill="#C0C0C0"/>
<path fill-rule="evenodd" clip-rule="evenodd" d="M29.2254 64.1078C29.3187 64.1078 29.3974 64.032 29.3974 63.9359C29.3974 63.8397 29.3216 63.7639 29.2254 63.7639C29.1292 63.7639 29.0535 63.8397 29.0535 63.9359C29.0535 64.032 29.1292 64.1078 29.2254 64.1078Z" fill="#C0C0C0"/>
<path fill-rule="evenodd" clip-rule="evenodd" d="M17.5183 60.2463C17.6466 60.2463 17.7486 60.1443 17.7486 60.0161C17.7486 59.8878 17.6466 59.7858 17.5183 59.7858C17.3901 59.7858 17.2881 59.8907 17.2881 60.0161C17.2881 60.1414 17.393 60.2463 17.5183 60.2463Z" fill="#C0C0C0"/>
<path fill-rule="evenodd" clip-rule="evenodd" d="M18.8008 60.3366C18.9786 60.3366 19.1243 60.1909 19.1243 60.0131C19.1243 59.8354 18.9786 59.6896 18.8008 59.6896C18.623 59.6896 18.4773 59.8354 18.4773 60.0131C18.4773 60.1909 18.623 60.3366 18.8008 60.3366Z" fill="#C0C0C0"/>
<path fill-rule="evenodd" clip-rule="evenodd" d="M20.0976 60.4852C20.357 60.4852 20.5698 60.2754 20.5698 60.016C20.5698 59.7567 20.3599 59.5468 20.0976 59.5468C19.8353 59.5468 19.6284 59.7567 19.6284 60.016C19.6284 60.2754 19.8383 60.4852 20.0976 60.4852Z" fill="#C0C0C0"/>
<path fill-rule="evenodd" clip-rule="evenodd" d="M21.4032 60.5872C21.7209 60.5872 21.9774 60.3308 21.9774 60.0131C21.9774 59.6954 21.7209 59.439 21.4032 59.439C21.0856 59.439 20.8291 59.6954 20.8291 60.0131C20.8291 60.3308 21.0856 60.5872 21.4032 60.5872Z" fill="#C0C0C0"/>
<path d="M22.7003 60.6514C23.0528 60.6514 23.3385 60.3656 23.3385 60.0131C23.3385 59.6606 23.0528 59.3749 22.7003 59.3749C22.3478 59.3749 22.062 59.6606 22.062 60.0131C22.062 60.3656 22.3478 60.6514 22.7003 60.6514Z" fill="#C0C0C0"/>
<path fill-rule="evenodd" clip-rule="evenodd" d="M24.0262 60.7038C24.405 60.7038 24.714 60.3949 24.714 60.016C24.714 59.6372 24.405 59.3282 24.0262 59.3282C23.6473 59.3282 23.3384 59.6372 23.3384 60.016C23.3384 60.3949 23.6473 60.7038 24.0262 60.7038Z" fill="#C0C0C0"/>
<path fill-rule="evenodd" clip-rule="evenodd" d="M30.5079 60.2783C30.3622 60.2783 30.2456 60.1617 30.2456 60.016C30.2456 59.8703 30.3622 59.7537 30.5079 59.7537C30.6536 59.7537 30.7702 59.8703 30.7702 60.016C30.7702 60.1617 30.6536 60.2783 30.5079 60.2783Z" fill="#C0C0C0"/>
<path fill-rule="evenodd" clip-rule="evenodd" d="M29.2256 60.3366C29.0478 60.3366 28.9021 60.1909 28.9021 60.0131C28.9021 59.8354 29.0478 59.6896 29.2256 59.6896C29.4034 59.6896 29.5491 59.8354 29.5491 60.0131C29.5491 60.1909 29.4034 60.3366 29.2256 60.3366Z" fill="#C0C0C0"/>
<path fill-rule="evenodd" clip-rule="evenodd" d="M27.9287 60.4852C27.6693 60.4852 27.4595 60.2754 27.4595 60.016C27.4595 59.7567 27.6693 59.5468 27.9287 59.5468C28.1881 59.5468 28.4008 59.7567 28.4008 60.016C28.4008 60.2754 28.191 60.4852 27.9287 60.4852Z" fill="#C0C0C0"/>
<path fill-rule="evenodd" clip-rule="evenodd" d="M26.623 60.5872C26.3053 60.5872 26.0488 60.3308 26.0488 60.0131C26.0488 59.6954 26.3053 59.439 26.623 59.439C26.9406 59.439 27.1971 59.6954 27.1971 60.0131C27.1971 60.3308 26.9406 60.5872 26.623 60.5872Z" fill="#C0C0C0"/>
<path fill-rule="evenodd" clip-rule="evenodd" d="M25.326 60.6514C24.9734 60.6514 24.6877 60.3658 24.6877 60.0131C24.6877 59.6605 24.9734 59.3749 25.326 59.3749C25.6786 59.3749 25.9642 59.6605 25.9642 60.0131C25.9642 60.3658 25.6786 60.6514 25.326 60.6514Z" fill="#C0C0C0"/>
<path fill-rule="evenodd" clip-rule="evenodd" d="M17.5183 58.961C17.6728 58.961 17.801 58.8357 17.801 58.6783C17.801 58.5209 17.6757 58.3956 17.5183 58.3956C17.3609 58.3956 17.2356 58.5209 17.2356 58.6783C17.2356 58.8357 17.3609 58.961 17.5183 58.961Z" fill="#C0C0C0"/>
<path fill-rule="evenodd" clip-rule="evenodd" d="M18.8007 59.0718C19.0192 59.0718 19.197 58.894 19.197 58.6754C19.197 58.4568 19.0192 58.2791 18.8007 58.2791C18.5821 58.2791 18.4043 58.4568 18.4043 58.6754C18.4043 58.894 18.5821 59.0718 18.8007 59.0718Z" fill="#C0C0C0"/>
<path fill-rule="evenodd" clip-rule="evenodd" d="M20.0976 59.2525C20.4152 59.2525 20.6746 58.996 20.6746 58.6754C20.6746 58.3549 20.4182 58.0984 20.0976 58.0984C19.777 58.0984 19.5234 58.3549 19.5234 58.6754C19.5234 58.996 19.7799 59.2525 20.0976 59.2525Z" fill="#C0C0C0"/>
<path fill-rule="evenodd" clip-rule="evenodd" d="M21.4033 59.3778C21.7909 59.3778 22.1057 59.063 22.1057 58.6754C22.1057 58.2878 21.7909 57.973 21.4033 57.973C21.0157 57.973 20.7009 58.2878 20.7009 58.6754C20.7009 59.063 21.0157 59.3778 21.4033 59.3778Z" fill="#C0C0C0"/>
<path fill-rule="evenodd" clip-rule="evenodd" d="M22.7002 59.4565C23.1316 59.4565 23.4813 59.1067 23.4813 58.6754C23.4813 58.2441 23.1316 57.8943 22.7002 57.8943C22.2689 57.8943 21.9192 58.2441 21.9192 58.6754C21.9192 59.1067 22.2689 59.4565 22.7002 59.4565Z" fill="#C0C0C0"/>
<path fill-rule="evenodd" clip-rule="evenodd" d="M24.0263 59.5206C24.4897 59.5206 24.8686 59.1446 24.8686 58.6783C24.8686 58.212 24.4926 57.8361 24.0263 57.8361C23.56 57.8361 23.1841 58.212 23.1841 58.6783C23.1841 59.1446 23.56 59.5206 24.0263 59.5206Z" fill="#C0C0C0"/>
<path fill-rule="evenodd" clip-rule="evenodd" d="M30.5079 59.0397C30.3068 59.0397 30.1465 58.8765 30.1465 58.6783C30.1465 58.4802 30.3097 58.317 30.5079 58.317C30.706 58.317 30.8722 58.4802 30.8722 58.6783C30.8722 58.8765 30.709 59.0397 30.5079 59.0397Z" fill="#C0C0C0"/>
<path fill-rule="evenodd" clip-rule="evenodd" d="M29.2255 59.0718C29.0069 59.0718 28.8291 58.894 28.8291 58.6754C28.8291 58.4568 29.0069 58.2791 29.2255 58.2791C29.444 58.2791 29.6218 58.4568 29.6218 58.6754C29.6218 58.894 29.444 59.0718 29.2255 59.0718Z" fill="#C0C0C0"/>
<path fill-rule="evenodd" clip-rule="evenodd" d="M27.9286 59.2525C27.611 59.2525 27.3545 58.996 27.3545 58.6754C27.3545 58.3549 27.611 58.0984 27.9286 58.0984C28.2463 58.0984 28.5057 58.3549 28.5057 58.6754C28.5057 58.996 28.2492 59.2525 27.9286 59.2525Z" fill="#C0C0C0"/>
<path fill-rule="evenodd" clip-rule="evenodd" d="M26.623 59.3778C26.2354 59.3778 25.9207 59.063 25.9207 58.6754C25.9207 58.2878 26.2354 57.973 26.623 57.973C27.0106 57.973 27.3254 58.2878 27.3254 58.6754C27.3254 59.063 27.0106 59.3778 26.623 59.3778Z" fill="#C0C0C0"/>
<path fill-rule="evenodd" clip-rule="evenodd" d="M25.326 59.4565C24.8946 59.4565 24.5449 59.1067 24.5449 58.6754C24.5449 58.2441 24.8946 57.8943 25.326 57.8943C25.7573 57.8943 26.107 58.2441 26.107 58.6754C26.107 59.1067 25.7573 59.4565 25.326 59.4565Z" fill="#C0C0C0"/>
<path fill-rule="evenodd" clip-rule="evenodd" d="M20.0977 49.1483C20.1997 49.1483 20.2813 49.2299 20.2813 49.3319C20.2813 49.4339 20.1997 49.5155 20.0977 49.5155C19.9957 49.5155 19.9141 49.4339 19.9141 49.3319C19.9141 49.2299 19.9957 49.1483 20.0977 49.1483Z" fill="#C0C0C0"/>
<path fill-rule="evenodd" clip-rule="evenodd" d="M21.4033 49.0871C21.5402 49.0871 21.651 49.1978 21.651 49.3348C21.651 49.4718 21.5402 49.5796 21.4033 49.5796C21.2663 49.5796 21.1584 49.4689 21.1584 49.3348C21.1584 49.2008 21.2692 49.0871 21.4033 49.0871Z" fill="#C0C0C0"/>
<path fill-rule="evenodd" clip-rule="evenodd" d="M22.7002 49.0609C22.8518 49.0609 22.9742 49.1833 22.9742 49.3348C22.9742 49.4864 22.8518 49.6088 22.7002 49.6088C22.5487 49.6088 22.4263 49.4864 22.4263 49.3348C22.4263 49.1833 22.5487 49.0609 22.7002 49.0609Z" fill="#C0C0C0"/>
<path fill-rule="evenodd" clip-rule="evenodd" d="M24.0263 49.0375C24.1895 49.0375 24.3206 49.1687 24.3206 49.3319C24.3206 49.4951 24.1866 49.6262 24.0263 49.6262C23.866 49.6262 23.729 49.4951 23.729 49.3319C23.729 49.1687 23.8602 49.0375 24.0263 49.0375Z" fill="#C0C0C0"/>
<path fill-rule="evenodd" clip-rule="evenodd" d="M27.9285 49.1483C27.8265 49.1483 27.7449 49.2299 27.7449 49.3319C27.7449 49.4339 27.8265 49.5155 27.9285 49.5155C28.0305 49.5155 28.1121 49.4339 28.1121 49.3319C28.1121 49.2299 28.0305 49.1483 27.9285 49.1483Z" fill="#C0C0C0"/>
<path fill-rule="evenodd" clip-rule="evenodd" d="M26.623 49.0871C26.486 49.0871 26.3752 49.1978 26.3752 49.3348C26.3752 49.4718 26.486 49.5796 26.623 49.5796C26.7599 49.5796 26.8678 49.4689 26.8678 49.3348C26.8678 49.2008 26.757 49.0871 26.623 49.0871Z" fill="#C0C0C0"/>
<path fill-rule="evenodd" clip-rule="evenodd" d="M25.326 49.0609C25.1744 49.0609 25.052 49.1833 25.052 49.3348C25.052 49.4864 25.1744 49.6088 25.326 49.6088C25.4775 49.6088 25.5999 49.4864 25.5999 49.3348C25.5999 49.1833 25.4775 49.0609 25.326 49.0609Z" fill="#C0C0C0"/>
<path fill-rule="evenodd" clip-rule="evenodd" d="M18.8007 49.2153C18.8648 49.2153 18.9172 49.2678 18.9172 49.3319C18.9172 49.396 18.8648 49.4485 18.8007 49.4485C18.7365 49.4485 18.6841 49.396 18.6841 49.3319C18.6841 49.2678 18.7365 49.2153 18.8007 49.2153Z" fill="#C0C0C0"/>
<path fill-rule="evenodd" clip-rule="evenodd" d="M29.2255 49.2153C29.2896 49.2153 29.342 49.2678 29.342 49.3319C29.342 49.396 29.2896 49.4485 29.2255 49.4485C29.1613 49.4485 29.1089 49.396 29.1089 49.3319C29.1089 49.2678 29.1613 49.2153 29.2255 49.2153Z" fill="#C0C0C0"/>
<path fill-rule="evenodd" clip-rule="evenodd" d="M20.0977 48.0029C20.1705 48.0029 20.2317 48.0641 20.2317 48.137C20.2317 48.2099 20.1705 48.2711 20.0977 48.2711C20.0248 48.2711 19.9636 48.2099 19.9636 48.137C19.9636 48.0641 20.0248 48.0029 20.0977 48.0029Z" fill="#C0C0C0"/>
<path fill-rule="evenodd" clip-rule="evenodd" d="M21.4034 47.9563C21.5025 47.9563 21.5811 48.035 21.5811 48.1341C21.5811 48.2332 21.5025 48.3119 21.4034 48.3119C21.3043 48.3119 21.2256 48.2332 21.2256 48.1341C21.2256 48.035 21.3043 47.9563 21.4034 47.9563Z" fill="#C0C0C0"/>
<path fill-rule="evenodd" clip-rule="evenodd" d="M22.7001 47.9388C22.8109 47.9388 22.8983 48.0291 22.8983 48.137C22.8983 48.2448 22.8109 48.3351 22.7001 48.3351C22.5894 48.3351 22.502 48.2448 22.502 48.137C22.502 48.0291 22.5894 47.9388 22.7001 47.9388Z" fill="#C0C0C0"/>
<path fill-rule="evenodd" clip-rule="evenodd" d="M24.0262 47.9213C24.1457 47.9213 24.2419 48.0175 24.2419 48.137C24.2419 48.2565 24.1457 48.3527 24.0262 48.3527C23.9067 48.3527 23.8105 48.2565 23.8105 48.137C23.8105 48.0175 23.9067 47.9213 24.0262 47.9213Z" fill="#C0C0C0"/>
<path fill-rule="evenodd" clip-rule="evenodd" d="M27.9285 48.0029C27.8556 48.0029 27.7944 48.0641 27.7944 48.137C27.7944 48.2099 27.8556 48.2711 27.9285 48.2711C28.0014 48.2711 28.0626 48.2099 28.0626 48.137C28.0626 48.0641 28.0014 48.0029 27.9285 48.0029Z" fill="#C0C0C0"/>
<path fill-rule="evenodd" clip-rule="evenodd" d="M26.6228 47.9563C26.5238 47.9563 26.4451 48.035 26.4451 48.1341C26.4451 48.2332 26.5238 48.3119 26.6228 48.3119C26.7219 48.3119 26.8006 48.2332 26.8006 48.1341C26.8006 48.035 26.7219 47.9563 26.6228 47.9563Z" fill="#C0C0C0"/>
<path fill-rule="evenodd" clip-rule="evenodd" d="M25.3261 47.9388C25.2154 47.9388 25.1279 48.0291 25.1279 48.137C25.1279 48.2448 25.2154 48.3351 25.3261 48.3351C25.4369 48.3351 25.5243 48.2448 25.5243 48.137C25.5243 48.0291 25.4369 47.9388 25.3261 47.9388Z" fill="#C0C0C0"/>
<path fill-rule="evenodd" clip-rule="evenodd" d="M20.0977 64.9122C20.1705 64.9122 20.2317 64.9734 20.2317 65.0463C20.2317 65.1192 20.1705 65.1804 20.0977 65.1804C20.0248 65.1804 19.9636 65.1192 19.9636 65.0463C19.9636 64.9734 20.0248 64.9122 20.0977 64.9122Z" fill="#C0C0C0"/>
<path fill-rule="evenodd" clip-rule="evenodd" d="M21.4034 64.8656C21.5025 64.8656 21.5811 64.9443 21.5811 65.0434C21.5811 65.1425 21.5025 65.2212 21.4034 65.2212C21.3043 65.2212 21.2256 65.1425 21.2256 65.0434C21.2256 64.9443 21.3043 64.8656 21.4034 64.8656Z" fill="#C0C0C0"/>
<path fill-rule="evenodd" clip-rule="evenodd" d="M22.7001 64.8481C22.8109 64.8481 22.8983 64.9355 22.8983 65.0463C22.8983 65.157 22.8109 65.2444 22.7001 65.2444C22.5894 65.2444 22.502 65.157 22.502 65.0463C22.502 64.9355 22.5894 64.8481 22.7001 64.8481Z" fill="#C0C0C0"/>
<path fill-rule="evenodd" clip-rule="evenodd" d="M24.0262 64.8306C24.1457 64.8306 24.2419 64.9268 24.2419 65.0463C24.2419 65.1658 24.1457 65.262 24.0262 65.262C23.9067 65.262 23.8105 65.1658 23.8105 65.0463C23.8105 64.9268 23.9067 64.8306 24.0262 64.8306Z" fill="#C0C0C0"/>
<path fill-rule="evenodd" clip-rule="evenodd" d="M26.6228 64.8656C26.5238 64.8656 26.4451 64.9443 26.4451 65.0434C26.4451 65.1425 26.5238 65.2212 26.6228 65.2212C26.7219 65.2212 26.8006 65.1425 26.8006 65.0434C26.8006 64.9443 26.7219 64.8656 26.6228 64.8656Z" fill="#C0C0C0"/>
<path fill-rule="evenodd" clip-rule="evenodd" d="M25.3261 64.8481C25.2154 64.8481 25.1279 64.9355 25.1279 65.0463C25.1279 65.157 25.2154 65.2444 25.3261 65.2444C25.4369 65.2444 25.5243 65.157 25.5243 65.0463C25.5243 64.9355 25.4369 64.8481 25.3261 64.8481Z" fill="#C0C0C0"/>
<path fill-rule="evenodd" clip-rule="evenodd" d="M16.2069 56.985C16.3206 56.985 16.4138 57.0783 16.4138 57.192C16.4138 57.3056 16.3206 57.3989 16.2069 57.3989C16.0933 57.3989 16 57.3056 16 57.192C16 57.0783 16.0933 56.985 16.2069 56.985Z" fill="#C0C0C0"/>
<path fill-rule="evenodd" clip-rule="evenodd" d="M16.207 52.8612C16.2915 52.8612 16.3585 52.9282 16.3585 53.0128C16.3585 53.0973 16.2915 53.1643 16.207 53.1643C16.1225 53.1643 16.0554 53.0973 16.0554 53.0128C16.0554 52.9282 16.1225 52.8612 16.207 52.8612Z" fill="#C0C0C0"/>
<path fill-rule="evenodd" clip-rule="evenodd" d="M16.2069 54.2018C16.3001 54.2018 16.3759 54.2776 16.3759 54.3709C16.3759 54.4641 16.3001 54.5399 16.2069 54.5399C16.1136 54.5399 16.0378 54.4641 16.0378 54.3709C16.0378 54.2776 16.1136 54.2018 16.2069 54.2018Z" fill="#C0C0C0"/>
<path fill-rule="evenodd" clip-rule="evenodd" d="M16.2069 55.4987C16.3206 55.4987 16.4138 55.592 16.4138 55.7056C16.4138 55.8193 16.3206 55.9126 16.2069 55.9126C16.0933 55.9126 16 55.8193 16 55.7056C16 55.592 16.0933 55.4987 16.2069 55.4987Z" fill="#C0C0C0"/>
<path fill-rule="evenodd" clip-rule="evenodd" d="M16.207 61.5228C16.2915 61.5228 16.3585 61.4557 16.3585 61.3712C16.3585 61.2867 16.2915 61.2197 16.207 61.2197C16.1225 61.2197 16.0554 61.2867 16.0554 61.3712C16.0554 61.4557 16.1225 61.5228 16.207 61.5228Z" fill="#C0C0C0"/>
<path fill-rule="evenodd" clip-rule="evenodd" d="M16.2069 60.1851C16.3001 60.1851 16.3759 60.1093 16.3759 60.016C16.3759 59.9228 16.3001 59.847 16.2069 59.847C16.1136 59.847 16.0378 59.9228 16.0378 60.016C16.0378 60.1093 16.1136 60.1851 16.2069 60.1851Z" fill="#C0C0C0"/>
<path fill-rule="evenodd" clip-rule="evenodd" d="M16.2069 58.8853C16.3206 58.8853 16.4138 58.792 16.4138 58.6784C16.4138 58.5647 16.3206 58.4714 16.2069 58.4714C16.0933 58.4714 16 58.5647 16 58.6784C16 58.792 16.0933 58.8853 16.2069 58.8853Z" fill="#C0C0C0"/>
<path fill-rule="evenodd" clip-rule="evenodd" d="M31.7116 56.985C31.8252 56.985 31.9185 57.0783 31.9185 57.192C31.9185 57.3056 31.8252 57.3989 31.7116 57.3989C31.5979 57.3989 31.5046 57.3056 31.5046 57.192C31.5046 57.0783 31.5979 56.985 31.7116 56.985Z" fill="#C0C0C0"/>
<path fill-rule="evenodd" clip-rule="evenodd" d="M31.7114 52.8612C31.7959 52.8612 31.8629 52.9282 31.8629 53.0128C31.8629 53.0973 31.7959 53.1643 31.7114 53.1643C31.6268 53.1643 31.5598 53.0973 31.5598 53.0128C31.5598 52.9282 31.6268 52.8612 31.7114 52.8612Z" fill="#C0C0C0"/>
<path fill-rule="evenodd" clip-rule="evenodd" d="M31.7115 54.2018C31.8048 54.2018 31.8805 54.2776 31.8805 54.3709C31.8805 54.4641 31.8048 54.5399 31.7115 54.5399C31.6183 54.5399 31.5425 54.4641 31.5425 54.3709C31.5425 54.2776 31.6183 54.2018 31.7115 54.2018Z" fill="#C0C0C0"/>
<path fill-rule="evenodd" clip-rule="evenodd" d="M31.7116 55.4987C31.8252 55.4987 31.9185 55.592 31.9185 55.7056C31.9185 55.8193 31.8252 55.9126 31.7116 55.9126C31.5979 55.9126 31.5046 55.8193 31.5046 55.7056C31.5046 55.592 31.5979 55.4987 31.7116 55.4987Z" fill="#C0C0C0"/>
<path fill-rule="evenodd" clip-rule="evenodd" d="M31.7114 61.5228C31.7959 61.5228 31.8629 61.4557 31.8629 61.3712C31.8629 61.2867 31.7959 61.2197 31.7114 61.2197C31.6268 61.2197 31.5598 61.2867 31.5598 61.3712C31.5598 61.4557 31.6268 61.5228 31.7114 61.5228Z" fill="#C0C0C0"/>
<path fill-rule="evenodd" clip-rule="evenodd" d="M31.7115 60.1851C31.8048 60.1851 31.8805 60.1093 31.8805 60.016C31.8805 59.9228 31.8048 59.847 31.7115 59.847C31.6183 59.847 31.5425 59.9228 31.5425 60.016C31.5425 60.1093 31.6183 60.1851 31.7115 60.1851Z" fill="#C0C0C0"/>
<path fill-rule="evenodd" clip-rule="evenodd" d="M31.7116 58.8853C31.8252 58.8853 31.9185 58.792 31.9185 58.6784C31.9185 58.5647 31.8252 58.4714 31.7116 58.4714C31.5979 58.4714 31.5046 58.5647 31.5046 58.6784C31.5046 58.792 31.5979 58.8853 31.7116 58.8853Z" fill="#C0C0C0"/>
<path fill-rule="evenodd" clip-rule="evenodd" d="M24.172 52.5552C26.7513 52.5552 28.5378 54.8867 28.5116 57.3493H21.6657C21.7152 58.5501 22.3301 59.5701 23.1928 60.0189C24.5072 60.7009 27.3837 59.9752 28.1035 58.9639C28.1239 59.6459 28.1414 60.3279 28.1618 61.0098C27.1593 61.9249 24.3003 62.3155 22.8314 61.7967C21.0886 61.1818 19.8296 59.3982 19.8296 57.2911C19.8296 54.6769 21.7735 52.5552 24.172 52.5552ZM26.5706 56.3177C26.285 55.1606 25.4485 54.1115 24.172 54.1115C23.0325 54.1115 22.0708 55.0411 21.7647 56.3177H26.5706Z" fill="#231F20"/>
</g>
</g>
<rect x="1" y="1" width="110" height="110" rx="9" stroke="black" stroke-opacity="0.1" stroke-width="2"/>
<defs>
<clipPath id="clip0_630_786">
<rect x="2" y="2" width="108" height="108" rx="8" fill="white"/>
</clipPath>
<clipPath id="clip1_630_786">
<rect width="80" height="18.518" fill="white" transform="translate(16 46.741)"/>
</clipPath>
</defs>
</svg>
