<svg width="112" height="112" viewBox="0 0 112 112" fill="none" xmlns="http://www.w3.org/2000/svg">
<g clip-path="url(#clip0_630_787)">
<rect x="2" y="2" width="108" height="108" rx="8" fill="white"/>
<g clip-path="url(#clip1_630_787)">
<path d="M21.43 49.71V67.62C21.43 67.62 21.72 69.59 20.66 70.68C19.96 71.4 18.72 71.63 17.02 71.35L17 73.27C19.36 73.64 20.88 73.22 22.05 72.03C23.82 70.24 23.37 67.4 23.35 67.3L23.37 67.45V49.71H21.43ZM38.84 61.04H40.81V39.15H38.84V61.04ZM45.3 50.05L39.42 55.31L40.73 56.7L48.33 50.03L45.29 50.05H45.3ZM48.91 60.91L41.73 53.32L40.34 54.66L46.19 60.89L48.91 60.91ZM60.75 52.82C60.4 51.5 58.88 49.15 55.32 48.98C52.48 48.88 49.16 50.27 49.16 53.26L49.26 57.45C49.26 57.65 49.59 59.09 50.78 60.31C51.5 61.03 52.44 61.21 53.6 61.21H56.39C57.56 61.28 60.03 60.26 60.78 56.69H58.91C58.31 59.34 56.47 59.26 56.44 59.26H53.46C52.84 59.26 52.34 59.09 51.99 58.74C51.34 58.09 51.19 57.07 51.19 57.07L51.12 53.26C51.12 50.84 54.36 50.92 55.33 50.87C57.67 50.79 58.57 52.24 58.64 52.49L58.76 52.82H60.76H60.75ZM78.18 60.39V53.69C78.23 53.39 78.63 50.82 82.02 51.07L82.05 49.12C77.76 48.8 76.45 51.84 76.27 53.48L76.24 53.53V60.38H78.19L78.18 60.39ZM92.96 39V56.04C92.96 56.04 92.96 57.76 92.06 58.68C91.66 59.07 91.14 59.28 90.44 59.28H88.42C88.42 59.28 87.3 59.33 86.35 58.58C85.9 58.24 85.58 57.61 85.58 56.84V53.53C85.58 53.53 86.32 51.52 87.94 51.16H90.01C90.01 51.16 92.37 51.11 92.95 53.36L94.07 52.56C94.07 50.27 91.65 49.37 90.21 49.23H87.67C84.88 50.05 83.64 52.44 83.64 53.59V56.85C83.64 58.17 84.17 59.32 85.06 60.02C86.56 61.21 88.25 61.24 88.47 61.24H90.44C91.66 61.24 92.68 60.84 93.46 60.04C94.93 58.52 94.9 56.12 94.9 56.03V39H92.96ZM53.97 62.77C54.14 63.19 58.4 73.23 73.5 73.23H73.57C76.66 73.28 84.53 72.34 91.46 62.77H89.05C82.65 71.61 74.05 71.48 73.6 71.28H73.5C60.07 71.28 56.43 62.84 56.38 62.74L53.97 62.77ZM28.26 58.85C28.04 58.65 27.94 58.35 27.94 57.9V57.8L27.91 57.7C27.91 57.7 27.89 57.58 27.89 57.41C27.89 57.2 27.94 56.93 28.09 56.73C28.37 56.41 28.94 56.35 29.39 56.35H34.52V57.82C34.49 58.09 34.27 59.19 33.23 59.19H29.24C29.07 59.19 28.56 59.14 28.27 58.84M33.2 49.07L29.89 49.05C27.45 49.25 26.68 51.13 26.68 51.84H28.62C28.62 51.84 29.02 50.99 29.69 50.99H33.33C33.6 51.04 34.53 51.71 34.53 52.98V54.37H29.4C28.13 54.37 27.18 54.77 26.58 55.52C26.08 56.14 25.96 56.87 25.96 57.39C25.96 57.73 26.01 57.98 26.03 58.06C26.08 59.18 26.54 59.88 26.93 60.25C27.85 61.15 29.15 61.15 29.3 61.12H33.24C35.53 61.12 36.35 59.08 36.48 57.98V53.2C36.32 50.23 34.21 49.19 33.31 49.06L32.89 49.04L33.22 49.06L33.2 49.07ZM65.49 58.84C65.29 58.64 65.19 58.34 65.19 57.89V57.79L65.17 57.69C65.17 57.69 65.14 57.57 65.14 57.4C65.14 57.19 65.17 56.92 65.31 56.72C65.58 56.4 66.16 56.34 66.61 56.34H71.73V57.81C71.71 58.08 71.49 59.18 70.44 59.18H66.48C66.28 59.18 65.79 59.13 65.49 58.83M70.45 49.06L67.14 49.04C64.67 49.24 63.9 51.12 63.9 51.83H65.85C65.85 51.83 66.27 50.98 66.92 50.98H70.58C70.86 51.03 71.75 51.7 71.75 52.97V54.36H66.63C65.36 54.36 64.41 54.76 63.81 55.51C63.31 56.13 63.19 56.86 63.19 57.38C63.19 57.72 63.24 57.97 63.27 58.05C63.32 59.17 63.77 59.87 64.17 60.24C65.12 61.14 66.39 61.14 66.54 61.11H70.47C72.76 61.11 73.61 59.07 73.71 57.97V53.19C73.56 50.22 71.44 49.18 70.55 49.05L70.13 49.03L70.48 49.05L70.45 49.06Z" fill="#241F1F"/>
<path d="M21.9301 42.02C21.7001 42.32 21.8601 42.54 21.8601 42.54L24.5501 47.87H25.5901L22.2501 41.4C22.1801 41.72 21.9301 42.02 21.9301 42.02ZM19.8901 45.35C19.5901 45.71 19.7601 46 19.7601 46L20.7601 47.87H22.0101L20.2901 44.56C20.1901 44.96 19.8901 45.35 19.8901 45.35ZM20.8801 43.59C20.7301 43.79 20.8501 44.01 20.8501 44.01L22.8201 47.87H23.6701L21.1501 43.01C21.0701 43.31 20.8701 43.58 20.8701 43.58M18.8801 46.92C18.6401 47.24 18.7801 47.49 18.7801 47.49L18.9801 47.86H20.0801L19.2301 46.24C19.1601 46.59 18.8801 46.91 18.8801 46.91" fill="#E71722"/>
</g>
</g>
<rect x="1" y="1" width="110" height="110" rx="9" stroke="black" stroke-opacity="0.1" stroke-width="2"/>
<defs>
<clipPath id="clip0_630_787">
<rect x="2" y="2" width="108" height="108" rx="8" fill="white"/>
</clipPath>
<clipPath id="clip1_630_787">
<rect width="77.9" height="34.41" fill="white" transform="translate(17 39)"/>
</clipPath>
</defs>
</svg>
